<svg id="Layer_1" data-name="Layer 1" xmlns="http://www.w3.org/2000/svg" xmlns:xlink="http://www.w3.org/1999/xlink" viewBox="0 0 3839 1844.2"><defs><linearGradient id="Dégradé_sans_nom" x1="1105.8" y1="507.99" x2="3825.1" y2="507.99" gradientTransform="matrix(1, 0, 0, -1, 0, 1841.89)" gradientUnits="userSpaceOnUse"><stop offset="0.52" stop-color="#ed3339"/><stop offset="0.89" stop-color="#fff"/></linearGradient><linearGradient id="Dégradé_sans_nom_2" x1="1016.3" y1="469.89" x2="3825.1" y2="469.89" xlink:href="#Dégradé_sans_nom"/><linearGradient id="Dégradé_sans_nom_3" x1="926.7" y1="431.84" x2="3825.1" y2="431.84" xlink:href="#Dégradé_sans_nom"/><linearGradient id="Dégradé_sans_nom_4" x1="837.1" y1="393.74" x2="3825.1" y2="393.74" xlink:href="#Dégradé_sans_nom"/><linearGradient id="Dégradé_sans_nom_5" x1="799.8" y1="355.74" x2="3825.1" y2="355.74" xlink:href="#Dégradé_sans_nom"/></defs><polygon points="575.7 1463.4 382.6 1309.9 654.9 1309.9 800.5 1048.3 800.5 1309.9 1218 1309.9 1218 0 0 1844.2 355.5 1844.2 575.7 1463.4" style="fill:#fff"/><polygon points="811.1 1511 900.4 1776.6 1218 1776.6 1218 1511 811.1 1511" style="fill:#fff"/><polygon points="3825.1 1339.4 3825.1 1328.2 1164.2 1321.4 1105.8 1346.4 3825.1 1339.4" style="fill:url(#Dégradé_sans_nom)"/><polygon points="3825.1 1377.5 3825.1 1366.3 1075.7 1359.3 1016.3 1384.7 3825.1 1377.5" style="fill:url(#Dégradé_sans_nom_2)"/><polygon points="3825.1 1415.6 3825.1 1404.4 987.2 1397.1 926.7 1423 3825.1 1415.6" style="fill:url(#Dégradé_sans_nom_3)"/><polygon points="3825.1 1453.6 3825.1 1442.5 898.6 1435 837.1 1461.3 3825.1 1453.6" style="fill:url(#Dégradé_sans_nom_4)"/><polygon points="807.2 1499.5 3825.1 1491.7 3825.1 1480.6 810.1 1472.8 799.8 1477.3 807.2 1499.5" style="fill:url(#Dégradé_sans_nom_5)"/><path d="M1429.3,930.3v351.8h-119V671.4H1471l50.9,281.2,53.4-281.2h148.8v610.8h-120V930.3l-59.7,351.8H1491Z" transform="translate(0 0)" style="fill:#fff"/><path d="M1778.7,1282.1V671.4h210.6v89.5h-79V906.2h73.4v90.6h-73.4v197.6h79v87.8H1778.7Z" transform="translate(0 0)" style="fill:#fff"/><path d="M2044.9,1282.1V671.4h150.9q98.4,0,125.3,21.8t27,104.2v63.5c0,44.4-4.5,74-13.3,88.9s-48.2,26.5-71.5,34.5c22.5,6.4,61.7,16.8,71,31.3s13.9,37.1,13.9,67.6V1282H2220.7V1072.2c0-12.7-2.1-21.3-6.3-25.7s-17.3-6.6-29-6.6h-7.8v242.2Zm175.8-398.3V793.7c0-16.3-2-26.3-5.9-30s-11.9-5.5-23.8-5.5h-13V926.6c1.7,0,4,.1,7.1.4s5.3.4,6.7.4c11.1,0,18.8-1.8,22.8-5.3s6.1-10.3,6.1-20.3v-18Z" transform="translate(0 0)" style="fill:#fff"/><path d="M2409.9,1282.1V671.4h131.6v610.8H2409.9Z" transform="translate(0 0)" style="fill:#fff"/><path d="M2603.1,794.8q0-85.35,25.2-106c16.8-13.7,67.1-29,134.1-29,68.5,0,102.6,15.8,119.1,30.5s24.8,49.5,24.8,104.5v85.1H2773.6V798.5c0-11.8-1.5-19.8-4.5-23.9s-14.9-6.3-23-6.3c-6.2,0-10.5,1.8-13,5.5s-3.7,11.9-3.7,24.7v356c0,11.3,1.4,19.2,4.3,23.9s7.7,7,14.7,7c5.9,0,16.9-1.8,20.3-5.3s5-8.5,5-14.9V1022h132.7v136.1q0,84.45-25.6,106.3c-17.1,14.6-50.4,30.6-117.4,30.6-67.7,0-118.6-16.1-135.2-31.1s-25-50.2-25-105.8V794.8Z" transform="translate(0 0)" style="fill:#fff"/><path d="M2926.3,1282.1l100.8-610.8h160.1l71.5,610.8H3145l-13.4-107.7h-68l-10,107.7Zm157.4-219h41.6l-20.6-235.8Z" transform="translate(0 0)" style="fill:#fff"/><path d="M3287.3,1282.1V671.4H3410l65.7,250.4V671.4h114.8v610.8H3484.7l-83.8-299.3v299.3H3287.3Z" transform="translate(0 0)" style="fill:#fff"/><path d="M3644.2,740.5V690h-20.9V679h56.3v11h-20.8v50.5Z" transform="translate(0 0)" style="fill:#fff"/><path d="M3688,740.5V679h21.5l14,46.8,13.9-46.8h21.7v61.5h-13.7V690.9l-14.3,49.6h-14.9l-14.5-49.6v49.6Z" transform="translate(0 0)" style="fill:#fff"/><polygon points="1331.6 1755.4 1331.6 1575.2 1310.3 1575.2 1310.3 1776.6 1455.4 1776.6 1455.4 1755.4 1331.6 1755.4" style="fill:#fff"/><polygon points="2074.6 1596.5 2074.6 1575.2 1918.3 1575.2 1918.3 1776.6 2074.6 1776.6 2074.6 1755.4 1939.5 1755.4 1939.5 1685.5 2069.8 1685.5 2069.8 1664.3 1939.5 1664.3 1939.5 1596.5 2074.6 1596.5" style="fill:#fff"/><polygon points="3341.9 1596.5 3341.9 1575.2 3185.5 1575.2 3185.5 1776.6 3341.9 1776.6 3341.9 1755.4 3206.8 1755.4 3206.8 1685.5 3337.1 1685.5 3337.1 1664.3 3206.8 1664.3 3206.8 1596.5 3341.9 1596.5" style="fill:#fff"/><path d="M2241.7,1642.7c.3,0,.6-.1.8-.1-2.7-.1-4.4-.2-4.4-.2C2239.3,1642.5,2240.4,1642.7,2241.7,1642.7Z" transform="translate(0 0)" style="fill:#fff"/><path d="M2257.4,1689.1c17.8-5.1,30.5-18.6,30.5-34.6V1612c0-20.3-20.7-36.9-46.2-36.9H2108.4v201.4h21.3v-78.2H2243c13.8,0,24.9,17.7,24.9,28.7v49.5h21.3V1724C2289.1,1707.7,2275.7,1694,2257.4,1689.1Zm-15.7-12c-.9,0-74.8-.1-112,0v-80.8c36-.3,106.4-.9,112-.9,13.8,0,24.9,8.9,24.9,19.9v36.1C2266.6,1662.3,2255.5,1677.1,2241.7,1677.1Z" transform="translate(0 0)" style="fill:#fff"/><path d="M1593.3,1575.2h-25.5l-94.6,201.4h23.5l19.7-41.8h128.4l19.6,41.8h23.5Zm-66.9,138.3,54.2-115.4,54.2,115.4Z" transform="translate(0 0)" style="fill:#fff"/><path d="M2772.2,1575.2h-25.5l-94.6,201.4h23.5l19.6-41.8h128.4l19.6,41.8h23.5Zm-67,138.3,54.2-115.4,54.2,115.4Z" transform="translate(0 0)" style="fill:#fff"/><path d="M1884,1633.2v-21.1c0-20.3-20.7-36.9-46.2-36.9h-89.5c-25.5,0-46.2,16.5-46.2,36.9v39.1c0,20.4,20.7,36.9,46.2,36.9h89.4c13.8,0,24.9,8.9,24.9,19.9v27.6c0,11-11.2,19.9-24.9,19.9h-89.4c-13.8,0-24.9-8.9-24.9-19.9v-21.9h-21.3V1740c0,20.3,20.7,36.9,46.2,36.9h89.4c25.5,0,46.2-16.5,46.2-36.9v-36.2c0-20.4-20.7-36.9-46.2-36.9h-89.4c-13.8,0-24.9-8.9-24.9-19.9v-30.4c0-11,11.2-19.9,24.9-19.9h89.4c13.8,0,24.9,8.9,24.9,19.9v16.8H1884Z" transform="translate(0 0)" style="fill:#fff"/><path d="M3555,1633.2v-21.1c0-20.3-20.7-36.9-46.2-36.9h-89.5c-25.5,0-46.2,16.5-46.2,36.9v39.1c0,20.4,20.7,36.9,46.2,36.9h89.4c13.8,0,24.9,8.9,24.9,19.9v27.6c0,11-11.2,19.9-24.9,19.9h-89.4c-13.8,0-24.9-8.9-24.9-19.9v-21.9h-21.3V1740c0,20.3,20.7,36.9,46.2,36.9h89.5c25.5,0,46.2-16.5,46.2-36.9v-36.2c0-20.4-20.7-36.9-46.2-36.9h-89.4c-13.8,0-24.9-8.9-24.9-19.9v-30.4c0-11,11.2-19.9,24.9-19.9h89.4c13.8,0,24.9,8.9,24.9,19.9v16.8H3555Z" transform="translate(0 0)" style="fill:#fff"/><path d="M2627.9,1633.2v-21.1c0-20.3-20.7-36.9-46.2-36.9H2477.8c-25.5,0-46.2,16.5-46.2,36.9v127.7c0,20.3,20.7,36.9,46.2,36.9h103.9c25.5,0,46.2-16.5,46.2-36.9v-62.6H2524.6v21.3h82v37.1c0,11-11.2,19.9-24.9,19.9H2477.8c-13.8,0-24.9-8.9-24.9-19.9V1616.5c0-11,11.2-19.9,24.9-19.9h103.9c13.8,0,24.9,8.9,24.9,19.9v16.8h21.3Z" transform="translate(0 0)" style="fill:#fff"/><polygon points="3112.6 1575.2 3016.8 1748.6 2921.1 1575.2 2888.6 1575.2 2888.6 1776.1 2909.8 1776.1 2909.8 1598.8 3008 1776.6 3025.6 1776.6 3123.8 1598.8 3123.8 1776.1 3145.1 1776.1 3145.1 1575.2 3112.6 1575.2" style="fill:#fff"/><path d="M3829.7,1755.9v12.3c0,4.8-4.9,8.7-10.9,8.7h-28.1c-6,0-10.9-3.9-10.9-8.7v-51.8c0-4.8,4.9-8.7,10.9-8.7h28.1c6,0,10.9,3.9,10.9,8.7v7.3h9.3v-9.2c0-8.9-9-16.1-20.1-16.1h-28.1c-11.1,0-20.1,7.2-20.1,16.1v55.6c0,8.9,9,16,20.1,16h28.1c11.1,0,20.1-7.2,20.1-16v-14.2Z" transform="translate(0 0)" style="fill:#fff"/><rect x="3652.5" y="1698.4" width="9.3" height="87.7" style="fill:#fff"/><polygon points="3745.9 1698.4 3745.9 1778.1 3696.2 1698.4 3679.5 1698.4 3679.5 1786.1 3688.8 1786.1 3688.8 1704.1 3740 1786.1 3755.2 1786.1 3755.2 1698.4 3745.9 1698.4" style="fill:#fff"/><path d="M3594.3,1754.3h-22.6v27.1h13.5a6.11,6.11,0,0,1,.8,3v12.1c0,4.3-4.4,7.9-9.9,7.9h-5.7l-5.8,8.4h11.6c10.1,0,18.3-6.5,18.3-14.6v-43.9Z" transform="translate(0 0)" style="fill:#fff"/></svg>