<svg id="Layer_1" data-name="Layer 1" xmlns="http://www.w3.org/2000/svg" viewBox="0 0 3838.99995 488.33613"><path d="M2299.2,488c-50.3999,0-102.6001.6-151.8999-9.7-39.5-8.6-64.8-28.7-72.8-69.3-7.5-37.3-5.7-77.4-5.7-115.2,0-22.9,0-45.8,1.2-68.2,1.1001-35,1.7-72.8,28.7-98,9.19995-8.6,20.1001-14.3,32.1001-18.3,50.3999-16.6,158.80005-14.9,212.1001-14.9,43.60009,0,88.30005-1.2,131.2,6.9,17.19995,3.4,32.69995,9.2,46.3999,20.1,30.3999,23.5,30.3999,68.8,30.3999,103.2,0,4-.6001,8.6-.6001,12.6H2434c-.6001-10.3-.6001-29.2-8.6001-36.1-5.19995-4.6-14.3-6.3-21.19995-6.9-31-4-63.6001-4-94.6001-4-16.60009,0-32.7,0-49.30005.6-17.19995.6-41.8.6-56.19995,11.5-20.10009,15.5-18.30005,68.8-18.30005,91.1,0,20.6-2.3,72.8,17.2,87.1a53.76708,53.76708,0,0,0,24.60009,9.2c24.6001,3.4,51.6001,2.9,76.8,2.9h59c21.2,0,62.5,3.4,72.2-21.2,4-10.3,4.6001-25.2,4.6001-36.1h116.3c.6001,9.2,1.1001,18.9,1.1001,28.1,0,32.7-.6001,71.6-26.8999,95.1-35.5,32.1-137,29.8-182.30005,29.8H2299.2002V488Z" transform="translate(-0.00005 0)" style="fill:#fff"/><path d="M3111.2,360.2c-2.30005,30.9-10.8999,68.2-34.3999,90C3037.2,486.3,2945.6001,482.3,2895.7,482.3h-286.6001V100h284.8c21.80005,0,43.6001,0,65.30005.6,59.6001,1.2,121.5,6.3,143.3,71.6,12,36.1,10.8999,76.2,10.8999,113.5C3113.5,310.3,3112.8999,335.5,3111.2,360.2ZM2891.7,195.7h-167.8999V384.8H2886c13.8,0,26.8999-.6,40.7-1.1,16-.6,41.8-1.1,55-12,17.8-14.9,17.19995-57.9,17.19995-79.1C2998.8999,195.7,2981.7,195.7,2891.7,195.7Z" transform="translate(-0.00005 0)" style="fill:#fff"/><path d="M3501.3999,216.1c-5.3,22-24.69995,32.6-45.6001,36.8-19,3.8-38.69995,4.9-58.10009,5.3-24.3.8-48.19995,1.1-72.5,1.1-29.6001,0-83.89991,1.5-107.5-19.4-18.6001-16.7-16.69995-52-16.69995-74.8h73.69995v4.6c0,8.4-1.1001,19,6.10009,25.1,6.5,5.3,27.30005,4.6,35.30005,4.6,11.8,0,23.89991.4,35.69995.4,13.7,0,27.30005-.4,41-.8,19.39991-.4,36.80005.8,36.80005-22.4,0-4.2,0-9.5-2.7-12.9-5.3-8.3-25.8-7.6-34.19995-8-24.7-.8-49-1.1-73.7-.8V100.6h58.5c10.6001,0,23.5,0,34.2-2.7,10.6001-2.7,12.8999-9.5,12.8999-19.7,0-5.3-.80005-10.2-4.8999-14-8-7.2-61.8999-5.7-73.30005-5.7-11.8,0-23.5.4-35.3.4-9.10009,0-23.5-.4-30.80005,6.1-6.5,5.7-4.8999,18.6-4.8999,26.6h-73.6001V78.2c0-11.8.39991-24.3,3.39991-35.7,6.10009-22.4,26.60009-32.6,47.80005-36.5,34.69995-6,74.8999-6,110.19995-6,16,0,31.5,0,47.5.8,24.7.8,55.10009,1.1,74,19.7,13.30005,12.9,14.80005,34.5,14.80005,52,0,32.7-8.7,46.7-41.39991,53.5,6.8,1.9,14,3,20.5,5.7,24.69995,9.5,25.8,32.3,25.8,55.4A118.61676,118.61676,0,0,1,3501.3999,216.1Z" transform="translate(-0.00005 0)" style="fill:#ff001f"/><path d="M3537.1001,256.3c0-9.9-.80005-20.1-.80005-30,0-20.5-.3999-41,3-61.1,6.80005-42.1,43.30005-47.5,79.7-50.5l95.7-7.6c12.19995-1.1,25.3999-1.1,37.19995-5.3,11-3.8,11-10.2,11-20.9,0-7.2,0-15.2-6.5-19.7-9.5-7.2-50.5-5.3-61.5-5.3C3671.7,55.9,3646.7,54.8,3623.5,58.6c-17.5,2.7-15.6001,15.2-15.6001,30.4v8.3h-74.8V87c0-20.9.39991-49.7,15.89991-66.1,17.5-18.2,56.19995-19,79.3999-20.1,16.3-.8,32.7-.8,49-.8h7.2l62.69995.4c24.30005,0,55.3999.4,73.7,19,14,14.4,14,43.3,14,61.9,0,19-.3999,39.1-11,55.8-14,22.4-53.8999,25.4-77.5,27-18.2,1.1-36.1001,2.3-54.30005,3.4-14.3999.8-28.8999,1.9-43.3,3-6.5.4-22.8,1.5-28.8999,3.8-12.2,4.6-12.2,12.9-12.2,23.9H3839v58.1Z" transform="translate(-0.00005 0)" style="fill:#ff001f"/><path d="M2440.1001,335c0,10.9-.6001,25.8-4.6001,36.1-9.7,24.6-51,21.2-72.2,21.2h-59c-25.19995,0-52.19995.6-76.8-2.9a52.26739,52.26739,0,0,1-24.6001-9.2c-19.5-14.3-17.19995-66.5-17.19995-87.1,0-22.3-1.7-75.6,18.3-91.1,14.3-10.9,39-10.9,56.2-11.5,16.6001-.6,32.69995-.6,49.3-.6,31,0,63.6001,0,94.6001,4,6.8999.6,16,2.3,21.19995,6.9,8,6.9,8,25.8,8.6001,36.1H2550.2002c0-4,.60009-8.6.60009-12.6,0-34.4,0-79.7-30.3999-103.2-13.8-10.9-29.19995-16.6-46.3999-20.1-43-8-87.69995-6.9-131.19995-6.9-53.30005,0-161.6001-1.7-212.1001,14.9-12,4-22.8999,9.7-32.1001,18.3-26.8999,25.2-27.5,63-28.7,98-1.19995,22.4-1.19995,45.3-1.19995,68.2,0,37.8-1.7,77.9,5.69995,115.2,8,40.7,33.2,60.8,72.80005,69.3,49.3,10.3,101.3999,9.7,151.8999,9.7h49.3c45.30005,0,146.7,2.3,182.30005-29.8,26.3999-23.5,26.8999-62.5,26.8999-95.1,0-9.2-.6001-18.9-1.1001-28.1h-116.3999v.3Zm662.5-162.8c-21.80005-65.3-83.7-70.5-143.30005-71.6-21.8-.6-43.6001-.6-65.3-.6H2609.2V482.3h286.6001c49.8999,0,141.6001,4,181.1001-32.1,23.5-21.8,32.10009-59,34.3999-90,1.7-24.6,2.30005-49.9,2.30005-74.5C3113.5,248.4,3114.6001,208.3,3102.6001,172.2ZM2981.7,371.7c-13.2,10.9-39,11.5-55,12-13.80005.6-26.8999,1.1-40.7,1.1h-162.2V195.7H2891.7c90,0,107.19995,0,107.19995,96.9C2998.8999,313.8,2999.5,356.7,2981.7,371.7Z" transform="translate(-0.00005 0)" style="fill:#fff"/><path d="M2299.2,488c-50.3999,0-102.6001.6-151.8999-9.7-39.5-8.6-64.8-28.7-72.8-69.3-7.5-37.3-5.7-77.4-5.7-115.2,0-22.9,0-45.8,1.2-68.2,1.1001-35,1.7-72.8,28.7-98,9.19995-8.6,20.1001-14.3,32.1001-18.3,50.3999-16.6,158.80005-14.9,212.1001-14.9,43.60009,0,88.30005-1.2,131.2,6.9,17.19995,3.4,32.69995,9.2,46.3999,20.1,30.3999,23.5,30.3999,68.8,30.3999,103.2,0,4-.6001,8.6-.6001,12.6H2434c-.6001-10.3-.6001-29.2-8.6001-36.1-5.19995-4.6-14.3-6.3-21.19995-6.9-31-4-63.6001-4-94.6001-4-16.60009,0-32.7,0-49.30005.6-17.19995.6-41.8.6-56.19995,11.5-20.10009,15.5-18.30005,68.8-18.30005,91.1,0,20.6-2.3,72.8,17.2,87.1a53.76708,53.76708,0,0,0,24.60009,9.2c24.6001,3.4,51.6001,2.9,76.8,2.9h59c21.2,0,62.5,3.4,72.2-21.2,4-10.3,4.6001-25.2,4.6001-36.1h116.3c.6001,9.2,1.1001,18.9,1.1001,28.1,0,32.7-.6001,71.6-26.8999,95.1-35.5,32.1-137,29.8-182.30005,29.8H2299.2002V488Z" transform="translate(-0.00005 0)" style="fill:#fff"/><path d="M3111.2,360.2c-2.30005,30.9-10.8999,68.2-34.3999,90C3037.2,486.3,2945.6001,482.3,2895.7,482.3h-286.6001V100h284.8c21.80005,0,43.6001,0,65.30005.6,59.6001,1.2,121.5,6.3,143.3,71.6,12,36.1,10.8999,76.2,10.8999,113.5C3113.5,310.3,3112.8999,335.5,3111.2,360.2ZM2891.7,195.7h-167.8999V384.8H2886c13.8,0,26.8999-.6,40.7-1.1,16-.6,41.8-1.1,55-12,17.8-14.9,17.19995-57.9,17.19995-79.1C2998.8999,195.7,2981.7,195.7,2891.7,195.7Z" transform="translate(-0.00005 0)" style="fill:#fff"/><path id="path6187" d="M394.4,467c-.1-4.6-1.3-7.6-3.8-9.2a22.30653,22.30653,0,0,0-10-3c-14.2-2.3-22.7-7.8-25.4-16.3s-4-19.5-3.9-32.9l-14.4-276c.1-9.9-.9-18.3-2.8-25s-8.3-10.2-19.4-10.4c-10,.3-17.3,3.2-21.9,8.8a168.07741,168.07741,0,0,0-14,20l-177,248.9-29.9,42a209.25466,209.25466,0,0,1-19.2,25,44.3671,44.3671,0,0,1-26.7,14.2,69.83114,69.83114,0,0,0-17.4,3.6c-5.4,1.9-8.3,6.4-8.6,13.6.2,4.3,1.6,7.1,4.5,8.3a23.67407,23.67407,0,0,0,9.9,1.7c10.2-.1,20.6-.7,31-1.7s20.9-1.5,31.5-1.7c9.4.1,18.8.6,28.2,1.4s18.8,1.3,28.2,1.4a24.15833,24.15833,0,0,0,12-2.8q5.4-2.85,5.7-9.9c-.6-6.8-4.8-10.8-12.5-11.9s-15.4-2.6-23.2-4.5c-7.7-1.9-11.9-7.5-12.5-16.7q2.1-14.85,19.5-42.2,17.4-27.45,25.3-38.5H258.2q.9,17.4,1.8,35.1c.6,11.8.9,23.5,1,35.1-.6,16.2-4.9,25.7-12.8,28.5a79.79613,79.79613,0,0,1-23.7,4.7c-7.9.3-12.2,4.9-12.8,13.8.1,3.8,1.3,6.4,3.6,7.9a15.47362,15.47362,0,0,0,8.6,2.1c15.2-.1,30.5-.7,45.9-1.7s30.7-1.5,45.9-1.7c10.2.1,20.5.5,30.7,1.1s20.5,1,30.7,1.1a27.53084,27.53084,0,0,0,11.9-2.1C392.5,475.4,394.3,472.1,394.4,467ZM257.8,326H165.4l87.9-128.3Z" transform="translate(-0.00005 0)" style="fill:#ff001f"/><path id="path4766" d="M1194.80005,115.8a9.73755,9.73755,0,0,0-3.19995-7.5,11.9663,11.9663,0,0,0-7.80005-2.5c-5,0-9.80005.3-14.69995.7q-7.20008.6-14.7,1.5c-12.19995,1.3-24.6,2.1-37.1,2.4s-25.1.4-37.5.3c-9.1-.1-18.30005-.5-27.4-1.1s-18.3-1-27.4-1.1a19.61445,19.61445,0,0,0-11.7,3.7,13.09514,13.09514,0,0,0-5.5,10.7c1.6,8.3,7.8,12.3,18.8,11.8s17.19995,4.2,18.8,14.2a52.82813,52.82813,0,0,1-1,8.6c-.69995,2.9-1.4,5.8-2.3,8.6l-69.7,241.7a217.21659,217.21659,0,0,1-8.9,29.4c-3.3,8.3-10.8,13.8-22.6,16.5-5.4.8-11.7,2.1-19,3.9s-11.3,6-12,12.7c.2,3.8,1.6,6.5,4.4,8.2a18.51865,18.51865,0,0,0,9.4,2.4c11.9-.2,23.9-.9,36-2.2s24.3-2,36.4-2.2c13,.1,26.1.6,39.3,1.4,13.2.8,26.2,1.3,39.30005,1.4a92.063,92.063,0,0,0,18.5-.7c6.9-.9,10.8-4.7,11.4-11.5-.5-7.1-4.1-10.9-10.80005-11.3a115.62054,115.62054,0,0,1-20-3.2c-6.69995-1.7-10.19995-7.9-10.80005-18.7a64.884,64.884,0,0,1,1.7-13.6c1.1-4.6,2.4-9.1,3.8-13.6l69.7-242.8c2.6-10,5.6-17.2,9.1-21.8,3.5-4.5,10.4-7.8,20.69995-9.7a74.80122,74.80122,0,0,0,16.80005-4.4c6.19995-2.19992,9.5-6.29992,10-12.19992Z" transform="translate(-0.00005 0)" style="fill:#ff001f"/><path id="path4768" d="M1558.6,118.6c-.80005-6-6.80005-10.2-18.2-12.7a202.52747,202.52747,0,0,0-35.69995-4.5c-12.5-.5-20.9-.7-25.2-.5q-69.29993.15-145.1,28.1-75.75,27.9-129.19995,81.8-53.4,53.85-55.9,131.7,1.04992,49.5,28.6,81.7,27.6,32.25,69.6,48a244.64351,244.64351,0,0,0,86.5,15.7,472.16589,472.16589,0,0,0,54.30005-3.2,470.92124,470.92124,0,0,0,53.5-9.5,81.695,81.695,0,0,0,17.19995-5.2c4.80005-2.1,8.5-6.5,11-13.1,4.9-13.9,9.2-27.9,13.1-42.1,3.8-14.2,7.8-28.4,11.8-42.5q10.04993-30.15,23.7-35.4c9.1-3.5,17.3-5.1,24.3-4.9,7.1.2,10.80005-4.2,11.2-13.3-.2-3.8-1.6-6.5-4.4-8.2a18.51881,18.51881,0,0,0-9.4-2.4c-13.80005.2-27.69995.8-41.6,1.9s-27.9,1.8-42,1.9c-13.30005-.1-26.5-.7-39.80005-1.7s-26.5-1.5-39.8-1.7a31.32892,31.32892,0,0,0-12.80005,2.4c-4.1,1.7-6.3,5.2-6.6,10.3.5,6.3,4.19995,9.7,11,10.4a114.19951,114.19951,0,0,1,20.5,4c6.80005,2,10.5,8,11,18.2-.6,10.4-3.80005,24.6-9.6,42.7-5.80005,18.1-10.5,32.6-14.2,43.6-2.19995,8.5-5,14.5-8.6,18-3.6,3.6-9.9,5.3-19,5.2q-48.6-1.05-73.5-31.5t-25-77.5a215.17857,215.17857,0,0,1,18-84.2,234.855,234.855,0,0,1,47.80005-71.8q29.85-30,73.8-51.3c29.30005-14.2,58.1-21.6,86.6-22.3,13.5-.1,21.9,2.5,25,7.9s4.4,14.4,3.80005,27c-.1,3.3-.19995,6.6-.6,10-.30005,3.3-.5,6.6-.6,10a33.46878,33.46878,0,0,0,2.69995,15c2,4.5,6,6.9,12.19995,7.1q10.20007-.75,15-10.2a91.74888,91.74888,0,0,0,7.1-18c1.4-4.2,4.5-13.6,9.19995-28.1,5.1-14.1,7.69995-23.2,8.29993-26.8Z" transform="translate(-0.00005 0)" style="fill:#ff001f"/><path id="path4770" d="M1875.80005,467c-.1-4.6-1.30005-7.6-3.80005-9.2a22.30677,22.30677,0,0,0-10-3c-14.19995-2.3-22.69995-7.8-25.4-16.3-2.7-8.5-4-19.5-3.9-32.9l-14.4-276c.1-9.9-.9-18.3-2.8-25s-8.30005-10.2-19.4-10.4c-10,.3-17.30005,3.2-21.9,8.8a168.07393,168.07393,0,0,0-14,20l-177,248.9-29.9,42a209.26581,209.26581,0,0,1-19.19995,25,44.36717,44.36717,0,0,1-26.7,14.2,69.83177,69.83177,0,0,0-17.4,3.6c-5.4,1.9-8.30005,6.4-8.6,13.6.2,4.3,1.6,7.1,4.5,8.3a23.386,23.386,0,0,0,9.9,1.7c10.2-.1,20.6-.7,31-1.7,10.5-1,20.9-1.5,31.5-1.7,9.4.1,18.80005.6,28.2,1.4,9.4.8,18.8,1.3,28.19995,1.4a24.15817,24.15817,0,0,0,12-2.8q5.4-2.85,5.69995-9.9c-.6-6.8-4.80005-10.8-12.5-11.9s-15.4-2.6-23.19995-4.5c-7.69995-1.9-11.9-7.5-12.5-16.7q2.1-14.85,19.5-42.2,17.4-27.45,25.30005-38.5h110.6q.9,17.4,1.8,35.1c.6,11.8.9,23.5,1,35.1-.6,16.2-4.9,25.7-12.8,28.5a79.79649,79.79649,0,0,1-23.7,4.7c-7.9.3-12.19995,4.9-12.8,13.8.1,3.8,1.3,6.4,3.6,7.9a15.47329,15.47329,0,0,0,8.6,2.1c15.2-.1,30.5-.7,45.9-1.7s30.69995-1.5,45.9-1.7c10.19995.1,20.5.5,30.69995,1.1s20.5,1,30.7,1.1a27.53115,27.53115,0,0,0,11.9-2.1c3.50024-1.7,5.2002-5,5.40027-10.1ZM1739.2,326h-92.4l87.9-128.3Z" transform="translate(-0.00005 0)" style="fill:#ff001f"/><path id="path4764" d="M960.4,118c-.1-3.6-1.2-6.1-3.3-7.7s-4.9-2.3-8.3-2.3c-11.6.1-23.3.3-35.1.8s-23.5.8-35.1.8c-6.2-.3-15.4-.7-27.7-1-12.3-.4-20.6,1.1-24.8,4.4a28.51067,28.51067,0,0,0-2.2,3.9,36.07966,36.07966,0,0,1-2.2,3.9l-152.2,230-6.1-226.2a43.09816,43.09816,0,0,0-.5-11.1c-.6-3.1-3.4-4.8-8.4-4.9-12.7.1-25.6.3-38.4.7-12.9.4-25.7.3-38.4-.1-7.2-.3-14.4-.8-21.5-1.3s-14.2-.8-21.1-.9a38.95834,38.95834,0,0,0-13.6,1.9q-6.45,2.25-6.9,10.2c1.8,8.8,8.8,13.1,21,13,12.3-.1,19.3,4.2,21,13a61.69263,61.69263,0,0,1-3.8,18.9c-2.3,6.5-4.6,12.5-6.7,18.1q-20.25,56.1-40.3,112.2-20.1,56.1-41.5,111.8c-5.4,15.8-10.7,26.9-15.8,33.3-5.2,6.3-16.1,10.9-32.8,13.8a35.13891,35.13891,0,0,0-12.2,4.1c-3.5,2.1-5.3,5.7-5.5,10.8.2,4.6,1.8,7.5,4.8,8.8a23.91866,23.91866,0,0,0,10.6,1.7c9.7-.1,19.5-.3,29.3-.8s19.6-.8,29.3-.8c9.1.1,18.1.6,27,1.4s17.8,1.3,26.6,1.4a23.935,23.935,0,0,0,11.8-3.1c3.7-2.1,5.7-5.5,5.9-10.2-.6-7.8-4.9-11.9-12.9-12.5a125.07268,125.07268,0,0,1-24-3.9q-12-3-12.9-21.3,1.2-26.1,18.5-77.7,17.25-51.6,36.4-99.9,19.2-48.45,25.9-65.2l6.1,263.3c-.2,8.1.7,14.6,2.6,19.3,1.9,4.7,7.3,7.2,16.2,7.3,9.1-.4,16.3-3.5,21.5-9.5a147.91634,147.91634,0,0,0,14.4-19.8l177-260.5-58.6,220.1a172.55665,172.55665,0,0,1-8,28.6c-3.5,9.6-10.5,15.6-20.8,17.8a155.46,155.46,0,0,0-20,2.9c-7.4,1.5-11.4,6.1-12.1,13.7.1,4.1,1.5,7,4.2,8.6a16.7591,16.7591,0,0,0,9.6,2.4c12.7-.2,25.6-.9,38.4-2.2,12.9-1.3,25.7-2,38.4-2.2,13.3.2,26.5.9,39.8,2.2s26.5,2,39.8,2.2a29.65629,29.65629,0,0,0,13.2-2.5c3.9-1.8,5.9-5.4,6.2-10.8-.5-6.7-3.8-10.5-10-11.5a139.19193,139.19193,0,0,1-18.6-4.4c-6.2-1.9-9.6-7.5-10-16.7a103.11516,103.11516,0,0,1,2.4-20.4c1.5-6.9,3.1-13.6,4.8-20l56.4-226.2c2-9.9,4.5-17.7,7.7-23.3,3.1-5.6,10-9.1,20.5-10.4a54.65831,54.65831,0,0,0,16.4-3.5C957.2,128.6,960,124.4,960.4,118Z" transform="translate(-0.00005 0)" style="fill:#ff001f"/></svg>