<svg id="Layer_1" data-name="Layer 1" xmlns="http://www.w3.org/2000/svg" viewBox="0 0 3839.03216 2543.69846"><path d="M1838.5,744.9C1354.4,172.1,644.1-23.5,251.7,307.9-140.6,639.5-66.2,1372.5,417.8,1945.4c484.1,572.79993,1194.4,768.4,1586.7,436.99988C2396.8999,2050.80005,2322.5,1317.7,1838.5,744.9ZM1994.6,2305.8999c-361.70008,305.7-1030.6,109-1493.9-439.19995S-44.7,626.1,317,320.5s1030.6-109,1493.9,439.2C2274.1001,1307.9,2356.30005,2000.2,1994.6,2305.8999Z" transform="translate(0.03216 0)" style="fill:#fff"/><rect x="2400.13226" y="534.29999" width="317" height="1256.20001" style="fill:#fff"/><rect x="2180.03216" y="534.29999" width="757.19995" height="317" style="fill:#fff"/><path d="M1389.6,534.3V1790.5H1869.8999c153,0,276.8999-124,276.8999-276.9V811.3c0-153-124-276.9-276.9-276.9H1389.59985v-.1Zm440.20007,939.2H1706.6001V851.3h123.19995Z" transform="translate(0.03216 0)" style="fill:#fff"/><path d="M503.2,742.5v839.9c0,114.9,93.2,208.1,208.1,208.1h341c114.9,0,208.1-93.19995,208.1-208.1V1320.9H943.5v152.7H820.3V851.3H943.5V1004h317V742.5c0-114.9-93.19995-208.1-208.1-208.1h-341C596.4,534.3,503.2,627.6,503.2,742.5Z" transform="translate(0.03216 0)" style="fill:#fff"/><polygon points="3617.532 1790.5 3838.932 534.3 3517.132 534.3 3414.932 1406.9 3312.632 534.3 2990.832 534.3 3212.332 1790.5 3617.532 1790.5" style="fill:#fff"/><path d="M2335.3999,2303h-32.6001V2133.1001h32.6001Z" transform="translate(0.03216 0)" style="fill:#fff"/><path d="M2496.80005,2133.1001h32.6001V2303H2475.2002l-72.30005-142h-1.1001l2.7,142h-32.6001V2133.1001h54l72.7,142h.89991Z" transform="translate(0.03216 0)" style="fill:#fff"/><path d="M2634,2303h-32.6001V2161H2551.5v-27.8999h132.2V2161h-49.8999v142Z" transform="translate(0.03216 0)" style="fill:#fff"/><path d="M2736.2,2203.30005h79.5v26.80005h-79.5v45.1001h84.5v27.8999h-117.1001V2133.2002H2820v27.8999h-83.8Z" transform="translate(0.03216 0)" style="fill:#fff"/><path d="M2884.30005,2246.80005V2303H2851.7V2133.1001h86.69995c37.2.8999,51.3999,12.3999,51.3999,51,0,25.1001-1.3,43.5-30.10009,47.69995v.8999c23.10009,2,28.80005,14.5,28.80005,38.5V2303h-32.6001v-31.8c0-14.30005-5.8999-24.2-21.5-24.3999Zm43.09985-27.90015c24,0,29.8999-4.8,29.8999-29.6001,0-24-4.3-28.3-27.60009-28.3h-45.3v58h43.00024Z" transform="translate(0.03216 0)" style="fill:#fff"/><path d="M3051.8999,2270.80005,3041.2,2303H3007.3999l56.3999-169.8999h48l57.5,169.8999h-33.10009l-11.1001-32.2Zm36.90015-112.8h-.3999l-29,88.2h58.60009Z" transform="translate(0.03216 0)" style="fill:#fff"/><path d="M3291.30005,2190v-9.3c0-19.7-7.69995-21.1001-36.19995-21.1001-32.8999,0-38.5,5.39991-38.5,38.69995v37.6001c.19995,34,4.3,40.5,38.5,40.5,26.3,0,38.1001-.8999,38.1001-25.1001v-9.3h32.60009v11.10009c.69995,51.19995-28.5,49.39991-70.60009,51.19995-59.80005,2.2-70.39991-17.3999-71.2-67.10009v-39c0-54.39991,21.1001-66.6001,71.2-66.6001,42.3,0,66.60009.19995,68.8,49v9.3h-32.70019Z" transform="translate(0.03216 0)" style="fill:#fff"/><path d="M3422.8999,2303h-32.6001V2161h-49.8999v-27.8999h132.2V2161H3422.7v142Z" transform="translate(0.03216 0)" style="fill:#fff"/><path d="M3527.30005,2303H3494.7V2133.1001h32.6001Z" transform="translate(0.03216 0)" style="fill:#fff"/><path d="M3704.8999,2133.1001,3650,2303h-49.2l-54.3999-169.8999h33.30005l45.3,142.69995h.7l45.3-142.69995Z" transform="translate(0.03216 0)" style="fill:#fff"/><path d="M3754.5,2203.30005H3834v26.80005h-79.5v45.1001H3839v27.8999H3721.8999V2133.2002h116.3999v27.8999h-83.8v42.3H3754.5Z" transform="translate(0.03216 0)" style="fill:#fff"/><path d="M2416.7,2542.3999H2387.3999L2333.2998,2399.5h-.69995l2.8,142.8999h-32.8V2372h52.5l46.3,126.6001h.8999L2447.69971,2372h53.60009v170.3999h-32.8l2.8-143.6001h-1.10009Z" transform="translate(0.03216 0)" style="fill:#fff"/><path d="M2682.1001,2371.8999V2493c0,47.5-29.80005,50.6001-71.1001,50.6001-40,0-70.6001-3-70.6001-50.6001V2371.8999H2573.2V2493c0,17.5,6.3,22.8,38,22.8,30.19995,0,38.3999-4.3,38.3999-22.8V2371.8999Z" transform="translate(0.03216 0)" style="fill:#fff"/><path d="M2753.7,2514.3999h79.5v28H2721V2372h32.8v142.3999Z" transform="translate(0.03216 0)" style="fill:#fff"/><path d="M2906.1001,2542.3999h-32.80005V2400h-50v-28H2956v28h-50v142.3999Z" transform="translate(0.03216 0)" style="fill:#fff"/><path d="M3013.2,2542.3999H2980.3999V2372H3013.2Z" transform="translate(0.03216 0)" style="fill:#fff"/><path d="M3166.30005,2542.3999H3137L3082.8999,2399.5H3082.2l2.8,142.8999h-32.8V2372h52.5l46.3,126.6001h.8999L3197.2998,2372h53.6001v170.3999h-32.8l2.8-143.6001h-1.1001Z" transform="translate(0.03216 0)" style="fill:#fff"/><path d="M3320.5,2442.30005h79.7v26.80005h-79.7v45.19995h84.7v28H3287.7v-170.3999h116.8v28h-84Z" transform="translate(0.03216 0)" style="fill:#fff"/><path d="M3438.8999,2371.8999h81.3999c47.1001,0,67.1001,17,67.1001,63.3999v40.2c0,35.3999-10,66.8-61.6001,66.8h-86.8V2371.8999Zm86.80005,142.5c22,0,28.8999-19.8,28.8999-38.8999v-40.2c0-28.3999-9.30005-35.3999-34.30005-35.3999h-48.60009v114.5H3525.7Z" transform="translate(0.03216 0)" style="fill:#fff"/><path d="M3652.8999,2542.3999h-32.8V2372h32.8Z" transform="translate(0.03216 0)" style="fill:#fff"/><path d="M3720.8999,2510l-10.69995,32.3h-33.8999l56.5-170.3999H3781l57.7,170.3999h-33.2l-11.1001-32.3Zm36.90015-113.1001h-.3999l-29.1001,88.3999h58.80005Z" transform="translate(0.03216 0)" style="fill:#fff"/><path d="M1928.1,135.4c-2.2-20.4-24.9-19.9-40.9-19.9-8.69995,0-26.80005.3-33.9,6.2-6.69995,5.6-6.69995,20.2-6.69995,28,0,7.5.3,17.7,6.19995,23.2,7,6.7,26.30005,7.3,35.2,7.3a123.30057,123.30057,0,0,0,18.19995-.9c12.4-1.7,19.6-5.3,21.5-18.4h50.4c-.6,14.8-1.4,29.1-12.4,40.3-11.5,12-29.1,14.6-45.1,15.4-12,.6-23.80005.9-35.80005.9-21.5,0-52.3.6-70.8-12.4-17.9-12.6-17.1-38.9-17.1-58.2,0-19-.30005-41.7,15.69995-55.1,17.30005-14.6,53.4-13.5,74.80005-13.5,21.30005,0,58.19995-.9,75.9,13.5a34.75306,34.75306,0,0,1,10.4,13.7c4.19995,9.8,4.5,19.3,4.69995,29.9Z" transform="translate(0.03216 0)" style="fill:#fff"/><path d="M2187.80005,171.2c-1.1001,12.9-4.5,24.4-14.6001,33-17.1001,14.8-57.3999,13.1-78.3999,13.1-21.8999,0-60.5,2-78.4-13.1a35.55193,35.55193,0,0,1-10.6-14.6c-5.6-13.7-4.69995-31-4.69995-45.6a181.5071,181.5071,0,0,1,.9-22.1c1.1-12.6,5.9-23.8,16.2-31.6,16.8-12.9,56.9-12,76.70008-12,20.2,0,59.60009-.9,76.7,12a35.94262,35.94262,0,0,1,10.6001,12.6c7.3,12.9,6.3999,29.4,6.3999,43.7C2188.7,154.7,2188.3999,163.1,2187.80005,171.2ZM2133,122.8c-7.3-7-28.6001-7.3-37.8-7.3-8.8999,0-18.2.3-26.80005,2-17.3,3.3-17.69995,16.8-17.69995,31.9,0,7.3-.30005,17.1,5.1001,22.6,7.5,8.1,29.3999,8.1,39.5,8.1,9.5,0,19.6001,0,28.80005-2.5,15.3999-4.2,15.1001-18.2,15.1001-31.9C2139.1001,138.2,2138.8999,128.4,2133,122.8Z" transform="translate(0.03216 0)" style="fill:#fff"/><path d="M2455.2,214.1V152.3c0-28.6-3.1001-36.7-33.6001-36.7-34.10009,0-36.7,13.5-36.7,43.9V214h-49.6001V142.9c0-24.1-10.3999-27.4-32.8-27.4-35.2,0-37.5,12.6-37.5,43.9v54.5h-49.6001V81.6h46.7v19.9h2.19995c9.30005-20.4,33.8999-23.2,53.80005-23.2,25.19995,0,47.3,4.2,60.19995,27.7,10.1001-24.6,33.6001-27.7,57.3999-27.7,19.30005,0,40.89991,2.2,54.89991,17.1,4.7,5.1,8.3999,10.4,10.3999,17.1,3.8999,12.9,3.6001,26.6,3.6001,39.8v61.8Z" transform="translate(0.03216 0)" style="fill:#fff"/><path d="M2772.8999,214.1V152.3c0-28.6-3.1001-36.7-33.6001-36.7-34.10009,0-36.69995,13.5-36.69995,43.9V214h-49.5V142.9c0-24.1-10.3999-27.4-32.80005-27.4-35.19995,0-37.5,12.6-37.5,43.9v54.5h-49.60009V81.6h46.7v19.9h2.2c9.3-20.4,33.8999-23.2,53.8-23.2,25.2,0,47.3,4.2,60.2,27.7,10.1001-24.6,33.6001-27.7,57.3999-27.7,19.3,0,40.8999,2.2,54.8999,17.1,4.7,5.1,8.39991,10.4,10.39991,17.1,3.8999,12.9,3.60009,26.6,3.60009,39.8v61.8Z" transform="translate(0.03216 0)" style="fill:#fff"/><path d="M3034.8999,171.2c-1.1001,12.9-4.5,24.4-14.6001,33-17.10009,14.8-57.3999,13.1-78.3999,13.1-21.8999,0-60.5,2-78.3999-13.1a35.55106,35.55106,0,0,1-10.6001-14.6c-5.6001-13.7-4.69995-31-4.69995-45.6a181.53114,181.53114,0,0,1,.8999-22.1c1.1001-12.6,5.89991-23.8,16.19995-31.6,16.80005-12.9,56.89991-12,76.7-12,20.19995,0,59.60009-.9,76.69995,12a35.94248,35.94248,0,0,1,10.60009,12.6c7.30005,12.9,6.39991,29.4,6.39991,43.7C3035.80005,154.7,3035.5,163.1,3034.8999,171.2ZM2980,122.8c-7.3-7-28.6001-7.3-37.8-7.3-8.8999,0-18.2.3-26.80005,2-17.3,3.3-17.69995,16.8-17.69995,31.9,0,7.3-.30005,17.1,5.1001,22.6,7.5,8.1,29.3999,8.1,39.5,8.1,9.5,0,19.6001,0,28.80005-2.5,15.3999-4.2,15.1001-18.2,15.1001-31.9C2986.2,138.2,2986,128.4,2980,122.8Z" transform="translate(0.03216 0)" style="fill:#fff"/><path d="M3199.5,214.1V196.8H3197c-3.3,5.6-5.8999,9.3-11.5,12.6-12.3,7.5-33,8.1-47,8.1-20.3999,0-48.1001.3-64.3999-14-14.6001-12.9-14.2-38.3-14.2-56.3,0-20.8.60009-45.9,19.60009-58.7,16.80005-11.2,40.30005-10,59.6001-10,14.6001,0,30.5-.3,43.3999,7.3,6.39991,3.6,8.7,7.3,12.39991,13.7h2V27.4h49.60009V214.1l-47.00024,0Zm-5-86.3c-5.8999-13.5-27.2-12.4-39.2-12.4-12.3,0-37.19995-1.4-43.3999,12.6-2.19995,5.6-2.5,12.9-2.5,18.8,0,7.8-.3,19.9,5.60009,26.1,6.7,7.3,28.30005,7.3,37.2,7.3,10.10009,0,22.3999-.6,31.8999-3.6,13.5-4.2,13.1001-17.1,13.1001-29.1C3197.30005,141.3,3197,133.7,3194.5,127.8Z" transform="translate(0.03216 0)" style="fill:#fff"/><path d="M3459.8999,171.2c-1.1001,12.9-4.5,24.4-14.6001,33-17.10009,14.8-57.3999,13.1-78.3999,13.1-21.8999,0-60.5,2-78.3999-13.1a35.55106,35.55106,0,0,1-10.6001-14.6c-5.6001-13.7-4.69995-31-4.69995-45.6a181.53114,181.53114,0,0,1,.8999-22.1c1.1001-12.6,5.89991-23.8,16.19995-31.6,16.80005-12.9,56.89991-12,76.7-12,20.19995,0,59.60009-.9,76.69995,12a35.94248,35.94248,0,0,1,10.60009,12.6c7.30005,12.9,6.39991,29.4,6.39991,43.7C3460.7,154.7,3460.3999,163.1,3459.8999,171.2ZM3405,122.8c-7.3-7-28.6001-7.3-37.8-7.3-8.8999,0-18.2.3-26.80005,2-17.3,3.3-17.69995,16.8-17.69995,31.9,0,7.3-.30005,17.1,5.1001,22.6,7.5,8.1,29.3999,8.1,39.5,8.1,9.5,0,19.6001,0,28.80005-2.5,15.3999-4.2,15.1001-18.2,15.1001-31.9C3411.2,138.2,3410.80005,128.4,3405,122.8Z" transform="translate(0.03216 0)" style="fill:#fff"/><path d="M3640.8999,140.4h-46.5c0-19.6-6.3999-25-26.1001-25-30.5,0-31.3999,19.3-31.3999,43.7V214H3487.5V81.6h46.7v19.9h2.19995c11.5-20.4,29.8999-23.2,51.5-23.2,15.3999,0,33.8999,2,44.30005,14.8,9.3,11.5,8.8999,28,8.8999,42A46.03292,46.03292,0,0,1,3640.8999,140.4Z" transform="translate(0.03216 0)" style="fill:#fff"/><path d="M3838.6001,158.7H3709.30005c0,7.5-.3,16.2,6.2,21.5,6.7,5.3,25.5,5.6,33.6001,5.6s30.8.3,36.1001-5.6c2.19995-2.2,2.8-5.3,3.3-8.4h49.2c-1.1001,12.6-3.6001,22.4-13.1001,31-17.1001,15.4-58,14.6-79.5,14.6-19.6001,0-52.30005.3-68.6001-12.4a38.02482,38.02482,0,0,1-11.2-14c-6.19995-12.9-5.6001-28.8-5.6001-42.5a230.28045,230.28045,0,0,1,.8999-25c1.39991-13.5,5.89991-25.5,17.1001-33.6,17.3-12.6,52.1001-11.7,72.5-11.7,18.8,0,39.19995-.6,57.3999,4.7,29.39991,8.7,31.39991,35.6,31.39991,62.2C3838.8999,149.7,3838.8999,154.1,3838.6001,158.7Zm-49.5-30.3c0-5.1-.30005-8.9-3.8999-12.9-5.89991-6.4-26.1001-6.4-34.1001-6.4-7.5,0-15.1001,0-22.3999,1.1-14,2-19,7.3-19.30005,21.3h79.80005l-.1001-3.1Z" transform="translate(0.03216 0)" style="fill:#fff"/><path d="M1458.7,146.8a77.89574,77.89574,0,0,1,115.9-68V5a146.81319,146.81319,0,1,0-38.1,288.6,145.10264,145.10264,0,0,0,38-5V214.7A77.81643,77.81643,0,0,1,1458.7,146.8Z" transform="translate(0.03216 0)" style="fill:#fff"/><polygon points="1574.432 141.5 1643.732 141.5 1702.432 82.8 1574.432 82.8 1574.432 141.5" style="fill:#fff"/><polygon points="1574.432 152.1 1574.432 210.9 1702.432 210.9 1643.732 152.1 1574.432 152.1" style="fill:#fff"/></svg>