<svg id="Layer_1" data-name="Layer 1" xmlns="http://www.w3.org/2000/svg" viewBox="0 0 3839.00186 843.90002"><path d="M1370.2,729.1h19.6v44.6h51V729.1h19.6V841.2h-19.6V790.6h-51v50.6h-19.6Z" transform="translate(0 0)" style="fill:#fff"/><path d="M1582.7,785.2c0,32-20.1,58.7-53.69995,58.7s-53.69995-26.7-53.69995-58.7S1495.4,726.5,1529,726.5C1562.6,726.4,1582.7,753.1,1582.7,785.2Zm-87.79993,0c0,21.5,10,42.7,34.1,42.7,24,0,34.1-21.2,34.1-42.7s-10-42.7-34.1-42.7C1505,742.5,1494.9,763.7,1494.9,785.2Z" transform="translate(0 0)" style="fill:#fff"/><path d="M1597.6,729.1h27.6l30.9,87.8h.3l30.1-87.8h27.30005V841.2H1695.1001v-86.5h-.30005l-31.1,86.5h-16.2l-31.1-86.5h-.3v86.5h-18.7V729.1Z" transform="translate(0 0)" style="fill:#fff"/><path d="M1734.7,729.1h80.69995v17h-61.1v29.4h56.5v16h-56.5v32.8h62.2v17h-81.80005V729.1Z" transform="translate(0 0)" style="fill:#fff"/><path d="M1953,764.8c-3.30005-12.9-11.6-22.3-28-22.3-24,0-34.1,21.2-34.1,42.7s10,42.7,34.1,42.7c17.4,0,27-13,28.6-29.4h19.19995c-1.6,26.9-20.6,45.4-47.69995,45.4-33.6,0-53.7-26.7-53.7-58.7s20.1-58.7,53.7-58.7c25.3.2,45.19995,14.1,47.6,38.3Z" transform="translate(0 0)" style="fill:#fff"/><path d="M2088.8999,785.2c0,32-20.1001,58.7-53.69995,58.7-33.6,0-53.69995-26.7-53.69995-58.7s20.1-58.7,53.69995-58.7C2068.80005,726.4,2088.8999,753.1,2088.8999,785.2Zm-87.79992,0c0,21.5,10,42.7,34.1,42.7,24,0,34.1001-21.2,34.1001-42.7s-10-42.7-34.1-42.7C2011.2,742.5,2001.1,763.7,2001.1,785.2Z" transform="translate(0 0)" style="fill:#fff"/><path d="M2103.80005,729.1h27.6001l30.8999,87.8h.30005l30.1001-87.8h27.3V841.2h-18.69995v-86.5h-.30005l-31.10009,86.5H2153.7002l-31.1001-86.5h-.30005v86.5H2103.6001V729.1Z" transform="translate(0 0)" style="fill:#fff"/><path d="M2240.8999,729.1h49.5c32,0,38.2,20.7,38.2,34.7,0,13.8-6.10009,34.5-38.2,34.4h-29.8v43h-19.60009V729.1Zm19.7002,53.1h28.69995c8.80005,0,19.6001-4.4,19.6001-18.5,0-14.8-9-18.5-19.3-18.5H2260.5v37Z" transform="translate(0 0)" style="fill:#fff"/><path d="M2339.5,729.1h19.6001v65.3c0,15.1.8999,32.5,26.3999,32.5,25.3999,0,26.3999-17.4,26.3999-32.5V729.1H2431.5v71.8c0,28.7-18.3999,43-46,43s-46-14.3-46-43Z" transform="translate(0 0)" style="fill:#fff"/><path d="M2440.6001,729.1h90.8v17h-35.6001v95.2H2476.2V746.1h-35.5v-17Z" transform="translate(0 0)" style="fill:#fff"/><path d="M2541,729.1h80.7v17h-61.1001v29.4h56.5v16h-56.5v32.8h62.19995v17H2541Z" transform="translate(0 0)" style="fill:#fff"/><path d="M2637.1001,729.1h53.5c24.5,0,37.1001,11.3,37.1001,30.3,0,21.5-14.89991,27-18.5,28.3v.3c6.8.9,16.60009,6,16.60009,23.7,0,13,1.89991,25,6.1001,29.5h-21c-3-4.9-3-11-3-16.5,0-20.6-4.19995-29.7-22.3-29.7h-28.8999v46.2h-19.6001V729.1Zm19.59985,51h32.19995c12.3999,0,19.2-6.1,19.2-17.9,0-14.3-9.30005-17.1-19.5-17.1H2656.7Z" transform="translate(0 0)" style="fill:#fff"/><path d="M2804.2,803.9c0,17.3,12.69995,24,28.3999,24,17.3,0,23.69995-8.5,23.69995-17,0-8.6-4.69995-12.1-9.3-13.8-7.89991-3-18.1001-5-33.39991-9.3-19.2-5.2-24.80005-16.8-24.80005-28.4,0-22.5,20.7-33,41-33,23.39991,0,43,12.4,43,35.8h-19.60009c-.89991-14.4-10.69995-19.8-24.19995-19.8-9.1001,0-20.6001,3.3-20.6001,14.6,0,7.9,5.3,12.2,13.3,14.4,1.7.5,26.5,6.9,32.30005,8.6a29.64382,29.64382,0,0,1,21.8,28.6c0,25.1-22.3,35.2-44.60009,35.2-25.6001,0-46.3-12.2-46.8-40H2804.2Z" transform="translate(0 0)" style="fill:#fff"/><path d="M2915.2,797.3l-42.1001-68.1h22.8l29.7,50.2,29.19995-50.2h22l-41.8999,68.1v44h-19.6001v-44Z" transform="translate(0 0)" style="fill:#fff"/><path d="M2993.5,803.9c0,17.3,12.7,24,28.3999,24,17.30005,0,23.7-8.5,23.7-17,0-8.6-4.7-12.1-9.30005-13.8-7.8999-3-18.10009-5-33.3999-9.3-19.19995-5.2-24.8-16.8-24.8-28.4,0-22.5,20.69995-33,41-33,23.39991,0,43,12.4,43,35.8h-19.60009c-.89991-14.4-10.7-19.8-24.2-19.8-9.10009,0-20.60009,3.3-20.60009,14.6,0,7.9,5.30005,12.2,13.30005,14.4,1.69995.5,26.5,6.9,32.3,8.6a29.64382,29.64382,0,0,1,21.80005,28.6c0,25.1-22.30005,35.2-44.60009,35.2-25.6001,0-46.30005-12.2-46.80005-40H2993.5Z" transform="translate(0 0)" style="fill:#fff"/><path d="M3068.5,729.1h90.8v17H3123.7v95.2H3104V746.1h-35.5Z" transform="translate(0 0)" style="fill:#fff"/><path d="M3168.8999,729.1h80.7v17h-61.10009v29.4h56.5v16h-56.5v32.8h62.19995v17h-81.8V729.1Z" transform="translate(0 0)" style="fill:#fff"/><path d="M3264.8999,729.1H3292.5l30.8999,87.8H3323.7l30.1001-87.8h27.30005V841.2h-18.7v-86.5h-.3L3331,841.2h-16l-31.1001-86.5h-.3v86.5h-18.7Z" transform="translate(0 0)" style="fill:#fff"/><polygon points="821.3 125.8 1080.4 519.8 1157.9 396.6 961.9 86.3 821.3 125.8" style="fill:#79aa00"/><polygon points="696.2 172.8 990.5 620.3 1080.4 519.8 821.3 125.8 696.2 172.8" style="fill:#ffce00"/><polygon points="882.2 690.7 587.9 243.2 696.2 172.8 990.5 620.3 882.2 690.7" style="fill:#e85e00"/><polygon points="730.5 712.8 519.6 359.4 587.9 243.2 882.2 690.7 730.5 712.8" style="fill:#ea1100"/><path d="M2531.5,96.4l-283.8-.1-44.2,342.9L2075.2,96.3H1902.1L1710.79993,458.2l46.6-361.9h-153.1l-54.5,423.3H1406.1a51.7347,51.7347,0,0,1-51.30005-58.4l47-364.9H1248.7L1223.3999,292.5C1179.2,124.2,1025.9,0,843.6,0c-143,0-268.2,76.5-336.9,190.8L471.4,96.4H298.3L0,660.6H153.6L234.3,508H467.2l5.3,13.8c53.4,153.7,199.3,264,371.2,264a390.99379,390.99379,0,0,0,228.2-73.2l84.5,128.6h177.9l-157.6-239.9a388.14877,388.14877,0,0,0,27.3-51.9c19,63.6,77.9,111.1,149.2,111.1H1757.5l80.69995-152.6H2071l57.1001,152.6H2328l36.5-283.5,164.6001,283.5H2694l-102.3-176.1C2793.5,429.2,2773.3999,96.4,2531.5,96.4ZM303.5,377.1,370.7,250l47.5,127.1ZM843.6,650.6C701.3,650.6,586,535.2,586,392.9S701.4,135.3,843.6,135.3c142.3,0,257.6,115.4,257.6,257.6C1101.30005,535.2,985.9,650.6,843.6,650.6ZM1907.30005,377.1,1974.5,250,2022,377.1ZM2495,377.1l-130.5.1,18-139.8,124.7.1C2600.3999,237.4,2588.2,377.1,2495,377.1Z" transform="translate(0 0)" style="fill:#fff"/><polygon points="2766.7 96.3 2694 660.6 2847.1 660.6 2919.8 96.3 2766.7 96.3" style="fill:#fff"/><path d="M3300.8999,96.3l-54.5,423.3H3102.7a51.7347,51.7347,0,0,1-51.30005-58.4l47-364.9H2945.2998L2895.19971,485c-12,93.1,60.5,175.6,154.3999,175.6h331.6001l72.7-564.3H3300.8999Z" transform="translate(0 0)" style="fill:#fff"/><path d="M3694.5,299.8s-84.7-24.1-71.2-72.2c13.6001-48.1,133.6001-38.7,167.7,26.9l19.5-151.4s-54.3-43.3-146.7-43.3S3461,137.6,3461,246.8s68.3999,154.6,110.7,175.1c37.5,18.2,128,52.8,101,110.7-36.7,78.7-188.7,25.6-237.6001-122.2L3407.7,623.1s65.8,102.2,205.6001,102.2c93.30005,0,214.3999-57.2,225.2-211.5C3843.1001,448.4,3817.7,344.2,3694.5,299.8Z" transform="translate(0 0)" style="fill:#fff"/></svg>