<?xml version="1.0" encoding="UTF-8" standalone="no"?>
<svg
   id="Layer_1"
   data-name="Layer 1"
   viewBox="0 0 3839.90025 832.79993"
   version="1.1"
   sodipodi:docname="atari2600.svg"
   inkscape:version="1.1.2 (0a00cf5339, 2022-02-04, custom)"
   xmlns:inkscape="http://www.inkscape.org/namespaces/inkscape"
   xmlns:sodipodi="http://sodipodi.sourceforge.net/DTD/sodipodi-0.dtd"
   xmlns="http://www.w3.org/2000/svg"
   xmlns:svg="http://www.w3.org/2000/svg">
  <defs
     id="defs29" />
  <sodipodi:namedview
     id="namedview27"
     pagecolor="#ffffff"
     bordercolor="#666666"
     borderopacity="1.0"
     inkscape:pageshadow="2"
     inkscape:pageopacity="0.0"
     inkscape:pagecheckerboard="0"
     showgrid="false"
     inkscape:zoom="0.27839266"
     inkscape:cx="1919.9501"
     inkscape:cy="416.67766"
     inkscape:window-width="1920"
     inkscape:window-height="1017"
     inkscape:window-x="-8"
     inkscape:window-y="-8"
     inkscape:window-maximized="1"
     inkscape:current-layer="Layer_1" />
  <path
     d="M368.6,4.2c20.9-.1,41.9,0,62.8-.1.1,49.2,0,98.4,0,147.7.2,41.1-1,82.2-2.6,123.2-2.8,59.3-6.5,118.7-16.3,177.2-6.7,40.4-20.7,79.3-38,116.3-28.3,59.6-72.7,110-122.7,152.5-44.7,39.3-98,68-154.1,87.3C66,819.2,33.3,827.7.1,832.3V708.5c40-6,78.5-20.2,114.2-39A412.44191,412.44191,0,0,0,227,581.4c33.2-36.7,59.6-79.2,79.7-124.3,23.6-51.9,36.3-107.9,44.9-164,10.8-71.3,15.3-143.5,16.9-215.6C368.7,53,368.5,28.6,368.6,4.2Z"
     transform="translate(-0.1 0)"
     style="fill:#e4202f"
     id="path2" />
  <path
     d="M456.7,4.3c38.5-.2,77.1,0,115.6-.1V832.4c-38.4.1-76.9-.2-115.4.1-.5-88-.1-176.1-.2-264.1Q456.7,286.4,456.7,4.3Z"
     transform="translate(-0.1 0)"
     style="fill:#e4202f"
     id="path4" />
  <path
     d="M598,4.2c20.8,0,41.6-.1,62.4,0-.7,84.2,2.2,168.5,12.2,252.1,8.2,65,19.8,130.4,45.7,190.9,24.5,58.5,59.9,113,106,156.8,44,42,97.3,74.2,155.2,92.8A312.341,312.341,0,0,0,1029,708.5V832.3c-33-4.5-65.4-13-96.9-23.7-37.5-13-73.8-29.9-107.1-51.6-24.3-15.7-46.5-34.4-67.7-53.9-35-32.3-66.4-69-89.9-110.6-18.4-32.4-31.9-67.4-42.4-103-9.7-35.9-13.8-72.9-17.5-109.8-7.2-79.7-10-159.7-9.4-239.7Q597.95,72.05,598,4.2Z"
     transform="translate(-0.1 0)"
     style="fill:#e4202f"
     id="path6" />
  <path
     d="M1409,38.4C1441.2-2.8,1507.9-9.9,1547.4,24.7c16.2,13.6,27.5,32.4,33.30005,52.6Q1690.5,455,1800.50012,832.5c-43.19995,0-86.4-.1-129.6,0-20.4-69.4-40.3-139-60.4-208.4-83.5-.2-167,0-250.5-.1q-30.6,104.25-60.69995,208.6c-42.9-.1-85.9,0-128.9-.1q104.25-360.3,209-720.5C1387.7,87,1390.80005,58.9,1409,38.4M1485.2,192.7c-30.6,104.3-60.6,208.8-91.1,313.2,60.69995.3,121.4.1,182,.1Q1530.65009,349.25,1485.2,192.7Z"
     transform="translate(-0.1 0)"
     style="fill:#ff0000"
     id="path8" />
  <path
     d="M2318.7,43.8c22.5-32.7,66-48.5,104.3-38.4,35.1001,8.1,61.8999,38.3,71.2,72.3q109.65015,377.4,219.6001,754.7c-43.19995.3-86.5,0-129.69995.2-20.1001-69.5-40-139-60.30005-208.5q-125.09985,0-250.1001.1c-19.8999,69.5-40.5,138.9-60.3999,208.4H2084.6001q104.25-362.25,209.8-724.2c7.2998-21.7,10.2-45.8,24.2998-64.6M2308.1001,506q90.59985.15,181.3,0c-30.1001-104.7-60.6001-209.2-90.6001-313.8C2368.7,296.8,2338.2,401.3,2308.1001,506Z"
     transform="translate(-0.1 0)"
     style="fill:#ff0000"
     id="path10" />
  <path
     d="M1703.7,4.1h468.6001V130.5c-57.5,0-115-.1-172.5,0v702h-123.6v-702c-57.5-.1-115,0-172.5,0Q1703.69989,67.35,1703.7,4.1Z"
     transform="translate(-0.1 0)"
     style="fill:#ff0000"
     id="path12" />
  <path
     d="M2851,9.3c11.8999-4.1,24.6001-5.5,37.1001-5.2,49.3.2,98.5,0,147.8.1,82.8999,1.5,162.10009,53,198,127.7,24.8999,48.5,27.3999,104.9,21.10009,158.1-4.3,55.7-27.69995,111.4-70.5,148.3-22.60009,20.1-50.69995,32.4-75,50.3-13.3,10.1-14,29.8-7.10009,43.8,65.3999,100.9,133.30005,200.3,200.10009,300.3-48.8.1-97.60009-.1-146.5.1-63.8999-96-127.10009-192.5-190.8-288.6-18.7-27.4-23.80005-63.6-12.6001-94.8,8.69995-24,29.69995-41.5,53-50.5,44.5-17,88.3999-43.6,113-85.6,18.8-31.5,17.8-70.5,9.3-105-9.89991-44.8-53.6001-80.1-99.69995-78.6-31.89991.2-63.80005-.1-95.7.1-14.3999-.3-28,12.2-27.8,26.8q-.29994,338.1-.1001,676.1c-41.5-.1-83,0-124.5,0Q2779.95,468.8,2780,104.9C2780.5,62.2,2810.7,22.2,2851,9.3Z"
     transform="translate(-0.1 0)"
     style="fill:#ff0000"
     id="path14" />
  <path
     d="M3367.8999,4.1h131q0,414.3-.1001,828.5c-43.60009-.1-87.3,0-130.8999,0Z"
     transform="translate(-0.1 0)"
     style="fill:#ff0000"
     id="path16" />
  <path
     d="M3801.30005,831.7c-19.19995-21.3-38.1001-42.5-57.3-63.8-19.2-21.9-34.3-39.3-59.3999-39.6-21.6001,0-32.80005,13.6-32.80005,31.6,0,21.3,19.2,30.1,41.6001,30.4v42.2c-16.8-.6-34.89991-3.2-51.1001-15.4-24.5-17.1-29.19995-45.5-29.19995-61.1,0-45.8,31.6001-71.8,67.6001-71.8,25.3999.3,43.3999,9.5,67.8999,35.2,16.5,17.1,33.1001,34.5,49.8999,52v-88.3h37.2v148.6l-34.3999-.00006Z"
     transform="translate(-0.1 0)"
     style="fill:#fff"
     id="path18" />
  <path
     d="M3617.30005,534.6l57.6001,41c4.3999,3,8.60009,6.2,13.30005,9.5-1.2-2.4-3.2-10.6-3.2-17.4,0-33.4,25.7-69.4,73.80005-69.4,47.19995,0,81.19995,36.6,81.19995,81.5,0,26.9-10.3,50.5-28.3999,64.4-15.1001,13.3-36.3,18.3-52.8999,18.3-23,0-41.6001-9.5-57.6001-19.8l-83.8999-57.3V534.6ZM3762.6001,619c23.3,0,38.69995-17.7,38.69995-37.8,0-21.9-16.8-39-38.69995-39s-39,16.5-39,38.7c0,19.5,14.8,38.1,38.69995,38.1Z"
     transform="translate(-0.1 0)"
     style="fill:#fff"
     id="path20" />
  <path
     d="M3728.3999,480.8c-70,0-115.19995-53.8-115.19995-114.6,0-66.2,51.3999-114.9,113.3999-114.9S3840,299.8,3840,366.5c0,67-52.8999,114.3-111.3,114.3Zm-1.7998-44c39.8999,0,74.69995-28.6,74.69995-71.2,0-44.3-38.3999-70.3-74.3999-70.3-36.6001,0-75,26-75,70.6,0,43.7,36,70.9,74.3999,70.9Z"
     transform="translate(-0.1 0)"
     style="fill:#fff"
     id="path22" />
  <path
     d="M3728.3999,229.5c-70,0-115.19995-53.8-115.19995-114.6,0-66.2,51.3999-114.9,113.3999-114.9S3840,48.4,3840,115.2c0,67-52.8999,114.3-111.3,114.3Zm-1.7998-44c39.8999,0,74.69995-28.6,74.69995-71.2,0-44.3-38.3999-70.3-74.3999-70.3-36.6001,0-75,26-75,70.6,0,43.7,36,70.9,74.3999,70.9Z"
     transform="translate(-0.1 0)"
     style="fill:#fff"
     id="path24" />
</svg>
