<svg id="Layer_1" data-name="Layer 1" xmlns="http://www.w3.org/2000/svg" viewBox="0 0 3838.9653 1929.37044"><path d="M338.4,1623.7a114,114,0,1,1-114-114,114.01337,114.01337,0,0,1,114,114" transform="translate(-0.0347 -0.02959)" style="fill:#ffd100;fill-rule:evenodd"/><path d="M203.9,1649.9c0-10.6,5.9-20.1,17.8-20.1,12.7,0,17.4,10.4,17.4,21.69995,0,10.6-6.1,19.30005-17.4,19.30005C210,1670.80005,203.9,1661,203.9,1649.9Zm61.2-90.5c-10.4-4.1-21.5-6.3-35.4-6.3-45.1,0-60.2,34.6-60.2,76.4C169.5,1663.7,183,1694.2,221.9,1694.2c30.1,0,51.2-20.9,51.2-46.1,0-24.4-15.8-43-40.8-43-13.7,0-23.1,4.69995-29.5,13.9h-.4c.2-24,7.6-40.1,31.9-40.1,13.3,0,22.9,3.30005,28.7,7.2Z" transform="translate(-0.0347 -0.02959)" style="fill:#231f20"/><path d="M677.7,1623.7a114,114,0,1,1-114-114,114.01337,114.01337,0,0,1,114,114" transform="translate(-0.0347 -0.02959)" style="fill:#ffd100;fill-rule:evenodd"/><path d="M563.7,1641.30005H526.2l37.1-57.69995h.4Zm-2.4,50.6h34v-26h19.3v-24.6H595.3V1555.5H555L500.3,1637v28.9h61Z" transform="translate(-0.0347 -0.02959)" style="fill:#231f20"/><path d="M1017,1623.7a114,114,0,1,1-114-114,114.01337,114.01337,0,0,1,114,114" transform="translate(-0.0347 -0.02959)" style="fill:#ffd100;fill-rule:evenodd"/><rect x="876.4653" y="1610.77046" width="53" height="25.80005" style="fill:#231f20"/><path d="M1356.30005,1623.7a114,114,0,1,1-114-114,114.01337,114.01337,0,0,1,114,114" transform="translate(-0.0347 -0.02959)" style="fill:#ffd100;fill-rule:evenodd"/><path d="M1223.4,1581.30005H1234c12.1,0,23.80005,1.19995,23.80005,13.69995,0,11.5-12.30005,14.5-24.19995,14.5h-10.2v-28.19995Zm0,52.69995h11.1c12.5,0,26.80005,1.4,26.80005,16.19995,0,13.9-13.9,15.80005-27.19995,15.80005h-10.7v-32Zm-36.4,57.9h57.5c24.4,0,53.19995-6.8,53.19995-39.5,0-16.6-9.4-26.4-27.6-30.1v-.4c15.19995-5.1,24-14.69995,24-31.9,0-23.5-19-34.6-44.4-34.6H1187Z" transform="translate(-0.0347 -0.02959)" style="fill:#231f20"/><path d="M1695.6,1623.7a114,114,0,1,1-114-114,114.01337,114.01337,0,0,1,114,114" transform="translate(-0.0347 -0.02959)" style="fill:#ffd100;fill-rule:evenodd"/><rect x="1563.36532" y="1555.47041" width="36.40002" height="136.40002" style="fill:#231f20"/><path d="M2034.9,1623.7a114,114,0,1,1-114-114,114.01337,114.01337,0,0,1,114,114" transform="translate(-0.0347 -0.02959)" style="fill:#ffd100;fill-rule:evenodd"/><polygon points="1902.765 1691.87 1939.065 1691.87 1939.065 1582.37 1972.665 1582.37 1972.665 1555.47 1869.065 1555.47 1869.065 1582.37 1902.765 1582.37 1902.765 1691.87" style="fill:#231f20"/><path d="M1266.6.7h22.6V53.8c.1,14.8-.30005,29.5-.9,44.3-1,21.3-2.3,42.7-5.9,63.7-2.4,14.5-7.4,28.5-13.69995,41.8-10.19995,21.4-26.1,39.6-44.1,54.8-16.1,14.1-35.2,24.4-55.4,31.4a183.60859,183.60859,0,0,1-35.1,8.6V253.9c14.4-2.2,28.19995-7.3,41.1-14a148.52615,148.52615,0,0,0,40.5-31.7,172.30289,172.30289,0,0,0,28.69995-44.7c8.5-18.7,13-38.8,16.1-59,3.9-25.6,5.5-51.6,6.1-77.5C1266.6,18.2,1266.6,9.4,1266.6.7Z" transform="translate(-0.0347 -0.02959)" style="fill:#ed1c24"/><path d="M1298.30005.7C1312.1001.6,1326,.7,1339.9.7V298.5c-13.8,0-27.69995-.1-41.5,0-.19995-31.7,0-63.3-.1-95Z" transform="translate(-0.0347 -0.02959)" style="fill:#ed1c24"/><path d="M1349.1.6h22.4c-.19995,30.3.80005,60.6,4.4,90.7,2.9,23.4,7.1,46.9,16.4,68.6,8.80005,21,21.5,40.6,38.1,56.4a146.04466,146.04466,0,0,0,55.80005,33.4,109.58532,109.58532,0,0,0,17.8,4.2v44.5a188.08247,188.08247,0,0,1-34.8-8.5,177.60015,177.60015,0,0,1-38.5-18.6A181.36236,181.36236,0,0,1,1406.4,251.9c-12.6-11.6-23.9-24.8-32.3-39.8a169.28287,169.28287,0,0,1-15.2-37.1c-3.5-12.9-4.9-26.2-6.3-39.5-2.6-28.6-3.6-57.4-3.4-86.2C1349.1,33.2,1349.1,16.9,1349.1.6Z" transform="translate(-0.0347 -0.02959)" style="fill:#ed1c24"/><path d="M1640.7,12.9c11.6-14.8,35.6-17.3,49.80005-4.9a38.7106,38.7106,0,0,1,12,18.9q39.45008,135.75,79,271.6h-46.6Q1723.95,261,1713.20007,223.6c-30-.1-60,0-90.1,0q-10.95008,37.5-21.80005,75H1555q37.5-129.6,75.1-259.1c3-9.1,4.1-19.2,10.6-26.6m27.4,55.5c-11,37.5-21.80005,75.1-32.7,112.6,21.80005.1,43.6,0,65.5,0Q1684.4,124.75,1668.1,68.4Z" transform="translate(-0.0347 -0.02959)" style="fill:#ed1c24"/><path d="M1967.80005,14.9c8.1-11.7,23.69995-17.4,37.5-13.8,12.6,2.9,22.30005,13.8,25.6,26q39.4499,135.75,78.9,271.4c-15.5.1-31.1001,0-46.6001.1q-10.79993-37.5-21.7-75c-30,0-59.9-.1-89.9,0-7.2,25-14.6,49.9-21.7,74.9h-46.3q37.5-130.2,75.4-260.4c2.69995-7.8,3.80005-16.4,8.80005-23.2M1964,181.1H2029.2c-10.80005-37.6-21.80005-75.2-32.6-112.8C1985.80005,105.9,1974.9,143.4,1964,181.1Z" transform="translate(-0.0347 -0.02959)" style="fill:#ed1c24"/><path d="M1746.7.6h168.5V46h-62V298.4h-44.4V46h-62C1746.7,30.9,1746.7,15.8,1746.7.6Z" transform="translate(-0.0347 -0.02959)" style="fill:#ed1c24"/><path d="M2159.30005,2.5A37.62216,37.62216,0,0,1,2172.6001.6c17.69995.1,35.3999,0,53.1001,0,29.8.5,58.3,19.1,71.19995,45.9,8.8999,17.4,9.8999,37.7,7.60009,56.8-1.60009,20-9.8999,40-25.3,53.3-8.1001,7.2-18.2,11.6-27,18.1-4.80005,3.6-5,10.7-2.6001,15.8,23.5,36.3,47.8999,72,71.8999,108h-52.7c-23-34.5-45.69995-69.2-68.6001-103.8a38.25308,38.25308,0,0,1-4.5-34.1c3.1001-8.6,10.69995-14.9,19.1001-18.2,16-6.1,31.80005-15.7,40.6001-30.8,6.7-11.3,6.3999-25.3,3.3999-37.8-3.6001-16.1-19.3-28.8-35.8999-28.2-11.5.1-22.89991,0-34.39991,0-5.19995-.1-10.10009,4.4-10,9.6q-.15013,121.5,0,243.1h-44.8V36.6C2133.8999,21.5,2144.80005,7.1,2159.30005,2.5Z" transform="translate(-0.0347 -0.02959)" style="fill:#ed1c24"/><path d="M2345.1001.6h47.1001V298.5h-47.1001Z" transform="translate(-0.0347 -0.02959)" style="fill:#ed1c24"/><path d="M1499.30005,531.9c20.1,5.2,17.80005,37.2,42.4,26.8,6.69995-1.5,14.9,6.7,8.9,14.9-3.7,2.2-8.2,4.5-12.7,6.7,3.7,7.4,11.9,17.1,3.7,25.3-22.30005,11.9-48.30005,12.7-72.9,19.3-88.5,33.5-184.4,101.2-221.6,194.8-18.6,62.5-21.6,142.8,16.4,197.8,31.2,32,67.7,66.19995,112.30005,73.6,39.4,8.9,73.6-5.9,101.9-30.5,0-8.9-17.80005-13.4-7.4-21.6-20.80005-25.3,2.19995-52.8-3.69995-80.3,7.4-29,10.4-52.8,21.6-80.3-16.4-1.5-32,9.7-49.80005,10.4,7.4-3.7,0-13.4-5.19995-6.7-33.5,15.6-69.2,25.3-100.4,46.1-4.5-.7-12.69995-4.4-6.69995-10.4,32.80005-9.6,20.1-53.5,57.30005-55.8,5.19995-22.3,32-25.3,51.3-29.7-5.19995-22.3,20.1-8.2,29-14.9,26-13.4,55.80005-20.1,78.1-44.6,10.4-5.2,20.1-3,23.1,8.9.8,4.4-.80005,8.9,3.69995,11.2,11.9-1.5,20.80005-20.1,32-11.2-.80005,115.3-68.4,217.9-40.9,336.1-1.5,11.1,2.19995,24.5,3.69995,37.19995-2.3,3.69995-6,3.69995-8.9,5.19995-3.69995-3,0-8.9-3.69995-12.69995-25.30005,13.4-12.69995-26.80005-33.5-23.1-10.4-10.4-15.6-26-32.69995-24.5-20.80005,22.30005-35,55-67.69995,60.2-43.9,11.9-95.2,4.5-135.4-19.30005-58.8-23.1-100.4-77.3-125-132.4-25.3-101.9-20.1-221.6,37.2-307.1,10.4-34.2,43.9-54.3,58.69995-87,29.7-16.4,42.4-56.5,73.6-73.6,5.2.8,12.7,0,12.7-6.7,37.9-21.6,80.3-31.2,124.9-37.9C1472.6,520,1510.5,500.7,1499.30005,531.9" transform="translate(-0.0347 -0.02959)" style="fill:#ed1c24"/><path d="M2380.6001,639c-38.7,48.3-81.1001,95.2-104.8999,150.2h5.19995c6.7-10.4,32-3.7,35.7-23.1,18.6001-5.9,35-28.3,57.3-14.1-7.39991-15.6,14.10009-20.1,1.5-30.5-1.5-8.2.80005-20.1,10.3999-23.1-2.19995-19.3,11.8999-35.7,11.2-55.8-.8,3-5.8999,9.6-11.2,8.9C2382.1001,648.7,2379.8999,645,2380.6001,639M1865.2,457.5c-11.9,19.3,26,29,5.19995,47.6,11.9,8.2,24.5,3.7,32,20.1-12.69995,36.4-38.69995,67.7-53.5,103.4-24.5,16.4-13.4,47.6-28.3,67.7-26,37.2-50.6,75.1-61,118.2-49.1,64.7-72.9,140.5-94.5,217.2-3.7,11.1-3,26.8,8.9,32.69995,33.5,4.4,56.5-35,81.8-48.3,9.7-15.6,30.5-20.1,37.9-37.9,36.4-33.5,92.19995-69.2,95.9-121.2,16.4-14.1,1.5-40.9,21.6-53.5,0-19.3,0-43.9,17.9-51.3-4.5-14.1-8.2-29.7,3.69995-41.6-2.19995-5.2,3.7-8.2,1.5-14.1,5.2,3,11.2-4.4,16.4-6.7,19.30005-13.4-16.4-23.1,3.69995-35.7,12.6-16.4,16.30005-41.6,33.5-50.6-5.9-10.4,11.9-15.6,11.2-26.8,14.9-20.8,22.3-46.9,44.6-64,8.9,8.2,25.99988-1.5,31.99988,14.1,14.8999-7.4,27.5-8.2,42.3999,0,5.19995,8.9,13.3999,18.6,8.8999,29-2.2,5.2-8.2,8.9-6.7,15.6,9.7,5.2,23.80005,8.9,23.1001,23.1v11.2c-75.1001,133.9-133.1,274.4-182.19995,419.49994-.80005,13.4-6.7,27.5-1.5,40.9,3.69995,8.9,12.6,20.1,23,21.6,3,3,6.69995,8.19995,10.4,3.69995,22.30005-43.9,62.49988-75.9,83.99988-119.7-14.8999,2.2-32,9.7-48.4,14.1-2.19995-11.9,14.1-18.6,14.9-31.9,3-10.4-15.6-8.9-5.9-17.9,15.6-8.9,37.20008-12.6,44.6-29,14.8999-11.9,37.8999-10.4,44.6001-32,37.8999-8.2,35-49.1,59.5-71.4,3.7-23.1,28.3-35.7,37.2-55.1,3,2.3,6.69995,1.5,8.8999-2.2-6-27.5,42.3999-26.8,37.19995-58.8,21.6001-6.7,18.6001-29.7,35.7-40.9,12.7-17.1,25.3-35.7,44.7-48.4-2.3-4.4,4.3999-5.2,3.7-8.9,25.3-25.3,67.69995-40.9,64.69995-80.3.80005-10.4,1.5-26.8,14.1001-33.5,12.60009,0,24.5,5.9,33.5,10.4.8,5.9-2.2,17.1,7.3999,16.4,26,6.7,43.8999,0,67.7,11.9,3.7,3,0,8.2,3.7,11.2-50.6001,208.2-39.3999,449.2-71.3999,665.6,4.5,30.5-7.3999,63.2-3.69995,90.7-5.2,3.69995-4.5,12.6-10.39991,8.9,1.5-4.5-3-7.4-5.2-10.4,0-10.4,3-26.80005-6-35.7-1.5,3-5.19995,3.7-8.8999,3.7-5.19995-3.7-3-10.4-8.8999-14.1,17.1001-5.19995,12.7-23.8,11.2-35.69995-11.2-.80005-8.8999-13.4-14.1001-20.1,3-4.5,17.8-3.69995,11.8999-15.6-3.7-9.69995-7.3999,4.4-14.10009,0-3.7-8.19995-8.2-17.1-5.2-25.30005-10.39991-14.9,1.5-40.19995-12.6001-52.1,0-8.9,8.2-20.1,0-28.3-8.8999,4.5-4.5,20.8-10.3999,25.3-3-30.5-18.6001-65.5,0-93-3-14.9-16.39991-31.2-8.89991-49.8-3-32.7,6.7-69.9,3.7-101.9-17.8999-3-32,13.4-50.60009,14.1-4.5,10.4-17.80005,9.7-26.80005,14.1-26,5.9-37.8999,35.7-65.3999,37.9-4.5,4.5-11.1001,4.5-16.39991,6.7,0-1.5.7-4.5-1.5-5.2-6.69995,8.9-26,1.5-20.10009,17.9-8.89991,0-14.89991,9.7-19.3,16.3-35.7,67-69.1001,134.6-110.80005,199.30005-6.69995,18.6-21.6001,34.19995-26.8,53.5-3,3.69995-9.69995,1.5-10.4-1.5-6.69995-8.9-14.9,5.9-16.4,10.4-17.1,34.19995-35,71.4-62.5,98.19995-3,1.5-5.19995-1.5-7.4-3,.8-8.19995,6-15.6,6-21.6-13.4,11.19995-21.6,24.6-30.5,37.19995-17.1,4.4-4.5-14.9-11.2-21.6-16.4,16.4-21.6,48.4-49.8,48.4-1.5-8.19995,2.19995-18.6,3.69995-28.30005-6-5.9-12.69995,7.4-17.9-2.19995,3.69995-14.9,21.6-27.5,25.30005-44.6,15.6-5.9,11.19995-29,26.8-37.2-3-13.4,10.4-15.6,10.4-26.8,15.6-14.9,14.9-37.2,32-52.1-36.5,5.19995-93.69995,43.1-119.69995-6.7,5.19995-10.4.80005-23.1-8.9-29,5.19995-31.19995-1.5-53.5,11.19995-81.8-1.5-14.9,17.1-20.8,8.9-34.2-37.9,41.6-80.3,83.99993-123.5,121.99993-32,15.6-68.4,21.6-101.9,3-12.6-7.4-11.9-20.8-20.8-29.8-13.4-59.5-11.1-120.5,14.1-173.3,14.1-29.7,7.4-68.4,28.30005-94.4,9.69995-61,42.4-112.3,64.69995-168.1,13.4-32,23.1-66.2,46.1-94.5,11.19995-35,24.6-73.6,57.30005-94.4,5.19995-3,11.19995-11.9,17.8-5.9,13.4,3.7,16.4-21.6,32-11.9A23.09359,23.09359,0,0,1,1865.2,457.5" transform="translate(-0.0347 -0.02959)" style="fill:#ed1c24"/><path d="M1099.2,369.8c-3,5.9-11.1,5.9-16.4,10.4-48.3,7.4-98.9,10.4-145.8,21.6-7.4,19.3,13.4,18.6,24.5,17.8,3.7,5.2,10.4-1.5,11.2,0,0,22.3-35.7,13.4-29,39.4-18.6,17.1-46.9,10.4-66.2,26.8,1.5,1.5,3,2.2,3.7,3.7-32,12.7-65.4,28.3-99.7,32,5.2,12.6-14.1,23.1-20.1,30.5-21.5-1.5-37.2,9.7-55,17.8C685,703.7,638.9,827.9,601,955.1c-40.1,75.9-61.7,159.19995-126.4,225.4C408.4,1267.5,314,1368.7,192.7,1332.2,121.3,1302.5,29.8,1276.3999.1,1192.3999c-.8-7.4,5.9-10.4,11.9-11.9,5.2-2.2,3.7,3,5.9,5.19995,8.9,5.19995,19.3,8.9,20.8,21.6,45.4,26.80005,84,69.2,142.8,62.4,110.8-11.9,181.5-125.69995,234.3-211.19995,72.1-145,110.8-304.9,146.5-465.6-1.5-1.5-3-2.2-3.7-3.7-92.2,8.2-181.5,28.2-272.9,30.5-5.2-7.4-6.7-15.6-11.2-23.1-9.7-3.7-23.1,8.2-26.8-3.7,5.2-1.5-.8-3.7-1.5-5.2,11.2.8,19.3-7.4,24.6-16.4,3-11.2-10.4-12.7-15.6-19.3-7.4-1.5-14.1-3-16.4-11.2,0-7.4,0-14.9,7.4-19.3,10.4-6.7,39.4,7.4,33.4-12.7-6.7-.7-23.8,3.7-24.5-10.4.8-11.2,2.2-21.6,15.6-20.1,95.2,8.2,177.7-19.3,271.4-24.5,134.6-18.6,262.5-57.3,394.9-75.1,44.6-7.4,89.19995-14.1,133.9-21.6C1082.1,357.2,1097,355.7,1099.2,369.8" transform="translate(-0.0347 -0.02959)" style="fill:#ed1c24"/><path d="M978,646.5c-1.5,3-5.2,5.2-5.2,8.9-4.5,5.2-13.4,25.3-20.1,7.4-37.2,59.5-68.4,121.2-99.7,183.7a16.10071,16.10071,0,0,0,0,14.2c17.8,3.7,15.6-10.4,21.6-19.4,10.4-5.9,22.3-12.6,35.7-7.4,14.9-22.3,42.4-29,65.4-39.4-1.4-50.6,4.5-97.5,2.3-148m116-162.2c8.19995,15.6-12.6,53.5,17.80005,51.3,15.6,27.5.80005,60.2,1.5,91.5-16.4,169.6-20.1,351.8-17.80005,522.79992-3.69995,7.4,3,31.30005-14.1,21.6-8.19995-8.2-8.9-24.6-19.3-26.80005-12.7,21.6-6,49.1-12.7,69.19995-14.1-5.19995-14.9-19.30005-16.4-32,14.1-23.80005-22.3-35.69995-12.6-62.5-10.4,5.9,0,27.5-8.9,37.19995-10.4,3-11.9-10.4-17.9-17.9,1.5-16.30005-17.8-34.2-3-46.1,10.4-26.8-17.8-43.1-7.4-67.69995-1.5-48.3-3.7-105.6-5.2-151.7l-3.7-3.7c-44.6,18.6-93,35-137.6,48.4-9.7,4.4-17.8,14.9-30.5,14.1-47.6,88.5-83.3,182.2-126.4,272.9,2.2,24.5-30.5,29.69995-25.3,55.80005-5.9,11.19995-8.9,25.30005-17.8,33.4-7.4-14.1,16.4-32.7,0-46.1,5.9-14.9,11.9-32,8.9-48.30005-22.3,31.19995-35,68.4-51.3,103.4-7.4,2.19995-8.9-9.7-5.2-14.1,4.4-8.9,12.6-21.6,6.7-30.5H592c-14.1,20.9-17.1,50.6-40.9,62.5,5.9-19.4-3-28.30005-1.5-46.1,0-21.6,20.8-29.69995,19.3-48.3,8.2-4.5-2.2-17.9,11.2-17.9-.8-9.69995,23.1-16.30005,10.4-25.30005,9.6-28.30005,27.5-54.30005,39.4-80.30005,10.4-8.9,6.7-23.8,19.3-31.9,9.7-25.30005,22.3-52.1,40.9-75.1-8.2-13.4,15.6-14.1,7.4-28.3,3-8.2,10.4-14.9,12.7-23.1-6.7-5.2-29.8,3.7-26.8-14.1,3.7-5.2-6-5.2-8.9-7.4,10.4-10.4,28.3-16.4,42.4-16.4,3-8.2,13.4-5.9,20.1-8.9,7.4-18.6,30.5-34.2,23.1-56.5,11.9-8.2,23.1-20.1,23.1-32.7,0-29,34.2-52,37.9-78.1,16.4-11.9,19.3-34.2,29.8-48.3,14.9-3,.7-17.1,16.4-17.8,17.8-32.7,21.6-72.9,53.5-98.2,11.9-17.1,18.6-35.7,23.1-55,8.2-4.4,12.6,0,21.6-2.2,6.7,6.7,0,25.3,16.4,21.6,5.2-11.2.7-37.2,23-37.2,17.9-.8,38.7,9.7,49.80005-7.4C1065,479.9,1082.9,473.9,1094,484.3" transform="translate(-0.0347 -0.02959)" style="fill:#ed1c24"/><path d="M3062.6001,471.7c38.69995-.7,72.8999,31.9,107.1001,53.6,40.8999,34.9,61,78.8,58.8,131.6-4.5,100.4-107.8,177.7-188.8999,217.9,6.7,11.1,20.8,20.8,32,29,35.7,35,60.2,83.3,101.8999,116,11.89991,25.30005,43.1001,26.80005,62.5,47.6,29,51.30005,85.5,66.2,117.5,113,38.7,33.5,77.39991,74.4,119.7,103.4,18.60009,34.19995,57.3,26.80005,72.8999,64,10.3999,3.69995,17.8,14.9,21.6001,23.1-23.80005,21.5-40.89991-23.1-62.5-32-16.39991-10.4-29-25.3-46.1001-37.19995-78.1001-61-145.80005-123.5-226.80005-177-25.3-12.7-42.3999-41.7-61-64-44.6001-12.6-58-61-94.3999-85.5-5.89991-11.2-15.6001-22.3-24.6001-30.5-.69995,12.7-14.8999,8.2-20.1001,1.5-13.3999-17.1-36.3999-23.8-51.30005-37.2,6-18.6-15.6001-6.7-21.5-12.6-8.8999-11.1-20.1001-23.8-32-30.5-8.8999,4.5,0,9.7,1.5,14.2,28.30005,20.1,36.3999,62.5,71.3999,69.9,33.5,37.2,70.7,66.2,107.1001,96.7C3104.3999,1050.4,3096.2,1048.9,3091,1051.9c70.7,34.2,124.8999,107.80005,193.3999,148,26,24.5,52.80005,47.6,74.3999,71.4,1.5,2.19995-3,3-1.5,5.19995,91.5,61.69995,164.39991,160.6,262.5,212.69995,3,7.4-5.19995,8.19995-8.8999,5.19995-105.6001-66.9-196.3-159.19995-303.3999-223.1-89.3-66.19995-148.7-161.4-248.3999-210.5-3-17.1-20.80005-16.3-32-23.1-11.2-16.4-35-30.5-35.7-52.1-15.6001-17.1-44.6001-24.5-52.1001-49.8-14.1001-7.4-26.8-21.6-44.6001-16.4-12.6001-8.2-18.6001-28.3-35.7-30.5-3-6.7-12.7-6-11.8999-14.1,15.6001-2.2,10.3999-22.3,26.8-24.6,13.3999,7.4,28.30005,6.7,42.3999,1.5,11.8999-23.1-21.6001-29-30.5-46.1-6.69995-9.7,5.8999-19.3,7.3999-23.8,24.5-.7,38.69995,48.3,66.19995,29,6.7,0,9.6001,8.2,17.80005,5.2,17.8-29.7,41.6001-57.3,63.8999-85.5,7.39991-17.9,23.1001-34.9,14.1001-57.3-32-40.9-89.2-48.4-140.5-39.4-13.3999,11.9-40.2,4.4-43.1001,26.8-2.30005,19.3-14.8999,33.5-23.10009,49.8-4.5-.7-5.2-4.4-5.2-8.9,3.7-2.2-3-5.9-5.19995-6.7-23.10009,28.3-26,68.4-41.60009,101.9-5.2,0-3-7.4-8.89991-7.4-40.2,121.2-63.2,248.4-90.80005,374.8-3,8.9-8.8999,12.6-16.3,17.8-11.2-8.19995,8.8999-28.3-10.39991-34.19995-23.80005,54.3-45.3999,109.3-69.8999,162.9-7.3999-11.2.8-21.6-6.7-32-10.3999-2.2-15.6001,2.19995-17.8,10.4-10.3999,23.1-7.3999,55-26.80005,71.4.80005-5.19995,6-20.8,0-28.3-9.69995,6.69995-8.8999,29.69995-21.6001,23.1,0-15.6-16.3-33.5,0-46.9-21.5-29.80005,14.1001-66.19995,25.30005-98.19995,6.69995-5.2,20.8-8.9,8.89991-19.30005,7.3999-8.19995-4.5-32,11.8999-30.5,9.6001-6.69995.7-11.19995-5.2-14.1,12.7-27.5,17.80005-58,30.5-85.5,12.60009-4.5,22.30005-14.9,23.10009-29-9.69995-1.5-7.3999-13.4-5.19995-19.3,23.8-66.2,37.19995-136.9,67.69995-200.1,3.7-14.1,5.89991-33.4,17.80005-46.1,4.5-24.6,18.6001-43.9,23.1001-67.7-31.2,5.9-61.7,46.9-98.1001,26.8.69995-37.2-47.60009,5.9-46.10009-30.5-3-22.3-29.80005-2.2-35.7-23.1,0-14.9,8.2-22.3,5.2-35.7,13.3999,6.7,21.5-9.7,34.19995-8.9,14.10009-11.1,7.3999-31.2,19.30005-43.1,30.5-7.4,56.5-29.7,85.5-34.2,3.69995-5.2,6.69995-12.7,14.8999-11.9,14.8999.8,29.7-8.9,44.6001-12.6,0,.7.8.7,1.5,1.5,14.8999-9.6,35.69995-8.9,48.3-21.5,30.5-3,59.5-20.8,89.2-15.6,20.10009-3.7,48.3999,1.5,64-17.8,15.60009-11.1,34.19995,7.4,49.8-8.9C3018.7,473.9,3045.5,455.3,3062.6001,471.7" transform="translate(-0.0347 -0.02959)" style="fill:#ed1c24"/><path d="M2884.1001,923.1c8.19995,5.2,16.3999,11.9,26.8,12.6,33.5,51.3,92.2,85.5,125,139.1,16.3999,14.9,45.3999,19.30005,49.80005,44.6,33.5,27.5,75.10009,55,94.5,93,23.10009,11.9,43.8999,26.80005,68.3999,33.5,67.69995,53.5,119,110.80005,181.5,169.5,40.19995,46.1,94.3999,56.5,137.6001,93,29.69995,28.30005,69.19995,56.5,91.5,89.30005-1.5,3-8.2,3-11.2,0-93-80.30005-194.8-142.1-287.10009-224.6-13.39991,1.5-25.3-8.9-35.69995-17.80005-61-31.19995-99.7-110.1-168.1001-127.19995-20.80005-37.2-58.80005-59.5-94.5-80.30005-28.30005-11.1-31.2-47.6-58.80005-55-8.19995-10.4-23.1001-11.19995-26.8-25.3-26.8-29.80005-53.5-63.2-87.8-81.8-10.3999-10.4-15.6001-22.3-23.1001-34.2-11.8999-2.2-32.7,6.7-40.8999-10.4-11.8999,0-25.30005,2.2-32-8.9,1.5-12.6,13.3999-19.3,0-30.5,14.1001-37.2,45.3999,3,69.19995,0A42.34015,42.34015,0,0,1,2884.1001,923.1" transform="translate(-0.0347 -0.02959)" style="fill:#ed1c24"/><path d="M2912.3999,1019.8c14.8999,12.6,27.5,26.8,26.80005,46.1,26,45.4,69.8999,77.30005,107.1001,110.80005a481.07777,481.07777,0,0,0,41.6001,62.5c31.2-13.4,49.80005,22.3,69.2,40.9-3.7,23.1,26,27.5,39.3999,40.9,11.2-4.5,17.8999,6.7,19.3,16.30005,25.30005,10.4,36.3999,43.1,64.7,46.1,11.2,22.30005,43.1001,12.7,44.6001,39.4,23.8,18.6,50.6001,32.69995,72.8999,49.80005-2.2,14.9,21.6001,6.69995,20.1001,23.1,11.19995,8.19995,22.3,23.8,38.69995,21.5,3,21.6,26.80005,21.6,39.3999,32,67.69995,57.3,144.3,108.6,209,168.1-9.7,0-17.8999-6-26.80005-8.9-176.3-138.3-362.8999-260.3-537-406.8-9.69995-5.2-10.3999-16.30005-14.8999-25.30005-60.2-8.19995-92.2-73.6-142.8-107.1-18.6001-50.6-88.5-61.7-94.3999-117.5-18.6001-17.1-51.3-10.4-60.19995-39.4-5.2-2.2-5.2-9.7-7.3999-14.1-10.39991-10.4-40.89991-7.4-32-29,27.5-14.1,49.8,17.1,76.60009,21.6C2878.8999,1003.4,2897.5,1010.1,2912.3999,1019.8" transform="translate(-0.0347 -0.02959)" style="fill:#ed1c24"/><path d="M2686.30005,1198.30005c-3.69995,30.5-17.1001,58-34.19995,83.30005-7.3999-1.5-6.7-13.4-16.3999-15.6.8-3.69995,5.19995-5.9,7.3999-8.9,3.69995,0,6.69995-.80005,8.8999-3.7,11.2-20.1-2.2-54.3,25.3-62.5,3,1.3999,6,4.3999,9,7.3999" transform="translate(-0.0347 -0.02959)" style="fill:#ed1c24"/><path d="M3599.5,1390.9c8.8999,3.7,15.6001,13.4,26.8,12.7,22.30005,11.19995,32.7,37.9,55.80005,47.6-14.8999,17.9-30.5-12.69995-48.30005-14.1-16.3999-23.80005-50.6001-27.5-57.3-55,8.8999-8.29993,17.8-.9,23,8.8" transform="translate(-0.0347 -0.02959)" style="fill:#ed1c24"/><path d="M3733.3999,1483.80005c35,23.1,73.6001,37.9,105.6001,64-43.1001-5.19995-80.3-36.4-119.7-57.30005-11.1001-3-22.3-8.19995-28.3-19.30005.8-5.19995-3-11.9,3.7-14.1,15.69995,2.20007,24.6001,20.8,38.69995,26.70007" transform="translate(-0.0347 -0.02959)" style="fill:#ed1c24"/><path d="M3742.30005,1565.6c-4.5,7.4-12.6001,1.5-17.8,0-27.5-12.6-52.8-31.2-78.1001-49.80005-5.19995-5.19995.80005-11.9,6.7-8.9,32.00025,14.90015,60.2002,40.90015,89.2002,58.70008" transform="translate(-0.0347 -0.02959)" style="fill:#ed1c24"/><path d="M3710.3999,1631.9c-11.8999,5.2-25.3-7.4-35.69995-16.4,9.69995-18.6,22.3,11.9,35.69995,12.6v3.8" transform="translate(-0.0347 -0.02959)" style="fill:#ed1c24"/><path d="M2398.30005,1403.9c15.80005-3.3,59-13.8,64.3999,1.6,5.3,15,42.5-7.69995,45.8999,24.1,2.39991,22.5-10.80005,17.1-12.30005,40.19995-.8,13.30005-18.8999,27.7-39.8999,30.30005-66.6001,5.5-186.1001,53.6-186.1001,165.9,0,0-7.3999,125.30005,123.1001,125.30005,0,0,81.3999,13.1,146.5-76.80005,3.6001-5,14.2-9.30005,19.8999-7,3.5,1.4,6.30005,4.5,6,10.9-.19995,6.1-3.3999,11.7-7.60009,16.1-3,3.30005-5.89991,8.5-2.8,14.80005,5.5,11.1,4,26.6-9.3,41,0,0-61.6001,61.80005-151.6001,61.80005-90.1001,0-212.2-30.4-212.2-192.30005S2303.80005,1423.9,2398.30005,1403.9Z" transform="translate(-0.0347 -0.02959)" style="fill:#ed1c24"/><path d="M2855.6001,1468.80005c-81,0-95.5,22.9-97.80005,51.4-3.8999,48.19995-24,110.19995-39.8999,150-21.8,54.6-72.39991,143-72.39991,205.8,0,34.9-13.5,32.2-13.5,32.2-7.8999,0-12.10009-7.80005-14.3999-15.80005a2.68212,2.68212,0,0,0-5.2.1c-3.5,15.9-11.1001,36.9-27.1001,36.9-25.7,0-28.8999-44.69995-28.8999-44.69995,0-89.4,105.80005-357.79992,105.80005-357.79992s-80.8999,40.9-96.30005,41.30005c-29.19995.9-33.1001-37.4-9.6001-45.6a1.89416,1.89416,0,0,0-.2-3.6c-11.2-3.1-28-10.1-28-24.9,0-34.30005,56.3999-63.5,163.5-88.19995,0,0,4.3-71,26.8999-71,15.7,0,42.1001,13.69995,56.80005,22a20.8515,20.8515,0,0,1,10.6001,18v5.19995h112.5c51.7,0,151.2,26.19995,151.2,141.6,0,158-215.2,283.3-376.3,353.8a7.56977,7.56977,0,0,1-10.10009-4.8c-2.30005-6.80005-3.1001-16.2,8.3999-18.4a5.53782,5.53782,0,0,0,4.1001-6.69995c-3.39991-14.6-7.2-51.69995,32.5-73.6,50.3-27.7,233.8999-141.6,239.8-218.3C2953.80005,1479.1,2903,1468.80005,2855.6001,1468.80005Z" transform="translate(-0.0347 -0.02959)" style="fill:#ed1c24"/></svg>