<svg id="Layer_1" data-name="Layer 1" xmlns="http://www.w3.org/2000/svg" viewBox="0 0 3840 573.40002"><path d="M2619.80005,295.9V17.2H2490.6001L2270.2,268c-26,29.6-32.1001,70.3-15.80005,106.3C2270.7,410.2,2305.2,432.5,2344.7,432.5h138.6001V561.9h136.5V432.5h54.80005V295.9Zm19.80005,101.6h-54.80005V526.9H2518.1001V397.5h-173.5c-55.2,0-84.6001-65-48.2-106.5l209.8999-238.9h78.5V330.8h54.80005Z" transform="translate(0 0)" style="fill:#ffc20b"/><path d="M2365.8999,330.9H2518.2V139.7l-157.6001,179.4A7.08291,7.08291,0,0,0,2365.8999,330.9ZM2483.2,232.4V296h-55.8999Z" transform="translate(0 0)" style="fill:#ffc20b"/><path d="M798.6,40.8c21.1-27,64.9-31.7,90.8-9,10.6,8.9,18,21.3,21.8,34.5q72,247.8,144.19995,495.5c-28.3,0-56.7-.1-85,0-13.4-45.5-26.4-91.2-39.6-136.7-54.8-.1-109.5,0-164.3-.1q-20.1,68.4-39.8,136.8c-28.2-.1-56.4,0-84.5-.1q68.4-236.4,137.1-472.7C784.7,72.7,786.7,54.3,798.6,40.8m50,101.2c-20.1,68.4-39.8,137-59.7,205.5,39.8.2,79.6.1,119.4.1Q878.45,244.7,848.6,142Z" transform="translate(0 0)" style="fill:#fff"/><path d="M1395.4,44.4c14.80005-21.4,43.30005-31.8,68.4-25.2,23,5.3,40.6,25.1,46.69995,47.4q72,247.65,144,495.1c-28.4.2-56.69995,0-85.1.1-13.19995-45.6-26.19995-91.2-39.5-136.8-54.69995,0-109.4-.1-164.1,0-13.1,45.6-26.6,91.1-39.6,136.7h-84.4q68.4-237.6,137.6-475.1c4.9-14.1,6.7-29.9,16-42.2m-6.9,303.1c39.69995.1,79.30005,0,118.9,0-19.69995-68.7-39.8-137.2-59.4-205.9C1428.2,210.3,1408.2,278.9,1388.5,347.5Z" transform="translate(0 0)" style="fill:#fff"/><path d="M992,18.3h307.4v82.9H1186.20007V561.7h-81.1V101.2c-37.7-.1-75.5,0-113.2,0C992,73.6,991.9,46,992,18.3Z" transform="translate(0 0)" style="fill:#fff"/><path d="M1744.6,21.7a69.10127,69.10127,0,0,1,24.3-3.4c32.30005.1,64.6,0,96.9,0,54.4,1,106.4,34.8,129.9,83.7,16.3,31.8,18,68.8,13.9,103.7-2.80005,36.5-18.2,73.1-46.2,97.3-14.8,13.2-33.3,21.2-49.19995,33-8.7,6.6-9.2,19.5-4.6,28.8,42.9,66.2,87.5,131.4,131.30005,197-32,.1-64-.1-96.1.1-41.9-63-83.4-126.3-125.19995-189.3-12.30005-18-15.6-41.7-8.30005-62.2,5.7-15.7,19.5-27.2,34.80005-33.1,29.19995-11.1,58-28.6,74.1-56.2,12.30005-20.7,11.7-46.2,6.1-68.9-6.5-29.4-35.1-52.6-65.4-51.5-21,.1-41.9-.1-62.80005.1-9.5-.2-18.4,8-18.30005,17.6q-.15,221.7,0,443.5c-27.19995-.1-54.4,0-81.69995,0q-.15-238.8-.1-477.5C1698.4,56.4,1718.2,30.2,1744.6,21.7Z" transform="translate(0 0)" style="fill:#fff"/><path d="M2083.7,18.3h85.8999q0,271.8-.10009,543.5c-28.6001-.1-57.30005,0-85.89991,0Q2083.75,290,2083.7,18.3Z" transform="translate(0 0)" style="fill:#fff"/><path d="M483.4,17.8H60.1A60.21859,60.21859,0,0,0,0,77.9V501.2a60.21859,60.21859,0,0,0,60.1,60.1H483.3a60.28313,60.28313,0,0,0,60.1-60.1V77.9A60.19748,60.19748,0,0,0,483.4,17.8Z" transform="translate(0 0)" style="fill:#fff"/><path d="M209.4,120.6h26.8v63.1c.1,17.6-.4,35.1-1.1,52.6-1.2,25.3-2.8,50.7-7,75.7-2.9,17.3-8.8,33.9-16.3,49.7-12.1,25.5-31.1,47-52.4,65.1-19.1,16.8-41.9,29-65.8,37.3a222.93,222.93,0,0,1-41.7,10.3V421.5c17.1-2.6,33.5-8.6,48.8-16.7a178.115,178.115,0,0,0,48.2-37.7A200.649,200.649,0,0,0,183,314c10.1-22.2,15.5-46.1,19.2-70.1,4.6-30.5,6.5-61.3,7.2-92.1C209.5,141.5,209.4,131,209.4,120.6Z" transform="translate(0 0)"/><path d="M247,120.6c16.5-.1,32.9,0,49.4,0V474.5c-16.4,0-32.9-.1-49.3.1-.2-37.6,0-75.2-.1-112.8Q247,241.05,247,120.6Z" transform="translate(0 0)"/><path d="M307.4,120.6h26.7c-.3,36,.9,72,5.2,107.7,3.5,27.8,8.5,55.7,19.5,81.6,10.5,25,25.6,48.3,45.3,67a173.39514,173.39514,0,0,0,66.3,39.6,140.59393,140.59393,0,0,0,21.1,5v52.9a219.41886,219.41886,0,0,1-41.4-10.1,212.50133,212.50133,0,0,1-45.8-22.1c-10.4-6.7-19.8-14.7-28.9-23-15-13.8-28.4-29.5-38.4-47.3-7.9-13.8-13.6-28.8-18.1-44-4.1-15.3-5.9-31.2-7.5-46.9-3.1-34-4.3-68.2-4-102.4C307.4,159.2,307.4,139.9,307.4,120.6Z" transform="translate(0 0)"/><path d="M2969.7,0C2811.59985,0,2683,128.6,2683,286.7s128.6001,286.7,286.7,286.7c158.1001,0,286.69995-128.6,286.69995-286.7S3127.80005,0,2969.7,0Zm0,538.4c-138.80005,0-251.7-112.9-251.7-251.7S2830.8999,35,2969.7,35,3221.3999,147.9,3221.3999,286.7C3221.5,425.5,3108.5,538.4,2969.7,538.4Z" transform="translate(0 0)" style="fill:#ffc20b"/><path d="M2969.7,101.6c-102,0-185.1001,83-185.1001,185.1,0,102,83,185.1,185.1001,185.1,102,0,185.1001-83,185.1001-185.1S3071.80005,101.6,2969.7,101.6Zm0,335.2c-82.80005,0-150.1001-67.4-150.1001-150.1,0-82.8,67.39991-150.1,150.1001-150.1,82.8,0,150.1001,67.4,150.1001,150.1C3119.8999,369.5,3052.5,436.8,2969.7,436.8Z" transform="translate(0 0)" style="fill:#ffc20b"/><path d="M3553.30005,0C3395.2,0,3266.6001,128.6,3266.6001,286.7s128.6001,286.7,286.69995,286.7c158.1001,0,286.7-128.6,286.7-286.7S3711.3999,0,3553.30005,0Zm0,538.4c-138.8,0-251.69995-112.9-251.69995-251.7S3414.5,35,3553.30005,35,3805,147.9,3805,286.7C3805.1001,425.5,3692.1001,538.4,3553.30005,538.4Z" transform="translate(0 0)" style="fill:#ffc20b"/><path d="M3553.30005,101.6c-102,0-185.1001,83-185.1001,185.1,0,102,83,185.1,185.1001,185.1,102,0,185.1001-83,185.1001-185.1C3738.3999,184.6,3655.3999,101.6,3553.30005,101.6Zm0,335.2c-82.8,0-150.1001-67.4-150.1001-150.1,0-82.8,67.3999-150.1,150.1001-150.1,82.80005,0,150.1001,67.4,150.1001,150.1C3703.5,369.5,3636.1001,436.8,3553.30005,436.8Z" transform="translate(0 0)" style="fill:#ffc20b"/></svg>