<svg id="Layer_1" data-name="Layer 1" xmlns="http://www.w3.org/2000/svg" xmlns:xlink="http://www.w3.org/1999/xlink" viewBox="0 0 3839 524"><defs><linearGradient id="Dégradé_sans_nom" x1="127.45" y1="-0.11017" x2="127.45" y2="523.88983" gradientTransform="matrix(1, 0, 0, -1, 0, 523.88983)" gradientUnits="userSpaceOnUse"><stop offset="0" stop-color="#ef5023"/><stop offset="0.2217" stop-color="#e04620"/><stop offset="0.6488" stop-color="#b82c16"/><stop offset="1" stop-color="#92140e"/></linearGradient><linearGradient id="Dégradé_sans_nom_2" x1="348.3" y1="90.58984" x2="348.3" y2="473.88983" xlink:href="#Dégradé_sans_nom"/><linearGradient id="Dégradé_sans_nom_3" x1="514.5" y1="140.58984" x2="514.5" y2="423.88983" xlink:href="#Dégradé_sans_nom"/><linearGradient id="Dégradé_sans_nom_4" x1="246.2" y1="90.58984" x2="246.2" y2="523.88983" gradientTransform="matrix(1, 0, 0, -1, 0, 523.88983)" gradientUnits="userSpaceOnUse"><stop offset="0" stop-color="#008039"/><stop offset="0.1163" stop-color="#06833d"/><stop offset="0.266" stop-color="#168b47"/><stop offset="0.4338" stop-color="#309859"/><stop offset="0.615" stop-color="#55aa72"/><stop offset="0.8068" stop-color="#84c191"/><stop offset="1" stop-color="#bcdcb6"/></linearGradient><linearGradient id="Dégradé_sans_nom_5" x1="437.3" y1="140.58984" x2="437.3" y2="473.88983" xlink:href="#Dégradé_sans_nom_4"/></defs><polygon points="131 524 0 524 123.9 0 254.9 0 131 524" style="fill:url(#Dégradé_sans_nom)"/><polygon points="328.1 50 237.5 433.3 368.5 433.3 459.1 50 328.1 50" style="fill:url(#Dégradé_sans_nom_2)"/><polygon points="482.5 100 415.5 383.3 546.5 383.3 613.5 100 482.5 100" style="fill:url(#Dégradé_sans_nom_3)"/><polygon points="254.9 0 123.9 0 237.5 433.3 368.5 433.3 254.9 0" style="fill:url(#Dégradé_sans_nom_4)"/><polygon points="546.5 383.3 459.1 50 328.1 50 415.5 383.3 546.5 383.3" style="fill:url(#Dégradé_sans_nom_5)"/><path d="M3751.6001,332.2h-19.2v-6.4h46v6.4H3759.2002v51.1h-7.7V332.2Z" transform="translate(0 0)" style="fill:#fff"/><path d="M3781.7,325.8h10.5l18.1001,48.3,18.2-48.3H3839v57.5h-7.2V335.5h-.19995l-18,47.8h-6.5l-18-47.8h-.2v47.8h-7.19995V325.8Z" transform="translate(0 0)" style="fill:#fff"/><path d="M1256.5,136.2,1266.2,99.9H962.5l3.4,36.3h97.6L1013.4,348a28.44052,28.44052,0,0,0,27.7,35h58.69995l58.4-246.8Z" transform="translate(0 0)" style="fill:#fff"/><path d="M2741.5,100.2l-58.3,246.6h-45.3999l58.30005-246.7h-94.7L2543,346.8h-45.3999L2556,100h-94.7L2402.6001,348.1a28.44058,28.44058,0,0,0,27.69995,35l339,.1L2836.2,100.1h-94.7Z" transform="translate(0 0)" style="fill:#fff"/><path d="M3349,100.1l-58.3,246.7h-35L3233.1001,100h-92.5l23.5,257.2a28.47048,28.47048,0,0,0,28.3,25.9l184.30005.1,67-283.1Z" transform="translate(0 0)" style="fill:#fff"/><path d="M3530.3999,100,3489,100.2l-58.7,248.1a28.44058,28.44058,0,0,0,27.7,35h58.7l158.3-.2,8.6001-36.3H3525.30005l25.80005-108.9h140.1001l8.60009-36.3H3559.7002l15.3999-65.3h158.3l8.5-36.1Z" transform="translate(0 0)" style="fill:#fff"/><path d="M1300.7,100.3,1242,348.3a28.44058,28.44058,0,0,0,27.69995,35l218.6-.3,58.6-248A28.44057,28.44057,0,0,0,1519.2,100Zm36.4,246.5,49.8-210.6h65.2l-49.80005,210.6Z" transform="translate(0 0)" style="fill:#fff"/><path d="M1600.80005,100l-67,283.1H1628.5l58.4-246.8h45.4L1674,383.2H1768.7l58.4-246.9h45.4l-58.4,247h94.69995l58.7-248.1a28.44057,28.44057,0,0,0-27.7-35Z" transform="translate(0 0)" style="fill:#fff"/><path d="M2021.1,100.2l-58.7,248.1a28.44058,28.44058,0,0,0,27.7,35h58.70007l67-283.1H2021.1Z" transform="translate(0 0)" style="fill:#fff"/><path d="M721.5,100l-67,283.1h94.7l17.4-73.6h91.8l6.7,73.6h92.5L934.1,125.9a28.47035,28.47035,0,0,0-28.3-25.9Zm53.7,173.2,32.4-136.9h34.9l12.5,136.9Z" transform="translate(0 0)" style="fill:#fff"/><path d="M2881.8999,100l-67,283.1h94.7l17.39991-73.6h91.8l6.7,73.6h92.5l-23.5-257.2a28.4705,28.4705,0,0,0-28.30005-25.9Zm53.7002,173.2L2968,136.3h35l12.5,136.9Z" transform="translate(0 0)" style="fill:#fff"/><path d="M2232,201.6l15.3999-65.3h159.8999l8.6001-36.3L2161.2,100.3,2137,202.9a28.44057,28.44057,0,0,0,27.7,35h123.8999L2262.7998,346.8H2102.8999L2094.2,383.1H2348.8999L2383.5,236.6a28.44057,28.44057,0,0,0-27.7-35H2232Z" transform="translate(0 0)" style="fill:#fff"/></svg>