<svg id="Layer_1" data-name="Layer 1" xmlns="http://www.w3.org/2000/svg" viewBox="0 0 3839.1001 914.5"><circle cx="31.9" cy="31.9" r="31.9" style="fill:#fff"/><circle cx="31.9" cy="126.4" r="31.9" style="fill:#fff"/><circle cx="31.9" cy="220.89999" r="31.9" style="fill:#fff"/><circle cx="31.9" cy="315.39999" r="31.9" style="fill:#fff"/><circle cx="31.9" cy="410" r="31.9" style="fill:#fff"/><circle cx="74.6" cy="79.1" r="31.9" style="fill:#fff"/><circle cx="74.6" cy="268.20001" r="31.9" style="fill:#fff"/><circle cx="74.6" cy="362.70001" r="31.9" style="fill:#fff"/><circle cx="74.6" cy="457.20001" r="31.9" style="fill:#fff"/><circle cx="74.6" cy="835.40002" r="31.90001" style="fill:#fff"/><circle cx="117.3" cy="31.9" r="31.9" style="fill:#fff"/><circle cx="117.3" cy="315.39999" r="31.89999" style="fill:#fff"/><circle cx="117.3" cy="410" r="31.89999" style="fill:#fff"/><circle cx="117.3" cy="504.50001" r="31.90002" transform="translate(-391.99716 598.81837) rotate(-87.40278)" style="fill:#fff"/><circle cx="160.10001" cy="173.7" r="31.89999" style="fill:#fff"/><circle cx="160.10001" cy="362.70001" r="31.89999" style="fill:#fff"/><circle cx="160.10001" cy="457.20001" r="31.89999" style="fill:#fff"/><circle cx="160.10001" cy="551.79999" r="31.90001" style="fill:#fff"/><circle cx="160.10001" cy="835.40002" r="31.90001" style="fill:#fff"/><circle cx="202.8" cy="31.9" r="31.9" style="fill:#fff"/><circle cx="202.8" cy="126.4" r="31.9" style="fill:#fff"/><circle cx="202.8" cy="220.89999" r="31.89999" style="fill:#fff"/><circle cx="202.8" cy="410" r="31.89999" style="fill:#fff"/><circle cx="202.8" cy="504.50001" r="31.90001" style="fill:#fff"/><circle cx="202.8" cy="599" r="31.90001" style="fill:#fff"/><circle cx="245.5" cy="173.7" r="31.89999" style="fill:#fff"/><circle cx="245.5" cy="362.70001" r="31.89999" style="fill:#fff"/><circle cx="245.5" cy="457.20001" r="31.89999" style="fill:#fff"/><circle cx="245.5" cy="551.79999" r="31.90001" style="fill:#fff"/><circle cx="245.5" cy="646.29999" r="31.90001" style="fill:#fff"/><circle cx="245.5" cy="835.40002" r="31.90001" style="fill:#fff"/><circle cx="288.29999" cy="31.9" r="31.9" style="fill:#fff"/><circle cx="288.29999" cy="410" r="31.89999" style="fill:#fff"/><circle cx="288.29999" cy="504.50001" r="31.90001" style="fill:#fff"/><circle cx="288.29999" cy="599" r="31.90001" style="fill:#fff"/><circle cx="288.29999" cy="693.59998" r="31.90001" style="fill:#fff"/><circle cx="288.29999" cy="788.09998" r="31.90001" style="fill:#fff"/><circle cx="331" cy="79.1" r="31.9" style="fill:#fff"/><circle cx="331" cy="268.20001" r="31.89999" style="fill:#fff"/><circle cx="331" cy="362.70001" r="31.89999" style="fill:#fff"/><circle cx="331" cy="457.20001" r="31.89999" style="fill:#fff"/><circle cx="331" cy="551.79999" r="31.90001" style="fill:#fff"/><circle cx="331" cy="646.29999" r="31.90001" style="fill:#fff"/><circle cx="331" cy="740.79999" r="31.90001" style="fill:#fff"/><circle cx="331" cy="835.40002" r="31.90001" style="fill:#fff"/><circle cx="373.70001" cy="31.9" r="31.9" style="fill:#fff"/><circle cx="373.70001" cy="126.4" r="31.9" style="fill:#fff"/><circle cx="373.70001" cy="315.39999" r="31.89999" style="fill:#fff"/><circle cx="373.70001" cy="410" r="31.89999" style="fill:#fff"/><circle cx="373.70001" cy="504.50001" r="31.90001" style="fill:#fff"/><circle cx="373.70001" cy="599" r="31.90001" style="fill:#fff"/><circle cx="373.70001" cy="693.59998" r="31.90001" style="fill:#fff"/><circle cx="416.5" cy="79.1" r="31.9" style="fill:#fff"/><circle cx="416.5" cy="268.20001" r="31.89999" style="fill:#fff"/><circle cx="416.5" cy="362.70001" r="31.89999" style="fill:#fff"/><circle cx="416.5" cy="457.20001" r="31.89999" style="fill:#fff"/><circle cx="416.5" cy="551.79999" r="31.90001" style="fill:#fff"/><circle cx="416.5" cy="646.29999" r="31.90001" style="fill:#fff"/><circle cx="416.5" cy="835.40002" r="31.90001" style="fill:#fff"/><circle cx="459.20001" cy="31.9" r="31.9" style="fill:#fff"/><circle cx="459.20001" cy="599" r="31.90001" style="fill:#fff"/><circle cx="459.20001" cy="693.59998" r="31.90001" style="fill:#fff"/><circle cx="459.20001" cy="788.09998" r="31.90001" style="fill:#fff"/><circle cx="501.89999" cy="173.7" r="31.89999" style="fill:#fff"/><circle cx="501.89999" cy="362.70001" r="31.89999" style="fill:#fff"/><circle cx="501.89999" cy="646.29999" r="31.90001" style="fill:#fff"/><circle cx="501.89999" cy="740.79999" r="31.90001" style="fill:#fff"/><circle cx="501.89999" cy="835.40002" r="31.90001" style="fill:#fff"/><circle cx="544.59998" cy="31.9" r="31.90001" style="fill:#fff"/><circle cx="544.59998" cy="126.4" r="31.90001" style="fill:#fff"/><circle cx="544.59998" cy="220.89999" r="31.90001" style="fill:#fff"/><circle cx="544.59998" cy="693.59998" r="31.90002" style="fill:#fff"/><circle cx="587.40002" cy="173.7" r="31.90001" style="fill:#fff"/><circle cx="587.40002" cy="362.70001" r="31.90001" style="fill:#fff"/><circle cx="587.40002" cy="740.79999" r="31.90002" style="fill:#fff"/><circle cx="630.09998" cy="31.9" r="31.90001" style="fill:#fff"/><circle cx="630.09998" cy="315.39999" r="31.90001" style="fill:#fff"/><circle cx="630.09998" cy="788.09998" r="31.90002" style="fill:#fff"/><circle cx="672.79999" cy="79.1" r="31.90001" style="fill:#fff"/><circle cx="672.79999" cy="268.20001" r="31.90001" style="fill:#fff"/><circle cx="672.79999" cy="835.40002" r="31.90002" style="fill:#fff"/><circle cx="715.59998" cy="31.9" r="31.90001" style="fill:#fff"/><circle cx="715.59998" cy="126.4" r="31.90001" style="fill:#fff"/><circle cx="715.59998" cy="220.89999" r="31.90001" style="fill:#fff"/><circle cx="715.59998" cy="315.39999" r="31.90001" style="fill:#fff"/><circle cx="715.59998" cy="410" r="31.90001" style="fill:#fff"/><circle cx="715.59998" cy="504.50001" r="31.90002" style="fill:#fff"/><circle cx="715.59998" cy="599" r="31.90002" style="fill:#fff"/><circle cx="715.59998" cy="693.59998" r="31.90002" style="fill:#fff"/><circle cx="715.59998" cy="788.09998" r="31.90002" style="fill:#fff"/><circle cx="715.59998" cy="882.59998" r="31.90002" style="fill:#fff"/><path d="M1164.80005,249.5q22.95007,11.25,35.4,28.4c8.3,11.4,13.9,23.5,16.5,36.4a178.16986,178.16986,0,0,1,4,35.1A107.61615,107.61615,0,0,1,1214.9,385.5a91.45939,91.45939,0,0,1-16.8,29.3,90.32088,90.32088,0,0,1-26.30005,21.1,96.66718,96.66718,0,0,1-33.6,10.7c29.69995,2,52.80005,12.8,69,32.4,16.30005,19.6,24.4,45.2,24.4,77a132.97289,132.97289,0,0,1-7,41.6,106.04351,106.04351,0,0,1-22.9,38.8q-15.9,17.4-40.9,28.4Q1135.75,675.75,1099.1,675.8h-215V635.5h61.7v-357H884.7V238.2H1104.7C1129.5,238.2,1149.6,242,1164.80005,249.5ZM1120.5,424.2c11.80005-5.1,21.19995-11.6,28.1-19.6A67.18517,67.18517,0,0,0,1163,378a111.50594,111.50594,0,0,0,4-28.7,110.02542,110.02542,0,0,0-3.1-26.3,49.92577,49.92577,0,0,0-11.9-22.6c-5.9-6.5-14-11.8-24.1-15.9-10.19995-4.1-23.4-6.1-39.69995-6.1h-89.2V431.8H1076C1093.80005,431.9,1108.7,429.3,1120.5,424.2Zm8.6,201.7c12.6-6.3,22.5-13.8,29.6-22.6s11.9-17.6,14.4-26.6c2.4-9,3.69995-16.3,3.69995-22a128.64686,128.64686,0,0,0-4-33,66.46518,66.46518,0,0,0-13.1-26.3c-6.1-7.3-14.19995-13.1-24.1-17.4-10-4.3-22.30005-6.4-37-6.4H999v163.8H1079.7C1100,635.4,1116.5,632.2,1129.1,625.9Z" transform="translate(0 0)" style="fill:#fff"/><path d="M1572.4,249.5q22.95008,11.25,35.4,28.4c8.30005,11.4,13.9,23.5,16.5,36.4a178.17062,178.17062,0,0,1,4,35.1A107.6164,107.6164,0,0,1,1622.5,385.5,91.45923,91.45923,0,0,1,1605.7,414.8a90.32075,90.32075,0,0,1-26.30005,21.1,96.66712,96.66712,0,0,1-33.6,10.7c29.7,2,52.80005,12.8,69,32.4,16.30005,19.6,24.4,45.2,24.4,77a132.97289,132.97289,0,0,1-7,41.6,106.04348,106.04348,0,0,1-22.9,38.8q-15.9,17.4-40.9,28.4Q1543.35,675.75,1506.7,675.8H1291.6V635.5h61.69995v-357h-61.1V238.2h220Q1549.4,238.2,1572.4,249.5Zm-44.3,174.7c11.8-5.1,21.19995-11.6,28.1-19.6a67.18519,67.18519,0,0,0,14.4-26.6,111.50638,111.50638,0,0,0,4-28.7,110.02542,110.02542,0,0,0-3.1-26.3,49.92577,49.92577,0,0,0-11.9-22.6c-5.9-6.5-14-11.8-24.1-15.9-10.19995-4.1-23.4-6.1-39.69995-6.1H1406.6001V431.8h77C1501.4,431.9,1516.30005,429.3,1528.1,424.2Zm8.5,201.7c12.6-6.3,22.5-13.8,29.6-22.6s11.9-17.6,14.4-26.6c2.4-9,3.69995-16.3,3.69995-22a128.64686,128.64686,0,0,0-4-33,66.46518,66.46518,0,0,0-13.1-26.3c-6.1-7.3-14.19995-13.1-24.1-17.4-10-4.3-22.30005-6.4-37-6.4h-99.6v163.8H1487.2C1507.5,635.4,1524,632.2,1536.6,625.9Z" transform="translate(0 0)" style="fill:#fff"/><path d="M2084.7,238.2V393.4H2037c-2-35.4-12.80005-64.2-32.4-86.2s-47.9-33-84.9-33q-70.20007,0-106.6,46.4Q1776.8,367.1,1776.7,452q0,90.45,35.4,138.7,35.4,48.3,103.9,48.3,51.9,0,81.6-30.2c19.8-20.2,30.69995-46.9,32.69995-80.4H2086.5q-1.79993,37.2-14.7,66a143.80074,143.80074,0,0,1-35.1,48.6q-22.35,19.8-53.2,29.9-30.9,10.05-68.1,10.1c-37.1,0-68.19995-6.5-93.5-19.6-25.3-13-45.6-30.2-61.1-51.6a207.5602,207.5602,0,0,1-33.30005-72.4,340.104,340.104,0,0,1-10.1-82.5,312.96378,312.96378,0,0,1,11.6-85.5c7.7-27.3,19.6-51.3,35.4-72.1q23.85-31.2,60.80005-49.5c24.6-12.2,54.1-18.3,88.3-18.3q47.70007,0,80,18.3,32.4,18.3,47.1,51.9V238.2H2084.7Z" transform="translate(0 0)" style="fill:#fff"/><path d="M2506.30005,612.1l116.7-374h154v40.3h-62.3v356.8H2777v40.3H2607.1001v-40.3h56.19995V278.5H2659L2529,675.7h-47.7L2351.1001,278.5h-4.30005V635.3h56.80005v40.3h-166.2V635.3h62.8999V278.5h-62.8999V238.2H2393.2002Z" transform="translate(0 0)" style="fill:#fff"/><path d="M2917.6001,637.2h49.5v38.5H2816.80005V637.2h51.30005V392.8h-50.7V356.7h100.2ZM2921.2,289.5H2864.3999V238.2H2921.2Z" transform="translate(0 0)" style="fill:#fff"/><path d="M3265.2,356.7V474h-38.5v-5.5a86.32782,86.32782,0,0,0-6.3999-29.6,90.07977,90.07977,0,0,0-16.19995-26,80.77276,80.77276,0,0,0-24.3999-18.6,69.76409,69.76409,0,0,0-31.2-7c-17.10009,0-31.69995,3.8-43.69995,11.3a92.21727,92.21727,0,0,0-29.30005,29,129.4716,129.4716,0,0,0-16.5,40.3,199.09432,199.09432,0,0,0-5.19995,45.2,181.41283,181.41283,0,0,0,5.8,45.8,138.77988,138.77988,0,0,0,17.3999,40.6,95.25232,95.25232,0,0,0,29.30005,29.3c11.8,7.5,25.69995,11.3,41.6001,11.3q26.84985,0,46.7-17.1,19.79993-17.1,26.6001-48.3l1.19995-7.3h46.3999l-.60009,11a116.43856,116.43856,0,0,1-13.7,42.8,104.11236,104.11236,0,0,1-27.5,31.8,126.6105,126.6105,0,0,1-38.5,19.9,146.3,146.3,0,0,1-45.5,7q-34.20006,0-60.8-12.5a130.81641,130.81641,0,0,1-44.89991-34.5,157.43054,157.43054,0,0,1-28.10009-51.3,196.36306,196.36306,0,0,1-9.80005-62.3q0-42.75,11.30005-75.2,11.25-32.4,29.8999-53.8A122.77339,122.77339,0,0,1,3084,357.9a126.2478,126.2478,0,0,1,51.6001-11q31.20007,0,53.19995,11.6c14.7,7.7,27.30005,20.4,37.8999,37.9V356.7h38.5Z" transform="translate(0 0)" style="fill:#fff"/><path d="M3500.2,395.2a88.12666,88.12666,0,0,0-10.1001-.6q-88.65013,0-88.60009,117.9V637.2h60.5v38.5h-160.7V637.2h50.7V392.8h-50.7V356.7h100.2v63.5c4.8999-13.8,10-25.2,15.3-33.9a70.71761,70.71761,0,0,1,18.30005-20.8,62.96467,62.96467,0,0,1,23.5-10.7,167.24152,167.24152,0,0,1,31.5-3.7h20.8v45.8C3507.2,396.2,3503.6001,395.6,3500.2,395.2Z" transform="translate(0 0)" style="fill:#fff"/><path d="M3798.7,634.7q-40.34985,45.15-106.8999,45.2-74.54992,0-112.3999-50.7-36.59987-50.1-36.69995-117.3,0-38.55,11-69,10.95006-30.6,30.8999-51.9a130.325,130.325,0,0,1,47.69995-32.7q27.75-11.25,62-11.3,35.40015,0,62.6001,12.5a126.31342,126.31342,0,0,1,45.5,35.1q18.29993,22.65,27.5,53.2,9.15013,30.6,9.2,66.6Q3838.95,588.95,3798.7,634.7Zm-73.7,0c11.2-5.3,21.5-13.2,30.8999-23.8,9.80005-10.6,17.1001-24.4,22-41.6q7.34985-25.65,7.30005-58.7,0-60.45-24.3999-93.2-24.45007-32.7-70.3-32.7c-14.7,0-27.8999,3-39.7,8.9a83.99143,83.99143,0,0,0-29.8999,25.1c-8.1001,10.8-14.5,23.8-18.89991,39.1-4.5,15.3-6.69995,32.1-6.69995,50.4,0,27.7,2.8,49.4,8.19995,65.1q8.25,23.55,22.30005,38.8,28.04992,30.6,65.39991,30.6A78.55208,78.55208,0,0,0,3725,634.7Z" transform="translate(0 0)" style="fill:#fff"/></svg>