<svg id="Layer_1" data-name="Layer 1" xmlns="http://www.w3.org/2000/svg" viewBox="0 0 3839.10246 1287.3012">
  <g>
    <g>
      <g>
        <g>
          <polygon points="74.3 629.3 74.3 629.3 74.3 1279.4 0 1279.4 0 629.3 74.3 629.3" style="fill: #002684;fill-rule: evenodd"/>
          <polygon points="239.2 629.3 239.2 629.3 239.2 1279.4 164.9 1279.4 164.9 629.3 239.2 629.3" style="fill: #12506f;fill-rule: evenodd"/>
          <polygon points="404 629.3 404 629.3 404 1279.4 329.7 1279.4 329.7 629.3 404 629.3" style="fill: #24795b;fill-rule: evenodd"/>
          <polygon points="568.9 629.3 568.9 629.3 568.9 1279.4 494.6 1279.4 494.6 629.3 568.9 629.3" style="fill: #36a346;fill-rule: evenodd"/>
          <polygon points="733.8 629.3 733.8 629.3 733.8 1279.4 659.4 1279.4 659.4 629.3 733.8 629.3" style="fill: #48cc31;fill-rule: evenodd"/>
        </g>
        <polygon points="898.6 629.3 898.6 629.3 898.6 1279.4 824.3 1279.4 824.3 629.3 898.6 629.3" style="fill: #6ad434;fill-rule: evenodd"/>
        <polygon points="1063.5 629.3 1063.5 629.3 1063.5 1279.4 989.2 1279.4 989.2 629.3 1063.5 629.3" style="fill: #8bdc37;fill-rule: evenodd"/>
        <polygon points="1228.3 629.3 1228.3 629.3 1228.3 1279.4 1154 1279.4 1154 629.3 1228.3 629.3" style="fill: #aee53a;fill-rule: evenodd"/>
        <polygon points="1393.2 629.3 1393.2 629.3 1393.2 1279.4 1318.9 1279.4 1318.9 629.3 1393.2 629.3" style="fill: #d0ed3d;fill-rule: evenodd"/>
      </g>
      <g>
        <polygon points="1558.1 629.3 1558.1 629.3 1558.1 1279.4 1483.7 1279.4 1483.7 629.3 1558.1 629.3" style="fill: #f2f540;fill-rule: evenodd"/>
        <polygon points="1722.9 629.3 1722.9 629.3 1722.9 1279.4 1648.6 1279.4 1648.6 629.3 1722.9 629.3" style="fill: #f5d630;fill-rule: evenodd"/>
        <polygon points="1887.8 629.3 1887.8 629.3 1887.8 1279.4 1813.5 1279.4 1813.5 629.3 1887.8 629.3" style="fill: #f8b621;fill-rule: evenodd"/>
        <polygon points="2052.6 629.3 2052.6 629.3 2052.6 1279.4 1978.3 1279.4 1978.3 629.3 2052.6 629.3" style="fill: #fa9711;fill-rule: evenodd"/>
      </g>
      <g>
        <polygon points="2217.5 629.3 2217.5 629.3 2217.5 1279.4 2143.2 1279.4 2143.2 629.3 2217.5 629.3" style="fill: #fd7801;fill-rule: evenodd"/>
        <polygon points="2382.4 629.3 2382.4 629.3 2382.4 1279.4 2308 1279.4 2308 629.3 2382.4 629.3" style="fill: #f9500e;fill-rule: evenodd"/>
        <polygon points="2547.2 629.3 2547.2 629.3 2547.2 1279.4 2472.9 1279.4 2472.9 629.3 2547.2 629.3" style="fill: #f6281c;fill-rule: evenodd"/>
        <polygon points="2712.1 629.3 2712.1 629.3 2712.1 1279.4 2637.7 1279.4 2637.7 629.3 2712.1 629.3" style="fill: #f20029;fill-rule: evenodd"/>
      </g>
    </g>
    <g>
      <path d="M881.5,265.1c-3.6-33.6-39.8-32.7-65.3-32.7-13.9,0-42.9.5-54.1,10.1-10.7,9.2-10.7,33.2-10.7,46.1,0,12.4.4,29,9.8,38.3,11.2,11.1,42,12,56.3,12,9.8,0,19.2,0,29.1-1.4,19.7-2.8,31.3-8.8,34.4-30.4h80.5c-.9,24.4-2.2,47.9-19.7,66.4-18.3,19.8-46.5,24-72,25.4-19.2.9-38,1.4-57.2,1.4-34.4,0-83.6.9-113.1-20.3-28.6-20.7-27.3-64.1-27.3-95.9,0-31.3-.4-68.7,25-90.8,27.7-24,85.4-22.1,119.4-22.1s93-1.4,121.1,22.1a55.3296,55.3296,0,0,1,16.5,22.6c6.7,16.1,7.2,31.8,7.6,49.3l-80.3-.1Z" transform="translate(0 0)" style="fill: #fff"/>
      <path d="M1284.6,324.1c-1.80005,21.2-7.2,40.1-23.2,54.4-27.3,24.4-91.6,21.7-125.19995,21.7-34.9,0-96.6,3.2-125.2-21.7-8-6.9-13-14.3-17-24-8.9-22.6-7.6-51.2-7.6-75.1,0-12,0-24.4,1.3-36.4,1.8-20.7,9.4-39.2,25.9-52.1,26.8-21.2,90.7-19.8,122.5-19.8,32.19995,0,95.19995-1.4,122.5,19.8a58.97159,58.97159,0,0,1,17,20.7c11.6,21.2,10.3,48.4,10.3,71.9C1285.9,296.9,1285.5,310.7,1284.6,324.1ZM1197,244.4c-11.6-11.5-45.6-12-60.30005-12-14.30005,0-29.1.5-42.9,3.2C1066.1,241.1,1065.6,263.3,1065.6,288.1c0,12-.4,28.1,8,37.3,12.1,13.4,46.9,13.4,63,13.4,15.19995,0,31.3,0,46-4.1,24.6-6.9,24.1-30,24.1-52.5C1206.80005,269.7,1206.4,253.6,1197,244.4Z" transform="translate(0 0)" style="fill: #fff"/>
      <path d="M1699.80005,394.6V292.7c0-47-4.9-60.4-53.6-60.4-54.5,0-58.6,22.1-58.6,72.4v89.9h-79.1V277.5c0-39.6-16.5-45.2-52.3-45.2-56.30005,0-59.9,20.7-59.9,72.4v89.9h-79.1V176.7H1391.9v32.7h3.6c14.80005-33.6,54.1-38.3,85.80005-38.3,40.19995,0,75.5,6.9,96.1,45.6,16.1-40.6,53.6-45.6,91.6-45.6,30.80005,0,65.30005,3.7,87.6,28.1,7.6,8.3,13.4,17.1,16.5,28.1,6.3,21.2,5.8,43.8,5.8,65.4V394.6h-79.1Z" transform="translate(0 0)" style="fill: #fff"/>
      <path d="M2195.30005,394.6V292.7c0-47-4.8999-60.4-53.6001-60.4-54.5,0-58.6001,22.1-58.6001,72.4v89.9h-79.1V277.5c0-39.6-16.5-45.2-52.30005-45.2-56.30005,0-59.9,20.7-59.9,72.4v89.9h-79.1V176.7h74.69995v32.7h3.6c14.8-33.6,54.1-38.3,85.8-38.3,40.2,0,75.5,6.9,96.1001,45.6C2089,176.1,2126.5,171.1,2164.5,171.1c30.8,0,65.3,3.7,87.6001,28.1,7.6001,8.3,13.3999,17.1,16.5,28.1,6.3,21.2,5.8,43.8,5.8,65.4V394.6h-79.1001Z" transform="translate(0 0)" style="fill: #fff"/>
      <path d="M2602,324.1c-1.8,21.2-7.2,40.1-23.2,54.4-27.3,24.4-91.6001,21.7-125.19995,21.7-34.8999,0-96.6001,3.2-125.2-21.7-8-6.9-13-14.3-17-24-8.89991-22.6-7.6001-51.2-7.6001-75.1,0-12,0-24.4,1.30005-36.4,1.8-20.7,9.3999-39.2,25.8999-52.1,26.8-21.2,90.7-19.8,122.5-19.8,32.2,0,95.2-1.4,122.5,19.8a58.97019,58.97019,0,0,1,17,20.7c11.6001,21.2,10.3,48.4,10.3,71.9C2603.30005,296.9,2602.8999,310.7,2602,324.1Zm-87.6001-79.7c-11.6001-11.5-45.6001-12-60.3-12-14.30005,0-29.10009.5-42.8999,3.2-27.7,5.5-28.2,27.7-28.2,52.5,0,12-.3999,28.1,8,37.3,12.1001,13.4,46.8999,13.4,63,13.4,15.2,0,31.3,0,46-4.1,24.6001-6.9,24.1001-30,24.1001-52.5C2524.2,269.7,2523.7,253.6,2514.3999,244.4Z" transform="translate(0 0)" style="fill: #fff"/>
      <path d="M2853.2,394.6V366h-4c-5.3999,9.2-9.3999,15.2-18.30005,20.7C2811.2,399.1,2778.2,400.1,2755.7998,400.1c-32.60009,0-76.8999.5-102.8-23-23.2-21.2-22.80005-63.1-22.80005-92.6,0-34.1.8999-75.6,31.30005-96.8,26.8-18.4,64.3999-16.6,95.19995-16.6,23.2,0,48.7-.5,69.30005,12,10.3,6,13.8999,12,19.69995,22.6h3.10009V87.3h79.1001V394.6H2853.2Zm-8-142c-9.3999-22.1-43.3999-20.3-62.6001-20.3-19.7,0-59.5-2.3-69.30005,20.7-3.60009,9.2-4,21.2-4,30.9,0,12.9-.3999,32.7,8.89991,42.9,10.7,12,45.2,12,59.5,12,16.10009,0,35.80005-.9,51-6,21.5-6.9,21-28.1,21-47.9C2849.6001,274.8,2849.2,262.3,2845.2,252.6Z" transform="translate(0 0)" style="fill: #fff"/>
      <path d="M3257.2,324.1c-1.80005,21.2-7.2,40.1-23.2,54.4-27.3,24.4-91.6001,21.7-125.2,21.7-34.8999,0-96.6001,3.2-125.19995-21.7-8-6.9-13-14.3-17-24-8.8999-22.6-7.6001-51.2-7.6001-75.1,0-12,0-24.4,1.3-36.4,1.80005-20.7,9.3999-39.2,25.8999-52.1,26.8-21.2,90.69995-19.8,122.5-19.8,32.19995,0,95.19995-1.4,122.5,19.8a58.97019,58.97019,0,0,1,17,20.7c11.6001,21.2,10.3,48.4,10.3,71.9C3258.5,296.9,3258.1001,310.7,3257.2,324.1Zm-87.59985-79.7c-11.6001-11.5-45.6001-12-60.30005-12-14.3,0-29.1001.5-42.8999,3.2-27.69995,5.5-28.19995,27.7-28.19995,52.5,0,12-.39991,28.1,8,37.3,12.10009,13.4,46.8999,13.4,63,13.4,15.19995,0,31.3,0,46-4.1,24.60009-6.9,24.10009-30,24.10009-52.5C3179.3999,269.7,3179,253.6,3169.6001,244.4Z" transform="translate(0 0)" style="fill: #fff"/>
      <path d="M3534.7,273.4h-74.2c0-32.3-10.3-41-41.6001-41-48.69995,0-50.1001,31.8-50.1001,71.9v90.3h-79.10009V176.7h74.7v32.7h3.6001c18.3-33.6,47.8-38.3,82.3-38.3,24.6001,0,54.1001,3.2,70.6001,24.4C3535.7,214.4,3535.2,241.6,3535.2,264.6,3535.1001,267.4,3534.7,270.6,3534.7,273.4Z" transform="translate(0 0)" style="fill: #fff"/>
      <path d="M3838.6001,303.3h-206.5c0,12.4-.3999,26.7,9.8,35.5,10.7,8.8,40.7,9.2,53.60009,9.2,13,0,49.2.5,57.7-9.2,3.60009-3.7,4.5-8.8,5.3999-13.8h78.69995c-1.8,20.7-5.8,36.9-21,51.2-27.3,25.3-92.5,24-127,24-31.3,0-83.6001.5-109.5-20.3a64.88111,64.88111,0,0,1-17.8999-23c-9.8-21.2-8.89991-47.5-8.89991-70.1,0-13.8,0-27.7,1.30005-41,2.19995-22.1,9.39991-41.9,27.3-55.3,27.7-20.7,83.1001-19.4,115.8-19.4,30,0,62.6001-.9,91.6001,7.8,46.8999,14.3,50.1001,58.5,50.1001,102.3C3839,288.6,3839,296,3838.6001,303.3Zm-79.2002-49.7c0-8.3-.3999-14.7-6.3-21.2-9.3999-10.6-41.60009-10.6-54.5-10.6-12.10009,0-24.10009,0-35.80005,1.8-22.3999,3.2-30.3999,12-30.8,35h127.3999l.00024-5Z" transform="translate(0 0)" style="fill: #fff"/>
    </g>
    <g>
      <path d="M129.6,284.3c0-83.1,65.6-150.8,146.2-150.8a141.911,141.911,0,0,1,71.3,19.2V9.7A267.511,267.511,0,0,0,275.7,0C123.5,0,0,127.3,0,284.3S123.5,568.6,275.7,568.6a266.21831,266.21831,0,0,0,71.3-9.7v-143a141.91087,141.91087,0,0,1-71.3,19.2C195.1,435.1,129.6,367.4,129.6,284.3Z" transform="translate(0 0)" style="fill: #fff"/>
      <polygon points="347 273.9 477.1 273.9 587.3 160.3 347 160.3 347 273.9" style="fill: #fff"/>
      <polygon points="347 294.7 347 408.4 587.3 408.4 477.1 294.7 347 294.7" style="fill: #fff"/>
    </g>
    <g>
      <path d="M2828.8999,1279.4V629.7h201.2v649.8h-201.2Z" transform="translate(0 0)" style="fill: #fff"/>
      <path d="M3659.30005,811.8c0-9.8-.8999-23.4-9.5-30.2-8.5-6.8-21.8-7.8-31.19995-8.8C3569.5,768,3518.5,768,3468.30005,768c-46.3,0-96.3999,0-141.69995,8.8-10.3999,1.9-19.80005,4.8-28.30005,11.7-21.8,17.5-19.8,66.3-19.8,91.5v36c11.3999-11.7,22.7-21.5,36.8999-29.2,52.8999-31.2,158.7-28.3,218.2-28.3,64.3,0,142.6001,1,204,21.5,22.69995,7.8,41.6001,18.5,58.6001,36.1,37.8,38,38.8,111.1,38.8,161.69995,0,92.6-15.1001,175.30005-115.2,195.80005-38.8,7.8-78.5,10.69995-117.1001,11.69995-56.7,1-112.3999,1.9-169.1001,1.9-79.3999,0-227.7,4.80005-288.10009-51.69995-43.5-40-46.30005-117.80005-48.1001-173.4-.8999-42.9-1.8999-86.7-1.8999-129.5,0-77.9-8.5-204.5,53.8999-260.1,59.5-53.6,262.6001-50.7,337.3-50.7,41.60009,0,83.10009,0,124.7,1.9,57.6001,1.9,154.8999,4.8,198.3999,50.7,30.2,32.1,29.30005,95.5,29.30005,137.4h-179.7V811.8Zm-54.8,198.7c-51.1001-7.8-105.8-5.8-157.8-5.8-37.80005,0-76.5-1.9-114.30005,3.9-36.8999,5.8-51.1001,29.2-51.1001,66.3,0,16.5,3.80005,38,15.1001,50.7,18.8999,20.4,125.7,15.6,150.30005,15.6,33,0,65.19995-1,98.3-1.9,23.7-1,71.8,1.9,90.7-16.5,11.3999-11.69995,13.19995-33.1,13.19995-48.69995C3649,1037.80005,3641.3999,1016.4,3604.5,1010.5Z" transform="translate(0 0)" style="fill: #fff"/>
    </g>
  </g>
</svg>
