<svg id="Layer_1" data-name="Layer 1" xmlns="http://www.w3.org/2000/svg" viewBox="0 0 3839 811.80526"><polygon id="polygon7" points="864.9 368.8 864.9 368.8 1511.6 368.8 1511.6 414 864.9 414 864.9 368.8" style="fill:#f20029;fill-rule:evenodd"/><polygon points="864.9 467.4 864.9 467.4 1511.6 467.4 1511.6 512.6 864.9 512.6 864.9 467.4" style="fill:#fd7801;fill-rule:evenodd"/><polygon points="864.9 565.8 864.9 565.8 1511.6 565.8 1511.6 611 864.9 611 864.9 565.8" style="fill:#f2f540;fill-rule:evenodd"/><polygon points="864.9 664.3 864.9 664.3 1511.6 664.3 1511.6 709.5 864.9 709.5 864.9 664.3" style="fill:#48cc31;fill-rule:evenodd"/><polygon id="polygon15" points="864.9 762.8 864.9 762.8 1511.6 762.8 1511.6 808 864.9 808 864.9 762.8" style="fill:#14a3fd;fill-rule:evenodd"/><path d="M1055.7,157.4c-3.30005-29.8-36.3-29-59.6-29-12.6,0-39.2.4-49.4,9-9.8,8.2-9.8,29.4-9.8,40.8,0,11,.4,25.7,9,33.9,10.2,9.8,38.3,10.6,51.4,10.6,9,0,17.5,0,26.5-1.2,17.9-2.4,28.6-7.7,31.4-26.9h73.4c-.80005,21.6-2,42.4-17.9,58.7C1094,270.8,1068.29993,274.5,1045,275.7c-17.5.8-34.7,1.2-52.2,1.2-31.4,0-76.3.8-103.2-17.9-26.1-18.4-24.9-56.7-24.9-84.8,0-27.7-.4-60.8,22.8-80.4,25.3-21.2,77.9-19.6,108.9-19.6,30.99994,0,84.8-1.2,110.49994,19.6a49.46811,49.46811,0,0,1,15.1,20c6.1,14.3,6.5,28.1,6.9,43.6l-73.19995,0Z" transform="translate(0 0)" style="fill:#fff"/><path d="M1434.1,209.6c-1.6,18.8-6.5,35.5-21.2,48.1-24.9,21.6-83.6,19.2-114.19995,19.2-31.80005,0-88.1,2.9-114.2-19.2a53.28853,53.28853,0,0,1-15.5-21.2c-8.19995-20-6.9-45.3-6.9-66.5,0-10.6,0-21.6,1.19995-32.2,1.6-18.4,8.6-34.7,23.69995-46.1,24.5-18.8,82.80005-17.5,111.80005-17.5,29.4,0,86.9-1.2,111.80005,17.5a52.1234,52.1234,0,0,1,15.5,18.4c10.6,18.8,9.4,42.8,9.4,63.6C1435.30005,185.5,1434.9,197.7,1434.1,209.6Zm-79.9-70.5c-10.6-10.2-41.6-10.6-55.1-10.6-13.1,0-26.5.4-39.2,2.9-25.3,4.9-25.69995,24.5-25.69995,46.5,0,10.6-.4,24.9,7.3,33,11,11.8,42.80005,11.8,57.5,11.8,13.9,0,28.6,0,42-3.7,22.4-6.1,22-26.5,22-46.5C1363.1,161.5,1362.7,147.2,1354.2,139.1Z" transform="translate(0 0)" style="fill:#fff"/><path d="M1823.5,272V181.9c0-41.6-4.5-53.4-48.9-53.4-49.80005,0-53.4,19.6-53.4,64V272H1649V168.4c0-35.1-15.1-40-47.69995-40-51.4,0-54.69995,18.4-54.69995,64v79.5h-72.2V79.1h68.1v29h3.30005c13.5-29.8,49.4-33.9,78.30005-33.9,36.69995,0,68.9,6.1,87.69995,40.4,14.69995-35.9,48.9-40.4,83.6-40.4,28.1,0,59.6,3.3,79.9,24.9,6.9,7.3,12.19995,15.1,15.1,24.9,5.7,18.8,5.30005,38.7,5.30005,57.9V272Z" transform="translate(0 0)" style="fill:#fff"/><path d="M2286.2,272V181.9c0-41.6-4.5-53.4-48.8999-53.4-49.8,0-53.3999,19.6-53.3999,64V272H2111.7002V168.4c0-35.1-15.1001-40-47.7-40-51.4,0-54.69995,18.4-54.69995,64v79.5h-72.19995V79.1h68.1v29h3.30005c13.5-29.8,49.4-33.9,78.29992-33.9,36.69995,0,68.89991,6.1,87.69995,40.4,14.7-35.9,48.89991-40.4,83.6001-40.4,28.1001,0,59.6001,3.3,79.8999,24.9,6.89991,7.3,12.2,15.1,15.1001,24.9,5.7,18.8,5.3,38.7,5.3,57.9V272Z" transform="translate(0 0)" style="fill:#fff"/><path d="M2667.8999,209.6c-1.6001,18.8-6.5,35.5-21.19995,48.1-24.8999,21.6-83.6001,19.2-114.2,19.2-31.8,0-88.1001,2.9-114.2-19.2a53.28853,53.28853,0,0,1-15.5-21.2c-8.19995-20-6.8999-45.3-6.8999-66.5,0-10.6,0-21.6,1.2-32.2,1.6001-18.4,8.6001-34.7,23.69995-46.1,24.5-18.8,82.80005-17.5,111.80005-17.5,29.3999,0,86.8999-1.2,111.8,17.5a52.12588,52.12588,0,0,1,15.5,18.4c10.60009,18.8,9.3999,42.8,9.3999,63.6C2669.1001,185.5,2668.7,197.7,2667.8999,209.6ZM2588,139.1c-10.6001-10.2-41.6001-10.6-55.1001-10.6-13.1001,0-26.5.4-39.19995,2.9-25.30005,4.9-25.7,24.5-25.7,46.5,0,10.6-.3999,24.9,7.3,33,11,11.8,42.80005,11.8,57.5,11.8,13.8999,0,28.6001,0,42-3.7,22.3999-6.1,22-26.5,22-46.5C2597,161.5,2596.6001,147.2,2588,139.1Z" transform="translate(0 0)" style="fill:#fff"/><path d="M2907.7,272V246.7H2904c-4.8999,8.2-8.6001,13.5-16.7,18.4-17.8999,11-48.1001,11.8-68.5,11.8-29.8,0-70.19995.4-93.8-20.4-21.2-18.8-20.8-55.9-20.8-82,0-30.2.8-66.9,28.6001-85.7,24.5-16.3,58.7-14.7,86.8999-14.7,21.19995,0,44.5-.4,63.19995,10.6,9.3999,5.3,12.6001,10.6,17.8999,20h2.89991V0h72.2V272Zm-7.3999-125.6C2891.7,126.8,2860.7,128.5,2843.2,128.5c-17.8999,0-54.2-2-63.2,18.4-3.3,8.2-3.7,18.8-3.7,27.3,0,11.4-.3999,29,8.2,37.9,9.8,10.6,41.2,10.6,54.2,10.6,14.69995,0,32.6001-.8,46.5-5.3,19.6001-6.1,19.19995-24.9,19.19995-42.4C2904.3999,166,2904,155,2900.30005,146.4Z" transform="translate(0 0)" style="fill:#fff"/><path d="M3286.8999,209.6c-1.6001,18.8-6.5,35.5-21.19995,48.1-24.8999,21.6-83.6001,19.2-114.2,19.2-31.8,0-88.1001,2.9-114.2-19.2a53.28853,53.28853,0,0,1-15.5-21.2c-8.19995-20-6.8999-45.3-6.8999-66.5,0-10.6,0-21.6,1.2-32.2,1.6001-18.4,8.6001-34.7,23.69995-46.1,24.5-18.8,82.80005-17.5,111.80005-17.5,29.3999,0,86.8999-1.2,111.8,17.5a52.12588,52.12588,0,0,1,15.5,18.4c10.60009,18.8,9.3999,42.8,9.3999,63.6C3288.1001,185.5,3287.7,197.7,3286.8999,209.6Zm-80-70.5c-10.6001-10.2-41.6001-10.6-55.1001-10.6-13.10009,0-26.5.4-39.19995,2.9-25.30005,4.9-25.7,24.5-25.7,46.5,0,10.6-.3999,24.9,7.30005,33,11,11.8,42.8,11.8,57.5,11.8,13.8999,0,28.6001,0,42-3.7,22.3999-6.1,22-26.5,22-46.5C3215.8999,161.5,3215.5,147.2,3206.8999,139.1Z" transform="translate(0 0)" style="fill:#fff"/><path d="M3550.7,164.8H3483c0-28.6-9.3999-36.3-37.8999-36.3-44.5,0-45.7,28.1-45.7,63.6V272H3327.2002V79.1h68.10009v29h3.3c16.7-29.8,43.6001-33.9,75.1001-33.9,22.3999,0,49.3999,2.9,64.3999,21.6,13.5,16.7,13.1001,40.8,13.1001,61.2C3551.1001,159.5,3550.7,162.3,3550.7,164.8Z" transform="translate(0 0)" style="fill:#fff"/><path d="M3838.5,191.2H3650.2c0,11-.3999,23.7,9,31.4,9.8,7.8,37.1001,8.2,48.8999,8.2s44.89991.4,52.6001-8.2c3.3-3.3,4.1001-7.7,4.8999-12.2h71.8c-1.6001,18.4-5.3,32.6-19.19995,45.3-24.8999,22.4-84.3999,21.2-115.80005,21.2-28.6001,0-76.3.4-99.8999-17.9a56.73558,56.73558,0,0,1-16.3-20.4c-9-18.8-8.2-42-8.2-62,0-12.2,0-24.5,1.2-36.3,2-19.6,8.6001-37.1,24.8999-48.9,25.3-18.4,75.89991-17.1,105.6001-17.1,27.3,0,57.1001-.8,83.6001,6.9,42.80005,12.6,45.7,51.8,45.7,90.6C3838.8999,178.1,3838.8999,184.7,3838.5,191.2Zm-72.2-44c0-7.3-.3999-13.1-5.69995-18.8-8.6001-9.4-37.8999-9.4-49.80005-9.4-11,0-22,0-32.6001,1.6-20.3999,2.9-27.7,10.6-28.1001,31H3766.2998l.00025-4.4Z" transform="translate(0 0)" style="fill:#fff"/><path d="M172.4,441.2c0-107.3,87.3-194.5,194.5-194.5a193.11217,193.11217,0,0,1,94.9,24.8V86.7a366.96977,366.96977,0,0,0-94.9-12.5C164.3,74.2,0,238.4,0,441.1S164.3,808,366.9,808a366.97063,366.97063,0,0,0,94.9-12.5V610.8a193.11225,193.11225,0,0,1-94.9,24.8C259.6,635.6,172.4,548.3,172.4,441.2Z" transform="translate(0 0)" style="fill:#fff"/><polygon points="461.8 427.8 634.7 427.8 781.5 281 461.8 281 461.8 427.8" style="fill:#fff"/><polygon points="461.8 454.5 461.8 601.2 781.5 601.2 634.7 454.5 461.8 454.5" style="fill:#fff"/><path d="M1942.30005,805.3H1781.4l-170.69995-430h115.4L1851.9,697h20.2l124.19995-321.7H2111Z" transform="translate(0 0)" style="fill:#fff"/><path d="M2157.5,805.3V375.4h110.2v430l-110.2-.1Z" transform="translate(0 0)" style="fill:#fff"/><path d="M2559.8999,811.8c-45.5,0-92.6001.6-137.1001-11-35.69995-9.7-58.5-32.2-65.69995-78-6.7-41.9-5.2-87.1-5.2-129.6,0-25.8,0-51.6,1-76.7,1-39.3,1.6001-81.9,25.8999-110.3a74.47121,74.47121,0,0,1,29-20.6c45.5-18.7,143.30005-16.8,191.30005-16.8,39.3,0,79.69995-1.3,118.5,7.7,15.5,3.9,29.5,10.3,41.89991,22.6,27.3999,26.4,27.3999,77.4,27.3999,116.1,0,4.5-.5,9.7-.5,14.2h-105c-.5-11.6-.5-32.9-7.8-40.6-4.7-5.2-12.8999-7.1-19.1001-7.7-27.8999-4.5-57.3999-4.5-85.3999-4.5-15,0-29.5,0-44.5.6-15.5.6-37.80005.6-50.7,12.9-18.1001,17.4-16.6001,77.4-16.6001,102.5,0,23.2-2.1001,81.9,15.5,98a43.22972,43.22972,0,0,0,22.2,10.3c22.19995,3.9,46.6001,3.2,69.3,3.2h53.30005c19.1001,0,56.3999,3.9,65.19995-23.9,3.6001-11.6,4.1001-28.4,4.1001-40.6h105c.5,10.3,1,21.3,1,31.6,0,36.8-.5,80.6-24.3,107-32.1001,36.1-123.6001,33.5-164.5,33.5l-44.19971.1Z" transform="translate(0 0)" style="fill:#fff"/><path d="M2924,805.3c0-16.8-1-34.2-1-50.9,0-34.8-.5-69.6,4.1001-103.8,9.3-71.6,59-80.6,108.6001-85.8l130.3999-12.9c16.6001-1.9,34.69995-1.9,50.69995-9,15-6.4,15-17.4,15-35.5,0-12.2,0-25.8-8.8-33.5-12.8999-12.3-68.8-9-83.8-9-31.6001,0-65.7-1.9-97.30005,4.5-23.8,4.5-21.19995,25.8-21.19995,51.6v14.2h-101.8999v-17.4c0-35.5.5-84.5,21.7-112.2,23.8-31,76.6001-32.2,108.1001-34.2,22.19995-1.3,44.5-1.3,66.69995-1.3h9.80005l85.3999.6c33.1001,0,75.5.6,100.3999,32.2,19.1001,24.5,19.1001,73.5,19.1001,105.1,0,32.2-.5,66.4-15,94.8-19.1001,38-73.5,43.2-105.5,45.8-24.8,1.9-49.1001,3.9-74,5.8-19.7,1.3-39.3,3.2-59,5.2-8.8.6-31,2.6-39.3,6.4-16.6001,7.7-16.6001,21.9-16.6001,40.6h315v98.7H2924Z" transform="translate(0 0)" style="fill:#fff"/><path d="M3761.80005,802.8c-41.3999,8.4-97.3,7.7-139.19995,7.7-25.8999,0-51.2-.6-77.1001-1.3-56.8999-1.3-123.1001-3.9-135.5-89.6-5.7-40-4.1001-88.3-4.1001-129,0-25.8,0-50.9.5-76.7.5-36.1,2.6001-77.4,23.80005-105.1,14-18.1,33.6001-27.1,53.3-31,41.3999-8.4,96.7-7.7,139.2-7.7,25.3,0,51.19995,1.3,76.6001,1.9,88.5,2.6,139.7,14.2,139.7,141.9V667.4C3838.8999,738.9,3824.3999,789.9,3761.80005,802.8ZM3711.6001,490.1c-11.8999-6.4-29.5-7.1-42.3999-7.1-20.7,0-41.39991-.6-62.6001-.6-21.2,0-44.5-.6-65.2,5.2-6.19995,1.9-12.39991,4.5-17.1001,11-14,18.1-12.8999,69-12.8999,92.2,0,21.3-1,71.6,10.8999,89,5.2,7.7,11.3999,11,19.1001,13.5,22.2,6.4,59,6.4,82.30005,5.8l45.5-1.3c12.8999-.6,30.5-.6,42.3999-7.7,25.8999-14.2,22.19995-70.9,22.19995-99.3C3733.8999,562.3,3737.5,505,3711.6001,490.1Z" transform="translate(0 0)" style="fill:#fff"/></svg>