<svg id="Layer_1" data-name="Layer 1" xmlns="http://www.w3.org/2000/svg" viewBox="0 0 3839.00024 808.06864"><polygon id="polygon7" points="864.9 368.8 864.9 368.8 2606.2 368.8 2606.2 414 864.9 414 864.9 368.8" style="fill:#f20029;fill-rule:evenodd"/><polygon points="864.9 467.3 864.9 467.3 2606.2 467.3 2606.2 512.6 864.9 512.6 864.9 467.3" style="fill:#fd7801;fill-rule:evenodd"/><polygon points="864.9 565.9 864.9 565.9 2606.2 565.9 2606.2 611 864.9 611 864.9 565.9" style="fill:#f2f540;fill-rule:evenodd"/><polygon points="864.9 664.3 864.9 664.3 2606.2 664.3 2606.2 709.5 864.9 709.5 864.9 664.3" style="fill:#48cc31;fill-rule:evenodd"/><polygon id="polygon15" points="864.9 762.8 864.9 762.8 2606.2 762.8 2606.2 808 864.9 808 864.9 762.8" style="fill:#14a3fd;fill-rule:evenodd"/><path d="M1055.7,157.4c-3.30005-29.8-36.3-29-59.5-29-12.6,0-39.2.4-49.3,9-9.8,8.2-9.8,29.4-9.8,40.8,0,11,.4,25.7,9,33.9,10.2,9.8,38.3,10.6,51.4,10.6,9,0,17.5,0,26.5-1.2,17.9-2.4,28.6-7.7,31.4-26.9h73.4c-.80005,21.6-2,42.4-17.9,58.7-16.69995,17.5-42.4,21.2-65.69995,22.4-17.5.8-34.7,1.2-52.2,1.2-31.4,0-76.3.8-103.2-17.9-26.1-18.4-24.9-56.7-24.9-84.8,0-27.7-.4-60.8,22.8-80.3C913,72.7,965.6,74.3,996.6,74.3c31.00006,0,84.8-1.2,110.50006,19.6a49.46832,49.46832,0,0,1,15.1,20c6.1,14.3,6.5,28.1,6.9,43.6h-73.4v-.1Z" transform="translate(0 0)" style="fill:#fff"/><path d="M1434.1,209.5c-1.6,18.8-6.5,35.5-21.2,48.1-24.9,21.6-83.6,19.2-114.19995,19.2-31.80005,0-88.1,2.9-114.2-19.2a53.28863,53.28863,0,0,1-15.5-21.2c-8.19995-20-6.9-45.3-6.9-66.5,0-10.6,0-21.6,1.19995-32.2,1.6-18.4,8.6-34.7,23.69995-46.1,24.5-18.8,82.80005-17.5,111.69995-17.5,29.4,0,86.9-1.2,111.80005,17.5A52.12343,52.12343,0,0,1,1426,110c10.6,18.8,9.4,42.8,9.4,63.6C1435.30005,185.6,1434.9,197.7,1434.1,209.5Zm-79.9-70.4c-10.6-10.2-41.6-10.6-55.1-10.6-13.1,0-26.5.4-39.2,2.9-25.3,4.9-25.69995,24.5-25.69995,46.5,0,10.6-.4,24.9,7.3,33,11,11.8,42.80005,11.8,57.5,11.8,13.9,0,28.5,0,42-3.7,22.4-6.1,22-26.5,22-46.5C1363.1,161.5,1362.7,147.2,1354.2,139.1Z" transform="translate(0 0)" style="fill:#fff"/><path d="M1823.5,271.9V181.8c0-41.6-4.5-53.4-48.9-53.4-49.80005,0-53.4,19.6-53.4,64v79.5H1649V168.3c0-35.1-15.1-40-47.69995-40-51.4,0-54.69995,18.4-54.69995,64v79.6h-72.2V79.1h68.1v29h3.30005c13.5-29.8,49.30005-33.9,78.30005-33.9,36.69995,0,68.9,6.1,87.69995,40.4,14.69995-35.9,48.9-40.4,83.6-40.4,28.1,0,59.5,3.3,79.9,24.9,6.9,7.3,12.19995,15.1,15.1,24.9,5.7,18.8,5.30005,38.7,5.30005,57.9V272H1823.5Z" transform="translate(0 0)" style="fill:#fff"/><path d="M2286.30005,271.9V181.8c0-41.6-4.5-53.4-48.8999-53.4-49.8,0-53.39991,19.6-53.39991,64v79.5h-72.19995V168.3c0-35.1-15.10009-40-47.7-40-51.4,0-54.69995,18.4-54.69995,64v79.6h-72.19995V79.1h68.1v29h3.3c13.5-29.8,49.4-33.9,78.29993-33.9,36.7,0,68.8999,6.1,87.7,40.4,14.7-35.9,48.8999-40.4,83.6001-40.4,28.1001,0,59.5,3.3,79.8999,24.9,6.8999,7.3,12.2,15.1,15.1001,24.9,5.69995,18.8,5.3,38.7,5.3,57.9V272h-72.20044Z" transform="translate(0 0)" style="fill:#fff"/><path d="M2668,209.5c-1.6001,18.8-6.5,35.5-21.2,48.1-24.8999,21.6-83.6001,19.2-114.19995,19.2-31.80005,0-88.1001,2.9-114.2-19.2a53.28863,53.28863,0,0,1-15.5-21.2c-8.19995-20-6.89991-45.3-6.89991-66.5,0-10.6,0-21.6,1.2-32.2,1.60009-18.4,8.60009-34.7,23.69995-46.1,24.5-18.8,82.80005-17.5,111.80005-17.5,29.3999,0,86.8999-1.2,111.8,17.5a52.12571,52.12571,0,0,1,15.5,18.4c10.6001,18.8,9.39991,42.8,9.39991,63.6C2669.2,185.6,2668.80005,197.7,2668,209.5Zm-80-70.4c-10.6001-10.2-41.6001-10.6-55.1001-10.6-13.1001,0-26.5.4-39.19995,2.9-25.30005,4.9-25.7,24.5-25.7,46.5,0,10.6-.3999,24.9,7.3,33,11,11.8,42.80005,11.8,57.5,11.8,13.8999,0,28.5,0,42-3.7,22.3999-6.1,22-26.5,22-46.5C2597,161.5,2596.6001,147.2,2588,139.1Z" transform="translate(0 0)" style="fill:#fff"/><path d="M2907.7,271.9V246.6H2904c-4.8999,8.2-8.6001,13.5-16.7,18.4-17.8999,11-48.1001,11.8-68.5,11.8-29.8,0-70.19995.4-93.8-20.4-21.2-18.8-20.8-55.9-20.8-82,0-30.2.8-66.9,28.6001-85.6,24.5-16.3,58.7-14.7,86.8999-14.7,21.19995,0,44.5-.4,63.19995,10.6,9.3999,5.3,12.6001,10.6,17.8999,20h2.89991V0h72.2V271.9Zm-7.3999-125.5C2891.7,126.8,2860.7,128.5,2843.2,128.5c-17.8999,0-54.2-2-63.2,18.4-3.3,8.2-3.7,18.8-3.7,27.3,0,11.4-.3999,29,8.2,37.9,9.8,10.6,41.2,10.6,54.2,10.6,14.69995,0,32.6001-.8,46.5-5.3,19.6001-6.1,19.19995-24.9,19.19995-42.4C2904.3999,166,2904,155,2900.30005,146.4Z" transform="translate(0 0)" style="fill:#fff"/><path d="M3286.8999,209.5c-1.6001,18.8-6.5,35.5-21.19995,48.1-24.8999,21.6-83.6001,19.2-114.2,19.2-31.8,0-88.1001,2.9-114.2-19.2a53.28863,53.28863,0,0,1-15.5-21.2c-8.19995-20-6.8999-45.3-6.8999-66.5,0-10.6,0-21.6,1.2-32.2,1.6001-18.4,8.6001-34.7,23.69995-46.1,24.5-18.8,82.80005-17.5,111.7-17.5,29.3999,0,86.8999-1.2,111.8,17.5a52.12591,52.12591,0,0,1,15.5,18.4c10.6001,18.8,9.3999,42.8,9.3999,63.6C3288.1001,185.6,3287.7,197.7,3286.8999,209.5ZM3207,139.1c-10.6001-10.2-41.6001-10.6-55.1001-10.6-13.1001,0-26.5.4-39.19995,2.9-25.30005,4.9-25.7,24.5-25.7,46.5,0,10.6-.3999,24.9,7.3,33,11,11.8,42.80005,11.8,57.5,11.8,13.8999,0,28.5,0,42-3.7,22.3999-6.1,22-26.5,22-46.5C3216,161.5,3215.6001,147.2,3207,139.1Z" transform="translate(0 0)" style="fill:#fff"/><path d="M3550.80005,164.8H3483.1001c0-28.6-9.3999-36.3-37.8999-36.3-44.5,0-45.7,28.1-45.7,63.6V272h-72.19995V79.1h68.1001v29h3.30005c16.69995-29.8,43.6001-33.9,75-33.9,22.3999,0,49.3,2.9,64.3999,21.6,13.5,16.7,13.1001,40.8,13.1001,61.2C3551.2,159.5,3550.80005,162.3,3550.80005,164.8Z" transform="translate(0 0)" style="fill:#fff"/><path d="M3838.6001,191.3H3650.2002c0,11-.39991,23.7,9,31.4,9.8,7.8,37.10009,8.2,48.8999,8.2s44.8999.4,52.6001-8.2c3.3-3.3,4.10009-7.7,4.8999-12.2h71.8c-1.6001,18.4-5.3,32.6-19.19995,45.3-24.89991,22.4-84.39991,21.2-115.80005,21.2-28.6001,0-76.3.4-99.89991-17.9a56.7355,56.7355,0,0,1-16.3-20.4c-9-18.8-8.2-42-8.2-62,0-12.2,0-24.5,1.2-36.3,2-19.6,8.60009-37.1,24.8999-48.9,25.3-18.4,75.8999-17.1,105.6001-17.1,27.3,0,57.10009-.8,83.60009,6.9,42.8,12.6,45.69995,51.8,45.69995,90.5C3839,178.2,3839,184.8,3838.6001,191.3Zm-72.2002-44.1c0-7.3-.3999-13.1-5.69995-18.8-8.6001-9.4-37.8999-9.4-49.80005-9.4-11,0-22,0-32.6001,1.6-20.3999,2.9-27.69995,10.6-28.10009,31h116.2l.00024-4.4Z" transform="translate(0 0)" style="fill:#fff"/><path d="M3126.1001,494.2c0-6.4-.6001-15.4-6.3999-19.9-5.80005-4.5-14.80005-5.1-21.2-5.8-33.3999-3.2-68.19995-3.2-102.19995-3.2-31.5,0-65.60009,0-96.5,5.8-7.10009,1.3-13.5,3.2-19.30005,7.7-14.8,11.6-13.5,43.7-13.5,60.4V563c7.7-7.7,15.39991-14.1,25.1001-19.3,36-20.6,108-18.6,148.5-18.6,43.7,0,97.1001.6,138.8999,14.1,15.39991,5.1,28.30005,12.2,39.89991,23.8,25.7,25.1,26.3999,73.3,26.3999,106.7,0,61.1-10.3,115.8-78.5,129.3-26.3999,5.1-53.3999,7.1-79.69995,7.7-38.6001.6-76.5,1.3-115.1001,1.3-54,0-155,3.2-196-34.1-29.6001-26.4-31.5-77.8-32.8-114.5-.6001-28.3-1.30005-57.2-1.30005-85.5,0-51.4-5.8-135,36.7-171.7,40.5-35.4,178.8-33.4,229.5-33.4,28.3,0,56.6001,0,84.89991,1.3,39.19995,1.3,105.5,3.2,135,33.4,20.60009,21.2,19.8999,63,19.8999,90.7Zm-37.30005,131.1c-34.69995-5.1-72-3.9-107.3999-3.9-25.69995,0-52.1001-1.3-77.8,2.6-25.1001,3.9-34.7,19.3-34.7,43.7,0,10.9,2.60009,25.1,10.30005,33.4,12.8999,13.5,85.5,10.3,102.19995,10.3,22.5,0,44.3999-.6,66.8999-1.3,16.1001-.6,48.8999,1.3,61.7-10.9,7.7-7.7,9-21.9,9-32.2C3119,643.3,3113.8999,629.2,3088.80005,625.3Z" transform="translate(0 0)" style="fill:#fff"/><path d="M3756,723.1v79.7H3632V723.1H3290v-164L3544.6001,374H3756V626.6h83v96.5ZM3632,473.7h-26.3999L3406.30005,610v16.7h225.6001L3632,473.7Z" transform="translate(0 0)" style="fill:#fff"/><path d="M172.4,441.1c0-107.3,87.3-194.5,194.5-194.5a193.11226,193.11226,0,0,1,94.9,24.8V86.7a366.96977,366.96977,0,0,0-94.9-12.5C164.3,74.2,0,238.4,0,441.1S164.3,808,366.9,808a366.97063,366.97063,0,0,0,94.9-12.5V610.8a193.11225,193.11225,0,0,1-94.9,24.8C259.6,635.6,172.4,548.4,172.4,441.1Z" transform="translate(0 0)" style="fill:#fff"/><polygon points="461.8 427.8 634.7 427.8 781.5 281 461.8 281 461.8 427.8" style="fill:#fff"/><polygon points="461.8 454.5 461.8 601.2 781.5 601.2 634.7 454.5 461.8 454.5" style="fill:#fff"/></svg>