<svg id="Layer_1" data-name="Layer 1" xmlns="http://www.w3.org/2000/svg" viewBox="0 0 3839.00214 1239.30005"><polygon points="429.32 971.11 204.04 971.11 204.04 418 295.43 418 295.43 325.63 0 325.63 0 418 95.63 418 95.63 971.11 0 971.11 0 1063.47 529.22 1063.47 529.22 720.09 429.32 720.09 429.32 971.11" style="fill:#fff"/><polygon points="2482.35 971.11 2288.96 682.06 2466.43 418 2556.74 418 2556.74 325.63 2279.39 325.63 2279.39 418 2363.35 418 2236.88 604.9 2112.53 418 2193.3 418 2193.3 325.63 1906.42 325.63 1903.19 325.63 1609.92 325.63 1609.92 418 1710.89 418 1710.89 899.39 1708.76 899.39 1396.31 325.63 1156.19 325.63 1149.77 325.63 868.19 325.63 868.19 418 958.52 418 812.93 645.11 654.58 418 744.92 418 744.92 325.63 448.43 325.63 448.43 418 536.63 418 751.29 727.7 751.29 971.11 654.58 971.11 654.58 1063.47 958.52 1063.47 958.52 971.11 859.7 971.11 859.7 727.7 1060.55 418 1149.77 418 1156.19 418 1252.85 418 1252.85 971.11 1149.77 971.11 1149.77 1063.47 1446.27 1063.47 1446.27 971.11 1342.13 971.11 1342.13 440.82 1344.24 440.82 1686.44 1071.08 1800.15 1071.08 1800.15 418 1903.19 418 1906.42 418 1996.69 418 2179.49 691.84 1996.69 971.11 1898.93 971.11 1898.93 1063.47 2186.92 1063.47 2186.92 971.11 2099.78 971.11 2231.56 771.16 2363.35 971.11 2279.39 971.11 2279.39 1063.47 2575.87 1063.47 2575.87 971.11 2482.35 971.11" style="fill:#fff"/><rect x="2599.58008" y="571.88" width="246.76001" height="246.76001" style="fill:#cf1e00"/><rect x="2599.58008" y="535.69" width="246.76001" height="36.17999" style="fill:#fff"/><rect x="2599.58008" y="818.63" width="246.76001" height="18.09003" style="fill:#fff"/><rect x="2563.39929" y="571.87988" width="36.17999" height="246.76001" style="fill:#fff"/><rect x="2846.34021" y="571.87891" width="36.17999" height="246.76001" style="fill:#fff"/><rect x="2816.95996" y="209.96001" width="246.76001" height="246.75999" style="fill:#ffcd2c"/><rect x="2816.95996" y="173.78" width="246.76001" height="36.17999" style="fill:#fff"/><rect x="2816.95996" y="456.72" width="246.76001" height="18.09" style="fill:#fff"/><rect x="2780.77924" y="209.96484" width="36.17999" height="246.76001" style="fill:#fff"/><rect x="3063.7204" y="209.96362" width="36.17999" height="246.76001" style="fill:#fff"/><rect x="3197.66992" y="154.74001" width="246.76001" height="246.75999" style="fill:#ff6d00"/><rect x="3197.66992" y="118.55" width="246.76001" height="36.18001" style="fill:#fff"/><rect x="3197.66992" y="401.48999" width="246.76001" height="18.09" style="fill:#fff"/><rect x="3161.49557" y="154.73462" width="36.17999" height="246.76001" style="fill:#fff"/><rect x="3444.43649" y="154.73364" width="36.17999" height="246.76001" style="fill:#fff"/><rect x="3556.06006" y="387.39001" width="246.76001" height="246.76001" style="fill:#00a022"/><rect x="3556.06006" y="351.20999" width="246.76001" height="36.17999" style="fill:#fff"/><rect x="3556.06006" y="634.15002" width="246.76001" height="18.09003" style="fill:#fff"/><rect x="3519.88098" y="387.39551" width="36.17999" height="246.76001" style="fill:#fff"/><rect x="3802.82214" y="387.39453" width="36.17999" height="246.76001" style="fill:#fff"/><rect x="2957.95996" y="732.85999" width="487.64014" height="487.64001" style="fill:#06b"/><rect x="2957.95996" y="695.25" width="487.64014" height="37.59998" style="fill:#fff"/><rect x="2920.35938" y="732.85413" width="37.59998" height="487.63989" style="fill:#fff"/><rect x="3445.60254" y="732.85083" width="37.59998" height="487.64014" style="fill:#fff"/><rect x="2957.95996" y="1220.5" width="487.64014" height="18.80005" style="fill:#fff"/><path d="M918.76,91.23q23.085,43.875,48.28,90.02,3.27-6.21,9.49-17.84,6.21-11.61,14.4-26.68,8.175-15.06,17.51-32.57,9.33-17.505,18.99-35.52,9.64509-18,19.15-35.35,9.49493-17.34,17.68-32.41h4.26q3.6,31.425,6.71,60.72,3.10493,29.295,6.38,57.61,3.27007,28.32,6.55,55.98,3.27008,27.66,7.2,54.83a46.41838,46.41838,0,0,0-7.68994-.65h-15.37989a46.3299,46.3299,0,0,0-7.68994.65q-3.6-43.53-7.19995-84.46-3.6-40.92-8.84-83.47h-.66q-22.59009,41.25-44.36,82-21.78,40.755-41.41,85.27h-2.95q-19.635-41.25-41.08-82.66-21.45-41.4-43.05-84.62h-.65q-2.295,20.295-5.07,44.03-2.79,23.73-5.07,46.81-2.295,23.085-3.93,43.54-1.635,20.46-1.64,33.55a101.34975,101.34975,0,0,0-22.92005,0q4.245-26.52,8.84-55.98,4.575-29.46,8.84-59.25,4.245-29.79,7.86-58.76,3.6-28.965,6.22-55.16h5.56Q895.69479,47.375,918.76,91.23Z" transform="translate(0 0)" style="fill:#fff"/><path d="M1130.07,89.92q0-21.6-.82-42.39-.82508-20.79-1.80005-42.39,7.86.66,15.88,1.15,8.025.495,15.88.49,3.93,0,9.49-.33c3.71-.21,7.47-.38,11.29-.49,3.82-.11,7.47-.27,10.97-.49,3.49-.21,6.43005-.33,8.84-.33q4.905,0,12.11.33a99.0789,99.0789,0,0,1,15.22,1.96,86.18955,86.18955,0,0,1,15.88,4.91,45.292,45.292,0,0,1,14.24,9.49,46.63826,46.63826,0,0,1,10.31006,15.55q3.93,9.33,3.93,23.08,0,21.6-9.33,35.03a67.67864,67.67864,0,0,1-22.91,20.95,90.8898,90.8898,0,0,1-28.81006,10.15,160.96394,160.96394,0,0,1-27.01,2.62q-7.53,0-13.75-.16-6.225-.165-12.77-.82v18q0,21.6.81995,42.56.81006,20.955,1.80005,41.25-7.53-.66-16.04-.65-8.52009,0-16.04.65.975-20.295,1.80005-41.25.81006-20.94.81994-42.56V89.92ZM1156.91,114.47a100.949,100.949,0,0,0,23.24,2.62,100.72888,100.72888,0,0,0,20.95-2.29,55.72511,55.72511,0,0,0,19.8-8.35,45.86914,45.86914,0,0,0,14.73-16.69q5.72992-10.635,5.73-27.33,0-14.07-3.93006-22.91a32.35188,32.35188,0,0,0-10.97-13.75A42.74578,42.74578,0,0,0,1209.27,19.06a131.97247,131.97247,0,0,0-22.91-1.8H1156.9v97.21Z" transform="translate(0 0)" style="fill:#fff"/><path d="M1469.53,111.52q0-46.485-.33-71.69-.33-25.2-1.64-34.7,3.6.66,6.87,1.15a43.66369,43.66369,0,0,0,6.55005.49,35.10763,35.10763,0,0,0,9.82-1.64q-.975,11.46-1.96,27.33-.975,15.885-1.64,34.04-.65991,18.165-1.31006,37.32-.65991,19.155-.98,37.15-.33,21.93-6.71,39.28a82.35091,82.35091,0,0,1-18.17,29.46,75.51189,75.51189,0,0,1-28.97,18.33q-17.18994,6.21-39.44995,6.22-49.095,0-71.36-22.26-22.25994-22.26-22.26-70.38,0-15.39.82-27.33.81006-11.94.81994-24.39,0-27.495-.65-48.78-.65991-21.27-1.31006-36.01c2.62.44,5.44995.82,8.51,1.15a79.41354,79.41354,0,0,0,8.51.49,49.34268,49.34268,0,0,0,7.04-.49c2.29-.33,4.63-.71,7.04-1.15q-.65991,7.2-1.31006,18.82-.65991,11.625-1.31006,26.35-.65991,14.73-.98,31.75-.33,17.025-.33,35.35,0,11.13.33,23.08a159.94016,159.94016,0,0,0,2.29,23.24,97.17573,97.17573,0,0,0,6.38,21.61,53.16473,53.16473,0,0,0,12.6,18,57.82273,57.82273,0,0,0,20.62,12.11q12.43506,4.425,30.77,4.42,18,0,30.28-5.24a57.71649,57.71649,0,0,0,20.13-13.75,62.86105,62.86105,0,0,0,12.28-19.64,110.735,110.735,0,0,0,6.38-23.24,182.00859,182.00859,0,0,0,2.29-24.22Q1469.52,121.69,1469.53,111.52Z" transform="translate(0 0)" style="fill:#fff"/><path d="M1585.08,22.16q-8.52009,0-17.84.16-9.33.165-18.66.65-9.33.495-18,1.15-8.67.66-15.55005,1.64a39.76968,39.76968,0,0,0,1.64-10.48,45.30206,45.30206,0,0,0-1.64-10.15q21.6.66,42.23,1.15,20.625.495,42.23.49,21.615,0,42.23-.49,20.625-.495,42.23-1.15a45.8442,45.8442,0,0,0-1.64,10.47,38.488,38.488,0,0,0,1.64,10.15q-6.86994-.99-15.55005-1.64-8.67-.645-18-1.15-9.33-.495-18.66-.65-9.33-.165-17.84-.16-.99,33.72-.98,67.76v56.3q0,21.6.82,42.56.81006,20.955,1.8,41.25-7.53-.66-16.04-.65-8.52009,0-16.04.65.975-20.295,1.8-41.25.81-20.94.81994-42.56V89.91Q1586.05024,55.875,1585.08,22.16Z" transform="translate(0 0)" style="fill:#fff"/><path d="M1708.66,47.03q-.82506-20.94-1.8-41.9,14.72991.66,29.3,1.15,14.565.495,29.30005.49,14.7301,0,29.13-.49,14.4-.495,29.13-1.15a49.6912,49.6912,0,0,0,0,19.64q-10.485-.645-19.15-1.31-8.67-.66-18.33-1.31-9.65991-.645-21.11-1.15-11.46-.495-27.5-.49-.33,10.485-.82,19.97-.49494,9.495-.49,21.61,0,12.765.16,24.88.165,12.12.16,18.33,14.4,0,25.86-.33,11.46-.315,20.95-.82,9.49493-.495,17.51-.98,8.00994-.495,15.22-1.15a51.99337,51.99337,0,0,0-.98,10.15,50.31085,50.31085,0,0,0,.98,9.82q-8.52009-.975-19.81006-1.64-11.295-.645-22.59-.82-11.295-.165-21.28-.33-9.99-.165-15.88-.16c0,1.96-.06006,4.09-.16,6.38-.11,2.29-.16,5.19-.16,8.67V166.5q0,18.66.16,30.77.165,12.12.49,18.33h22.91q12.43506,0,24.39-.49,11.93994-.495,22.59-1.31a144.73638,144.73638,0,0,0,18.5-2.46,23.3704,23.3704,0,0,0-.81995,5.07c-.11,1.86-.16,3.55-.16,5.07a30.541,30.541,0,0,0,.98,8.51q-14.72992-.66-29.3-.65h-59.41q-14.72991,0-29.79.65.975-20.94,1.8-41.74.81006-20.79.81995-42.39V89.56Q1709.475,68.005,1708.66,47.03Z" transform="translate(0 0)" style="fill:#fff"/><path d="M1860.05005,89.92q0-21.6-.82-42.39-.82507-20.79-1.80005-42.39,9.49494.66,18.66,1.15,9.165.495,18.66.49,9.49494,0,18.66-.82,9.165-.81,18.66-.82a126.62637,126.62637,0,0,1,26.18994,2.62,63.92929,63.92929,0,0,1,21.77,8.67,43.78643,43.78643,0,0,1,14.73,15.88q5.4,9.825,5.4,24.55,0,15.72-7.04,27.01a65.67006,65.67006,0,0,1-17.18994,18.66,85.02034,85.02034,0,0,1-21.77,11.46,109.16217,109.16217,0,0,1-21.11,5.4q3.93,4.905,10.80005,13.75,6.86994,8.835,15.39,19.48,8.50507,10.635,17.68006,22.26,9.165,11.625,17.68,22.26,8.50508,10.635,16.04,19.48,7.53,8.835,12.11,13.42a73.618,73.618,0,0,0-9.82-.65h-19.30994a66.50489,66.50489,0,0,0-9.49.65q-4.905-6.87-14.89-20.62-9.99006-13.755-22.1-29.46-12.11992-15.72-24.72-31.26t-23.08-26.35h-12.43995v23.9q0,21.6.81995,42.56.81006,20.955,1.80005,41.25-7.53-.66-16.04-.65-8.52007,0-16.04.65.975-20.295,1.80005-41.25.81006-20.94.81995-42.56V89.92Zm26.85,18.66a67.83066,67.83066,0,0,0,9.98,1.31q5.4.33,11.95.33a103.02452,103.02452,0,0,0,21.11-2.29,61.12316,61.12316,0,0,0,20.13-8.02,47.73314,47.73314,0,0,0,15.22-15.39q6.06006-9.645,6.06006-24.39,0-12.765-4.75-21.11a37.99318,37.99318,0,0,0-12.28-13.26,46.81064,46.81064,0,0,0-16.37-6.71,86.8197,86.8197,0,0,0-17.35-1.8q-11.46,0-18.99.49-7.53.495-12.77,1.15-.65992,18-1.31006,35.68-.65991,17.67-.65,35.35v18.66Z" transform="translate(0 0)" style="fill:#fff"/><path d="M2046.80005,199.42a54.37634,54.37634,0,0,0,10.80005,10.97,55.54349,55.54349,0,0,0,14.88989,8.02,54.8192,54.8192,0,0,0,18.99,3.11,48.48616,48.48616,0,0,0,19.48-3.76A43.43423,43.43423,0,0,0,2135.02,192.55a52.00051,52.00051,0,0,0,3.27-18.5q0-15.06-7.68994-23.9a63.63074,63.63074,0,0,0-19.1499-14.73,224.24474,224.24474,0,0,0-24.71-10.8,127.17242,127.17242,0,0,1-24.72-12.28,65.53,65.53,0,0,1-19.15-18.82q-7.695-11.46-7.68994-30.77a62.19049,62.19049,0,0,1,4.91-25.04,54.541,54.541,0,0,1,14.24-19.48,67.42658,67.42658,0,0,1,22.41992-12.77,88.95035,88.95035,0,0,1,29.46-4.58q15.72,0,27.16992,3.76a67.68473,67.68473,0,0,1,21.28,11.62,71.05843,71.05843,0,0,0-4.90992,11.78q-1.96508,6.225-3.92993,15.71h-3.92993a85.6301,85.6301,0,0,0-4.41992-9.98,38.30212,38.30212,0,0,0-7.53-9.98,42.28206,42.28206,0,0,0-11.29-7.69,36.43992,36.43992,0,0,0-15.71-3.11,46.65613,46.65613,0,0,0-16.86011,2.95,40.33272,40.33272,0,0,0-13.41992,8.35,36.8274,36.8274,0,0,0-8.84009,12.93,42.35089,42.35089,0,0,0-3.1101,16.37q0,15.39,7.68994,24.22a65.57584,65.57584,0,0,0,19.1499,14.89,188.65347,188.65347,0,0,0,24.72,10.8,139.41314,139.41314,0,0,1,24.71,11.62,62.97365,62.97365,0,0,1,19.1499,17.68q7.68018,10.8,7.68994,28.81a75.58575,75.58575,0,0,1-5.3999,28.48,67.13113,67.13113,0,0,1-15.71,23.41,70.01907,70.01907,0,0,1-25.21,15.39q-14.89489,5.4-33.87988,5.4-20.295,0-32.89991-5.4a89.34358,89.34358,0,0,1-21.11-12.28,78.059,78.059,0,0,0,4.09-13.58q1.14-6.06,2.13-15.55h3.93A66.48977,66.48977,0,0,0,2046.80005,199.42Z" transform="translate(0 0)" style="fill:#fff"/><path d="M778.93,206.23q-6.705-15.06-15.05-34.21-8.355-19.14-17.85-41.41-9.465-22.245-18.99-44.85-9.51-22.605-18.65-44.68Q699.24,19,691.38,0h-6.21q-25.56,58.605-50.75,115.23c-16.81,37.75-60.49,128.02-78.17,166.21h30.28c2.84-10.03,27.47-75.04,33.14-90.44q8.505-23.07,18.99-48.6c.01,0,6.24-15.06,6.23-15.06l35.67-83.15s27.76,62.15,36.34,83.15c10.28,25.18,96.57,246,98.1,251.01,3.06-.43,13.27-52.03,16.33-51.59C828.5,321.52,783.41,216.28,778.93,206.23Z" transform="translate(0 0)" style="fill:#fff"/><path d="M526.77,221.46a87.77015,87.77015,0,0,1-15.39,5.56q-9,2.46-20.13,4.42a133.53472,133.53472,0,0,1-23.24,1.96,149.26763,149.26763,0,0,1-47.79-7.37,100.69412,100.69412,0,0,1-37.81-22.42,105.48065,105.48065,0,0,1-24.88-36.83q-9-21.765-9-49.59t9-49.59a103.438,103.438,0,0,1,25.21-36.83A108.38613,108.38613,0,0,1,421.53,7.86Q444.105,0,471.28,0a163.9703,163.9703,0,0,1,39.45,4.42,185.48645,185.48645,0,0,1,31.59,10.64,43.086,43.086,0,0,0-4.26,12.44q-1.635,7.86-2.62,13.09l-1.96.66a72.53089,72.53089,0,0,0-9.17-8.84,101.45328,101.45328,0,0,0-13.75-9.49,87.36594,87.36594,0,0,0-17.68-7.69,71.39108,71.39108,0,0,0-21.6-3.11,101.04048,101.04048,0,0,0-35.84,6.22,76.41122,76.41122,0,0,0-28.81,19.15q-12.27,12.93-19.15,32.73-6.87,19.815-6.87,46.97,0,27.18,6.87,46.97,6.87,19.815,19.15,32.73a76.13928,76.13928,0,0,0,28.81,19.15,100.89732,100.89732,0,0,0,35.84,6.22,76.44811,76.44811,0,0,0,21.77-2.95,115.93773,115.93773,0,0,0,18.33-7.04,109.82448,109.82448,0,0,0,15.06-8.84q6.705-4.74,11.29-8.35l1.31,1.31-2.95,19.31A41.48445,41.48445,0,0,1,526.77,221.46Z" transform="translate(0 0)" style="fill:#fff"/><rect x="859.71997" y="265.54001" width="1881.79004" height="15.89999" style="fill:#fff"/><rect x="3519.87988" y="265.54001" width="319.12012" height="15.89999" style="fill:#fff"/><rect y="265.54001" width="580.95001" height="15.89999" style="fill:#fff"/><polygon points="812.2 368.63 826.82 378.35 871.78 265.54 853.28 265.54 812.2 368.63" style="fill:#fff"/><rect x="815.01001" y="366.54001" width="11.81" height="11.81" style="fill:#fff"/></svg>