<svg id="Layer_1" data-name="Layer 1" xmlns="http://www.w3.org/2000/svg" viewBox="0 0 3839 298.89999"><path d="M1195.2,0c-33.9,0-102.6.4-102.69995,0V298.8h83.6l.5-74.7h37.3c79.7,0,121.4-38.4,121.4-112C1335.2,31.1,1282.9,0,1195.2,0Zm0,168H1176.5V56c5-.2,14.30005,0,18.69995,0,42.19995,0,57.5,21.6,57.5,57.8C1252.6,151.3,1239.6,168,1195.2,168Z" transform="translate(0 0.1)" style="fill:#fff"/><polygon points="448.2 298.9 448.2 177.5 364.1 177.5 364.1 298.9 280.2 298.9 280.2 0.1 364.1 0.1 364.1 121.5 448.2 121.5 448.2 0.1 532.3 0.1 532.3 298.9 448.2 298.9" style="fill:#fff"/><polygon points="597.5 298.9 597.5 0.1 672.2 0.1 681.6 0.1 681.6 298.9 597.5 298.9" style="fill:#fff"/><polygon points="905 298.9 747 298.9 747 0.1 831 0.1 831 242.9 915.1 242.9 905 298.9" style="fill:#fff"/><rect x="943.09998" y="0.1" width="84.09998" height="298.79999" style="fill:#fff"/><path d="M1447.30005,74.7v9.4c0,45.9,140.1,24.8,140.1,121.4,0,72.5-49.9,93.3-121.4,93.3-28.1,0-73.5-5.2-102.69995-9.3V224.1C1389,237.4,1437.9,242.8,1466,242.8c31.6,0,37.30005-9.9,37.30005-28.1,0-51.5-140.1-29.3-140.1-130.7,0-58.8,57.6-84.1,126.69995-84.1,48.9,0,56.5,4.5,78.80005,9.4v56c-19.9-8.4-47.7-9.3-74.7-9.3C1469.4,56,1447.30005,58.9,1447.30005,74.7Z" transform="translate(0 0.1)" style="fill:#fff"/><path d="M102.7,0C68.7,0,0,.4,0,0V298.8H83.6l.5-74.7h37.3c79.7,0,121.4-38.4,121.4-112C242.7,31.1,190.5,0,102.7,0Zm0,168H84.1V56c5-.2,14.3,0,18.7,0,42.2,0,57.5,21.6,57.5,57.8C160.1,151.3,147.2,168,102.7,168Z" transform="translate(0 0.1)" style="fill:#fff"/><rect x="3750.3999" y="91.1" width="88.6001" height="187.70001" style="fill:#fff"/><rect x="3750.3999" y="0.1" width="88.6001" height="63.5" style="fill:#fff"/><path d="M2278.80005,138.4c-15.8-15.6-60.1001-26-110.19995-26-56.7,0-116.8999,14.1-116.8999,40.2s60.19995,40.2,116.8999,40.2S2285.5,178.7,2285.5,152.6C2285.6001,147.7,2283.30005,142.9,2278.80005,138.4ZM2168.7,130.1c51.3999,0,83,13.1,83,22.6,0,9.2-32.30005,22.6-83,22.6s-83-13.4-83-22.6C2085.7,143.3,2117.2,130.1,2168.7,130.1Z" transform="translate(0 0.1)" style="fill:#fff"/><path d="M2167.8999,298.8c-120.9,0-234.69995-15-320.3-42.2-87.4-27.7-135.5-65.3-135.5-105.8s48.1-78.1,135.5-105.8c85.69995-27.2,199.4-42.2,320.3-42.2,209.6001,0,391.30005,45.6,441.7,110.9l6,7.8h-113.2L2501,120.1c-46.7-44.9-180.5-75.1-333.1001-75.1-189.19995,0-349,48.5-349,105.9s159.80005,105.9,349,105.9c152.6001,0,286.5-30.2,333.1001-75.1l1.3999-1.4,113.2-.2-6,7.8C2559.2,253.2,2377.6001,298.8,2167.8999,298.8Z" transform="translate(0 0.1)" style="fill:#fff"/><rect x="2645.30005" y="7.7" width="88.6001" height="278.00001" style="fill:#fff"/><polygon points="3452.3 98.5 3452.3 185.2 3693 141.8 3452.3 98.5" style="fill:#e50300"/><path d="M3392.6001,146.6c0-87.7-216-139-460.5-139H2706.80005V49H2932.1001c192,0,347.5,39.9,347.5,97.6v.1c0,57.7-155.6001,97.6-347.5,97.6H2706.80005v41.4H2932.1001c244.5,0,460.5-51.3,460.5-139Z" transform="translate(0 0.1)" style="fill:#fff"/></svg>