<svg id="Layer_1" data-name="Layer 1" xmlns="http://www.w3.org/2000/svg" xmlns:xlink="http://www.w3.org/1999/xlink" viewBox="0 0 3839.00221 773.36005"><defs><linearGradient id="Dégradé_sans_nom" x1="342.70391" y1="168.4198" x2="342.70391" y2="615.37982" gradientTransform="matrix(1, 0, 0, -1, 0, 773.88983)" gradientUnits="userSpaceOnUse"><stop offset="0" stop-color="#7f5923"/><stop offset="0.1445" stop-color="#ad8237"/><stop offset="0.2786" stop-color="#dab056"/><stop offset="0.4222" stop-color="#e8d97f"/><stop offset="0.5487" stop-color="#d2b664"/><stop offset="0.6888" stop-color="#c39346"/><stop offset="0.8446" stop-color="#d3b461"/><stop offset="1" stop-color="#e9dc81"/></linearGradient><linearGradient id="Dégradé_sans_nom_2" x1="342.70391" y1="615.39983" x2="342.70391" y2="168.4198" xlink:href="#Dégradé_sans_nom"/><linearGradient id="Dégradé_sans_nom_3" x1="1538.47491" y1="168.41986" x2="1538.47491" y2="615.39983" xlink:href="#Dégradé_sans_nom"/><linearGradient id="Dégradé_sans_nom_4" x1="1538.4649" y1="615.39983" x2="1538.4649" y2="168.41986" xlink:href="#Dégradé_sans_nom"/><linearGradient id="Dégradé_sans_nom_5" x1="2900.19006" y1="168.42981" x2="2900.19006" y2="615.39983" gradientTransform="matrix(1, 0, 0, -1, 0.00221, 773.88983)" xlink:href="#Dégradé_sans_nom"/><linearGradient id="Dégradé_sans_nom_6" x1="2900.19006" y1="615.39983" x2="2900.19006" y2="168.42981" xlink:href="#Dégradé_sans_nom"/><linearGradient id="Dégradé_sans_nom_7" x1="1802.07996" y1="168.42981" x2="1802.07996" y2="615.39983" gradientTransform="matrix(1, 0, 0, -1, 0.00221, 773.88983)" xlink:href="#Dégradé_sans_nom"/><linearGradient id="Dégradé_sans_nom_8" x1="1802.07996" y1="615.39983" x2="1802.07996" y2="168.42981" xlink:href="#Dégradé_sans_nom"/><linearGradient id="Dégradé_sans_nom_9" x1="2463.65002" y1="168.42981" x2="2463.65002" y2="615.39983" gradientTransform="matrix(1, 0, 0, -1, 0.00221, 773.88983)" xlink:href="#Dégradé_sans_nom"/><linearGradient id="Dégradé_sans_nom_10" x1="2463.65002" y1="615.39983" x2="2463.65002" y2="168.42981" xlink:href="#Dégradé_sans_nom"/><linearGradient id="Dégradé_sans_nom_11" x1="1073.86496" y1="168.40991" x2="1073.86496" y2="619.8698" xlink:href="#Dégradé_sans_nom"/><linearGradient id="Dégradé_sans_nom_12" x1="1073.86496" y1="619.87984" x2="1073.86496" y2="168.40991" xlink:href="#Dégradé_sans_nom"/><linearGradient id="Dégradé_sans_nom_13" x1="2126.96497" y1="0.52979" x2="2126.96497" y2="773.88983" xlink:href="#Dégradé_sans_nom"/><linearGradient id="Dégradé_sans_nom_14" x1="2126.96497" y1="773.88983" x2="2126.96497" y2="0.52979" xlink:href="#Dégradé_sans_nom"/><linearGradient id="Dégradé_sans_nom_15" x1="2681.9198" y1="168.42987" x2="2681.9198" y2="615.38985" xlink:href="#Dégradé_sans_nom"/><linearGradient id="Dégradé_sans_nom_16" x1="2681.90991" y1="615.39983" x2="2681.90991" y2="168.43976" xlink:href="#Dégradé_sans_nom"/><linearGradient id="Dégradé_sans_nom_17" x1="3192.92993" y1="161.28979" x2="3192.92993" y2="621.80983" xlink:href="#Dégradé_sans_nom"/><linearGradient id="Dégradé_sans_nom_18" x1="3192.92993" y1="621.80983" x2="3192.92993" y2="161.28979" xlink:href="#Dégradé_sans_nom"/><linearGradient id="Dégradé_sans_nom_19" x1="3630.12" y1="168.41974" x2="3630.12" y2="628.34003" xlink:href="#Dégradé_sans_nom"/><linearGradient id="Dégradé_sans_nom_20" x1="3630.12" y1="628.33983" x2="3630.12" y2="168.41974" xlink:href="#Dégradé_sans_nom"/></defs><path d="M644.94,535.91V502.8A106.67731,106.67731,0,0,0,538.38,396.24H492.11a12.305,12.305,0,0,1,0-24.61h46.27a106.56,106.56,0,1,0,0-213.12H455.92A106.68587,106.68587,0,0,0,349.35,265.07V535.92a15.857,15.857,0,0,1-15.84,15.84H226.72a173.927,173.927,0,0,1-121.07-48.71c-32.73-31.45-51.17-73.41-51.91-118.14a169.76575,169.76575,0,0,1,169.74-172.68h84.47v-53.72H223.48A223.47929,223.47929,0,0,0,.03,385.79c.99,59.15,25.28,114.54,68.4,155.98a227.35253,227.35253,0,0,0,158.29,63.7H333.51a69.63944,69.63944,0,0,0,69.56-69.56V265.06a52.90122,52.90122,0,0,1,52.84-52.84h82.46a52.84,52.84,0,1,1,0,105.68H492.1a66.025,66.025,0,1,0,0,132.05h46.27a52.90123,52.90123,0,0,1,52.84,52.84V535.9a69.63946,69.63946,0,0,0,69.56,69.56h24.64V551.74H660.77A15.8398,15.8398,0,0,1,644.94,535.91Z" transform="translate(0.00221 0)" style="fill:url(#Dégradé_sans_nom)"/><path d="M538.38,164.49a100.56,100.56,0,1,1,0,201.12H492.11a18.305,18.305,0,0,0,0,36.61h46.27A100.67255,100.67255,0,0,1,638.94,502.78v33.11a21.86814,21.86814,0,0,0,21.84,21.84h18.64v41.72H660.78a63.62828,63.62828,0,0,1-63.56-63.56V502.8a58.906,58.906,0,0,0-58.84-58.84H492.11a60.025,60.025,0,1,1,0-120.05h46.27a58.84,58.84,0,1,0,0-117.68H455.92a58.906,58.906,0,0,0-58.84,58.84V535.92a63.62828,63.62828,0,0,1-63.56,63.56H226.72A221.42492,221.42492,0,0,1,72.59,537.46C30.63,497.14,6.99,443.24,6.03,385.7A217.48679,217.48679,0,0,1,223.48,164.5h78.47v41.72H223.48A175.77553,175.77553,0,0,0,47.73,385c.77,46.34,19.86,89.8,53.75,122.37A179.87507,179.87507,0,0,0,226.7,557.76H333.49a21.86809,21.86809,0,0,0,21.84-21.84V265.06A100.67468,100.67468,0,0,1,455.9,164.5h82.48m0-6.01H455.92A106.68586,106.68586,0,0,0,349.35,265.05V535.9a15.857,15.857,0,0,1-15.84,15.84H226.72a173.927,173.927,0,0,1-121.07-48.71c-32.73-31.45-51.17-73.41-51.91-118.14a169.76575,169.76575,0,0,1,169.74-172.68h84.47v-53.72H223.48A223.47986,223.47986,0,0,0,.03,385.79c.99,59.15,25.28,114.54,68.4,155.98a227.35253,227.35253,0,0,0,158.29,63.7H333.51a69.63944,69.63944,0,0,0,69.56-69.56V265.06a52.90122,52.90122,0,0,1,52.84-52.84h82.46a52.84,52.84,0,1,1,0,105.68H492.1a66.025,66.025,0,1,0,0,132.05h46.27a52.90123,52.90123,0,0,1,52.84,52.84V535.9a69.63946,69.63946,0,0,0,69.56,69.56h24.64V551.74H660.77a15.857,15.857,0,0,1-15.84-15.84V502.8A106.67731,106.67731,0,0,0,538.37,396.24H492.1a12.305,12.305,0,0,1,0-24.61h46.27a106.57,106.57,0,0,0,.01-213.14Z" transform="translate(0.00221 0)" style="fill:url(#Dégradé_sans_nom_2)"/><path d="M1548.82,228.05V539.44a12.30005,12.30005,0,0,1-24.6001,0V228.05a69.63939,69.63939,0,0,0-69.55994-69.56H1341.84v53.72h112.81994a15.8569,15.8569,0,0,1,15.84,15.84V539.44a66.03,66.03,0,0,0,132.06006-.00006V228.05a15.85689,15.85689,0,0,1,15.84-15.84h116.71V158.49h-116.71A69.64372,69.64372,0,0,0,1548.82,228.05Z" transform="translate(0.00221 0)" style="fill:url(#Dégradé_sans_nom_3)"/><path d="M1729.08,164.49v41.72H1618.37a21.868,21.868,0,0,0-21.84,21.84V539.44a60.03,60.03,0,0,1-120.06006-.00006V228.05a21.86812,21.86812,0,0,0-21.84-21.84H1347.81006V164.49H1454.63a63.62827,63.62827,0,0,1,63.56006,63.56V539.44a18.30005,18.30005,0,0,0,36.6001,0V228.05a63.62827,63.62827,0,0,1,63.56006-63.56H1729.08m6-6H1618.37a69.63939,69.63939,0,0,0-69.55994,69.56V539.44a12.30005,12.30005,0,0,1-24.6001,0V228.05a69.63942,69.63942,0,0,0-69.56006-69.56H1341.83v53.72H1454.6499a15.8569,15.8569,0,0,1,15.84,15.84V539.44a66.03,66.03,0,0,0,132.06006-.00006V228.05a15.85689,15.85689,0,0,1,15.84-15.84h116.71V158.49Z" transform="translate(0.00221 0)" style="fill:url(#Dégradé_sans_nom_4)"/><rect x="2873.33229" y="158.49001" width="53.71997" height="446.97002" style="fill:url(#Dégradé_sans_nom_5)"/><path d="M2921.05005,164.49V599.46h-41.72V164.49h41.72m6-6h-53.72V605.46h53.72V158.49Z" transform="translate(0.00221 0)" style="fill:url(#Dégradé_sans_nom_6)"/><rect x="1775.22218" y="158.49001" width="53.71997" height="446.97002" style="fill:url(#Dégradé_sans_nom_7)"/><path d="M1822.93994,164.49V599.46h-41.72V164.49h41.72m6-6h-53.72V605.46h53.72V158.49Z" transform="translate(0.00221 0)" style="fill:url(#Dégradé_sans_nom_8)"/><rect x="2436.79225" y="158.49001" width="53.71997" height="446.97002" style="fill:url(#Dégradé_sans_nom_9)"/><path d="M2484.51,164.49V599.46h-41.72V164.49h41.72m6-6h-53.72V605.46h53.72V158.49Z" transform="translate(0.00221 0)" style="fill:url(#Dégradé_sans_nom_10)"/><path d="M1386.16,541.25l-17.89-49.97a70.99194,70.99194,0,0,0-66.68-46.95H1196.85a12.3,12.3,0,1,1,0-24.6h51.91A66.11291,66.11291,0,0,0,1311,331.34l-45.34-126.65a76.44687,76.44687,0,0,0-143.93994,0l-121.06,338.09a13.55394,13.55394,0,0,1-12.74,8.97H815.96a52.91188,52.91188,0,0,1-52.85-52.85V462.19a12.25064,12.25064,0,0,1,12.23-12.24H902.82a66.03532,66.03532,0,0,0,65.96-65.96v-.14a66.03533,66.03533,0,0,0-65.96-65.96H775.35a12.24421,12.24421,0,0,1-12.23-12.24v-40.6a52.91191,52.91191,0,0,1,52.85-52.85H968.83V158.48H815.96A106.69443,106.69443,0,0,0,709.39,265.05v40.6a66.03533,66.03533,0,0,0,65.96,65.96H902.83a12.24421,12.24421,0,0,1,12.23,12.24V384a12.24211,12.24211,0,0,1-12.23,12.23H775.35a66.03533,66.03533,0,0,0-65.96,65.96V498.9A106.69442,106.69442,0,0,0,815.96,605.47H987.92a67.41171,67.41171,0,0,0,63.32-44.58L1172.30005,222.8c5-13.97,17.64-15.06,21.39-15.06s16.39,1.09,21.39,15.06l45.34,126.64a12.38924,12.38924,0,0,1-11.66,16.57h-51.91a66.025,66.025,0,1,0,0,132.05h104.74a17.1479,17.1479,0,0,1,16.1,11.34l17.89,49.97a69.70883,69.70883,0,0,0,65.49,46.11h37.27v-53.72h-37.27A15.89743,15.89743,0,0,1,1386.16,541.25Z" transform="translate(0.00221 0)" style="fill:url(#Dégradé_sans_nom_11)"/><path d="M1193.68994,160.01a69.71736,69.71736,0,0,1,66.32,46.7l45.34,126.64a60.10274,60.10274,0,0,1-56.59,80.37h-51.91a18.3,18.3,0,1,0,0,36.6h104.74a64.97085,64.97085,0,0,1,61.03,42.97l17.89,49.97a21.88609,21.88609,0,0,0,20.56006,14.48h31.27v41.72h-31.27a63.7072,63.7072,0,0,1-59.84-42.13l-17.89-49.97a23.15933,23.15933,0,0,0-21.75-15.32H1196.85a60.025,60.025,0,1,1,0-120.05h51.91a18.38761,18.38761,0,0,0,17.31006-24.58l-45.34-126.64c-5.03-14.04-17.26-19.04-27.04-19.04s-22.01,5-27.04,19.04L1045.59009,558.86a61.39564,61.39564,0,0,1-57.67,40.61H815.96A100.68323,100.68323,0,0,1,715.39,498.9V462.19a60.03057,60.03057,0,0,1,59.96-59.96H902.83A18.25328,18.25328,0,0,0,921.06,384v-.14a18.26184,18.26184,0,0,0-18.23-18.24H775.35a60.03057,60.03057,0,0,1-59.96-59.96v-40.6A100.68968,100.68968,0,0,1,815.96,164.49H962.82v41.72H815.96a58.91661,58.91661,0,0,0-58.85,58.85v40.6a18.26183,18.26183,0,0,0,18.23,18.24H902.82a60.03057,60.03057,0,0,1,59.96,59.96V384a60.03057,60.03057,0,0,1-59.96,59.96H775.35a18.2554,18.2554,0,0,0-18.23,18.24v36.71a58.91663,58.91663,0,0,0,58.85,58.85H987.93a19.56538,19.56538,0,0,0,18.39-12.95l121.06-338.09a69.69108,69.69108,0,0,1,66.30994-46.71m0-6a75.65041,75.65041,0,0,0-71.97,50.67L1000.66,542.77a13.55392,13.55392,0,0,1-12.74,8.97H815.96a52.91188,52.91188,0,0,1-52.85-52.85V462.18a12.25064,12.25064,0,0,1,12.23-12.24H902.82a66.03532,66.03532,0,0,0,65.96-65.96v-.14a66.03533,66.03533,0,0,0-65.96-65.96H775.35a12.24421,12.24421,0,0,1-12.23-12.24v-40.6a52.91191,52.91191,0,0,1,52.85-52.85H968.83V158.47H815.96A106.69443,106.69443,0,0,0,709.39,265.04v40.6a66.03533,66.03533,0,0,0,65.96,65.96H902.83a12.24421,12.24421,0,0,1,12.23,12.24V384a12.24211,12.24211,0,0,1-12.23,12.23H775.35a66.03533,66.03533,0,0,0-65.96,65.96V498.9A106.69442,106.69442,0,0,0,815.96,605.47H987.92a67.41171,67.41171,0,0,0,63.32-44.58L1172.30005,222.8c5-13.97,17.64-15.06,21.39-15.06s16.39,1.09,21.39,15.06l45.34,126.64a12.38924,12.38924,0,0,1-11.66,16.57h-51.91a66.025,66.025,0,1,0,0,132.05h104.74a17.1479,17.1479,0,0,1,16.1,11.34l17.89,49.97a69.70883,69.70883,0,0,0,65.49,46.11h37.27v-53.72h-37.27a15.87474,15.87474,0,0,1-14.91-10.5l-17.89-49.97a70.992,70.992,0,0,0-66.68006-46.95h-104.74a12.3,12.3,0,1,1,0-24.6h51.91a66.11291,66.11291,0,0,0,62.24-88.39l-45.34-126.65a75.65086,75.65086,0,0,0-71.97-50.68993Z" transform="translate(0.00221 0)" style="fill:url(#Dégradé_sans_nom_12)"/><path d="M2447.15991,0h-35.53a69.55946,69.55946,0,0,0-66.64013,49.65L2149.97,702.5c-4.75,15.9-18.81006,17.14-23.01,17.14s-18.26-1.24-23.01-17.14l-195-652.85A69.55917,69.55917,0,0,0,1842.30005,0h-35.53V53.72h35.53a15.92358,15.92358,0,0,1,15.17,11.3L2052.48,717.87a76.77869,76.77869,0,0,0,29.67993,41.59,79.1457,79.1457,0,0,0,89.6001,0,76.70624,76.70624,0,0,0,29.67993-41.59L2396.45,65.02a15.92941,15.92941,0,0,1,15.16992-11.3h35.53V0Z" transform="translate(0.00221 0)" style="fill:url(#Dégradé_sans_nom_13)"/><path d="M2441.15991,6V47.72h-29.53A21.96613,21.96613,0,0,0,2390.71,63.31L2195.7,716.16a70.8294,70.8294,0,0,1-27.36011,38.38,73.14444,73.14444,0,0,1-82.73022,0,70.72989,70.72989,0,0,1-27.36011-38.38L1863.22,63.31a21.96628,21.96628,0,0,0-20.92-15.59h-29.53V6h29.53a63.56314,63.56314,0,0,1,60.9,45.37l195.01,652.85c4.72,15.79,17.94995,21.42,28.76,21.42s24.04-5.63,28.75-21.42L2350.73,51.37A63.56285,63.56285,0,0,1,2411.62988,6h29.53m6-6h-35.53a69.55946,69.55946,0,0,0-66.64013,49.65L2149.97,702.5c-4.75,15.9-18.81006,17.14-23.01,17.14s-18.26-1.24-23.01-17.14l-195-652.85A69.55917,69.55917,0,0,0,1842.30005,0h-35.53V53.72h35.53a15.92358,15.92358,0,0,1,15.17,11.3L2052.48,717.87a76.77869,76.77869,0,0,0,29.67993,41.59,77.93174,77.93174,0,0,0,44.79,13.9h.01a77.963,77.963,0,0,0,44.8-13.9,76.70624,76.70624,0,0,0,29.67993-41.59L2396.45,65.02a15.92941,15.92941,0,0,1,15.16992-11.3h35.53V0Z" transform="translate(0.00221 0)" style="fill:url(#Dégradé_sans_nom_14)"/><path d="M2705.22,355.12h-46.6001a71.45,71.45,0,0,1,0-142.9h165.31006V158.5H2658.61987a125.17,125.17,0,0,0,0,250.34H2705.22a71.45,71.45,0,0,1,0,142.9H2539.33984v53.72h165.87989a125.17,125.17,0,0,0,.00024-250.34Z" transform="translate(0.00221 0)" style="fill:url(#Dégradé_sans_nom_15)"/><path d="M2817.91992,164.49v41.72H2658.60986a77.45,77.45,0,0,0,0,154.9H2705.21a119.17,119.17,0,0,1,0,238.34H2545.33008V557.73H2705.21a77.45,77.45,0,0,0,0-154.9h-46.6001a119.17,119.17,0,0,1,0-238.34l159.31006,0m6-6H2658.60986a125.17,125.17,0,0,0,0,250.34H2705.21a71.45,71.45,0,0,1,0,142.9H2539.33008v53.72H2705.21a125.17,125.17,0,0,0,0-250.34h-46.6001a71.45,71.45,0,0,1,0-142.9h165.31006V158.49Z" transform="translate(0.00221 0)" style="fill:url(#Dégradé_sans_nom_16)"/><path d="M3355.75,219.52a230.26787,230.26787,0,1,0,67.43994,162.82A228.74671,228.74671,0,0,0,3355.75,219.52ZM3192.92993,557.24C3096.48,557.24,3018.02,478.78,3018.02,382.33s78.46-174.91,174.90991-174.91,174.90991,78.46,174.90991,174.91C3367.84009,478.78,3289.37012,557.24,3192.92993,557.24Z" transform="translate(0.00221 0)" style="fill:url(#Dégradé_sans_nom_17)"/><path d="M3192.92993,158.08a224.24548,224.24548,0,1,1-158.58008,65.68,222.79582,222.79582,0,0,1,158.58008-65.68m0,405.16c99.75,0,180.90991-81.16,180.90991-180.91s-81.15991-180.91-180.90991-180.91S3012.02,282.58,3012.02,382.33c0,99.76,81.15991,180.91,180.90991,180.91m0-411.16A230.25449,230.25449,0,1,0,3355.75,219.52a228.74671,228.74671,0,0,0-162.82007-67.44Zm0,405.16C3096.48,557.24,3018.02,478.78,3018.02,382.33s78.46-174.91,174.90991-174.91,174.90991,78.46,174.90991,174.91c.00025,96.45-78.46972,174.91-174.90991,174.91Z" transform="translate(0.00221 0)" style="fill:url(#Dégradé_sans_nom_18)"/><path d="M3814.36011,158.49a69.63942,69.63942,0,0,0-69.56006,69.56V536.86a14.87922,14.87922,0,0,1-28.88989,5.01L3589.67993,189.3c-11.01-30.74-41.1499-48.31-73.33008-42.72-32.16992,5.58-54.62988,32.29-54.62988,64.94V535.91a15.857,15.857,0,0,1-15.84009,15.84H3421.24v53.72h24.63989a69.63943,69.63943,0,0,0,69.56006-69.56v-324.39c0-8.92,6.33008-11.35,10.1001-12.01s10.55005-.5,13.56006,7.9l126.24,352.58a68.60212,68.60212,0,0,0,133.19018-23.12V228.05a15.857,15.857,0,0,1,15.84009-15.84H3839V158.49Z" transform="translate(0.00221 0)" style="fill:url(#Dégradé_sans_nom_19)"/><path d="M3528.18994,151.55c25.27,0,47.17993,15.61,55.83008,39.77L3710.26,543.9a20.8814,20.8814,0,0,0,40.53979-7.04V228.05a63.62827,63.62827,0,0,1,63.56006-63.56H3833v41.72h-18.63989A21.86815,21.86815,0,0,0,3792.52,228.05V536.86a62.60188,62.60188,0,0,1-121.54,21.1L3544.74,205.38c-2.76-7.7-8.78-12.11-16.53-12.11a21.28607,21.28607,0,0,0-3.7.33c-9.43994,1.64-15.08008,8.34-15.08008,17.92V535.91a63.62829,63.62829,0,0,1-63.56006,63.56H3427.23V557.75h18.63989A21.86815,21.86815,0,0,0,3467.71,535.91V211.52c0-29.68,20.41992-53.95,49.65991-59.02a62.95959,62.95959,0,0,1,10.82007-.95m0-6a69.40194,69.40194,0,0,0-11.84009,1.03c-32.16992,5.58-54.62988,32.29-54.62988,64.94V535.91a15.857,15.857,0,0,1-15.84009,15.84H3421.24v53.72h24.63989a69.63943,69.63943,0,0,0,69.56006-69.56v-324.39c0-8.92,6.33008-11.35,10.1001-12.01a15.21227,15.21227,0,0,1,2.66992-.24c3.75,0,8.5,1.48,10.87988,8.14l126.24,352.58a68.60213,68.60213,0,0,0,133.19019-23.12V228.05a15.857,15.857,0,0,1,15.84009-15.84H3839V158.49h-24.63989a69.63942,69.63942,0,0,0-69.56006,69.56V536.86a14.87922,14.87922,0,0,1-28.88989,5.01L3589.67993,189.3c-9.63989-26.92-33.97-43.75-61.49-43.75Z" transform="translate(0.00221 0)" style="fill:url(#Dégradé_sans_nom_20)"/></svg>