<svg id="Layer_1" data-name="Layer 1" xmlns="http://www.w3.org/2000/svg" viewBox="0 0 3839 1907.09998"><path d="M1634.4,0h318.9C2128.7,0,2206.7,65.5,2206.7,244.2V375.9c0,172.1-55.3999,253.4-230.7,253.4H1634.5L1634.4,0ZM1802.2,483.4h146.9c62.1,0,84.8-41.1,84.8-107.4V244.2c0-81.4-26-98.2-84.8-98.2H1802.2Z" transform="translate(0 0)" style="fill:#ff0c00"/><path d="M2405.5,521.1l-31.1001,108.3H2199.7998L2388.7,0h255.1001L2835.2,629.3H2664l-32.7-108.3H2405.5Zm114.1001-395.2h-1.7l-76.39991,272.7h156.1001Z" transform="translate(0 0)" style="fill:#ff0c00"/><path d="M3099.6001,629.3H2931.7002V146h-161.2V0h498.6001V146h-169.6001V629.3Z" transform="translate(0 0)" style="fill:#ff0c00"/><path d="M3409.30005,521.1,3378.2,629.4h-174.6001L3392.6001,0h255.1001L3839,629.3h-171.2L3635,521h-225.7Zm114.2-395.2h-1.7l-76.3999,272.7h156.10009Z" transform="translate(0 0)" style="fill:#ff0c00"/><path d="M1802.30005,1015.3h268.5V1132h-268.5v122.5h292V1392.2H1634.4V762.8H2088.3999V900.5h-286.1v114.8Z" transform="translate(0 0)" style="fill:#ff0c00"/><path d="M2337.1001,1285,2306,1393.30005H2131.3999l188.8999-629.3h255.1001l191.3999,629.3H2595.59985L2562.8999,1285Zm114.19995-395.2h-1.69995l-76.3999,272.7h156.10009Z" transform="translate(0 0)" style="fill:#ff0c00"/><path d="M3085.6001,1010.6C3271.90015,1024,3318,1047.5,3318,1191.9c0,104.1,4.2,206.4-272.7,206.4-160.3,0-266.8-3.4-266.8-209.69995h161.2c0,65.5,23.5,72.19995,105.8,72.19995,78.8999,0,104.8999-5,104.8999-57.9,0-54.6-9.19995-53.69995-88.1001-58.8l-36.8999-2.5c-155.3-10.9-245.8-10.1-245.8-190.5s101.39991-192.3,265.8-192.3c137.7,0,255.1001,2.5,255.1001,176.3v26h-161.2c0-64.6-26.8999-64.6-94-64.6-90.69995,0-98.19995,18.5-98.19995,53.7,0,50.4,24.3,52,68.8,55.4Z" transform="translate(0 0)" style="fill:#ff0c00"/><path d="M3669.3999,1393.2H3501.5V909.9h-161.2v-146H3839v146H3669.3999Z" transform="translate(0 0)" style="fill:#ff0c00"/><path d="M41.8,252.7c-14.1,0-28.1.7-41.8,2v888.8c13.8,1.30005,27.7,2,41.8,2,246.1,0,446.4-200.2,446.4-446.4S288,252.7,41.8,252.7Z" transform="translate(0 0)" style="fill:#ff0c00"/><path d="M41.8,0C27.8,0,13.9.5,0,1.4V187.3c13.8-1.1,27.7-1.8,41.8-1.8,283.3,0,513.8,230.4,513.8,513.8S325.1,1213,41.8,1213c-14.1,0-28-.69995-41.8-1.80005V1397c13.9.80005,27.8,1.4,41.8,1.4,386.1,0,699.1-313,699.1-699.1S428,0,41.8,0Z" transform="translate(0 0)" style="fill:#ff0c00"/><path d="M1425,1398.2c14.1,0,28-.5,41.80005-1.4V1211c-13.80005,1.1-27.69995,1.80005-41.80005,1.80005-283.30005,0-513.8-230.4-513.8-513.8s230.4-513.8,513.8-513.8c14.1,0,28,.7,41.80005,1.8V1.4C1452.9.6,1439,0,1425,0,1038.9,0,725.9,313,725.9,699.1S1038.9,1398.2,1425,1398.2Z" transform="translate(0 0)" style="fill:#ff0c00"/><path d="M1466.80005,665.6V254.7c-13.80005-1.3-27.69995-2-41.80005-2C1190.2,252.7,997.2,435.1,980,665.6Z" transform="translate(0 0)" style="fill:#ff0c00"/><path d="M980,732.6c17.2,230.5,210.1,412.9,445,412.9,14.1,0,28.1-.69995,41.80005-2V732.6Z" transform="translate(0 0)" style="fill:#ff0c00"/><path d="M873.2,1907.1c-90.9,0-157.9-71.5-157.9-162.4,0-90,66.6-163.30005,159.3-163.30005,57.1,0,91.3,20.2,122.8,49.9l-24.3,26.1C946.6,1632.2,916.9,1614.2,874.1,1614.2c-69.7,0-121.9,56.19995-121.9,129.6s52.6,130.5,121.9,130.5c43.2,0,71.5-16.6,101.7-45.4l23.4,23C966.2,1885.1,930.3,1907.1,873.2,1907.1Z" transform="translate(0 0)" style="fill:#fff"/><path d="M1074.7,1586.80005h35.5v282H1287.5v32.80005H1074.80005V1586.80005Z" transform="translate(0 0)" style="fill:#fff"/><path d="M1660,1901.7h-38.19995L1584.9,1818.5H1413.5L1376.2,1901.7h-36.6l143.5-317.1h33.3ZM1499.4,1626l-72,160.6h143.5Z" transform="translate(0 0)" style="fill:#fff"/><path d="M1842.2,1727.2c70.19995,15.30005,102.6,40.9,102.6,89.5,0,54.5-45,89.5-107.5,89.5-49.9,0-90.9-16.69995-128.69995-50.4l22-26.1c32.8,29.69995,64.3,44.5,108,44.5,42.3,0,70.19995-22,70.19995-54,0-29.69995-15.8-46.30005-81.9-60.30005-72.4-15.8-105.69995-39.1-105.69995-91.3,0-50.4,43.6-86.4,103.5-86.4,45.9,0,78.69995,13,110.69995,38.69995l-20.69995,27.4c-29.19995-23.8-58.5-34.19995-90.9-34.19995-40.9,0-67,22.5-67,51.3C1756.7,1695.7,1772.9,1712.4,1842.2,1727.2Z" transform="translate(0 0)" style="fill:#fff"/><path d="M2139.1001,1727.2c70.19995,15.30005,102.6001,40.9,102.6001,89.5,0,54.5-45,89.5-107.5,89.5-49.89991,0-90.9-16.69995-128.7-50.4l22-26.1c32.80005,29.69995,64.30005,44.5,108,44.5,42.30005,0,70.2-22,70.2-54,0-29.69995-15.80005-46.30005-81.89991-60.30005-72.3999-15.8-105.7-39.1-105.7-91.3,0-50.4,43.6001-86.4,103.5-86.4,45.8999,0,78.7,13,110.7,38.69995l-20.7,27.4c-29.2-23.8-58.5-34.19995-90.8999-34.19995-40.8999,0-67,22.5-67,51.3C2053.7,1695.7,2069.8999,1712.4,2139.1001,1727.2Z" transform="translate(0 0)" style="fill:#fff"/><path d="M2366.30005,1586.80005v314.9h-35.5v-314.9Z" transform="translate(0 0)" style="fill:#fff"/><path d="M2616,1907.1c-90.8999,0-157.8999-71.5-157.8999-162.4,0-90,66.6001-163.30005,159.3-163.30005,57.10009,0,91.30005,20.2,122.80005,49.9l-24.30005,26.1c-26.5-25.19995-56.19995-43.19995-99-43.19995-69.69995,0-121.89991,56.19995-121.89991,129.6s52.6001,130.5,121.89991,130.5c43.2,0,71.5-16.6,101.7-45.4l23.3999,23C2709.1001,1885.1,2673.1001,1907.1,2616,1907.1Z" transform="translate(0 0)" style="fill:#fff"/><path d="M2930.3999,1727.2C3000.59985,1742.5,3033,1768.1,3033,1816.7c0,54.5-45,89.5-107.5,89.5-49.8999,0-90.8999-16.69995-128.7-50.4l22-26.1c32.80005,29.69995,64.30005,44.5,108,44.5,42.30005,0,70.2-22,70.2-54,0-29.69995-15.8-46.30005-81.8999-60.30005-72.3999-15.8-105.7-39.1-105.7-91.3,0-50.4,43.60009-86.4,103.5-86.4,45.8999,0,78.7,13,110.7,38.69995l-20.7,27.4c-29.19995-23.8-58.5-34.19995-90.89991-34.19995-40.8999,0-67,22.5-67,51.3C2845,1695.7,2861.2,1712.4,2930.3999,1727.2Z" transform="translate(0 0)" style="fill:#fff"/></svg>