<svg id="Layer_1" data-name="Layer 1" xmlns="http://www.w3.org/2000/svg" xmlns:xlink="http://www.w3.org/1999/xlink" viewBox="0 0 3840.1001 520"><defs><linearGradient id="Dégradé_sans_nom" x1="1104" y1="259.93983" x2="3177.5" y2="259.93983" gradientTransform="matrix(1, 0, 0, -1, 0, 519.88983)" gradientUnits="userSpaceOnUse"><stop offset="0.1596" stop-color="#ea2427"/><stop offset="0.5303" stop-color="#ffcc05"/><stop offset="0.7318" stop-color="#6dbd46"/><stop offset="1" stop-color="#46a2da"/></linearGradient></defs><path d="M3559.5,238.1c-5.2-91,51.3999-143.3,140.5-143.3,80.5,0,135.3,33.8,135.3,104.3,0,84.8-82.8999,111.4-145.19995,149.5v.5h150v81h-287.2a124.65143,124.65143,0,0,1,23.80005-81.9c27.60009-38.6,75.19995-63.8,117.60009-89.5,17.1001-10.5,44.8-23.8,44.8-48.1,0-30-17.6001-40.5-40-40.5-38.1001,0-51,27.6-50,68.1H3559.5Z" transform="translate(0 0)" style="fill:#fff"/><path d="M2742,460.6h23.5c17.5,0,25.1001,12.7,25.1001,28.4S2783,517.4,2765.5,517.4H2742Zm10,48.7h9.8c15.6001,0,18.8999-8.9,18.8999-20.3s-3.30005-20.3-18.8999-20.3H2752Z" transform="translate(0 0)" style="fill:#fff"/><path d="M2826.5,460.6h10.6001L2859,517.4h-10.7l-5.3-15h-22.7l-5.3,15h-10.3Zm-3.5,34.2h17.3l-8.5-24.4h-.19995Z" transform="translate(0 0)" style="fill:#fff"/><path d="M2863.6001,460.6h46v8.6H2891.5v48.2h-9.8999V469.2h-18Z" transform="translate(0 0)" style="fill:#fff"/><path d="M2935.8999,460.6H2946.5l21.8999,56.8H2957.7l-5.30005-15H2929.7l-5.30005,15h-10.3Zm-3.5,34.2H2949.7l-8.5-24.4h-.2Z" transform="translate(0 0)" style="fill:#fff"/><path d="M3019.7,460.6h9.8999v48.2h28.89991v8.6h-38.80005V460.6Z" transform="translate(0 0)" style="fill:#fff"/><path d="M3064.5,460.6h46v8.6h-18.1001v48.2H3082.5V469.2h-18Z" transform="translate(0 0)" style="fill:#fff"/><path d="M3129,460.6h23.5c17.5,0,25.1001,12.7,25.1001,28.4S3170,517.4,3152.5,517.4H3129Zm9.8999,48.7H3148.7c15.6001,0,18.8999-8.9,18.8999-20.3s-3.30005-20.3-18.8999-20.3h-9.80005Z" transform="translate(0 0)" style="fill:#fff"/><path d="M3181.8999,506.7H3193v10.7h-11.1001Z" transform="translate(0 0)" style="fill:#fff"/><polygon points="452.5 443.7 408.4 520 384.7 520 428.8 443.7 452.5 443.7" style="fill:#ec2224"/><path d="M542.7,287.3,645.4,109.5a59.30016,59.30016,0,0,1,51.4-29.7H914.9l11.8-20.5H697.3a81.05165,81.05165,0,0,0-69.9,40.4l-38.8,67.1-1.2,2-68.4,118.5Z" transform="translate(0 0)" style="fill:#ec2224"/><path d="M960.9,0H697.3A140.13559,140.13559,0,0,0,576,70l-38.8,67.1-1.2,2L450.5,287.2h53.2L615.9,93.1a94.15547,94.15547,0,0,1,81.4-47H934.4Z" transform="translate(0 0)" style="fill:#ec2224"/><path d="M664.3,195.5H848.1L907.2,93.2H696.8a46.06935,46.06935,0,0,0-39.9,23L558.1,287.4h53.2Z" transform="translate(0 0)" style="fill:#ec2224"/><polygon points="521 443.7 476.9 520 423.8 520 467.8 443.7 521 443.7" style="fill:#ec2224"/><polygon points="360.3 443.7 316.2 520 369.4 520 413.4 443.7 360.3 443.7" style="fill:#ec2224"/><path d="M135.3,195.5H261L243.9,225C190,318.4,257.4,435.1,365.2,435.1H892.6l-49,84.9h53.2l35.7-61.9a46,46,0,0,0-39.9-69H365.2a94,94,0,0,1-81.4-141l17.1-29.6a46,46,0,0,0-39.9-69H108.8Z" transform="translate(0 0)" style="fill:#ec2224"/><path d="M81.6,102.3H259.5a94,94,0,0,1,81.4,141l-17.1,29.6a46,46,0,0,0,39.9,69H891.1a94.0433,94.0433,0,0,1,86.7,130.4L950.3,520h54l8.1-14c53.9-93.4-13.5-210.1-121.3-210.1H363.7l17.1-29.6c53.9-93.3-13.5-210-121.3-210h-1.3L227.7,86.8,197.2,56.3H55Z" transform="translate(0 0)" style="fill:#ec2224"/><polygon points="205.7 47.7 227.6 25.7 249.6 47.7 272.8 47.7 227.6 2.5 182.5 47.7 205.7 47.7" style="fill:#ec2224"/><path d="M70.2,149.5,0,123.9,40.7,98.3l10,17.3H259.5a80.75,80.75,0,0,1,69.9,121.1l-17.1,29.6a59.35,59.35,0,0,0,51.4,89H891.1A80.75,80.75,0,0,1,961,476.4L935.8,520H912.1L944,464.8a59.4,59.4,0,0,0-51.4-89.1H365.2a80.75,80.75,0,0,1-69.9-121.1L312.4,225A59.35,59.35,0,0,0,261,136H62.7Z" transform="translate(0 0)" style="fill:#ec2224"/><path d="M1276,90H1104V430h151.5c118.6,0,173.80005-66.2,173.80005-170.5C1429.30005,173.8,1389.30005,90,1276,90Zm-26.19995,252.9h-41V177.1h33.30005c75.69995,0,82.4,59.5,82.4,81C1324.6,290,1315,342.9,1249.80005,342.9Zm470.5-70.5c34.80005-12.9,51-50,51-85.2,0-64.3-51.4-97.2-111-97.2h-199.6V430h104.8V311.4h55.7c41.4,0,44.3,33.8,47.19995,66.2,1.4,17.6,3.30005,35.2,8.6,52.4h104.80005c-9.5-15.7-10-56.2-11.4-72.9C1766.5,314.8,1748.9,283.3,1720.30005,272.4Zm-100-33.8H1565.5V171h49.1c40,0,51.9,12.4,51.9,33.8C1666.5,235.2,1639.80005,238.6,1620.30005,238.6ZM1922.7,90,1797.3999,430H1902.7l15.19995-48.6H2026l14.30005,48.6h108.6001L2025.1,90Zm18.1001,218.6,32.9-104.8h1l30.5,104.8Zm387.59985,7.1h46.2c-5.2,25.2-30,37.6-54.30005,37.6-63.8,0-76.69995-55.7-76.69995-87.6,0-23.3-2.3999-99.1,69.5-99.1a49.66726,49.66726,0,0,1,49.5,42.4h100.5c-15.2-80-70-127.2-156.7-127.2-76.69995,0-167.6001,51.9-167.6001,181.5,0,96.7,61.89991,174.8,162.39991,174.8,37.10009,0,73.30005-12.9,96.7-42.9l3.3,34.8h66.2V242.9h-139.1001v72.8ZM2668,81.9c-103.3,0-172.3999,74.3-172.3999,178.1S2564.7002,438.1,2668,438.1c103.3999,0,172.3999-74.3,172.3999-178.1S2771.30005,81.9,2668,81.9Zm0,271.5c-26.7,0-67.6001-17.6-67.6001-93.3s41-93.3,67.6001-93.3c26.7,0,67.6001,17.6,67.6001,93.3S2694.7,353.4,2668,353.4ZM3078.5,90V271.9h-1L2978.5,90h-107.2V430h99.1001V244.3h1l104.2,185.7H3177.5V90Z" transform="translate(0 0)" style="fill:url(#Dégradé_sans_nom)"/><path d="M3276.6001,209c.5-39.1,16.19995-67.6,41.3999-86.7,25.2-18.6,59.5-27.6,96.7-27.6,96.19995,0,128.1001,57.1,128.1001,85.2,0,69.5-43.8,69.5-43.8,71v1c0,3.8,54.3,3.8,54.3,77.6,0,40.5-30.5,104.3-139.1001,104.3-149.1001,0-149.5-104.8-147.2-129.5h90.5c-.5,17.6,3.8,31,12.8999,39.5,9,11,22.8999,14.8,39.5,14.8,27.1001,0,44.30005-10,44.30005-37.1,0-29.1-22.3999-34.3-44.30005-34.3-13.8,0-20.5,1.4-27.6001,2.4V224.8c7.1001.5,14.80005,1.9,27.6001,1.9,20,0,45.2-4.3,45.2-30,0-21-23.80005-29-43.30005-29-25.69995,0-46.69995,13.8-45.69995,41.4H3276.6001Z" transform="translate(0 0)" style="fill:#fff"/></svg>