<svg id="Layer_1" data-name="Layer 1" xmlns="http://www.w3.org/2000/svg" xmlns:xlink="http://www.w3.org/1999/xlink" viewBox="0 0 3840 391.30002"><defs><linearGradient id="Dégradé_sans_nom" x1="672.20001" y1="231.88983" x2="2535.19995" y2="231.88983" gradientTransform="matrix(1, 0, 0, -1, 0, 391.88983)" gradientUnits="userSpaceOnUse"><stop offset="0.1596" stop-color="#ea2427"/><stop offset="0.5303" stop-color="#ffcc05"/><stop offset="0.7318" stop-color="#6dbd46"/><stop offset="1" stop-color="#46a2da"/></linearGradient></defs><path d="M2878.3999,140.4c-4.69995-81.7,46.2-128.8,126.2-128.8,72.3,0,121.5,30.4,121.5,93.7,0,76.2-74.5,100.1-130.5,134.4v.4h134.8v72.7h-258a111.72788,111.72788,0,0,1,21.3999-73.6c24.80005-34.7,67.6001-57.3,105.7-80.5,15.3999-9.4,40.19995-21.4,40.19995-43.2,0-27-15.8-36.4-35.89991-36.4-34.19995,0-45.8,24.8-44.8999,61.2h-80.5Z" transform="translate(0 0)" style="fill:#fff"/><path d="M2143.8999,340.3H2165c15.7,0,22.5,11.4,22.5,25.5s-6.8,25.5-22.5,25.5h-21.1001Zm8.90015,43.7h8.80005c14,0,17-8,17-18.2s-3-18.2-17-18.2h-8.80005Z" transform="translate(0 0)" style="fill:#fff"/><path d="M2219.80005,340.3h9.5l19.6001,51h-9.6001l-4.8-13.5h-20.3999l-4.80005,13.5h-9.19995ZM2216.7,371h15.6001L2224.7,349.1h-.2Z" transform="translate(0 0)" style="fill:#fff"/><path d="M2253.1001,340.3h41.3V348H2278.2002v43.3h-8.89991V348h-16.2v-7.7Z" transform="translate(0 0)" style="fill:#fff"/><path d="M2318.1001,340.3h9.5l19.6001,51h-9.6001l-4.80005-13.5h-20.3999l-4.8,13.5h-9.2ZM2315,371h15.6001L2323,349.1h-.2Z" transform="translate(0 0)" style="fill:#fff"/><path d="M2393.3999,340.3h8.8999v43.3h25.89991v7.7H2393.2998v-51Z" transform="translate(0 0)" style="fill:#fff"/><path d="M2433.7,340.3H2475V348h-16.2v43.3h-8.8999V348H2433.7002v-7.7Z" transform="translate(0 0)" style="fill:#fff"/><path d="M2491.6001,340.3h21.1001c15.69995,0,22.5,11.4,22.5,25.5s-6.80005,25.5-22.5,25.5h-21.1001ZM2500.5,384h8.8c14,0,17-8,17-18.2s-3-18.2-17-18.2h-8.8Z" transform="translate(0 0)" style="fill:#fff"/><path d="M2539.1001,381.7H2549v9.6h-9.8999Z" transform="translate(0 0)" style="fill:#fff"/><polygon points="265.8 268 240 312.8 226 312.8 251.9 268 265.8 268" style="fill:#ec2224"/><path d="M318.9,176.1,379.2,71.6a34.73114,34.73114,0,0,1,30.2-17.4H537.5l6.9-12H409.6a47.70235,47.70235,0,0,0-41.1,23.7l-22.8,39.4-.7,1.2-40,69.6Z" transform="translate(0 0)" style="fill:#ec2224"/><path d="M564.6,7.3H409.7a82.43151,82.43151,0,0,0-71.3,41.1L315.6,87.8l-.7,1.2-50.3,87h31.2L361.7,61.8a55.4329,55.4329,0,0,1,47.8-27.6H549Z" transform="translate(0 0)" style="fill:#ec2224"/><path d="M390.3,122.1h108L533,62H409.4A27.04769,27.04769,0,0,0,386,75.5L327.9,176.1h31.2Z" transform="translate(0 0)" style="fill:#ec2224"/><polygon points="306.1 268 280.2 312.8 249 312.8 274.9 268 306.1 268" style="fill:#ec2224"/><polygon points="211.7 268 185.8 312.8 217 312.8 242.9 268 211.7 268" style="fill:#ec2224"/><path d="M79.5,122.1h73.8l-10,17.4c-31.7,54.9,7.9,123.4,71.3,123.4H524.5l-28.8,49.9h31.2l21-36.4a27.3004,27.3004,0,0,0,0-27.1,26.95908,26.95908,0,0,0-23.4-13.5H214.6A55.2,55.2,0,0,1,166.8,153l10-17.4a27.3003,27.3003,0,0,0,0-27.1A26.95912,26.95912,0,0,0,153.4,95H63.9Z" transform="translate(0 0)" style="fill:#ec2224"/><path d="M47.9,67.4H152.4a55.2,55.2,0,0,1,47.8,82.8l-10,17.4a27.30032,27.30032,0,0,0,0,27.1,26.95914,26.95914,0,0,0,23.4,13.5H523.5a55.22325,55.22325,0,0,1,50.9,76.6l-16.2,28h31.7l4.7-8.2c31.7-54.9-7.9-123.4-71.3-123.4H213.5l10-17.4c31.7-54.9-7.9-123.4-71.3-123.4h-.8L133.5,58.3,115.6,40.4H32.3Z" transform="translate(0 0)" style="fill:#ec2224"/><polygon points="120.9 35.3 133.7 22.4 146.6 35.3 160.3 35.3 133.7 8.8 107.2 35.3 120.9 35.3" style="fill:#ec2224"/><path d="M41.3,95.1,0,80.1l23.9-15,5.9,10.2H152.5a47.4,47.4,0,0,1,41.1,71.1l-10,17.4a34.85,34.85,0,0,0,30.2,52.3H523.7a47.4,47.4,0,0,1,41.1,71.1L550,312.9H536.1l18.7-32.4a34.85,34.85,0,0,0-30.2-52.3h-310a47.4,47.4,0,0,1-41.1-71.1l10-17.4a34.85,34.85,0,0,0-30.2-52.3H36.8Z" transform="translate(0 0)" style="fill:#ec2224"/><path d="M826.7,7.3H672.2V312.8h136.1c106.5,0,156.2-59.5,156.2-153.2C964.4,82.6,928.5,7.3,826.7,7.3ZM803.1,234.5H766.3V85.6h30c68,0,74,53.5,74,72.7C870.3,187,861.7,234.5,803.1,234.5Zm422.8-63.3c31.2-11.6,45.80005-44.9,45.80005-76.6,0-57.8-46.2-87.3-99.7-87.3H992.7V312.8h94.1V206.3h50.1c37.2,0,39.80005,30.4,42.4,59.5,1.30005,15.8,3,31.7,7.69995,47.1h94.1c-8.6-14.1-9-50.5-10.30005-65.5C1267.4,209.2,1251.6,181,1225.9,171.2ZM1136,140.8h-49.19995V80h44.1c35.9,0,46.6,11.1,46.6,30.4C1177.5,137.8,1153.6,140.8,1136,140.8ZM1407.7,7.3,1295.2,312.8h94.6l13.7-43.6h97.1l12.8,43.6h97.6L1499.7,7.3ZM1424,203.7l29.5-94.1h.9l27.4,94.1Zm348.30005,6.4h41.5c-4.69995,22.7-27,33.8-48.80005,33.8-57.30005,0-68.9-50.1-68.9-78.7,0-21-2.1-89,62.5-89a44.61511,44.61511,0,0,1,44.5,38.1h90.3C1879.7,42.4,1830.5,0,1752.6,0,1683.7,0,1602,46.6,1602,163c0,86.9,55.6,157,145.9,157,33.4,0,65.9-11.6,86.9-38.5l3,31.2h59.5V144.6H1772.4v65.5ZM2077.3999,0c-92.9,0-154.9,66.8-154.9,160,0,93.3,62,160,154.9,160,92.8999,0,154.8999-66.8,154.8999-160C2232.30005,66.8,2170.30005,0,2077.3999,0Zm0,243.9c-24,0-60.8-15.8-60.8-83.9s36.8-83.9,60.8-83.9S2138.2,91.9,2138.2,160,2101.3999,243.9,2077.3999,243.9ZM2446.2,7.3V170.8h-.8999l-89-163.5H2260V312.8h89V145.9h.8999l93.7,166.9H2535.2V7.3Z" transform="translate(0 0)" style="fill:url(#Dégradé_sans_nom)"/><path d="M2624.2,114.3c.3999-35.1,14.5-60.8,37.19995-77.9,22.7-16.7,53.5-24.8,86.8999-24.8,86.39991,0,115.1001,51.3,115.1001,76.6,0,62.5-39.3999,62.5-39.3999,63.8v.9c0,3.4,48.8,3.4,48.8,69.8,0,36.4-27.3999,93.7-124.8999,93.7-133.89991,0-134.39991-94.1-132.19995-116.4h81.3c-.3999,15.8,3.39991,27.8,11.6001,35.5,8.1001,9.8,20.5,13.3,35.5,13.3,24.3999,0,39.8-9,39.8-33.4,0-26.1-20.1001-30.8-39.8-30.8-12.3999,0-18.3999,1.3-24.8,2.1V128.5c6.39991.4,13.3,1.7,24.8,1.7,18,0,40.7-3.9,40.7-27,0-18.8-21.3999-26.1-38.8999-26.1-23.1001,0-41.8999,12.4-41.1001,37.2Z" transform="translate(0 0)" style="fill:#fff"/><path d="M3268.2,0h65L3213.3999,320.1h-65Z" transform="translate(0 0)" style="fill:#fff"/><path d="M3478.8999,94.6c-1.69995-5.6-6-11.6-12.3999-16.3-6-3.9-13.7-5.1-23.1001-5.1-32.5,0-48.8,31.7-51.8,61.2,20.1001-18.4,41.89991-23.1,68.89991-23.1,57.3,0,99.69995,36.8,99.69995,95,0,73.2-51.3,110-122.39991,110-90.3,0-127.10009-68.5-127.10009-141.6,0-93.7,43.2-163,134.3999-163,64.19995,0,102.69995,24.8,112.1001,83H3478.8999Zm-81.7998,112.9c0,23.5,17.1001,41.1,40.69995,41.1,25.7,0,43.6001-18.4,43.6001-41.1,0-21-17.1001-39.4-43.6001-39.4C3414.7,168.2,3397.1001,185.3,3397.1001,207.5Z" transform="translate(0 0)" style="fill:#fff"/><path d="M3710.80005,253.8H3578.6001V173.3l136-158.3h85.19995V181H3840v72.7h-40.2v59.1h-89ZM3638,181h72.7V97.6Z" transform="translate(0 0)" style="fill:#fff"/></svg>