<svg id="Layer_1" data-name="Layer 1" xmlns="http://www.w3.org/2000/svg" xmlns:xlink="http://www.w3.org/1999/xlink" viewBox="0 0 3839.00024 458.20001"><defs><linearGradient id="Dégradé_sans_nom" x1="46.39999" y1="70.38983" x2="458.72501" y2="482.71485" gradientTransform="matrix(1, 0, 0, -1, 0, 457.88983)" gradientUnits="userSpaceOnUse"><stop offset="0" stop-color="#f2703e"/><stop offset="1" stop-color="#f89d48"/></linearGradient><linearGradient id="Dégradé_sans_nom_2" y1="366.63983" x2="554" y2="366.63983" gradientTransform="matrix(1, 0, 0, -1, 0, 457.88983)" gradientUnits="userSpaceOnUse"><stop offset="0" stop-color="#f6944a" stop-opacity="0"/><stop offset="1" stop-color="#fbc090"/></linearGradient><linearGradient id="Dégradé_sans_nom_3" x1="121.5" y1="-4.71018" x2="363.90001" y2="237.68983" xlink:href="#Dégradé_sans_nom_2"/><linearGradient id="Dégradé_sans_nom_4" x1="374.32495" y1="122.56487" x2="532.47504" y2="280.71481" xlink:href="#Dégradé_sans_nom_2"/><linearGradient id="Dégradé_sans_nom_5" x1="352.79999" y1="280.03983" x2="554" y2="280.03983" gradientTransform="matrix(1, 0, 0, -1, 0, 457.88983)" gradientUnits="userSpaceOnUse"><stop offset="0" stop-color="#e65726"/><stop offset="1" stop-color="#f26f48"/></linearGradient><linearGradient id="Dégradé_sans_nom_6" x1="403.09998" y1="93.78984" x2="503.70001" y2="194.38985" xlink:href="#Dégradé_sans_nom_5"/><linearGradient id="Dégradé_sans_nom_7" x1="184.24995" y1="-67.46018" x2="318.55006" y2="66.83982" gradientTransform="matrix(1, 0, 0, -1, 0, 457.88983)" gradientUnits="userSpaceOnUse"><stop offset="0" stop-color="#e65726"/><stop offset="1" stop-color="#f27247"/></linearGradient><linearGradient id="Dégradé_sans_nom_8" x1="98.07499" y1="18.71487" x2="137.575" y2="58.2148" xlink:href="#Dégradé_sans_nom_5"/><linearGradient id="Dégradé_sans_nom_9" x1="131.92504" y1="61.06482" x2="179.27497" y2="108.41485" xlink:href="#Dégradé_sans_nom"/><linearGradient id="Dégradé_sans_nom_10" x1="134.125" y1="150.66484" x2="243.22499" y2="259.76483" xlink:href="#Dégradé_sans_nom_5"/><linearGradient id="Dégradé_sans_nom_11" x1="119.22507" y1="280.26486" x2="239.02492" y2="400.06481" xlink:href="#Dégradé_sans_nom_7"/><linearGradient id="Dégradé_sans_nom_12" x1="324.05" y1="172.83978" x2="381.65" y2="230.43987" xlink:href="#Dégradé_sans_nom_5"/><linearGradient id="Dégradé_sans_nom_13" x1="-13.925" y1="413.41483" x2="15.275" y2="442.61483" xlink:href="#Dégradé_sans_nom_7"/><linearGradient id="Dégradé_sans_nom_14" x1="327.29999" y1="123.23984" x2="385.6192" y2="123.23984" gradientTransform="matrix(1, 0, 0, -1, 0, 457.88983)" gradientUnits="userSpaceOnUse"><stop offset="0" stop-color="#fbc090" stop-opacity="0.5"/><stop offset="1" stop-color="#fbc090"/></linearGradient><linearGradient id="Dégradé_sans_nom_15" x1="403.09998" y1="208.88983" x2="503.70001" y2="309.48984" gradientTransform="matrix(1, 0, 0, -1, 0, 457.88983)" gradientUnits="userSpaceOnUse"><stop offset="0" stop-color="#fbc090" stop-opacity="0"/><stop offset="1" stop-color="#fbc090"/></linearGradient><linearGradient id="Dégradé_sans_nom_16" x1="234.15001" y1="265.03983" x2="285.35001" y2="316.23983" gradientTransform="matrix(1, 0, 0, -1, 0, 457.88983)" gradientUnits="userSpaceOnUse"><stop offset="0" stop-color="#f2703e" stop-opacity="0.5"/><stop offset="1" stop-color="#f89d48" stop-opacity="0.2"/></linearGradient></defs><path d="M686.9,117H856.2v44.5H735.8v47.3H841.9v44.5H735.8v86.1H686.9V117Z" transform="translate(0 0)" style="fill:#fff"/><path d="M889.5,117h48.9V339.3H889.5Z" transform="translate(0 0)" style="fill:#fff"/><path d="M986,117h45.1l104.19995,136.9V117H1183.6V339.3H1142L1034.30005,198V339.3H986Z" transform="translate(0 0)" style="fill:#fff"/><path d="M1305.2,115.4h45.1L1445.6,339.3h-51.1L1374.2,289.4h-94l-20.30005,49.9h-49.9Zm51.4,130.9-29.5-72.1-29.5,72.1h59Z" transform="translate(0 0)" style="fill:#fff"/><path d="M1471.9,117h48.9V294.8H1631.6001v44.5h-159.7V117Z" transform="translate(0 0)" style="fill:#fff"/><path d="M1747.9,117h103.2c25.4,0,45.4,7,58.1,19.7,10.19995,10.2,15.19995,22.5,15.19995,37.8v.6c0,25.1-13.3,39.1-29.19995,48,25.69995,9.8,41.6,24.8,41.6,54.6v.6c0,40.6-33,61-83.19995,61H1747.79993V117Zm92.7,89.9c21.6,0,35.19995-7,35.19995-23.5v-.6c0-14.6-11.4-22.9-32.1-22.9H1795.3999v47Zm13,89.5c21.6,0,34.6-7.6,34.6-24.1v-.6c0-14.9-11.1-24.1-36.19995-24.1h-56.5v48.9h58.1Z" transform="translate(0 0)" style="fill:#fff"/><path d="M1965.7,244V117h48.9V242.8c0,36.2,18.1,54.9,48.00012,54.9s48-18.1,48-53.4V117H2159.5V242.4c0,67.3-37.8,100.4-97.5,100.4C2002.2,342.8,1965.7,309.5,1965.7,244Z" transform="translate(0 0)" style="fill:#fff"/><path d="M2201.30005,117H2303c28.3,0,50.2,7.9,64.8,22.5,12.3999,12.4,19.1001,29.9,19.1001,50.8v.6c0,35.9-19.39991,58.4-47.6001,68.9l54.30005,79.4h-57.2l-47.6001-71.1h-38.3999v71.1h-48.89991V117Zm98.5,108c23.80005,0,37.5-12.7,37.5-31.4V193c0-21-14.6001-31.8-38.3999-31.8h-48.6001V225Z" transform="translate(0 0)" style="fill:#fff"/><path d="M2423,117h45.1001l104.19995,136.9V117h48.30005V339.3H2579l-107.7-141.3V339.3H2423Z" transform="translate(0 0)" style="fill:#fff"/><path d="M2829.5,115.4h45.1001l95.3,223.9h-51.1001l-20.3-49.9h-94l-20.3,49.9h-49.8999Zm51.3999,130.9-29.5-72.1-29.5,72.1h59Z" transform="translate(0 0)" style="fill:#fff"/><path d="M2996.2,117h48.8999V294.8h110.8v44.5H2996.2Z" transform="translate(0 0)" style="fill:#fff"/><path d="M3184.80005,117h90.80005c53,0,85.1001,31.4,85.1001,76.9v.6c0,51.4-40,78.1-89.89991,78.1h-37.2v66.7h-48.8999V117Zm87.7,112.1c24.5,0,38.7-14.6,38.7-33.7v-.6c0-21.9-15.2-33.7-39.7-33.7h-37.8v68Z" transform="translate(0 0)" style="fill:#fff"/><path d="M3389,117h48.8999v88h90.2V117h48.89991V339.3h-48.89991V250.1h-90.2v89.2H3389Z" transform="translate(0 0)" style="fill:#fff"/><path d="M3698.6001,115.4h45.1001l95.3,223.9h-51.10009l-20.3-49.9h-94l-20.30005,49.9h-49.8999Zm51.5,130.9-29.5-72.1-29.5,72.1h59Z" transform="translate(0 0)" style="fill:#fff"/><path d="M433.7,0H0V58.4L352.8,182.5H554V120.2A120.26569,120.26569,0,0,0,433.7,0Zm-97,193-152-53.4V357.8L117.1,382v76.2H385.7V330h-49Zm16.1,120.8H554V198.7H352.8Z" transform="translate(0 0)" style="fill:url(#Dégradé_sans_nom)"/><path d="M433.7,9.3A111.02621,111.02621,0,0,1,544.6,120.2v53H354.4L9.3,51.8V9.3H433.7m0-9.3H0V58.4L352.8,182.5H554V120.2A120.26569,120.26569,0,0,0,433.7,0Z" transform="translate(0 0)" style="fill:url(#Dégradé_sans_nom_2)"/><path d="M194.1,152.8l133.3,46.9V339.3h48.9V448.9H126.5V388.6l61.4-22,6.2-2.2V152.8m-9.4-13.2V357.8L117.1,382v76.2H385.7V330h-49V193l-152-53.4Z" transform="translate(0 0)" style="fill:url(#Dégradé_sans_nom_3)"/><path d="M544.6,208v96.4H362.2V208H544.6m9.4-9.3H352.8V313.8H554V198.7Z" transform="translate(0 0)" style="fill:url(#Dégradé_sans_nom_4)"/><polygon points="554 182.5 544.6 173.2 354.4 173.2 352.8 182.5 554 182.5" style="fill:url(#Dégradé_sans_nom_5)"/><polygon points="362.2 304.5 352.8 313.8 554 313.8 544.6 304.5 362.2 304.5" style="fill:url(#Dégradé_sans_nom_6)"/><polygon points="117.1 458.2 126.5 448.9 376.3 448.9 385.7 458.2 117.1 458.2" style="fill:url(#Dégradé_sans_nom_7)"/><polygon points="117.1 382 126.5 388.6 126.5 448.9 117.1 458.2 117.1 382" style="fill:url(#Dégradé_sans_nom_8)"/><polyline points="184.7 357.8 194.1 364.3 126.5 388.6 117.1 382" style="isolation:isolate;opacity:0.25;fill:url(#Dégradé_sans_nom_9)"/><polygon points="184.7 139.6 184.7 357.8 194.1 364.3 194.1 152.8 184.7 139.6" style="fill:url(#Dégradé_sans_nom_10)"/><polygon points="9.3 51.8 0 58.4 352.8 182.5 354.4 173.2 9.3 51.8" style="fill:url(#Dégradé_sans_nom_11)"/><polygon points="352.8 198.7 352.8 313.8 362.2 304.5 362.2 208 352.8 198.7" style="fill:url(#Dégradé_sans_nom_12)"/><polygon points="0 0 0 58.4 9.3 51.8 9.3 9.3 0 0" style="fill:url(#Dégradé_sans_nom_13)"/><polygon points="336.7 330 327.3 339.3 376.3 339.3 385.7 330 336.7 330" style="fill:url(#Dégradé_sans_nom_14)"/><polygon points="544.6 208 554 198.7 352.8 198.7 362.2 208 544.6 208" style="fill:url(#Dégradé_sans_nom_15)"/><polygon points="327.3 199.6 336.7 193 184.7 139.6 194.1 152.8 327.3 199.6" style="fill:url(#Dégradé_sans_nom_16)"/></svg>