<svg id="Layer_1" data-name="Layer 1" xmlns="http://www.w3.org/2000/svg" xmlns:xlink="http://www.w3.org/1999/xlink" viewBox="0 0 3839 513.20001"><defs><linearGradient id="Dégradé_sans_nom" x1="52.00001" y1="79.88981" x2="513.80624" y2="541.6961" gradientTransform="matrix(1, 0, 0, -1, 0, 513.88983)" gradientUnits="userSpaceOnUse"><stop offset="0" stop-color="#f2703e"/><stop offset="1" stop-color="#f89d48"/></linearGradient><linearGradient id="Dégradé_sans_nom_2" y1="411.68983" x2="620.5" y2="411.68983" gradientTransform="matrix(1, 0, 0, -1, 0, 513.88983)" gradientUnits="userSpaceOnUse"><stop offset="0" stop-color="#f6944a" stop-opacity="0"/><stop offset="1" stop-color="#fbc090"/></linearGradient><linearGradient id="Dégradé_sans_nom_3" x1="136.10003" y1="-4.21021" x2="407.6" y2="267.28986" xlink:href="#Dégradé_sans_nom_2"/><linearGradient id="Dégradé_sans_nom_4" x1="419.27498" y1="138.31485" x2="596.42503" y2="315.46481" xlink:href="#Dégradé_sans_nom_2"/><linearGradient id="Dégradé_sans_nom_5" x1="395.20001" y1="314.63983" x2="620.5" y2="314.63983" gradientTransform="matrix(1, 0, 0, -1, 0, 513.88983)" gradientUnits="userSpaceOnUse"><stop offset="0" stop-color="#e65726"/><stop offset="1" stop-color="#f26f48"/></linearGradient><linearGradient id="Dégradé_sans_nom_6" x1="451.52501" y1="106.06483" x2="564.175" y2="218.71483" xlink:href="#Dégradé_sans_nom_5"/><linearGradient id="Dégradé_sans_nom_7" x1="206.39997" y1="-74.51018" x2="356.80001" y2="75.88982" gradientTransform="matrix(1, 0, 0, -1, 0, 513.88983)" gradientUnits="userSpaceOnUse"><stop offset="0" stop-color="#e65726"/><stop offset="1" stop-color="#f27247"/></linearGradient><linearGradient id="Dégradé_sans_nom_8" x1="109.87499" y1="22.01482" x2="154.075" y2="66.21483" xlink:href="#Dégradé_sans_nom_5"/><linearGradient id="Dégradé_sans_nom_9" x1="147.79999" y1="69.38984" x2="200.8" y2="122.38983" xlink:href="#Dégradé_sans_nom"/><linearGradient id="Dégradé_sans_nom_10" x1="150.27499" y1="169.81481" x2="272.475" y2="292.01484" xlink:href="#Dégradé_sans_nom_5"/><linearGradient id="Dégradé_sans_nom_11" x1="133.57499" y1="314.91482" x2="267.77502" y2="449.11483" xlink:href="#Dégradé_sans_nom_7"/><linearGradient id="Dégradé_sans_nom_12" x1="362.95001" y1="194.63988" x2="427.45002" y2="259.13979" xlink:href="#Dégradé_sans_nom_5"/><linearGradient id="Dégradé_sans_nom_13" x1="-15.57499" y1="464.06478" x2="17.12501" y2="496.76488" xlink:href="#Dégradé_sans_nom_7"/><linearGradient id="Dégradé_sans_nom_14" x1="366.70001" y1="139.03983" x2="432" y2="139.03983" gradientTransform="matrix(1, 0, 0, -1, 0, 513.88983)" gradientUnits="userSpaceOnUse"><stop offset="0" stop-color="#fbc090" stop-opacity="0.5"/><stop offset="1" stop-color="#fbc090"/></linearGradient><linearGradient id="Dégradé_sans_nom_15" x1="451.52501" y1="235.06483" x2="564.175" y2="347.71483" gradientTransform="matrix(1, 0, 0, -1, 0, 513.88983)" gradientUnits="userSpaceOnUse"><stop offset="0" stop-color="#fbc090" stop-opacity="0"/><stop offset="1" stop-color="#fbc090"/></linearGradient><linearGradient id="Dégradé_sans_nom_16" x1="262.27499" y1="297.91483" x2="319.575" y2="355.21484" gradientTransform="matrix(1, 0, 0, -1, 0, 513.88983)" gradientUnits="userSpaceOnUse"><stop offset="0" stop-color="#f2703e" stop-opacity="0.5"/><stop offset="1" stop-color="#f89d48" stop-opacity="0.2"/></linearGradient></defs><path d="M824.1,180.8v53H942.9v49.8H824.1V380H769.3V131H958.9v49.8Z" transform="translate(0 0)" style="fill:#fff"/><path d="M996.3,380V131h54.8V380Z" transform="translate(0 0)" style="fill:#fff"/><path d="M1279,380,1158.4,221.7V380h-54.1V131h50.5L1271.5,284.3V131h54.1V380Z" transform="translate(0 0)" style="fill:#fff"/><path d="M1561.80005,380,1539,324.2H1433.7L1411,380H1355.2L1461.8999,129.2h50.5L1619.1,380Zm-75.4-184.9-33.1,80.7H1519.5Z" transform="translate(0 0)" style="fill:#fff"/><path d="M1648.6,380V131h54.8V330.2h124.1V380Z" transform="translate(0 0)" style="fill:#fff"/><path d="M2076.2,380h-118.4V131h115.6c50.8999,0,82.2,25.3,82.2,64.4v.7c0,28.1-14.8999,43.8-32.7,53.7C2151.7,260.8,2169.5,277.5,2169.5,311v.7C2169.30005,357.3,2132.3999,380,2076.2,380Zm24.90015-175.3c0-16.4-12.80005-25.6-35.8999-25.6h-54.1v52.6h50.49988c24.19995,0,39.5-7.8,39.5-26.3Zm13.7998,99.6c0-16.7-12.3999-27-40.6001-27h-63.3V332h65.10009c24.19995,0,38.8-8.5,38.8-27Z" transform="translate(0 0)" style="fill:#fff"/><path d="M2309.5,383.9c-66.8999,0-107.8-37.3-107.8-110.6V131h54.8V271.9c0,40.5,20.3,61.5,53.7,61.5s53.69995-20.3,53.69995-59.8V131H2418.7V271.5C2418.7,347,2376.3999,383.9,2309.5,383.9Z" transform="translate(0 0)" style="fill:#fff"/><path d="M2616.80005,380l-53.3999-79.7h-43V380h-54.8V131h113.8c58.7,0,93.8999,30.9,93.8999,82.2v.7c0,40.2-21.69995,65.4-53.3999,77.2L2680.7002,380h-63.90015Zm1.09985-163.9c0-23.5-16.3999-35.6-43-35.6H2520.5V252H2576c26.7,0,42-14.2,42-35.2v-.7Z" transform="translate(0 0)" style="fill:#fff"/><path d="M2888.6001,380,2768,221.7V380h-54.1001V131h50.5l116.7,153.3V131H2935.2V380Z" transform="translate(0 0)" style="fill:#fff"/><path d="M3258.5,380,3137.8999,221.7V380h-54.1001V131h50.5L3251,284.4V131h54.1001V380Z" transform="translate(0 0)" style="fill:#fff"/><path d="M3356,380V131h187.8v48.7h-133.3999v50.5h117.3999V279h-117.3999v52.3h135.2V380Z" transform="translate(0 0)" style="fill:#fff"/><path d="M3706.30005,384.3c-76.8,0-132-57.3-132-128.1v-.7c0-70.8,55.80005-128.8,132.7-128.8,76.8,0,132,57.3,132,128.1v.7C3839,326.3,3783.2,384.3,3706.30005,384.3ZM3781.7,255.5c0-42.7-31.30005-78.3-75.3999-78.3-44.1001,0-74.69995,34.9-74.69995,77.5v.7c0,42.7,31.3,78.3,75.3999,78.3s74.7-34.9,74.7-77.5Z" transform="translate(0 0)" style="fill:#fff"/><path d="M485.8,0H0V65.4l395.2,139H620.5V134.6A134.66942,134.66942,0,0,0,485.8,0ZM377.1,216.2,206.9,156.3V400.7l-75.7,27.1v85.4H432V369.6H377.1Zm18.1,135.3H620.5v-129H395.2Z" transform="translate(0 0)" style="fill:url(#Dégradé_sans_nom)"/><path d="M485.8,10.5A124.32026,124.32026,0,0,1,610,134.7V194H397L10.5,58V10.5H485.8m0-10.5H0V65.4l395.2,139H620.5V134.6A134.66942,134.66942,0,0,0,485.8,0Z" transform="translate(0 0)" style="fill:url(#Dégradé_sans_nom_2)"/><path d="M217.4,171.1l149.3,52.5V380.1h54.9V502.8h-280V435.3l68.8-24.7,6.9-2.5v-237m-10.4-14.8V400.7l-75.7,27.1v85.4H432V369.6H377.2V216.2L206.9,156.3Z" transform="translate(0 0)" style="fill:url(#Dégradé_sans_nom_3)"/><path d="M610,233V341H405.7V233H610m10.5-10.5H395.2v129H620.5v-129Z" transform="translate(0 0)" style="fill:url(#Dégradé_sans_nom_4)"/><polygon points="620.5 204.5 610 194 397 194 395.2 204.5 620.5 204.5" style="fill:url(#Dégradé_sans_nom_5)"/><polygon points="405.7 341 395.2 351.5 620.5 351.5 610 341 405.7 341" style="fill:url(#Dégradé_sans_nom_6)"/><polygon points="131.2 513.2 141.6 502.8 421.5 502.8 432 513.2 131.2 513.2" style="fill:url(#Dégradé_sans_nom_7)"/><polygon points="131.2 427.9 141.6 435.2 141.6 502.8 131.2 513.2 131.2 427.9" style="fill:url(#Dégradé_sans_nom_8)"/><polyline points="206.9 400.7 217.4 408.1 141.6 435.2 131.2 427.9" style="isolation:isolate;opacity:0.25;fill:url(#Dégradé_sans_nom_9)"/><polygon points="206.9 156.3 206.9 400.7 217.4 408.1 217.4 171.1 206.9 156.3" style="fill:url(#Dégradé_sans_nom_10)"/><polygon points="10.5 58 0 65.4 395.2 204.5 397 194 10.5 58" style="fill:url(#Dégradé_sans_nom_11)"/><polygon points="395.2 222.5 395.2 351.5 405.7 341 405.7 233 395.2 222.5" style="fill:url(#Dégradé_sans_nom_12)"/><polygon points="0 0 0 65.4 10.5 58 10.5 10.5 0 0" style="fill:url(#Dégradé_sans_nom_13)"/><polygon points="377.1 369.6 366.7 380.1 421.5 380.1 432 369.6 377.1 369.6" style="fill:url(#Dégradé_sans_nom_14)"/><polygon points="610 233 620.5 222.5 395.2 222.5 405.7 233 610 233" style="fill:url(#Dégradé_sans_nom_15)"/><polygon points="366.7 223.6 377.1 216.2 206.9 156.3 217.4 171.1 366.7 223.6" style="fill:url(#Dégradé_sans_nom_16)"/></svg>