<svg id="Layer_1" data-name="Layer 1" xmlns="http://www.w3.org/2000/svg" viewBox="0 0 3840 679.29998"><path d="M664.2,503.1v-13l10.9-7a107.31705,107.31705,0,0,0,50-90.7c0-36.8-18.7-70.6-50-90.7l-10.9-7V67.9a43.14756,43.14756,0,0,0-43-43.1H127.6A43.16862,43.16862,0,0,0,84.5,67.9V294.8l-10.9,7a107.2225,107.2225,0,0,0-49.9,90.7c0,36.8,18.7,70.6,49.9,90.7l10.9,7V572l-22.2,1.4a41.13924,41.13924,0,0,0,2.6,82.2H284.5a92.86617,92.86617,0,0,1,179.6,0h219.6a41.13612,41.13612,0,0,0,2.5-82.2l-22.2-1.4V549.7L664.2,503.1Z" transform="translate(0 -0.00001)" style="fill:#fdbc1a"/><path d="M519.4,153.1a107.8892,107.8892,0,1,1-76.2,31.6,106.7834,106.7834,0,0,1,76.2-31.6m0-23.7a131.5,131.5,0,0,0,0,263C592,392.4,651,333.5,651,260.9A131.554,131.554,0,0,0,519.4,129.4Z" transform="translate(0 -0.00001)"/><circle cx="430.29999" cy="260.89998" r="31.79999"/><path d="M229.4,153.1a107.8892,107.8892,0,1,1-76.2,31.6,106.78333,106.78333,0,0,1,76.2-31.6m0-23.7A131.5,131.5,0,1,0,360.9,260.9,131.53259,131.53259,0,0,0,229.4,129.4Z" transform="translate(0 -0.00001)"/><circle cx="318.5" cy="260.89998" r="31.79999"/><path d="M621.2,24.8a43.08324,43.08324,0,0,1,43,43.1V294.8l10.9,7a107.317,107.317,0,0,1,50,90.7c0,36.8-18.7,70.6-50,90.7l-10.9,7V572l22.2,1.4a41.13612,41.13612,0,0,1-2.5,82.2H464.2a92.86616,92.86616,0,0,0-179.6,0H64.9a41.13924,41.13924,0,0,1-2.6-82.2L84.5,572V490l-10.9-7a107.2225,107.2225,0,0,1-49.9-90.7c0-36.8,18.7-70.6,49.9-90.7l10.9-7V67.9a43.16863,43.16863,0,0,1,43.1-43.1H621.2m0-23.7H127.6A66.79056,66.79056,0,0,0,60.8,67.9V281.8C24.4,305.2,0,345.9,0,392.4A131.04114,131.04114,0,0,0,60.9,503v46.7a64.86051,64.86051,0,0,0,4,129.6H305.1a69.2,69.2,0,1,1,138.4,0H683.7a64.809,64.809,0,0,0,4-129.5V503.1c36.5-23.4,60.9-64,60.9-110.6a130.80982,130.80982,0,0,0-60.9-110.6V67.9A66.47155,66.47155,0,0,0,621.2,1.1Z" transform="translate(0 -0.00001)"/><path d="M1028.2,222.1H827.7V679.2h200.6a69.00983,69.00983,0,0,0,69-69V291.1A69.15953,69.15953,0,0,0,1028.2,222.1Zm45.4,388.1a45.32374,45.32374,0,0,1-45.30005,45.3H851.3V245.7h176.9A45.32375,45.32375,0,0,1,1073.5,291V610.2Z" transform="translate(0 -0.00001)"/><path d="M1515.30005,452.6l-116-77.7V344.2a11.7265,11.7265,0,0,1,13.80005-11.6c5.8,1,9.8,6.4,9.8,12.3V370l123,82.6V291a69.00981,69.00981,0,0,0-69-69h-131.6a69.00981,69.00981,0,0,0-69,69V391.3a69.01876,69.01876,0,0,0,30.6,57.3l116,77.7V557a11.77756,11.77756,0,0,1-13.8,11.6c-5.80005-.9-9.80005-6.4-9.80005-12.3V531.2l-123-82.6V610.2a69.00982,69.00982,0,0,0,69,69h131.6a69.00982,69.00982,0,0,0,69-69V510A69.06286,69.06286,0,0,0,1515.30005,452.6Zm6.8999,67.9h0v89.7a45.32374,45.32374,0,0,1-45.30005,45.3h-131.6a45.32374,45.32374,0,0,1-45.3-45.3V493.1l75.69995,50.8v12.6c0,17.8,12.5,32.8,29.69995,35.6a36.797,36.797,0,0,0,5.80005.5,35.98727,35.98727,0,0,0,23-8.4,35.61775,35.61775,0,0,0,12.5-27V513.9l-10.5-7-116-77.7a45.17989,45.17989,0,0,1-20.1-37.7V291.1a45.32376,45.32376,0,0,1,45.3-45.3h131.6a45.32376,45.32376,0,0,1,45.3,45.3V408.3L1446.6,357.5V344.9c0-17.9-12.5-32.8-29.7-35.6a36.79572,36.79572,0,0,0-5.8-.5,35.98744,35.98744,0,0,0-23,8.4,35.61778,35.61778,0,0,0-12.5,27v43.3l10.5,7,116,77.7a45.17992,45.17992,0,0,1,20.1,37.7v10.6Z" transform="translate(0 -0.00001)"/><path d="M2864.3999,452.6l-116-77.7V344.2A11.72645,11.72645,0,0,1,2762.2,332.6c5.8,1,9.8,6.4,9.8,12.3V370l123,82.6V291a69.00972,69.00972,0,0,0-69-69H2694.3999a69.00972,69.00972,0,0,0-69,69V391.3A69.01858,69.01858,0,0,0,2656,448.6l116,77.7V557a11.77751,11.77751,0,0,1-13.8,11.6c-5.80005-.9-9.80005-6.4-9.80005-12.3V531.2l-123-82.6V610.2a69.00974,69.00974,0,0,0,69,69H2826a69.00974,69.00974,0,0,0,69-69V510A69.31165,69.31165,0,0,0,2864.3999,452.6Zm6.90015,67.9h0v89.7a45.32374,45.32374,0,0,1-45.3,45.3H2694.3999a45.32374,45.32374,0,0,1-45.3-45.3V493.1l75.69995,50.8v12.6c0,17.8,12.5,32.8,29.7,35.6a37.85128,37.85128,0,0,0,5.8.5,35.9875,35.9875,0,0,0,23-8.4,35.61812,35.61812,0,0,0,12.5-27V513.9l-10.5-7-116-77.7a45.17972,45.17972,0,0,1-20.10009-37.7V291.1a45.32376,45.32376,0,0,1,45.30005-45.3h131.60009a45.32376,45.32376,0,0,1,45.3,45.3V408.3l-75.6001-50.8V344.9c0-17.9-12.5-32.8-29.69995-35.6a37.85,37.85,0,0,0-5.80005-.5,35.9877,35.9877,0,0,0-23,8.4,35.61822,35.61822,0,0,0-12.5,27v43.3l10.5,7,116,77.7a45.17972,45.17972,0,0,1,20.1001,37.7l-.09985,10.6Z" transform="translate(0 -0.00001)"/><path d="M2278,452.6l-116-77.7V344.2a11.72645,11.72645,0,0,1,13.8-11.6c5.80005,1,9.80005,6.4,9.80005,12.3V370l123,82.6V291a69.00972,69.00972,0,0,0-69-69H2108a69.00972,69.00972,0,0,0-69,69V391.3a69.01858,69.01858,0,0,0,30.6001,57.3l116,77.7V557a11.77751,11.77751,0,0,1-13.80005,11.6c-5.8-.9-9.8-6.4-9.8-12.3V531.2l-123-82.6V610.2a69.00974,69.00974,0,0,0,69,69h131.6001a69.00974,69.00974,0,0,0,69-69V510A69.06266,69.06266,0,0,0,2278,452.6Zm7,67.9h0v89.7a45.32374,45.32374,0,0,1-45.3,45.3H2108a45.32374,45.32374,0,0,1-45.3-45.3V493.1l75.69995,50.8v12.6c0,17.8,12.5,32.8,29.7,35.6a37.85152,37.85152,0,0,0,5.8.5,35.98752,35.98752,0,0,0,23-8.4,35.61815,35.61815,0,0,0,12.5-27V513.9l-10.5-7-116-77.7a45.17971,45.17971,0,0,1-20.1001-37.7V291.1a45.32376,45.32376,0,0,1,45.30005-45.3H2239.7a45.32376,45.32376,0,0,1,45.3,45.3V408.3l-75.6001-50.8V344.9c0-17.9-12.5-32.8-29.69995-35.6a37.85,37.85,0,0,0-5.80005-.5,35.9877,35.9877,0,0,0-23,8.4,35.61822,35.61822,0,0,0-12.5,27v43.3l10.5,7,116,77.7A45.17972,45.17972,0,0,1,2285,509.9v10.6Z" transform="translate(0 -0.00001)"/><path d="M1128.2,222.1V679.2h123V222.1Zm99.4,433.5h-75.7V245.7h75.7Z" transform="translate(0 -0.00001)"/><path d="M3098.80005,222.1h-182.8999V332.6h59.8999V679.2h123V332.6H3158.7V222.1Zm36.09985,86.8H3075V655.6h-75.7V308.9h-59.8999V245.7h195.3999l.09985,63.2Z" transform="translate(0 -0.00001)"/><path d="M959.5,308.9H927V592.5h32.5a38.40993,38.40993,0,0,0,38.4-38.4V347.3A38.47416,38.47416,0,0,0,959.5,308.9Zm14.8,245.2a14.76656,14.76656,0,0,1-14.8,14.8h-8.8V332.6h8.8a14.76658,14.76658,0,0,1,14.8,14.8Z" transform="translate(0 -0.00001)"/><path d="M1835.7,222.1h-123V341.4L1689.1,365V222.1h-123V679.2h123V536.3l23.6,23.6v119.3h123V508.9L1777.5,450.7,1835.7,392.5Zm-23.6,160.5-68,68,68,68V655.5h-75.7V550.1l-70.9-70.9V655.5h-75.69995V245.7H1665.5V422l70.9-70.9V245.7h75.7Z" transform="translate(0 -0.00001)"/><path d="M2477.5,222.1V422.3h-23.6001V222.1h-123V476.2a69.0097,69.0097,0,0,0,69,69H2477.5v23.6h-123v110.3h176.8999a69.00974,69.00974,0,0,0,69-69V222.1Zm99.3,388.1a45.32374,45.32374,0,0,1-45.3,45.3H2378.2v-63h123v-71H2399.8999a45.32374,45.32374,0,0,1-45.3-45.3V245.7h75.69995V446h71V245.7h75.7l-.19971,364.5Z" transform="translate(0 -0.00001)"/><path d="M3301.8999,332.6h90.2V222.1H3178.99976V679.2h213.10009V568.9h-90.2v-63h90.2V395.4h-90.2Zm66.5,86.5v63.2H3278.2V592.6h90.19995v63h-165.8V245.7h165.8v63.2H3278.2V419.1h90.19995Z" transform="translate(0 -0.00001)"/><path d="M3771,222.1h-93.8999a68.93767,68.93767,0,0,0-45.3999,17.1,68.74176,68.74176,0,0,0-45.39991-17.1h-162.8999V679.2h123V344.5a11.89991,11.89991,0,1,1,23.79981,0V679.3h123V344.4a11.8999,11.8999,0,1,1,23.7998,0v334.8h123V291.1A69.00972,69.00972,0,0,0,3771,222.1Zm45.3,433.5H3740.6001V345.7c0-18.1-12.8999-34.2-30.8999-36.5a35.53631,35.53631,0,0,0-40.2,35.2V655.5H3594V345.7c0-18.1-12.8999-34.2-30.8999-36.5a35.5363,35.5363,0,0,0-40.2,35.2V655.5H3447.2002V245.7h139.19995a45.03683,45.03683,0,0,1,30.3999,11.8c6.80005,6.2,11.80005,22.3,13.8999,29.9a1.08074,1.08074,0,0,0,2.1001,0c2.1001-7.6,7-23.6,13.80005-29.9A45.22747,45.22747,0,0,1,3677,245.7h93.8999A45.32375,45.32375,0,0,1,3816.2,291V655.6Z" transform="translate(0 -0.00001)"/><path d="M2825.8999,655.6A45.32374,45.32374,0,0,0,2871.2,610.3V520.6h0V510.1a45.44315,45.44315,0,0,0-20.1001-37.7l-116-77.7-10.5-7v-43.3a35.39167,35.39167,0,0,1,35.5-35.4,29.0371,29.0371,0,0,1,5.8.5c17.2,2.8,29.7,17.8,29.7,35.6v12.6l75.6001,50.8v-117.2a45.32376,45.32376,0,0,0-45.30005-45.3H2694.2998a45.32375,45.32375,0,0,0-45.3,45.3v100.3a45.44317,45.44317,0,0,0,20.10009,37.7l116,77.7,10.5,7v43.3a35.39172,35.39172,0,0,1-35.5,35.4,38.96084,38.96084,0,0,1-5.80005-.5c-17.19995-2.8-29.69995-17.8-29.69995-35.6V544l-75.7-50.8V610.4A45.32374,45.32374,0,0,0,2694.2,655.7l131.69995-.1Z" transform="translate(0 -0.00001)" style="fill:#fdbc1a"/><path d="M2239.6001,655.6a45.32374,45.32374,0,0,0,45.3-45.3V520.6h0V510.1a45.44315,45.44315,0,0,0-20.1001-37.7l-116-77.7-10.5-7v-43.3a35.39167,35.39167,0,0,1,35.5-35.4,29.03716,29.03716,0,0,1,5.80005.5c17.19995,2.8,29.69995,17.8,29.69995,35.6v12.6l75.6001,50.8v-117.2a45.32376,45.32376,0,0,0-45.3-45.3H2108a45.32376,45.32376,0,0,0-45.3,45.3v100.3a45.44315,45.44315,0,0,0,20.1001,37.7l116,77.7,10.5,7v43.3a35.39172,35.39172,0,0,1-35.5,35.4,38.96084,38.96084,0,0,1-5.8-.5c-17.2-2.8-29.7-17.8-29.7-35.6V544l-75.69995-50.8V610.4a45.32374,45.32374,0,0,0,45.3,45.3l131.7-.1Z" transform="translate(0 -0.00001)" style="fill:#fdbc1a"/><path d="M2576.80005,610.2V245.7H2501.1001V446h-71V245.7h-75.7V476.2a45.32377,45.32377,0,0,0,45.30005,45.3h101.3v71h-123v63h153.30005A45.303,45.303,0,0,0,2576.80005,610.2Z" transform="translate(0 -0.00001)" style="fill:#fdbc1a"/><polygon points="1736.4 655.6 1812.1 655.6 1812.1 518.7 1744.1 450.7 1812.1 382.6 1812.1 245.7 1736.4 245.7 1736.4 351.1 1665.5 422.1 1665.5 245.7 1589.8 245.7 1589.8 655.6 1665.5 655.6 1665.5 479.2 1736.4 550.2 1736.4 655.6" style="fill:#fdbc1a"/><rect x="1151.90002" y="245.69999" width="75.69995" height="409.8" style="fill:#fdbc1a"/><path d="M1476.80005,655.6a45.32374,45.32374,0,0,0,45.30005-45.3V520.6h0V510.1a45.44334,45.44334,0,0,0-20.1-37.7l-116-77.7-10.5-7v-43.3a35.39167,35.39167,0,0,1,35.5-35.4,29.03635,29.03635,0,0,1,5.80005.5c17.19995,2.8,29.69995,17.8,29.69995,35.6v12.6l75.7,50.8v-117.2a45.32376,45.32376,0,0,0-45.30005-45.3h-131.6a45.32376,45.32376,0,0,0-45.30005,45.3v100.3a45.44334,45.44334,0,0,0,20.1,37.7l116,77.7,10.5,7v43.3a35.39172,35.39172,0,0,1-35.5,35.4,38.95937,38.95937,0,0,1-5.80005-.5C1388.1,589.4,1375.6,574.4,1375.6,556.6V544l-75.7-50.8V610.4a45.32374,45.32374,0,0,0,45.30005,45.3l131.6-.1Z" transform="translate(0 -0.00001)" style="fill:#fdbc1a"/><path d="M1073.6,610.2V291.1a45.32376,45.32376,0,0,0-45.30005-45.3H851.3V655.6h176.9A45.49473,45.49473,0,0,0,1073.6,610.2Zm-75.7-56.1a38.40993,38.40993,0,0,1-38.4,38.4H927V308.9h32.5a38.40993,38.40993,0,0,1,38.4,38.4V554.1Z" transform="translate(0 -0.00001)" style="fill:#fdbc1a"/><path d="M3740.7,345.7V655.6h75.69995V291.1a45.32376,45.32376,0,0,0-45.3-45.3H3677.2a45.03679,45.03679,0,0,0-30.3999,11.8c-6.8999,6.2-11.8,22.2-13.8,29.9a1.08074,1.08074,0,0,1-2.1001,0c-2.1001-7.6-7.1001-23.7-13.8999-29.9a45.22743,45.22743,0,0,0-30.3999-11.8h-139.2V655.6h75.7V344.4a35.5363,35.5363,0,0,1,40.19995-35.2c17.8999,2.3,30.8999,18.4,30.8999,36.5V655.6h75.69995V344.4a35.5363,35.5363,0,0,1,40.2-35.2C3727.7,311.5,3740.7,327.6,3740.7,345.7Z" transform="translate(0 -0.00001)" style="fill:#fdbc1a"/><polygon points="2999.4 655.6 3075.1 655.6 3075.1 308.9 3134.9 308.9 3134.9 245.7 2939.6 245.7 2939.6 308.9 2999.4 308.9 2999.4 655.6" style="fill:#fdbc1a"/><polygon points="3368.4 592.5 3278.2 592.5 3278.2 482.2 3368.4 482.2 3368.4 419.1 3278.2 419.1 3278.2 308.9 3368.4 308.9 3368.4 245.7 3202.6 245.7 3202.6 655.6 3368.4 655.6 3368.4 592.5" style="fill:#fdbc1a"/><path d="M1441.4,84.4a83.69416,83.69416,0,0,0,82.80005,84.4,82.42626,82.42626,0,0,0,73.1-45.1l.30005-.7h-36.4a52.99388,52.99388,0,0,1-37,15.4,54.01815,54.01815,0,0,1,0-108,51.864,51.864,0,0,1,36.6,15.2l36.80005.1-.30005-.7a82.333,82.333,0,0,0-73.1-45A83.76028,83.76028,0,0,0,1441.4,84.4Zm157.9.4A82.76649,82.76649,0,1,0,1682.1001.3a83.84422,83.84422,0,0,0-82.80005,84.5Zm29.79993,0a52.91146,52.91146,0,1,1,52.9,54,53.543,53.543,0,0,1-52.9-54ZM2361.2,1.1h-83.3999V167.3h83.80005v-32h-52.3999V102h52.3999V70h-52.3999V33h52.3999V1l-.40015.1ZM1020.4,1.1H995.7L881.2,167.4h35.5s17.7-25.8,17.9-26.1h56.1v26.1h30.2V1.1ZM956.9,108.6l33.8-49.4v52.3H955C955.6,110.6,956.9,108.6,956.9,108.6Zm987-107.5h-35s-48.8,112.8-49.6,114.6C1858.5,113.9,1809.5,1.1,1809.5,1.1H1774.2V167.4H1805.5V84.6c.5-.1,3-.7,3.5-.8l36.30005,83.6h27.9s36-82.8,36.19995-83.5c.5.1,3,.7,3.5.8v82.7h31.30005V1.1Zm229.99988,0h-31V113.3a21.55277,21.55277,0,1,1-43.09985.7V1.1h-31.3999V113.3a52.95689,52.95689,0,0,0,105.90014,1.7V1.2l-.40039-.1Zm197.7002.1h-.5V168H2402.5V80.2c1.6001,2.6,51.8,87.2,51.8,87.2h35.30005s-35.3999-59.7-35.8999-60.6c.69995-.2,2.10009-.8,2.10009-.8A54.17421,54.17421,0,0,0,2438.50024,1.1l-66.90014.1ZM2438.5,33.1a21.84063,21.84063,0,0,1,21.1001,22.1,21.62126,21.62126,0,0,1-21.1001,22h-36v-44h36ZM1954.4,1.2h-.4V167.4h31.4V108.2h22.4a53.50934,53.50934,0,0,0,0-107ZM2007.7,33.1a21.55281,21.55281,0,0,1,0,43.1h-22.4V33.1ZM2268.5,1.2h-85.2V33.1h27.1001V167.4h31.3999V33.1H2269V1.2ZM1423,1.2h-32.5s-33.4,65-34.1,66.6c-.8-1.5-34.1-66.6-34.1-66.6H1289.1001l51.6,102.2-.1,64.1h31.5l.1-64.2C1372.30005,103.3,1423.4,2,1423.4,2l.30005-.7L1423,1.2Zm-142.5,0h-30.9V167.4h73.8v-32H1281V1.2Zm-40.9,0h-29.4V167.4H1240V1.2Zm-39.4,0h-35s-48.80005,112.7-49.6,114.5L1065.80005,1.2H1030.5V167.4h31.30005V84.6c.5-.1,3-.7,3.5-.8.30005.7,36.30005,83.5,36.30005,83.5h27.9l36.30005-83.5c.5.1,3,.7,3.5.8v82.7h31.30005V1.2ZM918.2,1.2H832.5V167.4h31.9V101.9h54.2V70.1H864.4V31.8h54.2V1.2Z" transform="translate(0 -0.00001)" style="fill:#fff"/></svg>