<svg id="Layer_1" data-name="Layer 1" xmlns="http://www.w3.org/2000/svg" viewBox="0 0 3839.5 1163.5"><rect x="1839.90002" y="271.70001" width="185.5" height="670.59998" style="fill:#0084c9"/><polygon points="2686.7 1032.4 2555.5 1163.5 2017.6 625.6 2190.8 536.5 2686.7 1032.4" style="fill:#0084c9"/><path d="M1760.30005,844.8,1681,395.1a149.32928,149.32928,0,0,0-147.1-123.4H1129.8999V440.3h333.5a44.21138,44.21138,0,0,1,43.6,36.6l82.1,465.4h89.3A83.17418,83.17418,0,0,0,1760.30005,844.8Z" transform="translate(0 0)" style="fill:#0084c9"/><rect x="2566.37515" y="271.72223" width="570.29997" height="168.6001" style="fill:#0084c9"/><path d="M1304.1,736.4l228.8-120L1410,471.4,1176.80005,593.7c-171,89.7-107.30005,348.5,85.80005,348.5h404.6V773.7h-354C1292.6,773.7,1285.80005,746,1304.1,736.4Z" transform="translate(0 0)" style="fill:#0084c9"/><path d="M723.2,341.4,598,576.9l-8.9-254.1a52.95643,52.95643,0,0,0-52.9-51.1H435.5a131.33276,131.33276,0,0,0-116,69.7L0,942.3H210.1l201.9-379.6,13.3,379.6H613.9l207-389.4v389.4h185.5V324.7a53.027,53.027,0,0,0-53-53h-114.1A131.37154,131.37154,0,0,0,723.2,341.4Z" transform="translate(0 0)" style="fill:#0084c9"/><rect x="2758.69995" y="271.70001" width="185.5" height="670.59998" style="fill:#0084c9"/><rect x="3188.69995" y="271.70001" width="185.5" height="84.29999" style="fill:#0084c9"/><path d="M3839.5,271.7h-198l-92.7,248c-85.3999,4.9-174.69995-49.6-174.69995-163.8h-185.5c0,207.5,138.5,322.6,292.3,345.4l-11.3,30.4a64.57637,64.57637,0,0,1-60.6001,42H3199.6001v168.6h259.5a187.09754,187.09754,0,0,0,175.19995-121.6Z" transform="translate(0 0)" style="fill:#0084c9"/><path d="M2467.8999,537.5c115.2-85.8,54-268.8-89.6001-268.1l-476.9,2.4V440.4h377.29993c12,0,17,15.3,7.3999,22.4" transform="translate(0 0)" style="fill:#0084c9"/><path d="M2286.1001,462.7c-81,64-165.2,109.7-273.5,150,38.6001,49,79.5,85.9,127.8999,130.5,139.7-64.4,261.8-134.5,355.2-232.1" transform="translate(0 0)" style="fill:#0084c9"/><path d="M1202.6,45.8V76h58.3v39.8h-58.3v71h-53.2V6h117.4V45.8Z" transform="translate(0 0)" style="fill:#0084c9"/><path d="M1319,6h52.30005l41.5,96.7,44-96.7h52.9l30.9,181h-53.2l-14.9-104.2h-.5L1422.9,187h-21.19995l-46.9-104.2h-.6L1337.2,187h-52.9Z" transform="translate(0 0)" style="fill:#0084c9"/><path d="M1737.5,187h-53.19995V45.8h-43.9V6h141V45.8h-43.9Z" transform="translate(0 0)" style="fill:#0084c9"/><path d="M2016.6,93.1c0,58.6-47.5,99.9-113.1,99.9s-113.1-41.3-113.1-99.9c0-54.7,54.2-93.1,113.1-93.1S2016.6,38.4,2016.6,93.1Zm-170.79993.3c0,31.2,26,54,57.80005,54,31.69995,0,57.8-22.8,57.8-54,0-25-26-47.8-57.8-47.8S1845.80005,68.4,1845.80005,93.4Z" transform="translate(0 0)" style="fill:#0084c9"/><path d="M2110.80005,122.9h.5L2154.2,6h42.3l40.1001,116.9h.5L2275.7,6H2331l-65.3999,181h-54.2l-35.8-104.9h-.5L2134.8999,187h-54L2020,6h55.3Z" transform="translate(0 0)" style="fill:#0084c9"/><path d="M2344.3999,6h53.2l97.39991,110.7h.60009V6h53.19995V187h-53.19995L2398.2,76.1h-.5V187h-53.2V6Z" transform="translate(0 0)" style="fill:#0084c9"/><path d="M2695.6001,52.6a60.27251,60.27251,0,0,0-35.30005-12c-9.8,0-22.8,5-22.8,15.1,0,10.6,14.3999,14.6,23.6001,17.3l13.6001,3.6c28.5,7.4,50.3999,20.2,50.3999,49.4,0,18-4.8999,36.5-21.1001,48.7-16,12-37.3999,17-58,17a138.16484,138.16484,0,0,1-71.8999-20.6l22.8-37.9c13.30005,10.3,29,18.7,47.2,18.7,12.5,0,25.8-5.5,25.8-18.2,0-13.2-20.89991-17.8-32.3-20.6-33.3999-8.4-55.30005-16.1-55.30005-51.1,0-36.7,29.6001-60.7,70.5-60.7,20.6001,0,45.80005,5.8,64,14.9Z" transform="translate(0 0)" style="fill:#0084c9"/></svg>