<?xml version="1.0" encoding="UTF-8" standalone="no"?>
<!-- Created with Inkscape (http://www.inkscape.org/) -->

<svg
   width="255.90498mm"
   height="36.4744mm"
   viewBox="0 0 255.90498 36.4744"
   version="1.1"
   id="svg5"
   inkscape:version="1.1.2 (0a00cf5339, 2022-02-04, custom)"
   sodipodi:docname="test.svg"
   xmlns:inkscape="http://www.inkscape.org/namespaces/inkscape"
   xmlns:sodipodi="http://sodipodi.sourceforge.net/DTD/sodipodi-0.dtd"
   xmlns="http://www.w3.org/2000/svg"
   xmlns:svg="http://www.w3.org/2000/svg">
  <sodipodi:namedview
     id="namedview7"
     pagecolor="#ffffff"
     bordercolor="#666666"
     borderopacity="1.0"
     inkscape:pageshadow="2"
     inkscape:pageopacity="0.0"
     inkscape:pagecheckerboard="0"
     inkscape:document-units="mm"
     showgrid="false"
     inkscape:zoom="0.74029882"
     inkscape:cx="288.39706"
     inkscape:cy="233.68942"
     inkscape:window-width="1920"
     inkscape:window-height="1017"
     inkscape:window-x="-8"
     inkscape:window-y="-8"
     inkscape:window-maximized="1"
     inkscape:current-layer="layer1" />
  <defs
     id="defs2" />
  <g
     inkscape:label="Calque 1"
     inkscape:groupmode="layer"
     id="layer1"
     transform="translate(-31.79966,-86.977648)">
    <g
       aria-label="GAME KING"
       id="text3620"
       style="font-size:10.5833px;line-height:1.25;stroke-width:0.264583;fill:#f2f2f2">
      <path
         d="m 44.24566,123.45205 q -2.8956,0 -5.2324,-1.3208 -2.286,-1.3716 -3.9116,-3.81 -1.6256,-2.4892 -2.4892,-5.8928 -0.8128,-3.4544 -0.8128,-7.6708 0,-3.9624 0.8636,-7.213602 0.9144,-3.302 2.5908,-5.6388 1.6764,-2.3876 4.0132,-3.6576 2.3876,-1.27 5.3848,-1.27 0.762,0 2.0828,0.3048 1.3208,0.3048 2.7432,0.8128 1.4732,0.508 2.54,1.27 1.2192,0.7112 1.930399,1.5748 0.7112,0.8636 0.762,1.4732 0,0.4572 -0.254,1.1684 -0.254,0.6604 -0.6604,1.27 -0.660399,1.016 -1.523999,1.6256 -0.8128,0.6096 -1.5748,0.6096 -0.3556,0 -1.0668,-0.254 -0.6604,-0.3048 -1.4732,-0.762 -0.6096,-0.4572 -1.27,-0.7112 -0.6096,-0.3048 -1.2192,-0.4572 -0.6096,-0.1524 -1.27,-0.1524 -1.5748,0 -2.6924,1.27 -1.1176,1.27 -1.6764,3.556 -0.508,2.235202 -0.508,5.334002 0.0508,3.2004 0.6096,5.6388 0.5588,2.3876 1.6256,3.7592 1.1176,1.3208 2.6924,1.3208 0.6096,0 1.0668,-0.0508 0.508,-0.0508 0.9652,-0.1524 0.4572,-0.1016 1.016,-0.3048 v -6.7056 h -1.6764 q -0.8128,0 -1.3208,-0.1524 -0.508,-0.2032 -0.762,-0.8636 -0.254,-0.7112 -0.254,-2.3368 0,-1.5748 0.254,-2.286 0.3048,-0.7112 0.8636,-0.8636 0.5588,-0.1524 1.3208,-0.1524 h 5.8928 q 1.0668,0.0508 1.777999,0.508 0.762,0.4572 1.1684,1.27 0.4572,0.8128 0.4572,1.9304 v 11.2776 q 0,1.2192 -1.1176,2.5908 -1.117599,1.3716 -2.895599,2.286 -1.016,0.508 -2.2352,0.9652 -1.2192,0.4064 -2.4384,0.6096 -1.2192,0.254 -2.286,0.254 z"
         style="font-size:50.8px;font-family:Fredoka;-inkscape-font-specification:'Fredoka, @wght=600';font-variation-settings:'wght' 600;fill:#f2f2f2"
         id="path13656" />
      <path
         d="m 89.940314,117.76245 q 0.4064,1.27 0.4572,2.2352 0.1016,0.9144 -0.4064,1.6256 -0.508,0.6604 -2.032,1.1684 -2.2352,0.762 -3.6068,0.254 -1.3208,-0.4572 -1.6256,-2.1844 l -4.4704,-22.199602 -4.4196,22.199602 q -0.3048,1.6764 -1.6764,2.1336 -1.3208,0.4572 -3.6068,-0.254 -1.5748,-0.508 -2.0828,-1.2192 -0.508,-0.762 -0.3556,-1.7272 0.1524,-1.016 0.508,-2.1336 l 7.4168,-27.838402 q 0.3556,-1.0668 1.524,-1.6764 1.1684,-0.6096 2.6924,-0.6096 1.0668,0 1.9304,0.3048 0.9144,0.254 1.4732,0.762 0.6096,0.508 0.8128,1.27 z m -19.4056,-2.5908 3.2004,-6.2484 h 8.9916 l 3.1496,6.2484 z"
         style="font-size:50.8px;font-family:Fredoka;-inkscape-font-specification:'Fredoka, @wght=600';font-variation-settings:'wght' 600;fill:#f2f2f2"
         id="path13658" />
      <path
         d="m 107.1615,123.04565 q -1.778,0 -2.5908,-0.5588 -0.8128,-0.5588 -1.016,-1.4224 -0.1524,-0.9144 -0.1524,-1.9304 V 91.346448 q 0,-0.9652 0.1524,-1.778 0.2032,-0.8636 1.016,-1.4224 0.8128,-0.5588 2.6924,-0.5588 1.1176,0 1.8288,0.1524 0.7112,0.1524 1.1176,0.4572 0.4064,0.254 0.6604,0.7112 l 9.144,17.119602 h -1.6256 l 9.144,-17.170402 q 0.3048,-0.508 0.6604,-0.762 0.4064,-0.3048 1.1176,-0.4064 0.762,-0.1016 1.8796,-0.1016 1.8288,0 2.6416,0.5588 0.8128,0.5588 1.016,1.4732 0.20319,0.8636 0.20319,1.8288 v 27.787602 q 0,0.9652 -0.20319,1.8288 -0.2032,0.8636 -1.016,1.4224 -0.8128,0.5588 -2.6924,0.5588 -1.8288,0 -2.6416,-0.5588 -0.8128,-0.5588 -1.016,-1.4732 -0.1524,-0.9144 -0.1524,-1.8796 v -17.526 l -4.8768,10.1092 q -0.2032,0.4572 -0.5588,0.8636 -0.3556,0.4064 -1.016,0.6604 -0.6096,0.2032 -1.6764,0.2032 -1.1176,0 -1.778,-0.2032 -0.6096,-0.254 -0.9652,-0.6604 -0.3048,-0.4064 -0.6096,-0.8636 l -4.7752,-10.0584 v 17.5768 q 0,0.9652 -0.2032,1.8288 -0.2032,0.8636 -1.016,1.4224 -0.8128,0.5588 -2.6924,0.5588 z"
         style="font-size:50.8px;font-family:Fredoka;-inkscape-font-specification:'Fredoka, @wght=600';font-variation-settings:'wght' 600;fill:#f2f2f2"
         id="path13660" />
      <path
         d="m 149.07145,123.04565 q -1.8288,0 -2.6416,-0.508 -0.8128,-0.5588 -1.016,-1.4732 -0.1524,-0.9144 -0.1524,-1.8796 V 91.397248 q 0,-2.2352 0.8636,-3.048 0.8636,-0.8128 3.0988,-0.8128 h 10.5664 q 1.016,0 1.8796,0.2032 0.8636,0.1524 1.4224,0.9652 0.5588,0.8128 0.5588,2.7432 0,1.8288 -0.5588,2.6416 -0.5588,0.8128 -1.4732,1.016 -0.8636,0.1524 -1.8796,0.1524 h -6.7564 v 6.553202 h 3.6068 q 1.016,0 1.778,0.1524 0.762,0.1524 1.2192,0.8636 0.4572,0.7112 0.4572,2.3876 0,1.5748 -0.4572,2.286 -0.4572,0.7112 -1.27,0.8636 -0.8128,0.1524 -1.8288,0.1524 h -3.5052 v 6.8072 h 6.8072 q 1.016,0 1.8796,0.2032 0.8636,0.2032 1.4224,1.016 0.5588,0.762 0.5588,2.6924 0,1.8288 -0.5588,2.6416 -0.5588,0.8128 -1.4732,0.9652 -0.8636,0.2032 -1.8796,0.2032 z"
         style="font-size:50.8px;font-family:Fredoka;-inkscape-font-specification:'Fredoka, @wght=600';font-variation-settings:'wght' 600;fill:#f2f2f2"
         id="path13662" />
      <path
         d="m 192.20064,123.04565 q -1.8796,0 -2.6924,-0.508 -0.8128,-0.5588 -1.016,-1.4732 -0.1524,-0.9144 -0.1524,-1.8796 V 91.346448 q 0,-0.9652 0.2032,-1.8288 0.2032,-0.9144 0.9652,-1.4224 0.8128,-0.5588 2.7432,-0.5588 1.8796,0 2.6416,0.5588 0.8128,0.5588 0.9652,1.4224 0.2032,0.8636 0.2032,1.8796 v 7.62 l 5.334,-9.144 q 0.8128,-1.2192 1.524,-1.7272 0.762,-0.508 1.6764,-0.3556 0.9144,0.1524 2.1844,0.9652 1.9812,1.27 2.1336,2.4892 0.1524,1.1684 -1.0668,2.8448 l -7.3152,10.922002 7.4676,11.5824 q 1.2192,1.7272 1.016,2.8956 -0.2032,1.1684 -2.1336,2.4384 -1.27,0.8128 -2.2352,0.9652 -0.9144,0.1524 -1.6764,-0.3556 -0.7112,-0.5588 -1.4224,-1.7272 l -5.4864,-9.4488 v 7.874 q 0,0.9652 -0.2032,1.8796 -0.1524,0.8636 -0.9652,1.4224 -0.8128,0.508 -2.6924,0.508 z"
         style="font-size:50.8px;font-family:Fredoka;-inkscape-font-specification:'Fredoka, @wght=600';font-variation-settings:'wght' 600;fill:#f2f2f2"
         id="path13664" />
      <path
         d="m 222.27421,123.04565 q -1.8288,0 -2.6416,-0.5588 -0.8128,-0.5588 -1.016,-1.4224 -0.1524,-0.9144 -0.1524,-1.8796 V 91.397248 q 0,-0.9652 0.1524,-1.8288 0.2032,-0.9144 1.016,-1.4732 0.8128,-0.5588 2.6924,-0.5588 1.8796,0 2.6416,0.5588 0.8128,0.5588 1.016,1.4732 0.2032,0.8636 0.2032,1.8796 v 27.787602 q 0,0.9652 -0.2032,1.8288 -0.2032,0.8636 -1.016,1.4224 -0.8128,0.5588 -2.6924,0.5588 z"
         style="font-size:50.8px;font-family:Fredoka;-inkscape-font-specification:'Fredoka, @wght=600';font-variation-settings:'wght' 600;fill:#f2f2f2"
         id="path13666" />
      <path
         d="m 233.75502,123.04565 q -1.778,0 -2.5908,-0.5588 -0.8128,-0.5588 -1.016,-1.4224 -0.1524,-0.9144 -0.1524,-1.9304 V 91.244848 q 0,-0.9652 0.2032,-1.778 0.2032,-0.8128 1.016,-1.3208 0.8636,-0.5588 2.6924,-0.5588 1.8796,0 2.5908,0.4572 0.7112,0.4572 1.27,1.2192 l 10.3632,18.694402 V 91.244848 q 0,-0.9652 0.2032,-1.778 0.254,-0.8128 1.0668,-1.3208 0.8128,-0.5588 2.6416,-0.5588 1.8796,0 2.6416,0.5588 0.8128,0.5588 0.9652,1.4732 0.2032,0.8636 0.2032,1.8288 v 27.736802 q 0,0.9652 -0.2032,1.8796 -0.2032,0.8636 -1.0668,1.4224 -0.8128,0.5588 -2.6924,0.5588 -1.4224,0 -2.2352,-0.254 -0.762,-0.254 -1.27,-1.016 l -10.7188,-18.8468 v 16.256 q 0,0.9652 -0.2032,1.8796 -0.2032,0.8636 -1.016,1.4224 -0.8128,0.5588 -2.6924,0.5588 z"
         style="font-size:50.8px;font-family:Fredoka;-inkscape-font-specification:'Fredoka, @wght=600';font-variation-settings:'wght' 600;fill:#f2f2f2"
         id="path13668" />
      <path
         d="m 276.73185,123.45205 q -2.8956,0 -5.2324,-1.3208 -2.286,-1.3716 -3.9116,-3.81 -1.6256,-2.4892 -2.4892,-5.8928 -0.8128,-3.4544 -0.8128,-7.6708 0,-3.9624 0.8636,-7.213602 0.9144,-3.302 2.5908,-5.6388 1.6764,-2.3876 4.0132,-3.6576 2.3876,-1.27 5.3848,-1.27 0.762,0 2.0828,0.3048 1.3208,0.3048 2.7432,0.8128 1.4732,0.508 2.54,1.27 1.2192,0.7112 1.9304,1.5748 0.7112,0.8636 0.762,1.4732 0,0.4572 -0.254,1.1684 -0.254,0.6604 -0.6604,1.27 -0.6604,1.016 -1.524,1.6256 -0.8128,0.6096 -1.5748,0.6096 -0.3556,0 -1.0668,-0.254 -0.6604,-0.3048 -1.4732,-0.762 -0.6096,-0.4572 -1.27,-0.7112 -0.6096,-0.3048 -1.2192,-0.4572 -0.6096,-0.1524 -1.27,-0.1524 -1.5748,0 -2.6924,1.27 -1.1176,1.27 -1.6764,3.556 -0.508,2.235202 -0.508,5.334002 0.0508,3.2004 0.6096,5.6388 0.5588,2.3876 1.6256,3.7592 1.1176,1.3208 2.6924,1.3208 0.6096,0 1.0668,-0.0508 0.508,-0.0508 0.9652,-0.1524 0.4572,-0.1016 1.016,-0.3048 v -6.7056 h -1.6764 q -0.8128,0 -1.3208,-0.1524 -0.508,-0.2032 -0.762,-0.8636 -0.254,-0.7112 -0.254,-2.3368 0,-1.5748 0.254,-2.286 0.3048,-0.7112 0.8636,-0.8636 0.5588,-0.1524 1.3208,-0.1524 h 5.8928 q 1.0668,0.0508 1.778,0.508 0.762,0.4572 1.1684,1.27 0.4572,0.8128 0.4572,1.9304 v 11.2776 q 0,1.2192 -1.1176,2.5908 -1.1176,1.3716 -2.8956,2.286 -1.016,0.508 -2.2352,0.9652 -1.2192,0.4064 -2.4384,0.6096 -1.2192,0.254 -2.286,0.254 z"
         style="font-size:50.8px;font-family:Fredoka;-inkscape-font-specification:'Fredoka, @wght=600';font-variation-settings:'wght' 600;fill:#f2f2f2"
         id="path13670" />
    </g>
  </g>
</svg>
