<?xml version="1.0" encoding="UTF-8" standalone="no"?>
<svg
   id="Layer_1"
   data-name="Layer 1"
   viewBox="0 0 3845.9421 1854.2221"
   version="1.1"
   sodipodi:docname="gbc2players.svg"
   width="3845.9421"
   height="1854.222"
   inkscape:version="1.1.2 (0a00cf5339, 2022-02-04, custom)"
   xmlns:inkscape="http://www.inkscape.org/namespaces/inkscape"
   xmlns:sodipodi="http://sodipodi.sourceforge.net/DTD/sodipodi-0.dtd"
   xmlns="http://www.w3.org/2000/svg"
   xmlns:svg="http://www.w3.org/2000/svg">
  <defs
     id="defs27" />
  <sodipodi:namedview
     id="namedview25"
     pagecolor="#ffffff"
     bordercolor="#666666"
     borderopacity="1.0"
     inkscape:pageshadow="2"
     inkscape:pageopacity="0.0"
     inkscape:pagecheckerboard="0"
     showgrid="false"
     inkscape:zoom="0.19684805"
     inkscape:cx="1831.3618"
     inkscape:cy="675.64803"
     inkscape:window-width="1920"
     inkscape:window-height="1017"
     inkscape:window-x="-8"
     inkscape:window-y="-8"
     inkscape:window-maximized="1"
     inkscape:current-layer="Layer_1" />
  <path
     d="m 824.40316,348.79861 -24.6,-126.7 -56.6,126.7 h 81.2 m 889.00004,321.9 h -134.1 l -17.9,-403.8 -174.4,403.8 h -89.4 l -74.5,-365.1 -116.2,365.1 H 878.90316 l -34.3,-195.2 h -155 l -87.9,195.2 h -140.1 l 287.6,-652.700002 h 165.4 l 87.90004,527.500002 171.4,-527.500002 h 132.6 l 65.6,357.600002 152,-357.600002 h 160.9 l 28.4,652.700002"
     style="fill:#ffffff"
     id="path2" />
  <polyline
     points="2097.903 670.699 2120.303 530.599 1886.303 530.599 1904.903 414.399 2108.303 414.399 2130.703 274.299 1925.003 274.299 1942.903 157.999 2176.903 157.999 2199.203 17.999 1828.203 17.999 1723.803 670.699 2097.903 670.699"
     style="fill:#ffffff"
     id="polyline4" />
  <polyline
     points="3840.003 17.999 3683.503 17.999 3550.903 230.999 3467.403 17.999 3314.003 17.999 3471.903 362.199 3423.303 670.699 3557.403 670.699 3598.603 397.999 3840.003 17.999"
     style="fill:#ffffff"
     id="polyline6" />
  <path
     d="m 3043.7032,546.39861 c 70.8999,31.8 157.8,-30.5 193.8999,-139.1 36.1999,-108.6 8,-222.3 -62.8999,-254.1 -70.8999,-31.7 -157.8,30.6 -194,139.1 -36.2,108.6 -8,222.3 63,254.1 m -203,-258.3 c 41.6001,-180.4 195.8999,-298.900002 344.5,-264.500002 148.6001,34.3 235.3999,208.500002 193.7,388.900002 -41.6,180.5 -195.9,298.9 -344.5001,264.6 -148.6999,-34.4 -235.3999,-208.5 -193.6999,-389"
     style="fill:#ffffff"
     id="path8" />
  <path
     d="M 175.50316,76.098608 C 47.703165,155.19861 -13.796835,275.79861 2.6031649,439.69861 c 19.0000001,190.2 265.2999951,310 473.8999951,189.3 18.2,-10.6 11.1,-8.9 17.9,-15 l 41.7,-265.2 h -248.8 l -19.1,122.2 h 104 l -11.9,65.6 c -59.6,23.9 -161,14.9 -204.2,-62.6 -27.3,-49 -52.7,-158.6 62.6,-259.3 93.9,-82 256.3,-96.8 350.2,-53.6 0,0 11.9,-68.600002 20.9,-132.700002 -180.4,-62.6 -320.4,-10.4 -414.3,47.7"
     style="fill:#ffffff"
     id="path10" />
  <path
     d="m 2403.4031,21.598608 -103.5,647.800002 h 301.7 c 124.3,0 305.8999,-183.1 140.5,-332.8 170.1001,-176 1.5,-313.500002 -88.7,-315.000002 -72.5,-1.2 -251.3999,0 -251.3999,0 h 1.3999 m 73.9001,391.900002 h 112.4 c 106.5,0 103.6001,130.1 -14.8,130.1 h -118.3001 l 20.7003,-130.1 m 41.3998,-254.4 h 87.3 c 94.6001,0 75.3999,121.3 -14.8,121.3 h -93.2 l 20.7,-121.3"
     style="fill:#ffffff"
     id="path12" />
  <path
     d="m 3209.9031,1398.5986 a 89.8555,89.8555 0 0 0 -15.3,-16.7 c -26.8999,-23 -129.3999,-110.5 -206.2,-173.5 59.8999,-32.6999 88.8,-55.1999 88.8,-55.1999 0,0 83.3001,-55.2001 101.1001,-139.7001 13.6002,-81.09994 -1.6999,-123.39994 -118.8,-180.89994 -93.1001,-45.6 -287.1001,-86.4 -390.3,57.8 -23.8999,33.3 -23.8999,84.7 -14,110.79994 23.2,61.2 43.2,109.7 39.1001,344.1 -0.5,28.5 -20.1999,40.6 -22.5,68.5 -2.6001,30.2 8.3001,110 93,113.5 72.8999,3 85.7,-59.6999 85.7,-85.5999 v -120.3001 c 0,0 197.6001,165.8001 231.5,194.9 18.3,15.7 42.1001,24.5 66.1001,22.4 18.3,-1.6 39.3,-9.2 59.8,-29.5 41.8998,-41.3 16.7998,-89.5 1.9997,-110.6 z m -359.8999,-312.5 0.3999,-135.89999 h 102.8001 c 47.2,0 73,55.89999 41.6001,91.19999 -22.0001,24.7 -64.6001,44.7 -144.8001,44.7 z"
     style="fill:#00968c"
     id="path14" />
  <path
     d="m 2413.4031,909.99861 c -190.8,-1 -344.5,108.19999 -343.7,311.09999 0.7,170.6999 94.8999,295.7999 275.8999,290.4 135,-4.1 352.7,-122.4 352.7,-309.8 2e-4,-157.3999 -101.7998,-290.69999 -284.8999,-291.69999 z m 125.1001,291.49999 c -7.8999,75.1 -84.3,136 -170.6001,136.1 -86.3001,0.1 -149.8,-60.8001 -141.8999,-135.9 7.8999,-75.1 84.3,-136 170.6001,-136.1 86.2998,0 149.7998,60.8 141.8999,135.9 z"
     style="fill:#dfb10a"
     id="path16" />
  <path
     d="m 1468.1032,891.49861 c -170.4,-5.6 -335.7999,144.59999 -355.5,315.30009 -22.9,198.1999 105.1,302.0999 277.1,305.5999 195.2,4 331.2,-121.3 346.6,-292.4 15.2,-169.3 -97.8,-322.89999 -268.2,-328.49999 z m -60.7999,462.89999 c -76.6,0 -128,-68 -114.7,-151.9 13.3001,-83.9 86.2,-151.9 162.8,-151.9 76.6001,0 111.5,75.1999 109.6,160.1 -2.7,117.9 -81.1001,143.7 -157.7,143.7 z"
     style="fill:#4f549d"
     id="path18" />
  <path
     d="m 984.50316,925.69861 c 12.7,-3.1 25.10004,4.5 29.30004,16.9 18.7,54.9 93.8,82.89999 143.7,36.5 18.1,-16.8 23.6,-38.7 28.1,-85.1 11.6,-120 -212.10004,-178.8 -330.80004,-89.7 -82,61.5 -249.8,242.09999 -245.7,456.39999 -1.7,59 15.7,101.9 15.7,101.9 0,0 30.6,106 136.7,147.6 64.6,26.6999 161.8,21.9 161.8,21.9 0,0 182.90004,0.1 183.40004,0.1 72.3001,0 137.6,-177.7 -46,-162.3001 -77.30004,6.5 -302.90004,65 -298.40004,-130.3 3.8,-157.0999 153.8,-297.39989 222.2,-313.89989 z"
     style="fill:#bd0547"
     id="path20" />
  <path
     d="m 1883.7032,1331.9986 -8.2,-316.5 a 435.4142,435.4142 0 0 0 -3.6,-45.59999 c -5.4,-40.8 -18.1999,-118.7 -40.1999,-149 -36.9,-50.9 -114,-53.2 -138.9,-3.9 -16.9,33.5 -14.7,90.6 11.8,158.3 13.4,34.39999 20.4,70.89999 22.3,107.79999 0,0 14.9,238.4 19.8001,317.7999 2.1999,34.7 -11,114.5 34.4,131.1 69.4,25.4 183,-70.6 319.9998,-74.5 79,-2.3 127.7,-220 -119.3,-161 a 477.92484,477.92484 0 0 0 -98.1,35.5001 z"
     style="fill:#7aac3b"
     id="path22" />
  <g
     aria-label="2 PLAYERS"
     id="text2320"
     style="font-size:40px;line-height:1.25">
    <path
       d="m 1645.9396,1720.8885 v -33.3333 h 33.3333 v 33.3333 z m 0,133.3335 v -66.6667 h 33.3333 v -33.3334 h 66.6668 v -66.6667 h -66.6668 v -33.3334 h 133.3335 v 33.3334 h 33.3334 v 66.6667 h -33.3334 v 33.3334 h -66.6667 v 33.3334 h 100.0001 v 33.3333 z"
       style="font-size:266.667px;font-family:'Early GameBoy';-inkscape-font-specification:'Early GameBoy, Normal';fill:#ff0000"
       id="path7292" />
    <path
       d="m 2179.2736,1754.2219 v -66.6667 h -66.6668 v 66.6667 z m -133.3335,100.0001 v -200.0002 h 166.6668 v 33.3334 h 33.3334 v 66.6667 h -33.3334 v 33.3334 h -100.0001 v 66.6667 z"
       style="font-size:266.667px;font-family:'Early GameBoy';-inkscape-font-specification:'Early GameBoy, Normal';fill:#ff0000"
       id="path7294" />
    <path
       d="m 2312.6071,1854.222 v -200.0002 h 66.6667 v 166.6669 h 133.3335 v 33.3333 z"
       style="font-size:266.667px;font-family:'Early GameBoy';-inkscape-font-specification:'Early GameBoy, Normal';fill:#ff0000"
       id="path7296" />
    <path
       d="m 2579.274,1854.222 v -166.6668 h 33.3334 v 66.6667 h 66.6668 v -66.6667 h -66.6668 v -33.3334 h 133.3335 v 33.3334 h 33.3334 v 166.6668 h -100.0001 v -66.6667 h -66.6668 v 66.6667 z"
       style="font-size:266.667px;font-family:'Early GameBoy';-inkscape-font-specification:'Early GameBoy, Normal';fill:#ff0000"
       id="path7298" />
    <path
       d="m 2912.6078,1854.222 v -100.0001 h -33.3334 v -33.3334 h -33.3334 v -66.6667 h 66.6668 v 66.6667 h 66.6667 v -66.6667 h 66.6668 v 66.6667 h -33.3334 v 33.3334 h -33.3334 v 100.0001 z"
       style="font-size:266.667px;font-family:'Early GameBoy';-inkscape-font-specification:'Early GameBoy, Normal';fill:#ff0000"
       id="path7300" />
    <path
       d="m 3112.608,1854.222 v -200.0002 h 200.0003 v 33.3334 h -133.3335 v 33.3333 h 100.0001 v 33.3334 h -100.0001 v 66.6668 h 133.3335 v 33.3333 z"
       style="font-size:266.667px;font-family:'Early GameBoy';-inkscape-font-specification:'Early GameBoy, Normal';fill:#ff0000"
       id="path7302" />
    <path
       d="m 3512.6085,1854.222 v -33.3333 h 66.6668 v 33.3333 z m 0,-100.0001 v -66.6667 h -66.6667 v 66.6667 z M 3379.275,1854.222 v -200.0002 h 166.6669 v 33.3334 h 33.3334 v 66.6667 h -33.3334 v 33.3334 h -33.3334 v 33.3334 h -33.3334 v -33.3334 h -33.3333 v 66.6667 z"
       style="font-size:266.667px;font-family:'Early GameBoy';-inkscape-font-specification:'Early GameBoy, Normal';fill:#ff0000"
       id="path7304" />
    <path
       d="m 3645.942,1820.8887 v -33.3334 h 33.3334 v 33.3334 z m 33.3334,33.3333 v -33.3333 h 66.6667 v -66.6668 h -66.6667 v -33.3334 h -33.3334 v -33.3333 h 33.3334 v -33.3334 h 133.3335 v 33.3334 h -100.0001 v 33.3333 h 100.0001 v 33.3334 h 33.3334 v 66.6668 h -33.3334 v 33.3333 z"
       style="font-size:266.667px;font-family:'Early GameBoy';-inkscape-font-specification:'Early GameBoy, Normal';fill:#ff0000"
       id="path7306" />
  </g>
</svg>
