<svg id="Layer_1" data-name="Layer 1" xmlns="http://www.w3.org/2000/svg" xmlns:xlink="http://www.w3.org/1999/xlink" viewBox="0 0 3839 876"><defs><linearGradient id="Dégradé_sans_nom" x1="548.90002" y1="8313.41795" x2="662.59998" y2="8313.41795" gradientTransform="matrix(1, 0, 0, -1, 0, 8519.21796)" gradientUnits="userSpaceOnUse"><stop offset="0" stop-color="#3c4da1"/><stop offset="0.9932" stop-color="#45495f"/></linearGradient><linearGradient id="Dégradé_sans_nom_2" x1="246.49999" y1="7937.31793" x2="246.49999" y2="7774.51794" gradientTransform="matrix(1, 0, 0, -1, 0, 8519.21796)" gradientUnits="userSpaceOnUse"><stop offset="0.0368" stop-color="#f7fbff"/><stop offset="0.8957" stop-color="#e7ecfe"/></linearGradient><linearGradient id="Dégradé_sans_nom_3" x1="636.75" y1="7927.91797" x2="636.75" y2="8091.91797" gradientTransform="matrix(1, 0, 0, -1, 0, 8519.21796)" gradientUnits="userSpaceOnUse"><stop offset="0.0368" stop-color="#adc1ea"/><stop offset="0.8957" stop-color="#7185b8"/></linearGradient><linearGradient id="Dégradé_sans_nom_4" x1="379.29999" y1="7855.91794" x2="644.90002" y2="7855.91794" gradientTransform="matrix(1, 0, 0, -1, 0, 8519.21796)" gradientUnits="userSpaceOnUse"><stop offset="0.0368" stop-color="#f7fbff"/><stop offset="0.8957" stop-color="#6f83b9"/></linearGradient><linearGradient id="Dégradé_sans_nom_5" x1="883.61353" y1="5132.82343" x2="1262.91351" y2="5132.82343" gradientTransform="matrix(1, 0, 0, -1, -883.61353, 5680.32343)" gradientUnits="userSpaceOnUse"><stop offset="0" stop-color="#617cc6"/><stop offset="0.9932" stop-color="#91b0d7"/></linearGradient><linearGradient id="Dégradé_sans_nom_6" x1="246.49999" y1="8387.91795" x2="246.49999" y2="7927.91797" gradientTransform="matrix(1, 0, 0, -1, 0, 8519.21796)" gradientUnits="userSpaceOnUse"><stop offset="0" stop-color="#4c5794"/><stop offset="1" stop-color="#424873"/></linearGradient><linearGradient id="Dégradé_sans_nom_7" x1="419.37502" y1="8121.29298" x2="718.47495" y2="7822.19293" gradientTransform="matrix(1, 0, 0, -1, 0, 8519.21796)" gradientUnits="userSpaceOnUse"><stop offset="0" stop-color="#3f578e"/><stop offset="0.1523" stop-color="#435a92"/><stop offset="0.3057" stop-color="#4f639d"/><stop offset="0.4593" stop-color="#6373b0"/><stop offset="0.5006" stop-color="#6a78b6"/><stop offset="0.8998" stop-color="#6f83c1"/><stop offset="1" stop-color="#7187c4"/></linearGradient><linearGradient id="Dégradé_sans_nom_8" x1="1262.91351" y1="5680.32343" x2="1262.91351" y2="5242.32343" gradientTransform="matrix(1, 0, 0, -1, -883.61353, 5680.32343)" gradientUnits="userSpaceOnUse"><stop offset="0" stop-color="#9aa8d4"/><stop offset="0.061" stop-color="#a2afd7"/><stop offset="0.2422" stop-color="#b6bfdf"/><stop offset="0.4249" stop-color="#c2c9e3"/><stop offset="0.6099" stop-color="#c6cce5"/><stop offset="1" stop-color="#f2f1f7"/></linearGradient><linearGradient id="Dégradé_sans_nom_9" x1="379.29999" y1="8329.51795" x2="548.90002" y2="8329.51795" gradientTransform="matrix(1, 0, 0, -1, 0, 8519.21796)" gradientUnits="userSpaceOnUse"><stop offset="0.0368" stop-color="#8792c3"/><stop offset="1" stop-color="#5c6d99"/></linearGradient><linearGradient id="Dégradé_sans_nom_10" x1="357.10001" y1="7985.96796" x2="379.29999" y2="7985.96796" gradientTransform="matrix(1, 0, 0, -1, 0, 8519.21796)" gradientUnits="userSpaceOnUse"><stop offset="0.5313" stop-color="#acc3d6" stop-opacity="0"/><stop offset="1" stop-color="#acc3d6"/></linearGradient><linearGradient id="Dégradé_sans_nom_11" x1="357.10001" y1="7715.31796" x2="379.29999" y2="7715.31796" xlink:href="#Dégradé_sans_nom_10"/><linearGradient id="Dégradé_sans_nom_12" x1="10835.54748" y1="7210.01482" x2="10857.7633" y2="7210.01482" gradientTransform="matrix(0.5, -0.866, -0.866, -0.5, 877.35416, 13262.93187)" gradientUnits="userSpaceOnUse"><stop offset="0.6232" stop-color="#47588b" stop-opacity="0"/><stop offset="1" stop-color="#47588b"/></linearGradient><linearGradient id="Dégradé_sans_nom_13" x1="10835.54748" y1="6939.36252" x2="10857.7633" y2="6939.36252" xlink:href="#Dégradé_sans_nom_12"/><linearGradient id="Dégradé_sans_nom_14" x1="306.26997" y1="8216.74925" x2="295.17736" y2="8235.96215" gradientTransform="matrix(1, 0, 0, -1, 0, 8519.21796)" gradientUnits="userSpaceOnUse"><stop offset="0" stop-color="#dbdde8" stop-opacity="0"/><stop offset="0.1847" stop-color="#d8dae6" stop-opacity="0.0369"/><stop offset="0.3247" stop-color="#ced1df" stop-opacity="0.0649"/><stop offset="0.4499" stop-color="#bec1d4" stop-opacity="0.09"/><stop offset="0.5666" stop-color="#a7abc4" stop-opacity="0.1133"/><stop offset="0.6774" stop-color="#898eb0" stop-opacity="0.1355"/><stop offset="0.7836" stop-color="#656a97" stop-opacity="0.1567"/><stop offset="0.8864" stop-color="#3a4079" stop-opacity="0.1773"/><stop offset="0.9839" stop-color="#091157" stop-opacity="0.1968"/><stop offset="1" stop-color="#000851" stop-opacity="0.2"/></linearGradient><linearGradient id="Dégradé_sans_nom_15" x1="8886.26067" y1="7855.57105" x2="8880.36606" y2="7865.78059" gradientTransform="translate(9134.36963 8519.21796) rotate(180)" gradientUnits="userSpaceOnUse"><stop offset="0" stop-color="#dbdde8" stop-opacity="0"/><stop offset="0.312" stop-color="#d9dbe7" stop-opacity="0.0624"/><stop offset="0.4549" stop-color="#d1d4e1" stop-opacity="0.091"/><stop offset="0.5633" stop-color="#c5c7d9" stop-opacity="0.1127"/><stop offset="0.6543" stop-color="#b3b6cc" stop-opacity="0.1309"/><stop offset="0.7345" stop-color="#9b9fbc" stop-opacity="0.1469"/><stop offset="0.807" stop-color="#7e82a8" stop-opacity="0.1614"/><stop offset="0.8737" stop-color="#5b6190" stop-opacity="0.1747"/><stop offset="0.9359" stop-color="#333974" stop-opacity="0.1872"/><stop offset="0.9924" stop-color="#070e56" stop-opacity="0.1985"/><stop offset="1" stop-color="#000851" stop-opacity="0.2"/></linearGradient><linearGradient id="Dégradé_sans_nom_16" x1="10569.96447" y1="6837.68655" x2="10592.17946" y2="6837.68655" xlink:href="#Dégradé_sans_nom_12"/><linearGradient id="Dégradé_sans_nom_17" x1="14762.9089" y1="-418.12502" x2="14785.11886" y2="-418.12502" gradientTransform="matrix(-0.5, -0.866, 0.866, -0.5, 8266.80276, 13262.93187)" gradientUnits="userSpaceOnUse"><stop offset="0.7598" stop-color="#3b4d86" stop-opacity="0"/><stop offset="1" stop-color="#3b4d86"/></linearGradient><linearGradient id="Dégradé_sans_nom_18" x1="15337.6296" y1="-418.13253" x2="15316.19806" y2="-418.13253" gradientTransform="matrix(-0.5, -0.866, 0.866, -0.5, 8266.80276, 13262.93187)" gradientUnits="userSpaceOnUse"><stop offset="0.6232" stop-color="#e8f2f3" stop-opacity="0"/><stop offset="0.9975" stop-color="#e8f2f3"/></linearGradient><linearGradient id="Dégradé_sans_nom_19" x1="11114.21545" y1="6952.21909" x2="11092.8075" y2="6952.21909" gradientTransform="matrix(0.5, -0.866, -0.866, -0.5, 938.22831, 13262.93187)" xlink:href="#Dégradé_sans_nom_18"/><linearGradient id="Dégradé_sans_nom_20" x1="-5937.61085" y1="-2949.71054" x2="-5916.24269" y2="-2949.71054" gradientTransform="matrix(0.5, 0.866, -0.866, 0.5, 1004.05637, 6797.76051)" xlink:href="#Dégradé_sans_nom_18"/><linearGradient id="Dégradé_sans_nom_21" x1="8526.0304" y1="-11086.78557" x2="8548.23035" y2="-11086.78557" gradientTransform="matrix(-1, 0, 0, 1, 9193.13037, 11589.63556)" xlink:href="#Dégradé_sans_nom_17"/><linearGradient id="Dégradé_sans_nom_22" x1="656.31375" y1="7920.5868" x2="644.57901" y2="7927.36196" gradientTransform="matrix(1, 0, 0, -1, 0, 8519.21796)" xlink:href="#Dégradé_sans_nom_17"/></defs><polyline points="1460.7 424.4 1290.7 720 1503.4 720 1503.4 652.9 1408.5 652.9 1496.3 506.1 1615.1 720 1703.4 720 1531.7 424.4 1460.7 424.4" style="fill:#fff"/><polyline points="1896.2 720 1987.1 562.1 1987.1 720 2060.3 720 2060.5 424.4 1987.4 424.4 1866.8 633.7 1746 424.4 1673.2 424.4 1673.3 720 1746.2 720 1746.2 562.1 1837.4 720 1896.2 720" style="fill:#fff"/><path d="M1300.2,542.1H1115.5v62.4h107.1V653H1031.5V488.5H1297V424.4H1029.1c-58,0-76.8,17.8-76.8,73.5V646.5c0,55.9,18.7,73.7,76.8,73.7h194.5c58.1,0,76.69995-17.8,76.69995-73.7l-.1-104.4" transform="translate(0 0)" style="fill:#fff"/><path d="M2708,424.4H2534.2c-58.30005,0-76.80005,17.8-76.80005,73.5V646.4c0,55.9,18.5,73.6,76.80005,73.6H2708c58.1001,0,76.8999-17.7,76.8999-73.6V592.5h-79.5V653H2536.7V488.6H2705.3999v53.5h79.5V497.9c0-55.69995-18.7998-73.5-76.8999-73.5" transform="translate(0 0)" style="fill:#fff"/><path d="M3068.8999,652.9H2896V424.4h-79.3999v222c0,55.9,18.69995,73.7,76.8,73.7h178.10009c58.2,0,76.89991-17.8,76.89991-73.7v-222H3069l-.1001,228.5" transform="translate(0 0)" style="fill:#fff"/><path d="M3429.80005,636.8c0,14.2-3.19995,18.1-24.69995,18.1H3262.5V597.8h142.6001c21.5,0,24.69995,4,24.69995,18v21m-167.19995-153H3405c22,0,23,4.8,23,13.3V524c0,8.5-1,13.4-23,13.4H3262.6001Zm209.19995,84.3c19.1001-9.1,29.6001-25.9,29.6001-47.8V485.7c0-41.9-22.39991-61.3-70.39991-61.3h-247.8V720h230.60009c60.1001,0,90.3-20.8,90.3-62.5V621.6C3504,596.5,3492.6001,577.9,3471.80005,568.1Z" transform="translate(0 0)" style="fill:#fff"/><polyline points="3613.4 597.6 3743.3 597.6 3743.3 535.6 3613.4 535.6 3613.4 486.6 3836.3 486.6 3836.3 424.4 3533.9 424.4 3533.9 720 3839 720 3839 652.9 3613.4 652.9 3613.4 597.6" style="fill:#fff"/><polyline points="2174.8 597.6 2304.8 597.6 2304.8 535.6 2174.8 535.6 2174.8 486.6 2397.8 486.6 2397.8 424.4 2095.6 424.4 2095.6 720 2400.5 720 2400.5 652.9 2174.8 652.9 2174.8 597.6" style="fill:#fff"/><polyline points="3016.1 342.7 3016.1 115.6 2972.8 115.6 2972.8 260.4 2899.3 115.6 2841.1 115.6 2841.1 342.7 2884.2 342.7 2884.2 165.7 2973.2 342.7 3016.1 342.7" style="fill:#c2c3c4"/><polyline points="1763.9 165.7 1853 342.7 1895.9 342.7 1895.9 115.6 1852.7 115.6 1852.7 260.4 1779.1 115.6 1720.8 115.6 1720.8 342.7 1763.9 342.7 1763.9 165.7" style="fill:#c2c3c4"/><polyline points="1055.9 165.7 1144.9 342.7 1187.6 342.7 1187.6 115.6 1144.4 115.6 1144.4 260.4 1071 115.6 1012.7 115.6 1012.7 342.7 1055.9 342.7 1055.9 165.7" style="fill:#c2c3c4"/><rect x="1429.80005" y="115.6" width="48.69995" height="227.19999" style="fill:#c2c3c4"/><polyline points="2162.8 342.7 2209.1 342.7 2209.1 151.8 2282 151.8 2282 115.7 2089.8 115.7 2089.8 151.8 2162.8 151.8 2162.8 342.7" style="fill:#c2c3c4"/><path d="M3270.8999,150.5h61c14.8999,0,30.30005,11.4,30.30005,25.2V283c0,14.7-15.80005,24.9-30.30005,24.9h-61V150.5M3333.2,342.7c39.8,0,71.8999-26.3,71.8999-58.6V174.4c0-32.5-32.10009-58.8-71.8999-58.8h-105.1001V342.8l105.1001-.1Z" transform="translate(0 0)" style="fill:#c2c3c4"/><path d="M3741.1001,284.6c0,13.7-15.5,25-30.30005,25h-36c-14.8999,0-30.3-11.3-30.3-25V173.9c0-14.1,15.3999-25.1,30.3-25.1h36c14.80005,0,30.30005,11,30.30005,25.1V284.6M3784,172.6c0-32.4-32.3999-58.6-71.8999-58.6h-38.80005c-39.6001,0-71.8,26.3-71.8,58.6V285.8c0,32.5,32.2,58.7,71.8,58.7h38.80005c39.5,0,71.8999-26.2,71.8999-58.7Z" transform="translate(0 0)" style="fill:#c2c3c4"/><path d="M2460.7,284.3c0,31.6,30.5,57.1,68.6001,58.4h100.1001v-36h-95.8c-15,0-30.30005-9.8-30.30005-23.6V242h126.1001V205.6h-126.1001V175.2c0-13.7,15.30005-23.7,30.30005-23.7h95.8V115.6h-98.6001c-38.8.8-70.1001,26.6-70.1001,58.5V284.3" transform="translate(0 0)" style="fill:#c2c3c4"/><polygon points="662.6 163.5 662.6 182.4 548.9 248.1 548.9 229.2 662.6 163.5" style="fill:url(#Dégradé_sans_nom)"/><polygon points="130.1 581.9 113.7 591.3 379.3 744.7 379.3 725.8 130.1 581.9" style="fill:url(#Dégradé_sans_nom_2)"/><path d="M113.7,284.6,379.3,131.3" transform="translate(0 0)" style="fill:none;stroke:#000;stroke-miterlimit:10;stroke-width:4.348499774932861px"/><path d="M379.3,131.3l169.6,97.9" transform="translate(0 0)" style="fill:none;stroke:#000;stroke-miterlimit:10;stroke-width:4.348499774932861px"/><polygon points="628.6 436.7 628.6 581.9 644.9 591.3 644.9 427.3 628.6 436.7" style="fill:url(#Dégradé_sans_nom_3)"/><polygon points="628.6 581.9 379.3 725.8 379.3 744.7 644.9 591.3 628.6 581.9" style="fill:url(#Dégradé_sans_nom_4)"/><path d="M203.2,336.3V539.6L379.3,641.3V438Zm-89.5-51.7L0,219V657L379.3,876V744.6L113.7,591.3Z" transform="translate(0 0)" style="fill:url(#Dégradé_sans_nom_5)"/><polygon points="113.7 284.6 113.7 284.6 113.7 591.3 130.1 581.9 130.1 294.1 130.1 294.1 379.3 150.2 379.3 131.3 113.7 284.6" style="fill:url(#Dégradé_sans_nom_6)"/><polygon points="379.3 876 379.3 744.7 644.9 591.3 644.9 427.3 555.4 478.9 555.4 539.6 379.3 641.3 379.3 438 758.6 219 758.6 656.9 757.1 657.9 379.3 876" style="fill:url(#Dégradé_sans_nom_7)"/><path d="M548.9,229.2l113.7-65.6L379.3,0,0,219l113.7,65.6L379.3,131.3Zm193.4-19.6L539,326.9,379.3,234.7,203.2,336.3,379.3,438,758.6,219Z" transform="translate(0 0)" style="fill:url(#Dégradé_sans_nom_8)"/><polygon points="379.3 131.3 379.3 150.2 548.9 248.1 548.9 229.2 379.3 131.3" style="fill:url(#Dégradé_sans_nom_9)"/><polygon points="357.1 425.2 357.1 628.5 379.3 641.3 379.3 438 357.1 425.2" style="isolation:isolate;opacity:0.699999988079071;fill:url(#Dégradé_sans_nom_10)"/><polygon points="357.1 731.8 357.1 863.1 379.3 876 379.3 744.7 357.1 731.8" style="isolation:isolate;opacity:0.699999988079071;fill:url(#Dégradé_sans_nom_11)"/><g style="opacity:0.699999988079071"><polygon points="0 244.6 113.7 310.3 113.7 284.6 0 219 0 244.6" style="isolation:isolate;opacity:0.699999988079071;fill:url(#Dégradé_sans_nom_12)"/><polygon points="203.2 361.9 379.3 463.6 379.3 438 203.2 336.3 203.2 361.9" style="isolation:isolate;opacity:0.699999988079071;fill:url(#Dégradé_sans_nom_13)"/></g><polygon points="395 243.8 225.4 349.1 203.2 336.3 379.3 234.7 395 243.8" style="fill:url(#Dégradé_sans_nom_14)"/><polygon points="118.3 588.7 379.3 736.2 379.3 725.8 130.1 581.9 118.3 588.7" style="fill:url(#Dégradé_sans_nom_15)"/><g style="opacity:0.699999988079071"><polygon points="113.7 591.3 201.7 652.3 379.3 770.3 379.3 744.7 113.7 591.3" style="isolation:isolate;opacity:0.699999988079071;fill:url(#Dégradé_sans_nom_16)"/></g><g style="opacity:0.699999988079071"><polygon points="644.9 616.9 490.3 684.3 379.3 744.7 493.2 678.9 644.9 591.3 644.9 616.9" style="isolation:isolate;opacity:0.699999988079071;fill:url(#Dégradé_sans_nom_17)"/></g><polygon points="379.3 131.4 113.7 284.6 92.4 272.3 379.3 106.8 379.3 131.4" style="isolation:isolate;opacity:0.699999988079071;fill:url(#Dégradé_sans_nom_18)"/><g style="opacity:0.699999988079071"><polygon points="379.3 131.4 548.9 229.2 570.2 216.9 379.3 106.8 379.3 131.4" style="isolation:isolate;opacity:0.699999988079071;fill:url(#Dégradé_sans_nom_19)"/></g><g style="opacity:0.699999988079071"><polygon points="527.5 216.9 641.2 151.2 662.6 163.5 548.9 229.2 527.5 216.9" style="isolation:isolate;opacity:0.699999988079071;fill:url(#Dégradé_sans_nom_20)"/></g><polygon points="667.1 578.5 667.1 414.4 644.9 427.3 644.9 591.3 667.1 578.5" style="isolation:isolate;opacity:0.699999988079071;fill:url(#Dégradé_sans_nom_21)"/><polygon points="644.9 618.4 644.9 591.3 667.1 578.5 644.9 618.4" style="isolation:isolate;opacity:0.699999988079071;fill:url(#Dégradé_sans_nom_22)"/></svg>