<?xml version="1.0" encoding="UTF-8" standalone="no"?>
<svg
   id="Layer_1"
   data-name="Layer 1"
   viewBox="0 0 3839.00024 806.25767"
   version="1.1"
   sodipodi:docname="intellivision.svg"
   inkscape:version="1.1.2 (0a00cf5339, 2022-02-04, custom)"
   xmlns:inkscape="http://www.inkscape.org/namespaces/inkscape"
   xmlns:sodipodi="http://sodipodi.sourceforge.net/DTD/sodipodi-0.dtd"
   xmlns="http://www.w3.org/2000/svg"
   xmlns:svg="http://www.w3.org/2000/svg">
  <defs
     id="defs67" />
  <sodipodi:namedview
     id="namedview65"
     pagecolor="#ffffff"
     bordercolor="#666666"
     borderopacity="1.0"
     inkscape:pageshadow="2"
     inkscape:pageopacity="0.0"
     inkscape:pagecheckerboard="0"
     showgrid="false"
     inkscape:zoom="0.27845791"
     inkscape:cx="1919.5001"
     inkscape:cy="402.21518"
     inkscape:window-width="1920"
     inkscape:window-height="1017"
     inkscape:window-x="-8"
     inkscape:window-y="-8"
     inkscape:window-maximized="1"
     inkscape:current-layer="Layer_1" />
  <rect
     y="267.79999"
     width="144.39999"
     height="528.79999"
     style="fill:#ffcc00"
     id="rect2" />
  <path
     d="M467.9,366.7v209.1L331.7,387.9c-43.2-59.6-137.5-29-137.5,44.6v364h71.7V543.2L438.2,780.9c31.8,44,101.2,21.4,101.2-32.8V366.7Z"
     transform="translate(0 0)"
     style="fill:#ffcc00"
     id="path4" />
  <path
     d="M3767.3999,366.7v209.1L3631.2,388.00006c-43.2-59.6-137.5-29-137.5,44.6v364h71.69995V543.2L3737.7,780.9c31.8,44,101.19995,21.4,101.19995-32.8V366.7Z"
     transform="translate(0 0)"
     style="fill:#ffcc00"
     id="path6" />
  <path
     d="M2333.8999,239.9h-74L2144,691.2l-90.1001-324.5h-149.8l110.1,367.9c29.19995,97.5,168.29993,94.8,193.6-3.8Z"
     transform="translate(0 0)"
     style="fill:#ffcc00"
     id="path8" />
  <path
     d="M792.6,724.8a19.99446,19.99446,0,0,1-20-20V458.5a20.10118,20.10118,0,0,1,20.1-20.1h82.2V366.7H772.5V267.8L516.2,438.4h91.9a20.10118,20.10118,0,0,1,20.1,20.1V704.4a92.1197,92.1197,0,0,0,92.1,92.1H874.7V724.8Z"
     transform="translate(0 0)"
     style="fill:#ffcc00"
     id="path10" />
  <path
     d="M1361.30005,704.7v-338H1217v337.6a92.11974,92.11974,0,0,0,92.1,92.1h154.3999V724.7h-82.2A19.86786,19.86786,0,0,1,1361.30005,704.7Z"
     transform="translate(0 0)"
     style="fill:#ffcc00"
     id="path12" />
  <path
     d="M1632.7,724.8a19.99447,19.99447,0,0,1-20-20v-338H1468.3999V704.4a92.11974,92.11974,0,0,0,92.1,92.1h154.3999V724.8Z"
     transform="translate(0 0)"
     style="fill:#ffcc00"
     id="path14" />
  <path
     d="M1195,438.4V366.7H984.3a92.22644,92.22644,0,0,0-92.2,92.2V704.4a92.22644,92.22644,0,0,0,92.2,92.2H1195V725H1056.6a20.10117,20.10117,0,0,1-20.1-20.1V617.6H1168V545.9H1036.5V458.7a20.10118,20.10118,0,0,1,20.1-20.1l138.4-.2Z"
     transform="translate(0 0)"
     style="fill:#ffcc00"
     id="path16" />
  <rect
     x="1728.09998"
     y="474.5"
     width="144.40002"
     height="321.90002"
     style="fill:#ffcc00"
     id="rect18" />
  <rect
     x="1728.09998"
     y="366.70001"
     width="144.40002"
     height="71.70001"
     style="fill:#ffcc00"
     id="rect20" />
  <rect
     x="2850.1001"
     y="474.5"
     width="144.3999"
     height="321.90002"
     style="fill:#ffcc00"
     id="rect22" />
  <rect
     x="2850.1001"
     y="366.70001"
     width="144.3999"
     height="71.70001"
     style="fill:#ffcc00"
     id="rect24" />
  <rect
     x="2319.6001"
     y="474.5"
     width="144.3999"
     height="321.90002"
     style="fill:#ffcc00"
     id="rect26" />
  <rect
     x="2319.6001"
     y="366.70001"
     width="144.3999"
     height="71.70001"
     style="fill:#ffcc00"
     id="rect28" />
  <path
     d="M3244.3999,368.3c-80,0-223.8,18.1-223.8,218.6s143.8,218.6,223.8,218.6S3468.2,787.4,3468.2,586.9,3324.3999,368.3,3244.3999,368.3Zm65.40015,297.1c0,33.7-26.8999,81.1-65.3999,81.1s-65.39991-47.3-65.39991-81.1v-157c0-33.7,26.89991-81.1,65.39991-81.1s65.3999,47.3,65.3999,81.1Z"
     transform="translate(0 0)"
     style="fill:#ffcc00"
     id="path30" />
  <path
     d="M2822.5,613c-.3999-2.6-1-5-1.5-7.5-14.3-66.3-66.3-79.1-147.3-100.6a7.78625,7.78625,0,0,1-.8999-.3l-18.6001-5c-35.1001-9.4-28.30005-61.3,8.1001-61.3H2779.2998l-.5-71.7h-138c-83.60009,0-148.3999,58.1-148.3999,143.1,0,87.6,96.6001,115.4,147.7,120.9,32.1001,3.4,63.1001,16.8,63.1001,48.3,0,25.3-21.80005,45.9-45.5,45.9H2492.3999v70.9s186.30005.9,188.8999.8c80-3.9,143.6001-69.2,143.6001-148.4A219.13571,219.13571,0,0,0,2822.5,613Z"
     transform="translate(0 0)"
     style="fill:#ffcc00"
     id="path32" />
  <path
     d="M2056.8999,12.5h0a12.22776,12.22776,0,0,0-12.3-12.3h-79.5a12.22783,12.22783,0,0,0-12.30005,12.3V71a12.22784,12.22784,0,0,1-12.3,12.3h-17.4a12.22783,12.22783,0,0,0-12.3,12.3v75a12.22784,12.22784,0,0,0,12.3,12.3h121.1a12.22782,12.22782,0,0,0,12.30005-12.3h0a12.22777,12.22777,0,0,0-12.30005-12.3h-96.6a12.22782,12.22782,0,0,1-12.3-12.3V120a12.22784,12.22784,0,0,1,12.3-12.3h96.6a12.22783,12.22783,0,0,0,12.30005-12.3h0a12.22777,12.22777,0,0,0-12.30005-12.3H2020A12.22783,12.22783,0,0,1,2007.7,70.8v-34A12.22784,12.22784,0,0,1,2020,24.5h24.5A11.76668,11.76668,0,0,0,2056.8999,12.5Z"
     transform="translate(0 0)"
     style="fill:#ffcc00"
     id="path34" />
  <path
     d="M2412,12.5h0A12.22776,12.22776,0,0,0,2399.7.2h-79.5a12.22783,12.22783,0,0,0-12.30005,12.3V71a12.22776,12.22776,0,0,1-12.3,12.3H2278.2a12.22783,12.22783,0,0,0-12.30005,12.3v75A12.22776,12.22776,0,0,0,2278.2,182.9h121.1001a12.22782,12.22782,0,0,0,12.30005-12.3h0a12.22776,12.22776,0,0,0-12.30005-12.3H2302.7A12.22782,12.22782,0,0,1,2290.3999,146V120A12.22776,12.22776,0,0,1,2302.7,107.7h96.6001a12.22783,12.22783,0,0,0,12.30005-12.3h0a12.22776,12.22776,0,0,0-12.30005-12.3h-24.3999a12.22783,12.22783,0,0,1-12.3-12.3v-34a12.22776,12.22776,0,0,1,12.3-12.3h24.5A11.8771,11.8771,0,0,0,2412,12.5Z"
     transform="translate(0 0)"
     style="fill:#ffcc00"
     id="path36" />
  <path
     d="M2702.3999,12.5h0a12.22776,12.22776,0,0,0-12.3-12.3h-79.5a12.22783,12.22783,0,0,0-12.30005,12.3V71a12.22776,12.22776,0,0,1-12.3,12.3h-17.39991a12.22783,12.22783,0,0,0-12.30005,12.3v75a12.22777,12.22777,0,0,0,12.30005,12.3H2689.7a12.22782,12.22782,0,0,0,12.3-12.3h0a12.22776,12.22776,0,0,0-12.3-12.3h-96.3999A12.22782,12.22782,0,0,1,2581,146V120a12.22776,12.22776,0,0,1,12.3-12.3h96.6001a12.22783,12.22783,0,0,0,12.30005-12.3h0a12.22777,12.22777,0,0,0-12.30005-12.3h-24.5a12.22783,12.22783,0,0,1-12.3-12.3v-34a12.22776,12.22776,0,0,1,12.3-12.3h24.5A11.79393,11.79393,0,0,0,2702.3999,12.5Z"
     transform="translate(0 0)"
     style="fill:#ffcc00"
     id="path38" />
  <path
     d="M2176.5,127.8h-55.3a12.22783,12.22783,0,0,1-12.30005-12.3V12.5a12.22776,12.22776,0,0,0-12.3-12.3h0a12.22783,12.22783,0,0,0-12.30005,12.3V170.4a12.22777,12.22777,0,0,0,12.30005,12.3h79.89991a12.22783,12.22783,0,0,0,12.3-12.3V140.1A12.16543,12.16543,0,0,0,2176.5,127.8Z"
     transform="translate(0 0)"
     style="fill:#ffcc00"
     id="path40" />
  <path
     d="M2526.5,127.9h-55.3a12.22783,12.22783,0,0,1-12.30005-12.3V12.5a12.22776,12.22776,0,0,0-12.3-12.3h0a12.22783,12.22783,0,0,0-12.30005,12.3V170.4a12.22777,12.22777,0,0,0,12.30005,12.3h79.89991a12.22783,12.22783,0,0,0,12.3-12.3V140.1A12.143,12.143,0,0,0,2526.5,127.9Z"
     transform="translate(0 0)"
     style="fill:#ffcc00"
     id="path42" />
  <path
     d="M3114.2,71.1V12.4A12.22776,12.22776,0,0,0,3101.8999.1h-96.6001a12.22782,12.22782,0,0,0-12.3,12.3V170.3a12.22776,12.22776,0,0,0,12.3,12.3h30.39991a12.22782,12.22782,0,0,0,12.30005-12.3V120a12.22776,12.22776,0,0,1,12.3-12.3h41.7a12.22782,12.22782,0,0,1,12.3,12.3v50.3a12.22777,12.22777,0,0,0,12.30005,12.3h0a12.22783,12.22783,0,0,0,12.3-12.3v-75a12.22776,12.22776,0,0,0-12.3-12.3h0A11.98012,11.98012,0,0,1,3114.2,71.1ZM3030,24.9h47.7A12.22783,12.22783,0,0,1,3090,37.2v34a12.22776,12.22776,0,0,1-12.3,12.3H3030a12.22783,12.22783,0,0,1-12.3-12.3v-34A12.16544,12.16544,0,0,1,3030,24.9Z"
     transform="translate(0 0)"
     style="fill:#ffcc00"
     id="path44" />
  <path
     d="M2842.3999,43V12.5a12.22776,12.22776,0,0,0-12.3-12.3H2739.7998a12.22782,12.22782,0,0,0-12.3,12.3V170.4a12.22776,12.22776,0,0,0,12.3,12.3h90.30005a12.22783,12.22783,0,0,0,12.3-12.3h0a12.22776,12.22776,0,0,0-12.3-12.3H2764a12.22782,12.22782,0,0,1-12.3-12.3V67.2A12.22776,12.22776,0,0,1,2764,54.9h66.1001C2836.80005,55.4,2842.3999,49.8,2842.3999,43Z"
     transform="translate(0 0)"
     style="fill:#ffcc00"
     id="path46" />
  <path
     d="M3676.8999,43V12.5a12.22776,12.22776,0,0,0-12.3-12.3H3574.2998a12.22782,12.22782,0,0,0-12.3,12.3V170.4a12.22776,12.22776,0,0,0,12.3,12.3h90.30005a12.22783,12.22783,0,0,0,12.3-12.3h0a12.22776,12.22776,0,0,0-12.3-12.3h-66.10009a12.22782,12.22782,0,0,1-12.30005-12.3V67.2a12.22776,12.22776,0,0,1,12.30005-12.3h66.10009C3671.5,55.4,3676.8999,49.8,3676.8999,43Z"
     transform="translate(0 0)"
     style="fill:#ffcc00"
     id="path48" />
  <path
     d="M1575.6,7.9l-51.9,121.2c-2.9,7-13.6,4.9-13.6-2.8V12.8A12.22784,12.22784,0,0,0,1497.79993.5h-26.4a12.54125,12.54125,0,0,0-11.4,7.5L1424.1,92c-2.80005,6.4-12.30005,5.4-13.4-1.5l-13.4-79.9A12.24123,12.24123,0,0,0,1385.2.3h-56.6a12.22783,12.22783,0,0,0-12.30005,12.3V170.2c0,6.8,5.30005,12.6,11.9,12.8a12.23513,12.23513,0,0,0,12.6-12.3V67.7A12.22784,12.22784,0,0,1,1353.1,55.4h16.5a12.26766,12.26766,0,0,1,12.1,10.3l9.5,56.5a12.24123,12.24123,0,0,0,12.1,10.3h21.9a12.54124,12.54124,0,0,0,11.4-7.5L1472,42.5c2.9-7,13.6-4.9,13.6,2.8V170.7a12.22784,12.22784,0,0,0,12.3,12.3h21.30005a12.54124,12.54124,0,0,0,11.4-7.5l23.69995-55.3a12.03222,12.03222,0,0,1,11.4-7.5h40.4a12.22783,12.22783,0,0,1,12.3,12.3v45.6a12.22784,12.22784,0,0,0,12.30005,12.3h30.4a12.22782,12.22782,0,0,0,12.30005-12.3V12.9A12.22784,12.22784,0,0,0,1661.10022.6h-74A11.76385,11.76385,0,0,0,1575.6,7.9Zm27.3,17h33.30005a12.22783,12.22783,0,0,1,12.3,12.3V76a12.22784,12.22784,0,0,1-12.3,12.3h-49.9c-8.69995,0-14.6-9-11.4-17.2l16.5-38.8A12.86694,12.86694,0,0,1,1602.9,24.9Z"
     transform="translate(0 0)"
     style="fill:#ffcc00"
     id="path50" />
  <path
     d="M2975.5,12.5A12.22776,12.22776,0,0,0,2963.2.2h-90.5a12.22783,12.22783,0,0,0-12.30005,12.3V43A12.22776,12.22776,0,0,0,2872.7,55.3h20.8a12.22783,12.22783,0,0,1,12.3,12.3v103a12.22776,12.22776,0,0,0,12.30005,12.3h0a12.22782,12.22782,0,0,0,12.3-12.3V67.6a12.22776,12.22776,0,0,1,12.30005-12.3h20.8A12.22783,12.22783,0,0,0,2975.80029,43V12.5Z"
     transform="translate(0 0)"
     style="fill:#ffcc00"
     id="path52" />
  <path
     d="M3525.80005,117.9V10.2a10.05455,10.05455,0,0,0-9.8999-9.9h-4.6001a10.05448,10.05448,0,0,0-9.8999,9.9V117.7a10.05455,10.05455,0,0,1-9.89991,9.9h-13.8a10.05448,10.05448,0,0,0-9.89991,9.9v35a10.05455,10.05455,0,0,0,9.89991,9.9h58.3999A10.05448,10.05448,0,0,0,3546,172.5V137.6a10.05455,10.05455,0,0,0-9.8999-9.9h0A9.873,9.873,0,0,1,3525.80005,117.9Z"
     transform="translate(0 0)"
     style="fill:#ffcc00"
     id="path54" />
  <path
     d="M3420.30005.3H3327a12.22783,12.22783,0,0,0-12.3,12.3V170.5a12.22776,12.22776,0,0,0,12.3,12.3h0a12.22782,12.22782,0,0,0,12.3-12.3V67.5a12.22776,12.22776,0,0,1,12.30005-12.3h56.5a12.22783,12.22783,0,0,1,12.3,12.3v103a12.22776,12.22776,0,0,0,12.30005,12.3h0a12.22782,12.22782,0,0,0,12.3-12.3V12.5a12.22776,12.22776,0,0,0-12.3-12.3h-12.39991V.3Z"
     transform="translate(0 0)"
     style="fill:#ffcc00"
     id="path56" />
  <path
     d="M3173.3999.3h-1.8a12.35555,12.35555,0,0,0-12.30005,12.3V170.5a12.22777,12.22777,0,0,0,12.30005,12.3H3277.2998a12.22782,12.22782,0,0,0,12.30005-12.3V12.5A12.22776,12.22776,0,0,0,3277.2998.2H3173.3999Zm10.2002,115.4V37.1a12.22776,12.22776,0,0,1,12.3-12.3h56.5a12.22783,12.22783,0,0,1,12.30005,12.3v78.6a12.22777,12.22777,0,0,1-12.30005,12.3h-56.5A12.48734,12.48734,0,0,1,3183.6001,115.7Z"
     transform="translate(0 0)"
     style="fill:#ffcc00"
     id="path58" />
  <path
     d="M3733.1001,71.1v-34a12.22776,12.22776,0,0,1,12.3-12.3h65a12.22783,12.22783,0,0,0,12.30005-12.3h0A12.22777,12.22777,0,0,0,3810.40015.2h-89.3a12.22783,12.22783,0,0,0-12.30005,12.3V95.6a12.22776,12.22776,0,0,0,12.30005,12.3h50.69995a12.22783,12.22783,0,0,1,12.30005,12.3v26.1a12.22776,12.22776,0,0,1-12.30005,12.3H3705.6001a12.22782,12.22782,0,0,0-12.30005,12.3h0a12.22776,12.22776,0,0,0,12.30005,12.3h121.1001a12.22782,12.22782,0,0,0,12.3-12.3v-75a12.22776,12.22776,0,0,0-12.3-12.3h-81.30005A12.7282,12.7282,0,0,1,3733.1001,71.1Z"
     transform="translate(0 0)"
     style="fill:#ffcc00"
     id="path60" />
  <path
     d="M1869.9.3H1707.4a12.22782,12.22782,0,0,0-12.3,12.3V43a12.22784,12.22784,0,0,0,12.3,12.3h20.5a12.22783,12.22783,0,0,1,12.30005,12.3V170c0,6.8,5.3,12.6,11.9,12.8a12.23513,12.23513,0,0,0,12.6-12.3V67.5a12.22784,12.22784,0,0,1,12.3-12.3h56.2a12.22783,12.22783,0,0,1,12.3,12.3V169.9c0,6.8,5.30005,12.6,11.9,12.8a12.23514,12.23514,0,0,0,12.6-12.3V67.4a12.22784,12.22784,0,0,1,12.30005-12.3h20.5a12.22782,12.22782,0,0,0,12.30005-12.3V12.3A12.22784,12.22784,0,0,0,1902.80017,0L1869.9.3Z"
     transform="translate(0 0)"
     style="fill:#ffcc00"
     id="path62" />
</svg>
