<svg id="Layer_1" data-name="Layer 1" xmlns="http://www.w3.org/2000/svg" viewBox="0 0 3839 646.09999"><path d="M386.2,0C373.5,40.7,363,71.3,347.1,112.5c-14.9,38.7-42,70-79.8,87.2-42.1,19.1-87.5,16-131,30.7C51.2,258.9,24.3,355,0,433.7H231.9c12.7-39.1,30.3-108,63.7-157,13.9-20.5,34.5-35.3,51.7-44.7,10-5.5,19.6-7.2,29.8-9.6,9-2.1,19.5-4.2,27.5-4.8,4.9-.3,10-1.1,15.3-1.6a152.83285,152.83285,0,0,0,15.9-2.1c4.8-.5,16.3-2.4,20.1-3.2,10.1-2.1,19.5-5.8,25.9-7.9,5.7-1.9,12.2-5.3,18-7.4,1.2-.4,7.3-4.3,9-5.3,24-14,45.5-38,55.3-56.4a625.06007,625.06007,0,0,0,39.3-90.5c4.8-13.7,7.9-22.2,15.3-43.3H386.2Z" transform="translate(0 0.09999)" style="fill:#ff8c1a"/><path d="M541.5,212.4c-12.7,40.7-23.2,71.3-39.1,112.5-14.9,38.7-42,70-79.8,87.1-42.1,19.2-87.5,16.1-131,30.6-85.1,28.6-112,124.7-136.3,203.4H387.2c12.7-39.1,30.3-108,63.7-157,14-20.5,34.6-35.3,51.8-44.7,10-5.5,19.6-7.2,29.8-9.6,9-2.1,19.6-4.2,27.5-4.8,4.9-.3,10-1.1,15.3-1.6a125.72728,125.72728,0,0,0,15.8-2.1c4.8-.5,16.3-2.4,20.1-3.2,10.1-2.1,19.5-5.8,25.9-7.9,5.7-1.9,12.1-5.3,18-7.4,1.2-.4,7.3-4.3,9-5.3,24-14,45.4-38.1,55.3-56.4a625.06012,625.06012,0,0,0,39.3-90.5c4.8-13.7,7.9-22.2,15.3-43.3H541.5Z" transform="translate(0 0.09999)" style="fill:red"/><path d="M1822.80005,87.7c-32.69995-22.5-68.4-31.3-120.6-32.1-58.80005-1-116.7,11.8-163.6,39.4a244.2192,244.2192,0,0,0-94.6,101.8c-31,62.1-73.69995,145.5-74.9,230.9-.7,54.8,19.19995,96.2,51.5,123.2,29.4,24.5,84.4,38.9,134,39.6,44.8.6,97.6-6.9,133.69995-22.7,40.30005-17.5,90.30005-55.7,120.1-116.4,16.1-33,31.6-66.1,44.9-102.8A715.11129,715.11129,0,0,0,1881,251.9C1894.4,190.5,1877.80005,125.4,1822.80005,87.7ZM1686.5,405.1C1672,434.2,1655.2,462.8,1617.7,475.1a127.91632,127.91632,0,0,1-59.1,4.9c-17.6-2.8-30.30005-10.9-38.9-21.9-9.5-12.2-14.5-28.4-12.6-47.9a185.77866,185.77866,0,0,1,10.3-45.8c12.1-34.4,38.2-103,55.80005-139.1,11.6-23.7,21.8-36.7,37.6-48.5,21.30005-16.1,49.4-21.2,73.4-20.1,16.6.8,37.3,6.6,47.5,16.9,15.6,15.6,22.4,35.5,12.8,74.3-4.69995,18.5-14.8,48.3-25.6,77.6C1706.9,358,1694.1,389.8,1686.5,405.1Z" transform="translate(0 0.09999)" style="fill:#fff"/><path d="M2213.30005,467.8l133.6001-399.7H2477l-186.3999,514H2092c-2.7-104.7-3-300.4-6.3999-401l-133.1,401h-132.5l185.5-514h201.29993c2.2,111.8,5.80005,344,6.5,399.7" transform="translate(0 0.09999)" style="fill:#fff"/><path d="M2643.1001,68.1,2314,582.1h138.8l63-101.8H2684l-4.8999,101.8h131l11.19995-514H2643.1001ZM2690.2,376.3H2579.7c34.3-57.6,98.19995-163.1,128.8999-217.4C2704.30005,201.7,2696.5,296.9,2690.2,376.3Z" transform="translate(0 0.09999)" style="fill:#fff"/><path d="M3070.1001,268.6,2965,582.1H2829.5l187-514h224.8999c-7.19995,78.5-32.1001,229.4-53.3,357.9L3391.7,68.1H3620.8999L3433.5,582.1h-135.2L3455.6001,166.5,3201.30005,582.1H3066.7l37.6001-415.3c-13.5,44.9-34.19995,101.8-34.19995,101.8" transform="translate(0 0.09999)" style="fill:#fff"/><polyline points="3701.3 68.2 3839 68.2 3651.8 582.2 3514.7 582.2 3701.3 68.2" style="fill:#fff"/><path d="M1331.9,582.1,1257,302.9,1507.9,68H1337.20007l-230,227.9c-1.30005,1-2,2.1-3.2,3,.30005,1.2.80005,2.9,1.30005,4.8l66.5,278.3H1331.9Z" transform="translate(0 0.09999)" style="fill:#fff"/><polygon points="1001.6 582.2 1187.6 68.2 1049.4 68.2 862.2 582.2 1001.6 582.2" style="fill:#fff"/></svg>