<?xml version="1.0" encoding="UTF-8" standalone="no"?>
<svg
   enable-background="new 0 -0.001 566.929 157.78"
   height="157.71411"
   viewBox="0 -.001 596.88767 110.39988"
   width="852.69666"
   version="1.1"
   id="svg46"
   sodipodi:docname="library-nl.svg"
   inkscape:version="1.1.2 (0a00cf5339, 2022-02-04, custom)"
   xmlns:inkscape="http://www.inkscape.org/namespaces/inkscape"
   xmlns:sodipodi="http://sodipodi.sourceforge.net/DTD/sodipodi-0.dtd"
   xmlns="http://www.w3.org/2000/svg"
   xmlns:svg="http://www.w3.org/2000/svg">
  <defs
     id="defs50" />
  <sodipodi:namedview
     id="namedview48"
     pagecolor="#ffffff"
     bordercolor="#666666"
     borderopacity="1.0"
     inkscape:pageshadow="2"
     inkscape:pageopacity="0.0"
     inkscape:pagecheckerboard="0"
     showgrid="false"
     inkscape:zoom="1.2536697"
     inkscape:cx="426.34833"
     inkscape:cy="78.968165"
     inkscape:window-width="1920"
     inkscape:window-height="1017"
     inkscape:window-x="-8"
     inkscape:window-y="-8"
     inkscape:window-maximized="1"
     inkscape:current-layer="svg46" />
  <g
     transform="translate(-41.550373 -18.358465)"
     id="g44">
    <text
       fill="#ef00eb"
       font-family="TrasksHand"
       font-size="1.4"
       stroke="#0105ff"
       stroke-width="1.75"
       transform="matrix(.98222257 -.18772009 .18772009 .98222257 0 0)"
       x="64.399719"
       y="103.01772"
       id="text4"><tspan
         fill="#fafafa"
         fill-opacity=".4"
         font-size="1.4"
         stroke="none"
         stroke-width="1.75"
         x="64.399719"
         y="103.01772"
         id="tspan2">John Loreth 2022</tspan></text>
    <g
       stroke-linecap="round"
       id="g18">
      <path
         d="m42.274869 37.272079c12.027703-11.201753 31.215604-17.46773 42.274374-18.906398.547653-.07125.992909.329095.992909.88138l-.000001 62.353392c0 .552285-.44056 1.079748-.983358 1.181671-18.643517 3.500738-30.502856 8.969619-42.15554 16.060395-.471785.287086-.85288.07433-.85288-.477954v-59.403235c0-.552285.32035-1.312857.724496-1.689251z"
         fill="#3362ba"
         id="path6" />
      <path
         d="m92.642578 33.753906v52.486328c0 .552285-.43952 1.080273-.982422 1.181641-21.489385 4.012376-35.532924 10.200326-48.980468 18.158205.0368.49233.476491.85474.966796.79687l68.058596-10.009762c.56759-.08327.98779-.570873.98633-1.144532l-.2168-62.919922c-.001-.531599-.4689-.941373-.99609-.873046l-17.740239 2.28125c-.364313.03222-.729986.04656-1.095703.04297z"
         fill="#ef8b0f"
         fill-opacity=".941176"
         transform="translate(0 -.001)"
         id="path8" />
      <path
         d="m99.573358 116.18548-57.705248-6.08185a.10395782.10395782 90.081448 0 1 .000294-.2068l57.70466-5.91594a.90272043.90272043 42.073212 0 1 .994786.89801v10.41139a.90014377.90014377 138.00824 0 1 -.994492.89519z"
         fill="#4a994f"
         transform="translate(0 -.001)"
         id="path10" />
      <path
         d="m76.886543 128.70791-34.782064-14.18918a.12595048.12595048 105.01413 0 1 .06475-.24139l34.588502 4.75987a1.1545506 1.1545506 48.732578 0 1 .997128 1.13631l.05114 7.91213a.66738234.66738234 145.91121 0 1 -.919454.62226z"
         fill="#3362ba"
         id="path12" />
      <path
         d="m139.7957 108.44533h489.08371l4.13926 5.10435h-489.08234z"
         fill="#3362ba"
         id="path14" />
      <path
         d="m145.21509 115.9095h489.08371l4.13926 5.10435h-489.08234z"
         fill="#d4d0ce"
         id="path16" />
    </g>
    <g
       fill="#666"
       stroke-width="2.5"
       transform="scale(1.0883046 .9188604)"
       id="g42">
      <path
         d="m184.26207 93.463484v-17.659688h8.82984v17.659688zm0-26.489532v-8.840625h8.82984v8.840625zm-26.48953 35.319378v-52.989846h26.48953v8.829843h-17.65969v8.840625h17.65969v8.829844h-17.65969v17.659688h17.65969v8.829846z"
         id="path20"
         style="fill:#f9f9f9" />
      <path
         d="m201.32054 102.29333v-26.489534h8.82984v26.489534zm0-35.319378v-8.840625h8.82984v8.840625z"
         id="path22"
         style="fill:#f9f9f9" />
      <path
         d="m244.85776 93.463484v-8.829844h-17.65969v8.829844zm-26.48953 8.829846v-44.160003h8.82984v17.670469h26.48953v26.489534z"
         id="path24"
         style="fill:#f9f9f9" />
      <path
         d="m261.91622 102.29333v-44.160003h8.82985v44.160003z"
         id="path26"
         style="fill:#f9f9f9" />
      <path
         d="m278.96391 102.29333v-26.489534h8.82985v26.489534zm0-35.319378v-8.840625h8.82985v8.840625z"
         id="path28"
         style="fill:#f9f9f9" />
      <path
         d="m304.84144 102.29333v-8.829846h17.65969v8.829846zm-8.82984-8.829846v-26.489532h8.82984v26.489532zm26.48953 0v-26.489532h8.82984v26.489532zm-17.65969-26.489532v-8.840625h17.65969v8.840625z"
         id="path30"
         style="fill:#f9f9f9" />
      <path
         d="m339.5596 102.29333v-44.160003h8.82984v17.670469h26.48954v8.829844h-26.48954v8.829844h26.48954v8.829846z"
         id="path32"
         style="fill:#f9f9f9" />
      <path
         d="m383.1076 102.29333v-44.160003h8.82985v17.670469h26.48953v26.489534h-8.82984v-17.65969h-17.65969v17.65969z"
         id="path34"
         style="fill:#f9f9f9" />
      <path
         d="m453.14513 75.803796v-8.829844h-17.65969v8.829844zm-26.48954 26.489534v-44.160003h35.31938v26.500313h-26.48953v8.829844h26.48953v8.829846z"
         id="path36"
         style="fill:#f9f9f9" />
      <path
         d="m496.69313 75.803796v-8.829844h-17.65969v8.829844zm-26.48953 26.489534v-44.160003h35.31937v26.500313h-26.48953v8.829844h26.48953v8.829846z"
         id="path38"
         style="fill:#f9f9f9" />
      <path
         d="m540.24113 102.29333v-8.829846h8.82985v8.829846zm0-17.65969v-8.829844h8.82985v8.829844zm-26.48953 17.65969v-44.160003h8.82985v26.500313h17.65968v8.829844h-17.65968v8.829846z"
         id="path40"
         style="fill:#f9f9f9" />
    </g>
  </g>
</svg>
