<svg id="Layer_1" data-name="Layer 1" xmlns="http://www.w3.org/2000/svg" viewBox="0 0 3840.00024 1107.04791"><rect y="998.09998" width="3840" height="26"/><path d="M545.2,527.5c-9.2,0-17.2-1.2-24.6,4.9-6.2,5.5-9.2,11.7-9.2,19.7v369c0,7.4,2.5,12.9,8,17.9,7.4,6.8,15.4,6.8,25.3,6.8h37v30.2h-217v-30.8h45.6c8.6,0,14.8-3.1,20.3-9.9,5.5-5.5,6.2-11.7,6.2-19.7V533.6L288.9,975.9h-24L108.4,531.8V882.9c0,16.6,1.8,28.9,12.3,41.9,12.3,14.2,26.5,19.1,45.6,19.7l17.9,1.2v30.2H0v-30.8l17.2-1.2c19.1-1.2,32-6.2,44.4-20.3,10.5-12.9,12.9-25.3,12.9-41.9V553.9c0-8,0-13.6-4.9-19.7-5.5-6.8-12.9-8-21.6-8l-45.6.6V495.4H168.1L296.8,853.9,416.3,496.6H584v30.8H545.2Z" transform="translate(0 0)" style="fill:red"/><path d="M845.1,982c-27.7-3.1-47.4-21.6-51.7-48.1l-18.5,15.4c-27.7,22.2-57.3,30.2-85,33.9-49.3,6.2-104.1-19.7-106.6-73.3-2.5-71.5,90.5-103.5,168.8-115.8l37-6.2v-48.7c0-12.9-4.3-21.6-13.6-31.4-10.5-11.7-28.3-15.4-38.2-16l-19.7-.6c-24-1.2-56.7,5.5-56.1,21.6,0,11.7,12.3,18.5,12.9,39.4.6,19.1-16,29.6-33.3,30.2-18.5,1.2-33.9-10.5-37-28.3-10.5-59.7,61-90.6,118.9-92.4,57.9-2.5,125,22.2,125,79.5v167.5c0,12.9,1.2,24,11.7,30.8,18.5,12.9,41.3-8,45.6-1.2C919.1,959.9,873.5,983.9,845.1,982ZM789.7,812.7l-64.1,12.9c-34.5,7.4-74.5,30.2-77.6,69-2.5,34.5,20.3,63.4,68.4,55.4,38.8-6.2,73.3-38.2,73.3-80.1V812.7Z" transform="translate(0 0)" style="fill:red"/><path d="M1058.9,982c-26.5,4.3-72.7,0-96.7-16.6L945,953.1l-24,27.7H900.7v-125h22.8l7.4,21c16.6,49.3,54.2,83.8,106,80.7,35.1-1.8,64.7-20.9,62.80005-52.4-2.5-22.2-15.4-38.8-37-43.7l-81.9-20.9c-54.2-14.2-75.2-34.5-75.8-86.2-1.2-60.4,45-94.2,92.4-93.6,24,.6,40.7,2.5,62.2,14.8l19.1,11.7,20.3-23.4h19.1l1.19995,110.3-24-1.2-8-20.3c-16.6-41.9-50.5-67.1-95.5-66.5-22.8.6-53,25.3-51.1,53.6,1.8,28.3,21.6,34.5,44.4,39.4l86.2,19.1c42.5,9.2,66.5,47.4,66.5,91.2C1137.1,934,1105.1,972.8,1058.9,982Z" transform="translate(0 0)" style="fill:red"/><path d="M1252.9,986.4c-37-4.3-72.1-28.3-72.1-65.9V701.8h-52.4v-29c29.6-5.5,54.80005-16,65.9-43.1s18.5-59.1,18.5-74.5V541.6H1240.5V673.4h96.1v27.7h-97.9V905c0,22.8,12.9,41.9,40,42.5,32.6,1.2,51.69995-32.6,51.69995-73.9v-16h24.6l.6,24C1356.4,945.1,1308.30005,993.1,1252.9,986.4Z" transform="translate(0 0)" style="fill:red"/><path d="M1597.2,917.4c-28.30005,48.7-73.9,70.2-130.6,66.5-80.1-4.3-137.4-66.5-135.5-155.9,1.19995-88.7,62.8-173.7,157.1-165.7C1550.3999,667.2,1604,723.3,1606.5,788l1.80005,38.2H1397v24.6c0,51.1,35.1,96.1,86.9,99.2,40,2.5,72.7-14.2,92.4-49.3l10.5-19.1,23.4,13.5ZM1539.9,764.6c0-38.8-22.19995-70.2-57.3-77-50.5-9.9-80.1,54.2-83.2,94.2l-1.8,18.5h122c6.8,0,12.3-.6,16.6-6.2,3.69995-4.3,3.69995-9.9,3.69995-16V764.6Z" transform="translate(0 0)" style="fill:red"/><path d="M1828.80005,758.4c-19.1,0-37-12.9-37-32,0-14.2,1.19995-25.3,12.9-34.5l-4.9,1.2c-47.4,6.2-59.80005,48.7-77.6,93-13.6,33.3-13.6,89.9-13.6,93.6V929c0,7.4-.6,13.6,4.9,19.1,6.2,5.5,13.6,4.3,22.2,4.3h28.3v23.4h-169.4v-24h34.5c7.4,0,12.9-2.5,17.19995-8.6,3.1-5.5,3.1-9.9,3.1-16.6V741.8c0-11.7,1.2-22.2-8-29.6-6.19995-5.5-14.19995-5.5-24-5.5h-29v-29l120.1-6.2v86.2L1720.2,730c20.9-49.3,67.1-76.4,105.30005-65.9,22.80005,5.5,39.4,21.6,40,45.6C1867,733.2,1852.9,758.4,1828.80005,758.4Z" transform="translate(0 0)" style="fill:red"/><path d="M2167,980.8c-42.5,8.6-104.7.6-144.80005-27.1l-31.4-20.3-29,45H1934.1v-186h29l6.8,31.4c18.5,80.1,84.99988,136.8,167.6,131.2,55.3999-3.7,104.1001-43.1,97.8999-96.1-3.69995-38.8-29-65.3-67.1001-76.4l-123.8-33.9c-73.3-20.3-103.5-67.1-101.6-131.8,3.1-73.3,66.5-126.9,143.50012-124.4,38.2,1.2,64.7,5.5,96.7,27.7l24,17.9,25.3-40.7H2257l6.8,170h-28.3l-8-25.9c-20.8999-71.5-73.8999-123.8-147.8-120.1-36.30005,1.2-78.80005,22.2-85.6,62.8-6.80005,40.6,19.69995,77.6,59.1,88.1l141.1001,39.4c63.3999,17.9,93,76.4,92.3999,141.7C2284.7,926,2233.5,967.3,2167,980.8Z" transform="translate(0 0)" style="fill:red"/><path d="M2605.6001,693.8c-5.5,0-20.30005,8-24.6001,11.7-11.1001,9.2-12.8999,16.6-17.8999,28.3l-109,251.3C2416.5,1072.6,2366,1121.2,2303.80005,1103.4c-18.5-5.5-45-21.6-37-59.69995,3.7-17.2,19.7-27.1,37.6001-26.5,16.60009.6,29.60009,8,33.30005,25.9,3.10009,14.8-8,23.4-4.89991,30.19995,4.89991,8,20.3,4.9,30.8-3.1,30.8-23.4,49.8999-65.3,57.3-80.1l10.5-20.9-109.6001-255c-2.5-6.8-4.8999-11.1-10.5-15.4-5.5-3.7-9.2-5.5-15.3999-5.5h-18.5v-22.8h152.1001v24h-19.1001c-8.6001,0-16.6001-1.2-21.6001,5.5-3.7,6.2-3.10009,12.3-.60009,18.5l74.5,177.4L2529.80029,732c.6001-1.8,6.19995-22.8-2.5-31.4-6.2-6.8-13.60009-7.4-21.60009-7.4h-19.1001V670.4h128.69995v23.4Z" transform="translate(0 0)" style="fill:red"/><path d="M2753.3999,982c-26.5,4.3-72.69995,0-96.69995-16.6l-17.2-12.3-24,27.7h-20.3v-125H2618l7.3999,21c16.6001,49.3,54.2,83.8,105.8999,80.7,35.1001-1.8,64.7-20.9,62.80005-52.4-2.5-22.2-15.3999-38.8-37-43.7L2675.2,840.5c-54.2-14.2-75.1001-34.5-75.80005-86.2-1.19995-60.4,45-94.2,92.3999-93.6,24,.6,40.7,2.5,62.2,14.8l19.10009,11.7,20.3-23.4H2812.5l1.2,110.3-24-1.2-8-20.3c-16.6001-41.9-50.5-67.1-95.5-66.5-22.80005.6-53,25.3-51.1001,53.6s21.6001,34.5,44.39991,39.4l86.19995,19.1c42.5,9.2,66.5,47.4,66.5,91.2C2831.6001,934,2799.6001,972.8,2753.3999,982Z" transform="translate(0 0)" style="fill:red"/><path d="M2947.3999,986.4c-37-4.3-72.1001-28.3-72.1001-65.9V701.8H2823v-29c29.6001-5.5,54.8-16,65.8999-43.1,11.1001-27.1,18.5-59.1,18.5-74.5V541.6h27.7V673.4H3031.2v27.7h-97.8999V905c0,22.8,12.8999,41.9,40,42.5,32.6001,1.2,51.7-32.6,51.7-73.9v-16h24.6001l.6001,24C3050.8999,945.1,3002.8999,993.1,2947.3999,986.4Z" transform="translate(0 0)" style="fill:red"/><path d="M3291.80005,917.4c-28.3,48.7-73.8999,70.2-130.6001,66.5-80.1001-4.3-137.3999-66.5-135.5-155.9,1.19995-88.7,62.8-173.7,157.1001-165.7,62.2,4.9,115.80005,61,118.30005,125.7l1.8,38.2h-211.3v24.6c0,51.1,35.1001,96.1,86.8999,99.2,40,2.5,72.7-14.2,92.3999-49.3l10.5-19.1,23.3999,13.5Zm-57.3-152.8c0-38.8-22.2-70.2-57.3-77-50.5-9.9-80.1001,54.2-83.2,94.2l-1.8,18.5h122c6.8,0,12.3-.6,16.6001-6.2,3.7-4.3,3.7-9.9,3.7-16Z" transform="translate(0 0)" style="fill:red"/><path d="M3677.3999,975.9v-24H3705.7c6.8,0,13.6001,1.2,17.8999-4.9,4.3-4.9,3.69995-9.9,3.69995-16.6V775.7c0-29.6-6.19995-59.8-33.8999-70.2-52.3999-19.7-96.1001,40-96.1001,91.2v130c0,8.6-.60009,16,6.2,22.2,4.8999,4.3,10.5,4.3,17.19995,4.3h26.5V976H3487V952h29c7.3999,0,12.8999-.6,17.2-5.5,5.5-4.9,4.3-11.7,4.3-19.1V765.8c0-29-14.8-54.2-43.1001-62.8C3450,690.1,3407.5,746.1,3407.5,794.2V929.1c0,6.8,0,12.3,4.3,17.2,4.8999,7.4,12.8999,6.2,21.6001,6.2h24v23.4h-162.6001v-24h33.30005c7.3999,0,12.8999-2.5,16.6001-8.6,3.69995-5.5,2.5-9.9,2.5-16.6V741.8c0-11.7,1.8-22.2-6.80005-29.6-7.39991-6.2-14.8-5.5-24-5.5h-24.6001V679.6l114-7.4-.6001,45.6,14.8-16c26.5-31.4,59.8-43.1,98.6001-38.2,35.69995,4.9,60.3999,30.2,70.8,66.5l20.8999-26.5c19.7-25.3,50.5-39.4,88.1001-38.8,53,.6,89.30005,51.7,89.30005,105.3V933.3c0,5.5,0,9.9,3.69995,14.2,4.8999,6.2,12.30005,5.5,20.30005,5.5h28.3v22.8H3677.3999Z" transform="translate(0 0)" style="fill:red"/><path d="M1391.1,295.5H1205.5v57.9h185.6c35.6,0,65.3-29.7,65.3-65.3s-29.69995-65.3-65.3-65.3h-47.5c-43.1,0-78.7-35.6-78.7-78.7s35.6-78.7,78.7-78.7h184.1V7.4H1342.1a136.6,136.6,0,0,0,0,273.2h47.5a6.98082,6.98082,0,0,1,7.4,7.4C1397,292.4,1394.1,295.5,1391.1,295.5Z" transform="translate(0 0)" style="fill:#fff"/><path d="M1342.1,138.1h185.6V78.7H1342.1c-35.6,0-65.30005,29.7-65.30005,65.3s29.7,65.3,65.30005,65.3h47.5c43.1,0,78.69995,35.6,78.69995,78.7s-35.6,78.7-78.69995,78.7H1205.5v57.9h185.6a136.6,136.6,0,0,0,0-273.2h-47.5a6.98083,6.98083,0,0,1-7.4-7.4A6.34464,6.34464,0,0,1,1342.1,138.1Z" transform="translate(0 0)" style="fill:#fff"/><path d="M2008.80005,78.7c-25.19995,0-44.5,19.3-44.5,44.5V308.8c0,25.2,19.30005,44.5,44.5,44.5H2129V222.7h-92v57.9h34.1001V294H2037a13.33721,13.33721,0,0,1-13.4-13.4V150a13.33723,13.33723,0,0,1,13.4-13.4h164.8V78.7Z" transform="translate(0 0)" style="fill:#fff"/><path d="M2374,353.4h135.1001L2417,80.2c-3-7.4-8.8999-13.4-17.8-13.4-7.3999,0-14.80005,5.9-17.80005,11.9l-118.8,345.9h68.3L2372.5,301.4v52h1.5Zm23.8-124.8L2417.1001,288H2377Z" transform="translate(0 0)" style="fill:#fff"/><path d="M2608.6001,424.6,2488.30005,68.3c-11.8-38.6-47.5-68.3-90.5-68.3S2319.1001,28.2,2308.7,66.8l-108.3999,317.7V151.4H2037v57.9h106.8999V366.7h-133.6a57.93173,57.93173,0,0,1-57.9-57.9V123.2a57.93164,57.93164,0,0,1,57.9-57.9H2201.7998V7.4h-193c-63.8,0-115.8,52-115.8,115.8V308.8c0,63.8,52,115.8,115.8,115.8h239L2368.09985,75.7a32.97595,32.97595,0,0,1,62.39991,0l98,291H2374v57.9" transform="translate(0 0)" style="fill:#fff"/><path d="M1671.7,366.7a57.93172,57.93172,0,0,1-57.9-57.9V123.2a57.93164,57.93164,0,0,1,57.9-57.9h199V7.4h-199c-63.80005,0-115.80005,52-115.80005,115.8V308.8c0,63.8,52,115.8,115.80005,115.8h199V366.7h-199Z" transform="translate(0 0)" style="fill:#fff"/><path d="M1685.1,282.1h144V224.2H1627.2v86.1c0,25.2,19.30005,44.5,44.5,44.5h199V296.9H1698.5C1691,295.5,1685.1,289.5,1685.1,282.1Z" transform="translate(0 0)" style="fill:#fff"/><path d="M1829.1,151.4h-144a13.33723,13.33723,0,0,1,13.4-13.4H1869.2V78.7H1671.7c-25.19995,0-44.5,19.3-44.5,44.5v86.1h201.9Z" transform="translate(0 0)" style="fill:#fff"/></svg>