<svg id="Layer_1" data-name="Layer 1" xmlns="http://www.w3.org/2000/svg" viewBox="0 0 3839.00036 2167.95204"><path d="M30.44,72.47A94.91458,94.91458,0,0,0,5.89,135.56L0,843.59c0,52.36,87.89,99.58,87.89,99.58,22.37,14.7,67.09-6.57,68.14-33.31l12.29-643.85a12.57606,12.57606,0,0,1,11.75-12.31l.38-.02a12.54954,12.54954,0,0,1,13.41,12.59c-.21,33.01.41,117.68,11.61,144.18,21.5,50.85,93.61,291.3,105.15,374.99,5.61,40.67-20.3,107.95,40.7,154.93,11.38,8.76,40.22,18.81,57.22,5.22,26.43-21.12,70.28-60.39,94.67-79.71a74.49827,74.49827,0,0,0,27.63-48.93s-.34-24.27,14.73-58.9C607,616.86,742.59,270.55,767.86,213.19c18.99-43.11,44.18-59.61,44.18-59.61a13.52679,13.52679,0,0,1,22.54,9.31l35.06,783.4c.42,73.73,137.58,69.11,134.15-5.11l3.42-900.95A40.429,40.429,0,0,0,966.79,0H765.75a65.9267,65.9267,0,0,0-53.17,26.94S606.4,141.13,589.04,184.43c-28.79,71.78-9.66,83.33-25.24,123.42C544.97,356.3,511.82,455.82,489.47,503c-19.17,40.47-28.34,111.26-35.06,137.32-2.93,11.35-18.95,11.45-22.05.15-14.06-51.31-27.95-162.6-96.46-320.7-10.9-25.15-36.28-203.9-47.1-282.66a41.97734,41.97734,0,0,0-42.73-36.29c-43.31,1.15-110.72,3.64-128.72,8.3C85.47,17.36,52.18,48.55,30.44,72.47Z" transform="translate(0 0)" style="fill:#3cc7c7"/><path d="M1694.92,910.91c-158.44995-5.49-347.66-60.8-476.43-126.82-12.77-6.55-18.92-21.56-20.07-35.87l-7.58-43.5A44.34156,44.34156,0,0,1,1213.28,662.48c30.56006-17.25,101.98-29.26,154.6-47.49,74.64-25.86,157.66-87.25,154.61-185.84-2.9-93.95-65.28-152.16-134-151.46-45.42.46-143.80005-2.99-184.46,44.88-43.48,51.19-164.09,60.6-164.09,153.37l14.73,312.26c2.63,53.35,26.84,95.59,75.73,117.11,97.36,42.84,276.18006,113.62,326.80994,112.2,75.03-2.1,156.79-1.18,198.45,9.12C1780.47,1057.47,1789.83,914.2,1694.92,910.91ZM1184.39,533.64c-10.89-17.58,21.59-69.4,53.29-96.77,20.31006-17.53,63.11-21.04,99.58-25.95s28.75,29.45,28.75,29.45-13.32,37.66-35.06006,56.1c-21.74,18.44-37.14,13.3-71.5,25.95C1226.35,534.61,1193.51,548.36,1184.39,533.64Z" transform="translate(0 0)" style="fill:#3cc7c7"/><path d="M2067.25,381.47c20.16992-35.36-5.61011-82.04-112.9-50.49-59.28,17.44-66,14.64-123.9,42.12-53.1,25.2-174.98,130.3-189.55005,156.33-56.1,100.28-40.74,105.19-40.74,222.23,0,118.35,231.5,181.63,453.77,155.74,0,0,44.17993-9.12,27.3501,30.85-16.83008,39.97-25.11011,58.04-46.28,86.95-21.74,29.68994-124.4,92.04-227.11,64.57-25.97-6.94995-52.43994-11.65-79.33-11.97-61.48-.75-156.35,11.55005-156.35,51.18994,0,58.9,77.84,60.31006,77.84,60.31006s163.39,14.02,206.87,14.02c115.67,0,394.1-38.57,394.1-183.02s13.29-607.27,32.92993-679.5c10.91992-40.17,29.99-72.52,7.55-92.85-22.43994-20.34-99.90991-12.55-120.45,45.17-5.86011,16.46-37.16992,85.55-37.16992,85.55-16.56006,38.56-29.51,76.57-28.05,118.51,2.58008,74.4,5.96,188.18-10.52,217.38-19.73,34.95-153.51,81.68-257.35,48.39-40.96-13.13-73.63-37.31-75.03-101.68C1759.66,511.91,2026.64,452.66,2067.25,381.47Z" transform="translate(0 0)" style="fill:#3cc7c7"/><path d="M2317.65991,538.78c1.87988-50.5-3.57007-95.83,53.08008-152.9,148.57007-149.66,176.96-142.55,249.82007-142.55,175.78,0,207.93994,87.12,159.87988,133.7-60.77,58.9-63.78-10.6-169.96-4.21-48.55005,2.92-78.16992,38.38-136.48,138.66-14.52,24.96-9.84009,59.08-9.84009,78.72v90.27c0,73.82,80.17993,133.66,111.73,133.66,44.11011,0,87.26-100.38,123.41992-151,14.02-19.63,14.05-59.35,33.18995-69.75,19.62988-10.66,10.28-35.91,20.10009-59.28,11.76-28,48.62012-92.23,48.62012-110.8,0,0,6.54-121.08,26.1001-163.24,14.87012-32.05,41.06006-76.58,70-76.58,47.67993,0,95.62012-5.48,81.34009,40.2-32.72,104.72-26.1001,98.85-26.1001,160.37,0,85.99-1.59009,312.71.59009,378.18,1.1499,34.38,6.55005,70.96,21.32006,102.03,16.36011,34.42,35.51,86.37,14.47,107.41-32.72,32.72-49.3501,60.77-113.86011-4.67-55.36011-56.16-78.83008-108.95-74.80005-143.05.92993-7.82-8.23-12.97-14.27-7.93-5.09009,4.24-43.23,133.21-194.42993,133.21-162.02,0-274.17993-171.1-274.17993-304.8C2317.38989,592.64,2316.45,571.12,2317.65991,538.78Z" transform="translate(0 0)" style="fill:#3cc7c7"/><path d="M1060.27,1110.53c71.53,16.36,260.21,48.80005,337.2,64.76a306.53261,306.53261,0,0,1,107.56995,44.88c45.42,30.18995,104.71,74.18006,113.21,103.07,18.32995,62.31006,48.87,95.37,48.87,260.86s22.18006,241.23-39.52,277.69006c-52.93005,31.28-149.2,105.89-261.66,120a506.074,506.074,0,0,0-142.37,39.35l-320.12,142.00989c-39.7,17.61011-83.14-15.76-76.35-58.65991l70.48-492.33c3.27-20.69995,12.07-46.67,19.17-66.38,7.29-20.25,13.53-51.83-3.81-78.41-28.05-43.01-36.4-57.17-30.79-95.5,5.61-38.33-4.07-101.49,91.89-92.55994,40.2,3.74,113.12994,106.59,113.12994,178.58,0,61.56995-53.34,370.03-68.79,458.04a14.27359,14.27359,0,0,0,18.54,16.01l211.77-75.75c20.77-6.82995,59.52-24.73,76.64-38.32995,28.07-22.31006,72.67005-52.36,116.41-62.18006,44.64-10.02,46.24-135.72,45.81006-200.09a115.59332,115.59332,0,0,0-18.75-62.47c-35.93994-55.08-83.93006-131.65-142.53-166.13-46.08-27.11-296.13-84.15-393.36-77.6-64.24,4.31994-91.55-75.16-98.44-131.37-3.24-26.42,19.95-48.77,46.16-44.15C941.31,1084.54,989.52,1094.34,1060.27,1110.53Z" transform="translate(0 0)" style="fill:#3cc7c7"/><path d="M2361.57007,1762.68005c-22.43994-62.64-3.74-199.15-3.74-199.15,9.3501-58.9-37.3999-84.15-92.56006-84.15s-23.16992,160.35-38.6001,228.14c-49.56006,217.78-115.93994,194.48-214.78,194.48-96.56994,0-153.41-138.35-160.61-211.31006-7.48-75.73,15.68994-139.31006-4.88-236.55005-13.34-63.06006-69.14-63.93-104.24-59.84a33.855,33.855,0,0,0-29.47,37.62c4.98,43.15,10.65,126.06006,13.04,154.18994,9.77,115.02-9.09,311.67993,110.59,381.80005,0,0,106.38,69.18994,199.88,69.18994,106.32007,0,164.05005-40.72,209.73-60.5a24.01185,24.01185,0,0,1,32.62988,15.62c9.3,32.41,30.82007,84.15,71.06006,84.15,24.78,0,79.27-17.68994,79.27-54.69995C2428.87988,1970.25,2376.75,1805.08,2361.57007,1762.68005Z" transform="translate(0 0)" style="fill:#3cc7c7"/><path d="M2999.17993,1392.7c-53.12012-56.62-125.48-100.31995-265.49-108.73-153.06006-9.2-317.89014,169.23-317.89014,374.92993s159.87989,386.15,357.15992,386.15,323.5-107.52,316.96-143.99c-2.26-12.59-12.27-27.97-44.87989-28.05005-61.83007-.15-188.16992,46.19995-270.21,49.79-112.2,4.91-220.65991-143.29-220.65991-239.59,0-99.11,72.6499-276.42,219.95-275.12,79.24.69995,114.57007,32.02,155.90992,61.01C2962.03,1491.53,3058.27,1455.68005,2999.17993,1392.7Z" transform="translate(0 0)" style="fill:#3cc7c7"/><path d="M3802.84009,1941.73c-15.56006-15.2-99.87012-69.68994-112.92993-78.54-10.18995-6.91-9.58008-27.81994,19.16992-34.13s63.81006-60.54,56.1001-90.69007-76.6399-147.96-213.37989-147.96c-100.28,0-99.41992,38.56006-180.91992,48.39-25.66992,3.1-61.09009,19.34-93.29,32.26a19.39993,19.39993,0,0,1-25.97-13.25s-11.32007-75.76-19.37988-99.89c-21.54-64.46-29.11011-137.96-3.07007-224.71,9.3999-31.31006-36.95-74.21-95.57007-29.14-74.8,57.5-28.98,205.69995-28.98,233.75,0,65.92,15.95,144.22,15.88989,210.84-.05,60.28,14.90992,155.94995,15.42994,223.92993.88989,117.8,126.95,96.77,126.95,27.35v-125.99a21.07385,21.07385,0,0,1,28.7-19.65s302.05,114.08,329.3999,143.53c27.3501,29.45,146.29,78.07007,193.28,47.22C3861.25,2014.18994,3832.03,1970.25,3802.84009,1941.73Zm-202.92017-159.91992c-53.99,34.36-121.8999,5.37-167.12988.04-91.05-10.74-67.44995-41.22-39.3999-41.22,41.27,0,69.52-22.36,164.22-22.36C3593.62012,1718.27,3652.87012,1748.11,3599.91992,1781.81006Z" transform="translate(0 0)" style="fill:#3cc7c7"/></svg>