<svg id="Layer_1" data-name="Layer 1" xmlns="http://www.w3.org/2000/svg" viewBox="0 0 3839 1300"><rect x="15" y="15" width="3173.8999" height="1269.90002"/><path d="M3173.8999,30V1269.9H30V30H3173.8999m30-30H0V1299.9H3203.8999V0Z" transform="translate(0 0)" style="fill:#fff"/><polygon points="2271.8 428.4 2033.2 428.4 2033.2 193.4 2302.3 193.4 2271.8 428.4" style="fill:#fff"/><rect x="1318" y="871.5" width="476" height="234.90002" style="fill:#fff"/><rect x="1587.69995" y="532.5" width="206.19995" height="234.90002" style="fill:#fff"/><path d="M1587.7,767.4c-382.6,0-382.6-574,0-574V428.3c-69.4,0-69.4,104.1,0,104.1Z" transform="translate(0 0)" style="fill:#fff"/><path d="M1793.9,532.5c382.6,0,382.6,574,0,574V871.6c69.4,0,69.4-104.1,0-104.1Z" transform="translate(0 0)" style="fill:#fff"/><polygon points="2950.7 1106.4 2302.3 193.4 2097.8 311.2 2662.6 1106.4 2950.7 1106.4" style="fill:#fff"/><polygon points="1994.1 1106.4 2642.6 193.4 2930.7 193.4 2282.3 1106.4 1994.1 1106.4" style="fill:#fff"/><rect x="1587.69995" y="193.39999" width="486.8999" height="234.89999" style="fill:#fff"/><polygon points="496.6 1106.4 608.7 695.2 720.9 1106.4 932.9 1106.4 1044.9 695.2 1157.1 1106.4 1400.6 1106.4 1151.6 193.4 938.4 193.4 826.9 602.1 715.4 193.4 502.1 193.4 253 1106.4 496.6 1106.4" style="fill:#fff"/><path d="M3281,732.2c1.2-88.6,12.1001-160.2,53.3999-211,41.30005-51,111.6001-80.1,228-80.1,225.6001,0,276.5,105.6,276.5,234.1,0,116.5-42.5,190.5-106.8,254.7L3598.7,1059.70007c-19.3999,19.4-47.30005,44.9-55.80005,70.4H3839V1300H3273.7c0-118.9,30.3-228,128.6001-328.7l150.5-152.9c43.7-43.7,60.7-76.4,60.7-140.7,0-72.8-23.1001-95.9-58.2-95.9-31.5,0-63.1001,17-63.1001,114.1v36.4H3281Z" transform="translate(0 0)" style="fill:#fff"/></svg>