<svg id="Layer_1" data-name="Layer 1" xmlns="http://www.w3.org/2000/svg" viewBox="0 0 3839 1412.40002"><rect x="14.8" y="14.8" width="3809.50005" height="1382.90007"/><path d="M3809.5,29.5V1382.9H29.5V29.5h3780M3839,0H0V1412.4H3838.8999V0Z" transform="translate(0 0)" style="fill:#fff"/><polygon points="1573.2 350.8 1414.6 350.8 1414.6 194.6 1593.5 194.6 1573.2 350.8" style="fill:#fff"/><rect x="939.40002" y="645.20001" width="316.29993" height="156.20001" style="fill:#fff"/><rect x="1118.5" y="420" width="137.09998" height="156.20001" style="fill:#fff"/><path d="M1118.5,576c-254.2,0-254.2-381.4,0-381.4V350.8c-46.1,0-46.1,69.2,0,69.2Z" transform="translate(0 0)" style="fill:#fff"/><path d="M1255.6,420c254.19995,0,254.19995,381.4,0,381.4V645.2c46.1,0,46.1-69.2,0-69.2Z" transform="translate(0 0)" style="fill:#fff"/><polygon points="2024.4 801.4 1593.5 194.6 1457.5 272.9 1832.9 801.4 2024.4 801.4" style="fill:#fff"/><polygon points="1388.6 801.4 1819.6 194.6 2011.1 194.6 1580.2 801.4 1388.6 801.4" style="fill:#fff"/><rect x="1118.5" y="194.60001" width="323.59998" height="156.19998" style="fill:#fff"/><polygon points="393.4 801.4 468 528.2 542.5 801.4 683.3 801.4 757.9 528.2 832.4 801.4 994.2 801.4 828.7 194.6 687 194.6 612.9 466.3 538.9 194.6 397.1 194.6 231.5 801.4 393.4 801.4" style="fill:#fff"/><path d="M438.5,1144.1V892.5H312.7v271.80005a53.49646,53.49646,0,0,0,53.5,53.5h189v-53.5H458.8A20.16583,20.16583,0,0,1,438.5,1144.1Z" transform="translate(0 0)" style="fill:#fff"/><rect x="231.5" y="974.70001" width="323.59998" height="53.49994" style="fill:#fff"/><path d="M814.3,974.7v189.6H743.5V974.7H617.6v189.6a53.49646,53.49646,0,0,0,53.5,53.5h269v-243H814.3Z" transform="translate(0 0)" style="fill:#fff"/><path d="M1261.4,974.7H1102.20007a80.83153,80.83153,0,0,0-80.8,80.8v162.30005h125.8v-189.6h114.1l.1-53.50006Z" transform="translate(0 0)" style="fill:#fff"/><path d="M1437.1,974.7V892.4H1311.29993V1217.7H1553c44.6,0,80.80005-44.6,80.80005-111.19995V1085.7c0-66.5-36.19995-111.2-80.80005-111.2H1437.1Zm0,189.7v-136.1h70.8v136.1Z" transform="translate(0 0)" style="fill:#fff"/><path d="M1943.7,974.7h-160.9c-44.6,0-80.8,44.6-80.8,111.2v20.80005c0,66.5,36.19995,111.19995,80.8,111.19995h160.9c44.6,0,80.80005-44.6,80.80005-111.19995V1085.9C2024.4,1019.4,1988.30005,974.7,1943.7,974.7Zm-45.1,189.7h-70.80005v-136.1H1898.6Z" transform="translate(0 0)" style="fill:#fff"/><rect x="2362.1001" y="85.6" width="1391.30005" height="1241.4" style="fill:#fff"/><rect x="2657.6001" y="194.60001" width="224" height="1023.09995"/><rect x="2748.1001" y="194.7" width="429.30005" height="224.00002"/><rect x="3177.5" y="374.10001" width="224" height="215.69998"/><rect x="3233.8999" y="813.79999" width="224" height="404.00006"/><rect x="2764.8999" y="589.79999" width="412.6001" height="224"/><polygon points="3401.5 374 3177.4 194.6 3103.5 194.6 3146.9 395.7 3379.5 393.1 3401.5 374"/><polygon points="3177.4 589.7 3457.9 813.9 3093.4 813.9 3177.4 589.7"/></svg>