<svg id="Layer_1" data-name="Layer 1" xmlns="http://www.w3.org/2000/svg" viewBox="0 0 3839 1058"><path d="M0,0V491.1H170.5V142.8H450.9V491.1H621.4V147A146.98188,146.98188,0,0,0,474.4,0Z" transform="translate(0 0)" style="fill:#a21f2c"/><path d="M699.2,0V122.2H1184v52H846.2a146.98189,146.98189,0,0,0-147,147V344a146.98188,146.98188,0,0,0,147,147h508.2V147a146.98192,146.98192,0,0,0-147-147ZM869.6,368.9V296.3H1183.8999v72.6Z" transform="translate(0 0)" style="fill:#a21f2c"/><path d="M1449.4,0V491.1h170.5V142.8h193.30005V491.1h170.5V142.8H2177V491.1h170.5V147a146.98193,146.98193,0,0,0-147-147Z" transform="translate(0 0)" style="fill:#a21f2c"/><path d="M2432.80005,147V344a146.98192,146.98192,0,0,0,147,147h467.1001V348.3h-443.6001V142.8h443.6001V0h-467.1001A146.98193,146.98193,0,0,0,2432.80005,147Z" transform="translate(0 0)" style="fill:#a21f2c"/><path d="M3132.5,147V344a146.98192,146.98192,0,0,0,147,147H3692a146.98192,146.98192,0,0,0,147-147V147A146.98193,146.98193,0,0,0,3692,0H3279.6001A147.00334,147.00334,0,0,0,3132.5,147ZM3303,368.9V122.2h365.6001V368.9Z" transform="translate(0 0)" style="fill:#a21f2c"/><path d="M170.6,829.4c89.6,19.5,131,52.3,131,114.3,0,69.5-57.4,114.3-137.3,114.3C100.5,1058,48.3,1036.7,0,993.7l28.1-33.3c41.9,37.9,82.1,56.9,137.8,56.9,54,0,89.6-28.1,89.6-68.9,0-37.9-20.1-59.2-104.5-77-92.5-20.1-135-50-135-116.6,0-64.3,55.7-110.3,132.1-110.3,58.6,0,100.5,16.7,141.3,49.4l-26.4,35c-37.3-30.4-74.7-43.7-116-43.7-52.3,0-85.6,28.7-85.6,65.5C61.5,789.2,82.1,810.4,170.6,829.4Z" transform="translate(0 0)" style="fill:#fff"/><path d="M634.5,1052.1H588.6V893L421.5,650.2h55.1L612,851.2l136.7-200.9h52.8l-167,242.3Z" transform="translate(0 0)" style="fill:#fff"/><path d="M1084.2,829.4c89.6,19.5,131,52.3,131,114.3,0,69.5-57.4,114.3-137.30005,114.3-63.8,0-116-21.30005-164.3-64.3l28.1-33.3c41.9,37.9,82.1,56.9,137.8,56.9,54,0,89.6-28.1,89.6-68.9,0-37.9-20.1-59.2-104.5-77-92.5-20.1-135-50-135-116.6,0-64.3,55.7-110.3,132.1-110.3,58.6,0,100.5,16.7,141.30005,49.4l-26.4,35c-37.30005-30.4-74.7-43.7-116-43.7-52.3,0-85.6,28.7-85.6,65.5C975.1,789.2,995.8,810.4,1084.2,829.4Z" transform="translate(0 0)" style="fill:#fff"/><path d="M1537.30005,1052.1h-46v-360h-135v-41.9H1672.1001v41.9h-135l.19995,360Z" transform="translate(0 0)" style="fill:#fff"/><path d="M2133.8999,691.5h-245.1V828.8h219.29992v41.4H1888.7998v140.7h248v41.4h-293.4V650.3H2133.8999Z" transform="translate(0 0)" style="fill:#fff"/><path d="M2507.2,941.9h-2.30005l-146.5-214.7V1052.2H2314.2V650.3h46l146.5,219.3,146.5-219.3h45.8999v401.9H2653.7V726.6Z" transform="translate(0 0)" style="fill:#fff"/><path d="M3168.80005,754.1,3135.5,730c36.2-54,74.1001-85.6,144.7-85.6,72.8999,0,124.6001,48.2,124.6001,114.3,0,59.2-31,95.3-101.69995,156.8l-107.3999,95.3h213v41.4H3127.90015v-35l145.8999-128.7c61.5-55.1,83.8999-86.1,83.8999-126.4,0-47.1-37.30005-77-81-77C3230.80005,685.2,3200.8999,709.3,3168.80005,754.1Z" transform="translate(0 0)" style="fill:#fff"/><path d="M3598.8999,754.1l-33.3-24.1c36.19995-54,74.1001-85.6,144.69995-85.6,72.89991,0,124.6001,48.2,124.6001,114.3,0,59.2-31,95.3-101.69995,156.8l-107.3999,95.3h213.1001v41.4h-280.8v-35L3704,888.49994c61.5-55.1,83.8999-86.1,83.8999-126.4,0-47.1-37.3-77-81-77C3660.8999,685.2,3631.1001,709.3,3598.8999,754.1Z" transform="translate(0 0)" style="fill:#fff"/></svg>