<svg id="Layer_1" data-name="Layer 1" xmlns="http://www.w3.org/2000/svg" viewBox="0 0 3839.19995 1239.1001"><path d="M1272.30005,96.4c0,53.1,35.69995,96.1,79.5,96.1H1572.5c5.5,0,9.9,5.5,9.9,12,0,6.7-4.4,12-9.9,12H1272.30005V301h336.1c44,0,79.5-43.1,79.5-96.2s-35.5-96.1-79.5-96.1H1387.70007c-5.5,0-9.9-5.3-9.9-12,0-6.5,4.4-12.1,9.9-12.1h300.20008V0h-336.1C1307.9,0,1272.30005,43.3,1272.30005,96.4Z" transform="translate(0 0)" style="fill:#fff"/><polygon points="2021.9 0 2021.9 188.3 1821 0 1711.5 0 1711.5 300.7 1817.1 300.7 1817.1 112.3 2018.2 300.7 2127.5 300.7 2127.5 0 2021.9 0" style="fill:#fff"/><polygon points="2566.7 0 2428.4 0 2256.6 132.5 2256.6 0 2151.2 0 2151.2 300.7 2256.6 300.7 2256.6 168 2428.4 300.7 2566.7 300.7 2371.7 150.4 2566.7 0" style="fill:#fff"/><path d="M3687.3999,464.9c-18.8-32-57.1001-52.7-97.3999-52.7h-64.3V794a36.959,36.959,0,0,0,37,36.9h33.3999c41.3,0,81.1001-26,98.8-64.6C3720.7,710.1,3722.7,640.9,3722.7,621.1,3722.6001,611.1,3721.7,523.1,3687.3999,464.9ZM3682.2,760.4c-15.5,33.8-50.2,56.5-86.2,56.5h-33.3999a23.00328,23.00328,0,0,1-23-23V426H3590c35.5,0,69.1001,18,85.3999,45.9C3707.7,527,3708.7,611.5,3708.7,620.9,3708.7,640.1,3706.80005,706.7,3682.2,760.4Z" transform="translate(0 0)" style="fill:#c2ac6d"/><path d="M3606.1001,383.3h-255v34.3h9.1001c44.5,0,53.60009,16.7,53.60009,37.4V795.5c0,20.6-9.2,37.4-53.60009,37.4h-9.80005v34.3h255.8999c118.80005,0,232.8999-83,232.8999-241.9C3839,457.3,3711.7,383.3,3606.1001,383.3Zm0,469.9H3364.30005v-6.5c42.1001-1,63.5-18.3,63.5-51.2V454.9c0-32.8-21.1001-50-62.69995-51.2v-6.5h241.1001c53.8,0,107.3,19.9,146.8,54.6,47.2,41.4,72.1001,101.4,72.1001,173.5C3825.1001,781.9,3711.6001,853.2,3606.1001,853.2Z" transform="translate(0 0)" style="fill:#c2ac6d"/><path d="M3175.2,430.2c74,0,118.8999,67.6,129.19995,117h29.3999V372.3h-25s-8.8,33.5-28.10009,33.5c-25.1001,0-56.69995-26.6-136.8-26.6-114.8,0-217.1001,112.1-217.1001,247.9,0,172.4,115.2,247.4,231.5,247.4,64.5,0,134.30005-37,175.3999-97.6v-76.1c-30.10009,58.5-90,120.7-155.19995,120.7-44,0-88.80005-20.8-109.3999-77.4-10.6001-29.1-14.2-67.9-14.2-119.2C3055,552.6,3074.1001,430.2,3175.2,430.2ZM3041.1001,624.9c0,57.2,4.6001,95.4,15,123.9,20,55,64.69995,86.6,122.5,86.6,54.5,0,105.69995-39,141.3-86.4v23.5c-38.1001,53.6-101,88-161.5,88-100.39991,0-217.6001-61.1-217.6001-233.5,0-61.7,22-120.6,62-165.6,38.5-43.4,90-68.4,141.2-68.4,49,0,78.8999,10.4,100.8,18,13.80005,4.8,24.7,8.6,36,8.6,20.8999,0,32.6001-20.4,38-33.5h1.2v147h-4.6001c-16.8-58.6-69.19995-117-140.1001-117C3050.80005,416.3,3041.1001,576,3041.1001,624.9Z" transform="translate(0 0)" style="fill:#c2ac6d"/><path d="M472.3,384.2H329.1V403h18.7c25,0,45.3,23.3,45.3,48.3V683.6L149,384.2H0V403c33.3,0,59.5,30,59.5,63.4V791.9c0,33.3-35.1,44.3-59.5,44.3V855H161.8V836.2c-30.3-.2-46.3-4.3-56.7-14.1C94.8,812.4,92,799.4,92,781.5V476.4L408,861.7h17.3v-410c0-24.3,19-44.9,47-45.9Z" transform="translate(0 0)" style="fill:#c2ac6d"/><circle cx="1455.80005" cy="618.20001" r="54.59998" style="fill:#c2ac6d"/><path d="M1771.6,634.8v22.7h17.8c28.9,0,37,13.9,37,38.8V807.6c-6.6,8-29.1,18.2-61,18.2-6.5,0-43.3-.7-70.8-23.3-28.80005-23.6-48.2-71.5-48.2-185.3,0-148.2,52.1-210.9,127.7-210.9,24.6,0,107.9,16.6,143.4,123.7H1939.7V375.5h-21c-2.69995,20.8-19.1,32.3-50.1,19.4-46.80005-19.5-88.7-22.4-119.4-22.4-120.9,0-223.80005,111.9-223.80005,245.6,0,154,116.30005,244.2,241.1,244.2,59.19995,0,121.9-13.7,171.6-38.8V696.4c0-29.8,20.8-38.8,48.8-38.8V634.9L1771.6,634.8Z" transform="translate(0 0)" style="fill:#c2ac6d"/><path d="M870,709.7C858.3,774.2,802.7,824.6,740.3,823H686.5a30.59986,30.59986,0,0,1-30.6-30.6v-165h14.8c44,0,72.1,36.9,72.1,100.3H762V499.3H742.7c0,55.8-23.6,96.1-72.2,96.1H655.7V412.5h77.4c104.2,0,107.8,92.9,107.8,104.9h20.8V384.2H486.1V403h26.5c20.3,0,36.7,19.2,36.7,39.4V789c0,36.5-23.9,44.8-44.2,44.8h-19v21.4h381l21.4-145.4H870Z" transform="translate(0 0)" style="fill:#c2ac6d"/><path d="M1146.4,379.3c-135.5,0-239.8,99.8-239.8,243.2s104.4,243.2,239.8,243.2c135.5,0,239.9-99.8,239.9-243.2S1281.9,379.3,1146.4,379.3Zm0,455c-65.1,0-117.8-59.6-117.8-211.8s52.8-211.8,117.8-211.8c65.1,0,117.80005,59.6,117.80005,211.8C1264.30005,774.7,1211.5,834.3,1146.4,834.3Z" transform="translate(0 0)" style="fill:#c2ac6d"/><path d="M2373.30005,709.7C2361.6001,774.2,2306,824.6,2243.6001,823h-53.80005A30.6,30.6,0,0,1,2159.2,792.4v-165H2174c44,0,72.1001,36.9,72.1001,100.3h19.3V499.3H2246c0,55.8-23.6001,96.1-72.2,96.1H2159V412.5h77.3999c104.2,0,107.80005,92.9,107.80005,104.9H2365V384.2H1989.4V403h26.5c20.30005,0,36.70008,19.2,36.70008,39.4V789c0,36.5-23.9,44.8-44.2,44.8h-19v21.4h381l21.3999-145.4h-18.5Z" transform="translate(0 0)" style="fill:#c2ac6d"/><path d="M2649.6001,379.3c-135.5,0-239.80005,99.8-239.80005,243.2S2514.2,865.7,2649.6001,865.7c135.5,0,239.8999-99.8,239.8999-243.2S2785.1001,379.3,2649.6001,379.3Zm0,455c-65.1001,0-117.80005-59.6-117.80005-211.8s52.80005-211.8,117.80005-211.8c65.1001,0,117.8,59.6,117.8,211.8C2767.6001,774.7,2714.7,834.3,2649.6001,834.3Z" transform="translate(0 0)" style="fill:#c2ac6d"/><path d="M536.3,1123.2h16.6l44.2,113.19995H580.5l-12.4-34.1h-47.9l-12.7,34.1H492ZM525,1189.6h38.4l-18.9-52.80005h-.3Z" transform="translate(0 0)" style="fill:#fff"/><path d="M606,1123.2h38.8c34.9,0,54.4,17.4,54.4,53.9,0,37.9-16.6,59.3-54.4,59.3H606Zm15,100.5h25c10.3,0,38-2.9,38-44.5,0-26.9-10-43.30005-37.7-43.30005H621Z" transform="translate(0 0)" style="fill:#fff"/><path d="M755.6,1236.4H738.5l-39.9-113.19995h16.3l32.3,98.1h.3l32.7-98.1h15.7Z" transform="translate(0 0)" style="fill:#fff"/><path d="M827,1123.2h16.6l44.2,113.19995H871.2l-12.4-34.1H811l-12.7,34.1H782.8Zm-11.3,66.4h38.4l-18.9-52.80005h-.3Z" transform="translate(0 0)" style="fill:#fff"/><path d="M896.6,1123.2h16L972.2,1215h.3V1123.2h14.3V1236.3999h-16.5l-59.1-90.8h-.3v90.8H896.6Z" transform="translate(0 0)" style="fill:#fff"/><path d="M1087.80005,1157.30005c-3.19995-16-16-24.1-31.69995-24.1-26.9,0-38.4,22.19995-38.4,45.8,0,25.80005,11.4,47.4,38.5,47.4,19.8,0,31.19995-13.9,32.69995-32.69995H1104c-2.9,28.19995-20.4,45.3-49,45.3-35.2,0-52.3-26-52.3-59,0-32.8,18.7-59.6,53.6-59.6,23.6,0,43.1,12.69995,46.6,36.8h-15.1Z" transform="translate(0 0)" style="fill:#fff"/><path d="M1119.1,1123.2h78.1v12.69995h-63.1v36h58.8v12.7h-58.8v39.19995h63.6v12.7h-78.6Z" transform="translate(0 0)" style="fill:#fff"/><path d="M1211,1123.2h38.80005c34.9,0,54.4,17.4,54.4,53.9,0,37.9-16.6,59.3-54.4,59.3H1211Zm15.1,100.5h25c10.3,0,38-2.9,38-44.5,0-26.9-10-43.30005-37.7-43.30005H1226V1223.7Z" transform="translate(0 0)" style="fill:#fff"/><path d="M1410.7,1123.2h78.1v12.69995h-63.1v36H1484.5v12.7H1425.7v39.19995h63.6v12.7h-78.6Z" transform="translate(0 0)" style="fill:#fff"/><path d="M1502.7,1123.2h16l59.6,91.80005H1578.6V1123.2h14.3V1236.3999h-16.5l-59.1-90.8H1517v90.8H1502.7Z" transform="translate(0 0)" style="fill:#fff"/><path d="M1640,1135.9h-37.69995v-12.69995h90.5V1135.9H1655v100.5h-15Z" transform="translate(0 0)" style="fill:#fff"/><path d="M1702.2,1123.2h78.1v12.69995h-63.1v36H1776v12.7H1717.2v39.19995h63.6v12.7h-78.6Z" transform="translate(0 0)" style="fill:#fff"/><path d="M1794.2,1123.2H1847.5c21.19995,0,34.4,11.6,34.4,29.6,0,13.6-6,24.9-19.69995,28.7v.3c13.19995,2.5,15.8,12.2,17,23.30005,1,11.1.3,23.5,6.69995,31.19995H1869c-4.30005-4.6-1.9-16.8-4.1-27.9-1.6-11.1-4.3-20.4-18.9-20.4H1809.2v48.3h-15.1V1123.2ZM1840.6,1175.4c14.1,0,26.19995-3.6,26.19995-20.1,0-11.1-6-19.30005-20.1-19.30005h-37.4v39.5H1840.6Z" transform="translate(0 0)" style="fill:#fff"/><path d="M1925.6,1135.9h-37.7v-12.69995h90.5V1135.9h-37.69995v100.5h-15.1V1135.9Z" transform="translate(0 0)" style="fill:#fff"/><path d="M2005.1,1123.2h16.6l44.19995,113.19995h-16.6001l-12.4-34.1h-47.9l-12.7,34.1h-15.5Zm-11.2,66.4h38.4l-18.9-52.80005h-.3Z" transform="translate(0 0)" style="fill:#fff"/><path d="M2075.1001,1123.2h15.1001V1236.3999h-15.1001Z" transform="translate(0 0)" style="fill:#fff"/><path d="M2111.3999,1123.2h16L2187,1215h.3V1123.2h14.30005V1236.3999h-16.5l-59.1001-90.8h-.3v90.8H2111.3999Z" transform="translate(0 0)" style="fill:#fff"/><path d="M2222.8999,1123.2H2243.5l35.7,95.1,35.8-95.1h20.6001V1236.3999h-14.30005V1142.2h-.3l-35.3,94.19995H2272.8999l-35.3-94.19995h-.30005v94.19995h-14.3V1123.2Z" transform="translate(0 0)" style="fill:#fff"/><path d="M2357.2,1123.2h78.1001v12.69995H2372.2v36H2431v12.7h-58.8v39.19995h63.6001v12.7H2357.2Z" transform="translate(0 0)" style="fill:#fff"/><path d="M2449.1001,1123.2h16L2524.7002,1215h.3V1123.2h14.30005V1236.3999h-16.5l-59.10009-90.8h-.30005v90.8h-14.3Z" transform="translate(0 0)" style="fill:#fff"/><path d="M2586.3999,1135.9H2548.7v-12.69995h90.5V1135.9h-37.7v100.5h-15.1001Z" transform="translate(0 0)" style="fill:#fff"/><path d="M2805.30005,1156.30005c-1.69995-16.19995-12.5-23.1-28.1001-23.1-12.7,0-25.3999,4.6-25.3999,19.3,0,13.9,18.1001,16,36.30005,20.1,18.1001,4.1,36.1001,10.5,36.1001,32.69995,0,24.1-23.6001,33.80005-44.2,33.80005-25.3999,0-46.8-12.4-46.8-39.9h14.3c0,19,15.80005,27.3,33,27.3,13.6001,0,28.7-4.3,28.7-20.6,0-15.5-18.1001-18.19995-36.1001-22.19995-18.1001-4-36.30005-9.2-36.30005-30,0-23,20.3999-33.1,41.1001-33.1,23.10009,0,40.7,10.9,41.7,35.80005h-14.30005Z" transform="translate(0 0)" style="fill:#fff"/><path d="M2880.2,1190.1v46.3h-15.1001v-46.3l-43.7-66.9h17.8999l33.89991,53.9,33.10009-53.9h17.1001Z" transform="translate(0 0)" style="fill:#fff"/><path d="M2993.80005,1156.30005c-1.69995-16.19995-12.5-23.1-28.1001-23.1-12.7,0-25.3999,4.6-25.3999,19.3,0,13.9,18.1001,16,36.30005,20.1,18.1001,4.1,36.1001,10.5,36.1001,32.69995,0,24.1-23.6001,33.80005-44.2,33.80005-25.3999,0-46.8-12.4-46.8-39.9h14.3c0,19,15.80005,27.3,33,27.3,13.6001,0,28.7-4.3,28.7-20.6,0-15.5-18.1001-18.19995-36.1001-22.19995-18.1001-4-36.30005-9.2-36.30005-30,0-23,20.3999-33.1,41.1001-33.1,23.10009,0,40.7,10.9,41.7,35.80005h-14.30005Z" transform="translate(0 0)" style="fill:#fff"/><path d="M3052.1001,1135.9h-37.7v-12.69995h90.5V1135.9H3067.2002v100.5h-15.1001Z" transform="translate(0 0)" style="fill:#fff"/><path d="M3114.30005,1123.2h78.1001v12.69995h-63.1001v36h58.80005v12.7h-58.80005v39.19995h63.6001v12.7h-78.6001Z" transform="translate(0 0)" style="fill:#fff"/><path d="M3206.3999,1123.2H3227l35.7,95.1,35.8-95.1h20.6001V1236.3999h-14.30005V1142.2h-.3l-35.3,94.19995H3256.3999l-35.3-94.19995h-.30005v94.19995h-14.3V1123.2Z" transform="translate(0 0)" style="fill:#fff"/><path d="M1279.2,938.5h49.6c22.5,0,34.7,12.5,34.7,33.4s-12.2,33.6-34.7,33.4h-34.6v46.30005h-15.1V938.5Zm15.1001,54.2h29.5c17,.2,24.69995-7.3,24.69995-20.8s-7.80005-20.8-24.69995-20.8h-29.5Z" transform="translate(0 0)" style="fill:#fff"/><path d="M1375.6,938.5h53.3c21.2,0,34.4,11.6,34.4,29.6,0,13.6-6,24.9-19.69995,28.7v.3c13.19995,2.5,15.8,12.2,17,23.3,1,11.1.3,23.49994,6.69995,31.2H1450.5c-4.30005-4.6-1.9-16.80005-4.1-27.9-1.6-11.1-4.3-20.4-18.9-20.4H1390.7v48.3h-15.1Zm46.5,52.1c14.1,0,26.19995-3.6,26.19995-20.1,0-11.1-6-19.3-20.1-19.3h-37.4v39.5H1422.1Z" transform="translate(0 0)" style="fill:#fff"/><path d="M1528.6,935.8c36,0,54.19995,28.5,54.19995,59.3,0,30.69995-18.19995,59.3-54.19995,59.3s-54.2-28.5-54.2-59.3C1474.30005,964.3,1492.6,935.8,1528.6,935.8Zm0,105.8c27.6,0,39.19995-23.8,39.19995-46.6s-11.6-46.6-39.19995-46.6-39.1,23.8-39.1,46.6C1489.4,1017.9,1501,1041.6,1528.6,1041.6Z" transform="translate(0 0)" style="fill:#fff"/><path d="M1597.80005,1001.2h54.4v12.7h-54.4Z" transform="translate(0 0)" style="fill:#fff"/><path d="M2226.1001,971.6c-1.7-16.2-12.5-23.1-28.1001-23.1-12.7,0-25.3999,4.6-25.3999,19.3,0,13.9,18.1001,16,36.3,20.1,18.10009,4.1,36.10009,10.5,36.10009,32.7,0,24.1-23.60009,33.8-44.19995,33.8-25.3999,0-46.80005-12.4-46.80005-39.9h14.30005c0,19,15.8,27.30005,33,27.30005,13.6001,0,28.69995-4.30005,28.69995-20.6,0-15.5-18.10009-18.2-36.10009-22.2-18.1001-4-36.3-9.2-36.3-30,0-23,20.3999-33.1,41.1001-33.1,23.10009,0,40.69995,10.9,41.69995,35.8h-14.3Z" transform="translate(0 0)" style="fill:#fff"/><path d="M2260.3999,938.5H2310c22.5,0,34.7,12.5,34.7,33.4s-12.2,33.6-34.7,33.4h-34.6001v46.30005h-15.1001V938.5Zm15,54.2h29.5c17,.2,24.7-7.3,24.7-20.8s-7.80005-20.8-24.7-20.8h-29.5Z" transform="translate(0 0)" style="fill:#fff"/><path d="M2356.80005,938.5h78.1001v12.7h-63.1001v36h58.80005v12.7h-58.80005v39.2h63.6001v12.69995h-78.6001Z" transform="translate(0 0)" style="fill:#fff"/><path d="M2527.3999,972.5c-3.19995-16-16-24.1-31.69995-24.1-26.8999,0-38.3999,22.2-38.3999,45.8,0,25.8,11.3999,47.4,38.5,47.4,19.80005,0,31.2-13.9,32.7-32.7h15.1001c-2.8999,28.2-20.3999,45.3-49,45.3-35.2,0-52.30005-26-52.30005-59,0-32.8,18.7-59.6,53.6001-59.6,23.60009,0,43.10009,12.7,46.60009,36.8H2527.3999Z" transform="translate(0 0)" style="fill:#fff"/><path d="M1757.30005,1037.5c-8.69995,11.9-23,16.80005-36.30005,16.80005-33.80005,0-53.9-27.6-53.9-57.1,0-33,18.1-61.5,53.9-61.5,24.69995,0,44.4,11.1,48.69995,37.6h-15.1c-3-17.1-16.80005-24.9-33.6-24.9-27.4,0-38.80005,23.8-38.80005,48,0,23.6,13.6,45.2,38.80005,45.2,23.30005,0,37.19995-16.30005,36.30005-36.9h-36.1V992h49.6v59.6h-9.5Z" transform="translate(0 0)" style="fill:#fff"/><path d="M1790.4,938.5h78.1v12.7h-63.1v36h58.80005v12.7H1805.4v39.2H1869v12.69995h-78.6Z" transform="translate(0 0)" style="fill:#fff"/><path d="M1919.30005,938.5h16.6L1980.1,1051.7h-16.6l-12.4-34.1h-47.9L1890.5,1051.7H1875ZM1908.1,1004.9h38.4l-18.9-52.8h-.30005Z" transform="translate(0 0)" style="fill:#fff"/><path d="M1989,938.5h53.30005c21.19995,0,34.3999,11.6,34.3999,29.6,0,13.6-6,24.9-19.7,28.7v.3c13.2,2.5,15.8999,12.2,17,23.3,1,11.1.3,23.49994,6.7,31.2H2063.8999c-4.3-4.6-1.8999-16.80005-4.1001-27.9-1.60009-11.1-4.3-20.4-18.9-20.4h-36.80005v48.3H1989Zm46.4,52.1c14.1,0,26.20008-3.6,26.20008-20.1,0-11.1-6-19.3-20.1-19.3h-37.4v39.5H2035.4Z" transform="translate(0 0)" style="fill:#fff"/></svg>