<svg id="Layer_1" data-name="Layer 1" xmlns="http://www.w3.org/2000/svg" viewBox="0 0 3839.00421 1877.1001"><path d="M1436.30005,1492.4h0A71.05238,71.05238,0,0,0,1468.5,1432.70007c0-39-30.80005-70.6-68.9-70.6h-201.6001v215.20007h71.8v-41.9a13.4008,13.4008,0,0,1,13.4-13.4H1381a13.4008,13.4008,0,0,1,13.4,13.4v41.9h68.5v-40.6C1462.6,1526.1,1458.1,1506.80005,1436.30005,1492.4Zm-152.9-24.5a13.4008,13.4008,0,0,1-13.4-13.4v-27.4a13.4008,13.4008,0,0,1,13.4-13.4h97.80005a13.4008,13.4008,0,0,1,13.4,13.4v27.4a13.4008,13.4008,0,0,1-13.4,13.4Z" transform="translate(0 0)" style="fill:#f4a51c"/><path d="M1977.6,1362H1842.7a63.88845,63.88845,0,0,0-63.9,63.9V1577.2h70.4v-53h121.9v53h70.4V1425.9A63.88846,63.88846,0,0,0,1977.6,1362Zm-128.1,105.80005v-34.1a17.66858,17.66858,0,0,1,17.69995-17.7h86.29993a17.66858,17.66858,0,0,1,17.69995,17.7v34.1Z" transform="translate(0 0)" style="fill:#f4a51c"/><rect x="2089.3999" y="1362" width="72.8999" height="215.19995" style="fill:#f4a51c"/><path d="M2436,1362H2207V1577.2h69.3999V1433A15.83369,15.83369,0,0,1,2292.2,1417.2h119A15.83361,15.83361,0,0,1,2427,1433v144.20007h68.2V1421.2A59.13,59.13,0,0,0,2436,1362Z" transform="translate(0 0)" style="fill:#f4a51c"/><path d="M2854.2,1362H2541V1577.2h63.5V1432.4a15.19322,15.19322,0,0,1,15.2-15.19995H2674A15.1933,15.1933,0,0,1,2689.2,1432.4v26.2h0v118.6h71.69995V1432.4a15.19322,15.19322,0,0,1,15.2-15.19995h54.3a15.1933,15.1933,0,0,1,15.2,15.19995V1577.2h71.69995V1425.1A63.09856,63.09856,0,0,0,2854.2,1362Z" transform="translate(0 0)" style="fill:#f4a51c"/><path d="M3469.6001,1362h-229V1577.2H3310V1433a15.83369,15.83369,0,0,1,15.8-15.80005h119A15.83361,15.83361,0,0,1,3460.6001,1433v144.20007h68.19995V1421.2A59.19391,59.19391,0,0,0,3469.6001,1362Z" transform="translate(0 0)" style="fill:#f4a51c"/><path d="M537,1362H308V1577.2h69.4V1433A15.83362,15.83362,0,0,1,393.2,1417.2h119a15.83352,15.83352,0,0,1,15.8,15.80005v144.20007h68.2V1421.2A59.06628,59.06628,0,0,0,537,1362Z" transform="translate(0 0)" style="fill:#f4a51c"/><path d="M263.2,1416.7V1362H22.1v152a63.24842,63.24842,0,0,0,63.3,63.30005H263.1V1522.6001H102.5a16.98572,16.98572,0,0,1-17-17h0a16.98571,16.98571,0,0,1,17-17H253.7v-38H102.5a16.98572,16.98572,0,0,1-17-17h0a16.98571,16.98571,0,0,1,17-17Z" transform="translate(0 0)" style="fill:#f4a51c"/><path d="M1156.6,1416.7V1362H915.5v152a63.24841,63.24841,0,0,0,63.3,63.30005h177.7V1522.6001H996a16.98571,16.98571,0,0,1-17-17h0a16.9857,16.9857,0,0,1,17-17H1147.2v-38H996a16.98571,16.98571,0,0,1-17-17h0a16.9857,16.9857,0,0,1,17-17Z" transform="translate(0 0)" style="fill:#f4a51c"/><path d="M3198.2,1416.7V1362h-241v152a63.24846,63.24846,0,0,0,63.3,63.30005h177.7V1522.6001h-160.6001a16.98578,16.98578,0,0,1-17-17h0a16.98578,16.98578,0,0,1,17-17H3188.7998v-38H3037.59985a16.98578,16.98578,0,0,1-17-17h0a16.98578,16.98578,0,0,1,17-17L3198.2,1416.7Z" transform="translate(0 0)" style="fill:#f4a51c"/><path d="M3819.1001,1362H3560.30005v54.1h76.2a14.97984,14.97984,0,0,1,15,15v146.1H3728V1431.1a14.97984,14.97984,0,0,1,15-15h76.2V1362Z" transform="translate(0 0)" style="fill:#f4a51c"/><path d="M1749.9,1362H1491.1001v54.1h76.19995a14.97984,14.97984,0,0,1,15,15v146.1h76.5V1431.1a14.97984,14.97984,0,0,1,15-15H1750l-.1-54.1Z" transform="translate(0 0)" style="fill:#f4a51c"/><path d="M883.1,1362H624.4v54.1h76.2a14.97989,14.97989,0,0,1,15,15v146.1H792V1431.1a14.97988,14.97988,0,0,1,15-15h76.2l-.1-54.1Z" transform="translate(0 0)" style="fill:#f4a51c"/><path d="M1782.5,1749.30005H1681.4c-11.8,0-20-4.69995-20-15.4,0-9.5,7.1-17.69995,16.5-17.69995h172.9v-54.4H1661.5c-35.30005,0-64.69995,29.6-64.69995,62.6,0,47.30005,30.6,65.1,71.69995,65.1h101.1c10.6,0,21.19995,4.69995,21.19995,15.4,0,9.5-7.1,17.7-16.5,17.7H1596.7V1877h194c31.69995,0,64.69995-26,64.69995-62.6C1855.4,1770.6,1820.1,1749.30005,1782.5,1749.30005Z" transform="translate(0 0)" style="fill:#f4a51c"/><path d="M1204,1749.4H1105.2C1093.3999,1749.4,1084,1744.70007,1084,1734c0-9.4,9.4-17.69995,17.6-17.69995h172.9v-54.4H1085.2c-37.6,0-68.2,29.6-68.2,62.6,0,47.19995,32.9,65,74.1,65h98.8c11.80005,0,21.2,4.69995,21.2,15.4,0,9.4-9.4,17.7-17.6,17.7H1018.2V1877H1212.2c35.30005,0,67-26,67-62.6C1279.30005,1770.7,1245.2,1749.4,1204,1749.4Z" transform="translate(0 0)" style="fill:#f4a51c"/><path d="M2760.1001,1661.9h-313.2v215.2h63.5V1732.30005a15.19321,15.19321,0,0,1,15.2-15.19995h54.3a15.1933,15.1933,0,0,1,15.2,15.19995V1758.5h0v118.6h71.69995V1732.30005a15.19321,15.19321,0,0,1,15.2-15.19995h54.3a15.1933,15.1933,0,0,1,15.2,15.19995V1877.1h71.7V1725A63.09889,63.09889,0,0,0,2760.1001,1661.9Z" transform="translate(0 0)" style="fill:#f4a51c"/><path d="M1565.1,1661.9H1500v80.30005A16.1961,16.1961,0,0,1,1483.80005,1758.4h-96.6a16.1961,16.1961,0,0,1-16.2-16.19995V1661.9h-68.19995v90.1001a61.62654,61.62654,0,0,0,61.6,61.6h32.4v63.5h75.30005v-63.5h33a61.62654,61.62654,0,0,0,61.6-61.6v-90.1H1565.1Z" transform="translate(0 0)" style="fill:#f4a51c"/><path d="M2404.30005,1716.5v-54.69995h-241v152a63.24846,63.24846,0,0,0,63.30005,63.30005h177.69995v-54.7H2243.7a16.98578,16.98578,0,0,1-17-17h0a16.98578,16.98578,0,0,1,17-17H2394.8999v-38H2243.7a16.98578,16.98578,0,0,1-17-17h0a16.98578,16.98578,0,0,1,17-17l160.6001.09985Z" transform="translate(0 0)" style="fill:#f4a51c"/><path d="M2135.8999,1661.80005h-258.8v54.1h76.19995a14.97985,14.97985,0,0,1,15,15V1877h76.5V1730.9a14.97986,14.97986,0,0,1,15-15h76.2v-54.1Z" transform="translate(0 0)" style="fill:#f4a51c"/><path d="M3248.6001,1124.4H589.3C252.9,1124.4,0,883.3,0,563.4,0,242.3,252.9,0,588.1,0H3249.7998C3586.1001,0,3839,242.3,3839,563.4,3840.2,883.3,3584.8999,1124.4,3248.6001,1124.4Z" transform="translate(0 0)" style="fill:#9a9a9a"/><path d="M786.9,644.5l-180-291.7H476.3V770.3h129.4V478.7l181.1,291.7H916.2V352.8H786.9ZM1810.1,492.8V451.6h-68.2V395.1H1616v56.5h-68.19995v41.2H1616V770.4h125.80005V492.8ZM988,770.4h125.80005V492.8H988Zm0-332.9h125.80005V351.6H988ZM3187.3999,474c-101.1001,0-183.5,69.4-183.5,156.4,0,85.9,82.30005,156.4,183.5,156.4s183.5-69.4,183.5-156.4S3290.8999,474,3187.3999,474ZM3238,688.1c0,44.7-25.8999,62.3-51.8,62.3-24.7,0-51.80005-18.8-51.80005-62.3V570.5c0-43.5,25.8999-62.3,51.80005-62.3,24.69995,0,51.8,17.6,51.8,62.3V688.1ZM2840.3999,506.9c-20-11.8-41.19995-22.3-70.6001-24.7-90.60009-8.2-160,71.7-160,145.8,0,96.4,74.1001,132.9,85.89991,137.6,42.30005,20,96.3999,20,144.7-10.6v16.5h123.5V354h-123.5C2840.3999,352.8,2840.3999,442.2,2840.3999,506.9Zm0,123.5v49.4c0,42.3-29.3999,54.1-49.3999,54.1s-49.3999-11.8-49.3999-54.1V581c0-43.5,29.3999-54.1,49.3999-54.1s49.3999,10.6,49.3999,54.1ZM1407.9,479.9c-41.19995,1.2-76.5,18.8-100,42.3V492.8H1183.20007V770.4H1307.9V588.1c0-24.7,25.9-50.6,60-50.6s57.6,27.1,57.6,50.6V770.4H1550.2V619.9C1550.2,509.3,1454.9,478.7,1407.9,479.9Zm1020.9,0c-41.19995,1.2-76.5,18.8-100,42.3V492.8H2204.1001V770.4h124.69995V588.1c0-24.7,25.8999-50.6,60-50.6s57.6001,27.1,57.6001,50.6V770.4h124.7V619.9C2569.8999,509.3,2474.6001,478.7,2428.80005,479.9ZM2164.1001,632.8c0-85.9-83.5-157.6-185.80005-157.6S1793.6001,544.6,1793.6001,631.6c0,85.9,82.3,156.4,184.69995,156.4C2063,788,2134.7,739.8,2157.1001,673.9h-124.7v16.5c0,50.6-32.9,62.3-51.8,62.3s-52.9-11.8-52.9-62.3v-57.6l236.4-.00006ZM1937.1,535.2c9.4-17.6,28.19995-24.7,44.69995-25.9,16.5,0,34.1,8.2,44.7,25.9,8.19995,14.1,8.19995,30.6,8.19995,54.1H1930C1927.7,564.6,1927.7,549.3,1937.1,535.2ZM3422.6001,404.6c0-14.1-10.6001-20-30.6001-20h-28.2v71.7h17.6001V426.9h8.2l14.1001,29.4h18.8l-15.3-31.8C3416.80005,421.1,3422.6001,414,3422.6001,404.6ZM3389.7,415.2h-8.2V394h7.1001c10.6001,0,15.3,3.5,15.3,10.6C3405,412.8,3399.1001,415.2,3389.7,415.2Zm0-58.8a64.48522,64.48522,0,0,0-64.7,64.7c0,35.3,29.3999,64.7,64.7,64.7s64.69995-29.4,64.69995-64.7A64.48522,64.48522,0,0,0,3389.7,356.4Zm0,116.4c-28.2,0-51.80005-23.5-51.80005-51.8s23.5-51.8,51.80005-51.8,51.8,23.5,51.8,51.8A51.49173,51.49173,0,0,1,3389.7,472.8Zm-140-354H589.3c-281.1-1.2-470.5,202.3-470.5,444.6S307,1005.6,590.4,1005.6H3249.7002c282.3,0,471.60009-199.9,471.60009-442.2C3720.2,319.9,3530.80005,117.6,3249.7,118.8Zm-1.09985,778.6H590.4c-224.6,1.2-361-149.4-361-335.2S367,228.2,590.4,227H3248.5c223.5,0,361.1001,149.4,361.1001,335.2S3472,897.4,3248.6001,897.4ZM3249.7,118.8H589.3c-281.1-1.2-470.5,202.3-470.5,444.6S307,1005.6,590.4,1005.6H3249.7002c282.3,0,471.60009-199.9,471.60009-442.2C3720.2,319.9,3530.80005,117.6,3249.7,118.8Zm-1.09985,778.6H590.4c-224.6,1.2-361-149.4-361-335.2S367,228.2,590.4,227H3248.5c223.5,0,361.1001,149.4,361.1001,335.2S3472,897.4,3248.6001,897.4ZM3249.7,118.8H589.3c-281.1-1.2-470.5,202.3-470.5,444.6S307,1005.6,590.4,1005.6H3249.7002c282.3,0,471.60009-199.9,471.60009-442.2C3720.2,319.9,3530.80005,117.6,3249.7,118.8Zm-1.09985,778.6H590.4c-224.6,1.2-361-149.4-361-335.2S367,228.2,590.4,227H3248.5c223.5,0,361.1001,149.4,361.1001,335.2S3472,897.4,3248.6001,897.4Z" transform="translate(0 0)" style="fill:#fff"/></svg>