<svg id="Layer_1" data-name="Layer 1" xmlns="http://www.w3.org/2000/svg" viewBox="0 0 3840.01733 693.66669"><rect y="464.23809" width="110.30002" height="43" style="fill:#fff"/><rect x="0.01953" y="536.75747" width="110.30002" height="43" style="fill:#fff"/><rect x="432.64441" y="555.70907" width="189.60001" height="43.00003" style="fill:#fff"/><rect x="161.84032" y="473.77625" width="43" height="141.10004" style="fill:#fff"/><path d="M204.8,614.9c0,36.9-24.6,73.8-73.8,73.8v-43c20.6,0,30.8-15.4,30.8-30.8" transform="translate(0.01733 -0.03332)" style="fill:#fff"/><rect x="362.13" y="460.69849" width="43" height="154.10004" style="fill:#fff"/><path d="M405.1,614.9c0,36.9-24.6,73.8-73.8,73.8v-43c20.6,0,30.8-15.4,30.8-30.8" transform="translate(0.01733 -0.03332)" style="fill:#fff"/><rect x="239.2251" y="460.65644" width="43.00002" height="116.5" style="fill:#fff"/><path d="M765.9,584.1l34.4-34.4c32.8-32.8,9.6-89-36.8-89H612.1v43H750.3a14.57758,14.57758,0,0,1,10.3,24.9l-113,112.9a31.41619,31.41619,0,0,1-22.2,9.2H612.1v43h31.1a31.41615,31.41615,0,0,0,22.2-9.2l66-66c18.5,19.3,33.8,44.8,42.8,75.2h54.7C817.2,648,794,610.7,765.9,584.1Z" transform="translate(0.01733 -0.03332)" style="fill:#fff"/><circle cx="843.41736" cy="480.56669" r="19.79999" style="fill:#fff"/><circle cx="895.11731" cy="480.56669" r="19.79999" style="fill:#fff"/><polygon points="292.817 78.967 352.417 45.167 279.617 2.467 241.917 182.167 83.317 5.067 9.117 88.867 31.817 90.967 47.917 108.867 0.017 336.767 87.817 292.267 46.617 254.667 71.617 135.367 241.317 324.867 292.817 78.967" style="fill:#c30207"/><path d="M616.7,12.5H356.8a2.00874,2.00874,0,0,0-.7,3.9c20.6,7.3,36.4,18.4,34.3,28.3l-19.7,94c-2.4,11.5-21.9,16.5-39.9,18.6-2.9.3-2.9,4.5-.1,5,23.1,3.7,31.4,8.5,32.6,11.5L341.7,277c-3.5,16.5-27.2,20.5-47.8,27.8a2.00873,2.00873,0,0,0,.7,3.9H577.7l19.8-94.6a2.84707,2.84707,0,0,0-5.2-2.1c-16.4,26.3-53.1,77.6-89.8,77.6H436.8L462.5,167h16.7c25.7,0,43.7,39.6,49.7,54.9a1.8296,1.8296,0,0,0,3.5-.3L558.6,96.9a1.81253,1.81253,0,0,0-3.2-1.5c-12,15.4-43.9,52.5-73.2,52.5H466.6L490.9,31.8h68.7c35.6,0,47.2,38,51.7,85a3.34185,3.34185,0,0,0,6.6.4L639.8,12.7H616.7Z" transform="translate(0.01733 -0.03332)" style="fill:#c30207"/><path d="M840.9,308.7l62.1-120c1.8-3.4-1-4.7-4-2.2-118.2,97.9-197.2,9-185.6-49.1,12.8-63.5,63-95.1,109.4-105.5l48.5,62.4L915,73,881.7.3c-104.3-5-237.2,60.5-243.6,180.4C635,240.5,692.8,360.2,840.9,308.7Z" transform="translate(0.01733 -0.03332)" style="fill:#c30207"/><rect x="2005.63177" y="298.31116" width="207.50002" height="113.19995" style="fill:#fff"/><path d="M1391,28.1v-.2H1158.49988V682.7h157.9V164.3H1383.2c95.4,0,95.4,143.1,0,143.1H1347.5V443.8H1391v-.2C1657.9,436,1657.9,35.7,1391,28.1Z" transform="translate(0.01733 -0.03332)" style="fill:#fff"/><path d="M2015.6,517.8a163.47545,163.47545,0,0,1-74.7,18.1c-96.3,0-174.6-84.1-174.6-187.5s78.30005-187.5,174.6-187.5a163.475,163.475,0,0,1,74.7,18.1V11.8a322.92327,322.92327,0,0,0-74.7-8.9c-183.6,0-332.4,154.6-332.4,345.4s148.80005,345.4,332.4,345.4a317.57855,317.57855,0,0,0,74.7-8.9Z" transform="translate(0.01733 -0.03332)" style="fill:#fff"/><path d="M2463.7,2.5c-121.8999,0-220.6001,98.8-220.6001,220.6,0,119.8,95.5,217.2,214.5,220.5l-106.7,239h149.3999l166.1001-372.2a219.28559,219.28559,0,0,0,18-87.4C2684.3999,101.3,2585.6001,2.5,2463.7,2.5Zm0,304.9a84.2,84.2,0,1,1,84.19995-84.2A84.203,84.203,0,0,1,2463.7,307.4Z" transform="translate(0.01733 -0.03332)" style="fill:#fff"/><rect x="3703.61743" y="2.46668" width="136.3999" height="680.20001" style="fill:#fff"/><path d="M3093.2,334.2a208.616,208.616,0,0,0,38.8999-121.7c0-116-94-210-210-210s-210,94-210,210A208.43557,208.43557,0,0,0,2749.49976,332a219.35082,219.35082,0,0,0-49,138.4c0,121.5,98.5,220,220,220s220-98.5,220-220A219.09594,219.09594,0,0,0,3093.2,334.2ZM2922.1001,139A73.6,73.6,0,1,1,2848.5,212.6,73.66177,73.66177,0,0,1,2922.1001,139ZM2920.5,554.1a83.6,83.6,0,1,1,83.6001-83.6A83.6911,83.6911,0,0,1,2920.5,554.1Z" transform="translate(0.01733 -0.03332)" style="fill:#fff"/><path d="M3408.1001,2.5c-129.6001,0-234.7,116-234.7,344s105.10009,344,234.60009,344,234.7-116,234.7-344C3642.7,118.5,3537.7,2.5,3408.1001,2.5Zm56.19995,520.4c-20.3999,27.6-40.69995,31.1-56.19995,31.1s-35.80005-3.5-56.2-31.1c-15.69995-21.3-42-72.4-42-176.4s26.30005-155.2,42-176.4c20.3999-27.6,40.7-31.1,56.2-31.1s35.8,3.5,56.19995,31.1c15.7,21.3,42,72.4,42,176.4S3480,501.7,3464.30005,522.9Z" transform="translate(0.01733 -0.03332)" style="fill:#fff"/></svg>