<?xml version="1.0" encoding="UTF-8" standalone="no"?>
<svg
   id="Layer_1"
   data-name="Layer 1"
   viewBox="0 0 3838.97488 1530.95646"
   version="1.1"
   sodipodi:docname="pce-cd.svg"
   inkscape:version="1.1.2 (0a00cf5339, 2022-02-04, custom)"
   xmlns:inkscape="http://www.inkscape.org/namespaces/inkscape"
   xmlns:sodipodi="http://sodipodi.sourceforge.net/DTD/sodipodi-0.dtd"
   xmlns="http://www.w3.org/2000/svg"
   xmlns:svg="http://www.w3.org/2000/svg">
  <defs
     id="defs41" />
  <sodipodi:namedview
     id="namedview39"
     pagecolor="#ffffff"
     bordercolor="#666666"
     borderopacity="1.0"
     inkscape:pageshadow="2"
     inkscape:pageopacity="0.0"
     inkscape:pagecheckerboard="0"
     showgrid="false"
     inkscape:zoom="0.27845976"
     inkscape:cx="1919.4874"
     inkscape:cy="764.92202"
     inkscape:window-width="1920"
     inkscape:window-height="1017"
     inkscape:window-x="-8"
     inkscape:window-y="-8"
     inkscape:window-maximized="1"
     inkscape:current-layer="Layer_1" />
  <path
     d="M2757.3999,508.5c-.8-59-42.3999-116.1-120.3999-165-72.7-45.6-177.3-84.6-302.5-112.7-24.8999-5.6-50.8999-10.8-77.3999-15.5l2.3999-1.9h0l55.3-44.7c7.2-5.8.2-17.1-8.19995-13.3l-56.2,25.4-54.39991,24.6-17.3-2.4c-108.89991-15.1-224.5-22.8-343.7-22.8h-5l4.1-26.8a2.02171,2.02171,0,0,1,1.80005-1.8l54.4-10.8-5.8,37.7,146.9-29.2,7.1-46.3a89.1078,89.1078,0,0,0-105.6-101.1l-103.5,20.6c-58.5,11.6-106.4,52.2-128.6,105.8a88.92651,88.92651,0,0,0-102.19995-59.9L1373.9,113l-17.1,111.3-12.69995,2.6c-146.4,30-269.4,72.9-355.9,124.2-92.3,54.7-140.6,118-139.7,183,1,77,69.3,148.2,197.6,205.7l10.4,4.7-22.1,143.6c-2.19995,14.4,6.30005,28.6,20.30005,32.4a27.68009,27.68009,0,0,0,12.8.4l539.9-107.4a28.45986,28.45986,0,0,0-6.9,14.5L1583.2,941C1581,955.4,1589.5,969.6,1603.6,973.4a27.68023,27.68023,0,0,0,12.8.4l95.2-18.9a242.8937,242.8937,0,0,0,147.6-93.8l19.30005-.8c131.6-5.2,256.8999-19.4,372.5-42.4,149.3-29.7,274.8999-72.7,363.3999-124.5C2708.80005,638.3,2758.30005,574.4,2757.3999,508.5Z"
     transform="translate(-0.025 -0.14352)"
     style="fill:#d40000"
     id="path2" />
  <polygon
     points="2266.075 189.256 1987.375 315.056 1898.475 234.056 1930.775 349.956 1692.975 542.156 1971.675 416.356 2060.575 497.256 2028.275 381.456 2266.075 189.256"
     style="fill:#fff"
     id="polygon4" />
  <polygon
     points="2266.075 189.256 1987.375 315.056 1898.475 234.056 1930.775 349.956 1692.975 542.156 1971.675 416.356 2060.575 497.256 2028.275 381.456 2266.075 189.256"
     style="fill:#fff"
     id="polygon6" />
  <path
     d="M1990.30005,301.2l2.5-1.1c1.19995-4.7,2.1-9.4,2.9-14.2l4.6-29.8L1951.5,265.8Z"
     transform="translate(-0.025 -0.14352)"
     style="fill:#fff"
     id="path8" />
  <path
     d="M1763.7,440.7l48.6-9.7L1917.1,346.3l-19.4-69.8L1883.5,279.3l-4,26.2a16.70694,16.70694,0,0,1-13.19995,13.8l-62,12.3a8.95666,8.95666,0,0,1-10.6-10.2L1819.9,151a16.707,16.707,0,0,1,13.2-13.8l62-12.3a8.95666,8.95666,0,0,1,10.6,10.2l-3.80005,25L2018.7,136.9l5.6-36.3c7.9-51.3-37.6-94.9-88.5-84.7l-103.5,20.6a162.0131,162.0131,0,0,0-128.5,134.2L1675.1,356C1667.2,407.3,1712.7,450.9,1763.7,440.7Z"
     transform="translate(-0.025 -0.14352)"
     style="fill:#fff"
     id="path10" />
  <path
     d="M950,645.6c-45-36-68.1-73.7-68.7-112C879.9,426,1060.9,319.5,1344,260.4l3-19.4c-290,59.4-485.7,169.5-484,292.9,1,73.2,71.2,139.9,189.1,192.8l2.9-18.9C1012.9,688.6,977.8,667.8,950,645.6Z"
     transform="translate(-0.025 -0.14352)"
     style="fill:#fff"
     id="path12" />
  <path
     d="M1835,194.5,1832.2,212.9c108.69995-.1,214.19995,6.2,312.8999,18.5l31.69995-14.3C2071.30005,202.5,1956,194.4,1835,194.5Z"
     transform="translate(-0.025 -0.14352)"
     style="fill:#fff"
     id="path14" />
  <path
     d="M2238.3999,226.6,2219.2998,242c87.30005,14.1,168.1001,33.2,239.39991,56.9,84.7,28.1,151,61.1,197.2,98,45,36,68.1001,73.7,68.7,112,1.5,109.8-186.8999,218.5-480,276.8-109.7,21.8-231.5,35.9-356.30005,41.4-3.19995,6.4-6.6,12.7-10.3,18.9,133.19995-5.2,258.5-19.9,370.19995-42.2,295.89991-58.9,496.39991-170.1,494.80005-295.1C2741.30005,383.5,2537,277.4,2238.3999,226.6Z"
     transform="translate(-0.025 -0.14352)"
     style="fill:#fff"
     id="path16" />
  <path
     d="M2438.80005,423.6l-96,19.1a13.71926,13.71926,0,0,0-10.8999,11.4l-3,19.4,115.30005-22.9a13.71928,13.71928,0,0,0,10.8999-11.4h0A13.82328,13.82328,0,0,0,2438.80005,423.6Z"
     transform="translate(-0.025 -0.14352)"
     style="fill:#fff"
     id="path18" />
  <path
     d="M1705.2,577,1690.5,672.8a10.97216,10.97216,0,0,0,13,12.5l109.30005-21.8,18.30005-118.9L1714,567.8A11.17578,11.17578,0,0,0,1705.2,577Zm39.4,28.9,34.4-6.8-4.30005,27.9-34.4,6.8Z"
     transform="translate(-0.025 -0.14352)"
     style="fill:#fff"
     id="path20" />
  <path
     d="M2538.7,357.1a75.464,75.464,0,0,0-77.5-32.4l-120.7,24a124.674,124.674,0,0,0-77.3999,50.3q-.90015-.9-1.80005-1.8a75.58926,75.58926,0,0,0-66.8-19.5l-146.3999,29.1,11.6001,41.8,143.19995-28.5a32.03328,32.03328,0,0,1,37.8999,36.3l-27.3,177.5-48.3999,9.6L2189,488.2a10.97215,10.97215,0,0,0-13-12.5l-109.3,21.8L2040.3999,668.3l-48.4,9.6,30.6-198.8-53.7-48.9L1824.7,495.3l14.5-2.9,48.4-9.6h0l-40.30005,261.8a185.19893,185.19893,0,0,1-146.9,153.5l-53.9,10.7,8-51.9,37.69995-7.5a138.29021,138.29021,0,0,0,109.69995-114.6l3-19.7-128.30005,25.5a32.03341,32.03341,0,0,1-37.9-36.3l18.6-121.1a81.196,81.196,0,0,1,31.69995-52.8l.1-.1,85.69995-69.3-61.3,12.2a124.67423,124.67423,0,0,0-77.4,50.3q-.9-.9-1.80005-1.8a75.58926,75.58926,0,0,0-66.80005-19.5l-129.80005,25.8,3.6-23.5,15-97.4,91.5-18.2a162.01307,162.01307,0,0,0,128.5-134.2l13.5-87.9c7.9-51.3-37.6-94.9-88.5-84.7l-214.7,42.7-40,260-217.8,43.3a13.71955,13.71955,0,0,0-10.9,11.4l-69.4,451.3a13.78778,13.78778,0,0,0,16.30005,15.6l292.4-58.2h0l94.5-18.8,26.30005-170.8,34.4-6.9L1486,822.9l138.69995-27.6,3.6-23.4a75.48456,75.48456,0,0,0,56.7,11.4l55-11a94.65769,94.65769,0,0,1-56.30005,34.8l-58,11.5a13.71952,13.71952,0,0,0-10.9,11.4l-17.5,114a13.78779,13.78779,0,0,0,16.30005,15.6l95.19995-18.9a228.61024,228.61024,0,0,0,181.30005-189.4l1.4-9.1,93.6-18.6h0l93.6001-18.6,26.3-170.8,34.3999-6.9L2113,698.2l138.7-27.6,3.6001-23.4a75.48445,75.48445,0,0,0,56.7,11.4l197-39.2a13.71922,13.71922,0,0,0,10.8999-11.4l20.5-133.4-5.5,1.1A125.09957,125.09957,0,0,0,2545.5,441.3l4.6001-29.8C2553,392.5,2549.30005,373,2538.7,357.1ZM1487.4,206.1l73.4-14.6a8.95665,8.95665,0,0,1,10.6,10.2l-11.19995,73a16.7069,16.7069,0,0,1-13.2,13.8l-74.5,14.8ZM1319.1,812l-21,4.2-24.7,4.9-137.69995,27.4-38,7.6,59.9-389.2,16-3.2,118.3-23.5,53.6-10.7-8,51.9-15.4,3.1L1198,509.2l-17.6,114.6,58.1-11.6,10.4-2.1,38-7.6-8,51.9-20.4,4.1-28,5.6-58.1,11.6L1154,794.5l127.30005-25.3,7-1.4,38.80005-7.7Zm-112.9-71.9,4.30005-27.9L1317,691l22-142.9-106.5,21.2,3.6-23.5,88.5-17.6,40.19995-8L1359.1,557.5l-24.2,157.1Zm380.4,18.7-48.4,9.6,23.9-155.3a10.97216,10.97216,0,0,0-13-12.5l-109.30005,21.8-26.3,170.8-48.4,9.6,34.3-222.7L1576,545a32.03341,32.03341,0,0,1,37.9,36.3Zm360.20007-71.7-48.4,9.6,34.30005-222.7,48.4-9.6ZM2507.5,403.5l-4.8,31.2a81.3683,81.3683,0,0,1-64.6001,67.5l-117.2,23.3-3.5,22.5a10.97216,10.97216,0,0,0,13,12.5L2439.7,538.7l21.69995-4.3,26.7-5.3-8,51.9-9.10009,1.8-167.6001,33.3a32.03329,32.03329,0,0,1-37.8999-36.3l18.60009-121.1A81.36832,81.36832,0,0,1,2348.7,391.2l120.69995-24A32.06648,32.06648,0,0,1,2507.5,403.5Z"
     transform="translate(-0.025 -0.14352)"
     style="fill:#fff"
     id="path22" />
  <path
     d="M201.4,1531H587.3V1436.7H201.4C58.6,1436.7,58.6,1222.5,201.4,1222.5H587.3V1128.2H201.4C-67.1,1128.30005-67.1,1531,201.4,1531Z"
     transform="translate(-0.025 -0.14352)"
     style="fill:#fff"
     id="path24" />
  <path
     d="M1047.4,1128.30005H661.5V1531.1h385.9C1315.9,1531,1315.9,1128.30005,1047.4,1128.30005Zm0,308.5H755.8V1222.6001h291.6C1190.2,1222.6,1190.2,1436.80005,1047.4,1436.80005Z"
     transform="translate(-0.025 -0.14352)"
     style="fill:#fff"
     id="path26" />
  <path
     d="M2611.2,1128.30005h-249.3999c-268.5,0-268.5,402.69995,0,402.69995H2611.2C2879.7,1531,2879.7,1128.30005,2611.2,1128.30005Zm0,308.5h-249.3999c-142.8,0-142.8-214.19995,0-214.19995H2611.2C2754,1222.6,2754,1436.80005,2611.2,1436.80005Z"
     transform="translate(-0.025 -0.14352)"
     style="fill:#fff"
     id="path28" />
  <path
     d="M1383.4,1279.1h-20.6a47.1,47.1,0,1,0,0,94.19995h20.6a47.1,47.1,0,1,0,0-94.19995Z"
     transform="translate(-0.025 -0.14352)"
     style="fill:#fff"
     id="path30" />
  <path
     d="M2048.5,1352.4c19.8999-24.8,30-56.6,30-88.4,0-67.9-45.19995-135.69995-135.69995-135.69995H1502.4V1531h94.30005V1399.7h346.1c20.69995,0,41.5,13.80005,41.5,41.5v89.9h94.30005v-89.9h0C2078.5,1403.80005,2066.8999,1374.30005,2048.5,1352.4Zm-105.69995-46.9h-346.1v-82.9h346.1c27.6,0,41.5,20.69995,41.5,41.5C1984.30005,1284.7,1970.5,1305.5,1942.80005,1305.5Z"
     transform="translate(-0.025 -0.14352)"
     style="fill:#fff"
     id="path32" />
  <path
     d="M3372.30005,1128.30005h-346.3999c-90.5,0-135.69995,67.9-135.69995,135.69995h0v267h94.3V1264c0-20.69995,13.80005-41.5,41.5-41.5h129.89991V1531h94.30005V1222.5h122.19995c27.60009,0,41.5,20.69995,41.5,41.5v267h94.30005V1264h0C3508,1196.2,3462.7,1128.30005,3372.30005,1128.30005Z"
     transform="translate(-0.025 -0.14352)"
     style="fill:#fff"
     id="path34" />
  <path
     d="M3656.6001,1216.80005c0-12.69995,8.5-25.4,25.3999-25.4h80.2c102.3999,0,102.3999-153.69995,0-153.69995H3615.5v51.4h146.7c33.8999,0,33.8999,50.8,0,50.8H3682c-51.2,0-76.8,38.4-76.8,76.80005v57.09985h226.5v-51.4h-175.1001v-5.6Z"
     transform="translate(-0.025 -0.14352)"
     style="fill:#fff"
     id="path36" />
</svg>
