<?xml version="1.0" encoding="UTF-8" standalone="no"?>
<svg
   id="Layer_1"
   data-name="Layer 1"
   viewBox="0 0 3839.04341 1959.57413"
   version="1.1"
   sodipodi:docname="pcengine.svg"
   inkscape:version="1.1.2 (0a00cf5339, 2022-02-04, custom)"
   xmlns:inkscape="http://www.inkscape.org/namespaces/inkscape"
   xmlns:sodipodi="http://sodipodi.sourceforge.net/DTD/sodipodi-0.dtd"
   xmlns="http://www.w3.org/2000/svg"
   xmlns:svg="http://www.w3.org/2000/svg">
  <defs
     id="defs27" />
  <sodipodi:namedview
     id="namedview25"
     pagecolor="#ffffff"
     bordercolor="#666666"
     borderopacity="1.0"
     inkscape:pageshadow="2"
     inkscape:pageopacity="0.0"
     inkscape:pagecheckerboard="0"
     showgrid="false"
     inkscape:zoom="0.27845478"
     inkscape:cx="1919.5217"
     inkscape:cy="980.41054"
     inkscape:window-width="1920"
     inkscape:window-height="1017"
     inkscape:window-x="-8"
     inkscape:window-y="-8"
     inkscape:window-maximized="1"
     inkscape:current-layer="Layer_1" />
  <path
     d="M3839,1022.7c-1.6001-118.7-85.3-233.5-242.2-331.9-146.19995-91.7-356.6001-170.1-608.40015-226.7-50.19995-11.3-102.3999-21.7-155.69995-31.3l4.8-3.9h0l111.3-89.9c14.3999-11.7.5-34.4-16.5-26.7l-113,51L2710,412.8l-34.8999-4.8c-218.8999-30.4-451.5-45.8-691.2-45.8h-10l8.30005-53.8a4.599,4.599,0,0,1,3.5-3.7l109.3-21.7-11.69995,75.8L2378.7002,300l14.3-93.1c14.30005-92.9-46.3-181.9-137.8999-202.5a179.28254,179.28254,0,0,0-74.3999-.8L1972.5,45c-117.6,23.4-214,104.9-258.6,212.7-19.19995-58.4-67.69995-105.3-131.1-119.6a177.61412,177.61412,0,0,0-74.4-.8L1056.6001,227.2,1022.2,451l-25.5,5.2C702.3,516.5,454.8,602.9,281,706,95.4,816-1.7,943.3,0,1074.1c2.1,154.9,139.5,298,397.3,413.70007l20.9,9.4L373.8,1786c-4.4,28.9,12.7,57.6,40.9,65.19995A54.92335,54.92335,0,0,0,440.5,1852l1085.80008-216A56.44616,56.44616,0,0,0,1512.5,1665.1l-35,227.4c-4.4,28.9,12.69995,57.6,40.9,65.19995a54.92355,54.92355,0,0,0,25.80005.80005l191.5-38.1c121.3-24.1,226.1-93.1,296.9-188.6l38.8999-1.5c264.6001-10.4,516.6001-39.1,749.1001-85.30005C3120.80005,1585.30005,3373.5,1498.7,3551.5,1394.7,3741.3999,1283.7,3840.7,1155.1,3839,1022.7Z"
     transform="translate(0.02194 -0.09098)"
     style="fill:#d40000"
     id="path2" />
  <polygon
     points="2851.022 380.809 2290.522 633.809 2111.722 471.009 2176.622 704.009 1698.322 1090.509 2258.822 837.509 2437.722 1000.309 2372.722 767.309 2851.022 380.809"
     style="fill:#fff"
     id="polygon4" />
  <polygon
     points="2851.022 380.809 2290.522 633.809 2111.722 471.009 2176.622 704.009 1698.322 1090.509 2258.822 837.509 2437.722 1000.309 2372.722 767.309 2851.022 380.809"
     style="fill:#fff"
     id="polygon6" />
  <path
     d="M2296.2,605.9l5-2.3c2.3-9.4,4.3-18.9,5.8-28.6l9.2-59.9L2218,534.6Z"
     transform="translate(0.02194 -0.09098)"
     style="fill:#fff"
     id="path8" />
  <path
     d="M1840.5,886.4,1938.2,867,2149,696.5l-39.1001-140.4-28.5,5.7-8.1001,52.6a33.28071,33.28071,0,0,1-26.5,27.7L1922.1,667a18.08847,18.08847,0,0,1-21.4-20.4L1953.3999,304a33.2806,33.2806,0,0,1,26.5-27.7L2104.5,251.5a18.08835,18.08835,0,0,1,21.3999,20.4L2118.2,322.2l234.8999-46.7,11.19995-73c15.89991-103.2-75.60009-190.8-178-170.4L1978.09985,73.5a325.71326,325.71326,0,0,0-258.4,270L1662.4,716C1646.5,819.1,1738,906.7,1840.5,886.4Z"
     transform="translate(0.02194 -0.09098)"
     style="fill:#fff"
     id="path10" />
  <path
     d="M204.1,1298.5C113.5,1226.1,67,1150.30005,66,1073.2c-2.9-216.5,361.1-430.7,930.5-549.6l6-39C419.2,604.1,25.7,825.5,29,1073.7,31,1220.8999,172.2,1355,409.2,1461.3999l5.8-37.9C330.6,1384.9,260,1343.1,204.1,1298.5Z"
     transform="translate(0.02194 -0.09098)"
     style="fill:#fff"
     id="path12" />
  <path
     d="M1983.9,391.1l-5.69995,37.1c218.6-.3,430.79993,12.5,629.20008,37.2l63.7-28.8C2459.30005,407.2,2227.3999,391.1,1983.9,391.1Z"
     transform="translate(0.02194 -0.09098)"
     style="fill:#fff"
     id="path14" />
  <path
     d="M2795.30005,455.8l-38.3,31c175.6001,28.4,338.1001,66.8,481.3999,114.4,170.30005,56.6,303.7,122.9,396.5,197.1,90.6001,72.4,137.1001,148.2,138.1001,225.3,3,220.9-375.8999,439.4-965.3,556.7-220.7,43.9-465.6001,72.19995-716.5,83.19995-6.3999,13-13.30005,25.6-20.80005,37.9,267.80005-10.5,519.8999-40.1,744.5-84.8,595.2-118.4,998.3999-342.20008,995.1001-593.5C3806.6001,771.3,3395.7,558,2795.30005,455.8Z"
     transform="translate(0.02194 -0.09098)"
     style="fill:#fff"
     id="path16" />
  <path
     d="M3198.2,852l-193,38.4a27.88823,27.88823,0,0,0-22,23l-6,39.1L3209,906.4a27.88822,27.88822,0,0,0,22-23h0A27.66691,27.66691,0,0,0,3198.2,852Z"
     transform="translate(0.02194 -0.09098)"
     style="fill:#fff"
     id="path18" />
  <path
     d="M1723,1160.4,1693.4,1353a22.14874,22.14874,0,0,0,26.2,25.1l219.9-43.7,36.80005-239.19995-235.69995,46.9A22.002,22.002,0,0,0,1723,1160.4Zm79.1,58.1L1871.29993,1204.7l-8.6,56.1L1793.5,1274.6Z"
     transform="translate(0.02194 -0.09098)"
     style="fill:#fff"
     id="path20" />
  <path
     d="M3399.2,718.2a151.5728,151.5728,0,0,0-156-65.1L3000.3999,701.4A251.48871,251.48871,0,0,0,2844.7,802.6c-1.2-1.2-2.3999-2.5-3.6001-3.7a151.64628,151.64628,0,0,0-134.2-39.1L2412.5,818.4l23.3999,84.1,288-57.3c43.80005-8.7,83,28.8,76.2,73L2745.2,1275.2l-97.30005,19.4L2696,982.3a22.14875,22.14875,0,0,0-26.2-25.1l-219.8999,43.8-52.89991,343.6-97.3,19.4,61.5-399.8-108-98.4-290,130.9,29.1-5.8,97.29993-19.4h0l-81,526.50006a372.40556,372.40556,0,0,1-295.5,308.69995l-108.30005,21.6,16.1-104.4,75.9-15.1a277.95063,277.95063,0,0,0,220.5-230.4l6.1-39.6L1665.4,1490.1c-43.8,8.69995-83-28.80005-76.19995-73l37.5-243.6a164.064,164.064,0,0,1,63.8-106.19995l.1-.19995,172.3-139.3-123.19995,24.5a251.48907,251.48907,0,0,0-155.7,101.2c-1.2-1.19995-2.4-2.5-3.6-3.69995a151.64628,151.64628,0,0,0-134.2-39.1l-261,51.9,7.30005-47.3,30.1-195.9,184-36.6a325.71325,325.71325,0,0,0,258.4-270l27.19995-176.7c15.9-103.2-75.6-190.8-178-170.4l-431.9,85.9-80.5,523-438,87.1a27.5404,27.5404,0,0,0-21.9,22.9l-139.6,907.59992a27.60077,27.60077,0,0,0,32.7,31.3l588-117h0l190-37.8,52.9-343.6,69.19995-13.80005-52.9,343.6,279-55.5,7.19995-47a151.60516,151.60516,0,0,0,114,22.9l110.7-22a191.07857,191.07857,0,0,1-113.30005,70l-116.69995,23.19995a27.54058,27.54058,0,0,0-21.9,22.9L1505.9,1898.7002a27.60076,27.60076,0,0,0,32.7,31.3l191.5-38.1a459.54048,459.54048,0,0,0,364.50012-380.79993l2.8-18.4,188.10009-37.4h0l188.1001-37.4,52.8999-343.6,69.2-13.8-52.89991,343.6,279-55.5,7.19995-47a151.60518,151.60518,0,0,0,114,22.9l396.1001-78.8a27.54043,27.54043,0,0,0,21.8999-22.9l41.30005-268.3-11,2.2a247.00386,247.00386,0,0,0,21.3-69.3l9.2-60C3427.8999,789.4,3420.3999,750.2,3399.2,718.2ZM1284.80005,414.5l147.6-29.4a18.08847,18.08847,0,0,1,21.4,20.4l-22.6,146.7a33.28054,33.28054,0,0,1-26.5,27.7l-149.9,29.8ZM946.3,1633.1l-42.2,8.4-49.6,9.9-277,55.1L501.1,1721.7,621.5,939l32.2-6.4,238-47.3,107.8-21.4L983.4,968.3l-31.1,6.2L702.7,1024l-35.4,230.4,116.9-23.3,20.9-4.2,76.4-15.19995-16.1,104.4-41,8.19995-56.4,11.19995-116.9,23.30005L614.4,1598l256.1-51L884.7,1544.2l78-15.5Zm-227-144.7,8.6-56.1,214.2-42.6,44.2-287.4-214.2,42.6,7.3-47.3,178-35.4,80.8-16.1-11.5,74.9-48.6,315.9Zm765.00006,37.7L1387,1545.5,1435.1,1233.2a22.14873,22.14873,0,0,0-26.2-25.1L1189,1251.79993l-52.9,343.6-97.30005,19.4,68.9-447.9L1463,1096.2c43.80005-8.69995,83,28.80005,76.19995,73Zm724.5-144.2-97.3,19.4,68.8999-447.9L2277.7,934ZM3336.5,811.4l-9.7,62.8a163.92712,163.92712,0,0,1-130,135.8l-235.69995,46.9-7,45.30005a22.14877,22.14877,0,0,0,26.19995,25.1L3200.2,1083.6001l43.5-8.7,53.8-10.69995-16.1001,104.4L3263,1172.30017l-337,67.1c-43.8,8.7-83-28.8-76.2-73l37.5-243.7a163.92712,163.92712,0,0,1,130-135.8l242.80005-48.3C3304.1001,729.7,3343.30005,767.2,3336.5,811.4Z"
     transform="translate(0.02194 -0.09098)"
     style="fill:#fff"
     id="path22" />
</svg>
