<svg id="Layer_1" data-name="Layer 1" xmlns="http://www.w3.org/2000/svg" xmlns:xlink="http://www.w3.org/1999/xlink" viewBox="0 0 3839 1214.30005"><defs><linearGradient id="Dégradé_sans_nom" x1="598" y1="549.88983" x2="598" y2="1211.88983" gradientTransform="matrix(1, 0, 0, -1, 0, 1211.88983)" gradientUnits="userSpaceOnUse"><stop offset="0" stop-color="#1be7f2"/><stop offset="0.01123" stop-color="#1ce5f1"/><stop offset="0.1812" stop-color="#2db8e0"/><stop offset="0.3516" stop-color="#3a93d2"/><stop offset="0.5199" stop-color="#4677c8"/><stop offset="0.6855" stop-color="#4e63c0"/><stop offset="0.847" stop-color="#5257bc"/><stop offset="1" stop-color="#5353ba"/></linearGradient><linearGradient id="Dégradé_sans_nom_2" x1="3241" y1="549.88983" x2="3241" y2="1211.88983" xlink:href="#Dégradé_sans_nom"/><linearGradient id="Dégradé_sans_nom_3" x1="1830.90002" y1="549.88983" x2="1830.90002" y2="1211.88983" xlink:href="#Dégradé_sans_nom"/></defs><polyline points="0 0 1196 0 1196 354.6 47.3 354.6 47.3 662 0 662 0 307.4 1148.7 307.4 1148.7 47.3 0 47.3 0 0" style="fill:url(#Dégradé_sans_nom)"/><polyline points="3839 612.3 3839 662 2643 662 2643 307.4 3791.7 307.4 3791.7 47.3 2643 47.3 2643 0 3839 0 3839 354.6 2690.3 354.6 2690.3 614.7 3839 614.7 3839 662" style="fill:url(#Dégradé_sans_nom_2)"/><polyline points="1806 0 1806 614.7 1196 614.7 1196 662 1855.7 662 1855.7 47.3 2465.8 47.3 2465.8 0 1806 0" style="fill:url(#Dégradé_sans_nom_3)"/><path d="M985.8,892.3V1125h36.3V914.6h33.6s24.4,0,32.80005,10.9c7.1,9.3,8.4,26.1,8.4,37.5,0,12.2-.8,31-4.9,37.9-6.19995,10.5-16.4,12.6-25.69995,12.6H1044.1001V1034.2h31.9s28.80005,1.19995,41.2-11.4c15.19995-15.4,19.1-36.2,19.1-64,0-25.2-9.19995-50.7-27.9-59.4-15.5-7.1-43.4-7.1-43.4-7.1H985.8" transform="translate(0 0)" style="fill:#fff"/><rect x="1165" y="892.29999" width="36.30005" height="232.79999" style="fill:#fff"/><polyline points="1394.6 946.6 1461.1 1120.8 1423 1214.3 1453.1 1214.3 1563 946.6 1529.4 946.6 1481.5 1077 1436.9 946.6 1394.6 946.6" style="fill:#fff"/><path d="M1590.4,1123.7v-22s38.4,1.5,46.4,1.5c17.69995,0,26.6-3.80005,33.30005-10.9,3.9-4.3,7.5-23.3,7.5-30s-1.30005-21.3-3.9-27.3c-2.7-5.9-8.9-11.3-18.2-12.1-6.6-.6-16.9-1.9-28.8-2.5a46.21865,46.21865,0,0,1-33.2-15.8c-5.3-6.3-12.4-15.8-12.4-44.8,0-29.1,7.5-45.4,15.1-52.9,7.5-7.6,18.6-10.9,27-12.4,9.69995-1.7,25.69995-1.8,25.69995-1.8l50.9,1.5v22s-37.1-1.5-45.1-1.5c-17.7,0-23.1,3.8-29.7,10.9-3.9,4.2-7,16-7,22.7,0,6.8.80005,20.4,3.5,26.3,2.6,5.9,8.9,11.3,18.2,12.2,6.6.5,16.9,1.8,28.8,2.4a46.01081,46.01081,0,0,1,33.2,15.8c5.3,6.3,12.5,19.6,12.5,48.6,0,29.1-7.6,49.8-15.1,57.4-7.6,7.6-18.6,10.9-27,12.4-9.80005,1.7-25.7,1.80005-25.7,1.80005L1590.4,1123.7" transform="translate(0 0)" style="fill:#fff"/><path d="M1788.7,914.6H1752.3999v170.9s.9,15.6,1.80005,21.1,8.9,18.5,29.69995,18.5l37.6-.7v-21.9s-10.2.69995-16.4.69995c-6.2,0-13.80005-.4-15.1-10.9a206.92653,206.92653,0,0,1-1.4-23.1V968.5h41V946.6h-41v-32" transform="translate(0 0)" style="fill:#fff"/><rect x="2139.30005" y="946.59998" width="36.30005" height="178.5" style="fill:#fff"/><rect x="2139.30005" y="892.29999" width="36.30005" height="32.40002" style="fill:#fff"/><path d="M2265.5,979.3c-5,6.2-11.1001,19.1-11.1001,56.50006,0,37.4,6.1001,50.4,11.1001,56.5s14.2,10.19995,26,10.19995c11.8999,0,21-4.1,26.1001-10.19995,5-6.1,11.1001-19.1,11.1001-56.5,0-37.5-6.1001-50.4-11.1001-56.5s-14.2-10.2-26.1001-10.2c-11.8-.00006-21,4.1-26,10.19995m24.8999-34.3c24.7,0,43.8999,5.5,54.2,13.9,10.39991,8.3,23.19995,26,23.19995,76.9,0,51-12.8,68.6-23.19995,76.9-10.30005,8.3-29.5,13.9-54.2,13.9-24.8,0-43.8999-5.6-54.3-13.9-10.3999-8.4-23.10009-26-23.10009-76.9,0-51,12.69995-68.6,23.10009-76.9C2246.6001,950.6,2265.7,945,2290.3999,945Z" transform="translate(0 0)" style="fill:#fff"/><path d="M2443.1001,971.6l35.6001-1.5c9.3,0,20.3,2.5,25.60009,9.3,5,6.4,8.1001,13.9,8.1001,26.1v119.3h36.3999v-122.3c0-23.1-7.10009-36.6-17.80005-45-15.19995-12.1-42.5-10.9-42.5-10.9L2407,948v176.80005h36V971.6" transform="translate(0 0)" style="fill:#fff"/><path d="M2067,914.6H2030.7v170.9s.9,15.6,1.69995,21.1c.9,5.5,8.80005,18.5,29.7,18.5l37.6001-.7v-21.9s-10.2.69995-16.3999.69995-13.8-.4-15.1001-10.9a222.68048,222.68048,0,0,1-1.30005-23.1V968.5h40.8999V946.6H2067v-32" transform="translate(0 0)" style="fill:#fff"/><path d="M1339.2,1005.5c0-12.2-3.1-19.8-8.1-26.1-5.30005-6.7-16.2-9.3-25.6-9.3l-47.9,1.5V948l57.69995-1.5s27.30005-1.2,42.6,10.9c10.6,8.5,17.7,21.9,17.7,45V1123l-69.6,1.5s-31.5.1-47.4-6.30005c-15.5-6.30005-23.9-23.6-23.9-47.6,0-23.2,7.1-36.6,17.69995-45.1,15.30005-12.1,42.5-10.9,42.5-10.9h22.19995v20.6h-12.5c-9.3,0-19,1.69995-24.3,8.5-5,6.30005-7.6,11.80005-7.6,24,0,16,3.1,23.19995,10.6,28.6,6.69995,4.9,18.6,5.9,31.9,5.9l24-1.5V1005.5" transform="translate(0 0)" style="fill:#fff"/><path d="M1951.9,1005.5c0-12.2-3-19.8-8-26.1-5.4-6.7-16.3-9.3-25.6-9.3l-47.9,1.5V948l57.6-1.5s27.30005-1.2,42.5,10.9c10.6,8.5,17.80005,21.9,17.80005,45V1123l-69.6,1.5s-31.6.1-47.4-6.30005c-15.5-6.30005-24-23.6-24-47.6,0-23.2,7.1-36.6,17.69995-45.1,15.19995-12.1,42.6-10.9,42.6-10.9h22.19995v20.6h-12.5c-9.3,0-19,1.69995-24.19995,8.5-5,6.30005-7.7,11.80005-7.7,24,0,16,3.1,23.19995,10.6,28.6,6.6,4.9,18.6,5.9,31.9,5.9l23.9-1.5V1005.5" transform="translate(0 0)" style="fill:#fff"/><path d="M2853.2,922.3c.5,26.8-.80005,40.9-9.80005,54.4-8,11.8-23.69995,22.6-58.5,22.6l-43.1001-1.3c-6.8.1-24.5,2.1-32.8,11.1-7.2,7.6-7.7,13.4-8.39991,34v60.19995H2847.2998v29.6h-160.3l-7.7-.1c-10.8999,0-21.60009-7.4-21.60009-22.19995v-44.9c.7-52.5,4.5-60.1,15.8999-73.8,7.8999-9.5,26.3999-20.1,49-21.3,4.3999-.2,12.8-.8,24.3999-.4,8.6001.3,17.1001.5,20.8999.5,20,.2,27.3-3.4,32.7-10.6,6.2-8.1,9.5-17.6,9.5-33.1,0-14.5-2.89991-28.4-8.5-34.8-6.8-7.4-13.2-12.3-32-12.3-47.39991-.1-102.8,1.1-102.8,1.1V853.2s54.10009-2.4,109.3-3.2c34.3999-.5,53.3,8.6,62.8999,21.1,10.10083,13.2,13.80078,25.6,14.20068,51.2" transform="translate(0 0)" style="fill:#fff"/></svg>