<svg id="Layer_1" data-name="Layer 1" xmlns="http://www.w3.org/2000/svg" viewBox="0 0 3838.97963 806.59998"><path d="M625.4,64.2c144.2,49.5,193,111.1,193,250,0,135.2-83.5,186.6-189.7,135.3V197.4c0-29.5-5.4-56.7-33.2-64.4-21.3-6.9-34.4,12.9-34.4,42.4V806.6L390.8,752.5V0c72.5,13.4,177.9,45.2,234.6,64.2m-32,730.9L965.5,661.4s50-18.4,70.4-44.2c20.4-25.7,11.4-63-69-88.5-71.3-27.1-162-36.2-236.2-28.2-74.1,8.3-126.9,27-126.9,27l-10.5,3.5v102.3L775.9,569c31.1-11.1,76.7-13.5,102-5.2,25.2,8.2,20.4,24-10.6,35.1l-273.8,97.7v98.5ZM78.5,686.2c88.4,29.2,178.3,34.9,262.5,21.1,5.5-.9,11.4-1.9,16.8-2.7V616.1l-84.3,30.5c-31.1,11.2-76.7,13.5-102,5.3-25.1-8.2-20.4-24,10.6-35.1l175.7-62.9V455l-244.1,86.7s-59,19.4-93.8,45.1C-17.7,614.7-4,663,78.5,686.2M958.3,788.7a32.7205,32.7205,0,0,0,23.5,9.7,33.054,33.054,0,0,0,33-33.1,33.11792,33.11792,0,0,0-33.1-33.1,33.11809,33.11809,0,0,0-33.2,33.1,33.1708,33.1708,0,0,0,9.8,23.4m23.4,16.4a39.22561,39.22561,0,0,1-28.2-11.7,39.75022,39.75022,0,1,1,56.3-.00006A38.83075,38.83075,0,0,1,981.7,805.1m8.1-55.1a10.30235,10.30235,0,0,0-4.3-.8H972.4v12.6h12.3a10.56894,10.56894,0,0,0,5.8-1.4c1.3-.9,1.9-2.6,1.9-5.1.1-2.7-.8-4.4-2.6-5.3m11.5,33.8.6.3v2.6h-8.6l-.3-.5a6.86381,6.86381,0,0,1-.5-1.7c-.1-.6-.2-1.8-.3-3.4l-.4-7c0-2.5-.9-4-2.4-4.8a13.89288,13.89288,0,0,0-4.8-.7H972.5v18.2h-7.7v-44.3h20.7a19.14319,19.14319,0,0,1,8.4,1.5c4.3,1.9,6.5,5.6,6.5,10.9a11.33577,11.33577,0,0,1-1.8,6.8,11.51476,11.51476,0,0,1-3.3,3.3,9.22352,9.22352,0,0,1,2.6,2.2c1,1.3,1.5,3.1,1.6,5.9l.3,5.7c.1,1.6.3,2.7.3,3.4a2.30938,2.30938,0,0,0,1.2,1.6" transform="translate(-0.02037 0)" style="fill:#fff"/><path d="M2943.8999,190.9h-325C2524.7,190.9,2478.5,249,2478.5,324.6V554.4c0,46.8-22.2,80.5-69.1001,80.5h-305.5a3.54319,3.54319,0,0,0-3.5,3.5v46.2a3.54319,3.54319,0,0,0,3.5,3.5H2444.7c94.3,0,140.5-57.9,140.5-133.6v-230c0-46.9,22.19995-80.6,69-80.6H2943.8999a3.4577,3.4577,0,0,0,3.3999-3.5V194.3a3.50447,3.50447,0,0,0-3.3999-3.4" transform="translate(-0.02037 0)" style="fill:#fff"/><path d="M1983.80005,191h-588a3.4782,3.4782,0,0,0-3.5,3.5v46.1a3.4782,3.4782,0,0,0,3.5,3.5h552.6c46.80005,0,69,33.7,69,80.6s-22.19995,80.5-69,80.5H1511.2c-67.80005,0-119,57-119,132.7V684.7a3.47821,3.47821,0,0,0,3.5,3.5h99.69995a3.54309,3.54309,0,0,0,3.5-3.5V537.9c0-46.9,27-79.5,65.7-79.5h419c94.3,0,140.39991-57.9,140.39991-133.5C2124.2,249.2,2078,191,1983.80005,191" transform="translate(-0.02037 0)" style="fill:#fff"/><path d="M3715.30005,581.9l-103.3-.1h3.6001a3.56494,3.56494,0,0,1-3.6001-3.5V243.8c0-51.4-35.5-68.2-85.5-37.3l-599.2,368c-23.6001,14.4-31.5,30.8-25.8,42.8,4.8999,10.5,17.8,17.7,43.8,17.7h556.5a3.32079,3.32079,0,0,1,3.1001,2.6v46.9a3.56491,3.56491,0,0,0,3.5,3.6h100.10009a3.56491,3.56491,0,0,0,3.5-3.6v-46a3.56491,3.56491,0,0,1,3.5-3.6h99.7a3.56492,3.56492,0,0,0,3.60009-3.5v-46.1a3.33553,3.33553,0,0,0-3.50024-3.4M3505.2,578.2a3.56491,3.56491,0,0,1-3.5,3.6H3035.2c-3.80005,0-5.80005-1-6.30005-2.4-.5-2.2.7-3.8,3.3999-5.7l464.30005-285.9c3.19995-2,8.6001-1.7,8.6001,4.7Z" transform="translate(-0.02037 0)" style="fill:#fff"/><path d="M3766,648.3a33.14991,33.14991,0,0,1,66.2998,0,33.07575,33.07575,0,0,1-33,33.2A33.28828,33.28828,0,0,1,3766,648.3m33.2,39.9a39.776,39.776,0,0,0,39.8-39.9,40.07677,40.07677,0,0,0-11.6001-28.1A39.49093,39.49093,0,0,0,3799.2,608.4a39.92524,39.92524,0,0,0-39.80005,39.9A39.94663,39.94663,0,0,0,3799.2,688.2" transform="translate(-0.02037 0)" style="fill:#fff"/><path d="M3810,638.3c0,2.5-.6001,4.1-2,5.1a10.84133,10.84133,0,0,1-5.8,1.3H3789.8999V632.1H3803a10.30287,10.30287,0,0,1,4.3.8c1.80005,1.00006,2.7,2.7,2.7,5.4m8.8,28.5a2.65046,2.65046,0,0,1-1.3-1.9c0-.7-.2-1.8-.3-3.4l-.30005-5.7c-.1001-2.7-.5-4.6-1.6001-5.9a9.224,9.224,0,0,0-2.60009-2.2,10.12082,10.12082,0,0,0,3.30005-3.2,11.85914,11.85914,0,0,0,1.8-6.8c0-5.3-2.19995-8.9-6.5-10.9a19.61129,19.61129,0,0,0-8.5-1.5h-20.60009v44.3h7.80005v-18.2h12.10009a13.07682,13.07682,0,0,1,4.8.7c1.5.8,2.3999,2.3,2.5,4.8l.3999,7c.1001,1.6.2,2.8.30005,3.4a6.87151,6.87151,0,0,0,.5,1.7l.3.5H3819.5v-2.6l-.7-.09991" transform="translate(-0.02037 0)" style="fill:#fff"/></svg>