<svg id="Layer_1" data-name="Layer 1" xmlns="http://www.w3.org/2000/svg" viewBox="0 0 3839.00367 865.30005"><path d="M419.1,0V807.4l182.8,57.9v-677c0-31.9,14.2-53.1,37-45.8,29.9,8.3,35.6,37.7,35.6,69.2V482.1c113.8,55.1,203.4,0,203.4-145.4,0-148.5-52.5-214.6-207.1-267.8C609.9,48.6,496.9,14.4,419.1,0" transform="translate(0.00367 0)" style="fill:#fff"/><path d="M636.6,747.3,930.2,642.8c33.2-12.3,38.3-29,11.4-37.8-27.3-8.9-76-6.4-109.6,5.7L636.6,679.6v-110l11.2-3.7s56.6-20.1,136.1-28.7c79.4-8.7,176.8,1.1,253.30005,30,86.19995,27.4,95.9,67.3,74.1,95.1-22.1,27.5-75.80005,47.4-75.80005,47.4L636.6,853Z" transform="translate(0.00367 0)" style="fill:#fff"/><path d="M84.1,736.1C-4.3,711.5-19,659.5,21.3,629.4c37.2-27.5,100.6-48.1,100.6-48.1l261.9-93.4v106.3l-188.3,67.5c-33.3,12-38.3,28.7-11.5,37.5,27.3,9.1,75.9,6.7,109.3-5.6l90.5-32.6v94.8c-5.8,1-12.3,2-18.3,3C275.2,773.7,179.1,767.6,84.1,736.1" transform="translate(0.00367 0)" style="fill:#fff"/><path d="M2463.8999,692.2A139.51337,139.51337,0,0,0,2603.5,552.7V312.6a84.09634,84.09634,0,0,1,84.1001-84.1h270.69995a3.75705,3.75705,0,0,0,3.7-3.7v-48a3.757,3.757,0,0,0-3.7-3.7H2632.1001A139.57738,139.57738,0,0,0,2492.5,312.6V552.7a84.09639,84.09639,0,0,1-84.1001,84.1h-267a3.62984,3.62984,0,0,0-3.69995,3.7v48a3.75706,3.75706,0,0,0,3.69995,3.7Z" transform="translate(0.00367 0)" style="fill:#fff"/><path d="M3074.1001,368.1V176.8a3.757,3.757,0,0,1,3.69995-3.7H3815.1001a3.757,3.757,0,0,1,3.69995,3.7v48a3.69148,3.69148,0,0,1-3.69995,3.7H3188.7002a3.69132,3.69132,0,0,0-3.7,3.7V356.9a39.90379,39.90379,0,0,0,39.89991,40h466.3999a147.7,147.7,0,0,1,0,295.4h-613.5a3.75706,3.75706,0,0,1-3.69995-3.7v-48a3.75707,3.75707,0,0,1,3.69995-3.7h558a92.334,92.334,0,0,0,92.30005-92c.19995-51-42.1001-92.7-93-92.7H3158.30005A84.18165,84.18165,0,0,1,3074.1001,368.1" transform="translate(0.00367 0)" style="fill:#fff"/><path d="M1979,396.7a84.1,84.1,0,1,0,.00012-168.2h-565.6a3.75705,3.75705,0,0,1-3.69995-3.7v-48a3.757,3.757,0,0,1,3.69995-3.7h621.1a139.6,139.6,0,0,1,0,279.2H1604.80005a84.09633,84.09633,0,0,0-84.1,84.1V688.7a3.6914,3.6914,0,0,1-3.7,3.7h-103.5a3.69136,3.69136,0,0,1-3.69995-3.7V536.2a139.51333,139.51333,0,0,1,139.6-139.5Z" transform="translate(0.00367 0)" style="fill:#fff"/></svg>