<svg id="Layer_1" data-name="Layer 1" xmlns="http://www.w3.org/2000/svg" viewBox="0 0 3838.92897 621.09998"><path d="M300.8,0V579.5L432,621.1V135.2c0-22.9,10.2-38.1,26.6-32.9,21.4,5.9,25.6,27.1,25.6,49.7V346.1c81.6,39.5,146,0,146-104.3,0-106.6-37.7-154.1-148.6-192.3C437.8,34.9,356.7,10.3,300.8,0" transform="translate(0.02883 0)" style="fill:#fff"/><path d="M457,536.4l210.8-75c23.8-8.8,27.5-20.9,8.2-27.2-19.6-6.4-54.6-4.5-78.7,4.1L457,487.8V408.9l8-2.7s40.6-14.4,97.7-20.6c57-6.2,126.9.8,181.8,21.5,61.9,19.6,68.8,48.3,53.2,68.3-15.9,19.8-54.4,34-54.4,34L457,612.3Z" transform="translate(0.02883 0)" style="fill:#fff"/><path d="M60.4,528.4c-63.5-17.7-74.1-55.1-45.1-76.6C42,432,87.5,417.2,87.5,417.2l187.9-67v76.3L140.3,475c-23.9,8.5-27.5,20.6-8.2,27,19.6,6.6,54.4,4.7,78.4-4.1l65-23.4v68.1c-4.2.8-8.8,1.4-13.1,2.2a423.05825,423.05825,0,0,1-202-16.4" transform="translate(0.02883 0)" style="fill:#fff"/><path d="M756,620.2a30.55874,30.55874,0,1,0-21.9-9,30.94777,30.94777,0,0,0,21.9,9m-25.6-30.6a25.43889,25.43889,0,0,1,25.6-25.7,24.942,24.942,0,0,1,18,7.5,25.59764,25.59764,0,0,1-18,43.6,26.06831,26.06831,0,0,1-18.2-7.4,25.25446,25.25446,0,0,1-7.4-18" transform="translate(0.02883 0)" style="fill:#fff"/><path d="M771.1,603.8c-.4-.1-.8-.6-1.1-1.4a16.12011,16.12011,0,0,1-.2-2.6l-.1-4.3c-.1-2.1-.5-3.6-1.3-4.5a6.96937,6.96937,0,0,0-2-1.8,16.61315,16.61315,0,0,0,2.6-2.7,9.87234,9.87234,0,0,0,1.3-5.1q0-6.15-5.1-8.4a16.58908,16.58908,0,0,0-6.4-1.2H742.9V606.1H749V592.2h9.2a10.8788,10.8788,0,0,1,3.7.5c1.1.7,1.7,1.8,1.9,3.7l.3,5.4c.1,1.3.2,2.2.3,2.8a8.33005,8.33005,0,0,0,.4,1.2l.2.4h6.6v-1.9Zm-6.8-22c0,1.9-.5,3.1-1.5,3.8a7.5146,7.5146,0,0,1-4.5,1.1h-9.4v-9.6h10a7.483,7.483,0,0,1,3.3.6,4.23916,4.23916,0,0,1,2.1,4.1" transform="translate(0.02883 0)" style="fill:#fff"/><path d="M1209.4,179.1l-136.8-.1q-.29994.3-.6.6V499.1a.64529.64529,0,0,0,.6.6h56q.29992-.3.6-.6V214.5c0-.2.19995-.5.30005-.5l63.19995-.1c23,0,35.69995,23.2,35.69995,65.3S1215.7,344.6,1192.7,344.6h-38.4q-.29993.3-.6.6V379a.57643.57643,0,0,0,.6.6h54.9c19.1,0,37.9-8.8,51.6-24.2,16.2-18.1,24.80005-44.4,24.80005-75.9.20007-60.9-29.79993-100.4-76.2-100.4" transform="translate(0.02883 0)" style="fill:#fff"/><path d="M1376.4,179.1h-56a.64517.64517,0,0,0-.6.6V499.2a.57642.57642,0,0,0,.6.6h56a.57636.57636,0,0,0,.6-.6V179.8c0-.4-.19995-.7-.6-.7" transform="translate(0.02883 0)" style="fill:#fff"/><path d="M1617.4,256.6a1.0021,1.0021,0,0,0-1-1h-98.69995c-88.30005,0-99.6,65-99.6,121.8l.1,49.3c0,42.3,26.4,73.1,62.69995,73.1H1535a.64517.64517,0,0,0,.6-.6V465.5a3.39035,3.39035,0,0,1-.6-.6H1496.2c-8.9-.2-20.69995-4-20.69995-34.2V377.5c0-35.4,3.30005-57.8,10.5-70.7,8-14.2,20.5-16.1,31.69995-16.1h42.4a.09792.09792,0,0,0,.1.1l-.1,208.5q.29992.3.6.6h56q.29993-.3.6-.6V256.6Z" transform="translate(0.02883 0)" style="fill:#fff"/><path d="M2015.2,312.6,1988,310.5c-20.4-1.8-35.6-13.1-35.6-46.6,0-39.1,17.6-49.7,41-49.7h75.70008a.6453.6453,0,0,0,.6001-.6V180a1.002,1.002,0,0,0-1-1h-83.20008c-51.4,0-88.1,30.2-88.1,90.4v2.5c0,47.7,29.2,81.9,72.80005,85.2l27.19995,2.1c20.6,1.5,33.30005,20,33.30005,48.1v7.9c0,17.6-4.30005,49.6-41.9,49.6h-78.30005a1.07539,1.07539,0,0,0-1,1v33.4a.64529.64529,0,0,0,.6.6h97.5c30,0,80.19995-12.1,80.19995-93.7,0-29.4-6.8999-52.7-20.3999-69.5-11.40015-14.3-28.6001-22.2-52.2002-24" transform="translate(0.02883 0)" style="fill:#fff"/><path d="M2468.30005,256.2q-.29992-.3-.6001-.6h-99c-88.30005,0-99.6001,65-99.6001,121.9v49.3c0,42.3,26.39991,73,62.69995,73h54.1001a.57646.57646,0,0,0,.6001-.6V465.5a3.38727,3.38727,0,0,0-.6001-.6L2347.2,465c-8.8999-.2-20.7-4-20.80005-34.2V377.6c0-35.4,3.30005-57.8,10.6001-70.7,8-14.2,20.5-16.1,31.7-16.1h42.3999l.1001.1-.1001,208.5q.29992.3.6001.6h56a3.40262,3.40262,0,0,0,.6001-.6Z" transform="translate(0.02883 0)" style="fill:#fff"/><path d="M2246.30005,255.7H2186.2a.4301.4301,0,0,1-.3999-.4V214.8q-.29992-.3-.6001-.6h-56a.64529.64529,0,0,0-.6001.6v212c0,42.3,26.39991,73,62.69995,73h40a.64528.64528,0,0,0,.6001-.6V465.5a.64531.64531,0,0,0-.6001-.6h-24.69995c-6.2-.1-20.7-.4-20.7-31.6V290.6c18.1001.1,60.2,0,60.2,0a1.07539,1.07539,0,0,0,1-1V256.3c-.2-.3-.3999-.6-.7998-.6" transform="translate(0.02883 0)" style="fill:#fff"/><path d="M2632.5,255.7h-60.2c-.19995,0-.3-.2-.3-.4l-.1001-.2L2572,214.9q-.29993-.3-.6001-.6h-56a.57655.57655,0,0,0-.6001.6v212c0,42.3,26.39991,73,62.7,73h40a.64527.64527,0,0,0,.60009-.6V465.6a.66876.66876,0,0,0-.7-.6H2592.7c-6.2-.1-20.80005-.4-20.80005-31.6V290.6c18.1001.1,60.2,0,60.2,0a1.07539,1.07539,0,0,0,1-1V256.3a.64485.64485,0,0,0-.59985-.6" transform="translate(0.02883 0)" style="fill:#fff"/><path d="M2723.8999,255.7h-56a.64529.64529,0,0,0-.6001.6V499.2a.64531.64531,0,0,0,.6001.6h56a.64528.64528,0,0,0,.6001-.6V256.4a.66876.66876,0,0,0-.6001-.7" transform="translate(0.02883 0)" style="fill:#fff"/><path d="M2723.8999,179.1h-56a.64529.64529,0,0,0-.6001.6v47a.64529.64529,0,0,0,.6001.6h56a.66875.66875,0,0,0,.7-.6v-47a.85751.85751,0,0,0-.7-.6" transform="translate(0.02883 0)" style="fill:#fff"/><path d="M3105.80005,255.7h-99a.57654.57654,0,0,0-.6001.6V499.2a.57646.57646,0,0,0,.6001.6h56a3.40019,3.40019,0,0,0,.6001-.6l-.1001-208.5h42.5c11.2,0,23.80005,1.8,31.80005,14.9,7.19995,11.9,10.6001,32.8,10.6001,65.6V498.9a1.002,1.002,0,0,0,1,1h55.60009a.64527.64527,0,0,0,.6001-.6V377.6c-.10034-56.9-11.40039-121.9-99.60034-121.9" transform="translate(0.02883 0)" style="fill:#fff"/><path d="M2865.3999,255.6c-92.3,0-104.19995,65.3-104.19995,122.2S2773,500,2865.30005,500c92.3999,0,104.2-65.3,104.2-122.2.1001-56.9-11.7-122.2-104.1001-122.2M2900.5,448.8c-8.7,14.3-22.7,16.2-35.1001,16.2-12.3999,0-26.3-1.9-35.1001-16.2-7.8999-12.9-11.60009-35.5-11.60009-71v-.3c0-42,5.2-65.9,16.80005-77.3,6.8-6.7,15.8-9.6,29.8999-9.6,14.1001,0,23,2.9,29.8999,9.6,11.6001,11.4,16.8999,35.4,16.8999,77.6.00049,35.5-3.69946,58.1-11.69946,71" transform="translate(0.02883 0)" style="fill:#fff"/><path d="M1648,255.7a.851.851,0,0,0-.30005.5l82.19995,240.6v1.7l-46.3,119.6c.1.2.19995.2.3.5H1732.7a8.78662,8.78662,0,0,1,1-.6L1878,256.2a1.04748,1.04748,0,0,0-.30005-.4H1824.5c-.30005.2-.69995.5-1,.7L1762,415.4l-54.1-158.9c-.3-.2-.69995-.5-1-.7Z" transform="translate(0.02883 0)" style="fill:#fff"/><path d="M3275.30005,499.9a30.70558,30.70558,0,1,0-6.6001-60.7,30.29574,30.29574,0,0,0-23.3999,23c-2.3,10.9.80005,21.3,8.2,28.7a30.716,30.716,0,0,0,21.8,9M3249.7,469.3a25.37928,25.37928,0,0,1,7.3999-18.2,25.99,25.99,0,0,1,18.19995-7.5,24.9421,24.9421,0,0,1,18,7.5,25.87905,25.87905,0,0,1,7.30005,21.6A25.05186,25.05186,0,0,1,3289.7,490.4a26.14958,26.14958,0,0,1-32.5-3.1,24.94246,24.94246,0,0,1-7.5-18" transform="translate(0.02883 0)" style="fill:#fff"/><path d="M3290.3999,483.5c-.5-.2-.8-.6-1.1001-1.4-.10009-.6-.19995-1.5-.3-2.6l-.1001-4.4c-.1001-2.1-.5-3.6-1.3-4.5-.3999-.8-1.2-1.2-1.8999-1.8a20.35339,20.35339,0,0,0,2.5-2.6,9.44915,9.44915,0,0,0,1.30005-5.1c0-4.1-1.7-6.9-5-8.4a17.13281,17.13281,0,0,0-6.5-1.2h-16v34.2h6.10009V471.8h9.3a10.879,10.879,0,0,1,3.7.5c1.19995.7,1.69995,1.9,1.8,3.7l.30005,5.4a26.51853,26.51853,0,0,0,.3,2.7,8.37189,8.37189,0,0,0,.3999,1.2l.2.4h6.59986v-1.9Zm-6.7998-22c0,1.9-.5,3.1-1.5,3.8a7.515,7.515,0,0,1-4.5,1.1h-9.3999v-9.6h10a9.96577,9.96577,0,0,1,3.3.5q2.09949,1.05,2.09986,4.2" transform="translate(0.02883 0)" style="fill:#fff"/><polygon points="3462.329 499.9 3412.529 499.9 3297.729 179.1 3339.629 179.1 3437.629 464.3 3438.529 464.3 3535.729 179.1 3577.629 179.1 3462.329 499.9" style="fill:#fff"/><path d="M3797.1001,499.7C3790,474.2,3778.7002,428.3,3772,406.1c-11.3-38.4-20.6001-50.5-70.3999-50.5h-52V499.7h-39V179h110.6001c57,0,100.10009,25.1,100.10009,84.8,0,36.3-20.5,64.7-59.5,74.7v.8c24.3,5.8,35.6001,21.7,46.89991,60.1,10.5,35.5,19.3,65.1,30.19995,100.2h-41.8Zm-82.5-288.2h-65V322.6H3712c43.2,0,70.3999-17.1,70.3999-56.8,0-45.1-33.8999-54.3-67.7998-54.3" transform="translate(0.02883 0)" style="fill:#fff"/></svg>