<svg id="Layer_1" data-name="Layer 1" xmlns="http://www.w3.org/2000/svg" viewBox="0 0 1919.03193 1408.39999"><path d="M90.4,293.1c0,45.6,27,51.3,39.3,51.3,22.9,0,32-17.3,32-35.3,0-20.7-11.1-27.1-69.3-52.5C65.9,245.3.1,217.7.1,144,.1,64.9,52,23.2,121.1,23.2c56.5,0,131.2,30.6,132.7,125.1H166c0-13.3-2.9-41.5-32.6-41.5-16.8,0-33.2,12.2-33.2,30.8,0,18,5.9,22.8,73.7,54.7,70.4,32.9,91.8,74.8,91.8,112.5,0,62.6-35.1,122.1-135.1,122.1C55.4,426.9-2.5,370,.1,293.1Z" transform="translate(-0.01576 981.5)" style="fill:#006cc4"/><polygon points="661.784 1408.4 552.484 1408.4 536.884 1005.1 651.784 1148.5 661.784 1408.4" style="fill:#006cc4"/><polygon points="391.984 1408.4 282.584 1408.4 266.984 1005.1 376.384 1005.1 391.984 1408.4" style="fill:#006cc4"/><polygon points="1152.084 1408.4 1039.284 1408.4 809.084 1079.4 869.884 1005.1 1152.084 1408.4" style="fill:#006cc4"/><polygon points="898.084 1388.1 799.484 1408.4 574.284 1086.6 536.884 1005.1 630.184 1005.1 898.084 1388.1" style="fill:#006cc4"/><polygon points="661.784 1408.4 544.084 1408.4 281.584 1033.2 379.884 1005.1 649.584 1390.2 661.784 1408.4" style="fill:#006cc4"/><rect x="310.58424" y="1268.39999" width="238.80002" height="84" style="fill:#006cc4"/><polygon points="898.884 1408.4 799.484 1408.4 788.484 1382.2 773.884 1005.1 869.884 1005.1 885.684 1067.7 898.884 1408.4" style="fill:#006cc4"/><path d="M1219.7,353.1c-9.4-16.8-15.1-46,11.4-89.4,27-44.1,54.9-53.4,73.6-53.4a48.999,48.999,0,0,1,19.5,3.8l133.6-190.7h-565.3L1117.7,345l.80005,1.9,56.5,79.9,2-2.8,46-65.6C1221.9,356.7,1220.7,355,1219.7,353.1Z" transform="translate(-0.01576 981.5)" style="fill:#006cc4"/><path d="M1831.7,95.8c8,6.8,89.6-58.6,87.30005-89.3C1916.4-28.1,1819.30005,85.3,1831.7,95.8Z" transform="translate(-0.01576 981.5)" style="fill:#ff003d"/><path d="M1903.30005,193.7c-8.69995-8.9-36.80005,34.2-65.80005,29.4-15.19995-2.5-13.69995-17.3-12.4-23.6a4.41735,4.41735,0,0,1,3.4-3.3c29.80005-6.2,82.6-64.5,64.69995-85.3-16.69995-19.5-63.9,10.9-80.30005,32.1-19.6,25.3-37.9,60.3-52.8,78.3-29.30005,35.5-25.80005,1.6-20.80005-8.9,10.5-22.3,19.2-65.3,5.30005-74.4-12.1-7.9-30.6,15.3-36.9,24.4-15.69995,22.8-27.5,18-20.30005-1.3,9.4-25,20.9-60.8,6.5-65.8-19.69995-6.8-42.6,63.8-49,87.6-6,22.6-38.19995,105-58.4,92.8-13.1-8,.6-44.4,6.6-57.6,13.7-29.7,17.1-43,7-47.1-22.1-9-51.69995,64-60.3,78.6-14.80005,25.3-42.2,56.4-43.5,26.1-1.30005-30.2,46.5-68.2,28-82.5-18.4-14.3-49.5,49.5-49.5,49.5-19.1,43.5-28.2,34.8-28.2,34.8-2.69995-45.9-21.1-73.2-43.4-73.2-22.5,0-41.7,25-50.30005,53.1-3.9,18.7-20.30005,54.2-54.1,74.4-18.7,11.1-56.30005,15.4-41.2-26.7,0,0,13-32.5,35.1-23.7,17.1,6.8,43.69995-46,27.3-55.8,0,0-39-21-79,44.5-42.4,69.4,2.7,101.3,26.4,101.1,28.1-.3,67.1-47.1,72.69995-55.1,3.9-5.5,9.5-11.5,12.1-4.5,10.8,29.7,30.5,36,44.8,35.5,21.7-.6,30.7-22.7,40.6-34.5,9.1-10.8,35.5-40.1,36.1-20.9.8,28.9,40.9,44.5,55,13.9,12.9-28.2,25-24,27.1-11.7,4.5,26.9,21.19995,21.8,21.19995,21.8,25.1,0,53-52.2,62.9-73.9,8.4-18.5,13.6-9.2,12.5,6.2-2.1,28.9-11.9,57-16.5,77.4-5.4,23.7,3.6,58.9,20,58.9,11.80005,0,15.69995-64.4,14.19995-82.6,0-20.1,23.5-15.7,40.19995-17.1,27.1-2.3,44.9-25.8,68.80005-59a2.80958,2.80958,0,0,1,4.9.7c10.1,31.2,29.80005,33.1,43.30005,30.9C1865.2,251.3,1908.9,199.4,1903.30005,193.7Zm-41.9-59.9c7.5,9.2-19.6,44.5-31.9,37.2C1819.9,165.3,1854.6,125.4,1861.4,133.8ZM1405.9,317c-16.19995,13.1-28.19995.1-28.19995-13.5.1-11.9-2.80005-28.9,9.5-44.2,10.19995-12.7,21-16.9,20.3-3-.4,8.3-2.1,15.8,4.9,29.7C1421.30005,303.1,1417.6,307.5,1405.9,317Zm306.9-91.5c-7.19995,14.5-13,22.7-22.6,20.3-6.5-1.6-6.2-15.2.19995-30.1,7.80005-18,18.9-31.2,25.1-28.5S1722.7,205.7,1712.80005,225.5Z" transform="translate(-0.01576 981.5)" style="fill:#ff003d"/><line x1="91.48424" x2="444.68425" style="fill:none"/></svg>