<svg id="Layer_1" data-name="Layer 1" xmlns="http://www.w3.org/2000/svg" viewBox="0 0 3839.00024 623.36813"><path id="yellow" d="M508.5,447.5c160.7,0,182.1,69.4,182.1,94.2,0,29.1-45.4,81.6-182.1,81.6-141.4,0-175.8-59.2-175.8-81.6C332.7,518.1,344.7,447.5,508.5,447.5Z" transform="translate(0 0.06814)" style="fill:#fddb00;fill-rule:evenodd"/><path id="green" d="M169.5,284.3c160.7,0,175.8,76.8,175.8,94.2s-32.8,81.6-169.5,81.6C34.4,460.1,0,395.8,0,378.4S5.7,284.3,169.5,284.3Z" transform="translate(0 0.06814)" style="fill:#73b744;fill-rule:evenodd"/><path id="red" d="M552.5,328.2s2.6-140.2,131.8-157,183.8,91.1,188.3,113c41.9,203.5-144.4,213.8-144.4,213.5C716.5,318.9,552.5,328.2,552.5,328.2Z" transform="translate(0 0.06814)" style="fill:#e11f26;fill-rule:evenodd"/><path id="blue" d="M226,158.7s2.6-140.2,131.8-157,183.8,91.1,188.3,113C588,318.3,401.8,328.6,401.8,328.2,390,149.4,226,158.7,226,158.7Z" transform="translate(0 0.06814)" style="fill:#25a4dd;fill-rule:evenodd"/><g id="data"><path d="M2048.2,369.3v32.6h132.6001v60.9H2048.2v32.6h158V369.3h-158Zm-324.7,56.5h111.6c0,12.3-2.2,16.7-13,16.7h-43.5v12.3c0,5.8-1.4,11.6-15.2,11.6h-31.9v29h34.80005c16.69995,0,29-11.6,29-26.8v-2.2h26.80005c18.8,0,32.6-13.8,32.6-34.1V399h-131.2v26.8ZM1872,395.3l158,17.4V384.4L1872,367Zm0,41.4,158,17.4V426.6l-158-17.4Zm0,41.3,158,17.4V467.1l-158-17.4Zm-785.6-63.8V401.9h0V369.3H955.2v32.6h107.3v12.3c0,29.7-26.80005,47.1-71.7,49.3H950.2v32.6h44.2c28.3,0,50.7-11.6,66-26.8l18.1,26.8h38.4L1077,446.8C1082.80005,435.9,1086.4,424.3,1086.4,414.2Zm1137.1-12.3h96.3999V369.3H2223.5Zm135.6001,7.2c0,42.8-21,53.6-55.80005,53.6H2223.6001v32.6h89.1001c47.8,0,68.10009-31.2,68.10009-68.1V368.5h-21.7v40.6ZM1273.4,417.1c0,27.5-11.6,46.4-52.19995,46.4v32.6c69.6,0,75.4-44.2,75.4-73.9V369.3h-23.9l.69995,47.8Zm68.1,0V369.3h-24.6v52.9c0,29,8,73.9,77.5,73.9V463.5C1353.1,462.7,1341.5,444.6,1341.5,417.1Zm215.30005-15.2h127.6v20.3c0,33.3-21.69995,40.6-68.1,40.6h-50v32.6h69.6c34.1,0,71.7-27.5,71.7-69.6V401.2h0V368.6H1556.1v33.3h.70007ZM1104.5,446.1H1219V417.8H1104.5Zm295,0H1514.7V417.8H1399.5Zm-2.9-56.6a23.9,23.9,0,1,1-23.9-23.9A23.64583,23.64583,0,0,1,1396.6,389.5Zm-13,0a10.9,10.9,0,1,0-10.9,10.9C1378.5,399.7,1383.6,395.3,1383.6,389.5ZM2404,373.6h7.2v20.3h5.1001V373.6h7.2v-4.3h-20.3v4.3Zm37.7,15.2h0l-4.30005-19.6h-8v24.6H2434.5v-21h0l4.3,21h5.1001l4.30005-21h0v21h5.10009V369.2h-7.2ZM1000.9,233.7h81.2c29.69995,0,30.4,44.2,0,44.2H960.3v32.6h157.3c63.1,0,63.8-105.8-2.9-105.8h-81.9c-32.6,0-32.6-40.6,0-40.6h116.7V131.5h-149.3C930.6,131.5,932.8,233.7,1000.9,233.7Zm185.5-102.2V244.6c0,41.3,29.7,65.2,60.9,65.2H1383.6001V131.5h-50.7V277.2h-59.4c-26.1,0-39.1-20.3-39.1-36.2V131.5Zm361.7,112.4h-80.4v65.2H1417V127.9h131.1C1638.7,127.9,1642.30005,243.9,1548.1,243.9Zm-16.7-83.4h-63.8v55.1h63.8C1572,214.9,1571.30005,160.5,1531.4,160.5ZM1825.7,273.6H1727.8999c-25.4,0-36.19995-30.4-33.3-40.6h131.9V200.4h-131.9c-2.9-10.9,7.19995-40.6,32.6-40.6h98.6V127.2h-108c-103.6,0-102.9,181.9,0,181.9h108V273.6ZM2292.3999,160.5h87.7V127.9H2272.7998c-43.5,0-79,28.3-79,73.2h0V310.5h50.7V236.6h135.5V200.4H2245.19971C2245.30005,172.1,2261.2,160.5,2292.3999,160.5Zm813.90015-32.6c-106.5,0-119.6001,181.9,12.30005,181.9h90.6001V273.6h-91.30005c-50.69995,0-50.69995-113.8,0-113.8h91.30005V127.2l-102.90015.7Zm-276.1001,0H2639.6001V309.8h50.69995v-150h55.1001v150h47.10009v-150h14.5c25.39991,0,47.80005,11.6,47.80005,41.3V309.8h50.69995V192.4C2906.30005,148.2,2879.3999,127.9,2830.2,127.9ZM2938.8999,309.8H2994V127.9h-55.1001Zm518.2002-90.6c0,50-29.7,94.9-116.7,94.9s-116.69995-44.9-116.69995-94.9c0-51.5,31.19995-91.3,116.69995-91.3C3425.8999,127.9,3457.1001,167.8,3457.1001,219.2ZM3402.7,218.5c0-47.8-18.1001-62.3-62.30005-62.3s-62.3,13.8-62.3,62.3c0,45.7,17.39991,62.3,62.3,62.3S3402.7,264.2,3402.7,218.5ZM2606.2,212v97.8h-142c-81.8999,0-84.1001-112.3-.7-112.3h88.3999c0-11.6-11.6001-37-42.8-37H2412.7V127.9h113.8C2570,128.6,2606.2,151.8,2606.2,212Zm-54.30005,17.4H2478.7c-29.7,0-29,44.2,0,44.2h73.19995V229.4ZM1909.7,309.8h-51.5V127.9H1990.8999c92,0,100.7,92,26.80005,110.2l58,72.5h-60.2l-46.4-68.9h-58.7L1909.7,309.8Zm0-102.2h73.9c32.6,0,33.3-47.8,0-47.8h-73.9Zm1767.7-79.7H3486.80005V309.8h50.7v-150h55.1001v150h47.1001v-150h14.5c25.3999,0,47.8,11.6,47.8,41.3V309.8h50.7V192.4C3753.5,148.2,3727.3999,127.9,3677.3999,127.9Zm101.40015,5.1H3788.2v24.6h6.5V133h9.3999v-5.1H3778.7l.1001,5.1Zm50.80005-5.8L3824.5,151.1h0l-5.8-23.9h-9.3999v30.4h5.80005V132.2h0l5.8,25.4h6.5l5.80005-25.4h0v25.4h5.8V127.2Z" transform="translate(0 0.06814)" style="fill:#fff"/></g></svg>