<svg id="Layer_1" data-name="Layer 1" xmlns="http://www.w3.org/2000/svg" viewBox="0 0 3839.00024 1015.40002"><path d="M2529,88.5a126.96751,126.96751,0,0,0-242,0l-42.8,126.8V7.3H2020c-39.80005,0-76.69995,16.3-104.69995,42.8V7.3h-230c-42.80005,0-81.1,17.7-109.19995,47.1V7.3h-218.2c-92.9,0-169.6,76.7-169.6,169.6a167.58363,167.58363,0,0,0,45.80005,115h-45.80005V489.5h218.19995c61.9,0,115-32.5,146-82.6,25.1,48.6,75.2,82.6,134.2,82.6h231.5V446.7c26.5,26.5,63.4,42.8,104.69995,42.8h639.9Z" transform="translate(0 0)" style="fill:#fff"/><path d="M1407,327.3H1222.6v57.6H1407c35.4,0,64.9-29.5,64.9-64.9s-29.5-64.9-64.9-64.9h-47.19995c-42.80005,0-78.19995-35.4-78.19995-78.2s35.4-78.2,78.19995-78.2h182.9V41.3h-184.4a135.65,135.65,0,0,0-.1,271.3h47.1c4.5,0,7.30005,3,7.30005,7.3C1412.80005,324.3,1409.80005,327.3,1407,327.3Z" transform="translate(0 0)" style="fill:#034693"/><path d="M1358.2,171.1h184.4V112H1358.2c-35.4,0-64.9,29.5-64.9,64.9s29.5,64.9,64.9,64.9h47.1c42.80005,0,78.2,35.4,78.2,78.2s-35.4,78.2-78.2,78.2H1222.6v57.6H1407a135.7,135.7,0,0,0,0-271.4h-47.19995c-4.5,0-7.30005-3-7.30005-7.3A6.25707,6.25707,0,0,1,1358.2,171.1Z" transform="translate(0 0)" style="fill:#034693"/><path d="M2020.30005,112c-25.1,0-44.30005,19.2-44.30005,44.3V340.7c0,25.1,19.19995,44.3,44.30005,44.3h119.5V255.1h-91.3999v57.6h33.8999V326h-33.8999a13.35856,13.35856,0,0,1-13.3-13.3V182.9a13.35856,13.35856,0,0,1,13.3-13.3H2212V112Z" transform="translate(0 0)" style="fill:#034693"/><path d="M2383,384.9h134.2l-91.3999-271.4c-3-7.3-8.8-13.3-17.69995-13.3-7.30005,0-14.80005,6-17.7,11.8l-118,343.5h67.8999l41.30005-122.4v51.6h1.5l-.1001.2ZM2406.6001,261l19.19995,59.1H2386Z" transform="translate(0 0)" style="fill:#034693"/><path d="M2496.5,101.7c-11.8-38.3-47.1001-67.9-89.8999-67.9s-78.2,28-88.5,66.4l-107.7,315.6V184.4h-162.3V242h106.19995V398.3H2021.6001a57.612,57.612,0,0,1-57.6-57.6V156.3a57.612,57.612,0,0,1,57.6-57.6h190.19995V41.3H2020.1001a115.14464,115.14464,0,0,0-115,115V340.7a115.14464,115.14464,0,0,0,115,115h237.5l119.5-346.4a32.79208,32.79208,0,0,1,62,0L2536.5,398.4H2383.2V456h233Z" transform="translate(0 0)" style="fill:#034693"/><path d="M1685.5,398.1a57.612,57.612,0,0,1-57.6-57.6V156.3a57.612,57.612,0,0,1,57.6-57.6h197.6V41.3H1685.5a115.14464,115.14464,0,0,0-115,115V340.7a115.14465,115.14465,0,0,0,115,115h197.6V398.3l-197.6-.2Z" transform="translate(0 0)" style="fill:#034693"/><path d="M1698.80005,314.1h143V256.5h-200.6V342c0,25.1,19.19995,44.3,44.3,44.3h197.6V328.7H1712C1704.7,327.3,1698.80005,321.3,1698.80005,314.1Z" transform="translate(0 0)" style="fill:#034693"/><path d="M1841.80005,184.4h-143a13.35856,13.35856,0,0,1,13.30005-13.3h169.6V112h-196.1c-25.1,0-44.30005,19.2-44.30005,44.3v85.6h200.6C1841.80005,241.9,1841.80005,184.4,1841.80005,184.4Z" transform="translate(0 0)" style="fill:#034693"/><rect x="1232" y="763.70001" width="179.09998" height="78.09998" style="fill:red"/><polygon points="1713.1 937.3 1713.1 662.9 1713.1 584.8 1515.2 584.8 1515.2 662.9 1616.4 662.9 1616.4 937.3 1487.4 937.3 1487.4 1015.3 1830.6 1015.3 1830.6 937.3 1713.1 937.3" style="fill:red"/><path d="M716,937.3V662.9h468.4v-78.1H685.8a66.57715,66.57715,0,0,0-66.6,66.6v297.4a66.57715,66.57715,0,0,0,66.6,66.6h498.6V763.7H881v78.1H1087.7v95.5Z" transform="translate(0 0)" style="fill:red"/><path d="M1884.7,651.4v297.4a66.57719,66.57719,0,0,0,66.6,66.6H2433.5a66.57721,66.57721,0,0,0,66.6001-66.6V651.4a66.57722,66.57722,0,0,0-66.6001-66.6H1951.30005A66.57714,66.57714,0,0,0,1884.7,651.4ZM1981.5,937.3V662.9h421.8v274.4H1981.5Z" transform="translate(0 0)" style="fill:red"/><path d="M2554.1001,651.4v297.4a66.57721,66.57721,0,0,0,66.6001,66.6h482.19995a66.5772,66.5772,0,0,0,66.60009-66.6V651.4a66.57721,66.57721,0,0,0-66.60009-66.6H2620.7002A66.577,66.577,0,0,0,2554.1001,651.4Zm96.7998,285.9V662.9H3072.7v274.4H2650.8999Z" transform="translate(0 0)" style="fill:red"/><path d="M3223.6001,651.4v297.4a66.57721,66.57721,0,0,0,66.6001,66.6h482.19995a66.5772,66.5772,0,0,0,66.60009-66.6V651.4a66.57721,66.57721,0,0,0-66.60009-66.6H3290.2002A66.577,66.577,0,0,0,3223.6001,651.4Zm96.7998,285.9V662.9H3742.2v274.4H3320.3999Z" transform="translate(0 0)" style="fill:red"/><path d="M498.6,763.7H96.8V662.9H565.2v-78.1H66.6A66.57709,66.57709,0,0,0,0,651.4V775.2a66.57717,66.57717,0,0,0,66.6,66.6H468.4v95.5H0v78.1H498.6a66.57715,66.57715,0,0,0,66.6-66.6V830.3A66.70547,66.70547,0,0,0,498.6,763.7Z" transform="translate(0 0)" style="fill:red"/></svg>