<svg id="Layer_1" data-name="Layer 1" xmlns="http://www.w3.org/2000/svg" viewBox="0 0 3839.97703 1355.99288"><path d="M826.3,1024.9,802,899.3l-56.1,125.50006h80.4M1706.9,1343.7H1574.1l-17.7-400.1-172.69995,400.1h-88.6l-73.9-361.7-115.1,361.7H880.2l-34-193.4H692.7l-87.1,193.4H466.9L751.8,697.1H915.7l87.1,522.6,169.8-522.6H1304l64.9,354.29992,150.6-354.3h159.4l28,646.6" transform="translate(-0.003 0.02835)" style="fill:#cbcbca"/><polyline points="2087.797 1343.728 2109.997 1205.028 1878.197 1205.028 1896.597 1089.828 2098.197 1089.828 2120.297 951.028 1916.597 951.028 1934.297 835.928 2166.097 835.928 2188.197 697.128 1820.597 697.128 1717.297 1343.728 2087.797 1343.728" style="fill:#cbcbca"/><polyline points="3813.597 697.128 3658.597 697.128 3527.197 908.228 3444.497 697.128 3292.497 697.128 3448.997 1038.128 3400.797 1343.728 3533.597 1343.728 3574.397 1073.628 3813.597 697.128" style="fill:#cbcbca"/><path d="M3024.7,1220.6c70.3,31.5,156.3-30.2,192.1001-137.80005,35.80005-107.6,8-220.3-62.3-251.7s-156.3,30.3-192.1001,137.8C2926.5,1076.5,2954.5,1189.2,3024.7,1220.6M2823.6001,964.8c41.19995-178.7,194-296.1,341.3-262,147.2,34,233.10009,206.5,191.8999,385.2-41.3,178.80005-194.1001,296.1-341.3,262.1-147.2-34.1-233.1001-206.5-191.8999-385.3" transform="translate(-0.003 0.02835)" style="fill:#cbcbca"/><path d="M183.4,754.7C56.9,833-4,952.5,12.2,1114.9c18.8,188.4,262.8,307.1,469.4,187.5,18.1-10.5,11-8.8,17.7-14.8l41.3-262.70008H294.2l-18.9,121h103l-11.8,65c-59,23.7-159.4,14.80005-202.3-62-27.1-48.6-52.2-157.1,62-256.9,93-81.2,253.9-95.9,346.9-53.1,0,0,11.8-68,20.7-131.5C415.2,645.5,276.4,697.1,183.4,754.7" transform="translate(-0.003 0.02835)" style="fill:#cbcbca"/><path d="M2390.3999,700.8l-102.6001,641.7h298.89991c123.10009,0,303-181.4,139.2-329.7,168.5-174.3,1.5-310.6-87.8999-312-71.80005-1.2-249.1001,0-249.1001,0h1.50024M2463.7,1089H2575c105.5,0,102.6001,128.9-14.6001,128.9H2443.2l20.5-128.9m41-252h86.3999c93.8,0,74.69995,120.2-14.7,120.2h-92.3L2504.7,837" transform="translate(-0.003 0.02835)" style="fill:#cbcbca"/><path d="M1498.1,735.7c-2-21.4,18.9-37.4,32.19995-53.9,70.9-88.3,143.5-174.7,218.6-259.1,5.1-5.8-1.6-14.4-8.5-10.9-77.5,40.2-154.6,83.6-235.3,118-41.80005,16.9-86.80005,46.9-128.30005,14.4a11.97606,11.97606,0,0,1-1.19995-1.1c-30.30005-32.4-21.80005-55.1-6.6-84.9a7.00958,7.00958,0,0,0-9.7-9.3c-98.1,56.5-199,109.3-304.9,151.2-16.3,6.5-33.4,8.5-49.9,4-11-3-20.3-10.3-26.8-19.7-14.9-21.9-32.4-45.1-16.5-71,51.4-90.9,138.2-155.9,215.7-223.7,32-26.7,65.4-51.9,97.80005-78,6.1-4.9,9.1-3.8,13.1,2.3,10,14.9,20.4,29.5,30.7,44.2a6.88122,6.88122,0,0,1-1.6,9.6c-71,51.9-138.4,108.9-205,166.3-28.5,26.4-57.8,53.5-83.19995,82.7-10.1,27.4,21.1,11.4,33.6,7,180.1-67.6,343-174,494-291.9,8-3.9,17-21.9,25.2-10,8.8,13.1,18,26,27.1,38.9a15.16555,15.16555,0,0,1-2.1,19.9c-65.30005,61.2-128,128.4-177.7,202.9-8.19995,22.6,39.4,2,43.1-.1,152.1-78.6,290.4-181.4,443.4-258,15.4-7.5,20.1-5.6,30.5,8.3,7.2,9.5,14,19.2,20.9,28.9a15.90462,15.90462,0,0,1-1.5,20.4c-36.6,38.2-72.5,77.2-107.80005,116.6-5.3,6,1.9,14.8,8.80005,10.6,111.9-68,231.6001-123.5,360.80005-149.7,29.6001-6.9,57.7,16.2,66.5,41.6,17.3,50.4-28,82.9-62.1001,115.3-109.3,100.7-289.9,243.1-435.6,132.9-3.4-2.9-6.69995-5.6-11.4-1.6-37.19995,32.1-74.8,63.7-111.5,96.4-42.3,38.6-80,82.1-118.5,124.6C1540.9,788.6,1499.1,745.8,1498.1,735.7Zm697.20007-372c6.3999-6.8,13.1001-13.3,19.30005-20.3,4.5-5.1-.2-13.1-6.7-11.6-162,38.7-351.5,164-355.19995,166.6a7.03015,7.03015,0,0,0,1.19995,12.1C1973.7,565,2110.7,440,2195,364.1A1.38091,1.38091,0,0,0,2195.30005,363.7Z" transform="translate(-0.003 0.02835)" style="fill:#30308f"/><path d="M3835.3999,514.9c-3.5-8.3-7.19995-15.4-17.69995-18.2-77.8999-20.1-126.2-31.1-237.3999-32.7-151.8999-2.1-303,8-453.5,27.9-25.19995,3.3-44.5-22-34.5-45.4,7.2-16.8,14.5-33.5,21.80005-50.8,7.5-14.9,8.19995-29.8,6.8999-45.1a66.27564,66.27564,0,0,0-13.6001-34.6c-21.69995-28.4-47.3-53.6-68.5-82.4A32.48117,32.48117,0,0,1,3033.7,205.2c3.3-11.1,8.8-22.2,9.69995-33.2C3056,85.8,2910.2,62.6,2931.7,161.6c6.8999,38.7,46.69995,56.3,24.8999,70.8-141.30005,118.5-447,366.4-636.80005,326.4-14.8-.9-18.3999-14.4-16.60009-27.2,2.30005-15.7,40.7-69.2,51.30005-65.1,96.19995,28.7,195.8-20.8,276.60009-70.2,38.6001-24.4,74.5-52.4,109.39991-81.8,10.3-8.6,10.3999-20.7,9.69995-32.5-3.3-55.7-52.8-77.6-103-68.1-109.8,11.8-448.69995,213.3-400.19995,354.4,7.10009,20.6,24.3,36,45,42.7,212.10009,69.2,547.5-222.4,695.69995-348.2,7-9.9,17.7,16.6,23.2,21.3,10.6001,18.6,49.1001,50.6,43.7,70.2-15.6001,55.3-53.3999,103.2-66.7,159.4-3.1001,22.6,15.5,49.4,29.5,57.4,6.8999,4,20.8,4.8,31.8,3.2,57.30005-8.2,114.5-16.7,171.8999-24.2,108.6001-12.4,221.8999-20.7,327.8-18.5,46.2,1,170.2-1.2,170.2,24.2,0,18.5-3.6001,23.2,18.1001,21.5,29.2-1.9,58.3999-5.3,87.7-5.3C3849.1001,572.2,3837.3999,519.8,3835.3999,514.9ZM2679.1001,265.8h0c12.8-.4,18.3999,16.1,7.8999,23.5-69.2,48.3-188.1001,152.1-296.8999,129.8C2439.7,363.5,2597.3999,269.7,2679.1001,265.8Z" transform="translate(-0.003 0.02835)" style="fill:#30308f"/><path d="M523.9,330.8c-25-9.4-46.7-26.9-58.9-50.7-35.1-68.3,1.3-124.9,86.6-148.6C731.4,71.7,965.5-15.1,1147.2,65.5c14.9,6.6,27.6,17.7,35.30005,32,45.9,85.6-37,161-138.5,177.3A18.37245,18.37245,0,0,1,1025.2,265.5c-14.4-25.7-15-53.5-3.3-62.1,24.4-17.9,82.9-23.9,115.7-48.7a7.75378,7.75378,0,0,0,1.1-11.4c-92.4-105.5-478.7,23.8-626,88-60.1,40.2,268.3,93.6,311.9,112,61.2,25.9,122.2,80.7,95.7,144.1-41.4,99.1-273.6,109.8-394.3,126.3-128.7,17.6-258.4,26.7-387.9,37.4C71.7,662-21.1,670.9,10,577.5A29.163,29.163,0,0,1,20.6,563c28.9-20.7,80.5-13,101.4,11.1,192.4-12.2,384.7-33.9,574.5-67.6C1096.6,441.9,688.9,392.9,523.9,330.8Z" transform="translate(-0.003 0.02835)" style="fill:#30308f"/><path d="M1494.30005,702.8c-2-21.4,18.9-37.4,32.19995-53.9,70.9-88.3,143.5-174.7,218.6-259.1,5.1-5.8-1.6-14.4-8.5-10.9-77.5,40.2-154.6,83.6-235.30005,118-41.8,16.9-86.8,46.9-128.3,14.4a11.96969,11.96969,0,0,1-1.2-1.1c-30.3-32.4-21.8-55.1-6.6-84.9A7.00957,7.00957,0,0,0,1355.5,416c-98.1,56.5-199,109.3-304.9,151.2-16.30005,6.5-33.4,8.5-49.9,4-11-3-20.3-10.3-26.8-19.7-14.9-21.9-32.4-45.1-16.5-71,51.4-90.9,138.2-155.9,215.7-223.7,32-26.7,65.4-51.9,97.8-78,6.1-4.9,9.1-3.8,13.1,2.3,10,14.9,20.4,29.5,30.69995,44.2a6.88121,6.88121,0,0,1-1.6,9.6c-71,51.9-138.4,108.9-205,166.3-28.5,26.4-57.80005,53.5-83.2,82.7-10.1,27.4,21.1,11.4,33.6,7,180.1-67.6,343-174,494-291.9,8-3.9,17-21.9,25.19995-10,8.80005,13.1,18,26,27.1,38.9a15.16557,15.16557,0,0,1-2.1,19.9C1537.3999,309,1474.7,376.2,1425,450.7c-8.19995,22.6,39.4,2,43.1-.1,152.1-78.6,290.4-181.4,443.4-258,15.4-7.5,20.1-5.6,30.5,8.3,7.19995,9.5,14,19.2,20.9,28.9a15.90461,15.90461,0,0,1-1.5,20.4c-36.6,38.2-72.5,77.2-107.8,116.6-5.30005,6,1.9,14.8,8.8,10.6,111.9-68,231.6-123.5,360.79993-149.7,29.6001-6.9,57.69995,16.2,66.5,41.6,17.3,50.4-28,82.9-62.1001,115.3-109.30005,100.7-289.9,243.1-435.6,132.9-3.4-2.9-6.7-5.6-11.4-1.6-37.2,32.1-74.80005,63.7-111.5,96.4-42.30005,38.6-80,82.1-118.5,124.6C1537.1,755.7,1495.2,712.9,1494.30005,702.8ZM2191.5,330.8c6.3999-6.8,13.1001-13.3,19.3-20.3,4.5-5.1-.19995-13.1-6.69995-11.6-162,38.7-351.5,164-355.2,166.6a7.03016,7.03016,0,0,0,1.2,12.1c119.8,54.5,256.8-70.5,341.1001-146.4A1.38483,1.38483,0,0,0,2191.5,330.8Z" transform="translate(-0.003 0.02835)" style="fill:#ea2427"/><path d="M3831.5,482.1c-3.5-8.3-7.2-15.4-17.7-18.2-77.8999-20.1-126.19995-31.1-237.3999-32.7-151.89991-2.1-303,8-453.5,27.9-25.19995,3.3-44.5-22-34.5-45.4,7.2-16.8,14.5-33.5,21.80005-50.8,7.5-14.9,8.19995-29.8,6.8999-45.1A66.27564,66.27564,0,0,0,3103.5,283.2c-21.7-28.4-47.3-53.6-68.5-82.4a32.48117,32.48117,0,0,1-5.2-28.4c3.30005-11.1,8.80005-22.2,9.7-33.2,12.6001-86.2-133.2-109.4-111.7-10.4,6.8999,38.7,46.7,56.3,24.8999,70.8C2811.3999,318.1,2505.7,566,2315.8999,526c-14.8-.9-18.3999-14.4-16.6001-27.2,2.30005-15.7,40.7-69.2,51.30005-65.1,96.19995,28.7,195.8-20.8,276.6001-70.2,38.6001-24.4,74.5-52.4,109.3999-81.8,10.3-8.6,10.39991-20.7,9.69995-32.5-3.3-55.7-52.8-77.6-103-68.1-109.8,11.8-448.69995,213.3-400.19995,354.4,7.1001,20.6,24.3,36,45,42.7,212.1001,69.2,547.5-222.4,695.69995-348.2,7-9.9,17.7,16.6,23.2,21.3,10.60009,18.6,49.10009,50.6,43.69995,70.2-15.6001,55.3-53.39991,103.2-66.69995,159.4-3.1001,22.6,15.5,49.4,29.5,57.4,6.8999,4,20.8,4.8,31.8,3.2,57.30005-8.2,114.5-16.7,171.89991-24.2,108.60009-12.4,221.8999-20.7,327.80005-18.5,46.19995,1,170.19995-1.2,170.19995,24.2,0,18.5-3.6001,23.2,18.10009,21.5,29.2-1.9,58.39991-5.3,87.7-5.3C3845.30005,539.3,3833.6001,486.9,3831.5,482.1Zm-1156.2-249.2h0c12.80005-.4,18.3999,16.1,7.8999,23.5-69.2,48.3-188.1001,152.1-296.8999,129.8C2435.80005,330.6,2593.6001,236.8,2675.30005,232.9Z" transform="translate(-0.003 0.02835)" style="fill:#ea2427"/><path d="M520.1,297.9c-25-9.4-46.7-26.9-58.9-50.7-35.1-68.3,1.3-124.9,86.6-148.6C727.6,38.8,961.7-48,1143.5,32.6c14.9,6.6,27.5,17.6,35.19995,32,46,85.6-36.9,161-138.5,177.3a18.37232,18.37232,0,0,1-18.8-9.3c-14.4-25.7-15-53.5-3.3-62.1,24.4-17.9,82.9-23.9,115.69995-48.7a7.75378,7.75378,0,0,0,1.1-11.4c-92.4-105.5-478.7,23.8-626,88-60.1,40.2,268.3,93.6,311.9,112,61.2,25.9,122.2,80.7,95.7,144.1-41.4,99.1-273.6,109.8-394.3,126.3-128.7,17.6-258.4,26.7-387.9,37.4C67.8,629.1-24.9,638,6.2,544.6a29.163,29.163,0,0,1,10.6-14.5c28.9-20.7,80.5-13,101.4,11.1,192.4-12.2,384.7-33.9,574.5-67.6C1092.80005,409,685.1,360,520.1,297.9Z" transform="translate(-0.003 0.02835)" style="fill:#ec2024"/></svg>