<svg id="Layer_1" data-name="Layer 1" xmlns="http://www.w3.org/2000/svg" viewBox="0 0 3839.00011 808.19995">
  <g>
    <g>
      <path d="M225.9,425.5c-16.4-23.9-37.5-39-66.1-39-27.5,0-53.8,22.7-53.8,53.5,0,79.9,175,46.6,175,205.8,0,95-55,162.4-145.1,162.4-60.9,0-105.3-37.8-135.8-92.5l55.6-58.5c11.7,36.5,42.7,69.2,79.6,69.2,35.1,0,56.8-32.1,56.8-68.6,0-49.1-42.1-62.9-76.7-77.4C58.5,555.1,17,524.3,17,450.7,17,372,71.4,308.5,145.7,308.5c39.2,0,93.6,20.8,120.6,52.9Z" transform="translate(-0.09999 0)" style="fill: #fff"/>
      <path d="M341.2,321h86V586.6c0,58.5,4.7,141,77.8,141,73.2,0,77.8-82.4,77.8-141V321h86V604.8c0,115.8-45.6,203.3-163.9,203.3C386.7,808.1,341,720.6,341,604.8V321Z" transform="translate(-0.09999 0)" style="fill: #fff"/>
      <path d="M833.4,795.5h-86V321h117c92.5,0,152.7,39.6,152.7,147.3,0,100.7-50.9,149.8-141,149.8H833.4Zm0-254.2H851c50.9,0,78.4-12,78.4-73.6,0-61-32.8-69.9-80.8-69.9H833.4Z" transform="translate(-0.09999 0)" style="fill: #fff"/>
      <path d="M1160,401.6V506h137v80.5H1160V715H1302.2v80.5H1074V321H1302.2v80.5H1160Z" transform="translate(-0.09999 0)" style="fill: #fff"/>
      <path d="M1675.6,795.5H1571.4l-107.1-191.3h-1.19995V795.5h-86V321h116.5c87.19995,0,147.5,41.5,147.5,142.9,0,60.4-31,120.8-90.1,131.5ZM1463.2,539.4h11.1c47.4,0,80.80005-15.1,80.80005-73,0-58.5-34.5-69.9-80.2-69.9h-11.69995V539.4Z" transform="translate(-0.09999 0)" style="fill: #fff"/>
      <path d="M1879.9,640.7h1.2L1979.4,321h92.49988l-171.5,487.1h-50.3L1681.5,321H1774Z" transform="translate(-0.09999 0)" style="fill: #fff"/>
      <path d="M2198.8999,795.5h-86V321h86Z" transform="translate(-0.09999 0)" style="fill: #fff"/>
      <path d="M2486.80005,425.5c-16.3999-23.9-37.5-39-66.1001-39-27.5,0-53.80005,22.7-53.80005,53.5,0,79.9,175,46.6,175,205.8,0,95-55,162.4-145.1001,162.4-60.8999,0-105.3-37.8-135.8-92.5l55.60009-58.5c11.69995,36.5,42.69995,69.2,79.6001,69.2,35.1001,0,56.8-32.1,56.8-68.6,0-49.1-42.1001-62.9-76.7-77.4-56.8-25.2-98.3-56-98.3-129.6,0-78.7,54.3999-142.2,128.7-142.2,39.19995,0,93.6001,20.8,120.6001,52.9Z" transform="translate(-0.09999 0)" style="fill: #fff"/>
      <path d="M2690.5,795.5h-86V321h86Z" transform="translate(-0.09999 0)" style="fill: #fff"/>
      <path d="M3246,308.4h62l232.3,331.6h1.2V321h86V804.9h-62L3333.2,473.3H3332V795.5h-86Z" transform="translate(-0.09999 0)" style="fill: #fff"/>
      <path d="M2842.8999,598.4a236.00678,236.00678,0,0,1-4.3-44.5c0-76.8,48-154.2,129.3-154.2S3097.2,477.1,3097.2,553.9a234.42014,234.42014,0,0,1-4.30005,44.5l57.2,104c23.3-40.7,36.1001-90.5,36.1001-144.7,0-141-86.6001-249.2-218.30005-249.2s-218.3,108.2-218.3,249.2c0,54.2,12.8,104,36.1001,144.7Z" transform="translate(-0.09999 0)" style="fill: #fff"/>
      <polygon points="2967.8 465.7 2786.5 795.5 3149.1 795.5 2967.8 465.7" style="fill: #00fffe"/>
    </g>
    <g>
      <path d="M3704.30005,314.4h54.5v10.9h-21.3999v61.4h-11.8V325.3h-21.30005Z" transform="translate(-0.09999 0)" style="fill: #fff"/>
      <path d="M3769.2,314.4h16.6001l18.6001,56.6h.2l18.1001-56.6h16.3999v72.3h-11.2V331h-.19995l-18.7,55.8h-9.69995l-18.7-55.8h-.2v55.8h-11.19995V314.4Z" transform="translate(-0.09999 0)" style="fill: #fff"/>
    </g>
    <g>
      <polygon points="1623.8 0 1545.4 0 1579.7 104.7 1623.8 0" style="fill: #00fffe"/>
      <polyline points="1529.4 182.7 1600 14.9 1610.7 31.2 1605 44.6 1540 199.2" style="fill: #00fffe"/>
      <polyline points="1389.5 230.2 1480 14.9 1490.7 31.2 1407 230.2" style="fill: #00fffe"/>
      <polygon points="1303.1 0 1378.5 230.2 1389.5 230.2 1437 117.2 1398.6 0 1303.1 0" style="fill: #00fffe"/>
      <polygon points="1526.9 230.2 1565.3 139 1519.8 0 1424.2 0 1499.7 230.2 1526.9 230.2" style="fill: #00fffe"/>
      <polygon points="2268.6 25.5 1656.4 25.5 1667.1 0 2268.6 0 2268.6 25.5" style="fill: #00fffe"/>
      <polygon points="2268.6 230.2 1570.3 230.2 1581 204.7 2268.6 204.7 2268.6 230.2" style="fill: #00fffe"/>
      <path d="M1652.5,51H1645.7L1641.5,61l-49.1,118.3h47v-6.8l-11.1-6.2a8.9171,8.9171,0,0,1-4.6-7.9v-3.2H1650.9l12.6,24.1H1722.7Zm-26.1,88,7.30005-17.2,9,17.2Z" transform="translate(-0.09999 0)" style="fill: #00fffe"/>
      <path d="M1882,51H1875.2L1871,61l-49,118.2h47v-6.8l-11.1-6.2a8.91713,8.91713,0,0,1-4.6-7.9v-3.2H1880.5l12.6,24.1h59.19995Zm-26.1,88,7.30005-17.2,9,17.2Z" transform="translate(-0.09999 0)" style="fill: #00fffe"/>
      <path d="M2171.2,51h-6.80005L2160.2,61l-49.1001,118.3h47v-6.8l-11.10009-6.2a8.91744,8.91744,0,0,1-4.6001-7.9v-3.2h27.2l12.6001,24.1h59.2ZM2145,139l7.3-17.2,9,17.2Z" transform="translate(-0.09999 0)" style="fill: #00fffe"/>
      <path d="M1720.80005,51h-16.1V95.1h16.1c0-12.1,7.19995-20,12.6-24.2a17.49063,17.49063,0,0,1,11-3.8h0V179.2H1797V67.1h0a17.49063,17.49063,0,0,1,11,3.8c5.4,4.2,12.6,12.1,12.6,24.2h16.1V51Z" transform="translate(-0.09999 0)" style="fill: #00fffe"/>
      <path d="M2065.30005,104.7h-3c14.80005,0,26.8999-4.5,26.8999-26.9h0c0-22.4-12-26.9-26.8999-26.9h-94.3999V179.1h52.6V112.7h16.1v66.4h59.1001V144.2C2095.6001,127.5,2082.1001,104.7,2065.30005,104.7Zm-44.9-37.6h16.1V96.7h-16.1Z" transform="translate(-0.09999 0)" style="fill: #00fffe"/>
      <path d="M2256,54h21.6001a16.77863,16.77863,0,0,1,11.3,3.8c3.5,2.9,5.30005,6.9,5.5,12.2-.1001,7.8-3.69995,13-10.69995,15.8l12.8,25.4h-10l-11.5-24.4h-10.69995v24.4h-8.3999V54Zm8.3999,25h12.7c3.1001-.1,5.5-1,7.1001-2.8a9.21651,9.21651,0,0,0,2.3-6.3c-.1001-3-1-5.2-2.8-6.5-1.3999-1.2-3.5-1.8-6.2-1.8h-13.2V79Z" transform="translate(-0.09999 0)" style="fill: #00fffe"/>
      <path d="M2273.30005,42.7a40.5,40.5,0,1,1-40.5,40.5,40.58675,40.58675,0,0,1,40.5-40.5m0-10.6a51.1,51.1,0,1,0,51.1001,51.1,51.128,51.128,0,0,0-51.1001-51.1Z" transform="translate(-0.09999 0)" style="fill: #00fffe"/>
    </g>
  </g>
</svg>
