<svg id="Layer_1" data-name="Layer 1" xmlns="http://www.w3.org/2000/svg" viewBox="0 0 3839 2253.98978"><path d="M1401.6,8.7h83.3c19.1,0,41.6,17.8,51.7,27.6l146.19995,162.2V8.7h49.7v259h-87a65.08493,65.08493,0,0,1-48.30005-21.1L1451.1,84V267.6h-49.5Z" transform="translate(0 -0.01022)" style="fill:#65b7ff"/><path d="M2437.3999,269.2a820.9639,820.9639,0,0,1-180,3.9,264.4921,264.4921,0,0,1-101.6001-27c-40-20.7-52.8-67.3-52.19995-109.6.39991-39,12-80.6,46.8-103.3,22.80005-14.9,47.2-19.9,73.1001-24.6,70.7-12.5,141.3999-9.7,210.3999-2.1V43.4C2352.59985,27.6,2266.7,31.6,2237.5,68.9a100.417,100.417,0,0,0-20.8,65.9c0,35.1,12,88.3,83.3,98.6,46.5,6.9,92.5,1.7,137.1001-6.5Z" transform="translate(0 -0.01022)" style="fill:#65b7ff"/><path d="M1928.2,229.1c7.19995,0,119.1.6,157.69995,0v38.7c-77.6,3-152,4.3-230.3,1.1-66.30005-2.7-77.80005-36.1-79.4-68.3V8.7h305.6V45.5h-197.5v65.9h180.39991v36.1h-180.4c0,19.5.6,41.6.9,45.6,1.1,25,12.69995,34.3,43.3,36.1" transform="translate(0 -0.01022)" style="fill:#65b7ff"/><polygon points="516.2 392.39 224.5 392.49 0 616.89 0 989.69 224.5 1214.09 346.8 1213.99 346.8 933.59 280.4 933.59 280.4 672.79 460.3 672.79 460.3 825.39 740.7 825.39 740.7 616.89 516.2 392.39" style="fill:#65b7ff"/><polygon points="393.9 933.59 393.9 1213.99 460.3 1213.99 460.3 1474.79 280.4 1474.79 280.4 1306.59 0 1306.59 0 1530.69 224.5 1755.09 516.2 1755.09 740.7 1530.69 740.7 1158.09 516.2 933.59 393.9 933.59" style="fill:#65b7ff"/><polygon points="1161.8 1474.79 1095.4 1474.79 1095.4 392.39 815 392.39 815 1530.69 1039.5 1755.09 1161.8 1755.09 1161.8 1474.79" style="fill:#65b7ff"/><polygon points="1275.3 392.39 1275.3 1474.79 1208.9 1474.79 1208.9 1755.09 1331.2 1755.09 1555.7 1530.69 1555.7 392.39 1275.3 392.39" style="fill:#65b7ff"/><polygon points="3378.7 933.59 3378.7 672.79 3378.7 392.39 3378.7 392.39 3098.3 392.39 3098.3 1755.09 3378.7 1755.09 3378.7 1701.79 3378.7 1213.99 3378.7 933.59" style="fill:#65b7ff"/><polygon points="3614.5 392.39 3561.9 392.39 3523.4 392.39 3425.8 392.39 3425.8 672.79 3558.6 672.79 3558.6 795.19 3558.6 894.19 3558.6 933.59 3425.8 933.59 3425.8 1213.99 3558.6 1213.99 3558.6 1258.49 3558.6 1354.19 3558.6 1745.99 3839 1745.99 3839 1351.19 3839 1258.49 3839 1226.49 3686.2 1073.79 3839 920.99 3839 894.19 3839 796.39 3839 677.99 3839 640.09 3839 616.89 3614.5 392.39" style="fill:#65b7ff"/><rect x="2752.8999" y="933.58976" width="220.19995" height="280.40002" style="fill:#65b7ff"/><polygon points="3020.2 392.39 2705.8 392.39 2705.8 392.39 2425.5 392.39 2425.5 1755.09 2646.7 1755.09 2646.7 1755.09 3020.2 1755.09 3020.2 1474.79 2705.8 1474.79 2705.8 1368.59 2705.8 1213.99 2705.8 933.59 2705.8 880.89 2705.8 672.79 3020.2 672.79 3020.2 392.39" style="fill:#65b7ff"/><polygon points="2142.3 392.39 1953.6 392.39 1953.6 672.79 2086.4 672.79 2086.4 1022.59 1953.6 1022.59 1953.6 1302.99 2142.3 1302.99 2366.8 1078.49 2366.8 616.89 2142.3 392.39" style="fill:#65b7ff"/><polygon points="1906.5 1302.99 1906.5 1022.59 1906.5 672.79 1906.5 392.39 1626.1 392.39 1626.1 1755.09 1906.5 1755.09 1906.5 1302.99" style="fill:#65b7ff"/><path d="M1605.2,2022.7v-61a84.8859,84.8859,0,0,0-84.9-84.9h-404.5V2254h84V2107.7H1365.6L1488.4,2254H1598L1475.2,2107.7h45.1A84.97119,84.97119,0,0,0,1605.2,2022.7ZM1199.80005,2040v-95.69995h321.5V2040Z" transform="translate(0 -0.01022)" style="fill:#65b7ff"/><path d="M1036.7,1944.30005v-67.6H621A85.73949,85.73949,0,0,0,535.3,1962.4V2168.2A85.73941,85.73941,0,0,0,621,2253.8999H1036.7V2040H786v67.6001H952.7v78.69995H619.3v-242Z" transform="translate(0 -0.01022)" style="fill:#65b7ff"/><polygon points="2705.8 1944.29 2705.8 1876.69 2350.4 1876.69 2266.4 1876.69 2266.4 1944.29 2266.4 2253.99 2350.4 2253.99 2350.4 2107.69 2650.7 2107.69 2650.7 2039.99 2350.4 2039.99 2350.4 1944.29 2705.8 1944.29" style="fill:#65b7ff"/><polygon points="3274.5 1876.69 3155.7 1876.69 3013 2019.49 2870.2 1876.69 2751.5 1876.69 2940.1 2065.39 2751.5 2253.99 2870.2 2253.99 3013 2111.19 3155.7 2253.99 3274.5 2253.99 3085.9 2065.39 3274.5 1876.69" style="fill:#65b7ff"/><polygon points="2106.5 2253.99 2200.9 2253.99 2007.5 1876.69 1843.7 1876.69 1650.3 2253.99 1744.7 2253.99 1903.4 1944.29 1947.7 1944.29 2106.5 2253.99" style="fill:#65b7ff"/></svg>