<svg id="Layer_1" data-name="Layer 1" xmlns="http://www.w3.org/2000/svg" viewBox="0 0 3839 873"><path d="M3395,653.4h-40.1001l-8.5-236.1L3839,0H3368.5l-36,30.5-1.2-30.5H2977l8,222.6a143.72105,143.72105,0,0,0-18-25.5,149.74442,149.74442,0,0,0-54.3999-38.6c-24.3999-10.3-53.1001-15.5-85.2-15.5-56.8,0-113.39991,15.9-165.19995,46.3-41-41.3-99-46.3-124.6001-46.3-7.7,0-15.3999.3-22.80005.7a297.529,297.529,0,0,0-37,4.8H2259.2l69.3-122.3H1796.80005L1782.6001,51.3q-7.20008-5.1-15-9.6l-.5-.3c-31.9-18-71.6-27.1-118.2-27.1a358.65938,358.65938,0,0,0-91.9,11.9H1136.80005l-17.1.1H907.1l.1-.1H338.7L163,336.8h80.6L0,766.8H353.2l16.9-.1h411.2v.1h370l25.1-44.3a172.54025,172.54025,0,0,0,37.30005,28.2l.5.3c32.4,18,70.9,26.8,117.6,26.8a360.48154,360.48154,0,0,0,120.30005-20.6l2.1-.8c4.19995-1.6,8.4-3.3,12.6-5L1458,766.9h167.1l-14.6,25.8L1716,842.5c21.6,11,46,19,72.69995,23.8a404.6925,404.6925,0,0,0,74.19995,6.7,454.172,454.172,0,0,0,58.9-3.8h319.4l58.5-103.3c35.19995-3.4,86.8-11.9,140.3-44,1.2-.7,2.3999-1.5,3.7-2.2a153.61129,153.61129,0,0,0,21.3,18c30.6001,21.6,69.3,32.5,114.8,32.5a361.60149,361.60149,0,0,0,53.6001-3.9h300.60009l68.30005-57.9,2.1001,57.9h423.80005l-2.80005-112.9H3395Z" transform="translate(0 0)" style="fill:#fcfcfc"/><polygon points="3351.8 692.8 3344.8 692.8 3344.8 682.4 3366 682.4 3366 692.8 3357.5 692.8 3357.5 737.3 3351.8 737.3 3351.8 692.8" style="fill:#333"/><polygon points="3391.7 716.2 3391.7 693.5 3388.7 715.1 3384.6 736.2 3380.3 736.2 3377.4 715.1 3374.6 693.5 3374.6 716.4 3373.2 737.3 3367.5 737.3 3370.4 682.4 3377.4 682.4 3380.3 700.7 3383.2 720.4 3386 700.4 3388.7 682.4 3397.4 682.4 3398.7 737.3 3393.1 737.3 3391.7 716.2" style="fill:#333"/><path d="M3759.8999,29H3379l-73.5,62.2-2.2-62.2H3007l11,305.7-61,51.7c16.1001-40.8,21.6001-75.5,17.2-106.3-3.6001-25.9-24.80005-108-146.8999-108-59.69995,0-118.5,19.1-171.5,55.6-31.8999-49.9-92.3-55.6-118.3-55.6-7,0-14.1001.2-20.8.7a279.909,279.909,0,0,0-36.80005,5H2451l.1001-.1h-241.7L2278.7002,55.4h-465.1l-23.80005,42a132.312,132.312,0,0,0-36.6-30.3l-.4-.2c-27.5-15.5-62.5-23.3-104-23.3a330.13157,330.13157,0,0,0-88.1,11.9h-424.1v.1H851.6l.1-.1h-496l-143,252.3h80.6L49.7,737.8H353.1v-.1H831v.1h303.4l38.80005-68.5c11.5,23,30.19995,42.3,54.6,56.1l.4.2c28,15.6,61.9,23.1,103.6,23.1a332.46815,332.46815,0,0,0,110.69995-19l1.5-.6a361.70466,361.70466,0,0,0,95.9-53.7c2-1.5,3.9-3.1,5.9-4.7l-37.9,67H1675l-23.69995,41.9L1729,816.3c19.1,9.8,41,17,65.19995,21.3a374.41051,374.41051,0,0,0,69,6.2,422.53112,422.53112,0,0,0,63.5-4.7l-.5.9h298.3999s40.89991-72.1,57.89991-102.2c4-.1,7.8999-.4,11.69995-.7,32.3999-2.9,81.2-10.3,131.2-40.3,8.3999-5,16.5-10.4,24.3-16.1a121.67718,121.67718,0,0,0,32.2,33c25.6001,18.1,58.7,27.2,98.2,27.2a332.75576,332.75576,0,0,0,51.5-3.9h292.1001l105.80005-89.6,3.19995,89.6h296.30005l-12-333.1Z" transform="translate(0 0)" style="fill:#333"/><path d="M2194.30005,249.8,2032.1001,535.7a96.37194,96.37194,0,0,1-25.1,28.8h0c-4.19995-12.9-9.8-30.3-12.69995-35.5l159.4-279.3H2021L1860.30005,534l39,112.1h75.5c-9.69995,14.9-19.5,25.7-30.69995,32.9-12.5,8.1-28,12.2-47.5,12.2a242.10254,242.10254,0,0,1-36.30005-2.8,251.4351,251.4351,0,0,1-39.19995-8.9l-25.2-8.8-43.5,76.9,8.6,4.1c12.7,6.7,28.1,11.8,46.1,15a303.6619,303.6619,0,0,0,56,5c53.1,0,100.69995-11,141.1-33.1,43.4-22.8,76.70008-56.6,102.1-99.8l220.80005-389H2194.30005" transform="translate(0 0)" style="fill:#fcfcfc"/><path d="M2597.80005,271.6c-8.3-18.2-29.3-27.4-60.19995-27.4-5.3999,0-10.80005.2-16,.5A217.20216,217.20216,0,0,0,2472.5,254l-21.3999,6.6,6.1001-10.7h-113.7L2050,768h132.3999s59.8999-105.7,60.3999-106.6c12.6001,4.8,31.2,5.2,44.89991,4,33.30005-3,67-10.2,100.60009-30.3a261.69522,261.69522,0,0,0,83.80005-80.2c12.69995-18.5,23.8-36,33.6001-52.1l32.1001-54.8c11.2-19.5,21-38.7,30.80005-57.1,9.8-19,16.6001-33.8,21-45C2603.3999,314.3,2604.80005,289.4,2597.80005,271.6ZM2428.7,396.2l-28,52.8-37.80005,63.8-25.3,41.2c-1.5,2.4-4.80005,7.6-8.10009,12.8a32.18633,32.18633,0,0,1-27.1001,14.8h-14.6001l137.8999-243.4h13.7a10.7032,10.7032,0,0,1,9.8,15C2443.2,366.8,2434.3999,386.2,2428.7,396.2Z" transform="translate(0 0)" style="fill:#fcfcfc"/><path d="M929.1,127.6,702.8,665.5H563.1l47.5-97h-50.4l-62.9,97H356.2L730.7,127.6H929.1M660.8,473.2c28-60.9,62.9-136.4,107.7-226.2Q659.45,401.8,613.3,473.2Z" transform="translate(0 0)" style="fill:#fcfcfc"/><polygon points="1162.6 127.6 857.9 665.5 719.5 665.5 1024.2 127.6 1162.6 127.6" style="fill:#fcfcfc"/><polygon points="713.3 127.5 638.1 235.5 554.7 235.5 311.1 665.6 173.7 665.6 417.3 235.5 336.6 235.5 397.7 127.5 713.3 127.5" style="fill:#fcfcfc"/><polygon points="2154.8 127.5 2093.6 235.5 2012.7 235.5 1769.1 665.6 1631.7 665.6 1875.3 235.5 1794.7 235.5 1855.8 127.5 2154.8 127.5" style="fill:#fcfcfc"/><path d="M1746.80005,171.9c-2.69995-18.6-12.6-32.7-29.30005-42.3-16.80005-9.5-40.5-14-68.5-14a257.91092,257.91092,0,0,0-86.69995,14.9,280.889,280.889,0,0,0-78.19995,43c-23.7,18.6-43.30005,39.2-57.30005,61.7-15.4,22.5-39.19995,60.8-69.9,114.7l-51.69995,92.3c-30.7,55.3-51.6,94.1-61.4,116.2-11.19995,22.1-14.1,42.8-11.19995,61.6,2.69995,18.9,13.9,32.9,30.69995,42.4,16.80005,9.3,39.19995,14,68.5,14a260.421,260.421,0,0,0,86.69995-14.9c26.5-10,53.1-24.2,76.80005-43,23.69995-18.5,43.30005-39.1,58.69995-61.4,15.4-22.7,37.80005-60.9,68.4-115l51.9-92.3q48.15-82.8,62.80005-116.4C1746.80005,211.4,1751.1,190.9,1746.80005,171.9ZM1609,224.5,1412.30005,570.3A27.79755,27.79755,0,0,1,1374,580.7,9.35816,9.35816,0,0,1,1370.7,568.1l196.69995-345.8a27.79748,27.79748,0,0,1,38.30005-10.4A9.22012,9.22012,0,0,1,1609,224.5Z" transform="translate(0 0)" style="fill:#fcfcfc"/><polygon points="1478 127.5 1416.8 235.5 1335.9 235.5 1092.3 665.6 954.9 665.6 1198.5 235.5 1117.8 235.5 1178.9 127.5 1478 127.5" style="fill:#fcfcfc"/><polygon points="3405.6 101.2 3084.8 372.8 2739.8 665.1 2897.1 665.1 3086.6 504.6 3237 377.3 3562.9 101.2 3405.6 101.2" style="fill:#0b61a8"/><polygon points="3254 665.1 3233.7 101.2 3082 101.2 3102.3 665.1 3254 665.1" style="fill:#0b61a8"/><path d="M2902.80005,290.1c-4.1001-30.3-29.19995-45.9-75.3999-45.9-51.69995,0-102.1001,18.9-148.19995,56-46.1001,35.5-88,88-127.2,156.1-39,68.5-55.8,121.1-51.60009,156.5q6.15013,55.95,79.60009,56c41.89991,0,79.7-9.2,111.80005-27.4,32.19995-19,60.1001-48.1,82.5-86.3,0,0,5.69995-9.7,7.6001-12.9.80005-1.3,3.1001-5.2,3.1001-5.2h-102.6001l-2.6001,4.6-10.7,18.5a51.75455,51.75455,0,0,1-10.6001,13.8,13.43647,13.43647,0,0,1-6.3,3.9l-1.80005.5a13.26774,13.26774,0,0,1-14.39991-5.1,14.24776,14.24776,0,0,1-1.69995-13.4c5-12.5,16.69995-36.8,43.5-83.4H2828.7002l32.19995-57.8C2893.1001,362.4,2907,319.2,2902.80005,290.1Zm-119.3,59.2c-3.6001,8.3-9.8999,21.6-21.8,43H2725.3999c13.8999-22.9,21.3999-34.5,26.1001-41.1h0C2768.7,325.7,2790.3999,332.1,2783.5,349.3Z" transform="translate(0 0)" style="fill:#fcfcfc"/></svg>