<svg id="Layer_1" data-name="Layer 1" xmlns="http://www.w3.org/2000/svg" viewBox="0 0 3839.01749 1914.6001"><path d="M752.4,131.8V318.7c0,19.8-10.1,22.9-19.8,26v6.6h86.3v-6.6c-9.7-3.1-19.8-6.1-19.8-26V131.8c0-11.3,3.5-14,18.3-14,40.4,0,60.2.8,74.6,23.2l5-3.1L880.7,90H670.5l-16.3,48,5.1,3.1c17.5-22.1,31.1-23.2,75-23.2C748.9,117.9,752.4,120.6,752.4,131.8Zm98.3,26.8c12.8,3.5,19.4,6.6,19.4,26V318.7c0,19.8-6.6,22.9-19.4,26v6.6h162.8l18.6-46.7-5.1-3.5c-16.3,21.5-33.4,26.4-55.9,26.4h-42c-13.2,0-16.3-.3-16.3-13.2V258.4h50.9c19.8,0,22.9,4.7,26.1,16.4h7.7V218.9h-7.7c-3.1,11.7-6.2,16.7-26.1,16.7H912.8v-47c0-9.7,3.1-12.9,16.3-12.9h35.7c22.9,0,35,5.9,52.4,24.4l5-3.5-16.3-44.7H850.7Zm209.4,23,49.8,70.3-47,66.8c-14.4,20.2-22.9,22.9-36.1,26v6.6h75.4v-6.6c-14.4-2.7-20.6-8.2-10.9-23.3l32.9-51.4L1158.9,319.9c12.80005,18.3-.8,23.2-12.5,24.8v6.6h136.30005v-6.6c-13.6-2.3-19.80005-7-12.80005-25.6l8.9-23.2h81.6l8.6,23.2c5.5,15.2,3.5,23.3-12.4,25.6v6.6h83.9v-6.6c-9.69995-3.1-18.6-11.2-22.9-22.5l-65-170.2h-44.30005L1246.1,310.6c-6.6,16.4-12.6,24.2-19.2,28.7-5.1-3.2-9.8-8.3-16.1-17l-54.6-77.6L1200.4,182.3c11.7-16.7,21.4-20.2,33-23.7V152h-71.1v6.6c14.69995,1.2,19,9.4,10.5,22.1L1142,226.3,1114.2,184.5c-11.69995-17.1-3.1-24.1,9.69995-26.1v-6.6h-94.4v6.6C1042.6,162.1,1049.2,166,1060.1,181.6Zm260.1,5,31.9,87H1287ZM1458.5,351.2c0-3.2,3.1-9.8,7-9.8,8.9,4.3,24.1,13.2,52,13.2,47,0,80-23.3,80-62.9,0-37.3-20.6-52.5-60.19995-61.4l-36.1-8.2c-20.6-4.7-27.2-10.6-27.2-23.3,0-14.8,11.6-24.5,37.30005-24.5,28.69995,0,51.30005,13.6,67.6,32.4l5.1-3.5-14.8-51.3H1559.9c0,4.3-1.9,8.9-5.8,8.9-8.6-4.7-21.80005-12-44.30005-12-40.4,0-71.9,20.9-71.9,59,0,29.1,17.5,47.3,55.6,55.9l34.19995,7.8c22.9,4.9,31.1,13.2,31.1,27.6,0,19.8-15.9,30.3-41.9,30.3-36.5,0-59.80005-19.2-78.9-41.2l-5.1,3.5,15.9,59.5Z" transform="translate(0 0)" style="fill:#fff"/><path d="M1723.30005,96.9c12.1,3.5,21.69995,6.6,21.69995,26V318.8c0,19.8-9.69995,22.9-21.69995,26v6.6h90.1v-6.6c-12-3.1-21.8-6.2-21.8-26V122.9c0-19.5,9.69995-22.6,21.8-26V90.3h-90.1v6.6ZM1970.7,158.7c11.6,3.5,18.30005,6.6,18.30005,26v81.6h-1.19995L1887.7,152h-58.6v6.6c11.69995,4.9,19.4,8.9,19.4,26V318.7c0,18.6-6.6,22.9-19.4,26v6.6h66.4v-6.6c-10.5-3.1-20.6-7.3-20.6-26V203h1.2l132.4,151h7V184.7c0-19.4,9.69995-22.6,17.5-26V152h-62.19995l-.1001,6.7Zm173.6001,71.8L2108.2,222.4c-20.6001-4.7-27.2-10.6-27.2-23.3,0-14.7,11.7-24.5,37.3-24.5,28.80005,0,51.30005,13.6,67.6001,32.4l5.10009-3.5-14.69995-51.3h-9.3999c0,4.3-1.8999,9-5.8,9-8.6001-4.7-21.7-12-44.3-12-40.5,0-72,20.9-72,59,0,29,17.5,47.3,55.6001,55.9l34.1001,7.8c22.8999,4.9,31.1001,13.2,31.1001,27.6,0,19.8-15.89991,30.2-42,30.2-36.39991,0-59.89991-19-78.9-41.1l-5.1,3.5,15.8999,59.4h9.7c0-3.1,3.1001-9.7,7-9.7,8.8999,4.3,24.1001,13.2,52,13.2,47,0,80-23.2,80-62.9C2204.6001,254.5,2184,239.4,2144.30005,230.5ZM2216.2,152.1l-16,51.3,5.1001,3.5c21.3999-28.4,27.2-31.1,55.5-31.1,9.7,0,12.80005.8,12.80005,12.8V318.8c0,19.8-5.80005,22.9-21.7,26v6.6h85.5v-6.6c-15.6001-3.1-21.8-6.1-21.8-26V188.6c0-12,3.1001-12.8,12.8999-12.8,28.3999,0,35.8999,2.6,57.1001,31.1l5.1001-3.5-15.89991-51.3Zm346,140.1c-12-19.4-24.3999-28-38.80005-31.5v-1.2C2557.59985,254,2577,236.2,2577,207c0-38.7-31.1001-55.2-81.2-55.2H2393.6001v6.6c12.8999,3.5,19.5,6.6,19.5,26V318.5c0,19.8-6.6001,22.9-19.5,26v6.6h83.5v-6.6c-12-3.1-20.2-6.2-20.2-26V268.9h20.60009c24.1001,0,27.6001,9.7,43.1001,42.4,12.8,26.8,29.8999,43.5,62.1001,43.5,16.3999,0,22.8999-3.2,29.5-6.6v-5.5C2586.30005,338.8,2577.80005,317.5,2562.2,292.2Zm-71-46.6H2457V192.7c0-12.8,3.2-16.3,12.8999-16.3H2492c24.1001,0,38.1001,9.3,38.1001,32.6C2530,233.6,2514.1001,245.6,2491.2,245.6Zm247.69995-86.9C2749,161.1,2758.7,165.3,2758.7,184.7V283c0,32.7-12.3999,47-49.30005,47C2670.2,330,2656.2,315.6,2656.2,283V184.7c0-19.4,7.3999-23.7,19.5-26v-6.6h-81.6001v6.6c12,1.9,19.8,6.6,19.8,26V286c0,53.2,46.2,68.8,89.80005,68.8,48.6001,0,83.1001-16.4,83.1001-72V184.5c0-19.4,5.8999-23.2,17.8999-26V152H2739l-.1001,6.7Zm206.7002,122.7-57.5-129.4h-71.3999v6.6c12.8,3.5,19.3999,6.6,19.3999,26V318.7c0,17.4-7.3999,22.1-19.3999,26v6.6h63.3v-6.6c-13.19995-3.5-19-8.6-19-26v-125l71.80005,160.8h5.5l69.89991-160.8V318.8c0,19.8-8.5,23.2-18.2,26v6.6h81.6001v-6.6c-12.8-3.1-19.3999-6.2-19.3999-26V184.7c0-19.4,6.6001-22.6,19.3999-26v-6.6h-70.3Zm261.7998,46.2h-42c-13.19995,0-16.3-.3-16.3-13.2V258.5h50.89991c19.8,0,22.8999,4.6,26,16.3h7.8V218.9h-7.8c-3.1001,11.6-6.2,16.7-26,16.7h-50.89991v-47c0-9.7,3.1001-12.9,16.3-12.9h35.7c22.89991,0,34.89991,5.9,52.5,24.4l5-3.5L3242.2,151.9h-155.3999v6.6c12.8999,3.5,19.3999,6.6,19.3999,26V318.6c0,19.8-6.6001,22.9-19.3999,26v6.6H3249.6001l18.69995-46.7L3263.2,301C3247,322.5,3229.8999,327.6,3207.3999,327.6Zm207.40015-168.9c11.6001,3.5,18.30005,6.6,18.30005,26v81.6h-1.2L3331.7,152H3273v6.6c11.7,4.9,19.5,8.9,19.5,26V318.7c0,18.6-6.6001,22.9-19.5,26v6.6h66.3999v-6.6c-10.6001-3.1-20.6001-7.3-20.6001-26V203h1.1001l132.5,151H3459.5V184.7c0-19.4,9.7-22.6,17.5-26V152h-62.1001l-.09985,6.7Zm80.3999-6.6-15.8999,51.3,5.1001,3.5c21.3999-28.4,27.2-31.1,55.60009-31.1,9.7,0,12.80005.8,12.80005,12.8V318.8c0,19.8-5.80005,22.9-21.7,26v6.6h85.5v-6.6c-15.6001-3.1-21.8-6.1-21.8-26V188.6c0-12,3.19995-12.8,12.89991-12.8,28.3999,0,35.8,2.6,57.10009,31.1l5.1001-3.5-15.8999-51.3Zm284.3,78.4-36.1001-8.1c-20.6001-4.7-27.19995-10.6-27.19995-23.3,0-14.7,11.6001-24.5,37.19995-24.5,28.7,0,51.30005,13.6,67.6001,32.4l4.8999-3.5-14.6001-51.3h-9.3999c0,4.3-2,9-5.8,9-8.60009-4.7-21.80005-12-44.3999-12-40.5,0-72,20.9-72,59,0,29,17.5,47.3,55.5,55.9l34.1001,7.8c22.80005,4.9,31.1001,13.2,31.1001,27.6,0,19.8-15.8,30.2-42,30.2-36.5,0-59.89991-19-78.89991-41.1l-5.10009,3.5,15.80005,59.4h9.8c0-3.1,3.1001-9.7,7-9.7,8.89991,4.3,24.2,13.2,52,13.2,46.80005,0,80-23.2,80-62.9C3839.7,254.5,3819.1001,239.4,3779.5,230.5Z" transform="translate(0 0)" style="fill:#fff"/><path d="M464.2,149.9V90.5H368.9l-12,59.9h34.3l-11,55.2H345.9L334,265.3c-.9,4.1-1.6,7-2,9.8-2.8,18.3,5.2,17.4,30.8,17.4l-11.7,58.8H306.2c-42.4,0-77-.4-68-43.9,1.4-6.6,3.1-13.4,4.3-19.8l16-82.1h-33l11-55.2h33l12-59.9H250.7V0H136.6V184H0c3.4,47.7,45.6,54.7,61,88.6,10.6,23.4,19.9,64.5,50.8,64.8,23.7.3,23.7-30.7,54.3-30.7,30.5,0,44,57.9,71.2,105.7,20.3,37.5,54.1,62.6,84.7,64.8,25.1,1.7,37.3-6.8,37.3-6.8-6.8-13.6-10.2-27.3-10.2-47.7,0-30.7,23.7-61.3,50.9-81.8,37.3-27.2,78-37.6,91.5-40.9V204.5C491.4,204.5,464.2,190,464.2,149.9ZM308.7,292.5,348.8,90.4H302.6L262.5,292.5ZM361.2,26.6H315l-8.8,44.6h46.2Z" transform="translate(0 0)" style="fill:#fff"/><rect x="627.09998" y="557.29999" width="198.40002" height="686.70001" style="fill:#fff"/><rect x="195.8" y="563.90002" width="198.40001" height="680.09998" style="fill:#fff"/><rect y="557.29999" width="589.90002" height="182.60004" style="fill:#fff"/><path d="M1991.1,551.2c-154.6,0-279.79993,86.3-279.79993,242.5,0,173.1,127.69995,235.2,248.80005,235.2,37.8,0,91.69995-20,127.1001-47.4,17.19995,166.69995-170.7,176-188.6,77.4h-173.1c28.8,155.2,164.5,198.1,270.4,197.80005,140.70007-.4,274.79993-112.4,274.79993-384C2270.8999,647.5,2145.7,551.2,1991.1,551.2Zm-6.7,342.4A105.5,105.5,0,1,1,2089.8999,788.1,105.45654,105.45654,0,0,1,1984.4,893.6Z" transform="translate(0 0)" style="fill:#fff"/><path d="M1380.2,551.2c-154.6,0-279.80005,86.3-279.80005,242.5,0,173.1,127.7,235.2,248.80005,235.2,37.80005,0,91.69995-20,127.1-47.4,17.2,166.69995-170.69995,176-188.6,77.4H1114.5c28.80005,155.2,164.5,198.1,270.4,197.80005,140.7-.4,274.79993-112.4,274.79993-384C1659.80005,647.5,1534.6,551.2,1380.2,551.2ZM1373.4,893.6a105.5,105.5,0,1,1,105.5-105.5A105.45654,105.45654,0,0,1,1373.4,893.6Z" transform="translate(0 0)" style="fill:#fff"/><rect x="884" y="814.09998" width="157.80005" height="130" style="fill:#fff"/><path d="M3043.1001,1256.7H2844.2002a18.20192,18.20192,0,0,1-18.2-18.19995V1104.2h-277.5A18.20191,18.20191,0,0,1,2530.30029,1086V935.9a17.97743,17.97743,0,0,1,4.5-11.9L2853,557.5a18.26006,18.26006,0,0,1,13.7-6.3h176.3999a18.20193,18.20193,0,0,1,18.19995,18.2v356.9h50a18.20193,18.20193,0,0,1,18.2,18.2v141.7a18.202,18.202,0,0,1-18.2,18.19995h-50v134.30005A18.16,18.16,0,0,1,3043.1001,1256.7ZM2862.30005,1220.4h162.6001V1086.1a18.202,18.202,0,0,1,18.2-18.2h50V962.6h-50a18.20193,18.20193,0,0,1-18.2-18.2V587.6H2875L2566.7,942.8V1068h277.5A18.20191,18.20191,0,0,1,2862.3999,1086.2V1220.4Z" transform="translate(0 0)" style="fill:#fff"/><path d="M2844.2,962.6H2657a18.1784,18.1784,0,0,1-13.7-30.1l187.2-215.6a18.178,18.178,0,0,1,31.90015,11.9V944.4A18.26648,18.26648,0,0,1,2844.2,962.6Zm-147.3999-36.3H2826V777.5Z" transform="translate(0 0)" style="fill:#fff"/><path d="M3810.7,1256.7H3672.8999A18.081,18.081,0,0,1,3655.7,1244.3999l-48-140.1h-214.1001l-48,140.1a18.21329,18.21329,0,0,1-17.2,12.30005H3190.5a18.06406,18.06406,0,0,1-14.8-7.6,18.29413,18.29413,0,0,1-2.3999-16.5L3402.7,563.4a18.21332,18.21332,0,0,1,17.19995-12.3h161.3999a18.081,18.081,0,0,1,17.2,12.3l229.3,669.2a18.29485,18.29485,0,0,1-2.3999,16.5A18.01674,18.01674,0,0,1,3810.7,1256.7ZM3685.8999,1220.4H3785.2L3568.3999,587.6h-135.5L3216,1220.4h99.3999l48-140.1a18.21329,18.21329,0,0,1,17.2-12.30005h240a18.081,18.081,0,0,1,17.19995,12.30005ZM3582.30005,992.5h-163.3999a18.06386,18.06386,0,0,1-14.8-7.6,18.2941,18.2941,0,0,1-2.3999-16.5l81.8-238.4a18.21333,18.21333,0,0,1,17.2-12.3h0a18.081,18.081,0,0,1,17.19995,12.3l81.7,238.4a18.17491,18.17491,0,0,1-17.30005,24.1Zm-138-36.3h112.5L3500.6001,792Z" transform="translate(0 0)" style="fill:#fff"/><polygon points="2546.6 587.6 2234.6 1256.7 2286.4 1256.7 2598.4 587.6 2546.6 587.6" style="fill:#fff"/><path d="M424.7,1768.30005c-4.1,52.5-57.8,74.80005-110.8,74.80005-77.3,0-118.2-44.2-118.2-111.2,0-69.9,47.2-112,122-112,50,0,98.3,19.80005,105.4,74H380.2c-3.7-30.19995-28.2-45.8-62.1-45.8-43.8,0-79.3,28.6-79.3,83.9,0,44.2,26,83.1,77.3,83.1,38,0,63.6-17.80005,65.8-46.7h42.8Z" transform="translate(0 0)" style="fill:#fff"/><path d="M600.7,1843.1c-84.4,0-129.8-40.5-129.8-111.6,0-67.4,42.9-111.6,129.8-111.6,84.4,0,129.8,40.5,129.8,111.6S685,1843.1,600.7,1843.1Zm-86.8-111.6c0,47.19995,30.2,83.5,86.8,83.5s86.8-36.4,86.8-83.5-30.2-83.5-86.8-83.5C544.1,1648,513.9,1684.4,513.9,1731.5Z" transform="translate(0 0)" style="fill:#fff"/><path d="M791.6,1674.9c0-15.69995-.8-30.6-1.6-47.19995h38c.8,10.4,1.6,22.3,1.6,36.8h.8c23.5-31.9,53.3-44.6,87.2-44.6,34.7,0,63.6,17,75.6,52.1,14.9-28.6,47.19995-52.1,85.6-52.1,59.1,0,95.5,29,95.5,96.30005v119.1h-40.5V1731.50012c0-50.4-14.5-83.5-58.69995-83.5-35.5,0-71.9,24.4-71.9,92.6v94.6H962.7V1729c0-55.80005-19-81-56.2-81-35.5,0-74.4,25.6-74.4,86.80005v100.4h-40.5V1674.9Z" transform="translate(0 0)" style="fill:#fff"/><path d="M1247.9,1674.9c0-15.69995-.8-30.6-1.6-47.19995h40.5a278.40335,278.40335,0,0,1,1.6,29.4c21.1-23.9,54.1-37.2,90.9-37.2,62,0,115.69995,44.2,115.69995,111.6s-53.69995,111.6-115.69995,111.6c-33.1,0-65.30005-7.80005-90.9-35.1v106.6h-40.5ZM1370.1,1815c48.4,0,81.8-31,81.8-83.5s-33.5-83.5-81.8-83.5c-48,0-81.80005,31-81.80005,83.5C1288.4,1783.9,1322.30005,1815,1370.1,1815Z" transform="translate(0 0)" style="fill:#fff"/><path d="M1786,1788.2c0,15.69995.80005,30.6,1.6,47.19995h-38c-.80005-10.4-1.6-22.3-1.6-36.8H1747.2c-23.5,31.9-53.30005,44.6-90.5,44.6-58.30005,0-100.5-32.69995-100.5-97.5V1627.89978h40.5v115.69995c0,46.2,27.6,71.5,66.6,71.5,38.4,0,82.30005-23.5,82.30005-89.3v-97.9h40.5L1786,1788.2Z" transform="translate(0 0)" style="fill:#fff"/><path d="M1890,1589.7l40.5-17v55h61.1v28.19995h-61.1v119.4C1930.5,1797.6,1936.7,1809.6,1961.9,1809.6a235.30066,235.30066,0,0,0,31-2.5v28.19995a327.63062,327.63062,0,0,1-38.8,2.5c-40.9,0-64.1-13.3-64.1-59.5v-122.4h-54.1V1627.7H1890Z" transform="translate(0 0)" style="fill:#fff"/><path d="M2262.5,1742.2H2068.2c4.1001,42.5,31.3999,72.69995,76.8999,72.69995,29.39991,0,60.3-12.4,69.5-42.1h42.89991c-8.2,55.4-64.39991,70.30005-110.30005,70.30005-76,0-119.5-41.7-119.5-107.5,0-75.6,45.3999-115.7,120.69995-115.7,73.6001,0,114,39.7,114,109.9v12.30005H2262.5Zm-43.1001-28C2218.59985,1666.2,2183,1648,2147.5,1648c-41.7,0-71.5,20.19995-77.7,66.19995Z" transform="translate(0 0)" style="fill:#fff"/><path d="M2320.7,1674.9c0-15.69995-.80005-30.6-1.6001-47.19995h38c.8,12.4,1.6001,27.3,1.6001,41.3h.8c18.6001-33.5,36.8-44.19995,83-44.19995h13.7v36.4c-6.2-2.1-12-2.5-19.3999-2.5-48.8,0-75.6001,34.3-75.6001,76v100.4h-40.5V1674.9Z" transform="translate(0 0)" style="fill:#fff"/></svg>