<svg id="Layer_1" data-name="Layer 1" xmlns="http://www.w3.org/2000/svg" xmlns:xlink="http://www.w3.org/1999/xlink" viewBox="0 0 3772.7998 2160"><defs><linearGradient id="Dégradé_sans_nom" x1="1310.79993" y1="1557.98981" x2="1310.79993" y2="1904.88983" gradientTransform="matrix(1, 0, 0, -1, 0, 2157.88983)" gradientUnits="userSpaceOnUse"><stop offset="0"/><stop offset="1" stop-color="#5a5855"/><stop offset="1" stop-color="#fff"/></linearGradient><linearGradient id="Dégradé_sans_nom_2" x1="2041.29993" y1="1557.98987" x2="2041.29993" y2="2005.98984" xlink:href="#Dégradé_sans_nom"/><linearGradient id="Dégradé_sans_nom_3" x1="2365" y1="1557.88983" x2="2365" y2="2005.98984" xlink:href="#Dégradé_sans_nom"/><linearGradient id="Dégradé_sans_nom_4" x1="3434.44983" y1="1557.88983" x2="3434.44983" y2="2005.98984" xlink:href="#Dégradé_sans_nom"/><linearGradient id="Dégradé_sans_nom_5" x1="1028.94995" y1="1558.08984" x2="1028.94995" y2="2005.98984" xlink:href="#Dégradé_sans_nom"/><linearGradient id="Dégradé_sans_nom_6" x1="673.88022" y1="1557.98987" x2="673.88022" y2="1904.88983" xlink:href="#Dégradé_sans_nom"/><linearGradient id="Dégradé_sans_nom_7" x1="2701.68036" y1="1557.98987" x2="2701.68036" y2="1904.88983" xlink:href="#Dégradé_sans_nom"/><linearGradient id="Dégradé_sans_nom_8" x1="355.99997" y1="1557.98981" x2="355.99997" y2="2006.08983" xlink:href="#Dégradé_sans_nom"/><linearGradient id="Dégradé_sans_nom_9" x1="1588.59998" y1="1544.38983" x2="1588.59998" y2="1918.38983" xlink:href="#Dégradé_sans_nom"/><linearGradient id="Dégradé_sans_nom_10" x1="3068.2002" y1="1544.28986" x2="3068.2002" y2="1918.28983" xlink:href="#Dégradé_sans_nom"/></defs><path d="M3690,765.3H82.6A82.624,82.624,0,0,1,0,682.7V82.7A82.64536,82.64536,0,0,1,82.6,0H3690a82.624,82.624,0,0,1,82.6001,82.6v600A82.64538,82.64538,0,0,1,3690,765.3Z" transform="translate(0 0)" style="fill:#fff"/><rect x="1241.69995" y="253" width="138.19995" height="346.90002" style="fill:url(#Dégradé_sans_nom)"/><path d="M1972.2,303.3V414.4a47.32953,47.32953,0,0,1-47.30005,47.3H1886.7V599.9h72.19995a151.52707,151.52707,0,0,0,151.5-151.5V337.3A47.32953,47.32953,0,0,1,2157.7,290h38.19995V151.9H2123.7A151.44178,151.44178,0,0,0,1972.2,303.3Z" transform="translate(0 0)" style="fill:url(#Dégradé_sans_nom_2)"/><path d="M2346.5,253V151.9h-138.2V600h138.2V381.2a18.52218,18.52218,0,0,1,18.5-18.5h0a18.52218,18.52218,0,0,1,18.5,18.5V600h138.2V352a98.96956,98.96956,0,0,0-99-99Z" transform="translate(0 0)" style="fill:url(#Dégradé_sans_nom_3)"/><path d="M3597.5,599.9l-76.3-200.2,67.3999-103h-146l-61.60009,94.1h0V151.9h-109.6001V600h109.6001V505.7c0-17.5,24.19995-21.9,30.3999-5.6l38.1001,99.9H3597.5Z" transform="translate(0 0)" style="fill:url(#Dégradé_sans_nom_4)"/><path d="M1078.5,151.9V253H1026.7c-95.8,0-173.4,77.7-173.4,173.4s77.7,173.4,173.4,173.4h177.9V151.9ZM1029,532.8a55.3,55.3,0,1,1,55.30005-55.3A55.28891,55.28891,0,0,1,1029,532.8Z" transform="translate(0 0)" style="fill:url(#Dégradé_sans_nom_5)"/><path d="M734.4,253H551.6V362.6h110.1a14.297,14.297,0,0,1,14.3,14.3h0a14.297,14.297,0,0,1-14.3,14.3h-41c-56.9,0-104.9,44.6-106.5,101.4a104.35416,104.35416,0,0,0,104.3,107.3h215.1V352A99.33312,99.33312,0,0,0,734.4,253ZM660,532.8a55.3,55.3,0,1,1,55.3-55.3A55.28891,55.28891,0,0,1,660,532.8Z" transform="translate(0 0)" style="fill:url(#Dégradé_sans_nom_6)"/><path d="M2762.2,253H2579.3999V362.6H2689.5a14.29712,14.29712,0,0,1,14.3,14.3h0a14.297,14.297,0,0,1-14.3,14.3h-41c-56.8999,0-104.8999,44.6-106.5,101.4a104.35406,104.35406,0,0,0,104.3,107.3h215.1001V352C2861.2,297.4,2816.80005,253,2762.2,253Zm-74.5,279.8a55.3,55.3,0,1,1,55.3-55.3A55.28888,55.28888,0,0,1,2687.7,532.8Z" transform="translate(0 0)" style="fill:url(#Dégradé_sans_nom_7)"/><path d="M435.4,409.7a132.80781,132.80781,0,0,0-44.6-257.9H187.3V599.9H313.4V513.5c0-15.9,21.6-20.8,28.4-6.3l43.5,92.7h139.4ZM334.8,442.4a55.3,55.3,0,1,1,55.3-55.3A55.28888,55.28888,0,0,1,334.8,442.4Z" transform="translate(0 0)" style="fill:url(#Dégradé_sans_nom_8)"/><path d="M1588.6,239.5a187,187,0,1,0,187,187A186.97085,186.97085,0,0,0,1588.6,239.5Zm0,293.3a55.3,55.3,0,1,1,55.3-55.3A55.289,55.289,0,0,1,1588.6,532.8Z" transform="translate(0 0)" style="fill:url(#Dégradé_sans_nom_9)"/><path d="M3119.80005,497.3a55.3,55.3,0,1,1,0-39.6H3252.6001a187.00226,187.00226,0,1,0-184.3999,155.9c78.19995,0,145.10009-48,173.10009-116.2H3119.80005Z" transform="translate(0 0)" style="fill:url(#Dégradé_sans_nom_10)"/><path d="M387.6,1038.30005V1416H225.7V1038.30005H0V909.1H613.2v129.19995H387.6Z" transform="translate(0 0)" style="fill:#fff"/><path d="M1305.6,1178.80005c-16.7,28.9-46.4,35.69995-77.5,41,76.8,5.30005,88.9,42.6,88.9,113.19995v82.80005H1165c0-30.4,1.5-62.30005-4.6-91.9-6.8-33.4-30.4-36.5-60.8-36.5H845.8v128.4H691.6V909.1h373.1c27.4,0,55.5.8,82.80005.8,57.80005.8,122.30005-5.3,156.5,51.7,19.80005,32.7,18.19995,78.3,18.19995,114.69995C1322.30005,1109.7,1323,1149.2,1305.6,1178.80005ZM1104.2,1036H845.8v124.6h217.3c11.4,0,22.8-.80005,34.19995-.80005,55.5-1.5,70.7-3,70.7-63.8C1168,1044.30005,1155.1,1036,1104.2,1036Z" transform="translate(0 0)" style="fill:#fff"/><path d="M1983.5,1383.30005c-36.5,39.5-116.30005,38-165.69995,38.80005-39.5,1.5-79,1.5-118.5,1.5-66.1,0-145.9,2.3-210.5-12.2-24.30005-5.3-45.6-15.19995-63.1-32.69995-25.80005-25.1-28.9-57.80005-28.9-91.9,0-12.9.80005-25.80005,1.5-38.80005h148.9c0,11.4,0,22,3.8,32.7,2.30005,6.8,5.30005,11.4,11.4,16,14.4,11.4,57.80005,9.9,74.5,9.9,22,0,43.30005.8,65.4.8,27.4,0,54-.8,81.30005-.8,19,0,66.9,2.3,79.80005-16,5.3-8.4,5.3-19.80005,5.3-28.9,0-38.80005-30.4-37.2-61.5-38-81.3-2.30005-162.6-6.80005-243.9-9.9-44.1-1.5-100.3-3-132.19995-38.80005-26.6-29.6-28.9-72.19995-28.9-110.19995,0-90.4,23.6-147.4,120.80005-157.3,65.30005-6.8,133-6.1,199.1-6.1,63.80005,0,131.5-1.5,193.80005,13.7,69.1,17.5,83.6,63.1,83.6,129.2v24.30005H1849.80042v-7.6c0-14.4-1.5-25.1-14.4-33.4-14.4-9.9-48.6-9.1-65.4-9.1h-131.5c-16,0-60.80005-.8-74.5,9.1-9.9,6.8-12.19995,19-12.19995,30.4,0,9.1,2.3,21.30005,9.9,27.4,5.3,4.6,12.9,6.1,19.8,6.80005,17.5,3,35.7,3,53.2,3.8,34.19995,1.5,68.4,3,102.6,3.8,58.5,1.5,142.1.80005,199.1,16,18.19995,5.30005,34.19995,12.9,48.6,25.80005,31.19995,27.4,32.69995,79.80005,32.69995,117.80005C2017.7,1302,2013.9,1350.6,1983.5,1383.30005Z" transform="translate(0 0)" style="fill:#fff"/><path d="M3004.30005,1390.9c-50.1001,36.5-171,31.2-231,31.2H2704.2c-62.30005,0-164.8999,4.6-218.1001-31.2-35.7-24.3-38.80005-72.9-38.80005-112.5,0-33.4,3-69.1,27.39991-94.19995,18.2-19,46.3999-22.80005,71.3999-27.4-11.3999-.80005-23.6001-1.5-35-4.6-50.8999-13.7-57.80005-63.80005-57.80005-109.4,0-73.7,22-117,98.80005-129.2,63.1001-9.9,129.19995-10.6,193-10.6,35,0,69.8999.8,104.8999,2.3,44.8,2.3,108.69995,3.8,146.69995,29.6,35,23.6,40.30005,71.4,40.30005,110.2,0,29.6-3.80005,63.8-23.6001,86.6-18.2,21.30005-42.60009,23.6-69.10009,25.1,27.3999,4.6,50.8999,7.6,71.3999,27.4,26.6001,25.1,27.3999,69.1,27.3999,103.30005C3043,1325.5,3037.7,1367.30005,3004.30005,1390.9ZM2886.5,1226c-11.3999-11.4-53.2-10.6-67.6001-10.6-27.3999-.8-54.69995-1.5-82.1001-1.5-25.10009,0-114-2.3-130.69995,9.9-11.3999,8.4-11.3999,27.4-11.3999,40.30005,0,11.4.8,24.3,9.8999,32.69995,17.5,15.19995,110.89991,11.4,133,11.4,26.6001,0,53.19995-.80005,79.8-1.5,19,0,64.6001,2.3,74.5-19.80005,3.80005-8.4,3.80005-19.8,3.80005-28.9C2895.6001,1247.2,2894.8999,1233.6,2886.5,1226Zm-67.6001-207.5c-30.3999-.8-60-1.5-90.3999-1.5-31.2,0-63.8-.8-95,3.8-25.8,3.8-32.7,17.50006-32.7,42.6,0,26.6,9.1001,35.7,35,38.80005,54,5.3,111.7,3,165.7,3,17.5,0,68.3999,0,80.5-12.2,7.6001-7.6,7.6001-22,7.6001-31.9C2889.5,1017,2853.80005,1019.3,2818.8999,1018.5Z" transform="translate(0 0)" style="fill:#fff"/><path d="M3659.3999,1412.9c-60.8,9.9-142.8999,9.1-204.3999,9.1-38,0-75.2-.80005-113.2-1.5-83.6001-1.5-180.8999-4.6-199.1001-105.6-8.3999-47.1-6.1001-104.1-6.1001-152,0-30.4,0-60,.8-90.4.80005-42.6,3.80005-91.2,35-123.9,20.5-21.3,49.3999-31.9,78.30005-36.5,60.8-9.9,142.1001-9.1,204.3999-9.1,37.19995,0,75.19995,1.5,112.5,2.3,129.89991,3,205.19995,16.7,205.19995,167.2v180.9C3772.6001,1337.7,3751.30005,1397.7,3659.3999,1412.9Zm-73.69995-368.6c-17.5-7.6-43.30005-8.4-62.30005-8.4-30.3999,0-60.8-.8-92-.8-31.1001,0-65.3-.80005-95.69995,6.1-9.1001,2.30005-18.2,5.30005-25.1001,12.9-20.5,21.3-19,81.3-19,108.69995,0,25.1-1.5,84.30005,16,104.9,7.6001,9.1,16.69995,12.9,28.1001,16,32.69995,7.6,86.6001,7.6,120.8,6.80005l66.8999-1.5c19-.80005,44.80005-.80005,62.30005-9.1,38-16.69995,32.69995-83.6,32.69995-117S3623.7,1061.80005,3585.7,1044.30005Z" transform="translate(0 0)" style="fill:#fff"/><rect x="2124.80005" y="1168.69995" width="201.6001" height="134.40002" style="fill:#fff"/><path d="M2302.80005,2160h-833A147.8355,147.8355,0,0,1,1322,2012.2V1732A147.8355,147.8355,0,0,1,1469.80005,1584.2h833A147.83542,147.83542,0,0,1,2450.6001,1732V2012.2A147.83558,147.83558,0,0,1,2302.80005,2160Z" transform="translate(0 0)" style="fill:#1aaa4b"/><path d="M980.8,2160h-833A147.83544,147.83544,0,0,1,0,2012.2V1732A147.83552,147.83552,0,0,1,147.8,1584.2h833A147.83541,147.83541,0,0,1,1128.6,1732V2012.2A147.83541,147.83541,0,0,1,980.8,2160Z" transform="translate(0 0)" style="fill:#dd243c"/><path d="M3624.80005,2160h-833A147.83542,147.83542,0,0,1,2644,2012.2V1732a147.8355,147.8355,0,0,1,147.8-147.80005h833A147.83542,147.83542,0,0,1,3772.6001,1732V2012.2A147.77149,147.77149,0,0,1,3624.80005,2160Z" transform="translate(0 0)" style="fill:#1094d2"/></svg>