<svg id="Layer_1" data-name="Layer 1" xmlns="http://www.w3.org/2000/svg" viewBox="0 0 3839.00092 1706.22401"><path d="M3816.31006,1474.6l-65.98-102.53c49.31006-53.05005,76.29-124.26,76.3-198.87.03-155.23-116.32007-295.97-308.61988-288.47v.16H3314.13013a142.5691,142.5691,0,0,0-142.57007,142.57v524.22a142.57007,142.57007,0,0,0,285.14014,0v-91.1h11.52l108.31006,168.31994a142.5713,142.5713,0,0,0,197.04,42.74h0A142.5802,142.5802,0,0,0,3816.31006,1474.6Zm-298.3-345v-.17c29.82007,0,36.53,30.81006,36.53,43.69995.01,12.89-6.71,43.69995-36.53,43.69995v-.96H3456.7v-86.27H3518.01Z" transform="translate(0 0.00404)" style="fill:red"/><path d="M3070.29,485.18V676.49a142.57007,142.57007,0,0,0,285.14014,0V485.18l197.51-243.55a142.56637,142.56637,0,1,0-221.46-179.6L3212.86011,208.29,3094.25,62.04a142.56637,142.56637,0,1,0-221.46,179.6Z" transform="translate(0 0.00404)" style="fill:red"/><path d="M2012.72,816.72a142.57551,142.57551,0,0,0,166.3501-117.21L2199.76,573.15l77.07007,166.43a137.06958,137.06958,0,0,0,248.75976,0l77.08008-166.43,20.68994,126.36A142.56393,142.56393,0,0,0,2789.72,816.71c77.22-14.09,126.94995-90.47,114.27-167.93l-83.83008-511.95A152.78979,152.78979,0,0,0,2530.73,97.32l-129.51,279.66L2271.72,97.33a152.81138,152.81138,0,0,0-289.47,39.52L1898.45,648.77C1885.76,726.25,1935.49,802.63,2012.72,816.72Z" transform="translate(0 0.00404)" style="fill:red"/><path d="M1428.25,831.43c289.08,5.65,449.5-199.57,449.51-415.65C1877.77,199.69,1717.35-5.53,1428.25.11c-289.08-5.65-449.5,199.57-449.51,415.65C978.75,631.85,1139.15,837.07,1428.25,831.43Zm0-586.65c98.47,0,178.29,76.56,178.29,171s-79.83,171-178.29,171c-98.47,0-178.29-76.56-178.29-171S1329.79,244.78,1428.25,244.78Z" transform="translate(0 0.00404)" style="fill:red"/><path d="M2670.28,853.56c-289.08008-5.65-449.5,199.57-449.51,415.65,0,216.09,160.40991,421.31006,449.51,415.67,289.08008,5.65,449.5-199.56994,449.51-415.65C3119.79,1053.14,2959.37012,847.92,2670.28,853.56Zm0,586.66c-98.47,0-178.29-76.56006-178.29-171s79.83008-171,178.29-171c98.47,0,178.29,76.56006,178.29,171S2768.74,1440.22,2670.28,1440.22Z" transform="translate(0 0.00404)" style="fill:red"/><path d="M413.96,254H518.63V676.49A142.56905,142.56905,0,0,0,661.2,819.06h0A142.56905,142.56905,0,0,0,803.77,676.49V254h91.32a122.375,122.375,0,1,0,0-244.75H413.96a122.375,122.375,0,0,0,0,244.75Z" transform="translate(0 0.00404)" style="fill:red"/><path d="M603.5,884.44H122.38a122.37,122.37,0,1,0,0,244.74H227.05v422.49a142.57,142.57,0,1,0,285.14-.00012v-422.49h91.32A122.37,122.37,0,1,0,603.5,884.44Z" transform="translate(0 0.00404)" style="fill:red"/><path d="M2259.40991,1006.81A122.37821,122.37821,0,0,0,2137.03,884.43H1655.91a122.375,122.375,0,1,0,0,244.75006h104.67v422.49a142.57007,142.57007,0,0,0,285.14013-.00012v-422.49h91.32007A122.36719,122.36719,0,0,0,2259.40991,1006.81Z" transform="translate(0 0.00404)" style="fill:red"/><path d="M1360.02,891.61A142.56908,142.56908,0,0,0,1217.45,1034.17993v323.72h.01c0,21.07-4.19995,40.30005-12.26,56.53-30.89,62.18006-116.94995,62.59-147.13.07-7.68995-15.93006-11.68995-35.01-11.68995-56.59v-323.72a142.57,142.57,0,1,0-285.14,0v323.72h.01c8.29,247.11,197.21,348.31006,370.67,348.31006,173.46009,0,362.37-101.2,370.67-348.31006v-323.72A142.58411,142.58411,0,0,0,1360.02,891.61Z" transform="translate(0 0.00404)" style="fill:red"/></svg>