<svg id="Layer_1" data-name="Layer 1" xmlns="http://www.w3.org/2000/svg" viewBox="0 0 3839.00024 1836.30005"><path d="M2649.30005,209.1c0,115.3,97.1001,208.8,216.5,208.8,124.2,0,221.7-91.6,221.7-208.8C3087.5,91.8,2990,0,2865.8999,0c-119.5,0-216.59985,93.7-216.59985,209.1" transform="translate(0 0)" style="fill:#17b3e8"/><rect x="2685.30005" y="627.20001" width="369.6001" height="1195.99994" style="fill:#17b3e8"/><path d="M3400.80005,209.1c0,115.3,97.2,208.8,216.6001,208.8,124.2,0,221.60009-91.6,221.60009-208.8C3839,91.8,3741.7,0,3617.3999,0,3498,0,3400.80005,93.7,3400.80005,209.1" transform="translate(0 0)" style="fill:#17b3e8"/><rect x="3436.6001" y="627.20001" width="369.80005" height="1195.99994" style="fill:#17b3e8"/><path d="M2097.5,100.6,1773.30005,1371.4S1525.5,417.5,1485.1001,282.20007c-40.30005-135.5-123.30005-194.9-241-194.9s-200.80005,59.4-241.2,194.9c-40.1,135.3-288.1,1089.2-288.1,1089.2L390.6,100.6H0S375.1,1456.5,426.1,1613.5c39.7,122.6,133.6,222.80005,272.9,222.80005,159.3,0,233.7-116.1,268.2-222.80005,34.1-106,276.9-1001.6,276.9-1001.6S1487,1507.5,1521,1613.5c34.5,106.69995,108.9,222.80005,268.1,222.80005,139.4,0,233.19995-100.19995,273.1-222.80005,50.8999-157,425.69995-1512.9,425.69995-1512.9H2097.5Z" transform="translate(0 0)" style="fill:#17b3e8"/></svg>