<svg id="Layer_1" data-name="Layer 1" xmlns="http://www.w3.org/2000/svg" viewBox="0 0 3839.00006 811.19999"><path d="M1590.22,647.121h-100.1l-97.6-371.6-98.7,371.6H1191.52l-134.3-483h90.8l96.8,384.2,105.69995-384.2h91.7l99.3,386.5,91.9-386.5h87.69995Z" transform="translate(-0.01999 -0.021)" style="fill:#fff"/><path d="M1849.52005,199.521c0,13.1-4.80005,23.9-14.4,32.6-9.4,8.7-20.80005,13.1-34.4,13.1-13.5,0-25-4.4-34.4-13.1s-14.1-19.6-14.1-32.6q0-19.95,14.1-33.3a48.95258,48.95258,0,0,1,34.4-13.4c14,0,25.5,4.6,34.69995,13.7a44.2465,44.2465,0,0,1,14.1001,33Zm-90.5,447.6v-348.1H1840.22v348.1Z" transform="translate(-0.01999 -0.021)" style="fill:#fff"/><path d="M2152.42,647.121v-193.8c0-50.8-15.8-94.6-66.9-94.6-50.9,0-83.19995,45.8-83.19995,92.2v196.2h-79.4v-348.1h79.4v49.2h1.4c26.30005-40.8,64.4-55.1,114.1-55.1,37.3,0,66.19995,9.2,86.6,33,20.6,23.8,29.7,60,29.7,108.6v212.4Z" transform="translate(-0.01999 -0.021)" style="fill:#fff"/><path d="M2551.02005,647.121v-44.8h-1.3999c-25.2,42.4-76.6001,52.2-112.5,52.2-106.6001,0-145.7-82.8-145.7-170.9q0-87.6,43.60009-140.2c29.30005-35.3,68.5-50.6,117.5-50.6,76.30005,0,97,42.5,97,42.5h1.39991V133.821h82.3v513.3Zm.69995-198.3c0-42-27-89.8-84.1001-89.8-65.2,0-90.60009,56.8-90.60009,122.2,0,57.1,23.8999,109,86.10009,109.8,60.89991,0,88.1001-58.1,88.6001-106.1Z" transform="translate(-0.01999 -0.021)" style="fill:#fff"/><path d="M3048.8201,471.621c0,120.6-72.1001,185.9-180.3,185.9-117.7,0-178-70.4-178-178.3,0-123.4,72.3-187.6,186.6001-187.6C2981.8201,291.521,3048.8201,358.521,3048.8201,471.621Zm-84.6001,2.7c0-53.6-19-113.3-91.6001-113.3-69.60009,0-96.7,51.8-96.7,115.3,0,69,32.5,112.9,96.2,112.9,68.3.1,91.6001-52.3,92.1001-114.9Z" transform="translate(-0.01999 -0.021)" style="fill:#fff"/><path d="M3484.3201,647.121H3394.72l-68.5-251.9-73.3999,251.9h-86.8999l-101.3-347h85l66.1001,269.6,77.3-269.6h79.7l68.8999,268.9,64.5-268.9h77.8999Z" transform="translate(-0.01999 -0.021)" style="fill:#fff"/><path d="M3839.02005,550.321c0,77.5-70.30005,107.7-140.7,107.7-45.8999,0-91.6001-17.7-91.6001-17.7v-82.4s39.7,34.6,95.2,35c38,0,55.2-12,55.2-34.8.89991-18.3-10.2-28.4-23.5-36q-13.79993-8.25-43-20.3-34.34985-14.85-51.2-28.5a88.46808,88.46808,0,0,1-24.7-32.3c-5.3-12.4-9.19995-26-9.19995-42.5,0-62.6,52.19995-106.8,135.6001-106.8,55.1001,0,79,13.5,79,13.5v78.3s-39.2-27.1-79.8999-27.3c-29.2,0-51.2,10.6-51.6001,34.7-.2,31,37.69995,46.1,60.3999,55.3,33,13.3,57.1001,27.5,70.6001,43.7,13.49975,16.2,19.3999,32.59992,19.3999,60.4Z" transform="translate(-0.01999 -0.021)" style="fill:#fff"/><rect width="384.5" height="384.50001" style="fill:#fff"/><rect x="426.70001" width="384.5" height="384.50001" style="fill:#fff"/><rect y="426.69999" width="384.5" height="384.5" style="fill:#fff"/><rect x="426.70001" y="426.69999" width="384.5" height="384.5" style="fill:#fff"/></svg>