<svg id="Layer_1" data-name="Layer 1" xmlns="http://www.w3.org/2000/svg" viewBox="0 0 3839 1805.62117"><g id="g9277"><path id="path9279" d="M1507.12569,196.51675H1195.14888V14.86522H1033.74953V489.63275h161.3993V298.86h311.97686V489.63277h161.2447V14.86522h-161.2447V196.51675" transform="translate(0 0.12117)" style="fill:#ed001d"/></g><g id="g9281"><path id="path9283" d="M1937.87948,298.97745l112.39207-184.43428L2159.1079,298.97745H1937.87948m49.78026-283.99476L1698.25406,489.75022h123.36842l59.21065-97.24153H2214.299l57.35547,97.24154h196.95667l-289.251-474.76754H1987.65974" transform="translate(0 0.12117)" style="fill:#ed001d"/></g><g id="g9285"><path id="path9287" d="M3108.31354,220.66171c38.4947-50.39865,33.23837-124.14146-40.50435-166.34643C2999.01351,15.04764,2867.76058.51552,2785.82415.51552c-131.25293,0-215.66288,8.96661-287.5505,21.17982V489.81517h161.24479V92.81c58.12845-11.44017,117.02988-11.74939,139.13734-10.66719,64.00321,2.78273,100.02421,12.83154,128.934,33.23837,29.8373,21.17981,37.87628,68.1773-.773,100.79724-28.90957,24.27176-87.65644,43.44178-218.75481,23.34416l-18.55165,30.45562,248.12826,220.14618h219.68236L2936.55627,299.197c53.02686-7.11145,133.41732-28.29127,171.75727-78.5353" transform="translate(0 0.12117)" style="fill:#ed001d"/></g><g id="g9289"><path id="path9291" d="M680.35617,178.96845c-93.222-18.08787-172.3757-29.37344-172.3757-59.51986,0-33.393,64.00319-42.05042,154.75163-32.46538,85.80136,9.12122,166.65559,31.53779,242.099,63.694l57.35551-93.995C901.27537,33.49267,775.58794,3.65546,661.65.40891c-125.069-3.55571-335.93938,7.57525-345.0606,134.03561-8.34824,115.484,156.4522,143.15687,264.67013,168.35617,105.126,24.5809,203.9135,33.39293,203.9135,69.87784,0,25.66312-34.78434,45.76073-126.92419,38.80387-111.00068-8.34823-205.30488-38.64926-299.29988-85.33757L296.3371,428.79728c104.353,40.81363,241.326,73.58819,364.53984,75.598,146.71261,2.47355,312.13144-21.17979,315.84176-146.8672,3.24655-104.81683-105.28059-141.4563-296.36253-178.55959" transform="translate(0 0.12117)" style="fill:#ed001d"/></g><g id="g9293"><path id="path9295" d="M3629.5437,216.77823c-27.82747,22.88035-68.64112,30.91941-132.7989,30.76481-47.46121-.15461-96.46859-8.812-136.35451-17.93327V92.63678c58.12845-11.44017,118.11218-11.74939,140.06488-10.82179,64.31233,2.78272,101.87949,13.60452,129.86152,33.23836,28.90957,20.716,38.64926,69.41411-.773,101.72488M3770.53632,54.60594C3704.83258,15.64747,3581.92793.65159,3487.46917.65159c-131.25293,0-216.745,8.9666-288.478,21.17981V489.95123h161.2448V318.34851c49.93492,8.34823,112.392,13.14075,166.50094,12.83156,132.02591-1.08217,230.04047-32.15619,274.71887-80.69965,63.38479-69.25951,42.05032-152.74191-30.91941-195.87448" transform="translate(0 0.12117)" style="fill:#ed001d"/></g><path d="M577.1,1228.4,0,1805.5H910.5Zm-22.1,168.9,175.8,304.5H250.4Z" transform="translate(0 0.12117)" style="fill:#fff"/><path d="M1365.7,578.1l333.19995,577.1L2276,578.1ZM1545.4,681.7h480.4l-304.5,304.6Z" transform="translate(0 0.12117)" style="fill:#fff"/><path d="M2651.3999,578.1l-312.8,312.8h344.8L2335,1494.4l-535.1-.6L1271.2,578.00006H296.3L1005,1805.5H3130.30005L3839,578.1Zm419,1123.8H1064.80005L476,681.7h735.4l529.1,916.40009H2395l468.2-810.9h-274l105.5-105.5h964.8Z" transform="translate(0 0.12117)" style="fill:#fff"/></svg>