<svg id="Layer_1" data-name="Layer 1" xmlns="http://www.w3.org/2000/svg" viewBox="0 0 3839 1236.5"><rect x="633.09998" y="154.10001" width="109.29999" height="86.5" style="fill:#fff"/><polygon points="2960 0 2695.1 0 3574 1236.5 3839 1236.5 2960 0" style="fill:#00a7e1"/><polygon points="2695.1 0 2430.1 0 3309 1236.5 3574 1236.5 2695.1 0" style="fill:#3d9b00"/><polygon points="2430.1 0 2165.1 0 3044 1236.5 3309 1236.5 2430.1 0" style="fill:#ffc610"/><polygon points="2165.1 0 1900.1 0 2779.1 1236.5 3044 1236.5 2165.1 0" style="fill:#ff1f1f"/><rect x="633.09998" y="272.60001" width="109.29999" height="362.39999" style="fill:#fff"/><rect x="2815" y="272.60001" width="109.30005" height="362.39999" style="fill:#fff"/><rect x="2035.59998" y="154.10001" width="109.29993" height="480.99997" style="fill:#fff"/><polygon points="880.6 272.6 771.3 272.6 771.3 359.1 771.3 635 880.6 635 880.6 359.1 1265.3 359.1 1265.3 635 1374.5 635 1374.5 359.1 1374.5 272.6 1265.3 272.6 880.6 272.6" style="fill:#fff"/><polygon points="3556.4 272.6 3062.4 272.6 2953.1 272.6 2953.1 359.1 2953.1 635 3062.4 635 3062.4 359.1 3556.4 359.1 3556.4 272.6" style="fill:#fff"/><polygon points="0.9 296.5 0 296.5 0 410.6 0 497.1 0 498.3 109.3 498.3 109.3 497.1 494 497.1 494 548.6 0.9 548.6 0.9 635 494 635 603.2 635 604.1 635 604.1 548.6 603.2 548.6 603.2 497.1 603.2 410.6 603.2 409.3 494 409.3 494 410.6 109.3 410.6 109.3 359.1 604.1 359.1 604.1 272.6 0.9 272.6 0.9 296.5" style="fill:#fff"/><polygon points="1403.4 272.6 1403.4 359.1 1403.4 548.6 1403.4 635 1512.7 635 2006.7 635 2006.7 548.6 1512.7 548.6 1512.7 359.1 2006.7 359.1 2006.7 272.6 1512.7 272.6 1403.4 272.6" style="fill:#fff"/><path d="M2777.1001,272.6H2173.7002v86.5h498.8999v51.5H2173.7002V635h612.3999V272.6h-9Zm-494,276V497.1h389.6001v51.5Z" transform="translate(0 0)" style="fill:#fff"/><path d="M1.6,1038.80005l162-193.6H14.3v-55.8H251.9v52.4L90,1035.4H256.2v55.80005H1.6Z" transform="translate(0 0)" style="fill:#00a7e1"/><path d="M373.3,933.2,276,789.4h77l59.2,96.5,61.3-96.5h72.8L449.4,933.7l105.3,157.8H475.6L409.6,987l-67.3,104.5H267.4Z" transform="translate(0 0)" style="fill:#00a7e1"/><path d="M659.6,991c0,40.19995,31.3,55.80005,66.8,55.80005,23.3,0,58.8-6.80005,58.8-37.6,0-32.6-45.3-38.1-89.7-49.9-44.8-11.8-90.1-29.2-90.1-85.9,0-61.8,58.4-91.4,112.9-91.4,63,0,121,27.5,121,97.3H775c-2.1-36.4-27.9-45.7-59.6-45.7-21.2,0-45.7,8.9-45.7,34.3,0,23.3,14.4,26.2,90.1,45.7,22,5.5,89.7,19.5,89.7,88,0,55.4-43.6,96.9-125.6,96.9-66.8,0-129.4-33-128.6-107.4L659.6,991Z" transform="translate(0 0)" style="fill:#00a7e1"/><path d="M869.8,872.7h57.1v27.9h.8c14.4-23.3,38.1-33.8,65.1-33.8,68.5,0,99.4,55.4,99.4,117.6,0,58.4-32.19995,112.9-96,112.9-26.2,0-51.2-11.4-65.6-33h-.8v104.1h-60Zm162.3,109.9c0-34.7-14-70.6-52.5-70.6-39.3,0-52,35.1-52,70.6s13.5,69.4,52.5,69.4C1019.5,1051.9,1032.1,1018.1,1032.1,982.6Z" transform="translate(0 0)" style="fill:#00a7e1"/><path d="M1165,996.5c1.69995,38.1,20.30005,55.4,53.69995,55.4,24.1,0,43.6-14.8,47.4-28.3H1319c-16.9,51.6-52.9,73.6-102.4,73.6-69,0-111.7-47.4-111.7-115.1,0-65.6,45.30005-115.5,111.7-115.5,74.5,0,110.4,62.6,106.19995,129.9L1165,996.5Zm97.69995-38c-5.5-30.5-18.6-46.5-47.80005-46.5-38.1,0-49.1,29.6-49.9,46.5Z" transform="translate(0 0)" style="fill:#00a7e1"/><path d="M1494.4,949.7c-3.8-24.5-19.5-37.6-44.4-37.6-38.5,0-51.19995,38.9-51.19995,71.1,0,31.3,12.30005,68.9,49.9,68.9,27.9,0,44-17.80005,47.8-44.4h58c-7.6,57.9-47.8,89.69995-105.3,89.69995-66,0-110.4-46.5-110.4-112.1,0-68.1,40.6-118.4,111.69995-118.4,51.6,0,99,27.1,102.80005,82.9L1494.4,949.7Z" transform="translate(0 0)" style="fill:#00a7e1"/><path d="M1651.7,872.7h44v40.2h-44v108.3c0,20.3,5.1,25.4,25.4,25.4a90.06607,90.06607,0,0,0,18.6-1.7v47c-10.19995,1.7-23.30005,2.1-35.1,2.1-36.80005,0-69-8.5-69-52V913h-36.4V872.8h36.4V807.2h60.1Z" transform="translate(0 0)" style="fill:#00a7e1"/><path d="M1711.80005,872.7h57.1v40.6h.80005c11-27.5,40.6-46.5,69.8-46.5a43.80894,43.80894,0,0,1,13.1,2.1v55.8a107.606,107.606,0,0,0-21.6-2.1c-44,0-59.19995,31.7-59.19995,70.2v98.6h-60.1l.09985-218.7Z" transform="translate(0 0)" style="fill:#00a7e1"/><path d="M2068.7,1091.30005h-57.1v-30.5h-1.30005c-15.19995,24.5-41.5,36.4-66.8,36.4-63.9,0-80-36-80-90.1V872.7h60.1V996.2c0,35.99994,10.6,53.7,38.5,53.7,32.6,0,46.5-18.19995,46.5-62.6V872.7H2068.7Z" transform="translate(0 0)" style="fill:#00a7e1"/><path d="M2103.3999,872.7h56.7v29.6h.8c15.7-22.4,38.5-35.5,66.80005-35.5,27.5,0,52,10.2,63.8999,36.4,12.69995-19,35.5-36.4,66-36.4,46.5,0,80,21.6,80,78.3v146.4h-60.10009V967.3c0-29.2-2.5-53.3-36.80005-53.3-33.8,0-40.19995,27.9-40.19995,55.4v121.80005h-60.1001V968.6c0-25.4,1.7-54.6-36.3999-54.6-11.80005,0-40.6001,7.6-40.6001,50.3v126.9h-60.1001V872.7Z" transform="translate(0 0)" style="fill:#00a7e1"/><rect x="2814.8999" y="154.10001" width="109.30005" height="86.5" style="fill:#fff"/></svg>