<svg id="Layer_1" data-name="Layer 1" xmlns="http://www.w3.org/2000/svg" viewBox="0 0 3839 358.00003"><path d="M966,13.6H907.2c3.4-4.4,6.5-9,9.5-13.6H891.4c-16.5,21.2-39.9,40.2-68.5,53.2l16,16.6a206.05476,206.05476,0,0,0,52.2-37.9h57.6a162.53255,162.53255,0,0,1-35.9,35.8L884.7,45.4,873.3,59.8l23.4,18.5a199.18949,199.18949,0,0,1-70.4,24.5l14.5,20.1C911,108.3,962.4,62.4,981.9,13.6H966.1l-.1,0Z" transform="translate(0 0)" style="fill:#fff"/><polygon points="290.9 26.5 258 3.2 235 23.7 267.8 47 290.9 26.5" style="fill:#fff"/><path d="M211.2,90.5v18.3c68.2-2.4,123.1-35.3,151.2-79.8L346.9,18.1C322.4,57.5,272.8,88.3,211.2,90.5Z" transform="translate(0 0)" style="fill:#fff"/><path d="M495.6,41.1l-6.9-16.9a172.74776,172.74776,0,0,1-77.6,12.4L420.8,0H401.6L377.1,91.3a13.87847,13.87847,0,0,0,13.5,17.5h94l4.9-18.3H396.4L406,54.7A191.0444,191.0444,0,0,0,495.6,41.1Z" transform="translate(0 0)" style="fill:#fff"/><path d="M528.9,10c-2.6-6.5-12.4-8.8-21.9-5-9.4,3.8-14.8,12.2-12.2,18.8,2.6,6.5,12.4,8.8,21.9,5C526,24.9,531.6,16.5,528.9,10ZM514.2,22.9a18.29234,18.29234,0,0,1-6.7,1.4c-3.3,0-6-1.2-6.7-2.9s.5-3.7,1-4.5a16.76112,16.76112,0,0,1,7.7-5.9,18.29226,18.29226,0,0,1,6.7-1.4c3.3,0,6,1.1,6.7,2.9C524.1,15.1,520.6,20.2,514.2,22.9Z" transform="translate(0 0)" style="fill:#fff"/><polygon points="180.3 13.7 87.4 13.7 82.5 31.9 175.5 31.9 161.5 84 66.5 84 61.6 102.3 156.6 102.3 154.4 110.2 173.6 110.2 199.4 13.7 186.4 13.7 180.3 13.7" style="fill:#fff"/><polygon points="669.8 64.5 811.1 64.5 816.1 46.2 674.8 46.2 669.8 64.5" style="fill:#fff"/><path d="M1171.80005,92.1,1195.6001,3.8h-19.2L1145.7,118h0C1204.2,114.1,1253,87.9,1283.6,53.6l-15.1-13.8C1245.9,64.2,1212.2,84,1171.80005,92.1Z" transform="translate(0 0)" style="fill:#fff"/><path d="M987.6,59.3h65.6c-13.9,24.5-38.8,40.6-63.4,40.8l12.8,17.6c30.4-5.2,58.2-27.6,71.8-58.5h49.9l4.9-18.2H992.5Z" transform="translate(0 0)" style="fill:#fff"/><polygon points="1122.1 8 1020.8 8 1016 26.3 1117.2 26.3 1122.1 8" style="fill:#fff"/><polygon points="1583.2 8 1565.6 8 1560.9 25.4 1578.5 25.4 1583.2 8" style="fill:#fff"/><polygon points="1590 8 1585.4 25.4 1603.1 25.4 1607.8 8 1590 8" style="fill:#fff"/><rect x="1435.26108" y="7.50061" width="18.49968" height="17.3997" transform="translate(44.21014 371.21028) rotate(-14.86867)" style="fill:#fff"/><path d="M1428.9,11.5,1411,16.2l3.1,11.7c-21.9,7.7-51.4,14.3-76.30005,14.4L1347,8H1327.7l-22.4,83.3a13.87848,13.87848,0,0,0,13.5,17.5h93.2l5.5-18.3h-92.80005l8-29.7c32,.9,72.19995-9,98.19995-19.6l-4.5-11,6.9-1.8Z" transform="translate(0 0)" style="fill:#fff"/><polygon points="1610.8 51.3 1605.8 69.7 1746.8 69.7 1751.7 51.3 1610.8 51.3" style="fill:#fff"/><path d="M1866.30005,123.1l27-11a217.1652,217.1652,0,0,0-22.9-63.6l-26.6,10.9a197.689,197.689,0,0,1,14.1,31.1h-66A321.88122,321.88122,0,0,0,1852.6,8h-22.9A296.3972,296.3972,0,0,1,1763.5,90.5H1754l-5,18.3h114.29993C1864.5,113.6,1865.5,118.3,1866.30005,123.1Z" transform="translate(0 0)" style="fill:#fff"/><polygon points="637.3 22.7 629.6 22.7 618.2 22.7 561.3 22.7 556.4 41 613.2 41 603.3 78.1 529.4 78.1 524.4 96.6 598.3 96.6 617.5 96.6 640.1 96.6 645.1 78.1 622.4 78.1 637.3 22.7" style="fill:#fff"/><path d="M1542.2,31.7H1512.3999a287.27374,287.27374,0,0,0,18.9-23.9h-23.1a267.36543,267.36543,0,0,1-58.9,54.9L1460.1,77.6a267.18845,267.18845,0,0,0,34.19995-27.7H1536.6c-13.5,32.7-46.2,54-76.5,49.4l13.9,19.2c36.30005-2.9,70.1-30.4,82.80005-68.7h34.5l4.9-18.2v-.1H1561L1542.2,31.7Z" transform="translate(0 0)" style="fill:#fff"/><path d="M1099.5,235.6l-9.6,35.7h82.4l-13.6,50.8H898.1l36.8-137.5h323.2l9.6-35.7h-359c-14.7,0-29.9,11.9-33.8,26.7l-2.4,9.1-39.3,146.6c-3.9,14.7,4.7,26.7,19.5,26.7h359L1244.5,235.7h-145Z" transform="translate(0 0)" style="fill:#0898ff"/><path d="M509.1,271.3h257.7l9.6-35.7H518.7l13.6-50.8H855.5L865,149H506.1c-14.7,0-29.9,11.9-33.8,26.7L430.6,331.2c-3.9,14.7,4.7,26.7,19.5,26.7h359l9.6-35.7H495.5Z" transform="translate(0 0)" style="fill:#0898ff"/><path d="M391.8,235.6H95.3l13.6-50.8H432.1l9.6-35.7H82.8c-14.7,0-29.9,11.9-33.8,26.7l-18.5,69c-3.9,14.7,4.7,26.7,19.5,26.7H346.5l-13.7,50.8H9.6L0,357.9H359c14.7,0,29.9-11.9,33.8-26.7l18.4-69.1C415.3,247.5,406.5,235.6,391.8,235.6Z" transform="translate(0 0)" style="fill:#0898ff"/><polygon points="1409 148.9 1227.6 357.9 1298.1 357.9 1440 194.4 1499.5 278.4 1396.5 278.4 1366.2 314.1 1525 314.1 1556 357.9 1634.5 357.9 1486.2 148.9 1409 148.9" style="fill:#0898ff"/><polygon points="2340.9 148.9 2159.5 357.9 2229.8 357.9 2371.8 194.4 2431.4 278.4 2328.4 278.4 2298 314.1 2456.8 314.1 2487.9 357.9 2566.3 357.9 2418.1 148.9 2340.9 148.9" style="fill:#0898ff"/><polygon points="3038.4 148.9 2982.4 357.9 3044.9 357.9 3100.9 148.9 3038.4 148.9" style="fill:#0898ff"/><path d="M2986.5,241.9l17.8-66.3c3.8999-14.7-4.69995-26.7-19.5-26.7h-359L2569.7,357.9h62.5l46.3999-173.3H2939.2998l-12.8999,48.1H2702.7998l158.80005,125h98.5L2842,268.5h110.6001C2967.5,268.6,2982.6001,256.6,2986.5,241.9Z" transform="translate(0 0)" style="fill:#0898ff"/><polygon points="3412.2 148.9 3310.7 148.9 3075.3 258.4 3246.2 357.9 3347.7 357.9 3176.7 258.4 3412.2 148.9" style="fill:#0898ff"/><path d="M3801.7,49H3474l-2.8,10.4h23c7.8999,0,12.3999,6.8,10.19995,15.3l-69,257.4c-2.3,8.5-10.5,15.3-18.3,15.3h-23l-2.80005,10.4h365l2.80005-10.4h-23c-7.8999,0-12.3999-6.8-10.2-15.3l69-257.4c2.30005-8.5,10.5-15.3,18.30005-15.3h23L3839,49ZM3614.3999,74.8l-69,257.4c-2.3,8.5-10.5,15.3-18.3,15.3h-11c-7.8999,0-12.3999-6.8-10.2-15.3l69-257.4c2.30005-8.5,10.5-15.3,18.30005-15.3h11C3612.1001,59.5,3616.6001,66.3,3614.3999,74.8Zm110-.1-69,257.4c-2.19995,8.6-10.5,15.4-18.3,15.4h-11c-7.8999,0-12.3999-6.8-10.2-15.3l69-257.5c2.30005-8.5,10.5-15.3,18.30005-15.3h11C3722.1001,59.4,3726.6001,66.2,3724.3999,74.7Z" transform="translate(0 0)" style="fill:#0898ff"/><polygon points="2139.9 148.9 1955.5 302.8 1853.4 148.9 1791 148.9 1734.9 357.9 1797.4 357.9 1830.3 235.1 1911.9 357.9 1974.8 357.9 2115.5 240.7 2084 357.9 2146.5 357.9 2202.5 148.9 2139.9 148.9" style="fill:#0898ff"/></svg>