<?xml version="1.0" encoding="UTF-8" standalone="no"?>
<svg
   id="Layer_1"
   data-name="Layer 1"
   viewBox="0 0 3839 1955.26834"
   version="1.1"
   sodipodi:docname="test.svg"
   inkscape:version="1.1.2 (0a00cf5339, 2022-02-04, custom)"
   xmlns:inkscape="http://www.inkscape.org/namespaces/inkscape"
   xmlns:sodipodi="http://sodipodi.sourceforge.net/DTD/sodipodi-0.dtd"
   xmlns="http://www.w3.org/2000/svg"
   xmlns:svg="http://www.w3.org/2000/svg">
  <defs
     id="defs95" />
  <sodipodi:namedview
     id="namedview93"
     pagecolor="#ffffff"
     bordercolor="#666666"
     borderopacity="1.0"
     inkscape:pageshadow="2"
     inkscape:pageopacity="0.0"
     inkscape:pagecheckerboard="0"
     showgrid="false"
     inkscape:zoom="0.13922897"
     inkscape:cx="1210.2367"
     inkscape:cy="596.14032"
     inkscape:window-width="1920"
     inkscape:window-height="1017"
     inkscape:window-x="-8"
     inkscape:window-y="-8"
     inkscape:window-maximized="1"
     inkscape:current-layer="Layer_1" />
  <path
     d="M1927.2,215.4l34.6,34.6,20-20-30.1-30.1h66.9v16.4a5.37756,5.37756,0,0,1-5.4,5.4H1996V250h32a18.9491,18.9491,0,0,0,18.9-18.9V200h41.6V178.1H2047v-9.7h25.8V90.3H2007.6V80.6h81.00012V58.7h-81V46h-28.30005V58.7h-81.1V80.6h81.1v9.7H1914.1v78.1h104.60009v9.7h-120.5V200h44.4ZM2044.5,150.9h-36.9V134.1h36.9Zm0-43.1v8.8h-36.9v-8.8Zm-65.19995,8.8h-36.9v-8.8h36.9Zm-36.9,17.5h36.9v16.8h-36.9Z"
     transform="translate(0 -0.03171)"
     style="fill:#2c5aa0"
     id="path2" />
  <path
     d="M2155.7,189.1h0v-3.7h36.8v64.7h28.3V185.4H2257.7V200h0v16.4a5.37746,5.37746,0,0,1-5.3999,5.4H2235.1001v28.3h32A18.94908,18.94908,0,0,0,2286,231.2V154.7h0V58.6H2127.30029V189.2c.1001,17.7-10.60009,32.5-23.10009,45.1,6.69995,6.6,17.19995,15.5,23.8999,22.1A94.85962,94.85962,0,0,0,2155.7,189.1Zm0-32V136.2h36.8v20.9Zm102.1001-49.2h-36.8999v-21h36.8999Zm-65.3,0h-36.8v-21h36.8Zm28.3,49.2V136.2H2257.7v20.9Z"
     transform="translate(0 -0.03171)"
     style="fill:#2c5aa0"
     id="path4" />
  <rect
     x="2500.19995"
     y="59.56829"
     width="15.1001"
     height="45.5"
     style="fill:#2c5aa0"
     id="rect6" />
  <rect
     x="2534.3999"
     y="59.56829"
     width="15.1001"
     height="45.5"
     style="fill:#2c5aa0"
     id="rect8" />
  <path
     d="M3160,160.4c29,2,56.7,13.4,83.2,27.1,5-9.7,12.1001-26.1,17.1001-35.8A224.2905,224.2905,0,0,0,3160,126.9V64.5h-32.8V250.1H3160Z"
     transform="translate(0 -0.03171)"
     style="fill:#2c5aa0"
     id="path10" />
  <rect
     x="3308.6001"
     y="61.26829"
     width="122"
     height="32.8"
     style="fill:#2c5aa0"
     id="rect12" />
  <path
     d="M3545.1001,250h32.8V135.4a171.21137,171.21137,0,0,0,53.10009-70.9h-36a138.58586,138.58586,0,0,1-123.60009,74.9v32.8a170.62752,170.62752,0,0,0,73.7-16.5Z"
     transform="translate(0 -0.03171)"
     style="fill:#2c5aa0"
     id="path14" />
  <rect
     x="2387.1001"
     y="63.06829"
     width="93"
     height="32.8"
     style="fill:#2c5aa0"
     id="rect16" />
  <path
     d="M2552,191.3c16.5-.9,34.6001-5.9,51.8-14.3v73.1h32.80005V155.8c18.6001-15.5,33.3-35.5,39.5-58.3h-32.80005c-14.19995,34.7-65.8999,61.2-96.8,61.2Z"
     transform="translate(0 -0.03171)"
     style="fill:#2c5aa0"
     id="path18" />
  <path
     d="M2698.3999,217.7C2699.2,220.6,2706.2,248,2706.7,250c31.8999-3.5,63-26.3,85.3999-56,19.3,15,35.3,39.8,51.6001,63.7l23.8999-29.1c-17.3999-23.3-37.2-47.9-58.30005-62.2,10.2-20.2,16.30005-41.6,16.30005-61.3V72.3H2706v32.8h86.8C2792.7,130.5,2765.7,196.8,2698.3999,217.7Z"
     transform="translate(0 -0.03171)"
     style="fill:#2c5aa0"
     id="path20" />
  <rect
     x="3209"
     y="59.56829"
     width="15.1001"
     height="45.5"
     style="fill:#2c5aa0"
     id="rect22" />
  <rect
     x="3243.19995"
     y="59.56829"
     width="15.1001"
     height="45.5"
     style="fill:#2c5aa0"
     id="rect24" />
  <rect
     x="3823.8999"
     y="59.56829"
     width="15.1001"
     height="45.4"
     style="fill:#2c5aa0"
     id="rect26" />
  <path
     d="M3341.5,217.3h-37.8999l5.1001,32.8h32.8c69.6001,0,104-50.3,104-102.5h0V115.2h-160V148h127.2C3412.5,183.6,3389,217.3,3341.5,217.3Z"
     transform="translate(0 -0.03171)"
     style="fill:#2c5aa0"
     id="path28" />
  <path
     d="M2943.7,105h61.69995v10.1h.1001c0,58.4-54.1001,97.2-111.5,102.5,1.6001,11.5,3.5,22.9,5.1001,32.4,80.8-12.3,139.19995-59.7,139.19995-134.9H3038.2V96.8h0V72.2H2956c.8-2.5,1.5-4.9,2.2-7.3l-32.30005-8c-8.3999,30.2-22.1001,67.2-44.3,89.6l13.5,31.1C2915.2,158.9,2931.6001,132.4,2943.7,105Z"
     transform="translate(0 -0.03171)"
     style="fill:#2c5aa0"
     id="path30" />
  <path
     d="M3767.3999,118.3c0,62.4-36.69995,99.6-99,99.6h-5.1001s4.5,29,5,32.2c90.80005,0,131.89991-51.3,131.89991-131.7h0v-.1h0V105h0V59.6h-15.1001v41.9h-11.8999V72.3h-116.3v32.8h110.5v13.2Z"
     transform="translate(0 -0.03171)"
     style="fill:#2c5aa0"
     id="path32" />
  <polygon
     points="60.7 144.668 61.2 144.668 101.2 259.768 190.9 259.768 190.9 60.368 130.2 60.368 130.2 174.768 129.7 174.768 89.7 60.368 0 60.368 0 259.768 60.7 259.768 60.7 144.668"
     style="fill:#2c5aa0"
     id="polygon34" />
  <polygon
     points="399.1 144.668 399.6 144.668 439.6 259.768 529.3 259.768 529.3 60.368 468.7 60.368 468.7 174.768 468.2 174.768 428.1 60.368 338.4 60.368 338.4 259.768 399.1 259.768 399.1 144.668"
     style="fill:#2c5aa0"
     id="polygon36" />
  <polygon
     points="981.9 144.668 982.4 144.668 1022.4 259.768 1112.1 259.768 1112.1 60.368 1051.5 60.368 1051.5 174.768 1050.9 174.768 1010.9 60.368 921.2 60.368 921.2 259.768 981.9 259.768 981.9 144.668"
     style="fill:#2c5aa0"
     id="polygon38" />
  <rect
     x="227.5"
     y="60.3683"
     width="74.79999"
     height="199.30001"
     style="fill:#2c5aa0"
     id="rect40" />
  <polygon
     points="598.6 259.768 673.4 259.768 673.4 114.568 721.1 114.568 721.1 60.368 551 60.368 551 114.568 598.6 114.568 598.6 259.768"
     style="fill:#2c5aa0"
     id="polygon42" />
  <path
     d="M1332.6,162.2c0-59-24.1-101.8-99.7-101.8h-88.6V259.7h93.1C1295.5,259.7,1332.6,222.4,1332.6,162.2Zm-115.1,52.4V105.9h7.30005c12.1,0,20.1,3.7,24.80005,11.7,4.9,8.3,5.5,23.4,5.5,42.7,0,19.2-.5,34.3-5.5,42.6-4.7,8-12.80005,11.7-24.80005,11.7H1217.5Z"
     transform="translate(0 -0.03171)"
     style="fill:#2c5aa0"
     id="path44" />
  <path
     d="M1449.9,265.1c65.2,0,97.6-42.7,97.6-104.9s-32.5-105-97.6-105c-65.19995,0-97.6,42.8-97.6,105C1352.30005,222.3,1384.80005,265.1,1449.9,265.1Zm0-159.4c12,0,20.1,6.8,20.1,54.5,0,48.8-8.6,54.4-20.1,54.4s-20.19995-5.7-20.1-54.4C1429.80005,112.4,1437.9,105.7,1449.9,105.7Z"
     transform="translate(0 -0.03171)"
     style="fill:#2c5aa0"
     id="path46" />
  <path
     d="M1639.9,164.5c33.6,0,58.80005-25.4,58.80005-58.1,0-34.1-22.9-52.3-47.9-52.3-13,0-22.80005,3.2-30.6,10.1H1619.4c4.30005-15.2,17-28.6,48.6-30.1A98.06581,98.06581,0,0,1,1681.2,34L1681.3999.5A83.71769,83.71769,0,0,0,1667.2.2c-25.80005.6-46.9,8.2-63.30005,23.4C1586.7,39.7,1576.2,64.7,1576.2,94.3,1576.2,130.6,1595.5,164.5,1639.9,164.5Zm-20.5-67.7a18.57368,18.57368,0,0,1,17.4-11.7c13.69995,0,18.80005,12.3,18.9,23.6,0,13.3-6.2,23.8-16.5,23.8-14.1.1-20.2-13.3-21.1-26.1C1618.1,101.6,1618.4,98.8,1619.4,96.8Z"
     transform="translate(0 -0.03171)"
     style="fill:#f01b25"
     id="path48" />
  <path
     d="M1776.9,161.9h40V126.1h16.9V93.3h-16.9V2.3h-53.1l-53.4,95.1v28.7h66.5Zm-28-68.6.2-.5,13.1-26.5c5.6-11.1,9.9-21.3,14.9-32.1h.9c-.5,11.2-1.1,21.7-1.1,31.8V93.4Z"
     transform="translate(0 -0.03171)"
     style="fill:#f01b25"
     id="path50" />
  <polygon
     points="893.5 207.468 816.8 207.468 816.8 185.168 885.3 185.168 885.3 133.968 816.8 133.968 816.8 113.068 891.2 113.068 891.2 60.368 743.2 60.368 743.2 259.768 893.5 259.768 893.5 207.468"
     style="fill:#2c5aa0"
     id="polygon52" />
  <rect
     x="2044.40002"
     y="1696.66824"
     width="20.49988"
     height="61.80005"
     style="fill:#f01b25"
     id="rect54" />
  <rect
     x="2090.8999"
     y="1696.66824"
     width="20.5"
     height="61.80005"
     style="fill:#f01b25"
     id="rect56" />
  <path
     d="M1857.9,1823.5h100.2v28.6h0c0,25.4,6.3,40.19995-76,66.3l11.5,36.80005c60.4-15.5,109-33.30005,109-103.1h0v-28.6h83.50012V1779h-228.2v44.5Z"
     transform="translate(0 -0.03171)"
     style="fill:#f01b25"
     id="path58" />
  <rect
     x="2334.69995"
     y="1795.76834"
     width="160.30005"
     height="44.5"
     style="fill:#f01b25"
     id="rect60" />
  <rect
     x="1890.80005"
     y="1701.26834"
     width="126.30005"
     height="44.5"
     style="fill:#f01b25"
     id="rect62" />
  <polygon
     points="1251.3 1758.268 1406.7 1758.268 1406.7 1812.268 1259.3 1812.268 1259.3 1856.768 1406.7 1856.768 1406.7 1910.668 1251.2 1910.668 1251.2 1955.168 1451.2 1955.168 1451.2 1910.668 1451.2 1910.668 1451.2 1758.268 1451.3 1758.268 1451.3 1713.768 1251.3 1713.768 1251.3 1758.268"
     style="fill:#f01b25"
     id="polygon64" />
  <path
     d="M914.3,1713.80005h-200v44.5h.1v152.4h0v44.5h200v-44.4h0V1743.5h-.1Zm-155.5,44.5h111v152.4h-111Z"
     transform="translate(0 -0.03171)"
     style="fill:#f01b25"
     id="path66" />
  <path
     d="M2119.30005,1831.1l7.5,44.3c22.3999-1.19995,47-8,70.30005-19.4V1955.2h44.5v-127.9c25.19995-21.1,45.19995-48.19995,53.69995-79.3h-44.5C2231.3999,1795.2,2161.2,1831.1,2119.30005,1831.1Z"
     transform="translate(0 -0.03171)"
     style="fill:#f01b25"
     id="path68" />
  <path
     d="M1515.30005,1911.6s6.1,39.4,6.80005,43.69995c154.3-7.6,188.3-51.6,201.3-174l-42-12.19995c-2.8,80.69995-26.6,119.1-74.19995,134.4C1584.4,1910.80005,1549.30005,1912.80005,1515.30005,1911.6Z"
     transform="translate(0 -0.03171)"
     style="fill:#f01b25"
     id="path70" />
  <rect
     x="2740.3999"
     y="1696.66824"
     width="20.5"
     height="61.80005"
     style="fill:#f01b25"
     id="rect72" />
  <rect
     x="2786.80005"
     y="1696.66824"
     width="20.5"
     height="61.80005"
     style="fill:#f01b25"
     id="rect74" />
  <path
     d="M2553.80005,1823.6H2654v28.6h0c0,25.4,6.3,40.19995-76,66.30005l11.5,36.80005c60.3999-15.5,109-33.30005,109-103.1h0v-28.6H2782v-44.5h-228.2Z"
     transform="translate(0 -0.03171)"
     style="fill:#f01b25"
     id="path76" />
  <rect
     x="3030.69995"
     y="1795.86832"
     width="160.30005"
     height="44.5"
     style="fill:#f01b25"
     id="rect78" />
  <rect
     x="2586.69995"
     y="1701.26834"
     width="126.30005"
     height="44.5"
     style="fill:#f01b25"
     id="rect80" />
  <path
     d="M2815.30005,1831.1s7.30005,43.3,7.5,44.3c22.3999-1.19995,46.8999-8,70.2-19.3v99.1h44.5V1827.3999c25.3-21.19995,45.3-48.3,53.8-79.4h-44.5C2927.3999,1795.2,2857.2,1831.1,2815.30005,1831.1Z"
     transform="translate(0 -0.03171)"
     style="fill:#f01b25"
     id="path82" />
  <path
     d="M1075.1,1703.7l-43.9-10.9c-11.4,41.1-30.1,91.30005-60.2,121.7.9,2,18.4,42.3,18.4,42.3,27.4-25.3,49.7-61.19995,65.99994-98.5H1139.2V1772.1c0,79.19995-73.5,131.9-151.4,139.1,0,0,6.3,40.80005,6.8,44.1,109.8-16.69995,189.1-81.1,189.1-183.19995v-13.80005h0v-44.5H1072.1C1073.1,1710.4,1074.1,1707,1075.1,1703.7Z"
     transform="translate(0 -0.03171)"
     style="fill:#f01b25"
     id="path84" />
  <path
     d="M1627.30005,1735.6A417.4793,417.4793,0,0,0,1526,1701.29993c-2.9,14.6-5.80005,29.1-8.69995,43.7a370.9184,370.9184,0,0,1,88.9,29.9Z"
     transform="translate(0 -0.03171)"
     style="fill:#f01b25"
     id="path86" />
  <path
     d="M3283.5,382.8H2825V776c-59-230-239.7-393.2-534.1001-393.2H1832.49976v687.50006h-181.9V382.7H1249L899.4,1006C843.5,853.6,708.7,773.9,564.5,773.9c-98.7,0-172,23.9-231.2,75.8h-5.7c32.8-114.9,129-216.3,367.6-227.7,41.1-1.9,70-2.6,100.1-.5V368c-24.6-2.3-55.4-5-107.2-2.3-195.5,4.8-354.8,62.6-478.8,177.1C79.4,664.7.1,853.9.1,1077.4c0,274.79993,146.2,531.20008,482,531.1,200.5,0,360.8-119.30005,419.9-290.6h446.4v270.4l302.20008-.1v-270.4h181.9v270.5h458.40027c294.3999,0,475.1001-163.19995,534.1001-393.19995v393.19995h458.3999c365.3999,0,555.5-251.4,555.5-569.8v-66C3839,634.1,3648.80005,382.8,3283.5,382.8ZM477.3,1365.7h-1.6c-105.6,0-151.9-101.30005-158.5-197.6,0-35.80005,2.8-57.1,9.9-72,18.4-48.6,68-88.4,131-88.4,104,0,143,92.69995,143.5,178.1C601.6,1286.80005,555,1365.7,477.3,1365.7Zm871.1-502.6v207.3H1137.5l1.30005-3.8,99-200.8C1280,781.9,1312.5,704.5,1350.30005,623.1h6.4C1352.7,707,1348.4,786.7,1348.4,863.1Zm942.49988,476H2147.2998v-707h143.6001c113.1001,0,210.5,114.9,210.5,353.5S2404,1339.1,2290.8999,1339.1Zm992.6001,0H3139.8999v-707H3283.5c113.1001,0,210.5,114.9,210.5,353.5S3396.6001,1339.1,3283.5,1339.1Z"
     transform="translate(0 -0.03171)"
     style="fill:#3771c8"
     id="path88" />
  <path
     d="M2362.80005,120.4v32.8h73.80005v21c0,18.7,4.69995,29.6-56,48.8l8.5,27.1c44.5-11.4,80.3-24.5,80.3-75.9v-21h61.5V120.4Z"
     transform="translate(0 -0.03171)"
     style="fill:#2c5aa0"
     id="path90" />
</svg>
