<svg id="Layer_1" data-name="Layer 1" xmlns="http://www.w3.org/2000/svg" viewBox="0 0 3839 1000.40002"><path d="M2638,471.5,2490,640.6a22.535,22.535,0,0,1-33.90015-29.7L2578.2,471.4H2389.8999V985.8h179.5V651h110.7l158.39991-179.5Z" transform="translate(0 0)" style="fill:#fff"/><path d="M3270,722.1a267.28761,267.28761,0,0,0-45.5-149.5L3062,758.1l-9.5,10.9h-.1001a68.967,68.967,0,0,1-75.1001,17.6l85.2-97.3h0l133.3-152.2a267.31533,267.31533,0,0,0-193.8999-83c-148.1001,0-268.1001,120-268.1001,268.1s120,268.1,268.1001,268.1C3150,990.1,3270,870.1,3270,722.1Zm-337,0a69.00974,69.00974,0,0,1,69-69,67.87991,67.87991,0,0,1,27.3999,5.7l-86.5,98.8A68.16029,68.16029,0,0,1,2933,722.1Z" transform="translate(0 0)" style="fill:#fff"/><path d="M1311.4,758.1l-9.5,10.9h-.1a68.96677,68.96677,0,0,1-75.1,17.6L1311.9,689.3h0l133.30005-152.2a267.31521,267.31521,0,0,0-193.9-83c-148.1,0-268.1,120-268.1,268.1s120,268.1,268.1,268.1,268.1-120,268.1-268.1a267.28753,267.28753,0,0,0-45.5-149.5Zm-129.1-36a69.00982,69.00982,0,0,1,69-69,67.8809,67.8809,0,0,1,27.4,5.7l-86.5,98.8A68.15805,68.15805,0,0,1,1182.30005,722.1Z" transform="translate(0 0)" style="fill:#fff"/><path d="M2291.2,292V0L1885.1,465a269.421,269.421,0,0,0-76.2-11c-148.1,0-268.1,120-268.1,268.1s120,268.1,268.1,268.1S2077,870.2,2077,722.1a267.28761,267.28761,0,0,0-45.5-149.5L1869,758.1l-9.5,10.9h-.1a68.96536,68.96536,0,1,1,10.1-79.80005L2002.80005,537a269.00485,269.00485,0,0,0-98.4-65.5H2060.1001l110.3-126a22.499,22.499,0,0,1,31.80005-2.1h0a22.49906,22.49906,0,0,1,2.10009,31.8l-84.30005,96.3h0l-9.10009,10.4V985.8h179.5V471.5h99.5L2548.30005,292Z" transform="translate(0 0)" style="fill:#fff"/><path d="M3839,471.5H3629.2l-148.1001,169.1a22.535,22.535,0,0,1-33.90014-29.7L3569.2998,471.4h-392.8L3402.8999,730,3179,985.8h209.8l145.6001-166.3a22.535,22.535,0,0,1,33.90014,29.7l-119.7,136.7h388l-224-255.9Z" transform="translate(0 0)" style="fill:#fff"/><path d="M942.6,292l-347,396.3a32.67123,32.67123,0,0,1-49.2-43L855.8,292H0l620.1,708.4L1240.30005,292Z" transform="translate(0 0)" style="fill:#ccc"/></svg>