<svg id="Layer_1" data-name="Layer 1" xmlns="http://www.w3.org/2000/svg" xmlns:xlink="http://www.w3.org/1999/xlink" viewBox="0 0 3839.03453 684.20001">
  <defs>
    <linearGradient id="Dégradé_sans_nom" data-name="Dégradé sans nom" x1="1714.35704" y1="600.48983" x2="1714.35704" y2="65.48987" gradientTransform="matrix(1, 0, 0, -1, 0, 683.88983)" gradientUnits="userSpaceOnUse">
      <stop offset="0.2309" stop-color="#ff2727"/>
      <stop offset="0.8932" stop-color="#ffc600"/>
    </linearGradient>
    <linearGradient id="Dégradé_sans_nom_2" data-name="Dégradé sans nom 2" x1="2770.05704" y1="600.48983" x2="2770.05704" y2="65.48987" xlink:href="#Dégradé_sans_nom"/>
    <linearGradient id="Dégradé_sans_nom_3" data-name="Dégradé sans nom 3" x1="730.25" y1="602.38983" x2="730.25" y2="65.58984" xlink:href="#Dégradé_sans_nom"/>
    <linearGradient id="Dégradé_sans_nom_4" data-name="Dégradé sans nom 4" x1="1249.13073" y1="600.58979" x2="1249.13073" y2="64.98981" xlink:href="#Dégradé_sans_nom"/>
    <linearGradient id="Dégradé_sans_nom_5" data-name="Dégradé sans nom 5" x1="303.90116" y1="629.38983" x2="303.90116" y2="54.28986" xlink:href="#Dégradé_sans_nom"/>
    <linearGradient id="Dégradé_sans_nom_6" data-name="Dégradé sans nom 6" x1="2304.00536" y1="629.38983" x2="2304.00536" y2="54.28986" xlink:href="#Dégradé_sans_nom"/>
    <linearGradient id="Dégradé_sans_nom_7" data-name="Dégradé sans nom 7" x1="3588.81664" y1="600.38985" x2="3588.81664" y2="65.18982" xlink:href="#Dégradé_sans_nom"/>
    <linearGradient id="Dégradé_sans_nom_8" data-name="Dégradé sans nom 8" x1="3130.94995" y1="602.38983" x2="3130.94995" y2="65.48981" xlink:href="#Dégradé_sans_nom"/>
  </defs>
  <g>
    <path d="M3387.3999,643.2l-2.6001-29.7-41.10009-462.4c-3.3-36.6-20.1001-69.3-47.3-92.1a138.63653,138.63653,0,0,0-88.8999-32,133.95578,133.95578,0,0,0-75.30005,22.7,137.035,137.035,0,0,0-49.8,61.2v.2l-201.3,486.5-15.6001,37.7a27.23318,27.23318,0,0,0,25.19995,37.7h175.80005a27.24033,27.24033,0,0,0,25.19995-16.8l7-16.8,27.7-66.9h36.89991l4.60009,50.9,2.2,24.8a27.21541,27.21541,0,0,0,27.2,24.8h163.09985A27.122,27.122,0,0,0,3387.3999,643.2ZM3330.5,645.6H3197.2002l-2.2-24.8-6.8-75.7h-80.1001l-34.7,83.7-7,16.8h-175.8l15.6001-37.7,201.3-486.5h0c17.30005-41.4,55.6001-67.1,99.89991-67.1a111.31183,111.31183,0,0,1,71.3999,25.6c21.6001,18.1,35,44.2,37.6001,73.6l41.10009,462.4,2.6001,29.7Z" transform="translate(0.01027 0)" style="fill: #fff"/>
    <path d="M2977.8999,56.1l-4.6001,31.3-15.8999,107.7L2954,218.4H2780.6001l-8.2,54.5h145l-4.6001,31.2-15.8,108-3.3999,23.3H2748.2l-7.1001,47.7H2914l-4.7,31.3L2893.2,622.4l-3.5,23.2h-233a90.17892,90.17892,0,0,1-89.09985-103.4l61.5-409.3a89.45171,89.45171,0,0,1,30.3-54.9,90.37886,90.37886,0,0,1,58.80005-21.8h259.6997M2946.30005,83.4H2718.2a62.763,62.763,0,0,0-62.2,53.5l-61.5,409.4a62.93414,62.93414,0,0,0,62.2,72.1H2866l16.1001-108h-173l15.3-102.2H2869.7002l15.8-108h-145l16.39991-109.1h173.3999l16-107.69995M2913.7,483.1h0M2977.8999,28.9H2718.19971a117.31591,117.31591,0,0,0-116.1001,100l-61.5,409.3a117.49116,117.49116,0,0,0,116.09985,134.8H2889.5a27.32161,27.32161,0,0,0,27-23.2l3.5-23.2,16.1001-108,4.6001-30.6a24.17845,24.17845,0,0,0,.3999-4.7,27.271,27.271,0,0,0-27.30005-27.3h-2.3999a27.19168,27.19168,0,0,0,8.8999-16.5l3.3999-23.3,15.8-108,4.6001-31.2a27.14714,27.14714,0,0,0-26.90015-31.2h36.59985a27.32046,27.32046,0,0,0,27-23.3l3.39991-23.3,15.8999-107.7,4.6001-31.3a27.06511,27.06511,0,0,0-6.3-21.8A26.6104,26.6104,0,0,0,2977.8999,28.9Zm0,54.5ZM2656.6001,591.1a34.83241,34.83241,0,0,1-26.8999-12.4,35.61445,35.61445,0,0,1-8.30005-28.5l61.5-409.3a35.28013,35.28013,0,0,1,35.2-30.2h196.5l-7.8999,53.2H2756.80029a27.32158,27.32158,0,0,0-27,23.2l-16.3999,109.1a27.0651,27.0651,0,0,0,6.30005,21.8,27.35694,27.35694,0,0,0,20.69995,9.5H2854l-7.8,53.5H2724.3999a27.32158,27.32158,0,0,0-27,23.2l-15.3,102.2a27.0651,27.0651,0,0,0,6.3,21.8,27.35694,27.35694,0,0,0,20.7,9.5h141.3l-8,53.5H2656.6001Z" transform="translate(0.01027 0)" style="fill: #fff"/>
    <path d="M2340.3999,27.3a224.93763,224.93763,0,0,1,101.8999,24.5c25.39991,12.7,49.6001,30.4,72,52.5,37.6001,37.1,57.2,74.3,58,75.9l12.6001,24.2L2560.7,217l-96.1001,50.2-23.60009,12.5-12.80005-23.3a191.37583,191.37583,0,0,0-27.19995-35.1c-14-14.1-35.80005-30.9-60.6001-30.9-37.6001,0-73.8999,19.3-102.2,54.3-26.19995,32.4-42.89991,75.1-44.69995,114.1-2.1001,44.7,7.8,79,29.5,101.7,20.8,21.8,46.8,26.6,55.10009,26.6,28.89991,0,56.5-11.3,79.3-31.6H2246.7l15.6001-37.7,44.7-108,7-16.8h186.8999a79.57564,79.57564,0,0,1,76.3999,102.3c-11.5,38.4-38.8999,111.7-93.3,171.4-25.2,27.7-53.39991,49.3-83.80005,64.4-34.5,17.1-71.89991,25.7-111.39991,25.7-26.8,0-58.3-6.8-88.69995-19.2-36.7-15-70.2-37.6-96.7-65.3a266.43933,266.43933,0,0,1-57.3-92.7c-14.4-39.4-20.5-83.9-18.2-132.2,3.4-71.3,36.3999-150,88.30005-210.6,28.3999-33.2,61.1001-59.5,96.8999-78.2a273.86015,273.86015,0,0,1,127.3-31.3M2288.7,629.6c148.8,0,230.5-135.9,262.3999-242.1,10.1001-33.6-15.2-67.3-50.2-67.3H2332.2l-44.7,108h125.8c-27.69995,49.5-77.1001,86.1-135.3,86.1-29.3999,0-118-26.7-111.8-156.9,4.1001-87.4,73.19995-194.4,174.19995-194.4,67,0,111.6001,79.9,111.6001,79.9l96.1001-50.2s-72.1001-138.2-207.7-138.2c-168.19995,0-279.39991,168.6-285.3,294.2C2045,564,2214.80005,629.6,2288.7,629.6M2340.3999,0A300.34991,300.34991,0,0,0,2200.5,34.5c-39,20.3-74.3,48.7-105.1001,84.6-55.8,65.1-91.19995,150-94.8,227.1-2.4,51.9,4.19995,99.9,19.8,142.8a291.65573,291.65573,0,0,0,63.2,102.2c29.1001,30.5,65.8,55.3,106.1001,71.8,33.6001,13.7,68.69995,21.2,99,21.2,43.69995,0,85.19995-9.6,123.5-28.6,33.5-16.6,64.3999-40.3,91.8999-70.5,58-63.7,87.1001-141.3,99.19995-181.9a106.81808,106.81808,0,0,0-81.20019-135.3l51.3-26.8,24.2-12.6a27.27012,27.27012,0,0,0,11.5-36.8l-12.6001-24.2c-2.2-4.3-23.1001-43.2-63-82.7-24.3999-24.1-50.8999-43.4-78.8999-57.4C2418.30005,9.2,2379.8999,0,2340.3999,0ZM2288.7,602.3c-39.2,0-101.6001-21.2-145.8999-67.7-43.69995-45.9-64.1001-108-60.5-184.7,5.30005-112,106-268.2,258.1001-268.2,85.60009,0,143.3999,64.7,168.8999,100.4l-48.3,25.2a230.59694,230.59694,0,0,0-20.2-23.5c-30.8-31.5-65.5-48.2-100.3999-48.2-54.39991,0-105.8,26.5-144.6001,74.6a266.38722,266.38722,0,0,0-40.19995,70c-9.7,25-15.3999,51.2-16.6001,75.8-1.5,31.5,2,60,10.3999,84.7,7.5,22.1,19,41.4,34.1001,57.2,30.6001,32.1,70.1001,43.5,94.5,43.5,33,0,65.5-10,94.1001-29,26.3-17.4,48.69995-42,64.8999-71a27.31262,27.31262,0,0,0-23.8-40.6h-85l22.1001-53.4H2500.7a24.96268,24.96268,0,0,1,20.19995,10.1,24.45975,24.45975,0,0,1,3.8999,22C2509.30005,431.9,2446,602.3,2288.7,602.3Zm-58.2-178.9c-7.7-16.3-11-37.5-9.7-63.5,1.6001-33.4,16.1001-70.2,38.7-98.3,23-28.5,51.7-44.2,81-44.2,16.2,0,32.8,14.3,41.2,22.8a167.18031,167.18031,0,0,1,20.3999,25.4H2314a27.24036,27.24036,0,0,0-25.2,16.8l-7,16.8-44.69995,108L2230.5,423.4Z" transform="translate(0.01027 0)" style="fill: #fff"/>
    <path d="M3628.30005,56.1c21.2,0,43.8999,5.3,65.7,15.4,20.8999,9.6,40.8999,23.7,58.1001,40.5a205.93045,205.93045,0,0,1,42.69995,60.3,179.16628,179.16628,0,0,1,17,75.7v.5A199.94526,199.94526,0,0,1,3800.2,317.9,186.06072,186.06072,0,0,1,3744,399a87.94616,87.94616,0,0,1,13.1001,31.2l2.3,10.7,3.10009,14.4.1001.3,1.3999,6.6h0l32.39991,150.4,7.10009,33h-167l-4.60009-21.5-33.8-156.6a16.3646,16.3646,0,0,0-15.8999-12.8h-25.80005L3529.2002,622.6l-3.7,22.9h-164.5l5.1001-31.6,77.8999-482.2A90.03983,90.03983,0,0,1,3532.90015,56h95.3999M3393.1001,618.3h109.3l30.8999-190.8h49a43.65488,43.65488,0,0,1,42.6001,34.4l33.80005,156.6h111.19995L3737.3999,468,3736,461.4l-.1001-.3c-1-4.6-2.6001-12.3-5.3999-25.1-6.8999-32-31-39.2-31-39.2,89.3-49.9,85-142.5,85-148.6,0-91.4-85.3999-164.7-156.2-164.7H3533a62.67236,62.67236,0,0,0-62,52.8l-77.8999,482M3628.30005,28.9H3533a117.42027,117.42027,0,0,0-115.90015,98.6L3339.2,609.7l-5.1001,31.6a27.33566,27.33566,0,0,0,27,31.6h164.5a27.19923,27.19923,0,0,0,26.89991-22.9l3.69995-22.9,20.80005-128.4,28.3999,131.3,4.6001,21.5a27.2774,27.2774,0,0,0,26.60009,21.5h167a27.33171,27.33171,0,0,0,21.19995-10.1,26.967,26.967,0,0,0,5.39991-22.9l-7.1001-33-32.3999-150.4h0l-1.39991-6.6-.10009-.4-3.1001-14.4-2.30005-10.7a128.44674,128.44674,0,0,0-6-19.7,212.17119,212.17119,0,0,0,48.1001-77.8,228.49368,228.49368,0,0,0,13.1001-78.9v-.3a205.7605,205.7605,0,0,0-19.5-86.9,232.15831,232.15831,0,0,0-48.30005-68.3,235.90326,235.90326,0,0,0-65.8-45.9C3680.1001,35.1,3653.3999,28.9,3628.30005,28.9ZM3425.1001,591.1l72.8-450.5a35.47313,35.47313,0,0,1,35.10009-29.9h95.39991c58,0,128.8999,63.4,128.8999,137.5v1.2c.30005,19.5-4,86.1-71.1001,123.6a27.28533,27.28533,0,0,0,4.69995,49.7c1.8999.8,9.8999,4.9,13,19.1l1.8999,8.7,3.5,16.4.1001.3c1,4.8,1.30005,6.2,1.3999,6.6h0l25.30005,117.4H3680.7l-29.2-135.1a70.72619,70.72619,0,0,0-69.2-55.8h-49a27.19922,27.19922,0,0,0-26.8999,22.9l-27.19995,167.9h-54.1001Z" transform="translate(0.01027 0)" style="fill: #fff"/>
    <path d="M1922.2,56.1h0m0,0-4.6,31.3-15.9,107.7-3.4,23.3h-173.4L1716.7,272.9h145l-4.6,31.2-15.80005,108-3.4,23.3h-145.4l-7.1,47.7h172.9L1853.6,514.4l-16.1,108-3.5,23.2H1601a90.17911,90.17911,0,0,1-89.1-103.4l61.5-409.3a89.45239,89.45239,0,0,1,30.30005-54.9,90.37886,90.37886,0,0,1,58.8-21.8H1922.2M1601,618.3h209.29993l16.1-108h-173L1668.7,408.1H1814l15.80005-108h-145l16.4-109.1h173.4l15.9-107.7h-228.1a62.76313,62.76313,0,0,0-62.19995,53.5l-61.5,409.4A63.00544,63.00544,0,0,0,1601,618.3M1922.2,28.9H1662.5a117.31591,117.31591,0,0,0-116.1,100l-61.5,409.3a117.49118,117.49118,0,0,0,116.1,134.8h232.79993a27.32161,27.32161,0,0,0,27-23.2l3.5-23.2,16.1-108,4.7-31.3a27.06464,27.06464,0,0,0-6.30005-21.8,27.35694,27.35694,0,0,0-20.69995-9.5h-2.4a27.1918,27.1918,0,0,0,8.9-16.5l3.4-23.3,15.8-108,4.6-31.2a27.14714,27.14714,0,0,0-26.9-31.2H1898.1a27.32046,27.32046,0,0,0,27-23.3l3.4-23.3,15.9-107.7,4.5-30.6a23.83,23.83,0,0,0,.4-4.6A26.99835,26.99835,0,0,0,1922.2,28.9Zm0,54.5ZM1601,591.1a34.833,34.833,0,0,1-26.9-12.4,35.61445,35.61445,0,0,1-8.30005-28.5l61.5-409.3a35.28013,35.28013,0,0,1,35.2-30.2H1859l-7.9,53.2H1701.2a27.32158,27.32158,0,0,0-27,23.2l-16.4,109.1a27.06464,27.06464,0,0,0,6.30005,21.8,27.35694,27.35694,0,0,0,20.69995,9.5h113.5l-7.8,53.5H1668.69983a27.32158,27.32158,0,0,0-27,23.2l-15.30005,102.2a27.06467,27.06467,0,0,0,6.30005,21.8,27.35694,27.35694,0,0,0,20.69995,9.5h141.30005l-8,53.5H1601Z" transform="translate(0.01027 0)" style="fill: #fff"/>
    <path d="M806.8,54.3a111.31239,111.31239,0,0,1,71.4,25.6c21.6,18.1,35,44.2,37.6,73.6l41.1,462.4.2,2.3.6-4L1028.5,143.6c4.1-27,16.9-49.7,37.1-65.6,18-14.2,40.9-21.9,64.69995-21.9a104.79531,104.79531,0,0,1,63.7,21.3c20,15.4,32.9,37.5,37.5,63.8l27.9,160L1348.7,113.9C1365.8999,77.7,1399.5,56,1438.3999,56c30.2,0,59.80005,13.4,79.1,35.9,18.8,21.8,26.6,50.4,22.1,80.3l-67.7,450.1-3.5,23.2H1304.1001l4.69995-31.3,8.6-57.1-20.19995,42.5a80.18719,80.18719,0,0,1-73.5,46.6,83.69555,83.69555,0,0,1-51.1-17.4c-15.9-12.4-26.2-29.8-29.80005-50.3l-8.4-47.9-13.8,91.7-3.5,23.2H796.5l-2.2-24.8-6.8-75.7H707.4l-34.7,83.7-7,16.8H489.9l15.6-37.7,201.3-486.5h0c8.9-21.4,23.5-38.9,42-50.6A109.50478,109.50478,0,0,1,806.8,54.3m-276.1,564H647.5l41.6-100.6H812.4l9,100.6H929.8L888.7,155.9c-4.3-47.8-43-74.4-81.9-74.4-30.2,0-60.4,16-74.8,50.4L530.7,618.3M1247.2,390.2,1204.6,146c-7.30005-41.8-40.80005-62.6-74.4-62.6-34.19995,0-68.30005,21.5-74.80005,64.3l-70.8,470.6h108.99994l38.8-257.4,37.2,212.9c5.1,29.1,29.4,45.1,54,45.1,19.3,0,38.8-9.8,48.9-31l99.1-208.1-35.80005,238.5H1445L1512.7,168.2C1520.5,116.6,1479.5,83.3,1438.5,83.3c-25.5,0-51.19995,12.9-65.1,42.3L1247.2,390.2M806.8,27a136.20261,136.20261,0,0,0-72.5,20.7c-23.3,14.7-41.5,36.5-52.6,63.1,0,.1-.1.2-.1.3L480.3,597.5l-15.6,37.7A27.23317,27.23317,0,0,0,489.9,672.9H665.7a27.24046,27.24046,0,0,0,25.2-16.8l7-16.8,27.7-66.9h36.9l4.6,50.9,2.2,24.8a27.21538,27.21538,0,0,0,27.2,24.8H1117.1a27.39877,27.39877,0,0,0,27-23.2l1.3-8.6a102.85152,102.85152,0,0,0,10.4,9.3,110.777,110.777,0,0,0,67.80005,23.2,109.229,109.229,0,0,0,55.9-15.3c.1-.1.2-.1.30005-.2a27.49239,27.49239,0,0,0,24.29993,14.8H1468.5a27.3216,27.3216,0,0,0,27-23.2l3.5-23.2,67.69995-450.1c5.69995-37.9-4.30005-74.2-28.4-102.2-24.4-28.4-61.69995-45.3-99.8-45.3a124.58954,124.58954,0,0,0-67.80005,19.7c-19.80005,12.8-35.9,31.4-46.6,53.7l-52.5,110.1-13.2-75.8c-5.8-33.2-22.3-61.1-47.69995-80.7-22.5-17.4-51.1-27-80.4-27a132.60327,132.60327,0,0,0-81.6,27.8c-25.7,20.3-42,49-47.1,82.9l-37.4,248.9L943,151.1c-3.3-36.6-20.1-69.3-47.3-92.1a138.085,138.085,0,0,0-88.9-32ZM757.2,142.3c12.7-30.3,38.9-33.5,49.6-33.5,24.2,0,51.7,15.5,54.7,49.6L900,591.1H846.4l-6.8-75.7a27.21536,27.21536,0,0,0-27.2-24.8H689.2A27.24051,27.24051,0,0,0,664,507.4l-34.7,83.7H571.5L757.2,142.3ZM1247.2,417.5a27.40678,27.40678,0,0,0,24.6-15.5l126.1-264.5c11.1-23.3,30.1-26.8,40.5-26.8,14.6,0,28.7,6.3,37.80005,16.9,8.5,9.9,11.69995,22.2,9.5,36.6L1421.5,591.1h-54L1398.6,384a27.28688,27.28688,0,0,0-51.6-15.8l-99.1,208.1c-6.4,13.5-17.9,15.5-24.3,15.5-10.7,0-24.2-5.9-27.1-22.6l-37.19995-212.9a27.261,27.261,0,0,0-26.9-22.6h-.3a27.25908,27.25908,0,0,0-26.6,23.2L1070.2,591.1h-53.9l66-439.3c4.6-30.3,28.6-41.1,47.80005-41.1,19.6,0,42.4,10.5,47.5,40l42.6,244.2a27.16639,27.16639,0,0,0,23.19995,22.3,25.30987,25.30987,0,0,0,3.80005.3Z" transform="translate(0.01027 0)" style="fill: #fff"/>
    <path d="M340.3,27.3A224.93809,224.93809,0,0,1,442.2,51.8c25.4,12.7,49.6,30.4,72,52.5,37.6,37.1,57.2,74.3,58,75.9l12.6,24.2-24.2,12.6-96.1,50.2-23.6,12.5-12.9-23.3a189.22836,189.22836,0,0,0-27.2-35.1c-14-14.1-35.8-30.9-60.6-30.9-37.6,0-73.9,19.3-102.2,54.3-26.2,32.4-42.9,75.1-44.7,114.1-2.1,44.7,7.8,79,29.5,101.7,20.8,21.8,46.8,26.6,55.1,26.6,28.9,0,56.5-11.3,79.3-31.6h-110.7l15.6-37.7,44.7-108,7-16.8h186.9a79.57579,79.57579,0,0,1,76.4,102.3c-11.5,38.4-38.9,111.7-93.3,171.4-25.2,27.7-53.4,49.3-83.8,64.4-34.5,17.1-71.9,25.7-111.4,25.7-26.8,0-58.3-6.8-88.7-19.2-36.7-15-70.2-37.6-96.7-65.3a266.43773,266.43773,0,0,1-57.3-92.7c-14.4-39.4-20.5-83.9-18.2-132.2,3.4-71.3,36.4-150,88.3-210.6,28.4-33.2,61.1-59.5,96.9-78.2A274.25784,274.25784,0,0,1,340.3,27.3M288.6,629.6c148.8,0,230.5-135.9,262.4-242.1,10.1-33.6-15.2-67.3-50.2-67.3H332.1l-44.7,108H413.2c-27.7,49.5-77.1,86.1-135.3,86.1-29.4,0-118-26.7-111.8-156.9,4.1-87.4,73.2-194.4,174.2-194.4,67,0,111.6,79.9,111.6,79.9l96.1-50.2s-72.1-138.2-207.7-138.2C172,54.5,60.9,223.2,55,348.7,44.8,564,214.6,629.6,288.6,629.6M340.3,0A300.35049,300.35049,0,0,0,200.4,34.5c-39,20.3-74.3,48.7-105.1,84.6C39.6,184.1,4.1,269,.5,346.1-2,398,4.7,446.1,20.3,488.9A291.65389,291.65389,0,0,0,83.5,591.1c29.1,30.5,65.8,55.3,106.1,71.8,33.6,13.7,68.7,21.2,99,21.2,43.7,0,85.2-9.6,123.5-28.6,33.5-16.6,64.4-40.3,91.9-70.5,58-63.7,87.1-141.3,99.2-181.9a106.818,106.818,0,0,0-81.2-135.3l51.3-26.8,24.2-12.6a27.27016,27.27016,0,0,0,11.5-36.8l-12.6-24.2c-2.2-4.3-23.1-43.2-63-82.7-24.4-24.1-50.9-43.4-78.9-57.4C418.2,9.2,379.8,0,340.3,0ZM288.6,602.3c-39.2,0-101.6-21.2-145.9-67.7C99,488.7,78.6,426.6,82.2,349.9c5.3-112,106-268.2,258.1-268.2,48.4,0,93.6,20.2,134.4,60.1a297.54549,297.54549,0,0,1,34.4,40.3l-48.3,25.2a230.60858,230.60858,0,0,0-20.2-23.5c-30.8-31.5-65.5-48.2-100.4-48.2-54.4,0-105.8,26.5-144.6,74.6a266.386,266.386,0,0,0-40.2,70c-9.7,25-15.4,51.2-16.6,75.8-1.5,31.5,2,60,10.4,84.7,7.5,22.1,19,41.4,34.1,57.2,30.6,32.1,70.1,43.5,94.5,43.5,33,0,65.5-10,94.1-29,26.3-17.4,48.7-42,64.9-71A27.31256,27.31256,0,0,0,413,400.8H328l22.1-53.4H500.5a24.96284,24.96284,0,0,1,20.2,10.1,24.46019,24.46019,0,0,1,3.9,22C509.2,431.9,445.9,602.3,288.6,602.3ZM230.3,423.4c-7.7-16.3-11-37.5-9.7-63.5,1.6-33.4,16.1-70.2,38.7-98.3,23-28.5,51.7-44.2,81-44.2,16.2,0,32.8,14.3,41.2,22.8a167.18788,167.18788,0,0,1,20.4,25.4h-88a27.24051,27.24051,0,0,0-25.2,16.8l-7,16.8L237,407.2l-6.7,16.2Z" transform="translate(0.01027 0)" style="fill: #fff"/>
    <path d="M1890.6,83.4H1662.5a62.76314,62.76314,0,0,0-62.19995,53.5l-61.5,409.4A62.9342,62.9342,0,0,0,1601,618.4h209.29993l16.1-108h-173L1668.7,408.2H1814l15.80005-108h-145l16.4-109.1h173.4Z" transform="translate(0.01027 0)" style="fill: url(#Dégradé_sans_nom)"/>
    <path d="M2946.30005,83.4H2718.2a62.763,62.763,0,0,0-62.2,53.5l-61.5,409.4a62.93414,62.93414,0,0,0,62.2,72.1H2866l16.1001-108h-173l15.3-102.2H2869.7002l15.8-108h-145l16.39991-109.1h173.3999Z" transform="translate(0.01027 0)" style="fill: url(#Dégradé_sans_nom_2)"/>
    <path d="M806.8,81.5c-30.2,0-60.4,16-74.8,50.4L530.7,618.3H647.5l41.6-100.6H812.4l9,100.6H929.8L888.7,155.9C884.4,108.1,845.7,81.5,806.8,81.5ZM733.9,409.8l56.8-137.1,12.2,137.1Z" transform="translate(0.01027 0)" style="fill: url(#Dégradé_sans_nom_3)"/>
    <path d="M1373.30005,125.7l-126.1,264.5L1204.6,146c-7.30005-41.8-40.80005-62.6-74.4-62.6-34.19995,0-68.30005,21.5-74.80005,64.3l-70.8,470.6h108.99994l38.8-257.4,37.2,212.9c5.1,29.1,29.4,45.1,54,45.1,19.3,0,38.8-9.8,48.9-31l99.1-208.1-35.80005,238.5H1445L1512.7,168.2C1520.5,116.6,1479.5,83.3,1438.5,83.3,1412.9,83.4,1387.2,96.3,1373.30005,125.7Z" transform="translate(0.01027 0)" style="fill: url(#Dégradé_sans_nom_4)"/>
    <path d="M548,192.7S475.9,54.5,340.3,54.5C172,54.5,60.9,223.2,55,348.7,44.8,564,214.6,629.6,288.6,629.6c148.8,0,230.5-135.9,262.4-242.1,10.1-33.6-15.2-67.3-50.2-67.3H332.1l-44.7,108H413.2c-27.7,49.5-77.1,86.1-135.3,86.1-29.4,0-118-26.7-111.8-156.9,4.1-87.4,73.2-194.4,174.2-194.4,67,0,111.6,79.9,111.6,79.9Z" transform="translate(0.01027 0)" style="fill: url(#Dégradé_sans_nom_5)"/>
    <path d="M2548.1001,192.7S2476,54.5,2340.40015,54.5c-168.19995,0-279.39991,168.6-285.3,294.2C2045,564,2214.80005,629.6,2288.7,629.6c148.8,0,230.5-135.9,262.3999-242.1,10.1001-33.6-15.2-67.3-50.2-67.3H2332.2l-44.7,108h125.8c-27.69995,49.5-77.1001,86.1-135.3,86.1-29.3999,0-118-26.7-111.8-156.9,4.1001-87.4,73.19995-194.4,174.19995-194.4,67,0,111.6001,79.9,111.6001,79.9Z" transform="translate(0.01027 0)" style="fill: url(#Dégradé_sans_nom_6)"/>
    <path d="M3737.3999,468,3736,461.4l-.1001-.3c-1-4.6-2.6001-12.3-5.3999-25.1-6.8999-32-31-39.2-31-39.2,89.3-49.9,85-142.5,85-148.6,0-91.4-85.3999-164.7-156.2-164.7H3533a62.67236,62.67236,0,0,0-62,52.8l-77.8999,482.2h109.3l30.8999-190.8h49a43.65489,43.65489,0,0,1,42.6001,34.4l33.80005,156.6h111.19995L3737.3999,468Zm-139-148.4H3550.7l20.5-128.4h45c21.3,0,42.3999,21.3,47.1001,46.9C3670.5,276.1,3641.2,319.6,3598.3999,319.6Z" transform="translate(0.01027 0)" style="fill: url(#Dégradé_sans_nom_7)"/>
    <path d="M1662.5,56.1a90.02927,90.02927,0,0,0-89.1001,76.7l-61.5,409.3a90.17911,90.17911,0,0,0,89.1,103.4H1833.7998l3.5-23.2,16.1-108,4.69995-31.3h-172.9l7.1-47.7h145.4l3.4-23.3,15.80005-108,4.6-31.2h-145l8.2-54.5h173.4l3.4-23.3,15.9-107.7,4.6-31.3H1662.5ZM1874.7,191.1h-173.4l-16.4,109.1h145l-15.8,108H1668.7998l-15.3,102.2h173l-16.1,108H1601a62.9341,62.9341,0,0,1-62.19995-72.1l61.5-409.4A62.76313,62.76313,0,0,1,1662.5,83.4h228.1Z" transform="translate(0.01027 0)"/>
    <path d="M2977.8999,56.1H2718.19971a90.02927,90.02927,0,0,0-89.1001,76.7l-61.5,409.3a90.17892,90.17892,0,0,0,89.09985,103.4H2889.5l3.5-23.2,16.1001-108,4.69995-31.3H2740.8999l7.1001-47.7h145.40015l3.3999-23.3,15.80005-108,4.6001-31.2h-145l8.19995-54.5h173.3999l3.3999-23.3,15.8999-107.7Zm-47.59985,135h-173.3999l-16.39991,109.1h145l-15.8,108H2724.40015l-15.3,102.2h173L2866,618.4H2656.7a62.93417,62.93417,0,0,1-62.2-72.1l61.5-409.4a62.76323,62.76323,0,0,1,62.2-53.5h228.1001Z" transform="translate(0.01027 0)"/>
    <polygon points="733.91 409.8 802.91 409.8 790.71 272.7 733.91 409.8"/>
    <polygon points="3134.71 409.8 3203.71 409.8 3191.51 272.7 3134.71 409.8"/>
    <path d="M2890.7,645.6h175.8l7-16.8,34.7-83.7h80.1001l6.80005,75.7,2.19995,24.8H3360.3999l-2.6001-29.7-41.10009-462.4c-2.6001-29.4-16-55.5-37.6001-73.6a111.31233,111.31233,0,0,0-71.3999-25.6c-44.3,0-82.6001,25.7-99.89991,67.1h0l-201.3,486.5Zm242-513.7c14.3999-34.4,44.69995-50.4,74.8-50.4,38.8999,0,77.6001,26.6,81.8999,74.4L3330.5,618.3H3222.1001l-9-100.6H3089.80005L3048.2,618.3H2931.3999Z" transform="translate(0.01027 0)"/>
    <path d="M1517.5,92c-19.30005-22.4-48.9-35.9-79.1-35.9-39,0-72.5,21.6-89.69995,57.9L1259.4,301.3l-27.9-160c-4.6-26.3-17.5-48.4-37.5-63.8a106.21372,106.21372,0,0,0-128.3999.6c-20.2,15.9-33,38.6-37.1,65.6l-70.8,470.6-.6,4-.2-2.3-41.1-462.4c-2.6-29.4-16-55.5-37.6-73.6a111.31232,111.31232,0,0,0-71.4-25.6,108.11149,108.11149,0,0,0-57.9,16.5c-18.6,11.7-33.1,29.2-42,50.6h0L505.5,607.9l-15.6,37.7H665.7l7-16.8,34.7-83.7h80.1l6.8,75.7,2.2,24.8h320.6l3.5-23.2,13.8-91.7,8.4,47.9c3.6,20.5,13.9,37.9,29.80005,50.3a83.48109,83.48109,0,0,0,51.1,17.4,80.18722,80.18722,0,0,0,73.5-46.6L1317.4,557.2l-8.6,57.1-4.69995,31.3H1468.5l3.5-23.2L1539.7,172.3C1544.1,142.3,1536.30005,113.8,1517.5,92ZM821.4,618.3l-9-100.6H689.2L647.6,618.3H530.7L732,131.9c14.4-34.4,44.6-50.4,74.8-50.4,38.9,0,77.6,26.6,81.9,74.4l41.1,462.4Zm691.2-450.1L1445,618.3H1335.80005l35.80005-238.5L1272.6,588c-10.1,21.2-29.5,31-48.9,31-24.6,0-48.9-16-54-45.1L1132.5,361,1093.7,618.4h-109L1055.5,147.8c6.4-42.8,40.5-64.3,74.80005-64.3,33.6,0,67.1,20.8,74.4,62.6l42.6,244.2,126.1-264.5c14-29.4,39.6-42.3,65.1-42.3C1479.5,83.4,1520.4,116.7,1512.6,168.2Z" transform="translate(0.01027 0)"/>
    <path d="M483.8,566.7c54.4-59.7,81.8-133,93.3-171.4A79.5758,79.5758,0,0,0,500.7,293H313.9l-7,16.8-44.7,108-15.6,37.7H357.3c-22.8,20.2-50.4,31.6-79.3,31.6-8.3,0-34.3-4.8-55.1-26.6-21.7-22.7-31.6-57-29.5-101.7,1.8-39,18.6-81.7,44.7-114.1,28.3-35,64.5-54.3,102.2-54.3,24.8,0,46.6,16.8,60.6,30.9a184.22132,184.22132,0,0,1,27.2,35.1l12.9,23.3,23.6-12.5,96.1-50.2,24.2-12.6-12.6-24.2c-.8-1.6-20.4-38.8-58-75.9-22.3-22.1-46.6-39.7-72-52.5-32.4-16.2-66.7-24.5-101.9-24.5A273.66606,273.66606,0,0,0,213.1,58.7c-35.9,18.7-68.5,45-96.9,78.2-51.9,60.6-85,139.4-88.3,210.6-2.3,48.3,3.8,92.7,18.2,132.2a263.174,263.174,0,0,0,57.3,92.7,278.8683,278.8683,0,0,0,96.7,65.3c30.4,12.4,61.9,19.2,88.7,19.2a249.91906,249.91906,0,0,0,111.4-25.7C430.4,616.1,458.6,594.4,483.8,566.7ZM288.6,629.6c-74,0-243.8-65.6-233.6-280.9C60.9,223.2,172,54.5,340.3,54.5,475.9,54.5,548,192.7,548,192.7l-96.1,50.2S407.3,163,340.3,163c-101,0-170,107-174.2,194.4C160,487.6,248.5,514.3,277.9,514.3c58.1,0,107.6-36.5,135.3-86.1H287.4l44.7-108H500.8c35,0,60.3,33.7,50.2,67.3C519.1,493.7,437.4,629.6,288.6,629.6Z" transform="translate(0.01027 0)"/>
    <path d="M2483.8999,566.7C2538.2998,507,2565.7,433.7,2577.2,395.3a79.57564,79.57564,0,0,0-76.3999-102.3H2314l-7,16.8-44.7,108L2246.7,455.5H2357.3999c-22.8,20.2-50.3999,31.6-79.3,31.6-8.30005,0-34.30005-4.8-55.10009-26.6-21.7-22.7-31.6001-57-29.5-101.7,1.8-39,18.60009-81.7,44.69995-114.1,28.30005-35,64.5-54.3,102.2-54.3,24.8,0,46.6001,16.8,60.6001,30.9a187.72706,187.72706,0,0,1,27.19995,35.1l12.80005,23.3,23.60009-12.5L2560.7,217l24.19995-12.6-12.6001-24.2c-.8-1.6-20.3999-38.8-58-75.9-22.3-22.1-46.60009-39.7-72-52.5-32.3999-16.2-66.69995-24.5-101.8999-24.5a273.66653,273.66653,0,0,0-127.3,31.4c-35.8999,18.7-68.5,45-96.8999,78.2-51.8999,60.6-85,139.4-88.30005,210.6-2.3,48.3,3.80005,92.7,18.2,132.2a263.17415,263.17415,0,0,0,57.3,92.7,278.86758,278.86758,0,0,0,96.7,65.3c30.39991,12.4,61.89991,19.2,88.69995,19.2a249.919,249.919,0,0,0,111.39991-25.7C2430.5,616.1,2458.7,594.4,2483.8999,566.7ZM2288.7,629.6c-74,0-243.80005-65.6-233.6001-280.9,5.89991-125.5,117.1001-294.2,285.3-294.2,135.6001,0,207.7,138.2,207.7,138.2l-96.10009,50.2s-44.6001-79.9-111.6001-79.9c-101,0-170,107-174.2,194.4-6.1001,130.2,82.3999,156.9,111.80005,156.9,58.10009,0,107.60009-36.5,135.3-86.1h-125.8l44.69995-108h168.7c35,0,60.3,33.7,50.2,67.3C2519.30005,493.7,2437.5,629.6,2288.7,629.6Z" transform="translate(0.01027 0)"/>
    <path d="M3598.1001,467.6l33.8,156.6,4.60009,21.5h167l-7.10009-33L3764,462.3h0l-1.3999-6.6-.1001-.3-3.1001-14.4-2.3-10.7a89.79686,89.79686,0,0,0-13.10009-31.2,186.06072,186.06072,0,0,0,56.19995-81.1,202.31589,202.31589,0,0,0,11.60009-69.4v-.5a179.16618,179.16618,0,0,0-17-75.7,210.23995,210.23995,0,0,0-100.8-100.8c-21.80005-10.1-44.5-15.4-65.7-15.4H3533a90.03982,90.03982,0,0,0-88.8999,75.7l-78,482.1L3361,645.6h164.5l3.7-22.9,27.19995-167.9H3582.2A16.19835,16.19835,0,0,1,3598.1001,467.6ZM3533.2,427.5l-30.8999,190.8H3393l77.8999-482.2a62.827,62.827,0,0,1,62-52.8h95.3999c70.80005,0,156.2,73.3,156.2,164.7,0,6.2,4.3,98.7-85,148.6,0,0,24.10009,7.2,31,39.2,2.8,12.8,4.3999,20.5,5.3999,25.1l.1001.3,1.3999,6.6,32.3999,150.4H3658.59961l-33.80005-156.6a43.572,43.572,0,0,0-42.6001-34.4H3533.2Z" transform="translate(0.01027 0)"/>
    <path d="M3616.2,191.2h-45l-20.5,128.4h47.69995c42.80005,0,72.1001-43.5,65-81.5C3658.6001,212.6,3637.6001,191.2,3616.2,191.2Zm10.3,87.1c-4.3,5.2-13.8,14-28.1001,14H3582.7l11.8-73.8h21.7c6.3999,0,17.69995,10.3,20.3,24.5h0C3638.7,254.7,3634.8999,268.2,3626.5,278.3Z" transform="translate(0.01027 0)"/>
    <path d="M3636.5,243h0c-2.6001-14.3-14-24.6-20.3-24.6h-21.7l-11.8,73.8h15.69995c14.3999,0,23.80005-8.8,28.1001-14,8.3999-10,12.2-23.5,10-35.2Z" transform="translate(0.01027 0)" style="fill: #fff"/>
    <path d="M3207.5,81.5c-30.1001,0-60.3999,16-74.8,50.4L2931.3999,618.4H3048.2l41.6001-100.6H3213.1001l9,100.6H3330.5L3289.3999,156C3285.1001,108.1,3246.3999,81.5,3207.5,81.5Zm-72.8,328.3,56.8-137.1,12.2,137.1Z" transform="translate(0.01027 0)" style="fill: url(#Dégradé_sans_nom_8)"/>
  </g>
</svg>
