<svg id="Layer_1" data-name="Layer 1" xmlns="http://www.w3.org/2000/svg" viewBox="0 0 3839.04963 846.00178"><path d="M2366.2,271.6H1471.7A126.66729,126.66729,0,0,1,1345,144.9h0A126.66729,126.66729,0,0,1,1471.7,18.2h894.5A126.66729,126.66729,0,0,1,2492.8999,144.9h0A126.73131,126.73131,0,0,1,2366.2,271.6Z" transform="translate(0 0.00178)" style="fill:#fff"/><path d="M1545.5,173.7,1486,77.3h-43.1v138h42.80005V118.9l59.9,96.4h42.8V77.3h-42.8v96.4H1545.5ZM1883.7,123.6V110h-22.5V91.3h-41.6V110H1797v13.6h22.5v91.7h41.6V123.6ZM1612,215.3h41.6V123.6H1612Zm0-110h41.6V77H1612Zm726.8,12.1c-33.3999,0-60.6001,22.9-60.6001,51.7,0,28.4,27.19995,51.7,60.6001,51.7s60.6001-22.9,60.6001-51.7S2373,117.4,2338.80005,117.4Zm16.7,70.7c0,14.8-8.6001,20.6-17.1001,20.6-8.19995,0-17.1001-6.2-17.1001-20.6V149.3c0-14.4,8.6001-20.6,17.1001-20.6,8.2,0,17.1001,5.8,17.1001,20.6v38.8Zm-131.3999-59.8c-6.6001-3.9-13.6001-7.4-23.30005-8.2-29.8999-2.7-52.8999,23.7-52.8999,48.2,0,31.9,24.5,43.9,28.3999,45.5,14,6.6,31.8999,6.6,47.80005-3.5v5.4h40.8V77.7h-40.8Zm0,40.8v16.3c0,14-9.7,17.9-16.30005,17.9s-16.3-3.9-16.3-17.9V152.8c0-14.4,9.7-17.9,16.3-17.9s16.30005,3.5,16.30005,17.9ZM1750.7,119.3a48.57,48.57,0,0,0-33,14v-9.7H1676.5v91.7H1717.7V155.1c0-8.2,8.6-16.7,19.80005-16.7s19,8.9,19,16.7v60.2H1797.7V165.6C1797.80005,129,1766.30005,118.9,1750.7,119.3Zm337.40015,0a48.56972,48.56972,0,0,0-33,14v-9.7h-41.2v91.7h41.2V155.1c0-8.2,8.6001-16.7,19.8-16.7,11.30005,0,19,8.9,19,16.7v60.2h41.2V165.6C2134.7,129,2103.30005,118.9,2088.1001,119.3ZM2000.6,169.8c0-28.4-27.6-52.1-61.4-52.1s-61,22.9-61,51.7c0,28.4,27.19995,51.7,61,51.7,28,0,51.69995-15.9,59.1-37.7H1957.1v5.4c0,16.7-10.9,20.6-17.1,20.6s-17.5-3.9-17.5-20.6v-19Zm-75-32.2c3.1-5.8,9.3-8.2,14.8-8.6a17.21615,17.21615,0,0,1,14.80005,8.6c2.69995,4.7,2.69995,10.1,2.69995,17.9h-34.6C1922.5,147.3,1922.5,142.2,1925.6,137.6Zm490.9-43.2c0-4.7-3.5-6.6-10.1001-6.6h-9.3v23.7h5.8v-9.7h2.7l4.69995,9.7h6.2l-5.1001-10.5C2414.6001,99.9,2416.5,97.6,2416.5,94.4Zm-10.8999,3.5h-2.7v-7h2.30005c3.5,0,5.10009,1.2,5.10009,3.5C2410.7,97.2,2408.7,97.9,2405.6001,97.9Zm0-19.4a21.29633,21.29633,0,0,0-21.3999,21.4A21.3999,21.3999,0,1,0,2427,99.9,21.29633,21.29633,0,0,0,2405.6001,78.5Zm0,38.5a17.1,17.1,0,1,1,17.1001-17.1A17.02823,17.02823,0,0,1,2405.6001,117ZM2359.3999,0h-879.1c-92.9-.4-155.5,66.8-155.5,146.9S1387,293,1480.6,293h878.70007C2452.6001,293,2515.2,226.9,2515.2,146.9,2514.80005,66.5,2452.30005-.4,2359.3999,0ZM2359,257.3H1480.6c-74.2.4-119.30005-49.4-119.30005-110.8s45.5-110.4,119.30005-110.8H2359c73.8,0,119.3,49.4,119.3,110.8S2432.80005,257.3,2359,257.3ZM2359.3999,0h-879.1c-92.9-.4-155.5,66.8-155.5,146.9S1387,293,1480.6,293h878.70007C2452.6001,293,2515.2,226.9,2515.2,146.9,2514.80005,66.5,2452.30005-.4,2359.3999,0ZM2359,257.3H1480.6c-74.2.4-119.30005-49.4-119.30005-110.8s45.5-110.4,119.30005-110.8H2359c73.8,0,119.3,49.4,119.3,110.8S2432.80005,257.3,2359,257.3ZM2359.3999,0h-879.1c-92.9-.4-155.5,66.8-155.5,146.9S1387,293,1480.6,293h878.70007C2452.6001,293,2515.2,226.9,2515.2,146.9,2514.80005,66.5,2452.30005-.4,2359.3999,0ZM2359,257.3H1480.6c-74.2.4-119.30005-49.4-119.30005-110.8s45.5-110.4,119.30005-110.8H2359c73.8,0,119.3,49.4,119.3,110.8S2432.80005,257.3,2359,257.3Z" transform="translate(0 0.00178)" style="fill:#9a9a9a"/><polygon points="3805.8 806.002 3763.2 846.002 0 846.002 0 806.002 3805.8 806.002" style="fill:#e33a25"/><path d="M1409.6,569.1c-.9,106.7,84.8,194.2,191.6,195.4a190.49589,190.49589,0,0,0,169.1-104.3l.80005-1.5h-84.2a122.7248,122.7248,0,0,1-85.69995,35.6c-69.1-1.9-123.6-59.2-121.7-128.3,1.7-66.5,55.30005-120.1,121.7-121.7a120.40656,120.40656,0,0,1,84.8,35.2l85.1.2-.80005-1.5a190.51735,190.51735,0,0,0-169.1-104.2A193.33741,193.33741,0,0,0,1409.6,569.1Zm365.3,1.1a191.63772,191.63772,0,0,0,383.20008-7.6c-2.1001-104.3-87.2-187.8-191.5-187.9A193.83035,193.83035,0,0,0,1774.9,570.2Zm69.1,0a122.52551,122.52551,0,1,1,122.5,125,123.94259,123.94259,0,0,1-122.5-125ZM3538.6001,376.4H3345.5v384.8h193.8999V687.1h-121.3V609.9h121.3V535.8h-121.3V450.4h121.3V376.3h-.90014v.1ZM435,376.4H377.9L112.6,761.3h82.2s41-59.7,41.5-60.5H366.1v60.5h69.8V376.4ZM288,625.3,366.1,511V632H283.5C284.9,629.9,288,625.3,288,625.3ZM2572.7,376.5h-81s-113,261.1-114.80005,265.3c-1.8999-4.3-115.3-265.3-115.3-265.3H2179.7998V761.4h72.39991V569.8c1.2-.3,6.8999-1.5,8.10009-1.9l84.1001,193.5h64.7s83.3-191.8,83.89991-193.4c1.19995.2,6.8999,1.5,8.19995,1.7V761.2h72.3999V376.5Zm532.3,0h-71.8V636.3a49.90493,49.90493,0,0,1-99.80005,1.4V376.5H2860.7V636.3a122.66553,122.66553,0,1,0,245.3,3.9V376.6l-1-.1Zm457.6001.1H3561.5V762.7h72.7V559.5c3.6001,6.1,120,201.8,120,201.8h81.6001s-81.8999-138.1-83.1001-140.3c1.5-.5,4.8-1.7,4.8-1.7a125.39481,125.39481,0,0,0-40-242.8l-154.8999.1ZM3717.7,450.5a50.68558,50.68558,0,0,1,48.8999,51.1A49.96542,49.96542,0,0,1,3717.7,552.4h-83.3999V450.5ZM2596.8999,376.6h-1V761.4h72.7v-137h51.8a123.92135,123.92135,0,0,0,0-247.8Zm123.40015,73.9a49.961,49.961,0,0,1,0,99.9h-51.8v-100l51.8.1ZM3324,376.6h-197.2v73.9h62.6001V761.3h72.7V450.5H3325V376.6Zm-1957.1,0h-75.19995s-77.2,150.6-79,154.1c-1.7-3.4-79-154.1-79-154.1h-76.9l119.5,236.5-.1,148.3h72.9l.19995-148.7c.1,0,118.5-234.6,118.5-234.6l.80005-1.5L1366.9,376.6Zm-329.8,0H965.5v384.7h170.9v-74.1h-98.3V376.6Zm-94.7,0h-68.1v384.7h69.1V376.6Zm-91.3,0H770S657,637.5,655.2,641.7L540,376.6H458.3v384.7h72.4V569.7c1.2-.2,6.9-1.5,8.1-1.7.7,1.5,84.1,193.4,84.1,193.4h64.7l84-193.4c1.2.3,6.9,1.5,8.1,1.9V761.4h72.4V376.6Zm-652.7,0H0v384.7H73.9V609.8H199.4V536.2H73.9V447.6H199.4V376.8l-1-.2Z" transform="translate(0 0.00178)" style="fill:#e33a25"/></svg>