<svg id="Layer_1" data-name="Layer 1" xmlns="http://www.w3.org/2000/svg" viewBox="0 0 3838.96715 660.79999"><path d="M549.7,439.6a359.93751,359.93751,0,0,0-10.4-42.5,36.89194,36.89194,0,0,0,9.5-24.6V352a34.72777,34.72777,0,0,0-1.3-9.6,303.84147,303.84147,0,0,0-11.1-32.9l.3-.3a36.36431,36.36431,0,0,0,12-27.1V251.3a37.01881,37.01881,0,0,0-1.5-10.5c-2.9-9.8-6.6-20.2-10.9-31.1l.3-.3a36.51374,36.51374,0,0,0,12.1-27.2V36.5a36.575,36.575,0,0,0-36.5-36.5H441.7a36.60808,36.60808,0,0,0-29.4,14.8c-1.8-1.8-3.7-3.5-5.6-5.2A35.78,35.78,0,0,0,382.2,0H338a36.64494,36.64494,0,0,0-30.3,16.1c-5-3.5-10.1-6.9-15.2-10.2A35.87624,35.87624,0,0,0,272.7,0H169.4a36.165,36.165,0,0,0-36.1,31.2,36.42,36.42,0,0,0,17.8,37c-37.6,1.7-70.9,14.1-96.6,36.2-24,20.6-40.4,48.2-48.6,82C-1.5,216.8-1.9,251,4.7,288c7.9,44.2,25.5,90.1,51.1,134.3a41.10392,41.10392,0,0,0-16.2,14.5A40.36585,40.36585,0,0,0,37,475.5c19.1,41.8,26.9,60.8,26.9,81.6,0,5.2,0,19.2-31.6,30.5a37.70924,37.70924,0,0,0,12.8,73.2H289.2a39.01737,39.01737,0,0,0,29.7-13.6c25.9,8.1,51.3,12.4,75.6,12.4,41.3,0,77.8-12.6,105.5-36.4,24-20.6,40.4-48.2,48.6-82C556,510.8,556.4,476.6,549.7,439.6Z" transform="translate(-0.03285 0)" style="fill:#fff"/><ellipse cx="277.2473" cy="363.80835" rx="181.70905" ry="308.41531" transform="matrix(0.75876, -0.65137, 0.65137, 0.75876, -170.12333, 268.35422)"/><path d="M272.7,33.5H169.4a3.01621,3.01621,0,0,0-.9,5.9c182.3,55,296.3,218.3,340.9,334.2a2.99682,2.99682,0,0,0,5.8-1.1V352a2.20241,2.20241,0,0,0-.1-.8C492.6,268.6,398.2,113.6,274.3,34A2.76668,2.76668,0,0,0,272.7,33.5Z" transform="translate(-0.03285 0)"/><path d="M382.2,33.5H338a3.03378,3.03378,0,0,0-1.9,5.4c82.3,63.7,148,173.4,173.3,244.2a2.98026,2.98026,0,0,0,5.8-1V251.3a2.76926,2.76926,0,0,0-.1-.9c-17.5-58.1-69-159.5-130.9-216.1A2.97323,2.97323,0,0,0,382.2,33.5Z" transform="translate(-0.03285 0)"/><path d="M512.3,33.5H441.8a3.005,3.005,0,0,0-2.5,4.7c27.8,39.8,54.3,100.6,70.1,145a2.98027,2.98027,0,0,0,5.8-1V36.5A2.92374,2.92374,0,0,0,512.3,33.5Z" transform="translate(-0.03285 0)"/><path d="M45,627.3H289.1a5.77785,5.77785,0,0,0,2-11.2c-61.2-23.2-146.6-80.5-211.9-162-5.2-6.5-15.4-.2-11.9,7.4,19.8,43.2,29.9,67.2,29.9,95.6,0,34.4-27.4,52.6-53.7,62.1C39.1,620.7,40.3,627.3,45,627.3Z" transform="translate(-0.03285 0)"/><ellipse cx="379.89874" cy="460.71264" rx="71.70187" ry="53.0014" transform="translate(-80.06489 79.8677) rotate(-10.86497)" style="fill:#fcda00"/><ellipse cx="212.60541" cy="430.32052" rx="71.70187" ry="53.0014" transform="translate(-77.33503 47.78896) rotate(-10.86497)" style="fill:#73b744"/><path d="M155,322c-11.9-8.3-53.2-103.9,21.8-102,101.7,2.5,139,154.6,89.5,158,0,0-15.7-36.1-60.2-52.7C171.2,312.4,155,322,155,322Z" transform="translate(-0.03285 0)" style="fill:#2aa4dd"/><path d="M321.9,353.4c-11.9-8.3-53.2-103.9,21.8-102,101.7,2.5,139,154.6,89.5,158,0,0-15.7-36.1-60.2-52.7C338.1,343.7,321.9,353.4,321.9,353.4Z" transform="translate(-0.03285 0)" style="fill:#ed2224"/><g id="data"><path d="M740.2,119.8h68.5c25.1,0,25.7,37.3,0,37.3H706v27.5H838.8c53.2,0,53.9-89.3-2.5-89.3H767.1c-27.5,0-27.5-34.3,0-34.3h98.5V33.5h-126C680.9,33.6,682.7,119.8,740.2,119.8ZM896.9,33.6v95.5c0,34.9,25.1,55.1,51.4,55.1h115.1V33.6h-42.8v123H970.4c-22,0-33.1-17.2-33.1-30.6V33.6Zm305.5,94.8h-67.9v55.1H1091.7V30.5H1202.4C1278.9,30.5,1281.9,128.4,1202.4,128.4Zm-14.1-70.4h-53.9v46.5h53.9C1222.5,103.9,1221.9,58,1188.30005,58Zm248.5,95.5h-82.6c-21.4,0-30.6-25.7-28.1-34.3h111.4V91.7H1326c-2.5-9.2,6.1-34.3,27.5-34.3H1436.7V29.9H1345.5c-87.6,0-86.9,153.6,0,153.6H1436.7v-30ZM1830.9,58h74V30.5h-90.6c-36.69995,0-66.69995,23.9-66.69995,61.8h0v92.4h42.8V122.3h114.5V91.7h-113.8C1791.1,67.8,1804.6,58,1830.9,58Zm687.4-27.5c-90,0-101,153.6,10.3999,153.6h76.5V153.5h-77.1001c-42.80005,0-42.80005-96.1,0-96.1H2605.2V29.9l-86.8999.6Zm-233.3,0H2124V184.1h42.8V57.4h46.5V184.1h39.80005V57.4h12.19995c21.3999,0,40.3999,9.8,40.3999,34.9v91.8h42.8V85C2349.30005,47.6,2326.7,30.5,2285,30.5Zm91.8999,153.6h46.5V30.5h-46.5ZM2814.5,107.6c0,42.2-25.1001,80.2-98.5,80.2s-98.5-37.9-98.5-80.2c0-43.4,26.3-77.1,98.5-77.1C2788.1001,30.5,2814.5,64.2,2814.5,107.6Zm-45.8999-.6c0-40.4-15.30005-52.6-52.6001-52.6S2663.3999,66,2663.3999,107c0,38.6,14.7,52.6,52.6001,52.6S2768.6001,145.6,2768.6001,107Zm-672.7002-5.5v82.7H1976c-69.19995,0-71-94.9-.6-94.9h74.70008c0-9.8-9.80005-31.2-36.1-31.2h-81.4V30.6h96.1C2065.30005,31.1,2095.8999,50.7,2095.8999,101.5ZM2050,116.2H1988.2c-25.1,0-24.5,37.3,0,37.3H2050V116.2Zm-542.19995,67.9h-43.4V30.5h111.9c77.69995,0,85.1,77.7,22.6,93l49,61.2h-50.8l-39.2-58.1h-49.6l-.5,57.5Zm0-86.3h62.4c27.5,0,28.1-40.4,0-40.4h-62.4ZM3000.5,30.5h-161V184.1h42.8V57.4h46.5V184.1h39.80005V57.4h12.19995c21.3999,0,40.3999,9.8,40.3999,34.9v91.8H3064V85C3064.80005,47.6,3042.80005,30.5,3000.5,30.5Z" transform="translate(-0.03285 0)" style="fill:#fff"/></g><path d="M1320.4,460V449a10.24292,10.24292,0,0,0-10.19995-10.2H1130V375.4h196.1a84.84326,84.84326,0,0,1,84.8,84.8v82.3a84.84325,84.84325,0,0,1-84.8,84.8H1198.6q-40.95008,0-63.5-16.1-22.65-16.2-22.6-44.9V545.6a38.7477,38.7477,0,0,1,28.80005-37.5L1320.4,460Zm-130.8,95.1v11.1h115.19995a15.62006,15.62006,0,0,0,15.6-15.6V521.9h0L1189.6,555.1Z" transform="translate(-0.03285 0)" style="fill:#fff"/><path d="M2368.30005,460V449a10.243,10.243,0,0,0-10.19995-10.2H2178V375.4h196.1001a84.84326,84.84326,0,0,1,84.8,84.8v82.3a84.84325,84.84325,0,0,1-84.8,84.8h-127.5q-40.95008,0-63.5-16.1Q2160.45,595,2160.5,566.3V545.6a38.7477,38.7477,0,0,1,28.8-37.5l179-48.1Zm-130.8,95.1v11.1h115.2a15.62009,15.62009,0,0,0,15.6001-15.6V521.9h0l-130.8,33.2Z" transform="translate(-0.03285 0)" style="fill:#fff"/><path d="M1698,542.6v11A10.243,10.243,0,0,0,1708.2,563.8h180.1v63.4H1692.2a84.84325,84.84325,0,0,1-84.80005-84.8V460.1a84.84325,84.84325,0,0,1,84.80005-84.8h127.5q40.95007,0,63.5,16.1,22.65,16.2,22.6,44.9v20.7a38.74767,38.74767,0,0,1-28.8,37.5L1698,542.6ZM1828.7,447.4V436.3H1713.5a15.62007,15.62007,0,0,0-15.6,15.6v28.7h0L1828.7,447.4Z" transform="translate(-0.03285 0)" style="fill:#fff"/><path d="M3047.5,542.6v11a10.243,10.243,0,0,0,10.2,10.2h180.1001v63.4H3041.7a84.84325,84.84325,0,0,1-84.80005-84.8V460.1a84.84325,84.84325,0,0,1,84.80005-84.8h127.5q40.95007,0,63.5,16.1,22.65015,16.2,22.6001,44.9v20.7a38.74767,38.74767,0,0,1-28.8,37.5L3047.5,542.6Zm130.7-95.2V436.3H3063a15.62009,15.62009,0,0,0-15.6001,15.6v28.7h0L3178.2,447.4Z" transform="translate(-0.03285 0)" style="fill:#fff"/><path d="M1931.4,271.3h90.5v355.9h-90.5Z" transform="translate(-0.03285 0)" style="fill:#fff"/><path d="M2045.30005,271.3h90.5v355.9h-90.5Z" transform="translate(-0.03285 0)" style="fill:#fff"/><path d="M2549.30005,375.3l87.6001,170.8,89.7-170.8h92.69995L2698.7,603.5c-4.30005,8.4-12,15.1-23,19.9s-23.5,7.3-37.30005,7.3A95.28392,95.28392,0,0,1,2600.7,623.4c-11.2-4.8-19-11.5-23.30005-19.9L2456.7,375.4l92.6001-.1Z" transform="translate(-0.03285 0)" style="fill:#fff"/><path d="M3746.30005,375.3,3658.7,546.1l-65.2-170.8h-92.7L3435.6001,546.1,3348,375.3h-92.7L3376,603.5c4.3,8.4,12.1001,15.1,23.3,19.9a95.28392,95.28392,0,0,0,37.7,7.3c13.8,0,26.3-2.5,37.3-7.3,11.1001-4.8,18.7-11.5,23-19.9l49.80005-118.2,49.8,118.2c4.30005,8.4,12,15.1,23,19.9,11,4.8,23.3999,7.3,37.30005,7.3a94.93157,94.93157,0,0,0,37.69995-7.3c11.2-4.8,19-11.5,23.30005-19.9L3839,375.3Z" transform="translate(-0.03285 0)" style="fill:#fff"/><rect x="2842.86705" y="375.29999" width="90.5" height="251.79999" style="fill:#fff"/><path d="M1597,438.8V375.4h-47.4V281.2h-90.4v94.2h-34.4v63.4h34.4v155A33.2886,33.2886,0,0,0,1492.5,627.1h91.1V563.7h-34V438.8Z" transform="translate(-0.03285 0)" style="fill:#fff"/><path d="M992.8,411H815.5a28.765,28.765,0,0,1-28.7-28.7V367.4a28.765,28.765,0,0,1,28.7-28.7h246.30005V267.1H804.4a108.1,108.1,0,0,0,0,216.2H981.6a28.765,28.765,0,0,1,28.7,28.7v15a28.765,28.765,0,0,1-28.7,28.7H702.1v71.6H992.9a108.15,108.15,0,1,0-.1-216.3Z" transform="translate(-0.03285 0)" style="fill:#fff"/><circle cx="2888.2672" cy="309" r="45" style="fill:#fff"/></svg>