<svg id="Layer_1" data-name="Layer 1" xmlns="http://www.w3.org/2000/svg" viewBox="0 0 3838.87133 750.5"><polygon points="743.671 451.7 719.071 451.7 713.471 473 738.171 473 743.671 451.7"/><path d="M718.8,445.9a2.3343,2.3343,0,0,1-2-1,2.289,2.289,0,0,1-.4-2.1l13.7-52.9a2.46079,2.46079,0,0,1,2.4-1.8h61.1a2.33432,2.33432,0,0,1,2,1,2.289,2.289,0,0,1,.4,2.1L782.3,444a2.46081,2.46081,0,0,1-2.4,1.8H718.8Zm49.5-17.4,6-23.1H744l-6,23.1Z" transform="translate(-0.02857 0)" style="fill:#ff221d"/><path d="M793.5,390.5h0m0,0-13.7,52.9H718.7l13.7-52.9h61.1M734.8,431h35.4l7.2-28H742l-7.2,28m58.8-45.5H732.5a4.9249,4.9249,0,0,0-4.8,3.7l-13.7,53a4.76166,4.76166,0,0,0,.9,4.3,4.9277,4.9277,0,0,0,3.9,1.9h61.1a4.9249,4.9249,0,0,0,4.8-3.7L798.3,392a5.90328,5.90328,0,0,0,.2-1.4,5.01766,5.01766,0,0,0-4.9-5.1Zm-.1,9.9Zm-47.6,12.5h25.2L766.4,426H741.2l4.7-18.1Z" transform="translate(-0.02857 0)" style="fill:#ff221d"/><path d="M101.7,445.9a2.46585,2.46585,0,0,1-2.4-3.1L113,389.9a2.46084,2.46084,0,0,1,2.4-1.8H311.3a2.47572,2.47572,0,0,1,2.5,2.5v52.9a2.47573,2.47573,0,0,1-2.5,2.5H101.7Z" transform="translate(-0.02857 0)" style="fill:#ff221d"/><path d="M311.2,390.5v52.9H101.7l13.7-52.9H311.2m0-5H115.3a4.92493,4.92493,0,0,0-4.8,3.7L96.8,442.1a4.76168,4.76168,0,0,0,.9,4.3,4.92761,4.92761,0,0,0,3.9,1.9H311.2a4.908,4.908,0,0,0,4.9-4.9V390.5a4.99451,4.99451,0,0,0-4.9-5Z" transform="translate(-0.02857 0)" style="fill:#ff221d"/><path d="M322.3,536.7a2.46584,2.46584,0,0,1-2.4-3.1l13.7-52.9a2.46079,2.46079,0,0,1,2.4-1.8H475.2a2.33433,2.33433,0,0,1,2,1,2.28881,2.28881,0,0,1,.4,2.1l-13.7,52.9a2.46082,2.46082,0,0,1-2.4,1.8L322.3,536.7Z" transform="translate(-0.02857 0)" style="fill:#ff221d"/><path d="M475.2,481.3h0m0,0-13.7,52.9H322.3L336,481.3l139.2,0m0-5H336a4.9249,4.9249,0,0,0-4.8,3.7l-13.7,53a4.76175,4.76175,0,0,0,.9,4.3,4.92762,4.92762,0,0,0,3.9,1.9H461.5a4.9249,4.9249,0,0,0,4.8-3.7l13.6-52.7a5.90137,5.90137,0,0,0,.2-1.4,5.01769,5.01769,0,0,0-4.9-5.1Zm0,9.9Z" transform="translate(-0.02857 0)" style="fill:#ff221d"/><path d="M30.2,662a2.33432,2.33432,0,0,1-2-1,2.28879,2.28879,0,0,1-.4-2.1L41.5,606a2.46085,2.46085,0,0,1,2.4-1.8h64.6a2.33432,2.33432,0,0,1,2,1,2.2888,2.2888,0,0,1,.4,2.1L97.7,658.4l-.2,1.6a2.46349,2.46349,0,0,1-2.4,2.1L30.2,662Z" transform="translate(-0.02857 0)" style="fill:#ff221d"/><path d="M108.5,606.6h0m0,0L95.3,657.8l-.3,1.7H30.2l13.7-52.9h64.6m0-4.9H43.9a4.92492,4.92492,0,0,0-4.8,3.7l-13.7,52.9a4.76173,4.76173,0,0,0,.9,4.3,4.92762,4.92762,0,0,0,3.9,1.9H95a5.03,5.03,0,0,0,4.9-4.2l.2-1.5,13.1-50.8a5.90227,5.90227,0,0,0,.2-1.4,4.908,4.908,0,0,0-4.9-4.9Zm0,9.8Z" transform="translate(-0.02857 0)" style="fill:#ff221d"/><path d="M639.3,662a2.46272,2.46272,0,0,1-1.9-.9,2.14476,2.14476,0,0,1-.5-2l10-52.9a2.37565,2.37565,0,0,1,2.4-2h60a2.33433,2.33433,0,0,1,2,1,2.289,2.289,0,0,1,.4,2.1L698,660.1a2.46084,2.46084,0,0,1-2.4,1.8l-56.3.1Z" transform="translate(-0.02857 0)" style="fill:#ff221d"/><path d="M709.3,606.6h0m0,0-13.7,52.9H639.3l10-52.9h60m0-4.9h-60a5.0299,5.0299,0,0,0-4.9,4l-10,52.9a5.11954,5.11954,0,0,0,1,4.1,4.945,4.945,0,0,0,3.8,1.8h56.3a4.9249,4.9249,0,0,0,4.8-3.7l13.6-52.7a5.90342,5.90342,0,0,0,.2-1.4A4.67174,4.67174,0,0,0,709.3,601.7Zm0,9.8Z" transform="translate(-0.02857 0)" style="fill:#ff221d"/><path d="M392.4,662a2.33434,2.33434,0,0,1-2-1,2.28876,2.28876,0,0,1-.4-2.1L403.7,606a2.46084,2.46084,0,0,1,2.4-1.8h60a2.609,2.609,0,0,1,2.1,1.1,2.37767,2.37767,0,0,1,.2,2.3l-23.3,52.9a2.52643,2.52643,0,0,1-2.3,1.5Z" transform="translate(-0.02857 0)" style="fill:#ff221d"/><path d="M466.1,606.6h0m0,0-23.3,52.9H392.4l13.7-52.9h60m0-4.9h-60a4.9249,4.9249,0,0,0-4.8,3.7l-13.7,52.9a4.76172,4.76172,0,0,0,.9,4.3,4.92759,4.92759,0,0,0,3.9,1.9h50.4a4.91257,4.91257,0,0,0,4.5-3l23.2-52.8a4.98986,4.98986,0,0,0,.5-2.1A4.78413,4.78413,0,0,0,466.1,601.7Zm0,9.8Z" transform="translate(-0.02857 0)" style="fill:#ff221d"/><path d="M216.6,662a2.60893,2.60893,0,0,1-2.1-1.1,2.37762,2.37762,0,0,1-.2-2.3l23.2-52.9a2.52644,2.52644,0,0,1,2.3-1.5h60a2.33433,2.33433,0,0,1,2,1,2.28876,2.28876,0,0,1,.4,2.1l-13.7,52.9a2.46083,2.46083,0,0,1-2.4,1.8Z" transform="translate(-0.02857 0)" style="fill:#ff221d"/><path d="M299.7,606.6h0m0,0L286,659.5H216.5l23.2-52.9h60m.1-4.9h-60a4.91258,4.91258,0,0,0-4.5,3l-23.2,52.9a4.91575,4.91575,0,0,0,4.5,6.9h69.5a4.92489,4.92489,0,0,0,4.8-3.7l13.6-52.7a5.90188,5.90188,0,0,0,.2-1.4,4.93022,4.93022,0,0,0-4.9-5Zm-.1,9.8Z" transform="translate(-0.02857 0)" style="fill:#ff221d"/><path d="M95,662h-.3a2.33315,2.33315,0,0,1-1.7-1L61,618.8a2.50763,2.50763,0,0,1,.4-3.4L272,439.8a2.45193,2.45193,0,0,1,1.6-.6,2.50407,2.50407,0,0,1,1.8.8l35.4,39.4a2.46523,2.46523,0,0,1,.6,1.8,2.2271,2.2271,0,0,1-.9,1.7L96.5,661.4A2.03507,2.03507,0,0,1,95,662Z" transform="translate(-0.02857 0)" style="fill:#ff221d"/><path d="M273.5,441.7l35.4,39.4L95,659.5,63,617.3,273.5,441.7m0-5a5.62126,5.62126,0,0,0-3.2,1.1L59.8,613.5a4.99339,4.99339,0,0,0-.8,6.8l32,42.2a4.55666,4.55666,0,0,0,3.4,1.9H95a5.38616,5.38616,0,0,0,3.2-1.1l214-178.5a5.20422,5.20422,0,0,0,1.8-3.4,5.11091,5.11091,0,0,0-1.3-3.7l-35.4-39.4a5.464,5.464,0,0,0-3.8-1.6Z" transform="translate(-0.02857 0)" style="fill:#ff221d"/><path d="M442.9,662h-.3a2.33323,2.33323,0,0,1-1.7-1l-32-42.2a2.50765,2.50765,0,0,1,.4-3.4L517.6,525a2.45177,2.45177,0,0,1,1.6-.6,2.56707,2.56707,0,0,1,1.8.7l37.4,37.8a2.63973,2.63973,0,0,1,.7,1.9,2.27134,2.27134,0,0,1-.9,1.8l-113.7,94.9A3.32,3.32,0,0,1,442.9,662Z" transform="translate(-0.02857 0)" style="fill:#ff221d"/><path d="M519.2,526.9l37.4,37.8L442.9,659.6l-32-42.2,108.3-90.5m0-5A5.62176,5.62176,0,0,0,516,523L407.6,613.4a4.99338,4.99338,0,0,0-.8,6.8l32,42.2a4.55668,4.55668,0,0,0,3.4,1.9h.6a5.38625,5.38625,0,0,0,3.2-1.1l113.7-94.9a5.0396,5.0396,0,0,0,1.8-3.6,4.67676,4.67676,0,0,0-1.4-3.7l-37.4-37.8A5.39,5.39,0,0,0,519.2,521.9Z" transform="translate(-0.02857 0)" style="fill:#ff221d"/><path d="M216.6,662a2.60616,2.60616,0,0,1-2.2-1.3L154.9,547.3a2.44505,2.44505,0,0,1,1-3.3l46.9-24.6a2.2792,2.2792,0,0,1,1.1-.3,1.70225,1.70225,0,0,1,.7.1,2.36456,2.36456,0,0,1,1.4,1.2l59.7,113.9a2.53918,2.53918,0,0,1,.2,1.9,2.36494,2.36494,0,0,1-1.2,1.4l-47.2,24A.97494.97494,0,0,1,216.6,662Z" transform="translate(-0.02857 0)" style="fill:#ff221d"/><path d="M204,521.6l59.7,113.9-47.2,24L157,546.1l47-24.5m0-5a4.64565,4.64565,0,0,0-2.3.6l-46.9,24.6a5.07144,5.07144,0,0,0-2.1,6.7l59.5,113.4a4.89089,4.89089,0,0,0,4.4,2.6,5.44987,5.44987,0,0,0,2.2-.5l47.2-24a4.79622,4.79622,0,0,0,2.5-2.9,5.00874,5.00874,0,0,0-.3-3.8l-59.7-113.9a4.91568,4.91568,0,0,0-2.9-2.4A3.43009,3.43009,0,0,0,204,516.6Z" transform="translate(-0.02857 0)" style="fill:#ff221d"/><path d="M639.3,662a2.60614,2.60614,0,0,1-2.2-1.3L591,572.8a2.47869,2.47869,0,0,1,.1-2.5l33.5-50.1a2.476,2.476,0,0,1,2.1-1.1h.1a2.44848,2.44848,0,0,1,2.1,1.3l59.7,113.9a2.53909,2.53909,0,0,1,.2,1.9,2.36489,2.36489,0,0,1-1.2,1.4l-47.2,24A1.50375,1.50375,0,0,1,639.3,662Z" transform="translate(-0.02857 0)" style="fill:#ff221d"/><path d="M626.7,521.6l59.7,113.9-47.2,24-46.1-87.9,33.6-50m0-5a4.9055,4.9055,0,0,0-4.1,2.2l-33.5,50.1a4.97723,4.97723,0,0,0-.3,5l46.1,87.9a4.89091,4.89091,0,0,0,4.4,2.6,5.45008,5.45008,0,0,0,2.2-.5l47.2-24a4.79623,4.79623,0,0,0,2.5-2.9,5.00864,5.00864,0,0,0-.3-3.8l-59.7-113.9a5.03268,5.03268,0,0,0-4.1-2.6.75656.75656,0,0,0-.40009-.1Z" transform="translate(-0.02857 0)" style="fill:#ff221d"/><path d="M253.7,485.6a2.32248,2.32248,0,0,1-1.9-.9,2.47,2.47,0,0,1-.5-2.2l24-92.7a2.4608,2.4608,0,0,1,2.4-1.8h54.7a2.33433,2.33433,0,0,1,2,1,2.28881,2.28881,0,0,1,.4,2.1l-23.4,90.5a2.34635,2.34635,0,0,1-2.3,1.8C309,483.5,253.8,485.6,253.7,485.6Z" transform="translate(-0.02857 0)" style="fill:#ff221d"/><path d="M332.4,390.5h0m0,0L308.9,481l-55.2,2.1,24-92.7,54.7.1m0-5H277.7a4.9249,4.9249,0,0,0-4.8,3.7l-24,92.7a5.073,5.073,0,0,0,.9,4.3,4.78138,4.78138,0,0,0,3.8,1.8h.2l55.2-2.1a5.0158,5.0158,0,0,0,4.6-3.7L337,391.8a5.90139,5.90139,0,0,0,.2-1.4,4.82181,4.82181,0,0,0-4.8-4.9Zm0,9.9Z" transform="translate(-0.02857 0)" style="fill:#ff221d"/><path d="M697.8,536.7a2.33433,2.33433,0,0,1-2-1,2.28893,2.28893,0,0,1-.4-2.1l13.7-52.9a2.4608,2.4608,0,0,1,2.4-1.8H850.7a2.33433,2.33433,0,0,1,2,1,2.289,2.289,0,0,1,.4,2.1l-13.7,52.9a2.46083,2.46083,0,0,1-2.4,1.8L697.8,536.7Z" transform="translate(-0.02857 0)" style="fill:#ff221d"/><path d="M850.7,481.3h0m0,0L837,534.2H697.8l13.7-52.9,139.2,0m0-5H711.4a4.92489,4.92489,0,0,0-4.8,3.7L693,533a4.76167,4.76167,0,0,0,.9,4.3,4.92773,4.92773,0,0,0,3.9,1.9H837a4.9249,4.9249,0,0,0,4.8-3.7l13.6-52.7a5.90291,5.90291,0,0,0,.2-1.4,5.01765,5.01765,0,0,0-4.9-5.1Zm0,9.9Z" transform="translate(-0.02857 0)" style="fill:#ff221d"/><path d="M556.6,567.1a2.20221,2.20221,0,0,1-.8-.1l-50.3-16.7a2.5326,2.5326,0,0,1-1.6-3l40.7-157.5A2.46079,2.46079,0,0,1,547,388h54.7a2.33433,2.33433,0,0,1,2,1,2.289,2.289,0,0,1,.4,2.1l-45,174.2a2.29189,2.29189,0,0,1-1.2,1.5A3.45232,3.45232,0,0,1,556.6,567.1Z" transform="translate(-0.02857 0)" style="fill:#ff221d"/><path d="M601.6,390.5h0m0,0-45,174.2L506.2,548,547,390.5h54.6m0-5H547a4.9249,4.9249,0,0,0-4.8,3.7L501.5,546.7a5.002,5.002,0,0,0,3.2,5.9l50.3,16.7a4.14463,4.14463,0,0,0,1.6.2,5.32607,5.32607,0,0,0,2.4-.6,4.95,4.95,0,0,0,2.4-3.1l45-174a5.90275,5.90275,0,0,0,.2-1.4A5.0624,5.0624,0,0,0,601.6,385.5Zm0,9.9Z" transform="translate(-0.02857 0)" style="fill:#ff221d"/><path d="M593.2,574.1a2.49273,2.49273,0,0,1-2.4-3.1l46.8-181.1a2.46079,2.46079,0,0,1,2.4-1.8h54.7a2.3343,2.3343,0,0,1,2,1,2.289,2.289,0,0,1,.4,2.1l-45.9,177.5a2.43986,2.43986,0,0,1-2.2,1.8l-55.6,3.6Z" transform="translate(-0.02857 0)" style="fill:#ff221d"/><path d="M694.7,390.5h0m0,0L648.8,568l-55.6,3.6L640,390.5h54.7m0-5H640a4.9249,4.9249,0,0,0-4.8,3.7l-46.8,181.1a5.00877,5.00877,0,0,0,1,4.4,4.945,4.945,0,0,0,3.8,1.8h.3l55.6-3.6a4.99732,4.99732,0,0,0,4.5-3.7l45.9-177.3a5.90293,5.90293,0,0,0,.2-1.4,5.01455,5.01455,0,0,0-5-5.00009Zm0,9.9Z" transform="translate(-0.02857 0)" style="fill:#ff221d"/><path d="M297,504.9a2.3343,2.3343,0,0,1-2-1,2.28876,2.28876,0,0,1-.4-2.1l13.7-52.9a2.4608,2.4608,0,0,1,2.4-1.8H449.9a2.3343,2.3343,0,0,1,2,1,2.28879,2.28879,0,0,1,.4,2.1l-13.7,52.9a2.4608,2.4608,0,0,1-2.4,1.8Z" transform="translate(-0.02857 0)" style="fill:#fbe901"/><path d="M449.9,449.5h0m0,0-13.7,52.9H297l13.7-52.9H449.9m0-4.9H310.7a4.9249,4.9249,0,0,0-4.8,3.7l-13.7,52.9a4.76173,4.76173,0,0,0,.9,4.3,4.92756,4.92756,0,0,0,3.9,1.9H436.2a4.9249,4.9249,0,0,0,4.8-3.7L454.6,451a5.90174,5.90174,0,0,0,.2-1.4,4.80854,4.80854,0,0,0-4.9-5Zm0,9.9Z" transform="translate(-0.02857 0)" style="fill:#ff221d"/><path d="M191.3,630.2a2.48471,2.48471,0,0,1-2.2-1.3L153.6,561,71.4,629.6a2.27089,2.27089,0,0,1-1.6.6H4.9a2.33432,2.33432,0,0,1-2-1,2.28877,2.28877,0,0,1-.4-2.1l13.7-52.9a2.46086,2.46086,0,0,1,2.4-1.8H49.7L234.6,418.2l1-4H76.4a2.33432,2.33432,0,0,1-2-1,2.28882,2.28882,0,0,1-.4-2.1l13.7-52.9a2.46083,2.46083,0,0,1,2.4-1.8h217a2.33434,2.33434,0,0,1,2,1,2.28881,2.28881,0,0,1,.4,2.1L286.1,450a2.57721,2.57721,0,0,1-.8,1.3l-86.3,72,25.8,49.2h49.7a2.46583,2.46583,0,0,1,2.4,3.1l-13.7,52.9a2.46083,2.46083,0,0,1-2.4,1.8l-69.5-.1Z" transform="translate(-0.02857 0)" style="fill:#fbe901"/><path d="M307.1,358.7h0m0,0-23.4,90.5-87.8,73.2,27.4,52.3h51.2l-13.7,52.9H191.3l-37-70.6L69.7,627.6H4.9l13.7-52.9h32L236.8,419.4l2-7.9H76.4l13.7-52.9H286l21.1.1m0-4.9H90.1a4.92492,4.92492,0,0,0-4.8,3.7L71.6,410.4a4.7617,4.7617,0,0,0,.9,4.3,4.92761,4.92761,0,0,0,3.9,1.9h156v.2L48.8,569.9H18.6a4.92492,4.92492,0,0,0-4.8,3.7L.2,626.5a4.76172,4.76172,0,0,0,.9,4.3A4.92762,4.92762,0,0,0,5,632.7H69.8a5.16713,5.16713,0,0,0,3.2-1.1l79.9-66.6,34.1,65a4.85649,4.85649,0,0,0,4.4,2.6h69.5a4.92489,4.92489,0,0,0,4.8-3.7L279.4,576a4.76172,4.76172,0,0,0-.9-4.3,4.92759,4.92759,0,0,0-3.9-1.9H226.4l-24.2-46.1L286.9,453a4.7737,4.7737,0,0,0,1.6-2.6L311.9,360a5.90121,5.90121,0,0,0,.2-1.4,4.91145,4.91145,0,0,0-5-4.8Zm0,9.9Z" transform="translate(-0.02857 0)" style="fill:#ff221d"/><path d="M614.1,630.2a2.48476,2.48476,0,0,1-2.2-1.3L565.8,541a2.24683,2.24683,0,0,1-.2-1.8l46.8-181.1a2.46081,2.46081,0,0,1,2.4-1.8h54.7a2.33433,2.33433,0,0,1,2,1,2.28894,2.28894,0,0,1,.4,2.1L627,533l20.6,39.3h36.5a2.33434,2.33434,0,0,1,2,1,2.28892,2.28892,0,0,1,.4,2.1l-13.7,52.9a2.46086,2.46086,0,0,1-2.4,1.8l-56.3.1Z" transform="translate(-0.02857 0)" style="fill:#fbe901"/><path d="M669.5,358.7h0m0,0-45.2,174.6,21.8,41.5h38l-13.7,52.9H614.1L568,539.9l46.8-181.1,54.7-.1m0-4.9H614.8a4.9249,4.9249,0,0,0-4.8,3.7L563.2,538.6a4.73784,4.73784,0,0,0,.4,3.5L609.7,630a4.85649,4.85649,0,0,0,4.4,2.6h56.3a4.92489,4.92489,0,0,0,4.8-3.7l13.7-52.9a4.76164,4.76164,0,0,0-.9-4.3,4.92769,4.92769,0,0,0-3.9-1.9h-35l-19.5-37.2L674.2,360a5.90277,5.90277,0,0,0,.2-1.4,4.888,4.888,0,0,0-4.9-4.8Zm0,9.9Z" transform="translate(-0.02857 0)" style="fill:#ff221d"/><path d="M672.5,504.9a2.3343,2.3343,0,0,1-2-1,2.28894,2.28894,0,0,1-.4-2.1l13.7-52.9a2.46081,2.46081,0,0,1,2.4-1.8H825.4a2.3343,2.3343,0,0,1,2,1,2.289,2.289,0,0,1,.4,2.1l-13.7,52.9a2.46081,2.46081,0,0,1-2.4,1.8Z" transform="translate(-0.02857 0)" style="fill:#fbe901"/><path d="M825.4,449.5h0m0,0-13.7,52.9H672.5l13.7-52.9H825.4m0-4.9H686.2a4.9249,4.9249,0,0,0-4.8,3.7l-13.7,52.9a4.76166,4.76166,0,0,0,.9,4.3,4.92766,4.92766,0,0,0,3.9,1.9h139.2a4.9249,4.9249,0,0,0,4.8-3.7L830.1,451a5.90328,5.90328,0,0,0,.2-1.4,4.80856,4.80856,0,0,0-4.9-5Zm0,9.9Z" transform="translate(-0.02857 0)" style="fill:#ff221d"/><path d="M367.2,630.2a2.33433,2.33433,0,0,1-2-1,2.28874,2.28874,0,0,1-.4-2.1l13.7-52.9a2.46084,2.46084,0,0,1,2.4-1.8h16.6l84.6-70.6,37.2-143.7a2.46081,2.46081,0,0,1,2.4-1.8h54.7a2.33434,2.33434,0,0,1,2,1,2.289,2.289,0,0,1,.4,2.1l-45,174.2a2.577,2.577,0,0,1-.8,1.3l-113.7,94.9a2.27088,2.27088,0,0,1-1.6.6h-50.5v-.2Z" transform="translate(-0.02857 0)" style="fill:#fbe901"/><path d="M576.4,358.7h0m0,0-45,174.2-113.7,94.9H367.3L381,574.9h17.5l85.9-71.7,37.4-144.4h54.6m0-5H521.7a4.9249,4.9249,0,0,0-4.8,3.7l-37,142.9-83.3,69.5h-15.8a4.9249,4.9249,0,0,0-4.8,3.7l-13.7,52.9a4.76172,4.76172,0,0,0,.9,4.3,4.92762,4.92762,0,0,0,3.9,1.9h50.4a5.1672,5.1672,0,0,0,3.2-1.1l113.7-94.9a4.7732,4.7732,0,0,0,1.6-2.6l45-174a5.90293,5.90293,0,0,0,.2-1.4A4.76144,4.76144,0,0,0,576.4,353.8Zm0,9.9Z" transform="translate(-0.02857 0)" style="fill:#ff221d"/><path d="M693.5,414.1a2.33433,2.33433,0,0,1-2-1,2.289,2.289,0,0,1-.4-2.1l13.7-52.9a2.46081,2.46081,0,0,1,2.4-1.8h61.1a2.33433,2.33433,0,0,1,2,1,2.289,2.289,0,0,1,.4,2.1L757,412.3a2.46082,2.46082,0,0,1-2.4,1.8l-61.1,0Zm49.6-17.4,6-23.1H718.8l-6,23.1Z" transform="translate(-0.02857 0)" style="fill:#fbe901"/><path d="M768.3,358.7h0m0,0-13.7,52.9H693.5l13.7-52.9h61.1m-58.7,40.5H745l7.2-28H716.8l-7.2,28m58.7-45.4H707.2a4.9249,4.9249,0,0,0-4.8,3.7l-13.7,52.9a4.76166,4.76166,0,0,0,.9,4.3,4.92767,4.92767,0,0,0,3.9,1.9h61.1a4.92489,4.92489,0,0,0,4.8-3.7L773,360.2a5.90277,5.90277,0,0,0,.2-1.4,4.80856,4.80856,0,0,0-4.9-5Zm0,9.9Zm-47.6,12.4h25.2l-4.7,18.1H716l4.7-18.1Z" transform="translate(-0.02857 0)" style="fill:#ff221d"/><path d="M2840.2,0h-64.6001a31.96567,31.96567,0,0,0-32,32V53.3a31.96567,31.96567,0,0,0,32,32H2846.2v33.3h-76.6001v-22h-26v15.9a31.96566,31.96566,0,0,0,32,32H2840.2a31.96567,31.96567,0,0,0,32-32V91.3a31.96568,31.96568,0,0,0-32-32h-70.6001V26H2846.2V48h26V32A31.96567,31.96567,0,0,0,2840.2,0Z" transform="translate(-0.02857 0)" style="fill:#fff"/><rect x="2700.07153" width="26" height="144.60001" style="fill:#fff"/><rect x="2896.07153" width="26" height="144.60001" style="fill:#fff"/><polygon points="3206.671 0 3206.671 106 3136.871 0 3127.171 0 3105.771 0 3101.171 0 3101.171 144.6 3127.171 144.6 3127.171 32.5 3201.072 144.6 3206.671 144.6 3232.072 144.6 3232.671 144.6 3232.671 0 3206.671 0" style="fill:#fff"/><path d="M3043.30005,0H2985.1001a40.88507,40.88507,0,0,0-40.8999,40.9v62.7a40.88522,40.88522,0,0,0,40.8999,40.9h58.19995A40.88507,40.88507,0,0,0,3084.2,103.6V40.9A40.88523,40.88523,0,0,0,3043.30005,0ZM3058.2,55.9v62.7h-88V26h88Z" transform="translate(-0.02857 0)" style="fill:#fff"/><polygon points="2355.971 0 2336.072 0 2336.072 144.6 2355.971 144.6 2362.072 144.6 2458.572 144.6 2458.572 118.6 2362.072 118.6 2362.072 85.3 2445.871 85.3 2445.871 59.3 2362.072 59.3 2362.072 26 2458.572 26 2458.572 0 2362.072 0 2355.971 0" style="fill:#fff"/><path d="M652.8,0H588.2a31.96563,31.96563,0,0,0-32,32V53.3a31.96563,31.96563,0,0,0,32,32h70.6v33.3H582.2v-22h-26v15.9a31.96562,31.96562,0,0,0,32,32h64.6a31.96563,31.96563,0,0,0,32-32V91.3a31.96564,31.96564,0,0,0-32-32H582.2V26h76.6V48h26V32A31.96563,31.96563,0,0,0,652.8,0Z" transform="translate(-0.02857 0)" style="fill:#fff"/><path d="M803.2,118.6H726.6V0h-26V112.6a31.96563,31.96563,0,0,0,32,32h64.6a31.96564,31.96564,0,0,0,32-32V0h-26Z" transform="translate(-0.02857 0)" style="fill:#fff"/><path d="M941.5,0H844.9V144.6h26V85.3h70.6a31.96563,31.96563,0,0,0,32-32V32A31.96563,31.96563,0,0,0,941.5,0Zm6.1,59.3H871V26h76.6Z" transform="translate(-0.02857 0)" style="fill:#fff"/><polygon points="1007.271 0 987.271 0 987.271 144.6 1007.271 144.6 1013.271 144.6 1109.871 144.6 1109.871 118.6 1013.271 118.6 1013.271 85.3 1097.171 85.3 1097.171 59.3 1013.271 59.3 1013.271 26 1109.871 26 1109.871 0 1013.271 0 1007.271 0" style="fill:#fff"/><path d="M1227.1,0H1124.5V144.6h26V85.3h76.6v59.3h26v-55a17.2851,17.2851,0,0,0-15.7-17.2v-.2A17.285,17.285,0,0,0,1253.1,55V26A26.012,26.012,0,0,0,1227.1,0Zm0,32.2V59.3h-76.6V26h76.6Z" transform="translate(-0.02857 0)" style="fill:#fff"/><path d="M1726.2,0h-64.6a31.96566,31.96566,0,0,0-32,32V53.3a31.96566,31.96566,0,0,0,32,32h70.6v33.3h-76.6v-22h-26v15.9a31.96565,31.96565,0,0,0,32,32h64.6a31.96567,31.96567,0,0,0,32-32V91.3a31.96568,31.96568,0,0,0-32-32h-70.6V26h76.6V48h26V32A31.96559,31.96559,0,0,0,1726.2,0Z" transform="translate(-0.02857 0)" style="fill:#fff"/><path d="M1868.30005,0h-64.6a31.96567,31.96567,0,0,0-32,32V53.3a31.96567,31.96567,0,0,0,32,32h70.6v33.3h-76.6v-22h-26v15.9a31.96566,31.96566,0,0,0,32,32h64.6a31.96567,31.96567,0,0,0,32-32V91.3a31.96568,31.96568,0,0,0-32-32h-70.6V26h76.6V48h26V32A31.96567,31.96567,0,0,0,1868.30005,0Z" transform="translate(-0.02857 0)" style="fill:#fff"/><polygon points="2050.072 26 2105.871 26 2105.871 144.6 2131.871 144.6 2131.871 26 2187.572 26 2187.572 0 2050.072 0 2050.072 26" style="fill:#fff"/><polygon points="2192.072 26 2247.771 26 2247.771 144.6 2273.771 144.6 2273.771 26 2329.572 26 2329.572 0 2192.072 0 2192.072 26" style="fill:#fff"/><path d="M1475.80005,85.3h-26v33.3h-88V26h88V59.3h26V40.9A40.88525,40.88525,0,0,0,1434.9,0h-58.19995a40.88525,40.88525,0,0,0-40.9,40.9v62.7a40.88525,40.88525,0,0,0,40.9,40.9H1434.9a40.88525,40.88525,0,0,0,40.9-40.9Z" transform="translate(-0.02857 0)" style="fill:#fff"/><polygon points="1937.371 0 1917.371 0 1917.371 144.6 1937.371 144.6 1943.371 144.6 2039.971 144.6 2039.971 118.6 1943.371 118.6 1943.371 85.3 2027.271 85.3 2027.271 59.3 1943.371 59.3 1943.371 26 2039.971 26 2039.971 0 1943.371 0 1937.371 0" style="fill:#fff"/><path d="M1535.30005,0,1475.1001,144.6h28.19995l13.80005-33.3h70.4l13.9,33.3h28.2L1569.4,0Zm-7.4,85.3,24.4-58.6,24.4,58.6Z" transform="translate(-0.02857 0)" style="fill:#fff"/><polygon points="2612.771 117.8 2563.771 0 2535.572 0 2595.771 144.6 2629.871 144.6 2690.072 0 2661.871 0 2612.771 117.8" style="fill:#fff"/><path d="M2361.6001,431.5H2165.7002l33.69995-130.4a41.06856,41.06856,0,0,1,39.7-30.8l1.3999-6.1H2103.2L1977.5,750.4h105.7l59.3999-229.6H2291.2998Z" transform="translate(-0.02857 0)" style="fill:#ff221d"/><polygon points="2662.072 264.2 2593.971 264.2 2570.871 353.7 2638.971 353.7 2662.072 264.2" style="fill:#ff221d"/><polygon points="2758.771 264.2 2690.671 264.2 2667.572 353.7 2735.671 353.7 2758.771 264.2" style="fill:#ff221d"/><polygon points="1670.371 601.5 1738.471 601.5 1782.471 431.5 1714.271 431.5 1670.371 601.5" style="fill:#ff221d"/><polygon points="1835.171 601.5 1879.071 431.5 1810.971 431.5 1766.971 601.5 1835.171 601.5" style="fill:#ff221d"/><polygon points="3025.971 353.7 3049.171 264.2 2980.971 264.2 2957.871 353.7 3025.971 353.7" style="fill:#ff221d"/><polygon points="3145.771 264.2 3077.671 264.2 3054.572 353.7 3122.671 353.7 3145.771 264.2" style="fill:#ff221d"/><path d="M3675.8999,301.2a41.06857,41.06857,0,0,1,39.7-30.8l1.5-6.2H3503.2l-26,100.5h182.3Z" transform="translate(-0.02857 0)" style="fill:#ff221d"/><path d="M3701.7,431.5l-45.30005,175a53.40438,53.40438,0,0,1-51.69995,40l-180.2-.1-81.8,104h244.1001A177.827,177.827,0,0,0,3759.2,617l38.3999-148.5a41.06856,41.06856,0,0,1,39.69995-30.8l1.6001-6.2Z" transform="translate(-0.02857 0)" style="fill:#ff221d"/><path d="M3421.6001,468.5a41.06856,41.06856,0,0,1,39.69995-30.8l1.3999-6.2h-332.6001l-17,66H3308.2998l-9.8,37.9h-195.2l-17.10009,66h195.30005l-11.6001,45h-195.2l-81.8,104h259.3999a124.55389,124.55389,0,0,0,120.6001-93.3Z" transform="translate(-0.02857 0)" style="fill:#ff221d"/><path d="M3040.3999,617l38.3999-148.6a41.06857,41.06857,0,0,1,39.7-30.8l1.60009-6.1H2982.7998l-45.19995,174.9a53.40437,53.40437,0,0,1-51.7,40h-164l-81.8,104H2868.2A177.79425,177.79425,0,0,0,3040.3999,617Z" transform="translate(-0.02857 0)" style="fill:#ff221d"/><path d="M2933.2,301.2a41.18447,41.18447,0,0,1,39.8-30.8l1.3999-6.2H2788.89966l-23.1001,89.5h153.80005Z" transform="translate(-0.02857 0)" style="fill:#ff221d"/><path d="M2019.7,468.5c4.69995-18.1,14.1-30.8,32.80005-30.8l1.8-6.2h-130.5L1878.5,606.5a53.40427,53.40427,0,0,1-51.69995,40L1655,646.4l-81.9,104h235.8a177.82739,177.82739,0,0,0,172.4-133.4Z" transform="translate(-0.02857 0)" style="fill:#ff221d"/><polygon points="2873.572 520.8 2896.671 431.5 2749.171 431.5 2726.072 520.8 2873.572 520.8" style="fill:#ff221d"/><path d="M2471.8999,520.8H2689l23-89.3H2495l33.7-130.4a40.69153,40.69153,0,0,1,39.6001-30.7l1.5-6.2H2432.5l-97,375c-14.6001,56.3,28,111.3,86.2,111.2H2604l81.8-104-221.19995-.1a19.51528,19.51528,0,0,1-18.8999-24.5Z" transform="translate(-0.02857 0)" style="fill:#ff221d"/><path d="M1483.30005,353.7l23.1-89.5h-105.6l-23.19995,89.5h-36.4l-23.1,89.5h36.3l-50.69995,196c-14.6,56.3,28,111.2,86.1,111.2h147.19995l81.9-104h-186.1a19.5154,19.5154,0,0,1-18.9-24.5l46.2-178.7h102.9l-17.9,69.1h-36.6l-70.1,89.1h92.9a124.55353,124.55353,0,0,0,120.6-93.3l30.4-117.4a41.06857,41.06857,0,0,1,39.69995-30.8l1.4-6.2h-240.1001Z" transform="translate(-0.02857 0)" style="fill:#ff221d"/><path d="M1108.7,353.8l10.19995-39.6,3.4-13a41.06857,41.06857,0,0,1,39.7-30.8l1.5-6.2-137.4.1-12.9,49.9-10.2,39.6h-87.5l-23.2,89.4,87.6.1-45.7,176.5a35.60514,35.60514,0,0,1-34.4,26.7H864l-81.8,104h98.6a161.76286,161.76286,0,0,0,156.7-121.4l48.1-185.9h97.5l-45.7,176.6a35.60508,35.60508,0,0,1-34.4,26.7h-35.69995l-81.8,104H1084A161.76263,161.76263,0,0,0,1240.7,629.1l61.69995-238.4c4.7-18.1,12.80005-30.8,31.5-30.8l1.6-6.1Z" transform="translate(-0.02857 0)" style="fill:#ff221d"/><path d="M2335.80005,399.7H2140l33.7-130.4a41.06857,41.06857,0,0,1,39.69995-30.8l1.3999-6.1h-137.3l-125.7,486.2h105.7l59.3999-229.6h148.7Z" transform="translate(-0.02857 0)" style="fill:#fff"/><polygon points="2636.271 232.4 2568.171 232.4 2545.072 321.9 2613.171 321.9 2636.271 232.4" style="fill:#fff"/><polygon points="2732.971 232.4 2664.871 232.4 2641.771 321.9 2709.871 321.9 2732.971 232.4" style="fill:#fff"/><polygon points="1644.571 569.7 1712.671 569.7 1756.671 399.7 1688.471 399.7 1644.571 569.7" style="fill:#fff"/><polygon points="1809.371 569.7 1853.271 399.7 1785.171 399.7 1741.171 569.7 1809.371 569.7" style="fill:#fff"/><polygon points="3000.171 321.9 3023.371 232.4 2955.171 232.4 2932.072 321.9 3000.171 321.9" style="fill:#fff"/><polygon points="3119.971 232.4 3051.871 232.4 3028.771 321.9 3096.871 321.9 3119.971 232.4" style="fill:#fff"/><path d="M3650.1001,269.4a41.06858,41.06858,0,0,1,39.69995-30.8l1.5-6.2h-213.8999l-26,100.5H3633.7002Z" transform="translate(-0.02857 0)" style="fill:#fff"/><path d="M3675.8999,399.7l-45.3,175a53.40437,53.40437,0,0,1-51.7,40L3398.7,614.6l-81.80005,104H3561a177.82707,177.82707,0,0,0,172.3999-133.4l38.3999-148.5a41.06857,41.06857,0,0,1,39.7-30.8l1.60009-6.2h-137.2Z" transform="translate(-0.02857 0)" style="fill:#fff"/><path d="M3395.80005,436.7a41.06857,41.06857,0,0,1,39.7-30.8l1.3999-6.2H3104.2998l-17,66h195.2l-9.80005,37.9H3077.49976l-17.1001,66h195.3l-11.6001,45h-195.2l-81.8,104h259.3999a124.5539,124.5539,0,0,0,120.6001-93.3Z" transform="translate(-0.02857 0)" style="fill:#fff"/><path d="M3014.6001,585.2,3053,436.6a41.06856,41.06856,0,0,1,39.7-30.8l1.6001-6.1H2957l-45.2,174.9a53.40438,53.40438,0,0,1-51.69995,40h-164l-81.80005,104h228.1001A177.79464,177.79464,0,0,0,3014.6001,585.2Z" transform="translate(-0.02857 0)" style="fill:#fff"/><path d="M2907.3999,269.4A41.18448,41.18448,0,0,1,2947.2,238.6l1.3999-6.2h-185.5l-23.10009,89.5h153.8Z" transform="translate(-0.02857 0)" style="fill:#fff"/><path d="M1993.9,436.7c4.7-18.1,14.1-30.8,32.80005-30.8l1.8-6.2h-130.5l-45.3,175a53.40426,53.40426,0,0,1-51.7,40l-171.8-.1-81.9,104H1783.1001a177.82742,177.82742,0,0,0,172.4-133.4Z" transform="translate(-0.02857 0)" style="fill:#fff"/><polygon points="2847.771 489 2870.871 399.7 2723.371 399.7 2700.271 489 2847.771 489" style="fill:#fff"/><path d="M2446.1001,489h217.1001l23-89.3H2469.1001l33.69995-130.4a40.69151,40.69151,0,0,1,39.6001-30.7l1.5-6.2h-137.3l-97,375c-14.6001,56.3,28,111.3,86.19995,111.2H2578.1001l81.8-104-221.19995-.1a19.51528,19.51528,0,0,1-18.89991-24.5Z" transform="translate(-0.02857 0)" style="fill:#fff"/><path d="M1457.5,321.9l23.1-89.5H1375l-23.19995,89.5h-36.4l-23.1,89.5h36.30005l-50.7,196c-14.6,56.3,28,111.2,86.1,111.2h147.2l81.9-104h-186.1a19.51541,19.51541,0,0,1-18.9-24.5l46.19995-178.7h102.9l-17.9,69.1h-36.6l-70.1,89.1h92.9a124.55354,124.55354,0,0,0,120.6-93.3l30.4-117.4a41.06856,41.06856,0,0,1,39.7-30.8l1.4-6.2H1457.5Z" transform="translate(-0.02857 0)" style="fill:#fff"/><path d="M1082.9,322l10.2-39.6,3.4-13A41.06858,41.06858,0,0,1,1136.2,238.6l1.5-6.2-137.4.1-12.9,49.9L977.1,322H889.6l-23.2,89.4,87.6.1L908.3,588a35.60514,35.60514,0,0,1-34.4,26.7h-35.7l-81.8,104H855a161.76286,161.76286,0,0,0,156.7-121.4l48.1-185.9h97.5L1111.6,588a35.6051,35.6051,0,0,1-34.4,26.7H1041.5l-81.8,104H1058.2A161.76263,161.76263,0,0,0,1214.8999,597.3l61.7-238.4c4.69995-18.1,12.8-30.8,31.5-30.8l1.6-6.1Z" transform="translate(-0.02857 0)" style="fill:#fff"/></svg>