<svg id="Layer_1" data-name="Layer 1" xmlns="http://www.w3.org/2000/svg" viewBox="0 0 3840 727.41338"><rect y="11.4" width="513.20001" height="77.8" style="fill:#fff"/><rect x="296.20001" y="216.2" width="217.10004" height="77.8" style="fill:#fff"/><rect x="1028.90002" y="11.4" width="660.09998" height="77.8" style="fill:#fff"/><rect x="1164.30005" y="180.8" width="412" height="77.8" style="fill:#fff"/><rect x="1028.90002" y="23.5" width="77.80005" height="400.39999" style="fill:#fff"/><rect x="3187.30005" y="11.4" width="77.80005" height="412.49999" style="fill:#fff"/><rect x="1028.90002" y="358.20001" width="660.09998" height="77.79999" style="fill:#fff"/><rect x="3187.30005" y="358.20001" width="652.69995" height="77.79999" style="fill:#fff"/><polygon points="2677.3 250.4 2366.7 250.4 2285.1 328.2 2677.3 328.2 2677.3 250.4" style="fill:#fff"/><path d="M513.2,11.4c188.4,0,188.4,282.6,0,282.7V216.3c84.7,0,84.7-127,0-127Z" transform="translate(0 0)" style="fill:#fff"/><rect y="57.8" width="77.8" height="378.2" style="fill:#fff"/><polygon points="655.2 436 309.1 216.3 164 216.3 510 436 655.2 436" style="fill:#fff"/><rect x="1826.30005" y="142" width="130.40002" height="135" style="fill:#23b14d"/><rect x="783.70001" y="142" width="130.39996" height="135" style="fill:#ed1b24"/><rect x="2897.6001" y="142" width="130.3999" height="135" style="fill:#2993c3"/><rect y="495.39999" width="3840" height="38.60001" style="fill:#2993c3"/><polygon points="2889.9 436 2432.8 0 1975.8 436 2088.5 436 2432.8 107.6 2777.1 436 2889.9 436" style="fill:#fff"/><path d="M30.2,687.7c0,21.3,5.1,21.6,32.8,21.6,27.3,0,36-.2,36-16.1,0-12.2-4.2-17-22.2-17H52.6V659.5H76.8c16.6,0,19.5-5,19.5-18.8,0-11-7.3-11.9-33.3-11.9-27.5,0-31.1,2-31.1,19.7H1.8c0-33.1,17.1-37.8,61.3-37.8,31.5,0,63.5.2,63.5,30,0,13.6-3.8,25.3-26.2,26.8v.6c22.9,1.1,28.9,10.1,28.9,25.1,0,31.7-23.7,34.1-66.1,34.1-42,0-63-1.7-63-39.6h30Z" transform="translate(0 0)" style="fill:#fff"/><path d="M166.7,611.6h79.5c45.9,0,65.5,11.5,65.5,42.7v27.1c0,23.9-9.8,45-60.2,45H166.7l0-114.8Zm84.8,96c21.5,0,28.2-13.3,28.2-26.2V654.3c0-19.1-9.1-23.9-33.5-23.9H198.7v77.1h52.8Z" transform="translate(0 0)" style="fill:#fff"/><path d="M486.3,652.6v30.9c0,36.7-20.6,43.8-71,43.8-51.5,0-70.4-6.1-70.4-43.8V652.6c0-35.7,17.5-41.9,70.4-41.9C463.2,610.7,486.3,615.7,486.3,652.6Zm-109.5,0v30.9c0,22.8,6.4,25,38.4,25,29.1,0,39.1-2.8,39.1-25V652.6c.7-21.6-10.6-23.1-39.1-23.1C380.8,629.5,377.5,634.4,376.8,652.6Z" transform="translate(0 0)" style="fill:#fff"/><path d="M688.1,726.4h-32V611.6h32Z" transform="translate(0 0)" style="fill:#fff"/><path d="M847.4,611.6h32V726.4h-53l-70.8-96h-1.1l2.7,96h-32V611.6H778l71.2,96h.9Z" transform="translate(0 0)" style="fill:#fff"/><path d="M983,726.4H951v-96H902.2V611.6h129.6v18.8H983v96Z" transform="translate(0 0)" style="fill:#fff"/><path d="M1084.2,659h77.9v18.1h-77.9v30.5H1167v18.8H1052.30005V611.6h114.1v18.8h-82.1V659Z" transform="translate(0 0)" style="fill:#fff"/><path d="M1230.5,688.4v38h-32V611.6h85c36.4.6,50.4,8.4,50.4,34.4,0,17-1.3,29.4-29.5,32.3v.6c22.6,1.4,28.2,9.8,28.2,26v21.4h-32V705c0-9.6-5.80005-16.4-21.1-16.5l-49-.1Zm42.1-18.8c23.5,0,29.3-3.2,29.3-20.1,0-16.2-4.19995-19.1-27.1-19.1h-44.4v39.2h42.2Z" transform="translate(0 0)" style="fill:#fff"/><path d="M1395.80005,704.6l-10.4,21.7h-33.1l55.30005-114.8h47l56.4,114.8h-32.4l-10.9-21.7ZM1432,628.4h-.4l-28.4,59.5h57.5Z" transform="translate(0 0)" style="fill:#fff"/><path d="M1631.5,650v-6.3c0-13.3-7.5-14.2-35.5-14.2-32.19995,0-37.69995,3.7-37.69995,26.2v25.4c.19995,23,4.19995,27.4,37.69995,27.4,25.69995,0,37.30005-.6,37.30005-17v-6.3h32v7.5c.69995,34.6-28,33.4-69.19995,34.6-58.6,1.5-69-11.8-69.7-45.3v-26.3c0-36.7,20.6-45,69.7-45,41.5,0,65.19995.2,67.5,33.1v6.3L1631.5,650Z" transform="translate(0 0)" style="fill:#fff"/><path d="M1761.5,726.4h-32v-96H1680.7V611.6h129.6v18.8h-48.8l.00012,96Z" transform="translate(0 0)" style="fill:#fff"/><path d="M1865,726.4h-32V611.6h32Z" transform="translate(0 0)" style="fill:#fff"/><path d="M2040.1,611.6l-53.7,114.8h-48.19995L1884.9,611.6h32.6l44.4,96.4h.7l44.4-96.4Z" transform="translate(0 0)" style="fill:#fff"/><path d="M2089.80005,659H2167.7v18.1h-77.8999v30.5h82.80005v18.8h-114.7V611.6h114.10009v18.8h-82.10009l-.1001,28.6Z" transform="translate(0 0)" style="fill:#fff"/><path d="M2411.3999,726.4h-28.6001l-52.8-96.3h-.7l2.7,96.3h-32V611.6h51.3l45.30005,85.3h.89991l44.3999-85.3h52.3999V726.4h-32l2.7-96.7h-1.1001Z" transform="translate(0 0)" style="fill:#fff"/><path d="M2662.8999,611.6v81.6c0,32-29.1001,34.1-69.5,34.1-39.1001,0-69-2-69-34.1V611.6h32v81.6c0,11.8,6.2,15.3,37.1001,15.3,29.5,0,37.5-2.9,37.5-15.3V611.6Z" transform="translate(0 0)" style="fill:#fff"/><path d="M2725,707.6h77.7v18.8H2693V611.6h32Z" transform="translate(0 0)" style="fill:#fff"/><path d="M2866.2,726.4h-32v-96H2785.3999V611.6H2915v18.8h-48.8v96Z" transform="translate(0 0)" style="fill:#fff"/><path d="M2962.8999,726.4h-32V611.6h32Z" transform="translate(0 0)" style="fill:#fff"/><path d="M2991.1001,611.6h73.69995c44.6001,0,59.30005,7.3,59.30005,39.5,0,32.4-15.80005,38.1-59.30005,38.1H3023.1001v37.2h-32V611.6Zm73.69995,58.8c22.8999-.3,27.30005-3.2,27.30005-19.3,0-16.2-3.30005-20.8-27.30005-20.7H3023.1001v39.9h41.69995Z" transform="translate(0 0)" style="fill:#fff"/><path d="M3178.6001,707.6h77.69995v18.8H3146.7V611.6h32v96Z" transform="translate(0 0)" style="fill:#fff"/><path d="M3301.3999,704.6,3291,726.3h-33.1001L3313.2,611.5h47l56.3999,114.8H3384.2l-10.8999-21.7ZM3337.5,628.4h-.3999l-28.3999,59.5h57.5Z" transform="translate(0 0)" style="fill:#fff"/><path d="M3492.5,682.3v44.1h-32V682.3l-60.2-70.7H3436.7l39.5,49h.69995l40.2-49h36.8Z" transform="translate(0 0)" style="fill:#fff"/><path d="M3597,659h77.8999v18.1H3597v30.5h82.8v18.8H3565V611.6h114.1001v18.8H3597V659Z" transform="translate(0 0)" style="fill:#fff"/><path d="M3736.6001,688.4v38h-32V611.6h85C3826,612.19995,3840,620,3840,646c0,17-1.3,29.4-29.5,32.3v.6c22.6001,1.4,28.2,9.8,28.2,26v21.4h-32V705c0-9.6-5.80005-16.4-21.1001-16.5l-48.99975-.1ZM3778.7,669.6c23.5,0,29.3-3.2,29.3-20.1,0-16.2-4.2-19.1-27.1001-19.1H3736.5v39.2h42.2Z" transform="translate(0 0)" style="fill:#fff"/></svg>