<svg id="Layer_1" data-name="Layer 1" xmlns="http://www.w3.org/2000/svg" viewBox="0 0 3839.00024 468.5"><path d="M2064.5,248.8H1888A46.41216,46.41216,0,0,0,1841.7,295.2V421.1A46.54137,46.54137,0,0,0,1888,467.5h176.5a46.49749,46.49749,0,0,0,46.3999-46.4V295.2A46.56206,46.56206,0,0,0,2064.5,248.8m7.5,172a9.13331,9.13331,0,0,1-9.1001,9.1h-173.3a9.06909,9.06909,0,0,1-9.1-9.1V295.4a8.98492,8.98492,0,0,1,9.1-9h173.3a9.04806,9.04806,0,0,1,9.1001,9Z" transform="translate(0 0)" style="fill:#929497"/><polygon points="40.5 60.5 40.5 222.5 0 222.5 0 3.8 34.6 3.8 198.5 163 198.5 3.8 230.9 3.8 238.5 3.8 238.5 222.5 206.9 222.5 40.5 60.5" style="fill:#fff"/><polygon points="446.4 60.5 446.4 222.5 405.9 222.5 405.9 3.8 440.5 3.8 604.4 163 604.4 3.8 636.8 3.8 644.4 3.8 644.4 222.5 612.8 222.5 446.4 60.5" style="fill:#fff"/><polygon points="1287.5 60.5 1287.5 222.5 1247.1 222.5 1247.1 3.8 1281.6 3.8 1445.6 163 1445.6 3.8 1478 3.8 1485.6 3.8 1485.6 222.5 1454 222.5 1287.5 60.5" style="fill:#fff"/><polygon points="334.9 3.8 342.4 3.8 342.4 222.5 301.9 222.5 301.9 3.8 334.9 3.8" style="fill:#fff"/><polygon points="920.1 3.8 927.5 3.8 927.5 41.4 829.9 41.4 829.9 222.5 787.8 222.5 787.8 41.4 690.2 41.4 690.2 3.8 920.1 3.8" style="fill:#fff"/><polygon points="1179.5 3.8 1187 3.8 1187 41.4 1013.5 41.4 1013.5 90.5 1147.7 90.5 1147.7 128 1013.5 128 1013.5 184.8 1187 184.8 1187 222.5 973.4 222.5 973.4 3.8 1179.5 3.8" style="fill:#fff"/><path d="M1777.1,35.8c-15.80005-20.9-39.30005-32-67.6-32H1547.30005V222.5H1709.5c28.30005,0,51.80005-11.1,67.6-31.9,14.8-19.4,22.69995-46.2,22.69995-77.5-.1-31.2-7.89991-58-22.69995-77.3m-66.5,149H1586.29993V41.4h124.29992c38.9,0,52.69995,38.6,52.69995,71.6C1763.4,146.2,1749.5,184.8,1710.6,184.8" transform="translate(0 0)" style="fill:#fff"/><path d="M2064.5,3.8H1888A46.41216,46.41216,0,0,0,1841.7,50.2v126A46.45556,46.45556,0,0,0,1888,222.5h176.5a46.54123,46.54123,0,0,0,46.3999-46.3V50.2A46.56205,46.56205,0,0,0,2064.5,3.8m7.5,172a9.113,9.113,0,0,1-9.1001,9h-173.3a9.04809,9.04809,0,0,1-9.1-9V50.4a8.9644,8.9644,0,0,1,9.1-8.9h173.3A9.02819,9.02819,0,0,1,2072,50.4Z" transform="translate(0 0)" style="fill:#fff"/><path d="M3380,375.7c42.1001,16.6,130.6001,30,199.8,30,75.7,0,107.1001-25.9,107.1001-58.5,0-29.3-29.19995-46.5-112.89991-77.1-111.69995-41.3-193.69995-74-193.69995-147.3,0-76,98.69995-120.7,249.1001-120.7,80.7,0,108.3999,5.1,159.80005,14.5l.3999,72.2c-50.3999-9.6-95-26-164.3999-26-74.30005,0-106.1001,23.5-106.1001,47.9,0,35.3,48.8999,52.1,134.5,82.6,119.1001,42.6,185.3999,75.5,185.3999,147.4,0,74-83,127.3-270.19995,127.3-76.8999,0-129.8999-5-188.8999-14.5V375.7Z" transform="translate(0 0)" style="fill:#fff"/><path d="M3220.7,434.4c-44.1001,19.9-127.3999,32.6-200.30005,32.6H2742V2.9h278.5c72.8999,0,156.2,12.9,200.3,32.8C3328,84.1,3363,161.6,3363,235c0,73.5-34.7,150.9-142.3,199.4M2981.6001,65.7H2892.5V402.9h89.1001c136.8,0,223-58.4,223-167.9,0-109.4-86.2002-169.3-223-169.3" transform="translate(0 0)" style="fill:#fff"/><path d="M2546.80005,213S2676.7,192.3,2676.7,111.4C2676.7,32.4,2538.3999,0,2391.2,0c-132.80005,0-220.1001,16.2-220.1001,16.2V88c60.3-14.6,118-27,196.6001-27,84.3,0,148.69995,25.1,148.69995,60.7,0,42.8-63.6001,67.3-200.69995,67.3h-63v64.7h58.6001c144.30005,0,226.3999,21.7,226.3999,74.7,0,47.3-73.30005,76-164.7,76-79.7,0-152.6001-16.9-211.8-33.3v77.4c28.3999,4.9,103.8,20,244.19995,20C2561,468.5,2696.2,418.5,2696.2,330.4c-.2-73.9-93.8999-117.4-149.3999-117.4" transform="translate(0 0)" style="fill:#ce181e"/></svg>