<svg id="Layer_1" data-name="Layer 1" xmlns="http://www.w3.org/2000/svg" xmlns:xlink="http://www.w3.org/1999/xlink" viewBox="0 0 3839.01025 1046.05005"><defs><linearGradient id="Dégradé_sans_nom" x1="1651.15045" y1="-4297.37198" x2="2346.77035" y2="-4297.37198" gradientTransform="translate(-415.23041 5263.53693)" gradientUnits="userSpaceOnUse"><stop offset="0" stop-color="#00a6da"/><stop offset="0.1045" stop-color="#49a070"/><stop offset="0.2402" stop-color="#75b230"/><stop offset="0.5037" stop-color="#eeb824"/><stop offset="0.7668" stop-color="#de551e"/><stop offset="1" stop-color="#d81526"/></linearGradient><linearGradient id="Dégradé_sans_nom_2" x1="842.0004" y1="-4297.39691" x2="1627.76031" y2="-4297.39691" gradientTransform="translate(-415.23041 5263.53693)" gradientUnits="userSpaceOnUse"><stop offset="0" stop-color="#d81526"/><stop offset="0.2" stop-color="#de551e"/><stop offset="0.4" stop-color="#eeb824"/><stop offset="0.6" stop-color="#75b230"/><stop offset="0.8" stop-color="#49a070"/><stop offset="1" stop-color="#00a6da"/></linearGradient></defs><path d="M1225.98,14.26H941.99L847.97,219.67H948.26a38.66169,38.66169,0,0,1,38.66,38.66v561.5h633.67993a164.85953,164.85953,0,0,0,164.86-164.86V179.12a164.85953,164.85953,0,0,0-164.86-164.86l-394.61987,0Zm304.86,600.16H1202.87V219.67h327.96a38.66174,38.66174,0,0,1,38.66,38.66V575.76A38.64678,38.64678,0,0,1,1530.84,614.42Z" transform="translate(0 0)" style="fill:#ff681d"/><path d="M2392.54,14.26H1953.78015l-94.02,205.41h80.52a38.624,38.624,0,0,1,35.68994,53.39l-226.21,546.77h233.71l52.98-128.07h402.66l52.98,128.07h233.71ZM2121.47,486.35l108.27-261.69a8.7245,8.7245,0,0,1,16.12012,0L2345.52,465.44a15.12721,15.12721,0,0,1-13.98,20.91Z" transform="translate(0 0)" style="fill:#ff681d"/><path d="M642.78,14.26H204.02L110,219.67h80.52a38.624,38.624,0,0,1,35.69,53.39L0,819.83H233.71l52.98-128.07H689.35l52.98,128.07H976.04ZM371.71,486.35,479.97,224.66a8.72441,8.72441,0,0,1,16.12,0l99.66,240.78a15.12728,15.12728,0,0,1-13.98,20.91Z" transform="translate(0 0)" style="fill:#ff681d"/><path d="M3423.08008,12.92l-147.01,464.6v1.34l-147.01-464.6H2679.7l-94.02,205.41h110a38.66156,38.66156,0,0,1,38.65991,38.66v561.5h215.96V229.36c0-11.33,15.95-13.8,19.37012-2.99l187.78,593.46,237.24-1.34,187.78-593.46c3.41992-10.81,19.37012-8.34,19.37012,2.99v590.47h215.96V12.91h-394.72Z" transform="translate(0 0)" style="fill:#ff681d"/><path d="M1247.18005,1.35H963.19L869.17,206.76H969.46a38.66169,38.66169,0,0,1,38.66,38.66v561.5h633.68a164.85951,164.85951,0,0,0,164.86-164.86V166.21a164.8596,164.8596,0,0,0-164.86-164.86l-394.61988,0Zm304.86,600.16h-327.97V206.76h327.96a38.66175,38.66175,0,0,1,38.66,38.66V562.85A38.62768,38.62768,0,0,1,1552.04,601.51Z" transform="translate(0 0)" style="fill:red"/><path d="M2413.75,1.35H1974.99011l-94.02,205.41h80.52a38.624,38.624,0,0,1,35.68994,53.39l-226.21,546.77h233.71l52.98011-128.07h402.65991l52.98,128.07h233.71Zm-271.07007,472.1,108.26-261.69a8.7245,8.7245,0,0,1,16.12012,0L2366.72,452.54a15.12721,15.12721,0,0,1-13.98,20.91Z" transform="translate(0 0)" style="fill:red"/><path d="M663.98,1.35H225.22L131.2,206.76h80.52a38.624,38.624,0,0,1,35.69,53.39L21.2,806.92H254.91l52.98-128.07h402.66l52.98,128.07h233.71ZM392.91,473.45,501.17,211.76a8.72443,8.72443,0,0,1,16.12,0l99.66,240.78a15.12728,15.12728,0,0,1-13.98,20.91Z" transform="translate(0 0)" style="fill:red"/><path d="M3444.28.01l-147.01,464.6v1.34L3150.26,1.35H2700.8999l-94.02,205.41h110a38.66156,38.66156,0,0,1,38.65991,38.66v561.5h215.96V216.45c0-11.33,15.94995-13.8,19.37011-2.99l187.78,593.46,237.24-1.34,187.78-593.46c3.41992-10.8,19.37012-8.34,19.37012,2.99V805.58H3839V0H3444.28Z" transform="translate(0 0)" style="fill:red"/><path d="M577.35,984.7V906.21a15.2573,15.2573,0,0,0-15.26-15.26H457.62a43.37759,43.37759,0,0,0-43.38,43.38v63.36a43.37754,43.37754,0,0,0,43.38,43.38H604.46V984.71l-27.11-.01Z" transform="translate(0 0)"/><path d="M1583.75,1030.37V907.78h56.77v133.25h-46.11A10.65665,10.65665,0,0,1,1583.75,1030.37Z" transform="translate(0 0)"/><path d="M1666.91,1041.33a43.83433,43.83433,0,0,1-43.79-43.79V951.31a43.83429,43.83429,0,0,1,43.79-43.79l81.7.08a43.83868,43.83868,0,0,1,43.75,43.79v46.15a43.83435,43.83435,0,0,1-43.79,43.79H1666.91Z" transform="translate(0 0)"/><path d="M1887.35,1029.98V959.53h-55.67v81.50995h-46.11A10.68217,10.68217,0,0,1,1774.88,1030.35V907.51H1830.57v.02l69.8.06a43.78728,43.78728,0,0,1,43.75,43.79V1041.2l-46.23-.52A10.692,10.692,0,0,1,1887.35,1029.98Z" transform="translate(0 0)"/><path d="M.01,931.34V907.52H115.14v23.82H71.09v109.72H42.66V931.34Z" transform="translate(0 0)" style="fill:#fff"/><path d="M238.1,1041.06006H209.67V986H158.21v55.06006H129.77V907.51h28.44v54.66h51.46V907.51H238.1Z" transform="translate(0 0)" style="fill:#fff"/><path d="M365.47,931.34H328.43c-19.22,0-26.43,2.2-32.24,9.81-4,5.42-4.8,8.41-5.81,21.63h75.08V986.6H290.38c2,22.82,12.02,30.64,39.25,30.64h35.84v23.82H328.43c-28.44,0-42.05-3.81006-52.66-15.02-11.41-11.81-17.62-30.44-17.62-52.65,0-23.63,7.81-42.45,22.62-55.06,9.41-8,18.62-10.81,36.64-10.81h48.05v23.82Z" transform="translate(0 0)" style="fill:#fff"/><path d="M2100.75,985.96h-79.44995V1041h-28.42V971.36c0-17.21,1.8-31.02,5-38.03,5.8-12.4,16.61-20.61,31.81995-23.81,7.4-1.61,11.61-2,25.02-2h46.03v23.81h-42.41992c-11.41,0-21.62,1.41-26.22,3.4-7.2,3.41-10.81006,10.21-10.81006,20.21v7.21H2100.75v23.81Z" transform="translate(0 0)" style="fill:#fff"/><path d="M2155.21,907.52h32.62012l55.23,133.48h-33.22L2197.03,1009.98H2146.2L2133.38989,1041H2099.97Zm-2.59985,78.65h38.02l-19.01-46.63Z" transform="translate(0 0)" style="fill:#fff"/><path d="M2331.95,1011.79l35.02-104.26h41.41992v133.48h-27.01V940.75l-35.02,100.26h-29.22l-33.02-100.26v100.26h-27.01V907.53H2298.73Z" transform="translate(0 0)" style="fill:#fff"/><path d="M2435.66992,907.52h28.41992V1041h-28.41992Z" transform="translate(0 0)" style="fill:#fff"/><path d="M2518.32007,907.52v74.84c1,23.22,1.3999,24.42,6.61011,29.02,5.2,4.61,11.2,5.81,29.21,5.81h27.22V1041h-30.21c-18.81006,0-23.22-.4-30.02-2.19995-13.61011-3.6-23.81006-12.81006-28.01-25.62-2-6.01-3.2-17.01-3.2-30.82V907.52Z" transform="translate(0 0)" style="fill:#fff"/><path d="M2564.98,907.52h33.41992l30.62012,52.03,32.22-52.03h33.61011l-52.03,76.04V1041h-28.41992V982.56Z" transform="translate(0 0)" style="fill:#fff"/><path d="M2860.18994,1041H2813.76c-23.01,0-34.02-3.19995-44.41992-13.19995-11.3999-11.01-17.61011-29.42-17.61011-53.23,0-30.02,10.61011-52.23,29.41992-61.03,7.6001-3.61,20.81006-6.01,33.82007-6.01h45.23v23.81h-41.82007c-13.21,0-22.62011,3.61-28.41992,10.81-4.40991,5.4-6.81006,16.01-6.81006,29.82,0,19.62,4.2,33.43,12.21,39.23q7.79993,6,24.01,6.01h40.82007V1041Z" transform="translate(0 0)" style="fill:#fff"/><path d="M2987.8999,927.13c8.21,10.61,13.01,28.42,13.01,48.43,0,43.63-21.81006,66.24005-63.84009,66.24005-25.62011,0-45.83007-8.41-56.23-23.41-7.81005-11.01-11.6101-25.62-11.6101-43.63,0-25.42,7-44.83,20.21-55.23,10.3999-8.41,26.81006-13.01,46.22-13.01C2958.67993,906.52,2978.09009,914.13,2987.8999,927.13Zm-81.25,15.42c-4.19995,6.6-6.21,17.21-6.21,31.41,0,31.22,10.81006,45.43,34.82007,45.43,23.81006,0,34.41992-14.21,34.41992-45.63,0-30.82-10.8-44.63-34.82007-44.63C2922.26,929.13,2912.05005,933.94,2906.6499,942.55Z" transform="translate(0 0)" style="fill:#fff"/><path d="M3095.6001,1011.79l35.02-104.26H3172.04v133.48h-27.01V940.75l-35.02,100.26h-29.22l-33.02-100.26v100.26h-27.01V907.53h41.62012Z" transform="translate(0 0)" style="fill:#fff"/><path d="M3227.72,1041h-28.41992V907.52h66.62988c23.40991,0,31.62012,2.4,40.41992,12.2a45.44518,45.44518,0,0,1,12.01,31.23c0,14.01-5.6101,27.01-14.81006,34.81-7.81,6.6-15.01,8.6-30.22,8.6h-45.62011V1041Zm38.62012-70.44c7.6001,0,12.01-1,15.01-3.81,3.6001-2.99,5.8-9.4,5.8-16.8,0-8.81-3.6001-15.22-9.8-17.42-2.2-.79-5.80005-1.2-10.40991-1.2h-39.22v39.23Z" transform="translate(0 0)" style="fill:#fff"/><path d="M3363.62988,987.57c0,13.01,2,19.41,7.39991,24.42,5.2,4.6,14.01,7.6,23.01,7.6,13.01,0,23.22-4.81,26.81006-12.81,1.6001-3.81,2.39991-9.61,2.39991-19.21V907.52h28.41992v78.65c0,21.41-4.3999,34.42-14.40991,42.82-10.61011,8.80005-24.61011,13.01-43.83008,13.01-21.40991,0-36.41992-4.81006-46.03-14.41-9.21-9.4-12.21-19-12.21-39.42V907.53h28.41992v80.04h.02026Z" transform="translate(0 0)" style="fill:#fff"/><path d="M3464.73,931.33V907.52H3579.79v23.81h-44.02V1041H3507.3501V931.33Z" transform="translate(0 0)" style="fill:#fff"/><path d="M3694.49,931.33h-37.02c-19.21,0-26.41992,2.2-32.22,9.8-4,5.41-4.8,8.41-5.8,21.62h75.05v23.81h-75.05c2,22.81,12.01,30.62,39.23,30.62H3694.5v23.81h-37.02c-28.41992,0-42.03-3.81006-52.62988-15.01-11.3999-11.81-17.61011-30.42-17.61011-52.63,0-23.62,7.81006-42.43,22.61011-55.04,9.40991-8,18.61011-10.81,36.62011-10.81h48.03l-.01025,23.83Z" transform="translate(0 0)" style="fill:#fff"/><path d="M3745.36011,1041h-28.41992V907.52h65.24c20.21,0,32.02,2.2,40.02,7.8,9.3999,6.4,14.81,17.21,14.81,29.42,0,20.41-8.19995,33.02-25.40991,39.02,15.61011,4.2,23.21,16.22,24.21,37.02,1,12.41,1.39991,15.21,3.19995,20.21h-31.82006a31.03772,31.03772,0,0,1-1.6001-7.21c-.3999-3.6-1-9.19995-1.2-11.81-2.6001-24.21-11-31.61-36.22-31.61h-22.81006Zm39.81982-74.45c14.61011,0,20.41992-5.4,20.41992-18.41,0-8-3.60009-13.61-9.81006-15.81a44.193,44.193,0,0,0-10.6101-1h-39.82007v35.22h39.82031Z" transform="translate(0 0)" style="fill:#fff"/><path d="M1666.91,1043.68005a45.67764,45.67764,0,0,1-24.03-6.76v4.12a2.34724,2.34724,0,0,1-2.35,2.35h-46.11a13.05758,13.05758,0,0,1-11.87-7.72,46.00227,46.00227,0,0,1-25.63,7.72H1417.53a13.03375,13.03375,0,0,1-13.02-13.02V967.84l-42.93994,74.37a2.34692,2.34692,0,0,1-2.04,1.17h-58.76a2.368,2.368,0,0,1-2.04-1.17l-86.71-150.09a2.345,2.345,0,0,1,2.04-3.52h71.33a2.36817,2.36817,0,0,1,2.04,1.17l42.73,74.01,42.73-74.01a2.34688,2.34688,0,0,1,2.04-1.17h71.26a2.345,2.345,0,0,1,2.04,3.52l-7.68994,13.31h23.26a2.34722,2.34722,0,0,1,2.35,2.35v4.61a46.03946,46.03946,0,0,1,24.43005-6.94h92.87a3.024,3.024,0,0,1,.31005-.02h56.77a2.34722,2.34722,0,0,1,2.35,2.35v4.14a45.63819,45.63819,0,0,1,24.03-6.76l81.69995.08a45.65551,45.65551,0,0,1,23.93,6.73v-4.46a2.34729,2.34729,0,0,1,2.35-2.35h55.68994a3.02872,3.02872,0,0,1,.31006.02l69.49.06a46.19876,46.19876,0,0,1,46.1,46.14v89.82a2.35573,2.35573,0,0,1-2.35,2.3501c-.01,0-46.26-.52-46.26-.52a13.10073,13.10073,0,0,1-12.86-13.06006v-68.1h-50.97v79.16a2.34725,2.34725,0,0,1-2.35,2.35h-46.11a13.05363,13.05363,0,0,1-11.69995-7.29,45.62541,45.62541,0,0,1-25.31006,7.58l-81.66028.01013Zm-316-17.56005,53.59-92.83V907.78a2.36818,2.36818,0,0,1,.93-1.88h-22.05L1332.2,994.77a2.34005,2.34005,0,0,1-2.03,1.18h0a2.36819,2.36819,0,0,1-2.04-1.17l-51.34-88.88h-36.8l69.38,120.21,41.54016.01Z" transform="translate(0 0)"/><path d="M1446.18994,890.95l-9.72,16.84h27.33v9.09a43.98555,43.98555,0,0,1,26.78-9.06h93.18v-.02h56.77v8.59a43.553,43.553,0,0,1,26.38-8.87l81.7.08a43.51917,43.51917,0,0,1,26.28,8.82v-8.9H1830.58v.02l69.8.06a43.78728,43.78728,0,0,1,43.75,43.79v89.82l-46.23-.52a10.69417,10.69417,0,0,1-10.54-10.71v-70.45h-55.67v81.51h-46.11a10.67159,10.67159,0,0,1-10.49-8.68005,43.576,43.576,0,0,1-26.52,8.97h-81.66a43.5534,43.5534,0,0,1-26.38-8.87v8.57h-46.11a10.6573,10.6573,0,0,1-10.55005-9.19995,43.99238,43.99238,0,0,1-26.96,9.19995h-139.4a10.67375,10.67375,0,0,1-10.67-10.67v-71.3l-47.31994,81.96h-58.75l-86.71-150.09H1285.38l44.77,77.53,44.77-77.53h71.27M1330.16,993.61l-52.01-90.05h-42.23l72.09,124.91h44.25l54.58-94.55V907.78h15.09l2.43994-4.23h-42.36L1330.16,993.61m116.02991-107.36h-71.27a4.70763,4.70763,0,0,0-4.06994,2.35l-40.7,70.48-40.69995-70.48a4.70765,4.70765,0,0,0-4.06994-2.35h-71.32007a4.7,4.7,0,0,0-4.07,7.05l86.71,150.09a4.7078,4.7078,0,0,0,4.06995,2.35h58.75a4.70766,4.70766,0,0,0,4.07-2.35l38.55-66.77v53.76a15.38749,15.38749,0,0,0,15.37,15.37h139.4a48.26081,48.26081,0,0,0,24.80005-6.77,15.41011,15.41011,0,0,0,12.71,6.77h46.11a4.69451,4.69451,0,0,0,4.7-4.69995v-.12a47.97149,47.97149,0,0,0,21.68,5.12h81.66a47.93481,47.93481,0,0,0,24.53-6.67,15.40392,15.40392,0,0,0,12.48,6.38h46.11a4.6945,4.6945,0,0,0,4.7-4.69995v-76.81h46.27V1030a15.46618,15.46618,0,0,0,15.17,15.41l46.25.52h.05005a4.71146,4.71146,0,0,0,4.70007-4.69995v-89.82a48.546,48.546,0,0,0-48.45-48.49l-69.35-.06c-.15-.01-.30005-.02-.44995-.02h-55.68994a4.69451,4.69451,0,0,0-4.69995,4.7v.47a47.91021,47.91021,0,0,0-21.58-5.08l-81.7-.08a47.98185,47.98185,0,0,0-21.68994,5.12v-.14a4.69455,4.69455,0,0,0-4.69995-4.7h-56.77c-.15,0-.30005.01-.43994.02h-92.73a48.35061,48.35061,0,0,0-22.08,5.27v-.59a4.69455,4.69455,0,0,0-4.69995-4.7h-19.18994l5.65-9.79a4.69812,4.69812,0,0,0,0-4.7,4.64471,4.64471,0,0,0-4.07092-2.39Zm0,9.4ZM1384.74,908.26h17.41v24.4l-52.6,91.11h-38.80994l-66.67-115.51h31.37l50.66,87.7a4.70767,4.70767,0,0,0,4.06994,2.35h0a4.70767,4.70767,0,0,0,4.07-2.35l50.5-87.7Z" transform="translate(0 0)" style="fill:#d8d8d8"/><path d="M1596.32,1028.48h31.64V920.36h-31.64ZM1556.91,960.95h-59.49a6.83,6.83,0,0,1,0-13.66h87.65V920.36h-94.47a31.64552,31.64552,0,0,0-31.64,31.64v4.22a31.64557,31.64557,0,0,0,31.64,31.64h59.49a6.83,6.83,0,0,1,0,13.66h-91.13v26.93005h97.96a31.64552,31.64552,0,0,0,31.64-31.64v-4.22A31.6605,31.6605,0,0,0,1556.91,960.95ZM1748.59,920.16l-81.64-.08a31.22942,31.22942,0,0,0-31.27,31.23v46.23a31.23363,31.23363,0,0,0,31.23,31.23h81.64a31.24,31.24,0,0,0,31.23-31.23v-46.15A31.225,31.225,0,0,0,1748.59,920.16Zm-.46,69.12006a12.12049,12.12049,0,0,1-12.11,12.11h-56.56995a12.12041,12.12041,0,0,1-12.11-12.11V959.1a12.12049,12.12049,0,0,1,12.11-12.11H1736.02a12.12042,12.12042,0,0,1,12.11,12.11ZM1900.38,920.16l-81.64-.08c-.23,0-.48.02-.71.04v-.04H1787.47V1028.5h31.64V959.1a12.12049,12.12049,0,0,1,12.11-12.11h56.56995a12.12042,12.12042,0,0,1,12.11,12.11v69.05l31.64.35V951.39A31.18026,31.18026,0,0,0,1900.38,920.16Zm-518.23-16.6-51.99,90.07-52.02-90.07h-42.22l72.13,124.92H1352.25l72.13-124.92Zm37.27,124.92h31.81006V920.36H1419.42Z" transform="translate(0 0)" style="fill:url(#Dégradé_sans_nom)"/><path d="M848.99,1043.7c-.11,0-.22-.01-.33-.02a45.94859,45.94859,0,0,1-21.55-5.51v2.94995a2.34722,2.34722,0,0,1-2.35,2.35H752.88a45.92381,45.92381,0,0,1-34.06-15.02,45.95368,45.95368,0,0,1-33.98,14.96H457.61a45.77616,45.77616,0,0,1-45.73-45.73v-63.36a45.78255,45.78255,0,0,1,45.73-45.73H562.08a17.63017,17.63017,0,0,1,17.61,17.61v5.16a45.71369,45.71369,0,0,1,23.5-6.45l81.69.08a45.90965,45.90965,0,0,1,21.86,5.54v-2.9a2.34725,2.34725,0,0,1,2.35-2.35h46.1a13.05509,13.05509,0,0,1,13.04,13.04v67.94h34.62v-78.77a2.35585,2.35585,0,0,1,2.35-2.35l134.2.08a13.0978,13.0978,0,0,1,11.24,6.49,45.86381,45.86381,0,0,1,23.67-6.55l90.41.04a13.09087,13.09087,0,0,1,11.26,6.52,45.8224,45.8224,0,0,1,23.68994-6.56l81.69006.08a46.1902,46.1902,0,0,1,46.09,46.14v46.14a46.19435,46.19435,0,0,1-46.14,46.13995h-81.34a3.02425,3.02425,0,0,1-.31006.02,45.83757,45.83757,0,0,1-21.93994-5.56006v3.21a2.34726,2.34726,0,0,1-2.35,2.35H974.29a45.95947,45.95947,0,0,1-21.9-5.52v3.18994a2.3472,2.3472,0,0,1-2.35,2.35L848.99,1043.7Z" transform="translate(0 0)"/><path d="M562.09,890.95a15.2573,15.2573,0,0,1,15.26,15.26v9.53a43.57515,43.57515,0,0,1,25.86-8.48l81.69.08a43.563,43.563,0,0,1,24.21,7.35v-7.06h46.1a10.68226,10.68226,0,0,1,10.69,10.69v70.29h39.32v-81.12l134.2.08a10.681,10.681,0,0,1,10.21,7.6,43.535,43.535,0,0,1,24.71-7.66l90.41.04a10.66768,10.66768,0,0,1,10.22,7.64,43.52393,43.52393,0,0,1,24.74-7.68l81.69007.08a43.83012,43.83012,0,0,1,43.74,43.79v46.14a43.8343,43.8343,0,0,1-43.79,43.79h-81.64v.02a43.48308,43.48308,0,0,1-24.29-7.38v7.38H974.34a43.54949,43.54949,0,0,1-24.25-7.33v7.35H849.01v-.02a43.65084,43.65084,0,0,1-24.23-7.31006v7.1H752.9a43.71353,43.71353,0,0,1-34.06-16.27,43.72946,43.72946,0,0,1-33.98,16.21h-227.22a43.37759,43.37759,0,0,1-43.38-43.38V934.32a43.37758,43.37758,0,0,1,43.38-43.38L562.09,890.95m0-4.7H457.62a48.13628,48.13628,0,0,0-48.08,48.08v63.36a48.13632,48.13632,0,0,0,48.08,48.08H684.85a48.27616,48.27616,0,0,0,33.97-13.92,48.23234,48.23234,0,0,0,34.07,13.98h71.88a4.70747,4.70747,0,0,0,4.64-3.92,48.32642,48.32642,0,0,0,19.13,4.12,3.53721,3.53721,0,0,0,.46.02H950.08a4.70482,4.70482,0,0,0,4.67-4.14,48.35685,48.35685,0,0,0,19.58,4.12h101.08a4.69788,4.69788,0,0,0,4.67-4.15,48.276,48.276,0,0,0,19.62,4.15c.15,0,.3-.01.44995-.02h81.2a48.54167,48.54167,0,0,0,48.49-48.49v-46.14a48.55676,48.55676,0,0,0-48.43995-48.49l-81.69006-.08a48.14929,48.14929,0,0,0-22.99,5.81,15.44454,15.44454,0,0,0-11.97-5.77l-90.41-.04a48.06173,48.06173,0,0,0-22.97,5.8,15.45545,15.45545,0,0,0-11.94-5.73l-134.19-.08h0a4.65128,4.65128,0,0,0-3.32,1.38,4.71035,4.71035,0,0,0-1.38,3.32v76.42H770.62v-65.59a15.40886,15.40886,0,0,0-15.39-15.39h-46.1a4.71369,4.71369,0,0,0-4.63,3.86,48.05427,48.05427,0,0,0-19.58-4.15l-81.69-.08a48.03811,48.03811,0,0,0-21.16,4.86v-1.22A20.0074,20.0074,0,0,0,562.09,886.25Z" transform="translate(0 0)" style="fill:#d8d8d8"/><path d="M684.87,919.91l-81.64-.08a31.21874,31.21874,0,0,0-31.26,31.22v46.23a31.25288,31.25288,0,0,0,31.24,31.22h81.62a31.223,31.223,0,0,0,31.22-31.22v-46.15A31.21437,31.21437,0,0,0,684.87,919.91Zm-.48,69.1a12.10978,12.10978,0,0,1-12.1,12.1H615.73a12.11834,12.11834,0,0,1-12.11-12.1V958.83a12.1119,12.1119,0,0,1,12.11-12.1h56.56a12.10977,12.10977,0,0,1,12.1,12.1Zm496.96-68.85-81.62-.08a31.21874,31.21874,0,0,0-31.26,31.22v46.23a31.223,31.223,0,0,0,31.22,31.22h81.62a31.223,31.223,0,0,0,31.22-31.22v-46.15A31.22717,31.22717,0,0,0,1181.35,920.16ZM1180.9,989.28a12.11194,12.11194,0,0,1-12.11,12.1H1112.23a12.11829,12.11829,0,0,1-12.11-12.1v-30.2a12.11194,12.11194,0,0,1,12.11-12.1H1168.79a12.11829,12.11829,0,0,1,12.11,12.1ZM426.77,939.49v53.27a35.98582,35.98582,0,0,0,35.98,36h102V997.21H477.21a13.95561,13.95561,0,0,1-13.95-13.95v-34.8a13.95561,13.95561,0,0,1,13.95-13.95h87.54V903.56l-101.98-.05A36.005,36.005,0,0,0,426.77,939.49ZM943.08,951.3v46.23a31.25718,31.25718,0,0,0,31.24,31.24h88.51v-27.38H986.86a12.10977,12.10977,0,0,1-12.1-12.1v-30.2a12.10977,12.10977,0,0,1,12.1-12.1h75.97v-26.86l-88.49-.04A31.20368,31.20368,0,0,0,943.08,951.3ZM753.32,989.07V920.2H721.66v77.14a31.21023,31.21023,0,0,0,31.22,31.22h59.29v-27.38H765.42A12.11842,12.11842,0,0,1,753.32,989.07Zm64.45,8.46a31.21446,31.21446,0,0,0,31.22,31.24H937.5v-27.38h-80a8.1,8.1,0,1,1,0-16.19995h72.44v-21.56H857.73a8.33,8.33,0,0,1,0-16.66H937.5v-26.86l-119.73-.08v77.5Z" transform="translate(0 0)" style="fill:url(#Dégradé_sans_nom_2)"/></svg>