<svg id="Layer_1" data-name="Layer 1" xmlns="http://www.w3.org/2000/svg" viewBox="0 0 3839 1404.20007"><path d="M2428.5,83.3A99.71317,99.71317,0,0,1,2473.3999,0h-1107.8a99.72046,99.72046,0,0,1,0,166.6h1107.8A99.44832,99.44832,0,0,1,2428.5,83.3Z" transform="translate(0 0)" style="fill:#fff"/><path d="M2528.30005,53.5a29.8,29.8,0,1,0,29.80005,29.8A29.74654,29.74654,0,0,0,2528.30005,53.5Z" transform="translate(0 0)" style="fill:#f20012"/><path d="M2528.30005,6.9a76.5,76.5,0,1,0,76.5,76.5A76.49974,76.49974,0,0,0,2528.30005,6.9Zm0,129.6a53.1,53.1,0,1,1,53.1001-53.1A53.13379,53.13379,0,0,1,2528.30005,136.5Z" transform="translate(0 0)" style="fill:#0046b7"/><path d="M1310.7,53.5A29.8,29.8,0,1,0,1340.5,83.3,29.74654,29.74654,0,0,0,1310.7,53.5Z" transform="translate(0 0)" style="fill:#f20012"/><path d="M1310.7,6.9a76.5,76.5,0,1,0,76.5,76.5A76.49974,76.49974,0,0,0,1310.7,6.9Zm0,129.6a53.1,53.1,0,1,1,53.1-53.1A53.13368,53.13368,0,0,1,1310.7,136.5Z" transform="translate(0 0)" style="fill:#0046b7"/><path d="M1449.7,50.2v97.7h41.9V98h38.1v49.9h41.9V50.2a31.3894,31.3894,0,0,0-31.4-31.4h-59A31.411,31.411,0,0,0,1449.7,50.2Zm80,18.5h-38.1V55.9h38.1Z" transform="translate(0 0)"/><path d="M1939.2,50.2v97.7h41.9V98h38.1v49.9h41.8999V50.2a31.38939,31.38939,0,0,0-31.4-31.4h-59A31.411,31.411,0,0,0,1939.2,50.2Zm80,18.5h-38.1V55.9h38.1Z" transform="translate(0 0)"/><path d="M2113.1001,18.8V148h95A31.38939,31.38939,0,0,0,2239.5,116.6V50.2a31.38945,31.38945,0,0,0-31.3999-31.4Zm84.5,92h-42.7V55.9h42.7Z" transform="translate(0 0)"/><path d="M1737.2,50.2a31.49854,31.49854,0,0,0-31.3999-31.4h-90.4V147.9h41.9V98h38.1v49.9h41.9V109.1a31.28127,31.28127,0,0,0-13.5-25.8,31.53867,31.53867,0,0,0,13.5-25.8V55.9h0V50.2Zm-41.8999,18.5h-38.1V55.9h38.1Z" transform="translate(0 0)"/><path d="M2388.30005,55.9V18.8H2311.6001c-17,0-30.80005,14.1-30.80005,31.4v66.3c0,17.4,13.80005,31.4,30.80005,31.4h76.69995V110.7h-66.5V98h66.5V68.7h-66.5V55.9Z" transform="translate(0 0)"/><path d="M1893,55.9V18.8H1808.7a31.38941,31.38941,0,0,0-31.4,31.4v66.3a31.38939,31.38939,0,0,0,31.4,31.4H1893V110.7h-73.9V55.9Z" transform="translate(0 0)"/><path d="M2839.2,947.3V802H2636V950.4h-8l-24-37.6L2533,802H2355.6001v49.8l-26.3999-15.9c-45.80005-27.5-99-42.1-154-42.1a294.35175,294.35175,0,0,0-153.80005,43.3l-26.5,16.2V802h-203.3v14.1l-23.6-9a207.87455,207.87455,0,0,0-74-13.3,197.50958,197.50958,0,0,0-74.19995,14.2l-23.9,9.6V802h-264.1l-47,148.4h-34.69995l-52-148.4-228.7-1.2c-1,17.9,172.4,475.9,172.4,475.9l4.1-18.69995,42.5,116.4H1356.2002l2.4-7.3,33.9-102.9v110.1H1596v-13.9l23.5,8.80005a217.83122,217.83122,0,0,0,148.79993.4l23.4-8.5v13.19995H1995V1323L2021.5,1339.2a295.26441,295.26441,0,0,0,307.7.1001l26.5-16.19995v51.19995H2559V1246.4h24.6001l81.8,127.9h173.8999V1249.5H3590.7002l207.5-302.3H2839.2Z" transform="translate(0 0)" style="fill:#fff"/><path d="M2860.7,925.8V780.5H2614.3999v109l-63.3-99-6.30005-9.9H2334.09985v33.3c-47.7-27.2-102.3999-41.5-158.80005-41.5a315.66486,315.66486,0,0,0-158.8,42.8V780.6h-246.3v4.5a229.75031,229.75031,0,0,0-76.1-12.7,219.51835,219.51835,0,0,0-76.6,13.6v-5.4h-301.4l-4.8,15-42.2,133.4h-3.69995l-46.9-134-5-14.4H993c-.2,7.2-.5,14.3-.8,21.5h206.1l52,148.4H1285l47-148.4h264v15.6l23.9-9.6a198.26812,198.26812,0,0,1,74.2-14.2,207.87463,207.87463,0,0,1,74,13.3l23.6,9V802H1995v51.4l26.5-16.2a294.61242,294.61242,0,0,1,153.8-43.3c55,0,108.2,14.5,154,42.1L2355.7,851.9V802H2533l70.8999,110.8,24,37.6h8V802H2839.2V947.3H3798.1001l-207.5,302.3H2839.2002v124.8H2665.30029l-81.80005-127.9h-24.60009v127.9h-203.3v-51.19995l-26.5,16.19995a295.26438,295.26438,0,0,1-307.7-.10009L1995,1323v51.4H1791.7v-13.19995l-23.4,8.5a216.41652,216.41652,0,0,1-74.19995,12.9,211.96945,211.96945,0,0,1-74.6-13.30005L1596,1360.5v13.9H1392.7v-110.1l-33.9,102.9-2.4,7.3h-167.8L989.2,828l-22.8.4,202,553.4,5.2,14.1h444v-4.5a234.02076,234.02076,0,0,0,76.6,12.7,238.7853,238.7853,0,0,0,76.1-12.2v4.1H2016.6v-34.6a316.63623,316.63623,0,0,0,317.6.20008v34.4h246.3v-114.4l66.8,104.5,6.30005,9.9h207.19995v-124.8H3602l237-345.3H2860.7Z" transform="translate(0 0)" style="fill:#0046b7"/><polygon points="707.7 971.9 727.8 1225 3580.8 1225 3754.5 971.9 707.7 971.9" style="fill:#f20012"/><path d="M3430.5,631.9c-3.8-26.8-6.8-53.7-9.2-80.7-2.5-28-4.1001-56.1-5.8-84.2-1.6001-26.9-4.8-53.5-7.3-80.3a6.355,6.355,0,0,1-1.1001-2.5c-4.80005-28.9-9.5-57.6-9.2-87,.2-19.1,1.5-38.1,2.6001-57.1H3046.8999v20L3024.2,252.8c-26.30005-8.4-56.7-12.7-90.2-12.7H2022.5V388.5h-8l-24-37.6-70.9-110.8H1485.80005L1381.9,388.5h-24.4V240.1H1154v57.2l-26.5-16.1c-44.69995-27.2-98.80005-41-160.9-41h-304L568,377.8l-5.2,7.6H248.3L40.8,687.7H355.3L336.6,715l-66.9,97.5H516.9l81.8-119.7,5.2-7.6H644V812.5H964.4c63.80005,0,117.2-13.3,163.4-40.5l26.30005-15.5v56.1h180.19995l89.19995-127.9H1478.2V812.6H1945.3999v-128h24.6l81.79992,127.9h366.1001V717l30.3999,33.8a181.675,181.675,0,0,0,15.2,15.2c39.5,35.3,91.8999,54.7,147.8,54.7a226.88965,226.88965,0,0,0,94.1001-20.1l24.6001-11.1v23h203.3v-52.6l31.6001,44.4,5.80005,8.2h425.3999V684.6h41.69995C3435.8999,667,3433,649.5,3430.5,631.9Z" transform="translate(0 0)" style="fill:#fff"/><path d="M3396.1001,697.8V812.4H2970.7002l-5.80005-8.2-31.6001-44.4v52.6H2730v-23l-24.6001,11.1a227.56723,227.56723,0,0,1-94.1001,20.1c-55.8,0-108.3-19.4-147.8-54.7a181.675,181.675,0,0,1-15.2-15.2l-30.3999-33.8v95.5H2051.7998L1970,684.6h-24.6V812.5H1478.2V684.6H1423.5l-89.19995,127.9H1154V756.4L1127.7,771.9c-46.19995,27.3-99.6,40.5-163.4,40.5H644V685.1H603.9l-5.2,7.6L516.9,812.4H269.7l66.9-97.5,18.7-27.3H40.8L248.3,385.3H562.8l5.2-7.6,94.6-137.8H966.7c62.1,0,116.19995,13.8,160.9,41l26.5,16.1V239.8h203.3V388.2h24.4l103.9-148.4H1919.5l70.9,110.8,24,37.6h8V240.1H2933.8999c33.5,0,63.8999,4.3,90.2,12.7l22.69995,7.3v-20h353.6001c.3999-7.2.6001-14.3.80005-21.5h-375.8999v12.1c-27.19995-8-57.8999-12.1-91.3999-12.1h-933v109l-63.3-99-6.30005-9.9H1474.6001l-6.4,9.2L1378.9,355.4V218.6H1132.6v40.5c-46.80005-26.9-102.6-40.5-165.8-40.5H651.3l-6.4,9.3-93.4,136H237L0,709.2H314.5L252,800.3,228.9,834H528.3l6.4-9.4,80.6-118h7.2V833.9H964.4c64.9,0,120-13.1,168.2-40v40h213l6.4-9.2,82.69995-118.7h22V833.9H1966.8999V719.6L2033.7,824.1,2040,834h399.3999V772.8c3.2,3.2,6.5,6.3,9.80005,9.3,43.3999,38.7,100.8999,60.1,162.1001,60.1a247.07346,247.07346,0,0,0,97.2-19.5v11.3h709.1001V703.1Z" transform="translate(0 0)" style="fill:#0046b7"/><polygon points="3693 410 257.5 410 83.7 663.1 3536.6 663.1 3693 410" style="fill:#f20012"/><polygon points="3374.6 687.7 3590.7 687.7 3798.2 385.4 3374.6 385.4 3374.6 687.7" style="fill:#fff"/><polygon points="3403.3 385.4 3798.2 385.4 3590.7 687.7 3396.1 687.7 3396.1 709.2 3602 709.2 3839 363.9 3410.4 363.9 3403.3 385.4" style="fill:#0046b7"/><polygon points="3352.9 663.1 3581.5 663.1 3755.3 410 3358.3 410 3352.9 663.1" style="fill:#f20012"/><rect x="3396.1001" y="218.60001" width="21.5" height="166.80002" style="fill:#0046b7"/><polyline points="1010.4 925.8 237 925.8 0 1271.1 1142 1271.1" style="fill:#0046b7"/><polyline points="1149.9 1249.6 40.8 1249.6 248.3 947.3 1043.5 947.3" style="fill:#fff"/><polygon points="1079.9 971.9 258.2 971.9 84.5 1225 1161.6 1225 1079.9 971.9" style="fill:#f20012"/><polyline points="2839.2 971.9 2839.2 796.3 2702.9 778.1 2415.3 704.2 2402.7 799.1 2056.4 799.1 1968.4 673.8 1929.8 677.9 1929.8 796.3 1490.4 803.7 1485.8 677.9 1415.8 677.9 1324.7 802.4 1163.9 803.5 1159.3 738.1 981.3 806 1041.7 971.9" style="fill:#fff"/><path d="M2657.3999,823.5v213L2521.2,823.5h-144.1001v79.2c-49.60009-54-121.10009-87.4-201.80005-87.4a273.06081,273.06081,0,0,0-201.8,88.9V823.4h-160.3v35.5c-30.30005-27.4-71.5-43.7-119-43.7-47.1,0-89.2,18-119.6,47.4V823.4h-226.9l-78.1,246.9L1183,823.5H1010.3l193.2,529.4h137.30005l73.4-222.4v222.4h160.3v-34.19995c31.30005,26.69995,72.5,42.3,119.6,42.3,46.8,0,87.9-15.1,119-41v32.80005h160.3v-80.80005a273.802,273.802,0,0,0,403.60009.30005v80.4h160.30005V1134.40015l139.69995,218.30005h140.6001V823.5Z" transform="translate(0 0)" style="fill:#f20012"/><path d="M1462.80005,1304.2V872.1h63.1v432.20007h-63.1Z" transform="translate(0 0)" style="fill:#fff"/><path d="M1694.1,1312.4c-78.80005,0-133.2-57.8-133.2-136.1H1624c0,42,24.5,78.30005,70.1,78.30005,43.19995,0,69.5-31,69.5-73,0-46.1-33.30005-56.7-69.5-70.7-67.2-25.69995-120.9-45.6-120.9-129.6,0-67.2,54.9-117.4,120.9-117.4,71.8,0,123.8,47.3,123.8,120.3h-63.1c0-37.4-23.4-62.5-60.69995-62.5-31.5,0-57.80005,27.4-57.80005,59,0,91.7,190.4,36.8,190.4,200.9C1826.7,1259.30005,1771.2,1312.4,1694.1,1312.4Z" transform="translate(0 0)" style="fill:#fff"/><path d="M2175.30005,1312.4c-123.8,0-224.8-100.5-224.8-224.3,0-125,100.5-224.3,224.8-224.3,126.2,0,224.80005,99.9,224.80005,225.4C2400.1001,1212.6,2298.5,1312.4,2175.30005,1312.4Zm0-390.7c-67.19995,0-120.3,36.2-146.6,97.5-9.30005,21.6-15.2,44.99994-15.2,68.9s5.80005,47.9,15.2,70.1c26.9,60.69995,80.00013,96.4,146.6,96.4,71.30005,0,126.2-40.9,150.7-106.9a161.83017,161.83017,0,0,0,11.1001-57.80005C2337.1001,998.2,2269.30005,921.7,2175.30005,921.7Z" transform="translate(0 0)" style="fill:#fff"/><path d="M1861.80005,1304.2V872.1h63.1v432.20007h-63.1Z" transform="translate(0 0)" style="fill:#fff"/><path d="M2703.7,1304.2,2490,970.2h-1.2v334.1H2425.7V872.1h68.8999L2704.7998,1200.8999h1.2V872.1h63.10009v432.20007H2703.7Z" transform="translate(0 0)" style="fill:#fff"/><polygon points="1383.2 872.1 1271.8 1224.2 1148.5 872.1 1079.9 872.1 1237.6 1304.2 1305.7 1304.2 1448.3 872.1 1383.2 872.1" style="fill:#fff"/><path d="M310.5,791H505.6l87-127.3h72.9V791H964.4c84.4,0,150.80005-25,203.2-76.7,2.8-2.8,5.4-5.7,8-8.6V791h147.5l176.6-253.2V791H1923.9V572.6L2063.5,791h140.6001V416.6H2236V791h160.3V416.6H2417.7V602.8c0,61.3,20.8,112.2,60,147.2,35.5,31.7,82.8999,49.2,133.3999,49.2,50.6001,0,97.89991-17.5,133.39991-49.1,2.3999-2.2,4.60009-4.6,6.8-6.8V791h160.30005V692.6l70,98.4h392.8V635.9h-146V601.7h146v-155h-146V416.6h146V261.5h-306.3V299c-33.2-25.2-77.30005-37.5-134.3999-37.5H2644.2998V601c0,43.1-24.8999,43.1-33.10009,43.1-8.19995,0-33.19995,0-33.19995-43.1V261.5H2043.69971v213l-136.2-213H1493.8999l-158,233.4V261.5h-160.3V352c-46.7-59.2-118.6-90.4-208.8-90.4H673.9L357.8,722m0,0-47.3,69" transform="translate(0 0)" style="fill:#f20012"/><path d="M1297.7,742.3h-73.6V310.2h63.1v341.6h1.19995L1519.7,310.2h79.4Z" transform="translate(0 0)" style="fill:#fff"/><path d="M714.1,742.3V615H566.9l-87,127.3H402.8L699.5,310.1h77.7V742.3Zm0-350.4h-1.2L606.7,557.2H714.2V391.9Z" transform="translate(0 0)" style="fill:#fff"/><path d="M1133.1,679.8c-47.30005,46.7-104,62.5-168.8,62.5H826.5V310.2H966.7c69.49994,0,134.9,21,176.4,79.4,28,39.1,44.4,89.4,44.4,137.8C1187.5,577.6,1169.4,643.6,1133.1,679.8Zm-21.6-218.4C1085.80005,398.9,1032.7,368,966.1,368H889.6V684.5h75.3c98.1,0,159.4-57.2,159.4-157.1C1124.4,505.2,1119.7,482.4,1111.5,461.4Z" transform="translate(0 0)" style="fill:#fff"/><path d="M1548.2,742.3V310.2h209.1V368h-146V495.3h146v57.8h-146V684.5h146v57.8Z" transform="translate(0 0)" style="fill:#fff"/><path d="M3116.8999,742.3V310.2H3326V368H3180V495.3h146v57.8H3180V684.5h146v57.8Z" transform="translate(0 0)" style="fill:#fff"/><path d="M2090.2,742.3,1876.5,408.2h-1.19995V742.3h-63.1V310.2h68.9L2091.30005,639h1.2V310.2h63.1001V742.4H2090.2Z" transform="translate(0 0)" style="fill:#fff"/><path d="M2347.80005,368V742.4H2284.7V368h-82.8999V310.2H2430.7V368Z" transform="translate(0 0)" style="fill:#fff"/><path d="M2712.30005,713.7c-27.3999,24.5-64.19995,36.8-101,36.8s-73.6001-12.3-101-36.8c-32.1001-28.6-43.8-68.9-43.8-111V310.2h63.1001V601c0,51.4,28,91.7,81.8,91.7,53.7,0,81.80005-40.3,81.80005-91.7V310.2h63.10009v292.6C2756.1001,644.8,2744.5,685.1,2712.30005,713.7Z" transform="translate(0 0)" style="fill:#fff"/><path d="M3006.8999,573c-12.8999,4.7-28,8.2-42.1001,8.2l120.89991,161.2h-78.8L2864.3999,542H2863.2V742.3h-63.1001V310.2H2933.7998c40.89991,0,84.7,6.4,115.1001,36.2,27.3999,26.3,39.7,64.8,39.7,102.2C3088.6001,507,3062.8999,553.1,3006.8999,573Zm-77.09985-205H2863.2V533.3h43.19995c56.1001,0,119.1001-15.8,119.1001-84.7C3025.5,393.7,2980,368,2929.80005,368Z" transform="translate(0 0)" style="fill:#fff"/></svg>