<?xml version="1.0" encoding="UTF-8" standalone="no"?>
<svg
   height="277.11331pt"
   preserveAspectRatio="xMidYMid meet"
   viewBox="0 0 591 277.11331"
   width="591pt"
   version="1.1"
   id="svg54"
   sodipodi:docname="alphadenshi.svg"
   inkscape:version="1.1.2 (0a00cf5339, 2022-02-04, custom)"
   xmlns:inkscape="http://www.inkscape.org/namespaces/inkscape"
   xmlns:sodipodi="http://sodipodi.sourceforge.net/DTD/sodipodi-0.dtd"
   xmlns="http://www.w3.org/2000/svg"
   xmlns:svg="http://www.w3.org/2000/svg">
  <defs
     id="defs58" />
  <sodipodi:namedview
     id="namedview56"
     pagecolor="#ffffff"
     bordercolor="#666666"
     borderopacity="1.0"
     inkscape:pageshadow="2"
     inkscape:pageopacity="0.0"
     inkscape:pagecheckerboard="0"
     inkscape:document-units="pt"
     showgrid="false"
     inkscape:zoom="0.90332891"
     inkscape:cx="607.19855"
     inkscape:cy="261.25589"
     inkscape:window-width="1920"
     inkscape:window-height="1017"
     inkscape:window-x="-8"
     inkscape:window-y="-8"
     inkscape:window-maximized="1"
     inkscape:current-layer="svg54" />
  <g
     transform="matrix(0.1,0,0,-0.1,-5,289.7)"
     id="g52">
    <path
       d="M 2370,1305 V 640 h 360 360 v 140 140 l -217,2 -218,3 -3,523 -2,522 h -140 -140 z"
       id="path2"
       style="fill:#ffffff" />
    <path
       d="m 3185,1958 c -3,-7 -4,-305 -3,-663 l 3,-650 143,-3 142,-3 v 175 174 l 123,4 c 98,3 131,8 169,25 93,42 172,148 214,289 29,94 25,276 -8,376 -45,137 -130,240 -225,272 -61,21 -551,24 -558,4 z m 453,-280 c 87,-58 119,-204 68,-313 -13,-27 -32,-58 -42,-67 -33,-29 -91,-48 -144,-48 h -50 v 231 231 l 64,-4 c 47,-3 74,-11 104,-30 z"
       id="path4"
       style="fill:#ffffff" />
    <path
       d="M 4080,1305 V 640 h 140 140 v 265 265 h 125 125 V 905 640 h 145 145 v 665 665 h -145 -145 v -260 -260 h -125 -125 v 260 260 h -140 -140 z"
       id="path6"
       style="fill:#ffffff" />
    <path
       d="m 5330,1938 c -6,-18 -88,-253 -181,-521 L 4979,929 V 787 645 h 112 112 l 111,332 c 61,183 113,333 116,333 3,0 34,-87 69,-192 35,-106 66,-198 68,-205 4,-9 -20,-13 -87,-15 l -92,-3 -39,-125 c -21,-69 -39,-126 -39,-127 0,-2 146,-3 325,-3 257,0 325,3 325,13 0,13 -92,289 -213,637 -170,488 -225,646 -232,663 -6,14 -20,17 -90,17 h -83 z"
       id="path8"
       style="fill:#ffffff" />
    <path
       d="m 2840,522 c -27,-13 -37,-26 -45,-55 -14,-61 6,-86 94,-119 41,-15 78,-33 82,-40 25,-39 -11,-88 -65,-88 -39,0 -86,33 -86,61 0,12 -7,19 -20,19 -48,0 -2,-91 55,-110 102,-34 189,43 152,133 -12,28 -25,38 -63,52 -99,34 -114,43 -114,68 0,32 30,57 66,57 34,0 74,-25 74,-46 0,-8 9,-14 20,-14 24,0 25,11 5,49 -25,49 -95,64 -155,33 z"
       id="path10"
       style="fill:#ffffff" />
    <path
       d="m 3820,522 c -44,-22 -70,-67 -77,-134 -14,-140 68,-232 177,-199 42,12 80,57 80,94 0,29 -34,19 -50,-16 -28,-60 -101,-62 -144,-4 -17,22 -21,43 -21,97 0,54 4,75 21,97 41,55 112,56 142,3 19,-33 21,-34 41,-21 11,7 10,15 -8,44 -34,55 -98,71 -161,39 z"
       id="path12"
       style="fill:#ffffff" />
    <path
       d="m 4153,524 c -55,-28 -78,-77 -78,-164 0,-89 24,-138 81,-165 156,-74 276,165 150,302 -39,43 -101,54 -153,27 z m 120,-48 c 23,-22 47,-80 47,-116 0,-35 -23,-94 -45,-116 -35,-35 -88,-33 -125,4 -33,34 -45,83 -35,149 13,91 99,134 158,79 z"
       id="path14"
       style="fill:#ffffff" />
    <path
       d="M 195,518 C 192,511 165,434 135,348 86,205 82,190 99,190 c 14,0 24,13 36,50 l 17,51 66,-3 66,-3 15,-48 c 12,-39 19,-47 39,-47 19,0 23,4 17,18 -4,9 -32,86 -62,170 -45,122 -60,152 -75,152 -10,0 -21,-6 -23,-12 z m 49,-116 25,-72 h -50 c -27,0 -49,3 -49,7 0,12 44,143 47,139 2,-1 14,-35 27,-74 z"
       id="path16"
       style="fill:#ffffff" />
    <path
       d="M 430,360 V 190 h 95 c 88,0 95,1 95,20 0,18 -7,20 -75,20 h -75 v 150 c 0,143 -1,150 -20,150 -19,0 -20,-7 -20,-170 z"
       id="path18"
       style="fill:#ffffff" />
    <path
       d="m 700,360 c 0,-163 1,-170 20,-170 18,0 20,7 20,69 v 69 l 71,4 c 63,3 74,7 95,31 43,50 27,137 -29,157 -16,5 -63,10 -103,10 h -74 z m 174,114 c 21,-20 20,-63 -1,-86 -12,-13 -31,-18 -75,-18 h -58 v 60 60 h 59 c 41,0 65,-5 75,-16 z"
       id="path20"
       style="fill:#ffffff" />
    <path
       d="m 1010,360 c 0,-163 1,-170 20,-170 18,0 20,7 20,80 v 80 h 80 80 v -80 c 0,-73 2,-80 20,-80 19,0 20,7 20,170 0,163 -1,170 -20,170 -18,0 -20,-7 -20,-70 v -70 h -80 -80 v 70 c 0,63 -2,70 -20,70 -19,0 -20,-7 -20,-170 z"
       id="path22"
       style="fill:#ffffff" />
    <path
       d="m 1435,518 c -3,-7 -30,-84 -60,-170 -49,-143 -53,-158 -36,-158 14,0 24,13 36,50 l 17,51 66,-3 66,-3 15,-48 c 12,-39 19,-47 39,-47 19,0 23,4 17,18 -4,9 -32,86 -62,170 -45,122 -60,152 -75,152 -10,0 -21,-6 -23,-12 z m 49,-116 25,-72 h -50 c -27,0 -49,3 -49,7 0,12 44,143 47,139 2,-1 14,-35 27,-74 z"
       id="path24"
       style="fill:#ffffff" />
    <path
       d="M 1790,360 V 190 h 70 c 39,0 86,6 106,15 99,41 99,269 0,310 -20,9 -67,15 -106,15 h -70 z m 162,119 c 11,-6 26,-26 34,-44 28,-67 10,-171 -34,-194 -12,-6 -43,-11 -71,-11 h -51 v 130 130 h 51 c 28,0 59,-5 71,-11 z"
       id="path26"
       style="fill:#ffffff" />
    <path
       d="M 2140,360 V 190 h 110 c 103,0 110,1 110,20 0,19 -7,20 -95,20 h -95 v 60 60 h 85 c 78,0 85,2 85,20 0,18 -7,20 -85,20 h -85 v 50 50 h 90 c 83,0 90,1 90,20 0,19 -7,20 -105,20 h -105 z"
       id="path28"
       style="fill:#ffffff" />
    <path
       d="m 2450,360 c 0,-162 1,-170 20,-170 18,0 20,8 22,130 l 3,131 75,-128 c 57,-96 81,-129 98,-131 l 22,-3 v 170 c 0,163 -1,171 -20,171 -18,0 -20,-8 -22,-130 l -3,-131 -75,130 c -61,106 -79,130 -97,131 -23,0 -23,0 -23,-170 z"
       id="path30"
       style="fill:#ffffff" />
    <path
       d="m 3100,360 c 0,-163 1,-170 20,-170 18,0 20,7 20,80 v 80 h 80 80 v -80 c 0,-73 2,-80 20,-80 19,0 20,7 20,170 0,163 -1,170 -20,170 -18,0 -20,-7 -20,-70 v -70 h -80 -80 v 70 c 0,63 -2,70 -20,70 -19,0 -20,-7 -20,-170 z"
       id="path32"
       style="fill:#ffffff" />
    <path
       d="m 3450,360 c 0,-163 1,-170 20,-170 19,0 20,7 20,170 0,163 -1,170 -20,170 -19,0 -20,-7 -20,-170 z"
       id="path34"
       style="fill:#ffffff" />
    <path
       d="M 4910,360 V 190 h 95 c 88,0 95,1 95,20 0,18 -7,20 -75,20 h -75 v 150 c 0,143 -1,150 -20,150 -19,0 -20,-7 -20,-170 z"
       id="path36"
       style="fill:#ffffff" />
    <path
       d="m 5120,510 c 0,-17 7,-20 50,-20 h 50 V 340 c 0,-143 1,-150 20,-150 19,0 20,7 20,150 v 150 h 50 c 43,0 50,3 50,20 0,19 -7,20 -120,20 -113,0 -120,-1 -120,-20 z"
       id="path38"
       style="fill:#ffffff" />
    <path
       d="M 5440,360 V 190 h 70 c 96,0 135,18 160,72 26,56 26,140 0,196 -25,54 -64,72 -160,72 h -70 z m 162,119 c 62,-33 62,-205 0,-238 -12,-6 -43,-11 -71,-11 h -51 v 130 130 h 51 c 28,0 59,-5 71,-11 z"
       id="path40"
       style="fill:#ffffff" />
    <path
       d="m 4460,210 c 0,-13 7,-20 20,-20 13,0 20,7 20,20 0,13 -7,20 -20,20 -13,0 -20,-7 -20,-20 z"
       id="path42"
       style="fill:#ffffff" />
    <path
       d="m 4610,211 c 0,-11 5,-21 11,-23 9,-3 9,-9 0,-25 -18,-35 -12,-50 9,-24 11,13 20,38 20,57 0,27 -4,34 -20,34 -13,0 -20,-7 -20,-19 z"
       id="path44"
       style="fill:#ffffff" />
    <path
       d="m 5780,210 c 0,-13 7,-20 20,-20 13,0 20,7 20,20 0,13 -7,20 -20,20 -13,0 -20,-7 -20,-20 z"
       id="path46" />
    <path
       d="M 1178,1775 C 557,1157 50,649 50,646 c 0,-3 98,-6 217,-6 h 218 l 762,762 763,763 V 1537 910 h -350 -350 v 40 40 h 310 310 v 492 493 l -665,-665 -665,-665 852,-3 c 468,-1 853,-1 855,1 2,2 2,510 1,1129 l -3,1125 z"
       id="path48"
       style="fill:#ffffff" />
    <path
       d="M 1930,991.93545 H 1311.9355 L 1930,1610 Z"
       fill="#ff0004"
       opacity="0.98"
       id="path50" />
  </g>
</svg>
