<svg id="Layer_1" data-name="Layer 1" xmlns="http://www.w3.org/2000/svg" xmlns:xlink="http://www.w3.org/1999/xlink" viewBox="0 0 3840.19995 1266"><defs><linearGradient id="Dégradé_sans_nom" x1="375.71132" y1="558.18178" x2="595.28871" y2="-45.10213" gradientTransform="matrix(1, 0, 0, -1, 0, 1263.88983)" gradientUnits="userSpaceOnUse"><stop offset="0" stop-color="#6d83ee"/><stop offset="0.2399" stop-color="#0044c6"/><stop offset="1" stop-color="#84cd28"/></linearGradient><linearGradient id="Dégradé_sans_nom_2" x1="85.01584" y1="509.24128" x2="455.93732" y2="-14.7425" xlink:href="#Dégradé_sans_nom"/><linearGradient id="Dégradé_sans_nom_3" x1="337.5" y1="637.43982" x2="1388.90002" y2="637.43982" gradientTransform="matrix(1, 0, 0, -1, 0, 1263.88983)" gradientUnits="userSpaceOnUse"><stop offset="0" stop-color="#8dbc30"/><stop offset="0.3144" stop-color="#e4d300"/><stop offset="0.4876" stop-color="#e6970c"/><stop offset="0.6581" stop-color="#e86416"/><stop offset="0.8057" stop-color="#ea3f1e"/><stop offset="0.9246" stop-color="#eb2822"/><stop offset="1" stop-color="#eb2024"/></linearGradient><linearGradient id="Dégradé_sans_nom_4" x1="437.69833" y1="184.3693" x2="1731.86875" y2="1090.55731" xlink:href="#Dégradé_sans_nom_3"/><linearGradient id="Dégradé_sans_nom_5" x1="596.3698" y1="91.45598" x2="719.4536" y2="0.47258" gradientTransform="matrix(1, 0, 0, -1, 0, 1263.88983)" gradientUnits="userSpaceOnUse"><stop offset="0" stop-opacity="0"/><stop offset="0.1572"/></linearGradient><linearGradient id="Dégradé_sans_nom_6" x1="374.22574" y1="91.38356" x2="447.13672" y2="43.48072" gradientTransform="matrix(1, 0, 0, -1, 0, 1263.88983)" gradientUnits="userSpaceOnUse"><stop offset="0" stop-opacity="0"/><stop offset="0.2537"/></linearGradient><linearGradient id="Dégradé_sans_nom_7" x1="477.72167" y1="258.0584" x2="517.93798" y2="229.51275" gradientTransform="matrix(1, 0, 0, -1, 0, 1263.88983)" gradientUnits="userSpaceOnUse"><stop offset="0.2023" stop-opacity="0"/><stop offset="0.6884"/></linearGradient></defs><path d="M1282,1043.1H1098.1l-28.5,43.1c-8,12.80005-13.80005,22.30005-17.5,28.4-7.4,12.19995-12.6,22-15.6,29.3-7.4,13.5-11,24.80005-11,33.9,0,17.69995,17.9,28.69995,53.9,33,16.4,2.5,24.7,9.5,24.7,21.1,0,14.1-9.7,21.1-29.2,21.1l-34.69995-2.19995-60.3-3.30005-77.6,5.5h-24.6c-14.6,0-21.9-5.5-21.9-16.4,0-9.1,2.9-15.7,8.7-19.6,5.8-4,16.8-6.80005,32.9-8.69995a63.7677,63.7677,0,0,0,40.6-20.1l35.6-44.7,15.5-23.69995,16.4-22.80005,16.4-23.69995,288.5-410.8c14.6-21.9,25-35.3,31-40.2,6.1-4.9,15.5-7.3,28.30005-7.3,14,0,23.6,3.7,28.8,11,5.2,7.3,7.8,23.2,7.8,47.6l28.30005,457.8q0,27.6,3.30005,44.1a50.56644,50.56644,0,0,0,13.1,24.9h0a48.931,48.931,0,0,0,21,13.7c10.9,3.5,16.30005,9.69995,16.30005,18.9,0,13.4-9.1,20.1-27.4,20.1l-29.19995-2.7-53.80005-2.69995c-17,0-35.80005.69995-56.1,2.1q-30.6,2.1-65.30005,3.4h-30.1c-14,0-21-5.80005-21-17.30005,0-7.9,2.9-13.69995,8.69995-17.3,5.80005-3.7,16.6-6.4,32.4-8.2,15.80005-1.8,26.5-6.19995,32-13.19995s8.19995-19,8.19995-36.1v-37.4Zm-3.69995-45.6-8.19995-211.1-142.7,211.1Z" transform="translate(0 0)" style="fill:#fff"/><path d="M2677.8999,730.9l-115,400.79993c-5.5,19.5-8.19995,34.4-8.19995,44.69995q0,33.75,36.5,33.80005c21.8999,0,32.8999,6.80005,32.8999,20.5,0,13.1-9.3999,19.6-28.30005,19.6h-52.8999l-98.6001-3.6q-28.34985,0-42.8999.9c-9.69995.6-33.8,2.69995-72.1001,6.4h-3.69995q-23.70008,0-23.7-18.30005c0-7.30005,2.7-12.30005,8.2-15.1s17.89991-6.1,37.39991-10c19.5-4,31.3-9.1,35.60009-15.5,4.19995-6.4,11.3-26.9,21-61.6L2518.2,734.6c4.19995-14.6,6.3999-24.3,6.3999-29.2,0-15.8-11.30005-23.7-33.80005-23.7-19.5,0-29.19995-5.8-29.19995-17.5,0-7,2.39991-12.5,7.3-16.6,4.8999-4.1,11.6001-6.1,20.1001-6.1h92.2q87.59985,0,122.3-4.4l48.3999-2.9c12.2,0,18.30005,5.8,18.30005,17.3,0,7.9-3.1001,13.7-9.1001,17.3q-9.15013,5.4-33.30005,9.6c-16.10009,2.7-26.8999,7.2-32.3999,13.2C2689.7,697.7,2683.8999,710.8,2677.8999,730.9Z" transform="translate(0 0)" style="fill:#fff"/><path d="M3238.3999,1075.1s-19.3999,68.19995-28.3,98.9c-10.5,35.80005-109.3999,92-230,92q-136.95008,0-222.80005-68.5-85.79992-68.4-85.8-177.1,0-86.7,52-164.3,52.04992-77.55,147-133.3a713.39948,713.39948,0,0,1,167.5-71.2q89.84985-25.5,176.69995-25.6,58.34985,0,103.2,9.8c15.2,3.6,22.8,10.1,22.8,19.6,0,5.4-1.8,12.3-5.5,20.8l-22.8,69.4q-13.65015,47.55-35.6001,47.5-23.70007,0-23.69995-37.4l1.8-46.6q0-23.7-9.6001-33.3-9.59985-9.6-32.3999-9.6-58.5,0-119.6001,23.8-61.20007,23.7-115.8999,67.7-64.79993,52.05-102.3,128-37.5,75.9-37.3999,157.3,0,84.15,43.80005,133.5,43.79992,49.35,119.60009,49.4c15.19995,0,25.69995-2.3,31.5-6.8s11.1001-15,16-31.4l33.8-119.1a67.16065,67.16065,0,0,0,3.6001-22.7c0-13.3-2.7-22-8.2-25.9s-20.1001-7.4-43.8-10.5q-19.20007,0-19.2-18.3c0-13.4,10.6001-20.1,32-20.1l45.6001.9,82.2,2.7H3196.5q40.20007,0,72.1001-3.7h43.8c15.2,0,22.80005,5.2,22.80005,15.7q0,21.9-37.39991,25.3c-15.80005,0-28,4.6-36.5,13.7C3252.7,1034.9,3245.1001,1051.30005,3238.3999,1075.1Z" transform="translate(0 0)" style="fill:#fff"/><path d="M3615.3999,1043.1H3431.5l-28.5,43.1c-8,12.80005-13.8,22.30005-17.5,28.4-7.3999,12.19995-12.6001,22-15.6001,29.3-7.3999,13.5-11,24.80005-11,33.9,0,17.69995,17.8999,28.69995,53.8999,33,16.39991,2.5,24.7,9.5,24.7,21.1,0,14.1-9.7,21.1-29.2,21.1l-34.69995-2.19995-28.10009-1.5a551.76953,551.76953,0,0,0-64.30005.19995l-57.89991,3.5c-14.60009,0-21.8999-5.5-21.8999-16.4,0-9.1,2.8999-15.7,8.7-19.6,5.8-4,16.8-6.80005,32.89991-8.69995,16.10009-1.80005,17.5-8.5,28.3999-20.1l35.6001-44.7,15.5-23.69995,16.3999-22.80005,16.3999-23.69995,288.5-410.8c14.6001-21.9,25-35.3,31-40.2,6.1001-4.9,15.5-7.3,28.30005-7.3,14,0,23.6001,3.7,28.8,11s7.8,23.2,7.8,47.6l28.30005,457.8q0,46.65,9.60009,61.80005c6.39991,10.1,18.39991,16.3,36.1001,18.8,17.6001,2.4,26.5,9.5,26.5,21.1,0,13.4-9.1001,20.1-27.3999,20.1l-29.19995-2.7-72.1001-2.7c-17,0-35.8.7-56.1001,2.1q-30.59985,2.1-65.3,3.4h-30.10009c-14,0-21-5.8-21-17.3,0-7.9,2.8999-13.7,8.69995-17.3,5.80005-3.7,16.60009-6.4,32.3999-8.2,15.8-1.8,26.5-6.2,32-13.2s8.19995-19,8.19995-36.1v-37.4Zm-3.59985-45.6-8.19995-211.1-142.7,211.1Z" transform="translate(0 0)" style="fill:#fff"/><path d="M2156.7,764.6l-288.5,430c-14,21.3-24.4,34.69995-31,40.19995-6.69995,5.5-15.80005,8.2-27.4,8.2-12.19995,0-20.4-2.7-24.6-8.2-4.30005-5.5-6.4-17.4-6.4-35.69995l-14.6-435.6L1672,1014.8l-14.6,49.50006q-17.4,57.75-20.1,70.1c-1.80005,8.2-2.69995,18.80005-2.69995,31.6,0,14.69995,3.5,24.30005,10.5,28.9s23.9,9,50.69995,13.30005c15.19995,1.8,22.80005,8.5,22.80005,20.19995,0,14.7-9.7,22-29.2,22l-33.8-3.3-53.9-2.2-70.9,2.7q-23.70007,0-23.69995-18.30005c0-9.9,8-17.19995,24.1-21.8a52.79614,52.79614,0,0,0,23.69995-15.1c3.2-3.5,5.80005-6.4,5.80005-6.4q10.04993-12.29993,39.3-93.6l118.7-334.1c11-32.9,16.4-53.2,16.4-61.2,0-6.7-2.9-11.6-8.7-14.6q-8.70007-4.5-35.1-8.7c-17.69995-2.7-26.5-9.3-26.5-19.6,0-5.5,2.4-10.3,7.30005-14.6a25.2238,25.2238,0,0,1,17.30005-6.4l33.8,3.7h171.5c7.30005,0,11.6,1.2,12.80005,3.6q2.70007,4.65,2.69995,22.8l14.6,373.29992L2171.30005,656c6.1001-9.3,10.30005-14.8,12.80005-16.6,2.3999-1.7,7.3-2.6,14.6001-2.6h181.69995c13.3999,0,20.10009,5.5,20.10009,16.4,0,15.2-10.5,23.9-31.5,26s-34.10009,6.4-39.3,12.7c-5.2,6.4-10.5,20.8-16,43.3L2224.2002,1108c-2.39991,10.30005-4.89991,22.80005-7.30005,37.4-2.39991,14.6-3.6001,24.30005-3.6001,29.2q0,15.45006,8.7,22.8c5.8,4.9,16.6001,8.5,32.3999,10.9q23.70008,3.6,23.7,21c0,14-10.7,21-32,21H2217q-64.79993-7.35-105.8999-7.30005-45.59985,0-78.5,3.69995l-45.6,3.6q-22.79993,0-22.8-19.19995c0-10.30005,5.5-17.30005,16.4-21l15.5-2.7,11-.9,10-1.80005c12.19995-1.19995,20.8-5.9,26-14.1s12-29.1,20.5-62.5Z" transform="translate(0 0)" style="fill:#fff"/><polygon points="411.9 761.8 221.6 761.8 559.1 1252.9 749.4 1252.9 411.9 761.8" style="fill:url(#Dégradé_sans_nom)"/><polygon points="728.8 1252.9 749.4 1252.9 411.9 761.8 391.3 761.8 728.8 1252.9"/><polygon points="190.3 761.8 0 761.8 337.5 1252.9 527.8 1252.9 190.3 761.8" style="fill:url(#Dégradé_sans_nom_2)"/><polygon points="507.2 1252.9 527.8 1252.9 190.3 761.8 169.7 761.8 507.2 1252.9"/><polygon points="1198.6 0 337.5 1252.9 527.8 1252.9 1388.9 0 1198.6 0" style="fill:url(#Dégradé_sans_nom_3)"/><polygon points="1420.1 0 559.1 1252.9 749.4 1252.9 1610.5 0 1420.1 0" style="fill:url(#Dégradé_sans_nom_4)"/><polygon points="1589.9 0 728.8 1252.9 749.4 1252.9 1610.5 0 1589.9 0"/><polygon points="1368.3 0 507.2 1252.9 527.8 1252.9 1388.9 0 1368.3 0"/><polygon points="548.9 1238.1 559.1 1252.9 654.3 1114.5 644.1 1099.7 548.9 1238.1" style="fill:url(#Dégradé_sans_nom_5)"/><polygon points="422.5 1099.7 327.3 1238.1 337.5 1252.9 432.7 1114.4 422.5 1099.7" style="fill:url(#Dégradé_sans_nom_6)"/><polygon points="448.3 1091.7 543.5 953.3 533.4 938.6 438.2 1077 448.3 1091.7" style="fill:url(#Dégradé_sans_nom_7)"/></svg>