<svg id="Layer_1" data-name="Layer 1" xmlns="http://www.w3.org/2000/svg" viewBox="0 0 3840 987.90002"><path d="M2588.6001,726.4v-461c0-67.2,34.6001-102.8,98-102.8h277.6001v169h-70.1001V229h-190.2c-28.8,0-40.3,18.2-40.3,54.7V708.2c0,36.5,11.5,54.7,40.3,54.7h190.2V653.4h70.1001V829.2H2686.6001C2623.2,829.2,2588.6001,793.7,2588.6001,726.4Z" transform="translate(0 0)" style="fill:#fff"/><path d="M3003.5,762.9h58.6001V229H3003.5V162.7h317.8999c63.3999,0,98,35.5,98,102.8V418.2c0,67.2-34.6001,102.8-98,102.8H3137V763h60.5v66.3h-194Zm300.6001-308.3c28.8,0,40.3-18.2,40.3-54.7V283.7c0-36.5-11.5-54.7-40.3-54.7H3137V454.7h167.1001Z" transform="translate(0 0)" style="fill:#fff"/><path d="M3464.5,726.4v-461c0-67.2,34.6001-102.8,98-102.8H3840v169h-70.1001V229H3579.7c-28.80005,0-40.30005,18.2-40.30005,54.7V708.2c0,36.5,11.5,54.7,40.30005,54.7H3769.8999V653.4H3840V829.2H3562.3999C3499.1001,829.2,3464.5,793.7,3464.5,726.4Z" transform="translate(0 0)" style="fill:#fff"/><polygon points="1564.3 0 1075.1 987.9 1616.2 987.9 2090.8 0 1564.3 0" style="fill:#c0214e"/><path d="M338.7,827.2H206.2l-11-131.5H141.4l-10,131.5H0L83.7,162.7H256ZM168.4,328.1l-18.9,258h37.9Z" transform="translate(0 0)" style="fill:#fff"/><path d="M785,827.2H658.5V450.6L608.7,827.2H527L474.2,448.6V827.2H347.7V162.7H533l32.9,293.9,34.9-293.9H785Z" transform="translate(0 0)" style="fill:#fff"/><path d="M992.2,390.8V312.1c0-20.9-1-27.9-3-32.9-4-7-10-12-16.9-12-7,0-14.9,5-17.9,12-2,6-3,11-3,32.9v48.8c0,21.9,6,29.9,31.9,43.8l59.8,32.9c78.69995,43.8,89.69995,61.8,89.69995,151.4v106.6c0,57.8-4,76.7-19.9,97.6-21.9,29.9-45.8,35.9-149.4,35.9-82.7,0-105.6-5-127.5-29.9-13-13.9-18.9-29.9-21.9-54.8-2-13-2-27.9-2-72.7V552.2h139.5V680.7c0,26.9,6,37.9,20.9,37.9,13,0,19.9-11,19.9-29.9V598.1l-1-13.9c-1-24.9-4-29.9-27.9-42.8-9-5-15.9-8-16.9-9l-58.8-32.9c-64.8-36.9-75.7-57.8-75.7-140.5V281.3c0-54.8,6-78.7,26.9-97.6,21.9-19.9,47.8-24.9,144.5-24.9,84.7,0,107.6,6,128.5,33.9,16.9,21.9,20.9,42.8,20.9,104.6V391H992.2Z" transform="translate(0 0)" style="fill:#fff"/><path d="M1352.6,827.2H1212.1V270.3h-70.7V162.7h280V270.3h-68.69995V827.2Z" transform="translate(0 0)" style="fill:#fff"/><path d="M1579.5,162.7l49.80005,1c97.6,2,121.5,27.9,121.5,128.5v69.7c0,92.7-13.9,124.5-62.80005,137.5,23.9,8,37.9,18.9,47.80005,36.9,13,22.9,14.9,40.8,14.9,118.6v172.4h-139.5V627.9c0-65.8,0-64.8-34.9-65.8h-6v265H1430V162.7Zm.9,277.9c26.9,0,30.9-6,30.9-48.8V320.1l-1-17.9c0-23.9-6-30.9-24.9-30.9h-15V440.7C1575.5,440.6,1578.5,440.6,1580.4,440.6Z" transform="translate(0 0)" style="fill:#fff"/><path d="M2093.5,827.2H1961l-11-131.5H1896.2l-10,131.5H1754.7l83.69995-664.5h172.4ZM1923.1,328.1l-18.9,258h37.9Z" transform="translate(0 0)" style="fill:#fff"/><path d="M2238.8999,162.7c120.6001,0,137.5,3,160.3999,29.9,20.89991,23.9,25.89991,49.8,25.89991,141.5V661.9c0,81.7-3,103.6-18.89991,127.5-18.8999,27.9-46.8,36.9-115.60009,36.9l-70.69995,1h-117.6001V162.7Zm16.90015,555.9c21.8999,0,26.8999-7,26.8999-34.9V308.2c0-29.9-5-36.9-26.8999-36.9-3,0-8,1-13,1V718.6Z" transform="translate(0 0)" style="fill:#fff"/></svg>