<svg id="Layer_1" data-name="Layer 1" xmlns="http://www.w3.org/2000/svg" viewBox="0 0 3839 585"><rect x="3029" y="320" width="642.5" height="172.29999" style="fill:#fff"/><path d="M183.9,187.9c55,0,100.6,28.4,122.3,58.9V195.4H390V577H329.7a23.77262,23.77262,0,0,1-23.9-23.9V525.6c-21.3,31-66.9,59.4-121.9,59.4C79.3,585,0,495.4,0,386.4S79.3,187.9,183.9,187.9M199,264.1c-67.8,0-113.9,53.6-113.9,122.3S130.7,508.7,199,508.7c67.8,0,113.9-53.6,113.9-122.3S267.2,264.1,199,264.1" transform="translate(0 0)" style="fill:#fff"/><path d="M485.2,195.4h84.2v51.8c23-38.1,66.5-59.4,116.1-59.4,88.6,0,145.8,62.5,145.8,159.5V577H771a23.77265,23.77265,0,0,1-23.9-23.9V361.2c0-60.3-30.6-97-79.3-97-55.8,0-98.4,43.4-98.4,125V577H509.1a23.77263,23.77263,0,0,1-23.9-23.9l0-357.7Z" transform="translate(0 0)" style="fill:#fff"/><path d="M1081.7,187.9c55,0,100.6,28.4,122.30005,58.9V4.9h83.80005V577.4H1227.5a23.7726,23.7726,0,0,1-23.9-23.9V526c-21.30005,30.6-67.4,58.9-122.30005,58.9-104.6,0-183.9-89.5-183.9-198.5C897.8,277.4,977.1,187.9,1081.7,187.9m15.1001,76.2C1029,264.1,982.9,317.7,982.9,386.4s45.6,122.3,113.9,122.3c67.80005,0,113.9-53.6,113.9-122.3s-46.10009-122.3-113.9-122.3" transform="translate(0 0)" style="fill:#fff"/><path d="M1383.1,195.4h83.8v67.8c14.6-43.4,57.2-71.8,100.6-71.8a172.125,172.125,0,0,1,32.80005,3.1V281c-14.6-4.4-26.6-7.1-42.1-7.1-48.30005,0-91.7,40.3-91.7,117V577h-60.3a23.77261,23.77261,0,0,1-23.9-23.9V195.4Z" transform="translate(0 0)" style="fill:#fff"/><path d="M1827.1,585c-113,0-199.9-87.7-199.9-198.5S1714.1,188,1827.1,188,2027,275.6,2027,386.4,1940.1,585,1827.1,585m0-78c67.4,0,114.3-52.7,114.3-120.5S1894,266,1827.1,266c-67.80005,0-115.2,52.7-115.2,120.5s47.4,120.5,115.2,120.5" transform="translate(0 0)" style="fill:#fff"/><path d="M2136.8999,112.1c-30.6001,0-56.3-25.3-56.3-56.3,0-30.6,26.1001-55.8,56.3-55.8A55.56652,55.56652,0,0,1,2192.7,55.8c0,31.5-24.3999,56.3-55.80005,56.3M2095.2,195.4H2179V577h-59.8a23.77251,23.77251,0,0,1-23.8999-23.9C2095.2,553.1,2095.2,195.4,2095.2,195.4Z" transform="translate(0 0)" style="fill:#fff"/><path d="M2432,187.9c55,0,100.6001,28.4,122.3,58.9V4.9h83.80005V577.4h-60.30005a23.7725,23.7725,0,0,1-23.8999-23.9V526c-21.3,30.6-67.39991,58.9-122.3,58.9-104.6001,0-183.8999-89.5-183.8999-198.5.3999-109,79.6997-198.5,184.2998-198.5m15.5,76.2c-67.8,0-113.8999,53.6-113.8999,122.3S2379.2002,508.7,2447.5,508.7c67.8,0,113.8999-53.6,113.8999-122.3S2515.30005,264.1,2447.5,264.1" transform="translate(0 0)" style="fill:#fff"/><path d="M3564.7,433a42.5,42.5,0,1,1,42.5-42.5,42.52832,42.52832,0,0,1-42.5,42.5m-468.3999,0a42.5,42.5,0,1,1,42.5-42.5,42.52832,42.52832,0,0,1-42.5,42.5m483.5-255.3,85-146.7a17.5324,17.5324,0,0,0-30.5-17.3l-86,148.5c-65.6001-30.1-139.1001-47-217.6001-47s-152.3999,16.8-218,46.5l-86-148.5a17.5324,17.5324,0,0,0-30.5,17.3l84.6001,146.7C2935.40015,256.5,2835.7,403.6,2821.1001,577.8H3839c-14.2-173.6-113.3999-320.8-259.2-400.1" transform="translate(0 0)" style="fill:#3ddc84"/></svg>