<svg id="Layer_1" data-name="Layer 1" xmlns="http://www.w3.org/2000/svg" viewBox="0 0 3839 1689.45298"><rect x="1536.73999" y="5.62303" width="136.82996" height="945.83001" style="fill:#fff"/><rect y="260.44303" width="136.83" height="691.01001" style="fill:#fff"/><rect x="2558.63989" y="527.103" width="136.83008" height="424.34998" style="fill:#fff"/><rect x="2847.22998" y="527.103" width="136.83008" height="424.34998" style="fill:#fff"/><rect x="1354.22998" y="736.79301" width="136.82996" height="214.65997" style="fill:#fff"/><rect x="2769.72998" y="997.52305" width="136.83008" height="424.34998" style="fill:#fff"/><rect x="2524.29004" y="997.52305" width="136.83008" height="424.34998" style="fill:#fff"/><rect x="2954.3999" y="997.52305" width="136.83008" height="424.34998" style="fill:#fff"/><path d="M1894.31006,136.99A133.65792,133.65792,0,0,0,1760.65,3.33h-223.9V64.6H1707.9c27.39,0,61.9,17.41,61.9,72.4" transform="translate(0 0.00303)" style="fill:#fff"/><path d="M1894.31006,136.99a133.65793,133.65793,0,0,1-133.66,133.66h-223.9V209.38H1707.9c27.39,0,61.9-17.41,61.9-72.4" transform="translate(0 0.00303)" style="fill:#fff"/><rect x="2604.97998" y="1144.33298" width="258.15991" height="61.27002" style="fill:#fff"/><rect x="2437.91992" y="527.103" width="378.25" height="61.27002" style="fill:#fff"/><rect x="1921.33997" y="21.30303" width="136.82996" height="424.34999" style="fill:#fff"/><rect x="1921.33997" y="3.32303" width="290.39001" height="61.27" style="fill:#fff"/><rect x="1921.33997" y="189.19303" width="273.01013" height="61.27" style="fill:#fff"/><path d="M3425.52,997.52v224.65l-134.96-194.77c-43.72-63.09-142.68994-32.16-142.68994,44.6v349.87h61.27V1150.13l180.71,260.79c29.69995,42.87,96.93994,21.85,96.93994-30.3V997.52Z" transform="translate(0 0.00303)" style="fill:#fff"/><path d="M1996.9,527.11V751.76L1861.95,557C1818.23,493.9,1719.25,524.84,1719.25,601.61V951.45h61.27V679.72l180.7,260.79c29.69995,42.87,96.93994,21.85,96.93994-30.3V527.11Z" transform="translate(0 0.00303)" style="fill:#fff"/><path d="M3777.73,527.11V751.76L3642.78,557c-43.72-63.1-142.69995-32.16-142.69995,44.61V951.45h61.27V679.72l180.69995,260.79c29.7,42.87,96.93994,21.85,96.93994-30.3V527.11Z" transform="translate(0 0.00303)" style="fill:#fff"/><path d="M3839,1058.79V997.52H3623.27a82.89913,82.89913,0,0,0-82.8999,82.9v258.54a82.89929,82.89929,0,0,0,82.8999,82.9H3839v-61.27H3708.96a31.76069,31.76069,0,0,1-31.76-31.76v-92.6h144.41992v-61.27H3677.2v-84.42a31.76069,31.76069,0,0,1,31.76-31.76H3839Z" transform="translate(0 0.00303)" style="fill:#fff"/><rect x="1144.18994" y="309.25303" width="258.16003" height="61.26999" style="fill:#fff"/><path d="M1503.43005,446.32,1368.97,58.68c-27.42-79.05-139.59-77.96-165.48,1.6L1077.9,446.31h64.43006l104.68-321.73,111.37,321.73h145.04992Z" transform="translate(0 0.00303)" style="fill:#fff"/><rect x="708.65997" y="816.84305" width="258.15997" height="61.27002" style="fill:#fff"/><path d="M1063.03,951.45,933.44,577.88c-27.42-79.05-139.59-77.96-165.48,1.6l-121,371.97h64.43L811.48,643.78l106.73,307.67H1063.03Z" transform="translate(0 0.00303)" style="fill:#fff"/><rect x="2145.96997" y="816.84305" width="258.15991" height="61.27002" style="fill:#fff"/><path d="M2500.34009,951.45,2370.76,577.88c-27.41992-79.05-139.59009-77.96-165.48,1.6l-121.01,371.96H2148.7L2248.79,643.7699l106.73,307.67h144.82007Z" transform="translate(0 0.00303)" style="fill:#fff"/><path d="M397.92,705.41,347.68,576.55c-36.66-94.04-176.29-67.78-176.29,33.15V951.44h61.27V632.52L354.84,945.89a8.59049,8.59049,0,0,0,16.02-.03L488.94,639.63V951.45H625.77v-344c0-101.35-140.26-127.63-176.94-33.15Z" transform="translate(0 0.00303)" style="fill:#fff"/><rect x="1756.43994" y="1287.26304" width="258.16003" height="61.27002" style="fill:#fff"/><path d="M2110.81006,1421.86,1981.2301,1048.29c-27.42-79.05-139.59-77.96-165.48,1.6l-121.01,371.96h64.43006l100.09-307.67,106.73,307.67h144.81995Z" transform="translate(0 0.00303)" style="fill:#fff"/><path d="M1445.71,1175.83l-50.24-128.86c-36.67-94.04-176.29-67.78-176.29,33.15v341.74h61.27V1102.91992l122.18005,313.37a8.59048,8.59048,0,0,0,16.02-.03l118.08-306.23v579.42h136.83v-611.6c0-101.35-140.26-127.63-176.94007-33.15Z" transform="translate(0 0.00303)" style="fill:#fff"/><path d="M2241.82007,1209.7h0v.29" transform="translate(0 0.00303)" style="fill:#fff;isolation:isolate;opacity:0.6100000143051147"/><path d="M3237.79,515.11c-122.98,0-222.67993,97.68-222.67993,218.17S3114.81006,951.45,3237.79,951.45,3460.47,853.77,3460.47,733.28,3360.78,515.11,3237.79,515.11Zm0,387.16c-58.58008,0-72.55-75.66-72.55-168.99s13.97-168.99,72.55-168.99,72.55005,75.66,72.55005,168.99S3296.37012,902.27,3237.79,902.27Z" transform="translate(0 0.00303)" style="fill:#fff"/><path d="M2432.43994,1288.58c-21.8501,54.62-63.3501,79.37-90.22,79.37-65.90991,0-100.3501-49.01-100.40991-161.56006.06006-112.55,34.5-161.55,100.40991-161.55,27.49,0,70.32007,25.91,91.71,83.23l59.6499-31.19995a218.96109,218.96109,0,0,0-188.3999-107.26c-121.01,0-219.1001,98.09-219.1001,219.1s98.09009,219.1,219.1001,219.1a218.96107,218.96107,0,0,0,188.3999-107.26Z" transform="translate(0 0.00303)" style="fill:#fff"/><path d="M1380.7,818.17c-21.85,54.62-63.35,79.37-90.22,79.37-65.91,0-100.35-49.01-100.41-161.56.06005-112.55,34.5-161.55,100.41-161.55,27.49,0,70.31995,25.91,91.71,83.23l59.65-31.2a218.961,218.961,0,0,0-188.4-107.26c-121.01,0-219.1,98.09-219.1,219.1s98.09,219.1,219.1,219.1a218.96117,218.96117,0,0,0,188.4-107.26Z" transform="translate(0 0.00303)" style="fill:#fff"/></svg>