<svg id="Layer_1" data-name="Layer 1" xmlns="http://www.w3.org/2000/svg" viewBox="0 0 3839 338"><path d="M1183.80005,219.3c31.5-27,53.9-53.2,53.9-104.1,0-50.4-26.2-95.9-129.7-95.9h-82.9a46.00651,46.00651,0,0,0-46,46V328.8h100.1V108.4h28.9c29.69995,0,41.6,37.1,11.19995,47.7-31.5,10.9-39.19995,64.7-19.19995,97.1l46.69995,75.6h104.6Z" transform="translate(0 0)" style="fill:#fff"/><rect x="2105.30005" y="19.4" width="100.1001" height="309.49999" style="fill:#fff"/><path d="M3023.2,194.8c29.5-23.1,44.8999-60.2,39.3999-97.3-.60009-2.8-1.10009-4.9-1.5-6.4-36.7-114.1-210.7-114-247.30005.2a145.15645,145.15645,0,0,0-6.60009,38.3.98647.98647,0,0,0,.8999,1h99.1001a35.91069,35.91069,0,0,1-.3-9.8c.5-11.4,7.5-20,16.6001-24.6,26.60009-13.5,49.3999,24.8,25.8999,43.2L2817,243c-35.8999,28.2-16,85.9,29.7,85.9h4.8999c.1001,0,.39991-.1.5-.1l-.10009.1h211.5V239.8h-97.80005Z" transform="translate(0 0)" style="fill:#fff"/><rect x="2585.30005" y="143.89999" width="142.19995" height="89.10001" style="fill:#fff"/><path d="M3692.2,2.6V91.7h34.19995A12.61128,12.61128,0,0,1,3739,104.3V328.9h100V56.5a53.81662,53.81662,0,0,0-53.8-53.8l-93-.1Z" transform="translate(0 0)" style="fill:#fff"/><path d="M1923.4,19.9l-15.9-.6h-61.4a46.00651,46.00651,0,0,0-46,46V282.8a45.92124,45.92124,0,0,0,46,45.9h77.5C2133.80005,315.2,2133.80005,33.5,1923.4,19.9Zm-16.1,219.9H1900V108.4h7.30005C2005.7,108.5,2005.7,239.8,1907.30005,239.8Z" transform="translate(0 0)" style="fill:#fff"/><path d="M1425.30005,108.4h37.9V19.3h-37.9c-231.80005,0-231.80005,309.5,0,309.4v.1h37.9V239.7h-37.9v-.1C1326.9,239.7,1326.9,108.4,1425.30005,108.4Z" transform="translate(0 0)" style="fill:#fff"/><path d="M862.5,328.9H962.6L870.9,61.2C849.6-.9,761.7-.9,740.4,61.2L648.7,328.9h100L759,287h93.4ZM776.3,215.8l23.3-95.1a6.07941,6.07941,0,0,1,12,0l23.3,95.1Z" transform="translate(0 0)" style="fill:#fff"/><path d="M1688.5,328.9h100.1L1696.9,61.2c-21.3-62.1-109.19995-62.1-130.5,0l-91.69995,267.7h100l10.3-41.9h93.4Zm-86.19995-113.1,23.30005-95.1a6.07941,6.07941,0,0,1,12,0l23.3,95.1Z" transform="translate(0 0)" style="fill:#fff"/><path d="M2435.2,328.9h100.1001L2443.6001,61.2c-21.30005-62.1-109.2-62.1-130.5,0l-91.7,267.7h100L2331.7002,287h93.3999ZM2348.8999,215.8,2372.2,120.7a6.07941,6.07941,0,0,1,12,0l23.3,95.1Z" transform="translate(0 0)" style="fill:#fff"/><path d="M3232,0c-103.7,0-142,75.6-142,169s38.3,169,142,169,142-75.6,142-169S3335.80005,0,3232,0Zm0,248.9c-23.2,0-42-19.3-42-79.9s18.8-79.9,42-79.9,42,19.3,42,79.9S3255.2,248.9,3232,248.9Z" transform="translate(0 0)" style="fill:#fff"/><path d="M3539.1001,0c-103.7,0-142,75.6-142,169s38.3,169,142,169,142-75.6,142-169S3642.80005,0,3539.1001,0Zm0,248.9c-23.2,0-42-19.3-42-79.9s18.8-79.9,42-79.9,42,19.3,42,79.9S3562.2,248.9,3539.1001,248.9Z" transform="translate(0 0)" style="fill:#fff"/><polygon points="3063.5 239.8 3063.5 328.9 2852.2 328.9 2918.9 239.8 3063.5 239.8" style="fill:#fff"/><rect x="1425.5" y="239.8" width="38" height="89.09999" style="fill:#fff"/><rect x="1425.5" y="19.4" width="38" height="89.1" style="fill:#fff"/><polygon points="107.6 15.3 0 328.9 158.1 328.9 265.7 15.3 107.6 15.3" style="fill:#c70a11"/><polygon points="323.7 15.3 216.2 328.9 374.4 328.9 481.9 15.3 323.7 15.3" style="fill:#2fbb37"/><polygon points="540 15.3 432.5 328.9 590.6 328.9 698.1 15.3 540 15.3" style="fill:#1e35a0"/></svg>