<svg id="Layer_1" data-name="Layer 1" xmlns="http://www.w3.org/2000/svg" viewBox="0 0 3840 630.9"><polygon points="3840 290.4 3840 0 3498.3 0 3229.1 0 3229.1 290.4 3229.1 509.4 3229.1 630.9 3498.3 630.9 3840 630.9 3840 509.4 3498.3 509.4 3498.3 439.4 3618.3 439.4 3618.3 360.5 3498.3 360.5 3498.3 290.4 3840 290.4"/><polygon points="3258.4 601.7 3258.4 29.2 3810.8 29.2 3810.8 261.2 3469 261.2 3469 389.7 3589.1 389.7 3589.1 410.2 3469 410.2 3469 538.6 3810.8 538.6 3810.8 601.7 3258.4 601.7" style="fill:#f2b11c"/><polyline points="3302.2 269.5 3302.2 73 3561.2 73" style="fill:none;stroke:#000;stroke-linecap:round;stroke-linejoin:round;stroke-width:12.377799987792969px"/><path d="M1610.2,315.4l285.1-135.2C1844.6,73.7,1736,0,1610.2,0,1436,0,1294.8,141.2,1294.8,315.4S1436,630.8,1610.2,630.8c125.8,0,234.4-73.7,285.1-180.3Z" transform="translate(0 0)"/><path d="M1610.2,601.7c-157.8,0-286.2-128.4-286.2-286.2S1452.4,29.3,1610.2,29.3a284.69,284.69,0,0,1,154.9,45.5,288.13,288.13,0,0,1,89.9,92.3L1542,315.5l313,148.4a286.26,286.26,0,0,1-244.8,137.8Z" transform="translate(0 0)" style="fill:#f2b11c"/><path d="M1599.6,391.2l188.1,89.2a246.92,246.92,0,0,1-46.4,38.9" transform="translate(0 0)" style="fill:none;stroke:#000;stroke-linecap:round;stroke-linejoin:round;stroke-width:12.377799987792969px"/><polygon points="0 630.9 686.7 630.9 343.3 0 0 630.9"/><polygon points="49.1 601.7 343.3 61.1 637.5 601.7 49.1 601.7" style="fill:#f2b11c"/><polyline points="495.3 431.9 563.8 557.9 434.3 557.9" style="fill:none;stroke:#000;stroke-linecap:round;stroke-linejoin:round;stroke-width:12.377799987792969px"/><circle cx="343.3" cy="399.3" r="30.6"/><polygon points="1827.3 630.9 2514 630.9 2170.6 0 1827.3 630.9"/><polygon points="1876.4 601.7 2170.6 61.1 2464.8 601.7 1876.4 601.7" style="fill:#f2b11c"/><polyline points="2322.6 431.9 2391.1 557.9 2261.6 557.9" style="fill:none;stroke:#000;stroke-linecap:round;stroke-linejoin:round;stroke-width:12.377799987792969px"/><circle cx="2170.6" cy="399.3" r="30.6"/><path d="M2882.3,630.9H2529.4V0h352.9c174.2,0,315.4,141.2,315.4,315.4h0C3197.8,489.6,3056.5,630.9,2882.3,630.9Z" transform="translate(0 0)"/><path d="M2558.6,601.7V29.2h323.7c157.8,0,286.2,128.4,286.2,286.2s-128.4,286.2-286.2,286.2H2558.6Z" transform="translate(0 0)" style="fill:#f2b11c"/><path d="M3124.6,323.7c-4.2,122.9-100.2,222.8-221.4,233.2" transform="translate(0 0)" style="fill:none;stroke:#000;stroke-linecap:round;stroke-linejoin:round;stroke-width:12.377799987792969px"/><circle cx="2879.7" cy="396.2" r="30.6"/><path d="M1285.8,200.6h0C1285.8,89.8,1196,0,1085.3,0H702.1V630.9h583.7L1077.7,401.2h7.6C1196,401.2,1285.8,311.4,1285.8,200.6Z" transform="translate(0 0)"/><path d="M731.3,601.7V29.2h353.9c94.5,0,171.4,76.9,171.4,171.4S1179.7,372,1085.3,372h-7.6a29.18,29.18,0,0,0-21.6,48.8L1220,601.7Z" transform="translate(0 0)" style="fill:#f2b11c"/><path d="M1211.6,218.4c-8.7,61.9-62,109.8-126.3,109.8" transform="translate(0 0)" style="fill:none;stroke:#000;stroke-linecap:round;stroke-linejoin:round;stroke-width:12.377799987792969px"/><circle cx="1005.5" cy="203.8" r="30.6"/><path d="M1011.5,431.9a70.94,70.94,0,0,0,12.1,18.3l97.6,107.7H991.8" transform="translate(0 0)" style="fill:none;stroke:#000;stroke-linecap:round;stroke-linejoin:round;stroke-width:12.377799987792969px"/></svg>