<svg id="Layer_1" data-name="Layer 1" xmlns="http://www.w3.org/2000/svg" xmlns:xlink="http://www.w3.org/1999/xlink" viewBox="0 0 3840 634.00015"><defs><linearGradient id="Dégradé_sans_nom" x1="3111.3999" y1="631.58984" x2="3111.3999" y2="-0.11017" gradientTransform="matrix(1, 0, 0, -1, 0, 633.88983)" gradientUnits="userSpaceOnUse"><stop offset="0" stop-color="#fff"/><stop offset="1" stop-color="#828282"/></linearGradient><linearGradient id="Dégradé_sans_nom_2" x1="3606.1499" y1="621.88983" x2="3606.1499" y2="9.58978" xlink:href="#Dégradé_sans_nom"/><linearGradient id="Dégradé_sans_nom_3" x1="164.62221" y1="632.53428" x2="164.62221" y2="0.38983" xlink:href="#Dégradé_sans_nom"/><linearGradient id="Dégradé_sans_nom_4" x1="392.6924" y1="632.58983" x2="392.6924" y2="0.28986" xlink:href="#Dégradé_sans_nom"/><linearGradient id="Dégradé_sans_nom_5" x1="620.92625" y1="632.48983" x2="620.92625" y2="0.38983" xlink:href="#Dégradé_sans_nom"/></defs><path d="M2929,405.1l11.3999,8.9c39.80005,30.8,87.7,56,138.8999,56,21.89991,0,56.80005-8.9,56.80005-36.6,0-27.6-29.2-30-49.5-34.1l-44.7-8.1C2955,375.8,2882,324.6,2882,228.8,2882,83.5,3014.3999,2.3,3147.5,2.3c69.8,0,134,17,194.1001,53.6L3281.5,212.6c-38.2-26-81.2-46.3-129.1001-46.3-19.5,0-47.8999,7.3-47.8999,32.5,0,22.7,27.6001,26,44.6001,30L3199.5,240.2c94.2,21.1,162.3999,71.5,162.3999,175.4,0,146.2-133.19995,218.4-265.5,218.4-77.19995,0-166.5-21.1-235.5-56Z" transform="translate(0 0.00015)" style="fill:url(#Dégradé_sans_nom)"/><path d="M3372.30005,12H3840V183.8l-122.6001.3v440.2h-222.5V184.1l-122.6001-.3V12Z" transform="translate(0 0.00015)" style="fill:url(#Dégradé_sans_nom_2)"/><path d="M281.3,1.4c16-.1,32,0,47.9,0,.1,37.6,0,75.1,0,112.7.2,31.4-.7,62.7-2,94-2.1,45.2-5,90.6-12.5,135.3-5.1,30.8-15.8,60.6-29,88.8-21.6,45.5-55.5,84-93.6,116.4-34.1,30-74.8,51.9-117.6,66.7C50.3,623.5,25.4,630,0,633.5V539c30.6-4.6,59.9-15.4,87.2-29.8a312.4106,312.4106,0,0,0,86-67.3c25.3-28,45.5-60.5,60.8-94.9,18-39.6,27.7-82.4,34.3-125.2,8.2-54.4,11.7-109.5,12.9-164.5C281.4,38.7,281.3,20,281.3,1.4Z" transform="translate(0 0.00015)" style="fill:url(#Dégradé_sans_nom_3)"/><path d="M348.6,1.4c29.4-.2,58.8,0,88.2-.1V633.5c-29.3.1-58.7-.1-88,.1-.4-67.2-.1-134.4-.2-201.6Q348.6,216.75,348.6,1.4Z" transform="translate(0 0.00015)" style="fill:url(#Dégradé_sans_nom_4)"/><path d="M456.4,1.4h47.7c-.5,64.2,1.7,128.6,9.3,192.5,6.3,49.6,15.1,99.5,34.9,145.7,18.7,44.7,45.7,86.2,80.9,119.7a310.47291,310.47291,0,0,0,118.5,70.8,244.24662,244.24662,0,0,0,37.8,8.9v94.5c-25.2-3.4-49.9-9.9-74-18.1-28.6-10-56.3-22.9-81.8-39.4-18.6-12-35.5-26.2-51.7-41.2-26.7-24.7-50.7-52.7-68.7-84.4C495.3,425.7,485,399,477,371.7c-7.4-27.4-10.5-55.7-13.4-83.8-5.5-60.8-7.6-121.9-7.2-183Z" transform="translate(0 0.00015)" style="fill:url(#Dégradé_sans_nom_5)"/><path d="M1075.4,27.5C1100-4,1150.9-9.4,1181.1,17a81.92375,81.92375,0,0,1,25.4,40.2Q1290.35,345.5,1374.2,633.7c-33,0-65.9-.1-98.9,0-15.5-53-30.69995-106.1-46.1-159.1-63.69995-.1-127.5,0-191.19995-.1q-23.4,79.5-46.3,159.2c-32.8-.1-65.6,0-98.4-.1Q972.95,358.65,1052.9,83.7c6.29993-19.1,8.7-40.6,22.5-56.2m58.2,117.7c-23.4,79.6-46.30005,159.4-69.5,239,46.3.2,92.6.1,138.9.1Q1168.35,264.9,1133.6,145.2Z" transform="translate(0 0.00015)" style="fill:#4fa1d5"/><path d="M1769.80005,31.6c17.19995-24.9,50.4-37,79.6-29.3,26.80005,6.2,47.2,29.2,54.30005,55.2q83.70007,288,167.6,576c-33,.3-66,0-99,.1-15.4-53-30.5-106.1-46-159.2-63.6,0-127.19995-.1-190.9.1-15.19995,53.1-30.9,106-46.1,159.1H1591.1001q79.5-276.45,160.19995-552.7c5.6-16.6,7.69995-34.9,18.5-49.3m-8,352.8c46.1.1,92.19995,0,138.4,0-23-79.9-46.30005-159.7-69.2-239.5C1808,224.7,1784.7,304.5,1761.80005,384.4Z" transform="translate(0 0.00015)" style="fill:#4fa1d5"/><path d="M1300.4,1.3H1658.1001V97.8c-43.9,0-87.80005-.1-131.7,0V633.6h-94.3V97.8c-43.9-.1-87.80005,0-131.7,0C1300.4,65.6,1300.4,33.5,1300.4,1.3Z" transform="translate(0 0.00015)" style="fill:#4fa1d5"/><path d="M2176.2,5.3a82.21306,82.21306,0,0,1,28.3-4c37.6001.1,75.2,0,112.8.1,63.30005,1.2,123.7,40.5,151.1001,97.4,19,37,20.8999,80,16.10009,120.6-3.3,42.5-21.10009,85-53.8,113.2-17.2,15.4-38.7,24.7-57.2,38.4-10.10009,7.7-10.69995,22.7-5.3999,33.5,49.8999,77,101.8,152.9,152.7,229.2-37.30005.1-74.5-.1-111.80005.1-48.8-73.3-97-146.9-145.60009-220.3-14.3-20.9-18.19995-48.5-9.6001-72.4,6.7-18.3,22.7-31.6,40.3999-38.6,34-13,67.5-33.3,86.3-65.4,14.3-24.1,13.6001-53.8,7.1001-80.2-7.5-34.2-40.8999-61.1-76.1001-60-24.3999.2-48.7-.1-73,.1-11-.3-21.3999,9.3-21.2,20.5q-.15015,258-.1001,516.1c-31.7-.1-63.30005,0-95,0q-.15015-277.8-.1001-555.6C2122.30005,45.7,2145.3999,15.1,2176.2,5.3Z" transform="translate(0 0.00015)" style="fill:#4fa1d5"/><path d="M2570.6001,1.3h100q0,316.2-.1001,632.3c-33.3-.1-66.6001,0-99.8999,0Z" transform="translate(0 0.00015)" style="fill:#4fa1d5"/></svg>