<?xml version="1.0" encoding="UTF-8" standalone="no"?>
<svg
   id="Layer_1"
   data-name="Layer 1"
   viewBox="0 0 3839.79983 830.0145"
   version="1.1"
   sodipodi:docname="atari5200.svg"
   inkscape:version="1.1.2 (0a00cf5339, 2022-02-04, custom)"
   xmlns:inkscape="http://www.inkscape.org/namespaces/inkscape"
   xmlns:sodipodi="http://sodipodi.sourceforge.net/DTD/sodipodi-0.dtd"
   xmlns="http://www.w3.org/2000/svg"
   xmlns:svg="http://www.w3.org/2000/svg">
  <defs
     id="defs29" />
  <sodipodi:namedview
     id="namedview27"
     pagecolor="#ffffff"
     bordercolor="#666666"
     borderopacity="1.0"
     inkscape:pageshadow="2"
     inkscape:pageopacity="0.0"
     inkscape:pagecheckerboard="0"
     showgrid="false"
     inkscape:zoom="0.27839993"
     inkscape:cx="1919.8999"
     inkscape:cy="416.66677"
     inkscape:window-width="1920"
     inkscape:window-height="1017"
     inkscape:window-x="-8"
     inkscape:window-y="-8"
     inkscape:window-maximized="1"
     inkscape:current-layer="Layer_1" />
  <path
     d="M368.3,1.8c20.9-.1,41.8,0,62.8,0,.1,49.2,0,98.4,0,147.6.2,41.1-1,82.1-2.6,123.1-2.8,59.2-6.5,118.6-16.3,177.1-6.7,40.4-20.7,79.3-38,116.3-28.3,59.6-72.7,110-122.6,152.4-44.7,39.3-97.9,67.9-154,87.3-31.7,10.9-64.4,19.3-97.6,24v-123.8c40-6,78.5-20.2,114.2-39,42.4-22.4,80.5-52.6,112.7-88.1,33.2-36.7,59.6-79.2,79.7-124.2,23.6-51.9,36.3-107.9,44.9-163.9,10.8-71.3,15.3-143.4,16.9-215.4C368.4,50.6,368.2,26.2,368.3,1.8Z"
     transform="translate(0.00002 0.01456)"
     style="fill:#6187e5"
     id="path2" />
  <path
     d="M456.3,1.9c38.5-.2,77,0,115.5-.1V829.6c-38.4.1-76.9-.2-115.3.1-.5-88-.1-176-.2-263.9Q456.3,283.8,456.3,1.9Z"
     transform="translate(0.00002 0.01456)"
     style="fill:#6187e5"
     id="path4" />
  <path
     d="M597.5,1.8h62.4c-.7,84.1,2.2,168.4,12.2,252,8.2,64.9,19.8,130.3,45.6,190.8,24.5,58.5,59.8,112.9,105.9,156.8,44,41.9,97.2,74.2,155.1,92.7a312.34072,312.34072,0,0,0,49.5,11.7v123.7c-33-4.5-65.3-13-96.8-23.7-37.5-13-73.8-29.9-107.1-51.6-24.3-15.7-46.4-34.4-67.7-53.9-35-32.3-66.3-69-89.9-110.5-18.4-32.3-31.8-67.3-42.4-103-9.6-35.8-13.8-72.9-17.5-109.7-7.2-79.6-9.9-159.6-9.4-239.6Q597.55,69.55,597.5,1.8Z"
     transform="translate(0.00002 0.01456)"
     style="fill:#6187e5"
     id="path6" />
  <path
     d="M1407.9,36c32.2-41.2,98.80005-48.2,138.30005-13.7,16.19995,13.6,27.5,32.4,33.3,52.6q109.65,377.4,219.6,754.8c-43.2,0-86.30005-.1-129.5,0-20.4-69.4-40.2-138.9-60.30005-208.3-83.5-.2-166.9,0-250.30005-.1q-30.6,104.1-60.69995,208.4c-42.9-.1-85.80005,0-128.80005-.1q104.25-360,208.80005-720c8.3999-25.1,11.5-53.1,29.6-73.6m76.2,154.2c-30.6,104.2-60.6,208.7-91,313,60.69995.3,121.3.1,181.9.1Q1529.54992,346.7,1484.1,190.2Z"
     transform="translate(0.00002 0.01456)"
     style="fill:#6187e5"
     id="path8" />
  <path
     d="M2317.1001,41.4c22.5-32.6,66-48.5,104.19995-38.4,35.1001,8.1,61.8999,38.3,71.1001,72.3q109.65013,377.1,219.3999,754.2c-43.19995.3-86.3999,0-129.6001.2-20.1001-69.4-40-139-60.2-208.4q-124.95007,0-249.8999.1c-19.8999,69.5-40.5,138.8-60.3999,208.3H2083.1001Q2187.2,467.60007,2292.80005,106c7.30005-21.8,10.2-45.8,24.30005-64.6m-10.5,461.9q90.59985.15,181.19995,0c-30.1001-104.6-60.6001-209-90.5-313.6Q2351.85,346.45,2306.6001,503.3Z"
     transform="translate(0.00002 0.01456)"
     style="fill:#6187e5"
     id="path10" />
  <path
     d="M1702.5,1.7h468.3999V128c-57.5,0-114.8999-.1-172.4,0V829.6h-123.5V128c-57.5-.1-114.9,0-172.4,0C1702.5,85.9,1702.5,43.9,1702.5,1.7Z"
     transform="translate(0.00002 0.01456)"
     style="fill:#6187e5"
     id="path12" />
  <path
     d="M2849.1001,6.9c11.8999-4.1,24.5-5.5,37.1001-5.2,49.19995.2,98.5,0,147.69995.1,82.8999,1.5,162,53,197.8999,127.6,24.80005,48.4,27.3999,104.8,21.1001,158-4.3,55.6-27.69995,111.3-70.39991,148.2-22.60009,20.1-50.69995,32.3-74.8999,50.3-13.3,10.1-13.8999,29.7-7.1001,43.8,65.30005,100.9,133.30005,200.2,199.89991,300.2-48.8.1-97.6001-.1-146.39991.1-63.8999-95.9-127.10009-192.3-190.69995-288.4-18.7-27.3-23.80005-63.6-12.60009-94.7,8.69995-23.9,29.69995-41.4,53-50.5,44.5-17,88.3-43.6,112.8999-85.6,18.69995-31.5,17.8-70.4,9.3-105-9.89991-44.8-53.5-80.1-99.69995-78.5-31.89991.2-63.80005-.1-95.6001.1-14.3999-.3-28,12.2-27.80005,26.8q-.29992,337.8-.1001,675.7c-41.5-.1-82.8999,0-124.3999,0q-.15015-363.75-.1001-727.4C2778.6001,59.8,2808.8999,19.8,2849.1001,6.9Z"
     transform="translate(0.00002 0.01456)"
     style="fill:#6187e5"
     id="path14" />
  <path
     d="M3365.6001,1.7H3496.5q0,414-.1001,828c-43.6001-.1-87.19995,0-130.8999,0Q3365.65015,415.7,3365.6001,1.7Z"
     transform="translate(0.00002 0.01456)"
     style="fill:#6187e5"
     id="path16" />
  <path
     d="M3620.2,688h36.69995v80l42.5,7.6c-4.1001-6.4-9-14.8-9-33.5,0-48.6,40.5-71.9,72.2-71.9,35.19995,0,77.19995,27.1,77.19995,80.1,0,41.6-25.8999,73.7-63.19995,79.5v-43.7c14.89991-4.7,25-19.2,25-34.6,0-20.4-17.2-37.8-37.8999-37.8-19.80005,0-37.8999,15.1-37.8999,38.1,0,10.2,3.5,23.9,20.3999,33.5l-8.7,35.2-117.3-18.9V688Z"
     transform="translate(0.00002 0.01456)"
     style="fill:#e6e6e6"
     id="path18" />
  <path
     d="M3801.6001,646.3c-18.8999-21-37.6001-41.9-56.5-62.9-18.8999-21.5-33.80005-38.7-58.5-39-21.2,0-32.30005,13.4-32.30005,31.2,0,21,18.8999,29.7,41.1001,30v41.6c-16.6001-.6-34.39991-3.2-50.39991-15.1-24.19995-16.9-28.8-44.8-28.8-60.3,0-45.1,31.10009-70.8,66.69995-70.8,25,.3,42.80005,9.3,67,34.7,16.30005,16.9,32.60009,34.1,49.2,51.2V499.8h36.69995v146.5L3801.6001,646.3Z"
     transform="translate(0.00002 0.01456)"
     style="fill:#e6e6e6"
     id="path20" />
  <path
     d="M3729.6001,475.7c-69,0-113.6001-53-113.6001-113,0-65.2,50.7-113.3,111.8-113.3S3839.6001,297.1,3839.6001,363c0,66.1-52.1001,112.7-109.80005,112.7Zm-1.7002-43.3c39.30005,0,73.7-28.2,73.7-70.2,0-43.7-37.8999-69.3-73.3999-69.3-36.1001,0-73.8999,25.6-73.8999,69.6,0,43.1,35.5,69.9,73.3999,69.9l.19995,0Z"
     transform="translate(0.00002 0.01456)"
     style="fill:#e6e6e6"
     id="path22" />
  <path
     d="M3729.6001,228c-69,0-113.6001-53-113.6001-113,0-65.2,50.7-113.3,111.8-113.3S3839.6001,49.5,3839.6001,115.3c0,66.1-52.1001,112.7-109.80005,112.7Zm-1.7002-43.4c39.30005,0,73.7-28.2,73.7-70.2,0-43.7-37.8999-69.3-73.3999-69.3-36.1001,0-73.8999,25.6-73.8999,69.6,0,43.1,35.5,69.9,73.3999,69.9Z"
     transform="translate(0.00002 0.01456)"
     style="fill:#e6e6e6"
     id="path24" />
</svg>
