<svg id="Layer_1" data-name="Layer 1" xmlns="http://www.w3.org/2000/svg" viewBox="0 0 3838.9 855.11"><path d="M379.5,1.1c21.6-.1,43.1,0,64.7-.1.1,50.7,0,101.4,0,152,.2,42.3-1,84.6-2.7,126.9-2.9,61-6.7,122.2-16.8,182.5-6.9,41.6-21.3,81.7-39.2,119.8-29.1,61.4-74.9,113.3-126.3,157-46,40.5-100.9,70-158.7,89.9C67.9,840.3,34.2,849,0,853.8V726.3c41.2-6.2,80.8-20.8,117.6-40.1a424.75,424.75,0,0,0,116.1-90.7c34.2-37.8,61.4-81.6,82.1-128,24.3-53.4,37.4-111.1,46.2-168.9,11.1-73.4,15.7-147.7,17.4-222C379.7,51.4,379.5,26.2,379.5,1.1Z" transform="translate(0 0.01)" style="fill:#e4202f"/><path d="M470.2,1.2c39.7-.3,79.4,0,119-.1V853.9c-39.6.1-79.2-.2-118.8.1-.5-90.6-.1-181.3-.2-271.9Q470.2,291.55,470.2,1.2Z" transform="translate(0 0.01)" style="fill:#e4202f"/><path d="M615.7,1C637.1,1,658.6.9,680,1c-.7,86.7,2.3,173.5,12.6,259.6,8.5,66.9,20.4,134.3,47,196.6,25.2,60.3,61.7,116.3,109.1,161.5,45.3,43.2,100.2,76.4,159.8,95.5a317.6,317.6,0,0,0,51,12V853.6c-34-4.6-67.3-13.4-99.8-24.4-38.6-13.4-76-30.8-110.3-53.2-25.1-16.1-47.8-35.4-69.7-55.5-36.1-33.3-68.4-71.1-92.6-113.9-19-33.3-32.8-69.4-43.6-106.1-9.9-36.9-14.2-75.1-18-113-7.5-82-10.2-164.5-9.7-246.8Q615.65,71,615.7,1Z" transform="translate(0 0.01)" style="fill:#e4202f"/><path d="M379.5,1.1c-.1,25.1.1,50.3-.1,75.5-1.7,74.2-6.3,148.5-17.4,222-8.9,57.8-21.9,115.5-46.2,168.9-20.7,46.5-47.9,90.2-82.1,128a422.84,422.84,0,0,1-116.1,90.7C80.8,705.6,41.2,720.2,0,726.3V853.8c34.2-4.8,67.9-13.5,100.5-24.7,57.8-20,112.7-49.4,158.7-89.9,51.4-43.7,97.2-95.6,126.3-157,17.8-38.1,32.2-78.2,39.2-119.8,10.1-60.3,13.9-121.5,16.8-182.5,1.8-42.3,2.9-84.5,2.7-126.9,0-50.7.1-101.3,0-152-21.6.1-43.1,0-64.7.1" transform="translate(0 0.01)" style="fill:#e4202f"/><path d="M470.2,1.2q.15,290.55.1,580.9c.1,90.6-.3,181.3.2,271.9,39.6-.4,79.2-.1,118.8-.1V1.1c-39.7,0-79.4-.2-119.1.1" transform="translate(0 0.01)" style="fill:#e4202f"/><path d="M615.7,1V140.8c-.5,82.3,2.3,164.8,9.7,246.8,3.9,38,8.1,76.1,18,113,10.8,36.7,24.7,72.8,43.6,106.1,24.2,42.8,56.5,80.6,92.6,113.9,21.9,20.1,44.7,39.4,69.7,55.5,34.3,22.3,71.7,39.7,110.3,53.2,32.4,11,65.8,19.8,99.8,24.4V726.3a320.13,320.13,0,0,1-51-12c-59.6-19.1-114.5-52.3-159.8-95.5-47.4-45.2-83.8-101.2-109.1-161.5-26.6-62.3-38.6-129.7-47-196.6C682.3,174.6,679.3,87.7,680,1.1Q647.9,1,615.7,1" transform="translate(0 0.01)" style="fill:#e4202f"/><path d="M1450.9,37.1c33.2-42.4,101.8-49.7,142.5-14.1,16.6,14,28.3,33.4,34.3,54.2q113.1,389,226.3,777.8c-44.5,0-89-.1-133.4,0-21-71.5-41.5-143.1-62.2-214.7-86-.2-172,0-258-.1q-31.65,107.25-62.5,214.8c-44.2-.1-88.5,0-132.7-.1q107.4-371.1,215.2-742c8.6-25.8,11.9-54.7,30.5-75.8M1529.4,196c-31.5,107.4-62.4,215-93.8,322.5,62.5.3,125,.1,187.5.1Q1576.15,357.2,1529.4,196Z" transform="translate(0 0.01)" style="fill:#e4202f"/><path d="M2387.8,42.6C2411,9,2455.8-7.3,2495.2,3.1c36.1,8.3,63.7,39.4,73.3,74.5q113,388.65,226.1,777.2c-44.5.3-89.1,0-133.6.2-20.7-71.6-41.2-143.2-62.1-214.7q-128.85,0-257.5.1c-20.5,71.6-41.7,143-62.2,214.6H2146.7q107.4-373.05,216.1-745.8c7.5-22.4,10.4-47.2,25-66.6m-10.8,476q93.3.15,186.7,0c-31-107.8-62.4-215.4-93.3-323.2C2439.3,303.2,2407.9,410.8,2377,518.6Z" transform="translate(0 0.01)" style="fill:#e4202f"/><path d="M1754.5,1.8h482.6V132c-59.3,0-118.5-.1-177.7,0V854.9H1932.1V132c-59.2-.1-118.5,0-177.7,0Q1754.55,66.9,1754.5,1.8Z" transform="translate(0 0.01)" style="fill:#e4202f"/><path d="M2936,7.1c12.2-4.2,25.3-5.7,38.2-5.4,50.7.2,101.5,0,152.2.1,85.4,1.6,167,54.6,203.9,131.5,25.6,49.9,28.2,108,21.8,162.8-4.5,57.3-28.5,114.7-72.6,152.7-23.3,20.7-52.3,33.3-77.2,51.8-13.7,10.4-14.4,30.6-7.3,45.1,67.3,103.9,137.3,206.2,206,309.3-50.3.1-100.5-.1-150.8.1-65.8-98.8-130.9-198.2-196.5-297.2-19.3-28.2-24.5-65.5-13-97.6,9-24.7,30.6-42.7,54.6-52,45.8-17.5,91-44.9,116.4-88.2,19.3-32.5,18.3-72.6,9.6-108.2-10.2-46.2-55.2-82.5-102.7-80.9-32.9.2-65.7-.1-98.5.1-14.9-.3-28.8,12.6-28.7,27.6q-.3,348.15-.1,696.3c-42.8-.1-85.5,0-128.2,0q-.15-374.7-.1-749.6C2863.4,61.6,2894.5,20.4,2936,7.1Z" transform="translate(0 0.01)" style="fill:#e4202f"/><path d="M3468.3,1.8h134.9q0,426.6-.1,853.2c-44.9-.1-89.9,0-134.8,0Z" transform="translate(0 0.01)" style="fill:#e4202f"/><path d="M3828.4,723.2a77.5,77.5,0,0,0-29.3-29.2,79.64,79.64,0,0,0-79.4,0,76.81,76.81,0,0,0-29.3,29.2,80,80,0,0,0,.4,80.3,77.38,77.38,0,0,0,29.3,28.9,79.44,79.44,0,0,0,39.2,10.3,79.9,79.9,0,0,0,69.1-119.5Zm-10.8,74.2a66.48,66.48,0,0,1-24.9,24.5,68.08,68.08,0,0,1-66.6,0,65.07,65.07,0,0,1-24.9-24.5,68.12,68.12,0,0,1-.3-68.2,65.62,65.62,0,0,1,24.8-24.8,67.59,67.59,0,0,1,67.4,0,64.93,64.93,0,0,1,24.8,24.8,67.2,67.2,0,0,1,9,33.9A64.82,64.82,0,0,1,3817.6,797.4Z" transform="translate(0 0.01)" style="fill:#e4202f"/><path d="M3781.7,782.3c-3.9-7.2-7.5-11.8-10.9-13.9,6.5-2.8,11.4-6.7,14.5-11.8a29.79,29.79,0,0,0,4.7-16.1,27.63,27.63,0,0,0-3.4-13.5,24,24,0,0,0-9.2-9.5c-3.9-2.2-9.7-3.3-17.3-3.3h-31.3v98.3h15.5V771.2h11.5q2.4,0,7.8,9.6l3.2,6.1,13.5,25.7h17.6Zm-26.6-22.9h-10.7V726.1h11.7c5.4,0,9.2.7,11.4,2.2a13.88,13.88,0,0,1,4.9,5.6,16.56,16.56,0,0,1,1.7,7.5,20.4,20.4,0,0,1-4.2,12.4C3767.1,757.5,3762.2,759.4,3755.1,759.4Z" transform="translate(0 0.01)" style="fill:#e4202f"/></svg>