<svg id="Layer_1" data-name="Layer 1" xmlns="http://www.w3.org/2000/svg" viewBox="0 0 3840 817.96795"><rect id="rect5539" x="1.09" y="387.29797" width="245.22" height="303.72003" style="fill:#fc0"/><rect id="rect5541" y="725.73797" width="620.65997" height="92.22998" style="fill:#fc0"/><path id="path5543" d="M550.64,387.3h344l219.61,165.48L945.53,661.18Z" transform="translate(0 -0.00202)" style="fill:#fc0;fill-rule:evenodd"/><path id="path5547" d="M1752.14,387.3,2422.45,817.97h138.66992V387.3h-122.6101V687.76L1986.15,387.3Z" transform="translate(0 -0.00202)" style="fill:#fc0;fill-rule:evenodd"/><path id="path5549" d="M1749.1,433.37l265.76,170.75V817.97h-266.9Z" transform="translate(0 -0.00202)" style="fill:#fc0;fill-rule:evenodd"/><path id="path5549-2" data-name="path5549" d="M1446.76,387.3,972.14,692.24V817.97h247.45V681.25l424.4-293.95Z" transform="translate(0 -0.00202)" style="fill:#fc0;fill-rule:evenodd"/><path id="path5549-3" data-name="path5549" d="M1760.43994,392.62,2026.2,563.37" transform="translate(0 -0.00202)" style="fill:#fc0;fill-rule:evenodd"/><path id="path5551-7" d="M3431.99,817.97,2913.96,591.62l115.34009-42.23,190.80005,83.33,88.84009-32.52,498.38012,217.76H3431.99Z" transform="translate(0 -0.00202)" style="fill:#fc0;fill-rule:evenodd"/><path id="path5553-8" d="M3203.98,753.85l-153.84009-67.22L2689.18994,817.97H3028.79Z" transform="translate(0 -0.00202)" style="fill:red;fill-rule:evenodd"/><path id="path5551-7-2" data-name="path5551-7" d="M3097.2,387.25,3615.23,613.6l-115.34009,42.23-190.8-83.33-88.84008,32.52L2721.86963,387.26H3097.2Z" transform="translate(0 -0.00202)" style="fill:red;fill-rule:evenodd"/><path id="path5553-8-2" data-name="path5553-8" d="M3325.21,451.38l153.84009,67.22L3840,387.25H3500.3999Z" transform="translate(0 -0.00202)" style="fill:#fc0;fill-rule:evenodd"/><path d="M1476.66.58c6.72-.02,13.43995,0,20.16-.02.03,15.8,0,31.61.01,47.41.06994,13.19-.30005,26.38-.85,39.56-.9,19.03-2.09,38.1-5.24,56.91-2.16,12.97-6.65,25.48-12.22,37.35-9.08,19.14-23.34,35.33-39.38,48.95-14.35,12.62-31.47,21.82-49.48,28.04a169.13252,169.13252,0,0,1-31.35,7.72q.015-19.875,0-39.77a116.56065,116.56065,0,0,0,36.68005-12.52,132.33141,132.33141,0,0,0,36.18995-28.3,150.89785,150.89785,0,0,0,25.59-39.91c7.59-16.66,11.65-34.65,14.41-52.67,3.46-22.9,4.9-46.07,5.43994-69.22C1476.7,16.26,1476.63,8.42,1476.66.58Z" transform="translate(0 -0.00202)" style="fill:red"/><path d="M1504.93005.61c12.37-.08,24.75-.01,37.12-.03V266.5c-12.34.03-24.68994-.06-37.04.05-.16-28.26-.02-56.53-.07-84.79Q1504.925,91.16,1504.93005.61Z" transform="translate(0 -0.00202)" style="fill:red"/><path d="M1550.31006.57c6.68,0,13.37-.02,20.05005,0-.22,27.03.69995,54.1,3.93,80.95,2.64,20.86,6.35,41.87,14.66,61.3,7.87,18.8,19.23,36.27,34.02,50.36a130.35336,130.35336,0,0,0,49.84,29.79,99.69822,99.69822,0,0,0,15.89,3.75q-.015,19.875,0,39.74a166.62657,166.62657,0,0,1-31.11-7.61,157.86691,157.86691,0,0,1-34.4-16.58,162.52325,162.52325,0,0,1-21.74-17.31c-11.25-10.37-21.32-22.16-28.88-35.51a155.346,155.346,0,0,1-13.61-33.09c-3.1-11.51-4.42-23.41-5.62-35.25-2.32-25.58-3.18994-51.29-3.03-76.96Q1550.31,22.37,1550.31006.57Z" transform="translate(0 -0.00202)" style="fill:red"/><path d="M1810.68005,11.56c10.34-13.23,31.75-15.49,44.43995-4.39a34.47844,34.47844,0,0,1,10.68994,16.89q35.235,121.26,70.55,242.48c-13.86.01-27.73-.03-41.6.01-6.54-22.29-12.92-44.62-19.38-66.92-26.81005-.05-53.61-.01-80.42-.03q-9.84009,33.45-19.49,66.96c-13.79-.05-27.58-.01-41.37-.03q33.47991-115.68,67.09-231.32c2.67-8.05,3.68006-17.06,9.49011-23.65m24.48,49.53c-9.83,33.49-19.46,67.04-29.24,100.55,19.49.09,38.97.04,58.43995.04Q1849.735,111.385,1835.16,61.09Z" transform="translate(0 -0.00202)" style="fill:red"/><path d="M2102.76,13.3A31.767,31.767,0,0,1,2136.25.97c11.26,2.59,19.87012,12.29,22.8501,23.22q35.205,121.17,70.49,242.31c-13.88989.11-27.76,0-41.6499.05-6.46-22.31-12.84009-44.64-19.3501-66.95-26.77.01-53.53-.05-80.29.02-6.3999,22.32-13,44.59-19.38989,66.92-13.78.01-27.54-.01-41.31995.01q33.46491-116.31,67.37-232.5c2.34985-6.99,3.25976-14.71,7.7998-20.75m-3.38013,148.38q29.11487.045,58.21.02c-9.65991-33.6-19.47-67.16-29.09008-100.75C2118.81006,94.52,2109.03,128.08,2099.37988,161.68Z" transform="translate(0 -0.00202)" style="fill:red"/><path d="M1905.32.56H2055.78V41.14c-18.48.01-36.93-.02-55.39.01q0,112.695-.01,225.39H1960.7q0-112.695.01-225.39c-18.47-.04-36.93,0-55.4-.01Q1905.325,20.845,1905.32.56Z" transform="translate(0 -0.00202)" style="fill:red"/><path d="M2273.67993,2.21A33.82448,33.82448,0,0,1,2285.58984.54c15.82007.05,31.62989.01,47.43995.02,26.62988.49,52.05,17.01,63.58007,40.99,7.98,15.57,8.8,33.67,6.79,50.74-1.38989,17.88-8.88989,35.75-22.62988,47.6-7.25,6.46-16.29,10.38-24.07007,16.15-4.26,3.24-4.48,9.56-2.27,14.07,20.99,32.41,42.81006,64.3,64.24,96.43-15.66992.03-31.34009-.04-47.02.03-20.51-30.82-40.82007-61.79-61.25-92.65a34.29294,34.29294,0,0,1-4.05-30.44c2.8-7.69,9.53-13.31,17.01-16.22,14.28-5.45,28.37012-14.01,36.28-27.5,6.02-10.13,5.7-22.63,3-33.72-3.16992-14.39-17.19995-25.72-32.02-25.22-10.25.07-20.49-.05-30.72.05-4.63989-.11-8.99,3.92-8.92993,8.61q-.07508,108.54-.02,217.07c-13.33008-.03-26.63989,0-39.97-.02q-.045-116.835-.03-233.69C2251.03,19.2,2260.74,6.36,2273.67993,2.21Z" transform="translate(0 -0.00202)" style="fill:red"/><path d="M2439.62012.56h42.06006q-.015,133.005-.03,265.99c-14-.04-28.02,0-42.04-.01Q2439.62513,133.535,2439.62012.56Z" transform="translate(0 -0.00202)" style="fill:red"/></svg>