<?xml version="1.0" encoding="UTF-8" standalone="no"?>
<svg
   id="Layer_1"
   data-name="Layer 1"
   viewBox="0 0 3840 570"
   version="1.1"
   sodipodi:docname="atari800.svg"
   inkscape:version="1.1.2 (0a00cf5339, 2022-02-04, custom)"
   xmlns:inkscape="http://www.inkscape.org/namespaces/inkscape"
   xmlns:sodipodi="http://sodipodi.sourceforge.net/DTD/sodipodi-0.dtd"
   xmlns="http://www.w3.org/2000/svg"
   xmlns:svg="http://www.w3.org/2000/svg">
  <defs
     id="defs37" />
  <sodipodi:namedview
     id="namedview35"
     pagecolor="#ffffff"
     bordercolor="#666666"
     borderopacity="1.0"
     inkscape:pageshadow="2"
     inkscape:pageopacity="0.0"
     inkscape:pagecheckerboard="0"
     showgrid="false"
     inkscape:zoom="0.27838542"
     inkscape:cx="1981.0664"
     inkscape:cy="265.81852"
     inkscape:window-width="1920"
     inkscape:window-height="1017"
     inkscape:window-x="-8"
     inkscape:window-y="-8"
     inkscape:window-maximized="1"
     inkscape:current-layer="Layer_1" />
  <path
     d="M480.5,14.8H59.8A59.96288,59.96288,0,0,0,0,74.6V495.3a59.9629,59.9629,0,0,0,59.8,59.8H480.5a59.96287,59.96287,0,0,0,59.8-59.8V74.6A60.02756,60.02756,0,0,0,480.5,14.8Z"
     transform="translate(0 0)"
     style="fill:#fff"
     id="path2" />
  <path
     d="M208.2,117h26.7v62.7c.1,17.5-.4,34.9-1.1,52.3-1.2,25.2-2.8,50.4-6.9,75.3-2.9,17.2-8.8,33.7-16.2,49.4-12,25.3-30.9,46.7-52.1,64.7-19,16.7-41.6,28.9-65.5,37.1a226.6476,226.6476,0,0,1-41.5,10.2V416.1c17-2.6,33.3-8.6,48.5-16.6A175.68877,175.68877,0,0,0,148,362.1a200.88459,200.88459,0,0,0,33.9-52.8c10-22,15.4-45.8,19.1-69.7,4.6-30.3,6.5-60.9,7.2-91.6C208.2,137.8,208.1,127.4,208.2,117Z"
     transform="translate(0 0)"
     id="path4" />
  <path
     d="M245.6,117c16.4-.1,32.7,0,49.1,0V468.8c-16.3,0-32.7-.1-49,.1-.2-37.4,0-74.8-.1-112.2Z"
     transform="translate(0 0)"
     id="path6" />
  <path
     d="M305.6,117h26.5c-.3,35.7.9,71.6,5.2,107.1,3.5,27.6,8.4,55.4,19.4,81.1,10.4,24.9,25.4,48,45,66.6a172.66848,172.66848,0,0,0,65.9,39.4,139.34327,139.34327,0,0,0,21,5v52.6a217.43367,217.43367,0,0,1-41.2-10.1,209.53672,209.53672,0,0,1-45.5-21.9c-10.3-6.6-19.7-14.6-28.8-22.9-14.9-13.7-28.2-29.3-38.2-47-7.8-13.7-13.5-28.6-18-43.8-4.1-15.2-5.8-31-7.4-46.6-3.1-33.8-4.2-67.8-4-101.8C305.6,155.4,305.6,136.2,305.6,117Z"
     transform="translate(0 0)"
     id="path8" />
  <path
     d="M793.8,37.7c21-26.9,64.5-31.5,90.3-8.9a70.46978,70.46978,0,0,1,21.7,34.3q71.55,246.3,143.3,492.5c-28.2,0-56.3-.1-84.5,0-13.3-45.3-26.3-90.6-39.4-135.9-54.5-.1-108.9,0-163.3-.1q-19.95,67.95-39.6,136c-28-.1-56,0-84-.1Q706.25,320.75,774.6,85.8c5.4-16.4,7.4-34.7,19.2-48.1m49.8,100.6c-20,68-39.5,136.2-59.4,204.2,39.6.2,79.1.1,118.7.1Q873.2,240.45,843.6,138.3Z"
     transform="translate(0 0)"
     style="fill:#fff"
     id="path10" />
  <path
     d="M1387.1,41.2c14.69995-21.3,43-31.6,68-25,22.9,5.3,40.4,25,46.4,47.2Q1573.04992,309.55,1644.7,555.6c-28.19995.2-56.4,0-84.6.1-13.1-45.3-26.1-90.7-39.30005-136-54.4,0-108.69995-.1-163.1,0-13,45.3-26.4,90.6-39.4,135.9h-83.9Q1302.35,319.35,1371.2,83.3C1376,69.2,1377.9,53.5,1387.1,41.2m-6.9,301.4c39.4.1,78.80005,0,118.19995,0-19.6-68.3-39.5-136.4-59.1-204.6C1419.7,206.2,1399.80005,274.4,1380.2,342.6Z"
     transform="translate(0 0)"
     style="fill:#fff"
     id="path12" />
  <path
     d="M986.1,15.4h305.6V97.8H1179.2V555.6h-80.6V97.8c-37.5-.1-75,0-112.5,0C986.1,70.3,986,42.9,986.1,15.4Z"
     transform="translate(0 0)"
     style="fill:#fff"
     id="path14" />
  <path
     d="M1734.30005,18.7A68.22915,68.22915,0,0,1,1758.5,15.3c32.1.1,64.30005,0,96.4,0,54.1,1,105.7,34.6,129.1,83.2,16.19995,31.6,17.9,68.4,13.80005,103.1-2.80005,36.3-18.1,72.6-46,96.7-14.69995,13.1-33.1,21.1-48.9,32.8-8.69995,6.6-9.1,19.4-4.6,28.6,42.6,65.8,87,130.6,130.5,195.9-31.80005.1-63.69995-.1-95.5.1-41.69995-62.6-82.9-125.5-124.4-188.2-12.19995-17.8-15.5-41.5-8.19995-61.8,5.69995-15.6,19.4-27,34.6-32.9,29-11.1,57.6-28.5,73.69995-55.9,12.19995-20.6,11.6-46,6.1-68.5-6.4-29.2-34.9-52.2-65-51.2-20.80005.1-41.6-.1-62.4.1-9.4-.2-18.30005,8-18.1,17.5q-.15,220.5,0,440.9c-27.1-.1-54.1,0-81.2,0q-.15-237.3-.1-474.7C1688.30005,53.2,1708,27.1,1734.30005,18.7Z"
     transform="translate(0 0)"
     style="fill:#fff"
     id="path16" />
  <path
     d="M2071.30005,15.4H2156.7q0,270.15-.1001,540.3c-28.3999-.1-56.8999,0-85.3999,0Q2071.3501,285.4,2071.30005,15.4Z"
     transform="translate(0 0)"
     style="fill:#fff"
     id="path18" />
  <path
     d="M2478.80005,198.5A52.6,52.6,0,1,0,2426.2,145.9,52.6003,52.6003,0,0,0,2478.80005,198.5Zm0-70.4a17.8,17.8,0,1,1-17.8,17.8A17.83942,17.83942,0,0,1,2478.80005,128.1Z"
     transform="translate(0 0)"
     style="fill:#ff6600"
     id="path20" />
  <path
     d="M2614.7,207.4a146.89632,146.89632,0,0,0,12.3-59.1c0-81.8-66.5-148.3-148.2-148.3s-148.3,66.5-148.3,148.3a146.89624,146.89624,0,0,0,12.3,59.1,205.19266,205.19266,0,0,0-70.8999,155.7c0,114,92.80005,206.8,206.80005,206.8s206.8-92.8,206.8-206.8A204.6052,204.6052,0,0,0,2614.7,207.4Zm-135.8999,327.7A172.09778,172.09778,0,0,1,2306.7,363c0-61.9,32.8-115.9,81.8-146.3a113.50011,113.50011,0,1,1,180.6001,0,171.81014,171.81014,0,0,1,81.8,146.3C2650.80005,458.1,2573.80005,535.1,2478.80005,535.1Z"
     transform="translate(0 0)"
     style="fill:#ff6600"
     id="path22" />
  <path
     d="M2478.80005,263.2A102.8,102.8,0,1,0,2581.6001,366,102.76785,102.76785,0,0,0,2478.80005,263.2Zm0,170.7a68,68,0,1,1,68-68A68.071,68.071,0,0,1,2478.80005,433.9Z"
     transform="translate(0 0)"
     style="fill:#ff6600"
     id="path24" />
  <path
     d="M2974.8999,0c-157.1001,0-285,127.8-285,285,0,157.1,127.80005,285,285,285C3132,570,3259.7998,442.2,3259.7998,285,3259.8999,127.8,3132,0,2974.8999,0Zm0,535.2c-138,0-250.19995-112.3-250.19995-250.2,0-138,112.3-250.2,250.19995-250.2S3225.1001,147,3225.1001,285C3225.1001,422.9,3112.8999,535.2,2974.8999,535.2Z"
     transform="translate(0 0)"
     style="fill:#ff6600"
     id="path26" />
  <path
     d="M2974.8999,101c-101.3999,0-184,82.5-184,184,0,101.4,82.5,184,184,184,101.3999,0,184-82.5,184-184S3076.30005,101,2974.8999,101Zm0,333.2c-82.3,0-149.3-67-149.3-149.2,0-82.3,67-149.2,149.3-149.2s149.2,67,149.2,149.2C3124.1001,367.3,3057.2,434.2,2974.8999,434.2Z"
     transform="translate(0 0)"
     style="fill:#ff6600"
     id="path28" />
  <path
     d="M3555.1001,0c-157.1001,0-285,127.8-285,285,0,157.1,127.8,285,285,285C3712.2002,570,3840,442.2,3840,285S3712.2,0,3555.1001,0Zm0,535.2c-138,0-250.2-112.3-250.2-250.2,0-138,112.30005-250.2,250.2-250.2S3805.30005,147,3805.30005,285C3805.30005,422.9,3693,535.2,3555.1001,535.2Z"
     transform="translate(0 0)"
     style="fill:#ff6600"
     id="path30" />
  <path
     d="M3555.1001,101c-101.3999,0-184,82.5-184,184,0,101.4,82.5,184,184,184,101.3999,0,184-82.5,184-184C3739,183.5,3656.5,101,3555.1001,101Zm0,333.2c-82.30005,0-149.30005-67-149.30005-149.2,0-82.3,67-149.2,149.30005-149.2s149.19995,67,149.19995,149.2C3704.30005,367.3,3637.30005,434.2,3555.1001,434.2Z"
     transform="translate(0 0)"
     style="fill:#ff6600"
     id="path32" />
</svg>
