<?xml version="1.0" encoding="UTF-8" standalone="no"?>
<svg
   version="1.0"
   width="2005.4697"
   height="655.47101"
   viewBox="0 0 2005.4697 655.47101"
   preserveAspectRatio="xMidYMid meet"
   id="svg140"
   sodipodi:docname="auto-playingcards.svg"
   inkscape:version="1.1.2 (0a00cf5339, 2022-02-04, custom)"
   xmlns:inkscape="http://www.inkscape.org/namespaces/inkscape"
   xmlns:sodipodi="http://sodipodi.sourceforge.net/DTD/sodipodi-0.dtd"
   xmlns="http://www.w3.org/2000/svg"
   xmlns:svg="http://www.w3.org/2000/svg">
  <defs
     id="defs144" />
  <sodipodi:namedview
     id="namedview142"
     pagecolor="#ffffff"
     bordercolor="#666666"
     borderopacity="1.0"
     inkscape:pageshadow="2"
     inkscape:pageopacity="0.0"
     inkscape:pagecheckerboard="0"
     showgrid="false"
     inkscape:zoom="0.51717465"
     inkscape:cx="973.55893"
     inkscape:cy="359.6464"
     inkscape:window-width="1920"
     inkscape:window-height="1017"
     inkscape:window-x="-8"
     inkscape:window-y="-8"
     inkscape:window-maximized="1"
     inkscape:current-layer="svg140" />
  <g
     fill="#ffffff"
     id="g24"
     transform="translate(-60.031347,-0.64776721)">
    <path
       d="m 287,655.9 c -23.1,-0.8 -38.3,-3.1 -59,-8.7 -63.3,-17.1 -113.4,-58.8 -141.6,-117.7 -13.3,-27.8 -21,-56 -24.9,-91.3 -1.7,-15 -2,-57 -0.5,-69.3 5.9,-47.1 17,-80.4 38.5,-115.6 12,-19.5 21.3,-30.1 60,-68.9 30,-30.1 39.4,-38.9 49.7,-46.6 28.1,-20.7 55.7,-34.1 89.8,-43.2 60.7,-16.2 138.4,-13.3 183,6.7 19.2,8.6 19.2,8.7 18.6,11 -0.3,1.2 -3.4,12.8 -6.7,25.7 -3.4,12.9 -7.9,30.3 -10,38.5 -2.1,8.3 -4.6,18.2 -5.5,22 l -1.7,7 -24.5,24.7 -24.5,24.6 -5,-1.9 c -2.8,-1.1 -6.9,-2.8 -9.1,-3.9 -28.2,-12.8 -48.4,-17 -81.6,-17 -21,0 -32,1.2 -49,5.2 -9,2.1 -22.7,7.1 -31.8,11.5 l -9.3,4.6 -3.6,7.1 c -12.3,24.5 -18.3,50.9 -18.8,84.1 -0.6,35.7 5,65.1 17.4,91.1 6.9,14.5 14,24.5 25,35.4 20.1,19.9 41.5,30.3 73.1,35.6 10.1,1.6 46,1.9 55.9,0.4 37.7,-5.8 54.7,-11.5 86.1,-29.2 l 9.6,-5.4 2.3,7.8 c 1.4,4.4 2.7,7.5 3.2,7.1 0.4,-0.4 7.3,-22.8 15.4,-49.8 8,-26.9 15.3,-50.9 16,-53.2 0.8,-2.3 1.7,-5.2 1.9,-6.5 0.5,-2.2 4.3,-14.7 32.6,-108.3 6.2,-20.3 11.8,-39 12.5,-41.5 0.7,-2.5 4.3,-14.4 8,-26.5 3.7,-12.1 8,-26.4 9.6,-31.7 1.6,-5.4 4.3,-14.4 6,-20 1.7,-5.7 4,-13.4 5.1,-17.2 l 2,-6.8 24.9,-24.9 L 651,76 h 8.6 c 4.7,0 15,-0.4 22.8,-1 19.4,-1.3 52.1,-2.9 63.9,-3.2 l 9.9,-0.3 1.5,4 c 0.8,2.2 2.8,7.4 4.3,11.5 1.5,4.1 4,10.7 5.5,14.5 1.5,3.9 4,10.4 5.5,14.5 1.6,4.1 4.7,12.5 7,18.5 2.3,6.1 5.5,14.4 7,18.5 1.5,4.1 4.6,12.2 6.8,18 6.6,17.4 18.2,48 21.2,56 1.5,4.1 5.1,13.6 8,21 2.8,7.4 5.5,14.6 6,16 0.4,1.4 3.6,9.7 7,18.5 3.4,8.8 6.6,17.1 7,18.5 0.4,1.4 3.6,9.7 7,18.5 3.4,8.8 6.6,17.1 7,18.5 0.4,1.4 3.6,9.7 7,18.5 3.4,8.8 8.2,21.4 10.6,28 2.5,6.6 4.8,12.9 5.3,14 1.4,3 6.4,16.4 12.2,32 2.8,7.7 5.6,14.5 6.1,15 1.1,1 1.1,0.1 -1.7,-83 -0.3,-8.2 -0.7,-23.3 -1,-33.5 -0.3,-10.2 -0.7,-23.4 -1,-29.5 -0.3,-6 -0.7,-20.7 -1,-32.5 -0.3,-11.8 -0.7,-26.2 -1,-32 -0.3,-5.8 -0.7,-18.8 -1,-29 -0.3,-10.2 -1,-33.6 -1.5,-52 l -1,-33.5 24.2,-24.3 c 28,-27.9 22.5,-24.8 59.3,-33.2 14.7,-3.4 43.8,-7.7 67,-9.9 26.5,-2.6 35.5,-3.1 58.6,-3.1 26.7,0 39.8,1.2 63.2,6 8.1,1.6 25.4,7.8 34.6,12.2 20,9.8 41,27.6 51.9,44 2.8,4.3 5.4,7.3 5.7,6.8 0.4,-0.6 0.3,-5 0,-9.8 l -0.7,-8.8 25,-25 25,-24.9 19.8,-3.9 c 11,-2.1 23.5,-4.5 27.9,-5.2 17.3,-2.8 20.3,-3.3 27.5,-4.3 18.4,-2.5 29.4,-3.7 56.5,-6.2 16.9,-1.5 71.1,-1.5 84,0 37.4,4.4 63.4,10.8 87.5,21.8 13.8,6.2 34.1,18.4 42.8,25.6 23,19.4 38.5,37.2 50.9,58.6 2.6,4.6 5.3,8.6 5.8,8.8 0.6,0.1 1.8,-1.7 2.8,-4.1 2.5,-6.1 8.9,-16.6 15.6,-25.6 6.5,-8.9 57.8,-60.9 70.6,-71.8 37.5,-31.6 88.1,-46.4 147.3,-43.1 36.5,2.1 62.4,8.9 91.2,24.1 10,5.2 9.8,4.5 5.1,19.8 -4.1,13.2 -8.8,28.9 -11.3,37.5 -1.1,3.9 -2.4,8.1 -2.8,9.5 -0.5,1.4 -1.8,5.9 -3,10 -1.2,4.1 -2.6,8.6 -3,10 -0.4,1.4 -1.5,5 -2.5,8.2 -1.5,5.3 -2.9,6.9 -26.2,30.2 l -24.5,24.5 -6.7,-3.3 c -26,-13 -38,-17.8 -52.1,-20.5 -3,-0.6 -7.9,-1.5 -10.8,-2.1 -6.4,-1.2 -40.2,-1.3 -42.1,-0.1 -0.9,0.6 -1.1,2 -0.6,5.2 2.2,14.7 9.8,24.2 27,34.1 5.8,3.3 7.3,4 18,8.8 5.3,2.5 21.5,8.4 35.5,13 40.2,13.3 74.1,32.6 94.8,54 19.4,20 30.4,41.9 36.3,72.5 1.8,9.3 1.9,47.8 0.1,55.5 -3,12.8 -3.6,14.9 -6.4,23.5 -3.9,11.6 -12.9,28.9 -20.3,39 -6,8.3 -66.4,69.7 -75.8,77.1 -18.3,14.3 -41.2,26.1 -63.2,32.4 -14.2,4.1 -24.1,6.1 -42,8.5 -12.8,1.7 -49.3,2 -61.2,0.5 -13.1,-1.7 -22.6,-3.1 -26.8,-4 -21.5,-4.7 -35.5,-9.1 -48.5,-15.2 -8.6,-4 -26.5,-14.3 -27.5,-15.7 -0.4,-0.8 1.6,-9.7 6.5,-27.6 1.2,-4.4 3.4,-12.9 5,-19 1.6,-6 3.8,-14.6 5,-19 4.9,-18.1 7.2,-27.1 7.7,-29.6 0.3,-1.7 8.8,-10.9 25.2,-27.3 l 24.6,-24.6 10.8,6 c 24.4,13.6 34.2,18 49.7,22.9 15.6,4.8 41,8.2 56.5,7.5 12.1,-0.6 22.8,-2.3 24.4,-3.9 2.2,-2.2 -0.2,-19.1 -3.9,-27.2 -8.1,-17.8 -31,-31.5 -76,-45.4 -17,-5.2 -41.2,-15.7 -57.5,-24.9 -10.5,-5.8 -28.8,-19.4 -34.4,-25.4 -1.4,-1.4 -2.8,-2.6 -3.2,-2.6 -0.4,0 -1,3 -1.3,6.8 -1.3,15.2 -5.1,37.6 -8.2,49.1 -0.9,3.1 -2,7.2 -2.5,9.2 -3.4,14.1 -15.4,42.2 -24.3,56.9 -4.8,8.1 -16.8,25.8 -19.3,28.5 -1,1.1 -4,4.7 -6.8,8 -7,8.3 -58.1,59.3 -69.2,69.1 -19.9,17.6 -47.8,34.1 -74.6,44.2 -13.8,5.3 -16.8,6.3 -26.7,9.1 -32.3,9.2 -56.1,13.1 -99,16.1 -19.5,1.4 -97.9,1.3 -115.8,-0.1 -13.8,-1.1 -14.4,-1.1 -16.5,0.9 -2.4,2.2 -9.7,2.9 -56.2,5.2 -11.5,0.6 -27.4,1.5 -35.1,2 -7.8,0.6 -16.8,1 -20.1,1 h -5.9 l -5.6,-9.2 c -7,-11.5 -15.7,-33.4 -20.8,-52.3 -0.5,-1.6 -2,-6.8 -3.4,-11.5 -1.4,-4.7 -3.2,-11.1 -4,-14.2 -0.9,-3.2 -2.3,-8.4 -3.2,-11.5 -2.4,-8.8 -6.3,-23.9 -8.4,-32.3 -7.4,-29.7 -19.3,-49.2 -34.2,-55.9 -6.2,-2.8 -13,-4.7 -14.4,-4 -0.7,0.4 -0.6,34.5 0.2,41.4 0.2,2.2 0.8,20.4 1.4,40.5 0.5,20.1 1.3,43.5 1.6,52 l 0.7,15.5 -24.6,24.6 -24.6,24.6 -11.3,0.7 c -12.2,0.7 -34.7,1.9 -66.3,3.5 -11,0.6 -22.1,1.3 -24.7,1.7 -4.7,0.6 -4.8,0.6 -4.8,-2.3 0,-5.1 -1.3,-5.4 -5.3,-1.4 -4.4,4.4 -4.3,4.4 -38.2,6.1 -11,0.6 -27.6,1.5 -37,2 -9.3,0.5 -22.8,1.2 -30,1.6 l -13,0.6 -9.2,-24.8 C 767.2,585.7 757,558.3 749.5,538.5 742,518.7 734.2,498.1 732.2,492.8 l -3.6,-9.8 -4.5,0.1 c -2.6,0 -12.2,0.4 -21.6,0.9 -9.3,0.5 -26.4,1.4 -38,1.9 -11.5,0.6 -22.6,1.3 -24.5,1.6 l -3.5,0.6 -5.3,18.2 c -10.3,34.9 -19.4,66.2 -20.2,69.2 -3.2,11.4 -2.6,10.7 -27.8,36 l -24.3,24.3 -5.2,0.6 c -2.9,0.4 -14.2,1.1 -25.2,1.7 -11,0.5 -27.9,1.4 -37.5,1.9 -35.1,1.9 -45,2.3 -45,1.7 0,-0.3 0.4,-1.6 0.9,-2.9 1.7,-4.2 4.3,-13.9 3.9,-14.3 -0.2,-0.2 -3.3,1.1 -6.8,2.9 -3.6,1.8 -7.9,3.8 -9.5,4.4 -16.3,6.2 -25,9.1 -36,12 -21.2,5.5 -31.6,7.4 -58,10.8 -10,1.2 -36.4,1.9 -53.5,1.3 z M 328.1,645 c 50,-4.8 88.8,-15.2 117,-31.1 4.7,-2.7 10,-6.5 11.9,-8.4 2.5,-2.6 4.2,-3.5 6.7,-3.5 3.2,0 3.3,0.1 3.3,4.1 0,2.3 -1.4,8.7 -3.1,14.1 -1.7,5.5 -2.8,10.2 -2.6,10.4 0.3,0.3 9.4,0 20.3,-0.6 11,-0.5 28.7,-1.4 39.4,-2 10.7,-0.5 21.8,-1.2 24.6,-1.5 l 5,-0.6 24.4,-24.4 24.3,-24.4 14.3,-49.2 c 7.9,-27.1 14.8,-49.6 15.5,-49.9 0.6,-0.4 7.7,-1 15.7,-1.4 8.1,-0.4 21.9,-1.1 30.7,-1.6 50,-2.9 59.6,-3.3 60.5,-2.4 0.5,0.5 6.1,14.9 12.5,31.9 6.5,17.1 18,47.7 25.7,68 7.7,20.4 14.2,37.8 14.5,38.9 0.6,1.8 1.5,1.8 14.7,1.2 16.6,-0.7 46.7,-2.4 65.5,-3.5 l 13.3,-0.9 12.7,-12.6 C 905.9,584.7 908,583 910.8,583 h 3.2 v 5.9 c 0,3.2 0.3,8.5 0.6,11.7 l 0.6,5.9 14.2,-0.7 c 24.5,-1.2 53.8,-2.7 63.2,-3.4 l 9.2,-0.7 24.3,-24.3 24.3,-24.3 -2.2,-72.8 c -1.3,-40 -2.3,-74.3 -2.2,-76.2 v -3.3 l 7.3,0.6 c 10.8,1 16.4,2.4 24.6,6.3 8.5,4 17.7,12.6 23,21.6 7.2,12.3 10.3,21.4 23.2,69.7 11.3,42.3 21.4,73.1 27.3,83 7.1,12.2 6.8,11.8 10.1,11.4 2.8,-0.4 15.5,-1.1 63.5,-3.4 11.3,-0.6 21.9,-1.2 23.5,-1.5 2.2,-0.4 5.9,-3.4 13,-10.5 9.1,-9.1 10.3,-10 13.7,-10 h 3.8 v 7.9 7.9 l 5.3,0.6 c 2.8,0.3 23.1,0.8 45,1.2 60.8,1 97.1,-1.6 136.9,-9.7 45.2,-9.1 85,-26.1 116.2,-49.2 10.1,-7.6 72.9,-69.7 84,-83.2 28.5,-34.6 46.3,-76.9 53.1,-126.1 1.1,-8.3 3.4,-35 3.5,-40.6 0,-0.5 1.5,-0.8 3.3,-0.8 2.8,0 3.9,0.8 7.1,5 7.7,10.1 26.2,25.6 40.5,33.9 18.7,10.9 32.7,17 64.1,27.6 38.2,12.9 54.2,21.3 67.3,35 8.6,9.1 13.7,25 13.6,42.5 -0.1,12.5 -0.5,13.2 -6.9,14.7 -12,2.7 -32.3,3.8 -48.3,2.4 -31.5,-2.5 -56,-10.1 -83.4,-25.6 l -8.2,-4.6 -23.5,23.5 -23.5,23.6 -4.7,17.7 c -2.6,9.8 -6.9,26.1 -9.6,36.3 -7.1,26.9 -7.1,24.1 -0.2,28.3 23.9,14.3 52.1,22.5 91.6,26.7 37.2,3.9 82.4,-3.1 115.3,-17.9 25.2,-11.3 33.6,-17.9 73.6,-58 35.4,-35.5 40.9,-42.1 49.6,-59.6 6.4,-12.7 9.5,-22.3 13.5,-41 2.1,-10.2 1.6,-37.1 -1,-49.7 -10.7,-52 -42.9,-84.9 -108.3,-110.5 -8.5,-3.4 -19.2,-7.3 -23.9,-8.8 -12.1,-3.9 -32.1,-12 -41.5,-16.7 -10.9,-5.5 -18.1,-10.3 -24.1,-16.3 -9.2,-9.2 -12.6,-17.5 -13.9,-34.3 -0.7,-8.6 -0.7,-9 1.5,-10.2 4.2,-2.3 27.8,-3.4 43.8,-2.2 23.3,1.8 39.7,6.2 60.8,16.2 5.9,2.7 11,5 11.4,5 0.4,0 11.3,-10.5 24.1,-23.4 l 23.4,-23.4 11.3,-37.7 c 6.2,-20.6 11,-38 10.7,-38.6 -0.4,-0.5 -3.7,-2.5 -7.3,-4.3 C 2004,23 1983.8,16.8 1962,13.4 c -16.1,-2.5 -54,-2.6 -69.4,-0.1 -35.3,5.6 -65.9,18.7 -89.3,38.1 -9.7,8 -65.3,64.4 -70.6,71.5 -9,12.1 -16.1,25.7 -20.7,39.4 -2.2,6.4 -2.4,6.7 -5.4,6.7 -3,0 -3.3,-0.5 -9.1,-12.2 -25.1,-51.4 -68.4,-87.6 -125.5,-104.9 -58.1,-17.6 -138.6,-16 -245,4.7 l -13.5,2.7 -24.8,24.6 -24.7,24.6 0.6,28.7 0.7,28.8 h -3.4 -3.4 l -2.8,-10.5 c -3.3,-12.1 -11.4,-29.2 -18.3,-38.5 -23.6,-32.1 -59.3,-50.2 -109.3,-55.5 -41,-4.4 -115.6,2.4 -166.1,15.1 l -13.4,3.4 -24.8,24.7 -24.9,24.8 0.6,6.5 c 0.3,3.6 1,22.5 1.5,42 1,33.7 1.6,54.3 4,127 1.6,49.1 2.9,91.2 4,125.3 0.5,17.1 1.2,38.5 1.6,47.5 l 0.7,16.2 h -3.5 -3.5 L 870,403.3 c -18.9,-50 -41.1,-108.8 -49.5,-130.8 -8.3,-22 -27.9,-73.9 -43.6,-115.4 L 748.5,81.8 735,82.5 c -7.4,0.3 -20.7,1 -29.5,1.5 -8.8,0.6 -22.8,1.3 -31.2,1.6 l -15.1,0.7 -25,25.1 -25,25.1 -17.5,58.5 c -19.7,65.7 -89.2,297.2 -93.8,312.3 -3,9.6 -3,9.7 -6.2,9.7 h -3.2 l -3.9,-13.2 c -2.1,-7.3 -4.1,-13.6 -4.5,-14 -0.3,-0.4 -4.9,1.7 -10.2,4.6 -24.8,13.6 -53.7,21.3 -90.1,23.8 -35.7,2.4 -66,-2.3 -91.5,-14.2 -4.6,-2.1 -8.3,-3.6 -8.3,-3.4 0,0.3 5.1,2.9 11.3,5.9 36.7,17.6 82.7,20.2 132.2,7.5 16.4,-4.2 22.6,-6.5 37.2,-13.6 11.3,-5.4 19.3,-7.9 19.3,-5.9 0,0.3 2.3,8.3 5.1,17.8 10,33.5 12.9,44.2 12.9,46.9 0,2.4 -1.1,3.2 -11.2,8.2 -34.9,17 -84.5,26.6 -137.2,26.6 -33.6,0 -56,-3.3 -83.1,-12.1 C 195.7,558.9 146.5,502.5 129,424 120.4,385.2 119.5,332.5 127,294 142.3,214.6 192.3,151.2 264,120.3 300.6,104.5 335.3,98 383.4,98 c 42.6,0 69.8,4.6 96.8,16.2 3.8,1.6 4.8,2.5 4.8,4.4 0,1.3 -2.5,12.2 -5.6,24.2 -3.1,11.9 -6.9,26.4 -8.3,32.2 l -2.7,10.5 -4.1,0.3 c -2.7,0.2 -5.9,-0.5 -9.7,-2.2 -43.9,-19.4 -107.9,-18.7 -153.8,1.6 -35.2,15.6 -60,39.7 -76.3,74.1 -13.4,28.3 -19.3,59.7 -18.2,96.7 1,34.8 8.3,64.8 21.8,90 6.2,11.5 6.5,10.6 0.5,-1.6 -11,-22.1 -16.5,-44.2 -18.8,-74.4 -1.2,-17.5 -0.5,-44.4 1.8,-59.5 3.1,-21.5 10.6,-45.2 18.9,-60 3,-5.4 4.1,-6.4 10.1,-9.4 18.9,-9.4 35.6,-14.5 59.9,-18.2 10.9,-1.7 51.6,-1.7 63,0 18.6,2.7 30.1,5.9 46.9,12.8 l 10.8,4.6 23.8,-23.8 23.8,-23.8 3.7,-14.6 c 2.1,-8 6.4,-24.8 9.6,-37.3 3.3,-12.5 5.9,-23.2 5.9,-23.6 0,-1.1 -14.2,-7.7 -23.5,-10.9 C 437.9,97.2 399.7,92.8 366.2,95 304.4,98.9 255.4,116.3 212,149.8 c -10.5,8.1 -71.2,68.1 -82.6,81.7 -49.3,58.5 -69.2,139.7 -54.9,223.8 9,52.6 33.9,101.2 68,132.3 35.8,32.8 77.2,50.8 132,57.3 10.1,1.2 41.5,1.3 53.6,0.1 z m 52.4,-66.5 c 23.6,-2.4 34.3,-4.2 54,-9.1 22.3,-5.6 46.9,-15.3 46.1,-18.3 -0.2,-0.9 -1.8,-6.1 -3.5,-11.6 -1.6,-5.5 -4,-13.4 -5.2,-17.6 l -2.1,-7.7 -6.2,2.8 c -14.2,6.4 -39.9,13.3 -61.6,16.6 -14.7,2.2 -49.1,3 -63.2,1.5 -30.2,-3.3 -54.3,-11.4 -75.3,-25.4 -40.6,-27.1 -64.3,-71.6 -70.5,-132.2 -1.6,-15.9 -0.8,-56.3 1.4,-70.5 6.5,-40.8 21.3,-72.9 45.1,-97.9 27.5,-28.7 59.9,-44.6 105.7,-51.7 15.6,-2.4 53.8,-2.5 69.3,-0.1 14.5,2.2 23.1,4.1 33.8,7.3 4.8,1.5 8.9,2.5 9,2.3 0.2,-0.2 2.7,-9.4 5.5,-20.4 3.9,-15 4.8,-20.1 3.9,-20.7 -2.9,-1.9 -21.2,-7.2 -32.2,-9.3 -35,-6.8 -82.4,-5.8 -117.4,2.6 -44.3,10.5 -81.2,30.3 -111.4,59.8 -39.9,39 -62.7,88.6 -68.8,149.6 -1.5,14.8 -0.6,48.4 1.6,64.5 6.2,45 23.3,86.3 47.7,115.5 7.9,9.5 19,20.4 27.9,27.5 27.9,22.2 66.2,37.7 104.9,42.5 14.4,1.7 44.6,1.8 61.5,0 z M 279,499.6 c 0,-0.2 -2.5,-2 -5.5,-4 -3,-2 -5.5,-3.4 -5.5,-3.1 0,0.4 10.1,7.5 10.7,7.5 0.2,0 0.3,-0.2 0.3,-0.4 z"
       id="path2" />
    <path
       d="m 514,576.5 c 0,-1.5 7.4,-27.3 16.4,-57.4 20.5,-68.1 82.5,-274.6 99.2,-330.1 6.9,-22.8 15.1,-50.3 18.4,-61 3.2,-10.7 7.1,-23.6 8.6,-28.7 l 2.7,-9.2 4.1,-0.6 c 2.3,-0.3 13.6,-1 25.1,-1.6 11.6,-0.5 28.7,-1.4 38,-1.9 9.4,-0.5 18,-1 19.2,-1 1.4,0 2.4,0.9 3.1,2.8 0.6,1.5 5.8,15.3 11.7,30.7 5.8,15.4 12.6,33.2 14.9,39.5 5,13.1 23.1,61 28.3,74.5 1.9,5 4.5,11.9 5.8,15.5 1.3,3.6 4.7,12.6 7.5,20 2.8,7.4 9,23.6 13.7,36 16.3,43.1 22.3,59.1 29.4,77.8 3.9,10.3 11.5,30.4 16.9,44.7 12.4,33 25.4,67.2 32,84.5 11.9,31.2 15,40.2 15,42.9 0,2.9 0,2.9 -7.2,3.5 -11.8,1 -64,3.6 -71.5,3.6 h -6.8 L 812,490.4 785.5,419.8 776,420.4 c -5.2,0.4 -18,1.1 -28.5,1.6 -10.4,0.6 -26.6,1.5 -36,2 -9.3,0.5 -27.1,1.4 -39.5,2 -12.4,0.7 -24.5,1.5 -27,1.9 l -4.5,0.6 -20.2,69 c -11,38 -20.6,70.9 -21.2,73.1 l -1.1,4.1 -13.2,0.7 c -7.3,0.4 -20.5,1.1 -29.3,1.6 -8.8,0.5 -21.7,1.2 -28.7,1.6 L 514,579.2 Z M 567.4,562 c 9.8,-0.5 18.1,-1.1 18.3,-1.4 0.3,-0.3 2,-5.6 3.8,-11.8 1.8,-6.2 7.4,-25.5 12.5,-42.8 5,-17.3 12.3,-42.3 16.2,-55.5 3.8,-13.2 7.8,-26.7 8.7,-30 l 1.8,-6 8.4,-0.7 c 4.7,-0.3 17.9,-1.1 29.4,-1.7 29.9,-1.6 54.3,-2.9 75,-4.1 9.9,-0.6 26.4,-1.3 36.6,-1.7 17.6,-0.6 18.6,-0.5 19.3,1.3 1.1,2.8 31.1,82.4 42.6,112.9 l 9.7,26 6.4,-0.2 c 3.5,-0.2 15.9,-0.8 27.6,-1.4 l 21.2,-1.2 -2.1,-5.1 c -2,-5 -7.3,-19 -12.8,-33.6 -3.3,-8.7 -15.4,-40.8 -21.2,-56 -2.2,-5.8 -5.3,-13.9 -6.8,-18 -3.3,-8.7 -15.4,-40.8 -21.2,-56 -2.2,-5.8 -5.3,-13.9 -6.8,-18 -1.5,-4.1 -6,-16 -10,-26.5 -4,-10.4 -8.5,-22.4 -10,-26.5 -1.5,-4.1 -3.3,-8.8 -4,-10.5 -0.7,-1.6 -2.5,-6.4 -4,-10.5 -1.5,-4.1 -6,-16 -10,-26.5 -4,-10.4 -8.4,-22.4 -10,-26.5 -1.5,-4.1 -4,-10.6 -5.5,-14.5 -1.5,-3.8 -4,-10.4 -5.5,-14.5 -1.5,-4.1 -4.7,-12.4 -7,-18.5 -2.3,-6 -5.5,-14.4 -7,-18.5 -1.5,-4.1 -4.7,-12.4 -7,-18.5 -2.3,-6 -5.5,-14.4 -7,-18.5 -1.6,-4.1 -4.5,-11.9 -6.6,-17.3 l -3.7,-9.7 h -5.1 c -2.8,0 -11.6,0.4 -19.6,1 -8,0.5 -20.4,1.2 -27.6,1.5 l -13.2,0.7 -2.5,8.7 c -2.4,8.2 -5.1,17.2 -11.8,39.6 -1.7,5.5 -4.3,14.3 -5.9,19.5 -1.5,5.2 -11.9,39.7 -23,76.5 -11.1,36.9 -21.5,71.3 -23,76.5 -3.1,10.5 -7.4,24.8 -11.9,39.8 -6.2,20.5 -9.1,30 -11.9,39.7 -1.7,5.5 -9.4,31.2 -17.2,57 -7.8,25.9 -15.5,51.3 -17,56.5 -1.6,5.2 -4.2,14 -5.9,19.5 -1.6,5.5 -3.8,13 -4.9,16.6 -1.1,3.7 -2.3,7.7 -2.7,8.9 -0.7,2.2 -0.7,2.3 7.6,1.6 4.6,-0.4 16.4,-1.1 26.3,-1.6 z"
       id="path4" />
    <path
       d="m 640,369.4 c 0,-3.2 2,-10.7 10,-37.4 1.6,-5.2 4,-13.5 5.5,-18.5 1.5,-4.9 7.6,-25.4 13.7,-45.5 11.7,-39.2 19,-66.6 26.3,-98.7 2.5,-11.1 4.5,-20.4 4.5,-20.7 0,-0.3 1.8,-0.6 4,-0.6 2.2,0 4,0.1 4,0.3 0,0.4 7.7,26.7 10.9,37.2 6.1,20.4 10.8,33.1 43.6,120 18.2,48.1 20.5,54.6 20.5,57.4 v 2.8 l -9.7,0.7 c -5.4,0.3 -17.9,1.1 -27.8,1.6 -32.8,1.7 -56.8,3 -74,4 -9.3,0.5 -20.3,1 -24.2,1 H 640 Z M 685.5,357 c 19.5,-1.2 47.4,-2.7 65.1,-3.6 l 13,-0.6 -12.3,-32.7 C 723.3,246.2 716.5,227.7 711,211.2 l -5.7,-17.3 -2.3,9.3 c -4.8,20.1 -35.7,126.9 -44,152.1 l -0.9,2.7 h 5.7 c 3.1,0 12.9,-0.4 21.7,-1 z"
       id="path6" />
    <path
       d="m 663,352.3 c -0.1,-1.6 2.3,-10.8 5.2,-20.5 l 5.2,-17.8 h 3.3 c 3.7,0 3.1,-1.2 11.1,20.1 5.2,13.7 6.2,18.6 4,19.3 -0.7,0.3 -7.5,0.7 -15,1 l -13.8,0.7 z m 16,-9.7 c 0,-0.8 -0.4,-1.8 -1,-2.1 -0.5,-0.3 -1,-0.4 -1,-0.1 0,0.2 -0.3,1.1 -0.6,2 -0.4,1.1 -0.1,1.6 1,1.6 0.9,0 1.6,-0.6 1.6,-1.4 z"
       id="path8" />
    <path
       d="m 966,547.9 c 0,-3.5 -0.9,-34.1 -2,-67.9 -3,-92.8 -3.9,-121.4 -5,-157 -2.7,-86.2 -4.6,-144.8 -6.4,-199.5 -0.8,-22.5 -1.1,-41.3 -0.8,-41.6 2,-1.9 28.7,-7.6 50.6,-10.9 35,-5.3 62.4,-7.4 95.6,-7.4 29.3,0 38.8,0.7 57.5,4.6 54.8,11.2 89.6,44.5 100.2,96 2.2,10.6 2.5,49 0.5,58.3 -4.1,18.9 -10.8,35.1 -20.5,49.4 -9,13.3 -26.3,29.8 -39.3,37.5 l -5,3 7.5,5.6 c 23.8,17.7 36.8,42 51.1,96 17.4,65.4 27.6,95.8 37,111.2 3.8,6.1 4.1,11.5 0.8,12.2 -3.1,0.6 -65.6,3.6 -74.5,3.6 -6.8,0 -7.3,-0.1 -9.3,-3.1 -6.9,-9.6 -15.4,-36.4 -36.4,-114.6 -13.5,-50.6 -33.6,-71.1 -72.2,-73.7 -9.3,-0.7 -52.8,1.5 -54,2.7 -0.4,0.3 -0.1,16.1 0.5,34.9 0.6,18.9 1.6,47.1 2.1,62.8 0.5,15.7 1.5,44.4 2.1,63.8 0.7,21.1 0.8,35.6 0.3,36.1 -0.9,0.8 -31.5,2.6 -64.1,3.8 l -16.3,0.6 z m 45.9,-9.9 c 11.2,-0.6 20.5,-1.1 20.6,-1.3 0.1,-0.1 -0.2,-11.2 -0.6,-24.7 -2.6,-74 -4.9,-151.2 -4.9,-161.7 v -12 l 9.3,-0.6 c 47.4,-3.3 64.9,-3.2 81.7,0.4 15,3.2 29.2,11.3 37.3,21.2 13.7,16.8 19.8,31.5 31.7,77.2 9.9,37.9 20,70.8 25.9,83.8 l 3.1,6.9 8.2,-0.6 c 4.6,-0.3 13.9,-0.8 20.8,-1.1 6.9,-0.3 14.8,-0.8 17.7,-1.1 l 5.2,-0.6 -2.1,-5.2 c -6.4,-15.7 -16.3,-48.3 -28.3,-92.6 -9.2,-34.2 -11.7,-41.6 -19.1,-56.7 -13.2,-26.9 -28.1,-41.5 -51.4,-50.4 -4.2,-1.6 -4.5,-2 -4.8,-5.6 l -0.3,-4 9.8,-4.7 c 14.4,-7 25.6,-14.8 36.4,-25.6 11.2,-11.1 17.1,-19.3 23.2,-31.6 9.2,-18.5 12.2,-31.5 12.1,-52.9 0,-21.5 -3.2,-36.2 -11.4,-52.5 -17.7,-35.4 -49.4,-55.5 -98.8,-62.6 -34.4,-5.1 -109.1,0.7 -160.1,12.2 l -7.3,1.7 0.6,20.1 c 0.4,11 1.1,33.4 1.6,49.6 1.7,51.9 2.9,90.6 4,124 1.1,34.7 2.4,75.2 4,126 0.6,17.3 1.5,45.7 2,63 0.6,17.3 1.3,38.9 1.6,47.8 l 0.6,16.4 5.7,-0.6 c 3.1,-0.3 14.8,-1.1 26,-1.6 z"
       id="path10" />
    <path
       d="m 1024.6,282.4 c -0.8,-20.4 -2.1,-59.8 -3.7,-114.7 -0.9,-29.6 -0.9,-41.1 -0.1,-41.9 1.3,-1.3 15.1,-4.3 30.7,-6.5 8.6,-1.2 19.2,-1.7 37,-1.7 22.6,-0.1 26,0.1 35.5,2.2 21.3,4.7 34.8,11.3 45.9,22.3 10.1,10 16.3,21.7 19.7,37 2.6,11.6 2.4,38 -0.4,48.5 -4.1,16.1 -11.3,28.4 -22.8,39.5 -14.1,13.4 -29.4,21.1 -51.9,26 -9.1,1.9 -37.6,4.1 -71.6,5.5 l -17.7,0.7 z m 51.4,0.1 c 34.4,-2.2 48.9,-6.1 67.8,-18.1 15.1,-9.7 26.4,-25.1 31.3,-43.1 2.9,-10.4 2.9,-26.4 0,-37.6 -4.9,-18.8 -17.1,-33.8 -34.2,-42.1 -24.3,-11.7 -54,-13.5 -97.6,-6 -7.3,1.3 -9.3,2 -9.3,3.3 0,0.9 0.5,14.9 1,31.1 0.5,16.2 1.4,44.8 2,63.5 0.5,18.7 1.2,37.8 1.6,42.5 l 0.6,8.5 7.1,-0.3 c 4,-0.2 17.3,-0.9 29.7,-1.7 z"
       id="path12" />
    <path
       d="m 1041.6,272.9 c -0.5,-8.9 -2.6,-75.6 -2.6,-84.8 v -5.4 l 14.3,0.6 c 39.7,1.8 63.7,17.4 70.2,45.4 3,13.2 2.6,42.4 -0.6,44.4 -0.7,0.4 -5.7,1.6 -11.3,2.8 -9.8,2 -24.9,3.3 -54.7,4.7 l -14.7,0.7 z m 50.4,-4.8 c 5.2,-0.5 11.8,-1.4 14.5,-2 9.3,-2.1 8.5,-0.7 8.5,-14.9 0,-14.8 -1.8,-23 -7.1,-31.8 -8.8,-14.7 -29.2,-24.6 -52.4,-25.5 l -6,-0.3 0.1,6.5 c 0.8,36.5 1.7,67.7 2,68.8 0.4,1.2 3.1,1.3 15.7,0.7 8.3,-0.4 19.5,-1.1 24.7,-1.5 z"
       id="path14" />
    <path
       d="m 1339.3,533.3 -8.1,-0.4 -0.6,-7.2 c -0.3,-4 -1,-23.4 -1.6,-43.2 -0.6,-19.8 -1.5,-49.3 -2,-65.5 -1.5,-45.7 -2.9,-89.5 -4,-124 -1.9,-60.3 -3.1,-97.7 -4,-125.5 -2.1,-61.4 -3.3,-105.5 -2.9,-105.9 1.3,-1.2 41.5,-8.4 64.4,-11.4 42.6,-5.7 55.9,-6.7 97,-6.7 37.7,0 43.1,0.3 66,4.1 60.6,9.8 108.1,38.9 138.9,85.1 15.4,23.2 26.8,52.6 32.1,82.8 4.6,26.5 5.9,67.8 3,95.6 -9.6,90.9 -55.5,158 -131.4,191.9 -38.5,17.3 -82.8,26.7 -140,30 -16.7,0.9 -86.4,1.1 -106.8,0.3 z M 1441,519 c 26.9,-1.6 48.3,-4.1 68.1,-8 8.6,-1.7 12.9,-2.8 28.4,-7 23.3,-6.3 52.2,-19.1 71.1,-31.5 18.8,-12.3 36.3,-28.6 49.6,-46.3 31.1,-41.6 46.8,-92.6 46.8,-152.2 0,-51.7 -11.9,-95.9 -35.3,-131 -17.6,-26.5 -43.6,-49 -72.4,-62.7 -48,-22.8 -106,-28.3 -194.3,-18.3 -19.7,2.2 -64.9,9.6 -71.2,11.6 -1.7,0.5 -1.8,1.5 -1.3,12.7 0.3,6.7 1,27.1 1.5,45.2 0.6,18.2 1.5,46.5 2,63 0.5,16.5 1.4,44.6 2,62.5 0.6,17.9 1.5,46 2,62.5 0.5,16.5 1.4,44.9 2,63 0.6,18.2 1.5,45.6 2,61 0.5,15.4 1.3,38.7 1.6,51.7 l 0.7,23.7 3.1,0.4 c 6.8,0.8 78.1,0.6 93.6,-0.3 z"
       id="path16" />
    <path
       d="m 1402.4,477.3 c -7.5,-0.5 -7.4,-0.2 -7.4,-16.3 0,-6.3 -0.4,-23.2 -1,-37.5 -0.5,-14.3 -1.4,-41.3 -2,-60 -0.6,-18.7 -1.5,-47.5 -2,-64 -0.5,-16.5 -1.4,-44.6 -2,-62.5 -1.8,-57.5 -3,-92.1 -3.6,-110.6 l -0.6,-18.2 8.8,-2 c 23.7,-5.4 50.3,-8.2 79.4,-8.2 57.9,0 99.1,13.4 129.5,42.2 25.1,23.7 39.8,54.9 46.2,97.8 2.1,14.6 2.5,62.8 0.5,76.5 -7.1,48.5 -21.8,81.1 -49.2,108.5 -33.8,33.8 -78.2,50.4 -144.2,53.9 -18.5,1 -38.5,1.2 -52.4,0.4 z m 46.7,-14.3 c 42.1,-2.4 71.8,-9.3 98.8,-23 9.1,-4.5 7.4,-4.5 -2.6,0.1 -29.6,13.6 -64.8,19.9 -112.1,19.9 -15.3,0 -20.4,-0.3 -20.7,-1.2 -0.2,-0.7 -0.8,-19.1 -1.5,-40.8 -1,-38.1 -1.8,-61.3 -4,-129 -0.5,-17.3 -1.4,-46.1 -2,-64 -0.5,-17.9 -1.3,-38.9 -1.6,-46.7 l -0.7,-14.3 h 22 c 13.6,0 26.2,0.6 33.2,1.5 37,4.9 64.4,17.1 85.4,38.2 21.2,21.1 33.1,47.8 38.8,86.8 2.1,14.1 1.8,62 -0.5,76.5 -3.5,22.3 -10.3,44.3 -18.4,59.2 -2,3.7 -3.9,6.8 -4.2,6.8 -0.3,0 -1.5,0.7 -2.6,1.5 -4.7,3.8 4.5,-1.5 12.1,-7 36.2,-26 57.5,-63.6 65.1,-115.5 2.1,-13.9 2.4,-52 0.6,-65 -5,-35.4 -15.4,-61 -34,-84.2 -18.1,-22.4 -47.5,-39.2 -81.2,-46.3 -21.8,-4.6 -50.4,-5.7 -77.9,-3 -14.1,1.4 -36.1,4.8 -40.5,6.1 -2.3,0.8 -2.3,1.8 2.4,143.4 0.6,16.8 1.5,44.7 2,62 0.6,17.3 1.4,45.2 2,62 0.5,16.8 1.3,40.7 1.6,53.2 0.7,22 0.8,22.7 2.8,23.1 4.1,0.8 19.6,0.7 37.7,-0.3 z m 15.4,-14.5 c 29.7,-2.7 44.9,-6.1 65.8,-14.4 10.6,-4.2 18.8,-8.5 20.9,-10.8 2.1,-2.3 8.8,-16.6 11.6,-24.8 4,-11.5 6.7,-23.6 9.3,-41 1.5,-10.2 1.5,-50.4 -0.1,-61.5 -5,-37.2 -16.4,-63.4 -36.5,-83.6 C 1510.7,187.3 1473.1,174 1427.3,174 H 1414 v 4.3 c 0.1,5 1.6,55.2 3,100.2 1.9,57.6 2.9,91.4 3.9,127.5 0.6,19.5 1.3,37.4 1.6,39.8 l 0.6,4.2 h 12.7 c 7,0 19.9,-0.7 28.7,-1.5 z"
       id="path18" />
    <path
       d="m 1841,510.6 c -33.2,-3.9 -62.5,-12.5 -80.7,-23.8 -2.9,-1.7 -3.3,-2.5 -3.3,-6.2 0,-2.3 0.9,-7.3 1.9,-11.1 2.3,-8.2 8.2,-30.6 12,-45.5 2.7,-10.4 2.7,-10.5 6,-10.8 2.2,-0.2 5.4,0.8 10.7,3.7 19.4,10.5 38.2,17 60.9,21.2 15.5,2.9 42.5,3.2 55.4,0.6 41.7,-8.4 66.5,-33.8 66.4,-68.2 0,-36 -23.8,-58.9 -80.3,-77.3 -29.9,-9.8 -41,-14.2 -57,-22.5 -41.3,-21.5 -65.4,-50.3 -73.5,-87.7 -2.2,-10.4 -3.1,-35.7 -1.6,-47.2 4,-30.4 15.3,-53.2 37,-74.8 26.8,-26.6 59.5,-41 104.1,-45.6 43.1,-4.4 86.6,1.4 117.8,15.7 l 8.2,3.8 v 4.3 c 0,2.5 -3.7,16.8 -9.2,35.1 l -9.1,30.7 h -4 c -2.6,0 -7.4,-1.6 -13.6,-4.4 -12.8,-5.8 -26.5,-10.1 -40.8,-12.7 -16.1,-3 -38.9,-3 -51.9,-0.1 -29,6.5 -46.8,20.4 -55.2,43.1 -4.6,12.3 -2.8,29.6 4.3,42.4 10.1,18 32.2,31.2 79.7,47.6 39.9,13.7 62.8,25.1 82,40.9 28.3,23.2 41.8,49.9 44.9,89.3 4.6,55.9 -17.4,102.2 -62.1,131.1 -10.7,7 -16.5,9.9 -30.4,15.3 -12.3,4.8 -30.7,9.5 -46.6,12 -14.3,2.3 -56.4,2.9 -72,1.1 z m 57,-14 c 25.4,-2.9 45.7,-8.5 65.5,-18 18.8,-9.1 31.9,-19 44.8,-33.6 32.8,-37.4 39.6,-91.8 17,-136.5 -16,-31.5 -51.5,-55.5 -111.3,-75 -12.7,-4.1 -31.9,-11.9 -42.3,-17.1 -26.3,-13.2 -41.3,-30.1 -45.8,-51.4 -2.2,-10.4 -1.8,-29.9 0.9,-39.4 7.2,-25.2 27.7,-43.3 57.2,-50.4 12.4,-3.1 17.7,-3.6 36.5,-3.6 26.6,0 44.9,3 66.3,11.1 5.2,1.9 9.5,3.3 9.6,3.1 0.6,-0.9 11.6,-38.9 11.6,-40.2 0,-2.5 -20.5,-9.7 -37.5,-13.1 -10.3,-2.1 -32.9,-4.5 -42.5,-4.5 -29.3,0 -62.3,7.2 -85,18.5 -27.5,13.7 -49,34.8 -60.8,59.6 -6.6,14 -11.2,33.6 -11.2,48 0,13.9 5,34.9 11.2,47.4 12.8,25.4 41.1,49.1 75.8,63.5 4.1,1.7 8.4,3.5 9.5,4 1.1,0.6 11.9,4.3 24,8.4 26.4,8.8 27.8,9.4 42.7,16.8 31.1,15.5 46,34.2 49.8,62.1 3.8,28.9 -3.2,52.8 -20.5,70.2 -20.7,20.8 -49.4,29.6 -92.5,28.2 -30.1,-1 -56.6,-7.1 -81.8,-18.9 -2.3,-1.2 -4.5,-1.8 -4.8,-1.5 -0.3,0.3 -2.8,9 -5.5,19.4 -2.7,10.3 -5.2,19.5 -5.5,20.4 -0.3,1.2 1,2.3 4.8,4.2 32.6,15.8 78.9,22.9 119.8,18.3 z"
       id="path20" />
    <path
       d="m 1267,468.3 c -0.6,-2.1 -5.8,-21 -11.6,-42.1 -11.5,-41.9 -14.1,-49.8 -21.4,-64.7 -7,-14.3 -14.1,-24.6 -24.2,-35 -7,-7.2 -8.8,-9.6 -8.8,-11.9 0,-2.5 2.4,-5.4 13.8,-17 17.6,-17.9 26.7,-30.3 34.1,-46 3.9,-8.4 9,-24.9 10.2,-32.9 l 1.1,-7.7 h 3.3 3.2 l 0.7,15.8 c 0.3,8.6 1.1,29.9 1.6,47.2 0.6,17.3 1.5,45 2,61.5 1.1,34.1 2.7,82.7 3.7,114.8 l 0.6,21.7 h -3.6 c -3.3,0 -3.7,-0.3 -4.7,-3.7 z m -4.4,-75 c -0.9,-17.3 -2.4,-64.9 -3.2,-101.8 -0.3,-14.3 -0.9,-27.3 -1.3,-28.8 -0.6,-2.7 -0.8,-2.5 -5,5 -6.6,11.5 -14.9,22.1 -27.8,35 l -11.4,11.5 6.5,6.9 c 17.3,18.3 29.9,43.7 39.2,78.9 3.2,12.2 3.8,10.8 3,-6.7 z"
       id="path22" />
  </g>
  <g
     fill="#efb92d"
     id="g36"
     transform="translate(-60.031347,-0.64776721)">
    <path
       d="m 316,581.5 c -38.7,-4.8 -77,-20.3 -104.9,-42.5 -14.8,-11.8 -31,-29.5 -40.9,-45 -12.9,-20 -24.8,-49.1 -30.6,-75 -7.5,-34 -8.7,-80.3 -3,-114.5 12.7,-75 56.7,-135.6 122.4,-168.6 35.5,-17.9 69.4,-25.6 115.8,-26.6 27.9,-0.6 43.1,0.4 62.8,4.2 13.3,2.6 34.4,9.2 34.4,10.8 0,0.5 -2.7,11.5 -6,24.3 -3.3,12.8 -6,23.4 -6,23.6 0,0.2 -5.1,-1.3 -11.2,-3.3 -22.2,-7.4 -42.4,-10.3 -69.3,-10.3 -57.7,0.2 -102.9,17.8 -137,53.5 -23.8,25 -38.7,57.2 -45,97.9 -2.3,14.3 -3.1,49.1 -1.5,64.4 6.2,60.7 29.9,105.2 70.5,132.3 21,14 45.1,22.1 75.3,25.4 13.7,1.4 42,0.7 57.2,-1.5 23.1,-3.5 49.9,-10.9 64.9,-18.1 4.1,-2 7.7,-3.2 8.1,-2.8 0.4,0.4 2.3,6.4 4.3,13.3 1.9,6.9 4.7,16.3 6.1,21 1.4,4.7 2.6,9.1 2.6,9.8 0,1.7 -14,8.2 -27.1,12.6 -33.4,11.2 -69.9,16.6 -109.9,16.5 -11.8,-0.1 -26.2,-0.7 -32,-1.4 z"
       id="path26" />
    <path
       d="m 531.7,555.4 c 1.9,-6.5 4.8,-16.4 6.4,-21.9 1.7,-5.5 4.3,-14.3 5.9,-19.5 1.5,-5.2 9.2,-30.6 17,-56.5 7.8,-25.8 15.5,-51.3 17,-56.5 3.2,-10.6 7.5,-25 11.9,-39.7 3.8,-12.5 8.5,-28.2 12.1,-40.3 1.5,-5.2 11.9,-39.6 23,-76.5 11.1,-36.9 21.5,-71.5 23.2,-77 1.6,-5.5 4.3,-14.4 5.9,-19.7 6.6,-22 9.2,-30.7 11.6,-38.9 l 2.5,-8.7 12.7,-0.6 c 6.9,-0.4 19.8,-1.1 28.6,-1.6 8.8,-0.5 19.1,-1 23,-1.1 l 6.9,-0.2 3.9,9.9 c 2.2,5.4 5.2,13.3 6.7,17.4 1.5,4.1 4.7,12.5 7,18.5 2.3,6.1 5.5,14.4 7,18.5 1.5,4.1 4.7,12.5 7,18.5 2.3,6.1 5.5,14.4 7,18.5 1.5,4.1 4,10.7 5.5,14.5 1.5,3.9 4,10.4 5.5,14.5 1.6,4.1 6,16.1 10,26.5 4,10.5 8.5,22.4 10,26.5 1.5,4.1 3.3,8.9 4,10.5 0.7,1.7 2.5,6.4 4,10.5 1.5,4.1 6,16.1 10,26.5 4,10.5 8.5,22.4 10,26.5 1.5,4.1 4.6,12.2 6.8,18 5.8,15.2 17.9,47.3 21.2,56 1.5,4.1 4.6,12.2 6.8,18 6.6,17.4 18.2,48 21.2,56 1.5,4.1 5.1,13.6 8,21 2.8,7.4 6,15.8 7,18.6 l 1.8,5.1 -23.7,1.2 c -13,0.7 -27.1,1.4 -31.5,1.5 l -7.8,0.1 -9.8,-26 c -12.5,-33.4 -41.6,-110.4 -42.6,-112.9 -0.7,-1.8 -1.6,-1.9 -16.3,-1.2 -8.6,0.3 -23.7,1.1 -33.6,1.6 -23.6,1.3 -49.1,2.7 -75,4.1 -11.5,0.6 -24.7,1.4 -29.4,1.7 l -8.4,0.7 -1.8,6 c -0.9,3.3 -4.9,16.8 -8.7,30 -3.9,13.2 -11.2,38.2 -16.2,55.5 -5.1,17.3 -10.7,36.6 -12.5,42.8 -1.8,6.2 -3.5,11.5 -3.8,11.8 -0.4,0.5 -13.6,1.3 -47.4,3 l -13.1,0.7 z M 668.5,369 c 17.2,-1 41.2,-2.3 74,-4 9.9,-0.5 22.3,-1.3 27.7,-1.6 l 9.6,-0.6 -3.3,-9.2 c -1.9,-5 -8.4,-22.4 -14.5,-38.6 -39.7,-104.8 -41.3,-109.2 -53.1,-149.9 -3.7,-13 -4.4,-14.9 -5.3,-14 -0.3,0.2 -2.5,9.6 -5.1,20.9 -7.3,32.4 -14.5,59.7 -26.3,99 -6.1,20.1 -12.2,40.6 -13.7,45.5 -1.5,5 -3.9,13.3 -5.5,18.5 -5.3,17.6 -10,33.9 -10,34.4 0,0.8 5.8,0.7 25.5,-0.4 z"
       id="path28" />
    <path
       d="m 976.6,526.9 c -0.3,-9 -1,-30.8 -1.6,-48.4 -0.6,-17.6 -1.5,-45.7 -2,-62.5 -0.5,-16.8 -1.4,-45.1 -2,-63 -1.1,-35.6 -2.4,-75.9 -4,-126 -0.6,-17.9 -1.5,-45.1 -2,-60.5 -0.5,-15.4 -1.2,-38.9 -1.6,-52.1 l -0.7,-24.1 7.4,-1.7 c 38.4,-8.7 85.8,-13.9 127.4,-13.9 29.4,-0.1 41.5,1.1 60.5,5.9 47.3,11.9 76.9,41.5 86.6,86.6 2.3,10.4 2.6,42.9 0.6,52.3 -3.6,16.3 -11.2,34.1 -19.9,46.4 -6.8,9.5 -22.5,24.8 -32.3,31.3 -4.7,3.1 -12.8,7.7 -18,10.3 -5.2,2.5 -9.5,5 -9.5,5.6 0,0.6 2,1.9 4.5,2.8 16.7,6.4 28.8,15.7 40.2,30.9 6.1,8.1 16.9,30.1 20.7,42.2 1.7,5.2 6,20.5 9.6,34 13.4,49.4 22.6,79.1 29.5,95.1 l 3.7,8.7 -8.1,0.6 c -9.2,0.7 -44.4,2.6 -49.4,2.6 -3.1,0 -3.5,-0.4 -6.3,-6.7 -5.9,-13 -16,-46 -25.9,-83.8 -11.9,-45.7 -18,-60.4 -31.7,-77.2 -8.1,-9.9 -22.4,-18 -37.3,-21.1 -17,-3.6 -28.2,-3.7 -75.2,-0.6 l -9.8,0.7 v 9 c 0,8.6 2.8,100.4 5,161.1 0.5,15.4 0.8,28.1 0.6,28.3 -0.1,0.2 -9,0.7 -19.7,1.3 -10.7,0.5 -23.7,1.3 -29,1.6 l -9.7,0.7 z m 102.9,-233.5 c 30.2,-1.8 44.9,-5 61.5,-13.4 18.1,-9.1 32.4,-23.7 40.2,-40.7 5.2,-11.6 7.1,-21.2 7.1,-36.3 -0.1,-25.7 -6.6,-43.1 -21.4,-57.9 -11.1,-11 -24.6,-17.6 -45.9,-22.3 -9.3,-2 -13,-2.3 -32.5,-2.2 -14.8,0 -25.9,0.6 -34,1.7 -15.4,2.2 -29.4,5.2 -30.7,6.5 -0.7,0.7 -0.7,12 0.1,37.9 0.6,20.2 1.6,50.3 2.1,66.8 0.5,16.5 1.2,37.4 1.6,46.4 l 0.7,16.3 14.1,-0.6 c 7.7,-0.4 24.5,-1.4 37.1,-2.2 z"
       id="path30" />
    <path
       d="m 1344.4,522.3 -3.1,-0.4 -0.7,-23.7 c -0.3,-13 -1.1,-36.3 -1.6,-51.7 -0.5,-15.4 -1.4,-42.8 -2,-61 -0.6,-18.1 -1.5,-46.5 -2,-63 -0.5,-16.5 -1.4,-44.6 -2,-62.5 -0.6,-17.9 -1.5,-46.4 -2,-63.5 -0.6,-17 -1.5,-44.9 -2,-62 -0.5,-17 -1.2,-38.3 -1.6,-47.2 -0.5,-15.3 -0.5,-16.1 1.4,-16.7 6.3,-2 51.4,-9.4 71.2,-11.6 39.1,-4.4 83.5,-6.1 108.2,-4.2 47.8,3.9 84.1,15.1 115,35.5 12.2,8 29.7,23.9 39,35.4 20,24.6 33.4,53.8 40.3,87.9 7.7,38 7.3,88.9 -1,126.4 -13,58.4 -44.5,106 -89.9,135.5 -18.9,12.4 -47.8,25.2 -71.1,31.5 -15.5,4.2 -19.8,5.3 -28.4,7 -19.8,3.9 -41.2,6.4 -68.1,8 -15.5,0.9 -92.8,1.1 -99.6,0.3 z m 107.4,-48.4 c 66,-3.5 110.4,-20.1 144.2,-53.9 27.4,-27.4 42.2,-60.1 49.2,-108.5 1.9,-13.5 1.6,-56 -0.6,-70.5 -6.3,-42.8 -21,-74.1 -46.1,-97.8 C 1568.7,115 1526.7,101 1472,101 c -26.1,0 -53.6,2.9 -76.3,8.2 l -8.9,2 0.6,14.2 c 0.4,7.7 1.1,28.3 1.6,45.6 1,32.2 2.3,72.4 4,125.5 0.5,16.5 1.4,45.3 2,64 0.6,18.7 1.5,45.7 2,60 0.6,14.3 1,31.2 1,37.5 0,16.1 -0.1,15.8 7.4,16.3 13.6,0.7 27.7,0.6 46.4,-0.4 z"
       id="path32" />
    <path
       d="m 1842.5,499.5 c -22.7,-2.7 -38.4,-6.4 -56.5,-13.5 -7.3,-2.9 -15.9,-7.1 -16.6,-8.1 -0.2,-0.4 2,-10.4 5.1,-22.1 6.1,-23.3 7.4,-27.8 8.1,-27.8 0.3,0 2.4,1 4.7,2.3 21.2,11.7 54.5,20.2 83.7,21.4 53.1,2.1 91.2,-16.8 105.6,-52.6 1.3,-3.3 3.2,-10.6 4.1,-16.2 2.9,-17.6 -0.4,-36.8 -8.7,-51 -8.2,-14 -20.9,-24.8 -40.8,-34.7 -14.9,-7.4 -16.3,-8 -42.7,-16.8 -12.1,-4.1 -22.9,-7.8 -24,-8.4 -1.1,-0.5 -5.4,-2.3 -9.5,-4 -34.7,-14.4 -63,-38.1 -75.8,-63.5 -9.7,-19.4 -13.4,-46 -9.6,-69.8 4,-25.3 14.9,-46.3 33.9,-65.2 24.9,-25 59.7,-39.7 102.5,-43.5 28.5,-2.5 59.4,0.3 84,7.6 9.2,2.8 23,8.2 23,9.1 0,1 -14,47.7 -14.4,48.1 -0.3,0.2 -5.1,-1.4 -10.8,-3.6 -22.8,-8.9 -41.7,-12.5 -66.8,-12.5 -16.3,0 -22,0.5 -34,3.5 -17.8,4.3 -31.2,11.8 -42.2,23.7 -11.5,12.4 -17.1,26.9 -17.2,44.1 -0.2,30.1 14.4,51 47.1,67.4 10.4,5.2 29.6,13 42.3,17.1 73.8,24.1 110,54.3 121,101 10,42.5 0,86.1 -26.7,116.5 -25.4,28.9 -62.2,46.1 -110.3,51.6 -15.2,1.7 -43.5,1.6 -58.5,-0.1 z"
       id="path34" />
  </g>
  <g
     fill="#383838"
     id="g92"
     transform="translate(-60.031347,-0.64776721)">
    <path
       d="m 1916,414.8 c -2.1,-15 -6.8,-26.8 -13.5,-34.2 -1.9,-2.1 -3.5,-4.2 -3.5,-4.6 0,-0.4 1.6,-1.8 3.5,-3.1 1.9,-1.3 3.5,-2.7 3.5,-3 0,-0.4 2.8,-3.4 6.3,-6.8 3.4,-3.3 6.7,-6.6 7.2,-7.2 0.6,-0.6 2.3,-2.3 3.9,-3.7 1.5,-1.5 4.7,-4.7 7,-7.2 2.2,-2.4 5.4,-5.6 7,-7 1.5,-1.4 3.3,-3.1 4,-3.8 4.2,-5.1 5.7,-5.9 11.8,-6.5 7.1,-0.6 7.6,-0.3 13.2,10.3 3.4,6.6 5.9,15.2 7.1,24.8 l 0.7,5.2 h -3.6 c -3.3,0 -5.2,1.6 -27,23.5 -15.3,15.3 -24.2,23.5 -25.6,23.5 -1.1,0 -2,-0.1 -2,-0.2 z"
       id="path38" />
    <path
       d="m 1569.5,402.3 c 2.1,-5.5 6.6,-23.5 8.1,-32.3 l 1.7,-10.3 22.2,-22.3 22.3,-22.4 h 6.1 6.1 v 3.3 c 0,3.8 -3.2,18.4 -6.1,28.5 -2.2,7.1 -2.2,7.2 -5.6,7.2 -3.1,0 -5.5,2.1 -26.8,23.4 -12.9,12.9 -23.5,24.2 -23.5,25 0,1.1 -0.9,1.6 -2.6,1.6 -2.1,0 -2.5,-0.4 -1.9,-1.7 z"
       id="path40" />
    <path
       d="m 1269.6,382.8 c -1,-13.4 -1.5,-34.8 -0.8,-34.8 0.4,0 1.6,-1.4 2.7,-3 1.1,-1.6 2.5,-3 3.2,-3 0.6,0 2.4,-1.8 4,-4 1.5,-2.2 3.4,-4 4.1,-4 0.7,0 2.1,-1.3 3,-3 0.9,-1.6 2.6,-3.4 3.7,-4 1.1,-0.6 2.9,-2.4 4,-4 1.1,-1.7 2.5,-3 3.2,-3 0.6,0 2.4,-1.8 4,-4 1.5,-2.2 3.4,-4 4.1,-4 0.7,0 2,-1.3 3,-2.9 2.4,-4.3 6.2,-6.1 12.5,-6.1 h 5.5 l 0.6,7.3 c 0.3,3.9 0.8,12.9 1.1,20 l 0.5,12.7 h -3.8 c -3.8,0 -4.8,0.9 -27.4,23.5 -12.9,12.9 -24.2,23.5 -25.1,23.5 -1.2,0 -1.6,-1.6 -2.1,-7.2 z"
       id="path42" />
    <path
       d="m 903.7,358.3 c -1.1,-25.2 -1.1,-25.8 1.6,-27.2 1.2,-0.6 3.1,-2.5 4.2,-4.2 1.1,-1.6 2.7,-3.1 3.6,-3.4 0.9,-0.3 2.7,-2.1 4,-4 1.3,-1.9 3.2,-3.6 4.1,-3.8 1,-0.3 2.2,-1.6 2.7,-2.9 0.5,-1.3 2,-2.9 3.3,-3.6 1.3,-0.7 3.2,-2.6 4.3,-4.3 1.1,-1.6 2.7,-3.1 3.6,-3.4 0.9,-0.3 2.7,-2.1 4,-4 1.3,-1.9 3,-3.5 3.7,-3.5 0.7,0 2.1,-1.3 3,-3 1.6,-2.8 2.1,-3 7.9,-3 3.4,0 6.4,0.4 6.7,0.9 0.3,0.5 0.9,9.5 1.3,20 l 0.6,19.1 h -3.6 c -3.4,0 -5.1,1.5 -26.6,23 -17.3,17.3 -23.5,23 -25.4,23 h -2.4 z"
       id="path44" />
    <path
       d="m 2049.6,359.8 c -0.7,-10.9 -1.8,-20.8 -3.2,-27.5 -0.6,-2.9 -0.4,-3.3 1.5,-3.3 1.2,0 2.1,0.6 2.1,1.5 0,0.8 0.5,1.5 1,1.5 0.6,0 1,-0.7 1,-1.6 0,-0.9 0.7,-1.4 1.7,-1.2 2.4,0.4 4,9.8 4.9,27.6 l 0.7,14.2 h -4.5 -4.5 z"
       id="path46" />
    <path
       d="m 1706,354.8 c 1,-3.5 2.9,-12.6 4.4,-20.3 1.5,-7.7 2.9,-15 3.2,-16.2 0.5,-2.5 3.4,-3.2 3.4,-0.8 0,0.8 0.5,1.5 1,1.5 0.6,0 1,-0.9 1,-2 0,-1.4 0.7,-2 2.1,-2 1.9,0 2,0.4 1.4,5.3 -0.7,5.6 -5,28.3 -6.3,33.2 -0.6,2.3 -1.5,3.1 -3.6,3.3 -1.8,0.2 -3,1.1 -3.3,2.3 -0.3,1.2 -1.4,1.9 -2.8,1.9 h -2.2 z"
       id="path48" />
    <path
       d="m 543.6,342.2 c 2.9,-9.8 5.9,-19.5 6.6,-21.6 0.9,-2.7 7.3,-9.7 22.7,-25.1 L 594.3,274 h 6.2 c 3.4,0 6.4,0.2 6.7,0.5 0.3,0.3 -2.3,9.9 -5.8,21.3 -3.5,11.4 -6.4,21 -6.4,21.5 0,0.4 -0.7,0.7 -1.5,0.7 -0.9,0 -1.5,-0.9 -1.5,-2.5 0,-1.4 -0.4,-2.5 -0.9,-2.5 -0.5,0 -11.4,10.6 -24.3,23.5 -18.3,18.3 -24,23.5 -26,23.5 h -2.5 z"
       id="path50" />
    <path
       d="m 688.5,352.1 c -2.7,-0.6 -2.8,-0.7 -0.8,-1.3 2.1,-0.6 2.1,-0.7 -2.3,-12.4 -2.5,-6.4 -4.1,-12 -3.7,-12.3 0.5,-0.3 1.6,-1.8 2.6,-3.3 1,-1.6 2.4,-2.8 3.2,-2.8 0.8,0 2.1,-1.3 2.9,-2.8 0.8,-1.5 2.5,-3.4 3.9,-4.1 1.4,-0.7 2.9,-2.4 3.5,-3.6 0.6,-1.3 2.4,-3.1 3.9,-4 1.6,-0.9 3.6,-3 4.5,-4.6 1,-1.6 2.4,-2.9 3.2,-2.9 0.9,0 2.2,-1.3 3.1,-3 0.8,-1.6 2.8,-3.6 4.4,-4.5 1.6,-0.8 3.2,-2.3 3.6,-3.4 0.3,-1.1 1.8,-2.7 3.3,-3.7 1.5,-0.9 3.1,-2.3 3.5,-3.1 0.9,-1.4 4.6,-1.7 9.6,-0.7 2.4,0.5 3.5,1.5 4.7,4.3 2.2,5.1 13.4,35.1 13.4,35.8 0,0.3 -1.8,0.3 -4,-0.1 l -4,-0.6 -16.4,16.3 -16.4,16.4 -8.4,0.6 c -9.5,0.8 -13.1,0.7 -17.3,-0.2 z"
       id="path52" />
    <path
       d="m 1408,347 c 0,-1.6 -0.7,-2 -3,-2 h -3 v -17.2 c 0,-9.5 -0.3,-18.3 -0.6,-19.5 -0.6,-2.2 -0.3,-2.3 4.5,-2.3 h 5.1 v 6.3 c 0,3.5 0.3,13.2 0.7,21.5 0.6,15.1 0.6,15.2 -1.5,15.2 -1.5,0 -2.2,-0.6 -2.2,-2 z"
       id="path54" />
    <path
       d="m 73,339.7 c 0,-3.1 6.1,-25.1 9.5,-34.6 2.7,-7.4 3.1,-7.8 23.6,-28.3 L 126.9,256 h 7 c 3.9,0 7.1,0.2 7.1,0.3 0,0.2 -0.9,3 -2,6.3 -1.2,3.2 -3.6,11.8 -5.5,18.9 l -3.3,13 -3.3,0.3 c -2,0.2 -4.4,1.5 -6,3.1 -1.4,1.5 -3.3,3.1 -4.3,3.4 -0.9,0.4 -1.6,1.1 -1.6,1.7 0,1.4 -10.1,11.4 -12.3,12.3 -0.9,0.3 -1.7,1.2 -1.7,1.8 0,1.4 -4.1,5.3 -6.4,6.2 -0.9,0.4 -1.6,1.2 -1.6,1.8 0,1.4 -10,11.3 -12.4,12.2 -0.9,0.4 -1.6,1.3 -1.6,2.1 0,0.7 -0.7,1.7 -1.6,2 -3,1.2 -4.4,0.6 -4.4,-1.7 z"
       id="path56" />
    <path
       d="m 1208.9,332.7 c -5.4,-6.1 -16.8,-15.2 -22.8,-18.2 l -3.3,-1.7 5.8,-3.5 c 3.3,-1.9 8.5,-5.3 11.8,-7.5 5.6,-3.8 6.1,-4 11.2,-3.3 3,0.3 5.4,1.2 5.4,1.8 0,0.6 -3,4.1 -6.6,7.8 l -6.5,6.6 6.4,6.2 c 3.6,3.4 8.6,8.9 11.2,12.2 l 4.6,5.9 -5.9,-0.2 c -5.9,-0.3 -6.1,-0.4 -11.3,-6.1 z"
       id="path58" />
    <path
       d="m 1804.5,334.6 c -19.5,-8.2 -35.5,-17 -48.4,-26.6 -8.4,-6.2 -22.8,-19.9 -27.4,-26 l -2.7,-3.5 v 3 c 0,2.6 -0.5,3.2 -4,4.3 -2.2,0.6 -4.4,1.2 -5,1.2 -0.6,0 -1,-5.9 -1,-16.2 0,-29.5 -3.9,-55.5 -12.6,-85.6 -0.6,-2.1 -0.4,-2.2 5.4,-2.2 4,0 6.6,0.5 7.6,1.5 0.8,0.8 2.6,6.8 4.1,13.2 1.5,6.5 2.9,12.4 3.1,13.1 0.3,0.9 1.4,0.4 3.5,-1.7 1.7,-1.7 3.4,-3.1 3.8,-3.1 0.4,0 1.3,-1.1 1.9,-2.5 0.6,-1.4 1.7,-2.5 2.4,-2.5 0.7,0 2.2,-1.1 3.3,-2.5 1.1,-1.4 4.4,-5 7.3,-8 l 5.3,-5.5 h 6.2 6.2 l 2.4,7.3 c 10.3,31.5 33.4,56.3 70.1,75.4 14.7,7.7 24.4,11.6 47.5,19.3 5.6,1.9 8.1,3.2 8.4,4.5 0.3,1.7 -0.5,1.8 -13.9,1.1 l -14.2,-0.6 -23.6,23.5 c -13,12.9 -24.1,23.5 -24.6,23.4 -0.6,0 -5.6,-1.9 -11.1,-4.3 z"
       id="path60" />
    <path
       d="m 1580.6,315.3 c -1.4,-32.8 -7.2,-57.2 -18.5,-78.9 l -4.8,-9.1 24.2,-24.1 c 22.8,-22.8 24.4,-24.2 27.8,-24.2 2.7,0 3.7,-0.4 3.7,-1.6 0,-6.2 10.2,12.7 15.4,28.6 6.9,21.2 9.2,34.7 10.3,61.1 l 0.6,15.9 h -4 c -2.7,0 -4.3,0.5 -4.7,1.5 -0.3,0.8 -1.1,1.5 -1.9,1.5 -1.5,0 -5.7,4.1 -5.7,5.6 0,0.5 -1,1.4 -2.2,1.9 -1.3,0.6 -2.9,2.2 -3.6,3.8 -0.7,1.5 -1.9,2.7 -2.6,2.7 -1.5,0 -5,3.7 -5.9,6.3 -0.4,0.9 -1.2,1.7 -2,1.7 -1.5,0 -5.7,4.1 -5.7,5.6 0,0.5 -1,1.4 -2.2,1.9 -1.3,0.6 -2.9,2.2 -3.6,3.8 -0.7,1.5 -1.9,2.7 -2.6,2.7 -1.5,0 -4.4,3 -6,6.3 -0.6,1.2 -2.1,2.3 -3.2,2.5 -2,0.3 -2.1,-0.3 -2.8,-15.5 z"
       id="path62" />
    <path
       d="M 833.6,322.1 C 832.9,321 819,284.2 819,283.5 c 0,-0.3 2.2,-0.5 4.9,-0.5 h 4.8 l 7.6,20 7.5,20 h -4.9 c -2.6,0 -5,-0.4 -5.3,-0.9 z"
       id="path64" />
    <path
       d="m 1266.6,296.3 c -1.1,-37.7 -2.8,-81.8 -3.1,-82.1 -0.1,-0.1 -0.8,3.2 -1.4,7.5 -1.4,9.7 -7,26.3 -12.4,37.1 -3.6,7.3 -4.4,8.2 -6.3,7.8 -1.3,-0.4 -2.9,0 -3.8,0.9 -0.8,0.8 -2.7,1.5 -4.1,1.5 h -2.7 l 2.1,-3.2 c 7.4,-11.2 14.7,-29.7 18.3,-46.3 1.6,-7.5 1.6,-43.1 0,-49.5 -0.6,-2.4 -0.9,-4.6 -0.7,-4.8 0.2,-0.3 3.3,-0.1 6.9,0.3 l 6.5,0.6 0.7,6.7 c 0.5,3.7 0.8,13.6 0.8,21.9 l 0.1,15.3 6.3,-6.3 c 3.5,-3.4 12.9,-12.8 21,-20.9 l 14.7,-14.8 h 6.1 6.2 l 0.6,12.3 c 0.8,15.7 2.6,72.8 2.6,83 v 7.8 l -4.2,-0.3 c -3.8,-0.3 -4.4,0 -5.6,2.5 -0.7,1.5 -1.9,2.7 -2.6,2.7 -1.6,0 -5.6,4.2 -5.6,5.8 0,0.7 -1.1,1.7 -2.5,2.2 -1.4,0.5 -2.9,2 -3.4,3.3 -0.5,1.3 -2.6,3.4 -4.5,4.5 -2,1.2 -3.6,2.7 -3.6,3.4 -0.1,0.7 -1.5,2.2 -3.3,3.3 -1.7,1.1 -3.8,3.3 -4.5,4.8 -0.7,1.5 -2,2.7 -2.7,2.7 -0.8,0 -2.5,1.6 -3.7,3.5 -1.3,1.8 -3.3,3.9 -4.6,4.4 -1.2,0.6 -2.5,1.8 -2.8,2.6 -0.4,0.8 -1.4,1.5 -2.4,1.5 -1.6,0 -1.8,-1.9 -2.4,-21.7 z"
       id="path66" />
    <path
       d="m 667,316.2 c 0,-0.5 2.7,-9.8 6,-20.7 3.3,-10.9 6,-20 6,-20.2 0,-0.2 0.7,-0.3 1.5,-0.3 0.8,0 1.5,0.7 1.5,1.5 0,1.1 1.1,1.5 4,1.5 3.7,0 4,0.2 4,2.7 0,1.5 -2.1,9.8 -4.7,18.4 -3.9,13.3 -5,15.9 -7,16.8 -2.8,1.3 -11.3,1.5 -11.3,0.3 z"
       id="path68" />
    <path
       d="m 213,300.7 c 0,-2 -0.4,-2.3 -2.9,-1.9 l -2.9,0.4 1.5,-6.3 c 1.8,-8 6.8,-23.4 9.4,-29.3 2.1,-4.8 3.9,-5.5 9.5,-3.8 2.1,0.7 2.1,0.9 -1.7,10.2 -2.1,5.3 -5.1,14.7 -6.8,21 -2,8.1 -3.4,11.6 -4.5,11.8 -1.1,0.2 -1.6,-0.4 -1.6,-2.1 z"
       id="path70" />
    <path
       d="m 901.6,291.3 c -0.5,-9.1 -2.1,-57.6 -2.7,-84.6 l -0.2,-7.7 22.9,-23 22.9,-23 h 6.3 6.2 v 7.3 c 0,7.7 1.5,53.8 2.6,80.6 l 0.7,16.3 -4.2,-0.7 c -2.7,-0.4 -4.1,-0.3 -4.1,0.4 0,0.6 -0.6,1.1 -1.3,1.1 -1.6,0 -5.7,4.2 -5.7,5.8 0,0.7 -1.1,1.7 -2.5,2.2 -1.4,0.5 -3,2.1 -3.5,3.4 -0.5,1.4 -2.3,3.2 -4,4.1 -1.7,0.9 -3.5,2.7 -4,4 -0.5,1.4 -1.6,2.5 -2.3,2.5 -1.6,0 -5.7,4.2 -5.7,5.8 0,0.7 -1.1,1.7 -2.5,2.2 -1.4,0.5 -3,2.1 -3.5,3.4 -0.5,1.4 -2.3,3.2 -4,4.1 -1.7,0.9 -3.5,2.7 -4,4 -0.7,1.9 -1.7,2.5 -3.9,2.5 h -2.9 z"
       id="path72" />
    <path
       d="m 2029.7,292.4 c -9.4,-14.2 -24.2,-28.2 -41.5,-39.1 -17.1,-10.8 -34.9,-18.7 -66,-29.4 -22.1,-7.6 -39.3,-14.9 -50.7,-21.2 -7.2,-4.1 -17,-11.2 -19.4,-14.1 -1.2,-1.4 -0.9,-1.6 2.3,-1.6 2,0 3.6,0.5 3.6,1 0,0.6 1.1,1 2.5,1 1.6,0 2.5,-0.6 2.5,-1.5 0,-1.1 1.7,-0.4 5.8,2.4 10.9,7.4 34.2,17.8 55.2,24.6 13,4.2 38.2,14.2 49.1,19.6 23.5,11.6 42.2,25.5 56,41.9 5.4,6.4 15.5,21.8 14.8,22.4 -0.2,0.2 -2.4,0.6 -4.9,0.8 l -4.5,0.5 z"
       id="path74" />
    <path
       d="m 573.7,242.3 c 7.9,-26.3 15.1,-50.2 15.9,-53.2 1.5,-5 3.2,-7 23,-26.8 L 634,141 h 6.9 6.9 l -1.5,5.3 c -0.9,2.8 -7.8,26 -15.4,51.4 -7.7,25.5 -13.9,46.5 -13.9,46.8 0,0.3 -0.7,0.5 -1.5,0.5 -0.8,0 -1.5,-0.9 -1.5,-2 0,-2.3 -2.6,-1.7 -5,1.2 -0.8,1.1 -2.6,2.4 -4,3.1 -1.4,0.7 -2.6,2.2 -2.8,3.4 -0.2,1.4 -1.2,2.3 -2.5,2.5 -1.2,0.2 -2.6,1.3 -3.2,2.6 -0.5,1.2 -1.3,2.2 -1.7,2.2 -0.5,0 -0.8,0.6 -0.8,1.4 0,0.8 -1,1.6 -2.2,1.8 -1.2,0.2 -2.9,1.6 -3.8,3.2 -0.9,1.7 -2.9,3.7 -4.6,4.6 -1.6,0.9 -3,2.6 -3.2,3.7 -0.2,1.3 -1.5,2.5 -3.3,3.2 -1.6,0.5 -2.9,1.7 -2.9,2.5 0,0.9 -0.4,1.6 -1,1.6 -0.5,0 -1,0.7 -1,1.5 0,0.8 -0.8,1.5 -1.8,1.5 -2.3,0 -5.2,3 -5.2,5.3 0,1.2 -0.9,1.7 -2.9,1.7 h -2.8 z"
       id="path76" />
    <path
       d="m 1406,276 c 0,-1.5 -0.7,-2 -2.8,-2 h -2.9 l -1.1,-36.2 c -0.7,-20 -1.5,-43.2 -1.8,-51.5 l -0.6,-15.3 h 4.5 4.5 l 0.6,6.8 c 0.3,3.7 1,23.4 1.6,43.7 0.5,20.4 1.2,41.4 1.6,46.8 0.5,9.3 0.5,9.7 -1.5,9.7 -1.4,0 -2.1,-0.6 -2.1,-2 z"
       id="path78" />
    <path
       d="m 1119.3,270.6 c 3.6,-2.7 4.4,-21.8 1.5,-37.1 -1,-5.5 -6,-17.7 -9,-21.7 -1,-1.5 -0.7,-2.2 2.5,-5.4 2,-2.1 3.7,-4 3.7,-4.4 0,-0.4 1.1,-1.3 2.5,-2 1.4,-0.7 2.5,-1.9 2.5,-2.6 0,-0.7 0.4,-1.4 0.9,-1.6 1,-0.3 11.9,-10.7 15.7,-14.9 1.2,-1.3 6,-6.1 10.6,-10.6 l 8.5,-8.3 h 6 6 l 3.1,6.7 c 4.9,10.7 6.5,19 6.5,34.3 0.1,11 -0.3,15 -2.1,21.3 -3.9,13.8 -11.4,26.1 -21.5,35.5 -3.8,3.4 -5.4,4.2 -8.5,4.2 -2.1,0 -4.3,-0.5 -4.9,-1.1 -0.8,-0.8 -1.4,-0.5 -2.2,1 -0.7,1.2 -2.1,2.1 -3.1,2.1 -1.1,0 -2.9,0.9 -4,2 -1.1,1.1 -2.9,2 -3.9,2 -1.1,0 -2.3,0.5 -2.6,1 -0.3,0.6 -2.7,1 -5.3,1 -4.2,-0.1 -4.5,-0.2 -2.9,-1.4 z"
       id="path80" />
    <path
       d="m 688,267.8 c 0,-1.8 1.3,-7.3 2.9,-12.3 l 2.8,-9 -2.7,-0.8 -2.8,-0.7 2.4,-8.8 c 1.4,-4.8 5.1,-18.9 8.2,-31.4 3.1,-12.6 6,-22.8 6.3,-22.8 0.3,0 2.7,6.9 5.3,15.3 2.6,8.3 7.6,23 11.1,32.5 l 6.2,17.2 h -4.9 c -4.3,0 -5.3,0.4 -8.8,3.9 -2.2,2.2 -4,4.4 -4,5 0,0.7 -1.1,1.6 -2.5,2.1 -1.4,0.5 -3.5,2.6 -4.6,4.5 -1.2,1.9 -2.7,3.5 -3.4,3.5 -0.8,0 -2.2,1.1 -3.3,2.5 -1.4,1.7 -3,2.5 -5.1,2.5 -2.8,0 -3.1,-0.3 -3.1,-3.2 z"
       id="path82" />
    <path
       d="m 100.6,265.3 c 6,-10.5 17.8,-27.3 25.8,-36.8 11.4,-13.6 72.1,-73.6 82.6,-81.7 16.5,-12.7 36.6,-25 37.9,-23 0.3,0.5 2.3,1.2 4.4,1.6 2,0.4 3.7,1.2 3.7,1.9 0,0.7 -3.3,3 -7.3,5.1 -16,8.8 -35.6,23.2 -49.8,36.8 -14.3,13.6 -33.8,38.8 -40.8,52.6 -2,3.9 -4.1,5.6 -4.1,3.1 0,-0.5 -1.3,-0.9 -3,-0.7 -2.3,0.2 -7.3,4.6 -24,21.2 -11.5,11.6 -21.2,21.8 -21.6,22.8 -0.3,1.2 -1.5,1.8 -3.5,1.8 h -3 z"
       id="path84" />
    <path
       d="m 1034.6,252.7 c -0.6,-7.3 -2.6,-75.5 -2.6,-87.4 V 157 h 6.1 6.1 l -0.4,6 c -0.2,3.3 -0.1,6 0.4,6 0.4,0 0.8,3.8 0.8,8.5 0,7.2 -0.2,8.5 -1.7,8.5 -1.4,0 -1.5,1.6 -1,16.3 0.4,8.9 1,25.3 1.3,36.4 l 0.7,20.1 h -4.6 -4.6 z"
       id="path86" />
    <path
       d="m 805.2,247.7 c -0.5,-1.7 -2.6,-7.2 -4.5,-12.2 -5.2,-13.5 -23.4,-61.4 -28.2,-74.5 -2.4,-6.3 -5,-13.2 -5.9,-15.2 L 765,142 h 2.5 c 1.8,0 2.5,0.5 2.5,1.9 0,1.7 0.5,1.9 3.3,1.5 l 3.2,-0.5 19.6,51.8 c 10.8,28.5 19.3,52.1 19,52.4 -0.3,0.4 -2.4,0.9 -4.7,1.3 -3.9,0.5 -4.1,0.4 -5.2,-2.7 z"
       id="path88" />
    <path
       d="m 235,245.6 c 0,-2.4 1.4,-5.2 5,-10.2 l 5,-6.9 -3.2,-0.5 -3.2,-0.5 6.2,-7.2 c 16.8,-19.5 41.1,-35 69.4,-44.3 31.2,-10.3 73.8,-12.6 108.5,-5.9 12.3,2.4 20.7,4.8 32.6,9.6 4.9,2 9.2,3.2 9.6,2.7 0.4,-0.5 3.3,-11 6.5,-23.4 3.2,-12.4 5.9,-23.1 6.2,-23.9 0.3,-0.8 1.4,-1.2 2.9,-0.9 1.4,0.3 2.5,0.1 2.5,-0.3 0,-0.5 1.1,-0.9 2.4,-0.9 h 2.4 l -7.9,31.3 -8,31.2 -24.8,24.8 -24.7,24.8 -11.5,-4.9 c -27.8,-11.9 -46.8,-15.6 -79.4,-15.6 -24.3,0.1 -38.6,2 -58.8,7.9 -10,2.9 -25.9,9.5 -32.9,13.7 l -4.8,2.7 z"
       id="path90" />
  </g>
  <g
     fill="#070707"
     id="g138"
     transform="translate(-60.031347,-0.64776721)">
    <path
       d="m 271.5,647.9 c -54.8,-6.5 -96.2,-24.5 -132,-57.3 -34.1,-31.1 -59,-79.7 -68,-132.3 -6,-35.1 -6,-81.5 0.1,-110.8 0.9,-4.4 1.6,-8.9 1.6,-10 0,-1.1 0.2,-1.4 0.5,-0.7 0.7,1.7 2.3,1.5 2.3,-0.3 0,-0.9 0.7,-1.8 1.6,-2.2 2.3,-0.9 11.9,-10.4 12.7,-12.5 0.4,-1 1.1,-1.8 1.6,-1.8 1.4,0 6.1,-4.5 6.1,-5.9 0,-0.6 0.8,-1.5 1.7,-1.8 2.2,-0.9 12.3,-10.9 12.3,-12.3 0,-0.6 0.7,-1.3 1.6,-1.7 1,-0.3 2.9,-1.9 4.4,-3.5 2.3,-2.4 3.5,-2.8 7.9,-2.8 4.5,0 5.2,0.2 4.7,1.8 -3,10.3 -5.6,37.6 -5.6,59.2 0.1,40.2 6.2,74.9 19.1,107.3 23,57.8 67.4,99.8 125.4,118.6 26.2,8.5 49.8,12.1 80.1,12.1 49.5,0 100.1,-10.1 134.1,-26.6 l 11.2,-5.5 -1.5,-5.2 c -3.2,-11.1 -13.6,-46.5 -15.2,-51.5 -0.9,-2.9 -1.8,-5.1 -2.1,-4.9 -5.9,3.3 -27.2,13.1 -32.1,14.7 -24.8,8.3 -53.8,13 -80.6,13 -30.4,0 -53.7,-5 -76.9,-16.5 -44,-21.8 -70.9,-61.3 -80.6,-118.5 -4,-23.9 -3.7,-65.2 0.7,-86.5 0.8,-3.8 1.5,-7.5 1.6,-8.1 0.1,-1 2,-0.9 7.6,0.2 1.3,0.2 2,0.9 1.7,1.5 -0.4,0.5 -0.8,2.2 -1,3.7 -0.2,1.5 -1.1,7.2 -1.9,12.7 -4.2,28 -2.6,65.2 4,92.5 12.3,50.7 43.4,86.3 88.4,101.4 33.4,11.1 77.9,11 120.5,-0.3 15.3,-4.1 27,-8.9 42.2,-17.2 12,-6.6 12.4,-6.7 13.2,-4.6 0.4,1.2 2.6,8.2 4.7,15.5 3.6,12.4 4,13.1 5,10.5 0.6,-1.5 11.4,-37.1 24,-79 12.5,-41.9 23.1,-76.1 23.5,-76 0.4,0.1 11.1,-10.3 23.9,-23 23,-23 23.3,-23.3 27.4,-23.3 5.2,0 5.6,0.4 4.5,3.8 -0.5,1.5 -16.5,54.7 -35.5,118.2 -19,63.5 -36.5,121.8 -38.8,129.5 -2.4,7.7 -4.2,14.1 -4.1,14.2 0,0.1 7.5,-0.2 16.6,-0.7 9,-0.5 26.3,-1.4 38.4,-2.1 14.5,-0.7 22.2,-1.5 22.5,-2.3 0.2,-0.6 9.9,-33.5 21.5,-73.1 l 21,-72 4.5,-0.6 c 2.5,-0.4 14.6,-1.2 27,-1.9 21.2,-1 35.1,-1.8 75.5,-4 9.4,-0.5 23.1,-1.2 30.5,-1.6 l 13.5,-0.6 26.5,70.6 26.5,70.6 h 4.5 c 6.9,-0.1 74.2,-3.8 74.5,-4.2 0.2,-0.2 -2.8,-8.6 -6.6,-18.8 C 910,524.8 906,514.3 905,511.5 904,508.8 899.5,496.8 895,485 890.5,473.2 881.7,450 875.5,433.5 869.3,417 860.4,393.4 855.7,381 851,368.6 843.8,349.7 839.8,339 l -7.4,-19.5 5.2,0.3 5.1,0.4 32.3,85.4 c 17.8,47 32.5,85.2 32.7,85 0.2,-0.2 -0.1,-12.7 -0.6,-27.7 -3.5,-95.9 -3.5,-91.1 -1.4,-92.2 1,-0.6 12.1,-11.4 24.7,-24 l 22.9,-22.9 4.1,0.6 c 2.2,0.4 4.2,0.8 4.3,1 0.4,0.4 2.4,59.2 6.9,204 l 0.7,21.9 12.6,-0.6 c 44.2,-2.1 60.7,-3.1 61.4,-3.7 0.5,-0.5 0.4,-14.9 -0.2,-32.1 -4,-111.6 -5.5,-164.8 -4.7,-165.6 1.2,-1.2 44.5,-3.4 56.6,-2.9 22.3,1.1 36,6.4 48.5,19 14,14.2 20,27.6 31.5,71.1 16.1,61 27.7,95.6 33.5,100.5 1.3,1.1 8.2,1 39.1,-0.5 20.6,-1.1 37.9,-2.2 38.5,-2.6 0.7,-0.4 -0.1,-2.5 -2,-5.6 -9.5,-15.5 -19.6,-45.7 -37.1,-111.3 -6.7,-25.3 -12,-41.1 -17.9,-53.6 -4.6,-9.5 -13.9,-24.5 -16.1,-25.9 -2.1,-1.3 0.2,-2.5 4.6,-2.5 3.2,0 4.3,-0.3 3.8,-1.2 -0.4,-0.7 -0.3,-0.8 0.5,-0.4 0.6,0.4 0.9,1.1 0.6,1.6 -0.3,0.4 0.1,1 0.9,1.3 1.8,0.7 10.7,15.5 15.2,25.1 6,13.1 9.1,22.7 19.8,61.8 5.8,21.1 11.1,40.1 11.8,42.3 l 1.3,4 0.3,-4 c 0.2,-2.2 -0.1,-16 -0.7,-30.6 -0.6,-14.6 -1.1,-31.3 -1.1,-37.1 v -10.5 l 24.2,-24.3 24.3,-24.2 4.2,0.6 c 4,0.5 4.2,0.4 4.5,-2.2 0.2,-1.5 0.7,9.2 1.1,23.8 0.4,14.6 1.2,38.9 1.7,54 0.5,15.1 1.4,43.9 2,64 0.5,20.1 1.3,39.7 1.6,43.6 l 0.5,7.1 12.1,0.7 c 33.8,1.8 98.4,0.3 128.9,-2.9 82.8,-8.9 145.8,-37.6 185,-84.3 15.8,-18.9 28,-39.3 36.9,-61.7 3.3,-8.5 9.2,-25.6 9.3,-27 0,-0.6 2.1,-0.9 4.9,-0.7 4.5,0.4 4.8,0.6 4.2,2.5 -11.5,38.4 -24.8,64.5 -46,90.2 -11.1,13.5 -73.9,75.6 -84,83.2 -41.1,30.6 -95.2,49.3 -161.9,56.2 -24.7,2.5 -52.2,3.3 -94.1,2.7 -23.6,-0.3 -45.3,-0.9 -48.1,-1.2 l -5.3,-0.6 v -7.9 c 0,-4.3 -0.3,-7.9 -0.8,-7.9 -0.4,0 -5.2,4.5 -10.7,10 -7.1,7.1 -10.8,10.1 -13,10.5 -1.6,0.3 -12.2,0.9 -23.5,1.5 -33.6,1.6 -57,2.9 -65,3.5 l -7.5,0.6 -2.5,-4.2 c -1.4,-2.4 -3.4,-5.9 -4.6,-7.9 -5.9,-9.9 -16,-40.7 -27.3,-83 -12.9,-48.3 -16,-57.5 -23.2,-69.7 -4.3,-7.1 -13,-16.1 -19.1,-19.7 -6.7,-3.9 -15.2,-6.7 -23,-7.5 l -6.8,-0.7 v 3.2 c 0,6.6 3.9,130.2 4.4,138.9 l 0.5,9.1 -24.7,24.6 -24.7,24.7 -19,1 c -10.4,0.6 -27.3,1.6 -37.5,2.1 -10.2,0.6 -22.4,1.2 -27.1,1.5 l -8.6,0.5 -0.7,-6.1 C 911.3,600.5 911,595 911,591.6 v -6.1 l -12.7,12.7 C 888,608.4 884.8,611 882,611.4 c -1.9,0.3 -12.7,1 -24,1.6 -47.2,2.3 -59.8,3 -65.2,3.6 l -5.7,0.6 -1.6,-3.9 c -0.9,-2.1 -7.2,-18.6 -14,-36.8 -29.6,-78.9 -37.7,-100.1 -38.5,-100.8 -0.4,-0.5 -8.6,-0.4 -18.1,0.2 -23.1,1.4 -50.2,2.9 -67.6,3.7 -7.7,0.4 -14.6,1 -15.2,1.4 -0.7,0.3 -7.6,22.8 -15.5,49.9 l -14.3,49.3 -24.4,24.4 -24.5,24.5 -13,0.9 c -7.1,0.5 -23.2,1.4 -35.9,2 -12.6,0.6 -28.6,1.5 -35.5,2 -6.9,0.4 -12.6,0.7 -12.8,0.5 -0.2,-0.2 1.5,-6.4 3.7,-13.8 2.3,-7.5 4.1,-14.1 4.1,-14.8 0,-0.7 -1.9,0.5 -4.2,2.7 -16.2,15.4 -63.2,31.4 -109.8,37.3 -24.7,3.2 -61.2,4.1 -78.5,2 z"
       id="path94" />
    <path
       d="m 1798,565.9 c -39.5,-4.3 -69.3,-13.3 -92,-27.7 -3,-1.9 -5.6,-3.5 -5.7,-3.6 -0.1,-0.1 1.5,-6.7 3.6,-14.7 4.3,-16.2 10.5,-39.5 15.1,-57.2 l 3.1,-11.8 24.5,-24.5 24.6,-24.5 8.6,4.8 c 32.1,17.6 54,24.6 85.8,27.4 13.8,1.2 31.6,0.2 43.3,-2.4 5,-1.1 5.6,-1.5 6.4,-4.7 0.5,-1.9 0.7,-6.6 0.4,-10.4 -0.2,-3.7 -0.1,-6.2 0.3,-5.6 0.6,0.9 8.4,-6.3 24.7,-22.7 23.9,-23.9 23.9,-23.9 27.7,-23.5 2.5,0.3 4.2,0 4.8,-0.9 1.5,-2.1 0.2,18.6 -1.6,25.2 -6.2,23.2 -24.1,40.6 -50.4,48.8 -15.6,4.8 -21.9,5.6 -43.7,5.5 -16.3,0 -22.2,-0.4 -32,-2.3 -22.8,-4.2 -41.6,-10.7 -61,-21.2 -5.5,-3 -7.6,-3.7 -8,-2.7 -0.2,0.7 -2,7.6 -4.1,15.3 -2,7.7 -4.9,19 -6.5,25 -1.6,6.1 -3.7,13.9 -4.6,17.4 l -1.6,6.4 2.4,1.8 c 10.4,7.8 37.8,17.2 63.4,21.8 26.1,4.6 60.5,5.2 84.5,1.6 22.2,-3.4 46.7,-10.8 63.1,-19 26.5,-13.3 49.6,-36.1 62.1,-61 6.6,-13.2 11.9,-30.5 13.2,-44 0.4,-3.3 0.9,-7.9 1.2,-10.2 l 0.5,-4.3 h 4.6 4.6 l -0.7,8.3 c -2.1,26.5 -10.1,49.2 -24.9,71.2 -4.7,7 -13.7,16.7 -39.6,42.6 -20.5,20.6 -36.8,36.1 -41.9,39.8 -33.5,24.5 -78.3,37.3 -129.2,37 -9.6,-0.1 -20.9,-0.5 -25,-1 z"
       id="path96" />
    <path
       d="m 1408.4,466.3 c -2.3,-0.4 -1.8,8.2 -4.4,-77.3 -0.5,-18.4 -1.1,-37.5 -1.4,-42.5 -0.2,-4.9 -0.2,-8 0.1,-6.7 0.4,1.8 1.1,2.2 4.3,2.2 3.2,0 3.9,-0.4 4.3,-2.2 0.3,-1.3 0.5,-0.3 0.4,2.2 0,2.5 0.5,19.8 1.2,38.5 0.7,18.7 1.6,43.5 1.9,55 l 0.7,21 15.5,0.3 c 44.1,0.9 84.2,-6.6 114.5,-21.3 l 11,-5.4 3.7,-6.8 c 2,-3.7 4.6,-9.3 5.8,-12.3 1.2,-3 2.7,-6.6 3.3,-8 0.6,-1.4 1.1,-2.7 1.1,-3 0.1,-0.3 0.5,-1.1 0.9,-1.7 0.5,-0.7 0.5,-1.3 0.1,-1.3 -0.4,0 0.6,-1 2.2,-2.2 1.6,-1.3 12.1,-11.6 23.5,-22.9 l 20.6,-20.7 5.5,-0.3 5.6,-0.4 -2.5,7 c -21.5,59.6 -71.3,96 -145,106 -19.4,2.6 -65,4.4 -72.9,2.8 z"
       id="path98" />
    <path
       d="m 1899.8,378.2 c -0.8,-1.8 -10.9,-9.3 -18.3,-13.6 -10.8,-6.2 -25.2,-12 -48.2,-19.7 -13.9,-4.6 -19.3,-6.8 -19.3,-7.9 0,-0.8 10.6,-12 23.6,-24.9 l 23.5,-23.4 7.5,-0.2 c 4.1,-0.2 7.7,0.2 8,0.7 0.3,0.5 4,0.8 8.2,0.7 6.4,-0.1 9.2,0.4 16.5,3 25.6,9.2 45.3,20.5 55.6,31.6 4.9,5.3 4.5,6.5 -2.5,6.5 -3,0 -4.8,0.7 -6.8,2.5 -1.4,1.3 -2.6,2.8 -2.6,3.2 0,0.4 -1.6,1.9 -3.5,3.2 -2,1.3 -3.4,2.6 -3.1,2.8 0.3,0.3 -4.3,4.9 -13.5,13.6 -1.1,0.9 -1.9,2 -1.9,2.5 0,0.4 -1.6,1.8 -3.5,3.1 -1.9,1.3 -3.3,2.6 -3.1,3 0.2,0.3 -1.1,1.7 -3,3.1 -1.8,1.4 -3.6,3.2 -3.9,4 -0.5,1.4 -7.6,7 -8.8,7 -0.3,0 -0.7,-0.3 -0.9,-0.8 z"
       id="path100" />
    <path
       d="m 1579.1,360.2 c 0.4,-2.7 1,-11 1.4,-18.5 0.6,-9.6 1.2,-14 2.1,-14.8 0.8,-0.6 1.4,-1.7 1.4,-2.3 0,-1.5 4.2,-5.6 5.8,-5.6 0.6,0 1.7,-1.2 2.4,-2.7 0.7,-1.6 2.3,-3.2 3.6,-3.8 1.2,-0.5 2.2,-1.5 2.2,-2.1 0,-1.3 3.9,-4.9 6.3,-5.7 0.9,-0.4 1.7,-1.2 1.7,-2 0,-1.6 4.1,-5.7 5.8,-5.7 0.6,0 1.7,-1.2 2.4,-2.7 0.7,-1.6 2.3,-3.2 3.6,-3.8 1.2,-0.5 2.2,-1.5 2.2,-2.1 0,-1.3 3.9,-4.9 6.3,-5.7 0.9,-0.4 1.7,-1.3 1.7,-2.1 0,-1.2 1,-1.4 5.3,-0.9 2.8,0.3 5.4,0.7 5.6,1 0.6,0.4 -1.7,32.2 -2.5,35.1 -0.5,1.9 -1.3,2.2 -5.1,2.2 h -4.5 l -23.4,23.5 c -12.9,12.9 -23.8,23.5 -24.3,23.5 -0.4,0 -0.5,-2.2 0,-4.8 z"
       id="path102" />
    <path
       d="m 653.9,359.3 c 7.5,-25.9 13.6,-45 14.5,-45.6 0.6,-0.4 2,-0.6 3.1,-0.5 3.3,0.3 6.7,-1.2 6.1,-2.8 -0.3,-0.8 -0.1,-1.4 0.5,-1.4 0.6,0 0.9,-0.7 0.5,-1.5 -0.3,-0.8 0,-1.5 0.5,-1.5 0.6,0 0.9,-0.9 0.6,-2 -0.3,-1.1 -0.1,-2 0.5,-2 0.6,0 0.8,-0.7 0.4,-1.5 -0.3,-0.8 0,-1.5 0.5,-1.5 0.6,0 0.9,-0.9 0.6,-2 -0.3,-1.1 -0.1,-2 0.5,-2 0.6,0 0.8,-0.7 0.4,-1.5 -0.3,-0.8 -0.1,-1.5 0.5,-1.5 0.6,0 0.9,-0.7 0.5,-1.5 -0.3,-0.8 -0.1,-1.5 0.5,-1.5 0.6,0 0.9,-0.7 0.5,-1.5 -0.3,-0.8 0,-1.5 0.5,-1.5 0.6,0 0.9,-0.9 0.6,-2 -0.3,-1 0,-2.1 0.7,-2.4 0.6,-0.2 -1,-0.5 -3.7,-0.5 -4.6,-0.1 -4.7,-0.2 -4.2,-2.9 0.2,-1.5 2.7,-10.2 5.5,-19.2 2.8,-9.1 5.2,-17.1 5.2,-17.8 0.1,-0.9 0.7,-0.8 2.4,0.3 1.3,0.8 3.2,1.5 4.4,1.5 1.1,0 2,0.4 2,0.9 0,0.8 -5.3,18.9 -6.6,22.6 -0.5,1.5 -0.1,1.2 1.5,-0.7 1.2,-1.6 2.8,-2.8 3.6,-2.8 0.7,0 2.2,-1.6 3.4,-3.5 1.1,-1.9 3.2,-4 4.7,-4.5 1.5,-0.6 2.4,-1.3 2.1,-1.7 -0.4,-0.3 1.5,-2.7 4.1,-5.3 4.7,-4.7 4.8,-4.7 10.4,-4.2 l 5.6,0.4 7.1,18.9 c 3.9,10.4 7.1,19.2 7.1,19.5 0,0.4 -2.3,0.4 -5,0.2 -3.3,-0.3 -5.3,-0.1 -5.8,0.7 -0.4,0.6 -1.9,2 -3.4,2.9 -1.5,1 -3,2.6 -3.3,3.7 -0.4,1.1 -2,2.6 -3.6,3.4 -1.6,0.9 -3.6,2.9 -4.4,4.5 -0.9,1.7 -2.2,3 -3.1,3 -0.8,0 -2.2,1.3 -3.2,2.9 -0.9,1.6 -2.9,3.7 -4.5,4.6 -1.5,0.9 -3.3,2.7 -3.9,4 -0.6,1.2 -2.1,2.9 -3.5,3.6 -1.4,0.7 -3.1,2.6 -3.9,4.1 -0.8,1.5 -2.1,2.8 -2.9,2.8 -0.8,0 -2.2,1.2 -3.2,2.8 -3.7,5.7 -4.6,5.6 -7.3,-1.3 -1.4,-3.5 -2.8,-6.6 -3.1,-6.9 -0.3,-0.3 -2.7,6.7 -5.3,15.6 -2.6,8.9 -5,16.7 -5.2,17.3 -0.4,0.9 2.4,1.1 10.3,0.8 5.9,-0.3 11.5,-0.7 12.3,-1 1.3,-0.5 11.6,-1.3 19.3,-1.5 2.3,-0.1 6,-3.2 19.1,-16.3 l 16.3,-16.3 5.1,-0.3 c 2.8,-0.2 4.9,-0.2 4.6,0 -0.2,0.2 0,0.9 0.5,1.5 1.2,1.4 14.1,35.5 14.1,37.1 0,0.9 -4.1,1.4 -14.2,1.9 -7.9,0.4 -21.5,1.1 -30.3,1.6 -8.8,0.5 -25.2,1.4 -36.5,2 -11.3,0.5 -23.5,1.2 -27.2,1.5 l -6.7,0.5 z"
       id="path104" />
    <path
       d="m 1267.8,335.1 c -0.5,-20.5 -0.1,-23.2 3.9,-24.5 1,-0.3 2.8,-2.2 4.1,-4.1 1.2,-1.9 2.9,-3.5 3.7,-3.5 0.7,0 2,-1.2 2.7,-2.7 0.7,-1.5 2.8,-3.7 4.5,-4.8 1.8,-1.1 3.2,-2.6 3.3,-3.3 0,-0.7 1.6,-2.2 3.6,-3.4 1.9,-1.1 4,-3.2 4.5,-4.5 0.5,-1.3 2,-2.8 3.4,-3.3 1.4,-0.5 2.5,-1.6 2.5,-2.3 0,-1.6 3.7,-5.1 6.3,-6 0.9,-0.4 1.7,-1.3 1.7,-2.1 0,-2 3.9,-4.6 7,-4.6 1.4,0 3.4,0.7 4.5,1.6 1.8,1.4 2,2.9 2.3,19.9 l 0.4,18.5 h -4.2 c -5,0 -9,2.1 -11.2,6.1 -1,1.6 -2.3,2.9 -3,2.9 -0.7,0 -2.6,1.8 -4.1,4 -1.6,2.2 -3.4,4 -4,4 -0.7,0 -2.1,1.3 -3.2,3 -1.1,1.6 -2.9,3.4 -4,4 -1.1,0.6 -2.8,2.4 -3.7,4 -0.9,1.7 -2.3,3 -3,3 -0.7,0 -2.6,1.8 -4.1,4 -1.6,2.2 -3.5,4 -4.3,4 -0.8,0 -1.4,0.3 -1.4,0.8 0,0.4 -1.8,2.6 -3.9,4.8 l -3.9,4.2 z"
       id="path106" />
    <path
       d="m 902.6,329.3 c -0.3,-5.8 -0.6,-15 -0.6,-20.5 0,-8.1 0.3,-9.8 1.5,-9.8 0.9,0 2,-1.1 2.5,-2.5 0.5,-1.3 2.3,-3.1 4,-4 1.7,-0.9 3.5,-2.7 4,-4.1 0.5,-1.3 2.1,-2.9 3.5,-3.4 1.4,-0.5 2.5,-1.6 2.5,-2.3 0,-1.6 4.2,-5.7 5.8,-5.7 0.7,0 1.7,-1.1 2.2,-2.5 0.5,-1.3 2.3,-3.1 4,-4 1.7,-0.9 3.5,-2.7 4,-4.1 0.5,-1.3 2.1,-2.9 3.5,-3.4 1.4,-0.5 2.5,-1.6 2.5,-2.3 0,-1.6 4.1,-5.7 5.7,-5.7 0.6,0 1.3,-0.6 1.6,-1.4 0.4,-1.1 1.7,-1.3 4.9,-0.9 2.4,0.3 4.6,0.8 4.9,1.2 0.4,0.3 1,9 1.4,19.4 l 0.7,18.7 -5.3,-0.6 c -5.2,-0.5 -5.5,-0.5 -7.1,2.5 -0.9,1.7 -2.3,3.1 -3,3.1 -0.7,0 -2.4,1.6 -3.7,3.5 -1.3,1.9 -3.1,3.7 -4,4 -0.9,0.3 -2.5,1.8 -3.6,3.4 -1.1,1.7 -3,3.6 -4.3,4.3 -1.3,0.7 -2.8,2.3 -3.3,3.6 -0.5,1.3 -1.7,2.6 -2.7,2.9 -0.9,0.2 -2.8,1.9 -4.1,3.8 -1.3,1.9 -3.1,3.7 -4,4 -0.9,0.3 -2.5,1.8 -3.5,3.4 -1.1,1.6 -3.2,3.6 -4.8,4.6 -1.5,0.9 -2.8,2.2 -2.8,3 0,0.8 -0.4,1.6 -0.9,1.9 -0.4,0.3 -1.1,-4.2 -1.5,-10.1 z"
       id="path108" />
    <path
       d="m 2044.1,324.3 c -1.8,-6 -5,-14.6 -7.2,-19.2 -2.1,-4.6 -3.9,-8.5 -3.9,-8.6 0,-0.2 2.2,-0.5 5,-0.7 l 5,-0.3 3.4,7.5 c 3.9,8.7 8.4,22.3 9.1,28 l 0.5,4 h -4.3 -4.3 z"
       id="path110" />
    <path
       d="m 550,322.3 c -0.1,-2.5 10.6,-36.1 11.3,-35.6 0.5,0.3 0.7,-0.3 0.5,-1.3 -0.4,-2.1 3.1,-5.4 5.7,-5.4 1.1,0 1.5,-0.5 1.1,-1.5 -0.3,-0.9 0,-1.5 0.9,-1.5 0.8,0 1.4,-0.6 1.3,-1.2 -0.2,-0.7 1.2,-1.9 3,-2.7 1.8,-0.8 3.1,-2 2.8,-2.7 -0.5,-1.3 2.4,-4.4 4.1,-4.4 0.5,0 1.8,-0.9 2.8,-2 1,-1.1 1.4,-2 1,-2 -0.4,0 0,-0.9 1,-2 1,-1.1 2.7,-2 3.8,-2 1.3,0 1.7,-0.5 1.3,-1.5 -0.3,-1 0.1,-1.5 1.1,-1.5 0.9,0 1.3,-0.3 1,-0.7 -1.1,-1 2.4,-4.3 4.6,-4.3 1.2,0 1.7,-0.5 1.4,-1.4 -0.6,-1.5 2.2,-4.6 4,-4.6 1.3,0 4.9,-4 3.7,-4.1 -2.2,-0.2 4.5,-1.7 8.3,-1.8 4,-0.1 4.2,0 3.4,2.2 -0.5,1.2 -3.3,10.4 -6.2,20.4 -4.7,16.1 -5.5,18.1 -7,17.2 -1,-0.5 -3.1,-0.9 -4.7,-0.9 -2.5,0 -6.4,3.5 -25.8,23 -12.6,12.6 -23.2,23 -23.6,23 -0.5,0 -0.8,-0.3 -0.8,-0.7 z"
       id="path112" />
    <path
       d="m 1713.5,318.3 c 1.4,-12.2 2.6,-25.8 2.7,-32.8 0.1,-4.4 0.4,-6.8 0.6,-5.3 0.3,2.5 0.6,2.6 4,2.1 2,-0.3 4,-1.1 4.5,-1.7 1,-1.5 -1.3,31.3 -2.7,37.9 -0.3,1.1 -0.5,2.3 -0.5,2.8 -0.1,0.4 -2.1,0.7 -4.6,0.7 h -4.4 z"
       id="path114" />
    <path
       d="m 1410,310 c 0,-0.5 -2,-1 -4.5,-1 h -4.5 v -8.8 c 0,-4.9 -0.2,-14.5 -0.4,-21.3 -0.3,-6.8 -0.3,-11.4 0,-10.1 0.4,1.8 1.2,2.2 4.4,2.2 2.2,0 4,-0.5 4.3,-1.2 0.2,-0.7 0.5,5.2 0.6,13.2 0,8 0.4,17.5 0.7,21.3 0.4,3.7 0.4,6.7 0,6.7 -0.3,0 -0.6,-0.4 -0.6,-1 z"
       id="path116" />
    <path
       d="m 1212.3,305.4 c 0.9,-1.1 1.7,-2.3 1.7,-2.7 0,-0.3 -2.7,-0.9 -5.9,-1.3 l -5.9,-0.6 5.6,-4.8 c 7.5,-6.2 19,-18.4 23.2,-24.6 1.9,-2.7 3.7,-5 4.2,-5.2 0.4,-0.2 0.8,-0.9 0.8,-1.6 0,-1.5 9.5,-2.2 10.4,-0.8 1.4,2.3 -14.9,23.4 -27.6,35.7 -4.5,4.4 -7.5,7.1 -6.5,5.9 z"
       id="path118" />
    <path
       d="m 83.9,301.2 c 1.2,-2.9 3,-7.4 4.1,-10.2 2.8,-7.1 10.9,-23.1 12.6,-24.7 0.8,-0.8 1.4,-2.1 1.4,-2.9 0,-0.8 0.5,-1.4 1.1,-1.4 0.5,0 0.7,-0.6 0.3,-1.2 -0.4,-0.7 -0.3,-0.9 0.1,-0.5 0.5,0.4 10.2,-8.4 21.5,-19.7 l 20.5,-20.5 5.7,0.7 5.7,0.7 -5,10 c -2.7,5.5 -6.7,14.5 -8.9,20 -2.2,5.5 -4,9.4 -4,8.8 0,-0.9 -1.6,-1.3 -4.6,-1.3 h -4.6 l -22.2,22.3 C 80,308.9 81.3,307.7 83.9,301.2 Z"
       id="path120" />
    <path
       d="m 1035.5,278.7 c -0.4,-5 -0.5,-12.3 -0.3,-16.2 l 0.3,-7 h 4 c 3.5,0 4,0.3 4.2,2.5 0.1,1.4 0.5,6.5 0.8,11.3 l 0.7,8.9 11.1,-0.7 c 33.4,-1.9 44.1,-2.8 52.5,-4.6 10.4,-2.3 16.2,-4.4 16.2,-6 0,-0.7 0.9,-0.9 2.1,-0.6 1.2,0.3 2.8,-0.2 3.9,-1.3 1,-1 2.9,-2 4.2,-2.2 1.3,-0.2 2.1,-0.7 2,-1.2 -0.9,-2.2 8,-3.8 9.3,-1.6 0.9,1.4 7.8,1.2 9.5,-0.2 1.2,-1.1 1.2,-1 0.1,0.5 -3.2,4.2 -20.7,14.3 -31.1,17.9 -14.2,5 -24.7,6.2 -79.2,9.3 l -9.6,0.5 z"
       id="path122" />
    <path
       d="m 819.6,285.1 c -0.8,-1.2 -10.4,-26.4 -12.4,-32.3 -0.9,-2.6 -1.4,-4.9 -1.1,-5.1 0.2,-0.3 2.2,-0.7 4.5,-1 l 4,-0.7 7.6,20 7.6,20 H 825 c -2.7,0 -5.1,-0.4 -5.4,-0.9 z"
       id="path124" />
    <path
       d="m 223.9,262.7 c -2.4,-0.5 -4.5,-1 -4.7,-1.2 -0.7,-0.6 8.3,-17.4 13.4,-25 8.3,-12.3 8,-12.1 14.5,-11.5 l 5.7,0.5 -7.5,9.9 c -4.1,5.4 -7.2,10.1 -6.9,10.4 0.3,0.3 -0.1,1 -0.9,1.6 -0.8,0.6 -3.2,4.5 -5.3,8.6 l -3.9,7.5 z"
       id="path126" />
    <path
       d="m 1554.2,223.1 c -2.9,-4.3 -9.1,-11.7 -13.8,-16.4 C 1513.5,179.8 1476.2,167 1424.8,167 H 1406 v 3.5 c 0,3.5 0,3.5 -4.4,3.5 h -4.4 l -0.6,-16.2 c -1.4,-37.9 -1.3,-39.9 0.3,-40.8 0.9,-0.4 7.2,-1.8 14.1,-2.9 39.1,-6.6 81.8,-6.8 111,-0.6 36.3,7.7 66,25.7 85.2,51.5 5.1,6.9 10.8,16.2 10.8,17.7 0,0.3 -2.1,0.3 -4.7,0 l -4.8,-0.5 -24.4,24.4 c -13.5,13.4 -24.5,24.4 -24.5,24.4 -0.1,0 -2.5,-3.5 -5.4,-7.9 z"
       id="path128" />
    <path
       d="m 1720.9,219.2 c -0.1,-0.4 0,-1.7 0.1,-2.9 0.1,-1.3 -0.3,-2.3 -0.8,-2.3 -0.5,0 -0.7,-1.1 -0.4,-2.5 0.2,-1.5 0,-2.5 -0.7,-2.5 -0.7,0 -0.9,-0.9 -0.5,-2.5 0.3,-1.4 0.2,-2.5 -0.4,-2.5 -0.6,0 -0.8,-0.9 -0.5,-2 0.3,-1.1 0.1,-2 -0.5,-2 -0.6,0 -0.8,-0.9 -0.5,-2 0.3,-1.1 0.1,-2 -0.5,-2 -0.6,0 -0.8,-0.9 -0.5,-2 0.3,-1.1 0,-2 -0.6,-2 -0.5,0 -0.8,-0.7 -0.5,-1.5 0.4,-0.8 0.1,-1.5 -0.6,-1.5 -0.6,0 -0.9,-0.4 -0.6,-0.9 0.8,-1.2 -1.8,-2.1 -6.2,-2.1 h -3.7 l -3.3,-9.3 c -6.9,-18.9 -19.9,-41.8 -32.5,-57 -6.8,-8.3 -17.6,-18.9 -26.8,-26.3 -26,-21.3 -61.8,-36.6 -100.4,-42.8 -22.6,-3.7 -28.4,-4.1 -63,-4.1 -37.9,0.1 -52.2,1.1 -94,6.7 -22.4,2.9 -63.1,10.1 -64.4,11.3 -0.3,0.4 0.9,42.6 2.6,88.8 l 0.6,17.7 h -4.9 -4.9 l -22.9,23 c -12.7,12.7 -23.3,23 -23.8,23 -0.4,0 -0.8,-0.9 -0.8,-2.1 0,-1.1 -0.3,-1.8 -0.7,-1.6 -0.5,0.3 -0.8,-2.8 -0.9,-6.9 0,-4.1 0.3,-7.4 0.8,-7.4 0.4,0 0.8,-2.2 0.8,-5 0,-2.7 -0.4,-5 -0.9,-5 -0.6,0 -0.7,-2.9 -0.4,-7 0.4,-4.8 0.2,-7 -0.5,-7 -0.7,0 -0.9,-1.1 -0.6,-2.8 0.6,-2.7 0.4,-2.8 -4.7,-3.8 -5.3,-0.9 -5.4,-1 -6.1,-5 -0.3,-2.3 -2.1,-8.4 -3.8,-13.5 -13.8,-41.3 -47.3,-68.9 -95.5,-78.7 -18.3,-3.8 -28.3,-4.6 -55,-4.6 -24.1,0.1 -35.7,0.7 -62,3.5 -34.1,3.6 -81,12.5 -81,15.4 0.7,27.5 1.6,57.3 2,65 0.4,7 0.2,9.3 -0.5,7.8 -0.7,-1.8 -1.7,-2.3 -4.7,-2.3 -3.6,0 -4.9,1.2 -28,24.3 l -24.1,24.3 -0.6,-3.6 c -0.3,-1.9 -0.6,-8.9 -0.6,-15.5 0,-6.6 -0.5,-22.6 -1,-35.5 L 895.9,126.6 920.7,101.8 945.5,77 959,73.6 c 51.4,-12.9 128.8,-19.7 172.1,-15.1 44.2,4.7 76.7,19.1 100.3,44.6 12.5,13.5 21.9,30.5 27.6,49.9 l 3,10.5 -0.6,-29 -0.5,-29 24.8,-24.6 24.8,-24.6 13.5,-2.7 c 107.4,-20.9 192.1,-22.5 251,-4.7 57,17.2 99.6,52.7 125.3,104.4 l 6.4,12.9 2.3,-6.9 c 4.6,-13.7 11.7,-27.3 20.7,-39.4 5.3,-7.1 60.9,-63.5 70.6,-71.5 23.4,-19.4 53.9,-32.4 89.3,-38.1 15.6,-2.5 59.1,-2.5 75.4,0.1 13.5,2.1 30.7,6.4 40.5,10.1 10.8,4 28.6,12.9 28.2,14 -0.2,0.5 -5.7,18.9 -12.3,40.8 l -11.8,39.8 -21.1,21.1 c -11.5,11.7 -22.7,22.7 -24.8,24.6 l -3.8,3.5 -12.8,-6.2 c -30,-14.2 -58.1,-19.8 -87,-17.3 -15.8,1.4 -16.3,1.7 -15.5,9 0.9,8.8 3.2,17.2 6.1,22.2 3.1,5.4 14.2,16.3 19.2,19 l 3.6,2 -8.8,-0.4 -8.8,-0.3 -5.3,-5.4 c -10.5,-11 -15,-23.1 -15,-40.4 0,-8.8 0.4,-12.3 2.2,-17.5 7.9,-23.1 26.1,-37.5 55.6,-44.2 13.3,-3.1 41.4,-3 57.9,0 14.4,2.7 28.1,7 40.8,12.8 5.3,2.4 10.1,4.4 10.6,4.4 0.9,0 19.3,-59.9 19.3,-62.8 0,-0.7 -3.7,-3 -8.2,-5.1 -45.6,-20.9 -112.6,-22.7 -162.3,-4.4 -20.7,7.7 -37.9,18.6 -53.6,34.3 -21.1,21 -32,42.3 -36.4,71.2 -2.4,15.8 -1.9,28.6 2,49.9 l 0.7,3.6 -4.9,-0.4 c -5,-0.5 -5,-0.5 -10.4,5.1 -3,3 -6.3,6.7 -7.4,8.1 -1.1,1.4 -2.6,2.5 -3.3,2.5 -0.7,0 -1.7,1.1 -2.3,2.3 -0.6,1.3 -2.3,3.1 -3.8,4 -1.5,0.9 -3.3,2.7 -4.1,4.1 -0.7,1.4 -1.9,2.6 -2.7,2.6 -0.7,0 -1.3,0.4 -1.3,0.9 0,1.1 -3,2.3 -3.1,1.3 z"
       id="path130" />
    <path
       d="m 1106,206.1 c -11.2,-11.5 -29.4,-18.3 -52.7,-19.7 l -11.3,-0.7 v -6.8 c 0,-4.5 -0.4,-6.9 -1.1,-6.9 -0.8,0 -1,-1.8 -0.6,-6 l 0.7,-6 h -4.4 -4.3 l -0.7,-4.6 c -0.3,-2.6 -0.6,-8.4 -0.6,-12.9 v -8.3 l 9.3,-1.6 c 16.8,-2.9 25,-3.7 42.2,-4.3 26.8,-0.9 44.2,2 61.4,10.3 7.6,3.7 10.8,6 17,12.2 4.2,4.2 8.4,9.2 9.4,11 l 1.8,3.2 h -5.2 c -5.2,0 -5.3,0.1 -13.7,8.3 -4.6,4.5 -9.4,9.3 -10.6,10.6 -3.8,4.2 -14.7,14.6 -15.7,14.9 -0.5,0.2 -0.9,0.9 -0.9,1.6 0,0.7 -1.1,1.9 -2.5,2.6 -1.4,0.7 -2.5,1.6 -2.5,2 0,0.9 -7.2,8 -7.9,7.9 -0.3,-0.1 -3.5,-3.1 -7.1,-6.8 z"
       id="path132" />
    <path
       d="m 590,188.9 c 0,-0.6 3.6,-13.3 8.1,-28.3 l 8.1,-27.1 25.1,-25.2 25.2,-25.3 h 6.5 c 3.6,0 13.7,-0.4 22.5,-1 24.4,-1.4 52.3,-2.9 59.4,-3.2 l 6.4,-0.2 13,34.3 c 7.1,18.8 12.7,34.5 12.3,34.8 -0.3,0.3 -2.3,0.9 -4.5,1.3 l -3.9,0.7 -4,-10.6 c -2.3,-5.8 -7.5,-19.7 -11.7,-30.8 l -7.7,-20.2 -7.7,0.4 c -13.2,0.8 -43.1,2.4 -55.6,3 -20.5,1 -18.7,0.1 -21.9,10.8 -1.5,5.1 -5,16.6 -7.7,25.7 l -5,16.5 -4.9,-0.3 -4.9,-0.4 -23,23.1 c -12.7,12.7 -23.3,23.1 -23.6,23.1 -0.3,0 -0.5,-0.5 -0.5,-1.1 z"
       id="path134" />
    <path
       d="m 478.3,137.2 c -0.9,-0.6 -0.7,-2.8 1.1,-9.4 l 2.4,-8.6 -4.6,-2 C 450.9,105.9 422.7,101 383.4,101 c -44.9,0 -81,6.9 -116.4,22.3 -5.2,2.3 -10.6,4.7 -11.9,5.3 -1.6,0.9 -3.2,0.9 -4.8,0.3 -1.3,-0.5 -4.4,-0.9 -6.9,-0.9 -5,0 -5.7,-1 -1.6,-2.7 1.5,-0.7 4.5,-2.3 6.7,-3.5 2.2,-1.3 7.8,-4.1 12.5,-6.2 39.9,-18.1 92.2,-26.8 141.4,-23.7 35,2.2 58.4,7.4 81.3,18.1 l 9.1,4.2 -2.9,10.6 c -1.7,5.9 -3,11.3 -3.1,12 -0.1,1.3 -6.5,1.7 -8.5,0.4 z"
       id="path136" />
  </g>
</svg>
