<?xml version="1.0" encoding="UTF-8" standalone="no"?>
<svg
   version="1.0"
   width="2125.8267"
   height="647.17194"
   viewBox="0 0 2125.8267 647.17194"
   preserveAspectRatio="xMidYMid meet"
   id="svg144"
   sodipodi:docname="auto-playingcards-fr.svg"
   inkscape:version="1.1.2 (0a00cf5339, 2022-02-04, custom)"
   xmlns:inkscape="http://www.inkscape.org/namespaces/inkscape"
   xmlns:sodipodi="http://sodipodi.sourceforge.net/DTD/sodipodi-0.dtd"
   xmlns="http://www.w3.org/2000/svg"
   xmlns:svg="http://www.w3.org/2000/svg">
  <defs
     id="defs148" />
  <sodipodi:namedview
     id="namedview146"
     pagecolor="#ffffff"
     bordercolor="#666666"
     borderopacity="1.0"
     inkscape:pageshadow="2"
     inkscape:pageopacity="0.0"
     inkscape:pagecheckerboard="0"
     showgrid="false"
     inkscape:zoom="0.4874601"
     inkscape:cx="1030.8536"
     inkscape:cy="356.95229"
     inkscape:window-width="1920"
     inkscape:window-height="1017"
     inkscape:window-x="-8"
     inkscape:window-y="-8"
     inkscape:window-maximized="1"
     inkscape:current-layer="svg144" />
  <g
     fill="#ffffff"
     id="g26"
     transform="translate(-66.467899,-1.4607572)">
    <path
       d="M 277,648.4 C 262.9,647.3 245.3,644.3 232.5,641 217.4,637 215.1,636.3 205,632.2 155.1,612.2 117.6,577.5 93.5,529.1 63,467.8 57.8,381.2 80.5,313.5 90.1,284.9 106,256.3 124.8,234 c 13.8,-16.4 81.3,-82.6 93.2,-91.4 37.1,-27.5 78.7,-43.5 130,-49.8 15.5,-1.9 62.3,-1.6 77.3,0.5 26.5,3.8 40.4,7.6 60.2,16.7 4.4,2 9.9,4.5 12.3,5.5 3.4,1.5 4.1,2.3 3.6,3.8 -0.4,1.1 -1.9,7 -3.4,13.1 -3.6,14.1 -10.8,42.1 -15.5,60.1 -2,7.7 -4.1,15.8 -4.6,18 -0.6,2.2 -1.6,4.9 -2.3,6 -1.2,1.7 -47,47.9 -52.4,52.8 -2.2,2 -2.1,2 -29.7,-9.8 -19.1,-8.1 -38.1,-11.5 -65,-11.5 -23.6,0 -42.2,2.8 -58.5,8.8 -17.7,6.5 -17.9,6.6 -21.7,15.8 -5.5,13.5 -8,22.3 -11.5,40.9 -1.8,9.4 -1.8,54.4 0,64 2.8,15.4 3.5,18.5 7.3,30.2 17.3,54.3 60.8,84.3 122.1,84.3 24.3,0 49,-4.2 72.3,-12.2 7.4,-2.6 12.1,-4.9 30.7,-15.1 l 14.6,-8 2,-6.6 c 2,-6.4 5.2,-17.2 11.3,-37.3 1.6,-5.4 4.2,-14.2 5.8,-19.5 1.6,-5.4 4.3,-14.4 6,-20 7.9,-26.3 9.4,-31.3 11.3,-37.8 1.1,-3.8 2.4,-8.1 2.8,-9.5 0.5,-1.4 2.3,-7.2 4,-13 1.8,-5.8 4,-13.2 5,-16.5 1,-3.3 3.2,-10.5 4.9,-16 1.6,-5.5 4.3,-14.6 6,-20.2 1.7,-5.7 4.4,-14.7 6,-20 1.6,-5.4 4.3,-14.4 6,-20 1.7,-5.7 4.4,-14.7 6,-20 2.5,-8.4 5.8,-19.1 10.3,-34.3 0.6,-1.9 1.4,-4.6 1.9,-6 0.4,-1.4 2,-6.5 3.4,-11.5 l 2.7,-9 27.5,-27.6 27.4,-27.6 19.2,-1.1 c 10.6,-0.6 28.7,-1.6 40.2,-2.2 11.6,-0.6 26.6,-1.5 33.5,-2 6.9,-0.4 12.8,-0.7 13.1,-0.5 0.5,0.4 1.5,2.9 9.9,25 2.2,6.1 5.4,14.4 7,18.5 1.6,4.1 4.7,12.5 7,18.5 2.3,6.1 5.4,14.4 7,18.5 1.6,4.1 4.7,12.5 7,18.5 2.3,6.1 5.4,14.4 7,18.5 1.6,4.1 4.7,12.5 7,18.5 2.3,6.1 5.4,14.4 7,18.5 1.6,4.1 4.7,12.5 7,18.5 2.3,6.1 5.4,14.5 7.1,18.7 1.6,4.3 4.2,11.3 5.8,15.5 1.7,4.3 4.8,12.8 7.1,18.8 2.3,6.1 5.5,14.4 7,18.5 1.6,4.1 5.2,13.6 8,21 2.8,7.4 6.4,16.9 8,21 1.5,4.1 3.9,10.3 5.2,13.8 1.2,3.4 2.7,6.2 3.2,6.2 0.5,0 0.6,-6.1 0.2,-14.7 -0.4,-8.2 -1.1,-28.9 -1.6,-46.1 -0.5,-17.2 -1.2,-37.4 -1.5,-45 -0.2,-7.5 -1,-30.1 -1.5,-50.2 -0.6,-20.1 -1.5,-46.8 -2,-59.5 -0.6,-12.6 -1,-25.5 -1,-28.7 v -5.6 l 27.5,-27.5 27.5,-27.5 6.2,-1.6 c 3.5,-0.9 9.7,-2.5 13.8,-3.6 7.9,-2.2 26.8,-6 38.5,-7.9 3.9,-0.7 8.4,-1.4 10,-1.7 12.2,-2.1 44.8,-5.2 68.2,-6.5 38.4,-2.1 70.2,1.5 98.8,11.3 6.7,2.3 24.5,10.9 28.8,14.1 l 2.9,2 16.6,-16.6 16.7,-16.6 21.5,-1.1 c 21,-1 37.1,-1.9 75.5,-4 10.5,-0.6 27.3,-1.5 37.5,-2 10.2,-0.6 26.6,-1.4 36.5,-2 42.3,-2.3 58,-3.1 75.3,-4 26.3,-1.4 52.1,-2.8 72.7,-4 24.7,-1.3 53.5,-2.9 75.3,-4 27.4,-1.5 52.6,-2.9 73.2,-4 10.2,-0.5 27.1,-1.5 37.5,-2 10.5,-0.6 27.2,-1.5 37.3,-2 10,-0.6 26.4,-1.4 36.5,-2 48,-2.6 55.4,-3 65.1,-3.6 l 10.4,-0.7 0.6,13.4 c 0.3,7.4 0.8,22.4 1.1,33.4 0.6,22.8 1.5,40.8 2.1,41.4 0.3,0.3 15.4,-14.4 33.7,-32.5 33.3,-33.1 40.3,-39.1 55.3,-47.8 13.7,-7.9 38.6,-17.3 53.4,-20 1.9,-0.4 7.3,-1.4 12,-2.3 11.2,-2.2 62.4,-2.5 74.5,-0.5 25.9,4.3 39.4,8.6 61.8,19.4 13.1,6.4 16.6,8.5 16.1,9.7 -0.3,0.9 -1,3 -1.4,4.6 -0.8,2.8 -2.7,9.2 -10.2,34 -1.6,5.5 -3.3,11.4 -3.8,13 -0.5,1.7 -1.8,6.2 -3,10 -1.2,3.9 -2.5,8.4 -3,10 -3.2,11.5 -6.9,23.5 -7.8,25.1 -0.7,1.3 -49.9,51 -54.7,55.3 -0.2,0.2 -7.5,-3.1 -16.2,-7.4 -29.3,-14.3 -42.3,-18.2 -64.9,-19.2 l -13.3,-0.6 0.6,2.2 c 1.5,5.8 13,15.4 26.8,22.4 12.6,6.4 15,7.3 43.8,17.3 39.9,13.8 62.4,26.1 87,47.4 3.7,3.2 15.5,17.2 19.4,23 24.6,36.6 29.7,91.5 12.4,134.7 -5.3,13.5 -16.6,32.3 -24.9,41.7 -8.7,9.9 -62.5,63.4 -70.3,70 -19,16.1 -41.9,28.4 -64.9,34.7 -8.6,2.4 -10.8,3 -15.5,4 -38.7,8.1 -76.9,7.7 -117.3,-1 -9.4,-2.1 -28,-7.9 -33.9,-10.6 -1.7,-0.8 -3.6,-1.5 -4.3,-1.5 -0.6,0 -5.4,4.2 -10.7,9.4 -7.6,7.5 -10.4,9.6 -13.2,10.1 -2,0.3 -13,1 -24.6,1.6 -22.7,1.1 -45.3,2.2 -74.7,3.9 -10.4,0.5 -27.1,1.5 -37.3,2 -24.3,1.3 -50.5,2.7 -74.5,4 -10.7,0.6 -27.1,1.5 -36.5,2 -9.3,0.6 -23.6,1.3 -31.7,1.6 l -14.8,0.7 v -6.4 c 0,-5.4 -2.5,-86.3 -4.5,-144.9 -0.3,-9.1 -2.1,-65.3 -4,-124.8 -1.9,-59.6 -3.7,-108.7 -3.9,-109 -0.4,-0.7 -16.8,0 -49.6,2.1 l -18.5,1.2 0.2,11 c 0.3,13.8 2.1,72.1 5.3,172 0.5,17.1 1.4,45.9 2,64 0.6,18.2 1.5,45.1 1.9,60 l 0.9,26.9 -27.5,27.6 -27.5,27.5 -15.7,0.7 c -8.6,0.4 -23.9,1.2 -34.1,1.7 -37.4,2.1 -60.3,3.2 -60.6,2.9 -0.3,-0.3 -0.6,-9.5 -2.4,-67.3 -0.5,-17.6 -1.2,-38.7 -1.5,-47 -1.3,-38.6 -1.6,-47.1 -2.5,-78 -0.5,-18.1 -1.2,-38.6 -1.5,-45.5 -0.3,-6.9 -0.7,-22.6 -1,-35 -0.3,-12.4 -0.8,-25.6 -1,-29.5 -0.3,-3.8 -0.8,-18.7 -1.1,-33 -0.4,-14.3 -0.9,-31.3 -1.3,-37.9 l -0.6,-11.9 -10.9,0.2 c -6.1,0.1 -15.5,0.6 -21,1.1 -5.6,0.5 -13.1,0.9 -16.7,1 h -6.7 l -0.7,7.2 c -3.1,34.6 -16.6,63 -42.4,89.6 -5,5.2 -9.1,9.6 -9.1,9.9 0,0.3 1.9,2.6 4.3,5.3 9.8,10.8 19.2,26.8 26.1,44 4.8,11.8 6.4,16.9 11.1,34.5 2,7.7 5,18.7 6.6,24.5 1.6,5.8 3.4,12.3 4,14.5 0.6,2.2 1.5,5.1 1.9,6.5 0.4,1.4 1.8,5.9 2.9,10 4.5,15.4 12.4,38.7 15.1,44 1.5,3 5.2,9.6 8,14.5 17,29 16.2,27.5 14.8,29.3 -0.7,0.9 -13,13.4 -27.4,27.8 l -26.1,26.1 -14.4,0.7 c -7.9,0.3 -22.3,1.1 -31.9,1.6 -9.6,0.5 -26,1.4 -36.5,1.9 -10.4,0.6 -22.6,1.3 -27,1.7 l -8,0.6 -6.2,-10.3 c -3.5,-5.7 -7.8,-14.2 -9.7,-18.9 -6.1,-15.2 -17,-51.4 -25.6,-85 -7.3,-28.6 -12.2,-41.6 -19.3,-51.4 -4.3,-5.9 -11.7,-12 -12.9,-10.8 -0.5,0.5 -0.4,13.3 0.2,29.8 0.6,15.9 1.5,41.1 2,55.9 0.6,14.9 1,30.5 1,34.7 v 7.7 l -27.5,27.5 -27.5,27.4 -13.7,0.6 c -7.6,0.4 -21.2,1.1 -30.3,1.6 -9.1,0.5 -25,1.4 -35.5,2 -18.2,0.9 -35.9,1.9 -75,4 -38.4,2.1 -57.3,3.1 -63.6,3.4 l -6.6,0.3 -1.7,-4.6 c -1,-2.5 -3.1,-8.2 -4.8,-12.6 -1.6,-4.4 -4.3,-11.5 -5.9,-15.7 -1.6,-4.3 -4.3,-11.5 -6,-16 -14.3,-38.3 -24.1,-64.1 -29.1,-77.1 l -3,-7.7 -12.7,0.5 c -6.9,0.4 -18.1,1 -24.9,1.6 -6.8,0.5 -16.4,1 -21.5,1 -5.1,0.1 -10.5,0.4 -12.2,0.8 -3,0.6 -3.4,1.5 -8.6,19.9 -0.5,1.7 -1.3,4.7 -1.8,6.5 -0.5,1.7 -3.3,11.1 -6.1,20.7 -2.8,9.6 -5.6,19.1 -6.1,21 -0.6,1.9 -1.4,4.9 -1.9,6.5 -0.5,1.7 -1.4,4.8 -2,7 -0.9,3.3 -6.1,9 -28.6,31.6 l -27.5,27.6 -21.2,1.2 c -11.7,0.6 -28.6,1.6 -37.7,2.1 -9.1,0.5 -25.4,1.5 -36.3,2.1 -10.8,0.7 -19.9,1 -20.2,0.7 -0.3,-0.3 0.4,-3.1 1.4,-6.4 1.1,-3.2 1.8,-6 1.6,-6.2 -0.2,-0.2 -4.8,1.4 -10.2,3.6 -23.1,9.3 -48.8,15.5 -84.3,20.2 -8.5,1.1 -53.5,2.1 -62,1.4 z M 321,637 c 46.2,-4 81,-12.7 109.9,-27.2 7.3,-3.8 14.6,-6.8 16.2,-6.8 2.8,0 2.9,0.2 2.9,4.3 0,2.4 -0.9,7 -2,10.2 -1.1,3.2 -1.8,6 -1.6,6.2 0.2,0.2 7.3,-0.1 15.7,-0.6 8.5,-0.6 24.6,-1.5 35.9,-2.1 11.3,-0.6 24.6,-1.3 29.6,-1.6 l 9.1,-0.6 27.5,-27.6 27.5,-27.7 7.2,-25 c 4,-13.7 9.6,-32.9 12.4,-42.6 l 5.2,-17.7 9,-0.6 c 5,-0.3 17.8,-1.1 28.5,-1.7 10.7,-0.5 27.1,-1.4 36.5,-1.9 9.3,-0.5 17.3,-0.6 17.7,-0.2 0.7,0.7 6.7,16.4 39.3,103.2 5.9,15.7 11,28.8 11.4,29.2 0.3,0.4 8.3,0.3 17.6,-0.2 36.9,-1.9 56.4,-3 65.8,-3.6 l 9.8,-0.7 8.4,-8.3 c 7.4,-7.4 8.9,-8.4 12,-8.4 h 3.5 v 7.8 7.7 l 13.7,-0.7 c 23.1,-1.1 53.2,-2.8 64,-3.4 l 10.2,-0.7 27.3,-27.3 27.3,-27.3 -0.3,-11.8 c -0.2,-6.5 -1,-31.6 -1.7,-55.8 -0.8,-24.2 -1.5,-48.9 -1.5,-54.9 v -10.9 l 5,0.5 c 3,0.3 8.1,2 12.4,4.2 15.8,7.7 25.5,23.7 34,55.7 2,7.4 4.6,17 5.7,21.4 14,52.3 22.7,78 31.2,91.7 4.9,7.8 2.7,7.3 25.4,5.9 8.1,-0.6 24.3,-1.5 35.8,-2.1 11.6,-0.5 24.6,-1.3 29.1,-1.6 l 8.1,-0.6 25.6,-25.6 c 14.1,-14.1 25.9,-26 26.3,-26.4 0.4,-0.4 -2.7,-6.5 -6.8,-13.5 -12.6,-21.5 -16.6,-33.3 -36.2,-105.1 -9.4,-34.3 -12.9,-44.3 -21.2,-60.1 -6.1,-11.9 -13.1,-21.7 -21.6,-30.4 -8.8,-8.9 -8.7,-9.1 8,-26.1 7.6,-7.8 16.1,-17.5 18.9,-21.6 13.9,-20.7 21.6,-43.4 23,-68 l 0.6,-10.8 16.1,-0.7 c 8.9,-0.3 22.2,-1.1 29.6,-1.6 7.4,-0.5 17.7,-0.9 22.8,-0.9 h 9.2 v 6.2 c 0,3.4 0.4,19.3 1,35.3 1,30.3 2.3,69.7 4,124 0.6,17.6 1.4,45.5 2,62 0.5,16.5 1.4,44.2 2,61.5 2,62.8 3.2,95.5 3.5,95.8 0.2,0.2 9.7,-0.1 21.2,-0.7 11.4,-0.6 30.3,-1.6 41.8,-2.2 11.6,-0.5 22,-1.2 23.2,-1.4 1.2,-0.3 14.4,-12.7 29.3,-27.6 l 27,-27.1 v -8.2 c 0,-4.4 -0.4,-19.8 -1,-34.1 -0.5,-14.3 -1.4,-40.8 -2,-59 -0.5,-18.1 -1.7,-53.5 -2.5,-78.5 -1.4,-41.5 -2.2,-67.8 -4.1,-132.1 l -0.7,-22.6 15.9,-0.7 c 8.7,-0.4 22,-1.2 29.4,-1.7 7.4,-0.5 17.1,-0.9 21.4,-0.9 h 7.9 l 5,-5 c 4,-4 5.6,-5 8.3,-5 h 3.4 v 10.3 c 0,5.6 0.4,22.4 1,37.2 1.1,29 3.4,98.7 5,151.5 3,96.6 4.6,148.6 5.6,176.3 l 0.7,18.7 h 6.7 c 3.7,0 13.6,-0.4 22.1,-1 8.5,-0.5 24.4,-1.4 35.4,-2 37.4,-2 57,-3 74.5,-4 9.6,-0.5 26.3,-1.4 37,-2 10.7,-0.6 27.2,-1.5 36.5,-2 9.4,-0.5 27.1,-1.5 39.5,-2.1 l 22.5,-1.2 12,-11.8 c 13.8,-13.6 14.6,-13.9 24.3,-9 7.9,4 24.1,9.6 36.5,12.5 52.9,12.8 111.3,7.7 154.2,-13.4 20.9,-10.3 26,-14.4 64.8,-52.9 19.8,-19.6 38.7,-39.2 42.1,-43.6 36.7,-47.2 38.1,-114.7 3.2,-161.1 -5,-6.8 -18.4,-19.8 -26.6,-26.1 -16.9,-12.8 -41.9,-24.8 -75.5,-36.3 -41.1,-14.1 -60,-24.7 -68.9,-38.8 -3.1,-5 -5.6,-13.3 -5.6,-19 v -4.4 l 21.8,0.5 c 29.3,0.6 42.6,3.7 67.3,15.6 5.9,2.8 11.1,5.1 11.7,5.1 0.6,0 13,-11.9 27.5,-26.5 23,-23 26.6,-27.1 27.5,-30.8 0.6,-2.3 5.6,-19.3 11.2,-37.7 5.5,-18.4 10,-34 10,-34.6 0,-1.5 -22.1,-11.8 -32.8,-15.3 -19.4,-6.4 -44.1,-10.1 -66.7,-10.1 -49,0 -91,14.5 -122.5,42.3 -15.6,13.7 -68.2,67.8 -74.2,76.2 -15,21.3 -23,44.7 -24.4,71.8 l -0.7,12.5 -10.6,0.6 c -15.4,0.9 -42.6,2.4 -65.6,3.6 -11,0.6 -27.4,1.5 -36.5,2 -9.1,0.5 -22.6,1.2 -30.1,1.6 l -13.7,0.7 -0.6,-8.4 c -0.3,-4.6 -0.8,-16.5 -1.1,-26.5 l -0.6,-18.1 19.3,-1.1 c 10.6,-0.7 28.1,-1.7 38.8,-2.2 10.7,-0.6 26.4,-1.5 34.9,-2 8.5,-0.6 18.2,-1 21.5,-1 h 6.1 l 27.5,-27.5 27.5,-27.5 -0.3,-14.8 c -0.4,-21.3 -2.2,-63.5 -2.7,-64 -0.2,-0.2 -9.3,0.1 -20.2,0.7 -10.9,0.6 -36.4,2 -56.8,3.1 -20.3,1.1 -45.2,2.4 -55.2,3 -38.8,2.1 -56.1,3.1 -93.3,5.1 l -38.5,2.1 -4.5,4.4 c -3.5,3.3 -5.3,4.4 -7.8,4.4 -2.9,0 -3.2,-0.3 -3.8,-4.1 l -0.7,-4 -8.6,0.5 c -8.9,0.6 -19.5,1.2 -83.1,4.6 -20.6,1.1 -45.6,2.4 -55.5,3 -22.7,1.3 -141.5,7.7 -167.5,9 -10.7,0.5 -23.3,1.3 -28,1.6 l -8.4,0.7 -18.9,18.8 c -21.7,21.8 -21.2,21.5 -30.5,14.7 -12.6,-9.4 -33.9,-18.5 -52.9,-22.7 C 1071.5,65.5 994.3,70 931,85.7 l -14.4,3.6 -27.3,27.2 -27.3,27.3 v 10.8 c 0,6 0.4,22.4 1,36.4 0.5,14 1.4,41.3 2,60.5 0.6,19.3 1.5,48.1 2,64 0.5,16 1.4,43.9 2,62 0.5,18.2 1.2,39.4 1.6,47.3 l 0.5,14.2 h -3.5 c -3.4,0 -3.5,-0.1 -6.4,-7.7 -1.7,-4.3 -16.4,-43.1 -32.7,-86.3 -16.4,-43.2 -32,-84.3 -34.7,-91.5 -2.7,-7.1 -5.3,-14.1 -5.8,-15.5 -0.4,-1.4 -8.3,-22.3 -17.5,-46.5 -9.2,-24.2 -17.6,-46.2 -18.6,-49 -1.1,-2.7 -5.9,-15.6 -10.8,-28.5 l -8.9,-23.5 -6.4,0.2 c -7,0.2 -39.2,1.9 -65.3,3.3 l -17,1 -27.7,27.8 -27.6,27.7 -20.7,69 c -55.9,186.6 -78.6,261.8 -79.1,262.6 -0.3,0.5 -2,0.9 -3.8,0.9 -3.1,0 -3.4,-0.3 -4.6,-4.5 -0.7,-2.5 -1.5,-4.5 -1.7,-4.5 -0.3,0 -5,2.5 -10.5,5.6 -21.9,12.1 -47.7,19.6 -77.3,22.5 -17.2,1.7 -49.2,0.6 -61.6,-2 -41.4,-8.8 -69.9,-30.6 -87.8,-66.8 -7.8,-15.9 -12.8,-33.2 -15.6,-54.4 -2.7,-20.6 -1.7,-62.4 1.9,-78.9 3.5,-16.2 6.9,-26.8 12.3,-38.2 l 3.6,-7.7 11.1,-4.4 C 272.9,242.3 287,239 308,237 c 34.6,-3.1 66.1,1.3 94.4,13.1 l 11.9,5 2.5,-2.3 c 11,-10 51.1,-51.1 51.6,-53 0.8,-2.8 14,-54 17.1,-66.3 1.3,-4.9 2.2,-9.1 2.2,-9.1 -0.1,-0.1 -3.8,-1.9 -8.2,-3.9 C 427,95.9 344.5,96.2 281.7,121.1 255.2,131.6 233.8,144.6 212,163.6 194.2,179 137.1,237.6 127.8,250 94.5,294.3 78,345.4 78,404 c 0,54.2 13.9,103.8 39.8,142.6 20.3,30.3 45.3,52.2 77.7,67.9 37.6,18.3 82.1,26.3 125.5,22.5 z M 1715.5,210 c 44.4,-2.4 56.2,-3 74.5,-3.9 10.7,-0.6 22.7,-1.3 26.6,-1.7 l 7.2,-0.6 0.7,-8.7 c 1,-14 4.2,-29.1 8.5,-40.2 1.1,-3 2,-5.8 2,-6.3 0,-0.5 -5.9,4.9 -13,12 -15.3,15.1 -11.4,13.8 -44,15.4 -11.8,0.6 -28.9,1.5 -38,2 -9.1,0.5 -22.6,1.2 -30,1.5 -7.4,0.3 -15.4,0.8 -17.8,1.1 l -4.2,0.5 v 11.7 c 0.1,6.4 0.3,13.2 0.7,15 0.6,3.8 -0.9,3.7 26.8,2.2 z"
       id="path2" />
    <path
       d="M 330.5,578.4 C 262.2,572.7 207.9,542.4 174,491 c -14.7,-22.4 -26.3,-51.9 -31.9,-81 -4.1,-21.9 -4.6,-27.8 -4.6,-60.5 0,-32.7 0.4,-37.6 4.7,-59 14.5,-72.8 60.5,-131.1 127.1,-161.2 22.5,-10.2 43,-15.9 74.2,-20.5 12.5,-1.8 70.7,-1.8 83,0 20.4,3.1 37.5,7.6 50.1,13.3 l 6.7,2.9 -0.6,4.8 c -0.3,2.6 -3.3,14.8 -6.5,27.2 -3.3,12.4 -6.8,25.8 -7.8,29.7 -1.8,7.2 -1.9,7.3 -5.1,7.3 -1.8,0 -7,-1.6 -11.6,-3.5 -20.6,-8.5 -43.1,-12.8 -67.7,-12.8 -19.2,0 -30.7,1.3 -48,5.5 -30.6,7.3 -53.4,20 -73.2,40.7 -22.5,23.4 -35.4,51.3 -41.5,89.6 -2.4,15.2 -2.3,47.7 0.1,63.5 8.6,55.5 34.1,94.3 75.7,115.1 23.7,11.8 54.6,17.4 82.7,15 32.5,-2.9 55.6,-8.8 78.8,-20.2 7.7,-3.7 13.4,-5.9 15.6,-5.9 h 3.4 l 4.8,16.3 c 2.6,8.9 6.5,22.2 8.6,29.6 2.2,7.4 4,15.1 4,17.2 v 3.8 l -11.2,5.5 c -22.7,11 -51.9,18.8 -87.8,23.2 -12,1.4 -55,2.6 -65.5,1.8 z m 50.2,-15.9 c 28.7,-2.7 50.9,-7.3 74,-15.1 11.3,-3.8 22.3,-8.9 22.3,-10.2 0,-0.4 -2.3,-8.4 -5,-17.7 -2.8,-9.3 -5,-17 -5,-17.1 0,-0.1 -5,1.8 -11,4.2 -13.9,5.6 -33.6,10.7 -52.1,13.5 -19.1,2.8 -52.9,3.1 -69.5,0.5 -28.3,-4.3 -50.6,-13.4 -70.2,-28.5 C 224.6,461.4 204,410.9 204,344.6 c 0,-36.7 6.6,-67.8 20.1,-95.1 7.8,-15.8 16.8,-28.2 29.2,-40.2 30.7,-29.7 67.1,-43.9 120.2,-46.9 23.7,-1.3 62.3,4.1 79.7,11.1 1.9,0.8 2.1,0.2 8.2,-23.9 2.8,-10.8 3.3,-14.2 2.3,-14.8 -2.3,-1.4 -20.2,-6.7 -28.2,-8.3 -14.6,-3 -31.8,-4.5 -50.5,-4.5 -125.4,-0.1 -216.6,77.5 -231.5,196.9 -1.7,13.5 -2,45.6 -0.5,58.6 5,42.8 15.8,74.6 35.6,104.5 13.1,19.9 33.5,39.6 53.9,52 39.8,24.3 85.1,33.6 138.2,28.5 z"
       id="path4" />
    <path
       d="m 507,561.4 c 0,-1.6 7.2,-26.8 15.9,-55.9 8.8,-29.2 30.4,-101.1 48.1,-160 17.7,-58.8 41.5,-138.2 53,-176.3 11.4,-38.1 21,-69.5 21.2,-69.8 0.3,-0.2 8.5,-0.8 18.4,-1.4 49.6,-2.6 66.6,-3.2 67.3,-2.4 0.4,0.5 3.3,7.7 6.4,15.9 6.9,18.4 24.5,65.1 36.2,96 4.8,12.7 9.8,25.7 11,29 1.3,3.3 6.9,18.2 12.5,33 5.6,14.9 14.6,38.7 20,53 5.4,14.3 13.5,35.7 18,47.5 4.5,11.8 13.9,36.8 21,55.5 7.1,18.7 16.5,43.7 21,55.5 4.4,11.8 11,29.2 14.6,38.6 3.5,9.4 6.4,18.6 6.4,20.5 v 3.6 l -21.2,1.1 c -11.7,0.7 -30.4,1.7 -41.6,2.4 -11.1,0.6 -20.4,0.9 -20.6,0.7 -0.1,-0.2 -8.8,-22.9 -19.1,-50.4 C 785.1,470 773.8,440.1 770.4,431 l -6.2,-16.5 -5.4,0.2 c -15.6,0.8 -67.1,3.5 -99.3,5.3 -9.3,0.5 -19.3,1 -22.1,1 -2.7,0 -5.8,0.6 -6.7,1.3 -1,0.7 -4.7,11.8 -9.7,29 -4.4,15.2 -11.6,40.2 -16.1,55.5 -4.5,15.2 -9.7,33.3 -11.7,40.2 -1.9,6.9 -3.7,12.7 -3.9,13 -0.5,0.5 -36.8,2.6 -63.5,3.6 l -18.8,0.7 z m 50.6,-14.5 19.1,-1.2 19.9,-68.4 c 10.9,-37.7 20.2,-68.9 20.5,-69.4 0.3,-0.5 8.4,-1.4 18,-1.9 9.6,-0.5 26.2,-1.4 36.9,-2 10.7,-0.6 27.2,-1.5 36.5,-2 46.2,-2.5 66.6,-3.3 67.4,-2.4 0.5,0.5 10.3,26.1 21.9,56.9 11.6,30.8 22.8,60.4 24.8,65.9 l 3.8,9.9 14.5,-0.8 c 8,-0.4 19.6,-1 25.7,-1.4 l 11.1,-0.6 -7.4,-19.5 c -4,-10.7 -10.8,-28.5 -14.9,-39.5 -4.2,-11 -10.7,-28.1 -14.4,-38 -21.8,-57.8 -27.5,-72.7 -33.5,-88.5 -3.7,-9.6 -8.2,-21.5 -10,-26.5 -1.9,-4.9 -8.8,-23.4 -15.5,-41 -6.7,-17.6 -13,-34.2 -14,-37 -1,-2.7 -7.3,-19.4 -14,-37 -6.7,-17.6 -13,-34.2 -14,-37 -1,-2.7 -6.1,-16.2 -11.3,-30 l -9.5,-25 -3.3,0.1 c -9.4,0.2 -53.7,2.6 -55.9,3 -2.4,0.4 -3.5,3.7 -25.3,76.2 -12.5,41.6 -41.1,137.1 -63.7,212.2 -22.6,75.1 -41.7,138.6 -42.5,141.3 l -1.4,4.7 h 5.7 c 3.1,0 14.3,-0.5 24.8,-1.1 z"
       id="path6" />
    <path
       d="m 627,366.3 c 0,-1.7 8.8,-32.4 19.6,-68.4 10.7,-36 21.8,-73.9 24.5,-84.4 5.5,-21.6 12.9,-53.9 12.9,-56.6 0,-1.5 0.8,-1.9 4,-1.9 h 3.9 l 2.1,7.3 c 13.1,45 17.7,57.9 62.6,176 3.5,9.3 6.4,18.4 6.4,20.3 0,3.1 -0.2,3.4 -3.1,3.4 -1.7,0 -10.6,0.5 -19.7,1 -9.2,0.6 -33.6,1.9 -54.2,3 -20.6,1.1 -42.3,2.3 -48.2,2.6 L 627,369.3 Z M 681,351 c 9.6,-0.5 27.2,-1.5 39,-2.1 11.8,-0.7 21.7,-1.3 21.8,-1.5 0.2,-0.1 -5.1,-14.8 -11.8,-32.6 -24.5,-64.6 -30.8,-81.5 -35,-94.3 -2.3,-7.1 -4.5,-13.3 -4.9,-13.7 -0.3,-0.4 -3,8.4 -5.8,19.5 -2.9,11.1 -11.6,41.1 -19.3,66.7 -7.7,25.6 -14.8,49.5 -15.9,53.2 l -1.9,6.8 8.1,-0.5 c 4.5,-0.3 16.1,-0.9 25.7,-1.5 z"
       id="path8" />
    <path
       d="m 654,343.4 v -4.5 l 3.8,0.3 c 3.6,0.3 3.7,0.4 4,4.6 l 0.3,4.2 h -4 -4.1 z"
       id="path10" />
    <path
       d="m 934.6,534.9 c -0.3,-3.5 -1,-23.9 -1.6,-45.4 -0.6,-21.4 -1.5,-51.6 -2,-67 -0.5,-15.4 -1.4,-43.1 -2,-61.5 -0.5,-18.4 -1.5,-46.1 -2,-61.5 -0.5,-15.4 -1.5,-44.2 -2,-64 -0.6,-19.8 -1.8,-55.1 -2.5,-78.5 -0.8,-23.4 -1.5,-47.7 -1.5,-54.1 V 91.4 l 11.3,-2.7 c 28.5,-6.8 52,-10.1 92.7,-13.2 34.3,-2.6 67.5,-1.5 89.5,3 51.1,10.4 85.6,42 95.5,87.5 7.2,32.8 2.9,71 -10.8,96 -9.2,16.8 -23.1,32.4 -38.3,43.2 l -8.9,6.3 2.7,2 c 14.3,10.4 25,23.8 34,42.3 6.1,12.8 8.9,21.2 17.8,53.7 18.2,66.9 24.4,85.1 34.5,102.4 2.2,3.9 4,8.3 4,9.9 v 2.9 l -8.2,0.6 c -4.6,0.4 -23,1.4 -41,2.3 -27.3,1.5 -33,1.5 -34.3,0.4 -6,-5 -17.9,-40.9 -34.4,-103.6 -6.1,-23.1 -8.9,-31.2 -14.9,-42.6 -10.6,-20.3 -26.4,-31.1 -49.6,-33.8 -7.5,-0.8 -46.4,0.3 -52.5,1.6 -2.3,0.5 -2.3,0.5 -1.7,11.7 0.4,6.2 1.1,26.1 1.7,44.2 1.5,49.6 2.7,89.7 3.5,112.3 l 0.7,20.2 h -7.4 c -4.1,0 -13.7,0.4 -21.4,1 -7.7,0.5 -22.2,1.2 -32.2,1.6 l -18.1,0.7 z M 972,524.5 c 6.9,-0.3 15.7,-0.8 19.6,-1.1 l 7,-0.5 -0.3,-5.7 c -0.1,-3.1 -0.7,-22.3 -1.3,-42.7 -0.6,-20.3 -1.5,-48.9 -2,-63.5 -0.5,-14.6 -1.2,-37.6 -1.6,-51.1 l -0.7,-24.6 11.9,-0.7 c 6.6,-0.4 20.2,-1.1 30.2,-1.8 44.1,-2.7 68.2,5.5 84.7,28.6 9.1,12.9 15,27.6 22,54.5 12.3,46.9 21.7,77.9 28.2,92.3 l 2.7,6 4,-0.6 c 2.3,-0.3 10,-0.8 17.1,-1.1 7.2,-0.3 16.2,-0.8 20.2,-1.1 l 7.1,-0.6 -1.5,-3.6 c -5.2,-12.2 -19.4,-59.2 -29.8,-98.7 -9.9,-37.4 -19.4,-56.8 -35.9,-73 -8.6,-8.4 -17.3,-14.2 -26.8,-17.7 -5.7,-2 -5.8,-2.1 -5.8,-5.9 v -3.8 l 10.3,-5.2 c 35.6,-17.9 58.2,-46.7 65.2,-83.3 2.1,-10.5 2.1,-29.7 0,-40.2 -8.4,-43.8 -36.6,-72.7 -82.3,-84.3 -16.7,-4.3 -27.6,-5.4 -53.2,-5.4 -37.9,-0.1 -85.7,5.2 -118.2,13 l -6.8,1.6 v 6.1 c 0,3.4 0.4,17.6 1,31.6 0.5,14 1.4,41 2,60 0.6,19 1.5,48 2,64.5 1.1,32.4 2.4,73.1 4,124.5 0.6,17.9 1.5,45.6 2,61.5 0.5,16 1.2,39.1 1.6,51.3 l 0.7,22.4 5.1,-0.6 c 2.8,-0.3 10.7,-0.8 17.6,-1.1 z"
       id="path12" />
    <path
       d="m 990.6,275.9 c -0.8,-30.2 -2.4,-80.5 -3.6,-113.2 -0.5,-14.2 -0.6,-26.5 -0.4,-27.2 1.4,-3.6 42.3,-9.4 66,-9.5 12.8,0 23.9,1.2 37.3,4.2 29.8,6.5 48.4,23.1 56.2,50 2.6,9.1 3.7,33.6 2,44.5 -5.6,35.8 -32.7,60.8 -74.9,68.9 -6.9,1.3 -30.2,3 -68.3,4.9 l -13.6,0.7 z m 55.9,5 c 22.1,-1.6 34,-4.5 48.6,-12 24.6,-12.7 38.9,-35.4 38.9,-61.6 0,-25.2 -12.2,-45.9 -33,-56.1 -16.8,-8.3 -36.4,-11.3 -61.2,-9.4 -16.1,1.3 -34.7,3.9 -36.8,5.2 -1.4,0.8 -0.6,38 2.1,102.5 0.5,12.6 0.9,25.4 0.9,28.3 v 5.3 l 13.3,-0.6 c 7.2,-0.3 19.5,-1 27.2,-1.6 z"
       id="path14" />
    <path
       d="m 1010,273.3 c 0,-2.7 -0.5,-20 -1.1,-38.6 -0.7,-18.6 -0.9,-34 -0.6,-34.4 0.8,-0.8 17.8,1.4 25.2,3.3 19.7,5 35,18.7 39.4,35.1 1.7,6.3 3.1,23.1 2.4,29.4 l -0.6,5.7 -7.6,1.1 c -9.6,1.4 -34.6,3.1 -47.3,3.1 h -9.8 z m 34,-7.8 c 5.8,-0.2 12.7,-0.8 15.4,-1.1 l 4.8,-0.7 -0.5,-8.1 c -0.9,-14.6 -5.7,-24.6 -15.2,-31.8 -5.4,-4.1 -17.3,-9.1 -24.2,-10.3 l -4.3,-0.7 v 14.4 c 0,7.8 0.3,20 0.7,27 l 0.6,12.7 6.1,-0.4 c 3.4,-0.3 10.8,-0.7 16.6,-1 z"
       id="path16" />
    <path
       d="m 1366.6,509.8 c -0.3,-4.6 -1.5,-38.7 -2.6,-75.8 -1.2,-37.1 -2.5,-80.5 -3,-96.5 -1.1,-34.7 -4.8,-149.9 -5.8,-181.7 -0.4,-12.4 -0.9,-22.8 -1.2,-23 -0.3,-0.3 -6.6,-0.1 -14,0.4 -32.8,1.9 -107.9,5.8 -112.1,5.8 h -4.6 l -0.7,-19.2 c -0.3,-10.6 -0.9,-26.5 -1.2,-35.4 l -0.7,-16.1 8.9,-0.7 c 4.9,-0.3 17.3,-1.1 27.7,-1.6 10.3,-0.6 27,-1.4 37.2,-2 10.2,-0.5 26.8,-1.4 37,-2 10.2,-0.5 26.8,-1.4 37,-2 10.2,-0.5 26.8,-1.4 37,-2 10.2,-0.5 26.7,-1.4 36.8,-2 10,-0.5 27,-1.4 37.7,-2 10.7,-0.6 27.2,-1.5 36.5,-2 9.4,-0.6 23.8,-1.3 32.1,-1.6 l 15.1,-0.7 0.6,14.9 c 0.4,8.2 1,24.2 1.3,35.6 0.7,20 0.6,20.8 -1.2,20.8 -1,0 -9.3,0.5 -18.4,1 -9.1,0.5 -24.8,1.4 -35,2 -57.7,3.1 -76.5,4.1 -76.6,4.3 -0.1,0.1 0.2,10.1 0.7,22.2 0.4,12.1 1.2,37.5 1.8,56.5 1.8,55.4 3,94.4 4.1,127 0.5,16.8 1.5,45.6 2,64 0.6,18.4 1.5,45 2,59 0.6,14 1,32.5 1,41.2 v 15.6 l -8.2,0.6 c -11.1,0.9 -62.1,3.6 -66.9,3.6 h -3.7 z m 43.8,-9 20.9,-1.2 -0.7,-21 c -0.4,-11.6 -1.1,-34.4 -1.6,-50.6 -1.5,-47.1 -2.9,-90 -4,-125 -2,-63.4 -4,-124.9 -5.1,-156.3 -0.6,-17.5 -0.8,-32.1 -0.6,-32.4 0.6,-0.5 16.8,-1.6 49.2,-3.3 11.6,-0.6 28.2,-1.5 37,-2 8.8,-0.5 22.7,-1.2 30.9,-1.6 l 14.9,-0.7 -0.7,-7.5 c -0.3,-4.1 -0.6,-12.7 -0.6,-19.1 0,-6.4 -0.4,-12.3 -0.9,-13 -1,-1.5 -9.9,-1.3 -65.6,1.9 -8.8,0.5 -24.8,1.4 -35.5,2 -10.7,0.6 -27.7,1.5 -37.7,2 -10.1,0.6 -26.5,1.4 -36.5,2 -10.1,0.5 -27.1,1.4 -37.8,2 -10.7,0.6 -26.7,1.5 -35.5,2 -8.8,0.5 -26.8,1.4 -40,2.1 l -24.1,1.3 0.3,9.5 c 0.2,5.3 0.6,14.6 0.9,20.6 l 0.6,11 11.6,-0.7 c 6.5,-0.3 21.6,-1.1 33.7,-1.8 12.1,-0.6 28.8,-1.5 37,-2 8.3,-0.5 22.5,-1.2 31.6,-1.6 l 16.7,-0.7 0.6,15.4 c 0.3,8.5 1.1,30 1.6,47.9 0.6,17.9 1.5,46.2 2,63 1,29.6 1.9,58.7 4,126 0.6,17.9 1.5,45.1 2,60.5 0.5,15.4 1.2,38 1.6,50.3 l 0.7,22.2 h 4.1 c 2.2,0 13.5,-0.5 25,-1.2 z"
       id="path18" />
    <path
       d="m 1602.6,491.9 c -0.3,-7.4 -1.1,-27.8 -1.6,-45.4 -1.2,-37.4 -2.6,-83.6 -4,-126.5 -0.6,-16.8 -1.5,-44.7 -2,-62 -1.8,-58.7 -4,-125.4 -5,-153.5 -0.6,-15.4 -1,-34.3 -1,-42.1 V 48.3 l 19.8,-1.2 c 19.4,-1.1 36,-2 74.2,-4.1 10.7,-0.6 27.4,-1.5 37,-2 9.6,-0.5 26.7,-1.4 38,-2 11.3,-0.6 27.3,-1.5 35.5,-2 8.3,-0.5 23.1,-1.3 33.1,-1.6 l 18.1,-0.7 0.6,15.4 c 0.4,8.5 1,24.2 1.3,35.1 l 0.7,19.6 -6.4,0.6 c -3.5,0.3 -15.8,1 -27.4,1.6 -20.3,1 -38.5,2 -74,4 -9.3,0.5 -27.3,1.4 -40,2 -12.6,0.6 -24.5,1.4 -26.4,1.6 l -3.4,0.5 0.6,15.2 c 0.4,8.4 1.2,33.4 1.8,55.7 0.6,22.3 1.5,40.9 1.9,41.3 0.3,0.4 7.8,0.3 16.6,-0.2 8.7,-0.6 24.9,-1.5 35.9,-2.1 11,-0.6 28,-1.5 37.8,-2 26,-1.5 51.6,-2.9 64.8,-3.6 l 11.6,-0.6 0.7,8.4 c 0.3,4.5 0.9,20.3 1.2,34.9 l 0.7,26.7 -8.4,0.6 c -4.6,0.3 -25.7,1.5 -46.9,2.6 -76.8,4 -111.4,6.1 -111.9,6.6 -0.4,0.4 1.2,54.7 3,99.9 0.5,13.2 0.9,25.7 0.9,27.8 v 3.7 h 7 c 3.8,0 13.6,-0.4 21.7,-1 8.2,-0.5 24,-1.4 35.3,-2 24.4,-1.3 49.2,-2.6 72.5,-4 9.4,-0.5 24.5,-1.2 33.6,-1.6 l 16.6,-0.7 0.6,16.4 c 0.4,9 1,24.8 1.3,35.1 l 0.7,18.6 -4.4,0.6 c -2.4,0.3 -14.5,1 -26.9,1.6 -12.4,0.6 -29.9,1.5 -39,2 -9.1,0.5 -25.3,1.4 -36,2 -10.7,0.6 -27.6,1.5 -37.5,2 -9.9,0.5 -26.8,1.4 -37.5,2 -10.7,0.6 -26.7,1.5 -35.5,2 -8.8,0.5 -23.5,1.2 -32.6,1.6 l -16.6,0.7 z M 1645,488 c 11.3,-0.6 28.6,-1.5 38.5,-2 9.9,-0.5 26.4,-1.4 36.8,-2 10.3,-0.5 26.9,-1.4 37,-2 10,-0.5 27,-1.4 37.7,-2 10.7,-0.6 27.2,-1.5 36.5,-2 9.4,-0.5 18.1,-1 19.5,-1 h 2.5 l -0.5,-19.9 c -0.3,-11 -0.7,-20.1 -1,-20.4 -0.3,-0.2 -6.3,-0.1 -13.5,0.4 -7.1,0.4 -22.4,1.2 -34,1.8 -11.5,0.7 -28.6,1.6 -38,2.1 -9.3,0.5 -26.2,1.4 -37.5,2 -11.3,0.6 -27.5,1.5 -36,2.1 -8.5,0.5 -18.2,0.9 -21.6,0.9 h -6.1 l -0.7,-24.7 c -0.4,-13.7 -1.1,-36.5 -1.6,-50.8 -0.5,-14.3 -1.2,-39.6 -1.6,-56.2 l -0.7,-30.1 3.4,-0.6 c 1.9,-0.3 12.9,-1 24.4,-1.6 19.8,-1 31.5,-1.6 75,-4 9.9,-0.5 28.4,-1.5 41,-2.1 12.7,-0.6 23.1,-1.2 23.2,-1.3 0.1,0 -0.1,-9 -0.4,-20 l -0.6,-19.8 -12.6,0.6 c -6.9,0.4 -20,1.1 -29.1,1.6 -9.1,0.5 -25.5,1.4 -36.5,2 -11,0.6 -27.2,1.5 -36,2 -8.8,0.5 -24.4,1.3 -34.6,1.6 l -18.6,0.7 -0.7,-15.4 c -0.9,-21.6 -2.5,-68.4 -3.2,-100.5 l -0.7,-27.1 22.4,-1.2 c 12.3,-0.6 29.8,-1.6 38.9,-2.1 9.1,-0.5 25.5,-1.4 36.5,-2 11,-0.6 27.4,-1.5 36.5,-2 9.1,-0.5 22.4,-1.2 29.5,-1.6 l 13,-0.6 -0.3,-17.2 c -0.1,-9.4 -0.5,-18.6 -0.8,-20.4 l -0.5,-3.3 -5.7,0.6 c -3.1,0.3 -14.7,1 -25.7,1.5 -11,0.6 -27.9,1.5 -37.5,2 -9.6,0.5 -26.3,1.4 -37,2 -47.1,2.5 -57.5,3.1 -74,4 -9.6,0.6 -23.9,1.3 -31.7,1.7 l -14.3,0.6 v 7.4 c 0,4.1 0.4,19.5 1,34.1 0.5,14.7 1.4,41.8 2,60.2 0.6,18.4 1.5,47 2,63.5 0.5,16.5 1.4,44.4 2,62 1.9,61.5 3.1,96.2 4,124.5 0.5,15.7 1.2,39.2 1.6,52.2 l 0.7,23.8 3.6,-0.5 c 2,-0.3 12.8,-1 24.1,-1.5 z"
       id="path20" />
    <path
       d="m 1986,489.3 c -27.2,-2.6 -42.5,-5.5 -60.2,-11.3 -10.8,-3.6 -22.9,-8.9 -29.6,-13.1 -3.3,-2.1 -2.9,-6.8 2.2,-25.9 2.4,-9.1 6.1,-23.1 8.2,-31.2 l 3.9,-14.8 h 3.6 c 2.5,0 7.6,2 16,6.3 28.4,14.5 65.3,22.4 91.5,19.7 18.3,-1.9 32.1,-6 44.1,-13.1 7.2,-4.3 18.1,-15 21.8,-21.3 13.1,-22.5 10.5,-50.6 -6.3,-68.8 -12.9,-13.9 -29.9,-22.8 -68,-35.5 -53.1,-17.7 -81.5,-36 -100.7,-64.8 -13.1,-19.6 -18,-37.6 -17.9,-66 0.1,-18.4 1.4,-27.8 6,-41.3 12.7,-38 44.4,-67.9 87.1,-82.2 10.6,-3.5 23.5,-6.3 37.3,-8.2 12.3,-1.6 50.7,-1.6 63,0 21.4,2.9 41.9,8.6 55.9,15.7 6.9,3.4 7.1,3.7 7.1,7.2 0,2 -4.1,17.5 -9.2,34.5 l -9.2,30.8 h -3.7 c -2.2,0 -7.3,-1.7 -13,-4.4 -55.5,-26 -117.6,-16.8 -136.1,20.1 -7.1,14.3 -7.2,28.4 -0.3,42.8 9,18.6 28.6,30.8 77,47.5 31.1,10.8 46.8,18.2 65.7,30.7 30.2,20.1 47.9,47.4 52.9,81.5 1.8,12.4 1.6,39.4 -0.4,50.8 -10.5,58.1 -56.7,99.7 -123.7,111.1 -18.4,3.1 -50,4.7 -65,3.2 z m 51.2,-16.8 c 47.5,-7.1 83.4,-27.5 105.1,-59.6 7.6,-11.2 15.1,-30.2 17.8,-44.9 1.9,-10.5 1.4,-31.9 -1,-43.6 -9.1,-44.3 -41.8,-74.1 -105.1,-95.7 -47.5,-16.2 -65.4,-25.4 -79.6,-41 -9.9,-10.8 -14.2,-22.8 -15.1,-41.7 -0.6,-13.3 1.4,-23.9 6.7,-34.5 8.9,-18.1 28.1,-31.5 53,-37.1 11.4,-2.5 44.5,-3.1 58.1,-1 14,2.2 29.4,6.1 37.8,9.5 l 6.9,2.9 2.2,-7.7 c 1.2,-4.2 3.8,-12.7 5.6,-18.9 1.9,-6.2 3.2,-11.7 2.9,-12.2 -0.9,-1.4 -16.3,-7 -26,-9.5 -29.5,-7.5 -68.3,-7.9 -96,-0.9 -20.1,5 -41,14.5 -54.5,24.8 -32.4,24.4 -50.1,62.2 -46.1,98 4.4,39.2 25.7,67.2 67.6,88.6 13.7,7 24.6,11.4 49.5,19.7 37.3,12.5 58.2,24.6 70.3,40.6 10.7,14.2 13.2,22.9 13.2,45.7 0,18.1 -1.1,24.2 -6.5,35.8 -9.6,20.6 -31.4,35.8 -59.6,41.7 -20.2,4.2 -51.3,3.8 -74.7,-1 -14.2,-2.9 -23.4,-5.7 -37.6,-11.5 -5.6,-2.3 -10.4,-4 -10.6,-3.9 -0.2,0.2 -2.5,9 -5.3,19.5 l -4.9,19.1 2.6,1.6 c 4.3,2.5 22.1,9.3 30.1,11.5 13,3.5 29.3,6.2 46,7.6 8.8,0.8 37.1,-0.4 47.2,-1.9 z"
       id="path22" />
    <path
       d="m 1684.6,424.9 c -0.9,-2.5 -2.6,-70.3 -1.8,-71 0.4,-0.4 10.8,-1.2 23.2,-1.8 12.4,-0.6 30.2,-1.6 39.5,-2.1 9.4,-0.5 23.8,-1.3 32,-1.6 l 15,-0.6 27.8,-27.7 27.8,-27.6 -0.7,-11.7 -0.7,-11.8 h 3.9 c 3.6,0 4.2,0.5 7.4,5.3 5.2,7.8 21.3,23.3 31.8,30.7 18.7,13.2 40.1,23.2 71.8,33.8 34.8,11.6 51.1,19.9 62.6,32 3.1,3.2 6.5,7.7 7.7,10 3.2,6.4 5.2,16.4 4.9,25 l -0.3,7.7 -7,0.8 c -3.8,0.5 -15.1,0.6 -25,0.4 -33.8,-0.9 -54,-6.9 -90.7,-26.8 l -5.7,-3.1 -15.4,15.5 -15.5,15.4 -13.7,0.7 c -12.2,0.6 -48.3,2.5 -105,5.6 -10.4,0.6 -27.1,1.5 -37,2 -9.9,0.5 -22.2,1.2 -27.2,1.6 -7.4,0.5 -9.4,0.4 -9.7,-0.7 z m 50.2,-12.9 c 10,-0.6 26.5,-1.4 36.7,-2 10.2,-0.5 26.8,-1.4 37,-2 10.2,-0.5 26.9,-1.4 37.2,-2 l 18.7,-0.9 18.4,-18.6 c 10.2,-10.2 18.9,-18.5 19.6,-18.5 0.6,0 9.2,4.5 19.1,10 27,15 43.9,21 68.5,24.5 11,1.5 29.5,2 33.7,0.9 1.8,-0.5 2.1,-1.1 1.6,-4.2 -2.2,-14.5 -11.4,-24.7 -30.9,-34.6 -12.3,-6.1 -22.2,-10 -39.9,-15.6 -35.1,-10.9 -67.7,-28.2 -86.6,-45.8 -3.9,-3.7 -7.6,-6.9 -8.1,-7.1 -0.5,-0.2 -0.8,1.4 -0.6,3.5 0.3,3.8 0.1,4.1 -27,31 l -27.3,27.1 -7.6,0.7 c -4.2,0.4 -16.2,1.2 -26.7,1.7 -30.1,1.5 -53.1,2.8 -65.3,3.5 l -11.3,0.7 v 10.6 c 0,5.8 0.3,17.1 0.7,25 l 0.6,14.4 10.6,-0.7 c 5.8,-0.4 18.8,-1.1 28.9,-1.6 z"
       id="path24" />
  </g>
  <g
     fill="#efb92d"
     id="g40"
     transform="translate(-66.467899,-1.4607572)">
    <path
       d="m 323.5,565.5 c -32.8,-4.1 -58.3,-12.8 -84,-28.5 -35.9,-21.9 -63.9,-58.3 -78,-101.5 -8.8,-26.9 -12.5,-52.4 -12.5,-86 0,-33 3.1,-53.5 12.1,-80.9 27.3,-83.2 96.4,-137.2 189.5,-148.1 25.4,-3 64.9,-1.6 87.9,3 9.5,1.9 26.6,7.1 29.1,8.9 1.6,1.2 1.3,2.8 -4.1,23.7 -3.2,12.3 -5.8,22.5 -5.9,22.6 -0.1,0.1 -2.2,-0.5 -4.6,-1.4 -26.4,-9.2 -57.8,-13.4 -84.4,-11.3 -38.9,3 -68,12.5 -94.1,30.8 -11.1,7.8 -27.1,23.6 -34.9,34.5 -32,44.7 -41.4,115.4 -23.9,178.2 7.2,25.8 18.7,46.9 35,64.5 22.1,23.7 50.2,37.9 86.3,43.6 15.7,2.5 45.4,2.2 63.9,-0.5 23.4,-3.5 48.4,-10.7 63.5,-18.3 2.1,-1.1 4.2,-1.6 4.6,-1.1 0.7,0.7 3.7,10.6 11.1,36.1 l 1.8,6.2 -6.7,3.4 c -13.9,6.9 -41.2,14.9 -63.6,18.6 -29.5,4.8 -65.9,6.3 -88.1,3.5 z"
       id="path28" />
    <path
       d="m 523.1,548.8 c 0.4,-1.8 20,-67 43.4,-144.8 23.4,-77.8 52.7,-175.6 65.2,-217.2 21.8,-72.5 22.9,-75.8 25.3,-76.2 3,-0.6 51.1,-3.1 59.4,-3.1 h 5.8 l 9.5,25 c 5.2,13.8 10.3,27.3 11.3,30 1,2.8 7.3,19.4 14,37 6.7,17.6 13,34.3 14,37 1,2.8 7.3,19.4 14,37 6.7,17.6 13.6,36.1 15.5,41 1.8,5 6.3,16.9 10,26.5 3.7,9.6 11.2,29.4 16.7,44 13.9,36.8 22.6,59.9 30.8,81.5 3.9,10.2 10.1,26.7 13.9,36.8 3.8,10 7.8,20.6 9,23.5 1.1,2.9 2.1,5.4 2.1,5.6 0,0.3 -13.5,1 -44.6,2.3 l -15,0.6 -3.8,-9.9 c -2,-5.4 -13.2,-35.1 -24.8,-65.9 -11.6,-30.8 -21.4,-56.4 -21.8,-56.8 -0.7,-0.8 -9.7,-0.5 -60.5,2.3 -9.9,0.5 -26.5,1.4 -37,2 -10.4,0.6 -27.1,1.5 -36.9,2 -9.9,0.5 -18.2,1.4 -18.5,1.9 -0.3,0.5 -9.6,31.7 -20.5,69.4 l -19.9,68.4 -21.6,1.2 c -11.9,0.6 -24.8,1.4 -28.8,1.6 l -7.2,0.6 z M 682.5,363 c 52.1,-2.8 77,-4.2 77.3,-4.5 0.1,-0.1 -2.6,-7.8 -6.2,-17.1 C 708.7,223.2 704.1,210.3 691,165.3 c -2,-6.9 -4,-9.6 -4,-5.4 0,2.7 -7.4,35 -12.9,56.6 -3.6,13.9 -40.1,138 -43.6,148.3 -0.4,1 1.3,1.1 7.3,0.7 4.2,-0.3 24.4,-1.4 44.7,-2.5 z"
       id="path30" />
    <path
       d="m 945.6,506.8 c -0.4,-12.3 -1.1,-35.3 -1.6,-51.3 -0.5,-15.9 -1.4,-43.6 -2,-61.5 -1.6,-51.4 -2.9,-92.1 -4,-124.5 -0.5,-16.5 -1.4,-45.5 -2,-64.5 -0.6,-19 -1.5,-46 -2,-60 -0.6,-14 -1,-29.6 -1,-34.6 v -9.1 l 6.8,-1.6 c 18.5,-4.4 49.1,-9 80.2,-11.8 20.8,-2 65,-1.7 78.4,0.4 33.6,5.3 55.6,15.4 74.1,34.1 33.2,33.4 38.7,95.4 12.3,138.4 -11.8,19.4 -28,33.8 -50.7,45.2 -5.5,2.8 -10.1,5.4 -10.1,5.9 0,0.5 2.6,1.8 5.8,2.9 14.4,5.3 30.4,18.6 39.7,33.1 10,15.5 15.3,28.9 24,61.2 13.6,50.7 23.9,84.3 30,97.6 l 3.3,7.1 -10.2,0.6 c -5.5,0.3 -17.5,1 -26.6,1.6 -9.1,0.5 -17.5,1 -18.6,1 -1.6,0 -2.8,-1.4 -4.7,-5.8 -6.5,-14.3 -16,-45.5 -28.2,-92.3 -9.1,-35 -17.6,-52.5 -32.3,-66.1 -14.5,-13.4 -37.4,-19 -69.5,-16.9 -8.9,0.6 -21.8,1.3 -28.6,1.7 l -12.3,0.6 0.6,20.7 c 0.4,11.3 1.1,33.4 1.6,49.1 0.5,15.7 1.4,44 2,63 0.5,19 1.2,39.1 1.5,44.7 l 0.6,10.1 -7.3,0.6 c -9,0.7 -43.5,2.6 -46.4,2.6 -2.1,0 -2.2,-0.4 -2.8,-22.2 z M 1038,293.4 c 14,-0.8 28.7,-2.1 32.7,-2.9 36.9,-7.2 61.6,-26.9 71.7,-56.8 6,-17.9 4.2,-46.7 -4.1,-63 -10.1,-20.1 -26.5,-32.1 -51.4,-37.5 -20.4,-4.5 -33.2,-5.1 -56.8,-2.7 -21.5,2.2 -39.6,5.7 -40.3,7.8 -0.3,0.7 -0.1,11.3 0.3,23.7 1.2,34.1 2.8,84.7 3.5,110.8 l 0.7,23.3 9.1,-0.6 c 5,-0.3 20.6,-1.2 34.6,-2.1 z"
       id="path32" />
    <path
       d="m 1378,499.8 c 0,-3.5 -0.5,-19.6 -1,-35.8 -0.5,-16.2 -1.4,-43.7 -2,-61 -0.9,-29.8 -1.6,-49.6 -4,-126 -4.2,-132.4 -5,-156.4 -5.5,-156.8 -0.3,-0.4 -13.5,0.3 -59.5,2.8 -9.6,0.5 -26.5,1.4 -37.5,1.9 -11,0.6 -23,1.3 -26.6,1.7 l -6.7,0.6 -0.6,-11.4 c -0.3,-6.2 -0.8,-17 -1.1,-23.9 l -0.5,-12.5 24.2,-1.3 c 13.4,-0.6 31.5,-1.6 40.3,-2.1 8.8,-0.5 24.8,-1.4 35.5,-2 10.7,-0.6 27.7,-1.5 37.8,-2 10,-0.6 26.5,-1.4 36.7,-2 10.2,-0.5 26.8,-1.4 37,-2 10.2,-0.5 26.8,-1.4 37,-2 76.1,-4.1 70.7,-4 71,-1.5 0.2,1.1 0.6,11.7 0.9,23.6 l 0.7,21.6 -14.8,0.7 c -8.2,0.4 -22,1.1 -30.8,1.6 -8.8,0.5 -25.4,1.4 -37,2 -30.9,1.6 -48.6,2.8 -49.1,3.3 -0.2,0.2 0,12.9 0.6,28.3 0.9,25.5 2.3,70 5,154.9 1.6,49.3 2.9,92.1 4,124 0.5,16 1.3,40.1 1.6,53.6 l 0.7,24.6 -24.4,1.2 c -13.4,0.6 -26.1,1.4 -28.1,1.7 l -3.8,0.4 z"
       id="path34" />
    <path
       d="m 1613.6,469.4 c -0.4,-13.2 -1.1,-36.7 -1.6,-52.4 -0.9,-28.3 -2.1,-63 -4,-124.5 -0.6,-17.6 -1.5,-45.5 -2,-62 -0.5,-16.5 -1.4,-45.1 -2,-63.5 -0.6,-18.4 -1.5,-45.5 -2,-60.2 -0.6,-14.6 -1,-31.3 -1,-37.1 V 59.3 l 14.3,-0.6 c 7.8,-0.4 22.1,-1.1 31.7,-1.7 9.6,-0.5 26.3,-1.4 37,-2 10.7,-0.6 27.4,-1.5 37,-2 28,-1.5 55.1,-3 74.5,-4 9.9,-0.5 22.4,-1.3 27.7,-1.6 l 9.7,-0.6 0.5,3.3 c 0.3,1.9 0.7,12.5 0.9,23.5 l 0.4,20.2 -13.1,0.6 c -7.2,0.4 -20.5,1.1 -29.6,1.6 -9.1,0.5 -25.5,1.4 -36.5,2 -11,0.6 -27.4,1.5 -36.5,2 -9.1,0.5 -26.5,1.5 -38.7,2.1 l -22.3,1.2 v 9.9 c 0,5.4 0.4,22.1 1,37.1 0.5,14.9 1.5,41.1 2.1,58.2 0.5,17 1.2,31.2 1.5,31.4 0.4,0.4 26.5,-0.8 64.9,-2.9 34.2,-1.9 54.5,-3 75,-4 11.6,-0.6 22.4,-1.2 24.1,-1.4 l 3.1,-0.4 0.7,23 c 0.3,12.7 0.5,23.2 0.4,23.3 -0.2,0.2 -10.6,0.8 -23.3,1.4 -12.6,0.6 -31.1,1.6 -41,2.1 -43.5,2.4 -55.2,3 -75,4 -11.5,0.6 -22.5,1.3 -24.4,1.6 l -3.4,0.5 0.7,26.7 c 0.4,14.7 1.1,38.9 1.6,53.7 0.5,14.9 1.3,38 1.6,51.4 l 0.7,24.4 10.6,-0.7 c 5.8,-0.3 18.7,-1 28.6,-1.6 42.7,-2.3 58,-3.1 74.5,-4 9.6,-0.5 26.3,-1.4 37,-2 10.7,-0.5 23.2,-1.3 27.7,-1.6 l 8.1,-0.6 0.6,4.3 c 0.3,2.4 0.7,13.1 0.9,23.7 l 0.3,19.2 h -2.5 c -1.4,0 -10.2,0.5 -19.6,1 -9.3,0.5 -25.8,1.4 -36.5,2 -10.7,0.6 -27.7,1.5 -37.7,2 -10.1,0.6 -26.6,1.5 -36.8,2 -10.2,0.6 -26.8,1.5 -37,2 -10.2,0.6 -26.9,1.4 -37.2,2 -10.4,0.5 -22.4,1.2 -26.9,1.6 l -8.1,0.6 z"
       id="path36" />
    <path
       d="m 1987,477.4 c -16.7,-1.4 -33,-4.1 -46,-7.6 -9.2,-2.5 -28.7,-10.2 -31.8,-12.6 l -2.3,-1.8 2.9,-10.9 c 1.6,-6.1 4.4,-16.4 6.1,-23 1.8,-6.5 3.3,-12.1 3.5,-12.3 0.2,-0.2 2.7,0.8 5.4,2.2 20.9,10.6 48.4,17.9 73.4,19.5 57.2,3.7 96.6,-17.2 107.5,-56.9 1.3,-4.8 1.8,-10.1 1.8,-20 -0.1,-19.6 -3,-29.1 -13.2,-42.7 -12.1,-16 -33,-28.1 -70.3,-40.6 -24.9,-8.3 -35.8,-12.7 -49.5,-19.7 -29.1,-14.9 -47.9,-32.7 -58.5,-55.3 -5.2,-11.1 -7.8,-20.9 -9.2,-34.9 -4.9,-48.1 20.8,-92.3 66.7,-114.7 26.2,-12.8 47.5,-17.3 82.5,-17.4 23.1,0 36.1,1.4 53.7,5.8 7,1.8 26.5,8.7 28,9.9 0.1,0.1 -1.6,6.3 -3.8,13.7 -10.8,35.8 -10.1,34.1 -12.5,32.1 -1.5,-1.4 -16.4,-7 -24.2,-9.1 -4.1,-1.1 -13.2,-3 -20.4,-4.2 -11,-1.8 -15.7,-2 -30.2,-1.6 -27.9,0.8 -44.9,6.1 -61.1,18.9 -15.4,12.2 -24.5,32.6 -23.2,51.8 2.1,30.1 16.6,47.6 53.6,64.3 8.2,3.8 20.6,8.4 41.1,15.4 63.3,21.6 95.9,51.3 105.1,95.7 2.6,12.2 3.1,37.8 1,49.6 -2.6,14.5 -10,33.3 -17.9,45 -21.3,31.7 -57.2,52.2 -104.7,59.5 -9.6,1.5 -44.2,2.7 -53.5,1.9 z"
       id="path38" />
  </g>
  <g
     fill="#383838"
     id="g96"
     transform="translate(-66.467899,-1.4607572)">
    <path
       d="m 2031,412.2 c 0,-0.5 0.7,-1.2 1.5,-1.6 3.4,-1.3 0.7,-18.8 -4.2,-27.8 l -2.7,-4.9 6.2,-6.2 c 3.4,-3.4 10.8,-10.7 16.3,-16.2 5.6,-5.5 10.7,-10.5 11.3,-11.2 0.6,-0.6 5.3,-5.4 10.4,-10.6 l 9.3,-9.4 6.1,-0.6 c 7.3,-0.6 7.6,-0.4 10.8,9.3 1.6,4.6 2.4,10 2.8,18.3 l 0.5,11.7 h -4.3 c -4.2,0 -4.4,0.2 -28.7,24.6 l -24.5,24.6 -5.4,0.5 c -3.4,0.4 -5.4,0.2 -5.4,-0.5 z"
       id="path42" />
    <path
       d="m 1535.7,394.8 c -0.2,-1.8 -0.5,-11.3 -0.6,-21.1 l -0.2,-17.9 26.1,-26 26,-26.1 6.1,0.6 c 3.3,0.3 6.2,0.7 6.3,0.9 0.2,0.1 0.6,9.2 0.9,20.2 l 0.6,19.8 -2.2,-0.5 c -1.2,-0.2 -3,-0.8 -3.9,-1.2 -1.4,-0.5 -7.7,5.2 -28.3,25.8 -14.6,14.5 -26.5,26.9 -26.5,27.5 0,0.7 -0.8,1.2 -1.9,1.2 -1.3,0 -2,-0.9 -2.4,-3.2 z"
       id="path44" />
    <path
       d="m 1298.7,377.3 c -0.4,-5.8 -0.7,-15.1 -0.7,-20.5 v -9.9 l 5.8,-6 c 9,-9.5 16.3,-16.9 16.8,-16.9 0.3,0 11.9,-11.9 18,-18.6 1.8,-1.9 3.5,-3.4 3.8,-3.4 0.4,0 2.1,-1.6 3.9,-3.5 3,-3.3 3.5,-3.5 9.9,-3.5 h 6.8 v 7.3 c 0,4.1 0.3,12.9 0.7,19.5 l 0.6,12.2 h -4.1 c -4.2,0 -4.5,0.3 -31.3,27 -14.9,14.9 -27.6,27 -28.3,27 -0.9,0 -1.5,-3.1 -1.9,-10.7 z"
       id="path46" />
    <path
       d="m 865.7,367.8 c -0.3,-1.3 -0.7,-10.5 -0.8,-20.6 l -0.2,-18.3 4.7,-4.5 c 2.5,-2.5 4.6,-5 4.6,-5.5 0,-0.5 0.6,-0.9 1.4,-0.9 0.8,0 1.8,-0.9 2.1,-2 0.3,-1.1 1.1,-2 1.6,-2 1.1,0 16.9,-15.9 16.9,-17.1 0,-0.5 0.6,-0.9 1.4,-0.9 0.8,0 1.8,-0.9 2.1,-2 0.3,-1.1 1,-2 1.5,-2 0.5,0 4,-3.1 7.8,-7 l 6.9,-7 h 6.6 6.5 l 0.6,7.3 c 0.3,3.9 0.8,12.7 1.1,19.5 L 931,317 h -4 c -3.9,0 -4.7,0.7 -30.5,26.5 -16.2,16.3 -27.2,26.5 -28.4,26.5 -1.1,0 -2.1,-0.9 -2.4,-2.2 z"
       id="path48" />
    <path
       d="m 2173.2,359.3 c 0.8,-7.4 0.3,-22.5 -0.8,-28.5 -0.6,-2.8 -0.5,-2.8 4.9,-2.8 h 5.4 l 0.7,4.6 c 1,7.5 0.7,30.3 -0.4,32.5 -0.8,1.5 -2.1,1.9 -5.8,1.9 h -4.8 z"
       id="path50" />
    <path
       d="m 523.4,353.3 c 0.3,-1 3.3,-10.8 6.6,-21.8 3.3,-11 6.5,-20.1 7,-20.3 0.5,-0.2 11.3,-10.7 23.9,-23.3 L 583.8,265 h 7.7 c 6.8,0 7.6,0.2 7.1,1.8 -4.5,14.4 -11.6,38.3 -11.6,38.7 0,0.3 -0.7,0.5 -1.5,0.5 -0.8,0 -1.5,-0.7 -1.5,-1.5 0,-4.6 -5.3,-0.3 -30.1,24.5 -20.3,20.4 -26.5,26 -28.5,26 -2,0 -2.4,-0.4 -2,-1.7 z"
       id="path52" />
    <path
       d="m 653.3,342.3 c 1,-8.5 7.8,-31.3 9.3,-31.3 0.7,0 1.8,-0.9 2.4,-2 1,-1.9 0.8,-2 -3.6,-2 -3.3,0 -4.5,-0.4 -4.1,-1.2 0.2,-0.7 2.8,-9.5 5.8,-19.6 l 5.4,-18.3 6,0.3 6,0.3 -0.2,5.5 c 0,3 -1.5,9.7 -3.2,14.9 -1.7,5.2 -2.9,9.6 -2.7,9.8 0.1,0.2 6.9,-6.2 14.9,-14.2 l 14.6,-14.6 6.7,0.3 6.6,0.3 2,5 c 4.4,11.3 12.8,33.7 12.8,34.2 0,0.2 -2.4,0.2 -5.2,-0.2 l -5.3,-0.6 -17.9,18 c -14,14.2 -18.6,18.3 -21.5,19 -2,0.5 -9.4,1.2 -16.5,1.6 l -12.9,0.6 z"
       id="path54" />
    <path
       d="m 1673.7,331.8 c -1.1,-24.5 -1,-25.8 1.3,-25.8 1.1,0 2,0.5 2,1 0,0.6 2.3,1 5.1,1 h 5.1 l -0.4,12 c -0.1,6.6 0,12 0.5,12 0.4,0 0.7,3.1 0.7,6.9 0,7.9 -0.2,8.1 -8.4,8.1 h -5.3 z"
       id="path56" />
    <path
       d="m 1949,338.6 c -23.1,-7.9 -45.8,-19 -62.2,-30.6 -10.5,-7.4 -26.6,-22.9 -31.8,-30.7 -1.9,-2.9 -3.9,-5.3 -4.3,-5.3 -0.5,0 -0.6,3.4 -0.2,7.5 0.7,7.2 0.6,7.5 -1.4,7.5 -1.4,0 -2.1,-0.6 -2.1,-2 0,-1.6 -0.7,-2 -3.3,-2 h -3.4 l -0.6,-14.2 c -0.4,-7.9 -0.7,-18.6 -0.7,-23.8 0,-5.2 -0.3,-12.5 -0.6,-16.2 l -0.7,-6.8 -7.1,0.5 c -3.9,0.3 -16.1,1 -27.1,1.5 -11,0.6 -27.6,1.5 -37,2 -9.3,0.5 -25.3,1.4 -35.5,2 -10.2,0.5 -27.6,1.5 -38.8,2.1 -12,0.7 -20.7,0.8 -21.2,0.3 -0.4,-0.5 -1.1,-13.2 -1.5,-28.1 l -0.7,-27.3 h 5 c 3.1,0 5.1,0.5 5.4,1.3 0.2,0.6 0.5,7.5 0.6,15.2 0.1,7.7 0.5,17.3 0.8,21.3 l 0.7,7.4 9.1,-0.6 c 5,-0.3 17.5,-1.1 27.9,-1.6 40,-2.1 89.1,-4.8 103,-5.6 9.6,-0.6 10.7,-0.8 10.7,-2.5 0,-1.7 0.9,-1.9 10,-1.9 h 9.9 l 0.3,6.1 0.3,6 18,-18 18,-18.1 h 6.7 6.6 l 1.3,3.8 c 6,18.2 19.8,37.6 36.2,51.1 18.9,15.4 40.6,26.3 75.7,38 24.6,8.2 27,9.2 27,10.6 0,2 -4.6,2.7 -17.2,2.4 l -11.7,-0.3 -24.9,24.9 c -13.7,13.8 -25.3,25.8 -25.8,26.7 -0.8,1.5 -2.1,1.3 -13.4,-2.6 z"
       id="path58" />
    <path
       d="m 81.5,339.8 c 0.2,-0.7 1.8,-6.5 3.5,-12.8 1.7,-6.3 5,-16.2 7.2,-21.9 L 96.3,294.7 120,270.8 143.8,247 h 5.6 c 3.1,0 5.6,-0.4 5.6,-1 0,-0.5 1.2,-1 2.6,-1 2.1,0 2.5,0.3 1.9,1.8 -2.9,6.8 -8.6,23.2 -10.6,30.5 l -2.4,8.7 H 143 c -3.3,0 -5.4,1.8 -30,26.4 -14.5,14.5 -26.6,26.9 -26.8,27.5 -0.2,0.6 -1.4,1.1 -2.8,1.1 -1.4,0 -2.2,-0.5 -1.9,-1.2 z"
       id="path60" />
    <path
       d="m 1437.7,328.3 c -0.4,-5.4 -0.7,-14.4 -0.7,-20 V 298 h 3.8 c 6.4,0 6.4,-0.1 7.2,20.1 0.3,10.1 0.6,18.5 0.6,18.5 -0.1,0.1 -2.4,0.4 -5.2,0.8 l -5.1,0.6 z"
       id="path62" />
    <path
       d="m 1158.5,321.9 c -3.3,-2.8 -7.9,-6.2 -10.3,-7.6 -2.4,-1.4 -4,-2.9 -3.5,-3.3 0.4,-0.3 4.8,-3.3 9.6,-6.4 4.8,-3.2 11.4,-8.2 14.6,-11.2 5.3,-4.9 6.3,-5.4 10.5,-5.4 2.5,0 4.6,-0.4 4.6,-1 0,-0.5 1.7,-1 3.7,-1 h 3.8 l -13.5,13.5 -13.5,13.5 3.1,2.5 c 1.7,1.3 4.7,4.4 6.8,6.9 l 3.7,4.6 h -6.8 c -6.8,0 -6.9,0 -12.8,-5.1 z"
       id="path64" />
    <path
       d="m 1533.6,322.8 c -0.3,-0.7 -0.9,-19.3 -1.5,-41.3 -0.6,-22 -1.3,-44.1 -1.6,-49 l -0.5,-9.1 26.2,-26.3 26.3,-26.3 5.8,0.5 c 3.2,0.3 6.1,0.8 6.4,1.1 0.6,0.6 1.9,32.3 2.9,72.3 l 0.7,28.2 -5.4,0.3 c -4.5,0.2 -5.6,0.7 -6.4,2.6 -0.5,1.2 -1.6,2.2 -2.3,2.2 -0.8,0 -1.6,0.9 -1.9,2 -0.3,1.1 -1.1,2 -1.8,2 -0.8,0 -1.7,0.9 -2,2 -0.3,1.1 -1.2,2 -2,2 -0.8,0 -1.6,0.9 -2,1.9 -0.3,1 -1.5,2.1 -2.5,2.4 -1.1,0.3 -2,1.2 -2,2 0,0.8 -0.9,1.7 -2.1,2 -1.1,0.3 -2.3,1.4 -2.6,2.5 -0.3,1.1 -1.4,2.2 -2.5,2.5 -1.1,0.3 -2.2,1.5 -2.5,2.6 -0.3,1.2 -1.1,2.1 -1.8,2.1 -0.8,0 -1.7,0.9 -2,2 -0.3,1.1 -1.2,2 -2,2 -0.8,0 -1.7,0.9 -2,2 -0.3,1.1 -1.3,2 -2.2,2 -0.8,0 -1.7,0.9 -2,2 -0.3,1.1 -1.1,2 -1.7,2 -0.7,0 -3,1.8 -5.1,4 -3.9,4 -7.2,5.1 -7.9,2.8 z"
       id="path66" />
    <path
       d="m 1296.6,310.8 c -0.3,-2.9 -1,-23.1 -1.6,-44.8 -0.6,-21.7 -1.2,-42.4 -1.5,-46.1 -0.6,-6.4 -0.5,-6.6 3,-10.2 2,-2 4,-3.7 4.5,-3.7 0.5,0 1.2,-0.9 1.5,-2 0.3,-1.1 1.3,-2 2.2,-2 0.8,0 1.7,-0.9 2,-1.9 0.3,-1.1 1.3,-2.1 2.4,-2.4 1,-0.3 1.9,-1.2 1.9,-2 0,-0.9 0.9,-1.9 2,-2.2 1.1,-0.3 2,-1 2,-1.5 0,-1.1 6.9,-8 8,-8 0.5,0 1.2,-0.9 1.5,-2 0.3,-1.1 1.3,-2 2.2,-2 0.8,0 1.7,-0.9 2,-2 0.3,-1.1 1.2,-2 2,-2 0.8,0 1.7,-0.9 2,-2 0.3,-1 1.4,-2.2 2.4,-2.5 1,-0.4 1.9,-1.1 1.9,-1.7 0,-0.6 1.7,-2.6 3.7,-4.4 3.4,-3.2 4.2,-3.4 10.5,-3.4 6.2,0 6.8,0.2 7.2,2.3 0.3,1.2 1,20.9 1.6,43.7 0.6,22.8 1.3,44.3 1.6,47.8 l 0.6,6.2 h -3.1 c -4.1,0 -8.1,1.7 -8.1,3.4 0,0.7 -0.9,1.6 -2.1,1.9 -1.1,0.3 -2.3,1.5 -2.6,2.6 -0.3,1.2 -1.2,2.1 -2,2.1 -0.8,0 -1.7,0.9 -2,1.9 -0.3,1.1 -1.3,2.1 -2.4,2.4 -1,0.3 -1.9,1.2 -1.9,2.1 0,0.9 -0.5,1.6 -1.1,1.6 -1.6,0 -12.9,11.1 -12.9,12.7 0,0.7 -0.7,1.3 -1.5,1.3 -0.8,0 -1.5,0.7 -1.5,1.5 0,0.9 -0.8,1.9 -1.7,2.2 -1,0.4 -5.8,4.7 -10.7,9.5 -4.9,4.8 -9.5,8.8 -10.2,8.8 -0.8,0 -1.5,-2 -1.8,-5.2 z"
       id="path68" />
    <path
       d="m 807.7,308.8 c -0.9,-2.4 -4.3,-11.5 -7.6,-20.2 -3.3,-8.8 -5.9,-16.1 -5.7,-16.3 0.2,-0.2 2.7,-0.1 5.7,0.3 l 5.4,0.6 7.3,19.2 c 3.9,10.6 7.2,19.5 7.2,19.9 0,0.4 -2.4,0.7 -5.4,0.7 h -5.4 z"
       id="path70" />
    <path
       d="m 862.2,258.3 c -0.7,-22.5 -1.5,-45.4 -1.8,-51.1 l -0.5,-10.4 25.9,-25.9 26,-25.9 h 6.5 6.5 l 0.6,9.3 c 0.7,10.6 2.6,72.4 2.6,84 v 7.7 h -3.7 c -3.4,0 -5.1,1.5 -30.1,26.5 C 875.7,291 867.1,299 865.6,299 h -2.2 z"
       id="path72" />
    <path
       d="m 2167.5,295 c -0.3,-0.5 -1.6,-1 -2.8,-1 -1.7,0 -2.9,-1.4 -5.2,-5.8 -7.7,-14.8 -23.1,-31 -40.3,-42.5 -19.1,-12.7 -34.5,-19.8 -67.2,-31.2 -28.9,-10 -54,-21.7 -54,-25 0,-1.2 1.7,-1.5 7.9,-1.5 6.7,0 9,0.5 14.3,2.9 9.5,4.4 20.7,8.8 36.3,14.1 33.6,11.5 58.6,23.5 75.5,36.3 7.7,5.9 21.1,18.9 25.9,25 5.1,6.8 11.5,17.3 14.6,24.2 l 2.4,5.5 h -3.4 c -1.9,0 -3.7,-0.4 -4,-1 z"
       id="path74" />
    <path
       d="m 230,290.5 c 0,-1 -1.1,-1.5 -3.5,-1.5 -2.3,0 -3.5,-0.5 -3.5,-1.4 0,-2.6 7.1,-22 10.8,-29.3 3.5,-7.2 3.6,-7.3 7.4,-7.3 3.5,0 4.1,-0.4 6.6,-4.6 4.1,-6.9 7.5,-11.2 15.5,-19.1 l 7.2,-7.3 h -5 -4.9 l 4.4,-4.6 c 14.9,-15.2 40.9,-28.7 68,-35.2 18,-4.4 29,-5.6 51,-5.5 27.7,0 49,3.9 70.8,12.9 4.6,1.9 8.5,3.4 8.7,3.2 0.1,-0.2 0.9,-3.2 1.8,-6.8 0.9,-3.6 4.4,-16.8 7.7,-29.5 3.3,-12.6 6.1,-24 6.2,-25.3 0.2,-2.1 0.6,-2.2 4,-1.7 3.4,0.6 3.8,0.4 3.8,-1.4 0,-1.5 0.6,-2.1 2.4,-2.1 h 2.3 l -2.7,10.8 c -5,19.4 -17,65.6 -17.6,68.1 -0.5,1.7 -54.5,57.1 -55.8,57.1 -0.1,0 -5.9,-2.5 -13,-5.5 -20.7,-8.9 -35,-12.5 -59.5,-14.6 -11.1,-1 -17.3,-1 -29.1,0 -23.4,1.9 -37,4.9 -56.6,12.8 l -11.2,4.4 -4,8.7 c -2.2,4.8 -5.2,12.6 -6.8,17.5 -1.6,5 -3.4,8.7 -4.1,8.7 -0.7,0 -1.3,-0.7 -1.3,-1.5 z"
       id="path76" />
    <path
       d="m 543.5,286.3 c 0.3,-1 7.6,-24.9 16.1,-53.1 l 15.4,-51.3 24.5,-24.6 24.6,-24.6 6.6,0.6 c 3.6,0.4 6.8,0.9 7,1.1 0.3,0.3 -5.9,21.8 -13.7,47.8 -7.8,26 -14.7,48.8 -15.2,50.6 -0.9,3.2 -3.8,4.5 -3.8,1.7 0,-0.8 -0.9,-1.5 -2,-1.5 -1.1,0 -2,0.5 -2,1 0,0.6 -0.9,1 -1.9,1 -1.2,0 -2.1,0.9 -2.5,2.5 -0.4,1.6 -1.3,2.5 -2.5,2.5 -1.2,0 -2.1,0.9 -2.5,2.5 -0.4,1.6 -1.3,2.5 -2.6,2.5 -1.3,0 -2,0.7 -2,2 0,1.3 -0.7,2 -2,2 -1.3,0 -2,0.7 -2,2 0,1.3 -0.7,2 -2,2 -1.3,0 -2,0.7 -2,2 0,1.3 -0.7,2 -1.9,2 -1,0 -2.1,0.9 -2.4,2.1 -0.3,1.1 -1.5,2.3 -2.6,2.6 -1.2,0.3 -2.1,1.2 -2.1,1.9 0,0.8 -1.1,1.9 -2.5,2.4 -1.5,0.6 -2.5,1.7 -2.5,3 0,1.3 -0.7,2 -2,2 -1.3,0 -2,0.7 -2,2 0,1.3 -0.7,2 -2,2 -1.3,0 -2,0.7 -2,2 0,1.3 -0.7,2 -2,2 -1.3,0 -2,0.7 -2,1.8 0,1.1 -1.1,2.4 -2.5,3 -1.4,0.6 -2.5,1.8 -2.5,2.7 0,1 -0.9,1.5 -2.6,1.5 -2.1,0 -2.5,-0.4 -1.9,-1.7 z"
       id="path78" />
    <path
       d="m 1003,282.9 c 0,-3 0.2,-3.1 3.1,-2.5 1.7,0.3 4.2,0.6 5.5,0.6 1.9,0 2.4,0.5 2.4,2.5 0,2.4 -0.3,2.5 -5.5,2.5 -5.5,0 -5.5,0 -5.5,-3.1 z"
       id="path80" />
    <path
       d="m 1069,272 c 0,-0.5 0.7,-1 1.5,-1 1.1,0 1.5,-1.2 1.6,-4.2 0.3,-15.1 -1.5,-25.6 -5.6,-33.9 -3.9,-7.5 -13.5,-16.8 -21.7,-20.9 -4.7,-2.2 -6.8,-3.8 -6.8,-5.1 0,-1 11.2,-13.1 26.5,-28.4 L 1091,152 h 10.6 10.6 l 7.2,7.3 c 12.4,12.3 17.6,26.6 17.6,48 0,18.7 -4.4,32.3 -14.7,45.2 -4.2,5.2 -4.8,5.7 -5.1,3.8 -0.2,-1.7 -1,-2.3 -2.7,-2.3 -1.3,0 -2.7,0.5 -3,1 -0.3,0.6 -1.5,1 -2.6,1 -1.1,0 -1.9,0.7 -1.9,1.6 0,0.9 -0.9,1.8 -1.9,2.1 -1.1,0.3 -2.2,1.1 -2.5,1.9 -0.3,0.8 -1.5,1.4 -2.6,1.4 -2.6,0 -8.2,2.8 -9.3,4.6 -0.4,0.8 -1.7,1.4 -2.7,1.4 -1,0 -2.2,0.5 -2.5,1 -0.3,0.6 -2.4,1 -4.6,1 -2.1,0 -3.9,0.5 -3.9,1 0,0.6 -1.8,1 -4,1 -2.2,0 -4,-0.4 -4,-1 z"
       id="path82" />
    <path
       d="m 1435.6,259.8 c -0.7,-9.4 -2.6,-73.4 -2.6,-85.5 0,-10.4 -0.3,-10.1 8.3,-8.7 3.7,0.7 3.7,0.7 3.7,5.5 0,2.7 0.5,4.9 1,4.9 0.6,0 1,2.3 1,5 0,4 -0.3,5 -1.7,5 -1.5,0 -1.5,1.6 -1,17.3 0.4,9.4 1,27.7 1.3,40.5 l 0.7,23.2 h -5.1 -5 z"
       id="path84" />
    <path
       d="m 114,262 c 0.6,-1.2 5.2,-7.6 10.3,-14.3 6.7,-9 17.8,-21 42.2,-45.5 41,-41.5 53.1,-52.1 73.8,-65 6.7,-4.3 25.1,-13.7 31.7,-16.5 4.4,-1.8 24,-1.2 24,0.8 0,0.6 -3.9,2.6 -8.7,4.4 -44.3,16.6 -82.1,46.2 -108.2,84.8 -4,5.9 -4.3,6.1 -7.7,5.6 -3.1,-0.5 -3.9,-0.1 -7.3,3.6 -2.1,2.2 -4.3,4.1 -4.9,4.1 -0.6,0 -1.4,0.9 -1.7,2 -0.3,1.1 -1.5,2 -2.6,2 -1,0 -1.9,0.7 -1.9,1.5 0,1.9 -9.5,11.5 -11.5,11.5 -0.9,0 -1.5,0.9 -1.5,2.1 0,1.2 -0.8,2.3 -2,2.6 -1.1,0.3 -2,0.9 -2,1.3 0,1.5 -10.9,12 -12.4,12 -0.8,0 -1.6,1 -1.8,2.3 -0.2,1.8 -1,2.3 -4.6,2.5 -4.1,0.3 -4.3,0.2 -3.2,-1.8 z"
       id="path86" />
    <path
       d="m 1197.5,256.8 c 3.5,-6.3 9.2,-24 11,-34.3 3,-16.7 1.9,-40.7 -2.6,-58.2 -1,-4.2 -1.9,-7.8 -1.9,-8.1 0,-0.7 13.8,0.3 14.5,1 1.8,1.8 5.5,25 5.5,34.3 0,5.1 -0.3,6.5 -1.5,6.5 -1.2,0 -1.5,1.3 -1.5,5.8 0,13.8 -3.6,32 -9.2,46.5 l -2.9,7.7 -4,-0.6 c -3.5,-0.6 -3.9,-0.4 -3.9,1.5 0,1.7 -0.6,2.1 -2.9,2.1 h -3 z"
       id="path88" />
    <path
       d="m 1003.8,248.3 c -1.3,-0.3 -1.8,-2 -2.2,-7.6 -0.6,-8.2 -2.6,-75.8 -2.6,-85.9 V 148 h 7.1 7.1 l -0.4,17 c -0.1,9.4 0,17 0.5,17 0.4,0 0.7,5 0.7,11.1 0,9.6 -0.2,11 -1.5,10.5 -1.4,-0.5 -1.5,2 -0.9,22.4 l 0.7,23 -3.4,-0.1 c -1.9,-0.1 -4.2,-0.3 -5.1,-0.6 z"
       id="path90" />
    <path
       d="M 780.8,237.7 C 780,235.4 775.1,222.5 770,209 c -24.4,-64 -26.7,-70.5 -25.6,-71.2 1.4,-1 7.8,-1 9.1,0 0.6,0.4 1.5,2.1 2.1,3.7 0.6,1.7 8.2,21.7 16.9,44.5 17.8,47 20.6,54.3 20.2,54.5 -0.1,0.1 -2.5,0.5 -5.4,0.8 l -5.1,0.6 z"
       id="path92" />
    <path
       d="m 686,239 c 0,-1.7 -0.7,-2 -4.1,-2 -3.4,0 -4,-0.3 -3.5,-1.7 0.2,-1 2.8,-11.1 5.7,-22.6 2.9,-11.4 5.3,-20.6 5.4,-20.5 0.2,0.2 3.5,10 7.5,21.8 3.9,11.8 7.4,22.1 7.7,22.9 0.4,1.1 -0.5,1.2 -4.5,0.6 -4.5,-0.6 -5.2,-0.4 -6.4,1.4 -1.8,2.9 -7.8,3 -7.8,0.1 z"
       id="path94" />
  </g>
  <g
     fill="#060606"
     id="g142"
     transform="translate(-66.467899,-1.4607572)">
    <path
       d="M 274.5,639.9 C 227.8,635.2 187.7,620 156.9,595.4 120.9,566.7 95.8,526.6 83.5,478 73.6,438.9 72.1,387.7 79.8,349 c 1.1,-5.2 2.1,-10.1 2.3,-10.8 0.2,-0.7 12.7,-13.5 27.7,-28.5 l 27.3,-27.2 4.6,0.3 c 2.6,0.1 4.8,0.4 5,0.6 0.3,0.2 -0.5,4.8 -1.5,10.3 -4.3,20.8 -4.7,26.1 -4.7,56.3 0.1,22.7 0.5,32.1 1.8,40.8 4.6,30.4 10.8,51.3 22.2,74.7 29.3,60.4 82.2,97.7 153.1,108.1 14.8,2.2 54.5,2.5 70.9,0.5 38.9,-4.6 69,-12.4 92.3,-23.7 6.1,-3.1 11.2,-5.8 11.2,-6.2 0,-1.2 -17,-59.5 -17.6,-60.1 -0.1,-0.1 -5.8,2.4 -12.6,5.7 -16.5,8.1 -30.8,12.8 -48.8,16.2 -3.6,0.6 -8.5,1.5 -11,2 -2.5,0.5 -11.6,1.4 -20.3,2.1 -12.7,1 -18.5,1 -30,0 -38.3,-3.4 -65.6,-14.8 -89.3,-37.4 -18.8,-17.9 -32,-41.3 -39.3,-69.7 -5.2,-20.2 -6.5,-32 -6.5,-58 0,-24.1 1.2,-36.1 5.2,-52.5 l 1.7,-7 h 5.7 c 3.2,0 5.4,0.4 5,0.9 -0.3,0.5 -0.9,2.6 -1.3,4.5 -0.4,2 -1.2,6.1 -1.9,9.1 -2.9,13.7 -3.9,25.6 -4,44.6 0,35.5 5.1,61.5 17.1,85.7 17.9,36.2 46.6,58.1 87.8,66.7 20.5,4.4 53.9,3.7 79.6,-1.5 22.6,-4.6 36.5,-9.7 56,-20.4 7.1,-3.9 12.9,-7.1 13,-7.1 0.1,0 1,2.7 2,6 1,3.3 2.2,5.7 2.6,5.3 0.4,-0.4 9.2,-28.7 19.4,-62.8 10.2,-34.1 18.8,-62.7 19.2,-63.5 0.3,-0.8 0.5,-1.9 0.4,-2.3 -0.1,-0.5 0.3,-0.6 0.8,-0.2 0.6,0.3 12.5,-10.9 26.4,-24.9 l 25.4,-25.4 6,-0.4 5.9,-0.3 -0.8,2.5 c -0.4,1.4 -10.9,36.3 -23.2,77.5 -28.8,96.1 -53.5,178.6 -54.2,180.4 -0.4,1.2 2,1.3 15.3,0.7 31.9,-1.5 60.2,-3.2 60.6,-3.6 0.2,-0.3 2,-6.1 3.9,-13 2,-6.9 7.2,-25 11.7,-40.2 4.5,-15.3 11.7,-40.3 16.1,-55.5 4.4,-15.3 8.7,-28.3 9.5,-28.9 0.8,-0.6 8.1,-1.4 16.2,-1.8 8.2,-0.3 22.2,-1.1 31.3,-1.6 9.1,-0.5 25.5,-1.4 36.5,-2 11,-0.6 27.8,-1.5 37.4,-2.1 9.5,-0.6 17.7,-0.7 18.1,-0.2 0.4,0.4 3.6,8.7 7.2,18.3 12.8,34.2 43.1,114.5 43.3,114.8 0.2,0.2 7.6,-0.2 16.6,-0.7 9,-0.6 26.3,-1.5 38.4,-2.2 12.1,-0.6 22.2,-1.3 22.3,-1.5 0.4,-0.2 -2,-6.6 -20.8,-56.4 -4.5,-11.8 -13.9,-36.8 -21,-55.5 -15.7,-41.6 -42.4,-112 -43.9,-115.7 -0.5,-1.5 -0.7,-2.9 -0.3,-3.2 1.2,-0.7 8.8,-0.5 9.9,0.3 0.5,0.3 11.2,27.8 23.8,61.1 12.5,33.3 23.4,61.6 24.2,63 1.2,2.3 1.3,1.8 0.8,-4.5 -0.2,-3.8 -0.7,-18.5 -1,-32.5 -0.3,-14 -0.7,-28 -0.9,-31 -0.2,-3 -0.1,-4 0.1,-2.2 0.2,1.7 0.6,3.2 0.9,3.2 0.2,0 12.4,-11.9 26.9,-26.5 L 920,314 h 4.9 c 4.4,0 5,-0.3 5.3,-2.2 0.2,-1.3 0.7,9.6 1.1,24.2 0.4,14.6 1.2,39.1 1.7,54.5 1.4,41.5 3,90.6 3.9,120.3 0.4,14.4 1,26.5 1.4,26.8 0.3,0.4 10.6,0.1 22.9,-0.5 12.3,-0.7 28.6,-1.5 36.2,-1.8 l 13.9,-0.6 -0.7,-15.6 c -0.3,-8.6 -1.1,-29.8 -1.6,-47.1 -2.2,-72.4 -3,-95.3 -3.6,-109.7 l -0.7,-15.2 2.4,-0.5 c 6.7,-1.4 49,-2.6 57.5,-1.7 24.3,2.8 39.9,13.3 50.6,33.9 6,11.4 8.8,19.5 14.9,42.6 16.3,62.1 28.4,98.6 34.3,103.5 1.1,0.9 9.3,0.8 38.6,-0.8 20.4,-1.2 37.6,-2.1 38.1,-2.1 0.5,0 -0.5,-2.4 -2.2,-5.2 -10.7,-18.1 -17.1,-37 -35.4,-104.3 -8.9,-32.5 -11.7,-40.9 -17.8,-53.7 -6,-12.5 -13,-22.8 -21.4,-31.3 -3.7,-3.8 -6,-6.4 -5,-5.6 1.2,1 4.1,1.4 8.5,1.4 6.4,-0.1 6.7,0 10.1,3.5 7.2,7.7 17.2,25.5 23.7,42.4 1.9,4.8 7.3,22.8 12,40 19.8,72.8 23.5,83.3 37.1,106.7 4.6,7.8 8.3,14.7 8.1,15.2 -0.2,0.5 -12.4,13.1 -27.2,27.9 l -26.9,26.8 -8.1,0.6 c -4.5,0.3 -17.5,1.1 -29.1,1.6 -11.5,0.6 -27.7,1.5 -35.8,2.1 -8.2,0.5 -17.6,0.9 -21,0.9 l -6.2,-0.1 -4.2,-6.7 c -8.5,-13.7 -17.2,-39.4 -31.2,-91.7 -1.1,-4.4 -3.7,-14 -5.7,-21.4 -8.5,-31.9 -18.3,-48.1 -33.7,-55.5 -12.1,-5.8 -11.7,-5.9 -11.7,2.3 0,8.3 2.7,96.5 3.5,113.6 l 0.5,12.1 -27.5,27.4 c -15.2,15.1 -27.7,27.6 -27.8,27.6 -0.2,0.2 -9.5,0.7 -58.7,3.4 -9.6,0.6 -21.4,1.2 -26.2,1.5 l -8.8,0.6 V 596 c 0,-4.4 -0.2,-8 -0.5,-8 -0.3,0 -4.4,3.8 -9,8.4 l -8.4,8.3 -10.3,0.7 c -11,0.7 -33.3,1.9 -67.2,3.7 -11.5,0.6 -21.2,0.7 -21.6,0.2 -0.4,-0.4 -3.6,-8.2 -7,-17.3 -24.6,-65.4 -41.4,-109.9 -42.4,-112.5 l -1.3,-3 -13.9,0.7 C 668,478.3 637,480 628,480.6 l -8.5,0.7 -7.3,25.1 c -4.1,13.8 -9.7,33.1 -12.5,42.8 L 594.5,567 567,594.5 539.5,622 520,623 c -22,1.2 -47.4,2.6 -66.2,3.6 l -12.7,0.7 2.5,-7.9 c 4.7,-15 5.6,-14.4 -9.7,-6.7 C 405,627.3 370.2,636 324,640 c -13.2,1.1 -37.8,1.1 -49.5,-0.1 z"
       id="path98" />
    <path
       d="m 1304.6,564.2 c -0.4,-9.2 -1.1,-31.1 -1.6,-48.7 -1.6,-48.8 -2.8,-88.9 -3.6,-110.7 l -0.7,-19.7 27.1,-27 27.2,-27.1 h 4.9 c 4.4,0 5,-0.3 5.3,-2.2 0.4,-2.9 1.2,19 3.8,101.7 1.9,62.7 2.7,83.5 3.4,84.2 0.3,0.4 52.2,-2.3 65,-3.3 l 7.9,-0.6 -0.6,-25.7 c -0.4,-14.1 -1.2,-38.9 -1.7,-55.1 -2.4,-71.4 -3,-94.2 -2.4,-95.1 0.3,-0.5 2.7,-0.9 5.3,-0.9 h 4.8 l 0.7,25.3 c 0.7,28.1 2.2,72.6 3.6,112.9 0.6,14.6 1,31.6 1,37.6 v 11 l -27,27.1 c -14.9,14.9 -28.1,27.3 -29.3,27.6 -1.2,0.2 -11.9,0.9 -23.7,1.5 -47.5,2.3 -60.7,3 -64.6,3.4 l -4.1,0.5 z"
       id="path100" />
    <path
       d="m 1540.6,548.2 c -3.3,-95.8 -4.8,-149.5 -4.2,-152.5 0.5,-2.2 7.6,-9.9 27.2,-29.5 l 26.5,-26.4 4.9,0.4 c 4.7,0.5 4.9,0.4 5.3,-2.1 0.2,-1.4 0.4,0.3 0.5,3.9 0.1,3.6 0.6,20.5 1.2,37.5 0.5,17.1 1.4,45.6 2,63.5 0.5,17.9 1.3,38.5 1.6,45.9 l 0.7,13.3 13.1,-0.6 c 7.2,-0.4 20.5,-1.1 29.6,-1.6 9.1,-0.5 25.3,-1.4 36,-2 10.7,-0.6 27.6,-1.5 37.5,-2 9.9,-0.5 26.8,-1.4 37.5,-2 10.7,-0.6 26.9,-1.5 36,-2 9.1,-0.5 26.6,-1.4 39,-2 12.4,-0.6 24.5,-1.3 26.9,-1.6 l 4.3,-0.6 -0.6,-13.6 c -0.3,-7.5 -0.9,-22 -1.2,-32.1 l -0.6,-18.3 -13.2,0.6 c -7.2,0.4 -20.7,1.1 -30.1,1.6 -46.6,2.6 -82.4,4.5 -110.5,6 -10.7,0.6 -22.5,1.2 -26.1,1.4 l -6.6,0.5 -0.7,-16.2 c -1.3,-30.7 -2.5,-73.1 -2.1,-73.8 0.3,-0.3 1.6,-0.4 3,-0.2 1.3,0.3 3.6,0.2 5,-0.1 2.1,-0.5 2.5,-1.2 2.5,-4.6 0,-2.2 -0.4,-4 -1,-4 -0.6,0 -0.8,-4.3 -0.3,-12 l 0.6,-12 h -5.1 c -4.5,0 -5.1,0.3 -5.4,2.3 -0.3,1.2 -0.5,-2.4 -0.6,-8 -0.2,-10.1 -0.2,-10.3 2,-10.3 1.3,0 9.5,-0.4 18.3,-1 19.6,-1.2 42.5,-2.4 92,-5 20.9,-1.1 41.7,-2.3 46.3,-2.6 8.2,-0.6 8.2,-0.6 8.2,-3.4 0,-2.7 0.2,-2.8 5.4,-3.2 l 5.4,-0.3 0.1,8 0.1,8 -27.7,27.6 -27.8,27.7 -15,0.6 c -8.2,0.3 -22.6,1.1 -32,1.6 -9.3,0.5 -27.1,1.5 -39.5,2.1 -12.4,0.6 -22.8,1.4 -23.2,1.8 -0.8,0.8 1.1,64.4 2,65.3 0.4,0.3 6.8,0.2 14.2,-0.2 7.4,-0.5 22.7,-1.3 34,-1.9 11.3,-0.6 36.5,-2 56,-3.1 19.5,-1 46,-2.5 58.9,-3.1 l 23.4,-1.3 15.1,-15 c 8.3,-8.3 15.9,-15.7 16.8,-16.4 1.4,-1.1 2.7,-0.7 9,2.8 25.6,14.3 42.4,20.9 63.9,25.2 9.5,1.8 14.7,2.2 30.9,2.3 14,0 20.9,-0.4 24.4,-1.4 4.4,-1.3 7.3,-3.9 29.1,-25.8 l 24.3,-24.3 h 5.7 5.7 l -0.7,5.3 c -0.9,6.5 -4.3,15.9 -8,22.3 -3.7,6.3 -14.6,17 -21.8,21.3 -34.7,20.5 -92.9,17.8 -141.5,-6.6 -7.2,-3.6 -13.4,-6.4 -13.5,-6.2 -0.4,0.4 -1.6,5.1 -12.3,45.7 -5.5,21.1 -6.3,18.4 7.2,25.1 15.8,7.9 39.2,14.5 62.9,17.6 54.4,7.2 107.3,-2.9 144,-27.3 29.6,-19.6 50.1,-50.5 55.8,-83.8 1.7,-9.6 2.1,-10.5 5,-10.3 5.2,0.5 6.7,-0.1 6.8,-2.3 0,-1.3 0.3,-1.8 0.5,-1.2 0.7,1.7 -2.3,19.6 -4.7,28.4 -4.4,16 -13,33 -23.5,46.5 -3.4,4.4 -22.3,24 -42.1,43.6 -29.4,29.2 -37.5,36.6 -45.3,41.7 -23.8,15.7 -49.3,24.7 -84.1,29.8 -17.5,2.6 -51,2.3 -70.4,-0.5 -24.7,-3.6 -47.4,-10 -61.8,-17.3 l -6,-3 -12.1,12 -12.1,11.9 -22.5,1.2 c -12.4,0.6 -30.1,1.6 -39.5,2.1 -9.3,0.5 -25.8,1.4 -36.5,2 -10.7,0.6 -27.4,1.5 -37,2 -9.6,0.5 -26.3,1.4 -37,2 -10.7,0.6 -27.4,1.5 -37,2 -9.6,0.5 -26.5,1.4 -37.5,2 -11,0.6 -23,1.2 -26.6,1.5 l -6.6,0.5 z"
       id="path102" />
    <path
       d="m 2021.7,374.5 c -10.1,-11.1 -26.6,-20.3 -52,-29.1 -6,-2 -11.1,-4.3 -11.4,-5.1 -0.7,-1.8 51.4,-54 54.7,-54.7 2.8,-0.7 5.6,-0.3 6.6,0.7 1,0.9 15.4,0.8 17.9,-0.2 1.9,-0.8 5.3,0.4 18.5,6.6 9.5,4.5 21.5,13 27.6,19.6 6.1,6.5 11.1,14.5 9,14.4 -9.8,-0.2 -9.7,-0.2 -19.7,9.9 -5.2,5.2 -9.9,10.1 -10.5,10.7 -0.6,0.7 -5.7,5.7 -11.3,11.2 -5.5,5.5 -12.9,12.8 -16.4,16.2 -3.4,3.5 -6.4,6.3 -6.7,6.2 -0.3,0 -3.1,-2.9 -6.3,-6.4 z"
       id="path104" />
    <path
       d="m 1534.6,355.6 c -0.8,-9.3 -1.5,-42.6 -0.7,-38.3 l 0.6,3.8 4,-4 c 2.1,-2.3 4.5,-4.1 5.2,-4.1 0.7,0 1.2,-0.5 1.1,-1.2 -0.2,-0.6 0.8,-1.7 2.2,-2.5 1.4,-0.7 2.1,-1.3 1.7,-1.3 -1.4,0 2,-3 3.4,-3 0.7,0 1,-0.3 0.6,-0.6 -0.8,-0.8 1.8,-3.4 3.4,-3.4 0.7,0 0.9,-0.3 0.6,-0.7 -1,-0.9 2.3,-4.3 4.1,-4.3 0.9,0 1.2,-0.3 0.9,-0.7 -0.9,-0.9 2.2,-4.3 4,-4.3 0.7,0 1.2,-0.5 1.1,-1.2 -0.2,-0.6 0.8,-1.7 2.2,-2.5 1.4,-0.7 2.1,-1.3 1.7,-1.3 -1.4,0 2,-3 3.4,-3 0.7,0 1,-0.3 0.6,-0.6 -0.7,-0.8 1.7,-3.4 3.2,-3.4 0.6,0 1,-0.5 0.8,-1.2 -0.1,-0.6 0.8,-1.7 2,-2.3 1.3,-0.7 2.1,-1.4 1.8,-1.7 -0.3,-0.2 0.5,-1.4 1.8,-2.5 1.8,-1.7 3.1,-2 7.9,-1.6 5.5,0.5 5.8,0.7 6.2,3.7 0.6,3.9 1.5,39.8 0.9,37 -0.3,-1.7 -1.4,-2.3 -5,-2.8 l -4.6,-0.6 -27.3,27.3 -27.3,27.3 z"
       id="path106" />
    <path
       d="m 642.3,355.4 c 0.2,-0.5 3.7,-11.9 7.7,-25.4 4,-13.5 7.7,-25 8.1,-25.6 0.5,-0.6 0.5,-1.5 0.1,-2 -0.4,-0.4 0,-0.3 0.8,0.3 0.8,0.6 2.6,0.9 4,0.8 1.4,-0.2 3.3,-0.4 4.3,-0.4 1,-0.1 1.5,-0.5 1.2,-1.1 -0.3,-0.5 -0.1,-1 0.5,-1 0.7,0 1,-0.7 0.6,-1.5 -0.3,-0.8 0,-1.5 0.5,-1.5 0.6,0 0.9,-0.9 0.6,-2 -0.3,-1.1 -0.1,-2 0.5,-2 0.6,0 0.8,-0.7 0.4,-1.5 -0.3,-0.8 0,-1.5 0.5,-1.5 0.6,0 0.9,-0.9 0.6,-2 -0.3,-1.1 -0.1,-2 0.5,-2 0.5,0 0.8,-0.6 0.6,-1.2 -0.3,-0.7 0.2,-1.9 0.9,-2.7 0.8,-0.8 1.2,-2.2 1,-3.2 -0.3,-1.1 -0.1,-1.9 0.5,-1.9 0.6,0 0.8,-0.9 0.5,-2 -0.3,-1 0,-2.1 0.6,-2.3 2.5,-0.8 -0.8,-2.7 -4.9,-2.7 -2.4,0 -4.4,-0.3 -4.4,-0.7 0.1,-1.1 10.8,-36.4 11.2,-36.7 0.2,-0.1 2.4,-0.1 5.1,0.2 3.9,0.3 4.7,0.7 4.7,2.4 0,2 0,2 1.8,-0.1 1.1,-1.3 3.4,-2.3 6.7,-2.7 4.6,-0.5 5.2,-0.4 6.3,1.8 1.1,2.2 14.2,36.6 14.2,37.4 0,0.2 -2.5,0.4 -5.6,0.4 h -5.6 l -20.5,20.5 c -11.3,11.3 -21,20.5 -21.5,20.5 -0.6,0 -0.8,0.7 -0.4,1.5 0.3,0.8 0.1,1.5 -0.5,1.5 -0.6,0 -0.9,0.7 -0.5,1.5 0.3,0.8 0,1.5 -0.5,1.5 -0.6,0 -0.9,0.9 -0.6,2 0.3,1.1 0.1,2 -0.5,2 -0.6,0 -0.8,0.7 -0.4,1.5 0.3,0.8 0.1,1.5 -0.5,1.5 -0.6,0 -0.8,0.9 -0.4,2 0.4,1.1 0.2,2 -0.4,2 -0.6,0 -0.8,0.7 -0.5,1.5 0.4,0.8 0.1,1.5 -0.6,1.5 -0.7,0 -1,0.7 -0.6,1.5 0.3,0.8 0.1,1.5 -0.5,1.5 -0.6,0 -0.9,0.7 -0.5,1.5 0.3,0.8 0.1,2.7 -0.4,4.1 -1,2.6 -1,2.6 2.7,1.9 2.1,-0.4 7.5,-0.8 12,-1 5.3,-0.1 9,-0.8 10.5,-1.7 1.3,-0.8 9.9,-9.2 19.2,-18.6 l 16.9,-17 6.3,-0.4 c 3.4,-0.2 6.2,-0.1 6.2,0.2 -0.1,0.3 0.4,1.9 1.1,3.5 2.8,6.7 15.1,39.5 15.1,40.3 0,0.4 -10.5,1.4 -23.2,2.1 -12.8,0.6 -30.3,1.6 -38.8,2.1 -31.2,1.9 -43.3,2.2 -42.7,1.4 z"
       id="path108" />
    <path
       d="m 1297.7,347.5 c -0.4,-2.6 -0.7,-11.5 -0.7,-19.8 v -15 l 8.8,-8.7 c 4.8,-4.7 9.5,-8.9 10.5,-9.3 1,-0.4 1.5,-1.2 1.2,-1.8 -0.4,-0.6 0.2,-1.3 1.4,-1.6 1.2,-0.3 2.1,-1.1 2.1,-1.7 0,-1.4 11.3,-12.6 12.7,-12.6 0.6,0 1.3,-0.9 1.6,-2 0.3,-1.1 1.2,-2 2,-2 0.8,0 1.7,-0.9 2,-2 0.3,-1.1 1.2,-2 2,-2 0.8,0 1.7,-0.9 2,-2 0.3,-1.1 1.6,-2.4 2.9,-2.9 1.2,-0.4 2.1,-1.2 1.9,-1.7 -0.6,-1.5 4.1,-3.4 8.6,-3.4 3.1,0 4.3,-0.4 4.6,-1.7 0.3,-1 0.5,4.7 0.6,12.7 0.1,8 0.4,17.5 0.8,21.3 l 0.6,6.7 h -5.4 c -4.9,0 -5.7,0.3 -8.6,3.5 -1.8,1.9 -3.5,3.5 -3.9,3.5 -0.3,0 -2,1.5 -3.8,3.4 -6.1,6.7 -17.7,18.6 -18,18.6 -0.5,0 -9,8.6 -16.3,16.4 -2.9,3.1 -5.6,5.6 -5.9,5.6 -0.4,0 -1.2,0.7 -1.9,1.6 -1,1.4 -1.3,1 -1.8,-3.1 z"
       id="path110" />
    <path
       d="m 864.6,330.7 c -0.8,-6.3 -1.5,-42.8 -0.7,-38.3 l 0.6,3.9 26.6,-26.7 26.6,-26.6 h 5 c 4.9,0 5.1,0.1 5.7,3.1 0.3,1.7 0.6,10.3 0.6,19 V 281 h -5.1 c -5.1,0 -5.3,0.1 -12.1,7 -3.8,3.9 -7.3,7 -7.8,7 -0.5,0 -1.2,0.9 -1.5,2 -0.3,1.1 -1.3,2 -2.1,2 -0.8,0 -1.4,0.4 -1.4,0.9 0,1.2 -15.8,17.1 -16.9,17.1 -0.5,0 -1.3,0.9 -1.6,2 -0.3,1.1 -1.3,2 -2.1,2 -0.8,0 -1.4,0.4 -1.4,0.8 0,0.5 -2.7,3.6 -5.9,7 l -6,6.1 z"
       id="path112" />
    <path
       d="m 2172,327.6 c 0,-4.8 -4.3,-21.2 -7.8,-29.5 l -3,-7.1 h 3.7 c 6.2,0 8.8,1.9 11,8.1 2.6,6.9 5.7,19.7 6.6,26.7 l 0.7,5.2 h -5.6 -5.6 z"
       id="path114" />
    <path
       d="m 534.3,318.8 c 0.3,-1.2 0.8,-3.4 1.1,-4.8 1.2,-5.4 7.8,-26.7 9.1,-29.5 0.7,-1.6 1.1,-3.3 0.8,-3.9 -0.3,-0.5 -0.1,-0.6 0.5,-0.3 1.6,1.1 4.3,-0.4 4,-2.2 -0.2,-1 0.5,-1.7 2,-1.9 1.5,-0.2 2.2,-0.9 2,-2 -0.2,-1.1 0.5,-1.8 2,-2 1.5,-0.2 2.2,-0.9 2,-2 -0.2,-1.1 0.5,-1.8 2,-2 1.4,-0.2 2.2,-0.9 2,-2 -0.2,-0.9 0.8,-2.1 2.2,-2.9 1.4,-0.7 2.5,-1.7 2.5,-2.3 0,-0.6 1.1,-1.6 2.5,-2.3 1.4,-0.7 2.5,-1.9 2.5,-2.7 0,-0.8 1,-1.6 2.3,-1.8 1.5,-0.2 2.2,-0.9 2,-2 -0.2,-1.1 0.5,-1.8 2,-2 1.5,-0.2 2.2,-0.9 2,-2 -0.2,-1.1 0.5,-1.8 2,-2 1.5,-0.2 2.2,-0.9 2,-2 -0.2,-1.1 0.5,-1.8 2,-2 1.2,-0.2 2.3,-0.8 2.3,-1.3 0.1,-0.5 0.2,-1.5 0.3,-2.1 0,-0.7 1.1,-1.4 2.4,-1.6 1.2,-0.2 2.3,-0.8 2.3,-1.3 0.1,-0.5 0.2,-1.5 0.3,-2.1 0,-0.7 1.1,-1.4 2.4,-1.6 1.2,-0.2 2.2,-1 2.2,-1.8 0,-1.2 1,-1.5 3.8,-1.3 5.3,0.4 7.1,1.5 6.7,4.1 -0.3,1.3 -2.6,9.5 -5.3,18.3 l -4.9,16 -6,0.5 -6.1,0.5 -26.2,26.3 c -16.5,16.6 -26.1,25.5 -25.7,24 z"
       id="path116" />
    <path
       d="m 1296.2,308 c 0,-1.9 0.2,-2.7 0.5,-1.7 0.2,0.9 0.2,2.5 0,3.5 -0.3,0.9 -0.5,0.1 -0.5,-1.8 z"
       id="path118" />
    <path
       d="m 94,301.1 c 0,-2 9.6,-21.6 15.2,-31 3.5,-6 6,-9.1 7.3,-9.3 1.4,-0.2 2,-1 1.9,-2.9 -0.1,-2.1 0.3,-2.5 1.7,-2.2 1.3,0.4 3.6,-1.3 7.4,-5.2 3,-3.1 5.3,-6.1 5,-6.5 -0.3,-0.5 0.5,-1 1.7,-1.2 1.5,-0.2 2.3,-1 2.3,-2.3 0,-1.1 0.8,-2.1 1.8,-2.3 2.4,-0.5 10.8,-8.7 11.1,-10.9 0.2,-1 1.3,-1.9 2.4,-2.1 2,-0.3 2.7,-1.3 2.3,-3.4 0,-0.5 0.6,-0.8 1.6,-0.8 0.9,0 3.2,-1.7 5.2,-3.9 3.9,-4.1 10.4,-6.1 14,-4.1 1.8,0.9 1.6,1.5 -2.8,8.9 -2.6,4.4 -6.9,12.7 -9.7,18.5 l -4.9,10.7 -5.2,-0.7 -5.3,-0.6 -23.2,23.3 C 97.7,299.2 94,302.7 94,301.1 Z"
       id="path120" />
    <path
       d="m 1439.9,301.3 c -2.5,-0.4 -2.6,-0.6 -3.2,-10.1 -0.4,-5.3 -0.7,-13.6 -0.7,-18.4 V 264 h 4.9 4.8 l 0.6,6.8 c 0.4,3.7 0.7,12.2 0.7,19 0,13.6 0.5,12.7 -7.1,11.5 z"
       id="path122" />
    <path
       d="m 1177.2,285.3 c 4.2,-4.5 9.8,-11.5 12.4,-15.5 2.6,-4 5.5,-8.4 6.4,-9.8 1,-1.4 2,-3.5 2.4,-4.6 0.7,-2.3 6.3,-3.1 9.6,-1.4 1.9,1 1.9,1.3 -1.6,8.3 -4.4,8.6 -11.8,19.7 -16.7,25.1 -3.6,3.9 -3.7,3.9 -10.2,3.7 -4.3,-0.2 -7.2,0.2 -8.3,1.1 -0.9,0.7 1.8,-2.4 6,-6.9 z"
       id="path124" />
    <path
       d="m 1003.2,284.5 c 0.1,-1.1 -0.3,-10.4 -0.7,-20.7 l -0.8,-18.8 5,0.1 5.1,0.2 0.6,4.5 c 0.3,2.4 0.6,9.1 0.6,14.8 V 275 h 6.8 c 10.2,0 35.7,-1.8 44.5,-3.1 4.3,-0.6 8.5,-1.9 9.3,-2.7 0.9,-0.8 3.2,-1.6 5.1,-1.7 1.9,-0.2 3.9,-0.8 4.3,-1.5 0.4,-0.7 1.5,-1 2.4,-0.7 0.8,0.3 1.9,0 2.3,-0.7 1,-1.7 5,-3.8 8.8,-4.6 1.7,-0.3 2.9,-1 2.7,-1.5 -0.2,-0.6 0.7,-1.2 2,-1.5 1.3,-0.3 2.3,-1.2 2.3,-2 0,-0.8 1,-1.6 2.2,-1.8 1.3,-0.2 2.9,-1.2 3.7,-2.3 0.9,-1.3 1.6,-1.6 2.1,-1 0.3,0.6 2.8,1.1 5.6,1.1 2.7,0 4.9,0.5 4.9,1 0,1.8 -7.2,9 -13.5,13.5 -10.9,7.7 -23.5,13.1 -37.7,15.9 -12.6,2.6 -59.8,5.4 -59.8,3.6 0,-1.4 -6.7,-1.2 -7.3,0.3 -0.3,0.6 -0.5,0.3 -0.5,-0.8 z"
       id="path126" />
    <path
       d="m 795.3,274.8 c -1.2,-1.5 -13.4,-33.8 -13.4,-35.3 0,-0.5 2.3,-1.2 5.1,-1.5 2.7,-0.3 5,-0.5 5,-0.4 0,0.1 3.1,8.4 7,18.5 3.8,10.1 7,18.7 7,19.2 0,1.2 -9.7,0.8 -10.7,-0.5 z"
       id="path128" />
    <path
       d="m 239,248.3 c 4.8,-8.5 11.4,-17.6 18.1,-24.7 5.7,-6.1 6.1,-6.4 12,-7 4.7,-0.6 6.5,-0.4 7.6,0.6 1.1,1.2 0,2.7 -7.5,10.1 -9.5,9.2 -14,14.7 -18.4,22.1 L 248,254 h -6.1 -6.1 z"
       id="path130" />
    <path
       d="m 1529.7,211.3 c -0.4,-10.3 -0.7,-23.2 -0.7,-28.5 0,-5.4 -0.2,-9.8 -0.4,-9.8 -0.2,0 -2.6,2.3 -5.3,5 l -5,5 h -7.9 c -4.3,0 -14,0.4 -21.4,0.9 -7.4,0.5 -20.6,1.3 -29.2,1.7 l -15.8,0.6 v -3.6 c 0,-2 -0.4,-3.6 -1,-3.6 -0.5,0 -1,-2.2 -1,-4.9 v -4.9 l -4.4,-0.6 -4.5,-0.7 -0.5,-5.2 c -0.3,-2.9 -0.8,-12.5 -1.1,-21.4 -0.5,-15.9 -0.5,-16.3 1.5,-16.3 1.2,0 9.6,-0.4 18.8,-1 9.2,-0.5 25.3,-1.4 35.7,-2 56.6,-3 75,-4.2 75.3,-4.5 0.5,-0.5 -1.9,-63.8 -2.4,-64.4 -0.2,-0.2 -9.9,0.1 -21.6,0.8 -39.1,2.2 -55.2,3 -74.8,4.1 -10.7,0.6 -27.4,1.5 -37,2 -9.6,0.5 -26.3,1.4 -37,2 -10.7,0.6 -27.4,1.5 -37,2 -9.6,0.5 -26.3,1.4 -37,2 -10.7,0.6 -27.8,1.5 -38,2.1 -28.1,1.5 -53.5,3 -53.7,3.3 -0.4,0.3 1.9,64 2.2,64.4 0.3,0.3 80.4,-3.8 113.3,-5.8 9,-0.6 16.7,-0.8 17.2,-0.5 0.4,0.3 0.9,7.6 0.9,16.3 0.1,8.6 0.3,17.3 0.6,19.2 0.2,1.9 0.2,2.7 -0.1,1.8 -0.4,-1.4 -1.7,-1.8 -5.8,-1.8 -4.5,0 -5.7,0.4 -8.9,3.4 -2,1.8 -3.7,3.8 -3.7,4.4 0,0.6 -0.9,1.3 -1.9,1.7 -1,0.3 -2.1,1.5 -2.4,2.5 -0.3,1.1 -1.2,2 -2,2 -0.8,0 -1.7,0.9 -2,2 -0.3,1.1 -1.2,2 -2,2 -0.9,0 -1.9,0.9 -2.2,2 -0.3,1.1 -1,2 -1.5,2 -1.1,0 -8,6.9 -8,8 0,0.5 -0.9,1.1 -1.9,1.5 -1,0.3 -2.1,1.5 -2.4,2.5 -0.3,1.1 -1.2,2 -2,2 -0.8,0 -1.7,0.9 -2,2 -0.3,1.1 -1.2,2 -2,2 -0.9,0 -1.9,0.9 -2.2,2 -0.3,1.1 -1,2 -1.5,2 -1.1,0 -6.7,5.7 -8,8.1 -2.3,4.1 -3,1.6 -3,-10.1 v -12 h -6.2 c -3.5,0 -12.4,0.4 -19.8,0.9 -7.4,0.5 -20.8,1.3 -29.7,1.6 l -16.3,0.7 v -6.6 c 0,-4.1 -0.4,-6.6 -1.1,-6.6 -0.7,0 -0.8,-1.1 -0.4,-3 0.4,-1.6 0.3,-3.5 -0.1,-4.2 -0.5,-0.7 -0.7,-2.5 -0.5,-4 0.1,-1.6 -0.2,-2.8 -0.9,-2.8 -0.7,0 -0.9,-0.8 -0.5,-1.9 0.3,-1.1 0.2,-2.2 -0.4,-2.5 -0.5,-0.3 -0.7,-1.5 -0.4,-2.6 0.3,-1.2 0,-2 -0.6,-2 -0.7,0 -1,-0.4 -0.7,-0.9 0.7,-1.1 -2.8,-2.1 -7.5,-2.1 -3.2,0 -3.8,-0.4 -4.4,-2.7 -1.2,-5 -8.3,-19.1 -13.1,-26.3 -16,-23.9 -44.7,-41.5 -78.9,-48.5 -21.8,-4.4 -50.7,-5.5 -83.5,-3 -40.8,3.1 -64.2,6.4 -92.9,13.2 l -11.4,2.7 0.8,26.8 0.7,26.8 H 920 914.8 L 888,174.8 c -14.7,14.7 -26.9,27.4 -27.3,28.2 -0.3,0.8 -0.6,0.2 -0.5,-1.5 0.1,-6.8 -1.3,-54.2 -1.7,-56.8 -0.4,-2.6 2,-5.4 27.3,-30.7 L 913.5,86.3 928,82.7 c 63.8,-15.8 145.5,-20.4 189.3,-10.6 19,4.2 40.3,13.3 52.9,22.7 l 5.7,4.2 18.8,-18.9 18.9,-18.8 8.4,-0.7 c 4.7,-0.3 17.3,-1.1 28,-1.6 26,-1.3 144.8,-7.7 167.5,-9 9.9,-0.6 34.9,-1.9 55.5,-3 20.6,-1.1 45.4,-2.4 55,-3 9.6,-0.5 23.2,-1.2 30.1,-1.6 l 12.6,-0.7 0.7,4.3 0.7,4.3 4.7,-4.5 4.7,-4.6 38.5,-2.1 c 37.5,-2 55.9,-3 93.3,-5.1 10,-0.6 35.1,-1.9 55.7,-3 20.6,-1.1 45,-2.4 54.2,-3 9.1,-0.5 19.3,-1 22.6,-1 h 6 l 0.6,12.2 c 0.4,6.8 1.1,25.8 1.6,42.3 l 0.9,30 -27.7,27.7 -27.7,27.8 h -6.1 c -3.3,0 -13,0.4 -21.5,1 -8.5,0.5 -24.2,1.4 -34.9,2 -10.7,0.5 -28.2,1.5 -38.8,2.2 l -19.4,1.1 0.5,2.4 c 0.4,2.2 0.1,2.3 -4.8,2.3 h -5.2 l -0.6,-9.7 c -0.4,-5.4 -1,-20.2 -1.3,-33 l -0.7,-23.2 3.4,-0.5 c 1.9,-0.2 13.8,-1 26.4,-1.6 12.7,-0.6 30.7,-1.5 40,-2 35.5,-2 53.7,-3 74,-4 11.6,-0.6 23.9,-1.3 27.4,-1.6 l 6.3,-0.6 -0.6,-14.6 c -0.3,-8.1 -0.9,-22.5 -1.2,-32.1 l -0.6,-17.4 -14.7,0.7 c -8,0.4 -21.6,1.1 -30.1,1.6 -8.5,0.5 -24.7,1.4 -36,2 -11.3,0.6 -28.4,1.5 -38,2 -9.6,0.5 -26.3,1.4 -37,2 -38.2,2.1 -54.8,3 -74.2,4.1 l -19.8,1.2 v 12.6 c 0,6.9 0.4,22.7 1,35.1 0.5,12.4 1.2,34.6 1.6,49.4 l 0.7,26.9 -5,-0.6 -5,-0.6 -26.7,26.7 c -14.7,14.7 -27,27.3 -27.5,28 -0.4,0.7 -1.1,-7.2 -1.4,-17.5 z"
       id="path132" />
    <path
       d="m 1849,219.4 v -8.5 l -8.6,0.3 -8.7,0.3 0.7,-12.4 c 1.4,-26.9 9.5,-50.4 24.4,-71.6 6,-8.4 58.6,-62.5 74.2,-76.2 21.6,-19.1 49.8,-32.6 79.6,-38.2 38.3,-7.2 82.2,-4.9 115.7,6 13.6,4.4 34.8,14.9 34.3,16.8 -0.3,0.9 -5.4,18.3 -11.5,38.6 -6,20.4 -11.3,38.2 -11.6,39.7 -0.5,1.8 -10.4,12.5 -28.5,30.6 l -27.7,27.8 -13.4,-6.4 c -26.8,-12.9 -40.1,-16.2 -67.1,-16.9 -21.2,-0.6 -19.8,-1.2 -17.2,7.7 3.2,10.9 11,19.5 24.8,27.6 4.7,2.7 8.5,5.2 8.6,5.7 0,0.4 -3.6,0.7 -8.1,0.7 -5.8,0 -7.8,0.3 -7.3,1.1 1.1,1.8 -5.1,-2.1 -10.6,-6.6 -10.2,-8.5 -16.7,-19.1 -18.9,-31 -8.3,-44.9 31.4,-75.6 91.2,-70.4 21,1.8 37.8,6.2 56,14.7 5.3,2.5 9.9,4.3 10.1,4.1 0.4,-0.5 18.6,-61.2 18.6,-62.2 0,-1.3 -14.2,-7.8 -24.5,-11.3 -21,-7 -40.2,-9.8 -67,-9.8 -26.3,0 -46,2.8 -65.8,9.4 -42.7,14.3 -74.4,44.2 -87.1,82.2 -7.4,21.9 -8,51.2 -1.7,72.6 l 1,3.2 h -5.7 -5.7 l -20.4,20.5 c -11.3,11.3 -20.8,20.5 -21.3,20.5 -0.4,0 -0.8,-3.9 -0.8,-8.6 z"
       id="path134" />
    <path
       d="m 1034,207.8 c -3,-1.1 -9.3,-2.5 -14,-3.2 l -8.5,-1.2 -0.3,-9.2 c -0.1,-5.1 -0.6,-9.2 -1.1,-9.2 -0.5,0 -0.7,-7.6 -0.5,-17 l 0.4,-17 h -5.5 -5.5 v -3.4 c 0,-4 -0.2,-4 13,-6 34.9,-5.5 66.5,-4.1 86,3.7 6.2,2.5 17,8.7 17,9.7 0,0.3 -4.7,0.4 -10.5,0.2 -7.4,-0.3 -11,-0.1 -12,0.8 -0.8,0.7 -1.3,1.6 -1,2 0.2,0.4 -0.7,1.2 -2.1,1.9 -1.4,0.6 -2.2,1.6 -1.9,2.1 0.3,0.6 0.2,1 -0.3,1 -1.4,0 -21.8,20.2 -21.4,21.2 0.1,0.4 -0.2,0.8 -0.7,0.8 -0.5,0 -5.7,4.7 -11.6,10.5 -5.9,5.8 -10.4,10.5 -10.1,10.5 0.3,0 -0.3,0.9 -1.4,2 -1.1,1.1 -2.1,1.9 -2.2,1.9 -0.2,-0.1 -2.8,-1 -5.8,-2.1 z"
       id="path136" />
    <path
       d="m 576.6,176.8 c 1.8,-6.2 4.5,-15.4 6,-20.4 l 2.6,-9.1 27.6,-27.6 27.7,-27.7 17,-1 c 41.9,-2.3 60.6,-3.2 68.8,-3.4 l 8.9,-0.1 9.9,26 c 5.4,14.3 9.9,26.3 9.9,26.7 0,1.1 -10.9,0.6 -11.3,-0.6 -10.8,-28.9 -15.2,-40.3 -15.7,-40.9 -0.7,-0.8 -7.6,-0.5 -60.4,2.3 -10.9,0.6 -19.3,1.5 -19.6,2 -0.4,0.6 -2.9,8.5 -5.6,17.7 l -4.9,16.5 -5.4,-0.5 -5.4,-0.6 -25.9,26 C 586.5,176.3 574.5,188 574,188 c -0.4,0 0.7,-5.1 2.6,-11.2 z"
       id="path138" />
    <path
       d="m 484.5,131 c -3.3,-0.3 -4.9,-0.9 -4.7,-1.8 0.5,-2.6 -20.1,-10.3 -37.8,-14 -19.4,-4.1 -26.7,-4.7 -57,-4.7 -29,0 -35.5,0.5 -55.5,4.1 -10.2,1.8 -28.4,6.3 -30.9,7.6 -2.1,1.1 -12.4,1.2 -22.5,0.2 l -6.4,-0.7 8.4,-3.4 c 46.7,-19 111.5,-24.4 164.4,-13.8 14.5,2.9 27.4,7.1 40.2,13.1 8.6,4 9.5,4.7 8.9,6.7 -0.4,1.2 -0.9,3.3 -1.2,4.7 -0.3,1.3 -0.6,2.5 -0.7,2.5 -0.1,0 -2.4,-0.2 -5.2,-0.5 z"
       id="path140" />
  </g>
</svg>
