<?xml version="1.0" encoding="UTF-8" standalone="no"?>
<svg
   version="1.0"
   width="1349.7"
   height="601.61554"
   viewBox="0 0 1349.7 601.61554"
   preserveAspectRatio="xMidYMid meet"
   id="svg263"
   sodipodi:docname="auto-fight-fr.svg"
   inkscape:version="1.1.2 (0a00cf5339, 2022-02-04, custom)"
   xmlns:inkscape="http://www.inkscape.org/namespaces/inkscape"
   xmlns:sodipodi="http://sodipodi.sourceforge.net/DTD/sodipodi-0.dtd"
   xmlns:xlink="http://www.w3.org/1999/xlink"
   xmlns="http://www.w3.org/2000/svg"
   xmlns:svg="http://www.w3.org/2000/svg">
  <sodipodi:namedview
     id="namedview265"
     pagecolor="#ffffff"
     bordercolor="#666666"
     borderopacity="1.0"
     inkscape:pageshadow="2"
     inkscape:pageopacity="0.0"
     inkscape:pagecheckerboard="0"
     showgrid="false"
     inkscape:zoom="0.79185185"
     inkscape:cx="675"
     inkscape:cy="300.56127"
     inkscape:window-width="1920"
     inkscape:window-height="1017"
     inkscape:window-x="-8"
     inkscape:window-y="-8"
     inkscape:window-maximized="1"
     inkscape:current-layer="svg263" />
  <defs
     id="defs57">
    <linearGradient
       id="lg0"
       gradientUnits="userSpaceOnUse"
       x1="675"
       y1="0"
       x2="675"
       y2="595">
      <stop
         offset="0%"
         style="stop-color:rgb(0,0,0);"
         id="stop2" />
      <stop
         offset="2%"
         style="stop-color:rgb(41,50,70);"
         id="stop4" />
      <stop
         offset="8%"
         style="stop-color:rgb(41,50,72);"
         id="stop6" />
      <stop
         offset="20%"
         style="stop-color:rgb(98,104,117);"
         id="stop8" />
      <stop
         offset="35%"
         style="stop-color:rgb(191,175,178);"
         id="stop10" />
      <stop
         offset="36%"
         style="stop-color:rgb(196,180,182);"
         id="stop12" />
      <stop
         offset="38%"
         style="stop-color:rgb(206,179,168);"
         id="stop14" />
      <stop
         offset="39%"
         style="stop-color:rgb(211,190,183);"
         id="stop16" />
      <stop
         offset="40%"
         style="stop-color:rgb(214,197,191);"
         id="stop18" />
      <stop
         offset="41%"
         style="stop-color:rgb(212,195,190);"
         id="stop20" />
      <stop
         offset="42%"
         style="stop-color:rgb(116,54,46);"
         id="stop22" />
      <stop
         offset="43%"
         style="stop-color:rgb(121,57,46);"
         id="stop24" />
      <stop
         offset="45%"
         style="stop-color:rgb(133,58,36);"
         id="stop26" />
      <stop
         offset="49%"
         style="stop-color:rgb(148,52,0);"
         id="stop28" />
      <stop
         offset="60%"
         style="stop-color:rgb(209,83,0);"
         id="stop30" />
      <stop
         offset="61%"
         style="stop-color:rgb(213,82,0);"
         id="stop32" />
      <stop
         offset="63%"
         style="stop-color:rgb(220,96,0);"
         id="stop34" />
      <stop
         offset="66%"
         style="stop-color:rgb(224,106,0);"
         id="stop36" />
      <stop
         offset="67%"
         style="stop-color:rgb(226,114,0);"
         id="stop38" />
      <stop
         offset="68%"
         style="stop-color:rgb(227,116,0);"
         id="stop40" />
      <stop
         offset="69%"
         style="stop-color:rgb(230,126,0);"
         id="stop42" />
      <stop
         offset="74%"
         style="stop-color:rgb(237,149,0);"
         id="stop44" />
      <stop
         offset="75%"
         style="stop-color:rgb(240,159,0);"
         id="stop46" />
      <stop
         offset="76%"
         style="stop-color:rgb(241,164,0);"
         id="stop48" />
      <stop
         offset="77%"
         style="stop-color:rgb(242,164,0);"
         id="stop50" />
      <stop
         offset="86%"
         style="stop-color:rgb(254,215,0);"
         id="stop52" />
      <stop
         offset="100%"
         style="stop-color:rgb(254,215,0);"
         id="stop54" />
    </linearGradient>
    <linearGradient
       inkscape:collect="always"
       xlink:href="#lg0"
       id="linearGradient1082"
       gradientUnits="userSpaceOnUse"
       x1="675"
       y1="0"
       x2="675"
       y2="595" />
    <linearGradient
       inkscape:collect="always"
       xlink:href="#lg0"
       id="linearGradient1084"
       gradientUnits="userSpaceOnUse"
       x1="675"
       y1="0"
       x2="675"
       y2="595" />
    <linearGradient
       inkscape:collect="always"
       xlink:href="#lg0"
       id="linearGradient1086"
       gradientUnits="userSpaceOnUse"
       x1="675"
       y1="0"
       x2="675"
       y2="595" />
    <linearGradient
       inkscape:collect="always"
       xlink:href="#lg0"
       id="linearGradient1088"
       gradientUnits="userSpaceOnUse"
       x1="675"
       y1="0"
       x2="675"
       y2="595" />
    <linearGradient
       inkscape:collect="always"
       xlink:href="#lg0"
       id="linearGradient1090"
       gradientUnits="userSpaceOnUse"
       x1="675"
       y1="0"
       x2="675"
       y2="595" />
    <linearGradient
       inkscape:collect="always"
       xlink:href="#lg0"
       id="linearGradient1092"
       gradientUnits="userSpaceOnUse"
       x1="675"
       y1="0"
       x2="675"
       y2="595" />
    <linearGradient
       inkscape:collect="always"
       xlink:href="#lg0"
       id="linearGradient1094"
       gradientUnits="userSpaceOnUse"
       x1="675"
       y1="0"
       x2="675"
       y2="595" />
    <linearGradient
       inkscape:collect="always"
       xlink:href="#lg0"
       id="linearGradient1096"
       gradientUnits="userSpaceOnUse"
       x1="675"
       y1="0"
       x2="675"
       y2="595" />
    <linearGradient
       inkscape:collect="always"
       xlink:href="#lg0"
       id="linearGradient1098"
       gradientUnits="userSpaceOnUse"
       x1="675"
       y1="0"
       x2="675"
       y2="595" />
    <linearGradient
       inkscape:collect="always"
       xlink:href="#lg0"
       id="linearGradient1100"
       gradientUnits="userSpaceOnUse"
       x1="675"
       y1="0"
       x2="675"
       y2="595" />
    <linearGradient
       inkscape:collect="always"
       xlink:href="#lg0"
       id="linearGradient1102"
       gradientUnits="userSpaceOnUse"
       x1="675"
       y1="0"
       x2="675"
       y2="595" />
    <linearGradient
       inkscape:collect="always"
       xlink:href="#lg0"
       id="linearGradient1104"
       gradientUnits="userSpaceOnUse"
       x1="675"
       y1="0"
       x2="675"
       y2="595" />
    <linearGradient
       inkscape:collect="always"
       xlink:href="#lg0"
       id="linearGradient1106"
       gradientUnits="userSpaceOnUse"
       x1="675"
       y1="0"
       x2="675"
       y2="595" />
    <linearGradient
       inkscape:collect="always"
       xlink:href="#lg0"
       id="linearGradient1108"
       gradientUnits="userSpaceOnUse"
       x1="675"
       y1="0"
       x2="675"
       y2="595" />
    <linearGradient
       inkscape:collect="always"
       xlink:href="#lg0"
       id="linearGradient1110"
       gradientUnits="userSpaceOnUse"
       x1="675"
       y1="0"
       x2="675"
       y2="595" />
    <linearGradient
       inkscape:collect="always"
       xlink:href="#lg0"
       id="linearGradient1112"
       gradientUnits="userSpaceOnUse"
       x1="675"
       y1="0"
       x2="675"
       y2="595" />
    <linearGradient
       inkscape:collect="always"
       xlink:href="#lg0"
       id="linearGradient1114"
       gradientUnits="userSpaceOnUse"
       x1="675"
       y1="0"
       x2="675"
       y2="595" />
    <linearGradient
       inkscape:collect="always"
       xlink:href="#lg0"
       id="linearGradient1116"
       gradientUnits="userSpaceOnUse"
       x1="675"
       y1="0"
       x2="675"
       y2="595" />
    <linearGradient
       inkscape:collect="always"
       xlink:href="#lg0"
       id="linearGradient1118"
       gradientUnits="userSpaceOnUse"
       x1="675"
       y1="0"
       x2="675"
       y2="595" />
    <linearGradient
       inkscape:collect="always"
       xlink:href="#lg0"
       id="linearGradient1120"
       gradientUnits="userSpaceOnUse"
       x1="675"
       y1="0"
       x2="675"
       y2="595" />
    <linearGradient
       inkscape:collect="always"
       xlink:href="#lg0"
       id="linearGradient1122"
       gradientUnits="userSpaceOnUse"
       x1="675"
       y1="0"
       x2="675"
       y2="595" />
    <linearGradient
       inkscape:collect="always"
       xlink:href="#lg0"
       id="linearGradient1124"
       gradientUnits="userSpaceOnUse"
       x1="675"
       y1="0"
       x2="675"
       y2="595" />
    <linearGradient
       inkscape:collect="always"
       xlink:href="#lg0"
       id="linearGradient1126"
       gradientUnits="userSpaceOnUse"
       x1="675"
       y1="0"
       x2="675"
       y2="595" />
    <linearGradient
       inkscape:collect="always"
       xlink:href="#lg0"
       id="linearGradient1128"
       gradientUnits="userSpaceOnUse"
       x1="675"
       y1="0"
       x2="675"
       y2="595" />
    <linearGradient
       inkscape:collect="always"
       xlink:href="#lg0"
       id="linearGradient1130"
       gradientUnits="userSpaceOnUse"
       x1="675"
       y1="0"
       x2="675"
       y2="595" />
    <linearGradient
       inkscape:collect="always"
       xlink:href="#lg0"
       id="linearGradient1132"
       gradientUnits="userSpaceOnUse"
       x1="675"
       y1="0"
       x2="675"
       y2="595" />
    <linearGradient
       inkscape:collect="always"
       xlink:href="#lg0"
       id="linearGradient1134"
       gradientUnits="userSpaceOnUse"
       x1="675"
       y1="0"
       x2="675"
       y2="595" />
    <linearGradient
       inkscape:collect="always"
       xlink:href="#lg0"
       id="linearGradient1136"
       gradientUnits="userSpaceOnUse"
       x1="675"
       y1="0"
       x2="675"
       y2="595" />
    <linearGradient
       inkscape:collect="always"
       xlink:href="#lg0"
       id="linearGradient1138"
       gradientUnits="userSpaceOnUse"
       x1="675"
       y1="0"
       x2="675"
       y2="595" />
    <linearGradient
       inkscape:collect="always"
       xlink:href="#lg0"
       id="linearGradient1140"
       gradientUnits="userSpaceOnUse"
       x1="675"
       y1="0"
       x2="675"
       y2="595" />
    <linearGradient
       inkscape:collect="always"
       xlink:href="#lg0"
       id="linearGradient1142"
       gradientUnits="userSpaceOnUse"
       x1="675"
       y1="0"
       x2="675"
       y2="595" />
    <linearGradient
       inkscape:collect="always"
       xlink:href="#lg0"
       id="linearGradient1144"
       gradientUnits="userSpaceOnUse"
       x1="675"
       y1="0"
       x2="675"
       y2="595" />
    <linearGradient
       inkscape:collect="always"
       xlink:href="#lg0"
       id="linearGradient1146"
       gradientUnits="userSpaceOnUse"
       x1="675"
       y1="0"
       x2="675"
       y2="595" />
    <linearGradient
       inkscape:collect="always"
       xlink:href="#lg0"
       id="linearGradient1148"
       gradientUnits="userSpaceOnUse"
       x1="675"
       y1="0"
       x2="675"
       y2="595" />
    <linearGradient
       inkscape:collect="always"
       xlink:href="#lg0"
       id="linearGradient1150"
       gradientUnits="userSpaceOnUse"
       x1="675"
       y1="0"
       x2="675"
       y2="595" />
    <linearGradient
       inkscape:collect="always"
       xlink:href="#lg0"
       id="linearGradient1152"
       gradientUnits="userSpaceOnUse"
       x1="675"
       y1="0"
       x2="675"
       y2="595" />
    <linearGradient
       inkscape:collect="always"
       xlink:href="#lg0"
       id="linearGradient1154"
       gradientUnits="userSpaceOnUse"
       x1="675"
       y1="0"
       x2="675"
       y2="595" />
    <linearGradient
       inkscape:collect="always"
       xlink:href="#lg0"
       id="linearGradient1156"
       gradientUnits="userSpaceOnUse"
       x1="675"
       y1="0"
       x2="675"
       y2="595" />
    <linearGradient
       inkscape:collect="always"
       xlink:href="#lg0"
       id="linearGradient1158"
       gradientUnits="userSpaceOnUse"
       x1="675"
       y1="0"
       x2="675"
       y2="595" />
    <linearGradient
       inkscape:collect="always"
       xlink:href="#lg0"
       id="linearGradient1160"
       gradientUnits="userSpaceOnUse"
       x1="675"
       y1="0"
       x2="675"
       y2="595" />
    <linearGradient
       inkscape:collect="always"
       xlink:href="#lg0"
       id="linearGradient1162"
       gradientUnits="userSpaceOnUse"
       x1="675"
       y1="0"
       x2="675"
       y2="595" />
    <linearGradient
       inkscape:collect="always"
       xlink:href="#lg0"
       id="linearGradient1164"
       gradientUnits="userSpaceOnUse"
       x1="675"
       y1="0"
       x2="675"
       y2="595" />
    <linearGradient
       inkscape:collect="always"
       xlink:href="#lg0"
       id="linearGradient1166"
       gradientUnits="userSpaceOnUse"
       x1="675"
       y1="0"
       x2="675"
       y2="595" />
    <linearGradient
       inkscape:collect="always"
       xlink:href="#lg0"
       id="linearGradient1168"
       gradientUnits="userSpaceOnUse"
       x1="675"
       y1="0"
       x2="675"
       y2="595" />
    <linearGradient
       inkscape:collect="always"
       xlink:href="#lg0"
       id="linearGradient1170"
       gradientUnits="userSpaceOnUse"
       x1="675"
       y1="0"
       x2="675"
       y2="595" />
    <linearGradient
       inkscape:collect="always"
       xlink:href="#lg0"
       id="linearGradient1172"
       gradientUnits="userSpaceOnUse"
       x1="675"
       y1="0"
       x2="675"
       y2="595" />
    <linearGradient
       inkscape:collect="always"
       xlink:href="#lg0"
       id="linearGradient1174"
       gradientUnits="userSpaceOnUse"
       x1="675"
       y1="0"
       x2="675"
       y2="595" />
    <linearGradient
       inkscape:collect="always"
       xlink:href="#lg0"
       id="linearGradient1176"
       gradientUnits="userSpaceOnUse"
       x1="675"
       y1="0"
       x2="675"
       y2="595" />
    <linearGradient
       inkscape:collect="always"
       xlink:href="#lg0"
       id="linearGradient1178"
       gradientUnits="userSpaceOnUse"
       x1="675"
       y1="0"
       x2="675"
       y2="595" />
    <linearGradient
       inkscape:collect="always"
       xlink:href="#lg0"
       id="linearGradient1180"
       gradientUnits="userSpaceOnUse"
       x1="675"
       y1="0"
       x2="675"
       y2="595" />
    <linearGradient
       inkscape:collect="always"
       xlink:href="#lg0"
       id="linearGradient1182"
       gradientUnits="userSpaceOnUse"
       x1="675"
       y1="0"
       x2="675"
       y2="595" />
    <linearGradient
       inkscape:collect="always"
       xlink:href="#lg0"
       id="linearGradient1184"
       gradientUnits="userSpaceOnUse"
       x1="675"
       y1="0"
       x2="675"
       y2="595" />
    <linearGradient
       inkscape:collect="always"
       xlink:href="#lg0"
       id="linearGradient1186"
       gradientUnits="userSpaceOnUse"
       x1="675"
       y1="0"
       x2="675"
       y2="595" />
    <linearGradient
       inkscape:collect="always"
       xlink:href="#lg0"
       id="linearGradient1188"
       gradientUnits="userSpaceOnUse"
       x1="675"
       y1="0"
       x2="675"
       y2="595" />
    <linearGradient
       inkscape:collect="always"
       xlink:href="#lg0"
       id="linearGradient1190"
       gradientUnits="userSpaceOnUse"
       x1="675"
       y1="0"
       x2="675"
       y2="595" />
  </defs>
  <g
     fill="#c8b9b8"
     id="g71"
     transform="translate(-0.3)">
    <path
       fill="url(#lg0)"
       d="M 0.8,439.4 C 0.7,349.8 0.6,264.8 0.6,250.5 0.6,236.2 0.7,174 0.8,112.3 L 1,0 H 97.5 194 l 7,4.5 c 3.9,2.5 10.1,6.5 14,9 l 7,4.5 v 81.4 c 0,90.9 0.7,82.6 -7.3,82.6 -2.3,0 -16,0.7 -30.4,1.7 l -26.2,1.7 -12.3,-2.8 c -6.8,-1.5 -14.1,-3.3 -16.2,-3.9 l -3.9,-1.1 0.4,-40.1 0.4,-40 -11,0.4 c -6,0.2 -11.3,0.5 -11.7,0.8 -1.2,0.7 -1,390.3 0.2,390.3 0.8,0 12.9,-2.2 19.8,-3.6 L 126,485 V 363.1 241.2 l 6.3,0.5 c 3.4,0.2 8.6,0.9 11.6,1.4 3,0.5 7.1,0.9 9.1,0.9 2.6,0 5.5,1.2 9.9,4 3.4,2.2 6.3,4 6.6,4 0.2,0 3.8,2.3 7.9,5 4.2,2.8 7.8,5 8.1,5 0.3,0 3.2,1.7 6.3,3.8 3.1,2.1 11,6.9 17.4,10.8 l 11.8,6.9 v 110.1 c 0,109.2 -0.6,152.4 -2.1,152.4 -0.4,0 -3.4,1.5 -6.6,3.3 -8.2,4.8 -21.3,11.7 -21.5,11.5 -0.6,-0.3 -20.3,3.1 -38.3,6.8 -13.8,2.8 -47.1,9.6 -50.5,10.4 -1.9,0.4 -6,1.3 -9,1.9 -3,0.6 -8.2,1.8 -11.5,2.6 -3.3,0.7 -8.9,2.1 -12.5,2.9 -19.3,4.5 -26.3,6.1 -44.7,10.7 -11.1,2.7 -20.9,5.2 -21.7,5.5 C 1.2,602.2 1,586 0.8,439.4 Z"
       id="path59"
       style="fill:url(#linearGradient1082)" />
    <path
       fill="url(#lg0)"
       d="m 1277,584.4 c -3,-0.8 -7.5,-1.8 -10,-2.3 -2.5,-0.5 -8.5,-1.8 -13.5,-2.9 -4.9,-1.2 -10.1,-2.3 -11.5,-2.5 -18.9,-3.5 -22.4,-4.7 -38.5,-13 l -14,-7.3 -0.6,-59.9 c -0.3,-33 -0.7,-136.4 -0.8,-229.8 -0.1,-134.8 -0.4,-169.8 -1.3,-170.2 -0.7,-0.2 -13.8,-0.8 -29.1,-1.3 -15.2,-0.5 -28,-1.2 -28.5,-1.6 -0.4,-0.4 -0.7,-17.7 -0.7,-38.3 V 17.7 l 6,-3.7 c 3.3,-2 9.7,-6 14.3,-8.8 l 8.3,-5.2 h 96.5 96.4 v 43.9 44 l -19,6.1 -19.1,6.1 -12.5,-0.2 -12.5,-0.2 0.1,243.1 0.1,243.2 -2.3,-0.1 c -1.3,-0.1 -4.8,-0.8 -7.8,-1.5 z"
       id="path61"
       style="fill:url(#linearGradient1084)" />
    <path
       fill="url(#lg0)"
       d="m 230.4,369.6 c 0.3,-101.3 0.9,-225.8 1.3,-276.9 L 232.3,0 h 96.7 96.6 l 2.4,3.3 c 1.3,1.7 4.6,5.8 7.3,8.9 l 5,5.8 -0.7,148.7 c -0.3,81.9 -0.9,193.8 -1.2,248.8 l -0.5,100 -6.2,5.8 c -7.3,6.9 -8,7.2 -17.7,8.2 -19.7,1.8 -34,3.3 -44,4.5 -4.7,0.6 -12.3,1.4 -17,2 -16,1.7 -49.9,6.2 -68,8.9 -20.7,3.2 -35.7,5.5 -44.9,7.1 l -10.4,1.7 z M 339.5,453 c 11.5,-1.3 16.5,-2 16.5,-2.3 0,-0.1 0.3,-65.4 0.5,-145.2 0.3,-79.7 0.7,-160.5 1,-179.5 l 0.6,-34.5 -18.3,0.3 c -10.1,0.2 -18.5,0.6 -18.7,0.8 -0.5,0.5 -1.8,360.7 -1.3,361.7 0.2,0.5 2.5,0.6 5.1,0.3 2.5,-0.3 9.1,-1 14.6,-1.6 z"
       id="path63"
       style="fill:url(#linearGradient1086)" />
    <path
       fill="url(#lg0)"
       d="m 1113.5,552.4 c -3.8,-0.7 -10.1,-1.8 -14,-2.3 -3.8,-0.6 -9.7,-1.5 -13,-2 -3.3,-0.5 -12.2,-1.9 -19.9,-3 l -13.8,-2 -10.3,-6.8 -10.3,-6.8 -0.6,-35 c -0.3,-19.2 -0.7,-64.6 -1,-100.8 l -0.4,-65.8 9.7,0.6 c 8,0.5 9.3,0.4 8.1,-0.7 -3.9,-3.4 -52.8,-39.8 -53.4,-39.8 -0.4,0 -0.6,55.8 -0.4,124 0.3,109.8 0.1,123.9 -1.2,123.5 -1.4,-0.4 -15.7,-2 -27.5,-3.1 -2.7,-0.2 -6.3,-0.6 -8,-0.9 -1.6,-0.2 -6.1,-0.7 -10,-1 -18.7,-1.5 -21.3,-2.2 -26.3,-6.9 -2.6,-2.5 -5.6,-5.3 -6.8,-6.3 l -2.1,-1.8 -0.7,-248.8 -0.8,-248.7 7.3,-9 7.2,-9 h 96.9 96.8 v 26.3 c 0,61.5 1,376.7 1.5,449 0.3,43.3 0.4,78.6 0.2,78.6 -0.1,-0.1 -3.3,-0.8 -7.2,-1.5 z M 925.7,436.8 c -0.2,-2.4 -0.4,-0.5 -0.4,4.2 0,4.7 0.2,6.6 0.4,4.3 0.2,-2.4 0.2,-6.2 0,-8.5 z M 1030,152.5 c 0,-46.8 -0.3,-59.7 -1.2,-60 -0.7,-0.2 -9.1,-0.5 -18.6,-0.7 l -17.2,-0.3 0.1,47.4 c 0.1,47 0.2,47.3 2.3,49.2 3.4,2.9 33,23.8 33.9,23.8 0.4,0.1 0.7,-26.7 0.7,-59.4 z"
       id="path65"
       style="fill:url(#linearGradient1088)" />
    <path
       fill="url(#lg0)"
       d="m 461.8,345.3 c 0.1,-98.9 0.6,-216.8 1,-262.1 l 0.7,-82.2 7,4.7 c 12.1,8.1 75.1,48.7 85.7,55.1 l 3.6,2.3 22.4,-14.2 c 12.3,-7.7 25.2,-16 28.8,-18.3 23.8,-15.5 45.2,-28.7 45.8,-28.1 0.8,0.8 1,513.1 0.2,513.8 -0.3,0.2 -16,0.7 -34.8,1.1 l -34.4,0.7 0.4,-188.6 c 0.1,-103.7 0,-188.5 -0.5,-188.5 -0.4,0 -4.5,2.4 -9.1,5.4 -4.6,3 -9.3,5.9 -10.4,6.5 -1.8,1 -3.9,0 -15.4,-7.3 -12.5,-7.9 -13.3,-8.3 -13.9,-6.3 -0.3,1.2 -0.7,84.7 -0.8,185.5 l -0.3,183.3 -4,6.3 -4,6.3 -12.7,0.7 c -6.9,0.4 -15.5,0.9 -19.1,1.1 -3.6,0.3 -12.8,0.9 -20.5,1.5 -7.7,0.5 -14.4,1 -15,1 -0.7,0 -0.9,-60.4 -0.7,-179.7 z m 68.9,81 c -0.2,-3.7 -0.3,-0.9 -0.3,6.2 0,7.2 0.1,10.2 0.3,6.8 0.2,-3.4 0.2,-9.3 0,-13 z m 0,-27 c -0.2,-1.6 -0.4,-0.5 -0.4,2.2 0,2.8 0.2,4 0.4,2.8 0.2,-1.3 0.2,-3.5 0,-5 z m 0,-107.5 c -0.1,-4 -0.3,-1 -0.3,6.7 0,7.7 0.1,11 0.3,7.3 0.2,-3.7 0.2,-10 0,-14 z"
       id="path67"
       style="fill:url(#linearGradient1090)" />
    <path
       fill="url(#lg0)"
       d="M 872,523.9 C 820.1,520.1 750.2,517.1 710.4,517 h -16.1 l -0.6,-5.7 C 692.8,503.4 692.8,16.4 693.6,7.2 L 694.3,0 h 96.8 96.9 l 0.2,109.3 c 0.2,83.6 0,109.4 -0.9,110.2 -0.6,0.6 -7.7,5 -15.7,9.9 -8,4.9 -14.6,9.3 -14.6,9.7 0,0.4 1.5,1.6 3.3,2.7 1.7,1.2 6.8,4.6 11.2,7.7 4.4,3.1 10.1,7 12.7,8.8 l 4.7,3.2 0.1,131.8 V 525 l -3.2,-0.1 c -1.8,-0.1 -8,-0.5 -13.8,-1 z m -59.6,-91.1 c 0.4,-2.4 0.4,-29.7 0,-60.8 l -0.7,-56.5 6.4,0.2 c 3.5,0.1 7.8,-0.1 9.6,-0.5 3.1,-0.7 1.9,-1.6 -30.3,-23.1 -18.4,-12.3 -33.8,-22.1 -34.2,-21.7 -0.6,0.7 -1.6,164.4 -0.9,164.7 0.1,0.1 9.2,0.5 20.2,0.9 11,0.3 22.1,0.7 24.6,0.8 l 4.6,0.2 z M 812,151 V 89 h -25 -25 l 0.2,46.1 0.3,46 24.3,16 c 13.4,8.7 24.6,15.9 24.8,15.9 0.2,0 0.4,-27.9 0.4,-62 z"
       id="path69"
       style="fill:url(#linearGradient1092)" />
  </g>
  <g
     fill="#f7c100"
     id="g85"
     transform="translate(-0.3)">
    <path
       fill="url(#lg0)"
       d="M 0.9,440.4 C 0.9,351.3 0.7,275.1 0.5,271 c -0.1,-4.1 0,-6.3 0.2,-4.7 0.4,2.5 0.8,2.7 5.3,2.7 h 4.9 l 0.3,-11.2 0.3,-11.3 h 23 23 l 0.5,10.9 c 0.6,12.1 0.7,12.3 7.8,11.1 l 3.2,-0.6 -0.2,-17.2 c -0.2,-13.6 -0.6,-17.1 -1.6,-16.9 -0.7,0.1 -3.1,-0.2 -5.3,-0.8 L 58,231.9 v -17.7 c 0,-9.7 -0.3,-19.3 -0.6,-21.2 l -0.6,-3.5 -21.6,-0.2 c -15.6,-0.1 -21.9,0.2 -22.4,1 -0.4,0.7 -0.8,7.1 -0.8,14.3 0,7.2 -0.3,16.6 -0.7,20.8 l -0.6,7.8 -4.8,-0.4 -4.8,-0.3 -0.5,3.5 c -0.2,1.9 -0.2,-1.7 0,-8 C 0.8,221.7 1,167.8 1,108.3 V 0 H 97.5 194 l 7,4.5 c 3.9,2.5 10.1,6.5 14,9 l 7,4.5 v 81.4 c 0,90.9 0.7,82.6 -7.3,82.6 -2.3,0 -16,0.7 -30.4,1.7 l -26.2,1.7 -12.3,-2.8 c -6.8,-1.5 -14.1,-3.3 -16.2,-3.9 l -3.9,-1.1 0.4,-40.1 0.4,-40 -11,0.4 c -6,0.2 -11.3,0.5 -11.7,0.8 -1.2,0.7 -1,390.3 0.2,390.3 0.8,0 12.9,-2.2 19.8,-3.6 L 126,485 V 376.7 268.4 l 3.4,0.4 c 4.8,0.6 7.6,-1.2 7.6,-4.8 0,-1.7 0.3,-3 0.6,-3 0.4,0 3.3,1.6 6.5,3.6 5.4,3.2 6.8,3.6 15.5,4.1 7.6,0.5 9.6,0.3 9.2,-0.7 -0.2,-0.7 -9.2,-6.7 -20,-13.4 -10.9,-6.7 -19.9,-12.4 -20.2,-12.7 -0.3,-0.2 2.8,-0.1 6.7,0.3 22.8,2.2 21.6,1.9 27.8,6 3.3,2.1 6.1,3.8 6.4,3.8 0.2,0 3.8,2.3 7.9,5 4.2,2.8 7.8,5 8.1,5 0.3,0 3.2,1.7 6.3,3.8 3.1,2.1 11,6.9 17.4,10.8 l 11.8,6.9 v 110.1 c 0,109.2 -0.6,152.4 -2.1,152.4 -0.4,0 -3.4,1.5 -6.6,3.3 -8.2,4.8 -21.3,11.7 -21.5,11.5 -0.6,-0.3 -20.3,3.1 -38.3,6.8 -13.8,2.8 -47.1,9.6 -50.5,10.4 -1.9,0.4 -6,1.3 -9,1.9 -3,0.6 -8.2,1.8 -11.5,2.6 -3.3,0.7 -8.9,2.1 -12.5,2.9 -19.3,4.5 -26.3,6.1 -44.7,10.7 -11.1,2.7 -20.9,5.2 -21.7,5.5 C 1.2,602.2 1,586.1 0.9,440.4 Z"
       id="path73"
       style="fill:url(#linearGradient1094)" />
    <path
       fill="url(#lg0)"
       d="m 1277,584.4 c -3,-0.8 -7.5,-1.8 -10,-2.3 -2.5,-0.5 -8.5,-1.8 -13.5,-2.9 -4.9,-1.2 -10.1,-2.3 -11.5,-2.5 -18.9,-3.5 -22.4,-4.7 -38.5,-13 l -14,-7.3 -0.6,-59.9 c -0.3,-33 -0.7,-136.4 -0.8,-229.8 -0.1,-134.8 -0.4,-169.8 -1.3,-170.2 -0.7,-0.2 -13.8,-0.8 -29.1,-1.3 -15.2,-0.5 -28,-1.2 -28.5,-1.6 -0.4,-0.4 -0.7,-17.7 -0.7,-38.3 V 17.7 l 6,-3.7 c 3.3,-2 9.7,-6 14.3,-8.8 l 8.3,-5.2 h 96.5 96.4 v 43.9 44 l -19,6.1 -19.1,6.1 -12.6,-0.2 -12.6,-0.2 0.2,66.6 0.2,66.6 -3.8,-0.3 c -2.1,-0.2 -4.3,-0.4 -4.9,-0.5 -1.7,-0.2 -2.3,-6 -2.5,-24.3 0,-11.2 -0.4,-17 -1.2,-17.5 -0.6,-0.4 -10.6,-0.9 -22.3,-1.1 l -21.1,-0.4 -0.6,2.3 c -0.4,1.3 -0.7,10.3 -0.7,19.9 0,21.3 -0.2,22 -4.5,22 -6.7,0 -6.5,-0.5 -6.5,18.1 V 268 l 2.6,0.6 c 1.5,0.4 3.9,0.3 5.3,-0.2 2.6,-0.9 2.6,-1.1 2.9,-11.7 l 0.3,-10.7 h 22.9 23 v 10.5 c 0,10.5 0,10.6 2.7,11.6 1.4,0.5 3.9,0.7 5.5,0.4 l 2.8,-0.7 V 426.9 586 l -2.2,-0.1 c -1.3,-0.1 -4.8,-0.8 -7.8,-1.5 z"
       id="path75"
       style="fill:url(#linearGradient1096)" />
    <path
       fill="url(#lg0)"
       d="m 230,453.1 c 0,-55.3 0.3,-119.4 0.7,-142.3 l 0.6,-41.8 h 4.9 4.8 l 0.2,-6.2 c 0.1,-5.9 0.4,-10.9 0.7,-15 0.1,-1.7 1.9,-1.8 23.1,-1.8 h 23 v 10.9 c 0,12.1 0,12.1 7.1,12.1 h 3.9 v -18 -18 h -5 c -2.7,0 -5.1,-0.1 -5.1,-0.2 -0.1,-0.2 -0.4,-9.6 -0.8,-21 -0.3,-11.3 -1,-21 -1.4,-21.5 -0.5,-0.4 -10.3,-0.8 -21.9,-0.8 -17.7,0 -21.1,0.2 -21.8,1.5 -0.4,0.8 -1,10.4 -1.2,21.2 -0.2,12 -0.8,20.2 -1.4,20.8 -0.7,0.7 -2.7,0.8 -5.2,0.4 l -4.2,-0.7 v -32.2 c 0,-17.7 0.3,-70 0.7,-116.3 L 232.3,0 h 96.7 96.6 l 2.4,3.3 c 1.3,1.7 4.6,5.8 7.3,8.9 l 5,5.8 -0.7,148.7 c -0.3,81.9 -0.9,193.8 -1.2,248.8 l -0.5,100 -6.2,5.8 c -7.3,6.9 -8,7.2 -17.7,8.2 -19.7,1.8 -34,3.3 -44,4.5 -4.7,0.6 -12.3,1.4 -17,2 -16,1.7 -49.9,6.2 -68,8.9 -20.6,3.1 -35.7,5.5 -44.8,7 l -10.3,1.8 z M 339.5,453 c 5.5,-0.6 11.5,-1.4 13.3,-1.6 l 3.2,-0.5 0.2,-25.7 c 0.2,-14.1 0.3,-41.4 0.3,-60.7 0,-19.2 0.1,-48.6 0.3,-65.2 L 357,269 h 5 5 l 0.1,-5.7 c 0.1,-3.2 0.3,-6.5 0.4,-7.3 0.1,-0.8 0.3,-3.4 0.4,-5.7 L 368,246 h 23 23 v 10.5 c 0,11.7 0.5,12.5 7.4,12.5 h 3.6 v -18.3 -18.3 l -3.7,0.4 c -2.1,0.1 -4.3,-0.1 -5,-0.5 -0.8,-0.6 -1.4,-7.4 -1.8,-21.3 -0.3,-11.3 -0.9,-20.7 -1.1,-21 -0.3,-0.2 -10.2,-0.5 -22,-0.6 -19.9,-0.2 -21.5,-0.1 -22.4,1.6 -0.6,1 -1,8.8 -1,17.3 0,17.6 -0.7,24.4 -2.6,25.1 -0.7,0.3 -2.9,0.2 -5,-0.1 l -3.7,-0.6 0.5,-70.6 0.4,-70.6 -18,0.3 c -10,0.2 -18.3,0.6 -18.5,0.8 -0.5,0.5 -1.8,360.7 -1.3,361.7 0.2,0.5 2.5,0.6 5.1,0.3 2.5,-0.3 9.1,-1 14.6,-1.6 z"
       id="path77"
       style="fill:url(#linearGradient1098)" />
    <path
       fill="url(#lg0)"
       d="m 1113.5,552.4 c -3.8,-0.7 -10.1,-1.8 -14,-2.3 -3.8,-0.6 -9.7,-1.5 -13,-2 -3.3,-0.5 -12.2,-1.9 -19.9,-3 l -13.8,-2 -10.3,-6.8 -10.3,-6.8 -0.6,-35 c -0.3,-19.2 -0.7,-64.6 -1,-100.8 l -0.4,-65.8 9.7,0.6 c 8,0.5 9.3,0.4 8.1,-0.7 -3.9,-3.4 -52.8,-39.8 -53.4,-39.8 -0.4,0 -0.6,55.8 -0.4,124 0.3,109.8 0.1,123.9 -1.2,123.5 -1.4,-0.4 -15.7,-2 -27.5,-3.1 -2.7,-0.2 -6.3,-0.6 -8,-0.9 -1.6,-0.2 -6.1,-0.7 -10,-1 -18.7,-1.5 -21.3,-2.2 -26.3,-6.9 -2.6,-2.5 -5.6,-5.3 -6.8,-6.3 l -2.1,-1.8 -0.7,-248.8 -0.8,-248.7 7.3,-9 7.2,-9 h 96.9 96.8 v 67.3 c 0,36.9 0.3,89.3 0.7,116.3 0.7,54.3 1.1,50.5 -6,49.6 -2.8,-0.3 -3.8,-0.9 -4.2,-2.6 -0.2,-1.1 -0.6,-10.3 -0.7,-20.3 -0.2,-13.2 -0.7,-18.6 -1.6,-19.5 -1,-1 -6.3,-1.3 -21.5,-1.3 -17,0.1 -20.4,-0.2 -21.4,-1.5 -1,-1.2 -1.2,0 -1.3,6.5 0,4.4 -0.3,13.7 -0.7,20.7 l -0.6,12.6 -7,3.1 c -3.8,1.7 -8.3,3.1 -9.9,3.1 -4.2,0 -61.5,-39.8 -60.4,-41.9 0.2,-0.3 -0.5,-1.4 -1.6,-2.4 -1,-0.9 -1.8,-1.4 -1.8,-1 0,0.5 -9.4,0.8 -21,0.8 -11.5,0 -21,-0.3 -21,-0.7 0,-0.4 -0.7,-0.5 -1.5,-0.2 -1.3,0.5 -1.5,3.9 -1.5,21.9 0,15.1 -0.3,21.6 -1.2,22.1 -0.6,0.4 -2.8,0.6 -4.9,0.6 -5,-0.2 -5,0.1 -4.7,19.8 l 0.3,15.5 5.2,0.3 5.2,0.3 0.3,-11.3 0.3,-11.3 86.3,-0.3 86.2,-0.2 v 10.3 c 0,6.7 0.4,10.7 1.2,11.5 0.7,0.7 3.1,1.2 5.5,1.2 h 4.3 v 105.3 c 0,57.8 0.3,122 0.7,142.5 0.3,20.4 0.4,37.1 0.2,37.1 -0.2,-0.1 -3.5,-0.8 -7.4,-1.5 z M 925.7,436.8 c -0.2,-2.4 -0.4,-0.5 -0.4,4.2 0,4.7 0.2,6.6 0.4,4.3 0.2,-2.4 0.2,-6.2 0,-8.5 z m 78.7,-168.7 c 0.3,-0.5 -0.4,-1.6 -1.7,-2.4 -2,-1.3 -2.6,-1.3 -5.5,0.2 -1.8,0.9 -3,2 -2.6,2.4 1,1 9.2,0.9 9.8,-0.2 z M 1030,152.5 c 0,-46.8 -0.3,-59.7 -1.2,-60 -0.7,-0.2 -9.1,-0.5 -18.6,-0.7 l -17.2,-0.3 0.1,47.4 c 0.1,47 0.2,47.3 2.3,49.2 3.4,2.9 33,23.8 33.9,23.8 0.4,0.1 0.7,-26.7 0.7,-59.4 z"
       id="path79"
       style="fill:url(#linearGradient1100)" />
    <path
       fill="url(#lg0)"
       d="m 461.4,521.9 c 0.3,-1.7 0.6,-59.5 0.6,-128.4 V 268.2 l 3.8,0.5 c 6.2,0.8 7.2,-1 7.2,-12.8 V 246 l 23.3,0.2 23.2,0.3 0.3,10.7 c 0.3,10.5 0.3,10.8 2.7,11.4 4.7,1.2 7.2,-0.2 7.9,-4.3 0.8,-4.9 0.6,-26.2 -0.2,-28.8 -0.5,-1.3 -1.7,-2.1 -3.7,-2.2 -6.6,-0.4 -6.1,1.1 -6.8,-20.9 -0.4,-11 -0.9,-20.7 -1.2,-21.5 -0.8,-2 -41.4,-2.1 -43.8,0 -1.5,1.2 -1.7,3.9 -1.7,21 0,10.8 -0.4,20.1 -0.8,20.7 -0.4,0.7 -2.8,1.1 -5.4,1 l -4.8,-0.1 0.2,-50.5 c 0,-27.8 0.4,-80.1 0.7,-116.3 l 0.6,-65.7 7,4.7 c 12.1,8.1 75.1,48.6 85.7,55.1 l 3.6,2.3 22.4,-14.2 c 12.3,-7.7 25.2,-16 28.8,-18.3 23.8,-15.5 45.2,-28.7 45.8,-28.1 0.8,0.8 1,513.1 0.2,513.8 -0.3,0.2 -15.9,0.7 -34.7,1.1 L 588,518.1 V 392.4 c 0,-108.8 0.2,-125.5 1.4,-124.5 0.8,0.7 3.2,1.1 5.3,0.9 l 3.8,-0.3 0.5,-11 0.5,-11 23.3,-0.3 23.2,-0.2 v 10.9 11 l 4.6,0.7 c 2.5,0.3 5,0.2 5.5,-0.3 0.5,-0.5 0.8,-8.1 0.7,-17.9 l -0.3,-16.9 -4,-0.5 c -2.2,-0.3 -4.6,-0.9 -5.2,-1.3 -1,-0.6 -1.3,-5.7 -1.4,-19.5 0,-10.3 -0.4,-19.6 -0.8,-20.7 -0.8,-1.9 -1.8,-2 -23,-2.1 l -22.1,-0.2 -0.1,6.2 c -0.1,3.3 -0.4,13.3 -0.8,22.1 l -0.6,16 -3,-0.3 c -1.6,-0.1 -4.1,-0.4 -5.4,-0.5 l -2.4,-0.2 0.7,-45.7 c 0.5,-32.5 0.4,-45.8 -0.3,-45.8 -0.6,0 -4.9,2.4 -9.5,5.4 -4.6,3 -9.3,5.9 -10.4,6.5 -1.8,1 -3.9,0 -15.4,-7.3 -12.5,-7.9 -13.3,-8.3 -13.9,-6.3 -0.3,1.2 -0.7,84.7 -0.8,185.5 l -0.3,183.3 -4,6.3 -4,6.3 -12.7,0.7 c -6.9,0.4 -15.5,0.9 -19.1,1.1 -3.6,0.3 -12.8,0.9 -20.5,1.5 -7.7,0.5 -14.6,1 -15.4,1 -1,0 -1.2,-0.8 -0.7,-3.1 z m 69.3,-95.6 c -0.2,-3.7 -0.3,-0.9 -0.3,6.2 0,7.2 0.1,10.2 0.3,6.8 0.2,-3.4 0.2,-9.3 0,-13 z m 0,-27 c -0.2,-1.6 -0.4,-0.5 -0.4,2.2 0,2.8 0.2,4 0.4,2.8 0.2,-1.3 0.2,-3.5 0,-5 z m 0,-107.5 c -0.1,-4 -0.3,-1 -0.3,6.7 0,7.7 0.1,11 0.3,7.3 0.2,-3.7 0.2,-10 0,-14 z"
       id="path81"
       style="fill:url(#linearGradient1102)" />
    <path
       fill="url(#lg0)"
       d="M 872,523.9 C 820.1,520.1 750.2,517.1 710.4,517 h -16.1 l -0.6,-5.7 C 692.8,503.4 692.8,16.4 693.6,7.2 L 694.3,0 h 96.8 96.9 v 105.8 c 0,58.1 0.3,107.3 0.6,109.3 l 0.6,3.5 -9.3,5.7 c -5.2,3.1 -11,6.6 -12.8,7.9 -1.9,1.2 -3.2,1.7 -2.8,1.1 0.5,-0.7 -1,-1 -5.1,-0.7 -6.5,0.4 -9.2,-0.2 -9.2,-1.9 0,-0.7 6,-4.9 13.3,-9.3 l 13.2,-8 0.3,-10 c 0.4,-15.4 2.6,-14 -20.5,-14.2 -10.9,-0.1 -21,0.1 -22.5,0.4 l -2.7,0.5 -0.3,14.2 -0.3,14.2 -8.5,4.4 -8.5,4.3 -19.7,-12.8 C 759,191.7 755,189.2 754.4,190.1 c -0.2,0.4 -1.6,0.4 -2.9,-0.1 -1.3,-0.5 -11.8,-0.8 -23.4,-0.6 -14.6,0.2 -21.1,-0.1 -21.1,-0.8 0,-0.6 -0.4,-0.4 -0.9,0.4 -0.5,0.8 -1.1,11 -1.5,22.5 -0.4,11.6 -1.1,21.4 -1.5,21.8 -0.4,0.4 -2.7,0.4 -4.9,-0.2 l -4.2,-0.9 v 18.4 18.4 h 4.9 4.8 l 0.7,-6.1 c 0.3,-3.4 0.6,-8.6 0.6,-11.5 V 246 h 72 c 58.2,0 72.1,0.2 72.7,1.3 0.4,0.7 7.3,5.7 15.2,11.1 13.9,9.5 14.5,9.8 19.2,9.4 l 4.9,-0.3 V 396.3 525 l -3.2,-0.1 c -1.8,-0.1 -8,-0.5 -13.8,-1 z m -59.6,-91.1 c 0.4,-2.4 0.4,-29.7 0,-60.8 l -0.7,-56.5 6.4,0.2 c 3.5,0.1 7.8,-0.1 9.6,-0.5 3.1,-0.7 1.9,-1.6 -30.3,-23.1 -18.4,-12.3 -33.8,-22.1 -34.2,-21.7 -0.6,0.7 -1.6,164.4 -0.9,164.7 0.1,0.1 9.2,0.5 20.2,0.9 11,0.3 22.1,0.7 24.6,0.8 l 4.6,0.2 z M 762,267.2 c 0,-3 0.9,-3.2 4.5,-1.1 2.6,1.6 5.2,2 11.6,2 4.5,0 8.4,-0.2 8.6,-0.5 0.3,-0.2 -3.7,-3.2 -8.7,-6.6 l -9.2,-6.2 -8.4,4.3 c -7.4,3.9 -8.4,4.7 -8.4,7.2 0,2.6 0.2,2.7 5,2.7 4.2,0 5,-0.3 5,-1.8 z M 812,151 V 89 h -25 -25 l 0.2,46.1 0.3,46 24.3,16 c 13.4,8.7 24.6,15.9 24.8,15.9 0.2,0 0.4,-27.9 0.4,-62 z"
       id="path83"
       style="fill:url(#linearGradient1104)" />
  </g>
  <g
     fill="#938c94"
     id="g101"
     transform="translate(-0.3)">
    <path
       fill="url(#lg0)"
       d="m 1204.5,564.2 -15,-7.8 -0.6,-59.9 c -0.3,-33 -0.7,-136.4 -0.8,-229.8 -0.1,-134.8 -0.4,-169.8 -1.3,-170.2 -0.7,-0.2 -13.8,-0.8 -29.1,-1.3 -15.2,-0.5 -28,-1.2 -28.5,-1.6 -0.4,-0.4 -0.7,-17.7 -0.7,-38.3 V 17.7 l 6,-3.7 c 3.3,-2 9.7,-6 14.3,-8.8 l 8.3,-5.2 h 96.5 96.4 v 43.9 44 l -19,6.1 -19.1,6.1 -12.6,-0.2 -12.6,-0.2 0.2,66.6 0.2,66.6 -3.8,-0.3 c -2.1,-0.2 -4.3,-0.4 -4.9,-0.5 -1.7,-0.2 -2.3,-6 -2.5,-24.3 0,-11.2 -0.4,-17 -1.2,-17.5 -0.6,-0.4 -10.6,-0.9 -22.3,-1.1 l -21.1,-0.4 -0.6,2.3 c -0.4,1.3 -0.7,10.3 -0.7,19.9 0,21.3 -0.2,22 -4.5,22 -6.7,0 -6.5,-0.5 -6.5,18.1 V 268 l 2.6,0.6 c 1.5,0.4 3.9,0.3 5.3,-0.2 2.6,-0.9 2.6,-1.1 2.9,-11.7 l 0.3,-10.7 h 22.9 23 v 10.5 c 0,10.5 0,10.6 2.7,11.6 1.4,0.5 3.9,0.7 5.5,0.4 l 2.9,-0.7 -0.3,33.4 c -0.2,26 -0.6,33.2 -1.5,33 -0.7,-0.1 -1.3,0.3 -1.3,0.9 0,0.7 -1,0.9 -2.4,0.7 -1.7,-0.3 -2.7,0 -3.1,1.1 -1.2,2.8 -1.5,15.2 -1.9,75.4 -0.2,32.4 -0.6,59 -0.8,59.2 -0.1,0.2 -10.2,0.5 -22.3,0.6 l -22,0.3 -0.6,-22.4 c -0.4,-12.4 -0.7,-44 -0.8,-70.3 l -0.1,-47.8 -2.2,2.1 c -1.2,1.1 -2.4,1.6 -2.7,1.2 -0.3,-0.5 -1.6,-0.8 -2.8,-0.8 -2,0 -2.2,0.6 -2.9,11.6 -0.4,6.3 -0.4,59.8 0,118.8 0.4,58.9 0.5,107.2 0.4,107.2 -0.2,-0.1 -7,-3.6 -15.3,-7.8 z"
       id="path87"
       style="fill:url(#linearGradient1106)" />
    <path
       d="m 193.7,446.6 c 0.2,-62.2 0.1,-112.6 -0.4,-111.9 -0.6,0.8 -1.4,0.9 -2.3,0.3 -2.1,-1.3 -4.1,-1.2 -3.8,0.1 0.2,0.6 -0.3,1.4 -1.1,1.7 -0.9,0.3 -1.1,0 -0.6,-0.9 0.5,-0.8 0.4,-1 0,-0.6 -0.5,0.4 -1.1,1.5 -1.3,2.5 -0.3,0.9 -0.8,31.4 -1.2,67.7 -0.4,36.3 -0.8,66 -0.9,66.1 0,0.1 -7.9,0.1 -17.3,0.2 -9.5,0 -19.4,0.4 -21.9,0.7 -2.8,0.4 -4.9,0.2 -5.3,-0.4 -0.4,-0.5 -0.9,-31 -1.2,-67.7 -0.5,-67.5 -0.6,-70.3 -4.1,-69 -0.7,0.3 -1.3,0 -1.3,-0.7 0,-0.8 -0.3,-0.8 -0.9,0.2 -0.5,0.8 -1.6,1.1 -2.5,0.8 -1.4,-0.6 -1.6,-4.3 -1.6,-34 v -33.3 l 3.4,0.4 c 4.8,0.6 7.6,-1.2 7.6,-4.8 0,-1.7 0.3,-3 0.6,-3 0.4,0 3.4,1.7 6.7,3.7 5.6,3.4 6.7,3.7 15.5,4.1 7.2,0.3 9.3,0.1 9,-0.8 -0.2,-0.7 -9.2,-6.7 -20,-13.4 -10.9,-6.7 -19.9,-12.4 -20.2,-12.7 -0.3,-0.2 2.8,-0.1 6.7,0.3 22.8,2.2 21.6,1.9 27.8,6 3.3,2.1 6.1,3.8 6.4,3.8 0.2,0 3.8,2.3 7.9,5 4.2,2.8 7.8,5 8.1,5 0.3,0 3.2,1.7 6.3,3.8 3.1,2.1 11,6.9 17.4,10.8 l 11.8,6.9 v 110.1 c 0,109.2 -0.6,152.4 -2.1,152.4 -0.4,0 -3.4,1.5 -6.6,3.4 -3.2,1.8 -8.8,4.9 -12.4,6.8 l -6.6,3.5 z"
       id="path89" />
    <path
       fill="url(#lg0)"
       d="m 1042.4,536.3 -10.2,-6.8 -0.6,-35 c -0.3,-19.2 -0.7,-64.6 -1,-100.8 l -0.4,-65.8 9.7,0.6 c 8,0.5 9.3,0.4 8.1,-0.7 -3.8,-3.3 -52.7,-39.8 -53.4,-39.8 -0.3,0 -0.6,10.3 -0.5,22.9 0,12.7 -0.2,23.5 -0.6,24.1 -0.5,0.8 -1,0.8 -2,0 -0.7,-0.6 -2.6,-0.9 -4.2,-0.7 l -2.8,0.4 -0.2,60.9 c -0.1,33.5 -0.5,64.1 -0.8,68.1 -0.7,7.2 -0.7,7.2 -3.8,7.8 -1.8,0.3 -12,0.5 -22.7,0.3 l -19.5,-0.3 -0.6,-57 C 936,330.9 936.1,334.3 935,336 c -0.6,1 -1,1.1 -1,0.3 0,-0.7 -0.5,-1.3 -1.1,-1.3 -0.5,0 -0.7,0.6 -0.3,1.3 0.4,0.6 -0.2,0.3 -1.4,-0.7 -1.7,-1.4 -2.2,-1.6 -2.2,-0.5 0,1.1 -0.2,1.2 -0.9,0.1 -1.8,-2.9 -2.2,13.8 -2.2,101.7 V 528 l -4.7,-4.4 c -2.6,-2.4 -5.6,-5.3 -6.8,-6.3 l -2.1,-1.8 -0.7,-248.8 -0.8,-248.7 7.3,-9 7.2,-9 h 96.9 96.8 v 67.3 c 0,36.9 0.3,89.3 0.7,116.3 0.7,54.3 1.1,50.5 -6,49.6 -2.8,-0.3 -3.8,-0.9 -4.2,-2.6 -0.2,-1.1 -0.6,-10.3 -0.7,-20.3 -0.2,-13.2 -0.7,-18.6 -1.6,-19.5 -1,-1 -6.3,-1.3 -21.5,-1.3 -17,0.1 -20.4,-0.2 -21.4,-1.5 -1,-1.2 -1.2,0 -1.3,6.5 0,4.4 -0.3,13.7 -0.7,20.7 l -0.6,12.6 -7,3.1 c -3.8,1.7 -8.3,3.1 -9.9,3.1 -4.2,0 -61.5,-39.8 -60.4,-41.9 0.2,-0.3 -0.5,-1.4 -1.6,-2.3 -1,-1 -1.8,-1.5 -1.8,-1 0,0.4 -9.4,0.7 -21,0.7 -11.5,0 -21,-0.3 -21,-0.7 0,-0.4 -0.7,-0.5 -1.5,-0.2 -1.3,0.5 -1.5,3.9 -1.5,21.9 0,15.1 -0.3,21.6 -1.2,22.1 -0.6,0.4 -2.8,0.6 -4.9,0.6 -5,-0.2 -5,0.1 -4.7,19.8 l 0.3,15.5 5.2,0.3 5.2,0.3 0.3,-11.3 0.3,-11.3 86.3,-0.3 86.2,-0.2 v 10.3 c 0,6.7 0.4,10.7 1.2,11.5 0.7,0.7 3.1,1.2 5.5,1.2 h 4.3 l -0.2,32.7 -0.3,32.7 h -3.5 c -2.2,0.1 -3.4,0.5 -3.2,1.4 0.1,0.6 -0.4,1.1 -1,1 -1,-0.2 -1.3,12.3 -1.5,59.7 -0.1,33 -0.5,63.2 -0.8,67.2 -0.6,6.3 -0.9,7.2 -2.9,7.7 -3,0.7 -40.3,0.9 -41.5,0.1 -0.6,-0.3 -1.3,-2 -1.6,-3.8 -0.3,-1.8 -0.6,-31 -0.8,-65 l -0.2,-61.7 3.5,-0.1 c 3.2,-0.1 3.3,-0.2 1,-0.9 -2.5,-0.8 -2.5,-0.8 0.5,-1 1.7,-0.1 3.3,-0.2 3.7,-0.1 0.4,0 1.3,-0.9 1.9,-2.2 0.6,-1.2 0.8,-1.8 0.3,-1.4 -0.4,0.4 -1.4,-0.3 -2.1,-1.5 -1.2,-2.3 -1.2,-2.3 -1.3,0.5 0,2.8 0,2.8 -5.2,2.1 -2.9,-0.4 -5.5,-1.1 -5.6,-1.6 -0.2,-0.4 -0.8,-0.6 -1.3,-0.3 -0.5,0.3 -1.7,0.1 -2.8,-0.4 -1.8,-1 -2,-0.6 -2.6,6.2 -0.4,4.1 -0.5,51.3 -0.4,105 0.2,53.7 0.4,97.7 0.4,97.7 0,0 -4.6,-3 -10.1,-6.7 z m -38,-268.2 c 0.3,-0.5 -0.4,-1.6 -1.7,-2.4 -2,-1.3 -2.6,-1.3 -5.5,0.2 -1.8,0.9 -3,2 -2.6,2.4 1,1 9.2,0.9 9.8,-0.2 z M 1030,152.5 c 0,-46.8 -0.3,-59.7 -1.2,-60 -0.7,-0.2 -9.1,-0.5 -18.6,-0.7 l -17.2,-0.3 0.1,47.4 c 0.1,47 0.2,47.3 2.3,49.2 3.4,2.9 33,23.8 33.9,23.8 0.4,0.1 0.7,-26.7 0.7,-59.4 z"
       id="path91"
       style="fill:url(#linearGradient1108)" />
    <path
       fill="url(#lg0)"
       d="m 424.8,433.8 c 0.1,-51.3 -0.1,-93.9 -0.4,-94.8 -0.4,-0.8 -0.8,-1.9 -0.8,-2.3 -0.1,-1.1 -2.8,-2.7 -4.6,-2.7 -1.2,0 -1.2,0.2 -0.2,0.9 1,0.6 0.9,1 -0.7,1.4 -1.2,0.3 -2.2,0 -2.3,-0.6 0,-0.7 -0.4,1.7 -0.8,5.3 -0.4,3.6 -0.8,30.2 -0.9,59.1 -0.1,49.1 -0.7,71.6 -1.9,70.4 -0.3,-0.3 -1,0 -1.7,0.5 -1,0.9 -49.8,1.4 -58,0.6 -1.6,-0.1 -3.3,0.1 -3.6,0.6 -0.3,0.5 -2.6,0.6 -5,0.2 -3.9,-0.7 -4.1,-0.9 -1.9,-1.5 1.4,-0.4 4.1,-0.7 6,-0.8 6.7,-0.2 10.3,-2 14.8,-7.3 l 4.2,-5.2 v -63 c 0,-39 -0.4,-62.5 -1,-61.6 -0.5,0.9 -2.2,1.3 -4.4,1.2 -3.3,-0.2 -3.6,0 -3.6,2.5 0,1.5 -0.4,2.3 -0.8,1.7 -0.4,-0.5 -0.6,-16.3 -0.4,-35.1 l 0.4,-34.3 h 4.9 4.9 l 0.1,-5.7 c 0.1,-3.2 0.3,-6.5 0.4,-7.3 0.1,-0.8 0.3,-3.4 0.4,-5.7 L 368,246 h 23 23 v 10.5 c 0,11.7 0.5,12.5 7.4,12.5 h 3.6 v -18.3 -18.3 l -3.7,0.4 c -2.1,0.1 -4.3,-0.1 -5,-0.5 -0.8,-0.6 -1.4,-7.4 -1.8,-21.3 -0.3,-11.3 -0.9,-20.7 -1.1,-21 -0.3,-0.2 -10.2,-0.5 -22,-0.6 -19.9,-0.2 -21.5,-0.1 -22.4,1.6 -0.6,1 -1,8.8 -1,17.3 0,17.6 -0.7,24.4 -2.6,25.1 -0.7,0.3 -2.9,0.2 -5,-0.1 l -3.7,-0.6 0.5,-70.9 0.4,-71 -2.9,0.6 c -1.6,0.3 -9.8,0.6 -18.2,0.6 h -15.2 l -0.6,60.8 c -0.4,33.4 -0.7,114.9 -0.8,181.2 v 120.5 l 5.8,-0.2 c 3.2,-0.2 9.2,-0.7 13.3,-1.3 4.1,-0.5 9.7,-1.2 12.3,-1.4 l 4.8,-0.6 -0.3,3.3 c -0.2,1.7 -0.7,3.2 -1.3,3.3 -0.5,0 -4.1,0.4 -8,0.8 -3.8,0.4 -8.6,0.9 -10.5,1.1 -1.9,0.2 -7.3,0.9 -12,1.4 -9.8,1.2 -19.5,2.2 -22.8,2.5 l -2.4,0.1 0.2,-60.2 c 0.1,-40.1 -0.3,-61.6 -1,-64.2 -1.1,-4.3 -4.1,-6.1 -6.5,-4.1 -1,0.9 -1.4,0.7 -1.7,-0.7 -1.1,-4.6 -1.8,17.9 -2.2,71.2 l -0.4,58 5.1,5.4 c 3.2,3.2 4.2,4.8 2.7,3.9 -2,-1.1 -6.7,-1.4 -22,-1.2 -28.6,0.2 -28.7,0.2 -30.4,2 -1.5,1.4 -1.6,-4.9 -1.6,-69 0,-71.6 0,-71.3 -3.3,-70.7 -0.4,0.1 -1.9,0.2 -3.2,0.3 -1.4,0.1 -2.6,1 -2.9,2.2 -0.3,1.1 -0.7,1.8 -1,1.5 -0.3,-0.2 -0.2,-15.9 0.1,-34.7 l 0.6,-34.2 h 4.9 4.8 l 0.2,-6.2 c 0.1,-5.9 0.4,-10.9 0.7,-15 0.1,-1.7 1.9,-1.8 23.1,-1.8 h 23 v 10.9 c 0,12.1 0,12.1 7.1,12.1 h 3.9 v -18 -18 h -5 c -2.7,0 -5.1,-0.1 -5.1,-0.2 -0.1,-0.2 -0.4,-9.6 -0.8,-21 -0.3,-11.3 -1,-21 -1.4,-21.5 -0.5,-0.4 -10.3,-0.8 -21.9,-0.8 -17.7,0 -21.1,0.2 -21.8,1.5 -0.4,0.8 -1,10.4 -1.2,21.2 -0.2,12 -0.8,20.2 -1.4,20.8 -0.7,0.7 -2.7,0.8 -5.2,0.4 l -4.2,-0.7 v -32.2 c 0,-17.7 0.3,-70 0.7,-116.3 L 232.3,0 h 96.7 96.6 l 2.4,3.3 c 1.3,1.7 4.6,5.8 7.3,8.9 l 5,5.8 -0.7,148.7 c -0.3,81.9 -0.9,193.8 -1.2,248.8 l -0.5,100 -6.2,5.8 c -3.4,3.1 -6.4,5.7 -6.7,5.7 -0.3,0 -0.4,-42 -0.2,-93.2 z"
       id="path93"
       style="fill:url(#linearGradient1110)" />
    <path
       fill="url(#lg0)"
       d="m 530.3,427.6 c 0.1,-50.9 -0.1,-92.6 -0.5,-92.6 -0.5,0 -0.8,0.8 -0.8,1.8 -0.1,1.5 -0.2,1.5 -1.3,0.1 -1.2,-1.6 -3.7,-1.4 -4.9,0.5 -0.5,0.7 -0.8,0.3 -0.9,-0.9 -0.1,-1.1 -0.5,-0.2 -0.9,2 -0.4,2.2 -1.1,33.4 -1.5,69.3 -0.5,35.9 -1.1,64.9 -1.4,64.5 -0.7,-1.1 -40.1,-1 -41.8,0 -0.6,0.4 -1.9,0 -2.7,-0.9 -1.4,-1.4 -1.6,-8.9 -1.7,-69.2 0,-37.2 -0.3,-67.1 -0.6,-66.4 -0.4,1 -0.8,0.9 -1.8,-0.5 -1.2,-1.6 -1.7,-1.6 -3.5,-0.5 -1.2,0.7 -2.5,1 -2.8,0.7 -0.4,-0.4 -0.8,-15.7 -1,-34 l -0.3,-33.3 3.9,0.5 c 6.2,0.8 7.2,-0.9 7.2,-12.8 V 246 l 23.3,0.2 23.2,0.3 0.3,10.7 c 0.3,10.5 0.3,10.8 2.7,11.4 4.7,1.2 7.2,-0.2 7.9,-4.3 0.8,-4.9 0.6,-26.2 -0.2,-28.8 -0.5,-1.3 -1.7,-2.1 -3.7,-2.2 -6.6,-0.4 -6.1,1.1 -6.8,-20.9 -0.4,-11 -0.9,-20.7 -1.2,-21.5 -0.8,-2 -41.4,-2.1 -43.8,0 -1.5,1.2 -1.7,3.9 -1.7,21 0,10.8 -0.4,20.1 -0.8,20.7 -0.4,0.7 -2.8,1.1 -5.4,1 l -4.8,-0.1 0.2,-50.5 c 0,-27.8 0.4,-80.1 0.7,-116.3 l 0.6,-65.7 7,4.7 c 12.1,8.1 75.1,48.6 85.7,55.1 l 3.6,2.3 22.4,-14.2 c 12.3,-7.7 25.2,-16 28.8,-18.3 23.8,-15.5 45.2,-28.7 45.8,-28.1 0.4,0.4 0.7,114.1 0.7,252.8 0,138.7 -0.2,214.4 -0.5,168.2 -0.3,-46.2 -0.9,-84.9 -1.2,-86 -0.4,-1.1 -0.7,-2.2 -0.7,-2.5 -0.1,-0.3 -0.6,0.2 -1.1,1 -0.8,1.3 -1,1.2 -1,-0.2 0,-1.1 -0.7,-1.8 -1.7,-1.8 -1.5,0 -1.6,0.2 -0.3,1 1.2,0.8 1.1,1 -0.7,1 -1.5,0 -2.3,-0.6 -2.4,-1.7 -0.1,-1 -0.5,-0.4 -0.9,1.2 -0.4,1.7 -0.8,32.9 -0.9,69.4 -0.1,36.5 -0.3,66.6 -0.5,67 -0.2,0.3 -10.7,0.4 -23.3,0.1 l -22.8,-0.5 -0.5,-68.5 -0.5,-68.5 -4,-0.6 c -2.2,-0.4 -4.3,-0.5 -4.6,-0.3 -1.6,0.9 -1.9,-4.6 -1.9,-34.8 0,-27.7 0.2,-31.9 1.4,-30.9 0.8,0.7 3.2,1.1 5.3,0.9 l 3.8,-0.3 0.5,-11 0.5,-11 23.3,-0.3 23.2,-0.2 v 10.9 11 l 4.6,0.7 c 2.5,0.3 5,0.2 5.5,-0.3 0.5,-0.5 0.8,-8.1 0.7,-17.9 l -0.3,-16.9 -4,-0.5 c -2.2,-0.3 -4.6,-0.9 -5.2,-1.3 -1,-0.6 -1.3,-5.7 -1.4,-19.5 0,-10.3 -0.4,-19.6 -0.8,-20.7 -0.8,-1.9 -1.8,-2 -23,-2.1 l -22.1,-0.2 -0.1,6.2 c -0.1,3.3 -0.4,13.3 -0.8,22.1 l -0.6,16 -3,-0.3 c -1.6,-0.1 -4.1,-0.4 -5.4,-0.5 l -2.4,-0.2 0.7,-45.7 c 0.5,-32.5 0.4,-45.8 -0.3,-45.8 -0.6,0 -4.9,2.4 -9.5,5.4 -4.6,3 -9.3,5.9 -10.4,6.5 -1.8,1 -3.9,0 -15.4,-7.3 -12.5,-7.9 -13.3,-8.3 -13.9,-6.3 -0.3,1.2 -0.7,84.7 -0.8,185.5 l -0.3,183.4 -3.8,5.9 -3.9,6 z m 0.4,-135.8 c -0.1,-4 -0.3,-1 -0.3,6.7 0,7.7 0.1,11 0.3,7.3 0.2,-3.7 0.2,-10 0,-14 z"
       id="path95"
       style="fill:url(#linearGradient1112)" />
    <path
       fill="url(#lg0)"
       d="M 68.6,499.2 C 68.3,498.7 68.1,474 68.1,444.4 68.3,365.2 68,335.2 67,337.5 c -0.6,1.4 -0.9,1.6 -1,0.5 -0.2,-0.8 -0.2,-1.9 -0.1,-2.3 0.1,-0.5 -0.9,-0.5 -2.1,-0.1 -1.3,0.4 -2.8,0.7 -3.5,0.7 -1.9,0 -2.2,6.8 -2.8,72.6 -0.3,34.4 -0.6,62.6 -0.8,62.7 -0.8,0.8 -42.9,0.6 -43.7,-0.2 -0.7,-0.7 -1.3,-26.7 -1.7,-70.5 -0.4,-38.2 -1,-68 -1.4,-66.4 -0.4,1.7 -0.7,2.2 -0.8,1.1 -0.1,-1.3 -0.7,-1.7 -2,-1.3 -1,0.2 -2.7,0 -3.7,-0.6 -1.7,-0.9 -1.8,-0.9 -0.5,0.6 1.2,1.5 1.2,1.7 -0.3,1.1 C 1.2,334.9 1,331.8 0.9,306.6 0.9,291.2 0.7,275.1 0.5,271 c -0.1,-4.1 0,-6.3 0.2,-4.7 0.4,2.5 0.8,2.7 5.3,2.7 h 4.9 l 0.3,-11.2 0.3,-11.3 h 23 23 l 0.5,10.9 c 0.6,12.1 0.7,12.3 7.8,11.1 l 3.2,-0.6 -0.2,-17.2 c -0.2,-13.6 -0.6,-17.1 -1.6,-16.9 -0.7,0.1 -3.1,-0.2 -5.3,-0.8 L 58,231.9 v -17.7 c 0,-9.7 -0.3,-19.3 -0.6,-21.2 l -0.6,-3.5 -21.6,-0.2 c -15.6,-0.1 -21.9,0.2 -22.4,1 -0.4,0.7 -0.8,7.1 -0.8,14.3 0,7.2 -0.3,16.6 -0.7,20.8 l -0.6,7.8 -4.8,-0.4 -4.8,-0.3 -0.5,3.5 c -0.2,1.9 -0.2,-1.7 0,-8 C 0.8,221.7 1,167.8 1,108.3 V 0 H 97.5 194 l 6.8,4.3 c 3.7,2.4 10,6.5 14,9 L 222,18 v 81.4 c 0,90.9 0.7,82.6 -7.3,82.6 -2.3,0 -16,0.7 -30.4,1.7 l -26.2,1.7 -12.3,-2.8 c -6.8,-1.5 -14.1,-3.3 -16.2,-3.9 l -3.9,-1.1 0.4,-40.1 0.4,-40 -11,0.4 c -6,0.2 -11.3,0.5 -11.7,0.8 -1.3,0.7 -1,390.3 0.2,390.3 0.6,0 4.3,-0.6 8.3,-1.4 13.2,-2.6 12.7,-2.6 12.7,0 0,1.3 -0.4,2.4 -0.9,2.4 -0.4,0 -4.6,0.6 -9.2,1.4 -4.6,0.8 -10,1.7 -11.9,2 -4.1,0.7 -8.1,1.4 -11.2,2.1 -5.8,1.2 -11.6,2.4 -14.3,2.8 -1.6,0.3 -4.2,0.8 -5.6,1.2 -1.5,0.4 -2.9,0.2 -3.3,-0.3 z"
       id="path97"
       style="fill:url(#linearGradient1114)" />
    <path
       fill="url(#lg0)"
       d="m 705.4,472.1 c -0.2,-0.2 -0.4,-18.2 -0.4,-40 0,-41 -1,-95.4 -1.7,-94.7 -0.3,0.2 -1.4,-0.5 -2.4,-1.5 -1.3,-1.3 -3,-1.9 -4.7,-1.7 l -2.7,0.3 -0.3,-158 C 693,89.6 693.2,14.3 693.5,9.3 L 694.2,0 h 96.9 96.9 v 105.8 c 0,58.1 0.3,107.3 0.6,109.3 l 0.6,3.5 -9.3,5.7 c -5.2,3.1 -11,6.6 -12.8,7.9 -1.9,1.2 -3.2,1.7 -2.8,1.1 0.5,-0.7 -1,-1 -5.1,-0.7 -6.5,0.4 -9.2,-0.2 -9.2,-1.9 0,-0.7 6,-4.9 13.3,-9.3 l 13.2,-8 0.3,-10 c 0.4,-15.4 2.6,-14 -20.5,-14.2 -10.9,-0.1 -21,0.1 -22.5,0.4 l -2.7,0.5 -0.3,14.2 -0.3,14.2 -8.5,4.4 -8.5,4.3 -19.7,-12.8 C 759,191.7 755,189.2 754.4,190.1 c -0.2,0.4 -1.6,0.4 -2.9,-0.1 -1.3,-0.5 -11.8,-0.8 -23.4,-0.6 -14.6,0.2 -21.1,-0.1 -21.1,-0.8 0,-0.6 -0.4,-0.4 -0.9,0.4 -0.5,0.8 -1.1,11 -1.5,22.5 -0.4,11.6 -1.1,21.4 -1.5,21.8 -0.4,0.4 -2.7,0.4 -4.9,-0.2 l -4.2,-0.9 v 18.4 18.4 h 4.9 4.8 l 0.7,-6.1 c 0.3,-3.4 0.6,-8.6 0.6,-11.5 V 246 h 72 c 58.2,0 72.1,0.2 72.7,1.3 0.4,0.7 7.3,5.7 15.2,11.1 13.9,9.4 14.5,9.8 19.2,9.4 l 4.9,-0.3 v 30 c -0.1,16.5 -0.4,31.4 -0.8,33 -0.7,2.4 -1.4,3.1 -4,3.3 -1.8,0.2 -3.2,0.8 -3.2,1.3 0,0.6 -0.4,0.7 -1,0.4 -0.6,-0.4 -1.1,3.4 -1.1,10.7 -0.1,6.2 -0.3,14.7 -0.5,18.8 -0.2,4.1 -0.3,30 -0.4,57.5 v 50 h -86.1 c -47.3,0 -86.3,-0.2 -86.5,-0.4 z m 119.9,-21.2 5.7,-5.1 V 390 c 0,-30.7 -0.4,-56.1 -0.8,-56.4 -1.2,-0.7 -5.3,0.5 -4.8,1.3 0.3,0.4 -0.5,1.3 -1.7,2.1 -2,1.2 -2.1,1.2 -0.8,-0.4 1.2,-1.4 1.2,-1.6 -0.3,-1 -1.9,0.7 -1.7,-4.3 -2.5,60.9 l -0.6,48 -3.5,-0.1 c -1.9,-0.1 -13.8,-0.5 -26.5,-0.9 -12.6,-0.5 -23.8,-0.9 -24.7,-0.9 -1.4,0 -1.8,-0.9 -1.8,-3.8 v -3.7 l 6.8,0.4 c 3.7,0.3 14.6,0.7 24.3,0.9 l 17.7,0.5 0.6,-4.2 c 0.4,-2.3 0.4,-29.6 0,-60.7 l -0.7,-56.5 6.4,0.2 c 3.5,0.1 7.8,-0.1 9.6,-0.5 3.1,-0.7 1.9,-1.6 -30.3,-23.1 -18.4,-12.3 -33.8,-22.1 -34.2,-21.7 -0.4,0.4 -0.6,17.4 -0.6,37.7 0.1,20.3 -0.1,36.8 -0.3,36.5 -0.2,-0.2 -0.7,-2.6 -1.1,-5.3 -0.6,-4.3 -1,-4.8 -3.5,-5.1 -2.1,-0.3 -2.7,0.1 -2.7,1.5 0,1.3 -0.2,1.5 -0.9,0.5 -0.5,-0.9 -1,0.2 -1.4,3.2 -1.1,7.6 -0.9,102.4 0.2,104.3 0.5,1 2.9,3.7 5.3,6 l 4.3,4.2 25,0.9 c 13.8,0.5 26.6,0.9 28.5,1 2.9,0.1 4.5,-0.7 9.3,-4.9 z M 762,267.2 c 0,-3 0.9,-3.2 4.5,-1.1 2.6,1.6 5.2,2 11.6,2 4.5,0 8.4,-0.2 8.6,-0.5 0.3,-0.2 -3.7,-3.2 -8.7,-6.6 l -9.2,-6.2 -8.4,4.3 c -7.4,3.9 -8.4,4.7 -8.4,7.2 0,2.6 0.2,2.7 5,2.7 4.2,0 5,-0.3 5,-1.8 z M 812,151 V 89 h -25 -25 l 0.2,46.1 0.3,46 24.3,16 c 13.4,8.7 24.6,15.9 24.8,15.9 0.2,0 0.4,-27.9 0.4,-62 z"
       id="path99"
       style="fill:url(#linearGradient1116)" />
  </g>
  <g
     fill="#de860a"
     id="g123"
     transform="translate(-0.3)">
    <path
       fill="url(#lg0)"
       d="m 1204.5,564.2 -15,-7.8 -0.6,-59.9 c -0.3,-33 -0.7,-136.4 -0.8,-229.8 -0.1,-134.8 -0.4,-169.8 -1.3,-170.2 -0.7,-0.2 -13.8,-0.8 -29.1,-1.3 -15.2,-0.5 -28,-1.2 -28.5,-1.6 -0.4,-0.4 -0.7,-17.7 -0.7,-38.3 V 17.7 l 6,-3.7 c 3.3,-2 9.7,-6 14.3,-8.8 l 8.3,-5.2 h 96.5 96.4 v 43.9 44 l -19,6.1 -19.1,6.1 -12.6,-0.2 -12.6,-0.2 0.2,66.7 0.3,66.7 -4.7,-0.5 c -2.6,-0.2 -5,-0.7 -5.3,-1.1 -0.4,-0.4 -0.8,-22 -1,-48.1 -0.2,-30.4 -0.6,-47.2 -1.3,-46.9 -0.5,0.4 -10.8,0.6 -22.9,0.5 l -22,-0.1 v 45.8 c 0,25.2 -0.3,46.8 -0.6,48.1 -0.5,1.7 -1.4,2.2 -3.9,2.2 -6.7,0 -6.5,-0.5 -6.5,18.1 V 268 l 2.6,0.6 c 1.5,0.4 3.9,0.3 5.3,-0.2 2.5,-0.9 2.6,-1.2 2.9,-11.2 l 0.3,-10.2 h 22.9 23 v 10 c 0,10 0,10.1 2.7,11.1 1.4,0.5 3.9,0.7 5.5,0.4 l 2.9,-0.7 -0.3,33.4 c -0.2,26 -0.6,33.2 -1.5,33 -0.7,-0.1 -1.3,0.3 -1.3,0.9 0,0.7 -1,0.9 -2.4,0.7 -1.7,-0.3 -2.7,0 -3.1,1.1 -1.2,2.8 -1.5,15.2 -1.9,75.4 -0.2,32.4 -0.6,59 -0.8,59.2 -0.1,0.2 -10.2,0.5 -22.3,0.6 l -22,0.3 -0.6,-22.4 c -0.4,-12.4 -0.7,-44 -0.8,-70.3 l -0.1,-47.8 -2.2,2.1 c -1.2,1.1 -2.4,1.6 -2.7,1.2 -0.3,-0.5 -1.6,-0.8 -2.8,-0.8 -2,0 -2.2,0.6 -2.9,11.6 -0.4,6.3 -0.4,59.8 0,118.8 0.4,58.9 0.5,107.2 0.4,107.2 -0.2,-0.1 -7,-3.6 -15.3,-7.8 z"
       id="path103"
       style="fill:url(#linearGradient1118)" />
    <path
       fill="url(#lg0)"
       d="m 193.7,446.6 c 0.2,-62.2 0.1,-112.6 -0.4,-111.9 -0.6,0.8 -1.4,0.9 -2.3,0.3 -2.1,-1.3 -4.1,-1.2 -3.8,0.1 0.2,0.6 -0.3,1.4 -1.1,1.7 -0.9,0.3 -1.1,0 -0.6,-0.9 0.5,-0.8 0.4,-1 0,-0.6 -0.5,0.4 -1.1,1.5 -1.3,2.5 -0.3,0.9 -0.8,31.4 -1.2,67.7 -0.4,36.3 -0.8,66 -0.9,66.1 0,0.1 -7.9,0.1 -17.3,0.2 -9.5,0 -19.4,0.4 -21.9,0.7 -2.8,0.4 -4.9,0.2 -5.3,-0.4 -0.4,-0.5 -0.9,-31 -1.2,-67.7 -0.5,-67.5 -0.6,-70.3 -4.1,-69 -0.7,0.3 -1.3,0 -1.3,-0.7 0,-0.8 -0.3,-0.8 -0.9,0.2 -0.5,0.8 -1.6,1.1 -2.5,0.8 -1.4,-0.6 -1.6,-4.3 -1.6,-34 v -33.3 l 3.4,0.4 c 4.8,0.6 7.6,-1.2 7.6,-4.8 0,-1.7 0.3,-3 0.6,-3 0.4,0 3.4,1.7 6.7,3.7 5.6,3.4 6.7,3.7 15.5,4.1 7.2,0.3 9.3,0.1 9,-0.8 -0.2,-0.7 -8.8,-6.5 -19.1,-13 -10.4,-6.5 -19.1,-12.1 -19.5,-12.5 -0.4,-0.4 2.9,-0.5 7.3,-0.1 18.6,1.7 20,2 25.9,5.9 3,2 5.8,3.7 6,3.7 0.3,0 3.9,2.3 8,5 4.2,2.8 7.8,5 8.1,5 0.3,0 3.2,1.7 6.3,3.8 3.1,2.1 11,6.9 17.4,10.8 l 11.8,6.9 v 110.1 c 0,109.2 -0.6,152.4 -2.1,152.4 -0.4,0 -3.4,1.5 -6.6,3.4 -3.2,1.8 -8.8,4.9 -12.4,6.8 l -6.6,3.5 z"
       id="path105"
       style="fill:url(#linearGradient1120)" />
    <path
       fill="url(#lg0)"
       d="m 1042.4,536.3 -10.2,-6.8 -0.6,-35 c -0.3,-19.2 -0.7,-64.6 -1,-100.8 l -0.4,-65.8 9.7,0.6 c 8,0.5 9.3,0.4 8.1,-0.7 -3.8,-3.3 -52.7,-39.8 -53.4,-39.8 -0.3,0 -0.6,10.3 -0.5,22.9 0,12.7 -0.2,23.5 -0.6,24.1 -0.5,0.8 -1,0.8 -2,0 -0.7,-0.6 -2.6,-0.9 -4.2,-0.7 l -2.8,0.4 -0.2,60.9 c -0.1,33.5 -0.5,64.1 -0.8,68.1 -0.7,7.2 -0.7,7.2 -3.8,7.8 -1.8,0.3 -12,0.5 -22.7,0.3 l -19.5,-0.3 -0.6,-57 C 936,330.9 936.1,334.3 935,336 c -0.6,1 -1,1.1 -1,0.3 0,-0.7 -0.5,-1.3 -1.1,-1.3 -0.5,0 -0.7,0.6 -0.3,1.3 0.4,0.6 -0.2,0.3 -1.4,-0.7 -1.7,-1.4 -2.2,-1.6 -2.2,-0.5 0,1.1 -0.2,1.2 -0.9,0.1 -1.8,-2.9 -2.2,13.8 -2.2,101.7 V 528 l -4.7,-4.4 c -2.6,-2.4 -5.6,-5.3 -6.8,-6.3 l -2.1,-1.8 -0.7,-248.8 -0.8,-248.7 7.3,-9 7.2,-9 h 96.9 96.8 v 67.3 c 0,36.9 0.3,89.2 0.7,116 0.5,40 0.4,49 -0.7,49.7 -1.7,1 -8.3,0 -9.2,-1.4 -0.4,-0.6 -0.8,-20.7 -0.9,-44.6 -0.1,-23.9 -0.4,-44.8 -0.8,-46.5 l -0.6,-3 -21.5,-0.2 c -13.9,-0.1 -21.9,0.2 -22.7,0.9 -1,0.8 -1.3,10.6 -1.3,45.3 v 44.2 l -7.1,3.2 c -4,1.7 -8.5,3.1 -10.1,3.1 -2.3,0 -9.2,-4.4 -28.2,-17.6 -13.8,-9.7 -26.2,-18.6 -27.4,-19.8 -5.5,-4.9 -5.9,-7.3 -6.4,-32.6 -0.3,-12.9 -0.8,-24.3 -1.2,-25.2 -0.7,-1.5 -3.2,-1.7 -22.3,-1.8 -11.9,0 -22,-0.3 -22.4,-0.6 -0.5,-0.3 -0.9,21.1 -0.9,47.5 0,35.3 -0.3,48.2 -1.2,48.7 -0.6,0.4 -2.8,0.6 -4.9,0.6 -5,-0.2 -5,0.1 -4.7,19.8 l 0.3,15.5 5.1,0.3 5.1,0.3 0.7,-10.1 c 0.4,-5.5 0.4,-10.5 0.1,-11 -0.4,-0.7 29.6,-1 85.9,-1 h 86.6 v 9.8 c 0,6.3 0.4,10.2 1.2,11 0.7,0.7 3.1,1.2 5.5,1.2 h 4.3 l -0.2,32.7 -0.3,32.7 h -3.5 c -2.2,0.1 -3.4,0.5 -3.2,1.4 0.1,0.6 -0.4,1.1 -1,1 -1,-0.2 -1.3,12.3 -1.5,59.7 -0.1,33 -0.5,63.2 -0.8,67.2 -0.6,6.3 -0.9,7.2 -2.9,7.7 -3,0.7 -40.3,0.9 -41.5,0.1 -0.6,-0.3 -1.3,-2 -1.6,-3.8 -0.3,-1.8 -0.6,-31 -0.8,-65 l -0.2,-61.7 3.5,-0.1 c 3.2,-0.1 3.3,-0.2 1,-0.9 -2.5,-0.8 -2.5,-0.8 0.5,-1 1.7,-0.1 3.3,-0.2 3.7,-0.1 0.4,0 1.3,-0.9 1.9,-2.2 0.6,-1.2 0.8,-1.8 0.3,-1.4 -0.4,0.4 -1.4,-0.3 -2.1,-1.5 -1.2,-2.3 -1.2,-2.3 -1.3,0.5 0,2.8 0,2.8 -5.2,2.1 -2.9,-0.4 -5.5,-1.1 -5.6,-1.6 -0.2,-0.4 -0.8,-0.6 -1.3,-0.3 -0.5,0.3 -1.7,0.1 -2.8,-0.4 -1.8,-1 -2,-0.6 -2.6,6.2 -0.4,4.1 -0.5,51.3 -0.4,105 0.2,53.7 0.4,97.7 0.4,97.7 0,0 -4.6,-3 -10.1,-6.7 z m -38,-268.2 c 0.3,-0.5 -0.4,-1.6 -1.7,-2.4 -2,-1.3 -2.6,-1.3 -5.5,0.2 -1.8,0.9 -3,2 -2.6,2.4 1,1 9.2,0.9 9.8,-0.2 z M 1030,152.5 c 0,-46.8 -0.3,-59.7 -1.2,-60 -0.7,-0.2 -9.1,-0.5 -18.6,-0.7 l -17.2,-0.3 0.1,47.4 c 0.1,47 0.2,47.3 2.3,49.2 3.4,2.9 33,23.8 33.9,23.8 0.4,0.1 0.7,-26.7 0.7,-59.4 z"
       id="path107"
       style="fill:url(#linearGradient1122)" />
    <path
       fill="url(#lg0)"
       d="m 424.8,433.8 c 0.1,-51.3 -0.1,-93.9 -0.4,-94.8 -0.4,-0.8 -0.8,-1.9 -0.8,-2.3 -0.1,-1.1 -2.8,-2.7 -4.6,-2.7 -1.2,0 -1.2,0.2 -0.2,0.9 1,0.6 0.9,1 -0.7,1.4 -1.2,0.3 -2.2,0 -2.3,-0.6 0,-0.7 -0.4,1.7 -0.8,5.3 -0.4,3.6 -0.8,30.2 -0.9,59.1 -0.1,49.1 -0.7,71.6 -1.9,70.4 -0.3,-0.3 -1,0 -1.7,0.5 -1,0.9 -49.8,1.4 -58,0.6 -1.6,-0.1 -3.3,0.1 -3.6,0.6 -0.3,0.5 -2.6,0.6 -5,0.2 -3.9,-0.7 -4.1,-0.9 -1.9,-1.5 1.4,-0.4 4.1,-0.7 6,-0.8 6.7,-0.2 10.3,-2 14.8,-7.3 l 4.2,-5.2 v -63 c 0,-39 -0.4,-62.5 -1,-61.6 -0.5,0.9 -2.2,1.3 -4.4,1.2 -3.3,-0.2 -3.6,0 -3.6,2.5 0,1.5 -0.4,2.3 -0.8,1.7 -0.4,-0.5 -0.6,-16.3 -0.4,-35.1 l 0.4,-34.3 h 4.8 c 4.7,0 4.7,0 5.4,-3.7 0.3,-2.1 0.6,-7.1 0.6,-11 V 247 h 23 23 v 10 c 0,11.1 0.5,12 7.3,12 3.4,0 3.4,-0.1 4.1,-5.2 0.8,-6.8 0.8,-17.9 0,-25.5 -0.6,-5.6 -0.8,-5.9 -3,-5.5 -1.3,0.2 -3.5,0.1 -4.9,-0.2 L 415,232 v -46.4 c 0,-37.1 -0.3,-46.6 -1.3,-47.4 -0.9,-0.8 -8.9,-1.1 -23.5,-1.1 l -22.2,0.1 v 43.3 c 0,44.8 -0.4,52 -2.6,52.9 -0.7,0.3 -2.9,0.2 -5,-0.1 l -3.7,-0.6 0.5,-70.9 0.4,-71 -2.9,0.6 c -1.6,0.3 -9.8,0.6 -18.2,0.6 h -15.2 l -0.6,60.8 c -0.4,33.4 -0.7,114.9 -0.8,181.2 v 120.5 l 5.8,-0.2 c 3.2,-0.2 9.2,-0.7 13.3,-1.3 4.1,-0.5 9.7,-1.2 12.3,-1.4 l 4.8,-0.6 -0.3,3.3 c -0.2,1.7 -0.7,3.2 -1.3,3.3 -0.5,0 -4.1,0.4 -8,0.8 -3.8,0.4 -8.6,0.9 -10.5,1.1 -1.9,0.2 -7.3,0.9 -12,1.4 -9.8,1.2 -19.5,2.2 -22.8,2.5 l -2.4,0.1 0.2,-60.2 c 0.1,-40.1 -0.3,-61.6 -1,-64.2 -1.1,-4.3 -4.1,-6.1 -6.5,-4.1 -1,0.9 -1.4,0.7 -1.7,-0.7 -1.1,-4.6 -1.8,17.9 -2.2,71.2 l -0.4,58 5.1,5.4 c 3.2,3.2 4.2,4.8 2.7,3.9 -2,-1.1 -6.7,-1.4 -22,-1.2 -28.6,0.2 -28.7,0.2 -30.4,2 -1.5,1.4 -1.6,-4.9 -1.6,-69 0,-71.6 0,-71.3 -3.3,-70.7 -0.4,0.1 -1.9,0.2 -3.2,0.3 -1.4,0.1 -2.6,1 -2.9,2.2 -0.3,1.1 -0.7,1.8 -1,1.5 -0.3,-0.2 -0.2,-15.9 0.1,-34.7 l 0.6,-34.2 h 4.7 4.7 l 0.7,-4.6 c 0.3,-2.6 0.6,-7.5 0.6,-11 V 247 h 23 23 v 10.4 c 0,11.5 0,11.6 6.9,11.6 h 3.8 l 0.7,-10.1 c 0.3,-5.6 0.3,-13.7 0,-18 l -0.7,-7.9 h -4.8 -4.8 l -0.7,-5.8 c -0.4,-3.1 -0.4,-25.3 -0.1,-49.2 0.4,-23.9 0.3,-42.9 -0.2,-42.2 -0.6,1.1 -5.5,1.3 -22.6,1.2 -12,0 -22.1,-0.3 -22.6,-0.6 -0.4,-0.2 -0.9,21.1 -1.1,47.5 -0.2,32.9 -0.6,48.3 -1.4,49.1 -0.7,0.7 -2.7,0.8 -5.2,0.4 l -4.2,-0.7 v -32.2 c 0,-17.7 0.3,-70 0.7,-116.3 L 232.3,0 h 96.7 96.6 l 2.4,3.3 c 1.3,1.7 4.6,5.8 7.3,8.9 l 5,5.8 -0.7,148.7 c -0.3,81.9 -0.9,193.8 -1.2,248.8 l -0.5,100 -6.2,5.8 c -3.4,3.1 -6.4,5.7 -6.7,5.7 -0.3,0 -0.4,-42 -0.2,-93.2 z"
       id="path109"
       style="fill:url(#linearGradient1124)" />
    <path
       fill="url(#lg0)"
       d="m 530.3,427.6 c 0.1,-50.9 -0.1,-92.6 -0.5,-92.6 -0.5,0 -0.8,0.8 -0.8,1.8 -0.1,1.5 -0.2,1.5 -1.3,0.1 -1.2,-1.6 -3.7,-1.4 -4.9,0.5 -0.5,0.7 -0.8,0.3 -0.9,-0.9 -0.1,-1.1 -0.5,-0.2 -0.9,2 -0.4,2.2 -1.1,33.4 -1.5,69.3 -0.5,35.9 -1.1,64.9 -1.4,64.5 -0.7,-1.1 -40.1,-1 -41.8,0 -0.6,0.4 -1.9,0 -2.7,-0.9 -1.4,-1.4 -1.6,-8.9 -1.7,-69.2 0,-37.2 -0.3,-67.1 -0.6,-66.4 -0.4,1 -0.8,0.9 -1.8,-0.5 -1.2,-1.6 -1.7,-1.6 -3.5,-0.5 -1.2,0.7 -2.5,1 -2.8,0.7 -0.4,-0.4 -0.8,-15.7 -1,-34 l -0.3,-33.3 3.9,0.5 c 6.1,0.8 7.2,-1 7.2,-12.3 V 247 h 22.9 22.9 l 0.7,10.5 c 0.7,10 0.8,10.5 3.1,11.1 4.6,1.2 7.1,-0.2 7.8,-4.3 0.8,-4.9 0.6,-26.2 -0.2,-28.8 -0.5,-1.3 -1.7,-2.1 -3.7,-2.2 -7.2,-0.5 -6.5,4.8 -6.6,-50.8 -0.1,-27.5 -0.3,-49.3 -0.5,-48.5 -0.9,3.1 -3.8,3.5 -24.2,3 -11.1,-0.3 -20.7,-0.3 -21.2,-0.2 -0.6,0.2 -1,17.5 -1,47.5 0,26 -0.4,47.7 -0.8,48.3 -0.4,0.7 -2.8,1.1 -5.4,1 l -4.8,-0.1 0.2,-50.5 c 0,-27.8 0.4,-80.1 0.7,-116.3 l 0.6,-65.7 7,4.7 c 12.1,8.1 75.1,48.6 85.7,55.1 l 3.6,2.3 22.4,-14.2 c 12.3,-7.7 25.2,-16 28.8,-18.3 23.8,-15.5 45.2,-28.7 45.8,-28.1 0.4,0.4 0.7,114.1 0.7,252.8 0,138.7 -0.2,214.4 -0.5,168.2 -0.3,-46.2 -0.9,-84.9 -1.2,-86 -0.4,-1.1 -0.7,-2.2 -0.7,-2.5 -0.1,-0.3 -0.6,0.2 -1.1,1 -0.8,1.3 -1,1.2 -1,-0.2 0,-1.1 -0.7,-1.8 -1.7,-1.8 -1.5,0 -1.6,0.2 -0.3,1 1.2,0.8 1.1,1 -0.7,1 -1.5,0 -2.3,-0.6 -2.4,-1.7 -0.1,-1 -0.5,-0.4 -0.9,1.2 -0.4,1.7 -0.8,32.9 -0.9,69.4 -0.1,36.5 -0.3,66.6 -0.5,67 -0.2,0.3 -10.7,0.4 -23.3,0.1 l -22.8,-0.5 -0.5,-68.5 -0.5,-68.5 -4,-0.6 c -2.2,-0.4 -4.3,-0.5 -4.6,-0.3 -1.6,0.9 -1.9,-4.6 -1.9,-34.8 0,-27.7 0.2,-31.9 1.4,-30.9 0.8,0.7 3.2,1.1 5.3,0.9 l 3.8,-0.3 0.3,-10.7 0.3,-10.8 h 23.4 23.5 v 10.4 10.5 l 4.6,0.7 c 2.5,0.3 5,0.2 5.5,-0.3 0.5,-0.5 0.8,-8.1 0.7,-17.9 l -0.3,-16.9 -4,-0.5 c -2.2,-0.3 -4.6,-0.9 -5.2,-1.3 -1,-0.6 -1.3,-11.3 -1.3,-47.7 V 137.1 L 624.3,137 c -11.9,0 -21.9,-0.2 -22.1,-0.5 -0.2,-0.2 -1,0.1 -1.6,0.8 -0.8,0.9 -1.2,14.2 -1.5,48.2 -0.1,26.7 -0.7,47.4 -1.2,48 -0.6,0.5 -2.2,0.4 -4.4,-0.4 -1.9,-0.7 -4,-0.9 -4.6,-0.5 -0.9,0.5 -1,-10.5 -0.5,-45.4 0.5,-32.8 0.4,-46.2 -0.3,-46.2 -0.6,0 -4.9,2.4 -9.5,5.4 -4.6,3 -9.3,5.9 -10.4,6.5 -1.8,1 -3.9,0 -15.4,-7.3 -12.5,-7.9 -13.3,-8.3 -13.9,-6.3 -0.3,1.2 -0.7,84.7 -0.8,185.5 l -0.3,183.4 -3.8,5.9 -3.9,6 z m 0.4,-135.8 c -0.1,-4 -0.3,-1 -0.3,6.7 0,7.7 0.1,11 0.3,7.3 0.2,-3.7 0.2,-10 0,-14 z"
       id="path111"
       style="fill:url(#linearGradient1126)" />
    <path
       d="m 693.5,438.5 c 0,-39.6 0.1,-55.7 0.2,-35.7 0.2,20 0.2,52.4 0,72 -0.1,19.6 -0.2,3.3 -0.2,-36.3 z"
       id="path113" />
    <path
       fill="url(#lg0)"
       d="M 68.6,499.2 C 68.3,498.7 68.1,474 68.1,444.4 68.3,365.2 68,335.2 67,337.5 c -0.6,1.4 -0.9,1.6 -1,0.5 -0.2,-0.8 -0.2,-1.9 -0.1,-2.3 0.1,-0.5 -0.9,-0.5 -2.1,-0.1 -1.3,0.4 -2.8,0.7 -3.5,0.7 -1.9,0 -2.2,6.8 -2.8,72.6 -0.3,34.4 -0.6,62.6 -0.8,62.7 -0.8,0.8 -42.9,0.6 -43.7,-0.2 -0.7,-0.7 -1.3,-26.7 -1.7,-70.5 -0.4,-38.2 -1,-68 -1.4,-66.4 -0.4,1.7 -0.7,2.2 -0.8,1.1 -0.1,-1.3 -0.7,-1.7 -2,-1.3 -1,0.2 -2.7,0 -3.7,-0.6 -1.7,-0.9 -1.8,-0.9 -0.5,0.6 1.2,1.5 1.2,1.7 -0.3,1.1 -1.4,-0.5 -1.6,-3.8 -1.8,-30 -0.1,-16.2 -0.2,-30.9 -0.2,-32.6 -0.1,-3.3 0,-3.3 5,-3.6 l 5.1,-0.3 0.7,-6.7 c 0.3,-3.7 0.6,-8.6 0.6,-10.9 V 247 h 23 22.9 l 0.3,10.7 c 0.3,11.8 0.5,12 7.6,10.8 l 3.2,-0.6 -0.2,-17.2 c -0.2,-13.6 -0.6,-17.1 -1.6,-16.9 -0.7,0.1 -3.1,-0.2 -5.3,-0.8 L 58,231.9 V 184.2 136.5 H 35 12 v 40.6 c 0,22.3 -0.3,44 -0.6,48.2 L 10.7,233 H 6.6 C 4.3,233 2.1,232.6 1.5,232.2 0.8,231.8 0.6,192.1 0.8,115.8 L 1.1,0 H 97.5 194 l 6.8,4.3 c 3.7,2.4 10,6.5 14,9 L 222,18 v 81.4 c 0,90.9 0.7,82.6 -7.3,82.6 -2.3,0 -16,0.7 -30.4,1.7 l -26.2,1.7 -12.3,-2.8 c -6.8,-1.5 -14.1,-3.3 -16.2,-3.9 l -3.9,-1.1 0.4,-40.1 0.4,-40 -11,0.4 c -6,0.2 -11.3,0.5 -11.7,0.8 -1.3,0.7 -1,390.3 0.2,390.3 0.6,0 4.3,-0.6 8.3,-1.4 13.2,-2.6 12.7,-2.6 12.7,0 0,1.3 -0.4,2.4 -0.9,2.4 -0.4,0 -4.6,0.6 -9.2,1.4 -4.6,0.8 -10,1.7 -11.9,2 -4.1,0.7 -8.1,1.4 -11.2,2.1 -5.8,1.2 -11.6,2.4 -14.3,2.8 -1.6,0.3 -4.2,0.8 -5.6,1.2 -1.5,0.4 -2.9,0.2 -3.3,-0.3 z M 161.7,165 c 9.4,-0.5 18.3,-1 19.7,-1 h 2.7 l -0.2,-13.7 -0.1,-13.8 H 160.4 137 v 14.6 c 0,8 0.3,14.8 0.6,15.2 0.3,0.3 2,0.4 3.7,0.1 1.8,-0.2 10.9,-0.8 20.4,-1.4 z"
       id="path115"
       style="fill:url(#linearGradient1128)" />
    <path
       fill="url(#lg0)"
       d="m 705.4,472.1 c -0.2,-0.2 -0.4,-18.2 -0.4,-40 0,-41 -1,-95.4 -1.7,-94.7 -0.3,0.2 -1.4,-0.5 -2.4,-1.5 -1.3,-1.3 -3,-1.9 -4.7,-1.7 l -2.7,0.3 -0.1,-36.5 c 0,-20.1 0.1,-34.8 0.3,-32.7 l 0.4,3.7 h 4.8 4.8 l 0.7,-4.6 c 0.3,-2.6 0.6,-7.5 0.6,-11 V 247 h 71.3 71.4 l 15.8,10.6 c 15.3,10.3 15.9,10.6 20.6,10.2 l 4.9,-0.3 v 30 c -0.1,16.5 -0.4,31.4 -0.8,33 -0.7,2.4 -1.4,3.1 -4,3.3 -1.8,0.2 -3.2,0.8 -3.2,1.3 0,0.6 -0.4,0.7 -1,0.4 -0.6,-0.4 -1.1,3.4 -1.1,10.7 -0.1,6.2 -0.3,14.7 -0.5,18.8 -0.2,4.1 -0.3,30 -0.4,57.5 v 50 h -86.1 c -47.3,0 -86.3,-0.2 -86.5,-0.4 z m 119.9,-21.2 5.7,-5.1 V 390 c 0,-30.7 -0.4,-56.1 -0.8,-56.4 -1.2,-0.7 -5.3,0.5 -4.8,1.3 0.3,0.4 -0.5,1.3 -1.7,2.1 -2,1.2 -2.1,1.2 -0.8,-0.4 1.2,-1.4 1.2,-1.6 -0.3,-1 -1.9,0.7 -1.7,-4.3 -2.5,60.9 l -0.6,48 -3.5,-0.1 c -1.9,-0.1 -13.8,-0.5 -26.5,-0.9 -12.6,-0.5 -23.8,-0.9 -24.7,-0.9 -1.4,0 -1.8,-0.9 -1.8,-3.8 v -3.7 l 6.8,0.4 c 3.7,0.3 14.6,0.7 24.3,0.9 l 17.7,0.5 0.6,-4.2 c 0.4,-2.3 0.4,-29.6 0,-60.7 l -0.7,-56.5 6.4,0.2 c 3.5,0.1 7.8,-0.1 9.6,-0.5 3.1,-0.7 1.9,-1.6 -30.3,-23.1 -18.4,-12.3 -33.8,-22.1 -34.2,-21.7 -0.4,0.4 -0.6,17.4 -0.6,37.7 0.1,20.3 -0.1,36.8 -0.3,36.5 -0.2,-0.2 -0.7,-2.6 -1.1,-5.3 -0.6,-4.3 -1,-4.8 -3.5,-5.1 -2.1,-0.3 -2.7,0.1 -2.7,1.5 0,1.3 -0.2,1.5 -0.9,0.5 -0.5,-0.9 -1,0.2 -1.4,3.2 -1.1,7.6 -0.9,102.4 0.2,104.3 0.5,1 2.9,3.7 5.3,6 l 4.3,4.2 25,0.9 c 13.8,0.5 26.6,0.9 28.5,1 2.9,0.1 4.5,-0.7 9.3,-4.9 z M 762,267.2 c 0,-3 0.9,-3.2 4.5,-1.1 2.6,1.6 5.2,2 11.6,2 4.5,0 8.4,-0.2 8.6,-0.5 0.3,-0.2 -3.7,-3.2 -8.8,-6.7 l -9.2,-6.2 -8.4,4.4 c -7.3,3.9 -8.3,4.7 -8.3,7.2 0,2.6 0.2,2.7 5,2.7 4.2,0 5,-0.3 5,-1.8 z"
       id="path117"
       style="fill:url(#linearGradient1130)" />
    <path
       d="m 356,344.6 c 0,-1.9 0.3,-3.7 0.8,-4 0.4,-0.2 0.6,1.3 0.4,3.5 -0.5,4.8 -1.2,5.1 -1.2,0.5 z"
       id="path119" />
    <path
       d="M 693.2,127 C 693.1,64.6 693.3,10.5 693.7,6.7 L 694.3,0 h 96.8 96.9 v 105.8 c 0,58.1 0.3,107.3 0.6,109.3 l 0.6,3.5 -9.3,5.7 c -5.2,3.1 -11,6.6 -12.8,7.9 -1.9,1.2 -3.2,1.7 -2.8,1.1 0.5,-0.7 -1,-1 -5.1,-0.7 -12.8,0.8 -12.2,-1.3 3.1,-10.5 6.7,-4.1 13,-8.1 14,-8.9 1.6,-1.4 1.7,-3.8 1.7,-27.1 0,-29.2 -0.9,-50.3 -2.1,-49.5 -1.2,0.7 -41.2,0.7 -43.1,-0.1 -1.7,-0.7 -1.8,1.8 -2,40.6 l -0.3,41.4 -8.4,4.4 c -7.6,3.9 -8.6,4.2 -10.6,3 -1.2,-0.8 -14.1,-9.2 -28.7,-18.7 C 748.7,185 751,188.5 751,158.7 c 0,-13.3 -0.4,-21.8 -1,-22.2 -0.5,-0.3 -1,-0.3 -1,0.2 0,0.4 -3.5,0.7 -7.7,0.6 -4.3,-0.2 -14.3,-0.4 -22.3,-0.5 l -14.5,-0.3 -0.3,48 c -0.1,26.4 -0.6,48.3 -1.1,48.8 -0.4,0.4 -2.6,0.4 -4.9,-0.1 l -4.1,-1 -0.4,4.2 c -0.2,2.2 -0.4,-47 -0.5,-109.4 z M 812,151 V 89 h -25 -25 l 0.2,46.1 0.3,46 24.3,16 c 13.4,8.7 24.6,15.9 24.8,15.9 0.2,0 0.4,-27.9 0.4,-62 z M 704.7,126.8 c -0.2,-1.3 -0.4,-0.3 -0.4,2.2 0,2.5 0.2,3.5 0.4,2.3 0.2,-1.3 0.2,-3.3 0,-4.5 z"
       id="path121" />
  </g>
  <g
     fill="#5a606f"
     id="g137"
     transform="translate(-0.3)">
    <path
       fill="url(#lg0)"
       d="m 1203.5,563.7 -14,-7.3 -0.6,-59.9 c -0.3,-33 -0.7,-136.4 -0.8,-229.8 -0.1,-134.8 -0.4,-169.8 -1.3,-170.2 -0.7,-0.2 -13.8,-0.8 -29.1,-1.3 -15.2,-0.5 -28,-1.2 -28.5,-1.6 -0.4,-0.4 -0.7,-17.7 -0.7,-38.3 V 17.7 l 6.5,-4 c 20.2,-12.5 20.5,-12.6 20.8,-11.1 0.3,1.1 1.8,1.4 6.5,1.3 3.4,-0.1 47,-0.1 97,-0.1 L 1350,4 v 41.9 42 l -19,6.1 -19.1,6.1 -12.6,-0.2 -12.6,-0.2 -0.1,59.4 -0.1,59.4 -4.3,-0.1 c -2.6,0 -4.8,-0.7 -5.3,-1.5 -0.5,-0.8 -0.9,-19.3 -0.9,-41.2 0,-26.8 -0.3,-39.6 -1,-39.2 -0.6,0.4 -10.9,0.6 -23,0.5 l -22,-0.1 -0.1,37.8 c -0.1,20.8 -0.2,38.3 -0.4,38.8 -0.1,0.6 -0.3,2 -0.3,3.3 -0.2,1.9 -0.7,2.3 -2.9,2.1 -1.6,-0.1 -3.8,-0.1 -5,-0.1 l -2.3,0.2 v 176 c 0,96.8 -0.3,176 -0.7,176 -0.5,-0.1 -7.1,-3.3 -14.8,-7.3 z"
       id="path125"
       style="fill:url(#linearGradient1132)" />
    <path
       fill="url(#lg0)"
       d="m 924.4,526.7 c -0.6,-0.7 -3.5,-3.5 -6.6,-6.3 l -5.5,-5 -0.7,-248.7 -0.8,-248.7 6.9,-8.5 c 4.2,-5.3 6.9,-7.9 7.1,-7 0.3,1.4 11.1,1.5 96.9,1.5 53.1,-0.1 96.7,0 96.8,0.2 0.1,0.2 0.4,48.5 0.6,107.3 l 0.4,107 -3.5,0.1 c -7.4,0.2 -7,2.5 -7.1,-38.4 -0.1,-20.2 -0.4,-38 -0.8,-39.7 l -0.6,-3 -21.5,-0.2 c -13.9,-0.1 -21.9,0.2 -22.7,0.9 -1,0.8 -1.3,9.8 -1.3,40.8 v 39.8 l -3.2,-0.3 c -5.4,-0.5 -6.6,0.3 -7.3,4.5 -0.4,2.2 -0.9,4 -1.1,4 -0.3,0 -3.1,-1.9 -6.2,-4.2 -5.7,-4.3 -5.7,-4.3 -15,-4.4 l -9.2,-0.1 -6.8,-4.6 c -3.7,-2.5 -10.1,-6.9 -14.2,-9.8 -16,-11 -15.7,-10.1 -16.2,-39.9 -0.3,-12.9 -0.8,-24.3 -1.2,-25.2 -0.7,-1.5 -3.2,-1.7 -22.3,-1.8 -11.9,0 -22,-0.3 -22.4,-0.6 -0.5,-0.3 -0.9,18.2 -0.9,41.2 v 41.7 l -3.6,-0.6 c -2,-0.4 -4.6,-0.1 -5.7,0.4 -1.9,1.1 -1.9,2.3 -1.4,155 0.3,84.6 0.4,153.9 0.4,153.9 -0.1,-0.1 -0.7,-0.6 -1.3,-1.3 z M 1030,152.5 c 0,-46.8 -0.3,-59.7 -1.2,-60 -0.7,-0.2 -9.1,-0.5 -18.6,-0.7 l -17.2,-0.3 0.1,47.4 c 0.1,47 0.2,47.3 2.3,49.2 3.4,2.9 33,23.8 33.9,23.8 0.4,0.1 0.7,-26.7 0.7,-59.4 z"
       id="path127"
       style="fill:url(#linearGradient1134)" />
    <path
       fill="url(#lg0)"
       d="m 425.1,373.7 c 0.1,-84.6 0,-154 -0.3,-154.2 -0.2,-0.2 -2.5,-0.5 -5.1,-0.6 l -4.7,-0.3 v -39.7 c 0,-31.5 -0.3,-39.9 -1.3,-40.7 -0.9,-0.8 -8.9,-1.1 -23.5,-1.1 l -22.1,0.1 -0.3,39.9 c -0.3,44.4 0.1,41.9 -7.2,41.9 h -3.9 l 0.5,-64.1 0.5,-64.1 -3,0.6 c -1.6,0.3 -9.8,0.6 -18.2,0.6 h -15.2 l -0.6,60.8 c -0.4,33.4 -0.7,114.9 -0.8,181.2 v 120.5 l 5.8,-0.2 c 3.2,-0.2 9.2,-0.7 13.3,-1.3 18.1,-2.3 17,-2.3 17,0.9 0,3.5 -0.3,3.6 -16.5,5.1 -6,0.6 -16.4,1.8 -23,2.5 -6.6,0.8 -13.3,1.5 -14.8,1.5 h -2.8 L 299,353.3 c 0.1,-60.4 0.1,-115.3 0.1,-122 L 299,219 h -3.7 c -7.2,0 -6.8,2.6 -6.6,-43.2 0.1,-22.7 -0.1,-40.7 -0.6,-40 -0.6,1.1 -5.5,1.3 -22.6,1.2 -12,0 -22.2,-0.3 -22.6,-0.6 -0.5,-0.3 -0.9,15.4 -0.9,34.9 0,19.5 -0.3,38.2 -0.6,41.6 l -0.7,6.1 h -5 -5 l 0.6,-80.2 C 231.7,94.6 232,46.2 232,31.3 V 4 h 96.5 c 85.8,0 96.6,-0.2 97.2,-1.5 0.4,-1.2 1,-1 2.7,1.3 1.1,1.6 4.3,5.4 7,8.5 l 4.9,5.7 -0.7,148.8 c -0.3,81.8 -0.9,193.7 -1.2,248.7 l -0.6,100 -4.2,4 c -2.3,2.2 -5.2,4.9 -6.4,6 l -2.3,1.9 z"
       id="path129"
       style="fill:url(#linearGradient1136)" />
    <path
       fill="url(#lg0)"
       d="M 530.7,373.2 C 531,292.5 531,224.7 530.6,222.7 529.9,219 529.9,219 525,219 h -5 l -0.1,-43.2 c -0.1,-23.8 -0.3,-42.6 -0.5,-41.8 -0.9,3.1 -3.8,3.5 -24.2,3 -11.1,-0.3 -20.7,-0.3 -21.2,-0.2 -0.6,0.2 -1,14.8 -1,39.7 0,44.2 0.3,42.5 -7.2,42.5 h -4.1 l 0.6,-75.7 C 462.7,101.6 463,53.2 463,35.8 V 4 h 2.6 c 1.4,0 5.1,1.7 8.2,3.9 9,6.1 72.4,46.8 82.4,52.9 l 3.6,2.3 22.4,-14.2 C 594.5,41.2 606.8,33.3 609.5,31.5 629,18.7 654.6,3 655.5,3.4 c 0.7,0.2 1.5,3.8 1.8,8.2 0.4,4.2 0.6,117.5 0.5,251.8 -0.2,159.3 -0.4,194 -0.5,99.9 L 657,219 l -2.8,-0.1 c -1.5,-0.1 -3.9,-0.2 -5.4,-0.3 L 646,218.5 V 177.8 137.1 L 624.3,137 c -11.9,0 -21.9,-0.2 -22.1,-0.5 -0.2,-0.2 -1,0.1 -1.6,0.8 -0.8,0.8 -1.2,13 -1.5,40.7 -0.1,21.7 -0.4,39.6 -0.6,39.8 -0.1,0.1 -2.6,0.7 -5.5,1.1 l -5.3,0.8 0.8,-39.3 c 0.5,-28.9 0.4,-39.4 -0.4,-39.4 -0.6,0 -4.9,2.4 -9.5,5.4 -4.6,3 -9.3,5.9 -10.4,6.5 -1.8,1 -3.9,0 -15.4,-7.3 -12.5,-7.9 -13.3,-8.3 -13.9,-6.3 -0.3,1.2 -0.7,84.7 -0.8,185.5 l -0.3,183.4 -3.8,5.9 -3.8,5.9 z"
       id="path131"
       style="fill:url(#linearGradient1138)" />
    <path
       fill="url(#lg0)"
       d="m 69,359.9 c 0,-79.9 -0.4,-140 -0.9,-140.3 -0.5,-0.3 -2.9,-0.7 -5.5,-0.7 L 58,218.7 V 177.6 136.5 H 35 12 v 26.1 c 0,14.3 -0.3,32.8 -0.6,41.1 l -0.7,15 -4.8,0.2 -4.9,0.2 V 111.5 4 H 97.5 C 181.1,4 194,3.8 194.7,2.5 195.6,1 195.8,1.1 215.3,13.7 L 222,18 v 81.4 c 0,90.9 0.7,82.6 -7.3,82.6 -2.3,0 -16,0.7 -30.4,1.7 l -26.2,1.7 -12.3,-2.8 c -6.8,-1.5 -14.1,-3.3 -16.2,-3.9 l -3.9,-1.1 0.4,-40.1 0.4,-40 -11,0.4 c -6,0.2 -11.3,0.5 -11.7,0.8 -1.3,0.7 -1,390.3 0.2,390.3 0.6,0 4.3,-0.6 8.3,-1.4 12.8,-2.5 12.7,-2.5 12.7,-0.4 0,2.4 0.6,2.2 -20,5.8 -9.6,1.7 -21.7,3.9 -26.7,4.9 L 69,499.7 Z M 161.7,165 c 9.4,-0.5 18.3,-1 19.7,-1 h 2.7 l -0.2,-13.7 -0.1,-13.8 H 160.4 137 v 14.6 c 0,8 0.3,14.8 0.6,15.2 0.3,0.3 2,0.4 3.7,0.1 1.8,-0.2 10.9,-0.8 20.4,-1.4 z"
       id="path133"
       style="fill:url(#linearGradient1140)" />
    <path
       fill="url(#lg0)"
       d="m 693.4,122.8 c 0.1,-64.7 0.4,-117.9 0.7,-118.3 0.6,-0.6 193,-0.8 193.6,-0.2 0.1,0.2 0.3,48.7 0.3,107.8 0.1,102.5 0,107.4 -1.7,107.1 -1.6,-0.3 -8.9,-0.9 -14.8,-1.1 -1.5,-0.1 -0.9,-0.8 2.3,-2.7 l 4.3,-2.5 -0.1,-26.2 c 0,-29.8 -0.9,-50.9 -2.1,-50.1 -1.2,0.7 -41.2,0.7 -43.1,-0.1 -1.7,-0.7 -1.8,1.6 -1.8,39.8 v 40.6 l -2.2,1.5 c -1.2,0.9 -2.4,1.2 -2.8,0.8 -0.3,-0.5 -6,-0.8 -12.8,-0.7 l -12.4,0.1 -22.2,-14.2 C 749.4,185.6 751,188.3 751,158.7 c 0,-13.3 -0.4,-21.8 -1,-22.2 -0.5,-0.3 -1,-0.3 -1,0.2 0,0.4 -3.5,0.7 -7.7,0.6 -4.3,-0.2 -14.3,-0.4 -22.3,-0.5 l -14.5,-0.3 -0.2,40.4 c -0.2,22.2 -0.6,40.7 -0.9,41 -0.3,0.3 -2.4,0.6 -4.7,0.6 h -4.2 l -0.6,11 c -0.3,6.1 -0.5,-42 -0.5,-106.7 z M 812,151 V 89 h -25 -25 l 0.2,46.1 0.3,46 24.3,16 c 13.4,8.7 24.6,15.9 24.8,15.9 0.2,0 0.4,-27.9 0.4,-62 z M 704.7,126.8 c -0.2,-1.3 -0.4,-0.3 -0.4,2.2 0,2.5 0.2,3.5 0.4,2.3 0.2,-1.3 0.2,-3.3 0,-4.5 z"
       id="path135"
       style="fill:url(#linearGradient1142)" />
  </g>
  <g
     fill="#ca4301"
     id="g183"
     transform="translate(-0.3)">
    <path
       d="m 1203.5,563.7 -14,-7.3 -0.6,-59.9 c -0.3,-33 -0.7,-136.4 -0.8,-229.8 -0.1,-134.8 -0.4,-169.8 -1.3,-170.2 -0.7,-0.2 -13.8,-0.8 -29.1,-1.3 -15.2,-0.5 -28,-1.2 -28.5,-1.6 -0.4,-0.4 -0.7,-17.7 -0.7,-38.3 V 17.7 l 6.5,-4 c 20.2,-12.5 20.5,-12.6 20.8,-11.1 0.3,1.1 1.8,1.4 6.5,1.3 3.4,-0.1 47,-0.1 97,-0.1 L 1350,4 v 41.9 42 l -19,6.1 -19.1,6.1 -12.6,-0.2 -12.6,-0.2 -0.1,59.4 -0.1,59.4 -4.3,-0.1 c -2.6,0 -4.8,-0.7 -5.3,-1.5 -0.5,-0.8 -0.9,-30.2 -0.9,-66.5 V 85.2 l -3.7,-0.7 c -5.4,-1 -36.4,-0.4 -39.5,0.7 -1.6,0.6 -2.9,1.8 -2.9,2.7 -0.1,0.9 -0.1,29.5 0,63.6 0,34.1 -0.2,63.3 -0.5,64.8 -0.5,2.3 -1.1,2.8 -3.3,2.6 -1.4,-0.1 -3.6,-0.1 -4.8,-0.1 l -2.3,0.2 v 176 c 0,96.8 -0.3,176 -0.7,176 -0.5,-0.1 -7.1,-3.3 -14.8,-7.3 z"
       id="path139" />
    <path
       d="M 194,420.5 V 282.2 l -16.7,-10.3 c -9.3,-5.6 -23.8,-14.5 -32.2,-19.8 -15.4,-9.5 -15.5,-9.6 -11.6,-9.9 2.1,-0.2 6.6,0.1 10,0.7 3.4,0.6 7.7,1.1 9.7,1.1 2.4,0 5.4,1.3 9.7,4 3.4,2.2 6.3,4 6.6,4 0.2,0 3.8,2.3 7.9,5 4.2,2.8 7.8,5 8.1,5 0.3,0 3.2,1.7 6.3,3.8 3.1,2.1 11,6.9 17.4,10.8 l 11.8,6.9 v 110.1 c 0,106.4 -0.6,152.4 -2,152.4 -0.4,0 -5.3,2.6 -11.1,5.8 -5.7,3.2 -11.2,6.1 -12.1,6.5 -1.7,0.6 -1.8,-6.4 -1.8,-137.8 z"
       id="path141" />
    <path
       d="m 1041.4,535.7 -9.2,-6.2 -0.6,-35 c -0.3,-19.2 -0.7,-64.6 -1,-100.8 l -0.4,-65.8 9.7,0.6 9.6,0.7 -3,-2.5 c -1.6,-1.4 -14.1,-10.8 -27.7,-20.9 l -24.6,-18.3 -0.1,-7.3 -0.1,-7.3 3.3,2.2 c 9.4,6.6 50.2,36.9 63,46.8 4.5,3.4 8.8,6.5 9.5,6.8 1.9,0.8 1.4,2.5 -0.5,1.9 -1,-0.2 -5.3,-0.8 -9.5,-1.2 l -7.8,-0.6 v 106.6 c 0,58.6 -0.3,106.6 -0.7,106.5 -0.5,0 -4.9,-2.8 -9.9,-6.2 z"
       id="path143" />
    <path
       d="m 924.4,526.7 c -0.6,-0.7 -3.5,-3.5 -6.6,-6.3 l -5.5,-5 -0.7,-248.7 -0.8,-248.7 6.9,-8.5 c 4.2,-5.3 6.9,-7.9 7.1,-7 0.3,1.4 11.1,1.5 96.9,1.5 53.1,-0.1 96.7,0 96.8,0.2 0.1,0.2 0.4,48.5 0.6,107.3 l 0.4,107 -3.5,0.1 c -7.5,0.2 -6.9,5.9 -7.2,-67 -0.2,-36 -0.7,-65.8 -1.1,-66.3 -1.1,-1.1 -40.7,-1.3 -42.9,-0.2 -1.1,0.6 -1.8,0.5 -2.1,-0.4 -0.3,-0.6 -0.6,29.2 -0.6,66.5 l -0.1,67.6 -3.2,-0.3 c -5.4,-0.5 -6.6,0.3 -7.3,4.5 -0.4,2.2 -0.9,4 -1.1,4 -0.3,0 -3.1,-1.9 -6.2,-4.2 -5.7,-4.3 -5.7,-4.3 -15,-4.4 l -9.2,-0.1 -6.8,-4.6 c -24.4,-16.6 -25.5,-17.5 -28.3,-22.9 -1.7,-3.4 -1.9,-6.6 -1.9,-46.5 -0.1,-38.7 -0.8,-63.5 -1.7,-60.8 -0.2,0.6 -7.8,1 -20.1,1 -10.8,0 -20.7,0.3 -21.9,0.7 -1.3,0.4 -2.4,0.2 -2.7,-0.5 -0.2,-0.7 -0.5,29.3 -0.5,66.7 l -0.1,67.9 -3.6,-0.6 c -2,-0.4 -4.6,-0.1 -5.7,0.4 -1.9,1.1 -1.9,2.3 -1.4,155 0.3,84.6 0.4,153.9 0.4,153.9 -0.1,-0.1 -0.7,-0.6 -1.3,-1.3 z M 1030,152.5 c 0,-46.8 -0.3,-59.7 -1.2,-60 -0.7,-0.2 -9.1,-0.5 -18.6,-0.7 l -17.2,-0.3 0.1,47.4 c 0.1,47 0.2,47.3 2.3,49.2 3.4,2.9 33,23.8 33.9,23.8 0.4,0.1 0.7,-26.7 0.7,-59.4 z"
       id="path145" />
    <path
       d="m 425.1,373.7 c 0.1,-84.6 0,-154 -0.3,-154.2 -0.2,-0.2 -2.5,-0.5 -5.1,-0.6 l -4.7,-0.3 v -65.5 c 0,-38.2 -0.4,-66.2 -1,-67.1 -0.7,-1.2 -3.9,-1.4 -18.2,-1.2 -9.5,0.2 -19.4,-0.1 -22.1,-0.6 -4.4,-0.9 -4.8,-0.8 -5.2,1.2 -0.3,1.1 -0.6,31.3 -0.8,66.9 -0.2,71.9 0.3,66.7 -7.1,66.7 h -3.9 l 0.5,-64.1 0.5,-64.1 -3,0.6 c -1.6,0.3 -9.8,0.6 -18.2,0.6 h -15.2 l -0.6,60.8 c -0.4,33.4 -0.7,114.9 -0.8,181.2 v 120.5 l 5.8,-0.2 c 3.2,-0.2 9.2,-0.7 13.3,-1.3 18.1,-2.3 17,-2.3 17,0.9 0,3.5 -0.3,3.6 -16.5,5.1 -6,0.6 -16.4,1.8 -23,2.5 -6.6,0.8 -13.3,1.5 -14.8,1.5 h -2.8 L 299,353.3 c 0.1,-60.4 0.1,-115.3 0.1,-122 L 299,219 h -3.7 c -7.3,0 -6.8,5.3 -6.5,-68 0.3,-48.6 0,-66 -0.8,-66 -0.6,0 -0.8,-0.6 -0.5,-1.2 0.4,-0.7 0,-0.5 -0.8,0.4 -0.8,1 -1.6,1.5 -1.9,1.3 -0.3,-0.3 -10,-0.7 -21.7,-0.8 L 242,84.5 v 61.1 c 0,33.6 -0.3,63.9 -0.6,67.3 l -0.7,6.1 h -5 -5 l 0.6,-80.2 C 231.7,94.6 232,46.2 232,31.3 V 4 h 96.5 c 85.8,0 96.6,-0.2 97.2,-1.5 0.4,-1.2 1,-1 2.7,1.3 1.1,1.6 4.3,5.4 7,8.5 l 4.9,5.7 -0.7,148.8 c -0.3,81.8 -0.9,193.7 -1.2,248.7 l -0.6,100 -4.2,4 c -2.3,2.2 -5.2,4.9 -6.4,6 l -2.3,1.9 z"
       id="path147" />
    <path
       d="M 530.7,373.2 C 531,292.5 531,224.7 530.6,222.7 529.9,219 529.9,219 524.9,219 H 520 l 0.2,-46.1 0.3,-46 8.2,-4.5 8.3,-4.5 10.8,7.1 c 6,3.8 11.4,7 11.9,7 0.6,0 5.9,-3.2 11.8,-7.1 l 10.8,-7.1 4.1,2.3 c 2.3,1.3 6.1,3.5 8.6,4.9 l 4.5,2.6 -0.3,45 c -0.2,24.7 -0.5,45 -0.7,45.2 -0.1,0.1 -2.6,0.7 -5.5,1.1 l -5.3,0.8 0.8,-39.3 c 0.5,-28.9 0.4,-39.4 -0.4,-39.4 -0.6,0 -4.9,2.4 -9.5,5.4 -4.6,3 -9.3,5.9 -10.4,6.5 -1.8,1 -3.9,0 -15.4,-7.3 -12.5,-7.9 -13.3,-8.3 -13.9,-6.3 -0.3,1.2 -0.7,84.7 -0.8,185.5 l -0.3,183.4 -3.8,5.9 -3.8,5.9 z"
       id="path149" />
    <path
       d="M 657.2,363.3 657,219 l -2.7,-0.1 c -1.6,-0.1 -4,-0.2 -5.5,-0.3 l -2.8,-0.1 v -66.6 c 0,-52.5 -0.3,-66.8 -1.2,-67 -0.7,-0.2 -30.3,-0.2 -65.8,0.1 -35.5,0.3 -72.1,0.3 -81.5,0 -9.3,-0.3 -18.2,-0.2 -19.7,0.1 -1.9,0.5 -2.8,0.4 -2.9,-0.4 -0.1,-0.7 -0.5,-0.1 -0.9,1.3 -0.4,1.4 -0.8,31.2 -0.9,66.2 -0.1,71.3 0.4,66.8 -7.3,66.8 h -4.1 l 0.6,-75.7 C 462.7,101.6 463,53.2 463,35.8 V 4 h 2.6 c 1.4,0 5.1,1.7 8.2,3.9 9,6.1 72.4,46.8 82.4,52.9 l 3.6,2.3 22.4,-14.2 C 594.5,41.2 606.8,33.3 609.5,31.5 629.4,18.4 654.6,3 655.6,3.4 c 0.8,0.3 1.4,4.1 1.9,10.8 0.3,5.7 0.5,119 0.3,251.8 -0.2,170.2 -0.4,198.9 -0.6,97.3 z"
       id="path151" />
    <path
       d="m 69,359.9 c 0,-79.9 -0.4,-140 -0.9,-140.3 -0.5,-0.3 -2.9,-0.7 -5.5,-0.7 L 58,218.7 57.9,154.6 C 57.8,83.9 57.7,86.1 59.3,84 c 1,-1.2 0.9,-1.3 -0.3,-0.4 -1,0.8 -8.7,1.1 -24.2,1 L 12,84.5 v 52.1 c 0,28.6 -0.3,58.8 -0.6,67.1 l -0.7,15 -4.8,0.2 -4.9,0.2 V 111.5 4 H 97.5 C 181.1,4 194,3.8 194.7,2.5 195.6,1 195.8,1.1 215.3,13.7 L 222,18 v 81.4 c 0,90.9 0.7,82.6 -7.3,82.6 -2.3,0 -16,0.7 -30.4,1.7 l -26.2,1.7 -12.3,-2.8 c -6.8,-1.5 -14.1,-3.3 -16.2,-3.9 l -3.9,-1.1 0.4,-40.1 0.4,-40 -11,0.4 c -6,0.2 -11.3,0.5 -11.7,0.8 -1.3,0.7 -1,390.3 0.2,390.3 0.6,0 4.3,-0.6 8.3,-1.4 12.8,-2.5 12.7,-2.5 12.7,-0.4 0,2.4 0.6,2.2 -20,5.8 -9.6,1.7 -21.7,3.9 -26.7,4.9 L 69,499.7 Z M 161.7,165 c 9.4,-0.5 18.3,-1 19.7,-1 h 2.6 v -37.7 c -0.1,-20.8 -0.3,-38.7 -0.6,-39.8 -0.5,-1.9 -1.2,-2 -21.7,-1.7 -11.7,0.2 -22,0.4 -22.9,0.4 -1.5,-0.1 -1.6,3.3 -1.7,40 -0.1,22 0.1,40.4 0.4,40.8 0.3,0.5 2,0.7 3.8,0.4 1.7,-0.2 10.9,-0.8 20.4,-1.4 z m -9.9,-81.7 c -1,-0.2 -2.6,-0.2 -3.5,0 -1,0.3 -0.2,0.5 1.7,0.5 1.9,0 2.7,-0.2 1.8,-0.5 z"
       id="path153" />
    <path
       d="m 781.5,443 c -9.9,-0.4 -18.1,-0.7 -18.2,-0.8 -0.2,-0.1 -0.3,-1.7 -0.3,-3.6 v -3.5 l 6.8,0.4 c 3.7,0.3 14.6,0.7 24.3,0.9 l 17.7,0.5 0.6,-4.2 c 0.4,-2.3 0.4,-29.8 0,-61.1 -0.7,-53.8 -0.6,-56.9 1,-56.3 1,0.4 2.9,0.7 4.2,0.7 h 2.4 v 64 64 l -10.2,-0.2 c -5.7,-0.1 -18.4,-0.5 -28.3,-0.8 z"
       id="path155" />
    <path
       fill="url(#lg0)"
       d="m 137.1,341.8 c -0.1,-44.5 0.1,-80.8 0.3,-80.8 0.2,0 7.8,4.5 16.8,10 8.9,5.4 19.1,11.5 22.6,13.5 l 6.2,3.6 v 59.3 c 0,32.6 -0.3,62 -0.6,65.4 l -0.7,6.1 -20.4,0.1 c -23.4,0.1 -22.6,0 -23.5,2 -0.4,0.8 -0.7,-34.8 -0.7,-79.2 z"
       id="path157"
       style="fill:url(#linearGradient1144)" />
    <path
       fill="url(#lg0)"
       d="m 705,358.5 c -0.1,-34.6 -0.2,-65 -0.2,-67.5 0,-2.5 0,-13.4 0.1,-24.2 L 705,247 h 71.3 71.4 l 15.1,10.2 15.2,10.2 v 77 c 0,42.4 -0.4,76.5 -0.8,75.8 -0.7,-1 -5.6,-1.2 -21.9,-1 -15.4,0.2 -21.3,0 -22.2,-0.9 -0.7,-0.8 -1.3,-15.3 -1.8,-46.2 L 830.7,327 h 5.1 5.1 l 2.1,-7.2 c 1.2,-4 2.5,-8.5 3,-10 0.6,-2 0.4,-3 -0.8,-4.1 -0.9,-0.7 -18.5,-12.5 -39.1,-26.2 l -37.3,-24.9 -8.6,4.7 -8.7,4.6 v 33.3 c -0.1,18.3 -0.2,53.2 -0.3,77.6 l -0.2,44.3 -21.5,-0.3 c -11.8,-0.2 -21.5,0.1 -21.5,0.5 0,0.5 -0.4,0.6 -0.9,0.3 -0.5,-0.4 -1.2,0 -1.4,0.6 -0.3,0.7 -0.6,-27 -0.7,-61.7 z"
       id="path159"
       style="fill:url(#linearGradient1146)" />
    <path
       fill="url(#lg0)"
       d="m 1275.2,420.2 c -0.2,-1.1 -4.4,-1.3 -22,-1 l -21.9,0.3 -0.6,-34.4 c -0.4,-18.9 -0.7,-57.8 -0.7,-86.3 V 247 h 22.9 23 l 0.3,22.8 c 0.3,22.8 -0.5,152.9 -1,150.4 z"
       id="path161"
       style="fill:url(#linearGradient1148)" />
    <path
       fill="url(#lg0)"
       d="M 13,419 C 12,418.3 10.7,273.1 11.6,258.6 L 12.3,247 h 23 23 l -0.6,85.7 c -0.4,47.1 -0.8,85.8 -1,85.9 -0.5,0.5 -42.9,0.9 -43.7,0.4 z"
       id="path163"
       style="fill:url(#linearGradient1150)" />
    <path
       fill="url(#lg0)"
       d="m 245.5,418.1 c -2.8,-0.6 -3,-1 -3.7,-6.1 -0.7,-6.1 -0.8,-139.9 -0.1,-155.2 l 0.5,-9.8 h 22.9 22.9 v 55.3 c 0,30.3 -0.3,69 -0.7,85.9 l -0.6,30.6 h -19.1 c -10.5,-0.1 -20.4,-0.4 -22.1,-0.7 z"
       id="path165"
       style="fill:url(#linearGradient1152)" />
    <path
       fill="url(#lg0)"
       d="m 369.4,417.6 c -1.6,-1.3 -1.8,-5.5 -2.2,-64.2 -0.3,-34.6 -0.1,-72.7 0.3,-84.7 l 0.7,-21.7 h 22.9 22.9 v 21.3 c 0.1,120.6 -0.3,150.2 -2.2,149.1 -0.4,-0.3 -0.8,0 -0.8,0.5 0,1.7 -39.3,1.3 -41.6,-0.3 z"
       id="path167"
       style="fill:url(#linearGradient1154)" />
    <path
       fill="url(#lg0)"
       d="m 474.2,418.2 c -1.1,-0.7 -1.4,-35.9 -1.2,-150.4 V 247 h 22.9 22.9 l 0.7,11.4 c 0.4,6.2 0.5,27.7 0.2,47.7 -0.4,20 -0.6,53.6 -0.7,74.7 V 419 h -21.8 c -12,-0.1 -22.3,-0.4 -23,-0.8 z"
       id="path169"
       style="fill:url(#linearGradient1156)" />
    <path
       fill="url(#lg0)"
       d="m 601.5,417.6 c -2,-1.4 -2,-2.8 -2.3,-86 L 598.9,247 h 23.6 23.5 v 84.4 c 0,46.4 -0.3,85.1 -0.6,85.9 -0.8,2.2 -40.9,2.5 -43.9,0.3 z"
       id="path171"
       style="fill:url(#linearGradient1158)" />
    <path
       fill="url(#lg0)"
       d="m 936.9,371.7 c -0.1,-26 -0.3,-64.6 -0.4,-85.9 L 936.2,247 h 86.3 86.4 l 0.3,21.3 c 0.2,11.6 0.2,50.3 0,85.9 l -0.2,64.7 h -20.9 c -19.7,-0.1 -21,-0.2 -22.8,-2.1 -1.7,-1.9 -1.8,-4.8 -2.1,-39 l -0.4,-36.9 4.5,0.6 4.4,0.7 3,-8.4 c 1.7,-4.5 3.3,-9.2 3.6,-10.3 0.5,-1.7 -3.5,-5 -25,-21 -14.1,-10.4 -31.7,-23.4 -39.1,-28.7 l -13.5,-9.7 -8.8,4.5 -8.9,4.4 v 73 72.9 h -23 -23 z"
       id="path173"
       style="fill:url(#linearGradient1160)" />
    <path
       d="m 693.5,298 c 0,-20.1 0.1,-28.3 0.2,-18.2 0.2,10 0.2,26.4 0,36.5 -0.1,10 -0.2,1.8 -0.2,-18.3 z"
       id="path175" />
    <path
       d="m 828.2,315.1 c 2.5,-0.5 -0.7,-2.9 -30.5,-22.8 C 779.4,280 764.1,270 763.8,270 c -0.4,0 -0.9,0.8 -1.1,1.8 -0.2,0.9 -0.2,-0.1 0.1,-2.3 0.2,-2.2 0.6,-4.2 0.8,-4.4 0.3,-0.3 63.6,41.4 72.3,47.7 l 4.4,3.2 -7.4,-0.1 c -4.5,-0.1 -6.3,-0.4 -4.7,-0.8 z"
       id="path177" />
    <path
       d="m 693.4,122.8 c 0.1,-64.7 0.4,-117.9 0.7,-118.3 0.6,-0.6 193,-0.8 193.6,-0.2 0.1,0.2 0.3,48.7 0.3,107.8 0.1,102.5 0,107.4 -1.7,107.1 -1.6,-0.3 -8.9,-0.9 -14.8,-1.1 -1.5,-0.1 -0.8,-0.8 2.4,-2.8 l 4.4,-2.6 -0.6,-45.1 C 877.3,142.8 877,114 877,103.5 v -19 l -21.5,0.2 c -14.6,0.2 -21.5,0 -21.5,-0.8 0,-0.5 -0.4,-0.8 -0.9,-0.5 -0.5,0.4 -1.2,0 -1.4,-0.6 -0.3,-0.7 -0.6,29.2 -0.6,66.4 l -0.1,67.7 -2.2,1.5 c -1.2,0.9 -2.4,1.2 -2.8,0.8 -0.3,-0.5 -6,-0.8 -12.8,-0.7 l -12.4,0.1 -22.2,-14.2 c -20.5,-13.2 -22.4,-14.7 -24.9,-19.2 l -2.7,-5 V 132.4 84.5 l -16.2,0.2 c -9,0.2 -19.3,-0.1 -23,-0.5 l -6.8,-0.8 -0.1,18 c -0.4,86.5 -0.8,115.8 -1.4,116.4 -0.3,0.4 -2.5,0.7 -4.8,0.7 h -4.2 l -0.6,11 c -0.3,6.1 -0.5,-42 -0.5,-106.7 z M 812,151 V 89 h -25 -25 l 0.2,46.1 0.3,46 24.3,16 c 13.4,8.7 24.6,15.9 24.8,15.9 0.2,0 0.4,-27.9 0.4,-62 z"
       id="path179" />
    <path
       d="m 0.3,228 c 0,-2.5 0.2,-3.5 0.4,-2.2 0.2,1.2 0.2,3.2 0,4.5 -0.2,1.2 -0.4,0.2 -0.4,-2.3 z"
       id="path181" />
  </g>
  <g
     fill="#31394e"
     id="g197"
     transform="translate(-0.3)">
    <path
       fill="url(#lg0)"
       d="m 1203.5,563.7 -14,-7.3 -0.6,-59.9 c -0.3,-33 -0.7,-136.4 -0.8,-229.8 -0.1,-134.8 -0.4,-169.8 -1.3,-170.2 -0.7,-0.2 -13.8,-0.8 -29.1,-1.3 -15.2,-0.5 -28,-1.2 -28.5,-1.6 -0.4,-0.4 -0.7,-17.7 -0.7,-38.3 V 17.7 l 6.5,-4 c 3.6,-2.2 9.3,-5.7 12.7,-7.9 3.5,-2.1 6.4,-3.8 6.6,-3.8 0.2,0 0.7,3.9 1,8.6 0.7,9.6 1.8,11.3 7.4,11.4 3.2,0 3.2,-0.1 3.5,-5.2 l 0.3,-5.3 86.2,-0.3 86.2,-0.2 0.7,5 0.7,5 h 4.8 4.9 v 33.4 33.5 l -19,6.1 -19.1,6.1 -12.7,-0.2 -12.7,-0.2 0.3,22.4 0.3,22.4 -2.1,-2.8 c -1.3,-1.6 -3.1,-2.7 -4.6,-2.7 -1.6,0 -2.4,-0.6 -2.5,-1.7 -0.1,-1 -0.5,-0.2 -0.9,1.7 -0.4,1.9 -0.8,-9.4 -0.9,-25.1 l -0.1,-28.7 -3.7,-0.7 c -5.3,-1 -36.3,-0.5 -39.5,0.7 -1.6,0.6 -2.9,2 -3.3,3.6 -0.4,1.5 -0.3,12 0.1,23.3 0.8,25.7 0.2,27.8 -8.3,27.9 h -2.3 l -0.1,40.3 c -0.1,22.1 0,119.1 0.1,215.5 0.1,96.3 -0.2,175.2 -0.7,175.2 -0.4,-0.1 -7.1,-3.3 -14.8,-7.3 z m 4.5,-475.6 9.5,-3.6 -8.5,-0.7 c -10.7,-0.8 -44.5,-1 -43.8,-0.2 0.3,0.3 3.4,0.7 6.9,1 8.1,0.5 15.6,2.8 19.4,5.9 3.4,2.8 2.8,2.9 16.5,-2.4 z m 90,0.9 10.5,-1.8 -7.7,-0.3 c -14,-0.5 -13.3,-0.6 -13.6,1.9 -0.2,1.2 -0.2,2.2 0,2.2 0.2,-0.1 5,-0.9 10.8,-2 z"
       id="path185"
       style="fill:url(#linearGradient1162)" />
    <path
       fill="url(#lg0)"
       d="m 924.4,526.7 c -0.6,-0.7 -3.5,-3.5 -6.6,-6.3 l -5.5,-5 -0.7,-249 -0.7,-248.9 6.4,-7.7 6.4,-7.8 0.7,3.8 c 0.3,2 0.6,6 0.6,8.9 0,6 1.8,7.7 6.9,6.7 2.8,-0.6 3,-1 3.3,-5.3 l 0.3,-4.6 86.1,-0.3 86.1,-0.2 0.6,4.1 c 0.6,4.9 1.8,5.9 7,5.9 h 3.7 v 57.9 c 0,31.9 -0.2,58.6 -0.6,59.4 -0.4,1.1 -1.4,1.2 -4.5,0.7 -3.8,-0.7 -3.9,-0.7 -4.1,2.4 -0.1,1.7 -0.4,-10 -0.7,-26.1 -0.4,-16 -1,-29.5 -1.4,-30 -1.1,-1.1 -40.7,-1.3 -42.9,-0.2 -1.1,0.6 -1.8,0.5 -2.1,-0.4 -0.3,-0.6 -0.6,10.3 -0.6,24.4 -0.1,14.1 -0.4,27 -0.7,28.7 -0.6,3.1 -0.9,3.2 -4.5,1 -0.3,-0.1 -1.3,0.3 -2.2,1.1 -1,0.7 -1.7,1 -1.8,0.5 -0.1,-0.5 -0.5,0.2 -0.9,1.6 -0.4,1.4 -0.8,21.1 -0.9,43.9 -0.1,40.4 -0.1,41.3 -2,40 -1,-0.8 -5.7,-4.1 -10.5,-7.4 l -8.5,-6 -0.1,-59.8 c 0,-46.9 -0.3,-59.9 -1.2,-60.2 -0.7,-0.2 -9.1,-0.5 -18.5,-0.7 l -17.3,-0.3 -0.2,24 c -0.3,26.1 0.1,24.4 -6,23.2 -2.4,-0.5 -2.7,-0.2 -3.1,2.6 -0.6,4.9 -1.2,-12.4 -0.8,-24.8 0.3,-10.7 -0.8,-35 -1.5,-33 -0.3,0.6 -7.9,1 -20.2,1 -10.8,0 -20.7,0.3 -21.9,0.7 -1.3,0.4 -2.4,0.2 -2.7,-0.5 -0.2,-0.7 -0.5,8.5 -0.7,20.3 -0.1,18.1 -1.2,39 -1.7,35.5 -0.1,-0.5 -1.9,-1 -3.9,-1 -3.5,0 -3.8,0.2 -4.6,4 -0.5,2.2 -0.7,89.6 -0.5,194.3 0.2,104.6 0.3,190.2 0.3,190.2 0,-0.1 -0.5,-0.6 -1.1,-1.3 z m 118.9,-442.6 6.8,-3.8 -8.3,-0.6 c -4.6,-0.4 -17.4,-0.7 -28.5,-0.7 -20.7,0 -21.7,0.2 -19.5,3.7 0.6,1 1.7,1 4.7,0.1 2.2,-0.6 8.8,-1.2 14.6,-1.2 10,-0.1 10.9,0.1 16.5,3.1 3.2,1.7 6.1,3.1 6.4,3.2 0.3,0 3.6,-1.7 7.3,-3.8 z"
       id="path187"
       style="fill:url(#linearGradient1164)" />
    <path
       fill="url(#lg0)"
       d="m 425.2,335.3 c 0.3,-186.9 0.2,-192.1 -1.6,-194.2 -1,-1.1 -2.2,-1.8 -2.7,-1.6 -0.4,0.3 -1,0.1 -1.4,-0.5 -1.4,-2.3 -3.4,-0.9 -3.8,2.7 -0.2,2.1 -0.4,-9.2 -0.5,-25.2 -0.1,-15.9 -0.6,-29.7 -1.2,-30.5 -0.7,-1.2 -3.9,-1.4 -18.2,-1.2 -9.5,0.2 -19.4,-0.1 -22,-0.6 -3.8,-0.7 -4.8,-0.6 -5.2,0.5 -0.4,0.8 -0.6,13 -0.6,27.1 0,14.1 -0.3,26.7 -0.6,27.9 -0.5,1.8 -1,2 -3.1,1.2 -3.6,-1.4 -5.3,-1.1 -5.3,0.9 0,0.9 -0.5,2.4 -1.1,3.2 -0.7,1.1 -0.8,-6.8 -0.4,-26.4 l 0.7,-27.9 -3.2,0.7 c -1.8,0.3 -10.1,0.6 -18.5,0.6 h -15.2 l -0.6,60.8 c -0.4,33.4 -0.7,114.9 -0.8,181.2 v 120.5 l 5.8,-0.2 c 3.2,-0.2 9.2,-0.7 13.3,-1.3 16.8,-2.1 16,-2.2 16,1.1 0,2.2 -0.5,3 -2.2,3.3 -2.2,0.4 -51.5,5.7 -53.1,5.6 -0.4,0 -0.6,-71.9 -0.5,-159.7 0.1,-87.9 -0.1,-160.4 -0.6,-161.1 -0.4,-0.7 -2.7,-2.2 -5.2,-3.3 -5.1,-2.5 -4.7,0.7 -4.4,-32.7 0.1,-15.4 -0.1,-21.2 -1,-21.2 -0.6,0 -0.8,-0.6 -0.5,-1.2 0.4,-0.7 0,-0.5 -0.8,0.4 -0.8,1 -1.6,1.5 -1.9,1.3 -0.3,-0.3 -10,-0.7 -21.7,-0.8 L 242,84.5 241.9,111 c -0.1,14.6 -0.5,27.9 -0.9,29.5 -0.4,1.7 -0.8,2.3 -0.9,1.5 -0.1,-1.1 -1.3,-1.7 -3.8,-1.8 -2.1,-0.2 -4.1,-0.6 -4.4,-1 -0.4,-0.4 -0.5,-27.1 -0.2,-59.4 l 0.6,-58.6 4.8,0.4 4.9,0.4 V 16.5 11 h 86.4 86.3 l 0.7,4.8 0.6,4.8 4.2,0.3 c 2.3,0.1 4.5,0.4 4.9,0.7 0.5,0.3 1,-4.1 1.1,-9.7 l 0.3,-10.1 6.9,8.1 6.9,8.2 -0.7,148.7 c -0.3,81.8 -0.9,193.7 -1.2,248.7 l -0.6,100 -4.2,4 c -2.3,2.2 -5.1,4.9 -6.4,5.9 l -2.2,1.9 z M 318.6,86.1 c 1.4,-1.1 5.8,-2.7 9.9,-3.7 6.5,-1.5 8.6,-1.6 16.4,-0.6 5,0.7 9.7,1.5 10.5,1.8 1.2,0.5 1.6,0 1.6,-2 V 79 l -21.7,0.1 c -12,0.1 -24.7,0.4 -28.3,0.8 l -6.5,0.6 7,3.7 c 3.9,2.1 7.4,3.8 7.8,3.8 0.5,0 2,-0.9 3.3,-1.9 z"
       id="path189"
       style="fill:url(#linearGradient1166)" />
    <path
       fill="url(#lg0)"
       d="M 657,324.5 V 142.1 l -3,-1.6 c -1.6,-0.9 -3,-1.2 -3,-0.8 -0.1,0.5 -0.9,-0.2 -2,-1.5 l -1.9,-2.3 -0.4,3.3 c -0.2,1.8 -0.5,-9.6 -0.5,-25.3 -0.2,-22 -0.5,-28.8 -1.4,-29 -0.7,-0.2 -30.3,-0.2 -65.8,0.1 -35.5,0.3 -72.1,0.3 -81.5,0 -9.3,-0.3 -18.2,-0.2 -19.7,0.1 -1.9,0.5 -2.8,0.4 -2.9,-0.4 -0.1,-0.7 -0.5,-0.1 -0.9,1.3 -0.4,1.4 -0.8,14 -0.9,28.2 l -0.1,25.6 -3.9,-0.1 c -2.1,-0.1 -4.7,0.5 -5.7,1.3 -1.6,1.4 -1.7,0.6 -1.1,-16.9 C 462.7,114 463,86.6 463,63.4 V 21 h 13.3 c 7.2,0 14.2,0 15.5,0 1.2,0 6.8,3 12.5,6.7 11.7,7.6 46.4,29.8 51.9,33.1 l 3.6,2.3 22.4,-14.2 c 12.3,-7.7 25.9,-16.5 30.3,-19.4 12.5,-8.1 11.6,-7.9 27.5,-8.2 8,-0.2 15,-0.5 15.7,-0.7 0.6,-0.3 1.3,-2 1.6,-3.8 0.2,-1.8 0.5,107.7 0.5,243.5 0.1,135.7 0,246.7 -0.3,246.7 -0.3,0 -0.5,-82.1 -0.5,-182.5 z"
       id="path191"
       style="fill:url(#linearGradient1168)" />
    <path
       fill="url(#lg0)"
       d="M 68.9,318.8 C 68.9,219.6 68.6,139 68.4,139.6 67.8,141 63.3,140.1 60.3,137.9 58.1,136.4 58,136 58,111.1 57.9,91.7 58.2,85.5 59.2,84.2 c 1.1,-1.5 1.1,-1.5 -0.2,-0.6 -1,0.8 -8.7,1.1 -24.2,1 L 12,84.5 l -0.1,26 c -0.1,14.3 -0.5,27.4 -0.9,29 -0.4,1.7 -0.8,2.4 -0.9,1.6 -0.1,-0.9 -1.4,-1.2 -4.6,-0.9 L 1,140.5 V 80.7 20.8 l 3.8,0.6 c 4.9,0.8 6,-0.1 6.4,-5.4 l 0.3,-4.5 86.1,-0.3 86.2,-0.2 0.6,4.4 c 0.8,4.8 1.8,5.6 7.2,5.6 h 3.4 v -8.9 c 0,-5 0.4,-9.2 1,-9.6 0.5,-0.3 3.5,1.1 6.7,3.1 3.2,2.1 8.8,5.7 12.6,8.1 L 222,18 v 81.4 c 0,90.9 0.7,82.6 -7.3,82.6 -2.3,0 -16.1,0.7 -30.7,1.6 l -26.5,1.7 -14,-3.2 c -7.7,-1.8 -14.1,-3.4 -14.3,-3.5 -0.3,-0.4 13,-1.3 39.8,-2.6 11.8,-0.7 22.5,-1.3 23.8,-1.6 2.2,-0.4 2.2,-0.6 2.2,-16.7 v -16.2 l -3,-1.3 c -1.6,-0.8 -3.3,-1.1 -3.7,-0.9 -0.5,0.3 -1.6,-0.1 -2.6,-0.8 -1.6,-1.1 -1.8,-3.5 -1.8,-25.6 0,-13.4 -0.2,-25.3 -0.5,-26.4 -0.5,-1.9 -1.2,-2 -21.7,-1.7 -11.7,0.2 -22,0.4 -23.1,0.3 -1.7,0 -1.8,0.9 -1.6,14.7 0.4,21.8 0.1,36.5 -0.9,38 -0.5,0.8 -2.3,1.7 -4.1,2.1 -2.6,0.5 -3.6,1.4 -4.6,4.1 -1.2,3 -1.3,0 -1.1,-21.5 l 0.2,-25 -11,0.4 c -6,0.2 -11.3,0.5 -11.7,0.8 -1.3,0.7 -1,390.3 0.2,390.3 0.6,0 4.3,-0.6 8.3,-1.4 12.8,-2.5 12.7,-2.5 12.7,-0.5 0,1.1 -0.9,2.1 -2.2,2.4 -3.7,0.8 -51.7,9.5 -52.8,9.5 -0.7,0 -1,-58.6 -1.1,-180.2 z M 99.5,94 c 0.4,-0.6 2.5,-2 4.8,-3.2 3.3,-1.7 6.1,-2.1 12.9,-2.2 8.2,-0.1 8.8,-0.2 8.8,-2.2 0,-2.1 -0.2,-2.1 -19.2,-1.7 -10.6,0.3 -23.1,0.8 -27.7,1.1 l -8.4,0.7 11.4,4.2 c 11.6,4.2 16.3,5.1 17.4,3.3 z m 52.3,-10.7 c -1,-0.2 -2.6,-0.2 -3.5,0 -1,0.3 -0.2,0.5 1.7,0.5 1.9,0 2.7,-0.2 1.8,-0.5 z"
       id="path193"
       style="fill:url(#linearGradient1170)" />
    <path
       fill="url(#lg0)"
       d="M 815.8,215.5 812,212.9 V 151 89 h -25 -25 v 24.4 c 0,25.2 -0.3,28.4 -2.5,26.6 -0.6,-0.5 -2.4,-1.1 -3.9,-1.2 -1.4,-0.1 -2.6,-0.8 -2.6,-1.5 0,-0.7 -0.4,-1.3 -0.8,-1.3 -0.5,0 -0.9,-0.8 -0.9,-1.7 0.1,-1 0,-12.6 -0.1,-25.8 l -0.2,-24 -16.2,0.2 c -9,0.2 -19.3,-0.1 -22.9,-0.5 l -6.6,-0.8 -0.6,27 c -0.6,26.2 -0.7,27.2 -2.8,28.9 -1.5,1.2 -2.5,1.4 -3.4,0.7 -0.6,-0.5 -1.5,-0.7 -1.8,-0.3 -0.4,0.3 -0.7,0 -0.7,-0.7 0,-0.7 -0.3,-1 -0.7,-0.6 -0.5,0.4 -1,17.5 -1.3,37.9 -0.4,21.5 -0.6,-5.6 -0.6,-64.3 -0.1,-55.8 0.1,-100.1 0.3,-98.5 0.9,7.3 1,7.5 5.8,7.5 h 4.4 l 0.3,-4.7 0.3,-4.8 86.1,-0.3 86.2,-0.2 0.6,2.2 c 0.3,1.3 0.6,3.3 0.6,4.4 0,2.5 1.8,3.4 6.6,3.4 h 3.4 v 58.3 c 0,32 -0.4,58.7 -0.8,59.2 -0.4,0.6 -2.3,1 -4.2,1 -5.6,0 -6,-1.6 -6,-30 v -25 l -21.5,0.2 c -14.6,0.2 -21.5,0 -21.5,-0.8 0,-0.5 -0.4,-0.8 -0.9,-0.5 -0.5,0.4 -1.2,0 -1.4,-0.6 -0.3,-0.7 -0.6,10.6 -0.7,25.2 -0.1,14.6 -0.6,27.9 -1,29.5 -0.4,1.7 -0.8,2.3 -0.9,1.5 -0.1,-0.9 -0.4,-1.1 -0.9,-0.5 -0.4,0.6 -1.1,1 -1.7,1.1 -0.5,0 -2.2,0.4 -3.7,0.8 l -2.8,0.8 -0.2,38.4 -0.3,38.4 z m 2.3,-136.7 c 0.9,-1.7 0.4,-1.8 -7.8,-1.7 -4.8,0.1 -7.5,0.4 -5.9,0.6 1.6,0.3 4.5,1.5 6.5,2.8 3.8,2.4 5.2,2.1 7.2,-1.7 z M 768,77.6 c 0,-0.2 -1.1,-0.6 -2.5,-0.8 -1.4,-0.3 -2.5,-0.1 -2.5,0.3 0,0.5 1.1,0.9 2.5,0.9 1.4,0 2.5,-0.2 2.5,-0.4 z"
       id="path195"
       style="fill:url(#linearGradient1172)" />
  </g>
  <g
     fill="#781f06"
     id="g261"
     transform="translate(-0.3)">
    <path
       d="m 1203.5,563.7 -14,-7.3 -0.6,-59.9 c -0.3,-33 -0.7,-136.4 -0.8,-229.8 -0.1,-134.8 -0.4,-169.8 -1.3,-170.2 -0.7,-0.2 -13.8,-0.8 -29.1,-1.3 -15.2,-0.5 -28,-1.2 -28.5,-1.6 -0.4,-0.4 -0.7,-17.7 -0.7,-38.3 V 17.7 l 6.5,-4 c 3.6,-2.2 9.3,-5.7 12.7,-7.9 3.5,-2.1 6.4,-3.8 6.6,-3.8 0.2,0 0.7,3.9 1,8.6 0.7,9.6 1.8,11.3 7.4,11.4 3.1,0 3.2,-0.1 3.6,-5.2 0.2,-2.9 0.4,8.1 0.5,24.4 l 0.2,29.7 4.3,0.5 c 2.3,0.3 13.7,0.7 25.2,1 11.6,0.2 21.7,0.7 22.5,1.1 0.8,0.4 3.4,2.9 5.8,5.5 l 4.2,4.7 0.5,24.7 c 0.7,30.1 0.3,31.5 -8.2,31.6 h -2.3 l -0.1,40.3 c -0.1,22.1 0,119.1 0.1,215.5 0.1,96.3 -0.2,175.2 -0.7,175.2 -0.4,-0.1 -7.1,-3.3 -14.8,-7.3 z m 4.5,-475.6 9.5,-3.6 -8.5,-0.7 c -10.7,-0.8 -44.5,-1 -43.8,-0.2 0.3,0.3 3.4,0.7 6.9,1 8.1,0.5 15.6,2.8 19.4,5.9 3.4,2.8 2.8,2.9 16.5,-2.4 z"
       id="path199" />
    <path
       d="M 193.8,420.3 193.5,281.6 181,274.1 c -6.9,-4.2 -21.3,-13 -32,-19.6 -19.2,-11.8 -19.4,-12 -15.6,-12.3 2.2,-0.2 6.7,0.1 10.1,0.7 3.4,0.6 7.7,1.1 9.7,1.1 2.4,0 5.4,1.3 9.7,4 3.4,2.2 6.3,4 6.6,4 0.2,0 3.8,2.3 7.9,5 4.2,2.8 7.8,5 8.1,5 0.3,0 3.2,1.7 6.3,3.8 3.1,2.1 11,6.9 17.4,10.8 l 11.8,6.9 v 110.1 c 0,106.4 -0.6,152.4 -2,152.4 -0.4,0 -5.3,2.6 -11.1,5.8 -5.7,3.2 -11.2,6.1 -12.1,6.5 -1.7,0.6 -1.8,-6.5 -2,-138 z"
       id="path201" />
    <path
       d="m 1041.4,535.7 -9.2,-6.2 -0.6,-35 c -0.3,-19.2 -0.7,-64.6 -1,-100.8 l -0.4,-65.8 9.7,0.6 c 8,0.5 9.3,0.4 8.1,-0.7 -0.9,-0.7 -13.3,-10.1 -27.6,-20.9 l -26.1,-19.7 0.5,-5.8 c 0.2,-3.3 0.6,-6.1 0.8,-6.2 0.5,-0.7 34.8,24.1 56.9,41.2 11.5,8.9 11,8.4 8.9,8.3 -1.4,-0.2 -1.8,0.4 -1.6,2.1 0.3,2 -0.1,2.2 -4.1,2.2 h -4.4 l 0.5,106.5 c 0.3,61.8 0.1,106.5 -0.4,106.4 -0.5,0 -5,-2.8 -10,-6.2 z"
       id="path203" />
    <path
       d="m 924.4,526.7 c -0.6,-0.7 -3.5,-3.5 -6.6,-6.3 l -5.5,-5 -0.7,-249 -0.7,-248.9 6.4,-7.7 6.4,-7.8 0.7,3.8 c 0.3,2 0.6,6 0.6,8.9 0,6 1.8,7.7 6.9,6.7 2.7,-0.6 3,-1 3.4,-5.3 0.2,-2.5 0.4,21.3 0.4,52.9 0,47 -0.6,77.2 -1.5,71.5 -0.1,-0.5 -1.9,-1 -3.9,-1 -3.5,0 -3.8,0.2 -4.6,4 -0.5,2.2 -0.7,89.6 -0.5,194.3 0.2,104.6 0.3,190.2 0.3,190.2 0,-0.1 -0.5,-0.6 -1.1,-1.3 z"
       id="path205" />
    <path
       d="m 425.2,335.3 c 0.3,-186.9 0.2,-192.1 -1.6,-194.2 -1,-1.1 -2.2,-1.8 -2.7,-1.6 -0.4,0.3 -1,0.1 -1.4,-0.5 -1.4,-2.3 -3.4,-0.9 -3.8,2.7 -0.2,2.1 -0.4,-25.2 -0.4,-60.7 -0.1,-35.5 0.3,-63.4 0.7,-62 0.4,1.4 0.8,2.2 0.9,1.9 0.1,-0.3 2.1,-0.3 4.6,0.1 l 4.4,0.7 0.3,-10 0.3,-9.9 6.9,8.1 6.9,8.2 -0.7,148.7 c -0.3,81.8 -0.9,193.7 -1.2,248.7 l -0.6,100 -4.2,4 c -2.3,2.2 -5.1,4.9 -6.4,5.9 l -2.2,1.9 z"
       id="path207" />
    <path
       d="m 530.8,331.7 0.3,-187.9 -2.3,-2.5 c -1.2,-1.3 -3,-2.2 -3.9,-2 -2.9,0.8 -5,-2.9 -4.7,-7.9 l 0.3,-4.5 8.2,-4.5 8.3,-4.5 10.8,7.1 c 6,3.8 11.6,7 12.4,7 0.8,0 3,-1.2 4.9,-2.6 1.9,-1.4 6.5,-4.6 10.3,-7.1 l 6.9,-4.5 4.1,2.3 c 12.7,7.1 13.1,7.4 13,10.5 -0.1,1.6 -0.3,4.7 -0.4,6.9 -0.1,3.2 -0.3,3.6 -1,2 -0.5,-1.1 -0.9,-1.4 -0.9,-0.6 -0.1,0.9 -0.8,1.1 -2.3,0.7 -1.6,-0.4 -2.8,0.1 -4.1,1.7 -1,1.2 -1.6,1.6 -1.2,0.9 1.3,-2.6 -2.8,-1 -10.9,4.2 -4.6,3 -9.3,5.9 -10.4,6.5 -1.8,1 -3.9,0 -15.4,-7.3 -12.5,-7.9 -13.3,-8.3 -13.9,-6.3 -0.3,1.2 -0.7,84.7 -0.8,185.5 l -0.3,183.4 -3.6,5.7 -3.7,5.6 z"
       id="path209" />
    <path
       d="M 657,324.5 V 142.1 l -3,-1.6 c -1.6,-0.9 -3,-1.2 -3,-0.8 -0.1,0.5 -0.9,-0.2 -2,-1.5 l -1.9,-2.3 -0.4,3.3 c -0.2,1.8 -0.5,-23.9 -0.5,-57.1 -0.2,-47.8 -0.5,-60.2 -1.4,-59.8 -1.4,0.5 -53.3,33.1 -67.3,42.2 -8.1,5.3 -9.7,6 -16,6.6 -4.2,0.4 -7.8,0.3 -9,-0.4 -2.3,-1.1 -45.3,-28.3 -63.4,-40 -14.4,-9.4 -14.2,-10 2.7,-9.7 1.2,0 6.8,3 12.5,6.7 11.7,7.6 46.4,29.8 51.9,33.1 l 3.6,2.3 22.4,-14.2 c 12.3,-7.7 25.9,-16.5 30.3,-19.4 12.5,-8.1 11.6,-7.9 27.5,-8.2 8,-0.2 15,-0.5 15.7,-0.7 0.6,-0.3 1.3,-2 1.6,-3.8 0.2,-1.8 0.5,107.7 0.5,243.5 0.1,135.7 0,246.7 -0.3,246.7 -0.3,0 -0.5,-82.1 -0.5,-182.5 z"
       id="path211" />
    <path
       d="M 68.9,318.8 C 68.9,219.6 68.6,139 68.4,139.6 67.8,141 63.4,140.1 60.3,138 58,136.5 58,136.4 58,111 V 85.4 l 5.3,-5.2 5.3,-5.2 23.9,-1 c 36.3,-1.4 32.5,-1.9 38.9,4.3 l 5.5,5.2 0.2,15.5 c 0.3,23.7 0,37.4 -1,38.8 -0.5,0.8 -2.3,1.7 -4.1,2.1 -2.6,0.5 -3.6,1.4 -4.6,4.1 -1.2,3 -1.3,0 -1.1,-21.5 l 0.2,-25 -11,0.4 c -6,0.2 -11.3,0.5 -11.7,0.8 -1.3,0.7 -1,390.3 0.2,390.3 0.6,0 4.3,-0.6 8.3,-1.4 12.8,-2.5 12.7,-2.5 12.7,-0.5 0,1.1 -0.9,2.1 -2.2,2.4 -3.7,0.8 -51.7,9.5 -52.8,9.5 -0.7,0 -1,-58.6 -1.1,-180.2 z M 99.5,94 c 0.4,-0.6 2.5,-2 4.8,-3.2 3.3,-1.7 6.1,-2.1 12.9,-2.2 8.2,-0.1 8.8,-0.2 8.8,-2.2 0,-2.1 -0.2,-2.1 -19.2,-1.7 -10.6,0.3 -23.1,0.8 -27.7,1.1 l -8.4,0.7 11.4,4.2 c 11.6,4.2 16.3,5.1 17.4,3.3 z"
       id="path213" />
    <path
       d="m 299.2,303.3 c 0.1,-87.9 -0.1,-160.4 -0.6,-161.1 -0.4,-0.7 -2.7,-2.2 -5.2,-3.3 -5.2,-2.5 -4.7,1.3 -4.4,-35.4 l 0.1,-24 5.5,-5.5 5.4,-5.5 28.7,-0.3 28.6,-0.3 5.3,5.2 5.4,5.3 V 108 c 0,16.2 -0.3,30.5 -0.6,31.7 -0.5,1.8 -1,2 -3.1,1.2 -3.6,-1.4 -5.3,-1.1 -5.3,0.9 0,0.9 -0.5,2.4 -1.1,3.2 -0.7,1.1 -0.8,-6.8 -0.4,-26.4 l 0.7,-27.9 -3.2,0.7 c -1.8,0.3 -10.1,0.6 -18.5,0.6 h -15.2 l -0.6,60.7 c -0.4,33.5 -0.7,115 -0.8,181.3 v 120.5 l 5.8,-0.2 c 3.2,-0.2 9.2,-0.7 13.3,-1.3 16.8,-2.1 16,-2.2 16,1.1 0,2.2 -0.5,3 -2.2,3.3 -2.2,0.4 -51.5,5.7 -53.1,5.6 -0.4,0 -0.6,-71.9 -0.5,-159.7 z M 318.6,86.1 c 1.4,-1.1 5.8,-2.7 9.9,-3.7 6.5,-1.5 8.6,-1.6 16.4,-0.6 5,0.7 9.7,1.5 10.5,1.8 1.2,0.5 1.6,0 1.6,-2 V 79 l -21.7,0.1 c -12,0.1 -24.7,0.4 -28.3,0.8 l -6.5,0.6 7,3.7 c 3.9,2.1 7.4,3.8 7.8,3.8 0.5,0 2,-0.9 3.3,-1.9 z"
       id="path215" />
    <path
       d="m 785,443 c -9.1,-0.4 -17.7,-0.8 -19.2,-0.9 -2.5,-0.1 -2.8,-0.5 -2.8,-3.5 v -3.5 l 6.8,0.4 c 3.7,0.3 14.6,0.7 24.3,0.9 l 17.7,0.5 0.6,-4.2 c 0.4,-2.3 0.4,-29.8 0,-61.1 -0.7,-53.8 -0.6,-56.9 1,-56.3 1,0.4 2.9,0.7 4.2,0.7 h 2.4 v 64 64 l -9.2,-0.2 c -5.1,-0.1 -16.7,-0.5 -25.8,-0.8 z"
       id="path217" />
    <path
       fill="url(#lg0)"
       d="m 137.1,296.2 c 0,-19.5 0.3,-35.2 0.7,-35 0.4,0.2 10.8,6.4 23,13.8 l 22.1,13.5 0.1,19.7 v 19.7 l -4.2,0.6 c -2.4,0.4 -12.5,0.5 -22.5,0.3 -15.6,-0.3 -18.3,-0.1 -18.7,1.2 -0.2,0.8 -0.4,-14.4 -0.5,-33.8 z"
       id="path219"
       style="fill:url(#linearGradient1174)" />
    <path
       fill="url(#lg0)"
       d="M 473.1,289.3 473,247 h 23 23 v 41.8 c 0,22.9 -0.4,41.3 -0.8,40.7 -0.4,-0.6 -9.1,-1 -22.4,-1 -18.5,0 -21.8,0.2 -22.2,1.5 -0.2,0.8 -0.4,-17.5 -0.5,-40.7 z"
       id="path221"
       style="fill:url(#linearGradient1176)" />
    <path
       fill="url(#lg0)"
       d="M 937.1,289.3 937,247 h 86 86 l -0.1,41.8 c 0,22.9 -0.2,41.3 -0.5,40.7 -0.2,-0.6 -5.9,-0.9 -14.6,-0.8 -15.3,0.3 -16.1,0 -15.1,-4.7 0.4,-2.5 -1.2,-3.9 -23.9,-20.7 -13.3,-9.9 -31,-22.9 -39.3,-28.8 l -14.9,-10.9 -8.6,4.5 -8.5,4.4 -0.6,28 c -0.3,15.4 -0.6,28.1 -0.7,28.2 -0.1,0.1 -10.1,0.1 -22.2,0 -18.8,-0.2 -22,0 -22.4,1.3 -0.2,0.8 -0.4,-17.5 -0.5,-40.7 z"
       id="path223"
       style="fill:url(#linearGradient1178)" />
    <path
       fill="url(#lg0)"
       d="M 705,288.8 V 247 h 71.4 71.5 l 9.8,6.8 c 5.4,3.7 12.2,8.3 15,10.2 l 5.2,3.5 0.1,27 c 0,14.9 -0.3,28.7 -0.6,30.7 l -0.6,3.6 -17.9,0.2 -17.8,0.1 3,-11.2 c 1.7,-6.2 2.6,-11.5 2.2,-11.9 -1.5,-1.4 -75.3,-50.1 -76.8,-50.6 -0.8,-0.3 -5.3,1.5 -10,4.1 l -8.5,4.6 v 33.2 c 0,18.3 -0.4,32.8 -0.8,32.2 -0.4,-0.6 -9,-1 -22.2,-1 -13.2,0 -21.8,0.4 -22.2,1 -0.4,0.6 -0.8,-17.8 -0.8,-40.7 z"
       id="path225"
       style="fill:url(#linearGradient1180)" />
    <path
       fill="url(#lg0)"
       d="m 1273.8,329.4 c -0.4,-0.3 -9.1,-0.5 -19.6,-0.4 -17.3,0.1 -19.1,-0.1 -21.3,-1.9 l -2.4,-1.9 -0.4,-39.1 -0.3,-39.1 h 23.1 23.1 v 41.5 c 0,22.8 -0.4,41.5 -0.8,41.5 -0.5,0 -1.1,-0.3 -1.4,-0.6 z"
       id="path227"
       style="fill:url(#linearGradient1182)" />
    <path
       fill="url(#lg0)"
       d="M 13.3,328.3 C 12.3,327.9 12,318.8 12,287.4 V 247 h 22.9 22.9 l -0.4,40.1 c -0.3,22.1 -0.7,40.5 -1,41 -0.5,0.9 -41,1.1 -43.1,0.2 z"
       id="path229"
       style="fill:url(#linearGradient1184)" />
    <path
       fill="url(#lg0)"
       d="m 243.8,328.3 c -1.7,-0.4 -1.8,-3.2 -1.8,-40.9 V 247 h 23.1 23.2 l -0.5,39.9 c -0.3,21.9 -0.8,40.3 -1.2,41 -0.7,1.1 -38.8,1.5 -42.8,0.4 z"
       id="path231"
       style="fill:url(#linearGradient1186)" />
    <path
       fill="url(#lg0)"
       d="m 368,288 v -41 h 23 23 v 37.3 c 0,20.4 -0.3,38.9 -0.6,40.9 l -0.6,3.7 H 390.4 368 Z"
       id="path233"
       style="fill:url(#linearGradient1188)" />
    <path
       fill="url(#lg0)"
       d="m 601.1,326.8 c -1.2,-1.9 -1.5,-9.9 -1.9,-41 L 598.8,247 h 23.6 23.7 l -0.3,40 c -0.3,34.3 -0.5,40.2 -1.8,41 -0.8,0.5 -10.5,1 -21.5,1 -19.7,0 -20,0 -21.4,-2.2 z"
       id="path235"
       style="fill:url(#linearGradient1190)" />
    <path
       d="m 828.7,315.2 c 1.8,-0.6 -3.6,-4.6 -31.5,-23.2 -18.5,-12.3 -33.8,-22.5 -34,-22.6 -0.2,-0.1 -0.2,-1.2 0,-2.3 0.3,-1.9 3,-0.4 22.8,12.6 27.3,17.9 53,35.3 53,35.9 0,0.2 -2.8,0.4 -6.2,0.3 -3.7,-0.1 -5.4,-0.4 -4.1,-0.7 z"
       id="path237" />
    <path
       d="m 1046.9,224.3 c -2,-1.5 -6.6,-4.8 -10.2,-7.3 l -6.7,-4.5 v -59.8 c 0,-46.9 -0.3,-59.9 -1.2,-60.2 -0.7,-0.2 -9.1,-0.5 -18.5,-0.7 l -17.3,-0.3 -0.2,24 c -0.3,26.1 0.1,24.4 -6,23.2 -2.4,-0.5 -2.7,-0.2 -3.1,2.6 -0.5,3.9 -0.7,-5.2 -1.1,-37.5 l -0.3,-24.7 5.5,-5.6 5.5,-5.6 28.8,0.3 28.8,0.3 5.6,5.5 5.5,5.4 v 27.7 c 0,27.5 -0.4,34.4 -2.1,33.3 -1.8,-1.1 -4.9,-1.3 -5.4,-0.3 -0.4,0.5 -1.1,0.7 -1.6,0.4 -0.5,-0.4 -1,-0.5 -1.1,-0.3 -0.1,0.2 -0.5,19.8 -0.8,43.6 l -0.5,43.4 z m -3.6,-140.2 6.8,-3.8 -8.3,-0.6 c -4.6,-0.4 -17.4,-0.7 -28.5,-0.7 -20.7,0 -21.7,0.2 -19.5,3.7 0.6,1 1.7,1 4.7,0.1 2.2,-0.6 8.8,-1.2 14.6,-1.2 10,-0.1 10.9,0.1 16.5,3.1 3.2,1.7 6.1,3.1 6.4,3.2 0.3,0 3.6,-1.7 7.3,-3.8 z"
       id="path239" />
    <path
       d="M 815.8,215.5 812,212.9 V 151 89 h -25 -25 v 24.4 c 0,25.2 -0.3,28.4 -2.5,26.6 -0.6,-0.5 -2.4,-1.1 -3.9,-1.2 -1.4,-0.1 -2.6,-0.8 -2.6,-1.5 0,-0.7 -0.4,-1.3 -0.9,-1.3 -0.5,0 -1,-13.1 -1,-29.7 l -0.2,-29.6 5.8,-5.9 5.7,-5.8 h 28.7 28.6 l 5.6,5.9 5.7,6 -0.1,28.8 c -0.1,15.8 -0.5,30.2 -0.9,31.8 -0.4,1.7 -0.8,2.3 -0.9,1.5 -0.1,-0.9 -0.4,-1.1 -0.9,-0.5 -0.4,0.6 -1.1,1 -1.7,1.1 -0.5,0 -2.2,0.4 -3.7,0.8 l -2.8,0.8 -0.2,38.4 -0.3,38.4 z m 2.3,-136.7 c 0.9,-1.7 0.4,-1.8 -7.8,-1.7 -4.8,0.1 -7.5,0.4 -5.9,0.6 1.6,0.3 4.5,1.5 6.5,2.8 3.8,2.4 5.2,2.1 7.2,-1.7 z M 768,77.6 c 0,-0.2 -1.1,-0.6 -2.5,-0.8 -1.4,-0.3 -2.5,-0.1 -2.5,0.3 0,0.5 1.1,0.9 2.5,0.9 1.4,0 2.5,-0.2 2.5,-0.4 z"
       id="path241" />
    <path
       d="m 693.4,112 c -0.1,-55.8 0.1,-100.1 0.3,-98.5 0.9,7.3 1,7.5 5.8,7.5 h 4.4 l 0.4,-4.7 c 0.2,-2.7 0.4,23.5 0.3,58.1 l -0.1,62.8 -2.4,1.9 c -1.6,1.4 -2.7,1.6 -3.6,0.9 -0.6,-0.5 -1.5,-0.7 -1.8,-0.3 -0.4,0.3 -0.7,0 -0.7,-0.7 0,-0.7 -0.3,-1 -0.7,-0.6 -0.5,0.4 -1,17.5 -1.3,37.9 -0.4,21.5 -0.6,-5.6 -0.6,-64.3 z"
       id="path243" />
    <path
       d="m 142.9,182.1 c -6.4,-1.6 -12.3,-3.1 -13,-3.3 -1.6,-0.5 8.7,-1.3 39.1,-2.8 11.8,-0.7 22.5,-1.3 23.8,-1.6 2.2,-0.4 2.2,-0.6 2.2,-16.7 v -16.2 l -3,-1.3 c -1.6,-0.8 -3.3,-1.1 -3.7,-0.9 -0.5,0.3 -1.6,0 -2.5,-0.7 -1.3,-1 -1.7,-3.4 -1.8,-14.6 -0.4,-24.8 0.2,-108.5 0.7,-106.5 0.7,2.7 2.1,3.5 6.6,3.5 h 3.7 v -8.9 c 0,-5 0.4,-9.2 1,-9.6 0.5,-0.3 3.5,1.1 6.7,3.1 3.2,2.1 8.8,5.7 12.6,8.1 L 222,18 V 99.5 181 l -2.2,0.4 c -2.8,0.5 -38,2.6 -53.8,3.1 -10,0.4 -13,0 -23.1,-2.4 z"
       id="path245" />
    <path
       d="m 1108.7,104.5 c -0.8,-45.7 -0.8,-88.7 0,-86.5 0.9,2.3 2.4,3 6.6,3 h 3.7 v 57.9 c 0,31.9 -0.2,58.6 -0.6,59.4 -0.4,1.1 -1.4,1.2 -4.4,0.7 -3.8,-0.7 -3.9,-0.6 -4.2,2.4 -0.2,1.7 -0.6,-14.9 -1.1,-36.9 z"
       id="path247" />
    <path
       d="m 1284.6,141.5 c -1,-1.6 -2.6,-2.5 -4.1,-2.5 -1.7,0 -2.5,-0.6 -2.6,-1.7 -0.1,-1 -0.5,-0.2 -0.9,1.7 -0.4,1.9 -0.8,-9.1 -0.9,-24.5 l -0.1,-28.1 5.9,-5.8 5.8,-5.8 15.4,0.6 c 8.5,0.4 20,0.9 25.7,1.2 l 10.2,0.5 0.2,-31.3 c 0,-17.2 0.3,-29.8 0.5,-28 0.4,3.1 0.5,3.2 5.4,3.2 h 4.9 v 33.4 33.5 l -19,6.1 -19.1,6.1 -12.7,-0.2 -12.7,-0.2 0.4,22.1 c 0.2,12.2 0.1,22.2 -0.2,22.2 -0.2,0 -1.2,-1.1 -2.1,-2.5 z M 1298,89 l 10.5,-1.8 -7.7,-0.3 c -14,-0.5 -13.3,-0.6 -13.6,1.9 -0.2,1.2 -0.2,2.2 0,2.2 0.2,-0.1 5,-0.9 10.8,-2 z"
       id="path249" />
    <path
       d="m 240.1,142 c -0.1,-1.1 -1.3,-1.7 -3.8,-1.8 -2.1,-0.2 -4.1,-0.6 -4.4,-1 -0.4,-0.4 -0.5,-27.1 -0.2,-59.3 l 0.6,-58.7 3.1,0.3 c 1.7,0.2 4,0.3 5.1,0.4 2,0.1 2,0.7 1.7,57.3 -0.2,31.5 -0.7,58.9 -1.2,60.8 -0.4,1.9 -0.8,2.8 -0.9,2 z"
       id="path251" />
    <path
       d="M 10.1,141.1 C 10,140.2 8.7,139.9 5.5,140.2 L 1,140.5 V 80.7 20.8 l 3.8,0.6 c 4.9,0.8 6,-0.1 6.5,-5.4 0.2,-2.5 0.4,23.6 0.4,58 0,34.4 -0.3,63.9 -0.7,65.5 -0.4,1.7 -0.8,2.4 -0.9,1.6 z"
       id="path253" />
    <path
       d="M 462.3,124.1 C 462.7,114 463,86.6 463,63.3 V 21 h 5.5 5.5 l -0.4,32.2 c -0.3,17.8 -0.5,44.5 -0.5,59.5 l -0.1,27.1 -3.9,-0.1 c -2.1,-0.1 -4.7,0.5 -5.7,1.3 -1.6,1.4 -1.7,0.6 -1.1,-16.9 z"
       id="path255" />
    <path
       d="m 878.8,138.2 c -1,-1.2 -1.3,-14.6 -1.4,-63.1 -0.1,-33.9 0.1,-60.3 0.3,-58.6 0.6,3.7 1.7,4.5 6.6,4.5 h 3.7 v 58.3 c 0,32 -0.4,58.7 -0.8,59.2 -1.2,1.6 -7,1.4 -8.4,-0.3 z"
       id="path257" />
    <path
       d="m 242.3,15.5 c 0,-2.7 0.2,-3.8 0.4,-2.2 0.2,1.5 0.2,3.7 0,5 -0.2,1.2 -0.4,0 -0.4,-2.8 z"
       id="path259" />
  </g>
</svg>
