<?xml version="1.0" encoding="UTF-8" standalone="no"?>
<svg
   version="1.0"
   width="4079.541"
   height="2248.3826"
   viewBox="0 0 4079.541 2248.3826"
   preserveAspectRatio="xMidYMid meet"
   id="svg48"
   sodipodi:docname="auto-asiaticboard.svg"
   inkscape:version="1.1.2 (0a00cf5339, 2022-02-04, custom)"
   xmlns:inkscape="http://www.inkscape.org/namespaces/inkscape"
   xmlns:sodipodi="http://sodipodi.sourceforge.net/DTD/sodipodi-0.dtd"
   xmlns="http://www.w3.org/2000/svg"
   xmlns:svg="http://www.w3.org/2000/svg">
  <defs
     id="defs52" />
  <sodipodi:namedview
     id="namedview50"
     pagecolor="#ffffff"
     bordercolor="#666666"
     borderopacity="1.0"
     inkscape:pageshadow="2"
     inkscape:pageopacity="0.0"
     inkscape:pagecheckerboard="0"
     showgrid="false"
     inkscape:zoom="0.2619456"
     inkscape:cx="2040.5"
     inkscape:cy="1126.188"
     inkscape:window-width="1920"
     inkscape:window-height="1017"
     inkscape:window-x="-8"
     inkscape:window-y="-8"
     inkscape:window-maximized="1"
     inkscape:current-layer="svg48" />
  <g
     fill="#c1272d"
     id="g4"
     transform="translate(-1,-0.43043191)">
    <path
       d="m 2004,2247.9 c -188.4,-6.2 -372.2,-59.8 -534,-155.6 -174.6,-103.5 -318.7,-253 -416,-431.6 -9.2,-16.8 -11.6,-20.6 -12.9,-20 -0.9,0.4 -28.7,0.9 -61.9,1.1 l -60.3,0.3 -10.6,-5.1 c -5.8,-2.7 -12.7,-6.6 -15.4,-8.4 l -4.7,-3.5 -37.9,17.6 c -20.8,9.6 -44.4,20.6 -52.5,24.3 l -14.8,6.8 -1.2,-4.1 c -1.5,-5.4 -2.2,-6.1 -4.6,-4.8 -1.9,1 -2.1,0.7 -3.3,-4.3 -1.1,-5.2 -1.3,-5.4 -3.6,-4.5 -1.3,0.5 -2.6,0.9 -2.8,0.9 -0.2,0 -0.6,-1.7 -1,-3.8 -1.6,-9.8 -4.8,-7.7 -20,13.2 -6.6,9.1 -12.2,16.5 -12.5,16.5 -0.3,0.1 -1.8,-1.9 -3.3,-4.4 -1.6,-2.5 -3.5,-4.5 -4.2,-4.5 -0.7,0 -2.6,-2 -4.1,-4.4 -1.5,-2.4 -3.3,-4.2 -3.9,-4 -0.6,0.3 -1.8,-0.7 -2.5,-2.2 l -1.4,-2.6 -1.2,3.4 c -0.7,1.9 -1.7,3.2 -2.5,3 -0.8,-0.1 -40.5,-16.3 -88.2,-35.9 -81.4,-33.5 -86.8,-35.9 -86.4,-38 0.3,-1.9 -0.3,-2.5 -4.4,-4 -4.2,-1.4 -4.9,-2.1 -4.9,-4.3 0,-2.2 -0.7,-2.9 -4.9,-4.3 -4.1,-1.6 -4.7,-2.1 -4.4,-4.1 0.4,-2 -0.2,-2.6 -4.6,-4.2 -4.3,-1.5 -5,-2.1 -4.5,-3.9 0.5,-1.8 -0.2,-2.5 -4.5,-4.3 -4.1,-1.7 -5,-2.5 -4.8,-4.2 0.1,-1.7 -0.7,-2.6 -4.3,-4 -3.5,-1.3 -4.6,-2.3 -4.8,-4.3 -0.3,-2 -1.3,-2.9 -5.2,-4.3 -4.2,-1.5 -4.9,-2.1 -4.4,-3.9 0.5,-1.8 -0.2,-2.5 -4.6,-4.3 -4.2,-1.8 -5.1,-2.5 -4.8,-4.3 0.2,-1.8 -0.6,-2.5 -4.8,-4.1 -4.4,-1.7 -5,-2.3 -4.7,-4.3 0.4,-2 -0.2,-2.5 -4.7,-4 -4.6,-1.5 -5.1,-2 -4.6,-4 0.5,-2 -0.1,-2.5 -4.6,-4.2 -4.3,-1.6 -5.3,-2.4 -5.3,-4.4 0,-1.9 -0.9,-2.7 -5.1,-4.2 -4.4,-1.6 -5,-2.2 -4.7,-4.1 0.4,-2 -0.2,-2.6 -4.7,-4.2 -4.4,-1.6 -5,-2.1 -4.6,-4 0.5,-1.8 -0.2,-2.4 -4.7,-4.1 -4.2,-1.6 -5.2,-2.5 -5.2,-4.3 0,-1.8 -1,-2.7 -5.2,-4.3 -4.6,-1.7 -5.2,-2.3 -4.7,-4.1 0.5,-2 -0.2,-2.5 -5,-4.1 -4.9,-1.7 -5.5,-2.2 -5,-4.1 0.5,-1.9 -0.1,-2.5 -4.7,-4.2 -4.4,-1.6 -5.4,-2.4 -5.4,-4.3 0,-1.9 -0.9,-2.7 -5.1,-4.2 -4.4,-1.6 -5,-2.1 -4.6,-4.2 0.4,-2.1 -0.2,-2.5 -5.2,-4.1 -4.9,-1.5 -5.5,-2 -5,-4 0.5,-1.9 -0.1,-2.5 -4.7,-4.2 -4.3,-1.6 -5.4,-2.4 -5.4,-4.2 0,-1.8 -1.1,-2.7 -5.2,-4.3 -4.5,-1.7 -5.2,-2.3 -4.7,-4.1 0.4,-1.9 -0.2,-2.4 -5.1,-4.1 -5,-1.6 -5.6,-2.1 -5.1,-4.1 0.5,-2 0,-2.4 -4.7,-4 -6.9,-2.2 -6.9,-2.2 -5.7,-4.4 0.9,-1.7 0.3,-2.1 -5,-4.1 -5.2,-1.9 -5.9,-2.4 -5.4,-4.3 0.4,-1.9 -0.2,-2.4 -5.1,-4.1 -5,-1.6 -5.6,-2.2 -5.2,-4.2 0.4,-1.9 -0.3,-2.5 -5.2,-4.1 -4.6,-1.5 -5.6,-2.3 -5.6,-4.1 0,-1.9 -1.1,-2.7 -5.7,-4.5 -4.9,-1.8 -5.5,-2.3 -4.7,-3.9 0.9,-1.5 0.5,-2 -2.3,-3.2 -1.9,-0.7 -4.7,-1.7 -6.2,-2.1 -2.3,-0.5 -2.6,-1.1 -2.2,-2.9 0.5,-2.1 0,-2.5 -5.1,-4.2 -4.8,-1.6 -5.8,-2.3 -5.8,-4.3 0,-1.9 -0.9,-2.6 -5.6,-4.2 -4.9,-1.6 -5.6,-2.2 -5.2,-4.1 0.4,-2 -0.2,-2.6 -5.2,-4.2 -4.9,-1.7 -5.5,-2.2 -5.1,-4.1 0.5,-2 -0.1,-2.5 -5.2,-4.2 -4.7,-1.6 -5.7,-2.3 -5.7,-4.2 0,-1.9 -1,-2.6 -5.8,-4.3 -5.2,-1.7 -5.8,-2.2 -5.3,-4.2 0.5,-2 -0.1,-2.4 -5.5,-4 -5.4,-1.7 -6,-2.1 -5.5,-4.1 0.5,-2 -0.1,-2.5 -5.2,-4.2 -4.7,-1.6 -5.7,-2.3 -5.7,-4.2 0,-2 -1,-2.7 -6.2,-4.4 -5.4,-1.8 -6,-2.3 -5.2,-3.9 1.1,-1.9 0.4,-2.3 -7.9,-4.8 -4.5,-1.3 -4.7,-1.6 -3.2,-3.9 0.8,-1.2 -0.2,-1.9 -5.3,-3.6 -5.2,-1.8 -6.2,-2.4 -6.2,-4.4 0,-1.9 -1,-2.6 -5.8,-4.3 -5.2,-1.7 -5.8,-2.2 -5.3,-4.2 0.5,-2 0,-2.4 -5.9,-4 -5.9,-1.6 -6.4,-1.9 -5.9,-4 0.5,-2 -0.1,-2.5 -5.3,-4.2 -4.9,-1.7 -5.8,-2.4 -5.8,-4.3 0,-2.1 -0.9,-2.6 -6.3,-4.2 -5.6,-1.7 -6.2,-2.1 -5.6,-4.2 0.5,-2 -0.1,-2.4 -5.6,-4.1 -5.1,-1.6 -6,-2.2 -5.8,-3.9 0.3,-1.7 -0.7,-2.5 -5.7,-4.2 -5,-1.7 -6,-2.5 -6,-4.4 0,-2 -0.9,-2.6 -6.3,-4.2 -5.7,-1.7 -6.2,-2.1 -5.6,-4.2 0.5,-2.2 0,-2.5 -6,-4.1 -6,-1.6 -6.5,-2 -6,-4 0.6,-2.4 1,-2.2 -11.4,-6.1 -1,-0.3 -1,-0.9 -0.2,-2.3 0.9,-1.8 0.4,-2.2 -5.8,-4.2 -6,-1.9 -6.8,-2.5 -6.5,-4.4 0.4,-1.9 -0.3,-2.4 -5.9,-4 -7.6,-2.3 -7.2,-1.9 -6,-4.2 1,-1.7 -0.2,-2.3 -13.7,-6.6 -8.1,-2.6 -15.2,-4.7 -15.9,-4.7 -0.7,0 -1.2,-0.1 -1.2,-0.3 0,-0.2 18.8,-45 41.8,-99.7 28.1,-67 41.4,-99.6 40.5,-99.8 C 82.5,982 82,980.3 82,977.9 V 974 h -6 c -5.3,0 -6,-0.2 -6,-2 0,-1.8 -0.7,-2 -8,-2 -7.7,0 -8,-0.1 -8,-2.3 0,-1.2 4.3,-59 9.5,-128.2 5.2,-69.3 9.5,-126.8 9.5,-127.7 0,-1.7 3.7,-1.8 61.7,-2 l 61.7,-0.3 15.5,-37.2 c 8.6,-20.5 16,-37.3 16.4,-37.3 0.4,0 41.4,15.4 91,34.1 49.6,18.8 90.9,34.4 91.8,34.6 1.3,0.4 1.9,-1.2 3.4,-8.6 l 1.7,-9.1 105.7,-0.2 c 58.1,-0.2 122.5,-0.3 143.1,-0.3 h 37.5 l 12,3.7 c 6.6,2 16.4,5.5 21.7,7.8 l 9.7,4.1 102.5,-15.5 c 56.3,-8.6 103.1,-15.6 104,-15.6 1.3,0 1.6,1.2 1.6,6.5 0,5.1 0.3,6.5 1.5,6.5 1.1,0 1.5,1.2 1.5,4.6 0,4.5 0,4.6 3,3.9 2.7,-0.6 3,-0.4 3,1.7 0.1,2 0.2,2.1 1.1,0.6 0.5,-1 6.2,-14.2 12.5,-29.5 6.4,-15.3 11.9,-28.2 12.4,-28.7 0.5,-0.5 8.3,2 17.8,5.6 l 16.9,6.4 13.6,-27 c 22,-43.8 40.7,-76.2 67.2,-116.1 94,-141.9 219.3,-261.1 365.5,-347.8 46.8,-27.6 100.9,-54.5 150.5,-74.5 160,-64.6 332.6,-91.4 505.5,-78.7 199.5,14.8 392.8,83.3 556.5,197.3 142.6,99.3 259.5,228.7 343.6,380.3 12.4,22.4 33.8,65.4 43.9,88.1 l 7.4,16.8 287.1,0.2 c 157.8,0.2 352.3,0 432,-0.4 l 145,-0.7 11.7,2.9 c 40.1,10 70.8,31.1 91.3,62.8 11.8,18.4 21,44.5 27.2,77.2 1.5,8.3 1.8,15.8 1.8,59 v 49.5 l -7.5,1.4 c -4.1,0.8 -7.8,1.9 -8.2,2.5 -0.4,0.6 -3.1,1.6 -6,2.1 -5,1 -5.3,1.2 -5.6,4.3 -0.2,2.4 -0.8,3.2 -2.3,3.2 -1,0 -1.9,0.3 -1.9,0.6 0,0.3 2.3,3.1 5.1,6.2 6.7,7.3 12,15.2 17.5,26.1 17.7,35.1 20.6,78.2 9,130.3 -5.6,24.5 -17.9,46.9 -36.4,66 -12.8,13.2 -23.6,21.2 -40.7,30 -9.9,5 -20.2,11.6 -35,22.3 -159.8,115.2 -305.2,234.4 -440.5,360.9 -32.9,30.8 -41.3,36.7 -61.8,43.6 -17.1,5.7 -21,6 -83.1,6 h -56.6 l -11,-5.3 c -18.1,-8.8 -33.6,-22.1 -45.3,-38.7 -2.5,-3.6 -4.7,-6.7 -4.9,-6.9 -0.1,-0.2 -5.3,4.5 -11.5,10.5 -12.7,12.3 -24.1,20.3 -37.9,26.8 -19.5,9.3 -39,12.6 -83.6,14.2 -14,0.5 -18.3,1 -18.3,2 0,0.9 -0.8,1 -3,0.4 l -3,-0.9 v 5 c 0,5 0,5.1 -2.9,4.4 -2.4,-0.5 -2.9,-0.2 -3.5,1.7 -0.3,1.3 -0.6,3.3 -0.6,4.6 0,2.1 -0.3,2.3 -3,1.7 l -3,-0.7 v 5 5 l -27.2,-6.9 c -15,-3.8 -27.6,-6.9 -28,-6.9 -0.3,0 -3.7,5.5 -7.4,12.3 -53.1,96.2 -126.1,190.8 -206.2,267 -113.1,107.8 -242.1,188.7 -386.7,242.5 -113.4,42.2 -231.2,65 -357,69.2 -32.6,1.1 -37.8,1.1 -71.5,-0.1 z"
       id="path2" />
  </g>
  <g
     fill="#000000"
     id="g8"
     transform="translate(-1,-0.43043191)">
    <path
       d="m 1289.1,1671.8 c -4.6,-6.8 -8.8,-12.7 -9.2,-13.2 -0.4,-0.5 -1.5,1.6 -2.4,4.7 l -1.6,5.5 -14.7,-6 c -8.1,-3.3 -22.8,-9.3 -32.6,-13.4 l -17.9,-7.4 h -82.8 c -57.3,0 -82.8,-0.3 -83.1,-1.1 -0.2,-0.7 -2.3,-0.7 -6.8,0 -4,0.7 -28.2,1.1 -63,1.1 h -56.5 l -10.4,-5 c -5.7,-2.8 -12.6,-6.6 -15.2,-8.5 l -4.7,-3.4 -37.9,17.6 c -20.8,9.6 -44.4,20.6 -52.5,24.3 l -14.8,6.8 -1.2,-4.1 c -1.5,-5.4 -2.2,-6.1 -4.6,-4.8 -1.9,1 -2.1,0.7 -3.3,-4.3 -1.1,-5.2 -1.3,-5.4 -3.6,-4.5 -1.3,0.5 -2.6,0.9 -2.8,0.9 -0.2,0 -0.6,-1.7 -1,-3.8 -1.6,-9.8 -4.8,-7.7 -20,13.2 -6.6,9.1 -12.2,16.5 -12.5,16.5 -0.3,0.1 -1.8,-1.9 -3.3,-4.4 -1.6,-2.5 -3.5,-4.5 -4.2,-4.5 -0.7,0 -2.6,-2 -4.1,-4.4 -1.5,-2.4 -3.3,-4.2 -3.9,-4 -0.6,0.3 -1.8,-0.7 -2.5,-2.2 l -1.4,-2.6 -1.2,3.4 c -0.7,1.9 -1.7,3.2 -2.5,3 -0.8,-0.1 -40.5,-16.3 -88.2,-35.9 -81.4,-33.5 -86.8,-35.9 -86.4,-38 0.3,-1.9 -0.3,-2.5 -4.4,-4 -4.2,-1.4 -4.9,-2.1 -4.9,-4.3 0,-2.2 -0.7,-2.9 -4.9,-4.3 -4.1,-1.6 -4.7,-2.1 -4.4,-4.1 0.4,-2 -0.2,-2.6 -4.6,-4.2 -4.3,-1.5 -5,-2.1 -4.5,-3.9 0.5,-1.8 -0.2,-2.5 -4.5,-4.3 -4.1,-1.7 -5,-2.5 -4.8,-4.2 0.1,-1.7 -0.7,-2.6 -4.3,-4 -3.5,-1.3 -4.6,-2.3 -4.8,-4.3 -0.3,-2 -1.3,-2.9 -5.2,-4.3 -4.2,-1.5 -4.9,-2.1 -4.4,-3.9 0.5,-1.8 -0.2,-2.5 -4.6,-4.3 -4.2,-1.8 -5.1,-2.5 -4.8,-4.3 0.2,-1.8 -0.6,-2.5 -4.8,-4.1 -4.4,-1.7 -5,-2.3 -4.7,-4.3 0.4,-2 -0.2,-2.5 -4.7,-4 -4.6,-1.5 -5.1,-2 -4.6,-4 0.5,-2 -0.1,-2.5 -4.6,-4.2 -4.3,-1.6 -5.3,-2.4 -5.3,-4.4 0,-1.9 -0.9,-2.7 -5.1,-4.2 -4.4,-1.6 -5,-2.2 -4.7,-4.1 0.4,-2 -0.2,-2.6 -4.7,-4.2 -4.4,-1.6 -5,-2.1 -4.6,-4 0.5,-1.8 -0.2,-2.4 -4.7,-4.1 -4.2,-1.6 -5.2,-2.5 -5.2,-4.3 0,-1.8 -1,-2.7 -5.2,-4.3 -4.6,-1.7 -5.2,-2.3 -4.7,-4.1 0.5,-2 -0.2,-2.5 -5,-4.1 -4.9,-1.7 -5.5,-2.2 -5,-4.1 0.5,-1.9 -0.1,-2.5 -4.7,-4.2 -4.4,-1.6 -5.4,-2.4 -5.4,-4.3 0,-1.9 -0.9,-2.7 -5.1,-4.2 -4.4,-1.6 -5,-2.1 -4.6,-4.2 0.4,-2.1 -0.2,-2.5 -5.2,-4.1 -4.9,-1.5 -5.5,-2 -5,-4 0.5,-1.9 -0.1,-2.5 -4.7,-4.2 -4.3,-1.6 -5.4,-2.4 -5.4,-4.2 0,-1.8 -1.1,-2.7 -5.2,-4.3 -4.5,-1.7 -5.2,-2.3 -4.7,-4.1 0.4,-1.9 -0.2,-2.4 -5.1,-4.1 -5,-1.6 -5.6,-2.1 -5.1,-4.1 0.5,-2 0,-2.4 -4.7,-4 -6.9,-2.2 -6.9,-2.2 -5.7,-4.4 0.9,-1.7 0.3,-2.1 -5,-4.1 -5.2,-1.9 -5.9,-2.4 -5.4,-4.3 0.4,-1.9 -0.2,-2.4 -5.1,-4.1 -5,-1.6 -5.6,-2.2 -5.2,-4.2 0.4,-1.9 -0.3,-2.5 -5.2,-4.1 -4.6,-1.5 -5.6,-2.3 -5.6,-4.1 0,-1.9 -1.1,-2.7 -5.7,-4.5 -4.9,-1.8 -5.5,-2.3 -4.7,-3.9 0.9,-1.5 0.5,-2 -2.3,-3.2 -1.9,-0.7 -4.7,-1.7 -6.2,-2.1 -2.3,-0.5 -2.6,-1.1 -2.2,-2.9 0.5,-2.1 0,-2.5 -5.1,-4.2 -4.8,-1.6 -5.8,-2.3 -5.8,-4.3 0,-1.9 -0.9,-2.6 -5.6,-4.2 -4.9,-1.6 -5.6,-2.2 -5.2,-4.1 0.4,-2 -0.2,-2.6 -5.2,-4.2 -4.9,-1.7 -5.5,-2.2 -5.1,-4.1 0.5,-2 -0.1,-2.5 -5.2,-4.2 -4.7,-1.6 -5.7,-2.3 -5.7,-4.2 0,-1.9 -1,-2.6 -5.8,-4.3 -5.2,-1.7 -5.8,-2.2 -5.3,-4.2 0.5,-2 -0.1,-2.4 -5.5,-4 -5.4,-1.7 -6,-2.1 -5.5,-4.1 0.5,-2 -0.1,-2.5 -5.2,-4.2 -4.7,-1.6 -5.7,-2.3 -5.7,-4.2 0,-2 -1,-2.7 -6.2,-4.4 -5.4,-1.8 -6,-2.3 -5.2,-3.9 1.1,-1.9 0.4,-2.3 -7.9,-4.8 -4.5,-1.3 -4.7,-1.6 -3.2,-3.9 0.8,-1.2 -0.2,-1.9 -5.3,-3.6 -5.2,-1.8 -6.2,-2.4 -6.2,-4.4 0,-1.9 -1,-2.6 -5.8,-4.3 -5.2,-1.7 -5.8,-2.2 -5.3,-4.2 0.5,-2 0,-2.4 -5.9,-4 -5.9,-1.6 -6.4,-1.9 -5.9,-4 0.5,-2 -0.1,-2.5 -5.3,-4.2 -4.9,-1.7 -5.8,-2.4 -5.8,-4.3 0,-2.1 -0.9,-2.6 -6.3,-4.2 -5.6,-1.7 -6.2,-2.1 -5.6,-4.2 0.5,-2 -0.1,-2.4 -5.6,-4.1 -5.1,-1.6 -6,-2.2 -5.8,-3.9 0.3,-1.7 -0.7,-2.5 -5.7,-4.2 -5,-1.7 -6,-2.5 -6,-4.4 0,-2 -0.9,-2.6 -6.3,-4.2 -5.7,-1.7 -6.2,-2.1 -5.6,-4.2 0.5,-2.2 0,-2.5 -6,-4.1 -6,-1.6 -6.5,-2 -6,-4 0.6,-2.4 1,-2.2 -11.4,-6.1 -1,-0.3 -1,-0.9 -0.2,-2.3 0.9,-1.8 0.4,-2.2 -5.8,-4.2 -6,-1.9 -6.8,-2.5 -6.5,-4.4 0.4,-1.9 -0.3,-2.4 -5.9,-4 -7.6,-2.3 -7.2,-1.9 -6,-4.2 1,-1.7 -0.2,-2.3 -13.7,-6.6 -8.1,-2.6 -15.2,-4.7 -15.9,-4.7 -0.7,0 -1.2,-0.1 -1.2,-0.3 0,-0.2 18.8,-45 41.8,-99.7 28.1,-67 41.4,-99.6 40.5,-99.8 C 82.5,982 82,980.3 82,977.9 V 974 h -6 c -5.3,0 -6,-0.2 -6,-2 0,-1.8 -0.7,-2 -8,-2 -7.7,0 -8,-0.1 -8,-2.3 0,-1.2 4.3,-59 9.5,-128.2 5.2,-69.3 9.5,-126.8 9.5,-127.7 0,-1.7 3.7,-1.8 61.7,-2 l 61.7,-0.3 15.5,-37.2 c 8.6,-20.5 16,-37.3 16.4,-37.3 0.4,0 41.4,15.4 91,34.1 49.6,18.8 90.9,34.4 91.8,34.6 1.3,0.4 1.9,-1.2 3.4,-8.6 l 1.7,-9.1 105.7,-0.2 c 58.1,-0.2 122.5,-0.3 143.1,-0.3 h 37.5 l 12,3.7 c 6.6,2 16.4,5.5 21.7,7.8 l 9.7,4.1 102.5,-15.5 c 56.3,-8.6 103.1,-15.6 104,-15.6 1.3,0 1.6,1.2 1.6,6.5 0,5.1 0.3,6.5 1.5,6.5 1.1,0 1.5,1.2 1.5,4.6 0,4.5 0,4.6 3,3.9 2.7,-0.6 3,-0.4 3,1.7 0.1,2 0.2,2.1 1.1,0.6 0.5,-1 6.2,-14.2 12.5,-29.5 6.4,-15.3 11.9,-28.2 12.4,-28.7 0.4,-0.4 8.2,2 17.2,5.4 8.9,3.4 17,6.3 17.8,6.5 0.8,0.2 11.9,4.2 24.5,9 12.7,4.8 32.9,12.4 45,17 12.1,4.6 32.3,12.2 44.9,16.9 12.6,4.8 23.1,8.4 23.4,8.1 0.3,-0.3 0.8,-3.2 1,-6.5 l 0.4,-6 211.2,-0.2 211.1,-0.3 49.5,-7.8 c 27.2,-4.2 50.7,-8 52.2,-8.3 l 2.7,-0.5 0.3,8.8 0.3,8.8 94,0.5 94,0.5 9.5,2.7 c 56.3,15.9 94.7,47.4 118.6,97.3 6.5,13.5 11.3,27.3 14.9,42.8 1.5,6.4 3,11.6 3.2,11.4 0.2,-0.2 0.8,-4.9 1.3,-10.3 0.5,-5.4 4.9,-40.4 9.7,-77.7 l 8.8,-67.8 132,0.4 c 129.4,0.3 132.3,0.3 145,2.4 21.6,3.6 38.5,8.2 52.1,14.4 3.6,1.6 7.3,2.9 8.3,2.9 1.3,0 68.1,-13.6 75.7,-15.5 1.1,-0.2 2.6,-1.6 3.2,-3 1.1,-2.5 1.3,-2.5 12.5,-2.5 10.4,0 15,-0.8 59.8,-10 26.6,-5.6 49.2,-10.3 50.2,-10.6 1.5,-0.5 1.7,0.4 1.7,10 v 10.5 l 60.3,0.3 60.2,0.3 12.5,4.3 c 12.7,4.4 24.6,10.3 33.5,16.6 l 5,3.6 h 23.3 c 22.5,0 23.4,-0.1 23.9,-2 0.3,-1.1 0.9,-2 1.4,-2 0.5,0 1.6,-1.8 2.5,-4 0.9,-2.2 1.9,-4 2.3,-4 0.5,0 1.4,-1.8 2.1,-4.1 0.8,-2.3 1.9,-4.3 2.6,-4.6 0.6,-0.2 1.7,-2.2 2.4,-4.4 0.7,-2.1 1.6,-3.9 2,-3.9 1,0 4.8,-8 13.2,-28.3 3.9,-9.5 7.4,-17.5 7.7,-17.9 0.4,-0.4 7.8,2 16.6,5.3 8.8,3.3 27.7,10.5 42,15.9 38.2,14.4 68.8,26 97,36.7 29.8,11.3 33.5,12.6 33.9,12.2 0.2,-0.2 1.2,-4.4 2.2,-9.4 l 1.9,-9 313.5,-0.2 c 172.4,0 376.8,-0.3 454.2,-0.6 l 140.7,-0.5 11.6,2.9 c 39.9,10 70.6,31.1 91,62.7 11.8,18.4 21,44.5 27.2,77.2 1.5,8.3 1.8,15.8 1.8,59 v 49.5 l -7.5,1.4 c -4.1,0.8 -7.8,1.9 -8.2,2.5 -0.4,0.6 -3.1,1.6 -6,2.1 -5,1 -5.3,1.2 -5.6,4.3 -0.2,2.4 -0.8,3.2 -2.3,3.2 -1,0 -1.9,0.3 -1.9,0.6 0,0.3 2.3,3.1 5.1,6.2 6.7,7.3 12,15.2 17.5,26.1 17.7,35.1 20.6,78.2 9,130.3 -5.6,24.5 -17.9,46.9 -36.4,66 -12.8,13.2 -23.6,21.2 -40.7,30 -9.9,5 -20.2,11.6 -35,22.3 -159.8,115.2 -305.2,234.4 -440.5,360.9 -32.9,30.8 -41.3,36.7 -61.8,43.6 -17.1,5.7 -21,6 -83.1,6 h -56.6 l -11,-5.3 c -18.1,-8.8 -33.6,-22.1 -45.3,-38.7 -2.5,-3.6 -4.7,-6.7 -4.9,-6.9 -0.1,-0.2 -5.3,4.5 -11.5,10.5 -12.7,12.3 -24.1,20.3 -37.9,26.8 -19.5,9.3 -39,12.6 -83.6,14.2 -14,0.5 -18.3,1 -18.3,2 0,0.9 -0.8,1 -3,0.4 l -3,-0.9 v 5 c 0,5 0,5.1 -2.9,4.4 -2.4,-0.5 -2.9,-0.2 -3.5,1.7 -0.3,1.3 -0.6,3.3 -0.6,4.6 0,2.1 -0.3,2.3 -2.9,1.7 -3,-0.6 -3,-0.6 -3.3,4.2 l -0.3,4.9 -55.2,-13.7 c -50.2,-12.4 -56.1,-14 -64.5,-18.3 -5.1,-2.5 -10.3,-4.6 -11.5,-4.6 -2,0 -2.3,0.5 -2.3,3.8 v 3.9 l -52.7,0.6 c -28.9,0.4 -67,0.7 -84.7,0.7 h -32 l -33.4,15.5 c -18.3,8.5 -33.7,15.5 -34.2,15.5 -0.4,0 -1,-0.8 -1.2,-1.7 -5.2,-19.2 -10.2,-36.9 -10.7,-37.5 -0.3,-0.3 -8.9,10.6 -19,24.4 l -18.3,24.9 -5.2,-7.4 c -2.8,-4 -6.7,-9.7 -8.6,-12.5 -3.9,-5.7 -5,-5.6 -6.9,0.8 -0.7,2.2 -1.5,3.9 -1.9,3.6 -0.4,-0.2 -21.6,-9 -47.2,-19.5 l -46.3,-19.1 -8.4,3.6 c -17.5,7.5 -16.1,7.4 -113.9,7.4 -85.5,0 -87.2,0 -95.5,-2.1 -9.7,-2.5 -16.6,-5.4 -25,-10.5 l -5.9,-3.5 -6.9,4.6 c -31.6,21 -76.1,26.6 -117.1,14.8 -4.7,-1.3 -13.3,-4.4 -19.2,-6.7 l -10.8,-4.4 -5.9,2.4 c -11,4.5 -22.7,6.7 -35.1,6.8 -9,0 -18.1,-1 -42.5,-4.8 -17,-2.7 -31.6,-5.3 -32.2,-5.9 -1,-0.7 -1.3,-12.8 -1.3,-54.4 v -53.5 l -13.6,17.8 c -41.6,54.4 -64,76.7 -89.9,89.3 -19.9,9.7 -34.5,13 -60.5,13.8 -15.8,0.5 -20.2,0.2 -30.5,-1.5 -18.7,-3.3 -37.9,-10.4 -54.2,-20.2 l -5.3,-3.2 v 11.1 11.1 h -79.5 -79.5 l -0.6,2.8 c -0.3,1.5 -0.9,4.1 -1.3,5.7 l -0.7,3 -18.5,0.8 c -10.1,0.4 -26,0.6 -35.4,0.4 -14.8,-0.4 -18.1,-0.8 -25.8,-3.1 -18.1,-5.4 -35.6,-16.4 -49.5,-31 -4,-4.2 -7.4,-7.6 -7.7,-7.6 -0.3,0 -29.6,13.6 -65.2,30.1 -35.7,16.6 -65.6,30.3 -66.5,30.6 -1.3,0.4 -1.9,-0.5 -2.8,-3.6 -0.6,-2.3 -1.5,-4.1 -2,-4.1 -0.5,0 -1.6,-2.1 -2.3,-4.7 -0.8,-2.7 -1.8,-4.6 -2.2,-4.3 -0.5,0.3 -1.3,-1.1 -1.7,-3 -0.5,-1.9 -1.5,-4 -2.3,-4.6 -0.7,-0.5 -1.7,-2.5 -2.2,-4.4 -0.5,-1.8 -1.4,-3.5 -1.9,-3.7 -0.6,-0.2 -7.8,8.7 -16,19.9 -8.2,11.1 -15.4,20.8 -15.9,21.6 -0.8,1 -3,-1.5 -9.4,-11 z m 120,-558.3 9.6,-37 -5.6,-1.9 c -4.2,-1.5 -7.1,-3.4 -11.6,-8 -10,-10.1 -9.9,-9.4 -9.6,-63.8 l 0.3,-45.8 h -40.2 -40.1 l 0.3,60.8 c 0.4,58.7 0.4,61 2.5,68.4 4.9,17.5 10.2,27.3 21.1,38.9 15.6,16.7 36.3,26.1 56.2,25.6 l 7.5,-0.2 z m 1966.9,34.3 c 0,-1.3 1.3,-19.4 2.9,-40.3 3.1,-39.9 3.1,-39.5 -1.5,-39.5 -4,0 -19.4,-5 -26.3,-8.5 -9.3,-4.6 -20.8,-14 -27.4,-22.2 -3,-3.7 -10.7,-15.1 -17.1,-25.2 l -11.5,-18.3 16.8,-8.3 c 9.3,-4.6 20,-10.4 23.8,-12.9 8.7,-5.7 16.3,-12.3 16.3,-14.2 0,-1.2 -17.2,-1.4 -120,-1.4 h -120 v 15.3 15.2 l -14.2,8.9 c -7.9,5 -14.4,9 -14.6,9.1 -0.1,0.1 6.3,14.2 14.3,31.3 l 14.5,31 v 35.8 35.7 l 36.7,-0.7 c 20.2,-0.4 37,-0.9 37.5,-1.2 0.4,-0.3 0.8,-21.5 0.8,-47.2 v -46.7 l 19.8,-9.3 c 10.8,-5 20.2,-9.2 20.9,-9.2 0.6,0 3.2,4 5.7,8.8 18.8,37.1 37.9,64.7 58.2,84.2 17.3,16.7 27.3,21.8 51.2,26.5 9.2,1.8 19,3.7 21.7,4.3 2.8,0.5 6.5,1 8.3,1.1 2.7,0.1 3.2,-0.3 3.2,-2.1 z M 428.7,1135.3 c 18.8,-6.5 34.3,-12.2 34.2,-12.8 0,-0.5 -13.8,-37.9 -30.7,-83 l -30.7,-82 -39.8,-0.3 c -33.3,-0.2 -39.8,0 -39.5,1.1 1.2,5.4 70.5,188.7 71.2,188.7 0.6,0 16.4,-5.3 35.3,-11.7 z m 761.1,0 c 30.9,-10.6 34.3,-12 33.9,-13.8 -0.6,-3.2 -59.9,-161.9 -61,-163.2 -0.7,-1 -9.9,-1.3 -39.8,-1.3 -21.3,0 -39,0.3 -39.2,0.8 -0.2,0.4 15.5,43 34.9,94.7 19.4,51.7 35.3,94.1 35.3,94.3 0.2,0.6 4,-0.6 35.9,-11.5 z m 1850.9,0.1 c 18.6,-6.3 34.1,-11.8 34.4,-12.2 0.4,-0.4 -13.2,-37.8 -30.1,-83.2 l -30.9,-82.5 -39.5,-0.3 c -29.1,-0.2 -39.6,0.1 -39.6,0.9 0,2.1 70.3,188.9 71.1,188.9 0.4,0 16,-5.2 34.6,-11.6 z m -719.2,7.3 c 35.4,-8 56.3,-26.2 64.7,-56.4 2.2,-7.6 2.2,-9.7 2.6,-68.6 l 0.3,-60.7 -136.3,0.2 -136.3,0.3 -0.3,12.8 -0.3,12.7 h 11.1 11 v 32 c 0,33.4 -0.6,39.5 -4.3,46.3 -2.5,4.5 -9,8.7 -13.5,8.7 h -3.2 v 33.9 33.8 l 7,0.6 c 3.8,0.3 11,0.2 16,-0.4 33.8,-3.4 56.2,-25.1 67.5,-64.9 5,-17.6 5.5,-23 5.5,-58.4 v -33.3 l 31.7,-0.6 c 17.4,-0.4 39.9,-0.7 50,-0.7 h 18.3 v 23.3 c 0,42.5 -3.6,62.9 -11.9,68.4 -1.8,1.2 -5.4,1.8 -11.8,2.1 -11.1,0.5 -22.6,-1.3 -43.2,-7 -7.9,-2.1 -14.4,-3.8 -14.6,-3.6 -0.1,0.2 -6.1,15.1 -13.3,33.1 l -13.1,32.9 5.5,2.4 c 11.5,5.1 34.6,11.1 52.9,13.8 1.7,0.2 12.9,0.3 25,0.1 19.1,-0.3 23.5,-0.7 33,-2.8 z M 197,1142.3 c 1.2,-2.7 23.9,-56.5 32,-75.8 2.1,-4.9 9.9,-23.6 17.5,-41.5 7.6,-17.9 14.9,-35.2 16.2,-38.5 1.4,-3.3 4.5,-10.6 6.9,-16.3 2.4,-5.7 4.4,-10.9 4.4,-11.8 0,-1.2 -5.4,-1.4 -40.1,-1.2 l -40.1,0.3 -3.3,8 c -1.8,4.4 -6.2,15 -9.8,23.5 -3.6,8.5 -10.1,24.1 -14.5,34.5 -4.4,10.5 -13.2,31.6 -19.7,47 -6.5,15.4 -14.1,33.7 -17,40.6 l -5.3,12.5 34.7,10.7 c 19,5.8 35.1,10.6 35.7,10.6 0.6,0.1 1.7,-1.1 2.4,-2.6 z M 965.3,1126 c 4.3,-10.2 9.3,-22.1 11.1,-26.5 1.8,-4.4 9.5,-22.6 17.1,-40.5 7.5,-17.9 15.4,-36.5 17.5,-41.5 2.1,-4.9 8.5,-20.3 14.4,-34.2 5.8,-13.9 10.6,-25.5 10.6,-25.8 0,-0.3 -17.9,-0.5 -39.9,-0.5 -30.7,0 -40.1,0.3 -40.8,1.3 -0.5,0.6 -3.6,7.5 -6.8,15.2 -3.2,7.7 -9,21.4 -12.8,30.5 -13.3,31.7 -20,47.6 -25.2,60 -2.8,6.9 -9.6,23.1 -15,35.9 -7.6,18.1 -9.5,23.6 -8.4,24 7.4,2.7 67.7,20.9 68.9,20.8 0.8,-0.1 4.5,-7.6 9.3,-18.7 z m 1855,-8.7 c 6.4,-15.3 19.8,-47.1 29.8,-70.8 10,-23.6 19.8,-47 21.9,-52 2.1,-4.9 6.5,-15.4 9.8,-23.3 l 6,-14.2 -40.6,0.2 -40.7,0.3 -5.6,13.5 c -3.1,7.4 -8.7,20.6 -12.3,29.3 -3.6,8.6 -9.5,22.6 -13,31 -3.5,8.3 -10.6,25.1 -15.6,37.2 -19,45.1 -23,54.8 -22.7,55.1 0.5,0.5 68.3,21.2 69.7,21.3 1.1,0.1 4.9,-7.9 13.3,-27.6 z M 352,1065.9 c 0,-0.3 -9.1,-10.6 -20.2,-22.9 l -20.3,-22.2 -37.2,37.8 c -20.5,20.8 -37.3,38.2 -37.3,38.6 0,0.4 9.1,10.5 20.1,22.4 l 20.2,21.6 37.3,-37.3 c 20.6,-20.6 37.4,-37.7 37.4,-38 z m 761,-0.2 c 0,-0.5 -9,-10.6 -20,-22.7 l -19.9,-21.8 -37.3,37.5 c -20.5,20.6 -37.3,37.8 -37.3,38.3 0,0.6 9,10.7 19.9,22.5 l 20,21.6 37.3,-37.3 c 20.5,-20.5 37.3,-37.7 37.3,-38.1 z m 720.9,72.9 c 24.8,-4.6 38.3,-10.7 59.7,-26.7 10,-7.5 31.2,-25.9 38.7,-33.6 l 4.8,-4.9 -23.3,-29.2 c -12.8,-16 -23.6,-29.1 -23.9,-29.1 -0.3,-0.1 -3.5,3.6 -7.1,8.2 -14.9,18.7 -31.2,30.9 -49.3,36.7 -5.9,1.9 -9.9,2.4 -24.7,2.8 -32.8,0.8 -46.7,-4.3 -66.8,-24.7 -9.8,-9.8 -19.4,-23 -24.7,-33.6 -6.6,-13.2 -11.3,-30.6 -11.3,-42.1 V 957 h -35.5 -35.4 l -0.7,3.7 c -1,5.3 1.3,33 3.6,44.5 4.4,21.3 14,44 26.5,62.3 31.3,46.2 61.6,65.2 116,72.9 7.1,1 45.3,-0.3 53.4,-1.8 z m 1093.8,-35.6 37.1,-37.5 -20.2,-22.2 -20.1,-22.2 -37.8,37.7 c -20.7,20.7 -37.6,38 -37.5,38.3 0.6,1.4 40.3,43.9 40.9,43.6 0.3,-0.1 17.3,-17.1 37.6,-37.7 z m 620.8,34.1 c 33.9,-3.3 48.3,-7.6 67.7,-20.4 28.4,-18.7 56.4,-54.6 69.8,-89.2 6.5,-16.9 12,-45.9 12,-63.1 V 957 l -40.7,0.2 -40.8,0.3 -0.7,12.5 c -0.9,15.5 -3.2,30.2 -5.8,37.7 -8.3,23.7 -33.9,46.1 -62,54.4 -5.9,1.7 -11,2.2 -24.2,2.6 -9.2,0.3 -17.9,0.2 -19.3,-0.1 L 3502,1064 V 1010.5 957 l -38.2,0.2 -38.3,0.3 v 45 45 l 14,7.1 13.9,7.2 -23.6,0.4 c -13,0.2 -24,0.6 -24.3,1 -0.3,0.3 -0.9,17.2 -1.2,37.6 l -0.6,37.1 5.4,0.4 c 10.7,0.9 128.6,-0.2 139.4,-1.2 z m -2864.4,-0.6 c 18.3,-3.2 31.3,-9 41.5,-18.8 12.3,-11.6 16.7,-23.3 19.5,-51.8 1.8,-18.7 -1.3,-36.2 -8.1,-45.9 -1.4,-1.9 -16.2,-16.9 -32.9,-33.3 L 673.8,957 h -55.9 l -55.9,0.1 26.7,26.1 c 14.8,14.5 34.2,33.4 43.2,42.3 19,18.6 22.1,22.4 22.1,27.2 0,6.3 -1.6,6.5 -45.3,5.8 -21,-0.4 -39.7,-1.1 -41.4,-1.7 -6.6,-1.9 -12.4,-11.6 -13.9,-22.9 l -0.6,-4.7 -36.2,12.3 -36.1,12.3 0.3,3.4 c 0.5,5.9 9.1,30 14.7,41.3 9.1,18.1 19.1,28.7 34,36 l 7,3.5 h 69.6 c 56.8,0 71.2,-0.3 78,-1.5 z m 178.9,-89 V 957 h -40 -40 v 90.5 90.5 h 40 40 z m 735.7,-0.3 0.2,-90.2 -40.2,0.2 -40.2,0.3 -0.3,89 c -0.1,49 0,89.6 0.3,90.3 0.3,1 8.9,1.2 40.2,1 l 39.8,-0.3 z m 2329.4,89.3 c 17.7,-3.1 31.6,-9.4 41.8,-19 11.8,-11.2 16.3,-23.3 19.1,-51.3 1.7,-17.1 -0.8,-33.9 -6.7,-43.9 -1.3,-2.3 -16.4,-18 -33.5,-34.8 l -31,-30.5 h -56 l -55.9,0.1 27.8,27.1 c 15.3,15 34.7,34 43.2,42.3 17.9,17.6 21.1,21.5 21.1,26.2 0,3 -0.5,3.6 -3.6,4.9 -3.1,1.3 -9,1.4 -43.4,0.7 l -39.8,-0.8 -3.8,-3.1 c -4.8,-3.8 -8.3,-10.7 -9.7,-18.9 l -1.1,-6.3 -35.5,12.1 c -19.6,6.6 -36,12.4 -36.5,12.8 -1.1,0.9 4.4,20.1 9,31.6 10.3,25.7 21.6,39.6 39.3,48.5 l 7.6,3.8 h 69.6 c 56.7,0 71.2,-0.3 78,-1.5 z m -1242.3,-1.1 c 16.4,-3.3 27.6,-11.3 32,-22.9 2.2,-5.6 2.2,-6.2 2.2,-80.6 V 957 l -39.2,0.2 -39.3,0.3 -0.3,50.8 -0.2,50.7 h -73.5 -73.5 v -51 -51 h -39 -39 v 71.8 c 0,76.8 -0.1,74.7 5.1,85.7 2.9,6.2 10.9,14.4 16.9,17.3 10.9,5.2 7,5.1 127.8,5.1 97.9,0.1 113.3,-0.1 120,-1.5 z"
       id="path6" />
  </g>
  <g
     fill="#ffffff"
     id="g18"
     transform="translate(-1,-0.43043191)">
    <path
       d="m 263.5,1261.3 c -6,-6.5 -11.1,-11.9 -11.4,-12 -0.3,-0.2 -1.4,1.6 -2.3,3.8 -1.3,3.1 -2.1,3.9 -3.5,3.5 -1,-0.3 -49.7,-15.2 -108.3,-33 C 79.4,1205.7 25.2,1189.1 17.5,1186.6 9.8,1184 2.9,1182 2.2,1182 c -0.8,0 -1.2,-0.6 -0.9,-1.2 0.3,-0.7 19,-45.4 41.7,-99.3 22.6,-53.9 41.3,-98.8 41.5,-99.7 0.2,-0.9 1.3,-3.8 2.4,-6.4 1.2,-2.6 2.1,-4.8 2.1,-5 0,-0.2 -7.9,-0.4 -17.5,-0.4 H 54 v -2.3 c 0,-1.2 4.3,-59 9.5,-128.2 5.2,-69.3 9.5,-126.8 9.5,-127.7 0,-1.7 3.7,-1.8 61.7,-2 l 61.7,-0.3 15.5,-37.2 c 8.6,-20.5 16,-37.3 16.4,-37.3 0.4,0 41.4,15.4 91,34.1 49.6,18.8 90.9,34.4 91.8,34.6 1.3,0.4 1.9,-1.2 3.4,-8.6 l 1.7,-9.1 105.7,-0.2 c 58.1,-0.2 122.5,-0.3 143.1,-0.3 h 37.5 l 12,3.7 c 6.6,2 16.4,5.5 21.7,7.8 l 9.7,4.1 103.5,-15.7 c 57,-8.6 103.8,-15.5 104.1,-15.2 0.3,0.3 0.8,9.1 1.2,19.7 0.4,12.8 1,19.1 1.7,19.1 1.3,-0.1 4.2,-6.5 20.3,-45 6.3,-15.1 11.8,-27.9 12.3,-28.4 0.4,-0.4 8.2,2 17.2,5.4 8.9,3.4 17,6.3 17.8,6.5 0.8,0.2 11.9,4.2 24.5,9 12.7,4.8 32.9,12.4 45,17 12.1,4.6 32.3,12.2 44.9,16.9 12.6,4.8 23.1,8.4 23.4,8.1 0.3,-0.3 0.8,-3.2 1,-6.5 l 0.4,-6 211.2,-0.2 211.1,-0.3 49.5,-7.8 c 27.2,-4.2 50.7,-8 52.2,-8.3 l 2.7,-0.5 0.3,8.8 0.3,8.8 94,0.5 94,0.5 9.5,2.7 c 56.3,15.9 94.7,47.4 118.6,97.3 6.5,13.5 11.3,27.3 14.9,42.8 1.5,6.4 3,11.6 3.2,11.4 0.2,-0.2 0.8,-4.9 1.3,-10.3 0.5,-5.4 4.9,-40.4 9.7,-77.7 l 8.8,-67.8 132,0.4 c 129.4,0.3 132.3,0.3 145,2.4 21.6,3.6 38.5,8.2 52.1,14.4 3.6,1.6 7.3,2.9 8.3,2.9 1.3,0 68.1,-13.6 75.7,-15.5 1.1,-0.2 2.6,-1.6 3.2,-3 1.1,-2.5 1.3,-2.5 12.5,-2.5 10.4,0 15,-0.8 59.8,-10 26.6,-5.6 49.2,-10.3 50.2,-10.6 1.5,-0.5 1.7,0.4 1.7,10 v 10.5 l 60.3,0.3 60.2,0.3 12.5,4.3 c 12.9,4.5 23.4,9.6 33.2,16.4 l 5.6,4 25.9,-0.4 25.8,-0.3 15.5,-37.2 c 8.6,-20.4 15.8,-37.4 16.1,-37.7 0.2,-0.3 7.7,2.2 16.4,5.5 8.8,3.3 27.7,10.5 42,15.9 38.2,14.4 68.8,26 97,36.7 29.8,11.3 33.5,12.6 33.9,12.2 0.2,-0.2 1.2,-4.4 2.2,-9.4 l 1.9,-9 313.5,-0.2 c 172.4,0 376.8,-0.3 454.2,-0.6 l 140.7,-0.5 11.6,2.9 c 39.9,10 70.6,31.1 91,62.7 11.8,18.4 21,44.5 27.2,77.2 1.5,8.3 1.8,15.8 1.8,59 v 49.4 l -8.5,1.9 c -4.7,1 -13.1,2.8 -18.6,4 l -10.2,2.2 8,9 c 9.8,11 14.5,17.7 20.4,29.4 17.7,35.1 20.6,78.2 9,130.3 -5.6,24.5 -17.9,46.9 -36.4,66 -12.9,13.3 -23.7,21.2 -41.2,30.2 -21,10.7 -37.3,15.7 -63.3,19.1 -9.8,1.2 -25,1.5 -88,1.5 h -76.3 l -12.9,-4.4 c -27,-9 -44.7,-19.5 -63.4,-37.5 -4.1,-3.9 -7.5,-7.1 -7.7,-7.1 -0.2,0 -4.6,3.1 -9.9,7 -17.7,12.8 -35.9,22.1 -56.3,28.9 -28.2,9.4 -55.5,12.5 -121.7,13.8 -20.6,0.3 -34.3,1 -34.6,1.6 -0.4,0.5 -1,6.8 -1.4,13.8 -0.6,11.2 -1,12.9 -2.4,12.9 -4.1,0 -147.5,-27.2 -155.6,-29.5 -4.9,-1.4 -12.5,-4.1 -16.7,-5.9 l -7.8,-3.4 v 4.3 4.3 l -28.2,0.6 c -15.6,0.3 -68.2,0.8 -116.9,1.1 l -88.7,0.6 -46.3,15.9 c -25.5,8.8 -46.6,15.7 -47,15.2 -0.4,-0.4 -3.7,-8.8 -7.4,-18.7 -3.7,-9.9 -6.9,-18.2 -7.1,-18.5 -0.3,-0.2 -11.4,10.5 -24.8,23.9 l -24.3,24.3 -11.4,-12.2 -11.3,-12.2 -2,4.1 c -1.3,2.8 -2.5,4 -3.5,3.7 -0.9,-0.3 -30.1,-9.1 -64.8,-19.7 l -63.3,-19.2 -10.2,3.1 c -26.8,8.3 -28.1,8.4 -162.3,8 -114.2,-0.4 -115.1,-0.4 -124.6,-2.6 -13.4,-3.1 -22.1,-5.8 -31.2,-10 l -7.7,-3.5 -10.8,5.1 c -26.2,12.4 -55.3,18.8 -90.8,19.9 -33.3,1 -64.1,-3.4 -96.3,-13.8 l -9.5,-3.1 -9,2.6 c -18.5,5.1 -25.7,6 -48.1,6 -18.8,0 -25.2,-0.5 -61,-4.7 -22,-2.6 -41,-5 -42.2,-5.2 l -2.3,-0.5 -0.2,-51 -0.3,-50.9 -19.2,18.4 c -69.9,66.8 -104.7,86.6 -167.3,95.1 -17.6,2.4 -56.9,2.5 -74,0.1 -22.7,-3.2 -44.8,-9 -63.8,-16.8 -5.3,-2.1 -9.7,-3.9 -9.9,-3.9 -0.2,0 -0.3,4.3 -0.3,9.5 v 9.5 h -108 -108 l -1.7,6 c -1.5,5.7 -1.8,6 -4.7,6 -1.7,0 -19.7,0.5 -40,1.1 -28.1,0.9 -39.6,0.9 -48.4,0 -34.6,-3.5 -64.3,-15.4 -91,-36.3 -3.7,-2.9 -7.1,-4.8 -8,-4.5 -1,0.2 -41.9,14.2 -91.1,31.1 -49.1,16.9 -89.4,30.6 -89.6,30.4 -0.1,-0.2 -3.3,-8.6 -7.1,-18.8 -3.7,-10.2 -6.9,-18.7 -7.1,-19 -0.2,-0.2 -11.3,10.6 -24.8,24 l -24.3,24.3 -7.4,-7.9 c -4.1,-4.3 -9.3,-9.9 -11.5,-12.4 l -4.2,-4.5 -1.6,4 c -1,2.2 -1.8,4.1 -2,4.3 -0.1,0.2 -21,-6 -46.4,-13.7 L 917,1229 l -114.3,0.2 c -62.8,0.1 -151,0.3 -196.1,0.5 l -81.8,0.4 -11.2,-3.7 c -6.1,-2 -15.7,-5.6 -21.3,-8.1 l -10.3,-4.5 -70.7,24.3 c -39,13.3 -71.3,24.4 -71.9,24.6 -0.9,0.3 -4.2,-7.8 -14.6,-35.6 -0.9,-2.4 -2.2,-1.2 -25.1,21.7 -13.3,13.3 -24.5,24.2 -24.8,24.2 -0.3,0 -5.4,-5.3 -11.4,-11.7 z m 39.2,-39.5 c 15,-15 27.4,-27 27.6,-26.8 0.3,0.3 4.2,10.5 8.7,22.7 4.6,12.2 8.6,22.6 9,23.2 0.4,0.7 23.6,-6.8 67.6,-21.9 36.8,-12.6 67.4,-23 68,-23 0.7,0 5.6,2.2 11,4.9 5.5,2.7 14.6,6.6 20.4,8.6 l 10.4,3.6 82.1,-0.4 c 77.7,-0.3 82.5,-0.4 91.3,-2.4 l 9.2,-2 v 2.4 2.3 h 106.9 106.8 l 37.4,11.4 c 20.6,6.3 38.2,11.6 39.2,11.8 1.5,0.2 2.6,-1.4 5.4,-8.4 1.9,-4.9 3.8,-8.8 4.2,-8.8 0.3,0 6.9,6.8 14.5,15.1 l 13.9,15.1 27.4,-27.4 c 19.8,-19.7 27.6,-26.9 28.2,-26 0.4,0.8 4.5,11.3 9.1,23.5 4.5,12.2 8.4,22.3 8.5,22.5 0.1,0.1 38.4,-12.9 85.1,-28.9 46.7,-16.1 86.3,-29.6 88.1,-30.2 3,-0.9 3.5,-0.7 9.4,4.7 19,17.1 44.2,29.6 72.2,35.8 9.8,2.2 11.9,2.3 51.1,2.1 23,-0.1 41.3,-0.6 41.8,-1.1 0.5,-0.5 1.5,-3.1 2.2,-5.8 l 1.2,-4.9 106.5,-0.5 106.4,-0.5 0.3,-15.2 0.3,-15.2 4.7,2.9 c 20.8,12.8 53.8,24 84.2,28.7 14.3,2.2 58.4,2.5 72.5,0.5 51,-7.2 82.3,-22.6 128.8,-63.3 11.3,-10 73.7,-69.9 73.7,-70.9 0,-0.4 -21.8,-27.9 -48.5,-61.1 l -48.5,-60.4 37,-0.3 37,-0.2 v -5.8 c 0,-14.6 -4.2,-86.7 -5.6,-96.1 -6.5,-44.9 -22.7,-79.5 -49.8,-106.7 -22,-21.9 -46.8,-35.6 -79.6,-43.9 l -9.9,-2.5 h -98 -98.1 v -6.8 c 0,-3.8 -0.2,-7.1 -0.5,-7.3 -0.2,-0.3 -23.1,2.9 -50.7,7.2 -29.8,4.5 -50.8,7.3 -51.4,6.8 -0.6,-0.5 -86.7,-0.8 -197,-0.7 l -195.9,0.3 -1,9.2 c -0.5,5 -1.3,9.4 -1.7,9.8 -0.3,0.4 -39.9,-14.2 -88,-32.3 -48,-18.2 -87.9,-33.2 -88.6,-33.4 -1.2,-0.3 -10.2,20.1 -26.5,59.9 L 968.5,726 H 953.3 938 V 707.5 689 h -2.3 c -1.3,0 -45.1,6.5 -97.4,14.4 l -95,14.5 -11.1,-4.9 c -6.1,-2.8 -15.9,-6.3 -21.9,-8 l -10.8,-3 -135,0.2 -134.9,0.3 -2.3,11.4 c -1.3,6.3 -2.5,11.6 -2.7,11.8 -0.2,0.3 -166.2,-62.1 -186.6,-70.1 -1.1,-0.4 -2.5,1.8 -5.4,9.2 -2.2,5.3 -8.8,21.2 -14.7,35.2 l -10.7,25.5 -59.6,0.3 L 88,726 v 2.3 c 0,1.2 -3.8,52.2 -8.4,113.2 -4.6,61.1 -8.2,111.2 -7.9,111.5 0.2,0.3 9.9,0.7 21.3,1 l 20.9,0.5 -10.5,25 c -10.5,24.8 -18.3,43.3 -28.4,67.5 -2.9,6.9 -7.6,18.1 -10.5,25 -2.9,6.9 -10.6,25.1 -17,40.5 -6.5,15.4 -14.6,34.7 -18.1,43 -3.5,8.2 -6,15.3 -5.6,15.6 0.4,0.3 48.3,15.1 106.5,32.8 58.2,17.7 106.4,32.4 107.1,32.7 0.8,0.3 2.5,-2.6 4.8,-8.3 2,-4.8 4,-8.8 4.4,-8.9 0.5,-0.1 7,6.5 14.4,14.6 7.4,8.2 13.7,14.9 14,14.9 0.3,0.1 12.7,-12.1 27.7,-27.1 z m 2613,0 27.2,-27.2 1.1,3 c 0.7,1.6 4.5,11.9 8.7,22.9 4.1,11 7.8,20.3 8.1,20.7 0.4,0.4 18.3,-5.4 39.7,-12.9 l 39,-13.6 110.5,-1 c 60.8,-0.5 110.6,-1 110.7,-1.1 0.2,-0.1 0.6,-4.8 0.9,-10.4 0.4,-5.6 0.8,-10.2 1,-10.2 0.2,0 3.4,2 7.1,4.4 16.1,10.4 32.9,16.8 55.3,21.1 7.4,1.4 37.1,7 66,12.4 51.7,9.6 52.5,9.7 53.2,7.7 0.4,-1.2 1,-6.9 1.3,-12.8 l 0.7,-10.8 h 33.1 c 51.9,0 88.6,-2.3 112,-7.1 32.2,-6.5 63,-22 89.2,-45 l 6,-5.2 4,4.9 c 19.8,24 39.6,37.8 68.5,47.8 l 10.4,3.7 82.1,-0.4 82,-0.3 12.1,-2.7 c 34.5,-7.6 57.3,-19.3 78,-40.1 22.8,-22.8 32.9,-44.5 38.3,-82.4 2.8,-19.9 3.4,-32.1 2.2,-45.7 -1.9,-20.1 -5.6,-34.6 -12.6,-49 -6.9,-14.2 -13.2,-22.3 -31.9,-40.6 l -17.9,-17.5 26.4,-5.3 c 14.5,-2.9 27.2,-5.4 28.2,-5.7 1.6,-0.5 1.7,-3.2 1.7,-37.9 0,-41.2 -0.8,-50.5 -6.1,-72.2 -6.1,-25.1 -14.1,-44.3 -24.4,-58.8 -16.7,-23.4 -41.9,-40.5 -73.2,-49.7 l -7.8,-2.2 -449.7,-0.1 c -247.4,-0.1 -449.8,0 -449.8,0.2 0,0.6 -4.1,19.7 -4.6,21.6 -0.3,1 -1.5,1.7 -3.1,1.7 -2,0 -97.3,-35.5 -187.4,-69.8 l -2.5,-1 -12.7,30.1 c -7,16.6 -13.6,32.6 -14.8,35.5 l -2.2,5.2 h -35 -35 l -6.7,-5 c -7.7,-5.7 -19.6,-11.8 -30.8,-15.8 l -7.7,-2.7 -67.7,-0.3 -67.8,-0.3 v -8.4 c 0,-6.8 -0.3,-8.5 -1.4,-8.5 -0.8,0 -19.9,3.8 -42.4,8.5 -27.2,5.7 -43.2,8.5 -47.5,8.5 -4.9,0 -6.8,0.4 -7.5,1.5 -0.6,1.1 -13.8,4.3 -46.5,11.1 l -45.7,9.4 -6.8,-3.4 c -9.2,-4.6 -24.7,-10 -36.3,-12.5 -23.6,-5.1 -24.4,-5.1 -154.4,-5.1 h -121.3 l -0.6,3.8 c -1.3,7.8 -27.6,217.1 -27.6,219.1 0,1.9 0.6,2.1 5.6,2.1 h 5.7 l -0.7,12.8 c -0.4,7 -0.4,69.2 0,138.2 l 0.7,125.6 37.6,4.2 c 48.7,5.4 48.6,5.4 62.9,4.2 14.2,-1.1 24.3,-3.1 36.5,-7 8.2,-2.6 9.1,-2.7 12.2,-1.4 6.8,2.8 31,9.4 43.3,11.8 18.3,3.5 30.4,4.7 50.2,4.7 38.2,0 68.9,-6.6 97,-20.8 l 12.5,-6.3 9,4.4 c 10.1,5.1 20.7,8.7 32.8,11.3 7.6,1.7 17.4,1.8 130.2,1.8 h 122 l 11.3,-2.3 c 6.3,-1.3 15.7,-3.8 21,-5.7 l 9.6,-3.5 59.6,18.1 c 32.7,10 59.9,18.2 60.4,18.3 0.5,0 2.5,-3.8 4.5,-8.6 2,-4.8 3.9,-8.8 4.3,-8.8 0.3,0 6.8,6.8 14.4,15 7.6,8.3 14.1,15 14.4,15 0.3,0 12.7,-12.2 27.7,-27.2 z M 2024.9,1000.3 2025,975 h -24.6 -24.6 l 1.9,2.5 c 1,1.3 11.7,14.7 23.8,29.8 l 22,27.3 0.7,-4.5 c 0.3,-2.6 0.7,-16 0.7,-29.8 z"
       id="path10" />
    <path
       d="m 377.2,1176.9 c -1.2,-3.2 -22.8,-60.9 -25.4,-67.8 l -2,-5.4 -36.7,36.7 -36.7,36.7 -22.8,-24.6 c -12.6,-13.5 -23,-24.4 -23.3,-24.1 -0.3,0.2 -4.9,10.9 -10.3,23.8 -8.2,19.3 -10.2,23.2 -11.7,23 -2.6,-0.5 -116.7,-35.4 -117.2,-35.8 -0.4,-0.4 3.8,-10.7 20.7,-50.9 13.4,-31.9 31.8,-75.7 42.4,-101 4.4,-10.4 10.9,-26 14.5,-34.5 14.9,-35.6 19.5,-46.6 20,-47.7 0.4,-1 -6.2,-1.3 -31,-1.3 -17.4,0 -31.8,-0.4 -32.1,-0.8 -0.5,-0.9 8.1,-120.7 9,-124.9 L 135,776 h 52.8 52.7 l 11.3,-27.3 c 6.2,-14.9 11.6,-27.7 12,-28.4 0.5,-0.8 17.2,5.1 55.2,19.4 30,11.3 54.6,20.7 54.8,20.8 0.1,0.1 -0.7,3.1 -1.8,6.6 -1.1,3.5 -2,7 -2,7.7 0,1 10,1.2 48.2,1 l 48.2,-0.3 1.8,-9.5 c 1,-5.2 2,-10.5 2.3,-11.7 L 471,752 h 111.4 111.4 l 8.8,3 c 13,4.4 22.7,10.3 32,19.5 9.4,9.3 14.3,17.4 19.4,32.2 l 3.5,10.1 -0.4,-24.9 c -0.2,-20.2 0,-25 1,-25.4 1.7,-0.6 125.6,-19.5 128.1,-19.5 1.7,0 1.8,3.1 1.9,64.3 l 0.1,64.2 3.4,-43.5 c 1.8,-23.9 3.6,-46.3 3.9,-49.7 l 0.7,-6.3 h 52.8 52.8 l 11.8,-28.5 c 9.4,-22.8 12.1,-28.4 13.4,-28 0.8,0.4 25.4,9.7 54.5,20.7 29.2,11 53.2,20.2 53.4,20.3 0.2,0.2 -0.6,3.5 -1.8,7.4 -1.1,3.8 -2.1,7.2 -2.1,7.5 0,0.3 20.2,0.6 44.9,0.6 h 44.9 l 0.6,-2.8 c 0.3,-1.5 0.8,-6.1 1.1,-10.2 0.4,-4.1 0.9,-8.3 1.1,-9.3 0.5,-1.6 8.1,-1.7 145.7,-1.5 l 145.2,0.3 -0.1,5.2 c -0.1,2.9 0,5.3 0.1,5.3 0.2,0 24,-3.6 53,-8 29,-4.4 53.5,-8 54.6,-8 1.8,0 1.9,1.1 2,30.8 0.1,21.7 0.4,29.6 1.1,27.1 0.5,-2 5.1,-14.4 10.1,-27.5 l 9.3,-23.9 h 111.9 112 l 9.5,3.2 c 31.3,10.6 53.4,29.4 67.5,57.3 10.7,21.2 15,42 17,81.8 l 0.6,12.2 h -60.5 -60.6 v -4.2 c 0,-2.4 -0.3,-8 -0.7,-12.5 l -0.6,-8.3 h -44.1 -44.2 l -5.6,14.3 c -7.3,18.5 -12.2,34 -14.3,45.2 -2.2,11.7 -1.6,27.1 1.5,37 6.1,19.2 21.2,40.2 36.5,50.4 9.6,6.4 16.8,8.1 34.7,8.1 20,0 28.1,-2.7 41.9,-13.9 8.8,-7 15.2,-14.5 29.9,-35.2 6.1,-8.5 11.3,-15.2 11.8,-15.1 0.4,0.2 19,23.2 41.4,51 l 40.8,50.7 -13.8,13.5 c -25.6,25.2 -49.4,44.9 -67.3,55.7 -24.2,14.6 -52.5,21.3 -89.8,21.3 -40.5,0 -77.7,-10.8 -106,-30.8 -24,-16.9 -49,-47.1 -64.1,-77.4 l -6,-11.9 -0.2,58.3 -0.3,58.3 h -65 -65 L 1493.2,1022.3 1493,882 h -37.9 -38 l -0.3,80.8 c -0.3,70.7 -0.2,81.1 1.2,84.2 1.5,3.5 1.6,3.5 15.7,7 7.8,1.9 14.4,3.8 14.8,4.1 0.3,0.4 -6.2,26.8 -14.4,58.8 -8.3,32 -15.1,58.4 -15.1,58.6 0,0.3 -7.9,0.5 -17.6,0.5 -13.8,0 -19.7,-0.4 -27.7,-2.1 -39,-7.9 -70.3,-37.4 -81.9,-76.9 -4.6,-16 -4.8,-19.8 -4.8,-120.1 v -94.7 l -35.2,-0.4 c -19.4,-0.2 -35.4,-0.4 -35.6,-0.3 -0.1,0.1 -0.9,5 -1.7,11 -0.8,5.9 -1.8,11.1 -2.1,11.6 -0.3,0.5 -10,0.9 -21.6,0.9 -19.6,0 -21,0.1 -20.3,1.8 4.8,12.4 86.4,231.6 86.2,231.8 -0.1,0.1 -26.1,9.1 -57.7,19.9 -31.6,10.9 -58,20 -58.6,20.2 -0.7,0.3 -6.5,-14 -14.9,-36.4 -7.5,-20.2 -14,-37.1 -14.4,-37.5 -0.4,-0.5 -16.8,15.7 -36.5,35.7 -19.7,20.1 -36.2,36.5 -36.6,36.3 -0.5,-0.2 -10.9,-11.1 -23.1,-24.3 -12.2,-13.2 -22.5,-24.1 -22.8,-24.3 -0.4,-0.1 -2.4,4.1 -4.6,9.4 -12.2,29.3 -16.2,37.9 -17.6,37.7 -0.8,-0.2 -19.1,-5.7 -40.8,-12.3 -21.7,-6.6 -39.8,-12 -40.3,-12 -0.4,0 -0.8,2.7 -0.8,6 v 6 h -65 -65 v -22.7 -22.8 l -2.7,4 c -11.2,16.8 -27.5,28.4 -49.3,35.3 -19.3,6.1 -21.2,6.2 -100.6,6.2 h -72.3 l -7.7,-3 c -9.7,-3.7 -19.6,-9.6 -26.1,-15.4 -2.8,-2.5 -5.7,-4.6 -6.4,-4.6 -1,0 -106.4,35.9 -113.1,38.5 -1.3,0.5 -2,0.1 -2.6,-1.6 z m 1031.9,-63.4 9.6,-37 -5.6,-1.9 c -4.2,-1.5 -7.1,-3.4 -11.6,-8 -10,-10.1 -9.9,-9.4 -9.6,-63.8 l 0.3,-45.8 h -40.2 -40.1 l 0.3,60.8 c 0.4,58.7 0.4,61 2.5,68.4 4.9,17.5 10.2,27.3 21.1,38.9 15.6,16.7 36.3,26.1 56.2,25.6 l 7.5,-0.2 z m -980.4,21.8 c 18.8,-6.5 34.3,-12.2 34.2,-12.8 0,-0.5 -13.8,-37.9 -30.7,-83 l -30.7,-82 -39.8,-0.3 c -33.3,-0.2 -39.8,0 -39.5,1.1 1.2,5.4 70.5,188.7 71.2,188.7 0.6,0 16.4,-5.3 35.3,-11.7 z m 761.1,0 c 30.9,-10.6 34.3,-12 33.9,-13.8 -0.6,-3.2 -59.9,-161.9 -61,-163.2 -0.7,-1 -9.9,-1.3 -39.8,-1.3 -21.3,0 -39,0.3 -39.2,0.8 -0.2,0.4 15.5,43 34.9,94.7 19.4,51.7 35.3,94.1 35.3,94.3 0.2,0.6 4,-0.6 35.9,-11.5 z m -992.8,7 c 1.2,-2.7 23.9,-56.5 32,-75.8 2.1,-4.9 9.9,-23.6 17.5,-41.5 7.6,-17.9 14.9,-35.2 16.2,-38.5 1.4,-3.3 4.5,-10.6 6.9,-16.3 2.4,-5.7 4.4,-10.9 4.4,-11.8 0,-1.2 -5.4,-1.4 -40.1,-1.2 l -40.1,0.3 -3.3,8 c -1.8,4.4 -6.2,15 -9.8,23.5 -3.6,8.5 -10.1,24.1 -14.5,34.5 -4.4,10.5 -13.2,31.6 -19.7,47 -6.5,15.4 -14.1,33.7 -17,40.6 l -5.3,12.5 34.7,10.7 c 19,5.8 35.1,10.6 35.7,10.6 0.6,0.1 1.7,-1.1 2.4,-2.6 z M 965.3,1126 c 4.3,-10.2 9.3,-22.1 11.1,-26.5 1.8,-4.4 9.5,-22.6 17.1,-40.5 7.5,-17.9 15.4,-36.5 17.5,-41.5 2.1,-4.9 8.5,-20.3 14.4,-34.2 5.8,-13.9 10.6,-25.5 10.6,-25.8 0,-0.3 -17.9,-0.5 -39.9,-0.5 -30.7,0 -40.1,0.3 -40.8,1.3 -0.5,0.6 -3.6,7.5 -6.8,15.2 -3.2,7.7 -9,21.4 -12.8,30.5 -13.3,31.7 -20,47.6 -25.2,60 -2.8,6.9 -9.6,23.1 -15,35.9 -7.6,18.1 -9.5,23.6 -8.4,24 7.4,2.7 67.7,20.9 68.9,20.8 0.8,-0.1 4.5,-7.6 9.3,-18.7 z M 352,1065.9 c 0,-0.3 -9.1,-10.6 -20.2,-22.9 l -20.3,-22.2 -37.2,37.8 c -20.5,20.8 -37.3,38.2 -37.3,38.6 0,0.4 9.1,10.5 20.1,22.4 l 20.2,21.6 37.3,-37.3 c 20.6,-20.6 37.4,-37.7 37.4,-38 z m 761,-0.2 c 0,-0.5 -9,-10.6 -20,-22.7 l -19.9,-21.8 -37.3,37.5 c -20.5,20.6 -37.3,37.8 -37.3,38.3 0,0.6 9,10.7 19.9,22.5 l 20,21.6 37.3,-37.3 c 20.5,-20.5 37.3,-37.7 37.3,-38.1 z m 720.9,72.9 c 24.8,-4.6 38.3,-10.7 59.7,-26.7 10,-7.5 31.2,-25.9 38.7,-33.6 l 4.8,-4.9 -23.3,-29.2 c -12.8,-16 -23.6,-29.1 -23.9,-29.1 -0.3,-0.1 -3.5,3.6 -7.1,8.2 -14.9,18.7 -31.2,30.9 -49.3,36.7 -5.9,1.9 -9.9,2.4 -24.7,2.8 -32.8,0.8 -46.7,-4.3 -66.8,-24.7 -9.8,-9.8 -19.4,-23 -24.7,-33.6 -6.6,-13.2 -11.3,-30.6 -11.3,-42.1 V 957 h -35.5 -35.4 l -0.7,3.7 c -1,5.3 1.3,33 3.6,44.5 4.4,21.3 14,44 26.5,62.3 31.3,46.2 61.6,65.2 116,72.9 7.1,1 45.3,-0.3 53.4,-1.8 z m -1149.8,-2.1 c 18.3,-3.2 31.3,-9 41.5,-18.8 12.3,-11.6 16.7,-23.3 19.5,-51.8 1.8,-18.7 -1.3,-36.2 -8.1,-45.9 -1.4,-1.9 -16.2,-16.9 -32.9,-33.3 L 673.8,957 h -55.9 l -55.9,0.1 26.7,26.1 c 14.8,14.5 34.2,33.4 43.2,42.3 19,18.6 22.1,22.4 22.1,27.2 0,6.3 -1.6,6.5 -45.3,5.8 -21,-0.4 -39.7,-1.1 -41.4,-1.7 -6.6,-1.9 -12.4,-11.6 -13.9,-22.9 l -0.6,-4.7 -36.2,12.3 -36.1,12.3 0.3,3.4 c 0.5,5.9 9.1,30 14.7,41.3 9.1,18.1 19.1,28.7 34,36 l 7,3.5 h 69.6 c 56.8,0 71.2,-0.3 78,-1.5 z m 178.9,-89 V 957 h -40 -40 v 90.5 90.5 h 40 40 z m 735.7,-0.3 0.2,-90.2 -40.2,0.2 -40.2,0.3 -0.3,89 c -0.1,49 0,89.6 0.3,90.3 0.3,1 8.9,1.2 40.2,1 l 39.8,-0.3 z M 903.2,1017 c 10.8,-25.8 17.6,-42.1 33.8,-80.5 6.7,-15.9 12.4,-29.8 12.7,-30.7 0.5,-1.7 -1.4,-1.8 -30.6,-1.8 H 888 v 74.3 l 0.1,74.2 3,-7 c 1.7,-3.8 7.1,-16.7 12.1,-28.5 z m -390.7,-0.5 c 29.2,-9.8 53.4,-18.1 53.8,-18.5 0.5,-0.4 -24.5,-25.5 -55.5,-55.8 -30.9,-30.3 -56.4,-54.9 -56.6,-54.7 -0.2,0.2 -0.9,4.1 -1.6,8.7 l -1.1,8.3 -21.4,0.3 c -19.7,0.2 -21.3,0.4 -20.8,2 0.2,0.9 10.9,29.6 23.6,63.7 12.7,34.1 23.4,62.6 23.6,63.4 0.3,0.7 1.1,1.1 1.8,0.9 0.6,-0.3 25.1,-8.5 54.2,-18.3 z m 78,3.5 c -7.6,-7.6 -14.1,-13.7 -14.3,-13.5 -0.6,0.6 1.9,24.9 2.6,25.7 0.4,0.4 6.1,0.9 12.7,1.1 6.6,0.1 12.2,0.4 12.5,0.5 0.3,0.1 -5.8,-6.1 -13.5,-13.8 z M 302.9,978.7 c -2.4,-6.4 -4.6,-11.3 -5,-10.9 -0.5,0.6 -14.6,34 -21.6,51.2 -1.2,2.8 1.9,0.1 14.7,-12.6 l 16.2,-16.1 z m 765.1,10.8 c 0,-1.1 -7.7,-21.5 -8.3,-22.2 -0.3,-0.2 -2.1,3.6 -4,8.4 -2,4.8 -7,16.8 -11.1,26.6 -4.2,9.8 -7.6,18.1 -7.6,18.5 0,0.4 7,-6.3 15.5,-14.8 8.5,-8.5 15.5,-15.9 15.5,-16.5 z m -310.2,-75.8 -0.3,-30.3 -50.7,10 c -28,5.5 -50.8,10.3 -50.8,10.7 0,0.3 22.2,22.3 49.3,48.7 27,26.5 49.9,49.2 50.7,50.4 1.4,2.1 1.5,-0.7 1.8,-28.4 0.1,-17 0.1,-44.4 0,-61.1 z M 644,885.5 V 879 h -7.2 l -7.3,0.1 7,6.4 c 3.9,3.6 7.1,6.5 7.3,6.5 0.1,0 0.2,-2.9 0.2,-6.5 z"
       id="path12" />
    <path
       d="m 1792.5,982.8 c -2.5,-2.9 -6.2,-8.6 -8.2,-12.5 -3.4,-6.9 -3.6,-7.7 -3,-14.5 0.3,-4 1.6,-10.7 2.9,-14.8 2.3,-7.1 2.5,-7.5 5.6,-7.8 3.2,-0.3 3.2,-0.3 3.2,4 0,2.4 0.3,8 0.7,12.6 l 0.6,8.2 h 21.3 c 11.8,0 21.4,0.2 21.4,0.5 0,1.4 -13.3,18.9 -18.2,23.8 l -5.6,5.7 h -8 -8 z"
       id="path14" />
    <path
       d="m 3360.5,1173.4 c -18.7,-3.5 -36.5,-7.1 -39.5,-8 -18.5,-5.3 -38.1,-19 -56.8,-39.8 -14.2,-15.7 -34.3,-44.3 -43.2,-61.6 -1.9,-3.6 -3.5,-6.6 -3.6,-6.8 -0.1,-0.1 -1.3,0.3 -2.8,0.9 l -2.6,1.2 v 51.7 51.7 l -42.2,0.6 c -23.2,0.4 -51.3,0.7 -62.5,0.7 H 3087 v -9.1 c 0,-8.3 -0.2,-9.1 -1.7,-8.4 -5.8,2.2 -94.6,32.5 -94.8,32.3 -0.1,-0.2 -6.4,-17.1 -14.1,-37.6 l -13.9,-37.2 -36.7,36.7 -36.6,36.6 -2.4,-2.6 c -14.2,-15.9 -43.3,-46.5 -43.8,-46.2 -0.3,0.2 -5.1,11 -10.5,24 -6.4,15.2 -10.3,23.4 -11.1,23.1 -0.7,-0.3 -22.9,-7.1 -49.3,-15.1 l -48.1,-14.7 -4.8,3 c -6.9,4.5 -15.4,8 -25.1,10.5 l -8.6,2.2 H 2567 c -133.2,0 -123.2,0.5 -140,-7.7 -10.2,-4.9 -21.8,-15.9 -26.6,-25.1 l -3.1,-5.9 -3.6,4.9 c -2,2.7 -6,7.1 -8.9,9.9 -24.4,23 -55.6,33.4 -99.8,33.5 -29.6,0 -55.6,-5.2 -86.2,-17.3 l -12.6,-5 -8.4,4.1 c -21.6,10.5 -43.2,12.8 -76.8,8.1 -3.6,-0.5 -7.1,-1 -7.7,-1 -1,0 -1.3,-12.2 -1.3,-57.5 V 1045 h 10.5 10.5 v -18.5 -18.5 h -11 -11 v -19.2 c 0,-10.6 0.3,-37.2 0.7,-59 l 0.6,-39.8 h 13.4 13.3 v -6 -6 h -16 -15.9 l 0.4,-2.7 c 0.3,-1.6 3.7,-28 7.5,-58.8 3.9,-30.8 7.3,-57.7 7.6,-59.8 l 0.6,-3.7 h 98.5 c 83.7,0 100.1,0.2 109.2,1.5 25.3,3.7 42.7,10.7 55,22.1 6.3,5.8 7.9,8.1 12.7,17.8 6.9,14.1 10.3,27.3 11.1,42.8 1,19.1 -2.3,32.9 -12.2,51.5 -2.5,4.7 -4.4,8.7 -4.3,8.8 0.2,0.2 2.6,1.4 5.4,2.8 2.8,1.4 6.5,3.7 8.2,5.1 1.6,1.5 3.3,2.6 3.6,2.6 0.3,0 0.6,-30.5 0.6,-67.8 v -67.8 l 61.8,-12.8 c 33.9,-7 62.7,-13 64,-13.3 1.9,-0.4 2.2,-0.1 2.2,2.6 v 3.1 h 88.1 88 l 7.2,3 c 20.1,8.3 32.8,28 39.1,60.3 l 2.2,11 1.2,-17.4 c 0.7,-9.6 1.5,-20.9 1.9,-25.1 l 0.6,-7.8 52.9,-0.2 52.9,-0.3 11.9,-28 c 8,-19.1 12.2,-27.9 13.1,-27.7 2.1,0.5 107.3,40.2 107.8,40.7 0.4,0.5 -1.9,9.8 -3.4,13.7 -0.7,1.7 2.3,1.8 49.6,2 l 50.4,0.3 2.6,-12 2.5,-12 124.8,-0.3 c 139.5,-0.2 132.3,-0.6 147.5,6.9 8.7,4.3 19.6,13.8 23.6,20.7 1.1,1.7 2.2,3.2 2.5,3.2 0.4,0 1.7,-6.7 2.9,-14.8 l 2.3,-14.9 273.1,-0.7 273.2,-0.7 6.3,2.1 c 19.5,6.4 33,15.8 42.7,29.5 6,8.5 8.8,14.4 12.9,27.5 6.4,20.5 7.7,28.5 8.3,50.6 0.5,19.1 0.4,20.2 -1.3,20.7 -1.1,0.3 -25.4,5.2 -54.1,10.8 -28.8,5.7 -52.3,10.6 -52.3,10.9 0,0.4 16.5,16.9 36.8,36.7 70.3,68.8 63.4,61.6 68.6,72.3 5.4,11.2 7.3,18 8.7,31.5 1.2,12.1 -0.1,29.2 -3.6,47.5 -6.4,32.3 -26.8,54.2 -60.5,64.8 -19.3,6.1 -21.2,6.2 -100.9,6.2 l -72.6,-0.1 -7.3,-2.8 c -10.9,-4.3 -20.5,-10.5 -28.9,-18.4 -12.9,-12.2 -21.2,-25.2 -29.7,-46.5 -4.2,-10.4 -10.6,-30.9 -10.6,-33.8 0,-2.7 -1.5,-1.3 -4.4,3.9 -9,16.2 -28,40.4 -42.4,53.9 -20.3,19 -43.7,32.1 -67.4,37.8 -22.5,5.3 -61.4,7.3 -132.7,6.9 l -53,-0.4 -0.6,5 c -0.3,2.8 -0.6,6.4 -0.7,8 -0.2,2.2 -0.9,3 -2.3,3.2 -1.1,0.1 -17.3,-2.7 -36,-6.3 z m 15.5,-25.6 c 0,-1.3 1.3,-19.4 2.9,-40.3 3.1,-39.9 3.1,-39.5 -1.5,-39.5 -4,0 -19.4,-5 -26.3,-8.5 -9.3,-4.6 -20.8,-14 -27.4,-22.2 -3,-3.7 -10.7,-15.1 -17.1,-25.2 l -11.5,-18.3 16.8,-8.3 c 9.3,-4.6 20,-10.4 23.8,-12.9 8.7,-5.7 16.3,-12.3 16.3,-14.2 0,-1.2 -17.2,-1.4 -120,-1.4 h -120 v 15.3 15.2 l -14.2,8.9 c -7.9,5 -14.4,9 -14.6,9.1 -0.1,0.1 6.3,14.2 14.3,31.3 l 14.5,31 v 35.8 35.7 l 36.7,-0.7 c 20.2,-0.4 37,-0.9 37.5,-1.2 0.4,-0.3 0.8,-21.5 0.8,-47.2 v -46.7 l 19.8,-9.3 c 10.8,-5 20.2,-9.2 20.9,-9.2 0.6,0 3.2,4 5.7,8.8 18.8,37.1 37.9,64.7 58.2,84.2 17.3,16.7 27.3,21.8 51.2,26.5 9.2,1.8 19,3.7 21.7,4.3 2.8,0.5 6.5,1 8.3,1.1 2.7,0.1 3.2,-0.3 3.2,-2.1 z m -335.3,-12.4 c 18.6,-6.3 34.1,-11.8 34.4,-12.2 0.4,-0.4 -13.2,-37.8 -30.1,-83.2 l -30.9,-82.5 -39.5,-0.3 c -29.1,-0.2 -39.6,0.1 -39.6,0.9 0,2.1 70.3,188.9 71.1,188.9 0.4,0 16,-5.2 34.6,-11.6 z m -719.2,7.3 c 35.4,-8 56.3,-26.2 64.7,-56.4 2.2,-7.6 2.2,-9.7 2.6,-68.6 l 0.3,-60.7 -136.3,0.2 -136.3,0.3 -0.3,12.8 -0.3,12.7 h 11.1 11 v 32 c 0,33.4 -0.6,39.5 -4.3,46.3 -2.5,4.5 -9,8.7 -13.5,8.7 h -3.2 v 33.9 33.8 l 7,0.6 c 3.8,0.3 11,0.2 16,-0.4 33.8,-3.4 56.2,-25.1 67.5,-64.9 5,-17.6 5.5,-23 5.5,-58.4 v -33.3 l 31.7,-0.6 c 17.4,-0.4 39.9,-0.7 50,-0.7 h 18.3 v 23.3 c 0,42.5 -3.6,62.9 -11.9,68.4 -1.8,1.2 -5.4,1.8 -11.8,2.1 -11.1,0.5 -22.6,-1.3 -43.2,-7 -7.9,-2.1 -14.4,-3.8 -14.6,-3.6 -0.1,0.2 -6.1,15.1 -13.3,33.1 l -13.1,32.9 5.5,2.4 c 11.5,5.1 34.6,11.1 52.9,13.8 1.7,0.2 12.9,0.3 25,0.1 19.1,-0.3 23.5,-0.7 33,-2.8 z m 498.8,-25.4 c 6.4,-15.3 19.8,-47.1 29.8,-70.8 10,-23.6 19.8,-47 21.9,-52 2.1,-4.9 6.5,-15.4 9.8,-23.3 l 6,-14.2 -40.6,0.2 -40.7,0.3 -5.6,13.5 c -3.1,7.4 -8.7,20.6 -12.3,29.3 -3.6,8.6 -9.5,22.6 -13,31 -3.5,8.3 -10.6,25.1 -15.6,37.2 -19,45.1 -23,54.8 -22.7,55.1 0.5,0.5 68.3,21.2 69.7,21.3 1.1,0.1 4.9,-7.9 13.3,-27.6 z m 107.4,-14.3 37.1,-37.5 -20.2,-22.2 -20.1,-22.2 -37.8,37.7 c -20.7,20.7 -37.6,38 -37.5,38.3 0.6,1.4 40.3,43.9 40.9,43.6 0.3,-0.1 17.3,-17.1 37.6,-37.7 z m 620.8,34.1 c 33.9,-3.3 48.3,-7.6 67.7,-20.4 28.4,-18.7 56.4,-54.6 69.8,-89.2 6.5,-16.9 12,-45.9 12,-63.1 V 957 l -40.7,0.2 -40.8,0.3 -0.7,12.5 c -0.9,15.5 -3.2,30.2 -5.8,37.7 -8.3,23.7 -33.9,46.1 -62,54.4 -5.9,1.7 -11,2.2 -24.2,2.6 -9.2,0.3 -17.9,0.2 -19.3,-0.1 L 3502,1064 V 1010.5 957 l -38.2,0.2 -38.3,0.3 v 45 45 l 14,7.1 13.9,7.2 -23.6,0.4 c -13,0.2 -24,0.6 -24.3,1 -0.3,0.3 -0.9,17.2 -1.2,37.6 l -0.6,37.1 5.4,0.4 c 10.7,0.9 128.6,-0.2 139.4,-1.2 z m 379.6,-0.6 c 17.7,-3.1 31.6,-9.4 41.8,-19 11.8,-11.2 16.3,-23.3 19.1,-51.3 1.7,-17.1 -0.8,-33.9 -6.7,-43.9 -1.3,-2.3 -16.4,-18 -33.5,-34.8 l -31,-30.5 h -56 l -55.9,0.1 27.8,27.1 c 15.3,15 34.7,34 43.2,42.3 17.9,17.6 21.1,21.5 21.1,26.2 0,3 -0.5,3.6 -3.6,4.9 -3.1,1.3 -9,1.4 -43.4,0.7 l -39.8,-0.8 -3.8,-3.1 c -4.8,-3.8 -8.3,-10.7 -9.7,-18.9 l -1.1,-6.3 -35.5,12.1 c -19.6,6.6 -36,12.4 -36.5,12.8 -1.1,0.9 4.4,20.1 9,31.6 10.3,25.7 21.6,39.6 39.3,48.5 l 7.6,3.8 h 69.6 c 56.7,0 71.2,-0.3 78,-1.5 z m -1242.3,-1.1 c 16.4,-3.3 27.6,-11.3 32,-22.9 2.2,-5.6 2.2,-6.2 2.2,-80.6 V 957 l -39.2,0.2 -39.3,0.3 -0.3,50.8 -0.2,50.7 h -73.5 -73.5 v -51 -51 h -39 -39 v 71.8 c 0,76.8 -0.1,74.7 5.1,85.7 2.9,6.2 10.9,14.4 16.9,17.3 10.9,5.2 7,5.1 127.8,5.1 97.9,0.1 113.3,-0.1 120,-1.5 z m 396.3,-72.4 c -2.8,-5.8 -5.1,-10 -5.1,-9.5 0,0.6 2.1,6.8 4.7,13.8 4.1,10.9 4.8,12.4 5.1,9.5 0.2,-2.4 -1.1,-6.3 -4.7,-13.8 z m -795.9,-18.5 c 0.4,-2.2 1.1,-12 1.4,-21.7 l 0.7,-17.8 h -12.4 c -6.8,0 -18.1,0.3 -25.1,0.7 l -12.8,0.6 v 16.2 16.2 l 13.5,3.7 c 16.6,4.6 25.9,6.5 30.5,6.3 3.2,-0.2 3.5,-0.5 4.2,-4.2 z m 1093.8,-4 v -2.5 h 10 10 v -78 -78 h -3 -3 v 18.3 c 0,15.9 -0.3,19.5 -2.4,28.2 -8.8,36.1 -21.5,53.6 -51.3,70.5 l -9.1,5.2 3.5,5.7 c 11.1,17.3 21.6,26.1 37.3,31.2 7.3,2.4 8,2.3 8,-0.6 z m 160.2,-2.4 c 18.3,-4.7 36.4,-18.6 43.9,-33.6 5.9,-12 7.9,-34.1 7.9,-87.6 V 882 h -32.5 -32.5 v 79 79 h 2.8 c 1.6,0 6.3,-0.9 10.4,-1.9 z m -788.4,-14.6 c 2.7,-6.6 7.9,-19.1 11.6,-27.7 3.6,-8.7 9.6,-22.9 13.2,-31.5 3.6,-8.7 9.6,-22.8 13.1,-31.3 3.6,-8.5 7.8,-18.5 9.4,-22.2 l 2.8,-6.8 h -28.5 -28.4 v 67.3 c 0,39.3 0.4,66.6 0.9,65.7 0.5,-0.8 3.2,-6.9 5.9,-13.5 z M 2616,957 v -77 h -48.5 -48.5 v 77 77 h 48.5 48.5 z m 1218,62.5 c -7.4,-7.4 -13.6,-13.2 -13.8,-13 -0.3,0.2 0.1,6.3 0.8,13.5 l 1.2,13 h 12.7 12.6 z M 3810.3,998 c 0.4,-0.4 -18.9,-20 -43,-43.6 l -43.8,-42.9 -0.6,36 c -0.7,39.6 -1.7,48.3 -8.3,72.5 l -3.2,11.8 49,-16.6 c 27,-9.1 49.5,-16.8 49.9,-17.2 z m -894.6,-19.2 c -2.2,-5.9 -4.3,-10.8 -4.7,-10.8 -0.7,0 -23,52 -23,53.6 0,0.3 7.1,-6.7 15.8,-15.7 l 15.8,-16.3 z m 155.6,4.8 15.7,-9.8 V 927.9 882 h -10 c -7.3,0 -10,0.3 -10,1.3 0,1.4 -1.7,13.7 -2.5,18.4 l -0.6,3.3 -21.3,0.2 -21.2,0.3 16.5,44.3 c 9,24.3 16.8,44.1 17.1,44 0.4,-0.2 7.7,-4.7 16.3,-10.2 z m 165,-71.7 c 34.5,-13.6 32.7,-12.3 32.7,-22.6 V 882 h -28.5 -28.5 v 19.5 c 0,10.7 0.2,19.5 0.5,19.5 0.3,0 11,-4.1 23.8,-9.1 z M 3888,885.5 V 879 h -7.2 l -7.3,0.1 7,6.4 c 3.8,3.6 7,6.5 7.2,6.5 0.2,0 0.3,-2.9 0.3,-6.5 z m -1646,-7 c 0,-0.3 -0.9,-0.5 -2,-0.5 -1.1,0 -2,0.7 -2,1.5 0,1.3 0.4,1.4 2,0.5 1.1,-0.6 2,-1.3 2,-1.5 z"
       id="path16" />
  </g>
  <g
     fill="#ec1c24"
     id="g46"
     transform="translate(-1,-0.43043191)">
    <path
       d="m 234.4,957 -40.1,-0.5 16.2,-38.5 16.2,-38.5 -37.5,-0.3 -37.4,-0.2 0.6,-6.3 c 0.3,-3.4 1.5,-19 2.6,-34.7 1.1,-15.7 2.3,-30.4 2.6,-32.7 l 0.5,-4.3 49.6,-0.2 49.5,-0.3 10.2,-24.5 c 8.2,-19.5 10.6,-24.4 12,-24.2 1.8,0.3 62.8,23.2 63.5,23.9 0.3,0.2 -1.2,5.7 -3.2,12.2 -2,6.6 -3.7,12.2 -3.7,12.5 0,0.3 23.5,0.6 52.3,0.6 h 52.3 l -5.3,37.8 c -2.9,20.7 -5.3,38.5 -5.3,39.5 0,1.6 -2,1.7 -28.5,1.7 -15.7,0 -28.5,0.2 -28.5,0.5 0,0.3 6.3,17.5 14,38.1 7.7,20.6 14,37.7 14,38 0,0.2 -17.9,0.4 -39.8,0.4 h -39.7 l -10.9,-29 -10.9,-29.1 -12.3,29.2 c -6.8,16 -12.5,29.2 -12.6,29.3 -0.2,0 -18.3,-0.1 -40.4,-0.4 z"
       id="path20" />
    <path
       d="m 525.5,921.4 c -20.3,-19.9 -37,-36.6 -37,-37.3 0,-0.6 8.3,-7.6 18.3,-15.6 L 525.2,854 H 501 476.8 l 0.5,-2.7 c 0.3,-1.6 3.6,-18.9 7.3,-38.6 l 6.9,-35.7 101,0.2 101,0.3 8.8,4.3 c 10.8,5.3 18.7,12.7 23.9,22.7 6,11.5 12.8,39.1 12.8,51.9 v 5.1 l -34,6.8 c -18.7,3.7 -34.5,6.5 -35,6.2 -0.6,-0.3 -1,-1.8 -1,-3.3 0,-3.6 -4.1,-9.5 -8.3,-12.1 -7.5,-4.6 -12.6,-5.1 -53.6,-5.1 h -38.5 l 33.4,32.7 c 18.4,18 42.1,41.1 52.5,51.5 l 19,18.8 -55.5,0.2 -55.5,0.3 z"
       id="path22" />
    <path
       d="m 956.5,954.5 c 2,-4.9 30.6,-72.9 31.2,-74.2 0.4,-1 -7.3,-1.3 -36.5,-1.3 -20.4,0 -37.3,-0.3 -37.5,-0.7 -0.2,-0.5 0.9,-16.8 2.4,-36.3 1.5,-19.5 2.8,-36.7 2.8,-38.2 L 919,801 h 49.8 49.7 l 9.8,-23.8 c 5.4,-13.1 10.1,-24.3 10.5,-25 0.6,-0.8 9.2,2 31.2,10.3 16.8,6.3 31.5,11.9 32.6,12.4 l 2.2,1 -3.8,12.3 -3.8,12.3 52.5,0.3 52.5,0.2 -0.6,2.8 c -0.3,1.5 -2.6,17.8 -5.1,36.2 -2.5,18.4 -4.8,35 -5.1,36.8 l -0.6,3.2 h -28.5 c -26.8,0 -28.5,0.1 -27.8,1.8 1.1,2.6 25.6,68.2 27,72.2 l 1.2,3.5 h -39.8 -39.8 l -10.8,-28.7 c -5.9,-15.9 -11,-28.8 -11.3,-28.8 -0.3,0 -5.9,12.8 -12.4,28.5 l -12,28.5 -40.7,0.2 -40.7,0.3 z"
       id="path24" />
    <path
       d="M 2641,906.3 V 855 h -73.5 -73.5 v 51 51 h -39 -39 l 0.2,-82.2 0.3,-82.2 37.5,-7.7 c 20.6,-4.3 38.1,-7.9 38.7,-7.9 0.9,0 1.3,4.3 1.5,16.5 l 0.3,16.5 9.8,-16.5 9.7,-16.5 h 88.8 88.8 l 4.5,2.9 c 11.1,7 17.3,19.8 21.6,44.1 1.2,6.7 1.6,21.5 2,70.7 l 0.5,62.3 -39.6,0.2 -39.6,0.3 z"
       id="path26" />
    <path
       d="m 2923.3,928.2 -11,-29.3 -3.2,7.8 c -1.8,4.3 -7.4,17.4 -12.3,29.1 l -9,21.2 h -40.5 c -32,0 -40.4,-0.3 -40,-1.2 0.2,-0.7 7.5,-18 16.1,-38.5 8.6,-20.4 15.6,-37.4 15.6,-37.7 0,-0.3 -16.6,-0.6 -37,-0.6 -34.6,0 -37,-0.1 -37,-1.7 0,-1 1.2,-18.6 2.7,-39.1 l 2.7,-37.2 h 49.6 49.6 l 10.4,-25 c 5.8,-13.8 10.9,-24.9 11.5,-24.7 3.5,1.3 64.1,24.1 64.3,24.2 0.1,0.1 -1.5,5.9 -3.6,12.9 l -3.9,12.6 h 52.3 c 28.8,0 52.4,0.4 52.4,0.8 0,1.5 -10,73.6 -10.5,75.9 l -0.5,2.3 -28.3,0.2 -28.3,0.3 11.8,31.5 c 6.4,17.3 12.9,34.5 14.2,38.2 l 2.5,6.8 -39.8,0.2 -39.8,0.3 z"
       id="path28" />
    <path
       d="M 3149.3,957.2 3112,957 v -40.3 -40.3 l 17,-9.5 17,-9.4 -27.5,-0.3 c -25.7,-0.2 -27.6,-0.4 -27.1,-2 0.3,-0.9 3.9,-18.1 8.1,-38.2 4.2,-20.1 7.9,-37.3 8.1,-38.3 0.5,-1.7 6.3,-1.7 116.7,-1.5 l 116.2,0.3 6.6,3.1 c 9.9,4.7 16.4,12.1 20.9,23.4 1.9,4.9 2,6.6 1.2,60.8 l -0.9,55.7 -2.7,9 c -1.4,5 -4.8,13.2 -7.4,18.3 l -4.7,9.4 -80.9,-0.1 c -44.5,-0.1 -81.1,-0.2 -81.2,-0.4 -0.1,-0.1 16.3,-6.7 36.4,-14.6 20.2,-7.9 39.9,-15.8 43.9,-17.6 8.7,-4 16.3,-10.8 19.8,-17.8 2.5,-5 2.5,-5.5 2.5,-27.4 V 857 h -53.5 -53.5 l -0.2,50.3 -0.3,50.2 z"
       id="path30" />
    <path
       d="m 3789,940.5 c -28.6,-27.8 -57,-55.9 -57,-56.6 0,-0.3 8.2,-7.1 18.2,-15 l 18.3,-14.4 -23.8,-0.3 c -13,-0.1 -23.7,-0.6 -23.7,-1 0,-0.4 3.2,-17.7 7.2,-38.5 l 7.2,-37.7 h 99.3 99.2 l 6.4,2.3 c 13.5,4.9 23.4,13.1 29.4,24.2 6.1,11.5 13.3,40.2 13.3,52.9 v 5.1 l -34,6.8 c -18.7,3.7 -34.4,6.6 -34.9,6.3 -0.5,-0.3 -1.1,-2.4 -1.5,-4.6 -0.8,-5.2 -6.5,-11 -13.2,-13.6 -4.4,-1.7 -8.8,-1.9 -45.9,-2.2 l -41,-0.3 35,34.2 c 19.3,18.9 42.9,42.1 52.5,51.6 l 17.5,17.3 -55.5,0.2 -55.5,0.3 z"
       id="path32" />
    <path
       d="m 782.8,872.8 c -0.2,-46.4 -0.3,-84.5 -0.1,-84.7 0.3,-0.4 75.8,-12 78.6,-12.1 1.6,0 1.7,5 1.7,90.5 V 957 h -39.9 -39.9 z"
       id="path34" />
    <path
       d="m 1312,914.9 v -42 l 16.3,-7.9 16.2,-7.9 h -52.7 c -29,-0.1 -52.9,-0.4 -53.1,-0.8 -0.5,-0.9 7,-76.1 7.7,-78 0.4,-1 24.4,-1.3 120.6,-1.3 66,0 120,0.3 120,0.8 0,1.5 -9.1,74.8 -9.5,77 l -0.5,2.2 h -42.5 -42.5 v 50 50 h -40 -40 z"
       id="path36" />
    <path
       d="M 1518,872.5 V 788 l 2.3,-0.5 c 3.8,-0.8 75.1,-11.5 77,-11.5 1.6,0 1.7,5 1.7,90.5 V 957 h -40.5 -40.5 z"
       id="path38" />
    <path
       d="m 1635.4,945.9 c 1.5,-23.3 6.2,-47.8 11.3,-58.5 2.9,-6.2 2.2,-5.9 37.8,-21.5 l 16.9,-7.4 -30.7,-0.3 c -23.6,-0.2 -30.7,-0.5 -30.7,-1.5 0,-0.6 0.9,-6.1 1.9,-12.2 3.1,-18 8.1,-36 14.1,-51.5 l 5.7,-14.5 99.9,-0.3 c 99.1,-0.2 100,-0.2 106.9,1.9 27.7,8.3 47.2,26 58.2,52.9 4.8,11.7 7.9,25.7 9.7,44.3 l 0.6,5.7 h -35.4 -35.3 l -0.7,-4.8 c -1,-7.5 -5.3,-13.4 -12.3,-16.8 l -5.8,-2.9 -55.6,-0.3 -55.6,-0.3 -7.6,17.8 c -13.3,31.1 -20.9,56.2 -22.4,73.9 l -0.6,7.4 h -35.5 -35.5 z"
       id="path40" />
    <path
       d="m 2116.3,946.3 c 0.4,-5.8 0.7,-15.3 0.7,-21.1 v -10.5 l 13.5,0.5 13.5,0.5 V 884.4 853 h -14 c -12.7,0 -14,-0.2 -14,-1.7 0,-1 2,-17.7 4.5,-37.1 2.5,-19.4 4.5,-35.5 4.5,-35.8 0,-0.3 41.1,-0.3 91.3,-0.1 90.6,0.3 91.3,0.3 101.2,2.6 12.9,2.9 23.5,7.4 29.9,12.5 9.3,7.6 16.2,25.6 17.3,45.1 0.3,5.5 0,12.6 -0.6,15.7 -2.8,15.1 -13.7,34.2 -30.2,53 -3.3,3.6 -5.9,6.8 -5.9,7.1 0,0.2 4.6,0.7 10.3,1 22.7,1.4 38,9.4 45.3,23.9 2.5,4.9 5.4,13.7 5.4,16.6 0,0.9 -28,1.2 -136.7,1.2 h -136.6 z m 114.5,-37.9 c 15.1,-3.3 17.4,-4.1 23.6,-8.1 16.5,-10.7 25.6,-25.6 25.6,-42 V 853 h -33.5 -33.5 v 29.5 c 0,16.2 0.2,29.5 0.5,29.5 0.4,0 8.1,-1.6 17.3,-3.6 z"
       id="path42" />
    <path
       d="m 3425,907 v -50 h -12.5 c -9.4,0 -12.5,-0.3 -12.4,-1.2 0,-0.7 2.8,-18.4 6.2,-39.3 l 6.2,-38 142.8,-0.3 142.7,-0.2 v 89.5 89.5 h -40.5 -40.5 v -43.9 c 0,-24.1 -0.3,-46.6 -0.6,-50 l -0.7,-6.1 h -56.8 -56.9 v 50 50 h -38.5 -38.5 z"
       id="path44" />
  </g>
</svg>
