<?xml version="1.0" encoding="UTF-8" standalone="no"?>
<svg
   version="1.0"
   width="1692.3292"
   height="620.52069"
   viewBox="0 0 1692.3292 620.52069"
   preserveAspectRatio="xMidYMid meet"
   id="svg18"
   sodipodi:docname="auto-various.svg"
   inkscape:version="1.1.2 (0a00cf5339, 2022-02-04, custom)"
   xmlns:inkscape="http://www.inkscape.org/namespaces/inkscape"
   xmlns:sodipodi="http://sodipodi.sourceforge.net/DTD/sodipodi-0.dtd"
   xmlns="http://www.w3.org/2000/svg"
   xmlns:svg="http://www.w3.org/2000/svg">
  <defs
     id="defs22" />
  <sodipodi:namedview
     id="namedview20"
     pagecolor="#ffffff"
     bordercolor="#666666"
     borderopacity="1.0"
     inkscape:pageshadow="2"
     inkscape:pageopacity="0.0"
     inkscape:pagecheckerboard="0"
     showgrid="false"
     inkscape:zoom="0.59687326"
     inkscape:cx="863.66745"
     inkscape:cy="326.70253"
     inkscape:window-width="1920"
     inkscape:window-height="1017"
     inkscape:window-x="-8"
     inkscape:window-y="-8"
     inkscape:window-maximized="1"
     inkscape:current-layer="svg18" />
  <g
     fill="#fff5f5"
     id="g16"
     transform="translate(-32.40657,-33.392021)">
    <path
       d="m 1074.5,651.7 c -20.8,-7.6 -37.7,-25.3 -52.5,-55.2 -8.8,-17.8 -14.8,-34.9 -20.9,-59 -4.5,-18.1 -6.2,-26.9 -10,-52 -0.6,-3.8 -1.7,-11.3 -2.5,-16.5 -1.5,-9.8 -3.9,-34.4 -7.7,-78.5 -2.5,-29.6 -3.3,-182.2 -1,-208.5 4.2,-49.2 10.5,-80.9 20.4,-103.4 8.5,-19.3 25.7,-37.2 40.4,-41.9 22.1,-7.1 50.7,-2.5 69.1,11.2 13.2,9.8 21.4,20.2 34.4,43.8 1.6,2.9 2.6,5.8 2.2,6.4 -0.4,0.7 -0.3,0.9 0.3,0.6 1.3,-0.8 3.6,5 2.6,6.6 -0.3,0.5 -0.1,0.7 0.4,0.4 1.5,-0.9 7.5,15.4 11.1,30.3 5.7,23 6.3,26.2 5.8,26.8 -0.3,0.3 -0.2,1 0.3,1.6 0.5,0.6 1.1,3.1 1.4,5.6 0.3,2.5 2,12.6 3.7,22.4 1.7,9.9 2.8,18.6 2.5,19.3 -0.2,0.8 -0.1,3.3 0.4,5.6 0.6,2.3 1.2,9.8 1.6,16.7 0.3,6.9 0.7,15.2 1,18.5 0.2,3.3 0.7,13.7 1,23 0.3,9.4 0.8,20.8 1.1,25.5 0.7,12.2 0.6,107.1 -0.1,116 -0.3,4.1 -0.8,9.8 -1,12.5 -0.3,2.8 -0.7,8.2 -1.1,12 -0.3,3.9 -0.8,8.1 -1,9.5 -0.6,4 -2.3,26.2 -2.2,29.5 0.1,6.5 -1.3,23.4 -2.7,31.5 -1.5,9.1 -2.3,19.6 -3,41 -0.5,15.4 -1,19.2 -2.9,25.2 -0.8,2.4 -1.7,5.7 -2.1,7.3 -1.8,7.9 -11.7,27.3 -18.6,36.4 -11,14.6 -26,27.1 -36.8,30.9 -1.9,0.7 -8.6,1.2 -15.5,1.1 -9.8,0 -13.3,-0.5 -18.1,-2.2 z m 28.7,-46.1 c 6.3,-4.1 15.5,-20.2 18.8,-33.1 0.5,-1.6 1.5,-5.6 2.4,-8.9 2.9,-10.6 6.5,-29.9 7.6,-41.1 0.7,-6 1.5,-14.4 2,-18.5 5.7,-52.3 7,-77.1 7,-133.5 0,-58.5 -1.8,-95.9 -6,-127 -0.9,-7 -2,-16.5 -4,-35 -1,-9.1 -3,-22.1 -4.5,-29.2 -5.1,-24.4 -11.4,-45.3 -18.4,-61.6 -5.3,-12.4 -8.4,-17.8 -14.3,-24.9 -4.1,-4.9 -15.3,-13 -18.5,-13.4 -1,-0.1 -3.8,-0.5 -6.2,-0.8 -4.9,-0.7 -10,0.6 -14.8,3.8 -3.3,2.3 -10.3,11.8 -10.3,14.1 0,0.8 -0.4,1.6 -0.9,1.9 -0.4,0.3 -1.8,3.8 -3,7.8 -1.2,4 -2.7,8.4 -3.3,9.8 -0.7,1.4 -1.2,2.7 -1.3,3 0,0.3 -0.8,3.4 -1.8,7 -3.4,12.8 -5.8,23.6 -6.7,30 -0.6,3.6 -1.2,7.6 -1.4,9 -1,5 -4.8,45.8 -5.1,54 -0.2,4.7 -0.6,12.8 -1,18 -0.9,14.5 -1.7,46 -1.9,71.5 -0.2,33.5 3.2,76.5 9.4,119.5 1.1,7.4 2.4,17.3 3,22 2.2,19 3,24 7.6,47.5 4.4,23 7.3,34.5 13.2,52.5 2.6,8 4.6,15.1 4.6,15.8 -0.1,0.7 0,1.1 0.3,0.8 0.3,-0.3 3,4.3 5.9,10.2 9,18.1 18.3,28.2 28.2,30.7 5.1,1.3 9.5,0.7 13.4,-1.9 z"
       id="path2" />
    <path
       d="m 1600.8,648.9 c -2,-0.4 -5.1,-1 -7,-1.3 -6.4,-0.8 -15.4,-3.7 -21.8,-6.9 -12.5,-6.2 -17.1,-13.8 -15.1,-24.4 1.9,-9.5 5,-13.6 12.3,-15.7 5.9,-1.8 12.7,-1.1 22.8,2.5 23.9,8.5 26.1,9.1 31.5,7.8 6.3,-1.5 9.9,-3.3 15.2,-7.6 9.6,-7.7 18.5,-22.7 24.3,-40.8 1.8,-5.5 4.1,-12.7 5.2,-16 1,-3.3 3,-12.5 4.4,-20.5 2.7,-16 3.3,-37.6 1.4,-52.3 -1.7,-13.7 -4,-27 -5.6,-32.7 -0.8,-3 -1.9,-6.8 -2.4,-8.5 -0.4,-1.6 -1.7,-6.4 -2.9,-10.5 -2.3,-8.5 -10.2,-29.8 -15.6,-42 -1.9,-4.5 -3.2,-8.7 -2.9,-9.3 0.4,-0.7 0.3,-0.9 -0.1,-0.4 -1.1,1 -42.1,-81.6 -54.5,-109.8 -7.6,-17.4 -19,-56.4 -21.7,-74.3 -2.4,-16.3 -2.5,-51.1 -0.1,-63.7 1.7,-8.9 4.6,-18.9 7.4,-25.3 0.8,-1.7 2.1,-4.9 3,-7 5.5,-12.5 21.8,-32 34.1,-40.8 14,-10 34.6,-14.6 50.5,-11.3 8.1,1.7 19,7.3 25.3,13 6.5,6 11.5,12.9 11.5,15.8 0,1.9 -9.7,15 -13.3,18 -1.4,1.1 -3.1,1.1 -9.4,0.2 -12,-1.8 -12.8,-1.9 -18.3,-4.5 -4.9,-2.3 -5.4,-2.3 -9.4,-1 -10.5,3.6 -19.1,12.3 -26.8,27.1 -4.5,8.6 -6.5,14.6 -8.3,24.8 -4,22.2 1.3,60.5 13,94.5 3.8,11.2 3.9,11.4 7.9,20.3 1.4,3.2 2.6,6 2.6,6.3 0,0.2 13.9,28.5 30.9,62.7 17.1,34.2 32.3,65.8 34,70.2 5.5,14.5 11.6,34.7 14.1,47 10.7,51.9 10.3,91.4 -1.2,129 -7.3,24 -17.7,43.5 -30.7,57.7 -14.7,16 -30.5,25.1 -50.3,29.3 -7.9,1.6 -27.8,1.9 -34,0.4 z"
       id="path4" />
    <path
       d="m 1392,646.4 c -1.9,-0.2 -6.9,-0.9 -11.1,-1.4 -29.6,-4 -55.1,-27.9 -76.4,-71.5 -11.4,-23.2 -16.8,-39.1 -23.6,-69 -4.5,-19.6 -10.4,-55.2 -13,-77.5 -7,-61.6 -7.9,-85.6 -8.5,-221 -0.5,-94.9 -0.8,-114.8 -2,-116 -4.8,-5.5 -5.8,-16.6 -2,-24.5 2.4,-5.3 8.9,-11.9 13.4,-13.6 3.4,-1.3 14,-1.3 17.4,0 6,2.3 16,14.4 14.2,17.2 -0.4,0.7 -0.3,0.9 0.4,0.5 0.6,-0.4 1.5,1.2 2.2,4.1 2.8,11.7 3.9,26.2 4,55.4 0.1,16.7 0.6,38.7 1.1,48.9 0.4,10.2 1.1,28.4 1.4,40.5 0.4,12.1 0.9,22.3 1,22.6 0.2,0.3 0.7,12 1,26 0.4,14 0.8,26 1.1,26.7 0.2,0.7 0.6,18.5 0.9,39.5 0.4,21 0.8,39.1 1,40.2 0.2,1.1 0.5,2.5 0.6,3 0.1,0.6 0.5,2 1,3.3 0.5,1.3 1.1,4.1 1.4,6.4 0.3,2.2 0.8,4.4 1.1,4.9 1.1,1.9 5,40.3 5.8,58.9 1.2,25.4 1.8,32.6 2.7,36.1 0.5,1.9 1.1,5.3 1.4,7.5 1.3,11.3 3.2,18.9 9.6,39.4 10.7,33.8 21,53.7 35.5,68.2 9,9.1 18.4,14 28.1,14.6 8.3,0.5 11.8,-0.5 17.8,-5.3 7,-5.6 10.2,-14.5 13.3,-36.5 1.5,-11.1 1.7,-22.6 1.7,-102.5 0,-77.6 -0.2,-92.9 -1.8,-111 -0.9,-11.5 -1.9,-22.1 -2.2,-23.5 -0.2,-1.4 -1.1,-9.5 -1.9,-18 -0.8,-8.5 -1.7,-18.2 -2.1,-21.5 -0.7,-7.6 -2.2,-49.8 -3.5,-99.5 -0.6,-21.2 -1.5,-45.2 -2,-53.5 -2.8,-47.3 -4,-73.4 -3.4,-76 1.5,-7.6 9.4,-15 19.4,-17.9 9.7,-2.9 10.7,-2.6 21.3,7 5.2,4.7 9.7,9.3 9.9,10.2 0.8,3.3 0,26.8 -1,31.2 -3.8,15.9 -4.4,25.9 -3.8,62 0.8,42.4 1.3,57.6 2.6,77.5 0.5,8.3 1.2,21.9 1.6,30.2 0.3,8.4 0.7,17 0.9,19 0.2,2.1 0.7,11 1,19.8 0.4,8.8 0.9,16.3 1.1,16.6 0.2,0.3 0.6,8.4 0.9,18 0.4,9.6 1,20.6 1.4,24.4 0.5,3.9 1,14 1.1,22.5 0.1,8.5 0.5,19.8 0.9,25 0.5,5.2 0.9,18.9 1,30.4 0.1,11.5 0.4,21.3 0.7,21.8 0.3,0.4 0.5,18 0.5,39.1 -0.1,36.7 -0.8,52.3 -3.1,65.2 -0.6,3.3 -1.3,7.6 -1.7,9.5 -2.5,15.7 -10.4,34.4 -18.2,43.1 -9.4,10.6 -23.7,19.4 -35.1,21.8 -6,1.3 -21.5,2.1 -27,1.5 z"
       id="path6" />
    <path
       d="m 146.5,645.1 c -7.6,-1.9 -12.7,-6.4 -14.4,-12.6 -2.7,-10.4 -16.8,-80.4 -21.3,-105.5 -1.1,-6.3 -2.3,-13.3 -2.8,-15.5 -0.4,-2.2 -2,-11 -3.4,-19.5 -1.5,-8.5 -3.8,-21.8 -5.1,-29.5 -2.2,-12.5 -12.7,-76 -15.6,-94 -0.6,-3.8 -1.5,-9 -2,-11.5 -0.4,-2.5 -1.6,-9.2 -2.4,-15 -0.9,-5.8 -3.2,-19.9 -5.1,-31.5 -2,-11.5 -4.4,-26.6 -5.5,-33.5 -1,-6.9 -3,-18.8 -4.4,-26.5 -1.4,-7.7 -2.9,-16.7 -3.5,-20 C 59.2,219.1 56.7,204.5 55.9,200 55.4,197.5 54.1,189.6 53,182.3 51.9,175 50,163.8 48.9,157.3 47,146.3 42.4,120.1 34.9,76.6 33,65.2 32.1,57.4 32.5,55.1 c 0.9,-4.6 6.9,-10.5 12,-12 7.3,-2 11.8,-1.4 15,1.9 1.6,1.7 2.5,3 1.9,3 -0.5,0 -0.2,0.5 0.7,1 1.4,0.8 4,6.2 7.5,15.5 1.9,5.2 10.6,37.6 12.4,46.5 0.5,2.5 1.9,8.8 3,14 1.1,5.2 2.3,10.9 2.6,12.5 0.4,2.6 5.1,26.4 6.8,35 0.7,3.7 6.1,32 8.2,43 1.9,10.1 3.2,17.9 3.9,23 0.3,2.2 1.4,8.5 2.5,14 1,5.5 2.4,13.2 3,17.2 0.6,3.9 1.3,7.7 1.4,8.5 0.2,0.7 0.6,3.6 1,6.3 0.4,2.8 1.9,11.5 3.3,19.5 2.9,17.1 4.1,24.8 4.9,31 0.3,2.5 0.9,6.5 1.4,9 0.5,2.5 1.4,8.1 2,12.5 0.6,4.4 1.6,10 2.1,12.5 0.5,2.5 1.4,8.1 2,12.5 0.6,4.4 1.2,8.9 1.4,10 0.2,1.1 0.8,6 1.5,10.9 0.6,4.9 1.3,9.2 1.5,9.5 0.3,0.6 2.1,12.1 3.1,20.1 0.3,1.9 0.7,4.6 1,6 0.2,1.4 0.9,5.7 1.4,9.5 0.6,3.9 1.4,9.5 1.9,12.5 0.5,3 1.5,9 2.2,13.3 0.7,4.2 1.5,7.7 1.9,7.7 0.4,0 1.3,-3.5 1.9,-7.7 0.7,-4.3 1.6,-10.3 2.1,-13.3 1,-6.2 1.9,-12.6 5.5,-38.5 1.4,-9.9 2.9,-20.8 3.5,-24.2 1.5,-9.4 2.8,-17.9 3.9,-26.3 0.6,-4.1 1.5,-10.9 2.1,-15 3.2,-22.5 5.9,-43.2 6.5,-48.5 0.4,-3.3 1.7,-14.1 3,-24 3.1,-23.2 4.9,-38.4 8,-68 1.4,-13.2 2.9,-27.6 3.5,-32 2.6,-22.4 5,-64.1 5.8,-99.2 l 0.7,-29.2 4.5,-4.6 c 6,-6.2 14.8,-10.5 21.3,-10.5 3.8,0 6.7,0.9 12.8,4.1 l 7.9,4.1 v 4.2 c 0,4.4 -3.5,38.7 -8,78.6 -2.3,20.6 -4,36.7 -5,48 -0.6,6.9 -2.5,24.4 -4.1,39 -1.6,14.6 -3.4,31 -3.9,36.5 -0.6,5.5 -1.5,13.5 -2,17.7 -2.1,16.8 -3,23.6 -4,32.3 -1.5,12.9 -6.2,48.3 -9,68.3 -1.7,11.9 -2.9,21.2 -4,30.2 -3.6,29.1 -10.2,79.6 -12,91.5 -1.2,7.9 -1.6,10.1 -4.5,32.5 -0.8,6.3 -1.9,14 -2.5,17 -0.5,3 -1.4,8.7 -2,12.5 -6.7,42.9 -13.5,72.6 -19.1,83.7 -2.8,5.5 -5.5,6.6 -12.4,4.9 z"
       id="path8" />
    <path
       d="m 708.1,639.9 c -4.6,-1.4 -10.6,-5.7 -16.2,-11.6 C 685,621 684,619.2 684,613 c -0.1,-9.3 -6,-51.1 -10,-70.5 -5.7,-27.9 -13.8,-58.6 -26.6,-101.5 -2.5,-8.5 -6.3,-20.9 -8.4,-27.5 -10.2,-32 -16.6,-52.3 -20.7,-65.5 -2.6,-8 -5,-14.9 -5.4,-15.4 -0.5,-0.5 -0.9,63.4 -0.9,142.1 0,127.3 -0.2,143.6 -1.6,148.3 -3.3,11.1 -7.4,14 -20,14 -6.4,0 -9.4,-0.5 -12.3,-2 -4.4,-2.2 -9.7,-9.6 -10.7,-14.7 -0.4,-1.9 -0.1,-63.6 0.6,-137.1 0.7,-73.6 1.6,-200.1 1.9,-281.2 0.6,-138.5 0.7,-147.7 2.4,-150.7 2.7,-5 6.8,-6.6 17.7,-7.1 10.9,-0.4 24.6,2 34.8,6.1 19.3,7.8 34.7,22.5 49,46.7 3.2,5.5 8.9,19.9 11.3,28.6 3.7,13.6 5.6,29.9 5.4,47.1 -0.3,24.2 -2.6,41.2 -7.9,58.3 -1.5,4.7 -2.8,9.2 -3.1,10 -1,3.8 -7.5,21.1 -10,26.4 -1.5,3.3 -3.8,8.7 -5,12 -1.3,3.4 -3.1,7.9 -4,10.1 -5.6,12.8 -6,14.6 -4.7,22.2 0.6,3.7 1.4,9.3 1.7,12.3 0.8,7.5 5.3,36.5 6.5,41.5 0.5,2.2 2.6,11.4 4.6,20.5 7.9,36.3 22.9,88.1 36.5,126.5 2.5,7.1 14.1,42.1 14.3,43.2 0.1,0.7 0.5,1.6 0.9,1.9 0.4,0.4 0.7,1.4 0.7,2.2 0,0.8 1.5,5.8 3.4,11.1 9,25.6 9.8,29 9.7,38 -0.2,10.3 -1.8,20.8 -3.7,23.8 -4,6.4 -14.2,9.7 -22.3,7.2 z M 618.2,259.7 c 15.3,-17.2 14.1,-14.8 17.7,-36.2 1.8,-10.4 3.7,-21.2 4.3,-24 5.2,-27.9 5.6,-37.4 2.2,-57.2 C 639.3,123.7 635,110.4 628.6,99.7 624.7,93.2 617.2,85 615.1,85 c -1.8,0 -3,21.6 -3.2,55 0,9.1 -0.5,26.2 -1,38 -1.6,32.9 -1.8,89.9 -0.3,89.3 0.6,-0.2 4,-3.7 7.6,-7.6 z"
       id="path10" />
    <path
       d="m 443.3,631.3 c -3.5,-0.9 -5.9,-2.4 -8.9,-5.6 -4,-4.1 -4.2,-4.8 -4.9,-12.3 -0.5,-4.3 -0.6,-26.8 -0.3,-50 0.3,-23.1 0.3,-44.4 0,-47.3 -0.4,-5 -0.7,-5.3 -4.6,-7.1 -5.9,-2.7 -23.7,-7.7 -33.1,-9.4 -20.4,-3.6 -36.2,-5.7 -41,-5.5 -2.2,0.1 -5,-0.1 -6.2,-0.5 -1.9,-0.6 -2.4,0.2 -5.7,8.6 -3.4,9.1 -4.5,12.6 -6.5,21.8 -1,5 -1.3,6.4 -7.1,36 -4.7,23.6 -6,29.1 -10.2,41.5 -4.5,13.3 -8.7,21.5 -11.5,22.6 -3,1.1 -14.9,-0.6 -22,-3.2 -5.7,-2.2 -13.3,-9.5 -13.3,-12.9 0,-1.1 1.1,-4.2 2.4,-6.9 1.4,-2.6 3.4,-8.3 4.6,-12.7 6.2,-23 7.6,-29.5 14,-65.1 0.6,-2.9 1.5,-7.9 2,-11 0.6,-3.2 1.5,-8.3 2,-11.3 0.5,-3 1.8,-10.4 3,-16.5 1.9,-10 2.8,-15 6,-34.5 0.6,-3.6 1.5,-8.3 2,-10.5 1.1,-4.8 4.4,-23 6,-33.5 0.7,-4.1 2.2,-12.9 3.5,-19.5 1.2,-6.6 2.8,-15.1 3.4,-19 0.6,-3.8 1.6,-9.5 2.1,-12.5 1.4,-7.9 6.7,-38.3 8.1,-46 0.6,-3.6 2.1,-11.9 3.4,-18.5 1.3,-6.6 3.3,-17.2 4.4,-23.5 1.1,-6.3 3.3,-18 5,-26 1.6,-8 3.7,-18.3 4.6,-23 1,-4.7 2.1,-10.1 2.5,-12 0.5,-1.9 2,-9.1 3.5,-16 8.6,-40.1 23.4,-89.7 33.2,-111.5 7.3,-16 15.5,-26.5 21.9,-28.1 3.3,-0.9 16.9,0.1 21.6,1.6 2.1,0.6 4.9,2.1 6.3,3.3 2.4,2.1 2.5,3 3.5,19.2 0.6,9.4 1.2,18.8 1.5,21 0.2,2.2 0.9,9.2 1.5,15.5 1.9,19.6 2,21.3 3.1,29.5 0.5,4.4 1.2,10.5 1.4,13.5 0.3,3 1,8.7 1.5,12.5 0.9,7.1 2.1,16.5 4.1,33.5 0.6,5.2 1.5,12 2,15 0.6,3 1.4,9.3 1.9,14 0.5,4.7 1.1,9.9 1.4,11.5 0.2,1.7 0.7,5.7 1.1,9 0.3,3.3 1.1,9.6 1.6,14 0.5,4.4 1.2,10.7 1.5,14 0.3,3.3 0.9,8.4 1.5,11.2 0.6,2.9 0.8,5.6 0.6,6 -0.3,0.5 -0.1,3.3 0.4,6.3 0.5,3 1.1,8.4 1.3,12 1.8,25.5 2.6,42.5 3.1,62.5 0.3,12.7 0.8,25.3 1.1,28 0.2,2.8 0.6,7.7 0.8,11 1.2,18.4 1.7,25.3 2.2,28 0.3,1.7 0.7,5.9 1,9.5 0.3,3.6 0.9,9.9 1.4,14 1.3,10.9 4.6,45.4 5.5,59 0.3,4.1 1,12.2 1.5,18 0.6,5.8 1.3,23.6 1.7,39.5 0.5,25.9 0.4,29.6 -1.1,34.2 -4.5,13.7 -18.8,19.3 -37.3,14.6 z M 425.8,462.5 c 2,-0.7 2.2,-1.4 2.2,-7.2 0,-3.6 -0.5,-10.8 -1,-16.1 -0.6,-5.3 -1.5,-14.2 -2,-19.7 -0.6,-5.5 -1.7,-16.1 -2.5,-23.5 -0.8,-7.4 -1.9,-18.7 -2.4,-25 -0.6,-6.3 -2.4,-24.3 -4,-40 -1.6,-15.7 -3.4,-34.1 -4,-41 -1.2,-13.3 -2.6,-29.1 -4.1,-45.5 -0.5,-5.5 -1.4,-15.8 -2,-23 -0.5,-7.1 -1.7,-20.8 -2.5,-30.3 -0.9,-9.6 -1.3,-17.8 -1,-18.3 0.4,-0.5 0.1,-0.9 -0.4,-0.9 -1,0 -1.5,1.4 -1.2,3.4 0.1,0.4 -0.3,1.4 -1,2.2 -0.6,0.8 -2,4.4 -3,8.1 -5.7,21.2 -6.9,25.5 -8.3,32.3 -0.9,4.1 -1.8,8.4 -2,9.5 -0.2,1.1 -0.5,2.7 -0.8,3.5 -0.3,0.8 -1.1,3.9 -1.7,6.8 -0.6,2.8 -1.6,7.3 -2.1,10 -1.7,7.7 -9.8,49.3 -10.6,54.2 -0.4,2.5 -0.9,5.4 -1.1,6.5 -3,16.1 -4.8,26 -7.3,41.5 -1.6,10.2 -3.4,21 -4,24 -0.5,3 -1.4,8.5 -2,12.3 -0.5,3.7 -1.4,9.5 -2,13 -0.5,3.4 -1.2,8.5 -1.5,11.2 -0.9,7.8 -1.3,11.2 -3,22.5 -0.8,5.8 -1.5,13 -1.5,16.1 0,5.1 0.2,5.7 2.3,6.2 1.2,0.3 5.8,1.4 10.2,2.5 10.7,2.6 20,4.2 31.5,5.1 10.6,0.9 29.3,0.6 32.8,-0.4 z"
       id="path12" />
    <path
       d="m 809,630.1 c -17.3,-2.8 -26,-6.7 -31.6,-14.2 -3.6,-4.9 -3.4,-13.9 0.3,-19.7 4.7,-7.2 9.2,-8.7 25.8,-8.8 7.7,0 15,-0.4 16.3,-0.8 4.7,-1.6 5.2,-4.5 5.2,-32.8 0,-35.3 -2.1,-84.5 -6,-142.3 -2.5,-36.8 -3.8,-59.5 -5,-90.5 -2.6,-62.8 -3,-88.5 -2.5,-148 0.5,-50.9 0.3,-64.6 -0.7,-69 l -1.3,-5.5 H 798 c -13.3,0 -16.9,-1.4 -20.8,-8.1 -1.9,-3.2 -2.2,-5.1 -2,-11 0.3,-6 0.8,-7.7 3.2,-10.8 7.3,-9.6 23.4,-15.9 49.1,-19.1 2.8,-0.4 7.7,-1.1 11,-1.6 10.8,-1.6 36.9,-2.3 40.8,-1 5.3,1.8 12.3,8.4 14.3,13.6 3.8,10 0.2,21.7 -8.5,27.6 -3.2,2.2 -4.5,2.4 -16.1,2.5 -13.4,0.1 -17.9,1.4 -18.1,5.5 -0.1,1.9 -0.5,3.7 -0.8,4.2 -0.8,1.2 0.7,94.5 1.5,95.9 0.3,0.5 0.6,8.2 0.6,17.1 -0.1,8.9 0.3,18.5 0.8,21.2 0.5,2.8 1.4,14.2 2,25.5 0.6,11.3 1.3,22.8 1.5,25.5 0.3,2.8 0.9,13.1 1.5,23 0.6,9.9 1.3,20.9 1.5,24.5 0.3,3.6 0.9,15.1 1.5,25.5 0.6,10.5 1.3,22.8 1.5,27.5 3.3,58.5 4.3,81.4 5.1,112 0.4,13.5 0.7,37.8 0.8,54 l 0.1,29.4 8.5,0.2 c 12.8,0.4 18.9,1.2 23.9,3.5 9.5,4.2 14,11.2 14.8,22.7 0.6,8.9 1.7,7.5 -12.7,17.4 l -7.5,5.2 -12,0.4 c -38.6,1.3 -63.1,1.1 -74.5,-0.7 z"
       id="path14" />
  </g>
</svg>
