<?xml version="1.0" encoding="UTF-8" standalone="no"?>
<svg
   version="1.0"
   width="3490.7444"
   height="1981.4199"
   viewBox="0 0 3490.7444 1981.4199"
   preserveAspectRatio="xMidYMid meet"
   id="svg163"
   sodipodi:docname="auto-casino.svg"
   inkscape:version="1.1.2 (0a00cf5339, 2022-02-04, custom)"
   xmlns:inkscape="http://www.inkscape.org/namespaces/inkscape"
   xmlns:sodipodi="http://sodipodi.sourceforge.net/DTD/sodipodi-0.dtd"
   xmlns:xlink="http://www.w3.org/1999/xlink"
   xmlns="http://www.w3.org/2000/svg"
   xmlns:svg="http://www.w3.org/2000/svg">
  <sodipodi:namedview
     id="namedview165"
     pagecolor="#ffffff"
     bordercolor="#666666"
     borderopacity="1.0"
     inkscape:pageshadow="2"
     inkscape:pageopacity="0.0"
     inkscape:pagecheckerboard="0"
     showgrid="false"
     inkscape:zoom="0.2138"
     inkscape:cx="1704.8644"
     inkscape:cy="963.51731"
     inkscape:window-width="1920"
     inkscape:window-height="1017"
     inkscape:window-x="-8"
     inkscape:window-y="-8"
     inkscape:window-maximized="1"
     inkscape:current-layer="svg163" />
  <defs
     id="defs81">
    <linearGradient
       id="lg0"
       gradientUnits="userSpaceOnUse"
       x1="2112.0002"
       y1="1508"
       x2="3071.9998"
       y2="2062">
      <stop
         offset="0%"
         style="stop-color:rgb(182,128,13);"
         id="stop2" />
      <stop
         offset="1%"
         style="stop-color:rgb(181,126,13);"
         id="stop4" />
      <stop
         offset="2%"
         style="stop-color:rgb(253,192,42);"
         id="stop6" />
      <stop
         offset="7%"
         style="stop-color:rgb(252,199,69);"
         id="stop8" />
      <stop
         offset="9%"
         style="stop-color:rgb(249,192,56);"
         id="stop10" />
      <stop
         offset="10%"
         style="stop-color:rgb(255,197,56);"
         id="stop12" />
      <stop
         offset="20%"
         style="stop-color:rgb(255,207,91);"
         id="stop14" />
      <stop
         offset="21%"
         style="stop-color:rgb(255,206,87);"
         id="stop16" />
      <stop
         offset="22%"
         style="stop-color:rgb(255,196,52);"
         id="stop18" />
      <stop
         offset="24%"
         style="stop-color:rgb(254,194,47);"
         id="stop20" />
      <stop
         offset="25%"
         style="stop-color:rgb(255,205,82);"
         id="stop22" />
      <stop
         offset="30%"
         style="stop-color:rgb(255,217,124);"
         id="stop24" />
      <stop
         offset="31%"
         style="stop-color:rgb(255,217,126);"
         id="stop26" />
      <stop
         offset="32%"
         style="stop-color:rgb(255,194,45);"
         id="stop28" />
      <stop
         offset="33%"
         style="stop-color:rgb(255,204,80);"
         id="stop30" />
      <stop
         offset="34%"
         style="stop-color:rgb(255,209,98);"
         id="stop32" />
      <stop
         offset="40%"
         style="stop-color:rgb(255,216,121);"
         id="stop34" />
      <stop
         offset="42%"
         style="stop-color:rgb(255,205,83);"
         id="stop36" />
      <stop
         offset="43%"
         style="stop-color:rgb(255,194,44);"
         id="stop38" />
      <stop
         offset="44%"
         style="stop-color:rgb(255,202,74);"
         id="stop40" />
      <stop
         offset="52%"
         style="stop-color:rgb(255,207,88);"
         id="stop42" />
      <stop
         offset="70%"
         style="stop-color:rgb(255,196,51);"
         id="stop44" />
      <stop
         offset="71%"
         style="stop-color:rgb(252,197,63);"
         id="stop46" />
      <stop
         offset="72%"
         style="stop-color:rgb(242,189,64);"
         id="stop48" />
      <stop
         offset="73%"
         style="stop-color:rgb(225,171,48);"
         id="stop50" />
      <stop
         offset="74%"
         style="stop-color:rgb(249,196,69);"
         id="stop52" />
      <stop
         offset="75%"
         style="stop-color:rgb(245,195,77);"
         id="stop54" />
      <stop
         offset="76%"
         style="stop-color:rgb(220,174,80);"
         id="stop56" />
      <stop
         offset="77%"
         style="stop-color:rgb(210,160,67);"
         id="stop58" />
      <stop
         offset="78%"
         style="stop-color:rgb(246,191,60);"
         id="stop60" />
      <stop
         offset="79%"
         style="stop-color:rgb(255,197,57);"
         id="stop62" />
      <stop
         offset="93%"
         style="stop-color:rgb(254,195,49);"
         id="stop64" />
      <stop
         offset="94%"
         style="stop-color:rgb(247,193,63);"
         id="stop66" />
      <stop
         offset="95%"
         style="stop-color:rgb(223,175,74);"
         id="stop68" />
      <stop
         offset="96%"
         style="stop-color:rgb(198,146,43);"
         id="stop70" />
      <stop
         offset="97%"
         style="stop-color:rgb(196,143,34);"
         id="stop72" />
      <stop
         offset="98%"
         style="stop-color:rgb(200,150,46);"
         id="stop74" />
      <stop
         offset="99%"
         style="stop-color:rgb(199,150,54);"
         id="stop76" />
      <stop
         offset="100%"
         style="stop-color:rgb(187,139,52);"
         id="stop78" />
    </linearGradient>
    <linearGradient
       inkscape:collect="always"
       xlink:href="#lg0"
       id="linearGradient982"
       gradientUnits="userSpaceOnUse"
       x1="2112.0002"
       y1="1508"
       x2="3071.9998"
       y2="2062" />
    <linearGradient
       inkscape:collect="always"
       xlink:href="#lg0"
       id="linearGradient984"
       gradientUnits="userSpaceOnUse"
       x1="2112.0002"
       y1="1508"
       x2="3071.9998"
       y2="2062" />
  </defs>
  <g
     fill="#ffd860"
     id="g95"
     transform="translate(-795,-283.99902)">
    <path
       d="m 1626.6,2262.4 c -14.6,-5.2 -23.2,-12.6 -37.8,-32.2 -21.2,-28.6 -36.4,-63 -43.6,-98.6 -4.6,-22.6 -7.8,-54.2 -6.8,-69.8 0.6,-11.4 1.6,-14.8 6.8,-21.2 8.8,-11.2 29.8,-21.2 44.4,-21.4 21.4,0 30.4,9 30.4,31.2 0,17.4 3.6,45.6 8.2,63.2 8,31.2 21.4,51.2 36.2,53.6 6.6,1.2 7.2,0.8 17,-12.4 32.4,-44.4 53.4,-85 73.4,-142.8 8.8,-24.8 25.2,-78.6 25.2,-82 0,-0.8 -6.6,2 -14.4,6.2 -19.4,10.2 -41.8,17.4 -64.2,20.2 -15.6,1.8 -20.8,1.8 -34.4,-1 -59.2,-12.2 -99.2,-63.2 -109.2,-139.6 -3.2,-23 -3,-101.8 0,-129.8 12.2,-110 52.2,-213.2 116.4,-300.2 5.4,-7.4 9.8,-13.8 9.8,-14.6 0,-0.6 -57.2,-1.2 -127,-1.2 H 1430 V 950.2 c 0,-366.4 0.4,-422 3,-437.4 8.8,-51 30.4,-93 68.8,-133.4 60,-63 137,-95.2 227.2,-95.4 88,-0.2 163,30.2 223,90 38,37.8 61,78.6 72.6,129 4.2,17.8 4.2,21.6 4.8,331.8 l 0.8,313.6 4.4,-1.2 c 2.4,-0.6 14.6,-1.8 27,-2.4 21.8,-1.4 22.4,-1.6 22.4,-6.2 v -4.6 h 153.6 c 93.4,0 156,-0.8 160.2,-2 33.2,-9.4 39.8,-48.4 10.8,-65.4 -8,-4.6 -12,-5.4 -37.2,-6.8 -89.4,-5.4 -155.8,-35 -213.4,-95 -42.6,-44.2 -66.6,-96.6 -71.8,-156.2 -2.8,-30.6 -2.8,-242.6 0,-273.2 5.4,-62.6 30,-114 76.8,-160.4 55,-54.8 115.2,-82.2 195.6,-89.2 58.6,-5 119.2,6 169.4,31 59,29.2 112.8,84 135.8,138.4 18,42.6 20.2,58.4 20.2,149 V 678 h -128 -128 v -62.6 c 0,-61 -0.2,-62.8 -4.4,-71.4 -2.8,-5.2 -8.2,-11.4 -13.2,-15 -8,-5.4 -10.2,-6 -25.2,-6 -14.6,0 -17.4,0.6 -24.8,5.6 -6.2,4 -8.4,6.8 -8.4,10.4 0,4.4 -2,5.8 -8,5.4 -0.6,0 -0.6,57.2 0,127.4 1.2,141.2 0.2,132 14.4,143 8,6 20.4,9 37,9.2 44.2,0.2 102.2,15.2 141,36.6 78.8,43.2 132.4,114.6 144.8,193.4 4.8,30.8 3,80 -3.8,106.6 -13.4,50.6 -41.6,96 -82.2,131.8 -41.2,36.6 -86.2,59.2 -142.2,71.8 -19.8,4.6 -22,4.6 -194.4,5.2 l -174.6,0.8 -0.4,-33 -0.6,-33 -26,18.4 -26,18.4 -0.6,14.6 -0.6,14.4 h -18.8 -18.8 l -22,21.2 c -44,42 -63.4,77.2 -68.6,124 -2.8,24.2 -0.8,31.6 14,51.2 17.2,22.4 18.4,24.4 18.4,30.2 0,8 -4.6,15.4 -14.8,23.4 -5,3.8 -9,7.6 -9,8.2 -0.2,0.6 7.2,-1 16.4,-3.8 19.6,-5.8 48,-8 55.2,-4 15.6,8.4 16.8,23.4 4.2,50.6 -23.4,50 -44.6,109.4 -85.8,238 -38.4,120.6 -58,173.2 -82.4,221 -35.2,68.8 -80.4,112.2 -133.6,129 -22.8,7 -44,8.4 -57.6,3.4 z M 1747.4,1877 c 31,-13.8 58.6,-58 78.4,-124.6 8.2,-27.6 22.2,-68.6 31,-90.4 1,-2.2 -2.6,-4.8 -14,-9.8 -19.6,-8.8 -33.6,-22.4 -43,-41.2 l -6.8,-14 0.2,-30 c 0,-24 1,-33 4.4,-45.4 13.4,-49.2 39,-90.2 82.2,-132.4 10,-9.8 18.2,-18 18.2,-18.4 0,-0.4 -18.6,-0.8 -41.4,-0.8 l -41.6,0.2 -17.8,21.4 c -70.8,85.8 -117.6,192.8 -131.4,301.4 -3.4,26.4 -3.4,95.4 0,116 5.6,34.2 18.2,60.8 32.6,68.2 14.6,7.8 31.4,7.6 49,-0.2 z m -8.2,-564.6 32.8,-32.6 v -58 -57.8 h -42 -42 v 101.6 101.4 l 9.4,-11 c 5,-6 24,-25.6 41.8,-43.6 z m 324.8,-77 c 0,-1.2 -4.6,-1.4 -12.2,-0.6 -6.8,0.6 -14.6,1.2 -17,1.2 -4.6,0 -4.8,0.6 -4.8,14 v 14 l 17,-13.2 c 9.4,-7.4 17,-14.2 17,-15.4 z m -292.4,-499 -0.6,-189.6 -4.8,-7.2 c -17,-24.6 -55,-25.2 -73,-1 -4.2,5.6 -4.2,6.4 -4.8,196.6 L 1688,926 h 42 42 z"
       id="path83" />
    <path
       fill="url(#lg0)"
       d="m 2576,2141.8 c -19.2,-8.6 -32,-24 -42.6,-50.6 -18,-44.4 -21.2,-128.4 -9.2,-234.2 3.6,-33 14.2,-100.8 17,-109.4 2,-6.4 -0.4,-4 -9.8,10.2 -8.4,12.8 -10.8,14.8 -29.8,25.6 -19.6,11 -21.4,11.6 -34.2,11.6 -13.6,0 -13.6,0 -22.4,-9.2 -11.4,-12.2 -14.6,-23.4 -15.2,-53 -0.2,-12.8 -0.8,-25 -1.2,-27 -1.6,-5.8 -17,19.8 -29.6,49.2 -5.8,13.2 -11.6,26.6 -13.2,29.6 -3,6.6 -45,38.6 -56.4,43 -11.4,4.6 -20.2,1 -34.2,-13.6 l -11.6,-12 0.8,-16 0.6,-16 -9,9.8 c -9.8,10.8 -43,33.4 -60.4,41 -30.6,13.4 -51.4,10.8 -68.2,-8.8 -10.8,-12.6 -14.2,-26.6 -14,-55.4 0,-13.6 -0.4,-24.6 -1.2,-24.6 -1,0 -3.2,2 -5.4,4.2 -12.4,14 -52.6,41.6 -78.4,54.2 -15.2,7.4 -17.6,8 -26.8,6.8 -13.2,-1.8 -19.6,-5.2 -28.2,-15.4 -12.4,-14.4 -14.6,-39 -5.6,-67.4 3.8,-12.2 29.8,-59.8 49.8,-90.4 45.6,-70.6 91,-102.6 160.4,-113.2 39,-5.8 56.4,-2.8 69.2,11.6 3.4,4 9,7.8 12.4,8.6 8.2,1.8 16.4,11.6 16.4,19.6 0,8 -12.2,66.8 -21,101.4 -3.6,14.8 -6.4,27.2 -6.2,27.6 0.8,0.6 28,-30.4 43.6,-50 5,-6.2 11,-16.2 13.2,-22.2 14.4,-38.2 40.8,-92.2 47.2,-96.4 7.6,-5 93.2,-18.4 102.4,-16.2 8.4,2.2 14.8,10 14.8,18.2 0,4 -1,9.2 -2.2,11.4 -2,3.8 -1.8,4 1.4,2.6 17.2,-7.2 46.6,-17 51.2,-17 12.2,0 31.4,14.2 38,28.2 6.4,13.4 5.2,27.2 -4.4,56.8 -3.8,11.4 -3.8,11.8 -0.2,7.2 2,-2.8 9.8,-16 17.2,-29.6 7.4,-13.4 16.2,-27.2 19.6,-30.4 4.6,-4.6 14,-8.8 39.2,-17.2 18.2,-6 34.8,-11 36.8,-11 2,0 7.8,2.2 13,4.8 29.8,15.2 37.6,43.4 23,84.6 -0.6,2 3.2,-0.6 8.6,-5.6 25.8,-24.4 40.2,-32.4 99.4,-56.6 45.2,-18.4 59,-22 79.4,-20.6 28.8,2 52.2,16.2 62.8,38 9,18.2 8.8,26.2 -0.4,47.2 -16.8,38.2 -48.2,77.2 -80.6,100.2 -8.2,5.8 -23.8,14.8 -34.8,20.2 -14.4,7 -18.6,9.8 -15,10 39.6,2.4 82.2,-17.6 124.4,-58.2 18.2,-17.6 20,-19.8 22.6,-30.6 7,-27.2 17,-40.4 54,-71.4 32.6,-27.4 51.8,-37.4 102,-53 47.4,-14.6 75.6,-21 94,-21 35.2,0 62.6,13.4 74.2,36.2 12,23.8 0.8,47.8 -28.6,61.2 -26.8,12.4 -50.2,10.8 -66.2,-4.6 -5.2,-5.2 -11,-8.8 -13.6,-8.8 -6.8,0 -38.4,14.2 -54,24.4 -33.4,21.6 -45.4,42.6 -37.8,66 2.8,8.6 19.8,39.6 21.8,39.6 0.4,0 12.6,-5.8 27.4,-12.8 53.4,-25.4 123,-53.2 133.8,-53.2 6,0 26.2,14.8 30,22 3.6,6.6 2.4,17.4 -2.4,22.8 -2.6,2.6 -15,9.2 -27.6,14.4 -12.6,5.2 -48,22 -78.4,37.4 l -55.6,27.6 v 17.6 c 0,16.2 -0.6,18.8 -7,31.8 -20.2,40 -77.4,80.4 -129.6,91.2 -18.4,3.8 -43.6,4 -54,0.4 -21.2,-7.6 -32.8,-23.6 -28.6,-40.2 2.6,-10.2 39.8,-51 69.2,-75.6 9.4,-7.8 18.2,-15.2 19.8,-16.6 2.4,-2.2 0,-6.8 -14,-28.6 -9.2,-14.4 -17.2,-26 -17.8,-26.2 -0.6,0 -11.2,9 -23.8,20 -30,26.2 -49.4,40 -74.6,53 -45.4,23.6 -89.2,29.8 -136.6,19.6 -41.4,-9 -70,-35 -79.2,-72.6 -2.8,-11.6 -3.4,-50 -1,-67 1.2,-9.6 1,-9.2 -8.4,11 -45.8,98 -64.6,239.6 -47.2,355 3.8,26.6 4,26.6 13,30.4 10.8,4.2 15.8,11.2 15.8,21.6 0,8 -1,9.4 -16.6,24.4 -14.2,13.6 -18.2,16.2 -28.6,19.2 -15.8,4.4 -25.8,4.2 -36.8,-0.8 z m 270.8,-502.6 c 4.4,-5 7.4,-9.6 6.8,-10.2 -1.4,-1.4 -23,20.2 -26,25.8 -2,3.8 -1.4,3.6 4.6,-1 3.6,-3 10.2,-9.4 14.6,-14.6 z"
       id="path85"
       style="fill:url(#linearGradient982)" />
    <path
       d="m 1048,1389.2 c -52.4,-7.6 -100,-27 -141,-57.2 -6.6,-4.8 -20.4,-17 -30.8,-27 -42.6,-41 -66,-83.6 -77.6,-140.2 C 795.2,1148 795,1128 795,838 c 0,-289 0.2,-310.2 3.6,-327 11.2,-56 34.8,-98.4 78.2,-140.6 41,-39.6 85,-64.2 138.8,-77.2 59.8,-14.4 130.8,-11.4 186.8,8 92,32 164.6,107.4 185.4,192.8 6.8,28.2 8.2,47.8 8.2,116.4 V 676 h -129 -129 v -60.6 c 0,-33.6 -0.8,-63.4 -2,-67.2 -3,-10.8 -15.2,-21.8 -27.8,-25.6 -16,-4.6 -31.8,-1 -43.8,10.2 -11,9.8 -10.4,-8.2 -10.4,305.8 v 290.8 l 4.6,6.8 c 17.4,25.8 54.6,25.4 74.2,-1 4,-5.2 4.2,-8.4 4.8,-70.4 l 0.6,-64.8 h 129 128.8 v 65.6 c 0,36 -1,73.6 -2.2,83.4 -14.2,115.8 -109.2,212.6 -233.2,237.2 -27.8,5.4 -84.8,7 -112.6,3 z"
       id="path87" />
    <path
       d="m 3952,1390 c -74.2,-7.8 -135,-37 -188,-90 -42.6,-42.6 -63.8,-81.8 -74.4,-137.6 -2,-10.4 -2.6,-80.8 -2.6,-324.4 0,-292.8 0.2,-312 3.6,-329 7,-34.2 19.2,-64 38.4,-93.2 13.6,-20.2 55.6,-62 78,-77.2 60.6,-41 132.8,-59.4 206.8,-52.8 59.2,5.2 102.6,20 147.4,49.8 60,40.4 100.2,94.4 117.4,158 l 6.4,23.4 0.6,309 c 0.4,228.4 0,313.6 -1.6,326.8 -4.8,35.6 -16.8,69 -35.4,98.6 -44,70.2 -119.6,120.6 -202.2,134.6 -26.6,4.6 -70.6,6.4 -94.4,4 z m 54.4,-239.2 c 8.6,-4.2 15.2,-10.4 19.2,-17.8 3.2,-5.4 3.4,-30 4,-288 0.4,-192.2 -0.2,-285.2 -1.6,-291.8 -4.4,-20.6 -19.6,-32.2 -42.4,-32 -11.2,0 -14.8,1 -23,6 -5.6,3.4 -11.4,9.2 -14,13.8 l -4.6,8 v 288.6 c 0,283.6 0,288.6 4,296.4 9.6,18.8 38.2,27 58.4,16.8 z"
       id="path89" />
    <path
       d="M 2714,839 V 306 h 129 129 v 533 533 h -129 -129 z"
       id="path91" />
    <path
       d="M 3032,838 V 306 h 128 128 v 7.4 c 0,5.4 11,30.8 42.6,97.2 l 42.4,90 0.6,-97.4 0.4,-97.2 h 129 129 v 532 532 H 3503 3374 V 1181.8 993.6 l -41.4,-87.8 c -23,-48.2 -42.2,-87.8 -43,-87.8 -1,0 -1.6,124.2 -1.6,276 v 276 h -128 -128 z"
       id="path93" />
  </g>
  <g
     fill="#ffc027"
     id="g121"
     transform="translate(-795,-283.99902)">
    <path
       d="m 1626.6,2262.4 c -14.6,-5.2 -23.2,-12.6 -37.8,-32.2 -21.2,-28.6 -36.4,-63 -43.6,-98.6 -4.6,-22.6 -7.8,-54.2 -6.8,-69.8 0.6,-11.4 1.6,-14.8 6.8,-21.2 8.8,-11.2 29.8,-21.2 44.4,-21.4 21.4,0 30.4,9 30.4,31.2 0,17.4 3.6,45.6 8.2,63.2 8,31.2 21.4,51.2 36.2,53.6 6.6,1.2 7.2,0.8 17,-12.4 32.4,-44.4 53.4,-85 73.4,-142.8 8.8,-24.8 25.2,-78.6 25.2,-82 0,-0.8 -6.6,2 -14.4,6.2 -19.4,10.2 -41.8,17.4 -64.2,20.2 -15.6,1.8 -20.8,1.8 -34.4,-1 -59.2,-12.2 -99.2,-63.2 -109.2,-139.6 -3.2,-23 -3,-101.8 0,-129.8 12.2,-110 52.2,-213.2 116.4,-300.2 5.4,-7.4 9.8,-13.8 9.8,-14.6 0,-0.6 -57.2,-1.2 -127,-1.2 H 1430 V 950.2 c 0,-366.4 0.4,-422 3,-437.4 8.8,-51 30.4,-93 68.8,-133.4 60,-63 137,-95.2 227.2,-95.4 88,-0.2 163,30.2 223,90 38,37.8 61,78.6 72.6,129 4.2,17.8 4.2,21.6 4.8,331.8 l 0.8,313.6 4.4,-1.2 c 2.4,-0.6 14.6,-1.8 27,-2.4 21.8,-1.4 22.4,-1.6 22.4,-6.2 v -4.6 h 153.6 c 93.4,0 156,-0.8 160.2,-2 33.2,-9.4 39.8,-48.4 10.8,-65.4 -8,-4.6 -12,-5.4 -37.2,-6.8 -89.4,-5.4 -155.8,-35 -213.4,-95 -42.6,-44.2 -66.6,-96.6 -71.8,-156.2 -2.8,-30.6 -2.8,-242.6 0,-273.2 5.4,-62.6 30,-114 76.8,-160.4 55,-54.8 115.2,-82.2 195.6,-89.2 58.6,-5 119.2,6 169.4,31 59,29.2 112.8,84 135.8,138.4 18,42.6 20.2,58.4 20.2,149 V 678 h -128 -128 v -62.6 c 0,-61 -0.2,-62.8 -4.4,-71.4 -2.8,-5.2 -8.2,-11.4 -13.2,-15 -8,-5.4 -10.2,-6 -25.2,-6 -14.6,0 -17.4,0.6 -24.8,5.6 -6.2,4 -8.4,6.8 -8.4,10.4 0,4.4 -2,5.8 -8,5.4 -0.6,0 -0.6,57.2 0,127.4 1.2,141.2 0.2,132 14.4,143 8,6 20.4,9 37,9.2 44.2,0.2 102.2,15.2 141,36.6 78.8,43.2 132.4,114.6 144.8,193.4 4.8,30.8 3,80 -3.8,106.6 -13.4,50.6 -41.6,96 -82.2,131.8 -41.2,36.6 -86.2,59.2 -142.2,71.8 -19.8,4.6 -22,4.6 -194.4,5.2 l -174.6,0.8 -0.4,-33 -0.6,-33 -26,18.4 -26,18.4 -0.6,14.6 -0.6,14.4 h -18.8 -18.8 l -22,21.2 c -44,42 -63.4,77.2 -68.6,124 -2.8,24.2 -0.8,31.6 14,51.2 17.2,22.4 18.4,24.4 18.4,30.2 0,8 -4.6,15.4 -14.8,23.4 -5,3.8 -9,7.6 -9,8.2 -0.2,0.6 7.2,-1 16.4,-3.8 19.6,-5.8 48,-8 55.2,-4 15.6,8.4 16.8,23.4 4.2,50.6 -23.4,50 -44.6,109.4 -85.8,238 -38.4,120.6 -58,173.2 -82.4,221 -35.2,68.8 -80.4,112.2 -133.6,129 -22.8,7 -44,8.4 -57.6,3.4 z m 38,-61.6 c 0.8,-0.8 -4,-3.8 -10.4,-6.8 -13.6,-6.6 -23.8,-16 -34.4,-32.6 -4.4,-6.6 -7.8,-11.4 -7.8,-10.6 0,4.2 13.4,26.8 20.2,34.2 10.8,11.8 28,20.2 32.4,15.8 z m 49.2,-284.6 c 2.2,-1.4 0.6,-2.4 -6,-4.2 -20,-5.4 -38,-20.2 -49.8,-40.8 -7.6,-13.2 -7.8,-10.4 -0.2,4.4 12.2,23.8 30,38.4 52.2,42.2 0.6,0 2.2,-0.6 3.8,-1.6 z m 33.6,-39.2 c 31,-13.8 58.6,-58 78.4,-124.6 8.2,-27.6 22.2,-68.6 31,-90.4 1,-2.2 -2.6,-4.8 -14,-9.8 -19.6,-8.8 -33.6,-22.4 -43,-41.2 l -6.8,-14 0.2,-30 c 0,-24 1,-33 4.4,-45.4 13.4,-49.2 39,-90.2 82.2,-132.4 10,-9.8 18.2,-18 18.2,-18.4 0,-0.4 -18.6,-0.8 -41.4,-0.8 l -41.6,0.2 -17.8,21.4 c -70.8,85.8 -117.6,192.8 -131.4,301.4 -3.4,26.4 -3.4,95.4 0,116 5.6,34.2 18.2,60.8 32.6,68.2 14.6,7.8 31.4,7.6 49,-0.2 z m 154.8,-277.6 c -0.2,-2.4 -3,-1.8 -3.8,0.8 -0.6,1.2 0.2,2 1.6,1.6 1.2,-0.6 2.2,-1.6 2.2,-2.4 z m -163,-287 32.8,-32.6 v -58 -57.8 h -42 -42 v 101.6 101.4 l 9.4,-11 c 5,-6 24,-25.6 41.8,-43.6 z M 1676,1256 v -104 h 53 53 l 0.4,59.4 0.6,59.2 5.4,-4.8 5.4,-4.8 0.6,-60.6 0.6,-60.4 h -65.4 -65.6 v 104 104 h -106 -106 l 0.6,-412.4 c 0.6,-454 -0.4,-416.6 12.6,-455.2 16.2,-48.6 55.4,-96.4 105.8,-128.8 51,-32.8 112.8,-47.8 180,-43.4 70.2,4.6 125,27.4 174,72.2 39.6,36.2 61.8,71.4 75.2,119.8 l 4.8,16.8 0.6,317.6 0.4,317.4 5.6,-1.2 c 3,-0.8 5.8,-1.8 6.4,-2.2 0.6,-0.6 0.8,-139.6 0.4,-309.2 -0.6,-333.8 -0.4,-324 -11.6,-358.8 -6.2,-19.4 -20,-46.8 -32.2,-64.2 -14.6,-20.6 -51,-55.8 -72.4,-70.2 -35.6,-23.6 -69.8,-38 -107.6,-45.2 -20.8,-4 -64.4,-7.2 -81.6,-6 -39.2,2.8 -63,7.6 -96,20 -22,8.2 -36.8,16 -58,30.2 -21.2,14 -28.8,20.4 -48.6,40.8 -38.4,39.4 -61.2,85.4 -68.2,138.6 -1.6,10.6 -2.2,149.6 -2.2,425.6 V 1360 h 118 118 z m 242,98 7,-5.8 -44.2,-0.2 h -44 l -4.4,6 -4.6,6 h 41.6 l 41.6,-0.2 z m 100.6,2 c -0.6,-2.2 -1.2,-4 -1.6,-4 -0.2,0 -2,1.8 -4,4 -3.6,4 -3.4,4 1.6,4 4,0 4.8,-0.8 4,-4 z m 405.4,1.6 c 54.4,-7.8 96.6,-23.8 138,-52.4 13.4,-9.2 49.4,-42.8 59.2,-55.2 55.2,-70.6 68,-166.8 33,-250.4 -18.6,-44.6 -66.8,-97.8 -111.2,-123.2 -12.2,-7 -38.8,-19.4 -50,-23.4 -5.4,-1.8 -11.4,-4 -13,-4.6 -1.6,-0.6 -3.8,-1.2 -5,-1.4 -1,-0.4 -7.4,-2 -14,-3.6 -18.4,-4.6 -25.4,-5.6 -59.4,-8.2 -26.6,-2.2 -33,-3.4 -42,-7.8 -11.4,-5.8 -20.8,-15.8 -24.8,-27.2 -3.6,-10.2 -4,-250.2 -0.4,-253.8 1.8,-1.8 1.6,-2.4 -0.8,-2.4 -1.8,0 -4.8,-1.4 -6.4,-3.2 -3,-2.8 -3.4,-2.6 -5.2,2.2 -1.2,3.4 -2,51.2 -2,128.8 0,139.4 -0.4,134.6 15.2,152 14.6,16.4 25,20.2 63.2,23.4 39.2,3.4 58,6.8 85,15.8 41.4,13.8 73,33.4 105.8,66 49.6,49.2 71.6,100 71.6,166 0,33.4 -2.6,51.2 -11.8,78 -12.2,36.8 -31.4,65.4 -64.2,96.8 -46.8,44.8 -103.2,70 -170.8,76.2 -13.4,1.2 -82.4,2 -164.4,2 H 2108 v -30.2 -30 l -6,4.2 -6,4.2 v 32 32 l 157.6,-0.4 c 86.6,-0.2 163.2,-1.2 170.4,-2.2 z m -420.6,-103 c -0.4,-6.4 -0.6,-1.6 -0.6,10.4 0,12.2 0.2,17.4 0.6,11.6 0.4,-5.8 0.4,-15.6 0,-22 z m 11,22 c 5.2,-5 5.6,-6.4 5.6,-21 0,-16.4 -0.4,-16.8 -9.4,-14.4 -4.4,1.2 -4.6,2.2 -4.6,21 0,11 0.6,19.8 1.4,19.8 0.8,0 4,-2.4 7,-5.4 z m 49.6,-41.2 c 0,-1.2 -4.6,-1.4 -12.2,-0.6 -6.8,0.6 -14.6,1.2 -17,1.2 -4.6,0 -4.8,0.6 -4.8,14 v 14 l 17,-13.2 c 9.4,-7.4 17,-14.2 17,-15.4 z m 65.2,-3.8 c 4.6,-9 2.4,-8.6 -2.6,0.6 -2.4,4.2 -3.4,7.4 -2.4,6.6 1,-0.6 3.2,-3.8 5,-7.2 z m 214.8,-76.2 61,-0.4 10.4,-5.4 c 12,-6.4 25,-19 30,-29.4 1.8,-4 3.8,-13.2 4.2,-20.6 0.6,-11 0,-15.2 -4.2,-24.2 -6,-13 -18,-25.6 -29.8,-31.4 -9.8,-4.8 -28.8,-8 -48,-8 -17.4,0 -54.4,-6.4 -75.6,-13 -23.2,-7.4 -49.8,-20.4 -72.2,-35.2 -21,-14.2 -52,-43.8 -67.4,-64.8 -12.2,-16.4 -28.4,-48.4 -34,-67 -9.2,-31.2 -9.4,-33.2 -9.4,-185 0,-159.2 -0.2,-157.4 13.4,-194 24.8,-67.8 87,-126.2 162.2,-152.8 28.6,-10 52.8,-14.4 88.4,-15.6 46.2,-1.6 81,3.8 120.6,18.6 24.2,9 31.2,12.6 55.4,28.6 25.2,16.8 58.2,49 73.6,72.6 19.8,29.8 32.2,63.2 37.2,100.2 1.2,8.6 2.2,40.8 2.2,71.6 V 656 h -106 -106 v -53.6 c 0,-61 -0.8,-66 -14.2,-81.2 -5,-5.6 -13.2,-11.6 -21.4,-15.6 -11.8,-5.8 -15.2,-6.6 -29.4,-6.6 -18,0.2 -32.6,5.4 -40.4,14.2 -2.4,2.8 -5.4,4.6 -6.4,3.8 -1.2,-0.6 -1.8,0 -1.2,1.4 0.6,1.4 2.8,3.8 4.8,5 3.2,2 4.8,1.8 8.6,-1.2 7.2,-5.6 13.4,-8.4 21.2,-9.8 20.4,-3.2 36.6,0.6 49.8,12.2 16.2,14.4 16.6,15.8 16.6,84 V 668 h 118.2 118.2 l -1,-73.4 c -1,-78.2 -1.2,-81 -12.2,-115.6 -14.6,-46.2 -52,-95.6 -96.4,-127.4 -18.6,-13.2 -53.2,-31.8 -68.8,-36.6 -6,-2 -11.8,-4.2 -13,-5 -2.4,-1.8 -33.6,-8.8 -54,-12 -18,-3 -66.6,-3 -86.6,0 -63.8,9.6 -113.2,31.6 -157.4,70.8 -8.8,7.8 -17.8,16 -20,18.2 -36.6,38.4 -60.8,88.4 -67,139 -1.2,10 -2,69 -2,146.6 0,141 0.8,154.4 11.2,188.2 20.2,64.8 72.8,123.6 140.8,157.4 20.8,10.4 53.6,21.6 73,25 20.2,3.4 34.8,5.2 52.8,6 25.4,1 33,3 43.6,10.6 32.8,23.8 24.6,68.2 -15.2,81.8 -5,1.8 -47.8,2.4 -157,2.6 -148,0 -150,0 -139.2,3.6 6,2 13.8,5 17.2,6.4 6.4,2.8 19.6,3 220.8,1.2 z m -340.6,-75.8 c -0.2,-13.6 -0.6,-2.6 -0.6,24.4 0,27 0.4,38 0.6,24.6 0.4,-13.6 0.4,-35.6 0,-49 z m -209,-332 -0.6,-202.6 -4.6,-10 c -17.4,-37.8 -69,-49 -101.6,-22.4 -7,5.6 -12.6,12.8 -16.6,20.4 l -6,11.8 -0.6,202.6 -0.4,202.6 h 65.4 65.6 z m 209,-125 c -0.2,-40.4 -0.4,-7.8 -0.4,72.4 0,80.4 0.2,113.4 0.4,73.6 0.4,-39.8 0.4,-105.4 0,-146 z m 334.2,-88.8 c -0.4,-3.2 -2.2,-4.6 -6.6,-5 l -6,-0.6 6,5 c 7.4,5.8 7.4,5.8 6.6,0.6 z m -593,-223.2 c -2.6,-0.4 -6.6,-0.4 -9,0 -2.6,0.4 -0.6,0.8 4.4,0.8 5,0 7,-0.4 4.6,-0.8 z"
       id="path97" />
    <path
       d="M 1719.6,936.4 1676,936 V 747 c 0,-127.4 0.8,-192 2.2,-198.8 4.4,-21 27.8,-38.2 51.8,-38.2 18.6,0 39,12 47,28 l 5,9.8 V 742.4 937 h -9.6 c -5.2,0 -29,-0.2 -52.8,-0.6 z m 52,-200 -0.6,-189.6 -4.8,-7.2 c -17,-24.6 -55,-25.2 -73,-1 -4.2,5.6 -4.2,6.4 -4.8,196.6 L 1688,926 h 42 42 z"
       id="path99" />
    <path
       fill="url(#lg0)"
       d="m 2576,2141.8 c -19.2,-8.6 -32,-24 -42.6,-50.6 -18,-44.4 -21.2,-128.4 -9.2,-234.2 3.6,-33 14.2,-100.8 17,-109.4 2,-6.4 -0.4,-4 -9.8,10.2 -8.4,12.8 -10.8,14.8 -29.8,25.6 -19.6,11 -21.4,11.6 -34.2,11.6 -13.6,0 -13.6,0 -22.4,-9.2 -11.4,-12.2 -14.6,-23.4 -15.2,-53 -0.2,-12.8 -0.8,-25 -1.2,-27 -1.6,-5.8 -17,19.8 -29.6,49.2 -5.8,13.2 -11.6,26.6 -13.2,29.6 -3,6.6 -45,38.6 -56.4,43 -11.4,4.6 -20.2,1 -34.2,-13.6 l -11.6,-12 0.8,-16 0.6,-16 -9,9.8 c -9.8,10.8 -43,33.4 -60.4,41 -30.6,13.4 -51.4,10.8 -68.2,-8.8 -10.8,-12.6 -14.2,-26.6 -14,-55.4 0,-13.6 -0.4,-24.6 -1.2,-24.6 -1,0 -3.2,2 -5.4,4.2 -12.4,14 -52.6,41.6 -78.4,54.2 -15.2,7.4 -17.6,8 -26.8,6.8 -13.2,-1.8 -19.6,-5.2 -28.2,-15.4 -12.4,-14.4 -14.6,-39 -5.6,-67.4 3.8,-12.2 29.8,-59.8 49.8,-90.4 45.6,-70.6 91,-102.6 160.4,-113.2 39,-5.8 56.4,-2.8 69.2,11.6 3.4,4 9,7.8 12.4,8.6 8.2,1.8 16.4,11.6 16.4,19.6 0,8 -12.2,66.8 -21,101.4 -3.6,14.8 -6.4,27.2 -6.2,27.6 0.8,0.6 28,-30.4 43.6,-50 5,-6.2 11,-16.2 13.2,-22.2 14.4,-38.2 40.8,-92.2 47.2,-96.4 7.6,-5 93.2,-18.4 102.4,-16.2 8.4,2.2 14.8,10 14.8,18.2 0,4 -1,9.2 -2.2,11.4 -2,3.8 -1.8,4 1.4,2.6 17.2,-7.2 46.6,-17 51.2,-17 12.2,0 31.4,14.2 38,28.2 6.4,13.4 5.2,27.2 -4.4,56.8 -3.8,11.4 -3.8,11.8 -0.2,7.2 2,-2.8 9.8,-16 17.2,-29.6 7.4,-13.4 16.2,-27.2 19.6,-30.4 4.6,-4.6 14,-8.8 39.2,-17.2 18.2,-6 34.8,-11 36.8,-11 2,0 7.8,2.2 13,4.8 29.8,15.2 37.6,43.4 23,84.6 -0.6,2 3.2,-0.6 8.6,-5.6 25.8,-24.4 40.2,-32.4 99.4,-56.6 45.2,-18.4 59,-22 79.4,-20.6 28.8,2 52.2,16.2 62.8,38 9,18.2 8.8,26.2 -0.4,47.2 -16.8,38.2 -48.2,77.2 -80.6,100.2 -8.2,5.8 -23.8,14.8 -34.8,20.2 -14.4,7 -18.6,9.8 -15,10 39.6,2.4 82.2,-17.6 124.4,-58.2 18.2,-17.6 20,-19.8 22.6,-30.6 7,-27.2 17,-40.4 54,-71.4 32.6,-27.4 51.8,-37.4 102,-53 47.4,-14.6 75.6,-21 94,-21 35.2,0 62.6,13.4 74.2,36.2 12,23.8 0.8,47.8 -28.6,61.2 -26.8,12.4 -50.2,10.8 -66.2,-4.6 -5.2,-5.2 -11,-8.8 -13.6,-8.8 -6.8,0 -38.4,14.2 -54,24.4 -33.4,21.6 -45.4,42.6 -37.8,66 2.8,8.6 19.8,39.6 21.8,39.6 0.4,0 12.6,-5.8 27.4,-12.8 53.4,-25.4 123,-53.2 133.8,-53.2 6,0 26.2,14.8 30,22 3.6,6.6 2.4,17.4 -2.4,22.8 -2.6,2.6 -15,9.2 -27.6,14.4 -12.6,5.2 -48,22 -78.4,37.4 l -55.6,27.6 v 17.6 c 0,16.2 -0.6,18.8 -7,31.8 -20.2,40 -77.4,80.4 -129.6,91.2 -18.4,3.8 -43.6,4 -54,0.4 -21.2,-7.6 -32.8,-23.6 -28.6,-40.2 2.6,-10.2 39.8,-51 69.2,-75.6 9.4,-7.8 18.2,-15.2 19.8,-16.6 2.4,-2.2 0,-6.8 -14,-28.6 -9.2,-14.4 -17.2,-26 -17.8,-26.2 -0.6,0 -11.2,9 -23.8,20 -30,26.2 -49.4,40 -74.6,53 -45.4,23.6 -89.2,29.8 -136.6,19.6 -41.4,-9 -70,-35 -79.2,-72.6 -2.8,-11.6 -3.4,-50 -1,-67 1.2,-9.6 1,-9.2 -8.4,11 -45.8,98 -64.6,239.6 -47.2,355 3.8,26.6 4,26.6 13,30.4 10.8,4.2 15.8,11.2 15.8,21.6 0,8 -1,9.4 -16.6,24.4 -14.2,13.6 -18.2,16.2 -28.6,19.2 -15.8,4.4 -25.8,4.2 -36.8,-0.8 z m -13.2,-174.2 c 2.6,-31.6 2.4,-31.2 14.2,-37 10.2,-5 10.6,-5.6 12.8,-16.4 1.2,-6.2 3.4,-22 5,-35.2 6.8,-54.8 21.8,-116.8 39.6,-163.4 3.6,-9.4 6.8,-15 8,-14.2 1.4,0.6 1.6,0.2 0.8,-1.2 -2,-3.2 0.6,-10.6 3.2,-9 1.2,0.8 1.6,0.4 1,-0.6 -1.8,-2.8 5.4,-19 7.4,-17.2 0.8,0.8 0.8,-0.2 0,-2.2 -1,-2.6 -0.8,-3.4 0.8,-2.4 1.6,1 2,0.2 1,-2 -0.8,-2.4 -0.6,-3 1,-2 1.6,1 2,0.2 1,-2 -0.8,-2.4 -0.6,-3 1,-2 1.6,1 2,0.2 1,-2 -0.8,-2.4 -0.6,-3 1,-2 1.6,1 2,0.2 1,-2 -1,-2.6 -0.6,-3 1.4,-1.8 1.6,1 2.2,0.8 1.4,-0.4 -0.8,-1.2 1.4,-7.6 4.6,-14.4 8.6,-17.6 9.2,-24 3.2,-35.6 -2.6,-5.2 -8.2,-12.6 -12.2,-16 -4.2,-3.8 -6.6,-7.4 -5.8,-8.8 0.6,-1.2 6.4,-4.4 12.6,-7.2 10.4,-4.6 14,-7.4 14.2,-11 0,-2.6 -36.2,10.8 -41.8,15.6 -3,2.4 -8.6,10.2 -12.2,17.2 -8.4,15.8 -30.8,50.6 -33.8,52.4 -2.8,1.8 -3,9.2 -0.2,9.2 1.2,0 2,1.8 2,4 0,2.2 1,4 2,4 3.2,0 2.4,6.4 -4.8,32.6 -18.4,67.2 -34.6,166.2 -37,226.2 -0.8,22.2 -0.8,41.8 0,43.6 1,1.8 1.8,7 1.8,11.4 0,14.6 3.4,8.6 4.8,-8.2 z m 426.4,-80 c 0.6,-2.6 5.4,-9.6 10.6,-15.6 5,-6 10.6,-12.8 12.2,-15 1.6,-2.2 13,-14.2 25.4,-26.4 18.6,-18.6 23.6,-22.6 28.6,-22.6 4.6,0 6.6,-1.4 9,-6 1.6,-3.2 3,-7.4 3,-9.4 0,-5.2 -11.6,-26.8 -29,-54.8 -14.6,-23.2 -24.4,-42.2 -26.2,-50.6 -0.8,-4.4 5.4,-30.2 10.2,-42.4 l 3.2,-7.8 -4.2,5 c -3.6,4.6 -12,27.2 -12,33 0,1.2 -1.8,4 -4,6 -4.2,3.8 -5.4,9 -2,9 1.2,0 2,1.4 2,3 0,1.6 0.8,3 2,3 1,0 4.4,4.8 7.2,10.6 2.8,5.6 11.8,20.4 19.6,32.4 8,12.2 17,26.4 20.2,31.8 6.8,11.8 7.2,22.6 0.8,27.8 -2.4,1.8 -3.6,3.4 -2.8,3.4 0.6,0 -5.8,5.6 -14.4,12.4 -17.4,13.6 -55.2,51.6 -63.6,63.8 -4.6,6.4 -5,8.2 -3,10.8 3.4,4.2 5.4,3.8 7.2,-1.4 z m 62,-16.8 c 23,-15.2 38.2,-44.2 27.8,-52.8 -3.2,-2.6 -4,-1.6 -5.8,8 -3,16.2 -4.4,19.4 -13.4,28.6 -6,6.2 -10.4,9.2 -12,8.4 -1.6,-1 -2,-0.8 -1,0.6 0.8,1.4 0.4,2.6 -0.6,2.6 -1.2,0.2 -3,0.6 -4.2,0.8 -1,0.2 -2.6,0.6 -3.4,0.8 -3.8,0.8 -8.8,6.2 -7.6,8 2.4,4 9.2,2.2 20.2,-5 z M 2207,1796 c 4.4,-2 16.6,-9.2 27.2,-16.2 19.4,-12.8 30.6,-24.4 53.2,-54.8 10.2,-13.6 9.2,-12.8 -21.8,21.6 -15.8,17.4 -21,20.2 -26.6,15 -1.4,-1.4 -5,-4.4 -8,-6.6 -4.8,-3.4 -5.2,-4.6 -4,-13 0.8,-5 7.6,-34.2 15.4,-65 15.2,-61.2 23.6,-98.6 23.6,-105 0,-2.6 -1.4,-4 -4,-4 -2.2,0 -6.2,-3.4 -9.8,-8.8 l -6.2,-9 -6.4,3 c -11.6,5.4 -12.6,6.2 -12.8,11 0,5.2 -3.6,12.8 -8.4,18.4 -1.8,2 -3.6,6 -3.8,9 -0.8,6.8 -15.8,37.4 -27,54.8 -5.8,9.4 -10.4,14.2 -15,16 -5.2,2 -6.2,3.2 -4.6,5.6 1.8,2.6 2.2,2.6 4,0 2.2,-3.6 10,-4.4 13.6,-1.6 3.4,3 3,15 -1.8,43.6 -5.2,32 -4.4,64.4 2,75.2 2.4,3.8 4.2,9.2 4.2,12 0,5.6 1.4,5.6 17,-1.2 z m 141.2,-12.2 c 15,-11.4 15.2,-11.8 23.8,-32.2 11.2,-27.4 15.4,-35.2 29.4,-56.6 11.6,-17.6 13,-22.2 7.4,-25.6 -1.6,-0.8 -2.8,-3.4 -2.8,-5.4 0,-6.6 29.2,-86.2 45,-122.8 l 3.2,-7.6 -5.8,4.2 c -3.4,2.4 -12,5 -20.6,6.4 -24.8,3.8 -25.6,4.4 -38.2,29 -6,12 -14.4,30.4 -18.8,40.8 -10.8,26.4 -16,35.2 -28.4,48 -5.8,6 -11.6,12.6 -12.6,14.4 -3.2,5.8 -1.8,6.8 2.4,1.6 l 4.2,-5 -1.4,5 c -0.8,2.8 -1.8,7.8 -2.4,11 l -1.2,6 4.2,-5 c 3.8,-4.6 4.2,-4.8 5.6,-1.2 0.8,2 -1.2,15.8 -4.8,32.2 -10.8,48.4 -13.2,80 -5.8,75.8 1.4,-0.8 9.2,-6.6 17.6,-13 z m 445,12.4 c -0.6,-1 -5.2,-2.8 -10.4,-4 -21,-5.4 -38.2,-17.4 -45.6,-32 -8.2,-15.8 -7.6,-69 1,-92.2 8.6,-23.4 33.6,-48.4 70.4,-70.8 9.6,-5.8 4.6,-5.8 -7,0 -16.8,8.4 -33.4,21 -49.8,38 -17,17.6 -24,29.6 -29.6,51.2 -7.8,29.8 -9,37.8 -6.8,41.4 1.2,1.8 2.8,6.4 3.6,10.2 2,9 11.6,29.8 16.4,35 2,2.2 7.2,6.8 11.6,10 4.4,3.4 8.6,6.8 9.2,7.6 0.6,1 1.6,1.6 2,1.4 0.4,-0.2 2.2,0.2 3.8,0.8 9.8,3.8 33,6.4 31.2,3.4 z m 99.6,-23.6 c 12.6,-3.4 33,-15.4 45.2,-26.6 l 7,-6.2 -7,4.8 c -19.6,13.8 -49.2,24.6 -61.8,22.4 -6.4,-1 -7.6,-0.6 -7.6,2.4 0,7.4 6.2,8.2 24.2,3.2 z M 2489.6,1760 c 12.8,-7.4 15.4,-10 28.6,-29.6 12.8,-18.8 13.6,-20.6 7,-14.8 -8.8,7.8 -10.2,7.8 -14.4,1.4 -6,-9.4 0.2,-34.8 22.2,-89 21.6,-53.6 23,-60.8 14.2,-69.6 l -5,-5.2 -14.6,5.8 c -27.2,10.6 -26.6,10.2 -53.6,53 -7.8,12.6 -16.2,25 -18.6,27.6 -3.8,4 -4,5 -1.4,6.4 1.6,1 4.2,2.8 5.8,3.8 3.2,2.2 5.8,26.2 7.2,70.2 0.8,26.4 2.8,40 6.4,46.6 1.2,2 1,2.2 16.2,-6.6 z m -423,-9.4 c 7.6,-4.8 10.2,-10.8 4,-9.4 -2,0.4 -5.8,-1 -8.4,-3.2 -4.4,-3.8 -4.6,-4.6 -2.4,-12.2 4,-13.2 20.6,-44 33.4,-62 15.6,-22.2 49.2,-55.8 73.2,-73.4 10.6,-8 20,-14.4 21,-14.4 1,0 3.4,2 5.4,4.4 l 3.8,4.4 2,-4.4 c 3.8,-8.6 -6.4,-12.4 -17.6,-6.8 -10,5 -41.2,31.2 -58.4,49 -22.4,23.4 -39,46.4 -51.6,71.4 -14.4,28.6 -18.2,41.6 -15.2,50 2,6 1.8,7.2 -2.2,11.6 l -4.6,5 5,-2.6 c 2.8,-1.4 8.4,-4.8 12.6,-7.4 z m 1141.4,-29 c 21.4,-10.8 38.4,-19.6 37.8,-19.6 -2.6,0 -56.2,24.2 -79.2,35.8 -15.8,7.8 -24.6,13.4 -24.6,15.4 0,2.4 3,1.4 13.6,-4.4 7.4,-4.2 31,-16.4 52.4,-27.2 z M 2830.2,1709 c 6.2,-2.4 14.4,-7 18,-10.2 18.2,-15.6 32.8,-30.8 40,-41.4 13,-19.6 19.8,-49 13,-57.8 -3.2,-4.4 -13,-8.2 -17,-6.4 -2.8,1 -2.6,1.4 0.8,2.8 4.4,1.6 7.2,6.6 11,19 2.8,9.8 -0.8,22.2 -11.4,38.8 -16.2,25.2 -53.6,53.8 -74.4,56.8 -2.8,0.4 -5.4,2 -5.8,3.4 -1.2,3.4 10.8,1.2 25.8,-5 z m 16.6,-69.8 c 4.4,-5 7.4,-9.6 6.8,-10.2 -1.4,-1.4 -23,20.2 -26,25.8 -2,3.8 -1.4,3.6 4.6,-1 3.6,-3 10.2,-9.4 14.6,-14.6 z m 400.2,-62.4 c -2.8,-3 -5,-6 -5,-6.8 0,-0.8 -2.2,-2.4 -5,-3.6 -5.6,-2.6 -6.8,-0.4 -2,3.6 1.6,1.4 3,3.8 3,5.4 0,1.4 2,3.6 4.6,4.6 8,3.2 9.4,2.2 4.4,-3.2 z"
       id="path101"
       style="fill:url(#linearGradient984)" />
    <path
       d="m 1048,1389.2 c -52.4,-7.6 -100,-27 -141,-57.2 -6.6,-4.8 -20.4,-17 -30.8,-27 -42.6,-41 -66,-83.6 -77.6,-140.2 C 795.2,1148 795,1128 795,838 c 0,-289 0.2,-310.2 3.6,-327 11.2,-56 34.8,-98.4 78.2,-140.6 41,-39.6 85,-64.2 138.8,-77.2 59.8,-14.4 130.8,-11.4 186.8,8 92,32 164.6,107.4 185.4,192.8 6.8,28.2 8.2,47.8 8.2,116.4 V 676 h -129 -129 v -60.6 c 0,-33.6 -0.8,-63.4 -2,-67.2 -3,-10.8 -15.2,-21.8 -27.8,-25.6 -16,-4.6 -31.8,-1 -43.8,10.2 -11,9.8 -10.4,-8.2 -10.4,305.8 v 290.8 l 4.6,6.8 c 17.4,25.8 54.6,25.4 74.2,-1 4,-5.2 4.2,-8.4 4.8,-70.4 l 0.6,-64.8 h 129 128.8 v 65.6 c 0,36 -1,73.6 -2.2,83.4 -14.2,115.8 -109.2,212.6 -233.2,237.2 -27.8,5.4 -84.8,7 -112.6,3 z m 68,-9.2 c 16,-1 31.2,-2.4 34,-3 2.8,-0.4 10,-2 16,-3 26.4,-5.2 62.8,-20 89,-36 56.6,-34.6 98.6,-85.4 117,-142.2 10.6,-32.2 12.2,-47.6 12.2,-118.2 0,-35.2 -0.6,-64.6 -1.2,-65.4 -1.4,-1.2 -68.2,-1.6 -173.4,-0.6 l -61.6,0.4 v 57.6 c 0,64.4 -0.6,67 -14.8,80.8 -25.8,25 -70.8,17.6 -86.6,-14.2 -3.4,-6.8 -3.6,-22.8 -4.2,-296.2 -0.6,-323.4 -1.6,-298.2 14,-313.8 25.8,-25.6 72.2,-18.8 86.8,12.6 4.6,10 4.8,11.4 4.8,68.4 v 58.2 l 117.2,-0.6 c 64.4,-0.2 117.6,-1 118.2,-1.6 0.6,-0.6 1,-30 0.8,-65.6 -0.2,-71.2 -1.8,-86.8 -12.2,-118 -12.4,-37.2 -31.8,-67.6 -62,-97.6 -63.6,-63.4 -143.2,-92.6 -235,-86 -16.6,1 -32.4,2.4 -35,3 -42.8,8.2 -79,22.2 -111,43.2 -21.6,14 -32.8,23.4 -53.6,44.6 -38.6,39.6 -61.4,87 -67.6,140.2 -3.2,28 -1.4,626.8 2,640 13.2,52 30.8,85.2 64,121.4 22.4,24.6 63,53 96,67.6 29,12.6 50,18.2 87.2,23 25.8,3.2 25,3.2 59,1 z"
       id="path103" />
    <path
       d="m 1073,1367.6 c -72.4,-4.4 -132.8,-31.2 -183.2,-81.6 -40.2,-40.2 -60.6,-79 -68.8,-131 -2.4,-15 -3,-68 -3,-315.4 0,-199.6 0.8,-302.4 2.2,-313 5,-36.4 17,-68.8 37.2,-99.2 14.2,-21.2 49.8,-56 73.8,-72 50.2,-33.4 100.6,-48 164.8,-47.6 85,0.2 153,28.2 208,85.4 28,29.2 45.6,57.4 56.8,91 9.2,27.4 11.2,47.6 11.2,110.4 V 652 h -106 -106 v -53.6 c 0,-53 0,-53.8 -5,-63.6 -6.6,-13.4 -17.8,-24.4 -31,-30.6 -14.8,-7 -42,-7.4 -56.4,-0.8 -12.4,5.6 -25.6,18.2 -31.6,30 l -5,9.6 v 295 295 l 5,9.8 c 5.8,11.4 19.4,24 32,30 7,3.2 13,4.2 27,4.2 15.6,0 19.4,-0.8 29.4,-5.6 12.8,-6.4 21.6,-14.6 29.2,-27.4 l 5.4,-9 0.6,-55.4 0.6,-55.6 h 106 106.2 l -1,66.6 c -0.8,59 -1.2,68.2 -5,82.6 -12.2,46.8 -33.8,82.8 -71.6,118.6 -59.4,56.2 -132.8,81.2 -221.8,75.8 z m 145.6,-341 c -10.2,-0.4 -27,-0.4 -37,0 -10.2,0.2 -2,0.6 18.4,0.6 20.4,0 28.6,-0.4 18.6,-0.6 z m 132,0 c -11.2,-0.4 -30.2,-0.4 -42,0 -11.8,0.2 -2.6,0.6 20.4,0.6 23.2,0 32.8,-0.4 21.6,-0.6 z"
       id="path105" />
    <path
       d="m 3952,1390 c -74.2,-7.8 -135,-37 -188,-90 -42.6,-42.6 -63.8,-81.8 -74.4,-137.6 -2,-10.4 -2.6,-80.8 -2.6,-324.4 0,-292.8 0.2,-312 3.6,-329 7,-34.2 19.2,-64 38.4,-93.2 13.6,-20.2 55.6,-62 78,-77.2 60.6,-41 132.8,-59.4 206.8,-52.8 59.2,5.2 102.6,20 147.4,49.8 60,40.4 100.2,94.4 117.4,158 l 6.4,23.4 0.6,309 c 0.4,228.4 0,313.6 -1.6,326.8 -4.8,35.6 -16.8,69 -35.4,98.6 -44,70.2 -119.6,120.6 -202.2,134.6 -26.6,4.6 -70.6,6.4 -94.4,4 z m 84,-13 c 108.2,-16.4 201.4,-93.2 229,-188.2 10.4,-35.8 10,-23 10,-349.8 0,-323 0.2,-315.8 -9,-349 -20.2,-73.6 -82.6,-140 -162.4,-172.8 -19.2,-8 -52,-16.6 -70.6,-18.4 -6.6,-0.8 -12.6,-1.6 -13.4,-2.2 -0.8,-0.4 -15.2,-0.8 -32,-0.8 -48.4,0 -80.8,6.4 -127.6,25.2 -40.8,16.6 -92.6,59 -119.6,98 -13.4,19.2 -23,38.6 -30.6,61 -12.4,37.6 -12,23.4 -12,357.4 0.2,208.8 0.8,309 2.4,319 7.6,51.4 31.6,97.6 70.8,136.6 53.2,53.2 118.4,82.2 194.4,86.6 22.8,1.4 52,0.4 70.6,-2.6 z"
       id="path107" />
    <path
       d="m 3939.8,1365 c -64.8,-10.4 -115.4,-36.2 -160.8,-81.8 -38.4,-38.6 -60,-80.6 -66.8,-130 -1.6,-10.4 -2.2,-113 -2.2,-315.8 0,-330.4 -0.4,-319 12.2,-356.4 18.2,-53.2 61.8,-103.4 118.8,-136.4 79.6,-46.2 193.8,-49 278,-7.2 22.8,11.4 46,28 67.2,48.2 32.8,31.2 52.6,61 65,97.8 12,35.8 11.4,18.6 12,343.6 0.2,164 -0.4,306 -1.2,315.6 -3.8,36.6 -18.2,76.4 -39,106.4 -13.6,19.6 -52.6,57.6 -73.6,71.6 -31,20.8 -68,35.8 -105,42.6 -23.8,4.6 -82,5.6 -104.6,1.8 z m 74.6,-192.4 c 12.4,-5.6 25.6,-18 31.6,-30 l 5,-9.6 0.6,-291.4 0.4,-291.4 -4.2,-11.4 c -5.4,-14.6 -17,-27.2 -31.6,-34.2 -9.8,-5 -13.4,-5.6 -30.2,-5.6 -16.2,0 -20.4,0.8 -28,4.8 -21.2,11.2 -32.2,25 -35.8,45 -1.6,8.2 -2.2,99.4 -2.2,289.2 0,189.8 0.6,281 2.2,289.2 3.8,21.4 17,36.6 39.6,46.2 14.2,6 38,5.6 52.6,-0.8 z m -97,-258 c -0.2,-38.4 -0.4,-7 -0.4,69.4 0,76.4 0.2,107.8 0.4,69.6 0.4,-38.4 0.4,-100.8 0,-139 z m 0,-93 c -0.4,-3.6 -0.8,-1.2 -0.8,5.4 0,6.6 0.4,9.6 0.8,6.6 0.4,-3 0.4,-8.4 0,-12 z m 0,-226.2 c -0.2,-22.2 -0.4,-3.4 -0.4,41.6 0,45.2 0.2,63.2 0.4,40.4 0.4,-23 0.4,-59.8 0,-82 z"
       id="path109" />
    <path
       d="m 3966.8,1162.6 c -11.4,-3.8 -23.6,-14.8 -29.2,-26.2 l -4.6,-9.4 -0.4,-281 c -0.4,-193.8 0,-285.2 1.6,-294.4 1.8,-11.2 3.4,-15 10,-22.4 26.2,-29.8 74.6,-23.4 91,11.8 l 4.8,10 v 286 c 0,198.4 -0.6,288.4 -2.2,293.8 -1.2,4.4 -6.2,12 -11.2,17.4 -15.2,16.2 -37.8,21.8 -59.8,14.4 z m 39.6,-11.8 c 8.6,-4.2 15.2,-10.4 19.2,-17.8 3.2,-5.4 3.4,-30 4,-288 0.4,-192.2 -0.2,-285.2 -1.6,-291.8 -4.4,-20.6 -19.6,-32.2 -42.4,-32 -11.2,0 -14.8,1 -23,6 -5.6,3.4 -11.4,9.2 -14,13.8 l -4.6,8 v 288.6 c 0,283.6 0,288.6 4,296.4 9.6,18.8 38.2,27 58.4,16.8 z"
       id="path111" />
    <path
       d="M 2714,839 V 306 h 129 129 v 533 533 h -129 -129 z m 246.2,444.6 c 0,-42.2 0.2,-277 0.4,-522 L 2961,316 H 2842.6 2724 v 522 522 h 118 118 z"
       id="path113" />
    <path
       d="M 2736,838 V 328 h 106 106 v 510 510 h -106 -106 z"
       id="path115" />
    <path
       d="M 3032,838 V 306 h 128 128 v 7.4 c 0,5.4 11,30.8 42.6,97.2 l 42.4,90 0.6,-97.4 0.4,-97.2 h 129 129 v 532 532 H 3503 3374 V 1181.8 993.6 l -41.4,-87.8 c -23,-48.2 -42.2,-87.8 -43,-87.8 -1,0 -1.6,124.2 -1.6,276 v 276 h -128 -128 z m 202.6,520.4 43.4,-0.4 0.2,-295.4 V 767 l 8.8,18 c 4.6,10 28.6,60.8 53.2,113 l 44.8,95 v 182.2 182.2 l 22,1.2 c 21,1.2 211,0 212.2,-1.2 0.6,-0.6 1.2,-591.6 1,-897.6 l -0.2,-141.2 -17.2,-1.4 c -9.4,-0.8 -62.6,-0.8 -118,0 l -100.6,1.4 0.8,117.2 0.8,117.2 -5.6,-12 c -7.8,-16.6 -16.6,-35.2 -62.4,-132.2 -21.8,-46.2 -39.8,-86 -39.8,-88.4 v -4.2 l -102.4,0.6 c -56.4,0.4 -109.6,0.8 -118,1 L 3042,318 V 838.6 1359 h 74.6 c 40.8,0 94,-0.2 118,-0.6 z"
       id="path117" />
    <path
       d="M 3054,838 V 330 h 106.6 106.4 l 57,120.6 c 31.2,66.2 60.8,128.6 65.6,138.4 l 8.6,18 -0.6,-44 c -0.2,-24.2 -0.2,-86.6 0,-138.4 L 3398,330 h 105 105 v 508 508 h -105 -105 l -0.2,-19.4 c -0.2,-10.8 0,-90.6 0.2,-177.6 l 0.2,-158 -57.4,-121 c -31.4,-66.6 -61.2,-129.6 -66,-140 l -8.8,-19 v 317.6 317.4 h -106 -106 z m 347.4,391.6 c -0.2,-21.2 -0.4,-4 -0.4,38.4 0,42.4 0.2,59.6 0.4,38.6 0.4,-21.2 0.4,-56 0,-77 z m 0,-212 c -0.2,-16.8 -0.6,-3.2 -0.6,30.4 0,33.6 0.4,47.2 0.6,30.6 0.4,-16.8 0.4,-44.4 0,-61 z m 0,-476.2 c -0.2,-14.6 -0.6,-2 -0.6,27.6 0,29.8 0.4,41.6 0.6,26.4 0.4,-15.2 0.4,-39.6 0,-54 z m 102.2,-208 101.4,-0.4 -102.4,-0.6 -102.6,-0.4 0.4,48.6 0.6,48.4 0.4,-47.4 0.6,-47.6 z m -355,-0.8 c -16.8,-0.4 -44.4,-0.4 -61,0 -16.8,0.2 -3.2,0.6 30.4,0.6 33.6,0 47.2,-0.4 30.6,-0.6 z m 95,0 c -12,-0.4 -31.2,-0.4 -43,0 -12,0.2 -2.2,0.6 21.4,0.6 23.6,0 33.4,-0.4 21.6,-0.6 z"
       id="path119" />
  </g>
  <g
     fill="#ff1e26"
     id="g137"
     transform="translate(-795,-283.99902)">
    <path
       d="m 1626.6,2262.4 c -14.6,-5.2 -23.2,-12.6 -37.8,-32.2 -21.2,-28.6 -36.4,-63 -43.6,-98.6 -4.6,-22.6 -7.8,-54.2 -6.8,-69.8 0.6,-11.4 1.6,-14.8 6.8,-21.2 8.8,-11.2 29.8,-21.2 44.4,-21.4 21.4,0 30.4,9 30.4,31.2 0,17.4 3.6,45.6 8.2,63.2 8,31.2 21.4,51.2 36.2,53.6 6.6,1.2 7.2,0.8 17,-12.4 32.4,-44.4 53.4,-85 73.4,-142.8 8.8,-24.8 25.2,-78.6 25.2,-82 0,-0.8 -6.6,2 -14.4,6.2 -19.4,10.2 -41.8,17.4 -64.2,20.2 -15.6,1.8 -20.8,1.8 -34.4,-1 -50,-10.2 -87.2,-49.4 -103.4,-108.4 -2.2,-7.6 -4.8,-26.2 -5.8,-41 -1.8,-23.6 -1.6,-30.2 1.8,-53.4 3.2,-20.8 3.6,-28.2 2,-35 -3.8,-15.2 -2.4,-50.2 3.2,-79.6 20.2,-107.2 67.6,-206.2 137.4,-287.2 21,-24.2 68.4,-70.2 86.6,-84 l 13.2,-9.8 v -61.4 -61.6 h -72 -72 v 103 103 h -99 -99 l 0.4,-411.4 0.6,-411.6 5.6,-18.8 c 11.8,-40.6 30.4,-71.2 62.6,-103.4 39,-39 83.6,-63 139.4,-75.2 17.4,-3.8 26.4,-4.4 61.4,-4.4 34.6,0 44.2,0.8 61.4,4.4 52.8,11.4 96.4,34.6 135.2,72.2 37.4,36.2 56.8,69.4 68.8,117.8 3,12.2 3.4,42.4 4,329 l 0.6,315.4 5.6,-1.2 c 3,-0.6 8.6,-2 12.4,-2.8 14.8,-3.6 49.6,-6.4 64.2,-5.4 17.4,1.4 37.2,7.4 48.2,14.6 l 7.6,4.8 h 127.6 c 142.6,0 142.4,0 162.2,-13.6 48,-32.6 34.6,-102.4 -22.2,-117.6 -5.8,-1.4 -17.6,-2.8 -26,-2.8 -72.6,0 -143.2,-29.4 -194.6,-81 -35.8,-35.6 -56.2,-72.8 -66.4,-119.8 -3.8,-18.2 -6.2,-252.6 -2.8,-289.2 6.8,-73.8 44.4,-134.6 111.2,-179.4 83.2,-55.8 204.8,-61.4 294.4,-13.4 62.4,33.6 109.4,90.4 126.2,152.6 5,18.4 5.2,21.8 6,83.8 l 0.6,64.4 h -97.8 -98 l -0.8,-52.4 c -0.6,-49 -1,-53.2 -5,-62 -6,-13.2 -21,-28.6 -34.4,-35 -10.2,-5 -13.2,-5.6 -33.2,-5.6 -20.2,0 -23,0.4 -34,5.8 -11.6,5.8 -29,21.4 -29,26 0,1.2 3.2,4.8 7,7.8 3.8,3 7,6.4 7,7.6 0,4 -9,0.8 -11.4,-4.2 -1.6,-3 -2.6,-3.8 -2.8,-2 0,2 -0.6,1.6 -1.6,-1 -1.4,-3.4 -2,-2.6 -4.2,4.8 -1.8,6.6 -2.4,42.2 -2.2,135.2 0,123.6 0,126.4 4.2,137.6 6.8,18 24.4,33.6 45,39.8 3.2,1 19,2.6 35,3.8 76.2,5.2 132,28.2 181.4,74.8 30,28.2 52,61.2 63.8,95.2 14.6,43.4 14.6,102 0,145.2 -24.8,73 -93.8,136.2 -173.6,159.4 -37,10.6 -46.8,11.2 -207.4,11.2 h -148.4 l 0.4,-27.2 c 0,-14.8 -0.4,-27.6 -1,-28.2 -0.6,-0.6 -7.2,3.4 -14.6,8.8 -7.4,5.4 -21.2,15.2 -30.6,21.6 -116.8,80.2 -158.6,130.4 -166.4,200.2 -2.8,24.2 -0.8,31.6 14,51.2 17.2,22.4 18.4,24.4 18.4,30.2 0,8 -4.6,15.4 -14.8,23.4 -5,3.8 -9,7.6 -9,8.2 -0.2,0.6 7.2,-1 16.4,-3.8 12.6,-4 21,-5.2 36,-5.2 l 19.8,-0.2 5.8,6.6 c 8.2,9.2 8,22.6 -0.4,40.4 -3.4,7.2 -7.8,14.8 -9.6,17 -2,2.2 -9,13 -15.6,24 -12.4,20.6 -13.6,24.8 -23.4,78.2 -1.6,8.2 -63.6,200.8 -75,232.8 -41.4,116.4 -75.6,174.4 -125.4,212.4 -36,27.6 -85.2,41.6 -112.2,32 z M 1669,2237 c 18.2,-4.6 46.4,-19.6 61.4,-32.4 36,-31 63,-74 91.8,-146.6 12.2,-31 30.6,-85.4 75.8,-223.6 13.4,-41 25.8,-76.2 27.8,-78 1.8,-1.8 4.6,-6 6.2,-9.4 1.6,-3.2 3.4,-6.4 4,-7 0.6,-0.6 3.6,-7.8 6.6,-16 3.2,-8.2 6.4,-16.6 7.6,-18.4 1,-2 1.8,-4.6 1.8,-6 0,-1.4 5.4,-13.2 11.8,-26 10.4,-20.8 12.4,-28.4 6.4,-24.8 -1,0.8 -1.4,-0.6 -0.8,-2.8 1.8,-7.2 -10,-5.2 -56.2,9.4 l -29.8,9.4 -3.4,8.4 c -8.2,18.8 -22.8,61.4 -31.2,90.6 -14.4,50.2 -36.4,91.6 -61.4,115.6 -22.8,22 -42.4,29.6 -71.2,28.2 -13.4,-0.8 -19.4,-2 -27.4,-6.2 -26.2,-13.4 -42.8,-47.2 -49,-99.8 -3,-26.4 -1.2,-99.2 3.2,-127.6 24.8,-161.2 114.2,-306.6 251,-409.2 15.8,-12 45.2,-28.2 47.2,-26.2 0.2,0.2 -6.8,4.2 -15.8,8.8 -9,4.6 -26.8,16.6 -39.4,26.6 -74.6,59 -135,131 -175.6,209.6 -17,32.8 -29,60.4 -26.2,60.4 1,0 1.8,-1.2 1.8,-2.8 0,-6 38.6,-79.6 54.2,-103.2 28.8,-43.6 53.2,-73 93.8,-113 36.6,-36.2 70.8,-63.2 95,-75 34,-16.6 76.2,-30.2 108,-34.8 3.4,-0.4 -0.8,-0.4 -9,0 -15.4,0.6 -53.8,10.6 -72.8,18.6 -5.4,2.4 -10.2,4 -10.6,3.4 -1.4,-1.4 39.4,-16.4 57.4,-21.2 11.6,-3 25.6,-4.6 44,-5.4 31.4,-1.2 39.6,0.8 45,11.6 7,13.4 -0.8,27.2 -26.4,47 -9.6,7.6 -23.6,19 -30.8,25.8 -7.2,6.6 -35.6,29.6 -63,51 -95.8,75.2 -132,119.6 -148,181.6 -6,22.6 -7.2,50.6 -3.2,64.6 4.4,14.8 15.6,27.8 30.8,35.6 l 13.4,6.8 13.6,-11.8 c 7.4,-6.6 15.4,-13.2 17.6,-14.8 3.8,-2.8 3.8,-2.8 1.2,0.6 -3.8,4.8 0.4,4.2 4.8,-0.6 6,-6.8 5,-12.2 -5,-25.2 -12.6,-16.6 -18.6,-29.4 -19.6,-42.6 -0.4,-8.2 -0.2,-10.4 1.4,-8.2 1.6,2.4 2.2,1.4 2.2,-4 0,-10.4 5.6,-42.6 9.2,-53.4 4.8,-14.4 16.2,-36.2 25.4,-48.6 26.2,-35.6 52,-58.8 129.2,-116.6 32.6,-24.4 64.6,-49.8 71.4,-56.4 6.6,-6.6 8.8,-9.2 4.8,-6 -6,5 -5.8,4.8 1.2,-2.4 4.8,-4.8 8.2,-8.6 7.8,-8.6 -0.4,0 0.6,-3.2 2.2,-7 6.8,-16.4 0.6,-37.4 -14.2,-47.4 -28.2,-19.2 -88,-14 -155.8,13.6 -50.6,20.6 -111.6,56.6 -157.2,92.8 -27,21.2 -74.8,69 -96,96 -72.8,91.8 -115.2,198.6 -126,317 -4.2,45.6 -1.4,109.4 6,138.4 8.4,32.2 28.8,63.4 51.4,78.4 5.2,3.6 15.8,8.2 23.4,10.6 25.2,7.6 59.6,2.2 91,-14.6 17,-9.2 24.8,-15 46.8,-34.4 13.2,-11.8 16,-13.6 18.4,-11.2 2.2,2.4 1,8.8 -6.8,39.8 -34.4,133.6 -65.4,205.6 -115.4,268.2 -9,11.2 -12,13.6 -19.8,15.6 -15.6,4 -32.2,-1.2 -44.4,-14.2 -7.8,-8.2 -16.8,-27.2 -23.4,-49.6 -2.8,-9.4 -5.2,-15.2 -5.4,-13 -0.8,11.2 -6.2,-21.4 -7.2,-44.4 -1.2,-26.4 -1.2,-26.6 -6,-26.6 -5.8,0 -18.2,5 -23,9.4 -7,6.4 -3,55.2 7.4,91.6 10.2,35.8 38.4,82.6 55,91.4 8.4,4.4 22.8,4.6 39,0.6 z m 78.4,-360 c 12.6,-5.6 26.2,-18 37.6,-34 10.8,-15 30.2,-52 40,-76 4.2,-9.8 10,-23 13,-29 4,-7.8 6.4,-16.8 8,-31 1.4,-11 4.8,-26 7.4,-33.6 4.8,-13.2 4.8,-17.4 0,-17.4 -1.4,0 -8,-2.6 -15,-6 -16.2,-7.6 -30,-21.6 -38.6,-39 l -6.8,-14 0.2,-30 c 0.2,-32.8 2.6,-46 14.8,-76.4 17.4,-44 56.2,-91.8 109.8,-135.8 l 17,-13.8 -45,-0.6 -44.8,-0.6 -18.6,19.6 c -40.8,42.8 -75.4,91.6 -101.6,143.2 -26.2,51.8 -41.6,96 -53.8,155.8 -3.8,19 -8.4,40 -10.2,46.6 -6.8,26 -6.8,20.6 0.4,73 6.8,49.8 12.6,71 24,86.6 13.8,19 37,23.6 62.2,12.4 z M 1643,1756.4 c 0,-29.4 -0.6,-49.4 -1.4,-44.4 -2.4,16.2 -1.4,98 1.2,98 0.2,0 0.2,-24 0.2,-53.6 z m 404.6,-506.2 c 9,-7 16.4,-13.4 16.4,-14.4 0,-1 -2,-1.8 -4.4,-1.8 -8.2,0 -38.4,3.8 -49,6.2 l -10.6,2.4 v 24 23.8 l 15.6,-13.8 c 8.4,-7.4 22.8,-19.4 32,-26.4 z M 1802,753.4 c 0,-180.2 -0.4,-203.8 -3.2,-213.4 -10.2,-34.2 -45,-54.6 -82.2,-48 -17.4,3 -30.6,10.2 -42.6,23.4 -17,18.6 -16,2.6 -16,235 V 956 h 72 72 z"
       id="path123" />
    <path
       d="m 2576,2141.8 c -13.6,-6.2 -21.6,-13.2 -30,-26 -16.6,-25.8 -24.8,-58 -28.2,-110.2 -4,-63.4 5.4,-167.8 21.2,-237.6 1.6,-7.2 2.8,-15.6 2.8,-19 0,-5.8 -0.2,-5.8 -13.4,8 -7.4,7.8 -17,16.6 -21.4,19.8 -4.4,3.4 -8.4,6.6 -9,7.4 -2.4,3.4 -23.4,11.8 -29.6,11.8 -3.8,0 -9.8,-1.4 -13.4,-3.2 -9,-4.2 -17,-25 -18.2,-47.8 -1,-14.8 -5.8,-38 -8.8,-41.6 -0.6,-0.8 -6.4,4.4 -12.8,11.6 -10.4,11.8 -12.8,16.4 -23.4,44.4 -6.4,17.2 -11.8,31.6 -11.8,31.8 0,1.2 -40.2,30.8 -45.6,33.6 -3.4,1.8 -10.4,3.2 -15.4,3.2 -8.2,0 -10.2,-1 -19.2,-9.4 -13.6,-12.8 -15.2,-16.6 -14.4,-34 0.6,-8 0.4,-14.6 -0.4,-14.6 -0.8,0 -6.8,5.2 -13.6,11.8 -22.8,21.6 -52.6,39.4 -76,45.4 -11.8,3 -14,3 -23.8,0 -13.2,-3.8 -24,-12.6 -29.4,-23.8 -3.6,-7.6 -4.2,-12 -3.8,-36.6 0.4,-32.6 -1.2,-38 -10.8,-36 -7.2,1.4 -13.2,5.6 -35.6,24.2 -9.4,7.8 -20.6,16.6 -25,19.4 -4.4,3 -10.4,7.8 -13.6,10.6 -7.6,7.2 -17.6,11 -28.8,11 -8.4,-0.2 -25.8,-5.4 -19,-5.8 2,-0.2 1.8,-1 -0.6,-3.4 -10,-10.2 -14,-32 -8.8,-48.8 1.2,-3.8 2.4,-14.2 2.8,-23 0.4,-8.8 2,-19.8 3.8,-24.4 1.6,-4.8 2.6,-8.6 2,-8.6 -0.6,0 0.6,-3 2.8,-6.4 2.2,-3.6 7.2,-12.8 11.4,-20.6 10.6,-19.6 27.2,-45.2 42,-64 35.6,-45.8 79.4,-71.4 137,-80.2 39,-5.8 56.4,-2.8 69.2,11.6 3.4,4 9,7.8 12.4,8.6 8.2,1.8 16.4,11.6 16.4,19.6 0,8 -12.2,66.8 -21,101.4 -3.6,14.8 -6.4,27.2 -6.2,27.6 0.8,0.6 28,-30.4 43.6,-50 5,-6.2 11,-16.2 13.2,-22.2 14.4,-38.2 40.8,-92.2 47.2,-96.4 7.6,-5 93.2,-18.4 102.4,-16.2 8.4,2.2 14.8,10 14.8,18.2 0,4 -1,9.2 -2.2,11.4 -2,3.8 -1.8,4 1.4,2.6 17.2,-7.2 46.6,-17 51.2,-17 12.2,0 31.4,14.2 38,28.2 6.4,13.4 5.2,27.2 -4.4,56.8 -3.8,11.4 -3.8,11.8 -0.2,7.2 2,-2.8 9.8,-16 17.2,-29.6 7.4,-13.4 16.2,-27.2 19.6,-30.4 4.6,-4.6 14,-8.8 39.2,-17.2 18.2,-6 34.8,-11 36.8,-11 2,0 7.8,2.2 13,4.8 29.8,15.2 37.6,43.4 23,84.6 -0.6,2 3.2,-0.6 8.6,-5.6 25.8,-24.4 40.2,-32.4 99.4,-56.6 45.2,-18.4 59,-22 79.4,-20.6 28.8,2 52.2,16.2 62.8,38 9,18.2 8.8,26.2 -0.4,47.2 -10.2,23.2 -30.2,53.2 -46.8,70.4 -12.4,13 -23.2,20.2 -58.6,38.8 -9.8,5.2 -20.6,12 -23.8,15 l -5.8,5.6 4.8,2.6 c 8.2,4.8 43.4,3 65.8,-3.2 10.4,-2.8 20.2,-5.4 21.6,-5.4 2.8,-0.2 11.8,-11.6 9.2,-11.6 -0.8,0 0,-1.6 1.8,-3.6 2,-2 2.8,-4.4 2,-5 -0.6,-0.8 -0.4,-1.4 0.8,-1.4 1.2,0 4,-4 6.4,-8.8 2.2,-5 7.2,-11.2 11,-14.2 13.4,-10.2 25.2,-26.2 28.4,-38 6.8,-26.8 17,-40.2 53.8,-71 32.6,-27.4 51.8,-37.4 102,-53 47.4,-14.6 75.6,-21 94,-21 35.2,0 62.6,13.4 74.2,36.2 12,23.8 0.8,47.8 -28.6,61.2 -26.8,12.4 -50.2,10.8 -66.2,-4.6 -5.2,-5.2 -11,-8.8 -13.6,-8.8 -6.8,0 -38.4,14.2 -54,24.4 -16.6,10.6 -30.8,24.6 -36,35 -2.6,5 -3.8,11.6 -3.8,19.6 0.2,10.2 1.6,15 10,32 9.8,19.8 10.2,20 17.6,20.6 9.4,0.8 33,-10 43.4,-19.6 11,-10.4 100.4,-48 113.8,-48 7,0 25,13.8 29.4,22.4 3,6 2.4,19.4 -0.8,19.8 -6.2,0.6 -12.4,2.6 -32.4,9.4 -20.4,7.2 -45.4,15.2 -60,19.4 -11,3 3.4,-4.8 34,-18.6 29.4,-13.4 31,-14.4 31,-19.8 0,-4.8 -0.8,-5.6 -5.2,-5.2 -12.4,0.8 -108.8,42 -143.6,61.4 -9.2,5 -18.2,9.2 -20,9.2 -3.8,0 -27,-34.6 -35.2,-52.4 -10.4,-23 -10.4,-44.2 0.4,-64 7.4,-13.4 32.4,-36.6 51.4,-47.4 8.4,-4.8 24,-12.4 34.8,-16.8 17.6,-7.2 20.4,-7.8 32.8,-7 14.2,1.2 19.6,3.8 19.6,9.4 0,6.6 8.6,12.2 18.4,12.2 15.8,0 36.2,-9.8 41.6,-20 5.2,-9.6 -9,-25.6 -27.4,-31.2 -22.2,-6.8 -44.6,-3.8 -107.6,15.2 -52.8,15.8 -71,25.8 -111.8,61.8 -21.4,19 -28,29.2 -32.2,49.6 -2.8,13.6 -2.8,13.6 -24.4,34.6 -33.2,32 -67.4,54 -100.6,64.2 -11.8,3.8 -19.6,4.8 -37,4.8 -23.4,0 -30.8,-1.8 -42.8,-10.6 -7.6,-5.6 -17.8,-25.6 -14.8,-28.6 1.2,-1.2 7.6,-3.4 14.6,-5 31.8,-7.4 62.4,-24.2 88.2,-48.4 22.4,-21.2 35.4,-38.2 48.2,-63.6 11.6,-23.6 11.8,-29.8 1.2,-42 -14,-16 -39,-21 -65.2,-13 -23.6,7.2 -92.8,36.8 -105.4,45.2 -18.8,12.6 -48.2,41.8 -53.8,53.6 -7.4,15.4 -11.2,31.8 -12.6,55.8 -3.2,55.2 16.2,82.4 65.8,92.4 27.6,5.6 57.6,3.8 85.6,-5.2 15.8,-5 83.8,-39.6 95,-48.2 4.4,-3.4 9.4,-7 11,-8.2 1.6,-1.2 -0.4,2.4 -4.6,7.8 -17.8,24.2 -24.4,32.8 -25.8,32.8 -1,0.2 -1.6,1.4 -1.6,2.8 0,3 -28.6,21.2 -46,29 -49.6,22.6 -108.8,23.6 -151.4,3 -27.8,-13.6 -41,-32.4 -44.8,-64.6 -1.2,-8.2 -3.4,-22.8 -5,-32.4 -2,-11.2 -2.6,-22 -1.8,-30 l 1.4,-12.6 -4.4,8 c -2.4,4.4 -9.6,17.4 -16,29 -9.6,16.8 -12.6,24.8 -15.8,40 -2,10.4 -6.2,30.2 -9,44 -19.6,94 -23.6,178.6 -12,255 3.8,26.6 4,26.6 13,30.4 10.8,4.2 15.8,11.2 15.8,21.6 0,8 -1,9.4 -16.6,24.4 -14.2,13.6 -18.2,16.2 -28.6,19.2 -15.8,4.4 -25.8,4.2 -36.8,-0.8 z m 43.4,-32.2 6.6,-6.4 -6,-2.4 c -7.2,-3.2 -10.4,-12.8 -16.2,-51 -5.4,-34.6 -7.4,-117.2 -3.8,-156.2 8.6,-95.6 34.8,-185.2 74.6,-254.2 23.2,-40.4 28.2,-52.4 29,-68.6 0.8,-12.8 0.4,-14.6 -4.6,-20.4 -3,-3.6 -7,-7.4 -8.8,-8.4 -4.2,-2.2 -56.6,14 -62.4,19.2 -2.2,1.8 -8.6,12.6 -14.6,24 -19.4,36.4 -47.4,75.4 -80.8,112.4 -17,18.6 -22.4,20.8 -22.4,8.8 0,-13.4 7.2,-37 24.8,-81 9.4,-23.2 18.6,-48.6 20.4,-56.4 2.8,-13 2.8,-14.4 -0.2,-20 -1.8,-3.2 -5.6,-7.8 -8.4,-9.8 -5,-3.6 -5.4,-3.6 -16.4,-0.2 -19.2,6 -39,16 -44.6,22.8 -3,3.4 -10.6,15 -16.8,25.8 -21.8,37.2 -53.8,82.4 -58.2,82.4 -1.6,0 -3.2,-1.4 -3.8,-3 -1.8,-4.6 26.2,-82.6 44,-122.8 5,-11.4 8.8,-21.2 8.2,-21.8 -0.6,-0.6 -15.2,1 -32.4,3.4 -23,3.4 -32.8,5.8 -36.8,8.6 -6,4.4 -21.4,35.4 -36.6,73.8 -8,19.6 -11.8,26 -25.4,43 -22,27.2 -51.6,60 -75.6,83.6 -16.2,16.2 -20.4,19.4 -22.8,17.6 -3.6,-3 -4,-0.8 15.6,-82.4 14.8,-60.8 20,-84.2 23.8,-107.2 1,-6 0.8,-6.2 -6.2,-6 -6.8,0.2 -7.4,-0.2 -8.8,-6.8 -0.8,-3.8 -4,-9.2 -7,-11.8 -5.4,-4.6 -6.6,-4.8 -26.8,-3.6 -12,0.6 -29,3.2 -40,6 -61.2,15.8 -93.4,47 -149.4,144.4 -17.8,31 -22.6,44 -22.6,61.4 0,19.2 7.2,27.8 21,25.2 3.4,-0.8 5,-0.2 5,1.6 0,4 3,3.4 9.4,-1.8 7.4,-6.2 23.6,-15.4 27,-15.4 7.4,0 53.2,-41.4 51.6,-47 0,-0.6 9,-11.2 20.2,-23.2 17.8,-19.2 20.8,-21.6 23.4,-19.2 2.4,2.6 2.4,5.4 -0.4,21.4 -8,46.6 -9,88.8 -2.4,101.6 10.8,20.8 30,18.8 69.8,-7.4 24.8,-16.4 39.2,-32.6 83.4,-94.2 9.2,-12.6 16,-21.2 15.2,-19 -6.4,17.6 -19.8,86 -21.6,111.2 -0.8,10 -0.2,12 4.6,18 4.8,6 5.8,6.4 10.6,4.2 2.8,-1.2 9.8,-6.2 15.8,-10.8 5.8,-4.8 13.4,-10.8 17,-13.6 5,-3.8 9.2,-11.2 17.6,-31 16.2,-37.8 36,-69.2 61.2,-97 13.8,-15.2 14.8,-13.4 16.6,26.6 0.8,17.8 1.6,42.8 1.8,55.6 1,33.8 7,44.2 21.6,36.6 23,-11.6 29,-17 42,-36.4 27.2,-41.6 61.6,-84 68,-84.2 5.6,-0.2 6,3.4 1.8,14.8 -14,37.6 -32.6,135.8 -41.4,220 -5,46.2 -5,128.8 -0.2,157.6 3.8,22.8 9.2,41.4 15.6,54 5.6,10.6 18.4,23 26.2,25 9,2.4 22.8,-2.2 31,-10 z"
       id="path125" />
    <path
       d="m 2062.4,1731.2 c -1.8,-3.8 -0.8,-7.6 5.6,-22 19.4,-44 64.4,-95.6 110.2,-126.6 34.2,-23.4 -2.2,45.6 -51.6,97.4 -17.8,18.8 -58.4,56 -61,56 -0.6,0 -2,-2.2 -3.2,-4.8 z"
       id="path127" />
    <path
       d="m 1056,1360 c -64.8,-9 -117.2,-34.8 -162,-80 -41.8,-42 -62.6,-84.6 -67.8,-140 -2.6,-26.2 -2.6,-581.8 0,-606 5.8,-56.8 30.6,-104.6 75.6,-146.4 49.6,-45.8 109.2,-70 180.4,-73 87.4,-3.6 161.2,25.2 218.2,85.2 37.4,39.2 57.2,80 63.6,130.8 1,9 2,38.6 2,65.8 V 646 h -98.8 -99 l -0.6,-51.6 -0.6,-51.6 -6.6,-13.2 c -13.8,-28.2 -46,-43.4 -78.4,-37.6 -17.6,3.2 -29.6,9.8 -41.6,22.8 -18.2,20.2 -16.8,-8 -16.6,323.6 0.2,329.8 -1.2,303.2 16.2,322.2 12,13.2 25.2,20.4 42.6,23.4 32.8,5.8 65.4,-10.6 79.2,-39.8 5.2,-11 5.2,-11.8 5.8,-62.6 l 0.6,-51.6 h 99 98.8 v 49.6 c 0,27.2 -1,56.8 -2,65.8 -6.8,53.8 -27.4,94.2 -68.8,135.6 -40.2,40 -83,63.4 -138.2,75 -22.8,4.8 -79,7 -101,4 z"
       id="path129" />
    <path
       d="m 3962,1360.8 c -34.4,-3.2 -72.4,-13.2 -101,-26.8 -58.8,-28.2 -109.8,-81.4 -130.2,-135.6 -14.6,-39.2 -13.6,-13.6 -14.4,-347.4 -0.4,-213.4 0,-305.8 1.6,-319.8 6,-52.2 27,-94.4 67,-134.2 40.2,-40 86,-65.4 137.6,-75.8 66,-13.6 137,-5.4 191.8,22 36,18 74.4,50 98,81.6 15.4,20.6 30.2,51 37.2,76.2 l 5.4,20 v 317 317 l -5.4,20 c -11.6,41.6 -34,77.8 -68.4,110.4 -40.8,38.6 -87.6,62.2 -142,71.6 -18.2,3 -61.2,5.2 -77.2,3.8 z m 39.2,-177 c 15.8,-2.8 29.2,-10.4 40.8,-23.2 17.4,-19 16,8.2 16,-323.4 V 543 l -5.2,-11 c -16.4,-35.6 -57,-50.4 -96.8,-35.4 -15.2,5.6 -31.8,22.4 -37.6,38 l -4.4,11.6 V 838 c 0,289.4 0,292 4.2,302.8 7.8,21 29,38.6 51.8,43 12.8,2.4 17.6,2.4 31.2,0 z"
       id="path131" />
    <path
       d="M 2744,839 V 336 h 99 99 l -0.4,502.6 -0.6,502.4 -98.4,0.6 -98.6,0.4 z"
       id="path133" />
    <path
       d="M 3062,838 V 336 l 100.2,0.4 100.2,0.6 70.2,148.8 70.4,148.8 0.6,-149.2 0.4,-149.4 h 99 99 v 502 502 h -99 -99 V 1163.2 986.4 l -72.4,-153.2 -72.6,-153.4 -0.6,330.2 -0.4,330 h -98 -98 z"
       id="path135" />
  </g>
  <g
     fill="#763c04"
     id="g161"
     transform="translate(-795,-283.99902)">
    <path
       d="m 1626.6,2262.4 c -14.6,-5.2 -23.2,-12.6 -37.8,-32.2 -21.2,-28.6 -36.4,-63 -43.6,-98.6 -4.6,-22.6 -7.8,-54.2 -6.8,-69.8 0.6,-11.4 1.6,-14.8 6.8,-21.2 8.8,-11.2 29.8,-21.2 44.4,-21.4 21.4,0 30.4,9 30.4,31.2 0,17.4 3.6,45.6 8.2,63.2 8,31.2 21.4,51.2 36.2,53.6 6.6,1.2 7.2,0.8 17,-12.4 32.4,-44.4 53.4,-85 73.4,-142.8 8.8,-24.8 25.2,-78.6 25.2,-82 0,-0.8 -6.6,2 -14.4,6.2 -19.4,10.2 -41.8,17.4 -64.2,20.2 -15.6,1.8 -20.8,1.8 -34.4,-1 -50,-10.2 -87.2,-49.4 -103.4,-108.4 -2.2,-7.6 -4.8,-26.2 -5.8,-41 -1.8,-23.6 -1.6,-30.2 1.8,-53.4 3.2,-20.8 3.6,-28.2 2,-35 -3.8,-15.2 -2.4,-50.2 3.2,-79.6 20.2,-107.2 67.6,-206.2 137.4,-287 60,-69.6 132.8,-125 216.6,-165 52.2,-25 88.4,-36.2 130.8,-40.4 41,-4 69.4,2.6 89.4,20.8 14.6,13.4 19.8,25.6 19.8,47.6 0.2,34.6 -7.2,42.8 -93.8,103 -115.4,80.2 -155.6,129 -163.4,198.2 -2.8,24.2 -0.8,31.6 14,51.2 17.2,22.4 18.4,24.4 18.4,30.2 0,8 -4.6,15.4 -14.8,23.4 -5,3.8 -9,7.6 -9,8.2 -0.2,0.6 7.2,-1 16.4,-3.8 12.6,-4 21,-5.2 36,-5.2 l 19.8,-0.2 5.8,6.6 c 8.2,9.2 8,22.6 -0.4,40.4 -3.4,7.2 -7.8,14.8 -9.6,17 -2,2.2 -9,13 -15.6,24 -12.4,20.6 -13.6,24.8 -23.4,78.2 -1.6,8.2 -63.6,200.8 -75,232.8 -41.4,116.4 -75.6,174.4 -125.4,212.4 -36,27.6 -85.2,41.6 -112.2,32 z M 1669,2237 c 18.2,-4.6 46.4,-19.6 61.4,-32.4 36,-31 63,-74 91.8,-146.6 12.2,-31 30.6,-85.4 75.8,-223.6 13.4,-41 25.8,-76.2 27.8,-78 1.8,-1.8 4.6,-6 6.2,-9.4 1.6,-3.2 3.4,-6.4 4,-7 0.6,-0.6 3.6,-7.8 6.6,-16 3.2,-8.2 6.4,-16.6 7.6,-18.4 1,-2 1.8,-4.6 1.8,-6 0,-1.4 5.4,-13.2 11.8,-26 10.4,-20.8 12.4,-28.4 6.4,-24.8 -1,0.8 -1.4,-0.6 -0.8,-2.8 1.8,-7.2 -10,-5.2 -56.2,9.4 l -29.8,9.4 -3.4,8.4 c -8.2,18.8 -22.8,61.4 -31.2,90.6 -14.4,50.2 -36.4,91.6 -61.4,115.6 -22.8,22 -42.4,29.6 -71.2,28.2 -13.4,-0.8 -19.4,-2 -27.4,-6.2 -26.2,-13.4 -42.8,-47.2 -49,-99.8 -3,-26.4 -1.2,-99.2 3.2,-127.6 24.8,-161.2 114.2,-306.6 251,-409.2 15.8,-12 45.2,-28.2 47.2,-26.2 0.2,0.2 -6.8,4.2 -15.8,8.8 -9,4.6 -26.8,16.6 -39.4,26.6 -74.6,59 -135,131 -175.6,209.6 -17,32.8 -29,60.4 -26.2,60.4 1,0 1.8,-1.2 1.8,-2.8 0,-6 38.6,-79.6 54.2,-103.2 28.8,-43.6 53.2,-73 93.8,-113 36.6,-36.2 70.8,-63.2 95,-75 34,-16.6 76.2,-30.2 108,-34.8 3.4,-0.4 -0.8,-0.4 -9,0 -15.4,0.6 -53.8,10.6 -72.8,18.6 -5.4,2.4 -10.2,4 -10.6,3.4 -1.4,-1.4 39.4,-16.4 57.4,-21.2 11.6,-3 25.6,-4.6 44,-5.4 31.4,-1.2 39.6,0.8 45,11.6 7,13.4 -0.8,27.2 -26.4,47 -9.6,7.6 -23.6,19 -30.8,25.8 -7.2,6.6 -35.6,29.6 -63,51 -95.8,75.2 -132,119.6 -148,181.6 -6,22.6 -7.2,50.6 -3.2,64.6 4.4,14.8 15.6,27.8 30.8,35.6 l 13.4,6.8 13.6,-11.8 c 7.4,-6.6 15.4,-13.2 17.6,-14.8 3.8,-2.8 3.8,-2.8 1.2,0.6 -3.8,4.8 0.4,4.2 4.8,-0.6 6,-6.8 5,-12.2 -5,-25.2 -12.6,-16.6 -18.6,-29.4 -19.6,-42.6 -0.4,-8.2 -0.2,-10.4 1.4,-8.2 1.6,2.4 2.2,1.4 2.2,-4 0,-10.4 5.6,-42.6 9.2,-53.4 4.8,-14.4 16.2,-36.2 25.4,-48.6 26.2,-35.6 52,-58.8 129.2,-116.6 60.2,-45.2 83.8,-65.2 85,-72.4 0.6,-2.2 1.8,-6.6 3,-9.6 6,-15.4 -0.8,-36.2 -14.8,-45.8 -28.2,-19.2 -88,-14 -155.8,13.6 -50.6,20.6 -111.6,56.6 -157.2,92.8 -27,21.2 -74.8,69 -96,96 -72.8,91.8 -115.2,198.6 -126,317 -4.2,45.6 -1.4,109.4 6,138.4 8.4,32.2 28.8,63.4 51.4,78.4 5.2,3.6 15.8,8.2 23.4,10.6 25.2,7.6 59.6,2.2 91,-14.6 17,-9.2 24.8,-15 46.8,-34.4 13.2,-11.8 16,-13.6 18.4,-11.2 2.2,2.4 1,8.8 -6.8,39.8 -34.4,133.6 -65.4,205.6 -115.4,268.2 -9,11.2 -12,13.6 -19.8,15.6 -15.6,4 -32.2,-1.2 -44.4,-14.2 -7.8,-8.2 -16.8,-27.2 -23.4,-49.6 -2.8,-9.4 -5.2,-15.2 -5.4,-13 -0.8,11.2 -6.2,-21.4 -7.2,-44.4 -1.2,-26.4 -1.2,-26.6 -6,-26.6 -5.8,0 -18.2,5 -23,9.4 -7,6.4 -3,55.2 7.4,91.6 10.2,35.8 38.4,82.6 55,91.4 8.4,4.4 22.8,4.6 39,0.6 z m 78.4,-360 c 12.6,-5.6 26.2,-18 37.6,-34 10.8,-15 30.2,-52 40,-76 4.2,-9.8 10,-23 13,-29 4,-7.8 6.4,-16.8 8,-31 1.4,-11 4.8,-26 7.4,-33.6 4.8,-13.2 4.8,-17.4 0,-17.4 -1.4,0 -8,-2.6 -15,-6 -16.2,-7.6 -30,-21.6 -38.6,-39 l -6.8,-14 0.2,-30 c 0,-24 1,-33 4.4,-45.4 13.8,-50.8 39.4,-91 85.8,-135.6 21.6,-20.8 34,-31.2 87.6,-73.2 15.4,-12 35.4,-28.2 44.4,-36 9,-8 23.6,-20 32.4,-26.8 9,-6.8 16.2,-13.4 16.2,-14.4 0,-2.6 -27.6,-0.4 -47.6,3.6 -37.4,7.6 -82.2,27.6 -111.4,49.8 -76.8,58.2 -138.8,131.6 -180.2,213.6 -26.2,51.8 -41.6,96 -53.8,155.8 -3.8,19 -8.4,40 -10.2,46.6 -6.8,26 -6.8,20.6 0.4,73 6.8,49.8 12.6,71 24,86.6 13.8,19 37,23.6 62.2,12.4 z M 1643,1756.4 c 0,-29.4 -0.6,-49.4 -1.4,-44.4 -2.4,16.2 -1.4,98 1.2,98 0.2,0 0.2,-24 0.2,-53.6 z"
       id="path139" />
    <path
       d="m 1901.8,1435 c 23.6,-41.4 59.6,-75.2 143.8,-135.2 62,-44.2 64.4,-46 64.4,-44.8 0,0.4 -26.6,20.8 -59,45 -32.4,24.2 -67.2,51.2 -77.4,59.8 -24,20.2 -54.4,52 -64.6,67.2 -9.8,14.8 -13.2,18.6 -7.2,8 z"
       id="path141" />
    <path
       d="m 2114,1251.4 c 0,-0.4 3,-3.2 6.6,-6.6 l 6.4,-5.8 -5.8,6.6 c -5.6,6 -7.2,7.4 -7.2,5.8 z"
       id="path143" />
    <path
       d="m 2576,2141.8 c -13.6,-6.2 -21.6,-13.2 -30,-26 -16.6,-25.8 -24.8,-58 -28.2,-110.2 -4,-63.4 5.4,-167.8 21.2,-237.6 1.6,-7.2 2.8,-15.6 2.8,-19 0,-5.8 -0.2,-5.8 -13.4,8 -7.4,7.8 -17,16.6 -21.4,19.8 -4.4,3.4 -8.4,6.6 -9,7.4 -2.4,3.4 -23.4,11.8 -29.6,11.8 -3.8,0 -9.8,-1.4 -13.4,-3.2 -9,-4.2 -17,-25 -18.2,-47.8 -1,-14.8 -5.8,-38 -8.8,-41.6 -0.6,-0.8 -6.4,4.4 -12.8,11.6 -10.4,11.8 -12.8,16.4 -23.4,44.4 -6.4,17.2 -11.8,31.6 -11.8,31.8 0,1.2 -40.2,30.8 -45.6,33.6 -3.4,1.8 -10.4,3.2 -15.4,3.2 -8.2,0 -10.2,-1 -19.2,-9.4 -13.6,-12.8 -15.2,-16.6 -14.4,-34 0.6,-8 0.4,-14.6 -0.4,-14.6 -0.8,0 -6.8,5.2 -13.6,11.8 -22.8,21.6 -52.6,39.4 -76,45.4 -11.8,3 -14,3 -23.8,0 -13.2,-3.8 -24,-12.6 -29.4,-23.8 -3.6,-7.6 -4.2,-12 -3.8,-36.6 0.4,-32.6 -1.2,-38 -10.8,-36 -7.2,1.4 -13.2,5.6 -35.6,24.2 -9.4,7.8 -20.6,16.6 -25,19.4 -4.4,3 -10.4,7.8 -13.6,10.6 -7.6,7.2 -17.6,11 -28.8,11 -8.4,-0.2 -25.8,-5.4 -19,-5.8 2,-0.2 1.8,-1 -0.6,-3.4 -10,-10.2 -14,-32 -8.8,-48.8 1.2,-3.8 2.4,-14.2 2.8,-23 0.4,-8.8 2,-19.8 3.8,-24.4 1.6,-4.8 2.6,-8.6 2,-8.6 -0.6,0 0.6,-3 2.8,-6.4 2.2,-3.6 7.2,-12.8 11.4,-20.6 10.6,-19.6 27.2,-45.2 42,-64 35.6,-45.8 79.4,-71.4 137,-80.2 39,-5.8 56.4,-2.8 69.2,11.6 3.4,4 9,7.8 12.4,8.6 8.2,1.8 16.4,11.6 16.4,19.6 0,8 -12.2,66.8 -21,101.4 -3.6,14.8 -6.4,27.2 -6.2,27.6 0.8,0.6 28,-30.4 43.6,-50 5,-6.2 11,-16.2 13.2,-22.2 14.4,-38.2 40.8,-92.2 47.2,-96.4 7.6,-5 93.2,-18.4 102.4,-16.2 8.4,2.2 14.8,10 14.8,18.2 0,4 -1,9.2 -2.2,11.4 -2,3.8 -1.8,4 1.4,2.6 17.2,-7.2 46.6,-17 51.2,-17 12.2,0 31.4,14.2 38,28.2 6.4,13.4 5.2,27.2 -4.4,56.8 -3.8,11.4 -3.8,11.8 -0.2,7.2 2,-2.8 9.8,-16 17.2,-29.6 7.4,-13.4 16.2,-27.2 19.6,-30.4 4.6,-4.6 14,-8.8 39.2,-17.2 18.2,-6 34.8,-11 36.8,-11 2,0 7.8,2.2 13,4.8 29.8,15.2 37.6,43.4 23,84.6 -0.6,2 3.2,-0.6 8.6,-5.6 25.8,-24.4 40.2,-32.4 99.4,-56.6 45.2,-18.4 59,-22 79.4,-20.6 28.8,2 52.2,16.2 62.8,38 9,18.2 8.8,26.2 -0.4,47.2 -10.2,23.2 -30.2,53.2 -46.8,70.4 -12.4,13 -23.2,20.2 -58.6,38.8 -9.8,5.2 -20.6,12 -23.8,15 l -5.8,5.6 4.8,2.6 c 8.2,4.8 43.4,3 65.8,-3.2 10.4,-2.8 20.2,-5.4 21.6,-5.4 2.8,-0.2 11.8,-11.6 9.2,-11.6 -0.8,0 0,-1.6 1.8,-3.6 2,-2 2.8,-4.4 2,-5 -0.6,-0.8 -0.4,-1.4 0.8,-1.4 1.2,0 4,-4 6.4,-8.8 2.2,-5 7.2,-11.2 11,-14.2 13.4,-10.2 25.2,-26.2 28.4,-38 6.8,-26.8 17,-40.2 53.8,-71 32.6,-27.4 51.8,-37.4 102,-53 47.4,-14.6 75.6,-21 94,-21 35.2,0 62.6,13.4 74.2,36.2 12,23.8 0.8,47.8 -28.6,61.2 -26.8,12.4 -50.2,10.8 -66.2,-4.6 -5.2,-5.2 -11,-8.8 -13.6,-8.8 -6.8,0 -38.4,14.2 -54,24.4 -16.6,10.6 -30.8,24.6 -36,35 -2.6,5 -3.8,11.6 -3.8,19.6 0.2,10.2 1.6,15 10,32 9.8,19.8 10.2,20 17.6,20.6 9.4,0.8 33,-10 43.4,-19.6 11,-10.4 100.4,-48 113.8,-48 7,0 25,13.8 29.4,22.4 3,6 2.4,19.4 -0.8,19.8 -6.2,0.6 -12.4,2.6 -32.4,9.4 -20.4,7.2 -45.4,15.2 -60,19.4 -11,3 3.4,-4.8 34,-18.6 29.4,-13.4 31,-14.4 31,-19.8 0,-4.8 -0.8,-5.6 -5.2,-5.2 -12.4,0.8 -108.8,42 -143.6,61.4 -9.2,5 -18.2,9.2 -20,9.2 -3.8,0 -27,-34.6 -35.2,-52.4 -10.4,-23 -10.4,-44.2 0.4,-64 7.4,-13.4 32.4,-36.6 51.4,-47.4 8.4,-4.8 24,-12.4 34.8,-16.8 17.6,-7.2 20.4,-7.8 32.8,-7 14.2,1.2 19.6,3.8 19.6,9.4 0,6.6 8.6,12.2 18.4,12.2 15.8,0 36.2,-9.8 41.6,-20 5.2,-9.6 -9,-25.6 -27.4,-31.2 -22.2,-6.8 -44.6,-3.8 -107.6,15.2 -52.8,15.8 -71,25.8 -111.8,61.8 -21.4,19 -28,29.2 -32.2,49.6 -2.8,13.6 -2.8,13.6 -24.4,34.6 -33.2,32 -67.4,54 -100.6,64.2 -11.8,3.8 -19.6,4.8 -37,4.8 -23.4,0 -30.8,-1.8 -42.8,-10.6 -7.6,-5.6 -17.8,-25.6 -14.8,-28.6 1.2,-1.2 7.6,-3.4 14.6,-5 31.8,-7.4 62.4,-24.2 88.2,-48.4 22.4,-21.2 35.4,-38.2 48.2,-63.6 11.6,-23.6 11.8,-29.8 1.2,-42 -14,-16 -39,-21 -65.2,-13 -23.6,7.2 -92.8,36.8 -105.4,45.2 -18.8,12.6 -48.2,41.8 -53.8,53.6 -7.4,15.4 -11.2,31.8 -12.6,55.8 -3.2,55.2 16.2,82.4 65.8,92.4 27.6,5.6 57.6,3.8 85.6,-5.2 15.8,-5 83.8,-39.6 95,-48.2 4.4,-3.4 9.4,-7 11,-8.2 1.6,-1.2 -0.4,2.4 -4.6,7.8 -17.8,24.2 -24.4,32.8 -25.8,32.8 -1,0.2 -1.6,1.4 -1.6,2.8 0,3 -28.6,21.2 -46,29 -49.6,22.6 -108.8,23.6 -151.4,3 -27.8,-13.6 -41,-32.4 -44.8,-64.6 -1.2,-8.2 -3.4,-22.8 -5,-32.4 -2,-11.2 -2.6,-22 -1.8,-30 l 1.4,-12.6 -4.4,8 c -2.4,4.4 -9.6,17.4 -16,29 -9.6,16.8 -12.6,24.8 -15.8,40 -2,10.4 -6.2,30.2 -9,44 -19.6,94 -23.6,178.6 -12,255 3.8,26.6 4,26.6 13,30.4 10.8,4.2 15.8,11.2 15.8,21.6 0,8 -1,9.4 -16.6,24.4 -14.2,13.6 -18.2,16.2 -28.6,19.2 -15.8,4.4 -25.8,4.2 -36.8,-0.8 z m 43.4,-32.2 6.6,-6.4 -6,-2.4 c -7.2,-3.2 -10.4,-12.8 -16.2,-51 -5.4,-34.6 -7.4,-117.2 -3.8,-156.2 8.6,-95.6 34.8,-185.2 74.6,-254.2 23.2,-40.4 28.2,-52.4 29,-68.6 0.8,-12.8 0.4,-14.6 -4.6,-20.4 -3,-3.6 -7,-7.4 -8.8,-8.4 -4.2,-2.2 -56.6,14 -62.4,19.2 -2.2,1.8 -8.6,12.6 -14.6,24 -19.4,36.4 -47.4,75.4 -80.8,112.4 -17,18.6 -22.4,20.8 -22.4,8.8 0,-13.4 7.2,-37 24.8,-81 9.4,-23.2 18.6,-48.6 20.4,-56.4 2.8,-13 2.8,-14.4 -0.2,-20 -1.8,-3.2 -5.6,-7.8 -8.4,-9.8 -5,-3.6 -5.4,-3.6 -16.4,-0.2 -19.2,6 -39,16 -44.6,22.8 -3,3.4 -10.6,15 -16.8,25.8 -21.8,37.2 -53.8,82.4 -58.2,82.4 -1.6,0 -3.2,-1.4 -3.8,-3 -1.8,-4.6 26.2,-82.6 44,-122.8 5,-11.4 8.8,-21.2 8.2,-21.8 -0.6,-0.6 -15.2,1 -32.4,3.4 -23,3.4 -32.8,5.8 -36.8,8.6 -6,4.4 -21.4,35.4 -36.6,73.8 -8,19.6 -11.8,26 -25.4,43 -36,44.6 -93.4,104.4 -97.6,102 -4.2,-2.6 -2.2,-14 14.6,-83 15,-61 20,-84 24,-107.4 1,-6 0.8,-6.2 -6.2,-6 -6.8,0.2 -7.4,-0.2 -8.8,-6.8 -0.8,-3.8 -4,-9.2 -7,-11.8 -5.4,-4.6 -6.6,-4.8 -26.8,-3.6 -12,0.6 -29,3.2 -40,6 -61.2,15.8 -93.4,47 -149.4,144.4 -17.8,31 -22.6,44 -22.6,61.4 0,19.2 7.2,27.8 21,25.2 3.4,-0.8 5,-0.2 5,1.6 0,4 3,3.4 9.4,-1.8 7.4,-6.2 23.6,-15.4 27,-15.4 4.2,0 33.8,-24 44.6,-36 5.4,-6 17,-18.6 26,-28 8.8,-9.4 12.6,-13.8 8.6,-10 -11.6,10.4 -9,4.2 3,-7.6 9.2,-9.2 11,-10.2 13.2,-7.6 2,2.4 2,6.6 -0.6,21.4 -8,46.4 -9,88.6 -2.4,101.4 10.8,20.8 30,18.8 69.8,-7.4 17.8,-11.8 23.6,-17 42.6,-39.4 31.6,-37.2 33,-39 31.6,-41.2 -0.8,-1.2 -0.4,-1.6 0.6,-1 2.4,1.4 7,-3.2 6.2,-5.8 -0.4,-1 0,-1.8 0.6,-1.8 0.8,0 3.2,-1.8 5.6,-3.8 2.4,-2.2 4.6,-3.4 5.2,-2.8 0.6,0.6 -0.8,8.6 -3,17.8 -4.2,18.4 -11.2,60.8 -12.6,77 -0.6,8.8 0,11.2 4.8,17 4.8,6 5.8,6.4 10.6,4.2 2.8,-1.2 9.8,-6.2 15.8,-10.8 5.8,-4.8 13.4,-10.8 17,-13.6 5,-3.8 9.2,-11.2 17.6,-31 16.2,-37.8 36,-69.2 61.2,-97 13.8,-15.2 14.8,-13.4 16.6,26.6 0.8,17.8 1.6,42.8 1.8,55.6 1,33.8 7,44.2 21.6,36.6 21.6,-11 29.6,-17.4 38.8,-31.8 5.2,-8.2 11,-15.2 12.8,-15.6 2,-0.4 12.2,-11.6 23,-24.6 10.8,-13.2 24.2,-28.6 29.8,-34.6 7,-7.2 8.4,-9.6 4.6,-7.2 -3.2,2 -16.4,16.4 -29.4,32.2 -13.2,15.6 -25,29.2 -26.4,30 -5.8,3.6 28.2,-41.2 45.2,-59.2 14.4,-15.2 20.2,-13.2 13.4,5 -14,37.6 -32.6,135.8 -41.4,220 -5,46.2 -5,128.8 -0.2,157.6 3.8,22.8 9.2,41.4 15.6,54 5.6,10.6 18.4,23 26.2,25 9,2.4 22.8,-2.2 31,-10 z M 2437.6,1660 c 4.8,-5.6 7.8,-10 6.6,-10 -1,0 -4.4,3.2 -7.2,7 -3,3.8 -7,7.4 -9.2,8 -4.2,1.4 -5.2,5 -1.2,5 1.2,-0.2 6.2,-4.6 11,-10 z"
       id="path145" />
    <path
       d="m 2063.2,1732.8 c -2.2,-5.8 -1.2,-10.6 5.8,-26.2 10.6,-23 31,-52.4 51.4,-73.8 18.4,-19.2 45,-41.2 59.6,-49.6 4.4,-2.4 7.4,-5.2 6.6,-6 -0.8,-0.8 0,-0.8 2,0 5.2,2 4.2,7 -5.6,26.2 -12.8,24.6 -32.2,51.2 -56.2,76.4 -18.4,19.4 -58.6,56.2 -61.4,56.2 -0.6,0 -1.6,-1.4 -2.2,-3.2 z"
       id="path147" />
    <path
       d="m 2127,1702 c 7.6,-7.6 14.4,-14 14.8,-14 0.6,0 -5.2,6.4 -12.8,14 -7.6,7.8 -14.4,14 -14.8,14 -0.6,0 5.2,-6.2 12.8,-14 z"
       id="path149" />
    <path
       d="m 2323,1677.8 c 4.4,-6.2 8.2,-11.2 8.6,-11 1.8,1.8 -5,13 -10.2,17.2 -6.2,5 -6.2,5 1.6,-6.2 z"
       id="path151" />
    <path
       d="m 2971.4,1915.2 c -21.2,-7.6 -32.8,-23.6 -28.6,-40 2.8,-11.4 44,-55.2 75.8,-81 8.6,-7 15.4,-13.6 15,-15 -2,-7.8 -24.8,-47.8 -29.2,-51.2 -5.8,-4.6 -14.8,-4.2 -28.4,1.2 -6,2.4 -3.8,-0.4 13.6,-17.6 l 20.6,-20.4 8.6,15.8 c 4.6,8.8 15.2,26 23.2,38 16.2,24.6 25.4,42.6 22.8,45 -1,0.8 -8.2,6.4 -16.2,12.4 -7.8,5.8 -22.2,17.8 -31.8,26.6 -18.4,16.8 -48.8,50.4 -48.8,54 0,2.8 9.4,8.2 17.4,9.8 8.6,2 35.6,-2 52,-7.6 28.4,-9.6 52.2,-24.6 73.8,-46 24.2,-24.2 27.8,-33.4 24.2,-63.6 -1.4,-12.8 -1.2,-13.6 3.4,-16.6 5.6,-3.8 46.2,-20.8 52.2,-21.8 2.2,-0.6 7.6,-2.4 12,-4.2 7.6,-3.2 7.8,-3.2 5,0.4 -1.6,2 -3.6,4 -4.2,4.6 -1.6,1.4 -26.6,23.2 -35.6,31.4 l -7.2,6.2 v 17.8 c 0,15.8 -0.6,19 -6.6,30.8 -19.2,39.2 -77.2,80 -129,90.6 -18.4,3.8 -43.6,4 -54,0.4 z"
       id="path153" />
    <path
       d="m 3014.6,1866.6 c -4.8,-1.8 -2.6,-7.8 7,-19.6 12,-15 40,-39.4 44.2,-38.6 4.2,1 3.8,14.8 -0.8,23.6 -5.2,10 -16.6,21.4 -29,29 -11,6.6 -15.8,8 -21.4,5.6 z"
       id="path155" />
    <path
       d="m 2788.6,1702.8 c -2,-5.2 1.2,-28.4 5.4,-39 11.4,-28.8 44.4,-63 65.4,-68 9.4,-2.2 25.8,-0.2 28.8,3.4 3.2,3.8 -0.8,20.6 -8.8,36.6 -11.2,23 -44.6,53 -71.2,64.4 -15.4,6.6 -17.8,7 -19.6,2.6 z m 58.2,-63.6 c 4.4,-5 7.4,-9.6 6.8,-10.2 -1.4,-1.4 -23,20.2 -26,25.8 -2,3.8 -1.4,3.6 4.6,-1 3.6,-3 10.2,-9.4 14.6,-14.6 z"
       id="path157" />
    <path
       d="m 3001.8,1691.4 c 8,-8.4 8.2,-8.6 8.2,-4.4 0,1.8 -1.6,3.6 -3.4,4.4 -2,0.6 -5.4,2.6 -7.6,4.4 -2.2,1.6 -0.8,-0.2 2.8,-4.4 z"
       id="path159" />
  </g>
</svg>
