<?xml version="1.0" encoding="UTF-8" standalone="no"?>
<svg
   version="1.0"
   width="4009.0691"
   height="1572.764"
   viewBox="0 0 4009.0691 1572.764"
   preserveAspectRatio="xMidYMid meet"
   id="svg155"
   sodipodi:docname="auto-casiono-fr.svg"
   inkscape:version="1.1.2 (0a00cf5339, 2022-02-04, custom)"
   xmlns:inkscape="http://www.inkscape.org/namespaces/inkscape"
   xmlns:sodipodi="http://sodipodi.sourceforge.net/DTD/sodipodi-0.dtd"
   xmlns:xlink="http://www.w3.org/1999/xlink"
   xmlns="http://www.w3.org/2000/svg"
   xmlns:svg="http://www.w3.org/2000/svg">
  <sodipodi:namedview
     id="namedview157"
     pagecolor="#ffffff"
     bordercolor="#666666"
     borderopacity="1.0"
     inkscape:pageshadow="2"
     inkscape:pageopacity="0.0"
     inkscape:pagecheckerboard="0"
     showgrid="false"
     inkscape:zoom="0.2138"
     inkscape:cx="1704.8644"
     inkscape:cy="855.94013"
     inkscape:window-width="1920"
     inkscape:window-height="1017"
     inkscape:window-x="-8"
     inkscape:window-y="-8"
     inkscape:window-maximized="1"
     inkscape:current-layer="svg155" />
  <defs
     id="defs75">
    <linearGradient
       id="lg0"
       gradientUnits="userSpaceOnUse"
       x1="826.00006"
       y1="1190"
       x2="2538"
       y2="1190">
      <stop
         offset="0%"
         style="stop-color:rgb(255,194,44);"
         id="stop2" />
      <stop
         offset="28%"
         style="stop-color:rgb(255,195,48);"
         id="stop4" />
      <stop
         offset="29%"
         style="stop-color:rgb(255,203,75);"
         id="stop6" />
      <stop
         offset="30%"
         style="stop-color:rgb(254,205,58);"
         id="stop8" />
      <stop
         offset="34%"
         style="stop-color:rgb(250,194,54);"
         id="stop10" />
      <stop
         offset="37%"
         style="stop-color:rgb(232,184,64);"
         id="stop12" />
      <stop
         offset="38%"
         style="stop-color:rgb(217,169,53);"
         id="stop14" />
      <stop
         offset="40%"
         style="stop-color:rgb(255,207,75);"
         id="stop16" />
      <stop
         offset="41%"
         style="stop-color:rgb(255,206,72);"
         id="stop18" />
      <stop
         offset="42%"
         style="stop-color:rgb(254,213,73);"
         id="stop20" />
      <stop
         offset="43%"
         style="stop-color:rgb(255,200,67);"
         id="stop22" />
      <stop
         offset="45%"
         style="stop-color:rgb(254,206,81);"
         id="stop24" />
      <stop
         offset="48%"
         style="stop-color:rgb(255,208,78);"
         id="stop26" />
      <stop
         offset="49%"
         style="stop-color:rgb(255,204,75);"
         id="stop28" />
      <stop
         offset="50%"
         style="stop-color:rgb(255,205,60);"
         id="stop30" />
      <stop
         offset="51%"
         style="stop-color:rgb(255,203,72);"
         id="stop32" />
      <stop
         offset="53%"
         style="stop-color:rgb(255,207,88);"
         id="stop34" />
      <stop
         offset="55%"
         style="stop-color:rgb(255,205,73);"
         id="stop36" />
      <stop
         offset="62%"
         style="stop-color:rgb(255,207,72);"
         id="stop38" />
      <stop
         offset="63%"
         style="stop-color:rgb(255,201,72);"
         id="stop40" />
      <stop
         offset="65%"
         style="stop-color:rgb(255,207,90);"
         id="stop42" />
      <stop
         offset="67%"
         style="stop-color:rgb(255,212,89);"
         id="stop44" />
      <stop
         offset="68%"
         style="stop-color:rgb(255,207,87);"
         id="stop46" />
      <stop
         offset="71%"
         style="stop-color:rgb(255,205,77);"
         id="stop48" />
      <stop
         offset="72%"
         style="stop-color:rgb(251,205,82);"
         id="stop50" />
      <stop
         offset="75%"
         style="stop-color:rgb(252,202,74);"
         id="stop52" />
      <stop
         offset="76%"
         style="stop-color:rgb(246,197,78);"
         id="stop54" />
      <stop
         offset="77%"
         style="stop-color:rgb(255,207,83);"
         id="stop56" />
      <stop
         offset="78%"
         style="stop-color:rgb(255,207,84);"
         id="stop58" />
      <stop
         offset="79%"
         style="stop-color:rgb(255,216,88);"
         id="stop60" />
      <stop
         offset="80%"
         style="stop-color:rgb(255,209,88);"
         id="stop62" />
      <stop
         offset="86%"
         style="stop-color:rgb(255,208,84);"
         id="stop64" />
      <stop
         offset="87%"
         style="stop-color:rgb(255,214,81);"
         id="stop66" />
      <stop
         offset="88%"
         style="stop-color:rgb(255,199,63);"
         id="stop68" />
      <stop
         offset="96%"
         style="stop-color:rgb(255,199,61);"
         id="stop70" />
      <stop
         offset="100%"
         style="stop-color:rgb(255,210,94);"
         id="stop72" />
    </linearGradient>
    <linearGradient
       inkscape:collect="always"
       xlink:href="#lg0"
       id="linearGradient974"
       gradientUnits="userSpaceOnUse"
       x1="826.00006"
       y1="1190"
       x2="2538"
       y2="1190" />
    <linearGradient
       inkscape:collect="always"
       xlink:href="#lg0"
       id="linearGradient976"
       gradientUnits="userSpaceOnUse"
       x1="826.00006"
       y1="1190"
       x2="2538"
       y2="1190" />
  </defs>
  <g
     fill="#ffd65a"
     id="g89"
     transform="translate(-794.93264,-390.96664)">
    <path
       fill="url(#lg0)"
       d="m 1576,1962.6 c -73.8,-7.8 -138.8,-40.2 -191.2,-95.2 -37.2,-38.8 -59,-81.2 -67.6,-131.4 -2.8,-16.6 -3.2,-48.6 -3.2,-281.4 v -262.4 l -6.4,1.4 c -7,1.4 -86.4,1.8 -131.6,0.6 l -27,-0.6 -2.4,14.6 c -1.2,8.2 -5.6,36 -9.6,61.8 -19.4,126.4 -44.4,193.4 -93,251 -19.8,23.4 -52,49.4 -78,63.2 -7.4,4 -12,4.8 -26,4.8 -22.2,0 -30.8,-4.2 -53.8,-26.2 -38.2,-36.2 -65,-86.4 -77.4,-144.8 -4.8,-22.6 -4.8,-61 0,-84 21.2,-100.6 101.4,-188.8 202.6,-222.8 l 19.6,-6.6 1.2,-24.8 c 0.8,-13.6 2.4,-87.4 3.6,-163.8 3,-201.8 4,-233.8 9.4,-324.8 l 1.4,-21.8 -15.4,8.2 c -20.8,11.2 -35,22.6 -55.2,43.8 -27.2,28.6 -48.4,61.8 -64.8,102 -21.8,53 -27.8,103.6 -16.4,135.8 11,31.4 28.6,48 90,84.8 17.4,10.4 33.2,21.2 35,23.8 1.6,2.8 3.2,8.2 3.2,12.4 0,8.4 -5,14.2 -55.4,66.4 C 934,1081.2 935,1081 908,1067.8 849.8,1039.8 809.6,994 799.4,944 790.2,899.8 795.6,842.6 814,789 c 18.2,-52.6 40.6,-92 104,-184 24.6,-35.8 38.2,-53.2 53.6,-69.2 44.4,-46.2 104.8,-85.2 159.6,-103.6 29.4,-10 46.6,-7.4 52.8,7.8 2.2,5.4 2.4,10 0.2,25.8 -15.4,118.4 -17.6,161.8 -20.2,378.2 -1.8,157.4 -2.4,188 -5.2,230.6 -0.6,9.6 -0.6,17.4 0,17.4 4,0 45.4,6.8 67.6,11.2 31.2,6 64.8,10.8 77.8,10.8 h 9.2 l 1.4,-14.2 c 0.8,-7.8 2,-15.4 2.6,-17 0.8,-2.2 -1.6,-2.8 -12,-2.8 -49.8,0 -81.6,-26 -92.8,-76.2 -2.2,-10 -3.4,-24.4 -3.4,-44.8 -0.2,-38.6 2.4,-47 26.8,-83.4 21.8,-33 39.4,-50.4 89.4,-88 39.8,-30 53.8,-38 74,-42.8 37,-8.6 71.4,10.2 79.2,43.4 1.6,6 -6,39 -13.2,58 -6.2,16.2 -20.2,44.2 -27.8,55.4 -3.2,4.6 -5.4,8.4 -4.8,8.4 0.6,0 6,-3 11.8,-6.8 6,-3.8 16.6,-9.8 23.8,-13.4 12.6,-6.2 13.6,-7.2 25.2,-26.6 14.6,-24.4 22.4,-40 30.6,-60.6 9.6,-24.2 45.8,-81.6 57.2,-90.4 7.2,-5.8 20.2,-5.4 32.2,0.6 12.6,6.4 26.4,21.4 26.4,28.6 0,3.2 -3.2,29.8 -7,59.6 -3.8,29.6 -7,54 -7,54.2 0,0.2 3.8,0.8 8.4,1.2 l 8.2,0.8 6.8,-15.2 c 4,-8.4 8.2,-22.4 10,-32 7.2,-42.6 20,-79.6 30.8,-89.4 2.6,-2.4 15.6,-8.8 28.8,-14.6 13.2,-5.6 31.6,-14.2 40.8,-19.2 9.2,-4.8 19.2,-8.8 22.6,-8.8 7,0 17.6,5.2 17.6,8.6 0.2,1.2 2,-1.6 4.4,-6.2 5.2,-10.8 13.8,-16.6 37,-25.2 9.8,-3.6 24.8,-10 33.4,-14 17.4,-8 27.6,-9 35.2,-3.8 7.8,5.4 9.4,8.2 17.2,31.2 6.6,19.8 29.2,69.4 31.6,69.4 1.8,0 59.2,-81.6 74.6,-106 15,-23.4 21.6,-30 30.6,-30 7.4,0.2 12.8,3.8 23,15.6 13.4,15.8 13,19.8 -4.4,50.4 -7.2,12.6 -29.2,47.6 -49,77.6 l -36,54.4 19.6,30.4 c 11,16.6 20.8,30.6 22,31 5,1.6 39.6,-62.2 61.6,-113 8.2,-19 16.4,-36.4 18.2,-38.6 4.8,-5.2 15.4,-6.8 22.2,-3.4 8.2,3.8 20.6,23 20.6,31.6 0.2,8.4 -13.6,61.8 -20.6,80.6 -9.2,24.4 -30.4,62.2 -37.2,66.4 -1,0.6 -2,2 -2,3.2 0,1 4.2,-0.2 9.6,-3 25.4,-12.8 65.6,-23.6 101.8,-27.4 34.4,-3.4 86.6,-0.2 115.6,7.4 l 4,1 -4,-3.2 c -17.8,-13.8 -32,-34 -37,-52.8 -3.2,-12 -2.6,-50.4 1,-69.8 10.4,-54.6 40.6,-101.4 84,-130.4 5.6,-3.6 10.4,-7 10.8,-7.2 2.4,-2 -19.4,-30.4 -35.8,-47 -21.8,-22 -43,-36.6 -68.4,-47.2 -13.6,-5.4 -18.6,-8.6 -20.8,-12.8 -7,-14 -2.8,-21.8 33.6,-62 13.6,-15 27.2,-30 30.2,-33.6 7.6,-8.6 14.2,-11 23.2,-8 21.4,6.8 53.8,34.4 72,61.4 18,26.6 38,73.6 48.2,112.8 l 4.6,17.2 8.2,2.4 c 20,5.6 33.4,21.4 33.6,39.8 0,15 -3.6,23 -14.8,33.2 -7,6.4 -9.6,10 -8.8,12.4 2.2,5.6 1.6,59.4 -0.8,73 -7,40 -27,75.8 -54.2,97.2 -21.6,16.8 -51,29.8 -70.2,30.8 -10.6,0.6 -10.2,1.6 2.4,6.4 15.8,6.2 46,22.8 62.6,34.6 21,15.2 52,45.6 66.8,65.8 20.4,27.8 34.8,59.2 44,96.2 3.2,12.6 3.4,46.4 4,440.2 l 0.6,426.4 h -129 -129 v -103 -103 h -42 -42 v 103 103 h -129 -129 l 0.6,-426.4 c 0.6,-393.8 0.8,-427.6 4,-440.2 11.6,-46.6 29.4,-80.8 60.8,-116.8 l 11,-12.6 h -13.8 c -26.6,0 -50.8,-9.8 -72.6,-29.4 -13.8,-12.6 -11.4,-13.4 -26,8.4 -6.4,10 -32.4,35 -47.2,45.8 -2.8,2.2 -2,4.4 7.8,19.4 18.2,28.2 27.8,50.4 35.8,83.8 3.8,15.2 4.2,25.2 5,95.6 l 1,78.4 H 1785.2 1656 v -62 c 0,-69.4 -0.2,-70.2 -13.4,-82.2 -15,-13.6 -39,-14.2 -56.2,-1.8 -15.6,11.4 -14.6,-15.2 -14,310.6 l 0.6,290.8 5.6,7.2 c 8.4,11 19.8,16.2 35.6,16.4 11.2,0 14.6,-0.8 22.8,-6 6.4,-4 11.2,-9 14.4,-14.8 4.6,-8.8 4.6,-9.8 4.6,-71.6 V 1572 h 129 129 v 69.6 c 0,78.8 -1.8,96.2 -12.8,129.4 -8.6,25.6 -16.2,40.8 -31.8,64 -13.6,20 -47.6,55 -67,69 -44.8,32.4 -92.8,51.4 -146.4,58 -15.8,1.8 -64.4,2.2 -80,0.6 z m 714,-652.8 v -188.2 l -4.4,-7.8 c -15.2,-27.2 -57.2,-27.6 -74.4,-1 l -5.2,8 v 188.6 188.6 h 42 42 z M 958.6,1487.2 c 7,-7 31.4,-83.4 42.2,-131.2 11.2,-50.6 25.8,-148 22.6,-151.2 -1.8,-1.8 -22.6,4.8 -38.6,12.2 -58.6,27 -99,85.8 -98.8,143.8 0,19.2 5,43 14.6,69.8 10.4,28.8 22.4,47.2 36.4,55.8 7.2,4.2 17.6,4.6 21.6,0.8 z m 892.8,-604.8 28.4,-36 -9.2,-12.2 c -5,-6.8 -9.8,-11.8 -10.8,-11.2 -2.6,1.8 -49.6,58.2 -59.6,71.6 -4.6,6.4 -8.2,12.4 -7.8,13.2 0.4,1 6,5.8 12.6,10.8 l 12,9 3,-4.6 c 1.6,-2.6 15.8,-20.8 31.4,-40.6 z m -497.4,3.4 c 3.4,-5.6 5.8,-10.6 5.4,-11.2 -0.8,-0.8 -13.4,18.4 -13.4,20.4 0,2.6 2.2,0 8,-9.2 z M 1803.8,804 c 6.4,-9.4 13.6,-20.8 16,-25.4 l 4.2,-8.6 -5.8,-11.6 c -3.2,-6.4 -7.4,-17 -9.4,-23.6 l -3.6,-11.8 -1.8,9 c -2.6,13.2 -12.4,58 -18.2,82 l -5,21 6,-7 c 3.2,-3.8 11,-14.6 17.6,-24 z"
       id="path77"
       style="fill:url(#linearGradient974)" />
    <path
       d="m 4467,1961.8 c -72.6,-7.6 -139.2,-40.8 -191.2,-95.2 -35,-36.6 -54.6,-73.6 -66.4,-125 -4.2,-18.4 -4.2,-21.4 -5,-311.6 -0.6,-310.6 -0.2,-330.4 8.4,-364.6 17,-66.8 62.8,-125 131,-166.2 64,-38.6 151,-51.8 231.6,-35.2 100.4,20.8 189,97.2 217.4,187.6 11.6,37 11.2,24 11.2,358.4 0,334.4 0.4,321.4 -11.2,358.4 -7.6,24 -15.2,39.8 -29.6,61.4 -28.6,42.8 -69.8,78.8 -116.8,102 -52.8,26.2 -115.4,36.6 -179.4,30 z m 58.2,-238.4 c 9.2,-4.6 18.6,-15.4 20.8,-23.2 2.8,-10 2.6,-568.6 0,-578.6 -5.8,-20.2 -28.6,-32.4 -51.6,-27.4 -13,2.6 -27.4,14.8 -30.4,25.4 -1.2,5 -2,103.8 -2,292.2 0,284.8 0,285 4.2,293.6 7.2,14.8 23.2,23.2 42,21.8 6.2,-0.4 13.8,-2.2 17,-3.8 z"
       id="path79" />
    <path
       d="M 3232,1411 V 878 h 129 129 v 533 533 h -129 -129 z"
       id="path81" />
    <path
       d="m 2604,1824 v -118 h 154.6 c 151,0 154.6,-0.2 163.4,-4.2 11.2,-5 15.4,-8.8 20.2,-18.2 8,-15.6 1.8,-34.2 -14.8,-44.4 -8.8,-5.4 -11.4,-6 -38.2,-7.4 -15.8,-0.8 -34.4,-2.6 -41.4,-3.8 -68.6,-12.2 -125.4,-42.4 -171.6,-91 -37.8,-40 -61,-85.6 -69.2,-135 -4.4,-28 -4.4,-289 0,-315.2 11.8,-68.4 47,-123.2 109.4,-170.2 58,-44 136,-65.2 214.6,-58.6 76.2,6.4 137.4,33.6 189.8,84 42,40.6 65.6,82 77.4,135.6 3.8,17.2 4.4,27.6 5.2,96 l 1,76.4 h -129 -129.2 l -0.6,-65.8 -0.6,-65.8 -6.2,-7.8 c -13.2,-16.6 -35.6,-21.2 -56.2,-11.6 -9.4,4.2 -10.6,5.6 -10.6,11 0,5.4 -0.6,6 -6,6 -3.2,0 -6,1 -6,2.2 0,1 0.6,1.6 1.6,1.2 0.8,-0.6 1.2,55 0.8,123.2 -0.4,90.6 0.2,126 1.8,130 1.4,3 6,8.6 10.4,12.4 9.4,8.2 17.2,10 56.4,12.8 33.2,2.6 50.6,6 79,15.6 72.2,24.4 134.8,78.2 167.6,143.6 20.2,40.6 29.2,90.4 24.6,136.4 -6.6,65.6 -33.2,119 -82.6,165.6 -41.6,39.4 -88.8,64 -147.2,77.4 -19,4.4 -22.6,4.4 -193.8,5 l -174.6,0.8 z"
       id="path83" />
    <path
       d="M 3550,1410 V 878 h 129.2 129.2 l -1.2,6.8 c -1.2,6 3.8,17.8 41.2,97 l 42.6,90.2 0.6,-97 0.4,-97 h 129 129 v 532 532 H 4021 3892 V 1753.6 1565 l -41.4,-87.8 -41.6,-87.8 -0.6,276.2 -0.4,276.4 h -129 -129 z"
       id="path85" />
    <path
       d="m 2592,871.8 c -43.2,-5.6 -72.4,-29 -86.2,-69.4 -9.8,-28.6 -12.2,-79.4 -4.8,-103.8 6.6,-22.2 42.8,-67.6 67.8,-85.6 15,-10.4 65.6,-41.2 81.6,-49.2 44.4,-22.4 92.2,-10.4 110.8,27.4 7,14.2 6,27.8 -4,57.8 -17.2,51.4 -47,91 -89.8,119.6 l -14.2,9.4 h 8.6 c 12.4,0 36.6,-8.8 53,-19.4 27.2,-17.4 58.4,-54.2 82.2,-96.8 15.2,-27 20.8,-29 44.6,-15.6 14,7.8 22.4,16.6 22.4,23.8 0,5.4 -6.6,15.2 -37.8,56 -38.2,50.4 -56,71.4 -74,88.4 -36.8,34.8 -73,52.6 -116.8,57.4 -21.4,2.4 -24.6,2.4 -43.4,0 z m 55.8,-194.4 6.4,-12.4 -6.8,7.6 c -3.8,4 -9.8,13 -13.2,20 l -6.4,12.4 6.8,-7.6 c 3.8,-4 9.8,-13 13.2,-20 z"
       id="path87" />
  </g>
  <g
     fill="#ffbe22"
     id="g115"
     transform="translate(-794.93264,-390.96664)">
    <path
       fill="url(#lg0)"
       d="m 1576,1962.6 c -73.8,-7.8 -138.8,-40.2 -191.2,-95.2 -37.2,-38.8 -59,-81.2 -67.6,-131.4 -2.8,-16.6 -3.2,-48.6 -3.2,-281.4 v -262.4 l -6.4,1.4 c -7,1.4 -86.4,1.8 -131.6,0.6 l -27,-0.6 -2.4,14.6 c -1.2,8.2 -5.6,36 -9.6,61.8 -19.4,126.4 -44.4,193.4 -93,251 -19.8,23.4 -52,49.4 -78,63.2 -7.4,4 -12,4.8 -26,4.8 -22.2,0 -30.8,-4.2 -53.8,-26.2 -38.2,-36.2 -65,-86.4 -77.4,-144.8 -4.8,-22.6 -4.8,-61 0,-84 21.2,-100.6 101.4,-188.8 202.6,-222.8 l 19.6,-6.6 1.2,-24.8 c 0.8,-13.6 2.4,-87.4 3.6,-163.8 3,-201.8 4,-233.8 9.4,-324.8 l 1.4,-21.8 -15.4,8.2 c -20.8,11.2 -35,22.6 -55.2,43.8 -27.2,28.6 -48.4,61.8 -64.8,102 -21.8,53 -27.8,103.6 -16.4,135.8 11,31.4 28.6,48 90,84.8 17.4,10.4 33.2,21.2 35,23.8 1.6,2.8 3.2,8.2 3.2,12.4 0,8.4 -5,14.2 -55.4,66.4 C 934,1081.2 935,1081 908,1067.8 849.8,1039.8 809.6,994 799.4,944 790.2,899.8 795.6,842.6 814,789 c 18.2,-52.6 40.6,-92 104,-184 24.6,-35.8 38.2,-53.2 53.6,-69.2 44.4,-46.2 104.8,-85.2 159.6,-103.6 29.4,-10 46.6,-7.4 52.8,7.8 2.2,5.4 2.4,10 0.2,25.8 -15.4,118.4 -17.6,161.8 -20.2,378.2 -1.8,157.4 -2.4,188 -5.2,230.6 -0.6,9.6 -0.6,17.4 0,17.4 4,0 45.4,6.8 67.6,11.2 31.2,6 64.8,10.8 77.8,10.8 h 9.2 l 1.4,-14.2 c 0.8,-7.8 2,-15.4 2.6,-17 0.8,-2.2 -1.6,-2.8 -12,-2.8 -49.8,0 -81.6,-26 -92.8,-76.2 -2.2,-10 -3.4,-24.4 -3.4,-44.8 -0.2,-38.6 2.4,-47 26.8,-83.4 21.8,-33 39.4,-50.4 89.4,-88 39.8,-30 53.8,-38 74,-42.8 37,-8.6 71.4,10.2 79.2,43.4 1.6,6 -6,39 -13.2,58 -6.2,16.2 -20.2,44.2 -27.8,55.4 -3.2,4.6 -5.4,8.4 -4.8,8.4 0.6,0 6,-3 11.8,-6.8 6,-3.8 16.6,-9.8 23.8,-13.4 12.6,-6.2 13.6,-7.2 25.2,-26.6 14.6,-24.4 22.4,-40 30.6,-60.6 9.6,-24.2 45.8,-81.6 57.2,-90.4 7.2,-5.8 20.2,-5.4 32.2,0.6 12.6,6.4 26.4,21.4 26.4,28.6 0,3.2 -3.2,29.8 -7,59.6 -3.8,29.6 -7,54 -7,54.2 0,0.2 3.8,0.8 8.4,1.2 l 8.2,0.8 6.8,-15.2 c 4,-8.4 8.2,-22.4 10,-32 7.2,-42.6 20,-79.6 30.8,-89.4 2.6,-2.4 15.6,-8.8 28.8,-14.6 13.2,-5.6 31.6,-14.2 40.8,-19.2 9.2,-4.8 19.2,-8.8 22.6,-8.8 7,0 17.6,5.2 17.6,8.6 0.2,1.2 2,-1.6 4.4,-6.2 5.2,-10.8 13.8,-16.6 37,-25.2 9.8,-3.6 24.8,-10 33.4,-14 17.4,-8 27.6,-9 35.2,-3.8 7.8,5.4 9.4,8.2 17.2,31.2 6.6,19.8 29.2,69.4 31.6,69.4 1.8,0 59.2,-81.6 74.6,-106 15,-23.4 21.6,-30 30.6,-30 7.4,0.2 12.8,3.8 23,15.6 13.4,15.8 13,19.8 -4.4,50.4 -7.2,12.6 -29.2,47.6 -49,77.6 l -36,54.4 19.6,30.4 c 11,16.6 20.8,30.6 22,31 5,1.6 39.6,-62.2 61.6,-113 8.2,-19 16.4,-36.4 18.2,-38.6 4.8,-5.2 15.4,-6.8 22.2,-3.4 8.2,3.8 20.6,23 20.6,31.6 0.2,8.4 -13.6,61.8 -20.6,80.6 -9.2,24.4 -30.4,62.2 -37.2,66.4 -1,0.6 -2,2 -2,3.2 0,1 4.2,-0.2 9.6,-3 25.4,-12.8 65.6,-23.6 101.8,-27.4 34.4,-3.4 86.6,-0.2 115.6,7.4 l 4,1 -4,-3.2 c -17.8,-13.8 -32,-34 -37,-52.8 -3.2,-12 -2.6,-50.4 1,-69.8 10.4,-54.6 40.6,-101.4 84,-130.4 5.6,-3.6 10.4,-7 10.8,-7.2 2.4,-2 -19.4,-30.4 -35.8,-47 -21.8,-22 -43,-36.6 -68.4,-47.2 -13.6,-5.4 -18.6,-8.6 -20.8,-12.8 -7,-14 -2.8,-21.8 33.6,-62 13.6,-15 27.2,-30 30.2,-33.6 7.6,-8.6 14.2,-11 23.2,-8 21.4,6.8 53.8,34.4 72,61.4 18,26.6 38,73.6 48.2,112.8 l 4.6,17.2 8.2,2.4 c 20,5.6 33.4,21.4 33.6,39.8 0,15 -3.6,23 -14.8,33.2 -7,6.4 -9.6,10 -8.8,12.4 2.2,5.6 1.6,59.4 -0.8,73 -7,40 -27,75.8 -54.2,97.2 -21.6,16.8 -51,29.8 -70.2,30.8 -10.6,0.6 -10.2,1.6 2.4,6.4 15.8,6.2 46,22.8 62.6,34.6 21,15.2 52,45.6 66.8,65.8 20.4,27.8 34.8,59.2 44,96.2 3.2,12.6 3.4,46.4 4,440.2 l 0.6,426.4 h -129 -129 v -103 -103 h -42 -42 v 103 103 h -129 -129 l 0.6,-426.4 c 0.6,-393.8 0.8,-427.6 4,-440.2 11.6,-46.6 29.4,-80.8 60.8,-116.8 l 11,-12.6 h -13.8 c -26.6,0 -50.8,-9.8 -72.6,-29.4 -13.8,-12.6 -11.4,-13.4 -26,8.4 -6.4,10 -32.4,35 -47.2,45.8 -2.8,2.2 -2,4.4 7.8,19.4 18.2,28.2 27.8,50.4 35.8,83.8 3.8,15.2 4.2,25.2 5,95.6 l 1,78.4 H 1785.2 1656 v -62 c 0,-69.4 -0.2,-70.2 -13.4,-82.2 -15,-13.6 -39,-14.2 -56.2,-1.8 -15.6,11.4 -14.6,-15.2 -14,310.6 l 0.6,290.8 5.6,7.2 c 8.4,11 19.8,16.2 35.6,16.4 11.2,0 14.6,-0.8 22.8,-6 6.4,-4 11.2,-9 14.4,-14.8 4.6,-8.8 4.6,-9.8 4.6,-71.6 V 1572 h 129 129 v 69.6 c 0,78.8 -1.8,96.2 -12.8,129.4 -8.6,25.6 -16.2,40.8 -31.8,64 -13.6,20 -47.6,55 -67,69 -44.8,32.4 -92.8,51.4 -146.4,58 -15.8,1.8 -64.4,2.2 -80,0.6 z m 78.6,-10.8 c 27.2,-4.2 36.6,-6.4 54.8,-12 60.4,-18.6 117.8,-61 154,-113.8 9,-13.4 21.8,-39.8 27.8,-57.2 10.2,-30.4 11,-39.2 12.2,-114.8 l 1,-71 -95.6,-0.8 c -52.8,-0.4 -106.4,0 -119.2,0.8 l -23.6,1.4 v 57.4 c 0,56 -0.2,57.4 -4.8,67.4 -14.2,30.6 -57,37.4 -84.8,13.6 -16.2,-13.8 -15,12 -14.6,-313.8 0.2,-288.4 0.2,-289.8 4.4,-298.4 6.4,-13.2 20.6,-23.4 37.4,-26.6 20.8,-3.8 45.2,6 56.2,23 l 5.2,8 0.6,61.6 0.6,61.4 h 119.2 119 l -1,-71.4 c -0.8,-55.8 -1.6,-74.8 -4.2,-85.6 -7.6,-33 -19.2,-60.8 -35.6,-85.4 l -10.4,-15.4 -5.6,3 -5.6,3 8,11.8 c 9.6,14.2 24.6,43.4 28.8,56.4 10.2,31.2 11.8,52.2 11.4,148.2 l -0.2,21.4 h -105 -105 v -45.6 c 0,-51.6 -1.8,-65.4 -10.2,-78.6 -26.6,-42 -93.4,-38.6 -115.2,5.8 l -5.6,11.4 -0.6,286 c -0.4,205.8 0,289.4 1.6,297.8 3.6,18.8 15.4,33.6 34.6,43.6 12.8,6.6 38.6,7.4 53.8,1.6 14.2,-5.2 29.8,-19.6 36,-33 4.2,-9.4 4.6,-12.8 5.2,-63.4 l 0.8,-53.6 h 104.8 104.8 l 0.2,24.6 c 0.6,94 -1.2,114.6 -12.4,147 -11.8,33.8 -31,63.2 -59.2,90.6 -22.4,22 -27.8,26.4 -50.8,40.8 -59.6,37.4 -140.6,50.8 -216.8,35.8 -98.8,-19.2 -184.2,-95.4 -207,-184.4 -7.6,-30.4 -8.2,-51.6 -7.6,-313.8 l 0.6,-252.2 -6.8,2.8 c -3.6,1.6 -6.8,2.8 -7,2.8 0,0 0.2,121.2 0.8,269.4 1,245.4 1.4,270.8 4.6,283.6 8.6,35.4 22,64.6 41.6,91.2 47.2,63.6 117.4,105.4 196.6,116.6 21.8,3.2 70.6,3.8 87.8,1 z m -55,-15.2 c -2,-0.4 -5.2,-0.4 -7,0 -2,0.6 -0.4,1 3.4,1 3.8,0 5.4,-0.4 3.6,-1 z m 36,0 c -2,-0.4 -5.2,-0.4 -7,0 -2,0.6 -0.4,1 3.4,1 3.8,0 5.4,-0.4 3.6,-1 z M 2196,1829 v -103 h 52 52 v 103 103 h 119 119 v -412.4 c 0,-456.6 0.8,-427.2 -13,-468.4 -15.6,-46.4 -48,-90.2 -92,-124.4 -12.2,-9.4 -44.2,-29 -53.2,-32.6 -2.6,-1 -8.4,-3.4 -12.8,-5.4 -4.4,-2 -8.8,-3.8 -10,-4 -1,-0.2 -6,-2 -10.8,-3.6 -45,-16.4 -115.4,-19.2 -170,-7 -102.2,22.8 -187.2,101.4 -211,195 -1.6,6.4 -3.6,15 -4.4,18.8 -1,3.8 -2,195.4 -2.2,425.6 L 1958,1932 h 119 119 z m -308.6,-133.4 c -0.4,-2.6 -0.8,-0.6 -0.8,4.4 0,5 0.4,7 0.8,4.6 0.4,-2.6 0.4,-6.6 0,-9 z m -204,-49 c -0.2,-8.6 -0.6,-1.6 -0.6,15.4 0,17 0.4,24 0.6,15.6 0.4,-8.6 0.4,-22.6 0,-31 z m 204,-35 c -0.4,-3.6 -0.8,-0.8 -0.8,6.4 0,7.2 0.4,10 0.8,6.6 0.4,-3.6 0.4,-9.6 0,-13 z m -167.8,-12.2 35.4,-0.4 -36.4,-0.6 -36.6,-0.4 0.4,13.6 0.4,13.4 0.6,-12.4 0.8,-12.6 z m 138,-0.8 c -17.4,-0.4 -45.8,-0.4 -63,0 -17.4,0.2 -3.2,0.6 31.4,0.6 34.6,0 48.8,-0.4 31.6,-0.6 z m -910.8,-76.2 c 0.6,-1 -2.4,-2.8 -6.4,-4.2 -18.4,-6.4 -34.6,-21.8 -50.8,-48.6 -4.2,-6.8 -7.6,-11.6 -7.6,-10.8 0,4.6 17.8,34.8 25.6,43.4 13.4,15 35.4,26.2 39.2,20.2 z m 11.8,-35.2 c 7,-7 31.4,-83.4 42.2,-131.2 11.2,-50.6 25.8,-148 22.6,-151.2 -1.8,-1.8 -22.6,4.8 -38.6,12.2 -58.6,27 -99,85.8 -98.8,143.8 0,19.2 5,43 14.6,69.8 10.4,28.8 22.4,47.2 36.4,55.8 7.2,4.2 17.6,4.6 21.6,0.8 z m 751,-266.6 -25.4,-0.8 -0.8,-29.4 -0.6,-29.4 -0.4,30.6 -0.4,30.4 26.6,-0.4 26.4,-0.4 z m 150,0 c -16.2,-0.4 -43.2,-0.4 -60,0 -16.8,0.2 -3.6,0.6 29.4,0.6 33,0 46.8,-0.4 30.6,-0.6 z m 27.8,-79 c -0.4,-3.6 -0.8,-0.8 -0.8,6.4 0,7.2 0.4,10 0.8,6.6 0.4,-3.6 0.4,-9.6 0,-13 z m -204,-7 c -0.4,-4.2 -0.8,-1.2 -0.8,6.4 0,7.8 0.4,11 0.8,7.6 0.4,-3.6 0.4,-10 0,-14 z m -389,13.2 c 4.2,-2.4 2,-3 -20.4,-6.2 -13.8,-2 -39,-6.2 -56,-9.4 -43,-8.2 -50,-9.2 -50,-6.4 0,3.4 7.8,5.8 46.6,14.4 51.6,11.4 69.6,13 79.8,7.6 z m 593,-33.2 c -0.4,-3.2 -0.8,-1 -0.8,4.4 0,5.6 0.4,8 0.8,5.6 0.4,-2.6 0.4,-7 0,-10 z M 1151,1124 c 0.8,-1.2 -1.2,-2 -4.8,-2 -3.2,0 -6.6,-0.8 -7.2,-2 -0.6,-1 -3,-3 -5,-4 -3.4,-1.8 -3.8,-1.6 -2.6,1.4 0.6,2 2,4.8 3.2,6.2 2.2,2.8 14.6,3.2 16.4,0.4 z m 188.4,-29.4 c 1.4,-9.6 2.2,-17.6 2,-17.8 -0.2,-0.2 -3.2,0.2 -6.6,0.6 -6,1 -6.4,1.6 -7.8,11.2 -3.4,25.6 -3.8,23.4 3.6,23.4 h 6.6 z m -206,-41 c -0.4,-2.6 -0.8,-0.6 -0.8,4.4 0,5 0.4,7 0.8,4.6 0.4,-2.6 0.4,-6.6 0,-9 z m 253,-23.4 c 14.2,-8.4 35,-23.6 39.6,-29.2 1.4,-1.8 -5.6,3 -16,10.8 -10.2,7.6 -23.6,16.6 -29.8,20 -6.2,3.4 -10.2,6.2 -9.2,6.2 1.2,0 8,-3.6 15.4,-7.8 z M 1357,1011 c 0,-3.2 -1.2,-3.8 -6,-3.4 -6.8,0.6 -18,-6.4 -15.8,-10 0.8,-1.2 0.4,-1.6 -0.8,-0.8 -2,1.2 -6.6,-4.8 -13.2,-17.8 l -3.2,-6 v 6.8 c 0,10 8.8,23.6 19.6,30.4 10.8,6.8 19.4,7.2 19.4,0.8 z m -221.6,-18.4 c -0.4,-4.2 -0.8,-0.8 -0.8,7.4 0,8.2 0.4,11.6 0.8,7.6 0.4,-4.2 0.4,-11 0,-15 z m -144.2,-9 c 2,-2.6 3,-4 2,-3.2 -1,0.8 -3.2,0.6 -5.2,-0.4 -2.8,-1.6 -3.2,-1 -2.4,3 1,6 1,6 5.6,0.6 z M 1592,984 c 10.4,-5.2 10.8,-6.6 4.6,-12.8 l -5.2,-5.2 1.4,-25.4 c 2,-36 4.2,-59.2 12.6,-126.2 5.2,-42.2 6.6,-59.2 5,-60.8 -2.8,-2.8 -5.2,6.2 -10.4,37.4 -5.2,30.8 -4.4,28.6 -23.2,66 -15.2,30.2 -16.2,32.8 -16.6,46.4 -0.6,19.8 3.6,60 7,68.6 3.6,8.2 10.4,16 14.2,16 1.6,0 6.2,-1.8 10.6,-4 z m -104.8,-43 c 8.8,-12.4 3,-6.4 -19.8,21.2 l -15.6,18.8 14.2,-15 c 7.8,-8.2 17.4,-19.4 21.2,-25 z m -164.8,26.8 c -2.4,-1 -4.4,-2.8 -4.4,-4 0,-1.4 -1.6,-3.4 -3.4,-4.8 -5,-3.6 -6.2,-34.8 -2,-49.2 1.8,-5.8 2.8,-11 2.4,-11.4 -0.4,-0.4 -2,3.6 -3.6,9.2 -7.6,25.4 -5.8,51.8 3.8,59.8 3,2.2 6.8,3.8 8.4,3 2.4,-0.8 2,-1.4 -1.2,-2.6 z m 90.2,-13.2 c 14.2,-9.6 39.2,-33 47.2,-44.4 l 4.8,-6.6 -4.8,2.4 c -20.2,10.6 -62.6,45.2 -72.2,58.6 l -4,5.6 7.6,-3.2 c 4.4,-1.6 14,-7.2 21.4,-12.4 z m 397,-12.4 c 1.8,-5.2 1.6,-6.4 -2.4,-9 -2.6,-1.6 -5.8,-4.2 -7.4,-5.6 -1.6,-1.4 -5.4,-4.2 -8.4,-6.2 -5.6,-3.6 -5.8,-3.6 -8.6,0 -3.8,5 -3.4,8.2 1,10.4 2,1.2 7.4,5.2 12,9.2 4.8,3.8 9.4,7 10.2,7 0.8,0 2.6,-2.6 3.6,-5.8 z M 1871,932 c 7.4,-7 21.6,-24.2 31.2,-38.4 9.8,-14 18.8,-26 20,-26.8 1.2,-0.6 4.2,0.8 7,3.4 2.6,2.4 6.6,4.6 8.8,4.8 2.4,0.2 8.6,5.4 14,11.6 5.6,6 14.8,14.6 20.6,18.6 5.6,4.2 11,8.6 11.8,9.8 0.8,1 1.6,1.2 1.6,0.2 0,-1 1.4,-0.6 3,0.8 1.6,1.4 9.2,3 16.6,3.6 12.6,0.8 14.2,0.4 24,-5.8 l 10.8,-6.6 -9.8,-4.4 c -12.4,-5.6 -13.6,-7 -41,-49.8 -22.6,-35.4 -27.6,-45.6 -23.6,-48 1.2,-0.8 1.6,-2.2 1,-3.2 -0.8,-1 1.6,-6 5.2,-11.2 l 6.4,-9.6 -7.8,7.6 c -13.8,12.8 -17.6,10.6 -38.4,-21.8 -6.2,-10 -18.2,-32.2 -26.4,-49.4 -8.2,-17.4 -15.8,-31 -17,-30.6 -1,0.6 -11,4.8 -22,9.2 -11,4.6 -21.2,9.4 -22.6,10.8 -5.2,5.2 5,39 19.2,62.4 4,6.8 17.2,24.8 29.2,40 24.8,31.6 30.8,42.6 27.4,50.2 -2.8,6 -40.6,56 -53.6,70.8 -5.2,6 -10.8,12.6 -12.4,14.6 -6.2,7.6 3,0.8 16.8,-12.8 z m -141.4,10.8 c 9.4,-3.8 17.6,-11.6 22.6,-21 3.4,-6.8 3.4,-7.4 0.2,-6.4 -2,0.4 -5.4,-1.2 -8.2,-4.2 l -4.6,-5 3.4,-19.6 c 1.8,-10.8 9.8,-48.4 18,-83.6 8,-35.2 15.2,-67.6 16,-72 l 1.4,-8 -5.6,7.6 c -4,5.4 -9.8,9.6 -19.8,14 -31.2,14.2 -29.2,12.4 -37.4,33.4 -4,10.4 -9.6,29.8 -12.2,43.2 -2.8,13.2 -7.8,30.4 -11.2,37.8 l -6.4,13.8 5.2,4.6 c 4.6,4.4 5,6.2 5,22.2 0,22.2 2.4,30.6 11,38 3.6,3.4 6.2,6.6 5.6,7.2 -2.6,2.4 9.8,1 17,-2 z M 1413,891 c 18,-27.2 32.2,-58.4 37,-81.6 1.2,-6.2 1.6,-12.4 0.8,-13.6 -2,-3.2 -4.8,1.8 -4.8,9 0,8.2 -11,39.6 -20.2,58.2 -10.2,20.2 -27.2,45.8 -40.4,60.8 -7.2,8.2 -6.2,7.4 3.2,-2.6 7.6,-7.8 18.6,-21.4 24.4,-30.2 z m 438.4,-8.6 28.4,-36 -9.2,-12.2 c -5,-6.8 -9.8,-11.8 -10.8,-11.2 -2.6,1.8 -49.6,58.2 -59.6,71.6 -4.6,6.4 -8.2,12.4 -7.8,13.2 0.4,1 6,5.8 12.6,10.8 l 12,9 3,-4.6 c 1.6,-2.6 15.8,-20.8 31.4,-40.6 z m -714,-44.8 c -0.2,-12.4 -0.6,-2.8 -0.6,21.4 0,24.2 0.4,34.4 0.6,22.6 0.4,-11.8 0.4,-31.6 0,-44 z m 924.6,53.2 c 0,-2 -7.8,2.4 -9.8,5.4 -2.2,3.8 -1.8,3.6 3.6,-0.4 3.4,-2.6 6.2,-4.8 6.2,-5 z m -708,-5 c 3.4,-5.6 5.8,-10.6 5.4,-11.2 -0.8,-0.8 -13.4,18.4 -13.4,20.4 0,2.6 2.2,0 8,-9.2 z m 279,-11.6 c 2.8,-5.6 2.8,-6 -1.2,-7.2 -5,-1.6 -5,-1.6 -6.8,6.6 -1.8,8.4 3.6,9 8,0.6 z m 465.4,-25.8 c 10.4,-17.8 22.2,-45.6 20.8,-49 -0.4,-1.4 -1,-1 -1,0.8 -0.4,5.4 -22,48 -31.6,61.8 -7.2,10.2 -7.8,11.8 -3.2,7.4 3.2,-3 10,-12.4 15,-21 z m 264.4,-2.2 c 0.8,-1 -2,-3.8 -6,-6.4 -16.2,-10 -24,-27.6 -26.4,-59.8 l -1.6,-21 -2.4,10.8 c -1.4,6 -3.6,12.2 -4.8,13.6 -2.4,3 -1,26.4 1.8,28.4 3.6,2.4 10.6,16.6 9.4,18.6 -1,1.4 -0.4,1.6 1,0.8 1.6,-1 2.8,0 3.6,2.6 0.6,2.4 5.2,6.2 11.2,9.2 11.2,5.6 12.6,5.8 14.2,3.2 z m -1009.6,-6.6 5.8,-6.6 -6.4,5.8 c -6.2,5.6 -7.6,7.2 -6,7.2 0.4,0 3.2,-3 6.6,-6.4 z M 1803.8,804 c 6.4,-9.4 13.6,-20.8 16,-25.4 l 4.2,-8.6 -5.8,-11.6 c -3.2,-6.4 -7.4,-17 -9.4,-23.6 l -3.6,-11.8 -1.8,9 c -2.6,13.2 -12.4,58 -18.2,82 l -5,21 6,-7 c 3.2,-3.8 11,-14.6 17.6,-24 z m -416.4,23 c 3.4,0 5.8,-0.6 5.2,-1.4 -1.4,-2.6 -13,-1.6 -19.6,1.4 l -6,2.8 7,-1.4 c 3.8,-0.8 9.8,-1.4 13.4,-1.4 z M 2455.8,692 c -1.6,-13.2 -5.8,-20 -12.6,-20 -3,0 -3.4,0.6 -1.6,1.6 3,2 6.4,21.2 6.4,37 0,6.2 0.8,11.4 2,11.4 1.2,0 2.2,2 2.2,4.6 0.2,2.4 1.4,-1.6 2.6,-9 1.6,-8.2 2,-18.2 1,-25.6 z m -1316.4,2.6 c -0.4,-4.2 -0.8,-1.2 -0.8,6.4 0,7.8 0.4,11 0.8,7.6 0.4,-3.6 0.4,-10 0,-14 z m 2,-55 c -0.4,-2.6 -0.8,-0.6 -0.8,4.4 0,5 0.4,7 0.8,4.6 0.4,-2.6 0.4,-6.6 0,-9 z m 1292.6,-26 c 0,-5.6 -15.2,-33.2 -26.8,-48.6 -13.8,-18.2 -32.8,-37.4 -50.4,-50.6 -14.2,-10.6 -44.6,-28.4 -48.4,-28.4 -5.8,0 -1.2,4.4 13.4,12.8 39.8,23 76.2,61.6 98,104.2 10.4,20 10.4,20 12.4,16.8 1,-1.6 1.8,-4.4 1.8,-6.2 z"
       id="path91"
       style="fill:url(#linearGradient976)" />
    <path
       d="m 1970,1524.2 c 0,-260.4 0.8,-402.8 2,-416 4.6,-43.2 20,-84 43.8,-115.6 6.6,-8.8 20.8,-24.4 31.8,-35 42,-40.2 89.2,-63.6 148.6,-73.8 21.2,-3.6 30,-4.2 60.8,-3.2 52.2,1.4 81.8,8.4 124,29.4 29.2,14.6 52.2,31.6 76,56.2 35,36.4 52.6,68.4 63.4,115.6 l 4.4,19.2 0.6,409.6 0.8,409.4 H 2420 2314 v -104 -104 h -66 -66 v 104 104 h -106 -106 z m 347.4,235.4 c -0.2,-29 -0.4,-5.4 -0.4,52.4 0,57.8 0.2,81.4 0.4,52.6 0.4,-29 0.4,-76.2 0,-105 z m -138,82 c -0.2,-13.6 -0.6,-2.6 -0.6,24.4 0,27 0.4,38 0.6,24.6 0.4,-13.6 0.4,-35.6 0,-49 z m 0,-126 c -0.4,-4.8 -0.8,-1.4 -0.8,7.4 0,8.8 0.4,12.6 0.8,8.6 0.4,-4.2 0.4,-11.4 0,-16 z m 0,-489.2 c -0.2,-54.6 -0.4,-9.4 -0.4,100.6 0,110 0.2,154.8 0.4,99.4 0.4,-55.4 0.4,-145.4 0,-200 z m 138,-3 c -0.2,-55.2 -0.4,-9.4 -0.4,101.6 0,111.2 0.2,156.2 0.4,100.4 0.4,-56 0.4,-146.8 0,-202 z m -3.8,96.2 -0.6,-202.6 -6,-11.8 c -14.6,-28.8 -50,-42.4 -81.8,-31.2 -16.4,5.8 -28.8,16.4 -36.2,31.2 l -6,11.8 -0.6,202.6 -0.6,202.4 h 66.2 66.2 z M 1997.8,1029 c 0,-1 -1.2,0.2 -2.8,3 -1.6,2.8 -2.8,6 -2.8,7 0,1.2 1.2,-0.2 2.8,-3 1.6,-2.8 2.8,-5.8 2.8,-7 z m 262.8,-146.4 c -3.6,-0.4 -9.6,-0.4 -13,0 -3.6,0.4 -0.8,0.8 6.4,0.8 7.2,0 10,-0.4 6.6,-0.8 z"
       id="path93" />
    <path
       d="m 2196.4,1312.4 0.6,-195.8 6,-9.8 c 19.4,-31.2 69.2,-31.4 90.4,-0.2 l 5.6,8.4 0.6,196.6 0.4,196.4 h -52 -52 z m 93.6,-2.6 v -188.2 l -4.4,-7.8 c -15.2,-27.2 -57.2,-27.6 -74.4,-1 l -5.2,8 v 188.6 188.6 h 42 42 z"
       id="path95" />
    <path
       d="m 4467,1961.8 c -72.6,-7.6 -139.2,-40.8 -191.2,-95.2 -35,-36.6 -54.6,-73.6 -66.4,-125 -4.2,-18.4 -4.2,-21.4 -5,-311.6 -0.6,-310.6 -0.2,-330.4 8.4,-364.6 17,-66.8 62.8,-125 131,-166.2 64,-38.6 151,-51.8 231.6,-35.2 100.4,20.8 189,97.2 217.4,187.6 11.6,37 11.2,24 11.2,358.4 0,334.4 0.4,321.4 -11.2,358.4 -7.6,24 -15.2,39.8 -29.6,61.4 -28.6,42.8 -69.8,78.8 -116.8,102 -52.8,26.2 -115.4,36.6 -179.4,30 z m 67.2,-9.8 c 66.2,-6.4 118.4,-28 167.6,-69.2 23.6,-19.8 34.6,-31.8 51.2,-57 20.8,-30.8 31.6,-58 38.2,-94.4 4.4,-25.2 4.2,-618.4 -0.2,-643.8 -16,-91.6 -89.4,-172.4 -185.4,-204.6 -53.6,-17.8 -120,-20.2 -180.8,-6.4 -12.4,3 -43.4,14.6 -57.4,21.6 -68.4,34.4 -121.6,94.4 -141,158.8 -11.8,39 -11.4,24.2 -11.4,352 0,276.8 0.4,303.6 3.6,322 8.4,48.6 26.8,86.4 60,123.6 63.6,71 158,107 255.6,97.4 z"
       id="path97" />
    <path
       d="m 4457.2,1937 c -63.8,-10.4 -116.8,-37.6 -161.2,-82.8 -38.2,-39 -60,-83.8 -66,-135.2 -1.2,-11.4 -2,-124.8 -2,-310.8 0,-322 -0.2,-314.6 12.2,-352.8 11.6,-35.4 31,-64.8 63.2,-95.6 58,-55.6 130.6,-82.6 212.6,-79.2 77.2,3.4 137,28 189.2,78 44.8,42.8 68.2,88.8 74.8,146.4 2.8,24.8 2.6,587.6 0,612 -6.8,59.2 -36.8,114.2 -84,153.8 -41.4,35 -81.4,54.4 -132,64.4 -23.6,4.6 -83.2,5.6 -106.8,1.8 z m 60.4,-0.4 c -3.2,-0.4 -8,-0.4 -11,0 -3.2,0.4 -0.6,0.8 5.4,0.8 6,0 8.6,-0.4 5.6,-0.8 z m 16.8,-192.2 c 11.4,-5 25.2,-18.2 30.6,-29.4 4,-7.8 4,-13 4,-305 v -297 l -5.8,-9.6 c -8,-13.4 -16.4,-21.2 -29.2,-27.2 -9.2,-4.4 -13.8,-5.2 -29,-5.2 -15.2,0 -19.8,0.8 -29.2,5.2 -12.2,5.8 -25.8,18.6 -30.8,29.2 -1.8,3.6 -4,11.8 -5,18 -2.4,14.4 -2.2,559.4 0.2,574.2 3.8,24.8 20.6,43.2 45.8,50.6 9.8,3 38.4,0.6 48.4,-3.8 z m -99,-503.8 c -0.2,-13 -0.6,-2.8 -0.6,22.4 0,25.4 0.4,36 0.6,23.6 0.4,-12.4 0.4,-33 0,-46 z"
       id="path99" />
    <path
       d="m 4489.6,1735.2 c -13.2,-3.6 -24.8,-12.2 -31.2,-23 l -5.4,-9.2 -0.6,-288.6 c -0.2,-189 0.2,-291.4 1.6,-296.2 7.4,-28 42.8,-42.4 74.2,-30.6 7.4,3 17.4,12 23.4,21.2 l 5.4,8.2 0.6,287.8 c 0.6,322.6 1.4,302.4 -13.6,317 -14.4,14 -34.6,19 -54.4,13.4 z m 35.6,-11.8 c 9.2,-4.6 18.6,-15.4 20.8,-23.2 2.8,-10 2.6,-568.6 0,-578.6 -5.8,-20.2 -28.6,-32.4 -51.6,-27.4 -13,2.6 -27.4,14.8 -30.4,25.4 -1.2,5 -2,103.8 -2,292.2 0,284.8 0,285 4.2,293.6 7.2,14.8 23.2,23.2 42,21.8 6.2,-0.4 13.8,-2.2 17,-3.8 z"
       id="path101" />
    <path
       d="M 3232,1411 V 878 h 129 129 v 533 533 h -129 -129 z m 248,-0.2 V 888 h -119 -119 v 522.6 522.4 l 119,0.2 119,0.2 z"
       id="path103" />
    <path
       d="M 3256,1411 V 902 h 105 104.8 l 0.6,273.6 c 0.4,150.4 0.4,379.4 0,509 l -0.6,235.4 H 3361 3256 Z m 3.4,17.6 c -0.2,-90 -0.4,-16.8 -0.4,162.4 0,179.4 0.2,253 0.4,163.6 0.4,-89.2 0.4,-236 0,-326 z m 204,295 c -0.2,-9.2 -0.6,-2.2 -0.6,15.4 0,17.6 0.4,25 0.6,16.6 0.4,-8.4 0.4,-22.8 0,-32 z m 0,-644 c -0.2,-34.4 -0.4,-6.4 -0.4,62.4 0,68.8 0.2,96.8 0.4,62.6 0.4,-34.4 0.4,-90.8 0,-125 z m -190.8,-174.2 12.4,-0.6 -13.4,-0.4 -13.6,-0.4 0.4,148.6 0.6,148.4 0.4,-147.4 0.6,-147.4 z m 187,-0.8 c -3.2,-0.4 -8,-0.4 -11,0 -3.2,0.4 -0.6,0.8 5.4,0.8 6,0 8.6,-0.4 5.6,-0.8 z"
       id="path105" />
    <path
       d="m 2604,1824 v -118 h 154.6 c 151,0 154.6,-0.2 163.4,-4.2 11.2,-5 15.4,-8.8 20.2,-18.2 8,-15.6 1.8,-34.2 -14.8,-44.4 -8.8,-5.4 -11.4,-6 -38.2,-7.4 -15.8,-0.8 -34.4,-2.6 -41.4,-3.8 -68.6,-12.2 -125.4,-42.4 -171.6,-91 -37.8,-40 -61,-85.6 -69.2,-135 -4.4,-28 -4.4,-289 0,-315.2 11.8,-68.4 47,-123.2 109.4,-170.2 58,-44 136,-65.2 214.6,-58.6 76.2,6.4 137.4,33.6 189.8,84 42,40.6 65.6,82 77.4,135.6 3.8,17.2 4.4,27.6 5.2,96 l 1,76.4 h -129 -129.2 l -0.6,-65.8 -0.6,-65.8 -6.2,-7.8 c -13.2,-16.6 -35.6,-21.2 -56.2,-11.6 -9.4,4.2 -10.6,5.6 -10.6,11 0,5.4 -0.6,6 -6,6 -3.2,0 -6,1 -6,2.2 0,1 0.6,1.6 1.6,1.2 0.8,-0.6 1.2,55 0.8,123.2 -0.4,90.6 0.2,126 1.8,130 1.4,3 6,8.6 10.4,12.4 9.4,8.2 17.2,10 56.4,12.8 33.2,2.6 50.6,6 79,15.6 72.2,24.4 134.8,78.2 167.6,143.6 20.2,40.6 29.2,90.4 24.6,136.4 -6.6,65.6 -33.2,119 -82.6,165.6 -41.6,39.4 -88.8,64 -147.2,77.4 -19,4.4 -22.6,4.4 -193.8,5 l -174.6,0.8 z m 346.4,105 c 86.2,-13 154.8,-55.4 202.8,-125.2 24.8,-35.8 39,-83.4 39.2,-130.8 0.2,-73.8 -22,-126.8 -75.2,-180 -25.6,-25.4 -46,-40.4 -74.8,-54.8 -39,-19.6 -70.6,-27.6 -127.4,-32.2 -13.2,-1 -27.6,-2.8 -31.8,-4.2 -11.2,-3.2 -28.2,-20.6 -30.2,-30.8 -1.8,-8.8 -1.6,-250.4 0.2,-253.2 0.6,-1 -0.2,-1.8 -1.8,-1.8 -1.6,0 -4,-1.4 -5.4,-3 -2,-2.4 -3.2,-2.6 -4.8,-1 -3.2,3.2 -4.2,240.8 -1.2,256.8 3.6,18.6 15,33.6 32,42.2 11.4,5.8 15.2,6.4 48.6,9 15,1.2 34.8,3.4 43.8,5.2 94.6,18 177.8,88 204.4,172.4 15,47.4 14.6,99.2 -0.8,146.2 -24.6,75.4 -94.2,139.2 -179,164 -36.2,10.6 -36.8,10.6 -205.4,11.6 l -157.6,0.8 v -95 -95.2 h 137.6 c 85,0 142.2,-0.8 150.2,-2 32.4,-5.4 54.8,-29.4 54.6,-58.8 -0.2,-17 -5.8,-29.6 -18.6,-41.6 -13.8,-13 -26.6,-17.4 -54.4,-18.8 -12.4,-0.6 -31,-2.4 -41.8,-4 -109.2,-16.4 -198.6,-95.8 -222,-197 -4,-18 -4.2,-24.6 -5,-145.6 -1,-137 0,-160.6 8.4,-193.4 16,-63 68.2,-124 135.8,-158.6 66.4,-34 157.4,-39.4 232.2,-13.8 80,27.2 143.8,90.2 167,164.8 8,25.8 10,48.2 10,109.4 v 57.4 h -104.8 -104.8 l -0.8,-54.4 c -0.6,-51.8 -0.8,-55.2 -5.2,-64.8 -5,-11 -17,-23.6 -28.8,-30.2 -22.8,-13 -59.4,-9 -74,7.8 -5.2,6.2 -5.2,6.4 -1.6,9 3.4,2.4 4.8,2 11.4,-2.2 11.6,-7.6 29.2,-11 42.6,-8.2 6,1.2 13.8,3.6 17.2,5.4 9,4.8 20.2,18.2 22.6,27 1.4,4.6 2.2,30.8 2.2,65.2 v 57.4 h 119 119 l -0.8,-68.4 c -0.6,-37.8 -1.4,-71.8 -2.2,-75.6 -0.6,-3.8 -2.6,-13.2 -4.2,-21 -14.4,-66.2 -59,-125.4 -124.4,-165.2 -25.8,-15.8 -70,-32.8 -96.4,-37 -2.8,-0.4 -6.8,-1.2 -9,-1.8 -21,-4.6 -70.8,-4.6 -101.4,-0.2 -67.6,10.2 -118.6,35.8 -166.8,84 -23,23.2 -37.2,42.2 -49.6,66.8 -8.6,17 -18.8,46.6 -20.4,58.8 -0.6,4.8 -2,12.2 -3,16.6 -0.8,4.4 -1.4,73.8 -1.2,154 0.6,144.4 0.6,146.2 5,163 5.6,21.2 14.4,44 22.6,59.2 38.6,70.8 112.4,125.2 192.4,141.6 19.6,4 45.8,7.2 59.8,7.2 25.2,0 45,8.6 54.6,24 11,17.6 8.4,38.8 -7,54.2 -16.6,16.6 -8.6,15.8 -178.4,15.8 H 2614 v 108 108 h 158 c 131.8,0 161.4,-0.6 178.4,-3 z m -20.8,-14.4 c -2,-0.4 -5.2,-0.4 -7,0 -2,0.6 -0.4,1 3.4,1 3.8,0 5.4,-0.4 3.6,-1 z m -107,-182 c -35.6,-0.4 -93.6,-0.4 -129,0 -35.6,0.2 -6.6,0.4 64.4,0.4 71,0 100,-0.2 64.6,-0.4 z m 150.8,-554 c -0.2,-8.6 -0.6,-1.6 -0.6,15.4 0,17 0.4,24 0.6,15.6 0.4,-8.6 0.4,-22.6 0,-31 z m 204,-17 c -0.4,-5.8 -0.6,-1.6 -0.6,9.4 0,11 0.2,15.8 0.6,10.6 0.4,-5.2 0.4,-14.2 0,-20 z m -204,-25 c -0.4,-4.2 -0.8,-1.2 -0.8,6.4 0,7.8 0.4,11 0.8,7.6 0.4,-3.6 0.4,-10 0,-14 z m -115.8,-32.2 c -0.4,-1.8 -2.8,-3.2 -6,-3.2 -6.8,-0.4 -7,1.4 -1,5.4 5,3.4 8,2.6 7,-2.2 z m 256.4,-133 c 0,-0.4 -3.4,-3.8 -7.4,-7.6 l -7.6,-6.8 6.8,7.6 c 6.6,6.8 8.2,8.4 8.2,6.8 z m -234.4,-86.8 c -2,-0.4 -5.2,-0.4 -7,0 -2,0.6 -0.4,1 3.4,1 3.8,0 5.4,-0.4 3.6,-1 z"
       id="path107" />
    <path
       d="M 3550,1410 V 878 h 129.2 129.2 l -1.2,6.8 c -1.2,6 3.8,17.8 41.2,97 l 42.6,90.2 0.6,-97 0.4,-97 h 129 129 v 532 532 H 4021 3892 V 1753.6 1565 l -41.4,-87.8 -41.6,-87.8 -0.6,276.2 -0.4,276.4 h -129 -129 z m 247,227.2 c 0,-162.2 0.6,-294.4 1.2,-293.6 0.6,0.8 11.2,22.6 23.4,48.4 25.4,54.2 35.6,75.6 62,131 l 19,40 -0.4,184.6 -0.2,184.4 h 119 119 V 1410.6 889 l -91.6,-0.8 c -50.2,-0.4 -103.6,0 -118.4,0.8 l -27.2,1.4 0.2,114.6 c 0,63 -0.6,114.2 -1.4,113.6 -1,-0.4 -1.6,-1.6 -1.6,-2.4 0,-1 -13.4,-30 -29.6,-64.4 -16.4,-34.6 -32.8,-69 -36.4,-76.8 -18.8,-40 -24,-51 -29.8,-62.8 -3.4,-7.2 -6.2,-15.2 -6.2,-18 V 889 l -91.6,-0.8 c -50.2,-0.4 -103.8,0 -118.8,0.8 l -27.6,1.4 v 520.8 520.8 h 118.6 118.4 z"
       id="path109" />
    <path
       d="M 3574,1410 V 902 h 105.6 105.6 l 56.8,120.6 c 31.4,66.2 60.6,128 65.4,137.4 l 8.4,17 V 1039.6 L 3916,902 h 105 105 v 508 508 h -105 -105 v -178 -177.8 l -48.8,-103.6 c -26.8,-57 -53.4,-113.4 -59.2,-125.6 -5.8,-12 -13.4,-28.2 -17.2,-36 l -6.6,-14 v 317.6 L 3784,1918 h -105 -105 z m 30.6,504.6 -26.6,-0.8 -0.6,-288.4 -0.4,-288.4 -0.6,289.6 -0.4,289.4 27.6,-0.4 27.4,-0.4 z m 149,0 c -16.2,-0.4 -43.2,-0.4 -60,0 -16.8,0.2 -3.6,0.6 29.4,0.6 33,0 46.8,-0.4 30.6,-0.6 z m 206,0 c -7.6,-0.4 -19.6,-0.4 -27,0 -7.6,0.4 -1.4,0.6 13.4,0.6 14.8,0 21,-0.2 13.6,-0.6 z M 4124,1410 V 904 l -63.4,0.4 -63.6,0.6 62.6,0.4 62.4,0.6 v 504 504 l -58.4,0.6 -58.6,0.4 59.6,0.6 59.4,0.4 z m -342.6,39.6 c -0.2,-26.8 -0.4,-5.4 -0.4,47.4 0,52.8 0.2,74.6 0.4,48.6 0.4,-26 0.4,-69.2 0,-96 z m -204,-376.2 c -0.2,-13.4 -0.6,-1.8 -0.6,25.6 0,27.6 0.4,38.4 0.6,24.4 0.4,-14.2 0.4,-36.6 0,-50 z m 37.2,-168 36.4,-0.4 -37.4,-0.6 -37.6,-0.4 0.4,32.6 0.4,32.4 0.6,-31.4 0.8,-31.6 z m 137,-0.8 c -17.2,-0.4 -46,-0.4 -64,0 -18,0.2 -3.8,0.6 31.4,0.6 35.2,0 49.8,-0.4 32.6,-0.6 z m 223,0 c -10.2,-0.4 -27,-0.4 -37,0 -10.2,0.2 -2,0.6 18.4,0.6 20.4,0 28.6,-0.4 18.6,-0.6 z"
       id="path111" />
    <path
       d="m 2592,871.8 c -43.2,-5.6 -72.4,-29 -86.2,-69.4 -9.8,-28.6 -12.2,-79.4 -4.8,-103.8 6.6,-22.2 42.8,-67.6 67.8,-85.6 15,-10.4 65.6,-41.2 81.6,-49.2 44.4,-22.4 92.2,-10.4 110.8,27.4 7,14.2 6,27.8 -4,57.8 -17.2,51.4 -47,91 -89.8,119.6 l -14.2,9.4 h 8.6 c 12.4,0 36.6,-8.8 53,-19.4 27.2,-17.4 58.4,-54.2 82.2,-96.8 15.2,-27 20.8,-29 44.6,-15.6 14,7.8 22.4,16.6 22.4,23.8 0,5.4 -6.6,15.2 -37.8,56 -38.2,50.4 -56,71.4 -74,88.4 -36.8,34.8 -73,52.6 -116.8,57.4 -21.4,2.4 -24.6,2.4 -43.4,0 z m -13.2,-33 c -24.8,-13 -35,-31.6 -41.8,-75.8 -4.4,-29.8 -4.8,-31.4 -7,-30 -2.6,1.6 -2.6,28.6 0.2,44.8 2.8,17.4 9,35.4 15,43.2 5.6,7.6 18,16.2 28.6,20 12.2,4.6 15.4,3.2 5,-2.2 z m 69,-161.4 6.4,-12.4 -6.8,7.6 c -3.8,4 -9.8,13 -13.2,20 l -6.4,12.4 6.8,-7.6 c 3.8,-4 9.8,-13 13.2,-20 z m 44.2,-31.2 c 0,-5.8 -3.2,-10.2 -7.2,-10.2 -2,0 -1.8,1.4 0.4,5.6 1.4,3 2.8,7 2.8,9 0,2 1,3 2,2.4 1.2,-0.6 2,-3.8 2,-6.8 z"
       id="path113" />
  </g>
  <g
     fill="#ff1e26"
     id="g131"
     transform="translate(-794.93264,-390.96664)">
    <path
       d="m 1579,1932.8 c -71.6,-10.8 -120.6,-34.4 -165.8,-79.6 -32.6,-32.6 -51.6,-64.4 -62.8,-104.8 l -5.4,-19.4 -0.6,-274.2 -0.4,-274.4 -14.2,6 c -21,8.8 -40.6,10.2 -113.6,8.8 -34.6,-0.8 -63.8,-1.6 -65,-1.8 -2.2,-0.4 -2.4,1.2 -14.2,76.6 -19.4,126.4 -44.4,193.4 -93,251 -19.8,23.4 -52,49.4 -78,63.2 -7.4,4 -12,4.8 -26,4.8 -22.2,0 -30.8,-4.2 -53.8,-26.2 -38.2,-36.2 -65,-86.4 -77.4,-144.8 -4.8,-22.6 -4.8,-61 0,-84 21.2,-100.8 102.6,-190.2 203.2,-222.8 l 19,-6.2 2.4,-27 c 1.4,-14.8 3.4,-31 4.2,-36 0.8,-5 1,-12.6 0.2,-17 -2.2,-11.2 -2,-118 0.2,-237 1.6,-90.8 3,-124.4 7.2,-196.8 l 1.4,-21.8 -15.4,8.2 c -20.8,11.2 -35,22.6 -55.2,43.8 -45.8,48.2 -79,118.2 -86,181.8 -4,38 3.8,66.8 24.8,90.2 12.2,13.6 29.8,26.2 66.4,48.4 16.6,10 32.2,19.8 34.6,21.6 5.4,4.6 8,13.8 5.8,21.8 -1.6,6.4 -3.8,8.6 -39.6,39.8 -11.4,10 -26.4,23.2 -33.4,29.6 -15,13.6 -20,14.4 -39,5.6 -7,-3.2 -21.2,-9.8 -31.6,-14.8 -30.2,-14 -53.4,-38.2 -68.8,-71.8 -20.6,-44.8 -18.8,-116 4.8,-184.6 18.2,-52.6 40.6,-92 104,-184 24.6,-35.8 38.2,-53.2 53.6,-69.2 44.4,-46.2 104.8,-85.2 159.6,-103.6 29.4,-10 46.6,-7.4 52.8,7.8 2.2,5.4 2.4,10 0.2,25.8 -15,115.8 -17.8,165.8 -20.2,361.2 -1.2,92.4 -2.6,151.8 -4.2,162 -2.6,18 -2.6,16.6 -2,66.4 l 0.4,36.2 14.4,2.2 c 8,1.4 31.6,5.4 52.4,9.2 47,8.6 67,11 89.2,11 29.8,0 28.8,0.6 32.2,-20.6 1.6,-10.2 2.8,-18.6 2.6,-19 -0.4,-0.4 -8.6,0.8 -18.2,2.8 -45.4,8.4 -85.2,-4.8 -99.4,-33.2 -3,-6 -6.4,-16.4 -7.6,-23 -2.2,-12 -10.2,-41.2 -14.2,-51.6 -3.2,-8 -0.4,-39.8 4.6,-54.8 6.6,-20 35.8,-62.4 57,-82.6 21.6,-20.6 86,-69.6 102.8,-78 40.4,-20.4 83,-12 98.8,19.8 7.2,14.4 7.4,18 2.2,39.6 -7.6,31.4 -19.6,59.8 -36.4,86.6 -9.6,15 -22.6,32 -24.4,31.4 -1.8,-0.6 -33.2,25.4 -40.6,33.4 -6.6,7.2 -7,10.4 -1.8,13.2 6.2,3.2 16.2,2.4 36.4,-3 32.2,-8.4 29.8,-8.2 21.8,-1.2 -9.6,8.4 -40.6,23.6 -53.8,26.4 -16.2,3.4 -32.8,1.4 -41.2,-5.2 -7,-5.2 -13,-14.4 -13,-19.4 0,-1.4 5.8,-6 13,-10 13.4,-8 16.2,-9 13.8,-5.2 -0.8,1.4 -0.6,1.6 1,0.8 1.2,-0.8 1.8,-2.2 1.4,-3 -0.6,-0.8 1.8,-3.6 5.4,-6.2 l 6.4,-4.6 -5,5.6 -5,5.8 6.6,-4.6 c 3.6,-2.4 6,-5.2 5.4,-6.2 -0.6,-0.8 0.6,-2.8 2.6,-4.2 3,-2.6 3.2,-2.4 0.6,0.8 -1.4,1.8 -1.8,3.4 -0.8,3.4 4,0 36,-35.4 46.2,-51 19.8,-29.8 37.8,-73.2 39.4,-95 0.6,-8.6 0,-12.6 -3,-17.6 -11.8,-19.4 -43,-21.2 -70.8,-4.2 -19.2,11.8 -82.2,61.4 -95.4,75.2 -14.6,15.2 -35.6,45.4 -43.4,62.4 -9.2,20.2 -8.2,70.4 2,97.8 6.2,16.4 21.2,31 36.6,35.4 22.4,6.6 69.2,0.2 94.8,-13 4.2,-2 8.2,-3.2 9,-2.6 0.6,0.8 1.2,0.2 1.2,-1.2 0,-1.4 0.8,-2 2,-1.2 3.8,2.4 40.8,-22 57.4,-37.8 9.2,-8.6 16.6,-14.6 16.6,-13.4 0,1.2 -2.2,6.8 -5,12.2 -2.8,5.6 -4.4,10 -3.8,10 0.8,0 0,1.4 -1.4,3.2 -3,3.8 -4.2,8.8 -1.8,8.8 2.6,0 31.6,-33.4 47.4,-54.6 17.4,-23.6 19.8,-27.4 16.2,-27.4 -4,0.2 -20,7.8 -24.2,11.6 -2,1.8 2,-5.2 9.2,-15.6 17.2,-25.4 35.6,-54 34.6,-54 -0.4,0 -6.6,8.4 -14,18.6 -7.2,10 -17.2,23 -22.2,28.4 -6.8,7.4 -3,0.6 15.2,-27 13.4,-20.4 25,-37.8 25.8,-38.6 0.8,-1 1.6,10.6 1.8,25.8 0.4,29.6 4.4,67.6 9.2,84 4,13.8 13.8,22.8 25,22.8 4.2,0 8,1 8.4,2.2 0.4,1.4 4.6,0 10.6,-3.8 5.6,-3.4 12.4,-6.8 15.4,-7.4 11.8,-3 25.8,-22 48.4,-66 17.8,-34.8 17.2,-34.2 -6,5 -17.4,29.4 -32.4,51 -34.4,49 -0.6,-0.6 1.2,-3.6 4,-6.6 8.8,-9.6 13.8,-18.2 32.8,-55.2 14,-27.6 19.4,-36.4 22.6,-36.8 5.2,-0.8 5.8,2.2 6.8,29.6 1,31.6 8.6,43.6 29.6,45.6 6.6,0.6 9.8,1.8 9.8,3.6 0,4.2 3,3.4 9.4,-2.2 20.2,-18 41,-40.2 49.8,-53.2 5.8,-8.2 23.2,-30.6 39,-49.6 28.6,-34.4 45,-56.8 28.8,-39.2 -7.6,8.2 -64.6,78.6 -76.4,94.2 -7.8,10.4 -12,13.2 -7.8,5.4 5.8,-11.4 53.2,-71.6 90.8,-115 2.8,-3.2 2.6,-4 -0.6,-7.6 -3.6,-4 -3.8,-3.8 -10.6,8.4 -13.8,25.2 -38.2,57.2 -75,99.2 -19.4,21.8 -25.4,25.2 -25.4,14 0,-10.8 5.4,-38.4 18,-92 11.6,-49.6 18.4,-81.4 21,-96 1.4,-9 -1.4,-11.2 -8.4,-6.4 -3,1.8 -19,9.4 -35.6,16.8 -29.6,13.2 -30,13.4 -34.6,22.6 -5.6,11.6 -13.2,40 -17.6,65.2 -3.4,20.8 -13.6,45.8 -31,76.8 -19.8,35.4 -52,80.2 -56.6,78.8 -3.2,-1 -3.8,-29.4 -1.4,-60.4 1.2,-14.2 5.8,-57 10.6,-94.8 l 8.4,-68.6 -6.4,-5.8 c -3.6,-3.2 -8.2,-5.8 -10.2,-5.8 -2.6,0 -9.4,8.6 -22,27.8 -19.2,29.2 -28.4,47.2 -32.4,63.4 -1.4,5.4 -3.6,10.6 -5.2,11.4 -1.4,1 -6.2,8.6 -10.6,17.2 -11.6,23.2 -37.4,60.6 -57,82.8 -9.4,10.6 -17.8,19.4 -18.4,19.4 -0.6,0 0,-1.4 1.4,-3 2.2,-2.8 1.4,-3.8 -2.4,-3.2 -1.4,0.2 -1,-4 1.6,-20.2 1,-6.4 -0.4,-7 -6,-2 -2.4,1.8 -0.4,-0.8 4,-5.8 27,-30 57.2,-79.4 73,-119.2 9.6,-24.2 45.8,-81.6 57.2,-90.4 7.2,-5.8 20.2,-5.4 32.2,0.6 12.2,6.2 26.4,21.4 26.4,28.2 0,2.8 -3.6,33.2 -7.8,67.6 -10.2,81.4 -10,77.4 -6.8,77.4 1.4,0 9,-13 16.6,-28.8 11.4,-23.2 14.6,-32 17.2,-46.4 7.4,-43.4 20.2,-80.4 31,-90.2 2.6,-2.4 15.6,-8.8 28.8,-14.6 13.2,-5.6 31.6,-14.2 40.8,-19.2 9.2,-4.8 19.2,-8.8 22.6,-8.8 7,0 17.6,5.2 17.6,8.6 0.2,1.2 2,-1.6 4.4,-6.2 5.2,-10.8 13.8,-16.6 37,-25.2 9.8,-3.6 24.8,-10 33.4,-14 17.4,-8 27.6,-9 35.2,-3.8 7.8,5.4 9.4,8.2 17.2,31.2 6.6,19.8 29.2,69.4 31.6,69.4 1.8,0 59.2,-81.6 74.6,-106 15,-23.4 21.6,-30 30.6,-30 7.4,0.2 12.8,3.8 23,15.6 13.4,15.8 13,19.8 -4.4,50.4 -7.2,12.6 -29.2,47.6 -49,77.4 l -36,54.6 10.8,17.4 c 6,9.8 12.4,22 14.6,27.6 7,19 16.6,23.4 29.6,13.6 7.8,-6 10.8,-12.6 12.2,-26.8 0.6,-5.8 4.8,-17 11.4,-30 5.6,-11.4 17,-36 25,-54.4 8,-18.6 16,-35.4 17.8,-37.6 4.8,-5.2 15.4,-6.8 22.2,-3.4 8,3.6 20.6,23 20.6,31.2 0.2,7.2 -5,29.2 -13,55.8 -4.2,13.8 -7,18.8 -18.6,33 -9.2,11 -14.8,20.2 -16.8,26.6 -1.6,5.6 -4.8,14.2 -7,19.4 -2.2,5 -3.6,9.8 -3,10.4 3.8,3.8 -26.8,31.8 -55.4,50.8 -17,11.4 -17,11.4 -34,12 -27.6,1.2 -50.8,-8 -76.4,-30 -13.8,-11.8 -17,-11.2 -24.8,5.2 -8.2,17.4 -48.6,54.2 -70,63.8 l -8.2,3.8 12.4,18.2 c 18.8,28.2 30,57.6 35,92.4 1,7.8 2,37.6 2,66.6 v 52.4 h -98.8 -99 l -0.6,-52.4 c -0.6,-49.8 -0.8,-53 -5.2,-61.8 -10.4,-21.2 -29.6,-35.4 -53.8,-39.8 -30.8,-5.4 -62.8,9.6 -77.6,36.2 l -6,10.8 v 299 299 l 5.4,10 c 14.4,27.6 46.2,42.8 77.8,37.4 24.6,-4.2 43.2,-17.4 53.2,-38.2 l 5.6,-11.2 0.6,-52.4 0.6,-52.6 h 99 98.8 v 53.6 c 0,58.4 -2,77.8 -11,105.4 -22.2,67.8 -85.2,130.2 -158,156.2 -32,11.4 -53.6,15 -94,15.8 -19.8,0.4 -38.6,0.2 -42,-0.2 z m -606.2,-383 c 57.8,-38 96.6,-97.6 119,-181.8 8.8,-33.4 14.8,-65.2 25.2,-135 9.4,-63.4 11,-69 18.6,-66 1.6,0.6 37,1.6 79,2.2 83.8,1.4 90.4,1 113.4,-9.6 7.2,-3.2 16.2,-6.2 20,-6.4 7.6,-0.6 19.2,-6 29.8,-14 8,-6 6,-7 -3,-1.4 -6.8,4.2 -24.8,12.4 -24.8,11.2 0,-0.4 3.8,-3 8.6,-5.8 4.6,-2.8 11.2,-7.2 14.4,-10 l 6,-5.2 -9.4,4 c -5.6,2.4 -18.4,5 -31.4,6.4 -29,2.8 -59.8,0.2 -117.2,-10.4 -24.2,-4.4 -53.4,-9 -64.8,-10 -11.6,-1.2 -21.8,-2.8 -22.8,-3.4 -1.2,-0.8 -1.4,-8.8 -0.6,-20.4 0.6,-10.6 1.8,-36.2 2.4,-57.2 0.8,-20.8 1.6,-38.4 2,-38.8 0.4,-0.4 1,15.8 1.2,36 l 0.2,36.8 1.4,-35 c 2.2,-47.8 3.8,-160.6 2.6,-159.2 -0.6,0.6 -1.8,23.8 -2.8,51.6 -0.8,31.6 -1.2,-3.6 -0.6,-93.6 0.6,-79.2 1.4,-149 1.8,-155 0.4,-6 1.4,-24.8 2,-41.8 1.6,-41.6 6.2,-98 11.2,-137 2.2,-17.6 4.6,-36.2 5.2,-41.4 l 1.2,-9.6 -10.8,3.2 c -56.4,16.8 -115.2,53.6 -160.8,101 -18.4,19 -62,80 -97,135 -21,33.2 -45.6,82.8 -54.8,110.4 -19,56.8 -22.2,118.4 -8,156 12.4,33.4 42.4,64.2 83.6,86.6 l 15.8,8.4 29.6,-30.8 c 25,-26 29.6,-30 29.8,-25.8 v 5 l 6,-6.4 c 7.2,-7.6 7.4,-8.6 1.6,-7 -4,1 -4.2,0.6 -2,-2 2.2,-2.8 -1.4,-5.6 -29.4,-22.4 -17.4,-10.6 -37.2,-23.4 -44,-28.4 -28,-21 -47,-49.2 -53.4,-79 -10.4,-48.8 9,-129 46.4,-191.2 17.4,-28.8 31.2,-46.6 53.2,-67.8 28.8,-27.8 54,-43.4 88.2,-54.8 19.6,-6.4 20.2,-5.8 18.6,16.6 -6.6,93.8 -8.6,154.2 -11.2,329.4 -2.6,167.4 -5,233.8 -8.4,237.2 -1.4,1.2 -14.2,6 -28.2,10.6 -30,9.6 -49.6,19.2 -75,36 -82,55 -131.8,155 -117.6,236.2 9.2,52.2 36,105.2 69.4,137.4 17.6,16.8 24.6,20.6 37.8,20.6 10.8,0 12.6,-0.8 32.8,-14.2 z m -27.6,-506.2 5.8,-6.6 -6.4,5.8 c -6.2,5.6 -7.6,7.2 -6,7.2 0.4,0 3.2,-3 6.6,-6.4 z m 593.6,-47 c -5.4,-10.2 -12.8,-36 -12.8,-44.4 0,-2.8 -2.2,-7.8 -5,-11.2 -4.2,-5.2 -4.8,-5.4 -5,-2 0,7.6 7.6,40.4 10.8,46.6 3,5.8 14.6,20.4 16.4,20.4 0.4,0 -1.6,-4.2 -4.4,-9.4 z m 114.4,-40 9,-14.2 8.4,9 c 7.4,8.2 22.6,18 24.6,16 0.4,-0.4 -4,-4 -9.6,-8 -5.8,-4 -13.2,-10 -16.2,-13.4 -7.4,-7.8 -10,-6.4 -22.2,13.4 -5.4,8.6 -11.4,18.4 -13.6,21.6 -2.8,4.4 -2,4 3.4,-2 3.8,-4.4 11.2,-14.4 16.2,-22.4 z m 188.2,8.8 c 9.4,-5.2 46.2,-47.6 62.6,-72 9.2,-14 18.2,-25.4 19.6,-25.4 1.6,0 10.4,7.8 19.4,17.6 19.2,20.4 32.6,29 52,33.8 7.8,1.8 14.2,4 14.6,4.8 0.8,2 19.6,-8 33.6,-17.8 6.6,-4.6 14,-8.4 16.4,-8.4 6.2,0 16.6,-10 31.8,-30.6 7.2,-10.2 14.2,-19 15.4,-19.8 1.2,-0.8 2.4,-3.6 2.6,-6 0.2,-2.6 4.4,-14.2 9.4,-26 11.4,-27 21.6,-59 20.6,-64.4 -0.6,-4 -0.8,-4 -3,0.8 -2,4.2 -2,3.2 -1,-6 1.6,-14.8 -0.8,-12 -12.4,15 -12.8,29.8 -34,71 -51.6,100 l -14.6,24 -10.8,0.6 c -22.8,1.4 -21.2,2.8 -51,-42.8 -14.8,-22.6 -27,-41.8 -27,-42.6 0,-2.2 24,-36.8 26.8,-38.6 1.2,-1 1.4,-1.6 0.2,-1.6 -1,0 0.2,-2 3,-4.2 2.8,-2.2 3.6,-3.6 2,-2.8 -1.6,0.8 -0.8,-0.6 2,-3 2.8,-2.4 3.6,-3.8 2,-3 -1.6,0.8 -0.6,-0.6 2.2,-3.2 7.2,-6.6 14.4,-17.4 12.8,-19.6 -0.6,-1 0,-2.6 1.2,-3.4 1.6,-1 1.8,-0.6 0.8,1.4 -1.6,2.4 -1.2,2.4 1.6,0 3.8,-3 4.6,-7.2 1,-5 -1.4,0.8 -1.6,0.6 -0.8,-1 0.8,-1.2 2.2,-1.8 3.2,-1.2 1.6,1 43,-60.6 41.6,-62.2 -0.6,-0.4 -9.8,12.6 -20.4,29.2 -10.8,16.4 -20,30 -20.6,30 -0.6,0 0.6,-2.4 2.6,-5.4 7.2,-11 32.2,-51.8 36.8,-60.2 4.2,-7.6 4.4,-8.8 1.8,-11.6 -2.8,-2.6 -5.2,0.4 -23.8,27.6 -37.2,55 -84.4,119.8 -86.8,119 -7.4,-2.2 -41.8,-67.8 -53.4,-101.4 -3.6,-10.4 -6.8,-19.4 -7.2,-19.8 -0.4,-0.6 -6.8,2 -14.2,5.6 -7.4,3.4 -22.4,9.8 -33.4,14 l -20,7.4 0.2,14 c 0.4,16.8 7.8,40.4 18.4,57.8 4,6.6 19.6,28.4 34.8,48.4 15.2,20.2 27.6,37.6 27.6,38.8 0,1.2 -2.6,5.6 -5.6,9.6 -3.2,4 -18.8,23.8 -34.8,44.2 -25,32 -41.8,58.4 -38.8,61.4 0.4,0.6 2.8,-0.2 5.2,-1.4 4.2,-2.2 4.2,-2.2 1,2.8 -3.8,5.6 -2.4,6.4 4.4,2.6 z m -71.4,-24 5.6,-7.4 14.4,11.2 c 11.4,9 14.8,10.8 16.2,8.6 1,-1.6 1.8,-4 1.8,-5.2 0,-1.4 1,-2.6 2.2,-2.6 1,0 1.4,-0.8 0.8,-2 -0.6,-1 0,-2 1.4,-2 1.4,0 5.8,-4.4 9.6,-9.4 6.8,-9.2 16.4,-20.2 29.6,-34 5.6,-5.8 18.4,-31.6 18.4,-37.2 0,-1 2.2,-4.6 5,-8.2 l 5,-6.6 -9.4,-12.6 -9.4,-12.6 -13,14.8 c -7.2,8.2 -23.4,25.2 -36.2,38 -17.8,17.8 -24.6,26.2 -30,37 -9.4,19 -19.8,36.8 -24.8,42.8 l -4.2,5 5.8,-5 c 3.2,-2.8 8.2,-8.4 11.2,-12.6 z M 1803.8,804 c 6.4,-9.4 13.6,-20.8 16,-25.4 l 4.2,-8.6 -5.8,-11.6 c -3.2,-6.4 -7.4,-17 -9.4,-23.6 l -3.6,-11.8 -1.8,9 c -2.6,13.2 -12.4,58 -18.2,82 l -5,21 6,-7 c 3.2,-3.8 11,-14.6 17.6,-24 z m -908,-93 c 0,-3 -7.2,11.2 -8.6,17 -0.6,2.8 1,0.6 3.6,-5 2.8,-5.4 5,-10.8 5,-12 z M 999.6,575.4 c 6,-4.4 18,-12 27,-16.8 9,-4.8 14.2,-8.2 11.4,-7.4 -12.8,3.2 -39,19.8 -54.4,34 -15.8,15 -22.8,23.8 -8.6,11 7.8,-7 18.8,-16.4 24.6,-20.8 z"
       id="path117" />
    <path
       d="m 4469,1931.6 c -36.4,-4 -76.8,-17 -106,-34 -61.8,-36 -106,-90.6 -121,-149.4 -7.6,-29.8 -8,-53.2 -7.4,-355.2 0.8,-317.2 0.2,-299.8 11.6,-335 18.4,-56.4 69.2,-111.4 130.8,-142 40.8,-20.2 78.2,-28.6 128,-28.6 50,0.2 87.4,8.4 128,28.6 29.2,14.4 52,31.4 76.6,56.8 32.4,33.6 51.8,69.2 60.4,111 4,20 4,24.2 3.6,332.6 l -0.6,312.6 -5.4,19.4 c -16.4,59.8 -60.2,113.8 -120.8,149.4 -48.2,28.2 -114.8,41 -177.8,33.8 z m 63,-178.6 c 12.4,-4.4 26.4,-15 33.8,-25.8 12.8,-18.4 12.2,-3.8 12.2,-315.2 0,-208.2 -0.6,-286.4 -2.4,-295 -4.2,-21.6 -21.2,-40.8 -43.2,-49.2 -15.8,-5.8 -47,-4.8 -60.4,2 -16,8.2 -25.4,17.4 -32.4,31.8 l -6.6,13.4 v 296 296 l 4.2,9.2 c 8.4,18.2 26.2,33 46.8,38.8 13,3.6 34.8,2.8 48,-2 z"
       id="path119" />
    <path
       d="M 3262,1411 V 908 h 99 99 v 503 503 h -99 -99 z"
       id="path121" />
    <path
       d="m 1978.4,1502.6 0.6,-409.6 5.4,-20 c 6.4,-23.6 23.4,-58.8 37.4,-77 13.6,-18.2 46.4,-49.2 64.2,-61.4 31,-20.8 64,-34.6 102.8,-43 29.4,-6.4 89,-6.2 119.2,0.2 39.2,8.4 66.2,19.4 98,40.2 20.6,13.6 53.2,44.2 68.2,64 14,18.2 31,53.4 37.4,77 l 5.4,20 0.6,409.6 0.4,409.4 h -99 -99 v -103 -103 h -72 -72 v 103 103 h -99 -99 z M 2320,1323 c 0,-204.8 0,-204.8 -4.4,-216.4 -5,-13.8 -19.8,-29.4 -34.6,-36.6 -8.8,-4.4 -12.6,-5 -33,-5 -20.4,0 -24.2,0.6 -33,5 -14.8,7.2 -29.6,22.8 -34.6,36.6 -4.4,11.6 -4.4,11.6 -4.4,216.4 v 205 h 72 72 z"
       id="path123" />
    <path
       d="m 2634,1824 v -87.8 l 144.6,-0.6 144.4,-0.6 11.4,-5.4 c 15.2,-7 28.4,-19.6 35,-33.4 7.4,-14.8 7.8,-38 1.2,-52.4 -12.4,-27.2 -38.2,-41.8 -74.4,-41.8 -47,0 -100,-14.8 -140.8,-39.4 -57.6,-34.8 -98,-87.2 -116,-150 C 2635,1397 2635,1396 2635,1245 v -152 l 5.6,-20 c 7,-25.4 22,-56.2 37.2,-76.4 22.8,-30.2 62.6,-63.6 96,-80.6 54,-27.2 129.2,-36.2 192.8,-23 80.4,16.8 150.8,70 184.6,140 18.2,37.6 22.8,66.2 22.8,140 v 47 h -99 -99 v -50.4 c 0,-48.4 -0.4,-51.2 -4.8,-62 -5.4,-13.2 -11,-20.4 -22.4,-29.2 -17,-13.2 -45.8,-18 -67.6,-11.6 -13.8,4.2 -30.6,15 -36.6,23.6 l -5.2,7.6 8.2,7.2 c 9.2,7.8 10.4,10.8 4.4,10.8 -2.4,0 -5.6,-2.6 -8,-6.4 -2.2,-3.6 -4,-5.2 -4.2,-3.6 0,2 -0.6,1.6 -1.6,-1 -1.4,-3.2 -2.2,-1.8 -4,7 -1.8,8 -2.2,44.6 -1.8,138 l 0.6,127 4.6,9.4 c 8.2,16.6 24.6,30.2 43.4,36 3.2,1 18,2.6 32.8,3.6 48.6,3.6 85.2,12.4 118.6,29.2 49.2,24.6 95,69 117.2,113.4 16.6,33.6 23,61 23,100.4 0,57.6 -16.6,103.2 -54.4,147.8 -40.2,48 -97.8,80.4 -161.8,91.4 -21.2,3.6 -33.4,3.8 -172.6,3.8 H 2634 Z"
       id="path125" />
    <path
       d="M 3580,1410 V 908 h 100 100 l 14.6,30.4 c 8,16.8 39.6,83.8 70.4,149 l 56,118.4 1,-148.4 1,-148.4 98.6,-0.6 98.4,-0.4 v 502 502 h -99 -99 v -177 -177.2 l -71.4,-151.2 -71.6,-151.2 -0.6,328.2 -0.4,328.4 h -99 -99 z"
       id="path127" />
    <path
       d="m 1314.4,957.6 c -6.6,-8.4 -4,-43.2 4.8,-64.4 6,-14.2 23.4,-41 33.2,-51.4 8.4,-8.8 26,-15.2 39.2,-14 3.4,0.2 3.2,22.2 -0.4,35.6 -8,29.6 -33,66 -60,87 -13.4,10.6 -13.8,10.6 -16.8,7.2 z m 39.6,-71.8 c 3.4,-5.6 5.8,-10.6 5.4,-11.2 -0.8,-0.8 -13.4,18.4 -13.4,20.4 0,2.6 2.2,0 8,-9.2 z"
       id="path129" />
  </g>
  <g
     fill="#804504"
     id="g153"
     transform="translate(-794.93264,-390.96664)">
    <path
       d="m 920.6,1587.2 c -26.2,-8.6 -67.8,-55.4 -88.6,-99.6 -30.6,-65.4 -35,-126.8 -13.6,-187.6 31,-87.6 105.2,-160.2 193.6,-188.8 l 19,-6.2 2.4,-27 c 1.4,-14.8 3.4,-31 4.2,-36 0.8,-5 1,-12.6 0.2,-17 -2.2,-11.2 -2,-118 0.2,-237 1.6,-90.8 3,-124.4 7.2,-196.8 l 1.4,-21.8 -15.4,8.2 c -20.8,11.2 -35,22.6 -55.2,43.8 -45.8,48.2 -79,118.2 -86,181.8 -4,38 3.8,66.8 24.8,90.2 12.2,13.6 29.8,26.2 66.4,48.4 16.6,10 32.2,19.8 34.6,21.6 5.4,4.6 8,13.8 5.8,21.8 -1.6,6.4 -3.8,8.6 -39.6,39.8 -11.4,10 -26.4,23.2 -33.4,29.6 -15,13.6 -20,14.4 -39,5.6 -7,-3.2 -21.2,-9.8 -31.6,-14.8 -30.2,-14 -53.4,-38.2 -68.8,-71.8 -20.6,-44.8 -18.8,-116 4.8,-184.6 18.2,-52.6 40.6,-92 104,-184 24.6,-35.8 38.2,-53.2 53.6,-69.2 44.4,-46.2 104.8,-85.2 159.6,-103.6 29.4,-10 46.6,-7.4 52.8,7.8 2.2,5.4 2.4,10 0.2,25.8 -15,115.8 -17.8,165.8 -20.2,361.2 -1.2,92.4 -2.6,151.8 -4.2,162 -2.6,18 -2.6,16.6 -2,66.4 l 0.4,36.2 14.4,2.2 c 8,1.4 31.6,5.4 52.4,9.2 53.2,9.6 72.4,11.6 100,10.4 34.2,-1.6 49,-7.8 51.8,-21.6 1.8,-9.2 11.6,-14.4 25.2,-12.8 13.4,1.4 19.4,5.2 23.2,14.2 9.4,22.4 -21.2,56.8 -74.4,83.4 -35.4,17.8 -36.8,18 -95.8,18.2 -28.6,0.2 -64.2,-0.2 -79,-0.6 l -27,-0.6 -2.4,14.6 c -1.2,8.2 -5.6,36 -9.6,61.8 -19.4,126 -44.2,193 -92.8,250.6 -19.6,23.4 -53.2,50.6 -78.2,63.4 -11.2,5.8 -33,7.2 -45.4,3.2 z m 52.2,-37.4 c 57.8,-38 96.6,-97.6 119,-181.8 8.8,-33.4 14.8,-65.2 25.2,-135 9.4,-63.4 11,-69 18.6,-66 1.6,0.6 37,1.6 79,2.2 83.8,1.4 90.4,1 113.4,-9.6 7.2,-3.2 16.2,-6.2 20,-6.4 7.6,-0.6 19.2,-6 29.8,-14 8,-6 6,-7 -3,-1.4 -6.8,4.2 -24.8,12.4 -24.8,11.2 0,-0.4 3.8,-3 8.6,-5.8 4.6,-2.8 11.2,-7.2 14.4,-10 l 6,-5.2 -9.4,4 c -5.6,2.4 -18.4,5 -31.4,6.4 -29,2.8 -59.8,0.2 -117.2,-10.4 -24.2,-4.4 -53,-8.8 -64,-10 -11,-1.2 -20.4,-3 -20.6,-4 -0.4,-1.2 -1.8,-1.4 -2.8,-0.6 -1.6,0.8 -1.8,-4.6 -0.8,-18.6 0.6,-10.8 1.8,-36.8 2.4,-57.8 0.8,-20.8 1.6,-38.4 2,-38.8 0.4,-0.4 1,15.8 1.2,36 l 0.2,36.8 1.4,-35 c 2.2,-47.8 3.8,-160.6 2.6,-159.2 -0.6,0.6 -1.8,23.8 -2.8,51.6 -0.8,31.6 -1.2,-3.6 -0.6,-93.6 0.6,-79.2 1.4,-149 1.8,-155 0.4,-6 1.4,-24.8 2,-41.8 1.6,-41.6 6.2,-98 11.2,-137 2.2,-17.6 4.6,-36.2 5.2,-41.4 l 1.2,-9.6 -10.8,3.2 c -56.4,16.8 -115.2,53.6 -160.8,101 -18.4,19 -62,80 -97,135 -21,33.2 -45.6,82.8 -54.8,110.4 -19,56.8 -22.2,118.4 -8,156 12.4,33.4 42.4,64.2 83.6,86.6 l 15.8,8.4 29.6,-30.8 c 25,-26 29.6,-30 29.8,-25.8 v 5 l 6,-6.4 c 7.2,-7.6 7.4,-8.6 1.6,-7 -4,1 -4.2,0.6 -2,-2 2.2,-2.8 -1.4,-5.6 -29.4,-22.4 -17.4,-10.6 -37.2,-23.4 -44,-28.4 -28,-21 -47,-49.2 -53.4,-79 -10.4,-48.8 9,-129 46.4,-191.2 17.4,-28.8 31.2,-46.6 53.2,-67.8 28.8,-27.8 54,-43.4 88.2,-54.8 19.6,-6.4 20.2,-5.8 18.6,16.6 -6.6,93.8 -8.6,154.2 -11.2,329.4 -2.6,167.4 -5,233.8 -8.4,237.2 -1.4,1.2 -14.2,6 -28.2,10.6 -30,9.6 -49.6,19.2 -75,36 -82,55 -131.8,155 -117.6,236.2 9.2,52.2 36,105.2 69.4,137.4 17.6,16.8 24.6,20.6 37.8,20.6 10.8,0 12.6,-0.8 32.8,-14.2 z m -27.6,-506.2 5.8,-6.6 -6.4,5.8 c -6.2,5.6 -7.6,7.2 -6,7.2 0.4,0 3.2,-3 6.6,-6.4 z M 895.8,711 c 0,-3 -7.2,11.2 -8.6,17 -0.6,2.8 1,0.6 3.6,-5 2.8,-5.4 5,-10.8 5,-12 z M 999.6,575.4 c 6,-4.4 18,-12 27,-16.8 9,-4.8 14.2,-8.2 11.4,-7.4 -12.8,3.2 -39,19.8 -54.4,34 -15.8,15 -22.8,23.8 -8.6,11 7.8,-7 18.8,-16.4 24.6,-20.8 z"
       id="path133" />
    <path
       d="m 933.6,1512.8 c -15.2,-4.6 -29.4,-19.2 -40.8,-42.2 -5.4,-10.8 -10.2,-20 -10.8,-20.6 -0.6,-0.6 -1,-2.2 -1.2,-3.4 -0.6,-7.8 -1,-8.8 -2.6,-7.8 -1,0.8 -1.4,-0.8 -0.6,-3.2 0.8,-3 0.4,-3.8 -1.4,-2.6 -2,1.2 -2.2,0.4 -1.2,-3 1,-3.2 0.8,-4 -0.8,-3 -1.6,1 -2,-0.4 -1.2,-4.4 1,-4.4 0.8,-5 -1,-2.6 -1.8,2.4 -2,1.6 -1.2,-4 0.8,-4.4 0.6,-6 -0.6,-4.2 -1.2,2 -3,-2 -5.4,-13 -5.4,-23 -5,-58.6 1,-79.8 19.8,-70.2 74.2,-120.8 150.8,-139.8 30,-7.6 33.2,-8 34.8,-3.8 0.8,2 -0.2,18.8 -2,37.6 -10.4,102.8 -30,191.2 -59.8,269 -4.6,11.6 -9.4,22.4 -11,24.2 -3,3.6 -23,9.8 -30.8,9.6 -2.6,0 -9,-1.4 -14.2,-3 z m 25,-25.6 c 7,-7 31.4,-83.4 42.2,-131.2 11.2,-50.6 25.8,-148 22.6,-151.2 -1.8,-1.8 -22.6,4.8 -38.6,12.2 -58.6,27 -99,85.8 -98.8,143.8 0,19.2 5,43 14.6,69.8 10.4,28.8 22.4,47.2 36.4,55.8 7.2,4.2 17.6,4.6 21.6,0.8 z"
       id="path135" />
    <path
       d="m 2850.4,1113.8 c 0.4,-1.2 1.6,-2 2.6,-2 1,0 2.2,0.8 2.6,2 0.4,1.2 -0.8,2.2 -2.6,2.2 -1.8,0 -3,-1 -2.6,-2.2 z"
       id="path137" />
    <path
       d="m 1280,1077.8 c -13,-2.6 -29.2,-11.2 -39,-20.6 -9.6,-9.2 -15.8,-23.6 -19,-44.2 -1.2,-7.2 -3.4,-16.6 -4.8,-20.6 -8.4,-22 -9.8,-30.4 -8.4,-48 1.8,-25.4 7,-38.8 27.2,-68.8 21.8,-33 39.4,-50.4 89.4,-88 39.8,-30 53.8,-38 74,-42.8 30.8,-7.2 61.4,4.8 73.4,29 7.2,14.4 7.4,18 2.2,39.6 -7.6,31.4 -19.6,59.8 -36.4,86.6 -9.6,15 -22.6,32 -24.4,31.4 -1.8,-0.6 -33.2,25.4 -40.6,33.4 -6.6,7.2 -7,10.4 -1.8,13.2 6.2,3.2 16.2,2.4 36.4,-3 32.2,-8.4 29.8,-8.2 21.8,-1.2 -9.6,8.4 -40.6,23.6 -53.8,26.4 -17,3.6 -33.2,1.4 -42,-5.8 -10.2,-8.2 -11,-16.8 -1.8,-22.6 4.6,-2.8 5.2,-3.8 2.2,-2.8 -7,2 -5.4,-0.2 4.2,-5.8 9.8,-5.8 12.2,-6.4 10,-2.8 -0.8,1.4 -0.6,1.6 1,0.8 1.2,-0.8 1.8,-2.2 1.4,-3 -0.6,-0.8 1.8,-3.6 5.4,-6.2 l 6.4,-4.6 -5,5.6 -5,5.8 6.6,-4.6 c 3.6,-2.4 6,-5.2 5.4,-6.2 -0.6,-0.8 0.6,-2.8 2.6,-4.2 3,-2.6 3.2,-2.4 0.6,0.8 -1.4,1.8 -1.8,3.4 -0.8,3.4 4,0 36,-35.4 46.2,-51 19.8,-29.8 37.8,-73.2 39.4,-95 0.6,-8.6 0,-12.6 -3,-17.6 -11.8,-19.4 -43,-21.2 -70.8,-4.2 -19.2,11.8 -82.2,61.4 -95.4,75.2 -14.6,15.2 -35.6,45.4 -43.4,62.4 -9.2,20.2 -8.2,70.4 2,97.8 6.2,16.4 21.2,31 36.6,35.4 22.4,6.6 69.2,0.2 94.8,-13 4.2,-2 8.2,-3.2 9,-2.6 0.6,0.8 1.2,0.2 1.2,-1.2 0,-1.4 0.8,-2 2,-1.2 3.8,2.4 40.8,-22 57.4,-37.8 9.2,-8.6 16.6,-14.6 16.6,-13.4 0,1.2 -2.2,6.8 -5,12.2 -2.8,5.6 -4.4,10 -3.8,10 0.8,0 0,1.6 -1.6,3.6 -1.6,1.8 -2.8,4.8 -2.6,6.4 0.4,3.6 -8.8,14 -12.4,14 -1.4,0 -2.6,0.8 -2.6,1.8 0,3.2 -23.6,19 -41,27.6 -37,18.4 -80.4,26.4 -111,20.4 z"
       id="path139" />
    <path
       d="m 1557.6,1013.2 c -3,-1.6 -5.8,-2.4 -6.4,-1.6 -0.6,0.6 -1.2,0 -1.2,-1.4 0,-1.4 -0.8,-2 -1.8,-1.2 -1.2,0.6 -3,-0.8 -4.2,-3 -1.2,-2.2 -3,-3.6 -4,-3 -1,0.6 -2.4,0 -3.2,-1.2 -0.8,-1.6 -0.6,-1.8 0.8,-1 3.4,2 3,-3 -0.4,-8 -3.4,-4.8 -11.2,-33.2 -11.2,-40.4 0,-6.4 -7.6,-17 -11.4,-15.6 -1.6,0.6 -2.2,0.2 -1.6,-0.8 3.2,-5 -18.4,3 -25.6,9.6 -2,1.8 2,-5.2 9.2,-15.6 17.2,-25.4 35.6,-54 34.6,-54 -0.4,0 -6.6,8.4 -14,18.6 -7.2,10 -17.2,23 -22.2,28.4 -6.8,7.4 -3,0.6 15.2,-27 13.4,-20.4 25,-37.8 25.8,-38.6 0.8,-1 1.6,10.6 1.8,25.8 0.4,29.6 4.4,67.6 9.2,84 4,13.8 13.8,22.8 25,22.8 4.2,0 8,1 8.4,2.2 0.4,1.4 4.6,0 10.6,-3.8 5.6,-3.4 12.4,-6.8 15.4,-7.4 11.8,-3 25.8,-22 48.4,-66 17.8,-34.8 17.2,-34.2 -6,5 -17.4,29.4 -32.4,51 -34.4,49 -0.6,-0.6 1.2,-3.6 4,-6.6 8.8,-9.6 13.8,-18.2 32.8,-55.2 14,-27.6 19.4,-36.4 22.6,-36.8 5.2,-0.8 5.8,2.2 6.8,29.6 1,31.6 8.6,43.6 29.6,45.6 6.6,0.6 9.8,1.8 9.8,3.6 0,4.2 3,3.4 9.4,-2.2 20.2,-18 41,-40.2 49.8,-53.2 5.8,-8.2 23.2,-30.6 39,-49.6 28.6,-34.4 45,-56.8 28.8,-39.2 -7.6,8.2 -64.6,78.6 -76.4,94.2 -7.8,10.4 -12,13.2 -7.8,5.4 5.8,-11.4 53.2,-71.6 90.8,-115 2.8,-3.2 2.6,-4 -0.6,-7.6 -3.6,-4 -3.8,-3.8 -10.6,8.4 -13.8,25.2 -38.2,57.2 -75,99.2 -19.4,21.8 -25.4,25.2 -25.4,14 0,-10.8 5.4,-38.4 18,-92 11.6,-49.6 18.4,-81.4 21,-96 1.4,-9 -1.4,-11.2 -8.4,-6.4 -3,1.8 -19,9.4 -35.6,16.8 -29.6,13.2 -30,13.4 -34.6,22.6 -5.6,11.6 -13.2,40 -17.6,65.2 -3.4,20.8 -13.6,45.8 -31,76.8 -19.8,35.4 -52,80.2 -56.6,78.8 -3.2,-1 -3.8,-29.4 -1.4,-60.4 1.2,-14.2 5.8,-57 10.6,-94.8 l 8.4,-68.6 -6.4,-5.8 c -3.6,-3.2 -8.2,-5.8 -10.2,-5.8 -2.6,0 -9.4,8.6 -22,27.8 -19.2,29.2 -28.4,47.2 -32.4,63.4 -1.4,5.4 -3.6,10.6 -5.2,11.4 -1.4,1 -6.2,8.6 -10.6,17.2 -11.6,23.2 -37.4,60.6 -57,82.8 -9.4,10.6 -17.8,19.4 -18.4,19.4 -0.6,0 0,-1.4 1.4,-3 2.2,-2.8 1.4,-3.8 -2.6,-3.2 -0.8,0.2 -1,-2.2 -0.6,-5.2 3.8,-22.8 3.6,-23.2 -3.6,-17 -2.4,1.8 -0.4,-0.8 4,-5.8 27,-30 57.2,-79.4 73,-119.2 9.6,-24.2 45.8,-81.6 57.2,-90.4 7.2,-5.8 20.2,-5.4 32.2,0.6 12.2,6.2 26.4,21.4 26.4,28.2 0,2.8 -3.6,33.8 -8,68.6 -11.2,89.4 -10.6,84.2 -6.8,79.4 1.8,-2.2 9.4,-16.6 17,-32.2 11.2,-22.8 14.4,-31.6 17,-46 7.4,-43.4 20.2,-80.4 31,-90.2 2.6,-2.4 15.6,-8.8 28.8,-14.6 13.2,-5.6 31.6,-14.2 40.8,-19.2 9.2,-4.8 19.2,-8.8 22.6,-8.8 7,0 17.6,5.2 17.6,8.6 0.2,1.2 2,-1.6 4.4,-6.2 5.2,-10.8 13.8,-16.6 37,-25.2 9.8,-3.6 24.8,-10 33.4,-14 17.4,-8 27.6,-9 35.2,-3.8 7.8,5.4 9.4,8.2 17.2,31.2 6.6,19.8 29.2,69.4 31.6,69.4 1.8,0 59.2,-81.6 74.6,-106 15,-23.4 21.6,-30 30.6,-30 7.4,0.2 12.8,3.8 23,15.6 13.4,15.8 13,19.8 -4.4,50.4 -7.2,12.6 -29.2,47.6 -49,77.4 l -36,54.6 10.8,17.4 c 6,9.8 12.4,22 14.6,27.6 7,19 16.6,23.4 29.6,13.6 7.8,-6 10.8,-12.6 12.2,-26.8 0.6,-5.8 4.8,-17 11.4,-30 5.6,-11.4 17,-36 25,-54.4 8,-18.6 16,-35.4 17.8,-37.6 4.8,-5.2 15.4,-6.8 22.2,-3.4 8,3.6 20.6,23 20.6,31.2 0.2,7.2 -5,29.2 -13,55.8 -4.2,13.8 -7,18.8 -18.6,33 -9.2,11 -14.8,20.2 -16.8,26.6 -1.6,5.6 -4.8,14.2 -7,19.4 -2.2,5 -3.6,9.8 -3,10.4 3.8,3.8 -26.8,31.8 -55.4,50.8 -17,11.4 -17,11.4 -34,12 -27.6,1.2 -50.8,-8 -76.4,-30 -13.8,-11.8 -17,-11.2 -24.8,5.2 -8.2,17.4 -45.4,51.4 -69.4,63.6 -17.6,8.8 -22.8,10 -30.4,6.8 -13.4,-5.6 -16.4,-17.8 -8.4,-34.6 2.4,-5.4 5,-10 6,-10.2 0.8,-0.4 1,-1.6 0.2,-2.6 -0.6,-1 0.2,-1.8 1.6,-1.8 1.4,0 5.8,-4.4 9.6,-9.4 6.8,-9.2 16.4,-20.2 29.6,-34 5.6,-5.8 18.4,-31.6 18.4,-37.2 0,-1 2.2,-4.6 5,-8.2 l 5,-6.6 -9.4,-12.6 -9.4,-12.6 -13,14.8 c -7.2,8.2 -23.4,25.2 -36.2,38 -17.8,17.8 -24.6,26.2 -30,37 -3.6,7.6 -9.8,19 -13.4,25.2 -7.2,12.2 -8,14.6 -4,12.4 1.2,-0.8 0.6,0.4 -1.4,2.8 -4.6,5.2 -6.8,5.8 -3.2,1 1.4,-2 0,-0.8 -3.2,2.4 -3,3.4 -6.2,5.8 -7.2,5.6 -0.8,-0.4 -1.6,0.2 -1.6,1.2 0,1.6 -4.6,4 -10.4,5.4 -1,0.2 -1.8,0.4 -2,0.8 -3.4,2.6 -33.6,3.8 -33.6,1.2 0,-0.8 -1.4,-1.2 -3,-0.4 -1.6,0.6 -3,0.4 -3,-0.6 0,-0.8 -4.8,-4.8 -10.4,-8.8 -5.8,-4 -13.2,-10 -16.2,-13.2 -3.2,-3.6 -6.8,-5.6 -8.6,-4.8 -1.6,0.6 -7,7.4 -12,15.2 -10.6,16.4 -12.8,20.8 -8.8,18.4 1.8,-1.2 2.2,-0.8 1.2,0.8 -1,1.4 -2.2,2 -2.8,1.4 -1.2,-1.4 -7.6,7.2 -6.8,9.4 0.2,0.8 -1.8,2.4 -4.4,3.4 -2.8,1 -6,3.6 -7,5.8 -1.2,2.2 -8.8,7.2 -16.8,11.2 -17.2,8.4 -36.6,11.2 -45.8,6.2 z m 283.8,-47.8 c 9.4,-5.2 46.2,-47.6 62.6,-72 9.2,-14 18.2,-25.4 19.6,-25.4 1.6,0 10.4,7.8 19.4,17.6 19.2,20.4 32.6,29 52,33.8 7.8,1.8 14.2,4 14.6,4.8 0.8,2 19.6,-8 33.6,-17.8 6.6,-4.6 14,-8.4 16.4,-8.4 6.2,0 16.6,-10 31.8,-30.6 7.2,-10.2 14.2,-19 15.4,-19.8 1.2,-0.8 2.4,-3.6 2.6,-6 0.2,-2.6 4.4,-14.2 9.4,-26 11.4,-27 21.6,-59 20.6,-64.4 -0.6,-4 -0.8,-4 -3,0.8 -2,4.2 -2,3.2 -1,-6 1.6,-14.8 -0.8,-12 -12.4,15 -12.8,29.8 -34,71 -51.6,100 l -14.6,24 -10.8,0.6 c -22.8,1.4 -21.2,2.8 -51,-42.8 -14.8,-22.6 -27,-41.8 -27,-42.6 0,-2.2 24,-36.8 26.8,-38.6 1.2,-1 1.4,-1.6 0.2,-1.6 -1,0 0.2,-2 3,-4.2 2.8,-2.2 3.6,-3.6 2,-2.8 -1.6,0.8 -0.8,-0.6 2,-3 2.8,-2.4 3.6,-3.8 2,-3 -1.6,0.8 -0.6,-0.6 2.2,-3.2 7.2,-6.6 14.4,-17.4 12.8,-19.6 -0.6,-1 0,-2.6 1.2,-3.4 1.6,-1 1.8,-0.6 0.8,1.4 -1.6,2.4 -1.2,2.4 1.6,0 3.8,-3 4.6,-7.2 1,-5 -1.4,0.8 -1.6,0.6 -0.8,-1 0.8,-1.2 2.2,-1.8 3.2,-1.2 1.6,1 43,-60.6 41.6,-62.2 -0.6,-0.4 -9.8,12.6 -20.4,29.2 -10.8,16.4 -20,30 -20.6,30 -0.6,0 0.6,-2.4 2.6,-5.4 7.2,-11 32.2,-51.8 36.8,-60.2 4.2,-7.6 4.4,-8.8 1.8,-11.6 -2.8,-2.6 -5.2,0.4 -23.8,27.6 -37.2,55 -84.4,119.8 -86.8,119 -7.4,-2.2 -41.8,-67.8 -53.4,-101.4 -3.6,-10.4 -6.8,-19.4 -7.2,-19.8 -0.4,-0.6 -6.8,2 -14.2,5.6 -7.4,3.4 -22.4,9.8 -33.4,14 l -20,7.4 0.2,14 c 0.4,16.8 7.8,40.4 18.4,57.8 4,6.6 19.6,28.4 34.8,48.4 15.2,20.2 27.6,37.6 27.6,38.8 0,1.2 -2.6,5.6 -5.6,9.6 -3.2,4 -18.8,23.8 -34.8,44.2 -25,32 -41.8,58.4 -38.8,61.4 0.4,0.6 2.8,-0.2 5.2,-1.4 4.2,-2.2 4.2,-2.2 1,2.8 -3.8,5.6 -2.4,6.4 4.4,2.6 z M 1803.8,804 c 6.4,-9.4 13.6,-20.8 16,-25.4 l 4.2,-8.6 -5.8,-11.6 c -3.2,-6.4 -7.4,-17 -9.4,-23.6 l -3.6,-11.8 -1.8,9 c -2.6,13.2 -12.4,58 -18.2,82 l -5,21 6,-7 c 3.2,-3.8 11,-14.6 17.6,-24 z"
       id="path141" />
    <path
       d="m 1314.2,957.2 c -1.6,-2 -2,-7 -1.2,-15.6 1,-9.2 0.8,-11.8 -0.8,-9.6 -2.6,3.8 -2.6,2.2 0,-13.8 1,-7 4.2,-18.2 7.2,-25 5.8,-14.2 23.2,-41 33,-51.4 8.4,-8.8 26,-15.2 39.2,-14 3.4,0.2 3.2,22.2 -0.4,35.6 -5.8,21.4 -19,44.2 -39.6,68 -7.6,8.8 -31,28.6 -33.8,28.6 -0.8,0 -2.4,-1.2 -3.6,-2.8 z m 39.8,-71.4 c 3.4,-5.6 5.8,-10.6 5.4,-11.2 -0.8,-0.8 -13.4,18.4 -13.4,20.4 0,2.6 2.2,0 8,-9.2 z"
       id="path143" />
    <path
       d="m 2347.6,871.2 c -22.4,-5.8 -41.2,-27.2 -46.6,-53 -0.8,-3.8 -3.6,-11.4 -6.2,-17 -3.8,-8.2 -4.8,-13.6 -4.8,-27.4 0,-64.2 34,-128.4 87,-163.8 5.6,-3.6 10.4,-7 10.8,-7.2 2.4,-2 -19.4,-30.4 -35.8,-47 -21.8,-22 -43,-36.6 -68.4,-47.2 -13.6,-5.4 -18.6,-8.6 -20.8,-12.8 -7,-14 -2.8,-21.8 33.6,-62 13.6,-15 27.2,-30 30.2,-33.6 7.6,-8.6 14.2,-11 23.2,-8 21.4,6.8 53.8,34.4 72,61.4 18,26.6 38,73.6 48.2,112.8 l 4.6,17.2 8.2,2.4 c 20,5.6 33.4,21.4 33.6,39.8 0,15 -3.6,23 -14.8,33.2 -7,6.2 -9.6,10 -8.8,12.2 2.2,5.8 1.6,55.6 -0.8,69 -1.2,7 -5,18.2 -8.4,24.8 -3.2,6.6 -8.6,18.8 -11.8,27 -3.2,8.2 -7.4,17.8 -9.4,21.4 -6.4,11.8 -28.2,32.6 -42.4,40.4 -29.2,16.2 -53.8,22.2 -72.4,17.4 z M 2381,844 c 6.4,-2.2 17.2,-7 23.8,-10.8 47.2,-26.4 70.6,-81 63.4,-148.6 -1.4,-13 -2.6,-25.8 -2.8,-28.6 -0.4,-4 1.2,-5.6 7.6,-8.6 15.4,-7.2 21,-16 17,-26.4 -2.2,-6 -11.4,-10.4 -25,-12.4 -5,-0.6 -9.6,-2 -10.2,-2.8 -0.4,-1 -4,-12.8 -7.8,-26.2 -18.6,-67.6 -41,-112.2 -70,-139.2 -11.8,-11.2 -30.2,-23.8 -31.8,-22.2 -14.6,15 -55.2,61.4 -55.2,62.8 0,1.2 6,5.2 13.6,8.8 37.8,18.6 73.8,49.6 95.4,82.2 13.6,20.2 23.4,39.6 21.8,42.4 -0.6,1 -6.6,4.4 -13.4,8 -54.2,27.2 -87.8,81.2 -92.6,148.6 -2.2,29.4 7,54.8 24.2,67.8 13.4,10.2 23.6,11.6 42,5.2 z"
       id="path145" />
    <path
       d="m 2397.8,801.4 c -7.6,-9.2 -9.4,-13.4 -11,-24.8 -1.8,-13.6 2,-34.2 9.6,-52.4 6.4,-15.4 25.8,-46.2 33.4,-53 6.8,-6.2 9.6,-1.2 12.4,21.4 4.8,40.8 -6,83.8 -27.4,109.2 -6.4,7.8 -10.4,7.6 -17,-0.4 z"
       id="path147" />
    <path
       d="m 2592,871.8 c -26.4,-3.4 -47.8,-13.8 -64,-31 -12,-12.8 -17.4,-25.4 -22,-51.4 -2.2,-12.4 -5.4,-28.6 -7.2,-36.4 -3.6,-16 -2.6,-38 2.2,-54.8 6.6,-21.8 42.8,-67.4 67.8,-85.2 15,-10.4 65.6,-41.2 81.6,-49.2 44.4,-22.4 92.2,-10.4 110.8,27.4 4.6,9.4 5.2,12.8 4.4,23.4 -1.4,16.8 -13.8,52.8 -25.2,73.2 -8.2,14.6 -13.8,20.8 -46.4,52 -20.6,19.4 -37.2,36.2 -37.2,37.2 0.2,3.2 19,1.4 34.2,-3.2 31,-9.4 81.4,-41 82.4,-51.8 0.4,-2.8 1,-9.2 1.4,-14.4 0.6,-6.6 3.4,-13.8 9.8,-24 4.8,-8 12,-20.6 16,-27.8 10.8,-19.6 18.2,-21.8 37.8,-11.4 17.4,9.2 23.6,15.6 23.6,24.2 0,8.4 -1.6,13.4 -4.4,13.4 -1.2,0 -8,5.2 -15.4,11.6 -7.2,6.2 -17.8,15.2 -23.6,19.8 l -10.2,8.6 10.8,-16.4 c 6.2,-9.6 10.8,-18.6 10.8,-21.8 0,-3 1.4,-6.4 3.2,-8 2.8,-2.2 2.6,-3 -1.6,-6.2 -2.6,-1.8 -5.2,-3.6 -6,-3.6 -0.6,0 -6.6,8.8 -13.2,19.6 -31.4,50.8 -68.6,89 -103.4,105.4 -41.6,19.6 -78.2,16.4 -94.6,-8 -9,-13.4 -10.2,-12 18.4,-24.8 52.6,-24 89.4,-71.4 106,-137 3.6,-13.8 1.8,-20.4 -9,-30.6 -13.2,-12.6 -36,-16 -56.8,-8.8 -17.8,6.2 -87.8,49.6 -103.2,63.8 -15.2,14.2 -35.6,41 -42.2,55.8 -8.8,19.8 -6.4,70 4.8,100 6,16.2 24.2,34.2 40.6,40.4 15.4,5.8 42.6,7.6 65.2,4.4 35.2,-5.2 65.4,-21 98,-51.2 9.6,-8.8 22,-19.4 27.6,-23.6 5.6,-4 17.6,-16.4 26.6,-27.4 9,-11 16.8,-19.6 17.2,-19 0.4,0.4 -1.2,6 -3.6,12.4 -2.4,6.4 -5.4,15.2 -6.6,19.6 -2,7.6 -6.8,15.2 -17.4,27.8 -45.8,54 -90.6,81 -144.6,87 -21.4,2.4 -24.6,2.4 -43.4,0 z"
       id="path149" />
    <path
       d="m 2601,752 c -2.6,-4.4 -3.4,-28.6 -1.2,-40.4 3.8,-19.8 16.6,-43.4 32.6,-60.6 15.2,-16.4 22.2,-19.6 39.2,-18.6 l 9.4,0.6 0.6,11.6 c 0.8,14.8 -4,33 -12.4,48.4 -11,19.4 -33.4,43.8 -48.8,53 -14.2,8.4 -17.4,9.4 -19.4,6 z m 46.8,-74.6 6.4,-12.4 -6.8,7.6 c -3.8,4 -9.8,13 -13.2,20 l -6.4,12.4 6.8,-7.6 c 3.8,-4 9.8,-13 13.2,-20 z"
       id="path151" />
  </g>
</svg>
