<?xml version="1.0" encoding="UTF-8" standalone="no"?>
<svg
   version="1.0"
   width="858.09998"
   height="690.5"
   viewBox="0 0 858.09998 690.5"
   preserveAspectRatio="xMidYMid meet"
   id="svg591"
   sodipodi:docname="test.svg"
   inkscape:version="1.1.2 (0a00cf5339, 2022-02-04, custom)"
   xmlns:inkscape="http://www.inkscape.org/namespaces/inkscape"
   xmlns:sodipodi="http://sodipodi.sourceforge.net/DTD/sodipodi-0.dtd"
   xmlns:xlink="http://www.w3.org/1999/xlink"
   xmlns="http://www.w3.org/2000/svg"
   xmlns:svg="http://www.w3.org/2000/svg">
  <sodipodi:namedview
     id="namedview593"
     pagecolor="#ffffff"
     bordercolor="#666666"
     borderopacity="1.0"
     inkscape:pageshadow="2"
     inkscape:pageopacity="0.0"
     inkscape:pagecheckerboard="0"
     showgrid="false"
     inkscape:zoom="1.1541667"
     inkscape:cx="429.31408"
     inkscape:cy="358.70036"
     inkscape:window-width="1920"
     inkscape:window-height="1017"
     inkscape:window-x="-8"
     inkscape:window-y="-8"
     inkscape:window-maximized="1"
     inkscape:current-layer="svg591" />
  <defs
     id="defs15">
    <linearGradient
       id="lg0"
       gradientUnits="userSpaceOnUse"
       x1="443.99997"
       y1="398"
       x2="443.99997"
       y2="639">
      <stop
         offset="0%"
         style="stop-color:rgb(241,48,178);"
         id="stop2" />
      <stop
         offset="11%"
         style="stop-color:rgb(237,45,176);"
         id="stop4" />
      <stop
         offset="12%"
         style="stop-color:rgb(228,40,169);"
         id="stop6" />
      <stop
         offset="14%"
         style="stop-color:rgb(236,44,175);"
         id="stop8" />
      <stop
         offset="99%"
         style="stop-color:rgb(206,6,147);"
         id="stop10" />
      <stop
         offset="100%"
         style="stop-color:rgb(180,7,132);"
         id="stop12" />
    </linearGradient>
    <linearGradient
       inkscape:collect="always"
       xlink:href="#lg0"
       id="linearGradient1410"
       gradientUnits="userSpaceOnUse"
       x1="443.99997"
       y1="398"
       x2="443.99997"
       y2="639" />
    <linearGradient
       inkscape:collect="always"
       xlink:href="#lg0"
       id="linearGradient1412"
       gradientUnits="userSpaceOnUse"
       x1="443.99997"
       y1="398"
       x2="443.99997"
       y2="639" />
    <linearGradient
       inkscape:collect="always"
       xlink:href="#lg0"
       id="linearGradient1414"
       gradientUnits="userSpaceOnUse"
       x1="443.99997"
       y1="398"
       x2="443.99997"
       y2="639" />
    <linearGradient
       inkscape:collect="always"
       xlink:href="#lg0"
       id="linearGradient1416"
       gradientUnits="userSpaceOnUse"
       x1="443.99997"
       y1="398"
       x2="443.99997"
       y2="639" />
    <linearGradient
       inkscape:collect="always"
       xlink:href="#lg0"
       id="linearGradient1418"
       gradientUnits="userSpaceOnUse"
       x1="443.99997"
       y1="398"
       x2="443.99997"
       y2="639" />
    <linearGradient
       inkscape:collect="always"
       xlink:href="#lg0"
       id="linearGradient1420"
       gradientUnits="userSpaceOnUse"
       x1="443.99997"
       y1="398"
       x2="443.99997"
       y2="639" />
    <linearGradient
       inkscape:collect="always"
       xlink:href="#lg0"
       id="linearGradient1422"
       gradientUnits="userSpaceOnUse"
       x1="443.99997"
       y1="398"
       x2="443.99997"
       y2="639" />
    <linearGradient
       inkscape:collect="always"
       xlink:href="#lg0"
       id="linearGradient1424"
       gradientUnits="userSpaceOnUse"
       x1="443.99997"
       y1="398"
       x2="443.99997"
       y2="639" />
    <linearGradient
       inkscape:collect="always"
       xlink:href="#lg0"
       id="linearGradient1426"
       gradientUnits="userSpaceOnUse"
       x1="443.99997"
       y1="398"
       x2="443.99997"
       y2="639" />
    <linearGradient
       inkscape:collect="always"
       xlink:href="#lg0"
       id="linearGradient1428"
       gradientUnits="userSpaceOnUse"
       x1="443.99997"
       y1="398"
       x2="443.99997"
       y2="639" />
  </defs>
  <g
     fill="#3a002c"
     id="g39"
     transform="translate(-6,-0.9)">
    <path
       d="m 181.3,653.6 c -9.2,-3 -13.9,-7.5 -17,-16.7 -1.7,-5.1 -1.8,-11.8 -1.8,-113.9 0,-102.4 0.1,-108.8 1.8,-113.9 2.5,-7.3 5.7,-11.2 11.9,-14.7 l 5.3,-2.9 50.3,-0.3 c 58.2,-0.3 57.9,-0.4 66.1,7.6 8.6,8.3 8.1,0.5 8.1,124.2 0,120.7 0.3,115.4 -6.6,123 -1.9,2.1 -5.6,4.9 -8.2,6.2 l -4.7,2.3 -50.5,0.2 c -39.7,0.2 -51.4,-0.1 -54.7,-1.1 z m 102,-15 c 5.2,-2.6 7.7,-6.5 8.8,-13.8 0.6,-3.9 0.9,-46.4 0.7,-108.8 l -0.3,-102.6 -2.5,-4.9 c -2,-3.8 -3.7,-5.5 -7.5,-7.5 l -4.9,-2.5 H 234 c -43.1,0 -43.5,0 -47.7,2.2 -4.8,2.6 -7.6,6.2 -9.2,11.8 -1.5,5.4 -1.5,210.3 -0.1,215.7 0.6,2.1 2.2,5.1 3.6,6.7 4.9,5.8 6.5,6 54.9,5.8 40.8,-0.2 44.3,-0.3 47.8,-2.1 z"
       id="path17" />
    <path
       d="M 207,519.5 V 429 H 234.5 262 V 519.5 610 H 234.5 207 Z m 42,3.5 V 444 H 234.5 220 v 79 79 h 14.5 14.5 z"
       id="path19" />
    <path
       d="M 314,523 V 391 h 25.4 25.4 l 6,15.3 c 3.2,8.3 11.5,29.6 18.3,47.1 l 12.4,31.9 0.3,-47.1 0.2,-47.2 h 28 28 v 132 132 h -25.3 -25.2 l -6.2,-16.2 c -3.4,-9 -10.2,-27.1 -15.3,-40.3 -5,-13.2 -10.4,-27.3 -11.8,-31.4 l -2.7,-7.5 -0.3,47.7 L 371,655 H 342.5 314 Z m 43,45 v -73 h 3.4 c 2.7,0 3.6,0.5 4.1,2.3 0.6,1.6 43.4,115 52.9,139.7 l 1.4,3.5 13.1,0.3 13.1,0.3 V 519.5 397.9 l -14.7,0.3 -14.8,0.3 v 71.3 71.3 l -3.4,-0.3 -3.3,-0.3 -25.4,-65.5 c -14,-36 -26.5,-68 -27.7,-71 l -2.3,-5.5 -12.7,-0.3 -12.7,-0.3 -0.2,71.8 c -0.2,39.5 -0.2,94.2 0,121.6 L 328,641 h 14.5 14.5 z"
       id="path21" />
    <path
       d="M 466,523 V 391 h 29 29 v 105 105 h 29.5 29.5 v 27 27 H 524.5 466 Z M 569,625 V 609 H 539.5 510 V 503.5 398 H 495 480 V 519.5 641 h 44.5 44.5 z"
       id="path23" />
    <path
       d="m 621,607.8 c 0,-42.9 -0.2,-48 -1.9,-54.8 -1,-4.1 -7.1,-23.2 -13.5,-42.5 -6.3,-19.2 -13.8,-42.4 -16.7,-51.5 -2.8,-9.1 -7.5,-24.2 -10.5,-33.6 -5.1,-16 -5.5,-17.8 -5.2,-25.5 l 0.3,-8.4 28.1,-0.3 28.1,-0.2 9.9,35.9 c 5.4,19.8 10.2,35.4 10.5,34.8 0.4,-0.7 2.8,-9.1 5.4,-18.7 7.6,-28.1 12.6,-46.3 13.4,-49 l 0.8,-2.5 28.6,-0.3 28.7,-0.2 v 7.4 c 0,6.9 -1.3,11.5 -15.9,57.8 -8.8,27.7 -17.8,55.7 -20.1,62.3 -2.2,6.6 -6.1,19 -8.6,27.5 l -4.5,15.5 0.3,46.8 0.3,46.7 H 649.8 621 Z m 44,-12.2 v -45.3 l 3.6,-11.9 c 1.9,-6.6 7.5,-24 12.4,-38.9 14.1,-42.7 31,-97.1 31,-99.4 0,-2.1 -0.2,-2.1 -15.2,-1.9 l -15.3,0.3 -13.7,50 c -7.5,27.5 -13.9,51 -14.3,52.3 -0.4,1.7 -1.3,2.2 -3.8,2.2 h -3.2 l -5.8,-21.3 c -14.2,-52.4 -21.7,-79.4 -22.6,-81.4 -1,-2.2 -1.5,-2.3 -16.1,-2.3 -10.8,0 -15,0.3 -15,1.2 0,0.6 3.2,11.3 7.1,23.7 3.9,12.4 8.3,26.7 9.9,31.6 12.6,40.4 15.7,49.7 20.2,62.4 10.3,29.2 9.8,25.1 9.8,77.8 V 641 h 15.5 15.5 z"
       id="path25" />
    <path
       d="m 20,265.6 c 0,-4.6 0.9,-12.8 1.9,-18.2 4.9,-24.9 10.4,-53.1 15.1,-77.4 2.8,-14.6 5.5,-28.5 6,-31 0.5,-2.5 3.2,-16.4 6,-31 5.8,-29.8 7.8,-40 14.5,-74.8 L 68.3,9 h 28.3 c 15.6,0 28.4,0.1 28.4,0.3 0,0.2 1.1,5.9 2.4,12.8 1.4,6.8 4.3,22.1 6.6,33.9 5,26.3 7.5,39.2 13.8,72 2.7,14 9.2,47.5 14.3,74.4 l 9.4,48.9 0.3,-120.6 L 172,10 h 48.5 c 31.2,0 50.3,0.4 53.7,1.1 14,2.9 27.1,12.5 33.5,24.4 6.5,12.3 6.3,9.2 6.3,106.5 0,77 -0.2,89 -1.6,94.3 -4.4,17.2 -16.3,29.3 -34.4,35.3 -5.1,1.7 -11.2,1.9 -83.3,2.2 -62.8,0.2 -77.8,0 -78.1,-1 -0.4,-1.2 -1.2,-6.1 -5.8,-36.5 L 109.6,228 H 96.4 83.2 l -0.6,3.8 c -0.3,2 -1.9,12.1 -3.6,22.4 -1.6,10.3 -3,18.9 -3,19.3 0,0.3 -12.6,0.5 -28,0.5 H 20 Z m 43.4,-7.8 c 0.8,-3.3 6.6,-41.4 6.6,-42.7 0,-0.8 7.3,-1.1 26.2,-0.9 l 26.3,0.3 3.3,21.5 c 1.8,11.8 3.4,22.1 3.7,22.8 0.3,0.9 4.3,1.2 15.1,1.2 h 14.7 l -0.7,-4.2 c -0.7,-4.5 -8,-42.9 -9.6,-50.8 -1,-4.6 -3.8,-19.6 -11,-57 -2.2,-11.8 -4.5,-23.5 -5,-26 -0.5,-2.5 -2.3,-11.9 -4,-21 -1.7,-9.1 -4,-20.8 -5,-26 -1,-5.2 -3.3,-16.9 -5,-26 -1.7,-9.1 -3.8,-19.7 -4.6,-23.7 -0.7,-4 -1.4,-7.5 -1.4,-7.8 C 113,17.2 105.6,17 96.5,17 87.4,17 80,17.3 80,17.7 c 0,0.6 -15.4,80.1 -41,212.4 -2.8,14 -5,26.5 -5,27.7 0,2.2 0.3,2.2 14.5,2.2 14.2,0 14.5,0 14.9,-2.2 z m 203.4,0.7 c 16.2,-3.8 27.2,-13.9 31.9,-29.1 1.7,-5.5 1.8,-11.4 1.8,-91.4 0,-80.8 -0.1,-85.8 -1.9,-91 -5.4,-16 -17.9,-26.4 -35.1,-29 -4.2,-0.6 -21,-0.9 -42.5,-0.8 l -35.5,0.3 -0.3,115 c -0.2,63.3 0,117.8 0.3,121.3 l 0.7,6.2 h 37.1 c 29.3,0 38.5,-0.3 43.5,-1.5 z"
       id="path27" />
    <path
       d="M 76.3,181.3 C 75.8,180 90.6,85.2 92.7,76.3 93.1,74.5 93.9,74 96.4,74 h 3.2 l 4.8,29.8 c 2.6,16.3 6.3,39.1 8.2,50.6 1.9,11.4 3.4,22.6 3.4,24.7 V 183 H 96.5 C 79,183 76.9,182.8 76.3,181.3 Z m 24.4,-8 c -0.3,-1 -1.3,-7.1 -2.3,-13.5 -1,-6.5 -1.9,-11.6 -2.1,-11.4 -0.5,0.4 -4.3,22.6 -4.3,24.9 0,1.4 0.9,1.7 4.6,1.7 3.8,0 4.5,-0.3 4.1,-1.7 z"
       id="path29" />
    <path
       d="M 216,138.5 V 47.9 l 21.3,0.3 c 20.1,0.3 21.4,0.4 24.9,2.6 2.2,1.3 4.5,4 5.7,6.6 2.1,4.3 2.1,5 1.9,81.2 -0.3,75.7 -0.3,77 -2.4,80.9 -1.3,2.6 -3.7,4.9 -6.5,6.5 -4.2,2.4 -5.2,2.5 -24.6,2.8 l -20.3,0.4 z m 35,81 c 1.6,-0.8 3.4,-2.4 4,-3.4 0.6,-1.3 1,-26.8 1,-74.8 0,-81 0.4,-76.3 -6.8,-78.3 -2,-0.5 -7.2,-1 -11.4,-1 H 230 v 79.5 79.5 h 9 c 6.2,0 10,-0.5 12,-1.5 z"
       id="path31" />
    <path
       d="m 340.7,272.6 c -6.9,-1.9 -12.5,-6.2 -16.1,-12.6 L 321.5,254.5 321.2,132.3 321,10 h 29 29 V 115.5 221 H 392.5 406 V 115.5 10 h 29 29 v 119.3 c 0,128.4 0.1,125.5 -5.2,133.3 -3.1,4.7 -8.5,8.2 -14.9,10 -7.5,1.9 -95.9,1.9 -103.2,0 z m 96.9,-14.1 c 5.3,-1.6 9.6,-5.3 11.3,-9.8 0.8,-1.9 1.1,-38.8 1.1,-117.3 V 17 h -15 -15 v 106 106 l -27.2,-0.2 -27.3,-0.3 -0.3,-105.8 -0.2,-105.8 -15.3,0.3 -15.2,0.3 v 113 c 0,107.3 0.1,113.2 1.8,117.8 2.1,5.2 6.2,9 11.7,10.5 2,0.6 20.5,1.1 44.1,1.1 33,0.1 41.5,-0.2 45.5,-1.4 z"
       id="path33" />
    <path
       d="M 472,142 V 10 h 28.5 28.5 v 105 105 h 29.5 29.5 v 27 27 H 530 472 Z M 575,244 V 228 H 545.5 516 V 122.5 17 H 500.5 485 v 117.8 c 0,64.7 0.3,119.4 0.6,121.5 l 0.7,3.7 h 44.3 44.4 z"
       id="path35" />
    <path
       d="M 618,168.5 V 63 H 598 578 V 36.5 10 h 69.1 69.2 l -0.7,6.5 -0.7,6.5 4.2,-4.5 c 2.7,-2.9 5.9,-5.1 9.6,-6.5 5.4,-2 7.1,-2.1 54.2,-1.8 47.7,0.3 48.7,0.3 52.7,2.5 5.9,3.1 10.1,7.9 12.4,14 1.9,5 2,7.8 2,42.8 V 107 H 821 792 V 84.5 61.9 l -11.2,0.3 -11.3,0.3 v 12.9 13 l 36,33.9 c 19.8,18.7 37.2,35.6 38.6,37.6 5.7,7.7 5.9,9.7 5.9,52 0,43.2 -0.3,45.6 -6.4,52.8 -2,2.2 -5.8,5.1 -8.8,6.4 l -5.3,2.4 H 781 732.5 l -5.3,-2.4 c -3,-1.3 -6.8,-4.2 -8.8,-6.4 -6.1,-7.2 -6.4,-9.5 -6.4,-53.4 V 172 l 28.8,0.2 28.7,0.3 -0.4,21 c -0.1,11.6 0,22.7 0.4,24.8 l 0.7,3.7 h 10.9 10.9 l -0.1,-15.7 V 190.5 L 755,155.7 c -31.7,-29.9 -37.3,-35.6 -39.7,-40.5 -2.8,-5.7 -2.8,-5.8 -3.1,-29 L 711.9,63 693.7,63.2 675.5,63.5 675.2,168.8 675,274 H 646.5 618 Z M 661.8,154.3 662,49 681.8,48.8 701.5,48.5 701.8,32.7 702.1,17 H 646.5 591 v 12.3 c 0,6.7 0.3,13.9 0.6,15.9 l 0.7,3.8 h 19.3 19.4 v 101.8 c 0,55.9 0.3,103.4 0.6,105.5 l 0.7,3.8 14.6,-0.3 14.6,-0.3 z m 164.8,103.5 c 4.4,-2.4 8.2,-7.2 9.1,-11.6 0.4,-2 0.8,-19.4 0.8,-38.7 0,-40.7 0.2,-39.7 -10.8,-50.2 -3.4,-3.2 -20.5,-19.3 -38,-35.7 l -31.7,-30 0.2,-22 0.3,-22.1 24.8,-0.3 L 806,47 v 23 23 h 14.9 15 l 0.6,-5.3 c 0.4,-2.9 0.5,-16.8 0.3,-30.8 -0.3,-25 -0.3,-25.5 -2.8,-29.9 -1.7,-2.9 -4.1,-5.3 -7,-7 l -4.5,-2.5 H 781 739.5 L 735,20 c -2.9,1.7 -5.3,4.1 -7,7 l -2.5,4.5 v 34 34 l 2.7,5.5 c 2.3,4.6 8.8,11.2 40.3,41 L 806,181.5 V 205.3 229 H 781 756 V 204.5 180 h -15.6 -15.6 l 0.4,33.3 c 0.4,31.4 0.5,33.4 2.5,37.2 2.1,4 6,6.9 11.1,8.6 1.5,0.4 21.2,0.7 43.7,0.6 36.6,-0.2 41.3,-0.4 44.1,-1.9 z"
       id="path37" />
  </g>
  <g
     fill="#d61aa2"
     id="g293"
     transform="translate(-6,-0.9)">
    <path
       d="m 592.5,691.2 c -1.6,-0.1 -94.1,-0.3 -205.5,-0.5 -168.8,-0.2 -203,-0.4 -205.5,-1.6 -12.8,-5.8 -15.7,-7.6 -20.9,-13.1 -3.1,-3.3 -6.9,-8.7 -8.6,-12.1 -6.3,-13.3 -6.1,-9.4 -5.8,-130.4 l 0.3,-110 2.9,-7.5 c 2.9,-7.5 6.6,-14.3 8.6,-15.5 1.4,-0.9 1.3,4.8 -0.2,8 -1,2.1 -0.9,2.8 0.2,3.5 1.2,0.7 1.2,2 0.2,8 -1.5,9.1 -1.7,209.8 -0.2,218.1 2.5,13.2 12.1,25.4 23.8,30.1 5.7,2.3 5.8,2.3 54.8,2.3 h 49 l 7.6,-3.7 c 4.2,-2.1 9,-3.8 10.7,-3.8 3,0 3.1,0.2 3.1,4 v 4 h 36.5 36.5 v -23 -23 h 3.3 3.3 l 8.6,22.8 8.5,22.7 93.2,0.3 93.1,0.2 V 636 601 H 560.5 531 v -66.2 c 0,-36.5 0.3,-81.5 0.7,-100 l 0.6,-33.8 h 3.2 c 2.4,0 3.4,-0.5 3.8,-2 0.3,-1.2 1.4,-2 2.6,-2 h 2.1 l 0.2,97.8 0.3,97.7 h 25 25 v -12 l -0.1,-12 -8.7,-26 C 578.2,519.8 569,490.9 565.8,480 c -0.5,-1.9 -4.1,-13.6 -8,-26 -10.3,-33 -10.1,-32.2 -9.4,-42.5 0.7,-10.7 1.4,-13.5 3.2,-13.5 0.8,0 1.4,1 1.4,2.3 0,2 0.4,2.2 4.9,1.9 l 4.9,-0.4 0.4,6.9 c 0.4,5.3 4,18.1 16.6,57.8 8.9,28.1 18.4,57.3 21.1,65 9.8,27.7 9.2,21.9 9.2,81.9 -0.1,29.1 0.2,54 0.5,55.3 l 0.6,2.3 h 36.4 36.4 v -53.4 -53.3 l 5.1,-16.9 c 2.7,-9.3 7.2,-23.4 9.9,-31.4 2.7,-8 7.6,-23.3 11,-34 3.4,-10.7 9.9,-31.3 14.6,-45.8 4.6,-14.4 8.4,-27.2 8.4,-28.3 0,-1.2 1.1,-3 2.4,-4 1.3,-1 2.6,-3.2 2.9,-4.9 0.5,-2.1 1.2,-3 2.7,-3 1.9,0 2,0.6 2,12.8 0,10.6 -0.4,14 -2.4,20.2 -1.3,4.1 -3.8,12.2 -5.5,18 -1.8,5.8 -3.6,11.6 -4.1,13 -0.9,2.7 -7.4,23.8 -12.2,39.5 -1.7,5.5 -6.4,20.1 -10.4,32.5 -4,12.4 -8,25.2 -8.9,28.5 -0.9,3.3 -2.1,7 -2.6,8.3 -0.5,1.3 -0.9,28.6 -0.9,62.2 v 60 l -46.7,0.1 c -25.8,0.1 -48.4,0.2 -50.3,0.3 -1.9,0 -4.8,0 -6.5,-0.2 z"
       id="path41" />
    <path
       d="m 179.8,653.4 c -2.7,-0.8 -4.8,-1.9 -4.8,-2.4 0,-0.6 -0.7,-1 -1.5,-1 -0.8,0 -1.5,-0.9 -1.5,-2 0,-1.3 -0.7,-2 -2,-2 -1.5,0 -2,-0.7 -2,-2.5 0,-1.5 -0.6,-2.5 -1.5,-2.5 -1.7,0 -3.3,-5.1 -4.2,-13.2 -0.5,-4.9 -0.3,-5.8 1,-5.8 1.1,0 1.8,1.2 2.2,3.8 1.1,6.3 3.5,13.3 5.8,16.4 2.8,3.8 8.8,7.3 15,8.9 2.8,0.7 4.7,1.7 4.7,2.5 0,1.8 -5,1.7 -11.2,-0.2 z"
       id="path43" />
    <path
       d="m 277,653.6 c 0,-0.9 1.9,-1.8 5.1,-2.5 6.2,-1.4 8,-2.3 13,-6.8 l 3.9,-3.5 v 3.6 c 0,2.9 -0.4,3.6 -2,3.6 -1.1,0 -2,0.7 -2,1.5 0,1 -1,1.5 -3,1.5 -1.9,0 -3,0.5 -3,1.4 0,1.4 -4.2,2.6 -9.1,2.6 -1.8,0 -2.9,-0.5 -2.9,-1.4 z"
       id="path45" />
    <path
       d="m 452,653.5 c 0,-0.8 0.7,-1.5 1.5,-1.5 1.3,0 1.5,-15 1.5,-129 0,-114 -0.2,-129 -1.5,-129 -0.8,0 -1.5,-0.7 -1.5,-1.5 0,-1 1.1,-1.5 3.5,-1.5 h 3.5 v 132 132 h -3.5 c -2.4,0 -3.5,-0.5 -3.5,-1.5 z"
       id="path47" />
    <path
       d="m 620,606.8 c 0,-26.6 -0.3,-50.7 -0.6,-53.5 -0.6,-4.4 -0.4,-5.3 0.9,-5.3 3.1,0 3.7,8.9 3.7,57 0,41.1 0.2,47 1.5,47 0.8,0 1.5,0.7 1.5,1.5 0,1 -1.1,1.5 -3.5,1.5 H 620 Z"
       id="path49" />
    <path
       d="m 406,650.5 c 0,-1.4 -0.4,-2.5 -1,-2.5 -0.5,0 -1.3,-1.8 -1.6,-4 -0.4,-2.2 -1,-4 -1.5,-4 -0.5,0 -0.9,-1.6 -0.9,-3.6 0,-5.9 2.2,-3.5 6,6.4 1.9,5 4.2,9.3 5,9.6 0.8,0.2 -0.2,0.4 -2.2,0.5 -3.4,0.1 -3.8,-0.2 -3.8,-2.4 z"
       id="path51" />
    <path
       d="m 675.6,649.8 c -0.3,-1.3 -0.6,-22.4 -0.6,-47 v -44.7 l 4.5,-15.3 c 2.4,-8.4 7.1,-23.2 10.3,-32.8 3.3,-9.6 7.6,-23 9.7,-29.7 2.4,-7.7 4.3,-12.3 5.2,-12.3 0.7,0 1.3,1.1 1.3,2.7 0,3.4 -4.1,16.3 -5.2,16.3 -0.4,0 -0.8,1.6 -0.8,3.5 0,1.9 -0.4,3.5 -0.9,3.5 -0.4,0 -1.1,1.9 -1.4,4.2 -0.3,2.4 -1.1,4.4 -1.6,4.6 -0.6,0.2 -1.1,1.3 -1.1,2.4 0,3 -3.2,12.8 -4.2,12.8 -0.4,0 -0.8,1.4 -0.8,3 0,1.7 -0.4,3 -1,3 -0.5,0 -1,1 -1,2.1 0,3.1 -2.2,9.9 -3.2,9.9 -0.4,0 -0.8,1.2 -0.8,2.8 0,1.5 -1.2,6.5 -2.5,11.1 l -2.5,8.5 v 46.8 c 0,39.2 -0.2,46.8 -1.4,46.8 -0.7,0 -1.6,-1 -2,-2.2 z"
       id="path53" />
    <path
       fill="url(#lg0)"
       d="m 184.3,642.4 c -5,-1.8 -8.8,-6 -10.3,-11.2 -1.4,-5.4 -1.4,-216.3 0.1,-221.7 1.6,-5.6 4.4,-9.2 9.2,-11.8 4.2,-2.2 4.5,-2.2 50.7,-2.2 h 46.6 l 4.9,2.5 c 3.8,2 5.5,3.7 7.5,7.5 l 2.5,4.9 0.3,105.6 c 0.2,64.3 -0.1,107.9 -0.7,111.8 -1.1,7.3 -3.6,11.2 -8.8,13.8 -3.5,1.8 -7.1,1.9 -50.8,2.1 -39.7,0.1 -47.7,-0.1 -51.2,-1.3 z M 259,519.5 V 432 H 234.5 210 V 519.5 607 H 234.5 259 Z M 225,415.9 c 20.6,0.2 40,0.3 43,0.3 3,0.1 8.8,-0.3 12.9,-0.8 7.1,-0.9 7.5,-1 8.2,-3.8 0.7,-2.5 0.3,-3.4 -3.1,-6.7 -2.1,-2.1 -5.1,-4.2 -6.7,-4.6 -1.5,-0.4 -22.4,-0.8 -46.3,-0.8 -38.5,0 -43.8,0.2 -46.5,1.6 -6.6,3.7 -8.9,9.8 -5.2,13.6 1.4,1.4 2.9,2 4.2,1.6 1.1,-0.3 18.9,-0.5 39.5,-0.4 z"
       id="path55"
       style="fill:url(#linearGradient1410)" />
    <path
       d="m 232.3,604.3 15.7,-0.4 v -81.4 c 0,-80.8 0,-81.5 2,-81.5 2,0 2,0.7 2,82 v 82 l -17.7,-0.2 -17.8,-0.2 z"
       id="path57" />
    <path
       d="m 231,531 v -71 h 5.5 5.5 v 71 71 h -5.5 -5.5 z"
       id="path59" />
    <path
       fill="url(#lg0)"
       d="m 324.8,594.8 c -0.1,-27.1 -0.1,-66.2 0,-86.8 0.1,-20.6 0.2,-50.9 0.2,-67.3 v -29.8 l 2.8,0.3 c 1.6,0.2 3.1,1.2 3.7,2.6 0.9,2.1 1.5,2.2 12.1,2.2 8.7,0 11.4,-0.3 12.4,-1.5 1.5,-1.7 0.9,-6.4 -1.4,-11.8 l -1.5,-3.7 h -14 c -13.5,0 -14.1,-0.1 -14.1,-2 0,-2 0.5,-2 15.7,-1.8 l 15.7,0.3 2.7,6.5 c 1.5,3.6 13.8,35.3 27.4,70.5 13.6,35.2 25.1,64.3 25.4,64.7 0.3,0.4 0.6,-31.3 0.6,-70.5 V 395.5 L 430.3,395.2 448,395 V 519.5 644 l -16.1,-0.2 -16.1,-0.3 -1.4,-3.5 c -0.7,-1.9 -12.8,-33.9 -26.9,-71 -14.1,-37.1 -26,-68.4 -26.5,-69.5 -0.5,-1.2 -0.9,27 -0.9,71.3 L 360,644 H 342.5 325 Z M 442.4,408.3 c 0.9,-3.8 1.6,-7.4 1.6,-8 0,-1 -3.5,-1.3 -14,-1.3 h -14 v 6 c 0,4.7 0.3,6 1.5,6 0.8,0 1.5,0.7 1.5,1.4 0,1.5 3.2,2 16.1,2.4 l 5.6,0.2 z"
       id="path61"
       style="fill:url(#linearGradient1412)" />
    <path
       fill="url(#lg0)"
       d="M 477,519.5 V 395 h 18 18 V 500.5 606 h 29.5 29.5 v 19 19 H 524.5 477 Z M 503.5,414 c 0.3,-0.5 1.4,-1 2.4,-1 1.4,0 2,-1.1 2.5,-4.6 0.3,-2.6 0.6,-5.7 0.6,-7 V 399 h -14 -14 v 4.4 c 0,4.9 1.5,9.6 3.3,10.8 1.8,1.1 18.5,1 19.2,-0.2 z"
       id="path63"
       style="fill:url(#linearGradient1414)" />
    <path
       fill="url(#lg0)"
       d="m 631,597.7 c 0,-52.7 0.5,-48.6 -9.8,-77.8 -4.5,-12.7 -7.6,-22 -20.2,-62.4 -12.5,-39.9 -16.9,-54.6 -17.4,-58.2 L 583,395 h 18.5 c 18.3,0 18.6,0 19.6,2.3 0.9,2 7.2,24.8 22.6,81.4 3.2,11.6 5.9,21 6.1,20.8 0.2,-0.2 6.7,-23.6 14.5,-52.2 l 14.2,-51.8 18.8,-0.3 18.7,-0.2 -0.5,5.1 c -0.5,5.1 -14.9,52 -31.5,102.4 -4.9,14.9 -10.5,32.3 -12.4,38.9 L 668,553.3 V 598.6 644 H 649.5 631 Z M 613.9,415 h 5.8 l -0.5,-5.7 c -0.9,-10.8 -0.1,-10.3 -16.3,-10.3 -10.9,0 -14,0.3 -13.7,1.3 0.3,0.6 1.3,3.6 2.2,6.5 1,2.8 2.4,5.2 3.1,5.2 0.7,0 1.5,0.5 1.7,1.2 0.4,1.2 8.3,2.8 10.6,2.2 0.8,-0.2 4,-0.4 7.1,-0.4 z m 91.6,-3 c 0.8,-1.5 2.3,-5 3.3,-7.8 l 2,-5.2 h -14.2 -14.3 l -1.1,3.9 c -1.4,4.4 -1.5,9 -0.4,10.8 0.7,1.2 17.4,2.3 21.5,1.4 1,-0.2 2.4,-1.6 3.2,-3.1 z"
       id="path65"
       style="fill:url(#linearGradient1416)" />
    <path
       d="m 301.8,632.5 c 1.7,-6.2 4.2,-7.5 4.2,-2.2 0,5.5 -1,7.7 -3.5,7.7 -2.2,0 -2.2,0 -0.7,-5.5 z"
       id="path67" />
    <path
       d="m 396.7,627.3 c -1.9,-5.2 -2.2,-10.3 -0.8,-10.3 1.3,0 1.7,0.8 4.6,8.4 l 2.5,6.6 h -2.3 c -1.8,0 -2.6,-1 -4,-4.7 z"
       id="path69" />
    <path
       d="m 390,608.5 c 0,-1.4 -0.4,-2.5 -1,-2.5 -0.5,0 -1.3,-1.8 -1.6,-4 -0.4,-2.2 -1,-4 -1.5,-4 -0.5,0 -0.9,-1.6 -0.9,-3.5 0,-1.9 0.5,-3.5 1.1,-3.5 1,0 2.2,2.4 6.3,13.4 l 2.5,6.6 h -2.4 c -2,0 -2.5,-0.5 -2.5,-2.5 z"
       id="path71" />
    <path
       d="m 534.3,603.3 c 7.5,-0.2 19.9,-0.2 27.5,0 7.5,0.1 1.3,0.3 -13.8,0.3 -15.1,0 -21.3,-0.2 -13.7,-0.3 z"
       id="path73" />
    <path
       d="m 380.7,585.3 c -0.9,-2.7 -1.7,-5.6 -1.7,-6.5 0,-1 -0.4,-1.8 -1,-1.8 -0.5,0 -1,-1.6 -1,-3.5 0,-1.9 0.5,-3.5 1.1,-3.5 1,0 2.4,2.9 6.5,13.8 l 2.4,6.2 h -2.3 c -1.8,0 -2.6,-1 -4,-4.7 z"
       id="path75" />
    <path
       d="m 373.4,565 c -0.4,-2.2 -1,-4 -1.5,-4 -0.5,0 -0.9,-1.1 -0.9,-2.5 0,-1.4 -0.4,-2.5 -1,-2.5 -0.5,0 -1,-1.6 -1,-3.5 0,-1.9 0.5,-3.5 1.1,-3.5 1,0 2.4,2.9 6.5,13.8 l 2.4,6.2 h -2.5 c -2.1,0 -2.6,-0.6 -3.1,-4 z"
       id="path77" />
    <path
       d="m 368,545 c 0,-1.6 0.2,-3 0.4,-3 0.2,0 0.9,1.4 1.5,3 0.8,2.4 0.7,3 -0.5,3 -0.9,0 -1.4,-1 -1.4,-3 z"
       id="path79" />
    <path
       d="m 616.6,544.8 c -0.3,-1.3 -0.6,-3.3 -0.6,-4.5 0,-1.3 -0.4,-2.3 -1,-2.3 -0.5,0 -1,-1.3 -1,-2.9 0,-1.6 -0.5,-3.1 -1.1,-3.3 -0.6,-0.2 -1.3,-2.5 -1.6,-5.2 -1,-8.2 1.8,-5.2 5.9,6.5 2,5.7 3.7,11.2 3.7,12.2 0.1,2.6 -3.5,2.2 -4.3,-0.5 z"
       id="path81" />
    <path
       d="m 608,518 c 0,-1.6 -0.4,-3 -0.8,-3 -1.1,0 -5.2,-12.9 -5.2,-16.3 0,-6.2 2.7,-2.1 6.7,9.8 l 4.1,12.5 h -2.4 c -2,0 -2.4,-0.5 -2.4,-3 z"
       id="path83" />
    <path
       d="M 403.9,501.5 C 403.5,501 397.4,485.4 390.2,467 383,448.6 376.3,431.1 375.1,428.3 L 373,423 h 2.5 c 2,0 2.5,0.5 2.5,2.5 0,1.4 0.5,2.5 1,2.5 0.6,0 1,1.1 1,2.5 0,1.4 0.5,2.5 1,2.5 0.6,0 1,1.1 1,2.5 0,1.4 0.4,2.5 1,2.5 0.5,0 1.3,1.8 1.6,4 0.4,2.2 1,4 1.5,4 0.5,0 0.9,1.1 0.9,2.5 0,1.4 0.5,2.5 1,2.5 0.6,0 1,1.1 1,2.5 0,1.4 0.4,2.5 1,2.5 0.5,0 1.3,1.8 1.6,4 0.4,2.2 1,4 1.5,4 0.5,0 0.9,1.1 0.9,2.5 0,1.4 0.5,2.5 1,2.5 0.6,0 1,1.1 1,2.5 0,1.4 0.4,2.5 1,2.5 0.5,0 1.3,1.8 1.6,4 1.8,11 2.4,0.1 2.4,-41.5 V 391 h 3.5 c 2.4,0 3.5,0.5 3.5,1.5 0,0.8 -0.7,1.5 -1.5,1.5 -1.3,0 -1.5,6.9 -1.7,54.3 -0.2,29.8 -0.6,53.8 -0.9,53.2 z"
       id="path85" />
    <path
       d="m 597.7,487.7 c -0.9,-3 -1.7,-6.6 -1.7,-8 0,-5 2.6,-2.8 4.8,4.1 2.7,8.3 2.7,9.2 0.4,9.2 -1.3,0 -2.3,-1.5 -3.5,-5.3 z"
       id="path87" />
    <path
       d="M 646.6,466.6 C 643.5,455.1 643.5,455 646,455 c 1.6,0 2,0.7 2,3.5 0,4.9 1.8,4.4 3.2,-1 0.7,-2.5 1.6,-4.5 2,-4.5 0.4,0 0.8,-1.2 0.8,-2.7 0,-1.4 1.2,-7.1 2.6,-12.5 2.2,-7.9 3,-9.8 4.5,-9.8 1.1,0 1.9,0.4 1.9,0.9 0,1.8 -12.3,45.6 -13,46.4 -0.4,0.4 -1.9,-3.5 -3.4,-8.7 z"
       id="path89" />
    <path
       d="m 592.6,471.8 c -1.9,-7.3 1.1,-11 3.2,-3.9 1.6,5.2 1.5,6.1 -0.7,6.1 -1.1,0 -2.1,-0.9 -2.5,-2.2 z"
       id="path91" />
    <path
       d="m 705,463.8 c 0,-3 4.5,-14.8 5.7,-14.8 1.8,0 1.6,4.2 -0.4,10.7 -1.2,3.8 -2.2,5.3 -3.5,5.3 -1,0 -1.8,-0.5 -1.8,-1.2 z"
       id="path93" />
    <path
       d="m 589,458.1 c 0,-1.6 -0.5,-3.1 -1.1,-3.3 -0.6,-0.2 -1.3,-2.5 -1.6,-5.1 -0.4,-3.7 -0.2,-4.7 0.9,-4.7 0.9,0 2.2,2.6 3.6,7 2.7,8.6 2.7,9 0.2,9 -1.5,0 -2,-0.7 -2,-2.9 z"
       id="path95" />
    <path
       d="M 634.5,422.5 626.7,394 h -25 c -24,0 -24.9,0.1 -25.4,2 -0.9,3.4 -3.3,2.4 -3.3,-1.3 v -3.3 l 20.8,0.3 c 11.4,0.2 24.3,0.6 28.7,0.9 l 8.1,0.5 4.7,17.3 c 2.6,9.4 4.7,18.4 4.7,19.9 0,1.5 0.5,2.7 1,2.7 0.6,0 1,1.5 1,3.4 0,1.9 0.5,3.6 1,3.8 0.6,0.2 1.3,2.7 1.7,5.6 0.5,4.1 0.3,5.2 -0.9,5.2 -1,0 -3.6,-8 -9.3,-28.5 z"
       id="path97" />
    <path
       d="m 711,444.8 c 0,-3 4.5,-14.8 5.7,-14.8 1.8,0 1.6,4.2 -0.4,10.7 -1.2,3.8 -2.2,5.3 -3.5,5.3 -1,0 -1.8,-0.5 -1.8,-1.2 z"
       id="path99" />
    <path
       d="m 581.7,436.7 c -0.9,-3 -1.7,-6.6 -1.7,-8 0,-5 2.6,-2.8 4.8,4.1 2.7,8.3 2.7,9.2 0.4,9.2 -1.3,0 -2.3,-1.5 -3.5,-5.3 z"
       id="path101" />
    <path
       d="m 382.9,424.8 c -5.3,-13.8 -7.9,-22 -7.9,-25 0,-2.5 0.3,-2.8 3.4,-2.8 2.5,0 3.5,0.5 3.9,2 0.4,1.5 1.4,2 4.2,2 6.1,0 6.5,1.1 6.5,17.4 V 433 h -3.4 c -3.4,0 -3.5,-0.1 -6.7,-8.2 z"
       id="path103" />
    <path
       d="m 641.6,421.3 c -1.5,-6.5 -3.2,-13.1 -3.7,-14.7 -0.5,-1.6 -0.9,-4.2 -0.9,-5.7 0,-2.6 0.3,-2.9 3.4,-2.9 3,0 3.5,0.4 4.1,3 0.7,3.4 1.2,3.5 3.9,1.5 1.1,-0.8 3.5,-1.5 5.3,-1.5 3.1,0 3.3,0.2 3.3,3.8 0,2 -1.4,9.2 -3.2,16 l -3.2,12.2 h -3.1 -3 z"
       id="path105" />
    <path
       d="m 661,423.5 c 0,-1.9 0.5,-3.5 1,-3.5 0.6,0 1,-1.2 1,-2.6 0,-1.4 0.8,-5.5 1.7,-9 1.3,-4.8 2.2,-6.4 3.5,-6.4 2.4,0 2.3,0.4 -1.4,13.7 -2,7.1 -3.6,11.3 -4.5,11.3 -0.8,0 -1.3,-1.3 -1.3,-3.5 z"
       id="path107" />
    <path
       d="m 717,425.8 c 0,-3 4.5,-14.8 5.7,-14.8 1.8,0 1.6,4.2 -0.4,10.7 -1.2,3.8 -2.2,5.3 -3.5,5.3 -1,0 -1.8,-0.5 -1.8,-1.2 z"
       id="path109" />
    <path
       d="m 162.3,418.3 c 0.9,-8.2 2.5,-13.3 4.2,-13.3 0.9,0 1.5,-1 1.5,-2.5 0,-1.8 0.5,-2.5 2,-2.5 1.3,0 2,-0.7 2,-2 0,-1.1 0.5,-2 1.1,-2 0.6,0 1.7,-0.7 2.5,-1.5 0.9,-0.8 3.1,-1.5 5,-1.5 1.9,0 3.4,-0.3 3.4,-0.7 0,-0.6 80.7,-0.8 103.3,-0.3 0.9,0 1.7,0.7 1.7,1.5 0,1 1,1.5 3,1.5 1.9,0 3,0.5 3,1.4 0,0.8 1,1.6 2.3,1.8 1.8,0.2 2.3,1 2.5,4.2 l 0.3,3.9 -5.1,-4.6 c -8.7,-7.8 -8.7,-7.8 -63.2,-7.5 l -47.3,0.3 -5.3,2.9 c -8,4.4 -11.7,10.7 -13.7,22.9 -0.4,2.5 -1.1,3.7 -2.2,3.7 -1.3,0 -1.5,-0.9 -1,-5.7 z"
       id="path111" />
    <path
       d="m 577,420.1 c 0,-1.6 -0.5,-3.1 -1.1,-3.3 -0.6,-0.2 -1.3,-2.5 -1.6,-5.1 -0.4,-3.7 -0.2,-4.7 0.9,-4.7 0.9,0 2.2,2.6 3.6,7 2.7,8.6 2.7,9 0.2,9 -1.5,0 -2,-0.7 -2,-2.9 z"
       id="path113" />
    <path
       d="m 372.2,420.3 c -0.5,-1 -3,-7.3 -5.6,-14 L 361.8,394 h -19.9 c -12.6,0 -19.9,-0.4 -19.9,-1 0,-0.6 8,-1 22,-1 h 22 v 2.5 c 0,1.4 0.5,2.5 1,2.5 0.6,0 1,1.1 1,2.5 0,1.4 0.4,2.5 1,2.5 0.5,0 1.3,1.8 1.6,4 0.4,2.2 1,4 1.5,4 0.5,0 0.9,1.1 0.9,2.5 0,1.4 0.5,2.5 1,2.5 0.6,0 1,1.6 1,3.5 0,3.8 -1.4,4.6 -2.8,1.8 z"
       id="path115" />
    <path
       d="m 301.8,413.5 c -1.5,-5.5 -1.5,-5.5 0.7,-5.5 1.7,0 2.4,0.7 2.9,3.1 1.8,9.1 -1.2,11.1 -3.6,2.4 z"
       id="path117" />
    <path
       d="m 723,406.8 c 0,-3 1.3,-5.8 2.6,-5.8 0.9,0 1.4,1.2 1.4,3.5 0,2.8 -0.4,3.5 -2,3.5 -1.1,0 -2,-0.6 -2,-1.2 z"
       id="path119" />
    <path
       d="m 572,402.5 c 0,-2.8 0.4,-3.5 2,-3.5 1.6,0 2,0.7 2,3.5 0,2.8 -0.4,3.5 -2,3.5 -1.6,0 -2,-0.7 -2,-3.5 z"
       id="path121" />
    <path
       d="m 668.3,396.5 c 0.2,-2.6 0.6,-4.7 0.8,-4.8 1.1,-0.8 49.9,0.6 49.9,1.4 0,0.5 -10.4,1 -23.2,1.1 l -23.2,0.3 -1,3.3 c -0.5,1.7 -1.6,3.2 -2.4,3.2 -1.1,0 -1.4,-1 -0.9,-4.5 z"
       id="path123" />
    <path
       d="m 550,395.8 c 0,-3 1.3,-5.8 2.6,-5.8 0.9,0 1.4,1.2 1.4,3.5 0,2.8 -0.4,3.5 -2,3.5 -1.1,0 -2,-0.6 -2,-1.2 z"
       id="path125" />
    <path
       d="m 409.5,393 c 0.4,-0.6 8.5,-1 21.1,-1 12.9,0 20.4,0.4 20.4,1 0,0.6 -7.7,1 -21.1,1 -13.7,0 -20.8,-0.3 -20.4,-1 z"
       id="path127" />
    <path
       d="m 474,393 c 0,-0.6 7.7,-1 21,-1 13.3,0 21,0.4 21,1 0,0.6 -7.7,1 -21,1 -13.3,0 -21,-0.4 -21,-1 z"
       id="path129" />
    <path
       d="m 261,272.6 c 0,-1.4 2.9,-2.6 6.8,-2.6 1.5,0 2.2,0.6 2.2,2 0,1.7 -0.7,2 -4.5,2 -3.2,0 -4.5,-0.4 -4.5,-1.4 z"
       id="path131" />
    <path
       d="m 343,272 c 0,-2.1 1.6,-2.5 5.8,-1.4 3.9,1.1 2.7,3.4 -1.8,3.4 -3.3,0 -4,-0.3 -4,-2 z"
       id="path133" />
    <path
       d="m 434,272.6 c 0,-0.8 1.9,-1.8 4.4,-2.5 6,-1.5 6.6,-1.4 6.6,0.8 0,1.3 -1,2 -3.1,2.5 -5.1,1 -7.9,0.7 -7.9,-0.8 z"
       id="path135" />
    <path
       d="M 471,142 V 10 h 3.5 c 2.4,0 3.5,0.5 3.5,1.5 0,0.8 -0.7,1.5 -1.5,1.5 -1.3,0 -1.5,15 -1.5,129 0,114 0.2,129 1.5,129 0.8,0 1.5,0.7 1.5,1.5 0,1 -1.1,1.5 -3.5,1.5 H 471 Z"
       id="path137" />
    <path
       d="m 669,272.5 c 0,-0.8 0.7,-1.5 1.5,-1.5 1.3,0 1.5,-12.6 1.7,-105.2 0.3,-99.4 0.4,-105.3 2.1,-105.6 1.6,-0.3 1.7,5.3 1.7,106.7 V 274 h -3.5 c -2.4,0 -3.5,-0.5 -3.5,-1.5 z"
       id="path139" />
    <path
       d="m 729.8,272.4 c -4,-1.2 -4.8,-1.9 -4.8,-3.9 0,-2.9 0.2,-3 4,-1 1.6,0.8 5.2,2 8,2.6 3.1,0.7 5,1.6 5,2.5 0,1.8 -5.9,1.8 -12.2,-0.2 z"
       id="path141" />
    <path
       d="m 820,272.6 c 0,-0.9 1.9,-1.8 5,-2.5 2.8,-0.6 6.4,-1.8 8,-2.6 3.8,-2 4,-1.9 4,1 0,2.1 -0.8,2.6 -5.2,4 -6.6,1.9 -11.8,2 -11.8,0.1 z"
       id="path143" />
    <path
       d="m 168,272.1 c 0,-0.5 0.8,-1.1 1.8,-1.3 1.7,-0.3 1.4,-2.6 -4,-30.3 -3.2,-16.5 -5.8,-30.6 -5.8,-31.2 0,-0.7 0.8,-1.3 1.8,-1.3 1.4,0 2.1,2.2 4.1,12.8 1.3,7 3.9,20.5 5.7,30 4.4,22.3 4.4,22.2 -0.1,22.2 -1.9,0 -3.5,-0.4 -3.5,-0.9 z"
       id="path145" />
    <path
       d="m 71.3,271.3 c 0.9,-0.2 1.7,-0.7 1.7,-0.9 0,-0.5 5.4,-34.6 6.5,-41.1 0.6,-3.5 3.5,-4.7 3.5,-1.5 0,0.9 -1.4,11.3 -3.2,23 L 76.5,272 73,271.9 c -1.9,-0.1 -2.7,-0.3 -1.7,-0.6 z"
       id="path147" />
    <path
       d="m 272,270.8 c 0,-0.9 1.7,-2 4.3,-2.7 11.7,-3.5 23.8,-13.4 29,-23.8 1.5,-2.8 3.4,-8.1 4.3,-11.7 1,-4.1 2.2,-6.6 3,-6.6 0.8,0 1.4,1 1.4,2.4 0,3.7 -2.2,12.6 -3.2,12.6 -0.4,0 -0.8,0.9 -0.8,1.9 0,3 -1.1,5.1 -2.6,5.1 -0.8,0 -1.4,1 -1.4,2.5 0,1.8 -0.5,2.5 -2,2.5 -1.4,0 -2,0.7 -2,2.3 0,2.9 -2.9,5.7 -5.8,5.7 -1.5,0 -2.2,0.6 -2.2,2 0,1.5 -0.7,2 -2.5,2 -1.5,0 -2.5,0.6 -2.5,1.4 0,1.5 -2.1,2.6 -5,2.6 -1,0 -2,0.5 -2.2,1.1 -0.2,0.6 -2.5,1.3 -5.1,1.6 -3.7,0.4 -4.7,0.3 -4.7,-0.9 z"
       id="path149" />
    <path
       d="m 334,270 c 0,-0.5 -0.7,-1 -1.5,-1 -0.9,0 -1.5,-0.9 -1.5,-2.5 0,-2 -0.5,-2.5 -2.5,-2.5 -1.6,0 -2.5,-0.6 -2.5,-1.5 0,-0.8 -0.4,-1.5 -1,-1.5 -0.5,0 -1,-1.6 -1,-3.5 0,-4.7 1.3,-4.4 4.5,1.1 1.7,2.9 4.5,5.8 7.6,7.7 2.7,1.6 4.9,3.4 4.9,3.8 0,0.5 -1.6,0.9 -3.5,0.9 -1.9,0 -3.5,-0.4 -3.5,-1 z"
       id="path151" />
    <path
       d="m 450.3,265.5 c 1.5,-1.3 3.9,-3.7 5.2,-5.2 l 2.4,-2.8 0.1,3.8 c 0,2.6 -0.4,3.7 -1.5,3.7 -0.8,0 -1.5,0.7 -1.5,1.5 0,1.1 -1.1,1.5 -3.7,1.5 l -3.8,-0.1 z"
       id="path153" />
    <path
       d="m 113.7,256.2 c -2.1,-13.1 -2.1,-14.2 -0.3,-14.2 1.6,0 1.9,1.3 4.1,14.5 1.8,11.2 1.8,10.5 -0.3,10.5 -1.5,0 -2.1,-1.7 -3.5,-10.8 z"
       id="path155" />
    <path
       d="m 30.8,259.3 c -0.2,-2 1,-11.1 2.8,-20.2 C 41.2,200.7 77,15.3 77,14.7 77,14.3 77.9,14 79,14 c 2.4,0 2.4,0.1 0.6,9.3 -1.7,8.1 -10.9,55.6 -18.6,95.7 -2.8,14.6 -5.9,30.8 -7,36 -1,5.2 -2.8,14.2 -3.9,20 -4.1,21.4 -12.2,63.7 -13.6,70.7 -0.8,4 -1.5,7.5 -1.5,7.8 0,0.3 6.4,0.4 14.2,0.3 L 63.5,253.5 67,230.8 70.5,208 h 25.7 25.6 l 0.6,2.8 c 0.6,3 5.1,30.8 6.1,38.5 l 0.7,4.7 h 14.5 c 13.3,0 14.4,-0.1 13.9,-1.7 -0.3,-1 -2.1,-10.1 -4,-20.3 C 150.5,215.6 143.9,181.2 127,93 124.3,79 119.8,55.7 117.1,41.3 114.3,26.9 112,14.9 112,14.6 c 0,-0.3 0.9,-0.6 2,-0.6 1.1,0 2,0.2 2,0.5 0,0.3 0.7,3.8 1.4,7.8 0.8,4 2.9,14.6 4.6,23.7 1.7,9.1 4,20.8 5,26 1,5.2 3.3,16.9 5,26 1.7,9.1 3.5,18.5 4,21 0.5,2.5 2.8,14.2 5,26 2.2,11.8 4.5,23.5 5,26 0.5,2.5 2.8,14.2 5,26 2.3,11.8 5.5,28.3 7.1,36.5 1.7,8.3 3.3,18.3 3.6,22.3 l 0.6,7.2 h -17.7 c -13.2,0 -17.8,-0.3 -18.1,-1.2 -0.3,-0.7 -1.9,-11 -3.7,-22.8 l -3.3,-21.5 -23.3,-0.3 C 79.5,217 73,217.3 73,218.1 c 0,1.3 -5.8,39.4 -6.6,42.7 C 66,263 65.8,263 48.6,263 H 31.2 Z"
       id="path157" />
    <path
       d="m 182.5,256.8 c -0.3,-3.5 -0.5,-59.4 -0.3,-124.3 l 0.3,-118 38.5,-0.3 c 23.6,-0.1 41.2,0.2 45.5,0.8 17.2,2.6 29.7,13 35.1,29 1.8,5.2 1.9,10.2 1.9,94 0,82.9 -0.1,88.9 -1.8,94.4 -3.5,11.3 -10.7,20.1 -20.7,25.1 -10,5.1 -14.3,5.5 -57.7,5.5 h -40.1 z m 82.1,-3.7 c 8.8,-1.7 16.1,-5.1 21.5,-9.8 6.2,-5.6 9.2,-10.2 11.9,-18.2 1.9,-5.9 2,-8.1 2,-88.3 C 300,85 299.6,52.9 298.9,50.1 295.6,35.6 285.2,24.7 270.1,20 264.3,18.1 260.9,18 224.9,18 H 186 v 118 118 h 36.9 c 20.2,0 39,-0.4 41.7,-0.9 z"
       id="path159" />
    <path
       d="m 247,227.5 c 0,-0.8 1.4,-1.7 3.8,-2.1 8.6,-1.6 12.9,-5.3 15.3,-13.2 1.5,-5.2 3.9,-5.6 3.9,-0.7 0,5.3 -2.5,10.5 -4.9,10.5 -1.4,0 -2.1,0.7 -2.1,1.9 0,1.3 -1.3,2.4 -4,3.5 -5.2,2.1 -12,2.2 -12,0.1 z"
       id="path161" />
    <path
       d="m 247.3,222.6 c 0.4,-1.1 -0.4,-1.6 -3.1,-1.8 l -3.7,-0.3 -0.3,-70.7 L 240,79 h 5 5 v 70.5 c 0,68.3 0.1,70.5 1.9,70.5 1.3,0 2,-0.9 2.5,-3 0.4,-2.1 1.1,-3 2.6,-3 3.9,0 1.8,6 -3,8.5 -3.8,2 -7.4,2 -6.7,0.1 z"
       id="path163" />
    <path
       d="M 254.5,67.2 C 253.9,65.1 250,63 247,63 c -1.3,0 -2,-0.7 -2,-2 0,-2.3 1.7,-2.5 7.2,-1 3.9,1.1 6.8,4.2 6.8,7.2 0,2.4 -3.7,2.4 -4.5,0 z"
       id="path165" />
    <path
       d="m 266.1,63.1 c -1.5,-5 -6.1,-9.7 -10.9,-11.1 -2,-0.5 -11,-1 -19.9,-1 -13.8,0 -16.3,0.2 -16.3,1.5 0,0.8 -0.7,1.5 -1.5,1.5 -1.2,0 -1.5,-1.3 -1.5,-5.5 V 43 h 20.3 c 19,0 20.5,0.1 24.7,2.3 5.8,2.8 9,8.8 9,16.4 0,6.5 -2.1,7.2 -3.9,1.4 z"
       id="path167" />
    <path
       d="m 227,61 c 0,-1.3 0.7,-2 2,-2 1.3,0 2,0.7 2,2 0,1.3 -0.7,2 -2,2 -1.3,0 -2,-0.7 -2,-2 z"
       id="path169" />
    <path
       d="m 345,261.8 c -5.5,-1.5 -9.6,-5.3 -11.7,-10.5 -1.7,-4.6 -1.8,-10.6 -1.8,-120.8 v -116 l 18.3,-0.3 C 367.5,14 368,14 368,16 c 0,1.9 -0.6,2 -16.5,2 H 335 l 0.2,111.8 0.3,111.8 2.7,4.1 c 5.2,7.9 4.6,7.8 54.3,7.8 h 44 l 4.1,-2.4 c 4.1,-2.3 8.4,-8.2 8.4,-11.5 0,-0.9 0.8,-1.6 2,-1.6 1.8,0 2,0.7 2,5.4 0,6.6 -1.2,10.2 -4.8,13.9 -5.1,5.4 -8.4,5.7 -56.1,5.6 -25.6,0 -45,-0.5 -47.1,-1.1 z"
       id="path171" />
    <path
       d="m 482.6,259.3 c -0.3,-2.1 -0.6,-32.9 -0.6,-68.5 0,-64.1 0,-64.8 2,-64.8 2,0 2,0.7 2,64 v 64 h 46 46 v 4.5 4.5 h -47.4 -47.3 z"
       id="path173" />
    <path
       d="M 628.6,259.3 C 628.3,257.2 628,209.7 628,153.8 V 52 h -19.4 -19.3 l -0.7,-3.8 C 588.3,46.2 588,37.6 588,29.3 V 14 h 58.5 58.5 l -0.2,18.8 -0.3,18.7 -19.7,0.3 -19.8,0.2 -0.2,105.3 -0.3,105.2 -17.6,0.3 -17.6,0.2 z M 661,152.8 c 0,-55.7 0.3,-103 0.6,-105.1 L 662.3,44 H 681.6 701 V 31 18 H 646.5 592 v 13 13 h 20 20 v 105 105 h 14.5 14.5 z"
       id="path175" />
    <path
       d="m 716,259.5 c 0,-4.4 0.9,-4.4 3.8,0 l 2.2,3.5 h -3 c -2.8,0 -3,-0.3 -3,-3.5 z"
       id="path177" />
    <path
       d="m 735.8,262 c -5.1,-1.6 -9,-4.5 -11.1,-8.5 -2,-3.8 -2.1,-5.6 -2.5,-40.2 L 721.8,177 h 2.1 c 2.1,0 2.1,0.2 2.1,31.3 0,35.8 0.3,37.2 8.1,42.4 l 4.3,2.8 h 42.6 42.6 l 4.3,-2.8 c 7.8,-5.2 8.1,-6.4 8.1,-43.6 0,-22.8 -0.4,-33.6 -1.2,-36.5 -0.8,-2.7 -3.6,-6.5 -8.1,-11.3 -5.6,-5.9 -6.8,-7.7 -6.5,-10 0.3,-2.7 0.4,-2.7 7.5,4 12.2,11.6 11.8,9.7 11.8,54.2 0,20.9 -0.4,39.7 -0.8,41.7 -0.9,4.4 -4.7,9.2 -9.1,11.6 -2.8,1.5 -7.7,1.7 -47.1,1.9 -24.2,0.1 -45.2,-0.2 -46.7,-0.7 z"
       id="path179" />
    <path
       d="m 842.2,259.5 c 2.9,-4.4 3.8,-4.4 3.8,0 0,3.2 -0.2,3.5 -3,3.5 h -3 z"
       id="path181" />
    <path
       d="m 20,258.8 c 0,-5.9 1.3,-9.8 3.1,-9.8 2.2,0 2.2,0.3 0.8,7 -1.1,5.1 -3.9,7.2 -3.9,2.8 z"
       id="path183" />
    <path
       d="M 10.3,251.3 C 10.6,249.2 13.2,235.6 16,221 20.8,196.1 26.1,168 34.4,123.5 41.2,87.6 50,41.5 53,26.5 53.5,23.8 54.7,17.7 55.6,13 56.4,8.3 57.4,3.7 57.6,2.8 58.1,1.1 61.2,1 103.5,1 152.9,1 150,0.7 150,6.6 c 0,2.3 0.3,4 3.4,16.9 l 1.4,6 0.1,-14.2 L 155,1 h 53.3 c 29.2,0 57.3,0.5 62.3,0.9 5.8,0.6 12.4,2.1 18,4.1 4.9,1.7 9.7,3.4 10.7,3.7 1.4,0.5 1.7,-0.1 1.7,-4.1 V 1 h 124 124 l 0.2,35.8 c 0.1,19.6 0.2,67 0.3,105.2 v 69.5 h 21 21 L 591.8,155.8 592,100 H 572.5 553 V 50.5 0.9 L 687.8,1.3 C 835.5,1.6 824.5,1.2 837,7.5 c 6,3.1 13.9,10.1 18.1,16.1 1.6,2.3 4.1,7.7 5.6,12 l 2.8,7.9 0.3,50.3 0.3,50.2 h -13 c -7.2,0 -13.1,0.3 -13.1,0.6 0,0.4 3.5,4.4 7.9,8.9 5.4,5.7 8.9,10.4 11.5,15.6 5.8,11.9 6.6,17.5 6.6,50.2 v 28.9 l -4.2,-0.7 c -2.4,-0.4 -4.5,-0.9 -4.7,-1.1 -0.3,-0.3 -0.7,-14.3 -0.9,-31.2 -0.3,-24.5 -0.7,-31.8 -2,-36.2 -1.2,-3.9 -1.7,-4.9 -2,-3.2 -0.6,3.9 -2.7,2.3 -4.5,-3.5 -1,-3.1 -3.3,-7.8 -5.2,-10.3 -1.9,-2.6 -3.1,-5.1 -2.7,-5.5 0.4,-0.5 0.2,-0.5 -0.5,-0.2 -1.3,0.8 -12.6,-9 -11.8,-10.3 0.5,-0.9 -3.9,-5.2 -4.7,-4.5 -0.3,0.3 -3.1,-1.8 -6.3,-4.7 -3.2,-2.9 -5.2,-5.4 -4.6,-5.6 0.6,-0.2 1.1,-1.9 1.1,-3.8 V 124 h 21.6 21.5 l -0.3,-41.7 c -0.3,-36.1 -0.6,-42.3 -2,-45.8 -1.3,-3 -1.7,-3.4 -1.7,-1.7 -0.2,3.9 -2.8,2.4 -4.1,-2.3 -2.5,-8.9 -8.2,-15 -16.7,-18.1 -3,-1 -13.5,-1.3 -48,-1.4 -50.4,0 -50.7,0 -59,8.2 l -4.3,4.2 v -3.5 c 0,-3.9 1.4,-5.9 4.2,-5.9 1,0 1.8,-0.6 1.8,-1.4 0,-0.8 0.6,-1.7 1.3,-1.9 0.6,-0.3 0,-0.6 -1.5,-0.6 C 722,12 721,11.5 721,10.5 721,9.2 711.8,9 644.5,9 H 568 V 44.5 80 h 20.2 20.1 l -0.6,82.7 c -0.5,54 -1,82.9 -1.7,83.1 -0.5,0.2 -1,1.2 -1,2.2 0,1.1 -0.5,3.1 -1.2,4.5 -0.9,1.9 -1.9,2.5 -4.3,2.5 h -3.2 l -0.7,-7.7 C 595.3,243.1 595,235 595,229.3 V 219 h -29 -29 v -64.3 c 0,-35.4 -0.3,-82.7 -0.7,-105 L 535.7,9 H 466.8 398 v 106 106 h -5 -5 v -40.7 c 0,-22.5 -0.3,-70.2 -0.7,-106.1 L 386.7,9 H 350.3 314 v 11 11 h -3.3 c -2.5,0 -4.2,-0.9 -6.8,-3.6 -1.8,-2 -4.2,-4 -5.1,-4.5 -1.5,-0.8 -1.8,-0.5 -1.8,1.6 0,2.1 0.5,2.5 3,2.5 2.3,0 3,0.4 3,2 0,1.1 0.7,2 1.5,2 0.8,0 1.5,0.7 1.5,1.5 0,0.8 0.4,1.5 0.8,1.5 1.1,0 3.2,4.6 3.2,7 0,1.1 0.4,2 0.8,2 1,0 3.2,8.9 3.2,12.6 0,1.4 -0.6,2.4 -1.4,2.4 -0.8,0 -2,-2.5 -3.1,-6.7 C 304.7,32.1 290.2,18 271.2,14.1 267.8,13.4 250.1,13 222.4,13 c -28.8,0 -43.3,-0.3 -42.9,-1 0.4,-0.6 16,-1 43.3,-1.1 27.8,0 41.6,-0.4 39.5,-1 C 260.5,9.4 238.9,9.1 212.8,9.2 L 166.5,9.5 166.2,76.3 166,143 h -3.3 -3.3 l -1.7,-9.2 c -2.3,-12 -9,-47.1 -12.7,-66.3 -1.6,-8.2 -4.5,-23.5 -6.5,-34 -1.9,-10.4 -3.8,-20.2 -4.1,-21.8 L 133.8,9 H 100 66.2 l -0.5,2.3 c -0.3,1.2 -1.9,9.4 -3.6,18.2 -1.7,8.8 -5.7,29.9 -9,47 -18.1,93.2 -27.3,140.5 -31,159 -1.2,6 -2.6,10.4 -3.5,11.1 -0.9,0.6 -1.6,1.9 -1.6,2.8 0,0.9 -0.4,1.6 -0.9,1.6 -0.5,0 -1.3,0.9 -1.6,2 -0.4,1.1 -1.5,2 -2.7,2 -1.8,0 -2,-0.4 -1.5,-3.7 z M 289.6,17.1 C 288.7,15.8 283,13.9 283,15 c 0,0.5 0.8,1.4 1.8,1.9 2.1,1.3 5.5,1.4 4.8,0.2 z M 277,12 c -3.6,-1.1 -5.2,-1.1 -4.5,0 0.3,0.6 2.1,1 3.8,0.9 3.1,-0.1 3.1,-0.1 0.7,-0.9 z m 541.5,-2 c -7.6,-1.2 -78.3,-1.2 -79,0 -0.4,0.7 13.7,1 41.7,0.9 24.3,-0.1 40.2,-0.5 37.3,-0.9 z"
       id="path185" />
    <path
       d="m 459,253.9 c 0,-3.2 2.4,-9.9 3.6,-9.9 1.5,0 1.8,2.8 0.8,7.9 -0.5,2.1 -1.2,3.1 -2.5,3.1 -1.1,0 -1.9,-0.5 -1.9,-1.1 z"
       id="path187" />
    <path
       d="m 712,249.5 c 0,-4 2.4,-4.9 3.4,-1.2 1,3.7 0.7,4.7 -1.4,4.7 -1.6,0 -2,-0.7 -2,-3.5 z"
       id="path189" />
    <path
       d="m 846,251.8 c 0,-3 1.3,-5.8 2.6,-5.8 0.9,0 1.4,1.2 1.4,3.5 0,2.8 -0.4,3.5 -2,3.5 -1.1,0 -2,-0.6 -2,-1.2 z"
       id="path191" />
    <path
       d="m 94,248.5 c 0,-3.3 0.2,-3.5 3.5,-3.5 3.3,0 3.5,0.2 3.5,3.5 0,3.3 -0.2,3.5 -3.5,3.5 -3.3,0 -3.5,-0.2 -3.5,-3.5 z"
       id="path193" />
    <path
       d="m 321,248 c 0,-4.5 2.3,-5.7 3.4,-1.7 1.1,4.1 0.7,5.7 -1.4,5.7 -1.7,0 -2,-0.7 -2,-4 z"
       id="path195" />
    <path
       d="m 692.5,250.1 c -0.3,-0.6 -2.7,-0.7 -5.4,-0.4 l -4.8,0.5 -0.6,-32.3 C 681.3,200.1 681,161.8 681,132.8 V 80 h 10 10 v 14.8 c 0,25.9 1.5,29 25.7,52.8 16.1,15.9 18.3,18.4 18.3,21.2 v 3.2 h -22 -22 v 34.3 c 0,18.8 -0.3,36.6 -0.6,39.5 -0.7,5.1 -0.7,5.2 -4,5.2 -1.8,0 -3.5,-0.4 -3.9,-0.9 z m 17.9,-86.8 c 0.3,-0.4 -2.2,-3.4 -5.6,-6.7 -3.5,-3.4 -7.5,-7.7 -9,-9.6 l -2.8,-3.5 v 10.3 10.2 h 8.3 c 4.6,0 8.7,-0.3 9.1,-0.7 z"
       id="path197" />
    <path
       d="m 23.2,241.7 c 0.3,-2.4 3.2,-17.9 6.4,-34.5 5,-26.1 6.1,-30.2 7.6,-30.2 1,0 1.8,0.3 1.8,0.7 0,0.6 -10.1,53 -12.6,65.6 -0.3,1.5 -1.2,2.7 -2.1,2.7 -1.2,0 -1.5,-0.9 -1.1,-4.3 z"
       id="path199" />
    <path
       d="m 110.6,236.3 c -0.4,-2.7 -1,-6.3 -1.3,-8 -0.4,-2.8 -0.2,-3.3 1.4,-3.3 1.7,0 2.1,0.9 2.6,4.8 0.3,2.6 0.9,6.2 1.3,8 0.6,2.8 0.4,3.2 -1.4,3.2 -1.6,0 -2.1,-0.9 -2.6,-4.7 z"
       id="path201" />
    <path
       d="m 574,230 c 0,-4.3 0.3,-5 2,-5 1.7,0 2,0.7 2,5 0,4.3 -0.3,5 -2,5 -1.7,0 -2,-0.7 -2,-5 z"
       id="path203" />
    <path
       d="m 756,226.5 c 0,-2.4 0.5,-3.5 1.5,-3.5 0.8,0 1.5,0.7 1.5,1.5 0,1.3 3.1,1.5 22,1.5 18.9,0 22,-0.2 22,-1.5 0,-0.8 0.7,-1.5 1.5,-1.5 1,0 1.5,1.1 1.5,3.5 v 3.5 h -25 -25 z"
       id="path205" />
    <path
       d="m 365,225.5 c 0,-3.9 2.4,-5 3.3,-1.5 0.3,1.1 1.2,2 2.1,2 0.9,0 1.6,0.7 1.6,1.5 0,1 -1.1,1.5 -3.5,1.5 -3.3,0 -3.5,-0.2 -3.5,-3.5 z"
       id="path207" />
    <path
       d="M 515,122.5 V 18 H 500.5 486 v 3 c 0,2.3 -0.4,3 -2,3 -1.7,0 -2,-0.7 -2,-5 v -5 h 18.5 18.5 v 105.5 c 0,93.1 0.2,105.5 1.5,105.5 0.8,0 1.5,0.5 1.5,1 0,0.6 -1.6,1 -3.5,1 H 515 Z"
       id="path209" />
    <path
       d="m 524.8,225.3 c 1.2,-0.2 3,-0.2 4,0 0.9,0.3 -0.1,0.5 -2.3,0.4 -2.2,0 -3,-0.2 -1.7,-0.4 z"
       id="path211" />
    <path
       d="m 766.6,224.2 c -0.2,-0.4 -0.5,-11.6 -0.5,-24.7 0,-20.7 -0.2,-24 -1.6,-24.3 -3.1,-0.7 -1.6,-3.2 2,-3.2 h 3.5 v 25.5 25.5 h 12.5 c 7.7,0 12.5,0.4 12.5,1 0,1.2 -27.6,1.4 -28.4,0.2 z"
       id="path213" />
    <path
       d="m 526,221 c 0,-1.3 0.7,-2 2,-2 1.3,0 2,0.7 2,2 0,1.3 -0.7,2 -2,2 -1.3,0 -2,-0.7 -2,-2 z"
       id="path215" />
    <path
       d="m 575.8,222.3 c 1.2,-0.2 3,-0.2 4,0 0.9,0.3 -0.1,0.5 -2.3,0.4 -2.2,0 -3,-0.2 -1.7,-0.4 z"
       id="path217" />
    <path
       d="m 311,142 c 0,-78.3 0,-79 2,-79 2,0 2,0.7 2,79 0,78.3 0,79 -2,79 -2,0 -2,-0.7 -2,-79 z"
       id="path219" />
    <path
       d="m 159,204.8 c 0,-0.2 -2,-10.6 -4.5,-23.3 -2.5,-12.6 -4.5,-23.6 -4.5,-24.2 0,-0.7 0.8,-1.3 1.8,-1.3 1.4,0 2.3,3.4 6,22.8 4.7,25.3 4.8,26.2 2.7,26.2 -0.8,0 -1.5,-0.1 -1.5,-0.2 z"
       id="path221" />
    <path
       d="m 790.7,190.3 c -0.4,-0.3 -0.7,-1.9 -0.7,-3.5 0,-2.8 0,-2.8 2.5,-1.2 2.9,1.9 3.4,5.4 0.7,5.4 -1,0 -2.2,-0.3 -2.5,-0.7 z"
       id="path223" />
    <path
       d="m 803,185.8 c 0,-0.7 -16.9,-17.3 -37.5,-36.8 -31.5,-29.8 -38,-36.4 -40.3,-41 l -2.7,-5.5 v -37 -37 L 725,24 c 1.7,-2.9 4.1,-5.3 7,-7 l 4.5,-2.5 H 781 825.5 L 830,17 c 2.9,1.7 5.3,4.1 7,7 2.5,4.5 2.5,4.7 2.8,33 0.2,15.7 0.1,30.9 -0.3,33.8 l -0.6,5.2 h -18 -17.9 v -4.2 -4.3 l 16.5,0.4 16.5,0.3 V 60.4 C 836,35 835.8,32.1 834,28.5 828.9,17.9 829.4,18 781.1,18 c -33.9,0 -40.7,0.2 -43.8,1.5 -5,2.1 -7.2,4.2 -9.4,9 -1.7,3.6 -1.9,7.1 -1.9,35.3 0,31 0,31.3 2.4,36 2.3,4.6 7.4,9.6 63.8,62.8 l 13.8,12.9 v 5.8 c 0,4.4 -0.3,5.7 -1.5,5.7 -0.8,0 -1.5,-0.6 -1.5,-1.2 z"
       id="path225" />
    <path
       d="M 76,178.1 C 76,174.2 90.1,83.8 92.6,71.8 93.1,69.4 93.7,69 96.4,69 h 3.2 l 2.3,14.3 c 2.1,13.2 4.3,26.8 12.1,74.9 1.6,10.4 3,20.1 3,21.8 0,2.8 -0.3,3 -3.5,3 -2.4,0 -3.5,-0.5 -3.5,-1.5 0,-0.8 0.7,-1.5 1.6,-1.5 1.4,0 1.5,-0.7 1,-3.7 -0.9,-5.5 -10.2,-63 -13.3,-82.7 -1.9,-11.7 -2.9,-16.1 -3.5,-14.5 -0.4,1.3 -4.1,23.6 -8.3,49.4 -4.2,25.9 -7.9,47.8 -8.1,48.8 -0.4,1.3 0.1,2 1.5,2.4 3.5,0.9 2.5,3.3 -1.4,3.3 H 76 Z"
       id="path227" />
    <path
       d="m 755,179 c 0,-1.3 0.7,-2 2,-2 1.3,0 2,0.7 2,2 0,1.3 -0.7,2 -2,2 -1.3,0 -2,-0.7 -2,-2 z"
       id="path229" />
    <path
       d="m 100.7,175.3 c -0.3,-1.6 -1.3,-8.1 -2.3,-14.6 -1.1,-6.9 -2.1,-11.1 -2.5,-10 -0.3,1 -1.5,7.3 -2.5,14.1 -1.6,10.3 -2.1,12.2 -3.6,12.2 -1,0 -1.8,-0.4 -1.8,-0.9 0,-1.6 7,-44.4 7.7,-47.1 0.7,-3 0.9,-2.3 5.4,25.5 1.6,10.5 3.3,20 3.6,21.3 0.4,1.7 0.1,2.2 -1.5,2.2 -1.3,0 -2.1,-0.8 -2.5,-2.7 z"
       id="path231" />
    <path
       d="m 773.1,173.6 c -1.5,-1.6 -2.1,-3.3 -1.9,-5.2 l 0.3,-2.8 5.5,5.2 5.5,5.1 -3.6,0.1 c -2.5,0 -4.2,-0.7 -5.8,-2.4 z"
       id="path233" />
    <path
       d="m 720.8,174.3 c 1.2,-0.2 3,-0.2 4,0 0.9,0.3 -0.1,0.5 -2.3,0.4 -2.2,0 -3,-0.2 -1.7,-0.4 z"
       id="path235" />
    <path
       d="m 756.8,174.3 c 1.2,-0.2 3,-0.2 4,0 0.9,0.3 -0.1,0.5 -2.3,0.4 -2.2,0 -3,-0.2 -1.7,-0.4 z"
       id="path237" />
    <path
       d="m 37.4,168.8 c 0.3,-2.9 2.8,-16.5 5.5,-30.3 C 45.6,124.8 49,106.9 50.6,98.8 53,86.3 53.7,84 55.2,84 c 2.3,0 2.3,-0.9 -1.1,16.7 -1.7,8.1 -5.3,26.7 -8.1,41.3 -2.8,14.6 -5.3,27.7 -5.6,29.3 -0.3,1.5 -1.2,2.7 -2.1,2.7 -1.3,0 -1.5,-0.9 -0.9,-5.2 z"
       id="path239" />
    <path
       d="m 754.1,155.6 c -1.5,-1.6 -2.1,-3.3 -1.9,-5.2 l 0.3,-2.8 5.5,5.2 5.5,5.1 -3.6,0.1 c -2.5,0 -4.2,-0.7 -5.8,-2.4 z"
       id="path241" />
    <path
       d="m 149,152.7 c 0,-0.2 -2,-10.7 -4.5,-23.3 -2.5,-12.6 -4.5,-23.5 -4.5,-24.1 0,-0.7 0.9,-1.3 2,-1.3 1.2,0 2,0.7 2,1.8 0,0.9 1.8,10.9 4,22.1 4.5,22.8 4.7,25.1 2.5,25.1 -0.8,0 -1.5,-0.2 -1.5,-0.3 z"
       id="path243" />
    <path
       d="m 808.1,141.6 c -3.4,-3.4 -4.2,-4.9 -3.9,-7.2 0.3,-2.9 0.3,-2.9 7.8,4.3 l 7.5,7.2 -3.5,0.1 c -2.9,0 -4.4,-0.8 -7.9,-4.4 z"
       id="path245" />
    <path
       d="m 735.6,138.1 c -1,-1.1 -1.6,-3.1 -1.4,-4.7 l 0.3,-2.7 5,4.6 5,4.6 -3.6,0.1 c -2.3,0 -4.2,-0.7 -5.3,-1.9 z"
       id="path247" />
    <path
       d="m 789.6,124.1 c -3.8,-3.9 -4.7,-5.4 -4.4,-7.7 0.3,-2.9 0.4,-2.8 8.3,4.8 l 8,7.7 -3.5,0.1 c -3,0 -4.4,-0.8 -8.4,-4.9 z"
       id="path249" />
    <path
       d="m 796.2,119.6 c -3.4,-3.3 -6,-6.1 -5.7,-6.4 0.3,-0.3 1.3,0.2 2.3,1.1 1,1 3,1.7 4.4,1.7 3.3,0 6,3.1 5.6,6.6 l -0.3,2.8 z"
       id="path251" />
    <path
       d="m 717,116.5 c 0,-4.4 0.9,-4.4 3.8,0 l 2.2,3.5 h -3 c -2.8,0 -3,-0.3 -3,-3.5 z"
       id="path253" />
    <path
       d="m 772.6,108.1 c -3.8,-3.9 -4.7,-5.4 -4.4,-7.7 0.3,-2.9 0.4,-2.8 8.3,4.8 l 8,7.7 -3.5,0.1 c -3,0 -4.4,-0.8 -8.4,-4.9 z"
       id="path255" />
    <path
       d="m 712.6,108.9 c -1.8,-9.1 1.2,-11.1 3.6,-2.4 1.5,5.5 1.5,5.5 -0.7,5.5 -1.7,0 -2.4,-0.7 -2.9,-3.1 z"
       id="path257" />
    <path
       d="m 779.2,103.6 c -3.4,-3.3 -6,-6.1 -5.7,-6.4 0.3,-0.3 1.1,0 1.7,0.6 0.7,0.7 2.4,1.2 3.8,1.2 3.6,0 7.2,4 6.8,7.6 l -0.3,2.8 z"
       id="path259" />
    <path
       d="m 792,104.5 c 0,-2.4 0.5,-3.5 1.5,-3.5 0.8,0 1.5,0.7 1.5,1.5 0,1.3 3.6,1.5 26,1.5 22.4,0 26,-0.2 26,-1.5 0,-0.8 0.7,-1.5 1.5,-1.5 1,0 1.5,1.1 1.5,3.5 v 3.5 h -29 -29 z"
       id="path261" />
    <path
       d="m 139,100.7 c 0,-0.2 -1.6,-8.4 -3.5,-18.3 -1.9,-9.8 -3.5,-18.2 -3.5,-18.6 0,-0.5 0.8,-0.8 1.8,-0.8 1.5,0 2.3,2.5 5,17.3 3.7,19.4 3.8,20.7 1.7,20.7 -0.8,0 -1.5,-0.1 -1.5,-0.3 z"
       id="path263" />
    <path
       d="M 758.2,94.7 C 755.6,92 755.1,86 757.5,86 c 0.8,0 1.5,0.5 1.5,1.2 0,0.7 1.9,3.2 4.2,5.5 l 4.2,4.3 h -3.5 c -2.4,0 -4.2,-0.7 -5.7,-2.3 z"
       id="path265" />
    <path
       d="m 767.6,92.1 c -1.4,-1.6 -1.6,-3.9 -1.4,-17.2 0.3,-13.7 0.5,-15.4 2.1,-15.7 1.6,-0.3 1.7,1 1.7,17.2 0,9.7 -0.2,17.6 -0.3,17.6 -0.2,0 -1.1,-0.8 -2.1,-1.9 z"
       id="path267" />
    <path
       d="m 55.2,76.5 c 0.3,-2.4 3.2,-18 6.4,-34.5 5,-26 6,-30 7.6,-30 1,0 1.8,0.3 1.8,0.7 0,0.6 -9.2,48.4 -12.6,65.6 -0.3,1.5 -1.2,2.7 -2.1,2.7 -1.3,0 -1.5,-0.9 -1.1,-4.5 z"
       id="path269" />
    <path
       d="m 617,62 c 0,-1.3 0.7,-2 2,-2 1.3,0 2,0.7 2,2 0,1.3 -0.7,2 -2,2 -1.3,0 -2,-0.7 -2,-2 z"
       id="path271" />
    <path
       d="m 709,61.5 c 0,-0.8 0.7,-1.5 1.5,-1.5 1.3,0 1.5,-3.1 1.5,-21.9 0,-12.1 0.3,-22.6 0.6,-23.4 0.4,-1.1 -0.2,-1.7 -1.8,-2 -1.5,-0.3 -1,-0.5 1.5,-0.6 L 716,12 v 7.5 c 0,4.1 0.4,7.5 0.9,7.5 0.5,0 0.3,2.1 -0.5,4.7 -0.9,2.9 -1.4,9.4 -1.4,18 V 63 h -3 c -2,0 -3,-0.5 -3,-1.5 z"
       id="path273" />
    <path
       d="m 130.6,57.8 c -1.1,-4.2 -0.7,-5.8 1.4,-5.8 1.7,0 2,0.7 2,4 0,4.5 -2.3,5.7 -3.4,1.8 z"
       id="path275" />
    <path
       d="m 756,48 v -6 h 25 25 v 5.5 c 0,4.2 -0.3,5.5 -1.5,5.5 -0.8,0 -1.5,-0.7 -1.5,-1.5 0,-1.3 -3.1,-1.5 -21.6,-1.5 -20.7,0 -21.6,0.1 -22.1,2 -0.3,1.1 -1.2,2 -1.9,2 -1,0 -1.4,-1.6 -1.4,-6 z"
       id="path277" />
    <path
       d="m 129,48.7 c 0,-0.2 -1.6,-8.4 -3.5,-18.3 -1.9,-9.8 -3.5,-18 -3.5,-18.1 0,-0.1 -2.4,-0.4 -5.2,-0.6 -4.7,-0.3 -4.5,-0.3 1.8,-0.5 l 7,-0.2 3.2,17.3 c 3.7,19.4 3.8,20.7 1.7,20.7 -0.8,0 -1.5,-0.1 -1.5,-0.3 z"
       id="path279" />
    <path
       d="m 417,16 c 0,-1.9 0.7,-2 18,-2 17.3,0 18,0.1 18,2 0,1.9 -0.7,2 -18,2 -17.3,0 -18,-0.1 -18,-2 z"
       id="path281" />
    <path
       d="m 328.5,12 c 0.4,-0.6 8.7,-1 21.6,-1 13.3,0 20.9,0.4 20.9,1 0,0.6 -7.9,1 -21.6,1 -14.1,0 -21.3,-0.3 -20.9,-1 z"
       id="path283" />
    <path
       d="m 414,12 c 0,-0.6 7.7,-1 21,-1 13.3,0 21,0.4 21,1 0,0.6 -7.7,1 -21,1 -13.3,0 -21,-0.4 -21,-1 z"
       id="path285" />
    <path
       d="m 479,12 c 0,-0.6 7.8,-1 21.5,-1 13.7,0 21.5,0.4 21.5,1 0,0.6 -7.8,1 -21.5,1 C 486.8,13 479,12.6 479,12 Z"
       id="path287" />
    <path
       d="m 585,12 c 0,-0.7 21.2,-1 61.5,-1 40.3,0 61.5,0.3 61.5,1 0,0.7 -21.2,1 -61.5,1 C 606.2,13 585,12.7 585,12 Z"
       id="path289" />
    <path
       d="m 75.8,11.3 c 1.2,-0.2 3,-0.2 4,0 0.9,0.3 -0.1,0.5 -2.3,0.4 -2.2,0 -3,-0.2 -1.7,-0.4 z"
       id="path291" />
  </g>
  <g
     fill="#fc55c7"
     id="g573"
     transform="translate(-6,-0.9)">
    <path
       d="m 401.2,673.6 c -0.5,-0.6 -4.7,-11.2 -9.3,-23.5 l -8.4,-22.4 -0.3,23.1 c -0.2,22.4 -0.3,23.2 -2.2,23.2 -1.9,0 -2,-0.7 -2,-25.6 v -25.5 l 3.7,0.3 3.7,0.3 8.7,23 c 4.8,12.7 9.2,23.5 9.8,24.2 0.6,0.7 1.1,1.6 1.1,2.1 0,1.5 -3.8,2.1 -4.8,0.8 z"
       id="path295" />
    <path
       d="m 183,672.4 c -5.8,-1.6 -12.8,-5.2 -15,-7.8 -1.1,-1.4 -0.8,-1.6 2.3,-1.6 1.9,0 3.7,0.4 3.9,0.8 0.4,1.2 13.2,6.2 15.7,6.2 1.4,0 2.1,0.6 2.1,2 0,2.4 -1.4,2.4 -9,0.4 z"
       id="path297" />
    <path
       d="m 280,672.2 c 0,-1.5 0.9,-2.1 4,-2.6 4,-0.6 14.9,-5.3 16.1,-6.9 0.3,-0.5 2.1,-0.7 4,-0.5 3.1,0.3 3.4,0.6 3.7,4.1 0.3,3.2 0,3.7 -1.7,3.7 -1.5,0 -2.1,-0.6 -2.1,-2.1 0,-1.1 -0.3,-1.9 -0.7,-1.7 -9.2,4.6 -14.7,6.8 -18.5,7.3 -4.3,0.7 -4.8,0.5 -4.8,-1.3 z"
       id="path299" />
    <path
       d="m 589,636 c 0,-37.3 0,-38 2,-38 2,0 2,0.7 2,38 0,37.3 0,38 -2,38 -2,0 -2,-0.7 -2,-38 z"
       id="path301" />
    <path
       d="m 607.6,671.6 c -0.3,-1.3 -0.6,-26.2 -0.6,-55.3 0,-59.8 0.7,-54.2 -9.1,-81.8 -7.3,-21 -37,-115.3 -38,-121 -0.5,-2.7 -0.6,-5.8 -0.3,-6.7 0.5,-1.7 -0.7,-1.8 -7.3,-0.3 -1.2,0.3 -2.4,0.2 -2.6,-0.2 -0.3,-0.6 1.6,-21.5 2.2,-24 0.1,-0.2 20.3,-0.3 45,-0.3 h 44.8 l 1.3,4.8 c 1.9,6.9 2.7,7.1 4.5,0.8 l 1.6,-5.6 h 47 46.9 v 7.8 c 0,8.6 -1.8,14.8 -4.9,17.3 -1.2,1 -2.1,2.7 -2.1,3.8 0,1.1 -3.8,13.9 -8.4,28.3 -4.7,14.5 -11.2,35.1 -14.6,45.8 -3.4,10.7 -9,28.1 -12.4,38.5 -3.5,10.5 -8.1,25 -10.2,32.3 -2.4,8.3 -4.3,13.2 -5.1,13.2 -0.8,0 -1.3,-1.2 -1.3,-3.1 0,-3.5 7.2,-28.6 12.5,-43.8 1.9,-5.3 10.5,-32.1 19.2,-59.6 15.6,-49.7 15.7,-50.1 16.1,-60.8 l 0.4,-10.7 -34.8,0.2 -34.8,0.3 -5.6,21 -5.7,21 -3.6,0.3 c -3.2,0.3 -3.7,0 -4.3,-2.2 -0.3,-1.5 -3,-11 -5.8,-21.4 l -5.2,-18.7 -33.1,-0.3 -33,-0.2 -0.7,3.2 c -0.4,1.8 -0.9,6.7 -1.3,10.8 -0.5,7.5 -0.5,7.5 13.6,53 7.8,25 18.3,57.7 23.4,72.5 l 9.2,27 0.3,58.3 c 0.2,49.9 0.1,58.2 -1.2,58.2 -0.7,0 -1.7,-1.1 -2,-2.4 z m 44.7,-260.3 c 0.2,-1.2 0.6,-2.5 1,-2.9 0.4,-0.4 0.7,-1.7 0.7,-2.8 0,-1.5 -0.3,-1.7 -0.9,-0.8 -0.4,0.8 -1.2,1.3 -1.7,1.2 -0.4,-0.1 -1.1,0.7 -1.5,1.7 -0.4,1 -0.8,1.3 -0.8,0.6 -0.1,-0.8 -1,-0.9 -3.1,-0.3 -2,0.6 -3,0.5 -3,-0.2 0,-0.6 -0.3,-0.9 -0.6,-0.5 -0.8,0.8 0.6,6.8 1.4,6.3 0.4,-0.2 0.8,0.8 0.8,2.2 0.1,1.5 0.4,3.8 0.8,5.2 0.3,1.4 0.9,4.1 1.3,6 0.6,3.3 0.8,3.1 3,-5 1.2,-4.7 2.4,-9.5 2.6,-10.7 z"
       id="path303" />
    <path
       d="m 162.3,658.1 c -4,-5.4 -6.9,-12.9 -7.8,-20.4 -0.7,-5.3 -0.6,-5.7 1.2,-5.7 1.7,0 2.1,0.9 2.6,5 0.6,4.9 5.2,16.9 7,18.1 0.5,0.3 0.7,2.1 0.5,4 l -0.3,3.4 z"
       id="path305" />
    <path
       d="m 181.3,654.3 c -1.6,-0.3 -2.3,-1.1 -2.3,-2.7 v -2.3 l 5.5,1.5 c 8.9,2.5 6.2,5.3 -3.2,3.5 z"
       id="path307" />
    <path
       d="m 294.4,645.3 c 2,-2 4.6,-5.4 5.7,-7.5 2.3,-4.5 3.9,-4.9 3.9,-0.9 0,3.9 -0.9,6.1 -2.6,6.1 -0.8,0 -1.4,0.7 -1.4,1.6 0,2.5 -2.6,4.4 -6.1,4.4 h -3.3 z"
       id="path309" />
    <path
       d="m 167,641.5 c 0,-4.4 0.9,-4.4 3.8,0 l 2.2,3.5 h -3 c -2.8,0 -3,-0.3 -3,-3.5 z"
       id="path311" />
    <path
       d="m 402,639.4 c 0,-4.4 1.8,-4.2 3.7,0.4 1.3,3.1 1.2,3.2 -1.2,3.2 -2.2,0 -2.5,-0.4 -2.5,-3.6 z"
       id="path313" />
    <path
       d="m 162.6,632.3 c -0.9,-6 -0.7,-8.3 0.8,-8.3 0.9,0 1.8,1.9 2.5,5 1.4,6.7 1.4,7 -0.8,7 -1.4,0 -2,-1 -2.5,-3.7 z"
       id="path315" />
    <path
       d="m 399,631.4 c 0,-4.4 1.8,-4.2 3.7,0.4 1.3,3.1 1.2,3.2 -1.2,3.2 -2.2,0 -2.5,-0.4 -2.5,-3.6 z"
       id="path317" />
    <path
       d="m 303,523 c 0,-103.3 0,-104 2,-104 2,0 2,0.7 2,104 0,103.3 0,104 -2,104 -2,0 -2,-0.7 -2,-104 z"
       id="path319" />
    <path
       d="m 393.4,618 c -0.4,-2.2 -1,-4 -1.5,-4 -0.5,0 -0.9,-1.6 -0.9,-3.5 0,-3.3 1.2,-4.6 2.5,-2.6 0.3,0.6 1.7,3.9 3,7.5 l 2.5,6.6 h -2.5 c -2.1,0 -2.6,-0.6 -3.1,-4 z"
       id="path321" />
    <path
       d="m 217,603 c 0,-1.3 0.7,-2 2,-2 1.3,0 2,0.7 2,2 0,1.3 -0.7,2 -2,2 -1.3,0 -2,-0.7 -2,-2 z"
       id="path323" />
    <path
       d="m 230.2,530.8 0.3,-71.3 3.9,-0.3 c 2.2,-0.2 5,-0.1 6.3,0.2 l 2.3,0.6 v 71 71 h -6.5 -6.5 z m 8.8,0.2 v -68 h -2.5 -2.5 v 68 68 h 2.5 2.5 z"
       id="path325" />
    <path
       d="m 386,597.4 c 0,-4.4 1.8,-4.2 3.7,0.4 1.3,3.1 1.2,3.2 -1.2,3.2 -2.2,0 -2.5,-0.4 -2.5,-3.6 z"
       id="path327" />
    <path
       d="m 383,589.4 c 0,-4.4 1.8,-4.2 3.7,0.4 1.3,3.1 1.2,3.2 -1.2,3.2 -2.2,0 -2.5,-0.4 -2.5,-3.6 z"
       id="path329" />
    <path
       d="m 378,576.4 c 0,-4.4 1.8,-4.2 3.7,0.4 1.3,3.1 1.2,3.2 -1.2,3.2 -2.2,0 -2.5,-0.4 -2.5,-3.6 z"
       id="path331" />
    <path
       d="m 375,568.4 c 0,-4.4 1.8,-4.2 3.7,0.4 1.3,3.1 1.2,3.2 -1.2,3.2 -2.2,0 -2.5,-0.4 -2.5,-3.6 z"
       id="path333" />
    <path
       d="m 372,561.5 c 0,-1.4 -0.4,-2.5 -1,-2.5 -0.5,0 -1,-1.6 -1,-3.5 0,-1.9 0.4,-3.5 0.9,-3.5 1.2,0 1.5,0.5 4,6.8 l 2.1,5.2 h -2.5 c -2,0 -2.5,-0.5 -2.5,-2.5 z"
       id="path335" />
    <path
       d="m 368,547.4 c 0,-4 1.3,-3.8 2.8,0.6 1,2.7 0.9,3 -0.9,3 -1.5,0 -1.9,-0.7 -1.9,-3.6 z"
       id="path337" />
    <path
       d="m 615,538 c 0,-1.6 -0.4,-3 -1,-3 -0.5,0 -1,-1.6 -1,-3.6 0,-5 2,-3.9 4.2,2.2 2.3,6.3 2.3,7.4 -0.2,7.4 -1.6,0 -2,-0.7 -2,-3 z"
       id="path339" />
    <path
       d="m 681,538.9 c 0,-2.9 2.5,-8.9 3.7,-8.9 1.4,0 1.7,3.8 0.7,7.8 -0.6,2.2 -4.4,3.2 -4.4,1.1 z"
       id="path341" />
    <path
       d="m 685,525.8 c 0,-0.7 0.8,-3.5 1.8,-6.2 2.2,-6.1 4.2,-7.2 4.2,-2.2 0,2 -0.4,3.6 -1,3.6 -0.5,0 -1,1.4 -1,3 0,2.3 -0.4,3 -2,3 -1.1,0 -2,-0.6 -2,-1.2 z"
       id="path343" />
    <path
       d="m 609,521 c 0,-1.6 -0.4,-3 -1,-3 -0.5,0 -1,-1.6 -1,-3.6 0,-5.3 2.1,-3.8 4.7,3.4 l 2.2,6.2 h -2.5 c -2,0 -2.4,-0.5 -2.4,-3 z"
       id="path345" />
    <path
       d="m 691.8,505 c 1.7,-5.4 4.2,-6.8 4.2,-2.2 0,5 -1.1,7.2 -3.5,7.2 h -2.3 z"
       id="path347" />
    <path
       d="m 401.4,495.4 c -1.2,-3.2 -3.1,-8.3 -4.3,-11.1 L 395,479 h 2.5 c 2,0 2.5,0.5 2.5,2.5 0,1.4 0.5,2.5 1,2.5 0.6,0 1,1.1 1,2.4 0,1.3 0.5,2.6 1.1,2.8 0.6,0.2 0.9,2.7 0.7,6.2 l -0.3,5.9 z"
       id="path349" />
    <path
       d="m 600.6,497.8 c -1.9,-7.3 1.1,-11 3.2,-3.9 1.6,5.2 1.5,6.1 -0.7,6.1 -1.1,0 -2.1,-0.9 -2.5,-2.2 z"
       id="path351" />
    <path
       d="m 695,496 c 0,-3.2 4.6,-15 5.8,-15 1.1,0 1.3,1 0.9,4.7 -0.3,2.6 -1,4.9 -1.6,5.1 -0.6,0.2 -1.1,1.7 -1.1,3.3 0,2.2 -0.5,2.9 -2,2.9 -1.1,0 -2,-0.4 -2,-1 z"
       id="path353" />
    <path
       d="m 594,474.5 c 0,-2.2 0.5,-3.5 1.3,-3.5 0.8,0 1.8,1.6 2.4,3.5 1.1,3.3 1,3.5 -1.3,3.5 -2.1,0 -2.4,-0.5 -2.4,-3.5 z"
       id="path355" />
    <path
       d="m 645.7,462.6 c -4.3,-15.2 -4.3,-15.6 -1.9,-15.6 3.4,0 9.3,25.3 6.5,28.1 -0.4,0.4 -2.5,-5.1 -4.6,-12.5 z"
       id="path357" />
    <path
       d="m 392.6,472.2 c -0.2,-0.4 -1.4,-3.1 -2.5,-6 L 388,461 h 2.5 c 2,0 2.5,0.5 2.5,2.5 0,1.4 0.5,2.5 1,2.5 0.6,0 1,1.6 1,3.5 0,3.2 -1.2,4.6 -2.4,2.7 z"
       id="path359" />
    <path
       d="m 703,470.9 c 0,-2.9 2.5,-8.9 3.7,-8.9 1.4,0 1.7,3.8 0.7,7.8 -0.6,2.2 -4.4,3.2 -4.4,1.1 z"
       id="path361" />
    <path
       d="m 590.2,464.1 c -0.7,-2.1 -1.2,-5 -1.2,-6.5 0,-4.5 2.5,-2.9 4.3,2.7 2.1,6.8 2.1,7.7 -0.1,7.7 -1.3,0 -2.2,-1.2 -3,-3.9 z"
       id="path363" />
    <path
       d="m 651,459.5 c 0,-1.9 0.5,-3.5 1,-3.5 0.6,0 1,-1.1 1,-2.4 0,-5.2 1.2,-8.6 3.1,-8.6 2.4,0 2.4,0.5 -0.3,10.1 -2.3,8.5 -4.8,10.7 -4.8,4.4 z"
       id="path365" />
    <path
       d="m 386.4,456.5 c -0.8,-2 -2.3,-5.8 -3.4,-8.5 l -2,-5 h 2.5 c 2,0 2.5,0.5 2.5,2.5 0,1.4 0.5,2.5 1,2.5 0.6,0 1,1.1 1,2.5 0,1.4 0.5,2.5 1,2.5 0.6,0 1,1.6 1,3.5 0,4.5 -1.7,4.5 -3.6,0 z"
       id="path367" />
    <path
       d="m 709,451.8 c 0,-0.6 1,-4.2 2.2,-8 2.4,-7.4 4.8,-9.1 4.8,-3.3 0,1.9 -0.4,3.5 -1,3.5 -0.5,0 -1,1 -1,2.3 0,4.2 -1.2,6.7 -3.1,6.7 -1.1,0 -1.9,-0.5 -1.9,-1.2 z"
       id="path369" />
    <path
       d="M 531,421.5 V 391 H 462.5 394 v 23.5 23.5 h -3.4 c -3.4,0 -3.4,-0.1 -7.1,-9.7 -2.1,-5.4 -6.2,-15.9 -9,-23.3 l -5.2,-13.5 -30.6,-0.3 -30.6,-0.2 -0.3,4.2 c -0.3,4 -0.5,4.3 -3.5,4.6 -3.6,0.4 -4.1,1.5 -1.8,3.8 0.8,0.9 1.5,2.9 1.5,4.5 0,1.6 0.5,2.9 1,2.9 0.6,0 1,1.6 1,3.5 0,4.6 -2.6,4.7 -3.5,0.3 -2,-9.3 -9.6,-17.4 -18.7,-19.8 -2.4,-0.7 -21.2,-1 -51.6,-0.8 l -47.8,0.3 -4.9,2.6 c -2.9,1.4 -6.3,4.3 -8,6.6 -3.3,4.5 -4.5,5.2 -4.5,2.6 0,-1.5 -0.2,-1.4 -1.5,0.3 -1.9,2.5 -1.9,3.4 0,3.4 1.8,0 1.8,0.4 0.4,7 -0.7,3.4 -1.6,5 -2.6,5 -1.3,0 -1.5,-1 -1,-5.7 l 0.6,-5.8 -1.6,3.5 c -0.8,1.9 -2,6.1 -2.7,9.3 -0.8,4.4 -1.5,5.7 -2.8,5.7 -2,0 -2.4,-3.9 -0.9,-10.2 0.5,-2.1 0.5,-3.8 0.1,-3.8 -1.5,0 -1.8,-5.6 -0.4,-8.8 4.6,-11.2 19,-20.6 35.4,-23.2 9,-1.4 87.1,-1.3 96.3,0.1 5.2,0.8 7.2,0.8 7.5,0 0.3,-0.8 34.6,-1.1 125.3,-1.1 H 544 v 8.4 c 0,4.9 -0.5,9.4 -1.3,10.7 -3.7,6.9 -5.7,8.6 -5.7,4.9 0,-1.1 -0.4,-2 -1,-2 -0.6,0 -1,7.9 -1,21.8 0,22.8 -0.4,26.2 -2.6,26.2 -1.2,0 -1.4,-5.2 -1.4,-30.5 z m -141,-3.6 c 0,-7.7 -0.4,-11.8 -1,-11.4 -0.5,0.3 -1,-0.1 -1,-0.9 0,-2 -1.6,-2.1 -2.4,-0.1 -0.7,1.8 -4.2,2 -5,0.3 -0.3,-0.7 -0.3,-0.2 0,1.2 0.9,3.6 8.5,23 9,23 0.2,0 0.4,-5.4 0.4,-12.1 z M 279,392 c 0,-0.7 -15.3,-1 -43.9,-1 -28.3,0 -44.2,0.4 -44.6,1 -0.4,0.7 14.5,1 43.9,1 29.1,0 44.6,-0.3 44.6,-1 z"
       id="path371" />
    <path
       d="m 584.6,446.8 c -1.9,-7.3 1.1,-11 3.2,-3.9 1.6,5.2 1.5,6.1 -0.7,6.1 -1.1,0 -2.1,-0.9 -2.5,-2.2 z"
       id="path373" />
    <path
       d="m 638.2,435.1 c -2.7,-9.5 -2.7,-10.1 -0.4,-10.1 1.3,0 2.2,1.6 3.5,6.4 2.1,7.8 2.2,11.6 0.4,11.6 -0.9,0 -2.2,-3 -3.5,-7.9 z"
       id="path375" />
    <path
       d="m 378.6,436.1 c -0.4,-0.5 -2.7,-6.2 -5.2,-12.8 -2.5,-6.5 -5,-12.8 -5.5,-14 -0.7,-2 -0.5,-2.3 1.6,-2.3 2,0 2.5,0.5 2.5,2.5 0,1.4 0.5,2.5 1,2.5 0.6,0 1,1.1 1,2.5 0,1.4 0.4,2.5 1,2.5 0.5,0 1.3,1.8 1.6,4 0.4,2.2 1,4 1.5,4 0.5,0 0.9,1.1 0.9,2.5 0,1.4 0.5,2.5 1,2.5 0.6,0 1,1.6 1,3.5 0,3.3 -1.2,4.6 -2.4,2.6 z"
       id="path377" />
    <path
       d="m 659.3,428.8 c 0.4,-2.8 1,-5.4 1.5,-5.7 0.5,-0.3 1.2,-2.8 1.6,-5.6 0.3,-2.7 1.1,-5.1 1.6,-5.3 0.6,-0.2 1,-1.5 1,-2.8 0,-1.4 0.5,-4.5 1.1,-7 0.8,-3.2 1.6,-4.4 3,-4.4 1.1,0 1.9,0.3 1.9,0.8 0,0.4 -2.1,8.5 -4.7,18 -3.3,12.2 -5.1,17.2 -6.1,17.2 -1.2,0 -1.4,-1 -0.9,-5.2 z"
       id="path379" />
    <path
       d="m 715,432.8 c 0,-0.6 1,-4.2 2.2,-8 2.4,-7.4 4.8,-9.1 4.8,-3.3 0,1.9 -0.4,3.5 -1,3.5 -0.5,0 -1,1 -1,2.3 0,4.2 -1.2,6.7 -3.1,6.7 -1.1,0 -1.9,-0.5 -1.9,-1.2 z"
       id="path381" />
    <path
       d="m 578.6,427.8 c -1.9,-7.3 1.1,-11 3.2,-3.9 1.6,5.2 1.5,6.1 -0.7,6.1 -1.1,0 -2.1,-0.9 -2.5,-2.2 z"
       id="path383" />
    <path
       fill="url(#lg0)"
       d="m 180.5,419.9 c -1.1,-0.4 -1.6,-0.8 -1,-0.8 0.5,-0.1 -0.1,-0.8 -1.3,-1.7 -1.2,-0.8 -2.2,-2.5 -2.3,-3.7 0,-2.1 -0.1,-2.1 -1,-0.2 -0.7,1.6 -0.8,1.2 -0.4,-1.4 0.3,-1.8 0.5,-3.8 0.5,-4.3 0,-0.5 0.4,-0.6 1,-0.3 0.5,0.3 0.7,0 0.5,-0.8 -0.8,-1.8 2.9,-6.3 6.8,-8.5 2.9,-1.5 7.5,-1.7 49.7,-1.7 25.6,0 47.7,0.3 49.2,0.8 3,0.8 9,6.1 10.6,9.3 0.8,1.5 0.7,3.2 -0.1,6.2 -1.6,5.4 -2,5.6 -7.6,5.7 -2.7,0 -5.6,0.7 -6.5,1.4 -1.3,1.1 -1.6,1.1 -1.6,0 0,-1 -0.2,-1.1 -0.8,-0.2 -0.8,1.2 -14.3,1.3 -15.3,0.1 -0.9,-1.3 -69.4,-1.2 -75.2,0.1 -1.8,0.5 -4.1,0.4 -5.2,0 z"
       id="path385"
       style="fill:url(#linearGradient1418)" />
    <path
       fill="url(#lg0)"
       d="m 341.6,420.1 c -0.4,-0.5 -3.1,-0.7 -6,-0.5 -5.2,0.5 -5.5,0.3 -6.8,-2.3 -0.8,-1.5 -2,-2.7 -2.6,-2.5 -0.9,0.1 -1.2,-2.5 -1.2,-9.3 V 396 h 15.4 c 8.5,0 15.7,0.4 16,0.9 0.3,0.4 1.9,4.5 3.5,8.9 2.6,6.8 2.7,8 1.3,7.5 -1.4,-0.6 -1.5,-0.4 -0.4,0.9 1,1.3 0.8,1.8 -1.4,3.3 -1.5,1 -4.8,1.9 -7.4,2 -2.6,0.1 -5.2,0.5 -5.9,0.9 -0.6,0.4 -1.1,0.2 -1.1,-0.5 0,-0.9 -0.3,-0.9 -1.4,0 -0.9,0.8 -1.6,0.8 -2,0.2 z"
       id="path387"
       style="fill:url(#linearGradient1420)" />
    <path
       fill="url(#lg0)"
       d="m 440.7,419.4 c -0.4,-0.4 -3.7,-0.9 -7.4,-1.1 -6.1,-0.3 -12.7,-0.8 -16,-1.2 -0.7,0 -1.3,-0.8 -1.3,-1.6 0,-2.1 -1.8,-1.9 -2.3,0.3 -0.3,0.9 -0.5,-3.1 -0.6,-9 L 413,396 h 17 17 v 4.4 c 0,8.5 -4.2,21.1 -6.3,19 z"
       id="path389"
       style="fill:url(#linearGradient1422)" />
    <path
       fill="url(#lg0)"
       d="m 596,418.6 c -0.7,-0.9 -1.6,-1.3 -2.1,-1 -0.5,0.3 -0.9,-0.3 -0.9,-1.3 0,-1.4 -0.2,-1.5 -0.9,-0.5 -0.6,1.1 -1,1 -1.6,-0.5 -0.9,-2.3 -6.5,-18.6 -6.5,-19 0,-0.2 8.2,-0.2 18.3,-0.1 l 18.2,0.3 2.2,8.3 c 1.2,4.5 1.7,8 1.2,7.6 -0.5,-0.3 -0.9,1.1 -0.9,3 0,3.9 -1.4,5.4 -3.5,3.6 -0.9,-0.7 -3.4,-0.9 -7.2,-0.5 -3.2,0.4 -6.7,0.6 -7.8,0.5 -1.1,-0.1 -2.4,-0.1 -3,-0.2 -0.5,0 -1.7,0.3 -2.6,0.6 -0.9,0.4 -2.1,0 -2.9,-0.8 z"
       id="path391"
       style="fill:url(#linearGradient1424)" />
    <path
       fill="url(#lg0)"
       d="m 677,415.5 -2.1,-4.5 2.2,-7.5 2.2,-7.5 h 17.8 17.8 l -0.5,2.8 c -0.6,3.7 -5.1,15.5 -6.8,17.7 -2,2.7 -3,2.9 -15.9,2.2 -4.9,-0.3 -9,-0.1 -9.3,0.5 -0.3,0.5 -1.3,0.3 -2.2,-0.4 -1.2,-1 -1.4,-1 -0.8,0 0.4,0.6 0.5,1.2 0.2,1.2 -0.3,0 -1.5,-2 -2.6,-4.5 z"
       id="path393"
       style="fill:url(#linearGradient1426)" />
    <path
       fill="url(#lg0)"
       d="m 489,418.3 c -9.7,-0.7 -10.3,-1.5 -11.5,-15 l -0.6,-7.3 h 18 c 16.5,0 17.9,0.1 17.6,1.8 -0.2,0.9 -0.6,5.2 -0.9,9.6 -0.3,5.3 -0.9,8.4 -2,9.4 -1.2,1.2 -1.6,1.3 -1.6,0.3 0,-1 -0.3,-1.1 -1.3,-0.3 -1.5,1.3 -10.9,2 -17.7,1.5 z"
       id="path395"
       style="fill:url(#linearGradient1428)" />
    <path
       d="m 721,413.8 c 0,-2.9 3.5,-11.8 4.7,-11.8 1.6,0 1.7,4 0.1,9.1 -0.8,2.7 -1.7,3.9 -3,3.9 -1,0 -1.8,-0.5 -1.8,-1.2 z"
       id="path397" />
    <path
       d="m 630.1,405.8 c -2.6,-10 -2.6,-9.8 -0.1,-9.8 1.6,0 2,0.7 2,3.4 0,1.9 0.5,3.6 1,3.8 0.6,0.2 1.3,2.7 1.7,5.6 0.5,4.2 0.3,5.2 -0.9,5.2 -1,0 -2.2,-2.6 -3.7,-8.2 z"
       id="path399" />
    <path
       d="m 572.6,407.9 c -0.3,-1.7 -0.6,-4.9 -0.6,-7 0,-3.3 0.3,-3.9 2,-3.9 1.7,0 2,0.6 1.9,3.3 -0.1,1.7 0.2,4.9 0.6,7 0.6,3.3 0.5,3.7 -1.3,3.7 -1.4,0 -2.1,-0.9 -2.6,-3.1 z"
       id="path401" />
    <path
       d="m 364.6,400.1 c -0.3,-0.4 -1,-2 -1.5,-3.5 -1,-2.4 -0.8,-2.6 1.4,-2.6 2.2,0 2.5,0.4 2.5,3.5 0,3.3 -1.2,4.6 -2.4,2.6 z"
       id="path403" />
    <path
       d="m 331.3,393.3 c 5.4,-0.2 13.9,-0.2 19,0 5.1,0.1 0.7,0.3 -9.8,0.3 -10.4,0 -14.6,-0.2 -9.2,-0.3 z"
       id="path405" />
    <path
       d="m 419.8,393.3 c 5.6,-0.2 14.8,-0.2 20.5,0 5.6,0.1 1,0.3 -10.3,0.3 -11.3,0 -15.9,-0.2 -10.2,-0.3 z"
       id="path407" />
    <path
       d="m 484.3,393.3 c 5.9,-0.2 15.5,-0.2 21.5,0 5.9,0.1 1,0.3 -10.8,0.3 -11.8,0 -16.7,-0.2 -10.7,-0.3 z"
       id="path409" />
    <path
       d="m 591.3,393.3 c 5.9,-0.2 15.5,-0.2 21.5,0 5.9,0.1 1,0.3 -10.8,0.3 -11.8,0 -16.7,-0.2 -10.7,-0.3 z"
       id="path411" />
    <path
       d="m 686.3,393.3 c 5.9,-0.2 15.5,-0.2 21.5,0 5.9,0.1 1,0.3 -10.8,0.3 -11.8,0 -16.7,-0.2 -10.7,-0.3 z"
       id="path413" />
    <path
       d="m 6,291.8 c 0,-17.7 1.2,-28.6 4.2,-38.3 0.6,-2.2 1.1,-4.3 1,-4.7 -0.1,-0.5 0.5,-0.8 1.3,-0.8 0.8,0 1.5,-0.7 1.5,-1.6 0,-0.9 0.7,-2.2 1.6,-2.8 0.9,-0.7 2.3,-5.1 3.5,-11.1 3.7,-18.5 12.9,-65.8 31,-159 3.3,-17 7.3,-38.2 9,-47 C 62.9,6.1 63,6 64.6,6 66.7,6 66.4,9.9 63.1,26.7 61.5,34.8 58.7,48.9 57,58 55.3,67.1 53.1,78.8 52,84 51,89.2 49.2,98.2 48.1,104 45,120.6 30.3,197 24,229.8 c -2.3,11.7 -4,21.8 -3.7,22.5 0.2,0.6 0.9,-2.3 1.7,-6.6 1.1,-6.4 1.6,-7.7 3.1,-7.7 2.3,0 2.3,-0.3 -0.1,11.5 -2.5,12 -2.7,21.5 -0.5,21.5 0.8,0 1.5,0.5 1.5,1 0,0.6 -1.6,1 -3.6,1 h -3.7 l 0.6,-9.6 c 0.3,-5.3 0.4,-9.4 0.2,-9.2 -1.1,1.2 -3.5,19 -3.5,26.6 v 9.2 l 34.7,-0.2 34.6,-0.3 2.8,-17.5 c 1.6,-9.6 3.2,-19.7 3.6,-22.5 l 0.8,-5 7.3,-0.3 c 3.9,-0.2 7.2,-0.1 7.2,0.2 0,0.3 1.6,10.5 3.5,22.6 1.9,12.1 3.5,22.3 3.5,22.6 0,0.3 35,0.3 77.8,0.2 77.5,-0.4 77.7,-0.4 85.2,-2.7 10.9,-3.3 18.5,-7.7 26.6,-15.3 6,-5.7 7.7,-6.8 10.6,-6.8 2.8,0 3.7,0.5 4.7,2.8 3.9,8.7 11.7,15.7 21.8,19.4 5.5,2.1 7.6,2.2 47.7,2.6 47,0.4 52.1,-0.1 62.4,-5.4 3.6,-1.9 7.8,-3.4 9.3,-3.4 2.8,0 2.9,0.2 2.9,4.5 v 4.5 h 66 66 v -25.5 c 0,-21 0.2,-25.5 1.4,-25.5 1.7,0 2.6,3 2.6,9 0.1,4.4 0.1,4.4 1.5,2 0.8,-1.4 1.4,-3.5 1.5,-4.7 0,-1.3 0.5,-2.3 1,-2.3 0.6,0 1,-9.6 1,-26.7 0,-27.9 0.3,-31.3 2.6,-31.3 1.2,0 1.4,8.5 1.4,52.5 V 290 h 36.5 36.5 v -44.5 c 0,-37.2 0.2,-44.5 1.4,-44.5 2.2,0 2.6,3.3 2.7,25.5 0,11.6 0.3,20.5 0.5,19.9 0.3,-0.7 1.9,-1 3.9,-0.7 2.5,0.3 3.5,0.1 3.5,-0.9 0,-0.7 0.9,-0.2 2,1.2 l 2,2.5 v -3 c 0,-4.4 1.1,-7.5 2.5,-7.5 0.8,0 1.4,2.9 1.8,9.4 0.3,5.1 1.3,11.8 2.3,14.8 3.7,11.9 13.2,21.5 25.1,25.4 5.3,1.7 9.2,1.9 48.8,1.9 42.2,0 43.1,0 49.5,-2.3 12,-4.2 19.9,-12 24.3,-24 1.6,-4.5 2.1,-8.8 2.5,-19.9 0.3,-10.7 0.7,-14.3 1.7,-14.3 1.6,0 2.5,3.2 2.6,10 0,3 0.3,4.8 0.7,4 1,-2.2 3.4,-1.9 4.3,0.5 1.3,3.3 0.9,18.6 -0.6,25 -2.3,10.4 -3.4,13.2 -7.6,19.4 -5,7.4 -11.2,13 -18.5,16.6 -10.6,5.2 -13.3,5.4 -62.4,5.5 -42,0 -46.1,-0.1 -52.5,-1.9 -9.4,-2.6 -15.7,-6.3 -22.7,-13.3 L 693,289 V 299.5 310 H 571.1 c -76.6,0 -122.1,-0.4 -122.3,-1 -0.2,-0.6 -1.8,-0.6 -4.3,0 -2.2,0.5 -25.4,1 -51.5,1 -44,0 -48.1,-0.1 -54.5,-1.9 -8.5,-2.4 -15,-5.9 -21.2,-11.5 l -4.7,-4.3 -4.5,3.5 c -5.3,4.1 -16.4,9.4 -24.8,11.9 -5.3,1.6 -13.4,1.8 -92.1,2.1 -69.3,0.2 -86.3,0 -86.6,-1 -0.2,-0.7 -0.8,-2.2 -1.2,-3.3 -0.7,-1.7 -0.9,-1.5 -1.2,1.3 l -0.3,3.2 H 53.9 6 Z"
       id="path415" />
    <path
       d="m 114.7,262.8 c -2.1,-13.6 -2.1,-14.8 -0.3,-14.8 1.6,0 2,1.3 3.7,13.4 1,7.1 1.6,9 3.1,9.4 3.2,0.8 2.1,3.2 -1.5,3.2 h -3.4 z"
       id="path417" />
    <path
       d="m 264,272.6 c 0,-0.8 1.9,-1.8 4.4,-2.5 6,-1.5 6.6,-1.4 6.6,0.8 0,1.3 -1,2 -3.1,2.5 -5.1,1 -7.9,0.7 -7.9,-0.8 z"
       id="path419" />
    <path
       d="m 435,272.7 c 0,-0.8 2.3,-2 5.5,-2.9 5.5,-1.5 5.5,-1.5 5.5,0.7 0,1.7 -0.7,2.4 -3.1,2.9 -5,1 -7.9,0.7 -7.9,-0.7 z"
       id="path421" />
    <path
       d="m 582,272.5 c 0,-0.8 0.7,-1.5 1.5,-1.5 1.3,0 1.5,-3.3 1.5,-24 0,-20.7 -0.2,-24 -1.5,-24 -0.8,0 -1.5,-0.7 -1.5,-1.5 0,-1.3 -3.2,-1.5 -23,-1.5 h -23 v -81.5 c 0,-68.7 0.2,-81.5 1.4,-81.5 0.7,0 1.6,1 2,2.3 0.3,1.2 0.6,37 0.6,79.5 V 216 h 29 c 28.3,0 29,0 29,2 0,1.7 -0.7,2 -4.5,2 H 589 v 27 27 h -3.5 c -2.4,0 -3.5,-0.5 -3.5,-1.5 z"
       id="path423" />
    <path
       d="m 733,272 c 0,-2.1 1,-2.4 4.8,-1.4 3.6,1 2.7,3.4 -1.3,3.4 -2.8,0 -3.5,-0.4 -3.5,-2 z"
       id="path425" />
    <path
       d="m 822,272.6 c 0,-1.3 2.8,-2.6 5.8,-2.6 0.6,0 1.2,0.9 1.2,2 0,1.6 -0.7,2 -3.5,2 -2.3,0 -3.5,-0.5 -3.5,-1.4 z"
       id="path427" />
    <path
       d="m 337.8,272.3 c -1.1,-0.3 -1.8,-1.4 -1.8,-2.8 v -2.3 l 5,1.6 c 5.7,1.8 6.8,4.3 1.8,4.1 -1.8,-0.1 -4.1,-0.3 -5,-0.6 z"
       id="path429" />
    <path
       d="m 278,269.1 c 0,-0.6 3,-2.4 6.6,-4.2 12.3,-6.1 22.2,-18.7 25.4,-32.6 0.8,-3.6 1.7,-5.3 2.7,-5.3 1.3,0 1.5,0.9 1,5.2 -0.4,2.9 -1.1,5.4 -1.7,5.6 -0.5,0.2 -1,1.7 -1,3.3 0,1.9 -0.5,2.9 -1.5,2.9 -1,0 -1.5,1 -1.5,3 0,2.5 -0.4,3 -2.5,3 -2.2,0 -2.5,0.4 -2.5,3.5 0,3.1 -0.3,3.5 -2.5,3.5 -2,0 -2.5,0.5 -2.5,2.5 0,2.2 -0.4,2.5 -3.5,2.5 -3.1,0 -3.5,0.3 -3.5,2.5 0,2.1 -0.5,2.5 -3,2.5 -2,0 -3,0.5 -3,1.5 0,1 -1.1,1.5 -3.5,1.5 -1.9,0 -3.5,-0.4 -3.5,-0.9 z"
       id="path431" />
    <path
       d="m 723,267 v -3 l 3.5,2.2 c 4.4,2.9 4.4,3.8 0,3.8 -3.2,0 -3.5,-0.2 -3.5,-3 z"
       id="path433" />
    <path
       d="m 832,269.3 c 0,-0.5 1.6,-1.8 3.5,-3.1 L 839,264 v 3 c 0,2.8 -0.3,3 -3.5,3 -1.9,0 -3.5,-0.3 -3.5,-0.7 z"
       id="path435" />
    <path
       d="m 447,268.2 c 0,-0.4 1.4,-1.6 3.1,-2.6 4,-2.3 8.4,-9.4 9.9,-15.7 1.3,-5.4 4,-6.9 4,-2.1 0,3.9 -2.9,13.2 -4,13.2 -0.6,0 -1,0.7 -1,1.5 0,0.9 -0.9,1.5 -2.5,1.5 -2,0 -2.5,0.5 -2.5,2.5 0,2.2 -0.4,2.5 -3.5,2.5 -1.9,0 -3.5,-0.4 -3.5,-0.8 z"
       id="path437" />
    <path
       d="m 74,265.6 c 0,-0.1 1.3,-8.8 3,-19.2 1.6,-10.4 3,-19.5 3,-20.1 0,-0.7 1,-1.3 2.1,-1.3 1.8,0 2,0.4 1.6,2.8 -0.3,1.5 -1.8,10.7 -3.3,20.5 -2.4,15.5 -3,17.7 -4.6,17.7 -1,0 -1.8,-0.2 -1.8,-0.4 z"
       id="path439" />
    <path
       d="m 325,261 c 0,-1.1 -0.4,-2 -1,-2 -0.5,0 -1,-1.6 -1,-3.5 0,-4.2 1.6,-4.6 3.2,-0.7 0.7,1.5 2,3.9 3.1,5.5 l 1.8,2.7 h -3 c -2.4,0 -3.1,-0.4 -3.1,-2 z"
       id="path441" />
    <path
       d="m 169.6,259.3 c -1.9,-9.8 -1.9,-10.3 0.2,-10.3 1.5,0 2.1,0.9 2.6,4.6 0.3,2.6 0.6,5.5 0.6,6.5 0,2.9 -2.8,2.2 -3.4,-0.8 z"
       id="path443" />
    <path
       d="m 617,229.5 c 0,-28.8 0,-29.5 2,-29.5 2,0 2,0.7 2,29.5 0,28.8 0,29.5 -2,29.5 -2,0 -2,-0.7 -2,-29.5 z"
       id="path445" />
    <path
       d="m 31,255.7 c 0,-0.7 0.9,-5.5 2,-10.7 1.7,-8.3 8.1,-41.3 14.1,-73 1.1,-5.8 2.9,-14.8 3.9,-20 1.1,-5.2 4.2,-21.4 7,-36 5.4,-28 16.2,-84.1 18.4,-95 l 1.3,-6.5 h 18.8 18.9 l 2.3,11.5 c 1.2,6.3 4.5,23.3 7.3,37.7 2.7,14.5 7.2,37.9 10,52 2.7,14.2 9.7,50.8 15.5,81.3 5.9,30.5 10.9,56.5 11.2,57.8 l 0.5,2.2 h -18 -18 l -0.7,-4.7 c -1,-7.7 -5.5,-35.5 -6.1,-38.5 L 118.8,211 H 96.2 73.5 l -3.5,22.8 -3.5,22.7 -17.8,0.3 C 34.6,257 31,256.8 31,255.7 Z m 82.6,-78.4 C 113.3,175.7 111.7,166 110,155.5 97.7,78.2 96.4,71.2 95.7,74.5 94.5,79.8 79,176.1 79,178.1 c 0,1.8 0.9,1.9 17.6,1.9 h 17.6 z"
       id="path447" />
    <path
       d="m 88,176.8 c 0,-3 1.3,-5.8 2.6,-5.8 0.9,0 1.4,1.1 1.4,3 0,2.9 0.2,3 4.6,3 3.8,0 4.5,-0.3 4,-1.7 -0.2,-1 -1.3,-7.1 -2.2,-13.6 -1.9,-12.5 -2.7,-12.8 -4,-1.8 -0.5,5 -1,6.1 -2.5,6.1 -2.3,0 -2.3,-0.3 -0.4,-11 0.8,-4.7 1.5,-8.6 1.5,-8.7 0,-0.2 0.7,-0.3 1.6,-0.3 1.2,0 1.3,-0.5 0.7,-2.2 -0.9,-2.7 -0.6,-12.5 0.5,-14.4 0.5,-0.8 2.5,8.9 4.6,22.3 2.1,13.1 4.1,24.4 4.3,25.1 0.4,0.9 -1.6,1.2 -8.1,1.2 -6.2,0 -8.6,-0.3 -8.6,-1.2 z"
       id="path449" />
    <path
       d="M 183,136 V 15 h 41.9 c 38.3,0 42.5,0.2 48,1.9 15,4.7 25.7,15.7 29,30.1 0.7,2.9 1.1,35.1 1.1,89.8 0,83.2 -0.1,85.4 -2,91.3 -5.2,15.4 -16.4,24.7 -33.4,28 -2.7,0.5 -22.8,0.9 -44.7,0.9 H 183 Z m 73.5,88.1 c 4.6,-2.1 7.9,-5.4 9.4,-9.4 0.8,-1.9 1.1,-27.5 1.1,-79.1 V 59.4 L 264.8,55 C 263.1,51.7 261.3,49.9 258,48.3 253.9,46.2 252.2,46 236.3,46 H 219 v 90 90 h 16.8 c 14.1,0 17.3,-0.3 20.7,-1.9 z"
       id="path451" />
    <path
       d="m 236.8,223.3 c 5.6,-0.2 10.2,-0.8 10.2,-1.3 0,-0.6 -1.6,-1 -3.5,-1 -3.3,0 -3.5,-0.2 -3.5,-3.5 0,-2.4 0.5,-3.5 1.5,-3.5 0.8,0 1.5,0.7 1.5,1.6 0,0.9 0.9,1.8 2,2.1 1.1,0.3 2,0.9 2,1.4 0,1.5 4.8,1 5.4,-0.6 0.3,-0.8 1.7,-1.5 3.1,-1.5 2.8,0 2.9,0.3 1.5,3 -1.6,3 -6.6,4 -18.9,3.8 l -11.6,-0.2 z"
       id="path453" />
    <path
       d="M 240,81.5 V 78 h 5 5 v 3.5 c 0,2.4 -0.5,3.5 -1.5,3.5 -0.8,0 -1.5,-0.7 -1.5,-1.5 0,-0.8 -0.9,-1.5 -2,-1.5 -1.1,0 -2,0.7 -2,1.5 0,0.8 -0.7,1.5 -1.5,1.5 -1,0 -1.5,-1.1 -1.5,-3.5 z"
       id="path455" />
    <path
       d="m 253,63.5 c 0,-2.9 1.2,-3.2 3.4,-0.9 2.3,2.2 2,3.4 -0.9,3.4 -2,0 -2.5,-0.5 -2.5,-2.5 z"
       id="path457" />
    <path
       d="m 227.2,61.3 c 0.3,-1.5 1.7,-1.8 8.8,-2.1 10.3,-0.4 15,0.4 15,2.3 0,1.2 -2.2,1.5 -12.1,1.5 -10.9,0 -12,-0.2 -11.7,-1.7 z"
       id="path459" />
    <path
       d="m 344.1,255.7 c -4.6,-1.5 -9.8,-6.8 -11,-11.4 -0.7,-2.6 -1.1,-41.1 -1.1,-116.5 V 15 h 18 18 V 120.5 226 H 392.5 417 V 120.5 15 h 18 18 l -0.2,114.3 -0.3,114.2 -2.4,4.1 c -1.3,2.4 -4.1,5.2 -6.5,6.5 l -4.1,2.4 -46,0.2 c -31.3,0.1 -47.1,-0.2 -49.4,-1 z"
       id="path461" />
    <path
       d="m 482.6,141.7 c -0.5,-63.5 -0.5,-117.9 -0.1,-121 l 0.7,-5.7 h 17.4 17.4 l 0.2,104.8 0.3,104.7 29.1,0.3 29.1,0.2 0.7,5.3 c 0.3,2.8 0.6,10 0.6,16 V 257 h -47.4 -47.3 z"
       id="path463" />
    <path
       d="M 629,152 V 47 H 609 589 V 31 15 h 57.5 57.5 v 16 16 h -19.4 -19.3 l -0.7,3.8 c -0.3,2 -0.6,49.3 -0.6,105 V 257 H 646.5 629 Z"
       id="path465" />
    <path
       d="m 713,253.5 c 0,-2.2 0.5,-3.5 1.3,-3.5 0.8,0 1.8,1.6 2.4,3.5 1.1,3.3 1,3.5 -1.3,3.5 -2.1,0 -2.4,-0.5 -2.4,-3.5 z"
       id="path467" />
    <path
       d="m 735.8,256 c -4.6,-1.4 -9,-5.1 -10.9,-9.4 -1.7,-3.7 -1.9,-7.1 -1.9,-36.9 V 177 l 17.8,0.2 17.7,0.3 0.3,24.8 0.2,24.7 h 22 22 V 202.8 178.5 L 789.2,165.6 C 732.8,112.4 727.7,107.4 725.4,102.8 723,98.1 723,98 723,63.8 c 0,-31.1 0.2,-34.7 1.9,-38.3 2.2,-4.8 4.4,-6.9 9.4,-9 3.1,-1.3 10.2,-1.5 47,-1.5 46.6,0 47.6,0.1 52.4,5.2 5,5.3 5.3,7.6 5.3,40.3 V 91 L 821.3,90.8 803.5,90.5 803.2,67.8 803,45 h -22 -22 v 22.3 l 0.1,22.2 33,31 c 39.3,36.9 44.1,41.7 45.7,47.2 0.8,2.8 1.2,14.5 1.2,39.4 0,40.5 -0.2,41.3 -8.1,46.6 l -4.3,2.8 -44,0.2 c -24.3,0.1 -45.3,-0.2 -46.8,-0.7 z"
       id="path469" />
    <path
       d="m 845.8,252 c 1.7,-5.4 4.2,-6.8 4.2,-2.2 0,5 -1.1,7.2 -3.5,7.2 h -2.3 z"
       id="path471" />
    <path
       d="m 166.1,241 c -1.4,-6.7 -1.4,-7 0.8,-7 1.8,0 3.1,3.9 3.1,9.8 0,4.4 -2.8,2.3 -3.9,-2.8 z"
       id="path473" />
    <path
       d="m 711,209 v -36 h 3.5 c 1.9,0 3.5,0.5 3.5,1 0,0.6 -0.7,1 -1.5,1 -1.3,0 -1.5,4.6 -1.5,35 0,34.3 0,35 -2,35 -2,0 -2,-0.7 -2,-36 z"
       id="path475" />
    <path
       d="m 110,233.9 c -0.6,-4.5 -0.9,-8.3 -0.6,-8.6 1.5,-1.5 3.4,1 3.9,5.4 0.3,2.6 0.9,6.3 1.3,8.1 0.6,2.8 0.4,3.2 -1.4,3.2 -1.7,0 -2.1,-1 -3.2,-8.1 z"
       id="path477" />
    <path
       d="m 26,226.8 c 0,-1.2 0.8,-6.1 1.7,-11 1.4,-7.2 2,-8.8 3.5,-8.8 2.2,0 2.2,-0.3 -0.2,11.5 -1.1,5.3 -2,9.9 -2,10.1 0,0.2 -0.7,0.4 -1.5,0.4 -0.9,0 -1.5,-0.9 -1.5,-2.2 z"
       id="path479" />
    <path
       d="m 162.1,220 c -1.4,-6.7 -1.4,-7 0.8,-7 1.8,0 3.1,3.9 3.1,9.8 0,4.4 -2.8,2.3 -3.9,-2.8 z"
       id="path481" />
    <path
       d="m 773.8,224.3 c 3.9,-0.2 10.5,-0.2 14.5,0 3.9,0.1 0.7,0.3 -7.3,0.3 -8,0 -11.2,-0.2 -7.2,-0.3 z"
       id="path483" />
    <path
       d="m 384.3,223.3 c 4.8,-0.2 12.5,-0.2 17,0 4.5,0.1 0.6,0.3 -8.8,0.3 -9.3,0 -13,-0.2 -8.2,-0.3 z"
       id="path485" />
    <path
       d="M 526.7,222.3 C 526.3,222 526,174.7 526,117.3 V 13 h -26 c -22.4,0 -26,0.2 -26,1.5 0,0.8 -0.4,1.5 -1,1.5 -0.5,0 -1,-0.8 -1,-1.9 0,-1 -0.3,-3.3 -0.6,-5 L 470.8,6 h 34.1 c 33.4,0 34.1,0 34.1,2 0,1.7 -0.7,2 -4.5,2 H 530 v 106 106 l 25.3,0.3 25.2,0.2 -26.6,0.3 c -14.6,0.1 -26.9,-0.1 -27.2,-0.5 z"
       id="path487" />
    <path
       d="m 311,220.8 c 0,-3 1.3,-5.8 2.6,-5.8 0.9,0 1.4,1.2 1.4,3.5 0,2.8 -0.4,3.5 -2,3.5 -1.1,0 -2,-0.6 -2,-1.2 z"
       id="path489" />
    <path
       d="M 774,210.5 V 199 h 3.5 3.5 v 11.5 11.5 h -3.5 -3.5 z"
       id="path491" />
    <path
       d="m 387,155.5 c 0,-55.1 0.2,-65.5 1.4,-65.5 0.7,0 1.6,1 2,2.2 0.3,1.3 0.6,30.1 0.6,64.1 0,54.2 0.2,61.7 1.5,61.7 0.8,0 1.5,0.7 1.5,1.5 0,1 -1.1,1.5 -3.5,1.5 H 387 Z"
       id="path493" />
    <path
       d="m 160,209.6 c 0,-0.2 -1.3,-7.5 -3,-16.1 -3.5,-18.5 -3.5,-17.5 -1.2,-17.5 1.4,0 2.2,2.4 4.5,14.8 3.1,17 3.3,19.2 1.2,19.2 -0.8,0 -1.5,-0.2 -1.5,-0.4 z"
       id="path495" />
    <path
       d="m 31,201.8 c 0,-1.3 1.7,-11.2 3.7,-22 3.2,-16.7 4.1,-19.8 5.6,-19.8 0.9,0 1.7,0.4 1.7,1 0,0.5 -1.8,10.2 -4,21.5 -2.2,11.3 -4,20.8 -4,21 0,0.3 -0.7,0.5 -1.5,0.5 -0.9,0 -1.5,-0.9 -1.5,-2.2 z"
       id="path497" />
    <path
       d="m 852.7,182.9 c -0.3,-2.2 -2.2,-7.5 -4.3,-11.7 -3,-6.1 -5.1,-8.8 -10.2,-13.2 -3.6,-3 -10.1,-8.9 -14.6,-13.1 -9.9,-9.3 -23.6,-22.7 -18.6,-18.1 2,1.7 3.9,3.2 4.3,3.2 0.4,0 0.7,-1.6 0.7,-3.5 V 123 h 23.5 c 22.8,0 23.5,0.1 23.5,2 0,1.9 -0.7,2 -21.5,2 -11.8,0 -21.5,0.2 -21.5,0.4 0,0.2 3.3,3.6 7.3,7.5 l 7.2,7.1 h -3.4 c -3.4,0 -3.4,0 -1.5,2.1 1.4,1.6 2.7,2 5.4,1.6 3.3,-0.4 4.1,0.2 11.6,7.7 8.2,8.2 12.3,14.6 15,23.5 2,6.6 1.8,10.1 -0.5,10.1 -1.4,0 -2,-1 -2.4,-4.1 z"
       id="path499" />
    <path
       d="m 777.1,177.6 c -0.7,-0.8 -1.1,-2.7 -0.9,-4.2 l 0.3,-2.6 4.5,4 4.5,4.1 -3.6,0.1 c -2,0 -4.2,-0.6 -4.8,-1.4 z"
       id="path501" />
    <path
       d="m 730.3,174.3 c 5.9,-0.2 15.4,-0.2 21,0 5.6,0.1 0.8,0.3 -10.8,0.3 -11.5,0 -16.1,-0.2 -10.2,-0.3 z"
       id="path503" />
    <path
       d="m 153,172.7 c 0,-0.2 -1.1,-6.1 -2.5,-13.1 -3,-15.2 -2.9,-14.6 -0.7,-14.6 1.5,0 2.1,2 4,12.3 2.6,14.3 2.7,15.7 0.7,15.7 -0.8,0 -1.5,-0.1 -1.5,-0.3 z"
       id="path505" />
    <path
       d="m 737.5,170 c -0.4,-0.6 0.6,-1 2.1,-1 h 2.8 l -3,-3.1 -2.9,-3 4,0.3 c 3.8,0.3 4,0.5 4.3,4.1 0.3,3.6 0.3,3.7 -3.2,3.7 -1.9,0 -3.8,-0.4 -4.1,-1 z"
       id="path507" />
    <path
       d="m 758.1,159.6 c -0.7,-0.8 -1.1,-2.7 -0.9,-4.2 l 0.3,-2.6 4.5,4 4.5,4.1 -3.6,0.1 c -2,0 -4.2,-0.6 -4.8,-1.4 z"
       id="path509" />
    <path
       d="m 720.6,148 c -15.7,-15.2 -20.5,-22.9 -22.3,-35.7 -0.5,-3.9 -0.4,-4.3 1.6,-4.3 1.5,0 2.1,0.6 2.1,2.3 0,3.1 4,14.9 5.7,16.5 0.7,0.7 1.3,1.8 1.3,2.4 0,0.5 1.1,1.9 2.5,3 1.4,1.1 2.5,2.8 2.5,3.9 0,1.2 0.7,1.9 1.8,1.9 0.9,0 5.3,3.5 9.6,7.9 6.6,6.6 7.7,8.2 7.4,10.7 -0.3,2.8 -0.7,2.6 -12.2,-8.6 z"
       id="path511" />
    <path
       d="m 40,154.8 c 0,-5.9 1.3,-9.8 3.1,-9.8 2.2,0 2.2,0.3 0.8,7 -1.1,5.1 -3.9,7.2 -3.9,2.8 z"
       id="path513" />
    <path
       d="m 159.5,145.8 c -0.3,-1.3 -3,-15.3 -6,-31.3 C 147.1,80.4 134.4,13.9 133.4,9.3 132.8,6.4 133,6 134.8,6 c 1.4,0 2.2,0.8 2.6,2.7 0.3,1.6 2.2,11.4 4.1,21.8 2,10.5 4.9,25.8 6.5,34 3.4,17.6 10.2,53 12.7,66.5 l 1.8,9.5 0.5,-67 0.5,-67 48.5,-0.3 c 26.7,-0.1 49.9,0 51.7,0.3 1.8,0.3 3.4,1.3 3.6,2.3 0.4,1.5 0.5,1.5 0.6,-0.2 0.1,-1.6 0.7,-1.7 4.8,-1.1 9.7,1.4 15.5,4.8 10.1,5.8 -2.1,0.4 -2.1,0.4 0.4,0.6 1.7,0 2.8,-0.5 3,-1.4 0.2,-1.3 1.5,-1 6.5,1.7 3.5,1.8 8.2,4.9 10.5,7 l 4.3,3.7 -3.8,0.1 c -2.5,0 -4,-0.5 -4.3,-1.5 -0.9,-2.3 -3.4,-1.8 -3.4,0.6 0,2.1 -0.1,2.1 -3.2,-0.3 -5,-3.8 -12.8,-7.5 -19.5,-9.2 -8.9,-2.3 -98.3,-2.4 -98.3,-0.1 0,0.8 -0.7,1.5 -1.5,1.5 -1,0 -1.5,-1 -1.5,-3 0,-2.5 -0.4,-3 -2.5,-3 H 167 v 69 69 h -3.5 c -2.8,0 -3.6,-0.4 -4,-2.2 z M 293,18.5 c 0,-0.8 -0.7,-1.5 -1.5,-1.5 -0.8,0 -1.5,0.7 -1.5,1.5 0,0.8 0.7,1.5 1.5,1.5 0.8,0 1.5,-0.7 1.5,-1.5 z"
       id="path515" />
    <path
       d="m 739.1,141.6 c -0.7,-0.8 -1.1,-2.7 -0.9,-4.2 l 0.3,-2.6 4.5,4 4.5,4.1 -3.6,0.1 c -2,0 -4.2,-0.6 -4.8,-1.4 z"
       id="path517" />
    <path
       d="m 43,138.5 c 0,-2.8 0.4,-3.5 2,-3.5 2.1,0 2.4,1 1.4,4.8 -1,3.6 -3.4,2.7 -3.4,-1.3 z"
       id="path519" />
    <path
       d="m 145.6,134.3 c -2.4,-12 -8.6,-44.8 -8.6,-45.5 0,-0.4 0.8,-0.8 1.8,-0.8 1.5,0 2.3,3 5.6,20.2 5,26 5.3,28.8 3.3,28.8 -0.9,0 -1.8,-1.2 -2.1,-2.7 z"
       id="path521" />
    <path
       d="m 45,128.9 c 0,-1.2 0.5,-5 1.2,-8.5 0.9,-5.3 1.5,-6.4 3.1,-6.4 2.1,0 2.1,0.3 -0.5,12.3 -1,4.8 -3.8,6.7 -3.8,2.6 z"
       id="path523" />
    <path
       d="m 720.4,123.6 c -0.3,-0.8 -0.4,-2.6 -0.2,-4.1 l 0.3,-2.6 4,4 3.9,4.1 h -3.7 c -2.3,0 -4,-0.5 -4.3,-1.4 z"
       id="path525" />
    <path
       d="m 791.4,114.5 c -3.8,-3.8 -5.8,-6 -4.4,-4.7 1.5,1.2 3.9,2.2 5.6,2.2 3.9,0 6.7,2.9 6.2,6.7 -0.3,2.8 -0.4,2.7 -7.4,-4.2 z"
       id="path527" />
    <path
       d="m 714,112 c 0,-1.6 -0.4,-3 -1,-3 -0.5,0 -1,-1.6 -1,-3.5 0,-5.1 2.3,-4.4 4.1,1.3 0.9,2.6 1.9,5.5 2.3,6.5 0.7,1.4 0.3,1.7 -1.8,1.7 -2.2,0 -2.6,-0.4 -2.6,-3 z"
       id="path529" />
    <path
       d="m 49,109.1 c 0,-1 0.3,-3.9 0.6,-6.5 0.5,-3.7 1.1,-4.6 2.6,-4.6 2.1,0 2.1,0.5 0.2,10.3 -0.6,3 -3.4,3.7 -3.4,0.8 z"
       id="path531" />
    <path
       d="m 773.7,97.8 c -3.5,-3.5 -5.1,-5.3 -3.7,-4 1.4,1.2 2.9,2.2 3.3,2.2 0.4,0 0.7,-4 0.7,-9 v -9 h 3.5 3.5 l -0.1,13 c 0,7.2 -0.2,13 -0.5,13 -0.2,0 -3.2,-2.8 -6.7,-6.2 z"
       id="path533" />
    <path
       d="M 711,82.5 V 64 h -19 c -18.3,0 -19,-0.1 -19,-2 0,-1.9 0.7,-2 20,-2 h 20 V 49.5 c 0,-6.3 0.4,-10.5 1,-10.5 0.6,0 1,11 1,31 0,30.3 0,31 -2,31 -1.9,0 -2,-0.7 -2,-18.5 z"
       id="path535" />
    <path
       d="m 52,92.8 c 0,-1.2 0.8,-6.1 1.7,-11 1.4,-7.2 2,-8.8 3.5,-8.8 2.2,0 2.2,-0.3 -0.2,11.5 -1.1,5.3 -2,9.9 -2,10.1 C 55,94.8 54.3,95 53.5,95 52.6,95 52,94.1 52,92.8 Z"
       id="path537" />
    <path
       d="M 605,84.5 C 605,83.2 602.1,83 585,83 h -20 v -3.5 c 0,-2.8 0.4,-3.5 2,-3.5 1.1,0 2,0.7 2,1.5 0,1.3 2.8,1.5 19.5,1.5 H 608 v 3.5 c 0,2.4 -0.5,3.5 -1.5,3.5 -0.8,0 -1.5,-0.7 -1.5,-1.5 z"
       id="path539" />
    <path
       d="M 681,82.5 V 79 h 10 10 v 3.5 c 0,2.4 -0.5,3.5 -1.5,3.5 -0.8,0 -1.5,-0.7 -1.5,-1.5 0,-1.2 -1.4,-1.5 -7,-1.5 -5.6,0 -7,0.3 -7,1.5 0,0.8 -0.7,1.5 -1.5,1.5 -1,0 -1.5,-1.1 -1.5,-3.5 z"
       id="path541" />
    <path
       d="m 135.6,82.3 c -2.4,-12 -8.6,-44.8 -8.6,-45.5 0,-0.4 0.8,-0.8 1.8,-0.8 1.5,0 2.3,3 5.6,20.2 5,26 5.3,28.8 3.3,28.8 -0.9,0 -1.8,-1.2 -2.1,-2.7 z"
       id="path543" />
    <path
       d="m 565,67.5 c 0,-2.8 0.4,-3.5 2,-3.5 1.6,0 2,0.7 2,3.5 0,2.8 -0.4,3.5 -2,3.5 -1.6,0 -2,-0.7 -2,-3.5 z"
       id="path545" />
    <path
       d="m 311.6,66.8 c -1.1,-4.2 -0.7,-5.8 1.4,-5.8 1.7,0 2,0.7 2,4 0,4.5 -2.3,5.7 -3.4,1.8 z"
       id="path547" />
    <path
       d="m 58,61.8 c 0,-5.9 1.3,-9.8 3.1,-9.8 2.2,0 2.2,0.3 0.8,7 -1.1,5.1 -3.9,7.2 -3.9,2.8 z"
       id="path549" />
    <path
       d="M 577.7,63.3 C 577.3,63 577,50.8 577,36.3 V 10 h -6 c -5.3,0 -6,-0.2 -6,-2 0,-2 0.7,-2 79.5,-2 72.4,0 79.5,0.1 79.5,1.6 0,1.1 0.5,1.4 1.8,0.9 5.2,-2.1 19,-2.6 57.1,-2.3 39.5,0.4 41.9,0.5 47.3,2.5 15,5.6 24.3,17.3 26.4,33.2 0.6,4.7 0.5,5.1 -1.3,5.1 -1.6,0 -2.1,-0.8 -2.5,-4.2 -0.7,-5.6 -4.6,-14.8 -6.1,-14.2 -0.7,0.2 -2.3,-1.4 -3.7,-3.6 -3,-5 -7.5,-8.6 -13.1,-10.5 -6.1,-2.2 -91.7,-2.2 -97.8,0 -8.2,2.9 -14.7,10.4 -16.6,19.3 -0.8,3.9 -2.5,4.3 -2.5,0.5 0.1,-4.8 1.8,-11.7 2.9,-12.1 0.6,-0.2 1.1,-1 1.1,-1.8 0,-0.8 0.9,-1.4 2,-1.4 1.3,0 2,-0.7 2,-2 0,-1.6 0.7,-2 3.5,-2 2.4,0 3.5,-0.5 3.5,-1.5 0,-0.9 -0.9,-1.5 -2.5,-1.5 -1.4,0 -2.5,-0.4 -2.5,-1 0,-0.5 -1.8,-1 -4,-1 -3.8,0 -4,0.2 -4,3 0,1.7 -0.4,3 -1,3 -0.5,0 -1,-0.7 -1,-1.5 0,-1.3 -8,-1.5 -66,-1.5 H 581 V 36.5 60 l 19.7,0.2 c 17.9,0.3 19.8,0.5 20.1,2.1 0.3,1.6 -1.2,1.7 -21.1,1.7 -11.7,0 -21.7,-0.3 -22,-0.7 z"
       id="path551" />
    <path
       d="m 565,46.5 c 0,-15.8 0.1,-16.5 2,-16.5 1.9,0 2,0.7 2,16.5 0,15.8 -0.1,16.5 -2,16.5 -1.9,0 -2,-0.7 -2,-16.5 z"
       id="path553" />
    <path
       d="M 309.9,51.8 C 309.3,48.9 308.1,45 307.3,43.3 306,40.1 306,40 308.5,40 c 2.1,0 2.5,0.5 2.5,2.9 0,1.6 0.5,3.1 1,3.3 0.6,0.2 1.3,2.7 1.7,5.6 0.5,4.3 0.3,5.2 -1,5.2 -1,0 -1.9,-1.7 -2.8,-5.2 z"
       id="path555" />
    <path
       d="m 61,45.5 c 0,-2.8 0.4,-3.5 2,-3.5 2.1,0 2.4,1 1.4,4.8 -1,3.6 -3.4,2.7 -3.4,-1.3 z"
       id="path557" />
    <path
       d="m 63,35.8 c 0,-1.2 1,-7.3 2.2,-13.5 L 67.4,11 71,11.1 c 1.9,0.1 2.7,0.3 1.8,0.6 -1,0.2 -1.8,0.6 -1.8,0.7 0,0.2 -1.1,5.8 -2.5,12.6 C 67.1,31.8 66,37.4 66,37.6 66,37.8 65.3,38 64.5,38 63.6,38 63,37.1 63,35.8 Z"
       id="path559" />
    <path
       d="m 300.8,32 -2.8,-3.5 2.6,-0.3 c 3.3,-0.4 3.6,-0.1 3.2,3.9 l -0.3,3.4 z"
       id="path561" />
    <path
       d="m 126,32.6 c 0,-0.9 -3.1,-17.2 -3.6,-18.8 -0.3,-1 -1.2,-1.8 -2,-1.8 -0.8,0 -1.4,-0.4 -1.4,-1 0,-0.5 1.5,-1 3.3,-1 h 3.4 l 1.6,9.3 c 2.1,11.5 2.1,13.7 0.2,13.7 -0.8,0 -1.5,-0.2 -1.5,-0.4 z"
       id="path563" />
    <path
       d="m 565,19.5 c 0,-2.8 0.4,-3.5 2,-3.5 1.6,0 2,0.7 2,3.5 0,2.8 -0.4,3.5 -2,3.5 -1.6,0 -2,-0.7 -2,-3.5 z"
       id="path565" />
    <path
       d="m 321,13 c 0,-2.9 -0.1,-3 -5,-3 -4.3,0 -5,-0.3 -5,-2 0,-2 0.7,-2 39.5,-2 38.8,0 39.5,0 39.5,2 0,1.8 -0.7,2 -5.5,2 -5.4,0 -5.5,0 -5.5,3 0,2 -0.5,3 -1.5,3 -0.8,0 -1.5,-0.7 -1.5,-1.5 0,-1.3 -3.6,-1.5 -26,-1.5 -22.4,0 -26,0.2 -26,1.5 0,0.8 -0.7,1.5 -1.5,1.5 -1,0 -1.5,-1 -1.5,-3 z"
       id="path567" />
    <path
       d="m 406,13 c 0,-3 -0.1,-3 -5.5,-3 -4.8,0 -5.5,-0.2 -5.5,-2 0,-2 0.7,-2 34.5,-2 H 464 v 5 c 0,3.8 -0.4,5 -1.5,5 -0.8,0 -1.5,-0.7 -1.5,-1.5 0,-1.3 -3.6,-1.5 -26,-1.5 -22.4,0 -26,0.2 -26,1.5 0,0.8 -0.7,1.5 -1.5,1.5 -1,0 -1.5,-1 -1.5,-3 z"
       id="path569" />
    <path
       d="m 85.2,11.3 c 5.9,-0.2 15.8,-0.2 22,0 6.2,0.1 1.4,0.3 -10.7,0.3 -12.1,0 -17.2,-0.2 -11.3,-0.3 z"
       id="path571" />
  </g>
  <g
     fill="#edecec"
     id="g589"
     transform="translate(-6,-0.9)">
    <path
       d="m 184.1,672.4 c -16,-4.3 -26.3,-16.1 -29,-33.4 -0.7,-4.2 -1.1,-43.1 -1.1,-109 0,-109.8 0.1,-110.3 5.1,-120.6 3.6,-7.5 10,-13.7 18.1,-17.5 l 7.3,-3.4 48.8,-0.3 c 53.7,-0.3 56.4,-0.1 65.9,5.7 2.5,1.6 4.9,2.7 5.2,2.4 0.3,-0.4 0.3,-2.3 0,-4.5 l -0.7,-3.8 34.3,0.2 34.3,0.3 8.8,22.9 c 4.9,12.6 9.1,23.1 9.4,23.4 0.3,0.3 0.5,-10.1 0.5,-23.1 V 388 h 71.5 71.5 v 105 105 h 29 29 v 38 38 h -95.3 -95.4 l -8.7,-23.2 c -4.8,-12.8 -9.2,-23.7 -9.7,-24.3 -0.5,-0.5 -0.9,8.6 -0.9,23.3 V 674 h -39.1 -39.1 l 0.4,-4.2 c 0.1,-2.4 -0.1,-4.2 -0.5,-4.1 -0.4,0.2 -3.3,1.6 -6.5,3.2 -9.7,4.8 -12.8,5.1 -62,5 -36.6,0 -46.8,-0.3 -51.1,-1.5 z m 105.7,-23.8 c 5.8,-3.2 9.4,-7.4 12,-13.8 1.6,-4 1.7,-12.6 1.7,-111.3 0,-102.2 -0.1,-107.2 -1.9,-112.4 -2.4,-7 -8.6,-13.3 -15.3,-15.5 -4.5,-1.5 -10.4,-1.6 -53.9,-1.4 -47.9,0.3 -49,0.3 -52.9,2.5 -5.3,2.8 -8.9,6.8 -11.7,12.8 l -2.3,5 V 523 631.5 l 3,6 c 1.7,3.2 4.6,7.2 6.6,8.8 7.2,5.7 7.1,5.7 60.4,5.4 l 49,-0.2 z m 78.4,-51.3 0.3,-54.8 20.4,53.5 c 11.2,29.4 20.6,54.1 20.8,54.8 0.4,0.9 6,1.2 23.4,1.2 H 456 V 523 394 h -26 -26 l -0.2,53.1 -0.3,53.1 -20.6,-52.8 -20.5,-52.9 -22.7,-0.3 L 317,394 V 523 652 H 342.5 368 Z M 580,628 V 604 H 550.5 521 V 499 394 h -26 -26 v 129 129 h 55.5 55.5 z"
       id="path575" />
    <path
       d="M 217.7,604.3 C 217.3,604 217,567.1 217,522.3 V 441 h 17 17 v 82 82 h -16.3 c -9,0 -16.7,-0.3 -17,-0.7 z M 240,531 v -68 l -2.4,-0.6 c -1.4,-0.3 -3,-0.3 -3.5,0.1 -0.8,0.4 -1.1,21.9 -1.1,68.6 V 599 h 3.5 3.5 z"
       id="path577" />
    <path
       d="m 607.8,617.3 -0.3,-56.8 -9.2,-27 c -8.8,-25.8 -36.4,-113.7 -37.7,-120 -0.4,-1.7 0,-8 0.9,-13.9 0.8,-6 1.5,-11.1 1.5,-11.3 0,-0.2 16.3,-0.2 36.2,-0.1 l 36.2,0.3 5.2,18.7 c 2.8,10.4 5.5,20 5.8,21.4 0.4,1.5 1,2.3 1.4,2 0.3,-0.4 3.2,-10 6.2,-21.4 l 5.6,-20.7 37.8,-0.3 37.8,-0.2 -0.4,13.7 -0.3,13.8 -15.8,50 c -8.7,27.5 -17.3,54.3 -19.2,59.6 -1.9,5.3 -5.4,16.6 -7.9,25.1 L 687,565.7 V 619.9 674 H 647.5 608.1 Z M 676,603.5 v -48.4 l 4.9,-16.3 c 2.8,-9 6.3,-20.1 8,-24.8 2.5,-7.2 16.1,-49.5 26.1,-81.5 1.5,-4.9 4.2,-13.3 5.9,-18.6 1.8,-5.6 3.1,-11.7 3.1,-14.8 V 394 h -25.8 -25.9 l -10.8,39.8 c -10.3,38 -12.4,44.9 -12.5,41.1 0,-0.9 -1.8,-7.9 -3.9,-15.5 -2.1,-7.7 -6.2,-22.4 -9.1,-32.9 -2.8,-10.4 -6.1,-22 -7.1,-25.7 l -2,-6.8 h -25.3 -25.3 l -0.6,4.5 c -0.6,3.9 0.9,9.4 10.9,41.2 6.4,20.3 12.9,41.1 14.5,46.3 1.6,5.2 7.1,21.7 12.2,36.5 l 9.2,27 0.3,51.3 0.3,51.2 h 26.4 26.5 z"
       id="path579" />
    <path
       d="m 13,280.6 c 0,-8.2 0.7,-15.7 1.9,-22.2 1.1,-5.5 3.8,-19.6 6.1,-31.4 2.2,-11.8 6.3,-33.2 9.1,-47.5 2.7,-14.3 6.8,-35.4 9,-47 2.2,-11.5 4.4,-23 4.9,-25.5 0.5,-2.5 2.8,-14.2 5,-26 2.3,-11.8 5,-25.8 6,-31 1,-5.2 3.3,-17.3 5.1,-26.7 L 63.4,6 h 36.3 c 19.9,0 36.4,0.3 36.7,0.8 0.3,0.6 22.9,118.5 25.2,131.7 0.3,2.2 1,4.7 1.5,5.5 0.5,0.8 0.9,-29.7 0.9,-67.7 V 7 h 52.4 c 43.4,0 53.7,0.3 59.8,1.5 11.4,2.4 21.5,7.8 31,16.3 l 3.8,3.4 V 17.6 7 H 350.5 390 V 112.5 218 h 2.5 2.5 V 112.6 7.2 l 36.3,-0.4 c 19.9,-0.1 52.3,-0.2 72,0 L 539,7.2 V 112.1 217 h 29.5 29.5 v 38 38 h -69 -69 v -4.4 -4.5 l -6.4,3.4 c -10.1,5.3 -15.1,5.7 -65.2,5.3 -43.2,-0.4 -45.1,-0.5 -50.7,-2.6 -9.9,-3.7 -16.8,-9.6 -21.2,-18.2 -1,-1.9 -1.9,-3.7 -2.1,-3.9 -0.2,-0.2 -3.6,2.7 -7.6,6.5 -8.3,7.8 -15.9,12.2 -26.8,15.5 -7.5,2.3 -7.5,2.3 -88.2,2.7 -44.5,0.1 -80.8,0.1 -80.8,-0.2 0,-0.3 -1.6,-10.5 -3.5,-22.6 -1.9,-12.1 -3.5,-22.3 -3.5,-22.6 0,-0.3 -1.9,-0.4 -4.2,-0.2 l -4.3,0.3 -0.8,5 c -0.4,2.8 -2,12.9 -3.6,22.5 L 88.3,292.5 50.7,292.8 13,293 Z m 60.4,-11.3 c 0.3,-1 1.9,-10.8 3.6,-21.8 1.7,-11 3.3,-20.6 3.5,-21.2 0.3,-1 4.4,-1.3 15.9,-1.3 15.3,0 15.6,0 16.1,2.3 0.5,2.4 3.7,22.4 5.6,35.5 l 1.2,8.2 h 26.4 26.3 l -0.5,-2.2 c -0.2,-1.3 -1.1,-5.9 -1.9,-10.3 -0.8,-4.4 -4.7,-24.6 -8.6,-45 -3.9,-20.3 -8,-41.5 -9,-47 -1,-5.5 -3.1,-16.1 -4.5,-23.5 -1.4,-7.4 -4.8,-25.1 -7.6,-39.3 C 137.2,89.6 132.7,66.2 130,51.7 127.2,37.3 124.4,22.6 123.7,19 L 122.4,12.5 96.8,12.2 C 73,12 71.1,12.1 70.6,13.7 c -0.3,1 -4.1,20.7 -8.6,43.8 -9.3,48.2 -15.8,81.8 -30,154.8 -9.7,50.3 -10.7,56.6 -9.3,58 0.3,0.4 11.8,0.7 25.4,0.7 22.7,0 24.8,-0.1 25.3,-1.7 z m 203.8,-1.1 c 13.9,-4.7 26,-16 30.8,-28.9 3.7,-9.8 4.1,-22.3 3.8,-105.6 C 311.4,55.2 311.4,54.4 309.2,47.9 304.9,35 295.5,23.9 284.5,18.5 272.9,12.8 272.2,12.7 221.8,12.3 L 175,11.8 v 129.7 129.6 l 47.8,-0.3 c 46.6,-0.3 47.9,-0.4 54.4,-2.6 z m 169.4,-0.4 c 2.9,-1.5 6.6,-4.4 8.3,-6.5 6.4,-7.7 6.1,-2 6.1,-131.5 V 12 H 435 409 V 118 224 H 392.5 376 V 118 12 h -26 -26 v 117.8 c 0,134 -0.5,125.1 8,133.4 8.1,7.8 7.6,7.7 62,7.5 l 47.5,-0.2 z M 586,247 V 223 H 556.5 527 L 526.8,117.8 526.5,12.5 h -26 -26 L 474.2,141.8 474,271 h 56 56 z"
       id="path581" />
    <path
       d="m 88.5,174.3 c 0.3,-2.1 1,-6.3 1.6,-9.3 0.5,-3 2,-12.4 3.4,-20.9 2.3,-14.4 3.5,-19.3 3.5,-14.3 0,1.2 1.6,11.7 3.5,23.4 1.9,11.7 3.5,22.1 3.5,23.1 0,1.5 -1,1.7 -8,1.7 h -8.1 z"
       id="path583" />
    <path
       d="M 227,142.1 V 60 h 13.1 13.1 l 2.9,2.9 2.9,2.9 v 75.6 75.6 l -2.9,3.2 -2.9,3.3 -13.1,0.4 -13.1,0.3 z m 20,7.4 c 0,-67.8 0,-68.5 -2,-68.5 -2,0 -2,0.7 -2,68.5 0,67.8 0,68.5 2,68.5 2,0 2,-0.7 2,-68.5 z"
       id="path585" />
    <path
       d="M 605,187.5 V 82 H 585.2 565.3 L 565.2,44.5 565.1,7 h 79.4 c 55.5,0 79.4,0.3 79.7,1.1 0.2,0.7 1.7,0.7 4.8,-0.1 3.1,-0.7 19.1,-1 51,-0.8 46.1,0.3 46.6,0.3 52.3,2.6 12.2,5 21.5,17.1 23.7,30.9 0.6,3.2 1,23.7 1,45.6 V 126 h -22 c -12.1,0 -22,0.3 -22,0.8 0,0.4 7.9,8.3 17.5,17.5 15.4,14.8 17.9,17.6 21,24 1.9,4 4,9.8 4.6,13 0.6,3.6 0.9,19.8 0.7,42.5 -0.3,34.7 -0.4,37 -2.4,42.4 -4.7,12.2 -12.4,19.8 -24.4,24 -6.4,2.3 -7.2,2.3 -52.5,2.3 -42.5,0 -46.4,-0.1 -51.8,-1.9 -11.6,-3.8 -20.8,-12.9 -25.3,-25.1 -1.6,-4.5 -1.8,-9.3 -2.2,-50.7 L 697.9,169 h 22 c 20.8,0 24.6,-0.5 20.7,-2.7 -3.1,-1.7 -32.9,-31.9 -35.3,-35.6 -5.3,-8.4 -6.5,-14 -7.1,-31.9 L 697.8,82 H 690.9 684 V 187.5 293 H 644.5 605 Z M 673,166 V 61 l 19.8,-0.2 19.7,-0.3 v -24 -24 h -66 -66 v 24 24 l 20.3,0.3 20.3,0.2 -0.1,97.3 c -0.1,53.4 -0.1,100.7 -0.1,105 l 0.1,7.7 h 26 26 z m 157.4,103 c 6.4,-2.5 12.5,-8.5 15,-15.1 1.5,-3.9 1.6,-8.7 1.4,-42.9 l -0.3,-38.5 -2.8,-5.7 c -2.4,-4.8 -8,-10.6 -39.7,-40.5 L 767,91.5 V 75.3 59 h 14 14 v 23 23 h 26 26.1 l -0.3,-36.8 -0.3,-36.8 -2.6,-4.9 C 841,20.8 834.8,15.6 828.7,13.8 825.6,12.8 813.2,12.5 780,12.5 h -44.5 l -5.7,2.8 c -6.8,3.3 -11.1,8.2 -13.5,15.2 -1.6,4.4 -1.8,9.1 -1.8,39 0,37.1 0.1,38.1 5.9,46.6 1.7,2.5 19.2,19.8 38.9,38.4 l 35.7,33.8 v 18.4 18.3 h -14 -14 v -25 -25 l -26.2,0.2 -26.3,0.3 -0.3,31 c -0.3,32.8 0.5,44.1 3.7,50.2 2.7,5.4 8,10.1 13.7,12.3 4.6,1.8 7.9,1.9 49.1,2 42.1,0 44.5,-0.1 49.7,-2 z m -52.7,-63.3 c -0.2,-2.3 -0.3,-0.1 -0.3,4.8 0,5 0.1,6.8 0.3,4.2 0.2,-2.6 0.2,-6.7 0,-9 z m 0,-121.4 c -0.2,-2.1 -0.4,-0.6 -0.4,3.2 0,3.9 0.2,5.5 0.4,3.8 0.2,-1.8 0.2,-5 0,-7 z"
       id="path587" />
  </g>
</svg>
