<?xml version="1.0" encoding="UTF-8" standalone="no"?>
<svg
   version="1.0"
   width="1373.0565"
   height="618.54999"
   viewBox="0 0 1373.0565 618.54999"
   preserveAspectRatio="xMidYMid meet"
   id="svg16"
   sodipodi:docname="auto-various-fr.svg"
   inkscape:version="1.1.2 (0a00cf5339, 2022-02-04, custom)"
   xmlns:inkscape="http://www.inkscape.org/namespaces/inkscape"
   xmlns:sodipodi="http://sodipodi.sourceforge.net/DTD/sodipodi-0.dtd"
   xmlns="http://www.w3.org/2000/svg"
   xmlns:svg="http://www.w3.org/2000/svg">
  <defs
     id="defs20" />
  <sodipodi:namedview
     id="namedview18"
     pagecolor="#ffffff"
     bordercolor="#666666"
     borderopacity="1.0"
     inkscape:pageshadow="2"
     inkscape:pageopacity="0.0"
     inkscape:pagecheckerboard="0"
     showgrid="false"
     inkscape:zoom="0.72474576"
     inkscape:cx="704.38494"
     inkscape:cy="325.63143"
     inkscape:window-width="1920"
     inkscape:window-height="1017"
     inkscape:window-x="-8"
     inkscape:window-y="-8"
     inkscape:window-maximized="1"
     inkscape:current-layer="svg16" />
  <g
     fill="#fff5f5"
     id="g14"
     transform="translate(-33.8,-34)">
    <path
       d="m 1276.5,651.3 c -3.3,-0.8 -6.7,-1.6 -7.5,-1.7 -4.7,-0.8 -8,-2 -8,-2.8 0,-0.5 -0.4,-0.7 -0.8,-0.4 -1.2,0.7 -10.9,-3.9 -14.6,-7 -1.7,-1.5 -4.3,-4.4 -5.8,-6.7 -6.6,-9.6 -0.5,-26.8 10.7,-29.8 5.8,-1.6 14.2,-0.4 24.8,3.5 19.5,7.3 21.7,7.9 27.7,7.3 7.1,-0.6 12.9,-3.5 19.8,-10.1 8.1,-7.6 11.8,-13.5 19.3,-30.1 4,-9 11.2,-35.3 14.1,-51.5 1.9,-10.9 1.6,-40.9 -0.5,-54 -4.3,-25.8 -13,-56.8 -21.3,-75.9 -1.3,-2.9 -2.4,-5.7 -2.4,-6.1 0,-1.2 -9.9,-21.7 -27.7,-57.5 -25.3,-51 -31.9,-65.3 -38.1,-82 -7.8,-21.3 -12.7,-39.1 -16.3,-59.2 -2.7,-15 -3.7,-45.5 -1.9,-58.6 4.1,-31.2 15.6,-54.7 36.4,-74.3 15.7,-14.9 29.1,-20.4 49.4,-20.4 12.1,0 18.2,1.5 28,7.2 6.6,3.7 16.7,13.2 15.8,14.6 -0.4,0.6 0.4,1.8 1.6,2.6 1.2,0.9 1.9,1.6 1.5,1.6 -0.5,0 -0.1,0.7 0.7,1.6 0.9,0.8 1.6,1.9 1.6,2.3 0,1 -8.7,12.5 -12.3,16.3 -2.5,2.7 -2.9,2.8 -9.9,2.3 -4,-0.3 -8.9,-1 -10.8,-1.6 -5.1,-1.5 -11.4,-4.2 -12.1,-5.2 -0.7,-1 -9.2,1.8 -14.7,4.9 -9.3,5.4 -21.6,24.9 -25.9,40.9 -1.4,5.5 -1.8,10.7 -1.8,24.5 0,16 0.9,31.2 1.9,32.8 0.2,0.4 0.7,3.1 1,6 0.3,3 0.8,5.8 1.1,6.2 0.3,0.5 0.7,2.1 0.9,3.7 0.2,1.5 1,4.8 1.9,7.3 1.4,4.3 3.7,13.4 3.8,15.5 0.1,0.6 1,2.7 2,4.8 1.1,2.1 1.7,4.2 1.4,4.7 -0.3,0.5 -0.1,1.1 0.4,1.4 0.5,0.4 1.7,3.1 2.5,6 0.9,3 3.8,10.1 6.5,16 2.8,5.8 4.7,10.6 4.4,10.6 -0.3,0 0.1,0.8 1,1.8 1,1 1.4,2.2 1,2.5 -0.3,0.4 -0.2,0.7 0.4,0.7 1,0 2.6,3.6 2.4,5.3 -0.1,0.4 0.4,0.7 0.9,0.7 0.6,0 1,0.9 1,2 0,1.1 0.3,2 0.8,2 0.9,0 5.5,9.6 5.5,11.6 0,0.8 0.3,1.2 0.5,0.9 0.7,-0.7 5.2,8.1 5.2,10.1 0,0.8 0.4,1.4 0.9,1.4 0.9,0 3.5,5.8 3.2,7.3 0,0.4 0.4,0.7 1,0.7 0.5,0 0.8,0.4 0.5,0.9 -0.4,0.5 -0.2,1.1 0.3,1.3 0.5,0.1 1.1,1 1.3,1.8 0.2,0.8 0.8,2 1.5,2.8 0.7,0.7 1,1.9 0.7,2.6 -0.3,0.7 0.2,1.6 1.1,2 0.9,0.3 1.3,1 1,1.6 -0.3,0.5 -0.2,1 0.3,1 0.9,0 1.8,2 2,4.4 0,0.5 0.4,1.2 0.9,1.5 1.4,1 5.5,9.1 4.6,9.1 -0.4,0 -0.3,0.4 0.3,0.8 1.3,0.8 9.7,17.2 8.8,17.2 -0.3,0 0.2,0.7 1,1.6 0.9,0.8 1.6,2.4 1.6,3.5 0,1 0.4,1.9 0.8,1.9 0.7,0 4.5,7.2 4.7,9 0.1,0.3 1.6,3.7 3.4,7.5 1.8,3.9 3.4,7.5 3.6,8 0.1,0.6 0.7,2.4 1.4,4 2.2,5.3 10.5,32.5 11.5,37.5 2.7,13.9 3.7,18.3 4,18.9 0.2,0.3 0.7,3.8 1.1,7.6 0.3,3.9 0.9,8.4 1.2,10 1.2,5.7 1.4,10.1 2,32 0.6,25.7 -0.4,37.2 -5.2,56 -8.2,32.7 -20.8,56.8 -38.8,74.2 -11.4,11 -22,17.6 -35.1,22.2 -9.9,3.4 -10.4,3.5 -27.6,3.6 -12.4,0.2 -19.3,-0.2 -23.5,-1.2 z"
       id="path2" />
    <path
       d="m 619.8,646.2 c -6.1,-3 -8.4,-5.9 -9.8,-12.5 -0.6,-2.9 -1.8,-8.1 -2.6,-11.7 -0.8,-3.6 -2.2,-9.9 -3,-14 -0.9,-4.1 -2.2,-10.4 -2.9,-14 -3.2,-15.4 -4.7,-22.9 -5.6,-28.5 -0.5,-3.3 -1.4,-7.3 -1.9,-8.9 -0.6,-1.6 -1,-4 -1,-5.4 0,-1.3 -0.6,-5.4 -1.4,-9.1 -1.8,-8.3 -3.5,-17 -4.6,-24.1 -0.5,-3 -3.1,-18.1 -5.9,-33.5 -4.8,-27.1 -15.8,-91.7 -17.6,-103.5 -0.2,-1.9 -1.2,-7.8 -2,-13 -0.9,-5.2 -2,-12.6 -2.5,-16.5 -0.6,-3.8 -1.5,-9.5 -2,-12.5 -0.5,-3 -2.5,-14.9 -4.4,-26.5 -3.4,-20.7 -9.1,-54.1 -20.1,-119 -3.1,-18.1 -6.1,-35.5 -6.5,-38.5 -0.5,-3 -1.5,-9.5 -2.4,-14.5 -0.9,-4.9 -2.2,-13 -3,-18 -2.1,-13 -6.1,-35.7 -9.2,-52.8 -3.1,-17.2 -2.8,-20 3.3,-26 3.3,-3.1 4.8,-3.8 10.3,-4.6 3.6,-0.4 7.5,-0.5 8.6,0 2.5,0.9 6.6,5.8 5.9,6.9 -0.3,0.4 0.2,1.1 1.1,1.4 0.9,0.3 1.4,1.2 1.2,1.8 -0.3,0.7 0.1,1.9 0.9,2.6 0.7,0.8 1.1,1.8 0.8,2.3 -0.4,0.5 -0.2,0.9 0.2,0.9 0.5,0 1,1 1,2.2 0.1,1.3 0.7,2.4 1.3,2.6 0.5,0.2 1,1.7 1,3.3 0,1.6 0.5,2.9 1.1,2.9 0.5,0 0.8,0.4 0.4,0.9 -0.3,0.5 -0.1,1.2 0.4,1.5 0.7,0.5 2.1,5.4 2.5,8.8 0.1,0.3 0.4,1 0.9,1.4 0.4,0.4 0.7,2.1 0.7,3.9 0,1.7 0.5,3.6 1.2,4.3 0.7,0.7 0.9,1.2 0.5,1.2 -0.4,0 -0.3,0.9 0.4,2.1 0.6,1.2 1.2,3.5 1.4,5.3 0.5,4.1 0.9,5.9 1.7,7.2 0.4,0.6 1.2,3.7 1.7,7 0.6,3.2 1.3,7 1.6,8.4 0.4,1.4 1.3,5.9 2,10 0.7,4.1 1.8,9.5 2.4,12 0.5,2.5 1.3,6.1 1.6,8 0.3,1.9 1,5.3 1.5,7.4 0.5,2.2 0.6,4.4 0.3,4.9 -0.3,0.5 -0.1,1.2 0.4,1.6 0.8,0.5 3.9,16.3 5,25.1 0.2,1.9 0.7,4.2 1,5 0.3,0.8 0.7,2.2 0.8,3 0.2,0.8 0.6,3.3 0.9,5.5 0.4,2.2 0.7,4.7 0.7,5.5 0.1,0.8 0.3,2.2 0.6,3 0.3,0.8 0.7,2.2 0.9,3 0.1,0.8 0.5,2.9 0.8,4.5 1.9,9.4 2.7,14.5 3.1,18.3 0.3,2.4 1.1,6.9 1.9,10 0.8,3 1.3,5.9 1,6.4 -0.3,0.5 -0.1,1.4 0.4,2.1 0.5,0.7 1,3.1 1,5.4 0.1,2.3 0.5,5 1.1,6.1 0.8,1.6 2.6,12 3.6,21.2 0.1,1.4 0.4,2.5 0.5,2.5 0.1,0 0.4,1.1 0.5,2.5 0.2,1.4 1.1,6.5 2,11.3 0.9,4.9 1.4,9.1 1.2,9.3 -0.3,0.3 0,2.2 0.5,4.2 0.9,3.7 1.2,5.5 2.2,12.7 0.3,2.2 1,6.5 1.6,9.5 1.2,6.3 2.8,15.9 3.4,21 0.3,1.9 0.8,5.8 1.2,8.5 0.4,2.8 0.7,5.6 0.5,6.4 -0.1,0.7 0.2,2.5 0.8,4 0.5,1.4 1.2,4.6 1.4,7.1 0.3,2.5 1,7 1.6,10 0.5,3 1.3,7.8 1.6,10.5 0.6,5.6 0.8,7.1 2.5,17 0.6,3.9 1.3,8.4 1.5,10 0.1,1.7 0.5,4.1 0.8,5.5 0.6,2.5 1.5,8.6 2.3,14.5 0.4,3.7 1.3,9 2.1,13 0.3,1.7 0.7,4.4 0.8,6 0.2,1.7 0.5,3.7 0.9,4.5 0.3,0.8 0.7,3.6 0.9,6.3 0.4,5 1.7,7.8 1.7,3.7 0,-2.2 1.1,-9.8 5.5,-38.5 1.9,-11.9 3.6,-24.1 4.1,-29 0.3,-2.2 1.1,-8 1.9,-13 2.2,-14.2 3.6,-23.7 4.1,-27.5 0.2,-1.9 1.1,-8 1.9,-13.5 1.3,-8.8 4,-29 9,-67 1.3,-9.9 2.7,-21 5.5,-43.5 3.7,-29 8.6,-76.5 10.1,-97 0.6,-8.5 1.2,-15.7 1.4,-16 0.2,-0.3 0.6,-10.4 1,-22.5 0.3,-12.1 1,-27.6 1.6,-34.4 0.5,-6.8 0.9,-17 0.9,-22.6 V 51.3 l 5.3,-5 c 6.6,-6.3 11.6,-8.8 18.7,-9.7 5.3,-0.7 6,-0.5 14.3,3.9 5.6,3 8.7,5.3 8.7,6.3 0,0.9 -0.5,5.5 -1,10.2 -0.5,4.7 -1.2,11.2 -1.5,14.5 -0.3,3.3 -1,10.3 -1.5,15.5 -0.6,5.2 -1.2,11.3 -1.5,13.5 -0.2,2.2 -0.9,7.6 -1.4,12 -0.6,4.4 -1.2,10.7 -1.5,14 -0.2,3.3 -0.7,7.1 -1,8.5 -0.5,2.3 -0.9,6 -2.1,21.5 -0.2,3.3 -0.7,7.6 -0.9,9.5 -0.2,1.9 -0.7,6.7 -1.1,10.5 -0.3,3.9 -0.9,8.8 -1.1,11 -0.3,2.2 -0.7,5.7 -0.9,7.9 -0.3,2.1 -0.7,4.6 -0.9,5.5 -0.3,0.9 -0.8,6.5 -1.1,12.5 -0.4,5.9 -1,11.9 -1.5,13.1 -0.5,1.3 -0.6,2.5 -0.3,2.8 0.4,0.5 -0.7,10.4 -2.3,20.2 -0.3,1.7 -0.9,7.3 -1.4,12.5 -1.2,13 -2,19.7 -3,25 -0.5,2.5 -1.1,8.1 -1.5,12.5 -0.3,4.4 -1,10.5 -1.5,13.5 -0.5,3 -1,7.3 -1.1,9.5 -0.2,2.2 -0.6,4.5 -1,5 -0.6,0.9 -1.4,7.7 -2.3,19 -0.2,2.2 -0.8,6.7 -1.5,10 -0.6,3.3 -1.4,8.9 -1.7,12.5 -0.8,7.7 -1.2,10.5 -1.4,10.5 -0.1,0 -0.3,1.6 -0.5,3.5 -0.9,8.1 -1.5,13 -2.5,21 -0.6,4.7 -1.3,10.3 -1.5,12.5 -0.3,2.2 -0.8,5.6 -1.1,7.5 -0.4,1.9 -0.8,5.1 -0.9,7 -0.1,1.9 -0.5,4.4 -0.8,5.5 -0.3,1.1 -0.9,4.9 -1.2,8.5 -0.3,3.6 -1.3,11 -2.2,16.5 -0.8,5.5 -1.5,10.9 -1.4,12 0,1.1 -0.4,4.3 -0.9,7 -0.5,2.8 -1.2,6.4 -1.5,8 -0.3,1.7 -0.8,5.5 -1,8.5 -0.2,3 -0.8,7.1 -1.1,9 -0.4,1.9 -0.7,3.8 -0.6,4.1 0,0.3 -0.8,6.4 -1.9,13.5 -1.1,7.1 -2.2,14.8 -2.4,17.1 -0.2,2.2 -1.1,8 -1.9,12.6 -0.9,4.7 -1.6,8.9 -1.5,9.4 0.1,0.4 -0.1,1.9 -0.4,3.3 -0.3,1.4 -0.9,4.5 -1.3,7 -0.3,2.5 -0.8,5.6 -1,7 -0.2,1.4 -1.2,6.8 -2.3,12 -1.1,5.2 -2.2,10.6 -2.3,12 -0.2,1.4 -0.7,3 -1.1,3.7 -0.4,0.6 -1,3.3 -1.3,6 -0.4,2.6 -1,5.3 -1.4,5.8 -0.4,0.6 -1.1,3.3 -1.5,6 -0.4,2.8 -1,5.5 -1.5,6 -0.6,0.8 -1.5,3.4 -2.5,7.5 -0.4,1.8 -4.1,7.7 -5.4,8.7 -2.4,1.9 -8.9,1.2 -14.3,-1.5 z"
       id="path4" />
    <path
       d="m 1169.5,643 c -6.1,-1.3 -10.7,-4.4 -17.9,-12.1 l -7.3,-7.8 -0.7,-10.3 c -2.3,-35.2 -14,-93.2 -29.1,-144.3 -0.8,-2.7 -2.1,-7.2 -2.9,-10 -0.7,-2.7 -2.1,-7.5 -2.9,-10.5 -2,-6.8 -13.3,-43.2 -18.5,-59.5 -2.1,-6.6 -7.2,-22.7 -11.3,-35.7 -4,-13 -7.6,-23.4 -7.9,-23.1 -0.3,0.2 -0.7,67.4 -1,149.1 l -0.5,148.7 -2.4,4.2 c -3.5,6 -9.3,8.7 -18.7,8.6 -3.9,0 -7.7,-0.4 -8.5,-0.9 -0.8,-0.5 -2,-0.9 -2.8,-1.1 -2.2,-0.3 -8.1,-6.5 -9.7,-10.2 -1.7,-4.1 -1.9,-87.3 -0.4,-212.6 0.5,-43.4 1.2,-143.3 1.6,-222 0.7,-153.5 0.5,-146.5 5.7,-149.9 4.4,-2.9 14.5,-3.7 27,-2.1 19.7,2.4 33.9,8.7 47.6,21.1 7,6.3 17.3,19.2 16.5,20.6 -0.4,0.6 -0.2,0.8 0.3,0.5 0.6,-0.4 1.4,0.1 1.8,1.1 0.3,0.9 0.5,1.7 0.3,1.7 -0.2,0 0.7,1.1 1.9,2.4 1.2,1.3 1.9,3 1.6,3.9 -0.4,0.8 -0.2,1.3 0.3,0.9 0.6,-0.3 1.6,0.3 2.3,1.5 1,1.6 1,1.9 -0.1,1.2 -0.7,-0.4 -0.5,0.2 0.5,1.3 1,1.2 2,2.7 2.1,3.5 0.1,0.7 1.1,3.1 2.1,5.3 1,2.2 2.2,4.9 2.7,6 1.4,3.1 3.9,12.4 5.3,19.5 0.7,3.6 1.5,7.2 1.8,8 0.9,2.2 2.1,20.1 2.1,30 0,7.7 -1.7,29.7 -2.8,36 -0.3,1.4 -1,5.4 -1.6,9 -1.1,6.3 -13.6,44.5 -16.1,49.2 -0.7,1.3 -1.2,2.5 -1.2,2.8 0,0.3 -0.6,2.1 -1.5,4 -0.8,1.9 -1.8,4.4 -2.3,5.5 -2.2,5.6 -4.2,10.3 -5.4,12.5 -0.7,1.4 -2.1,5.2 -3,8.4 -1.7,5.8 -1.7,14.7 0.1,26.6 0.3,1.9 0.7,4.9 0.9,6.5 0.2,1.7 0.9,6.4 1.5,10.5 0.6,4.1 1.3,9 1.5,10.8 0.2,1.8 0.6,4.1 0.9,5 0.3,0.9 0.8,3.4 1.2,5.6 0.3,2.1 0.8,4.8 1,6 0.2,1.1 0.7,3.5 0.9,5.1 0.3,1.7 0.9,3.9 1.2,5 0.4,1.1 0.7,2.7 0.8,3.5 0.1,0.8 1.6,7.1 3.3,14 1.7,6.9 3.3,13.6 3.6,15 0.2,1.4 1.2,5.2 2.1,8.5 0.9,3.3 1.8,6.7 2,7.5 0.4,1.3 2.9,10.7 3.5,12.8 0.1,0.4 0.6,1.7 1.1,3 0.5,1.3 0.9,2.9 0.9,3.6 0,0.8 0.7,3 1.5,5 0.8,2 1.2,3.6 0.8,3.6 -0.4,0 -0.2,0.5 0.5,1.2 0.7,0.7 1.2,2.4 1.2,3.8 0,1.4 0.5,3.1 1.1,3.7 0.9,0.9 2,4.3 3.2,10 0.2,0.7 0.6,1.6 1,1.9 0.4,0.4 0.7,1.8 0.7,3 0,1.3 0.4,2.5 0.9,2.8 0.5,0.3 1.2,2.3 1.6,4.3 0.4,2.1 1,4.3 1.5,4.8 0.4,0.6 1.1,2.7 1.4,4.9 0.4,2.1 1.1,4.6 1.7,5.5 1.1,2 13.8,39.6 14.5,43.1 0.3,1.3 1.1,3.8 1.9,5.5 0.7,1.6 1.6,4.1 2,5.5 0.3,1.4 1,3.4 1.5,4.5 2.6,6.4 14.5,44.6 14.8,47.5 0.5,6.4 -2,23.4 -4,27.5 -1,2.2 -3.4,5 -5.1,6.2 -3.4,2.3 -11.1,3.3 -16.2,2.3 z m -98,-378.2 c 1,-1.3 5.5,-6.3 9.8,-11.3 4.4,-4.9 8.6,-9.9 9.3,-11 1.1,-1.8 2.1,-6.4 7,-34.5 5.4,-30.8 6.4,-37.4 6.4,-45 0,-16.1 -5.3,-42.7 -11.3,-56.5 -5,-11.4 -11.5,-20.3 -16.9,-23.1 -2.8,-1.4 -2.8,-1.4 -2.9,1.8 -0.1,1.8 -0.3,5.1 -0.4,7.3 0,2.2 -0.4,9.2 -0.8,15.5 -0.4,6.3 -1,22.1 -1.3,35 -0.3,12.9 -0.7,25.5 -0.8,28 -1,15.2 -1.8,96 -1,96 0.5,0 1.8,-1 2.9,-2.2 z"
       id="path6" />
    <path
       d="m 843.6,639.2 c -3.4,-0.8 -6.7,-1.4 -7.3,-1.4 -0.7,-0.1 -1.3,-0.5 -1.3,-0.9 0,-0.5 -0.7,-0.6 -1.5,-0.3 -0.8,0.4 -1.5,0.1 -1.5,-0.7 0,-0.7 -0.3,-1 -0.6,-0.6 -0.9,0.9 -5.5,-1.7 -8.1,-4.5 -5.6,-6 -5.3,10.8 -5.3,-243.9 0,-148 -0.4,-236.5 -1,-240.3 -0.5,-3.4 -1.4,-9.2 -1.9,-13.1 -0.5,-3.8 -2.1,-13.1 -3.5,-20.5 -1.5,-7.4 -2.9,-18.4 -3.2,-24.5 l -0.6,-11 6.9,-10.5 c 3.8,-5.8 8.4,-12.2 10.1,-14.1 3.1,-3.5 3.4,-3.6 12.4,-4.3 5.1,-0.4 12.9,-1.3 17.3,-2.1 29.3,-5.2 40.9,-4.7 53.8,2.2 6,3.2 14,11 13.3,12.9 -0.3,0.7 0,1.4 0.7,1.7 0.7,0.2 1.1,2.9 1.1,7.4 -0.1,5.8 -0.6,8 -2.7,11.5 -6.4,10.9 -16.6,13.4 -52.7,12.7 -4.1,-0.1 -8,-0.1 -8.6,0 -0.8,0.1 -1.1,4.1 -0.8,13.9 0.5,22.4 2.3,54.1 3,55.4 0.3,0.4 0.7,6.2 0.9,13 1.1,31.7 1.6,44.4 1.8,45.8 0.1,0.8 -0.2,7.6 -0.7,15.1 -1,16.9 -1.3,22 -2,38.4 -0.3,7.2 -0.8,16.7 -1.1,21.2 -0.4,5.2 -0.2,8.4 0.5,8.8 0.6,0.3 6.3,-0.6 12.8,-2 13.8,-3.2 25,-3.6 30.4,-1.2 4.6,1.9 12.8,10.2 12.8,12.7 0,1 0.5,2.2 1,2.5 0.6,0.3 1,3.5 1,7 0,7.8 -2.5,14 -8,19.9 -5,5.3 -9.3,6.5 -20.4,5.3 -8.3,-0.9 -19.9,0.4 -24.5,2.6 l -2.6,1.2 V 473 591.5 l 5.5,-0.1 c 44.7,-0.8 54.7,-0.7 61.5,1.1 13.5,3.4 20.5,10.3 20.5,20.2 0,5.1 -0.2,5.5 -5.7,11.3 -3.2,3.3 -6.4,6 -7,6 -0.7,0 -1.3,0.5 -1.3,1.1 0,0.5 -0.4,0.8 -0.9,0.4 -0.5,-0.3 -1.7,0.2 -2.5,1.1 -0.9,0.8 -1.6,1.2 -1.6,0.8 0,-0.3 -0.6,-0.2 -1.2,0.4 -1.9,1.5 -12.6,4.9 -18,5.7 -9.2,1.4 -62.7,1.1 -69.2,-0.3 z"
       id="path8" />
    <path
       d="M 77.3,636.9 C 64,635.7 51.5,627.7 47.2,617.7 c -1.7,-4 -1.5,-10.2 0.4,-11.7 5.2,-4.4 10.8,-23.1 13.6,-46 1.7,-13.8 1.7,-73.3 0,-99 -2.6,-39 -5.9,-80.5 -8.3,-104 -0.6,-5.8 -1.5,-17.7 -1.9,-26.5 -0.5,-8.8 -1.4,-23.2 -2,-32 -1.3,-17.9 -0.7,-67 1.1,-86.3 1.3,-14.9 0.6,-45.2 -1.4,-59.2 -1.8,-12.5 -6.4,-35.2 -7.9,-39 -0.4,-0.8 -1.1,-4 -1.7,-7 C 38.4,104 37.2,98.1 36.4,94 35.5,89.9 34.6,81.3 34.3,75 L 33.8,63.5 36.9,59.3 C 42.8,51.1 51.3,46.9 68,43.9 78.1,42 120.2,42 128.5,43.8 c 18,4 31.4,9.5 44,18.2 8.5,5.9 25.9,23.5 24.9,25.2 -0.4,0.6 -0.3,0.8 0.3,0.5 1.1,-0.7 6.6,6.9 6.6,9 0,0.7 0.3,1 0.7,0.8 0.3,-0.2 1.2,0.5 1.9,1.7 1,1.6 1,1.9 -0.1,1.3 -0.7,-0.4 -0.2,0.3 1.2,1.5 1.4,1.2 1.8,1.9 1,1.5 -1.3,-0.5 -1.3,-0.4 0,0.7 2.4,2 6.1,8.4 5.3,9.1 -0.3,0.4 -0.1,0.7 0.5,0.7 0.9,0 2.4,2.8 2.7,5 0,0.3 0.5,1.2 1,2 1.1,1.7 6.9,15.2 9.2,21.5 1.6,4.2 6.9,22.5 7.7,26.6 0.3,1.3 1,4 1.6,5.9 0.6,1.9 1.3,4.6 1.5,6 0.2,1.4 1.5,8.4 2.9,15.5 1.4,7.2 2.8,16.2 3.2,20 0.3,3.9 0.8,7.8 1,8.7 0.1,0.9 1,13.3 1.9,27.5 1.5,23.5 1.6,72.5 0.2,97.8 -0.2,3.3 0.1,6.6 0.6,7.3 1,1.3 0.4,16.9 -1.3,32.4 -3,26.9 -12.7,66.6 -22.8,93.8 -7.8,20.7 -21.8,51.1 -29.9,64.8 -2.4,4.1 -4.3,7.5 -4.3,7.8 0,0.9 -13.6,21.2 -19.2,28.7 -10,13.3 -30.8,33.4 -40.8,39.3 -9.1,5.4 -15.8,8.5 -23,10.4 -6.2,1.7 -21,2.6 -29.7,1.9 z m 32.2,-54.6 c 15.1,-10.1 31.6,-28.5 44.7,-49.8 4.6,-7.6 13.5,-25 19.4,-38 1.8,-4.1 8.8,-24.6 10.9,-32 0.9,-3.3 2.1,-7.4 2.6,-9.1 1,-3.5 2.6,-10.7 4,-18.3 0.5,-2.9 1.4,-6.2 1.9,-7.2 0.6,-1 1,-3 1,-4.4 0,-1.5 0.6,-5.7 1.4,-9.4 14.1,-65.4 12.5,-163.8 -3.4,-219.6 -7.7,-26.8 -23.5,-56.2 -39.2,-73.1 -3.2,-3.3 -5.5,-6.4 -5.3,-6.8 0.3,-0.3 0.2,-0.4 -0.1,-0.1 -1,0.7 -4.5,-1.5 -4,-2.4 0.3,-0.4 0,-0.8 -0.7,-0.8 -2,0 -6.7,-3.4 -6.1,-4.4 0.3,-0.5 -0.2,-0.6 -1,-0.3 -0.9,0.4 -1.8,-0.1 -2.2,-1 -0.3,-0.9 -1,-1.3 -1.5,-1 -0.5,0.3 -0.9,0 -0.9,-0.7 0,-0.7 -0.3,-1 -0.6,-0.7 -0.3,0.3 -4,-0.9 -8.2,-2.7 -7.3,-3.2 -16.1,-5.2 -26.2,-6.1 -2.5,-0.2 -5.7,-0.6 -7.2,-0.8 l -2.8,-0.4 -0.2,8.1 c -0.5,26.5 0.5,61 3.2,110.7 1.1,19 2.2,39 2.5,44.5 0.3,5.5 1.2,20.1 2,32.5 4.1,63.3 6.3,100 7.5,128 2.3,51.1 3,80.8 3,123.3 0,24.6 0.3,44.7 0.8,44.7 0.4,0 2.5,-1.2 4.7,-2.7 z"
       id="path10" />
    <path
       d="m 370.5,634.8 c -16.2,-1 -33.8,-5.1 -35.7,-8.1 -0.4,-0.7 -0.8,-0.8 -0.8,-0.4 0,0.4 -0.9,0.3 -2,-0.3 -1.1,-0.6 -1.7,-1.6 -1.4,-2.2 0.5,-0.7 0.2,-0.8 -0.5,-0.3 -2,1.2 -6.7,-4.2 -8.1,-9.1 -1.5,-5.2 -0.1,-13.5 2.8,-16.9 5.4,-6.4 16.2,-9.2 31.3,-8 9.9,0.7 14.2,-0.6 15.3,-4.9 1,-4 0.7,-64 -0.4,-88.1 -1.1,-25.1 -2.2,-44.8 -5,-89.5 -7.2,-116.5 -9,-179.6 -7.2,-242.5 0.8,-25.4 0.8,-40.3 0,-50.5 -0.6,-8 -1.1,-15.5 -1.2,-16.7 -0.1,-2.1 -0.3,-2.2 -11.7,-1.6 -10.9,0.6 -11.9,0.4 -15.8,-1.7 -2.7,-1.6 -4.8,-3.8 -6.1,-6.4 -10.7,-22.3 8.8,-36.9 57,-42.7 25.4,-3.1 43.6,-3.3 48.6,-0.6 4,2.2 11.7,10.4 10.9,11.7 -0.3,0.6 -0.2,1 0.2,1 1.2,0 1.7,4.3 1.5,11.3 -0.1,6.9 -3.3,13.2 -8.5,16.9 -2.9,2.1 -4.3,2.3 -16.5,2.4 -11.7,0.1 -13.6,0.3 -16,2.1 -1.5,1.1 -2.7,2.4 -2.7,2.9 0,0.5 -0.4,1.5 -0.9,2.3 -0.7,1.1 -0.6,1.2 0.5,0.6 1.2,-0.7 1.2,-0.6 0.1,0.7 -2.1,2.6 -1.7,40 1.3,112.3 0.2,5.5 0.6,14.1 0.9,19 0.3,5 0.8,13.5 1.1,19 0.3,5.5 0.8,14.3 1,19.5 0.3,5.2 0.7,10.9 1,12.5 0.2,1.7 0.7,8.6 1,15.5 0.9,16.7 1.2,20.9 1.9,31.5 1.1,15.4 1.7,24.7 2.1,33 0.2,4.4 0.7,11.2 0.9,15 0.6,7.1 1.5,26.8 2.1,42.5 0.2,4.7 0.6,11.4 0.9,15 0.3,3.6 0.8,16 1.1,27.5 0.3,11.6 0.8,23.7 1,27 0.8,11.1 1.5,45.8 1.5,72.1 v 26.1 l 13.8,0.6 c 10.5,0.4 14.7,1 18,2.5 5.2,2.3 11.5,7.9 10.6,9.4 -0.4,0.7 -0.3,0.8 0.5,0.4 1.9,-1.2 4.3,6.1 4.8,14.5 l 0.5,7.7 -5.3,3.9 c -3,2.1 -7.8,5.4 -10.7,7.2 l -5.3,3.4 -18.2,0.9 c -25.2,1.2 -42.4,1.4 -54.2,0.6 z"
       id="path12" />
  </g>
</svg>
