<?xml version="1.0" encoding="UTF-8" standalone="no"?>
<svg
   version="1.0"
   width="2267"
   height="717.90002"
   viewBox="0 0 2267 717.90002"
   preserveAspectRatio="xMidYMid meet"
   id="svg52"
   sodipodi:docname="auto-platform.svg"
   inkscape:version="1.1.2 (0a00cf5339, 2022-02-04, custom)"
   xmlns:inkscape="http://www.inkscape.org/namespaces/inkscape"
   xmlns:sodipodi="http://sodipodi.sourceforge.net/DTD/sodipodi-0.dtd"
   xmlns="http://www.w3.org/2000/svg"
   xmlns:svg="http://www.w3.org/2000/svg">
  <defs
     id="defs56" />
  <sodipodi:namedview
     id="namedview54"
     pagecolor="#ffffff"
     bordercolor="#666666"
     borderopacity="1.0"
     inkscape:pageshadow="2"
     inkscape:pageopacity="0.0"
     inkscape:pagecheckerboard="0"
     showgrid="false"
     inkscape:zoom="0.47113266"
     inkscape:cx="1134.5"
     inkscape:cy="360.83255"
     inkscape:window-width="1920"
     inkscape:window-height="1017"
     inkscape:window-x="-8"
     inkscape:window-y="-8"
     inkscape:window-maximized="1"
     inkscape:current-layer="svg52" />
  <g
     fill="#000000"
     id="g16"
     transform="translate(-0.9,-1)">
    <path
       d="m 716,718 c -8.4,-1.5 -16.5,-2.9 -22.2,-4 -3.2,-0.5 -8.3,-1.4 -11.3,-2 -3,-0.5 -8.1,-1.5 -11.2,-2.1 -5.7,-1 -9.6,-1.7 -21.8,-3.8 -3.3,-0.5 -8.7,-1.5 -12,-2.1 -3.3,-0.6 -8.7,-1.5 -11.9,-2.1 -3.3,-0.5 -6.3,-1.2 -6.8,-1.5 -0.5,-0.3 -4.3,0 -8.6,0.6 -9.2,1.3 -18.7,2.6 -30.2,4 -4.7,0.6 -11.6,1.5 -15.5,2 -3.8,0.5 -10.8,1.4 -15.5,2 -4.7,0.6 -11.6,1.5 -15.5,2 -6.6,0.9 -12.3,1.6 -32,4.1 -4.4,0.5 -10.8,1.4 -14.2,2 L 481,718 462.8,699.8 C 448.2,685.2 443.9,680.3 441.6,675.5 440,672.2 429.5,650.8 418.2,628 407,605.2 395.8,582.4 393.4,577.3 l -4.4,-9.1 2.6,-13.4 c 1.4,-7.3 4.3,-22.3 6.5,-33.3 2.1,-11 4.3,-22 4.8,-24.5 0.5,-2.5 2.2,-10.9 3.7,-18.7 l 2.7,-14.1 18.1,-18 c 17.5,-17.4 19.3,-18.8 57.1,-46.2 l 39,-28.3 9.5,0.7 c 5.2,0.3 16,1 24,1.6 13.9,1 29.9,2.1 51.7,3.6 l 10.2,0.7 19.8,20.1 c 13,13.2 22.5,23.9 27.8,31.1 4.3,6.1 11.9,16.4 16.7,23 l 8.9,11.9 -10.1,10.1 -10,10.1 4.3,4.2 c 2.3,2.3 4.5,4.2 4.9,4.2 0.6,0 4.3,-6.1 29.6,-48.5 l 16.1,-27 18.8,-18.6 18.8,-18.7 7,-0.6 c 7.8,-0.7 21.5,-2 38,-3.7 6.1,-0.6 14.6,-1.4 19,-1.9 l 8,-0.7 18.5,18.4 c 15.5,15.4 18.9,19.3 20.9,24.1 1.4,3.1 4.4,9.8 6.7,14.7 2.2,5 5.3,11.5 6.6,14.5 1.4,3 4,8.5 5.7,12.3 5.1,11 8.5,18.5 14.1,30.7 2.9,6.3 6.5,14.3 8.1,17.8 1.6,3.4 4.2,9 5.8,12.5 1.6,3.4 5.2,11.4 8.1,17.7 6.4,14 11.6,25.4 13.7,29.8 0.8,1.7 1.8,3.2 2.2,3.2 0.4,0 1.9,-2.4 3.4,-5.2 2.6,-5.2 8.2,-15.7 15.6,-29.3 2.1,-3.8 9.8,-18 17.1,-31.5 7.3,-13.5 14.7,-27.2 16.5,-30.5 1.8,-3.3 9.9,-18.4 18,-33.5 l 14.8,-27.5 18.1,-18.2 18.1,-18.3 h 39 39 l 17.5,17.5 c 9.6,9.6 17.8,17.5 18.3,17.5 0.4,0 8.8,-8 18.5,-17.8 l 17.8,-17.9 34.5,-0.7 34.4,-0.7 18,18.3 18,18.3 6.5,23.2 c 3.6,12.8 6.9,23.2 7.4,23 0.5,-0.2 3.1,-11.1 5.8,-24.3 l 4.8,-23.9 17.8,-17.7 17.7,-17.8 h 90.5 90.5 l 17.9,17.9 18,18 -4.4,22.3 c -2.4,12.3 -5.5,28.3 -7,35.6 -1.5,7.3 -2.4,13.5 -2,13.7 0.4,0.2 16.2,-17 35.3,-38.3 19,-21.3 41.7,-45.8 50.4,-54.4 l 15.9,-15.8 h 44 44 l 23.4,23.8 c 23.6,23.8 27.9,28.3 55.6,57.7 19.1,20.3 22.2,23.8 22.4,24.8 0.1,0.5 -5.7,8.1 -12.9,17 -7.1,8.9 -17.6,21.8 -23.1,28.7 -5.6,6.9 -13.3,15.7 -17.1,19.6 l -7,7.1 3.7,2.8 c 2,1.5 11.7,10.9 21.6,20.7 l 18,18 -3,5.6 c -1.6,3.1 -10.7,20.3 -20.2,38.2 -9.5,17.9 -18.9,35.6 -20.9,39.4 -2.9,5.6 -7.1,10.5 -21.8,25.3 l -18.2,18.3 h -59.3 -59.3 l -20,-16 -20,-16 -16,16 -16,16 h -101 -101.1 l -6.9,-7 c -3.8,-3.8 -7.4,-7 -7.9,-7 -0.6,0 -2.4,1.3 -4.1,2.9 -2.8,2.7 -3.8,3 -15,4.1 -14.3,1.3 -29.1,2.6 -47.5,4 -7.4,0.6 -17.6,1.5 -22.7,2 -16.5,1.8 -13.6,3.3 -33.7,-16.9 l -17.9,-17.9 -8.3,-29.8 c -10.3,-36.8 -14.5,-50.5 -15.5,-50.2 -0.6,0.2 -29.4,25.6 -34.1,30 -0.7,0.7 -4.5,4.1 -8.5,7.6 l -7.2,6.3 -17.3,-17.3 c -9.5,-9.5 -19.3,-19.7 -21.6,-22.6 -4.1,-4.9 -6.2,-6.3 -6.2,-4.3 0,0.4 -2.9,6.9 -6.4,14.2 -3.5,7.4 -7.7,16.3 -9.4,19.9 -1.6,3.6 -5.1,11 -7.7,16.5 -2.6,5.5 -6,12.7 -7.5,16 -2.3,4.9 -6.1,9.3 -20.8,23.9 l -18,17.9 -5.3,-1.2 c -7.9,-1.7 -19.2,-3.9 -31.9,-6.1 -3.6,-0.6 -8.3,-1.5 -10.5,-2 -2.2,-0.5 -6.9,-1.4 -10.5,-2 -3.6,-0.6 -8.1,-1.5 -10,-2 -1.9,-0.4 -5.9,-1.1 -8.8,-1.5 -4.8,-0.6 -5.6,-0.5 -8,1.7 -2.1,1.9 -4.7,2.8 -11.2,3.7 -8.3,1.2 -15,2.3 -26,4.1 -3,0.5 -8.6,1.4 -12.5,2 -3.8,0.6 -9.5,1.5 -12.5,2 -3,0.5 -8.6,1.4 -12.5,2 -3.8,0.6 -9.5,1.5 -12.5,2 -5.1,0.8 -13.8,2.2 -22,3.5 -3.4,0.5 -3.9,0.1 -21.6,-17.7 l -18.1,-18.3 -1.1,-8 c -0.6,-4.4 -1.4,-10.5 -1.8,-13.6 -0.3,-3.1 -0.9,-6.1 -1.3,-6.8 -0.6,-0.9 -5.6,-1.3 -17.1,-1.4 l -16.3,-0.2 -0.9,3 c -0.5,1.7 -1.3,4.4 -1.8,6 -0.5,1.7 -2.2,7.7 -3.9,13.5 l -3.1,10.5 -17.7,17.7 c -9.8,9.8 -18.5,17.7 -19.3,17.7 -0.8,-0.1 -3.5,-0.5 -6,-0.9 z m -0.1,-51.7 c 1.1,-3.8 4.5,-15.6 7.6,-26.3 3.1,-10.7 6.7,-23.3 8.1,-27.8 l 2.6,-8.4 28.1,0.7 c 15.5,0.4 37,1.1 47.7,1.4 l 19.5,0.6 1.1,8 c 0.6,4.4 2.6,18.8 4.4,32.1 l 3.3,24.1 11.1,-1.8 c 41.4,-6.4 89.4,-14.1 90.9,-14.5 1.1,-0.4 1.7,-1.5 1.7,-3.5 0,-2.7 0.3,-2.9 3.8,-2.9 2,0 22.1,3.5 44.7,7.8 l 41,7.8 30.9,-65.8 31,-65.8 h 3.1 c 2.8,0.1 4.8,2.5 27.4,32.5 13.4,17.9 24.8,32.5 25.3,32.5 0.5,0 15,-12.6 32.2,-28 27.9,-24.8 31.8,-28 34.8,-28 h 3.3 l 11.8,34.3 c 6.4,18.8 15.7,48.3 20.5,65.6 l 8.7,31.4 7,-0.6 c 3.8,-0.4 24.3,-2 45.5,-3.8 21.2,-1.7 38.6,-3.2 38.7,-3.3 0.2,-0.2 -73.7,-259 -74.2,-259.4 -0.1,-0.2 -14.4,0 -31.7,0.4 l -31.4,0.7 -5.9,9.6 c -6,9.8 -17.8,29 -31.4,50.8 -7.5,12.1 -7.7,12.3 -11.2,12.3 -2.6,0 -3.8,-0.5 -4.2,-1.7 -0.3,-1 -3.3,-9.7 -6.7,-19.3 -3.4,-9.6 -7.2,-20.6 -8.6,-24.5 -1.3,-3.8 -3.9,-11.3 -5.8,-16.5 l -3.3,-9.5 -36.4,-0.2 -36.4,-0.3 -6.5,12.2 c -3.6,6.7 -11,20.6 -16.6,30.8 -5.5,10.2 -12.2,22.6 -14.8,27.5 -2.7,5 -7.4,13.7 -10.6,19.5 -3.1,5.8 -7.6,14.1 -10,18.5 -2.4,4.4 -6.9,12.7 -10,18.5 -3.1,5.8 -7.6,14.1 -10,18.5 -2.3,4.4 -5.5,10.3 -7,13 -1.5,2.8 -4.3,7.9 -6.2,11.5 -1.9,3.6 -5.6,10.3 -8.1,15 -4.6,8.6 -8.6,16 -18.7,34.8 -5.5,10.2 -5.5,10.3 -9,10 -3.9,-0.3 -0.9,5.4 -30.3,-58.8 -7.4,-16.2 -21.2,-46.4 -30.7,-67 -9.5,-20.6 -22.1,-48.1 -28,-61 -21.6,-47.2 -19.9,-44 -23.4,-43.9 -1.7,0 -17,1.5 -34.1,3.2 l -31,3.2 -11.1,18.5 c -16.6,27.7 -48.9,82 -75.9,127.8 L 661.7,577 H 657.8 654 V 542.5 508 h -35.7 c -19.7,0 -42.8,-0.3 -51.5,-0.7 l -15.6,-0.6 -0.6,4.4 c -1.2,9.2 -5.7,63.1 -5.4,63.5 0.3,0.2 9.8,-0.5 21.4,-1.6 11.5,-1.1 23.1,-2 25.8,-2 h 4.9 l -0.7,5.3 c -0.3,2.8 -0.6,6.3 -0.6,7.7 0,1.4 -0.4,3 -0.8,3.6 -0.4,0.7 -6.8,1.9 -14.2,2.8 -20.2,2.4 -28.3,3.4 -41.8,5.1 -18,2.2 -17.5,2.3 -19.7,-2.7 -1,-2.4 -5.4,-11.7 -9.8,-20.8 -10.8,-22.4 -11.7,-24.7 -11.7,-28.3 0.1,-1.8 5.1,-15.1 11.3,-29.6 l 11.2,-26.5 19,-5.8 c 10.5,-3.1 20.1,-5.8 21.4,-5.8 1.3,0 7.5,2.8 13.7,6.1 6.2,3.4 11.5,6.2 11.7,6.3 0.3,0 13.3,-7.1 29,-15.9 24.6,-13.8 28.3,-16.2 27.3,-17.6 -0.6,-0.9 -8.2,-11.2 -16.9,-23.1 l -15.8,-21.5 -18.2,-1.2 C 573.2,407.9 560,406.9 533.9,405 l -14.6,-1.2 -39,28.4 -39,28.3 -1.6,8 c -0.9,4.4 -4.8,24.4 -8.7,44.5 -3.9,20.1 -7.6,39 -8.2,42 l -1.1,5.6 17.2,34.9 c 9.5,19.3 21.8,44.3 27.3,55.7 8.9,18.2 10.4,20.7 12.2,20.3 C 483.6,670.3 606,655 610,655 c 2.5,0 26.6,4 53.5,8.9 27,4.9 49.3,8.9 49.7,9 0.4,0.1 1.6,-2.9 2.7,-6.6 z M 1783,643.8 c 8.5,-16.1 18.9,-35.8 23.2,-43.8 l 7.6,-14.5 -24,-17.5 c -13.2,-9.6 -30.5,-22.2 -38.3,-28 -7.9,-5.8 -18.8,-13.8 -24.4,-17.9 -9.6,-7 -10.1,-7.6 -10.1,-11 0,-3 1.2,-5.2 6.5,-11.9 8.6,-10.9 8.8,-10.9 26.5,0.4 7.4,4.8 19,12.2 25.7,16.4 l 12.1,7.8 2.4,-2.7 c 1.4,-1.4 11.1,-13.3 21.7,-26.4 l 19.2,-23.7 -6.3,-6.9 c -3.5,-3.8 -17.8,-19.1 -31.8,-34 L 1767.5,403 H 1726 l -41.5,0.1 -29.5,33.1 c -16.2,18.2 -37.8,42.3 -47.9,53.6 -13.9,15.6 -18.1,20.8 -17,21.4 9,5.4 33.6,20 50.4,29.9 54.1,32.1 49.5,29.1 49.5,32.2 0,1.7 -2,6 -5.1,10.8 -7.5,11.6 -5.6,12 -45.6,-10.5 -29.2,-16.5 -32.8,-18.3 -33.8,-16.8 -3.2,4.7 -30.5,51.2 -30.5,51.9 0.1,0.4 18.1,15.1 40.1,32.6 l 40.1,31.7 h 56.2 56.1 z m -208.1,27.5 c 0,-0.5 -6.4,-15.6 -14.3,-33.8 l -14.2,-33 -42.6,-0.3 -42.7,-0.2 -3.1,-9.9 c -3.7,-12.1 -3.9,-15.7 -0.7,-16.4 1.2,-0.3 16.9,-1.8 34.9,-3.3 l 32.6,-2.8 0.7,-9.6 c 0.3,-5.2 1,-15.6 1.5,-23.1 0.6,-7.4 1,-15.1 1,-17 v -3.5 l -18.2,-1.3 c -10.1,-0.7 -26.2,-1.9 -35.8,-2.7 -9.6,-0.7 -19,-1.4 -20.9,-1.4 h -3.4 l 0.6,-12.1 c 0.3,-6.7 0.8,-12.3 1,-12.5 0.2,-0.2 19.9,-3.4 43.8,-7.1 23.9,-3.6 43.8,-6.9 44.3,-7.4 0.6,-0.5 14.2,-65.3 14.6,-69.6 0,-0.2 -39.1,-0.3 -87,-0.3 h -87 l -0.5,2.3 c -3.4,14.4 -18.5,91 -18.5,93.8 0,2 1.6,17.6 3.5,34.5 1.9,17 5.9,53 8.9,79.9 3.1,27 5.8,50.9 6.1,53.3 l 0.6,4.2 h 97.5 c 53.6,0 97.4,-0.3 97.3,-0.7 z m 4.3,-117.8 4.7,-5.1 -5.3,-5.3 -5.3,-5.2 -0.6,3.8 c -0.4,2.1 -0.7,7.6 -0.6,12.3 0,7 0.2,8.2 1.2,6.5 0.7,-1 3.3,-4.2 5.9,-7 z"
       id="path2" />
    <path
       d="M 776.3,540.3 758,540 v -4 c 0,-2.5 2.5,-10.3 7.2,-22 l 7.2,-18.2 16.6,0.7 c 9.1,0.4 16.8,1 17.2,1.4 1.6,1.4 12.8,35.8 12.8,39.3 v 3.8 l -12.2,-0.2 c -6.8,-0.2 -20.5,-0.4 -30.5,-0.5 z"
       id="path4" />
    <path
       d="M 18.7,332.2 0.9,314.3 2,290.4 C 2.6,277.3 3.5,257.7 4,247 4.6,236.3 5.4,218.3 6,207 7.5,177 8.8,150.2 10,127 11,108 12,88.1 13.6,54 L 14.2,40.5 32.4,22.3 50.5,4 h 74.3 74.3 l 6.2,4.2 c 3.4,2.3 12.7,8.6 20.5,14.1 l 14.4,10 15.7,-15.7 15.7,-15.6 9.2,1 c 9.4,1 21.4,2.4 35.7,4 4.4,0.5 12.1,1.4 17,2 5,0.5 12.8,1.4 17.5,2 4.7,0.6 11.6,1.3 15.4,1.7 l 6.9,0.6 18.5,18.5 18.5,18.5 -1.2,15.3 c -0.6,8.5 -1.5,22.4 -2.1,30.9 -2.3,35 -3.1,47.7 -4.2,61.8 -0.6,8.1 -0.8,15 -0.5,15.3 0.5,0.6 9.3,-0.2 28.7,-2.6 12.2,-1.5 23,-2.8 34.9,-4.1 l 10.4,-1.1 4.6,4.6 c 2.6,2.5 5,4.6 5.3,4.6 0.4,0 1.5,-1.5 2.6,-3.2 1,-1.8 9.3,-15.7 18.2,-30.8 9,-15.1 20.2,-34 25,-42 4.8,-8 13.3,-22.4 19,-32 l 10.3,-17.5 18.5,-18.7 18.5,-18.7 6.6,-0.6 c 3.6,-0.3 10.7,-1 15.6,-1.5 5,-0.5 13.5,-1.4 19,-2 5.5,-0.5 14.9,-1.5 20.8,-2.1 l 10.9,-1.2 18,17.9 c 19.5,19.4 18.4,17.8 29.8,42.9 1.3,2.8 4.2,9.1 6.5,14 2.3,5 5.2,11.4 6.5,14.2 1.3,2.9 2.7,5.3 3.2,5.3 0.4,0 0.8,-13.2 0.8,-29.3 V 39.5 l 17.9,-17.9 17.9,-17.9 47.4,0.7 c 48.6,0.6 127.5,2 189.3,3.2 l 35,0.6 8.3,8.1 8.2,8.2 11.4,-11.4 11.4,-11.4 92.6,0.9 92.6,0.9 18,18 c 12.8,12.8 18,18.6 18,20.3 0,2.1 0.2,2.1 2.3,0.9 4.5,-2.8 39.6,-25.1 52.2,-33.2 l 9,-5.8 27.5,0.8 c 15.1,0.4 37.7,1 50.2,1.4 l 22.8,0.6 17.1,17 c 9.4,9.4 20.9,21.7 25.6,27.5 4.7,5.8 9,10.7 9.5,10.9 0.7,0.2 0.9,-1.4 0.6,-4.7 l -0.5,-5 18.1,-18.1 c 17.7,-17.7 18.2,-18.1 22.3,-18.1 2.3,0 8.6,-0.4 14,-1 5.4,-0.5 16.3,-1.4 24.3,-2 8,-0.6 19.9,-1.5 26.5,-2 6.6,-0.5 17.6,-1.4 24.5,-1.9 6.9,-0.6 19.5,-1.5 28,-2.2 8.5,-0.6 19,-1.4 23.2,-1.8 l 7.8,-0.7 4.7,3.6 c 2.7,1.9 17.9,13.1 33.8,24.7 27.5,20.1 30,22.1 47.6,40 l 18.7,18.8 0.5,10.5 c 0.9,14.9 4.6,66.9 5.1,70.7 0.4,2.7 -0.4,4 -5.7,10 -22.1,24.5 -29.7,33.3 -29.7,34.1 0,1.1 14.1,13.2 15.4,13.2 0.6,0 2.7,-3 4.6,-6.8 1.9,-3.7 6.9,-13 11.1,-20.7 11.3,-20.9 28.7,-53.1 32.7,-60.5 1.9,-3.6 4.7,-8.7 6.2,-11.5 1.5,-2.7 4.7,-8.6 7,-13 2.4,-4.4 6.9,-12.7 10,-18.5 5.1,-9.4 24.7,-45.8 28.8,-53.5 0.9,-1.6 10,-11.4 20.2,-21.8 L 1938.5,5 h 38.5 38.5 l 18,18 18,18 18.2,-18.2 18.2,-18.2 34.3,-0.4 34.3,-0.4 18.2,18.4 18.2,18.3 24,84.5 c 13.3,46.5 24.6,86.3 25.2,88.5 0.7,2.2 1.8,5.9 2.5,8.2 0.8,2.3 2.3,7.7 3.5,12 2,7.4 2.4,9.1 4.8,17.3 0.5,1.9 1.4,5.1 2,7 0.5,1.9 1.5,5.2 2,7.3 0.6,2 1.6,5.3 2.1,7.2 0.6,1.9 1.5,5.1 2,7 0.6,1.9 1.5,5.1 2,7 0.6,1.9 1.5,5.1 2,7 0.6,1.9 1.4,5.2 2,7.3 l 0.9,3.7 -18.2,18.2 -18.2,18.3 -14,1 c -7.7,0.6 -19.2,1.5 -25.5,2 -18.4,1.6 -36.7,3.1 -47.5,3.9 l -10,0.8 -18.7,-18.6 c -10.4,-10.2 -18.8,-19.2 -18.8,-19.9 0,-0.7 -2.7,-10.8 -6,-22.5 -3.3,-11.7 -6.4,-22.8 -7,-24.7 -4.2,-15.2 -5.4,-19.2 -7.2,-24.2 -1.1,-3.2 -2.3,-5.8 -2.7,-5.8 -0.3,0 -2.2,1.5 -4.1,3.3 -2,1.7 -7.4,6.6 -12,10.7 -4.7,4.1 -8.7,7.7 -9,8 -0.3,0.3 -4.3,3.9 -9,8 -4.7,4.1 -10.1,9 -12,10.7 l -3.5,3.3 -19,-19.3 c -10.5,-10.5 -20.4,-21 -22,-23.1 l -3,-3.9 -17.5,37.2 -17.5,37.2 -17.7,17.5 c -19,18.6 -18.6,18.4 -27.1,16.5 -2.3,-0.5 -7.1,-1.5 -10.7,-2.1 -3.6,-0.6 -8.3,-1.5 -10.5,-2 -2.2,-0.5 -6.9,-1.4 -10.5,-2 -3.6,-0.6 -8.3,-1.5 -10.5,-2 -2.2,-0.5 -6.7,-1.3 -10,-1.9 -3.3,-0.6 -10.5,-1.9 -16,-3 -5.5,-1.1 -13.1,-2.5 -17,-3.1 -3.8,-0.7 -7.8,-1.6 -8.7,-2.1 -1,-0.5 -2.3,-0.9 -3.1,-0.9 -1.1,0 -22.2,8.8 -33.4,14 -2.4,1.1 -4.5,2 -4.8,2 -0.2,0 -2.8,1.1 -5.7,2.4 -10.4,4.7 -16.4,7.3 -19.8,8.6 -1.9,0.7 -4,1.7 -4.7,2.3 -0.8,0.6 -6.7,-3.8 -19,-14.4 -9.8,-8.4 -18.6,-15.9 -19.6,-16.8 -1.7,-1.4 -3,-0.3 -18.5,15.2 l -16.7,16.7 h -41.5 -41.5 l -18.8,-18.8 -18.7,-18.7 v -7.2 c 0,-4 -0.4,-7.4 -1,-7.8 -0.5,-0.3 -3.9,2.5 -7.6,6.2 -7.4,7.3 -5.4,6.5 -29.9,12.8 -7.1,1.8 -17.5,4.5 -23,6 -5.5,1.4 -15.8,4.1 -23,6 -7.1,1.8 -18.3,4.7 -24.7,6.4 -6.5,1.7 -16.9,4.4 -23,6 -6.2,1.6 -14.9,3.9 -19.2,5.1 -4.3,1.1 -8.4,2 -9.1,1.8 -0.7,-0.2 -4.5,-3.2 -8.6,-6.8 -14.5,-12.9 -26.6,-23.6 -33.9,-30 -4.1,-3.6 -11.7,-10.3 -17,-15 -5.3,-4.7 -12.9,-11.4 -17,-15 -4.1,-3.6 -11.9,-10.5 -17.5,-15.4 -5.5,-4.9 -11.8,-10.5 -14,-12.4 -2.2,-1.9 -7.7,-7.1 -12.3,-11.6 l -8.2,-8.1 -12.8,12.7 -12.7,12.6 -8,-0.9 c -4.4,-0.5 -11.1,-1.2 -14.8,-1.6 -6.8,-0.6 -6.8,-0.6 -6.3,1.8 0.5,2.3 1.4,8.3 3.6,22.7 1.3,8.1 2.5,15.6 4,24.1 l 1.2,6.4 -18.4,18.4 -18.3,18.3 h -48.5 -48.5 l -18.1,-18.2 -18.2,-18.3 -1.1,-27.5 c -0.6,-15.1 -1.5,-41.9 -2.2,-59.5 -0.6,-17.6 -1.2,-33 -1.5,-34.2 -0.3,-1.6 -1.1,-2.3 -2.8,-2.3 -1.4,0 -4.6,-0.4 -7.3,-0.9 -17.6,-3.5 -27.8,-4.8 -27,-3.4 0.3,0.5 1.1,4.7 1.7,9.4 1.5,11 2.4,17.3 5,34.9 1.2,8 2.6,17.4 3.1,21 0.5,3.6 1.3,9.4 1.9,13 0.6,3.6 1.5,9.9 2.1,14 4.2,29.8 5,35.4 5.5,36.2 0.3,0.4 -7.9,9.1 -18.1,19.3 L 977,350 H 911.7 846.5 L 828.2,331.7 C 814.4,317.9 810,312.9 810,311 c 0,-2.1 -1.5,-1 -10.7,8.1 -11.9,11.8 -10,10.8 -29.8,13.9 -3.8,0.6 -9.5,1.5 -12.5,2 -3,0.5 -8.6,1.4 -12.5,2 -9.9,1.6 -19.1,3 -25.5,4 -3,0.5 -8.6,1.4 -12.5,2 -15.3,2.4 -20.2,3.2 -24.4,4.2 l -4.5,0.9 -18.2,-18.3 -18.3,-18.3 -1.2,-9 c -0.6,-4.9 -1.4,-11.5 -1.8,-14.5 l -0.6,-5.5 -6.5,-0.6 c -10.7,-1.1 -26.8,-1 -27.5,0.1 -0.4,0.6 -2.6,7.8 -5,16.2 l -4.3,15.1 -18.4,18.4 c -16.2,16.2 -18.6,18.3 -20.8,17.7 -2.4,-0.5 -5.6,-1.1 -19.5,-3.5 -3.3,-0.6 -8,-1.4 -10.5,-1.9 -2.5,-0.5 -7.2,-1.3 -10.5,-1.9 -3.3,-0.5 -8.6,-1.5 -11.7,-2.1 -3.2,-0.5 -8.4,-1.5 -11.5,-2 -3.2,-0.6 -8.5,-1.6 -11.8,-2.1 -7.1,-1.2 -13.8,-2.4 -21.9,-3.8 -4.1,-0.7 -6.8,-1.9 -8.7,-3.6 -2.5,-2.5 -2.9,-2.6 -8.5,-1.6 -3.3,0.5 -10.4,1.5 -15.9,2.1 -5.5,0.6 -13.4,1.5 -17.5,2 -4.1,0.5 -11.8,1.4 -17,2 -5.2,0.6 -12.9,1.5 -17,2 -4.1,0.5 -11.4,1.4 -16.2,2 -4.9,0.5 -12.7,1.5 -17.5,2 -4.9,0.6 -12.2,1.5 -16.3,2 -4.1,0.5 -12,1.4 -17.5,2 -5.5,0.7 -12.9,1.6 -16.4,2.1 l -6.5,1 -18.2,-18.3 -18.3,-18.3 -1.2,-26.8 c -0.7,-14.7 -1.6,-26.6 -2,-26.5 -0.4,0.2 -9.5,8.7 -20.1,18.9 l -19.3,18.6 -12,0.6 c -6.6,0.4 -16.8,0.9 -22.7,1.3 l -10.8,0.7 v 9.4 9.3 L 140.5,332.5 123,350 H 79.7 36.5 Z M 113,279 c 0,-17.8 0.3,-26 1.1,-26 0.6,0 18.9,-1.1 40.7,-2.5 l 39.7,-2.6 7,-6.7 c 22.1,-21.3 37.3,-36 47.4,-45.8 l 11.3,-11.1 -1.1,-22.4 c -0.6,-12.3 -1.8,-35.6 -2.6,-51.8 -1,-22 -1.7,-29.6 -2.7,-30.2 -1.2,-0.7 -17.7,-12 -49.6,-34 L 190,36 H 118.2 46.4 l -1.2,24.8 c -0.7,13.6 -1.7,32.8 -2.2,42.7 -0.9,16.7 -1.4,26.3 -4,80 -0.6,11 -1.5,29 -2,40 -0.5,11 -1.4,29.2 -2,40.5 -0.6,11.3 -1.3,25.1 -1.6,30.8 L 32.8,305 H 72.9 113 Z m 854,23.8 c 0,-0.7 -0.9,-7.4 -2,-14.8 -1.2,-7.4 -2.9,-19.6 -4,-27 -1.1,-7.4 -3.8,-25.9 -6,-41 -8.5,-57.6 -10.1,-68.7 -11,-75 -0.5,-3.6 -1,-8.4 -1,-10.7 0,-3.9 0.2,-4.3 2.4,-4.3 1.3,0 21.6,3.1 45,7 23.5,3.8 43.1,7 43.6,7 0.6,0 1,-19.3 1,-51.8 V 40.3 L 997.8,39.6 C 921.1,38.2 857.1,37 813.3,36.4 L 768,35.7 v 44.6 44.6 l 3.3,0.5 c 1.7,0.3 14,1 27.2,1.6 33.9,1.5 62.9,3.2 63.4,3.6 0.3,0.3 -3.6,35.4 -11.9,106.9 -1,8.8 -2.8,24.6 -4,35 -1.2,10.5 -2.5,21.8 -2.9,25.3 l -0.8,6.2 h 62.4 c 49.2,0 62.3,-0.3 62.3,-1.2 z m 684.4,-0.5 C 1650.2,297 1640,237.6 1640,236 c 0,-1.6 0.7,-2 3.8,-2 3.4,0 6.7,2.6 44,34.5 l 40.3,34.4 8.7,-3.9 c 57.3,-25.2 66.2,-28.5 66.2,-24.5 0,0.8 0.3,1.5 0.6,1.5 0.3,0 22.2,4.1 48.6,9.1 26.4,5 48.4,8.7 48.8,8.2 0.4,-0.4 14.4,-29.9 31.1,-65.5 l 30.4,-64.8 h 3.2 c 3,0 4.4,1.7 27.5,32.5 13.8,18.4 24.8,32.2 25.5,32 0.7,-0.2 15,-12.7 31.9,-27.7 27.4,-24.5 30.9,-27.3 34.4,-27.6 3.6,-0.3 3.8,-0.2 5.3,4 13.3,37.7 21.1,61.4 26.4,80.3 3.6,12.7 8,28.2 9.8,34.5 l 3.3,11.5 3.8,-0.2 c 12.1,-0.5 86,-6.7 86.6,-7.3 0.4,-0.3 -15.8,-58.6 -36.1,-129.5 l -36.8,-129 -15.9,-0.3 c -8.7,-0.2 -23.1,0 -31.9,0.3 l -16,0.7 -4,6.7 c -2.3,3.6 -12.4,20 -22.5,36.4 l -18.4,29.8 -3.5,-0.3 -3.5,-0.3 -12.6,-36 -12.6,-36 -36.1,-0.3 -36.1,-0.2 -59.8,110.7 c -32.9,61 -61.4,113.8 -63.4,117.5 -3.3,6.5 -3.7,6.8 -7.1,6.8 -4,0 -0.4,3 -45.8,-37 -19.9,-17.6 -22.1,-19.8 -22.1,-22.6 0,-2.6 2.8,-6.2 18.3,-23.4 10,-11.1 18.5,-20.8 18.9,-21.4 0.5,-1 -2.3,-44.7 -4.7,-73.7 l -0.7,-7.6 -22.5,-16.4 c -12.3,-9 -24.6,-18 -27.3,-19.9 -2.6,-1.9 -7.8,-5.6 -11.4,-8.3 l -6.5,-4.7 -13.3,1 c -7.3,0.5 -19.1,1.4 -26.3,2 -7.1,0.6 -18.8,1.5 -26,2 -71.8,5.5 -81,6.3 -81.4,6.6 -0.2,0.2 0.6,12.4 1.8,27.1 3.8,47.3 10.1,123.1 12,147.3 1.1,12.9 2.9,35.9 4.1,51 1.2,15.1 2.4,28.1 2.6,28.8 0.3,0.9 9,1.2 39.3,1.2 36.5,0 38.9,-0.1 38.5,-1.7 z M 550,299.3 c 0.6,-2.1 5,-17.3 9.8,-33.8 l 8.7,-30 38.8,0.4 c 21.4,0.1 42.9,0.6 48,1 l 9.1,0.6 4.3,31.4 c 2.4,17.3 4.5,31.6 4.7,31.9 0.6,0.5 101.6,-15.5 102.4,-16.2 0.3,-0.3 -3.8,-9.9 -9.1,-21.3 -12.3,-26.7 -38.8,-84.3 -41.7,-90.8 -1.2,-2.7 -6.2,-13.5 -11,-24 -4.8,-10.4 -10,-21.7 -11.5,-25 C 701,120.2 695,106.9 689,94 683.1,81.1 674.7,62.9 670.5,53.5 c -4.3,-9.3 -7.8,-17.1 -7.9,-17.2 -0.1,-0.1 -3.5,0.2 -7.6,0.7 -4.1,0.5 -12.7,1.3 -19,2 -6.3,0.6 -15.3,1.5 -20,2 -4.7,0.5 -11.5,1.2 -15.2,1.5 l -6.6,0.6 -13.8,23.2 C 572.8,79.1 564.1,93.8 561,99 c -3.1,5.2 -14.4,24.1 -25,42 -10.6,17.9 -21.9,36.8 -25,42 -3.1,5.2 -11.7,19.5 -18.9,31.8 -13,21.8 -13.3,22.2 -16.5,22.2 h -3.3 l -1.2,-9.2 c -0.7,-5.1 -1.8,-14 -2.5,-19.8 l -1.2,-10.5 -3.9,0.3 c -2.2,0.2 -11.2,1.2 -20,2.2 -37.7,4.5 -51.9,6.3 -66.5,8.1 -8.5,1 -17.2,1.9 -19.2,1.9 H 354 v -4.4 c 0,-2.4 1.1,-21.6 2.5,-42.7 2.4,-36.8 3.4,-51.4 5.5,-84.4 0.5,-8.2 1.3,-19.3 1.6,-24.6 l 0.7,-9.6 -7.4,-0.6 C 352.8,43.3 341.9,42.1 332.5,41 295,36.6 280.2,34.9 274.1,34.3 l -6.4,-0.6 0.7,15.9 c 0.3,8.7 1.1,27.4 1.6,41.4 1.8,48.8 3,80.6 4,105.5 0.5,13.8 1.4,37.6 2,53 0.5,15.4 1.2,33 1.6,39.2 l 0.6,11.2 2.7,-0.5 c 1.4,-0.2 16.1,-2 32.6,-3.9 16.5,-2 52.7,-6.2 80.4,-9.5 27.7,-3.3 51.4,-6 52.7,-6 2,0 2.4,0.5 2.4,2.9 0,2.8 0.2,3 6.9,4.1 3.8,0.6 25.1,4.4 47.3,8.5 22.1,4 41.5,7.3 43,7.4 2.3,0.1 2.9,-0.5 3.8,-3.6 z m 609.5,1.5 c -0.3,-1.3 -1.4,-8.4 -2.6,-15.8 -1.1,-7.4 -3.4,-21.8 -5,-32 -5.7,-35.9 -7.3,-47.9 -6.6,-48.6 0.3,-0.4 15.6,1.2 33.9,3.5 18.3,2.3 34.4,4.3 35.7,4.4 2.4,0.2 2.5,-0.1 5.2,-15.8 1.5,-8.8 4.4,-25.4 6.4,-36.9 2,-11.4 3.5,-20.9 3.3,-21 -0.3,-0.2 -9,0.2 -47.8,2.4 -10.2,0.5 -22.7,1 -27.9,1 h -9.4 l 0.7,-9.2 c 0.3,-5 0.6,-12.3 0.6,-16.2 0,-3.9 0.4,-7.7 0.9,-8.5 0.8,-1.2 3,-1.2 15.8,0.3 76.6,8.7 84.7,9.5 85.4,8.5 0.4,-0.6 1,-4.3 1.3,-8.3 0.4,-3.9 1.1,-10.5 1.6,-14.6 0.6,-4.1 2.1,-17.4 3.5,-29.5 1.4,-12.1 2.8,-23.6 3.1,-25.6 l 0.5,-3.6 -89.6,-0.7 c -49.4,-0.4 -89.9,-0.6 -90.1,-0.3 -0.2,0.2 -4.3,16.5 -9,36.3 l -8.6,35.9 1.1,34 c 0.7,18.7 1.6,44.1 2.1,56.5 0.5,12.4 1.6,40.9 2.5,63.5 0.9,22.5 1.9,41.3 2.1,41.7 0.3,0.4 21,0.8 46,0.8 h 45.4 z m 304.8,-22.3 c 28,-7.3 51.2,-13.6 51.6,-14.1 0.8,-0.9 22.1,-122.2 22.1,-125.6 0,-1.4 -71.1,-90.9 -77.6,-97.8 -2.6,-2.7 2.9,-2.3 -72.4,-4.5 l -24.5,-0.8 -18,11.5 c -9.9,6.3 -29.2,18.6 -43,27.3 -13.7,8.7 -25.1,15.8 -25.1,15.9 -0.5,0.4 -16.5,109.7 -16.2,110.4 0.1,0.5 25.8,23.4 57,51 l 56.8,50 19.2,-5 c 10.6,-2.7 42.2,-11 70.1,-18.3 z M 815,268.8 c 0,-0.7 0.5,-5.1 1,-9.8 0.6,-4.7 1.5,-12.5 2,-17.5 0.5,-4.9 1.4,-12.8 2,-17.5 0.5,-4.7 1.5,-12.3 2,-17 0.6,-4.7 1.5,-12.8 2,-18 0.5,-5.2 1.2,-10.7 1.5,-12.1 0.6,-2.5 0.4,-2.7 -4.6,-3.3 -2.8,-0.4 -14.8,-1.1 -26.7,-1.6 -21.5,-0.9 -21.5,-0.9 -24.3,-3.6 -1.6,-1.5 -3.1,-2.5 -3.4,-2.2 -0.3,0.3 0.8,3.6 2.6,7.4 1.7,3.8 4.3,9.4 5.7,12.4 1.3,3 4.4,9.7 6.8,14.8 2.4,5.2 4.4,9.5 4.4,9.7 0,0.2 2,4.5 4.4,9.7 2.4,5.1 5.5,11.8 6.8,14.8 1.4,3 4,8.7 5.8,12.5 4.7,10.2 8.1,17.7 9.1,20.3 0.9,2.4 2.9,3 2.9,1 z"
       id="path6" />
    <path
       d="m 135,166.5 c -4.7,-0.8 -8.7,-1.4 -8.9,-1.4 -0.5,-0.1 0.6,-30.2 1.5,-41.8 l 0.7,-8.3 h 3.8 c 3,0 44.9,8.5 52.2,10.6 1.2,0.4 1.7,1.5 1.7,3.8 0,2.7 -2.3,6 -14.8,20.7 l -14.7,17.4 -6.5,0.1 c -3.6,0.1 -10.3,-0.4 -15,-1.1 z"
       id="path8" />
    <path
       d="m 1645.6,166.7 -7.9,-1 0.7,-16.1 c 0.3,-8.9 0.9,-21.8 1.3,-28.8 l 0.6,-12.8 h 3.5 c 2.5,0 9.2,3 23.8,10.8 l 20.4,10.7 v 3.8 c 0,3.3 -1.6,6.2 -10.7,19.3 l -10.6,15.4 -6.6,-0.2 c -3.6,0 -10.2,-0.6 -14.5,-1.1 z"
       id="path10" />
    <path
       d="m 620,171 c -10.7,-0.4 -21.2,-0.8 -23.2,-0.9 -3.7,-0.1 -3.8,-0.2 -3.8,-3.8 0,-2.4 2.7,-10.6 7.1,-21.5 l 7.1,-17.8 h 8.3 c 4.5,0 12.2,0.3 17.1,0.6 l 9,0.7 6.2,18.6 c 3.5,10.2 6.3,20.1 6.2,21.9 v 3.2 l -7.2,-0.2 c -4,-0.1 -16.1,-0.5 -26.8,-0.8 z"
       id="path12" />
    <path
       d="M 1377.8,185.3 1362,174.7 v -4.2 c 0,-3.2 2.2,-9.2 9.1,-24.4 8.4,-18.6 9.3,-20.1 11.7,-20.1 1.4,0 13,2.3 25.8,5.2 l 23.2,5.2 0.6,9 c 0.3,5 0.7,15.6 0.9,23.5 l 0.2,14.4 -17,6.3 c -9.3,3.5 -18.3,6.3 -20,6.3 -2.1,0 -7.5,-3 -18.7,-10.6 z"
       id="path14" />
  </g>
  <g
     fill="#debd00"
     id="g28"
     transform="translate(-0.9,-1)">
    <path
       d="m 663.2,667.5 c -28.3,-5.2 -51.7,-9.6 -52,-10 -0.6,-0.6 1.3,-4.6 13.4,-27.5 18.9,-35.8 22.7,-43.1 27.2,-52 4,-8 4.7,-9.1 5,-6.7 0.2,1.5 0.7,2.7 1.1,2.7 0.4,0 5.7,-8.2 11.6,-18.2 27,-45.8 59.3,-100.1 75.9,-127.8 l 11.1,-18.5 37,-3.7 c 20.3,-2 37,-3.6 37,-3.5 0.1,0.1 2.3,4.9 4.9,10.7 2.7,5.8 9.7,21.1 15.6,34 5.9,12.9 17.1,37.3 24.9,54.3 33.2,72.4 42.7,93.1 49.8,108.7 4.1,9.1 8.4,18.3 9.5,20.4 2,3.9 2.1,3.9 3.2,1.8 1.1,-2.1 1.6,-1.4 5.8,8.3 4.2,9.4 4.5,10.5 2.7,10.5 -2.2,0 -2.3,0.4 -0.8,3.2 0.6,1.1 0.9,2.2 0.6,2.4 -0.2,0.2 -18.8,3.3 -41.3,6.9 -55,8.8 -69.3,11 -69.8,10.4 -0.2,-0.2 -2.3,-14.8 -4.7,-32.4 l -4.4,-32 -21,-0.6 c -11.6,-0.4 -31.7,-1 -44.7,-1.4 l -23.7,-0.6 -2,6.8 c -1.2,3.7 -5.8,19.5 -10.3,35.1 -4.5,15.5 -8.6,28.1 -9.2,28.1 -0.6,-0.1 -24.2,-4.3 -52.4,-9.4 z M 816,537.2 c 0,-1.5 -12.1,-35.7 -12.8,-36.3 -0.4,-0.4 -6.8,-0.9 -14.3,-1.3 l -13.6,-0.6 -7.1,18 c -4,10 -7.2,18.5 -7.2,19 0,0.6 7.6,1.1 18.3,1.3 10,0.1 22.4,0.3 27.5,0.5 5,0.1 9.2,-0.2 9.2,-0.6 z"
       id="path18" />
    <path
       d="m 1610.9,643.1 c -22.8,-18 -41.4,-33.1 -41.4,-33.4 0,-1.1 35,-59.7 35.7,-59.7 0.4,0 16.3,8.8 35.2,19.5 19,10.7 35,19.5 35.5,19.5 0.9,0 1.2,-0.5 7.4,-10.1 l 3.5,-5.5 -14.1,-8.4 c -20.5,-12.1 -35.7,-21.2 -56.7,-33.7 -10.2,-6 -21.8,-12.9 -25.7,-15.2 -4,-2.3 -7.3,-4.5 -7.3,-4.9 0,-0.4 8.9,-10.7 19.8,-22.8 10.8,-12.2 33,-37 49.2,-55.2 l 29.5,-33.1 44.5,-0.1 h 44.5 l 25.5,27.2 c 14,14.9 28.9,30.8 33.2,35.3 l 7.6,8.1 -23.5,29 c -12.9,15.9 -23.8,29 -24.2,29.2 -0.5,0.1 -8,-4.3 -16.7,-9.9 -37.4,-24 -38.8,-24.9 -40.1,-23.8 -0.7,0.6 -3.8,4.5 -7,8.6 l -5.7,7.5 2.4,1.9 c 1.4,1 6.3,4.7 11,8.1 4.7,3.4 14.4,10.5 21.5,15.8 7.2,5.3 24.6,18 38.7,28.4 l 25.8,18.8 -5.3,10.2 c -2.8,5.5 -13.8,26.2 -24.2,45.8 l -19,35.8 h -59.1 -59.2 z"
       id="path20" />
    <path
       d="m 1065.5,304.8 c -0.2,-0.7 -1.1,-19.1 -2,-40.8 -1.5,-39.8 -2.5,-65.4 -4.9,-125 l -1.3,-32.5 8.9,-37.4 c 4.8,-20.6 9,-37.6 9.2,-37.9 0.2,-0.2 42.1,0 93,0.4 l 92.6,0.7 v 2.9 c 0,1.7 -0.7,8.4 -1.5,15.1 -1.9,15.5 -5.2,44.4 -6.5,56.7 -0.6,5.2 -1.3,10.6 -1.6,12.1 l -0.5,2.5 -7.7,-0.8 c -4.2,-0.5 -26.8,-3 -50.2,-5.7 -25.7,-2.9 -42.7,-4.4 -43.1,-3.8 -0.7,1 -1.9,26.9 -1.2,27.6 0.4,0.5 38.4,-1.2 68.2,-3 9,-0.5 16.5,-0.8 16.8,-0.6 0.2,0.3 -1.2,9.6 -3.1,20.8 -1.9,11.2 -4.9,28.5 -6.6,38.4 -1.7,9.9 -3.2,18.9 -3.5,20 -0.5,2.4 4.4,2.8 -47.2,-3.9 l -25.2,-3.2 0.5,2.5 c 0.4,2.6 3.7,23.3 9.4,59.6 1.7,11 3.5,22.4 4.1,25.4 0.5,3 0.9,6.7 0.9,8.3 v 2.8 h -48.5 c -38,0 -48.7,-0.3 -49,-1.2 z"
       id="path22" />
    <path
       d="m 2126.5,304.9 c -0.2,-0.8 -4.1,-14.4 -8.5,-30.4 -10.2,-36.6 -12,-42.3 -30.7,-95.3 -0.8,-2.4 -1.9,-4.2 -2.3,-4 -0.5,0.2 -15.5,13.4 -33.4,29.3 -17.9,16 -33.1,29 -33.7,29 -0.7,0 -12.7,-15.2 -26.7,-33.8 -14,-18.6 -25.5,-33.7 -25.7,-33.5 -0.1,0.2 -14.1,29.8 -31,65.8 -16.9,36 -30.9,65.7 -31.1,65.9 -0.2,0.2 -23.7,-4.1 -52.3,-9.5 -38.2,-7.2 -51.8,-10.1 -51.4,-11 0.3,-0.8 -0.2,-1.1 -1.6,-0.7 -2.6,0.7 -2.6,0.6 -0.1,-5.1 2,-4.8 2.8,-5.4 4.8,-3.4 0.6,0.6 1.3,1 1.5,0.7 0.2,-0.2 20.6,-38 45.4,-83.9 24.8,-45.9 53.3,-98.7 63.3,-117.3 l 18.2,-33.7 39.1,0.2 39.1,0.3 12.5,35.8 c 6.9,19.7 12.9,35.9 13.3,36 0.6,0.2 28,-43.3 42.2,-66.9 l 3.1,-5.1 12.5,-0.7 c 6.9,-0.3 22.4,-0.6 34.5,-0.7 17.3,0 22.2,0.2 22.8,1.3 1.1,1.9 75.5,263.2 75.1,263.7 -0.2,0.2 -18,1.9 -39.6,3.6 -60.1,5 -58.7,4.9 -59.3,3.4 z"
       id="path24" />
    <path
       d="m 274.6,291.8 c -0.3,-6.2 -1.1,-23.9 -1.6,-39.3 -0.6,-15.4 -1.5,-39.2 -2,-53 -0.5,-13.7 -1.4,-37.4 -2,-52.5 -0.6,-15.1 -1.5,-38.7 -2,-52.5 -0.5,-13.7 -1.3,-33.9 -1.6,-44.9 l -0.7,-19.8 4.9,0.6 c 2.7,0.3 13,1.5 22.9,2.6 9.9,1.1 21.6,2.5 26,3 25.2,3.1 42.8,5 45.6,5 h 3.2 l -0.7,13.3 c -0.3,7.2 -1.1,20 -1.6,28.2 -0.6,8.3 -1.5,21.5 -2,29.5 -0.5,8 -2.1,32.4 -3.5,54.4 -1.5,21.9 -2.4,40 -2.2,40.2 0.2,0.3 9.8,-0.7 21.3,-2.1 31.9,-3.9 43.4,-5.3 62.4,-7.5 9.6,-1.2 20.1,-2.4 23.3,-2.9 5.3,-0.7 5.8,-0.6 6.2,1.3 0.4,2.1 4.5,36.3 4.5,38.1 0.1,0.6 0.7,0.1 1.5,-0.9 2.7,-3.6 1.9,5.5 -0.8,9.5 -1.3,1.9 -2.6,4.1 -3,4.9 -0.4,0.8 -1.3,2.4 -2,3.5 -0.7,1.1 -4.1,6.9 -7.7,13 -3.6,6 -7.5,12.5 -8.7,14.4 -1.3,2 -2.7,4.6 -3.2,5.7 -0.5,1.2 -2.1,2.4 -3.6,2.6 -2.2,0.5 -2.5,0.2 -1.9,-1.4 0.5,-1.7 0.2,-1.9 -2.8,-1.3 -1.8,0.3 -22.4,2.8 -45.8,5.5 -23.4,2.7 -59.5,7 -80.3,9.5 -20.8,2.5 -38.6,4.5 -39.6,4.5 -1.7,0 -1.9,-1.2 -2.5,-11.2 z"
       id="path26" />
  </g>
  <g
     fill="#e72d19"
     id="g36"
     transform="translate(-0.9,-1)">
    <path
       d="m 463.3,654.3 c -5.6,-11.5 -18.1,-36.9 -27.8,-56.6 l -17.6,-35.9 1.5,-7.6 c 0.8,-4.2 4.7,-24.1 8.6,-44.2 3.9,-20.1 7.8,-40.1 8.7,-44.5 l 1.6,-8 37.8,-27.5 c 20.8,-15.1 38.5,-27.9 39.3,-28.4 1.3,-0.9 17,-0.1 49.6,2.4 6.3,0.5 19.7,1.5 29.7,2.1 l 18.2,1.2 11.8,16.1 c 6.5,8.8 14.8,20.2 18.5,25.2 l 6.6,9.2 -31.4,17.7 c -17.4,9.7 -32.1,17.5 -32.7,17.2 -0.7,-0.3 -6.5,-3.4 -13,-6.9 l -11.8,-6.5 -18.7,5.7 -18.7,5.6 -11.2,26.7 -11.3,26.6 1.9,4.3 c 1,2.4 5.4,11.7 9.8,20.8 4.4,9.1 8.8,18.4 9.8,20.8 1.7,3.9 2.2,4.2 4.9,3.7 1.7,-0.2 6.9,-0.9 11.6,-1.4 4.7,-0.6 12.3,-1.5 17,-2.1 4.7,-0.5 14.6,-1.7 22,-2.6 7.4,-0.9 13.7,-1.8 14,-2 0.2,-0.3 0.7,-2.9 1,-5.9 0.7,-6.6 4.1,-6.2 -27.8,-3.2 -12.9,1.3 -23.5,2 -23.7,1.7 -0.2,-0.5 5,-61.5 6.1,-69.9 l 0.6,-4.4 20.1,0.6 c 11.1,0.4 35.6,0.7 54.4,0.7 h 34.2 l 0.3,35.3 0.3,35.2 -5.1,10 c -4.7,9.3 -7.6,14.9 -25.6,49 -3.8,7.2 -8.1,15.4 -9.5,18.3 -2.4,4.6 -3.1,5.2 -5.8,5.2 -1.7,0 -32.7,3.8 -68.9,8.5 -36.2,4.7 -66.5,8.5 -67.5,8.5 -1.2,0 -4.5,-5.7 -11.8,-20.7 z"
       id="path30" />
    <path
       d="m 495.5,297.5 c -28,-5.1 -51.1,-9.3 -51.3,-9.4 -0.2,-0.1 3.9,-7.8 6.8,-12.6 8.9,-14.8 15.7,-26.3 16.3,-27.5 0.4,-0.8 1.5,-2.7 2.5,-4.2 0.9,-1.5 6.6,-11 12.7,-21 11.3,-19 17.9,-30 50.5,-84.8 10.6,-17.9 21.9,-36.8 25,-42 3.1,-5.2 11.8,-19.9 19.4,-32.7 l 13.8,-23.2 6.6,-0.6 c 7,-0.6 18.7,-1.8 34.5,-3.5 24.7,-2.6 32.7,-3.3 33.1,-2.9 0.1,0.2 3.8,8.1 8.1,17.4 4.2,9.4 12.6,27.6 18.5,40.5 6,12.9 12.2,26.7 14,30.5 1.8,3.9 6.7,14.7 11,24 4.3,9.4 9.2,20.2 11,24 1.8,3.9 9.4,20.5 17,37 7.6,16.5 19,41.4 25.4,55.4 6.4,13.9 11.6,25.4 11.4,25.6 -0.7,0.4 -111,17.7 -111.3,17.3 -0.2,-0.2 -2.3,-14.7 -4.7,-32.3 l -4.4,-32 -8.9,-0.6 c -5,-0.4 -25.2,-0.8 -45,-1 l -36,-0.4 -3.7,13 c -16.8,57.8 -16,55.5 -18.7,55.4 -1.4,0 -25.5,-4.3 -53.6,-9.4 z M 650.8,167.7 c -0.2,-0.7 -3,-9.2 -6.2,-18.9 l -6,-17.5 -9,-0.7 c -4.9,-0.3 -11.3,-0.6 -14.1,-0.6 h -5.3 l -7.2,18 c -4,10 -7,18.3 -6.7,18.6 0.3,0.3 10.8,0.9 23.4,1.3 12.5,0.4 24.7,0.9 27.1,0.9 3.1,0.2 4.3,-0.2 4,-1.1 z"
       id="path32" />
    <path
       d="m 1315.9,255.4 c -31.6,-27.9 -57.8,-51 -58.2,-51.4 -0.6,-0.5 15.9,-115.9 16.7,-116.6 0.2,-0.2 49.5,-31.4 68.6,-43.4 l 18.5,-11.6 23.5,0.8 c 12.9,0.4 35.3,1.1 49.8,1.6 26,0.8 26.3,0.8 28.6,3.3 3,3.1 75.9,93.8 77.6,96.5 1,1.7 -0.5,11.9 -10,67 -6.2,35.7 -11.6,65.3 -12.1,65.8 -0.5,0.6 -116.7,31.4 -143,37.9 -2.4,0.6 -8.3,-4.3 -60,-49.9 z m 106.6,-72.1 8,-3 -0.3,-11.4 c -0.1,-6.3 -0.5,-15.5 -0.8,-20.5 l -0.6,-9 -21.6,-4.8 c -11.9,-2.7 -22.2,-5 -22.8,-5.3 -1.2,-0.5 -19.6,39.3 -19.2,41.4 0.2,0.7 7.3,6 15.8,11.7 l 15.5,10.3 9,-3.3 c 5,-1.7 12.6,-4.5 17,-6.1 z"
       id="path34" />
  </g>
  <g
     fill="#5aad44"
     id="g44"
     transform="translate(-0.9,-1)">
    <path
       d="m 1376.5,670.8 c -0.5,-3.9 -3.2,-27.4 -15.5,-137.5 l -4,-35.2 9.5,-46.3 c 5.2,-25.5 9.7,-47.3 10,-48.5 l 0.5,-2.3 h 90.5 c 49.8,0 90.5,0.3 90.5,0.8 -0.2,3.4 -14.9,74.5 -15.6,75.1 -0.5,0.5 -20.4,3.8 -44.3,7.4 -23.9,3.7 -43.5,6.8 -43.7,7 -0.2,0.1 -0.6,4.4 -1,9.5 l -0.7,9.2 h 3.4 c 1.9,0 11.3,0.7 20.9,1.4 9.6,0.8 25.7,2 35.8,2.7 l 18.2,1.3 v 6.5 c 0,3.6 -0.4,12.6 -1,20 -0.5,7.5 -1.2,17.9 -1.5,23.1 l -0.7,9.5 -34.4,3.1 c -18.9,1.7 -34.6,3.3 -34.8,3.5 -0.3,0.3 0.8,4.8 2.5,10.2 l 3,9.7 42.7,0.2 42.6,0.3 15.3,35.5 c 8.4,19.5 15.2,36.1 15.3,36.8 0,0.9 -20.9,1.2 -101.4,1.2 h -101.5 z"
       id="path38" />
    <path
       d="m 839,305.6 c 0,-0.8 1.1,-11 2.5,-22.7 1.3,-11.8 3.3,-29.3 4.4,-38.9 4.9,-42.7 6.5,-56.2 9.5,-82.5 1.8,-15.4 3.2,-28.1 3.2,-28.1 -0.2,-0.3 -37.4,-2.3 -63.1,-3.4 -13.2,-0.6 -25.5,-1.3 -27.2,-1.6 L 765,127.9 V 80.2 32.5 l 42.2,0.7 c 44.5,0.7 137.5,2.3 196.1,3.5 l 34.7,0.6 v 55.4 c 0,43.6 -0.3,55.3 -1.2,55.3 -0.7,0 -21.3,-3.4 -45.8,-7.4 -24.5,-4 -44.6,-7.2 -44.8,-7.1 -0.4,0.3 0.3,5.1 4.7,35.5 8.8,59.3 11.3,76.7 13.1,89 1.1,7.4 3.1,21.1 4.5,30.4 1.4,9.3 2.5,17.3 2.5,17.8 0,0.4 -29.7,0.8 -66,0.8 -55.8,0 -66,-0.2 -66,-1.4 z"
       id="path40" />
    <path
       d="m 1570.6,305.8 c -0.2,-0.7 -1.4,-13.7 -2.6,-28.8 -1.2,-15.1 -3,-38.1 -4.1,-51 -5.2,-64 -10.1,-124 -11.9,-146.5 -1.1,-13.7 -2.2,-27.1 -2.5,-29.7 l -0.6,-4.8 h 3.3 c 1.8,0 11.4,-0.7 21.3,-1.5 9.9,-0.8 24.1,-1.9 31.5,-2.5 20.6,-1.5 39.2,-3 52.5,-4 6.6,-0.5 19.5,-1.5 28.6,-2.1 l 16.6,-1.2 6.8,4.9 c 3.7,2.7 8.9,6.5 11.5,8.4 2.7,1.9 15,10.9 27.3,19.9 l 22.5,16.4 0.6,7.1 c 1,11 5.6,74.8 5.6,77.3 0,1.5 -5.7,8.6 -17.2,21.4 -9.5,10.5 -18.1,20.1 -19,21.3 -1.7,2.2 -1.3,2.5 28.9,29.1 16.8,14.9 31.4,27.6 32.3,28.2 1.7,1.2 1.7,1.5 0.1,4.7 -1.4,2.9 -3,4 -12.1,7.9 -5.8,2.4 -22.1,9.5 -36.2,15.6 -14.1,6.1 -26,11.1 -26.5,11.1 -0.5,0 -19.3,-15.7 -41.8,-35 -22.6,-19.2 -41.2,-35 -41.6,-35 -0.3,0 2.1,14.5 5.3,32.3 3.1,17.7 5.7,33.4 5.8,35 v 2.7 h -42 c -32.8,0 -42.1,-0.3 -42.4,-1.2 z m 103.7,-156.2 c 5.9,-8.5 10.7,-15.8 10.7,-16.3 0,-0.9 -40.9,-22.8 -41.4,-22.2 -0.5,0.5 -2.8,51 -2.4,51.3 0.5,0.5 14.8,2.3 18.9,2.5 3.5,0.1 3.7,-0.1 14.2,-15.3 z"
       id="path42" />
  </g>
  <g
     fill="#119ac8"
     id="g50"
     transform="translate(-0.9,-1)">
    <path
       d="m 1257.6,675.2 c -0.2,-0.4 -4.5,-15.5 -9.5,-33.5 -7.1,-25.2 -29.8,-95.3 -31.7,-97.6 -0.2,-0.3 -32.1,27.7 -66,58.1 -2.1,1.9 -2.1,1.8 -13.9,-13.9 -6.6,-8.7 -18.3,-24.2 -26,-34.5 l -14.2,-18.6 -30.8,65.6 c -17,36.2 -31,65.9 -31.2,66.1 -0.5,0.6 -6.7,-0.4 -52,-9 -37.3,-7.1 -38.3,-7.3 -39.2,-9.8 -0.5,-1.4 -2,-5.1 -3.4,-8.2 l -2.5,-5.6 5.9,-10.9 c 3.3,-6 8.8,-16.1 12.1,-22.4 3.4,-6.3 6.4,-11.9 6.8,-12.5 0.4,-0.5 3.3,-5.9 6.5,-12 3.2,-6 6.5,-12.3 7.5,-14 0.9,-1.6 3.9,-7 6.5,-12 2.6,-4.9 7.3,-13.7 10.5,-19.5 3.1,-5.8 7.6,-14.1 10,-18.5 2.4,-4.4 6.9,-12.7 10,-18.5 3.2,-5.8 7.9,-14.5 10.6,-19.5 2.6,-4.9 9.3,-17.3 14.8,-27.5 5.6,-10.2 13,-24.1 16.6,-30.8 l 6.5,-12.2 39.4,0.3 39.4,0.2 3.3,9.5 c 1.9,5.2 4.5,12.7 5.8,16.5 1.4,3.9 5.2,14.9 8.6,24.5 3.4,9.6 6.4,18.3 6.7,19.3 1,3.4 -0.7,5.8 26,-37.3 4.9,-8 11.6,-18.8 14.8,-24.1 l 5.9,-9.6 34.4,-0.8 c 18.9,-0.4 34.5,-0.5 34.7,-0.3 0.4,0.4 74.4,259.3 75.2,262.9 l 0.5,2.6 -8.9,0.7 c -24,1.9 -82.3,6.6 -85.5,7 -2.1,0.2 -4,0.1 -4.2,-0.2 z"
       id="path46" />
    <path
       d="m 30.4,293.3 c 0.4,-8.2 1.1,-23.1 1.6,-33.3 0.9,-17.4 1.6,-31.6 4,-79.5 2.6,-53.7 3.1,-63.3 4,-80 0.5,-9.9 1.5,-29.1 2.2,-42.7 L 43.4,33 h 74.8 74.8 l 14.2,9.9 c 31.9,22 48.4,33.3 49.6,34 1.3,0.7 1.7,6.1 5.3,83.4 l 1.3,26.9 -11.5,11.1 c -10.1,9.9 -25.2,24.5 -47.4,45.9 l -7,6.7 -39.7,2.6 c -21.8,1.4 -40.1,2.5 -40.7,2.5 -0.8,0 -1.1,8.2 -1.1,26 v 26 H 72.9 29.7 Z M 168.3,147 c 12.4,-14.7 14.5,-17.6 13,-18.2 -2.8,-1.1 -49.4,-11.1 -49.8,-10.6 -0.8,0.7 -2.9,42.8 -2.2,43.5 1,0.9 16.3,3.1 20.7,2.9 3.2,-0.1 4.6,-1.4 18.3,-17.6 z"
       id="path48" />
  </g>
</svg>
