<?xml version="1.0" encoding="UTF-8" standalone="no"?>
<svg
   version="1.0"
   width="608"
   height="672"
   viewBox="0 0 608 672"
   preserveAspectRatio="xMidYMid meet"
   id="svg495"
   sodipodi:docname="auto-huntingandfishing-fr.svg"
   inkscape:version="1.1.2 (0a00cf5339, 2022-02-04, custom)"
   xmlns:inkscape="http://www.inkscape.org/namespaces/inkscape"
   xmlns:sodipodi="http://sodipodi.sourceforge.net/DTD/sodipodi-0.dtd"
   xmlns:xlink="http://www.w3.org/1999/xlink"
   xmlns="http://www.w3.org/2000/svg"
   xmlns:svg="http://www.w3.org/2000/svg">
  <sodipodi:namedview
     id="namedview497"
     pagecolor="#ffffff"
     bordercolor="#666666"
     borderopacity="1.0"
     inkscape:pageshadow="2"
     inkscape:pageopacity="0.0"
     inkscape:pagecheckerboard="0"
     showgrid="false"
     inkscape:zoom="1.2329377"
     inkscape:cx="303.74609"
     inkscape:cy="336.59446"
     inkscape:window-width="1920"
     inkscape:window-height="1017"
     inkscape:window-x="-8"
     inkscape:window-y="-8"
     inkscape:window-maximized="1"
     inkscape:current-layer="svg495" />
  <defs
     id="defs7">
    <linearGradient
       id="lg0"
       gradientUnits="userSpaceOnUse"
       x1="305"
       y1="259"
       x2="305"
       y2="390">
      <stop
         offset="0%"
         style="stop-color:rgb(255,140,12);"
         id="stop2" />
      <stop
         offset="100%"
         style="stop-color:rgb(243,95,9);"
         id="stop4" />
    </linearGradient>
    <linearGradient
       inkscape:collect="always"
       xlink:href="#lg0"
       id="linearGradient1314"
       gradientUnits="userSpaceOnUse"
       x1="305"
       y1="259"
       x2="305"
       y2="390" />
    <linearGradient
       inkscape:collect="always"
       xlink:href="#lg0"
       id="linearGradient1316"
       gradientUnits="userSpaceOnUse"
       x1="305"
       y1="259"
       x2="305"
       y2="390" />
    <linearGradient
       inkscape:collect="always"
       xlink:href="#lg0"
       id="linearGradient1318"
       gradientUnits="userSpaceOnUse"
       x1="305"
       y1="259"
       x2="305"
       y2="390" />
    <linearGradient
       inkscape:collect="always"
       xlink:href="#lg0"
       id="linearGradient1320"
       gradientUnits="userSpaceOnUse"
       x1="305"
       y1="259"
       x2="305"
       y2="390" />
    <linearGradient
       inkscape:collect="always"
       xlink:href="#lg0"
       id="linearGradient1322"
       gradientUnits="userSpaceOnUse"
       x1="305"
       y1="259"
       x2="305"
       y2="390" />
    <linearGradient
       inkscape:collect="always"
       xlink:href="#lg0"
       id="linearGradient1324"
       gradientUnits="userSpaceOnUse"
       x1="305"
       y1="259"
       x2="305"
       y2="390" />
    <linearGradient
       inkscape:collect="always"
       xlink:href="#lg0"
       id="linearGradient1326"
       gradientUnits="userSpaceOnUse"
       x1="305"
       y1="259"
       x2="305"
       y2="390" />
    <linearGradient
       inkscape:collect="always"
       xlink:href="#lg0"
       id="linearGradient1328"
       gradientUnits="userSpaceOnUse"
       x1="305"
       y1="259"
       x2="305"
       y2="390" />
  </defs>
  <g
     fill="#3c0006"
     id="g15"
     transform="translate(0,-1)">
    <path
       d="m 59.4,664.3 c -2.6,-4.9 -6,-11.1 -7.5,-13.9 L 49,645.3 V 564.1 483 l 50.8,-0.1 c 27.9,-0.1 53.5,-0.1 57,0.1 3.4,0.1 6.2,-0.1 6.2,-0.4 0,-0.3 -1.6,-6.6 -3.5,-13.9 -1.9,-7.2 -3.5,-13.5 -3.5,-13.9 0,-0.5 10.3,-6 23,-12.3 l 23,-11.5 23.3,11.7 23.4,11.6 1.3,12.7 c 0.7,7 1.6,13.4 2.1,14.1 0.8,1.4 60.1,1.8 256.2,1.9 H 559 v 23.1 23.1 l -4.5,8.6 -4.5,8.6 v 20.3 c 0,19.7 -0.1,20.5 -2.5,25.3 -1.4,2.7 -2.5,5.2 -2.5,5.5 0,0.3 3.2,0.5 7,0.5 h 7 v 23.5 23.5 l -7.4,13.8 -7.4,13.7 -192.4,0.2 -192.3,0.3 -1.9,-6.3 c -1.1,-3.4 -3.1,-9.3 -4.5,-13.2 -2.3,-6.7 -2.5,-8.4 -3,-35.4 l -0.6,-28.4 -10.9,12.7 -10.8,12.6 h -7.4 -7.4 v 29 29 H 88.6 64.1 Z M 252,577.5 c 0,-20.2 0,-20.5 -2.1,-20.5 -1.7,0 -2,0.4 -1.5,2.3 0.3,1.2 0.6,10.4 0.6,20.5 0,15.5 0.2,18.2 1.5,18.2 1.3,0 1.5,-2.9 1.5,-20.5 z"
       id="path9" />
    <path
       d="m 207,431.5 c 0,-0.2 -1.3,-6.8 -3,-14.5 l -3,-14.1 V 322.5 242 h 103 103 v 22.7 c 0,21.7 -0.1,23.3 -3.2,37.5 l -3.2,14.8 h -9.8 -9.8 l -0.1,44.3 c 0,40.7 -0.2,45.2 -2.2,57.2 l -2.2,13 -24.6,0.3 -24.6,0.2 -0.7,-3.1 C 326.3,427.2 326,401.3 326,371.4 V 317 h -14 -14 v 19.9 20 l 3.8,0.3 3.7,0.3 0.3,33 c 0.2,18.2 0,34.9 -0.3,37.3 l -0.6,4.2 h -49 C 229,432 207,431.8 207,431.5 Z"
       id="path11" />
    <path
       d="m 15.2,186.4 c -1.5,-2.5 -4.1,-6.7 -5.7,-9.2 -1.7,-2.6 -4.5,-7.1 -6.3,-10 L 0,162 V 81.5 1 h 102.9 102.8 l 1.1,3.3 1,3.2 0.1,-3.3 0.1,-3.2 45.3,0.2 45.2,0.3 0.5,8.5 0.6,8.5 L 300,10 300.5,1.5 454.3,1.2 608,1 v 22.8 22.9 l -4.5,6.9 -4.5,6.8 v 22 21.9 l -3.5,6.4 -3.6,6.3 h 8.1 8 v 22.4 22.5 l -3.6,5.8 c -1.9,3.2 -5.9,9.6 -8.8,14.3 l -5.2,8.5 -286.2,0.3 L 18,191 Z M 401.3,95.5 C 401,94.7 400.4,94 399.9,94 c -1,0 -1.2,2.4 -0.3,3.3 1.1,1.1 2.4,-0.3 1.7,-1.8 z"
       id="path13" />
  </g>
  <g
     fill="#520106"
     id="g23"
     transform="translate(0,-1)">
    <path
       d="m 49,564 v -81 l 50.8,-0.1 c 27.9,-0.1 53.5,-0.1 57,0.1 3.4,0.1 6.2,-0.1 6.2,-0.4 0,-0.3 -1.6,-6.6 -3.5,-13.9 -1.9,-7.2 -3.5,-13.5 -3.5,-13.9 0,-0.5 10.3,-6 23,-12.3 l 23,-11.5 23.3,11.7 23.4,11.6 1.3,12.7 c 0.7,7 1.6,13.4 2.1,14.1 0.8,1.4 60.1,1.8 256.2,1.9 H 559 V 506.5 530 H 533.5 508 v 5 5 h 21.6 21.7 l -0.7,4.6 c -0.3,2.6 -0.6,13.2 -0.6,23.5 V 587 h -21 -21 v 5.5 5.5 H 533.5 559 V 621.5 645 H 354.5 150 l -0.2,-46.5 -0.3,-46.6 -16,17.5 -16,17.6 h -7.7 -7.8 v 29 29 H 75.5 49 Z m 203,20.3 c 0,-7.6 -0.3,-22.9 -0.7,-34 L 250.7,530 H 227.3 204 v 5 5 h 21 21 v 23.5 23.5 h -21 -21 v 5.5 5.5 h 24 24 z M 353,563.5 V 550 h -24 -24 v 13.5 13.5 h 24 24 z"
       id="path17" />
    <path
       d="m 207,431.5 c 0,-0.2 -1.3,-6.8 -3,-14.5 l -3,-14.1 V 322.5 242 h 103 103 v 23.5 23.5 h -13 -13 l -0.1,58.3 c 0,55.1 -0.1,58.9 -2.2,71.2 l -2.2,13 -24.7,0.3 -24.7,0.2 -0.7,-4.7 c -0.7,-4.6 0,-67.3 1.2,-114 L 328.3,289 H 291.1 254 v 5 5 h 21.5 21.5 l 0.2,19.3 c 0,10.5 0.2,19.7 0.3,20.2 0.2,0.6 0.3,4.9 0.4,9.7 l 0.1,8.7 3.8,0.3 3.7,0.3 0.3,33 c 0.2,18.2 0,34.9 -0.3,37.3 l -0.6,4.2 h -49 C 229,432 207,431.8 207,431.5 Z"
       id="path19" />
    <path
       d="m 15.2,186.4 c -1.5,-2.5 -4.1,-6.7 -5.7,-9.2 -1.7,-2.6 -4.5,-7.1 -6.3,-10 L 0,162 V 81.5 1 h 103 103 l 0.2,11.8 c 0.1,6.4 0.3,9.2 0.5,6.2 0.1,-3 0.5,-8.3 0.9,-11.8 l 0.6,-6.2 45.1,0.2 45.2,0.3 0.5,8.5 0.6,8.5 L 300,10 300.5,1.5 454.3,1.2 608,1 V 24.5 48 H 582.5 557 v 5 5 l 21.1,0.2 21,0.3 -0.1,23 -0.1,22.9 -3.5,6.3 -3.5,6.3 h 8.1 8 v 22.4 22.5 l -3.6,5.8 c -1.9,3.2 -5.9,9.6 -8.8,14.3 l -5.2,8.5 -286.2,0.3 L 18,191 Z M 402,95.4 c 0,-1.1 2.5,-1.4 14,-1.4 12.4,0 14,-0.2 14,-1.7 0,-0.9 -5.5,-7.2 -12.2,-14 -10,-10.1 -12.4,-12 -12.6,-10.4 -0.3,2 -0.9,2.1 -16.5,2.1 l -16.2,0.1 14,13.7 c 7.7,7.5 14.3,13.6 14.8,13.4 0.4,-0.2 0.7,-1 0.7,-1.8 z M 101,82 V 69 H 77.5 54 v 11.1 c 0,6.1 0.5,11.9 1,13 1,1.8 2.3,1.9 23.5,1.9 H 101 Z m 228,10.6 c 0,-0.8 -6,-7.3 -13.2,-14.7 l -13.3,-13.3 -0.3,3.9 c -0.2,2.2 -0.1,9 0.3,15 l 0.7,11 12.9,-0.3 C 325.9,94 329,93.6 329,92.6 Z M 503,80.8 V 70 h -14.2 -14.3 l 12.8,12.8 c 12.2,12 12.9,12.6 14.3,10.8 1,-1.4 1.4,-5 1.4,-12.8 z"
       id="path21" />
  </g>
  <g
     fill="#68060d"
     id="g59"
     transform="translate(0,-1)">
    <path
       d="M 54,563.5 V 488 h 47 47 v 28.5 28.5 l -16.6,18 -16.6,18 H 105.4 96 v 29 29 H 75 54 Z m 47.8,-21.8 c 4.1,-4.2 4.2,-4.4 4.2,-11 V 524 h -5 -5 v 11 c 0,6.1 0.4,11 0.8,11 0.4,0 2.7,-1.9 5,-4.3 z"
       id="path25" />
    <path
       d="M 156,563.5 V 488 h 7.6 c 6.1,0 7.5,-0.3 7.1,-1.4 -1.1,-2.7 -7.7,-27.3 -7.7,-28.4 0,-0.7 8.9,-5.6 19.7,-11.1 l 19.8,-9.9 19.8,10 c 15.9,7.9 19.7,10.2 19.3,11.6 -1.2,4.1 -7.6,28.3 -7.6,28.7 0,0.3 3.4,0.5 7.5,0.5 h 7.5 v 18 18 H 223.5 198 v 11 11 h 21 21 V 563.5 581 H 219 198 V 592.5 604 H 223.5 249 V 621.5 639 H 202.5 156 Z m 59.8,-82.6 -13.8,-6.9 -13.7,6.9 -13.8,7 h 27.5 27.5 z"
       id="path27" />
    <path
       d="M 257,563.5 V 488 h 47 47 v 28 28 h -21 -21 v -10 -10 h -5 -5 v 40 40 h 5 5 V 593.5 583 h 21 21 v 28 28 h -47 -47 z"
       id="path29" />
    <path
       d="M 359,563.5 V 488 h 21 21 v 29 29 h 4.5 4.5 v -29 -29 h 21 21 v 75.5 75.5 h -21 -21 v -29 -29 h -4.5 -4.5 v 29 29 h -21 -21 z"
       id="path31" />
    <path
       d="M 460,563.5 V 488 h 47 47 l -0.2,17.8 -0.3,17.7 -25.7,0.3 -25.8,0.2 v 11 11 H 523.5 545 V 563.5 581 H 523.5 502 v 11.5 11.5 h 26 26 v 17.5 17.5 h -47 -47 z"
       id="path33" />
    <path
       d="m 245.7,476 c -0.3,-4 0.1,-8.4 1.2,-13.3 l 1.8,-7.2 1.2,11.5 c 0.7,6.3 1.5,12.3 1.7,13.3 0.4,1.3 -0.1,1.7 -2.4,1.7 -2.8,0 -2.9,-0.2 -3.5,-6 z"
       id="path35" />
    <path
       d="m 207,431.5 c 0,-0.3 -1.1,-5.7 -2.5,-12.1 -1.4,-6.4 -2.5,-12.2 -2.5,-13 0,-1.1 8.2,-1.4 52,-1.6 l 52,-0.3 v 10.6 c 0,5.9 -0.3,12.1 -0.6,13.8 l -0.6,3.1 H 255.9 C 229,432 207,431.8 207,431.5 Z"
       id="path37" />
    <path
       d="m 326.5,427.9 c -0.4,-2.3 -0.3,-10.8 0.1,-18.8 0.5,-8.1 1,-12.3 1.2,-9.3 l 0.3,5.2 h 26.4 26.4 l -0.6,3.8 c -0.4,2 -1.4,8 -2.2,13.2 l -1.6,9.5 -24.7,0.3 -24.6,0.2 z"
       id="path39" />
    <path
       d="M 207,322.5 V 247 h 46.5 46.5 v 18 18 h -26 -26 v 11 11 H 269.5 291 V 322.5 340 H 269.5 248 v 11.5 11.5 h 26 26 V 380.5 398 H 253.5 207 Z"
       id="path41" />
    <path
       d="M 334,340.5 V 283 h -13 -13 v -18 -18 h 46.5 46.5 v 18 18 H 388 375 V 340.5 398 H 354.5 334 Z"
       id="path43" />
    <path
       d="m 15.2,186.4 c -1.5,-2.5 -4.2,-6.9 -6,-9.7 -1.9,-2.8 -4.5,-7 -5.9,-9.4 L 0.8,163.1 304,163 h 303.2 l -2.5,4.3 c -1.4,2.4 -4,6.6 -5.9,9.4 -1.8,2.8 -4.5,7.2 -6,9.7 L 590,191 H 304 18 Z"
       id="path45" />
    <path
       d="M 6,82.5 V 7 H 52.5 99 V 35 63 H 78 57 V 52.5 42 H 52.5 48 v 40 40 H 52.5 57 V 111.5 101 H 78 99 V 129.5 158 H 52.5 6 Z"
       id="path47" />
    <path
       d="M 107,82.5 V 7 h 21 21 V 35.5 64 h 5 5 V 35.5 7 H 179.5 200 V 82.5 158 H 179.5 159 v -29 -29 h -5 -5 v 29 29 h -21 -21 z"
       id="path49" />
    <path
       d="m 207,153.8 c 0,-2.4 1.4,-34.4 3,-71.3 1.6,-36.9 3,-68.9 3,-71.2 V 7 h 39.9 39.9 l 0.6,10.8 c 0.4,5.9 1.8,36.1 3.1,67.2 1.3,31.1 2.7,60.2 3,64.8 l 0.6,8.2 h -20.9 -20.9 l -0.6,-13.7 c -0.4,-7.5 -0.7,-16.9 -0.7,-21 V 116 h -3.4 c -2.2,0 -3.6,0.6 -4,1.6 -0.3,0.9 -0.6,10.3 -0.6,21 V 158 h -21 -21 z m 47.6,-92.5 c -0.6,-17.4 -0.9,-20.3 -2,-19.2 -0.3,0.2 -0.8,8.9 -1.2,19.2 L 250.7,80 h 2.3 2.3 z"
       id="path51" />
    <path
       d="m 306,129 v -29 h 20.2 20.3 L 326.2,79.7 306,59.5 V 33.2 7 H 352.5 399 V 35.5 64 H 378.8 L 358.5,64.1 378.8,84 399,103.9 V 131 158 H 352.5 306 Z m 51,-12.8 c 0,-5.5 -0.2,-6 -4.5,-10.2 l -4.5,-4.4 v 10.2 10.2 h 4.5 4.5 z M 357,52 V 42 h -4.5 -4.5 v 5.7 c 0,5.4 0.3,6 4.2,10 2.3,2.4 4.3,4.3 4.5,4.3 0.2,0 0.3,-4.5 0.3,-10 z"
       id="path53" />
    <path
       d="m 408,129 v -29 h 19.7 19.8 L 427.7,80.2 408,60.5 V 33.7 7 H 454.5 501 V 35.5 64 h -20.2 -20.3 l 20.3,20.3 20.2,20.2 V 131.3 158 H 454.5 408 Z m 51,-12.8 c 0,-5.6 -0.1,-5.9 -5,-10.7 l -5,-4.9 v 10.7 10.7 h 5 5 z m 0,-63.7 V 42 h -5 -5 v 5.7 c 0,5.5 0.2,5.9 4.7,10.5 2.6,2.6 4.9,4.8 5,4.8 0.2,0 0.3,-4.7 0.3,-10.5 z"
       id="path55" />
    <path
       d="M 509,82.5 V 7 H 555.5 602 V 24.5 42 H 576.5 551 v 11 11 h 21.5 21.5 v 18 18 H 572.5 551 v 11 11 h 25.5 25.5 v 18 18 H 555.5 509 Z"
       id="path57" />
  </g>
  <g
     fill="#9f0307"
     id="g87"
     transform="translate(0,-1)">
    <path
       d="M 55,563.5 V 488 h 46 46 v 28.8 28.9 L 130.8,563.3 114.6,581 H 105.3 96 v 29 29 H 75.5 55 Z m 47.1,-21.7 c 3.7,-4.1 3.8,-4.6 3.9,-11.5 V 523 h -5 -5 v 11.5 c 0,7.8 0.4,11.5 1.1,11.5 0.6,0 2.9,-1.9 5,-4.2 z"
       id="path61" />
    <path
       d="M 156,563.5 V 488 h 7.6 c 6.7,0 7.5,-0.2 7,-1.7 -3.8,-13.2 -7.6,-28.5 -7.2,-29.1 0.2,-0.4 9,-5 19.5,-10.2 l 19.1,-9.5 19.9,10 19.9,10 -3.9,14 c -2.1,7.7 -3.9,14.6 -3.9,15.3 0,0.8 2.2,1.2 7.5,1.2 h 7.5 v 17.5 17.5 l -25.7,0.2 -25.8,0.3 -0.3,11.3 -0.3,11.2 H 218.5 240 V 563.5 581 H 218.5 197 v 11.5 11.5 h 26 26 V 621.5 639 H 202.5 156 Z m 60.5,-82.7 -14,-7 -14,7 -14,7.1 h 28 28 z"
       id="path63" />
    <path
       d="M 258,563.5 V 488 h 46 46 v 28 28 H 329.5 309 V 533.5 523 h -5 -5 v 40.5 40.5 h 5 5 V 593.5 583 h 20.5 20.5 v 28 28 h -46 -46 z"
       id="path65" />
    <path
       d="M 359,563.5 V 488 h 20.5 20.5 v 29 29 h 5.5 5.5 V 517 488 H 431.5 452 V 563.5 639 H 431.5 411 v -29 -29 h -5.5 -5.5 v 29 29 H 379.5 359 Z"
       id="path67" />
    <path
       d="M 461,563.5 V 488 h 46 46 V 505.5 523 H 527.5 502 V 534.5 546 H 523.5 545 V 563.5 581 H 523.5 502 v 11.5 11.5 h 25.5 25.5 v 17.5 17.5 h -46 -46 z"
       id="path69" />
    <path
       d="m 207,323 v -75 h 46.5 46.5 l -0.2,17.3 -0.3,17.2 -25.7,0.3 -25.8,0.2 v 11 11 H 269.5 291 V 322.5 340 H 269.5 248 v 11.5 11.5 h 26 26 V 380.5 398 H 253.5 207 Z"
       id="path71" />
    <path
       d="m 334,340.5 v -57.4 l -12.7,-0.3 -12.8,-0.3 -0.3,-17.2 L 308,248 H 354.5 401 V 265.5 283 H 388 375 V 340.5 398 H 354.5 334 Z"
       id="path73" />
    <path
       d="M 6.7,157.3 C 6.3,157 6,123 6,81.8 V 7 H 52.5 99 V 35 63 H 78 57 V 52.5 42 H 52.5 48 v 40 40 h 4.5 4.4 l 0.3,-10.2 0.3,-10.3 H 78 98.5 v 28 28 l -45.6,0.3 C 27.9,157.9 7,157.7 6.7,157.3 Z"
       id="path75" />
    <path
       d="M 107.7,157.4 C 107.3,157 107,123 107,81.8 V 7 h 21 21 V 35.5 64 h 5 5 V 35.5 7 H 179.5 200 V 82.5 158 H 179.5 159 v -29 -29 h -5 -5 l -0.2,28.8 -0.3,28.7 -20.1,0.3 c -11,0.1 -20.3,-0.1 -20.7,-0.4 z"
       id="path77" />
    <path
       d="m 207.4,156.5 c -0.3,-0.8 0.8,-33.1 2.5,-71.7 1.7,-38.7 3.1,-72 3.1,-74 V 7 h 40 40 v 2.3 c 0.1,1.2 1.6,34.8 3.4,74.7 1.8,39.9 3.2,72.8 2.9,73.3 -0.6,0.9 -40,0.9 -40.7,-0.1 -0.2,-0.4 -0.8,-9.9 -1.2,-21 l -0.7,-20.3 -3.6,0.3 -3.6,0.3 -0.5,20.5 -0.5,20.5 -20.3,0.3 c -17.2,0.2 -20.3,0 -20.8,-1.3 z m 47.3,-95.2 c -0.6,-17.2 -1,-20.4 -2.1,-19.2 -0.3,0.2 -0.8,8.9 -1.2,19.2 L 250.7,80 h 2.3 2.3 z"
       id="path79" />
    <path
       d="m 306.5,156.7 c -0.3,-0.7 -0.4,-13.6 -0.3,-28.7 l 0.3,-27.5 19.8,-0.5 19.7,-0.5 -20,-20 -20,-20 V 33.3 7 H 352.5 399 V 35.5 64 h -20.3 -20.3 l 20.3,20.2 20.3,20.3 -0.2,26.5 -0.3,26.5 -45.8,0.3 c -36.3,0.2 -45.9,0 -46.2,-1.1 z M 357,115.8 c 0,-5.8 -0.2,-6.5 -3.7,-10 -2,-2.1 -4.1,-3.8 -4.5,-3.8 -0.4,0 -0.8,4.5 -0.8,10 v 10 h 4.5 4.5 z m 0,-63.3 V 42 h -4.5 -4.5 v 6.2 c 0,6 0.2,6.4 4.2,10.5 2.3,2.4 4.3,4.3 4.5,4.3 0.2,0 0.3,-4.7 0.3,-10.5 z"
       id="path81" />
    <path
       d="m 408,129 v -29 h 20.2 20.3 L 428.2,79.7 408,59.5 V 33.2 7 h 46.5 46.5 l -0.2,28.3 -0.3,28.2 -20.4,0.5 -20.4,0.5 20.7,20.2 20.6,20.2 -0.2,26.3 -0.3,26.3 -46.2,0.3 -46.3,0.2 z m 51,-12.8 c 0,-5.6 -0.1,-5.9 -5,-10.7 l -5,-4.9 v 10.7 10.7 h 5 5 z m 0,-63.7 V 42 h -5 -5 v 5.7 c 0,5.5 0.2,5.9 4.7,10.5 2.6,2.6 4.9,4.8 5,4.8 0.2,0 0.3,-4.7 0.3,-10.5 z"
       id="path83" />
    <path
       d="M 509.7,157.3 C 509.3,157 509,123 509,81.8 V 7 H 555.5 602 V 24.5 42 H 576.5 551 v 11 11 l 21.3,0.2 21.2,0.3 V 82 99.5 L 572.3,99.8 551,100 v 11 11 h 25.5 25.5 l -0.2,17.8 -0.3,17.7 -45.6,0.3 c -25,0.1 -45.9,-0.1 -46.2,-0.5 z"
       id="path85" />
  </g>
  <g
     fill="#d50205"
     id="g113"
     transform="translate(0,-1)">
    <path
       d="m 55,564 v -75 h 46 46 v 28.3 l -0.1,28.2 -16.2,17.7 -16.2,17.6 -9.7,0.1 -9.8,0.1 v 29 29 H 75 55 Z m 47.4,-22 4.7,-5 -0.3,-6.8 -0.3,-6.7 H 101 95.5 l -0.3,10.4 c -0.4,15.2 0.1,15.7 7.2,8.1 z"
       id="path89" />
    <path
       d="m 157,564 v -75 h 7 c 6,0 7,-0.2 7,-1.7 0,-1 -1.8,-8.1 -3.9,-15.8 l -3.9,-14 19.4,-9.8 19.4,-9.7 19.3,9.6 c 10.5,5.3 19.4,9.8 19.6,10 0.2,0.2 -1.5,7.1 -3.8,15.2 -2.2,8.2 -4.1,15.2 -4.1,15.6 0,0.3 3.4,0.6 7.5,0.6 h 7.5 v 17 17 h -25.5 -25.6 l 0.3,11.8 0.3,11.7 21.3,0.3 21.2,0.2 v 17 17 h -21.5 -21.6 l 0.3,11.8 0.3,11.7 25.3,0.3 25.2,0.2 v 17 17 H 202.5 157 Z m 75,-75.5 c 0,-0.3 -6.6,-3.8 -14.7,-7.9 l -14.8,-7.4 -14.7,7.4 c -8.2,4.1 -14.8,7.6 -14.8,7.9 0,0.3 13.3,0.5 29.5,0.5 16.2,0 29.5,-0.2 29.5,-0.5 z"
       id="path91" />
    <path
       d="m 258,564 v -75 h 46 46 v 27.5 27.5 h -20 -19.9 l -0.3,-10.2 -0.3,-10.3 h -5.5 -5.5 v 40.5 40.5 h 5.5 5.5 l 0.3,-10.2 0.3,-10.3 h 19.9 20 v 27.5 27.5 h -46 -46 z"
       id="path93" />
    <path
       d="m 360,564 v -75 h 20 20 l 0.2,28.8 0.3,28.7 h 5 5 l 0.3,-28.7 0.2,-28.8 h 20 20 v 75 75 h -20 -20 v -29 -29 h -5.5 -5.5 v 29 29 h -20 -20 z"
       id="path95" />
    <path
       d="m 461,564 v -75 h 46 46 v 17 17 l -25.7,0.2 -25.8,0.3 v 11.5 11.5 l 21.3,0.3 21.2,0.2 v 17 17 h -21.5 -21.6 l 0.3,11.8 0.3,11.7 25.8,0.3 25.7,0.2 v 17 17 h -46 -46 z"
       id="path97" />
    <path
       d="m 207,323 v -75 h 46 46 v 17 17 H 273.5 248 v 11.5 11.5 l 21.3,0.2 21.2,0.3 0.3,17.3 0.2,17.2 H 269.5 248 v 11.5 11.5 h 25.5 25.5 v 17.5 17.5 h -46 -46 z"
       id="path99" />
    <path
       d="M 6,82 V 7 H 52.5 99 L 98.8,34.7 98.5,62.5 H 78 57.5 L 57.2,52.3 56.9,42 H 52 47 v 40 40 h 5.3 5.2 l -0.3,-10 -0.3,-10 h 21 21.1 v 9.3 c 0,5.2 -0.3,17.6 -0.7,27.5 L 97.7,157 H 51.8 6 Z"
       id="path101" />
    <path
       d="M 108,82 V 7 H 128.5 149 V 35.5 64 h 5 5 V 35.5 7 h 20.5 20.5 v 75 75 H 179.5 159 V 128 99 h -5 -5 v 29 29 H 128.5 108 Z"
       id="path103" />
    <path
       d="m 207.4,151.3 c 0.3,-3.2 0.8,-14.6 1.2,-25.3 0.3,-10.7 1.6,-41.8 2.8,-69 L 213.5,7.5 253.3,7.2 293,7 v 3.4 c 0,2 1.1,28.2 2.4,58.3 1.4,30.1 2.8,62.3 3.2,71.6 l 0.6,16.7 H 278.6 258 v -12.7 c 0,-7.1 -0.3,-16.5 -0.7,-21 l -0.6,-8.3 h -3.8 -3.9 v 8.3 c 0,4.5 -0.3,13.9 -0.7,21 l -0.6,12.7 h -20.5 -20.4 z m 47.9,-84 C 254.9,50.6 254.1,42 252.9,42 c -0.5,0 -0.9,1 -1,2.3 -0.1,1.2 -0.4,9.7 -0.8,19 L 250.5,80 h 2.5 2.6 z"
       id="path105" />
    <path
       d="m 307,147.8 c 0,-5.1 -0.3,-17.7 -0.7,-28 L 305.7,101 h 20.6 c 11.4,0 20.7,-0.3 20.7,-0.7 0,-0.5 -9.2,-9.8 -20.5,-20.8 L 305.9,59.5 306,33.3 V 7 H 352.5 399 V 35.5 64 H 378.5 358 V 53 42 h -5 -5 v 6.4 6.4 l 25.5,24.7 25.5,24.8 v 26.3 26.4 h -46 -46 z m 51,-31.6 c 0,-5.6 -0.1,-5.9 -5,-10.7 l -5,-4.9 v 10.7 10.7 h 5 5 z"
       id="path107" />
    <path
       d="m 408,129 v -28 h 20.5 20.5 v 10.5 10.5 h 5 5 v -5.8 -5.7 L 433.5,85 408,59.5 V 33.3 7 h 46 46 V 35.5 64 h -20.2 -20.3 l 20.3,20.3 20.2,20.2 V 130.8 157 H 454 408 Z M 459,52.5 V 42 h -5 -5 v 5.7 c 0,5.5 0.2,5.9 4.7,10.5 2.6,2.6 4.9,4.8 5,4.8 0.2,0 0.3,-4.7 0.3,-10.5 z"
       id="path109" />
    <path
       d="M 509.7,133.8 C 509.3,121 509,87.2 509,58.8 V 7 H 555.5 602 V 24.5 42 H 576.5 551 v 11 11 h 21 21 V 81.5 99 h -21 -21 v 11.5 11.5 l 25.3,0.2 25.2,0.3 0.3,17.3 0.2,17.2 h -45.8 -45.9 z"
       id="path111" />
  </g>
  <g
     fill="#dd1e07"
     id="g133"
     transform="translate(0,-1)">
    <path
       d="M 64,634.5 C 64,633.7 63.3,633 62.5,633 61.2,633 61,624.6 61,563.5 V 494 h 40 c 39.3,0 40,0 40,2 0,1.1 0.7,2 1.5,2 1.3,0 1.5,3.3 1.5,24.3 l -0.1,24.2 -14.5,15.8 -14.6,15.7 H 103.9 93 v 29 29 H 78.5 C 66.3,636 64,635.8 64,634.5 Z m 42.3,-88.3 5.7,-5.8 V 530.2 520 H 102.5 93 v 16 16 h 3.8 c 3.3,0 4.5,-0.8 9.5,-5.8 z"
       id="path115" />
    <path
       d="m 166,634.5 c 0,-0.8 -0.9,-1.5 -2,-1.5 -2,0 -2,-0.5 -1.8,-69.2 l 0.3,-69.3 39.8,-0.3 c 39.2,-0.2 39.9,-0.2 40.4,1.8 0.3,1.1 1.2,2 1.9,2 1.1,0 1.4,2.3 1.4,11 v 11 l -25.7,0.2 -25.8,0.3 -0.3,15.8 -0.3,15.7 H 214 c 17.1,0 20,0.2 20,1.5 0,0.8 0.7,1.5 1.5,1.5 1.2,0 1.5,1.9 1.5,11.5 V 578 h -21.5 -21.6 l 0.3,15.8 0.3,15.7 24.3,0.3 c 19.7,0.2 24.2,0.5 24.2,1.6 0,0.8 0.7,1.6 1.5,2 1.2,0.4 1.5,2.7 1.5,11.6 v 11 h -40 c -34.9,0 -40,-0.2 -40,-1.5 z"
       id="path117" />
    <path
       d="m 267,634.5 c 0,-0.8 -0.7,-1.5 -1.5,-1.5 -1.3,0 -1.5,-8.4 -1.5,-69.5 V 494 h 40 c 39.3,0 40,0 40,2 0,1.1 0.7,2 1.5,2 1.3,0 1.5,3.1 1.5,21.5 V 541 h -14.5 c -12.2,0 -14.5,-0.2 -14.5,-1.5 0,-0.8 -0.7,-1.5 -1.5,-1.5 -1.2,0 -1.5,-1.7 -1.5,-9 v -9 h -9.5 -9.5 v 45 45 h 9.5 9.4 l 0.3,-10.2 0.3,-10.3 14.3,-0.3 C 343.5,589 344,589 344,591 c 0,1.1 0.7,2 1.5,2 1.3,0 1.5,3.1 1.5,21.5 V 636 h -40 c -34.9,0 -40,-0.2 -40,-1.5 z"
       id="path119" />
    <path
       d="m 369,634.5 c 0,-0.8 -0.9,-1.5 -2,-1.5 -2,0 -2,-0.5 -1.8,-69.2 l 0.3,-69.3 14.3,-0.3 C 393.5,494 394,494 394,496 c 0,1.1 0.7,2 1.5,2 1.3,0 1.5,3.7 1.5,27 v 27 h 10 10 v -29 -29 h 14.1 c 13.2,0 14.1,0.1 14.6,2 0.3,1.1 1.2,2 1.9,2 1.2,0 1.4,10.9 1.4,69 v 69 h -14.5 c -12.2,0 -14.5,-0.2 -14.5,-1.5 0,-0.8 -0.7,-1.5 -1.5,-1.5 -1.3,0 -1.5,-3.7 -1.5,-27.5 V 578 h -10 -10 v 29 29 h -14 c -11.8,0 -14,-0.2 -14,-1.5 z"
       id="path121" />
    <path
       d="m 470,634.5 c 0,-0.8 -0.7,-1.5 -1.5,-1.5 -1.3,0 -1.5,-8.4 -1.5,-69.5 V 494 h 40 c 39.3,0 40,0 40,2 0,1.1 0.7,2 1.5,2 1.2,0 1.5,1.9 1.5,11 v 11 H 524.5 499 v 16 16 h 19.3 c 18.9,0 19.2,0.1 21.5,2.4 2,2.2 2.2,3.4 2.2,13 V 578 H 520.5 499 v 16 16 h 24 c 20.7,0 24,0.2 24,1.5 0,0.8 0.7,1.5 1.5,1.5 1.2,0 1.5,1.9 1.5,11.5 V 636 h -40 c -34.9,0 -40,-0.2 -40,-1.5 z"
       id="path123" />
    <path
       d="m 178,481.5 c 0,-0.8 -0.6,-1.5 -1.4,-1.5 -0.8,0 -2.3,-3.4 -4,-9.6 -1.5,-5.3 -2.5,-9.8 -2.4,-9.9 0.2,-0.2 7.5,-3.9 16.3,-8.3 l 16,-8 16.3,8.2 c 9,4.5 16,8.5 15.7,8.8 -0.4,0.4 0.2,1.1 1.3,1.7 1.9,1 1.8,1.2 -0.7,10.5 -1.4,5.3 -2.9,9.6 -3.4,9.6 -0.4,0 -6.6,-2.9 -13.7,-6.5 l -13,-6.5 -13,6.5 c -7.1,3.6 -13.2,6.5 -13.5,6.5 -0.3,0 -0.5,-0.7 -0.5,-1.5 z"
       id="path125" />
    <path
       d="m 207,323 v -75 h 46 46 v 17 17 H 273.5 248 v 12 12 h 21 21 v 17 17 h -21 -21 v 12 12 h 25.5 25.5 v 17 17 h -46 -46 z"
       id="path127" />
    <path
       d="M 334,340 V 282 H 321.5 309 v -17 -17 h 46 46 v 17 17 h -13 -13 v 58 58 H 354.5 334 Z"
       id="path129" />
    <path
       d="m 207.5,149.8 c 0.3,-4 1.7,-35 3,-68.8 1.4,-33.8 2.8,-64.3 3.1,-67.8 L 214.2,7 h 39.2 39.2 l 2.8,63.3 c 1.5,34.7 3,68.5 3.3,75 l 0.6,11.7 H 278.7 258 v -18.7 c 0,-10.4 -0.3,-19.8 -0.6,-21 -0.5,-1.9 -1.3,-2.3 -4.5,-2.3 H 249 v 7.3 c 0,4.1 -0.3,13.5 -0.7,21 L 247.7,157 H 227.3 206.9 Z M 255.6,72.3 C 255.3,68.1 255,59.6 255,53.3 255,44 254.7,42 253.5,42 c -2,0 -2.3,2.2 -2.8,21.3 L 250.3,80 h 3 3 z"
       id="path131" />
  </g>
  <g
     fill="#e22d07"
     id="g151"
     transform="translate(0,-1)">
    <path
       d="M 64.4,634.5 C 64,633.7 63.2,633 62.4,633 61.2,633 61,622.3 61,564 v -69 h 40 c 34.9,0 40,0.2 40,1.5 0,0.8 0.7,1.5 1.5,1.5 1.3,0 1.5,3.3 1.5,23.8 v 23.9 L 129.3,561.8 114.5,578 H 103.8 93 l -0.2,28.8 -0.3,28.7 -13.8,0.3 c -11.6,0.2 -13.8,0 -14.3,-1.3 z m 41.9,-88.3 5.7,-5.8 V 530.2 520 H 102.5 93 v 16 16 h 3.8 c 3.3,0 4.5,-0.8 9.5,-5.8 z"
       id="path135" />
    <path
       d="m 166,634.5 c 0,-0.8 -0.9,-1.5 -2,-1.5 -2,0 -2,-0.7 -2,-69 v -69 h 40.5 c 35.3,0 40.5,0.2 40.5,1.5 0,0.8 0.5,1.5 1,1.5 0.6,0 1,4.3 1,11 v 11 H 219.5 194 v 16 16 h 20 c 19.3,0 20,0.1 20,2 0,1.1 0.7,2 1.5,2 1.2,0 1.5,1.9 1.5,11 v 11 H 215.5 194 v 16 16 h 24.1 c 23.2,0 24.1,0.1 24.6,2 0.3,1.1 0.9,2 1.4,2 0.5,0 0.9,5 0.9,11 v 11 h -39.5 c -34.4,0 -39.5,-0.2 -39.5,-1.5 z"
       id="path137" />
    <path
       d="m 267.4,634.5 c -0.4,-0.8 -1.2,-1.5 -2,-1.5 -1.2,0 -1.4,-10.7 -1.4,-69 v -69 h 40 c 34.9,0 40,0.2 40,1.5 0,0.8 0.7,1.5 1.5,1.5 1.3,0 1.5,3.1 1.5,21.5 V 541 h -14 c -11.8,0 -14,-0.2 -14,-1.5 0,-0.8 -0.9,-1.5 -2,-1.5 -1.9,0 -2,-0.7 -2,-9 v -9 h -9.5 -9.5 v 45 45 h 9.5 9.5 v -10 -10 h 14.5 c 12.2,0 14.5,0.2 14.5,1.5 0,0.8 0.7,1.5 1.5,1.5 1.3,0 1.5,3.1 1.5,21.5 V 636 h -39.5 c -34.2,0 -39.6,-0.2 -40.1,-1.5 z"
       id="path139" />
    <path
       d="m 369,634.5 c 0,-0.8 -0.9,-1.5 -2,-1.5 -2,0 -2,-0.7 -2,-69 v -69 h 14.5 c 12.2,0 14.5,0.2 14.5,1.5 0,0.8 0.7,1.5 1.5,1.5 1.3,0 1.5,3.7 1.5,27 v 27 h 10 10 V 523.5 495 h 14.5 c 12.2,0 14.5,0.2 14.5,1.5 0,0.8 0.5,1.5 1,1.5 0.7,0 1,23.7 1,69 v 69 h -14 c -11.8,0 -14,-0.2 -14,-1.5 0,-0.8 -0.7,-1.5 -1.5,-1.5 -1.3,0 -1.5,-3.7 -1.5,-27.5 V 578 h -10 -10 v 29 29 h -14 c -11.8,0 -14,-0.2 -14,-1.5 z"
       id="path141" />
    <path
       d="m 470.4,634.5 c -0.4,-0.8 -1.2,-1.5 -2,-1.5 -1.2,0 -1.4,-10.7 -1.4,-69 v -69 h 40 c 34.9,0 40,0.2 40,1.5 0,0.8 0.7,1.5 1.5,1.5 1.2,0 1.5,1.9 1.5,11 v 11 H 524.5 499 v 16 16 h 19.5 c 16.8,0 19.5,0.2 19.5,1.5 0,0.9 0.7,1.8 1.5,2.1 1.2,0.5 1.5,2.7 1.5,11.5 V 578 h -21 -21 v 16 16 h 24 c 23.3,0 24,0.1 24,2 0,1.1 0.7,2 1.5,2 1.2,0 1.5,1.9 1.5,11 v 11 h -39.5 c -34.2,0 -39.6,-0.2 -40.1,-1.5 z"
       id="path143" />
    <path
       d="m 178.3,481.1 c -0.3,-1.1 -1.1,-1.7 -1.7,-1.5 -0.9,0.3 -2,-2.4 -3.6,-8.3 -1.3,-4.8 -2.5,-9.3 -2.7,-9.8 -0.2,-0.6 6.9,-4.6 15.7,-9 l 16,-7.9 15.2,7.4 c 8.4,4.1 16.4,8.6 17.6,9.9 l 2.4,2.4 -2.3,8.6 c -1.2,4.7 -2.4,8.9 -2.6,9.3 -0.2,0.4 -6.3,-2.2 -13.6,-5.8 l -13.2,-6.6 -13.4,6.6 c -12.2,6.2 -13.3,6.5 -13.8,4.7 z"
       id="path145" />
    <path
       d="m 216,393.5 c 0,-0.8 -0.7,-1.5 -1.5,-1.5 -1.2,0 -1.5,-4 -1.7,-25.8 -0.3,-23.5 -0.5,-26 -2.1,-27.7 -1.8,-1.7 -1.8,-1.7 -1.5,0 0.2,1 -0.2,2 -0.9,2.2 -0.9,0.3 -1.2,-10.9 -1.3,-46.1 L 206.9,248 h 46.1 46 v 17 17 H 273.5 248 v 12 12 h 21 21.1 l -0.1,16.8 -0.2,16.8 -20.8,-0.1 c -18,-0.1 -21,0.1 -21.3,1.5 -0.3,1.1 -0.7,0.8 -1.5,-1 -0.8,-1.9 -1.1,1 -1.1,13.3 L 245,369 h 23.6 c 29.7,0 28.4,-0.7 28.4,15.3 V 395 h -40.5 c -35.3,0 -40.5,-0.2 -40.5,-1.5 z"
       id="path147" />
    <path
       d="m 343,393.5 c 0,-0.8 -0.7,-1.5 -1.5,-1.5 -1.3,0 -1.5,-3.4 -1.6,-24.7 0,-13.7 -0.4,-25.7 -0.9,-26.8 -0.5,-1.1 -0.9,-1.5 -0.9,-1 -0.1,0.6 -0.6,0.3 -1.1,-0.5 -0.8,-1.2 -1,-1.1 -1,0.8 0,1.2 -0.4,2.2 -1,2.2 -0.6,0 -1,-10.7 -1,-30 V 282 H 321.5 309 v -17 -17 h 46 46 v 17 17 h -13 -13 v 29 c 0,25.1 -0.2,29 -1.5,29 -1.3,0 -1.5,3.7 -1.5,27.5 V 395 h -14.5 c -12.2,0 -14.5,-0.2 -14.5,-1.5 z"
       id="path149" />
  </g>
  <g
     fill="#e63a08"
     id="g169"
     transform="translate(0,-1)">
    <path
       d="m 65,634 c 0,-0.5 -0.9,-1 -2,-1 -2,0 -2,-0.7 -2,-69 v -69 h 40 c 34.9,0 40,0.2 40,1.5 0,0.8 0.7,1.5 1.5,1.5 1.3,0 1.5,3.3 1.5,23.8 v 23.7 l -14.5,15.7 -14.5,15.7 -11.3,0.3 -11.2,0.3 -0.3,28.8 L 92,635 H 78.5 C 70.2,635 65,634.6 65,634 Z m 41.9,-87.9 5.1,-5.9 V 530.1 520 H 102 92 v 16 16 h 4.9 c 4.7,0 5.1,-0.2 10,-5.9 z"
       id="path153" />
    <path
       d="m 166,634.1 c 0,-0.5 -0.9,-1.1 -2,-1.4 -2,-0.5 -2,-1.4 -2,-69.1 V 495 h 40.5 c 35.3,0 40.5,0.2 40.5,1.5 0,0.8 0.5,1.5 1,1.5 0.6,0 1,4.3 1,11 v 11 H 219.5 194 v 16 16 h 19.6 c 18.7,0 19.6,0.1 20.1,2 0.3,1.1 1.2,2 1.9,2 1.1,0 1.4,2.2 1.4,10.5 V 577 H 215.5 194 v 16.5 16.5 h 24.1 c 23.2,0 24.1,0.1 24.6,2 0.3,1.1 0.9,2 1.4,2 0.5,0 0.9,4.7 0.9,10.5 V 635 h -39.5 c -22.2,0 -39.5,-0.4 -39.5,-0.9 z"
       id="path155" />
    <path
       d="m 268,634 c 0,-0.5 -0.9,-1 -2,-1 -2,0 -2,-0.7 -2,-69 v -69 h 40 c 34.9,0 40,0.2 40,1.5 0,0.8 0.7,1.5 1.5,1.5 1.3,0 1.5,3.1 1.5,21.5 V 541 h -14 c -11.3,0 -14,-0.3 -14,-1.4 0,-0.7 -0.9,-1.6 -2,-1.9 -1.8,-0.5 -2,-1.4 -2,-9.1 V 520 h -10 -10 v 45 45 h 10 10 v -10 -10 h 14.5 c 12.2,0 14.5,0.2 14.5,1.5 0,0.8 0.7,1.5 1.5,1.5 1.3,0 1.5,3 1.5,21 v 21 h -39.5 c -25.7,0 -39.5,-0.4 -39.5,-1 z"
       id="path157" />
    <path
       d="m 369,634.1 c 0,-0.5 -0.9,-1.1 -2,-1.4 -2,-0.5 -2,-1.4 -2,-69.1 V 495 h 14.5 c 12.2,0 14.5,0.2 14.5,1.5 0,0.8 0.7,1.5 1.5,1.5 1.3,0 1.5,3.7 1.5,27 v 27 h 10 10 V 523.5 495 h 14.5 c 12.2,0 14.5,0.2 14.5,1.5 0,0.8 0.5,1.5 1,1.5 0.7,0 1,23.5 1,68.5 V 635 h -14 c -8.7,0 -14,-0.4 -14,-1 0,-0.5 -0.7,-1 -1.5,-1 -1.3,0 -1.5,-3.8 -1.5,-28 v -28 h -10 -10 v 29 29 h -14 c -7.7,0 -14,-0.4 -14,-0.9 z"
       id="path159" />
    <path
       d="m 471,634 c 0,-0.5 -0.9,-1 -2,-1 -2,0 -2,-0.7 -2,-69 v -69 h 40 c 34.9,0 40,0.2 40,1.5 0,0.8 0.7,1.5 1.5,1.5 1.2,0 1.5,1.9 1.5,11 v 11 h -26 -26 v 16 16 h 20 c 19.3,0 20,0.1 20,2 0,1.1 0.7,2 1.5,2 1.2,0 1.5,1.8 1.5,10.5 V 577 l -21.2,0.2 -21.3,0.3 -0.3,16.3 -0.2,16.2 h 24.5 c 23.8,0 24.5,0.1 24.5,2 0,1.1 0.7,2 1.5,2 1.2,0 1.5,1.8 1.5,10.5 V 635 h -39.5 c -25.7,0 -39.5,-0.4 -39.5,-1 z"
       id="path161" />
    <path
       d="m 178.1,480.3 c -0.5,-1 -1.3,-1.6 -1.8,-1.3 -1.1,0.7 -6.2,-17.2 -5.2,-18.5 0.4,-0.5 7.5,-4.4 15.8,-8.5 l 15.1,-7.4 16,7.9 c 8.8,4.4 16,8.4 16,8.9 0,0.5 0.7,1.4 1.5,2 1.3,1 1.2,2.1 -0.8,9.3 -1.2,4.5 -2.5,8.4 -2.8,8.7 -0.3,0.4 -6.3,-2.1 -13.2,-5.4 -7,-3.3 -13.1,-6 -13.7,-6 -0.6,0 -6.4,2.7 -13,6 -6.6,3.3 -12.2,6 -12.4,6 -0.3,0 -0.9,-0.8 -1.5,-1.7 z"
       id="path163" />
    <path
       d="m 216,393.5 c 0,-0.8 -0.7,-1.5 -1.5,-1.5 -1.3,0 -1.5,-6 -1.5,-47.9 v -48 l -2.7,-0.3 -2.8,-0.3 -0.3,-23.7 L 207,248 h 46 46 v 17 17 H 273.5 248 v 7 c 0,5.8 -0.3,6.8 -1.5,6.4 -1.3,-0.5 -1.5,0.7 -1.5,7.5 v 8.1 h 20 c 17.1,0 20,0.2 20,1.5 0,0.8 0.7,1.5 1.5,1.5 1.2,0 1.5,1.9 1.5,11.5 V 337 H 266.5 245 v 16 16 h 24.1 c 23.2,0 24.1,0.1 24.6,2 0.3,1.1 0.9,2 1.4,2 0.5,0 0.9,5 0.9,11 v 11 h -40 c -34.9,0 -40,-0.2 -40,-1.5 z"
       id="path165" />
    <path
       d="m 343,393.5 c 0,-0.8 -0.7,-1.5 -1.5,-1.5 -1.3,0 -1.5,-6 -1.5,-48.4 v -48.3 l -3,0.3 -3,0.4 v -7 -7 H 321.5 309 v -17 -17 h 46 46 v 17 17 h -13 -13 v 7.1 c 0,6.2 -0.2,7 -1.5,5.9 -1.3,-1.1 -1.5,4.5 -1.5,49.4 V 395 h -14.5 c -12.2,0 -14.5,-0.2 -14.5,-1.5 z"
       id="path167" />
  </g>
  <g
     fill="#ea4608"
     id="g205"
     transform="translate(0,-1)">
    <path
       d="m 61,564 v -69 h 40 c 34.9,0 40,0.2 40,1.5 0,1.3 -4.9,1.5 -38,1.5 H 65 v 67.5 c 0,66.8 0,67.5 -2,67.5 -2,0 -2,-0.7 -2,-69 z"
       id="path171" />
    <path
       d="M 162.7,632.3 C 162.3,632 162,600.9 162,563.3 V 495 h 40.5 c 35.3,0 40.5,0.2 40.5,1.5 0,1.3 -4.9,1.5 -38.5,1.5 H 166 v 67.5 c 0,55.6 -0.2,67.5 -1.3,67.5 -0.8,0 -1.7,-0.3 -2,-0.7 z"
       id="path173" />
    <path
       d="m 264,564 v -69 h 40 c 34.9,0 40,0.2 40,1.5 0,1.3 -4.9,1.5 -38,1.5 h -38 v 67.5 c 0,66.8 0,67.5 -2,67.5 -2,0 -2,-0.7 -2,-69 z"
       id="path175" />
    <path
       d="M 365.7,632.3 C 365.3,632 365,600.9 365,563.3 V 495 h 14.5 c 12.2,0 14.5,0.2 14.5,1.5 0,1.3 -2.1,1.5 -12.5,1.5 H 369 v 67.5 c 0,55.6 -0.2,67.5 -1.3,67.5 -0.8,0 -1.7,-0.3 -2,-0.7 z"
       id="path177" />
    <path
       d="m 417,605 c 0,-24.2 0.2,-28 1.5,-28 1.3,0 1.5,3.8 1.5,28 0,24.2 -0.2,28 -1.5,28 -1.3,0 -1.5,-3.8 -1.5,-28 z"
       id="path179" />
    <path
       d="m 467,564 v -69 h 40 c 34.9,0 40,0.2 40,1.5 0,1.3 -4.9,1.5 -38,1.5 h -38 v 67.5 c 0,66.8 0,67.5 -2,67.5 -2,0 -2,-0.7 -2,-69 z"
       id="path181" />
    <path
       d="m 194,612 c 0,-2 0.4,-2 24.3,-1.8 20.7,0.3 24.2,0.5 24.2,1.8 0,1.3 -3.5,1.5 -24.2,1.8 C 194.4,614 194,614 194,612 Z"
       id="path183" />
    <path
       d="m 295.2,612.3 c 0.3,-1.5 1.7,-1.8 10.1,-2.1 l 9.7,-0.3 V 600 590 h 14.5 c 12.2,0 14.5,0.2 14.5,1.5 0,1.3 -2.1,1.5 -12.5,1.5 H 319 v 10.5 10.5 h -12.1 c -10.9,0 -12,-0.2 -11.7,-1.7 z"
       id="path185" />
    <path
       d="m 498.2,612.3 c 0.3,-1.7 2.4,-1.8 24.6,-2.1 23.7,-0.2 24.2,-0.2 24.2,1.8 0,2 -0.6,2 -24.6,2 -22.8,0 -24.5,-0.1 -24.2,-1.7 z"
       id="path187" />
    <path
       d="m 92.2,554.3 c 0.2,-1.4 1.5,-1.9 5,-2.1 4.3,-0.3 5.1,-0.8 9.7,-6.1 l 5.1,-5.9 v -10.1 c 0,-9.4 0.1,-10.1 2,-10.1 1.9,0 2,0.7 2,11.8 v 11.7 l -6.1,6.3 -6.1,6.2 h -6 c -5.1,0 -5.9,-0.2 -5.6,-1.7 z"
       id="path189" />
    <path
       d="m 194,554 c 0,-2 0.5,-2 19.7,-1.8 17.9,0.3 19.8,0.5 20.1,2.1 0.3,1.6 -1.1,1.7 -19.7,1.7 -19.5,0 -20.1,-0.1 -20.1,-2 z"
       id="path191" />
    <path
       d="m 397,554 c 0,-1.9 0.7,-2 10,-2 h 10 V 523.5 495 h 14.5 c 12.2,0 14.5,0.2 14.5,1.5 0,1.3 -2.1,1.5 -13,1.5 h -13 v 29 29 h -11.5 c -10.8,0 -11.5,-0.1 -11.5,-2 z"
       id="path193" />
    <path
       d="m 498.2,554.3 c 0.3,-1.6 2.2,-1.8 20.1,-2.1 19.2,-0.2 19.7,-0.2 19.7,1.8 0,1.9 -0.6,2 -20.1,2 -18.6,0 -20,-0.1 -19.7,-1.7 z"
       id="path195" />
    <path
       d="m 315.7,537.3 c -0.4,-0.3 -0.7,-4.4 -0.7,-9 0,-7.6 0.2,-8.3 2,-8.3 1.9,0 2,0.7 2,9 0,6.8 -0.3,9 -1.3,9 -0.8,0 -1.7,-0.3 -2,-0.7 z"
       id="path197" />
    <path
       d="m 178.6,480.5 c -0.3,-0.8 -1.1,-1.4 -1.7,-1.3 -1.2,0.3 -5.7,-12.6 -5.8,-16.7 -0.1,-1.6 2.9,-3.5 15.6,-9.9 l 15.8,-7.8 15.7,7.8 c 8.7,4.3 15.8,8.3 15.8,8.8 0,0.5 0.7,1.4 1.5,2 1.3,1 1.1,2.2 -1,9.5 -1.4,4.6 -2.7,8.6 -2.9,8.8 -0.2,0.2 -6.2,-2.5 -13.2,-6 l -12.9,-6.5 -12.5,6.4 c -6.9,3.4 -12.8,6.3 -13.1,6.3 -0.4,0.1 -0.9,-0.6 -1.3,-1.4 z"
       id="path199" />
    <path
       d="m 217,393.5 c 0,-0.8 -0.9,-1.5 -2,-1.5 -2,0 -2,-0.7 -2,-66 v -66 l -2.4,0.4 c -2,0.4 -2.5,-0.1 -3,-2.6 -0.3,-1.7 -0.6,-4.6 -0.6,-6.4 V 248 h 46 46 v 7.3 c 0,4.9 -0.3,6.7 -1,5.7 -0.6,-1 -1,1.7 -1.2,8.5 l -0.3,10 -25.7,0.3 -25.8,0.2 v 15.5 15.5 h 19.1 19.2 l 2.3,2.6 c 2.2,2.3 2.4,3.4 2.4,13 V 337 H 266.5 245 v 16.5 16.5 h 23.5 c 29.1,0 27.5,-0.9 27.5,14.5 V 395 h -39.5 c -34.4,0 -39.5,-0.2 -39.5,-1.5 z"
       id="path201" />
    <path
       d="m 344,393.5 c 0,-0.8 -0.9,-1.5 -2,-1.5 -2,0 -2,-0.7 -2,-56 v -56 h -11 c -8.7,0 -11,-0.3 -11,-1.4 0,-0.7 -0.9,-1.6 -2,-1.9 -1.8,-0.5 -2,-1.4 -2,-8.6 0,-4.7 -0.4,-8.1 -1,-8.1 -0.5,0 -1,0.5 -1,1.1 0,0.6 -0.7,0.4 -1.5,-0.5 -1,-0.9 -1.5,-3.4 -1.5,-7 V 248 h 46 46 v 6 c 0,4.7 -0.3,6 -1.5,6 -1.2,0 -1.5,1.8 -1.5,10 v 10 h -13 -13 v 57.5 57.5 h -14 c -11.8,0 -14,-0.2 -14,-1.5 z"
       id="path203" />
  </g>
  <g
     fill="#d35e08"
     id="g219"
     transform="translate(0,-1)">
    <path
       d="M 6,82 V 7 H 52 98 V 34.5 62 H 78 58 V 52 42 H 52.5 47 l 0.2,40.3 0.3,40.2 h 5 5 L 57.8,112.3 58.1,102 H 78 98 V 129.5 157 H 52 6 Z"
       id="path207" />
    <path
       d="M 108,82 V 7 h 20.5 20.5 v 29 29 h 5 5 V 36 7 h 20.5 20.5 v 75 75 H 179.5 159 V 128 99 h -5 -5 v 29 29 H 128.5 108 Z"
       id="path209" />
    <path
       d="m 207.5,150.3 c 0.3,-3.8 1.6,-34.7 3,-68.8 1.4,-34.1 2.8,-64.8 3.1,-68.3 L 214.2,7 h 39.2 39.2 l 2.8,63.3 c 1.5,34.7 3,68.5 3.3,75 l 0.6,11.7 H 278.7 258 v -18.7 c 0,-10.4 -0.3,-19.8 -0.6,-21 -0.5,-1.9 -1.3,-2.3 -4.5,-2.3 H 249 v 7.3 c 0,4.1 -0.3,13.5 -0.7,21 L 247.7,157 H 227.3 207 Z m 48.1,-78 C 255.3,68.1 255,59.6 255,53.3 255,44 254.7,42 253.5,42 c -2,0 -2.3,2.2 -2.8,21.3 L 250.3,80 h 3 3 z"
       id="path211" />
    <path
       d="m 307,129 v -28 h 20 19.9 l 0.3,10.8 0.3,10.7 h 5 5 l 0.3,-6.1 0.3,-6.1 L 332.5,85.4 307,60.6 V 33.8 7 h 46 46 V 35.5 64 H 378.5 358 V 53 42 h -5.5 -5.5 v 5.9 5.9 l 26,25.2 26,25.3 v 26.3 26.4 h -46 -46 z"
       id="path213" />
    <path
       d="m 408,129 v -28 h 20.5 20.5 v 11 11 h 5 5 v -6.3 -6.2 L 433.5,85 408,59.5 V 33.3 7 h 46 46 V 35.5 64 h -20.2 -20.3 l 20.3,20.3 20.2,20.2 V 130.8 157 H 454 408 Z M 459,52.5 V 42 h -5 -5 v 5.7 c 0,5.5 0.2,5.9 4.7,10.5 2.6,2.6 4.9,4.8 5,4.8 0.2,0 0.3,-4.7 0.3,-10.5 z"
       id="path215" />
    <path
       d="M 510,82 V 7 h 46 46 V 24.5 42 h -26 -26.1 l 0.3,11.3 0.3,11.2 21.3,0.3 21.2,0.2 v 17 17 l -21.2,0.2 -21.3,0.3 v 11.5 11.5 l 25.8,0.3 25.7,0.2 v 17 17 h -46 -46 z"
       id="path217" />
  </g>
  <g
     fill="#f3620a"
     id="g267"
     transform="translate(0,-1)">
    <path
       d="m 61,564 v -69 h 40 c 34.9,0 40,0.2 40,1.5 0,1.3 -4.9,1.5 -38.5,1.5 H 64 v 67.5 C 64,624.8 63.8,633 62.5,633 61.2,633 61,624.7 61,564 Z"
       id="path221" />
    <path
       d="m 163,564 v -69 h 39.5 c 34.4,0 39.5,0.2 39.5,1.5 0,1.3 -4.9,1.5 -38,1.5 h -38 v 67.5 c 0,59.3 -0.2,67.5 -1.5,67.5 -1.3,0 -1.5,-8.3 -1.5,-69 z"
       id="path223" />
    <path
       d="m 264,564 v -69 h 40 c 34.9,0 40,0.2 40,1.5 0,1.3 -4.9,1.5 -38.5,1.5 H 267 v 67.5 c 0,59.3 -0.2,67.5 -1.5,67.5 -1.3,0 -1.5,-8.3 -1.5,-69 z"
       id="path225" />
    <path
       d="m 366,564 v -69 h 14 c 11.8,0 14,0.2 14,1.5 0,1.3 -2.1,1.5 -12.5,1.5 H 369 v 67.5 c 0,59.3 -0.2,67.5 -1.5,67.5 -1.3,0 -1.5,-8.3 -1.5,-69 z"
       id="path227" />
    <path
       d="m 417,605.5 c 0,-23.8 0.2,-27.5 1.5,-27.5 1.3,0 1.5,3.7 1.5,27.5 0,23.8 -0.2,27.5 -1.5,27.5 -1.3,0 -1.5,-3.7 -1.5,-27.5 z"
       id="path229" />
    <path
       d="m 467,564 v -69 h 40 c 34.9,0 40,0.2 40,1.5 0,1.3 -4.9,1.5 -38.5,1.5 H 470 v 67.5 c 0,59.3 -0.2,67.5 -1.5,67.5 -1.3,0 -1.5,-8.3 -1.5,-69 z"
       id="path231" />
    <path
       d="m 194,612.5 c 0,-1.3 3.3,-1.5 24,-1.5 20.7,0 24,0.2 24,1.5 0,1.3 -3.3,1.5 -24,1.5 -20.7,0 -24,-0.2 -24,-1.5 z"
       id="path233" />
    <path
       d="m 296,612.6 c 0,-1.2 1.9,-1.6 9.8,-1.8 l 9.7,-0.3 0.3,-10.2 0.3,-10.3 H 330 c 11.8,0 14,0.2 14,1.5 0,1.3 -2.1,1.5 -12.5,1.5 h -12.4 l -0.3,10.3 -0.3,10.2 -11.2,0.3 c -9.5,0.2 -11.3,0 -11.3,-1.2 z"
       id="path235" />
    <path
       d="m 499,612.5 c 0,-1.3 3.3,-1.5 24,-1.5 20.7,0 24,0.2 24,1.5 0,1.3 -3.3,1.5 -24,1.5 -20.7,0 -24,-0.2 -24,-1.5 z"
       id="path237" />
    <path
       d="m 93,554.5 c 0,-1.1 1.1,-1.5 3.9,-1.5 3.6,0 4.5,-0.6 10,-6.7 l 6.1,-6.8 v -9.7 c 0,-8 0.3,-9.8 1.5,-9.8 1.2,0 1.5,2 1.5,11.8 v 11.8 l -6.3,6.2 c -6.1,6 -6.4,6.2 -11.5,6.2 -4,0 -5.2,-0.4 -5.2,-1.5 z"
       id="path239" />
    <path
       d="m 194,554.5 c 0,-1.3 2.8,-1.5 20.1,-1.5 15.6,0 20,0.3 19.7,1.3 -0.4,0.9 -5.5,1.3 -20.1,1.5 -17.1,0.2 -19.7,0 -19.7,-1.3 z"
       id="path241" />
    <path
       d="m 397,554.5 c 0,-1.2 1.8,-1.5 10,-1.5 h 10 v -29 -29 h 14 c 11.8,0 14,0.2 14,1.5 0,1.3 -2.1,1.5 -12.5,1.5 H 420 v 29 29 h -11.5 c -9.6,0 -11.5,-0.3 -11.5,-1.5 z"
       id="path243" />
    <path
       d="m 499,554.5 c 0,-1.3 2.8,-1.5 19.5,-1.5 16.7,0 19.5,0.2 19.5,1.5 0,1.3 -2.8,1.5 -19.5,1.5 -16.7,0 -19.5,-0.2 -19.5,-1.5 z"
       id="path245" />
    <path
       d="m 316,529.1 c 0,-7.5 0.3,-9.1 1.5,-9.1 1.3,0 1.5,1.4 1.3,8.7 -0.2,5.8 -0.7,8.8 -1.5,9.1 -1,0.3 -1.3,-1.9 -1.3,-8.7 z"
       id="path247" />
    <path
       d="m 173.1,470.8 c -1.2,-4.6 -2.1,-8.8 -2.1,-9.3 0,-0.6 7.1,-4.6 15.8,-8.9 l 15.8,-7.8 15.4,7.7 c 16.9,8.4 16.6,8.2 15.8,9.1 -0.3,0.3 -6.8,-2.6 -14.4,-6.4 l -13.9,-7 -15.7,7.9 c -8.7,4.4 -15.8,8.2 -15.8,8.7 0,0.4 0.9,3.6 2,7.2 2.4,7.8 2.3,7 0.7,7 -0.9,0 -2.2,-3.1 -3.6,-8.2 z"
       id="path249" />
    <path
       fill="url(#lg0)"
       d="m 217,393.5 c 0,-0.8 -0.9,-1.5 -2,-1.5 -2,0 -2,-0.7 -2,-69 v -69 h 40 c 34.9,0 40,0.2 40,1.5 0,0.8 0.7,1.5 1.5,1.5 1.2,0 1.5,1.9 1.5,11 v 11 H 270.5 245 v 16.5 16.5 h 20 c 17.1,0 20,0.2 20,1.5 0,0.8 0.7,1.5 1.5,1.5 1.2,0 1.5,1.9 1.5,11 v 11 H 266.5 245 v 16.5 16.5 h 24 c 20.7,0 24,0.2 24,1.5 0,0.8 0.7,1.5 1.5,1.5 1.2,0 1.5,1.9 1.5,11 v 11 h -39.5 c -34.4,0 -39.5,-0.2 -39.5,-1.5 z"
       id="path251"
       style="fill:url(#linearGradient1314)" />
    <path
       fill="url(#lg0)"
       d="m 344,393.5 c 0,-0.8 -0.9,-1.5 -2,-1.5 -2,0 -2,-0.7 -2,-56.5 V 279 h -11 c -9.1,0 -11,-0.3 -11,-1.5 0,-0.8 -0.7,-1.5 -1.5,-1.5 -1.2,0 -1.5,-1.9 -1.5,-11 v -11 h 40 c 34.9,0 40,0.2 40,1.5 0,0.8 0.7,1.5 1.5,1.5 1.2,0 1.5,1.9 1.5,11 v 11 h -13 -13 v 58 58 h -14 c -11.8,0 -14,-0.2 -14,-1.5 z"
       id="path253"
       style="fill:url(#linearGradient1316)" />
    <path
       d="M 7,82 V 7 H 52.5 98 V 34.5 62 H 78 58.1 L 57.8,51.8 57.5,41.5 h -5 -5 L 47.2,82.3 47,123 H 52.5 58 V 112.5 102 H 78 98 V 129.5 157 H 52.5 7 Z"
       id="path255" />
    <path
       d="M 108,82 V 7 h 20 20 l 0.2,28.8 0.3,28.7 5.3,0.3 5.2,0.3 V 36.1 7 h 20.5 20.5 v 75 75 H 179.5 159 V 128 99 h -5.5 -5.5 v 29 29 h -20 -20 z"
       id="path257" />
    <path
       d="m 208,150.3 c 0,-3.8 1.4,-36.9 3,-73.8 1.6,-36.9 3,-67.6 3,-68.2 0,-1 8.5,-1.3 38.9,-1.3 h 39 l 0.5,5.3 c 0.3,2.8 1.7,32.2 3.1,65.2 1.4,33 2.8,64.4 3.1,69.8 l 0.7,9.7 h -20 -20 l -0.7,-5.2 c -0.3,-2.9 -0.6,-12.4 -0.6,-21 V 115 h -4.3 -4.4 l -0.6,10.7 c -0.4,5.8 -0.7,15.3 -0.7,21 V 157 h -20 -20 z m 47.6,-70.7 c 0.3,-0.8 0.2,-9.7 -0.3,-19.8 -0.7,-15.2 -1.1,-18.3 -2.3,-18.3 -1.3,0 -1.6,3.1 -2.3,18.5 -0.4,10.1 -0.5,19 -0.3,19.7 0.7,1.8 4.5,1.6 5.2,-0.1 z"
       id="path259" />
    <path
       d="m 307,129 v -28 h 20 20 v 11 11 h 5.5 5.5 v -6.3 -6.2 L 332.5,85 307,59.5 V 33.3 7 h 45.5 45.5 v 28 28 h -20 -19.9 l -0.3,-10.7 -0.3,-10.8 h -5 -5 l -0.3,6.1 -0.3,6 25.6,25.2 25.5,25.3 V 130.5 157 H 352.5 307 Z"
       id="path261" />
    <path
       d="m 408,129 v -28 h 20.5 20.5 v 11.1 11 l 5.3,-0.3 5.2,-0.3 0.3,-5.8 0.3,-5.9 -26,-25.5 L 408,59.8 V 33.4 7 h 46 46 v 28 28 h -20 -19.9 l -0.3,-10.7 -0.3,-10.8 -5.2,-0.3 -5.3,-0.3 v 6.7 6.6 l 25.5,25 25.5,25 v 26.4 26.4 h -46 -46 z"
       id="path263" />
    <path
       d="M 510,82 V 7 h 45.5 45.5 v 17 17 l -25.2,0.2 -25.3,0.3 -0.3,11.8 -0.3,11.7 H 571.5 593 V 82 99 H 571.5 550 v 12 12 h 25.5 25.5 v 17 17 H 555.5 510 Z"
       id="path265" />
  </g>
  <g
     fill="#f9720a"
     id="g307"
     transform="translate(0,-1)">
    <path
       d="M 61.7,632.3 C 61.3,632 61,600.9 61,563.3 V 495 h 40 c 34.9,0 40,0.2 40,1.5 0,1.3 -4.9,1.5 -38.5,1.5 H 64 v 67.5 c 0,37.1 -0.4,67.5 -0.8,67.5 -0.5,0 -1.2,-0.3 -1.5,-0.7 z"
       id="path269" />
    <path
       d="M 264.7,632.3 C 264.3,632 264,600.9 264,563.3 V 495 h 40 c 34.9,0 40,0.2 40,1.5 0,1.3 -4.9,1.5 -38.5,1.5 H 267 v 67.5 c 0,37.1 -0.4,67.5 -0.8,67.5 -0.5,0 -1.2,-0.3 -1.5,-0.7 z"
       id="path271" />
    <path
       d="M 366.6,632.3 C 366.3,632 366,600.9 366,563.3 V 495 h 14 c 11.8,0 14,0.2 14,1.5 0,1.3 -2.1,1.5 -12.5,1.5 H 369 v 66.9 c 0,36.9 -0.4,67.2 -0.9,67.5 -0.4,0.3 -1.1,0.3 -1.5,-0.1 z"
       id="path273" />
    <path
       d="m 417.6,632.3 c -0.3,-0.3 -0.6,-12.7 -0.6,-27.5 0,-23.2 0.2,-26.8 1.5,-26.8 1.3,0 1.5,3.7 1.5,26.9 0,24.5 -0.4,29.3 -2.4,27.4 z"
       id="path275" />
    <path
       d="M 467.6,632.3 C 467.3,632 467,600.9 467,563.3 V 495 h 40 c 34.9,0 40,0.2 40,1.5 0,1.3 -4.9,1.5 -38.5,1.5 H 470 v 66.9 c 0,36.9 -0.4,67.2 -0.9,67.5 -0.4,0.3 -1.1,0.3 -1.5,-0.1 z"
       id="path277" />
    <path
       d="M 163,563.5 V 495 h 39.5 c 34.4,0 39.5,0.2 39.5,1.5 0,1.3 -4.9,1.5 -38,1.5 h -38 v 67 c 0,58.9 -0.2,67 -1.5,67 -1.3,0 -1.5,-8.3 -1.5,-68.5 z"
       id="path279" />
    <path
       d="m 296,612 c 0,-0.5 4.4,-1.1 9.8,-1.2 l 9.7,-0.3 0.3,-10.2 0.3,-10.3 H 330 c 11.8,0 14,0.2 14,1.5 0,1.3 -2.1,1.5 -13,1.5 h -13 v 10 10 h -11 c -6.4,0 -11,-0.4 -11,-1 z"
       id="path281" />
    <path
       d="m 93,554 c 0,-0.5 1.7,-1 3.8,-1 3.3,0 4.5,-0.8 10,-6.3 l 6.2,-6.3 v -10.2 c 0,-6.1 0.4,-10.2 1,-10.2 0.6,0 1,4.8 1,12.3 v 12.3 l -5.3,5.2 c -5.1,5 -5.4,5.2 -11,5.2 -3.1,0 -5.7,-0.4 -5.7,-1 z"
       id="path283" />
    <path
       d="m 194,554 c 0,-0.6 7.4,-1 20.1,-1 13.1,0 19.8,0.3 19.4,1 -0.4,0.6 -8.2,1 -20.1,1 -12.3,0 -19.4,-0.4 -19.4,-1 z"
       id="path285" />
    <path
       d="m 316.7,537.3 c -1.1,-1.1 -0.8,-17.3 0.3,-17.3 0.6,0 1,3.7 1,9 0,9 -0.1,9.6 -1.3,8.3 z"
       id="path287" />
    <path
       d="m 173.1,470 c -1.3,-5 -2.2,-9.2 -2,-9.4 0.2,-0.2 7.2,-3.8 15.6,-8 l 15.1,-7.5 16.1,7.6 c 8.9,4.2 16.1,8.1 16.1,8.5 0,0.4 -6.4,-2.4 -14.2,-6.3 l -14.2,-7.1 -15.8,7.8 c -10.1,5 -15.8,8.4 -15.8,9.4 0,0.8 0.7,3.7 1.5,6.4 1.7,5.5 1.9,7.6 0.7,7.6 -0.4,0 -1.8,-4.1 -3.1,-9 z"
       id="path289" />
    <path
       fill="url(#lg0)"
       d="M 213.7,391.4 C 213.3,391 213,359.9 213,322.3 V 254 h 40 c 34.9,0 40,0.2 40,1.5 0,0.8 0.7,1.5 1.5,1.5 1.2,0 1.5,1.9 1.5,11 v 11 H 270.5 245 v 16.5 16.5 h 19.5 c 16.7,0 19.5,0.2 19.5,1.5 0,0.8 0.7,1.5 1.5,1.5 1.2,0 1.5,1.9 1.5,11 v 11 h -21 -21 v 12 c 0,7.3 -0.4,12 -1,12 -0.5,0 -1,-0.5 -1,-1 0,-0.7 -4.5,-1 -12.7,-0.8 l -12.8,0.3 -0.5,15.9 c -0.5,14.9 -1.1,18.1 -3.3,16 z"
       id="path291"
       style="fill:url(#linearGradient1318)" />
    <path
       fill="url(#lg0)"
       d="M 340.7,391.4 C 340.3,391 340,365.5 340,334.8 V 279 h -11 c -9.1,0 -11,-0.3 -11,-1.5 0,-0.8 -0.7,-1.5 -1.5,-1.5 -1.2,0 -1.5,-1.9 -1.5,-11 v -11 h 40 c 34.9,0 40,0.2 40,1.5 0,0.8 0.7,1.5 1.5,1.5 1.2,0 1.5,1.9 1.5,11 v 11 h -13 -13 v 41 c 0,26.7 -0.3,41 -1,41 -0.5,0 -1,-0.4 -1,-1 0,-1.6 -22.7,-1.3 -23.3,0.3 -0.4,1 -0.6,1 -0.6,0 -0.1,-0.7 -0.5,-1.3 -1.1,-1.3 -0.6,0 -1.1,6.5 -1.2,16.2 -0.3,15.1 -0.9,18.4 -3.1,16.2 z"
       id="path293"
       style="fill:url(#linearGradient1320)" />
    <path
       d="M 7,81.8 V 7 H 52.5 98 V 34.5 62 H 78 58.1 L 57.8,51.8 57.5,41.5 h -5 -5 L 47.2,82.3 47,123 H 52.5 58 V 112.5 102 h 20 20 v 27.3 27.2 H 52.5 7 Z"
       id="path295" />
    <path
       d="M 108,81.8 V 7 h 20 20 l 0.2,28.8 0.3,28.7 5.3,0.3 5.2,0.3 V 36.1 7 h 20.5 20.5 v 74.8 74.7 h -19.7 c -12.1,0 -20.1,-0.4 -20.5,-1 C 159.4,155 159,142 159,126.8 V 99 h -5.5 -5.5 l -0.2,28.5 -0.3,28.5 -19.7,0.3 -19.8,0.2 z"
       id="path297" />
    <path
       d="m 208,150 c 0,-3.6 1.4,-36.6 3,-73.5 1.6,-36.9 3,-67.6 3,-68.2 0,-1 8.5,-1.3 38.9,-1.3 h 39 l 0.5,5.3 c 0.3,2.8 1.7,32.4 3.1,65.7 1.4,33.3 2.8,64.6 3.1,69.5 l 0.6,9 h -20 -20 l -0.6,-5 C 258.3,148.8 258,139.4 258,130.8 V 115 h -4.3 -4.4 l -0.6,9.8 c -0.4,5.3 -0.7,14.7 -0.7,20.7 v 11 h -20 -20 z m 47.6,-70.4 c 0.3,-0.8 0.2,-9.7 -0.3,-19.8 -0.7,-15.2 -1.1,-18.3 -2.3,-18.3 -1.3,0 -1.6,3.1 -2.3,18.5 -0.4,10.1 -0.5,19 -0.3,19.7 0.7,1.8 4.5,1.6 5.2,-0.1 z"
       id="path299" />
    <path
       d="M 307,128.8 306.9,101 h 20.1 20 v 11 11 h 5.5 5.5 v -6.3 -6.2 L 332.5,85 307,59.5 V 33.3 7 h 45.5 45.5 v 28 28 h -20 -19.9 l -0.3,-10.7 -0.3,-10.8 h -5 -5 l -0.3,6.1 -0.3,6 25.6,25.3 25.5,25.2 -0.2,26 -0.3,25.9 -45.2,0.3 -45.2,0.2 z"
       id="path301" />
    <path
       d="M 408.5,155.2 C 408.2,154.4 408,141.9 408,127.4 V 101 h 20.5 20.5 v 11 11 h 5.5 5.5 v -6.1 -6.2 L 434,85.3 408,59.8 V 33.4 7 h 46 46 v 28 28 h -20 -19.9 l -0.3,-10.7 -0.3,-10.8 -5.2,-0.3 -5.3,-0.3 v 6.7 6.6 l 25.5,25 25.5,25 v 26.2 26.1 h -45.5 c -36.9,0 -45.6,-0.2 -46,-1.3 z"
       id="path303" />
    <path
       d="M 510,81.8 V 7 h 45.5 45.5 v 17 17 l -25.2,0.2 -25.3,0.3 -0.3,11.8 -0.3,11.7 H 571.5 593 V 82 99 H 571.5 550 v 12 12 h 25.5 25.5 v 16.8 16.7 H 555.5 510 Z"
       id="path305" />
  </g>
  <g
     fill="#ff830b"
     id="g345"
     transform="translate(0,-1)">
    <path
       d="M 163,563.5 V 495 h 39.5 c 34.4,0 39.5,0.2 39.5,1.5 0,1.3 -4.9,1.5 -37.9,1.5 h -37.9 l -0.7,9.3 c -0.3,5 -0.5,35.2 -0.3,67 0.2,45.6 0,57.7 -0.9,57.7 -1,0 -1.3,-14.4 -1.3,-68.5 z"
       id="path309" />
    <path
       d="M 366,563.5 V 495 h 14 c 11.8,0 14,0.2 14,1.5 0,1.3 -2,1.5 -12.4,1.5 h -12.3 l -0.6,6.8 c -0.4,3.7 -0.7,33.8 -0.7,67 0,39.4 -0.3,60.2 -1,60.2 -0.7,0 -1,-23.5 -1,-68.5 z"
       id="path311" />
    <path
       d="m 194,612 c 0,-0.6 8.7,-1 24,-1 15.3,0 24,0.4 24,1 0,0.6 -8.7,1 -24,1 -15.3,0 -24,-0.4 -24,-1 z"
       id="path313" />
    <path
       d="m 296,612 c 0,-0.6 4,-1 10,-1 h 10 V 600.5 590 h 14 c 17.9,0 18.9,1.8 1.3,2.2 l -12.8,0.3 -0.3,10.3 -0.3,10.2 H 307 c -6.7,0 -11,-0.4 -11,-1 z"
       id="path315" />
    <path
       d="m 93,554 c 0,-0.5 1.7,-1 3.8,-1 3.3,0 4.5,-0.8 10,-6.3 l 6.2,-6.3 v -9.6 c 0,-5.4 0.4,-10 1,-10.3 0.6,-0.4 1,3.5 1,11.1 v 11.6 l -5.1,5.9 -5.1,5.9 h -5.9 c -3.3,0 -5.9,-0.4 -5.9,-1 z"
       id="path317" />
    <path
       d="m 194,554 c 0,-0.6 7.2,-1 19.5,-1 12.3,0 19.5,0.4 19.5,1 0,0.6 -7.2,1 -19.5,1 -12.3,0 -19.5,-0.4 -19.5,-1 z"
       id="path319" />
    <path
       d="m 397,554 c 0,-0.6 4,-1 10,-1 h 10 v -29 -29 h 14 c 11.8,0 14,0.2 14,1.5 0,1.3 -2.1,1.5 -12.5,1.5 H 420 v 28.5 28.5 h -11.5 c -7,0 -11.5,-0.4 -11.5,-1 z"
       id="path321" />
    <path
       d="m 316,529.1 c 0,-4.4 0.5,-8.3 1,-8.6 0.6,-0.4 1,2.5 1,7.9 0,5.1 -0.4,8.6 -1,8.6 -0.6,0 -1,-3.3 -1,-7.9 z"
       id="path323" />
    <path
       d="m 175.8,478.5 c -0.9,-1.5 -5.1,-17.6 -4.7,-17.9 0.2,-0.2 7.3,-3.8 15.6,-8 l 15.3,-7.6 16,8 c 8.8,4.4 16,8.2 16,8.5 0,0.3 -6.4,-2.7 -14.3,-6.6 l -14.2,-7.1 -16.2,8 -16.1,8.1 1.9,6.8 c 1.8,6.3 2.1,10.1 0.7,7.8 z"
       id="path325" />
    <path
       fill="url(#lg0)"
       d="m 214,333.2 c 0,-31.9 -0.3,-62.7 -0.7,-68.5 L 212.7,254 h 40 c 39.9,0 40.1,0 40.6,2.1 0.3,1.2 1,1.8 1.6,1.4 0.8,-0.4 1.1,2.9 1.1,10.4 V 279 H 270.5 245 v 16.5 16.5 h 19.5 c 16.7,0 19.5,0.2 19.5,1.5 0,0.8 0.7,1.5 1.5,1.5 0.9,0 1.5,0.9 1.5,2.3 -0.1,2 -0.2,2 -1.1,0.5 C 285,316.1 282.2,316 251,316 h -34 v 23.8 c 0,28.2 -1,51.2 -2.2,51.2 -0.4,0 -0.8,-26 -0.8,-57.8 z"
       id="path327"
       style="fill:url(#linearGradient1322)" />
    <path
       fill="url(#lg0)"
       d="m 340.8,335.3 -0.3,-55.8 -11.2,-0.3 c -9.1,-0.2 -11.3,-0.5 -11.3,-1.7 0,-0.8 -0.7,-1.5 -1.5,-1.5 -1.2,0 -1.5,-1.9 -1.5,-11 v -11 h 40 c 39.3,0 40,0 40,2 0,1.1 0.5,2 1,2 0.6,0 1,4.2 1,10.5 V 279 H 384.5 372 v 20.3 c -0.1,14.2 -0.4,19.7 -1.1,18.5 C 370,316.2 368.2,316 357,316 h -13 v 23.8 c 0,28.1 -1,51.2 -2.1,51.2 -0.5,0 -1,-25.1 -1.1,-55.7 z"
       id="path329"
       style="fill:url(#linearGradient1324)" />
    <path
       d="m 245,371.5 c 0,-1.3 3.3,-1.5 24,-1.5 20.7,0 24,0.2 24,1.5 0,1.3 -3.3,1.5 -24,1.5 -20.7,0 -24,-0.2 -24,-1.5 z"
       id="path331" />
    <path
       d="M 181.8,154.2 C 170.4,154 168,153.7 168,152.5 c 0,-0.8 -0.7,-1.5 -1.5,-1.5 -1.3,0 -1.5,-2.4 -1.5,-16 0,-15.3 -0.1,-16 -2,-16 -1.1,0 -2,0.6 -2,1.3 0,0.8 -0.4,0.7 -1,-0.3 -0.5,-0.8 -1,-5.9 -1,-11.2 V 99 h -5.5 -5.5 v 10.1 c 0,6.4 -0.4,9.8 -1,9.4 -0.7,-0.4 -1,5.7 -1,17.4 V 154 h -14.5 c -12.2,0 -14.5,-0.2 -14.5,-1.5 0,-0.8 -0.7,-1.5 -1.5,-1.5 -1.3,0 -1.5,-2.4 -1.5,-15.9 0,-15.4 -0.1,-16 -2,-15.8 -1.1,0.1 -2,0.5 -2,0.9 0,0.4 -0.4,0.8 -1,0.8 -0.6,0 -1,-20.9 -1,-57 V 7 h 20 20 v 29 29 h 5.5 5.5 V 36 7 h 20.5 20.5 l -0.1,57.3 c 0,31.4 -0.3,56.6 -0.6,56 -1.6,-4.2 -2.3,0.6 -2.3,16.1 0,9.6 -0.3,17.6 -0.7,17.8 -0.5,0.2 -7,0.2 -14.5,0 z"
       id="path333" />
    <path
       d="M 230.3,154.2 C 219.4,154 217,153.7 217,152.5 c 0,-0.8 -0.7,-1.5 -1.6,-1.5 -1.4,0 -1.6,-1.8 -1.3,-16 0.4,-14.7 0.3,-16 -1.3,-16 -1,0 -1.8,0.6 -1.8,1.3 -0.1,0.8 -0.4,0.7 -0.9,-0.3 -0.6,-0.9 0,-23.2 1.5,-55 C 212.9,35.6 214,10.5 214,9.3 V 7 h 38.9 38.9 l 0.6,6.3 c 0.6,6.3 4.6,97.4 4.6,103.5 0,2.1 -0.4,3.1 -1.1,2.6 -0.7,-0.4 -1,4.5 -0.7,17 0.2,9.6 0,17.6 -0.4,17.6 -0.5,0 -6.9,0 -14.3,0 -11.3,0 -13.5,-0.2 -13.5,-1.5 0,-0.8 -0.7,-1.5 -1.5,-1.5 -1.2,0 -1.5,-1.7 -1.5,-9.2 0,-5.1 -0.3,-12.3 -0.6,-15.9 -0.6,-6.3 -0.8,-6.7 -3,-6.4 -1.9,0.2 -2.4,-0.2 -2.4,-2.1 0,-2.2 -0.4,-2.4 -4.5,-2.4 -4.4,0 -4.5,0.1 -4.5,3.1 0,2.7 -0.2,3 -1.5,1.9 -1.3,-1.1 -1.5,0.7 -1.5,15.2 0,11.7 -0.4,16.8 -1.2,17.9 -1,1.1 -4,1.3 -14.5,1.1 z m 25.2,-92.9 c -0.4,-10.9 -0.9,-20 -1.1,-20.2 -0.2,-0.2 -1,-0.1 -1.9,0.2 -1.2,0.5 -1.5,2.3 -1.5,8 0,4.1 -0.3,12.9 -0.7,19.5 L 249.7,81 h 3.3 3.2 z"
       id="path335" />
    <path
       d="m 456.3,154.2 c -34,-0.2 -39.3,-0.4 -39.3,-1.7 0,-0.8 -0.7,-1.5 -1.5,-1.5 -1.3,0 -1.5,-2.4 -1.5,-16 0,-15.3 -0.1,-16 -2,-16 -1.1,0 -2,0.6 -2,1.3 0,0.8 -0.4,0.7 -1,-0.3 -0.5,-0.8 -1,-5.4 -1,-10.2 V 101 h 20.5 20.5 v 10.1 c 0,8.9 -0.2,10 -1.5,8.9 -1.3,-1.1 -1.5,-0.6 -1.5,3.4 v 4.6 h 9.5 9.5 v -4.5 c 0,-3.8 -0.3,-4.5 -1.9,-4.5 -1.1,0 -2.2,0.6 -2.4,1.3 -0.3,0.6 -0.6,-1.4 -0.6,-4.5 L 460,110.2 434,84.9 408,59.6 V 33.3 7 h 46 46 v 28 28 h -20 -19.9 l -0.3,-10.7 -0.3,-10.8 -5.2,-0.3 -5.3,-0.3 v 6.9 7 l 25.5,24.7 25.5,24.8 v 8.6 c 0,5.9 -0.3,8.1 -1,7.1 -0.6,-1 -1,4 -1,15.1 0,11.8 -0.4,16.9 -1.2,18 -1.1,1.2 -7.4,1.4 -40.5,1.1 z"
       id="path337" />
    <path
       d="m 558.7,154.2 c -37,-0.2 -38.8,-0.3 -40.7,-2.2 -1.7,-1.7 -2.1,-3.9 -2.6,-17.5 -0.6,-12 -1,-15.5 -2.1,-15.5 -0.7,0 -1.3,0.6 -1.3,1.3 0,0.8 -0.4,0.7 -1,-0.3 -0.6,-0.9 -1,-23 -1,-57.2 V 7 H 555.5 601 V 24 41 H 575.5 550 V 53 65 H 571.5 593 V 82 99 H 571.5 550 v 10 c 0,6 -0.4,10 -1,10 -0.5,0 -1,2 -1,4.5 v 4.5 h 23.6 c 22.7,0 23.6,0.1 24.1,2 0.3,1.1 1.2,2 1.9,2 1.1,0 1.4,2.3 1.4,10.9 0,6.1 -0.3,11.1 -0.7,11.3 -0.5,0.2 -18.2,0.2 -39.6,0 z"
       id="path339" />
    <path
       d="M 15,152.5 C 15,151.7 14.3,151 13.5,151 12.2,151 12,148.6 12,135 12,119.9 11.9,119 10.1,119 9,119 7.9,119.6 7.7,120.3 7.4,120.9 7.1,95.7 7.1,64.3 L 7,7 H 52.5 98 V 34.5 62 H 78 58 V 51.5 41 H 52.5 47 v 40.1 c 0,35.6 -0.2,40 -1.5,38.9 -1.3,-1.1 -1.5,-0.6 -1.5,3.4 v 4.6 h 9.5 9.5 v -4.3 c 0,-3.2 -0.4,-4.4 -1.5,-4.4 -0.8,0 -1.5,0.4 -1.5,0.9 0,0.4 -0.4,0.8 -0.9,0.8 -0.5,0 -0.9,-4.3 -1,-9.5 L 57.9,102 H 78 98 v 8.5 c 0,5 -0.4,8.5 -1,8.5 -0.6,0 -1,6.5 -1,17.5 V 154 H 55.5 C 20.2,154 15,153.8 15,152.5 Z"
       id="path341" />
    <path
       d="m 316,152.5 c 0,-0.8 -0.6,-1.5 -1.4,-1.5 -1.4,0 -2.6,-11.5 -2.6,-25.2 0,-6.6 -0.1,-6.8 -2.5,-6.8 -2.5,0 -2.5,-0.1 -2.5,-9 v -9 h 20 20 v 9 c 0,5.3 -0.4,9 -1,9 -0.5,0 -1,2 -1,4.5 v 4.5 h 9.5 9.5 v -4.4 c 0,-3.9 -0.3,-4.5 -2,-4.3 -1.1,0.1 -2,0.5 -2,0.9 0,0.4 -0.4,0.8 -0.8,0.8 -0.5,0 -1,-2.5 -1.1,-5.6 L 357.9,109.9 332.4,84.8 307,59.7 V 33.4 7 H 352.5 398 V 35 63 H 378 358 V 52 41 h -5.5 -5.5 v 6.3 6.2 L 372.5,79 398,104.5 v 7.5 c 0,5.2 -0.3,7 -1,6 -0.6,-1 -1,4.8 -1,17.3 V 154 h -40 c -34.9,0 -40,-0.2 -40,-1.5 z"
       id="path343" />
  </g>
  <g
     fill="#ff8e10"
     id="g369"
     transform="translate(0,-1)">
    <path
       d="m 175.6,477.9 c -0.6,-1.5 -4.6,-16.2 -4.6,-16.6 0,-0.2 7.1,-3.8 15.8,-8.2 14.7,-7.3 15.9,-7.8 18.2,-6.5 1.7,0.9 2,1.3 0.9,1.4 -1.3,0 -31.5,14.3 -32.6,15.4 -0.2,0.1 0.6,3.5 1.8,7.5 1.1,4.1 1.7,7.6 1.5,7.9 -0.3,0.3 -0.8,-0.1 -1,-0.9 z"
       id="path347" />
    <path
       fill="url(#lg0)"
       d="M 214,322.5 V 254 h 39.5 c 38.8,0 39.5,0 39.5,2 0,1.1 0.7,2 1.5,2 1.2,0 1.5,1.6 1.5,8.5 v 8.5 h -39.3 -39.4 l -0.6,24.8 c -0.4,13.6 -0.7,39.7 -0.7,58 0,21.4 -0.4,33.2 -1,33.2 -0.7,0 -1,-23.5 -1,-68.5 z"
       id="path349"
       style="fill:url(#linearGradient1326)" />
    <path
       d="m 341,335 c 0,-51.5 0.1,-56 1.7,-56 1.5,0 1.6,1.9 1,21.8 -0.4,11.9 -0.7,37.1 -0.7,56 0,22.1 -0.4,34.2 -1,34.2 -0.7,0 -1,-19.3 -1,-56 z"
       id="path351" />
    <path
       d="m 245,313.5 c 0,-1.3 2.8,-1.5 19.5,-1.5 16.7,0 19.5,0.2 19.5,1.5 0,1.3 -2.8,1.5 -19.5,1.5 -16.7,0 -19.5,-0.2 -19.5,-1.5 z"
       id="path353" />
    <path
       fill="url(#lg0)"
       d="m 396.2,276.8 c -0.2,-1.7 -2.7,-1.8 -37.8,-1.8 -29.7,0 -37.4,0.3 -36.8,1.3 0.6,0.9 0.5,0.9 -0.7,0 -0.8,-0.7 -2.5,-1 -3.7,-0.6 -2.2,0.5 -2.2,0.4 -2.2,-10.6 V 254 h 39.5 c 33.8,0 39.5,0.2 39.5,1.5 0,0.7 0.7,1.8 1.5,2.3 1.3,0.7 1.5,2.6 1.2,10.8 -0.1,5.4 -0.4,9.1 -0.5,8.2 z"
       id="path355"
       style="fill:url(#linearGradient1328)" />
    <path
       d="m 15,152.6 c 0,-0.8 -0.5,-1.6 -1.1,-1.8 -0.7,-0.2 -1.2,-21.4 -1.6,-69.1 L 11.7,13 h 40.6 c 35.5,0 40.7,0.2 40.7,1.5 0,0.8 0.7,1.5 1.5,1.5 1.3,0 1.5,3.1 1.5,22 V 60 H 81.5 C 69.8,60 67,59.7 67,58.6 67,57.9 66.1,57 65,56.7 63.2,56.2 63,55.3 63,47.6 V 39 H 53.5 44 v 45 45 H 54 64 V 118.5 108 h 14 c 11.8,0 14,0.2 14,1.5 0,0.8 0.9,1.5 2,1.5 1.9,0 2,0.7 2,21.5 V 154 H 55.5 C 21.2,154 15,153.8 15,152.6 Z"
       id="path357" />
    <path
       d="m 117,152.5 c 0,-0.8 -0.7,-1.5 -1.5,-1.5 -1.3,0 -1.5,-8.3 -1.5,-69 V 13 h 14.5 c 12.2,0 14.5,0.2 14.5,1.5 0,0.8 0.7,1.5 1.5,1.5 1.3,0 1.5,3.7 1.5,27.3 v 27.2 l 9.5,-0.3 9.5,-0.3 V 41.4 13 h 14.5 c 12.2,0 14.5,0.2 14.5,1.5 0,0.8 0.7,1.5 1.5,1.5 1.3,0 1.5,8.3 1.5,69 v 69 h -14.5 c -12.2,0 -14.5,-0.2 -14.5,-1.5 0,-0.8 -0.7,-1.5 -1.5,-1.5 -1.3,0 -1.5,-3.7 -1.5,-27 V 97 h -9.5 -9.5 v 28.5 28.5 h -14.5 c -12.2,0 -14.5,-0.2 -14.5,-1.5 z"
       id="path359" />
    <path
       d="m 217,152.5 c 0,-0.8 -0.7,-1.5 -1.5,-1.5 -1,0 -1.5,-1 -1.5,-2.7 0,-11 5,-132.5 5.5,-134 0.3,-1 8,-1.3 34,-1.3 29.1,0 33.5,0.2 33.5,1.5 0,0.8 0.6,1.5 1.4,1.5 1.8,0 2.1,3.6 4.6,64 1.1,26.1 2.3,53.5 2.6,60.8 l 0.6,13.2 h -14.6 c -9.7,0 -14.6,-0.4 -14.6,-1.1 0,-0.6 -0.7,-1.7 -1.5,-2.5 -1.2,-1.3 -1.5,-5 -1.6,-19.2 -0.1,-9.7 -0.1,-18 0,-18.4 0,-0.5 -3.7,-0.8 -8.3,-0.8 -6.7,0 -8.5,0.3 -9,1.6 -0.3,0.9 -0.6,7.9 -0.6,15.7 0,7.8 -0.3,16.6 -0.6,19.5 l -0.7,5.2 h -13.8 c -11.7,0 -13.9,-0.2 -13.9,-1.5 z m 44.5,-81.7 c -0.3,-8.4 -0.8,-19 -1.1,-23.5 L 259.8,39 h -5.2 -5.3 l -0.6,13.7 c -0.4,7.5 -0.7,18 -0.7,23.5 V 86 h 7 7 z"
       id="path361" />
    <path
       d="m 316,152.5 c 0,-0.8 -0.7,-1.5 -1.5,-1.5 -1.3,0 -1.5,-3.1 -1.5,-22 v -22 h 14 c 11.8,0 14,0.2 14,1.5 0,0.8 0.9,1.5 2.1,1.5 1.9,0 2,0.5 1.7,9.3 l -0.3,9.2 9.8,0.3 9.7,0.3 v -10.4 -10.3 l -26,-25.8 -26,-25.8 0.2,-21.6 0.3,-21.7 40.3,-0.3 c 35.3,-0.2 40.2,0 40.2,1.3 0,0.8 0.7,1.5 1.5,1.5 1.3,0 1.5,3.2 1.5,22.5 V 61 H 381.5 C 369.3,61 367,60.8 367,59.5 367,58.7 366.3,58 365.5,58 364.3,58 364,56.3 364,48.5 V 39 H 354.5 345 V 49.3 59.5 L 370.5,85 396,110.4 v 21.8 21.8 h -40 c -34.9,0 -40,-0.2 -40,-1.5 z"
       id="path363" />
    <path
       d="m 417,152.5 c 0,-0.8 -0.7,-1.5 -1.5,-1.5 -1.3,0 -1.5,-3.1 -1.5,-22 v -22 h 14.5 c 12.2,0 14.5,0.2 14.5,1.5 0,0.8 0.7,1.5 1.5,1.5 1.2,0 1.5,1.7 1.5,9.5 v 9.5 h 10.1 10.1 L 465.8,118.6 465.3,108.2 439.7,83 414,57.8 V 35.4 13 h 40 c 34.9,0 40,0.2 40,1.5 0,0.8 0.9,1.5 2,1.5 1.9,0 2,0.7 2,22.5 V 61 h -15 c -12.2,0 -15,-0.3 -15,-1.4 0,-0.8 -0.7,-1.6 -1.5,-2 C 465.3,57.2 465,55.1 465,48 v -9 h -9.5 -9.5 v 9.9 9.9 l 26.2,26 26.1,26 -0.6,6.2 c -0.4,3.5 -0.7,13.2 -0.7,21.6 V 154 h -40 c -34.9,0 -40,-0.2 -40,-1.5 z"
       id="path365" />
    <path
       d="m 519,152.5 c 0,-0.8 -0.6,-1.5 -1.4,-1.5 -1.1,0 -1.5,-9 -2.1,-53.2 C 515.2,68.5 515,37.5 515.2,29 l 0.3,-15.5 40.3,-0.3 c 35.3,-0.2 40.2,0 40.2,1.3 0,0.8 0.7,1.5 1.5,1.5 1.2,0 1.5,1.9 1.5,11.5 V 39 H 573.5 548 V 54.5 70 h 19.5 c 18.8,0 19.5,0.1 19.5,2 0,1.1 0.7,2 1.5,2 1.2,0 1.5,1.9 1.5,11.5 V 97 h -20.8 -20.9 l -0.6,15.2 c -0.3,8.4 -0.3,15.6 -0.1,16 0.3,0.4 11.1,0.8 24,0.8 20.1,0 23.4,0.2 23.4,1.5 0,0.8 0.9,1.5 2,1.5 1.9,0 2,0.7 2,11 v 11 h -40 c -34.9,0 -40,-0.2 -40,-1.5 z"
       id="path367" />
  </g>
  <g
     fill="#ffae15"
     id="g383"
     transform="translate(0,-1)">
    <path
       d="M 16,152.5 C 16,151.7 15.3,151 14.5,151 13.2,151 13,142.7 13,82 V 13 h 39.5 c 33,0 39.5,0.2 39.5,1.4 0,0.7 0.9,1.6 2,1.9 1.9,0.5 2,1.4 2,21.6 V 59 H 81.5 C 69.3,59 67,58.8 67,57.5 67,56.7 66.3,56 65.5,56 64.3,56 64,54.4 64,47.5 V 39 H 54 44 v 45 45 H 54 64 V 118.5 108 h 14 c 11.3,0 14,0.3 14,1.4 0,0.7 1,1.6 2.1,1.9 1.9,0.5 2.1,1.1 1.6,4.4 -0.4,2.1 -0.7,11.6 -0.7,21.1 V 154 H 55.5 C 21.1,154 16,153.8 16,152.5 Z"
       id="path371" />
    <path
       d="m 117,152.5 c 0,-0.8 -0.7,-1.5 -1.5,-1.5 -1.3,0 -1.5,-8.3 -1.5,-69 V 13 h 14 c 11.3,0 14,0.3 14,1.4 0,0.7 0.9,1.6 2,1.9 1.9,0.5 2,1.4 2,27.6 V 71 h 9.5 9.5 l 0.2,-28.7 0.3,-28.8 13.8,-0.3 c 11.6,-0.2 13.8,0 14.3,1.3 0.4,0.8 1.2,1.5 2,1.5 1.2,0 1.4,10.7 1.4,69 v 69 h -14 c -11.8,0 -14,-0.2 -14,-1.5 0,-0.8 -0.7,-1.5 -1.5,-1.5 -1.3,0 -1.5,-3 -1.5,-21.4 0,-11.7 -0.3,-24.1 -0.6,-27.5 L 164.7,96 h -9.2 -9.2 l -0.6,15.8 c -0.4,8.6 -0.7,21.7 -0.7,29 V 154 h -14 c -11.8,0 -14,-0.2 -14,-1.5 z"
       id="path373" />
    <path
       d="m 217,152.5 c 0,-0.8 -0.7,-1.5 -1.6,-1.5 -1.4,0 -1.6,-1.2 -1,-10.2 0.3,-5.7 0.8,-16.4 1.1,-23.8 2.7,-69 3.6,-90.5 4.1,-96.7 l 0.6,-7.3 h 32.9 c 28.4,0 33,0.2 33.5,1.5 0.4,0.8 1.2,1.5 2,1.5 0.8,0 1.4,1 1.4,2.3 0,1.2 0.9,21.5 1.9,45.2 1.1,23.7 2.2,50.7 2.5,60 0.4,9.4 0.9,20 1.2,23.8 l 0.6,6.7 h -14.1 c -11.9,0 -14.1,-0.2 -14.1,-1.5 0,-0.8 -0.6,-1.5 -1.4,-1.5 -1.5,0 -2.6,-11.8 -2.6,-28.7 V 112 h -9 -9 v 8.3 c 0,4.5 -0.3,13.9 -0.7,21 l -0.6,12.7 h -13.9 c -11.6,0 -13.8,-0.2 -13.8,-1.5 z m 45,-72.8 c 0,-4.1 -0.3,-14.9 -0.7,-24 L 260.7,39 h -5.8 -5.7 l -0.6,11.3 c -0.3,6.1 -0.8,16.9 -1,24 L 247,87 h 7.5 7.5 z"
       id="path375" />
    <path
       d="m 316,152.5 c 0,-0.8 -0.7,-1.5 -1.5,-1.5 -1.3,0 -1.5,-3.1 -1.5,-22 v -22 h 14 c 11.8,0 14,0.2 14,1.5 0,0.8 0.7,1.5 1.5,1.5 1.2,0 1.5,1.7 1.5,9.5 v 9.5 h 10 10 V 118.7 108.5 L 338.5,83 313,57.5 V 35.3 13 h 39.5 c 34.4,0 39.5,0.2 39.5,1.5 0,0.8 0.9,1.5 2,1.5 2,0 2,0.5 1.8,22.3 l -0.3,22.2 -13.8,0.3 C 368.5,61 367.8,61 367.3,59 367,57.9 366.1,57 365.4,57 364.3,57 364,55 364,48 v -9 h -10 -10 v 9.9 9.9 l 26,25.8 26,25.8 v 21.8 21.8 h -40 c -34.9,0 -40,-0.2 -40,-1.5 z"
       id="path377" />
    <path
       d="m 417,152.6 c 0,-0.8 -0.4,-1.6 -1,-1.8 -0.5,-0.2 -1,-9.3 -1.1,-21.8 l -0.1,-21.5 h 13.8 c 10.6,0 13.8,0.3 13.6,1.3 -0.1,0.6 0.7,1.2 1.8,1.2 1.9,0 2,0.7 2,9.5 v 9.5 h 10 10 V 118.6 108.3 L 440,82.7 414,57 l 0.2,-21.7 0.3,-21.8 39.8,-0.3 c 34.9,-0.2 39.7,0 39.7,1.3 0,0.8 0.7,1.5 1.5,1.5 1.3,0 1.5,3.2 1.5,22.5 V 61 h -14 c -13.3,0 -14,-0.1 -14,-2 0,-1.1 -0.7,-2 -1.5,-2 -1.2,0 -1.5,-1.7 -1.5,-9 v -9 h -10 -10 v 10.4 10.3 l 25.5,25.1 25.5,25 v 22.1 22.1 h -40 c -33.8,0 -40,-0.2 -40,-1.4 z"
       id="path379" />
    <path
       d="m 519,152.5 c 0,-0.8 -0.7,-1.5 -1.5,-1.5 -1.3,0 -1.5,-8.3 -1.5,-69 V 13 h 39.5 c 34.4,0 39.5,0.2 39.5,1.5 0,0.8 0.9,1.5 2,1.5 2,0 2.1,0.5 1.8,11.3 L 598.5,38.5 572.8,38.8 547,39 v 16 16 h 20 c 17.1,0 20,0.2 20,1.5 0,0.8 0.7,1.5 1.5,1.5 1.2,0 1.5,1.9 1.5,11 v 11 l -21.2,0.2 -21.3,0.3 -0.3,16.3 -0.2,16.2 h 24 c 20.7,0 24,0.2 24,1.5 0,0.8 0.9,1.5 2,1.5 1.9,0 2,0.7 2,11 v 11 h -40 c -34.9,0 -40,-0.2 -40,-1.5 z"
       id="path381" />
  </g>
  <g
     fill="#fa9936"
     id="g493"
     transform="translate(0,-1)">
    <path
       d="M 61,563.5 V 495 h 40 c 34.9,0 40,0.2 40,1.5 0,1.3 -4.9,1.5 -38.5,1.5 H 64 v 67 c 0,58.9 -0.2,67 -1.5,67 -1.3,0 -1.5,-8.3 -1.5,-68.5 z"
       id="path385" />
    <path
       d="M 163,563.5 V 495 h 39.5 c 34.4,0 39.5,0.2 39.5,1.5 0,1.3 -4.9,1.5 -38.5,1.5 H 165 v 67 c 0,44 -0.3,67 -1,67 -0.7,0 -1,-23.5 -1,-68.5 z"
       id="path387" />
    <path
       d="M 264,563.5 V 495 h 40 c 34.9,0 40,0.2 40,1.5 0,1.3 -4.9,1.5 -38.5,1.5 H 267 v 67 c 0,58.9 -0.2,67 -1.5,67 -1.3,0 -1.5,-8.3 -1.5,-68.5 z"
       id="path389" />
    <path
       d="M 366,563.5 V 495 h 14 c 11.8,0 14,0.2 14,1.5 0,1.3 -2.1,1.5 -13,1.5 h -13 v 67 c 0,44 -0.3,67 -1,67 -0.7,0 -1,-23.5 -1,-68.5 z"
       id="path391" />
    <path
       d="m 417,605 c 0,-23.3 0.2,-27 1.5,-27 1.3,0 1.5,3.7 1.5,27 0,23.3 -0.2,27 -1.5,27 -1.3,0 -1.5,-3.7 -1.5,-27 z"
       id="path393" />
    <path
       d="M 467,563.5 V 495 h 40 c 34.9,0 40,0.2 40,1.5 0,1.3 -4.9,1.5 -38.5,1.5 H 470 v 67 c 0,58.9 -0.2,67 -1.5,67 -1.3,0 -1.5,-8.3 -1.5,-68.5 z"
       id="path395" />
    <path
       d="m 195,612 c 0,-0.6 8.5,-1 23.5,-1 15,0 23.5,0.4 23.5,1 0,0.6 -8.5,1 -23.5,1 -15,0 -23.5,-0.4 -23.5,-1 z"
       id="path397" />
    <path
       d="m 296,612 c 0,-0.6 4,-1 10,-1 h 10 V 600.5 590 h 14 c 8.7,0 14,0.4 14,1 0,0.6 -5,1 -13,1 h -13 v 10.5 10.5 h -11 c -6.7,0 -11,-0.4 -11,-1 z"
       id="path399" />
    <path
       d="m 499,612 c 0,-0.6 8.7,-1 24,-1 15.3,0 24,0.4 24,1 0,0.6 -8.7,1 -24,1 -15.3,0 -24,-0.4 -24,-1 z"
       id="path401" />
    <path
       d="m 93,554 c 0,-0.5 1.7,-1 3.8,-1 3.3,0 4.5,-0.8 10,-6.3 l 6.2,-6.3 v -9.7 c 0,-5.8 0.4,-9.7 1,-9.7 0.6,0 1,4.4 1,11.3 v 11.3 l -5.8,5.7 c -5.5,5.5 -6,5.7 -11,5.7 -2.9,0 -5.2,-0.4 -5.2,-1 z"
       id="path403" />
    <path
       d="m 195,554 c 0,-0.6 7,-1 19,-1 12,0 19,0.4 19,1 0,0.6 -7,1 -19,1 -12,0 -19,-0.4 -19,-1 z"
       id="path405" />
    <path
       d="m 398,554 c 0,-0.6 3.8,-1 9.5,-1 h 9.5 v -29 -29 h 14 c 11.8,0 14,0.2 14,1.5 0,1.3 -2.1,1.5 -12.5,1.5 H 420 v 28.5 28.5 h -11 c -6.7,0 -11,-0.4 -11,-1 z"
       id="path407" />
    <path
       d="m 499,554 c 0,-0.6 7.2,-1 19.5,-1 12.3,0 19.5,0.4 19.5,1 0,0.6 -7.2,1 -19.5,1 -12.3,0 -19.5,-0.4 -19.5,-1 z"
       id="path409" />
    <path
       d="m 316,529 c 0,-4.7 0.4,-8 1,-8 0.6,0 1,3.3 1,8 0,4.7 -0.4,8 -1,8 -0.6,0 -1,-3.3 -1,-8 z"
       id="path411" />
    <path
       d="m 175.6,477.9 c -0.6,-1.5 -4.6,-16.2 -4.6,-16.6 0,-0.2 7.1,-3.8 15.8,-8.2 14.7,-7.3 15.9,-7.8 18.2,-6.5 1.9,1 2.1,1.3 0.7,1.4 -1.3,0 -30.9,14.1 -32.4,15.4 -0.2,0.1 0.6,3.5 1.8,7.5 1.1,4.1 1.7,7.6 1.5,7.9 -0.3,0.3 -0.8,-0.1 -1,-0.9 z"
       id="path413" />
    <path
       d="M 214,322.5 V 254 h 39.5 c 34.3,0 39.5,0.2 39.5,1.5 0,1.3 -5.2,1.5 -38.2,1.7 l -38.3,0.3 -0.3,66.8 c -0.1,43.3 -0.6,66.7 -1.2,66.7 -0.7,0 -1,-23.8 -1,-68.5 z"
       id="path415" />
    <path
       d="m 341,335 c 0,-36.7 0.3,-56 1,-56 0.7,0 1,19.3 1,56 0,36.7 -0.3,56 -1,56 -0.7,0 -1,-19.3 -1,-56 z"
       id="path417" />
    <path
       d="m 245,371 c 0,-0.6 8.7,-1 24,-1 15.3,0 24,0.4 24,1 0,0.6 -8.7,1 -24,1 -15.3,0 -24,-0.4 -24,-1 z"
       id="path419" />
    <path
       d="m 245,313 c 0,-0.6 7.2,-1 19.5,-1 12.3,0 19.5,0.4 19.5,1 0,0.6 -7.2,1 -19.5,1 -12.3,0 -19.5,-0.4 -19.5,-1 z"
       id="path421" />
    <path
       d="m 315,265 v -11 h 39.5 c 34.4,0 39.5,0.2 39.5,1.5 0,1.3 -4.9,1.5 -38,1.5 h -38 v 9.5 c 0,7.8 -0.3,9.5 -1.5,9.5 -1.2,0 -1.5,-1.9 -1.5,-11 z"
       id="path423" />
    <path
       d="m 395.4,142 c 0,-6.9 0.1,-9.7 0.3,-6.2 0.2,3.4 0.2,9 0,12.5 -0.2,3.4 -0.3,0.6 -0.3,-6.3 z"
       id="path425" />
    <path
       d="m 417,152.6 c 0,-0.8 -0.4,-1.6 -1,-1.8 -0.5,-0.2 -1,-9.3 -1.1,-21.8 l -0.1,-21.5 h 13.6 c 17.6,0 18.5,1.9 1,2.3 l -12.5,0.3 0.3,21.9 c 0.2,12.1 0.2,22 0.1,22 -0.2,0 -0.3,-0.6 -0.3,-1.4 z"
       id="path427" />
    <path
       d="m 598.4,144 c 0,-5.8 0.1,-8.1 0.3,-5.2 0.2,2.8 0.2,7.6 0,10.5 -0.2,2.8 -0.3,0.5 -0.3,-5.3 z"
       id="path429" />
    <path
       d="M 13,82 V 13 h 39.5 c 34.3,0 39.5,0.2 39.5,1.5 0,1.3 -5.2,1.5 -38.2,1.7 l -38.3,0.3 v 67.3 c 0,53.1 -0.3,67.2 -1.2,67.2 -1,0 -1.3,-14.5 -1.3,-69 z"
       id="path431" />
    <path
       d="M 114,82 V 13 h 14 c 11.8,0 14,0.2 14,1.5 0,1.3 -2.1,1.5 -12.5,1.5 H 117 v 67.5 c 0,59.3 -0.2,67.5 -1.5,67.5 -1.3,0 -1.5,-8.3 -1.5,-69 z"
       id="path433" />
    <path
       d="m 166,129.6 c 0,-11.7 -0.3,-24.1 -0.6,-27.5 -0.6,-5.2 -0.5,-6.1 1,-6.1 1.4,0 1.6,1.7 1.6,14.8 0,8.1 0.3,20.4 0.7,27.5 0.5,11.4 0.4,12.7 -1,12.7 -1.5,0 -1.7,-2.2 -1.7,-21.4 z"
       id="path435" />
    <path
       d="m 214.4,140.8 c 0.3,-5.7 0.8,-16.4 1.1,-23.8 2.7,-69 3.6,-90.5 4.1,-96.8 l 0.6,-7.2 33.1,0.2 c 25.3,0.2 33.1,0.6 33.5,1.6 0.3,0.9 -6.5,1.2 -31.6,1.2 h -32.1 l -0.5,5.3 c -0.3,2.8 -1.5,28.2 -2.6,56.2 -2.9,73.1 -2.9,73.5 -4.7,73.5 -1.3,0 -1.5,-1.5 -0.9,-10.2 z"
       id="path437" />
    <path
       d="m 264.6,141.8 c -0.9,-13.7 -0.7,-29.8 0.4,-29.8 1.6,0 1.9,3.5 2.2,21.8 0.2,12 0,17.2 -0.8,17.2 -0.7,0 -1.4,-3.6 -1.8,-9.2 z"
       id="path439" />
    <path
       d="m 313,129 v -22 h 14 c 11.8,0 14,0.2 14,1.5 0,1.3 -2.1,1.5 -12.5,1.5 H 316 v 20.5 c 0,17.6 -0.2,20.5 -1.5,20.5 -1.3,0 -1.5,-3.1 -1.5,-22 z"
       id="path441" />
    <path
       d="M 516,82 V 13 h 39.5 c 34.4,0 39.5,0.2 39.5,1.5 0,1.3 -4.9,1.5 -38,1.5 h -38 v 67.5 c 0,59.3 -0.2,67.5 -1.5,67.5 -1.3,0 -1.5,-8.3 -1.5,-69 z"
       id="path443" />
    <path
       d="m 245.3,133.5 c 0,-2.2 0.2,-3 0.4,-1.7 0.2,1.2 0.2,3 0,4 -0.3,0.9 -0.5,-0.1 -0.4,-2.3 z"
       id="path445" />
    <path
       d="m 44,130.5 c 0,-1.2 1.8,-1.5 10,-1.5 H 64 V 118.5 108 h 14 c 11.8,0 14,0.2 14,1.5 0,1.3 -2.1,1.5 -12.5,1.5 H 67 V 121.5 132 H 55.5 C 45.9,132 44,131.7 44,130.5 Z"
       id="path447" />
    <path
       d="m 344,130.5 c 0,-1.2 1.8,-1.5 10,-1.5 h 10 v -10.2 -10.3 l -8.7,-9 -8.8,-9 10.3,10 10.2,10 v 10.7 10.8 h -11.5 c -9.6,0 -11.5,-0.3 -11.5,-1.5 z"
       id="path449" />
    <path
       d="m 446,130.5 c 0,-1.2 1.8,-1.5 10,-1.5 h 10 v -10.1 c 0,-8.9 0.2,-10 1.5,-8.9 1.2,1 1.5,3.6 1.5,11.6 V 132 h -11.5 c -9.6,0 -11.5,-0.3 -11.5,-1.5 z"
       id="path451" />
    <path
       d="m 547,130.5 c 0,-1.3 3.3,-1.5 24,-1.5 20.7,0 24,0.2 24,1.5 0,1.3 -3.3,1.5 -24,1.5 -20.7,0 -24,-0.2 -24,-1.5 z"
       id="path453" />
    <path
       d="m 145.4,107 c 0,-5.8 0.1,-8.1 0.3,-5.2 0.2,2.8 0.2,7.6 0,10.5 -0.2,2.8 -0.3,0.5 -0.3,-5.3 z"
       id="path455" />
    <path
       d="m 487.5,100.8 -6,-6.3 6.3,6 c 3.4,3.3 6.2,6.1 6.2,6.2 0,0.8 -1,-0.1 -6.5,-5.9 z"
       id="path457" />
    <path
       d="m 247,88.5 c 0,-1.2 1.5,-1.5 7.5,-1.5 h 7.5 v -7.3 c 0,-4.1 -0.3,-14.9 -0.7,-24 l -0.6,-16.6 -5.6,-0.4 c -4.8,-0.3 -4.6,-0.4 1.1,-0.3 3.7,0.1 6.9,0.4 7.1,0.6 0.3,0.3 0.8,11.9 1.2,25.8 l 0.7,25.2 h -9.1 c -7.4,0 -9.1,-0.3 -9.1,-1.5 z"
       id="path459" />
    <path
       d="m 356.5,71.8 -8,-8.3 8.3,8 c 7.6,7.4 8.7,8.5 7.9,8.5 -0.1,0 -3.8,-3.7 -8.2,-8.2 z"
       id="path461" />
    <path
       d="m 247.3,75.5 c 0,-2.2 0.2,-3 0.4,-1.7 0.2,1.2 0.2,3 0,4 -0.3,0.9 -0.5,-0.1 -0.4,-2.3 z"
       id="path463" />
    <path
       d="M 145.5,70.8 C 145.2,69 145.1,56 145.2,42 l 0.3,-25.5 0.3,27.3 0.2,27.2 h 9.5 9.5 l 0.2,-28.7 0.3,-28.8 h 13.9 c 10.1,0 14,0.3 14.3,1.2 0.3,0.9 -2.8,1.3 -12.4,1.5 L 168.5,16.5 168.2,45.3 168,74 h -11 -10.9 z"
       id="path465" />
    <path
       d="m 547,72.5 c 0,-1.3 2.9,-1.5 20,-1.5 17.1,0 20,0.2 20,1.5 0,1.3 -2.9,1.5 -20,1.5 -17.1,0 -20,-0.2 -20,-1.5 z"
       id="path467" />
    <path
       d="M 421,64.5 C 418.6,62 416.8,60 417.1,60 c 0.3,0 2.5,2 4.9,4.5 2.4,2.5 4.2,4.5 3.9,4.5 -0.3,0 -2.5,-2 -4.9,-4.5 z"
       id="path469" />
    <path
       d="m 374.2,60.3 c 3.7,-0.2 10,-0.2 14,0 4,0.1 1,0.3 -6.7,0.3 -7.7,0 -11,-0.1 -7.3,-0.3 z"
       id="path471" />
    <path
       d="m 475.8,60.3 c 3.9,-0.2 10.5,-0.2 14.5,0 3.9,0.1 0.7,0.3 -7.3,0.3 -8,0 -11.2,-0.2 -7.2,-0.3 z"
       id="path473" />
    <path
       d="m 314.3,58.9 c -1,-1 -1.3,-7.1 -1.3,-23.6 V 13 h 39.5 c 34.4,0 39.5,0.2 39.5,1.5 0,1.3 -4.9,1.5 -38,1.5 h -38 l -0.2,22.1 c -0.2,17.6 -0.5,21.8 -1.5,20.8 z"
       id="path475" />
    <path
       d="m 95.4,38 c 0,-11.8 0.2,-16.7 0.3,-10.8 0.2,6 0.2,15.6 0,21.5 -0.1,6 -0.3,1.1 -0.3,-10.7 z"
       id="path477" />
    <path
       d="m 415.2,57.8 c -0.9,-1.2 -1.2,-6.8 -1,-22.9 l 0.3,-21.4 39.8,-0.3 c 34.9,-0.2 39.7,0 39.7,1.3 0,1.3 -4.8,1.5 -38.5,1.5 H 417 l -0.2,21.7 c -0.3,17.6 -0.5,21.3 -1.6,20.1 z"
       id="path479" />
    <path
       d="m 291.2,55 c 0,-1.9 0.2,-2.7 0.5,-1.7 0.2,0.9 0.2,2.5 0,3.5 -0.3,0.9 -0.5,0.1 -0.5,-1.8 z"
       id="path481" />
    <path
       d="m 364,48 v -9 l -9.7,-0.2 -9.8,-0.2 8,-0.4 c 4.4,-0.2 9.5,0 11.3,0.3 l 3.2,0.6 V 48 c 0,7.3 -0.3,9 -1.5,9 -1.2,0 -1.5,-1.7 -1.5,-9 z"
       id="path483" />
    <path
       d="m 466,48 v -9 l -10.2,-0.2 -10.3,-0.2 8.5,-0.4 c 4.7,-0.2 10,0 11.8,0.3 l 3.2,0.6 V 48 c 0,7.3 -0.3,9 -1.5,9 -1.2,0 -1.5,-1.7 -1.5,-9 z"
       id="path485" />
    <path
       d="M 64,47.5 V 39 L 53.8,38.8 43.5,38.6 52,38.2 c 4.7,-0.2 10,0 11.8,0.3 l 3.2,0.6 v 8.4 C 67,54.4 66.7,56 65.5,56 64.3,56 64,54.4 64,47.5 Z"
       id="path487" />
    <path
       d="m 248.3,46.5 c 0,-2.2 0.2,-3 0.4,-1.7 0.2,1.2 0.2,3 0,4 -0.3,0.9 -0.5,-0.1 -0.4,-2.3 z"
       id="path489" />
    <path
       d="m 560.3,38.3 c 7,-0.2 18.4,-0.2 25.5,0 7,0.1 1.2,0.3 -12.8,0.3 -14,0 -19.8,-0.2 -12.7,-0.3 z"
       id="path491" />
  </g>
</svg>
