<?xml version="1.0" encoding="UTF-8" standalone="no"?>
<svg
   version="1.0"
   width="2037.5173"
   height="1167.9047"
   viewBox="0 0 2037.5173 1167.9047"
   preserveAspectRatio="xMidYMid meet"
   id="svg54"
   sodipodi:docname="auto-board-fr.svg"
   inkscape:version="1.1.2 (0a00cf5339, 2022-02-04, custom)"
   xmlns:inkscape="http://www.inkscape.org/namespaces/inkscape"
   xmlns:sodipodi="http://sodipodi.sourceforge.net/DTD/sodipodi-0.dtd"
   xmlns="http://www.w3.org/2000/svg"
   xmlns:svg="http://www.w3.org/2000/svg">
  <defs
     id="defs58" />
  <sodipodi:namedview
     id="namedview56"
     pagecolor="#ffffff"
     bordercolor="#666666"
     borderopacity="1.0"
     inkscape:pageshadow="2"
     inkscape:pageopacity="0.0"
     inkscape:pagecheckerboard="0"
     showgrid="false"
     inkscape:zoom="0.52376286"
     inkscape:cx="1020.5"
     inkscape:cy="588.05239"
     inkscape:window-width="1920"
     inkscape:window-height="1017"
     inkscape:window-x="-8"
     inkscape:window-y="-8"
     inkscape:window-maximized="1"
     inkscape:current-layer="svg54" />
  <g
     fill="#7e0201"
     id="g8"
     transform="translate(-0.35475755,-1.0954592)">
    <path
       d="m 125.5,1167.4 c -2.7,-0.8 -7.7,-1.7 -11,-2 -6.7,-0.6 -7.5,-0.8 -27,-9.2 -7.7,-3.3 -15.5,-6.5 -17.2,-7.2 -1.8,-0.7 -4.2,-2.7 -5.3,-4.5 -1.6,-2.6 -4.2,-4.2 -11.8,-7.6 -15.6,-6.8 -22.8,-12.2 -28.8,-21.5 -9.8,-15.3 -10,-37.1 -0.4,-51.6 1.7,-2.6 16.9,-18.6 33.8,-35.7 C 97.2,988.4 94,990 133.4,990 c 12.8,0 23.5,-0.3 23.9,-0.6 0.3,-0.4 -4.2,-3.8 -10.1,-7.6 C 141.3,978 133.6,972 130,968.5 126.4,965 121.1,960.4 118.2,958.2 115.3,956.1 100,941.5 84.2,925.9 59.2,901.1 55.1,896.6 52.3,891 47,880 46.9,878.1 47.2,809.5 c 0.3,-62 0.3,-63.1 2.5,-68.3 1.2,-2.9 3.5,-7.4 5.2,-10 4.4,-7 63.5,-64.1 69.7,-67.4 11.3,-6.1 3.6,-5.8 158.4,-5.8 154.8,0 147.1,-0.3 158.4,5.8 7.9,4.2 15.4,12.5 25,27.7 4.9,7.7 15.3,23.9 23,36 9,14 14.9,24.4 16.3,28.5 l 2.2,6.5 83.3,0.5 c 64.9,0.5 84.2,0.9 87.3,1.9 10.6,3.5 15.2,7 36.4,28.7 l 21,21.3 21.3,-21.5 c 18.6,-18.9 22.2,-22 28.3,-25 3.8,-1.9 9.4,-3.9 12.4,-4.4 7.6,-1.4 168.9,-1.3 176.7,0.1 11.6,2.1 17.5,5.9 33.5,21.6 8,7.8 14.9,14.3 15.2,14.3 0.4,0 0.7,-17.2 0.7,-38.2 0,-41.9 0.6,-47.5 5.7,-57.7 4.3,-8.4 12.7,-16.4 21.9,-20.8 l 7.9,-3.8 35.8,-0.3 c 39.1,-0.3 41.6,-0.1 52,5.6 6.3,3.4 15.8,13.6 19.1,20.5 4.5,9.6 4.7,12.4 4.5,59.9 -0.1,24.7 0.1,45.1 0.3,45.4 0.3,0.2 8.8,-8.1 18.9,-18.4 10.2,-10.4 20.4,-20.1 22.8,-21.6 6.4,-4.1 14.5,-6.6 23.4,-7.3 6.6,-0.5 8,-0.9 8.9,-2.7 3.5,-6.8 52.9,-78 57,-82.3 5.7,-5.8 11.8,-9.4 20,-11.8 4.8,-1.4 10.8,-1.6 43.5,-1.3 l 37.9,0.3 7.6,3.7 c 12.9,6.4 22.8,19 25.7,32.6 2.6,12.2 1,21 -6.5,37.4 -3.6,7.7 -5.4,13 -5.4,15.5 0,2.2 -0.4,4.3 -0.9,4.8 -0.5,0.6 -1.2,2 -1.5,3.1 -0.6,1.8 0.1,2.4 4.2,4.2 5.7,2.5 14.1,8.6 17.2,12.5 2.5,3.1 4,3.5 4,1 0,-2.9 4.1,-11 22.8,-45.2 19.1,-35.1 23.7,-41.4 34.3,-47.8 10,-6 24.3,-7.9 35.9,-4.9 8,2.1 63,27.7 68.9,32 5.9,4.3 11,11 14.8,19.2 2.3,5.1 2.8,7.6 3.1,17.7 l 0.4,11.7 h 9.7 c 17.8,0 28.8,3.9 38.8,13.5 l 5.1,5 5.2,-4.7 c 5.7,-5.1 14.1,-9.9 20.8,-11.9 3.8,-1.1 5.1,-2.4 10.4,-9.8 6.7,-9.3 62.2,-73.6 68.1,-78.8 5.2,-4.5 11.3,-7.9 17.9,-9.8 4.8,-1.4 10.9,-1.5 43.5,-1.3 l 37.9,0.3 7.6,3.8 c 16.9,8.3 26.8,23.9 26.8,42.1 0,16.1 -4.4,25 -19.8,40.4 l -11.3,11.2 h 3.8 c 5.1,0 13.3,2.3 20.2,5.6 4.5,2.2 10.1,7.3 29.1,26.6 12.9,13.2 25.2,26.4 27.3,29.5 2,3 4.6,8.5 5.7,12.2 2,6.5 2.1,8.8 1.8,76.6 l -0.3,70 -2.3,5.7 c -1.3,3.2 -4.3,8.5 -6.7,11.8 l -4.5,6 4,5.6 c 10.5,15.1 11.8,33.9 3.4,50.6 -2,4 -9.9,12.6 -32,34.9 -16.2,16.2 -31.3,30.6 -33.6,32 -2.3,1.3 -7.8,5.8 -12.2,10 -5.6,5.2 -10.4,8.7 -15.6,11.1 -28.8,13.9 -26.9,13.2 -36.5,13.9 -4.9,0.4 -11.7,1.4 -15,2.3 -5.3,1.4 -15.7,1.6 -84.5,1.6 -85.7,0 -84.6,0.1 -95.4,-5.8 -2.7,-1.5 -8.6,-6.4 -13,-11 -4.5,-4.6 -8.9,-8.8 -9.9,-9.3 -1.4,-0.8 -4.8,1.1 -17.1,9.6 -15.1,10.3 -15.6,10.5 -23.3,11.6 -4.3,0.6 -10,1.8 -12.8,2.7 -4.2,1.4 -11.1,1.7 -43.2,2 -24,0.2 -40.4,-0.1 -44,-0.7 -9,-1.7 -17.3,-6.3 -23.6,-13.1 -6.9,-7.5 -10.5,-14.9 -11.9,-25 l -1.2,-8 -18.1,17.8 c -18.5,18.4 -21.9,20.9 -32,23.3 -2.7,0.7 -7.5,2.1 -10.5,3.3 -5.4,2.1 -7,2.1 -85.9,2.4 -50.1,0.2 -82.4,-0.1 -85.7,-0.7 -11.2,-2.1 -15.8,-5.2 -32,-21.7 -8.4,-8.5 -15.4,-15.4 -15.6,-15.4 -0.3,0 -1.3,2.5 -2.3,5.5 -3.4,9.7 -11.8,18.6 -25.1,26.5 -9.2,5.4 -13.8,6 -46.4,6 -21.4,0 -30.9,-0.4 -34.5,-1.4 -13.2,-3.5 -23.3,-11.8 -29,-23.8 -1.9,-4 -3.5,-7.8 -3.5,-8.5 0,-0.7 -0.3,-1.3 -0.7,-1.3 -0.4,0 -7,6.2 -14.7,13.8 -14.6,14.3 -19.8,17.8 -29.7,20.1 -2.8,0.7 -33.8,1.1 -83.4,1.1 -86.3,0 -85,0.1 -95.9,-5.8 -3.2,-1.7 -12.2,-9.6 -24.2,-21.4 -10.5,-10.4 -19.4,-18.8 -19.8,-18.8 -0.3,0 -9.3,8.8 -19.9,19.5 -20.4,20.6 -23.9,23.1 -35.2,25.5 -3.4,0.7 -34,1 -91,0.8 -85.4,-0.3 -86,-0.3 -91.5,-2.5 -3,-1.1 -7.3,-2.4 -9.5,-2.8 -2.1,-0.4 -5.2,-1.3 -6.8,-2.1 -6.1,-3.2 -20.8,-15.3 -33.2,-27.3 -7.1,-7 -14,-13.6 -15.3,-14.6 l -2.3,-1.9 -21.7,22.1 c -23.3,23.7 -26.5,26.1 -38.1,28.3 -3.5,0.6 -50.8,1 -133.5,0.9 -110.6,0 -128.8,-0.2 -133.1,-1.5 z M 1024,978.1 c 0,-8.7 -0.3,-17.3 -0.6,-19 l -0.6,-3.1 H 950.9 879 v 18.5 18.5 l 70.8,0.3 c 38.9,0.1 71.5,0.3 72.5,0.5 1.6,0.2 1.7,-1.1 1.7,-15.7 z m -419,-3.6 v -18.6 l -6.7,0.3 -6.8,0.3 -0.3,18.3 -0.2,18.2 h 7 7 z M 408.2,862.8 c -0.5,-0.5 -3.9,-0.8 -7.6,-0.6 l -6.7,0.3 7.3,7.9 7.3,8 0.3,-7.4 c 0.2,-4 -0.1,-7.7 -0.6,-8.2 z"
       id="path2" />
    <path
       d="M 161.5,567 C 151.4,564.9 144.8,560.6 129.2,545.7 123.3,540 116.5,534 114,532.3 103.9,525.4 46.4,463.1 42.8,455.1 41.8,453 34.9,444.2 27.3,435.5 5.8,410.9 4,408.1 1.3,395.6 -3,375.1 7.7,353.2 26.7,343.6 35.5,339.2 38.5,339 117.3,339 H 192 V 189.6 c 0,-145.7 0,-149.5 2,-155.7 3.9,-12.7 12.3,-22.5 24.7,-28.6 6.9,-3.4 8.5,-3.8 17.4,-4.1 5.5,-0.3 11.9,0.1 14.4,0.7 2.4,0.6 18.8,7.4 36.5,15 33.6,14.5 37.6,16.9 44.9,26.1 2.3,2.9 10.3,19.3 21.5,43.8 l 17.8,39.1 5.2,-3.9 c 6.2,-4.7 12.6,-7.5 20.2,-8.9 3.8,-0.7 35.9,-1.1 93.8,-1.1 95.6,0 95.8,0 106.7,5.5 3.7,1.9 9.9,7.2 19.4,16.6 7.8,7.7 14.4,13.9 14.8,13.9 0.4,0 0.7,-0.7 0.7,-1.6 0,-3.2 6.2,-14.1 10.5,-18.6 5.7,-6 11.5,-9.9 19,-12.9 5.8,-2.2 7.3,-2.3 37.3,-2.7 21.2,-0.2 33.5,0 38.3,0.8 20.1,3.4 35.3,18.9 39.3,40.1 0.8,4.1 5.3,29.5 10,56.5 l 8.6,49.1 v 41.6 41.7 h 15.5 15.4 l 0.3,-95.2 c 0.3,-94.3 0.3,-95.4 2.5,-101.5 5.8,-17.2 19.9,-29.4 37.3,-32.3 4.5,-0.8 17.5,-1 38.2,-0.8 25.9,0.3 32,0.7 35.5,2 3.8,1.5 4.5,1.5 9,0 4,-1.3 10.8,-1.7 39.2,-2 22.9,-0.2 36.6,0 41.1,0.8 8.8,1.5 17.8,5.8 23.8,11.4 2.7,2.5 12.7,15.3 22.2,28.6 9.6,13.2 17.6,24 18,24 0.3,0 8.2,-10.6 17.5,-23.6 9.4,-13 19.3,-25.7 22.1,-28.4 6.2,-5.9 13.6,-9.7 22.3,-11.6 9.5,-2 68.8,-2 78.4,0.1 16.1,3.4 29.2,15.2 34.6,31.3 3.1,9 2.7,19 -1.4,43.2 -8,45.9 -15.6,86.8 -17.2,91.4 -2.3,7.1 -3.9,9.6 -22.5,34.6 l -16.7,22.4 4.7,6.6 c 2.5,3.6 15.2,20.7 28,38 12.9,17.3 24.7,34.2 26.3,37.5 3.3,7 5.4,18.8 4.4,25.4 -2,13.3 -18.9,87.3 -21.6,94.7 -5.5,14.6 -18.3,25.6 -33,28.4 -7.3,1.4 -62.5,1.3 -69.1,-0.1 -7,-1.5 -15.3,-5.8 -20.6,-10.5 -2.3,-2.2 -12.4,-15.1 -22.5,-28.8 -10,-13.7 -18.7,-25.1 -19.2,-25.2 -0.6,-0.2 -9.5,11.4 -20,25.8 -19.3,26.5 -23.1,30.6 -32,35.1 -8.4,4.2 -13.7,4.7 -45.8,4.7 -24.1,0 -31.5,-0.3 -36.2,-1.6 -6.9,-1.7 -13.1,-5.1 -18.5,-10 l -3.8,-3.5 -6.5,5 c -3.6,2.7 -9.2,6 -12.4,7.2 l -5.8,2.4 -84.5,0.3 c -60.5,0.2 -86.2,0 -90.5,-0.8 -12.1,-2.4 -16.1,-5.4 -39.7,-29.4 L 670.2,515.5 647.3,538 c -23.8,23.5 -27.7,26.5 -38.4,28.9 -2.8,0.7 -33.7,1.1 -82.9,1.1 -86.6,0 -85.2,0.1 -95.7,-6.2 -4.9,-3 -36.4,-33.8 -47.6,-46.7 l -4.7,-5.3 -25.8,25.4 c -27.3,27.1 -30.1,29.2 -42,31.7 -6.2,1.3 -142.2,1.4 -148.7,0.1 z"
       id="path4" />
    <path
       d="m 1424.5,566.6 c -12.6,-3.1 -16.3,-6.2 -47.9,-40 -10.6,-11.4 -14.6,-16.5 -17,-21.5 l -3.1,-6.6 v -103 -103 l 14.7,-54.2 c 8.1,-29.8 15.9,-56.8 17.4,-60 2.3,-4.8 6.9,-9.9 27.3,-30 26.3,-25.9 31.2,-30 40.6,-33.5 5.8,-2.2 7.3,-2.3 48.3,-2.6 23.2,-0.2 42.2,-0.4 42.2,-0.6 0,-0.1 7,-19.3 15.5,-42.6 17,-46.6 18.6,-49.7 29.1,-58.3 8.3,-6.8 14.6,-8.9 27.4,-9.5 8.4,-0.3 11.6,0 16,1.5 9.5,3.2 63.6,34.1 70,40 6.5,6 12.2,15.8 13.9,24.1 0.7,3.4 1.1,20.3 1.1,46.5 l 0.1,41.2 16.2,-16.5 c 16.5,-16.9 21,-20.3 30.7,-23.6 5.2,-1.8 10,-1.9 99.5,-1.9 h 94 l 6.7,2.4 c 9.3,3.4 14.4,7.6 38.4,32.1 22.4,23 26.4,27.9 29.8,36.8 2.1,5.6 2.1,7 2.4,73.2 0.2,46.9 0,69.3 -0.8,73.3 -1.5,7.8 -4.3,14.1 -9.1,20.4 l -3.9,5.3 4,5.9 c 10.1,14.8 11.5,32.6 4,48.6 -1.9,3.8 -7.9,11.8 -16.7,22.1 -13,15.1 -13.9,16.5 -15.1,22.1 -1.2,5.8 -1.8,6.6 -19.4,26.4 -10,11.2 -25.2,27.4 -33.7,36 -13,13 -16.7,16.1 -22.2,18.7 -4.7,2.2 -9.6,6 -17.5,13.4 -6.1,5.7 -13.3,11.5 -16,13 -10.8,5.9 -9.7,5.8 -94.9,5.8 -85.2,0 -84,0.1 -94.9,-5.8 -3.3,-1.8 -11.8,-9.6 -25.2,-23.2 l -20.2,-20.4 -4,3.4 c -2.2,1.9 -11.6,10.6 -20.9,19.4 -18.2,17.2 -22.3,20.3 -30.4,23.8 l -5.4,2.3 -83,0.2 c -63.1,0.1 -84.2,-0.1 -88,-1.1 z"
       id="path6" />
  </g>
  <g
     fill="#af0301"
     id="g16"
     transform="translate(-0.35475755,-1.0954592)">
    <path
       d="m 382,1168.4 c 0,-0.5 -2.1,-2 -4.7,-3.4 -4.2,-2.2 -8.2,-4.6 -13.3,-8.1 -1.9,-1.2 -5.8,-3.4 -9,-5.1 -1.4,-0.7 -2.7,-1.6 -3,-2 -0.3,-0.4 -2.2,-1.4 -4.3,-2.3 -3.2,-1.3 -19,-1.5 -135,-1.5 -88.6,0 -133.2,-0.3 -137.1,-1.1 -6.3,-1.1 -29.5,-10.5 -35.7,-14.5 -14.8,-9.3 -22.9,-23.7 -22.9,-40.8 0,-9.9 2.5,-18.9 7,-25.8 1.7,-2.6 16.9,-18.6 33.8,-35.7 32.7,-33 34.5,-34.4 46.7,-36.9 2.8,-0.6 17.2,-1.1 32,-1.2 14.9,-0.1 28,-0.4 29.3,-0.7 2,-0.5 1.2,-1.3 -5.8,-5.9 -4.5,-3 -11.2,-6.9 -14.9,-8.8 -3.6,-1.8 -11.6,-6.4 -17.6,-10.2 -9.4,-5.9 -14.4,-10.3 -34.4,-29.9 C 56.5,898.7 55.7,897.9 52.3,890.9 47,880 46.9,878 47.2,809.5 c 0.3,-62 0.3,-63.1 2.5,-68.3 1.2,-2.9 3.5,-7.4 5.2,-10 4.4,-7 63.5,-64.1 69.7,-67.4 11.3,-6.1 3.6,-5.8 158.4,-5.8 154.8,0 147.1,-0.3 158.4,5.8 7.9,4.2 15.4,12.5 25,27.7 4.9,7.7 15.3,23.9 23,36 9,14 14.9,24.4 16.3,28.5 l 2.2,6.5 83.3,0.5 c 64.9,0.5 84.2,0.9 87.3,1.9 10.6,3.5 15.2,7 36.4,28.7 l 21,21.3 21.3,-21.5 c 18.6,-18.9 22.2,-22 28.3,-25 3.8,-1.9 9.4,-3.9 12.4,-4.4 7.6,-1.4 168.9,-1.3 176.7,0.1 11.6,2.1 17.5,5.9 33.5,21.6 8,7.8 14.9,14.3 15.2,14.3 0.4,0 0.7,-17.2 0.7,-38.2 0,-41.9 0.6,-47.5 5.7,-57.7 4.3,-8.4 12.7,-16.4 21.9,-20.8 l 7.9,-3.8 35.8,-0.3 c 39.1,-0.3 41.6,-0.1 52,5.6 6.3,3.4 15.8,13.6 19.1,20.5 4.5,9.6 4.7,12.4 4.5,59.9 -0.1,24.7 0.1,45.1 0.3,45.4 0.3,0.2 8.8,-8.1 18.9,-18.4 10.2,-10.4 20.4,-20.1 22.8,-21.6 6.4,-4.1 14.5,-6.6 23.4,-7.3 6.6,-0.5 8,-0.9 8.9,-2.7 3.5,-6.8 52.9,-78 57,-82.3 5.7,-5.8 11.8,-9.4 20,-11.8 4.8,-1.4 10.8,-1.6 43.5,-1.3 l 37.9,0.3 7.6,3.7 c 19.8,9.8 30.1,31.2 25.7,53 -1.8,9.2 -11.1,26.9 -17.9,34.1 l -6,6.4 3.9,0.7 c 8.1,1.3 22,9.5 27.1,15.9 2.5,3.1 4,3.5 4,1 0,-2.9 4.1,-11 22.8,-45.2 19.1,-35.1 23.7,-41.4 34.3,-47.8 10,-6 24.3,-7.9 35.9,-4.9 8,2.1 63,27.7 68.9,32 5.9,4.3 11,11 14.8,19.2 2.3,5.1 2.8,7.6 3.1,17.7 l 0.4,11.7 h 9.7 c 17.8,0 28.8,3.9 38.8,13.5 l 5.1,5 5.2,-4.7 c 5.7,-5.1 14.1,-9.9 20.8,-11.9 3.8,-1.1 5.1,-2.4 10.4,-9.8 6.7,-9.3 62.2,-73.6 68.1,-78.8 5.2,-4.5 11.3,-7.9 17.9,-9.8 4.8,-1.4 10.9,-1.5 43.5,-1.3 l 37.9,0.3 7.6,3.8 c 16.9,8.3 26.8,23.9 26.8,42.1 0,16.1 -4.4,25 -19.8,40.4 l -11.3,11.2 h 3.8 c 5.1,0 13.3,2.3 20.2,5.6 4.5,2.2 10.1,7.3 29.1,26.6 12.9,13.2 25.2,26.4 27.3,29.5 2,3 4.6,8.5 5.7,12.2 2,6.5 2.1,8.8 1.8,76.6 l -0.3,70 -2.3,5.7 c -1.3,3.2 -4.3,8.5 -6.7,11.8 l -4.5,6 4,5.6 c 10.5,15 11.8,33.8 3.4,50.6 -2,4.1 -9.8,12.5 -33.7,36.4 l -31.2,31.1 -14.5,6.5 c -8,3.7 -17.2,7.1 -20.4,7.7 -4,0.7 -31.6,1.1 -82.3,1.1 -66.5,0 -76.8,0.2 -80,1.5 -2.1,0.9 -4,1.9 -4.3,2.3 -0.3,0.4 -1.6,1.3 -3,2 -5.9,3.1 -8.6,4.6 -9.8,5.9 -0.7,0.7 -1.9,1.3 -2.6,1.3 -0.7,0 -2.1,0.8 -3.2,1.8 -1,0.9 -4,2.7 -6.6,4 -2.6,1.3 -5,2.7 -5.3,3.3 -0.9,1.4 -10.4,1.1 -17,-0.6 -9.2,-2.4 -15.1,-6.3 -24.5,-15.9 l -8.7,-8.8 15.1,-14.9 15.1,-14.8 -2.6,-2.6 -2.6,-2.6 -9.9,9.4 c -10.1,9.6 -23.4,19.7 -31.3,23.6 -8.6,4.4 -15.2,5.1 -52.6,5.1 -37.1,0 -36.4,-0.1 -41.3,4.7 -0.7,0.6 -3.9,3.3 -7.2,5.9 -3.3,2.6 -6,5 -6,5.5 0,0.4 -0.8,1 -1.9,1.4 -1,0.3 -3.1,1.7 -4.7,3.2 -2.8,2.5 -3,2.6 -9.7,1.5 -9.9,-1.5 -18.4,-6 -25,-13.2 -6.8,-7.3 -10.4,-14.6 -11.9,-24.4 l -1.1,-7.5 13.1,-13.9 13.2,-13.9 v -5.9 -5.8 l -26.2,26.1 c -14.5,14.3 -28.1,27.1 -30.3,28.5 -2.2,1.4 -6.7,3.6 -10,4.9 l -6,2.4 -87,0.2 c -47.8,0.2 -86.9,0.5 -86.7,0.8 0.1,0.3 -0.4,1.3 -1.3,2.2 -0.9,0.8 -1.4,2.1 -1.1,2.8 0.3,0.8 -0.2,1.6 -1.1,1.9 -0.8,0.4 -1.3,1.3 -1,2 0.3,0.8 -0.1,1.7 -1,2 -0.9,0.4 -1.3,1.3 -0.9,2.2 0.3,0.8 0.2,1.2 -0.4,0.9 -0.6,-0.3 -1,0 -1,0.7 0,0.8 -0.6,2.6 -1.2,4.2 -1.1,2.4 -1.7,2.7 -4.9,2.3 -8.8,-1.1 -14.8,-5.3 -30.5,-21.3 l -15.2,-15.4 2.8,-8.8 c 3.5,-10.8 4.5,-18.5 2.7,-20.1 -1.1,-0.8 -1.8,0.5 -3.6,6.2 -1.3,4 -3.5,9.4 -4.8,12.1 -3.5,6.9 -12.3,15.8 -19.3,19.5 -9.9,5.3 -16.1,6.1 -48,6.1 -26.9,0 -30.6,-0.3 -43,-3.2 -0.8,-0.1 -1.8,-0.7 -2.1,-1.2 -0.4,-0.5 -0.7,1.8 -0.8,5 -0.1,11.4 -0.6,16.7 -1.7,17.1 -1.7,0.6 -10.2,-5.6 -13.9,-10.1 -1.8,-2.3 -4.8,-7.1 -6.4,-10.6 -3,-6.3 -3.1,-6.9 -3.1,-20.9 v -14.4 l -15.3,15 c -16.8,16.5 -22.5,20.2 -34.7,22.3 -4.5,0.8 -31.6,1 -90,0.8 l -83.5,-0.3 -6,-2.3 c -9.6,-3.6 -12.9,-6.3 -33.7,-27.6 -23.2,-23.7 -26,-24.8 -14.3,-5.8 4.1,6.7 7.5,12.7 7.5,13.2 0,0.6 -8.4,9.6 -18.7,20 -15,15.1 -19.9,19.4 -24.3,21.5 -6.7,3 -9,3.1 -9.7,0.4 -0.4,-1.4 -0.8,-1.7 -1.3,-0.9 -0.5,0.8 -1,0.2 -1.4,-1.4 -0.4,-1.5 -1,-2.4 -1.5,-2.1 -0.5,0.2 -1.2,-0.6 -1.5,-2 -0.4,-1.4 -1.3,-2.5 -2.1,-2.5 -1.4,0 -2,-1.9 -1.6,-4.4 0.1,-0.5 -0.5,-0.4 -1.3,0.3 -1.2,1 -1.5,0.8 -1.8,-1.1 -0.2,-1.3 -0.9,-2.2 -1.6,-2.1 -0.6,0.2 -1.5,-0.9 -1.8,-2.3 -0.5,-1.9 -1,-2.3 -2.3,-1.7 -2.5,1.3 -177.3,1.6 -185.5,0.3 -14.6,-2.3 -23.3,-8.5 -53.2,-38.2 -12.8,-12.7 -22.4,-21.6 -22.8,-20.9 -1.1,1.7 3.1,7.1 15.8,20.5 l 11.9,12.6 -18,18.8 c -19.8,20.5 -25.3,25.3 -32.9,28.1 -5.7,2.2 -17.4,3.8 -17.4,2.5 z m 642,-190.3 c 0,-8.7 -0.3,-17.3 -0.6,-19 l -0.6,-3.1 H 950.9 879 v 18.5 18.5 l 70.8,0.3 c 38.9,0.1 71.5,0.3 72.5,0.5 1.6,0.2 1.7,-1.1 1.7,-15.7 z m -419,-3.6 v -18.6 l -6.7,0.3 -6.8,0.3 -0.3,18.3 -0.2,18.2 h 7 7 z M 408.2,862.8 c -0.5,-0.5 -3.9,-0.8 -7.6,-0.6 l -6.7,0.3 7.3,7.9 7.3,8 0.3,-7.4 c 0.2,-4 -0.1,-7.7 -0.6,-8.2 z"
       id="path10" />
    <path
       d="m 161.5,567 c -9.5,-1.9 -14.2,-5.1 -23.2,-15.6 -2.3,-2.7 -5.1,-6 -6.3,-7.4 -1.2,-1.4 -4.8,-5.4 -7.9,-9 -3.2,-3.6 -7.4,-8.2 -9.2,-10.4 -1.9,-2.1 -4.5,-5.1 -5.9,-6.6 -1.4,-1.5 -4.4,-5 -6.6,-7.6 -2.3,-2.7 -5.8,-6.6 -7.8,-8.7 -1.9,-2.1 -4.1,-4.6 -4.8,-5.5 C 89.1,495.3 86,492.6 83,490.3 76,484.9 32.3,441 19.2,426.1 7.7,413.1 3.5,406 1.4,395.8 -3,375.1 7.7,353.2 26.7,343.6 35.5,339.2 38.5,339 117.3,339 H 192 V 189.6 c 0,-145.7 0,-149.5 2,-155.7 3.9,-12.7 12.3,-22.5 24.7,-28.6 6.9,-3.4 8.5,-3.8 17.4,-4.1 5.5,-0.3 11.9,0.1 14.4,0.7 2.4,0.6 18.8,7.4 36.5,15 33.6,14.5 37.6,16.9 44.9,26.1 2.3,2.9 10.3,19.3 21.5,43.8 l 17.8,39.1 5.2,-3.9 c 6.2,-4.7 12.6,-7.5 20.2,-8.9 3.8,-0.7 35.9,-1.1 93.8,-1.1 95.6,0 95.8,0 106.7,5.5 3.7,1.9 9.9,7.2 19.4,16.6 7.8,7.7 14.4,13.9 14.8,13.9 0.4,0 0.7,-0.7 0.7,-1.6 0,-3.2 6.2,-14.1 10.5,-18.6 5.7,-6 11.5,-9.9 19,-12.9 5.8,-2.2 7.3,-2.3 37.3,-2.7 21.2,-0.2 33.5,0 38.3,0.8 20.1,3.4 35.3,18.9 39.3,40.1 0.8,4.1 5.3,29.5 10,56.5 l 8.6,49.1 v 41.6 41.7 h 15.5 15.4 l 0.3,-95.2 c 0.3,-94.3 0.3,-95.4 2.5,-101.5 5.8,-17.2 19.9,-29.4 37.3,-32.3 4.5,-0.8 17.5,-1 38.2,-0.8 25.9,0.3 32,0.7 35.5,2 3.8,1.5 4.5,1.5 9,0 4,-1.3 10.8,-1.7 39.2,-2 22.9,-0.2 36.6,0 41.1,0.8 8.8,1.5 17.8,5.8 23.8,11.4 2.7,2.5 12.7,15.3 22.2,28.6 9.6,13.2 17.6,24 18,24 0.3,0 8.2,-10.6 17.5,-23.6 18.1,-25 24,-31.6 32.5,-35.9 9.5,-4.8 15.5,-5.5 51,-5.5 35.7,0 42.1,0.7 51.1,5.7 15.7,8.5 24.9,23.9 24.9,41.4 0,9.9 -3.4,30.8 -6,36.6 -1,2.4 -2.1,5.7 -2.4,7.5 -0.7,4.1 -4.5,26.5 -5.2,29.8 -2.1,11.5 -4,21.9 -6.4,35.7 -1.6,8.9 -3.6,17.5 -4.5,19.2 -0.8,1.7 -9.2,13.3 -18.5,25.8 l -16.9,22.7 4.7,6.6 c 2.5,3.6 15.2,20.7 28,38 12.9,17.3 24.7,34.2 26.3,37.5 1.7,3.6 3.4,9.4 4,14.1 1,7.2 0.9,9.3 -1.1,19.5 -3.6,17.9 -6.7,25.5 -13.4,32.7 -1.6,1.7 -2.6,3.2 -2.2,3.2 0.5,0 0.2,0.8 -0.5,1.7 -1.2,1.4 -1.2,1.5 -0.1,0.9 1.1,-0.7 1.2,-0.4 0.3,1.3 -0.7,1.1 -0.9,2.1 -0.5,2.1 0.3,0 0,0.8 -0.7,1.7 -1.2,1.5 -1.2,1.6 0.1,0.8 1.1,-0.7 1,-0.2 -0.4,1.9 -1.1,1.7 -1.3,2.5 -0.5,2 1.1,-0.6 1.2,-0.5 0.3,0.7 -0.6,0.8 -1,2.4 -0.9,3.7 0.1,1.3 -0.3,2.6 -0.8,2.9 -0.6,0.4 -0.7,0.1 -0.2,-0.7 0.5,-0.9 0.4,-1.1 -0.4,-0.6 -0.6,0.4 -0.9,1.2 -0.5,1.7 0.3,0.5 0,1.7 -0.8,2.6 -1.1,1.4 -1.1,1.6 0.2,0.8 1.2,-0.7 1.3,-0.6 0.3,0.7 -0.7,0.8 -1,1.8 -0.6,2.1 0.3,0.4 0,1.3 -0.6,2.1 -0.9,1 -0.9,1.6 -0.1,2.1 0.8,0.5 0.8,1 0,2 -0.6,0.7 -1,1.7 -0.8,2.1 0.1,0.5 -0.4,2 -1.1,3.3 -1.1,1.9 -1.1,2.2 0.1,1.5 1,-0.6 1.1,-0.5 0.2,0.7 -0.6,0.8 -1,2.4 -0.9,3.7 0.1,1.3 -0.3,2.6 -0.8,2.9 -0.6,0.4 -0.7,0.1 -0.2,-0.7 0.5,-0.8 0.4,-1.1 -0.2,-0.7 -0.5,0.3 -0.9,1.6 -0.8,2.9 0.1,1.3 -0.3,2.9 -0.9,3.7 -0.9,1.2 -0.8,1.3 0.4,0.6 1.2,-0.8 1.2,-0.4 -0.2,1.6 -1,1.6 -1.3,3.1 -0.8,3.9 0.5,0.8 0.2,2.2 -0.6,3.5 -0.8,1.2 -1.1,2.4 -0.8,2.7 1.1,1.2 -7.4,8.6 -13,11.2 -8.6,4.1 -13.7,4.6 -45.2,4.6 -31.6,0 -36.5,-0.5 -45.4,-5 -8.7,-4.4 -12.9,-8.9 -32.3,-35.4 -10,-13.7 -18.7,-25.1 -19.2,-25.2 -0.6,-0.2 -9.5,11.4 -20,25.8 -19.3,26.5 -23.1,30.6 -32,35.1 -8.4,4.2 -13.7,4.7 -45.8,4.7 -24.1,0 -31.5,-0.3 -36.2,-1.6 -6.9,-1.7 -13.1,-5.1 -18.5,-10 l -3.8,-3.5 -6.5,5 c -3.6,2.7 -9.2,6 -12.4,7.2 l -5.8,2.4 -84.5,0.3 c -60.5,0.2 -86.2,0 -90.5,-0.8 -12.1,-2.4 -16.1,-5.4 -39.7,-29.4 L 670.2,515.5 647.3,538 c -24,23.8 -27.9,26.6 -39,29 -3.1,0.7 -32.6,1 -85.3,0.8 -79.1,-0.3 -80.6,-0.3 -85.6,-2.4 -8.4,-3.4 -13.9,-7.9 -17.5,-14 -1.9,-3.2 -4.3,-7.4 -5.5,-9.3 -5.3,-9 -9.4,-15.7 -10.4,-16.8 -0.5,-0.7 -1,-1.5 -1,-1.8 0,-0.3 -3.2,-5.8 -7.2,-12.3 -3.9,-6.4 -8.3,-13.7 -9.6,-16.2 -1.4,-2.5 -9.8,-11.9 -18.6,-21 -8.9,-9.1 -20.1,-20.7 -24.8,-25.7 -4.8,-5.1 -8.9,-8.9 -9.3,-8.4 -0.5,0.9 2.2,5.5 18.5,31.6 2.1,3.3 6.8,11 10.5,17 3.7,6.1 8.4,13.6 10.4,16.8 l 3.7,5.7 -25,24.9 c -26.7,26.4 -29.5,28.5 -41.4,31 -6.2,1.3 -142.2,1.4 -148.7,0.1 z M 977.6,321 c -0.3,-6.3 -0.9,-19.6 -1.2,-29.5 -1.1,-30.1 -2.3,-23.3 -2.3,12.5 v 33.5 l 2,-2.5 c 2,-2.3 2.1,-3.3 1.5,-14 z"
       id="path12" />
    <path
       d="m 1424.5,566.6 c -12.6,-3.1 -16.3,-6.2 -47.9,-40 -10.6,-11.4 -14.6,-16.5 -17,-21.5 l -3.1,-6.6 v -103 -103 l 14.7,-54.2 c 8.1,-29.8 15.9,-56.8 17.4,-60 2.3,-4.8 6.9,-9.9 27.3,-30 26.3,-25.9 31.2,-30 40.6,-33.5 5.8,-2.2 7.3,-2.3 48.3,-2.6 23.2,-0.2 42.2,-0.4 42.2,-0.6 0,-0.1 7,-19.3 15.5,-42.6 17,-46.6 18.6,-49.7 29.1,-58.3 8.3,-6.8 14.6,-8.9 27.4,-9.5 8.4,-0.3 11.6,0 16,1.5 9.5,3.2 63.6,34.1 70,40 6.5,6 12.2,15.8 13.9,24.1 0.7,3.4 1.1,20.3 1.1,46.5 l 0.1,41.2 16.2,-16.5 c 16.5,-16.9 21,-20.3 30.7,-23.6 5.2,-1.8 10,-1.9 99.5,-1.9 h 94 l 6.7,2.4 c 9.3,3.4 14.4,7.6 38.4,32.1 22.4,23 26.4,27.9 29.8,36.8 2.1,5.6 2.1,7 2.4,73.2 0.2,46.9 0,69.3 -0.8,73.3 -1.5,7.8 -4.3,14.1 -9.1,20.4 l -3.9,5.3 4,5.9 c 7.4,10.8 10.4,24.7 8,36.6 -2.1,10.3 -6.2,17.4 -17.9,30.6 -13.9,15.9 -60.4,61.8 -65.6,64.9 -2.2,1.3 -4.6,3.2 -5.3,4.2 -0.8,1.1 -2.5,3 -3.8,4.3 -1.4,1.4 -2.2,2.5 -1.9,2.5 0.3,0 -0.9,1.5 -2.7,3.3 -3.6,3.6 -9.3,10.1 -14.8,16.7 -1.9,2.3 -5.4,6.2 -7.8,8.6 -2.3,2.4 -4,4.4 -3.7,4.4 0.3,0 -0.9,1.6 -2.7,3.5 -1.8,1.9 -4.8,5.1 -6.7,7.2 -11.5,13 -13.8,15 -19.2,16.9 -5.1,1.8 -9.6,1.9 -87.9,1.9 h -82.5 l -5.6,-2.3 c -8.5,-3.4 -13.1,-7.2 -31.7,-26.3 l -17.2,-17.6 3.6,-5.9 c 1.9,-3.2 6.6,-10.8 10.4,-16.9 3.8,-6 8.5,-13.7 10.5,-17 2,-3.3 5.6,-9.1 8,-13 10.6,-17 10.9,-17.5 9.2,-19.3 -1.5,-1.4 -3,-0.2 -16.9,13 -23.3,22.1 -32.8,30.8 -33.8,30.8 -0.5,0 -1.9,1.8 -3.1,4 -1.3,2.2 -2.7,4 -3.1,4 -0.5,0 -0.6,0.5 -0.3,1 0.3,0.6 0.2,1 -0.3,1 -0.5,0 -1.9,2.3 -3.2,5 -1.3,2.8 -2.7,5 -3.2,5 -0.5,0 -0.6,0.5 -0.3,1 0.3,0.6 0.1,1 -0.5,1 -0.6,0 -0.9,0.4 -0.6,0.9 0.3,0.5 -0.1,1.2 -1,1.5 -0.9,0.4 -1.4,1.3 -1,2.2 0.3,0.8 0.2,1.3 -0.3,1 -0.5,-0.3 -1.4,0.8 -2.1,2.4 -0.7,1.7 -1.7,3 -2.2,3 -0.5,0 -0.6,0.5 -0.3,1 0.3,0.6 0.1,1 -0.5,1 -0.6,0 -0.8,0.5 -0.5,1 0.3,0.6 0.2,1 -0.3,1 -0.5,0 -1.9,2.3 -3.2,5 -1.3,2.8 -2.7,5 -3.2,5 -0.5,0 -0.6,0.5 -0.3,1 0.3,0.6 0.1,1 -0.5,1 -0.6,0 -0.8,0.5 -0.5,1 0.3,0.6 0.2,1 -0.3,1 -0.5,0 -1.5,1.4 -2.2,3 -0.7,1.7 -1.7,3 -2.2,3 -0.5,0 -0.6,0.5 -0.3,1 0.3,0.6 0.1,1 -0.5,1 -0.6,0 -0.8,0.5 -0.5,1 0.3,0.6 0.1,1 -0.6,1 -0.7,0 -1,0.3 -0.6,0.6 0.3,0.3 0.2,1.1 -0.3,1.8 -4.3,5.3 -6.2,6.8 -11,8.8 l -5.5,2.3 -83,0.2 c -63.1,0.1 -84.2,-0.1 -88,-1.1 z"
       id="path14" />
  </g>
  <g
     fill="#e70605"
     id="g24"
     transform="translate(-0.35475755,-1.0954592)">
    <path
       d="m 1639.8,1159.3 c -5.8,-4.7 -16.2,-16.3 -15.2,-17.2 0.5,-0.4 2.3,-1.8 3.9,-3 1.7,-1.2 9.9,-9 18.3,-17.3 l 15.3,-15.1 -2.7,-2.8 c -1.5,-1.6 -3.2,-2.9 -3.7,-2.9 -0.5,0 -7.1,6 -14.7,13.4 -15.3,15 -23.3,20.7 -33,23.7 -6.3,1.9 -9,2 -51.1,1.7 l -44.4,-0.3 -6,-2.8 c -3.2,-1.5 -7.4,-3.9 -9.2,-5.3 -1.9,-1.4 -3.2,-2.2 -3.1,-1.7 0.2,0.4 -0.1,0.9 -0.6,1 -0.5,0 -1.3,0.8 -1.8,1.7 -0.5,0.9 -1.4,1.4 -1.9,1 -0.5,-0.3 -0.8,-0.2 -0.7,0.3 0.2,0.4 -1.7,2.8 -4.1,5.2 -2.4,2.4 -4,3.8 -3.6,3 0.5,-0.8 -1.8,1.3 -5,4.6 -3.3,3.3 -5.5,5.3 -5.1,4.5 0.5,-0.8 -1.2,0.7 -3.8,3.4 l -4.8,4.8 -4.7,-4.9 c -6.1,-6.3 -9.8,-14.1 -11.3,-23.7 l -1.1,-7.4 16.1,-16.8 16.2,-16.7 v -6 -6.1 l -26.7,26.5 c -18.2,18 -28.6,27.5 -32.3,29.6 -11.6,6.6 -7.5,6.3 -103.6,6.3 -82.8,0 -87.5,-0.1 -93.3,-1.9 -9.6,-3 -14.9,-7.1 -33.1,-25.8 -9.4,-9.7 -17.2,-17.4 -17.4,-17.2 -0.1,0.2 -0.8,3 -1.5,6.2 -3.2,14.6 -13.5,27.8 -26.9,34.5 l -7.6,3.7 -35.9,0.3 c -30.7,0.3 -36.7,0.1 -41.5,-1.3 -10.5,-3 -20.7,-10.6 -26.4,-19.4 -2,-3.3 -2.8,-4 -2.9,-2.5 -0.1,1 -0.2,2.4 -0.4,2.9 -0.1,0.6 -0.3,6 -0.4,12 -0.1,7.9 -0.4,10.6 -1.2,9.5 -0.6,-1 -0.8,-6.4 -0.3,-15.2 0.4,-9.5 0.2,-15.3 -0.6,-18.8 l -1.2,-5.2 -15.2,14.9 c -16.3,16.1 -18.8,18 -28.3,21.2 -6.1,2.1 -7.7,2.1 -93.6,2.1 -95.8,0 -92.2,0.2 -103.2,-6 -3.1,-1.8 -12.9,-10.8 -25.4,-23.4 -11.2,-11.3 -20.6,-20.6 -21,-20.6 -0.3,0 -9.8,9.4 -21.1,21 -19.3,19.7 -21,21.2 -28.5,24.7 l -8,3.8 -94.5,0.3 c -91.8,0.2 -94.7,0.2 -101,-1.7 -3.6,-1.1 -9.2,-3.9 -12.5,-6.1 -3.3,-2.2 -17.1,-15.4 -30.7,-29.3 l -24.7,-25.2 -17.7,18.5 c -32.2,33.6 -34.4,35.6 -43.1,39.8 l -7.8,3.7 -142.7,0.3 C 63.2,1140 63,1140 56.8,1137.9 30.6,1129.2 17,1112.6 17,1089.6 c 0,-9.9 2.5,-18.9 7,-25.8 1.7,-2.6 16.9,-18.6 33.8,-35.7 32.9,-33.1 34.4,-34.3 47,-37 3.7,-0.8 31.8,-1.1 90.7,-1.1 H 281 v -10 -10 h -68.9 c -64.8,0 -69.3,-0.1 -75,-1.9 -11.7,-3.6 -20,-10 -44.4,-33.9 C 56.5,898.7 55.7,897.8 52.3,890.9 47,880 46.9,878 47.2,809.5 c 0.3,-62 0.3,-63.1 2.5,-68.3 1.2,-2.9 3.5,-7.4 5.2,-10 4.4,-7 63.5,-64.1 69.7,-67.4 11.3,-6.1 3.6,-5.8 158.4,-5.8 154.8,0 147.1,-0.3 158.4,5.8 7.9,4.2 15.4,12.5 25,27.7 4.9,7.7 15.3,23.9 23,36 9,14 14.9,24.4 16.3,28.5 l 2.2,6.5 83.3,0.5 c 64.9,0.5 84.2,0.9 87.3,1.9 10.6,3.5 15.2,7 36.4,28.7 l 21,21.3 21.3,-21.5 c 18.6,-18.9 22.2,-22 28.3,-25 3.8,-1.9 9.4,-3.9 12.4,-4.4 7.6,-1.4 168.9,-1.3 176.7,0.1 11.6,2.1 17.5,5.9 33.5,21.6 8,7.8 14.9,14.3 15.2,14.3 0.4,0 0.7,-17.2 0.7,-38.2 0,-41.9 0.6,-47.5 5.7,-57.7 4.3,-8.4 12.7,-16.4 21.9,-20.8 l 7.9,-3.8 35.8,-0.3 c 39.1,-0.3 41.6,-0.1 52,5.6 6.3,3.4 15.8,13.6 19.1,20.5 4.5,9.6 4.7,12.4 4.5,59.9 -0.1,24.7 0.1,45.1 0.3,45.4 0.3,0.2 8.8,-8.1 18.9,-18.4 10.2,-10.4 20.4,-20.1 22.8,-21.6 6.4,-4.1 14.5,-6.6 23.4,-7.3 6.6,-0.5 8,-0.9 8.9,-2.7 3.5,-6.8 52.9,-78 57,-82.3 5.7,-5.8 11.8,-9.4 20,-11.8 4.8,-1.4 10.8,-1.6 43.5,-1.3 l 37.9,0.3 7.6,3.7 c 19.8,9.8 30.2,31.3 25.7,53 -2.4,11.3 -6.3,17.5 -18.7,29.6 -11.1,10.8 -11.4,11.2 -8.4,11.2 4.5,0 12.8,1.9 17.7,4.1 5.2,2.3 13.6,8.5 16.5,12.2 2.5,3.1 4,3.5 4,1 0,-2.9 4.1,-11 22.8,-45.2 19.1,-35.1 23.7,-41.4 34.3,-47.8 10,-6 24.3,-7.9 35.9,-4.9 8,2.1 63,27.7 68.9,32 5.9,4.3 11,11 14.8,19.2 2.3,5.1 2.8,7.6 3.1,17.7 l 0.4,11.7 h 9.7 c 17.8,0 28.8,3.9 38.8,13.5 l 5.1,5 5.2,-4.7 c 5.7,-5.1 14.1,-9.9 20.8,-11.9 3.8,-1.1 5.1,-2.4 10.4,-9.8 6.7,-9.3 62.2,-73.6 68.1,-78.8 5.2,-4.5 11.3,-7.9 17.9,-9.8 4.8,-1.4 10.9,-1.5 43.5,-1.3 l 37.9,0.3 7.6,3.8 c 20.9,10.3 31.1,32.6 25.3,55.2 -2.6,9.8 -6.3,15.2 -18.5,27.2 l -11.5,11.3 h 4 c 5.3,0 13.5,2.3 20.4,5.6 4.5,2.2 10.1,7.3 29.1,26.6 12.9,13.2 25.2,26.4 27.3,29.5 2,3 4.6,8.5 5.7,12.2 2,6.5 2.1,8.8 1.8,76.6 l -0.3,70 -2.3,5.7 c -1.3,3.2 -4.3,8.5 -6.7,11.8 l -4.5,6 4,5.6 c 10.5,15.1 11.8,33.8 3.4,50.6 -2,4.1 -9.8,12.5 -33.3,35.9 -30,29.9 -30.8,30.7 -39.4,34.7 -4.8,2.3 -10.8,4.7 -13.5,5.2 -3,0.7 -36.1,1 -93.2,0.8 l -88.5,-0.3 -6,-2.8 c -6.4,-3.1 -9.9,-4.1 -9,-2.8 0.7,1.2 -2.2,3.4 -3.3,2.7 -0.6,-0.3 -1.6,0.2 -2.3,1.2 -1.3,1.6 -1.3,1.6 0.6,0.2 1.9,-1.4 1.9,-1.4 0.6,0.2 -0.7,1 -1.6,1.6 -2,1.3 -0.4,-0.2 -2.3,0.9 -4.3,2.5 -2.3,1.9 -3.8,2.6 -4.5,1.9 -0.6,-0.6 -1.6,-0.1 -2.9,1.3 l -1.9,2.3 2.5,-2 2.5,-2 -1.9,2.2 c -1,1.3 -2.2,2 -2.7,1.8 -0.4,-0.3 -1.1,0 -1.4,0.6 -0.4,0.5 -1.3,0.8 -2,0.5 -0.7,-0.2 -2.1,0.5 -3.2,1.7 l -1.8,2.2 2.5,-2 2.5,-2 -1.9,2.3 c -1.1,1.2 -2.2,2 -2.4,1.7 -0.3,-0.3 -1.9,0.7 -3.6,2.2 -2.8,2.5 -2.9,2.6 -1.1,0.3 1.2,-1.4 0.2,-0.9 -2.3,1.3 -2.4,2.1 -4.7,3.5 -5.1,3.2 -0.5,-0.2 -1.4,0.2 -2.1,1 -1.7,2 -2.2,1.9 -6.2,-1.2 z M 1023.9,953 v -41 l -77.7,0.2 -77.7,0.3 -0.3,40.2 -0.2,40.3 76.2,0.3 c 42,0.1 77.1,0.3 78,0.5 1.6,0.2 1.7,-2.8 1.7,-40.8 z M 605,955.6 c 0,-20.5 -0.3,-38.8 -0.6,-40.5 L 603.8,912 H 581.9 560 v 3.4 c 0,1.9 0.4,3.7 0.9,4.1 0.6,0.3 3,3.3 5.4,6.8 2.4,3.4 8.9,12.6 14.5,20.4 l 10.2,14.2 v 16 16.1 h 7 7 z M 408.7,859.8 c -0.2,-20.4 0.7,-25.3 6.7,-34.8 4,-6.3 48.5,-51.3 54.6,-55.2 6.9,-4.4 15.9,-6.8 25.6,-6.8 4.6,0 8.4,-0.3 8.4,-0.6 0,-1.4 -0.9,-2.8 -23.6,-37.4 -4.9,-7.4 -9.1,-13.9 -9.3,-14.5 -0.2,-0.5 -1.2,-2.1 -2.2,-3.4 l -1.9,-2.4 v 3.5 c 0,5.9 -3.9,19.1 -7.2,24.3 -1.7,2.8 -3.7,6.1 -4.4,7.5 -0.7,1.4 -4.9,6.1 -9.4,10.5 -4.4,4.4 -8,8.4 -8,8.9 0,0.5 -5.1,6.3 -11.2,12.8 -29.7,31.5 -32.9,34 -45.3,37.3 -5.1,1.3 -17.9,1.5 -91.7,1.5 H 204 v 2.5 c 0,1.4 0.8,2.9 1.9,3.5 1.3,0.6 23.6,1 65.4,1 38.3,0 65.6,0.4 68.8,1 13.7,2.6 21.4,8.7 51.6,41.3 9.1,9.7 16.7,17.7 16.9,17.7 0.2,0 0.2,-8.2 0.1,-18.2 z"
       id="path18" />
    <path
       d="m 1359.6,504.5 c -3.5,-3.6 -3.7,-9.8 -3.4,-112 l 0.3,-100 14.7,-54.2 c 8.1,-29.8 15.9,-56.8 17.4,-60 2.3,-4.8 6.9,-9.9 27.3,-30 26.3,-25.9 31.2,-30 40.6,-33.5 5.8,-2.2 7.3,-2.3 48.3,-2.6 23.2,-0.2 42.2,-0.4 42.2,-0.6 0,-0.1 7,-19.3 15.5,-42.6 17,-46.6 18.6,-49.7 29.1,-58.3 8.3,-6.8 14.6,-8.9 27.4,-9.5 8.4,-0.3 11.6,0 16,1.5 9.5,3.2 63.6,34.1 70,40 6.5,6 12.2,15.8 13.9,24.1 0.7,3.4 1.1,20.3 1.1,46.5 l 0.1,41.2 16.2,-16.5 c 16.5,-16.9 21,-20.3 30.7,-23.6 5.2,-1.8 10,-1.9 99.5,-1.9 h 94 l 6.7,2.4 c 9.3,3.4 14.4,7.6 38.4,32.1 22.4,23 26.4,27.9 29.8,36.8 2.1,5.6 2.1,7 2.4,73.2 0.2,46.9 0,69.3 -0.8,73.3 -1.5,7.8 -4.3,14.1 -9.1,20.4 l -3.9,5.3 4,5.9 c 6.3,9.1 8.3,15.8 8.3,27.6 0.1,11.5 -1.8,18.2 -8,27.5 -5.2,7.9 -55.4,57.9 -62.9,62.7 -12.9,8.2 -6.8,7.8 -105.9,7.8 h -88 l -6.7,-2.3 c -3.7,-1.3 -8.6,-3.7 -11,-5.3 -2.4,-1.7 -13.7,-12.7 -25.3,-24.6 l -21,-21.4 -23.9,22.6 c -26,24.5 -31.1,28.1 -44,30.4 -7.7,1.4 -172.1,1.5 -179.4,0.1 -2.8,-0.5 -6.8,-1.7 -8.9,-2.6 -2.1,-1 -4,-1.8 -4.3,-1.9 -4.5,-1.2 -9.6,-5.8 -28.5,-25.9 -6.6,-7 -14.6,-15.5 -17.9,-18.8 -3.2,-3.4 -7.4,-8.6 -9.4,-11.6 -3,-4.4 -3.7,-5.1 -4.3,-3.5 -0.3,1 -0.5,2.1 -0.2,2.6 0.2,0.4 0,0.7 -0.5,0.7 -0.5,0 -0.8,1.3 -0.7,3 0.1,1.6 -0.2,2.7 -0.7,2.4 -0.4,-0.3 -0.8,0.4 -0.8,1.4 0,1.1 -0.7,3.2 -1.4,4.8 -0.8,1.5 -1.3,3.1 -1,3.6 0.3,0.4 0.1,0.8 -0.4,0.8 -0.8,0 -1,0.6 -1.4,5 -0.1,1.1 -0.7,2 -1.2,2 -0.5,0 -0.7,0.3 -0.3,0.6 0.3,0.4 -0.3,2.4 -1.4,4.6 -1.1,2.2 -1.5,3.7 -0.9,3.3 0.6,-0.4 0.2,1.1 -0.9,3.3 -1.1,2.2 -1.7,4.2 -1.4,4.6 0.3,0.3 0.1,1.1 -0.5,1.9 -0.6,0.7 -1.3,2.4 -1.6,3.9 -0.2,1.4 -1.1,3.9 -1.8,5.4 -0.8,1.6 -1.4,4.1 -1.3,5.6 0,1.5 -0.3,2.4 -0.7,2.2 -0.4,-0.3 -0.8,-0.2 -0.9,0.3 0,0.4 -0.3,1.7 -0.5,2.8 -0.3,1.1 -0.6,2.7 -0.8,3.5 -0.1,0.8 -0.7,2.4 -1.4,3.6 -1.1,2.2 -2.3,6.6 -2.5,9.7 -0.2,2.1 -0.2,2.1 -2.1,0.2 z M 1543,333.8 c 1.9,-4.6 4.6,-11 6.1,-14.3 11.7,-25.2 22.3,-51.6 22.8,-56.7 l 0.7,-5.8 h -20.8 -20.8 v 42.5 42.5 h 4.3 4.3 z"
       id="path20" />
    <path
       d="m 96.7,487.4 c -0.3,-0.4 -2.4,-0.8 -4.6,-0.9 -2.2,-0.2 -7.5,-2 -11.8,-4 C 72.9,479 70.9,477.2 40.9,447.1 6.3,412.4 4.3,409.9 1.4,395.8 -3,375.1 7.7,353.2 26.7,343.6 35.5,339.2 38.5,339 117.3,339 H 192 V 189.6 c 0,-145.7 0,-149.5 2,-155.7 3.9,-12.7 12.3,-22.5 24.7,-28.6 6.9,-3.4 8.5,-3.8 17.4,-4.1 5.5,-0.3 11.9,0.1 14.4,0.7 2.4,0.6 18.8,7.4 36.5,15 33.6,14.5 37.6,16.9 44.9,26.1 2.3,2.9 10.3,19.3 21.5,43.8 l 17.8,39.1 5.2,-3.9 c 6.2,-4.7 12.6,-7.5 20.2,-8.9 3.8,-0.7 35.9,-1.1 93.8,-1.1 95.6,0 95.8,0 106.7,5.5 3.7,1.9 9.9,7.2 19.4,16.6 7.8,7.7 14.4,13.9 14.8,13.9 0.4,0 0.7,-0.7 0.7,-1.6 0,-3.2 6.2,-14.1 10.5,-18.6 5.7,-6 11.5,-9.9 19,-12.9 5.8,-2.2 7.3,-2.3 37.3,-2.7 21.2,-0.2 33.5,0 38.3,0.8 18.6,3.1 33.6,17.1 38.4,35.7 1.3,4.9 1.5,19.6 1.5,99.5 V 342 h 24.5 24.4 l 0.3,-95.2 c 0.3,-94.3 0.3,-95.4 2.5,-101.5 5.8,-17.2 19.9,-29.4 37.3,-32.3 4.5,-0.8 17.5,-1 38.2,-0.8 25.9,0.3 32,0.7 35.5,2 3.8,1.5 4.5,1.5 9,0 4,-1.3 10.8,-1.7 39.2,-2 22.9,-0.2 36.6,0 41.1,0.8 8.8,1.5 17.8,5.8 23.8,11.4 2.7,2.5 12.7,15.3 22.2,28.6 9.6,13.2 17.6,24 18,24 0.3,0 8.2,-10.6 17.5,-23.6 18.1,-25 24,-31.6 32.5,-35.9 9.5,-4.8 15.5,-5.5 51,-5.5 35.7,0 42.1,0.7 51.1,5.7 15.9,8.6 24.9,23.9 24.9,42 -0.1,16.5 -2.1,21 -19.5,44.3 -6.8,9.1 -23.6,31.6 -37.3,50 -13.8,18.4 -26.6,35.6 -28.6,38.2 l -3.6,4.7 10.3,13.8 c 5.7,7.6 14.3,19.4 19.2,26.3 4.9,6.9 19.5,26.7 32.4,44 12.8,17.3 24.6,34.2 26.2,37.5 8.5,18 4.8,40.4 -9.1,54.6 -6.3,6.3 -17.4,12.3 -25.9,13.9 -7.3,1.4 -65.2,1.3 -72.7,-0.1 -8.4,-1.5 -17.1,-6 -23.6,-12.1 -3.1,-2.9 -14.2,-17.1 -24.8,-31.5 -10.5,-14.5 -19.4,-26.4 -19.8,-26.7 -0.4,-0.2 -10.1,12.4 -21.7,28.1 -11.5,15.7 -22.5,29.8 -24.4,31.4 -5.3,4.4 -14.2,8.7 -21.2,10.4 -7.7,1.8 -64.9,2.2 -74.1,0.5 -7.3,-1.4 -18.1,-6.7 -23.8,-11.8 l -4.5,-3.9 -5.1,4.3 c -6,5.2 -15.9,10 -23.3,11.4 -7.2,1.4 -178.8,1.4 -186.2,0 -3,-0.5 -8.7,-2.6 -12.8,-4.6 -6.7,-3.3 -9.6,-5.9 -30.9,-27.5 l -23.6,-24 -24.5,24.4 c -26.8,26.6 -30.4,29.2 -43.5,31.6 -4,0.7 -33.3,1.1 -88,1.1 -90.5,0 -90.2,0 -101.8,-6.2 -7.4,-3.9 -15.4,-11.4 -39.8,-37.1 L 325.5,425.1 298,452.4 c -29.9,29.7 -33.1,32.1 -46.4,34.5 -6.4,1.2 -153.7,1.6 -154.9,0.5 z M 990.8,315.6 c 7.2,-9.9 13.2,-18.3 13.2,-18.6 0,-0.8 -26.3,-36.6 -28.6,-39 -1.2,-1.2 -1.4,4.1 -1.3,39.5 0,38.9 0.1,40.9 1.7,38.5 0.9,-1.3 7.7,-10.5 15,-20.4 z M 356.3,140.8 368.8,127.5 366.6,123 c -1.2,-2.5 -3.2,-6.6 -4.4,-9.3 -1.2,-2.6 -3,-6.6 -4.1,-9 -1.1,-2.3 -3.2,-6.9 -4.6,-10.2 -1.5,-3.3 -4.2,-9.2 -6.1,-13.1 -1.9,-3.9 -3.4,-7.7 -3.4,-8.4 0,-0.7 -0.2,-1.1 -0.5,-0.8 -0.8,0.8 -1.1,81.8 -0.3,81.8 0.3,0 6.2,-6 13.1,-13.2 z"
       id="path22" />
  </g>
  <g
     fill="#ffffff"
     id="g52"
     transform="translate(-0.35475755,-1.0954592)">
    <path
       d="m 65.7,1115.6 c -2.3,-2.6 -10.6,-23 -10.6,-26.1 0,-1.1 0.5,-3 1.2,-4.1 0.7,-1.2 13,-14.2 27.4,-29 l 26.2,-26.9 104.8,-0.5 104.8,-0.5 0.3,-40.7 L 320,947 H 234.4 148.8 L 126.2,925.1 C 93.2,893.2 94.8,895.1 89.8,883 l -4.3,-10.5 v -59.4 -59.4 l 28.8,-28.3 28.9,-28.4 h 139.7 139.8 l 2.1,2.3 c 3.1,3.3 11,24 10.4,27.6 -0.4,3.1 -7.1,9.9 -42.5,43.9 l -15.8,15.2 -105.2,0.2 -105.2,0.3 -0.3,35.3 -0.2,35.2 h 83.3 83.4 l 3.1,2.3 c 3.8,2.6 54.2,55 55.9,58.1 0.7,1.1 3.1,6.7 5.3,12.3 l 4,10.1 V 998 c 0,41.9 -0.3,58.7 -1.2,60.3 -0.9,1.9 -43.7,47 -53.4,56.5 L 343,1118 H 205.4 67.8 Z"
       id="path26" />
    <path
       d="M 477.9,1096.3 456.4,1074.5 452,1064 447.5,1053.5 447.2,953 c -0.2,-55.3 0,-101.9 0.3,-103.7 0.4,-2.4 5.5,-8.2 22.3,-25.3 l 21.7,-22.1 88.2,0.1 c 48.5,0 88.8,0.2 89.6,0.5 0.7,0.3 10.7,10.3 22.2,22.1 l 20.8,21.5 4.3,10.6 4.4,10.5 v 103.4 103.3 l -21.6,22.1 -21.6,22 h -89.3 -89.2 z m 165.9,-136 -0.3,-71.8 -59.2,-0.3 L 525,888 v 72 72 h 59.5 59.5 z"
       id="path28" />
    <path
       d="m 798.5,1105.8 c -32.8,-33.5 -30.1,-30.3 -35,-42.2 l -4.5,-10.8 v -103 -102.9 l 20.7,-21.5 c 11.4,-11.9 21.5,-22 22.5,-22.5 1,-0.5 36.5,-0.9 84.3,-0.9 h 82.6 l 10.7,9.9 c 5.9,5.5 18,17.3 26.9,26.3 l 16.3,16.3 4.5,11.2 c 5,12.6 5.4,15.8 2.4,19.7 l -2,2.6 -95.7,0.2 -95.7,0.3 v 71.5 71.5 l 91.6,0.5 c 73.3,0.4 91.9,0.8 93.2,1.8 2.2,1.9 10.7,23.6 10.7,27.5 0,1.7 -0.6,3.9 -1.3,4.7 -0.7,0.8 -12.7,12.9 -26.8,26.8 l -25.6,25.2 h -83.9 -83.9 z"
       id="path30" />
    <path
       d="m 1073.8,1115.7 c -1.1,-1.2 -4,-7.2 -6.4,-13.2 l -4.4,-10.9 V 950.2 c 0,-104.4 0.3,-141.9 1.1,-143.5 0.7,-1.2 2.1,-2.9 3.2,-3.8 l 2.1,-1.6 -3.2,-7.6 -3.2,-7.7 v -31.6 -31.6 l 2.9,-2.9 2.9,-2.9 h 28.2 c 31.3,0 32.5,0.2 35.4,6.4 0.9,1.9 3.2,7.5 5.1,12.5 l 3.5,9 V 775 c 0,32 -0.4,35 -4.9,36.5 -1.9,0.6 -1.8,0.9 1.2,7.8 l 3.2,7.2 0.3,141.5 c 0.1,77.8 0,142.5 -0.3,143.8 -0.3,1.2 -1.4,3.1 -2.5,4.2 -1.9,1.9 -3.5,2 -32.1,2 -30,0 -30.1,0 -32.1,-2.3 z"
       id="path32" />
    <path
       d="m 1220.7,1096 -21.4,-22.1 -4.4,-11.2 -4.4,-11.2 V 951 c 0,-55.3 0.3,-101.6 0.7,-103 0.4,-1.4 10.3,-12.3 22,-24.3 l 21.3,-21.8 24.8,0.1 c 13.6,0 24.7,-0.2 24.7,-0.5 0,-0.2 -1.3,-3.8 -3,-8 -1.6,-4.2 -3,-8.8 -3,-10.3 0,-3.3 49.8,-76.9 53.3,-78.9 1.6,-0.9 10.3,-1.2 31.5,-1.3 32,0 33.6,0.2 36.1,5.7 5.5,11.9 9,22.5 8.5,25.3 -0.5,2.3 -8.3,10.2 -34.9,35.2 l -34.2,32.3 37.6,0.5 c 20.7,0.3 37.7,0.7 37.8,0.8 0.1,0.1 9.7,10.2 21.5,22.5 l 21.3,22.3 4.3,11.5 4.3,11.4 -0.3,62.7 -0.3,62.6 -2.4,2.6 -2.4,2.6 -95.6,0.2 -95.6,0.3 -0.3,15.3 -0.3,15.2 h 91 c 85.1,0 91,0.1 93,1.8 3.1,2.4 11.1,22.5 11.1,27.5 0,4.1 -0.4,4.6 -26.3,30.4 l -26.2,26.3 h -84.2 -84.1 z m 165.8,-194.5 v -13 h -59 -59 l -0.3,11.9 c -0.1,6.6 0,12.6 0.2,13.3 0.4,1.1 11.5,1.3 59.3,1.1 l 58.8,-0.3 z"
       id="path34" />
    <path
       d="m 1531.2,1115.7 c -1.2,-1.3 -4.2,-7.4 -6.7,-13.5 L 1520,1091 V 989.5 888 h -8.3 c -5.7,0 -8.9,-0.5 -10.4,-1.5 -1.2,-0.8 -4,-6.3 -6.7,-13 L 1490,862 v -27.4 -27.3 l 2.5,-2.7 c 2.4,-2.5 2.7,-2.6 15,-2.6 h 12.5 v -37.5 c 0,-41.4 0.1,-42.3 6,-44.4 2.4,-0.8 4,-0.7 6.8,0.3 6.9,2.5 52.7,23.8 54.4,25.3 0.9,0.8 3.7,6.6 6.2,12.9 l 4.6,11.4 v 16 16 h 24.9 24.9 l 2.5,3 c 2.8,3.3 10.7,22.6 10.7,26.1 0,3.1 -26.7,54.7 -29,55.9 -1,0.5 -9.1,1 -17.9,1 H 1598 v 72 72 h 26.8 c 22,0 27.1,0.3 28.9,1.5 2.6,1.8 11.3,23.3 11.3,27.8 0,1.7 -0.6,3.9 -1.3,4.7 -0.7,0.8 -12.7,12.9 -26.8,26.8 l -25.7,25.2 h -38.9 -39 z"
       id="path36" />
    <path
       d="m 1703.3,1096.3 -21.2,-21.8 -4.3,-10 -4.3,-10 -0.3,-103.8 -0.2,-103.7 21.1,-22 c 11.6,-12 21.8,-22.1 22.6,-22.4 0.8,-0.3 12.2,-0.6 25.4,-0.6 13.1,0 23.9,-0.3 23.9,-0.6 0,-0.4 -1.4,-4.5 -3.2,-9.1 -2.6,-7 -3,-8.9 -2.2,-11.2 2,-5.1 50.8,-75.9 53.2,-77 1.5,-0.7 13,-1.1 32.1,-1.1 28.2,0 30,0.1 32.4,2 1.6,1.3 4.1,6.1 7.1,13.5 4.8,11.9 5.3,14.4 3.6,17.5 -0.5,1 -16.1,16.2 -34.7,33.7 l -33.7,31.8 37.4,0.5 37.3,0.5 21.3,21.9 21.3,21.9 4.5,11.3 4.6,11.4 v 62.6 c 0,54.1 -0.2,62.9 -1.5,65.4 -0.9,1.7 -1.7,3.1 -1.8,3.2 -0.1,0.2 -43.6,0.5 -96.7,0.8 l -96.5,0.5 v 15 15 l 91.1,0.5 c 86.7,0.5 91.3,0.6 93.2,2.3 2.8,2.6 10.6,22.4 10.6,27 0.1,3.6 -1.1,4.9 -26.5,30.2 l -26.5,26.5 h -83.9 l -84,0.1 z M 1869,901.5 V 888 l -59.2,0.2 -59.3,0.3 -0.3,11.9 c -0.1,6.6 0,12.6 0.2,13.3 0.4,1 11.9,1.3 59.6,1.3 h 59 z"
       id="path38" />
    <path
       d="m 104.5,466.6 c -1.6,-0.8 -15,-13.5 -29.7,-28.3 L 48,411.5 43.5,400.3 c -5.2,-13 -5.5,-16.4 -2,-19.8 l 2.4,-2.5 h 93 93.1 l 0.2,-167.1 0.3,-167.1 2.8,-2.4 c 1.5,-1.3 3.8,-2.4 5.1,-2.4 3.1,0 59.6,24.4 62.1,26.9 1.2,1 4,6.7 6.3,12.6 l 4.2,10.6 v 160.7 160.7 l -27.7,27.7 c -15.3,15.2 -29.1,28.2 -30.6,28.8 -1.9,0.6 -26.8,1 -74,1 -57.9,-0.1 -71.8,-0.3 -74.2,-1.4 z"
       id="path40" />
    <path
       d="m 409.5,466.3 c -1.7,-1 -12.1,-11 -23.1,-22.3 l -20,-20.5 -4.7,-11.8 L 357,400 V 299.6 c 0,-59.7 0.4,-101.5 0.9,-102.9 0.5,-1.4 10.6,-12.2 22.3,-24.1 l 21.3,-21.7 88.9,0.1 h 89 l 21.2,21.8 21.3,21.7 4.5,11.3 4.6,11.2 v 64.3 64.4 l -2.3,2.1 -2.3,2.2 H 530.7 435 v 15.5 15.5 h 90.5 c 80.5,0 90.8,0.2 93,1.6 2.9,1.9 11.5,22.8 11.5,28.1 0,3.4 -1.5,5.1 -25.2,28.9 -13.8,14 -26.6,26 -28.4,26.9 -2.8,1.3 -13.5,1.5 -83.6,1.5 -74.7,0 -80.5,-0.1 -83.3,-1.7 z M 553.8,250.8 554.1,238 H 494.5 435 v 13 13 l 59.3,-0.2 59.2,-0.3 z"
       id="path42" />
    <path
       d="m 722.5,467.3 c -2.4,-0.6 -9.5,-7.4 -29.7,-28.5 -15,-15.7 -15,-15.8 -19.4,-26.4 L 669,401.8 v -123 -122.9 l 2.5,-2.4 2.4,-2.5 h 29.6 c 34.8,0 31.7,-1.1 38,14 l 4,9.5 0.5,103 0.5,103 59.3,0.3 59.2,0.2 V 269.4 c 0,-82.9 0.3,-112.1 1.2,-113.7 2.4,-4.6 2.8,-4.6 33.6,-4.7 h 29.4 l 2.7,2.7 c 1.6,1.7 4.4,7.3 6.9,14.1 l 4.2,11.3 v 120.5 c 0,89.7 -0.3,121.1 -1.2,122.7 -1.9,3.7 -40.7,43.1 -43.6,44.4 -2,0.9 -23.5,1.2 -88.2,1.1 -47,0 -86.4,-0.2 -87.5,-0.5 z"
       id="path44" />
    <path
       d="m 965.4,467.3 c -1.2,-0.2 -2.9,-1.2 -3.9,-2.3 -2.6,-2.9 -10.5,-22.8 -10.5,-26.5 0,-2.8 5.5,-10.8 34.6,-50.2 19.1,-25.7 41.3,-55.7 49.3,-66.5 8,-10.9 14.6,-20.2 14.6,-20.7 0,-0.6 -19.5,-27.2 -43.4,-59.1 -42.3,-56.8 -43.4,-58.4 -47.7,-69 -4.7,-11.7 -5.1,-13.8 -3.2,-17.3 2.4,-4.6 2.6,-4.6 36.9,-4.7 h 32.6 l 2.4,2.4 c 1.3,1.3 16.6,22 33.9,46 17.3,23.9 31.7,43.5 32,43.5 0.3,0 15.1,-20.3 33,-45 17.9,-24.8 33.3,-45.5 34.2,-46 0.9,-0.5 16.2,-0.9 34.1,-0.9 h 32.4 l 2.2,2.4 c 2.8,3 11.1,22.9 11.1,26.7 0,2.1 -6.5,11.5 -26.7,38.6 -14.6,19.7 -36.3,48.7 -48.1,64.6 -15.1,20.3 -21.1,29.1 -20.5,30 0.6,0.6 20.9,28.2 45.3,61.1 42.9,58.1 44.5,60.3 48.7,70.8 5,12.6 5.4,16.4 1.7,19.9 l -2.6,2.4 -29.1,0.3 c -18.2,0.2 -30.5,-0.1 -32.7,-0.7 -3.1,-0.9 -7.5,-6.4 -38.8,-49.1 -19.4,-26.4 -35.7,-48 -36.1,-48 -0.5,0 -16.7,21.6 -36.1,47.9 -28,38.2 -35.8,48.2 -38.3,49 -2.9,1.1 -56.4,1.4 -61.3,0.4 z"
       id="path46" />
    <path
       d="m 1473.8,466.7 c -3.3,-1.5 -40.9,-41.1 -43.2,-45.5 -0.9,-1.8 -3.3,-7.4 -5.2,-12.3 l -3.4,-9.1 V 298.2 196.7 l 14.8,-15 c 8.1,-8.2 18.6,-18.5 23.4,-22.8 l 8.8,-7.9 h 71.5 71.5 V 97.9 44.8 l 3,-3 c 2.5,-2.5 3.7,-3 6.3,-2.5 3.5,0.6 56.5,30 58.4,32.4 0.6,0.8 3.2,6.6 5.7,12.9 L 1690,96 v 163.4 163.3 l -2.2,3.1 c -3.3,4.6 -40.5,39.5 -43.7,40.9 -3.8,1.7 -166.4,1.7 -170.3,0 z M 1612,309.5 V 238 h -56 -56 v 71.5 71.5 h 56 56 z"
       id="path48" />
    <path
       d="m 1787.3,467.3 c -1.3,-0.2 -11.7,-10.1 -23.6,-22.3 l -21.4,-22 -4.1,-10.5 -4.2,-10.6 v -103 -103 l 17.9,-18.7 c 9.8,-10.3 19.7,-20.4 22,-22.5 l 4.1,-3.7 h 88.1 c 55.2,0 88.7,0.4 89.9,1 1,0.5 11.2,10.8 22.6,22.8 l 20.9,21.8 4.3,11.3 4.2,11.2 -0.2,62.9 -0.3,62.8 -2.4,2.6 -2.4,2.6 -95.6,0.2 -95.6,0.3 -0.3,15.3 -0.3,15.2 h 91.1 91.1 l 2.2,2.3 c 2.1,2 10.4,21.1 10.8,24.7 0.6,5.5 -0.4,6.7 -25.3,31.8 -13.9,14 -26.7,26 -28.5,26.8 -2.7,1.2 -16.8,1.4 -83,1.3 -43.9,-0.1 -80.8,-0.4 -82,-0.6 z m 142.5,-216.5 0.3,-12.8 h -59.6 -59.5 v 12.3 c 0,6.8 0.3,12.7 0.7,13 0.3,0.4 27,0.6 59.2,0.5 l 58.6,-0.3 z"
       id="path50" />
  </g>
</svg>
