<?xml version="1.0" encoding="UTF-8" standalone="no"?>
<svg
   version="1.0"
   width="4099"
   height="719"
   viewBox="0 0 4099 719"
   preserveAspectRatio="xMidYMid meet"
   id="svg112"
   sodipodi:docname="auto-demo.svg"
   inkscape:version="1.1.2 (0a00cf5339, 2022-02-04, custom)"
   xmlns:inkscape="http://www.inkscape.org/namespaces/inkscape"
   xmlns:sodipodi="http://sodipodi.sourceforge.net/DTD/sodipodi-0.dtd"
   xmlns="http://www.w3.org/2000/svg"
   xmlns:svg="http://www.w3.org/2000/svg">
  <defs
     id="defs116" />
  <sodipodi:namedview
     id="namedview114"
     pagecolor="#ffffff"
     bordercolor="#666666"
     borderopacity="1.0"
     inkscape:pageshadow="2"
     inkscape:pageopacity="0.0"
     inkscape:pagecheckerboard="0"
     showgrid="false"
     inkscape:zoom="0.26066813"
     inkscape:cx="2050.5"
     inkscape:cy="360.61179"
     inkscape:window-width="1920"
     inkscape:window-height="1017"
     inkscape:window-x="-8"
     inkscape:window-y="-8"
     inkscape:window-maximized="1"
     inkscape:current-layer="svg112" />
  <g
     fill="#5800ff"
     id="g16"
     transform="translate(-1)">
    <path
       d="M 44.7,637.3 1,593.7 V 296.8 0 h 250.9 251 l 89,89 89.1,88.9 V 384.5 591 h -45 -45 v 45 45 H 339.7 88.3 Z M 515.8,560.8 516,516 H 560.5 605 V 339.3 162.7 L 584.1,141.8 563.2,121 H 539.6 516 V 97.4 73.8 L 494.6,52.4 473.2,31 H 252.1 31 v 266 266.1 l 21.3,21.3 21.2,21.4 221,-0.1 221,-0.2 z"
       id="path2" />
    <path
       d="M 246,318.5 V 157 h 72 72 V 318.5 480 H 318 246 Z M 356,339 V 232 h -17 -17 v 107 107 h 17 17 z"
       id="path4" />
    <path
       d="m 926.9,674.5 c -3.5,-3.6 -23.2,-23.3 -43.6,-43.8 L 846,593.5 V 296.8 0 h 295.9 295.9 l 44.1,44.1 44.1,44 v 72 71.9 h -103.5 c -56.9,0 -103.5,0.3 -103.5,0.6 0,0.3 6.3,6.9 14,14.5 l 14,13.9 v 75.5 75.5 h -90 -90 v 17 17 h 109 c 108.3,0 109,0 109,2 0,2 0.7,2 27,2 h 26.9 l 43.6,43.5 43.5,43.5 v 72 72 H 1229.6 933.3 Z m 523.9,-110.2 c 0.2,-44.3 0.4,-42.3 -4.6,-46.7 -0.7,-0.6 -4.5,-4.4 -8.5,-8.5 -4,-4.1 -8,-8.1 -9,-9 -1.1,-0.9 -6,-5.8 -11,-10.8 l -9.2,-9.3 h -158.9 -158.9 l 0.7,-5.2 c 0.3,-2.9 0.6,-35.3 0.6,-72 V 336 h 89.5 89.5 V 294.5 253 l -20.2,-20.3 c -11.2,-11.2 -21.3,-20.9 -22.5,-21.5 -1.6,-0.9 -20.2,-1.2 -69.2,-1.2 H 1092 V 183.5 157 h 179.5 179.5 v -41.5 c 0,-40.4 -0.1,-41.6 -2,-43.8 -2.6,-2.7 -0.6,-0.7 -22.4,-22.4 L 1408.3,31 H 1142.1 876 v 266 265.9 l 21.3,21.5 21.2,21.4 266,-0.2 266,-0.1 z"
       id="path6" />
    <path
       d="M 1734.9,637.1 1691,593.3 V 296.6 0 h 116.4 116.4 l 62.3,62 c 34.3,34.1 62.7,62 63.1,62 0.4,0 0.8,-7.6 0.8,-17 V 90 h 45 45 V 45 0 h 116.5 116.4 l 44.1,44.1 44,44.1 V 384.6 681 h -116.7 -116.7 l -43.8,-43.7 -43.8,-43.8 v -26.7 c 0,-26.1 0,-26.8 -2,-26.8 -1.9,0 -2,-0.7 -2,-19 v -19 h -47.2 -47.3 L 2026.8,487.1 2012,472.2 V 576.6 681 H 1895.4 1778.8 Z M 1936.8,470.8 1937,336 h 27 27 v 23.9 23.9 l 21.1,21.1 21,21.1 h 41.5 41.4 v -45 -45 h 27 27 v 114 114 l 2.5,1.2 c 1.4,0.6 2.5,1.4 2.5,1.8 0,0.6 12.7,13.6 17,17.5 0.6,0.6 5.6,5.6 11.1,11.3 l 9.9,10.2 h 85.9 c 77.4,0 85.9,-0.2 86.5,-1.6 0.3,-0.9 0.6,-120.6 0.6,-266.2 V 73.7 L 2364.5,52.3 2343,31 h -86.5 -86.5 v 45 45 h -45 -45 V 165.5 210 H 2053.5 2027 V 186.9 163.7 L 2005.8,142.4 1984.5,121 H 1960.8 1937 V 97.5 c 0,-21 -0.2,-23.7 -1.7,-25.4 -1,-1.1 -2.3,-2.6 -3,-3.3 -0.6,-0.7 -9.4,-9.5 -19.5,-19.5 L 1894.4,31 h -86.7 -86.7 v 265.8 265.9 l 2.8,2.5 c 1.5,1.5 4.3,4.3 6.3,6.5 2,2.1 6.1,6.1 9,9 3,2.8 9.9,9.7 15.3,15.2 l 10,10.1 86,-0.2 86.1,-0.3 z"
       id="path8" />
    <path
       d="m 2712,679.2 c -1.4,-0.9 -3.5,-2.8 -4.6,-4.2 -1.2,-1.4 -26.1,-26.3 -55.4,-55.5 -29.2,-29.1 -53.9,-53.8 -54.8,-54.9 -1,-1 -8.2,-8.3 -16.2,-16.2 -17.5,-17.4 -13.4,-13.2 -30.5,-30.6 L 2536,503.1 V 296.6 90 h 45 45 V 45 0 h 206.3 206.3 l 80,79.9 c 43.9,43.9 81.3,81.4 83.1,83.2 1.7,1.9 5.9,6.1 9.2,9.3 l 6.1,5.9 V 384.6 591 h -45 -45 v 45 45 l -206.2,-0.1 c -192.4,0 -206.5,-0.1 -208.8,-1.7 z M 3051,561 v -45 h 45 45 V 339.5 162.9 l -21,-20.9 -21,-21 h -24 -24 V 97 72.9 L 3030,52 3008.9,31 H 2832.5 2656 v 45 45 h -44.5 -44.5 v 176.2 176.2 l 21.3,21.3 21.2,21.3 h 23.3 23.2 v 23.3 23.4 l 2.8,2.5 c 1.5,1.4 4.3,4.2 6.3,6.4 2,2.1 6,6.2 9,9.1 3,2.8 9.9,9.7 15.3,15.2 l 10,10.1 h 175.8 175.8 z"
       id="path10" />
    <path
       d="M 2782,318.5 V 157 h 72 72 V 318.5 480 h -72 -72 z M 2892,339 V 232 h -17 -17 v 107 107 h 17 17 z"
       id="path12" />
    <path
       d="M 3469.9,592 3381,503.1 V 431.5 360 h 62 c 40.9,0 62,-0.3 62,-1 0,-0.6 -27.9,-29 -62,-63.2 l -62,-62.1 V 161.8 90 h 45 45 V 45 0 h 206.5 206.5 l 89,89 89,89 v 72 72 h -14 c -13.5,0 -16.3,0.7 -12.2,2.9 0.9,0.5 4,3.3 6.7,6.2 2.8,2.9 8.3,8.4 12.3,12.2 l 7.2,7.1 V 470.7 591 h -45 -45 v 45 45 h -206.6 -206.5 z m 426.9,-31.2 0.2,-44.8 44.8,-0.2 44.7,-0.3 0.3,-86.2 0.2,-86.2 -21.6,-21.5 -21.7,-21.6 h -23.4 -23.3 v -23.6 -23.5 l -3,-2.6 c -1.6,-1.3 -3,-3.1 -3,-3.8 0,-0.7 -0.9,-1.5 -2,-1.8 -1.1,-0.3 -2,-1.2 -2,-2.1 0,-0.9 -0.4,-1.6 -1,-1.6 -1.1,0 -7,-5.3 -12.8,-11.4 -2,-2.1 -6.1,-6.3 -8.9,-9.3 -2.9,-2.9 -5.3,-5.7 -5.3,-6.1 0,-0.4 -1.6,-1.5 -3.6,-2.4 -3.3,-1.7 -10.8,-1.8 -115.9,-1.8 H 3627 V 183.5 157 h 117 117 v 22.7 c 0,22.5 0.8,29.3 3.6,29.3 1.6,0 26.4,24.7 26.4,26.4 0,0.7 0.9,1.6 2,1.9 1.1,0.3 2,1.2 2,2.1 0,0.9 0.7,1.6 1.5,1.6 0.8,0 2.5,1.1 3.7,2.5 l 2.4,2.5 41.9,-0.2 42,-0.3 0.3,-40.8 0.2,-40.9 -21.4,-21.4 -21.4,-21.4 H 3920.6 3897 V 97.5 73.9 L 3875.6,52.5 3854.1,31 h -176 -176.1 v 45 45 h -45 -45 v 41.5 41.6 l 21,20.9 21,21 h 24 24 v 24 24 l 20.9,21 20.9,21 h 113.6 113.6 v 72 72 h -72 -72 v -23.9 -24 L 3608.8,414 c -10.1,-9.9 -19.6,-19.4 -21.3,-21 l -3,-3 h -86.2 -86.3 v 41.8 41.7 l 21.4,21.3 21.4,21.2 h 23.6 23.6 v 23.7 23.7 l 21.3,21.3 21.2,21.2 176,-0.2 176,-0.2 z M 3737,429 v -17 h -31.2 -31.3 l 14.3,14.3 c 11.3,11.4 14.2,14.8 14.2,17 v 2.7 h 17 17 z"
       id="path14" />
  </g>
  <g
     fill="#0cecdd"
     id="g62"
     transform="translate(-1)">
    <path
       d="M 49.3,587.4 C 37.6,575.7 28,565.6 28,565 c 0,-0.7 69.8,-1 223,-1 h 223 v -45 -45 l 44.8,-0.2 44.7,-0.3 0.3,-177.7 c 0.1,-129 0.5,-177.8 1.3,-177.8 0.6,0 10.5,9.4 22,20.8 L 608,159.7 V 339.3 519 H 563.5 519 l -0.2,44.8 -0.3,44.7 -224,0.2 -224,0.1 z"
       id="path18" />
    <path
       d="M 894.3,587.4 C 882.6,575.6 873,565.5 873,565 c 0,-0.7 96.7,-1 268,-1 h 268 v -43.5 c 0,-34.1 0.3,-43.5 1.3,-43.5 0.6,0 5.3,4.2 10.4,9.3 5,5 9.9,9.9 11,10.8 1,0.9 5,4.9 9,9 4,4.1 7.8,7.9 8.5,8.5 5.1,4.4 4.8,2.1 4.6,49.7 l -0.3,44.2 -269,0.1 -269,0.2 z"
       id="path20" />
    <path
       d="m 1751.4,598.9 c -5.4,-5.5 -12.3,-12.4 -15.3,-15.2 -2.9,-2.9 -7,-6.9 -9,-9 -2,-2.2 -4.8,-5 -6.3,-6.5 -1.6,-1.4 -2.8,-2.9 -2.8,-3.4 0,-0.4 39.8,-0.8 88.5,-0.8 H 1895 V 429 294 h 48 48 v 24 c 0,20.7 -0.2,24 -1.5,24 -0.8,0 -1.5,-0.7 -1.5,-1.5 0,-1.3 -3.3,-1.5 -24,-1.5 h -24 l -0.2,134.8 -0.3,134.7 -89.1,0.3 -89,0.2 z"
       id="path22" />
    <path
       d="m 2200,598.8 c -5.2,-5.5 -10.1,-10.5 -10.8,-11.1 -3.9,-3.4 -17.2,-17.1 -17.2,-17.7 0,-0.4 -1.1,-1.2 -2.5,-1.8 -1.4,-0.6 -2.5,-1.8 -2.5,-2.7 0,-1.3 9.9,-1.5 88.5,-1.5 H 2344 V 296 c 0,-182.2 0.3,-268 1,-268 0.6,0 10.7,9.6 22.5,21.3 l 21.5,21.4 v 267.5 c 0,147.2 -0.3,268.3 -0.6,269.2 -0.6,1.4 -9.3,1.6 -89.8,1.5 l -89.1,-0.1 z"
       id="path24" />
    <path
       d="m 2686.4,598.9 c -5.4,-5.5 -12.3,-12.4 -15.3,-15.2 -3,-2.9 -7,-7 -9,-9.1 -2,-2.2 -4.8,-5 -6.3,-6.4 -1.6,-1.4 -2.8,-2.9 -2.8,-3.4 0,-0.4 80.1,-0.8 178,-0.8 h 178 l 0.2,-44.7 0.3,-44.8 44.8,-0.3 44.7,-0.2 V 296 c 0,-158.6 0.2,-178 1.5,-178 0.9,0 11,9.4 22.5,21 l 21,20.9 V 339.5 519 h -45 -45 v 45 45 h -178.8 -178.8 z"
       id="path26" />
    <path
       d="m 3519.7,587.1 c -11.9,-11.9 -21.4,-22 -21,-22.4 0.3,-0.4 80.7,-0.7 178.5,-0.7 H 3855 v -45 -45 h 45 45 v -88.5 c 0,-48.7 0.4,-88.5 0.8,-88.5 0.5,0 10.6,9.7 22.6,21.6 l 21.6,21.5 -0.2,89.2 -0.3,89.2 -44.7,0.3 -44.8,0.2 -0.2,44.8 -0.3,44.7 -179,0.2 -179,0.2 z"
       id="path28" />
    <path
       d="m 2653,520.5 c 0,-1.3 -3.3,-1.5 -23.2,-1.5 h -23.3 l -21.2,-21.3 C 2573.6,486 2564,475.9 2564,475.2 c 0,-0.9 10.8,-1.2 46,-1.2 h 46 v 24 c 0,20.7 -0.2,24 -1.5,24 -0.8,0 -1.5,-0.7 -1.5,-1.5 z"
       id="path30" />
    <path
       d="m 3499,520.6 c 0,-1.4 -2.7,-1.6 -23.6,-1.6 h -23.6 l -21.4,-21.2 c -11.8,-11.7 -21.4,-21.9 -21.4,-22.5 0,-1 10,-1.3 46.5,-1.3 h 46.5 l -0.2,23.7 c -0.2,17.8 -0.6,23.7 -1.5,24.1 -0.7,0.2 -1.3,-0.3 -1.3,-1.2 z"
       id="path32" />
    <path
       d="M 204.7,479.3 C 204.3,479 204,396.8 204,296.8 V 115 h 93 93 v 24 c 0,20.7 -0.2,24 -1.5,24 -0.8,0 -1.5,-0.7 -1.5,-1.5 0,-1.3 -8.3,-1.5 -69,-1.5 h -69 v 158.5 c 0,140.2 0.2,158.5 1.5,158.5 0.8,0 1.5,0.7 1.5,1.5 0,1.3 -3.3,1.5 -23.3,1.5 -12.9,0 -23.7,-0.3 -24,-0.7 z"
       id="path34" />
    <path
       d="m 1050,387 v -93 h 89.5 89.5 v -43.5 -43.6 l 2.3,1.2 c 1.2,0.7 11.3,10.4 22.5,21.6 L 1274,250 v 44.5 44.5 h -89.5 -89.5 l -0.2,69 c -0.3,66.3 -0.2,69 1.5,69 1.1,0 1.7,0.6 1.5,1.3 -0.4,0.9 -6.3,1.3 -24.1,1.5 L 1050,480 Z"
       id="path36" />
    <path
       d="M 2740,297.5 V 115 h 93 93 l -0.2,23.7 c -0.2,17.8 -0.6,23.7 -1.5,24.1 -0.7,0.2 -1.3,-0.3 -1.3,-1.2 0,-1.4 -6.7,-1.6 -69,-1.6 h -69 v 158.5 c 0,140.2 0.2,158.5 1.5,158.5 0.8,0 1.5,0.7 1.5,1.5 0,1.3 -3.3,1.5 -24,1.5 h -24 z"
       id="path38" />
    <path
       d="m 3585.7,479.3 c -0.4,-0.3 -0.7,-21.3 -0.7,-46.5 0,-36 0.3,-45.8 1.3,-45.8 0.6,0 2.6,1.3 4.2,3 1.7,1.6 11.2,11.1 21.3,21 l 18.2,18.1 v 24 c 0,20.6 0.2,23.9 1.5,23.9 0.8,0 1.5,0.7 1.5,1.5 0,1.3 -3.3,1.5 -23.3,1.5 -12.9,0 -23.7,-0.3 -24,-0.7 z"
       id="path40" />
    <path
       d="m 2009,408 c -11.3,-11.4 -20.6,-21.4 -20.8,-22.3 -0.3,-1.5 3.4,-1.7 43,-1.9 l 43.3,-0.3 0.3,-44.7 0.2,-44.8 h 47.5 47.5 v 24 c 0,20.7 -0.2,24 -1.5,24 -0.8,0 -1.5,-0.7 -1.5,-1.5 0,-1.3 -3.3,-1.5 -24,-1.5 h -24 v 45 45 l -44.7,-0.1 -44.8,-0.1 z"
       id="path42" />
    <path
       d="m 3768,340.5 c 0,-1.3 -13.3,-1.5 -113.6,-1.5 h -113.6 l -20.9,-21 c -11.5,-11.5 -20.9,-21.6 -20.9,-22.5 0,-1.3 15.1,-1.5 136,-1.5 h 136 v 24 c 0,20.7 -0.2,24 -1.5,24 -0.8,0 -1.5,-0.7 -1.5,-1.5 z"
       id="path44" />
    <path
       d="m 3855,253.5 c 0,-48 0.1,-48.8 3.8,-44.5 1.1,1.3 1.1,1.2 0.3,-0.7 -0.6,-1.2 -1.1,-2.4 -1.1,-2.7 0,-0.3 19.5,-0.7 43.3,-0.8 l 43.2,-0.3 0.3,-43.2 c 0.1,-30.9 0.5,-43.3 1.3,-43.3 0.6,0 10.8,9.6 22.5,21.4 l 21.4,21.4 -0.2,43.9 -0.3,43.8 -44.7,0.3 -44.8,0.2 v 24 c 0,20.7 0.2,24 1.5,24 0.8,0 1.5,0.7 1.5,1.5 0,1.3 -3.3,1.5 -24,1.5 h -24 z m 42.8,-6.5 c -0.7,-1.1 -1.9,-2.2 -2.8,-2.5 -0.8,-0.4 -0.4,0.5 0.9,1.9 2.9,3.1 3.6,3.3 1.9,0.6 z m -16.5,-16.7 c -7.7,-7.5 -10.7,-9.8 -6.3,-4.8 1.9,2.2 3.8,4.1 4.2,4.3 0.3,0.2 2,1.6 3.7,3.3 1.7,1.6 3.4,2.9 3.7,2.9 0.3,0 -2.1,-2.6 -5.3,-5.7 z"
       id="path46" />
    <path
       d="m 3499,250.5 c 0,-1.3 -3.3,-1.5 -24,-1.5 h -24 l -21,-21 c -11.5,-11.5 -21,-21.4 -21,-22 0,-0.7 15.4,-1 46.5,-1 h 46.5 v 23.5 c 0,20.2 -0.2,23.5 -1.5,23.5 -0.8,0 -1.5,-0.7 -1.5,-1.5 z"
       id="path48" />
    <path
       d="M 1050,162.5 V 115 H 1229.5 1409 V 71.5 c 0,-31.6 0.3,-43.5 1.1,-43.5 0.9,0 18.5,17 39,37.7 5.3,5.3 4.9,1.5 4.9,49.8 V 160 H 1274.5 1095 v 23.5 c 0,20.2 0.2,23.5 1.5,23.5 0.8,0 1.5,0.7 1.5,1.5 0,1.3 -3.3,1.5 -24,1.5 h -24 z"
       id="path50" />
    <path
       d="m 1985,164 c 0,-36.1 0.3,-46 1.3,-46 0.6,0 10.8,9.7 22.5,21.4 l 21.2,21.3 v 23.2 c 0,19.9 0.2,23.1 1.5,23.1 0.8,0 1.5,0.7 1.5,1.5 0,1.3 -3.3,1.5 -24,1.5 h -24 z"
       id="path52" />
    <path
       d="m 3585.7,209.3 c -0.4,-0.3 -0.7,-21.7 -0.7,-47.5 V 115 h 135 135 V 71.5 c 0,-30.1 0.3,-43.5 1.1,-43.5 0.5,0 10.7,9.7 22.5,21.5 l 21.4,21.4 v 23.6 c 0,20.2 0.2,23.5 1.5,23.5 0.8,0 1.5,0.7 1.5,1.5 0,1.3 -3,1.5 -21,1.5 h -21 v 21 c 0,18 -0.2,21 -1.5,21 -0.8,0 -1.5,-0.7 -1.5,-1.5 0,-1.3 -13.3,-1.5 -114,-1.5 h -114 v 23.5 c 0,20.2 0.2,23.5 1.5,23.5 0.8,0 1.5,0.7 1.5,1.5 0,1.3 -3.3,1.5 -23.3,1.5 -12.9,0 -23.7,-0.3 -24,-0.7 z"
       id="path54" />
    <path
       d="m 474,74.5 c 0,-33.2 0.3,-46.5 1.1,-46.5 0.6,0 10.7,9.6 22.5,21.4 L 519,70.8 v 23.6 c 0,20.3 0.2,23.6 1.5,23.6 0.8,0 1.5,0.7 1.5,1.5 0,1.3 -3.3,1.5 -24,1.5 h -24 z"
       id="path56" />
    <path
       d="m 1895,74.5 c 0,-35.2 0.3,-46.5 1.2,-46.5 0.9,0 34,32 39.1,37.8 0.7,0.7 2,2.2 3,3.3 1.5,1.7 1.7,4.4 1.7,25.4 0,20.2 0.2,23.5 1.5,23.5 0.8,0 1.5,0.7 1.5,1.5 0,1.3 -3.3,1.5 -24,1.5 h -24 z"
       id="path58" />
    <path
       d="M 3009.7,120.3 C 3009.3,120 3009,99 3009,73.8 c 0,-39.6 0.2,-45.8 1.5,-45.8 0.8,0 10.9,9.4 22.5,21 l 21,20.9 V 94 c 0,20.7 0.2,24 1.5,24 0.8,0 1.5,0.7 1.5,1.5 0,1.3 -3.3,1.5 -23.3,1.5 -12.9,0 -23.7,-0.3 -24,-0.7 z"
       id="path60" />
  </g>
  <g
     fill="#e900ff"
     id="g74"
     transform="translate(-1)">
    <path
       d="M 28,297.5 V 28 H 252.5 477 v 45 45 l 44.8,0.2 44.7,0.3 v 179 179 l -44.7,0.3 -44.8,0.2 v 45 45 H 252.5 28 Z m 359,0 V 118 h -90 -90 v 178.8 c 0,98.4 0.3,179.2 0.7,179.5 0.3,0.4 40.8,0.7 90,0.7 H 387 Z"
       id="path64" />
    <path
       d="M 873,297.5 V 28 h 269.5 269.5 v 45 45 H 1232.5 1053 v 44.5 44.5 h 87.9 c 48.4,0 88.6,0.3 89.5,0.6 1.4,0.5 1.6,5.4 1.6,45 V 297 h -89.5 -89.5 v 90 90 h 179.5 179.5 v 45 45 H 1142.5 873 Z"
       id="path66" />
    <path
       d="M 1718.7,566.3 C 1718.3,566 1718,444.7 1718,296.8 V 28 h 90 90 v 45 45 h 45 45 v 44.5 44.5 h 44.5 44.5 V 162.5 118 h 45 45 V 73 28 h 90 90 V 297.5 567 h -90 -90 V 432 297 h -44.5 -44.5 l -0.2,44.8 -0.3,44.7 -44.7,0.3 -44.8,0.2 v -45 -45 h -45 -45 v 135 135 h -89.3 c -49.2,0 -89.7,-0.3 -90,-0.7 z"
       id="path68" />
    <path
       d="m 2653.7,566.3 c -0.4,-0.3 -0.7,-20.6 -0.7,-45 V 477 H 2608.5 2564 V 297.5 118 h 44.5 44.5 V 73 28 h 179.5 179.5 l 0.2,44.8 0.3,44.7 44.8,0.3 44.7,0.2 V 297.5 477 l -44.7,0.2 -44.8,0.3 -0.3,44.8 -0.2,44.7 h -178.8 c -98.4,0 -179.2,-0.3 -179.5,-0.7 z M 2923,297.5 V 118 h -90 -90 V 297.5 477 h 90 90 z"
       id="path70" />
    <path
       d="m 3499,566.3 c 0,-0.5 0,-20.7 0,-45 V 477 h -45 -45 v -45 -45 l 89.5,0.2 89.6,0.3 0.2,44.5 0.2,44.5 89.8,0.3 89.7,0.2 V 387 297 H 3633.5 3499 V 252.5 208 l -44.7,-0.2 -44.8,-0.3 -0.3,-44.7 -0.2,-44.8 h 45 45 V 73 28 h 179.5 179.5 v 45 45 l 44.8,0.2 44.7,0.3 v 44.5 44.5 h -44.5 -44.5 l -0.3,-44.7 -0.2,-44.8 h -135 -135 v 43.9 c 0,24.8 0.4,44.2 0.9,44.5 0.5,0.3 61.2,0.6 135,0.6 H 3858 v 45 45 h 45 45 v 90 90 h -45 -45 v 45 45 h -179.5 c -98.7,0 -179.5,-0.3 -179.5,-0.7 z"
       id="path72" />
  </g>
  <g
     fill="#fff338"
     id="g110"
     transform="translate(-1)">
    <path
       d="M 106.1,698.8 85.8,678.5 336.9,678.2 588,678 v -45 -45 h 45 45 V 381.6 175.2 l 20.5,20.6 20.5,20.5 V 422.6 629 l -44.7,0.2 -44.8,0.3 -0.3,44.8 L 629,719 H 377.7 126.4 Z"
       id="path76" />
    <path
       d="m 960.9,708.2 c -5.9,-5.9 -12.4,-12.4 -14.5,-14.4 -2.2,-2.1 -6.6,-6.5 -9.9,-9.8 l -6,-6 h 296.3 296.2 v -71.9 -71.9 l 20.5,20.5 20.5,20.6 V 647.1 719 H 1267.8 971.5 Z"
       id="path78" />
    <path
       d="M 1796.2,698.4 1776,678 H 1892.5 2009 V 571.5 c 0,-58.6 0.4,-106.5 0.8,-106.5 0.5,0 8.5,7.6 17.8,17 l 16.9,17 h 47.3 47.2 v 20.5 20.5 h -26 -26.1 l -4.1,-3.7 c -2.3,-2.1 -4.6,-4.4 -5.2,-5.1 -4.6,-5.5 -26.1,-26 -26.8,-25.6 -0.4,0.3 -0.8,48.4 -0.8,107 V 719 l -116.7,-0.1 -116.8,-0.1 z"
       id="path80" />
    <path
       d="M 2245.2,698.5 2224.8,678 h 116.6 116.6 l 0.2,-296.1 0.3,-296 20.3,20.1 20.2,20.2 V 422.6 719 h -116.7 l -116.8,-0.1 z"
       id="path82" />
    <path
       d="m 2747.9,715.2 c -2,-2 -4.3,-4.4 -5.2,-5.2 -0.9,-0.8 -4.4,-4.3 -7.8,-7.7 -3.3,-3.3 -7.4,-7.5 -9.1,-9.1 -1.6,-1.7 -5.6,-5.8 -8.9,-9.1 L 2711,678 h 206.5 206.5 v -45 -45 h 45 45 l 0.2,-206 0.3,-206.1 20.3,20.3 20.2,20.2 V 422.7 629 l -44.7,0.2 -44.8,0.3 -0.3,44.8 -0.2,44.7 -206.8,-0.1 h -206.7 z"
       id="path84" />
    <path
       d="M 3576.6,698.5 3556.1,678 h 206.5 206.4 v -45 -45 h 45 45 V 470.7 353.4 l -7.2,-7 c -4,-3.8 -8.7,-8.5 -10.5,-10.4 -1.7,-1.9 -6.2,-6.4 -9.9,-10 l -6.7,-6.5 17.1,-0.3 17.2,-0.2 0.2,-71.7 0.3,-71.6 20.3,20.2 20.2,20.3 v 71.9 71.9 h -17.5 c -9.6,0 -17.5,0.2 -17.5,0.5 0,0.3 1.4,1.8 3.1,3.3 1.7,1.5 3.8,3.5 4.7,4.6 1,1 7.4,7.6 14.5,14.6 l 12.7,12.7 V 512.4 629 l -44.7,0.2 -44.8,0.3 -0.3,44.8 -0.2,44.7 h -206.5 -206.4 z"
       id="path86" />
    <path
       d="m 2623.3,590.5 c -2.1,-2.4 -2.1,-2.5 -0.2,-2.5 2,0 3.4,2.1 2.7,3.9 -0.1,0.6 -1.3,-0.1 -2.5,-1.4 z"
       id="path88" />
    <path
       d="m 3468.2,590 c -1.1,-1.8 -1,-2 0.8,-2 1.3,0 2,0.7 2,2 0,1.1 -0.3,2 -0.8,2 -0.4,0 -1.3,-0.9 -2,-2 z"
       id="path90" />
    <path
       d="M 319,339 V 229 h 20 20 v 110 110 h -20 -20 z"
       id="path92" />
    <path
       d="m 1164,429 v -20 h 90 90 V 336.5 264 l -17.6,-17.5 -17.6,-17.5 h 107.1 107.1 l 0.2,-71.6 0.3,-71.6 20.3,20.3 20.2,20.3 v 71.8 71.8 h -107 c -58.8,0 -107,0.3 -107,0.8 0,0.4 7.9,8.5 17.5,18.1 l 17.5,17.4 V 377.6 449 H 1274.5 1164 Z"
       id="path94" />
    <path
       d="m 2854.9,448.6 c -0.2,-0.2 -0.3,-49.7 -0.1,-110 L 2855,229 h 20 20 v 110 110 h -19.8 c -10.9,0 -20.1,-0.2 -20.3,-0.4 z"
       id="path96" />
    <path
       d="m 3700,446.3 c 0,-2.3 -3.3,-6.1 -17.2,-20 L 3665.5,409 h 37.3 37.2 v 20 20 h -20 -20 z"
       id="path98" />
    <path
       d="m 3468.5,321 c -1.8,-1.9 -1.7,-2 0.3,-2 1.5,0 2.2,0.6 2.2,2 0,1.1 -0.2,2 -0.3,2 -0.2,0 -1.2,-0.9 -2.2,-2 z"
       id="path100" />
    <path
       d="m 588,88 c 0,-1.8 0.2,-1.9 2,-0.8 1.1,0.7 2,1.6 2,2 0,0.5 -0.9,0.8 -2,0.8 -1.3,0 -2,-0.7 -2,-2 z"
       id="path102" />
    <path
       d="m 2009,88 c 0,-1.8 0.2,-1.9 2,-0.8 1.1,0.7 2,1.6 2,2 0,0.5 -0.9,0.8 -2,0.8 -1.3,0 -2,-0.7 -2,-2 z"
       id="path104" />
    <path
       d="m 3124,87.8 c 0,-2 0.1,-2.1 2,-0.3 1.1,1 2,2 2,2.2 0,0.1 -0.9,0.3 -2,0.3 -1.4,0 -2,-0.7 -2,-2.2 z"
       id="path106" />
    <path
       d="m 3969,88 c 0,-1.8 0.2,-1.9 2,-0.8 1.1,0.7 2,1.6 2,2 0,0.5 -0.9,0.8 -2,0.8 -1.3,0 -2,-0.7 -2,-2 z"
       id="path108" />
  </g>
</svg>
