<?xml version="1.0" encoding="UTF-8" standalone="no"?>
<svg
   version="1.0"
   width="4824.6001"
   height="2245.5344"
   viewBox="0 0 4824.6001 2245.5344"
   preserveAspectRatio="xMidYMid meet"
   id="svg36"
   sodipodi:docname="auto-asiaticboard-fr.svg"
   inkscape:version="1.1.2 (0a00cf5339, 2022-02-04, custom)"
   xmlns:inkscape="http://www.inkscape.org/namespaces/inkscape"
   xmlns:sodipodi="http://sodipodi.sourceforge.net/DTD/sodipodi-0.dtd"
   xmlns="http://www.w3.org/2000/svg"
   xmlns:svg="http://www.w3.org/2000/svg">
  <defs
     id="defs40" />
  <sodipodi:namedview
     id="namedview38"
     pagecolor="#ffffff"
     bordercolor="#666666"
     borderopacity="1.0"
     inkscape:pageshadow="2"
     inkscape:pageopacity="0.0"
     inkscape:pagecheckerboard="0"
     showgrid="false"
     inkscape:zoom="0.22141674"
     inkscape:cx="2414"
     inkscape:cy="1124.5762"
     inkscape:window-width="1920"
     inkscape:window-height="1017"
     inkscape:window-x="-8"
     inkscape:window-y="-8"
     inkscape:window-maximized="1"
     inkscape:current-layer="svg36" />
  <g
     fill="#000000"
     id="g4"
     transform="translate(-2,-1.6)">
    <path
       d="m 2344,2246 c -243.4,-17.6 -464,-106.6 -650,-262.2 -13.8,-11.4 -41.6,-37 -61.8,-56.8 -92.6,-90.6 -168.6,-195.4 -225.4,-311.4 l -7.6,-15.6 h -10.4 c -18.8,0 -39.8,-9.4 -57.2,-25.6 l -9.4,-8.8 -58.6,27.2 -58.6,27.2 -2,-5 c -1,-2.8 -2.8,-4.6 -4.2,-4.2 -1.4,0.6 -3,-1.2 -3.6,-4 -2,-7.8 -6.2,-5.6 -17.2,9.2 l -10.4,14.2 -7.4,-7.8 c -5.8,-6.6 -13,-10.4 -39.6,-21.2 l -32.4,-13.2 h -130 c -128.8,0 -130.2,0 -130.2,-4 0,-3 -1.4,-4 -5.2,-4 -4.2,0 -5,-0.8 -4.2,-4 0.8,-3.4 0,-4 -5,-4 -5,0 -5.6,-0.6 -4.6,-4 2.2,-6.6 -10,-5.4 -18.2,2 -3.8,3.2 -10.6,7.8 -15.2,10.2 -18.4,9.4 -24.4,10.2 -76,11.2 l -49.2,1 -0.8,-4.6 c -0.4,-3.6 -2,-5 -6,-5.4 -4,-0.4 -5.6,-1.8 -5.6,-4.6 0,-2.8 -1.4,-3.8 -5,-3.8 -3.6,0 -5,-1 -5,-4 0,-3 -1.4,-4 -5,-4 -3.6,0 -5,-1 -5,-4 0,-3.2 -1.4,-4 -6,-4 -4.6,0 -6,-0.8 -6,-4 0,-3 -1.4,-4 -5,-4 -3.6,0 -5,-1 -5,-4 0,-3.2 -1.4,-4 -6,-4 -5,0 -6,-0.8 -6,-5 0,-4 -1,-5 -5,-5 -3.6,0 -5,-1 -5,-4 0,-3.2 -1.4,-4 -6,-4 -4.6,0 -6,-0.8 -6,-4 0,-3 -1.4,-4 -5,-4 -3.6,0 -5,-1 -5,-4 0,-3.2 -1.4,-4 -6,-4 -4.6,0 -6,-0.8 -6,-4 0,-3.2 -1.4,-4 -6,-4 -4.6,0 -6,-0.8 -6,-4 0,-3 -1.4,-4 -4.8,-4 -3.6,0 -5,-1.2 -5.6,-4.4 -0.4,-3.4 -2.2,-4.8 -6,-5.2 -4,-0.4 -5.6,-1.8 -5.6,-4.6 0,-2.8 -1.4,-3.8 -6,-3.8 -4.6,0 -6,-0.8 -6,-4 0,-3.2 -1.4,-4 -6,-4 -4.6,0 -6,-0.8 -6,-4 0,-3 -1.4,-4 -5,-4 -3.6,0 -5,-1 -5,-4 0,-3.2 -1.4,-4 -6,-4 -4.6,0 -6,-0.8 -6,-4 0,-3 -1.4,-4 -5.8,-4 -4.6,0 -6,-1 -6.6,-4.4 -0.4,-3.4 -2.2,-4.8 -6,-5.2 -4,-0.4 -5.6,-1.8 -5.6,-4.6 0,-2.8 -1.4,-3.8 -6,-3.8 -4.6,0 -6,-0.8 -6,-4 0,-3.2 -1.4,-4 -6,-4 -4.6,0 -6,-0.8 -6,-4 0,-3.2 -1.4,-4 -6,-4 -4.6,0 -6,-0.8 -6,-4 0,-3.2 -1.4,-4 -6,-4 -4.6,0 -6,-0.8 -6,-4 0,-3 -1.4,-4 -5.8,-4 -4.6,0 -6,-1 -6.6,-4.4 -0.4,-3.8 -1.8,-4.6 -7.2,-4.6 -5.4,0 -6.4,-0.8 -6.4,-4.4 0,-3.8 -1.2,-4.6 -6,-4.6 -4.6,0 -6,-0.8 -6,-4 0,-3.2 -1.4,-4 -6,-4 -4.6,0 -6,-0.8 -6,-4 0,-3.2 -1.4,-4 -6,-4 -4.6,0 -6,-0.8 -6,-4 0,-3.2 -1.4,-4 -7,-4 -5.6,0 -7,-0.8 -7,-4 0,-3 -1.4,-4 -5.8,-4 -4.6,0 -6,-1 -6.6,-4.4 -0.4,-3.4 -2.2,-4.8 -6,-5.2 -4,-0.4 -5.6,-1.8 -5.6,-4.6 0,-3 -1.4,-3.8 -7,-3.8 -5.6,0 -7,-0.8 -7,-4 0,-3.2 -1.4,-4 -6,-4 -4.6,0 -6,-0.8 -6,-4 0,-3.2 -1.4,-4 -7,-4 -5.6,0 -7,-0.8 -7,-4 0,-3.2 -1.4,-4 -6,-4 -4.6,0 -6,-0.8 -6,-4 0,-3.2 -1.4,-4 -6.8,-4 -5.6,0 -7,-0.8 -7.6,-4.4 -0.4,-3.4 -2.2,-4.8 -6,-5.2 -4,-0.4 -5.6,-1.8 -5.6,-4.6 0,-3 -1.4,-3.8 -7,-3.8 -5.6,0 -7,-0.8 -7,-4 0,-3.2 -1.4,-4 -7,-4 -5.6,0 -7,-0.8 -7,-4 0,-3.2 -1.4,-4 -6,-4 -4.6,0 -6,-0.8 -6,-4 0,-3.2 -1.4,-4 -7,-4 -5.6,0 -7,-0.8 -7,-4 0,-3.2 -1.4,-4 -6.8,-4 -5.6,0 -7,-0.8 -7.6,-4.4 -0.4,-3.6 -2.2,-4.8 -7,-5.2 -5,-0.4 -6.6,-1.6 -6.6,-4.6 0,-3 -1.4,-3.8 -7,-3.8 -5.6,0 -7,-0.8 -7,-4 0,-3.2 -1.4,-4 -7,-4 -5.6,0 -7,-0.8 -7,-4 0,-3.2 -1.4,-4 -7,-4 -5.6,0 -7,-0.8 -7,-4 0,-3.2 -1.4,-4 -7,-4 -5.6,0 -7,-0.8 -7,-4 0,-3.2 -1.4,-4 -6.8,-4 -5.6,0 -7,-0.8 -7.6,-4.4 -0.4,-3.6 -2.2,-4.8 -7,-5.2 -3.6,-0.4 -6.6,-1.4 -6.6,-2.6 0,-1 -4,-1.8 -8.6,-1.8 h -8.8 l -1.2,-119.4 c -0.8,-79 -2,-119.8 -3.4,-120.2 -1,-0.4 -1.6,-1.6 -0.8,-2.6 0.6,-1 -3.4,-1.8 -9,-1.8 C 5.2,934 2,933.2 2,931.4 2,928 51.4,689.8 52.4,689 c 0.2,-0.2 113.8,-1.2 252.2,-2 L 556,685.6 v 6.2 c 0,4.2 1,6.2 3,6.2 1.6,0 3,1.8 3,4 0,4 1,4 46.2,3.6 L 654.4,705 668,672 c 9,-21.2 14.8,-32.8 16.4,-32.4 1.4,0.4 33.6,12.4 71.6,26.8 63.6,24 69,25.6 71.4,22.4 2.4,-3.2 17.6,-3.4 278.6,-2.2 l 276.2,1.2 5.2,-12.4 c 3,-6.8 14.6,-30.8 25.8,-53.4 89.2,-178.6 222.2,-327.8 390.8,-438.6 40.8,-26.6 72.4,-44.6 121,-68.4 128.8,-63.2 260.6,-99 409,-111.2 34.8,-2.8 133.2,-2.8 168,0 148.4,12.2 280.2,48 409,111.2 48.6,23.8 80.2,41.8 121,68.4 167.8,110.2 300.8,259.2 389.8,436.6 10.8,21.4 22.2,45 25.4,52.4 l 5.6,13.6 h 90.6 90.6 l 52.2,-8 c 28.8,-4.4 52.6,-8 53,-8 0.4,0 0.8,3.6 0.8,8 v 8 h 93.8 93.8 l 11.4,5 11.2,5 93,-16 c 51,-8.8 93.4,-16 94.2,-16 1,0 1.2,4.4 1,9.8 -0.6,8.8 -0.2,10 4,11.6 2.4,0.8 129.2,1.4 281.6,1 l 277,-0.6 14,4.4 c 39.6,12 69,36.2 85.8,69.8 5,10.4 11.6,28 14.6,39 4.8,18.6 5.2,23.8 6.2,72.4 l 0.8,52.4 -8,1.4 c -12.8,2 -13,2.6 -4.4,19 12,23 16.6,42.2 16.6,70.8 -0.2,39.6 -7.4,69 -22.8,93 -16.6,25.8 -38.4,43.6 -69,56.6 -25,10.6 -142,83.4 -249.8,155.4 -114.8,77 -213.8,148.6 -314,227.8 -52,41 -55.8,42.2 -128.6,42.2 h -50.8 l -12.6,-6 -12.4,-6 -121.8,20.8 c -67,11.4 -122,20.6 -122.4,20.2 -0.2,-0.2 -1,-7.6 -1.8,-16.6 l -1.2,-16 -9.2,3 c -5,1.6 -21,3.6 -35.4,4.6 -28.8,1.6 -38.8,4.4 -38.8,11.2 0,3 -1.2,4.2 -3.4,4 -2.2,0 -3.8,1.4 -4.2,4.2 -0.4,2.6 -1.6,4 -3.2,3.4 -1.6,-0.6 -3.2,1 -4,4 -0.8,3.4 -2.2,4.6 -4.2,4 -2.2,-1 -3,0.2 -3,3.8 0,3.2 -1.4,5.2 -4,6 -2.2,0.6 -4,2.4 -4,4.2 0,1.8 -1.4,3.2 -3,3.2 -1.6,0 -3,1.6 -3,3.8 0,2 -1.8,4.2 -4,4.8 -2.4,0.6 -4,2.8 -4,5.2 0,2.6 -1,3.8 -2.8,3 -2,-0.8 -3.2,0.4 -3.6,3.6 -0.4,2.6 -2,4.6 -3.6,4.6 -1.6,0 -3.2,2 -3.6,4.6 -0.4,3.2 -1.6,4.4 -3.6,3.6 -1.8,-0.6 -2.8,0.2 -2.8,2.8 0,2 -0.6,4.2 -1.6,4.8 -0.8,0.4 -36,-7.6 -78.2,-18 -42.2,-10.4 -77.4,-18.4 -78.2,-17.8 -1,0.6 -6.4,9.8 -12.2,20.4 -71.4,132.6 -185.4,263 -312.4,358 C 2925,2148.2 2733.8,2222 2526,2243 c -36.8,3.8 -146,5.4 -182,3 z"
       id="path2" />
  </g>
  <g
     fill="#c1272d"
     id="g14"
     transform="translate(-2,-1.6)">
    <path
       d="m 2344,2246 c -243.4,-17.6 -464,-106.6 -650,-262.2 -51.8,-43.2 -120.4,-114.6 -162.6,-168.8 -30.6,-39.4 -63,-87.4 -86.4,-128 -21.2,-36.8 -45.4,-85 -42.6,-85 6.6,0 11.6,2.8 11.6,6.2 0,2.2 1.4,3.8 3,3.8 1.6,0 3,1.8 3,4 0,2.2 1.2,4 2.6,4 1.2,0 54,-9 117,-19.6 l 114.6,-19.6 44,18.2 c 39.6,16.4 44.4,18.8 49.2,25.6 l 5.2,7.4 12.2,-17 c 6.8,-9.2 12.6,-16.8 13.2,-17 0.6,0 3.2,5 6,11 2.8,6 5.8,11 6.6,11 1,0 26.8,-11.8 57.8,-26 l 56,-26 11.2,7 c 6.4,4 18.8,9.4 28,12.4 9,2.8 16.4,6.2 16.4,7.6 0,4.2 50,1.4 70,-4 9.4,-2.6 22.4,-5.4 29,-6 6.6,-0.8 13.4,-1.8 15.2,-2.2 2,-0.6 7.4,5.4 16.8,19.2 8.8,12.8 14.4,19.4 15.8,18.2 1.2,-0.8 14.4,-10.8 29.4,-22 15,-11 32,-24.4 37.8,-29.6 10,-9 10.6,-9.2 13.2,-5.6 1.6,2.2 13,22.6 25.4,45.4 12.2,22.8 23,41.4 23.8,41.2 0.8,-0.4 20.8,-21.6 44.6,-47 23.8,-25.6 44.4,-46.6 45.8,-46.6 1.4,0 36,13.8 77,30.8 66.4,27.2 75,31.4 78.6,37 2.2,3.4 4.8,6.2 5.6,6.2 1,0 7.8,-8.4 15.2,-18.4 l 13.6,-18.4 3.8,14.2 c 3.4,12 4.4,14.2 7.2,12.8 1.8,-1 23,-11 47.2,-22.2 l 43.8,-20.2 11.8,6 12,6.2 h 126.4 126.4 l 28.8,12 c 15.8,6.6 30.2,12.2 31.8,12.6 1.6,0.2 5.8,4.2 9.2,8.8 l 6,8.6 12.8,-17.6 c 7,-9.6 13.4,-18.2 14.2,-19.2 0.8,-1 3,3.6 4.8,10 2,6.6 4.2,12.6 5,13.6 1,1 26.8,-10 58.4,-24.6 31.2,-14.4 57.4,-26.2 58.2,-26.2 1,0 6.4,4 12,9 12.2,10.8 29.8,19.6 45.4,22.8 12,2.6 70,1 70,-2 0,-0.8 1.4,-3 3.2,-4.6 2.6,-2.8 10.2,-3.2 52.6,-3.2 h 49.6 l -2.6,16.6 c -4.4,26.6 -7.2,23.4 28,32.2 l 30.8,7.6 -13.6,24.2 c -75.4,136.2 -184,260.2 -310.6,354.8 C 2925,2148.2 2733.8,2222 2526,2243 c -36.8,3.8 -146,5.4 -182,3 z"
       id="path6" />
    <path
       d="m 3823.2,1244.8 c -80.2,-14.6 -146.2,-27.2 -146.8,-27.8 -0.6,-0.6 0.8,-9.6 2.8,-20 l 4,-19 h -65.6 -65.6 l -1.2,5 -1.2,5 -30.4,0.4 c -49.2,0.8 -64.8,0 -81,-3.4 -17,-3.8 -39.2,-13.4 -53,-22.8 -4.8,-3.4 -10.2,-6.2 -11.8,-6.2 -1.6,0 -38,12.2 -81.2,27 -43.2,14.8 -78.8,27 -79.4,27 -0.4,0 -0.8,-0.8 -0.8,-2 0,-1 -2,-7 -4.2,-13.2 l -4.2,-11.2 -19,18.6 -18.8,18.8 -7.4,-8.4 c -7.2,-8 -8.8,-8.6 -50.4,-21.4 l -43.2,-13.2 h -170.2 -170.4 l -17,-6.2 -17.2,-6.2 -62.4,21.6 c -34.4,11.8 -63.6,21.8 -64.8,22.2 -1.4,0.4 -4.4,-5 -7,-12.4 l -4.6,-13.2 -18.6,18.6 -18.6,18.4 -8.6,-8.4 c -8.6,-8.6 -9,-8.6 -109.4,-39.4 l -100.8,-30.6 -61,48.6 c -33.6,26.8 -61.6,48.4 -62.4,47.8 -1,-0.4 -16.2,-21 -34,-45.4 -17.8,-24.4 -32.6,-44.6 -32.8,-45 -0.2,-0.2 -9.8,5.2 -21.2,12.2 -11.4,7 -36,21 -54.6,31.2 l -33.8,18.8 -19.2,-20.4 -19.2,-20.4 -21,2.2 c -11.6,1.2 -31.2,4.4 -43.4,7.2 -18.2,3.8 -27.6,4.8 -49,4.6 -14.6,-0.2 -30.8,0.4 -35.8,1.2 -8.4,1.2 -9.4,1 -10.4,-2.8 -0.6,-2.4 -2.6,-4.2 -4.8,-4.2 -7.6,0 -35.4,-8 -51.6,-15 l -16.4,-7 -78.6,27 c -43.4,14.8 -78.8,26.8 -79.2,26.4 -0.2,-0.2 -2.4,-6 -4.8,-13 l -4.6,-12.6 -18.6,18.4 -18.8,18.6 -8.8,-8.6 c -8.4,-8.2 -10.2,-9 -66.6,-26.2 l -58.2,-17.6 -156.6,19.8 c -86.2,10.8 -158.4,19.8 -160.2,19.8 -2.6,0 -3.6,-2.2 -4,-9.4 l -0.6,-9.4 -26,-0.4 c -37.6,-0.6 -65,-8.6 -92,-27.2 l -10.2,-6.8 -79.8,27.4 c -44,15.2 -80.6,27 -81.2,26.2 -0.6,-0.8 -2.8,-6.2 -5,-11.8 -2,-5.8 -4.2,-10.6 -4.8,-10.6 -0.6,0 -8.6,7.6 -18,17 -9.4,9.4 -17.6,17 -18.4,17 -0.8,0 -4.8,-3.6 -9,-8 -7.2,-7.4 -10.2,-8.8 -49.6,-20.8 l -42,-12.8 -181.6,-1.4 c -172,-1.4 -181.4,-1.6 -181.4,-5 0,-2 2.2,-19 5,-38 2.8,-19 5,-35 5,-35.6 0,-0.8 -2.8,3.4 -6,9.4 -19.6,35.4 -45.6,55.2 -87,66.4 -13.8,3.8 -23,4.4 -67.8,5.4 -28.4,0.4 -60,0.2 -70.4,-0.6 L 26,1177.6 v -61.4 c 0,-33.8 -0.6,-88.6 -1.4,-121.8 L 23.4,934 H 12.6 C 5.4,934 2,933.2 2,931.4 2,928 51.4,689.8 52.4,689 c 0.2,-0.2 113.8,-1.2 252.2,-2 L 556,685.6 v 10.2 10.2 l 49.2,-0.4 49.2,-0.6 13.6,-33 c 9,-21.2 14.8,-32.8 16.4,-32.4 1.4,0.4 33.6,12.4 71.6,26.8 63.6,24 69,25.6 71.4,22.4 2.4,-3.2 17.6,-3.4 278.6,-2.2 l 276.2,1.2 5.2,-12.4 c 3,-6.8 14.6,-30.8 25.8,-53.4 89.2,-178.6 222.2,-327.8 390.8,-438.6 40.8,-26.6 72.4,-44.6 121,-68.4 128.8,-63.2 260.6,-99 409,-111.2 14.8,-1.2 52.6,-2.2 84,-2.2 60,0 89.8,1.8 144,8.6 165.2,20.6 329.8,81.2 470,173.2 167.8,110.2 300.8,259.2 389.8,436.6 10.8,21.4 22.2,45 25.4,52.6 l 5.6,13.4 h 90.6 90.6 l 52.2,-8 c 28.8,-4.4 52.6,-8 53,-8 0.4,0 0.8,3.6 0.8,8 v 8 h 93.8 93.8 l 11.4,5 11.2,5 93,-16 c 51,-8.8 93.4,-16 94.2,-16 1,0 1.2,4.4 1,9.8 -0.6,8.8 -0.2,10 4,11.6 2.4,0.8 129.2,1.4 281.6,1 l 277,-0.6 14,4.4 c 39.6,12 69,36.2 85.8,69.8 5,10.4 11.6,28 14.6,39 4.8,18.6 5.2,23.8 6.2,72.4 l 0.8,52.4 -8,1.4 c -12.8,2 -13,2.6 -4.4,19 12.2,23.4 16.6,42.2 16.4,71.8 -0.2,79.6 -35.2,130.4 -105.6,153.8 -22.2,7.4 -37,8.4 -111.8,7.8 l -72,-0.6 -12.6,-5.4 -12.8,-5.2 -167,21 c -91.8,11.6 -167.4,20.6 -167.8,20 -0.6,-0.4 -1.6,-7.4 -2.2,-15.2 -0.6,-7.8 -1.8,-14.6 -2.4,-15 -0.6,-0.4 -8.8,0.8 -18.2,3 -12.4,2.8 -24,3.6 -43,3.4 -14.2,-0.2 -30.8,0.4 -36.4,1.2 -9.6,1.4 -10.6,1.2 -10.6,-2.2 0,-3 -2.6,-4.2 -13.4,-6.2 -7.6,-1.4 -20.8,-5 -29.8,-8.2 l -16,-5.4 -11.8,54.6 -12,54.6 -6,-0.2 c -3.2,-0.2 -71.6,-12.2 -151.8,-27 z m 145.6,4.4 c 0.6,-2.8 6.2,-27.8 12.2,-55.6 6.2,-27.8 11.4,-51.6 12,-53 0.6,-1.6 6,0 17.4,5.2 16.4,7.6 41.4,15 60.2,17.4 5.2,0.8 9.4,1.8 9.4,2.6 0,2.8 63.4,-0.2 79.6,-4 9,-2 19.2,-3.8 22.4,-3.8 h 5.8 l 1.4,16.2 1.4,16.2 6.2,-1.2 c 3.4,-0.4 75.8,-9.8 161,-20.4 l 154.8,-19.4 18.6,6.4 18.4,6.6 71.6,-0.8 c 66,-0.8 73,-1.2 87.8,-5.2 52.8,-14.4 86.2,-47.6 97.4,-96.8 5.4,-24 5.8,-60.8 1,-79.6 -5,-19.2 -14.4,-36.6 -26.6,-50 -12.6,-13.4 -13.8,-11.6 11.2,-16.6 l 13,-2.6 0.6,-37.8 c 0.4,-28 -0.4,-42.2 -2.6,-54.6 -11.6,-62.2 -40,-97.2 -90.4,-112.4 l -14.4,-4.4 -263.6,0.8 c -145,0.4 -275,-0.2 -289,-1.2 l -25.6,-1.6 v -7.8 c 0,-6 -0.8,-7.8 -3.4,-7.8 -1.8,0 -40.6,6.4 -86,14.2 l -82.6,14.4 -11.8,-5.4 -11.8,-5.2 H 3824.2 3724 v -7 c 0,-6.4 -0.4,-6.8 -5.4,-5.8 -3.2,0.4 -20.4,3.4 -38.6,6.4 l -33,5.4 -184,1 -184,1 -0.6,5.6 c -0.4,3 -1.4,5.4 -2.4,5.4 -1,0 -34.6,-12.4 -74.8,-27.6 l -73,-27.8 -4,9.2 c -2,5 -8,19.4 -13.2,31.8 -7.4,17.4 -10.2,22.4 -13.2,22.4 -3.4,0 -3.8,-1.6 -3.8,-17.2 v -17.2 l -5.4,1.2 c -21.6,4.6 -166.8,25.2 -171.6,24.4 -3.2,-0.4 -12.2,-3.2 -20,-6 l -14,-5 -122.2,-0.2 c -132.4,0 -124.8,-0.6 -124.8,10 0,2 -0.8,4.2 -1.8,4.8 -1,0.8 -36.4,-11.8 -78.6,-27.8 -42,-16 -77.6,-29 -78.8,-29 -1.2,0 -7.8,14 -14.8,31 l -12.8,31 h -52.4 -52.4 l -1.4,16.2 c -1.2,13.6 -2,16 -4.8,15.2 -1.8,-0.4 -46.2,-18.2 -98.8,-39.2 -52.8,-21.2 -96,-38.2 -96.2,-37.8 -0.4,0.4 -6.8,19.4 -14.6,42.4 l -14,41.6 -36.4,-49.2 -36.6,-49.2 -16,12.6 c -8.8,6.8 -22,17 -29.2,22.6 l -13.4,10.2 -57,-3.6 c -31.4,-2 -60.4,-3.6 -64.4,-3.6 -7.6,-0.2 -7.6,-0.2 -7.6,-8.8 v -8.6 l -101.4,17.6 c -56,9.6 -104.2,17.6 -107.6,17.8 -3.4,0.2 -40.2,-12.8 -83,-29 -42.4,-16 -78,-29.2 -79,-29.2 -1.2,0 -8,14 -15,31 l -12.8,31 h -8.6 -8.6 v -8.6 -8.8 l -178.4,-1.2 c -98.2,-0.8 -232.4,-1.4 -298,-1.4 -112.6,0 -119.6,0.2 -119.6,3.6 -0.2,10.2 -0.8,10 -76,-18.4 -39.8,-15 -73.2,-27.2 -74.4,-26.8 -1,0.4 -7.6,14.2 -14.4,30.6 l -12.4,30 -52.4,0.6 c -28.8,0.2 -52.4,1.2 -52.6,2 0,0.8 -2.6,32.4 -5.4,70.4 -5.4,68.2 -5.4,69 -9.8,69.6 l -4.6,0.6 v -81.4 -81.4 l -163.4,1.2 c -90,0.8 -197,1.4 -237.8,1.4 h -74 l -22,106.6 -22,106.4 17.6,0.6 17.6,0.6 v 9.6 9.8 l -7.4,-1.8 c -4.2,-0.8 -7.8,-1.2 -8.2,-0.8 -0.4,0.4 0,52 0.8,114.8 l 1.4,114.2 59.2,-0.6 c 52.6,-0.8 61,-1.2 76,-5.2 38,-9.8 62.4,-28.6 77.8,-60.2 7.8,-16 14.4,-36.2 14.4,-44.4 0,-3 1.8,-3.6 11,-3.6 h 10.8 l -1.2,10 c -1,9 -0.8,10 2.6,10 3.8,0 3.8,1 -1.4,37.6 -3,20.6 -6,40.8 -6.6,45 l -1.2,7.4 h 170.8 170.8 l 38.6,12 c 38.4,11.8 38.8,11.8 41.6,7.8 2.8,-4 3.2,-3.6 13.6,6.6 l 10.6,10.4 21.6,-21.4 21.4,-21.4 5.8,16.2 c 3.2,8.8 6.8,16.6 8,17 1.2,0.4 36.2,-10.8 77.8,-25.2 l 75.6,-26 10.4,7.8 c 14.2,10.8 37.6,21.6 54.4,25.2 8.8,1.8 25.4,3 44.2,3 h 30.4 l 1.4,9.2 c 1.2,8.6 1.6,9 6.6,8 3,-0.6 71.8,-9.4 153,-19.4 l 147.8,-18.4 53.2,16.4 c 29.4,8.8 53.6,15.6 54,14.8 2.8,-8 4.6,-7.4 14.4,3.4 l 9.8,11 21.8,-21.8 22,-21.6 6.4,17.2 c 3.6,9.4 7.2,17.2 8.2,17.2 0.8,0 34.4,-11.4 74.8,-25.2 l 73.4,-25.2 14.6,7.2 c 15.8,7.8 44,16 62,18.2 6,0.8 11,2 11,2.8 0,2.8 59.6,0 78,-4 10.4,-2 30.8,-5.2 45,-6.6 l 26,-2.8 18,18.6 18,18.8 36,-20.2 c 19.8,-11 44,-25.4 53.8,-32 9.8,-6.4 18.4,-11.6 19.4,-11.2 0.8,0.4 15.8,20 33,43.6 17.2,23.6 32,43.8 32.8,44.6 0.8,1 27.8,-19 59.6,-44.4 l 58.2,-46.4 98.6,30.2 c 54.2,16.4 98.8,29.4 99.2,28.6 2.6,-7.8 4.4,-7.4 14.2,3.4 l 10,11 21.8,-21.6 21.8,-21.6 6.4,17 c 3.6,9.4 7.2,17.2 7.8,17.2 0.8,0 28,-9 60.8,-20.2 l 59.2,-20.2 18.2,7.4 18.2,7.2 167.6,-1.2 167.4,-1.2 38.8,12 c 21.4,6.6 39.6,11.6 40.6,11 0.8,-0.6 1.6,-2.4 1.6,-4 0,-5 3.4,-3 12.6,7.2 5,5.6 10,10 11,10 1.2,0 10.8,-9.4 21.4,-21 10.8,-11.6 20,-20.6 20.8,-20.2 0.6,0.4 4,8.2 7.2,17 3.2,9 6.6,16.2 7.6,16.2 0.8,0 35.8,-11.8 77.6,-26 l 76,-26.2 5.8,5 c 10.8,9 29,18.8 45,24.4 14.6,5 19.2,5.6 52.6,6.4 44.8,1 54,0 56.4,-6.8 l 2,-4.8 h 80.6 c 44.4,0 81.2,0.4 81.8,1 0.6,0.6 -0.6,9.4 -2.8,19.6 -2,10 -3.4,19.6 -3.2,21.2 0.4,2.2 33.4,9 133.6,27.4 73.2,13.4 134,24.4 135.2,24.6 1.4,0 3,-2 3.6,-4.6 z"
       id="path8" />
    <path
       d="m 3839.6,1180.2 c -46,-8.6 -84,-15.8 -84.4,-16.4 -0.6,-0.4 1.2,-10.8 3.8,-22.8 7,-32.2 9.8,-29 -23.6,-29 -31.6,0 -43.2,-2.4 -54.4,-10.8 l -6.8,-5.2 -0.6,7.4 -0.6,7.6 -58.4,0.6 -58.6,0.4 v -78.6 c 0,-43.4 -0.6,-97.8 -1.4,-121 l -1.2,-42.4 h -28.8 -28.6 v 67.8 c 0,51.8 0.6,68.2 2.6,69.6 1.2,1 7.6,3 14,4.4 7.8,1.8 11.4,3.4 11.4,5.6 0,1.6 -5.8,25.4 -13,53 -7.2,27.4 -13,50.2 -13,50.6 0,1.8 -37,0.8 -45.8,-1.2 -25,-5.6 -52.2,-27.6 -63,-50.4 C 3379,1047.6 3378,1038 3378,950.6 V 870 h -27 -26.8 l -1.4,10 -1.2,9.8 -17.4,0.6 -17.2,0.6 36.4,97 c 20,53.4 36.4,98 36.4,99.2 0.2,1.2 -23,10 -51.2,19.8 -28.4,9.6 -52.4,17.8 -53.6,18.2 -1,0.4 -6.4,-11.2 -11.8,-25.8 -5.4,-14.4 -10.6,-28.6 -11.6,-31.2 -1.8,-4.8 -3.2,-3.6 -32.6,25.8 l -31,31 -18.2,-19.6 c -10,-10.6 -18.8,-19.4 -19.6,-19.4 -0.8,0 -4.8,8.2 -9,18 -4.2,10 -8.4,18 -9.6,18 -1.8,0 -58,-16.8 -64.4,-19.2 -2,-0.8 -3.2,0.4 -3.6,3.6 l -0.6,4.6 h -59 -59 l -0.6,-14.6 -0.6,-14.8 -8.2,7.4 c -4.4,4.2 -13.2,9.6 -19.4,12.4 -20.2,9 -35.4,10.6 -100.8,10.6 -59.8,0 -60.4,0 -71,-5 -5.8,-2.6 -13.6,-7.2 -17.4,-10.2 l -6.8,-5.2 -46.6,16 c -25.6,9 -48,16.6 -49.8,17.4 -2.6,1 -5.4,-4.6 -14.8,-30 l -11.8,-31.2 -30.8,30.6 -30.6,30.6 -19.4,-20.6 -19.6,-20.8 -7.6,19.2 c -4.4,10.6 -8.8,19.2 -10,19.2 -3,0 -105,-31.2 -106.4,-32.6 -0.6,-0.6 17.4,-45 40,-99 22.6,-53.8 41.2,-98.4 41.2,-99 0,-0.4 -11.2,-1.2 -25,-1.8 -13.8,-0.6 -25.4,-1.4 -26,-2 -0.6,-0.4 0.4,-18.4 2,-39.8 1.6,-21.4 3.6,-47.2 4.2,-57.2 l 1.4,-18.6 46,-0.4 46,-0.6 10,-23.4 c 5.4,-13 10.8,-23.6 12,-23.6 1.2,0 24,8.2 50.6,18.2 l 48.4,18.4 -1.6,5.6 -1.8,5.8 h 37.8 37.6 l 1.8,-9.4 1.6,-9.6 98,-0.6 c 87.2,-0.4 99,0 107.2,2.8 12.4,4.6 26.4,15 33.8,25.2 l 6,8.2 v -12.2 c 0,-7 0.8,-12.4 2,-12.4 2.8,0 107.8,-15.8 113.6,-17 4.2,-1 4.4,-0.6 4.4,12 v 13 h 45.6 45.6 l 9.8,-24 c 5.4,-13.2 10.6,-24 11.8,-24 1.2,0 24,8.2 50.6,18.2 l 48.4,18.2 -1.2,5.8 -1,5.8 h 34 c 33.6,0 34,0 35.2,-4.4 0.6,-2.6 1.2,-7 1.2,-10 V 752 h 129.2 c 128.2,0 129,0 127.8,4 -0.8,2.8 -0.4,4 1.6,4 3.4,0 80.6,-11.6 87,-13 3,-0.8 4.4,-0.2 4.4,2 0,2.6 14,3 120,3 115.2,0 120.4,0.2 127.8,4 4.2,2 10.4,6.2 14,9 4.4,3.8 6.2,4.6 6.2,2.4 0,-2 3.8,-3.6 12.6,-5.2 64.6,-11.4 107.8,-18.4 108.6,-17.6 0.6,0.6 -0.4,13.4 -2,28.8 -8.2,74 -9.4,142.6 -2.6,162.6 10,29.8 19,44.6 29.8,49 4.8,1.8 14.2,3 24.6,3 h 17 V 868.8 749.6 l 11.6,1 c 37.4,3.8 356.4,6.4 356.4,3 0,-1 44,-1.6 98,-1.6 95.4,0 98.2,0.2 109.4,4.4 15.8,5.8 34.4,24.2 40.2,39.8 6.2,16.8 10.4,39.8 10.4,57.6 v 15.8 l -9.4,2.2 c -5.4,1 -25.2,5 -44,8.4 -19,3.6 -34.6,7.2 -34.6,8 0,0.6 18.8,19.6 41.6,42 49.6,48.4 51,50.8 51,84.8 0.4,52.2 -17.4,78.6 -61.6,92.4 -10.6,3.2 -19.6,3.6 -80,3.6 h -68.2 l -13.2,-6.6 -13,-6.8 -138.8,17.4 c -76.4,9.4 -141.4,17.4 -144.8,17.6 l -6,0.4 -1.6,-15 c -1,-8.2 -1.8,-15.2 -2,-15.4 -1.6,-1.4 -63.6,6.2 -79.2,9.6 -16.4,3.8 -22.8,4.2 -48,3.2 -69.4,-2.6 -105.4,-23.6 -134.6,-78.4 l -7.4,-14 -0.2,16.2 c 0,15.8 -5.8,41.2 -9.8,43.8 -1,0.6 -1.4,2.6 -0.8,4.8 0.4,2 -4.2,27.2 -10.6,56 -9.2,42.2 -12,52.2 -14.6,52 -1.8,-0.2 -40.8,-7.2 -86.6,-15.6 z M 4252,990 c 0,-18.2 -0.6,-22 -3,-22 -2.4,0 -3,3.8 -3,22 0,18.2 0.6,22 3,22 2.4,0 3,-3.8 3,-22 z M 2714.6,921.6 C 2671.2,878.2 2671,878 2669.4,884 c -1.4,5.8 -1.6,5.8 -18.2,6.4 l -16.8,0.6 19.2,51.2 19,51.2 42.6,-14.2 L 2758,965 Z M 3846,932 v -61.8 l -38,-0.6 -38,-0.6 v 62.6 62.4 h 38 38 z m 579.6,56 c 28.4,-3.2 55.2,-6.4 59.8,-7 8,-1.2 8.2,-1 9.6,5 0.8,3.4 2,6 3,5.6 0.8,-0.4 18.6,-6.4 39.8,-13.6 21,-7.2 38.2,-13.4 38.2,-14 0,-0.6 -21.8,-22.2 -48.4,-48 -36.6,-35.4 -49.6,-46.8 -52.8,-46.4 -4.4,0.6 -4.4,-0.4 -13,78 l -2.4,20.4 h -46.6 -46.8 v 13 c 0,11.8 0.4,13 4.2,13 2.2,0 27.2,-2.6 55.4,-6 z m 180.4,5.4 c 0,-0.4 -2.2,-2.8 -5,-5.4 -5,-4.6 -5,-4.6 -5,-0.4 0,2.6 1.6,4.4 4.6,5 2.4,0.4 4.6,1 5,1.2 0.2,0 0.4,0 0.4,-0.4 z m -1823.8,-5.6 c -5.2,-4.4 -7,-4 -5,1 0.6,1.8 3.2,3.2 5.6,3.2 4.2,-0.2 4.2,-0.2 -0.6,-4.2 z M 3068.4,936 c 10,-23.6 18.4,-43.8 18.8,-45 0.6,-1.2 -7.2,-2 -21.2,-2 h -22 v 52 c 0.2,48.4 0.4,51.6 3.2,45 1.8,-3.8 11.2,-26.4 21.2,-50 z m -531.6,19.4 c -2,-5.4 -4.2,-4 -7.6,4.6 -4.4,11.2 -4,11.8 2.8,4.8 4.2,-4 5.8,-7.2 4.8,-9.4 z M 3189,954 c -1.8,-5.4 -3.4,-3.8 -7.8,8 l -3.4,9 6.2,-6.2 c 5,-4.8 6.2,-7.4 5,-10.8 z m -265.4,-81.2 c -0.6,-0.4 -68.4,12.6 -73,14.2 -1.4,0.4 14.4,17.4 35,37.8 l 37.4,37 0.6,-44.2 c 0.2,-24.4 0.2,-44.4 0,-44.8 z"
       id="path10" />
    <path
       d="m 2151.6,1099.6 c -18,-24.4 -33.2,-45.2 -33.8,-46.2 -0.8,-1.2 -10,5.4 -20.4,14.6 -10.6,9.2 -25.8,21 -33.8,26.4 -17.2,11.6 -52,31.6 -54.8,31.6 -1.2,0 -7.6,-6.4 -14.6,-14.2 -7,-7.8 -13.4,-13.4 -14,-12.4 -0.6,1 -18.8,3.4 -40.2,5.4 -21.4,2 -46.2,5.4 -55,7.6 -13.6,3.4 -20.4,3.8 -46,3 -58.6,-2 -92.6,-16.6 -118.2,-50.8 -28.4,-37.6 -44.8,-90 -49.6,-158.6 -0.6,-8.2 -1.2,-15.2 -1.2,-15.4 0,-0.4 -6.8,-0.6 -15,-0.6 h -15 l 5.2,13.6 c 25.8,68.2 68.8,185 68.4,185.4 -0.4,0.2 -23,8.2 -50.6,17.6 -27.4,9.4 -51.4,17.6 -53.2,18.4 -2.4,1 -5.4,-5 -14.8,-30.2 l -11.6,-31.2 -30.8,30.8 -30.8,30.6 -19.4,-20.6 -19.4,-20.8 -7.8,19.2 c -4.2,10.6 -8.8,19.2 -10,19.2 -1.2,0 -18.2,-4.8 -37.6,-10.8 l -35.6,-10.8 -132.4,16.8 c -72.8,9.2 -132.6,16.4 -133,16 -0.6,-0.4 -12.6,-110.6 -12.6,-115 0,-1 6.4,-3 14,-4.2 l 14,-2.4 V 989.8 968 h -15 c -10.6,0 -15,-0.8 -15,-2.4 0,-1.4 2.2,-22 5,-45.6 2.8,-23.6 5,-44.6 5,-46.4 0,-3.2 -2.8,-3.6 -30.8,-3.6 h -31 l -0.6,67.6 c -0.4,52.2 0,68 2,69.6 1.2,1.2 7.8,3.4 14.4,4.8 10.6,2.2 11.8,3 10.8,6.8 -0.6,2.2 -6.6,26.2 -13.6,53.2 l -12.6,49 h -23.8 c -23.2,0 -24.2,-0.2 -38.8,-7.2 -8.2,-4 -19,-10.8 -23.8,-15 -11.4,-10 -23.2,-28.2 -28.6,-44.6 -4.2,-12.6 -4.4,-17.2 -5.2,-98.6 L 939.6,870 h -26.4 -26.6 l -1.4,10 -1.4,10 h -17 c -16.6,0 -17,0.2 -15.6,4.4 0.6,2.4 17,46.2 36,97.4 19.2,51.2 34.8,94 34.8,95.4 0,1.8 -92,34.8 -103.8,37.2 -1.6,0.4 -5.8,-8.2 -12.4,-25.4 -5.4,-14.2 -10.8,-28.2 -12,-30.8 -2,-4.8 -3,-4 -32.6,25.6 l -30.8,30.6 -13.8,-14.6 c -7.8,-8.2 -16.2,-17.4 -19,-20.6 l -5,-5.8 -7.8,18.6 c -4.2,10.2 -8.8,18.8 -10,19.4 -1.2,0.4 -17.2,-3.8 -35.2,-9.2 -18.2,-5.6 -33.6,-10.2 -34,-10.2 -0.6,0 -1.6,1.8 -2.2,4 -1,4 -2.8,4 -131.2,4 -71.6,0 -130.2,-0.4 -130.2,-1 0,-0.6 2.8,-19.2 6,-41.4 7.2,-48.2 7.2,-47.6 1.8,-47.6 -4,0 -4.2,-0.6 -2.8,-15 l 1.4,-15 -9.8,4.6 c -9,4.2 -12.8,4.4 -63,5 l -53.6,0.8 v 21.4 c 0,24.6 -3.2,39.6 -12.4,56.8 -14,26 -38.6,35.2 -93.8,35.4 H 92.6 l -1.4,-10.6 c -0.6,-6 -1.2,-32.2 -1.2,-58.2 l 0.2,-47.6 7.8,1.4 8,1.4 V 934.2 868 H 93.8 C 82.2,868 81.6,867.8 82.6,863.6 83.4,861 88.4,837 93.8,810 99.4,783 104.4,759 105,756.4 l 1.2,-4.6 108.4,0.6 108.4,0.6 12.2,5.6 c 14.4,6.8 25.2,17 31.8,30.6 l 4.8,9.8 0.2,-23.4 V 752 h 59 59 v 81 81 h 20 c 23.6,0 21.6,-5 16,41 -2.2,17.6 -4,32.4 -4,33 0,0.6 19.6,0.8 43.4,0.6 l 43.6,-0.4 20.4,-48.6 c 11.4,-26.8 20.6,-49 20.6,-49.6 0,-0.6 -11.2,-1 -24.8,-1 -13.6,0 -25.6,-0.6 -26.2,-1.4 -1.4,-1.2 3.4,-78.8 6.4,-105 l 1.2,-10.6 h 45.4 45.4 l 10.4,-24.8 10.4,-24.8 36.4,13.8 c 20,7.6 42.6,16.2 50,19 13.2,5 13.6,5.4 12.4,11 l -1.4,5.8 34.8,-0.4 34.6,-0.6 0.6,-9.4 0.6,-9.6 h 67.6 c 37.2,0 150,0.6 250.8,1.4 l 183.4,1.2 -0.4,57.2 -0.6,57.2 h -12.6 c -14.6,0 -12.4,-5.8 -18.4,48 -2.2,19.8 -4.6,39.4 -5.2,43.6 l -1.2,7.4 h -45.8 -45.8 v 13 c 0,11 0.6,13 3.6,13 1.8,0 29.8,-3.2 62.2,-7 32.4,-3.6 59.6,-6.4 60.2,-6 0.8,0.4 2.6,5.8 4,12 1.4,6 3.2,11 4,11 1.2,0 48,-109.6 48,-112.6 0,-0.8 -7.6,-1.4 -16.8,-1.4 -9.2,0 -20.8,-0.6 -26.2,-1.2 l -9.4,-1.4 1.2,-8.2 c 0.4,-4.6 2.6,-30.4 4.4,-57.6 l 3.6,-49.6 46,-0.4 46,-0.6 10,-23.4 c 5.4,-13 10.8,-23.6 11.8,-23.6 1.2,0 24,8.2 50.6,18.2 l 48.4,18.4 -1.6,5.6 -1.8,5.8 h 35 c 32.6,0 34.8,-0.2 34.8,-3.8 0,-2.4 1.8,-4 5.6,-4.8 20,-4 114.8,-19.8 115.4,-19.2 0.4,0.4 -0.6,12 -2,25.8 -5.2,46 -7.2,78.8 -7.2,114 0,31.6 0.6,36.6 5.2,52.6 5.6,19.2 8.6,26 17.4,38.8 7,10.2 13.8,12.6 37.2,12.6 H 1864 V 868.8 749.4 l 9.6,1.2 c 5.2,0.6 31.2,2.4 58,3.6 l 48.4,2.6 v 7.6 c 0,4.2 0.6,7.6 1.2,7.6 0.6,0 11.6,-8.2 24.2,-18.2 12.8,-10.2 24.2,-18.4 25.6,-18.6 1.4,0 22.4,26.8 47,59.8 24.4,33 45.2,60.2 46,60.6 2.8,1 27.8,-51.8 39,-82.6 7,-19.6 11.6,-29.8 13.4,-29.4 4.4,0.8 104.6,40.8 106.2,42.4 2.2,2 -14.4,44.2 -29.4,73.8 -13.6,27.2 -33.4,60.2 -48,80.4 l -9,12.4 7.4,10.2 c 4,5.6 23.2,31.6 42.8,57.6 l 35.4,47.4 -47.8,38 c -26.2,21 -48.2,38.2 -48.8,38.2 -0.4,0 -15.6,-20 -33.6,-44.4 z M 2007.2,986.8 c 12,-9 26.2,-20.4 31.2,-25.2 l 9.4,-8.6 -34,-44.8 -33.8,-44.8 v 71.4 c 0,56.6 0.6,71.2 2.6,70 1.2,-0.8 12.4,-8.8 24.6,-18 z M 750.8,954 c -1.6,-3.8 -2.4,-3.2 -6.4,6.4 l -4.4,10.6 6.4,-6.4 c 5.2,-5.2 6,-7.2 4.4,-10.6 z m 791.4,-0.2 c -1.8,-4.6 -2,-4.4 -6,4.8 -5.6,12.8 -5.4,13.4 1.8,6.2 5.2,-5 5.8,-6.8 4.2,-11 z M 256,872 c 0,-3.8 -1.4,-4 -18,-4 -16.6,0 -18,0.2 -18,4 0,3.8 1.4,4 18,4 16.6,0 18,-0.2 18,-4 z"
       id="path12" />
  </g>
  <g
     fill="#ec1c24"
     id="g20"
     transform="translate(-2,-1.6)">
    <path
       d="m 3839.6,1180.2 c -46,-8.6 -84,-15.8 -84.4,-16.4 -0.6,-0.4 1.2,-10.8 3.8,-22.8 7,-32.2 9.8,-29 -23.6,-29 -31.6,0 -43.2,-2.4 -54.4,-10.8 l -6.8,-5.2 -0.6,7.4 -0.6,7.6 -58.4,0.6 -58.6,0.4 v -78.6 c 0,-43.4 -0.6,-97.8 -1.4,-121 l -1.2,-42.4 h -28.8 -28.6 v 67.8 c 0,51.8 0.6,68.2 2.6,69.6 1.2,1 7.6,3 14,4.4 7.8,1.8 11.4,3.4 11.4,5.6 0,1.6 -5.8,25.4 -13,53 -7.2,27.4 -13,50.2 -13,50.6 0,1.8 -37,0.8 -45.8,-1.2 -25,-5.6 -52.2,-27.6 -63,-50.4 C 3379,1047.6 3378,1038 3378,950.6 V 870 h -27 -26.8 l -1.4,10 -1.2,9.8 -17.4,0.6 -17.2,0.6 36.4,97 c 20,53.4 36.4,98 36.4,99.2 0.2,1.2 -23,10 -51.2,19.8 -28.4,9.6 -52.4,17.8 -53.6,18.2 -1,0.4 -6.4,-11.2 -11.8,-25.8 -5.4,-14.4 -10.6,-28.6 -11.6,-31.2 -1.8,-4.8 -3.2,-3.6 -32.6,25.8 l -31,31 -18.2,-19.6 c -10,-10.6 -18.8,-19.4 -19.6,-19.4 -0.8,0 -4.8,8.2 -9,18 -4.2,10 -8.4,18 -9.6,18 -1.8,0 -58,-16.8 -64.4,-19.2 -2,-0.8 -3.2,0.4 -3.6,3.6 l -0.6,4.6 h -59 -59 l -0.6,-14.6 -0.6,-14.8 -8.2,7.4 c -4.4,4.2 -13.2,9.6 -19.4,12.4 -20.2,9 -35.4,10.6 -100.8,10.6 -59.8,0 -60.4,0 -71,-5 -5.8,-2.6 -13.6,-7.2 -17.4,-10.2 l -6.8,-5.2 -46.6,16 c -25.6,9 -48,16.6 -49.8,17.4 -2.6,1 -5.4,-4.6 -14.8,-30 l -11.8,-31.2 -30.8,30.6 -30.6,30.6 -19.4,-20.6 -19.6,-20.8 -7.6,19.2 c -4.4,10.6 -8.8,19.2 -10,19.2 -3,0 -105,-31.2 -106.4,-32.6 -0.6,-0.6 17.4,-45 40,-99 22.6,-53.8 41.2,-98.4 41.2,-99 0,-0.4 -11.2,-1.2 -25,-1.8 -13.8,-0.6 -25.4,-1.4 -26,-2 -0.6,-0.4 0.4,-18.4 2,-39.8 1.6,-21.4 3.6,-47.2 4.2,-57.2 l 1.4,-18.6 46,-0.4 46,-0.6 10,-23.4 c 5.4,-13 10.8,-23.6 12,-23.6 1.2,0 24,8.2 50.6,18.2 l 48.4,18.4 -1.6,5.6 -1.8,5.8 h 37.8 37.6 l 1.8,-9.6 1.6,-9.4 98,-0.6 c 87.2,-0.4 99,0 107.2,2.8 12.4,4.6 26.4,15 33.8,25.2 l 6,8.2 v -12.2 c 0,-7 0.8,-12.4 2,-12.4 2.8,0 107.8,-15.8 113.6,-17 4.2,-1 4.4,-0.6 4.4,12 v 13 h 45.6 45.6 l 9.8,-24 c 5.4,-13.2 10.6,-24 11.8,-24 1.2,0 24,8.2 50.6,18.2 l 48.4,18.2 -1.2,5.8 -1,5.8 h 34 c 33.6,0 34,0 35.2,-4.6 0.6,-2.4 1.2,-6.8 1.2,-9.8 V 752 h 129.2 c 128.2,0 129,0 127.8,4 -0.8,2.8 -0.4,4 1.6,4 3.4,0 80.6,-11.6 87,-13 3,-0.8 4.4,-0.2 4.4,2 0,2.6 14,3 120,3 115.2,0 120.4,0.2 127.8,4 4.2,2 10.4,6.2 14,9 4.4,3.8 6.2,4.6 6.2,2.4 0,-2 3.8,-3.6 12.6,-5.2 64.6,-11.4 107.8,-18.4 108.6,-17.6 0.6,0.6 -0.4,13.4 -2,28.8 -8.2,74 -9.4,142.6 -2.6,162.6 10,29.8 19,44.6 29.8,49 4.8,1.8 14.2,3 24.6,3 h 17 V 868.8 749.6 l 11.6,1 c 37.4,3.8 356.4,6.4 356.4,3 0,-1 44,-1.6 98,-1.6 95.4,0 98.2,0.2 109.4,4.4 15.8,5.8 34.4,24.2 40.2,39.8 6.2,16.8 10.4,39.8 10.4,57.6 v 15.8 l -9.4,2.2 c -5.4,1 -25.2,5 -44,8.4 -19,3.6 -34.6,7.2 -34.6,8 0,0.6 18.8,19.6 41.6,42 49.6,48.4 51,50.8 51,84.8 0.4,52.2 -17.4,78.6 -61.6,92.4 -10.6,3.2 -19.6,3.6 -80,3.6 h -68.2 l -13.2,-6.6 -13,-6.8 -138.8,17.4 c -76.4,9.4 -141.4,17.4 -144.8,17.6 l -6,0.4 -1.6,-15 c -1,-8.2 -1.8,-15.2 -2,-15.4 -1.6,-1.4 -63.6,6.2 -79.2,9.6 -16.4,3.8 -22.8,4.2 -48,3.2 -69.4,-2.6 -105.4,-23.6 -134.6,-78.4 l -7.4,-14 -0.2,16.2 c 0,15.8 -5.8,41.2 -9.8,43.8 -1,0.6 -1.4,2.6 -0.8,4.8 0.4,2 -4.2,27.2 -10.6,56 -9.2,42.2 -12,52.2 -14.6,52 -1.8,-0.2 -40.8,-7.2 -86.6,-15.6 z m 77.2,-43.6 c 5.8,-26.4 6.2,-29.8 3.4,-31 -1.8,-0.8 -21.6,-5.4 -44.2,-10.2 l -41,-9 36,-0.2 c 40.6,-0.4 48.2,-2.2 57.6,-14.4 8,-10.8 9.4,-19.8 9.4,-64.4 V 966 l -33.4,0.4 -33.6,0.6 -0.6,25.4 -0.6,25.6 -55.4,0.4 -55.4,0.6 -7,13 -7,13 -0.6,-39.6 -0.4,-39.4 -33.6,0.4 -33.4,0.6 v 37 c 0,33.2 0.4,38.6 4.6,52 3.6,10.8 6.8,16.8 12.4,22.4 l 7.6,7.6 h 47.2 47.2 l -1,4.6 c -6,26 -10.8,52.2 -10,53 1.2,1.2 123.6,24 124.6,23.2 0.4,-0.2 3.6,-13.8 7.2,-30.2 z m 465.8,-46.4 c 60.2,-7.6 110,-14.2 110.4,-14.6 0.4,-0.4 -3.2,-15.8 -8.4,-34.2 -7.2,-26 -10,-33.4 -12.6,-33.4 -1.8,0 -30.2,3.2 -63.2,7 -32.8,3.8 -61.4,7 -63.2,7 -3.2,0 -3.6,-2.6 -3.6,-28 v -28 h -32 c -37.8,0 -33.8,-4.4 -34.6,38 l -0.4,29 -11,1.6 c -6,1 -11.6,2.4 -12.4,3 -1,1 4.6,62 6.2,68 0.2,0.2 3.6,0 7.8,-0.6 4,-0.8 56.8,-7.4 117,-14.8 z m -902.8,0.4 c 8.4,-31 14.2,-54 14.2,-56 0,-1.4 -1.2,-2.6 -2.8,-2.6 -4.4,0 -15.2,-10 -17.6,-15.8 -1,-2.8 -1.8,-14 -1.8,-24.6 0.2,-10.6 -0.4,-20.8 -1,-22.4 -1,-2.8 -6,-3.2 -34,-3.2 H 3404 v 34.8 c 0,28.6 0.6,37 3.8,47 7.2,23.4 25.2,40.8 48.4,47 18.2,5 21.4,4.4 23.6,-4.2 z m -834,-6.8 30,-10.2 -5.8,-15.2 c -6.2,-17.2 -31.6,-85.2 -33.4,-89.6 -1.4,-3.8 -69.6,-4.2 -68.2,-0.2 4.2,12 46.6,125.4 47,125.4 0.2,0 13.8,-4.6 30.4,-10.2 z m 654.8,-0.8 c 25.2,-8.8 27.4,-9.8 26.2,-13.8 -0.8,-2.4 -9.6,-26.2 -19.8,-53.2 l -18.4,-49 -33.4,-0.6 c -26.4,-0.4 -33.2,0 -33.2,2.2 0,2 27.4,77 43.8,120.2 1.2,3 3.4,5.2 4.8,4.8 1.2,-0.6 14.8,-5.2 30,-10.6 z m -832.2,-43 c 12,-28 23.8,-56.2 26.6,-62.6 l 5,-11.4 -35.2,0.4 -35,0.6 -21.8,52 c -12.2,28.6 -21.8,52.8 -21.4,53.8 0.6,2 53,19 57.4,18.4 1.8,-0.2 10.8,-19 24.4,-51.2 z m 657,-10 c 14.4,-34 25.6,-62.4 25,-63 -0.6,-0.6 -15.6,-1 -33.4,-1 -23.6,0 -33,0.6 -34.4,2.6 -3.2,3.8 -44.6,104 -43.6,105 1,1.2 55,18 58.2,18.2 1.2,0.2 13.8,-27.6 28.2,-61.8 z m 1011.6,60.2 c 5.4,-1 6.4,-2.6 10.6,-16.2 7.4,-24.2 8.2,-24.6 8.2,-6.4 0.2,16.2 0.2,16.4 5.2,16.4 5.2,0 37.2,-3.2 52.6,-5.2 l 8.4,-1 V 1025 c 0,-29 -0.6,-54 -1.2,-55.8 -1,-2.8 -5.8,-3.2 -33,-3.2 H 4156 v 21.8 21.8 l -10.4,1.2 c -28.6,3.2 -39.6,3.4 -51.4,1.2 -22.8,-4.2 -33.6,-12.4 -46,-35 l -5.6,-10 -35.2,-0.6 c -41,-0.6 -38.6,-2.4 -30.4,22.6 18.6,57 43.6,85.2 84.6,96 22.4,5.6 60.6,8.4 75.4,5.2 z m -1588.2,-34 32,-32 -17.8,-19.2 -17.6,-19.2 -27.8,27.6 c -15.4,15.2 -29.6,30 -31.8,33 l -4,5.6 16.6,18 c 9,9.8 17,18 17.6,18 0.6,0 15.4,-14.4 32.8,-31.8 z m 652,0 31.8,-32 -6.6,-7.6 c -3.6,-4.2 -11.4,-12.6 -17,-19 l -10.4,-11.2 -32.4,32.4 -32.4,32.6 16.6,18 c 9.2,10 17,18.4 17.6,18.4 0.6,0.2 15.4,-14.2 32.8,-31.6 z m -323.6,25.6 c 11.4,-3.4 15.6,-6 24,-14.8 8.4,-8.4 10.8,-12.6 12.6,-21.2 7.6,-34.8 4.2,-54.2 -12.4,-70 l -10.4,-10 -47.4,0.2 -47.4,0.2 22,21.6 c 30.4,29.6 30.6,29 -15.4,29.8 -34,0.4 -36.4,0.2 -41.4,-3.6 -3,-2.4 -6.2,-7.8 -7.4,-12.2 -1.2,-4.2 -3,-7.8 -4,-7.8 -2,0 -58.2,19.6 -59.4,20.8 -1.2,1.2 7.8,28 12.6,37.8 6.2,12.2 17.4,24.6 26.6,29.4 6.6,3.6 12.4,3.8 70.4,4 58.8,0 64.4,-0.4 77,-4.2 z M 3018,1026 v -60 h -34 -34 v 60 60 h 34 34 z m 630.6,4.6 c 0.8,-30.6 0.8,-57.6 0.2,-60 -1.2,-4.6 -1.8,-4.6 -35,-4.6 H 3580 v 60 60 h 33.6 33.8 z m 1043.2,52.4 c 21,-5.6 35.2,-17.8 40.4,-34.8 1.2,-4 2.6,-15.2 3.2,-25.2 1.4,-24.8 -1.2,-33.4 -14.4,-46.4 L 4710.6,966 h -46.2 c -25.6,0 -46.4,0.6 -46.4,1.6 0,0.8 9,10.4 20,21.4 28.4,28.2 28.4,27.8 -16.8,28.6 -41,0.6 -43.4,-0.2 -47.4,-14 -1.4,-4.8 -2.8,-9 -3,-9.4 -0.4,-0.2 -14.4,4 -31.6,9.8 l -31,10.2 3,10.4 c 4,13.8 13.8,34.8 20.2,43 2.8,3.8 9.2,9.4 14.2,12.6 l 9.2,5.8 h 63 c 48.6,0 65.8,-0.8 74,-3 z M 4252,990 c 0,-18.2 -0.6,-22 -3,-22 -2.4,0 -3,3.8 -3,22 0,18.2 0.6,22 3,22 2.4,0 3,-3.8 3,-22 z M 2714.6,921.6 C 2671.2,878.2 2671,878 2669.4,884 c -1.4,5.8 -1.6,5.8 -18.2,6.4 l -16.8,0.6 19.2,51.2 19,51.2 42.6,-14.2 L 2758,965 Z M 3846,932 v -61.8 l -38,-0.6 -38,-0.6 v 62.6 62.4 h 38 38 z m 579.6,56 c 28.4,-3.2 55.2,-6.4 59.8,-7 8,-1.2 8.2,-1 9.6,5 0.8,3.4 2,6 3,5.6 0.8,-0.4 18.6,-6.4 39.8,-13.6 21,-7.2 38.2,-13.4 38.2,-14 0,-0.6 -21.8,-22.2 -48.4,-48 -36.6,-35.4 -49.6,-46.8 -52.8,-46.4 -4.4,0.6 -4.4,-0.4 -13,78 l -2.4,20.4 h -46.6 -46.8 v 13 c 0,11.8 0.4,13 4.2,13 2.2,0 27.2,-2.6 55.4,-6 z m 180.4,5.4 c 0,-0.4 -2.2,-2.8 -5,-5.4 -5,-4.6 -5,-4.6 -5,-0.4 0,2.6 1.6,4.4 4.6,5 2.4,0.4 4.6,1 5,1.2 0.2,0 0.4,0 0.4,-0.4 z m -1823.8,-5.6 c -5.2,-4.4 -7,-4 -5,1 0.6,1.8 3.2,3.2 5.6,3.2 4.2,-0.2 4.2,-0.2 -0.6,-4.2 z M 3068.4,936 c 10,-23.6 18.4,-43.8 18.8,-45 0.6,-1.2 -7.2,-2 -21.2,-2 h -22 v 52 c 0.2,48.4 0.4,51.6 3.2,45 1.8,-3.8 11.2,-26.4 21.2,-50 z m -531.6,19.4 c -2,-5.4 -4.2,-4 -7.6,4.6 -4.4,11.2 -4,11.8 2.8,4.8 4.2,-4 5.8,-7.2 4.8,-9.4 z M 3189,954 c -1.8,-5.4 -3.4,-3.8 -7.8,8 l -3.4,9 6.2,-6.2 c 5,-4.8 6.2,-7.4 5,-10.8 z m -265.4,-81.2 c -0.6,-0.4 -68.4,12.6 -73,14.2 -1.4,0.4 14.4,17.4 35,37.8 l 37.4,37 0.6,-44.2 c 0.2,-24.4 0.2,-44.4 0,-44.8 z"
       id="path16" />
    <path
       d="m 2151.6,1099.6 c -18,-24.4 -33.2,-45.2 -33.8,-46.2 -0.8,-1.2 -10,5.4 -20.4,14.6 -10.6,9.2 -25.8,21 -33.8,26.4 -17.2,11.6 -52,31.6 -54.8,31.6 -1.2,0 -7.6,-6.4 -14.6,-14.2 -7,-7.8 -13.4,-13.4 -14,-12.4 -0.6,1 -18.8,3.4 -40.2,5.4 -21.4,2 -46.2,5.4 -55,7.6 -13.6,3.4 -20.4,3.8 -46,3 -58.6,-2 -92.6,-16.6 -118.2,-50.8 -28.4,-37.6 -44.8,-90 -49.6,-158.6 -0.6,-8.2 -1.2,-15.2 -1.2,-15.4 0,-0.4 -6.8,-0.6 -15,-0.6 h -15 l 5.2,13.6 c 25.8,68.2 68.8,185 68.4,185.4 -0.4,0.2 -23,8.2 -50.6,17.6 -27.4,9.4 -51.4,17.6 -53.2,18.4 -2.4,1 -5.4,-5 -14.8,-30.2 l -11.6,-31.2 -30.8,30.8 -30.8,30.6 -19.4,-20.6 -19.4,-20.8 -7.8,19.2 c -4.2,10.6 -8.8,19.2 -10,19.2 -1.2,0 -18.2,-4.8 -37.6,-10.8 l -35.6,-10.8 -132.4,16.8 c -72.8,9.2 -132.6,16.4 -133,16 -0.6,-0.4 -12.6,-110.6 -12.6,-115 0,-1 6.4,-3 14,-4.2 l 14,-2.4 V 989.8 968 h -15 c -10.6,0 -15,-0.8 -15,-2.4 0,-1.4 2.2,-22 5,-45.6 2.8,-23.6 5,-44.6 5,-46.4 0,-3.2 -2.8,-3.6 -30.8,-3.6 h -31 l -0.6,67.6 c -0.4,52.2 0,68 2,69.6 1.2,1.2 7.8,3.4 14.4,4.8 10.6,2.2 11.8,3 10.8,6.8 -0.6,2.2 -6.6,26.2 -13.6,53.2 l -12.6,49 h -23.8 c -23.2,0 -24.2,-0.2 -38.8,-7.2 -8.2,-4 -19,-10.8 -23.8,-15 -11.4,-10 -23.2,-28.2 -28.6,-44.6 -4.2,-12.6 -4.4,-17.2 -5.2,-98.6 L 939.6,870 h -26.4 -26.6 l -1.4,10 -1.4,10 h -17 c -16.6,0 -17,0.2 -15.6,4.4 0.6,2.4 17,46.2 36,97.4 19.2,51.2 34.8,94 34.8,95.4 0,1.8 -92,34.8 -103.8,37.2 -1.6,0.4 -5.8,-8.2 -12.4,-25.4 -5.4,-14.2 -10.8,-28.2 -12,-30.8 -2,-4.8 -3,-4 -32.6,25.6 l -30.8,30.6 -13.8,-14.6 c -7.8,-8.2 -16.2,-17.4 -19,-20.6 l -5,-5.8 -7.8,18.6 c -4.2,10.2 -8.8,18.8 -10,19.4 -1.2,0.4 -17.2,-3.8 -35.2,-9.2 -18.2,-5.6 -33.6,-10.2 -34,-10.2 -0.6,0 -1.6,1.8 -2.2,4 -1,4 -2.8,4 -131.2,4 -71.6,0 -130.2,-0.4 -130.2,-1 0,-0.6 2.8,-19.2 6,-41.4 7.2,-48.2 7.2,-47.6 1.8,-47.6 -4,0 -4.2,-0.6 -2.8,-15 l 1.4,-15 -9.8,4.6 c -9,4.2 -12.8,4.4 -63,5 l -53.6,0.8 v 21.4 c 0,24.6 -3.2,39.6 -12.4,56.8 -14,26 -38.6,35.2 -93.8,35.4 H 92.6 l -1.4,-10.6 c -0.6,-6 -1.2,-32.2 -1.2,-58.2 l 0.2,-47.6 7.8,1.4 8,1.4 V 934.2 868 H 93.8 C 82.2,868 81.6,867.8 82.6,863.6 83.4,861 88.4,837 93.8,810 99.4,783 104.4,759 105,756.4 l 1.2,-4.6 108.4,0.6 108.4,0.6 12.2,5.6 c 14.4,6.8 25.2,17 31.8,30.6 l 4.8,9.8 0.2,-23.4 V 752 h 59 59 v 81 81 h 20 c 23.6,0 21.6,-5 16,41 -2.2,17.6 -4,32.4 -4,33 0,0.6 19.6,0.8 43.4,0.6 l 43.6,-0.4 20.4,-48.6 c 11.4,-26.8 20.6,-49 20.6,-49.6 0,-0.6 -11.2,-1 -24.8,-1 -13.6,0 -25.6,-0.6 -26.2,-1.4 -1.4,-1.2 3.4,-78.8 6.4,-105.2 l 1.2,-10.4 h 45.4 45.4 l 10.4,-24.8 10.4,-24.8 36.4,13.8 c 20,7.6 42.6,16.2 50,19 13.2,5 13.6,5.4 12.4,11 l -1.4,5.8 34.8,-0.4 34.6,-0.6 0.6,-9.6 0.6,-9.4 h 67.6 c 37.2,0 150,0.6 250.8,1.4 l 183.4,1.2 -0.4,57.2 -0.6,57.2 h -12.6 c -14.6,0 -12.4,-5.8 -18.4,48 -2.2,19.8 -4.6,39.4 -5.2,43.6 l -1.2,7.4 h -45.8 -45.8 v 13 c 0,11 0.6,13 3.6,13 1.8,0 29.8,-3.2 62.2,-7 32.4,-3.6 59.6,-6.4 60.2,-6 0.8,0.4 2.6,5.8 4,12 1.4,6 3.2,11 4,11 1.2,0 48,-109.6 48,-112.6 0,-0.8 -7.6,-1.4 -16.8,-1.4 -9.2,0 -20.8,-0.6 -26.2,-1.2 l -9.4,-1.4 1.2,-8.2 c 0.4,-4.6 2.6,-30.4 4.4,-57.6 l 3.6,-49.6 46,-0.4 46,-0.6 10,-23.4 c 5.4,-13 10.8,-23.6 11.8,-23.6 1.2,0 24,8.2 50.6,18.2 l 48.4,18.4 -1.6,5.6 -1.8,5.8 h 35 c 32.6,0 34.8,-0.2 34.8,-3.8 0,-2.4 1.8,-4 5.6,-4.8 20,-4 114.8,-19.8 115.4,-19.2 0.4,0.4 -0.6,12 -2,25.8 -5.2,46 -7.2,78.8 -7.2,114 0,31.6 0.6,36.6 5.2,52.6 5.6,19.2 8.6,26 17.4,38.8 7,10.2 13.8,12.6 37.2,12.6 H 1864 V 868.8 749.4 l 9.6,1.2 c 5.2,0.6 31.2,2.4 58,3.6 l 48.4,2.6 v 7.6 c 0,4.2 0.6,7.6 1.2,7.6 0.6,0 11.6,-8.2 24.2,-18.2 12.8,-10.2 24.2,-18.4 25.6,-18.6 1.4,0 22.4,26.8 47,59.8 24.4,33 45.2,60.2 46,60.6 2.8,1 27.8,-51.8 39,-82.6 7,-19.6 11.6,-29.8 13.4,-29.4 4.4,0.8 104.6,40.8 106.2,42.4 2.2,2 -14.4,44.2 -29.4,73.8 -13.6,27.2 -33.4,60.2 -48,80.4 l -9,12.4 7.4,10.2 c 4,5.6 23.2,31.6 42.8,57.6 l 35.4,47.4 -47.8,38 c -26.2,21 -48.2,38.2 -48.8,38.2 -0.4,0 -15.6,-20 -33.6,-44.4 z M 2219,1086 c 14.8,-11.6 26.8,-21.8 26.8,-23 0,-1 -16,-23.2 -35.4,-49 l -35.4,-47 -51.2,-0.6 -51.2,-0.4 -19.8,16.6 c -22,18.2 -40.6,32.2 -67.2,50.4 -9.6,6.6 -17.6,12.6 -17.6,13.6 0,0.8 10.2,12.2 22.6,25.4 l 22.4,23.8 11,-6.2 c 25,-14 48.2,-31.6 70.8,-54.2 13,-13 24.4,-22.8 25,-21.8 9,14 69.4,94.4 70.8,93.8 0.8,-0.2 13.6,-9.8 28.4,-21.4 z m -945.4,4.2 c 59.8,-7.6 109.2,-14.4 109.8,-15 1.2,-1.2 -15.2,-63.2 -17.6,-66 -0.8,-1 -28.6,1.4 -64.2,5.6 -34.4,4 -64.2,7.2 -66,7.2 -3.2,0 -3.6,-2.6 -3.6,-28 v -28 h -32 -32 l -0.4,33.6 -0.6,33.4 -12.4,1.8 c -14.8,2 -14.2,-0.6 -9.6,40.2 1.6,14.4 3,27.2 3,28.6 0,2 2.2,2.4 8.6,1.4 4.6,-0.6 57.2,-7.4 117,-14.8 z M 1048.4,1069 c 4,-15.4 7.4,-29.8 7.4,-32 0,-2.6 -2.2,-5 -6.2,-7 -12.4,-5.8 -14.6,-11.4 -15.2,-39.2 l -0.8,-24.8 h -34 -34 l 0.8,37.6 c 0.8,43 3.4,52.8 17.8,69.2 13.2,14.8 35.4,25.6 50.8,24.6 5.8,-0.4 6,-0.6 13.4,-28.4 z M 860,1084.2 c 13.8,-4.6 26.2,-9 27.8,-10 2.2,-1.4 -0.4,-10.2 -13.8,-46.6 -9.2,-24.4 -18.2,-48.4 -20.2,-53 L 850.2,966 H 817 c -20.4,0 -33,0.8 -33,2 0,5.6 46.8,126.2 48.8,125.4 1.2,-0.4 13.4,-4.6 27.2,-9.2 z m 792,-0.4 29.6,-10.2 -3.6,-10.2 c -3,-9 -31,-83.6 -35,-93.8 -1.2,-3.2 -5,-3.6 -35.4,-3.6 -20.4,0 -33.6,0.8 -33.2,1.8 7.2,20.6 46.8,126.2 47.2,126.2 0.4,0 14.2,-4.6 30.4,-10.2 z M 687.2,1032 c 13.6,-32.4 25.4,-60.6 26,-62.6 1,-3.2 -1.2,-3.4 -33.6,-3 l -34.6,0.6 -22.2,53 c -12.2,29.2 -22,53.4 -21.6,53.8 1.2,1.4 56,17.8 58.4,17.6 1.6,-0.2 13.8,-26.4 27.6,-59.4 z m 792,-2.6 26.2,-62.4 -34,-0.6 c -18.6,-0.2 -34.4,-0.2 -34.8,0.4 -2.6,2.4 -44.6,105.8 -43.6,106.8 1.4,1.4 54.6,18.2 58,18.2 1.2,0 13.8,-28 28.2,-62.4 z m 391.2,60.6 c 4,-1.2 7.8,-3.6 8.4,-5.6 6.2,-21.8 9.4,-32.4 9.8,-32.4 0.4,0 0.2,6 -0.2,13.6 -0.8,19.6 -1.2,19.4 26.8,16.6 13.2,-1.4 27.6,-2.8 32.4,-3.6 l 8.4,-1 v -51.4 c 0,-28.2 -0.6,-53.2 -1.2,-55.6 -1.2,-4.6 -1.8,-4.6 -33,-4.6 h -31.6 l -0.6,21.4 -0.6,21.4 -7,1.6 c -3.8,1 -18.2,1.8 -32,2 -32.4,0.6 -42,-2.4 -55.2,-17 -5,-5.6 -11.4,-14.6 -14,-19.8 L 1776,966 h -35 -35 v 4.8 c 0,7.6 11.4,38.4 21.4,57.8 16,31 37.4,48.6 69,56.6 23.2,6 60.8,8.4 74,4.8 z M 161,1084.8 c 6.6,-1.6 14.2,-4.6 17,-6.6 6.8,-4.8 14.2,-18.6 17.4,-32 2.6,-11.4 3.6,-67.2 1.4,-75.8 -1.2,-4.4 -1.4,-4.4 -33.6,-4 l -32.2,0.6 -1,26 c -1.2,27 -3,33.8 -10,36 -3.8,1.2 -4,3 -4,31 v 29.6 l 16.6,-1 c 9,-0.4 21.8,-2.2 28.4,-3.8 z m 603.6,-28.4 31.6,-31.6 -17.4,-19.6 -17.6,-19.4 -32.6,32.6 -32.6,32.4 7.6,8.2 c 17.4,18.8 27.4,29 28.4,29 0.6,0 15.2,-14.2 32.6,-31.6 z m 790.2,-0.2 31.8,-32 -14,-15.6 c -23.4,-25.8 -18.8,-25.4 -40.8,-3 -10.4,10.6 -24.6,25.4 -31.6,32.8 l -12.8,13.4 16.8,18 c 9.2,10 17.2,18 17.8,18.2 0.6,0 15.4,-14.4 32.8,-31.8 z m -974.6,27.4 c 0,-1.4 1.6,-17.6 3.6,-36 l 3.4,-33.6 H 526.6 466 v -10 -10 h 14.8 15 l 1.2,-9.4 c 0.6,-5.4 1.6,-11.6 2.2,-14 L 500,966 h -61.8 -61.6 l -1.4,7.6 c -0.6,4 -1.2,10.2 -1.2,13.8 0,6.4 0.2,6.4 10.6,7 l 10.4,0.6 0.6,9.4 0.6,9.4 -7.6,0.6 -7.6,0.6 -4.4,29 c -2.4,16 -4.4,32 -4.4,35.6 l -0.2,6.4 h 104 c 81.8,0 104,-0.6 104.2,-2.4 z m 1427,-96.8 c 12,-9 26.2,-20.4 31.2,-25.2 l 9.4,-8.6 -34,-44.8 -33.8,-44.8 v 71.4 c 0,56.6 0.6,71.2 2.6,70 1.2,-0.8 12.4,-8.8 24.6,-18 z m -1679.4,-15 c 3.4,-1.2 6.2,-3 6.2,-4 0,-1 -25.2,-1.8 -59,-1.8 -47.8,0 -59,0.6 -59,2.6 0,1.6 0.6,3.4 1.4,4 2.2,2.4 103.4,1.6 110.4,-0.8 z m 423,-17.8 c -1.6,-3.8 -2.4,-3.2 -6.4,6.4 l -4.4,10.6 6.4,-6.4 c 5.2,-5.2 6,-7.2 4.4,-10.6 z m 791.4,-0.2 c -1.8,-4.6 -2,-4.4 -6,4.8 -5.6,12.8 -5.4,13.4 1.8,6.2 5.2,-5 5.8,-6.8 4.2,-11 z M 256,872 c 0,-3.8 -1.4,-4 -18,-4 -16.6,0 -18,0.2 -18,4 0,3.8 1.4,4 18,4 16.6,0 18,-0.2 18,-4 z"
       id="path18" />
  </g>
  <g
     fill="#ffffff"
     id="g34"
     transform="translate(-2,-1.6)">
    <path
       d="m 3823.2,1244.8 c -80.2,-14.6 -146.2,-27.2 -146.8,-27.8 -0.6,-0.6 0.8,-9.6 2.8,-20 l 4,-19 h -65.6 -65.6 l -1.2,5 -1.2,5 -30.4,0.4 c -49.2,0.8 -64.8,0 -81,-3.4 -17,-3.8 -39.2,-13.4 -53,-22.8 -4.8,-3.4 -10.2,-6.2 -11.8,-6.2 -1.6,0 -38,12.2 -81.2,27 -43.2,14.8 -78.8,27 -79.4,27 -0.4,0 -0.8,-0.8 -0.8,-2 0,-1 -2,-7 -4.2,-13.2 l -4.2,-11.2 -19,18.6 -18.8,18.8 -7.4,-8.4 c -7.2,-8 -8.8,-8.6 -50.4,-21.4 l -43.2,-13.2 h -170.2 -170.4 l -17,-6.2 -17.2,-6.2 -62.4,21.6 c -34.4,11.8 -63.6,21.8 -64.8,22.2 -1.4,0.4 -4.4,-5 -7,-12.4 l -4.6,-13.2 -18.6,18.6 -18.6,18.4 -8.6,-8.4 c -8.6,-8.6 -9,-8.6 -109.4,-39.4 l -100.8,-30.6 -61,48.6 c -33.6,26.8 -61.6,48.4 -62.4,47.8 -1,-0.4 -16.2,-21 -34,-45.4 -17.8,-24.4 -32.6,-44.6 -32.8,-45 -0.2,-0.2 -9.8,5.2 -21.2,12.2 -11.4,7 -36,21 -54.6,31.2 l -33.8,18.8 -19.2,-20.4 -19.2,-20.4 -21,2.2 c -11.6,1.2 -31.2,4.4 -43.4,7.2 -18.2,3.8 -27.6,4.8 -49,4.6 -14.6,-0.2 -30.8,0.4 -35.8,1.2 -8.4,1.2 -9.4,1 -10.4,-2.8 -0.6,-2.4 -2.6,-4.2 -4.8,-4.2 -7.6,0 -35.4,-8 -51.6,-15 l -16.4,-7 -78.6,27 c -43.4,14.8 -78.8,26.8 -79.2,26.4 -0.2,-0.2 -2.4,-6 -4.8,-13 l -4.6,-12.6 -18.6,18.4 -18.8,18.6 -8.8,-8.6 c -8.4,-8.2 -10.2,-9 -66.6,-26.2 l -58.2,-17.6 -156.6,19.8 c -86.2,10.8 -158.4,19.8 -160.2,19.8 -2.6,0 -3.6,-2.2 -4,-9.4 l -0.6,-9.4 -26,-0.4 c -37.6,-0.6 -65,-8.6 -92,-27.2 l -10.2,-6.8 -79.8,27.4 c -44,15.2 -80.6,27 -81.2,26.2 -0.6,-0.8 -2.8,-6.2 -5,-12 -2,-5.6 -4.2,-10.4 -4.8,-10.4 -0.6,0 -8.6,7.6 -18,17 -9.4,9.4 -17.6,17 -18.4,17 -0.8,0 -4.8,-3.6 -9,-8 -7.2,-7.4 -10.2,-8.8 -49.6,-20.8 l -42,-12.8 -181.6,-1.4 c -172,-1.4 -181.4,-1.6 -181.4,-5 0,-2 2.2,-19 5,-38 2.8,-19 5,-35 5,-35.6 0,-0.8 -2.8,3.4 -6,9.4 -19.6,35.4 -45.6,55.2 -87,66.4 -13.8,3.8 -23,4.4 -67.8,5.4 -28.4,0.4 -60,0.2 -70.4,-0.6 L 26,1177.6 v -61.4 c 0,-33.8 -0.6,-88.6 -1.4,-121.8 L 23.4,934 H 12.6 C 5.4,934 2,933.2 2,931.4 2,928 51.4,689.8 52.4,689 c 0.2,-0.2 113.8,-1.2 252.2,-2 L 556,685.6 v 10.2 10.2 l 49.2,-0.4 49.2,-0.6 13.6,-33 c 9,-21.2 14.8,-32.8 16.4,-32.4 1.4,0.4 33.6,12.4 71.6,26.8 63.6,24 69,25.6 71.4,22.4 2.4,-3.2 19.4,-3.4 313.2,-2 l 310.8,1.4 9.6,-23.6 c 5.4,-13 10.2,-24.4 11,-25.2 0.8,-0.8 39.6,13 86.4,30.6 l 85.2,32.2 111.6,-19.2 c 61.6,-10.6 113.4,-19.6 115.4,-20.2 3.2,-1 3.4,0 2.2,10 -1.2,10 -1,11.2 2.4,11.2 2.2,0 24,1.4 48.8,3 24.8,1.6 47.2,2.8 50,3 3.4,0 15.6,-8.4 37.8,-26 l 33,-25.8 29.8,40.4 c 16.4,22.2 31,41.6 32.4,43 2,2.4 4.6,-3.6 14,-32 6.4,-19 11.8,-34.8 12,-35.2 0.2,-0.4 43.4,16.6 95.8,37.6 52.4,20.8 96.2,38 97.2,38 1.2,0 2,-5.4 2,-12 v -12 h 54.6 54.8 l 2,-4.6 c 1.2,-2.4 7.2,-17 13.6,-32.4 6.4,-15.4 12.2,-28.6 13,-29.6 1,-1.2 90,31.4 152.4,55.6 2.6,1 3.8,0 4.8,-3.8 l 1.2,-5.2 109.4,-0.6 c 163.4,-0.6 148.4,-1.2 169.2,6 l 18,6.2 90.8,-13.8 c 50,-7.6 91.6,-13.8 92.4,-13.8 0.6,0 4.2,-7.2 7.8,-16 5.8,-14.4 7,-16 10.8,-14.8 3.2,1 118,44.2 137.8,51.8 2.4,1 3.4,0.4 3.4,-1.8 0,-3 16.4,-3.2 185,-3.2 h 185 l 52.2,-8 c 28.8,-4.4 52.6,-8 53,-8 0.4,0 0.8,3.6 0.8,8 v 8 h 93.8 93.8 l 11.4,5 11.2,5 93,-16 c 51,-8.8 93.4,-16 94.2,-16 1,0 1.2,4.4 1,9.8 -0.6,8.8 -0.2,10 4,11.6 2.4,0.8 129.2,1.4 281.6,1 l 277,-0.6 14,4.4 c 39.6,12 69,36.2 85.8,69.8 5,10.4 11.6,28 14.6,39 4.8,18.6 5.2,23.8 6.2,72.4 l 0.8,52.4 -8,1.4 c -12.8,2 -13,2.6 -4.4,19 12.2,23.4 16.6,42.2 16.4,71.8 -0.2,79.6 -35.2,130.4 -105.6,153.8 -22.2,7.4 -37,8.4 -111.8,7.8 l -72,-0.6 -12.6,-5.4 -12.8,-5.2 -167,21 c -91.8,11.6 -167.4,20.6 -167.8,20 -0.6,-0.4 -1.6,-7.4 -2.2,-15.2 -0.6,-7.8 -1.8,-14.6 -2.4,-15 -0.6,-0.4 -8.8,0.8 -18.2,3 -12.4,2.8 -24,3.6 -43,3.4 -14.2,-0.2 -30.8,0.4 -36.4,1.2 -9.6,1.4 -10.6,1.2 -10.6,-2.2 0,-3 -2.6,-4.2 -13.4,-6.2 -7.6,-1.4 -20.8,-5 -29.8,-8.2 l -16,-5.4 -11.8,54.6 -12,54.6 -6,-0.2 c -3.2,-0.2 -71.6,-12.2 -151.8,-27 z m 145.6,4.4 c 0.6,-2.8 6.2,-27.8 12.2,-55.6 6.2,-27.8 11.4,-51.6 12,-53 0.6,-1.6 6,0 17.4,5.2 16.4,7.6 41.4,15 60.2,17.4 5.2,0.8 9.4,1.8 9.4,2.6 0,2.8 63.4,-0.2 79.6,-4 9,-2 19.2,-3.8 22.4,-3.8 h 5.8 l 1.4,16.2 1.4,16.2 6.2,-1.2 c 3.4,-0.4 75.8,-9.8 161,-20.4 l 154.8,-19.4 18.6,6.4 18.4,6.6 71.6,-0.8 c 66,-0.8 73,-1.2 87.8,-5.2 52.8,-14.4 86.2,-47.6 97.4,-96.8 5.4,-24 5.8,-60.8 1,-79.6 -5,-19.2 -14.4,-36.6 -26.6,-50 -12.6,-13.4 -13.8,-11.6 11.2,-16.6 l 13,-2.6 0.6,-37.8 c 0.4,-28 -0.4,-42.2 -2.6,-54.6 -11.6,-62.2 -40,-97.2 -90.4,-112.4 l -14.4,-4.4 -263.6,0.8 c -145,0.4 -275,-0.2 -289,-1.2 l -25.6,-1.6 v -7.8 c 0,-6 -0.8,-7.8 -3.4,-7.8 -1.8,0 -40.6,6.4 -86,14.2 l -82.6,14.4 -11.8,-5.4 -11.8,-5.2 H 3824.2 3724 v -7 c 0,-6.4 -0.4,-6.8 -5.4,-5.8 -3.2,0.4 -20.4,3.4 -38.6,6.4 l -33,5.4 -184,1 -184,1 -0.6,5.6 c -0.4,3 -1.4,5.4 -2.4,5.4 -1,0 -34.6,-12.4 -74.8,-27.6 l -73,-27.8 -4,9.2 c -2,5 -8,19.4 -13.2,31.8 -7.4,17.4 -10.2,22.4 -13.2,22.4 -3.4,0 -3.8,-1.6 -3.8,-17.2 v -17.2 l -5.4,1.2 c -21.6,4.6 -166.8,25.2 -171.6,24.4 -3.2,-0.4 -12.2,-3.2 -20,-6 l -14,-5 -122.2,-0.2 c -132.4,0 -124.8,-0.6 -124.8,10 0,2 -0.8,4.2 -1.8,4.8 -1,0.8 -36.4,-11.8 -78.6,-27.8 -42,-16 -77.6,-29 -78.8,-29 -1.2,0 -7.8,14 -14.8,31 l -12.8,31 h -52.4 -52.4 l -1.4,16.2 c -1.2,13.6 -2,16 -4.8,15.2 -1.8,-0.4 -46.2,-18.2 -98.8,-39.2 -52.8,-21.2 -96,-38.2 -96.2,-37.8 -0.4,0.4 -6.8,19.4 -14.6,42.4 l -14,41.6 -36.4,-49.2 -36.6,-49.2 -16,12.6 c -8.8,6.8 -22,17 -29.2,22.6 l -13.4,10.2 -57,-3.6 c -31.4,-2 -60.4,-3.6 -64.4,-3.6 -7.6,-0.2 -7.6,-0.2 -7.6,-8.8 v -8.6 l -101.4,17.6 c -56,9.6 -104.2,17.6 -107.6,17.8 -3.4,0.2 -40.2,-12.8 -83,-29 -42.4,-16 -78,-29.2 -79,-29.2 -1.2,0 -8,14 -15,31 l -12.8,31 h -8.6 -8.6 v -8.6 -8.8 l -178.4,-1.2 c -98.2,-0.8 -232.4,-1.4 -298,-1.4 -112.6,0 -119.6,0.2 -119.6,3.6 -0.2,10.2 -0.8,10 -76,-18.4 -39.8,-15 -73.2,-27.2 -74.4,-26.8 -1,0.4 -7.6,14.2 -14.4,30.6 l -12.4,30 -52.4,0.6 c -28.8,0.2 -52.4,1.2 -52.6,2 0,0.8 -2.6,32.4 -5.4,70.4 -5.4,68.2 -5.4,69 -9.8,69.6 l -4.6,0.6 v -81.4 -81.4 l -163.4,1.2 c -90,0.8 -197,1.4 -237.8,1.4 h -74 l -22,106.6 -22,106.4 17.6,0.6 17.6,0.6 v 9.6 9.8 l -7.4,-1.8 c -4.2,-0.8 -7.8,-1.2 -8.2,-0.8 -0.4,0.4 0,52 0.8,114.8 l 1.4,114.2 59.2,-0.6 c 52.6,-0.8 61,-1.2 76,-5.2 38,-9.8 62.4,-28.6 77.8,-60.2 7.8,-16 14.4,-36.2 14.4,-44.4 0,-3 1.8,-3.6 11,-3.6 h 10.8 l -1.2,10 c -1,9 -0.8,10 2.6,10 3.8,0 3.8,1 -1.4,37.6 -3,20.6 -6,40.8 -6.6,45 l -1.2,7.4 h 170.8 170.8 l 38.6,12 c 38.4,11.8 38.8,11.8 41.6,7.8 2.8,-4 3.2,-3.6 13.6,6.6 l 10.6,10.4 21.6,-21.4 21.4,-21.4 5.8,16.2 c 3.2,8.8 6.8,16.6 8,17 1.2,0.4 36.2,-10.8 77.8,-25.2 l 75.6,-26 10.4,7.8 c 14.2,10.8 37.6,21.6 54.4,25.2 8.8,1.8 25.4,3 44.2,3 h 30.4 l 1.4,9.2 c 1.2,8.6 1.6,9 6.6,8 3,-0.6 71.8,-9.4 153,-19.4 l 147.8,-18.4 53.2,16.4 c 29.4,8.8 53.6,15.6 54,14.8 2.8,-8 4.6,-7.4 14.4,3.4 l 9.8,11 21.8,-21.8 22,-21.6 6.4,17.2 c 3.6,9.4 7.2,17.2 8.2,17.2 0.8,0 34.4,-11.4 74.8,-25.2 l 73.4,-25.2 14.6,7.2 c 15.8,7.8 44,16 62,18.2 6,0.8 11,2 11,2.8 0,2.8 59.6,0 78,-4 10.4,-2 30.8,-5.2 45,-6.6 l 26,-2.8 18,18.6 18,18.8 36,-20.2 c 19.8,-11 44,-25.4 53.8,-32 9.8,-6.4 18.4,-11.6 19.4,-11.2 0.8,0.4 15.8,20 33,43.6 17.2,23.6 32,43.8 32.8,44.6 0.8,1 27.8,-19 59.6,-44.4 l 58.2,-46.4 98.6,30.2 c 54.2,16.4 98.8,29.4 99.2,28.6 2.6,-7.8 4.4,-7.4 14.2,3.4 l 10,11 21.8,-21.6 21.8,-21.6 6.4,17 c 3.6,9.4 7.2,17.2 7.8,17.2 0.8,0 28,-9 60.8,-20.2 l 59.2,-20.2 18.2,7.4 18.2,7.2 167.6,-1.2 167.4,-1.2 38.8,12 c 21.4,6.6 39.6,11.6 40.6,11 0.8,-0.6 1.6,-2.4 1.6,-4 0,-5 3.4,-3 12.6,7.2 5,5.6 10,10 11,10 1.2,0 10.8,-9.4 21.4,-21 10.8,-11.6 20,-20.6 20.8,-20.2 0.6,0.4 4,8.2 7.2,17 3.2,9 6.6,16.2 7.6,16.2 0.8,0 35.8,-11.8 77.6,-26 l 76,-26.2 5.8,5 c 10.8,9 29,18.8 45,24.4 14.6,5 19.2,5.6 52.6,6.4 44.8,1 54,0 56.4,-6.8 l 2,-4.8 h 80.6 c 44.4,0 81.2,0.4 81.8,1 0.6,0.6 -0.6,9.4 -2.8,19.6 -2,10 -3.4,19.6 -3.2,21.2 0.4,2.2 33.4,9 133.6,27.4 73.2,13.4 134,24.4 135.2,24.6 1.4,0 3,-2 3.6,-4.6 z"
       id="path22" />
    <path
       d="m 3839.6,1180.2 c -46,-8.6 -84,-15.8 -84.4,-16.4 -0.6,-0.4 1.2,-10.8 3.8,-22.8 7,-32.2 9.8,-29 -23.6,-29 -31.6,0 -43.2,-2.4 -54.4,-10.8 l -6.8,-5.2 -0.6,7.4 -0.6,7.6 -58.4,0.6 -58.6,0.4 v -78.6 c 0,-43.4 -0.6,-97.8 -1.4,-121 l -1.2,-42.4 h -28.8 -28.6 v 67.8 c 0,51.8 0.6,68.2 2.6,69.6 1.2,1 7.6,3 14,4.4 7.8,1.8 11.4,3.4 11.4,5.6 0,1.6 -5.8,25.4 -13,53 -7.2,27.4 -13,50.2 -13,50.6 0,1.8 -37,0.8 -45.8,-1.2 -25,-5.6 -52.2,-27.6 -63,-50.4 C 3379,1047.6 3378,1038 3378,950.6 V 870 h -27 -26.8 l -1.4,10 -1.2,9.8 -17.4,0.6 -17.2,0.6 36.4,97 c 20,53.4 36.4,98 36.4,99.2 0.2,1.2 -23,10 -51.2,19.8 -28.4,9.6 -52.4,17.8 -53.6,18.2 -1,0.4 -6.4,-11.2 -11.8,-25.8 -5.4,-14.4 -10.6,-28.6 -11.6,-31.2 -1.8,-4.8 -3.2,-3.6 -32.6,25.8 l -31,31 -18.2,-19.6 c -10,-10.6 -18.8,-19.4 -19.6,-19.4 -0.8,0 -4.8,8.2 -9,18 -4.2,10 -8.4,18 -9.6,18 -1.8,0 -58,-16.8 -64.4,-19.2 -2,-0.8 -3.2,0.4 -3.6,3.6 l -0.6,4.6 h -59 -59 l -0.6,-14.6 -0.6,-14.8 -8.2,7.4 c -4.4,4.2 -13.2,9.6 -19.4,12.4 -20.2,9 -35.4,10.6 -100.8,10.6 -59.8,0 -60.4,0 -71,-5 -5.8,-2.6 -13.6,-7.2 -17.4,-10.2 l -6.8,-5.2 -46.6,16 c -25.6,9 -48,16.6 -49.8,17.4 -2.6,1 -5.4,-4.6 -14.8,-30 l -11.8,-31.2 -30.8,30.6 -30.6,30.6 -19.4,-20.6 -19.6,-20.8 -7.6,19.2 c -4.4,10.6 -8.8,19.2 -10,19.2 -3,0 -105,-31.2 -106.4,-32.6 -0.6,-0.6 17.4,-45 40,-99 22.6,-53.8 41.2,-98.4 41.2,-99 0,-0.4 -11.2,-1.2 -25,-1.8 -13.8,-0.6 -25.4,-1.4 -26,-2 -0.6,-0.4 0.4,-18.4 2,-39.8 1.6,-21.4 3.6,-47.2 4.2,-57.2 l 1.4,-18.6 46,-0.4 46,-0.6 10,-23.4 c 5.4,-13 10.8,-23.6 12,-23.6 1.2,0 24,8.2 50.6,18.2 l 48.4,18.4 -1.6,5.6 -1.8,5.8 h 37.8 37.6 l 1.8,-9.6 1.6,-9.4 98,-0.6 c 87.2,-0.4 99,0 107.2,2.8 12.4,4.6 26.4,15 33.8,25.2 l 6,8.2 v -12.2 c 0,-7 0.8,-12.4 2,-12.4 2.8,0 107.8,-15.8 113.6,-17 4.2,-1 4.4,-0.6 4.4,12 v 13 h 45.6 45.6 l 9.8,-24 c 5.4,-13.2 10.6,-24 11.8,-24 1.2,0 24,8.2 50.6,18.2 l 48.4,18.2 -1.2,5.8 -1,5.8 h 34 c 33.6,0 34,0 35.2,-4.6 0.6,-2.4 1.2,-6.8 1.2,-9.8 V 752 h 129.2 c 128.2,0 129,0 127.8,4 -0.8,2.8 -0.4,4 1.6,4 3.4,0 80.6,-11.6 87,-13 3,-0.8 4.4,-0.2 4.4,2 0,2.6 14,3 120,3 115.2,0 120.4,0.2 127.8,4 4.2,2 10.4,6.2 14,9 4.4,3.8 6.2,4.6 6.2,2.4 0,-2 3.8,-3.6 12.6,-5.2 64.6,-11.4 107.8,-18.4 108.6,-17.6 0.6,0.6 -0.4,13.4 -2,28.8 -8.2,74 -9.4,142.6 -2.6,162.6 10,29.8 19,44.6 29.8,49 4.8,1.8 14.2,3 24.6,3 h 17 V 868.8 749.6 l 11.6,1 c 37.4,3.8 356.4,6.4 356.4,3 0,-1 44,-1.6 98,-1.6 95.4,0 98.2,0.2 109.4,4.4 15.8,5.8 34.4,24.2 40.2,39.8 6.2,16.8 10.4,39.8 10.4,57.6 v 15.8 l -9.4,2.2 c -5.4,1 -25.2,5 -44,8.4 -19,3.6 -34.6,7.2 -34.6,8 0,0.6 18.8,19.6 41.6,42 49.6,48.4 51,50.8 51,84.8 0.4,52.2 -17.4,78.6 -61.6,92.4 -10.6,3.2 -19.6,3.6 -80,3.6 h -68.2 l -13.2,-6.6 -13,-6.8 -138.8,17.4 c -76.4,9.4 -141.4,17.4 -144.8,17.6 l -6,0.4 -1.6,-15 c -1,-8.2 -1.8,-15.2 -2,-15.4 -1.6,-1.4 -63.6,6.2 -79.2,9.6 -16.4,3.8 -22.8,4.2 -48,3.2 -69.4,-2.6 -105.4,-23.6 -134.6,-78.4 l -7.4,-14 -0.2,16.2 c 0,15.8 -5.8,41.2 -9.8,43.8 -1,0.6 -1.4,2.6 -0.8,4.8 0.4,2 -4.2,27.2 -10.6,56 -9.2,42.2 -12,52.2 -14.6,52 -1.8,-0.2 -40.8,-7.2 -86.6,-15.6 z m 77.2,-43.6 c 5.8,-26.4 6.2,-29.8 3.4,-31 -1.8,-0.8 -21.6,-5.4 -44.2,-10.2 l -41,-9 36,-0.2 c 40.6,-0.4 48.2,-2.2 57.6,-14.4 9.4,-12.4 9.6,-17 9,-143.8 l -0.6,-119 -6,-10.8 c -4,-7.2 -9,-12.8 -14.8,-16.6 l -9,-5.6 H 3799.6 3692 l -1,4.6 c -0.6,2.4 -4,17.4 -7.8,33.4 l -6.6,29 10.2,0.6 c 5.6,0.4 10.8,1.2 11.6,2 0.8,0.8 -4,4.6 -10.6,8.2 l -12,6.6 0.6,91.2 c 0.6,89.8 0.8,91.6 5.4,105.4 3.2,9.6 7,16.2 12.2,21.4 l 7.6,7.6 h 47.2 47.2 l -1,4.6 c -6,26 -10.8,52.2 -10,53 1.2,1.2 123.6,24 124.6,23.2 0.4,-0.2 3.6,-13.8 7.2,-30.2 z m 465.8,-46.4 c 60.2,-7.6 110,-14.2 110.4,-14.6 0.4,-0.4 -3.2,-15.8 -8.4,-34.2 -7.2,-26 -10,-33.4 -12.6,-33.4 -1.8,0 -30.2,3.2 -63.2,7 -32.8,3.8 -61.4,7 -63.2,7 -3.4,0 -3.6,-3.2 -3.6,-40 v -40 h 47.6 47.8 l 2.4,-22.4 c 1.4,-12.4 3,-26.4 3.6,-31 l 1.2,-8.6 h -51.4 -51.2 v -18 -18 h 65 65 v -32 -32 l -113,-0.4 -113,-0.6 v 33.6 33.6 l 31.8,-0.6 c 17.6,-0.4 31.4,-0.2 30.8,0.4 -0.4,0.6 -7.4,3.4 -15.2,6.2 l -14.4,5.2 -0.6,13.2 -0.6,13.2 -11.4,0.6 -11.4,0.6 -2.4,23 c -1.2,12.6 -2.8,26 -3.4,29.6 l -1,6.4 h 14.8 14.8 l -1,42.6 c -0.6,23.2 -1.4,43.4 -1.8,44.6 -0.4,1.2 -5.6,3 -11.8,3.6 -6.2,0.8 -11.6,2.2 -12,3 -0.8,1 5.4,63.4 6.6,67.8 0.2,0.2 3.6,0 7.8,-0.6 4,-0.8 56.8,-7.4 117,-14.8 z m -902.8,0.4 c 8.2,-30.2 14.2,-54 14.2,-55.8 0,-1.4 -2,-2.8 -4.6,-3.6 -8,-2 -15.4,-11.6 -17,-22.4 -0.8,-5.4 -1.2,-44.2 -0.8,-86.2 l 0.4,-76.6 36.6,-0.4 36.4,-0.6 4,-33.6 4.2,-33.4 H 3450 3346.8 l -3.2,32.4 c -1.8,18 -3,32.8 -2.6,33.2 0.4,0.4 19.6,0.6 42.6,0.4 23.2,0 42.6,0.6 43.2,1.6 0.6,1 -4.4,4.4 -10.8,7.4 l -12,5.8 v 88.4 c 0,81.4 0.4,89.4 3.8,100.6 7.2,23.4 25.2,40.8 48.4,47 18.2,5 21.4,4.4 23.6,-4.2 z m -834,-6.8 30,-10.2 -5.8,-15.2 c -4.8,-13.4 -69,-185.4 -71.4,-191.8 -0.8,-2 4.8,-2.6 23.8,-2.6 h 24.6 l 3.8,-27.4 c 2,-15.2 4,-30 4.6,-33 l 1.2,-5.6 h -45.2 -45.2 l 3,-10.2 c 1.8,-5.6 2.4,-11 1.4,-12 -0.8,-0.8 -13.2,-6 -27.6,-11.4 -22.8,-8.8 -26.2,-9.6 -27.6,-6.6 -0.8,1.8 -4.8,11.4 -9,21.2 l -7.6,18 -42.2,0.6 -42.2,0.4 -1.4,12.6 c -0.6,6.8 -1.8,21.6 -2.6,33 l -1.6,20.4 h 31.6 c 17.4,0 31.6,0.6 31.6,1.2 0,0.8 -19.4,47.6 -43.2,104.2 -23.8,56.6 -42.4,103.6 -41.6,104.4 3,2.4 56.8,18.4 58.6,17.4 0.8,-0.6 21.2,-47.8 45.4,-105 24,-57 44.4,-103 45,-101.8 0.6,1 18.6,48.6 40,105.6 21.4,57.2 39,104 39.2,104 0.2,0 13.8,-4.6 30.4,-10.2 z m 652.4,0.2 c 15.8,-5.6 29,-10.4 29.2,-10.8 0.4,-0.4 -16.4,-46.6 -37.4,-103 -21,-56.2 -37.6,-103 -37,-104.2 0.8,-1.2 11,-2 24.2,-2 12.6,0 22.8,-0.8 22.8,-1.6 0,-1 1.8,-14.6 4,-30.4 2.2,-15.8 4,-30 4,-31.4 0,-2 -9,-2.6 -44,-2.6 -24.2,0 -44,-0.8 -44,-1.6 0,-1 1.2,-6 2.8,-11.2 l 2.8,-9.4 -5.2,-2 C 3192.6,763 3173,756 3171,756 c -1.4,0 -6.4,9.4 -11,21 l -8.6,21 h -42.4 -42.4 l -1.4,15.6 c -0.6,8.4 -1.8,23.2 -2.4,32.8 l -1.4,17.4 32,0.6 32,0.6 -43.8,103.8 c -23.8,57.2 -43.2,104.4 -42.6,104.8 0.8,1 57,18.4 59.2,18.4 0.6,0 20.8,-46.8 44.8,-104 24.2,-57.2 44.4,-104 45.2,-104 0.6,0 18.4,46.6 39.8,103.6 39.2,105 39.8,106.4 41,106.4 0.4,0 13.6,-4.6 29.2,-10 z m 838.8,6.2 c 5.4,-1 6.4,-2.6 10.6,-16.2 7.4,-24.2 8.2,-24.6 8.2,-6.4 0.2,16.2 0.2,16.4 5.2,16.4 5.2,0 37.2,-3.2 52.6,-5.2 l 8.4,-1 V 929 780.4 l -27.4,-1.4 c -15.2,-0.6 -30,-1.6 -33,-2 l -5.6,-0.6 V 893 1009.6 l -10.4,1.2 c -38.4,4.2 -56.2,3 -71.8,-4.8 -20.4,-10.6 -38.8,-48.4 -44,-90.6 -2.6,-20.4 -1.2,-65.4 3.2,-111.8 1.4,-15.8 2.4,-28.8 2.2,-29.2 -1,-0.8 -64.6,10 -67,11.6 -4.2,2.4 -6.6,44.2 -5.6,92 1.6,63.8 6.8,95.2 22.6,132.6 21.6,51.8 49.2,72.8 103.2,79.2 17.4,2 40.2,2.2 48.6,0.4 z m -1588.2,-34 32,-32 -17.8,-19.2 -17.6,-19.2 -27.8,27.6 c -15.4,15.2 -29.6,30 -31.8,33 l -4,5.6 16.6,18 c 9,9.8 17,18 17.6,18 0.6,0 15.4,-14.4 32.8,-31.8 z m 652,0 31.8,-32 -6.6,-7.6 c -3.6,-4.2 -11.4,-12.6 -17,-19 l -10.4,-11.2 -32.4,32.4 -32.4,32.6 16.6,18 c 9.2,10 17,18.4 17.6,18.4 0.6,0.2 15.4,-14.2 32.8,-31.6 z m -323.6,25.6 c 11.4,-3.4 15.6,-6 24,-14.8 8.4,-8.4 10.8,-12.6 12.6,-21.2 4.4,-20 5,-36.2 1.4,-48 C 2912,986 2906.4,980.2 2787,863.4 l -22,-21.6 36,0.6 c 39.6,0.6 47.6,2.8 50.2,12.6 0.6,2.8 2.2,5 3.4,5 1.2,0 14.8,-2.4 30,-5.4 l 27.8,-5.6 -1,-11 c -0.8,-6 -3.2,-17.4 -5.6,-25 -3.4,-11.2 -6,-15.8 -13.6,-23 -5.4,-5.2 -12.6,-10.2 -17.4,-11.6 -6,-1.8 -31.4,-2.4 -91.6,-2.4 -45.8,0 -83.2,0.2 -83.2,0.6 0,0.2 -2.6,14 -6,30.4 -3.2,16.6 -6,31 -6,32.4 0,1.8 6,2.6 20.2,3 l 20.4,0.6 -16.2,12.8 -16.2,12.6 54.4,53.2 c 85.6,83.6 89.8,88 89,91.8 -0.6,3.2 -4,3.6 -36.8,4.2 -34,0.4 -36.4,0.2 -41.4,-3.6 -3,-2.4 -6.2,-7.8 -7.4,-12.2 -1.2,-4.2 -3,-7.8 -4,-7.8 -2,0 -58.2,19.6 -59.4,20.8 -1.2,1.2 7.8,28 12.6,37.8 6.2,12.2 17.4,24.6 26.6,29.4 6.6,3.6 12.4,3.8 70.4,4 58.8,0 64.4,-0.4 77,-4.2 z M 3018,931 c 0,-103.6 -0.6,-155 -2,-155 -1.8,0 -44.2,6.4 -59.4,9 l -6.6,1.2 V 936 1086 h 34 34 z m 630.4,118.6 c 0.4,-48.4 -0.8,-272.4 -1.4,-273.2 -0.4,-0.4 -40.6,5.2 -60.4,8.6 l -6.6,1.2 V 936 1086 h 34 34 z m 1043.4,33.4 c 21,-5.6 35.2,-17.8 40.4,-34.8 1.2,-4 2.6,-15.2 3.2,-25.2 2,-32.2 6.2,-26.2 -77,-108.6 L 4585,842 l 36,0.4 c 39.4,0.6 45,2.2 49,12.8 1,2.6 3,4.8 4.4,4.8 1.4,0 14.6,-2.4 29.2,-5.2 l 26.4,-5.4 V 841 c 0,-12.6 -7,-36.8 -13.4,-45.8 -3.4,-4.8 -10,-10.2 -16.4,-13.6 l -10.6,-5.6 h -85.4 -85.4 l -5.6,29.6 c -3,16.2 -6,31 -6.4,32.8 -1,3 1.2,3.6 19.6,4 l 20.6,0.6 -15.4,12 c -8.4,6.6 -15.4,12.6 -15.4,13.2 -0.2,0.8 31.8,32.6 70.8,71 54.4,53 71,70.4 70.6,73.6 -0.6,4 -1.8,4.2 -36.4,4.8 -41,0.6 -43.4,-0.2 -47.4,-14 -1.4,-4.8 -2.8,-9 -3,-9.4 -0.4,-0.2 -14.4,4 -31.6,9.8 l -31,10.2 3,10.4 c 4,13.8 13.8,34.8 20.2,43 2.8,3.8 9.2,9.4 14.2,12.6 l 9.2,5.8 h 63 c 48.6,0 65.8,-0.8 74,-3 z M 4252,990 c 0,-18.2 -0.6,-22 -3,-22 -2.4,0 -3,3.8 -3,22 0,18.2 0.6,22 3,22 2.4,0 3,-3.8 3,-22 z M 2714.6,921.6 C 2671.2,878.2 2671,878 2669.4,884 c -1.4,5.8 -1.6,5.8 -18.2,6.4 l -16.8,0.6 19.2,51.2 19,51.2 42.6,-14.2 42.8,-14.2 z m 1711,66.4 c 28.4,-3.2 55.2,-6.4 59.8,-7 8,-1.2 8.2,-1 9.6,5 0.8,3.4 2,6 3,5.6 0.8,-0.4 18.6,-6.4 39.8,-13.6 21,-7.2 38.2,-13.4 38.2,-14 0,-0.6 -21.8,-22.2 -48.4,-48 -36.6,-35.4 -49.6,-46.8 -52.8,-46.4 -4.4,0.6 -4.4,-0.4 -13,78 l -2.4,20.4 h -46.6 -46.8 v 13 c 0,11.8 0.4,13 4.2,13 2.2,0 27.2,-2.6 55.4,-6 z m 180.4,5.4 c 0,-0.4 -2.2,-2.8 -5,-5.4 -5,-4.6 -5,-4.6 -5,-0.4 0,2.6 1.6,4.4 4.6,5 2.4,0.4 4.6,1 5,1.2 0.2,0 0.4,0 0.4,-0.4 z m -1823.8,-5.6 c -5.2,-4.4 -7,-4 -5,1 0.6,1.8 3.2,3.2 5.6,3.2 4.2,-0.2 4.2,-0.2 -0.6,-4.2 z M 3068.4,936 c 10,-23.6 18.4,-43.8 18.8,-45 0.6,-1.2 -7.2,-2 -21.2,-2 h -22 v 52 c 0.2,48.4 0.4,51.6 3.2,45 1.8,-3.8 11.2,-26.4 21.2,-50 z m -531.6,19.4 c -2,-5.4 -4.2,-4 -7.6,4.6 -4.4,11.2 -4,11.8 2.8,4.8 4.2,-4 5.8,-7.2 4.8,-9.4 z M 3189,954 c -1.8,-5.4 -3.4,-3.8 -7.8,8 l -3.4,9 6.2,-6.2 c 5,-4.8 6.2,-7.4 5,-10.8 z m -265.4,-81.2 c -0.6,-0.4 -68.4,12.6 -73,14.2 -1.4,0.4 14.4,17.4 35,37.8 l 37.4,37 0.6,-44.2 c 0.2,-24.4 0.2,-44.4 0,-44.8 z"
       id="path24" />
    <path
       d="M 3744,944.4 V 844 h 63 63 v 87 87 l -55.4,0.4 -55.6,0.6 -6,11.4 c -3.4,6.2 -6.8,12 -7.6,12.8 -0.8,0.8 -1.4,-43.6 -1.4,-98.8 z M 3846,932 v -61.8 l -38,-0.6 -38,-0.6 v 62.6 62.4 h 38 38 z"
       id="path26" />
    <path
       d="m 2151.6,1099.6 c -18,-24.4 -33.2,-45.2 -33.8,-46.2 -0.8,-1.2 -10,5.4 -20.4,14.6 -10.6,9.2 -25.8,21 -33.8,26.4 -17.2,11.6 -52,31.6 -54.8,31.6 -1.2,0 -7.6,-6.4 -14.6,-14.2 -7,-7.8 -13.4,-13.4 -14,-12.4 -0.6,1 -18.8,3.4 -40.2,5.4 -21.4,2 -46.2,5.4 -55,7.6 -13.6,3.4 -20.4,3.8 -46,3 -58.6,-2 -92.6,-16.6 -118.2,-50.8 -28.4,-37.6 -44.8,-90 -49.6,-158.6 -0.6,-8.2 -1.2,-15.2 -1.2,-15.4 0,-0.4 -6.8,-0.6 -15,-0.6 h -15 l 5.2,13.6 c 25.8,68.2 68.8,185 68.4,185.4 -0.4,0.2 -23,8.2 -50.6,17.6 -27.4,9.4 -51.4,17.6 -53.2,18.4 -2.4,1 -5.4,-5 -14.8,-30.2 l -11.6,-31.2 -30.8,30.8 -30.8,30.6 -19.4,-20.6 -19.4,-20.8 -7.8,19.2 c -4.2,10.6 -8.8,19.2 -10,19.2 -1.2,0 -18.2,-4.8 -37.6,-10.8 l -35.6,-10.8 -132.4,16.8 c -72.8,9.2 -132.6,16.4 -133,16 -0.6,-0.4 -12.6,-110.6 -12.6,-115 0,-1 6.4,-3 14,-4.2 l 14,-2.4 V 989.8 968 h -15 c -10.6,0 -15,-0.8 -15,-2.4 0,-1.4 2.2,-22 5,-45.6 2.8,-23.6 5,-44.6 5,-46.4 0,-3.2 -2.8,-3.6 -30.8,-3.6 h -31 l -0.6,67.6 c -0.4,52.2 0,68 2,69.6 1.2,1.2 7.8,3.4 14.4,4.8 10.6,2.2 11.8,3 10.8,6.8 -0.6,2.2 -6.6,26.2 -13.6,53.2 l -12.6,49 h -23.8 c -23.2,0 -24.2,-0.2 -38.8,-7.2 -8.2,-4 -19,-10.8 -23.8,-15 -11.4,-10 -23.2,-28.2 -28.6,-44.6 -4.2,-12.6 -4.4,-17.2 -5.2,-98.6 L 939.6,870 h -26.4 -26.6 l -1.4,10 -1.4,10 h -17 c -16.6,0 -17,0.2 -15.6,4.4 0.6,2.4 17,46.2 36,97.4 19.2,51.2 34.8,94 34.8,95.4 0,1.8 -92,34.8 -103.8,37.2 -1.6,0.4 -5.8,-8.2 -12.4,-25.4 -5.4,-14.2 -10.8,-28.2 -12,-30.8 -2,-4.8 -3,-4 -32.6,25.6 l -30.8,30.6 -13.8,-14.6 c -7.8,-8.2 -16.2,-17.4 -19,-20.6 l -5,-5.8 -7.8,18.6 c -4.2,10.2 -8.8,18.8 -10,19.4 -1.2,0.4 -17.2,-3.8 -35.2,-9.2 -18.2,-5.6 -33.6,-10.2 -34,-10.2 -0.6,0 -1.6,1.8 -2.2,4 -1,4 -2.8,4 -131.2,4 -71.6,0 -130.2,-0.4 -130.2,-1 0,-0.6 2.8,-19.2 6,-41.4 7.2,-48.2 7.2,-47.6 1.8,-47.6 -4,0 -4.2,-0.6 -2.8,-15 l 1.4,-15 -9.8,4.6 c -9,4.2 -12.8,4.4 -63,5 l -53.6,0.8 v 21.4 c 0,24.6 -3.2,39.6 -12.4,56.8 -14,26 -38.6,35.2 -93.8,35.4 H 92.6 l -1.4,-10.6 c -0.6,-6 -1.2,-32.2 -1.2,-58.2 l 0.2,-47.6 7.8,1.4 8,1.4 V 934.2 868 H 93.8 C 82.2,868 81.6,867.8 82.6,863.6 83.4,861 88.4,837 93.8,810 99.4,783 104.4,759 105,756.4 l 1.2,-4.6 108.4,0.6 108.4,0.6 12.2,5.6 c 14.4,6.8 25.2,17 31.8,30.6 l 4.8,9.8 0.2,-23.4 V 752 h 59 59 v 81 81 h 20 c 23.6,0 21.6,-5 16,41 -2.2,17.6 -4,32.4 -4,33 0,0.6 19.6,0.8 43.4,0.6 l 43.6,-0.4 20.4,-48.6 c 11.4,-26.8 20.6,-49 20.6,-49.6 0,-0.6 -11.2,-1 -24.8,-1 -13.6,0 -25.6,-0.6 -26.2,-1.4 -1.4,-1.2 3.4,-78.8 6.4,-105.2 l 1.2,-10.4 h 45.4 45.4 l 10.4,-24.8 10.4,-24.8 36.4,13.8 c 20,7.6 42.6,16.2 50,19 13.2,5 13.6,5.4 12.4,11 l -1.4,5.8 34.8,-0.4 34.6,-0.6 0.6,-9.6 0.6,-9.4 h 67.6 c 37.2,0 150,0.6 250.8,1.4 l 183.4,1.2 -0.4,57.2 -0.6,57.2 h -12.6 c -14.6,0 -12.4,-5.8 -18.4,48 -2.2,19.8 -4.6,39.4 -5.2,43.6 l -1.2,7.4 h -45.8 -45.8 v 13 c 0,11 0.6,13 3.6,13 1.8,0 29.8,-3.2 62.2,-7 32.4,-3.6 59.6,-6.4 60.2,-6 0.8,0.4 2.6,5.8 4,12 1.4,6 3.2,11 4,11 1.2,0 48,-109.6 48,-112.6 0,-0.8 -7.6,-1.4 -16.8,-1.4 -9.2,0 -20.8,-0.6 -26.2,-1.2 l -9.4,-1.4 1.2,-8.2 c 0.4,-4.6 2.6,-30.4 4.4,-57.6 l 3.6,-49.6 46,-0.4 46,-0.6 10,-23.4 c 5.4,-13 10.8,-23.6 11.8,-23.6 1.2,0 24,8.2 50.6,18.2 l 48.4,18.4 -1.6,5.6 -1.8,5.8 h 35 c 32.6,0 34.8,-0.2 34.8,-3.8 0,-2.4 1.8,-4 5.6,-4.8 20,-4 114.8,-19.8 115.4,-19.2 0.4,0.4 -0.6,12 -2,25.8 -5.2,46 -7.2,78.8 -7.2,114 0,31.6 0.6,36.6 5.2,52.6 5.6,19.2 8.6,26 17.4,38.8 7,10.2 13.8,12.6 37.2,12.6 H 1864 V 868.8 749.4 l 9.6,1.2 c 5.2,0.6 31.2,2.4 58,3.6 l 48.4,2.6 v 7.6 c 0,4.2 0.6,7.6 1.2,7.6 0.6,0 11.6,-8.2 24.2,-18.2 12.8,-10.2 24.2,-18.4 25.6,-18.6 1.4,0 22.4,26.8 47,59.8 24.4,33 45.2,60.2 46,60.6 2.8,1 27.8,-51.8 39,-82.6 7,-19.6 11.6,-29.8 13.4,-29.4 4.4,0.8 104.6,40.8 106.2,42.4 2.2,2 -14.4,44.2 -29.4,73.8 -13.6,27.2 -33.4,60.2 -48,80.4 l -9,12.4 7.4,10.2 c 4,5.6 23.2,31.6 42.8,57.6 l 35.4,47.4 -47.8,38 c -26.2,21 -48.2,38.2 -48.8,38.2 -0.4,0 -15.6,-20 -33.6,-44.4 z M 2219,1086 c 14.8,-11.6 26.8,-21.6 27,-22.6 0,-0.8 -18.4,-26 -40.6,-56.2 l -40.8,-54.6 4.8,-5.8 c 9.6,-11.4 42.4,-62.2 53.2,-81.8 14.2,-26 30.2,-63 28,-65 -2.6,-2.2 -60.4,-24.8 -61.4,-23.8 -0.4,0.4 -5,11.6 -10.2,24.8 -5.2,13.2 -14.2,33.4 -20.2,45 -11.8,22.6 -31,54 -33,54 -0.6,0 -23,-29.4 -49.8,-65.4 -26.6,-36.2 -48.6,-65.6 -49,-65.6 -0.4,0 -12.4,9.4 -27,20.8 -16.4,13 -25.8,21.6 -25.2,23.2 0.6,1.6 23.8,33.2 51.8,70.4 27.8,37.2 51.4,68.8 52.2,70.2 3.8,6.2 -44.4,46.8 -100.4,84.4 -5.6,3.8 -10.4,7.6 -10.4,8.6 0,0.8 10.2,12.2 22.6,25.4 l 22.4,23.8 11,-6.2 c 25,-14 48.2,-31.6 70.8,-54.2 13,-13 24.4,-22.8 25,-21.8 9,14 69.4,94.4 70.8,93.8 0.8,-0.2 13.6,-9.8 28.4,-21.4 z m -945.4,4.2 c 59.8,-7.6 109.2,-14.4 109.8,-15 1.2,-1.2 -15.2,-63.2 -17.6,-66 -0.8,-1 -28.6,1.4 -64.2,5.6 -34.4,4 -64.2,7.2 -66.2,7.2 -3.2,0 -3.4,-2.8 -3,-39.4 L 1233,943 h 47.6 c 30.2,0 47.4,-0.8 47.4,-2 0.2,-1 1.8,-15.2 3.8,-31.4 l 3.4,-29.6 h -51.6 -51.6 v -18 -18 h 65 65 v -32 -32 h -112 -112 v 33.2 33 l 30,-0.6 c 28.4,-0.6 35.6,0.4 25.6,3.6 -2.6,0.6 -9.4,3 -15,5.2 l -10.6,3.8 v 13 12.8 h -11 c -6,0 -11,0.6 -11,1.6 0,0.8 -1.4,13.2 -3,27.4 -1.6,14.4 -3,27.2 -3,28.6 0,1.6 4.2,2.4 14,2.4 h 14 l -0.4,44.6 -0.6,44.4 -12.4,1.8 c -14.8,2 -14.2,-0.6 -9.6,40.2 1.6,14.4 3,27.2 3,28.6 0,2 2.2,2.4 8.6,1.4 4.6,-0.6 57.2,-7.4 117,-14.8 z M 1048.4,1069 c 4,-15.4 7.4,-29.8 7.4,-32 0,-2.6 -2.2,-5 -6.2,-7 -3.6,-1.6 -8.2,-5.6 -10.4,-8.6 -4,-5.6 -4.2,-8.4 -4.8,-90.6 l -0.6,-84.8 h 36.8 36.8 l 3.4,-28.4 c 1.8,-15.8 3.8,-31 4.4,-34 l 1.2,-5.6 h -103.2 c -56.8,0 -103.2,0.2 -103.4,0.6 0,0.2 -1.6,15 -3.6,33 -3,29 -3,32.4 -0.2,32.4 1.6,0 21.8,0.2 44.6,0.2 22.8,0 41.2,0.6 40.6,1.4 -0.4,0.8 -6.4,4.2 -13.2,7.4 l -12.2,5.8 0.6,91.2 c 0.6,89.4 0.6,91.2 5.2,102.2 10.4,25.6 40,46.8 63.4,45.2 5.8,-0.4 6,-0.6 13.4,-28.4 z M 860,1084.2 c 13.8,-4.6 26.2,-9 27.8,-10 2.2,-1.4 -4.4,-21.4 -35.6,-104.6 -21,-56.4 -38.2,-103.4 -38.2,-104.2 0,-0.8 10.4,-1.4 23.2,-1.2 12.6,0 23.6,-0.2 24.2,-0.8 0.6,-0.6 3,-15.6 5.4,-33.2 L 871.2,798 H 826.6 782 l 1.2,-5.4 c 0.8,-3.2 2.2,-7.8 3.2,-10.4 1,-2.6 1,-5.6 0.2,-6.4 -0.8,-0.8 -13.6,-6 -28.2,-11.4 -23.4,-8.8 -26.8,-9.6 -28,-6.8 -0.6,2 -4.6,11.6 -8.6,21.4 l -7.6,18 -42.8,0.6 -42.8,0.4 -1.4,23.6 c -0.8,12.8 -2,27.6 -2.6,33 l -1.2,9.4 h 32.4 c 17.6,0 32.2,0.2 32.2,0.6 0,0.2 -19.8,47.2 -43.8,104.4 -28.8,68.6 -43,104.4 -41.4,105.2 6,3.6 58,17.8 59.2,16.4 0.8,-0.8 20,-46.2 43,-100.6 22.8,-54.4 42.6,-101 43.8,-103.4 2,-4 7.2,8.6 42,101.6 23.8,63.4 40.6,105.6 42,105.2 1.2,-0.4 13.4,-4.6 27.2,-9.2 z m 792,-0.4 29.8,-10.2 -6,-16.4 c -3.2,-8.8 -20.6,-55.4 -38.6,-103.2 -17.8,-47.8 -32.2,-87.6 -31.8,-88.4 0.4,-1 11.4,-1.6 24.4,-1.6 h 23.4 l 3.6,-26.4 c 1.8,-14.6 4,-29.6 4.6,-33 l 1,-6.6 h -45 -45 l 2.8,-9.4 c 1.6,-5 2.8,-10.2 2.8,-11.4 0,-1.2 -6.6,-4.6 -14.4,-7.4 -8,-3 -20.6,-7.6 -27.8,-10.4 l -13,-5 -9,21.4 -8.8,21.2 -42.2,0.6 -42.2,0.4 -1.2,10.6 c -0.8,5.6 -2,20.6 -2.6,33 l -1.4,22.4 h 31.6 c 29,0 31.4,0.2 30.4,3.6 -0.4,1.8 -20,48.8 -43.4,104.2 -23.2,55.4 -41.6,101.4 -40.6,102.2 2,1.8 58.6,18.8 59.4,17.8 0.2,-0.4 20.2,-47.8 44.4,-105.2 24,-57.4 44.4,-103.6 45,-103 0.6,0.8 18.6,48.4 40,105.8 21.4,57.6 39.2,104.6 39.4,104.6 0.4,0 14.2,-4.6 30.4,-10.2 z m 218.4,6.2 c 4,-1.2 7.8,-3.6 8.4,-5.6 6.2,-21.8 9.4,-32.4 9.8,-32.4 0.4,0 0.2,6 -0.2,13.6 -0.8,19.6 -1.2,19.4 26.8,16.6 13.2,-1.4 27.6,-2.8 32.4,-3.6 l 8.4,-1 -0.4,-148.8 L 1955,780 h -8 c -8,0 -35.2,-1.6 -49.4,-2.8 l -7.6,-0.6 -0.4,116 -0.6,116.2 -7,1.6 c -3.8,1 -18.2,1.8 -32,2 -19.6,0.4 -27.2,-0.4 -35.4,-3.2 -19.2,-6.4 -35.8,-30.6 -46.6,-67.2 -6.2,-21.6 -7.4,-66.8 -3.2,-120 1.8,-22.6 3.8,-42.6 4.4,-44.4 1.4,-4.6 2.2,-4.6 -36,2 -29.6,5.2 -32,6 -33.8,10.4 -3,7.8 -4.2,106.4 -1.6,132.4 4.6,44 12.8,73.2 29.8,106.2 15.8,31 37.2,48.6 68.8,56.6 23.2,6 60.8,8.4 74,4.8 z M 161,1084.8 c 15.2,-3.6 20.6,-7.6 27.4,-19.8 8.6,-16 10.2,-30 9,-81.6 -1.2,-52.2 -2,-50.8 12.8,-23.8 l 8,14.4 h 52.6 c 50.4,0 52.6,-0.2 61.2,-4.4 6,-3.2 10,-7.2 12.8,-12.6 4,-7.4 4.2,-12 4.8,-70 0.4,-34 0.2,-66.6 -0.6,-72.2 -1.8,-14.4 -9.6,-25.8 -21.8,-31.8 l -10,-5 h -95.4 -95.4 l -3,13.6 c -5.8,25.8 -10,48.6 -9,49.4 0.6,0.6 11.6,1.6 24.6,2.6 l 23.6,1.4 -16.2,9 -16.4,9 v 74 c 0,79.2 -0.8,87.6 -9.2,91.4 -4.8,2.2 -4.8,2.4 -4.8,31.8 v 29.4 l 16.6,-1 c 9,-0.4 21.8,-2.2 28.4,-3.8 z m 603.6,-28.4 31.6,-31.6 -17.4,-19.6 -17.6,-19.4 -32.6,32.6 -32.6,32.4 7.6,8.2 c 17.4,18.8 27.4,29 28.4,29 0.6,0 15.2,-14.2 32.6,-31.6 z m 790.2,-0.2 31.8,-32 -14,-15.6 c -23.4,-25.8 -18.8,-25.4 -40.8,-3 -10.4,10.6 -24.6,25.4 -31.6,32.8 l -12.8,13.4 16.8,18 c 9.2,10 17.2,18 17.8,18.2 0.6,0 15.4,-14.4 32.8,-31.8 z m -974.6,27.4 c 0,-1.4 1.6,-17.6 3.6,-36 l 3.4,-33.6 H 526.6 466 v -10 -10 h 14.8 14.8 l 1,-6.4 c 2.8,-15.8 5.8,-45.8 4.8,-46.8 -0.6,-0.6 -7.2,-1.2 -14.6,-1 -7.6,0 -15.8,-0.4 -18.2,-1 L 464,937.6 V 856.8 776 h -34 -34 v 80.8 c 0,88.6 0.8,83.2 -11.8,83.2 h -5.4 l -2.4,22.8 c -3.6,33.4 -4.2,30.8 8.2,31.6 l 10.4,0.6 0.6,9.4 0.6,9.4 -7.6,0.6 -7.6,0.6 -4.4,29 c -2.4,16 -4.4,32 -4.4,35.6 l -0.2,6.4 h 104 c 81.8,0 104,-0.6 104.2,-2.4 z m 1427,-96.8 c 12,-9 26.2,-20.4 31.2,-25.2 l 9.4,-8.6 -34,-44.8 -33.8,-44.8 v 71.4 c 0,56.6 0.6,71.2 2.6,70 1.2,-0.8 12.4,-8.8 24.6,-18 z M 750.8,954 c -1.6,-3.8 -2.4,-3.2 -6.4,6.4 l -4.4,10.6 6.4,-6.4 c 5.2,-5.2 6,-7.2 4.4,-10.6 z m 791.4,-0.2 c -1.8,-4.6 -2,-4.4 -6,4.8 -5.6,12.8 -5.4,13.4 1.8,6.2 5.2,-5 5.8,-6.8 4.2,-11 z"
       id="path28" />
    <path
       d="m 195.6,873.8 c -0.4,-15.4 -0.2,-28.6 0.2,-29 0.4,-0.4 20,-0.8 43.6,-0.8 h 42.8 l -0.6,28.6 -0.6,28.4 -42.4,0.6 -42.4,0.4 z M 256,872 c 0,-3.8 -1.4,-4 -18,-4 -16.6,0 -18,0.2 -18,4 0,3.8 1.4,4 18,4 16.6,0 18,-0.2 18,-4 z"
       id="path30" />
    <path
       d="m 2288.4,993.2 -30.4,-40.8 14.4,-23.6 c 18.6,-31 42.6,-80.4 55.8,-116.2 5.8,-15.6 10.8,-28.2 11.2,-27.8 0.2,0.2 -0.4,10.8 -1.4,23.4 -1,12.6 -3.4,41.2 -5,63.8 -1.6,22.6 -3.6,46.6 -4.2,53.6 l -1.2,12.4 h 16.2 c 8.8,0 16.2,0.4 16.2,0.8 0,1.6 -38.4,92.4 -39.8,93.6 -0.6,0.8 -15,-16.8 -31.8,-39.2 z m 36.4,-13 c 5,-12 9.2,-22.2 9.2,-23 0,-0.6 -5.4,-1.2 -12,-1.2 h -12.2 l 1.2,-14.4 c 3.4,-40.8 4,-54 2.6,-51.4 -1,1.6 -8,13.8 -15.6,27.4 -7.6,13.4 -15.2,26.6 -17,29 -2.8,4.4 -2.2,5.6 15.6,29.8 10,14 18.6,25.4 18.8,25.4 0,0.2 4.4,-9.6 9.4,-21.6 z"
       id="path32" />
  </g>
</svg>
