<?xml version="1.0" encoding="UTF-8" standalone="no"?>
<svg
   version="1.0"
   width="3644"
   height="718"
   viewBox="0 0 3644 718"
   preserveAspectRatio="xMidYMid meet"
   id="svg116"
   sodipodi:docname="auto-demo-fr.svg"
   inkscape:version="1.1.2 (0a00cf5339, 2022-02-04, custom)"
   xmlns:inkscape="http://www.inkscape.org/namespaces/inkscape"
   xmlns:sodipodi="http://sodipodi.sourceforge.net/DTD/sodipodi-0.dtd"
   xmlns="http://www.w3.org/2000/svg"
   xmlns:svg="http://www.w3.org/2000/svg">
  <defs
     id="defs120" />
  <sodipodi:namedview
     id="namedview118"
     pagecolor="#ffffff"
     bordercolor="#666666"
     borderopacity="1.0"
     inkscape:pageshadow="2"
     inkscape:pageopacity="0.0"
     inkscape:pagecheckerboard="0"
     showgrid="false"
     inkscape:zoom="0.29319803"
     inkscape:cx="1823"
     inkscape:cy="361.5304"
     inkscape:window-width="1920"
     inkscape:window-height="1017"
     inkscape:window-x="-8"
     inkscape:window-y="-8"
     inkscape:window-maximized="1"
     inkscape:current-layer="svg116" />
  <g
     fill="#5801ff"
     id="g18"
     transform="translate(-1,-1)">
    <path
       d="M 40.2,646.8 1,607.6 V 343.8 80 h 223 223 l 79.5,79.4 79.5,79.4 V 422.4 606 h -40 -40 v 40 40 H 302.7 79.4 Z M 458,578 v -40 h 40 40 V 381.7 225.4 L 519.4,206.7 500.8,188 H 479.4 458 V 166.7 145.4 L 439.3,126.7 420.6,108 H 224.3 28 V 344 580.1 L 46.8,599 65.5,618 H 261.8 458 Z"
       id="path2" />
    <path
       d="M 219,363 V 219 h 64 64 v 144 144 h -64 -64 z m 97,18.5 V 287 h -15 -15 v 94.5 94.5 h 15 15 z"
       id="path4" />
    <path
       d="m 909.4,684.7 c -0.6,-0.7 -18.2,-18.2 -39,-38.9 -20.9,-20.7 -56,-55.8 -78.2,-78 L 752,527.5 V 423.8 320 h 40 40 v -40 -40 h 15.5 c 8.5,0 15.5,-0.2 15.5,-0.4 0,-0.2 -7,-7.3 -15.5,-15.7 L 832,208.5 V 144.3 80 h 40 40 V 40.5 1 h 103.8 103.7 l 37.7,37.8 c 20.7,20.7 38.4,38.5 39.2,39.4 1.4,1.5 1.6,8.4 1.4,65 l -0.3,63.3 -39.7,0.3 -39.8,0.2 v 15 15 h 2.5 c 1.9,0 5.9,3.4 16.4,13.8 12.3,12.3 13.9,14.3 14.3,17.9 0.5,3.7 2.5,6 23.9,27.2 12.9,12.8 26.9,26.7 31.1,30.9 4.2,4.2 8.1,8.2 8.7,8.7 0.6,0.6 5,5 9.8,9.9 4.9,4.9 18.6,18.7 30.6,30.7 L 1277,398 v 39 39 h 2.8 c 2.2,0 5.5,2.9 16.9,14.3 12.5,12.6 14.2,14.7 14.5,18 0.3,3.4 2.4,5.8 23.1,26.5 l 22.7,22.8 V 621.8 686 H 1133.8 C 960.2,685.9 910.2,685.7 909.4,684.7 Z M 1289,581 V 544 L 1270.5,525.5 1252,507 h -101 -101 v -20.7 c 0,-11.5 -0.3,-21.7 -0.6,-22.8 -0.3,-1.2 -1.5,-2.5 -2.7,-3 -1.2,-0.6 -2.3,-2 -2.5,-3.2 -0.2,-1.4 -1,-2.3 -2.1,-2.3 -2.6,0 -4.1,-2.1 -4.1,-5.7 0,-3.1 0.2,-3.3 3.3,-3.3 3.6,0 5.7,1.5 5.7,4.1 0,1.1 0.9,1.9 2.3,2.1 1.2,0.2 2.6,1.3 3.2,2.5 0.5,1.2 1.8,2.4 3,2.7 1.1,0.3 36.3,0.6 78.3,0.6 H 1210 V 421.7 385.4 L 1190.8,366.2 1171.6,347 H 1150.8 1130 V 326.2 305.4 L 1111.5,287 c -10.2,-10.2 -19.3,-18.8 -20.2,-19.2 -1,-0.3 -53.7,-0.7 -117,-0.7 L 859,267 v 40 40 h -40 -40 v 76.5 76.4 l 18.9,19.1 18.9,19 h 21.1 21.1 v 21.1 21 l 18.8,18.9 18.7,18.9 h 196.3 L 1289,618 Z M 1050,179 v -40 h 40 40 V 102.4 65.8 L 1111.1,46.9 1092.2,28 H 1015.6 939 v 40 40 h -40 -40 v 36.6 36.6 l 18.8,18.8 18.7,18.9 h 76.8 l 76.7,0.1 z"
       id="path6" />
    <path
       d="m 1023.7,438.3 c -0.4,-0.3 -0.7,-1.7 -0.7,-3 0,-1.8 -0.5,-2.3 -2.6,-2.3 -1.7,0 -2.8,-0.7 -3.1,-1.8 -0.8,-3.4 -6,-4.2 -27.1,-4.2 H 970 V 402.5 378 h 24.5 24.5 v 20.8 c 0,21.6 0.6,25.6 4.2,26.6 1.1,0.2 1.8,1.4 1.8,2.9 0,2.1 0.6,2.6 2.8,2.9 2.3,0.3 2.7,0.8 3,4.1 0.3,3.6 0.2,3.7 -3.1,3.7 -1.8,0 -3.7,-0.3 -4,-0.7 z"
       id="path8" />
    <path
       d="M 1463.2,646.7 1424,607.5 V 383.7 160 h 143.4 143.4 l 15.3,15.5 c 8.5,8.5 15.7,15.5 16.2,15.5 0.4,0 0.7,-7 0.7,-15.5 V 160 h 103.6 103.6 l 79.4,79.4 79.4,79.3 -0.2,183.4 -0.3,183.4 -107,0.3 -107,0.2 -12.5,-12.6 -12.5,-12.5 -0.3,12.5 -0.3,12.6 h -67 -67 L 1723,674 c -6.6,-6.6 -12.2,-12 -12.5,-12 -0.2,0 -0.6,5.3 -0.7,11.8 l -0.3,11.7 -103.5,0.3 -103.5,0.2 z M 1642,458.5 V 299 h 24 24 v 140.4 140.3 l 19.1,19.2 19.1,19.1 h 36.4 36.4 V 460.6 c 0,-139 -0.2,-157.5 -1.5,-158 -0.8,-0.3 -1.5,-1.4 -1.5,-2.5 0,-1.3 -0.8,-2.1 -2.2,-2.3 -1.5,-0.2 -2.4,-1.1 -2.6,-2.5 -0.2,-1.4 -1.1,-2.3 -2.5,-2.5 -1.4,-0.2 -2.3,-1.1 -2.5,-2.5 -0.2,-1.4 -1,-2.3 -2.1,-2.3 -2.6,0 -4.1,-2.1 -4.1,-5.7 0,-3.1 0.2,-3.3 3.3,-3.3 3.6,0 5.7,1.5 5.7,4.1 0,1.1 0.9,1.9 2.3,2.1 1.4,0.2 2.3,1.1 2.5,2.5 0.2,1.4 1.1,2.3 2.5,2.5 1.4,0.2 2.3,1.1 2.5,2.6 0.2,1.4 1,2.2 2.4,2.2 1.1,0 2.2,0.8 2.5,2 0.5,1.9 1.4,2 22.4,2 h 21.9 v 140.6 140.6 l 18.9,18.9 18.8,18.9 h 76.7 76.6 V 461.7 305.3 l -19.1,-19.1 -19.1,-19.2 h -20.9 -20.9 v -20.9 -20.9 l -18.7,-18.6 -18.7,-18.6 h -76.8 -76.8 v 35.8 c 0,19.6 0.3,36.7 0.6,37.9 0.3,1.1 1.4,2.3 2.5,2.6 1.1,0.3 1.9,1.4 1.9,2.6 0,1.4 0.6,2.1 1.8,2.1 2.7,0 4.2,2 4.2,5.7 0,3.1 -0.2,3.3 -3.3,3.3 -3.7,0 -5.7,-1.5 -5.7,-4.2 0,-1.1 -0.7,-1.8 -2,-1.8 -1.1,0 -2.3,-0.7 -2.6,-1.5 -0.4,-0.8 -1.2,-1.5 -2,-1.5 -0.8,0 -1.4,-0.4 -1.4,-1 0,-0.6 -7.7,-1 -21,-1 h -21 V 246.3 225.5 L 1703.2,206.8 1684.3,188 H 1567.7 1451 v 196.1 196.1 l 18.8,18.9 18.7,18.8 76.8,0.1 h 76.7 z"
       id="path10" />
    <path
       d="m 2412.3,684.7 c -0.6,-0.7 -36.3,-36.3 -79.2,-79.2 l -78.1,-78 V 383.8 240 h 40 40 v -40 -40 h 183.3 183.3 l 79.2,79.2 79.2,79.1 V 462.2 606 h -40 -40 v 40 40 h -183.2 c -142.2,-0.1 -183.6,-0.3 -184.5,-1.3 z m 299.9,-106.4 0.3,-39.8 39.8,-0.3 39.7,-0.2 V 421.2 304.5 L 2773.1,285.7 2754.3,267 H 2733.1 2712 V 245.9 224.8 L 2693.7,206.4 2675.3,188 H 2518.7 2362 v 39.5 39.5 h -40 -40 V 383.5 500 l 18.9,19 18.9,19 h 21.1 21.1 v 21 21.1 l 18.8,18.9 18.7,18.9 h 156.2 L 2712,618 Z"
       id="path12" />
    <path
       d="M 2473,403 V 299 h 64 64 v 104 104 h -64 -64 z m 98,18 v -55 h -15 -15 v 55 55 h 15 15 z"
       id="path14" />
    <path
       d="M 3045.3,646.2 3006,606.7 V 543.3 480 l 55.8,-0.2 55.7,-0.3 -55.7,-56 -55.8,-56 V 303.8 240 h 40 40 v -40 -40 h 183.5 183.5 l 39.5,39.5 39.5,39.5 v 63.5 63.4 l -12.5,0.3 -12.6,0.3 12.6,12.5 c 8.3,8.4 12.5,13.2 12.5,14.7 0,1.6 0.7,2.2 2.7,2.5 3,0.3 4.7,3.8 1.9,3.8 -0.9,0 -1.6,0.3 -1.6,0.8 0,0.4 17.3,18 38.5,39.2 l 38.5,38.5 -0.2,63.5 -0.3,63.5 -39.7,0.3 -39.8,0.2 -0.2,39.8 -0.3,39.7 -223.5,0.1 -223.5,0.1 z M 3464,578 v -40 h 40 40 V 501.4 464.8 L 3525.2,445.9 3506.3,427 H 3485.2 3464 V 405.9 384.7 L 3445,365.9 3426.1,347 H 3325.5 3225 v -24 -24 h 119.5 119.5 v -36.7 -36.8 l -18.7,-18.7 -18.8,-18.8 h -156.1 c -141.5,0 -156.2,0.1 -156.8,1.6 -0.3,0.9 -0.6,18.6 -0.6,39.5 V 267 l -39.2,0.2 -39.3,0.3 -0.3,36.8 -0.2,36.8 18.5,18.5 18.5,18.4 h 21 21 v 21 21 l 18.9,19 19,19 h 101 101.1 V 482.5 507 H 3193.5 3034 v 36.7 36.7 l 18.7,18.8 18.8,18.8 h 196.2 196.3 z"
       id="path16" />
  </g>
  <g
     fill="#0cecdd"
     id="g64"
     transform="translate(-1,-1)">
    <path
       d="M 43.8,602 C 33.4,591.6 25,582.6 25,582 c 0,-0.7 60.4,-1 198,-1 h 198 v -40 -40 h 40 40 V 343 c 0,-134.3 0.2,-158 1.4,-158 0.8,0 9.8,8.4 20,18.7 L 541,222.4 V 381.7 541 h -40 -40 v 40 40 H 261.8 62.5 Z"
       id="path20" />
    <path
       d="M 874.8,602 C 864.4,591.6 856,582.6 856,582.1 c 0,-0.8 59.5,-1.1 198,-1.1 h 198 v -38.5 c 0,-33.8 0.2,-38.5 1.5,-38.5 0.9,0 10,8.5 20.3,18.8 l 18.7,18.8 -0.3,39.7 -0.2,39.7 -199.3,-0.1 H 893.5 Z"
       id="path22" />
    <path
       d="m 1466.8,602.1 c -10.4,-10.4 -18.8,-19.4 -18.8,-20 0,-0.8 22.2,-1.2 78.3,-1.3 l 78.2,-0.3 0.3,-159.7 0.2,-159.8 h 39.5 39.5 v -38 c 0,-34.8 0.1,-38 1.7,-38 0.9,0 10.1,8.4 20.5,18.8 l 18.8,18.7 v 20.8 c 0,17.7 0.2,20.7 1.5,20.7 0.8,0 1.5,0.7 1.5,1.5 0,1.3 -2.8,1.5 -19,1.5 h -19 v 19 c 0,16.2 -0.2,19 -1.5,19 -0.8,0 -1.5,-0.7 -1.5,-1.5 0,-1.3 -3,-1.5 -21,-1.5 h -21 V 461.5 621 h -79.7 l -79.8,-0.1 z"
       id="path24" />
    <path
       d="m 1706.1,601.9 c -10.5,-10.6 -19.1,-19.6 -19.1,-20 0,-0.5 17.3,-0.9 38.5,-0.9 H 1764 V 422.5 c 0,-136.1 0.2,-158.5 1.4,-158.5 0.8,0 1.7,0.6 2,1.3 0.3,0.6 0.3,0 -0.1,-1.6 l -0.5,-2.7 41.3,0.2 41.4,0.3 0.3,21.8 c 0.2,18.9 0,21.7 -1.3,21.7 -0.8,0 -1.5,-0.7 -1.5,-1.5 0,-1.3 -3.1,-1.5 -21.5,-1.5 H 1804 V 461.5 621 h -39.4 -39.4 z"
       id="path26" />
    <path
       d="m 1865.8,602 c -10.4,-10.4 -18.8,-19.3 -18.8,-19.9 0,-0.8 23.3,-1.1 78.5,-1.1 H 2004 V 422.5 c 0,-93.7 0.4,-158.5 0.9,-158.5 0.5,0 9.5,8.6 20,19.2 l 19.1,19.1 V 461.7 621 h -79.7 l -79.8,-0.1 z"
       id="path28" />
    <path
       d="m 2377.8,602 c -10.4,-10.4 -18.8,-19.4 -18.8,-20 0,-0.7 50.2,-1 158,-1 h 158 v -40 -40 h 40 40 V 382.5 c 0,-87.8 0.3,-118.5 1.1,-118.5 0.7,0 9.7,8.4 20,18.7 l 18.9,18.8 V 421.2 541 l -39.7,0.2 -39.8,0.3 -0.3,39.8 -0.2,39.7 -159.3,-0.1 h -159.2 z"
       id="path30" />
    <path
       d="m 3049.7,602.2 c -10.3,-10.4 -18.7,-19.4 -18.7,-20 0,-0.9 45.9,-1.2 198,-1.2 h 198 v -40 -40 h 40 40 v -38.5 c 0,-28.6 0.3,-38.5 1.2,-38.5 0.6,0 9.6,8.5 20,18.9 l 18.8,18.9 v 39.6 39.6 h -40 -40 v 40 40 h -199.3 -199.2 z"
       id="path32" />
    <path
       d="m 856,542.5 c 0,-1.3 -3,-1.5 -21.1,-1.5 H 813.8 L 794.9,522 C 784.5,511.5 776,502.5 776,502 c 0,-0.6 15.3,-1 41.5,-1 H 859 v 21.5 c 0,18.4 -0.2,21.5 -1.5,21.5 -0.8,0 -1.5,-0.7 -1.5,-1.5 z"
       id="path34" />
    <path
       d="m 2359,542.5 c 0,-1.3 -3,-1.5 -21.1,-1.5 h -21.1 l -18.9,-19 c -10.4,-10.4 -18.9,-19.4 -18.9,-20 0,-0.7 14,-1 41.5,-1 h 41.5 v 21.5 c 0,18.4 -0.2,21.5 -1.5,21.5 -0.8,0 -1.5,-0.7 -1.5,-1.5 z"
       id="path36" />
    <path
       d="m 181.5,505.8 c -0.3,-0.7 -0.4,-73.7 -0.3,-162.3 l 0.3,-161 82.8,-0.3 82.7,-0.2 v 21.5 c 0,18.4 -0.2,21.5 -1.5,21.5 -0.8,0 -1.5,-0.7 -1.5,-1.5 0,-1.3 -7.4,-1.5 -61,-1.5 h -61 v 141 c 0,124.7 0.2,141 1.5,141 0.8,0 1.5,0.7 1.5,1.5 0,1.3 -3.1,1.5 -21.5,1.5 -16.3,0 -21.7,-0.3 -22,-1.2 z"
       id="path38" />
    <path
       d="m 1013,465.5 c 0,-22.8 0.3,-41.5 0.6,-41.5 0.3,0 1.5,0.5 2.7,1.1 1.8,0.9 2,0.9 1,-0.2 -3.8,-3.9 -4.5,-3.9 76.7,-3.9 h 78 v -38.6 c 0,-34.1 0.2,-38.5 1.5,-38.2 0.9,0.2 10.1,8.8 20.5,19.3 l 19,18.9 v 39.3 39.3 l -80.2,-0.2 -80.3,-0.3 0.3,21.8 c 0.2,18.2 0.5,21.7 1.7,21.7 0.8,0 1.5,0.7 1.5,1.5 0,1.3 -3.1,1.5 -21.5,1.5 H 1013 Z"
       id="path40" />
    <path
       d="M 2436,384 V 261 l 82.3,0.2 82.2,0.3 0.3,21.8 c 0.2,18.9 0,21.7 -1.3,21.7 -0.8,0 -1.5,-0.7 -1.5,-1.5 0,-1.3 -7.4,-1.5 -61,-1.5 h -61 v 101 c 0,89.1 0.2,101 1.5,101 0.8,0 1.5,0.7 1.5,1.5 0,1.3 -3.1,1.5 -21.5,1.5 H 2436 Z"
       id="path42" />
    <path
       d="m 3350,462.5 c 0,-1.3 -11.9,-1.5 -101.1,-1.5 h -101 l -19,-19 c -10.4,-10.4 -18.9,-19.4 -18.9,-20 0,-0.7 40.9,-1 121.5,-1 H 3353 v 21.5 c 0,18.4 -0.2,21.5 -1.5,21.5 -0.8,0 -1.5,-0.7 -1.5,-1.5 z"
       id="path44" />
    <path
       d="m 933,384 v -43 l 42.8,0.2 42.7,0.3 0.3,21.3 c 0.2,18.4 0,21.2 -1.3,21.2 -0.8,0 -1.5,-0.7 -1.5,-1.5 0,-1.3 -3.1,-1.5 -21.5,-1.5 H 973 v 21.5 c 0,18.4 0.2,21.5 1.5,21.5 0.8,0 1.5,0.7 1.5,1.5 0,1.3 -3.1,1.5 -21.5,1.5 H 933 Z"
       id="path46" />
    <path
       d="m 3427,385.5 c 0,-27.9 0.3,-41.5 1,-41.5 0.6,0 9.6,8.5 20,18.9 l 19,18.8 v 21.2 c 0,18.1 0.2,21.1 1.5,21.1 0.8,0 1.5,0.7 1.5,1.5 0,1.3 -3.1,1.5 -21.5,1.5 H 3427 Z"
       id="path48" />
    <path
       d="m 3110,382.5 c 0,-1.3 -3,-1.5 -21,-1.5 h -21 l -18.5,-18.4 c -10.2,-10.2 -18.5,-19.2 -18.5,-20 0,-1.4 4.4,-1.6 41,-1.6 h 41 v 21.5 c 0,18.4 -0.2,21.5 -1.5,21.5 -0.8,0 -1.5,-0.7 -1.5,-1.5 z"
       id="path50" />
    <path
       d="m 1092.7,346.3 c -0.4,-0.3 -0.7,-19 -0.7,-41.4 0,-40.5 0,-40.8 2,-40.1 1.1,0.4 10.4,9.1 20.5,19.2 l 18.5,18.4 v 20.8 c 0,17.8 0.2,20.8 1.5,20.8 0.8,0 1.5,0.7 1.5,1.5 0,1.3 -3,1.5 -21.3,1.5 -11.8,0 -21.7,-0.3 -22,-0.7 z"
       id="path52" />
    <path
       d="m 3187.2,304.3 0.3,-42.8 119.8,-0.3 119.7,-0.2 v -38 c 0,-29.9 0.3,-38 1.3,-38 0.7,0 9.7,8.4 20,18.8 l 18.7,18.7 V 262.3 302 H 3347.5 3228 v 21 c 0,18 0.2,21 1.5,21 0.8,0 1.5,0.7 1.5,1.5 0,1.3 -3.1,1.5 -22,1.5 h -22 z"
       id="path54" />
    <path
       d="m 1924,226 c 0,-33.2 0.3,-41 1.3,-41 0.7,0 9.7,8.4 20,18.6 l 18.7,18.6 v 20.9 c 0,17.9 0.2,20.9 1.5,20.9 0.8,0 1.5,0.7 1.5,1.5 0,1.3 -3.1,1.5 -21.5,1.5 H 1924 Z"
       id="path56" />
    <path
       d="m 2675,226 c 0,-37.6 0.1,-41 1.7,-41 0.9,0 9.9,8.3 20,18.4 l 18.3,18.4 v 21.1 c 0,18.1 0.2,21.1 1.5,21.1 0.8,0 1.5,0.7 1.5,1.5 0,1.3 -3.1,1.5 -21.5,1.5 H 2675 Z"
       id="path58" />
    <path
       d="M 874.8,203 C 864.4,192.7 856,183.7 856,183.1 c 0,-0.8 22.6,-1.2 78.3,-1.3 l 78.2,-0.3 0.3,-39.7 0.2,-39.8 h 39.5 39.5 V 63.5 c 0,-34.8 0.2,-38.5 1.6,-38.5 0.9,0 10.1,8.5 20.5,18.9 l 18.9,18.9 v 39.6 39.6 h -40 -40 v 40 40 l -79.7,-0.1 h -79.8 z"
       id="path60" />
    <path
       d="m 421,146.4 c 0,-36.8 0.2,-41.5 1.5,-41.2 0.9,0.2 9.9,8.6 20,18.7 l 18.5,18.5 v 21.3 c 0,18.3 0.2,21.3 1.5,21.3 0.8,0 1.5,0.7 1.5,1.5 0,1.3 -3.1,1.5 -21.5,1.5 H 421 Z"
       id="path62" />
  </g>
  <g
     fill="#e900ff"
     id="g80"
     transform="translate(-1,-1)">
    <path
       d="M 25.7,583.3 C 25.3,583 25,475.2 25,343.8 V 105 H 224.5 424 v 40 40 h 40 40 V 344.5 504 h -40 -40 v 40 40 H 225.2 C 115.8,584 26,583.7 25.7,583.3 Z M 344,344.5 V 185 l -79.7,0.2 -79.8,0.3 -0.3,158 c -0.1,86.9 0,158.6 0.3,159.3 0.3,0.9 17.3,1.2 80,1.2 H 344 Z"
       id="path66" />
    <path
       d="m 856,544 v -40 h -40 -40 v -80 -80 h 40 40 v -40 -40 l 118.3,0.1 c 65,0 118.9,0.3 119.7,0.7 1.3,0.6 1.5,6 1.5,39.7 v 39 l 39.8,0.3 39.7,0.2 v 40 40 h -79.5 -79.5 l -0.2,-39.7 -0.3,-39.8 -39.7,-0.3 L 936,344 v 40 40 l 39.8,0.2 39.7,0.3 0.3,39.8 0.2,39.7 h 119.5 119.5 v 40 40 H 1055.5 856 Z"
       id="path68" />
    <path
       d="M 1448,384.5 V 185 h 119.5 119.5 v 39.5 39.5 h 40 40 v 160 160 h -40 -40 V 424 264 h -39.5 -39.5 l -0.2,159.8 -0.3,159.7 -79.7,0.3 -79.8,0.2 z"
       id="path70" />
    <path
       d="m 1847.5,582.8 c -0.3,-0.7 -0.6,-72.6 -0.8,-159.8 l -0.2,-158.5 -39.5,-0.2 -39.5,-0.2 -0.3,-39.6 -0.2,-39.5 h 80 80 v 39.5 39.5 h 40 40 v 160 160 h -79.5 c -62.7,0 -79.7,-0.3 -80,-1.2 z"
       id="path72" />
    <path
       d="m 2359,544 v -40 h -40 -40 V 384 264 h 40 40 V 224.5 185 h 159.5 159.5 v 39.5 39.5 h 40 40 v 120 120 h -40 -40 v 40 40 H 2518.5 2359 Z m 238.8,-159.7 -0.3,-119.8 -79.2,-0.3 -79.3,-0.2 v 120 120 h 79.5 79.5 z"
       id="path74" />
    <path
       d="m 3031,544 v -40 h 159.5 159.5 v -40 -40 l -119.7,-0.2 -119.8,-0.3 -0.3,-39.7 -0.2,-39.8 h -39.5 -39.5 l 0.2,-39.7 0.3,-39.8 39.3,-0.3 39.2,-0.2 v -37.9 c 0,-20.9 0.3,-38.6 0.6,-39.5 0.6,-1.5 15.6,-1.6 160,-1.6 H 3430 v 39.8 39.7 h -119.7 -119.8 l -0.3,39.8 -0.2,39.7 h 120 120 v 40 40 h 40 40 v 40 40 h -40 -40 v 40 40 H 3230.5 3031 Z"
       id="path76" />
    <path
       d="m 856,145 v -40 h 40 40 V 65 25 h 79.3 c 43.7,0 79.6,0.2 79.8,0.4 0.2,0.2 0.3,18.2 0.1,40 L 1095,105 h -39.5 -39.5 l -0.2,39.8 -0.3,39.7 -79.7,0.3 -79.8,0.2 z"
       id="path78" />
  </g>
  <g
     fill="#fff338"
     id="g114"
     transform="translate(-1,-1)">
    <path
       d="M 94.7,701.3 77,683.5 300,683.2 523,683 v -40 -40 h 40 40 V 419.6 236.2 l 18,17.9 18,18 V 455.5 639 l -39.7,0.2 -39.8,0.3 -0.3,39.8 L 559,719 H 335.7 112.4 Z"
       id="path82" />
    <path
       d="m 925.6,701 -17.8,-18 h 223.1 223.1 v -64.1 -64.1 l 18.5,18.5 18.5,18.5 v 63.6 63.6 h -223.7 l -223.8,-0.1 z"
       id="path84" />
    <path
       d="m 1517.5,701 -18,-18 103.5,-0.2 103.5,-0.3 0.5,-15 0.5,-14.9 15.2,15.2 15.2,15.2 h 64.1 64 v -15 c 0,-8.2 0.3,-15 0.8,-15 0.4,0 7.5,6.8 15.7,15 l 15,15 104,-0.2 104,-0.3 0.3,-182.7 c 0.1,-100.6 0.4,-182.8 0.7,-182.8 0.2,0 8.3,7.9 18,17.5 L 2142,352 V 535.5 719 h -103.8 -103.7 l -12.6,-12.7 c -7,-7.1 -14.1,-14 -15.8,-15.6 L 1903,688 v 15.5 15.5 h -64 -63.9 l -15.5,-15.5 c -8.4,-8.5 -15.7,-15.5 -16,-15.5 -0.3,0 -0.6,7 -0.6,15.5 V 719 h -103.8 -103.7 z"
       id="path86" />
    <path
       d="m 2428.6,701 -17.9,-18 h 183.1 183.2 v -40 -40 h 40 40 V 459.3 315.5 l 18.5,18.5 18.5,18.5 V 495.7 639 h -40 -40 v 40 40 h -183.7 -183.8 z"
       id="path88" />
    <path
       d="m 3100.6,701.2 -17.9,-17.7 222.9,-0.5 222.9,-0.5 0.3,-39.7 0.2,-39.8 39.8,-0.2 39.7,-0.3 0.5,-63.3 0.5,-63.2 17.8,17.8 17.7,17.8 v 63.7 63.7 l -39.7,0.2 -39.8,0.3 -0.3,39.8 -0.2,39.7 h -223.3 -223.2 z"
       id="path90" />
    <path
       d="m 829,604.5 c -1,-1.2 -1,-1.5 0.4,-1.5 0.9,0 1.6,0.7 1.6,1.5 0,0.8 -0.2,1.5 -0.4,1.5 -0.2,0 -0.9,-0.7 -1.6,-1.5 z"
       id="path92" />
    <path
       d="m 2332,604.5 c -1,-1.2 -1,-1.5 0.4,-1.5 0.9,0 1.6,0.7 1.6,1.5 0,0.8 -0.2,1.5 -0.4,1.5 -0.2,0 -0.9,-0.7 -1.6,-1.5 z"
       id="path94" />
    <path
       d="M 1294.9,494.5 C 1282.5,482 1279,479 1276.8,479 h -2.8 v -42 -42 l 18.5,18.6 18.5,18.6 v 38.9 c 0,21.4 -0.2,38.9 -0.3,38.9 -0.2,0 -7.3,-7 -15.8,-15.5 z"
       id="path96" />
    <path
       d="M 283,381.5 V 284 h 18 18 v 97.5 97.5 h -18 -18 z"
       id="path98" />
    <path
       d="m 2538,421 v -58 h 18 18 v 58 58 h -18 -18 z"
       id="path100" />
    <path
       d="m 3083.5,445 c -1.8,-1.9 -1.7,-2 0.3,-2 1.5,0 2.2,0.6 2.2,2 0,1.1 -0.2,2 -0.3,2 -0.2,0 -1.2,-0.9 -2.2,-2 z"
       id="path102" />
    <path
       d="m 3531.8,399.3 c -2.1,-0.3 -2.8,-1 -2.8,-2.6 0,-1.5 -5,-7.2 -15.5,-17.7 l -15.5,-15.5 15.5,-0.3 15.5,-0.3 v -63.3 -63.4 l 18,17.9 18,18 v 63.9 64 l -15.2,-0.1 c -8.4,-0.1 -16.5,-0.4 -18,-0.6 z"
       id="path104" />
    <path
       d="M 1135.2,255.2 C 1123.8,243.7 1119.4,240 1117.5,240 h -2.5 v -18 -18 l 39.8,-0.2 39.7,-0.3 0.3,-63.2 0.2,-63.3 2.6,2.2 c 1.4,1.3 7.3,7.1 13.2,13.1 5.9,6 12.8,12.9 15.5,15.4 l 4.7,4.6 v 63.9 63.8 h -40 -39.9 l -0.3,15.2 -0.3,15.2 z"
       id="path106" />
    <path
       d="m 2026,238.5 c 0,-0.8 0.4,-1.5 0.9,-1.5 0.5,0 1.4,0.7 2.1,1.5 1,1.3 0.9,1.5 -0.9,1.5 -1.2,0 -2.1,-0.6 -2.1,-1.5 z"
       id="path108" />
    <path
       d="m 2777.3,238.5 c -0.9,-2.5 0.2,-2.7 2.2,-0.5 1.7,1.8 1.7,2 0.1,2 -0.9,0 -1.9,-0.7 -2.3,-1.5 z"
       id="path110" />
    <path
       d="m 523,158 c 0,-1.9 0.1,-1.9 2,-0.3 1.1,1 2,1.9 2,2 0,0.2 -0.9,0.3 -2,0.3 -1.3,0 -2,-0.7 -2,-2 z"
       id="path112" />
  </g>
</svg>
