<?xml version="1.0" encoding="UTF-8" standalone="no"?>
<svg
   version="1.0"
   width="1939.8833"
   height="1162.0022"
   viewBox="0 0 1939.8833 1162.0022"
   preserveAspectRatio="xMidYMid meet"
   id="svg54"
   sodipodi:docname="auto-board.svg"
   inkscape:version="1.1.2 (0a00cf5339, 2022-02-04, custom)"
   xmlns:inkscape="http://www.inkscape.org/namespaces/inkscape"
   xmlns:sodipodi="http://sodipodi.sourceforge.net/DTD/sodipodi-0.dtd"
   xmlns="http://www.w3.org/2000/svg"
   xmlns:svg="http://www.w3.org/2000/svg">
  <defs
     id="defs58" />
  <sodipodi:namedview
     id="namedview56"
     pagecolor="#ffffff"
     bordercolor="#666666"
     borderopacity="1.0"
     inkscape:pageshadow="2"
     inkscape:pageopacity="0.0"
     inkscape:pagecheckerboard="0"
     showgrid="false"
     inkscape:zoom="0.54989712"
     inkscape:cx="970.18148"
     inkscape:cy="585.56408"
     inkscape:window-width="1920"
     inkscape:window-height="1017"
     inkscape:window-x="-8"
     inkscape:window-y="-8"
     inkscape:window-maximized="1"
     inkscape:current-layer="svg54" />
  <g
     fill="#820202"
     id="g6"
     transform="translate(-1.1140154,-0.99785757)">
    <path
       d="m 154.5,1161 c -3.3,-1.1 -8.1,-2 -10.7,-2 -4.7,0 -6.6,-0.8 -35.3,-14.5 -3.8,-1.9 -8.8,-5.2 -11,-7.5 -2.2,-2.3 -8,-6.2 -12.9,-8.8 C 74.7,1123 73,1121.5 34.2,1084.1 10.9,1061.6 9.8,1060.4 5.7,1052.2 L 1.5,1043.7 1.2,893.6 C 1,746.6 1,743.4 2.9,737 c 1.1,-3.6 3.7,-9 5.8,-12 4.9,-6.9 67.1,-63.5 74,-67.2 11,-6 5.1,-5.8 142,-5.8 88.2,0 126.8,0.3 130.5,1.1 14,3 23.4,10.6 36.3,30 l 8.8,13 6.6,-6.3 c 3.6,-3.5 12,-11.6 18.6,-17.9 12.6,-12.2 18,-15.8 28.2,-18.4 8.7,-2.3 201,-2.2 209.8,0 11,2.9 14.7,5.8 45,35.2 20.5,20 29.1,27.8 29.3,26.5 2,-11.2 9.4,-23.2 18,-29.6 5.8,-4.2 72.8,-35.8 81.1,-38.3 3.9,-1.1 8.2,-1.4 15.5,-1.1 8.7,0.4 11.1,0.9 16.8,3.5 7.2,3.4 16.3,11.2 20.1,17.2 1.2,2 20.7,43.7 43.3,92.6 22.6,49 41.5,88.9 42,88.7 0.5,-0.2 20.7,-41.1 44.9,-90.8 46.9,-96.5 47,-96.6 57.8,-104 11,-7.4 28.7,-9.8 40.7,-5.6 9.3,3.3 71.9,33.9 77.1,37.8 4.4,3.2 5,3.4 5.5,1.7 0.3,-1 2.1,-5 4,-8.9 5.9,-12.4 18.7,-22.4 32.2,-25.3 7.4,-1.5 281.9,-1.6 289.4,0 16.5,3.4 31.5,17.6 35.8,33.7 l 1.1,4.3 15.7,-15.3 c 16.8,-16.4 22.9,-20.4 34,-22.7 3.7,-0.8 47.4,-1.1 146,-1.1 152.8,0 145.9,-0.2 157.1,5.4 10.9,5.6 20.4,17.5 23.7,30 2.9,10.8 1.1,24.7 -4.4,35 -1.5,2.9 -8.3,10.9 -15.7,18.6 -10.5,10.8 -13.8,14.9 -16.5,20.5 -2.9,6.1 -5.5,9.2 -21.4,24.6 -10,9.7 -23.6,22.3 -30.3,28 -6.8,5.6 -12.3,10.6 -12.3,11 0,0.4 12.9,14.2 28.7,30.6 15.7,16.4 29.9,31.8 31.5,34.3 1.6,2.5 3.8,7.4 4.9,11 1.9,6.3 1.9,9.1 1.7,73 l -0.3,66.5 -3.7,7.7 c -4,8.4 -4.2,8.6 -43.2,49.1 -13.8,14.3 -25.9,26 -28.5,27.5 -2.5,1.5 -7.5,5.8 -11,9.5 -6.1,6.4 -7.7,7.5 -24.8,15.8 -17.5,8.5 -18.5,8.9 -25,8.9 -4,0 -9.5,0.9 -13.1,2 -6.2,2 -9.5,2 -136.7,2 -127.3,0 -130.4,0 -136.7,-2 -3.6,-1.1 -8.2,-3.1 -10.2,-4.5 l -3.8,-2.6 -6.6,2 c -3.7,1.1 -11.5,3.1 -17.4,4.5 l -10.8,2.6 h -107.3 c -95,0 -108,-0.2 -112.8,-1.6 -6.6,-1.9 -12.8,-5.4 -18.1,-10.2 -3.9,-3.5 -4,-3.6 -6.6,-1.9 -6.8,4.2 -20.4,10.7 -25.5,12.2 -4.8,1.4 -10.3,1.6 -38.4,1.3 l -32.8,-0.3 -6.7,-3.2 c -11.9,-5.6 -20,-14.9 -23.9,-27.4 -1.7,-5.5 -1.9,-9.7 -1.9,-45.2 0,-21.6 -0.4,-39.7 -0.8,-40.4 -0.4,-0.7 -3.9,5.7 -8.7,16 -9.9,21.5 -15,30 -21.8,36.4 -6,5.7 -10.7,8.4 -18.9,10.8 -4.9,1.4 -10.4,1.6 -39,1.3 l -33.3,-0.3 -6.7,-3.2 c -14.4,-6.8 -18,-11.5 -30.5,-39.6 l -8.8,-19.9 -0.5,40.9 c -0.5,39.7 -0.6,40.9 -2.8,46.4 -4.7,11.2 -14.1,20.6 -25.2,25.2 -5.3,2.1 -6.5,2.2 -40.6,2.2 h -35 l -7.5,-3.7 c -4.1,-2 -9.9,-5.9 -12.9,-8.7 l -5.4,-5 -5.6,5.3 c -3.1,3 -7.8,6.5 -10.6,7.9 -8.9,4.5 -13.4,4.9 -49.4,4.5 l -33.6,-0.3 -10.9,-5.3 c -6.1,-3 -11.8,-6.1 -12.9,-7 -5.2,-4.7 -16.1,-19 -17.8,-23.4 -1,-2.8 -3.4,-6.9 -5.2,-9.2 -5,-6.1 -8.6,-12.2 -10.9,-18.5 -1.9,-5.1 -2.1,-8.2 -2.5,-36.3 L 601.8,1032 H 576 550.1 l -0.3,47.8 c -0.4,53.6 -0.3,52.8 -7.9,64.2 -4.7,6.9 -12.3,13.1 -20.1,16.3 -5,2.1 -7.1,2.2 -39.6,2.5 -30,0.3 -35,0.1 -40,-1.4 -3.1,-0.9 -8.9,-2.4 -12.7,-3.4 -6,-1.4 -8.8,-2.9 -18.5,-10 -6.3,-4.6 -13.3,-9.8 -15.6,-11.7 -2.3,-1.8 -4.7,-3.3 -5.5,-3.3 -0.7,0 -6.3,4.9 -12.3,10.8 -6.1,6 -13.1,12.1 -15.6,13.5 -10.1,5.8 -8,5.7 -109,5.6 -88.6,0 -92.8,-0.1 -98.5,-1.9 z M 1520,973.4 c -7.4,-7.4 -17,-16.7 -21.3,-20.6 l -7.8,-7.1 -19,18.9 -18.9,18.9 37.2,0.5 c 24.9,0.4 38.1,1 39.8,1.7 1.4,0.7 2.7,1.2 3,1.2 0.3,0.1 -5.6,-6 -13,-13.5 z"
       id="path2" />
    <path
       d="m 108.8,560.1 c -7.4,-2.4 -14,-6.7 -20.5,-13.3 -9.4,-9.7 -72.5,-82.2 -76,-87.4 -1.8,-2.8 -4.4,-7.5 -5.6,-10.5 L 4.5,443.5 4.2,243.5 C 4,92.9 4.2,42.1 5.1,38 7.7,25.5 17.8,12.2 28.8,6.6 40.3,0.8 34,1 173.7,1 c 91.5,0 129.7,0.3 133.5,1.1 6.9,1.5 14.4,4.9 18.8,8.5 2.7,2.2 44.6,45.4 55.6,57.3 1.2,1.3 5.7,-2.8 31.6,-28.5 21,-20.7 31.9,-30.8 35.4,-32.6 11,-5.9 8.7,-5.8 119.6,-5.8 71,0 103.3,0.3 107,1.1 12.3,2.6 14.2,4.1 48.1,37.8 L 755,71.5 785.2,42 c 16.5,-16.2 32.1,-31 34.6,-32.7 2.5,-1.8 7,-4.3 10.1,-5.5 l 5.6,-2.3 101.4,-0.3 c 112,-0.3 107.5,-0.5 119.3,6.1 4,2.2 14.2,11.4 33.2,29.9 l 27.4,26.8 0.7,-8.8 c 0.9,-12.1 3,-21.7 6.1,-28 3.6,-7.3 12.2,-16.3 19.2,-20 12.2,-6.5 4.8,-6.2 144.8,-6.2 80.9,0 129.1,0.4 132.5,1 11.9,2.2 16.6,5.7 41.1,29.7 12.5,12.3 23.1,22.3 23.6,22.3 0.4,0 2.3,-4.6 4.1,-10.2 1.8,-5.7 4.7,-13.1 6.4,-16.6 3.6,-7.4 11.6,-16 19,-20.2 11,-6.3 6.2,-6.1 146.7,-5.8 l 127.5,0.3 5.7,2.3 c 3.1,1.2 7.4,3.5 9.6,5 7.5,5 64.3,60.4 68.3,66.4 7.5,11.6 7,0.7 6.7,167.8 l -0.3,149.5 -2.4,5.7 c -1.3,3.1 -7.9,13 -15,22.5 -9.5,12.5 -12.9,17.8 -13.4,20.6 -0.4,2.8 -2.7,6.5 -8,13 -4,5.1 -12.5,15.7 -18.9,23.7 -11.3,14.2 -38.8,41.9 -48.9,49.2 -2.4,1.7 -10.2,8.5 -17.4,15.1 -10.1,9.4 -14.5,12.8 -20.5,15.6 l -7.5,3.6 H 1605 1483.5 l -7.5,-3.6 c -4.5,-2.1 -9.6,-5.6 -12.7,-8.6 l -5.1,-5 -2.5,3.2 c -3.6,4.5 -12.2,10 -19.5,12.4 -5.7,2 -8.4,2.1 -38.7,2.1 -30.3,0 -33,-0.1 -38.7,-2.1 -15.8,-5.3 -26.7,-17.7 -29.8,-33.9 -0.6,-3.1 -1,-28.1 -1,-62.1 V 407 h -29.4 -29.4 l -0.4,17.3 c -0.5,19.1 -0.2,17.3 -15.3,74.2 -7.5,27.9 -9.9,35.7 -12.8,40.5 -6.5,11 -15.9,18.5 -26.9,21.5 -5.5,1.4 -10.8,1.6 -39.8,1.3 l -33.5,-0.3 -7.6,-3.6 c -5.2,-2.5 -9.3,-5.4 -13.2,-9.4 l -5.6,-5.8 -4.7,5.2 c -5.4,6 -11.1,9.6 -19.5,12.2 -5.4,1.7 -9.5,1.9 -37.7,1.9 -23.7,0 -33,-0.4 -36.8,-1.4 -17.7,-4.7 -30.2,-19.7 -32.4,-38.7 -0.6,-4.6 -1,-27 -1,-49.6 V 431 h -40 -40 v 44.9 c 0,25.9 -0.4,47.1 -1,50.1 -3.1,16.3 -14.5,29.2 -29.9,34 -5.7,1.8 -9.3,2 -38.6,2 -37.3,0 -40.6,-0.5 -51.3,-8.4 -9.8,-7.3 -14.9,-16.1 -18.3,-31.8 -1.1,-5.1 -2.2,-9.9 -2.5,-10.7 -0.3,-0.9 -8.3,6.4 -22.8,20.7 -20.5,20.4 -23,22.5 -30.2,25.9 l -7.9,3.8 -98.2,0.3 C 504.4,562 503,562 497,560 c -3.4,-1.1 -8,-3.2 -10.3,-4.7 -2.3,-1.4 -16.4,-14.7 -31.3,-29.5 L 428.3,498.9 403,525.5 c -14,14.6 -27.6,27.9 -30.2,29.6 -2.6,1.7 -7.5,4 -10.9,5 -5.8,1.8 -11,1.9 -126.7,1.8 -114.2,0 -121,-0.1 -126.4,-1.8 z M 615,294.5 V 256 h -29 -29 v 38.5 38.5 h 29 29 z m 1056,0 V 256 h -15.5 -15.5 v 38.5 38.5 h 15.5 15.5 z"
       id="path4" />
  </g>
  <g
     fill="#b10301"
     id="g12"
     transform="translate(-1.1140154,-0.99785757)">
    <path
       d="m 338.5,1161.2 c -1.6,-1 -5.5,-3.3 -8.5,-5.3 -3,-2 -7.9,-4.9 -10.7,-6.5 -2.9,-1.6 -5.3,-3.3 -5.3,-3.7 0,-0.5 -0.4,-0.5 -1,-0.2 -0.5,0.3 -1,0.1 -1,-0.4 0,-0.6 -0.5,-1.1 -1.1,-1.1 -0.6,0 -2.5,-1.1 -4.3,-2.5 l -3.3,-2.5 h -96.2 c -109.8,0 -98,1 -119.8,-9.7 -12.8,-6.2 -11.5,-5.1 -53.1,-45.2 C 10.9,1061.6 9.8,1060.4 5.7,1052.2 L 1.5,1043.7 1.2,893.6 C 1,746.6 1,743.4 2.9,737 c 1.1,-3.6 3.7,-9 5.8,-12 4.9,-6.9 67.1,-63.5 74,-67.2 11,-6 5.1,-5.8 142,-5.8 88.2,0 126.8,0.3 130.5,1.1 14,3 23.4,10.6 36.3,30 l 8.8,13 6.6,-6.3 c 3.6,-3.5 12,-11.6 18.6,-17.9 12.6,-12.2 18,-15.8 28.2,-18.4 8.7,-2.3 201,-2.2 209.8,0 11,2.9 14.7,5.8 45,35.2 20.5,20 29.1,27.8 29.3,26.5 2,-11.2 9.4,-23.2 18,-29.6 5.8,-4.2 72.8,-35.8 81.1,-38.3 3.9,-1.1 8.2,-1.4 15.5,-1.1 8.7,0.4 11.1,0.9 16.8,3.5 7.2,3.4 16.3,11.2 20.1,17.2 1.2,2 20.6,43.6 43.2,92.4 22.5,48.8 41.4,88.8 41.9,88.8 0.5,0 20.8,-40.7 45,-90.6 47,-96.6 47.1,-96.7 57.9,-104.1 11,-7.4 28.7,-9.8 40.7,-5.6 9.3,3.3 71.9,33.9 77.1,37.8 4.4,3.2 5,3.4 5.5,1.7 0.3,-1 2.1,-5 4,-8.9 5.9,-12.4 18.7,-22.4 32.2,-25.3 7.4,-1.5 281.9,-1.6 289.4,0 16.5,3.4 31.5,17.6 35.8,33.7 l 1.1,4.3 15.7,-15.3 c 16.8,-16.4 22.9,-20.4 34,-22.7 3.7,-0.8 47.4,-1.1 146,-1.1 152.8,0 145.9,-0.2 157.1,5.4 10.9,5.6 20.4,17.5 23.7,30 2.9,10.7 1.2,24.5 -4.3,35 -2.7,5.3 -26.1,29.2 -54.8,56 -19.6,18.3 -29.1,25.7 -36.9,28.6 -3.6,1.4 -8.4,4.2 -10.8,6.3 l -4.2,3.7 2.5,1.7 c 3.7,2.7 6.6,5.6 37,37.3 15.5,16.2 29.5,31.5 31.1,34 1.6,2.5 3.8,7.4 4.9,11 1.9,6.3 1.9,9.1 1.7,73 l -0.3,66.5 -3.7,7.7 c -4,8.4 -4.2,8.7 -43.7,49.6 l -24.5,25.4 -13,6.4 c -7.2,3.6 -15.3,7.1 -18,7.9 -4.3,1.3 -24.1,1.5 -139.4,1.5 h -134.5 l -3.6,2.7 c -2,1.5 -3.8,3 -4.1,3.3 -0.3,0.4 -2.7,2.2 -5.5,4 -2.7,1.9 -5.6,4 -6.5,4.7 -0.8,0.7 -3.3,2.6 -5.5,4.2 -2.2,1.7 -4.5,3.5 -5.2,4.1 -1.9,1.6 -8.5,1.2 -15.4,-1 -6.8,-2.1 -12.9,-5.4 -12.9,-6.9 0,-0.5 6.3,-5.9 14,-12.1 7.7,-6.2 14,-11.8 14,-12.3 0,-0.6 -1.2,-2.3 -2.6,-3.8 l -2.6,-2.8 -7,5.4 c -3.9,2.9 -9.6,6.4 -12.7,7.7 l -5.6,2.3 -117,0.3 -117,0.3 -2.3,3.5 c -1.2,2 -1.9,4 -1.6,4.6 0.4,0.7 0.2,0.8 -0.4,0.4 -0.7,-0.4 -1.2,-0.1 -1.2,0.7 0,1.2 -0.8,2.5 -4.9,7.3 -0.5,0.7 -0.8,1.4 -0.5,1.7 0.2,0.2 -0.2,1 -1.1,1.7 -0.8,0.7 -1.5,1.8 -1.5,2.5 0,3.4 -16,-3.1 -23.1,-9.3 l -4.2,-3.8 6.7,-12.2 c 6.5,-11.9 6.6,-12.3 5,-14.7 -0.9,-1.4 -1.8,-2.5 -1.9,-2.5 -0.2,0 -3,2.7 -6.4,6 -4.1,4.2 -8.4,7.2 -13.8,9.8 l -7.8,3.7 -35.2,0.3 c -20.6,0.2 -36.7,-0.1 -38.8,-0.7 -2.4,-0.6 -3.7,-0.6 -4.1,0.1 -0.5,0.7 -0.2,0.8 0.6,0.3 1,-0.6 1.1,-0.4 0.5,1.1 -2.2,5.3 -3.4,9.1 -3.5,10.9 0,1.1 -0.8,3.1 -1.7,4.4 -0.9,1.4 -1.1,2.1 -0.4,1.6 1,-0.6 1.1,-0.3 0.2,1.2 -0.6,1.1 -0.8,2.3 -0.4,2.6 1.2,1.3 -5.1,-0.5 -9,-2.4 -5.3,-2.8 -13.3,-10.3 -16.4,-15.7 -6,-10.3 -6.3,-12.6 -6.3,-56.9 0,-38.9 0.1,-41.1 2.6,-55.5 4.1,-24 3.4,-23.6 -10.1,5.5 -13.3,28.6 -17.2,34.6 -26.6,40.7 -11.5,7.4 -12,7.5 -51.9,7.5 -36.1,-0.1 -44.2,-0.4 -43.3,-1.7 0.2,-0.5 -0.8,-0.8 -2.4,-0.8 -2.6,0.1 -2.7,0.2 -0.9,1.5 1.1,0.8 1.5,1.9 1,2.7 -1.2,2 -1.2,5.2 0,6.1 0.8,0.5 0.7,1 -0.3,1.6 -1.1,0.7 -1,1.1 0.5,2 1.6,0.9 1.7,1.2 0.4,2.1 -1.4,0.9 -0.7,1.4 1.3,1.1 0.5,-0.1 0.6,0.8 0.2,1.9 -0.4,1.2 -0.2,2 0.5,2 0.6,0 0.8,0.5 0.5,1 -0.4,0.6 -1.1,0.8 -1.6,0.5 -0.5,-0.4 -0.9,-0.1 -0.9,0.4 0,1 1.4,1.5 3.3,1.2 0.5,-0.1 0.6,0.3 0.3,0.8 -2,3.2 -13.6,-4.2 -19.5,-12.4 -1.7,-2.4 -7.3,-13.7 -12.4,-25.2 -9.2,-20.4 -9.4,-21.1 -11.8,-35.8 l -2.4,-15 -0.5,43 c -0.5,42 -0.6,43.1 -2.8,48.7 -4.8,11.8 -15.2,22.2 -26.9,27 -5.6,2.2 -6.9,2.3 -40.3,2.6 -29.9,0.3 -35.3,0.1 -40.8,-1.4 -7.7,-2 -16.3,-7.5 -21.8,-13.7 -7.6,-8.6 -7.3,-5.8 0.8,10 l 6.3,12.2 -4.5,4.5 c -2.5,2.5 -5.8,4.8 -7.3,5.2 -2.7,0.6 -2.8,0.5 -2.5,-2.2 0.2,-2.1 -0.4,-3.6 -2.2,-5.4 -3.3,-3.3 -5.8,-6.6 -4.3,-5.7 0.6,0.4 1.4,0.3 1.8,-0.3 0.3,-0.5 -0.1,-1 -1,-1 -0.9,0 -1.3,-0.4 -1,-1 0.3,-0.5 0.1,-1 -0.4,-1 -0.6,0 -1.1,-0.9 -1.1,-2 0,-1.1 -0.5,-2 -1.1,-2 -0.6,0 -0.8,-0.9 -0.4,-2.2 0.3,-1.3 0.3,-1.8 -0.2,-1.2 -0.4,0.6 -3.9,2.4 -7.8,4 l -7,2.9 -35.5,0.3 c -39,0.4 -42.7,0 -52.3,-5.1 -10.8,-5.7 -24.2,-21.6 -28.9,-34.4 -2,-5.4 -2.2,-8 -2.6,-36.5 L 601.8,1032 H 575.9 550 v 44.8 c 0,48.9 -0.5,53.8 -5.7,63.4 -3.5,6.4 -10.3,13.6 -16.3,17.1 -5.4,3.1 -15,5.8 -16.5,4.5 -0.5,-0.4 -2.3,-1.9 -3.8,-3.3 -1.5,-1.4 -3.2,-2.5 -3.8,-2.5 -0.5,0 -0.9,-0.7 -0.9,-1.7 0,-0.9 -0.3,-1.3 -0.7,-1 -0.3,0.4 -1.6,-0.5 -2.9,-1.8 -1.3,-1.4 -2.7,-2.5 -3.2,-2.5 -0.4,0 -1.8,-1 -2.9,-2.2 -1.2,-1.3 -3.5,-3.5 -5.1,-5 l -2.9,-2.8 h -35.6 c -35.2,0 -35.7,0 -42.3,-2.4 -7.2,-2.6 -20.6,-11.3 -28.7,-18.5 l -4.9,-4.5 2.7,5.3 c 1.5,3 4.6,7.5 7.1,10.1 l 4.4,4.7 -10.8,10.5 c -11.8,11.6 -16.8,14.9 -25.7,17.2 -7.2,1.9 -9.1,1.9 -13,-0.2 z m 1174.2,-194.8 -20.9,-20.5 7,-8.2 c 3.8,-4.5 10.8,-12.7 15.5,-18.2 4.8,-5.5 8.7,-10.3 8.7,-10.6 0,-0.4 -1,-1.8 -2.1,-3.3 l -2.2,-2.7 -31.1,30.8 c -29.6,29.4 -31.5,31.1 -38.6,34.3 -4.2,1.8 -8.6,4.6 -10,6.3 -1.4,1.6 -3.7,4.2 -5.1,5.7 l -2.7,2.7 9.2,0.6 c 5,0.4 25.2,0.7 44.8,0.7 31.3,0 44.9,0.8 46.6,2.5 0.3,0.3 0.8,0.5 1.1,0.5 0.3,-0.1 -8.8,-9.3 -20.2,-20.6 z m -160.8,11.1 c -0.1,-3 -0.5,-5.5 -1,-5.5 -0.5,0 -0.9,2.5 -0.9,5.5 0,3 0.4,5.5 1,5.5 0.5,0 0.9,-2.5 0.9,-5.5 z M 1503.4,798 c 9.5,-13.4 10.6,-15.4 11.2,-20.5 l 0.7,-5.5 -15.9,15.9 c -11.7,11.7 -17.5,16.7 -22,19 -9.2,4.9 -8.3,6.1 4.7,6.1 h 10.7 z"
       id="path8" />
    <path
       d="m 107.6,559.6 c -3.8,-1.3 -7.5,-3.2 -8.2,-4.2 -1.3,-1.8 -3.5,-4.5 -11.4,-13.4 -1.9,-2.2 -5.1,-5.8 -7,-8 -1.9,-2.2 -4.5,-5.2 -5.8,-6.5 -1.3,-1.4 -2.1,-2.5 -1.8,-2.5 0.2,0 -1,-1.5 -2.7,-3.3 C 66,516.8 58,507.8 54,503 47.4,495.1 40.5,488.3 35.6,484.9 29.8,480.8 13.6,462.3 9.8,455.3 3.6,444.1 4,457.4 4,240 4,25.1 3.7,37.4 9.5,26.1 13,19.2 22.1,10 28.8,6.6 40.3,0.8 34,1 173.7,1 c 91.5,0 129.7,0.3 133.5,1.1 6.9,1.5 14.4,4.9 18.8,8.5 2.7,2.2 44.6,45.4 55.6,57.3 1.2,1.3 5.7,-2.8 31.6,-28.5 21,-20.7 31.9,-30.8 35.4,-32.6 11,-5.9 8.7,-5.8 119.6,-5.8 71,0 103.3,0.3 107,1.1 12.3,2.6 14.2,4.1 48.1,37.8 L 755,71.5 785.2,42 c 16.5,-16.2 32.1,-31 34.6,-32.7 2.5,-1.8 7,-4.3 10.1,-5.5 l 5.6,-2.3 101.4,-0.3 c 112,-0.3 107.5,-0.5 119.3,6.1 4,2.2 14.2,11.4 33.2,29.9 l 27.4,26.8 0.7,-8.8 c 0.9,-12.1 3,-21.7 6.1,-28 3.6,-7.3 12.2,-16.3 19.2,-20 12.2,-6.5 4.8,-6.2 144.8,-6.2 80.9,0 129.1,0.4 132.5,1 11.9,2.2 16.6,5.7 41.1,29.7 12.5,12.3 23.1,22.3 23.6,22.3 0.4,0 2.3,-4.6 4.1,-10.2 1.8,-5.7 4.7,-13.1 6.4,-16.6 3.6,-7.4 11.6,-16 19,-20.2 11,-6.3 6.2,-6.1 146.7,-5.8 l 127.5,0.3 5.7,2.3 c 3.1,1.2 7.4,3.5 9.6,5 7.5,5 64.3,60.4 68.3,66.4 7.5,11.6 7,0.7 6.7,167.8 l -0.3,149.5 -2.4,5.7 c -4.7,11.5 -17,25.6 -48.5,56 -16.4,15.8 -32.1,30.2 -34.9,32 -2.9,1.8 -5.9,4.1 -6.7,5.1 -0.8,1.1 -2.7,3.2 -4.2,4.7 -1.5,1.6 -2.4,3.1 -2.1,3.4 0.4,0.3 -0.1,0.6 -1.1,0.6 -0.9,0 -1.4,0.4 -1.1,1 0.3,0.6 0.1,1 -0.6,1 -0.7,0 -0.9,0.3 -0.6,0.6 0.4,0.4 -0.3,1.5 -1.5,2.5 -1.1,1.1 -1.8,1.9 -1.4,1.9 0.4,0 -0.5,1.1 -1.9,2.5 -1.4,1.4 -2.5,3 -2.5,3.5 0,0.5 -0.6,1.5 -1.3,2.2 -1.5,1.6 -8.7,10.8 -10.7,13.8 -0.8,1.2 -2.2,3 -3,4 -0.8,1.1 -2.5,3.2 -3.7,4.7 -1.2,1.5 -3,3.8 -4,5 -2.4,2.9 -4.5,5.7 -6.3,8.4 -2.8,4.1 -7.2,7.8 -10.9,9.1 -2.9,1 -28.2,1.3 -124.6,1.3 h -121 l -6.8,-3.2 c -3.7,-1.8 -8.8,-4.9 -11.2,-6.8 l -4.4,-3.6 6.4,-13.2 c 3.4,-7.3 11.1,-23.2 17,-35.5 9,-18.6 10.5,-22.4 9.5,-23.7 -1.1,-1.4 -1.7,-1.1 -4.3,2.1 -1.7,2 -5.7,5.4 -8.9,7.4 -3.1,2.1 -5.4,4 -5.1,4.4 0.4,0.3 0,0.6 -0.8,0.6 -1.1,0 -1.1,0.2 0.1,1 1.1,0.7 1.1,1 0.2,1 -0.7,0 -1,0.5 -0.7,1 0.3,0.6 0.1,1 -0.5,1 -0.6,0 -0.8,0.5 -0.5,1 0.3,0.6 0.1,1 -0.5,1 -0.6,0 -0.8,0.5 -0.4,1.2 0.5,0.8 0.1,0.9 -1.2,0.4 -1.5,-0.6 -1.6,-0.5 -0.7,0.5 0.9,0.9 0.9,1.8 -0.3,4 -0.8,1.6 -1.9,2.9 -2.5,2.9 -0.6,0 -0.7,0.5 -0.4,1 0.3,0.6 0.1,1 -0.5,1 -0.6,0 -0.8,0.5 -0.5,1 0.3,0.6 0.1,1 -0.6,1 -0.8,0 -0.8,0.4 0.1,1.5 1,1.2 0.9,1.6 -0.4,2.1 -0.9,0.3 -1.3,1 -1,1.5 0.3,0.5 0,0.9 -0.6,0.9 -0.6,0 -0.8,0.5 -0.5,1 0.3,0.6 0.1,1 -0.5,1 -0.6,0 -0.8,0.5 -0.5,1 0.3,0.6 0.1,1 -0.5,1 -0.6,0 -0.8,0.5 -0.5,1 0.3,0.6 0.1,1 -0.5,1 -0.6,0 -0.8,0.5 -0.5,1 0.3,0.6 0.1,1 -0.4,1 -0.6,0 -1,0.3 -0.9,0.8 0.4,1.3 -1.3,5.2 -2.1,4.8 -0.4,-0.3 -0.8,0.4 -0.9,1.5 -0.4,4.2 -0.6,4.7 -1.7,4.2 -0.8,-0.2 -1.1,0.5 -1,2.1 0.2,1.9 -0.1,2.3 -1.3,1.9 -1,-0.4 -1.3,-0.2 -0.8,0.5 0.4,0.7 0.2,1.2 -0.6,1.2 -1,0 -1,0.2 0,0.9 1.1,0.7 1,1.6 -0.7,5 -1.2,2.2 -2.6,4.1 -3.2,4.1 -0.6,0 -0.7,0.5 -0.4,1 0.3,0.6 0.1,1 -0.5,1 -0.6,0 -0.9,0.4 -0.6,0.9 1.1,1.7 -3.2,5 -9.2,7 -5.7,2 -8.4,2.1 -38.7,2.1 -30.3,0 -33,-0.1 -38.7,-2.1 -15.8,-5.3 -26.7,-17.7 -29.8,-33.9 -0.6,-3.1 -1,-28.1 -1,-62.1 V 407 h -29 -29 l -0.2,-40.2 c -0.2,-40 -0.2,-39.8 -0.8,17.7 l -0.6,58 -2.7,9.5 c -3.7,13 -7.9,21.1 -14,27.2 -2.9,2.9 -5.1,5.6 -4.9,6.1 0.2,0.5 -0.3,0.7 -1.1,0.4 -0.7,-0.3 -1.4,0.1 -1.4,0.9 0,0.7 0.4,1.1 0.8,0.9 0.4,-0.3 0.6,0.3 0.4,1.2 -0.2,1 -0.4,2.2 -0.4,2.6 -0.1,0.5 -0.7,0.5 -1.3,0.1 -1,-0.5 -1,-0.4 0,0.7 1,1.1 0.9,1.6 -0.9,3 -1.7,1.2 -1.9,1.8 -0.9,2.4 0.9,0.6 1.1,0.4 0.5,-0.5 -0.5,-0.9 -0.4,-1.1 0.4,-0.6 0.8,0.6 0.9,1.2 0.2,2 -0.6,0.7 -0.7,1.7 -0.3,2.1 0.4,0.5 0,0.6 -0.9,0.3 -0.9,-0.4 -1.6,-0.1 -1.6,0.8 0,0.7 0.3,1.1 0.7,0.9 0.4,-0.2 0.7,0.3 0.7,1.1 0,0.8 -0.6,1.3 -1.3,1 -1.2,-0.5 -1.4,1.8 -0.2,3 1.1,1 -0.3,3.4 -1.6,2.7 -0.6,-0.4 -0.5,0.1 0.3,1 1.1,1.4 1.1,1.8 -0.3,2.3 -1.2,0.5 -1.4,1 -0.6,1.9 0.7,0.9 0.8,1.5 0.1,1.9 -0.6,0.4 -0.8,1.3 -0.5,2 0.3,0.8 0,1.7 -0.5,2.1 -0.6,0.3 -0.9,1.1 -0.6,1.6 0.4,0.5 0.2,0.9 -0.4,0.9 -0.5,0 -0.8,0.9 -0.6,2.1 0.3,1.4 0,1.9 -0.9,1.6 -0.7,-0.3 -1.3,0.1 -1.3,0.9 0,0.7 0.3,1.1 0.7,0.9 0.4,-0.2 0.7,0.3 0.7,1.1 0,0.8 -0.6,1.3 -1.2,1 -0.6,-0.2 -1.2,0.2 -1.2,1 0,0.7 0.3,1.1 0.7,0.9 0.4,-0.2 0.7,0.2 0.7,0.9 0,0.8 -0.6,1.2 -1.2,1 -0.6,-0.3 -1.2,0.2 -1.2,1 0,0.8 0.4,1.3 0.8,1.1 0.4,-0.3 0.6,0.3 0.4,1.2 -0.2,1 -0.4,2.2 -0.4,2.6 -0.1,0.5 -0.7,0.5 -1.3,0.1 -1,-0.5 -1,-0.4 -0.1,0.6 1.4,1.5 0.6,4.2 -1.1,3.3 -0.8,-0.4 -0.8,-0.2 0.1,0.7 1.2,1.3 0.7,4.3 -0.6,3.5 -0.4,-0.2 -0.8,0.2 -0.8,0.9 0,0.8 0.7,1.2 1.5,0.8 1,-0.3 1.3,-0.1 0.8,0.6 -0.4,0.7 -1.2,1.2 -1.7,1.2 -0.5,0 -1.9,0.9 -3.1,2 -1.2,1.1 -4.7,3 -7.7,4.2 -5.5,2.2 -6.6,2.3 -41.6,2.3 h -36 l -6.3,-2.9 c -7,-3.2 -12.6,-7.4 -16.7,-12.3 l -2.6,-3.3 4.6,-32.7 c 2.5,-18.1 4.8,-33.8 5,-35 0.5,-3.1 0.1,-2.9 -3.9,1.4 -2.4,2.6 -3.1,4.2 -2.5,5 0.7,0.7 0.6,1.4 -0.1,1.8 -0.7,0.4 -0.8,1.1 -0.1,1.8 1,1.3 -1,5.1 -2.2,4.2 -0.4,-0.3 -0.5,-0.2 -0.2,0.2 0.3,0.3 0,1.2 -0.6,1.9 -0.7,0.8 -0.6,1.4 0.2,2 0.8,0.5 0.9,0.3 0.4,-0.6 -0.6,-0.9 -0.4,-1.1 0.5,-0.5 0.9,0.6 1.1,0.4 0.5,-0.5 -0.5,-0.9 -0.4,-1.1 0.4,-0.6 0.9,0.6 0.9,1.1 0,2.2 -0.6,0.8 -0.8,1.4 -0.4,1.4 0.4,0 0.2,0.6 -0.4,1.4 -0.8,1 -0.9,1.6 -0.1,2.1 0.7,0.4 0.7,1.2 0,2.6 -0.6,1 -0.8,1.9 -0.4,1.9 0.4,0 -0.1,0.9 -1,1.9 -1.1,1.2 -1.3,2.1 -0.7,2.5 1.3,0.8 0.5,4.4 -1.4,6.6 -1.2,1.4 -1.3,2 -0.4,2.6 0.7,0.4 1,0.3 0.5,-0.4 -0.3,-0.6 -0.2,-1.3 0.2,-1.6 1.1,-0.7 0.9,3.4 -0.2,5.3 -0.7,1 -0.6,1.2 0.4,0.6 1.5,-0.9 0.6,0.9 -1.7,3.7 -1.1,1.2 -1.2,1.8 -0.2,2.4 0.7,0.4 1,0.3 0.5,-0.4 -0.3,-0.6 -0.2,-1.3 0.3,-1.6 0.5,-0.4 0.8,0.2 0.6,1.1 -0.2,1 -0.4,1.8 -0.6,1.8 -0.1,0 -0.2,1.2 -0.3,2.6 -0.1,1.5 -0.7,3.4 -1.4,4.2 -0.9,1 -1,1.7 -0.2,2.2 0.7,0.4 0.7,1.2 0,2.6 -0.6,1 -0.8,1.9 -0.4,1.9 0.3,0 0.2,0.6 -0.5,1.3 -0.6,0.9 -0.7,1.7 -0.1,2.3 1.6,1.6 -2.6,7.2 -7.7,10.5 -10.1,6.3 -14.1,6.9 -49.2,6.9 -23.6,0 -32.9,-0.4 -36.7,-1.4 -17.7,-4.7 -30.2,-19.7 -32.4,-38.7 -0.6,-4.6 -1,-27 -1,-49.6 V 431 H 942.5 903 v -2.2 c 0.1,-8 -4.3,-72.7 -5,-74.3 -0.7,-1.6 -1.3,43.6 -1.5,107.5 0,6.4 1,24.4 2,35 2.3,25.4 2.5,30.9 1.1,34.8 -5.1,14.3 -14.8,24 -28.5,28.2 -5.7,1.8 -9.3,2 -38.6,2 -37.3,0 -40.6,-0.5 -51.3,-8.4 -9.8,-7.3 -14.9,-16.1 -18.3,-31.8 -1.1,-5.1 -2.2,-9.9 -2.5,-10.7 -0.3,-0.9 -8.3,6.4 -22.8,20.7 -20.5,20.4 -23,22.5 -30.2,25.9 l -7.9,3.8 -98.2,0.3 c -97.5,0.2 -98.3,0.2 -104.5,-1.9 -3.4,-1.1 -8.5,-3.6 -11.4,-5.5 -5.1,-3.4 -5.4,-3.9 -17.5,-28.2 -6.7,-13.6 -13.8,-27.8 -15.8,-31.7 -1.9,-3.8 -4.3,-8.6 -5.3,-10.5 -1,-1.9 -14.2,-15.9 -29.4,-31 l -27.7,-27.5 4.1,7.5 c 2.2,4.1 7.7,14.7 12.2,23.5 4.5,8.8 11.4,22 15.2,29.3 l 7,13.3 -8.3,8.7 c -4.6,4.8 -16,16.7 -25.4,26.5 -18.1,19 -23,22.8 -32.6,25.8 -5.8,1.8 -11.1,1.9 -126.7,1.9 L 114.5,561.9 Z M 615,294.5 V 256 h -29 -29 v 38.5 38.5 h 29 29 z m 1056,0 V 256 h -15.5 -15.5 v 38.5 38.5 h 15.5 15.5 z M 899.3,179.3 c -0.9,-15.8 -2.2,-17 -2.2,-2 -0.1,10.4 0.2,12.7 1.3,12.7 1.2,0 1.4,-1.8 0.9,-10.7 z"
       id="path10" />
  </g>
  <g
     fill="#e70605"
     id="g30"
     transform="translate(-1.1140154,-0.99785757)">
    <path
       d="m 1062.8,1135.3 c -2.3,-5.7 -2.3,-6.6 -2.6,-46 l -0.3,-40.2 3.1,-17.6 c 1.7,-9.8 3,-20.1 2.8,-23.1 l -0.3,-5.4 -4.9,10.7 c -12.6,27.4 -21.6,45.1 -24.9,48.9 -4.9,5.5 -12.9,10.8 -20.5,13.3 -5.8,2 -8.3,2.1 -41.6,2.1 -39.4,0 -42.3,-0.4 -52.5,-6.9 -11.2,-7.2 -14.8,-12.9 -30.2,-48 l -5.4,-12.4 -0.5,43.4 c -0.5,42.8 -0.5,43.5 -2.9,49.4 -6.1,15.2 -18.5,26.3 -33.1,29.5 -3.9,0.8 -16,1.1 -40.6,0.8 l -35,-0.3 -7.8,-3.9 c -5.3,-2.6 -9.6,-5.7 -13.4,-9.6 l -5.6,-5.8 -5.7,5.8 c -3.8,3.9 -8.3,7.1 -13.5,9.6 l -7.8,3.9 h -40 -40.1 l -7.7,-3.8 c -12.2,-5.9 -22,-17 -27.1,-30.5 -2,-5.4 -2.1,-7.9 -2.7,-55.7 -0.3,-27.5 -0.7,-50.1 -0.8,-50.2 -0.1,-0.2 -18.6,-0.3 -41.2,-0.3 h -41 v 3.3 c 0,2.5 1.5,5.1 6.9,11.7 3.9,4.7 10.8,13.2 15.5,18.9 l 8.6,10.5 v 41.5 c 0,38.8 -0.8,54.1 -2.9,54.1 -1.3,0 -12,-10.8 -11.4,-11.4 0.4,-0.3 0.1,-0.6 -0.6,-0.6 -0.7,0 -5,-3.8 -9.6,-8.5 -4.6,-4.7 -8.7,-8.5 -9.2,-8.5 -0.4,0.1 -1.8,2.2 -3,4.8 -4.9,10.2 -15.3,19.2 -27.1,23.1 -5.8,2 -8.3,2.1 -42.1,2.1 -32.5,0 -36.5,-0.2 -42,-1.9 -12.8,-4 -28.1,-17.1 -33.6,-28.8 -1.6,-3.2 -3.3,-8.8 -3.9,-12.5 l -1,-6.8 -21.1,20.9 c -19,18.8 -21.8,21.2 -28.9,24.7 l -8,3.9 -102,0.3 c -113.8,0.3 -105.6,0.7 -120.8,-6.9 -8.6,-4.3 -9.2,-4.8 -48.6,-42.8 C 10.9,1061.6 9.8,1060.4 5.7,1052.2 L 1.5,1043.7 1.2,893.6 C 1,746.6 1,743.4 2.9,737 c 1.1,-3.6 3.7,-9 5.8,-12 4.9,-6.9 67.1,-63.5 74,-67.2 11,-6 5.1,-5.8 142,-5.8 88.2,0 126.8,0.3 130.5,1.1 14,3 23.4,10.6 36.3,30 l 8.8,13 6.6,-6.3 c 3.6,-3.5 12,-11.6 18.6,-17.9 12.6,-12.2 18,-15.8 28.2,-18.4 8.7,-2.3 201,-2.2 209.8,0 11,2.9 14.7,5.8 45,35.2 20.5,20 29.1,27.8 29.3,26.5 2,-11.2 9.4,-23.2 18,-29.6 5.8,-4.2 72.8,-35.8 81.1,-38.3 3.9,-1.1 8.2,-1.4 15.5,-1.1 8.7,0.4 11.1,0.9 16.8,3.5 7.2,3.4 16.3,11.2 20.1,17.2 1.2,2 20.7,43.7 43.3,92.6 22.6,49 41.4,89 41.8,89 0.4,0 20.7,-40.9 44.9,-90.8 47.1,-96.8 47.2,-96.9 58,-104.3 11,-7.4 28.7,-9.8 40.7,-5.6 9.3,3.3 71.9,33.9 77.1,37.8 4.4,3.2 5,3.4 5.5,1.7 0.3,-1 2.1,-5 4,-8.9 5.9,-12.4 18.7,-22.4 32.2,-25.3 7.4,-1.5 281.9,-1.6 289.4,0 16.5,3.4 31.5,17.6 35.8,33.7 l 1.1,4.3 15.7,-15.3 c 16.8,-16.4 22.9,-20.4 34,-22.7 3.7,-0.8 47.4,-1.1 146,-1.1 152.8,0 145.9,-0.2 157.1,5.4 7.5,3.9 15.4,11.7 19.3,19.3 4.8,9.1 6.2,15.8 5.5,25.7 -0.5,9 -2.9,16.1 -7.7,23.6 -1.8,2.8 -17.3,18.4 -35.7,36 -28.9,27.7 -33.2,31.4 -39.6,34.4 -4,1.9 -9.6,3.9 -12.5,4.5 -3.6,0.7 -32.1,1.1 -88.7,1.1 H 1673 v 5 4.9 l 71.3,0.3 c 79.6,0.4 76,0.1 87,7.6 6.4,4.3 63.7,63.5 67.9,70.2 1.6,2.5 3.8,7.4 4.9,11 1.9,6.3 1.9,9.1 1.7,73 l -0.3,66.5 -3.6,7.6 c -4,8.4 -14.2,19.8 -51,57 -17.3,17.6 -18.9,18.9 -26.9,22.7 -4.7,2.2 -10.3,4.5 -12.5,5.1 -2.8,0.8 -46.2,1.1 -144.6,1.1 -137.2,0 -140.8,0 -147,-2 -3.5,-1.1 -8,-3 -9.9,-4.4 l -3.5,-2.4 -3.5,3.1 -3.5,3.2 2.9,-3.3 3,-3.2 -3.3,-3.4 -3.3,-3.4 -7,5.3 c -3.9,2.9 -9.6,6.4 -12.7,7.7 l -5.6,2.3 -118,0.3 c -107.5,0.3 -118.6,0.1 -124.3,-1.4 -7.7,-2 -16.3,-7.5 -22,-13.9 l -4.2,-4.8 -6.9,6.7 c -4.5,4.3 -9.3,7.7 -13.8,9.9 l -6.8,3.2 -35.8,0.3 c -30.8,0.3 -36.7,0.1 -41.5,-1.3 -8.8,-2.6 -14.8,-6.3 -21.3,-13.3 -3.3,-3.5 -6.2,-6.2 -6.4,-6.1 -0.2,0.2 -0.5,1.8 -0.8,3.4 -0.3,1.7 -1.2,5.9 -2.1,9.5 -1.9,8.1 -2.7,12.1 -2.8,13.8 -0.2,2.7 -1.8,0.9 -4,-4.5 z m 502.3,-145.1 c 2.1,-1.2 6.3,-3.1 9.5,-4.3 5.7,-1.9 8.3,-2 78.1,-1.9 39.7,0 74,-0.2 76.1,-0.6 2.2,-0.3 5.1,-1.6 6.5,-2.8 1.4,-1.1 5.3,-4.1 8.6,-6.5 5,-3.6 6.1,-4.9 6.1,-7.2 V 964 h -72.2 l -72.3,-0.1 -6.7,-2.2 c -3.7,-1.3 -6.6,-1.9 -6.5,-1.4 0.1,0.5 -0.4,1.2 -1.2,1.5 -0.8,0.2 -1.1,0 -0.7,-0.6 0.3,-0.6 0.2,-1.3 -0.3,-1.6 -0.5,-0.4 -0.8,0.2 -0.6,1.1 0.1,1 -0.7,2.6 -1.9,3.6 -1.1,1 -1.5,1.5 -0.7,1.1 0.9,-0.5 1.2,-0.3 0.7,0.4 -0.5,0.8 -1.3,0.9 -2.5,0.3 -1.3,-0.7 -1.8,-0.6 -1.8,0.4 0,0.8 0.5,1.2 1.1,0.9 0.6,-0.3 -0.2,0.6 -1.9,2 -1.6,1.4 -3.7,2.4 -4.5,2 -0.8,-0.3 -1.1,-0.2 -0.7,0.2 0.4,0.4 0.1,1.4 -0.6,2.3 -1.1,1.4 -1,1.5 0.8,0.1 1.9,-1.4 1.9,-1.4 0.6,0.3 -0.8,1 -2,1.6 -2.7,1.3 -1.7,-0.6 -2.6,0.5 -1.4,1.8 0.6,0.8 0.3,1.2 -1.1,1.3 -1.2,0.1 -1.7,-0.2 -1.3,-1 0.4,-0.7 0.3,-0.8 -0.2,-0.4 -0.5,0.5 -0.9,1.2 -0.9,1.7 0,0.4 -1.1,1.8 -2.5,3 l -2.5,2.2 3.5,-2.2 3.5,-2.2 -3.5,3.1 c -3.6,3.2 -5.6,4 -4.4,1.9 0.4,-0.7 0.4,-1 0,-0.6 -0.4,0.3 -0.8,1 -0.8,1.5 0,0.4 -0.5,1.4 -1.1,2.2 -0.9,1.2 -0.9,1.3 0.1,0.7 2.4,-1.5 1.1,0.2 -1.5,2 -2.2,1.4 -2.5,1.4 -1.5,0.2 1,-1.3 1,-1.8 0.1,-2.4 -0.7,-0.4 -0.9,-0.3 -0.5,0.4 0.3,0.6 0.2,1.3 -0.4,1.7 -0.6,0.4 -0.8,1.1 -0.4,1.6 0.3,0.6 -0.2,0.9 -1.2,0.7 -1,-0.2 -1.9,0.2 -1.9,0.7 -0.1,1.6 -1.5,3.5 -2.6,3.5 -0.6,0 -0.7,-0.5 -0.3,-1.2 0.4,-0.7 0.3,-0.8 -0.4,-0.4 -0.9,0.5 -0.9,1.2 0,2.6 1.1,1.8 1.4,1.7 5.3,-1.8 2.2,-2.1 5.6,-4.8 7.6,-6 z m -52.2,-23.6 -20.6,-20.2 17.9,-21 c 9.9,-11.5 18.4,-21.7 18.9,-22.7 0.8,-1.3 0.4,-2.5 -1.3,-4.6 l -2.3,-2.9 -31,30.8 c -29,28.7 -31.5,31 -38.9,34.6 l -8,3.9 -48.8,0.3 -48.8,0.3 v 9.4 9.4 l 88.8,0.3 c 65.8,0.2 89.3,0.6 91.2,1.5 1.4,0.6 2.7,1.2 3,1.2 0.3,0 -8.8,-9.1 -20.1,-20.3 z M 236.8,979.1 c 0.2,-2.5 0.1,-5.5 -0.3,-6.8 L 236,970 h -39 -39 v 2.9 c 0,2.3 0.8,3.4 3.5,5.1 2,1.2 4.1,2.8 4.9,3.5 2,2.1 4.9,2.2 38.6,2.1 l 31.5,-0.1 z M 602,826.1 c 0,-8.2 -0.3,-16.3 -0.6,-18 L 600.8,805 H 559.9 519 v 2.3 c 0,1.3 1.6,5 3.6,8.3 2,3.2 4.2,6.8 4.8,7.9 0.6,1.1 2.8,4.6 4.9,7.8 2,3.1 3.7,6.1 3.7,6.5 0,2.9 3,3.2 34.2,3.2 H 602 Z m -415.6,-3.6 8,-4 73.9,-0.7 73.9,-0.6 2.4,-2.3 c 2,-1.9 2.2,-2.4 0.8,-3.3 -1.3,-1 -1,-1.6 1.8,-4.1 l 3.3,-3 -2.8,3.1 c -2.5,2.8 -2.6,3.2 -1.1,3.8 1.5,0.6 1.5,0.9 -0.5,3 -2.5,2.7 -2.1,3.3 2.9,3.7 2.5,0.2 3.4,0 3.2,-1 -0.1,-0.7 0.2,-1 0.8,-0.6 0.6,0.3 0.8,1.1 0.5,1.6 -0.4,0.5 -0.5,0.9 -0.3,0.9 0.2,0 2.7,0.9 5.5,1.9 l 5.2,1.9 0.1,-34.2 V 754.5 L 343.8,775 c -13.2,13.3 -22.2,21.7 -25.8,23.7 -10.9,6.4 -10.1,6.3 -88.7,6.3 H 158 v 2.3 c 0,1.4 2.1,4.1 6.1,7.7 3.3,3 7.7,7 9.7,8.8 1.9,1.8 3.8,3.1 4.1,3 0.3,-0.2 4.2,-2.1 8.5,-4.3 z m 1321.1,-27.7 12.9,-18.3 0.4,-6.5 0.3,-6.5 -14.8,15 c -11.1,11.3 -16.4,15.8 -21.2,18.4 -11.6,6.1 -10.9,6.1 -75.8,6.1 l -59.3,0.1 v 4.9 5 h 72.3 72.2 z"
       id="path14" />
    <path
       d="m 349,813.5 c 1.9,-1.9 3.6,-3.5 3.9,-3.5 0.3,0 -1,1.6 -2.9,3.5 -1.9,1.9 -3.6,3.5 -3.9,3.5 -0.3,0 1,-1.6 2.9,-3.5 z"
       id="path16" />
    <path
       d="m 343,808.5 c 1.9,-1.9 3.6,-3.5 3.9,-3.5 0.3,0 -1,1.6 -2.9,3.5 -1.9,1.9 -3.6,3.5 -3.9,3.5 -0.3,0 1,-1.6 2.9,-3.5 z"
       id="path18" />
    <path
       d="m 339.7,809 c 1.9,-2 2,-2.5 0.7,-3.4 -1.3,-1 -1,-1.6 1.8,-4.1 l 3.3,-3 -2.7,3 c -2.4,2.6 -2.5,3.2 -1.2,4 1.3,0.9 1.1,1.4 -1.3,3.5 -2.8,2.4 -2.8,2.4 -0.6,0 z"
       id="path20" />
    <path
       d="m 335.6,806.2 c -0.3,-0.5 1,-2.4 2.9,-4.2 2.5,-2.5 3.1,-3.6 2.2,-4.2 -0.9,-0.6 -0.9,-0.8 0,-0.8 2.5,0 2.1,1.8 -1.2,5 -1.9,1.8 -3.2,3.7 -2.9,4.2 0.3,0.4 0.3,0.8 0,0.8 -0.3,0 -0.7,-0.4 -1,-0.8 z"
       id="path22" />
    <path
       d="m 329,797.7 c 0,-0.2 1.5,-1.6 3.3,-3.3 l 3.2,-2.9 -2.9,3.3 c -2.8,3 -3.6,3.7 -3.6,2.9 z"
       id="path24" />
    <path
       d="m 335,794.5 c 1.9,-1.9 3.6,-3.5 3.9,-3.5 0.3,0 -1,1.6 -2.9,3.5 -1.9,1.9 -3.6,3.5 -3.9,3.5 -0.3,0 1,-1.6 2.9,-3.5 z"
       id="path26" />
    <path
       d="m 1331,533.5 c -2.6,-6.9 -3,-15.3 -3,-65.9 0,-59.2 -0.8,-51.4 7.5,-77.1 1.8,-5.5 4.3,-13.4 5.5,-17.5 1.3,-4.1 4.5,-14.2 7.1,-22.5 8,-25.3 9,-29.1 8.7,-33.6 l -0.3,-4.4 h -43.5 -43.5 l -0.6,65 c -0.4,49.3 -0.8,66 -1.8,69 -4.7,14.6 -15.9,26.6 -29.5,31.6 -4.3,1.6 -8.8,1.8 -42.5,1.9 -39.9,0 -42.9,-0.3 -52,-4.9 -2.4,-1.3 -7.3,-5.1 -10.9,-8.6 l -6.4,-6.3 -2.4,2.6 c -1.3,1.5 -2.4,3 -2.4,3.5 0,1.7 -12.5,9.7 -18.2,11.6 -5.8,2 -8.2,2.1 -43.2,2.1 -39.3,0 -42.5,-0.3 -51.5,-5 -6.1,-3.1 -14.8,-11.5 -18.3,-17.7 -1.7,-2.9 -3.2,-5.3 -3.3,-5.3 -0.2,0 -0.5,15.6 -0.6,34.8 -0.2,43.4 -0.2,45.3 -1.2,44.3 -2.4,-2.4 -2.9,-22.7 -2.5,-105.6 l 0.3,-87 -42.7,-0.3 -42.7,-0.2 -0.3,51.7 c -0.4,49.5 -0.5,52.1 -2.5,58 -4.3,12.7 -13.3,23 -25.1,28.6 l -6.7,3.2 -38.8,0.3 c -35.7,0.2 -39.3,0.1 -45.1,-1.6 -11.2,-3.4 -21.9,-12 -26.8,-21.7 -1.1,-2.2 -2.4,-4.2 -2.7,-4.5 -1.3,-0.9 -3.1,-10.9 -3.7,-20.5 l -0.7,-9.6 -25.6,25.5 c -22.9,22.8 -26.4,25.8 -32.6,28.8 l -7,3.3 -107,0.3 c -79.5,0.2 -108.4,0 -112.5,-0.9 -11.2,-2.4 -13.8,-4.4 -45.6,-36.1 l -30.1,-30 -14.5,14.9 c -8,8.1 -16.2,16.6 -18.2,18.8 -22.3,23.9 -30.2,30 -41.9,32.5 -3.6,0.7 -45.8,1 -138.2,0.8 l -133,-0.3 -7.3,-3.4 C 19.2,470.4 9.1,458 5.5,444.5 4.2,439.3 4,415.2 4,240 4,25.1 3.7,37.4 9.5,26.1 13,19.2 22.1,10 28.8,6.6 40.3,0.8 34,1 173.7,1 c 91.5,0 129.7,0.3 133.5,1.1 6.9,1.5 14.4,4.9 18.8,8.5 2.7,2.2 44.6,45.4 55.6,57.3 1.2,1.3 5.7,-2.8 31.6,-28.5 21,-20.7 31.9,-30.8 35.4,-32.6 11,-5.9 8.7,-5.8 119.6,-5.8 71,0 103.3,0.3 107,1.1 12.3,2.6 14.2,4.1 48.1,37.8 L 755,71.5 785.2,42 c 16.5,-16.2 32.1,-31 34.6,-32.7 2.5,-1.8 7,-4.3 10.1,-5.5 l 5.6,-2.3 101.4,-0.3 c 112,-0.3 107.5,-0.5 119.3,6.1 4,2.2 14.2,11.4 33.2,29.9 l 27.4,26.8 0.7,-8.8 c 0.9,-12.1 3,-21.7 6.1,-28 3.6,-7.3 12.2,-16.3 19.2,-20 12.2,-6.5 4.8,-6.2 144.8,-6.2 80.9,0 129.1,0.4 132.5,1 11.9,2.2 16.6,5.7 41.1,29.7 12.5,12.3 23.1,22.3 23.6,22.3 0.4,0 2.3,-4.6 4.1,-10.2 1.8,-5.7 4.7,-13.1 6.4,-16.6 3.6,-7.4 11.6,-16 19,-20.2 11,-6.3 6.2,-6.1 146.7,-5.8 l 127.5,0.3 5.7,2.3 c 3.1,1.2 7.4,3.5 9.6,5 6.9,4.6 64.8,60.8 68.2,66.2 1.8,2.7 4.1,7.7 5.1,11.1 1.8,5.9 1.9,11.6 1.9,154.7 v 148.7 l -2.4,6.7 c -1.3,3.7 -4.2,9.2 -6.4,12.3 -5.1,7.3 -62.3,62.2 -68.5,65.8 -10.3,6.1 -1.3,5.7 -142.6,5.7 -71.3,0 -130.3,-0.2 -131.1,-0.4 -9.2,-1.8 -19.5,-7.5 -25.3,-13.8 l -3.8,-4.1 -4.2,4.2 c -5.5,5.7 -11.8,10 -18,12.3 -4.5,1.7 -8,1.9 -42.2,1.8 -40.8,0 -44.3,-0.4 -53.9,-6 -5.5,-3.1 -11.9,-9.3 -15.9,-15.4 l -2.5,-3.8 -1.6,3.1 c -0.9,1.7 -1.3,3.1 -0.9,3.1 0.5,0 0,0.5 -0.9,1.1 -0.9,0.5 -1.5,1.6 -1.2,2.3 0.3,0.7 -0.4,3 -1.6,5 -1.1,2.1 -1.6,3.4 -1,3.1 0.7,-0.4 0.3,1 -0.8,3.1 -1.1,2.2 -1.7,4.5 -1.4,5.3 0.2,0.8 0,1.1 -0.5,0.8 -0.5,-0.3 -0.9,0.2 -1,1.1 -0.1,1.6 -1.6,6 -4.4,12.7 -0.7,1.7 -1.4,3.9 -1.6,4.9 -0.2,1.1 -0.8,2.6 -1.5,3.3 -0.6,0.7 -0.8,1.6 -0.5,1.9 0.3,0.4 -0.3,2.4 -1.4,4.5 -1.1,2.2 -1.7,3.9 -1.4,3.9 0.3,0 -0.3,1.7 -1.4,3.8 -1,2 -2,4.2 -2,4.7 -0.4,2.4 -3.2,11.1 -4.1,12.5 -0.7,1.1 -1.1,0.8 -2,-1.5 z M 244,321.5 V 310 h -45 -45 v 11 10.9 l 6.8,0.4 c 3.7,0.2 23.9,0.4 45,0.5 L 244,333 Z M 614.7,275.3 C 614.3,243.5 614,201.9 614,182.8 V 148.1 L 568.5,148 H 523 v 92 92 l 17.3,0.3 c 9.4,0.1 30.2,0.4 46.1,0.5 l 28.9,0.2 z M 1671,298.2 v -34.8 l 2.6,-5 c 1.4,-2.7 3.3,-6.2 4.3,-7.9 1,-1.6 4.1,-7.5 7.1,-13 2.9,-5.5 5.6,-10.4 6,-11 0.4,-0.5 3.2,-5.7 6.2,-11.5 3.1,-5.8 8.9,-16.6 13,-24 4.1,-7.4 9.5,-17.3 11.8,-22 2.4,-4.7 5,-9.2 5.8,-10.1 0.8,-1 1.2,-3.4 1,-6 l -0.3,-4.4 -43.3,-0.3 c -34.7,-0.2 -43.3,0 -43.6,1 -0.3,0.7 -0.7,42.4 -1.1,92.6 l -0.7,91.2 h 15.6 15.6 z M 983,169.1 v -21 H 940 L 897,148 v 21 21 h 43 43 z m 373.4,-8.8 c 0.3,-2.1 0.6,-5.6 0.6,-7.8 v -4 h -43.8 -43.7 l -0.3,7.8 -0.3,7.7 h 43.4 43.4 z M 244,155 v -7 l -44.7,0.3 -44.8,0.3 -0.3,6.7 -0.3,6.7 h 45.1 45 z"
       id="path28" />
  </g>
  <g
     fill="#ffffff"
     id="g52"
     transform="translate(-1.1140154,-0.99785757)">
    <path
       d="m 77.8,1084.8 c -15.6,-14.9 -28.9,-28.1 -29.5,-29.2 -0.7,-1.2 -3.1,-6.7 -5.3,-12.3 l -4,-10.1 V 891.3 C 39.1,782 39.3,749 40.3,747.4 41,746.2 55,733 71.5,718.1 l 30,-27.1 H 225 c 107.4,0 123.8,0.2 125.7,1.5 1.2,0.8 4,6.3 6.7,13 4.4,11.1 5.2,14.7 4,17.8 -0.3,0.9 -8.3,8.7 -17.7,17.4 -9.5,8.7 -22.8,21 -29.6,27.3 l -12.4,11.5 -90.6,0.5 -90.6,0.5 v 121 121 h 77.5 77.5 v -38 -38 l -58.6,-0.3 -58.6,-0.2 -2.1,-2.3 c -3.2,-3.4 -11,-24 -10.4,-27.7 0.3,-2.4 6.4,-8.9 28.9,-31 l 28.4,-28 h 70.3 70.3 l 2.1,2.3 c 1.2,1.3 4.1,6.8 6.4,12.2 l 4.3,10 0.3,84.5 c 0.2,55.4 0,85.7 -0.7,88 -0.8,2.6 -7.8,10.2 -28.4,30.8 l -27.3,27.2 h -97.2 -97.1 z"
       id="path32" />
    <path
       d="m 413.7,1109.6 c -1.1,-1.3 -4,-7.2 -6.3,-13.2 l -4.3,-10.9 v -168 c 0,-129.9 0.2,-168.5 1.2,-170.2 0.7,-1.1 13.7,-14.3 28.9,-29.2 L 460.9,691 h 97.5 97.5 l 28.4,28 28.5,28 4.3,10.3 4.4,10.2 0.3,168 c 0.1,92.4 0,169 -0.3,170.3 -0.3,1.2 -1.4,3.1 -2.5,4.2 -1.9,1.9 -3.5,2 -33.9,2 h -32 l -1.9,-2.5 c -1.1,-1.4 -3.7,-6.7 -5.8,-11.8 l -3.9,-9.2 -0.5,-59 -0.5,-59 h -78 -78 l -0.5,68.6 c -0.5,65.8 -0.6,68.8 -2.4,70.8 -1.9,2.1 -2.7,2.1 -33.8,2.1 h -32 z m 227.1,-279.3 -0.3,-49.8 h -78 -78 l -0.3,49.8 -0.2,49.7 h 78.5 78.5 z"
       id="path34" />
    <path
       d="m 787.3,1110.5 c -1.2,-0.8 -4,-6.3 -6.7,-13 L 776,1086 v -182.9 -183 l 2.3,-2.4 c 2.2,-2.5 68.1,-33.7 71.1,-33.7 3.3,0 6.9,2.6 8.8,6.4 1.2,2.3 27.6,59.3 58.8,126.8 L 973.7,940 1026,832.2 c 28.8,-59.2 56.5,-116.3 61.7,-126.8 9.4,-19.3 11,-21.4 16.1,-21.4 2.6,0 66.4,30.9 68.8,33.4 1.2,1.1 4,6.8 6.3,12.6 l 4.1,10.5 v 183.6 183.6 l -2.3,2.1 c -2.3,2.2 -2.9,2.2 -32.4,2.2 h -30.2 l -1.9,-2.5 c -1.1,-1.4 -3.7,-6.7 -5.8,-11.8 l -3.9,-9.2 -0.5,-114.4 -0.5,-114.5 -44.9,96.8 c -27.4,59 -45.7,97.3 -47,98.2 -1.7,1.1 -7.6,1.4 -32.4,1.4 h -30.4 l -2.6,-2.9 C 946.6,1051.3 926.9,1008.4 900,948 L 854.5,845.8 854,976.1 c -0.5,135.5 -0.5,133.7 -4.6,135.3 -0.8,0.3 -14.7,0.6 -30.8,0.6 -24.1,0 -29.5,-0.3 -31.3,-1.5 z"
       id="path36" />
    <path
       d="m 1248.8,1109.8 c -1.1,-1.3 -3.9,-7.2 -6.4,-13.1 l -4.4,-10.8 v -195 -195 l 2.5,-2.4 2.4,-2.5 h 138.6 138.6 l 2.3,2.3 c 2.8,2.8 10.6,22.4 10.6,26.7 0,3.7 -1.9,5.9 -33.9,38.3 l -21.6,21.7 h -79.2 -79.3 v 36 36 h 86.5 c 95.6,0 90.7,-0.3 93.9,6.4 4.6,9.8 8.7,22 8.1,24.5 -0.4,1.6 -11.4,13.4 -28.8,30.9 l -28.2,28.2 h -65.7 -65.8 v 40.5 40.5 h 100.4 c 94.1,0 100.5,0.1 102.5,1.8 2.8,2.2 11.1,22.4 11.1,26.9 0,4.1 -1.4,5.6 -33.9,38.6 l -21.6,21.7 h -113.3 -113.4 z"
       id="path38" />
    <path
       d="m 1541.3,1109.8 c -3,-3.3 -10.5,-21.7 -10.5,-25.9 -0.1,-2 0.6,-4.7 1.5,-5.9 0.8,-1.2 13.3,-14.1 27.7,-28.6 l 26.2,-26.4 h 104.4 104.4 v -41 -41 h -85.5 -85.5 l -27,-26.2 -26.9,-26.2 -4.6,-11.3 -4.5,-11.3 v -59 -59 l 3.7,-4.1 c 2,-2.2 15,-15 28.9,-28.5 l 25.2,-24.4 h 139.5 139.5 l 2.4,2.8 c 3.7,4.5 11.2,24.5 10.4,27.9 -0.4,1.5 -3.3,5.3 -6.4,8.3 -3.2,3 -16.2,15.5 -28.9,27.8 L 1852.2,780 H 1747.1 1642 v 35.5 35.5 h 83.8 83.7 l 13.4,13.7 c 7.3,7.6 20.3,21.1 28.8,30 l 15.4,16.2 4.5,11 4.4,11.1 v 59.6 59.5 l -17.9,18.7 c -9.8,10.3 -22.8,23.8 -28.7,30 l -10.9,11.2 h -137.6 -137.6 z"
       id="path40" />
    <path
       d="M 57.4,461.3 C 53.8,460.6 51.4,457 46.8,446 L 42.5,435.5 V 240.3 45.2 l 2.4,-2.6 2.4,-2.6 h 127.1 127.1 l 11.4,11.7 c 6.2,6.5 18.3,19.1 26.8,28 l 15.4,16.2 4.5,11 4.4,11.1 v 54.8 54.8 l -4.2,4 c -2.4,2.2 -7.7,6.9 -11.8,10.4 -4.1,3.4 -7.6,6.6 -7.8,7 -0.2,0.4 3.1,3.9 7.3,7.7 7.2,6.7 7.7,7.5 12,18.1 L 364,286 v 59 59 l -6.9,7.7 c -3.8,4.3 -16.2,17.3 -27.4,28.8 l -20.4,21 -124.9,0.1 c -68.7,0.1 -125.9,0 -127,-0.3 z M 283,331.5 V 291 l -79.7,0.2 -79.8,0.3 -0.3,39 c -0.1,21.4 0,39.6 0.3,40.2 0.3,1 17.2,1.3 80,1.3 H 283 Z m 0,-166 V 130 h -80 -80 v 35.5 35.5 h 80 80 z"
       id="path42" />
    <path
       d="m 476.5,460.6 c -1.6,-0.8 -15,-13.5 -29.8,-28.3 L 420,405.4 415.5,394.6 411,383.8 V 240.2 96.5 L 439.3,68.3 467.5,40 h 101 100.9 l 27.8,27.7 27.8,27.7 4.5,11.3 4.5,11.3 v 143.2 143.2 l -28.5,28.6 -28.5,28.5 -98.7,0.2 c -82,0.2 -99.3,0 -101.8,-1.1 z M 653,251 V 130 H 572.5 492 v 121 121 h 80.5 80.5 z"
       id="path44" />
    <path
       d="m 799.4,461.3 c -3.6,-0.7 -6,-4.3 -10.3,-15.1 L 785,436 V 266.1 96.2 L 813.6,68.1 842.3,40 h 97.4 97.4 l 27.7,27.1 c 15.2,14.9 28.2,27.8 28.8,28.8 0.7,1 3.1,6.4 5.3,12 l 4.1,10.1 v 169 168.9 l -2.4,2.8 -2.4,2.8 -28.9,0.3 c -30.6,0.4 -35,-0.1 -37.5,-4.1 -0.8,-1.2 -3.4,-7 -5.6,-12.9 L 1022,434.2 V 376.6 319 l -78.2,0.2 -78.3,0.3 -0.2,68 c -0.2,49.1 -0.6,68.6 -1.4,70.2 -0.7,1.2 -2.5,2.7 -4.2,3.3 -2.9,1 -55.5,1.3 -60.3,0.3 z M 1022,180 V 130 H 943.5 865 v 49.3 c 0,27.2 0.3,49.7 0.7,50 0.3,0.4 35.7,0.7 78.5,0.7 h 77.8 z"
       id="path46" />
    <path
       d="m 1170.4,460.6 c -3.3,-1.5 -4.1,-2.9 -9.8,-17.2 l -3.6,-9.1 V 240.6 c 0,-206.8 -0.2,-198.2 4.5,-200 0.9,-0.3 58.3,-0.6 127.4,-0.6 h 125.8 l 26.9,26.4 27,26.4 4.2,10.6 4.2,10.7 v 57.8 c 0,44.7 -0.3,58.1 -1.2,59.3 -0.7,0.8 -6.2,5 -12.3,9.2 -6,4.3 -11.1,8.1 -11.3,8.5 -0.1,0.4 3.3,3.6 7.7,7 4.4,3.5 8.2,6.8 8.4,7.4 0.3,0.7 2.4,5.7 4.6,11.1 l 4.1,9.9 v 86.2 86.2 l -2.6,2.4 -2.6,2.4 h -30.8 -30.8 l -2.5,-2.3 c -1.4,-1.3 -4.5,-7.4 -7.1,-14.2 L 1396,433.1 V 363 293 l -78.7,0.2 -78.8,0.3 -0.5,81.7 -0.5,81.7 -2.3,2.3 c -2.2,2.3 -2.5,2.3 -32,2.5 -23.4,0.2 -30.4,0 -32.8,-1.1 z M 1396,166.5 V 130 h -79 -79 v 36.5 36.5 h 79 79 z"
       id="path48" />
    <path
       d="m 1543.3,461.3 c -3.4,-0.6 -5.8,-4.4 -10.3,-15.8 l -4,-10.3 V 240 44.9 l 2.5,-2.4 2.4,-2.5 h 124.1 124 l 28.3,27.2 c 15.5,14.9 28.7,27.9 29.3,28.7 0.6,0.9 2.9,6.3 5.2,12.1 l 4.2,10.5 v 142.2 c 0,78.2 -0.3,142.8 -0.6,143.6 -0.9,2.4 -56.2,55.1 -59.2,56.4 -2.1,0.9 -31.2,1.2 -123.2,1.1 -66.3,0 -121.5,-0.3 -122.7,-0.5 z M 1768,251 V 130 h -79 -79 v 121 121 h 79 79 z"
       id="path50" />
  </g>
</svg>
