<?xml version="1.0" encoding="UTF-8" standalone="no"?>
<svg
   version="1.0"
   width="2447.1001"
   height="718"
   viewBox="0 0 2447.1001 718"
   preserveAspectRatio="xMidYMid meet"
   id="svg60"
   sodipodi:docname="auto-platform-fr.svg"
   inkscape:version="1.1.2 (0a00cf5339, 2022-02-04, custom)"
   xmlns:inkscape="http://www.inkscape.org/namespaces/inkscape"
   xmlns:sodipodi="http://sodipodi.sourceforge.net/DTD/sodipodi-0.dtd"
   xmlns="http://www.w3.org/2000/svg"
   xmlns:svg="http://www.w3.org/2000/svg">
  <defs
     id="defs64" />
  <sodipodi:namedview
     id="namedview62"
     pagecolor="#ffffff"
     bordercolor="#666666"
     borderopacity="1.0"
     inkscape:pageshadow="2"
     inkscape:pageopacity="0.0"
     inkscape:pagecheckerboard="0"
     showgrid="false"
     inkscape:zoom="0.4365047"
     inkscape:cx="1224.5"
     inkscape:cy="359.6754"
     inkscape:window-width="1920"
     inkscape:window-height="1017"
     inkscape:window-x="-8"
     inkscape:window-y="-8"
     inkscape:window-maximized="1"
     inkscape:current-layer="svg60" />
  <g
     fill="#000000"
     id="g18"
     transform="translate(-0.9,-1)">
    <path
       d="M 17.2,702.7 0.9,686.3 2,662.4 c 0.6,-13.1 1.5,-32.4 2,-42.9 0.5,-10.4 1.4,-28.4 2,-40 1,-20.8 2.1,-41.8 4,-80.7 0.6,-11.2 1.4,-29.3 1.9,-40.2 L 12.8,438.7 29.6,421.9 46.5,405 h 67.4 c 55.2,0 67.7,0.2 69,1.4 0.9,0.7 8.5,6 16.9,11.7 8.4,5.7 16,10.8 16.8,11.4 1.1,0.8 4.7,-2.3 15.8,-13.4 l 14.4,-14.4 7.9,1.1 c 4.3,0.6 12.1,1.6 17.3,2.2 5.2,0.6 13.1,1.5 17.5,2 4.4,0.5 12.5,1.4 18,2 5.5,0.7 13,1.6 16.7,2.1 3.7,0.5 8.2,0.9 10,0.9 3,0 5.1,1.8 20.4,17.2 l 17.1,17.3 -3.3,49.5 c -1.8,27.2 -3.3,52.3 -3.3,55.8 -0.1,7 -0.7,6.7 9.7,5.3 3.7,-0.5 11,-1.5 16.2,-2.1 12.9,-1.4 25.1,-3 33.4,-4.1 l 7,-1 4.1,4.1 c 2.2,2.2 4.5,4 5,4 0.6,0 4.4,-5.8 8.5,-12.8 4.1,-7 13.3,-22.6 20.5,-34.7 7.3,-12.1 19.1,-31.9 26.3,-44 l 13.1,-22 16.8,-16.7 16.8,-16.7 11.5,-1.1 c 6.3,-0.6 15.8,-1.5 21,-2 5.2,-0.5 14.8,-1.5 21.4,-2.1 l 11.9,-1.1 16.6,16.6 c 15.7,15.8 16.8,17.1 20.6,25.4 7.4,16.5 10.3,22.7 15.2,32.7 l 4.8,10 0.3,-26 0.2,-26.1 16.8,-16.7 16.7,-16.7 41.5,1 c 22.8,0.5 72.6,1.4 110.5,2 38,0.6 74.5,1.2 81.2,1.3 l 12.3,0.2 7.9,7.9 8,8 10.9,-10.7 10.8,-10.7 h 80.9 80.9 l 6.8,6.7 6.8,6.7 6.8,-6.6 6.7,-6.7 84,0.6 84,0.6 16.5,16.7 c 9.2,9.2 16.4,17.2 16.2,17.9 -0.7,2.2 1.9,1 13,-6.1 6.2,-3.9 19.1,-12 28.7,-18.1 l 17.4,-10.9 6.6,0.6 c 3.6,0.3 23.7,1.1 44.6,1.6 l 38,1.1 15.8,15.7 c 8.7,8.6 19.2,19.9 23.3,25 4.1,5 7.7,9.2 8,9.2 0.3,0 0.4,-1.8 0.3,-4 -0.3,-4 -0.1,-4.2 16,-20.4 l 16.4,-16.4 12.8,-1.1 c 7.1,-0.6 18.8,-1.5 25.9,-2.1 7.2,-0.5 18.7,-1.4 25.8,-2 7,-0.5 19,-1.4 26.7,-2 7.7,-0.6 19,-1.5 25,-2 22.9,-2 21.8,-2.2 31.7,5.1 4.7,3.5 10.8,8 13.5,9.9 38.2,27.8 41,30.1 56.5,45.7 l 15.7,15.8 1.1,16.5 c 0.6,9.1 1.5,21.9 2,28.5 0.5,6.6 1.2,16.6 1.6,22.2 l 0.7,10.2 -7.4,8.3 c -4.1,4.6 -7.6,8.5 -7.9,8.8 -4.2,4.2 -17,19 -17,19.6 0,0.8 8.1,8.2 12.1,11.1 1.8,1.3 2.5,0.2 20.7,-33.7 1.9,-3.6 6.1,-11.2 9.2,-17 3.2,-5.8 7.9,-14.5 10.5,-19.5 2.6,-4.9 5.6,-10.3 6.5,-12 1,-1.6 4.1,-7.5 7,-13 2.9,-5.5 6,-11.3 7,-13 0.9,-1.6 3.9,-7 6.5,-12 2.7,-4.9 5.8,-10.8 7,-13 5.3,-9.6 8.6,-15.6 13.5,-25 4.9,-9.2 6.8,-11.5 22.4,-27.2 l 17,-17.3 h 35.1 35 l 16.2,16.2 16.3,16.3 16.3,-16.3 16.2,-16.2 31,-1 31,-1 16.6,16.6 16.7,16.7 5.7,20.1 c 3.1,11 6.1,20.5 6.6,21 0.5,0.6 0.9,0.7 0.9,0.4 0,-0.4 1,-5.3 2.1,-11 2.3,-11.3 3.1,-15.2 4.9,-24.7 l 1.3,-6.5 16.6,-16.8 16.6,-16.8 h 81.5 81.5 l 16.6,16.6 16.6,16.5 -0.8,4.2 c -1.5,8.9 -2.9,16 -7.8,40.1 l -5,24.9 -11.3,11.4 -11.3,11.3 6.1,6.2 6.1,6.3 -0.7,12.5 c -0.5,6.9 -1.1,18.6 -1.5,26 -0.5,9.4 -1.2,14 -2.2,15.1 -1.3,1.5 -0.2,2.9 10.1,13.4 6.4,6.4 11.6,12 11.6,12.5 0,0.5 1.4,3.9 3,7.5 1.7,3.6 3,6.8 3,7 0,0.2 1.3,3.4 3,7 1.7,3.6 3,6.8 3,7 0,0.2 1.4,3.4 3,7 1.7,3.6 3,6.8 3,7 0,0.2 1.1,2.8 2.4,5.7 1.4,3 3.4,7.7 4.5,10.6 l 2.1,5.2 -16.5,16.5 -16.5,16.5 h -91.8 -91.8 l -6.4,-6.5 -6.4,-6.5 -3.1,3 c -3.3,3.2 -5.5,3.6 -35.5,6 -29.3,2.3 -38.8,3.1 -47.3,4 l -8.8,0.9 -16.6,-16.6 -16.6,-16.6 -3.4,-11.6 c -3.2,-11.2 -5,-17.5 -9.4,-33.8 -3,-11.4 -7.9,-26.3 -8.6,-26.3 -0.6,0 -12.3,10 -15.3,13 -0.8,0.8 -5.3,4.9 -10,9 -4.7,4.1 -10.2,9 -12.2,10.9 -7.9,7.2 -5.8,8.1 -24,-10.1 -9,-9 -17.6,-18 -19.2,-20.1 -1.6,-2 -3.2,-3.7 -3.7,-3.7 -0.4,0 -2.2,3 -4,6.8 -1.7,3.7 -4.7,10.1 -6.6,14.2 -21.8,46.8 -19.2,42.6 -37.6,60.9 l -16.5,16.4 -6.4,-1.2 c -3.4,-0.7 -8.1,-1.6 -10.3,-2.1 -2.2,-0.5 -6.9,-1.4 -10.5,-2 -13.3,-2.4 -17.6,-3.2 -21.5,-4 -2.2,-0.5 -6.7,-1.3 -10,-1.9 -3.3,-0.6 -10.5,-2 -16,-3 -5.5,-1.1 -11.9,-2.3 -14.2,-2.6 -2.4,-0.4 -4.6,-1.1 -4.9,-1.6 -0.7,-1.2 -2.9,-0.5 -11.2,3.2 -3.4,1.6 -6.5,2.9 -6.7,2.9 -0.2,0 -2.8,1.1 -5.7,2.4 -2.9,1.3 -8.7,3.8 -12.8,5.6 -4.1,1.8 -9.9,4.3 -12.8,5.6 -2.9,1.3 -5.5,2.4 -5.7,2.4 -0.3,0 -2.5,0.9 -5,2.1 -2.4,1.1 -4.9,1.9 -5.4,1.7 -0.8,-0.2 -14.4,-11.7 -32.4,-27 -1.1,-1 -2.3,-1.8 -2.6,-1.8 -0.4,0 -7.1,6.5 -15.1,14.5 l -14.5,14.5 h -38.4 -38.4 l -16.3,-16.5 -16.3,-16.5 -0.7,-7 c -0.3,-3.8 -0.9,-7 -1.3,-7 -0.3,0 -3.3,2.7 -6.6,6 -5.6,5.5 -6.8,6.3 -13.6,8 -4.1,1 -11.9,3 -17.4,4.5 -5.5,1.4 -15.8,4.2 -23,6 -7.1,1.9 -17.5,4.6 -23,6 -19.9,5.2 -52.4,13.6 -57.7,14.9 -2.3,0.5 -3.6,-0.2 -8.5,-4.5 -8.9,-8 -12.2,-10.9 -20.3,-17.9 -4.1,-3.6 -7.7,-6.7 -8,-7 -1,-1 -10.8,-9.7 -18,-16 -4.1,-3.6 -11.7,-10.3 -17,-15 -5.3,-4.7 -12.9,-11.4 -17,-15 -13.3,-11.6 -17.4,-15.3 -23.8,-21.4 l -6.2,-6.1 -11.5,11.5 -11.4,11.4 -9.8,-1.3 c -5.4,-0.6 -11.3,-1.4 -13.1,-1.7 l -3.3,-0.5 0.6,4.8 c 0.3,2.6 1,6.8 1.5,9.3 0.5,2.5 1.4,8.1 2,12.5 0.6,4.4 1.6,10.3 2,13 2.1,11.8 3.2,9.8 -15,28 L 1250.5,717 H 1116 981.4 l -16.6,-16.7 -16.5,-16.8 -0.6,-7 c -0.5,-6.3 -4.3,-40.3 -9.7,-86.2 -1,-9 -2.1,-16.7 -2.5,-17.3 -0.3,-0.5 -2,-1 -3.6,-1 -1.7,0 -4.9,-0.4 -7.2,-0.9 -2.3,-0.5 -7.6,-1.5 -11.7,-2.1 -4.1,-0.6 -8.6,-1.3 -9.9,-1.6 -2.7,-0.6 -2.8,-1.9 0.8,22.1 3.5,23.2 6.2,41.9 7.1,48 0.5,3.3 1.8,12.5 3,20.5 1.2,8 2.6,17.4 3.1,21 l 1,6.4 -16.3,16.3 -16.3,16.3 H 825.8 766.1 L 749.5,701.8 C 738.8,691.3 733,684.9 733,683.6 c 0,-1.6 -2.4,0.3 -9.7,7.6 l -9.8,9.7 -7.5,1.1 c -13.2,1.9 -23.6,3.5 -39,6 -3,0.5 -8.6,1.4 -12.5,2 -3.8,0.6 -9.7,1.6 -13,2.1 -11.4,1.9 -19,3 -23.6,3.6 l -4.7,0.5 -16.4,-16.4 -16.4,-16.4 -1.7,-12.8 c -0.9,-7.1 -1.9,-13.2 -2.3,-13.5 -0.3,-0.3 -7.1,-0.6 -15.2,-0.6 h -14.6 l -4.1,14.3 -4.1,14.3 -16.4,16.5 -16.5,16.5 -4,-0.5 c -4.5,-0.5 -13,-2 -21.8,-3.6 -3.1,-0.5 -8.2,-1.4 -11.2,-2 -3,-0.5 -8,-1.4 -11,-2 -3,-0.5 -8.1,-1.5 -11.3,-2 -3.1,-0.6 -8.2,-1.5 -11.2,-2 -3,-0.5 -8.2,-1.4 -11.5,-2 -3.3,-0.6 -7.9,-1.4 -10.2,-1.7 -2.3,-0.3 -5,-1.4 -5.9,-2.4 -2,-2.2 -7.9,-2.5 -17.8,-1 -3.4,0.5 -10.6,1.5 -16.1,2.1 -9.2,1 -13.9,1.6 -34.5,4 -4.1,0.5 -11.8,1.4 -17,2 -5.2,0.6 -13,1.5 -17.2,2 -4.3,0.6 -11.3,1.4 -15.5,2 -4.3,0.5 -12.1,1.4 -17.3,2 -5.2,0.6 -11,1.3 -12.8,1.5 -3.1,0.4 -4.3,-0.6 -19.3,-15.6 -10.8,-10.8 -16.4,-17.1 -17,-19.2 -0.5,-1.8 -0.9,-8.4 -0.9,-14.7 0,-13.8 -1.1,-31 -1.9,-31 -0.3,0 -8.5,7.7 -18.1,17 l -17.5,16.9 -6,0.1 c -3.3,0 -12.4,0.5 -20.2,1.2 l -14.3,1.2 v 8 8.1 l -16.2,16.2 -16.3,16.3 h -39 -39 z M 102,654.2 v -23.9 l 9.8,-0.6 c 5.3,-0.3 21.9,-1.4 36.7,-2.3 l 27,-1.7 10,-9.3 c 5.5,-5.2 19,-18.1 29.9,-28.7 l 20,-19.3 -2.2,-46.4 c -1.6,-33.7 -2.5,-46.7 -3.4,-47.6 -0.7,-0.7 -14.1,-10 -29.8,-20.8 L 171.5,434 107,434.3 42.5,434.5 41.3,458 c -0.6,12.9 -1.6,33.6 -2.2,46 -0.6,12.4 -1.6,31.2 -2.1,41.8 -0.6,10.5 -1.4,27.9 -2,38.5 -0.5,10.5 -1.4,29.6 -2.1,42.2 -0.6,12.7 -1.4,29.1 -1.8,36.5 -0.5,7.4 -0.6,13.8 -0.4,14.3 0.2,0.4 16.4,0.7 35.9,0.7 H 102 Z m 400,3.6 c 2.9,-10.1 7,-23.9 9,-30.8 l 3.6,-12.5 13.3,-0.3 c 15,-0.3 72.9,1.3 73.6,2 0.3,0.3 2.3,13.2 4.4,28.7 2.1,15.5 4.1,28.4 4.3,28.6 0.3,0.3 2.9,0 5.9,-0.5 9.7,-1.9 80.8,-13 82.8,-13 4.5,0 10,12.6 -82.3,-188.5 -9.1,-19.8 -17,-36.1 -17.6,-36.3 -0.9,-0.3 -51.2,4.3 -57.7,5.4 -2.9,0.4 -4.2,2.2 -18.1,25.7 -14.8,25.1 -21.9,36.9 -65.7,110.5 -23,38.6 -23,38.7 -26.6,39 l -3.5,0.3 -2.2,-17.7 c -1.2,-9.8 -2.3,-17.8 -2.4,-18 -0.2,-0.1 -6.8,0.6 -14.8,1.6 -8,1 -22.6,2.8 -32.5,4 -9.9,1.2 -25,3 -33.5,4.1 -21.2,2.6 -22,2.6 -21.9,-0.8 0,-1.6 2.2,-35.2 4.7,-74.8 l 4.7,-72 -4,-0.7 c -2.2,-0.4 -12.1,-1.6 -22,-2.7 -9.9,-1.2 -25.9,-3 -35.5,-4.1 -9.6,-1.1 -19.2,-2.3 -21.3,-2.6 l -3.9,-0.6 0.6,12.3 c 0.3,6.8 1.1,24.8 1.6,39.9 0.6,15.1 1.5,39.2 2,53.5 0.6,14.3 1.4,37.7 2,52 2.2,58.3 3.2,82 3.6,82.4 0.3,0.4 33.6,-3.4 112.9,-12.9 18.2,-2.2 34.9,-4 37.3,-4 3.8,0 4.2,0.2 4.2,2.4 0,2.3 0.6,2.5 9.3,4.1 5,0.9 25,4.5 44.2,8 19.3,3.5 35.3,6.4 35.6,6.4 0.3,0.1 3,-8.1 5.9,-18.1 z m 373,16.8 c 0,-0.8 -2,-15.3 -4.5,-32.2 -2.5,-17 -5,-33.8 -5.5,-37.4 -0.5,-3.6 -3.2,-22 -6,-41 -2.8,-19 -5.4,-36.9 -5.7,-39.7 l -0.6,-5.3 h 3.4 c 1.9,0 16.9,2.2 33.4,4.9 16.5,2.8 33.2,5.5 37,6.1 3.9,0.6 7.8,1.3 8.8,1.6 1.6,0.5 1.7,-2.2 1.7,-46.4 v -46.9 l -32.7,-0.7 c -18.1,-0.4 -57.5,-1.1 -87.8,-1.6 -30.2,-0.5 -69.7,-1.3 -87.7,-1.6 L 696,433.7 v 40.5 40.5 l 14.3,0.7 c 26.4,1.2 53.1,2.6 61.5,3.2 l 8.2,0.6 v 4.9 c 0,2.6 -2.9,30.4 -6.5,61.6 -3.6,31.2 -7.2,62.9 -8,70.3 -0.8,7.4 -1.8,15 -2,16.8 l -0.6,3.2 H 819 c 47.2,0 56,-0.2 56,-1.4 z m 811,0.3 c 0,-1.3 -5.3,-32.3 -7.6,-43.9 -0.8,-4.1 -1.4,-9.9 -1.4,-12.8 v -5.3 l 3.4,0.3 c 2.9,0.2 9.4,5.3 39.5,31.1 l 36.1,30.8 17.7,-7.7 c 9.8,-4.2 23,-9.9 29.3,-12.7 6.3,-2.7 12.8,-5.5 14.4,-6.2 l 2.8,-1.2 -28.6,-25.2 c -26.4,-23.2 -28.6,-25.4 -28.6,-28.4 0.1,-2.7 2.6,-6.1 17,-22.2 9.4,-10.4 17,-19.7 17,-20.6 0,-1.5 -1,-15.4 -4,-55.4 -0.6,-7.1 -1,-13.5 -1,-14.2 0,-0.7 -8.8,-7.6 -19.6,-15.5 -10.8,-7.9 -24.6,-18 -30.8,-22.5 l -11.1,-8.1 -63,4.9 c -34.7,2.7 -64.5,4.9 -66.4,4.9 h -3.4 l 0.7,10.3 c 0.4,5.6 1.8,23.5 3.1,39.7 1.4,16.2 3.6,43.5 5,60.5 5,61.1 6.6,80.3 8,97.7 0.8,9.7 1.5,18.8 1.5,20.2 v 2.6 h 35 c 25.4,0 35,-0.3 35,-1.1 z m -445.4,-4.1 c -0.4,-2.4 -2.5,-15.5 -4.7,-29.3 -9.6,-61.1 -9.1,-55.5 -5.1,-55.5 1.5,0 16,1.8 32.2,3.9 16.2,2.1 29.8,3.6 30.2,3.2 0.3,-0.3 1.1,-3.5 1.6,-7.1 0.6,-3.6 2.4,-14.6 4.2,-24.5 1.7,-9.9 3.8,-21.6 4.5,-26 0.8,-4.3 1.3,-8 1.2,-8.2 -0.2,-0.1 -8.6,0.2 -18.7,0.7 -10.2,0.6 -27.2,1.5 -37.9,2 -10.7,0.6 -19.6,0.8 -19.8,0.6 -0.2,-0.2 -0.1,-7.6 0.3,-16.5 0.7,-15.5 0.8,-16.1 2.8,-16.1 1.9,0 33.3,3.5 76.6,8.5 6.9,0.8 12.8,1.1 13.1,0.7 0.3,-0.4 2.3,-15.3 4.3,-33.2 2,-17.9 3.9,-34.2 4.2,-36.2 l 0.6,-3.8 -9.4,-0.1 c -5.1,0 -41.5,-0.4 -80.8,-0.8 -39.3,-0.4 -71.6,-0.6 -71.8,-0.6 -0.1,0.1 -3.8,15.3 -8.2,33.7 l -7.9,33.4 2.9,75 c 1.6,41.2 3.1,79.5 3.4,85.2 l 0.6,10.3 -3.6,-0.3 -3.6,-0.3 -11.9,-27.5 -11.8,-27.5 -38.5,-0.3 -38.4,-0.2 -2.6,-7.8 c -1.4,-4.2 -2.6,-9.6 -2.6,-11.9 0,-5 -2.3,-4.4 31,-7.3 12.9,-1.1 25.3,-2.2 27.6,-2.5 l 4.1,-0.6 1.2,-20.2 c 0.6,-11.1 1.4,-21.7 1.6,-23.4 0.5,-4 1.5,-3.8 -22,-5.4 -9.9,-0.6 -24.7,-1.7 -33,-2.3 l -15,-1.1 -0.3,-5.5 c -0.2,-3 -0.1,-8.2 0.3,-11.5 l 0.6,-6 38.7,-5.9 c 21.3,-3.3 39.4,-6.1 40.2,-6.3 1.2,-0.3 3,-7.5 7.3,-29.6 3.2,-16.1 6,-30.2 6.3,-31.4 l 0.6,-2.3 h -78.5 -78.5 l -0.6,2.4 c -2.7,10.6 -16.7,81.9 -16.7,84.6 0,1.9 1.8,19.5 4,39 8.8,77.7 12.1,106.7 12.7,111.3 l 0.7,4.7 h 131.5 131.5 z m 921.7,1 c 34.5,-2.8 39.6,-3.4 39.2,-4.7 -0.2,-0.9 -14.4,-50.6 -31.5,-110.6 -17.1,-59.9 -32,-112 -33.1,-115.7 l -2,-6.8 h -9.7 c -5.3,0 -18.1,0.3 -28.4,0.7 l -18.8,0.6 -20.2,32.9 -20.1,32.8 h -3.7 -3.6 l -5.1,-14.7 c -12.3,-35.4 -17.2,-49.4 -17.8,-50.3 -0.4,-0.6 -12.3,-1 -32.5,-1 h -31.9 l -2.9,5.3 c -1.6,2.8 -4.9,8.8 -7.2,13.2 -2.4,4.4 -6.9,12.7 -10,18.5 -3.1,5.8 -7.5,13.9 -9.7,18 -2.3,4.1 -10,18.5 -17.3,32 -7.3,13.5 -15,27.9 -17.3,32 -2.2,4.1 -6.6,12.2 -9.7,18 -3.2,5.8 -8,14.8 -10.8,20 -25,46.8 -30,55.5 -32.1,55.8 -2.8,0.4 -2.7,2.8 0.2,3.5 9.3,2.1 85.7,16 86,15.6 0.2,-0.2 12.7,-26.7 27.8,-58.9 l 27.5,-58.5 3.3,-0.3 c 2,-0.2 3.7,0.2 4.4,1.2 0.7,0.8 10.6,13.9 22,29 11.4,15.2 21.1,27.6 21.5,27.6 0.5,0 10.7,-8.8 22.8,-19.6 12,-10.8 24.6,-22 28,-25 4.9,-4.3 6.8,-5.4 9.6,-5.4 4.1,0 2.5,-3.5 15.3,33.4 7.9,22.7 9.6,28.3 19,62.1 6.7,24.1 6.1,22.5 7.7,22.5 0.7,0.1 19.2,-1.4 41.1,-3.2 z m 240.8,1 c -0.5,-1.3 -6.3,-14.9 -13,-30.3 l -12,-28 -38.6,-0.5 -38.7,-0.5 -2.4,-7.5 c -1.3,-4.1 -2.4,-9.4 -2.4,-11.7 0,-5 -2.3,-4.4 31,-7.3 12.9,-1.1 25.4,-2.2 27.6,-2.5 l 4.1,-0.6 1.2,-20.7 c 0.7,-11.4 1.4,-21.9 1.6,-23.4 0.5,-3.4 1.1,-3.3 -22,-4.9 -9.9,-0.6 -24.7,-1.7 -33,-2.3 l -15,-1.1 -0.3,-6.5 c -0.2,-3.6 -0.1,-8.8 0.3,-11.5 l 0.6,-5 39.1,-6 c 21.4,-3.3 39.6,-6.4 40.3,-7 0.7,-0.5 3.8,-14 7,-30 3.1,-15.9 5.8,-29.8 6.1,-30.7 0.5,-1.7 -3.7,-1.8 -78,-1.8 H 2228 l -0.5,2.3 c -0.7,2.8 -13,63.2 -15.3,75.1 -1.3,6.4 -1.6,10.7 -1.1,15.5 0.5,3.6 2.1,18.5 3.8,33.1 1.6,14.6 4.6,40.9 6.5,58.5 3.2,28.5 4.3,37.9 6.2,53.3 l 0.5,4.2 h 87.9 88 z m -902.7,-15.2 c 34.4,-9 62.9,-16.6 63.3,-16.9 0.3,-0.4 2.1,-9.3 3.9,-19.9 4.1,-23.6 7,-39.9 9.4,-53.8 1,-5.8 2.8,-16.1 4,-23 1.2,-6.9 2.3,-13.7 2.6,-15.1 0.4,-2.1 -1.4,-4.9 -10.3,-16 -8,-9.9 -58.6,-72.9 -60.9,-75.8 -0.2,-0.2 -11.7,-0.7 -25.6,-1.2 -13.9,-0.4 -33.2,-1 -42.8,-1.4 l -17.5,-0.6 -39,24.7 c -21.4,13.6 -39.1,24.8 -39.1,24.8 -0.2,0.1 -14.3,94.4 -14.7,98 -0.1,1.4 4.9,6.4 17.3,17.4 78.4,69.2 85.2,75.2 86,75.2 0.4,0 28.9,-7.4 63.4,-16.4 z m -762,-19.3 c 1.2,-9.5 4.5,-38.4 6.8,-59.1 1.1,-10.6 1.8,-19.5 1.5,-19.9 -0.4,-0.3 -9.6,-1 -20.4,-1.4 -22.6,-1 -27.1,-1.5 -29.5,-3.7 -1,-0.8 -1.8,-1.1 -1.8,-0.5 0,0.6 5.4,12.9 12.1,27.4 6.6,14.5 15.9,34.8 20.6,45.1 4.7,10.3 8.9,18.6 9.3,18.3 0.4,-0.2 1,-3 1.4,-6.2 z"
       id="path2" />
    <path
       d="m 122.5,552.4 c -4.4,-0.7 -8.2,-1.3 -8.4,-1.3 -0.5,-0.1 0.7,-29.9 1.6,-39.3 0.6,-6.7 0.6,-6.8 3.5,-6.8 1.6,0 13.2,2.3 25.9,5 12.7,2.8 23.2,5 23.5,5 0.2,0 0.4,1.5 0.4,3.4 0,2.8 -2,5.7 -13.6,19.5 l -13.7,16.1 -5.6,-0.1 c -3.1,-0.1 -9.2,-0.8 -13.6,-1.5 z"
       id="path4" />
    <path
       d="M 550.3,556.3 536,555.9 v -2.7 c -0.1,-1.5 3,-10.5 6.7,-19.9 l 6.8,-17.3 9.5,0.1 c 5.2,0.1 12.4,0.4 15.9,0.8 l 6.3,0.6 5.9,16.9 c 3.3,9.3 5.9,18.2 5.9,19.8 v 2.8 l -14.2,-0.2 c -7.9,-0.1 -20.7,-0.4 -28.5,-0.5 z"
       id="path6" />
    <path
       d="m 1681.6,552.7 -7.8,-1 0.6,-12.6 c 0.3,-6.9 0.9,-18.8 1.2,-26.3 l 0.6,-13.8 h 3.5 c 2.5,0 8.8,2.8 21.9,9.8 l 18.4,9.7 v 3.6 c 0,2.9 -1.8,6.2 -9.7,17.7 l -9.8,14.2 -5.5,-0.2 c -3,0 -9,-0.6 -13.4,-1.1 z"
       id="path8" />
    <path
       d="m 1438.8,569.2 c -14.1,-9.3 -14.8,-9.9 -14.8,-13 0,-2.1 3.1,-10.4 8.3,-21.8 l 8.2,-18.4 h 4 c 2.2,-0.1 12.9,1.8 23.7,4.2 l 19.7,4.3 0.5,3.5 c 0.3,1.9 0.8,11.6 1.1,21.5 l 0.7,18 -15.9,5.8 c -8.7,3.1 -16.9,5.7 -18.3,5.7 -1.5,0 -8.5,-4 -17.2,-9.8 z"
       id="path10" />
    <path
       d="m 905.1,308.3 -9.3,-9.5 -8.7,8.6 -8.6,8.6 H 787 695.5 l -16.7,-16.7 -16.6,-16.8 -1.1,-10 c -0.7,-5.5 -1.6,-13.4 -2.1,-17.5 -0.5,-4.1 -1.2,-10.8 -1.6,-14.8 -0.4,-4 -1,-7.1 -1.5,-7 -0.4,0.2 -7.9,9.3 -16.7,20.3 -11,13.7 -21.3,25.2 -32.8,36.6 l -16.9,16.7 -5.5,0.7 c -3,0.3 -7.7,1 -10.5,1.5 -2.7,0.5 -7.8,1.4 -11.2,2 -3.5,0.5 -8.9,1.4 -12,2 -22.9,3.9 -24.7,4 -60.7,4 h -36.1 l -16.7,-16.7 -16.7,-16.6 0.5,-6.6 c 0.3,-3.6 0.9,-20 1.3,-36.4 l 0.8,-29.9 16.3,-16.3 16.2,-16.2 6.2,-0.7 c 3.3,-0.3 13.1,-1.1 21.5,-1.6 8.5,-0.6 15.7,-1.2 15.9,-1.4 0.5,-0.5 -1.7,-26.5 -2.4,-28.8 -0.4,-1.3 -1.6,-1.8 -4.2,-1.8 -2,0 -8.4,-0.4 -14.2,-1 -5.8,-0.5 -14.9,-1.4 -20.4,-1.9 L 447.8,140.2 430.9,123.4 414,106.5 V 72 37.5 L 430.8,20.8 447.5,4.2 486,3.6 c 23,-0.4 48.2,-0.2 62.5,0.4 13.2,0.6 33,1.5 44,2 11,0.5 32.2,1.4 47,2 l 27,1.1 5.5,5.5 5.5,5.4 9,-9 9,-9 h 81.4 81.5 l 2.3,2.2 c 2,1.9 2.7,2 4.3,1 C 866.5,4.3 880.1,4 919.7,4 h 52.8 l 11,11 c 11,11 11.1,11.1 13,9 1.8,-2 2.7,-2 52.4,-2 h 50.6 l 15.6,15.6 15.5,15.5 24.2,-24.3 24.1,-24.3 23.4,23.3 23.4,23.4 6.1,-8.9 c 3.8,-5.6 12,-14.7 22.4,-25 L 1270.5,1 1290,19.7 c 35.8,34.2 76,73.5 76,74.2 0,0.6 -8.1,10.5 -16.3,20.1 -1.2,1.4 -6.9,8.1 -12.7,15 -5.8,6.9 -11.1,13.1 -11.8,13.9 -1.7,1.7 -3.3,0.2 19.8,18.4 12.3,9.7 24,20.1 34.9,31.1 l 16.4,16.5 -8.9,10.3 c -4.9,5.7 -9.1,10.5 -9.4,10.8 -0.3,0.3 -6.2,7 -13,15 -6.9,8 -12.7,14.7 -13,15 -0.3,0.3 -3.4,3.9 -7,8 -3.5,4.1 -15,16.2 -25.4,26.8 l -19.1,19.2 -16.8,-16.7 c -11.6,-11.6 -20.6,-21.7 -28.9,-32.5 -6.6,-8.7 -12.4,-16.1 -13,-16.4 -0.6,-0.4 -15.6,13.9 -33.4,31.7 l -32.4,32.4 -19.2,-19 c -31.6,-31.2 -47.8,-47 -48.6,-47.2 -0.4,-0.1 -7.2,7.3 -15.2,16.5 -8,9.1 -23,25.3 -33.4,35.9 l -19,19.3 -63,-0.1 -63.1,-0.1 z m 156.2,-65.5 29.6,-33.3 V 130.8 L 1091,52 h -48 -48 l 0.5,3.8 c 1,6.8 11.5,110.9 11.5,113.9 0,2.6 -1.8,4.2 -20.4,17.6 -15.6,11.2 -21.1,14.7 -23.5,14.7 -1.6,0 -3.2,-0.4 -3.5,-0.8 -0.3,-0.5 -0.1,-13 0.4,-27.8 0.5,-14.8 1.4,-42.9 2,-62.4 0.5,-19.5 1.3,-44.8 1.6,-56.2 L 964.3,34 H 913.1 862 v 90.9 90.8 l 24.6,30.2 24.7,30.1 h 60.2 60.2 z m -512.1,27 c 17.5,-2.8 32.1,-5.4 32.6,-5.7 1.3,-0.9 32.4,-40.3 32.9,-41.8 0.3,-0.6 -0.4,-5.4 -1.6,-10.5 -1.1,-5.1 -5.7,-26.4 -10.1,-47.3 -4.4,-20.9 -8.7,-41 -9.5,-44.7 -0.8,-3.7 -1.5,-8.5 -1.5,-10.7 0,-3.9 0.1,-4 4.3,-4.5 6.1,-0.9 56.9,-5.6 59.5,-5.6 h 2.2 v -29.9 -30 l -5.2,-0.5 C 649.9,38.3 635.4,37.6 620.5,37 593.8,35.9 574,35 532,33 c -14.7,-0.7 -31.4,-0.7 -53,0 -17.3,0.5 -32.3,1 -33.2,1 -1.7,0 -1.8,2.2 -1.8,32.5 V 99 h 2.8 c 1.5,0 7.9,0.5 14.2,1 6.3,0.5 17.6,1.4 25,2 31.3,2.5 36.3,2.9 36.5,3.2 0.6,0.6 9.6,94.1 9.2,95.2 -0.4,0.9 -6,1.6 -17.8,2.5 -9.6,0.6 -22.6,1.6 -28.9,2.1 -6.3,0.5 -16.3,1.2 -22.1,1.6 l -10.6,0.6 -0.7,20.7 c -0.3,11.3 -0.9,26.6 -1.3,33.9 l -0.6,13.2 h 33.9 33.9 z m 317.8,3.5 c 0,-0.4 -5.7,-14.1 -12.7,-30.5 L 841.5,213 H 803 764.4 l -2.7,-8.9 c -2.2,-7.3 -3.5,-15 -2.4,-15.1 0.1,-0.1 14.1,-1.4 31,-2.9 20.5,-1.9 31.1,-3.2 31.6,-4 0.5,-0.7 1.1,-6.9 1.4,-13.9 0.4,-7 1,-17.1 1.3,-22.4 l 0.7,-9.6 -4.4,-0.6 c -4.3,-0.6 -17,-1.6 -47.9,-3.7 -8.5,-0.6 -16.1,-1.2 -16.8,-1.4 -0.9,-0.4 -1.2,-3.2 -1,-11.7 l 0.3,-11.2 39.7,-6.1 c 21.8,-3.3 39.9,-6.3 40.3,-6.7 0.7,-0.6 12.5,-59 12.5,-61.5 0,-1.9 -155.8,-1.9 -156.5,-0.1 -0.3,0.7 -4.3,20.2 -9,43.2 l -8.5,42 3,26.5 c 5.6,48.9 8.8,77.4 11.5,102.1 1.5,13.5 2.8,25.1 3.1,25.8 0.3,0.9 18.7,1.2 87.9,1.2 48.1,0 87.5,-0.3 87.5,-0.7 z m 448.2,-27.9 c 9.5,-11 21.5,-24.8 26.6,-30.6 5,-5.9 9.2,-11.1 9.2,-11.6 0,-0.5 -10.2,-8.9 -22.7,-18.7 -52.9,-41.5 -49.3,-38.4 -49.3,-41.9 0,-3.4 -0.3,-3 30.3,-39.1 l 12.7,-15 -8.7,-8.5 c -17.7,-17.2 -47.5,-45.5 -48.2,-45.8 -0.4,-0.1 -8.7,11.7 -18.5,26.3 -17.2,25.4 -18,26.5 -21.1,26.5 -2.9,0 -5.9,-2.7 -27.9,-25 l -24.7,-25.1 -21.8,22.3 -21.8,22.3 24.1,26.9 c 13.3,14.8 25.3,28.3 26.8,30 5.7,6.6 6.4,5.8 -32.3,40.4 -19.2,17.2 -34.9,31.6 -34.9,32 0,0.4 12.8,13.5 28.5,29.2 l 28.4,28.4 32.7,-33.2 32.7,-33.3 4.1,0.3 4,0.3 25.5,33.3 c 24.2,31.5 25.6,33.1 27.2,31.5 0.9,-1 9.5,-10.8 19.1,-21.9 z m -665.7,-75 c -3.1,-27.8 -3.2,-28.7 -5.2,-28 -0.8,0.3 -2.1,0.6 -3,0.6 -1.7,0 -1.4,2.5 1.7,16.5 0.9,4.4 2.7,13 4,19 5.3,26.1 6.1,23.7 2.5,-8.1 z m 493.6,-13.6 c 4.3,-4 7.9,-7.7 7.9,-8.3 0,-1.2 -15.6,-18.8 -17,-19.3 -0.6,-0.2 -1,6.3 -1,17.2 0,11.9 0.3,17.6 1.1,17.6 0.6,0 4.6,-3.3 9,-7.2 z"
       id="path12" />
    <path
       d="M 1517.3,299.4 1501,283 V 167 51 l 16.5,-16.5 16.4,-16.4 6.3,-1 c 3.5,-0.5 10.6,-1.5 15.8,-2.1 5.2,-0.6 12.7,-1.5 16.5,-2 3.9,-0.5 11.1,-1.4 16,-2 5,-0.6 12.4,-1.5 16.5,-2 4.1,-0.5 11.8,-1.4 17,-2 5.2,-0.6 12.4,-1.5 16,-2 3.6,-0.5 9.3,-1.2 12.7,-1.6 l 6.2,-0.6 16.8,13.8 c 9.2,7.6 20.1,16.5 24.2,19.8 18.6,15.3 27.6,22.6 28.1,22.6 0.3,0 1.7,-5.3 3,-11.7 l 2.5,-11.7 16.7,-16.8 L 1765,2 h 81.3 81.2 l 16.8,16.8 16.9,16.9 -1,3.9 c -0.6,2.1 -1.6,6.6 -2.2,9.9 -0.7,3.3 -1.6,8 -2.1,10.5 -0.5,2.5 -2.7,13.5 -4.9,24.5 l -3.9,19.9 -11.3,11.3 -11.3,11.3 6.3,6.3 6.2,6.3 -1,14.9 c -2.4,33.2 -2.8,37.6 -4,39.1 -1.1,1.2 0.6,3.4 10.6,13.7 8.3,8.4 12.3,13.4 13.3,16.2 0.8,2.2 2.4,6.3 3.6,9 1.2,2.8 6,13.8 10.5,24.5 4.5,10.7 8.9,20.9 9.7,22.7 l 1.5,3.2 -16.6,16.5 -16.6,16.6 h -91.8 -91.7 l -16.8,-16.8 c -16,-16 -16.7,-16.9 -16.7,-20.7 0,-4.6 -0.9,-8.5 -1.9,-8.5 -0.4,0 -1.6,0.8 -2.7,1.8 -1,1 -6.6,5.5 -12.4,10.2 -5.8,4.6 -10.7,8.7 -11,9 -0.3,0.3 -5.2,4.4 -11,9 -5.8,4.6 -10.7,8.7 -11,9 -0.3,0.3 -2.4,2 -4.6,3.8 l -4.2,3.2 -69.3,-0.1 -69.4,-0.1 z m 180.4,-53.1 33.8,-27.7 -0.3,-4.5 c -0.2,-4.5 -3.3,-33.8 -5.2,-51.1 -0.5,-4.7 -1.9,-17.3 -3,-28 -3.9,-36.6 -5,-45.4 -5.7,-46.1 -0.5,-0.3 -16.1,-13.1 -34.7,-28.4 l -33.9,-27.7 -5.1,0.6 c -10.4,1.2 -71.8,8.7 -91,11.1 -10.9,1.4 -20.3,2.5 -20.7,2.5 -0.5,0 -0.9,51.1 -0.9,113.5 V 274 h 66.4 66.4 z m 236.8,22 c -1.3,-3.2 -7.1,-16.8 -12.9,-30.3 l -10.4,-24.5 -38.7,-0.5 -38.7,-0.5 -2.4,-7.5 c -1.3,-4.1 -2.4,-9.4 -2.4,-11.7 0,-5.1 -2.6,-4.5 31.5,-7.3 32.6,-2.7 31.5,-2.5 31.5,-5.6 0,-4.6 2,-36.9 2.5,-40.6 l 0.5,-3.6 -4.8,-0.6 c -4.6,-0.6 -15.3,-1.4 -46.2,-3.6 -22.6,-1.5 -20.4,-0.1 -19.7,-12.7 0.3,-5.8 0.9,-10.8 1.3,-11.3 0.5,-0.4 18.2,-3.3 39.4,-6.5 21.2,-3.2 39,-6.3 39.7,-6.9 0.6,-0.6 3.6,-14.1 6.8,-30.1 3.1,-15.9 5.8,-29.8 6.1,-30.7 0.5,-1.7 -3.7,-1.8 -78,-1.8 H 1761 l -0.5,2.3 c -0.6,2.4 -11.3,54.6 -14.9,72.7 -2.2,10.8 -2.2,12.1 -1,22.5 2.3,19.7 7.4,65.2 11.4,101.5 2.2,19.5 4.3,37.2 4.6,39.3 l 0.6,3.7 h 87.8 87.9 z"
       id="path14" />
    <path
       d="m 1601,155 v -39 h 3.4 c 2.2,0 11.2,3.6 25.5,10.1 l 22.1,10.2 v 21.2 21.2 l -22,7.7 c -12,4.2 -23.5,7.6 -25.5,7.6 h -3.5 z"
       id="path16" />
  </g>
  <g
     fill="#e1bf00"
     id="g30"
     transform="translate(-0.9,-1)">
    <path
       d="m 2115.6,673.8 c -0.8,-2.9 -4.7,-16.5 -8.5,-30.3 -3.8,-13.7 -9.2,-31.5 -12,-39.5 -8.6,-25.1 -15.1,-43.3 -15.5,-43.8 -0.3,-0.2 -2.3,1.1 -4.4,2.9 -6.9,6 -49.6,44.1 -53.3,47.6 l -3.6,3.5 -21.3,-28.4 c -11.8,-15.6 -22.4,-29.6 -23.7,-31.1 l -2.3,-2.9 -4.5,9.4 c -2.4,5.1 -15,31.8 -27.9,59.3 -13,27.5 -24.1,50.1 -24.9,50.3 -1,0.2 -67,-11.8 -89.9,-16.4 -1.6,-0.3 -2.8,-1.2 -2.8,-1.9 0,-0.9 -0.6,-1.2 -1.5,-0.9 -2,0.8 -2,-1.8 0.1,-5.7 1.3,-2.5 1.8,-2.8 3,-1.8 0.9,0.7 1.8,0.8 2.3,0.3 0.8,-0.8 10.9,-19.3 31.4,-57.4 2.2,-4.1 6.6,-12.2 9.7,-18 3.1,-5.8 7.5,-13.9 9.7,-18 2.3,-4.1 10,-18.5 17.3,-32 7.3,-13.5 15,-27.9 17.3,-32 2.2,-4.1 6.6,-12.2 9.7,-18 3.1,-5.8 7.6,-14.1 10,-18.5 2.3,-4.4 5.6,-10.4 7.2,-13.2 l 2.9,-5.3 h 34.9 c 22.2,0 35.1,0.4 35.5,1 0.6,0.9 5.5,14.9 17.8,50.3 2.8,8.1 5.4,14.7 5.7,14.7 0.4,0 9.7,-14.8 20.8,-32.8 l 20.2,-32.9 18.8,-0.6 c 10.3,-0.4 24.4,-0.7 31.4,-0.7 h 12.7 l 2,6.8 c 6.9,23.2 66.1,231.6 66.1,232.6 0,0.8 -12.3,2.1 -41.2,4.4 -22.7,1.9 -42.7,3.6 -44.5,3.9 -3,0.5 -3.1,0.3 -4.7,-4.9 z"
       id="path20" />
    <path
       d="m 1154.1,672.9 c -1.1,-2.9 -2.1,-6.8 -2,-8.8 l 0.1,-3.6 1.4,3.3 c 0.8,1.7 1.5,3.2 1.7,3.2 0.1,0 0.1,-2.6 -0.1,-5.7 -0.1,-3.2 -1.6,-41.4 -3.3,-84.8 l -3,-79 8,-33.9 c 4.4,-18.6 8.2,-34 8.3,-34.1 0.5,-0.4 168,1.4 168.4,1.8 0.2,0.1 -0.1,3.2 -0.6,6.7 -0.5,3.6 -2.6,21.1 -4.6,39 -2,17.9 -4.1,32.9 -4.5,33.4 -0.9,1 -7.9,0.4 -61.9,-5.8 -16.2,-1.9 -29.6,-3.3 -29.6,-3.2 -0.1,0 -0.4,6 -0.7,13.2 l -0.5,13.2 6.1,-0.4 c 6.1,-0.4 32.5,-1.7 58.6,-3 l 13.3,-0.7 -0.6,2.9 c -0.3,1.6 -1.7,9.4 -3.1,17.4 -1.3,8 -3.4,19.7 -4.5,26 -1.1,6.3 -2.5,14.8 -3.1,18.8 -0.7,4.6 -1.7,7.6 -2.6,7.9 -1.3,0.5 -56.5,-6.1 -62,-7.4 -2.1,-0.5 -2.2,-0.2 -1.8,2.3 1,5.6 13.5,85.1 13.5,85.8 0,0.3 -20,0.6 -44.4,0.6 h -44.3 z"
       id="path22" />
    <path
       d="m 249,671.6 c 0,-2.4 -0.4,-14.5 -1,-26.8 -0.5,-12.3 -1.4,-35.1 -2,-50.8 -0.5,-15.7 -1.5,-40 -2,-54 -0.5,-14 -1.4,-37.2 -2,-51.5 -0.5,-14.3 -1.2,-33.5 -1.6,-42.7 L 239.8,429 h 3.1 c 2.8,0 20.5,1.9 45.6,5 4.4,0.5 16.1,1.9 26,3.1 9.9,1.1 18.1,2.2 18.2,2.3 0.1,0.1 -1.9,33.7 -4.6,74.7 -2.7,40.9 -4.7,74.5 -4.6,74.6 0.1,0.2 7.5,-0.6 16.6,-1.8 9,-1.1 23.4,-2.8 31.9,-3.9 8.5,-1 23.9,-2.9 34.2,-4.1 10.3,-1.3 19,-2.1 19.3,-1.8 0.3,0.3 1.5,8.5 2.7,18.2 2.1,17 2.2,17.6 4,16 1.7,-1.5 1.8,-1.4 1.8,1.8 0,2.1 -1.3,5.4 -3.5,8.9 -1.9,3 -4.6,7.5 -6,10 -9.2,16.3 -17.5,28.5 -19.6,28.8 -1.6,0.3 -2,0 -1.6,-1.2 0.4,-0.9 0.1,-1.6 -0.6,-1.6 -0.7,0 -16.3,1.8 -34.7,4 -46.8,5.6 -117.8,14 -118.4,14 -0.4,0 -0.6,-2 -0.6,-4.4 z"
       id="path24" />
    <path
       d="M 1596.8,277.2 1528,277 V 160.5 c 0,-65.5 0.4,-116.5 0.9,-116.5 0.5,0 9.6,-1.1 20.2,-2.4 10.7,-1.4 34.7,-4.3 53.4,-6.6 18.7,-2.2 37.1,-4.5 40.8,-5.1 3.8,-0.5 7.3,-0.7 7.9,-0.3 0.8,0.5 66.8,54.3 69.1,56.3 0.7,0.7 1.8,9.5 5.7,46.1 1.1,10.7 2.5,23.3 3,28 3.3,29.7 5.2,48.4 5.3,54.6 l 0.2,7 -33.8,27.7 c -18.5,15.2 -34.1,27.7 -34.5,27.9 -0.4,0.2 -31.6,0.2 -69.4,0 z m 30.2,-93.8 22,-7.7 v -18.2 -18.2 l -21.2,-9.8 c -11.7,-5.3 -21.9,-10 -22.5,-10.2 -1,-0.4 -1.3,7.1 -1.3,35.6 0,19.9 0.2,36.1 0.5,36.1 0.3,0 10.5,-3.4 22.5,-7.6 z"
       id="path26" />
    <path
       d="m 688.5,275.8 c -0.2,-0.7 -1.7,-14.1 -3.5,-29.8 -1.7,-15.7 -5.3,-48.3 -8.1,-72.5 -2.7,-24.2 -5.3,-46.9 -5.6,-50.5 -0.5,-5.6 0.7,-12.5 8.2,-49.5 4.8,-23.7 9,-43.3 9.4,-43.8 0.4,-0.4 37.4,-0.6 82.2,-0.5 l 81.5,0.3 -6.7,33.8 c -3.7,18.6 -7,34.1 -7.4,34.5 -0.4,0.4 -18.5,3.4 -40.3,6.7 l -39.7,6.1 v 8.4 8.5 l 9,0.7 c 5,0.4 15.8,1.2 24,1.8 21.8,1.6 36.8,2.9 37,3.2 0,0.2 -0.2,5.3 -0.6,11.3 -0.4,6.1 -1.1,17.4 -1.5,25.2 -0.4,7.8 -1,14.7 -1.5,15.4 -0.5,0.8 -10.9,2.1 -31.4,3.9 -16.8,1.5 -30.8,3 -31,3.2 -0.2,0.2 0.8,4.3 2.2,9.1 l 2.7,8.7 h 38.6 38.5 l 12.7,29.8 c 7,16.3 13.4,31.4 14.3,33.5 l 1.5,3.7 h -92 c -72.8,0 -92.1,-0.3 -92.5,-1.2 z"
       id="path28" />
  </g>
  <g
     fill="#e42c18"
     id="g40"
     transform="translate(-0.9,-1)">
    <path
       d="m 1419.4,664.8 c -8.3,-7.3 -24,-21.2 -34.9,-30.8 -10.9,-9.6 -27.4,-24.2 -36.8,-32.4 -9.3,-8.2 -17.1,-15.5 -17.4,-16.3 -0.4,-1.1 14.4,-104.5 15.1,-104.9 0,0 17.7,-11.2 39.1,-24.8 l 39,-24.8 21.5,0.7 c 54.5,1.7 70.1,2.3 70.4,2.6 1.3,1.7 52.2,65.2 60.5,75.4 5.7,7.2 10.8,13.5 11.2,14 0.5,0.6 0.1,4.9 -0.7,9.5 -0.8,4.7 -2.6,15 -4,23 -1.3,8 -3.3,19.5 -4.4,25.5 -1.1,6.1 -3.5,20.4 -5.5,31.8 -4.7,27.4 -5.2,29.7 -5.9,30.4 -0.6,0.6 -129,34.3 -130.9,34.3 -0.7,0 -8,-6 -16.3,-13.2 z m 58.4,-96.9 9.2,-3.3 -0.5,-14.6 c -0.3,-8 -0.8,-16.3 -1.1,-18.5 l -0.5,-4 -19.7,-4.3 c -10.8,-2.4 -20.1,-4.3 -20.7,-4.2 -1,0 -18,36.9 -17.3,37.4 0.2,0.2 6.8,4.6 14.7,9.9 l 14.3,9.5 6.2,-2.3 c 3.3,-1.2 10.3,-3.8 15.4,-5.6 z"
       id="path32" />
    <path
       d="m 2224.6,673.8 c -1.9,-15.4 -3,-24.8 -6.2,-53.3 -3.1,-28.3 -7.1,-63.7 -10.4,-92.6 -1.1,-9.6 -1,-9.8 3.9,-34 2.7,-13.4 6.6,-32.5 8.6,-42.4 2,-9.9 3.8,-18.8 4.1,-19.7 0.5,-1.7 5.3,-1.8 82.6,-1.8 h 82 l -0.5,2.3 c -0.3,1.2 -3.3,16.4 -6.7,33.7 -3.5,17.5 -6.8,32 -7.5,32.5 -0.7,0.6 -18.9,3.7 -40.3,7 l -39.1,6 -0.6,5 c -0.4,2.7 -0.5,6.6 -0.3,8.5 l 0.3,3.5 16.5,1.2 c 9.1,0.6 22.4,1.7 29.5,2.2 7.2,0.6 15,1.1 17.5,1.1 2.5,0 5.1,0.4 5.8,0.8 1,0.7 0.9,5.9 -0.4,26.8 -0.9,14.2 -1.8,26.1 -1.9,26.2 -0.2,0.2 -14.1,1.6 -31,3.2 -16.8,1.5 -30.9,3 -31.2,3.4 -0.4,0.3 0.5,4.3 1.9,8.8 l 2.6,8.3 38.6,0.5 38.7,0.5 13.4,31.2 c 7.3,17.1 13.6,32.1 14,33.2 l 0.6,2.1 h -92 -92 z"
       id="path34" />
    <path
       d="M 883.6,248.9 859,218.7 V 124.9 31 h 54.2 54.1 l -0.7,24.8 c -0.7,29.4 -2.4,85.5 -3.5,118.2 -0.5,12.9 -0.5,23.8 -0.2,24.2 0.4,0.5 38,-25.7 40.6,-28.4 0.3,-0.2 -2.2,-26.5 -5.5,-58.4 -3.3,-31.8 -6,-58.9 -6,-60.1 V 49 h 51 51 l -0.1,81.8 v 81.7 l -29.6,33.3 -29.6,33.2 h -63.2 -63.2 z"
       id="path36" />
    <path
       d="m 1757.6,273.3 c -0.3,-2.1 -2,-15.9 -3.6,-30.8 -2.6,-24.2 -8.3,-74.2 -12.6,-111.6 -1.5,-13.5 -1.5,-13.5 1,-26 5.8,-28.7 14.6,-71.6 15.1,-73.6 L 1758,29 h 82.1 82.1 l -0.5,2.3 c -0.3,1.2 -3.3,16.4 -6.7,33.7 -3.4,17.3 -6.7,32 -7.3,32.6 -0.7,0.6 -18.5,3.7 -39.7,6.9 -21.2,3.2 -38.8,6.1 -39.2,6.4 -0.5,0.4 -1.1,4.1 -1.4,8.3 -0.8,9.2 -2.6,8.3 19.6,9.8 31.1,2.2 41.6,3 46.4,3.6 l 4.9,0.6 -0.7,7.2 c -0.3,3.9 -1.1,15.7 -1.7,26.1 -0.6,10.5 -1.3,19.2 -1.5,19.4 -0.2,0.2 -9.9,1.2 -21.6,2.3 -36.4,3.2 -39.8,3.5 -40.5,4.2 -0.3,0.3 0.5,4.3 1.9,8.8 l 2.6,8.3 38.7,0.5 38.6,0.5 14,32.5 c 7.6,17.9 13.9,32.8 13.9,33.3 0,0.4 -41.4,0.7 -91.9,0.7 h -91.9 z"
       id="path38" />
  </g>
  <g
     fill="#5aad44"
     id="g50"
     transform="translate(-0.9,-1)">
    <path
       d="m 27.5,680 c -0.3,-0.5 -0.1,-8.7 0.4,-18.2 0.6,-9.5 1.5,-27.2 2.1,-39.3 1,-20.5 1.5,-31.2 4,-80 0.5,-10.4 1.5,-29.1 2.1,-41.5 0.6,-12.4 1.6,-33.1 2.2,-46 l 1.2,-23.5 67.5,-0.2 67.5,-0.3 28.5,19.6 c 15.7,10.8 29.1,20.1 29.8,20.8 0.9,0.8 1.9,14.9 3.6,50.1 l 2.5,49 -20.2,19.8 c -11.1,10.9 -24.7,23.9 -30.2,29.1 l -10,9.3 -27,1.7 c -14.8,0.9 -31.4,2 -36.7,2.3 l -9.8,0.6 V 657.2 681 H 66.6 C 43,681 27.9,680.6 27.5,680 Z M 152.4,534.8 c 7.5,-8.8 13.5,-16.2 13.3,-16.4 -0.5,-0.5 -46.1,-10.3 -46.4,-10 -0.6,0.6 -2.6,38.7 -2,39.3 0.7,0.6 14,2.9 18.8,3.2 2.2,0.1 4.7,-2.4 16.3,-16.1 z"
       id="path42" />
    <path
       d="m 1717.8,648 c -24.5,-20.9 -37.4,-31.3 -37.6,-30.4 -0.3,1.4 1.8,14.2 7.9,47.4 1,5.8 1.9,11.3 1.9,12.3 0,1.6 -2.5,1.7 -38.5,1.7 H 1613 v -2.6 c 0,-1.4 -0.7,-10.5 -1.5,-20.2 -2,-24.8 -8.6,-104.3 -13,-158.9 -1.4,-17 -3,-35.9 -3.5,-42.2 -0.6,-6.3 -0.7,-11.7 -0.3,-12.1 0.4,-0.4 31.7,-3.1 69.5,-6 l 68.7,-5.2 11.5,8.3 c 6.3,4.6 20.2,14.8 31,22.7 10.8,7.9 19.6,14.8 19.6,15.5 0,0.7 0.4,7.1 1,14.2 3.4,44.8 4,54.2 4,58.4 0,4.5 -0.2,4.9 -15.1,21.6 -8.3,9.4 -16,18 -17.1,19.1 l -1.9,2.2 28.5,25.1 c 15.6,13.8 28.7,25.5 29,26 1,1.6 -1.5,5.8 -4.3,7.1 -1.4,0.7 -5.5,2.5 -9.1,4 -3.6,1.5 -17.4,7.5 -30.7,13.3 l -24.3,10.5 z m -11.1,-110.4 c 5.1,-7.3 9.5,-13.9 9.8,-14.7 0.3,-1 -4.9,-4.3 -17.9,-11.1 -10.1,-5.4 -18.6,-9.8 -18.9,-9.8 -0.3,0 -0.8,6.6 -1.1,14.8 -0.3,8.1 -0.8,18.6 -1.1,23.3 l -0.5,8.6 7.7,1 c 13.7,1.8 11.7,2.9 22,-12.1 z"
       id="path44" />
    <path
       d="m 759.6,677.3 c 0.2,-1 1.3,-9.9 2.4,-19.8 1.1,-9.9 4.9,-43.6 8.5,-74.8 3.6,-31.2 6.5,-57.6 6.5,-58.6 0,-1.7 -1,-2 -8.2,-2.5 -8.4,-0.6 -35.1,-2 -61.5,-3.2 L 693,517.7 v -43.5 -43.5 l 36.8,0.7 c 20.2,0.4 60.8,1.1 90.2,1.6 29.4,0.5 68.5,1.2 86.8,1.6 l 33.2,0.7 v 50.4 c 0,47.6 -0.1,50.4 -1.7,49.9 -1,-0.2 -6.1,-1.2 -11.3,-2 -21.9,-3.6 -64.7,-10.6 -67.8,-11.1 -3,-0.6 -3.2,-0.4 -2.7,1.7 0.4,1.9 5.9,38.8 11.5,77.8 0.5,3.6 3.2,21.9 6,40.8 2.7,18.9 5,34.8 5,35.3 0,0.5 -24,0.9 -59.9,0.9 -56.5,0 -59.9,-0.1 -59.5,-1.7 z"
       id="path46" />
    <path
       d="m 1269,242.9 c -13.5,-17.6 -25.7,-33.5 -27.3,-35.2 l -2.7,-3.2 -34.5,35 -34.6,34.9 -31.9,-31.9 -31.9,-32 36.8,-33.1 36.9,-33.1 -28,-31.3 c -15.3,-17.2 -27.7,-31.6 -27.6,-32 0.2,-0.4 11.2,-11.9 24.5,-25.5 l 24.2,-24.7 26.3,26.7 26.3,26.8 17.8,-26.4 c 9.8,-14.5 18.6,-27.4 19.5,-28.6 l 1.7,-2.3 11,10.8 c 6.1,5.9 20.3,19.7 31.7,30.6 l 20.7,19.7 -13.2,15.6 c -18.7,22.1 -31.7,37.5 -32.2,38.4 -0.3,0.4 5.5,5.4 12.8,11.1 7.2,5.7 24.3,19.1 37.9,29.8 l 24.7,19.4 -3.9,4.5 c -2.1,2.5 -9.4,11.1 -16.3,19 -6.9,7.9 -19.2,22.1 -27.4,31.6 -8.1,9.6 -15.2,17.4 -15.8,17.4 -0.5,0 -12,-14.4 -25.5,-32 z"
       id="path48" />
  </g>
  <g
     fill="#119ac8"
     id="g58"
     transform="translate(-0.9,-1)">
    <path
       d="m 451,671.3 c -26.1,-4.7 -47.8,-8.8 -48.3,-9.2 -0.6,-0.6 3,-6.9 18.8,-33.1 1.7,-2.7 4.3,-7.1 5.9,-9.7 3.8,-6.3 59.6,-100.1 100.9,-169.5 3.8,-6.5 7,-11.8 7.1,-11.8 0.6,-0.3 67,-6.9 67.2,-6.7 0,0.1 7.1,15.5 15.7,34.2 8.5,18.7 32,70 52.2,114 20.2,44 36.9,80.5 37.2,81.2 0.3,0.6 -1.1,1.3 -3.4,1.7 -43.7,6.9 -81.6,12.9 -88.3,14 -4.7,0.8 -8.6,1.3 -8.8,1.1 -0.2,-0.1 -2.1,-13.2 -4.2,-29 -2.2,-15.9 -4.2,-29.1 -4.5,-29.4 -0.8,-0.7 -77.9,-2.6 -79.6,-1.9 -0.9,0.3 -4.9,12.8 -10.4,31.7 -5,17.1 -9.2,31.1 -9.5,31 -0.3,0 -21.9,-3.9 -48,-8.6 z m 133.1,-134 -5.9,-16.8 -6.3,-0.6 c -3.5,-0.4 -9.3,-0.7 -12.9,-0.8 l -6.5,-0.1 -6.6,16.8 -6.7,16.7 14.2,0.5 c 7.7,0.3 19.1,0.7 25.3,0.8 l 11.2,0.2 z"
       id="path52" />
    <path
       d="m 974.6,673.3 c -0.5,-4.1 -4.6,-40.3 -10,-88.3 -0.9,-7.4 -2.9,-25.5 -4.6,-40.1 l -3,-26.5 8.5,-41.8 c 4.7,-22.9 8.8,-42.8 9.1,-44.2 l 0.6,-2.4 h 82 82 l -0.5,2.3 c -0.3,1.2 -3.4,16.7 -6.8,34.4 -4.8,24.3 -6.7,32.3 -7.9,32.6 -0.8,0.2 -18.9,3 -40.2,6.3 l -38.7,5.9 -0.6,6 c -0.4,3.4 -0.5,7.2 -0.3,8.5 0.3,2.8 -0.6,2.6 48.3,5.9 25.2,1.7 22.8,0.7 22.1,9.9 -0.3,4.2 -1.1,16 -1.7,26.2 -0.7,10.2 -1.3,18.7 -1.5,18.8 -0.1,0.2 -14,1.7 -30.9,3.2 -16.8,1.5 -30.9,3.1 -31.2,3.4 -0.4,0.4 0.5,4.5 2.1,9.1 l 2.7,8.5 38.5,0.2 38.5,0.3 11.4,26.5 c 6.3,14.6 11.9,27.2 12.4,28 1.3,1.8 3.6,6.8 4.5,9.8 l 0.7,2.2 h -92.4 -92.4 z"
       id="path54" />
    <path
       d="m 447.3,260.8 c 0.4,-9.5 1,-26.1 1.3,-36.9 l 0.7,-19.7 10.6,-0.6 c 5.8,-0.4 15.8,-1.1 22.1,-1.6 6.3,-0.5 19.2,-1.4 28.5,-2.1 9.4,-0.6 17.3,-1.4 17.6,-1.8 0.4,-0.3 -1.3,-19.9 -3.7,-43.6 -2.4,-23.6 -4.4,-43.8 -4.4,-44.7 0,-1.9 -1.1,-2 -24.5,-3.8 -7.7,-0.6 -18.7,-1.5 -24.5,-2 -5.8,-0.5 -14.9,-1.2 -20.2,-1.6 L 441,101.8 V 66.5 31.2 l 15.3,-0.6 c 40.1,-1.5 57.9,-1.7 78.2,-0.7 35.2,1.8 60.1,2.9 89,4.1 14.9,0.6 29.4,1.3 32.3,1.6 l 5.2,0.5 v 33 32.9 h -2.2 c -4.7,0 -63,5.9 -63.5,6.4 -0.3,0.3 0.2,3.8 1.1,7.8 0.8,4 5.2,24.4 9.6,45.3 4.4,20.9 9.3,43.5 10.7,50.1 l 2.6,12.2 -3.4,4.3 c -12.8,16.5 -30.4,38.5 -31.1,39 -0.5,0.3 -15.1,2.9 -32.6,5.7 l -31.7,5.2 h -36.9 -36.9 z"
       id="path56" />
  </g>
</svg>
