<?xml version="1.0" encoding="UTF-8" standalone="no"?>
<svg
   version="1.0"
   width="662"
   height="672"
   viewBox="0 0 662 672"
   preserveAspectRatio="xMidYMid meet"
   id="svg492"
   sodipodi:docname="auto-huntingandfishing.svg"
   inkscape:version="1.1.2 (0a00cf5339, 2022-02-04, custom)"
   xmlns:inkscape="http://www.inkscape.org/namespaces/inkscape"
   xmlns:sodipodi="http://sodipodi.sourceforge.net/DTD/sodipodi-0.dtd"
   xmlns:xlink="http://www.w3.org/1999/xlink"
   xmlns="http://www.w3.org/2000/svg"
   xmlns:svg="http://www.w3.org/2000/svg">
  <sodipodi:namedview
     id="namedview494"
     pagecolor="#ffffff"
     bordercolor="#666666"
     borderopacity="1.0"
     inkscape:pageshadow="2"
     inkscape:pageopacity="0.0"
     inkscape:pagecheckerboard="0"
     showgrid="false"
     inkscape:zoom="1.2329377"
     inkscape:cx="331.3225"
     inkscape:cy="336.59446"
     inkscape:window-width="1920"
     inkscape:window-height="1017"
     inkscape:window-x="-8"
     inkscape:window-y="-8"
     inkscape:window-maximized="1"
     inkscape:current-layer="svg492" />
  <defs
     id="defs12">
    <linearGradient
       id="lg0"
       gradientUnits="userSpaceOnUse"
       x1="355.00003"
       y1="259"
       x2="355.00003"
       y2="390">
      <stop
         offset="0%"
         style="stop-color:rgb(255,140,13);"
         id="stop2" />
      <stop
         offset="100%"
         style="stop-color:rgb(243,95,10);"
         id="stop4" />
    </linearGradient>
    <linearGradient
       id="lg1"
       gradientUnits="userSpaceOnUse"
       x1="334"
       y1="17.999998"
       x2="334"
       y2="149">
      <stop
         offset="0%"
         style="stop-color:rgb(255,177,21);"
         id="stop7" />
      <stop
         offset="100%"
         style="stop-color:rgb(255,169,19);"
         id="stop9" />
    </linearGradient>
    <linearGradient
       inkscape:collect="always"
       xlink:href="#lg0"
       id="linearGradient1311"
       gradientUnits="userSpaceOnUse"
       x1="355.00003"
       y1="259"
       x2="355.00003"
       y2="390" />
    <linearGradient
       inkscape:collect="always"
       xlink:href="#lg0"
       id="linearGradient1313"
       gradientUnits="userSpaceOnUse"
       x1="355.00003"
       y1="259"
       x2="355.00003"
       y2="390" />
    <linearGradient
       inkscape:collect="always"
       xlink:href="#lg0"
       id="linearGradient1315"
       gradientUnits="userSpaceOnUse"
       x1="355.00003"
       y1="259"
       x2="355.00003"
       y2="390" />
    <linearGradient
       inkscape:collect="always"
       xlink:href="#lg0"
       id="linearGradient1317"
       gradientUnits="userSpaceOnUse"
       x1="355.00003"
       y1="259"
       x2="355.00003"
       y2="390" />
    <linearGradient
       inkscape:collect="always"
       xlink:href="#lg0"
       id="linearGradient1319"
       gradientUnits="userSpaceOnUse"
       x1="355.00003"
       y1="259"
       x2="355.00003"
       y2="390" />
    <linearGradient
       inkscape:collect="always"
       xlink:href="#lg0"
       id="linearGradient1321"
       gradientUnits="userSpaceOnUse"
       x1="355.00003"
       y1="259"
       x2="355.00003"
       y2="390" />
    <linearGradient
       inkscape:collect="always"
       xlink:href="#lg0"
       id="linearGradient1323"
       gradientUnits="userSpaceOnUse"
       x1="355.00003"
       y1="259"
       x2="355.00003"
       y2="390" />
    <linearGradient
       inkscape:collect="always"
       xlink:href="#lg0"
       id="linearGradient1325"
       gradientUnits="userSpaceOnUse"
       x1="355.00003"
       y1="259"
       x2="355.00003"
       y2="390" />
    <linearGradient
       inkscape:collect="always"
       xlink:href="#lg0"
       id="linearGradient1327"
       gradientUnits="userSpaceOnUse"
       x1="355.00003"
       y1="259"
       x2="355.00003"
       y2="390" />
    <linearGradient
       inkscape:collect="always"
       xlink:href="#lg0"
       id="linearGradient1329"
       gradientUnits="userSpaceOnUse"
       x1="355.00003"
       y1="259"
       x2="355.00003"
       y2="390" />
    <linearGradient
       inkscape:collect="always"
       xlink:href="#lg0"
       id="linearGradient1331"
       gradientUnits="userSpaceOnUse"
       x1="355.00003"
       y1="259"
       x2="355.00003"
       y2="390" />
    <linearGradient
       inkscape:collect="always"
       xlink:href="#lg0"
       id="linearGradient1333"
       gradientUnits="userSpaceOnUse"
       x1="355.00003"
       y1="259"
       x2="355.00003"
       y2="390" />
    <linearGradient
       inkscape:collect="always"
       xlink:href="#lg0"
       id="linearGradient1335"
       gradientUnits="userSpaceOnUse"
       x1="355.00003"
       y1="259"
       x2="355.00003"
       y2="390" />
    <linearGradient
       inkscape:collect="always"
       xlink:href="#lg1"
       id="linearGradient1337"
       gradientUnits="userSpaceOnUse"
       x1="334"
       y1="17.999998"
       x2="334"
       y2="149" />
    <linearGradient
       inkscape:collect="always"
       xlink:href="#lg1"
       id="linearGradient1339"
       gradientUnits="userSpaceOnUse"
       x1="334"
       y1="17.999998"
       x2="334"
       y2="149" />
    <linearGradient
       inkscape:collect="always"
       xlink:href="#lg1"
       id="linearGradient1341"
       gradientUnits="userSpaceOnUse"
       x1="334"
       y1="17.999998"
       x2="334"
       y2="149" />
    <linearGradient
       inkscape:collect="always"
       xlink:href="#lg1"
       id="linearGradient1343"
       gradientUnits="userSpaceOnUse"
       x1="334"
       y1="17.999998"
       x2="334"
       y2="149" />
    <linearGradient
       inkscape:collect="always"
       xlink:href="#lg1"
       id="linearGradient1345"
       gradientUnits="userSpaceOnUse"
       x1="334"
       y1="17.999998"
       x2="334"
       y2="149" />
    <linearGradient
       inkscape:collect="always"
       xlink:href="#lg1"
       id="linearGradient1347"
       gradientUnits="userSpaceOnUse"
       x1="334"
       y1="17.999998"
       x2="334"
       y2="149" />
    <linearGradient
       inkscape:collect="always"
       xlink:href="#lg1"
       id="linearGradient1349"
       gradientUnits="userSpaceOnUse"
       x1="334"
       y1="17.999998"
       x2="334"
       y2="149" />
    <linearGradient
       inkscape:collect="always"
       xlink:href="#lg1"
       id="linearGradient1351"
       gradientUnits="userSpaceOnUse"
       x1="334"
       y1="17.999998"
       x2="334"
       y2="149" />
    <linearGradient
       inkscape:collect="always"
       xlink:href="#lg1"
       id="linearGradient1353"
       gradientUnits="userSpaceOnUse"
       x1="334"
       y1="17.999998"
       x2="334"
       y2="149" />
    <linearGradient
       inkscape:collect="always"
       xlink:href="#lg1"
       id="linearGradient1355"
       gradientUnits="userSpaceOnUse"
       x1="334"
       y1="17.999998"
       x2="334"
       y2="149" />
    <linearGradient
       inkscape:collect="always"
       xlink:href="#lg1"
       id="linearGradient1357"
       gradientUnits="userSpaceOnUse"
       x1="334"
       y1="17.999998"
       x2="334"
       y2="149" />
    <linearGradient
       inkscape:collect="always"
       xlink:href="#lg1"
       id="linearGradient1359"
       gradientUnits="userSpaceOnUse"
       x1="334"
       y1="17.999998"
       x2="334"
       y2="149" />
    <linearGradient
       inkscape:collect="always"
       xlink:href="#lg1"
       id="linearGradient1361"
       gradientUnits="userSpaceOnUse"
       x1="334"
       y1="17.999998"
       x2="334"
       y2="149" />
    <linearGradient
       inkscape:collect="always"
       xlink:href="#lg1"
       id="linearGradient1363"
       gradientUnits="userSpaceOnUse"
       x1="334"
       y1="17.999998"
       x2="334"
       y2="149" />
  </defs>
  <g
     fill="#3c0006"
     id="g18"
     transform="translate(-1,-1)">
    <path
       d="m 64,669.9 c -0.7,-1.7 -1.8,-3.6 -2.4,-4.2 -0.7,-0.7 -2.9,-4.3 -5.1,-8.2 -2.1,-3.8 -4.6,-8.1 -5.7,-9.4 C 49.1,645.8 49,641.8 49,564.4 V 483 h 50.8 c 57.5,0 432.5,0 509,0 H 659 v 81.3 c 0,79.7 -0.1,81.2 -2,83.7 -1.1,1.4 -5.5,7.6 -9.6,13.8 l -7.6,11.2 h -70.9 c -66.8,0 -70.9,-0.1 -70.9,-1.7 -0.1,-1.7 -0.1,-1.7 -1.1,0 -0.9,1.6 -10,1.7 -168.4,1.7 H 161.2 l -2.8,-7.2 c -1.5,-4 -4,-10.6 -5.6,-14.6 -2.6,-6.9 -2.8,-8.3 -2.8,-21.8 V 615 H 132.5 115 v 29 29 H 90.1 65.2 Z"
       id="path14" />
    <path
       d="M 15.3,183.4 C 12.6,179.2 10,175.3 9.4,174.6 8.9,174 6.7,171 4.7,168 L 1,162.5 V 81.8 1 h 331 331 v 80.8 80.7 l -3.7,5.5 c -2,3 -3.9,5.7 -4.3,6 -0.4,0.3 -3,4.2 -5.9,8.8 l -5.3,8.2 h -70.7 c -53.7,0 -71,-0.3 -71.9,-1.2 -0.9,-0.9 -1.2,-0.9 -1.2,0 0,0.9 -11.4,1.2 -48.5,1.2 H 403 V 133.5 76 h -9.5 -9.5 v 44.3 c 0,32.2 -0.4,47.7 -1.5,57.2 -0.8,7.2 -1.5,13.1 -1.5,13.3 0,0.1 -11.2,0.2 -24.9,0.2 h -24.8 l -0.6,-8.2 C 330.3,178.2 330,152.3 330,125.3 V 76 h -10 -10 v 57.5 57.5 h -23.3 c -23.3,0 -23.4,0 -24.5,-2.2 l -1.1,-2.3 v 2.3 L 261,191 H 140.5 20.1 Z"
       id="path16" />
  </g>
  <g
     fill="#530106"
     id="g26"
     transform="translate(-1,-1)">
    <path
       d="m 49,564 v -81 h 50.8 c 57.5,0 432.5,0 509,0 H 659 v 81 81 h -75.4 c -59.4,0 -75.5,-0.3 -75.9,-1.2 -0.4,-1 -0.6,-1 -0.6,0 -0.1,0.9 -36.5,1.2 -178.6,1.2 H 150 V 587.5 530 h -24 -24 v 5 5 H 123.5 145 V 563.5 587 H 123.5 102 v 29 29 H 75.5 49 Z m 252,1.5 V 552 h -13.7 -13.8 l 13.5,13.5 c 7.4,7.4 13.6,13.5 13.7,13.5 0.2,0 0.3,-6.1 0.3,-13.5 z m -69,10.2 c 0,-0.1 -6.3,-6.5 -14,-14.2 l -14,-14 v 14.3 14.2 h 14 c 7.7,0 14,-0.1 14,-0.3 z"
       id="path20" />
    <path
       d="m 206.6,426.8 c -0.8,-2.9 -2.6,-9.3 -3.9,-14.2 l -2.5,-8.8 3.4,-76.7 C 205.4,285 207,248.6 207,246.3 V 242 h 45.5 45.5 l 0.1,3.8 0.2,3.7 1,-3.7 1.1,-3.8 h 84.5 84.6 l 17.7,17.7 17.8,17.8 -0.1,64 v 64 l -4.8,13 -4.7,13 -71.2,0.3 c -67.3,0.2 -71.2,0.1 -71.2,-1.5 -0.1,-1.7 -0.1,-1.7 -1.4,0 -1.2,1.6 -5.9,1.7 -72.4,1.7 h -71.1 z"
       id="path22" />
    <path
       d="M 15.3,183.4 C 12.6,179.2 10,175.3 9.4,174.6 8.9,174 6.7,171 4.7,168 L 1,162.5 V 81.8 1 h 331 331 v 80.8 80.7 l -3.7,5.5 c -2,3 -3.9,5.7 -4.3,6 -0.4,0.3 -3,4.2 -5.9,8.8 l -5.3,8.2 h -70.7 c -53.7,0 -71,-0.3 -71.9,-1.2 -0.9,-0.9 -1.2,-0.9 -1.2,0 0,0.9 -11.4,1.2 -48.5,1.2 H 403 v -38.7 c 0.1,-30.2 0.4,-40.6 1.6,-46.8 0.9,-4.9 1.7,-17.6 2.1,-32.7 L 407.3,48 H 395.6 384 v 58.3 c 0,44.5 -0.4,61.2 -1.5,71.2 -0.8,7.2 -1.5,13.1 -1.5,13.3 0,0.1 -11.2,0.2 -24.9,0.2 h -24.9 l -0.7,-11.7 C 330,172.8 330,140.6 330.3,107.7 L 331,48 h -11.1 -11 l 0.7,71.5 0.7,71.5 h -23.5 c -23.4,0 -23.5,0 -24.6,-2.2 l -1.1,-2.3 v 2.3 L 261,191 H 140.5 20.1 Z"
       id="path24" />
  </g>
  <g
     fill="#68060d"
     id="g70"
     transform="translate(-1,-1)">
    <path
       d="M 54,563.5 V 488 h 46.5 46.5 v 18 18 H 121.5 96 v 11 11 H 117.5 139 V 563.5 581 H 117.5 96 v 29 29 H 75 54 Z"
       id="path28" />
    <path
       d="M 156,563.5 V 488 h 21 21 v 75.5 75.5 h -21 -21 z"
       id="path30" />
    <path
       d="M 206,610.5 V 582 h 20.4 20.4 L 226.4,561.8 206,541.6 V 514.8 488 h 46.5 46.5 v 29 29 l -20.2,0.1 h -20.3 l 20.3,19.8 20.2,19.8 V 612.3 639 H 252.5 206 Z m 51,-12.8 c 0,-6.1 -0.1,-6.4 -4.5,-10.7 l -4.5,-4.4 v 10.7 10.7 h 4.5 4.5 z m 0,-63.7 v -10 h -4.5 -4.5 v 5.7 c 0,5.4 0.3,6 4.2,10 2.3,2.4 4.3,4.3 4.5,4.3 0.2,0 0.3,-4.5 0.3,-10 z"
       id="path32" />
    <path
       d="M 307,563.5 V 488 h 21 21 v 29 29 h 5 5 v -29 -29 h 21 21 v 75.5 75.5 h -21 -21 v -29 -29 h -5 -5 v 29 29 h -21 -21 z"
       id="path34" />
    <path
       d="M 409,563.5 V 488 h 21 21 v 75.5 75.5 h -21 -21 z"
       id="path36" />
    <path
       d="M 459,563.5 V 488 h 20.5 20.4 l 3,9.8 c 1.6,5.3 3.9,12.6 5,16.2 l 2,6.5 V 504.3 L 510,488 h 21 21 v 75.5 75.5 h -19.8 -19.8 l -5.6,-17.2 -5.6,-17.3 -0.1,17.3 -0.1,17.2 h -21 -21 z"
       id="path38" />
    <path
       d="M 561,563.5 V 488 h 46.5 46.5 v 28 28 h -21 -21 v -10 -10 h -5 -5 v 40 40 h 5 5 V 592.5 581 H 607.5 603 V 563.5 546 H 628.5 654 V 592.5 639 H 607.5 561 Z"
       id="path40" />
    <path
       d="m 207.1,428.8 c -1.3,-4.5 -6.1,-22.4 -6.1,-23.2 0,-0.3 34.2,-0.6 76,-0.6 70.7,0 76,-0.1 76,-1.7 0,-1.6 0.1,-1.6 1.3,0 1.1,1.6 7.1,1.7 75.8,1.9 l 74.6,0.3 -4.7,13 -4.6,13 -71.2,0.3 c -67.3,0.2 -71.2,0.1 -71.2,-1.5 -0.1,-1.7 -0.1,-1.7 -1.4,0 -1.2,1.6 -5.9,1.7 -72.4,1.7 h -71 z"
       id="path42" />
    <path
       d="m 206.1,394.8 c 0,-1.8 1.5,-35.7 3.2,-75.3 l 3.2,-72 39.7,-0.3 39.6,-0.2 0.6,6.2 c 0.3,3.5 1.7,33.1 3.1,65.8 1.4,32.7 2.8,63.9 3.1,69.3 l 0.7,9.7 H 278.1 257 v -10.3 c 0,-5.7 -0.3,-15.2 -0.7,-21 L 255.7,356 h -3.2 -3.2 l -0.6,9.8 c -0.4,5.3 -0.7,14.8 -0.7,21 V 398 h -21 -21 z m 48.1,-86.5 c -0.3,-16.4 -1.1,-25.3 -2.3,-25.3 -0.5,0 -0.9,3.5 -0.9,7.8 0,4.2 -0.3,12.8 -0.7,19 l -0.6,11.2 h 2.4 2.4 z"
       id="path44" />
    <path
       d="M 305,322.5 V 247 l 20.6,0.2 20.7,0.3 5.1,16.9 5.1,17 0.3,-17.2 0.2,-17.2 h 20.5 20.5 v 75.5 75.5 h -19.7 -19.8 l -5.6,-17.3 -5.7,-17.2 -0.1,17.3 -0.1,17.2 h -21 -21 z"
       id="path46" />
    <path
       d="M 407,322.5 V 247 h 29.8 29.7 l 16.8,16.8 16.7,16.7 V 339.3 398 H 453.5 407 Z m 52,5.2 v -35.3 l -5,-4.9 -5,-4.9 v 40.2 40.2 h 5 5 z"
       id="path48" />
    <path
       d="M 15.3,183.4 C 12.6,179.2 10,175.3 9.5,174.6 8.9,174 6.9,171.4 5.2,168.8 L 1.9,164 H 129.5 257 l 0.1,-2.2 v -2.3 l 0.9,2.3 0.9,2.2 24.8,-0.2 24.8,-0.3 0.6,-5.5 c 0.3,-3 0.6,3.2 0.7,13.8 L 310,191 h -23.3 c -23.3,0 -23.4,0 -24.5,-2.2 l -1.1,-2.3 v 2.3 L 261,191 H 140.5 20.1 Z"
       id="path50" />
    <path
       d="m 330.7,182.8 c -0.4,-4.6 -0.6,-14.1 -0.5,-21.3 0.1,-8.9 0.3,-10.6 0.5,-5.2 l 0.4,7.7 h 26.5 26.6 l -0.6,3.8 c -0.3,2 -0.8,6.4 -1.1,9.7 -0.3,3.3 -0.8,7.7 -1.1,9.8 l -0.6,3.7 h -24.7 -24.8 z"
       id="path52" />
    <path
       d="m 403,176.3 c 0,-15.1 1.7,-30.6 3.2,-29.7 0.4,0.3 0.8,4.3 0.8,9 v 8.4 h 51.3 c 38.6,0 51.6,-0.3 52.5,-1.2 0.9,-0.9 1.2,-0.9 1.2,0 0,0.9 17.3,1.2 75,1.2 h 75.1 l -3.2,4.8 c -1.8,2.6 -3.6,4.9 -3.9,5.2 -0.4,0.3 -3,4.2 -5.9,8.8 l -5.3,8.2 h -70.7 c -53.7,0 -71,-0.3 -71.9,-1.2 -0.9,-0.9 -1.2,-0.9 -1.2,0 0,0.9 -11.4,1.2 -48.5,1.2 H 403 Z"
       id="path54" />
    <path
       d="M 7,82.5 V 7 H 27.5 48 V 35.5 64 h 5 5 V 35.5 7 h 21 21 V 82.5 158 H 79 58 v -29 -29 h -5 -5 v 29 29 H 27.5 7 Z"
       id="path56" />
    <path
       d="M 108,82.5 V 7 h 21 21 V 64.5 122 h 4.5 4.5 V 64.5 7 h 21 21 V 82.5 158 H 154.5 108 Z"
       id="path58" />
    <path
       d="M 210,82.5 V 7 h 20.3 20.4 l 5.1,16.7 5.1,16.8 V 23.8 L 261,7 h 21 21 V 82.5 158 h -20 -19.9 l -6,-18.2 -6,-18.3 -0.1,18.3 V 158 H 230.5 210 Z"
       id="path60" />
    <path
       d="M 337,100 V 42 H 324 311 V 24.5 7 H 357.5 404 V 24.5 42 h -13 -13 v 58 58 H 357.5 337 Z"
       id="path62" />
    <path
       d="M 413,82.5 V 7 H 433.5 454 V 82.5 158 H 433.5 413 Z"
       id="path64" />
    <path
       d="M 463,82.5 V 7 h 20.4 20.4 l 2.5,8.3 c 1.4,4.5 3.7,11.8 5,16.2 l 2.5,8 0.1,-16.2 L 514,7 h 21 21 V 82.5 158 h -19.9 -20 l -5.4,-16.7 -5.5,-16.8 -0.1,16.8 -0.1,16.7 h -21 -21 z"
       id="path66" />
    <path
       d="M 564,82.5 V 7 H 610.5 657 V 35 63 H 636.5 616 V 52.5 42 h -5 -5 v 11 11 h 25.5 25.5 v 47 47 H 610.5 564 Z m 52,28.5 v -11 h -5 -5 v 11 11 h 5 5 z"
       id="path68" />
  </g>
  <g
     fill="#a50405"
     id="g102"
     transform="translate(-1,-1)">
    <path
       d="M 55,563.5 V 488 h 46 46 V 505.5 523 H 121.5 96 v 11.5 11.5 h 21 21 V 563.5 581 H 117 96 v 29 29 H 75.5 55 Z"
       id="path72" />
    <path
       d="m 156.2,563.8 0.3,-75.3 20.3,-0.3 L 197,488 V 563.5 639 H 176.5 156 Z"
       id="path74" />
    <path
       d="M 206,610.5 V 582 h 20.5 20.5 v 11 11 h 5.5 5.5 v -5.8 -5.7 l -26,-26 -26,-26 0.2,-26 0.3,-26 h 46 46 l 0.3,28.3 0.2,28.2 h -20.5 -20.4 l -0.3,-10.7 -0.3,-10.8 h -5 -5 l -0.3,5.7 -0.3,5.7 26.1,25.7 26,25.7 V 612.6 639 H 252.5 206 Z"
       id="path76" />
    <path
       d="M 308,563.5 V 488 l 20.3,0.2 20.2,0.3 0.3,28.8 0.2,28.7 h 5 5 l 0.2,-28.7 0.3,-28.8 20.3,-0.3 L 400,488 V 563.5 639 H 379.5 359 v -29 -29 h -5 -5 v 29 29 H 328.5 308 Z"
       id="path78" />
    <path
       d="m 409.2,563.8 0.3,-75.3 20.3,-0.3 L 450,488 V 563.5 639 H 429.5 409 Z"
       id="path80" />
    <path
       d="m 459.2,563.8 0.3,-75.3 h 20 20 l 3.2,10 c 1.7,5.5 4.2,13.4 5.5,17.5 l 2.3,7.5 0.3,-17.8 0.2,-17.7 20.3,0.2 20.2,0.3 0.3,75.3 0.2,75.2 -19.7,-0.2 -19.7,-0.3 -5.7,-17.5 -5.7,-17.5 -0.1,17.8 -0.1,17.7 h -21 -21 z"
       id="path82" />
    <path
       d="M 561,563.5 V 488 h 46 46 v 28 28 H 632.5 612 V 533.5 523 h -5 -5 v 40.5 40.5 h 5 5 V 592.5 581 H 607.5 603 V 563.5 546 h 25 25 v 46.5 46.5 h -46 -46 z"
       id="path84" />
    <path
       d="m 206.5,390.8 c 0.3,-4 1.7,-35 3,-68.8 1.4,-33.8 2.8,-64.3 3.1,-67.7 l 0.6,-6.3 h 39.3 39.3 l 0.6,10.8 c 0.4,5.9 1.8,36.1 3.1,67.2 1.3,31.1 2.7,60 3,64.3 l 0.5,7.7 h -21 -21 v -18.7 c 0,-10.4 -0.3,-19.8 -0.6,-21 -0.5,-1.8 -1.4,-2.3 -3.9,-2.3 -2.1,0 -3.5,0.6 -3.9,1.6 -0.3,0.9 -0.6,10.3 -0.6,21 V 398 h -21 -21.1 z m 48.1,-77.5 c -0.3,-4.2 -0.6,-12.7 -0.6,-19 0,-8.8 -0.3,-11.3 -1.3,-11.3 -1.4,0 -2.7,15.1 -2.7,31.2 0,6.7 0,6.8 2.6,6.8 h 2.7 z"
       id="path86" />
    <path
       d="m 306,323 v -75 l 20.2,0.2 20.2,0.3 5,16.9 5.1,16.8 0.3,-17.1 0.2,-17.1 h 20.5 20.5 v 75 75 l -19.7,-0.2 -19.7,-0.3 -5.7,-17.5 -5.7,-17.5 -0.1,17.8 L 347,398 H 326.5 306 Z"
       id="path88" />
    <path
       d="m 407,323 v -75 h 30.3 30.2 l 16.3,16.3 16.2,16.2 V 339.3 398 H 453.5 407 Z m 52,4.8 v -35.2 l -4.7,-4.8 c -2.6,-2.6 -5.1,-4.8 -5.5,-4.8 -0.4,0 -0.8,18 -0.8,40 v 40 h 5.5 5.5 z"
       id="path90" />
    <path
       d="M 7,82 V 7 H 27.5 48 V 35.5 64 h 5 5 V 35.5 7 h 21 21 v 62.3 c 0,34.2 -0.3,67.9 -0.7,75 L 98.7,157 H 78.3 58 V 128.5 100 H 53 48 V 128.5 157 H 27.5 7 Z"
       id="path92" />
    <path
       d="M 108,82 V 7 h 21 21 V 64.5 122 h 4.5 4.5 V 64.5 7 h 21 21 v 75 75 H 154.5 108 Z"
       id="path94" />
    <path
       d="M 210,82 V 7 h 20.3 20.2 l 5,16.7 5,16.8 0.3,-16.8 L 261,7 h 21 21 v 62.3 c 0,34.2 -0.3,67.9 -0.7,75 L 301.7,157 282.3,156.8 262.9,156.5 257,139 251.2,121.5 251.1,139.3 251,157 H 230.5 210 Z"
       id="path96" />
    <path
       d="M 463,82 V 7 h 20.3 20.3 l 5.2,16.8 5.1,16.7 V 23.8 L 514,7 h 21 21 v 75 75 h -20 -19.9 l -5.4,-16.7 -5.4,-16.8 -0.8,16.8 -0.7,16.7 H 483.4 463 Z"
       id="path98" />
    <path
       d="m 564.7,144.3 c -0.4,-7.1 -0.7,-40.8 -0.7,-75 V 7 H 610.5 657 V 35 63 H 636.5 616 V 52.5 42 h -5 -5 V 53 64 H 631.5 657 V 110.5 157 H 611.2 565.3 Z M 616,111.1 v -10.9 l -5,-0.4 -5,-0.3 v 11.3 11.2 h 5 5 z"
       id="path100" />
  </g>
  <g
     fill="#d40105"
     id="g124"
     transform="translate(-1,-1)">
    <path
       d="m 55,564 v -75 h 46 46 v 17 17 H 121 94.9 l 0.3,11.8 0.3,11.7 21.3,0.3 21.2,0.2 v 17 17 H 116.5 95 v 29 29 H 75 55 Z"
       id="path104" />
    <path
       d="m 157,564 v -75 h 20 20 v 75 75 h -20 -20 z"
       id="path106" />
    <path
       d="m 207,611 v -28 h 20 20 v 11 11 h 5.5 5.5 v -6.7 -6.6 L 232.5,566.7 207,541.8 V 515.4 489 h 45.5 45.5 v 28 28 h -20 -20 v -11 -11 h -5.5 -5.5 v 6.4 6.4 l 25.5,25 25.5,25 V 612.4 639 H 252.5 207 Z"
       id="path108" />
    <path
       d="m 308,564 v -75 h 20 20 l 0.2,28.8 0.3,28.7 h 5.5 5.5 l 0.3,-28.7 0.2,-28.8 h 20 20 v 75 75 h -20 -20 v -29 -29 h -6 -6 v 29 29 h -20 -20 z"
       id="path110" />
    <path
       d="m 410,564 v -75 h 20 20 v 75 75 h -20 -20 z"
       id="path112" />
    <path
       d="m 460,564 v -75 h 19.8 19.7 l 5.5,18.3 5.5,18.2 0.3,-18.2 0.2,-18.3 h 20 20 v 75 75 h -18.9 -18.9 l -6.3,-19.2 -6.4,-19.3 -0.3,19.3 -0.2,19.2 h -20 -20 z"
       id="path114" />
    <path
       d="m 561,564 v -75 h 46 46 V 516.5 544 H 633 613 V 533.5 523 h -5.5 -5.5 v 41.1 41 l 5.3,-0.3 5.2,-0.3 0.3,-11.7 0.3,-11.8 h -5.1 -5 v -17 -17 h 25 25 v 46 46 h -46 -46 z"
       id="path116" />
    <path
       d="m 207.4,380.3 c 0.4,-9.8 1.8,-43.2 3.2,-74.2 1.3,-31.1 2.4,-56.9 2.4,-57.3 0,-0.4 17.8,-0.8 39.5,-0.8 H 292 v 3.5 c 0,1.9 1.1,28.1 2.4,58.2 1.4,30.1 2.8,62.3 3.2,71.6 l 0.6,16.7 h -19.9 -20 l -0.6,-12.7 c -0.4,-7.1 -0.7,-16.5 -0.7,-21 V 356 h -4.5 -4.5 v 7.3 c 0,4.1 -0.3,13.5 -0.7,21 l -0.6,13.7 h -20 -19.9 z m 47.3,-73 c -0.4,-7.5 -0.7,-16.2 -0.7,-19.5 0,-4.5 -0.3,-5.8 -1.5,-5.8 -0.9,0 -1.5,1 -1.6,2.3 -0.1,1.2 -0.4,10 -0.8,19.5 l -0.6,17.2 h 2.9 2.9 z"
       id="path118" />
    <path
       d="m 306,323 v -75 h 19.9 19.9 l 2.2,7.3 c 1.2,3.9 3.7,11.9 5.5,17.7 l 3.3,10.5 0.1,-17.7 0.1,-17.8 h 20.5 20.5 v 75 75 h -19.4 -19.3 l -5.9,-18.2 -5.9,-18.3 -0.6,7 c -0.4,3.9 -0.7,12.1 -0.8,18.3 L 346,398 h -20 -20 z"
       id="path120" />
    <path
       d="m 407.7,379.8 c -0.4,-9.9 -0.7,-43.7 -0.7,-75 V 248 h 29.8 29.7 l 16.3,16.3 16.2,16.2 V 339.3 398 H 453.7 408.3 Z M 459,327.1 v -35.8 l -5,-4.7 c -2.7,-2.5 -5.2,-4.6 -5.5,-4.6 -0.3,0 -0.5,18.2 -0.5,40.5 V 363 h 5.5 5.5 z"
       id="path122" />
  </g>
  <g
     fill="#a94309"
     id="g138"
     transform="translate(-1,-1)">
    <path
       d="M 7,82 V 7 H 27.5 48 V 35.5 64 h 5 5 V 35.5 7 H 78.5 99 v 75 75 H 78.5 58 V 128 99 h -5 -5 v 29 29 H 27.5 7 Z"
       id="path126" />
    <path
       d="M 108,82 V 7 h 21 21 V 64.5 122 h 5 5 V 64.5 7 h 20.5 20.5 v 75 75 H 154.5 108 Z"
       id="path128" />
    <path
       d="M 210,82 V 7 l 20.2,0.2 20.2,0.3 5.3,17 5.2,17 V 24.3 L 261,7 h 20.5 20.5 v 75 75 h -19.5 -19.4 l -6,-18.2 -5.9,-18.3 -0.1,18.3 L 251,157 H 230.5 210 Z"
       id="path130" />
    <path
       d="M 337,99.5 V 42 H 324 311 V 24.5 7 H 357.5 404 V 24.5 42 H 391 378 V 99.5 157 H 357.5 337 Z"
       id="path132" />
    <path
       d="M 463,82 V 7 h 20.3 20.3 l 4.9,16.7 5,16.6 0.3,-16.6 L 514,7 h 21 21 v 75 75 h -19.8 -19.7 l -6.2,-18.2 -6.1,-18.3 -0.1,18.3 L 504,157 H 483.5 463 Z"
       id="path134" />
    <path
       d="M 565,82 V 7 h 46 46 V 35 63 H 636.5 616 V 52.5 42 h -5 -5 v 11.3 11.2 l 25.5,-0.3 25.5,-0.3 v 46.6 46.5 h -46 -46 z m 51,28.5 V 99 h -5 -5 v 11.5 11.5 h 5 5 z"
       id="path136" />
  </g>
  <g
     fill="#df2107"
     id="g160"
     transform="translate(-1,-1)">
    <path
       d="M 64,634.5 C 64,633.7 63.3,633 62.5,633 61.2,633 61,624.6 61,563.5 V 494 h 40 c 39.3,0 40,0 40,2 0,1.1 0.7,2 1.5,2 1.2,0 1.5,1.9 1.5,11 v 11 H 118.5 93 v 16 16 h 19.5 c 16.7,0 19.5,0.2 19.5,1.5 0,0.8 0.7,1.5 1.5,1.5 1.2,0 1.5,1.9 1.5,11.5 V 578 H 114 93 v 29 29 H 78.5 C 66.3,636 64,635.8 64,634.5 Z"
       id="path140" />
    <path
       d="m 165,634.5 c 0,-0.8 -0.7,-1.5 -1.5,-1.5 -1.3,0 -1.5,-8.1 -1.3,-69.2 l 0.3,-69.3 14.3,-0.3 C 190.5,494 191,494 191,496 c 0,1.1 0.7,2 1.5,2 1.3,0 1.5,8.3 1.5,69 v 69 h -14.5 c -12.2,0 -14.5,-0.2 -14.5,-1.5 z"
       id="path142" />
    <path
       d="m 216,634.5 c 0,-0.8 -0.9,-1.5 -2,-1.5 -1.9,0 -2,-0.7 -2,-22.5 V 588 h 14.5 c 12.2,0 14.5,0.2 14.5,1.5 0,0.8 0.7,1.5 1.5,1.5 1.2,0 1.5,1.7 1.5,9.5 v 9.5 h 10 10 v -9.9 -9.9 l -26,-25.8 -26,-25.8 0.2,-22 0.3,-22.1 39.8,-0.3 c 39.2,-0.2 39.9,-0.2 40.4,1.8 0.3,1.1 1.2,2 1.9,2 1.2,0 1.4,3.9 1.4,22 v 22 h -14.5 c -12.2,0 -14.5,-0.2 -14.5,-1.5 0,-0.8 -0.7,-1.5 -1.5,-1.5 -1.2,0 -1.5,-1.7 -1.5,-9.5 v -9.6 l -9.7,0.3 -9.8,0.3 -0.3,10 -0.3,10 26,25.6 26.1,25.5 v 22.2 22.2 h -40 c -34.9,0 -40,-0.2 -40,-1.5 z"
       id="path144" />
    <path
       d="m 317,634.5 c 0,-0.8 -0.7,-1.5 -1.5,-1.5 -1.3,0 -1.5,-8.4 -1.5,-69.5 V 494 h 14.1 c 13.2,0 14.1,0.1 14.6,2 0.3,1.1 1.2,2 1.9,2 1.2,0 1.4,4.7 1.4,27 v 27 h 9.5 9.5 l 0.2,-28.7 0.3,-28.8 14.3,-0.3 C 393.5,494 394,494 394,496 c 0,1.1 0.7,2 1.5,2 1.3,0 1.5,8.3 1.5,69 v 69 h -14.5 c -12.2,0 -14.5,-0.2 -14.5,-1.5 0,-0.8 -0.7,-1.5 -1.5,-1.5 -1.3,0 -1.5,-3.7 -1.5,-27.5 V 578 h -9.5 -9.5 v 29 29 h -14.5 c -12.2,0 -14.5,-0.2 -14.5,-1.5 z"
       id="path146" />
    <path
       d="m 419,634.5 c 0,-0.8 -0.9,-1.5 -2,-1.5 -2,0 -2,-0.5 -1.8,-69.2 l 0.3,-69.3 14.3,-0.3 C 443.5,494 444,494 444,496 c 0,1.1 0.7,2 1.5,2 1.3,0 1.5,8.3 1.5,69 v 69 h -14 c -11.8,0 -14,-0.2 -14,-1.5 z"
       id="path148" />
    <path
       d="m 469,634.5 c 0,-0.8 -0.9,-1.5 -2,-1.5 -2,0 -2,-0.5 -1.8,-69.2 l 0.3,-69.3 14.8,-0.3 c 14.2,-0.2 14.9,-0.2 15.4,1.8 0.3,1.1 1,2 1.7,2 0.6,0 3.6,8.2 6.5,18.3 9.7,32.3 9.1,30.7 11.2,30.7 1.8,0 1.9,-1.1 1.9,-26.5 V 494 h 14.1 c 13.2,0 14.1,0.1 14.6,2 0.3,1.1 1.2,2 1.9,2 1.2,0 1.4,10.9 1.4,69 v 69 h -14.5 c -12.2,0 -14.5,-0.2 -14.5,-1.5 0,-0.8 -0.6,-1.5 -1.4,-1.5 -0.9,0 -3.9,-7.7 -9,-23.7 -4.3,-13.1 -7.9,-24.4 -8.1,-25.1 -0.3,-0.8 -1.3,-1.2 -2.2,-1 -1.7,0.3 -1.8,2.5 -2.1,26.6 L 497,636 h -14 c -11.8,0 -14,-0.2 -14,-1.5 z"
       id="path150" />
    <path
       d="m 570,634.5 c 0,-0.8 -0.7,-1.5 -1.5,-1.5 -1.3,0 -1.5,-8.4 -1.5,-69.5 V 494 h 40 c 39.3,0 40,0 40,2 0,1.1 0.7,2 1.5,2 1.3,0 1.5,3.1 1.5,21.5 V 541 h -14 c -11.8,0 -14,-0.2 -14,-1.5 0,-0.8 -0.9,-1.5 -2,-1.5 -1.9,0 -2,-0.7 -2,-9 v -9 h -9.5 -9.5 v 45 45 h 9.5 9.5 v -16 -16 h -3 c -2,0 -3,-0.5 -3,-1.5 0,-0.8 -0.7,-1.5 -1.5,-1.5 -1.2,0 -1.5,-1.9 -1.5,-11.5 V 552 h 19 c 16.2,0 19,0.2 19,1.5 0,0.8 0.7,1.5 1.5,1.5 1.3,0 1.5,5.2 1.5,40.5 V 636 h -40 c -34.9,0 -40,-0.2 -40,-1.5 z"
       id="path152" />
    <path
       d="m 207,394.3 c 0,-2.1 1.4,-33.9 3,-70.8 1.6,-36.8 3,-68.9 3,-71.2 V 248 h 39.3 39.3 l 2.8,63.8 c 1.5,35 3,68.8 3.3,75 l 0.6,11.2 h -20 -20 l -0.6,-13.7 c -0.4,-7.5 -0.7,-16.9 -0.7,-21 V 356 h -4.5 -4.5 v 6.8 c 0,3.7 -0.3,13.1 -0.7,21 L 246.7,398 H 226.8 207 Z m 48,-82.1 c 0,-16.5 -1.2,-30.2 -2.6,-30.2 -1.8,0 -2.2,3.7 -2.8,22.8 l -0.4,16.2 h 2.9 2.9 z"
       id="path154" />
    <path
       d="m 306,323 v -75 h 19.9 19.8 l 5.4,18.1 5.4,18.1 0.3,-18.1 0.2,-18.1 h 20.5 20.5 v 75 75 h -19.3 -19.3 l -5.9,-18.6 c -3.2,-10.2 -6.2,-18.7 -6.7,-19 -0.4,-0.3 -0.8,8.1 -0.8,18.5 V 398 h -20 -20 z"
       id="path156" />
    <path
       d="m 408,323 v -75 h 29.3 29.2 l 16.3,16.3 16.2,16.2 V 339.3 398 H 453.5 408 Z m 51,4.3 v -35.7 l -4.7,-4.8 c -2.6,-2.6 -5.1,-4.8 -5.5,-4.8 -0.4,0 -0.8,18.2 -0.8,40.5 V 363 h 5.5 5.5 z"
       id="path158" />
  </g>
  <g
     fill="#e63a08"
     id="g188"
     transform="translate(-1,-1)">
    <path
       d="m 64,634 c 0,-0.5 -0.7,-1 -1.5,-1 -1.3,0 -1.5,-8.3 -1.5,-69 v -69 h 40 c 34.9,0 40,0.2 40,1.5 0,0.8 0.5,1.5 1,1.5 0.6,0 1,4.3 1,11 v 11 H 117.5 92 v 16 16 h 20 c 19.3,0 20,0.1 20,2 0,1.1 0.7,2 1.5,2 1.2,0 1.5,1.8 1.5,10.5 V 577 l -21.2,0.2 -21.3,0.3 -0.3,28.8 L 92,635 H 78 c -8.7,0 -14,-0.4 -14,-1 z"
       id="path162" />
    <path
       d="m 166,634 c 0,-0.5 -0.9,-1 -2,-1 -2,0 -2,-0.7 -2,-69 v -69 h 14.5 c 12.2,0 14.5,0.2 14.5,1.5 0,0.8 0.7,1.5 1.5,1.5 1.3,0 1.5,8.3 1.5,68.5 V 635 h -14 c -8.7,0 -14,-0.4 -14,-1 z"
       id="path164" />
    <path
       d="m 216,634 c 0,-0.5 -0.9,-1 -2,-1 -2,0 -2,-0.5 -1.8,-22.2 l 0.3,-22.3 14.3,-0.3 C 240.5,588 241,588 241,590 c 0,1.1 0.7,2 1.5,2 1.2,0 1.5,1.7 1.5,9 v 9 h 10 10 V 599.6 589.2 L 238,564 212,538.8 V 516.9 495 h 40.5 c 35.3,0 40.5,0.2 40.5,1.5 0,0.8 0.5,1.5 1,1.5 0.6,0 1,8 1,22 v 22 h -14 c -11.8,0 -14,-0.2 -14,-1.5 0,-0.8 -0.7,-1.5 -1.5,-1.5 -1.2,0 -1.5,-1.7 -1.5,-9.5 V 520 h -10 -10 v 10.3 10.2 l 25.5,25.5 25.5,25.5 v 21.7 21.8 h -39.5 c -25.7,0 -39.5,-0.4 -39.5,-1 z"
       id="path166" />
    <path
       d="m 318,634 c 0,-0.5 -0.9,-1 -2,-1 -2,0 -2,-0.7 -2,-69 v -69 h 14.5 c 12.2,0 14.5,0.2 14.5,1.5 0,0.8 0.5,1.5 1,1.5 0.6,0 1,9.7 1,27 v 27 h 10 10 V 523.5 495 h 14.5 c 12.2,0 14.5,0.2 14.5,1.5 0,0.8 0.7,1.5 1.5,1.5 1.3,0 1.5,8.3 1.5,68.5 V 635 h -14 c -8.7,0 -14,-0.4 -14,-1 0,-0.5 -0.9,-1 -2,-1 -2,0 -2,-0.7 -2,-28 v -28.1 l -9.7,0.3 -9.8,0.3 -0.3,28.8 -0.2,28.7 h -13.5 c -8.3,0 -13.5,-0.4 -13.5,-1 z"
       id="path168" />
    <path
       d="m 419,634 c 0,-0.5 -0.9,-1 -2,-1 -2,0 -2,-0.7 -2,-69 v -69 h 14.5 c 12.2,0 14.5,0.2 14.5,1.5 0,0.8 0.7,1.5 1.5,1.5 1.3,0 1.5,8.3 1.5,68.5 V 635 h -14 c -8.7,0 -14,-0.4 -14,-1 z"
       id="path170" />
    <path
       d="m 469,634 c 0,-0.5 -0.7,-1 -1.5,-1 -1.3,0 -1.5,-8.3 -1.5,-69 v -69 h 14.3 c 13.5,0 14.4,0.1 16.1,2.2 1.1,1.2 5.2,12.9 9.1,26 4,13.1 7.4,24.1 7.7,24.4 0.3,0.2 1.3,0.2 2.2,-0.2 1.4,-0.5 1.6,-3.4 1.6,-26.5 V 495 h 14.5 c 12.2,0 14.5,0.2 14.5,1.5 0,0.8 0.5,1.5 1,1.5 0.7,0 1,23.5 1,68.5 V 635 h -14 c -8.7,0 -14,-0.4 -14,-1 0,-0.5 -0.6,-1 -1.3,-1 -0.9,0 -4.3,-9.2 -9.5,-25.4 -7.5,-23 -8.4,-25.4 -10.2,-24.9 -1.9,0.5 -2,1.4 -2,26.4 V 635 h -14 c -8.7,0 -14,-0.4 -14,-1 z"
       id="path172" />
    <path
       d="m 571,634 c 0,-0.5 -0.9,-1 -2,-1 -2,0 -2,-0.7 -2,-69 v -69 h 40 c 34.9,0 40,0.2 40,1.5 0,0.8 0.7,1.5 1.5,1.5 1.3,0 1.5,3.1 1.5,21.5 V 541 h -14 c -11.8,0 -14,-0.2 -14,-1.5 0,-0.8 -0.9,-1.5 -2,-1.5 -1.9,0 -2,-0.7 -2,-9 v -9 h -9.5 -9.5 v 45 45 h 9.5 9.5 V 593.5 577 h -2.5 c -1.4,0 -2.5,-0.4 -2.5,-1 0,-0.5 -0.9,-1 -2,-1 -1.9,0 -2,-0.7 -2,-11.5 V 552 h 19 c 18.3,0 19,0.1 19,2 0,1.1 0.7,2 1.5,2 1.3,0 1.5,5.1 1.5,39.5 V 635 h -39.5 c -25.7,0 -39.5,-0.4 -39.5,-1 z"
       id="path174" />
    <path
       d="m 216,393.5 c 0,-0.8 -0.7,-1.5 -1.5,-1.5 -1.9,0 -1.9,-4.7 0,-45 2,-41.8 2.1,-39 -1.2,-39 h -2.6 l 0.7,-15.7 c 0.3,-8.7 0.9,-22.2 1.3,-30 l 0.6,-14.3 h 39.2 39.1 l 1.3,29.7 c 0.9,23 0.9,29.8 0,30.4 -0.9,0.5 -0.9,6.7 -0.1,27 0.7,14.5 1.5,33.9 1.8,43.2 l 0.7,16.7 h -14.2 c -11.3,0 -14.1,-0.3 -14.1,-1.4 0,-0.7 -0.9,-1.6 -2,-1.9 -1.9,-0.5 -2,-1.4 -2,-15.9 0,-8.4 -0.3,-17 -0.6,-19 l -0.7,-3.8 h -7.7 -7.7 l -0.6,9.8 c -0.4,5.3 -0.7,14.8 -0.7,21 V 395 h -14.5 c -12.2,0 -14.5,-0.2 -14.5,-1.5 z m 45,-74.4 c 0,-9.5 -0.5,-11.1 -3.5,-11.1 -2.3,0 -2.3,-0.3 -3,-13 -0.6,-9.4 -1.1,-13 -2,-13 -2.1,0 -2.5,2.5 -2.5,14.6 0,9.5 -0.3,11.4 -1.5,11.4 -1.2,0 -1.5,1.7 -1.5,9.5 v 9.5 h 7 7 z"
       id="path176" />
    <path
       d="m 315,393.5 c 0,-0.8 -0.7,-1.5 -1.5,-1.5 -1.3,0 -1.5,-5.3 -1.5,-42 v -42 h -3 -3 v -30 -30 h 19.8 19.9 l 5.4,18.3 5.4,18.2 0.3,-18.2 0.2,-18.3 h 20.5 20.5 v 30 c 0,26 -0.2,30 -1.5,30 -1.3,0 -1.5,5.5 -1.5,43.5 V 395 h -14.5 c -12.2,0 -14.5,-0.2 -14.5,-1.5 0,-0.8 -0.6,-1.5 -1.3,-1.5 -0.8,0 -4.2,-8.9 -9.2,-24.2 -4.3,-13.4 -8,-24.6 -8.2,-25 -0.2,-0.4 -1,-0.5 -1.8,-0.1 -1.3,0.4 -1.5,4.6 -1.5,26.4 V 395 h -14.5 c -12.2,0 -14.5,-0.2 -14.5,-1.5 z"
       id="path178" />
    <path
       d="m 416,393.5 c 0,-0.8 -0.7,-1.5 -1.5,-1.5 -1.3,0 -1.5,-5.3 -1.5,-42 v -42 h -2.5 -2.5 v -30 -30 h 29.3 29.2 l 16.3,16.3 16.2,16.2 v 13.8 c 0,8.5 -0.4,13.7 -1,13.7 -0.7,0 -1,15.2 -1,43.5 V 395 h -40.5 c -35.3,0 -40.5,-0.2 -40.5,-1.5 z m 49,-55 V 308 h -3 -3 v -8.2 -8.2 l -4.7,-4.8 c -2.6,-2.6 -5.1,-4.8 -5.5,-4.8 -0.4,0 -0.8,5.9 -0.8,13 0,10.9 -0.2,13 -1.5,13 -1.3,0 -1.5,4.1 -1.5,30.5 V 369 h 10 10 z"
       id="path180" />
    <path
       d="M 7,82 V 7 H 27.5 48 v 29 29 h 5 5 V 36 7 H 78.5 99 v 75 75 H 78.5 58 V 128 99 h -5 -5 v 29 29 H 27.5 7 Z"
       id="path182" />
    <path
       d="M 109,82 V 7 h 20 20 l 0.2,57.8 0.3,57.7 5.3,0.3 5.2,0.3 V 65.1 7 h 20.5 20.5 v 75 75 h -46 -46 z"
       id="path184" />
    <path
       d="M 463,82 V 7 l 20.2,0.2 20.1,0.3 5.3,17.3 c 2.9,9.6 5.5,17.6 5.8,18 0.3,0.3 0.6,-7.6 0.6,-17.6 V 7 h 20 20 v 75 75 h -19.2 l -19.3,-0.1 -6,-18.2 -6,-18.2 -0.3,18.3 L 504,157 H 483.5 463 Z"
       id="path186" />
  </g>
  <g
     fill="#f3640a"
     id="g244"
     transform="translate(-1,-1)">
    <path
       d="m 61,564 v -69 h 40 c 34.9,0 40,0.2 40,1.5 0,1.3 -4.9,1.5 -38.5,1.5 H 64 v 67.5 C 64,624.8 63.8,633 62.5,633 61.2,633 61,624.7 61,564 Z"
       id="path190" />
    <path
       d="M 163,564.1 V 495 h 14 c 11.8,0 14,0.2 14,1.5 0,1.3 -2.1,1.5 -12.5,1.5 H 166 l -0.2,67.2 c -0.2,52.6 -0.6,67.2 -1.5,67.6 -1,0.3 -1.3,-13.9 -1.3,-68.7 z"
       id="path192" />
    <path
       d="m 213,611 v -22 h 14 c 11.8,0 14,0.2 14,1.5 0,1.3 -2.1,1.5 -12.5,1.5 H 216 v 20.5 c 0,17.6 -0.2,20.5 -1.5,20.5 -1.3,0 -1.5,-3.1 -1.5,-22 z"
       id="path194" />
    <path
       d="m 314,564 v -69 h 14 c 11.8,0 14,0.2 14,1.5 0,1.3 -2.1,1.5 -12.5,1.5 H 317 v 67.5 c 0,59.3 -0.2,67.5 -1.5,67.5 -1.3,0 -1.5,-8.3 -1.5,-69 z"
       id="path196" />
    <path
       d="m 366,605.6 c 0,-24 0.2,-27.6 1.5,-27.6 1.3,0 1.5,3.4 1.3,27.2 -0.2,20.6 -0.6,27.2 -1.5,27.6 -1,0.3 -1.3,-5.6 -1.3,-27.2 z"
       id="path198" />
    <path
       d="m 416,564 v -69 h 14 c 11.8,0 14,0.2 14,1.5 0,1.3 -2.1,1.5 -12.5,1.5 H 419 v 67.5 c 0,59.3 -0.2,67.5 -1.5,67.5 -1.3,0 -1.5,-8.3 -1.5,-69 z"
       id="path200" />
    <path
       d="m 466,564 v -69 h 14.4 c 11.9,0 14.5,0.3 15,1.5 0.5,1.3 -1.4,1.5 -12.9,1.5 H 469 v 67.5 c 0,59.3 -0.2,67.5 -1.5,67.5 -1.3,0 -1.5,-8.3 -1.5,-69 z"
       id="path202" />
    <path
       d="m 517.4,631.5 c -1.8,-4.2 -16.1,-49 -15.8,-49.4 0.3,-0.3 0.8,0 1.3,0.5 1.5,1.5 16.2,47.6 15.8,49.3 -0.3,1.3 -0.6,1.2 -1.3,-0.4 z"
       id="path204" />
    <path
       d="M 567.7,632.4 C 567.3,632 567,600.9 567,563.3 V 495 h 40 c 34.9,0 40,0.2 40,1.5 0,1.3 -4.9,1.5 -38,1.5 h -38 l -0.2,67.2 c -0.3,64.7 -0.5,69.7 -3.1,67.2 z"
       id="path206" />
    <path
       d="m 244,612.5 c 0,-1.2 1.8,-1.5 10,-1.5 h 10 v -10.6 c 0,-9.4 0.2,-10.5 1.5,-9.4 1.2,1 1.5,3.7 1.5,12.1 V 614 h -11.5 c -9.6,0 -11.5,-0.3 -11.5,-1.5 z"
       id="path208" />
    <path
       d="m 599,612.5 c 0,-1.1 2,-1.5 9.8,-1.7 l 9.7,-0.3 0.3,-16.2 c 0.2,-13.6 0.5,-16.3 1.7,-16.3 1.3,0 1.5,2.8 1.5,18 v 18 h -11.5 c -9.4,0 -11.5,-0.3 -11.5,-1.5 z"
       id="path210" />
    <path
       d="M 609.7,574.3 C 609.3,574 609,569 609,563.3 V 553 h 19 c 16.2,0 19,0.2 19,1.5 0,1.3 -2.6,1.5 -17.5,1.5 H 612 v 9.5 c 0,8.7 -0.5,10.7 -2.3,8.8 z"
       id="path212" />
    <path
       d="m 92.7,555.3 c -2,-1.9 1,-2.3 19.3,-2.3 17.1,0 20,0.2 20,1.5 0,1.3 -2.8,1.5 -19.3,1.5 -10.7,0 -19.7,-0.3 -20,-0.7 z"
       id="path214" />
    <path
       d="m 346,554.6 c 0,-1.2 1.9,-1.6 9.8,-1.8 l 9.7,-0.3 0.3,-28.7 0.2,-28.8 h 14 c 11.8,0 14,0.2 14,1.5 0,1.3 -2.1,1.5 -12.5,1.5 H 369 l -0.2,28.8 -0.3,28.7 -11.2,0.3 c -9.5,0.2 -11.3,0 -11.3,-1.2 z"
       id="path216" />
    <path
       d="m 513.6,549.5 c -0.4,-1 0.1,-1.5 1.4,-1.5 1.9,0 2,-0.8 2,-26.5 V 495 h 14 c 11.8,0 14,0.2 14,1.5 0,1.3 -2.1,1.5 -12.5,1.5 H 520 v 26.5 26.5 h -2.9 c -1.6,0 -3.1,-0.6 -3.5,-1.5 z"
       id="path218" />
    <path
       d="M 213.7,540.3 C 213.3,540 213,529.6 213,517.3 V 495 h 39.5 c 34.4,0 39.5,0.2 39.5,1.5 0,1.3 -4.9,1.5 -38,1.5 h -38 v 21.5 c 0,19.6 -0.4,22.8 -2.3,20.8 z"
       id="path220" />
    <path
       d="m 619,529 c 0,-7.3 0.3,-9 1.5,-9 1.2,0 1.5,1.7 1.5,9 0,7.3 -0.3,9 -1.5,9 -1.2,0 -1.5,-1.7 -1.5,-9 z"
       id="path222" />
    <path
       fill="url(#lg0)"
       d="m 216.4,393.5 c 0.4,-1 -0.1,-1.5 -1.4,-1.5 -2.5,0 -2.5,6.7 0.5,-62.9 1.4,-31.7 2.6,-61.4 2.7,-66.1 l 0.3,-8.5 33.8,-0.3 c 29.5,-0.2 33.7,0 33.7,1.3 0,0.8 0.7,1.5 1.5,1.5 2,0 2.2,2.4 3.5,38.5 1.1,33 2.6,69.9 3.5,88.8 L 295,395 h -14 c -11.8,0 -14,-0.2 -14,-1.5 0,-0.8 -0.6,-1.5 -1.4,-1.5 -2,0 -2.6,-5.4 -2.6,-23.2 V 353 h -9 -9 v 9.8 c 0,5.3 -0.3,14.8 -0.7,21 l -0.6,11.2 h -14 c -12,0 -13.8,-0.2 -13.3,-1.5 z m 44.1,-89.7 c -0.4,-12.8 -0.9,-23.6 -1.2,-24 -0.2,-0.5 -2.8,-0.8 -5.7,-0.8 h -5.4 l -0.6,19.8 c -0.4,10.8 -0.8,21.6 -1.1,24 L 246,327 h 7.6 7.7 z"
       id="path224"
       style="fill:url(#linearGradient1311)" />
    <path
       fill="url(#lg0)"
       d="m 315,393.5 c 0,-0.8 -0.7,-1.5 -1.5,-1.5 -1.3,0 -1.5,-8.3 -1.5,-69 v -69 h 15 c 12.7,0 15,0.2 15,1.5 0,0.8 0.6,1.5 1.3,1.5 0.9,0 3.9,8.5 8.8,25 6,20.4 7.7,25 9.1,25 1.7,0 1.8,-1.9 1.8,-26.5 V 254 h 14.5 c 12.2,0 14.5,0.2 14.5,1.5 0,0.8 0.7,1.5 1.5,1.5 1.3,0 1.5,8.3 1.5,69 v 69 h -13.4 c -12.4,0 -13.6,-0.2 -15.9,-2.2 -1.9,-1.7 -4.4,-8.1 -10.3,-26.5 -7,-21.6 -8.1,-24.3 -9.9,-24.1 -1.9,0.3 -2,1.2 -2.3,26.6 L 343,395 h -14 c -11.8,0 -14,-0.2 -14,-1.5 z"
       id="path226"
       style="fill:url(#linearGradient1313)" />
    <path
       fill="url(#lg0)"
       d="m 417,393.5 c 0,-0.8 -0.6,-1.5 -1.4,-1.5 -0.8,0 -1.6,-1.5 -2,-3.7 -0.3,-2.1 -0.6,-33.2 -0.6,-69 V 254 h 25.8 25.7 l 16.3,16.3 16.2,16.2 -0.7,54.3 -0.6,54.2 H 456.3 C 422,395 417,394.8 417,393.5 Z m 48,-64.2 v -39.7 l -5.2,-5.3 c -4.9,-4.9 -5.6,-5.3 -10,-5.3 H 445 v 45 45 h 10 10 z"
       id="path228"
       style="fill:url(#linearGradient1315)" />
    <path
       d="M 7,82 V 7 H 27.5 48 v 29 29 h 5 5 V 36 7 H 78.5 99 v 75 75 H 79.2 59.3 L 58.7,141.8 C 58.3,133.5 58,120.5 58,112.8 V 99 h -5 -5 v 29 29 H 27.5 7 Z"
       id="path230" />
    <path
       d="M 109,82 V 7 h 20 20 l 0.2,57.8 0.3,57.7 5.3,0.3 5.2,0.3 V 65.1 7 h 20.5 20.5 v 59.8 c 0,33 -0.3,66.7 -0.7,75 L 199.7,157 H 154.3 109 Z"
       id="path232" />
    <path
       d="M 210,82 V 7 h 19.9 20 l 3.5,11.2 c 1.9,6.2 4.4,14.2 5.5,17.8 l 2,6.5 V 24.8 L 261,7 h 20.5 20.5 v 75 75 h -19.3 -19.3 l -6.1,-18.7 -6.1,-18.8 -0.1,18.8 L 251,157 H 230.5 210 Z"
       id="path234" />
    <path
       d="M 337,99.5 V 42 H 324.5 312 V 24.5 7 h 46 46 l -0.2,17.3 -0.3,17.2 -12.7,0.3 -12.8,0.3 V 99.5 157 H 357.5 337 Z"
       id="path236" />
    <path
       d="M 413,82 V 7 h 20.5 20.5 v 75 75 H 433.5 413 Z"
       id="path238" />
    <path
       d="M 463,82 V 7 l 20.2,0.2 20.1,0.3 5.3,17.3 c 2.9,9.6 5.5,17.6 5.8,18 0.3,0.3 0.6,-7.6 0.6,-17.6 V 7 h 20 20 v 75 75 h -19.2 l -19.3,-0.1 -6.2,-18.7 -6.1,-18.7 -0.1,18.8 L 504,157 H 483.5 463 Z"
       id="path240" />
    <path
       d="M 565,82 V 7 h 46 46 V 34.5 62 H 636.5 616 V 52 42 h -5 -5 V 82.5 123 h 5 5 V 111 99 H 611.5 607 V 82 65 h 25 25 v 46 46 h -46 -46 z"
       id="path242" />
  </g>
  <g
     fill="#f8710a"
     id="g270"
     transform="translate(-1,-1)">
    <path
       d="m 509.7,607.9 c -4.3,-13.3 -7.6,-24.4 -7.3,-24.7 0.9,-0.8 0.7,-1.3 8.3,22.3 9,27.9 8.6,26.5 7.6,26.5 -0.5,0 -4.4,-10.8 -8.6,-24.1 z"
       id="path246" />
    <path
       d="M 610,563.5 V 553 h 18.5 c 11.4,0 18.5,0.4 18.5,1 0,0.6 -6.9,1.1 -17.2,1.2 l -17.3,0.3 -0.3,9.3 c -0.4,12.8 -2.2,11.7 -2.2,-1.3 z"
       id="path248" />
    <path
       fill="url(#lg0)"
       d="m 213.5,380.8 c 0.5,-9.7 5.5,-123.4 5.5,-125.9 0,-0.5 14.3,-0.9 33.5,-0.9 29.1,0 33.5,0.2 33.5,1.5 0,0.8 0.6,1.5 1.4,1.5 1.5,0 1.9,5.3 3.6,50 0.5,13.5 1.3,30.7 1.6,38.3 l 0.7,13.7 h -13.5 -13.5 l 0.5,16.5 c 0.4,14.2 0.3,16.5 -1,16.5 -1.7,0 -2.8,-11.6 -2.8,-29.7 V 352 h -9 -9 v 3.5 3.5 H 231.5 218 l -0.1,4.3 c -0.7,22.2 -1.4,28.2 -3.2,28.5 -1.7,0.4 -1.8,-0.3 -1.2,-11 z m 47.9,-60 c -0.2,-3.5 -0.7,-14.3 -1,-24 L 259.8,279 h -5.8 -5.7 l -0.7,10.8 c -0.3,5.9 -0.9,16.7 -1.2,24 l -0.7,13.2 h 8.1 8 z"
       id="path250"
       style="fill:url(#linearGradient1317)" />
    <path
       fill="url(#lg0)"
       d="m 312,323 v -69 h 14.3 c 13.4,0 14.3,0.2 16.3,2.3 1.8,1.9 4.6,10.2 16,49 0.3,0.9 1.4,1.7 2.5,1.7 1.8,0 1.9,-1 1.9,-26.5 V 254 h 14.5 c 12.2,0 14.5,0.2 14.5,1.5 0,0.8 0.7,1.5 1.5,1.5 1.3,0 1.5,6.3 1.5,51 v 51 h -19.5 c -10.7,0 -19.5,0.3 -19.5,0.8 0,0.4 2.2,7.7 5,16.2 4.5,14.3 5.3,17.8 3.1,15.4 -0.4,-0.5 -4.3,-11.8 -8.6,-25.1 -7.3,-22.5 -8,-24.3 -10.2,-24.3 -2.2,0 -2.3,0.3 -2.3,8.5 v 8.5 h -14 -14 v 16.5 c 0,14 -0.2,16.5 -1.5,16.5 -1.3,0 -1.5,-8.3 -1.5,-69 z"
       id="path252"
       style="fill:url(#linearGradient1319)" />
    <path
       fill="url(#lg0)"
       d="M 414,323.1 V 254 h 25.3 25.3 l 15.7,15.9 15.7,15.9 V 322.4 359 H 482.5 469 v 7 7 h -12 c -11.3,0 -12,-0.1 -12,-2 0,-1.9 0.7,-2 10,-2 h 10 v -39.8 -39.8 l -5.3,-5.2 c -4.8,-4.8 -5.6,-5.2 -10,-5.2 H 445 v 40 40 h -14 -14 l -0.2,16.2 c -0.2,11.8 -0.6,16.2 -1.5,16.6 -1,0.3 -1.3,-13.9 -1.3,-68.7 z"
       id="path254"
       style="fill:url(#linearGradient1321)" />
    <path
       d="M 7,81 V 7 H 27.5 48 v 29.1 29 L 53.3,64.8 58.5,64.5 58.8,35.8 59,7 h 20 20 v 74 74 H 79 59 V 127 99 H 53.5 48 v 28 28 H 27.5 7 Z"
       id="path256" />
    <path
       d="M 109,81 V 7 h 20 20 v 58 58 h 5.5 5.5 V 65 7 h 20 20 v 74 74 H 154.5 109 Z"
       id="path258" />
    <path
       d="M 210,81 V 7 h 19.9 20 l 2.6,8.8 c 1.5,4.8 3.8,12.5 5.2,17.2 1.4,4.7 3,8.9 3.4,9.5 0.5,0.5 0.9,-7.1 0.9,-17.3 V 7 h 20 20 v 74 74 h -19.4 -19.4 l -6,-17.7 -6,-17.8 -0.1,17.8 L 251,155 H 230.5 210 Z"
       id="path260" />
    <path
       d="M 337,98 V 41 H 324.5 312 V 24 7 H 357.5 403 V 24 41 H 390.5 378 v 57 57 H 357.5 337 Z"
       id="path262" />
    <path
       d="M 413,81 V 7 h 20.5 20.5 v 74 74 H 433.5 413 Z"
       id="path264" />
    <path
       d="M 463,81 V 7 l 20.1,0.2 20.1,0.3 5.3,17.3 c 2.8,9.5 5.5,17.5 5.9,17.9 0.3,0.3 0.6,-7.5 0.6,-17.5 V 7 h 20 20 v 74 74 h -19.4 -19.4 l -5.9,-17.7 -5.8,-17.8 -0.3,17.8 L 504,155 H 483.5 463 Z"
       id="path266" />
    <path
       d="M 565,81 V 7 h 46 46 V 34.5 62 H 636.5 616 V 51.4 40.9 l -5.2,0.3 -5.3,0.3 -0.3,40.8 -0.2,40.7 h 5.5 5.5 V 111 99 H 611.5 607 V 82 65 h 25 25 v 45 45 h -46 -46 z"
       id="path268" />
  </g>
  <g
     fill="#fc7d0b"
     id="g316"
     transform="translate(-1,-1)">
    <path
       d="M 213,610.5 V 589 h 14 c 8.7,0 14,0.4 14,1 0,0.6 -4.8,1 -12.5,1 H 216 v 20.5 c 0,17.6 -0.2,20.5 -1.5,20.5 -1.3,0 -1.5,-3.1 -1.5,-21.5 z"
       id="path272" />
    <path
       d="M 416,563.5 V 495 h 14 c 11.8,0 14,0.2 14,1.5 0,1.3 -2.1,1.5 -12.5,1.5 H 419 v 67 c 0,58.9 -0.2,67 -1.5,67 -1.3,0 -1.5,-8.3 -1.5,-68.5 z"
       id="path274" />
    <path
       d="M 466,563.5 V 495 h 14.4 c 11.9,0 14.5,0.3 15,1.5 0.5,1.3 -1.4,1.5 -12.9,1.5 H 469 v 67 c 0,58.9 -0.2,67 -1.5,67 -1.3,0 -1.5,-8.3 -1.5,-68.5 z"
       id="path276" />
    <path
       d="m 510,608.9 c -8.3,-25.7 -8.7,-26.9 -7.2,-25.4 0.6,0.6 4.2,11.1 8.2,23.4 4,12.4 7.4,23.1 7.7,23.8 0.3,0.7 0.1,1.3 -0.3,1.3 -0.5,0 -4.3,-10.4 -8.4,-23.1 z"
       id="path278" />
    <path
       d="m 244,612 c 0,-0.6 4,-1 10,-1 h 10 v -10.6 c 0,-9.4 0.2,-10.5 1.5,-9.4 1.2,1 1.5,3.6 1.5,11.6 V 613 h -11.5 c -7,0 -11.5,-0.4 -11.5,-1 z"
       id="path280" />
    <path
       d="m 599,612 c 0,-0.6 4,-1 10,-1 h 10 v -16.5 c 0,-14 0.2,-16.5 1.5,-16.5 1.3,0 1.5,2.6 1.5,17.5 V 613 h -11.5 c -7,0 -11.5,-0.4 -11.5,-1 z"
       id="path282" />
    <path
       d="m 514,549.6 c 0,-0.9 0.7,-1.6 1.5,-1.6 1.3,0 1.5,-3.6 1.5,-26.5 V 495 h 14 c 11.8,0 14,0.2 14,1.5 0,1.3 -2.1,1.5 -12.5,1.5 H 520 l -0.2,26.3 -0.3,26.2 -2.7,0.3 c -2,0.2 -2.8,-0.1 -2.8,-1.2 z"
       id="path284" />
    <path
       d="m 214.3,539.9 c -1,-1 -1.3,-7 -1.3,-23.1 V 495 h 39.5 c 34.4,0 39.5,0.2 39.5,1.5 0,1.3 -4.9,1.5 -38,1.5 h -38 l -0.2,21.6 c -0.2,17.2 -0.5,21.3 -1.5,20.3 z"
       id="path286" />
    <path
       d="m 264,529.5 c 0,-7.8 0.3,-9.5 1.5,-9.5 1.2,0 1.5,1.7 1.5,9.5 0,7.8 -0.3,9.5 -1.5,9.5 -1.2,0 -1.5,-1.7 -1.5,-9.5 z"
       id="path288" />
    <path
       d="m 619,528.4 c 0,-6.4 0.3,-8.5 1.3,-8.2 0.8,0.3 1.3,3.2 1.5,8.6 0.2,6.8 0,8.2 -1.3,8.2 -1.2,0 -1.5,-1.5 -1.5,-8.6 z"
       id="path290" />
    <path
       fill="url(#lg0)"
       d="m 213.5,384.8 c 0.5,-5.8 1.7,-33.5 3.1,-70.3 0.3,-8.2 0.9,-24.2 1.5,-35.5 0.5,-11.3 0.9,-21.5 0.9,-22.7 V 254 h 33.5 c 29.1,0 33.5,0.2 33.5,1.5 0,0.8 0.7,1.5 1.5,1.5 1.1,0 1.5,1.2 1.5,5.1 0,6.1 1.8,46.6 2.5,56.7 L 292,326 H 278.5 265 v 2.5 c 0,2.5 0,2.5 -9.5,2.5 -7.7,0 -9.5,-0.3 -9.5,-1.5 0,-1.1 1.8,-1.5 7.8,-1.7 l 7.7,-0.3 -0.1,-7.5 c -0.1,-4.1 -0.5,-15 -0.9,-24.2 L 259.8,279 h -5.8 -5.7 l -0.7,3.8 c -0.3,2 -0.6,7.8 -0.6,12.8 0,5 -0.3,13.9 -0.7,19.7 L 245.7,326 H 232.3 219 v 5.3 c 0,7.2 -2,50.2 -2.6,55.5 -0.3,2.7 -1,4.2 -1.9,4.2 -1.1,0 -1.3,-1.3 -1,-6.2 z"
       id="path292"
       style="fill:url(#linearGradient1323)" />
    <path
       d="m 264,384.2 c 0,-3.8 -0.3,-12.4 -0.7,-19 -0.5,-10.9 -0.4,-12.2 1,-12.2 1.5,0 1.7,1.2 1.7,8.3 0,4.6 0.3,13.2 0.7,19 0.5,9.5 0.4,10.7 -1,10.7 -1.4,0 -1.7,-1.1 -1.7,-6.8 z"
       id="path294" />
    <path
       fill="url(#lg0)"
       d="M 312,322.5 V 254 h 13.9 c 13.1,0 14.1,0.1 16.4,2.3 1.7,1.6 3.8,7.2 7.6,20.2 9.5,31.9 9,30.5 11.1,30.5 1.9,0 2,-0.8 2,-26.5 V 254 h 14.5 c 12.2,0 14.5,0.2 14.5,1.5 0,0.8 0.7,1.5 1.5,1.5 1.3,0 1.5,4.5 1.5,34.5 V 326 h -40 -40 v 32.5 c 0,28.2 -0.2,32.5 -1.5,32.5 -1.3,0 -1.5,-8.3 -1.5,-68.5 z"
       id="path296"
       style="fill:url(#linearGradient1325)" />
    <path
       d="m 355.6,366.5 c -4.3,-13.5 -7.6,-24.8 -7.3,-25.2 0.4,-0.3 0.9,-0.4 1.1,-0.2 0.4,0.5 15.6,48.3 15.6,49.2 0,0.4 -0.3,0.7 -0.7,0.7 -0.5,0 -4.4,-11 -8.7,-24.5 z"
       id="path298" />
    <path
       fill="url(#lg0)"
       d="M 414,322.5 V 254 h 25.2 25.1 l 15.9,15.8 15.8,15.9 v 20.1 20.2 h -13.3 -13.4 l -0.6,16.7 c -0.4,9.1 -0.7,19.7 -0.7,23.5 v 6.8 h -11.5 c -9.4,0 -11.5,-0.3 -11.5,-1.5 0,-1.1 2,-1.5 10.3,-1.7 l 10.2,-0.3 -0.2,-39.9 -0.2,-39.9 -5.3,-5.4 c -4.9,-4.9 -5.6,-5.3 -10,-5.3 H 445 v 23.5 23.5 h -14 -14 v 30.9 c 0,30.1 -0.2,34.1 -2.1,34.1 -0.5,0 -0.9,-29 -0.9,-68.5 z"
       id="path300"
       style="fill:url(#linearGradient1327)" />
    <path
       d="M 16.3,153 C 16,151.9 15.1,151 14.4,151 13.3,151 13,148.5 13,138.5 V 126 H 10 7 V 66.5 7 H 27.5 48 V 36 65 H 53.5 59 V 36 7 h 20 20 v 59.5 c 0,37.9 -0.4,59.5 -1,59.5 -0.5,0 -1.1,5.9 -1.2,14.3 l -0.3,14.2 -14.3,0.3 C 68.5,155 67.8,155 67.3,153 67,151.9 66.1,151 65.4,151 64.3,151 64,148.5 64,138.5 V 126 H 61.5 59 V 112.5 99 H 53.5 48 v 13.5 c 0,11.2 -0.2,13.5 -1.5,13.5 -1.2,0 -1.5,2.5 -1.7,14.3 l -0.3,14.2 -13.8,0.3 C 17.5,155 16.8,155 16.3,153 Z"
       id="path302" />
    <path
       d="m 117.3,153.3 c -0.4,-1 -1.1,-2.1 -1.7,-2.5 -0.7,-0.4 -1.2,-5.7 -1.5,-12.8 -0.3,-11.9 -0.3,-12 -2.7,-12 H 109 V 66.5 7 h 20 20 v 58 58 h 5.5 5.5 V 65 7 h 20 20 v 59.5 c 0,37.9 -0.4,59.5 -1,59.5 -0.5,0 -1.1,5.9 -1.2,14.3 l -0.3,14.2 -39.8,0.3 c -37.2,0.2 -39.8,0.1 -40.4,-1.5 z M 166,127 c 0,-0.6 -3.8,-1 -9.5,-1 -5.7,0 -9.5,0.4 -9.5,1 0,0.6 3.8,1 9.5,1 5.7,0 9.5,-0.4 9.5,-1 z"
       id="path304" />
    <path
       d="m 219.3,153 c -0.3,-1.1 -1.2,-2 -1.9,-2 -1.1,0 -1.4,-2.5 -1.4,-12.5 V 126 h -3 -3 V 66.5 7 h 19.8 19.9 l 5.1,16.9 c 2.9,9.3 5.2,17.4 5.2,18 0,0.6 0.5,1.1 1,1.1 0.6,0 1,-6.7 1,-18 V 7 h 20 20 v 59.5 c 0,37.9 -0.4,59.5 -1,59.5 -0.5,0 -1.1,5.9 -1.2,14.3 l -0.3,14.2 -14.2,0.3 c -13.5,0.2 -14.2,0.2 -14.8,-1.8 -0.3,-1.1 -1.2,-2 -1.8,-2 -0.7,0 -3,-5.5 -5.3,-12.3 -3.8,-11.4 -4.2,-12.2 -6.9,-12.7 -2.1,-0.4 -3.1,-1.4 -4.1,-4 l -1.2,-3.5 -0.1,3.8 c -0.1,2.6 -0.6,3.7 -1.6,3.7 -1.2,0 -1.5,2.5 -1.7,14.3 l -0.3,14.2 -13.8,0.3 C 220.5,155 219.8,155 219.3,153 Z"
       id="path306" />
    <path
       d="m 346.3,153 c -0.3,-1.1 -1.2,-2 -1.9,-2 -1.1,0 -1.4,-2.5 -1.4,-12.5 V 126 h -3 -3 V 83.5 41 H 324.5 312 V 24 7 H 357.5 403 V 24 41 H 390.5 378 v 42.5 c 0,36.8 -0.2,42.5 -1.5,42.5 -1.2,0 -1.5,2.5 -1.7,14.3 l -0.3,14.2 -13.8,0.3 C 347.5,155 346.8,155 346.3,153 Z"
       id="path308" />
    <path
       d="m 422.3,153 c -0.3,-1.1 -1.2,-2 -1.9,-2 -1.1,0 -1.4,-2.5 -1.4,-12.5 V 126 h -3 -3 V 66.5 7 h 20.5 20.5 v 59.5 c 0,51.7 -0.2,59.5 -1.5,59.5 -1.2,0 -1.5,2.5 -1.7,14.3 l -0.3,14.2 -13.8,0.3 C 423.5,155 422.8,155 422.3,153 Z"
       id="path310" />
    <path
       d="m 472.3,153 c -0.3,-1.1 -1.2,-2 -1.9,-2 -1.1,0 -1.4,-2.5 -1.4,-12.5 V 126 h -3 -3 V 66.5 7 h 19.9 19.9 l 3,9.7 c 1.7,5.4 4.3,13.9 5.9,18.8 l 2.8,9 0.3,-18.7 L 515,7 h 20 20 v 59.5 c 0,37.9 -0.4,59.5 -1,59.5 -0.5,0 -1.1,5.9 -1.2,14.3 l -0.3,14.2 -13.4,0.3 -13.4,0.3 -2.7,-2.8 c -1.8,-1.9 -4,-6.7 -6.6,-14.5 -3.7,-11.3 -4,-11.8 -6.6,-11.8 -2.2,0 -3.1,-0.7 -4.2,-3.2 l -1.4,-3.3 -0.1,3.3 c -0.1,2.1 -0.6,3.2 -1.6,3.2 -1.3,0 -1.5,2.3 -1.5,14.5 V 155 h -14.1 c -13.2,0 -14.1,-0.1 -14.6,-2 z"
       id="path312" />
    <path
       d="m 574,153 c 0,-1.1 -0.7,-2 -1.5,-2 -1.3,0 -1.5,-2.1 -1.5,-12.5 V 126 h -3 -3 V 66.5 7 h 46 46 V 34.5 62 H 636.5 616 V 51.4 40.9 l -5.2,0.3 -5.3,0.3 -0.3,40.8 -0.2,40.7 h 5.5 5.5 V 111 99 H 611.5 607 V 82 65 h 25 25 v 30.5 c 0,26.2 -0.2,30.5 -1.5,30.5 -1.2,0 -1.5,2.5 -1.7,14.3 l -0.3,14.2 -39.7,0.3 C 574.5,155 574,155 574,153 Z m 48,-26 c 0,-0.6 -3.8,-1 -9.5,-1 -5.7,0 -9.5,0.4 -9.5,1 0,0.6 3.8,1 9.5,1 5.7,0 9.5,-0.4 9.5,-1 z"
       id="path314" />
  </g>
  <g
     fill="#fc8c1d"
     id="g350"
     transform="translate(-1,-1)">
    <path
       d="M 213,610.5 V 589 h 14 c 17.9,0 18.9,1.8 1.3,2.2 l -12.8,0.3 -0.3,20.3 c -0.1,12.3 -0.6,20.2 -1.2,20.2 -0.6,0 -1,-8.1 -1,-21.5 z"
       id="path318" />
    <path
       d="M 510.1,608.7 C 506,596 502.4,584.8 502.2,584 c -0.3,-1 -0.2,-1.2 0.5,-0.5 0.6,0.6 4.3,11 8.2,23.2 3.9,12.2 7.4,22.9 7.7,23.8 0.3,0.8 0.2,1.5 -0.2,1.5 -0.5,0 -4.2,-10.5 -8.3,-23.3 z"
       id="path320" />
    <path
       d="m 514,549.5 c 0,-0.8 0.7,-1.5 1.5,-1.5 1.3,0 1.5,-3.6 1.5,-26.5 V 495 h 14 c 11.8,0 14,0.2 14,1.5 0,1.3 -2.1,1.5 -12.5,1.5 H 520 v 25.9 c 0,22.7 -0.2,26 -1.6,26.5 -2.7,1 -4.4,0.7 -4.4,-0.9 z"
       id="path322" />
    <path
       fill="url(#lg0)"
       d="m 213.6,383.8 c 0.6,-9.7 5.4,-121.3 5.4,-126 V 254 h 33.5 c 32.8,0 33.5,0 33.5,2 0,1.1 0.7,2 1.5,2 1.2,0 1.5,1.4 1.5,6.3 0,3.4 0.3,10.6 0.7,16 l 0.6,9.7 h -13.2 -13.3 l 0.3,19.8 0.4,19.7 -9.3,0.3 c -5.6,0.2 -9.2,-0.1 -9.2,-0.7 0,-0.6 3.5,-1.1 7.8,-1.3 l 7.7,-0.3 -0.3,-15 c -0.1,-8.2 -0.5,-19.2 -0.8,-24.2 L 259.8,279 H 254 c -5.6,0 -5.8,0.1 -6.4,3.1 -0.3,1.7 -0.6,4.2 -0.6,5.5 v 2.4 h -13 -13 v 2.8 c 0,1.5 -0.4,9 -1,16.7 -0.5,7.7 -1.4,24.8 -1.9,38 -1.7,38.2 -2.1,43.5 -3.6,43.5 -1,0 -1.2,-1.7 -0.9,-7.2 z"
       id="path324"
       style="fill:url(#linearGradient1329)" />
    <path
       d="m 264,384.2 c 0,-3.8 -0.3,-12.4 -0.7,-19 -0.5,-10.9 -0.4,-12.2 1,-12.2 1.5,0 1.7,1.8 1.7,16.8 0,9.2 0.3,17.7 0.6,19 0.5,1.6 0.2,2.2 -1,2.2 -1.3,0 -1.6,-1.2 -1.6,-6.8 z"
       id="path326" />
    <path
       fill="url(#lg0)"
       d="M 312,322.5 V 254 h 14.5 c 8.3,0 14.5,0.4 14.5,0.9 0,0.5 0.8,1.7 1.8,2.7 0.9,0.9 3.8,8.5 6.3,16.8 l 4.5,15.1 -19.3,0.3 -19.3,0.2 v 50.5 c 0,44.2 -0.2,50.5 -1.5,50.5 -1.3,0 -1.5,-8.3 -1.5,-68.5 z"
       id="path328"
       style="fill:url(#linearGradient1331)" />
    <path
       d="m 363.7,390.3 c -0.3,-0.4 -3.9,-11.3 -8.1,-24.2 -6.6,-20.2 -8,-25.9 -6.2,-24 0.7,0.7 15.5,48.3 15.2,48.7 -0.2,0.2 -0.6,0 -0.9,-0.5 z"
       id="path330" />
    <path
       fill="url(#lg0)"
       d="M 414,322.5 V 254 h 24.8 24.8 l 16,16 c 8.7,8.8 16,16.9 16.2,18 0.3,1.9 -0.3,2 -14.4,2 -11.5,0 -14.4,0.3 -13.7,1.3 0.6,0.7 0.8,16.6 0.5,41 l -0.4,39.7 h -11.4 c -14.3,0 -15.3,-1.8 -1.1,-2.2 l 10.2,-0.3 0.3,-39.8 0.2,-39.8 -5.1,-5.4 c -5,-5.3 -5.4,-5.5 -10.5,-5.5 H 445 v 5.5 5.5 h -14 -14 l -0.2,19.8 c -0.1,10.8 -0.2,20.6 -0.3,21.7 -0.1,1.1 -0.3,14.9 -0.4,30.8 0,18.4 -0.5,28.7 -1.1,28.7 -0.7,0 -1,-23.5 -1,-68.5 z"
       id="path332"
       style="fill:url(#linearGradient1333)" />
    <path
       fill="url(#lg0)"
       d="m 360.5,310.2 c -1.2,-1.2 -0.4,-3 1.5,-3.5 1.9,-0.5 2,-1.4 2,-26.6 V 254 h 13.5 c 11.7,0 13.5,0.2 13.5,1.6 0,0.9 0.9,1.8 2,2.1 1.9,0.5 2,1.4 2,16.4 V 290 h -14 -14 v 9.9 9.9 l -3,0.4 c -1.7,0.3 -3.2,0.2 -3.5,0 z"
       id="path334"
       style="fill:url(#linearGradient1335)" />
    <path
       d="M 16,152.5 C 16,151.7 15.3,151 14.5,151 13.2,151 13,147.4 13,124.5 V 98 H 10 7 V 52.5 7 H 27.5 48 V 36 65 H 53.5 59 V 36 7 H 79 99 V 52.5 C 99,82.2 98.7,98 98,98 c -0.6,0 -1,4.3 -1,10.8 0,5.9 -0.3,18.5 -0.7,28 L 95.7,154 H 81.8 C 70.2,154 68,153.8 68,152.5 68,151.7 67.4,151 66.7,151 65,151 64,137.1 64,113.8 V 98 H 54.5 45 v 28 28 H 30.5 C 18.3,154 16,153.8 16,152.5 Z"
       id="path336" />
    <path
       d="m 118,152.5 c 0,-0.8 -0.7,-1.5 -1.5,-1.5 -1.3,0 -1.5,-2.4 -1.5,-15.2 0,-8.4 -0.3,-20.4 -0.7,-26.5 -0.6,-11 -0.7,-11.3 -3,-11.3 H 109 V 52.5 7 h 20 20 v 45.5 c 0,29.7 -0.3,45.5 -1,45.5 -0.6,0 -1,5.8 -1,15.5 V 129 h 9.5 9.5 V 113.5 98 h -3 -3 V 52.5 7 h 20 20 v 45.5 c 0,29.7 -0.3,45.5 -1,45.5 -0.6,0 -1,10 -1,28 v 28 h -40 c -34.9,0 -40,-0.2 -40,-1.5 z"
       id="path338" />
    <path
       d="m 219,152.5 c 0,-0.8 -0.7,-1.5 -1.5,-1.5 -1.3,0 -1.5,-3.6 -1.5,-26.5 V 98 h -3 -3 V 52.5 7 h 19.8 19.9 l 5.3,17.8 c 2.9,9.7 5.7,18.1 6.2,18.7 C 261.6,44 262,36 262,25.7 V 7 h 20 20 v 45.5 c 0,29.7 -0.3,45.5 -1,45.5 -0.6,0 -1,4.3 -1,10.8 0,5.9 -0.3,18.5 -0.7,28 l -0.6,17.2 h -13.6 c -12.8,0 -13.7,-0.2 -15.7,-2.3 -1.1,-1.2 -5.4,-12.4 -9.8,-25.9 -6.5,-19.8 -8.2,-23.8 -9.7,-23.8 -1.8,0 -1.9,1.3 -1.9,26 v 26 h -14.5 c -12.2,0 -14.5,-0.2 -14.5,-1.5 z"
       id="path340" />
    <path
       d="m 346,152.5 c 0,-0.8 -0.7,-1.5 -1.5,-1.5 -1.3,0 -1.5,-3.6 -1.5,-26.5 V 98 h -3 -3 V 69.5 41 H 324.5 312 V 24 7 H 357.5 403 V 24 41 H 390.5 378 v 28.5 c 0,24.7 -0.2,28.5 -1.5,28.5 -1.3,0 -1.5,3.8 -1.5,28 v 28 h -14.5 c -12.2,0 -14.5,-0.2 -14.5,-1.5 z"
       id="path342" />
    <path
       d="m 422,152.5 c 0,-0.8 -0.7,-1.5 -1.5,-1.5 -1.3,0 -1.5,-3.6 -1.5,-26.5 V 98 h -3 -3 V 52.5 7 h 20.5 20.5 v 45.5 c 0,39.8 -0.2,45.5 -1.5,45.5 -1.3,0 -1.5,3.8 -1.5,28 v 28 h -14.5 c -12.2,0 -14.5,-0.2 -14.5,-1.5 z"
       id="path344" />
    <path
       d="m 472,152.6 c 0,-0.8 -0.5,-1.6 -1.1,-1.8 -0.7,-0.2 -1.3,-9 -1.6,-26.6 L 468.7,98 H 465.8 463 V 52.5 7 h 19.9 20 l 2.6,8.8 c 1.5,4.8 4.1,13.2 5.8,18.7 l 3.2,10 0.3,-18.7 L 515,7 h 20 20 v 45.5 c 0,29.7 -0.3,45.5 -1,45.5 -0.6,0 -1,4.3 -1,10.8 0,5.9 -0.3,18.5 -0.7,28 l -0.6,17.2 h -13.4 c -11.3,0 -13.6,-0.3 -15.2,-1.7 -1.1,-1.1 -5.3,-11.9 -10.1,-26 -6.9,-20.4 -8.5,-24.3 -10.1,-24.3 -1.8,0 -1.9,1 -1.9,26 v 26 h -14.5 c -11.8,0 -14.5,-0.3 -14.5,-1.4 z"
       id="path346" />
    <path
       d="m 574,152.5 c 0,-0.8 -0.7,-1.5 -1.5,-1.5 -1.3,0 -1.5,-3.6 -1.5,-26.5 V 98 h -3 -3 V 52.5 7 h 46 46 V 34.5 62 H 636.5 616 V 51.5 41 h -5.5 -5.5 v 28.5 c 0,18.3 -0.4,28.5 -1,28.5 -0.6,0 -1,5.8 -1,15.5 V 129 h 9.5 9.5 V 113.5 98 H 614.5 607 V 81.5 65 h 25 25 v 16.5 c 0,14 -0.2,16.5 -1.5,16.5 -1.3,0 -1.5,3.8 -1.5,28 v 28 h -40 c -34.9,0 -40,-0.2 -40,-1.5 z"
       id="path348" />
  </g>
  <g
     fill="#fea717"
     id="g366"
     transform="translate(-1,-1)">
    <path
       fill="url(#lg1)"
       d="M 16,152.6 C 16,151.8 15.5,151 15,150.8 14.3,150.6 13.9,126.7 13.7,82 L 13.5,13.5 27.3,13.2 c 11.6,-0.2 13.8,0 14.3,1.3 0.4,0.8 1.2,1.5 2,1.5 1.2,0 1.4,4.7 1.4,27.5 V 71 H 55 65 V 42 13 h 14 c 11.8,0 14,0.2 14,1.5 0,0.8 0.7,1.5 1.5,1.5 1.3,0 1.5,8.3 1.5,69 v 69 H 82 c -11.8,0 -14,-0.2 -14,-1.5 0,-0.8 -0.7,-1.5 -1.5,-1.5 -1.3,0 -1.5,-3.9 -1.7,-27.2 L 64.5,96.5 54.8,96.2 45,95.9 V 125 154 H 30.5 C 18.7,154 16,153.7 16,152.6 Z"
       id="path352"
       style="fill:url(#linearGradient1337)" />
    <path
       fill="url(#lg1)"
       d="m 118,152.5 c 0,-0.8 -0.7,-1.5 -1.5,-1.5 -1.3,0 -1.5,-8.3 -1.5,-69 V 13 h 14 c 11.8,0 14,0.2 14,1.5 0,0.8 0.7,1.5 1.5,1.5 1.3,0 1.5,6.9 1.5,56.5 V 129 h 10 10 V 71 13 h 14 c 11.8,0 14,0.2 14,1.5 0,0.8 0.9,1.5 2,1.5 2,0 2,0.7 2,69 v 69 h -40 c -34.9,0 -40,-0.2 -40,-1.5 z"
       id="path354"
       style="fill:url(#linearGradient1339)" />
    <path
       fill="url(#lg1)"
       d="m 219,152.6 c 0,-0.8 -0.5,-1.6 -1,-1.8 -0.7,-0.2 -1.1,-24.1 -1.3,-68.8 l -0.2,-68.5 14.3,-0.3 c 12,-0.2 14.3,0 14.8,1.3 0.4,0.8 1.2,1.5 1.8,1.5 0.8,0 4.3,9.9 8.8,24.7 6.6,21.9 7.7,24.8 9.6,25.1 l 2.2,0.3 V 39.6 13 h 14 c 11.8,0 14,0.2 14,1.5 0,0.8 0.7,1.5 1.5,1.5 1.3,0 1.5,8.3 1.5,69 v 69 h -13.5 c -11.5,0 -13.8,-0.3 -15.4,-1.7 -1.2,-1.1 -5.2,-11.6 -10.1,-26.6 -6.5,-19.9 -8.4,-24.7 -9.6,-24.3 -0.9,0.3 -1.8,0.6 -2,0.6 -0.2,0 -0.4,11.7 -0.4,26 v 26 h -14.5 c -11.8,0 -14.5,-0.3 -14.5,-1.4 z"
       id="path356"
       style="fill:url(#linearGradient1341)" />
    <path
       fill="url(#lg1)"
       d="m 346,152.6 c 0,-0.8 -0.4,-1.6 -0.9,-1.8 -0.6,-0.2 -1.3,-23.1 -1.7,-56 L 342.7,39 h -10.9 c -9,0 -10.8,-0.3 -10.8,-1.5 0,-0.9 -0.7,-1.8 -1.5,-2.1 C 318.3,34.9 318,32.7 318,23.9 V 13 h 39.5 c 34.4,0 39.5,0.2 39.5,1.5 0,0.8 0.9,1.5 2,1.5 1.9,0 2,0.7 2,11.5 V 39 H 388 375 V 96.5 154 h -14.5 c -11.8,0 -14.5,-0.3 -14.5,-1.4 z"
       id="path358"
       style="fill:url(#linearGradient1343)" />
    <path
       fill="url(#lg1)"
       d="m 422,152.6 c 0,-0.8 -0.5,-1.6 -1,-1.8 -0.7,-0.2 -1.1,-24.1 -1.3,-68.8 l -0.2,-68.5 13.8,-0.3 c 11.6,-0.2 13.8,0 14.3,1.3 0.4,0.8 1.2,1.5 2,1.5 1.2,0 1.4,10.7 1.4,69 v 69 h -14.5 c -11.8,0 -14.5,-0.3 -14.5,-1.4 z"
       id="path360"
       style="fill:url(#linearGradient1345)" />
    <path
       fill="url(#lg1)"
       d="m 473,152.5 c 0,-0.8 -0.7,-1.5 -1.5,-1.5 -1.3,0 -1.5,-8.3 -1.5,-69 V 13 h 14 c 11.6,0 14.2,0.3 14.6,1.5 0.4,0.8 1.2,1.5 1.9,1.5 0.8,0 1.8,1.5 2.4,3.2 0.5,1.8 2.4,8 4.1,13.8 9.3,30.9 10,33 12.1,33 1.8,0 1.9,-0.9 1.9,-26.5 V 13 h 14 c 11.8,0 14,0.2 14,1.5 0,0.8 0.7,1.5 1.5,1.5 1.3,0 1.5,8.3 1.5,69 v 69 h -13.5 c -12,0 -13.7,-0.2 -15.4,-1.9 -1.1,-1.1 -5.3,-12.1 -9.7,-25.8 -4.3,-13.1 -8,-24.2 -8.4,-24.6 -0.4,-0.4 -1.4,-0.5 -2.3,-0.1 -1.5,0.5 -1.7,3.3 -1.7,26.5 V 154 h -14 c -11.8,0 -14,-0.2 -14,-1.5 z"
       id="path362"
       style="fill:url(#linearGradient1347)" />
    <path
       fill="url(#lg1)"
       d="m 574,152.5 c 0,-0.8 -0.7,-1.5 -1.5,-1.5 -1.3,0 -1.5,-8.3 -1.5,-69 V 13 h 39.5 c 34.2,0 39.6,0.2 40.1,1.5 0.4,0.8 1.2,1.5 2,1.5 1.2,0 1.4,3.8 1.4,21.5 V 59 H 639.5 C 627.3,59 625,58.8 625,57.5 625,56.7 624.3,56 623.5,56 622.3,56 622,54.4 622,47.5 V 39 h -9.5 -9.5 v 44 c 0,24.2 0,44.3 0,44.8 0,0.4 4.4,0.7 9.8,0.7 h 9.7 l 0.3,-8 c 0.2,-4.4 0,-11.7 -0.3,-16.2 L 621.8,96 h -2.9 C 617,96 616,95.5 616,94.5 616,93.7 615.3,93 614.5,93 613.3,93 613,91.1 613,82 V 71 h 19 c 16.2,0 19,0.2 19,1.5 0,0.8 0.7,1.5 1.5,1.5 1.3,0 1.5,5.1 1.5,40 v 40 h -40 c -34.9,0 -40,-0.2 -40,-1.5 z"
       id="path364"
       style="fill:url(#linearGradient1349)" />
  </g>
  <g
     fill="#ffb015"
     id="g386"
     transform="translate(-1,-1)">
    <path
       d="m 346,152.8 c 0,-0.9 -0.4,-1.8 -0.9,-2 -0.6,-0.2 -1.3,-23.1 -1.7,-56 -0.6,-51.2 -0.6,-55.8 0.9,-55.8 1.5,0 1.7,5.1 1.9,57.3 0.2,31.4 0.2,57.4 0.1,57.6 -0.2,0.2 -0.3,-0.3 -0.3,-1.1 z"
       id="path368" />
    <path
       fill="url(#lg1)"
       d="m 522.4,151.2 c -0.7,-0.4 -4.8,-11.7 -9.2,-25.2 -7,-21.5 -8.3,-24.5 -10.1,-24.6 -2.1,-0.1 -2.1,0.2 -2.1,18.2 V 138 H 487 473 V 77.5 16.9 l 14.8,0.3 c 8.9,0.2 14.7,0.7 14.7,1.3 0,0.6 0.4,1.6 0.8,2.3 0.5,0.6 0.6,1.2 0.2,1.2 -0.3,0 0.1,1.6 0.9,3.5 0.8,1.9 1.2,3.5 0.9,3.5 -0.3,0 0,0.7 0.7,1.5 0.7,0.8 1,1.5 0.6,1.5 -0.3,0 0,1.6 0.8,3.5 0.8,1.9 1.2,3.5 0.9,3.5 -0.3,0 0,0.7 0.7,1.5 0.7,0.8 1,1.5 0.7,1.5 -0.4,0 0.1,1.9 0.9,4.3 0.9,2.3 1.7,4.7 1.8,5.2 0.1,0.6 0.5,1.6 0.9,2.3 0.5,0.6 0.6,1.2 0.2,1.2 -0.3,0 0.1,1.6 0.9,3.5 0.8,1.9 1.2,3.5 0.9,3.5 -0.3,0 0,0.6 0.6,1.3 0.6,0.8 0.8,1.7 0.4,2 -0.3,0.4 0.6,0.7 2,0.7 H 521 V 39.5 13 h 14 c 11.7,0 14,0.2 14,1.5 0,1.2 -2.3,1.5 -12.7,1.8 l -12.8,0.3 14.3,0.2 L 552,17 V 77.5 138 h -16.6 -16.5 l 0.7,2.3 c 0.3,1.2 1.4,4.3 2.4,7 1,2.6 1.7,4.7 1.7,4.7 -0.1,0 -0.7,-0.4 -1.3,-0.8 z m -1.9,-81.9 c -1.1,-0.3 -2.3,-1 -2.7,-1.7 -0.5,-0.7 -0.8,-0.7 -0.8,0 0,1.6 1.1,2.4 3.4,2.3 2,-0.1 2,-0.1 0.1,-0.6 z"
       id="path370"
       style="fill:url(#linearGradient1351)" />
    <path
       fill="url(#lg1)"
       d="M 64.8,123.8 64.5,96.5 54.3,96.2 44,95.9 V 117 138 H 30.5 17 V 77.5 17 H 30.5 44 l 0.1,28.8 c 0.1,15.8 0.3,27.9 0.6,27 C 45.1,71.2 46.5,71 55.1,71 H 65 V 42 13 h 14 c 11.7,0 14,0.2 14,1.5 0,1.2 -2.3,1.5 -12.7,1.8 L 67.5,16.6 81.8,16.8 96,17 V 77.5 138 H 82 68 v 6.5 c 0,5.1 -0.3,6.5 -1.5,6.5 -1.3,0 -1.5,-3.9 -1.7,-27.2 z"
       id="path372"
       style="fill:url(#linearGradient1353)" />
    <path
       fill="url(#lg1)"
       d="M 115,82 V 13 h 14 c 11.7,0 14,0.2 14,1.5 0,1.2 -2.3,1.5 -12.7,1.8 l -12.8,0.3 14.3,0.2 14.2,0.2 v 56 56 h 10 10 V 71 13 h 14 c 11.8,0 14,0.2 14,1.5 0,1.3 -2.1,1.5 -12.5,1.5 H 169 l 0.2,58.3 0.3,58.2 0.2,-57.8 L 170,17 H 183.5 197 V 77.5 138 H 157.5 118 v 6.5 c 0,5.1 -0.3,6.5 -1.5,6.5 -1.3,0 -1.5,-8.3 -1.5,-69 z"
       id="path374"
       style="fill:url(#linearGradient1355)" />
    <path
       fill="url(#lg1)"
       d="m 260,125.9 c -6.5,-20.1 -8.4,-24.9 -9.6,-24.5 -0.9,0.3 -2,0.6 -2.5,0.6 -0.5,0 -0.9,7.7 -0.9,18 v 18 H 233.5 220 V 77.5 17 h 14.4 14.4 l 0.8,2.8 c 0.4,1.5 0.8,2.9 0.8,3.2 0.1,0.3 0.5,1.1 0.9,1.7 0.5,0.7 0.6,1.3 0.2,1.3 -0.3,0 0.1,1.6 0.9,3.5 0.8,1.9 1.2,3.5 0.9,3.5 -0.3,0 0,0.7 0.7,1.5 0.7,0.8 1,1.5 0.7,1.5 -0.4,0 0.1,1.9 0.9,4.3 0.9,2.3 1.7,4.7 1.8,5.2 0.1,0.6 0.5,1.6 0.9,2.3 0.5,0.6 0.6,1.2 0.2,1.2 -0.3,0 0.1,1.6 0.9,3.5 0.8,1.9 1.2,3.5 0.9,3.5 -0.3,0 0,0.7 0.7,1.5 0.7,0.8 1,1.5 0.6,1.5 -0.3,0 0,1.5 0.8,3.4 0.8,1.9 1.2,3.6 1,3.9 -0.3,0.2 0.7,0.2 2.1,0 L 268,65.8 V 39.4 13 h 14 c 11.7,0 14,0.2 14,1.5 0,1.2 -2.3,1.5 -12.7,1.8 l -12.8,0.3 14.3,0.2 L 299,17 V 77.5 138 h -16.5 c -11.9,0 -16.5,-0.3 -16.5,-1.2 0,-0.6 -0.2,-0.9 -0.5,-0.6 -0.3,0.2 0.6,3.7 1.9,7.6 1.4,4 2.1,7.2 1.6,7.2 -0.5,0 -4.5,-11.3 -9,-25.1 z m 9,-56.3 c 0,-0.2 -1.1,-0.6 -2.5,-0.8 -1.4,-0.3 -2.5,-0.1 -2.5,0.3 0,0.5 1.1,0.9 2.5,0.9 1.4,0 2.5,-0.2 2.5,-0.4 z"
       id="path376"
       style="fill:url(#linearGradient1357)" />
    <path
       fill="url(#lg1)"
       d="M 571,82 V 13 l 39.7,0.2 c 30.4,0.2 39.7,0.6 40,1.5 0.4,1 -8,1.3 -38.4,1.6 l -38.8,0.2 39.8,0.3 L 653,17 V 38 59 H 639.5 626.1 L 625.8,48.8 625.5,38.6 H 614 l -11.5,-0.1 v 46.9 c 0,25.9 0.1,46.2 0.3,45.3 0.3,-1.4 1.9,-1.7 10,-1.9 l 9.7,-0.3 0.3,-8 c 0.2,-4.4 0,-11.7 -0.3,-16.2 L 621.8,96 h -2.9 C 617,96 616,95.5 616,94.5 616,93.7 615.3,93 614.5,93 613.3,93 613,91.1 613,82 V 71 h 19 c 16.2,0 19,0.2 19,1.5 0,0.8 0.5,1.5 1,1.5 0.6,0 1,11.3 1,32 v 32 H 613.5 574 v 6.5 c 0,5.1 -0.3,6.5 -1.5,6.5 -1.3,0 -1.5,-8.3 -1.5,-69 z m 54.7,23.8 c -0.1,-5.1 -0.3,-1.2 -0.3,8.7 0,9.9 0.2,14.1 0.3,9.3 0.2,-4.8 0.2,-12.9 0,-18 z"
       id="path378"
       style="fill:url(#linearGradient1359)" />
    <path
       fill="url(#lg1)"
       d="m 346.8,88.3 -0.3,-49.7 -12.7,0.3 C 322.5,39.1 321,39 321,37.6 321,36.7 320.3,35.7 319.5,35.4 318.3,34.9 318,32.7 318,23.9 V 13 h 39.5 c 34.3,0 39.5,0.2 39.5,1.5 0,1.3 -5.2,1.5 -38.2,1.8 l -38.3,0.2 39.7,0.3 39.7,0.2 0.3,11 0.3,11 H 387.3 374 V 88.5 138 H 360.5 347 Z"
       id="path380"
       style="fill:url(#linearGradient1361)" />
    <path
       fill="url(#lg1)"
       d="M 423,77.5 V 17 H 436.5 450 V 77.5 138 H 436.5 423 Z"
       id="path382"
       style="fill:url(#linearGradient1363)" />
    <path
       d="m 622,47.5 c 0,-6.9 0.3,-8.5 1.5,-8.5 1.2,0 1.5,1.6 1.5,8.5 0,6.9 -0.3,8.5 -1.5,8.5 -1.2,0 -1.5,-1.6 -1.5,-8.5 z"
       id="path384" />
  </g>
  <g
     fill="#f99838"
     id="g490"
     transform="translate(-1,-1)">
    <path
       d="M 61,563.5 V 495 h 39.5 c 34.4,0 39.5,0.2 39.5,1.5 0,1.3 -4.9,1.5 -38,1.5 H 64 v 67 c 0,58.9 -0.2,67 -1.5,67 -1.3,0 -1.5,-8.3 -1.5,-68.5 z"
       id="path388" />
    <path
       d="M 163,563.5 V 495 h 14 c 11.8,0 14,0.2 14,1.5 0,1.3 -2.1,1.5 -13,1.5 h -13 v 67 c 0,44 -0.3,67 -1,67 -0.7,0 -1,-23.5 -1,-68.5 z"
       id="path390" />
    <path
       d="M 213,610.5 V 589 h 14 c 8.7,0 14,0.4 14,1 0,0.6 -5,1 -13,1 h -13 v 20.5 c 0,13 -0.4,20.5 -1,20.5 -0.6,0 -1,-7.8 -1,-21.5 z"
       id="path392" />
    <path
       d="M 314,563.5 V 495 h 14 c 11.8,0 14,0.2 14,1.5 0,1.3 -2.1,1.5 -12.5,1.5 H 317 v 67 c 0,58.9 -0.2,67 -1.5,67 -1.3,0 -1.5,-8.3 -1.5,-68.5 z"
       id="path394" />
    <path
       d="m 366,605 c 0,-17.3 0.4,-27 1,-27 0.6,0 1,9.7 1,27 0,17.3 -0.4,27 -1,27 -0.6,0 -1,-9.7 -1,-27 z"
       id="path396" />
    <path
       d="M 416,563.5 V 495 h 14 c 11.8,0 14,0.2 14,1.5 0,1.3 -2.1,1.5 -13,1.5 h -13 v 67 c 0,44 -0.3,67 -1,67 -0.7,0 -1,-23.5 -1,-68.5 z"
       id="path398" />
    <path
       d="M 466,563.5 V 495 h 14.5 c 12.2,0 14.5,0.2 14.5,1.5 0,1.3 -2.1,1.5 -13,1.5 h -13 v 67 c 0,58.9 -0.2,67 -1.5,67 -1.3,0 -1.5,-8.3 -1.5,-68.5 z"
       id="path400" />
    <path
       d="m 517.7,631.3 c -1.1,-1.9 -15.6,-47.7 -15.2,-48.1 0.5,-0.6 -0.1,-2.4 8,22.8 3.6,11.3 7,21.7 7.5,23.3 0.8,2.5 0.7,3.6 -0.3,2 z"
       id="path402" />
    <path
       d="M 568,563.5 V 495 h 39.5 c 34.4,0 39.5,0.2 39.5,1.5 0,1.3 -4.9,1.5 -38.5,1.5 H 570 v 67 c 0,44 -0.3,67 -1,67 -0.7,0 -1,-23.5 -1,-68.5 z"
       id="path404" />
    <path
       d="m 245,612 c 0,-0.6 3.8,-1 9.5,-1 h 9.5 v -10.6 c 0,-9.4 0.2,-10.5 1.5,-9.4 1.2,1 1.5,3.6 1.5,11.6 V 613 h -11 c -6.7,0 -11,-0.4 -11,-1 z"
       id="path406" />
    <path
       d="m 599,612 c 0,-0.6 4,-1 10,-1 h 10 v -16.5 c 0,-10.3 0.4,-16.5 1,-16.5 0.6,0 1,6.5 1,17.5 V 613 h -11 c -6.7,0 -11,-0.4 -11,-1 z"
       id="path408" />
    <path
       d="M 610,563.5 V 553 h 18.5 c 11.7,0 18.5,0.4 18.5,1 0,0.6 -6.5,1 -17.5,1 H 612 v 9.5 c 0,5.7 -0.4,9.5 -1,9.5 -0.6,0 -1,-4.2 -1,-10.5 z"
       id="path410" />
    <path
       d="m 93,554 c 0,-0.6 7.2,-1 19.5,-1 12.3,0 19.5,0.4 19.5,1 0,0.6 -7.2,1 -19.5,1 -12.3,0 -19.5,-0.4 -19.5,-1 z"
       id="path412" />
    <path
       d="m 346,554 c 0,-0.6 4,-1 10,-1 h 10 v -29 -29 h 14 c 11.8,0 14,0.2 14,1.5 0,1.3 -2.1,1.5 -13,1.5 h -13 v 28.5 28.5 h -11 c -6.7,0 -11,-0.4 -11,-1 z"
       id="path414" />
    <path
       d="m 514.7,550.4 c -1.2,-1.2 -0.8,-2.4 0.8,-2.4 1.3,0 1.5,-3.6 1.5,-26.5 V 495 h 14 c 11.8,0 14,0.2 14,1.5 0,1.3 -2.1,1.5 -12.5,1.5 H 520 v 26 c 0,15.1 -0.4,26 -0.9,26 -0.5,0 -1.6,0.2 -2.3,0.5 -0.8,0.3 -1.7,0.2 -2.1,-0.1 z"
       id="path416" />
    <path
       d="M 213.8,539.4 C 213.3,539 213,528.8 213,516.8 V 495 h 39.5 c 34.4,0 39.5,0.2 39.5,1.5 0,1.3 -4.9,1.5 -38.5,1.5 H 215 l -0.2,21.1 c -0.2,11.6 -0.6,20.7 -1,20.3 z"
       id="path418" />
    <path
       d="m 264,530 c 0,-7.3 0.3,-9 1.5,-9 1.2,0 1.5,1.7 1.5,9 0,7.3 -0.3,9 -1.5,9 -1.2,0 -1.5,-1.7 -1.5,-9 z"
       id="path420" />
    <path
       d="m 619,529 c 0,-4.7 0.4,-8 1,-8 0.6,0 1,3.3 1,8 0,4.7 -0.4,8 -1,8 -0.6,0 -1,-3.3 -1,-8 z"
       id="path422" />
    <path
       d="m 213.6,383.8 c 0.6,-9.7 5.4,-121.3 5.4,-126 V 254 h 33.5 c 29.1,0 33.5,0.2 33.5,1.5 0,1.3 -4.2,1.5 -32,1.5 -24.9,0 -32,0.3 -32,1.3 0,0.6 -0.5,10 -1,20.7 -1.4,27.2 -5,105.9 -5,109.3 0,1.7 -0.5,2.7 -1.4,2.7 -1.2,0 -1.4,-1.4 -1,-7.2 z"
       id="path424" />
    <path
       d="m 263.6,372.4 c -0.4,-10.3 -0.4,-18.9 -0.1,-19.2 0.3,-0.4 1,0 1.5,0.8 1.2,1.9 1.3,37 0.2,37 -0.5,0 -1.2,-8.4 -1.6,-18.6 z"
       id="path426" />
    <path
       d="M 312,322.5 V 254 h 14.4 c 11.9,0 14.5,0.3 15,1.5 0.5,1.3 -1.4,1.5 -12.9,1.5 H 315 v 67 c 0,58.9 -0.2,67 -1.5,67 -1.3,0 -1.5,-8.3 -1.5,-68.5 z"
       id="path428" />
    <path
       d="m 363.7,390.3 c -0.2,-0.4 -3.7,-10.8 -7.6,-23 -3.9,-12.2 -7.4,-23 -7.8,-24 -0.4,-1.2 -0.3,-1.5 0.5,-0.8 1.1,1.1 16.3,47.7 15.7,48.3 -0.1,0.2 -0.5,0 -0.8,-0.5 z"
       id="path430" />
    <path
       d="M 414,322.5 V 254 h 24.9 c 20.7,0 25.1,0.2 26.1,1.5 1.1,1.3 -1.8,1.5 -23.6,1.7 l -24.9,0.3 -0.3,66.8 c -0.1,43.3 -0.6,66.7 -1.2,66.7 -0.7,0 -1,-23.8 -1,-68.5 z"
       id="path432" />
    <path
       d="m 445,371 c 0,-0.6 4.2,-1 10.5,-1 H 466 v -39.6 c 0,-26.1 0.3,-39.3 1,-38.9 0.6,0.4 1,15 1,40.6 V 372 h -11.5 c -7,0 -11.5,-0.4 -11.5,-1 z"
       id="path434" />
    <path
       d="m 247,329 c 0,-0.6 3.2,-1 7.6,-1 h 7.5 l -0.6,-13.7 c -0.3,-7.6 -0.8,-18.6 -1.1,-24.5 -0.3,-7.4 -0.2,-10.8 0.6,-10.8 1.7,0 1.8,1.2 2.5,26.8 l 0.7,24.2 h -8.6 c -5.1,0 -8.6,-0.4 -8.6,-1 z"
       id="path436" />
    <path
       d="m 360,308.6 c 0,-0.9 0.9,-1.6 2,-1.6 1.9,0 2,-0.7 2,-26.5 V 254 h 13.5 c 11.2,0 13.5,0.2 13.5,1.5 0,1.2 -2.3,1.5 -12.2,1.7 l -12.3,0.3 -0.5,26 -0.5,26 -2.7,0.3 c -2,0.2 -2.8,-0.1 -2.8,-1.2 z"
       id="path438" />
    <path
       d="M 16,152.6 C 16,151.8 15.5,151 15,150.8 14.3,150.6 13.9,126.7 13.7,82 L 13.5,13.5 h 13.9 c 10.3,0 14,0.3 14.4,1.3 0.3,0.9 -2.7,1.2 -12.7,1.2 H 15.9 l 0.3,69 c 0.2,38 0.2,69 0.1,69 -0.2,0 -0.3,-0.6 -0.3,-1.4 z"
       id="path440" />
    <path
       d="m 44.3,150 c 0,-2.5 0.2,-3.5 0.4,-2.2 0.2,1.2 0.2,3.2 0,4.5 -0.2,1.2 -0.4,0.2 -0.4,-2.3 z"
       id="path442" />
    <path
       d="m 197.3,150 c 0,-2.5 0.2,-3.5 0.4,-2.2 0.2,1.2 0.2,3.2 0,4.5 -0.2,1.2 -0.4,0.2 -0.4,-2.3 z"
       id="path444" />
    <path
       d="m 219,152.6 c 0,-0.8 -0.5,-1.6 -1,-1.8 -0.7,-0.2 -1.1,-24.1 -1.3,-68.8 l -0.2,-68.5 h 14.4 c 10.7,0 14.5,0.3 14.9,1.3 0.3,0.9 -2.8,1.2 -13.2,1.2 h -13.7 l 0.3,69 c 0.2,38 0.2,69 0.1,69 -0.2,0 -0.3,-0.6 -0.3,-1.4 z"
       id="path446" />
    <path
       d="m 247.3,150 c 0,-2.5 0.2,-3.5 0.4,-2.2 0.2,1.2 0.2,3.2 0,4.5 -0.2,1.2 -0.4,0.2 -0.4,-2.3 z"
       id="path448" />
    <path
       d="m 346,152.8 c 0,-0.9 -0.4,-1.8 -0.9,-2 -0.6,-0.2 -1.3,-23.1 -1.7,-56 L 342.7,39 331.6,38.8 320.5,38.6 330,38.2 c 5.2,-0.1 11,0 12.7,0.3 l 3.3,0.6 0.2,57.2 c 0.2,31.5 0.2,57.4 0.1,57.6 -0.2,0.2 -0.3,-0.3 -0.3,-1.1 z"
       id="path450" />
    <path
       d="m 374.3,150 c 0,-2.5 0.2,-3.5 0.4,-2.2 0.2,1.2 0.2,3.2 0,4.5 -0.2,1.2 -0.4,0.2 -0.4,-2.3 z"
       id="path452" />
    <path
       d="m 422,152.6 c 0,-0.8 -0.5,-1.6 -1,-1.8 -0.7,-0.2 -1.1,-24.1 -1.3,-68.8 l -0.2,-68.5 h 13.9 c 10.3,0 14,0.3 14.4,1.3 0.3,0.9 -2.7,1.2 -12.7,1.2 h -13.2 l 0.3,69 c 0.2,38 0.2,69 0.1,69 -0.2,0 -0.3,-0.6 -0.3,-1.4 z"
       id="path454" />
    <path
       d="m 450.3,150 c 0,-2.5 0.2,-3.5 0.4,-2.2 0.2,1.2 0.2,3.2 0,4.5 -0.2,1.2 -0.4,0.2 -0.4,-2.3 z"
       id="path456" />
    <path
       d="m 653.3,150 c 0,-2.5 0.2,-3.5 0.4,-2.2 0.2,1.2 0.2,3.2 0,4.5 -0.2,1.2 -0.4,0.2 -0.4,-2.3 z"
       id="path458" />
    <path
       d="m 522.4,151.2 c -1.4,-0.8 -17.5,-49.5 -16.7,-50.2 0.3,-0.3 0.7,0 0.9,0.5 0.4,1 17,50.5 16.9,50.5 0,0 -0.5,-0.4 -1.1,-0.8 z"
       id="path460" />
    <path
       d="M 64.8,123.5 C 64.5,99.4 64.7,96 66,96.2 c 2.3,0.5 2.8,54.8 0.5,54.8 -1.2,0 -1.5,-4 -1.7,-27.5 z"
       id="path462" />
    <path
       d="M 115,82 V 13 h 14 c 11.8,0 14,0.2 14,1.5 0,1.3 -2.1,1.5 -12.5,1.5 H 118 v 67.5 c 0,59.3 -0.2,67.5 -1.5,67.5 -1.3,0 -1.5,-8.3 -1.5,-69 z"
       id="path464" />
    <path
       d="m 260.4,127.3 c -4.2,-13.1 -7.9,-24.3 -8.1,-25 -0.3,-0.7 -0.1,-1.3 0.4,-1.3 0.5,0 3.6,8.2 6.8,18.3 3.2,10 6.9,21.2 8.1,25 1.3,3.7 1.9,6.7 1.4,6.7 -0.5,0 -4.3,-10.7 -8.6,-23.7 z"
       id="path466" />
    <path
       d="M 470,82 V 12.9 l 14.2,0.3 c 10.2,0.2 14.3,0.6 14.6,1.6 0.3,0.9 -2.8,1.2 -13.2,1.2 H 472 v 67.5 c 0,44.3 -0.3,67.5 -1,67.5 -0.7,0 -1,-23.7 -1,-69 z"
       id="path468" />
    <path
       d="M 571,82 V 13 l 39.7,0.2 c 30.6,0.2 39.7,0.6 40.1,1.6 0.3,0.9 -7.8,1.2 -38.2,1.2 H 574 v 67.5 c 0,59.3 -0.2,67.5 -1.5,67.5 -1.3,0 -1.5,-8.3 -1.5,-69 z"
       id="path470" />
    <path
       d="m 146,130.5 c 0,-1.2 1.8,-1.5 10,-1.5 h 10 V 71 13 h 14 c 11.8,0 14,0.2 14,1.5 0,1.3 -2.1,1.5 -12.5,1.5 H 169 v 58 58 h -11.5 c -9.6,0 -11.5,-0.3 -11.5,-1.5 z"
       id="path472" />
    <path
       d="m 602.8,130.3 c -0.4,-1.6 0.5,-1.8 9.6,-1.8 h 10.1 l -0.1,-16.2 c -0.1,-13.2 0.1,-16.3 1.2,-16.3 1.1,0 1.4,3.4 1.4,18 v 18 h -10.9 c -9.5,0 -10.9,-0.2 -11.3,-1.7 z"
       id="path474" />
    <path
       d="m 602.5,82.5 v -44 l 8,-0.3 c 4.4,-0.2 9.5,0 11.3,0.3 l 3.2,0.6 v 8.4 c 0,6.9 -0.3,8.5 -1.5,8.5 -1.2,0 -1.5,-1.6 -1.5,-8.5 V 39 h -9.5 -9.5 l -0.3,43.8 -0.2,43.7 z"
       id="path476" />
    <path
       d="M 613,82 V 71 h 19 c 16.2,0 19,0.2 19,1.5 0,1.3 -2.6,1.5 -17.5,1.5 H 616 v 9.5 c 0,7.8 -0.3,9.5 -1.5,9.5 -1.2,0 -1.5,-1.9 -1.5,-11 z"
       id="path478" />
    <path
       d="M 45,72.5 C 45,71.3 46.8,71 55,71 H 65 V 42 13 h 14 c 11.8,0 14,0.2 14,1.5 0,1.3 -2.1,1.5 -12.5,1.5 H 68 V 45 74 H 56.5 C 46.9,74 45,73.7 45,72.5 Z"
       id="path480" />
    <path
       d="m 264.1,67.1 c -0.9,-1.6 -0.7,-1.7 1.4,-1.3 l 2.5,0.4 V 39.6 13 h 14 c 11.8,0 14,0.2 14,1.5 0,1.3 -2.1,1.5 -12.5,1.5 H 271 V 42.5 69 h -3 c -1.8,0 -3.3,-0.7 -3.9,-1.9 z"
       id="path482" />
    <path
       d="m 517.6,67.5 c -0.4,-1 0.1,-1.5 1.4,-1.5 1.9,0 2,-0.8 2,-26.5 V 13 h 14 c 11.8,0 14,0.2 14,1.5 0,1.3 -2.1,1.5 -12.5,1.5 H 524 V 42.5 69 h -2.9 c -1.6,0 -3.1,-0.6 -3.5,-1.5 z"
       id="path484" />
    <path
       d="m 381.3,38.3 c 3.7,-0.2 9.7,-0.2 13.5,0 3.7,0.2 0.6,0.3 -6.8,0.3 -7.4,0 -10.5,-0.1 -6.7,-0.3 z"
       id="path486" />
    <path
       d="M 319.3,35.3 C 318.4,35 318,31.8 318,23.9 V 13 h 39.5 c 34.4,0 39.5,0.2 39.5,1.5 0,1.3 -4.9,1.5 -38,1.5 h -37.9 l -0.3,9.8 c -0.2,7.4 -0.6,9.8 -1.5,9.5 z"
       id="path488" />
  </g>
</svg>
