<?xml version="1.0" encoding="utf-8"?>
<!DOCTYPE svg PUBLIC "-//W3C//DTD SVG 20010904//EN" "http://www.w3.org/TR/2001/REC-SVG-20010904/DTD/svg10.dtd">
<svg version="1.0" xmlns="http://www.w3.org/2000/svg" width="1297px" height="720px" viewBox="0 0 1297 720" preserveAspectRatio="xMidYMid meet">
   <defs>
      <linearGradient id="lg0" gradientUnits="userSpaceOnUse" x1="1.6191211%" y1="51.52778%" x2="98.07247%" y2="51.52778%">
         <stop offset="0%" style="stop-color:rgb(0,0,0);"></stop>
         <stop offset="1%" style="stop-color:rgb(187,37,32);"></stop>
         <stop offset="2%" style="stop-color:rgb(193,39,34);"></stop>
         <stop offset="5%" style="stop-color:rgb(183,35,31);"></stop>
         <stop offset="6%" style="stop-color:rgb(111,2,2);"></stop>
         <stop offset="27%" style="stop-color:rgb(178,17,8);"></stop>
         <stop offset="45%" style="stop-color:rgb(174,16,8);"></stop>
         <stop offset="46%" style="stop-color:rgb(180,18,9);"></stop>
         <stop offset="58%" style="stop-color:rgb(180,18,8);"></stop>
         <stop offset="59%" style="stop-color:rgb(174,17,8);"></stop>
         <stop offset="64%" style="stop-color:rgb(174,16,7);"></stop>
         <stop offset="65%" style="stop-color:rgb(180,18,9);"></stop>
         <stop offset="82%" style="stop-color:rgb(160,12,4);"></stop>
         <stop offset="94%" style="stop-color:rgb(108,1,1);"></stop>
         <stop offset="95%" style="stop-color:rgb(185,35,32);"></stop>
         <stop offset="96%" style="stop-color:rgb(190,38,34);"></stop>
         <stop offset="98%" style="stop-color:rgb(182,34,31);"></stop>
         <stop offset="100%" style="stop-color:rgb(182,35,31);"></stop>
      </linearGradient>
   </defs>
 <g fill="#800401">
  <path fill="url(#lg0)" d="M645.8 716.2 c-1.6 -0.2 -2.8 -0.7 -2.8 -1.1 0 -0.5 -7 -1.4 -15.5 -2.1 -8.5 -0.8 -15.5 -1.7 -15.5 -2.2 0 -0.4 -2.2 -0.8 -5 -0.8 -2.7 0 -5 -0.4 -5 -0.9 0 -0.4 -7 -1.4 -15.5 -2.1 -8.5 -0.8 -15.5 -1.7 -15.5 -2.2 0 -0.4 -2.2 -0.8 -5 -0.8 -2.7 0 -5 -0.4 -5 -0.8 0 -0.5 -7 -1.4 -15.5 -2.2 -8.5 -0.7 -15.5 -1.7 -15.5 -2.1 0 -0.5 -2.2 -0.9 -4.9 -0.9 -2.8 0 -5.2 -0.4 -5.5 -0.8 -0.3 -0.5 -7.3 -1.5 -15.6 -2.2 -8.2 -0.7 -15 -1.6 -15 -2 0 -0.4 -4.7 -1.1 -10.5 -1.5 -5.8 -0.4 -10.5 -1 -10.5 -1.4 0 -0.5 -4.4 -1.1 -9.7 -1.5 -5.4 -0.4 -10 -1 -10.3 -1.5 -0.3 -0.4 -7.8 -1.4 -16.7 -2.1 -9 -0.7 -16.3 -1.7 -16.3 -2.2 0 -0.4 -2.2 -0.8 -5 -0.8 -2.7 0 -5 -0.4 -5 -0.9 0 -0.4 -7 -1.4 -15.5 -2.1 -8.5 -0.7 -15.5 -1.7 -15.5 -2.1 0 -0.5 -2.2 -0.9 -4.9 -0.9 -2.8 0 -5.2 -0.4 -5.5 -0.9 -0.3 -0.5 -7.3 -1.4 -15.6 -2.1 -8.2 -0.7 -15 -1.6 -15 -2.1 0 -0.4 -4.7 -1 -10.5 -1.4 -5.8 -0.4 -10.5 -1.1 -10.5 -1.5 0 -0.4 -4.5 -1.1 -10 -1.5 -5.5 -0.4 -10 -1.1 -10 -1.5 0 -0.4 -4.7 -1.1 -10.5 -1.5 -5.8 -0.4 -10.5 -1 -10.5 -1.4 0 -0.3 -2.2 -0.4 -5 -0.3 -3.2 0.3 -5 0 -5 -0.7 0 -0.7 -2.2 -1.1 -5.5 -1.1 -3 0 -5.5 -0.4 -5.5 -0.8 0 -0.5 -6.7 -1.5 -15 -2.2 -8.2 -0.7 -15 -1.7 -15 -2.2 0 -0.4 -2.2 -0.8 -4.9 -0.8 -2.8 0 -5.3 -0.4 -5.6 -1 -0.3 -0.5 -2.3 -1 -4.2 -1 -4.9 0 -15.3 -2.2 -15.3 -3.2 0 -0.4 -0.6 -0.8 -1.3 -0.8 -0.7 0 -2.8 -1.3 -4.7 -2.8 -1.9 -1.6 -4.3 -3.1 -5.2 -3.5 -1 -0.3 -2 -1.7 -2.3 -3 -0.4 -1.4 -1.7 -3 -3.1 -3.7 -1.3 -0.8 -2.4 -2.1 -2.4 -3.1 0 -1 -0.7 -2.4 -1.5 -3.3 -0.8 -0.8 -1.5 -2.2 -1.5 -3.1 0 -0.8 -0.6 -1.8 -1.4 -2.1 -0.8 -0.3 -1.8 -1.9 -2.1 -3.5 -0.4 -1.6 -1 -2.9 -1.5 -2.9 -0.4 0 -1.8 -2.1 -3.1 -4.7 -1.2 -2.7 -2.9 -5.2 -3.6 -5.6 -0.7 -0.4 -1.3 -1.6 -1.3 -2.7 0 -1 -0.6 -2.5 -1.3 -3.2 -1.7 -1.9 -3.2 -4.5 -6.2 -10.5 -1.4 -2.9 -3 -5.3 -3.4 -5.3 -0.5 0 -1.2 -1.3 -1.6 -3 -0.4 -1.6 -1 -3 -1.5 -3 -0.4 0 -1.1 -0.8 -1.4 -1.7 -0.4 -1 -1.7 -3.6 -3 -5.8 -1.4 -2.2 -3.5 -6 -4.7 -8.5 -1.2 -2.5 -2.8 -4.8 -3.5 -5.3 -0.7 -0.4 -1.5 -2.1 -1.9 -3.7 -0.4 -1.7 -1.1 -3 -1.6 -3 -0.5 0 -0.9 -0.7 -0.9 -1.5 0 -0.8 -0.4 -1.5 -0.9 -1.5 -0.5 0 -1.5 -1.6 -2.2 -3.5 -0.7 -1.9 -1.7 -3.5 -2.1 -3.5 -0.4 0 -0.8 -0.6 -0.8 -1.3 0 -0.8 -0.9 -2.4 -2 -3.7 -1.1 -1.3 -2 -3.1 -2 -4.2 0 -1 -0.4 -1.8 -0.9 -1.8 -0.5 0 -2 -2.1 -3.2 -4.7 -1.3 -2.7 -2.9 -5.4 -3.6 -6.1 -0.7 -0.7 -1.6 -2.4 -1.9 -3.8 -0.3 -1.3 -1 -2.4 -1.5 -2.4 -0.5 0 -0.9 -0.7 -0.9 -1.5 0 -0.8 -0.4 -1.5 -0.9 -1.5 -0.5 0 -1.4 -1.5 -2.2 -3.2 -0.7 -1.8 -2.3 -4.6 -3.5 -6.3 -1.2 -1.6 -2.5 -4.2 -2.9 -5.7 -0.4 -1.5 -1.3 -2.9 -2.1 -3.2 -0.8 -0.3 -1.4 -1.2 -1.4 -2.1 0 -0.8 -0.4 -1.5 -0.9 -1.5 -0.5 0 -1.2 -1.3 -1.6 -3 -0.4 -1.6 -1 -3 -1.5 -3 -0.4 0 -1.3 -1.5 -2 -3.2 -0.7 -1.8 -2.3 -4.7 -3.6 -6.4 -1.3 -1.7 -2.6 -4.3 -3 -5.8 -0.3 -1.4 -1 -2.6 -1.5 -2.6 -0.5 0 -0.9 -0.6 -0.9 -1.4 0 -0.8 -0.6 -1.6 -1.4 -1.9 -0.8 -0.3 -1.7 -1.9 -2.1 -3.6 -0.4 -1.7 -1 -3.1 -1.5 -3.1 -0.4 0 -1 -0.8 -1.4 -1.7 -0.3 -1 -1.7 -3.6 -3 -5.8 -1.4 -2.2 -3 -5.1 -3.6 -6.5 -0.6 -1.4 -2.2 -3.9 -3.5 -5.6 -1.3 -1.7 -2.7 -4.3 -3.1 -5.8 -0.3 -1.4 -1 -2.6 -1.5 -2.6 -0.5 0 -0.9 -0.6 -0.9 -1.4 0 -0.8 -0.6 -1.6 -1.4 -1.9 -0.8 -0.3 -1.7 -1.9 -2.1 -3.6 -0.4 -1.7 -1 -3.1 -1.4 -3.1 -0.4 0 -2 -2.4 -3.5 -5.2 -3.1 -6.1 -4.8 -9.1 -5.8 -9.8 -0.3 -0.3 -0.9 -1.7 -1.3 -3.2 -0.4 -1.5 -1.3 -2.9 -2 -3.2 -0.7 -0.2 -1.6 -1.8 -2 -3.5 -0.4 -1.7 -1 -3.1 -1.5 -3.1 -0.4 0 -1.1 -0.8 -1.4 -1.7 -1.2 -3.3 -3.9 -7.8 -5.6 -9.3 -0.9 -0.8 -2.3 -3.3 -3 -5.5 -0.7 -2.2 -1.9 -4.4 -2.6 -4.8 -0.8 -0.4 -1.4 -1.5 -1.4 -2.2 0 -0.8 -0.4 -1.5 -0.9 -1.5 -0.5 0 -1.2 -1.3 -1.6 -2.9 -0.3 -1.6 -1.3 -3.2 -2.1 -3.5 -0.8 -0.3 -1.4 -1.4 -1.4 -2.5 0 -1.1 -1.1 -3.2 -2.6 -4.6 -1.6 -1.6 -2.9 -4.6 -3.7 -8 -0.6 -3 -1.5 -5.5 -1.9 -5.5 -0.4 0 -0.8 -0.9 -0.8 -2 0 -1.1 -0.4 -2 -1 -2 -0.6 0 -1 -2.7 -1 -6 0 -3.3 0.4 -6 1 -6 0.6 0 1 -1.1 1 -2.5 0 -1.4 0.4 -2.5 0.8 -2.5 0.5 0 1.4 -2.3 2.1 -5 0.7 -2.8 1.6 -5 1.9 -5 0.4 0 1.2 -1 1.8 -2.3 3.2 -6.4 7 -13.3 8.1 -14.5 0.7 -0.7 1.3 -2 1.3 -2.8 0 -0.8 0.4 -1.4 0.9 -1.4 0.5 0 1.5 -1.6 2.2 -3.5 0.7 -1.9 1.7 -3.5 2.1 -3.5 0.4 0 0.8 -0.7 0.8 -1.5 0 -0.8 0.4 -1.5 0.8 -1.5 0.5 0 1.4 -1.6 2.2 -3.5 0.8 -1.9 1.7 -3.5 2.2 -3.5 0.4 0 0.8 -0.6 0.8 -1.2 0 -0.7 0.9 -2.4 2 -3.8 1.1 -1.4 2 -3.3 2 -4.2 0 -1 0.4 -1.8 0.9 -1.8 0.5 0 1.4 -1.2 2 -2.7 1 -2.7 3 -6.2 4.1 -7.3 0.8 -0.8 2.9 -4.3 4.2 -7 0.7 -1.4 1.5 -2.7 1.8 -3 1.2 -1.1 3 -5.1 3 -6.5 0 -0.8 0.4 -1.5 0.8 -1.5 0.5 0 2 -2.1 3.3 -4.7 1.3 -2.7 2.7 -5 3.2 -5.1 0.4 -0.2 0.7 -1 0.7 -1.7 0 -0.7 0.6 -1.5 1.4 -1.8 0.7 -0.3 1.7 -1.8 2.1 -3.4 0.3 -1.5 1 -3 1.3 -3.3 1.1 -0.8 3.1 -4.3 4.3 -7.2 0.6 -1.6 1.4 -2.8 1.8 -2.8 0.4 0 1.4 -1.8 2.1 -4 0.7 -2.2 1.7 -4 2.2 -4 0.4 0 0.8 -0.7 0.8 -1.5 0 -0.8 0.4 -1.5 0.8 -1.5 0.5 0 1.4 -1.6 2.2 -3.5 0.8 -1.9 1.7 -3.5 2.2 -3.5 0.4 0 0.8 -0.7 0.8 -1.5 0 -0.8 0.4 -1.5 0.9 -1.5 0.5 0 1.2 -1.1 1.5 -2.4 0.3 -1.4 1.2 -3.1 1.9 -3.8 1.7 -1.9 3.2 -4.5 6.2 -10.5 1.4 -2.9 3 -5.3 3.4 -5.3 0.5 0 1.2 -1.3 1.6 -3 0.4 -1.6 1 -3 1.3 -3 0.4 0 1.3 -1.5 2.1 -3.2 0.8 -1.8 1.7 -3.5 2 -3.8 0.5 -0.4 1.8 -2.6 6.5 -11.5 0.6 -1.1 1.6 -2.3 2.2 -2.7 0.7 -0.4 1.5 -2 1.9 -3.5 0.3 -1.5 1 -3 1.3 -3.3 0.9 -0.6 2.9 -3.8 4.4 -7 0.7 -1.4 1.5 -2.7 1.8 -3 0.4 -0.3 1.2 -2 1.9 -3.7 0.8 -1.8 1.7 -3.3 2.2 -3.3 0.5 0 0.9 -0.9 0.9 -2 0 -1.1 0.4 -2 0.9 -2 0.5 0 1.5 -1.5 2.2 -3.2 0.7 -1.8 2.3 -4.4 3.6 -5.8 1.2 -1.3 2.5 -3.7 2.8 -5.2 0.4 -1.5 1.1 -2.8 1.6 -2.8 0.5 0 0.9 -0.6 0.9 -1.3 0 -0.8 0.9 -2.4 2 -3.7 1.1 -1.3 2 -2.9 2 -3.7 0 -0.8 0.6 -2.1 1.3 -2.8 3 -3.4 3.7 -4.5 4.3 -6.9 0.3 -1.4 0.9 -2.6 1.3 -2.6 0.4 0 1.3 -1.6 2.1 -3.5 0.8 -1.9 1.7 -3.5 2.2 -3.5 0.4 0 0.8 -0.7 0.8 -1.5 0 -0.8 0.3 -1.5 0.8 -1.5 0.4 0 1.3 -1.5 2.1 -3.3 0.8 -1.7 2.4 -4.5 3.6 -6.2 1.2 -1.6 2.6 -4.1 3 -5.5 0.4 -1.3 1.3 -3 1.9 -3.7 2.2 -2.4 3.1 -3.9 5.6 -8.6 2.5 -4.8 11.9 -14.7 13.9 -14.7 0.6 0 1.1 -0.4 1.1 -1 0 -0.5 0.6 -1 1.4 -1 0.8 0 1.6 -0.5 1.8 -1 0.2 -0.6 3.1 -1.6 6.6 -2.2 3.4 -0.6 6.2 -1.5 6.2 -2 0 -0.4 0.9 -0.8 2 -0.8 1.1 0 2 -0.4 2 -1 0 -0.7 148.7 -1 444 -1 295.3 0 444 0.3 444 1 0 0.6 1.1 1 2.5 1 1.4 0 2.5 0.4 2.5 0.9 0 0.5 2.1 1.2 4.8 1.6 4.2 0.6 8.1 2.2 12.1 5 1.7 1.2 12.1 11.6 13.7 13.7 0.6 0.8 1.5 2.5 1.9 3.8 0.4 1.3 1.3 3 1.9 3.7 2.7 3.1 3.4 4.1 4.1 6.4 0.4 1.3 1.8 3.8 3 5.4 1.2 1.7 2.8 4.5 3.5 6.3 0.7 1.7 1.6 3.2 2.1 3.2 0.5 0 0.9 0.7 0.9 1.5 0 0.8 0.4 1.5 0.8 1.5 0.4 0 1.4 1.6 2.1 3.5 0.7 1.9 1.6 3.5 2.1 3.5 0.4 0 1.1 1.2 1.4 2.6 0.4 1.5 1.2 3.2 1.9 4 3 3.4 3.7 4.4 3.7 5.7 0 0.8 0.9 2.6 2 4 1.1 1.4 2 3 2 3.6 0 0.6 0.4 1.1 0.9 1.1 0.5 0 1.2 1.4 1.6 3.1 0.4 1.7 1.3 3.3 2.1 3.6 0.8 0.3 1.4 1.1 1.4 1.9 0 0.8 0.4 1.4 0.9 1.4 0.5 0 1.2 1.4 1.6 3.1 0.4 1.7 1.3 3.3 2.1 3.6 0.8 0.3 1.4 1.4 1.4 2.4 0 1 0.4 1.9 0.9 1.9 0.5 0 1.4 1.5 2.2 3.3 0.7 1.7 1.5 3.4 1.9 3.7 0.3 0.3 1.1 1.6 1.8 3 1.5 3.2 3.5 6.4 4.4 7 0.3 0.3 1 1.8 1.3 3.3 0.4 1.6 1.4 3.1 2.1 3.4 0.8 0.3 1.4 1.4 1.4 2.4 0 1 0.4 1.9 0.9 1.9 0.5 0 1.5 1.6 2.1 3.5 0.6 1.9 1.6 3.5 2.1 3.5 0.5 0 0.9 0.7 0.9 1.5 0 0.8 0.4 1.5 0.8 1.5 0.5 0 1.4 1.6 2.2 3.5 0.8 1.9 1.7 3.5 2.1 3.5 0.4 0 1 1.3 1.4 3 0.4 1.6 1.1 3 1.6 3 0.4 0 2 2.4 3.4 5.3 3 6 4.5 8.6 6.3 10.5 0.6 0.7 1.2 2.2 1.2 3.3 0 1.1 0.7 2.2 1.5 2.5 0.8 0.4 1.5 1.2 1.5 2 0 0.8 0.4 1.4 0.8 1.4 0.5 0 1.4 1.6 2.2 3.5 0.8 1.9 1.7 3.5 2.2 3.5 0.4 0 0.8 0.7 0.8 1.5 0 0.8 0.4 1.5 0.8 1.5 0.5 0 1.5 1.8 2.2 4 0.7 2.2 1.7 4 2.1 4 0.4 0 1.2 1.2 1.8 2.8 1.2 2.9 3.2 6.4 4.3 7.2 0.3 0.3 1 1.8 1.3 3.3 0.4 1.6 1.4 3.1 2.1 3.4 0.8 0.3 1.4 1.1 1.4 1.9 0 0.8 0.4 1.4 0.9 1.4 0.5 0 1.2 1.3 1.6 2.8 0.3 1.5 1.7 4 3 5.5 1.4 1.4 2.5 3.1 2.5 3.7 0 1 2 5 3 6 0.3 0.3 1.1 1.6 1.8 3 1.5 3.1 3.5 6.3 4.3 7 0.4 0.3 1 1.6 1.4 3 0.4 1.3 1.3 3 1.9 3.7 2.9 3.3 3.6 4.3 3.6 5.5 0 0.7 0.9 2.4 2 3.8 1.1 1.4 2 3.1 2 3.8 0 0.6 0.4 1.2 0.8 1.2 0.5 0 1.4 1.6 2.2 3.5 0.8 1.9 1.7 3.5 2.2 3.5 0.4 0 0.8 0.7 0.8 1.5 0 0.8 0.4 1.5 0.8 1.5 0.4 0 1.4 1.6 2.1 3.5 0.7 1.9 1.6 3.5 2.1 3.5 0.5 0 1.1 1.4 1.5 3 0.4 1.7 1 3 1.5 3 0.5 0 1.2 1 1.6 2.3 0.4 1.2 0.9 2.4 1.3 2.7 1 0.8 4.2 6.3 4.8 8.3 0.3 0.9 0.9 1.7 1.3 1.7 0.5 0 1.4 2.2 2.1 5 0.7 2.7 1.6 5 2.1 5 0.4 0 0.8 1.4 0.8 3 0 1.7 0.5 3 1 3 0.6 0 1 2 1 4.5 0 2.5 -0.4 4.5 -1 4.5 -0.5 0 -1 1.4 -1 3 0 1.7 -0.4 3 -0.9 3 -0.5 0 -1.2 2.1 -1.6 4.6 -0.3 2.5 -1.3 4.8 -2.1 5.1 -0.8 0.3 -1.4 1.2 -1.4 2 0 0.8 -0.7 2.1 -1.5 2.9 -0.8 0.9 -1.5 2.4 -1.5 3.5 0 1.1 -0.6 2.2 -1.4 2.5 -0.8 0.3 -1.8 1.9 -2.1 3.5 -0.4 1.6 -1.1 2.9 -1.6 2.9 -0.5 0 -0.9 0.7 -0.9 1.5 0 0.9 -0.6 1.8 -1.4 2.1 -0.8 0.3 -1.8 1.9 -2.1 3.6 -0.4 1.6 -1.3 3.2 -2.1 3.5 -0.8 0.3 -1.4 1.4 -1.4 2.4 0 1 -0.4 1.9 -0.9 1.9 -0.5 0 -1.5 1.6 -2.1 3.5 -0.6 1.9 -1.6 3.5 -2.1 3.5 -0.5 0 -0.9 0.7 -0.9 1.5 0 0.8 -0.4 1.5 -0.9 1.5 -0.5 0 -1.2 1.3 -1.6 3 -0.4 1.6 -1.2 3.3 -1.9 3.7 -0.7 0.5 -2.3 3.1 -3.6 5.8 -1.3 2.8 -2.7 5.2 -3.1 5.5 -0.4 0.3 -1.3 1.7 -1.8 3 -1.3 2.9 -3.1 5.9 -4.8 7.8 -0.7 0.7 -1.3 2.2 -1.3 3.3 0 1.1 -0.7 2.2 -1.5 2.5 -0.8 0.4 -1.5 1.2 -1.5 2 0 0.8 -0.4 1.4 -0.8 1.4 -0.5 0 -1.4 1.8 -2.1 4 -0.6 2.2 -1.6 4 -2.1 4 -0.4 0 -1.9 2.1 -3.1 4.8 -1.3 2.6 -2.9 5.3 -3.6 6 -0.7 0.7 -1.3 2.2 -1.3 3.2 0 1 -0.7 2 -1.5 2.4 -0.8 0.3 -1.5 1.2 -1.5 2.1 0 0.8 -0.4 1.5 -0.9 1.5 -0.5 0 -1.2 1.4 -1.6 3.1 -0.4 1.7 -1.3 3.3 -2.1 3.6 -0.8 0.3 -1.4 1.1 -1.4 1.9 0 0.8 -0.4 1.4 -0.8 1.4 -0.5 0 -1.4 1.8 -2.1 4 -0.6 2.2 -1.6 4 -2.1 4 -0.4 0 -1.9 2.3 -3.1 5 -1.2 2.8 -2.6 5 -3.1 5 -0.4 0 -0.8 0.7 -0.8 1.5 0 0.8 -0.4 1.5 -0.9 1.5 -0.5 0 -1.2 1.3 -1.6 3 -0.4 1.6 -1.2 3.3 -1.8 3.7 -0.7 0.5 -2.3 2.9 -3.7 5.6 -1.3 2.6 -2.7 4.7 -3.1 4.7 -0.4 0 -0.9 1.3 -1.2 2.9 -0.3 1.6 -1.3 3.6 -2.2 4.4 -0.8 0.9 -1.5 2 -1.5 2.6 0 0.6 -0.4 1.1 -0.8 1.1 -0.4 0 -1.4 1.6 -2.1 3.5 -0.7 1.9 -1.7 3.5 -2.2 3.5 -0.5 0 -0.9 0.7 -0.9 1.5 0 0.8 -0.4 1.5 -0.8 1.5 -0.4 0 -1.4 1.6 -2.1 3.5 -0.7 1.9 -1.7 3.5 -2.2 3.5 -0.5 0 -0.9 0.8 -0.9 1.8 0 1.1 -0.9 2.9 -2 4.2 -1.1 1.3 -2 2.9 -2 3.7 0 0.7 -0.4 1.3 -0.8 1.3 -0.4 0 -1.4 1.6 -2.1 3.5 -0.7 1.9 -1.7 3.5 -2.2 3.5 -0.5 0 -0.9 0.7 -0.9 1.5 0 0.8 -0.4 1.5 -0.9 1.5 -0.5 0 -1.2 1.3 -1.6 3 -0.4 1.6 -1.2 3.3 -1.9 3.7 -0.6 0.5 -2.3 3.1 -3.6 5.8 -1.4 2.8 -2.8 5.2 -3.2 5.3 -0.5 0.2 -0.8 1 -0.8 1.8 0 0.8 -0.4 1.4 -0.9 1.4 -0.5 0 -1.4 1.5 -2.2 3.3 -0.7 1.7 -1.5 3.4 -1.9 3.7 -0.3 0.3 -1.1 1.6 -1.8 3 -1.5 3.2 -3.5 6.4 -4.4 7 -0.3 0.3 -0.9 1.7 -1.3 3.2 -0.4 1.5 -1.3 3.2 -2.1 3.9 -0.8 0.6 -1.4 1.6 -1.4 2.1 0 0.5 -0.7 1.6 -1.5 2.4 -0.8 0.9 -1.5 2.4 -1.5 3.5 0 1.1 -0.7 2.2 -1.5 2.5 -0.8 0.4 -1.5 1.2 -1.5 2 0 0.8 -0.4 1.4 -0.8 1.4 -0.5 0 -1.4 1.6 -2.2 3.5 -0.8 1.9 -1.7 3.5 -2.1 3.5 -0.4 0 -1 1.3 -1.4 2.9 -0.3 1.6 -1.3 3.2 -2.1 3.5 -0.8 0.3 -1.4 1.3 -1.4 2.1 0 0.9 -0.7 2.3 -1.5 3.1 -0.8 0.9 -1.5 2.4 -1.5 3.5 0 1.1 -1.1 2.4 -2.5 3.1 -1.4 0.6 -2.8 2.2 -3.1 3.5 -0.4 1.3 -1.2 2.3 -2 2.3 -0.8 0 -2.4 1.1 -3.6 2.5 -1.2 1.4 -2.7 2.5 -3.3 2.5 -0.6 0 -2 0.8 -3.1 1.8 -2.2 2 -10.7 4.2 -16.4 4.2 -2.1 0 -4.2 0.5 -4.5 1 -0.3 0.6 -2.8 1 -5.6 1 -2.7 0 -4.9 0.4 -4.9 0.8 0 0.5 -6.7 1.5 -15 2.2 -8.2 0.7 -15 1.7 -15 2.2 0 0.4 -2.5 0.8 -5.5 0.8 -3 0 -5.5 0.4 -5.5 0.9 0 0.4 -7 1.4 -15.5 2.1 -8.5 0.7 -15.5 1.6 -15.5 2 0 0.4 -4.5 1.1 -10 1.5 -5.5 0.4 -10 1.1 -10 1.5 0 0.4 -4.7 1.1 -10.5 1.5 -5.8 0.4 -10.5 1 -10.5 1.5 0 0.4 -7 1.3 -15.5 2 -8.5 0.7 -15.5 1.7 -15.5 2.1 0 0.5 -2.2 0.9 -5 0.9 -2.7 0 -5 0.4 -5 0.9 0 0.4 -6.9 1.4 -15.2 2 -8.4 0.7 -15.4 1.7 -15.6 2.2 -0.2 0.5 -2.6 0.9 -5.3 0.9 -2.7 0 -4.9 0.4 -4.9 0.9 0 0.4 -3.9 1.1 -8.7 1.5 -4.9 0.4 -12.3 1 -16.5 1.3 -4.3 0.3 -7.8 0.9 -7.8 1.3 0 0.4 -4.5 1.1 -10 1.5 -5.5 0.4 -10 1.1 -10 1.5 0 0.4 -4.7 1.1 -10.5 1.5 -5.8 0.4 -10.5 1.1 -10.5 1.5 0 0.4 -6.8 1.3 -15 2 -8.3 0.7 -15.3 1.6 -15.6 2.1 -0.3 0.5 -2.7 0.9 -5.5 0.9 -2.7 0 -4.9 0.4 -4.9 0.9 0 0.4 -7 1.4 -15.5 2.1 -8.5 0.7 -15.5 1.7 -15.5 2.1 0 0.5 -2.2 0.9 -5 0.9 -2.7 0 -5 0.4 -5 0.8 0 0.5 -7 1.4 -15.5 2.2 -8.5 0.7 -15.5 1.7 -15.5 2.1 0 0.5 -2.2 0.9 -5 0.9 -2.7 0 -5 0.5 -5 1 0 0.6 -1.6 1 -3.6 1 -6 0 -26.9 2.3 -27.4 3 -0.7 1 -5 1.6 -8.2 1.2z"/>
 </g>
 <g fill="#b01107">
  <path fill="url(#lg0)" d="M645.8 716.2 c-1.6 -0.2 -2.8 -0.7 -2.8 -1.1 0 -0.5 -7 -1.4 -15.5 -2.1 -8.5 -0.8 -15.5 -1.7 -15.5 -2.2 0 -0.4 -2.2 -0.8 -5 -0.8 -2.7 0 -5 -0.4 -5 -0.9 0 -0.4 -7 -1.4 -15.5 -2.1 -8.5 -0.8 -15.5 -1.7 -15.5 -2.2 0 -0.4 -2.2 -0.8 -5 -0.8 -2.7 0 -5 -0.4 -5 -0.8 0 -0.5 -7 -1.4 -15.5 -2.2 -8.5 -0.7 -15.5 -1.7 -15.5 -2.1 0 -0.5 -2.2 -0.9 -4.9 -0.9 -2.8 0 -5.2 -0.4 -5.5 -0.8 -0.3 -0.5 -7.3 -1.5 -15.6 -2.2 -8.2 -0.7 -15 -1.6 -15 -2 0 -0.4 -4.7 -1.1 -10.5 -1.5 -5.8 -0.4 -10.5 -1 -10.5 -1.4 0 -0.5 -4.4 -1.1 -9.7 -1.5 -5.4 -0.4 -10 -1 -10.3 -1.5 -0.3 -0.4 -7.8 -1.4 -16.7 -2.1 -9 -0.7 -16.3 -1.7 -16.3 -2.2 0 -0.4 -2.2 -0.8 -5 -0.8 -2.7 0 -5 -0.4 -5 -0.9 0 -0.4 -7 -1.4 -15.5 -2.1 -8.5 -0.7 -15.5 -1.7 -15.5 -2.1 0 -0.5 -2.2 -0.9 -4.9 -0.9 -2.8 0 -5.2 -0.4 -5.5 -0.9 -0.3 -0.5 -7.3 -1.4 -15.6 -2.1 -8.2 -0.7 -15 -1.6 -15 -2.1 0 -0.4 -4.7 -1 -10.5 -1.4 -5.8 -0.4 -10.5 -1.1 -10.5 -1.5 0 -0.4 -4.5 -1.1 -10 -1.5 -5.5 -0.4 -10 -1.1 -10 -1.5 0 -0.4 -4.7 -1.1 -10.5 -1.5 -5.8 -0.4 -10.5 -1 -10.5 -1.4 0 -0.3 -2.2 -0.4 -5 -0.3 -3.2 0.3 -5 0 -5 -0.7 0 -0.7 -2.2 -1.1 -5.5 -1.1 -3 0 -5.5 -0.4 -5.5 -0.8 0 -0.5 -6.7 -1.5 -15 -2.2 -8.2 -0.7 -15 -1.7 -15 -2.2 0 -0.4 -2.2 -0.8 -4.9 -0.8 -2.8 0 -5.3 -0.4 -5.6 -1 -0.3 -0.5 -2.3 -1 -4.2 -1 -4.9 0 -15.3 -2.2 -15.3 -3.2 0 -0.4 -0.6 -0.8 -1.3 -0.8 -0.7 0 -2.8 -1.3 -4.7 -2.8 -1.9 -1.6 -4.3 -3.1 -5.2 -3.5 -1 -0.3 -2 -1.7 -2.3 -3 -0.4 -1.4 -1.7 -3 -3.1 -3.7 -1.3 -0.8 -2.4 -2.1 -2.4 -3.1 0 -1 -0.7 -2.4 -1.5 -3.3 -0.8 -0.8 -1.5 -2.2 -1.5 -3.1 0 -0.8 -0.6 -1.8 -1.4 -2.1 -0.8 -0.3 -1.8 -1.9 -2.1 -3.5 -0.4 -1.6 -1 -2.9 -1.5 -2.9 -0.4 0 -1.8 -2.1 -3.1 -4.7 -1.2 -2.7 -2.9 -5.2 -3.6 -5.6 -0.7 -0.4 -1.3 -1.6 -1.3 -2.7 0 -1 -0.6 -2.5 -1.3 -3.2 -1.7 -1.9 -3.2 -4.5 -6.2 -10.5 -1.4 -2.9 -3 -5.3 -3.4 -5.3 -0.5 0 -1.2 -1.3 -1.6 -3 -0.4 -1.6 -1 -3 -1.5 -3 -0.4 0 -1.1 -0.8 -1.4 -1.7 -0.4 -1 -1.7 -3.6 -3 -5.8 -1.4 -2.2 -3.5 -6 -4.7 -8.5 -1.2 -2.5 -2.8 -4.8 -3.5 -5.3 -0.7 -0.4 -1.5 -2.1 -1.9 -3.7 -0.4 -1.7 -1.1 -3 -1.6 -3 -0.5 0 -0.9 -0.7 -0.9 -1.5 0 -0.8 -0.4 -1.5 -0.9 -1.5 -0.5 0 -1.5 -1.6 -2.2 -3.5 -0.7 -1.9 -1.7 -3.5 -2.1 -3.5 -0.4 0 -0.8 -0.6 -0.8 -1.3 0 -0.8 -0.9 -2.4 -2 -3.7 -1.1 -1.3 -2 -3.1 -2 -4.2 0 -1 -0.4 -1.8 -0.9 -1.8 -0.5 0 -2 -2.1 -3.2 -4.7 -1.3 -2.7 -2.9 -5.4 -3.6 -6.1 -0.7 -0.7 -1.6 -2.4 -1.9 -3.8 -0.3 -1.3 -1 -2.4 -1.5 -2.4 -0.5 0 -0.9 -0.7 -0.9 -1.5 0 -0.8 -0.4 -1.5 -0.9 -1.5 -0.5 0 -1.4 -1.5 -2.2 -3.2 -0.7 -1.8 -2.3 -4.6 -3.5 -6.3 -1.2 -1.6 -2.5 -4.2 -2.9 -5.7 -0.4 -1.5 -1.3 -2.9 -2.1 -3.2 -0.8 -0.3 -1.4 -1.2 -1.4 -2.1 0 -0.8 -0.4 -1.5 -0.9 -1.5 -0.5 0 -1.2 -1.3 -1.6 -3 -0.4 -1.6 -1 -3 -1.5 -3 -0.4 0 -1.3 -1.5 -2 -3.2 -0.7 -1.8 -2.3 -4.7 -3.6 -6.4 -1.3 -1.7 -2.6 -4.3 -3 -5.8 -0.3 -1.4 -1 -2.6 -1.5 -2.6 -0.5 0 -0.9 -0.6 -0.9 -1.4 0 -0.8 -0.6 -1.6 -1.4 -1.9 -0.8 -0.3 -1.7 -1.9 -2.1 -3.6 -0.4 -1.7 -1 -3.1 -1.5 -3.1 -0.4 0 -1 -0.8 -1.4 -1.7 -0.3 -1 -1.7 -3.6 -3 -5.8 -1.4 -2.2 -3 -5.1 -3.6 -6.5 -0.6 -1.4 -2.2 -3.9 -3.5 -5.6 -1.3 -1.7 -2.7 -4.3 -3.1 -5.8 -0.3 -1.4 -1 -2.6 -1.5 -2.6 -0.5 0 -0.9 -0.6 -0.9 -1.4 0 -0.8 -0.6 -1.6 -1.4 -1.9 -0.8 -0.3 -1.7 -1.9 -2.1 -3.6 -0.4 -1.7 -1 -3.1 -1.4 -3.1 -0.4 0 -2 -2.4 -3.5 -5.2 -3.1 -6.1 -4.8 -9.1 -5.8 -9.8 -0.3 -0.3 -0.9 -1.7 -1.3 -3.2 -0.4 -1.5 -1.3 -2.9 -2 -3.2 -0.7 -0.2 -1.6 -1.8 -2 -3.5 -0.4 -1.7 -1 -3.1 -1.5 -3.1 -0.4 0 -1.1 -0.8 -1.4 -1.7 -1.2 -3.3 -3.9 -7.8 -5.6 -9.3 -0.9 -0.8 -2.3 -3.3 -3 -5.5 -0.7 -2.2 -1.9 -4.4 -2.6 -4.8 -0.8 -0.4 -1.4 -1.5 -1.4 -2.2 0 -0.8 -0.4 -1.5 -0.9 -1.5 -0.5 0 -1.2 -1.3 -1.6 -2.9 -0.3 -1.6 -1.3 -3.2 -2.1 -3.5 -0.8 -0.3 -1.4 -1.4 -1.4 -2.5 0 -1.1 -1.1 -3.2 -2.6 -4.6 -1.6 -1.6 -2.9 -4.6 -3.7 -8 -0.6 -3 -1.5 -5.5 -1.9 -5.5 -0.4 0 -0.8 -0.9 -0.8 -2 0 -1.1 -0.4 -2 -1 -2 -0.6 0 -1 -2.7 -1 -6 0 -3.3 0.4 -6 1 -6 0.6 0 1 -1.1 1 -2.5 0 -1.4 0.4 -2.5 0.8 -2.5 0.5 0 1.4 -2.3 2.1 -5 0.7 -2.8 1.6 -5 1.9 -5 0.4 0 1.2 -1 1.8 -2.3 3.2 -6.4 7 -13.3 8.1 -14.5 0.7 -0.7 1.3 -2 1.3 -2.8 0 -0.8 0.4 -1.4 0.9 -1.4 0.5 0 1.5 -1.6 2.2 -3.5 0.7 -1.9 1.7 -3.5 2.1 -3.5 0.4 0 0.8 -0.7 0.8 -1.5 0 -0.8 0.4 -1.5 0.8 -1.5 0.5 0 1.4 -1.6 2.2 -3.5 0.8 -1.9 1.7 -3.5 2.2 -3.5 0.4 0 0.8 -0.6 0.8 -1.2 0 -0.7 0.9 -2.4 2 -3.8 1.1 -1.4 2 -3.3 2 -4.2 0 -1 0.4 -1.8 0.9 -1.8 0.5 0 1.4 -1.2 2 -2.7 1 -2.7 3 -6.2 4.1 -7.3 0.8 -0.8 2.9 -4.3 4.2 -7 0.7 -1.4 1.5 -2.7 1.8 -3 1.2 -1.1 3 -5.1 3 -6.5 0 -0.8 0.4 -1.5 0.8 -1.5 0.5 0 2 -2.1 3.3 -4.7 1.3 -2.7 2.7 -5 3.2 -5.1 0.4 -0.2 0.7 -1 0.7 -1.7 0 -0.7 0.6 -1.5 1.4 -1.8 0.7 -0.3 1.7 -1.8 2.1 -3.4 0.3 -1.5 1 -3 1.3 -3.3 1.1 -0.8 3.1 -4.3 4.3 -7.2 0.6 -1.6 1.4 -2.8 1.8 -2.8 0.4 0 1.4 -1.8 2.1 -4 0.7 -2.2 1.7 -4 2.2 -4 0.4 0 0.8 -0.7 0.8 -1.5 0 -0.8 0.4 -1.5 0.8 -1.5 0.5 0 1.4 -1.6 2.2 -3.5 0.8 -1.9 1.7 -3.5 2.2 -3.5 0.4 0 0.8 -0.7 0.8 -1.5 0 -0.8 0.4 -1.5 0.9 -1.5 0.5 0 1.2 -1.1 1.5 -2.4 0.3 -1.4 1.2 -3.1 1.9 -3.8 1.7 -1.9 3.2 -4.5 6.2 -10.5 1.4 -2.9 3 -5.3 3.4 -5.3 0.5 0 1.2 -1.3 1.6 -3 0.4 -1.6 1 -3 1.3 -3 0.4 0 1.3 -1.5 2.1 -3.2 0.8 -1.8 1.7 -3.5 2 -3.8 0.5 -0.4 1.8 -2.6 6.5 -11.5 0.6 -1.1 1.6 -2.3 2.2 -2.7 0.7 -0.4 1.5 -2 1.9 -3.5 0.3 -1.5 1 -3 1.3 -3.3 0.9 -0.6 2.9 -3.8 4.4 -7 0.7 -1.4 1.5 -2.7 1.8 -3 0.4 -0.3 1.2 -2 1.9 -3.7 0.8 -1.8 1.7 -3.3 2.2 -3.3 0.5 0 0.9 -0.9 0.9 -2 0 -1.1 0.4 -2 0.9 -2 0.5 0 1.5 -1.5 2.2 -3.2 0.7 -1.8 2.3 -4.4 3.6 -5.8 1.2 -1.3 2.5 -3.7 2.8 -5.2 0.4 -1.5 1.1 -2.8 1.6 -2.8 0.5 0 0.9 -0.6 0.9 -1.3 0 -0.8 0.9 -2.4 2 -3.7 1.1 -1.3 2 -2.9 2 -3.7 0 -0.8 0.6 -2.1 1.3 -2.8 3 -3.4 3.7 -4.5 4.3 -6.9 0.3 -1.4 0.9 -2.6 1.3 -2.6 0.4 0 1.3 -1.6 2.1 -3.5 0.8 -1.9 1.7 -3.5 2.2 -3.5 0.4 0 0.8 -0.7 0.8 -1.5 0 -0.8 0.3 -1.5 0.8 -1.5 0.4 0 1.3 -1.5 2.1 -3.3 0.8 -1.7 2.4 -4.5 3.6 -6.2 1.2 -1.6 2.6 -4.1 3 -5.5 0.4 -1.3 1.3 -3 1.9 -3.7 2.2 -2.4 3.1 -3.9 5.6 -8.6 2.5 -4.8 11.9 -14.7 13.9 -14.7 0.6 0 1.1 -0.4 1.1 -1 0 -0.5 0.6 -1 1.4 -1 0.8 0 1.6 -0.5 1.8 -1 0.2 -0.6 3.1 -1.6 6.6 -2.2 3.4 -0.6 6.2 -1.5 6.2 -2 0 -0.4 0.9 -0.8 2 -0.8 1.1 0 2 -0.4 2 -1 0 -0.7 148.7 -1 444 -1 295.3 0 444 0.3 444 1 0 0.6 1.1 1 2.5 1 1.4 0 2.5 0.4 2.5 0.9 0 0.5 2.1 1.2 4.8 1.6 4.2 0.6 8.1 2.2 12.1 5 1.7 1.2 12.1 11.6 13.7 13.7 0.6 0.8 1.5 2.5 1.9 3.8 0.4 1.3 1.3 3 1.9 3.7 2.7 3.1 3.4 4.1 4.1 6.4 0.4 1.3 1.8 3.8 3 5.4 1.2 1.7 2.8 4.5 3.5 6.3 0.7 1.7 1.6 3.2 2.1 3.2 0.5 0 0.9 0.7 0.9 1.5 0 0.8 0.4 1.5 0.8 1.5 0.4 0 1.4 1.6 2.1 3.5 0.7 1.9 1.6 3.5 2.1 3.5 0.4 0 1.1 1.2 1.4 2.6 0.4 1.5 1.2 3.2 1.9 4 3 3.4 3.7 4.4 3.7 5.7 0 0.8 0.9 2.6 2 4 1.1 1.4 2 3 2 3.6 0 0.6 0.4 1.1 0.9 1.1 0.5 0 1.2 1.4 1.6 3.1 0.4 1.7 1.3 3.3 2.1 3.6 0.8 0.3 1.4 1.1 1.4 1.9 0 0.8 0.4 1.4 0.9 1.4 0.5 0 1.2 1.4 1.6 3.1 0.4 1.7 1.3 3.3 2.1 3.6 0.8 0.3 1.4 1.4 1.4 2.4 0 1 0.4 1.9 0.9 1.9 0.5 0 1.4 1.5 2.2 3.3 0.7 1.7 1.5 3.4 1.9 3.7 0.3 0.3 1.1 1.6 1.8 3 1.5 3.2 3.5 6.4 4.4 7 0.3 0.3 1 1.8 1.3 3.3 0.4 1.6 1.4 3.1 2.1 3.4 0.8 0.3 1.4 1.4 1.4 2.4 0 1 0.4 1.9 0.9 1.9 0.5 0 1.5 1.6 2.1 3.5 0.6 1.9 1.6 3.5 2.1 3.5 0.5 0 0.9 0.7 0.9 1.5 0 0.8 0.4 1.5 0.8 1.5 0.5 0 1.4 1.6 2.2 3.5 0.8 1.9 1.7 3.5 2.1 3.5 0.4 0 1 1.3 1.4 3 0.4 1.6 1.1 3 1.6 3 0.4 0 2 2.4 3.4 5.3 3 6 4.5 8.6 6.3 10.5 0.6 0.7 1.2 2.2 1.2 3.3 0 1.1 0.7 2.2 1.5 2.5 0.8 0.4 1.5 1.2 1.5 2 0 0.8 0.4 1.4 0.8 1.4 0.5 0 1.4 1.6 2.2 3.5 0.8 1.9 1.7 3.5 2.2 3.5 0.4 0 0.8 0.7 0.8 1.5 0 0.8 0.4 1.5 0.8 1.5 0.5 0 1.5 1.8 2.2 4 0.7 2.2 1.7 4 2.1 4 0.4 0 1.2 1.2 1.8 2.8 1.2 2.9 3.2 6.4 4.3 7.2 0.3 0.3 1 1.8 1.3 3.3 0.4 1.6 1.4 3.1 2.1 3.4 0.8 0.3 1.4 1.1 1.4 1.9 0 0.8 0.4 1.4 0.9 1.4 0.5 0 1.2 1.3 1.6 2.8 0.3 1.5 1.7 4 3 5.5 1.4 1.4 2.5 3.1 2.5 3.7 0 1 2 5 3 6 0.3 0.3 1.1 1.6 1.8 3 1.5 3.1 3.5 6.3 4.3 7 0.4 0.3 1 1.6 1.4 3 0.4 1.3 1.3 3 1.9 3.7 2.9 3.3 3.6 4.3 3.6 5.5 0 0.7 0.9 2.4 2 3.8 1.1 1.4 2 3.1 2 3.8 0 0.6 0.4 1.2 0.8 1.2 0.5 0 1.4 1.6 2.2 3.5 0.8 1.9 1.7 3.5 2.2 3.5 0.4 0 0.8 0.7 0.8 1.5 0 0.8 0.4 1.5 0.8 1.5 0.4 0 1.4 1.6 2.1 3.5 0.7 1.9 1.6 3.5 2.1 3.5 0.5 0 1.1 1.4 1.5 3 0.4 1.7 1 3 1.5 3 0.5 0 1.2 1 1.6 2.3 0.4 1.2 0.9 2.4 1.3 2.7 1 0.8 4.2 6.3 4.8 8.3 0.3 0.9 0.9 1.7 1.3 1.7 0.5 0 1.4 2.2 2.1 5 0.7 2.7 1.6 5 2.1 5 0.4 0 0.8 1.4 0.8 3 0 1.7 0.5 3 1 3 0.6 0 1 2 1 4.5 0 2.5 -0.4 4.5 -1 4.5 -0.5 0 -1 1.4 -1 3 0 1.7 -0.4 3 -0.9 3 -0.5 0 -1.2 2.1 -1.6 4.6 -0.3 2.5 -1.3 4.8 -2.1 5.1 -0.8 0.3 -1.4 1.2 -1.4 2 0 0.8 -0.7 2.1 -1.5 2.9 -0.8 0.9 -1.5 2.4 -1.5 3.5 0 1.1 -0.6 2.2 -1.4 2.5 -0.8 0.3 -1.8 1.9 -2.1 3.5 -0.4 1.6 -1.1 2.9 -1.6 2.9 -0.5 0 -0.9 0.7 -0.9 1.5 0 0.9 -0.6 1.8 -1.4 2.1 -0.8 0.3 -1.8 1.9 -2.1 3.6 -0.4 1.6 -1.3 3.2 -2.1 3.5 -0.8 0.3 -1.4 1.4 -1.4 2.4 0 1 -0.4 1.9 -0.9 1.9 -0.5 0 -1.5 1.6 -2.1 3.5 -0.6 1.9 -1.6 3.5 -2.1 3.5 -0.5 0 -0.9 0.7 -0.9 1.5 0 0.8 -0.4 1.5 -0.9 1.5 -0.5 0 -1.2 1.3 -1.6 3 -0.4 1.6 -1.2 3.3 -1.9 3.7 -0.7 0.5 -2.3 3.1 -3.6 5.8 -1.3 2.8 -2.7 5.2 -3.1 5.5 -0.4 0.3 -1.3 1.7 -1.8 3 -1.3 2.9 -3.1 5.9 -4.8 7.8 -0.7 0.7 -1.3 2.2 -1.3 3.3 0 1.1 -0.7 2.2 -1.5 2.5 -0.8 0.4 -1.5 1.2 -1.5 2 0 0.8 -0.4 1.4 -0.8 1.4 -0.5 0 -1.4 1.8 -2.1 4 -0.6 2.2 -1.6 4 -2.1 4 -0.4 0 -1.9 2.1 -3.1 4.8 -1.3 2.6 -2.9 5.3 -3.6 6 -0.7 0.7 -1.3 2.2 -1.3 3.2 0 1 -0.7 2 -1.5 2.4 -0.8 0.3 -1.5 1.2 -1.5 2.1 0 0.8 -0.4 1.5 -0.9 1.5 -0.5 0 -1.2 1.4 -1.6 3.1 -0.4 1.7 -1.3 3.3 -2.1 3.6 -0.8 0.3 -1.4 1.1 -1.4 1.9 0 0.8 -0.4 1.4 -0.8 1.4 -0.5 0 -1.4 1.8 -2.1 4 -0.6 2.2 -1.6 4 -2.1 4 -0.4 0 -1.9 2.3 -3.1 5 -1.2 2.8 -2.6 5 -3.1 5 -0.4 0 -0.8 0.7 -0.8 1.5 0 0.8 -0.4 1.5 -0.9 1.5 -0.5 0 -1.2 1.3 -1.6 3 -0.4 1.6 -1.2 3.3 -1.8 3.7 -0.7 0.5 -2.3 2.9 -3.7 5.6 -1.3 2.6 -2.7 4.7 -3.1 4.7 -0.4 0 -0.9 1.3 -1.2 2.9 -0.3 1.6 -1.3 3.6 -2.2 4.4 -0.8 0.9 -1.5 2 -1.5 2.6 0 0.6 -0.4 1.1 -0.8 1.1 -0.4 0 -1.4 1.6 -2.1 3.5 -0.7 1.9 -1.7 3.5 -2.2 3.5 -0.5 0 -0.9 0.7 -0.9 1.5 0 0.8 -0.4 1.5 -0.8 1.5 -0.4 0 -1.4 1.6 -2.1 3.5 -0.7 1.9 -1.7 3.5 -2.2 3.5 -0.5 0 -0.9 0.8 -0.9 1.8 0 1.1 -0.9 2.9 -2 4.2 -1.1 1.3 -2 2.9 -2 3.7 0 0.7 -0.4 1.3 -0.8 1.3 -0.4 0 -1.4 1.6 -2.1 3.5 -0.7 1.9 -1.7 3.5 -2.2 3.5 -0.5 0 -0.9 0.7 -0.9 1.5 0 0.8 -0.4 1.5 -0.9 1.5 -0.5 0 -1.2 1.3 -1.6 3 -0.4 1.6 -1.2 3.3 -1.9 3.7 -0.6 0.5 -2.3 3.1 -3.6 5.8 -1.4 2.8 -2.8 5.2 -3.2 5.3 -0.5 0.2 -0.8 1 -0.8 1.8 0 0.8 -0.4 1.4 -0.9 1.4 -0.5 0 -1.4 1.5 -2.2 3.3 -0.7 1.7 -1.5 3.4 -1.9 3.7 -0.3 0.3 -1.1 1.6 -1.8 3 -1.5 3.2 -3.5 6.4 -4.4 7 -0.3 0.3 -0.9 1.7 -1.3 3.2 -0.4 1.5 -1.3 3.2 -2.1 3.9 -0.8 0.6 -1.4 1.6 -1.4 2.1 0 0.5 -0.7 1.6 -1.5 2.4 -0.8 0.9 -1.5 2.4 -1.5 3.5 0 1.1 -0.7 2.2 -1.5 2.5 -0.8 0.4 -1.5 1.2 -1.5 2 0 0.8 -0.4 1.4 -0.8 1.4 -0.5 0 -1.4 1.6 -2.2 3.5 -0.8 1.9 -1.7 3.5 -2.1 3.5 -0.4 0 -1 1.3 -1.4 2.9 -0.3 1.6 -1.3 3.2 -2.1 3.5 -0.8 0.3 -1.4 1.3 -1.4 2.1 0 0.9 -0.7 2.3 -1.5 3.1 -0.8 0.9 -1.5 2.4 -1.5 3.5 0 1.1 -1.1 2.4 -2.5 3.1 -1.4 0.6 -2.8 2.2 -3.1 3.5 -0.4 1.3 -1.2 2.3 -2 2.3 -0.8 0 -2.4 1.1 -3.6 2.5 -1.2 1.4 -2.7 2.5 -3.3 2.5 -0.6 0 -2 0.8 -3.1 1.8 -2.2 2 -10.7 4.2 -16.4 4.2 -2.1 0 -4.2 0.5 -4.5 1 -0.3 0.6 -2.8 1 -5.6 1 -2.7 0 -4.9 0.4 -4.9 0.8 0 0.5 -6.7 1.5 -15 2.2 -8.2 0.7 -15 1.7 -15 2.2 0 0.4 -2.5 0.8 -5.5 0.8 -3 0 -5.5 0.4 -5.5 0.9 0 0.4 -7 1.4 -15.5 2.1 -8.5 0.7 -15.5 1.6 -15.5 2 0 0.4 -4.5 1.1 -10 1.5 -5.5 0.4 -10 1.1 -10 1.5 0 0.4 -4.7 1.1 -10.5 1.5 -5.8 0.4 -10.5 1 -10.5 1.5 0 0.4 -7 1.3 -15.5 2 -8.5 0.7 -15.5 1.7 -15.5 2.1 0 0.5 -2.2 0.9 -5 0.9 -2.7 0 -5 0.4 -5 0.9 0 0.4 -6.9 1.4 -15.2 2 -8.4 0.7 -15.4 1.7 -15.6 2.2 -0.2 0.5 -2.6 0.9 -5.3 0.9 -2.7 0 -4.9 0.4 -4.9 0.9 0 0.4 -3.9 1.1 -8.7 1.5 -4.9 0.4 -12.3 1 -16.5 1.3 -4.3 0.3 -7.8 0.9 -7.8 1.3 0 0.4 -4.5 1.1 -10 1.5 -5.5 0.4 -10 1.1 -10 1.5 0 0.4 -4.7 1.1 -10.5 1.5 -5.8 0.4 -10.5 1.1 -10.5 1.5 0 0.4 -6.8 1.3 -15 2 -8.3 0.7 -15.3 1.6 -15.6 2.1 -0.3 0.5 -2.7 0.9 -5.5 0.9 -2.7 0 -4.9 0.4 -4.9 0.9 0 0.4 -7 1.4 -15.5 2.1 -8.5 0.7 -15.5 1.7 -15.5 2.1 0 0.5 -2.2 0.9 -5 0.9 -2.7 0 -5 0.4 -5 0.8 0 0.5 -7 1.4 -15.5 2.2 -8.5 0.7 -15.5 1.7 -15.5 2.1 0 0.5 -2.2 0.9 -5 0.9 -2.7 0 -5 0.5 -5 1 0 0.6 -1.6 1 -3.6 1 -6 0 -26.9 2.3 -27.4 3 -0.7 1 -5 1.6 -8.2 1.2z m15.4 -20.4 c1.3 -1.3 1.7 -1.8 0.8 -1.2 -0.8 0.6 -2.4 1.6 -3.5 2.2 -1.1 0.6 -1.5 1.2 -0.8 1.2 0.7 0 2.2 -1 3.5 -2.2z m-104.9 -14.3 c2 -1.4 3.7 -2.8 3.7 -3.1 0 -0.3 -1.2 0.3 -2.7 1.4 -1.6 1 -3.7 2.4 -4.8 3 -1.1 0.6 -1.5 1.2 -1 1.2 0.6 0 2.7 -1.1 4.8 -2.5z m218.2 -3.7 l3 -3.3 -4 3.5 c-2.2 1.9 -4.4 3.9 -5 4.4 -0.5 0.5 -0.1 0.4 1 -0.2 1.1 -0.6 3.3 -2.5 5 -4.4z m106 -12.3 c3.9 -3.2 2.8 -3.2 -1.5 0 -1.9 1.4 -3 2.5 -2.4 2.5 0.5 0 2.3 -1.1 3.9 -2.5z m-543.5 -16.6 c3.6 -3.2 2.6 -2.8 -2.4 0.9 -1.6 1.2 -2.5 2.2 -1.9 2.2 0.5 0 2.4 -1.4 4.3 -3.1z m289.8 -15.6 c-1 -0.2 -2.6 -0.2 -3.5 0 -1 0.3 -0.2 0.5 1.7 0.5 1.9 0 2.7 -0.2 1.8 -0.5z m79.7 -4.3 c19.2 -2.7 62 -8.8 95 -13.4 269 -38.1 250.3 -35.3 258.2 -39.1 4.9 -2.4 8.6 -5.2 12 -8.9 3.3 -3.6 19 -30 50.2 -84.2 25 -43.4 52.9 -91.7 62 -107.4 9.1 -15.7 17.5 -31.1 18.8 -34.2 4.3 -10.6 4 -24.6 -0.8 -34 -1.7 -3.3 -28.8 -50.4 -104.6 -181.8 -18.5 -32 -21.7 -36.1 -33.2 -41.8 l-7.5 -3.7 -408 0 -408.1 0 -7.1 3.3 c-12.5 5.9 -15.1 9.4 -42.6 57.2 -13.5 23.4 -40.7 70.6 -60.5 105 -21.4 37.1 -36.7 64.7 -37.7 67.9 -2.2 7.5 -2 17.8 0.4 25 1.7 5 8.8 17.9 42.5 76.1 7.1 12.2 54.7 94.8 75.2 130.5 11.9 20.6 16.5 26 26.8 31.1 7.9 3.9 -16.8 0.1 225.5 34.4 58.6 8.3 116.1 16.4 127.8 18.1 11.7 1.7 21.9 2.8 22.5 2.6 1.6 -0.5 -33.2 -6 -82.8 -13.1 -9.9 -1.5 -20.7 -3.1 -24 -3.6 -54.7 -8.8 -71.9 -11.6 -87 -14.2 -9.9 -1.6 -22.3 -3.6 -27.5 -4.3 -5.2 -0.7 -13.5 -2.1 -18.5 -3 -4.9 -0.9 -11.9 -2.1 -15.5 -2.6 -10.9 -1.6 -49 -7.8 -58 -9.5 -13.7 -2.5 -21.7 -7.3 -28.3 -17.2 -2.1 -3.2 -28.8 -52.3 -42.5 -78.2 -2.5 -4.7 -4.8 -8.9 -5.2 -9.5 -0.9 -1.1 -17.7 -32.1 -25.3 -46.5 -2.7 -5.2 -8.5 -15.8 -12.7 -23.5 -12.8 -23.1 -13.5 -25.1 -13.4 -38 0 -9.3 0.4 -12.1 2.6 -18.1 2.7 -7.2 13.4 -29.2 26.5 -54.4 7.1 -13.6 28.8 -56.1 50.2 -98.4 27 -53.2 31 -59.2 43.7 -65.7 l6.8 -3.4 342 -0.3 c245.1 -0.1 343.6 0.1 347.6 0.9 3 0.6 6.5 1.2 7.8 1.4 3.3 0.5 10.2 4.8 13.8 8.7 4.2 4.5 5.1 6.3 30.2 55.8 83 164.5 78.6 154.8 78.5 170.5 -0.1 11.7 -2.8 18.3 -22.3 55 -2.6 5 -7.8 14.9 -11.5 22 -3.7 7.2 -7.8 14.8 -9 17 -1.2 2.2 -4.2 7.6 -6.5 12 -2.4 4.4 -6.3 11.6 -8.7 16 -2.4 4.4 -6.2 11.8 -8.4 16.5 -2.2 4.7 -5.6 11 -7.4 14 -1.8 3 -7.9 14.5 -13.5 25.5 -10.5 20.5 -13.2 24.9 -18.5 29.8 -6.4 6.1 -11.8 7.5 -47 13.1 -31.5 5 -72.1 11.6 -77.5 12.6 -6.9 1.3 -26.5 4.5 -39 6.4 -5.2 0.8 -15.3 2.4 -22.5 3.5 -13.5 2.2 -69.5 10.4 -82.5 12.2 -9 1.2 -75.9 11.8 -78 12.3 -5.4 1.3 5.6 0 36.5 -4.4z m-86.7 3.3 c-1 -0.2 -2.6 -0.2 -3.5 0 -1 0.3 -0.2 0.5 1.7 0.5 1.9 0 2.7 -0.2 1.8 -0.5z m-485.8 -97.6 c0 -0.2 -1.6 -1.8 -3.5 -3.7 -1.9 -1.9 -3.5 -3 -3.5 -2.6 0 0.4 1.4 2.1 3.1 3.7 2.9 2.7 3.9 3.4 3.9 2.6z m-53.4 -95 c-1.1 -0.7 -3.5 -2.5 -5.5 -4.1 -3.2 -2.5 -3.1 -2.4 0.6 1.3 2.3 2.2 4.8 4.1 5.5 4 0.8 0 0.5 -0.5 -0.6 -1.2z m-45.1 -96.5 c-0.6 -0.4 -2.8 -2.3 -4.9 -4.2 -3.2 -2.9 -3.6 -3 -2 -0.8 1 1.4 3 3.3 4.4 4.2 2.6 1.6 4.1 2.1 2.5 0.8z m48 -96.4 c-1.1 -0.6 -3.4 -2.2 -5 -3.7 -1.7 -1.4 -1.4 -0.9 0.7 1.2 2 2 4.3 3.7 5 3.7 0.7 0 0.4 -0.6 -0.7 -1.2z m1132.3 -2.5 c2.1 -2.1 2.4 -2.6 0.7 -1.2 -1.6 1.5 -3.9 3.1 -5 3.7 -1.1 0.6 -1.4 1.2 -0.7 1.2 0.7 0 3 -1.7 5 -3.7z m-1077.3 -93.1 c-5.3 -4.2 -6 -4.6 -3.3 -1.9 1.6 1.5 3.1 2.7 3.5 2.7 0.4 0 0.3 -0.3 -0.2 -0.8z m61.5 -89.3 c-1.9 -1.2 -4.6 -3.1 -6 -4.3 l-2.5 -2.1 2 2.4 c2.1 2.6 7.4 6.1 9 6.1 0.6 0 -0.6 -1 -2.5 -2.1z m131.8 -0.9 c2.3 -1.7 4.2 -3.3 4.2 -3.7 0 -0.3 -0.8 0.1 -1.7 0.9 -1 0.9 -3.4 2.5 -5.3 3.7 -1.9 1.1 -3 2.1 -2.4 2.1 0.6 0 3 -1.4 5.2 -3z m435 1.6 c1.5 -0.8 3.8 -2.7 5.2 -4.3 l2.5 -2.8 -3 2.6 c-1.7 1.5 -4.3 3.4 -6 4.2 -1.6 0.9 -2.6 1.6 -2.2 1.7 0.4 0 2 -0.6 3.5 -1.4z m109.2 -0.1 c1.7 -0.9 3 -1.8 3 -2.1 0 -0.4 -5.9 2.3 -6.9 3.2 -1 0.9 1.3 0.3 3.9 -1.1z m218.8 0.1 c1.5 -0.8 3.8 -2.7 5.2 -4.2 l2.5 -2.8 -4 3 c-2.2 1.7 -4.9 3.6 -6 4.2 -2.9 1.6 -0.9 1.5 2.3 -0.2z m-678.3 -1.6 c-0.3 -0.5 -1.6 -1.5 -2.8 -2.1 -2.1 -1 -2.1 -0.9 0.2 1 2.5 2.3 3.6 2.7 2.6 1.1z m246.6 -2.7 c1 -1.2 0.5 -1.1 -1.8 0.6 -1.8 1.2 -3.3 2.4 -3.3 2.7 0 0.9 3.7 -1.5 5.1 -3.3z"/>
 </g>
 <g fill="#fe3933">
  <path d="M645.8 716.2 c-1.6 -0.2 -2.8 -0.7 -2.8 -1.1 0 -0.5 -7 -1.4 -15.5 -2.1 -8.5 -0.8 -15.5 -1.7 -15.5 -2.2 0 -0.4 -2.2 -0.8 -5 -0.8 -2.7 0 -5 -0.4 -5 -0.9 0 -0.4 -7 -1.4 -15.5 -2.1 -8.5 -0.8 -15.5 -1.7 -15.5 -2.2 0 -0.4 -2.2 -0.8 -5 -0.8 -2.7 0 -5 -0.4 -5 -0.8 0 -0.5 -7 -1.4 -15.5 -2.2 -8.5 -0.7 -15.5 -1.7 -15.5 -2.1 0 -0.5 -2.2 -0.9 -4.9 -0.9 -2.8 0 -5.2 -0.4 -5.5 -0.8 -0.3 -0.5 -7.3 -1.5 -15.6 -2.2 -8.2 -0.7 -15 -1.6 -15 -2 0 -0.4 -4.7 -1.1 -10.5 -1.5 -5.8 -0.4 -10.5 -1 -10.5 -1.4 0 -0.5 -4.4 -1.1 -9.7 -1.5 -5.4 -0.4 -10 -1 -10.3 -1.5 -0.3 -0.4 -7.8 -1.4 -16.7 -2.1 -9 -0.7 -16.3 -1.7 -16.3 -2.2 0 -0.4 -2.2 -0.8 -5 -0.8 -2.7 0 -5 -0.4 -5 -0.9 0 -0.4 -7 -1.4 -15.5 -2.1 -8.5 -0.7 -15.5 -1.7 -15.5 -2.1 0 -0.5 -2.2 -0.9 -4.9 -0.9 -2.8 0 -5.2 -0.4 -5.5 -0.9 -0.3 -0.5 -7.3 -1.4 -15.6 -2.1 -8.2 -0.7 -15 -1.6 -15 -2.1 0 -0.4 -4.7 -1 -10.5 -1.4 -5.8 -0.4 -10.5 -1.1 -10.5 -1.5 0 -0.4 -4.5 -1.1 -10 -1.5 -5.5 -0.4 -10 -1.1 -10 -1.5 0 -0.4 -4.7 -1.1 -10.5 -1.5 -5.8 -0.4 -10.5 -1 -10.5 -1.4 0 -0.3 -2.2 -0.4 -5 -0.3 -3.2 0.3 -5 0 -5 -0.7 0 -0.7 -2.2 -1.1 -5.5 -1.1 -3 0 -5.5 -0.4 -5.5 -0.8 0 -0.5 -6.7 -1.5 -15 -2.2 -8.2 -0.7 -15 -1.7 -15 -2.2 0 -0.4 -2.2 -0.8 -4.9 -0.8 -2.8 0 -5.3 -0.4 -5.6 -1 -0.3 -0.5 -2.3 -1 -4.2 -1 -4.9 0 -15.3 -2.2 -15.3 -3.2 0 -0.4 -0.6 -0.8 -1.3 -0.8 -0.7 0 -2.8 -1.3 -4.7 -2.8 -1.9 -1.6 -4.3 -3.1 -5.2 -3.5 -1 -0.3 -2 -1.7 -2.3 -3 -0.4 -1.4 -1.7 -3 -3.1 -3.7 -1.3 -0.8 -2.4 -2.1 -2.4 -3.1 0 -1 -0.7 -2.4 -1.5 -3.3 -0.8 -0.8 -1.5 -2.2 -1.5 -3.1 0 -0.8 -0.6 -1.8 -1.4 -2.1 -0.8 -0.3 -1.8 -1.9 -2.1 -3.5 -0.4 -1.6 -1 -2.9 -1.5 -2.9 -0.4 0 -1.8 -2.1 -3.1 -4.7 -1.2 -2.7 -2.9 -5.2 -3.6 -5.6 -0.7 -0.4 -1.3 -1.6 -1.3 -2.7 0 -1 -0.6 -2.5 -1.3 -3.2 -1.7 -1.9 -3.2 -4.5 -6.2 -10.5 -1.4 -2.9 -3 -5.3 -3.4 -5.3 -0.5 0 -1.2 -1.3 -1.6 -3 -0.4 -1.6 -1 -3 -1.5 -3 -0.4 0 -1.1 -0.8 -1.4 -1.7 -0.4 -1 -1.7 -3.6 -3 -5.8 -1.4 -2.2 -3.5 -6 -4.7 -8.5 -1.2 -2.5 -2.8 -4.8 -3.5 -5.3 -0.7 -0.4 -1.5 -2.1 -1.9 -3.7 -0.4 -1.7 -1.1 -3 -1.6 -3 -0.5 0 -0.9 -0.7 -0.9 -1.5 0 -0.8 -0.4 -1.5 -0.9 -1.5 -0.5 0 -1.5 -1.6 -2.2 -3.5 -0.7 -1.9 -1.7 -3.5 -2.1 -3.5 -0.4 0 -0.8 -0.6 -0.8 -1.3 0 -0.8 -0.9 -2.4 -2 -3.7 -1.1 -1.3 -2 -3.1 -2 -4.2 0 -1 -0.4 -1.8 -0.9 -1.8 -0.5 0 -2 -2.1 -3.2 -4.7 -1.3 -2.7 -2.9 -5.4 -3.6 -6.1 -0.7 -0.7 -1.6 -2.4 -1.9 -3.8 -0.3 -1.3 -1 -2.4 -1.5 -2.4 -0.5 0 -0.9 -0.7 -0.9 -1.5 0 -0.8 -0.4 -1.5 -0.9 -1.5 -0.5 0 -1.4 -1.5 -2.2 -3.2 -0.7 -1.8 -2.3 -4.6 -3.5 -6.3 -1.2 -1.6 -2.5 -4.2 -2.9 -5.7 -0.4 -1.5 -1.3 -2.9 -2.1 -3.2 -0.8 -0.3 -1.4 -1.2 -1.4 -2.1 0 -0.8 -0.4 -1.5 -0.9 -1.5 -0.5 0 -1.2 -1.3 -1.6 -3 -0.4 -1.6 -1 -3 -1.5 -3 -0.4 0 -1.3 -1.5 -2 -3.2 -0.7 -1.8 -2.3 -4.7 -3.6 -6.4 -1.3 -1.7 -2.6 -4.3 -3 -5.8 -0.3 -1.4 -1 -2.6 -1.5 -2.6 -0.5 0 -0.9 -0.6 -0.9 -1.4 0 -0.8 -0.6 -1.6 -1.4 -1.9 -0.8 -0.3 -1.7 -1.9 -2.1 -3.6 -0.4 -1.7 -1 -3.1 -1.5 -3.1 -0.4 0 -1 -0.8 -1.4 -1.7 -0.3 -1 -1.7 -3.6 -3 -5.8 -1.4 -2.2 -3 -5.1 -3.6 -6.5 -0.6 -1.4 -2.2 -3.9 -3.5 -5.6 -1.3 -1.7 -2.7 -4.3 -3.1 -5.8 -0.3 -1.4 -1 -2.6 -1.5 -2.6 -0.5 0 -0.9 -0.6 -0.9 -1.4 0 -0.8 -0.6 -1.6 -1.4 -1.9 -0.8 -0.3 -1.7 -1.9 -2.1 -3.6 -0.4 -1.7 -1 -3.1 -1.4 -3.1 -0.4 0 -2 -2.4 -3.5 -5.2 -3.1 -6.1 -4.8 -9.1 -5.8 -9.8 -0.3 -0.3 -0.9 -1.7 -1.3 -3.2 -0.4 -1.5 -1.3 -2.9 -2 -3.2 -0.7 -0.2 -1.6 -1.8 -2 -3.5 -0.4 -1.7 -1 -3.1 -1.5 -3.1 -0.4 0 -1.1 -0.8 -1.4 -1.7 -1.2 -3.3 -3.9 -7.8 -5.6 -9.3 -0.9 -0.8 -2.3 -3.3 -3 -5.5 -0.7 -2.2 -1.9 -4.4 -2.6 -4.8 -0.8 -0.4 -1.4 -1.5 -1.4 -2.2 0 -0.8 -0.4 -1.5 -0.9 -1.5 -0.5 0 -1.2 -1.3 -1.6 -2.9 -0.3 -1.6 -1.3 -3.2 -2.1 -3.5 -0.8 -0.3 -1.4 -1.4 -1.4 -2.5 0 -1.1 -1.1 -3.2 -2.6 -4.6 -1.6 -1.6 -2.9 -4.6 -3.7 -8 -0.6 -3 -1.5 -5.5 -1.9 -5.5 -0.4 0 -0.8 -0.9 -0.8 -2 0 -1.1 -0.4 -2 -1 -2 -0.6 0 -1 -2.7 -1 -6 0 -3.3 0.4 -6 1 -6 0.6 0 1 -1.1 1 -2.5 0 -1.4 0.4 -2.5 0.8 -2.5 0.5 0 1.4 -2.3 2.1 -5 0.7 -2.8 1.6 -5 1.9 -5 0.4 0 1.2 -1 1.8 -2.3 3.2 -6.4 7 -13.3 8.1 -14.5 0.7 -0.7 1.3 -2 1.3 -2.8 0 -0.8 0.4 -1.4 0.9 -1.4 0.5 0 1.5 -1.6 2.2 -3.5 0.7 -1.9 1.7 -3.5 2.1 -3.5 0.4 0 0.8 -0.7 0.8 -1.5 0 -0.8 0.4 -1.5 0.8 -1.5 0.5 0 1.4 -1.6 2.2 -3.5 0.8 -1.9 1.7 -3.5 2.2 -3.5 0.4 0 0.8 -0.6 0.8 -1.2 0 -0.7 0.9 -2.4 2 -3.8 1.1 -1.4 2 -3.3 2 -4.2 0 -1 0.4 -1.8 0.9 -1.8 0.5 0 1.4 -1.2 2 -2.7 1 -2.7 3 -6.2 4.1 -7.3 0.8 -0.8 2.9 -4.3 4.2 -7 0.7 -1.4 1.5 -2.7 1.8 -3 1.2 -1.1 3 -5.1 3 -6.5 0 -0.8 0.4 -1.5 0.8 -1.5 0.5 0 2 -2.1 3.3 -4.7 1.3 -2.7 2.7 -5 3.2 -5.1 0.4 -0.2 0.7 -1 0.7 -1.7 0 -0.7 0.6 -1.5 1.4 -1.8 0.7 -0.3 1.7 -1.8 2.1 -3.4 0.3 -1.5 1 -3 1.3 -3.3 1.1 -0.8 3.1 -4.3 4.3 -7.2 0.6 -1.6 1.4 -2.8 1.8 -2.8 0.4 0 1.4 -1.8 2.1 -4 0.7 -2.2 1.7 -4 2.2 -4 0.4 0 0.8 -0.7 0.8 -1.5 0 -0.8 0.4 -1.5 0.8 -1.5 0.5 0 1.4 -1.6 2.2 -3.5 0.8 -1.9 1.7 -3.5 2.2 -3.5 0.4 0 0.8 -0.7 0.8 -1.5 0 -0.8 0.4 -1.5 0.9 -1.5 0.5 0 1.2 -1.1 1.5 -2.4 0.3 -1.4 1.2 -3.1 1.9 -3.8 1.7 -1.9 3.2 -4.5 6.2 -10.5 1.4 -2.9 3 -5.3 3.4 -5.3 0.5 0 1.2 -1.3 1.6 -3 0.4 -1.6 1 -3 1.3 -3 0.4 0 1.3 -1.5 2.1 -3.2 0.8 -1.8 1.7 -3.5 2 -3.8 0.5 -0.4 1.8 -2.6 6.5 -11.5 0.6 -1.1 1.6 -2.3 2.2 -2.7 0.7 -0.4 1.5 -2 1.9 -3.5 0.3 -1.5 1 -3 1.3 -3.3 0.9 -0.6 2.9 -3.8 4.4 -7 0.7 -1.4 1.5 -2.7 1.8 -3 0.4 -0.3 1.2 -2 1.9 -3.7 0.8 -1.8 1.7 -3.3 2.2 -3.3 0.5 0 0.9 -0.9 0.9 -2 0 -1.1 0.4 -2 0.9 -2 0.5 0 1.5 -1.5 2.2 -3.2 0.7 -1.8 2.3 -4.4 3.6 -5.8 1.2 -1.3 2.5 -3.7 2.8 -5.2 0.4 -1.5 1.1 -2.8 1.6 -2.8 0.5 0 0.9 -0.6 0.9 -1.3 0 -0.8 0.9 -2.4 2 -3.7 1.1 -1.3 2 -2.9 2 -3.7 0 -0.8 0.6 -2.1 1.3 -2.8 3 -3.4 3.7 -4.5 4.3 -6.9 0.3 -1.4 0.9 -2.6 1.3 -2.6 0.4 0 1.3 -1.6 2.1 -3.5 0.8 -1.9 1.7 -3.5 2.2 -3.5 0.4 0 0.8 -0.7 0.8 -1.5 0 -0.8 0.3 -1.5 0.8 -1.5 0.4 0 1.3 -1.5 2.1 -3.3 0.8 -1.7 2.4 -4.5 3.6 -6.2 1.2 -1.6 2.6 -4.1 3 -5.5 0.4 -1.3 1.3 -3 1.9 -3.7 2.2 -2.4 3.1 -3.9 5.6 -8.6 2.5 -4.8 11.9 -14.7 13.9 -14.7 0.6 0 1.1 -0.4 1.1 -1 0 -0.5 0.6 -1 1.4 -1 0.8 0 1.6 -0.5 1.8 -1 0.2 -0.6 3.1 -1.6 6.6 -2.2 3.4 -0.6 6.2 -1.5 6.2 -2 0 -0.4 0.9 -0.8 2 -0.8 1.1 0 2 -0.4 2 -1 0 -0.7 148.7 -1 444 -1 295.3 0 444 0.3 444 1 0 0.6 1.1 1 2.5 1 1.4 0 2.5 0.4 2.5 0.9 0 0.5 2.1 1.2 4.8 1.6 4.2 0.6 8.1 2.2 12.1 5 1.7 1.2 12.1 11.6 13.7 13.7 0.6 0.8 1.5 2.5 1.9 3.8 0.4 1.3 1.3 3 1.9 3.7 2.7 3.1 3.4 4.1 4.1 6.4 0.4 1.3 1.8 3.8 3 5.4 1.2 1.7 2.8 4.5 3.5 6.3 0.7 1.7 1.6 3.2 2.1 3.2 0.5 0 0.9 0.7 0.9 1.5 0 0.8 0.4 1.5 0.8 1.5 0.4 0 1.4 1.6 2.1 3.5 0.7 1.9 1.6 3.5 2.1 3.5 0.4 0 1.1 1.2 1.4 2.6 0.4 1.5 1.2 3.2 1.9 4 3 3.4 3.7 4.4 3.7 5.7 0 0.8 0.9 2.6 2 4 1.1 1.4 2 3 2 3.6 0 0.6 0.4 1.1 0.9 1.1 0.5 0 1.2 1.4 1.6 3.1 0.4 1.7 1.3 3.3 2.1 3.6 0.8 0.3 1.4 1.1 1.4 1.9 0 0.8 0.4 1.4 0.9 1.4 0.5 0 1.2 1.4 1.6 3.1 0.4 1.7 1.3 3.3 2.1 3.6 0.8 0.3 1.4 1.4 1.4 2.4 0 1 0.4 1.9 0.9 1.9 0.5 0 1.4 1.5 2.2 3.3 0.7 1.7 1.5 3.4 1.9 3.7 0.3 0.3 1.1 1.6 1.8 3 1.5 3.2 3.5 6.4 4.4 7 0.3 0.3 1 1.8 1.3 3.3 0.4 1.6 1.4 3.1 2.1 3.4 0.8 0.3 1.4 1.4 1.4 2.4 0 1 0.4 1.9 0.9 1.9 0.5 0 1.5 1.6 2.1 3.5 0.6 1.9 1.6 3.5 2.1 3.5 0.5 0 0.9 0.7 0.9 1.5 0 0.8 0.4 1.5 0.8 1.5 0.5 0 1.4 1.6 2.2 3.5 0.8 1.9 1.7 3.5 2.1 3.5 0.4 0 1 1.3 1.4 3 0.4 1.6 1.1 3 1.6 3 0.4 0 2 2.4 3.4 5.3 3 6 4.5 8.6 6.3 10.5 0.6 0.7 1.2 2.2 1.2 3.3 0 1.1 0.7 2.2 1.5 2.5 0.8 0.4 1.5 1.2 1.5 2 0 0.8 0.4 1.4 0.8 1.4 0.5 0 1.4 1.6 2.2 3.5 0.8 1.9 1.7 3.5 2.2 3.5 0.4 0 0.8 0.7 0.8 1.5 0 0.8 0.4 1.5 0.8 1.5 0.5 0 1.5 1.8 2.2 4 0.7 2.2 1.7 4 2.1 4 0.4 0 1.2 1.2 1.8 2.8 1.2 2.9 3.2 6.4 4.3 7.2 0.3 0.3 1 1.8 1.3 3.3 0.4 1.6 1.4 3.1 2.1 3.4 0.8 0.3 1.4 1.1 1.4 1.9 0 0.8 0.4 1.4 0.9 1.4 0.5 0 1.2 1.3 1.6 2.8 0.3 1.5 1.7 4 3 5.5 1.4 1.4 2.5 3.1 2.5 3.7 0 1 2 5 3 6 0.3 0.3 1.1 1.6 1.8 3 1.5 3.1 3.5 6.3 4.3 7 0.4 0.3 1 1.6 1.4 3 0.4 1.3 1.3 3 1.9 3.7 2.9 3.3 3.6 4.3 3.6 5.5 0 0.7 0.9 2.4 2 3.8 1.1 1.4 2 3.1 2 3.8 0 0.6 0.4 1.2 0.8 1.2 0.5 0 1.4 1.6 2.2 3.5 0.8 1.9 1.7 3.5 2.2 3.5 0.4 0 0.8 0.7 0.8 1.5 0 0.8 0.4 1.5 0.8 1.5 0.4 0 1.4 1.6 2.1 3.5 0.7 1.9 1.6 3.5 2.1 3.5 0.5 0 1.1 1.4 1.5 3 0.4 1.7 1 3 1.5 3 0.5 0 1.2 1 1.6 2.3 0.4 1.2 0.9 2.4 1.3 2.7 1 0.8 4.2 6.3 4.8 8.3 0.3 0.9 0.9 1.7 1.3 1.7 0.5 0 1.4 2.2 2.1 5 0.7 2.7 1.6 5 2.1 5 0.4 0 0.8 1.4 0.8 3 0 1.7 0.5 3 1 3 0.6 0 1 2 1 4.5 0 2.5 -0.4 4.5 -1 4.5 -0.5 0 -1 1.4 -1 3 0 1.7 -0.4 3 -0.9 3 -0.5 0 -1.2 2.1 -1.6 4.6 -0.3 2.5 -1.3 4.8 -2.1 5.1 -0.8 0.3 -1.4 1.2 -1.4 2 0 0.8 -0.7 2.1 -1.5 2.9 -0.8 0.9 -1.5 2.4 -1.5 3.5 0 1.1 -0.6 2.2 -1.4 2.5 -0.8 0.3 -1.8 1.9 -2.1 3.5 -0.4 1.6 -1.1 2.9 -1.6 2.9 -0.5 0 -0.9 0.7 -0.9 1.5 0 0.9 -0.6 1.8 -1.4 2.1 -0.8 0.3 -1.8 1.9 -2.1 3.6 -0.4 1.6 -1.3 3.2 -2.1 3.5 -0.8 0.3 -1.4 1.4 -1.4 2.4 0 1 -0.4 1.9 -0.9 1.9 -0.5 0 -1.5 1.6 -2.1 3.5 -0.6 1.9 -1.6 3.5 -2.1 3.5 -0.5 0 -0.9 0.7 -0.9 1.5 0 0.8 -0.4 1.5 -0.9 1.5 -0.5 0 -1.2 1.3 -1.6 3 -0.4 1.6 -1.2 3.3 -1.9 3.7 -0.7 0.5 -2.3 3.1 -3.6 5.8 -1.3 2.8 -2.7 5.2 -3.1 5.5 -0.4 0.3 -1.3 1.7 -1.8 3 -1.3 2.9 -3.1 5.9 -4.8 7.8 -0.7 0.7 -1.3 2.2 -1.3 3.3 0 1.1 -0.7 2.2 -1.5 2.5 -0.8 0.4 -1.5 1.2 -1.5 2 0 0.8 -0.4 1.4 -0.8 1.4 -0.5 0 -1.4 1.8 -2.1 4 -0.6 2.2 -1.6 4 -2.1 4 -0.4 0 -1.9 2.1 -3.1 4.8 -1.3 2.6 -2.9 5.3 -3.6 6 -0.7 0.7 -1.3 2.2 -1.3 3.2 0 1 -0.7 2 -1.5 2.4 -0.8 0.3 -1.5 1.2 -1.5 2.1 0 0.8 -0.4 1.5 -0.9 1.5 -0.5 0 -1.2 1.4 -1.6 3.1 -0.4 1.7 -1.3 3.3 -2.1 3.6 -0.8 0.3 -1.4 1.1 -1.4 1.9 0 0.8 -0.4 1.4 -0.8 1.4 -0.5 0 -1.4 1.8 -2.1 4 -0.6 2.2 -1.6 4 -2.1 4 -0.4 0 -1.9 2.3 -3.1 5 -1.2 2.8 -2.6 5 -3.1 5 -0.4 0 -0.8 0.7 -0.8 1.5 0 0.8 -0.4 1.5 -0.9 1.5 -0.5 0 -1.2 1.3 -1.6 3 -0.4 1.6 -1.2 3.3 -1.8 3.7 -0.7 0.5 -2.3 2.9 -3.7 5.6 -1.3 2.6 -2.7 4.7 -3.1 4.7 -0.4 0 -0.9 1.3 -1.2 2.9 -0.3 1.6 -1.3 3.6 -2.2 4.4 -0.8 0.9 -1.5 2 -1.5 2.6 0 0.6 -0.4 1.1 -0.8 1.1 -0.4 0 -1.4 1.6 -2.1 3.5 -0.7 1.9 -1.7 3.5 -2.2 3.5 -0.5 0 -0.9 0.7 -0.9 1.5 0 0.8 -0.4 1.5 -0.8 1.5 -0.4 0 -1.4 1.6 -2.1 3.5 -0.7 1.9 -1.7 3.5 -2.2 3.5 -0.5 0 -0.9 0.8 -0.9 1.8 0 1.1 -0.9 2.9 -2 4.2 -1.1 1.3 -2 2.9 -2 3.7 0 0.7 -0.4 1.3 -0.8 1.3 -0.4 0 -1.4 1.6 -2.1 3.5 -0.7 1.9 -1.7 3.5 -2.2 3.5 -0.5 0 -0.9 0.7 -0.9 1.5 0 0.8 -0.4 1.5 -0.9 1.5 -0.5 0 -1.2 1.3 -1.6 3 -0.4 1.6 -1.2 3.3 -1.9 3.7 -0.6 0.5 -2.3 3.1 -3.6 5.8 -1.4 2.8 -2.8 5.2 -3.2 5.3 -0.5 0.2 -0.8 1 -0.8 1.8 0 0.8 -0.4 1.4 -0.9 1.4 -0.5 0 -1.4 1.5 -2.2 3.3 -0.7 1.7 -1.5 3.4 -1.9 3.7 -0.3 0.3 -1.1 1.6 -1.8 3 -1.5 3.2 -3.5 6.4 -4.4 7 -0.3 0.3 -0.9 1.7 -1.3 3.2 -0.4 1.5 -1.3 3.2 -2.1 3.9 -0.8 0.6 -1.4 1.6 -1.4 2.1 0 0.5 -0.7 1.6 -1.5 2.4 -0.8 0.9 -1.5 2.4 -1.5 3.5 0 1.1 -0.7 2.2 -1.5 2.5 -0.8 0.4 -1.5 1.2 -1.5 2 0 0.8 -0.4 1.4 -0.8 1.4 -0.5 0 -1.4 1.6 -2.2 3.5 -0.8 1.9 -1.7 3.5 -2.1 3.5 -0.4 0 -1 1.3 -1.4 2.9 -0.3 1.6 -1.3 3.2 -2.1 3.5 -0.8 0.3 -1.4 1.3 -1.4 2.1 0 0.9 -0.7 2.3 -1.5 3.1 -0.8 0.9 -1.5 2.4 -1.5 3.5 0 1.1 -1.1 2.4 -2.5 3.1 -1.4 0.6 -2.8 2.2 -3.1 3.5 -0.4 1.3 -1.2 2.3 -2 2.3 -0.8 0 -2.4 1.1 -3.6 2.5 -1.2 1.4 -2.7 2.5 -3.3 2.5 -0.6 0 -2 0.8 -3.1 1.8 -2.2 2 -10.7 4.2 -16.4 4.2 -2.1 0 -4.2 0.5 -4.5 1 -0.3 0.6 -2.8 1 -5.6 1 -2.7 0 -4.9 0.4 -4.9 0.8 0 0.5 -6.7 1.5 -15 2.2 -8.2 0.7 -15 1.7 -15 2.2 0 0.4 -2.5 0.8 -5.5 0.8 -3 0 -5.5 0.4 -5.5 0.9 0 0.4 -7 1.4 -15.5 2.1 -8.5 0.7 -15.5 1.6 -15.5 2 0 0.4 -4.5 1.1 -10 1.5 -5.5 0.4 -10 1.1 -10 1.5 0 0.4 -4.7 1.1 -10.5 1.5 -5.8 0.4 -10.5 1 -10.5 1.5 0 0.4 -7 1.3 -15.5 2 -8.5 0.7 -15.5 1.7 -15.5 2.1 0 0.5 -2.2 0.9 -5 0.9 -2.7 0 -5 0.4 -5 0.9 0 0.4 -6.9 1.4 -15.2 2 -8.4 0.7 -15.4 1.7 -15.6 2.2 -0.2 0.5 -2.6 0.9 -5.3 0.9 -2.7 0 -4.9 0.4 -4.9 0.9 0 0.4 -3.9 1.1 -8.7 1.5 -4.9 0.4 -12.3 1 -16.5 1.3 -4.3 0.3 -7.8 0.9 -7.8 1.3 0 0.4 -4.5 1.1 -10 1.5 -5.5 0.4 -10 1.1 -10 1.5 0 0.4 -4.7 1.1 -10.5 1.5 -5.8 0.4 -10.5 1.1 -10.5 1.5 0 0.4 -6.8 1.3 -15 2 -8.3 0.7 -15.3 1.6 -15.6 2.1 -0.3 0.5 -2.7 0.9 -5.5 0.9 -2.7 0 -4.9 0.4 -4.9 0.9 0 0.4 -7 1.4 -15.5 2.1 -8.5 0.7 -15.5 1.7 -15.5 2.1 0 0.5 -2.2 0.9 -5 0.9 -2.7 0 -5 0.4 -5 0.8 0 0.5 -7 1.4 -15.5 2.2 -8.5 0.7 -15.5 1.7 -15.5 2.1 0 0.5 -2.2 0.9 -5 0.9 -2.7 0 -5 0.5 -5 1 0 0.6 -1.6 1 -3.6 1 -6 0 -26.9 2.3 -27.4 3 -0.7 1 -5 1.6 -8.2 1.2z m15.7 -13.6 c5.4 -2.5 10 -7.1 12.2 -12.3 2.4 -5.9 1.3 -17.3 -1.7 -17.3 -0.6 0 -1 1.7 -1 3.8 0 11.3 -11.4 22.2 -23.2 22.2 -4.5 0 -11.9 -2.9 -15.2 -5.8 -1.8 -1.7 -1.8 -1.6 -0.3 1.5 4.7 9.1 18.6 12.9 29.2 7.9z m-105.4 -14 c4.3 -2 9.5 -6.9 11.5 -10.8 0.8 -1.5 1.7 -5.3 2 -8.5 0.5 -4.9 0.3 -6.2 -1.5 -8.3 l-2 -2.5 -0.1 2.9 c-0.1 8.1 -5.7 16.8 -13.4 20.8 -5.9 3.1 -13.7 3 -20.3 -0.3 -5.8 -2.8 -6.5 -2.5 -3 1.3 7 7.5 17.8 9.7 26.8 5.4z m215.5 -0.5 c7.7 -3.5 13.4 -12.6 13.4 -21.5 0 -3.9 -1.4 -7.6 -2.9 -7.6 -0.5 0 -1.1 2.2 -1.5 4.9 -1.5 11 -11.9 20.1 -23.1 20.1 -3.9 0 -6.7 -0.8 -10.9 -3 l-5.7 -2.9 1.9 2.7 c2.8 3.9 5.3 5.9 9.2 7.6 4.9 2.1 14.6 2 19.6 -0.3z m-331.1 -13.5 c4.7 -2.1 10.5 -7.5 10.5 -9.6 0 -0.5 -1.6 0.2 -3.6 1.5 -9.9 6.7 -20.4 5.7 -28.9 -2.9 -5.2 -5.3 -7.5 -10.3 -7.5 -16.7 0 -3.1 -0.1 -3.2 -1.5 -1.3 -2.1 2.8 -1.9 12.9 0.4 18 2.1 4.6 9.1 11.1 13.6 12.3 5.5 1.7 11.8 1.2 17 -1.3z m435.8 0 c11.5 -4.1 18.3 -15.1 16.3 -26.1 -0.9 -4.8 -3.2 -4.5 -4 0.6 -1.2 7.8 -5.2 13.3 -12.6 17.8 -2.7 1.6 -5.2 2.1 -10.6 2.1 -6.1 0 -7.6 -0.4 -11.7 -3 l-4.7 -3 1.5 2.9 c4 7.8 16.5 12 25.8 8.7z m-544.4 -16.2 c6.2 -1.8 12.7 -7.3 15.2 -12.9 2.6 -5.6 2.5 -13.6 -0.1 -16 -2 -1.8 -2 -1.7 -2 1.6 0 4.4 -3.9 12.6 -7.6 16.1 -7.1 6.7 -18.2 7.8 -27.2 2.7 l-5.4 -3.1 2 2.9 c3 4.3 5.2 6 10.7 8.2 6.1 2.5 7.7 2.5 14.4 0.5z m656.1 -1.2 c7.1 -3.5 11.6 -9.9 12.5 -17.7 0.6 -4.4 0.4 -6 -1.1 -8.2 l-1.8 -2.8 -1.1 5 c-2.6 11.2 -9.4 18.1 -19.8 20 -4.5 0.9 -12.8 -1 -16.2 -3.7 -3.8 -3 -4.1 -1.5 -0.5 2.5 7 8.1 17.9 10 28 4.9z m-773.2 -18.2 c6 -1.4 11.5 -5.2 14.2 -9.7 1.8 -3.2 1.9 -3.5 0.4 -2.2 -9.7 8.5 -25.6 7.6 -33.4 -1.9 -3.1 -3.8 -6 -11 -6 -15 0 -2.1 -0.2 -2.2 -1.5 -1.2 -1 0.8 -1.5 3.1 -1.5 6.9 0 10.9 7.5 20.6 17.7 23 5.1 1.2 5.2 1.2 10.1 0.1z m877 -0.6 c9.6 -3.1 15.4 -10.1 16.8 -20.1 0.6 -4.9 -0.6 -9.3 -2.6 -9.3 -0.4 0 -1.3 2 -1.8 4.4 -1.5 7.3 -5.7 13.2 -11.5 16.7 -4.7 2.7 -5.9 3 -12.3 2.7 -5.8 -0.3 -7.9 -0.8 -11.3 -3.1 l-4.2 -2.8 1.5 3 c1.9 3.6 6.5 7 11.9 8.7 5.6 1.7 7.6 1.7 13.5 -0.2z m-389.1 -8.3 c26.8 -3.9 90.2 -12.9 140.8 -20 50.6 -7.2 95.2 -13.5 99 -14.1 3.9 -0.6 30.4 -4.4 58.9 -8.5 47.8 -6.8 52.5 -7.7 58 -10.4 13.1 -6.5 5 6.7 128.3 -207.5 7.9 -13.7 15.3 -27.5 16.3 -30.7 2.7 -8 2.7 -19 -0.1 -26.5 -1.2 -3.2 -29.4 -52.9 -62.7 -110.6 -66 -114.6 -64.2 -111.7 -77.1 -118.1 l-6.6 -3.2 -409 0 -409 0 -7 3.4 c-13.1 6.5 -11.7 4.3 -73.5 111.6 -31 53.9 -58.6 101.9 -61.2 106.6 -7.8 13.8 -9.3 25.9 -4.9 37.9 1 2.5 8.9 16.9 17.6 32 75.1 130.6 110.2 191.1 112.7 194.2 3.8 4.9 13.8 11.5 20.2 13.3 2.8 0.8 27.6 4.6 55.1 8.5 27.5 3.9 52.7 7.5 56 8 3.3 0.5 38.2 5.5 77.5 11.1 39.3 5.5 102.1 14.5 139.5 19.8 37.4 5.4 71.2 9.9 75.2 10 4.2 0 27.3 -2.8 56 -6.8z m-548.9 -89 c3.8 -1.9 8.2 -6.4 8.2 -8.2 0 -0.4 -1.9 0.3 -4.2 1.6 -3.4 1.9 -5.7 2.5 -10.8 2.5 -13.5 -0.1 -20.4 -6.4 -23.5 -21.5 -0.6 -2.9 -0.7 -2.9 -2.2 -1 -2.2 3 -1.1 12.4 2.1 17.9 6.1 10.4 19.5 14.2 30.4 8.7z m1008.8 -0.6 c2.4 -1.4 5.5 -4.1 7 -6.1 2.7 -3.5 5.7 -12.3 4.9 -14.7 -0.2 -0.7 -0.6 -2.4 -0.9 -3.9 -1 -4.3 -3.6 -3.6 -3.6 1 0 6 -5 13.6 -11.3 17.2 -8.3 4.8 -19.3 4 -25.9 -1.8 -2.6 -2.2 -2.2 -0.4 0.8 3.5 6.2 8.1 19.6 10.3 29 4.8z m-1063.2 -95.9 c2.4 -1.4 5.3 -4.1 6.5 -6.1 1.7 -3 1.8 -3.4 0.3 -2.5 -7.9 4.9 -8.8 5.2 -14.6 5.2 -6.9 0 -10.2 -1.1 -15.1 -4.8 -4.3 -3.3 -8.5 -11.6 -8.5 -16.8 0 -3.8 -0.1 -3.9 -1.7 -2.3 -2.1 2.1 -2.3 10.7 -0.4 15.7 2 5 6.8 9.9 12.6 12.7 6.5 3.1 14.4 2.7 20.9 -1.1z m1115.1 2 c5.9 -2.5 10.3 -6.5 13 -11.9 3.1 -6.3 3.3 -13.1 0.5 -16.7 l-2 -2.5 0 2.9 c0 8 -5.7 16.9 -13.3 20.7 -6 3.1 -16.8 2.4 -22.6 -1.4 l-4.2 -2.8 1.5 3 c4.1 7.9 18.2 12.4 27.1 8.7z m-1163.1 -95.8 c3.9 -1.2 11.6 -7.7 11.6 -9.8 0 -0.6 -2.1 0.2 -4.7 1.7 -3.8 2.2 -5.9 2.7 -11.4 2.7 -5.7 0 -7.4 -0.4 -11.5 -3 -6.1 -3.7 -10.5 -10.6 -11.2 -17.4 -0.4 -4.1 -0.7 -4.8 -1.8 -3.9 -4.3 3.6 -2.2 16 4 22.7 6.9 7.6 15.2 9.9 25 7z m1211.1 -0.7 c5 -2.3 9.9 -7.4 12.1 -12.6 2.2 -5.3 2.3 -13 0.1 -15.2 -1.5 -1.5 -1.7 -1.4 -2.3 2.3 -1.5 9.6 -8.8 18.1 -17.5 20.4 -5.2 1.4 -12.2 0.3 -17.6 -2.7 -2.4 -1.3 -4.3 -1.9 -4.3 -1.4 0 1.6 8.8 8.8 12.2 9.8 5.3 1.7 12.9 1.4 17.3 -0.6z m-1160.5 -97.6 c2.8 -1.4 5.6 -3.8 6.8 -5.8 l2 -3.5 -5.5 2.9 c-14.3 7.5 -31.8 -1.4 -33.9 -17.2 -1.1 -8 -3.4 -5.8 -3.4 3.2 0 6.1 2.1 11.4 6.3 15.7 7.9 8.3 17.4 9.9 27.7 4.7z m1114 0 c4 -2.1 9.5 -8.8 10.8 -13.4 2 -6.7 1.1 -14.4 -1.6 -12.8 -0.5 0.4 -1.5 2.7 -2.2 5.2 -3 10.6 -11.9 17.5 -22.9 17.5 -4.2 0 -6.6 -0.7 -10.8 -3 l-5.4 -3.1 1.6 3 c4.3 8.4 20.4 11.8 30.5 6.6z m-1056.8 -95.8 c2.4 -1.4 5.1 -3.9 6.1 -5.6 l1.8 -3 -5.2 2.6 c-3.8 2 -6.7 2.7 -10.8 2.8 -7.7 0 -10.5 -1 -15.2 -5.2 -4.7 -4.2 -7.6 -9.4 -8.5 -15.2 -1.1 -6.8 -3.4 -4.6 -3.4 3.2 0 9.4 4.9 17.4 13.2 21.6 5.9 3 15.8 2.5 22 -1.2z m1001.2 -0.1 c2.5 -1.5 5.7 -4.3 7.1 -6.3 3.2 -4.8 5.1 -13.2 3.9 -17.4 -1.3 -4.7 -3.2 -4.7 -3.9 -0.2 -1 6.1 -2.7 9.5 -6.9 14.1 -7.8 8.5 -22.1 9.4 -30.4 1.8 -2.2 -2 -2.3 -2 -1.6 -0.1 1.1 3.3 5.6 7.6 9.9 9.7 5.8 2.7 15.7 2 21.9 -1.6z m-942.5 -88.5 c3.5 -1.8 9.7 -7.9 8.8 -8.7 -0.1 -0.2 -2.5 0.8 -5.2 2.1 -15.1 7.7 -33.5 -3 -33.5 -19.4 0 -5.3 -0.1 -5.4 -1.7 -3.8 -2.5 2.4 -2.4 13.8 0.1 18.7 6.3 12.2 19.8 17 31.5 11.1z m110.4 1.5 c10.1 -3 16.7 -11.5 16.7 -21.5 0 -5.3 -1.3 -9.1 -3 -9.1 -0.6 0 -1 1.7 -1 3.8 -0.1 4.9 -2.9 10.9 -7.1 14.9 -7.5 7.1 -17.8 8.3 -27.3 3.3 -4.5 -2.3 -5.4 -2.6 -4.6 -1.1 1.6 3 7.6 7.8 11.2 8.9 7.8 2.5 9.3 2.5 15.1 0.8z m102.7 0.3 c6 -1.3 11.2 -4.9 13.9 -9.4 l2.1 -3.7 -2.7 2.2 c-9 7.1 -22.7 6.7 -30.7 -0.8 -3.5 -3.3 -7.6 -11.7 -7.6 -15.5 0 -1.9 -0.4 -2.7 -1.2 -2.5 -0.8 0.3 -1.4 2.8 -1.6 6.7 -0.2 5.1 0.1 7 2.4 11.1 3.1 5.8 7.9 9.7 13.8 11.6 5.1 1.6 6 1.6 11.6 0.3z m115.9 -0.5 c6.9 -2 13.4 -8 15.5 -14.1 2.1 -6.2 2 -11.6 -0.3 -14.4 l-1.9 -2.3 -0.7 5.1 c-0.9 6.5 -4.9 12.9 -10.5 16.8 -4 2.7 -5.1 3 -12.6 3 -7.7 0 -8.5 -0.2 -12.9 -3.3 l-4.7 -3.3 2.9 3.8 c4 5.4 6.2 7.1 11.3 8.7 5.9 1.9 7.6 1.9 13.9 0z m109.4 0.2 c10.1 -3.7 15.6 -10.6 16.4 -21 0.5 -5.3 0.3 -6.3 -1.6 -8 -2.1 -1.9 -2.1 -1.9 -2.1 0.9 0 4.8 -2.2 10.4 -5.7 14.4 -7.2 8.5 -18.3 10.5 -28.6 5.3 -5.7 -2.9 -5.8 -2.6 -1.2 2.6 5.1 5.9 15.3 8.4 22.8 5.8z m114.1 -2.5 c7.2 -4 10.9 -9.7 11.4 -17.5 0.4 -6.1 -0.8 -10.6 -2.8 -10.6 -0.6 0 -1 1.7 -1 3.8 -0.1 7.6 -6.4 16.4 -14.2 19.6 -7.1 3 -17.9 1.5 -23.2 -3.2 -1.8 -1.7 -1.8 -1.6 -0.2 1.6 1.9 3.6 8 8 12.8 9.3 5 1.2 11.8 0 17.2 -3z m104.4 2.4 c6.2 -1.9 11.5 -6.3 14.4 -11.8 2.6 -5.1 2.9 -15 0.5 -17.4 -1.4 -1.4 -1.6 -1.2 -2.2 3 -0.4 2.6 -2.1 7 -3.9 9.9 -7 11.8 -24.5 14.6 -34.5 5.5 l-2.5 -2.2 2.1 3 c3.8 5.4 8.1 8.8 13 10.1 6.3 1.7 7 1.7 13.1 -0.1z m113.1 -1.5 c8 -4.1 13.1 -12.5 13.1 -21.5 0 -2.8 -0.6 -4.7 -1.9 -5.9 -1.8 -1.7 -1.9 -1.6 -2.6 3.3 -0.9 6.4 -5.2 13.2 -10.6 16.8 -3.8 2.5 -5.1 2.8 -12.5 2.8 -7.7 0 -8.6 -0.2 -12.8 -3.2 l-4.6 -3.3 2.5 3.8 c2.5 3.8 7.9 7.5 13.3 9.3 3.8 1.2 11.8 0.1 16.1 -2.1z m108.9 0.1 c5.2 -2.8 9.1 -6.7 11.3 -11.5 1.8 -4 2.5 -11.9 1.3 -15 -0.9 -2.3 -3.4 -1.9 -3.4 0.5 0 7.4 -6.3 16.8 -13.4 20 -6.1 2.8 -15 2.5 -20.5 -0.6 -5.4 -3.1 -6.4 -2.5 -2.5 1.6 7.3 7.7 18.2 9.7 27.2 5z"/>
  <path d="M366.5 504.9 c-8.1 -1.2 -21.9 -5.2 -29 -8.4 -13.4 -6.2 -34.5 -21.4 -46.3 -33.5 -25.8 -26.3 -37.7 -64.6 -31.7 -101.7 5.5 -33.9 28.9 -65.6 60.9 -82.7 32.5 -17.3 76 -17.2 107.6 0.1 8.1 4.5 27.4 18.9 35.8 26.7 17.6 16.5 31 41.5 35.7 67.1 2.5 12.9 1.6 33.5 -1.8 46.7 -4.1 15.6 -13.8 34.3 -23.2 44.7 l-3.7 4.1 5.5 6.3 c8 9.1 22.6 23.8 27.2 27.5 l4 3.1 -29.5 0 -29.5 0.1 -6.3 -5 -6.3 -4.9 -6.8 2.8 c-7.9 3.3 -16.7 5.6 -26.6 7.1 -8.3 1.1 -27.5 1.1 -36 -0.1z m16.1 -64.7 c1.9 -0.6 -0.1 -3.1 -16.2 -20.7 l-18.4 -20 29.6 -0.3 29.6 -0.2 6.5 5.1 c3.5 2.8 6.6 4.9 6.7 4.7 1.5 -1.9 4 -15.5 4.4 -23.8 0.6 -13.9 -1.5 -24.7 -6.9 -35.6 -6.8 -13.6 -12.7 -17.3 -29.5 -18.2 -20 -1 -33.9 5.9 -44.5 22.1 -6 9.2 -8.9 19.2 -9.6 32.7 -0.7 13.8 0.6 22.5 4.9 32.8 5.6 13.4 11.5 18.8 23.3 21.2 4.8 0.9 17.2 1.1 20.1 0.2z"/>
  <path d="M607.2 505 c-9.9 -1.4 -20.4 -4.6 -29.6 -9.1 -9.8 -4.8 -31.6 -20.8 -37.7 -27.7 -13.9 -15.8 -22.1 -34.8 -26.4 -61.2 -1.2 -7.8 -1.5 -21.1 -1.5 -74.7 l0 -65.3 31.4 0 31.4 0 5.8 4.6 5.9 4.5 0.5 66.7 c0.6 64.8 0.6 66.9 2.8 74.5 2.4 8.6 6.2 16.5 9.7 19.7 5 4.7 22.6 4.9 32.2 0.4 9.1 -4.4 17.3 -16.9 20.9 -31.9 1.5 -6.1 1.8 -15.4 2.1 -72.7 l0.4 -65.8 31.4 0 31.4 0 6.1 5.1 6.1 5.1 -0.4 68.1 c-0.4 65.1 -0.5 68.7 -2.5 78.1 -9.7 45.1 -33.5 71.2 -73.2 80.2 -7.7 1.8 -37.7 2.7 -46.8 1.4z"/>
  <path d="M759.2 500 l-6.2 -5.1 0 -113.9 0 -114 31.3 0 31.3 0 6.2 4.6 6.2 4.6 0 114.4 0 114.4 -31.3 0 -31.2 0 -6.3 -5z"/>
  <path d="M850.2 500.3 l-6.2 -4.8 0 -23.6 0 -23.6 17.8 -21.9 c30.6 -37.7 62.3 -76.5 70 -85.9 l7.5 -9 -39.9 -0.5 -39.9 -0.5 -5.6 -4.2 c-4.2 -3.3 -5.5 -4.8 -5.3 -6.5 0.1 -1.3 0.3 -13.7 0.3 -27.5 l0.1 -25.3 86.8 0 86.8 0 5.9 4.8 6 4.8 0.3 23.1 0.2 23.1 -29 38.2 c-16 20.9 -36.1 47.2 -44.6 58.3 l-15.4 20.2 39.2 0.3 39.3 0.3 5.8 4.7 5.8 4.7 0.2 27.5 0.2 27.5 -90 0.3 -90.1 0.2 -6.2 -4.7z"/>
  <path d="M427.5 227.1 c-6.7 -2.8 -7 -8.4 -1.1 -20.8 8.8 -18.5 29.4 -37.5 55.7 -51.2 20.1 -10.6 26.7 -8.8 18 4.7 -4.4 6.7 -8.5 10.2 -10.2 8.5 -0.8 -0.8 0 -2.3 2.3 -4.9 4.8 -5.4 8.1 -10.4 7.4 -11.1 -1.1 -1.1 -10.3 1.9 -18.2 6.1 -23.9 12.7 -50.1 39.4 -54.4 55.3 -1.9 7.3 -0.1 8.8 10 8.3 3.7 -0.1 15.6 -3.5 17.4 -4.9 0.6 -0.4 3.8 -1.8 7.1 -3.1 14.3 -5.7 31.3 -16 39.9 -24.2 8.8 -8.5 8.2 -10 -2.5 -6.4 -16.8 5.7 -25.9 9 -34.9 12.6 -16.4 6.6 -19.8 7.6 -21.2 6.2 -2.7 -2.7 3.4 -7.8 17.7 -14.7 16.9 -8.2 34.8 -12.6 45.2 -11.1 3.2 0.4 7.5 -0.1 14.7 -1.9 20.9 -5 25.4 -5.7 40.7 -6.2 15.1 -0.5 15.7 -0.5 17.8 1.6 2.2 2.2 2.2 2.3 0.4 5.4 -1.1 1.8 -2.9 3.3 -4.1 3.5 -2.5 0.4 -2.7 -0.1 -0.9 -2.8 1.7 -2.8 0.1 -3.7 -8.2 -4.5 -11 -1.1 -27.2 1 -47.7 6 -7.1 1.8 -7.2 1.8 -7.8 5.5 -0.4 2.8 -1.9 5 -6 8.8 -11.6 11 -40.6 27.5 -58.9 33.6 -7.7 2.6 -14.4 3.2 -18.2 1.7z m38.5 -35.8 c5.2 -1.9 14.5 -5 20.5 -6.9 17.4 -5.6 16.6 -5.2 12.9 -5.3 -4.5 -0.1 -20.8 4.2 -29 7.7 -6.7 2.8 -20.1 10.2 -15.9 8.7 1.1 -0.4 6.3 -2.3 11.5 -4.2z"/>
  <path d="M823.2 213.3 c-3.1 -0.6 -3.8 -2.9 -1.7 -5.3 1.9 -2.1 7.8 -3.6 17.8 -4.6 3.7 -0.3 7 -1.1 7.3 -1.6 0.9 -1.4 -2.1 -4.3 -6.5 -6.3 -3.8 -1.7 -4 -1.7 -7 0.6 -3.7 2.7 -5.3 1.8 -2.4 -1.4 1.2 -1.2 2.8 -3.9 3.6 -5.9 1.9 -4.6 4.7 -6.3 7.3 -4.4 1.6 1.2 1.7 1.8 0.6 4 -0.7 1.5 -1.7 2.4 -2.2 2.1 -0.6 -0.4 -0.7 -1.1 -0.4 -1.7 0.4 -0.7 0.2 -0.8 -0.4 -0.4 -2.1 1.3 -1.3 2.5 3.1 4.7 5.8 2.9 7.7 4.8 7.7 7.6 l0 2.3 14.3 0 c15.2 0 18.7 0.9 17.4 4.5 -0.7 1.6 -0.9 1.6 -3.1 0.2 -3.6 -2.4 -29 -2.6 -31.5 -0.3 -4.1 3.8 -17.9 7.1 -23.9 5.9z m13.3 -5.3 c1.8 -0.8 1.8 -0.9 -0.5 -0.9 -1.4 0 -3.2 0.4 -4 0.9 -1.2 0.8 -1.2 1 0.5 0.9 1.1 0 2.9 -0.4 4 -0.9z"/>
  <path d="M652 205.2 c0 -1.1 1.4 -4.6 3 -7.9 3.3 -6.5 7.4 -10.3 9.3 -8.4 0.8 0.8 0.1 2.3 -2.3 5.3 -1.9 2.4 0 0.9 4.1 -3.3 7.5 -7.8 11.2 -10 13.2 -8 0.8 0.8 0.1 3.1 -2.6 8.6 -2 4.1 -3.3 7.5 -2.9 7.5 0.5 0 2.1 -1.4 3.8 -3.1 1.6 -1.7 3.7 -3.5 4.7 -4 1.6 -0.9 1.7 -0.6 1.1 4.2 l-0.7 5.1 3.4 -0.7 c1.9 -0.4 5.3 -1.9 7.7 -3.3 3 -1.7 4.7 -2.1 5.4 -1.4 1.9 1.9 -6.7 6.5 -13.2 7 -5.6 0.4 -5.7 0.3 -6.4 -2.3 l-0.7 -2.8 -3.3 3.7 c-7 7.6 -8.6 3.3 -3.1 -8.3 1.9 -4 3.5 -7.5 3.5 -7.7 0 -1.7 -6.1 4.3 -12.5 12.2 -4.9 6.1 -8.2 9.4 -9.5 9.4 -1.3 0 -2 -0.7 -2 -1.8z"/>
  <path d="M568.5 201.9 c-1.4 -2.2 0.6 -7.6 4.3 -11.1 4.9 -4.7 7.7 -6.1 11 -5.3 1.7 0.3 3.5 0 4.7 -0.9 4.8 -3.7 6.2 0.3 2 5.8 -3 3.9 -3.1 5.2 -0.6 6.5 1.4 0.8 3 0.5 6.7 -1.4 5.4 -2.7 6.6 -2.5 3.8 0.6 -4.6 5.1 -11.2 6.3 -14.1 2.6 l-1.7 -2.4 -4.7 3.4 c-4.7 3.3 -10.1 4.4 -11.4 2.2z m8.2 -4.1 c7.1 -4 9.7 -7.8 5.4 -7.8 -2.5 0 -10.5 6.1 -10.9 8.3 -0.5 2.3 0.9 2.1 5.5 -0.5z"/>
  <path d="M752.5 202.1 c-1.7 -2.8 2.5 -9 9.9 -14.9 3.5 -2.7 5.2 -2.8 6.6 -0.2 1.7 3.2 -0.5 5.9 -7.6 9.1 -3.5 1.6 -6.4 3.2 -6.4 3.5 0 1.2 8.7 -0.9 14.3 -3.3 5.8 -2.6 8.7 -2.5 5.1 0.2 -5.2 4 -20.5 7.8 -21.9 5.6z m14 -12.1 c1.2 -1.9 -1.2 -1 -3.1 1.1 -1.9 2.2 -1.9 2.2 0.3 1 1.2 -0.6 2.5 -1.6 2.8 -2.1z"/>
 </g>
 <g fill="#ffd108">
  <path d="M642.4 697.9 c-5.1 -1.2 -11.7 -6.7 -14.7 -12.3 -3.2 -6.1 -3 -15.7 0.6 -21.8 3.3 -5.7 8.6 -10.4 13.2 -11.7 4.1 -1.1 13.7 0.1 16.4 2.1 9.2 6.9 12.5 12.8 12.5 21.9 0 10.8 -5.7 18.4 -16.1 21.5 -5.2 1.6 -6.1 1.6 -11.9 0.3z"/>
  <path d="M538.7 683.8 c-5.5 -1.1 -8.9 -3.2 -12.9 -7.6 -4.7 -5.2 -6.2 -10 -5.5 -17.4 0.7 -7.7 4.6 -14.2 11.1 -18.5 7.8 -5.3 16.9 -4.3 24.9 2.7 6.6 5.9 9 11.4 8.5 19.9 -0.3 5.3 -0.9 7.7 -3.1 11 -5 7.6 -14.5 11.7 -23 9.9z"/>
  <path d="M750.7 682.7 c-9.6 -3 -16.4 -13.3 -15.4 -23.6 0.8 -8.8 5.9 -17.2 12.6 -20.6 4.1 -2.1 13.6 -2.4 17.1 -0.5 13.6 7.1 19 21.9 12.4 34 -5.3 9.8 -15.9 14 -26.7 10.7z"/>
  <path d="M430.3 669.9 c-11.3 -2.1 -18.5 -10.7 -18.5 -22 0 -7.4 3 -13.8 8.5 -18.3 8.5 -6.8 14.2 -8.1 22.8 -5.1 5.7 2 8.6 4.9 11.5 11 4.4 9.3 2.8 20.3 -3.9 27.3 -5.8 6.1 -12.8 8.5 -20.4 7.1z"/>
  <path d="M856.5 667.1 c-13 -5.9 -17.4 -21.5 -9.6 -34.3 4.3 -7.1 8.4 -9.8 15.8 -10.5 7 -0.6 11.5 1.1 17.5 6.5 5.3 4.8 7.8 10.2 7.8 17.5 0 9.7 -5.2 17.6 -14.3 21.5 -4.1 1.8 -12.6 1.4 -17.2 -0.7z"/>
  <path d="M966.9 652.5 c-13.6 -4.3 -19.9 -20 -13.3 -33.3 5 -10.1 13.2 -14.4 23.1 -12.2 17.4 3.9 25.1 25 14.1 38.5 -5.7 6.8 -15.4 9.7 -23.9 7z"/>
  <path d="M313.4 651.6 c-13.3 -5.8 -18.3 -22.3 -10.4 -34.7 4.9 -7.6 9 -10.2 16.5 -10.7 7.5 -0.5 11.3 1.1 17.3 7 5.5 5.4 7.6 11 7 19.2 -0.3 5.2 -1 7.4 -3.4 10.8 -5.6 8.2 -18.4 12.1 -27 8.4z"/>
  <path d="M202.9 630.2 c-7.1 -3.7 -11.1 -10 -11.7 -18.2 -0.5 -7.3 1.1 -12.2 5.6 -17.2 10.5 -11.6 27.2 -11.7 35.1 -0.3 6.8 10 5.3 24.7 -3.3 32.3 -7.9 6.9 -16.7 8.1 -25.7 3.4z"/>
  <path d="M1072.5 631.1 c-12.4 -5.7 -17.2 -20.8 -10.6 -33.2 4 -7.7 9.3 -11.2 17.5 -11.7 5.5 -0.4 7 -0.1 11 2.3 14.4 8.5 18 25.4 7.8 36.7 -6.8 7.5 -17.1 9.9 -25.7 5.9z"/>
  <path d="M137 534.9 c-5.8 -2.6 -7.7 -4.4 -10.6 -10.1 -4.7 -9.2 -2.4 -21.1 5.4 -27.9 15 -13.2 34 -6.8 37.2 12.4 1.7 10.4 -3.7 20.9 -13.1 25.8 -5 2.5 -13.1 2.5 -18.9 -0.2z"/>
  <path d="M1136.3 534 c-12.6 -7.2 -15.4 -21.7 -6.8 -34.7 6.2 -9.4 16 -11.9 26.3 -6.7 14.7 7.3 18.8 25.1 8.4 36.6 -7.5 8.4 -18.4 10.2 -27.9 4.8z"/>
  <path d="M369.5 505 c-8.7 -1.1 -18.4 -3.5 -27.2 -7 -22.3 -8.6 -51.6 -32.2 -64.4 -51.7 -31.2 -47.8 -25.3 -106.9 14.6 -146.8 23.1 -23.2 52.5 -34.5 86.5 -33.2 28.3 1.1 44 7.1 70 27 18.9 14.6 31.6 29.6 40.4 48 14.7 30.8 15.2 66.5 1.3 96.8 -3.5 7.6 -12.9 22.3 -17.5 27.1 -2.5 2.7 -2.5 2.8 -0.6 5 7.5 8.9 25.4 27.4 29 30 2.4 1.7 4.4 3.4 4.4 3.7 0 0.3 -13.1 0.5 -29.1 0.4 l-29 -0.3 -5.9 -4.6 -5.9 -4.6 -7.8 3.1 c-18 7 -38.8 9.5 -58.8 7.1z m15.5 -64.7 c0 -0.5 -8.3 -9.8 -18.4 -20.8 l-18.3 -20 29.3 -0.3 29.4 -0.2 6.2 5 c3.4 2.7 6.5 5 6.9 5 1.7 0 4.1 -12.5 4.6 -24.1 0.8 -18.5 -1.7 -29.1 -9.9 -41.7 -6 -9.3 -14.4 -12.6 -30.8 -12.4 -27 0.3 -45.9 19.5 -49.9 50.8 -2.6 19.5 3.8 42.3 14.6 52.6 4.6 4.4 13.3 6.6 25.6 6.7 5.9 0.1 10.7 -0.2 10.7 -0.6z"/>
  <path d="M609 505 c-18.5 -2.3 -33.3 -8.7 -51 -21.8 -28.1 -20.9 -40.3 -43.2 -44.5 -81.2 -1.2 -10.9 -1.5 -25.2 -1.3 -73.8 l0.3 -60.3 30.8 0.1 c16.9 0 31.1 0 31.6 0 0.5 0 3.4 2 6.5 4.5 l5.5 4.5 0.4 67.3 c0.3 60.7 0.5 67.8 2.1 73.1 1.8 6 6.2 15.4 8.9 19 3.6 4.8 20.5 6.2 30.4 2.4 7.6 -2.8 15.4 -10.6 19.3 -19.1 6.6 -14.5 6.3 -11.7 6.9 -85 l0.6 -66.8 30.8 0.1 c16.9 0 31.1 0 31.6 0 0.5 0 3.5 2.1 6.6 4.6 l5.7 4.7 -0.5 66.6 c-0.4 62.1 -0.6 67.3 -2.5 77.6 -5.1 26.5 -14.6 45.3 -30.5 60.1 -12.2 11.3 -24.3 17.5 -42.4 21.4 -11.3 2.5 -33.3 3.4 -45.3 2z"/>
  <path d="M944.9 504 l-89.7 -0.5 -5.6 -4 -5.6 -4 0 -23.5 0.1 -23.5 17.5 -21.5 c9.7 -11.8 30.9 -37.9 47.2 -57.9 16.3 -20 29.9 -36.7 30 -37.2 0.2 -0.5 -16.3 -0.9 -39 -0.9 l-39.4 0 -5.7 -4.2 -5.6 -4.3 -0.1 -27.5 0 -27.5 87.1 0.3 87 0.2 5.5 4.1 5.4 4.1 0 23.8 0 23.7 -16.6 21.9 c-9.2 12 -20.1 26.4 -24.3 31.9 -4.2 5.5 -15.1 19.7 -24.1 31.5 -9 11.8 -18.1 23.6 -20.2 26.1 -2.1 2.6 -3.8 5 -3.8 5.3 0 0.3 18 0.6 40 0.6 l40.1 0 5.4 4.1 5.5 4.1 0 27.4 c0 15 -0.3 27.4 -0.7 27.6 -0.5 0.2 -41.1 0.1 -90.4 -0.2z"/>
  <path d="M759 499.5 c-3 -2.5 -5.5 -4.9 -5.4 -5.5 0.1 -0.5 0.2 -51.7 0.3 -113.7 l0.1 -112.8 31.2 0.2 31.1 0.2 5.9 4.2 5.8 4.2 0 113.9 0 113.8 -31.7 0 -31.8 -0.1 -5.5 -4.4z"/>
  <path d="M80.9 439 c-7.5 -3.9 -12.9 -12.9 -12.9 -21.1 0.1 -8 6.9 -17.4 15.5 -21.5 6.3 -3 11.6 -3 18.1 0 8 3.7 11.9 10.9 11.9 21.6 -0.1 9.9 -5.2 17.9 -13.7 21.4 -5.2 2.2 -14.4 2 -18.9 -0.4z"/>
  <path d="M1193.5 439.1 c-14.2 -6.6 -17.7 -24.9 -7.3 -37.5 8.1 -9.9 21.3 -9.9 31.6 -0.2 4.1 3.8 5.8 6.9 7.2 13.1 2.1 9.4 -3.6 20.6 -12.5 24.6 -5.2 2.4 -13.8 2.4 -19 0z"/>
  <path d="M39 344.3 c-4 -1.4 -9.4 -6.1 -11.8 -10.2 -2.2 -3.8 -2.7 -5.8 -2.7 -11.1 0.1 -7.7 2.5 -13 8.1 -18 8.2 -7.2 16.3 -8.7 24.9 -4.6 6.3 2.9 7.7 4.6 10.5 12.4 4.4 12.2 -0.1 24.6 -11.2 30.3 -3.6 1.8 -14 2.6 -17.8 1.2z"/>
  <path d="M1238.9 343 c-7.7 -4.1 -12.2 -12.1 -12.1 -21.3 0.1 -4.7 0.8 -7 3.7 -12.2 3 -5.5 4.3 -6.7 9 -9.1 8.9 -4.3 17 -2.6 24.7 5.2 8.2 8.2 10 17.8 5.1 27.5 -1.9 3.5 -4.3 6.4 -7.1 8.4 -3.8 2.6 -5.4 3 -12 3.3 -6.1 0.2 -8.4 -0.2 -11.3 -1.8z"/>
  <path d="M87.6 248 c-4.4 -1.4 -9.4 -5.1 -12.3 -9.4 -3.5 -5 -4.4 -14.5 -1.8 -21.1 2.3 -6 10.1 -12.9 17.1 -15.2 5.1 -1.6 5.7 -1.6 10.8 0 2.9 1 6.6 2.7 8 3.8 6.1 4.8 9.2 17.2 6.5 26.6 -1.7 6.1 -8.7 13.3 -14.5 15.1 -4.7 1.4 -9.6 1.4 -13.8 0.2z"/>
  <path d="M1193 247.7 c-4.9 -1.6 -12.3 -9.3 -13.8 -14.3 -2.9 -9.7 0 -19.7 7.6 -26.6 8.2 -7.4 18.8 -6.9 27.9 1.5 8.9 8.2 10.9 17.9 5.8 28.2 -4.9 10.1 -16.3 14.7 -27.5 11.2z"/>
  <path d="M145 153.1 c-10.7 -3.3 -17 -11.6 -17 -22.3 0.1 -16.3 17.4 -28.6 32 -22.9 15.1 6 17.8 30.5 4.6 40.6 -5.8 4.4 -13.9 6.3 -19.6 4.6z"/>
  <path d="M1139.4 153.1 c-10.5 -2.6 -17.4 -11.8 -17.4 -23 0.1 -14.3 11.7 -25.5 24.4 -23.6 14.3 2.2 24.7 19.8 19.3 32.8 -4.3 10.1 -16.2 16.3 -26.3 13.8z"/>
  <path d="M201.5 62.1 c-5.3 -2.4 -11.1 -9 -12.6 -14.3 -3.3 -12.2 4.3 -25.8 16.8 -29.9 5.7 -1.8 13.7 -0.7 18.6 2.7 10.1 7 12.2 24.3 4.3 34.7 -5.9 7.7 -18.3 10.9 -27.1 6.8z"/>
  <path d="M310.5 62.8 c-7.6 -2.7 -13.8 -10.4 -15 -18.9 -0.8 -5.7 0.5 -10.6 4.6 -17.4 5.1 -8.4 13.8 -11.4 24.2 -8.3 6 1.8 13.2 9.3 15.1 15.8 2.2 7.3 2 10.6 -0.8 16.6 -5 10.8 -17.1 16 -28.1 12.2z"/>
  <path d="M419.5 61.9 c-8.5 -4.5 -12.5 -10.9 -12.5 -20.2 0 -10 4.8 -17.5 14.2 -22.3 11.8 -6 25.7 -0.3 29.3 12 2.9 9.7 1.5 18.4 -4.1 24.6 -7 7.7 -18.6 10.3 -26.9 5.9z"/>
  <path d="M527.5 62.1 c-11.9 -5.5 -16.8 -19.5 -11.1 -31.6 4.4 -9.3 10.3 -13.5 19.1 -13.5 6 0 10.4 1.9 15.9 7 8.4 7.8 10.1 19.8 4 29.6 -5.6 9.1 -18.2 13 -27.9 8.5z"/>
  <path d="M638.5 62.9 c-4.9 -1.4 -11 -7.3 -13.5 -13.1 -3.8 -8.9 -2 -18.2 5.2 -26.3 7.7 -8.9 20.8 -8.7 30.1 0.3 6.8 6.6 9.3 14 7.6 22.4 -2.8 12.9 -16.3 20.6 -29.4 16.7z"/>
  <path d="M746.3 62.5 c-11.7 -5 -17.3 -20.7 -11.5 -32 6.4 -12.5 17 -16.6 28.8 -11.1 15.7 7.3 18.9 28.1 6 39.4 -5.8 5 -16.4 6.7 -23.3 3.7z"/>
  <path d="M855.5 62.1 c-12.5 -5.7 -17.3 -20.6 -10.7 -33.2 3.7 -7.1 9.3 -11.1 16.6 -11.7 6.8 -0.5 11.2 0.9 16.6 5.5 11 9.5 12 24.6 2.1 34.4 -6.8 6.9 -16.3 8.8 -24.6 5z"/>
  <path d="M964.5 62.1 c-14.9 -6.9 -18 -25.4 -6.4 -38.6 8 -9.1 20.2 -8.8 30.4 0.6 5.8 5.3 7.9 10.9 7.3 19.3 -0.3 5.2 -1 7.4 -3.4 10.8 -6 8.6 -18.6 12.2 -27.9 7.9z"/>
  <path d="M1073.2 61.9 c-10.5 -5.2 -15.8 -18 -11.9 -28.6 2.1 -5.5 7.4 -12.1 11.6 -14.3 12.8 -6.5 29.6 3.5 32.5 19.3 0.5 2.5 0.1 5.8 -0.9 9.5 -3.9 13.2 -19.2 20.1 -31.3 14.1z"/>
 </g>
 <g fill="#fff4bc">
  <path d="M631.8 691.3 c-0.8 -1 -1.9 -2.5 -2.3 -3.3 -0.8 -1.3 -0.7 -1.3 0.9 -0.1 1.6 1.4 4.1 5.1 3.3 5.1 -0.2 0 -1.1 -0.8 -1.9 -1.7z"/>
  <path d="M642.5 688.8 c-10.6 -3.8 -15.6 -15.8 -10.6 -25.6 3.8 -7.5 16 -11 23.8 -6.9 4.8 2.5 8.3 9.2 8.3 15.7 0 7.4 -3 12.3 -9.4 15.5 -5.4 2.7 -7.5 2.9 -12.1 1.3z"/>
  <path d="M528.9 679 c-1.5 -1.1 -3.4 -3.2 -4.3 -4.7 l-1.7 -2.8 2.1 2.5 c1.2 1.4 3.4 3.5 4.8 4.7 3.3 2.8 2.6 2.9 -0.9 0.3z"/>
  <path d="M771.7 676.9 c1.8 -1.9 4 -4.3 4.9 -5.4 2 -2.5 0.7 0.1 -1.8 3.8 -1.1 1.5 -2.9 3.2 -4.1 3.8 -1.6 0.9 -1.3 0.3 1 -2.2z"/>
  <path d="M533.8 673 c-5.6 -3 -8 -7.1 -8.5 -14.9 -0.4 -5.7 -0.2 -7.1 1.9 -10.1 2.8 -4.3 9.9 -8 15.1 -8 6.1 0 10.4 2.6 13.8 8.4 2.6 4.4 2.9 5.9 2.6 10.9 -0.4 6.7 -2.5 10.1 -8.3 13.4 -4.9 2.8 -11.6 2.9 -16.6 0.3z"/>
  <path d="M751.5 673.7 c-8 -3.2 -11.5 -8.5 -11.5 -17.3 0 -11.1 7.7 -17.3 20.7 -16.6 9.8 0.6 16.6 16.5 11.2 26.2 -3.7 6.5 -13.8 10.4 -20.4 7.7z"/>
  <path d="M424.5 667.6 c-6.2 -2.7 -10.7 -8.7 -11.9 -15.6 -0.4 -2.7 -0.1 -2.3 1.2 1.5 2 5.9 8.2 12.6 13.2 14.2 1.9 0.6 2.8 1.1 2 1.2 -0.8 0 -2.8 -0.6 -4.5 -1.3z"/>
  <path d="M851 662.9 l-3.5 -3 4 2.7 c2.2 1.6 4.2 2.9 4.4 3.1 0.2 0.2 0 0.3 -0.5 0.3 -0.5 0 -2.5 -1.4 -4.4 -3.1z"/>
  <path d="M878.3 663.8 c1.6 -1.3 3.7 -3.4 4.8 -4.8 1.2 -1.4 1.7 -1.8 1.3 -1 -1.1 2.4 -4.7 6.1 -6.9 7.2 -1.1 0.5 -0.8 0 0.8 -1.4z"/>
  <path d="M428.1 659.2 c-1.9 -0.9 -4.8 -3.4 -6.5 -5.5 -3.9 -4.9 -4.1 -11.1 -0.5 -18.3 3.1 -6.3 7.4 -8.9 14.9 -8.8 10 0 17.3 7 17.2 16.3 -0.1 2.6 -1.1 6.5 -2.4 9 -4.1 8 -14.8 11.4 -22.7 7.3z"/>
  <path d="M856.8 658 c-6.6 -3.5 -10.3 -11.7 -8.9 -19.7 1.1 -5.8 2.5 -7.7 7.9 -10.6 5.6 -3.1 11.4 -3.5 16.7 -1.3 4.6 2 9.5 10.4 9.5 16.6 0 12.7 -13.9 21 -25.2 15z"/>
  <path d="M959.2 647.3 l-3.8 -3.8 3.6 3 c1.9 1.6 3.9 3.3 4.5 3.7 0.5 0.5 0.6 0.8 0.2 0.8 -0.4 0 -2.5 -1.7 -4.5 -3.7z"/>
  <path d="M332.5 649.4 c0.6 -0.5 2.6 -2.3 4.5 -3.9 l3.5 -3 -2.5 2.8 c-1.4 1.6 -3.4 3.3 -4.5 3.9 -1.1 0.6 -1.5 0.6 -1 0.2z"/>
  <path d="M305.9 645.3 l-3.4 -3.8 3.8 3.4 c2 1.9 3.7 3.6 3.7 3.8 0 0.8 -0.8 0 -4.1 -3.4z"/>
  <path d="M988.7 645.8 c1.7 -2 3.4 -4.6 3.8 -5.8 0.4 -1.2 0.9 -1.9 1.2 -1.7 0.8 0.9 -2.4 6.1 -5.3 8.7 -2.7 2.3 -2.6 2.3 0.3 -1.2z"/>
  <path d="M314.5 642.6 c-7.1 -3.1 -11 -10.1 -10.3 -18.4 0.6 -6.3 0.9 -7.4 3.3 -9.5 6.1 -5.7 16.2 -7.4 22.2 -3.8 7.1 4.4 10.7 16.5 7 23.7 -4 7.7 -14.3 11.5 -22.2 8z"/>
  <path d="M965.5 642.6 c-4.8 -2.2 -7.3 -5.2 -9.1 -10.9 -2.3 -7.5 -1.3 -12.1 3.7 -16.9 9.3 -8.8 21.9 -6.9 27.5 4.2 6.1 11.8 -0.6 24 -13.4 24.7 -3.5 0.2 -6.9 -0.2 -8.7 -1.1z"/>
  <path d="M200.2 628 c-3.9 -2.8 -8.2 -9.3 -8.2 -12.2 0.1 -0.7 1 0.5 2 2.6 2.4 4.8 5.4 8.2 9.5 10.7 1.7 1.1 2.5 1.9 1.9 1.9 -0.6 0 -3 -1.3 -5.2 -3z"/>
  <path d="M1067 626.9 l-3.5 -3 3.8 2.6 c3.3 2.4 4.3 3.5 3.4 3.5 -0.1 0 -1.8 -1.4 -3.7 -3.1z"/>
  <path d="M206.9 621.7 c-6.4 -3.4 -9.1 -8.5 -8.5 -15.9 0.5 -7.5 4.6 -14.3 9.5 -15.9 5.4 -1.8 13.4 -0.7 17.5 2.5 7.3 5.5 8.8 13.4 4.3 22.2 -4.5 8.8 -13.9 11.7 -22.8 7.1z"/>
  <path d="M1073 621.8 c-6.6 -3.4 -9 -7.6 -9 -15.7 0 -11.3 6 -17 17.7 -17.1 4.5 0 5.8 0.5 8.8 3.2 11.3 9.8 9.4 24.8 -3.7 30.2 -5.1 2.2 -8.6 2 -13.8 -0.6z"/>
  <path d="M136.5 534.3 c-4.2 -2.2 -7.4 -5.3 -9.2 -8.8 -1.2 -2.3 -0.6 -1.9 2.7 1.8 2.3 2.6 5.9 5.6 7.9 6.7 2 1 3.2 1.9 2.6 1.9 -0.5 0 -2.3 -0.7 -4 -1.6z"/>
  <path d="M1132.7 530.8 c-1.8 -1.8 -2.1 -2.3 -0.7 -1.2 1.4 1.2 3.4 2.6 4.5 3.2 1.1 0.6 1.4 1.2 0.7 1.2 -0.7 0 -2.7 -1.5 -4.5 -3.2z"/>
  <path d="M1162 530.6 c0 -0.4 1.1 -2.1 2.5 -3.8 1.4 -1.6 2.5 -2.6 2.5 -2.1 -0.1 1.1 -5 7 -5 5.9z"/>
  <path d="M140.4 526 c-5.7 -2.8 -8.7 -7.3 -9.2 -13.6 -0.4 -4.5 0 -6.1 2.9 -11.3 3.7 -6.6 6.1 -8.1 13.3 -8.1 11.6 0.1 19.8 9.6 17.5 20.2 -1.5 6.3 -4.7 10.8 -9.3 12.9 -5.3 2.4 -10.1 2.4 -15.2 -0.1z"/>
  <path d="M1139.5 526.6 c-11.9 -5.3 -13.8 -23 -3.2 -30.3 3.5 -2.4 5 -2.8 11 -2.8 6.9 0 6.9 0 10.8 4.3 4.7 5.4 6.3 10 5.4 15.8 -1.6 10.7 -14 17.4 -24 13z"/>
  <path d="M124.7 519 c-0.4 -1.4 -0.6 -3.6 -0.6 -5 0.1 -2.2 0.2 -2 1 0.8 0.6 1.9 0.9 4.1 0.7 5 -0.3 1.2 -0.6 1 -1.1 -0.8z"/>
  <path d="M357 493.4 c-14.5 -2.5 -23.6 -5.2 -33.5 -10.2 -26.4 -13.1 -47.8 -38.2 -57.3 -67.2 -7.4 -22.3 -6.9 -51.7 1.1 -73.1 14.1 -37.5 46.3 -64.8 85.6 -72.6 9.2 -1.8 32 -2 41.1 -0.4 33.7 6 64.2 29.1 79.8 60.6 9.2 18.5 12.6 32.7 12.5 52.5 -0.1 19.1 -3.2 31.9 -11.9 49.3 -4.4 9.1 -9.6 16.9 -14.5 22.2 l-2.8 3 15.4 17 c8.5 9.4 15.5 17.3 15.5 17.8 0 0.4 -11.2 0.7 -24.8 0.7 l-24.8 0 -5.8 -5.9 c-5.4 -5.5 -6.1 -5.9 -8 -4.6 -3.4 2.2 -14.5 6.3 -23.1 8.6 -6.2 1.6 -11.7 2.2 -25 2.4 -9.3 0.2 -18.1 0.2 -19.5 -0.1z m96 -9.9 c5.4 -2.8 6.6 -8.6 2.8 -12.9 -1.3 -1.4 -3.4 -2.8 -4.8 -3.1 -3.3 -0.7 -8.8 2.7 -9.6 6 -1 4 0.4 7.4 3.9 9.5 3.9 2.4 4 2.4 7.7 0.5z m-68.6 -9.6 c3.4 -4 3.3 -7.4 -0.3 -11 -3.6 -3.6 -7 -3.7 -11 -0.3 -6.3 5.2 -2.8 14.4 5.4 14.4 2.5 0 4 -0.8 5.9 -3.1z m-48.9 -11.5 c5.1 -5.5 1.5 -14.4 -5.9 -14.4 -2.6 0 -4 0.7 -6 3.1 -3.6 4.2 -3.4 8.1 0.5 11.3 4 3.4 8.3 3.4 11.4 0z m91.6 -6.3 c5.6 -5.7 2.3 -14.1 -5.6 -14.1 -8 0 -11.5 9.3 -5.4 14.4 4 3.4 7.4 3.3 11 -0.3z m-39.3 -13.7 c1.3 -0.4 2.2 -1 2 -1.4 -0.2 -0.4 -8.1 -9.1 -17.5 -19.3 -9.5 -10.3 -17.3 -19.1 -17.3 -19.7 0 -0.7 8.3 -1 24.9 -1 l24.9 0 7.6 8.1 7.5 8.1 1.6 -3.8 c5.3 -12.7 7.5 -30.1 5.6 -43.8 -4.4 -31.2 -24.9 -50.6 -53.6 -50.6 -15 0 -26.4 4.7 -36.5 14.9 -12.3 12.4 -17.4 26.3 -17.4 47.6 0 9.3 0.5 14.9 1.8 19.5 5.9 21.9 20.5 37.1 39.7 41.5 6.2 1.4 21.3 1.4 26.7 -0.1z m68.3 -8.3 c3.7 -3.7 3.8 -7.8 0.4 -11.5 -5 -5.4 -14.5 -1.7 -14.5 5.6 0 3.8 4.8 8.8 8.5 8.8 1.6 0 3.8 -1.2 5.6 -2.9z m-150.6 -3.6 c4.9 -4.8 2.1 -13 -4.9 -14.2 -3 -0.5 -4 -0.1 -6.6 2.5 -3.9 4 -4.1 8.3 -0.4 11.7 3.6 3.3 8.7 3.3 11.9 0z m95.1 -3.9 c5.7 -4.9 2.2 -14.6 -5.3 -14.6 -7.6 0 -11.5 10.3 -5.7 14.9 3.5 2.8 7.6 2.7 11 -0.3z m-104.1 -40.9 c5.7 -4.8 2.1 -14.7 -5.2 -14.7 -7.6 0 -11.5 10.3 -5.7 14.9 3.5 2.7 7.6 2.7 10.9 -0.2z m169.1 -0.1 c5.8 -4.9 2 -14.6 -5.7 -14.6 -7.2 0 -10.9 10.5 -5.3 14.9 3.5 2.8 7.6 2.7 11 -0.3z m-159.1 -41.1 c5.4 -5.4 1.3 -14.5 -6.5 -14.5 -3.3 0 -8 5.3 -8 9 0 7.1 9.4 10.7 14.5 5.5z m146.2 0.3 c4.5 -4.2 2.3 -13 -3.6 -14.3 -5.9 -1.3 -12.3 5.1 -10.6 10.5 1.9 5.9 9.7 8 14.2 3.8z m-117.2 -32.3 c4.9 -4.8 2.1 -13 -4.9 -14.2 -3 -0.5 -4 -0.1 -6.6 2.5 -3.9 4 -4.1 8.3 -0.4 11.7 3.6 3.3 8.7 3.3 11.9 0z m88.9 0.3 c5.6 -5.1 2.1 -14.8 -5.4 -14.8 -7.3 0 -11.1 10.4 -5.4 14.9 3.5 2.7 7.7 2.7 10.8 -0.1z m-46 -9.8 c3.2 -1.2 6 -6.4 5.2 -9.6 -2.4 -9.2 -16.6 -8.2 -16.6 1.2 0 4.8 0.9 6.5 4.4 8 3.8 1.6 3.9 1.6 7 0.4z"/>
  <path d="M592.3 492.6 c-42.5 -8.1 -68.7 -37.6 -75.8 -85.3 -1.2 -8.4 -1.5 -22.1 -1.5 -73.8 l0 -63.5 28.5 0 28.5 0 0 56.8 c0.1 69.8 0.9 79.6 7.8 94.2 2.9 6.2 9.8 14.1 15.5 17.7 5.8 3.7 15 5.6 22.9 4.9 19.1 -1.8 30.7 -13 37 -36.1 2.1 -7.8 2.2 -10 2.5 -72.7 l0.4 -64.8 28.5 0 28.5 0 -0.4 68.8 -0.3 68.7 -2.6 10.6 c-6 24.3 -16.7 43.2 -31.7 55.6 -8.2 6.8 -23.9 14.6 -35.1 17.4 -11 2.7 -41.6 3.6 -52.7 1.5z m31.1 -17.7 c3.4 -4 3.3 -7.4 -0.3 -11 -3.6 -3.6 -7 -3.7 -11 -0.3 -6.3 5.2 -2.8 14.4 5.4 14.4 2.5 0 4 -0.8 5.9 -3.1z m-41.9 -12.5 c5 -5.4 1.5 -14.4 -5.5 -14.4 -4 0 -9 4.7 -9 8.5 0 1.6 1.2 3.8 2.9 5.6 3.8 3.8 8.3 3.9 11.6 0.3z m86.1 0.2 c2.2 -1.8 2.8 -3.2 2.7 -6.2 -0.2 -7.2 -8 -10.8 -13.7 -6.3 -2.1 1.6 -2.6 2.9 -2.6 6.4 0 3.5 0.5 4.8 2.6 6.4 3.5 2.8 7.6 2.7 11 -0.3z m-110.5 -33.5 c3.3 -3.3 3.7 -6.5 1.2 -10.1 -2.3 -3.4 -3.3 -4 -7.1 -4 -7.5 0 -11.1 9.4 -5.6 14.5 3.7 3.4 7.8 3.3 11.5 -0.4z m130.4 0.4 c5.2 -5.1 1.6 -14.5 -5.4 -14.5 -4.6 0 -8.5 3.9 -8.5 8.5 0 7.4 8.8 11.2 13.9 6z m-138.6 -39 c7.6 -3.9 4.6 -15.8 -3.9 -15.8 -3.2 0 -7.5 3.3 -8.6 6.5 -0.9 2.8 1.5 7.7 4.5 9.3 3.3 1.8 4.6 1.8 8 0z m145.9 -2.1 c5.7 -6.5 -1.5 -16.3 -9.5 -12.9 -7.4 3.1 -6.9 12.9 0.7 15.8 2.6 1 6.4 -0.3 8.8 -2.9z m-144 -42.6 c3.1 -3.5 3.5 -6.8 1.3 -10.5 -2.4 -3.8 -6 -5 -10.2 -3.3 -8.5 3.6 -6.2 16 3.1 16 2.5 0 4.3 -0.7 5.8 -2.2z m142.3 0.9 c4.6 -3.5 5 -8.8 1 -12.8 -3.6 -3.6 -7 -3.7 -11 -0.3 -6.2 5.2 -2.8 14.5 5.3 14.4 1.7 0 3.8 -0.6 4.7 -1.3z m-144.2 -42.2 c1.6 -0.8 3.4 -2.8 4 -4.6 2.3 -6.7 -4.6 -13.6 -10.7 -10.6 -6.9 3.4 -7.9 11.1 -1.9 14.8 3.8 2.3 4.9 2.3 8.6 0.4z m143.8 -0.5 c3.8 -2.3 5 -5.9 3.3 -10.1 -1.5 -3.5 -3.7 -4.9 -8 -4.9 -6.9 0 -10.7 9.2 -5.7 13.7 4 3.7 6.1 4 10.4 1.3z"/>
  <path d="M756 381.5 l0 -111.5 29 0 29 0 -0.2 111.3 -0.3 111.2 -28.7 0.3 -28.8 0.2 0 -111.5z m35.6 93.1 c5.8 -4.9 2 -14.6 -5.7 -14.6 -7.2 0 -10.9 10.5 -5.3 14.9 3.5 2.8 7.6 2.7 11 -0.3z m0 -44 c5.8 -4.9 2 -14.6 -5.7 -14.6 -7.2 0 -10.9 10.5 -5.3 14.9 3.5 2.8 7.6 2.7 11 -0.3z m-1.7 -40.1 c3.2 -1.6 5.6 -6.4 4.7 -9.3 -0.4 -1 -1.7 -2.9 -3.1 -4.2 -5.2 -4.9 -13.5 -1.2 -13.5 5.9 0 4.1 0.5 5.1 4 7.4 3 2.1 4.3 2.1 7.9 0.2z m2.1 -45 c3.4 -3.7 3.3 -9 -0.4 -12.1 -4.5 -4 -10.4 -2.5 -13.1 3.2 -3.9 8.2 7.2 15.6 13.5 8.9z m-2.1 -41 c1.6 -0.8 3.4 -2.8 4.1 -4.6 1.2 -2.7 1.1 -3.6 -0.5 -6.5 -4.4 -8.2 -15.5 -5.1 -15.5 4.3 0 3.8 0.4 4.6 3.3 6.3 3.8 2.4 4.9 2.4 8.6 0.5z"/>
  <path d="M846.7 492.3 c-0.4 -0.3 -0.7 -9.9 -0.7 -21.2 l0 -20.6 7.8 -9.6 c4.2 -5.3 11.5 -14.3 16.2 -20 4.6 -5.7 23.3 -28.6 41.4 -50.9 18.1 -22.3 34.5 -42.3 36.3 -44.5 1.8 -2.2 3.2 -4.3 3.1 -4.8 -0.2 -0.4 -22.5 -0.9 -49.7 -1 l-49.4 -0.2 -0.1 -24.8 -0.1 -24.7 84.3 0 84.2 0 0 21.8 0 21.7 -28.3 37 c-15.5 20.4 -33.4 43.8 -39.7 52 -6.3 8.3 -15.8 20.7 -21.2 27.8 l-9.8 12.7 50.5 0 50.5 0 0 25 0 25 -87.3 0 c-48.1 0 -87.7 -0.3 -88 -0.7z m33.7 -18.4 c3.4 -4 3.3 -7.4 -0.3 -11 -3.8 -3.7 -7.9 -3.8 -11.5 -0.3 -3.6 3.6 -3.6 8.6 0 11.9 3.9 3.6 8.5 3.4 11.8 -0.6z m41 0.5 c3.4 -3.5 3.5 -8.2 0.1 -11.8 -3.3 -3.6 -7.8 -3.5 -11.6 0.3 -3.7 3.8 -3.8 7.6 -0.2 11.3 3.5 3.7 8.1 3.8 11.7 0.2z m41.1 0.1 c5.2 -5.1 1.6 -14.5 -5.5 -14.5 -4 0 -9 4.7 -9 8.5 0 1.6 1.2 3.8 2.9 5.6 3.8 3.7 8.2 3.9 11.6 0.4z m41 0.2 c3.9 -3.3 3.9 -9.1 0.1 -12.3 -8.4 -7.3 -19.3 4.9 -11 12.4 3.2 2.8 7.6 2.8 10.9 -0.1z m-98.6 -34.3 c7.5 -6.3 0.4 -18 -8.4 -13.8 -6.3 3 -7 10.9 -1.1 14.5 4.1 2.5 5.9 2.4 9.5 -0.7z m26.5 -35.5 c3.4 -4 3.3 -7.4 -0.3 -11 -3.6 -3.6 -7 -3.7 -11 -0.3 -2.4 2 -3.1 3.4 -3.1 6 0 7.9 9.3 11.4 14.4 5.3z m23.5 -32.4 c3.2 -1.6 4.1 -3.3 4.1 -7.8 0 -7.5 -9.4 -10.6 -14.4 -4.6 -1.4 1.7 -2.6 3.7 -2.6 4.4 0 3 2.1 6.5 4.7 7.9 3.5 1.9 4.7 1.9 8.2 0.1z m27.5 -36.1 c3.5 -3.6 3.4 -7.7 -0.3 -11.5 -3.6 -3.6 -7 -3.7 -11 -0.3 -2.4 2 -3.1 3.4 -3.1 6 0 7.6 8.9 11.2 14.4 5.8z m-105.5 -34 c7.6 -6.4 0.1 -17.4 -9.4 -13.8 -1.9 0.8 -4.5 5.5 -4.5 8.4 0 3 5.3 8 8.3 8 1.4 0 3.9 -1.2 5.6 -2.6z m41.6 1.4 c2.7 -1.2 5.5 -5.4 5.5 -8.2 0 -0.8 -1.2 -2.8 -2.6 -4.5 -2 -2.4 -3.4 -3.1 -6.3 -3.1 -8.3 0 -11.8 10.8 -4.8 15 3.7 2.3 4.7 2.4 8.2 0.8z m45.6 -1.7 c3.7 -3.8 3.9 -8.2 0.4 -11.6 -5.1 -5.2 -14.5 -1.5 -14.5 5.7 0 3.8 4.8 8.8 8.5 8.8 1.6 0 3.8 -1.2 5.6 -2.9z m42.4 1.3 c2.7 -1.7 4.7 -6.6 3.8 -9.2 -2.4 -6.8 -10.2 -8.4 -14.8 -3.1 -3.2 3.9 -2.7 8.2 1.3 11.6 3.2 2.7 6.3 2.9 9.7 0.7z"/>
  <path d="M78 436.6 c-1.9 -1.3 -4.3 -3.9 -5.4 -5.7 -1.8 -3.4 -1.8 -3.4 1.4 0.5 1.9 2.1 4.7 4.7 6.4 5.7 1.7 1 2.6 1.9 2.1 1.9 -0.6 0 -2.6 -1.1 -4.5 -2.4z"/>
  <path d="M1214.7 436.1 c2.3 -1.6 4.8 -4 5.7 -5.3 0.9 -1.2 1.6 -1.8 1.6 -1.1 0 1.4 -8.6 9.3 -10.1 9.3 -0.7 0 0.6 -1.3 2.8 -2.9z"/>
  <path d="M85.5 430.6 c-6.2 -2.8 -10.5 -9.2 -10.5 -15.7 0 -1.7 1.4 -5.8 3.2 -9 3.5 -6.3 7.6 -8.9 13.9 -8.9 9 0 17.9 8.2 17.9 16.6 0 3.3 -2.8 10.5 -5.2 13.5 -3.7 4.5 -13.1 6.2 -19.3 3.5z"/>
  <path d="M1194.2 430.3 c-8.9 -4.4 -12.4 -18.1 -6.6 -26.1 2.6 -3.6 9.9 -7.2 14.5 -7.2 6.6 0 9.6 1.8 13.4 7.8 5.2 8.3 4.9 15.7 -0.9 22 -4.5 5.1 -14 6.7 -20.4 3.5z"/>
  <path d="M41 344.1 c-4.6 -1.4 -8.7 -4 -11.3 -7 -2.8 -3.4 -5.1 -9.4 -4.4 -11.4 0.3 -0.7 0.6 -0.4 0.6 0.6 0.2 3.1 3.9 9.3 7.5 12.5 3.4 3 7.6 4.6 14.1 5.5 2.8 0.4 2.8 0.4 -0.5 0.5 -1.9 0 -4.6 -0.3 -6 -0.7z"/>
  <path d="M1261.2 340.5 c2 -1.4 4.8 -4.4 6.2 -6.7 1.4 -2.4 2.6 -3.8 2.6 -3.3 0 3.1 -8.7 12.5 -11.6 12.5 -0.5 0 0.8 -1.1 2.8 -2.5z"/>
  <path d="M1235 339.7 c-1.4 -1.2 -3.2 -3.1 -4 -4.2 -0.8 -1.1 0.6 -0.2 3 2 2.5 2.2 4.7 4.1 4.9 4.3 0.2 0.1 0 0.2 -0.5 0.2 -0.5 -0.1 -2 -1.1 -3.4 -2.3z"/>
  <path d="M40 333.8 c-8.8 -4.5 -11.1 -14.2 -5.8 -24.5 3.1 -5.8 6.5 -7.8 13.9 -7.8 6.9 0 12.9 3.6 15.9 9.5 2.7 5.2 2.5 9.5 -0.5 15.6 -4.5 9 -14.1 11.9 -23.5 7.2z"/>
  <path d="M1240.5 334.1 c-12.9 -8 -12.1 -25.4 1.3 -31.3 8.7 -3.9 17.2 -0.7 21.7 8.3 3.1 6 3.2 10.3 0.2 16 -4.3 8.1 -15.8 11.6 -23.2 7z"/>
  <path d="M81.4 244.1 c-4.5 -3.2 -7 -6.6 -7.9 -10.7 -0.5 -2.3 -0.2 -2.1 1.3 1.1 2 4 6.9 9.3 10.7 11.3 1.1 0.6 1.5 1.2 0.9 1.2 -0.6 0 -2.9 -1.3 -5 -2.9z"/>
  <path d="M1210.1 245.7 c0.2 -0.2 2.2 -1.5 4.4 -3.1 l4 -2.7 -3.5 3 c-1.9 1.7 -3.9 3.1 -4.4 3.1 -0.5 0 -0.7 -0.1 -0.5 -0.3z"/>
  <path d="M1184.9 241.3 l-3.4 -3.8 3.8 3.4 c3.4 3.3 4.2 4.1 3.4 4.1 -0.2 0 -1.9 -1.7 -3.8 -3.7z"/>
  <path d="M88.2 237.9 c-6.9 -3.5 -10.8 -11.2 -9.2 -18.3 1.3 -5.8 5.6 -12.2 9.2 -13.7 9.1 -3.8 21 1.4 24.7 10.8 1.1 2.6 1 4.1 -0.3 8.7 -2 6.9 -6.3 11.9 -11.4 13.4 -5.5 1.7 -8.1 1.5 -13 -0.9z"/>
  <path d="M1196 239.3 c-5.7 -2.1 -8.3 -4 -10.6 -7.9 -3.1 -5.3 -3.4 -12.7 -0.7 -18.1 3.5 -7.3 15.4 -10.9 22.9 -7 6.3 3.3 10.4 12.4 9 20.1 -1.6 8.5 -13 15.7 -20.6 12.9z"/>
  <path d="M138.3 149.4 c-4.1 -2.4 -9.4 -9.5 -9.3 -12.5 0.1 -0.8 1.2 0.6 2.4 3.1 2.6 5 5.5 7.9 10.1 10.3 1.7 0.9 2.6 1.6 2 1.7 -0.5 0 -2.9 -1.2 -5.2 -2.6z"/>
  <path d="M1130.2 147.3 l-3.8 -3.8 3.6 3 c1.9 1.6 3.9 3.3 4.5 3.7 0.5 0.5 0.6 0.8 0.2 0.8 -0.4 0 -2.5 -1.7 -4.5 -3.7z"/>
  <path d="M1153.1 150.7 c0.2 -0.2 1.8 -1.1 3.4 -2.1 l3 -1.7 -2.4 2 c-1.3 1.2 -2.8 2.1 -3.4 2.1 -0.6 0 -0.8 -0.1 -0.6 -0.3z"/>
  <path d="M143 141.8 c-5.8 -4 -7.5 -7.2 -7.5 -14.2 0 -5.1 0.5 -7 2.7 -10.4 3.9 -5.8 7.1 -7.6 13.2 -7.6 7.4 0 13.4 3.5 16.5 9.6 2.1 4.3 2.2 5.2 1.1 9.6 -2.5 10.5 -7.8 15.2 -17.1 15.2 -4.2 0 -6.5 -0.6 -8.9 -2.2z"/>
  <path d="M1135.5 142.1 c-8.3 -5.1 -10.9 -13.2 -7.5 -23.5 1.9 -5.7 12.3 -10.5 19.4 -9 4.6 0.9 9.1 4.8 11.6 9.9 4.2 8.7 1 18.9 -7.3 22.9 -4.7 2.2 -12.4 2.1 -16.2 -0.3z"/>
  <path d="M197.3 59.1 c-2.2 -1.6 -5 -4.9 -6.2 -7.3 -3.1 -6.5 -2.6 -8.1 0.7 -1.7 1.6 3.3 4.4 6.7 7 8.6 5.4 4.1 4 4.4 -1.5 0.4z"/>
  <path d="M418.5 60.8 c-4.9 -2.7 -10.5 -10.3 -10.5 -14 0 -0.7 0.9 0.5 1.9 2.7 1.8 4 6.8 9.2 10.6 11.3 1.1 0.6 1.6 1.1 1 1.1 -0.5 0 -1.9 -0.5 -3 -1.1z"/>
  <path d="M546.5 60.5 c4.3 -3.5 6.1 -5.2 8.3 -8 l2.3 -3 -1.8 3.4 c-1 1.8 -3.1 4.3 -4.8 5.6 -3.6 2.7 -6.8 4.3 -4 2z"/>
  <path d="M654 61.7 c0.3 -0.2 2.8 -2.2 5.5 -4.2 3.9 -3 4.5 -3.2 2.5 -1 -1.4 1.5 -3.8 3.4 -5.5 4.2 -1.6 0.9 -2.8 1.3 -2.5 1z"/>
  <path d="M984 59.9 c1.9 -1.2 4.4 -2.9 5.5 -3.8 2 -1.6 2 -1.6 0 0.8 -1.1 1.2 -3.2 2.9 -4.7 3.7 -4.2 2.2 -4.7 1.6 -0.8 -0.7z"/>
  <path d="M1092.5 60.8 c1.1 -0.7 4 -3.3 6.4 -5.7 2.3 -2.4 3.8 -3.5 3.3 -2.5 -1.4 2.6 -6.2 6.9 -9.2 8.3 -2.2 1 -2.2 1 -0.5 -0.1z"/>
  <path d="M303.7 57.8 c-3.1 -3.1 -3.1 -3.2 -0.2 -0.8 1.6 1.4 3.4 2.8 4 3.2 0.5 0.5 0.6 0.8 0.2 0.8 -0.4 0 -2.2 -1.5 -4 -3.2z"/>
  <path d="M740.7 57.8 c-3.1 -3.1 -3.1 -3.2 -0.2 -0.8 1.6 1.4 3.4 2.8 4 3.2 0.5 0.5 0.6 0.8 0.2 0.8 -0.4 0 -2.2 -1.5 -4 -3.2z"/>
  <path d="M630.4 56.8 l-2.9 -3.3 3.3 2.9 c1.7 1.7 3.2 3.1 3.2 3.3 0 0.8 -0.8 0.1 -3.6 -2.9z"/>
  <path d="M770 56.5 c1.9 -1.9 3.6 -3.5 3.9 -3.5 0.3 0 -1 1.6 -2.9 3.5 -1.9 1.9 -3.6 3.5 -3.9 3.5 -0.3 0 1 -1.6 2.9 -3.5z"/>
  <path d="M879.5 55.9 c2.2 -2.5 4.2 -4.4 4.4 -4.3 0.6 0.5 -3.8 5.7 -6.2 7.3 -1.2 0.8 -0.4 -0.5 1.8 -3z"/>
  <path d="M1066.9 56.3 l-3.4 -3.8 3.8 3.4 c3.4 3.3 4.2 4.1 3.4 4.1 -0.2 0 -1.9 -1.7 -3.8 -3.7z"/>
  <path d="M205.5 53.6 c-6.3 -2.9 -10.5 -9.2 -10.5 -15.9 0 -4.7 4.7 -13.5 8.4 -15.8 3.7 -2.2 11.2 -2.5 15.9 -0.5 4.2 1.7 9.3 7.6 10.2 11.6 0.4 1.7 0.1 5.4 -0.5 8.2 -2.6 10.8 -13.8 16.7 -23.5 12.4z"/>
  <path d="M309.5 53 c-5.4 -2.7 -8.5 -7.5 -9.2 -14.4 -0.8 -7.9 1.4 -12.6 7.7 -16 12.7 -6.9 26 0.9 26.2 15.2 0 7.7 -3.3 12.7 -10.5 15.7 -4.9 2 -9.4 1.9 -14.2 -0.5z"/>
  <path d="M424 53.4 c-5.3 -2.3 -7.9 -5.3 -9.6 -11 -1.4 -4.8 -1.3 -5.5 0.6 -10.6 1.1 -3 3 -6.4 4.3 -7.6 10.2 -9.6 28.7 -1.9 28.7 12 0 13.5 -12.2 22.3 -24 17.2z"/>
  <path d="M527.8 53 c-12.3 -6.5 -12.1 -26.5 0.4 -31.5 5.1 -2 12.7 -1.9 15.8 0.2 9 6.2 11.6 18.6 5.6 26.5 -4.9 6.5 -14.6 8.6 -21.8 4.8z"/>
  <path d="M638.4 53.6 c-9.2 -4.1 -13.5 -17.9 -8.4 -26.4 4.5 -7.3 19.6 -9.7 25.6 -4.1 6.1 5.7 8.2 15.4 4.7 22.6 -3.4 7.2 -14.6 11.2 -21.9 7.9z"/>
  <path d="M747.1 53.2 c-1.9 -0.9 -4.8 -3.4 -6.5 -5.5 -2.8 -3.5 -3.1 -4.6 -3.1 -10.5 0 -8 2.3 -12.1 8.8 -15.3 5.1 -2.6 13.9 -2.3 17.9 0.6 4.1 3 8.1 12.7 7.3 17.5 -0.9 5.6 -4.3 10.1 -9.5 12.8 -5.3 2.6 -10.3 2.8 -14.9 0.4z"/>
  <path d="M855.8 53 c-2 -1.1 -4.6 -3.1 -5.7 -4.6 -4.6 -5.9 -5.1 -16.6 -1 -21.9 4.4 -5.4 14.5 -8.1 21.2 -5.6 3.5 1.4 7.5 5.9 9.3 10.8 5.6 14.5 -10 28.5 -23.8 21.3z"/>
  <path d="M965 52.8 c-6.1 -3.3 -9 -8.4 -9 -16.3 0 -7.8 2.4 -11.9 8.7 -14.7 6.2 -2.7 15.3 -2.1 19 1.4 3.2 2.9 6.3 10 6.3 14.4 0 13 -13.6 21.2 -25 15.2z"/>
  <path d="M1075.5 53.7 c-7.4 -3.4 -11.5 -11.9 -10 -20.7 1.3 -7.6 8.4 -13 17.2 -13 6.2 0 10.2 2.5 13.7 8.4 5 8.6 3.2 18.2 -4.3 23.2 -4.9 3.2 -12.1 4.1 -16.6 2.1z"/>
  <path d="M407.3 41.5 c0 -2.2 0.2 -3 0.4 -1.7 0.2 1.2 0.2 3 0 4 -0.3 0.9 -0.5 -0.1 -0.4 -2.3z"/>
 </g>
 <g fill="#fffffc">
  <path d="M643.4 682 c-3.4 -1.3 -6.4 -5.9 -6.4 -9.7 0 -2.6 0.8 -4.3 3.4 -6.9 4.6 -4.6 9.4 -4.7 13.7 -0.4 2.7 2.6 3 3.5 2.7 8.2 -0.3 4.7 -0.7 5.5 -3.7 7.5 -3.5 2.4 -6.2 2.8 -9.7 1.3z"/>
  <path d="M539 668.3 c-0.8 -0.3 -2.7 -1.7 -4.2 -3.1 -2.2 -2 -2.8 -3.5 -2.8 -6.7 0 -4.9 2.2 -8.2 6.6 -10.1 6.7 -2.8 13.4 2.4 13.4 10.3 0 4.7 -1.6 6.8 -6.7 8.9 -3.5 1.5 -4 1.5 -6.3 0.7z"/>
  <path d="M751.8 666.4 c-3.5 -1.8 -4.8 -4.3 -4.8 -8.9 0 -2.9 0.8 -4.5 3.4 -7.1 3.8 -3.8 7 -4.3 11.6 -1.9 3.7 1.9 5 4.3 5 9 0 4.7 -1.3 7.1 -5 9 -3.6 1.9 -6.7 1.9 -10.2 -0.1z"/>
  <path d="M430.4 653.1 c-4.2 -2.5 -6.1 -8 -4.4 -12.2 4.6 -11 20 -8 20 3.8 0 3.6 -2.3 6.9 -6 8.8 -3.8 2 -5.9 1.9 -9.6 -0.4z"/>
  <path d="M858.1 650.4 c-2.6 -2.2 -3.1 -3.3 -3.1 -7.1 0 -9.6 10.8 -14.2 17.3 -7.2 2.1 2.3 2.7 3.9 2.7 7.3 0 3.7 -0.5 4.8 -3.1 7 -2.1 1.8 -4.2 2.6 -6.9 2.6 -2.7 0 -4.8 -0.8 -6.9 -2.6z"/>
  <path d="M967.3 635.9 c-8.3 -5.3 -4.4 -18.9 5.3 -18.9 4.6 0 7 1.4 8.9 5 2.6 5.1 2 9.4 -2 12.9 -4.2 3.6 -7.7 3.9 -12.2 1z"/>
  <path d="M313.9 634.1 c-7.9 -7.9 1.5 -21.6 11.5 -16.8 4.1 1.9 7 7.6 6.1 11.7 -1.7 7.6 -12 10.6 -17.6 5.1z"/>
  <path d="M208.2 614.5 c-4 -3.3 -4.8 -7.4 -2.6 -12 4.2 -8.9 15.7 -8 19.2 1.5 3.4 9.4 -8.8 17.1 -16.6 10.5z"/>
  <path d="M1074.2 614.5 c-3.9 -3.2 -4.8 -7.2 -2.8 -11.9 4.2 -10.1 19.6 -6.7 19.6 4.3 -0.1 8.6 -10.2 13.2 -16.8 7.6z"/>
  <path d="M1142.3 520.5 c-9.1 -3.9 -7.2 -17.8 2.7 -20 7.6 -1.7 14.8 8.5 11 15.6 -1.1 1.9 -4.7 4.1 -8.5 5.2 -1.1 0.3 -3.4 0 -5.2 -0.8z"/>
  <path d="M141.1 518.4 c-2.6 -2.1 -3.1 -3.3 -3.1 -6.8 0 -10.3 11.1 -15 17.5 -7.4 8.3 9.8 -4.6 22.5 -14.4 14.2z"/>
  <path d="M353.5 492.4 c-15.9 -2.8 -30.6 -8.7 -43.8 -17.5 -8.9 -6 -22.7 -20.3 -29.2 -30.3 -29 -44.5 -25.4 -97.9 9.3 -138.3 12.6 -14.6 35.9 -28.8 55.7 -33.9 12.3 -3.2 33.3 -4.3 45.2 -2.5 29.9 4.7 56.2 20.9 73.8 45.5 9.8 13.8 18 34 20.6 50.8 1.7 10.9 0.7 32.2 -2 42.1 -4.3 16.3 -12.5 32.7 -22.1 44.3 -2.2 2.7 -4 5.1 -4 5.4 0.1 0.3 7 7.9 15.4 17 l15.3 16.5 -25.1 0.3 -25.1 0.3 -5.2 -5.5 -5.2 -5.5 -6.3 2.9 c-19.1 8.9 -45.9 12.2 -67.3 8.4z m100.4 -8.9 c1.6 -0.8 3.4 -2.8 4 -4.6 0.9 -2.7 0.8 -3.9 -0.9 -7.4 -1.1 -2.3 -2 -4.8 -2 -5.6 0 -2.5 -5.5 -6.9 -9.3 -7.6 -7.7 -1.2 -13.7 4.1 -13.7 12.1 0 3.6 0.6 5.2 2.8 7.7 1.6 1.8 3.7 3.3 4.8 3.4 1 0.1 3.3 0.9 4.9 1.8 3.8 2 5.8 2.1 9.4 0.2z m-69.1 -9.1 c2.7 -3 2.9 -8 0.5 -11.4 -1 -1.4 -1.6 -3.2 -1.5 -4.1 0.2 -0.9 -1.3 -3 -3.3 -4.8 -9.2 -8 -23.3 0.9 -19.5 12.4 1.2 3.6 6.5 8.9 8 8 0.5 -0.3 2.6 0.4 4.7 1.5 4.5 2.4 7.9 2 11.1 -1.6z m-49.1 -11.6 c3.3 -3.7 3.7 -6.4 1.4 -10.8 -1.1 -2.2 -1.8 -4 -1.6 -4 1.2 0 -2.6 -6 -4.7 -7.4 -1.3 -0.9 -4.3 -1.6 -7.1 -1.6 -4.2 0 -5.4 0.5 -8.3 3.4 -2.8 2.8 -3.4 4.1 -3.4 7.8 0 5.5 3 10.5 6.7 11.3 1.5 0.4 3.9 1.3 5.3 2 3.9 2.2 9.3 1.9 11.7 -0.7z m91.7 -6.3 c3 -2.8 3.5 -8.7 1.1 -11.9 -0.8 -1.1 -1.5 -2.7 -1.5 -3.7 0 -2.8 -3.9 -6.8 -7.9 -8 -8.1 -2.4 -15.4 3.2 -15.4 11.8 0 3.6 0.5 5 3.3 7.8 1.9 1.9 4.3 3.5 5.4 3.5 1.2 0 3 0.7 4 1.5 3 2.3 7.9 1.9 11 -1z m-38.1 -14.1 c1.2 -0.7 -1.9 -4.6 -16.4 -20.4 l-17.9 -19.5 8.1 -0.3 c4.4 -0.2 11.5 -0.2 15.7 0 l7.7 0.3 -3.3 1.8 c-4.1 2.2 -6.6 7.7 -5.8 12.6 0.6 4.1 5.1 9.1 8.1 9.1 1.2 0 3 0.7 4.1 1.5 1 0.8 3.6 1.5 5.7 1.5 7 0 10.8 -7.1 7.4 -13.8 -0.8 -1.5 -2.2 -4.3 -3.1 -6.3 -1 -2 -3 -4.3 -4.4 -5 -2.6 -1.3 -2.4 -1.4 3.8 -1.7 l6.4 -0.3 7.2 7.8 c4 4.3 7.4 7.6 7.6 7.3 1.2 -1.3 4.9 -12.2 6.4 -18.5 2.4 -10 2.2 -26.8 -0.5 -36.8 -3.1 -12 -7.7 -20.3 -15.1 -27.7 -10.8 -10.8 -21.4 -15.1 -37.5 -15.1 -15.6 0 -26.2 4.1 -36.4 14.1 -7 6.9 -11.7 14.9 -15 25.3 -2.2 7.2 -2.5 10 -2.5 23.2 -0.1 16.4 1 21.6 6.6 33 5.3 10.9 12.5 18.5 22.8 24.3 3.1 1.7 5.2 2.4 14.5 4.6 3.2 0.8 24 0 25.8 -1z m65.9 -6.5 c1.1 -0.6 2.6 -2.6 3.4 -4.5 1.3 -3.2 1.3 -3.9 -0.4 -7.7 -1.1 -2.3 -2.5 -5.4 -3 -6.9 -1.6 -3.9 -5.8 -6.3 -11.1 -6.2 -3.8 0.1 -4.9 0.6 -7.8 3.7 -2.7 3.1 -3.3 4.4 -3.3 8.3 0 3.9 0.5 5.1 3.4 8 1.9 1.9 4.2 3.4 5.3 3.4 1 0 2.7 0.7 3.7 1.5 2.3 1.8 6.9 1.9 9.8 0.4z m-149.5 -5.1 c3.3 -3 3.7 -6.4 1.3 -10.5 -1.1 -1.9 -2 -4.3 -2 -5.5 0 -1.1 -1.4 -3.3 -3.1 -4.9 -2.6 -2.4 -4 -2.9 -8.1 -2.9 -4.4 0 -5.4 0.4 -8.4 3.4 -2.8 2.8 -3.4 4.2 -3.4 7.5 0 5.4 2.2 9.7 6 11.6 1.7 0.9 3 1.3 3 1 0 -0.3 1.7 0.4 3.8 1.5 4.2 2.3 7.5 2 10.9 -1.2z m-8.3 -45.9 c3 -3.5 3.3 -6.9 0.9 -10.6 -0.9 -1.4 -1.8 -3.4 -1.8 -4.4 -0.4 -4.6 -8.1 -9.3 -13.5 -8.3 -6.2 1.3 -11.4 9.5 -9.5 15.3 1.1 3.6 5.5 8.1 7.9 8.1 1.2 0 3.1 0.7 4.2 1.5 1 0.8 3.5 1.5 5.6 1.5 2.8 0 4.2 -0.7 6.2 -3.1z m169 0.5 c2.9 -3 3.3 -6.7 1.2 -11.1 -0.7 -1.5 -2 -4.1 -2.7 -5.7 -5.4 -11.4 -22.9 -7.6 -22.9 4.9 0 4.9 4.8 11.5 8.5 11.5 1.2 0 3 0.7 4.1 1.5 3.2 2.4 8.7 1.9 11.8 -1.1z m-160.6 -39.9 c3.9 -3.3 4.7 -6.7 2.5 -10.8 -0.9 -1.7 -1.6 -3.6 -1.5 -4 0.5 -1.8 -3 -6.8 -5.8 -8.2 -1.6 -0.8 -4.8 -1.5 -7.1 -1.5 -3.3 0 -4.7 0.6 -7.5 3.4 -3 3 -3.4 4 -3.4 8.6 0 4.7 0.4 5.6 3.6 8.7 2 1.9 4.1 3.2 4.8 3 0.6 -0.2 2.7 0.4 4.6 1.5 4.6 2.4 6.3 2.3 9.8 -0.7z m145.9 0.5 c5.2 -3.1 5.5 -9.7 0.7 -14.4 -0.8 -0.9 -1.1 -1.6 -0.5 -1.6 2 0 1.1 -1.9 -2.4 -5.5 -3 -2.9 -4.3 -3.5 -7.8 -3.5 -2.3 0.1 -5.2 0.6 -6.5 1.4 -3.4 1.8 -6.2 6.6 -6.2 10.6 0 5.5 5 11.9 9.5 12 1.1 0 3.1 0.7 4.5 1.5 3.4 1.9 4.9 1.8 8.7 -0.5z m-116 -33.2 c3.1 -2.9 3.6 -6.3 1.6 -10.1 -1 -1.7 -1.8 -3.7 -1.8 -4.3 -0.1 -2.4 -3.1 -6.6 -5.7 -8 -1.5 -0.8 -4.6 -1.4 -6.9 -1.4 -3.3 0 -4.7 0.6 -7.5 3.4 -3 3 -3.4 4 -3.4 8.5 0 4.5 0.4 5.4 3.6 8.6 2.3 2.3 4.2 3.4 5.1 3 0.9 -0.3 2.3 0.1 3.2 0.9 3.3 2.9 8.2 2.6 11.8 -0.6z m86.4 2.2 c1.9 0 5.9 -5.3 5.9 -7.9 0 -1.5 -0.7 -3.7 -1.6 -4.9 -0.9 -1.3 -1.7 -3.5 -1.9 -5 -0.1 -1.4 -1.7 -3.9 -3.4 -5.4 -6.2 -5.5 -16.6 -2.9 -19.1 4.8 -1.7 5.2 -0.5 9.7 3.6 13.3 1.9 1.7 3.9 2.9 4.3 2.7 0.4 -0.3 2.6 0.4 4.7 1.4 2.1 1.1 4.5 1.8 5.2 1.5 0.8 -0.3 1.8 -0.5 2.3 -0.5z m-41 -13.9 c3.4 -3.5 3.8 -7.7 1 -11.2 -1 -1.3 -1.6 -3 -1.4 -3.6 0.8 -2.2 -3.6 -7.1 -7.3 -8.3 -9 -3 -17.7 4.4 -15.9 13.7 0.7 3.9 5.8 9.3 8.8 9.3 1.2 0 3.1 0.7 4.1 1.5 3.2 2.4 7.4 1.8 10.7 -1.4z"/>
  <path d="M596.7 493 c-12 -1.9 -19.5 -4.3 -30.4 -9.6 -21.8 -10.7 -36.3 -28.6 -44.7 -55.2 -5.8 -18.5 -6.1 -22.9 -6.1 -93.2 l0 -64.5 28 0 28 0 0.5 65 c0.6 62.6 0.7 65.3 2.7 72.6 4.5 15.8 13 27.6 23.8 32.9 4.4 2.2 6.3 2.5 16.5 2.4 13.6 0 18 -1.5 26 -9 5.9 -5.5 10 -12.3 12.8 -21.4 1.1 -3.6 2.4 -7.6 2.8 -9 0.4 -1.4 1 -32 1.3 -68 l0.6 -65.5 28 0 28 0 0.3 60.5 c0.2 39.1 -0.1 63.9 -0.8 70.2 -4.8 42.7 -24.5 72.4 -56.6 85.3 -12.1 4.9 -21.5 6.6 -38.9 7 -8.8 0.2 -18.6 0 -21.8 -0.5z m27.1 -17.6 c2.5 -2.9 2.9 -7.9 0.7 -10.8 -0.8 -1.1 -1.5 -3 -1.5 -4.2 0 -1.3 -1.5 -3.5 -3.5 -5.3 -12 -10.5 -27.6 7 -16 17.9 1.4 1.3 3.3 2.4 4.2 2.5 1 0.1 3.2 0.9 4.8 1.8 3.9 2.2 8.3 1.4 11.3 -1.9z m-41.4 -13.5 c3 -3.5 3.3 -6.5 1 -9.7 -0.9 -1.3 -1.7 -3.5 -1.9 -5 -0.1 -1.4 -1.7 -3.9 -3.4 -5.4 -4.4 -4 -11.7 -4 -16.1 0 -3.3 2.9 -4.7 8.1 -3.6 12.7 0.9 3.4 5.2 7.5 8 7.5 1.2 0 3 0.7 4 1.5 1.1 0.8 3.7 1.5 5.7 1.5 2.9 0 4.3 -0.7 6.3 -3.1z m86 0.5 c2.7 -2.7 3.7 -8.6 1.6 -9.9 -0.5 -0.3 -1.4 -2.3 -2 -4.5 -1.5 -5.6 -6 -9 -11.9 -9 -7.8 0 -12.8 5.6 -11.8 13.3 0.6 4.5 5 9.7 8.2 9.7 1.2 0 3 0.7 4.1 1.5 3.2 2.4 8.7 1.9 11.8 -1.1z m-111.7 -31.9 c3.6 -2.5 4.5 -6.8 2.2 -11.1 -1 -2.1 -1.9 -4.6 -1.9 -5.5 0 -2.5 -5.5 -7.6 -9 -8.4 -3.8 -0.8 -9.6 1.9 -12.4 5.8 -4 5.4 -1.7 14.6 4.2 16.8 1.5 0.6 3.8 1.7 5.2 2.4 3.4 1.8 9.1 1.8 11.7 0z m131.7 -1.6 c3 -3.6 3.2 -5.8 0.9 -10.2 -0.9 -1.8 -1.7 -4 -1.8 -5 -0.1 -0.9 -1.2 -2.8 -2.5 -4.2 -7.5 -8 -19.7 -3.7 -20.8 7.3 -0.4 4.4 -0.1 5.2 2.8 8.5 1.8 2.1 4.2 3.7 5.4 3.7 1.1 0 3 0.7 4 1.5 1.1 0.8 3.7 1.5 5.7 1.5 2.9 0 4.3 -0.7 6.3 -3.1z m-137.3 -39.8 c3.4 -3.5 3.8 -7.7 1 -11.2 -1 -1.3 -1.6 -3 -1.4 -3.6 0.7 -2 -3.3 -6.9 -6.7 -8.3 -9.1 -3.8 -19 5 -16.6 14.6 0.9 3.4 6.2 8.4 9 8.4 1.1 0 3 0.7 4 1.5 3.2 2.4 7.4 1.8 10.7 -1.4z m142.8 0.3 c3.5 -2.9 4.1 -7.2 1.7 -12.1 -0.8 -1.5 -1.9 -4 -2.5 -5.6 -1.3 -3.3 -6.6 -6.7 -10.6 -6.7 -7.1 0 -13.4 7.6 -12 14.6 0.7 4 5.8 9.4 8.8 9.4 1.2 0 3.1 0.7 4.1 1.5 3 2.2 7.1 1.8 10.5 -1.1z m-142.1 -44 c2.5 -2.9 2.9 -7.1 0.7 -10 -0.8 -1 -1.5 -3 -1.5 -4.2 0 -1.4 -1.5 -3.9 -3.4 -5.8 -2.8 -2.8 -4.2 -3.4 -7.5 -3.4 -2.3 0 -5.5 0.7 -7 1.5 -3.2 1.6 -6.1 6.9 -6.1 11 0 4 3.7 9.4 6.8 10.1 1.5 0.3 4.3 1.4 6.2 2.5 4.4 2.4 8.7 1.8 11.8 -1.7z m143 0 c2.3 -2.6 3.1 -8.7 1.2 -9.9 -0.5 -0.3 -1.4 -2.3 -2 -4.5 -3.2 -11.7 -19.2 -12.1 -23 -0.5 -0.9 2.6 -0.9 4.4 0 7 1.2 3.6 6.5 8.9 8 8 0.5 -0.3 2.4 0.4 4.2 1.5 4.1 2.6 8.4 2 11.6 -1.6z m-143.7 -42.3 c3.4 -3.4 3.8 -7.4 1.2 -11.1 -1 -1.4 -1.6 -3.2 -1.5 -4.1 0.4 -2.1 -5.2 -7.7 -8.4 -8.5 -9.9 -2.5 -18.6 8.4 -14 17.4 1.8 3.4 6 6.7 7.4 5.8 0.4 -0.2 2.1 0.4 3.8 1.5 4.2 2.8 8 2.4 11.5 -1z m142.8 0.3 c3.5 -2.9 4.1 -7.2 1.7 -12.1 -0.8 -1.5 -1.9 -4 -2.5 -5.6 -1.3 -3.3 -6.6 -6.7 -10.6 -6.7 -4.4 0 -9.4 3.5 -11.2 7.7 -1.2 3 -1.3 4.4 -0.3 7.6 1.3 4.4 5.5 8.9 7.9 8.5 0.9 -0.1 2.7 0.5 4.1 1.5 3.5 2.4 7.4 2.1 10.9 -0.9z"/>
  <path d="M756.2 381.3 l0.3 -110.8 28.3 -0.3 28.2 -0.2 0 111 0 111 -28.5 0 -28.5 0 0.2 -110.7z m36.3 93.1 c2.6 -2.8 3.5 -8.7 1.5 -9.9 -0.5 -0.3 -1.4 -2.3 -2 -4.5 -1.5 -5.7 -6 -9 -12 -9 -4.1 0 -5.3 0.5 -7.9 3 -5.9 5.9 -4.7 15.5 2.4 18.9 1.7 0.7 4.1 2 5.5 2.6 4.5 2.3 9.8 1.8 12.5 -1.1z m-0.1 -44 c2.7 -2.7 3.7 -8.6 1.6 -9.9 -0.5 -0.3 -1.4 -2.3 -2 -4.5 -3.3 -12.4 -21.2 -12 -23.6 0.5 -0.9 4.9 1.8 10.3 6.1 12.4 1.7 0.7 4.1 2 5.5 2.6 4.4 2.3 9.4 1.8 12.4 -1.1z m-0.5 -41 c3.5 -2.9 4.1 -6.8 1.7 -11.2 -0.7 -1.5 -1.8 -4 -2.2 -5.7 -1.8 -5.9 -10.5 -9.2 -16.4 -6.2 -3.3 1.7 -7 7.4 -7 10.9 0 5.6 5.1 11.7 9.7 11.8 1 0 2.7 0.7 3.7 1.5 3 2.2 7.1 1.8 10.5 -1.1z m0.9 -44 c2.3 -2.6 3.1 -8.7 1.2 -9.9 -0.5 -0.3 -1.4 -2.3 -2 -4.5 -1.4 -5.3 -6 -9 -11.2 -9 -11.1 0 -16.7 12.3 -9.2 20.2 1.5 1.5 3.6 2.8 4.6 2.8 0.9 0 3.2 0.9 5 2 4.1 2.6 8.4 2 11.6 -1.6z m-0.7 -42.3 c3.2 -3.3 3.7 -6.7 1.5 -10.9 -0.7 -1.5 -1.8 -4 -2.2 -5.7 -0.5 -1.6 -2.4 -4 -4.3 -5.2 -6 -4 -12.6 -2.6 -16.8 3.6 -2.6 3.9 -2.9 8 -0.9 12 1.6 3 6.1 6.5 7.4 5.7 0.5 -0.3 2.1 0.4 3.8 1.5 4.2 2.8 8 2.4 11.5 -1z"/>
  <path d="M847 470.8 l0.1 -21.3 13 -16 c19.7 -24.1 63.1 -77.4 74.2 -91 5.3 -6.6 11.5 -14.1 13.7 -16.7 2.2 -2.6 4 -5.2 4 -5.7 0 -0.8 -15.3 -1.1 -50 -1.1 l-50 0 0.2 -24.2 0.3 -24.3 83.5 0 83.5 0 0.3 21.1 0.2 21.1 -12.2 16.1 c-6.8 8.8 -25.6 33.4 -41.8 54.7 -16.2 21.3 -33 43.2 -37.2 48.6 -4.3 5.5 -7.8 10.2 -7.8 10.6 0 0.5 22.7 0.7 50.5 0.5 l50.5 -0.3 0 24.6 0 24.5 -87.5 0 -87.5 0 0 -21.2z m33.5 3.7 c2.9 -2.8 3.3 -8 1 -11.1 -0.8 -1 -1.5 -2.9 -1.5 -4 0 -1.2 -1.4 -3.6 -3.2 -5.3 -2.7 -2.6 -4 -3.1 -8 -3.1 -3.9 0 -5.4 0.6 -8.2 3.1 -4.5 3.9 -5.5 8.4 -3 13.6 1.1 2.1 3.2 4.4 4.9 5.2 1.7 0.7 4.1 2 5.5 2.6 4.3 2.2 9.8 1.8 12.5 -1z m41.2 0.3 c3.3 -3.7 3.7 -6.4 1.4 -10.8 -1.1 -2.2 -1.8 -4 -1.6 -4 1.2 0 -2.6 -6 -4.7 -7.4 -1.3 -0.9 -4.3 -1.6 -7.1 -1.6 -4.2 0 -5.4 0.5 -8.3 3.4 -2.8 2.8 -3.4 4.1 -3.4 7.8 0 5.5 3 10.5 6.7 11.3 1.5 0.4 3.9 1.3 5.3 2 3.9 2.2 9.3 1.9 11.7 -0.7z m41.7 -0.9 c3 -3.5 3.3 -6.5 1 -9.7 -0.9 -1.3 -1.7 -3.5 -1.9 -5 -0.1 -1.4 -1.7 -3.9 -3.4 -5.4 -4.4 -4 -11.7 -4 -16.1 0 -3.2 2.8 -4.7 8.1 -3.6 12.5 0.8 3.2 5.4 7.7 8 7.7 1.1 0 3 0.7 4 1.5 1.1 0.8 3.7 1.5 5.7 1.5 2.9 0 4.3 -0.7 6.3 -3.1z m41 0.5 c2.7 -2.7 3.7 -8.6 1.6 -9.9 -0.5 -0.3 -1.4 -2.3 -2 -4.5 -1.5 -5.7 -5.9 -9 -12.2 -9 -4.1 0 -5.4 0.5 -7.8 2.8 -5.8 5.9 -4.5 15.7 2.5 19.1 1.7 0.7 4.1 2 5.5 2.6 4.4 2.3 9.4 1.8 12.4 -1.1z m-98.3 -34.3 c3.5 -3.5 3.8 -7.7 0.9 -11.3 -1 -1.4 -1.7 -2.8 -1.4 -3.1 1.2 -1.2 -3.1 -6.7 -6.4 -8.3 -7.5 -3.5 -16 1.4 -16.9 9.7 -0.5 5.3 2.2 10.4 6.4 12 1.6 0.6 4.2 1.7 5.8 2.4 4.9 2.2 8.3 1.8 11.6 -1.4z m25.1 -33.8 c2.8 -2.5 3.7 -6.6 2.3 -10 -0.7 -1.7 -1.8 -3.3 -2.3 -3.7 -0.6 -0.3 -0.8 -1.4 -0.5 -2.4 0.3 -1.3 -0.8 -2.9 -3.2 -5 -2.9 -2.6 -4.4 -3.2 -8.1 -3.2 -3.9 0 -5.1 0.5 -8 3.4 -3 3 -3.4 4 -3.4 8.6 0 4.4 0.4 5.6 2.9 8.1 1.7 1.6 4 2.9 5.4 2.9 1.4 0 3 0.6 3.7 1.4 2.2 2.8 7.9 2.7 11.2 -0.1z m25.9 -35.2 c3.4 -3.4 3.8 -7.4 1.2 -11.1 -1 -1.4 -1.6 -3.2 -1.5 -4 0.1 -0.9 -1.4 -3.1 -3.3 -5 -3.1 -3 -4.3 -3.5 -8.5 -3.5 -4.2 0 -5.4 0.5 -8.1 3.1 -5.9 6 -4.4 16.7 2.8 19.5 1.6 0.6 4.2 1.7 5.8 2.4 4.9 2.2 8.3 1.8 11.6 -1.4z m25.6 -34.3 c2.7 -2.5 3.1 -8.3 0.8 -11.4 -0.8 -1 -1.5 -2.8 -1.5 -3.9 -0.1 -4.7 -5.6 -8.5 -12 -8.5 -3.4 0 -4.8 0.6 -7.6 3.4 -3 3 -3.4 4 -3.4 8.4 0 4.1 0.5 5.5 2.9 8.1 1.6 1.7 3.8 3.1 4.8 3.1 1.1 0 2.8 0.7 3.9 1.5 3 2.2 9.4 1.9 12.1 -0.7z m-105.8 -33.5 c3.5 -2.9 4.3 -7.5 2 -11.7 -1 -2 -1.9 -4.4 -1.9 -5.4 0 -2.7 -5 -7 -9.2 -7.7 -11.9 -2.2 -19 14 -9.4 21.7 1.1 1 3 1.8 4.1 1.8 1.1 0 2.9 0.7 3.9 1.5 2.7 2 7.9 1.9 10.5 -0.2z m44.2 -1.2 c3.2 -3.3 3.8 -7.5 1.4 -10.7 -0.8 -1 -1.5 -2.9 -1.5 -4.1 0 -3.3 -5.4 -8 -10 -8.8 -7.9 -1.3 -15.1 6.1 -13.6 13.9 0.9 4.6 5.4 9.6 8.8 9.6 1.3 0 3.2 0.7 4.2 1.5 3.2 2.4 7.4 1.8 10.7 -1.4z m42.8 1.2 c3.5 -2.9 4.3 -7.5 2 -11.7 -1 -2 -1.9 -4.5 -1.9 -5.5 0 -2.6 -5.3 -6.9 -9.4 -7.7 -8 -1.5 -15.7 7 -13.6 14.8 1.1 3.9 6 8.8 8.9 8.8 0.9 0 2.6 0.7 3.7 1.5 2.6 2 7.7 1.9 10.3 -0.2z m44.5 -1.4 c2.9 -3.4 3.3 -7.5 1.1 -10.5 -0.8 -1 -1.5 -2.7 -1.5 -3.6 0 -2.9 -5.9 -8.7 -9.4 -9.3 -7 -1.4 -14.6 4.9 -14.6 12 0 4 3.4 9.3 6.7 10.6 1.6 0.6 3.9 1.7 5.3 2.4 1.4 0.7 4.1 1.4 6.2 1.4 2.9 0.1 4.1 -0.5 6.2 -3z"/>
  <path d="M88.4 424.5 c-6 -2.5 -8 -8.5 -4.9 -14.6 2.8 -5.3 11.7 -6.8 16 -2.5 8.2 8.2 -0.5 21.7 -11.1 17.1z"/>
  <path d="M1196.9 423.7 c-4.9 -3.3 -6.2 -6.5 -4.7 -11.3 2.6 -7.7 11.2 -10.3 16.7 -5 5.5 5.2 4.4 13.8 -2.2 16.9 -4.6 2.2 -5.7 2.1 -9.8 -0.6z"/>
  <path d="M41.4 326.6 c-2.6 -2.6 -3.4 -4.2 -3.4 -7.1 0 -2.9 0.8 -4.5 3.4 -7.1 4.3 -4.3 9 -4.6 13.4 -0.9 7.5 6.3 2.6 18.5 -7.4 18.5 -1.6 0 -3.8 -1.2 -6 -3.4z"/>
  <path d="M1243.3 328.1 c-4.4 -2.8 -5.7 -8.2 -3.4 -13.8 2.8 -6.9 13.4 -7.1 17.4 -0.3 5.5 9.3 -4.9 19.8 -14 14.1z"/>
  <path d="M92 232.2 c-1.9 -0.9 -4.3 -3.2 -5.4 -5 -1.6 -2.9 -1.7 -3.9 -0.7 -7.2 2.5 -8.3 10.7 -10.6 16.7 -4.6 5.5 5.5 4.1 13.6 -3 17 -4.1 1.9 -3.4 2 -7.6 -0.2z"/>
  <path d="M1198.3 233.2 c-3.2 -0.5 -8 -5.6 -8.5 -9 -1.2 -8.1 7.4 -14.7 14.5 -11.1 8.1 4.2 7.4 16.9 -1 19.6 -1.6 0.5 -3.8 0.7 -5 0.5z"/>
  <path d="M427.4 226.6 c-6.1 -2.7 -6 -9.1 0.1 -21.2 9.5 -19 29.6 -37 56.3 -50.6 11.6 -6 18.6 -7.5 19.8 -4.4 1.2 3.1 -8.9 17.6 -12.2 17.6 -2.3 0 -1.6 -1.6 2.7 -6.6 4.2 -4.9 6.6 -9 5.7 -9.9 -1.1 -1.1 -13.8 3.7 -21.6 8.2 -16.3 9.4 -30.7 21.8 -40.6 34.6 -10.1 13.2 -13.8 23.3 -10 27.1 3 3.1 15.4 1.3 26.9 -3.9 1.7 -0.7 5.5 -2.3 8.5 -3.6 7.1 -3 24.2 -12.3 30 -16.3 7.3 -5 15 -12.9 15 -15.5 0 -1.8 -0.4 -2.2 -1.7 -1.6 -1 0.3 -5.6 1.9 -10.3 3.5 -4.7 1.6 -14.8 5.2 -22.5 8.1 -26.6 9.8 -28 10.3 -30.1 9.5 -5 -2 16.5 -14.9 35.1 -21.2 6.6 -2.2 10.3 -2.7 21 -3.1 9.3 -0.3 15.9 -1.1 23 -2.9 23.9 -5.9 48.3 -8.2 54.5 -5.1 3.3 1.7 3.7 4.4 0.9 7.3 -2.5 2.7 -4.4 3.2 -3.5 0.9 0.3 -0.8 0.9 -2.1 1.2 -2.9 1.3 -3.4 -14.6 -4.6 -31.6 -2.6 -4.7 0.6 -14.2 2.4 -21.2 4.1 l-12.8 3.1 0 3.2 c0 2.7 -1.1 4.3 -6.3 9.3 -11.8 11.4 -38 26.4 -56.8 32.7 -11.5 3.9 -14.7 4.2 -19.5 2.2z m37.1 -34.3 c11.5 -4.2 15.4 -5.5 30.9 -10.2 3.8 -1.1 7.1 -2.3 7.4 -2.6 0.3 -0.3 -1.7 -0.5 -4.5 -0.5 -5.7 0 -19.4 3.7 -29.2 7.9 -6.4 2.8 -22.6 12 -18.6 10.6 1.1 -0.4 7.4 -2.7 14 -5.2z"/>
  <path d="M823.4 213.1 c-1.2 -0.5 -2.4 -1.6 -2.7 -2.5 -1.1 -2.8 3.7 -4.7 14.9 -6.1 5.8 -0.7 11.1 -1.8 11.7 -2.4 1.5 -1.5 -0.8 -3.8 -6.7 -6.7 l-5 -2.4 -2.8 2.7 c-3.2 3.1 -3.7 2 -0.8 -1.7 1.1 -1.4 2 -3 2 -3.6 0 -2.1 4.1 -6.4 6.1 -6.4 1.3 0 1.9 0.7 1.9 2.4 0 3 -1.7 4.4 -2.2 1.9 -0.3 -1.6 -0.5 -1.5 -1.6 0.4 -1.1 2 -0.8 2.4 4.9 5.4 4.7 2.5 6.1 3.9 6.6 6.1 l0.6 2.8 13.6 0 c11 0 14.1 0.3 16 1.6 1.6 1.2 2 1.9 1.2 2.7 -0.7 0.7 -1.6 0.6 -2.9 -0.6 -1.5 -1.4 -4.1 -1.7 -15.1 -1.7 -11.6 0 -13.6 0.2 -15.7 1.9 -5 3.9 -20.1 7.8 -24 6.2z m16.6 -5.8 l4.5 -1.3 -5.8 0.6 c-3.2 0.3 -7.5 1.2 -9.5 1.9 l-3.7 1.4 5 -0.6 c2.8 -0.4 7 -1.2 9.5 -2z"/>
  <path d="M652.5 206 c-1.5 -2.4 7.1 -17 10.1 -17 2.1 0 1.8 0.8 -2.7 7.5 -4.1 6 -4.1 6 4.1 -2.8 9.2 -9.8 13.6 -12.9 14.7 -10.1 0.3 0.9 -0.4 3.7 -1.7 6.3 -1.2 2.5 -2.9 6.2 -3.7 8.1 l-1.5 3.5 3.9 -3.6 c7.4 -6.9 7.5 -6.9 7.1 -1.8 -0.3 3.9 -0.1 4.4 1.9 4.7 1.2 0.2 4.5 -0.8 7.4 -2.2 5.4 -2.8 6.9 -3.1 6.9 -1.7 0 1.9 -11 6.2 -14.8 5.9 -3.4 -0.3 -3.7 -0.6 -4 -3.6 l-0.3 -3.2 -4.4 4.7 c-7.5 8.3 -8 3.2 -1 -10.6 1.4 -2.9 2.5 -5.5 2.2 -5.7 -0.8 -0.9 -7.1 4.8 -11.8 10.7 -9 11.3 -11 13.1 -12.4 10.9z"/>
  <path d="M569.1 201.6 c-1.9 -2.3 -0.1 -6.6 4.6 -11.4 4.2 -4.1 4.8 -4.4 8.7 -4 3.2 0.4 4.8 0 6.5 -1.3 1.3 -1.1 2.7 -1.6 3.2 -1.3 1.6 1 0.9 3.3 -2.1 6.8 -5.5 6.3 -0.4 9.8 7.5 5.2 5.4 -3.2 6.1 -1.7 0.8 1.8 -6.2 4 -8.8 4.2 -11.8 1 l-2.5 -2.7 -2.3 2 c-2.6 2.5 -8 5.3 -10 5.3 -0.8 0 -2 -0.6 -2.6 -1.4z m8.9 -4.1 c5.4 -2.7 8.1 -6.2 6 -7.5 -2.8 -1.8 -13 4.9 -13 8.4 0 2.2 1.3 2 7 -0.9z"/>
  <path d="M753 202 c-1.9 -1.2 -0.3 -4.5 4.6 -10 4.7 -5.1 8.6 -7.4 10.3 -5.7 2.9 2.9 0.5 6.3 -7.1 9.7 -2.6 1.1 -5 2.6 -5.4 3.2 -1.2 1.9 9.4 -0.1 14.8 -2.8 2.8 -1.4 5.2 -2.3 5.5 -2.1 0.9 1 -5.5 4.6 -10.7 6 -8.8 2.4 -10.4 2.7 -12 1.7z m14 -12 c0 -1.8 -1.9 -1 -5.2 2.1 l-3.3 3 4.3 -2.1 c2.3 -1.1 4.2 -2.5 4.2 -3z"/>
  <path d="M146.8 136.4 c-5.8 -3.1 -6.7 -11.2 -1.9 -16.3 6.3 -6.7 17.1 -2.3 17.1 6.9 0 5.4 -1.4 7.9 -5.5 9.6 -4.3 1.7 -6.3 1.7 -9.7 -0.2z"/>
  <path d="M1138.3 136 c-7.6 -4.6 -5.3 -17 3.4 -18.6 6.9 -1.3 12.3 3.7 12.3 11.4 0 3.2 -3 6.9 -6.7 8.3 -3.6 1.3 -5.4 1.1 -9 -1.1z"/>
  <path d="M428.8 48.2 c-3.1 -0.4 -7.6 -4.5 -8.4 -7.8 -0.9 -3.4 1.4 -9.2 4.4 -11.2 3.9 -2.6 9.7 -2.2 12.8 1 3.7 3.6 4.4 10.3 1.5 14 -2.4 2.9 -6.3 4.5 -10.3 4z"/>
  <path d="M1078.3 47.5 c-6.6 -2.8 -8.4 -10.8 -3.7 -16.4 6.5 -7.8 18 -2.9 17.7 7.6 -0.2 6.6 -7.8 11.4 -14 8.8z"/>
  <path d="M204.9 45.1 c-5.3 -5.3 -3.4 -13.7 3.7 -16.7 4.9 -2.1 6.9 -1.7 10.3 1.7 2.6 2.6 3.1 3.8 3.1 7.9 0 4.2 -0.4 5.2 -3.1 7.4 -4.4 3.7 -10.1 3.6 -14 -0.3z"/>
  <path d="M309.8 45 c-2.8 -2.8 -3 -3.6 -2.5 -7.8 1.2 -10.4 13.4 -13.6 18.8 -4.8 4.7 7.6 -0.3 15.6 -9.6 15.6 -2.7 0 -4.4 -0.8 -6.7 -3z"/>
  <path d="M530.1 46.4 c-6.4 -4.5 -5.7 -14.3 1.2 -17.7 7.3 -3.7 14.7 1.3 14.7 9.8 0 3.6 -0.5 4.8 -3.1 6.9 -3.6 3.1 -9.2 3.5 -12.8 1z"/>
  <path d="M637.9 45.1 c-5.1 -5.1 -3.1 -13.9 3.8 -16.8 4.4 -1.8 7.2 -1.2 10.6 2.3 2.2 2.1 2.7 3.6 2.7 7.4 0 4.2 -0.4 5.2 -3.1 7.4 -4.4 3.7 -10.1 3.6 -14 -0.3z"/>
  <path d="M747.1 45.1 c-7.8 -7.3 0.4 -20.7 10.6 -17.4 3.3 1.1 7.3 6.6 7.3 9.9 0 9.2 -11.1 13.8 -17.9 7.5z"/>
  <path d="M858.3 46.8 c-1.1 -0.5 -2.9 -2.5 -3.9 -4.3 -1.5 -2.9 -1.6 -3.9 -0.5 -7.4 1.4 -5 5 -7.6 10.4 -7.6 5.4 0 9.7 4.7 9.7 10.6 0 7.6 -8.4 12.3 -15.7 8.7z"/>
  <path d="M965.9 45.1 c-5.1 -5.1 -3.3 -14.7 3.2 -17 5 -1.7 6.9 -1.3 10.5 2.3 2.9 2.9 3.4 4.1 3.4 7.9 0 3.8 -0.5 4.9 -3.1 7.1 -4.4 3.7 -10.1 3.6 -14 -0.3z"/>
 </g>
</svg>