<?xml version="1.0" encoding="UTF-8" standalone="no"?>
<svg
   version="1.0"
   width="2660.6516"
   height="653.52399"
   viewBox="0 0 2660.6516 653.52399"
   preserveAspectRatio="xMidYMid meet"
   id="svg56"
   sodipodi:docname="auto-beatemup.svg"
   inkscape:version="1.1.2 (0a00cf5339, 2022-02-04, custom)"
   xmlns:inkscape="http://www.inkscape.org/namespaces/inkscape"
   xmlns:sodipodi="http://sodipodi.sourceforge.net/DTD/sodipodi-0.dtd"
   xmlns="http://www.w3.org/2000/svg"
   xmlns:svg="http://www.w3.org/2000/svg">
  <defs
     id="defs60" />
  <sodipodi:namedview
     id="namedview58"
     pagecolor="#ffffff"
     bordercolor="#666666"
     borderopacity="1.0"
     inkscape:pageshadow="2"
     inkscape:pageopacity="0.0"
     inkscape:pagecheckerboard="0"
     showgrid="false"
     inkscape:zoom="0.40097524"
     inkscape:cx="1330.5061"
     inkscape:cy="356.6305"
     inkscape:window-width="1920"
     inkscape:window-height="1017"
     inkscape:window-x="-8"
     inkscape:window-y="-8"
     inkscape:window-maximized="1"
     inkscape:current-layer="svg56" />
  <g
     fill="#ffffff"
     id="g16"
     transform="translate(-3.2921788,-1.376)">
    <path
       d="m 1399.2,628.3 c 0,-0.5 -0.1,-1.5 -0.5,-2.3 -1.5,-4.2 -7.9,-24 -8.8,-27.4 -0.5,-2.1 -1.5,-4.8 -2.1,-6 -0.7,-1.1 -1.1,-2.5 -1,-3 0.2,-0.5 -0.5,-0.3 -1.5,0.4 -1,0.8 -1.5,1 -1.1,0.6 0.4,-0.5 0.4,-1.4 -0.1,-2 -0.5,-0.6 -2.6,-7.1 -4.6,-14.4 l -3.8,-13.2 -8.6,0.5 c -4.7,0.3 -27.5,1.5 -50.6,2.5 -23.1,1.1 -45.7,2.3 -50.2,2.6 -6.4,0.5 -8.3,0.4 -8.3,-0.6 0,-1 -5.1,-1.1 -25.7,-0.5 -14.2,0.5 -28.4,0.8 -31.5,0.9 -3.2,0 -5.8,0.3 -5.8,0.8 0,0.4 -2.2,0.8 -4.9,0.8 -5.3,0 -8.4,0.8 -7.6,2 0.2,0.4 -6.2,1 -14.3,1.4 -8.1,0.3 -33.6,1.5 -56.6,2.7 -30.4,1.4 -42.1,1.7 -42.6,0.9 -0.8,-1.3 -28.2,-0.6 -47.8,1.1 -13.3,1.1 -13.5,1.1 -14.3,2.3 -0.7,0.9 -2.5,1 -36.4,2.6 -52,2.5 -145.5,7 -163,8 -24.7,1.3 -90.9,4.5 -144.5,7 -23.4,1.1 -55.5,2.7 -71.5,3.5 -15.9,0.8 -43.6,2.2 -61.5,3 -17.9,0.8 -40.8,2 -51,2.5 -10.2,0.6 -37.8,1.9 -61.5,3 -23.6,1.1 -46.8,2.2 -51.5,2.5 -4.7,0.3 -32.1,1.7 -61,3 -28.9,1.4 -57.4,2.8 -63.4,3.1 -7.9,0.5 -10.7,0.4 -10.2,-0.4 0.9,-1.5 -15.2,-1.9 -33.4,-1 -25.5,1.3 -48.6,1.4 -50.1,0.1 -0.8,-0.6 -4.5,-1.7 -8.2,-2.4 -3.7,-0.7 -6.7,-1.5 -6.7,-1.9 0,-0.4 -3.1,-1.3 -7,-2 -3.8,-0.7 -7,-1.6 -7,-2 0,-0.4 -3.4,-1.3 -7.5,-2 -4.1,-0.7 -7.5,-1.6 -7.5,-2 0,-0.4 -3.4,-1.3 -7.5,-2 -4.1,-0.7 -7.5,-1.6 -7.5,-2 0,-0.4 -3.4,-1.3 -7.5,-2 -4.1,-0.7 -7.5,-1.6 -7.5,-2 0,-0.4 -3.4,-1.3 -7.5,-2 -4.1,-0.7 -7.5,-1.6 -7.5,-2 0,-0.4 -2.1,-1.1 -4.8,-1.5 -2.6,-0.4 -5.2,-1.1 -5.9,-1.7 -0.7,-0.5 -1.7,-0.7 -2.3,-0.3 -0.6,0.4 -1.6,0.2 -2.3,-0.3 -0.7,-0.5 -4.5,-1.5 -8.5,-2.3 -7.1,-1.2 -7.4,-1.3 -6.9,-3.8 0.4,-2.5 4.5,-21.9 8.7,-41.1 1.1,-5.2 3.4,-16 5,-24 1.7,-8 4.4,-20.8 6,-28.5 4.2,-19.4 7.1,-33.3 8,-38 0.7,-3.8 4.7,-22.4 9,-42.5 2.8,-13.4 12.8,-60.5 16,-76 1.1,-5.2 3.4,-16 5.1,-24 1.7,-8 3.5,-16.3 3.9,-18.5 0.4,-2.2 2.6,-12.8 4.9,-23.5 2.3,-10.7 4.7,-21.7 5.2,-24.5 0.6,-2.7 1.5,-6.8 2,-9 1.8,-8.4 6.2,-2.9 -44.7,-55.1 C 2,119.5 2,119.6 3.8,118.9 c 1,-0.3 10.7,-0.9 21.7,-1.2 11,-0.3 29.9,-1.1 42,-1.7 42.8,-2 67.3,-3.1 90,-4 12.7,-0.5 32.9,-1.4 45,-2 12.1,-0.6 32.1,-1.5 44.5,-2 12.4,-0.5 32.2,-1.4 44,-2 11.8,-0.5 37.7,-1.6 57.5,-2.5 19.8,-0.8 44.6,-1.9 55,-2.5 10.5,-0.5 26.4,-1.2 35.5,-1.5 9.1,-0.3 25.5,-1 36.5,-1.6 11,-0.5 30.1,-1.4 42.5,-1.9 50.3,-2 94,-4 103,-4.5 5.2,-0.3 20.1,-1 33,-1.5 12.9,-0.5 42.9,-1.9 66.5,-3 23.7,-1.2 53.8,-2.5 67,-3 26.7,-1 86.6,-3.6 102,-4.5 5.5,-0.3 20.8,-1 34,-1.5 13.2,-0.5 33.9,-1.4 46,-2 12.1,-0.5 32.8,-1.5 46,-2 13.2,-0.6 33.7,-1.5 45.5,-2 11.8,-0.5 32.1,-1.4 45,-2 12.9,-0.6 32.7,-1.5 44,-2 34.1,-1.6 111.1,-5.1 134,-6 11.8,-0.5 42.4,-1.8 68,-2.9 25.6,-1.2 58.9,-2.7 74,-3.3 15.1,-0.7 32.7,-1.3 39,-1.3 h 11.5 l 2.7,7.9 c 1.5,4.3 3.1,8.3 3.6,8.8 0.7,0.7 2.4,-2 5.1,-7.5 2.3,-4.7 4.1,-9 4.1,-9.6 0,-0.6 0.8,-1.1 1.8,-1.2 0.9,0 9.6,-0.4 19.2,-1 9.6,-0.5 28.5,-1.3 42,-1.9 13.5,-0.5 34.4,-1.4 46.5,-2 50,-2.3 67.2,-3.1 91,-4 13.8,-0.4 28.4,-1.1 32.5,-1.4 4.1,-0.3 19.9,-1 35,-1.6 15.1,-0.6 35.4,-1.5 45,-2 9.6,-0.5 29,-1.4 43,-2 50.8,-2 72.9,-3 92,-4 25.6,-1.4 84.2,-3.9 115,-5 13.5,-0.5 28.1,-1.1 32.5,-1.4 4.4,-0.3 20.6,-1.1 36,-1.6 15.4,-0.6 30.9,-1.3 34.5,-1.5 3.6,-0.3 18.5,-1 33.3,-1.5 14.7,-0.5 29.1,-1.3 32,-1.6 l 5.2,-0.6 7.8,8.2 c 7.4,7.8 8,8.2 11.2,7.7 1.9,-0.3 4.9,-1.2 6.7,-2 1.8,-0.8 6,-2.4 9.3,-3.6 3.3,-1.2 7.5,-2.9 9.3,-3.7 1.8,-0.8 3.7,-1.4 4.3,-1.4 0.6,0 2.5,-0.6 4.2,-1.4 13.8,-6 17.2,-6.6 43.2,-7.6 24.1,-0.9 45,-1.8 92,-4 12.1,-0.6 32.6,-1.5 45.5,-2 12.9,-0.5 33.6,-1.4 46,-2 12.4,-0.6 32.2,-1.5 44,-2 11.8,-0.5 31.9,-1.4 44.5,-2 54.7,-2.4 67,-2.9 67.4,-2.5 0.2,0.2 -0.3,1.9 -1.2,3.7 -0.8,1.8 -3.2,6.8 -5.1,11.1 -2,4.2 -5.2,11.2 -7.2,15.5 -1.9,4.2 -4.3,9.3 -5.1,11.2 -0.9,1.9 -3.5,7.6 -5.8,12.5 -2.4,5 -5.3,11.3 -6.5,14 -4.2,9.5 -7,15.5 -10.4,22.7 -1.8,4 -4.5,9.8 -5.9,12.8 -1.3,3 -3.9,8.5 -5.6,12.3 -1.7,3.7 -4.4,9.6 -6.1,13.2 -1.6,3.6 -4.3,9.4 -6,13 -1.6,3.6 -4.4,9.5 -6.1,13.3 -1.7,3.7 -4.2,9.1 -5.5,11.9 -4,8.8 -7,15.4 -11.3,24.6 -2.3,4.9 -4.1,9.3 -4.1,9.7 0,0.7 2.3,3.3 15.1,16.5 l 4.9,5.1 -1.5,6.9 c -0.9,3.9 -2,9 -2.4,11.5 -0.5,2.5 -1.9,9 -3.1,14.5 -1.2,5.5 -2.6,11.8 -3,14 -0.4,2.2 -1.8,8.7 -3,14.5 -1.2,5.8 -2.6,12.3 -3,14.5 -0.4,2.2 -1.7,8.3 -2.9,13.5 -1.2,5.2 -2.6,11.8 -3.1,14.6 -0.4,2.8 -1.4,7.1 -2,9.5 -0.7,2.3 -1.5,6.3 -2,8.8 -0.4,2.6 -1.8,9.3 -3,15.1 -2.6,12 -3.5,16.5 -5,23.5 -0.5,2.8 -1.4,6.8 -1.9,9 -0.5,2.2 -1.2,5.6 -1.6,7.5 -0.3,1.9 -1,5.3 -1.5,7.5 -0.9,3.8 -2.7,12.6 -7.1,33.5 -1.1,5.2 -2.4,11.3 -2.9,13.5 -0.4,2.2 -1.4,6.6 -2.1,9.8 -1.1,5 -1.5,5.7 -3.6,5.7 -1.2,0 -2.3,0.4 -2.3,0.8 0,0.5 -3,1.4 -6.7,2.1 -3.8,0.8 -7.2,1.7 -7.8,2.1 -0.5,0.4 -2.6,1.1 -4.5,1.5 -1.9,0.3 -6.4,1.6 -10,2.7 -3.6,1 -9,2.7 -12,3.6 -3,0.9 -5.9,2 -6.4,2.4 -0.6,0.4 -2.1,0.8 -3.4,0.8 -2.4,0 -11.6,2.5 -14.3,4 -0.9,0.5 -3.4,1.2 -5.5,1.6 -2.2,0.4 -5,1.2 -6.4,1.9 -1.4,0.7 -4.3,1.6 -6.5,2 -2.2,0.4 -4.4,1 -5,1.5 -0.5,0.4 -3.5,1.3 -6.5,2 -3,0.7 -7,1.9 -8.8,2.7 -3.7,1.5 -10.7,2.5 -38.6,5.2 -4.9,0.5 -9.1,1.3 -9.5,1.9 -0.6,1 -8.6,1.5 -105.6,6.3 -149.5,7.3 -160,7.7 -160.7,6.6 -1.2,-1.9 -85.5,0.9 -126.8,4.3 -24.1,2 -28.5,2.5 -28.3,3.6 0.1,0.7 -9.2,1.5 -27,2.2 -15,0.7 -39.6,1.9 -54.6,2.7 -15.1,0.8 -47.3,2.4 -71.5,3.5 -24.3,1.1 -47.9,2.2 -52.6,2.5 -4.7,0.3 -31.9,1.7 -60.5,3.1 -79.3,3.7 -170.7,8.2 -203,9.9 -15.9,0.8 -31.4,1.5 -34.2,1.5 h -5.3 l -14.5,22.1 c -11.5,17.5 -14.9,21.9 -16.3,21.5 -1.3,-0.4 -2.9,1.3 -6.9,7.2 -2.8,4.2 -6.1,8.8 -7.2,10.1 -1.2,1.4 -3.4,4.4 -4.9,6.8 -2.4,3.8 -4.5,5.6 -4,3.6 z M 206.7,603 c 12.1,-0.5 27.4,-1.3 34,-1.9 6.5,-0.6 26.7,-1.6 44.8,-2.1 18.2,-0.6 35.7,-1.5 39,-2 3.3,-0.5 20.2,-1.4 37.5,-2 17.3,-0.5 41.9,-1.7 54.5,-2.5 12.7,-0.8 36.3,-2 52.5,-2.5 16.2,-0.6 32.7,-1.5 36.5,-1.9 3.9,-0.5 22.1,-1.4 40.5,-2 18.4,-0.6 39.1,-1.6 46,-2.2 6.9,-0.5 29.4,-1.6 50,-2.4 20.6,-0.8 41.8,-1.9 47,-2.4 5.2,-0.6 24.8,-1.5 43.5,-2.1 18.7,-0.6 38.3,-1.5 43.5,-2 5.2,-0.5 23.5,-1.4 40.5,-2 17.1,-0.6 36,-1.5 42,-2.1 6.1,-0.5 27.7,-1.6 48,-2.4 20.4,-0.7 42.9,-1.8 50,-2.4 7.2,-0.6 27.4,-1.6 45,-2.2 17.6,-0.6 35.4,-1.4 39.6,-1.9 4.2,-0.5 21.5,-1.4 38.5,-2 17,-0.6 36.5,-1.5 43.4,-2.1 6.9,-0.5 26,-1.4 42.5,-1.9 16.5,-0.6 36.1,-1.5 43.5,-2 21.1,-1.5 46.1,-2.9 75.5,-4.1 14.9,-0.6 31.7,-1.4 37.5,-1.9 5.8,-0.4 20.5,-0.8 32.8,-0.9 23.2,-0.1 26.8,0.4 31.4,4.6 1,0.9 1.8,1.4 1.8,1.2 0,-0.2 -1.8,-5.8 -3.9,-12.4 l -3.8,-12 -10.4,0.2 c -10.6,0.2 -66.2,2.5 -104.4,4.3 -11.5,0.6 -41.7,1.9 -67,3 -25.3,1.1 -56.1,2.4 -68.5,3 -25,1.1 -55.4,2.5 -91,4 -12.9,0.6 -32.7,1.5 -44,2 -11.3,0.6 -36.2,1.7 -55.5,2.5 -52.2,2.2 -113.7,4.9 -193,8.5 -45.6,2.1 -112.9,5 -158,7 -25.3,1.1 -56.3,2.5 -69,3 -12.6,0.6 -33.1,1.5 -45.5,2 -12.4,0.6 -32.4,1.5 -44.5,2 -38.1,1.7 -64.9,2.9 -100.5,4.5 -53.7,2.3 -79.7,3.4 -103,4.5 -11.8,0.6 -36.8,1.7 -55.5,2.5 -74,3.2 -81.9,3.6 -82.2,3.8 -0.1,0.2 5.5,1.8 12.5,3.6 7,1.9 19.7,5.4 28.2,7.8 27.2,7.7 33,8.1 77.7,6.3 z M 202,555 c 38.2,-1.6 90,-3.9 115,-5 25,-1.1 55.2,-2.4 67,-3 11.8,-0.5 42.2,-1.9 67.5,-3 25.3,-1.1 55.9,-2.5 68,-3 12.1,-0.6 48.6,-2.1 81,-3.5 32.5,-1.3 67.8,-2.9 78.5,-3.5 10.7,-0.6 35.5,-1.7 55,-2.5 19.5,-0.9 65.4,-2.9 102,-4.5 36.6,-1.6 87.4,-3.9 113,-5 25.6,-1.1 56.2,-2.5 68,-3 11.8,-0.6 51.9,-2.3 89,-4 94.4,-4.1 197.7,-8.7 249,-11 23.9,-1.1 43.8,-1.6 44.1,-1.2 0.4,0.4 3.9,10.7 7.9,23 l 7.2,22.3 3.2,-4.3 c 1.8,-2.4 9.5,-12.8 17.1,-23.3 7.6,-10.4 14.2,-19.4 14.5,-19.8 0.7,-0.8 25.8,-2.1 132.5,-6.6 63.9,-2.8 64.5,-2.8 64.5,-5.1 0,-3.9 1.1,-5 5,-5 3.1,0 4.3,0.6 6.4,3.2 l 2.5,3.2 53.3,-2.3 c 29.3,-1.2 67.3,-2.9 84.3,-3.7 17.1,-0.8 57.1,-2.5 89,-3.9 96.7,-4.2 146.5,-6.4 157.1,-7 l 10.2,-0.7 0.6,-3.1 c 1.4,-7.3 22,-105.2 22.2,-105.6 0.4,-0.4 80.6,-4 92.2,-4.1 h 9.2 v 3 c 0,2.3 -8.1,15.6 -33.3,54.3 -18.4,28.2 -33.6,51.7 -34,52.2 -0.3,0.6 1.6,0.9 5.1,0.8 3.2,-0.2 26.4,-1.2 51.7,-2.3 64.5,-2.8 124.8,-5.5 205.5,-9 38.2,-1.7 87.2,-3.9 108.7,-4.8 21.6,-1 39.7,-2.2 40.1,-2.7 0.5,-0.6 9.1,-40.1 19.2,-88 10,-47.8 20.4,-97.1 23.1,-109.5 l 4.7,-22.5 -10.4,-10.5 c -9.6,-9.7 -10.4,-10.8 -10.4,-14.4 0,-3 9.3,-24.1 41.1,-93.3 22.7,-49.1 41,-89.5 40.8,-89.6 -0.4,-0.3 -17.5,0.4 -58.9,2.2 -25.1,1.2 -54.2,2.5 -92,4.1 -12.9,0.6 -33.4,1.5 -45.5,2 -30.9,1.5 -59.4,2.7 -92,4 -15.4,0.6 -29.4,1.3 -31,1.5 -2.1,0.4 -10.4,6.6 -26.5,20 -20.9,17.2 -23.9,19.4 -27.1,19.5 -3.5,0 -4.7,-1 -20.5,-17.6 l -16.9,-17.7 -18.5,0.7 c -10.2,0.4 -27.7,1.1 -39,1.6 -27.1,1.3 -58.7,2.7 -102,4.5 -19.5,0.8 -44.9,1.9 -56.5,2.5 -11.5,0.6 -42.4,1.9 -68.5,3 -26.1,1.1 -56.3,2.4 -67,3 -10.7,0.5 -30.3,1.4 -43.5,2 -13.2,0.5 -28.5,1.2 -34,1.5 -5.5,0.3 -21,1 -34.5,1.5 -13.5,0.6 -44.7,1.9 -69.5,3 -46.1,2.1 -65.2,3 -116,5 -15.9,0.7 -30.2,1.5 -31.7,1.9 -2.1,0.5 -7.9,7.8 -26.5,33.1 -22.9,31.2 -23.9,32.5 -27.3,32.8 l -3.6,0.3 -10.4,-31.6 -10.3,-31.6 -9.1,0.6 c -5,0.3 -20.3,1 -34.1,1.5 -13.7,0.6 -34.2,1.5 -45.5,2 -11.3,0.5 -31.7,1.4 -45.5,2 -58.9,2.4 -73.1,3.1 -92,4 -11,0.6 -40.7,1.9 -66,3 -25.3,1.1 -55.4,2.4 -67,3 -11.5,0.5 -26.8,1.2 -34,1.5 -7.1,0.3 -22.7,1 -34.5,1.6 -11.8,0.5 -32.1,1.4 -45,1.9 -41.5,1.7 -93,3.9 -113,4.9 -20.7,1.1 -51.7,2.5 -92.5,4.1 -13.7,0.6 -33.5,1.4 -44,2 -20.6,1 -31.6,1.5 -157.5,7 -38.6,1.7 -67.7,3 -90.5,4 -12.1,0.6 -42.9,1.9 -68.5,3 -70.6,3 -71.2,3 -91,4 -10.2,0.6 -29.5,1.5 -43,2 -13.5,0.6 -33.9,1.5 -45.5,2 -11.5,0.5 -31.6,1.4 -44.5,2 -50.9,2.3 -90.7,4 -117.5,5.1 -15.4,0.6 -28.3,1.4 -28.7,1.8 -0.4,0.4 16.1,18 36.7,39.1 27.6,28.5 37.4,39.1 37.5,40.9 0,1.3 -4.8,24.9 -10.6,52.5 -5.8,27.5 -12.3,58.7 -14.5,69.1 -4,19.3 -9.4,44.7 -12.9,61 -1,5 -3.7,17.8 -6,28.5 -2.2,10.7 -5,23.8 -6.1,29 -7.2,33.8 -12.4,58.4 -16.8,79.5 C 57,548 54.9,557.6 54.5,559 l -0.6,2.5 39.3,-1.7 c 21.6,-0.9 70.6,-3.1 108.8,-4.8 z m 1288.5,-15.1 c 6.1,-0.5 28.3,-1.6 49.5,-2.4 21.2,-0.8 43.9,-1.9 50.5,-2.5 10.8,-0.9 52.5,-2.8 106.5,-5 37.8,-1.6 63.1,-2.9 64,-3.5 0.4,-0.3 19.4,-1.2 42.2,-2 22.7,-0.8 46.5,-1.9 52.8,-2.4 6.3,-0.6 25.9,-1.5 43.5,-2.1 17.6,-0.7 35.2,-1.5 39,-2 3.9,-0.5 21.6,-1.3 39.5,-1.9 17.9,-0.6 42.2,-1.8 54,-2.6 11.8,-0.8 34.8,-1.9 51,-2.5 16.2,-0.6 33.3,-1.5 38,-2 4.7,-0.5 23.4,-1.4 41.5,-2 18.2,-0.6 38,-1.5 44,-2 6.1,-0.5 24.7,-1.4 41.5,-2 16.8,-0.6 39.3,-1.7 50,-2.5 10.7,-0.8 33,-1.9 49.5,-2.5 37.9,-1.3 65.6,-3.5 76.5,-6.1 9.3,-2.2 38.2,-10.8 39,-11.6 0.3,-0.3 -4.4,-0.3 -10.5,0.1 -6,0.4 -21.3,1.1 -34,1.6 -22.7,1 -92.9,4.1 -136.5,6 -12.4,0.6 -37.8,1.7 -56.5,2.5 -18.7,0.8 -43.9,1.9 -56,2.5 -35.6,1.6 -65.4,2.9 -91,4 -13.2,0.6 -33.4,1.5 -45,2 -11.5,0.6 -41.7,1.9 -67,3 -25.3,1.1 -55,2.4 -66,3 -11,0.6 -36.4,1.7 -56.5,2.5 -43,1.8 -66,2.8 -126,5.5 -24.5,1.1 -54.8,2.5 -67.5,3 -12.6,0.5 -43.2,1.9 -68,3 -24.7,1.1 -55.3,2.4 -68,3 -12.6,0.5 -28.9,1.3 -36.1,1.6 l -13.1,0.7 -5.9,8.1 c -3.3,4.4 -6.1,8.4 -6.3,8.9 -0.3,0.9 19.7,0.2 37.4,-1.4 z m 617.4,-115.7 c 13.4,-20.5 24.2,-37.5 24,-37.7 -0.5,-0.4 -33.2,1.5 -33.7,2 -0.3,0.3 -2.6,10.7 -8.2,37 -3.2,15.2 -7,32.9 -7.6,35.5 -0.3,1.5 -0.2,2.1 0.4,1.5 0.4,-0.5 11.8,-17.8 25.1,-38.3 z m -610,-345.3 c 2.8,-3.8 4.9,-7.4 4.6,-7.9 -0.3,-0.6 -3.2,0.9 -6.3,3.2 -3.1,2.3 -5.9,4.3 -6,4.4 -0.4,0.3 1.8,7.4 2.3,7.4 0.1,0 2.6,-3.2 5.4,-7.1 z"
       id="path2" />
    <path
       d="m 116.7,508.3 c -1.1,-1.1 -0.8,-4.7 1.2,-14 2.4,-10.5 4.1,-18.6 12.1,-56.8 3.4,-15.9 8.6,-40.7 11.6,-55 3,-14.3 7.3,-34.3 9.4,-44.5 2.1,-10.2 6.6,-31.5 10,-47.5 3.4,-15.9 7.7,-36.4 9.6,-45.4 1.9,-9.1 3.6,-16.6 3.8,-16.9 0.2,-0.2 5.5,-0.6 11.7,-0.8 18.3,-0.8 18.5,1.1 -2,-20.1 -16.1,-16.6 -18.1,-19 -18.1,-22 0,-2.7 0.4,-3.3 2.1,-3.3 1.2,0 10.8,-0.5 21.3,-1 10.5,-0.6 45.2,-2.2 77.1,-3.5 31.9,-1.4 72.4,-3.2 90,-4 17.6,-0.8 35.7,-1.5 40.2,-1.5 h 8.3 l 22.2,22.5 c 12.3,12.5 22.7,23.7 23.2,25 0.7,1.7 -1.2,12.3 -7.3,41.2 -4.5,21.3 -8.6,40 -9,41.4 -0.5,1.4 -7.8,9.3 -16.2,17.6 l -15.4,15.2 9.8,9.9 c 7.5,7.6 9.7,10.5 9.7,12.6 0,2.3 -6.6,34.6 -19.9,97 -1.6,7.6 -3.3,14.2 -3.8,14.6 -0.4,0.4 -12.3,7.4 -26.3,15.5 l -25.5,14.8 -29.5,1.3 c -16.2,0.7 -45,2 -64,2.9 -19,0.8 -54.5,2.4 -78.9,3.5 -48,2.2 -56.4,2.4 -57.4,1.3 z m 167.2,-96.4 c 14.1,-0.6 25.9,-1.4 26.2,-1.7 0.7,-0.9 6.1,-26.4 5.6,-26.8 -0.3,-0.3 -54.3,1.9 -70.1,2.9 l -4,0.2 -2.8,13.5 c -1.5,7.4 -2.8,13.7 -2.8,13.9 0,0.2 5,0.1 11.2,-0.2 6.1,-0.4 22.6,-1.2 36.7,-1.8 z M 292,294 c 12.4,-0.5 27.2,-1.2 33,-1.6 l 10.6,-0.6 2.7,-13.5 c 1.6,-7.4 2.7,-13.6 2.5,-13.7 -0.8,-0.6 -72.8,3.1 -73.5,3.8 -0.4,0.4 -2,6.6 -3.4,13.7 l -2.6,12.9 h 4.1 c 2.3,0 14.2,-0.5 26.6,-1 z"
       id="path4" />
    <path
       d="m 409,491.8 c 0,-2.4 1.1,-9.6 2.5,-15.9 1.3,-6.3 6,-28.7 10.5,-49.9 4.4,-21.2 8.7,-41.4 9.5,-45 0.8,-3.6 6.8,-32.1 13.4,-63.5 6.6,-31.3 13.4,-63.5 15.1,-71.5 1.7,-8 3.8,-17.9 4.6,-22 0.9,-4.1 1.9,-7.8 2.2,-8.2 0.4,-0.4 6.9,-1 14.5,-1.4 l 13.9,-0.7 -18.6,-18.6 C 459.1,177.6 458,176.3 458,172.7 c 0,-3.7 0,-3.7 4.3,-3.7 3.8,0 54.3,-2.2 117.2,-5 73.3,-3.3 114.1,-5.1 129.9,-5.7 l 17.9,-0.6 -0.7,8 C 726.1,172 707,266 700.9,292.3 c -1.1,4.6 -1.2,4.7 -4.9,4.7 -3.7,0 -4.6,-0.8 -21.7,-18.5 -9.8,-10.2 -20.1,-20.5 -22.9,-22.9 l -5.1,-4.5 -43.3,2 c -23.9,1.1 -43.6,2.2 -43.8,2.4 -0.6,0.6 -8.1,35.9 -7.7,36.3 0.2,0.2 16.5,-0.4 36.2,-1.2 19.7,-0.9 38.2,-1.6 41.2,-1.6 h 5.4 l -0.6,6.8 c -0.4,3.7 -3.2,18.6 -6.2,33.2 -3.1,14.6 -6.5,31 -7.6,36.5 -3,15 -2.6,14.5 -10.6,14.5 -8.5,0 -76.7,3.1 -77.1,3.5 -0.6,0.6 -4,17 -3.6,17.4 0.2,0.2 23.2,-0.6 51,-1.7 L 630.2,397 654,378 c 21,-16.8 24.2,-19 27.4,-19 4.3,0 4.4,0.7 1.9,14.4 -2.3,12.7 -23,111.6 -23.4,112 -0.2,0.2 -11.9,0.9 -25.9,1.5 -14,0.6 -40.3,1.8 -58.5,2.6 -18.1,0.8 -53,2.4 -77.5,3.5 -24.5,1.1 -54.5,2.3 -66.7,2.7 l -22.3,0.6 z"
       id="path6" />
    <path
       d="m 676,479.6 c 0,-2.5 0.9,-8.4 2,-13.3 1,-4.8 4.6,-21.6 7.9,-37.3 3.3,-15.7 9.6,-45.8 14.1,-67 4.5,-21.2 10.4,-49.3 13.2,-62.5 2.8,-13.2 5.1,-24.1 5.2,-24.1 0,-0.1 17.2,-0.9 38.1,-1.8 20.9,-0.9 46.1,-2.1 56,-2.6 9.9,-0.5 32.2,-1.5 49.5,-2.1 17.3,-0.7 31.8,-1.5 32.2,-1.8 1,-0.9 6.2,-26.1 5.5,-26.8 -0.4,-0.3 -16.9,0.2 -36.9,1.1 -20,0.9 -48.9,2.1 -64.3,2.7 l -28,1.2 -11,5 c -23.4,10.6 -31.1,13.7 -34.2,13.7 -3.1,0 -3.3,-0.2 -3.3,-3.2 0,-3.8 20.9,-103 21.9,-103.9 0.3,-0.3 18.6,-1.4 40.6,-2.3 22,-0.9 48.8,-2.1 59.5,-2.6 10.7,-0.5 42,-1.9 69.6,-3 l 50.1,-2.2 22.9,23.2 c 18.3,18.5 23,23.8 23.2,26.2 0.2,1.6 -1,9.3 -2.7,17.1 -1.6,7.8 -7.3,34.5 -12.5,59.2 -13.9,65.7 -23.8,112.7 -33.6,159 l -8.7,41 -34.4,1.7 c -18.9,0.9 -41.5,1.7 -50.1,1.7 L 852,476 v -2.9 c 0,-2.9 3,-17.8 15.9,-79.1 3.9,-18.4 7.1,-33.9 7.1,-34.5 0,-1.1 -0.5,-1.1 -44.3,0.9 -15.8,0.7 -29,1.6 -29.3,1.9 -0.3,0.3 -4.6,19.6 -9.5,42.9 -5,23.3 -10.5,49.4 -12.3,58.2 -1.9,8.7 -3.9,16.2 -4.5,16.5 -1.1,0.7 -77.9,4.2 -91.3,4.1 H 676 Z"
       id="path8" />
    <path
       d="m 1048.8,467.5 c -0.5,-0.5 -0.8,-1.7 -0.8,-2.8 0,-1.1 7.5,-37.3 16.6,-80.6 9.1,-43.2 18.3,-86.9 20.4,-97.1 2.1,-10.2 5.7,-26.8 7.8,-37 2.2,-10.2 3.9,-18.5 3.8,-18.6 0,-0.1 -7.3,0.3 -16.1,0.7 -8.8,0.4 -27.2,1.1 -40.9,1.5 l -24.9,0.7 0.6,-4.9 c 0.3,-2.7 2.8,-15.4 5.6,-28.3 l 5,-23.4 L 1014,165 c -10.8,-11.5 -12,-13.1 -12,-16.4 V 145 h 4.8 c 2.6,0 24.5,-0.9 48.7,-2 24.2,-1.1 69.9,-3.1 101.5,-4.4 31.6,-1.4 67.4,-3 79.5,-3.6 12.1,-0.6 31,-1.5 42,-2 19.9,-0.9 44.1,-2.1 82,-4 11,-0.6 30.4,-1.3 43.1,-1.7 l 23.1,-0.6 3,8.4 c 1.7,4.6 9.8,29.1 18.1,54.4 8.3,25.3 23.2,70.8 33.1,101.2 10,30.4 18.1,56.8 18.1,58.7 0,2.9 -4.3,9.3 -29.6,43.8 -16.3,22.2 -30.5,41.3 -31.7,42.6 -1.3,1.4 -3.2,2.2 -5.3,2.2 h -3.2 l -4,-12.2 c -2.2,-6.8 -11.1,-33.9 -19.7,-60.3 -18.5,-56.9 -17.6,-54.4 -18.7,-51.9 -0.4,1 -7.1,32.3 -14.8,69.4 -7.8,37.1 -14.5,68.4 -14.9,69.6 -0.9,1.9 -2.1,2.1 -26.7,3.3 -14.3,0.6 -36.8,1.5 -50.1,1.8 l -24.3,0.6 v -2.7 c 0,-1.5 0.4,-4.6 1,-6.9 0.8,-3.6 6.3,-29.6 13.9,-65.7 1.1,-5.2 8.3,-39.6 16.1,-76.5 7.8,-36.8 15,-71.3 16.1,-76.5 1.1,-5.2 4.5,-21.2 7.5,-35.5 3,-14.3 5.7,-27.1 6,-28.5 0.4,-2 -0.5,-3.5 -4.6,-7.5 -3.1,-3 -5.3,-4.5 -5.9,-4 -0.5,0.6 -3.9,15.4 -7.6,33 -3.6,17.6 -6.9,32.8 -7.1,33.8 -0.4,1.3 -1.7,1.7 -5.7,1.7 -15.3,0.1 -86,3.9 -86.6,4.6 -0.4,0.5 -7.4,32.2 -15.4,70.4 -25.6,121.8 -34.9,165.5 -35.2,165.8 -1.1,1.2 -98.7,4.7 -99.7,3.7 z"
       id="path10" />
    <path
       d="m 1506,443.4 c 0,-2.2 1.3,-10.2 2.9,-17.9 1.7,-7.7 8,-37.6 14.1,-66.4 6,-28.8 10.8,-52.6 10.6,-52.8 -0.2,-0.2 -4.1,4.6 -8.7,10.8 -4.6,6.1 -8.9,11.8 -9.5,12.5 -0.6,0.8 -2.7,1.4 -4.7,1.4 -2.8,0 -3.7,-0.5 -4.2,-2.2 -0.4,-1.3 -7.2,-22.3 -15.2,-46.7 -8.7,-26.6 -14.3,-45.4 -14.1,-47 0.2,-1.4 18.9,-27.8 41.6,-58.7 l 41.1,-56 26.3,-1.3 c 33.7,-1.5 63.2,-2.8 98.3,-4.1 15.4,-0.6 35.7,-1.5 45,-2 9.4,-0.5 26.6,-1.3 38.4,-1.6 l 21.4,-0.7 -0.7,7.4 c -0.3,4.1 -11.1,57.1 -23.9,117.9 l -23.3,110.5 5.1,0.3 c 5.7,0.4 60.2,-1.6 65.6,-2.4 l 3.6,-0.5 2.2,-10.7 c 1.2,-5.9 6.3,-29.8 11.2,-53.2 16.8,-79.3 19.8,-93.5 25.3,-119.5 3,-14.3 6.8,-32.1 8.3,-39.5 l 2.8,-13.5 8.5,-0.7 c 4.7,-0.4 25.2,-1.5 45.5,-2.3 20.4,-0.9 45.8,-2 56.5,-2.5 10.7,-0.6 40.2,-1.9 65.5,-3 25.3,-1.1 55.7,-2.5 67.5,-3 11.8,-0.5 37.4,-1.7 56.9,-2.5 l 35.5,-1.6 23.3,23.3 c 19.9,19.9 23.3,23.7 23.3,26.3 0.1,1.6 -6.1,32.4 -13.7,68.3 l -13.8,65.3 -16.7,16.6 c -9.2,9.2 -17.3,17 -18,17.4 -0.7,0.4 -18.4,1.4 -39.3,2.3 -20.9,1 -52.2,2.4 -69.5,3.1 -17.3,0.8 -33.4,1.5 -35.7,1.5 -4.1,0 -4.1,0 -5.1,4.8 -13.3,64.1 -21.8,102.9 -22.6,103.8 -1.1,1.2 -67.2,4.4 -88.8,4.4 H 1914 v -3.7 c 0,-3 7.4,-38.9 32.1,-155.8 1.6,-7.7 3.8,-18.1 4.9,-23.1 3.8,-18.2 11.4,-54.4 16,-75.9 l 4.6,-22 10.5,-0.6 c 5.7,-0.4 12.2,-0.7 14.4,-0.8 l 4,-0.1 -17.5,-17.5 C 1965.5,112 1964.1,111 1964,117 c 0,1.4 -7.7,38.7 -17,83 -9.4,44.3 -24.1,114 -32.7,155 -8.6,41 -15.9,74.8 -16.2,75.2 -0.6,0.7 -15,1.4 -81.1,4.3 -19.5,0.9 -49.4,2.2 -66.5,3 -17,0.8 -40.5,1.8 -52,2.1 l -21,0.7 -22.9,-23.4 -22.8,-23.4 0.5,-6 c 0.3,-3.3 6.2,-32.8 13.1,-65.5 7,-32.7 14.3,-66.9 16.2,-76 1.9,-9.1 7.3,-34.9 12.1,-57.3 l 8.6,-40.8 -4.9,-5 c -2.6,-2.7 -5.3,-4.9 -5.9,-4.9 -0.5,0 -2.7,8 -4.7,17.8 -2,9.7 -12.1,57.3 -22.3,105.7 -10.2,48.4 -20.6,97.5 -23,109 -10.6,50.8 -15.2,71.6 -16.1,72.4 -1,0.9 -38.5,2.8 -76.6,3.8 l -22.8,0.6 z m 590.4,-219.9 c 18.7,-0.9 34.1,-1.7 34.3,-1.8 0.5,-0.5 7.3,-33.1 7.3,-34.9 0,-1 -0.8,-1.8 -1.7,-1.8 -3.4,0 -71.8,3.2 -72,3.4 -0.1,0.1 -2,8.4 -4.1,18.4 l -3.9,18.2 h 3.1 c 1.7,0 18.4,-0.7 37,-1.5 z"
       id="path12" />
    <path
       d="m 2206.7,416.4 c -2.5,-2.6 0.4,-7.8 26.9,-48.5 15.2,-23.3 27.8,-42.5 27.9,-42.7 0.4,-0.4 36,-2.1 110.5,-5.3 15.1,-0.6 27.6,-1.3 27.8,-1.4 0.8,-0.7 5.6,-26.4 5.1,-27 -0.3,-0.3 -20.8,0.4 -45.5,1.5 -99.7,4.5 -112.2,5 -120.1,5 h -8.3 v -2.8 c 0,-3 0.7,-6.7 9.5,-48.2 3,-14 9.5,-44.8 14.4,-68.5 7.3,-34.5 9.4,-43.3 11,-44.5 1.1,-0.8 14.3,-11.7 29.4,-24.2 l 27.5,-22.8 20.4,-1 c 22.2,-1.1 41.8,-1.9 111.3,-5 25.3,-1.1 55.2,-2.4 66.5,-3 31,-1.5 29,-1.6 29,2.3 0,1.7 -1.3,6.4 -2.9,10.2 -4.2,10.1 -35,76.8 -35.9,77.6 -0.7,0.7 -29.8,2.1 -112.2,5.5 -21.2,0.8 -39.4,1.7 -40.5,1.9 -1.8,0.4 -2.5,2.3 -4.8,13.6 -1.5,7.3 -2.5,13.4 -2.3,13.6 0.4,0.4 57.1,-1.8 96.1,-3.8 l 21.9,-1.1 22.8,23.3 c 21.7,22.4 22.7,23.6 22.8,27.4 0,2.1 -3,17.9 -6.6,35 -7.9,37.7 -24.2,115 -25,118.7 -0.5,2.6 -0.8,2.6 -9.7,3.2 -5.1,0.4 -34.6,1.8 -65.7,3.1 -31.1,1.4 -81.9,3.6 -113,5 -73.7,3.3 -87.5,3.7 -88.3,2.9 z"
       id="path14" />
  </g>
  <g
     fill="#000000"
     id="g54"
     transform="translate(-3.2921788,-1.376)">
    <path
       d="m 231,653.4 c -1.9,-0.7 -2.9,-1.3 -2.2,-1.3 0.9,-0.1 0.6,-0.8 -0.6,-2.2 -2.1,-2.2 -2.2,-4.8 -0.2,-13.9 1.2,-5.7 1.9,-9.4 2.5,-14.5 0.2,-1.6 0.4,-3 0.5,-3 0.1,0 0.3,-0.8 0.5,-1.7 0.3,-1.5 -0.5,-1.8 -5.3,-1.9 -7,-0.2 8.8,-1.2 64.8,-3.8 23.9,-1.2 52.1,-2.6 62.5,-3.1 10.5,-0.6 38.1,-1.9 61.5,-3 23.4,-1.1 50.8,-2.4 61,-3 10.2,-0.5 33.1,-1.7 51,-2.5 17.9,-0.8 45.6,-2.2 61.5,-3 16,-0.8 48.1,-2.4 71.5,-3.5 53.6,-2.5 119.8,-5.7 144.5,-7 10.5,-0.6 46.7,-2.4 80.5,-4 33.8,-1.6 70.1,-3.4 80.5,-3.9 35.1,-1.8 50,-2.3 49.5,-1.8 -0.3,0.4 -2.3,0.7 -4.3,0.9 -3.1,0.2 -3.7,0.5 -3.4,2 0.3,1 0.1,1.8 -0.3,1.8 -0.5,0 -0.7,1 -0.5,2.1 0.2,1.2 0,3 -0.6,4.1 -0.6,1 -1.2,3.6 -1.4,5.6 -0.2,2 -0.8,5.5 -1.4,7.6 -0.5,2.2 -0.8,4.3 -0.5,4.7 0.2,0.4 -0.3,0.9 -1.1,1.3 -0.8,0.3 -1.2,1.2 -0.9,2.1 0.4,0.8 -0.1,1.7 -1,2.1 -0.9,0.3 -1.3,1 -1,1.5 0.3,0.5 -0.1,0.9 -0.9,0.9 -0.8,0 -2.2,1 -3.1,2.3 -0.9,1.2 -1.4,1.5 -1,0.7 0.7,-1.3 0.5,-1.3 -0.9,-0.1 -0.9,0.7 -1.7,1.1 -1.7,0.7 0,-0.3 -1.1,-0.1 -2.5,0.4 -1.8,0.7 -2.5,0.6 -2.5,-0.3 0,-0.8 -0.3,-0.8 -0.9,0.2 -0.7,1 -4.8,1.4 -17.2,1.7 -15.4,0.4 -30.4,1.1 -30.4,1.4 0,0.1 -11.4,0.7 -27.3,1.4 -3.9,0.1 -7.5,0.6 -7.9,0.9 -0.3,0.4 -1.2,0.2 -1.9,-0.4 -0.7,-0.6 -1.9,-0.7 -2.6,-0.3 -0.7,0.5 -6.5,0.9 -12.8,1 -6.3,0.2 -14.8,0.5 -18.7,0.7 -5.3,0.4 -7.1,0.2 -6.7,-0.6 0.3,-0.7 0,-0.5 -0.8,0.3 -1,1.2 -3.8,1.5 -12.5,1.5 -6.2,0 -11.3,0.3 -11.3,0.6 0,0.3 -4.7,0.5 -10.5,0.5 -5.8,-0.1 -10.5,0.1 -10.5,0.4 0,0.3 -5.1,0.6 -11.3,0.7 -6.1,0.1 -13.6,0.4 -16.4,0.6 -3.8,0.4 -5.1,0.2 -4.6,-0.7 0.4,-0.6 -0.1,-0.5 -1,0.3 -0.9,0.7 -2.6,1.1 -3.7,0.8 -1.1,-0.3 -1.8,-0.1 -1.4,0.4 0.3,0.5 0.1,0.9 -0.5,0.9 -0.5,0 -1.3,-0.5 -1.6,-1 -0.4,-0.6 -1.1,-0.7 -1.7,-0.4 -0.6,0.4 -6.8,0.9 -13.7,1.1 -14.7,0.5 -22.6,0.9 -22.6,1.2 0,0.2 -2.3,0.4 -5.2,0.5 -3.2,0.2 -5,-0.1 -4.6,-0.7 0.4,-0.6 0.1,-0.7 -0.8,-0.1 -0.8,0.4 -3,0.9 -4.9,1.1 -1.9,0.2 -5.4,0.5 -7.7,0.7 -2.8,0.2 -4.3,0 -4.3,-0.8 0,-0.7 -0.3,-0.8 -0.8,-0.1 -0.7,1 -5.7,1.4 -26.7,1.8 -5.5,0.1 -10.4,0.5 -11,0.8 -0.5,0.3 -3.6,0.5 -6.7,0.4 -3.2,-0.1 -5.8,0.1 -5.8,0.4 0,0.9 -6.5,0.5 -8,-0.4 -0.8,-0.5 -1.1,-0.4 -0.7,0.2 0.4,0.6 -3.8,1 -11.1,1.2 -6.4,0.1 -14.4,0.4 -17.7,0.7 -3.3,0.2 -10.7,0.6 -16.5,0.7 -5.8,0.2 -11.1,0.6 -11.8,1 -0.7,0.5 -1.2,0.3 -1.2,-0.5 0,-1 -0.2,-1.1 -0.8,0 -1,1.5 -7.2,1.3 -7.2,-0.3 0,-0.5 -0.4,-0.5 -0.8,0.2 -0.4,0.7 -3.1,1.2 -6.2,1.2 -14.2,0.1 -39.9,1.7 -40.8,2.5 -0.3,0.3 -1.1,0.1 -1.8,-0.5 -0.7,-0.6 -1.9,-0.7 -2.6,-0.3 -0.7,0.5 -5.8,1 -11.3,1.1 -13.4,0.4 -29,1.1 -29,1.3 0,0.1 -4.9,0.4 -11,0.6 -20.7,0.9 -22,1 -23,1.5 -0.5,0.4 -1.9,0.5 -3,0.3 -2.9,-0.5 -4.6,-0.5 -17.5,0.1 -6.3,0.3 -14.5,0.7 -18.2,0.8 -3.6,0.1 -6.5,0.4 -6.2,0.8 0.5,0.9 -5.9,0.5 -7.5,-0.5 -0.9,-0.6 -1.2,-0.5 -0.8,0.1 0.3,0.5 -1.9,0.9 -5.6,1 -3.4,0 -11.8,0.4 -18.7,0.8 -6.9,0.4 -16.5,0.8 -21.5,0.9 -4.9,0.1 -9.4,0.4 -10,0.7 -0.5,0.3 -4.5,0.6 -8.7,0.5 -4.3,-0.1 -7.8,0.3 -7.8,0.8 0,0.4 -0.7,0.3 -1.5,-0.4 -0.8,-0.6 -1.9,-0.8 -2.6,-0.4 -0.6,0.4 -5.9,0.8 -11.8,1.1 -5.8,0.2 -13.7,0.6 -17.6,0.9 -3.8,0.3 -14.4,0.7 -23.3,0.9 -9,0.3 -16.7,0.7 -17,0.9 -0.4,0.2 -3.1,0.3 -6,0.1 -2.8,-0.1 -5.2,0 -5.2,0.4 0,0.3 -2,0.6 -4.5,0.7 -2.4,0 -4.2,-0.2 -4,-0.6 0.2,-0.4 -0.2,-0.7 -1,-0.7 -0.8,0 -1.2,0.4 -0.9,0.9 0.3,0.4 0.4,0.7 0.2,0.7 -0.2,-0.1 -1.9,-0.7 -3.8,-1.5 z"
       id="path18" />
    <path
       d="m 1066.5,610 c -0.9,-1.6 -1.9,-3 -2.3,-3 -0.5,0 -0.7,-1.2 -0.5,-2.7 0.5,-5 1.2,-9.8 1.8,-12.3 0.4,-1.4 0.8,-3.6 1,-5 1.1,-7.4 1.4,-9.1 2,-11 0.6,-1.8 0.2,-2 -4.7,-2.2 -8.1,-0.2 -2.1,-0.6 34.2,-2.3 18.4,-0.8 47.3,-2.2 64.2,-3.1 16.9,-0.9 31.3,-1.3 32,-1.1 0.7,0.3 -1.2,0.6 -4.2,0.6 -6,0.1 -7.6,0.8 -7.5,3.1 0.1,0.8 -0.3,2.6 -0.7,3.9 -0.5,1.3 -1.1,4.2 -1.4,6.5 -0.2,2.2 -0.9,5.8 -1.5,7.9 -0.5,2 -0.7,4.2 -0.4,4.7 0.3,0.6 0.2,1 -0.3,1 -0.6,0 -1.3,1.5 -1.6,3.4 -0.5,2.7 -5.6,10.1 -5.6,8.1 0,-0.3 -1.2,0.1 -2.7,0.8 -1.6,0.7 -4.3,1.3 -6,1.3 -1.8,-0.1 -3.3,0.2 -3.3,0.5 0,1 -3.4,0.7 -4.9,-0.5 -1.1,-0.8 -1.3,-0.8 -0.7,0.2 0.5,0.8 0.1,1.1 -1.6,0.8 -1.3,-0.2 -3.1,0.1 -4,0.6 -1.2,0.6 -1.8,0.5 -1.8,-0.3 0,-0.7 -0.7,-0.8 -1.7,-0.4 -1,0.4 -2.4,0.7 -3,0.6 -1.9,-0.2 -2.8,-0.1 -15.3,0.4 -19.9,0.9 -21.5,1 -22.7,1.8 -0.6,0.4 -1.4,0.1 -1.6,-0.5 -0.4,-1 -0.6,-0.9 -0.6,0.1 -0.1,1.1 -0.4,1.1 -1.8,0 -1.1,-1 -1.4,-1 -0.9,-0.1 0.8,1.3 -1.9,1.3 -4.1,-0.1 -0.7,-0.5 -1.3,-0.5 -1.3,0 0,1.4 -22.1,1.5 -23.8,0.1 -1.3,-1 -1.4,-1 -0.8,0 0.4,0.6 0.5,1.2 0.2,1.2 -0.3,0 -1.2,-1.3 -2.1,-3 z"
       id="path20" />
    <path
       d="m 149.5,605.5 c -3.9,-0.7 -14.5,-3.3 -23.5,-5.8 -9.1,-2.6 -24.8,-6.9 -35,-9.6 -10.2,-2.7 -19.6,-5.4 -21,-5.9 -2.9,-1.1 5.2,-1.7 40,-3.2 51.7,-2.2 92.6,-4 113,-5 23.3,-1.1 49.3,-2.2 103,-4.5 35.6,-1.6 62.4,-2.8 100.5,-4.5 12.1,-0.5 32.1,-1.4 44.5,-2 12.4,-0.5 32.9,-1.4 45.5,-2 12.7,-0.5 43.7,-1.9 69,-3 45.1,-2 112.4,-4.9 158,-7 79.3,-3.6 140.8,-6.3 193,-8.5 19.3,-0.8 44.2,-1.9 55.5,-2.5 11.3,-0.5 31.1,-1.4 44,-2 35.6,-1.5 66,-2.9 91,-4 12.4,-0.6 43.2,-1.9 68.5,-3 25.3,-1.1 55.5,-2.4 67,-3 48.6,-2.3 94.9,-4.2 107.4,-4.4 l 13.4,-0.1 9.3,29 c 5.2,16 9.4,29.4 9.4,29.9 0,2.9 -4.9,-4.4 -9.6,-14.4 -9.4,-19.6 -10.2,-20 -37.4,-19.9 -10.7,0.1 -24.2,0.5 -30,0.9 -5.8,0.5 -22.6,1.3 -37.5,1.9 -29.4,1.2 -54.4,2.6 -75.5,4.1 -7.4,0.5 -27,1.4 -43.5,2 -16.5,0.5 -35.6,1.4 -42.5,1.9 -6.9,0.6 -26.4,1.5 -43.4,2.1 -17,0.6 -34.3,1.5 -38.5,2 -4.2,0.5 -14.8,1.1 -23.6,1.5 -8.8,0.3 -26.8,1 -40,1.5 -13.2,0.6 -29.2,1.4 -35.5,1.9 -6.3,0.5 -22.3,1.2 -35.5,1.6 -13.2,0.3 -31.9,1.2 -41.5,2 -9.6,0.7 -31.4,1.9 -48.5,2.5 -17,0.6 -35.3,1.5 -40.5,2 -5.2,0.5 -24.8,1.4 -43.5,2 -18.7,0.6 -38.3,1.5 -43.5,2.1 -5.2,0.5 -26.4,1.6 -47,2.4 -20.6,0.8 -43.1,1.9 -50,2.4 -6.9,0.6 -27.6,1.6 -46,2.2 -18.4,0.6 -36.6,1.5 -40.5,2 -3.8,0.5 -20.5,1.3 -37,1.9 -16.5,0.6 -39.7,1.7 -51.5,2.5 -11.8,0.8 -30,1.7 -40.5,2 -30.6,0.9 -44.6,1.6 -51.5,2.5 -3.6,0.5 -21.3,1.4 -39.5,2 -18.1,0.5 -38.3,1.5 -44.8,2.1 -31.4,2.8 -82.6,3.6 -94.2,1.4 z"
       id="path22" />
    <path
       d="m 1431.6,582 c 9.2,-14 17.2,-26 17.8,-26.6 0.7,-0.7 13.6,-1.7 36.1,-2.8 19.3,-0.9 62,-3 95,-4.6 33,-1.6 83.4,-4.1 112,-5.4 28.6,-1.4 56.1,-2.8 61,-3.1 5,-0.3 28.6,-1.5 52.5,-2.6 23.9,-1 56.1,-2.6 71.5,-3.4 72.6,-3.8 109,-5.2 90.6,-3.6 -6.9,0.6 -6.5,0.3 -7.5,7.6 -0.3,1.7 -0.8,4.1 -1.1,5.5 -0.8,2.8 -0.9,3.4 -1.9,10.8 -0.4,2.8 -1.2,5.2 -1.8,5.2 -0.5,0 -0.7,0.4 -0.3,0.9 0.3,0.6 -0.4,2.5 -1.5,4.3 -1.1,1.8 -2,2.9 -2,2.4 0,-0.6 -0.6,-0.1 -1.4,0.9 -0.7,1 -2.9,2 -4.7,2.2 -9,0.9 -16.9,1.5 -22.1,1.6 -3.1,0.1 -6,0.6 -6.4,1 -0.4,0.4 -1.4,0.1 -2.2,-0.6 -1.3,-0.9 -1.4,-0.9 -0.8,0.1 0.9,1.5 -0.6,1.6 -2.1,0.1 -0.6,-0.6 -1.7,-0.8 -2.4,-0.3 -1.2,0.7 -18.5,1.7 -31.1,1.7 -3.2,0 -5.8,0.3 -5.8,0.7 0,0.8 -7.7,0.6 -8.6,-0.2 -0.3,-0.4 -1.6,-0.3 -2.8,0.1 -1.1,0.5 -3.8,0.8 -5.9,0.6 -2.1,-0.1 -4.1,0.3 -4.4,0.8 -0.3,0.5 -0.9,0.3 -1.4,-0.4 -0.6,-1 -0.9,-1.1 -0.9,-0.1 0,0.6 -0.5,1.2 -1.1,1.2 -0.5,0 -0.7,-0.6 -0.3,-1.2 0.6,-1 0.4,-1 -0.7,-0.2 -0.8,0.5 -2.9,0.9 -4.6,0.9 -1.8,-0.1 -3.3,0.3 -3.3,0.8 0,0.5 -0.8,0.3 -1.7,-0.4 -1.5,-1.2 -1.6,-1.2 -0.8,0.1 0.8,1.3 0.7,1.3 -0.8,0.1 -0.9,-0.7 -1.7,-1 -1.7,-0.5 0,0.5 -6.5,0.9 -14.4,0.9 -7.9,0 -14.2,0.3 -14.1,0.6 0.2,0.3 -2.3,0.5 -5.5,0.4 -3.2,-0.1 -5.7,0.2 -5.4,0.7 0.3,0.4 0.1,0.8 -0.5,0.8 -0.5,0 -1.3,-0.4 -1.6,-1 -0.3,-0.5 -1.5,-1 -2.6,-1 -1.1,0 -1.8,0.4 -1.5,0.9 0.7,1 -1.3,0.9 -3.1,-0.2 -0.6,-0.4 -1.4,-0.3 -1.7,0.2 -0.3,0.5 -4.7,0.9 -9.8,0.9 -5.1,0.1 -12.7,0.4 -16.8,0.8 -4.1,0.4 -12.3,0.7 -18.2,0.8 -6,0 -10.8,0.3 -10.8,0.6 0,0.3 -2.1,0.6 -4.7,0.5 -2.7,0 -5.9,0.2 -7.3,0.6 -1.4,0.3 -3.7,0.2 -5.3,-0.2 -1.5,-0.4 -2.5,-0.4 -2.3,0 0.3,0.4 -2.7,0.7 -6.7,0.7 -7.4,0.1 -29.2,1.1 -29.2,1.4 0,0.1 -5.5,0.3 -12.2,0.5 -6.8,0.1 -12.3,-0.1 -12.3,-0.4 0,-0.4 -1,-0.8 -2.2,-0.8 -2.5,-0.1 -8.1,-1 -8.5,-1.4 -0.2,-0.1 -0.6,-0.2 -1,-0.3 -0.5,-0.1 -1.7,-0.7 -2.8,-1.3 -2.1,-1.1 -2.8,-1.2 -14.5,-1.4 -9.1,-0.2 -14,0.3 -14,1.3 0,0.4 -0.8,0.8 -1.8,0.8 -1,0 -2.4,0.6 -3.1,1.3 -1.1,1 -1.3,0.9 -0.7,-0.1 0.4,-0.6 -1.4,-0.1 -3.9,1.2 -2.5,1.4 -5.3,2.2 -6.2,1.9 -1,-0.4 -1.4,-0.2 -1,0.4 0.4,0.7 0,1 -1,0.8 -1,-0.1 -2.4,0.2 -3,0.7 -0.7,0.6 -1.9,0.8 -2.7,0.5 -0.8,-0.3 -1.7,-0.3 -2,0 -0.3,0.3 -4.3,0.8 -8.8,1 -4.6,0.2 -11,0.5 -14.3,0.7 -3.3,0.2 -6.2,0.4 -6.5,0.6 -0.3,0.1 -5.4,0.4 -11.5,0.6 -6,0.3 -15.7,0.7 -21.5,0.9 -5.8,0.3 -15.7,0.6 -22,0.8 -6.3,0.1 -11.9,0.5 -12.5,0.8 -0.5,0.3 -3.6,0.5 -6.7,0.4 -3.2,0 -5.8,0.2 -5.8,0.5 0,0.3 -0.9,0.6 -2,0.7 -1.3,0.1 -1.8,-0.2 -1.3,-1 0.5,-0.9 0.3,-0.9 -0.8,-0.2 -0.8,0.6 -5.8,1.1 -11.1,1 -5.4,0 -9.8,0.3 -9.8,0.7 0,0.3 -1.1,0.5 -2.5,0.4 -1.4,-0.2 -2.2,0.1 -1.8,0.7 0.4,0.6 -0.2,0.8 -1.5,0.5 -1.2,-0.4 -2.2,-0.3 -2.2,0.1 0,0.4 -1.1,0.8 -2.5,0.9 -4.7,0.3 -5.5,0.5 -5.5,1.4 0,0.5 -0.5,0.6 -1,0.3 -0.6,-0.4 -1.7,-0.1 -2.5,0.5 -0.8,0.6 -2.3,0.9 -3.5,0.5 -1.1,-0.3 -2,-0.3 -2,0.2 0,0.4 -1.1,2.2 -2.5,3.8 -1.4,1.7 5,-8.5 14.1,-22.5 z"
       id="path24" />
    <path
       d="m 1255.7,602.4 c -3.5,-1.9 -4.3,-6.8 -2.3,-15.4 0.3,-1.4 1.3,-5.9 2.1,-10 0.8,-4.1 1.7,-8.5 2.1,-9.7 0.6,-2.2 0.4,-2.3 -7.2,-2.5 -9.3,-0.1 -4.8,-0.4 73.9,-4.3 29.7,-1.4 54,-2.5 54.2,-2.3 0.3,0.3 9.1,29.8 10.2,34.3 0.5,2 0.5,2 -1,0 -0.8,-1.1 -1.4,-2.2 -1.2,-2.6 0.2,-0.3 -0.2,-0.6 -1,-0.6 -0.8,0 -1.2,0.4 -0.9,0.9 0.4,0.7 -3.4,1.3 -5.8,0.9 -0.5,0 -0.8,0.4 -0.8,1 0,0.6 -0.6,0.9 -1.4,0.6 -0.8,-0.3 -2,0 -2.6,0.8 -0.6,0.7 -2,1.2 -3.1,1 -1.2,-0.3 -1.7,0 -1.3,0.7 0.5,0.7 0.2,0.9 -0.9,0.5 -0.9,-0.3 -1.7,-0.1 -1.9,0.4 -0.2,0.5 -1.7,1.2 -3.3,1.4 -1.7,0.2 -3,0.4 -3,0.5 0,0.2 -6.8,1.1 -9.7,1.2 -1.6,0.1 -2.8,0.6 -2.8,1.1 0,0.5 -0.7,0.4 -1.5,-0.3 -0.8,-0.7 -2,-0.8 -2.7,-0.4 -1.8,1.2 -3.2,1.1 -4,-0.1 -0.5,-0.7 -0.8,-0.6 -0.8,0.1 0,0.7 -3.1,1.1 -8.2,1.2 -4.6,0.1 -12.6,0.4 -17.8,0.8 -29.7,2 -54.3,2.3 -57.3,0.8 z"
       id="path26" />
    <path
       d="m 1390.6,602.5 c -0.3,-0.9 -0.6,-2.4 -0.5,-3.3 0,-0.9 0.5,-0.4 1,1.2 0.9,3.2 0.6,4.8 -0.5,2.1 z"
       id="path28" />
    <path
       d="m 1022.3,575.3 c 0.9,-0.2 2.5,-0.2 3.5,0 0.9,0.3 0.1,0.5 -1.8,0.5 -1.9,0 -2.7,-0.2 -1.7,-0.5 z"
       id="path30" />
    <path
       d="m 1042.3,574.3 c 1.5,-0.2 3.7,-0.2 5,0 1.2,0.2 0,0.4 -2.8,0.4 -2.7,0 -3.8,-0.2 -2.2,-0.4 z"
       id="path32" />
    <path
       d="m 50,564 c 0,-0.6 1.1,-6.1 2.5,-12.3 1.3,-6.2 4.5,-20.9 6.9,-32.7 2.5,-11.8 5.9,-28 7.6,-36 1.7,-8 3.5,-16.5 4,-19 0.5,-2.5 2.3,-11 4,-19 1.7,-8 4.4,-20.8 6,-28.5 1.6,-7.7 4.3,-20.5 6,-28.5 1.7,-8 5.1,-24.2 7.6,-36 2.5,-11.8 6.8,-32.1 9.5,-45 2.7,-12.9 8,-38.1 11.8,-56 l 6.9,-32.5 -24.7,-25.3 C 84.6,179.3 66.4,160.5 57.7,151.5 L 42,135.2 l 7.2,-0.6 c 4,-0.4 18.1,-1.1 31.3,-1.6 25.1,-1 74.6,-3.2 114.5,-5 12.9,-0.6 33,-1.5 44.5,-2 11.6,-0.5 32,-1.4 45.5,-2 13.5,-0.5 32.8,-1.4 43,-2 19.8,-1 20.4,-1 91,-4 25.6,-1.1 56.4,-2.4 68.5,-3 22.8,-1 51.9,-2.3 90.5,-4 125.9,-5.5 136.9,-6 157.5,-7 10.5,-0.6 30.3,-1.4 44,-2 40.8,-1.6 71.8,-3 92.5,-4.1 20,-1 71.5,-3.2 113,-4.9 12.9,-0.5 33.2,-1.4 45,-1.9 11.8,-0.6 27.4,-1.3 34.5,-1.6 7.2,-0.3 22.5,-1 34,-1.5 11.6,-0.6 41.7,-1.9 67,-3 25.3,-1.1 55,-2.4 66,-3 18.9,-0.9 31.9,-1.5 92,-4 13.8,-0.6 34.5,-1.5 46,-2 11.6,-0.6 31.4,-1.4 44,-2 12.7,-0.5 29.1,-1.2 36.6,-1.6 l 13.5,-0.6 10.4,31.6 c 9.8,29.9 10.5,31.5 12.1,29.9 0.9,-1 11.9,-15.7 24.4,-32.8 17.6,-24.1 23.2,-31.1 25.3,-31.6 1.5,-0.4 15.8,-1.2 31.7,-1.9 50.8,-2 69.9,-2.9 116,-5 24.8,-1.1 56,-2.4 69.5,-3 13.5,-0.5 29,-1.2 34.5,-1.5 5.5,-0.3 20.8,-1 34,-1.5 13.2,-0.6 32.8,-1.5 43.5,-2 10.7,-0.6 40.9,-1.9 67,-3 26.1,-1.1 57,-2.4 68.5,-3 11.6,-0.6 37.2,-1.7 57,-2.5 49.8,-2.1 91.4,-4 145,-6.4 l 19,-0.9 17.6,18.1 17.6,18.1 10.4,-8.6 c 5.7,-4.7 16.5,-13.5 23.9,-19.7 8.7,-7.2 14.5,-11.3 16.5,-11.6 1.6,-0.2 15.6,-0.9 31,-1.5 32.6,-1.3 61.1,-2.5 92,-4 12.1,-0.5 32.6,-1.4 45.5,-2 40,-1.7 68.6,-3 91,-4 56.1,-2.5 68.3,-3 68.7,-2.6 0.2,0.2 -17.9,40.1 -40.3,88.7 -22.4,48.6 -41.6,90.5 -42.7,93.1 l -2.1,4.8 11.1,11.2 11.1,11.3 -3.3,15.5 c -29.1,138.8 -44,208.7 -44.7,209.5 -0.4,0.5 -18.5,1.7 -40.1,2.7 -21.5,0.9 -70.5,3.1 -108.7,4.8 -38.2,1.7 -89.7,3.9 -114.5,5 -24.7,1.1 -70.4,3.1 -101.4,4.5 -31,1.4 -56.6,2.4 -56.7,2.2 -0.2,-0.2 15.8,-25 35.5,-55.3 l 35.8,-54.9 -4.6,-0.3 c -5.2,-0.3 -90.1,3.4 -90.5,3.9 -0.2,0.4 -20.9,98.3 -22.2,105.6 l -0.6,3.1 -10.2,0.7 c -10.8,0.6 -64.2,3 -156.6,7 -31.6,1.3 -67.4,2.9 -79.5,3.5 -12.1,0.6 -48.1,2.1 -80,3.5 -31.9,1.3 -61.3,2.7 -65.3,3 l -7.2,0.6 -3.5,-3.8 c -2.9,-3.1 -3.7,-3.5 -4.5,-2.3 -0.5,0.8 -1,2.5 -1,3.7 0,2.6 0.9,2.6 -64.5,5.4 -106.7,4.5 -131.8,5.8 -132.5,6.6 -0.4,0.4 -9.2,12.4 -19.5,26.6 -10.4,14.2 -19.2,25.4 -19.6,25 -0.4,-0.4 -4.2,-11.6 -8.4,-24.8 -4.2,-13.2 -8,-24.3 -8.4,-24.6 -0.3,-0.3 -18.6,0.2 -40.6,1.2 -48,2.1 -154.1,6.8 -246.5,10.9 -37.1,1.7 -77.2,3.4 -89,4 -11.8,0.5 -42.4,1.9 -68,3 -25.6,1.1 -76.4,3.4 -113,5 -36.6,1.6 -82.5,3.6 -102,4.5 -19.5,0.8 -44.3,1.9 -55,2.5 -10.7,0.6 -46,2.2 -78.5,3.5 -32.4,1.4 -68.9,2.9 -81,3.5 -12.1,0.5 -42.7,1.9 -68,3 -25.3,1.1 -55.7,2.5 -67.5,3 -11.8,0.6 -42,1.9 -67,3 -25,1.1 -76.1,3.3 -113.5,5 -37.4,1.6 -83.5,3.6 -102.5,4.4 -19,0.9 -38.9,1.8 -44.2,2.1 -6.7,0.4 -9.8,0.3 -9.8,-0.5 z m 132,-60.5 c 17.9,-0.8 48.3,-2.2 67.5,-3 19.3,-0.9 48.3,-2.2 64.5,-2.9 l 29.5,-1.3 26.3,-15.2 c 19.2,-11.2 26.3,-15.9 26.7,-17.4 0.5,-2.3 19.8,-93.6 21.4,-101.7 l 1,-4.5 -11.2,-11.3 -11.2,-11.3 17.2,-17 c 16.4,-16.2 17.2,-17.2 18.3,-22.2 0.6,-2.9 4.4,-20.7 8.4,-39.7 l 7.4,-34.5 -19.4,-19.7 c -10.7,-10.8 -21,-21.3 -22.9,-23.4 l -3.4,-3.7 -38.3,1.7 c -21.1,0.9 -63.7,2.7 -94.8,4.1 -61.7,2.7 -99.4,4.5 -99.8,4.9 -0.1,0.2 9.1,9.8 20.4,21.5 11.4,11.6 20.4,21.4 20.2,21.7 -0.3,0.2 -7.6,0.9 -16.3,1.4 -8.7,0.5 -15.9,1.1 -16.1,1.3 -0.2,0.2 -1.9,7.7 -3.8,16.8 -1.9,9 -6.2,29.5 -9.6,45.4 -3.4,16 -7.9,37.3 -10,47.5 -2.1,10.2 -6.4,30.2 -9.4,44.5 -4.8,22.5 -12.4,58.8 -19.8,94 -1.1,5.5 -2.9,13.5 -3.8,17.7 -1,4.3 -1.5,8 -1.2,8.3 0.6,0.6 16.2,0.1 62.2,-2 z M 495.5,490 c 24.2,-1.1 58.9,-2.7 77,-3.5 18.2,-0.8 44.5,-2 58.5,-2.6 14,-0.6 25.7,-1.3 25.9,-1.5 0.4,-0.3 21.1,-99.2 23.3,-111.4 0.9,-4.7 1.4,-8.7 1.2,-8.9 -0.2,-0.2 -11.1,8.2 -24.2,18.8 L 633.3,400 587,402 c -49.8,2.2 -63,2.4 -63,1.3 0.1,-1.5 4.8,-22.5 5.2,-22.8 0.4,-0.4 68.6,-3.5 77.1,-3.5 8,0 7.6,0.5 10.6,-14.5 1.1,-5.5 4.4,-21.7 7.4,-36 3,-14.3 5.7,-28 6.1,-30.4 l 0.7,-4.4 -11.8,0.6 c -27.9,1.5 -71.3,3 -71.8,2.5 -0.5,-0.5 7.9,-41.5 8.7,-42.3 0.3,-0.4 85,-4.5 92,-4.5 1.3,0 10.1,8.2 24.9,23.2 12.5,12.8 23.1,23 23.4,22.6 0.8,-0.7 26,-120.6 26.9,-127.7 l 0.7,-5.4 -14.3,0.6 c -7.9,0.4 -34.8,1.6 -59.8,2.7 -25,1.1 -54.9,2.4 -66.5,2.9 -11.5,0.6 -43.7,2 -71.5,3.2 -27.8,1.2 -50.7,2.3 -50.9,2.5 -0.3,0.3 9.2,10.2 21,22.1 l 21.4,21.8 -16.5,0.8 c -9,0.4 -16.8,1.1 -17.2,1.5 -0.3,0.4 -1.3,4.1 -2.2,8.2 -0.8,4.1 -2.9,14 -4.6,22 -1.7,8 -8.5,40.2 -15.1,71.5 -6.6,31.4 -12.6,59.9 -13.4,63.5 -0.8,3.6 -5.1,23.8 -9.5,45 -4.5,21.2 -9.2,43.6 -10.5,49.9 -1.4,6.3 -2.5,12.1 -2.5,12.9 0,1.7 9.1,1.5 83.5,-1.8 z m 234.3,-10.7 c 22.6,-0.9 41.7,-2 42.3,-2.4 0.6,-0.3 2.6,-7.8 4.5,-16.5 1.8,-8.8 7.3,-34.9 12.3,-58.2 4.9,-23.3 9.2,-42.6 9.5,-42.9 0.3,-0.3 13.5,-1.2 29.3,-1.9 15.9,-0.7 33.9,-1.5 40.1,-1.8 l 11.2,-0.6 -0.6,4.2 c -0.3,2.4 -4.8,24.8 -10,49.8 -5.2,25 -10.2,48.9 -11,53 -0.9,4.1 -1.8,8.3 -2.1,9.3 -0.4,1.6 0.6,1.7 12.4,1.6 7,0 28.3,-0.8 47.2,-1.7 l 34.4,-1.7 8.7,-41 c 10.1,-47.6 20.3,-95.8 33.6,-159 5.2,-24.7 10.8,-51.3 12.5,-58.9 1.6,-7.6 2.7,-14.1 2.4,-14.4 -0.3,-0.3 -10.7,-10.8 -23.1,-23.4 l -22.5,-22.8 -46.2,2 c -25.4,1.1 -55.4,2.4 -66.7,3 -11.3,0.5 -38.5,1.7 -60.5,2.6 -22,0.9 -40.3,2 -40.6,2.3 -0.8,0.7 -22.1,100.3 -21.6,100.7 0.3,0.4 13.2,-5.1 31.2,-13.3 l 11,-5 28.5,-1.2 c 42.8,-1.7 95.7,-4 102.3,-4.4 l 5.8,-0.3 -0.7,4.5 c -1,7.7 -5.5,28.6 -6.2,29.2 -0.4,0.3 -14.9,1.1 -32.2,1.8 -17.3,0.6 -39.6,1.6 -49.5,2.1 -9.9,0.5 -35.1,1.7 -56,2.6 -20.9,0.9 -38.1,1.7 -38.1,1.8 -0.1,0 -2.4,10.9 -5.2,24.1 -2.8,13.2 -8.7,41.3 -13.2,62.5 -4.5,21.2 -10.8,51.3 -14.1,67 -3.3,15.7 -6.9,32.5 -7.9,37.3 -1.1,4.9 -2,9.5 -2,10.3 0,1.8 0.7,1.8 50.8,-0.3 z m 386.5,-16.8 c 15.9,-0.7 29,-1.5 29.2,-1.7 0.3,-0.3 9.6,-44.1 35.2,-165.8 8,-38.2 15,-69.9 15.4,-70.4 0.6,-0.7 71.3,-4.5 86.6,-4.6 4.6,0 5.3,-0.3 5.8,-2.2 0.3,-1.3 3.7,-17.4 7.6,-35.8 3.8,-18.4 7.2,-34.2 7.5,-35.2 0.4,-1.2 2.5,0.3 9,6.6 l 8.6,8.2 -1.7,7.9 c -0.9,4.3 -2.9,14.2 -4.6,21.9 -1.7,7.8 -4.8,22.4 -6.9,32.6 -2.1,10.2 -10.2,48.7 -18,85.5 -7.8,36.9 -15,71.3 -16.1,76.5 -7.6,36.2 -13.1,62.1 -13.8,65.4 l -1,3.9 21.2,-0.6 c 11.7,-0.4 32.8,-1.2 47.1,-1.9 24.6,-1.1 25.8,-1.3 26.7,-3.2 0.4,-1.2 7.9,-36 16.6,-77.4 l 15.7,-75.2 2.8,7.7 c 4,11.2 28.2,84.6 40,121.2 l 3,9.4 2.3,-2.4 c 1.3,-1.3 15.7,-20.6 32,-42.9 l 29.7,-40.4 -17.7,-54.1 c -9.7,-29.7 -24.7,-75.4 -33.2,-101.5 -8.6,-26.1 -16.9,-51.3 -18.6,-55.9 l -3,-8.4 -20.1,0.7 c -18.9,0.6 -29.2,1.1 -81.1,3.6 -11.5,0.6 -30,1.5 -41,2 -11,0.5 -30.1,1.4 -42.5,2 -21,1 -63.6,2.9 -184,8.1 -27.2,1.2 -49.7,2.3 -49.9,2.5 -0.2,0.2 5.3,6.4 12.2,13.7 l 12.6,13.4 -2,9.4 c -1.1,5.2 -3.7,17.6 -5.8,27.7 l -3.9,18.2 h 9.7 c 8.6,0 19.2,-0.5 60.4,-2.5 l 11.7,-0.6 v 2.7 c 0,2.4 -2.6,15.1 -18.1,88.4 -22.2,104.8 -30.5,145.1 -30,145.6 0.6,0.7 17.5,0.1 64.4,-2.1 z m 458.2,-20.6 c 14.9,-0.6 27.4,-1.5 27.9,-2 0.9,-0.8 5.5,-21.6 16.1,-72.4 2.4,-11.5 12.8,-60.6 23,-109 10.2,-48.4 20.4,-96.8 22.6,-107.5 2.2,-10.7 4.2,-20.1 4.5,-20.8 0.2,-0.8 3.8,2 9.1,7.2 l 8.7,8.4 -8.4,39.4 c -4.6,21.6 -10.2,48.5 -12.6,59.8 -2.4,11.3 -10,47.3 -16.9,80 -6.9,32.7 -12.9,60.9 -13.1,62.5 -0.5,2.8 1,4.6 22.3,26.4 l 22.9,23.5 39.9,-1.8 c 22,-0.9 54,-2.3 71,-3.1 17.1,-0.8 43.6,-1.9 59,-2.5 15.4,-0.7 31.8,-1.5 36.4,-1.8 l 8.5,-0.7 15.7,-74.5 c 42.2,-200.6 49.8,-236.9 50.4,-241.9 l 0.7,-5.4 -11.3,0.6 c -6.3,0.4 -24.2,1.1 -39.9,1.8 -15.7,0.6 -31.6,1.4 -35.5,1.7 l -7,0.7 -2.8,13.5 c -1.5,7.4 -5.3,25.2 -8.3,39.5 -5.5,26 -8.5,40.2 -25.3,119.5 -4.9,23.4 -10,47.3 -11.2,53.2 l -2.2,10.7 -4.1,0.6 c -6.6,0.8 -67.7,3.1 -72.9,2.7 -3.9,-0.3 -4.7,-0.7 -4.3,-2.1 1,-3.3 47.4,-225.8 48,-230 l 0.7,-4.4 -17.8,0.7 c -9.8,0.4 -25.9,1.1 -35.8,1.6 -9.9,0.5 -30.1,1.4 -45,2 -39.2,1.5 -69.5,2.8 -98.8,4.2 l -25.8,1.2 -41.3,56.3 -41.4,56.4 6.8,20.7 c 3.8,11.4 10.5,32 15,45.7 4.5,13.8 8.4,25.2 8.6,25.4 0.5,0.6 4.2,-4.1 17,-21.4 6.4,-8.8 12,-16.4 12.4,-16.8 0.4,-0.5 0.4,1.1 -0.1,3.5 -0.5,2.4 -1.6,8.4 -2.5,13.3 -0.9,5 -6.3,31.3 -12,58.5 -16.2,76.5 -16.4,77.4 -16.4,78.4 0,1 18.4,0.5 65.5,-1.5 z M 1971,424.4 c 25.3,-1.1 38.9,-2 39.6,-2.8 0.8,-0.9 9.3,-39.7 22.6,-103.8 1,-4.8 1,-4.8 5.1,-4.8 2.3,0 18.4,-0.7 35.7,-1.5 17.3,-0.7 48.6,-2.1 69.5,-3.1 20.9,-0.9 38.6,-1.9 39.3,-2.3 0.7,-0.4 8.8,-8.2 18,-17.4 l 16.7,-16.6 13.8,-65.2 13.9,-65.2 -23.4,-23.3 -23.3,-23.3 -31.5,1.4 c -17.3,0.8 -41.6,1.9 -54,2.4 -12.4,0.6 -43.6,2 -69.5,3.2 -25.8,1.1 -54,2.4 -62.5,2.7 l -15.5,0.7 21.5,22 21.5,22 -4.5,0.3 c -2.5,0.2 -10.1,0.6 -16.9,1 l -12.5,0.7 -4.6,22 c -2.6,12.1 -6.8,31.9 -9.3,44 -2.6,12.1 -6,28.5 -7.7,36.5 -1.7,8 -3.9,18.6 -5,23.5 -1,5 -8.4,40.1 -16.4,78.1 -8,38 -14.6,69.4 -14.6,69.7 0,1.1 12.5,0.9 54,-0.9 z m 320.5,-13.9 c 31.4,-1.4 82.4,-3.6 113.5,-5 31.1,-1.3 60.6,-2.7 65.7,-3.1 8.9,-0.6 9.2,-0.6 9.7,-3.2 0.6,-2.8 13.2,-62.6 25.2,-119.4 l 6.7,-31.7 -22.9,-23.6 -22.9,-23.6 -8,0.6 c -8,0.6 -58.5,2.8 -93.2,4.1 -10.7,0.4 -18.3,0.3 -18.3,-0.2 0,-0.5 1.4,-8 3.2,-16.7 2.8,-13.8 3.5,-15.8 5.2,-16.2 1.2,-0.2 19.4,-1.1 40.6,-1.9 82.4,-3.4 111.5,-4.8 112.2,-5.5 0.9,-0.8 31.7,-67.5 35.9,-77.5 1.6,-3.9 2.7,-7.1 2.5,-7.3 -0.1,-0.2 -9.9,0.1 -21.7,0.7 -11.8,0.5 -42.1,1.9 -67.4,3 -69.2,3 -89,3.9 -111.3,5 l -20.4,1 -27.5,22.8 c -15.1,12.5 -28.3,23.4 -29.4,24.2 -1.6,1.2 -3.7,10 -11,44.5 -19.2,91.5 -21,100.2 -22.4,106.5 -0.8,3.5 -1.2,6.6 -1,6.9 0.5,0.4 39.2,-1.1 122,-4.9 48.2,-2.2 53.8,-2.3 53.1,-1.2 -0.3,0.4 -0.7,2.6 -1,4.8 -0.5,4.3 -5.4,27.5 -5.8,27.9 -0.2,0.1 -12.7,0.8 -27.8,1.4 -74.5,3.2 -110.1,4.9 -110.5,5.3 -1.5,1.8 -55.2,84.8 -55,85 0.6,0.6 26.3,-0.2 82,-2.7 z"
       id="path34" />
    <path
       d="m 232.1,415.9 c 0,-0.8 1.5,-8.4 3.3,-16.9 l 3.2,-15.5 24,-1.1 c 13.1,-0.7 31.4,-1.5 40.6,-1.9 l 16.8,-0.7 -0.6,3.3 c -1.6,9.7 -5.8,29.5 -6.3,30.1 -0.5,0.5 -21.4,1.7 -66.3,3.5 -12.3,0.5 -14.8,0.4 -14.7,-0.8 z"
       id="path36" />
    <path
       d="m 257,297.8 c 0,-0.2 1.5,-7.5 3.3,-16.3 3.3,-15.8 3.3,-15.9 6.3,-16.6 1.6,-0.4 16.2,-1.2 32.4,-1.8 16.2,-0.6 33.2,-1.4 37.8,-1.8 l 8.2,-0.6 -0.5,3.4 c -0.3,1.9 -1.8,9.5 -3.3,17 l -2.6,13.7 -10.6,0.6 c -27.4,1.7 -71,3.1 -71,2.4 z"
       id="path38" />
    <path
       d="m 2052.4,226.3 c 0.3,-1 2.3,-10.6 4.6,-21.2 2.2,-10.7 4.2,-19.6 4.3,-19.7 0.3,-0.3 69.5,-3.4 75.5,-3.4 h 5.3 l -0.6,4.8 c -0.7,5.2 -7.3,37.4 -7.8,37.8 -0.4,0.4 -66.5,3.4 -75,3.4 -6,0 -6.8,-0.2 -6.3,-1.7 z"
       id="path40" />
    <path
       d="m 2103.3,561.7 c -2.3,-0.8 -3.3,-1.8 -3.7,-4.1 -0.4,-1.8 -0.2,-3.3 0.5,-3.7 0.6,-0.4 0.8,-1.2 0.4,-1.9 -0.5,-0.9 -0.4,-1.1 0.3,-0.6 1.1,0.6 1.7,-1.3 1.3,-3.7 -0.1,-0.5 0.2,-0.6 0.7,-0.3 0.4,0.2 1.4,-1 2.2,-2.7 1.7,-4.1 9.1,-16 10.5,-16.9 0.5,-0.4 0.6,-0.8 0.1,-0.8 -0.6,0 -0.5,-0.5 0.2,-1.2 2.3,-2.3 1.1,-2.8 -7,-3 -11.5,-0.2 -7.5,-0.5 52.2,-3.3 80.3,-3.8 173.5,-8.3 193.5,-9.5 18.2,-1 33.5,-1.1 30.3,-0.3 -1,0.2 -1.9,1.2 -1.9,2.1 -0.3,4.2 -0.9,7.6 -1.8,10.5 -0.5,1.8 -1.1,4.8 -1.2,6.7 -0.2,1.9 -0.7,4.1 -1.2,4.7 -0.5,0.7 -0.7,1.9 -0.4,2.7 0.3,0.7 -0.1,2.3 -0.8,3.4 -0.8,1 -1.1,2.2 -0.8,2.6 0.3,0.3 0.1,0.6 -0.5,0.6 -0.6,0 -1.4,0.9 -1.7,2.1 -0.4,1.1 -0.9,1.8 -1.2,1.5 -0.4,-0.3 -1.3,0 -2.1,0.6 -1.4,1.2 -2.7,1.6 -7.4,2 -1.6,0.1 -2.8,0.5 -2.8,0.8 0,0.3 -3,0.6 -6.7,0.6 -3.8,0 -13.1,0.4 -20.8,0.8 -15.2,0.7 -32.4,1.5 -42.2,1.9 -3.4,0.2 -6.6,0.6 -6.9,1 -1.2,1.1 -2.6,0.8 -1.8,-0.5 0.5,-0.7 0.3,-0.8 -0.6,-0.3 -0.7,0.4 -7.1,0.9 -14.4,1.2 -7.2,0.2 -16,0.6 -19.6,0.8 -9.6,0.8 -21.8,1.4 -37.5,1.9 -7.7,0.2 -14,0.5 -14,0.6 0,0.1 -17.4,0.9 -28.7,1.3 -3.2,0.1 -5.8,0.4 -5.8,0.7 0,0.3 -0.9,0.6 -2,0.7 -1.1,0.1 -1.9,-0.1 -1.6,-0.5 0.2,-0.4 -0.7,-0.8 -2,-0.8 -1.3,-0.1 -2.2,0.1 -2,0.5 0.2,0.3 -2.8,0.6 -6.7,0.7 -6.4,0.1 -21.8,0.8 -34.9,1.7 -2.7,0.2 -4.8,0 -4.8,-0.4 0,-0.4 -0.7,-1 -1.6,-1.3 -1.4,-0.5 -1.5,-0.4 -0.4,0.9 0.7,0.8 1.1,1.4 0.9,1.4 -0.2,-0.1 -1.8,-0.6 -3.6,-1.2 z"
       id="path42" />
    <path
       d="m 1441.7,549.9 c 2.1,-3 7.6,-10.7 12.2,-17.1 l 8.4,-11.5 13.1,-0.7 c 7.2,-0.3 23.5,-1.1 36.1,-1.6 12.7,-0.6 43.3,-1.9 68,-3 24.8,-1.1 55.4,-2.5 68,-3 12.7,-0.5 43,-1.9 67.5,-3 60,-2.7 83,-3.7 126,-5.5 20.1,-0.8 45.5,-1.9 56.5,-2.5 11,-0.6 40.7,-1.9 66,-3 25.3,-1.1 55.5,-2.4 67,-3 11.6,-0.5 31.8,-1.4 45,-2 25.6,-1.1 55.4,-2.4 91,-4 12.1,-0.6 37.3,-1.7 56,-2.5 18.7,-0.8 44.1,-1.9 56.5,-2.5 24.8,-1.1 100.3,-4.4 137,-6 12.9,-0.6 33.2,-1.5 45,-2 11.8,-0.5 23.1,-1 25,-0.9 h 3.5 l -4,1.3 c -12.8,4.3 -51.3,15.8 -58.5,17.5 -10.9,2.6 -38.7,4.8 -76.5,6.1 -16.5,0.6 -38.8,1.7 -49.5,2.5 -10.7,0.8 -33.2,1.9 -50,2.5 -16.8,0.6 -35.4,1.5 -41.5,2 -6,0.5 -25.8,1.4 -44,2 -18.1,0.6 -36.8,1.5 -41.5,2 -4.7,0.5 -21.5,1.4 -37.5,2 -15.9,0.5 -39.1,1.7 -51.5,2.5 -12.4,0.8 -36.7,2 -54,2.6 -17.3,0.5 -35.1,1.4 -39.5,1.9 -8.7,0.9 -21.6,1.6 -62.3,3 -14.5,0.5 -26.7,1.2 -27.1,1.5 -0.5,0.3 -20.3,1.2 -44.1,2 -23.7,0.8 -43.6,1.7 -44,2 -0.9,0.6 -26.3,1.9 -64,3.5 -54,2.2 -95.7,4.1 -106.5,5 -6.6,0.6 -29.3,1.7 -50.5,2.5 -21.2,0.8 -43.4,1.9 -49.5,2.4 -6,0.6 -16.8,1.3 -24,1.6 -7.1,0.4 -14.1,0.9 -15.5,1.2 -4.6,1.1 -11.9,5 -14,7.4 -1.2,1.3 -0.4,-0.1 1.7,-3.2 z"
       id="path44" />
    <path
       d="m 2389.3,508.3 c 1.5,-0.2 3.9,-0.2 5.5,0 1.5,0.2 0.2,0.4 -2.8,0.4 -3,0 -4.3,-0.2 -2.7,-0.4 z"
       id="path46" />
    <path
       d="m 2075,480.2 c 0,-1.1 5.3,-26.8 12,-57.7 1,-4.9 3.3,-15.2 4.9,-22.8 1.6,-7.7 3.1,-14.1 3.3,-14.3 0.7,-0.6 42.8,-2.7 43.4,-2.1 0.5,0.5 -60.2,94.5 -62.7,97.2 -0.6,0.5 -0.9,0.4 -0.9,-0.3 z"
       id="path48" />
    <path
       d="m 1490.2,92.3 c -0.6,-1.5 -1.9,-5.6 -3,-9 l -2,-6.1 7.5,-5.6 c 4.1,-3.1 7.9,-5.6 8.4,-5.6 0.6,0 0.7,-0.6 0.3,-1.2 -0.4,-0.7 0.9,0.3 2.9,2.1 2.1,1.9 3.7,4 3.7,4.5 -0.1,0.6 -3.8,6.2 -8.4,12.4 -8.3,11.2 -8.3,11.2 -9.4,8.5 z"
       id="path50" />
    <path
       d="m 2255.2,45.7 -3.2,-3.3 6.7,-1.8 c 3.8,-0.9 7.5,-1.8 8.3,-2 0.8,-0.1 2.6,-0.8 4,-1.5 l 2.5,-1.2 -2.6,2.3 c -1.5,1.3 -4.9,4.2 -7.6,6.5 l -5,4.2 z"
       id="path52" />
  </g>
</svg>
