<?xml version="1.0" encoding="UTF-8" standalone="no"?>
<!-- Created with Inkscape (http://www.inkscape.org/) -->

<svg
   version="1.1"
   id="svg824"
   width="451.40424"
   height="223.65958"
   viewBox="0 0 451.40423 223.65957"
   sodipodi:docname="test.svg"
   inkscape:version="1.1.2 (0a00cf5339, 2022-02-04, custom)"
   xmlns:inkscape="http://www.inkscape.org/namespaces/inkscape"
   xmlns:sodipodi="http://sodipodi.sourceforge.net/DTD/sodipodi-0.dtd"
   xmlns="http://www.w3.org/2000/svg"
   xmlns:svg="http://www.w3.org/2000/svg">
  <defs
     id="defs828" />
  <sodipodi:namedview
     id="namedview826"
     pagecolor="#ffffff"
     bordercolor="#666666"
     borderopacity="1.0"
     inkscape:pageshadow="2"
     inkscape:pageopacity="0.0"
     inkscape:pagecheckerboard="0"
     showgrid="false"
     inkscape:zoom="1.5766509"
     inkscape:cx="179.81153"
     inkscape:cy="93.869862"
     inkscape:window-width="1920"
     inkscape:window-height="1017"
     inkscape:window-x="-8"
     inkscape:window-y="-8"
     inkscape:window-maximized="1"
     inkscape:current-layer="g830" />
  <g
     inkscape:groupmode="layer"
     inkscape:label="Image"
     id="g830"
     transform="translate(-14.867455,-33.051196)">
    <g
       id="g9103"
       transform="translate(10.782349,32.029919)">
      <path
         style="fill:#a8a8dd;stroke-width:1.02128"
         d="M 224.68084,224.68085 H 81.702125 V 208.34043 192 H 224.68084 367.65956 v 16.34043 16.34042 z M 36.975931,186.89362 H 5.4468083 l -0.680851,-0.68086 -0.680851,-0.68084 v -42.72341 -42.7234 H 36.255318 68.42553 v 8.68085 8.68085 H 45.446807 22.468084 v 8.68085 8.68085 h 15.319149 15.319148 v 8.68085 8.68085 H 37.787233 22.468084 v 8.15068 8.15068 l 22.723404,0.27485 22.723403,0.27486 0.295081,8.93617 0.29508,8.93617 z m 53.407045,0 h -8.680851 v -43.40426 -43.40425 h 8.680851 8.680851 v 2.04255 2.04255 h 2.042553 2.04255 v 3.57447 3.57447 h 1.53192 1.53191 v 2.04255 2.04256 h 2.04256 2.04255 v 4.0851 4.08511 h 2.04255 2.04256 v 1.4128 1.41281 l 2.04255,0.53413 2.04255,0.53414 v 3.67008 3.67008 H 120 h 1.53191 v 1.53192 1.53191 h 2.04255 2.04256 v 4.08511 4.0851 h 2.04255 2.04255 v 2.04256 2.04255 h 2.55319 2.5532 v -25.02128 -25.02127 h 8.68085 8.68085 v 43.40425 43.40426 h -8.68085 -8.68085 v -2.04255 -2.04256 h -2.04256 -2.04255 v -4.0851 -4.08511 h -1.53191 -1.53192 v -1.53192 -1.53191 h -2.04255 -2.04256 v -4.08511 -4.0851 h -2.04255 -2.04255 v -2.04256 -2.04255 h -2.04256 -2.04255 v -3.57447 -3.57447 h -1.53191 -1.53192 v -2.04255 -2.04255 h -2.04255 -2.04255 v -3.57447 -3.57447 h -2.04256 -2.04255 v -2.04255 -2.04255 h -2.55319 -2.553193 v 25.02127 25.02128 z m 112.851064,0 h -18.38298 v -2.04255 -2.04256 h -3.67008 -3.67008 l -0.53414,-2.04255 -0.53414,-2.04255 h -1.4128 -1.4128 v -2.04256 -2.04255 h -2.04256 -2.04255 v -3.57447 -3.57447 h -2.04255 -2.04256 v -24 -24 h 2.04256 2.04255 v -4.0851 -4.08511 h 2.04255 2.04256 v -2.04255 -2.04256 h 1.53191 1.53192 v -1.53191 -1.53192 h 4.0851 4.08511 v -2.04255 -2.04255 h 18.38298 18.38297 v 2.04255 2.04255 h 4.08511 4.08511 v 1.53192 1.53191 h 1.53191 1.53192 v 2.04256 2.04255 h 2.04255 2.04255 v 4.08511 4.0851 h 2.04256 2.04255 v 2.64881 2.6488 l -2.04255,0.53414 -2.04256,0.53414 v 1.4128 1.4128 h -5.10638 -5.10638 v -1.4128 -1.4128 l -2.04256,-0.53414 -2.04255,-0.53414 v -1.62753 -1.62752 h -1.53191 -1.53192 v -2.04256 -2.04255 h -12.25532 -12.25532 v 2.04255 2.04256 h -4.0851 -4.08511 v 3.57446 3.57447 h -1.53191 -1.53192 v 14.29787 14.29788 h 1.53192 1.53191 v 4.0851 4.08511 h 4.08511 4.0851 v 1.53192 1.53191 h 8.17022 8.17021 v -1.53191 -1.53192 h 4.0851 4.08511 v -6.6383 -6.6383 h -5.61702 -5.61702 v -2.04255 -2.04255 h -2.04255 -2.04256 v -5.10639 -5.10638 h 2.04256 2.04255 v -1.53191 -1.53192 h 6.6383 6.63829 v 1.53192 1.53191 h 3.67008 3.67008 l 0.53414,2.04256 0.53414,2.04255 h 1.4128 1.41281 V 144 v 2.04255 h 2.04255 2.04255 v 3.57447 3.57447 h 2.04256 2.04255 v 7.14894 7.14893 h -2.04255 -2.04256 v 3.57447 3.57447 h -1.62752 -1.62753 l -0.53414,2.04255 -0.53414,2.04256 h -1.4128 -1.4128 v 2.04255 2.04255 h -4.08511 -4.08511 v 2.04256 2.04255 z m 67.40425,0 h -16.34043 v -9.19149 -9.19149 h 3.57447 3.57447 v -25.53192 -25.53191 h -3.57447 -3.57447 v -8.68085 -8.68085 h 16.34043 16.34042 v 8.68085 8.68085 h -4.10264 -4.10264 l 0.27286,25.78723 0.27285,25.78724 3.82979,0.31697 3.82978,0.31697 v 8.6192 8.6192 z m 38.29787,0 h -8.68085 v -43.40426 -43.40425 h 8.68085 8.68085 v 2.04255 2.04255 h 2.04255 2.04256 v 3.57447 3.57447 h 1.62752 1.62753 l 0.53414,2.04255 0.53414,2.04256 h 1.4128 1.4128 v 3.67008 3.67008 l 2.04256,0.53413 2.04255,0.53414 v 1.41281 1.4128 h 2.04255 2.04256 v 4.08511 4.0851 h 2.04255 2.04255 v 1.41281 1.4128 l 2.04256,0.53414 2.04255,0.53413 v 3.67008 3.67008 h 1.53191 1.53192 v 1.53192 1.53191 h 2.55319 2.55319 v -24.51063 -24.51064 h 9.20257 9.20258 l -0.26641,43.14893 -0.2664,43.14894 -8.50998,0.29799 -8.50999,0.29799 -0.52061,-1.99081 -0.5206,-1.99079 -1.94813,-0.50946 -1.94814,-0.50944 v -3.05018 -3.05017 l -1.53191,-0.58786 -1.53192,-0.58784 v -1.44486 -1.44486 l -2.04255,-0.53414 -2.04255,-0.53413 v -3.67008 -3.67008 h -2.04255 -2.04256 v -2.04256 -2.04255 h -1.53191 -1.53192 v -3.57447 -3.57447 h -2.04255 -2.04255 v -2.04255 -2.04255 h -2.04256 -2.04255 v -3.45536 -3.45536 l -2.04255,-0.53413 -2.04256,-0.53414 v -1.62753 -1.62752 h -2.55319 -2.55319 v 25.02127 25.02128 z m 107.91489,0 h -31.48936 l -0.68085,-0.68086 -0.68085,-0.68084 v -42.72341 -42.7234 h 32.17021 32.17021 v 8.68085 8.68085 h -22.97872 -22.97872 v 8.68085 8.68085 h 15.31914 15.31915 v 8.68085 8.68085 h -15.31915 -15.31914 v 8.17022 8.17021 h 22.97872 22.97872 v 9.19149 9.19149 z M 40.510637,94.978724 H 5.4468083 l -0.680851,-0.680851 -0.680851,-0.68085 v -8.000001 -8 H 8.1702125 12.255319 V 48 18.382979 H 8.1702125 4.0851063 V 9.7021278 1.0212766 h 35.7446797 35.74468 v 1.5319149 1.5319149 h 5.712633 5.712632 l 0.53414,2.0425532 0.534139,2.0425533 h 1.293689 1.293689 l 0.53414,2.0425531 0.53414,2.042553 h 1.627526 1.627526 v 3.574468 3.574469 h 2.042554 2.042553 v 5.106383 5.106383 H 97.021274 94.97872 v 3.455355 3.455355 l -2.042553,0.53414 -2.042553,0.53414 v 1.627525 1.627527 h -3.574468 -3.574468 v 4.595745 4.595745 h 3.574468 3.574468 v 2.042553 2.042553 h 2.042553 2.042553 v 3.455356 3.455354 l 2.042554,0.53414 2.042553,0.53414 v 6.733909 6.73391 H 97.021274 94.97872 v 3.455355 3.455355 l -2.042553,0.53414 -2.042553,0.53414 v 1.627526 1.627527 H 89.480812 88.06801 l -0.534139,2.042553 -0.53414,2.042553 h -5.712632 -5.712633 v 2.042553 2.042553 z m -4.255319,-13.891477 2.042553,-0.378505 14.042553,-0.01394 14.042553,-0.01395 v -1.531915 -1.531915 h 1.412802 1.412801 l 0.53414,-2.042553 0.53414,-2.042553 h 3.670079 3.67008 V 68.936171 64.340426 H 75.574466 73.531913 V 62.297873 60.25532 H 71.489359 69.446806 V 58.212767 56.170213 H 49.531913 29.61702 V 68.354502 80.53879 l 2.297873,0.463481 2.297872,0.463481 z m 11.74468,-38.19363 H 62.29787 v -2.042553 -2.042553 h 5.617021 5.617022 v -2.042553 -2.042553 h 4.085106 4.085106 V 30.12766 25.531915 H 77.617019 73.531913 V 23.489362 21.446809 H 69.957445 66.382977 V 19.914894 18.382979 H 47.999998 29.61702 v 10.212766 10.212766 h 2.042553 2.042554 v 2.042553 2.042553 z M 162.98922,94.978724 h -20.0105 v -2.042553 -2.042553 h -4.08511 -4.0851 v -2.042553 -2.042553 h -2.04256 -2.04255 v -2.042554 -2.042553 h -1.53191 -1.53192 v -3.574468 -3.574468 h -2.04255 -2.04256 V 47.040373 18.506279 l -3.82978,-0.31697 -3.82979,-0.316968 -0.29662,-8.4255324 -0.29662,-8.425532 h 16.89236 16.89237 v 8.6808512 8.6808512 h -4.08511 -4.0851 v 25.531915 25.531915 h 2.04255 2.04255 v 2.042553 2.042554 h 2.04256 2.04255 v 3.486584 3.486584 l 12,0.343203 12,0.343203 3.82978,-0.362589 3.82979,-0.36259 v -3.467197 -3.467198 h 2.04255 2.04256 v -4.085107 -4.085106 h 2.04255 2.04255 V 43.819282 22.276863 l -2.04255,-0.53414 -2.04255,-0.53414 v -1.351152 -1.351152 l -3.82979,-0.31697 -3.82979,-0.316968 -0.29662,-8.4255324 -0.29662,-8.425532 h 16.89237 16.89236 v 8.6808512 8.6808512 h -4.0851 -4.08511 v 28.595745 28.595745 h -2.04255 -2.04256 v 3.574468 3.574468 h -1.53191 -1.53192 v 2.042553 2.042554 h -2.04255 -2.04255 v 2.042553 2.042553 h -3.45536 -3.45536 l -0.53413,2.042553 -0.53414,2.042553 z m 81.03572,-0.230376 -15.88995,0.280261 -0.7058,-0.705793 -0.70579,-0.705793 v -8.000001 -8 h 4.0851 4.08511 V 48 18.382979 h -4.08511 -4.0851 V 9.7021278 1.0212766 h 16.85106 16.85106 v 8.6808512 8.6808512 h -4.0851 -4.08511 V 48 77.617022 h 4.12641 4.1264 l -0.29662,8.425532 -0.29661,8.425532 z m 69.16654,0.230376 h -35.06383 l -0.68085,-0.680851 -0.68085,-0.68085 v -8.000001 -8 h 4.0851 4.08511 V 48 18.382979 h -4.08511 -4.0851 V 9.7021278 1.0212766 h 16.85106 16.85107 v 8.6808512 8.6808512 h -4.08511 -4.08511 V 48 77.617022 h 14.29787 14.29788 v -4.085106 -4.085107 h 8.68085 8.68085 v 12.765958 12.765957 z m 84.0851,0 h -31.65957 v -8.680851 -8.680851 h 3.57447 3.57447 V 48 18.382979 h -3.57447 -3.57447 V 9.7021278 1.0212766 h 31.65957 31.65958 v 1.5319149 1.5319149 h 4.0851 4.08511 v 2.0425532 2.0425533 h 1.53191 1.53192 v 2.0425531 2.042553 h 2.04255 2.04255 v 1.531915 1.531915 h 2.04256 2.04255 v 4.085107 4.085106 h 2.04255 2.04256 v 7.659574 7.659575 h 1.53191 1.53192 v 8.680851 8.680851 h -1.53192 -1.53191 v 7.659575 7.659574 h -2.04256 -2.04255 v 4.085107 4.085106 h -2.04255 -2.04256 v 2.042554 2.042553 h -2.04255 -2.04255 v 1.531915 1.531915 h -1.53192 -1.53191 v 2.042553 2.042553 h -4.08511 -4.0851 v 2.042553 2.042553 z m 7.65958,-17.361702 h 13.78723 v -2.042553 -2.042553 h 4.08511 4.0851 v -2.042554 -2.042553 h 1.53192 1.53191 v -1.627527 -1.627525 l 2.04256,-0.53414 2.04255,-0.53414 V 49.531915 33.940354 l -2.04255,-0.53414 -2.04256,-0.53414 v -3.670079 -3.67008 h -1.53191 -1.53192 v -2.042553 -2.042553 h -4.0851 -4.08511 V 19.914894 18.382979 H 404.93616 391.14892 V 48 77.617022 Z"
         id="path9117" />
      <path
         style="fill:#f4b878;stroke-width:1.02128"
         d="M 224.68084,224.68085 H 81.702125 V 208.34043 192 H 224.68084 367.65956 v 16.34043 16.34042 z M 36.975931,186.89362 H 5.4468083 l -0.680851,-0.68086 -0.680851,-0.68084 v -42.72341 -42.7234 H 36.255318 68.42553 v 8.68085 8.68085 H 45.446807 22.468084 v 8.68085 8.68085 h 15.319149 15.319148 v 8.68085 8.68085 H 37.787233 22.468084 v 8.15068 8.15068 l 22.723404,0.27485 22.723403,0.27486 0.295081,8.93617 0.29508,8.93617 z m 53.407045,0 h -8.680851 v -43.40426 -43.40425 h 8.680851 8.680851 v 2.04255 2.04255 h 2.042553 2.04255 v 3.57447 3.57447 h 1.53192 1.53191 v 2.04255 2.04256 h 2.04256 2.04255 v 4.0851 4.08511 h 2.04255 2.04256 v 1.4128 1.41281 l 2.04255,0.53413 2.04255,0.53414 v 3.67008 3.67008 H 120 h 1.53191 v 1.53192 1.53191 h 2.04255 2.04256 v 4.08511 4.0851 h 2.04255 2.04255 v 2.04256 2.04255 h 2.55319 2.5532 v -25.02128 -25.02127 h 8.68085 8.68085 v 43.40425 43.40426 h -8.68085 -8.68085 v -2.04255 -2.04256 h -2.04256 -2.04255 v -4.0851 -4.08511 h -1.53191 -1.53192 v -1.53192 -1.53191 h -2.04255 -2.04256 v -4.08511 -4.0851 h -2.04255 -2.04255 v -2.04256 -2.04255 h -2.04256 -2.04255 v -3.57447 -3.57447 h -1.53191 -1.53192 v -2.04255 -2.04255 h -2.04255 -2.04255 v -3.57447 -3.57447 h -2.04256 -2.04255 v -2.04255 -2.04255 h -2.55319 -2.553193 v 25.02127 25.02128 z m 112.851064,0 h -18.38298 v -2.04255 -2.04256 h -3.67008 -3.67008 l -0.53414,-2.04255 -0.53414,-2.04255 h -1.4128 -1.4128 v -2.04256 -2.04255 h -2.04256 -2.04255 v -3.57447 -3.57447 h -2.04255 -2.04256 v -24 -24 h 2.04256 2.04255 v -4.0851 -4.08511 h 2.04255 2.04256 v -2.04255 -2.04256 h 1.53191 1.53192 v -1.53191 -1.53192 h 4.0851 4.08511 v -2.04255 -2.04255 h 18.38298 18.38297 v 2.04255 2.04255 h 4.08511 4.08511 v 1.53192 1.53191 h 1.53191 1.53192 v 2.04256 2.04255 h 2.04255 2.04255 v 4.08511 4.0851 h 2.04256 2.04255 v 2.64881 2.6488 l -2.04255,0.53414 -2.04256,0.53414 v 1.4128 1.4128 h -5.10638 -5.10638 v -1.4128 -1.4128 l -2.04256,-0.53414 -2.04255,-0.53414 v -1.62753 -1.62752 h -1.53191 -1.53192 v -2.04256 -2.04255 h -12.25532 -12.25532 v 2.04255 2.04256 h -4.0851 -4.08511 v 3.57446 3.57447 h -1.53191 -1.53192 v 14.29787 14.29788 h 1.53192 1.53191 v 4.0851 4.08511 h 4.08511 4.0851 v 1.53192 1.53191 h 8.17022 8.17021 v -1.53191 -1.53192 h 4.0851 4.08511 v -6.6383 -6.6383 h -5.61702 -5.61702 v -2.04255 -2.04255 h -2.04255 -2.04256 v -5.10639 -5.10638 h 2.04256 2.04255 v -1.53191 -1.53192 h 6.6383 6.63829 v 1.53192 1.53191 h 3.67008 3.67008 l 0.53414,2.04256 0.53414,2.04255 h 1.4128 1.41281 V 144 v 2.04255 h 2.04255 2.04255 v 3.57447 3.57447 h 2.04256 2.04255 v 7.14894 7.14893 h -2.04255 -2.04256 v 3.57447 3.57447 h -1.62752 -1.62753 l -0.53414,2.04255 -0.53414,2.04256 h -1.4128 -1.4128 v 2.04255 2.04255 h -4.08511 -4.08511 v 2.04256 2.04255 z m 67.40425,0 h -16.34043 v -9.19149 -9.19149 h 3.57447 3.57447 v -25.53192 -25.53191 h -3.57447 -3.57447 v -8.68085 -8.68085 h 16.34043 16.34042 v 8.68085 8.68085 h -4.10264 -4.10264 l 0.27286,25.78723 0.27285,25.78724 3.82979,0.31697 3.82978,0.31697 v 8.6192 8.6192 z m 38.29787,0 h -8.68085 v -43.40426 -43.40425 h 8.68085 8.68085 v 2.04255 2.04255 h 2.04255 2.04256 v 3.57447 3.57447 h 1.62752 1.62753 l 0.53414,2.04255 0.53414,2.04256 h 1.4128 1.4128 v 3.67008 3.67008 l 2.04256,0.53413 2.04255,0.53414 v 1.41281 1.4128 h 2.04255 2.04256 v 4.08511 4.0851 h 2.04255 2.04255 v 1.41281 1.4128 l 2.04256,0.53414 2.04255,0.53413 v 3.67008 3.67008 h 1.53191 1.53192 v 1.53192 1.53191 h 2.55319 2.55319 v -24.51063 -24.51064 h 9.20257 9.20258 l -0.26641,43.14893 -0.2664,43.14894 -8.50998,0.29799 -8.50999,0.29799 -0.52061,-1.99081 -0.5206,-1.99079 -1.94813,-0.50946 -1.94814,-0.50944 v -3.05018 -3.05017 l -1.53191,-0.58786 -1.53192,-0.58784 v -1.44486 -1.44486 l -2.04255,-0.53414 -2.04255,-0.53413 v -3.67008 -3.67008 h -2.04255 -2.04256 v -2.04256 -2.04255 h -1.53191 -1.53192 v -3.57447 -3.57447 h -2.04255 -2.04255 v -2.04255 -2.04255 h -2.04256 -2.04255 v -3.45536 -3.45536 l -2.04255,-0.53413 -2.04256,-0.53414 v -1.62753 -1.62752 h -2.55319 -2.55319 v 25.02127 25.02128 z m 107.91489,0 h -31.48936 l -0.68085,-0.68086 -0.68085,-0.68084 v -42.72341 -42.7234 h 32.17021 32.17021 v 8.68085 8.68085 h -22.97872 -22.97872 v 8.68085 8.68085 h 15.31914 15.31915 v 8.68085 8.68085 h -15.31915 -15.31914 v 8.17022 8.17021 h 22.97872 22.97872 v 9.19149 9.19149 z"
         id="path9115" />
      <path
         style="fill:#f1b678;stroke-width:1.02128"
         d="M 182.32991,224.68085 H 81.702125 V 208.34043 192 H 184.76595 287.82977 l 0.34044,1.0039 0.34042,1.0039 38.04255,0.0612 38.04255,0.0612 v 13.74339 13.7434 h -40.23115 -40.23116 l -0.58786,1.53192 -0.58785,1.53191 h -100.6278 z m -3.60651,-7.14893 h 2.04255 v -9.19149 -9.19149 h -2.04255 -2.04255 v 9.19149 9.19149 z m 45.95744,0 h 2.04256 v -9.19149 -9.19149 h -2.04256 -2.04255 v 9.19149 9.19149 z m 68.42553,0 h 2.04256 v -9.19149 -9.19149 l -3.82979,0.0156 -3.82979,0.0156 1.39216,0.882 1.39216,0.88202 -1.39216,0.55363 -1.39216,0.55365 1.78724,0.0806 1.78723,0.0806 v 2.04255 2.04255 h -2.00662 -2.00662 l -1.09314,2.04256 -1.09315,2.04255 h 3.09977 3.09976 v 3.57447 3.57446 h 2.04255 z m 8.17022,0 h 2.04255 v -5.61702 -5.61703 h 2.04255 2.04256 v 2.04256 2.04255 h 1.53191 1.53192 v -2.04255 -2.04256 h 2.04255 2.04255 v 5.61703 5.61702 h 2.04255 2.04256 v -9.19149 -9.19149 h -2.04256 -2.04255 v 2.15182 2.15182 l -1.62642,-0.62413 -1.62643,-0.62411 -0.53524,2.04676 -0.53524,2.04677 h -1.29369 -1.29369 l -0.53524,-2.04677 -0.53524,-2.04676 -1.62643,0.62411 -1.62642,0.62413 v -2.15182 -2.15182 h -2.04255 -2.04256 v 9.19149 9.19149 z m 22.97872,0 h 1.53191 v -3.57447 -3.57447 h 4.08511 4.08511 v 3.57447 3.57447 h 1.53191 1.53192 v -7.62753 -7.62752 l -1.53192,0.58785 -1.53191,0.58786 v 1.42265 1.42264 h -4.08511 -4.08511 v -1.42264 -1.42265 l -1.53191,-0.58786 -1.53192,-0.58785 v 7.62752 7.62753 z m 18.89684,0 h 2.03933 v -5.61702 -5.61703 h 2.04255 2.04255 v 2.04256 2.04255 h 2.04256 2.04255 v 3.57447 3.57447 h 2.08231 2.08232 l -0.29508,-8.92468 -0.29508,-8.92467 -1.78724,-0.3417 -1.78723,-0.3417 v 3.72039 3.72037 l -2.29787,-0.35059 -2.29787,-0.35059 0.25532,-1.25235 0.25531,-1.25236 h -2.04255 -2.04255 v -2.04255 -2.04255 l -1.78724,0.0105 -1.78723,0.0105 -0.25209,9.18094 -0.25208,9.18094 h 2.03931 z m -198.44816,-2.29788 0.46705,-1.78723 -0.46705,-1.78723 -0.46706,-1.78724 v 3.57447 3.57447 z m -2.04485,-1.00936 0.46476,-1.77533 -0.44415,-2.30978 -0.44415,-2.30978 -0.0206,4.08511 -0.0206,4.0851 0.46476,-1.77532 z m -25.72297,-7.92681 h 1.53191 v -2.04255 -2.04255 h -1.53191 -1.53192 v 2.04255 2.04255 z m 126.63829,-4.0851 h 1.53192 v -1.53192 -1.53191 h -1.53192 -1.53191 v 1.53191 1.53192 z m 86.13382,-0.20382 3.58063,-0.30682 0.41937,-1.2766 0.41937,-1.27659 h -4 -4 v 1.58342 1.58341 z m -0.43169,-0.89809 -1.95745,-0.0806 1.34042,-0.53639 1.34043,-0.5364 0.61702,0.61702 0.61702,0.61702 -1.95744,-0.0806 z M 36.975931,186.89362 H 5.4468083 l -0.680851,-0.68086 -0.680851,-0.68084 v -42.72341 -42.7234 H 36.255318 68.42553 v 8.68085 8.68085 H 45.446807 22.468084 v 8.68085 8.68085 h 15.319149 15.319148 v 8.68085 8.68085 H 37.787233 22.468084 v 8.15068 8.15068 l 22.723404,0.27485 22.723403,0.27486 0.295081,8.93617 0.29508,8.93617 z m 53.407045,0 h -8.680851 v -43.40426 -43.40425 h 8.680851 8.680851 v 2.04255 2.04255 h 2.042553 2.04255 v 3.57447 3.57447 h 1.53192 1.53191 v 2.04255 2.04256 h 2.04256 2.04255 v 4.0851 4.08511 h 2.04255 2.04256 v 1.4128 1.41281 l 2.04255,0.53413 2.04255,0.53414 v 3.67008 3.67008 H 120 h 1.53191 v 1.53192 1.53191 h 2.04255 2.04256 v 4.08511 4.0851 h 2.04255 2.04255 v 2.04256 2.04255 h 2.55319 2.5532 v -25.02128 -25.02127 h 8.68085 8.68085 v 43.40425 43.40426 h -8.68085 -8.68085 v -2.04255 -2.04256 h -2.04256 -2.04255 v -4.0851 -4.08511 h -1.53191 -1.53192 v -1.53192 -1.53191 h -2.04255 -2.04256 v -4.08511 -4.0851 h -2.04255 -2.04255 v -2.04256 -2.04255 h -2.04256 -2.04255 v -3.57447 -3.57447 h -1.53191 -1.53192 v -2.04255 -2.04255 h -2.04255 -2.04255 v -3.57447 -3.57447 h -2.04256 -2.04255 v -2.04255 -2.04255 h -2.55319 -2.553193 v 25.02127 25.02128 z m 112.851064,0 h -18.38298 v -2.04255 -2.04256 h -3.67008 -3.67008 l -0.53414,-2.04255 -0.53414,-2.04255 h -1.4128 -1.4128 v -2.04256 -2.04255 h -2.04256 -2.04255 v -3.57447 -3.57447 h -2.04255 -2.04256 v -24 -24 h 2.04256 2.04255 v -4.0851 -4.08511 h 2.04255 2.04256 v -2.04255 -2.04256 h 1.53191 1.53192 v -1.53191 -1.53192 h 4.0851 4.08511 v -2.04255 -2.04255 h 18.38298 18.38297 v 2.04255 2.04255 h 4.08511 4.08511 v 1.53192 1.53191 h 1.53191 1.53192 v 2.04256 2.04255 h 2.04255 2.04255 v 4.08511 4.0851 h 2.04256 2.04255 v 2.64881 2.6488 l -2.04255,0.53414 -2.04256,0.53414 v 1.4128 1.4128 h -5.10638 -5.10638 v -1.4128 -1.4128 l -2.04256,-0.53414 -2.04255,-0.53414 v -1.62753 -1.62752 h -1.53191 -1.53192 v -2.04256 -2.04255 h -12.25532 -12.25532 v 2.04255 2.04256 h -4.0851 -4.08511 v 3.57446 3.57447 h -1.53191 -1.53192 v 14.29787 14.29788 h 1.53192 1.53191 v 4.0851 4.08511 h 4.08511 4.0851 v 1.53192 1.53191 h 8.17022 8.17021 v -1.53191 -1.53192 h 4.0851 4.08511 v -6.6383 -6.6383 h -5.61702 -5.61702 v -2.04255 -2.04255 h -2.04255 -2.04256 v -5.10639 -5.10638 h 2.04256 2.04255 v -1.53191 -1.53192 h 6.6383 6.63829 v 1.53192 1.53191 h 3.67008 3.67008 l 0.53414,2.04256 0.53414,2.04255 h 1.4128 1.41281 V 144 v 2.04255 h 2.04255 2.04255 v 3.57447 3.57447 h 2.04256 2.04255 v 7.14894 7.14893 h -2.04255 -2.04256 v 3.57447 3.57447 h -1.62752 -1.62753 l -0.53414,2.04255 -0.53414,2.04256 h -1.4128 -1.4128 v 2.04255 2.04255 h -4.08511 -4.08511 v 2.04256 2.04255 z m 67.40425,0 h -16.34043 v -9.19149 -9.19149 h 3.57447 3.57447 v -25.53192 -25.53191 h -3.57447 -3.57447 v -8.68085 -8.68085 h 16.34043 16.34042 v 8.68085 8.68085 h -4.10264 -4.10264 l 0.27286,25.78723 0.27285,25.78724 3.82979,0.31697 3.82978,0.31697 v 8.6192 8.6192 z m 38.29787,0 h -8.68085 v -43.40426 -43.40425 h 8.68085 8.68085 v 2.04255 2.04255 h 2.04255 2.04256 v 3.57447 3.57447 h 1.62752 1.62753 l 0.53414,2.04255 0.53414,2.04256 h 1.4128 1.4128 v 3.67008 3.67008 l 2.04256,0.53413 2.04255,0.53414 v 1.41281 1.4128 h 2.04255 2.04256 v 4.08511 4.0851 h 2.04255 2.04255 v 1.41281 1.4128 l 2.04256,0.53414 2.04255,0.53413 v 3.67008 3.67008 h 1.53191 1.53192 v 1.53192 1.53191 h 2.55319 2.55319 v -24.51063 -24.51064 h 9.20257 9.20258 l -0.26641,43.14893 -0.2664,43.14894 -8.50998,0.29799 -8.50999,0.29799 -0.52061,-1.99081 -0.5206,-1.99079 -1.94813,-0.50946 -1.94814,-0.50944 v -3.05018 -3.05017 l -1.53191,-0.58786 -1.53192,-0.58784 v -1.44486 -1.44486 l -2.04255,-0.53414 -2.04255,-0.53413 v -3.67008 -3.67008 h -2.04255 -2.04256 v -2.04256 -2.04255 h -1.53191 -1.53192 v -3.57447 -3.57447 h -2.04255 -2.04255 v -2.04255 -2.04255 h -2.04256 -2.04255 v -3.45536 -3.45536 l -2.04255,-0.53413 -2.04256,-0.53414 v -1.62753 -1.62752 h -2.55319 -2.55319 v 25.02127 25.02128 z m 107.91489,0 h -31.48936 l -0.68085,-0.68086 -0.68085,-0.68084 v -42.72341 -42.7234 h 32.17021 32.17021 v 8.68085 8.68085 h -22.97872 -22.97872 v 8.68085 8.68085 h 15.31914 15.31915 v 8.68085 8.68085 h -15.31915 -15.31914 v 8.17022 8.17021 h 22.97872 22.97872 v 9.19149 9.19149 z"
         id="path9113" />
      <path
         style="fill:#edb577;stroke-width:1.02128"
         d="M 224.17021,221.61702 H 83.744678 V 209.3617 197.10639 H 82.723402 81.702125 V 194.55319 192 h 16.765957 16.765958 l 0.34043,0.90771 0.34042,0.9077 26.04255,0.26011 26.04255,0.2601 6.44326,-0.14653 6.44324,-0.14653 -0.63118,-1.02128 L 179.62413,192 h 44.4858 44.48581 v 1.02128 1.02128 h 43.26171 43.26171 l 4.73829,0.64945 4.73828,0.64946 v 13.13777 13.13778 z m -126.12766,-4.0851 h 6.12766 V 216 214.46809 h 1.53191 1.53192 v -2.04256 -2.04255 h -1.53192 -1.53191 v 2.10128 2.10127 l -4.248369,-0.31404 -4.248369,-0.31404 -0.257009,-1.78724 -0.257009,-1.78723 h 3.994739 3.994737 v -2.04255 -2.04256 h -4.159987 -4.159991 l 0.338696,-1.78723 0.338698,-1.78723 3.821294,-0.31698 3.82129,-0.31696 v -1.47027 -1.47026 h -5.617018 -5.617021 v 9.19149 9.19149 z m 22.46808,0 h 2.04256 v -5.61702 -5.61703 h 2.04255 2.04255 v -1.53191 -1.53192 h -2.04255 -2.04255 v 1.53192 1.53191 h -2.04256 -2.04255 v -2.04255 -2.04255 h -1.53191 -1.53192 v -1.53192 -1.53191 h -2.04255 -2.04255 v 1.53191 1.53192 h 2.04255 2.04255 v 2.04255 2.04255 h 1.53192 1.53191 v 5.61703 5.61702 z m 23.48937,0 h 2.04255 v -3.57447 -3.57447 h 1.53191 1.53192 v 1.62753 1.62752 l 2.04255,0.53414 2.04255,0.53414 v 1.4128 1.41281 h 2.04256 2.04255 V 216 214.46809 h -2.04255 -2.04256 v -2.04256 -2.04255 h -1.53191 -1.53192 v -2.04255 -2.04256 h 1.53192 1.53191 v -1.53191 -1.53192 h 2.04256 2.04255 v -2.04255 -2.04255 h -2.04255 -2.04256 v 1.53191 1.53192 h -1.53191 -1.53192 v 2.04255 2.04255 h -2.04255 -2.04255 v -3.57446 -3.57447 H 144 141.95744 v 9.19149 9.19149 z m 22.97872,0 h 5.61702 V 216 214.46809 h -4.08511 -4.0851 v -2.04256 -2.04255 h 2.04255 2.04255 v -2.04255 -2.04256 h -2.04255 -2.04255 v -2.04255 -2.04255 h 4.0851 4.08511 v -1.53192 -1.53191 h -5.61702 -5.61702 v 9.19149 9.19149 z m 11.74468,0 h 2.04255 v -5.61702 -5.61703 h 1.53192 1.53191 v -1.53191 -1.53192 h -1.53191 -1.53192 v -2.04255 -2.04255 h -2.04255 -2.04255 v 9.19149 9.19149 z m 11.23404,0 h 2.04255 v -9.19149 -9.19149 h -2.04255 -2.04255 v 3.57447 3.57446 h -2.04256 -2.04255 v 2.04256 2.04255 h 2.04255 2.04256 v 3.57447 3.57447 z m 22.97872,0 h 5.61702 v -3.99059 -3.99059 l -5.61841,-0.34984 -5.61842,-0.34983 0.001,0.76595 0.001,0.76596 h 4.0851 4.08511 v 2.04255 2.04256 h -4.08511 -4.0851 V 216 v 1.53192 h 5.61702 z m 11.74468,0 h 2.04256 v -9.19149 -9.19149 h -2.04256 -2.04255 v 9.19149 9.19149 z m 11.74468,0 h 5.61703 V 216 214.46809 h -4.08511 -4.08511 v -0.91201 -0.91201 l -1.53191,-0.58786 -1.53192,-0.58785 v 3.03177 3.03179 z m 14.80851,0 h 2.04256 v -2.15182 -2.15182 l -1.61545,0.6199 -1.61543,0.61991 h -0.42712 -0.42711 V 216 v 1.53192 z m 19.45598,0 h 5.73552 V 216 214.46809 h -3.9149 -3.91489 v -1.92344 -1.92345 l 2.04255,-0.53413 2.04255,-0.53414 v -1.62753 -1.62753 h -1.93328 -1.93329 l -0.54954,-1.43206 -0.54954,-1.43208 0.61049,-0.61047 0.61048,-0.61049 h 3.40426 3.40425 v -1.53192 -1.53191 h -3.3475 -3.3475 l -1.63619,1.91094 -1.6362,1.91094 -0.41139,7.28055 -0.41139,7.28055 z m 11.18232,0 h 2.04255 v -3.57447 -3.57447 h 3.57447 3.57447 v 3.57447 3.57447 h 2.04255 2.04256 v -9.19149 -9.19149 h -7.65958 -7.65957 v 9.19149 9.19149 z m 5.61702,-11.23405 h -3.57447 v -2.04255 -2.04255 h 3.57447 3.57447 v 2.04255 2.04255 z m 1.53192,-5.10638 h -1.3617 l 0.68084,-0.68085 0.68086,-0.68085 0.68085,0.68085 0.68085,0.68085 z m 12.25532,16.34043 h 2.04255 v -5.61702 -5.61703 h 2.04255 2.04256 v 2.04256 2.04255 h 1.53191 1.53192 v -2.04255 -2.04256 h 2.04255 2.04255 v 5.61703 5.61702 h 2.04255 2.04256 v -9.19149 -9.19149 h -2.04256 -2.04255 v 2.15182 2.15182 l -1.62642,-0.62413 -1.62643,-0.62411 -0.53524,2.04676 -0.53524,2.04677 h -1.29369 -1.29369 l -0.53524,-2.04677 -0.53524,-2.04676 -1.62643,0.62411 -1.62642,0.62413 v -2.15182 -2.15182 h -2.04255 -2.04256 v 9.19149 9.19149 z m 22.97872,0 h 1.53191 v -3.57447 -3.57447 h 4.08511 4.08511 v 3.57447 3.57447 h 1.53191 1.53192 v -7.62753 -7.62752 l -1.53192,0.58785 -1.53191,0.58786 v 1.42265 1.42264 h -4.08511 -4.08511 v -1.42264 -1.42265 l -1.53191,-0.58786 -1.53192,-0.58785 v 7.62752 7.62753 z m 18.89684,0 h 2.03933 v -5.61702 -5.61703 h 2.04255 2.04255 v 2.04256 2.04255 h 2.04256 2.04255 v 3.57447 3.57447 h 2.08231 2.08232 l -0.29508,-8.92468 -0.29508,-8.92467 -1.78724,-0.3417 -1.78723,-0.3417 v 3.72039 3.72037 l -2.29787,-0.35059 -2.29787,-0.35059 0.25532,-1.25235 0.25531,-1.25236 h -2.04255 -2.04255 v -2.04255 -2.04255 l -1.78724,0.0105 -1.78723,0.0105 -0.25209,9.18094 -0.25208,9.18094 h 2.03931 z m -87.2621,-3.06383 h 0.45037 v -1.02128 -1.02128 h -1.08155 -1.08155 l 0.63118,1.02128 0.63118,1.02128 z m -150.18793,-8.17022 h 1.53192 v -1.53191 -1.53192 h -1.53192 -1.53191 v 1.53192 1.53191 z m 23.74468,-3.14446 0.25532,0.0806 v -2.04255 -2.04255 h -1.53191 -1.53192 v 1.44681 1.4468 l 1.2766,0.51512 1.2766,0.51512 0.25531,0.0806 z m 114.12766,-0.94064 h 1.53192 v -1.53192 -1.53191 h -1.53192 -1.53191 v 1.53191 1.53192 z m 86.13382,-0.20382 3.58063,-0.30682 0.41937,-1.2766 0.41937,-1.27659 h -4 -4 v 1.58342 1.58341 z m -0.43169,-0.89809 -1.95745,-0.0806 1.34042,-0.53639 1.34043,-0.5364 0.61702,0.61702 0.61702,0.61702 -1.95744,-0.0806 z M 36.975931,186.89362 H 5.4468083 l -0.680851,-0.68086 -0.680851,-0.68084 v -42.72341 -42.7234 H 36.255318 68.42553 v 8.68085 8.68085 H 45.446807 22.468084 v 8.68085 8.68085 h 15.319149 15.319148 v 8.68085 8.68085 H 37.787233 22.468084 v 8.15068 8.15068 l 22.723404,0.27485 22.723403,0.27486 0.295081,8.93617 0.29508,8.93617 z m 53.407045,0 h -8.680851 v -43.40426 -43.40425 h 8.680851 8.680851 v 2.04255 2.04255 h 2.042553 2.04255 v 3.57447 3.57447 h 1.53192 1.53191 v 2.04255 2.04256 h 2.04256 2.04255 v 4.0851 4.08511 h 2.04255 2.04256 v 1.4128 1.41281 l 2.04255,0.53413 2.04255,0.53414 v 3.67008 3.67008 H 120 h 1.53191 v 1.53192 1.53191 h 2.04255 2.04256 v 4.08511 4.0851 h 2.04255 2.04255 v 2.04256 2.04255 h 2.55319 2.5532 v -25.02128 -25.02127 h 8.68085 8.68085 v 43.40425 43.40426 h -8.68085 -8.68085 v -2.04255 -2.04256 h -2.04256 -2.04255 v -4.0851 -4.08511 h -1.53191 -1.53192 v -1.53192 -1.53191 h -2.04255 -2.04256 v -4.08511 -4.0851 h -2.04255 -2.04255 v -2.04256 -2.04255 h -2.04256 -2.04255 v -3.57447 -3.57447 h -1.53191 -1.53192 v -2.04255 -2.04255 h -2.04255 -2.04255 v -3.57447 -3.57447 h -2.04256 -2.04255 v -2.04255 -2.04255 h -2.55319 -2.553193 v 25.02127 25.02128 z m 112.851064,0 h -18.38298 v -2.04255 -2.04256 h -3.67008 -3.67008 l -0.53414,-2.04255 -0.53414,-2.04255 h -1.4128 -1.4128 v -2.04256 -2.04255 h -2.04256 -2.04255 v -3.57447 -3.57447 h -2.04255 -2.04256 v -24 -24 h 2.04256 2.04255 v -4.0851 -4.08511 h 2.04255 2.04256 v -2.04255 -2.04256 h 1.53191 1.53192 v -1.53191 -1.53192 h 4.0851 4.08511 v -2.04255 -2.04255 h 18.38298 18.38297 v 2.04255 2.04255 h 4.08511 4.08511 v 1.53192 1.53191 h 1.53191 1.53192 v 2.04256 2.04255 h 2.04255 2.04255 v 4.08511 4.0851 h 2.04256 2.04255 v 2.64881 2.6488 l -2.04255,0.53414 -2.04256,0.53414 v 1.4128 1.4128 h -5.10638 -5.10638 v -1.4128 -1.4128 l -2.04256,-0.53414 -2.04255,-0.53414 v -1.62753 -1.62752 h -1.53191 -1.53192 v -2.04256 -2.04255 h -12.25532 -12.25532 v 2.04255 2.04256 h -4.0851 -4.08511 v 3.57446 3.57447 h -1.53191 -1.53192 v 14.29787 14.29788 h 1.53192 1.53191 v 4.0851 4.08511 h 4.08511 4.0851 v 1.53192 1.53191 h 8.17022 8.17021 v -1.53191 -1.53192 h 4.0851 4.08511 v -6.6383 -6.6383 h -5.61702 -5.61702 v -2.04255 -2.04255 h -2.04255 -2.04256 v -5.10639 -5.10638 h 2.04256 2.04255 v -1.53191 -1.53192 h 6.6383 6.63829 v 1.53192 1.53191 h 3.67008 3.67008 l 0.53414,2.04256 0.53414,2.04255 h 1.4128 1.41281 V 144 v 2.04255 h 2.04255 2.04255 v 3.57447 3.57447 h 2.04256 2.04255 v 7.14894 7.14893 h -2.04255 -2.04256 v 3.57447 3.57447 h -1.62752 -1.62753 l -0.53414,2.04255 -0.53414,2.04256 h -1.4128 -1.4128 v 2.04255 2.04255 h -4.08511 -4.08511 v 2.04256 2.04255 z m 67.40425,0 h -16.34043 v -9.19149 -9.19149 h 3.57447 3.57447 v -25.53192 -25.53191 h -3.57447 -3.57447 v -8.68085 -8.68085 h 16.34043 16.34042 v 8.68085 8.68085 h -4.10264 -4.10264 l 0.27286,25.78723 0.27285,25.78724 3.82979,0.31697 3.82978,0.31697 v 8.6192 8.6192 z m 38.29787,0 h -8.68085 v -43.40426 -43.40425 h 8.68085 8.68085 v 2.04255 2.04255 h 2.04255 2.04256 v 3.57447 3.57447 h 1.62752 1.62753 l 0.53414,2.04255 0.53414,2.04256 h 1.4128 1.4128 v 3.67008 3.67008 l 2.04256,0.53413 2.04255,0.53414 v 1.41281 1.4128 h 2.04255 2.04256 v 4.08511 4.0851 h 2.04255 2.04255 v 1.41281 1.4128 l 2.04256,0.53414 2.04255,0.53413 v 3.67008 3.67008 h 1.53191 1.53192 v 1.53192 1.53191 h 2.55319 2.55319 v -24.51063 -24.51064 h 9.20257 9.20258 l -0.26641,43.14893 -0.2664,43.14894 -8.50998,0.29799 -8.50999,0.29799 -0.52061,-1.99081 -0.5206,-1.99079 -1.94813,-0.50946 -1.94814,-0.50944 v -3.05018 -3.05017 l -1.53191,-0.58786 -1.53192,-0.58784 v -1.44486 -1.44486 l -2.04255,-0.53414 -2.04255,-0.53413 v -3.67008 -3.67008 h -2.04255 -2.04256 v -2.04256 -2.04255 h -1.53191 -1.53192 v -3.57447 -3.57447 h -2.04255 -2.04255 v -2.04255 -2.04255 h -2.04256 -2.04255 v -3.45536 -3.45536 l -2.04255,-0.53413 -2.04256,-0.53414 v -1.62753 -1.62752 h -2.55319 -2.55319 v 25.02127 25.02128 z m 107.91489,0 h -31.48936 l -0.68085,-0.68086 -0.68085,-0.68084 v -42.72341 -42.7234 h 32.17021 32.17021 v 8.68085 8.68085 h -22.97872 -22.97872 v 8.68085 8.68085 h 15.31914 15.31915 v 8.68085 8.68085 h -15.31915 -15.31914 v 8.17022 8.17021 h 22.97872 22.97872 v 9.19149 9.19149 z"
         id="path9111" />
      <path
         style="fill:#ddb778;stroke-width:1.02128"
         d="M 224.14056,221.61702 H 83.685393 l 0.284962,-13.49889 0.284961,-13.4989 130.212764,-0.22746 130.21276,-0.22746 9.95745,0.58132 9.95744,0.58132 v 13.14504 13.14503 z m -126.09801,-4.0851 h 6.12766 V 216 214.46809 h 1.53191 1.53192 v -2.04256 -2.04255 h -1.62753 -1.62752 l -0.53414,-2.04255 -0.53414,-2.04256 h -3.87563 -3.875626 l 0.256598,-1.78723 0.256599,-1.78723 3.738141,-0.31698 3.738138,-0.31696 v -1.47027 -1.47026 h -5.617018 -5.617021 v 9.19149 9.19149 z m 2.04255,-3.06383 h -4.085103 v -2.04256 -2.04255 h 4.085103 4.08511 v 2.04255 2.04256 z m 20.42553,3.06383 h 2.04256 v -5.61702 -5.61703 h 2.04255 2.04255 v -1.53191 -1.53192 h -2.04255 -2.04255 v 1.53192 1.53191 h -2.04256 -2.04255 v -2.04255 -2.04255 h -1.53191 -1.53192 v -1.53192 -1.53191 h -2.04255 -2.04255 v 1.53191 1.53192 h 2.04255 2.04255 v 2.04255 2.04255 h 1.53192 1.53191 v 5.61703 5.61702 z m 23.48937,0 h 2.04255 v -3.57447 -3.57447 h 1.53191 1.53192 v 1.62753 1.62752 l 2.04255,0.53414 2.04255,0.53414 v 1.4128 1.41281 h 2.04256 2.04255 V 216 214.46809 h -2.04255 -2.04256 v -2.04256 -2.04255 h -1.53191 -1.53192 v -2.04255 -2.04256 h 1.53192 1.53191 v -1.53191 -1.53192 h 2.04256 2.04255 v -2.04255 -2.04255 h -2.04255 -2.04256 v 1.53191 1.53192 h -1.53191 -1.53192 v 2.04255 2.04255 h -2.04255 -2.04255 v -3.57446 -3.57447 H 144 141.95744 v 9.19149 9.19149 z m 22.97872,0 h 5.61702 V 216 214.46809 h -4.08511 -4.0851 v -2.04256 -2.04255 h 2.04255 2.04255 v -2.04255 -2.04256 h -2.04255 -2.04255 v -2.04255 -2.04255 h 4.0851 4.08511 v -1.53192 -1.53191 h -5.61702 -5.61702 v 9.19149 9.19149 z m 11.74468,0 h 2.04255 v -5.61702 -5.61703 h 1.53192 1.53191 v -1.53191 -1.53192 h -1.53191 -1.53192 v -2.04255 -2.04255 h -2.04255 -2.04255 v 9.19149 9.19149 z m 11.23404,0 h 2.04255 v -9.19149 -9.19149 h -2.04255 -2.04255 v 3.57447 3.57446 h -2.04256 -2.04255 v 2.04256 2.04255 h 2.04255 2.04256 v 3.57447 3.57447 z m 22.97872,0 h 5.61702 v -5.61702 -5.61703 h -4.0851 -4.08511 v -2.04255 -2.04255 h 4.08511 4.0851 v -1.53192 -1.53191 h -5.61702 -5.61702 v 5.61702 5.61702 h 4.08511 4.0851 v 2.04255 2.04256 h -4.0851 -4.08511 V 216 v 1.53192 z m 11.74468,0 h 2.04256 v -9.19149 -9.19149 h -2.04256 -2.04255 v 9.19149 9.19149 z m 11.74468,0 h 5.61703 V 216 214.46809 h -4.08511 -4.08511 v -7.65958 -7.65957 h -1.53191 -1.53192 v 9.19149 9.19149 z m 14.80851,0 h 2.04256 V 216 214.46809 h 1.44214 1.44215 l 0.69018,-4.08511 0.69017,-4.08511 h 1.44215 1.44214 v -3.06383 -3.06383 h -1.45076 -1.45078 l -0.67292,3.06383 -0.67293,3.06383 h -1.45078 -1.45076 v 2.04256 2.04255 h -2.04256 -2.04255 v -2.04255 -2.04256 h -2.04255 -2.04255 v -3.57446 -3.57447 h -1.53192 -1.53191 v 3.57447 3.57446 h 1.44214 1.44214 l 0.69018,4.08511 0.69018,4.08511 h 1.44215 1.44214 V 216 v 1.53192 z m 19.23404,0 h 5.95746 V 216 214.46809 h -3.9149 -3.91489 v -2.04256 -2.04255 h 2.04255 2.04255 v -2.04255 -2.04256 h -2.04255 -2.04255 v -2.04255 -2.04255 h 3.57446 3.57447 v -1.53192 -1.53191 h -5.61702 -5.61702 v 9.19149 9.19149 z m 11.40426,0 h 2.04255 v -3.57447 -3.57447 h 3.57447 3.57447 v 3.57447 3.57447 h 2.04255 2.04256 v -9.19149 -9.19149 h -7.65958 -7.65957 v 9.19149 9.19149 z m 5.61702,-11.23405 h -3.57447 v -2.04255 -2.04255 h 3.57447 3.57447 v 2.04255 2.04255 z m 1.53192,-5.10638 h -1.3617 l 0.68084,-0.68085 0.68086,-0.68085 0.68085,0.68085 0.68085,0.68085 z m 12.25532,16.34043 h 2.04255 v -5.61702 -5.61703 h 2.04255 2.04256 v 2.04256 2.04255 h 1.53191 1.53192 v -2.04255 -2.04256 h 2.04255 2.04255 v 5.61703 5.61702 h 2.04255 2.04256 v -9.19149 -9.19149 h -2.04256 -2.04255 v 2.15182 2.15182 l -1.62642,-0.62413 -1.62643,-0.62411 -0.53524,2.04676 -0.53524,2.04677 h -1.29369 -1.29369 l -0.53524,-2.04677 -0.53524,-2.04676 -1.62643,0.62411 -1.62642,0.62413 v -2.15182 -2.15182 h -2.04255 -2.04256 v 9.19149 9.19149 z m 22.97872,0 h 1.53191 v -3.57447 -3.57447 h 4.08511 4.08511 v 3.57447 3.57447 h 1.53191 1.53192 v -7.62753 -7.62752 l -1.53192,0.58785 -1.53191,0.58786 v 1.42265 1.42264 h -4.08511 -4.08511 v -1.42264 -1.42265 l -1.53191,-0.58786 -1.53192,-0.58785 v 7.62752 7.62753 z m 18.83838,0 h 2.09779 v -5.61702 -5.61703 h 2.04255 2.04255 v 2.04256 2.04255 h 2.04256 2.04255 v 3.57447 3.57447 h 2.04255 2.04256 v -9.19149 -9.19149 h -2.04256 -2.04255 v 3.57447 3.57446 h -2.04255 -2.04256 v -1.53191 -1.53192 h -2.04255 -2.04255 v -2.04255 -2.04255 l -1.78724,0.008 -1.78723,0.008 -0.31055,9.18291 -0.31055,9.18291 h 2.09778 z M 105.70212,206.29787 h 1.53192 v -1.53191 -1.53192 h -1.53192 -1.53191 v 1.53192 1.53191 z m 23.74468,-3.14446 0.25532,0.0806 v -2.04255 -2.04255 h -1.53191 -1.53192 v 1.44681 1.4468 l 1.2766,0.51512 1.2766,0.51512 0.25531,0.0806 z m 200.59575,-0.94064 h 3.91489 v -1.53192 -1.53191 h -3.91489 -3.9149 v 1.53191 1.53192 z m -0.76596,-1.10191 -1.95745,-0.0806 1.34042,-0.53639 1.34043,-0.5364 0.61702,0.61702 0.61702,0.61702 -1.95744,-0.0806 z M 36.975931,186.89362 H 5.4468083 l -0.680851,-0.68086 -0.680851,-0.68084 v -42.72341 -42.7234 H 36.255318 68.42553 v 8.68085 8.68085 H 45.446807 22.468084 v 8.68085 8.68085 h 15.319149 15.319148 v 8.68085 8.68085 H 37.787233 22.468084 v 8.15068 8.15068 l 22.723404,0.27485 22.723403,0.27486 0.295081,8.93617 0.29508,8.93617 z m 53.407045,0 h -8.680851 v -43.40426 -43.40425 h 8.680851 8.680851 v 2.04255 2.04255 h 2.042553 2.04255 v 3.57447 3.57447 h 1.53192 1.53191 v 2.04255 2.04256 h 2.04256 2.04255 v 4.0851 4.08511 h 2.04255 2.04256 v 1.4128 1.41281 l 2.04255,0.53413 2.04255,0.53414 v 3.67008 3.67008 H 120 h 1.53191 v 1.53192 1.53191 h 2.04255 2.04256 v 4.08511 4.0851 h 2.04255 2.04255 v 2.04256 2.04255 h 2.55319 2.5532 v -25.02128 -25.02127 h 8.68085 8.68085 v 43.40425 43.40426 h -8.68085 -8.68085 v -2.04255 -2.04256 h -2.04256 -2.04255 v -4.0851 -4.08511 h -1.53191 -1.53192 v -1.53192 -1.53191 h -2.04255 -2.04256 v -4.08511 -4.0851 h -2.04255 -2.04255 v -2.04256 -2.04255 h -2.04256 -2.04255 v -3.57447 -3.57447 h -1.53191 -1.53192 v -2.04255 -2.04255 h -2.04255 -2.04255 v -3.57447 -3.57447 h -2.04256 -2.04255 v -2.04255 -2.04255 h -2.55319 -2.553193 v 25.02127 25.02128 z m 112.851064,0 h -18.38298 v -2.04255 -2.04256 h -3.67008 -3.67008 l -0.53414,-2.04255 -0.53414,-2.04255 h -1.4128 -1.4128 v -2.04256 -2.04255 h -2.04256 -2.04255 v -3.57447 -3.57447 h -2.04255 -2.04256 v -24 -24 h 2.04256 2.04255 v -4.0851 -4.08511 h 2.04255 2.04256 v -2.04255 -2.04256 h 1.53191 1.53192 v -1.53191 -1.53192 h 4.0851 4.08511 v -2.04255 -2.04255 h 18.38298 18.38297 v 2.04255 2.04255 h 4.08511 4.08511 v 1.53192 1.53191 h 1.53191 1.53192 v 2.04256 2.04255 h 2.04255 2.04255 v 4.08511 4.0851 h 2.04256 2.04255 v 2.64881 2.6488 l -2.04255,0.53414 -2.04256,0.53414 v 1.4128 1.4128 h -5.10638 -5.10638 v -1.4128 -1.4128 l -2.04256,-0.53414 -2.04255,-0.53414 v -1.62753 -1.62752 h -1.53191 -1.53192 v -2.04256 -2.04255 h -12.25532 -12.25532 v 2.04255 2.04256 h -4.0851 -4.08511 v 3.57446 3.57447 h -1.53191 -1.53192 v 14.29787 14.29788 h 1.53192 1.53191 v 4.0851 4.08511 h 4.08511 4.0851 v 1.53192 1.53191 h 8.17022 8.17021 v -1.53191 -1.53192 h 4.0851 4.08511 v -6.6383 -6.6383 h -5.61702 -5.61702 v -2.04255 -2.04255 h -2.04255 -2.04256 v -5.10639 -5.10638 h 2.04256 2.04255 v -1.53191 -1.53192 h 6.6383 6.63829 v 1.53192 1.53191 h 3.67008 3.67008 l 0.53414,2.04256 0.53414,2.04255 h 1.4128 1.41281 V 144 v 2.04255 h 2.04255 2.04255 v 3.57447 3.57447 h 2.04256 2.04255 v 7.14894 7.14893 h -2.04255 -2.04256 v 3.57447 3.57447 h -1.62752 -1.62753 l -0.53414,2.04255 -0.53414,2.04256 h -1.4128 -1.4128 v 2.04255 2.04255 h -4.08511 -4.08511 v 2.04256 2.04255 z m 67.40425,0 h -16.34043 v -9.19149 -9.19149 h 3.57447 3.57447 v -25.53192 -25.53191 h -3.57447 -3.57447 v -8.68085 -8.68085 h 16.34043 16.34042 v 8.68085 8.68085 h -4.10264 -4.10264 l 0.27286,25.78723 0.27285,25.78724 3.82979,0.31697 3.82978,0.31697 v 8.6192 8.6192 z m 38.29787,0 h -8.68085 v -43.40426 -43.40425 h 8.68085 8.68085 v 2.04255 2.04255 h 2.04255 2.04256 v 3.57447 3.57447 h 1.62752 1.62753 l 0.53414,2.04255 0.53414,2.04256 h 1.4128 1.4128 v 3.67008 3.67008 l 2.04256,0.53413 2.04255,0.53414 v 1.41281 1.4128 h 2.04255 2.04256 v 4.08511 4.0851 h 2.04255 2.04255 v 1.41281 1.4128 l 2.04256,0.53414 2.04255,0.53413 v 3.67008 3.67008 h 1.53191 1.53192 v 1.53192 1.53191 h 2.55319 2.55319 v -24.51063 -24.51064 h 9.20257 9.20258 l -0.26641,43.14893 -0.2664,43.14894 -8.50998,0.29799 -8.50999,0.29799 -0.52061,-1.99081 -0.5206,-1.99079 -1.94813,-0.50946 -1.94814,-0.50944 v -3.05018 -3.05017 l -1.53191,-0.58786 -1.53192,-0.58784 v -1.44486 -1.44486 l -2.04255,-0.53414 -2.04255,-0.53413 v -3.67008 -3.67008 h -2.04255 -2.04256 v -2.04256 -2.04255 h -1.53191 -1.53192 v -3.57447 -3.57447 h -2.04255 -2.04255 v -2.04255 -2.04255 h -2.04256 -2.04255 v -3.45536 -3.45536 l -2.04255,-0.53413 -2.04256,-0.53414 v -1.62753 -1.62752 h -2.55319 -2.55319 v 25.02127 25.02128 z m 107.91489,0 h -31.48936 l -0.68085,-0.68086 -0.68085,-0.68084 v -42.72341 -42.7234 h 32.17021 32.17021 v 8.68085 8.68085 h -22.97872 -22.97872 v 8.68085 8.68085 h 15.31914 15.31915 v 8.68085 8.68085 h -15.31915 -15.31914 v 8.17022 8.17021 h 22.97872 22.97872 v 9.19149 9.19149 z"
         id="path9109" />
      <path
         style="fill:#d25252;stroke-width:1.02128"
         d="M 224.17021,221.61702 H 83.744678 v -13.27659 -13.2766 H 224.17021 364.59573 v 13.2766 13.27659 z m -126.12766,-4.0851 h 6.12766 V 216 214.46809 h 1.53191 1.53192 v -2.04256 -2.04255 h -1.53192 -1.53191 v -2.04255 -2.04256 h 1.53191 1.53192 v -2.04255 -2.04255 h -1.53192 -1.53191 v -1.53192 -1.53191 h -6.12766 -6.127659 v 9.19149 9.19149 z m 2.04255,-3.06383 h -4.085103 v -2.04256 -2.04255 h 4.085103 4.08511 v 2.04255 2.04256 z m 0,-8.17022 h -4.085103 v -2.04255 -2.04255 h 4.085103 4.08511 v 2.04255 2.04255 z m 20.42553,11.23405 h 2.04256 v -5.61702 -5.61703 h 2.04255 2.04255 v -1.53191 -1.53192 h 1.53192 1.53191 v -2.04255 -2.04255 h -1.53191 -1.53192 v 1.53191 1.53192 h -2.04255 -2.04255 v 2.04255 2.04255 h -2.04256 -2.04255 v -2.04255 -2.04255 h -1.53191 -1.53192 v -1.53192 -1.53191 h -2.04255 -2.04255 v 2.04255 2.04255 h 2.04255 2.04255 v 1.53192 1.53191 h 1.53192 1.53191 v 5.61703 5.61702 z m 23.48937,0 h 2.04255 v -3.57447 -3.57447 h 1.53191 1.53192 v 1.62753 1.62752 l 2.04255,0.53414 2.04255,0.53414 v 1.4128 1.41281 h 2.04256 2.04255 V 216 214.46809 h -2.04255 -2.04256 v -2.04256 -2.04255 h -1.53191 -1.53192 v -2.04255 -2.04256 h 1.53192 1.53191 v -1.53191 -1.53192 h 2.04256 2.04255 v -2.04255 -2.04255 h -2.04255 -2.04256 v 1.53191 1.53192 h -1.53191 -1.53192 v 2.04255 2.04255 h -2.04255 -2.04255 v -3.57446 -3.57447 H 144 141.95744 v 9.19149 9.19149 z m 22.97872,0 h 5.61702 V 216 214.46809 h -4.08511 -4.0851 v -2.04256 -2.04255 h 2.04255 2.04255 v -2.04255 -2.04256 h -2.04255 -2.04255 v -2.04255 -2.04255 h 4.0851 4.08511 v -1.53192 -1.53191 h -5.61702 -5.61702 v 9.19149 9.19149 z m 11.74468,0 h 2.04255 v -5.61702 -5.61703 h 1.53192 1.53191 v -1.53191 -1.53192 h -1.53191 -1.53192 v -2.04255 -2.04255 h -2.04255 -2.04255 v 9.19149 9.19149 z m 11.23404,0 h 2.04255 v -9.19149 -9.19149 h -2.04255 -2.04255 v 3.57447 3.57446 h -2.04256 -2.04255 v 2.04256 2.04255 h 2.04255 2.04256 v 3.57447 3.57447 z m 22.97872,0 h 5.61702 v -5.61702 -5.61703 h -4.0851 -4.08511 v -2.04255 -2.04255 h 4.08511 4.0851 v -1.53192 -1.53191 h -5.61702 -5.61702 v 5.61702 5.61702 h 4.08511 4.0851 v 2.04255 2.04256 h -4.0851 -4.08511 V 216 v 1.53192 z m 11.74468,0 h 2.04256 v -9.19149 -9.19149 h -2.04256 -2.04255 v 9.19149 9.19149 z m 11.74468,0 h 5.61703 V 216 214.46809 h -4.08511 -4.08511 v -7.65958 -7.65957 h -1.53191 -1.53192 v 9.19149 9.19149 z m 14.80851,0 h 2.04256 V 216 214.46809 h 1.44214 1.44215 l 0.69018,-4.08511 0.69017,-4.08511 h 1.44215 1.44214 v -3.06383 -3.06383 h -1.45076 -1.45078 l -0.67292,3.06383 -0.67293,3.06383 h -1.45078 -1.45076 v 2.04256 2.04255 h -2.04256 -2.04255 v -2.04255 -2.04256 h -2.04255 -2.04255 v -3.57446 -3.57447 h -1.53192 -1.53191 v 3.57447 3.57446 h 1.44214 1.44214 l 0.69018,4.08511 0.69018,4.08511 h 1.44215 1.44214 V 216 v 1.53192 z m 19.40426,0 h 6.12766 V 216 214.46809 h -4.08511 -4.0851 v -2.04256 -2.04255 h 2.04255 2.04255 v -2.04255 -2.04256 h -2.04255 -2.04255 v -2.04255 -2.04255 h 4.0851 4.08511 v -1.53192 -1.53191 h -6.12766 -6.12766 v 9.19149 9.19149 z m 11.23404,0 h 2.04255 v -3.57447 -3.57447 h 3.57447 3.57447 v 3.57447 3.57447 h 2.04255 2.04256 v -9.19149 -9.19149 h -7.65958 -7.65957 v 9.19149 9.19149 z m 5.61702,-11.23405 h -3.57447 v -2.04255 -2.04255 h 3.57447 3.57447 v 2.04255 2.04255 z m 13.78724,11.23405 h 2.04255 v -5.61702 -5.61703 h 2.04255 2.04256 v 2.04256 2.04255 h 1.53191 1.53192 v -2.04255 -2.04256 h 2.04255 2.04255 v 5.61703 5.61702 h 2.04255 2.04256 v -9.19149 -9.19149 h -2.04256 -2.04255 v 1.53191 1.53192 h -1.62753 -1.62752 l -0.53414,2.04255 -0.53414,2.04255 h -1.4128 -1.4128 v -1.62752 -1.62753 l -2.04256,-0.53414 -2.04255,-0.53413 v -1.41281 -1.4128 h -2.04255 -2.04256 v 9.19149 9.19149 z m 22.97872,0 h 1.53191 v -3.57447 -3.57447 h 4.08511 4.08511 v 3.57447 3.57447 h 1.53191 1.53192 v -7.65958 -7.65957 h -1.53192 -1.53191 v -1.53192 -1.53191 h -4.08511 -4.08511 v 1.53191 1.53192 h -1.53191 -1.53192 v 7.65957 7.65958 z m 5.61702,-11.23405 h -4.08511 v -2.04255 -2.04255 h 4.08511 4.08511 v 2.04255 2.04255 z m 13.2766,11.23405 h 2.04255 v -5.61702 -5.61703 h 2.04255 2.04255 v 2.04256 2.04255 h 2.04256 2.04255 v 3.57447 3.57447 h 2.04255 2.04256 v -9.19149 -9.19149 h -2.04256 -2.04255 v 3.57447 3.57446 h -2.04255 -2.04256 v -1.53191 -1.53192 h -2.04255 -2.04255 v -2.04255 -2.04255 h -2.04255 -2.04256 v 9.19149 9.19149 z M 36.975931,186.89362 H 5.4468083 l -0.680851,-0.68086 -0.680851,-0.68084 v -42.72341 -42.7234 H 36.255318 68.42553 v 8.68085 8.68085 H 45.446807 22.468084 v 8.68085 8.68085 h 15.319149 15.319148 v 8.68085 8.68085 H 37.787233 22.468084 v 8.15068 8.15068 l 22.723404,0.27485 22.723403,0.27486 0.295081,8.93617 0.29508,8.93617 z m 53.407045,0 h -8.680851 v -43.40426 -43.40425 h 8.680851 8.680851 v 2.04255 2.04255 h 2.042553 2.04255 v 3.57447 3.57447 h 1.53192 1.53191 v 2.04255 2.04256 h 2.04256 2.04255 v 4.0851 4.08511 h 2.04255 2.04256 v 1.4128 1.41281 l 2.04255,0.53413 2.04255,0.53414 v 3.67008 3.67008 H 120 h 1.53191 v 1.53192 1.53191 h 2.04255 2.04256 v 4.08511 4.0851 h 2.04255 2.04255 v 2.04256 2.04255 h 2.55319 2.5532 v -25.02128 -25.02127 h 8.68085 8.68085 v 43.40425 43.40426 h -8.68085 -8.68085 v -2.04255 -2.04256 h -2.04256 -2.04255 v -4.0851 -4.08511 h -1.53191 -1.53192 v -1.53192 -1.53191 h -2.04255 -2.04256 v -4.08511 -4.0851 h -2.04255 -2.04255 v -2.04256 -2.04255 h -2.04256 -2.04255 v -3.57447 -3.57447 h -1.53191 -1.53192 v -2.04255 -2.04255 h -2.04255 -2.04255 v -3.57447 -3.57447 h -2.04256 -2.04255 v -2.04255 -2.04255 h -2.55319 -2.553193 v 25.02127 25.02128 z m 112.851064,0 h -18.38298 v -2.04255 -2.04256 h -3.67008 -3.67008 l -0.53414,-2.04255 -0.53414,-2.04255 h -1.4128 -1.4128 v -2.04256 -2.04255 h -2.04256 -2.04255 v -3.57447 -3.57447 h -2.04255 -2.04256 v -24 -24 h 2.04256 2.04255 v -4.0851 -4.08511 h 2.04255 2.04256 v -2.04255 -2.04256 h 1.53191 1.53192 v -1.53191 -1.53192 h 4.0851 4.08511 v -2.04255 -2.04255 h 18.38298 18.38297 v 2.04255 2.04255 h 4.08511 4.08511 v 1.53192 1.53191 h 1.53191 1.53192 v 2.04256 2.04255 h 2.04255 2.04255 v 4.08511 4.0851 h 2.04256 2.04255 v 2.64881 2.6488 l -2.04255,0.53414 -2.04256,0.53414 v 1.4128 1.4128 h -5.10638 -5.10638 v -1.4128 -1.4128 l -2.04256,-0.53414 -2.04255,-0.53414 v -1.62753 -1.62752 h -1.53191 -1.53192 v -2.04256 -2.04255 h -12.25532 -12.25532 v 2.04255 2.04256 h -4.0851 -4.08511 v 3.57446 3.57447 h -1.53191 -1.53192 v 14.29787 14.29788 h 1.53192 1.53191 v 4.0851 4.08511 h 4.08511 4.0851 v 1.53192 1.53191 h 8.17022 8.17021 v -1.53191 -1.53192 h 4.0851 4.08511 v -6.6383 -6.6383 h -5.61702 -5.61702 v -2.04255 -2.04255 h -2.04255 -2.04256 v -5.10639 -5.10638 h 2.04256 2.04255 v -1.53191 -1.53192 h 6.6383 6.63829 v 1.53192 1.53191 h 3.67008 3.67008 l 0.53414,2.04256 0.53414,2.04255 h 1.4128 1.41281 V 144 v 2.04255 h 2.04255 2.04255 v 3.57447 3.57447 h 2.04256 2.04255 v 7.14894 7.14893 h -2.04255 -2.04256 v 3.57447 3.57447 h -1.62752 -1.62753 l -0.53414,2.04255 -0.53414,2.04256 h -1.4128 -1.4128 v 2.04255 2.04255 h -4.08511 -4.08511 v 2.04256 2.04255 z m 67.40425,0 h -16.34043 v -9.19149 -9.19149 h 3.57447 3.57447 v -25.53192 -25.53191 h -3.57447 -3.57447 v -8.68085 -8.68085 h 16.34043 16.34042 v 8.68085 8.68085 h -4.10264 -4.10264 l 0.27286,25.78723 0.27285,25.78724 3.82979,0.31697 3.82978,0.31697 v 8.6192 8.6192 z m 38.29787,0 h -8.68085 v -43.40426 -43.40425 h 8.68085 8.68085 v 2.04255 2.04255 h 2.04255 2.04256 v 3.57447 3.57447 h 1.62752 1.62753 l 0.53414,2.04255 0.53414,2.04256 h 1.4128 1.4128 v 3.67008 3.67008 l 2.04256,0.53413 2.04255,0.53414 v 1.41281 1.4128 h 2.04255 2.04256 v 4.08511 4.0851 h 2.04255 2.04255 v 1.41281 1.4128 l 2.04256,0.53414 2.04255,0.53413 v 3.67008 3.67008 h 1.53191 1.53192 v 1.53192 1.53191 h 2.55319 2.55319 v -24.51063 -24.51064 h 9.20257 9.20258 l -0.26641,43.14893 -0.2664,43.14894 -8.50998,0.29799 -8.50999,0.29799 -0.52061,-1.99081 -0.5206,-1.99079 -1.94813,-0.50946 -1.94814,-0.50944 v -3.05018 -3.05017 l -1.53191,-0.58786 -1.53192,-0.58784 v -1.44486 -1.44486 l -2.04255,-0.53414 -2.04255,-0.53413 v -3.67008 -3.67008 h -2.04255 -2.04256 v -2.04256 -2.04255 h -1.53191 -1.53192 v -3.57447 -3.57447 h -2.04255 -2.04255 v -2.04255 -2.04255 h -2.04256 -2.04255 v -3.45536 -3.45536 l -2.04255,-0.53413 -2.04256,-0.53414 v -1.62753 -1.62752 h -2.55319 -2.55319 v 25.02127 25.02128 z m 107.91489,0 h -31.48936 l -0.68085,-0.68086 -0.68085,-0.68084 v -42.72341 -42.7234 h 32.17021 32.17021 v 8.68085 8.68085 h -22.97872 -22.97872 v 8.68085 8.68085 h 15.31914 15.31915 v 8.68085 8.68085 h -15.31915 -15.31914 v 8.17022 8.17021 h 22.97872 22.97872 v 9.19149 9.19149 z"
         id="path9107" />
      <path
         style="fill:#674c34;stroke-width:1.02128"
         d="M 224.17021,221.61702 H 83.744678 v -13.27659 -13.2766 H 224.17021 364.59573 v 13.2766 13.27659 z m -126.12766,-4.0851 h 6.12766 V 216 214.46809 h 1.53191 1.53192 v -2.04256 -2.04255 h -1.53192 -1.53191 v -2.04255 -2.04256 h 1.53191 1.53192 v -2.04255 -2.04255 h -1.53192 -1.53191 v -1.53192 -1.53191 h -6.12766 -6.127659 v 9.19149 9.19149 z m 2.04255,-3.06383 h -4.085103 v -2.04256 -2.04255 h 4.085103 4.08511 v 2.04255 2.04256 z m 0,-8.17022 h -4.085103 v -2.04255 -2.04255 h 4.085103 4.08511 v 2.04255 2.04255 z m 20.42553,11.23405 h 2.04256 v -5.61702 -5.61703 h 2.04255 2.04255 v -1.53191 -1.53192 h 1.53192 1.53191 v -2.04255 -2.04255 h -1.53191 -1.53192 v 1.53191 1.53192 h -2.04255 -2.04255 v 2.04255 2.04255 h -2.04256 -2.04255 v -2.04255 -2.04255 h -1.53191 -1.53192 v -1.53192 -1.53191 h -2.04255 -2.04255 v 2.04255 2.04255 h 2.04255 2.04255 v 1.53192 1.53191 h 1.53192 1.53191 v 5.61703 5.61702 z m 23.48937,0 h 2.04255 v -3.57447 -3.57447 h 1.53191 1.53192 v 1.62753 1.62752 l 2.04255,0.53414 2.04255,0.53414 v 1.4128 1.41281 h 2.04256 2.04255 V 216 214.46809 h -2.04255 -2.04256 v -2.04256 -2.04255 h -1.53191 -1.53192 v -2.04255 -2.04256 h 1.53192 1.53191 v -1.53191 -1.53192 h 2.04256 2.04255 v -2.04255 -2.04255 h -2.04255 -2.04256 v 1.53191 1.53192 h -1.53191 -1.53192 v 2.04255 2.04255 h -2.04255 -2.04255 v -3.57446 -3.57447 H 144 141.95744 v 9.19149 9.19149 z m 22.97872,0 h 5.61702 V 216 214.46809 h -4.08511 -4.0851 v -2.04256 -2.04255 h 2.04255 2.04255 v -2.04255 -2.04256 h -2.04255 -2.04255 v -2.04255 -2.04255 h 4.0851 4.08511 v -1.53192 -1.53191 h -5.61702 -5.61702 v 9.19149 9.19149 z m 11.74468,0 h 2.04255 v -5.61702 -5.61703 h 1.53192 1.53191 v -1.53191 -1.53192 h -1.53191 -1.53192 v -2.04255 -2.04255 h -2.04255 -2.04255 v 9.19149 9.19149 z m 11.23404,0 h 2.04255 v -9.19149 -9.19149 h -2.04255 -2.04255 v 3.57447 3.57446 h -2.04256 -2.04255 v 2.04256 2.04255 h 2.04255 2.04256 v 3.57447 3.57447 z m 22.97872,0 h 5.61702 v -5.61702 -5.61703 h -4.0851 -4.08511 v -2.04255 -2.04255 h 4.08511 4.0851 v -1.53192 -1.53191 h -5.61702 -5.61702 v 5.61702 5.61702 h 4.08511 4.0851 v 2.04255 2.04256 h -4.0851 -4.08511 V 216 v 1.53192 z m 11.74468,0 h 2.04256 v -9.19149 -9.19149 h -2.04256 -2.04255 v 9.19149 9.19149 z m 11.74468,0 h 5.61703 V 216 214.46809 h -4.08511 -4.08511 v -7.65958 -7.65957 h -1.53191 -1.53192 v 9.19149 9.19149 z m 14.80851,0 h 2.04256 V 216 214.46809 h 1.44214 1.44215 l 0.69018,-4.08511 0.69017,-4.08511 h 1.44215 1.44214 v -3.06383 -3.06383 h -1.45076 -1.45078 l -0.67292,3.06383 -0.67293,3.06383 h -1.45078 -1.45076 v 2.04256 2.04255 h -2.04256 -2.04255 v -2.04255 -2.04256 h -2.04255 -2.04255 v -3.57446 -3.57447 h -1.53192 -1.53191 v 3.57447 3.57446 h 1.44214 1.44214 l 0.69018,4.08511 0.69018,4.08511 h 1.44215 1.44214 V 216 v 1.53192 z m 19.40426,0 h 6.12766 V 216 214.46809 h -4.08511 -4.0851 v -2.04256 -2.04255 h 2.04255 2.04255 v -2.04255 -2.04256 h -2.04255 -2.04255 v -2.04255 -2.04255 h 4.0851 4.08511 v -1.53192 -1.53191 h -6.12766 -6.12766 v 9.19149 9.19149 z m 11.23404,0 h 2.04255 v -3.57447 -3.57447 h 3.57447 3.57447 v 3.57447 3.57447 h 2.04255 2.04256 v -9.19149 -9.19149 h -7.65958 -7.65957 v 9.19149 9.19149 z m 5.61702,-11.23405 h -3.57447 v -2.04255 -2.04255 h 3.57447 3.57447 v 2.04255 2.04255 z m 13.78724,11.23405 h 2.04255 v -5.61702 -5.61703 h 2.04255 2.04256 v 2.04256 2.04255 h 1.53191 1.53192 v -2.04255 -2.04256 h 2.04255 2.04255 v 5.61703 5.61702 h 2.04255 2.04256 v -9.19149 -9.19149 h -2.04256 -2.04255 v 1.53191 1.53192 h -1.62753 -1.62752 l -0.53414,2.04255 -0.53414,2.04255 h -1.4128 -1.4128 v -1.62752 -1.62753 l -2.04256,-0.53414 -2.04255,-0.53413 v -1.41281 -1.4128 h -2.04255 -2.04256 v 9.19149 9.19149 z m 22.97872,0 h 1.53191 v -3.57447 -3.57447 h 4.08511 4.08511 v 3.57447 3.57447 h 1.53191 1.53192 v -7.65958 -7.65957 h -1.53192 -1.53191 v -1.53192 -1.53191 h -4.08511 -4.08511 v 1.53191 1.53192 h -1.53191 -1.53192 v 7.65957 7.65958 z m 5.61702,-11.23405 h -4.08511 v -2.04255 -2.04255 h 4.08511 4.08511 v 2.04255 2.04255 z m 13.2766,11.23405 h 2.04255 v -5.61702 -5.61703 h 2.04255 2.04255 v 2.04256 2.04255 h 2.04256 2.04255 v 3.57447 3.57447 h 2.04255 2.04256 v -9.19149 -9.19149 h -2.04256 -2.04255 v 3.57447 3.57446 h -2.04255 -2.04256 v -1.53191 -1.53192 h -2.04255 -2.04255 v -2.04255 -2.04255 h -2.04255 -2.04256 v 9.19149 9.19149 z"
         id="path9105" />
    </g>
  </g>
</svg>
