<svg id="Layer_1" data-name="Layer 1" xmlns="http://www.w3.org/2000/svg" xmlns:xlink="http://www.w3.org/1999/xlink" viewBox="0 0 3839.2 761.1"><defs><linearGradient id="Dégradé_sans_nom" x1="1919.55" y1="22.29" x2="1919.55" y2="740.39" gradientTransform="matrix(1, 0, 0, -1, 0, 761.89)" gradientUnits="userSpaceOnUse"><stop offset="0.17" stop-color="#005"/><stop offset="0.9" stop-color="#007cff"/></linearGradient><linearGradient id="Dégradé_sans_nom_2" x1="3443.38" y1="47.94" x2="3329.92" y2="691.41" gradientTransform="matrix(1, 0, 0, -1, 0, 761.89)" gradientUnits="userSpaceOnUse"><stop offset="0" stop-color="#ff9d01"/><stop offset="0.15" stop-color="#ffa402"/><stop offset="0.37" stop-color="#ffb805"/><stop offset="0.63" stop-color="#ffd80a"/><stop offset="0.78" stop-color="#ffee0d"/><stop offset="1" stop-color="#ffd70b"/></linearGradient><linearGradient id="Dégradé_sans_nom_3" x1="3413.3" y1="103.59" x2="3413.3" y2="658.09" gradientTransform="matrix(1, 0, 0, -1, 0, 761.89)" gradientUnits="userSpaceOnUse"><stop offset="0" stop-color="#ffcf00"/><stop offset="1" stop-color="#ffff36"/></linearGradient><linearGradient id="Dégradé_sans_nom_4" x1="993.14" y1="54.19" x2="887.16" y2="655.24" xlink:href="#Dégradé_sans_nom_2"/><linearGradient id="Dégradé_sans_nom_5" x1="980.8" y1="103.89" x2="980.8" y2="658.09" xlink:href="#Dégradé_sans_nom_3"/><linearGradient id="Dégradé_sans_nom_6" x1="1611.75" y1="117" x2="1511.1" y2="687.78" xlink:href="#Dégradé_sans_nom_2"/><linearGradient id="Dégradé_sans_nom_7" x1="1577.15" y1="103.89" x2="1577.15" y2="658.09" xlink:href="#Dégradé_sans_nom_3"/><linearGradient id="Dégradé_sans_nom_8" x1="2794.31" y1="91.53" x2="2692.01" y2="671.69" xlink:href="#Dégradé_sans_nom_2"/><linearGradient id="Dégradé_sans_nom_9" x1="2742.6" y1="87.99" x2="2742.6" y2="674.89" xlink:href="#Dégradé_sans_nom_3"/><linearGradient id="Dégradé_sans_nom_10" x1="414.63" y1="75.49" x2="310.69" y2="664.97" xlink:href="#Dégradé_sans_nom_2"/><linearGradient id="Dégradé_sans_nom_11" x1="345.1" y1="105.69" x2="345.1" y2="673.09" xlink:href="#Dégradé_sans_nom_3"/><linearGradient id="Dégradé_sans_nom_12" x1="2207.43" y1="74.47" x2="2103.48" y2="664.01" xlink:href="#Dégradé_sans_nom_2"/><linearGradient id="Dégradé_sans_nom_13" x1="2137.9" y1="104.69" x2="2137.9" y2="672.19" xlink:href="#Dégradé_sans_nom_3"/></defs><path d="M1511.9,187.1V423.4S1671,357.1,1671,263.6c.1-115.6-159.1-76.5-159.1-76.5" transform="translate(0 0)" style="fill:#231f20"/><path d="M2742.6,175.2c-69.4,0-162.5,40.8-162.5,204s82.9,204,162.5,204,164.2-51,164.2-204-94.8-204-164.2-204" transform="translate(0 0)" style="fill:#231f20"/><polyline points="899.1 380.9 1010.8 380.9 953.3 219.4 899.1 380.9" style="fill:#231f20"/><path d="M585.9,656.3h-176C200,656.3,83.2,491.4,83.2,372.4c0-182.4,158-283.7,301.3-283.7,138.8,0,222.6,106.5,222.6,106.5L511.4,296s-5.1,2.6-9.3,2.6-10.2-4.3-10.2-4.3L480,284.1a4.49,4.49,0,0,1-3.4-4.3c0-3.4,9.3-11.9,9.3-28s-3.4-83.3-106.6-83.3-149,96.9-149,176.8,49.1,226.1,209.9,226.1c93.6,0,113.4-52.7,113.4-52.7h32.2V656.3Zm689,1.7H1062.5V617.2s13.5,1.7,20.3-10.2,6.8-21.3,1.7-33.2-40.6-106.3-40.6-106.3H870.3s-35.6,95.2-38.9,103.7-3.4,22.1,0,30.6c5.6,14.1,25.4,16.2,25.4,16.2v40H686.7V618.1s15.4-5.3,27-17a71.21,71.21,0,0,0,16.9-26.3L903.3,104h144.8l176,462.3c5.1,12.8,13.6,24.7,22.1,34.9s28.7,17,28.7,17Zm402.9-217.5c-72.3,33.4-167.5,59.5-167.5,59.5v88.4s.8,6,9.3,16.2,17.8,12.7,17.8,12.7V658H1341V618.1s11.9-2.6,20.3-11a38.12,38.12,0,0,0,10.2-18.7V188.9s.8-17-6-23.8-22.8-16.1-22.8-16.1V103.9h270.8c99.9,0,199.8,35.7,199.8,151.3S1740.4,411.6,1677.8,440.5Zm494.3-271.1c-103.2,0-149,96.9-149,176.8s49.1,226.1,209.9,226.1c93.6,0,113.4-52.7,113.4-52.7h32.2V657.3H2202.5c-209.9,0-326.7-164.9-326.7-283.8,0-182.5,158-283.7,301.3-283.7,138.8,0,222.6,106.5,222.6,106.5L2304.1,297s-5.1,2.5-9.3,2.5-10.2-4.2-10.2-4.2l-11.9-10.2s-3.4-.9-3.4-4.3,9.3-11.9,9.3-28C2278.8,236.6,2275.4,169.4,2172.1,169.4Zm570.5,504.5c-182.8,0-314.3-134.1-314.3-297.2S2563.1,87.1,2742.6,87.1s314.2,126.5,314.2,289.6S2925.4,673.9,2742.6,673.9Zm1016.5-15.6H3556.8V621.5s17.8-2.6,23.7-11,8.5-13.6,6.8-27.2-49.9-323-49.9-323l-88.1,273.6H3342.7l-87.2-256.6-44,302.5s-1.7,18.2,5.1,28.1c9.3,13.6,26.2,13.6,26.2,13.6V658H3067.6V618.9a43.19,43.19,0,0,0,24.1-14c10.2-11.9,11.9-27.2,11.9-27.2l63.9-399.1s3.8-14.9-.4-21.7c-4.5-7.2-28.4-13.2-28.4-13.2V104.1h201.5L3413,330l77.8-226.1h210.8v33.2s-14.1,5.9-20.3,13.6c-7.6,9.3-7.6,16.1-6,29.7s55.9,382.4,57.6,396.1,3.4,21.3,6.8,30.6,19.5,16.9,19.5,16.9v34.3Z" transform="translate(0 0)" style="fill:#231f20"/><path d="M1511.9,187.1V423.4S1671,357.1,1671,263.6c.1-115.6-159.1-76.5-159.1-76.5" transform="translate(0 0)" style="fill:#fff"/><path d="M2742.6,175.2c-69.4,0-162.5,40.8-162.5,204s82.9,204,162.5,204,164.2-51,164.2-204-94.8-204-164.2-204" transform="translate(0 0)" style="fill:#fff"/><polyline points="899.1 380.9 1010.8 380.9 953.3 219.4 899.1 380.9" style="fill:#fff"/><path d="M2745.1,761.1c-132.8,0-234.3-66-285.8-108.4v91.4H2221.1c-200.4,0-360.4-110.2-416.5-283.5-41.8,30.4-116.9,73.9-201.2,96.1a59.58,59.58,0,0,0,6.8,1.5l17.8,3.1.1,182.7H418.3C183.8,744.1,0,583.8,0,379.3,0,161,163.1,2.5,387.8,2.5c228.9,0,320,172.6,323.8,180l6.9,13.5L516.1,410.8l-155.3-107,19-18.2c5.7-6.3,9-11.7,10.5-16.3a12.63,12.63,0,0,0-16.1-16.1,94.37,94.37,0,0,0-10.5,4.5c-22.5,11.7-48.2,42.3-46.4,90.1,3.7,95.6,62,139.1,114.6,139.1,46.4,0,59.6-33.7,60.9-37.5l5-14.4,15.3-.2H678.8v24l166.5-441h261.5l177.3,459.7c.2-94.3.6-242.7.6-248.7a44.48,44.48,0,0,0-.3-5.7,12.21,12.21,0,0,0-5.4-8.8,44,44,0,0,0-10.1-4.8l-15.4-4.5-.2-16.1V17.8h346.5c153.9,0,212.4,36.6,263.3,117.9C1939.1,46.2,2036.6.8,2153.3.8c126.9,0,226.4,42,289.7,121.7C2518.7,45.4,2633.2,0,2755.3,0c118.2,0,223.9,46.5,294.2,127.1V17.8h349.3L3414.2,57l11.5-39.2h360.9V198.9l-12.1,5.9c-17.2,8.3-18.3,11.8-16.1,25.8l45.2,288.9c1.3,6.5,3.3,11,6.4,13.7,1.4,1.2,4.3,1.5,5.5,1.4l23-1.6.7,23V744.1H3471.3V618.3H3328V744.4H2979.5V683.9C2933.4,714.8,2847.6,761.1,2745.1,761.1ZM2416.5,548.2l37.3,41c1.2,1.3,119.3,128.9,291.3,128.9,133.7,0,240.4-92.3,241.4-93.2l35.6-31.3V701.5h262.7V575.3H3514V701.1h282.1v-127a48.24,48.24,0,0,1-14.9-9c-13.5-12.1-17.9-27.6-20-38.2l-45.3-289.8c-5.5-35,9.2-52.9,27.7-64.5V60.6H3457.8l-37.7,129-50.6-129H3092.4V274.4l-40.1-69.8c-58.1-101.3-169.2-161.7-297.1-161.7-119.8,0-231.1,47.6-297.5,127.4l-18.5,22.2-15.9-24.2c-53.5-81.5-146.9-124.6-269.9-124.6-114.4,0-204.6,46.7-275.6,142.6l-19.9,26.8-16.2-29.2c-42.3-76.4-76.6-123.3-241.9-123.3H1296.2V174.5a66.09,66.09,0,0,1,19.3,15.1c8,9.2,11.9,22,11.9,39,0,8.8-.8,325.6-.8,325.6l-.1,34.7-31-15.6c-18.2-9.2-32.5-34-36.4-41.4l-1.1-2.3-180.9-469H875L677.5,584,636,576.4V477.7H526.6c-11.4,19.8-38.6,52.1-94.7,52.1-72.5,0-152.7-56.4-157.5-180.4C271.8,281.5,310.3,237,344,219.6c25.2-13,50.2-13.1,67.1-.2,18.2,13.9,22.7,30.1,23.3,41.2.8,13.5-3.8,25.8-9.2,35.4l85,58.5L666,189.3C641.6,151.7,557.8,45.4,388,45.4,184.9,45.4,43.1,182.7,43.1,379.2c0,180.5,164.9,321.9,375.4,321.9H1585.4v-105c-20.6-7-38.1-20.3-38.1-40.9,0-13.4,5.3-30.6,30.3-36.2,108.2-24.4,202.3-89.9,224.3-111l27-25.9,8.7,36.4c41.8,174.4,188.8,282.7,383.8,282.7h195.3v-153Z" transform="translate(0 0)" style="fill:#fff"/><path d="M692.6,192.3,513.1,382.7,394.6,301s38.9-37.4,3.4-64.6c-27.8-21.2-105.5,23.8-102.2,112.2,3.9,101.9,66.7,159.7,136.1,159.7,64.3,0,81.2-52.1,81.2-52.1H657.4V576.3l202.8-537h231.9L1278.3,522s13.5,25.5,27.1,32.3c0,0,.8-316.7.8-325.6s-1.2-18.7-6.7-25c-9.1-10.5-24.5-14.9-24.5-14.9V39.3h325c168.5,0,211.8,45.9,260.7,134.3,67.5-91.2,160.4-151.3,292.9-151.3,136.4,0,232.8,50.4,287.8,134.3,76.9-92.3,200.8-135.1,314-135.1,139.2,0,255.6,67.7,315.7,172.5V39.3h313.2l33,84.1,24.6-84.1h323.3V185.5c-22.9,11.1-32.1,22.3-28,48.5l45.2,288.9c1.9,9.4,5.2,19.2,13.2,26.4,9.4,8.4,22,6.8,22,6.8V722.7h-325V596.8H3306.4V722.9H3000.8V641s-111.7,98.6-255.6,98.6c-184.2,0-307.2-136-307.2-136v119H2221.3c-192.8,0-358.4-106-404.6-299.1-21.9,21-118.5,90.3-234.5,116.4-9,2-13.5,5.5-13.5,15.3,0,17.9,38.1,24.3,38.1,24.3V722.7H418.4c-220.1,0-396.9-151.3-396.9-343.3S159.3,24,387.8,24c218.4,0,304.8,168.3,304.8,168.3" transform="translate(0 0)" style="fill:url(#Dégradé_sans_nom)"/><path d="M3739.8,607c-3.4-9.3-5.1-17-6.8-30.6s-55.8-382.4-57.5-396-1.7-20.4,5.9-29.8c6.3-7.7,20.3-13.6,20.3-13.6V103.8H3490.9L3413,329.9l-72.8-225.7H3138.7v39.6s23.9,6.1,28.4,13.2c4.3,6.8.4,21.7.4,21.7l-63.9,399s-1.7,15.3-11.9,27.2a43.5,43.5,0,0,1-24.1,14V658h175.2V621.5s-16.9,0-26.2-13.7c-6.8-9.9-5.1-28-5.1-28l44-302.6,87.2,256.7h106.6l88-273.7s48.2,309.4,49.9,323-.8,18.7-6.8,27.2-23.7,11.1-23.7,11.1v36.8H3759V624C3759.2,624,3743.1,616.4,3739.8,607Z" transform="translate(0 0)" style="fill:url(#Dégradé_sans_nom_2)"/><path d="M3688.6,116.8v12.1c-5.6,3.1-12.7,7.7-17.4,13.5-11,13.5-10.5,24.9-8.7,39.6.9,7,14.6,100.9,29.1,200.2,13.6,93,27.6,189.2,28.4,195.7,1.8,14.3,3.7,23.1,7.5,33.5,2.3,6.5,7.6,12.6,15.8,18.3,1,.7,2,1.3,2.9,1.9v13.7H3569.9V631.8c7.3-2.4,16.2-6.6,21.3-13.9,7.8-11.1,11.1-19.4,9-36.2-1.7-13.6-48-310.7-50-323.4l-8.4-54.2L3525,256.3,3439.9,521h-87.8l-84.2-248-17.4-51.2-7.8,53.5-44,302.6v.6c-.4,3.8-1.7,23.5,7.3,36.5a43.87,43.87,0,0,0,24,17.2V645H3080.8V628.5a55.79,55.79,0,0,0,21-15.1c11.8-13.9,14.4-30.6,14.8-33.8l63.8-398.2c1.3-5.4,4.3-20.9-2.2-31.2-3.6-5.7-10.5-10.2-22.4-14.6-1.4-.5-2.7-1-4-1.4V117.3h179L3400.7,334l12,37.1,12.7-36.9,74.8-217.3h188.4m13-13.1H3490.8L3413,329.9l-72.8-225.7H3138.7v39.6s23.9,6.1,28.4,13.2c4.3,6.8.4,21.7.4,21.7l-63.9,399s-1.7,15.3-11.9,27.2a43.5,43.5,0,0,1-24.1,14V658h175.2V621.5s-16.9,0-26.2-13.7c-6.8-9.9-5.1-28-5.1-28l44-302.6,87.2,256.7h106.6l88-273.7s48.2,309.4,49.9,323-.8,18.7-6.8,27.2-23.7,11.1-23.7,11.1v36.8H3759V624s-16.1-7.6-19.4-17-5.1-17-6.8-30.6-55.8-382.4-57.5-396-1.7-20.4,5.9-29.8c6.3-7.7,20.3-13.6,20.3-13.6V103.8Z" transform="translate(0 0)" style="fill:url(#Dégradé_sans_nom_3)"/><path d="M1246.2,601.1c-8.5-10.2-16.9-22.1-22-34.9L1048.1,103.8H903.3L730.7,574.7a73.13,73.13,0,0,1-17,26.4c-11.6,11.7-27,17-27,17V658H856.8V618s-19.8-2-25.4-16.2c-3.4-8.5-3.4-22.1,0-30.6s39-103.7,39-103.7h173.5s35.6,94.3,40.6,106.3,5.1,21.3-1.7,33.2-20.3,10.2-20.3,10.2V658H1275V618C1274.9,618,1254.6,611.2,1246.2,601.1ZM899.1,380.9l54.2-161.5,57.5,161.5Z" transform="translate(0 0)" style="fill:url(#Dégradé_sans_nom_4)"/><path d="M1039.1,116.8l172.9,454v.2c4.8,12,12.7,24.6,24.1,38.3,6.7,8,17.9,14,25.8,17.5V645H1075.4V628.6a32.4,32.4,0,0,0,18.6-15.1c8.6-15.1,9.3-28.4,2.3-44.7-3.9-9.2-28.2-73.2-40.4-105.7l-3.2-8.4H861.3l-3.2,8.5c-.4,1-35.5,95.2-38.8,103.4-4.7,11.7-4.7,28.6,0,40.2,5,12.5,15.9,18.6,24.5,21.6V645H699.7V626.6A89.64,89.64,0,0,0,723,610.3,86.52,86.52,0,0,0,743.1,579L912.5,116.9h126.6M881,393.9h148.2l-6.2-17.4L965.5,215l-12.6-35.4-12,35.6L886.7,376.7,881,393.9m167.1-290.1H903.3L730.7,574.7a73.13,73.13,0,0,1-17,26.4c-11.6,11.7-27,17-27,17V658H856.8V618s-19.8-2-25.4-16.2c-3.4-8.5-3.4-22.1,0-30.6s39-103.7,39-103.7h173.5s35.6,94.3,40.6,106.3,5.1,21.3-1.7,33.2c-5.2,9.2-14.5,10.3-18.5,10.3a14.88,14.88,0,0,1-1.9-.1V658h212.5V618s-20.4-6.8-28.8-17-16.9-22.1-22-34.9l-176-462.3Zm-149,277.1,54.2-161.5,57.5,161.5Z" transform="translate(0 0)" style="fill:url(#Dégradé_sans_nom_5)"/><path d="M1613.5,103.8H1342.7v45.1s16.1,9.3,22.8,16.1,6,23.8,6,23.8V588.2a38.12,38.12,0,0,1-10.2,18.7c-8.5,8.5-20.3,11-20.3,11V658h196.4V617.2s-9.3-2.5-17.8-12.7-9.3-16.2-9.3-16.2V500s95.3-26.2,167.6-59.5c62.7-28.9,135.4-69.7,135.4-185.2S1713.4,103.8,1613.5,103.8ZM1511.9,423.4V187.1S1671,148,1671,263.6C1671.1,357.1,1511.9,423.4,1511.9,423.4Z" transform="translate(0 0)" style="fill:url(#Dégradé_sans_nom_6)"/><path d="M1613.5,116.8c53.6,0,98.7,10.5,130.5,30.3,17.7,11.1,31.5,25.2,40.8,41.9,10.3,18.5,15.5,40.7,15.5,66.1,0,105.6-63.2,143.6-127.9,173.4-70.5,32.5-164.7,58.6-165.6,58.8l-9.6,2.6V589l.1.9c.3,2.3,2.1,10.6,12.2,22.7a54.28,54.28,0,0,0,14.8,12.7V645H1353.9V627.3a53.77,53.77,0,0,0,16.5-11.1,51.41,51.41,0,0,0,13.8-25.8l.2-1.1V189.1a91.78,91.78,0,0,0-.5-11.2c-1.2-9.7-4.3-17.1-9.2-22h0c-4.9-4.9-13.2-10.5-19-14.2V116.9h257.8m-114.6,326,18-7.5a473,473,0,0,0,82.1-46.2c24.1-17.2,43.5-35.1,57.5-53.2,18.3-23.7,27.6-48.1,27.6-72.4,0-18.5-3.8-34.7-11.2-48.3a79.21,79.21,0,0,0-29.1-30.1c-19-11.6-44.3-17.5-75-17.5a284.41,284.41,0,0,0-59.9,6.7l-9.9,2.4V442.9m114.5-339.1H1342.7v45.1s16.1,9.3,22.8,16.1,6,23.8,6,23.8V588.2a38.12,38.12,0,0,1-10.2,18.7c-8.5,8.5-20.3,11-20.3,11V658h196.4V617.2s-9.3-2.5-17.8-12.7-9.3-16.2-9.3-16.2V500s95.3-26.2,167.6-59.5c62.7-28.9,135.4-69.7,135.4-185.2s-99.9-151.5-199.8-151.5ZM1511.9,423.4V187.1a264.58,264.58,0,0,1,56.8-6.4c45.7,0,102.3,13.9,102.3,82.9.1,93.5-159.1,159.8-159.1,159.8Z" transform="translate(0 0)" style="fill:url(#Dégradé_sans_nom_7)"/><path d="M2742.6,87c-179.5,0-314.3,126.5-314.3,289.7s131.4,297.2,314.3,297.2,314.3-134.1,314.3-297.2S2922.1,87,2742.6,87Zm0,496.3c-79.6,0-162.5-40.8-162.5-204s93.1-204,162.5-204,164.2,51,164.2,204S2822.2,583.3,2742.6,583.3Z" transform="translate(0 0)" style="fill:url(#Dégradé_sans_nom_8)"/><path d="M2742.6,100c83.2,0,159.8,28.5,215.6,80.2,55.3,51.2,85.7,121,85.7,196.5,0,76.5-30,147.7-84.6,200.5a290.23,290.23,0,0,1-95.2,61.2c-37.7,15-78.5,22.6-121.4,22.6s-83.7-7.6-121.4-22.6a289.19,289.19,0,0,1-95.2-61.2c-54.6-52.8-84.6-124-84.6-200.5,0-75.5,30.4-145.3,85.7-196.5,55.6-51.7,132.2-80.2,215.4-80.2m0,496.3a181.75,181.75,0,0,0,63.8-11.2,155.61,155.61,0,0,0,57.5-37.4c17.7-18.1,31.4-40.9,40.8-67.7,10.1-28.9,15.2-62.8,15.2-100.7,0-37.7-5.6-71.7-16.7-101-10.1-26.5-24.6-49.3-43.2-67.6-31.2-30.7-74-48.3-117.3-48.3a179.61,179.61,0,0,0-58.9,9.6,155.43,155.43,0,0,0-57.4,34.8c-18.5,17.7-32.9,40.4-42.8,67.4-10.9,29.7-16.4,65.1-16.4,105.2,0,77.8,18.6,135.8,55.2,172.4a145.34,145.34,0,0,0,57.2,35c18.9,6.2,40.1,9.5,63,9.5m0-509.3c-179.5,0-314.3,126.5-314.3,289.7s131.4,297.2,314.3,297.2,314.3-134.1,314.3-297.2S2922.1,87,2742.6,87Zm0,496.3c-79.6,0-162.5-40.8-162.5-204s93.1-204,162.5-204,164.2,51,164.2,204-84.6,204-164.2,204Z" transform="translate(0 0)" style="fill:url(#Dégradé_sans_nom_9)"/><path d="M477.9,282.7,494,295.9a13.66,13.66,0,0,0,18.7-1.2l94.5-99.5S523.4,88.7,384.6,88.7C241.1,88.8,83.1,190,83.1,372.4c0,119,116.8,283.8,326.7,283.8H585.9V518.6H553.7s-19.8,52.7-113.4,52.7c-160.8,0-209.9-146.2-209.9-226.1s45.7-176.8,149-176.8S486,235.5,486,251.7s-9.3,24.6-9.3,28A3.81,3.81,0,0,0,477.9,282.7Z" transform="translate(0 0)" style="fill:url(#Dégradé_sans_nom_10)"/><path d="M384.5,101.8a258.67,258.67,0,0,1,88.4,15.7,297.3,297.3,0,0,1,66.8,34.7,311.42,311.42,0,0,1,49.8,42.7l-86.3,90.9a.59.59,0,0,1-.5.2.76.76,0,0,1-.5-.2l-9.9-8.1a53.56,53.56,0,0,0,6.7-26c0-20.9-5.9-40.1-17.1-55.4-9.1-12.5-21.6-22.2-37.1-29.1-17.8-7.9-39.9-11.8-65.5-11.8-51.2,0-94.1,22.1-123.8,63.9-24.3,34.1-38.2,80-38.2,125.9,0,23,3.7,48.1,10.7,72.6,8.2,28.9,20.4,55.1,36.3,77.8,18.7,26.9,41.9,48.1,69,63,31,17.1,67,25.7,106.9,25.7,79.3,0,110.8-35.9,121.2-52.7h11.4V643.3H409.9c-48,0-93.3-8.9-134.5-26.6a307.34,307.34,0,0,1-98.3-66.9c-25.5-25.8-46.4-56.2-60.5-88.1-13.4-30.2-20.4-61.1-20.4-89.3,0-41.7,8.6-80.6,25.6-115.6,15.6-32.2,38.1-60.7,66.6-84.7,53.4-44.7,124.8-70.3,196.1-70.3m0-13C241.1,88.8,83.1,190,83.1,372.4c0,119,116.8,283.8,326.7,283.8H585.9V518.6H553.7s-19.8,52.7-113.4,52.7c-160.8,0-209.9-146.2-209.9-226.1s45.7-176.8,149-176.8S486,235.5,486,251.7s-9.3,24.6-9.3,28a3.69,3.69,0,0,0,1.1,2.9l16.1,13.2a13.77,13.77,0,0,0,18.7-1.2l94.5-99.5c0,.1-83.8-106.3-222.6-106.3Z" transform="translate(0 0)" style="fill:url(#Dégradé_sans_nom_11)"/><path d="M2270.6,283.7l16.1,13.2a13.66,13.66,0,0,0,18.7-1.2l94.5-99.5S2316.1,89.7,2177.3,89.7C2034,89.7,1876,190.9,1876,373.4c0,119,116.8,283.8,326.7,283.8h176.1V519.6h-32.2s-19.8,52.7-113.4,52.7c-160.8,0-209.9-146.2-209.9-226.1s45.7-176.8,149-176.8,106.6,67.1,106.6,83.3-9.3,24.6-9.3,28A3.44,3.44,0,0,0,2270.6,283.7Z" transform="translate(0 0)" style="fill:url(#Dégradé_sans_nom_12)"/><path d="M2177.2,102.7a258.67,258.67,0,0,1,88.4,15.7,297.3,297.3,0,0,1,66.8,34.7,311.42,311.42,0,0,1,49.8,42.7l-86.3,90.9a.59.59,0,0,1-.5.2.76.76,0,0,1-.5-.2l-9.9-8.1a53.56,53.56,0,0,0,6.7-26c0-20.9-5.9-40.1-17.1-55.4-9.1-12.5-21.6-22.2-37.1-29.1-17.8-7.9-39.9-11.8-65.5-11.8-51.2,0-94.1,22.1-123.8,63.9-24.3,34.1-38.2,80-38.2,125.9,0,23,3.7,48.1,10.7,72.6,8.2,28.9,20.4,55.1,36.3,77.8,18.7,26.9,41.9,48.1,69,63,31,17.1,67,25.7,106.9,25.7,79.3,0,110.8-35.9,121.2-52.7h11.4V644.2H2202.4c-48,0-93.3-8.9-134.5-26.6a307.34,307.34,0,0,1-98.3-66.9c-25.5-25.8-46.4-56.2-60.5-88.1-13.4-30.2-20.4-61.1-20.4-89.3,0-41.7,8.6-80.6,25.6-115.6,15.6-32.2,38.1-60.7,66.6-84.7,53.6-44.6,125.1-70.3,196.3-70.3m0-13c-143.3,0-301.3,101.2-301.3,283.7,0,119,116.8,283.8,326.7,283.8h176.1V519.6h-32.2s-19.8,52.7-113.4,52.7c-160.8,0-209.9-146.2-209.9-226.1s45.7-176.8,149-176.8,106.6,67.1,106.6,83.3-9.3,24.6-9.3,28a3.69,3.69,0,0,0,1.1,2.9l16.1,13.2a13.77,13.77,0,0,0,18.7-1.2l94.5-99.5c-.1.1-83.9-106.4-222.7-106.4Z" transform="translate(0 0)" style="fill:url(#Dégradé_sans_nom_13)"/></svg>