<?xml version="1.0" encoding="UTF-8" standalone="no"?>
<svg
   version="1.0"
   width="1271.1161"
   height="719.09998"
   viewBox="0 0 1271.1161 719.09998"
   preserveAspectRatio="xMidYMid meet"
   id="svg134"
   sodipodi:docname="castlevania.svg"
   inkscape:version="1.1.2 (0a00cf5339, 2022-02-04, custom)"
   xmlns:inkscape="http://www.inkscape.org/namespaces/inkscape"
   xmlns:sodipodi="http://sodipodi.sourceforge.net/DTD/sodipodi-0.dtd"
   xmlns="http://www.w3.org/2000/svg"
   xmlns:svg="http://www.w3.org/2000/svg">
  <defs
     id="defs138" />
  <sodipodi:namedview
     id="namedview136"
     pagecolor="#ffffff"
     bordercolor="#666666"
     borderopacity="1.0"
     inkscape:pageshadow="2"
     inkscape:pageopacity="0.0"
     inkscape:pagecheckerboard="0"
     showgrid="false"
     inkscape:zoom="0.83908948"
     inkscape:cx="635.80823"
     inkscape:cy="359.91394"
     inkscape:window-width="1920"
     inkscape:window-height="1017"
     inkscape:window-x="-8"
     inkscape:window-y="-8"
     inkscape:window-maximized="1"
     inkscape:current-layer="svg134" />
  <g
     fill="#08050c"
     id="g4"
     transform="translate(-1.4919916,0.1)">
    <path
       d="m 266.4,709.3 c -2.5,-5.4 -5.1,-11.1 -5.9,-12.8 -2.8,-6.3 -7.8,-17.2 -10,-22 -10.3,-22.1 -19.5,-42.9 -19.5,-44.2 0,-0.8 2.2,-4 5,-7 5.5,-6 7.5,-11.3 6.7,-18 -0.5,-5.1 -2.5,-8.3 -7.1,-11.8 -5.2,-3.9 -9.2,-4.2 -16.2,-1 -9.7,4.5 -10,4.5 -11.7,2.7 -1.3,-1.5 -8.6,-11.5 -27.9,-38.5 L 175,550 v -33 -33 h -12.3 -12.2 l -21.8,-21.8 c -11.9,-11.9 -21.7,-22 -21.7,-22.4 0,-0.4 2,-3.4 4.4,-6.5 5.5,-7.3 7.1,-10.5 8.4,-16.8 2.7,-12.7 -5,-27.3 -17,-32.5 -11.5,-4.9 -21,-3.6 -32.4,4.6 -4.1,3 -8.1,5.4 -8.8,5.4 -1.5,0 -60.9,-59 -60.1,-59.9 0.3,-0.3 13.9,-13.9 30.2,-30.3 l 29.6,-29.6 7.8,5.4 c 12.4,8.7 20.5,10.4 31.2,6.4 13.8,-5.2 22.4,-19.5 19.6,-33 -1.4,-6.7 -2.9,-9.9 -8.5,-17.2 -2.4,-3.1 -4.4,-6 -4.4,-6.5 0,-0.4 9.8,-10.6 21.8,-22.6 L 150.5,185 H 162.8 175 V 159.7 134.4 L 191.8,111 c 9.3,-12.9 17.3,-23.4 17.8,-23.3 0.5,0.1 4.3,1.6 8.5,3.4 6,2.5 8.4,3 11.3,2.5 5,-0.9 10.1,-5.7 11.3,-10.5 1.4,-5.4 -0.3,-9.8 -6.6,-16.6 -2.8,-3.1 -5.1,-6.1 -5.1,-6.7 0,-0.5 4.8,-7.7 10.7,-15.8 6,-8.1 15.5,-21.3 21.3,-29.4 l 10.5,-14.7 2.3,2.8 c 1.2,1.5 7.7,10.5 14.4,19.8 6.7,9.4 15.5,21.6 19.6,27.3 l 7.5,10.3 -3.5,3.7 c -7.4,7.9 -8.8,9.8 -9.4,12.9 -1.7,8.9 5.3,17.3 14.3,17.3 1.6,0 6.1,-1.6 10.2,-3.5 4,-1.9 7.4,-3.5 7.6,-3.5 0.3,0 2.3,2.8 4.7,6.3 2.3,3.4 7.2,10.3 10.9,15.2 3.6,5 9.4,13 12.8,17.8 l 6.1,8.8 v 24.9 25 h 377.3 377.2 l 21.8,21.8 c 11.9,11.9 21.7,22.1 21.7,22.5 0,0.5 -2,3.4 -4.4,6.5 -5.6,7.4 -7.2,10.6 -8.4,17 -2.5,14 5.7,28 19.4,33.2 11.9,4.4 20.7,2.1 35.9,-9.6 l 3.1,-2.3 29.7,29.7 c 16.3,16.3 30,30 30.3,30.3 0.8,1 -58.4,59.9 -60.1,59.9 -0.8,0 -4.8,-2.4 -8.9,-5.4 -8.4,-6 -15.1,-8.2 -22.6,-7.3 -14,1.7 -24.3,11.4 -26.9,25.3 -1.8,9.2 1.2,16.8 12.4,32 0.7,1.1 -4.3,6.7 -21,23.4 l -22,22 H 931.9 740.2 l -1.1,4.8 c -0.5,2.6 -1.8,9.7 -2.7,15.7 -3.8,24 -4.8,28 -7.2,28.3 -3.3,0.5 -4.9,-1.3 -5.5,-6.1 -0.3,-2.3 -1.5,-9.6 -2.7,-16.2 -1.2,-6.6 -2.7,-15.1 -3.3,-19 l -1.2,-7 L 542.8,484.2 369,484 v 32.6 32.5 l -3.9,5.7 c -2.2,3.1 -7,9.8 -10.6,14.7 -3.7,5 -7.9,10.8 -9.3,13 -4.4,6.5 -10.4,14.5 -10.8,14.5 -0.2,0 -3.8,-1.6 -8,-3.5 -8.8,-4.1 -11.5,-4.3 -16.8,-1.2 -7.2,4.1 -9.7,10.2 -8.2,20.1 0.6,3.7 1.8,5.8 6.2,10.5 3,3.2 5.4,6.4 5.4,7 0,0.6 -1.8,4.9 -4,9.6 -2.2,4.7 -4,8.7 -4,8.9 0,0.2 -2.2,5 -4.9,10.7 -2.6,5.7 -6.8,14.7 -9.1,19.9 -2.4,5.2 -6.2,13.6 -8.5,18.5 -2.3,5 -5.4,11.8 -7,15.3 -1.5,3.4 -3.2,6.2 -3.7,6.2 -0.5,0 -3,-4.4 -5.4,-9.7 z m 19.3,-161.5 2.3,-2.1 V 514.8 484 h -16 -16 v 31.4 c 0,37.8 -1.5,34.6 15.9,34.6 10.4,0 11.7,-0.2 13.8,-2.2 z M 288,162.2 c 0,-19 -0.3,-23.1 -1.6,-25 -1.4,-2.1 -2.2,-2.2 -14.8,-2.2 -8.9,0 -13.6,0.4 -14.4,1.2 -0.9,0.9 -1.2,7.8 -1.2,25 V 185 h 16 16 z"
       id="path2" />
  </g>
  <g
     fill="#9e1489"
     id="g10"
     transform="translate(-1.4919916,0.1)">
    <path
       d="m 144.2,451.7 -13.3,-13.3 3.1,-6.5 c 12.9,-27.6 -2,-59.7 -31.5,-67.5 -10.9,-3 -27.4,-0.9 -36.1,4.5 l -3.1,1.9 -18.2,-18.1 -18.2,-18.1 18.2,-18.2 18.2,-18.2 3.1,1.9 c 6.7,3.9 14.6,5.9 23.7,5.9 15,0 25.9,-4.8 36.1,-15.8 13.2,-14.5 16.2,-35 7.7,-53.1 l -3,-6.5 13.3,-13.3 13.3,-13.3 h 8.2 8.3 V 334.5 465 h -8.3 -8.2 z"
       id="path6" />
    <path
       d="m 256.9,371.8 c -0.1,-51.3 -0.2,-95.8 -0.2,-98.8 0,-3 0,-19.8 0.1,-37.3 l 0.2,-31.8 16.8,0.3 16.7,0.4 37.8,19.7 c 20.8,10.8 38.4,19.7 39.2,19.7 1.3,0 1.5,-3.1 1.5,-20 v -20 h 373.8 373.7 l 13.3,13.3 13.3,13.3 -3,6.5 c -1.7,3.5 -3.6,9.7 -4.3,13.6 -3.8,22.6 10.4,45.6 33,53.2 11.5,3.9 29.2,2.2 38.8,-3.8 l 3.1,-1.9 18.3,18.3 18.3,18.3 -18.1,18.1 -18,18.2 -3.3,-2.1 c -9,-5.5 -25.3,-7.6 -36.4,-4.6 -12.5,3.3 -25.6,13.7 -30.8,24.6 -7.2,15 -7.4,28.5 -0.6,42.9 l 3,6.5 -13.3,13.3 -13.3,13.3 H 930.3 C 803,465 744,464.7 744,464 c 0,-0.6 2.5,-15.6 5.5,-33.3 15.9,-93.9 33.8,-201.2 34.8,-208.1 1,-7.2 0.9,-7.9 -0.8,-9.2 -1,-0.8 -2.2,-1.4 -2.5,-1.4 -1.4,0 -33.3,18.9 -34,20.1 -0.5,0.8 -4.5,31.3 -9.1,67.9 -4.5,36.6 -8.4,66.7 -8.6,66.9 -0.8,1 -1.2,-1.2 -3.2,-16.9 -8.1,-63.2 -12.3,-94.7 -12.7,-96.2 -1.1,-3.6 -4.7,-3 -19.4,3.2 -8,3.4 -15.1,6.9 -15.8,7.8 -0.7,0.9 -1.1,2.6 -0.8,3.8 0.6,2.2 1.3,6.1 13.6,75.9 4.4,25.3 11,62.3 14.5,82.3 3.6,20 6.5,36.7 6.5,37.2 0,0.6 -62.6,1 -170.9,1 -162,0 -171,-0.1 -171.4,-1.7 -0.3,-1 -0.5,-7.6 -0.5,-14.6 0,-7.1 -0.4,-13.3 -0.8,-13.7 -0.8,-0.8 -8.5,2.5 -55.2,23.6 L 299,465 h -21 -21 z m 396.6,51.8 c 5.2,-2.2 11.2,-8 13.6,-13.1 1.6,-3.5 1.9,-6.7 1.9,-27.1 0,-16.6 -0.3,-23.3 -1.2,-24.2 -0.8,-0.8 -6.3,-1.2 -17.9,-1.2 -13.6,0 -17,0.3 -18.3,1.5 -2.2,2.2 -2.6,1.9 -2.6,-2.4 0,-2.5 0.5,-4.1 1.4,-4.4 0.8,-0.3 8.9,-0.4 18,-0.1 10.9,0.3 17.3,0.1 18.6,-0.6 1.9,-1 2,-2 2,-36.8 0,-21.5 -0.4,-37.2 -1,-39.4 -1.7,-6 -6.9,-11.9 -13.5,-15.3 -5.9,-3 -5.9,-3 -23.4,-3 -12,0 -19.1,0.4 -22.4,1.4 -6.3,1.8 -12.8,7.7 -15.8,14.3 l -2.4,5.3 v 62 c 0,51 0.3,62.9 1.4,67 2,6.7 9.8,14.8 16.1,16.6 10.5,3 38,2.7 45.5,-0.5 z m -325,1.2 c 2.1,-0.9 3.1,-0.9 4.6,0 1.2,0.8 7.3,1.2 18.2,1.2 14.7,0 16.6,-0.2 18.1,-1.9 1.5,-1.7 1.6,-7.5 1.4,-74.2 l -0.3,-72.4 -2.3,-4.5 c -3.3,-6.3 -7.6,-10.5 -13.6,-13.1 -4.2,-1.8 -7.5,-2.3 -18.7,-2.7 -26.3,-0.9 -37.4,3.8 -42.4,17.7 -1.9,5.6 -3,19.3 -1.6,21.8 0.9,1.8 15.1,10.1 30.9,18.3 4,2.1 4.4,2.1 6.1,0.6 1.7,-1.6 1.9,-1.6 2.4,0.3 0.6,2.6 -1.1,4.1 -16.8,14.4 -13.6,8.9 -19.5,14.2 -21.6,19.2 -1.7,4.1 -2.4,41.1 -1,51.6 1.7,12.4 6.9,19.7 16.9,23.4 4.6,1.7 16.2,1.9 19.7,0.3 z m 115.9,-0.2 c 9.3,-2.8 16.4,-9.9 18,-18.1 1.2,-6 0.9,-54.8 -0.3,-59.3 -1.8,-6.5 -7.7,-11.6 -23.5,-20.1 -11.5,-6.3 -14.1,-8.1 -14.7,-10.3 -0.8,-3.1 0.2,-3.6 2.1,-1.3 0.7,0.8 1.7,1.5 2.2,1.5 1.9,0 32.4,-17.2 34.2,-19.3 1.6,-1.9 1.8,-3.3 1.2,-11 -1,-14.4 -5.7,-22.4 -16,-26.8 -4.2,-1.8 -7.6,-2.3 -18.9,-2.7 -17,-0.6 -25.8,0.7 -32.1,4.9 -5.6,3.7 -10.3,10.7 -11.3,16.8 -1.3,7.4 -0.8,46 0.6,51 2.3,8.1 8.3,12.8 35.4,27.5 1.5,0.8 2.7,2 2.7,2.6 0,0.7 -0.9,0.5 -2.2,-0.4 -1.8,-1.3 -5.4,-1.6 -18,-1.6 -21.7,0 -20.2,-2 -19.5,25.9 0.3,12.7 1,22.8 1.7,24.6 2.8,7.3 10.1,13.9 17.7,16 6.9,1.9 34.6,1.9 40.7,0.1 z m 84.4,0.2 c 0.8,-0.8 1.2,-5.6 1.2,-15 0,-15.6 -0.1,-15.8 -8.4,-15.8 H 517 v -52 -52 h 5.3 c 2.9,0 5.8,-0.5 6.5,-1.2 1.7,-1.7 1.7,-27.9 0,-29.6 -0.7,-0.7 -3.6,-1.2 -6.5,-1.2 H 517 v -13.1 c 0,-13.9 -0.8,-16.9 -4.3,-16.9 -1.2,0 -9.4,4 -18.2,8.9 l -16,8.9 -0.5,5.8 c -0.5,5.7 -0.6,5.9 -3.5,6.2 -4.9,0.5 -5.5,2.3 -5.5,16.1 0,13.9 0.9,16.1 6.2,16.1 h 2.9 l -0.1,56.8 c -0.1,32.3 0.3,58 0.8,59.8 3.1,10.1 9.9,16.3 20.7,18.7 4.7,1.1 28.1,0.7 29.3,-0.5 z m 48,0 c 1.7,-1.7 1.7,-193.9 0,-195.6 -0.7,-0.7 -1.9,-1.2 -2.8,-1.2 -0.9,0 -9.2,4.1 -18.3,9.1 l -16.7,9.1 v 88.7 c 0,67.7 0.3,89 1.2,89.9 1.7,1.7 34.9,1.7 36.6,0 z m 244.4,-2.2 c 2.7,-0.8 5.2,-1 5.9,-0.5 0.8,0.5 9.1,0.9 18.5,0.9 13.4,0 17.4,-0.3 18.3,-1.4 0.8,-1 1.1,-20.5 0.9,-74.2 l -0.3,-72.9 -3.1,-5.5 c -3.9,-6.9 -9.7,-11.5 -16.4,-12.9 -7.7,-1.7 -34.6,-1.4 -40.6,0.4 -6.1,1.8 -11.6,6.3 -15.1,12.3 -2.6,4.4 -2.8,5.4 -2.8,17.1 v 12.5 l 6,3.4 c 3.3,1.9 11.1,6.1 17.3,9.4 10.9,5.8 11.4,6 13.3,4.3 1.9,-1.8 3.7,-1.5 2.5,0.4 -0.4,0.6 -7.5,5.6 -15.9,11.2 -25.3,16.9 -23.9,13.8 -23.5,51 0.3,25.8 0.4,27.6 2.5,31.4 6.1,11.5 19.8,17 32.5,13.1 z m 236.3,-0.1 c 2.5,-0.9 4.3,-1.1 4.9,-0.5 0.6,0.6 8.7,1 18.7,1 13.9,0 17.9,-0.3 18.8,-1.4 0.9,-1 1.1,-20.2 0.9,-73.7 -0.3,-71.4 -0.3,-72.5 -2.4,-76.9 -2.6,-5.4 -7.4,-10.4 -12.8,-13.3 -3.8,-2.1 -5.5,-2.2 -24.6,-2.2 -19.1,0 -20.8,0.1 -24.5,2.2 -9.9,5.3 -14.2,13.2 -15.1,27.9 -0.6,8.8 -0.4,10.1 1.2,12.1 1.8,2.2 32.2,19.3 34.2,19.3 0.5,0 1.5,-0.7 2.2,-1.5 1.6,-2 3.4,-2 2.3,0 -0.5,0.8 -8,6.4 -16.8,12.3 -8.7,5.9 -17.2,12.3 -18.7,14.3 -2.1,2.6 -3.2,5.5 -4,10.5 -1.3,8.6 -0.5,48.3 1.2,53.9 1.7,5.6 10.4,14 16.7,15.9 6.1,1.9 12.7,1.9 17.8,0.1 z m -137.5,-1 c 1.5,-1.4 1.8,-1.4 3,0 1.9,2.3 36.5,2.2 37.4,-0.1 0.3,-0.9 0.6,-34 0.6,-73.6 0,-52.8 -0.3,-73.1 -1.2,-76 -1.6,-5.3 -8.8,-13.2 -14,-15.3 -5.3,-2.1 -15.4,-2.1 -20.3,0 -3.4,1.4 -4,1.4 -5.5,0 -0.9,-0.8 -2.3,-1.5 -3,-1.5 -1.4,0 -24.1,12.1 -31.2,16.7 L 882,274 v 73.3 c 0,55.7 0.3,73.6 1.2,74.5 0.8,0.8 6.3,1.2 18.2,1.2 13.8,0 17.3,-0.3 18.6,-1.5 z m 91.8,0.3 c 0.9,-0.9 1.2,-20.6 1.2,-82.4 0,-72.5 -0.2,-81.4 -1.6,-82.8 -1.3,-1.3 -4.4,-1.6 -18.3,-1.6 -12.3,0 -17.1,0.3 -17.9,1.3 -1.5,1.8 -2.8,160.3 -1.3,164 l 1.1,2.7 h 17.8 c 12.5,0 18.2,-0.4 19,-1.2 z m -6.6,-178.5 c 5.9,-5.9 9.8,-10.6 9.8,-11.8 0,-2.3 -19.7,-22.5 -22,-22.5 -2,0 -22,20 -22,22 0,2.3 20.1,22 22.5,22 1.2,0 5.9,-3.9 11.7,-9.7 z"
       id="path8" />
  </g>
  <g
     fill="#f13034"
     id="g26"
     transform="translate(-1.4919916,0.1)">
    <path
       d="m 144.2,451.7 -13.3,-13.3 3,-6.5 c 5.4,-11.3 6.3,-21 3.2,-32.7 -4.4,-17 -17.7,-30.3 -34.5,-34.8 -11,-3 -27.4,-0.9 -36.2,4.5 l -3.1,1.9 -18.2,-18.1 -18.2,-18.1 18.2,-18.2 18.2,-18.2 3.1,1.9 c 6.7,3.9 14.6,5.9 23.7,5.9 15,0 25.9,-4.8 35.9,-15.7 14,-15.3 16.8,-36 7.3,-54.6 l -2.5,-5 13.3,-13.3 13.4,-13.4 h 8.2 8.3 V 334.5 465 h -8.3 -8.2 z"
       id="path12" />
    <path
       d="M 257,334.5 V 204 h 15.7 15.6 l 38.8,20 c 21.4,11 39.5,20 40.3,20 0.8,0 1.6,-0.6 1.8,-1.2 0.3,-0.7 0.4,-9.7 0.4,-20 L 369.5,204 H 743 1116.5 l 13.3,13.3 13.3,13.3 -3,6.5 c -10.6,22.7 -3.2,48.1 18.1,61.9 8.3,5.4 16.3,7.3 28.6,6.8 8.9,-0.3 10.7,-0.7 17,-3.9 l 7.1,-3.5 18.2,18.2 18.2,18.2 -18.1,18.1 -18,18.2 -3.3,-2.1 c -9,-5.5 -25.3,-7.6 -36.4,-4.6 -12.5,3.3 -25.6,13.7 -30.8,24.6 -7.2,15 -7.4,28.5 -0.6,42.9 l 3,6.5 -13.3,13.3 -13.3,13.3 H 930.3 C 824.4,465 744,464.6 744,464.1 c 0,-0.9 3.9,-24.2 17.5,-104.6 4.2,-24.7 7.9,-46.6 8.2,-48.5 0.9,-6.6 1.7,-6.5 2.3,0.5 l 0.5,6.9 12.4,6.8 c 14.5,7.9 15.3,8.5 12.8,9.9 -6.4,3.6 -10.1,9.2 -12.1,17.9 -0.3,1.4 -2.6,4 -5.2,5.9 -8.2,6.2 -8.4,7.1 -8.4,37.8 0,26.1 0.1,26.9 2.4,31.9 5.4,11.5 19.4,17.2 32.1,12.8 3.4,-1.1 5,-1.2 6,-0.4 0.8,0.7 7.1,1 18.1,0.8 l 16.9,-0.3 0.3,-8.6 c 0.3,-9.9 0.3,-9.9 9.8,-9.9 3.2,0 5.6,-0.5 6.3,-1.4 0.8,-1 1.1,-20.5 0.9,-74.2 l -0.3,-72.9 -3.1,-5.5 c -3.9,-6.9 -9.7,-11.5 -16.4,-12.9 -7.5,-1.6 -34.6,-1.4 -40.3,0.3 -8.5,2.5 -15.6,9.7 -17.8,17.9 -0.7,2.8 -3,5.9 -7.6,10.5 -6,6 -6.5,6.3 -5.9,3.6 1.8,-8.3 11.6,-68.8 11.6,-71.4 0,-4.2 -3,-5.6 -7.2,-3.4 -8.5,4.4 -29.4,16.8 -30.5,18.1 -0.6,0.8 -1.5,4.4 -1.8,7.9 l -0.7,6.4 -5.9,3.2 c -3.3,1.8 -6.1,4 -6.4,4.8 -0.4,1.5 -8.5,64.1 -8.5,66.1 0,0.6 -0.4,0.8 -0.9,0.5 -0.4,-0.3 -1.1,-2.9 -1.5,-5.8 -2.3,-19.7 -7.7,-59.4 -8.1,-60.9 -1.2,-3.7 -4.3,-3.2 -19.6,3.3 -8.3,3.4 -15.5,7.1 -16,8 -0.6,1.1 -0.5,3.4 0.1,6 1.5,6.8 1.3,7.6 -2.6,9.3 -5.4,2.2 -6.2,1.9 -6.9,-2.5 -1,-5.6 -6.1,-12.9 -11.6,-16.3 -6.2,-3.8 -15.3,-5.1 -31.9,-4.4 -15.4,0.6 -19.4,1.6 -25.2,6.6 -3.8,3.2 -8.8,11.7 -8.8,15 0,1.2 -11.4,13.1 -12.6,13.1 -0.2,0 -0.4,-13.9 -0.4,-30.8 0,-31.7 -0.2,-33.2 -4,-33.2 -0.9,0 -9.2,4.1 -18.3,9.1 l -16.7,9.1 v 6.1 c 0,7.1 -0.4,7.8 -4.7,10.1 -3.2,1.6 -3.2,1.6 -4.5,-1.2 -1.1,-2.3 -2,-2.8 -6.8,-3.2 L 517.5,257.5 517,244 c -0.3,-7.4 -0.9,-14.1 -1.3,-14.7 -1.6,-2.5 -5.4,-1.1 -21.2,7.6 l -16,8.9 -0.5,5.8 c -0.5,5.7 -0.6,5.9 -3.5,6.1 -3.2,0.2 -5.5,2.6 -5.5,5.5 0,1 -1.1,2.4 -2.5,3 -2,0.9 -2.5,1.8 -2.5,4.9 0,5.2 -1.4,5.6 -3.5,1 -2.3,-5.2 -6.9,-9.5 -13,-12.2 -4,-1.8 -7.4,-2.3 -18.8,-2.7 -8.8,-0.3 -16.4,0 -20.7,0.7 -11.4,2.1 -19.3,8.9 -22.5,19.4 -0.9,3.1 -2.8,5.9 -6,8.8 -2.6,2.4 -5.4,5.7 -6.3,7.3 l -1.7,3.1 -0.6,-9.5 c -0.6,-11.3 -3.1,-17.3 -9.6,-22.9 -5.8,-5.1 -9.8,-6.2 -25.4,-6.8 -16.5,-0.7 -25.9,0.7 -32.1,4.6 -5,3.2 -10.3,10.5 -11.2,15.6 -0.5,2.3 -2.5,5.2 -6.4,9.2 -6.9,6.9 -8.2,10.6 -8.2,22.6 v 8.6 l 4.3,2.4 c 2.3,1.4 8.8,5 14.5,8.2 l 10.3,5.6 -6.7,6.2 c -5.6,5.3 -6.8,7 -8,11.6 -1.1,4.6 -2.3,6.3 -6.5,10 -2.9,2.5 -5.8,6 -6.5,7.8 -1.7,3.9 -2,52.6 -0.4,58.4 1.6,5.6 5,10 10.4,13.4 4.2,2.5 6.2,3.1 12.6,3.3 5.2,0.3 8.7,-0.1 11.2,-1.1 3.1,-1.3 3.9,-1.3 4.8,-0.2 0.9,1 4.3,1.5 12.3,1.7 l 11.2,0.3 -6,2.8 c -3.3,1.6 -12.9,6 -21.3,9.8 L 299,465 h -21 -21 z m 785.5,107 c 2.6,-0.9 4.3,-1.1 5.1,-0.4 0.7,0.5 8.3,0.8 18.5,0.7 l 17.4,-0.3 0.3,-8.6 c 0.3,-9.9 0.3,-9.9 9.8,-9.9 3.2,0 5.6,-0.5 6.3,-1.4 0.9,-1 1.1,-20.2 0.9,-73.7 -0.3,-71.6 -0.3,-72.4 -2.4,-76.9 -2.8,-5.8 -7,-10.2 -12.5,-13.2 -4.2,-2.2 -5.3,-2.3 -24.9,-2.3 -19.1,0 -20.8,0.1 -24.6,2.2 -5.7,3.1 -10.8,9.1 -13.4,15.9 -1.9,5.2 -6.8,11.2 -9.2,11.4 -0.5,0 -0.8,-6 -0.8,-13.4 0,-16.1 -0.3,-16.6 -9.1,-16.6 -5.5,0 -5.9,-0.2 -5.9,-2.3 0,-1.5 2.8,-5 8.5,-10.7 5.1,-5.1 8.5,-9.3 8.5,-10.5 0,-2.4 -19.7,-22.5 -22,-22.5 -0.9,0 -6.2,4.7 -11.9,10.4 -9.4,9.4 -10.3,10.6 -9.7,13.2 0.6,2.6 -0.1,3.7 -6.9,10.4 -4.1,4.1 -7.5,7.9 -7.5,8.3 0,0.5 3.6,4.6 8,9.1 7.4,7.6 8,8.5 8,12.4 v 4.2 h -5.9 -5.8 l -1.3,-4.6 c -1.6,-5.8 -8.6,-13.6 -14.2,-15.9 -5.3,-2.1 -15.4,-2.1 -20.3,0 -3.4,1.4 -4,1.4 -5.5,0 -0.9,-0.8 -2.3,-1.5 -3,-1.5 -1.4,0 -24.1,12.1 -31.2,16.7 -3.7,2.2 -3.8,2.5 -3.8,8.1 0,3.1 -0.4,6.3 -0.9,7.1 -0.5,0.8 -3.5,2.8 -6.7,4.5 l -5.9,3.1 v 73.5 73.5 l 17.7,0.3 17.7,0.2 0.3,-8.7 c 0.3,-7.3 0.6,-8.8 2,-9.1 1.5,-0.3 1.8,0.8 2,8.5 l 0.3,8.8 17.8,0.3 17.7,0.2 v -8.9 c 0,-10.2 -0.1,-10.1 9.1,-10.1 h 5.9 v 8.3 c 0,4.5 0.4,8.8 0.8,9.5 0.7,0.9 5,1.2 18.3,1 l 17.4,-0.3 0.3,-8.6 c 0.3,-8 0.5,-8.7 2.5,-9.3 5.6,-1.5 10.7,-0.4 10.7,2.4 0,2.1 4.3,8.6 7.3,11.1 6.2,5.2 18.3,7.2 26.2,4.4 z"
       id="path14" />
    <path
       d="m 1013,340.4 v -19.6 l 3.3,2 c 1.7,1 6.7,3.8 10.9,6.1 l 7.7,4.2 -5.8,5.7 c -5,4.9 -6,6.5 -7,11.2 -0.9,4.5 -1.8,5.9 -4.4,7.8 -1.8,1.2 -3.6,2.2 -4,2.2 -0.4,0 -0.7,-8.8 -0.7,-19.6 z"
       id="path16" />
    <path
       d="m 369.9,463.8 c 0,-0.7 0,-7 0,-13.9 0.1,-16.1 -0.4,-16.8 -7.7,-13.4 -7.9,3.7 -8.2,3.6 -8.2,-4 V 426 h 6.3 c 3.4,0 7.1,-0.3 8.2,-0.6 1.7,-0.4 2.4,0.3 3.9,3.6 2.5,5.6 6,9.6 11.5,12.8 4.6,2.7 4.6,2.7 24.6,2.7 18.8,0 20.3,-0.1 24.2,-2.2 6,-3.3 11.2,-9 12.6,-14 0.8,-3.1 1.8,-4.5 3.9,-5.4 4.2,-1.7 10.4,-8.2 11.9,-12.3 1.7,-4.7 3.2,-4.6 2.4,0.2 -0.8,5 1.1,16.4 3.5,21.2 2.9,5.6 9.3,10.7 15.2,11.9 2.7,0.6 10.5,1.1 17.3,1.1 14.7,0 14.5,0.2 14.5,-11.4 V 426 h 5.5 5.4 l 0.3,9.3 0.3,9.2 h 17.5 17.5 l 0.3,-9.2 0.3,-9.1 8,-0.4 8,-0.3 2,4.5 c 2.5,5.5 6.1,9.5 11.4,12.3 3.7,2 5.4,2.2 24,2.2 18.6,0 20.3,-0.2 24,-2.2 6.5,-3.5 13.5,-12.2 13.5,-16.6 0,-0.8 1.3,-2 2.9,-2.7 4.2,-1.7 10,-7.8 12.2,-12.6 1.6,-3.6 1.9,-7 1.9,-26.8 0.1,-16.1 -0.2,-23.2 -1.1,-24.2 -0.8,-1 -3.3,-1.4 -8,-1.4 -6.7,0 -6.9,-0.1 -6.9,-2.5 0,-2.4 0.2,-2.5 6.3,-2.5 9.7,0 10.2,-0.7 10.2,-13.4 0,-17.5 0,-17.3 9.1,34.4 7.4,42.7 15.3,87.2 15.8,89.3 0.4,1.6 -7.8,1.7 -162,1.7 -129.2,0 -162.4,-0.3 -162.5,-1.2 z"
       id="path18" />
    <path
       d="m 517,341.9 v -52 l 3.8,0.3 3.7,0.3 0.3,51.8 0.2,51.7 h -4 -4 z"
       id="path20" />
    <path
       d="m 371,364.8 0.1,-15.3 1.9,3.6 c 1.1,2 4,5.5 6.5,7.7 l 4.5,4 v 7.6 7.6 h -6.5 -6.5 z"
       id="path22" />
    <path
       d="m 462,346.9 c 0,-0.9 -1.3,-3.5 -3,-5.7 -2.7,-3.7 -7,-6.7 -21.1,-14.5 l -3.4,-1.9 4,-2.3 c 8.1,-4.8 8.5,-5.2 8.5,-10.3 0,-4.2 0.3,-5 2.9,-6.5 3.8,-2.2 4.6,-2.2 5.9,0.7 0.8,1.8 2,2.6 4.4,2.8 l 3.3,0.3 0.3,18.4 c 0.1,11.6 -0.1,18.8 -0.8,19.5 -0.7,0.7 -1,0.5 -1,-0.5 z"
       id="path24" />
  </g>
  <g
     fill="#77737e"
     id="g106"
     transform="translate(-1.4919916,0.1)">
    <path
       d="m 274.1,694.4 -0.1,-12.2 10.7,-23.3 c 5.9,-12.9 10.7,-23.5 10.8,-23.7 0.3,-0.4 11.7,-2.4 12,-2 0.2,0.2 -26.9,60 -31.9,70.3 -1.4,2.8 -1.5,2.2 -1.5,-9.1 z"
       id="path28" />
    <path
       d="m 261.5,654.5 c -9.1,-19.9 -9.7,-21.7 -8.2,-23.3 6.9,-7.6 9.7,-25.9 5.7,-36.4 -2.9,-7.7 -10.4,-15.9 -17.8,-19.4 -6,-2.8 -15.5,-3.7 -23.2,-2.2 l -3.5,0.7 L 203.8,558.8 193,543.6 V 342.1 140.5 l 10.9,-15 c 8.4,-11.7 11.2,-14.9 12.7,-14.6 1,0.2 6,0.5 10.9,0.5 7.9,0.1 9.6,-0.3 14.1,-2.6 6.7,-3.5 13.8,-11.5 16.1,-18.1 1,-3 1.7,-8 1.7,-11.9 0,-5.8 -0.5,-7.8 -3.6,-13.7 l -3.6,-7 9.5,-13.1 c 5.2,-7.2 9.9,-13 10.3,-12.8 0.5,0.2 5,6.1 10,13.1 l 9.2,12.8 -3.3,6.2 c -3.1,5.7 -3.4,6.9 -3.4,15.2 0,11.1 2.1,16.3 9.4,23.4 7.1,6.9 14.1,9.5 24.1,8.8 4.1,-0.3 8.2,-0.7 9.1,-0.9 1.2,-0.2 5.2,4.5 12.8,15.1 l 11.1,15.4 v 36.3 c 0,26.7 -0.3,36.4 -1.1,36.4 -0.7,0 -4.8,-2 -9.3,-4.4 -4.5,-2.4 -14.1,-7.4 -21.3,-11 L 306,191.9 v -27.6 c 0,-30.5 -0.4,-33 -5.8,-39.3 -5.9,-7 -9.7,-8.3 -25.1,-8.8 -21.3,-0.7 -29.2,2.2 -34.5,12.9 l -2.6,5.3 v 207.8 c 0,172.1 0.2,208.4 1.3,211.1 2.2,5.2 6.8,9.8 12.2,12.3 4.5,2.2 6.4,2.4 19.5,2.4 8,0 16.2,-0.5 18.4,-1.1 2.1,-0.6 6,-3.1 8.7,-5.6 7.7,-7.2 7.9,-8.4 7.9,-46.2 v -32.6 l 21.8,-9.8 c 11.9,-5.3 22,-9.7 22.5,-9.7 0.4,0 0.7,18 0.7,40 v 40 l -11.2,15.5 c -11.1,15.4 -11.2,15.6 -14.2,14.8 -1.7,-0.4 -6.2,-0.8 -10.1,-0.8 -12.7,0.1 -24.1,7.7 -30.1,20.3 -5,10.3 -3.6,25.2 3.4,36.3 l 2.8,4.4 -9.5,21.2 c -5.3,11.7 -9.9,21.2 -10.2,21.3 -0.4,0 -5.1,-9.7 -10.4,-21.5 z"
       id="path30" />
    <path
       d="m 239.8,629.3 c -3.5,-0.5 -3.5,-1.3 -0.2,-4.4 3.9,-3.6 6.4,-9.2 7.1,-16 0.5,-5.5 0.8,-6 2.7,-5.5 1.2,0.4 3.4,0.9 4.9,1.3 2.8,0.6 2.8,0.6 2.1,6.2 -0.8,6.8 -2.7,12.3 -5.4,16.2 -2.2,3 -3.9,3.3 -11.2,2.2 z"
       id="path32" />
    <path
       d="m 291.6,625.8 c -3.3,-5.9 -4.6,-11.1 -4.6,-19.3 0,-8.7 2.9,-15.4 8.9,-20.8 4.6,-4.1 4.4,-4.1 9.8,0.6 l 2.1,1.9 -3.4,3.1 c -9.6,8.3 -9.9,22.1 -0.9,33.1 l 3.5,4.3 -4.6,0.7 c -7.7,1 -8.2,0.9 -10.8,-3.6 z"
       id="path34" />
    <path
       d="m 334.1,586.9 c -3.2,-8.4 -3.1,-8.7 7.9,-24.1 5.6,-7.9 10.5,-14.6 10.9,-15.1 0.7,-0.7 10.1,2.1 10.1,3 0,0.6 -22.6,32.4 -25.9,36.5 l -1.9,2.3 z"
       id="path36" />
    <path
       d="m 255.5,562.8 c -5,-1.7 -9.6,-5.8 -11.6,-10.2 -1.8,-4 -1.9,-10.8 -1.9,-199.8 V 157.2 l 5,-0.4 5,-0.3 V 351.7 547 l 2.9,3.2 c 2.9,3.2 3,3.2 13.5,3.6 12.8,0.5 17.1,-0.2 20.2,-3.3 l 2.4,-2.4 v -35.5 c 0,-19.5 0.3,-35.7 0.8,-35.9 0.4,-0.2 2.7,1 5.2,2.8 l 4.5,3.2 0.3,31.2 c 0.1,20.7 -0.1,32.7 -0.9,35.4 -1.4,5.4 -8.1,12.1 -13.4,13.6 -5,1.4 -28,1.3 -32,-0.1 z"
       id="path38" />
    <path
       d="M 179,342.3 V 138.8 l 2.5,0.6 c 1.3,0.3 3.6,1.1 5,1.6 l 2.5,1 v 200.3 200.3 l -5,1.6 -5,1.6 z"
       id="path40" />
    <path
       d="m 359.3,544.3 -4.3,-1.5 v -41.6 -41.7 l 5,-7.5 5,-7.5 v 50.8 c 0,27.9 -0.3,50.6 -0.7,50.6 -0.5,-0.1 -2.7,-0.8 -5,-1.6 z"
       id="path42" />
    <path
       d="m 727,524.8 c 0,-1.8 -0.5,-5.1 -1,-7.3 -0.5,-2.2 -2.2,-11.9 -3.9,-21.5 -1.7,-9.6 -3.8,-21.5 -4.6,-26.5 -0.9,-4.9 -2.7,-15.1 -4,-22.5 -1.3,-7.4 -3.5,-19.8 -4.9,-27.5 -1.4,-7.7 -5,-28.2 -8,-45.5 -3.1,-17.3 -6.9,-38.9 -8.6,-48 -8.9,-50.1 -10.2,-58.2 -9.4,-58.9 1.3,-1.2 24.6,-11.1 26.1,-11.1 0.7,0 1.3,0.8 1.3,1.8 0,0.9 0.9,8.5 2,16.7 1.8,13.4 3.2,24.6 8.6,65.5 0.8,6.3 2.1,16.5 2.9,22.5 0.8,6.1 2.2,16.9 3.1,24 0.9,7.2 1.9,13.3 2.3,13.7 0.3,0.4 5.3,-36.8 11.1,-82.6 l 10.4,-83.4 15,-8.6 c 8.2,-4.8 15,-8.5 15.3,-8.3 0.2,0.2 -1.4,10.9 -3.6,23.8 -9,53 -14.6,85.8 -25.6,151.4 -6.4,38 -14,83.5 -17,101.2 -3,17.7 -5.5,32.7 -5.5,33.2 0,0.6 -0.4,1.1 -1,1.1 -0.5,0 -1,-1.5 -1,-3.2 z"
       id="path44" />
    <path
       d="m 298.9,475.4 -5.4,-3.3 4.5,-1.9 c 2.5,-1.1 16.2,-7.2 30.5,-13.7 14.3,-6.5 27.5,-12.4 29.4,-13.2 l 3.4,-1.5 -1.8,2.9 c -8.1,12.4 -8.8,13.2 -13.3,15.1 -2.6,1.2 -13.1,5.9 -23.3,10.5 l -18.7,8.4 z"
       id="path46" />
    <path
       d="m 1122.1,473.5 c -1.2,-2.6 -2.1,-5.1 -2.1,-5.5 0,-0.4 6.1,-6.7 13.5,-13.9 13.2,-12.7 13.7,-13.1 17.8,-13 10.1,0.2 10.4,-0.2 -9.2,19.3 l -17.9,17.9 z"
       id="path48" />
    <path
       d="m 114,436.6 c 0,-0.3 1.5,-2.7 3.4,-5.3 7.3,-10.3 8.7,-24.4 3.4,-34.8 l -2.6,-5 4.5,0.4 c 2.8,0.2 4.8,-0.1 5.3,-0.9 0.4,-0.7 1.6,1 3.1,4.2 2.1,4.6 2.4,6.8 2.4,16.3 0,10.6 -0.1,11.3 -3.5,18 l -3.5,7 -6.2,0.3 c -3.5,0.2 -6.3,0.1 -6.3,-0.2 z"
       id="path50" />
    <path
       d="m 1146.6,434.8 c -5,-7.6 -6.1,-12.1 -6.1,-23.8 0,-10.5 0.2,-12 2.8,-17.4 3.4,-7.4 8.5,-13.7 14.2,-17.6 4.6,-3.1 10,-5.6 9.1,-4.1 -0.8,1.3 3.3,6.1 5.2,6.1 0.9,0.1 -0.4,1.2 -2.9,2.5 -6.4,3.3 -14.3,12.3 -16.8,19 -3.9,10.5 -2.3,22.3 4.5,31.8 1.9,2.6 3.4,4.9 3.4,5.2 0,0.3 -2.7,0.5 -6,0.5 -5.1,0 -6.2,-0.3 -7.4,-2.2 z"
       id="path52" />
    <path
       d="m 308.2,419.4 c -6,-3 -9.5,-7.1 -11.1,-12.9 -1.4,-5.3 -1.5,-51.4 0,-55.2 1.7,-4.7 5.7,-8 22.7,-19.4 L 336,321 v -15.4 c 0,-17.1 -0.7,-20.6 -4.3,-20.6 -4.2,0 -4.7,1.6 -4.7,14.7 0,6.8 -0.3,12.3 -0.6,12.3 -0.3,0 -7.2,-3.7 -15.5,-8.1 L 296,295.7 v -7.1 c 0,-12.9 3.7,-19.8 12.8,-24.3 5.4,-2.6 6.2,-2.7 21.7,-2.7 9.4,0 17.7,0.5 20.2,1.2 5.4,1.6 9.6,5.2 13.1,11.1 l 2.7,4.6 v 71.5 71.5 l -15.2,0.3 -15.3,0.3 v -3.7 -3.7 l -2.3,2.1 c -6.1,5.7 -17,6.9 -25.5,2.6 z m 26.8,-24 c 0.6,-1.4 1,-12.6 1,-25 v -22.5 l -4.5,3.1 -4.5,3.1 v 21.3 c 0,11.7 0.3,21.6 0.7,21.9 0.3,0.4 1.9,0.7 3.5,0.7 2.1,0 3.1,-0.6 3.8,-2.6 z"
       id="path54" />
    <path
       d="m 406.7,421 c -5.2,-1.3 -8.7,-3.3 -11.9,-6.7 -5.2,-5.5 -5.8,-8.4 -5.8,-30.8 V 363 h 15 15 l 0.1,14.8 c 0.1,18.5 0.4,19.7 4.9,19.7 h 3.5 l 0.3,-20.6 0.2,-20.5 -14.2,-7.9 c -7.9,-4.4 -16,-9.5 -18,-11.3 -6.4,-5.8 -6.9,-8.5 -6.6,-35.8 l 0.3,-24.1 3,-4.9 c 2.4,-3.7 4.5,-5.6 8.9,-7.9 5.9,-2.9 6.1,-3 21.5,-3 19,0.1 23.8,1.2 29.6,6.9 4.9,5 6.5,9.8 6.5,19.9 v 7.6 l -14.9,8 c -8.2,4.5 -15.2,8.1 -15.5,8.1 -0.3,0 -0.7,-6 -0.8,-13.2 l -0.3,-13.3 -2.5,-0.3 c -5.2,-0.5 -5.5,0.4 -5.5,18.1 0,12.3 0.3,16.8 1.4,18 0.7,0.9 6.8,4.7 13.5,8.4 17.1,9.4 20.1,11.6 22.5,16.6 2,4.1 2.1,6 2.1,30.3 0,15 -0.5,27.5 -1.1,29.7 -1.4,5.1 -6.4,10.6 -11.9,13.1 -3.8,1.7 -6.8,2.1 -20,2.3 -8.5,0.1 -17.2,-0.2 -19.3,-0.7 z"
       id="path56" />
    <path
       d="m 500.9,421 c -9.1,-1.6 -15.7,-7.4 -17.8,-15.6 -0.7,-2.8 -1.1,-23.7 -1.1,-61.8 v -57.5 l -4,-0.3 -4.1,-0.3 -0.2,-11.5 -0.2,-11.5 4.3,-0.3 4.2,-0.3 v -6.7 l 0.1,-6.7 14.3,-7.8 c 7.9,-4.2 14.8,-7.7 15.5,-7.7 0.8,0 1.1,4.3 1.1,14.5 V 262 h 6.5 6.6 l -0.3,11.8 -0.3,11.7 -6.3,0.3 -6.2,0.3 0.2,55.7 0.3,55.7 6,0.5 6,0.5 v 11.5 11.5 l -10,0.1 c -5.5,0.1 -12.1,-0.2 -14.6,-0.6 z"
       id="path58" />
    <path
       d="m 543.5,420.8 c -0.3,-0.7 -0.4,-39.7 -0.3,-86.7 l 0.3,-85.4 14,-7.8 c 7.7,-4.3 14.6,-7.8 15.3,-7.8 1,-0.1 1.2,19 1,94.2 l -0.3,94.2 -14.8,0.3 c -11.2,0.2 -14.9,0 -15.2,-1 z"
       id="path60" />
    <path
       d="m 612.7,421 c -5.2,-1.3 -8.7,-3.3 -11.9,-6.7 -5.9,-6.2 -5.8,-4.6 -5.8,-71.9 0,-43.9 0.3,-62.8 1.2,-65.5 1.6,-5.7 7,-11.4 12.6,-13.6 3.9,-1.5 7.6,-1.8 21.2,-1.8 15.7,0 16.8,0.2 22.1,2.7 5.9,2.7 9.8,6.9 11.8,12.7 0.7,2.3 1.1,14.6 1.1,37.2 V 348 h -20 -20 v 23.3 c 0,25.7 0.3,27.1 5.5,26.5 l 3,-0.3 0.3,-17.2 0.2,-17.3 h 15.5 15.5 v 19.8 c 0,10.8 -0.5,21.4 -1.1,23.5 -1.3,4.8 -6,10.2 -11.3,13 -3.6,1.9 -5.9,2.2 -20.1,2.4 -8.8,0.1 -17.7,-0.2 -19.8,-0.7 z m 21.1,-116 -0.3,-19.5 -3,-0.3 c -5,-0.6 -5.5,1.2 -5.5,20.8 0,9.7 0.3,17.9 0.6,18.3 0.3,0.3 2.4,0.5 4.5,0.4 l 3.9,-0.1 z"
       id="path62" />
    <path
       d="m 806,418.5 c -2.5,-0.8 -6.5,-3 -8.8,-5 -6.5,-5.6 -7.2,-9.3 -7.2,-38 0,-31.8 -1.4,-29.1 22.3,-44.9 l 17.7,-12 V 302 c 0,-14.9 -0.2,-16.9 -1.8,-18.3 -2.3,-2.1 -3.6,-2.1 -5.6,-0.1 -1.3,1.2 -1.6,4.1 -1.6,15 0,7.4 -0.2,13.4 -0.5,13.4 -0.2,0 -7.3,-3.7 -15.6,-8.2 l -15.1,-8.2 0.4,-10 c 0.6,-13.7 3.5,-19.3 12.8,-24.2 3.1,-1.7 5.9,-1.9 22.5,-1.9 17.6,0 19.3,0.2 23.1,2.2 2.2,1.2 5.3,3.8 6.9,5.8 5.5,7.3 5.5,6.9 5.5,82.2 V 419 H 845.5 830 v -3 -2.9 l -3.6,2.4 c -6.6,4.5 -12.6,5.4 -20.4,3 z M 829,394 c 0.7,-1.2 0.9,-10.2 0.8,-25 l -0.3,-23.1 -4.2,3 -4.3,3.1 v 20.8 c 0,14.8 0.3,21.1 1.2,22 1.8,1.8 5.6,1.4 6.8,-0.8 z"
       id="path64" />
    <path
       d="m 1040.6,418 c -6,-2.3 -10.2,-6.2 -12.7,-11.5 -1.7,-3.6 -1.9,-6.8 -1.9,-29.8 0,-19.7 0.3,-26.5 1.4,-29.1 1.7,-4.1 6.4,-7.9 24.4,-19.7 l 14.3,-9.3 -0.3,-16.8 c -0.3,-14.2 -0.6,-17 -2,-18.4 -1.4,-1.5 -2.2,-1.6 -4.3,-0.6 l -2.5,1.2 v 14 c 0,7.7 -0.3,14 -0.6,14 -0.4,0 -7.4,-3.6 -15.5,-8.1 l -14.9,-8.1 v -9.4 c 0,-10.6 1.1,-14.1 6,-19.8 5.2,-5.9 8.5,-6.9 25.6,-7.4 19.4,-0.5 25.1,0.6 31,6 8.2,7.6 7.9,4 7.9,83.3 v 70 l -15.2,0.3 -15.3,0.3 v -3.1 -3.1 l -2.9,2.1 c -3.9,2.7 -10.6,5 -14.5,5 -1.7,-0.1 -5.3,-1 -8,-2 z m 23.4,-23 c 1.3,-0.8 1.6,-4.9 1.8,-25 0.2,-13.2 0,-24 -0.3,-24 -0.4,0 -2.4,1.2 -4.6,2.8 l -3.9,2.7 v 21.1 c 0,21.5 0.3,23.4 4,23.4 0.8,0 2.2,-0.5 3,-1 z"
       id="path66" />
    <path
       d="m 886,347.6 v -71.5 l 14.9,-8 c 8.2,-4.5 15.2,-8.1 15.5,-8.1 0.3,0 0.6,1.9 0.6,4.2 v 4.2 l 3.3,-3.1 c 1.7,-1.7 4.6,-3.8 6.4,-4.7 4.3,-2.1 12.8,-2 17.9,0.3 4.8,2.2 10.1,8.2 11.4,13.1 0.6,2.1 1,31.4 1,74.3 V 419 H 941.5 926 v -67.3 c 0,-51 -0.3,-67.6 -1.2,-68.5 -1.8,-1.8 -5.6,-1.4 -6.8,0.7 -0.6,1.3 -1,24.6 -1,68.5 V 419 H 901.5 886 Z"
       id="path68" />
    <path
       d="m 978,339 v -80.1 l 15.3,0.3 15.2,0.3 0.3,79.8 0.2,79.7 H 993.5 978 Z"
       id="path70" />
    <path
       d="m 1214,380.7 v -6.2 l 18.8,-18.8 18.7,-18.7 h 7 7 l -25,25 c -13.7,13.8 -25.3,25 -25.7,25 -0.5,0 -0.8,-2.8 -0.8,-6.3 z"
       id="path72" />
    <path
       d="m 33.5,307 c 13.7,-13.7 25.3,-25 25.7,-25 0.5,0 0.8,3 0.8,6.6 v 6.5 L 41.2,313.6 22.5,332 h -7 -7 z"
       id="path74" />
    <path
       d="M 1232.7,313.2 1214,294.5 v -6.3 c 0,-3.4 0.3,-6.2 0.8,-6.2 0.4,0 12,11.3 25.7,25 l 25,25 h -7 -7 z"
       id="path76" />
    <path
       d="M 76.9,299.7 C 66.4,296.1 65.3,295.1 64.5,288 c -0.4,-3.4 -0.5,-6.3 -0.3,-6.5 0.2,-0.3 2.6,1.1 5.2,3 7.3,5.2 13,7 21.6,6.9 6,0 8.6,-0.6 13,-2.7 7.2,-3.4 13.6,-9.8 16.9,-16.7 2.2,-4.7 2.6,-6.9 2.6,-14.5 0,-7.7 -0.4,-9.8 -2.6,-14.2 -3.1,-6.3 -2.1,-5.8 6.9,3.6 l 6.4,6.6 -0.4,8 c -0.3,6.4 -1.1,9.5 -3.6,14.8 -3.6,7.7 -12.3,17.2 -19,20.6 -10.6,5.4 -23.5,6.5 -34.3,2.8 z"
       id="path78" />
    <path
       d="m 1172,300.5 c -12,-3.4 -22.1,-11.9 -27.8,-23.4 -3.6,-7.3 -3.7,-7.7 -3.7,-19 0,-10.7 0.2,-12.1 2.9,-17.9 1.6,-3.5 3.7,-6.7 4.7,-7.2 1.8,-1 11.9,-1.4 11.9,-0.5 0,0.3 -1.3,2.4 -3,4.6 -10,13.9 -9.2,31 2.1,43.4 12.2,13.2 28.7,14.9 44.8,4.5 l 6.3,-4.1 -0.7,6.3 c -0.8,7.3 -1.9,8.7 -10.3,11.9 -7.4,2.8 -19.7,3.5 -27.2,1.4 z"
       id="path80" />
    <path
       d="m 359.7,225.4 -4.7,-7.6 v -38.2 -38.2 l 5,-1.6 5,-1.6 v 47.4 c 0,26.1 -0.2,47.4 -0.3,47.4 -0.2,0 -2.5,-3.4 -5,-7.6 z"
       id="path82" />
    <path
       d="m 116.7,227.1 c -2.6,-0.6 -2.1,-1.2 15.2,-18.5 l 17.9,-17.9 2.1,4.8 c 1.2,2.6 2.1,5 2.1,5.4 0,0.3 -6,6.6 -13.3,13.9 -12.7,12.7 -13.4,13.2 -17.2,13.1 -2.2,-0.1 -5.2,-0.4 -6.8,-0.8 z"
       id="path84" />
    <path
       d="m 1133.2,214.7 c -12.7,-12.7 -13.2,-13.4 -12.2,-16 0.5,-1.5 1.5,-3.9 2,-5.4 1.1,-2.7 1.2,-2.6 19.1,15.3 19.6,19.6 19.4,19.1 8.9,19.3 -4.5,0.1 -4.6,0.1 -17.8,-13.2 z"
       id="path86" />
    <path
       d="m 257,194 v -5 h 15 15 v 5 5 h -15 -15 z"
       id="path88" />
    <path
       d="m 370,194 v -5 h 375 375 l -1.9,4.8 -1.9,4.7 -373.1,0.3 L 370,199 Z"
       id="path90" />
    <path
       d="m 291.6,197.3 c -0.8,-0.8 -0.8,-20.6 0,-31.9 l 0.7,-8.9 4.2,0.3 4.2,0.4 0.7,6 c 0.3,3.4 0.6,11.1 0.6,17.2 v 11.1 l -4.9,3.2 c -2.7,1.7 -5.2,2.9 -5.5,2.6 z"
       id="path92" />
    <path
       d="m 184.3,135.7 c -1.8,-0.7 -3.3,-1.6 -3.3,-2.2 -0.1,-1.1 26.2,-38.4 27.1,-38.5 0.3,0 1.3,2.7 2.2,6 l 1.7,6 -10.7,15 c -6,8.2 -11.5,14.9 -12.3,14.9 -0.8,0 -3,-0.6 -4.7,-1.2 z"
       id="path94" />
    <path
       d="m 343.1,123 c -5.6,-7.8 -10.5,-14.8 -10.8,-15.6 -0.6,-1.5 1.5,-10.3 2.7,-11.7 0.7,-0.8 28,36.4 28,38.1 0,0.5 -1.2,1.2 -2.7,1.6 -1.6,0.3 -3.7,0.8 -4.9,1.2 -1.8,0.5 -3.6,-1.6 -12.3,-13.6 z"
       id="path96" />
    <path
       d="m 219.4,106.9 c -2.7,-0.8 -3.3,-1.6 -4.3,-5.6 -0.7,-2.7 -1.4,-5.5 -1.7,-6.4 -0.4,-1.4 0.5,-1.3 5.7,0.8 7.3,2.9 12.3,2.6 17.9,-1.1 3.2,-2.1 6.9,-7.8 8.4,-12.9 0.5,-1.6 0.8,-1.7 3.5,-0.2 1.7,0.8 3.7,1.5 4.5,1.5 1.2,0 1.4,0.7 0.9,3.3 -2.8,14.8 -20,24.9 -34.9,20.6 z"
       id="path98" />
    <path
       d="m 306.5,106 c -14,-5.4 -21.3,-20 -17.1,-34.3 0.9,-3.1 2.7,-6.8 3.9,-8.3 2.2,-2.5 2.6,-2.6 8.5,-1.9 l 6.3,0.7 -3.5,3.8 c -4.1,4.6 -5.1,6.4 -6,10.9 -1.4,7.8 3.9,16.6 11.9,19.7 5,1.9 9.7,1.4 15.7,-1.7 4.4,-2.2 4.6,-1.8 2.6,5.7 -1.1,3.8 -1.9,5 -4.5,6.1 -4.5,1.8 -11.9,1.5 -17.8,-0.7 z"
       id="path100" />
    <path
       d="m 236.2,56 c 0.4,-1.3 31.8,-44.9 32.7,-45.5 1.2,-0.7 1,14.7 -0.2,16.9 -0.5,1.1 -5.5,8.2 -10.9,15.8 l -10,13.8 h -6 c -3.4,0 -5.8,-0.4 -5.6,-1 z"
       id="path102" />
    <path
       d="m 294.7,55.2 c -0.9,-1 -6,-7.9 -11.2,-15.2 L 274,26.7 v -8.6 c 0,-4.9 0.4,-8.1 0.9,-7.5 1,1 31.3,43.2 32.5,45.2 1.3,2.1 -10.7,1.6 -12.7,-0.6 z"
       id="path104" />
  </g>
  <g
     fill="#b6e23d"
     id="g132"
     transform="translate(-1.4919916,0.1)">
    <path
       d="m 261.6,654.5 c -9.2,-19.9 -9.8,-21.7 -8.3,-23.3 0.9,-1 2.9,-4.4 4.4,-7.7 2.5,-5.4 2.8,-7.1 2.8,-16.5 0,-9.1 -0.3,-11.1 -2.3,-14.9 -3.6,-6.6 -10.8,-13.7 -17.1,-16.8 -4.9,-2.4 -6.7,-2.8 -14.1,-2.7 -4.7,0.1 -9.4,0.3 -10.4,0.5 -1.4,0.3 -4.4,-3 -12.7,-14.6 L 193,543.6 V 342 l 0.1,-201.5 11,-15.3 c 8.7,-12 11.5,-15.2 12.8,-14.6 0.9,0.4 4.8,0.9 8.8,1.2 9.7,0.6 15.7,-1.5 22.8,-7.9 12.3,-11.3 14.7,-28.1 6,-41.8 l -2.3,-3.7 9.5,-13.2 c 5.2,-7.3 9.8,-13.2 10.1,-13.2 0.4,0 4.9,5.9 10.1,13.1 l 9.4,13.1 -1.7,2.7 c -4.2,6.4 -5.1,9.6 -5.1,18.6 0,7.9 0.4,9.7 2.8,14.7 3.5,7.1 10.1,13.1 17.6,15.9 4.4,1.6 7.2,2 13.1,1.7 4.1,-0.3 8.2,-0.8 9,-1.1 1.1,-0.5 4.4,3.3 12.3,14.4 l 10.8,15.1 0.2,36.9 c 0.1,20.3 0,36.9 -0.2,36.9 -0.2,0 -10.2,-5 -22.2,-11.2 L 306,191.7 V 164 c 0,-32.6 -0.4,-34.4 -8.1,-41.4 -6.5,-5.8 -11.3,-6.9 -28.9,-6.4 -12.2,0.3 -14.1,0.6 -18.5,2.9 -6.3,3.2 -11,9.3 -12.4,16.1 -0.8,3.8 -1.1,65.1 -0.9,209.8 l 0.3,204.5 2.3,4.7 c 2.9,5.9 8.9,11.2 14.5,12.8 2.8,0.7 9.9,1 19.8,0.8 15.3,-0.3 15.6,-0.3 20.5,-3.3 3,-1.9 6,-4.9 7.9,-7.9 l 3,-4.9 0.5,-34.6 0.5,-34.5 21.5,-9.8 c 11.8,-5.3 21.6,-9.6 21.7,-9.4 0.2,0.2 0.4,18.3 0.4,40.3 l 0.2,40.1 -10.8,15.1 c -10.2,14.1 -11,15 -13.4,14.3 -1.4,-0.4 -6.2,-0.7 -10.6,-0.7 -6.7,0.1 -8.8,0.5 -13.3,2.9 -11.2,5.7 -18.9,16.8 -19.9,28.5 -0.8,8.7 1.5,17 7.2,26.7 l 1.9,3.1 -9.2,20.3 c -5.1,11.1 -9.2,20.6 -9.2,21.1 0,3.3 -2.8,-1.7 -11.4,-20.6 z"
       id="path108" />
    <path
       d="m 727.7,527 c -1.6,-4.9 -45.7,-259.4 -45,-260 1,-0.9 24.9,-11 26,-11 0.4,0 5,32.7 10.2,72.8 5.1,40 9.6,73.4 9.9,74.2 0.4,0.9 0.7,0.4 0.9,-1.5 4.7,-39.7 20.6,-165.4 21.1,-166.3 0.7,-1.4 29.2,-18.5 29.8,-17.9 0.2,0.1 -1.3,9.5 -3.2,20.7 -9.6,56.5 -35.6,211.3 -43.4,258 -5.5,33.2 -5.5,33.2 -6.3,31 z"
       id="path110" />
    <path
       d="m 310.8,420.5 c -5.8,-2.1 -8.7,-4.5 -11.6,-9.4 l -2.7,-4.6 -0.3,-25.5 c -0.2,-16 0,-26.8 0.7,-29 1.5,-4.9 4.6,-7.7 22.8,-19.9 l 15.8,-10.6 0.3,-15.6 c 0.3,-17.3 -0.4,-20.9 -4.2,-20.9 -4.3,0 -5.1,2.4 -5.2,14.7 0,6.2 -0.3,11.4 -0.7,11.5 -0.3,0.2 -7.2,-3.3 -15.3,-7.7 l -14.6,-8 0.4,-9 c 0.3,-5.5 1.1,-10.2 2.1,-12.1 2.4,-4.6 9.1,-10.2 13.9,-11.4 5.8,-1.6 31,-1.6 37.4,-0.1 6.3,1.5 11.6,5.7 14.3,11.4 2,4.2 2.1,5.5 2.1,75.5 l 0.1,71.3 -15.1,0.2 -15,0.2 v -3.3 -3.4 l -3,2.6 c -5.4,4.5 -14.8,5.8 -22.2,3.1 z m 23.6,-23.7 c 1.3,-1.9 1.6,-6.1 1.6,-25.6 v -23.3 l -4.5,3.1 c -5.6,3.9 -5.8,5 -5.3,27.6 0.3,15.9 0.5,17.7 2.3,19 2.6,2 4.1,1.8 5.9,-0.8 z"
       id="path112" />
    <path
       d="m 407.1,421 c -5.9,-1.3 -11.5,-5.1 -14.8,-10.2 l -2.8,-4.1 -0.3,-21.9 -0.3,-21.8 h 15 15.1 v 14.9 c 0,8.2 0.4,16.1 0.9,17.4 1.3,3.3 4.8,4.4 7,2.3 1.3,-1.4 1.7,-4.5 1.9,-17.3 0.2,-8.6 0.1,-17.5 -0.3,-19.9 l -0.6,-4.2 -15,-8.3 c -16.1,-8.9 -21,-13.1 -22.8,-19.6 -1.5,-5.1 -1.4,-45.6 0,-50.8 1.6,-5.6 9.1,-12.9 14.9,-14.5 5.6,-1.6 32,-1.6 37.6,-0.1 6.5,1.7 10.6,5.1 13.7,11 2.3,4.6 2.7,6.7 2.7,13.6 v 8.1 l -14.2,7.8 c -7.9,4.3 -14.7,7.8 -15.2,7.7 -0.4,-0.1 -0.8,-5 -0.7,-11.1 0.2,-12.5 -0.6,-15 -4.9,-15 -4.6,0 -5.2,2.3 -4.8,19.5 0.2,12.8 0.6,15.6 2,17.2 1,1.1 7.9,5.3 15.4,9.4 15.1,8.2 19.8,12.1 21.3,17.7 1.4,4.9 1.4,52.5 0,57.5 -1.4,5.1 -6.4,10.6 -11.9,13.1 -3.8,1.6 -7,2 -19.5,2.2 -8.2,0.2 -17,-0.1 -19.4,-0.6 z"
       id="path114" />
    <path
       d="m 543.4,420.5 c -0.2,-0.5 -0.3,-39.4 -0.2,-86.4 l 0.3,-85.3 14.4,-7.9 c 7.9,-4.4 14.8,-7.9 15.2,-7.9 0.5,0 0.8,41.8 0.7,94.1 l -0.3,94 -14.9,0.2 c -9.2,0.1 -15,-0.2 -15.2,-0.8 z"
       id="path116" />
    <path
       d="m 613.3,421 c -5.4,-1.1 -8,-2.5 -12,-6.3 -6.4,-6 -6.4,-5.7 -6.1,-74.8 l 0.3,-62.4 2.2,-4.2 c 2.6,-4.8 7.2,-8.6 12.3,-10.1 5.3,-1.6 20.7,-2.2 31,-1.2 11.3,1.1 16.6,3.8 20.7,10.8 l 2.8,4.7 0.3,35.3 0.3,35.2 H 645 625 v 23.5 c 0,22.2 0.1,23.6 2,25.5 1.1,1.1 2.6,2 3.3,2 3.2,0 3.7,-2.4 3.7,-19.2 V 363 h 15.5 15.5 v 19.8 c 0,10.8 -0.5,21.4 -1.1,23.5 -1.4,5.1 -6.4,10.6 -11.9,13.1 -3.8,1.7 -6.9,2.1 -19.5,2.3 -8.2,0.1 -16.9,-0.2 -19.2,-0.7 z m 20.5,-115.7 -0.3,-19.8 -3,-0.3 c -5,-0.6 -5.5,1.1 -5.5,21.5 V 325 h 4.5 4.5 z"
       id="path118" />
    <path
       d="m 495,419.4 c -4.6,-2 -7.7,-5 -10.3,-9.9 -2.2,-3.9 -2.2,-4.8 -2.5,-63.7 l -0.3,-59.8 -2.2,-0.2 c -1.2,0 -3,-0.1 -3.9,0 -1.6,0.2 -1.8,-1 -1.8,-11.8 v -12 h 4 3.9 l 0.3,-6.7 0.3,-6.8 14,-7.7 c 7.7,-4.2 14.6,-7.7 15.3,-7.7 0.9,-0.1 1.2,3.4 1.2,14.4 V 262 h 6.5 6.6 l -0.3,11.6 -0.3,11.7 -6.5,0.1 -6.5,0.1 v 55.2 c 0,42 0.3,55.5 1.2,56.4 0.7,0.7 3.7,1.4 6.8,1.7 l 5.5,0.4 v 10.9 10.9 h -13.7 c -10.1,-0.1 -14.8,-0.5 -17.3,-1.6 z"
       id="path120" />
    <path
       d="m 809.5,419.3 c -7.7,-1.7 -13.7,-5.8 -16.8,-11.6 -2.1,-4.1 -2.2,-5.1 -2.2,-31.2 0,-25.3 0.1,-27.2 2,-30.5 1.5,-2.5 7.1,-6.9 19.8,-15.4 L 830,318.8 v -16.7 c 0,-15 -0.2,-17 -1.8,-18.4 -2.3,-2.1 -3.6,-2.1 -5.6,-0.1 -1.3,1.2 -1.6,4.1 -1.6,15.1 0,7.5 -0.4,13.3 -0.9,13.1 -0.5,-0.1 -7.5,-3.9 -15.6,-8.3 l -14.7,-8 0.4,-10.1 c 0.4,-8.8 0.8,-10.8 3.2,-14.8 5.6,-9.6 13.3,-12.1 35.6,-11.4 13.2,0.4 15.2,0.7 19.5,2.8 6,3.1 10.2,8.9 11.5,15.9 0.6,3.3 1,31.6 1,73.2 V 419 H 845.5 830 v -3.1 -3 l -3.1,2.2 c -5.1,3.6 -12.3,5.4 -17.4,4.2 z M 829,394.1 c 1.2,-2.3 1.4,-48.1 0.2,-48.1 -0.4,0 -2.4,1.4 -4.5,3.1 l -3.7,3 v 20.8 c 0,14.8 0.3,21 1.2,21.9 1.8,1.8 5.6,1.4 6.8,-0.7 z"
       id="path122" />
    <path
       d="m 1042.7,418.6 c -5.6,-1.5 -11.4,-5.9 -14.2,-10.7 -1.9,-3.2 -2,-5.2 -2,-31.5 v -28.1 l 2.6,-3.4 c 1.5,-1.9 10.4,-8.6 19.8,-14.8 l 17.1,-11.4 v -16.2 c 0,-14.5 -0.2,-16.5 -1.9,-18.6 -1.6,-2.1 -2.2,-2.2 -4.5,-1.1 -2.8,1.3 -3,2.8 -2.6,21.5 0,4.2 -0.1,7.7 -0.4,7.7 -0.3,0 -7.3,-3.7 -15.6,-8.1 l -15,-8.1 v -9.2 c 0.1,-13.2 3.5,-20.1 12.5,-24.9 3.7,-2 5.5,-2.2 22,-2.2 19.8,0 22.6,0.6 28.4,5.9 1.8,1.7 4.2,4.9 5.2,7.1 1.8,3.8 1.9,8 1.9,75.3 V 419 h -15 -15 v -3.1 -3 l -3.1,2.2 c -3.1,2.2 -11,5 -13.8,4.8 -0.9,0 -3.8,-0.6 -6.4,-1.3 z m 22.3,-25.2 c 1,-2.6 1.4,-47.4 0.5,-47.4 -0.3,0 -2.3,1.2 -4.5,2.6 l -4,2.7 v 21.1 c 0,22.5 0.2,23.6 4.7,23.6 1.6,0 2.7,-0.8 3.3,-2.6 z"
       id="path124" />
    <path
       d="m 886,347.7 v -71.3 l 15,-8.2 c 8.2,-4.5 15.2,-8.2 15.5,-8.2 0.3,0 0.5,1.8 0.5,4.1 v 4.1 l 3.7,-3.2 c 4.8,-4.2 9.2,-6 14.8,-6 8.3,0 14.8,3.9 18.8,11.5 2.2,4 2.2,4.5 2.5,76.3 l 0.3,72.2 H 941.5 926 v -67.3 c 0,-51 -0.3,-67.6 -1.2,-68.5 -1.8,-1.8 -5.6,-1.4 -6.8,0.7 -0.6,1.3 -1,24.6 -1,68.5 V 419 H 901.5 886 Z"
       id="path126" />
    <path
       d="M 978,339.5 V 260 h 15.5 15.5 V 339.5 419 H 993.5 978 Z"
       id="path128" />
    <path
       d="m 984.5,240 -9,-9 8.8,-8.7 8.7,-8.8 9,9 9,9 -8.8,8.8 -8.7,8.7 z"
       id="path130" />
  </g>
</svg>
