<?xml version="1.0" encoding="UTF-8" standalone="no"?>
<svg
   id="Layer_1"
   data-name="Layer 1"
   viewBox="0 0 3839.56 1084.65"
   version="1.1"
   sodipodi:docname="cave.svg"
   inkscape:version="1.1.2 (0a00cf5339, 2022-02-04, custom)"
   xmlns:inkscape="http://www.inkscape.org/namespaces/inkscape"
   xmlns:sodipodi="http://sodipodi.sourceforge.net/DTD/sodipodi-0.dtd"
   xmlns="http://www.w3.org/2000/svg"
   xmlns:svg="http://www.w3.org/2000/svg">
  <defs
     id="defs28" />
  <sodipodi:namedview
     id="namedview26"
     pagecolor="#ffffff"
     bordercolor="#666666"
     borderopacity="1.0"
     inkscape:pageshadow="2"
     inkscape:pageopacity="0.0"
     inkscape:pagecheckerboard="0"
     showgrid="false"
     inkscape:zoom="0.27841731"
     inkscape:cx="1711.4597"
     inkscape:cy="204.72865"
     inkscape:window-width="1920"
     inkscape:window-height="1017"
     inkscape:window-x="-8"
     inkscape:window-y="-8"
     inkscape:window-maximized="1"
     inkscape:current-layer="Layer_1" />
  <path
     id="パス_1"
     data-name="パス 1"
     d="M933.6,502.7c-3.6-43.5,14.5-83.4,47.2-108.8l61.7-50.8c29-25.4,68.9-36.3,105.2-32.6h130.6c29,0,58,7.3,58,39.9s-32.6,39.9-58,39.9H1133.2c-18.1,0-32.6,7.3-47.2,21.8l-50.8,43.5c-14.5,10.9-21.8,18.1-21.8,36.3V593.5c0,14.5,10.9,29,21.8,36.3l50.8,39.9c14.5,10.9,29,18.1,47.2,21.8h145.1c25.4,0,58,3.6,58,39.9s-29,39.9-58,39.9H1147.7c-39.9,3.6-76.2-7.3-105.2-32.6l-61.7-50.8c-36.3-25.4-54.4-65.3-47.2-108.8Z"
     transform="translate(0 0.02)"
     style="fill:#098a44" />
  <path
     id="パス_2"
     data-name="パス 2"
     d="M1898.4,393.9c-25.4,0-54.4-3.6-54.4-39.9s29-39.9,54.4-39.9h112.4c39.9-3.6,76.2,7.3,105.2,36.3,25.4,25.4,39.9,61.7,36.3,97.9l7.3,275.7c0,25.4-10.9,47.2-36.3,47.2-21.8,0-39.9-18.1-43.5-39.9l-54.4,29c-14.5,10.9-32.6,14.5-50.8,10.9h-79.8c-32.6,3.6-65.3-7.3-94.3-29-29-25.4-47.2-61.7-43.5-101.6V604.3c-3.6-36.3,10.9-68.9,39.9-90.7,25.4-21.8,61.7-32.6,94.3-29h174.1V466.5c0-61.7-14.5-72.5-72.5-72.5h-94.4ZM1894.8,568c-21.8,0-54.4,7.3-54.4,36.3v54.4c0,29,32.6,32.6,54.4,32.6h90.7l90.7-47.2V626c0-43.5-14.5-58-58-58Z"
     transform="translate(0 0.02)"
     style="fill:#098a44" />
  <path
     id="パス_3"
     data-name="パス 3"
     d="M2924.9,415.7V375.8c0-29,3.6-61.7,39.9-61.7,29,0,39.9,21.8,39.9,50.8v58c0,10.9-3.6,21.8-10.9,32.6L2870.5,724c-7.3,18.1-21.8,50.8-43.5,50.8h-50.8c-21.8,0-36.3-32.6-43.5-50.8L2609.4,455.6c-7.3-10.9-10.9-21.8-10.9-32.6V365c0-25.4,10.9-50.8,39.9-50.8,36.3,0,43.5,32.6,43.5,61.7v39.9l119.7,272Z"
     transform="translate(0 0.02)"
     style="fill:#098a44" />
  <path
     id="パス_4"
     data-name="パス 4"
     d="M3585.1,771.1c-25.4,3.6-54.4-3.6-72.5-21.8l-36.3-29c-29-21.8-43.5-54.4-39.9-90.7v-156c-3.6-36.3,10.9-72.5,39.9-97.9l29-25.4c21.8-25.4,58-36.3,90.7-32.6h76.2c32.6-3.6,65.3,7.3,90.7,29l32.6,25.4c32.6,25.4,47.2,65.3,43.5,105.2v65.3c0,47.2-7.3,61.7-54.4,61.7H3523.4v29c0,7.3,3.6,18.1,10.9,25.4l21.8,21.8c14.5,10.9,36.3,18.1,54.4,14.5h174.1c29,0,54.4,7.3,54.4,39.9,0,36.3-32.6,39.9-54.4,39.9Zm-69-250.2h235.8V470.1c0-14.5,0-29-10.9-36.3l-32.6-29c-10.9-7.3-25.4-10.9-39.9-10.9h-68.9c-14.5,0-29,0-39.9,10.9l-29,21.8c-10.9,7.3-18.1,21.8-18.1,36.3Z"
     transform="translate(0 0.02)"
     style="fill:#098a44" />
  <path
     id="パス_5"
     data-name="パス 5"
     d="M782.1,688A138,138,0,0,0,690,605.6c1.6,0-59.8-21-88.9-30.7-25.9-11.3-54.9-14.5-82.4-11.3a140.22,140.22,0,0,0-105,74.3l-6.5-216.5,14.5-4.8c4.8,3.2,9.7,8.1,14.5,9.7,3.2,1.6,8.1,4.8,12.9,6.5l100.2,46.9c25.9,11.3,54.9,14.5,82.4,8.1C759.5,445.6,753,330.9,753,329.3s-8.1-97-9.7-147.1v-1.6c-4.8-25.9-21-50.1-42-66.3L602.7,22.2c-1.6,0-1.6-1.6-3.2-1.6-6.5-4.8-11.3-8.1-19.4-11.3C557.5-2,530-3.6,505.8,7.7c0,0-342.6,185.8-373.3,202-22.6,16.2-37.2,40.4-38.8,67.9-6.5,43.6-9.7,53.3-25.9,66.3C38.7,355.2,19.3,382.7,17.7,415L0,776.9c0,22.6,9.7,67.9,54.9,76,6.5,0,11.3,3.2,14.5,8.1a53.62,53.62,0,0,1,3.2,42v3.2c0,6.5,0,54.9,24.2,76,4.8,8.1,38.8,76,88.9,80.8l40.4,3.2c53.3,4.8,143.8,14.5,179.4,17.8a72,72,0,0,0,32.3-3.2c17.8-1.6,72.7-8.1,108.3-12.9,90.5-14.5,111.5-114.7,116.4-150.3,30.7-6.5,58.2-24.2,79.2-50.1l1.6-1.6C799.9,786.6,796.7,725.2,782.1,688Zm-433,118c-11.3,0-88.9,6.5-124.4,6.5-4.8,0-9.7-1.6-12.9-4.8-8.1-9.7-11.3-21-11.3-33.9l1.6-407.2c0-1.6-1.6-42,21-53.3,32.3-14.5,108.3-53.3,119.6-59.8,9.7-3.2,19.4-3.2,29.1,1.6,1.6,1.6,3.2,3.2,3.2,6.5l6.5,30.7c0,6.5,1.6,12.9,4.8,17.8-3.2-1.6-6.5,0-9.7,0l-103.4,42h0c-1.6,0-1.6,1.6-3.2,1.6h0l-3.2,3.2h0a5.59,5.59,0,0,0-1.6,3.2v6.4h0l1.6,395.9a14.74,14.74,0,0,0,4.8,11.3c3.2,3.2,6.5,3.2,11.3,3.2l111.5-11.3c-4.9,25.9-38.9,37.2-45.3,40.4Zm42-408.8-74.3-29.1,54.9-22.6c6.5,17.8,14.5,35.6,25.9,50.1Zm-95.4,349-1.6-358.7,82.4,33.9,9.7,315.1ZM712.6,187.1c3.2,50.1,9.7,145.4,9.7,145.4,0,3.2,3.2,93.7-101.8,129.3-21,3.2-42,0-61.4-6.5,0,0-22.6-9.7-45.2-21,139-46.9,132.5-172.9,132.5-174.5s-8.1-103.4-11.3-160l43.6,40.4C696.5,149.9,707.8,167.7,712.6,187.1ZM567.2,36.8a73.43,73.43,0,0,1,40.4,56.6c3.2,56.6,11.3,164.8,11.3,166.4,0,4.8,4.8,106.7-114.7,145.4-14.5,4.8-29.1,6.5-43.6,1.6a19.8,19.8,0,0,1-4.8-3.2,1.57,1.57,0,0,1-1.6-1.6h-1.6c-29.1-16.2-43.6-53.3-50.1-72.7a63,63,0,0,0,64.6,12.9c56.6-14.5,72.7-69.5,72.7-97v-1.6c0-1.6-9.7-130.9-11.3-169.7V70.7c-3.2-11.3-9.7-22.6-19.4-30.7L522,33.5c12.9-4.8,30.7-4.8,45.2,3.3ZM61.4,827c-32.3-4.8-30.7-43.6-30.7-45.2L48.5,418.2c0-21,12.9-38.8,32.3-45.2,1.6,0,3.2-1.6,4.8-1.6,27.5-21,32.3-42,38.8-87.3,1.6-17.8,9.7-35.6,24.2-46.9,103.5-56.6,303.9-166.5,312-169.7,8.1-4.8,17.8-6.5,27.5-3.2,4.8,3.2,9.7,8.1,9.7,14.5,1.6,40.4,9.7,155.1,11.3,168.1,0,6.5-4.8,56.6-51.7,67.9-11.3,4.8-22.6,3.2-32.3-1.6-8.1-6.5-12.9-14.5-12.9-24.2v-1.6L404,255c-1.6-11.3-8.1-19.4-17.8-25.9a67.56,67.56,0,0,0-53.3-3.2c-1.6,0-1.6,0-3.2,1.6-1.6,0-85.6,43.6-119.6,59.8-40.4,19.4-37.2,77.6-37.2,80.8,0-1.6-1.6,405.6-1.6,405.6,0,19.4,6.5,40.4,19.4,54.9,9.7,8.1,21,12.9,33.9,12.9,38.8-1.6,124.4-6.5,127.7-6.5h3.2c3.2-1.6,63-17.8,67.9-67.9,3.2-27.5,6.5-56.6,6.5-56.6,0-1.6,9.7-46.9,50.1-54.9a50,50,0,0,1,37.2,4.8c9.7,8.1,17.8,19.4,19.4,32.3,0,1.6,11.3,51.7-11.3,80.8-16.2,16.2-37.2,25.9-59.8,29.1h-1.6c-1.6,0-50.1,9.7-59.8,84-3.2,21-3.2,30.7-3.2,37.2,0,9.7-3.2,19.4-6.5,29.1-4.8,16.2-30.7,27.5-53.3,27.5-25.9,0-179.4-8.1-216.5-11.3-14.5-1.6-19.4-35.6-19.4-53.3,4.8-21,1.6-43.6-8.1-63C88.9,836.7,76,828.6,61.4,827Zm347.4,229.5c-33.9-3.2-124.4-11.3-177.8-17.8l-40.4-3.2c-19.4-1.6-37.2-21-50.1-40.4,53.3,3.2,177.8,11.3,202,11.3,33.9-1.6,72.7-17.8,80.8-48.5,3.2-11.3,6.5-22.6,6.5-33.9,0-6.5,1.6-16.2,3.2-35.6,6.5-48.5,30.7-56.6,35.6-58.2,30.7-3.2,58.2-16.2,79.2-38.8a1.57,1.57,0,0,1,1.6-1.6c30.7-38.8,17.8-100.2,16.2-103.4-3.2-21-14.5-38.8-32.3-50.1s-40.4-14.5-61.4-9.7a88.7,88.7,0,0,0-22.6,8.1c17.8-22.6,43.6-37.2,71.1-40.4,17.8-1.6,33.9-1.6,51.7,3.2,1.6,0,1.6,1.6,3.2,1.6l14.5,4.8c21,9.7,38.8,25.9,51.7,45.2,19.4,29.1,40.4,93.7-29.1,195.5-38.8,43.6-72.7,45.2-77.6,45.2h-3.2c-6.5,1.6-9.7,4.8-11.3,11.3h0v3.2c-1.6,17.8-12.9,97-56.6,134.1-8.1,8.1-19.4,14.5-30.7,16.2h-3.2c-1.6,0-3.2,0-4.8,1.6C420.2,1056.5,415.3,1056.5,408.8,1056.5ZM543,1040.3c-14.5,1.6-30.7,4.8-48.5,6.5a252,252,0,0,0,51.7-129.3l85.6,1.6c-1.6,34-19.3,111.5-88.8,121.2Zm177.7-189c-35.6,40.4-67.9,40.4-69.5,40.4h0l-43.6-1.6c11.3-8.1,21-17.8,30.7-29.1a1.57,1.57,0,0,1,1.6-1.6C717.5,744.6,691.6,667,669,631.5c-1.6-1.6-1.6-3.2-3.2-4.8l16.2,4.8c33.9,8.1,61.4,32.3,72.7,64.6s14.5,84.1-34,155.2Z"
     transform="translate(0 0.02)"
     style="fill:#e6e6e6" />
  <path
     d="M394.3,953.1c3.2-9.7,6.5-19.4,6.5-29.1,0-6.5,0-16.2,3.2-37.2,9.7-74.3,58.2-84,59.8-84h1.6c22.6-3.2,43.6-12.9,59.8-29.1,22.6-29.1,11.3-79.2,11.3-80.8-1.6-12.9-9.7-24.2-19.4-32.3a49.05,49.05,0,0,0-37.2-4.8c-40.4,8.1-50.1,53.3-50.1,54.9,0,0-3.2,29.1-6.5,56.6-4.8,50.1-64.6,66.3-67.9,67.9h-3.2c-3.2,0-88.9,4.8-127.7,6.5-12.9,0-24.2-4.8-33.9-12.9-12.9-14.5-19.4-35.6-19.4-54.9,0,0,1.6-407.2,1.6-405.6,0-3.2-3.2-61.4,37.2-80.8,33.9-16.2,118-59.8,119.6-59.8,1.6-1.6,1.6-1.6,3.2-1.6a67.93,67.93,0,0,1,53.3,3.2c9.7,6.5,16.2,14.5,17.8,25.9l8.1,32.3v1.6c0,9.7,4.8,17.8,12.9,24.2,9.7,4.8,21,6.5,32.3,1.6,46.9-11.3,51.7-61.4,51.7-67.9-1.6-12.9-9.7-127.7-11.3-168.1,0-6.5-4.8-11.3-9.7-14.5a32.94,32.94,0,0,0-27.5,3.2c-8.1,3.2-208.5,113.1-311.9,169.7-14.5,11.3-22.6,29.1-24.2,46.9-6.5,45.2-11.3,66.3-38.8,87.3-1.6,0-3.2,1.6-4.8,1.6a47,47,0,0,0-32.3,45.2L30.7,781.8c0,1.6-1.6,40.4,30.7,45.2,14.5,1.6,27.5,9.7,35.6,25.9,9.7,19.4,12.9,42,8.1,63,0,17.8,4.8,51.7,19.4,53.3,37.2,3.2,190.7,11.3,216.5,11.3C363.6,980.5,389.5,969.2,394.3,953.1Z"
     transform="translate(0 0.02)"
     style="fill:#d40000"
     id="path7" />
  <polygon
     points="376.5 421.42 294.1 387.52 295.7 746.22 386.2 736.52 376.5 421.42"
     style="fill:#aa0000"
     id="polygon9" />
  <path
     d="M211.7,807.6c3.2,3.2,8.1,4.8,12.9,4.8,35.6,0,113.1-6.5,124.4-6.5,6.5-3.2,40.4-14.5,45.2-40.4L282.7,776.8c-4.8,0-8.1,0-11.3-3.2a14.74,14.74,0,0,1-4.8-11.3L265,366.5V360a5.59,5.59,0,0,1,1.6-3.2l3.2-3.2c1.6,0,1.6-1.6,3.2-1.6l103.4-42c3.2,0,6.5-1.6,9.7,0-3.2-4.8-4.8-11.3-4.8-17.8l-6.5-30.7c0-3.2-1.6-4.8-3.2-6.5-9.7-4.8-19.4-4.8-29.1-1.6-11.3,6.5-87.3,45.2-119.6,59.8-22.6,11.3-21,51.7-21,53.3l-1.6,407.2C200.4,786.6,203.6,797.9,211.7,807.6Z"
     transform="translate(0 0.02)"
     style="fill:#d40000"
     id="path11" />
  <path
     d="M528.4,70.7v3.2c1.6,38.8,11.3,168.1,11.3,169.7v1.6c0,27.5-16.2,82.4-72.7,97a63.21,63.21,0,0,1-64.6-12.9c6.5,19.4,21,56.6,50.1,72.7h1.6a1.57,1.57,0,0,0,1.6,1.6,19.8,19.8,0,0,0,4.8,3.2c14.5,4.8,29.1,3.2,43.6-1.6,119.6-38.8,114.7-140.6,114.7-145.4,0-1.6-8.1-109.9-11.3-166.4a73.75,73.75,0,0,0-40.4-56.6c-14.5-8.1-32.3-8.1-45.2-3.2L509,40C518.7,48.1,525.2,59.4,528.4,70.7Z"
     transform="translate(0 0.02)"
     style="fill:#d40000"
     id="path13" />
  <path
     d="M513.9,434.3c22.6,11.3,45.2,21,45.2,21,19.4,6.5,40.4,9.7,61.4,6.5,105-35.6,101.8-126,101.8-129.3,0,0-6.5-95.3-9.7-145.4-4.8-19.4-16.2-37.2-33.9-46.9L635.1,99.8c3.2,56.6,11.3,158.4,11.3,160S652.9,387.5,513.9,434.3Z"
     transform="translate(0 0.02)"
     style="fill:#aa0000"
     id="path15" />
  <path
     d="M371.7,345.5l-54.9,22.6,74.3,29.1,6.5-1.6C386.2,381,378.1,363.2,371.7,345.5Z"
     transform="translate(0 0.02)"
     style="fill:#800000"
     id="path17" />
  <path
     d="M681.9,631.5l-16.2-4.8c1.6,1.6,1.6,3.2,3.2,4.8,22.6,35.6,48.5,113.1-29.1,227.9a1.57,1.57,0,0,0-1.6,1.6c-9.7,11.3-19.4,21-30.7,29.1l43.6,1.6c1.6,0,33.9,0,69.5-40.4,48.5-71.1,45.2-122.8,33.9-155.1S715.9,639.6,681.9,631.5Z"
     transform="translate(0 0.02)"
     style="fill:#aa0000"
     id="path19" />
  <path
     d="M494.5,1046.8c17.8-1.6,33.9-4.8,48.5-6.5,69.5-9.7,87.3-87.3,88.9-121.2l-85.6-1.6A253,253,0,0,1,494.5,1046.8Z"
     transform="translate(0 0.02)"
     style="fill:#aa0000"
     id="path21" />
  <path
     d="M520.3,903v-1.6c1.6-6.5,4.8-9.7,11.3-11.3h3.2c4.8,0,38.8-1.6,77.6-45.2,69.5-101.8,48.5-166.4,29.1-195.5-12.9-19.4-30.7-35.6-51.7-45.2l-14.5-4.8c-1.6,0-1.6-1.6-3.2-1.6-17.8-4.8-33.9-4.8-51.7-3.2-27.5,3.2-53.3,17.8-71.1,40.4a94.2,94.2,0,0,1,22.6-8.1c21-4.8,43.6-1.6,61.4,9.7s29.1,29.1,32.3,50.1c1.6,3.2,14.5,64.6-16.2,103.4a1.57,1.57,0,0,0-1.6,1.6c-21,22.6-48.5,35.6-79.2,38.8-4.8,1.6-29.1,9.7-35.6,58.2-1.6,19.4-3.2,29.1-3.2,35.6,0,11.3-3.2,22.6-6.5,33.9-8.1,30.7-46.9,46.9-80.8,48.5-24.2,0-148.7-8.1-202-11.3,12.9,19.4,30.7,38.8,50.1,40.4L231,1039c53.3,6.5,143.8,14.5,177.8,17.8H425c1.6-1.6,3.2-1.6,4.8-1.6H433c11.3-1.6,22.6-8.1,30.7-16.2,43.6-37.2,54.9-116.4,56.6-134.1Z"
     transform="translate(0 0.02)"
     style="fill:#d40000"
     id="path23" />
</svg>
