<svg id="Layer_1" data-name="Layer 1" xmlns="http://www.w3.org/2000/svg" xmlns:xlink="http://www.w3.org/1999/xlink" viewBox="0 0 3840 1254"><defs><linearGradient id="Dégradé_sans_nom" x1="85" y1="624.88989" x2="3755.00024" y2="624.88989" gradientTransform="matrix(1, 0, 0, -1, 0, 1251.88983)" gradientUnits="userSpaceOnUse"><stop offset="0" stop-color="#d81526"/><stop offset="0.25" stop-color="#de551e"/><stop offset="0.5" stop-color="#eeb824"/><stop offset="0.75" stop-color="#75b230"/><stop offset="1" stop-color="#49a070"/></linearGradient></defs><path d="M1091.2,1252.6a76.09446,76.09446,0,0,1-76-76V589.4A24.7957,24.7957,0,0,1,1040,564.6h272.80005a24.79578,24.79578,0,0,1,24.80005,24.8v638.4a24.7958,24.7958,0,0,1-24.80005,24.80005H1091.2Z" transform="translate(0 0)" style="fill:#d8d8d8"/><path d="M1938.6,1252.6a76.09445,76.09445,0,0,1-76-76V589.4a24.79569,24.79569,0,0,1,24.8-24.8H2159.3999A24.79578,24.79578,0,0,1,2184.2,589.4v638.4a24.79588,24.79588,0,0,1-24.80005,24.80005H1938.6Z" transform="translate(0 0)" style="fill:#d8d8d8"/><path d="M1229.30005,1252.6A24.7958,24.7958,0,0,1,1204.5,1227.79993V978.4a24.7957,24.7957,0,0,1,24.80005-24.8H1245a237.00949,237.00949,0,0,1-40.5-132.1V801.3c0-130.5,106.1-236.6,236.6-236.6H1954a24.79579,24.79579,0,0,1,24.80005,24.8v249.4a24.86649,24.86649,0,0,1-23.80005,24.8,237.00949,237.00949,0,0,1,40.5,132.1v20.2c0,130.50006-106.1,236.6-236.6,236.6Z" transform="translate(0 0)" style="fill:#d8d8d8"/><path d="M835.4,690.7c-129.4,0-234.6-105.2-234.6-234.6V234.6C600.8,105.2,706,0,835.4,0l391.4.4C1356,.5,1461.1,105.8,1461.1,235V456.1c0,129.4-105.2,234.6-234.6,234.6Zm304.1-301.1V298.9H922.4v90.7h217.1Z" transform="translate(0 0)" style="fill:#d8d8d8"/><path d="M3214.30005,692C3084.90015,692,2979.7,586.8,2979.7,457.4V235.8c0-129.4,105.19995-234.6,234.6001-234.6L3605.7,1.6C3734.8999,1.8,3840,107,3840,236.2V457.3c0,129.4-105.2,234.6-234.6001,234.6H3214.30005ZM3518.3999,390.8V300.1H3301.2998v90.7Z" transform="translate(0 0)" style="fill:#d8d8d8"/><path d="M2285.8999,1254c-129.3999,0-234.6001-105.19995-234.6001-234.6V797.9c0-129.4,105.2-234.6,234.6001-234.6l391.3999.4c129.2.1,234.30005,105.4,234.30005,234.6v221.1c0,129.4-105.2,234.6-234.60009,234.6ZM2590,952.8V862.1H2372.8999v90.7Z" transform="translate(0 0)" style="fill:#d8d8d8"/><path d="M234.6,692C105.2,692,0,586.7,0,457.4V235.8C0,106.5,105.2,1.2,234.6,1.2l433.2.2a76.009,76.009,0,0,1,75.9,76V275.3a24.79569,24.79569,0,0,1-24.8,24.8H321.6v90.7H718.9a24.7957,24.7957,0,0,1,24.8,24.8l48.8,251.6a24.7957,24.7957,0,0,1-24.8,24.8H234.6Z" transform="translate(0 0)" style="fill:#d8d8d8"/><path d="M2613.6001,692C2484.2002,692,2379,586.8,2379,457.4V235.8c0-129.4,105.2-234.6,234.6001-234.6l433.19995.2a76.009,76.009,0,0,1,75.8999,76V275.3a24.79579,24.79579,0,0,1-24.80005,24.8h-397.3v90.7h397.3A24.7958,24.7958,0,0,1,3122.7,415.6v251.6a24.79579,24.79579,0,0,1-24.80005,24.8H2613.6001Z" transform="translate(0 0)" style="fill:#d8d8d8"/><path d="M1552.6,691C1423.2,691,1318,585.8,1318,456.4V26.6a24.79573,24.79573,0,0,1,24.80005-24.8h220.9a76.09447,76.09447,0,0,1,76,76V389.9H1897a24.79581,24.79581,0,0,1,24.80005,24.8v251.6A24.79571,24.79571,0,0,1,1897,691.1H1552.6Z" transform="translate(0 0)" style="fill:#d8d8d8"/><path d="M2013.1,692c-129.4,0-234.6-105.2-234.6-234.6V25.9a24.4213,24.4213,0,0,1,7.30005-17.5,25.01361,25.01361,0,0,1,17.5-7.3l643,.4a76.009,76.009,0,0,1,75.8999,76V275.4a24.79578,24.79578,0,0,1-24.80005,24.8H2486v90.7h11.3999A24.79581,24.79581,0,0,1,2522.2,415.7v251.6a24.79578,24.79578,0,0,1-24.80005,24.8H2013.1Z" transform="translate(0 0)" style="fill:#d8d8d8"/><path d="M3392.30005,1250.80005a76.23451,76.23451,0,0,1-75.1001-76V862.1h-217.1001v365.70007a24.79587,24.79587,0,0,1-24.80005,24.80005H2854.3999a76.09454,76.09454,0,0,1-76-76V588.1A24.79578,24.79578,0,0,1,2803.2,563.3H3070a9.15125,9.15125,0,0,1,1.7.1l332.69995.3c129.2.1,234.30005,105.4,234.30005,234.6v430.29992a24.92358,24.92358,0,0,1-24.7998,24.79993C3613.8999,1253.30005,3392.30005,1250.80005,3392.30005,1250.80005Z" transform="translate(0 0)" style="fill:#d8d8d8"/><path d="M546.2,1252.6a24.81637,24.81637,0,0,1-21.5-12.4L156.1,601.8a24.947,24.947,0,0,1,0-24.8,24.69614,24.69614,0,0,1,21.5-12.4H491.7A24.81651,24.81651,0,0,1,513.2,577L672.6,853.1,832,577a24.69615,24.69615,0,0,1,21.5-12.4h314.1a24.8,24.8,0,0,1,21.5,37.2L820.5,1240.2a24.69628,24.69628,0,0,1-21.5,12.4Z" transform="translate(0 0)" style="fill:#d8d8d8"/><path d="M1040,1176.7V589.4h272.80005v638.4H1091.1001A51.128,51.128,0,0,1,1040,1176.7Z" transform="translate(0 0)"/><path d="M1887.5,1176.7V589.4h272v638.4H1938.6A51.12792,51.12792,0,0,1,1887.5,1176.7Z" transform="translate(0 0)"/><path d="M1229.30005,1227.80005V978.4H1299a211.32883,211.32883,0,0,1-69.69995-156.9V801.3c0-116.8,95-211.8,211.80005-211.8H1954V838.9h-53a211.32887,211.32887,0,0,1,69.69995,156.9v20.2c0,116.8-95,211.8-211.80005,211.8Z" transform="translate(0 0)"/><path d="M835.4,665.9c-115.7,0-209.8-94.1-209.8-209.8V234.6c0-115.7,94.1-209.8,209.8-209.8l391.4.4c115.6.1,209.6,94.2,209.6,209.8V456.1c0,115.7-94.1,209.8-209.8,209.8Z" transform="translate(0 0)"/><path d="M3214.30005,667.2c-115.69995,0-209.8-94.1-209.8-209.8V235.8c0-115.7,94.1001-209.8,209.8-209.8l391.3999.4c115.6001.1,209.6001,94.2,209.6001,209.8V457.3c0,115.7-94.1001,209.8-209.8,209.8h-391.2Z" transform="translate(0 0)"/><path d="M2285.8999,1229.2c-115.69995,0-209.8-94.1-209.8-209.8V797.9c0-115.7,94.1001-209.8,209.8-209.8l391.3999.4c115.6001.1,209.6001,94.2,209.6001,209.8v221.1c0,115.7-94.1001,209.80005-209.8,209.80005h-391.2Z" transform="translate(0 0)"/><path d="M234.6,667.2c-115.9,0-209.8-93.9-209.8-209.8V235.8C24.8,120.2,118.9,26,234.6,26l433.2.2a51.14924,51.14924,0,0,1,51.1,51.2L855.5,667.2Z" transform="translate(0 0)"/><path d="M2613.6001,667.2c-115.8999,0-209.80005-93.9-209.80005-209.8V235.8c0-115.7,94.1001-209.8,209.80005-209.8l433.19995.2a51.14939,51.14939,0,0,1,51.1001,51.2V667.2Z" transform="translate(0 0)"/><path d="M1552.6,666.2c-115.9,0-209.80005-93.9-209.80005-209.8V26.6h220.9a51.17048,51.17048,0,0,1,51.19995,51.2V414.6h282.1v251.6H1552.6Z" transform="translate(0 0)"/><path d="M2013.1,667.2c-115.9,0-209.80005-93.9-209.80005-209.8V25.9l642.99987.4a51.14938,51.14938,0,0,1,51.1001,51.2V275.4H2461.2V415.7h36.19995v251.6H2013.1Z" transform="translate(0 0)"/><path d="M3342,1174.80005V837.3h-266.7v390.50006h-220.8999a51.17049,51.17049,0,0,1-51.19995-51.19995V588.1H3070v.1l334.3999.3c115.80005.1,209.6001,94,209.6001,209.8v430.29992l-221.5-2.5A51.24037,51.24037,0,0,1,3342,1174.80005Z" transform="translate(0 0)"/><polygon points="546.2 1227.8 177.6 589.4 491.7 589.4 672.6 902.7 853.5 589.4 1167.6 589.4 799 1227.8 546.2 1227.8"/><rect x="1364.19995" y="573.09998" width="45.90002" height="45.90002"/><path d="M835.4,605.7h391.1a149.62791,149.62791,0,0,0,149.6-149.6V235A149.58542,149.58542,0,0,0,1226.7,85.4L835.5,85A149.60669,149.60669,0,0,0,685.7,234.6V456.1C685.8,538.7,752.8,605.7,835.4,605.7Zm2-333.8a58.04168,58.04168,0,0,1,58-58h271a58.04168,58.04168,0,0,1,58,58V416.5a58.04168,58.04168,0,0,1-58,58h-271a58.04168,58.04168,0,0,1-58-58ZM3605.6001,86.6,3214.5,86.2a149.60679,149.60679,0,0,0-149.8,149.6V457.3a149.628,149.628,0,0,0,149.6001,149.6h391.1001a149.62794,149.62794,0,0,0,149.60009-149.6V236.2A149.64981,149.64981,0,0,0,3605.6001,86.6Zm-2.2002,331.2a58.04168,58.04168,0,0,1-58,58h-271a58.04168,58.04168,0,0,1-58-58V273.1a58.04168,58.04168,0,0,1,58-58h271a58.04168,58.04168,0,0,1,58,58ZM658.7,475.8h-364a58.04168,58.04168,0,0,1-58-58V273.1a58.04168,58.04168,0,0,1,58-58h364V86.4l-424-.2C152.1,86.2,85,153.2,85,235.8V457.3A149.64928,149.64928,0,0,0,234.6,607H658.7ZM2613.6001,607h424.1001V475.8h-364a58.04168,58.04168,0,0,1-58-58V273.1a58.04168,58.04168,0,0,1,58-58h364V86.4l-424-.2a149.60678,149.60678,0,0,0-149.80005,149.6V457.3C2464,540,2531,607,2613.6001,607ZM1552.6,606h284.1V474.8h-224a58.04168,58.04168,0,0,1-58-58V86.8H1403V456.4A149.56391,149.56391,0,0,0,1552.6,606Zm460.5,1h424.1V475.8H2053.8999a38.83677,38.83677,0,0,1-38.8-38.8h0a38.83677,38.83677,0,0,1,38.8-38.8H2401V294.9H2055a39.9,39.9,0,1,1,0-79.8h382.2V86.4L1863.5,86V457.3A149.58531,149.58531,0,0,0,2013.1,607Zm-912.9,560.6h152.4v-518H1100.2Zm847.5,0h151.6001v-518h-151.6v518ZM1758.9,844.1h-285a32.71241,32.71241,0,0,1-32.69995-32.7h0a32.7124,32.7124,0,0,1,32.69995-32.7h419.9v-129h-452.6a151.63379,151.63379,0,0,0-151.6,151.6v20.2a151.63381,151.63381,0,0,0,151.6,151.6h285a32.7,32.7,0,0,1,0,65.4h-436.6v129h469.3a151.63379,151.63379,0,0,0,151.6-151.6V995.7A151.634,151.634,0,0,0,1758.9,844.1ZM2677.2,648.7l-391.1001-.4A149.60681,149.60681,0,0,0,2136.2998,797.9v221.5A149.62794,149.62794,0,0,0,2285.8999,1169H2677a149.62794,149.62794,0,0,0,149.6001-149.6V798.3C2826.6001,715.7,2759.7,648.7,2677.2,648.7ZM2675,979.8a58.04173,58.04173,0,0,1-58,58.00006H2346a58.04168,58.04168,0,0,1-58-58V835.2a58.04168,58.04168,0,0,1,58-58h271a58.04168,58.04168,0,0,1,58,58Zm729.3999-331.1-391.1001-.4c-1.10009,0-2.3.1-3.3999.2v-.2H2863.5v519.4h151.6001V835.2a58.04168,58.04168,0,0,1,58-58h271a58.04168,58.04168,0,0,1,58,58V1166L3553.7002,1167.7V798.3C3553.80005,715.7,3486.8999,648.7,3404.3999,648.7ZM672.6,1023.1,456.9,649.6H281.8l299.1,518H764.2l299.1-518H888.2Z" transform="translate(0 0)" style="fill:url(#Dégradé_sans_nom)"/></svg>