<svg id="Layer_1" data-name="Layer 1" xmlns="http://www.w3.org/2000/svg" viewBox="0 0 3839.10059 1056.80005"><polygon points="52.4 658.5 52.4 658.5 52.4 1056.7 0 1056.7 0 658.5 52.4 658.5" style="fill:#002684;fill-rule:evenodd"/><polygon points="168.4 658.5 168.4 658.5 168.4 1056.7 116 1056.7 116 658.5 168.4 658.5" style="fill:#12506f;fill-rule:evenodd"/><polygon points="284.4 658.5 284.4 658.5 284.4 1056.7 232.1 1056.7 232.1 658.5 284.4 658.5" style="fill:#24795b;fill-rule:evenodd"/><polygon points="400.4 658.5 400.4 658.5 400.4 1056.7 348.1 1056.7 348.1 658.5 400.4 658.5" style="fill:#36a346;fill-rule:evenodd"/><polygon points="516.5 658.5 516.5 658.5 516.5 1056.7 464.2 1056.7 464.2 658.5 516.5 658.5" style="fill:#48cc31;fill-rule:evenodd"/><polygon points="632.5 658.5 632.5 658.5 632.5 1056.7 580.1 1056.7 580.1 658.5 632.5 658.5" style="fill:#6ad434;fill-rule:evenodd"/><polygon points="748.5 658.5 748.5 658.5 748.5 1056.7 696.2 1056.7 696.2 658.5 748.5 658.5" style="fill:#8bdc37;fill-rule:evenodd"/><polygon points="864.6 658.5 864.6 658.5 864.6 1056.7 812.3 1056.7 812.3 658.5 864.6 658.5" style="fill:#aee53a;fill-rule:evenodd"/><polygon points="980.6 658.5 980.6 658.5 980.6 1056.7 928.3 1056.7 928.3 658.5 980.6 658.5" style="fill:#d0ed3d;fill-rule:evenodd"/><polygon points="1096.6 658.5 1096.6 658.5 1096.6 1056.7 1044.3 1056.7 1044.3 658.5 1096.6 658.5" style="fill:#f2f540;fill-rule:evenodd"/><polygon points="1212.7 658.5 1212.7 658.5 1212.7 1056.7 1160.3 1056.7 1160.3 658.5 1212.7 658.5" style="fill:#f5d630;fill-rule:evenodd"/><polygon points="1328.8 658.5 1328.8 658.5 1328.8 1056.7 1276.4 1056.7 1276.4 658.5 1328.8 658.5" style="fill:#f8b621;fill-rule:evenodd"/><polygon points="1444.7 658.5 1444.7 658.5 1444.7 1056.7 1392.4 1056.7 1392.4 658.5 1444.7 658.5" style="fill:#fa9711;fill-rule:evenodd"/><polygon points="1560.8 658.5 1560.8 658.5 1560.8 1056.7 1508.4 1056.7 1508.4 658.5 1560.8 658.5" style="fill:#fd7801;fill-rule:evenodd"/><polygon points="1676.8 658.5 1676.8 658.5 1676.8 1056.7 1624.4 1056.7 1624.4 658.5 1676.8 658.5" style="fill:#f9500e;fill-rule:evenodd"/><polygon points="1792.9 658.5 1792.9 658.5 1792.9 1056.7 1740.5 1056.7 1740.5 658.5 1792.9 658.5" style="fill:#f6281c;fill-rule:evenodd"/><polygon points="1908.9 658.5 1908.9 658.5 1908.9 1056.7 1856.5 1056.7 1856.5 658.5 1908.9 658.5" style="fill:#f20029;fill-rule:evenodd"/><path d="M881.5,265.1c-3.6-33.6-39.8-32.7-65.3-32.7-13.9,0-42.9.5-54.1,10.1-10.7,9.2-10.7,33.2-10.7,46.1,0,12.4.4,29,9.8,38.3,11.2,11.1,42,12,56.3,12,9.8,0,19.2,0,29.1-1.4,19.7-2.8,31.3-8.8,34.4-30.4h80.5c-.9,24.4-2.2,47.9-19.7,66.4-18.3,19.8-46.5,24-72,25.4-19.2.9-38,1.4-57.2,1.4-34.4,0-83.6.9-113.1-20.3-28.6-20.7-27.3-64.1-27.3-95.9,0-31.3-.4-68.7,25-90.8,27.7-24,85.4-22.1,119.4-22.1s93-1.4,121.2,22.1a55.32969,55.32969,0,0,1,16.5,22.6c6.7,16.1,7.2,31.8,7.6,49.3l-80.4-.1Z" transform="translate(0 0)" style="fill:#fff"/><path d="M1284.6,324.1c-1.80005,21.2-7.2,40.1-23.2,54.4-27.3,24.4-91.6,21.7-125.19995,21.7-34.9,0-96.6,3.2-125.2-21.7-8-6.9-13-14.3-17-24-8.9-22.6-7.6-51.2-7.6-75.1,0-12,0-24.4,1.3-36.4,1.8-20.7,9.4-39.2,25.9-52.1,26.8-21.2,90.8-19.8,122.5-19.8,32.19995,0,95.19995-1.4,122.5,19.8a58.97159,58.97159,0,0,1,17,20.7c11.6,21.2,10.3,48.4,10.3,71.9C1285.9,296.9,1285.5,310.7,1284.6,324.1ZM1197,244.3c-11.6-11.5-45.6-12-60.4-12-14.30005,0-29.1.5-42.9,3.2C1066,241,1065.5,263.2,1065.5,288c0,12-.4,28.1,8,37.3,12.1,13.4,46.9,13.4,63,13.4,15.19995,0,31.30005,0,46-4.1,24.6-6.9,24.1-30,24.1-52.5C1206.80005,269.7,1206.4,253.6,1197,244.3Z" transform="translate(0 0)" style="fill:#fff"/><path d="M1699.80005,394.6V292.7c0-47-4.9-60.4-53.6-60.4-54.5,0-58.6,22.1-58.6,72.4v89.9h-79.1V277.5c0-39.6-16.5-45.2-52.3-45.2-56.30005,0-59.9,20.7-59.9,72.4v89.9h-79.1V176.7H1391.9v32.7h3.6c14.80005-33.6,54.1-38.3,85.80005-38.3,40.19995,0,75.6,6.9,96.1,45.6,16.1-40.6,53.6-45.6,91.6-45.6,30.80005,0,65.30005,3.7,87.6,28.1,7.6,8.3,13.4,17.1,16.5,28.1,6.3,21.2,5.8,43.8,5.8,65.5V394.7l-79.1-.1Z" transform="translate(0 0)" style="fill:#fff"/><path d="M2195.30005,394.6V292.7c0-47-4.8999-60.4-53.6001-60.4-54.5,0-58.6001,22.1-58.6001,72.4v89.9h-79.1V277.5c0-39.6-16.5-45.2-52.30005-45.2-56.30005,0-59.9,20.7-59.9,72.4v89.9h-79.1V176.7h74.69995v32.7h3.6c14.8-33.6,54.1-38.3,85.8-38.3,40.2,0,75.6001,6.9,96.1001,45.6C2089,176.1,2126.5,171.1,2164.5,171.1c30.8,0,65.3,3.7,87.6001,28.1,7.6001,8.3,13.3999,17.1,16.5,28.1,6.3,21.2,5.8,43.8,5.8,65.5V394.7l-79.1001-.1Z" transform="translate(0 0)" style="fill:#fff"/><path d="M2602,324.1c-1.8,21.2-7.2,40.1-23.2,54.4-27.3,24.4-91.6001,21.7-125.19995,21.7-34.8999,0-96.6001,3.2-125.2-21.7-8-6.9-13-14.3-17-24-8.89991-22.6-7.6001-51.2-7.6001-75.1,0-12,0-24.4,1.30005-36.4,1.8-20.7,9.3999-39.2,25.8999-52.1,26.8-21.2,90.8-19.8,122.5-19.8,32.2,0,95.2-1.4,122.5,19.8a58.97019,58.97019,0,0,1,17,20.7c11.6001,21.2,10.3,48.4,10.3,71.9C2603.30005,296.9,2602.8999,310.7,2602,324.1Zm-87.6001-79.8c-11.6001-11.5-45.6001-12-60.3999-12-14.3,0-29.1001.5-42.8999,3.2-27.7,5.5-28.2,27.7-28.2,52.5,0,12-.39991,28.1,8,37.3,12.10009,13.4,46.8999,13.4,63,13.4,15.2,0,31.30005,0,46-4.1,24.60009-6.9,24.10009-30,24.10009-52.5C2524.2,269.7,2523.7,253.6,2514.3999,244.3Z" transform="translate(0 0)" style="fill:#fff"/><path d="M2853.2,394.6V366h-4c-5.3999,9.2-9.3999,15.2-18.30005,20.7-19.69995,12.4-52.8,13.4-75.1001,13.4-32.60009,0-76.8999.5-102.8-23-23.2-21.2-22.80005-63.1-22.80005-92.6,0-34.1.8999-75.6,31.30005-96.8,26.8-18.4,64.3999-16.6,95.19995-16.6,23.2,0,48.7-.5,69.30005,12,10.3,6,13.8999,12,19.69995,22.6h3.10009V87.3h79.1001V394.6H2853.2Zm-8.09985-142c-9.3999-22.1-43.3999-20.3-62.6001-20.3-19.7,0-59.5-2.3-69.3,20.7-3.6001,9.2-4,21.2-4,30.9,0,12.9-.3999,32.7,8.8999,42.9,10.69995,12,45.19995,12,59.5,12,16.1001,0,35.8-.9,51-6,21.5-6.9,21-28.1,21-47.9C2849.6001,274.8,2849.2,262.3,2845.1001,252.6Z" transform="translate(0 0)" style="fill:#fff"/><path d="M3257.2,324.1c-1.80005,21.2-7.2,40.1-23.2,54.4-27.3,24.4-91.6001,21.7-125.2,21.7-34.8999,0-96.6001,3.2-125.19995-21.7-8-6.9-13-14.3-17-24-8.8999-22.6-7.6001-51.2-7.6001-75.1,0-12,0-24.4,1.3-36.4,1.80005-20.7,9.3999-39.2,25.8999-52.1,26.8-21.2,90.8-19.8,122.5-19.8,32.19995,0,95.19995-1.4,122.5,19.8a58.97019,58.97019,0,0,1,17,20.7c11.6001,21.2,10.3,48.4,10.3,71.9C3258.5,296.9,3258.1001,310.7,3257.2,324.1Zm-87.59985-79.8c-11.6001-11.5-45.6001-12-60.3999-12-14.30005,0-29.1001.5-42.89991,3.2-27.7,5.5-28.2,27.7-28.2,52.5,0,12-.3999,28.1,8,37.3,12.1001,13.4,46.8999,13.4,63,13.4,15.2,0,31.3,0,46-4.1,24.6001-6.9,24.1001-30,24.1001-52.5C3179.3999,269.7,3179,253.6,3169.6001,244.3Z" transform="translate(0 0)" style="fill:#fff"/><path d="M3534.7,273.4h-74.2c0-32.3-10.3-41-41.6001-41-48.69995,0-50.1001,31.8-50.1001,71.9v90.3h-79.10009V176.7h74.7v32.7h3.6001c18.3-33.6,47.8-38.3,82.3-38.3,24.6001,0,54.1001,3.2,70.6001,24.4C3535.7,214.4,3535.2,241.6,3535.2,264.6,3535.1001,267.4,3534.7,270.6,3534.7,273.4Z" transform="translate(0 0)" style="fill:#fff"/><path d="M3838.6001,303.3h-206.5c0,12.4-.3999,26.7,9.8,35.5,10.7,8.8,40.7,9.2,53.60009,9.2s49.2.5,57.7-9.2c3.60009-3.7,4.5-8.8,5.3999-13.8h78.69995c-1.8,20.7-5.8,36.9-21,51.2-27.3,25.4-92.5,24-127,24-31.3,0-83.6001.5-109.5-20.3a64.88111,64.88111,0,0,1-17.8999-23c-9.8-21.2-8.89991-47.5-8.89991-70.1,0-13.8,0-27.7,1.30005-41,2.19995-22.1,9.39991-41.9,27.3-55.3,27.7-20.7,83.2-19.4,115.8-19.4,30,0,62.6001-.9,91.6001,7.8,46.8999,14.3,50.1001,58.5,50.1001,102.3C3839,288.6,3839,296,3838.6001,303.3Zm-79.2002-49.7c0-8.3-.3999-14.7-6.3-21.2-9.3999-10.6-41.60009-10.6-54.5-10.6-12.10009,0-24.10009,0-35.80005,1.8-22.3999,3.2-30.3999,12-30.8,35h127.3999l.00024-5Z" transform="translate(0 0)" style="fill:#fff"/><path d="M2303.6001,898.2c-2.2,20.3-8,40.1-23.7,53.5-22.8,19.8-72,19.8-100.1001,19.8-34.3999,0-70.19995.5-89.8999-33.6h-3.6001v118.9h-79.1V748h74.70008v29.5h4c18.30005-36.4,62.10009-35,97-35,41.60009,0,99.2,0,115.80005,48.4,6.69995,19.8,6.69995,46.6,6.69995,67.3A382.46736,382.46736,0,0,1,2303.6001,898.2ZM2219.2,818c-11.2-14.7-44.30005-14.3-60.3999-14.3-19.69995,0-58.6001-2.8-68,20.3-4.5,10.1-4.5,24.4-4.5,35.5,0,12,.3999,25.4,7.2,35.5,10.3,15.2,47.3999,15.2,63,15.2,15.2,0,32.6001-.5,47.3999-4.6,24.1001-6.9,22.3999-31.3,22.3999-53C2226.30005,840.6,2226.80005,828.2,2219.2,818Z" transform="translate(0 0)" style="fill:#fff"/><path d="M2348.30005,965.9V658.6h79.1001V965.9l-79.1001.00006Z" transform="translate(0 0)" style="fill:#fff"/><path d="M2685.30005,965.9V933.2h-4c-16.5,36.4-56.8,38.3-90.8,38.3-42.5,0-93-6-110-53-8-22.6-7.2-47-7.2-71V748H2552v99.6c0,53.5,9.8,62.7,62.1001,62.7,60.8,0,66.6001-16.1,66.6001-74.7V748h78.69995V965.9Z" transform="translate(0 0)" style="fill:#fff"/><path d="M3076.80005,947.6c-24.6001,25.4-101.8999,24-133.69995,24-34.3999,0-95.2,2.8-122.8999-22.6-15.2-13.8-18.30005-32.3-18.80005-52.5h80.5c1.80005,19.8,21.5,22.1,36.7,23.5,9.8.9,19.69995.9,29.5.9,13.8999,0,51.3999.9,62.1001-9.2a14.70541,14.70541,0,0,0,4.5-11.1c0-18-24.6001-17.1-36.7-17.1-14.8,0-29.5-.5-44.3-.5h-45.6001c-47.3999,0-84.8999-11.5-84.8999-67.8,0-34.6,13.3999-57.6,46.8999-65.9,30.8-7.4,67.5-6.9,98.8-6.9,33.10009,0,90.80005-2.3,116.7,19.8,13.8999,12,15.6001,30,17,47.5h-80.5c-.8999-4.6-1.80005-7.8-5.80005-10.6-8.5-6-40.19995-6-50.1001-6-13,0-47.80005-.5-59,7.4-3.1001,2.8-4.8999,6-4.8999,10.1,0,12,9.3999,13.8,18.80005,14.7,20.1001,1.8,43.3999,1.4,63.5,1.4l44.3.5c49.60009.5,84.5,10.1,84.5,68.2C3093.30005,913.9,3090.2,933.7,3076.80005,947.6Z" transform="translate(0 0)" style="fill:#fff"/><path d="M3144.7,1032.30005H3087.8999l246.2-440.1h57.19995Z" transform="translate(0 0)" style="fill:#fff"/><path d="M129.6,284.3c0-83.1,65.6-150.8,146.2-150.8a141.911,141.911,0,0,1,71.3,19.2V9.7A267.511,267.511,0,0,0,275.7,0C123.5,0,0,127.3,0,284.3S123.5,568.6,275.7,568.6a266.21831,266.21831,0,0,0,71.3-9.7v-143a141.91087,141.91087,0,0,1-71.3,19.2C195.1,435.1,129.6,367.4,129.6,284.3Z" transform="translate(0 0)" style="fill:#fff"/><polygon points="347 273.9 477.1 273.9 587.3 160.3 347 160.3 347 273.9" style="fill:#fff"/><polygon points="347 294.7 347 408.4 587.3 408.4 477.1 294.7 347 294.7" style="fill:#fff"/><path d="M3764.30005,982.7V1056.7H3652.6001v-74H3344.80005V830.6L3574,658.8h190.3999V893.2h74.7v89.5h-74.7998ZM3652.6001,751.3H3629L3449.6001,877.8v15.5h203.1001l-.1001-142Z" transform="translate(0 0)" style="fill:#fff"/></svg>