<svg id="Layer_1" data-name="Layer 1" xmlns="http://www.w3.org/2000/svg" xmlns:xlink="http://www.w3.org/1999/xlink" viewBox="0 0 3839 1559"><defs><linearGradient id="Dégradé_sans_nom" x1="1919.6" y1="1557.89" x2="1919.6" y2="-1.11" gradientTransform="matrix(1, 0, 0, -1, 0, 1557.89)" gradientUnits="userSpaceOnUse"><stop offset="0" stop-color="#007cff"/><stop offset="1" stop-color="#005"/></linearGradient><linearGradient id="Dégradé_sans_nom_2" x1="396.05" y1="4134.36" x2="396.05" y2="4443.16" gradientTransform="translate(1523.5 -3118.66)" xlink:href="#Dégradé_sans_nom"/><linearGradient id="Dégradé_sans_nom_3" x1="1919.55" y1="583.79" x2="1919.55" y2="1301.89" gradientTransform="matrix(1, 0, 0, -1, 0, 1557.89)" gradientUnits="userSpaceOnUse"><stop offset="0.17" stop-color="#005"/><stop offset="0.9" stop-color="#007cff"/></linearGradient><linearGradient id="Dégradé_sans_nom_4" x1="3443.38" y1="609.44" x2="3329.92" y2="1252.91" gradientTransform="matrix(1, 0, 0, -1, 0, 1557.89)" gradientUnits="userSpaceOnUse"><stop offset="0" stop-color="#ff9d01"/><stop offset="0.15" stop-color="#ffa402"/><stop offset="0.37" stop-color="#ffb805"/><stop offset="0.63" stop-color="#ffd80a"/><stop offset="0.78" stop-color="#ffee0d"/><stop offset="1" stop-color="#ffd70b"/></linearGradient><linearGradient id="Dégradé_sans_nom_5" x1="3413.3" y1="665.09" x2="3413.3" y2="1219.59" gradientTransform="matrix(1, 0, 0, -1, 0, 1557.89)" gradientUnits="userSpaceOnUse"><stop offset="0" stop-color="#ffcf00"/><stop offset="1" stop-color="#ffff36"/></linearGradient><linearGradient id="Dégradé_sans_nom_6" x1="993.14" y1="615.59" x2="887.14" y2="1216.74" xlink:href="#Dégradé_sans_nom_4"/><linearGradient id="Dégradé_sans_nom_7" x1="980.8" y1="665.29" x2="980.8" y2="1219.59" xlink:href="#Dégradé_sans_nom_5"/><linearGradient id="Dégradé_sans_nom_8" x1="1611.75" y1="678.7" x2="1511.14" y2="1249.29" xlink:href="#Dégradé_sans_nom_4"/><linearGradient id="Dégradé_sans_nom_9" x1="1577.15" y1="665.59" x2="1577.15" y2="1219.59" xlink:href="#Dégradé_sans_nom_5"/><linearGradient id="Dégradé_sans_nom_10" x1="2794.31" y1="653.03" x2="2692.01" y2="1233.19" xlink:href="#Dégradé_sans_nom_4"/><linearGradient id="Dégradé_sans_nom_11" x1="2742.6" y1="649.49" x2="2742.6" y2="1236.39" xlink:href="#Dégradé_sans_nom_5"/><linearGradient id="Dégradé_sans_nom_12" x1="414.73" y1="636.97" x2="310.78" y2="1226.51" xlink:href="#Dégradé_sans_nom_4"/><linearGradient id="Dégradé_sans_nom_13" x1="345.2" y1="667.09" x2="345.2" y2="1234.59" xlink:href="#Dégradé_sans_nom_5"/><linearGradient id="Dégradé_sans_nom_14" x1="2207.43" y1="635.97" x2="2103.48" y2="1225.51" xlink:href="#Dégradé_sans_nom_4"/><linearGradient id="Dégradé_sans_nom_15" x1="2137.9" y1="666.09" x2="2137.9" y2="1233.59" xlink:href="#Dégradé_sans_nom_5"/></defs><path d="M2561.9,170.2q14.4-28.5,56.1-46.1,26.4-10.95,78-22.5,51-11.4,88.2-15.8V0H1055V85.8c24.7,2.9,54.2,8.2,88.2,15.8q51.6,11.55,78,22.5,41.7,17.55,56.1,46.1c9.5,19.1,14.3,41,14.3,65.9l.8,1105.2c0,27.9-4.9,50.7-14.8,68.7s-28.4,32.4-55.5,43.4c-14.7,5.9-41.2,10.3-79.7,13.2s-67.6,5.2-87.4,6.7V1559H2784.2v-85.7q-29.7-2.25-87.4-6.7c-38.5-2.9-65-7.3-79.7-13.2-27.1-11-45.6-25.4-55.5-43.4s-14.8-40.8-14.8-68.7l.8-1105.2C2547.6,211.2,2552.4,189.3,2561.9,170.2ZM2142.1,1409.9c-9.9,18-28.4,32.4-55.5,43.4-14.7,5.9-41.2,10.3-79.7,13.2-.4,0-.8.1-1.2.1a1103.77,1103.77,0,0,1-172.5,0c-.4,0-.8-.1-1.2-.1-38.5-2.9-65-7.3-79.7-13.2-27.1-11-45.6-25.4-55.5-43.4s-14.8-40.8-14.8-68.7l.8-1105.2c0-24.9,4.8-46.8,14.3-65.9s28.3-34.4,56.1-46.1q26.4-10.95,78-22.5a3.55,3.55,0,0,1,1-.2,400.38,400.38,0,0,1,174.3,0,3.55,3.55,0,0,0,1,.2q51.6,11.55,78,22.5,41.7,17.55,56.1,46.1c9.5,19.1,14.3,41,14.3,65.9l.8,1105.2C2156.9,1369.1,2152,1391.9,2142.1,1409.9Z" transform="translate(0 0)" style="fill:url(#Dégradé_sans_nom)"/><path id="rect4789" d="M464.1,1015.7H3375a154.37,154.37,0,0,1,154.4,154.4h0A154.37,154.37,0,0,1,3375,1324.5H464.1a154.37,154.37,0,0,1-154.4-154.4h0A154.43,154.43,0,0,1,464.1,1015.7Z" transform="translate(0 0)" style="fill-rule:evenodd;fill:url(#Dégradé_sans_nom_2)"/><path d="M916.7,1099.7H977c35.5,0,58.4,18.3,58.4,49.4v.4c0,33.1-25.5,50.6-60.5,50.6H955.6v40.2h-39V1099.7Zm57.4,69.9c13.9,0,22.3-7.2,22.3-18.3v-.4c0-12-8.4-18.5-22.5-18.5H955.6v37.2Z" transform="translate(0 0)" style="fill:#fff"/><path d="M1112.2,1099.7h39v106.5h68.1v34.1H1112.2Z" transform="translate(0 0)" style="fill:#fff"/><path d="M1344.7,1098.7h37.6l59.9,141.6h-41.8l-10.2-25.1H1336l-10,25.1h-41Zm34.1,86.2-15.7-40-15.9,40Z" transform="translate(0 0)" style="fill:#fff"/><path d="M1534.5,1187.7l-53.4-88h44.4l28.9,51.2,29.1-51.2h43.6l-53.4,87.4v53.2h-39.2Z" transform="translate(0 0)" style="fill:#fff"/><path d="M1804.6,1219.4l21.7-25.9c13.9,11,29.3,16.9,45.6,16.9,10.4,0,16.1-3.6,16.1-9.6v-.4c0-5.8-4.6-9-23.7-13.5-29.9-6.8-53-15.3-53-44.2v-.4c0-26.1,20.7-45,54.4-45,23.9,0,42.6,6.4,57.8,18.7l-19.5,27.5c-12.9-9-26.9-13.9-39.4-13.9-9.4,0-14.1,4-14.1,9v.4c0,6.4,4.8,9.2,24.3,13.7,32.3,7,52.4,17.5,52.4,43.8v.4c0,28.7-22.7,45.8-56.8,45.8C1845.6,1242.7,1821.9,1234.9,1804.6,1219.4Z" transform="translate(0 0)" style="fill:#fff"/><path d="M2040.9,1187.7l-53.4-88h44.4l28.9,51.2,29.1-51.2h43.6l-53.4,87.4v53.2h-39.2v-52.6Z" transform="translate(0 0)" style="fill:#fff"/><path d="M2188.2,1219.4l21.7-25.9c13.9,11,29.3,16.9,45.6,16.9,10.4,0,16.1-3.6,16.1-9.6v-.4c0-5.8-4.6-9-23.7-13.5-29.9-6.8-53-15.3-53-44.2v-.4c0-26.1,20.7-45,54.4-45,23.9,0,42.6,6.4,57.8,18.7l-19.5,27.5c-12.9-9-26.9-13.9-39.4-13.9-9.4,0-14.1,4-14.1,9v.4c0,6.4,4.8,9.2,24.3,13.7,32.3,7,52.4,17.5,52.4,43.8v.4c0,28.7-22.7,45.8-56.8,45.8C2229.2,1242.7,2205.5,1234.9,2188.2,1219.4Z" transform="translate(0 0)" style="fill:#fff"/><path d="M2420.3,1133.9h-42.2v-34.1h123.3v34.1h-42.2v106.5h-39l.1-106.5Z" transform="translate(0 0)" style="fill:#fff"/><path d="M2578.8,1099.7h113.1v33.1h-74.5v21.3h67.5v30.7h-67.5v22.3h75.5v33.1H2578.8Z" transform="translate(0 0)" style="fill:#fff"/><path d="M2773,1099.7h41.2l33.5,54.4,33.5-54.4h41.2v140.6h-38.8v-80.7l-36,55h-.8L2811,1160v80.3h-38.2V1099.7Z" transform="translate(0 0)" style="fill:#fff"/><path d="M1511.9,421.7V658S1671,591.7,1671,498.2c.1-115.7-159.1-76.5-159.1-76.5" transform="translate(0 0)" style="fill:#231f20"/><path d="M2742.6,409.7c-69.4,0-162.5,40.8-162.5,204s82.9,204,162.5,204,164.2-51,164.2-204-94.8-204-164.2-204" transform="translate(0 0)" style="fill:#231f20"/><polyline points="899.1 615.4 1010.8 615.4 953.3 453.9 899.1 615.4" style="fill:#231f20"/><path d="M585.9,890.9h-176c-210,0-326.8-164.9-326.8-284,0-182.4,158-283.7,301.3-283.7C523.2,323.2,607,429.7,607,429.7L511.3,530.4s-5.1,2.6-9.3,2.6-10.2-4.3-10.2-4.3l-11.9-10.2a4.49,4.49,0,0,1-3.4-4.3c0-3.4,9.3-11.9,9.3-28s-3.4-83.3-106.6-83.3-149,96.9-149,176.8,49.1,226.1,209.9,226.1c93.6,0,113.4-52.7,113.4-52.7h32.2V890.9Zm689,1.6H1062.5V851.7s13.5,1.7,20.3-10.2,6.8-21.3,1.7-33.2S1043.9,702,1043.9,702H870.3s-35.6,95.2-38.9,103.7-3.4,22.1,0,30.6c5.6,14.1,25.4,16.2,25.4,16.2v39.9H686.7V852.5s15.4-5.3,27-17a71.21,71.21,0,0,0,16.9-26.3L903.3,338.4h144.8l176,462.3c5.1,12.8,13.6,24.7,22.1,34.9s28.7,17,28.7,17ZM1677.8,675c-72.3,33.4-167.5,59.5-167.5,59.5v88.4s.8,6,9.3,16.2,17.8,12.7,17.8,12.7v40.8H1341V852.7s11.9-2.6,20.3-11a38.12,38.12,0,0,0,10.2-18.7V423.4s.8-17-6-23.8-22.8-16.1-22.8-16.1V338.4h270.8c99.9,0,199.8,35.7,199.8,151.3S1740.4,646.1,1677.8,675Zm494.3-271c-103.2,0-149,96.9-149,176.8s49.1,226.1,209.9,226.1c93.6,0,113.4-52.7,113.4-52.7h32.2V891.9H2202.5c-209.9,0-326.7-164.9-326.7-283.8,0-182.5,158-283.7,301.3-283.7,138.8,0,222.6,106.5,222.6,106.5l-95.6,100.7s-5.1,2.5-9.3,2.5-10.2-4.2-10.2-4.2l-11.9-10.2s-3.4-.9-3.4-4.3,9.3-11.9,9.3-28C2278.8,471.1,2275.4,404,2172.1,404Zm570.5,504.4c-182.8,0-314.3-134.1-314.3-297.2s134.8-289.6,314.3-289.6,314.2,126.5,314.2,289.6S2925.4,908.4,2742.6,908.4Zm1016.5-15.6H3556.8V856s17.8-2.6,23.7-11,8.5-13.6,6.8-27.2-49.9-323-49.9-323l-88.1,273.6H3342.7l-87.2-256.6-44,302.5s-1.7,18.2,5.1,28.1c9.3,13.6,26.2,13.6,26.2,13.6v36.5H3067.6V853.4a43.19,43.19,0,0,0,24.1-14c10.2-11.9,11.9-27.2,11.9-27.2l63.9-399.1s3.8-14.9-.4-21.7c-4.5-7.2-28.4-13.2-28.4-13.2V338.6h201.5L3413,564.3l77.8-226.1h210.8v33.2s-14.1,5.9-20.3,13.6c-7.6,9.3-7.6,16.1-6,29.7s55.9,382.4,57.6,396.1,3.4,21.3,6.8,30.6,19.5,16.9,19.5,16.9v34.5Z" transform="translate(0 0)" style="fill:#231f20"/><path d="M1511.9,421.7V658S1671,591.7,1671,498.2c.1-115.7-159.1-76.5-159.1-76.5" transform="translate(0 0)" style="fill:#fff"/><path d="M2742.6,409.7c-69.4,0-162.5,40.8-162.5,204s82.9,204,162.5,204,164.2-51,164.2-204-94.8-204-164.2-204" transform="translate(0 0)" style="fill:#fff"/><polyline points="899.1 615.4 1010.8 615.4 953.3 453.9 899.1 615.4" style="fill:#fff"/><path d="M2745.1,995.6c-132.8,0-234.3-66-285.8-108.4v91.4H2221.1c-200.4,0-360.4-110.2-416.5-283.5-41.8,30.4-116.9,73.9-201.2,96.1a59.58,59.58,0,0,0,6.8,1.5l17.8,3.1.1,182.7H418.3C183.8,978.6,0,818.3,0,613.8,0,395.5,163.1,237,387.8,237c228.9,0,320,172.6,323.8,180l6.9,13.5L516.1,645.3l-155.3-107,19-18.2c5.7-6.3,9-11.7,10.5-16.3a12.63,12.63,0,0,0-16.1-16.1,94.37,94.37,0,0,0-10.5,4.5c-22.5,11.7-48.2,42.3-46.4,90.1,3.7,95.6,62,139.1,114.6,139.1,46.4,0,59.6-33.7,60.9-37.5l5-14.4,15.3-.2H678.8v24l166.5-441h261.5L1284.1,712c.2-94.3.6-242.7.6-248.7a44.48,44.48,0,0,0-.3-5.7,12.21,12.21,0,0,0-5.4-8.8,44,44,0,0,0-10.1-4.8l-15.4-4.5-.2-16.1V252.3h346.5c153.9,0,212.4,36.6,263.3,117.9,76-89.5,173.5-134.9,290.2-134.9,126.9,0,226.4,42,289.7,121.7,75.5-77.2,190.1-122.5,312.1-122.5,118.2,0,223.9,46.5,294.2,127.1V252.3h349.3l15.4,39.2,11.5-39.2h360.9V433.4l-12.1,5.9c-17.2,8.3-18.3,11.8-16.1,25.8L3803.4,754c1.3,6.5,3.3,11,6.4,13.7,1.4,1.2,4.3,1.5,5.5,1.4l23-1.6.7,23V978.6H3471.1V852.8H3327.8V978.9H2979.3V918.4C2933.4,949.3,2847.6,995.6,2745.1,995.6ZM2416.5,782.7l37.3,41c1.2,1.3,119.3,128.9,291.3,128.9,133.7,0,240.4-92.3,241.4-93.2l35.6-31.3V936h262.7V809.8H3514V935.6h282.1v-127a48.24,48.24,0,0,1-14.9-9c-13.5-12.1-17.9-27.6-20-38.2l-45.3-289.8c-5.5-35,9.2-52.9,27.7-64.5v-112H3457.8l-37.7,129-50.6-129H3092.4V509l-40.1-69.8c-58.1-101.3-169.2-161.7-297.1-161.7-119.8,0-231.1,47.6-297.5,127.4l-18.5,22.2-15.9-24.2c-53.5-81.5-146.9-124.6-269.9-124.6-114.4,0-204.6,46.7-275.6,142.6l-19.9,26.8-16.2-29.2c-42.3-76.4-76.6-123.3-241.9-123.3H1296.2V409.1a66.09,66.09,0,0,1,19.3,15.1c8,9.2,11.9,22,11.9,39,0,8.8-.8,325.6-.8,325.6l-.1,34.7-31-15.6c-18.2-9.2-32.5-34-36.4-41.4l-1.1-2.3-180.9-469H875L677.5,818.5,636,810.9V712.2H526.6c-11.4,19.8-38.6,52.1-94.7,52.1-72.5,0-152.7-56.4-157.5-180.4C271.8,516,310.3,471.5,344,454.1c25.2-13,50.2-13.1,67.1-.2,18.2,13.9,22.7,30.1,23.3,41.2.8,13.5-3.8,25.8-9.2,35.4l85,58.5L666,423.8c-24.4-37.6-108.2-143.9-278-143.9-203.1,0-344.9,137.3-344.9,333.8,0,180.5,164.9,321.9,375.4,321.9H1585.4v-105c-20.6-7-38.1-20.3-38.1-40.9,0-13.4,5.3-30.6,30.3-36.2,108.2-24.4,202.3-89.9,224.3-111l27-25.9,8.7,36.4c41.8,174.4,188.8,282.7,383.8,282.7h195.3v-153Z" transform="translate(0 0)" style="fill:#fff"/><path d="M692.6,426.8,513.1,617.2,394.6,535.6s38.9-37.4,3.4-64.6c-27.8-21.2-105.5,23.8-102.2,112.2,3.9,101.9,66.7,159.7,136.1,159.7,64.3,0,81.2-52.1,81.2-52.1H657.4V810.9L860.2,273.7h231.9l186.2,482.7s13.5,25.5,27.1,32.3c0,0,.8-316.7.8-325.6s-1.2-18.7-6.7-25c-9.1-10.5-24.5-14.9-24.5-14.9V273.8h325c168.5,0,211.8,45.9,260.7,134.3,67.5-91.2,160.4-151.3,292.9-151.3,136.4,0,232.8,50.4,287.8,134.3,76.9-92.3,200.8-135.1,314-135.1,139.2,0,255.6,67.7,315.7,172.5V273.8h313.2l33,84.1,24.6-84.1h323.3V420c-22.9,11.1-32.1,22.3-28,48.5l45.2,288.9c1.9,9.4,5.2,19.2,13.2,26.4,9.4,8.4,22,6.8,22,6.8V957.2h-325V831.3H3306.4V957.4H3000.8V875.5s-111.7,98.6-255.6,98.6c-184.2,0-307.2-136-307.2-136v119H2221.3c-192.8,0-358.4-106-404.6-299.1-21.9,21-118.5,90.3-234.5,116.4-9,2-13.5,5.5-13.5,15.3,0,17.9,38.1,24.3,38.1,24.3V957.2H418.4c-220.1,0-396.9-151.3-396.9-343.3S159.4,258.6,387.9,258.6c218.3-.1,304.7,168.2,304.7,168.2" transform="translate(0 0)" style="fill:url(#Dégradé_sans_nom_3)"/><path d="M3739.8,841.5c-3.4-9.3-5.1-17-6.8-30.6s-55.8-382.4-57.5-396-1.7-20.4,5.9-29.8c6.3-7.7,20.3-13.6,20.3-13.6V338.3H3490.9L3413,564.4l-72.8-225.7H3138.7v39.6s23.9,6.1,28.4,13.2c4.3,6.8.4,21.7.4,21.7l-63.9,399s-1.7,15.3-11.9,27.2a43.5,43.5,0,0,1-24.1,14v39.1h175.2V856s-16.9,0-26.2-13.7c-6.8-9.9-5.1-28-5.1-28l44-302.6,87.2,256.7h106.6l88-273.7s48.2,309.4,49.9,323-.8,18.7-6.8,27.2-23.7,11.1-23.7,11.1v36.8H3759V858.5C3759.2,858.5,3743.1,850.9,3739.8,841.5Z" transform="translate(0 0)" style="fill:url(#Dégradé_sans_nom_4)"/><path d="M3688.6,351.3v12.1c-5.6,3.1-12.7,7.7-17.4,13.5-11,13.5-10.5,24.9-8.7,39.6.9,7,14.6,100.8,29.1,200.2,13.6,93,27.6,189.2,28.4,195.8,1.8,14.3,3.7,23.1,7.5,33.5,2.3,6.5,7.6,12.6,15.8,18.3,1,.7,2,1.3,2.9,1.9v13.7H3569.9V866.4c7.3-2.4,16.2-6.6,21.3-13.9,7.8-11.1,11.1-19.4,9-36.2-1.7-13.6-48-310.7-50-323.4l-8.4-54.2L3525,490.9l-85.1,264.7h-87.8l-84.2-247.9-17.4-51.2-7.8,53.5-44,302.6v.6c-.4,3.8-1.7,23.5,7.3,36.5a43.87,43.87,0,0,0,24,17.2v12.6H3080.8V863a55.79,55.79,0,0,0,21-15.1c11.8-13.9,14.4-30.6,14.8-33.8l63.8-398.2c1.3-5.4,4.3-20.9-2.2-31.2-3.6-5.7-10.5-10.2-22.4-14.6-1.4-.5-2.7-1-4-1.4V351.8h179l69.9,216.7,12,37.1,12.7-36.9,74.8-217.3h188.4m13-13.1H3490.8L3413,564.4l-72.8-225.7H3138.7v39.6s23.9,6.1,28.4,13.2c4.3,6.8.4,21.7.4,21.7l-63.9,399s-1.7,15.3-11.9,27.2a43.5,43.5,0,0,1-24.1,14v39.1h175.2V856s-16.9,0-26.2-13.7c-6.8-9.9-5.1-28-5.1-28l44-302.6,87.2,256.7h106.6l88-273.7s48.2,309.4,49.9,323-.8,18.7-6.8,27.2-23.7,11.1-23.7,11.1v36.8H3759V858.5s-16.1-7.6-19.4-17-5.1-17-6.8-30.6-55.8-382.4-57.5-396-1.7-20.4,5.9-29.8c6.3-7.7,20.3-13.6,20.3-13.6V338.3Z" transform="translate(0 0)" style="fill:url(#Dégradé_sans_nom_5)"/><path d="M1246.2,835.6c-8.5-10.2-16.9-22.1-22-34.9L1048.1,338.3H903.3L730.7,809.2a73.13,73.13,0,0,1-17,26.4c-11.6,11.7-27,17-27,17v39.9H856.8V852.6s-19.8-2-25.4-16.2c-3.4-8.5-3.4-22.1,0-30.6s39-103.7,39-103.7h173.5s35.6,94.3,40.6,106.3,5.1,21.3-1.7,33.2-20.3,10.2-20.3,10.2v40.8H1275V852.7C1274.9,852.6,1254.6,845.7,1246.2,835.6ZM899.1,615.4l54.2-161.5,57.5,161.5Z" transform="translate(0 0)" style="fill:url(#Dégradé_sans_nom_6)"/><path d="M1039.1,351.3l172.9,454v.2c4.8,12,12.7,24.6,24.1,38.3,6.7,8,17.9,14,25.8,17.5v18.1H1075.4V863a32.4,32.4,0,0,0,18.6-15.1c8.6-15.1,9.3-28.4,2.3-44.7-3.9-9.2-28.2-73.2-40.4-105.7l-3.2-8.4H861.3l-3.2,8.5c-.4,1-35.5,95.2-38.8,103.4-4.6,11.5-4.6,28.8,0,40.2,5,12.5,15.9,18.6,24.5,21.6v16.7H699.7V861.1A89.64,89.64,0,0,0,723,844.8a86.52,86.52,0,0,0,20.1-31.3L912.5,351.4h126.6M881,628.4h148.2L1023,611,965.5,449.5l-12.6-35.4-12,35.6L886.7,611.2,881,628.4m167.1-290.1H903.3L730.7,809.2a73.13,73.13,0,0,1-17,26.4c-11.6,11.7-27,17-27,17v39.9H856.8V852.6s-19.8-2-25.4-16.2c-3.4-8.5-3.4-22.1,0-30.6s39-103.7,39-103.7h173.5s35.6,94.3,40.6,106.3,5.1,21.3-1.7,33.2c-5.2,9.2-14.5,10.3-18.5,10.3a14.88,14.88,0,0,1-1.9-.1v40.8h212.5V852.7s-20.4-6.8-28.8-17-16.9-22.1-22-34.9l-176-462.5Zm-149,277.1,54.2-161.5,57.5,161.5Z" transform="translate(0 0)" style="fill:url(#Dégradé_sans_nom_7)"/><path d="M1613.5,338.3H1342.7v45.1s16.1,9.3,22.8,16.1,6,23.8,6,23.8V822.7a38.12,38.12,0,0,1-10.2,18.7c-8.5,8.5-20.3,11-20.3,11v39.9h196.4V851.5s-9.3-2.5-17.8-12.7-9.3-16.2-9.3-16.2V734.3s95.3-26.2,167.6-59.5c62.7-28.9,135.4-69.7,135.4-185.2S1713.4,338.3,1613.5,338.3ZM1511.9,657.9V421.7S1671,382.6,1671,498.2C1671.1,591.7,1511.9,657.9,1511.9,657.9Z" transform="translate(0 0)" style="fill:url(#Dégradé_sans_nom_8)"/><path d="M1613.5,351.3c53.6,0,98.7,10.5,130.5,30.3,17.7,11.1,31.5,25.2,40.8,41.9,10.3,18.5,15.5,40.7,15.5,66.1,0,105.6-63.2,143.6-127.9,173.4-70.5,32.5-164.7,58.6-165.6,58.8l-9.6,2.6v99.1l.1.9c.3,2.3,2.1,10.6,12.2,22.7a54.28,54.28,0,0,0,14.8,12.7v19.5H1353.9V861.6a53.77,53.77,0,0,0,16.5-11.1,51.41,51.41,0,0,0,13.8-25.8l.2-1.1v-400a91.78,91.78,0,0,0-.5-11.2c-1.2-9.7-4.3-17.1-9.2-22h0c-4.9-4.9-13.2-10.5-19-14.2V351.4h257.8m-114.6,326,18-7.5a473,473,0,0,0,82.1-46.2c56.4-40.1,85-82.3,85-125.6,0-61.8-40.9-95.9-115.3-95.9a284.41,284.41,0,0,0-59.9,6.7l-9.9,2.4V677.4m114.6-339.1H1342.7v45.1s16.1,9.3,22.8,16.1,6,23.8,6,23.8V822.7a38.12,38.12,0,0,1-10.2,18.7c-8.5,8.5-20.3,11-20.3,11v39.9h196.4V851.5s-9.3-2.5-17.8-12.7-9.3-16.2-9.3-16.2V734.3s95.3-26.2,167.6-59.5c62.7-28.9,135.4-69.7,135.4-185.2s-99.9-151.3-199.8-151.3ZM1511.9,657.9V421.7a264.58,264.58,0,0,1,56.8-6.4c45.7,0,102.3,13.9,102.3,82.9.1,93.5-159.1,159.7-159.1,159.7Z" transform="translate(0 0)" style="fill:url(#Dégradé_sans_nom_9)"/><path d="M2742.6,321.5c-179.5,0-314.3,126.5-314.3,289.7s131.4,297.2,314.3,297.2,314.3-134.1,314.3-297.2S2922.1,321.5,2742.6,321.5Zm0,496.3c-79.6,0-162.5-40.8-162.5-204s93.1-204,162.5-204,164.2,51,164.2,204S2822.2,817.8,2742.6,817.8Z" transform="translate(0 0)" style="fill:url(#Dégradé_sans_nom_10)"/><path d="M2742.6,334.5c83.2,0,159.8,28.5,215.6,80.2,55.3,51.2,85.7,121,85.7,196.5,0,76.5-30,147.7-84.6,200.5a290.23,290.23,0,0,1-95.2,61.2c-37.7,15-78.5,22.6-121.4,22.6s-83.7-7.6-121.4-22.6a289.19,289.19,0,0,1-95.2-61.2c-54.6-52.8-84.6-124-84.6-200.5,0-75.5,30.4-145.3,85.7-196.5,55.6-51.7,132.2-80.2,215.4-80.2m0,496.3c85.7,0,177.2-57,177.2-217,0-171.3-111.4-217-177.2-217-41.2,0-175.5,15.6-175.5,217,0,188.8,110,217,175.5,217m0-509.3c-179.5,0-314.3,126.5-314.3,289.7s131.4,297.2,314.3,297.2,314.3-134.1,314.3-297.2-134.8-289.7-314.3-289.7Zm0,496.3c-79.6,0-162.5-40.8-162.5-204s93.1-204,162.5-204,164.2,51,164.2,204-84.6,204-164.2,204Z" transform="translate(0 0)" style="fill:url(#Dégradé_sans_nom_11)"/><path d="M477.9,517.2,494,530.4a13.66,13.66,0,0,0,18.7-1.2l94.5-99.5S523.4,323.2,384.6,323.2c-143.3,0-301.3,101.2-301.3,283.7,0,119,116.8,283.8,326.7,283.8H586.1V753.1H553.9s-19.8,52.7-113.4,52.7c-160.8,0-209.9-146.2-209.9-226.1s45.7-176.8,149-176.8S486.2,470,486.2,486.2s-9.3,24.6-9.3,28A3.19,3.19,0,0,0,477.9,517.2Z" transform="translate(0 0)" style="fill:url(#Dégradé_sans_nom_12)"/><path d="M384.5,336.3A258.67,258.67,0,0,1,472.9,352a297.3,297.3,0,0,1,66.8,34.7,311.42,311.42,0,0,1,49.8,42.7l-86.3,90.9a.59.59,0,0,1-.5.2.76.76,0,0,1-.5-.2l-9.9-8.1a53.56,53.56,0,0,0,6.7-26c0-22.6-8.6-96.3-119.6-96.3-106.3,0-162,95.5-162,189.8,0,96.1,59.4,239.1,222.9,239.1,79.3,0,110.8-35.9,121.2-52.7h11.4V877.8h-163c-48,0-93.3-8.9-134.5-26.6a307.34,307.34,0,0,1-98.3-66.9c-25.5-25.8-46.4-56.2-60.5-88.1-13.4-30.2-20.4-61.1-20.4-89.3,0-41.7,8.6-80.6,25.6-115.6,15.6-32.2,38.1-60.7,66.6-84.7,53.4-44.7,124.8-70.3,196.1-70.3m0-13C241.2,323.3,83.2,424.5,83.2,607c0,119,116.8,283.8,326.7,283.8H586V753.1H553.8S534,805.8,440.4,805.8c-160.8,0-209.9-146.2-209.9-226.1s45.7-176.8,149-176.8S486.1,470,486.1,486.2s-9.3,24.6-9.3,28a3.69,3.69,0,0,0,1.1,2.9L494,530.3a13.77,13.77,0,0,0,18.7-1.2l94.5-99.5c-.1.1-83.9-106.3-222.7-106.3Z" transform="translate(0 0)" style="fill:url(#Dégradé_sans_nom_13)"/><path d="M2270.6,518.2l16.1,13.2a13.66,13.66,0,0,0,18.7-1.2l94.5-99.5s-83.8-106.5-222.6-106.5C2034,324.2,1876,425.4,1876,607.9c0,119,116.8,283.8,326.7,283.8h176.1V754.1h-32.2s-19.8,52.7-113.4,52.7c-160.8,0-209.9-146.2-209.9-226.1s45.7-176.8,149-176.8,106.6,67.1,106.6,83.3-9.3,24.6-9.3,28A3.44,3.44,0,0,0,2270.6,518.2Z" transform="translate(0 0)" style="fill:url(#Dégradé_sans_nom_14)"/><path d="M2177.2,337.3a258.67,258.67,0,0,1,88.4,15.7,297.3,297.3,0,0,1,66.8,34.7,311.42,311.42,0,0,1,49.8,42.7l-86.3,90.9a.59.59,0,0,1-.5.2.76.76,0,0,1-.5-.2l-9.9-8.1a53.56,53.56,0,0,0,6.7-26c0-22.6-8.6-96.3-119.6-96.3-106.3,0-162,95.5-162,189.8,0,96.1,59.4,239.1,222.9,239.1,79.3,0,110.8-35.9,121.2-52.7h11.4V878.8H2202.5c-48,0-93.3-8.9-134.5-26.6a307.34,307.34,0,0,1-98.3-66.9c-25.5-25.8-46.4-56.2-60.5-88.1-13.4-30.2-20.4-61.1-20.4-89.3,0-41.7,8.6-80.6,25.6-115.6,15.6-32.2,38.1-60.7,66.6-84.7,53.5-44.7,125-70.3,196.2-70.3m0-13c-143.3,0-301.3,101.2-301.3,283.7,0,119,116.8,283.8,326.7,283.8h176.1V754.1h-32.2s-19.8,52.7-113.4,52.7c-160.8,0-209.9-146.2-209.9-226.1s45.7-176.8,149-176.8,106.6,67.1,106.6,83.3-9.3,24.6-9.3,28a3.69,3.69,0,0,0,1.1,2.9l16.1,13.2a13.77,13.77,0,0,0,18.7-1.2l94.5-99.5c-.1.1-83.9-106.3-222.7-106.3Z" transform="translate(0 0)" style="fill:url(#Dégradé_sans_nom_15)"/></svg>