<svg id="Layer_1" data-name="Layer 1" xmlns="http://www.w3.org/2000/svg" viewBox="0 0 3839 349.77002"><path d="M0,10.72H122.65V41.04H36.06V76.18h79.47V104.2H36.06v40.2h88.43v30.32H0Z" transform="translate(0 0)" style="fill:#fff"/><path d="M148.84,10.72H222.8c40.89,0,56.73,25.95,56.73,52.59,0,26.65-15.85,52.6-56.73,52.6H184.9v58.8H148.84Zm36.07,77.17h28.02c16.77,0,31.7-3.67,31.7-24.58,0-20.9-14.93-24.58-31.7-24.58H184.91Z" transform="translate(0 0)" style="fill:#fff"/><path d="M375.55,6.81c50.76,0,80.62,37.89,80.62,86.59,0,47.32-29.86,85.21-80.62,85.21s-80.62-37.89-80.62-85.21C294.93,44.71,324.79,6.81,375.55,6.81Zm0,141.49c32.39,0,44.56-27.56,44.56-54.89,0-28.71-12.17-56.28-44.56-56.28S330.99,64.7,330.99,93.41C330.99,120.74,343.17,148.3,375.55,148.3Z" transform="translate(0 0)" style="fill:#fff"/><path d="M590.09,65.84c-2.3-16.31-17.92-28.71-35.83-28.71-32.39,0-44.56,27.57-44.56,56.28,0,27.33,12.17,54.89,44.56,54.89,22.05,0,34.45-15.16,37.21-36.75h34.91c-3.68,40.89-31.93,67.07-72.12,67.07-50.76,0-80.62-37.89-80.62-85.21,0-48.7,29.86-86.59,80.62-86.59,36.06,0,66.38,21.13,70.74,59.03H590.09Z" transform="translate(0 0)" style="fill:#fff"/><path d="M650.97,10.72h36.06V73.66h66.38V10.72h36.06v164H753.41V103.98H687.03v70.74H650.97Z" transform="translate(0 0)" style="fill:#fff"/><path d="M0,208.05H104.74v10.73H58.66v121.4H46.08V218.78H0Z" transform="translate(0 0)" style="fill:#fff"/><path d="M113.63,208.05h13.51L170.07,326.3h.37L213,208.05h13.32L177.28,340.18H162.66Z" transform="translate(0 0)" style="fill:#fff"/><path d="M402.32,340.18h-9.07l-1.67-24.05h-.37c-8.88,18.87-26.65,26.83-45.71,26.83-41.64,0-62.36-32.75-62.36-68.84s20.73-68.84,62.36-68.84c27.76,0,50.34,14.99,55.15,43.86H388.07c-1.67-15.17-17.4-33.12-42.56-33.12-34.98,0-49.78,29.24-49.78,58.1,0,28.87,14.8,58.11,49.78,58.11,29.24,0,46.26-20.54,45.71-48.48H346.25V273h56.07Z" transform="translate(0 0)" style="fill:#fff"/><path d="M465.25,208.05h14.06l51.82,132.13H517.62l-16.1-41.09H441.38l-15.91,41.09H411.96Zm-19.99,80.31h52l-25.54-67.73Z" transform="translate(0 0)" style="fill:#fff"/><path d="M542.79,208.05H561.3L607,323.89l45.52-115.85h18.51V340.17H658.45V226h-.37L612.93,340.18H601.09L555.74,226h-.37V340.18H542.79Z" transform="translate(0 0)" style="fill:#fff"/><path d="M697.31,208.05h91.23v10.73H709.9v47.75h73.65v10.74H709.9v52.18h79.57v10.74h-92.16V208.05Z" transform="translate(0 0)" style="fill:#fff"/><path d="M1242.61,342.95V230.75h-78.12l-41.33,54.06c19.53-5.45,32.25-18.17,43.6-35.43h69.51c-18.63,41.79-70.41,100.39-164.44995,100.39-102.65,0-177.59-83.58-177.59-175.79C894.22,80.4,968.26,0,1068.18005,0c52.25,0,95.4,14.08,132.19007,48.6l-36.80005,49.52c-20.89-21.35-49.05005-39.98-94.92-39.98-64.51,0-112.21,52.69-112.21,115.83,0,56.33,40.89,104.48,91.75995,115.83L1253.06006,6.81h51.78V342.95Zm0-225.3h-.91l-40.87,59.96h41.78Z" transform="translate(0 0)" style="fill:#fbdd00"/><path d="M1564.67,349.77a108.00272,108.00272,0,0,1-64.96-22.26c-19.98,14.99-44.96,22.26-69.03,22.26-43.16,0-105.85-29.07-109.48-103.11h65.41c3.18,33.62,25.43994,44.97,44.51,44.97,24.54,0,46.34-16.81,46.34-42.24,0-34.52-22.25-39.52-63.6-57.23-29.53-12.72-75.85-31.8-75.85-98.12C1338,37.25,1379.33,0,1436.56006,0c20.91,0,46.34,7.72,65.87,25.89C1519.68994,9.99,1543.77,0,1571.03,0c39.05005,0,96.29,27.25,99.47,95.85h-63.58c-2.73-29.98-20.91-37.7-37.71-37.7-19.53,0-34.53,14.08-34.53,34.07,0,27.71,16.82,35.43,50.87,46.79,27.71,9.09,88.12,30.43,88.12,103.57C1673.68005,307.07,1628.26,349.77,1564.67,349.77ZM1472.45,95.85c-2.73-29.98-20.89-37.7-37.71-37.7-23.16,0-34.51,15.44-34.51,32.71,0,22.26,13.16,34.52,49.51,49.97,12.27,5,29.98,11.35,46.78,21.8C1482.91,148.08,1472.45,127.19,1472.45,95.85ZM1551.03,193.96c-9.53-3.63-22.71-8.17-35.87-16.35,14.07,14.54,24.53,34.98,24.53,64.96a134.11772,134.11772,0,0,1-4.55,34.07c7.27,10.9,22.71,14.99,34.53,14.99,23.62,0,41.78-17.26,41.78-40.88C1611.45,220.31,1595.55005,210.77,1551.03,193.96Z" transform="translate(0 0)" style="fill:#fbdd00"/><path d="M1683.66,342.95V6.81h180.79V64.95H1745.89014v82.22H1859.4502v58.14H1745.89014V284.8H1864.4502v58.14H1683.66Z" transform="translate(0 0)" style="fill:#fbdd00"/><path d="M2112.17993,64.96h-47.77V6.81h157.75V64.95h-47.77v278h-62.22V64.96" transform="translate(0 0)" style="fill:#fbdd00"/><path d="M1933.33,64.96h-47.77V6.81h157.75V64.95h-47.77v278h-62.22V64.96" transform="translate(0 0)" style="fill:#fbdd00"/><path d="M2243.27,342.95V6.81h180.79V64.95H2305.5v82.22h113.56006v58.14H2305.5V284.8h118.56006v58.14H2243.27Z" transform="translate(0 0)" style="fill:#fbdd00"/><path d="M2757.91992,342.95,2521.26,6.81h76.76l150.81006,221.22h.90991V6.81h62.23V342.95Z" transform="translate(0 0)" style="fill:#fbdd00"/><path d="M2832.86011,342.95V6.81h62.23V342.95Z" transform="translate(0 0)" style="fill:#fbdd00"/><path d="M3011.37012,349.77c-59.49,0-106.74-43.61-109.47-103.11h65.40991c2.27,25.44,17.73,44.97,44.52,44.97,24.07007,0,46.33008-16.81,46.33008-42.24,0-38.16-34.53-45.43-64.05-56.78-10.45-4.09-20.43994-7.72-30.42993-12.72-34.07007-17.71-49.51-45.42-49.51-84.03,0-55.42,43.60009-95.85,98.58007-95.85,54.51,0,96.74,41.34,99.47,95.85h-63.60009c-1.82007-22.71-14.07007-37.7-37.68994-37.7-19.54,0-34.53,14.08-34.53,34.07,0,32.25,30.88989,38.61,55.87011,46.79,50.87012,16.81,88.12012,44.52,88.12012,103.57C3120.40991,306.16,3074.06006,349.77,3011.37012,349.77Z" transform="translate(0 0)" style="fill:#fbdd00"/><path d="M3127.21,342.95V6.81h62.22V342.95Z" transform="translate(0 0)" style="fill:#fbdd00"/><path d="M3377.95,349.77c-96.30005,0-175.79-77.22-175.79-173.97a175.79,175.79,0,1,1,351.58008-.01C3553.74,272.55,3474.25,349.77,3377.95,349.77Zm0-291.63c-64.51,0-113.58008,54.06-113.58008,117.19,0,62.68,49.98,116.29,113.58008,116.29,63.58008,0,113.56006-53.6,113.56006-116.29C3491.51,112.2,3442.43994,58.14,3377.95,58.14Z" transform="translate(0 0)" style="fill:#fbdd00"/><path d="M3769.49,342.95,3629.13989,98.57H3628.23V342.95H3566V6.81h70.87012l138.99,244.38h.90991V6.81H3839V342.95Z" transform="translate(0 0)" style="fill:#fbdd00"/></svg>