<svg id="Layer_1" data-name="Layer 1" xmlns="http://www.w3.org/2000/svg" xmlns:xlink="http://www.w3.org/1999/xlink" viewBox="0 0 3839 1042.5"><defs><linearGradient id="Dégradé_sans_nom" x1="2771.37" y1="122.34" x2="2821.83" y2="122.34" gradientTransform="matrix(1, 0, 0, -1, 0, 1049.89)" gradientUnits="userSpaceOnUse"><stop offset="0" stop-color="#806530"/><stop offset="0.03" stop-color="#886b34"/><stop offset="0.09" stop-color="#a07d3e"/><stop offset="0.14" stop-color="#bb924a"/><stop offset="1" stop-color="#886c33"/></linearGradient><linearGradient id="Dégradé_sans_nom_2" x1="2605.4" y1="134.84" x2="2654.2" y2="134.84" xlink:href="#Dégradé_sans_nom"/><linearGradient id="Dégradé_sans_nom_3" x1="2273.67" y1="154.74" x2="2322.96" y2="154.74" gradientTransform="matrix(1, 0, 0, -1, 0, 1049.89)" gradientUnits="userSpaceOnUse"><stop offset="0.65" stop-color="#806530"/><stop offset="1" stop-color="#806630"/></linearGradient><linearGradient id="Dégradé_sans_nom_4" x1="3412.26" y1="599.45" x2="3554.19" y2="457.51" gradientTransform="matrix(1, 0, 0, -1, 0, 1049.89)" gradientUnits="userSpaceOnUse"><stop offset="0.66" stop-color="#806530"/><stop offset="0.74" stop-color="#886b34"/><stop offset="0.88" stop-color="#a07d3e"/><stop offset="1" stop-color="#bb924a"/></linearGradient><linearGradient id="Dégradé_sans_nom_5" x1="1235.5" y1="624.79" x2="1235.5" y2="584.89" gradientTransform="matrix(1, 0, 0, -1, 0, 1049.89)" gradientUnits="userSpaceOnUse"><stop offset="0.51" stop-color="#806530"/><stop offset="0.54" stop-color="#866a33"/><stop offset="0.63" stop-color="#9e7c3d"/><stop offset="0.74" stop-color="#ae8844"/><stop offset="0.85" stop-color="#b89049"/><stop offset="1" stop-color="#bb924a"/></linearGradient><linearGradient id="Dégradé_sans_nom_6" x1="2425.6" y1="380.84" x2="2516.6" y2="380.84" gradientTransform="matrix(1, 0, 0, -1, 0, 1049.89)" gradientUnits="userSpaceOnUse"><stop offset="0.71" stop-color="#bb924a"/><stop offset="0.73" stop-color="#b38c46"/><stop offset="0.78" stop-color="#9c7b3d"/><stop offset="0.84" stop-color="#8c6e35"/><stop offset="0.91" stop-color="#836731"/><stop offset="1" stop-color="#806530"/></linearGradient><linearGradient id="Dégradé_sans_nom_7" x1="2787.6" y1="390.64" x2="3123.21" y2="390.64" xlink:href="#Dégradé_sans_nom_5"/><linearGradient id="Dégradé_sans_nom_8" x1="3561.5" y1="774.09" x2="3733.4" y2="602.19" xlink:href="#Dégradé_sans_nom_4"/><linearGradient id="Dégradé_sans_nom_9" x1="3755.9" y1="746.49" x2="3844" y2="746.49" gradientTransform="matrix(1, 0, 0, -1, 0, 1049.89)" gradientUnits="userSpaceOnUse"><stop offset="0" stop-color="#806530"/><stop offset="0.25" stop-color="#886b34"/><stop offset="0.64" stop-color="#a07d3e"/><stop offset="1" stop-color="#bb924a"/></linearGradient><linearGradient id="Dégradé_sans_nom_10" x1="2524.08" y1="268.01" x2="2886.43" y2="630.35" xlink:href="#Dégradé_sans_nom"/><linearGradient id="Dégradé_sans_nom_11" x1="1512.9" y1="778.64" x2="1572.9" y2="778.64" gradientTransform="matrix(1, 0, 0, -1, 0, 1049.89)" gradientUnits="userSpaceOnUse"><stop offset="0" stop-color="#bb924a"/><stop offset="0.03" stop-color="#b38c46"/><stop offset="0.14" stop-color="#9c7b3d"/><stop offset="0.26" stop-color="#8c6e35"/><stop offset="0.4" stop-color="#836731"/><stop offset="0.58" stop-color="#806530"/></linearGradient><linearGradient id="Dégradé_sans_nom_12" x1="3226.11" y1="411.99" x2="3628" y2="411.99" gradientTransform="matrix(1, 0, 0, -1, 0, 1049.89)" gradientUnits="userSpaceOnUse"><stop offset="0" stop-color="#806530"/><stop offset="0.06" stop-color="#886b34"/><stop offset="0.25" stop-color="#9f7c3d"/><stop offset="0.45" stop-color="#af8945"/><stop offset="0.69" stop-color="#b89049"/><stop offset="1" stop-color="#bb924a"/></linearGradient><linearGradient id="Dégradé_sans_nom_13" x1="3213.4" y1="805.54" x2="3280.68" y2="805.54" gradientTransform="matrix(1, 0, 0, -1, 0, 1049.89)" gradientUnits="userSpaceOnUse"><stop offset="0" stop-color="#8a6d33"/><stop offset="0.37" stop-color="#836731"/><stop offset="1" stop-color="#806530"/></linearGradient><linearGradient id="Dégradé_sans_nom_14" x1="3054.66" y1="781.25" x2="3207.16" y2="628.75" gradientTransform="matrix(1, 0, 0, -1, 0, 1049.89)" gradientUnits="userSpaceOnUse"><stop offset="0" stop-color="#806530"/><stop offset="0.24" stop-color="#866933"/><stop offset="0.54" stop-color="#96763a"/><stop offset="0.89" stop-color="#b18a45"/><stop offset="1" stop-color="#bb924a"/></linearGradient><linearGradient id="Dégradé_sans_nom_15" x1="1194.14" y1="830.19" x2="1194.14" y2="46.59" xlink:href="#Dégradé_sans_nom_5"/><linearGradient id="Dégradé_sans_nom_16" x1="1688.29" y1="503.39" x2="1962.1" y2="503.39" gradientTransform="matrix(1, 0, 0, -1, 0, 1049.89)" gradientUnits="userSpaceOnUse"><stop offset="0" stop-color="#bb924a"/><stop offset="0.03" stop-color="#b38c46"/><stop offset="0.15" stop-color="#9c7b3d"/><stop offset="0.27" stop-color="#8c6e35"/><stop offset="0.41" stop-color="#836731"/><stop offset="0.61" stop-color="#806530"/><stop offset="0.63" stop-color="#876b33"/><stop offset="0.7" stop-color="#9f7d3d"/><stop offset="0.79" stop-color="#af8a44"/><stop offset="0.88" stop-color="#b99249"/><stop offset="1" stop-color="#bc944a"/></linearGradient><linearGradient id="Dégradé_sans_nom_17" x1="2645.3" y1="853.09" x2="2700.74" y2="853.09" xlink:href="#Dégradé_sans_nom_13"/><linearGradient id="Dégradé_sans_nom_18" x1="2434.18" y1="837.87" x2="2556.43" y2="715.62" gradientTransform="matrix(1, 0, 0, -1, 0, 1049.89)" gradientUnits="userSpaceOnUse"><stop offset="0.35" stop-color="#806530"/><stop offset="0.38" stop-color="#866a33"/><stop offset="0.51" stop-color="#9e7c3d"/><stop offset="0.65" stop-color="#ae8844"/><stop offset="0.8" stop-color="#b89049"/><stop offset="1" stop-color="#bb924a"/></linearGradient><linearGradient id="Dégradé_sans_nom_19" x1="2683.77" y1="815.84" x2="2823.7" y2="815.84" xlink:href="#Dégradé_sans_nom_5"/><linearGradient id="Dégradé_sans_nom_20" x1="1293.42" y1="706.05" x2="1687.49" y2="311.98" gradientTransform="matrix(1, 0, 0, -1, 0, 1049.89)" gradientUnits="userSpaceOnUse"><stop offset="0" stop-color="#806530"/><stop offset="0.05" stop-color="#876b33"/><stop offset="0.25" stop-color="#9f7d3d"/><stop offset="0.46" stop-color="#af8a44"/><stop offset="0.7" stop-color="#b99249"/><stop offset="1" stop-color="#bc944a"/></linearGradient><linearGradient id="Dégradé_sans_nom_21" x1="2294" y1="865.84" x2="2348.2" y2="865.84" xlink:href="#Dégradé_sans_nom_13"/><linearGradient id="Dégradé_sans_nom_22" x1="1942.57" y1="702.66" x2="2317.86" y2="327.38" gradientTransform="matrix(1, 0, 0, -1, 0, 1049.89)" gradientUnits="userSpaceOnUse"><stop offset="0.65" stop-color="#806530"/><stop offset="0.67" stop-color="#866a33"/><stop offset="0.74" stop-color="#9e7c3d"/><stop offset="0.81" stop-color="#ae8844"/><stop offset="0.89" stop-color="#b89049"/><stop offset="1" stop-color="#bb924a"/></linearGradient><linearGradient id="Dégradé_sans_nom_23" x1="431.4" y1="483.64" x2="935.05" y2="483.64" gradientTransform="matrix(1, 0, 0, -1, 0, 1049.89)" gradientUnits="userSpaceOnUse"><stop offset="0.84" stop-color="#806530"/><stop offset="0.85" stop-color="#866a33"/><stop offset="0.88" stop-color="#9e7c3d"/><stop offset="0.92" stop-color="#ae8844"/><stop offset="0.95" stop-color="#b89049"/><stop offset="1" stop-color="#bb924a"/></linearGradient><linearGradient id="Dégradé_sans_nom_24" x1="428.81" y1="974.93" x2="428.81" y2="108.69" gradientTransform="matrix(1, 0, 0, -1, 0, 1049.89)" gradientUnits="userSpaceOnUse"><stop offset="0.19" stop-color="#806530"/><stop offset="0.23" stop-color="#866a33"/><stop offset="0.39" stop-color="#9e7c3d"/><stop offset="0.56" stop-color="#ae8844"/><stop offset="0.75" stop-color="#b89049"/><stop offset="1" stop-color="#bb924a"/></linearGradient><linearGradient id="Dégradé_sans_nom_25" x1="3558.43" y1="809.79" x2="3558.43" y2="8.79" gradientTransform="matrix(1, 0, 0, -1, 0, 1049.89)" gradientUnits="userSpaceOnUse"><stop offset="0.19" stop-color="#e4bf48"/><stop offset="0.21" stop-color="#ebca62"/><stop offset="0.24" stop-color="#f2d680"/><stop offset="0.27" stop-color="#f8df98"/><stop offset="0.31" stop-color="#fce6a8"/><stop offset="0.35" stop-color="#feeab2"/><stop offset="0.4" stop-color="#ffebb5"/><stop offset="0.55" stop-color="#f7d75b"/></linearGradient><linearGradient id="Dégradé_sans_nom_26" x1="3303.42" y1="772.01" x2="3868.27" y2="207.16" gradientTransform="matrix(1, 0, 0, -1, 0, 1049.89)" gradientUnits="userSpaceOnUse"><stop offset="0" stop-color="#bb924a"/><stop offset="0.19" stop-color="#f6d55b"/><stop offset="0.22" stop-color="#dcba52"/><stop offset="0.26" stop-color="#c6a24b"/><stop offset="0.3" stop-color="#b69246"/><stop offset="0.35" stop-color="#ad8843"/><stop offset="0.4" stop-color="#aa8542"/><stop offset="0.52" stop-color="#fff"/><stop offset="0.67" stop-color="#b48f43"/><stop offset="1" stop-color="#e4bf48"/></linearGradient><linearGradient id="Dégradé_sans_nom_27" x1="2406.6" y1="889.89" x2="2406.6" y2="118.39" xlink:href="#Dégradé_sans_nom_25"/><linearGradient id="Dégradé_sans_nom_28" x1="2072.07" y1="838.16" x2="2722.72" y2="187.51" xlink:href="#Dégradé_sans_nom_26"/><linearGradient id="Dégradé_sans_nom_29" x1="2981.1" y1="874.89" x2="2981.1" y2="47.09" xlink:href="#Dégradé_sans_nom_25"/><linearGradient id="Dégradé_sans_nom_30" x1="2695.86" y1="751.88" x2="3209.87" y2="237.87" xlink:href="#Dégradé_sans_nom_26"/><linearGradient id="Dégradé_sans_nom_31" x1="1815.9" y1="902.09" x2="1815.9" y2="134.89" xlink:href="#Dégradé_sans_nom_25"/><linearGradient id="Dégradé_sans_nom_32" x1="1509.66" y1="784.74" x2="1951.2" y2="343.19" xlink:href="#Dégradé_sans_nom_26"/><linearGradient id="Dégradé_sans_nom_33" x1="1225.75" y1="883.39" x2="1225.75" y2="46.39" xlink:href="#Dégradé_sans_nom_25"/><linearGradient id="Dégradé_sans_nom_34" x1="959.98" y1="819.97" x2="1580.83" y2="199.12" xlink:href="#Dégradé_sans_nom_26"/><linearGradient id="Dégradé_sans_nom_35" x1="452.16" y1="1045.1" x2="452.16" y2="2.69" xlink:href="#Dégradé_sans_nom_25"/><linearGradient id="Dégradé_sans_nom_36" x1="78.2" y1="915.69" x2="731.81" y2="262.08" xlink:href="#Dégradé_sans_nom_26"/></defs><path d="M228.9,1018.4l-61,17.7c-1.2.3-2.4.7-3.7,1s-2.6.6-4,.9-2.8.6-4.2.8-2.9.5-4.5.8l61.6-17.8c1.5-.2,2.9-.5,4.3-.7s2.8-.5,4.1-.8,2.6-.6,3.8-.9S227.7,1018.7,228.9,1018.4Z" transform="translate(-5 -4.7)" style="fill:#dda544"/><path d="M2681.1,932.9l-26.3-14.1c0-.5.1-.9.1-1.4s.1-.9.1-1.4.1-.9.1-1.4.1-.9.1-1.4l26.3,13.9c0,.5-.1,1-.1,1.5s-.1,1-.1,1.5-.1,1-.1,1.5A4.89,4.89,0,0,0,2681.1,932.9Z" transform="translate(-5 -4.7)" style="fill:#d3ac6e"/><path d="M2443.3,919.8l-18-13.7a6.6,6.6,0,0,1,.1-1.4,6.6,6.6,0,0,1,.1-1.4,6.6,6.6,0,0,1,.1-1.4c.1-.5,0-.9.1-1.4l18,13.5a7.57,7.57,0,0,1-.1,1.5,7.57,7.57,0,0,1-.1,1.5,7.57,7.57,0,0,1-.1,1.5C2443.4,918.8,2443.3,919.3,2443.3,919.8Z" transform="translate(-5 -4.7)" style="fill:#d3ac6e"/><path d="M1353.2,897.4l-20.6,13.4a45.3,45.3,0,0,1-6.1,3.4c-2.2,1-4.4,1.9-6.7,2.7a43.27,43.27,0,0,1-7.3,1.8,49.07,49.07,0,0,1-7.7.9l21.5-13.7a45.35,45.35,0,0,0,7.4-.9,39.91,39.91,0,0,0,7-1.8,46.37,46.37,0,0,0,6.5-2.6A43,43,0,0,0,1353.2,897.4Z" transform="translate(-5 -4.7)" style="fill:#dda544"/><path d="M2112.1,909.8l-6.5-13.3v-5.6l6.5,13.1v5.8Z" transform="translate(-5 -4.7)" style="fill:#d3ac6e"/><path d="M2801.8,932l-30.5-14.1a30.16,30.16,0,0,0,4.5,1.8c1.5.5,3.1,1,4.7,1.5s3.3.8,4.9,1.1a44.29,44.29,0,0,0,5.1.6l31.2,14.3a45.11,45.11,0,0,1-5.3-.7c-1.7-.3-3.5-.7-5.1-1.1a39.74,39.74,0,0,1-4.9-1.5C2804.9,933.3,2803.3,932.7,2801.8,932Z" transform="translate(-5 -4.7)" style="fill:url(#Dégradé_sans_nom)"/><path d="M1586.9,880.7l-12.1,12.8a40.56,40.56,0,0,1-7.4,6.2,53.67,53.67,0,0,1-8.8,4.9,47.62,47.62,0,0,1-10.1,3.2,56.1,56.1,0,0,1-11,1.4l13.4-13.3a60.25,60.25,0,0,0,10.6-1.3,52.27,52.27,0,0,0,9.7-3.1,46.4,46.4,0,0,0,8.5-4.7A43,43,0,0,0,1586.9,880.7Z" transform="translate(-5 -4.7)" style="fill:#bb924a"/><path d="M2629.9,918.3l-24.5-13.6c1.7.9,3.5,1.8,5.3,2.6a55,55,0,0,0,11.8,3.4c2.1.4,4.2.6,6.4.8l25.3,13.9a47.61,47.61,0,0,1-6.6-.8,64.25,64.25,0,0,1-6.3-1.5,58.94,58.94,0,0,1-5.9-2.1A46.79,46.79,0,0,1,2629.9,918.3Z" transform="translate(-5 -4.7)" style="fill:url(#Dégradé_sans_nom_2)"/><path d="M2286.2,894l-12.6-12.8a44.86,44.86,0,0,0,7.1,5.8,48.19,48.19,0,0,0,8.4,4.5,50.06,50.06,0,0,0,9.5,3,58,58,0,0,0,10.4,1.3l13.8,13.3a63.77,63.77,0,0,1-10.8-1.3,52.89,52.89,0,0,1-18.6-7.8A58.73,58.73,0,0,1,2286.2,894Z" transform="translate(-5 -4.7)" style="fill:url(#Dégradé_sans_nom_3)"/><path d="M3594.4,551.8l-58-.9a14.37,14.37,0,0,0,5.7-7.2,12.49,12.49,0,0,0,0-8.1,15,15,0,0,0-5.2-6.9,22.16,22.16,0,0,0-9.9-3.9c-13.9-1.9-27.8-3.9-41.7-5.8s-27.8-3.8-41.7-5.6-27.8-3.7-41.8-5.4-27.8-3.5-41.8-5.3l51.6-.8c14.4,1.8,28.8,3.6,43.3,5.5s28.8,3.7,43.3,5.6,28.8,3.8,43.2,5.8,28.8,3.9,43.2,6a22.29,22.29,0,0,1,10.3,4,15.48,15.48,0,0,1,5.4,7.2,12.44,12.44,0,0,1,0,8.3A15.93,15.93,0,0,1,3594.4,551.8Z" transform="translate(-5 -4.7)" style="fill:url(#Dégradé_sans_nom_4)"/><path d="M1328.7,425.1l20.7,3.5c-12.7.6-25.4,1.3-38.1,2l-38.1,2.1c-12.7.7-25.4,1.5-38.1,2.2s-25.4,1.6-38.1,2.4a68.41,68.41,0,0,0-23.1,5.3,52.59,52.59,0,0,0-14.6,9.4,45.23,45.23,0,0,0-7.6,9,34.6,34.6,0,0,0-2.2,4l-27.9-2.2a33.25,33.25,0,0,1,2.3-4.1,44.82,44.82,0,0,1,7.9-9.3,56.23,56.23,0,0,1,15.1-9.7,70.15,70.15,0,0,1,23.9-5.5c13.2-.8,26.3-1.7,39.5-2.4s26.3-1.6,39.5-2.3,26.3-1.5,39.5-2.2S1315.6,425.8,1328.7,425.1Z" transform="translate(-5 -4.7)" style="fill:url(#Dégradé_sans_nom_5)"/><path d="M2443.6,913.9l-18-13.5h2.8a56.42,56.42,0,0,0,17.6-2.8,46.79,46.79,0,0,0,14.5-7.7,38.12,38.12,0,0,0,10.1-11.5,32.51,32.51,0,0,0,4.2-14.3c1.8-36.4,3.6-72.7,5.3-109.1s3.6-72.7,5.3-109.1,3.6-72.7,5.3-109.1,3.6-72.7,5.3-109.1l20.6-3.5c-1.8,37.7-3.7,75.4-5.5,113s-3.7,75.4-5.5,113-3.7,75.4-5.5,113-3.7,75.4-5.5,113a34.33,34.33,0,0,1-4.3,14.8,40.42,40.42,0,0,1-10.4,11.9,47.76,47.76,0,0,1-15,7.9,56.9,56.9,0,0,1-18.2,2.9h-2.1C2444.4,913.7,2443.8,913.9,2443.6,913.9Z" transform="translate(-5 -4.7)" style="fill:url(#Dégradé_sans_nom_6)"/><path d="M2516.5,424.3l-20.6,3.5c-18.3-.9-36.6-1.7-54.9-2.6s-36.6-1.6-54.9-2.3-36.6-1.4-54.9-2l-54.9-1.8,12.7-3.8,56.9,1.8,56.9,2.1c19,.7,37.9,1.5,56.9,2.4S2497.5,423.3,2516.5,424.3Z" transform="translate(-5 -4.7)" style="fill:#806530"/><path d="M1964.2,399.3l-1.4,4.4q-28.35,8.4-56.5,16.9T1850,437.8q-28.2,8.7-56.2,17.5t-56,17.8l-6.7-1.9c19.3-6.2,38.7-12.3,58-18.4s38.8-12.1,58.2-18.1,38.9-11.9,58.4-17.8S1944.7,405.1,1964.2,399.3Z" transform="translate(-5 -4.7)" style="fill:#806530"/><path d="M3003.5,1002.7,2966,986.1c34.4-38.1,60.1-76.8,78.5-115.4a376.44,376.44,0,0,0,34.1-115,367.66,367.66,0,0,0-2.8-110.1,398.09,398.09,0,0,0-32.4-100.9,449.43,449.43,0,0,0-53.7-87.2,456.55,456.55,0,0,0-66.7-69c-23.4-19.5-47.4-35.2-70.4-46.3s-45.3-17.8-65-19.1l31.1-7.3c20.4,1.4,43.4,8.2,67.3,19.8s48.8,27.8,73,48a475.27,475.27,0,0,1,69.1,71.5,465.5,465.5,0,0,1,55.6,90.3,412,412,0,0,1,33.6,104.5,377.83,377.83,0,0,1,2.9,114.1,390.26,390.26,0,0,1-35.4,119.1C3065.8,923.2,3039.1,963.3,3003.5,1002.7Z" transform="translate(-5 -4.7)" style="fill:url(#Dégradé_sans_nom_7)"/><path d="M3519.2,318.1l57.4-7.5c2-.3,4.1-.5,6.2-.7s4.2-.4,6.3-.5l6.5-.3c2.2-.1,4.4-.1,6.6-.1,2.7,0,5.4,0,8.1.1s5.5.3,8.3.5,5.6.5,8.5.8,5.7.7,8.6,1.1c32.3,4.6,55.4,14.7,71.8,27.1a96.3,96.3,0,0,1,31.9,41.6,109.81,109.81,0,0,1,7.6,38.1,100,100,0,0,1-.9,16.7l-63.3,3.2a92.31,92.31,0,0,0,.9-16.1,106.36,106.36,0,0,0-7.4-36.8,93.29,93.29,0,0,0-30.8-40.2c-15.8-12-38.1-21.7-69.3-26.2-2.8-.4-5.6-.7-8.3-1s-5.5-.5-8.2-.7-5.4-.3-8-.4-5.2-.1-7.8-.1c-2.1,0-4.3,0-6.4.1l-6.2.3c-2.1.1-4.1.3-6.1.5A39.38,39.38,0,0,0,3519.2,318.1Z" transform="translate(-5 -4.7)" style="fill:url(#Dégradé_sans_nom_8)"/><path d="M3821.8,304.7l-65.9,7.7a35.21,35.21,0,0,0,7.9-2,34.85,34.85,0,0,0,6.7-3.3c2-1.2,3.6-2.3,4.8-3.1s1.9-1.5,2-1.6l66.7-8c-.1.1-.9.8-2.1,1.7a58.12,58.12,0,0,1-4.9,3.3,45.66,45.66,0,0,1-7,3.4A42.66,42.66,0,0,1,3821.8,304.7Z" transform="translate(-5 -4.7)" style="fill:url(#Dégradé_sans_nom_9)"/><path d="M2772.4,311.6a23.13,23.13,0,0,0-2.9-8.1,22.06,22.06,0,0,0-6.3-6.7,43.71,43.71,0,0,0-10.4-5.4c-2.8-1.1-5.8-2.1-8.9-3a90.7,90.7,0,0,0-9.9-2.1c-3.5-.6-7.1-1-10.9-1.3s-7.8-.4-12-.4l-27.3,8.4c4,0,7.9.1,11.6.4s7.2.7,10.6,1.2a70.84,70.84,0,0,1,9.6,2.1,72.28,72.28,0,0,1,8.6,2.9,43.15,43.15,0,0,1,10.1,5.2,21.56,21.56,0,0,1,6,6.5,23.49,23.49,0,0,1,2.8,7.8,38.86,38.86,0,0,1,.3,9.1l-9.6,137.4L2724.2,603l-9.6,137.4L2705,877.8a32.85,32.85,0,0,1-4.4,14,40.75,40.75,0,0,1-10,11.2,48.46,48.46,0,0,1-14.3,7.4,56.34,56.34,0,0,1-17.2,2.7h-2.9a3.4,3.4,0,0,1-1-.1l26.3,13.9a3.4,3.4,0,0,1,1,.1h3a57.22,57.22,0,0,0,17.8-2.8,49.57,49.57,0,0,0,14.8-7.7,40.82,40.82,0,0,0,10.4-11.6,33.3,33.3,0,0,0,4.5-14.5q5-71.25,9.9-142.4t9.9-142.4q4.95-71.25,9.9-142.4t9.9-142.4A35.34,35.34,0,0,0,2772.4,311.6Z" transform="translate(-5 -4.7)" style="fill:url(#Dégradé_sans_nom_10)"/><path d="M1560.3,267.6l12.6,9a14,14,0,0,0-3.2-1.8,33.55,33.55,0,0,0-3.8-1.4,28.51,28.51,0,0,0-4.4-.9,39.53,39.53,0,0,0-5-.3,45.93,45.93,0,0,0-6.2.4,63.75,63.75,0,0,0-6.9,1.3c-2.4.6-5,1.3-7.7,2.2s-5.5,2-8.5,3.3l-14.3-8.9c3.1-1.3,6-2.5,8.8-3.4a76.55,76.55,0,0,1,8-2.3,68.71,68.71,0,0,1,7.2-1.3,48.82,48.82,0,0,1,6.4-.4,42.83,42.83,0,0,1,5.2.3,29.85,29.85,0,0,1,4.5.9,22.56,22.56,0,0,1,3.9,1.5A15.6,15.6,0,0,1,1560.3,267.6Z" transform="translate(-5 -4.7)" style="fill:url(#Dégradé_sans_nom_11)"/><path d="M2122.4,258.4l-6.9,9.3c-1.8,1.8-12.3,11.2-27,24.2s-33.6,29.8-52.2,46.3-37.1,32.9-50.8,45.1-22.7,20.3-22.6,20.4l1.4-4.4c-.1-.1,9.2-8.5,23.4-21.1s33.3-29.5,52.6-46.7,38.9-34.5,54.1-48S2120.5,260.2,2122.4,258.4Z" transform="translate(-5 -4.7)" style="fill:#8b7035"/><path d="M3628,1030l-59.2-17.5c-47.7-14.1-94.8-34.2-138.2-61.6s-83.1-62-115.6-105.1-58.1-94.7-73.3-156-20-132.4-11.2-214.5a324,324,0,0,1,13.6-63.6,298.38,298.38,0,0,1,21.9-51,272,272,0,0,1,25.2-38.2,189.07,189.07,0,0,1,23.5-25,22.48,22.48,0,0,0,6.6-9.8,22,22,0,0,0,.7-11.1,22.53,22.53,0,0,0-4.9-10.2,24.3,24.3,0,0,0-10.1-7.1c-1.2-.5-2.4-.9-3.7-1.3s-2.5-.8-3.8-1.1-2.6-.6-4-.8l-4.1-.6,49.2-9.7c1.4.2,2.9.4,4.2.6s2.8.5,4.1.9,2.7.7,4,1.1,2.6.9,3.8,1.3a25,25,0,0,1,10.4,7.4,24,24,0,0,1,5.1,10.5,22.59,22.59,0,0,1-7.6,21.7,184.28,184.28,0,0,0-24.3,25.9,273.21,273.21,0,0,0-26.1,39.5,309.26,309.26,0,0,0-22.7,52.9,336,336,0,0,0-14.1,65.8c-9.1,85-4.1,158.7,11.6,222.2s42.2,117,75.9,161.7,74.8,80.5,119.8,108.8C3529.8,994.6,3578.7,1015.4,3628,1030Z" transform="translate(-5 -4.7)" style="fill:url(#Dégradé_sans_nom_12)"/><path d="M3340.6,245.9l-49.2,9.7c.1-.5.1-.9.2-1.4s.1-.9.2-1.4.1-.9.2-1.4.1-.9.2-1.4l49.2-9.9c-.1.5-.1,1-.2,1.5s-.1,1-.2,1.5-.1,1-.2,1.5A4.44,4.44,0,0,0,3340.6,245.9Z" transform="translate(-5 -4.7)" style="fill:#d3ac6e"/><path d="M3213.4,250l46.4-9.9,3.2-.6c1.1-.2,2.2-.3,3.3-.4l3.4-.3c1.1-.1,2.3-.1,3.5-.1h1.9a12.75,12.75,0,0,1,1.9.1c.6,0,1.3.1,1.9.1s1.3.1,1.9.2l-47.1,10c-.6-.1-1.2-.1-1.8-.2a10.87,10.87,0,0,0-1.8-.1c-.6,0-1.2-.1-1.8-.1h-1.8c-1.1,0-2.2,0-3.3.1s-2.2.1-3.3.3-2.1.3-3.2.4A28.8,28.8,0,0,0,3213.4,250Z" transform="translate(-5 -4.7)" style="fill:url(#Dégradé_sans_nom_13)"/><path d="M3158.4,469.9l-42.9,1.9c1.7-16.2,3.3-32.4,5-48.7s3.3-32.4,5-48.7,3.3-32.4,5-48.7,3.3-32.5,5-48.7a30.89,30.89,0,0,0-2.4-15.3,38.94,38.94,0,0,0-9.5-13.2,54.06,54.06,0,0,0-15-9.8,61.68,61.68,0,0,0-19.1-4.9l41.9-10.5a65.5,65.5,0,0,1,19.8,5.1,55.2,55.2,0,0,1,15.6,10.1,40.31,40.31,0,0,1,9.8,13.7,32.92,32.92,0,0,1,2.5,15.8c-1.7,16.8-3.5,33.6-5.2,50.4s-3.5,33.6-5.2,50.4-3.5,33.6-5.2,50.4C3161.9,436.3,3160.2,453.1,3158.4,469.9Z" transform="translate(-5 -4.7)" style="fill:url(#Dégradé_sans_nom_14)"/><path d="M1318.4,219.7l21.1,10.6c-76.7,6.6-135.7,44.5-178,100.7s-67.8,130.9-77.7,211.1-4.1,165.9,16.4,244.3,55.5,149.5,104.1,200.3l-25.9,16.6c-50.4-52.7-86.7-126.3-107.8-207.6s-27.2-170-16.9-253.1,36.7-160.4,80.5-218.7S1238.9,226.6,1318.4,219.7Z" transform="translate(-5 -4.7)" style="fill:url(#Dégradé_sans_nom_15)"/><path d="M3131.6,223.4l-41.9,10.5c0-.5.1-.9.1-1.4s.1-.9.1-1.4.1-.9.1-1.4.1-.9.1-1.4l41.9-10.7a7.57,7.57,0,0,0-.1,1.5c0,.5-.1,1-.1,1.5s-.1,1-.1,1.5C3131.7,222.4,3131.6,222.9,3131.6,223.4Z" transform="translate(-5 -4.7)" style="fill:#d3ac6e"/><path d="M33.5,215.5l65.7,10.8c-1.1-.2-2.1-.3-3.2-.5l-3.2-.3c-1-.1-2.2-.2-3.3-.2s-2.2-.1-3.3-.1-2.2,0-3.3.1-2.2.1-3.4.2l-3.4.3c-1.1.1-2.3.3-3.4.5L5.9,215.5c1.2-.2,2.4-.4,3.6-.5s2.4-.3,3.5-.3,2.3-.2,3.5-.2,2.3-.1,3.5-.1,2.3,0,3.5.1,2.3.1,3.4.2l3.4.3C31.3,215.1,32.4,215.3,33.5,215.5Z" transform="translate(-5 -4.7)" style="fill:#dda544"/><path d="M1022.5,203.5l31.3,11.2c-1.6-.6-3.1-1-4.8-1.5s-3.3-.8-5-1.1-3.5-.5-5.2-.7-3.6-.2-5.4-.2h-2.5a5.7,5.7,0,0,0-1.3.1,5.7,5.7,0,0,1-1.3.1l-32.2-11.3c.4,0,.9-.1,1.3-.1a5.7,5.7,0,0,0,1.3-.1h2.6c1.9,0,3.8.1,5.6.2a49.87,49.87,0,0,1,5.4.7c1.8.3,3.5.7,5.2,1.1S1020.9,202.9,1022.5,203.5Z" transform="translate(-5 -4.7)" style="fill:#806530"/><path d="M1962.1,260.8l-1.3,9.2a31.67,31.67,0,0,0-2.2-2.9c-1.4-1.9-3.5-4.5-6.3-7.7s-6.2-7-10.2-11-8.6-8.3-13.8-12.6a199.43,199.43,0,0,0-17.1-12.6,154.53,154.53,0,0,0-20.1-11,128.54,128.54,0,0,0-22.9-7.8,110.45,110.45,0,0,0-25.4-2.9,208.22,208.22,0,0,0-33.5,2.8,158.83,158.83,0,0,0-29.1,7.7,120.67,120.67,0,0,0-24.8,12.7,111.47,111.47,0,0,0-20.5,17.6,149.8,149.8,0,0,0-16.4,21.6,139.36,139.36,0,0,0-12.2,24.8,155.64,155.64,0,0,0-7.5,27.8,180.73,180.73,0,0,0-2.5,30.9q1.35,63.15,2.6,126.4t2.6,126.4q1.35,63.15,2.6,126.4t2.6,126.4a32.54,32.54,0,0,0,3.9,14.7,39.35,39.35,0,0,0,10.1,11.9,49,49,0,0,0,14.8,8,55.84,55.84,0,0,0,18.1,2.9l-5.2,13.1a66.57,66.57,0,0,1-19.7-3,51.75,51.75,0,0,1-15.4-8.3,40,40,0,0,1-10.5-12.4,33.52,33.52,0,0,1-4.1-15.2q-1.35-65.55-2.6-131c-.8-43.7-1.8-87.3-2.6-131s-1.8-87.3-2.6-131-1.8-87.3-2.6-131a173.57,173.57,0,0,1,2.6-32,165.76,165.76,0,0,1,7.8-28.9,148.5,148.5,0,0,1,12.6-25.6,155.32,155.32,0,0,1,17-22.4,120.38,120.38,0,0,1,21.3-18.3,132.32,132.32,0,0,1,25.7-13.2,160.76,160.76,0,0,1,30.2-8,222.34,222.34,0,0,1,34.7-2.9,118.39,118.39,0,0,1,26.3,3,127,127,0,0,1,23.7,8,154.93,154.93,0,0,1,20.9,11.4,197.92,197.92,0,0,1,17.7,13c5.4,4.4,10.1,8.9,14.3,13s7.7,8,10.6,11.4,5.1,6.1,6.5,8A38.69,38.69,0,0,0,1962.1,260.8Z" transform="translate(-5 -4.7)" style="fill:url(#Dégradé_sans_nom_16)"/><path d="M2645.3,205.1l25.9-11.5a57.7,57.7,0,0,1,5.8-2.2,62.55,62.55,0,0,1,6.2-1.6c2.1-.4,4.3-.8,6.5-1s4.5-.3,6.8-.3h3.3a4.1,4.1,0,0,1,1.1.1l-27,11.7a3.4,3.4,0,0,1-1-.1h-3c-2.2,0-4.4.1-6.5.3a45.83,45.83,0,0,0-6.3,1,44.39,44.39,0,0,0-6,1.6C2649.1,203.8,2647.1,204.3,2645.3,205.1Z" transform="translate(-5 -4.7)" style="fill:url(#Dégradé_sans_nom_17)"/><path d="M2519,371.7l-20.6,5.4,1.8-36.9,1.8-36.9,1.8-36.9,1.8-36.9a30.27,30.27,0,0,0-3.2-15.1,40.51,40.51,0,0,0-10.1-12.7,52.58,52.58,0,0,0-15.5-9,63.11,63.11,0,0,0-19.4-3.9l19.2-12.1a65.29,65.29,0,0,1,20.1,4,55.25,55.25,0,0,1,16.1,9.3,41.15,41.15,0,0,1,10.5,13.2,31.54,31.54,0,0,1,3.3,15.7c-.6,12.8-1.3,25.5-1.9,38.3s-1.3,25.5-1.9,38.3-1.3,25.5-1.9,38.3S2519.6,358.9,2519,371.7Z" transform="translate(-5 -4.7)" style="fill:url(#Dégradé_sans_nom_18)"/><path d="M2711.1,284.7l-27.3,8.4c-.5,0,6-6.7,16-16.6s23.7-23.2,37.4-36.4,27.5-26.4,37.8-36.4,17.4-16.5,17.5-16.5l31.2-12.2c-.1,0-7.4,6.8-18.1,17.1s-25,24-39.2,37.7-28.3,27.4-38.7,37.7S2710.5,284.6,2711.1,284.7Z" transform="translate(-5 -4.7)" style="fill:url(#Dégradé_sans_nom_19)"/><path d="M1488.7,172.3l15.1,12.3a66.82,66.82,0,0,0-19.4,3.7,52.68,52.68,0,0,0-15.6,8.8,38.11,38.11,0,0,0-10.2,12.6,31.46,31.46,0,0,0-3.3,15.1c.5,12.3,1,24.6,1.5,37l1.5,36.9,1.5,36.9c.5,12.3,1,24.6,1.5,37,.2,4.2.3,8.5.5,12.7s.3,8.5.5,12.7.3,8.5.5,12.7.3,8.5.5,12.7c1.5,36.4,2.9,72.8,4.4,109.2s2.9,72.8,4.4,109.2,3,72.8,4.4,109.2,3,72.8,4.4,109.2a32.44,32.44,0,0,0,4.1,14.4,38.29,38.29,0,0,0,10.1,11.6,49.76,49.76,0,0,0,14.6,7.8,57.52,57.52,0,0,0,16.9,2.8l-11.3,13.3c-10.3,2-14.9-1-20.6-2.9a49.48,49.48,0,0,1-15.1-8,40.78,40.78,0,0,1-10.4-12,35.17,35.17,0,0,1-4.3-14.9c-1.5-37.7-3.1-75.4-4.6-113.1s-3.1-75.4-4.6-113.1-3.1-75.4-4.6-113.1-3.1-75.4-4.6-113.1c-.2-4.4-.4-8.8-.5-13.2s-.4-8.8-.5-13.2-.4-8.8-.5-13.2-.4-8.8-.5-13.2c-.5-12.8-1-25.5-1.6-38.3s-1-25.5-1.5-38.3-1-25.5-1.5-38.3-1-25.5-1.6-38.3a32.1,32.1,0,0,1,3.4-15.6,42.26,42.26,0,0,1,10.6-13.1,54.32,54.32,0,0,1,16.2-9.2A69,69,0,0,1,1488.7,172.3Z" transform="translate(-5 -4.7)" style="fill:url(#Dégradé_sans_nom_20)"/><path d="M2294,196.7l13.3-11.8a40.78,40.78,0,0,1,7.8-5.6,64.74,64.74,0,0,1,9.2-4.3,57.69,57.69,0,0,1,10.3-2.7,68.64,68.64,0,0,1,11.2-.9h2.4l-14.7,12.3h-2.4a61.89,61.89,0,0,0-20.8,3.5,51.61,51.61,0,0,0-8.9,4.1A56,56,0,0,0,2294,196.7Z" transform="translate(-5 -4.7)" style="fill:url(#Dégradé_sans_nom_21)"/><path d="M2476.6,176.4l-19.2,12.1a6.6,6.6,0,0,1,.1-1.4c.1-.5,0-.9.1-1.4a6.6,6.6,0,0,1,.1-1.4c.1-.5,0-.9.1-1.4l19.2-12.3a7.57,7.57,0,0,1-.1,1.5,4971115087958.48,4971115087958.48,0,0,1-.2,3A6.15,6.15,0,0,0,2476.6,176.4Z" transform="translate(-5 -4.7)" style="fill:#d3ac6e"/><path d="M1488.5,166.4l15.1,12.5v5.6l-15.1-12.3a8854798750582.79,8854798750582.79,0,0,0-.2-3c-.1-.5,0-1-.1-1.5A1.81,1.81,0,0,0,1488.5,166.4Z" transform="translate(-5 -4.7)" style="fill:#d3ac6e"/><path d="M2112.2,903.9l-6.5-13.1a58.94,58.94,0,0,0,18.6-2.9,49.48,49.48,0,0,0,15.1-8,38.33,38.33,0,0,0,10.2-11.9,32.54,32.54,0,0,0,3.9-14.7q1.65-79.5,3.2-158.9t3.2-158.9q1.65-79.5,3.2-158.9t3.2-158.9a31.06,31.06,0,0,0-3.6-15,38.45,38.45,0,0,0-10.5-12.4,53.16,53.16,0,0,0-15.8-8.5,64.25,64.25,0,0,0-19.5-3.3l6.9-12.5a62.93,62.93,0,0,1,20.2,3.5,55.34,55.34,0,0,1,16.3,8.8,41.72,41.72,0,0,1,10.9,12.9,32.43,32.43,0,0,1,3.8,15.6q-1.65,82.35-3.3,164.6c-1.1,54.8-2.2,109.8-3.3,164.6s-2.2,109.8-3.3,164.6-2.2,109.7-3.3,164.6a33.18,33.18,0,0,1-4.1,15.2,39,39,0,0,1-10.6,12.4,53.43,53.43,0,0,1-15.7,8.3A69.55,69.55,0,0,1,2112.2,903.9Z" transform="translate(-5 -4.7)" style="fill:url(#Dégradé_sans_nom_22)"/><path d="M2123.8,165.8l-6.9,12.5v-5.6l6.9-12.7v5.8Z" transform="translate(-5 -4.7)" style="fill:#d3ac6e"/><path d="M934.1,331.2a349.21,349.21,0,0,0-6.1-42.4c-2.9-14.6-6.8-29.7-11.4-45.4s-10.2-32.1-16.4-49.4-13.3-35.3-21.1-54.3l-37.6-13.9c8,19.7,15.3,38.4,21.8,56.3s12.2,34.8,17,51.1,8.8,31.9,11.8,47a374.22,374.22,0,0,1,6.3,43.9c3.3,43.7-1.2,94.9-13.6,149.4S851.9,585.9,823,643,756.9,756.2,710.9,807.3,610.2,904.4,546.4,941.1l-47.7,27.4c-14.1,8.1-26.2,15-36.2,20.7s-17.7,10.1-23,13-8,4.5-8.1,4.5L483.2,990s2.7-1.5,7.8-4.4,12.6-7.1,22.2-12.6,21.3-12.2,34.9-19.9,29-16.6,46-26.4c61.6-35.5,114.4-79.9,158.8-129.2A730,730,0,0,0,861.1,638.9c27.9-55,47.6-110.9,59.6-163.6S937.2,373.4,934.1,331.2Z" transform="translate(-5 -4.7)" style="fill:url(#Dégradé_sans_nom_23)"/><path d="M886,108.4l36.1,14.5a79,79,0,0,0-12.3,2,68.9,68.9,0,0,0-11.4,3.6,70.08,70.08,0,0,0-10.3,5,73.8,73.8,0,0,0-8.9,6.2l-37.6-13.9a64,64,0,0,1,9.3-6.5,80.08,80.08,0,0,1,10.6-5.2,85.52,85.52,0,0,1,11.8-3.7A99.14,99.14,0,0,1,886,108.4Z" transform="translate(-5 -4.7)" style="fill:#806530"/><path d="M885.4,102.6l36.1,14.7c0,.5.1.9.1,1.4s.1.9.2,1.4.1.9.2,1.4a6.6,6.6,0,0,1,.1,1.4L886,108.4c-.1-.5-.1-1-.2-1.5s-.1-1-.2-1.5-.1-1-.2-1.5A5.58,5.58,0,0,0,885.4,102.6Z" transform="translate(-5 -4.7)" style="fill:#d3ac6e"/><path d="M564.7,86.9l47.2,15.2c-5.7-1.8-11.6-3.5-17.7-4.9s-12.4-2.6-19-3.6-13.3-1.7-20.2-2.2-14.1-.8-21.5-.8c-3.3,0-6.6.1-10,.2s-6.8.3-10.2.5-7,.5-10.5.8-7.1.7-10.8,1.1c-48,6-84.3,18.6-111.4,35.2s-45.2,37.4-56.9,59.8-17.1,46.2-18.9,69-.1,44.7,2.5,63.1c.8,5.7,5.1,36.8,11.5,82.2s14.7,105.2,23.5,168.1,18,129.1,26.1,187.2,15.1,108.4,19.5,139.5a51.3,51.3,0,0,0,3,11.2,39.38,39.38,0,0,0,5.5,9.4,27.41,27.41,0,0,0,7.6,6.5,19.79,19.79,0,0,0,9.3,2.4h1.3c.4,0,.9-.1,1.3-.1s.9-.1,1.3-.2l1.4-.3-54.2,14.4-1.4.3a6.75,6.75,0,0,1-1.4.2,6.6,6.6,0,0,1-1.4.1h-1.4a20.29,20.29,0,0,1-9.7-2.5,27.67,27.67,0,0,1-7.9-6.7,37.64,37.64,0,0,1-5.7-9.8,44.81,44.81,0,0,1-3.1-11.7c-4.5-32.3-11.8-84.3-20.2-144.6s-18-128.8-27.1-194S267.6,445.1,261,398s-11.1-79.3-11.9-85.2c-2.7-19-4.5-41.7-2.6-65.4s7.5-48.4,19.6-71.5,30.8-44.6,59-61.9,65.6-30.3,115.4-36.5q5.7-.6,11.1-1.2c3.7-.3,7.3-.6,10.9-.8s7.1-.4,10.6-.5,6.9,0,10.3,0c7.7,0,15.1.3,22.3.8s14.2,1.3,20.9,2.3,13.3,2.3,19.6,3.7S558.8,85,564.7,86.9Z" transform="translate(-5 -4.7)" style="fill:url(#Dégradé_sans_nom_24)"/><path d="M816.6,64.6l38.5,16c7.8,3.3,15.2,6.5,21.9,9.8s13,6.4,18.6,9.5,10.6,6.1,14.9,9a116,116,0,0,1,11,8.3l-36.1-14.7A112.2,112.2,0,0,0,874,93.9c-4.5-3-9.7-6.1-15.5-9.4s-12.2-6.5-19.2-9.9C832.3,71.4,824.7,68,816.6,64.6Z" transform="translate(-5 -4.7)" style="fill:#bb924a"/><path d="M3401.4,560.6q3.75-30.45,10.1-58.7,86.55,10.8,173,22.9c16.7,2.3,21.9,18.6,9.8,27a686.75,686.75,0,0,0,94.7-65.2q-131.25-19.35-262.8-35.9c33.3-93.6,98-154.9,209.3-139.3C3765,330,3745.9,435.1,3746,434.9c45.3-45.8,81.6-95.4,98-140.6,0,0-14.7,12.5-28.2,10.4q-188.4-29.4-377.3-52.9l-49.1-6-48.2-5.7c-.2,1.9-.5,3.9-.7,5.8a65.16,65.16,0,0,1,16.2,4c17.3,6.7,21.4,27.9,7.9,39.6-29,25.2-76.4,87.8-87.2,184.1-39.1,364.2,181,519.5,392.5,567.5C3442.2,965.2,3375.5,773.5,3401.4,560.6Z" transform="translate(-5 -4.7)" style="fill:url(#Dégradé_sans_nom_25)"/><path d="M3376.5,253.8c4,.5,7.9.9,11.8,1.4,15.6,1.9,31.6,3.8,49,6,125.4,15.6,252.2,33.4,377,52.9a34.21,34.21,0,0,0,4.6.4,32.82,32.82,0,0,0,6.3-.6A327.49,327.49,0,0,1,3798,359a498.11,498.11,0,0,1-42.1,51.7c-.1-.6-.1-1.3-.2-1.9a112.55,112.55,0,0,0-20.5-55.3c-20.2-27.7-53.3-45-98.4-51.5a246.83,246.83,0,0,0-34.8-2.5c-86.4,0-150.3,51.2-184.8,148l-4,11.1,11.7,1.5c80,10,160.9,21,240.8,32.7q-28.35,21.75-56.9,39.4c-3.4-8.8-12.1-15.3-23.1-16.8-57.3-8-115.6-15.7-173.1-22.9l-8.5-1.1-1.9,8.4c-4.2,18.8-7.7,38.9-10.3,59.7-23.4,191.7,30.1,339.5,152,428.4-54.9-26.1-110.9-63.7-157-118.2-39.5-46.6-68.2-101.5-85.3-163.2-19-68.5-24-146.6-14.8-232,4.7-41.6,16.7-80.4,35.7-115.2,19.5-35.7,40.3-55.8,48.3-62.8a32.37,32.37,0,0,0,10.8-30,30.68,30.68,0,0,0-5.1-12.7m-35.3-13.7c-.2,1.9-.5,3.9-.7,5.8a65.16,65.16,0,0,1,16.2,4c17.3,6.7,21.4,27.9,7.9,39.6-29,25.2-76.4,87.8-87.2,184.1-39.1,364.2,181,519.5,392.5,567.5-227.8-75.8-294.5-267.5-268.5-480.3q3.75-30.45,10.1-58.7,86.55,10.8,173,22.9c16.7,2.3,21.9,18.6,9.8,27a686.75,686.75,0,0,0,94.7-65.2q-131.25-19.35-262.8-35.9c29.8-83.8,84.8-141.7,175.9-141.7a246.78,246.78,0,0,1,33.5,2.4C3764.9,330.2,3746,435.2,3746,435.2h0c45.3-45.8,81.6-95.4,98-140.6,0,0-12.5,10.6-25,10.6-1,0-2.1-.1-3.1-.2q-188.4-29.4-377.3-52.9l-49.1-6c-16.1-2.3-32.2-4.2-48.3-6Z" transform="translate(-5 -4.7)" style="fill:url(#Dégradé_sans_nom_26)"/><path d="M2528.8,173c-17.3-.8-34.6-1.7-51.9-2.4-.1,2-.2,3.9-.3,5.9,28.7,1.3,51.1,20.2,50,42.2q-3.75,76.5-7.5,153.1-114.3-5.55-228.6-9,2.25-76.65,4.6-153.2c.6-22,24.4-39.1,53.1-38.1.1-2,.1-3.9.2-5.9-17.3-.6-34.6-1.1-52-1.7q-60.3-1.8-120.5-3c-17.3-.3-34.7-.7-52-.9,0,2-.1,3.9-.1,5.9,28.7.4,51.6,18.7,51.2,40.7h0l-13.2,658.5h0c-.5,22-22.7,39.3-49.6,38.9,0,2-.1,3.9-.1,5.9,16.3.3,32.5.5,48.8.9q56.55,1.2,113.1,2.8c16.3.5,32.5,1,48.8,1.6.1-2,.1-3.9.2-5.9-26.9-.9-48.2-19.4-47.6-41.3q6.75-226.2,13.5-452.5,113.85,3.45,227.6,9-11.1,226.05-22.2,452.2h0c-1.1,22-23.8,38.7-50.7,37.5-.1,2-.2,3.9-.3,5.9,16.3.7,32.5,1.5,48.8,2.3,37.7,1.8,75.4,3.9,113,6.1,16.2,1,32.5,1.9,48.7,3,.1-2,.2-3.9.4-5.9-26.9-1.7-47.7-20.8-46.4-42.7q19.35-328.8,38.7-657.5h0c1.3-21.9,25.5-38.4,54.2-36.6.1-2,.2-3.9.4-5.9-17.3-1.1-34.6-2.1-51.9-3.2C2609.1,177.1,2568.9,175,2528.8,173Z" transform="translate(-5 -4.7)" style="fill:url(#Dégradé_sans_nom_27)"/><path d="M2165.6,170.1c3.4.1,6.7.1,10.1.2,40,.8,80.5,1.8,120.4,3l10.1.3c-12.3,8.6-20.2,21.3-20.6,35.6l-2.9,96.5-1.7,56.7-.3,9.5,9.5.3c76,2.3,152.8,5.3,228.4,9l9.5.5.5-9.5,3.6-74,3.9-79.1c.6-11.3-3.7-22.5-12-31.6a50.29,50.29,0,0,0-5.8-5.5c3.3.2,6.7.3,10.1.5,39.8,1.9,80.3,4.1,120.3,6.5l9.9.6a48.07,48.07,0,0,0-18,20.6l-2.6-1.6-.9,16-19.7,333.8L2598.3,882c-.8,14.2,5.6,27.5,16.6,37.2l-9.3-.6c-37.6-2.2-75.7-4.3-113.1-6.1-3-.1-6.1-.3-9.2-.4,9.3-6.6,16.1-15.7,19-26.2h1l.4-9,10.8-220,11.4-232.2.5-9.5-9.5-.5c-75.6-3.7-152.2-6.7-227.7-9l-9.5-.3-.3,9.5-2.7,90.5-10.8,362c-.4,14.2,6.4,27.3,17.7,36.7l-9.3-.3c-37.4-1.1-75.5-2.1-113.2-2.8-3-.1-6-.1-9-.2a47.77,47.77,0,0,0,18-26.5h1l.2-9.3,5.7-285.6,7.5-372.9.2-9.7h-1.2a45.66,45.66,0,0,0-11.9-21.5c-1.9-1.7-3.9-3.5-6-5.2m-41.7-10.2c0,2-.1,3.9-.1,5.9,28.7.4,51.6,18.7,51.2,40.7h0L2161.8,865h0c-.5,21.7-22.1,38.9-48.6,38.9h-1c0,2-.1,3.9-.1,5.9,16.3.3,32.5.5,48.8.9q56.55,1.2,113.1,2.8c16.3.5,32.5,1,48.8,1.6.1-2,.1-3.9.2-5.9-26.9-.9-48.2-19.4-47.6-41.3q6.75-226.2,13.5-452.5,113.85,3.45,227.6,9-11.1,226.05-22.2,452.2h0c-1.1,21.2-22.3,37.5-48,37.5a24.37,24.37,0,0,1-2.7-.1c-.1,2-.2,3.9-.3,5.9,16.3.7,32.5,1.5,48.8,2.3,37.7,1.8,75.4,3.9,113,6.1,16.2,1,32.5,1.9,48.7,3,.1-2,.2-3.9.4-5.9-26.9-1.7-47.7-20.8-46.4-42.7q19.35-328.8,38.7-657.5h0c1.2-20.8,23.2-36.7,49.9-36.7,1.4,0,2.9,0,4.3.1.1-2,.2-3.9.4-5.9-17.3-1.1-34.6-2.1-51.9-3.2q-60.15-3.6-120.4-6.5c-17.3-.8-34.6-1.7-51.9-2.4-.1,2-.2,3.9-.3,5.9,28.7,1.3,51.1,20.2,50,42.2q-3.75,76.5-7.5,153.1-114.3-5.55-228.6-9,2.25-76.65,4.6-153.2c.6-21.4,23.1-38.1,50.8-38.1h2.4c.1-2,.1-3.9.2-5.9-17.3-.6-34.6-1.1-52-1.7q-60.3-1.8-120.5-3c-17.5-.4-34.8-.7-52.1-1Z" transform="translate(-5 -4.7)" style="fill:url(#Dégradé_sans_nom_28)"/><path d="M3281.3,233.2c-17.2-1.9-34.5-3.8-51.8-5.6l-45.6-4.8c-17.3-1.8-34.5-3.5-51.8-5.2-.2,1.9-.4,3.9-.6,5.8,28.6,2.8,49.9,22.9,47.7,44.8h0q-10.35,100.8-20.8,201.7c-43.3-121.2-145.8-233.6-334.8-294.9-.3-.2-114.8,109.5-114.5,109.7,17.5-.2,32,2.1,43.6,6.8,17,6.4,20.8,16.1,19.9,29.6q-19.95,284.7-39.8,569.5h0c-1.5,21.9-24.6,38.2-51.5,36.4-.1,2-.3,3.9-.4,5.9l48.7,3.3c14.3,1,28.6,2,42.9,3.1,16.2,1.2,32.5,2.4,48.7,3.7.2-1.9.3-3.9.5-5.8-26.9-2.1-47.4-21.5-45.8-43.4h0q21.3-288.9,42.5-577.9c81.7,5.5,204.1,98.7,265,229.6,61.8,131,62.3,299.6-80.2,457.3,89.9-53.7,157.7-137.6,178.8-333.5h0q21.15-198.15,42.4-396.2c2.3-21.8,27.4-37.1,56-33.9A43.57,43.57,0,0,0,3281.3,233.2Z" transform="translate(-5 -4.7)" style="fill:url(#Dégradé_sans_nom_29)"/><path d="M2826,185.7c206.9,68.8,290.1,194,323.5,287.4l14.1,39.4,4.3-41.7,15.3-148.4,5.5-53.1v-.4l1-10.2h-1.4a45.29,45.29,0,0,0-10-21.7,50.29,50.29,0,0,0-5.5-5.8c3.4.3,6.7.7,10.1,1,15.4,1.6,30.7,3.2,45.6,4.8,3.4.4,6.8.7,10.2,1.1-13.1,7.7-22,19.8-23.5,33.8l-41.5,387.7h0l-.9,8.5c-9.8,91.1-30.2,161.9-62.4,216.2a296.84,296.84,0,0,1-55.9,69c88.1-128,102.3-274.9,37.6-412-29-62.2-74.2-120.9-127.3-165.1-49.9-41.6-103-67.1-145.7-70l-9.4-.6-.7,9.4-28.5,387.7-14,190.2-2.7,36.1c-11.4-.8-22.6-1.6-33.5-2.4l-9-.6a47.21,47.21,0,0,0,19.4-26h.9l.6-8.8L2778.6,370l3.4-48.3c1.3-19.6-6.9-32-25.9-39.1a104,104,0,0,0-25-6.2c26.8-25.6,80.2-76.7,94.9-90.7m-53.5,732.4a53.89,53.89,0,0,0,10.1,12.4c-3.1-.2-6.2-.5-9.3-.7l-7.6-.6,6.8-11.1M2823.7,175c-.5,0-114.8,109.5-114.5,109.7h1.8c16.7,0,30.6,2.3,41.8,6.8,17,6.4,20.8,16.1,19.9,29.6q-19.95,284.7-39.8,569.5h0c-1.5,20.8-22.4,36.5-47.5,36.5-1.3,0-2.6,0-4-.1-.1,2-.3,3.9-.4,5.9l48.7,3.3c14.3,1,28.6,2,42.9,3.1,16.2,1.2,32.5,2.4,48.7,3.7.2-1.9.3-3.9.5-5.8-26.9-2.1-47.4-21.5-45.8-43.4h0q21.3-288.9,42.5-577.9c81.7,5.5,204.1,98.7,265,229.6,61.8,131,62.3,299.6-80.2,457.3,89.9-53.7,157.7-137.6,178.8-333.5h0q21.15-198.15,42.4-396.2c2.1-19.9,23.1-34.3,48.4-34.3a62.82,62.82,0,0,1,7.5.4c.2-1.9.4-3.9.6-5.8-17.2-1.9-34.5-3.8-51.8-5.6l-45.6-4.8c-17.3-1.8-34.5-3.5-51.8-5.2-.2,1.9-.4,3.9-.6,5.8,28.6,2.8,49.9,22.9,47.7,44.8h0q-10.35,100.8-20.8,201.7c-43-121.3-145.5-233.8-334.4-295.1Z" transform="translate(-5 -4.7)" style="fill:url(#Dégradé_sans_nom_30)"/><path d="M1883.1,147.8c-55.4.2-121.2,15.9-181.7,36-103.6,34.3-191.7,81.4-191.7,81.4,1.1,1.8,2.1,3.6,3.2,5.3,37.1-16.1,54.1-3.1,54.5,9.8q8.85,293.7,17.7,587.5h0c.6,22-20.7,40.4-47.6,41.3.1,2,.1,3.9.2,5.9,16.3-.6,32.5-1.1,48.8-1.6,37.7-1.1,75.4-2.1,113.1-2.8l48.8-.9c0-2-.1-3.9-.1-5.9h0c-26.9.4-49.1-16.9-49.6-38.9h0q-5.25-261.9-10.6-523.8c-.2-44.8,14.6-81.2,40-109s62.5-41.9,110.9-42.3c73.7-.5,123.1,70.9,123,70.9q-41.4,59.55-82,119.3-75.15,45-149.1,91,115.8-37,233.1-71.9c-.5-.3,150.5-133.5,158.1-140.9C2122.6,258.6,2041.8,147.3,1883.1,147.8Z" transform="translate(-5 -4.7)" style="fill:url(#Dégradé_sans_nom_31)"/><path d="M1884.1,157.2h0a304.53,304.53,0,0,1,99.3,16.3,301.22,301.22,0,0,1,71.7,36,284.71,284.71,0,0,1,54.2,47.8c-12.9,11.6-42.6,37.9-71.5,63.5l-55,48.8c-8.1,7.2-14,12.5-18.2,16.2-2.3,2.1-4,3.6-5.2,4.7l-.3.3c-52.6,15.6-105.4,31.7-157.9,48.2q41.7-25.5,83.6-50.7l1.8-1.1,1.2-1.7c26.9-39.7,54.5-79.8,81.9-119.2l1.7-2.4v-3c0-3.3-1.3-5.1-4.2-8.8-1.4-1.9-3.8-4.9-6.9-8.5a226.84,226.84,0,0,0-26-25.5c-29.7-24.6-62.4-37.6-94.6-37.6h-.9c-51,.4-90.6,15.7-117.9,45.4-28.4,31-42.8,69.8-42.5,115.4v.2l2.3,116.1,8.2,407.7.2,9.3h1a47.77,47.77,0,0,0,18,26.5c-3,.1-6,.1-9,.2-37.4.8-75.5,1.7-113.2,2.8l-9.3.3c8.6-7.2,14.7-16.5,16.8-26.9h1.2l-.3-9.8-6.7-221.3-11-366.2c-.3-10.9-8-22.4-24.2-25.7,35.2-16.8,91-41.6,151.7-61.6,69.5-23.1,131.3-35.4,178.8-35.5l1.2-.2m0-9.5h-1c-55.4.2-121.2,15.9-181.7,36-103.6,34.3-191.6,81.4-191.7,81.4,1.1,1.8,2.1,3.6,3.2,5.3,12.3-5.3,22.4-7.5,30.4-7.5,16.1,0,23.8,8.7,24,17.3q8.85,293.7,17.7,587.5h0c.6,22-20.7,40.4-47.6,41.3.1,2,.1,3.9.2,5.9,16.3-.6,32.5-1.1,48.8-1.6,37.7-1.1,75.4-2.1,113.1-2.8l48.8-.9c0-2-.1-3.9-.1-5.9h-1c-26.5,0-48.2-17.2-48.6-38.9h0Q1693.35,602.9,1688,341c-.2-44.8,14.6-81.2,40-109s62.5-41.9,110.9-42.3h.8c73.3,0,122.3,70.9,122.2,70.9h0q-41.4,59.55-82,119.3-75.15,45-149.1,91,115.8-37,233.1-71.9c-.5-.3,150.5-133.5,158.1-140.9h0c.5.3-80-110.3-237.9-110.4ZM1509.8,265.2Z" transform="translate(-5 -4.7)" style="fill:url(#Dégradé_sans_nom_32)"/><path d="M1316.1,173.9q-160.2,8.1-320.4,20.4c.1,1.9.3,3.9.4,5.9,16.4-1.3,31.4,3.5,41.6,11.8,10.4,8.6,10.8,23.8,1.4,33.5-84.9,83.8-236.6,578.3,139.2,758-201.5-210.8-178-756.4,140-783.7q3.75,73.65,7.4,147.2l.3,5.7q-85.8,4.35-171.4,9.9h0a405.92,405.92,0,0,0-32.9,80.4s10.6-26.2,49.1-28.7q78.9-5.1,157.9-9,11.4,226.05,22.8,452.2h0c1.1,22-19.9,40.8-46.8,42.3.1,2,.2,3.9.3,5.9,16.2-.9,32.5-1.7,48.7-2.6q56.55-2.85,113.1-5.1c16.3-.7,32.5-1.3,48.8-1.9-.1-2-.1-3.9-.2-5.9-26.9,1-49.5-15.9-50.4-37.9h0l-18.3-452.4c-.7-17.5-1.4-35.1-2.1-52.6q-3.15-76.5-6.2-153.1h0c-.9-21.9,21.6-40.7,50.3-41.8-.1-2-.1-3.9-.2-5.9q-62.55,2.25-125.2,5.2C1347.6,172.3,1331.8,173.1,1316.1,173.9Z" transform="translate(-5 -4.7)" style="fill:url(#Dégradé_sans_nom_33)"/><path d="M1447,177.5a51.23,51.23,0,0,0-5.9,5.5,45.43,45.43,0,0,0-11.4,21.6h-1.2l.4,9.9,3,73.3,3.2,79.8,2.1,52.6,9,222.9,9.3,229.4c.6,14.2,8.3,26.8,20.1,35.4-3.1.1-6.1.2-9.1.4-37.2,1.5-75.3,3.2-113.2,5.1-3.1.2-6.2.3-9.3.5,8.4-7.3,14.3-16.7,16.2-27.1h1.2l-.5-10-2.2-43.6-20.6-408.6-.5-9.5-9.5.5c-52.5,2.6-105.6,5.7-158,9a80,80,0,0,0-27.8,6.6,379.27,379.27,0,0,1,18-39.7c55-3.5,110.9-6.7,166-9.5l9.5-.5-.5-9.5-.1-1.7-.2-3.9-2.7-53.8-4.7-93.3-.5-9.8-9.8.8c-110.5,9.5-196.8,82.1-242.9,204.3-67.2,178-37.1,415.8,65.1,557.2-48.2-29.6-88-66.7-118.5-110.6-34.3-49.3-57.2-107.5-68.2-173-7.4-44.2-9.4-91.6-5.8-140.7a712,712,0,0,1,22-130.1c10-37.7,22.9-73.7,37.3-103.8,13.1-27.5,27-49.2,39.3-61.3l.1-.1.1-.1a33,33,0,0,0,9.4-24.7,31.69,31.69,0,0,0-11.5-22.7,43.87,43.87,0,0,0-5.6-4c92.5-6.8,186-12.6,278.3-17.2,16-.8,31.9-1.6,47.2-2.3q41.7-2.1,83.4-3.7m41.5-11.1q-62.55,2.25-125.2,5.2c-15.8.7-31.5,1.5-47.3,2.3q-160.2,8.1-320.4,20.4c.1,1.9.3,3.9.4,5.9,1.8-.1,3.5-.2,5.2-.2,14.3,0,27.3,4.6,36.4,12,10.4,8.6,10.8,23.8,1.4,33.5-84.9,83.8-236.6,578.3,139.2,758-201.5-210.8-178-756.4,140-783.7q3.75,73.65,7.4,147.2l.3,5.7q-85.8,4.35-171.4,9.9a405.92,405.92,0,0,0-32.9,80.4s10.6-26.2,49.1-28.7q78.9-5.1,157.9-9,11.4,226.05,22.8,452.2h0c1.1,22-19.9,40.8-46.8,42.3.1,2,.2,3.9.3,5.9,16.2-.9,32.5-1.7,48.7-2.6q56.55-2.85,113.1-5.1c16.3-.7,32.5-1.3,48.8-1.9-.1-2-.1-3.9-.2-5.9h-2.2c-25.9,0-47.3-16.6-48.2-37.9l-18.3-452.4c-.7-17.5-1.4-35.1-2.1-52.6q-3.15-76.5-6.2-153.1h0c-.9-21.9,21.6-40.7,50.3-41.8,0-2.1,0-4-.1-6ZM1121.7,462.8Z" transform="translate(-5 -4.7)" style="fill:url(#Dégradé_sans_nom_34)"/><path d="M885.4,102.6C839.8,62.2,632.8-14.8,432.8,9.4,229.3,33.3,40.3,158.7,5,209.7c.3,1.9.6,3.9.9,5.8h0c37.3-5.9,71.1,12.4,75.5,40.6q56.4,369.15,112.7,738.4c4.3,28.4-7.8,39.6-42.7,45.1.4,2.5.8,5,1.2,7.6q139.35-21.9,278.9-40.3s44.4-25,114.8-65.6c255.2-147,365-442.3,352-617-4.5-57-24.9-119.6-56.9-198.4,11.3-9.4,26.9-15.9,44.5-17.4C885.8,106.5,885.6,104.5,885.4,102.6ZM731.6,397.2C729.2,555.8,626.3,785,371.8,937.4c-20.1,12-36.3-5.7-39.3-26.7-18-129.1-83.4-597.9-83.4-597.9-10.7-76-7.7-210.5,191.4-235.3C697.5,47.5,733.2,285.8,731.6,397.2Z" transform="translate(-5 -4.7)" style="fill:url(#Dégradé_sans_nom_35)"/><path d="M511.5,14.2c157.8,0,306.1,53.2,357.2,87.6a86,86,0,0,0-33.2,16.7l-5.4,4.4,2.6,6.4c36,88.5,52.3,145.2,56.3,195.5,3.2,43.3-1.4,94-13.4,146.6-12.9,56.5-33.4,112.8-61,167.3A741.49,741.49,0,0,1,703.9,800.9c-47.8,53.1-102.4,97.5-162.2,132-64.6,37.2-105.1,60.1-113.1,64.6-77.4,10.2-155.6,21.4-233,33.2,8-9.1,10.5-21.1,8-37.8L140.6,580,90.8,254.6c-4.4-28.5-33.6-49.3-69.7-49.7,21.9-23.8,70.6-61,139.1-97.1A879.8,879.8,0,0,1,288.1,52.6C337.9,35.7,387,24.3,434,18.8a648.24,648.24,0,0,1,77.5-4.6m-271.8,300h0c.1.5.1,1,.2,1.7l.7,4.9,2.6,18.5,9.3,66.4c20,143.1,57.7,413.3,70.7,506.4,3.2,22.5,18.2,38.8,35.8,38.8a34.24,34.24,0,0,0,17.7-5.3C641.9,786.7,738.7,551,741,397.4c.8-52.8-6-184.4-86.3-266C611.6,87.7,554,65.5,483.4,65.5h0a373.46,373.46,0,0,0-44,2.7h0c-77.3,9.6-133.4,36.6-166.8,80.2-31.5,41.1-42.6,96.9-32.9,165.8M511.5,4.7a651.45,651.45,0,0,0-78.7,4.6C229.3,33.3,40.3,158.7,5,209.7c.3,1.9.6,3.9.9,5.8h0a83.38,83.38,0,0,1,14-1.1c31.4,0,57.7,17.1,61.5,41.7q56.4,369.15,112.7,738.4c4.3,28.4-7.8,39.6-42.7,45.1.4,2.5.8,5,1.2,7.6q139.35-21.9,278.9-40.3h0c.1,0,44.4-25,114.8-65.6,255.2-147,365-442.3,352-617-4.5-57-24.9-119.6-56.9-198.4,11.3-9.4,26.9-15.9,44.5-17.4-.2-1.9-.4-3.9-.6-5.8-39.5-35.2-201-98-373.8-98ZM359,941.3c-13.9,0-24.1-14.3-26.4-30.6-18-129.1-83.4-597.9-83.4-597.9-10.7-76-7.7-210.5,191.4-235.3a361,361,0,0,1,42.9-2.6c218.2,0,249.7,217.4,248.2,322.3C729.2,555.8,626.3,785,371.8,937.4a24.83,24.83,0,0,1-12.8,3.9Z" transform="translate(-5 -4.7)" style="fill:url(#Dégradé_sans_nom_36)"/><polygon points="1510.5 905.3 1521.7 892 1521.9 897.9 1510.7 911.2 1510.5 905.3" style="fill:#d3ac6e"/><polygon points="1743.3 899.2 1748.5 886.1 1748.6 892 1743.4 905.1 1743.3 899.2" style="fill:#d3ac6e"/></svg>