<?xml version="1.0" encoding="UTF-8" standalone="no"?>
<svg
   version="1.0"
   width="2591.5"
   height="720"
   viewBox="0 0 2591.5 720"
   preserveAspectRatio="xMidYMid meet"
   id="svg219"
   sodipodi:docname="dbz.svg"
   inkscape:version="1.1.2 (0a00cf5339, 2022-02-04, custom)"
   xmlns:inkscape="http://www.inkscape.org/namespaces/inkscape"
   xmlns:sodipodi="http://sodipodi.sourceforge.net/DTD/sodipodi-0.dtd"
   xmlns:xlink="http://www.w3.org/1999/xlink"
   xmlns="http://www.w3.org/2000/svg"
   xmlns:svg="http://www.w3.org/2000/svg">
  <sodipodi:namedview
     id="namedview221"
     pagecolor="#ffffff"
     bordercolor="#666666"
     borderopacity="1.0"
     inkscape:pageshadow="2"
     inkscape:pageopacity="0.0"
     inkscape:pagecheckerboard="0"
     showgrid="false"
     inkscape:zoom="0.41242284"
     inkscape:cx="1296"
     inkscape:cy="358.855"
     inkscape:window-width="1920"
     inkscape:window-height="1017"
     inkscape:window-x="-8"
     inkscape:window-y="-8"
     inkscape:window-maximized="1"
     inkscape:current-layer="svg219" />
  <defs
     id="defs27">
    <linearGradient
       id="lg0"
       gradientUnits="userSpaceOnUse"
       x1="643"
       y1="25.000002"
       x2="643"
       y2="561">
      <stop
         offset="0%"
         style="stop-color:rgb(0,0,0);"
         id="stop2" />
      <stop
         offset="1%"
         style="stop-color:rgb(255,251,0);"
         id="stop4" />
      <stop
         offset="42%"
         style="stop-color:rgb(254,244,0);"
         id="stop6" />
      <stop
         offset="49%"
         style="stop-color:rgb(250,226,1);"
         id="stop8" />
      <stop
         offset="57%"
         style="stop-color:rgb(250,224,16);"
         id="stop10" />
      <stop
         offset="58%"
         style="stop-color:rgb(251,228,14);"
         id="stop12" />
      <stop
         offset="63%"
         style="stop-color:rgb(251,229,2);"
         id="stop14" />
      <stop
         offset="73%"
         style="stop-color:rgb(243,203,7);"
         id="stop16" />
      <stop
         offset="78%"
         style="stop-color:rgb(229,175,8);"
         id="stop18" />
      <stop
         offset="94%"
         style="stop-color:rgb(182,104,0);"
         id="stop20" />
      <stop
         offset="97%"
         style="stop-color:rgb(177,99,0);"
         id="stop22" />
      <stop
         offset="100%"
         style="stop-color:rgb(180,104,1);"
         id="stop24" />
    </linearGradient>
    <linearGradient
       inkscape:collect="always"
       xlink:href="#lg0"
       id="linearGradient1038"
       gradientUnits="userSpaceOnUse"
       x1="643"
       y1="25.000002"
       x2="643"
       y2="561" />
    <linearGradient
       inkscape:collect="always"
       xlink:href="#lg0"
       id="linearGradient1040"
       gradientUnits="userSpaceOnUse"
       x1="643"
       y1="25.000002"
       x2="643"
       y2="561" />
    <linearGradient
       inkscape:collect="always"
       xlink:href="#lg0"
       id="linearGradient1042"
       gradientUnits="userSpaceOnUse"
       x1="643"
       y1="25.000002"
       x2="643"
       y2="561" />
    <linearGradient
       inkscape:collect="always"
       xlink:href="#lg0"
       id="linearGradient1044"
       gradientUnits="userSpaceOnUse"
       x1="643"
       y1="25.000002"
       x2="643"
       y2="561" />
    <linearGradient
       inkscape:collect="always"
       xlink:href="#lg0"
       id="linearGradient1046"
       gradientUnits="userSpaceOnUse"
       x1="643"
       y1="25.000002"
       x2="643"
       y2="561" />
    <linearGradient
       inkscape:collect="always"
       xlink:href="#lg0"
       id="linearGradient1048"
       gradientUnits="userSpaceOnUse"
       x1="643"
       y1="25.000002"
       x2="643"
       y2="561" />
    <linearGradient
       inkscape:collect="always"
       xlink:href="#lg0"
       id="linearGradient1050"
       gradientUnits="userSpaceOnUse"
       x1="643"
       y1="25.000002"
       x2="643"
       y2="561" />
    <linearGradient
       inkscape:collect="always"
       xlink:href="#lg0"
       id="linearGradient1052"
       gradientUnits="userSpaceOnUse"
       x1="643"
       y1="25.000002"
       x2="643"
       y2="561" />
    <linearGradient
       inkscape:collect="always"
       xlink:href="#lg0"
       id="linearGradient1054"
       gradientUnits="userSpaceOnUse"
       x1="643"
       y1="25.000002"
       x2="643"
       y2="561" />
    <linearGradient
       inkscape:collect="always"
       xlink:href="#lg0"
       id="linearGradient1056"
       gradientUnits="userSpaceOnUse"
       x1="643"
       y1="25.000002"
       x2="643"
       y2="561" />
    <linearGradient
       inkscape:collect="always"
       xlink:href="#lg0"
       id="linearGradient1058"
       gradientUnits="userSpaceOnUse"
       x1="643"
       y1="25.000002"
       x2="643"
       y2="561" />
    <linearGradient
       inkscape:collect="always"
       xlink:href="#lg0"
       id="linearGradient1060"
       gradientUnits="userSpaceOnUse"
       x1="643"
       y1="25.000002"
       x2="643"
       y2="561" />
    <linearGradient
       inkscape:collect="always"
       xlink:href="#lg0"
       id="linearGradient1062"
       gradientUnits="userSpaceOnUse"
       x1="643"
       y1="25.000002"
       x2="643"
       y2="561" />
    <linearGradient
       inkscape:collect="always"
       xlink:href="#lg0"
       id="linearGradient1064"
       gradientUnits="userSpaceOnUse"
       x1="643"
       y1="25.000002"
       x2="643"
       y2="561" />
    <linearGradient
       inkscape:collect="always"
       xlink:href="#lg0"
       id="linearGradient1066"
       gradientUnits="userSpaceOnUse"
       x1="643"
       y1="25.000002"
       x2="643"
       y2="561" />
    <linearGradient
       inkscape:collect="always"
       xlink:href="#lg0"
       id="linearGradient1068"
       gradientUnits="userSpaceOnUse"
       x1="643"
       y1="25.000002"
       x2="643"
       y2="561" />
  </defs>
  <g
     fill="#0f0303"
     id="g53"
     transform="translate(-0.5)">
    <path
       d="m 864,719 c 0,-0.5 -1.7,-1 -3.7,-1 -4.5,0 -15.6,-3.8 -21.6,-7.3 -6.8,-4 -16.3,-14.2 -19.7,-21 -11,-22.5 -7.6,-46.8 8.8,-62.9 20.5,-20.3 50.1,-22.4 72.9,-5.2 16.2,12.2 24,33.5 19.8,53.9 -4.5,21.9 -21.9,38.6 -43.2,41.7 -4.6,0.7 -8.3,1.6 -8.3,2 0,0.4 -1.1,0.8 -2.5,0.8 -1.4,0 -2.5,-0.4 -2.5,-1 z"
       id="path29" />
    <path
       d="m 1349,719.1 c -0.8,-0.5 -3.4,-1.1 -5.8,-1.5 -6.3,-0.9 -17.4,-6.8 -24.2,-12.6 -12.3,-10.8 -18,-23.4 -18,-40.1 0,-16.2 6,-30.2 17.2,-40.4 11.7,-10.5 24.8,-15 41.3,-14.3 8.6,0.4 10.9,0.9 16.7,3.7 9.8,4.7 18.2,11.4 23.3,18.6 5.1,7.1 7.6,13.6 9.5,24.3 2.7,15.1 -2.8,32.9 -13.7,44.3 -6.6,7 -16.8,13.3 -23.9,15 -2.7,0.6 -6.2,1.7 -7.7,2.5 -3.1,1.5 -12.3,1.8 -14.7,0.5 z"
       id="path31" />
    <path
       d="m 1717,719.1 c 0,-0.4 -2.6,-1.1 -5.7,-1.4 -13.1,-1.3 -31.1,-14.4 -38.1,-27.4 -8.5,-16 -8.4,-32.7 0.2,-51 6.2,-13 20.7,-24.5 35.5,-27.9 4.6,-1.1 9.7,-1.5 16.7,-1.2 9.6,0.4 10.6,0.7 18.8,4.8 19.7,9.9 29.4,24.1 31.1,45.5 1.3,15.7 -3.9,30.5 -14.2,40.8 -9.3,9.2 -18.7,14.4 -29.5,16.2 -2.1,0.3 -3.8,1 -3.8,1.5 0,0.6 -2.5,1 -5.5,1 -3,0 -5.5,-0.4 -5.5,-0.9 z"
       id="path33" />
    <path
       d="m 732.6,716.9 c -12.4,-2 -27,-12.7 -34.5,-25.2 -5.1,-8.6 -6.4,-13.2 -6.9,-24.4 -0.5,-11.6 1.5,-20.1 7,-30.6 6.3,-11.8 22.4,-23.2 36.4,-25.8 3.3,-0.6 10.2,-0.9 15.4,-0.7 12.5,0.6 21.5,4.6 31.5,13.9 11.4,10.7 15.6,18.6 17.5,33.2 2.2,16.7 -3.1,32.1 -15.3,44.1 -13.6,13.5 -31.3,18.9 -51.1,15.5 z"
       id="path35" />
    <path
       d="m 976.4,716.5 c -10,-2.2 -17.1,-6.2 -25.5,-14.5 -11.3,-11.2 -16,-22.4 -16.1,-38 0,-19 7.5,-33.8 23.2,-45.2 11.2,-8.1 23.6,-11 39,-9.1 7.3,1 10.4,1.9 17.2,5.5 18.6,9.7 28.8,26.5 28.8,47.7 0,16 -4.6,27.7 -15,38.1 -13.9,13.9 -32.8,19.6 -51.6,15.5 z"
       id="path37" />
    <path
       d="m 1099,717.1 c -31.8,-6 -50.8,-41.4 -39.1,-72.9 6,-16.2 22.1,-30.2 38,-33.2 20,-3.7 39,1.8 52,15 10.2,10.3 15.1,22.8 15.1,38.4 0,23.8 -12.8,42 -35.4,50.5 -6.5,2.4 -23,3.6 -30.6,2.2 z"
       id="path39" />
    <path
       d="m 1465.8,717 c -13.1,-2.1 -26.2,-10.8 -34.1,-22.8 -6.2,-9.3 -8.7,-17.9 -8.7,-30.2 0,-19.1 8.1,-34.9 23.2,-45.1 10.2,-6.9 15.3,-8.3 30.8,-8.3 12.3,0.1 14.1,0.3 19.8,2.7 18.9,7.8 30.4,21.7 33.7,40.7 1.6,9.1 0.9,18.8 -2,28.7 -4.1,13.7 -17.9,27.1 -33.3,32.2 -7.2,2.4 -21,3.4 -29.4,2.1 z"
       id="path41" />
    <path
       d="m 611.3,715.5 c -14.7,-3.6 -28.8,-14.7 -35.1,-27.6 -7.2,-14.9 -5.8,-36.9 3.3,-52.5 5.6,-9.6 19.8,-19.8 32.2,-23 29.4,-7.7 60.8,13.3 65.3,43.7 2.7,18.3 -4.9,38.3 -18.6,48.7 -13.5,10.4 -31.6,14.5 -47.1,10.7 z"
       id="path43" />
    <path
       d="m 1219.5,715.6 c -9.2,-2.2 -16.6,-6.6 -24.5,-14.6 -22.2,-22.2 -22.4,-55 -0.6,-77.3 15.9,-16.3 42.6,-20.4 63.5,-9.9 6.7,3.4 18.3,14 21.7,19.8 8.7,14.8 10.2,31.6 4.4,48.2 -8.4,24 -39,40 -64.5,33.8 z"
       id="path45" />
    <path
       d="m 1585.8,715.4 c -11.6,-2.8 -20.8,-8.8 -28.9,-19.1 -18.6,-23.3 -15.9,-54.6 6.4,-74.8 7,-6.4 12,-9 22,-11.6 24.7,-6.4 49.1,3.9 61.9,26.1 5.8,10 8,27.6 4.9,40 -6.8,27.6 -38.2,46.3 -66.3,39.4 z"
       id="path47" />
    <path
       d="M 2023.8,609.2 C 1909.9,609.1 1845,608.6 1845,608 c 0,-0.5 1.3,-2.4 2.9,-4.2 4.1,-4.7 13.6,-15.9 28.6,-33.7 7.2,-8.5 17.3,-20.4 22.5,-26.6 5.2,-6.2 16.1,-19.2 24.2,-28.8 8.1,-9.6 15.3,-18.1 16,-18.8 0.7,-0.8 4.5,-5.2 8.3,-9.9 7.2,-8.8 25.7,-30.8 37,-44 3.5,-4.1 13.9,-16.5 23,-27.5 9.1,-11 18.6,-22.4 21.2,-25.3 2.5,-3 6.4,-7.7 8.7,-10.5 2.2,-2.9 4.9,-6.1 5.9,-7.2 1.1,-1.1 7.4,-8.7 14.1,-16.9 6.6,-8.2 13.9,-17 16.1,-19.6 2.2,-2.6 7.2,-8.7 11,-13.5 3.9,-4.8 8.5,-10.5 10.3,-12.5 1.7,-2.1 3.2,-4.3 3.2,-5 0,-1.1 -2.1,-5.1 -11.5,-22 -8.8,-15.8 -14.1,-24 -15.5,-24 -1.7,0 -82.7,81.2 -141.7,142.3 -15.1,15.5 -16.1,16 -12.9,5.6 0.7,-2.4 1.8,-6.6 2.4,-9.4 0.6,-2.7 3.4,-15.3 6.2,-28 2.9,-12.6 5.8,-25.7 6.5,-29 1.4,-6.3 6.8,-30.1 8.5,-37 0.5,-2.2 1.6,-7.1 2.5,-11 0.8,-3.8 2,-8.8 2.5,-11 0.6,-2.2 4.6,-20 9,-39.5 8.2,-35.9 8.9,-39.2 13.4,-58 3.5,-14.7 13.6,-58.7 14.6,-63.5 0.5,-2.2 2.4,-10.5 4.4,-18.5 1.9,-8 4.6,-19.7 6.1,-26 1.4,-6.3 4.1,-17.8 6,-25.5 5.4,-22.3 8.3,-34.5 10,-42.2 l 1.7,-7.3 h 290.9 c 160,0 290.9,0.3 290.9,0.7 0,0.3 -0.7,1.3 -1.5,2.2 -0.8,0.9 -5.4,6.1 -10.2,11.7 -4.9,5.5 -11.3,12.9 -14.3,16.4 -3,3.4 -6.8,7.9 -8.5,10 -1.6,2.1 -8.6,10.4 -15.5,18.5 -6.9,8.1 -15,17.8 -18,21.5 -3,3.8 -12,14.6 -20,24.2 -13.3,15.7 -24.7,29.6 -37.1,44.7 -2.5,3.1 -15.2,18.7 -28.3,34.6 -13,16 -26,31.9 -28.9,35.4 -2.9,3.5 -7.9,9.7 -11.2,13.6 -3.3,4 -10.5,12.8 -16,19.6 -5.5,6.7 -11.6,14.1 -13.5,16.4 -1.9,2.3 -6.9,8.4 -11,13.5 -4.1,5.1 -11.7,14.2 -16.8,20.4 -5.1,6.1 -9.7,11.8 -10.1,12.6 -0.9,1.7 13.6,30.1 15.7,30.8 1.1,0.3 8.9,-6.2 24.7,-20.8 3.3,-3 9.8,-8.9 14.5,-13 4.6,-4.1 12.9,-11.5 18.3,-16.5 5.4,-4.9 13.5,-12.2 18,-16.2 4.5,-4 14.3,-12.6 21.7,-19.3 37.1,-33.2 80.1,-70.2 80.7,-69.6 0.3,0.3 -2,7.8 -5,16.8 -3,9 -8.9,27.1 -13.2,40.3 -4.2,13.2 -9,27.8 -10.5,32.5 -1.6,4.7 -6.8,20.7 -11.5,35.5 -4.8,14.9 -11.3,35.1 -14.5,45 -3.2,9.9 -7.9,24.8 -10.5,33 -2.6,8.3 -8,25.1 -12,37.5 -4,12.4 -9.1,28.1 -11.3,35 -5.9,18.6 -24,74.3 -35.4,109 -5.4,16.8 -10.1,31.1 -10.3,31.8 -0.4,0.9 -17.3,1.2 -79.7,1.3 -43.6,0.1 -85.8,0.2 -93.8,0.3 -8,0 -94.9,0 -193.2,-0.2 z m 237.3,-183.4 c 1.5,-1.3 28.6,-30.2 32.3,-34.6 l 2,-2.3 -12.9,0.2 c -11.9,0.1 -18.5,1.1 -18.5,2.8 0,0.4 -0.8,1.6 -1.7,2.7 -1,1 -5.7,6.4 -10.4,11.9 -4.8,5.5 -10.3,11.7 -12.3,13.9 -2,2.1 -3.6,4.2 -3.6,4.7 0,1.8 23,2.4 25.1,0.7 z M 2184,206 c 7.4,-8.9 13.9,-16.8 14.5,-17.4 0.7,-0.6 1.7,-2.1 2.4,-3.4 l 1.2,-2.2 h -29.8 -29.7 l -17.8,17.7 c -9.8,9.8 -17.8,18.4 -17.8,19.3 0,1.3 4.2,1.5 31.8,1.9 l 31.8,0.3 z"
       id="path49" />
    <path
       d="m 387,597.4 c -1.1,-2.6 -2,-4.9 -2,-5.1 0,-0.3 -2.5,-5.6 -5.5,-11.9 -3.4,-6.9 -6.1,-11.4 -7,-11.4 -0.8,0 -1.5,0.1 -1.6,0.3 0,0.1 -0.6,4.3 -1.2,9.2 l -1.2,9 -5.5,-0.3 c -37.9,-1.8 -65,-3.4 -106,-6.2 -8.5,-0.5 -18.4,-1.1 -22,-1.2 l -6.5,-0.3 -0.8,-12.5 c -0.4,-6.9 -1,-13.5 -1.3,-14.7 -0.5,-2.6 -1.4,-2.4 -9.3,2.5 -15.5,9.5 -48.9,24.5 -65.1,29.3 -7.1,2.2 -33.3,7.9 -33.8,7.4 -0.1,-0.1 -2.1,-11.9 -4.2,-26.1 -6.1,-39.5 -9.7,-62.3 -14,-87.4 -0.6,-3 -2.6,-15.4 -4.5,-27.5 -1.9,-12.1 -4,-24.5 -4.5,-27.5 -0.6,-3 -2.4,-13.6 -4.1,-23.5 -4,-24.2 -9,-53.5 -13.4,-79 -2,-11.5 -4,-23.2 -4.5,-26 -1.1,-6.9 -3,-17.6 -3.6,-20.2 -0.4,-2.1 -1,-2.2 -11.6,-2.5 l -11.2,-0.3 -0.8,-4 C 41.3,265.3 40.3,259.2 39.5,254 36.8,236.7 30,193.6 29.1,188 c -0.5,-3 -1.4,-8.6 -2,-12.5 -1.7,-11 -5,-32.1 -6.6,-42 -3,-18.2 -9.4,-58.7 -12,-76 C 7.7,52 6.5,44.8 5.9,41.5 3.2,25.6 0.8,10.3 0.7,8 L 0.5,5.5 28,5.6 c 23.7,0 29.2,0.3 39.8,2.2 63.5,11.3 112.8,33.9 165.7,75.9 7.1,5.7 13.2,10.3 13.6,10.3 0.7,0 2.8,-16.2 3.2,-24.5 l 0.2,-5 4.5,-0.7 c 2.5,-0.3 14.1,-0.7 25.8,-0.7 24.7,-0.1 40.2,1.8 61.9,7.5 37.2,9.7 72,29.3 100.8,56.8 5.5,5.3 10.5,9.6 11.2,9.6 0.7,0 1.7,-1.9 2.3,-4.2 2.1,-8.5 -5.6,-9 66.5,4.1 3.3,0.6 13.4,2.5 22.5,4.1 9.1,1.7 17.9,3.3 19.5,3.6 1.7,0.2 7.1,1.2 12,2.1 5,0.8 10,1.8 11.3,2.2 1.9,0.5 3.4,4.3 11.3,27.6 8.1,24.3 13.2,41.3 20,66.3 1.2,4.5 2.5,8.2 2.9,8.2 0.3,0 2.4,-2.8 4.5,-6.2 14.8,-23.2 42.2,-47.7 65.5,-58.5 11.9,-5.5 13.4,-6.1 23,-8.8 40.4,-11.3 89.2,-3.9 127.5,19.4 15.9,9.7 34.2,25.5 43.2,37.2 4.2,5.6 5.8,5.9 13,2.8 16.3,-7.1 42.3,-11.9 64,-11.9 22.5,0 50.1,6.3 68.3,15.5 2.9,1.5 5.4,2.5 5.5,2.3 0.5,-0.4 1.8,-11.6 4.5,-37.8 1.2,-10.7 2.3,-20.1 2.5,-20.7 0.3,-1 5.7,-1.1 23.2,-0.7 12.5,0.3 24.6,0.7 26.8,0.9 2.2,0.3 12,0.8 21.8,1.1 l 17.8,0.7 5.3,10.6 c 15.4,30.2 22.5,43.6 23.4,43.9 1.4,0.4 2,-4.7 3.2,-30.3 0.6,-12.1 1.2,-22.1 1.4,-22.2 0.1,-0.2 20.7,0.2 45.8,0.8 35,0.9 47,0.9 51.9,0 3.5,-0.7 9.8,-1.9 13.9,-2.6 29.7,-5.7 64,-9.5 84.9,-9.5 30.2,0 60.6,6.3 82.5,17.1 4.3,2.1 8.2,3.7 8.6,3.4 0.4,-0.2 2,-6.3 3.5,-13.4 3.2,-14.9 1.4,-13.4 17.5,-15.1 18.3,-1.9 28.6,-3.1 40.5,-4.5 6.6,-0.8 16.3,-1.9 21.5,-2.4 5.2,-0.6 16.8,-2 25.8,-3.1 9,-1.1 17.8,-2 19.5,-2 h 3.3 l 1.8,10.2 c 1,5.7 2.2,11.6 2.7,13.2 0.5,1.6 0.9,4.1 0.9,5.5 0,2.7 2.4,13.2 3.7,16.1 0.7,1.6 1.6,-4.1 3.2,-21.5 1.5,-15.9 3,-26.8 3.9,-27.6 0.4,-0.4 3.4,-1.2 6.7,-1.7 3.3,-0.6 10.5,-2.1 16,-3.2 5.5,-1.2 12.3,-2.5 15,-3 2.8,-0.5 14,-2.5 25,-4.5 21.3,-3.8 52.6,-8.7 53.1,-8.3 0.1,0.2 -0.2,5.9 -0.7,12.8 -1.2,16.9 -3.6,52.2 -5.3,79.3 -3.1,47.2 -3.6,55.7 -4.6,69.7 -0.6,8 -1.5,21.5 -2.1,30 -0.5,8.5 -1.2,18.1 -1.6,21.3 l -0.6,5.8 4.4,-0.7 c 2.4,-0.4 4.6,-0.8 4.8,-1 0.3,-0.3 2.7,-14.3 7.1,-41.4 2.7,-17.2 8.8,-55.7 10,-63.5 0.5,-3.3 1.9,-12.1 3,-19.5 1.2,-7.4 2.8,-17.5 3.5,-22.5 0.8,-4.9 1.8,-11.9 2.4,-15.5 2.8,-18.3 7.3,-47.5 8.5,-55.3 0.8,-4.9 1.7,-9.2 2.2,-9.7 0.8,-0.7 33.1,-9.3 45.4,-12 1.9,-0.5 10.7,-2.6 19.5,-4.8 8.8,-2.2 23.7,-5.9 33,-8.2 9.4,-2.2 19.8,-4.8 23.3,-5.7 3.5,-0.8 6.6,-1.3 6.8,-1 0.3,0.3 -0.6,6.7 -2,14.3 -1.4,7.7 -3,16.8 -3.6,20.4 -0.7,3.6 -2,11 -3,16.5 -1,5.5 -2.1,11.6 -2.4,13.5 -0.3,1.9 -1.2,7.1 -2,11.5 -0.8,4.4 -2.6,14.3 -4,22 -1.4,7.7 -3.2,17.4 -4,21.5 -1.5,7.8 -2,10.3 -6.2,33.5 -1.4,7.7 -3.2,17.6 -4,22 -0.8,4.4 -1.9,10.5 -2.4,13.5 -0.5,3 -1.6,8.9 -2.4,13 -1.6,8.7 -6,32.6 -8.1,45 -2.8,15.5 -3.5,19.4 -5.4,30 -2.7,14.9 -2.9,17.5 -1.1,17.4 1.6,-0.1 26,-4.9 32.5,-6.4 3.8,-0.9 35.4,-7.1 42.4,-8.4 2.4,-0.4 3.2,-0.3 2.8,0.7 -1.2,3.2 -5.8,26.1 -28.7,142.7 -5,25.6 -9.7,48.5 -10.4,51 l -1.3,4.5 -91.7,0.3 -91.6,0.2 v -3.4 c 0,-3.5 2.2,-23.1 4,-34.8 1.4,-9.6 1.4,-9.8 -1.9,-9.8 -2.5,0 -15.2,2.1 -22,3.6 -2.6,0.6 -2.6,1.7 0.6,18.2 0.8,4.6 1.3,8.5 1,8.8 -0.3,0.3 -6.5,1.4 -13.9,2.5 -12.6,1.8 -20.2,3.1 -71.3,11.4 -34.1,5.6 -40,6.4 -40.7,5.6 -0.5,-0.4 -1.2,-4.1 -1.8,-8.1 -0.5,-4.1 -2.3,-18.3 -4,-31.5 -3.6,-28.8 -3.8,-29.5 -5.6,-29.5 -0.8,0 -1.4,0.3 -1.4,0.8 -0.1,4 -6.1,49.1 -9.3,69 -1.1,7 -1.2,7.3 -3.7,6.8 -1.4,-0.3 -7.9,-0.7 -14.5,-1.1 -6.6,-0.3 -17.2,-1 -23.5,-1.5 -6.3,-0.5 -21.6,-1.7 -34,-2.5 -12.4,-0.9 -26.3,-2 -31,-2.6 -6.8,-0.8 -13.2,-0.6 -31.9,1.1 -27.9,2.4 -48.9,2.6 -66.6,0.5 -18.8,-2.2 -18.9,-2.2 -19.7,-7.6 -0.6,-4.1 -3.4,-31 -5.9,-57.9 -0.6,-6.3 -1.7,-17.3 -2.5,-24.5 -0.8,-7.1 -1.4,-14.7 -1.4,-16.7 0,-5.2 -1.8,-4.8 -2.4,0.5 -0.7,5.8 -1.6,52.6 -1.6,84.5 V 577 h -52.7 -52.8 l -7.9,-14 c -4.4,-7.7 -8.3,-14 -8.7,-14 -1.8,0 -2.7,3.4 -3.3,13.5 -0.3,6 -0.9,11.2 -1.4,11.6 -1.7,1.7 -145.6,3.8 -146.5,2.2 -0.2,-0.5 0,-4.4 0.4,-8.8 1.7,-15.8 3,-31.7 2.7,-32.1 -0.2,-0.1 -4.3,0.6 -9.1,1.6 -15,3.3 -36.2,4.6 -52.8,3.2 -21.7,-1.8 -30.7,-4.5 -51.8,-15.2 l -11.6,-5.9 -9.5,9.4 c -5.2,5.1 -12,11.3 -15,13.7 -22.8,18.3 -51.3,30.6 -80.5,34.9 -11.9,1.8 -37.2,1.5 -48.5,-0.5 -10.7,-1.9 -27.6,-7.4 -36.3,-11.7 -3.2,-1.7 -6.1,-2.8 -6.5,-2.5 -0.4,0.2 -11.8,2 -25.2,4 -13.5,2 -31.7,4.7 -40.5,6 -8.8,1.4 -19.1,3 -23,3.6 -3.8,0.5 -11.3,1.7 -16.5,2.4 -5.2,0.8 -11.7,1.8 -14.5,2.1 -2.7,0.4 -5.9,0.9 -7.1,1.1 -1.9,0.5 -2.2,-0.3 -4.3,-10.8 -3.4,-17.6 -3.8,-20 -7.7,-42.3 -5.1,-29.9 -5.4,-31.5 -6.5,-31.5 -1.5,0 -2.6,3.6 -4.6,15 l -1.9,10.5 -5.7,0.3 c -3.3,0.2 -5.7,0.8 -5.7,1.4 0,0.6 3.4,6.9 7.5,13.9 4.1,7 7.5,13.1 7.5,13.6 0,0.4 -11.4,4.7 -25.2,9.5 -13.9,4.8 -37,12.7 -51.3,17.6 -37.6,12.9 -68.5,23.2 -69.8,23.2 -0.3,0 -1.5,-2.1 -2.7,-4.6 z"
       id="path51" />
  </g>
  <g
     fill="#b80007"
     id="g115"
     transform="translate(-0.5)">
    <path
       d="m 864,719 c 0,-0.5 1.1,-1 2.5,-1 1.4,0 2.5,0.5 2.5,1 0,0.6 -1.1,1 -2.5,1 -1.4,0 -2.5,-0.4 -2.5,-1 z"
       id="path55" />
    <path
       d="m 1350,719.2 c 0,-0.4 3,-0.9 6.6,-1 4.5,-0.2 6.4,0 5.9,0.7 -0.7,1.2 -12.5,1.5 -12.5,0.3 z"
       id="path57" />
    <path
       d="m 1717,719 c 0,-0.5 2.5,-1 5.5,-1 3,0 5.5,0.5 5.5,1 0,0.6 -2.5,1 -5.5,1 -3,0 -5.5,-0.4 -5.5,-1 z"
       id="path59" />
    <path
       d="m 857.5,714.5 c -7.6,-1.5 -10.3,-2.8 -19.1,-8.7 -9,-6.1 -15.1,-13.7 -18.6,-23.1 -2.3,-6.2 -2.7,-8.8 -2.7,-18.3 -0.1,-18.2 3.8,-27.5 16.4,-38.5 13.3,-11.6 30.4,-15.7 45.8,-10.9 10.3,3.2 23,11.2 27.7,17.4 8.2,10.8 11.8,23.6 10.6,37.5 -0.7,9.3 -1.9,12.6 -7.5,21.9 -4.5,7.5 -8.5,11.6 -16.1,16.4 -9.3,5.9 -25,8.7 -36.5,6.3 z m 28,-25 c 1.4,-1.3 2.5,-3.6 2.5,-5.1 0,-1.4 1.2,-7.2 2.6,-12.8 1.6,-6.2 2.4,-11.3 2.1,-12.9 -1,-3.6 -6.6,-10.8 -10.2,-12.8 -3.5,-2.1 -15.6,-2.6 -30.5,-1.4 -13.4,1.1 -17,3.4 -8.8,5.5 4.2,1.2 5,1.1 19.8,-1.6 10.1,-1.9 15.6,-0.9 20.1,3.5 2.7,2.7 2.8,3 2.6,13.3 -0.2,8 -0.7,11.1 -2,13.1 -1,1.5 -2.1,2.7 -2.5,2.7 -1.9,0 -6.1,5.1 -5.5,6.8 1.6,4.6 6.2,5.4 9.8,1.7 z m -24.7,-0.1 c 7.6,-1.7 10.7,-3.8 8.1,-5.5 -1.3,-0.9 -21.2,-0.4 -27.1,0.7 -2.7,0.5 -4.5,3.5 -3.3,5.4 1,1.5 14.4,1.2 22.3,-0.6 z M 893,641.5 c 0,-2.4 -2.5,-4.5 -5.4,-4.5 -2.4,0 -1.9,3.7 0.6,5.4 3.2,2.3 4.8,2 4.8,-0.9 z m 7.8,-5.2 c 0.2,-1.3 -0.7,-2.9 -2.4,-4.2 -3.2,-2.5 -5.9,-2.8 -5,-0.5 0.3,0.9 0.6,1.9 0.6,2.3 0,1.4 4.2,5.2 5.3,4.8 0.7,-0.2 1.3,-1.3 1.5,-2.4 z"
       id="path61" />
    <path
       d="m 1343,714.2 c -11.1,-3.2 -15.5,-5.7 -23.4,-13.4 -12.6,-12.4 -17,-25.5 -14.9,-43.3 1.5,-12.1 6.1,-21.3 15.5,-30.5 9.4,-9.4 15.9,-12.4 29.5,-13.5 14.6,-1.2 30.2,3.6 39.5,12.3 5.1,4.7 12.2,15.7 14.5,22.5 2.1,5.9 2.8,21 1.4,27.9 -2.5,12 -10.8,23.6 -22.3,31.6 -10.2,7 -27.7,9.8 -39.8,6.4 z m 27,-22.3 c 1.9,-1 5.6,-2.7 8.2,-3.8 3.1,-1.3 5.2,-2.9 6.2,-4.9 2.7,-5.2 6.5,-18.2 5.5,-18.8 -1.9,-1.1 -3.7,1.7 -4.3,6.6 -0.6,4.5 -1.1,5.4 -5.4,8.5 -9.2,6.7 -17.1,5.6 -19.2,-2.7 -2.9,-11.8 -3.3,-12.9 -4.3,-11.9 -1.6,1.6 -0.3,23.1 1.7,26.9 1.6,3 2,3.3 4.9,2.6 1.8,-0.3 4.8,-1.5 6.7,-2.5 z m -36.8,0.2 c 1.3,-1.1 3.7,-4.2 5.2,-7.1 2.4,-4.3 3,-7 3.7,-16.3 0.5,-6.2 1.2,-13.1 1.5,-15.5 0.8,-5.5 0.1,-8 -3.2,-11.6 l -2.8,-2.9 -2.3,2.7 c -3,3.5 -2.9,4.5 0.9,10.6 2.6,4.1 3.1,6.1 3.1,10.8 0,7.7 -2.4,14.5 -7.8,21.7 -2.5,3.3 -4.5,6.8 -4.5,7.7 0,2.4 3.1,2.3 6.2,-0.1 z m 26.7,-37.3 c 0.5,-1.3 1.7,-5.3 2.7,-9 1.6,-6.3 1.6,-6.9 0,-9.3 -3.6,-5.4 -8.9,-0.9 -6.7,5.8 0.7,1.9 0.9,5.2 0.5,7.5 -1,6.5 1.5,10 3.5,5 z"
       id="path63" />
    <path
       d="m 1712,715 c -11,-2 -18.3,-6.1 -28,-16 -7.7,-7.8 -11.3,-15.4 -13.1,-27.5 -1.6,-10.9 -0.1,-19.8 5.2,-30.3 5.1,-10.1 9.9,-15.7 17.7,-20.5 8.4,-5.2 13.3,-6.7 23.2,-7.4 15.6,-1 29.2,3.9 39.6,14.2 7.5,7.5 11.8,15 14.4,25.1 2.4,9.3 2.5,15.9 0.5,23.9 -5.2,20.2 -21.8,35.7 -41.2,38.5 -7.8,1.1 -11.9,1.1 -18.3,0 z m -1,-20 c 0.6,-1.1 1.3,-6.4 1.7,-11.7 0.6,-9.8 2.4,-15.4 5.7,-18.2 1.9,-1.6 1.1,-3.7 -2.7,-7.8 -2.7,-2.9 -3.1,-4.1 -3.7,-11.6 -0.7,-8.9 -1.3,-10.7 -3.6,-10.7 -1.3,0 -1.9,1.3 -1.5,3.4 0.5,2.8 0.1,47.2 -0.5,52.4 -0.6,5.9 -0.5,6.2 1.4,6.2 1.2,0 2.6,-0.9 3.2,-2 z m 34.8,-22.6 c 1.2,-0.4 2.2,-1.2 2.2,-2 0,-1.9 -3.4,-3.5 -9.9,-4.4 -3.1,-0.5 -7.2,-1.2 -9.1,-1.6 l -3.5,-0.6 2,2 c 2.7,2.7 11.5,7.2 14,7.2 1.1,0 3,-0.3 4.3,-0.6 z"
       id="path65" />
    <path
       d="m 615,713.4 c -13.6,-2.9 -24.3,-10.6 -32.9,-23.5 -4.8,-7.2 -5.9,-10.7 -7,-21.8 -1.5,-15.1 3.6,-28.5 15.2,-40.2 7.3,-7.3 15.1,-11.3 25.2,-12.9 40.6,-6.5 70.6,33.9 53.4,71.8 -5.9,13 -21.1,23.8 -37.7,26.8 -9.1,1.6 -8.1,1.6 -16.2,-0.2 z m -6.4,-18.9 c 0.7,-1.9 1.4,-5.3 1.4,-7.6 0,-7.8 2.1,-16.9 4.6,-19.9 3.1,-3.7 3,-4.7 -1.1,-9.9 -3.1,-3.9 -3.5,-5 -3.5,-10.5 0,-6.5 -1.6,-10.9 -4,-11.4 -1.3,-0.2 -1.5,3.9 -1.4,30.5 0.1,17 0.2,31.1 0.3,31.6 0.3,1.9 2.3,0.3 3.7,-2.8 z m 37.2,-23.7 c 0.4,-2.3 -2.9,-3.9 -10.2,-4.9 -3.4,-0.5 -7.3,-1.1 -8.8,-1.5 -4.3,-1 -3.3,1.1 2,4.3 6.9,4.1 7.3,4.2 12.2,4 3.3,-0.1 4.6,-0.6 4.8,-1.9 z m 0,-24.3 c 0.3,-2.5 -3.3,-6 -7,-6.9 -3.8,-0.9 -3.7,1.3 0.3,5.9 3.4,3.8 6.2,4.2 6.7,1 z m 4.5,-7.2 c 1.1,-1 -4.4,-6.3 -6.5,-6.3 -2.1,0 -2.5,3.9 -0.6,5.8 1.3,1.3 6,1.6 7.1,0.5 z"
       id="path67" />
    <path
       d="m 733.3,713.6 c -15.4,-3.8 -29.5,-16 -35.4,-30.7 -6.9,-17.4 -2.9,-38.7 9.7,-52.8 5.3,-5.9 13.7,-11.9 20.4,-14.5 5.7,-2.3 19.7,-3.2 27.5,-1.7 17.8,3.3 33.3,18.6 39,38.5 5.1,17.5 -3,40.2 -18.3,51.4 -8.4,6.2 -11.2,7.6 -18.9,9.6 -7.1,1.9 -16.7,1.9 -24,0.2 z m 12,-18.2 c 7,-2.4 14.7,-9.3 14.7,-13 0,-0.2 -3.5,1.4 -7.9,3.5 -4.3,2.2 -10.8,4.9 -14.5,6.1 -6.8,2.2 -8.2,3.2 -7.1,5 0.8,1.3 9.3,0.3 14.8,-1.6 z m 23.4,-23.8 c 6,-8.7 6.1,-14.5 0.3,-18.3 -2.8,-2 -4.6,-2.3 -12.6,-2.3 -5.1,0 -12.3,0.6 -16.1,1.4 -3.7,0.8 -10.4,1.7 -14.8,2.1 -8.9,0.8 -10.5,1.6 -10.5,5.2 0,2.9 -1.7,3 20.5,-1.1 16,-3 19.5,-3.2 23.3,-1.2 6.4,3.3 7,5.4 4.6,16.5 -1,4.7 1.1,3.8 5.3,-2.3 z m -7.9,-31.2 c 2.5,-0.4 3.2,-1 3.2,-2.8 0,-2.1 -0.6,-2.4 -5.1,-3 -5.6,-0.8 -13.3,0.1 -16.4,1.8 -1.1,0.6 -6,1.1 -11,1.1 -8.4,0 -9,0.1 -9.3,2.1 -0.3,2.2 -0.2,2.2 17.5,1.7 9.8,-0.2 19.3,-0.6 21.1,-0.9 z"
       id="path69" />
    <path
       d="m 981,714 c -20.8,-3.6 -36.4,-19.1 -43,-42.4 -2.2,-8 -2.2,-17.7 0.1,-19.1 0.5,-0.4 0.9,-1.3 0.9,-2.2 0,-3.9 7.8,-16.9 14,-23.2 16.2,-16.5 37.3,-19.7 59,-8.9 20.3,10.1 29.8,28.3 27.3,52 -1.4,12.4 -5,19.6 -14.4,28.9 -13,12.7 -27.7,17.7 -43.9,14.9 z m -8,-21.6 c 4.6,-1 8.2,-2.6 11.2,-4.9 2.9,-2.3 6.9,-4 12.2,-5.4 7.7,-1.9 8.2,-2.2 16.2,-10.2 7.7,-7.7 10.5,-12.4 8.8,-15 -0.3,-0.5 -4,2.7 -8.2,7 -4.5,4.6 -9.9,8.9 -12.9,10.5 -2.8,1.4 -5.4,3 -5.8,3.6 -1.6,2.6 -8.6,4.9 -17.8,5.8 -10.5,1 -13.7,2.6 -13.7,6.7 0,4 0.5,4.1 10,1.9 z m 9,-39.6 c 0,-2.8 -9.8,-12.5 -13.6,-13.4 -3.6,-0.9 -5.8,0.6 -6.2,4.3 -0.2,2.4 0.4,3.5 3.2,5.7 4.7,3.6 9.4,5.5 13.4,5.6 2.6,0 3.2,-0.4 3.2,-2.2 z"
       id="path71" />
    <path
       d="m 1100.9,714.6 c -0.2,-0.2 -1.8,-0.6 -3.5,-0.9 -4.3,-0.7 -8.8,-3.1 -17,-9.2 -14.7,-11 -20.1,-21 -20.7,-38.5 -0.5,-11.3 1.4,-18.6 7.1,-27.8 6.1,-9.9 12.1,-15.6 21.2,-20.2 13.6,-6.9 31.9,-6.5 46.3,1 11.4,5.9 21.3,17.7 24.8,29.5 1.8,5.8 2.1,8.8 1.7,18 -0.5,11.9 -1.7,15.7 -7.7,25.9 -2.5,4.1 -5.5,7.4 -10.5,11.1 -8.7,6.5 -11.5,7.9 -19.3,9.9 -5.4,1.4 -21.3,2.3 -22.4,1.2 z m 10.7,-23.2 c 1.5,-2.2 1.6,-3.3 0.6,-8.8 -2.1,-11.2 -1.7,-13.1 3.2,-18.4 4.4,-4.7 4.5,-4.7 12.3,-5.2 6.4,-0.4 7.8,-0.8 8.1,-2.3 0.5,-2.3 -4.3,-4.3 -12.5,-5.2 -8.4,-0.9 -12.3,-4.3 -12.3,-10.7 0,-2.3 -0.5,-5 -1,-5.8 -1.6,-2.4 -4,1.5 -4,6.5 0,6.6 -5.9,10.8 -17.6,12.4 -7.2,1.1 -9.3,2.6 -6.8,5.1 1.1,1.2 3.5,1.4 10,1.2 l 8.5,-0.3 3.5,3.5 3.4,3.4 v 13.6 c 0,11.3 0.2,13.6 1.5,13.6 0.8,0 2.2,-1.2 3.1,-2.6 z m -23.3,-5.6 c 2.7,-3.6 1.5,-7.8 -2.7,-9.3 -2.3,-0.8 -3,-0.6 -4.2,1 -1.7,2.2 -1.8,6.8 -0.3,9.6 1.4,2.7 4.7,2.1 7.2,-1.3 z m 50.2,2.2 c 1.7,-2.7 0.7,-7.4 -1.9,-9.7 -2.7,-2.3 -7.2,-4 -8.2,-3.1 -1,1.1 1,9 2.8,11.3 2,2.5 6.1,3.4 7.3,1.5 z m -2.5,-43.4 c 0,-3.9 -2,-6.5 -5.5,-7.2 -2,-0.3 -3.8,-0.4 -4.1,-0.1 -0.9,0.9 2.7,5.7 5.5,7.2 3.3,1.8 4.1,1.8 4.1,0.1 z m 6,-7.3 c 0,-2.5 -3,-5.3 -5.7,-5.3 -3.2,0 -3.3,4.7 0,6 3.5,1.4 5.7,1.2 5.7,-0.7 z"
       id="path73" />
    <path
       d="m 1464.5,714 c -11.6,-3 -28,-16.2 -33.5,-26.9 -2.8,-5.6 -6,-16.9 -6,-21.3 0,-18.8 13.1,-39.8 30.2,-48.4 6.5,-3.3 8.3,-3.8 16.8,-4.2 16.7,-0.8 29.6,4 41,15.1 8.6,8.5 12.8,17.1 14.1,29.7 1.8,18.3 -2.9,32.1 -14.7,42.9 -7.5,6.9 -14.4,10.7 -22.6,12.6 -7,1.6 -20.2,1.9 -25.3,0.5 z m 31.4,-22.5 c 3.7,-2.2 5.9,-5 4.9,-6.1 -0.4,-0.4 -3.1,0.3 -6,1.4 -6.1,2.4 -18.8,4.5 -21.5,3.5 -6.9,-2.5 -10.9,-8.9 -11.9,-19.2 -0.8,-7.5 0.5,-9.3 8.1,-11.6 5.1,-1.4 8.4,-3.9 7.1,-5.2 -0.3,-0.3 -2.3,-0.1 -4.5,0.5 -5.2,1.6 -7.7,1.5 -9.5,-0.4 -2.7,-2.6 -1.9,-6.3 1.9,-9.8 4.1,-3.8 4.4,-5.3 1,-6.8 -1.9,-0.9 -2.9,-0.7 -5,0.6 -2.4,1.5 -2.5,2.1 -2,6 0.5,3.3 0.2,5.5 -1.3,8.8 -2,4.5 -2.2,4.7 -11.7,8 -3.2,1.1 -4.1,1.9 -4.3,4.1 -0.3,2.3 0,2.7 2,2.7 1.3,-0.1 3.4,-0.7 4.8,-1.5 1.4,-0.8 3.7,-1.4 5.2,-1.5 4.1,0 5,2.7 4.2,12 -0.6,7 -0.4,8.3 1.5,11.3 1.1,1.8 3,3.8 4.1,4.3 1.2,0.5 8.3,0.9 15.8,0.9 11.9,0 14.1,-0.3 17.1,-2 z m -5,-19 c 4.2,-2.1 12.1,-11.3 12.1,-14.1 0,-3.3 -2.8,-4.4 -11.2,-4.3 -7.3,0.1 -7.3,0.1 -3.3,1.3 3.5,1 4,1.6 4.3,4.4 0.3,2.6 -0.4,3.9 -4.2,7.6 -2.5,2.4 -4.6,4.9 -4.6,5.5 0,1.6 3.6,1.4 6.9,-0.4 z m 12.6,-27.7 c -0.9,-4.2 -1.3,-4.6 -5.3,-5.4 -4.2,-0.9 -4.3,1.6 -0.3,5.7 4.1,4.1 6.5,3.9 5.6,-0.3 z m 6.5,-4.7 c 0,-2.1 -4.4,-6.1 -6.6,-6.1 -0.9,0 -1.4,1.1 -1.4,2.8 0,2.1 0.7,3.1 2.8,3.9 4.1,1.6 5.2,1.5 5.2,-0.6 z"
       id="path75" />
    <path
       d="m 1217.9,711.7 c -8.9,-3.1 -14.9,-6.8 -21.1,-13 -10.4,-10.3 -14.8,-21 -14.8,-36.2 0,-14.7 4,-24.8 14.3,-36.1 19.5,-21.3 56.2,-20.4 75,1.9 9.5,11.2 12.7,19.9 12.7,34.3 0,14.2 -5.2,26.4 -15.4,36.2 -14.1,13.6 -33.9,18.6 -50.7,12.9 z M 1224,668 c 8.5,-0.4 17,-1.3 18.8,-2 2.6,-1 3.5,-1 4.8,0 0.8,0.7 4.8,1.5 8.9,1.8 l 7.5,0.5 v -2.7 -2.6 h -9.7 c -5.5,0 -12.3,-0.7 -15.3,-1.5 -7.1,-1.9 -11.8,-1.9 -17.7,0.1 -3.6,1.2 -5.1,1.4 -6.5,0.5 -2,-1.3 -5.8,-1.4 -7.4,-0.3 -1.5,1 -3.4,4.7 -3.4,6.8 0,1.2 0.5,1.5 2.3,0.9 1.2,-0.4 9.2,-1.1 17.7,-1.5 z"
       id="path77" />
    <path
       d="m 1588.6,712.9 c -7.4,-1.8 -18.1,-7.8 -24.6,-13.7 -26.2,-23.8 -18.9,-68.6 13.7,-84 7.7,-3.6 8,-3.6 20.3,-3.6 11.2,0 13.2,0.2 19.2,2.6 15,5.9 25.9,17.3 30.9,32 2.9,8.6 2.4,26.4 -1,35 -4.9,12.6 -16.1,23.2 -31.2,29.5 -7.1,2.9 -20.2,4 -27.3,2.2 z m 10.3,-20.9 c 8.6,-3.9 15.1,-10.7 18.2,-18.7 0.9,-2.4 0.3,-2.1 -4.3,2.3 -7.5,7.3 -18.6,14.4 -22.4,14.4 -3.6,0 -4.5,0.6 -3.7,2.6 0.8,2 7,1.7 12.2,-0.6 z m -11.1,-21.2 c 2.4,-3 1.8,-6.2 -1.7,-9 -5,-4.1 -6.7,-1.8 -3.7,5.3 2.1,5.1 3.5,6 5.4,3.7 z m 11.4,-6.6 c -0.3,-4.2 -2.9,-8.2 -5.3,-8.2 -2.4,0 -2.5,3.3 -0.4,8.4 1.2,2.9 2.1,3.7 3.8,3.4 1.8,-0.2 2.2,-0.9 1.9,-3.6 z m 22.1,-0.7 c 1.9,-4 1.3,-6.5 -1.4,-6.5 -1.6,0 -1.9,0.8 -1.9,5 0,5.9 1,6.3 3.3,1.5 z"
       id="path79" />
    <path
       d="m 1910.3,578.3 c -0.5,-1.3 3.8,-7.1 11.7,-15.8 2.5,-2.8 8.8,-10.4 14,-16.9 5.2,-6.5 14.7,-18.1 21,-25.6 6.3,-7.5 15.8,-19 21,-25.5 9.2,-11.5 24.6,-29.8 31.8,-38 5.8,-6.6 40.5,-47.5 43.2,-50.9 3.1,-4 17.7,-21 29,-33.7 4.7,-5.3 11.4,-13.2 15,-17.4 3.6,-4.3 8.3,-9.9 10.5,-12.5 2.2,-2.5 6.7,-7.7 10,-11.5 3.3,-3.8 7.6,-8.7 9.6,-11 6.1,-6.8 6.3,-7.7 3.4,-13.5 -1.4,-2.8 -4.4,-8.1 -6.6,-11.6 -2.2,-3.6 -7.4,-13.2 -11.6,-21.2 -4.2,-8.1 -8.7,-16.1 -10,-17.9 -1.2,-1.7 -2.3,-3.6 -2.3,-4.1 0,-0.6 16.4,-0.8 42.5,-0.5 l 42.6,0.4 2.4,-2.8 c 1.3,-1.5 7.9,-9.3 14.7,-17.3 6.8,-8 13.9,-16.3 15.8,-18.6 12.3,-14.7 24.3,-29.1 29.5,-35.5 3.3,-4 8.7,-10.2 11.9,-13.8 5.3,-5.8 5.7,-6.5 4,-7.2 -1.9,-0.6 -79.5,-1.3 -118.2,-1 l -17.4,0.1 -8.7,8.8 c -4.7,4.8 -17.8,18.2 -29.1,29.7 -55.6,56.9 -123.4,124.8 -123.7,123.8 -0.2,-0.6 0.7,-3.8 2,-7.1 1.4,-3.3 3,-9.3 3.7,-13.4 0.6,-4 2.5,-12.9 4.2,-19.8 1.6,-6.9 4.7,-20.8 6.8,-31 5.4,-25.6 6.7,-31.4 8.8,-40 1.1,-4.1 2.7,-10.9 3.6,-15 0.9,-4.1 2.9,-13.1 4.5,-20 1.6,-6.9 4.1,-18.1 5.6,-25 1.5,-6.9 3.8,-16.8 5.1,-22 1.2,-5.2 3.9,-16.9 5.9,-26 2,-9.1 6.1,-26.2 9.1,-38.1 3,-11.9 5.4,-23.2 5.4,-25.1 0,-2 0.6,-4.1 1.4,-4.7 1.1,-0.9 61.3,-1.1 248.5,-0.9 236.5,0.3 247.1,0.4 247.1,2.1 0,1 -1.9,3.7 -4.2,6.1 -2.4,2.3 -7.2,8 -10.7,12.6 -3.6,4.5 -9.7,12 -13.5,16.5 -3.9,4.4 -10,11.9 -13.6,16.4 -3.6,4.6 -8.8,10.9 -11.5,14 -6,6.6 -42.5,50.6 -47.5,57.1 -1.9,2.5 -7.3,9 -12,14.5 -4.7,5.4 -9.8,11.6 -11.5,13.6 -1.6,2.1 -5.9,7.3 -9.5,11.6 -3.5,4.3 -12.6,15.5 -20.2,25 -7.6,9.4 -14.2,17.4 -14.8,17.8 -0.8,0.5 -20.2,24 -35.5,43 -6.9,8.7 -19.1,23.2 -23.7,28.2 -2.1,2.4 -3.8,5.1 -3.8,6 0,1 2.5,7.2 5.6,13.8 3,6.6 6.9,15.4 8.6,19.5 1.7,4.1 3.5,7.9 4,8.4 0.4,0.6 0.8,1.7 0.8,2.6 0,1.5 -2.6,1.6 -28.9,1.2 l -28.9,-0.4 -2.4,3.5 c -1.2,1.9 -4.5,6.2 -7.3,9.5 -2.7,3.3 -8.1,9.9 -12,14.8 -3.8,4.8 -12.6,15.6 -19.5,24 -26.8,32.6 -32,39.3 -32,40.8 0,1 84.5,0.3 86.5,-0.7 1.9,-1 12.5,-10.4 42.5,-37.7 33.8,-30.8 95.2,-85.5 111.4,-99.4 4.5,-3.7 10.8,-9.2 14.1,-12.1 3.3,-2.9 7.6,-6.5 9.5,-8 1.9,-1.6 6,-5.2 9,-8.1 6.4,-6 10,-7.7 10,-4.5 0,1.1 -0.4,2.2 -0.9,2.5 -0.5,0.3 -2.7,6.6 -5,13.8 -14.1,45.1 -24.1,76 -25.1,77.3 -0.4,0.6 -1.3,3.3 -1.9,6 -2,8.2 -14.2,46.3 -29.6,92 -13.5,40.1 -18.2,54.6 -20,62 -0.3,1.6 -3,9.7 -6,18 -2.9,8.2 -6,17.6 -6.9,20.8 -1.6,5.4 -1.9,5.7 -4.9,5.7 -14.2,0.2 -137.6,0 -273.2,-0.3 -89.6,-0.2 -167.4,-0.1 -172.9,0.2 -7.3,0.4 -10,0.3 -10.3,-0.6 z"
       id="path81" />
    <path
       d="m 401.3,561.2 c -1.1,-3.1 -4.4,-10.9 -7.3,-17.2 -2.8,-6.3 -6.4,-14.6 -8,-18.5 -1.6,-3.8 -5.4,-12.6 -8.5,-19.5 -3.1,-6.9 -8.8,-19.7 -12.7,-28.5 -7.3,-16.7 -7.5,-17.1 -8.2,-16.4 -0.2,0.2 -1.8,12.1 -3.5,26.4 -1.7,14.3 -3.8,31.2 -4.6,37.5 -0.7,6.3 -1.9,16.7 -2.6,23 -0.6,6.3 -1.4,11.8 -1.8,12.2 -0.3,0.4 -13.6,0 -29.6,-0.7 -15.9,-0.8 -34.6,-1.7 -41.5,-2 -6.9,-0.3 -14,-0.8 -15.8,-1.1 l -3.2,-0.5 0.5,-14.1 0.4,-14.2 4.4,-4.5 c 24,-25.3 46.3,-60 60,-93.1 14.9,-36.4 23.2,-78.7 23.1,-118.5 C 342.3,244.8 321,182.8 279.1,127.1 l -6.3,-8.5 1.2,-17.8 1.3,-17.8 h 11.1 c 17,0.1 37.7,3.5 55.6,9.2 47.1,15.1 88.8,47 113.6,87 18.2,29.5 23.4,46.4 23.4,76.5 0,12.7 -0.5,18.8 -2.1,26.6 -5.6,28.1 -16.7,48.9 -37.3,70.4 -7.7,8.1 -24.7,22.1 -33.9,27.8 -3,1.9 -4.6,3.6 -4.4,4.5 0.4,1.6 20.5,33 41.9,65.5 6.8,10.5 18.3,28 25.5,39 7.1,11 16.6,25.4 20.9,32 9.3,14.2 9,13.5 7.3,14.6 -1.5,1 -91.2,30.9 -92.6,30.9 -0.4,0 -1.8,-2.6 -3,-5.8 z M 382.7,315.9 c 3.9,-1.8 7.6,-4.6 9.8,-7.3 9.8,-12 13.7,-33.3 8.6,-46.8 -3.6,-9.4 -14.2,-18.3 -23.8,-20.1 -3,-0.6 -3.3,-0.4 -3.7,2.6 -0.9,6.2 -2.6,22.4 -4.1,38.7 -0.8,9.1 -1.9,20.7 -2.5,25.9 -0.5,5.2 -0.6,9.9 -0.3,10.4 1,1.6 9.6,-0.2 16,-3.4 z"
       id="path83" />
    <path
       d="M 140.6,553.3 C 139.7,547.1 129.3,485 126,466 124.3,456.4 122.3,444.5 121.5,439.5 119.9,429 97.7,295.6 95.5,283 94.7,278.3 93.6,271.2 93,267.3 c -0.5,-4 -1.5,-10.4 -2.1,-14.2 l -1,-6.9 H 77.3 c -6.9,-0.1 -12.8,-0.3 -13,-0.6 -0.6,-0.6 -2.2,-10.1 -6.7,-39.1 -1.5,-9.3 -3.3,-21 -4.1,-26 -0.8,-4.9 -4.4,-27.9 -8,-51 C 39.3,89.6 36.3,70.8 32,43.5 28.9,23.8 28.6,25.6 35,25.2 45.3,24.6 84,31.3 97,36 c 1.4,0.5 7,2.3 12.5,4 59.1,18.8 116.9,61.3 153.2,112.6 24.9,35.2 40.3,73.8 47.5,118.7 2.8,17.9 3.1,60 0.4,78.2 -4.4,30.4 -12.6,58.7 -24.2,83 -23.4,49.3 -56.1,82.9 -105.7,108.5 -12.7,6.6 -16.8,8.4 -28.7,12.9 -10.3,3.8 -10.7,3.8 -11.4,-0.6 z m 52.2,-174.4 c 18.4,-6.3 33.3,-21 39.4,-38.7 2,-5.8 2.3,-8.7 2.3,-20.7 0,-16.6 -1.9,-23.8 -8.9,-33.3 -10.7,-14.4 -25.1,-22.9 -47.8,-28.1 -5.1,-1.2 -11.9,-2.8 -15.1,-3.5 -3.1,-0.8 -5.9,-1.1 -6.1,-0.7 -0.2,0.3 0.9,8.5 2.5,18.1 1.6,9.6 3.6,22 4.5,27.5 0.8,5.5 2.2,13.4 2.9,17.5 0.8,4.1 2.8,16.3 4.5,27 1.7,10.7 3.8,23.7 4.7,28.8 l 1.6,9.4 5,-0.7 c 2.8,-0.4 7.5,-1.6 10.5,-2.6 z"
       id="path85" />
    <path
       d="m 194.7,340.2 c -0.3,-0.4 -1.2,-5.4 -2.1,-11.2 -0.9,-5.8 -2.3,-14.1 -3.1,-18.5 -3.4,-19.4 -3.3,-19.7 3.7,-14.9 11.1,7.7 15.4,24.5 9.4,36.8 -2.5,5.1 -7,9.5 -7.9,7.8 z"
       id="path87" />
    <path
       d="m 737.5,552.5 c -9.3,-1.5 -19.5,-4.6 -28,-8.4 l -6,-2.8 -3.2,-10.9 c -1.8,-6 -4.8,-16.7 -6.8,-23.9 -9.2,-33.1 -24.4,-87.3 -28.6,-102 -1.7,-6 -6.7,-23.8 -11,-39.5 -13.8,-49.5 -20.1,-72.4 -21.2,-76 -0.8,-3 -0.6,-4.3 1.8,-9 8.5,-17 18.6,-31.3 31.4,-44.3 17.4,-17.8 35.9,-29.1 58.1,-35.4 10.7,-3.1 33.8,-4.2 48.7,-2.3 35.5,4.4 66.3,20.4 89.7,46.5 l 7,7.8 -3.1,2.6 c -1.7,1.4 -5.8,4.9 -9.3,7.6 -10.5,8.4 -25.3,24.6 -32.7,35.7 -3.9,5.9 -7.4,11.6 -7.8,12.7 -0.8,2.5 -3.2,2.7 -6.3,0.5 -7,-4.9 -31.8,-11.4 -43.7,-11.4 -13.4,0 -31.8,6.4 -43.1,15.1 -23.7,18.2 -34.1,43.3 -31.4,76.3 0.6,6.5 1.5,13.6 2,15.7 0.6,2.2 1.5,5.8 2.1,8.2 2.3,8.9 7.7,18.7 13.9,25.1 10.2,10.7 22.9,15.2 40,14.3 16.3,-0.8 23.4,-5.7 31.5,-21.8 l 4.6,-9.4 -25.5,-0.3 L 735,423 v -33 c 0,-30.7 0.1,-33 1.8,-33 9.6,-0.2 64.5,-0.1 64.7,0.2 0.1,0.2 -0.1,4.6 -0.5,9.8 -1.9,24.4 4.6,60.2 15,82.4 7.2,15.5 18.7,31.1 33.4,45.4 5.8,5.7 10.6,10.6 10.6,11 0,1 -14.5,15 -20,19.4 -17.6,13.9 -37.6,23 -60,27.3 -9.2,1.8 -31.3,1.8 -42.5,0 z"
       id="path89" />
    <path
       d="m 581.5,551.6 c -0.2,-0.6 -0.8,-4 -1.4,-7.6 -0.5,-3.6 -2.3,-13.9 -4,-23 -1.7,-9.1 -5,-27.5 -7.5,-41 -4.6,-25.4 -6.1,-33.6 -8,-43 l -1.2,-5.5 -18.4,0.3 c -10.2,0.2 -18.6,0.5 -18.8,0.6 -0.1,0.2 -0.9,5.5 -1.7,11.7 -2.6,21.5 -6.7,48.4 -7.3,49 -1.5,1.4 -5.9,1.7 -8.4,0.6 -1.6,-0.7 -5,-4.5 -7.9,-8.7 -12.9,-18.8 -34.3,-50.7 -41.7,-62.2 l -8.3,-12.8 1.2,-11.2 c 0.6,-6.2 1.6,-12.2 2.2,-13.3 0.6,-1.1 5.6,-6.9 11.1,-12.8 23,-24.6 40,-55.9 46.1,-84.7 4,-19 3.6,-46.8 -1,-64.6 -5.4,-20.4 -9.7,-30.6 -19.7,-46.2 l -6,-9.2 1,-7.2 c 0.6,-3.9 0.9,-7.5 0.6,-8 -1.8,-2.9 6.6,-1.5 70.1,11.1 l 23,4.6 1.2,4 c 1.3,4.5 15.9,58.8 19.8,74 1.5,5.5 3.6,13.4 4.7,17.5 1.1,4.1 3.7,14.3 5.8,22.5 2.1,8.3 5.2,20.2 6.9,26.5 7.7,29.8 15.8,61.4 34,134.5 5,19.8 12,47.7 15.6,62 3.7,14.3 6.7,26.7 6.8,27.5 0.2,1.5 -4.1,2.5 -31.3,7.4 -15.6,2.8 -46.5,7.4 -52.8,7.9 -2.6,0.2 -4.5,-0.1 -4.7,-0.7 z M 548.6,346.7 c 0.1,-0.1 -0.2,-2.4 -0.7,-5.2 -0.5,-2.7 -1.6,-9.5 -2.4,-15 -0.8,-5.5 -2.4,-16.3 -3.6,-24 -1.1,-7.7 -2.9,-20.1 -3.8,-27.5 -2.3,-17.2 -2.5,-16.3 -6.6,31.5 -0.8,9.4 -1.9,21.1 -2.5,26 -0.5,5 -1,10.4 -1,12 v 3 l 10.2,-0.3 c 5.7,-0.2 10.4,-0.5 10.4,-0.5 z"
       id="path91" />
    <path
       d="m 1029.6,550.2 c -0.5,-0.9 1.8,-23.9 2.5,-24.5 0.2,-0.2 3.8,-2.3 7.9,-4.7 31.3,-17.9 56.7,-47.1 68.3,-78.5 3.4,-9.2 6.1,-19 8.3,-30 2.5,-12.5 2.6,-48 0.2,-61 -6,-32 -18.9,-55.6 -44.5,-81.6 l -11.3,-11.5 1.6,-13.5 c 0.8,-7.4 2.3,-19.9 3.2,-27.9 l 1.7,-14.5 24,0.2 c 13.2,0.1 25.4,0.5 27,0.8 2.7,0.5 3.5,1.6 8.2,11.8 2.9,6.1 14.1,29.4 24.9,51.7 21.1,43.5 28.7,59.5 29.7,62.3 1.7,4.7 2.5,-0.3 3.6,-23.5 0.6,-13.9 1.6,-32.9 2.1,-42.3 0.5,-9.3 1.2,-25.5 1.5,-36 0.4,-10.4 1,-19.4 1.4,-19.8 1,-1 64.7,1.5 65.7,2.6 1.6,1.5 0.6,337.2 -1,339.4 -0.1,0.2 -66.8,0.5 -69.3,0.4 -0.6,-0.1 -8.1,-13.7 -16.7,-30.3 -22.5,-44 -28,-54.2 -29.2,-54.5 -0.6,-0.2 -1.4,3.8 -2.1,10.4 -0.7,6 -3,24.8 -5.2,41.8 -2.3,17.1 -4.1,31.6 -4.1,32.3 0,0.9 -10.5,1.2 -48.9,1.2 -27,0 -49.2,-0.4 -49.5,-0.8 z"
       id="path93" />
    <path
       d="m 1309,544.7 c 0,-0.7 -0.4,-4.8 -1,-9.2 -0.5,-4.4 -1.4,-16.5 -2,-27 -0.5,-10.4 -1.7,-25.7 -2.5,-34 -0.8,-8.2 -2.2,-23.3 -3,-33.5 -0.9,-10.2 -2.2,-24.8 -3,-32.5 -0.8,-7.7 -2,-20.1 -2.6,-27.5 -1.3,-16.8 -4.8,-50.2 -5.2,-50.6 -0.2,-0.2 -2.8,-0.7 -5.8,-1.1 l -5.4,-0.8 -0.5,-59 c -0.4,-47.3 -0.2,-59.2 0.8,-60.1 1.3,-1.2 20.8,-5 40.7,-8.1 14.2,-2.1 57.9,-2.4 70.5,-0.4 20.6,3.2 33.9,7.7 47.1,15.7 23.6,14.3 39.9,41.8 43.1,72.5 1.5,14.3 -0.1,34.9 -3.7,47.2 -2.8,9.7 -9.2,21.9 -15.5,30 -8.9,11.4 -25.2,22.8 -39.3,27.4 -9,2.9 -10.1,4 -5.1,4.9 7.6,1.4 14.7,5.6 22.5,13.3 19.4,19.3 30.4,47.2 26.9,68.2 -3.6,21 -12.4,35.8 -27.3,45.8 -18,12.2 -36.9,15.9 -93.1,18.6 -38.4,1.8 -36.6,1.8 -36.6,0.2 z m 65.5,-71.6 c 8.3,-3.8 12.8,-10.4 12.7,-18.7 -0.1,-11.9 -10.7,-23.4 -21.6,-23.4 -4.5,0 -4.8,1.2 -3.6,13.5 0.5,5.5 1,13.5 1,17.7 0,13 2.3,15.2 11.5,10.9 z m -6,-124.5 c 7.1,-1.8 10.6,-3.9 14.7,-8.4 4.4,-4.9 6.2,-10 6.2,-17.4 -0.1,-8 -2.6,-13.8 -8.4,-19.2 -5.8,-5.4 -12,-8.3 -19.6,-9.2 l -5.4,-0.7 v 12.4 c 0,12.4 1.6,40.3 2.5,42.7 0.6,1.6 3.7,1.5 10,-0.2 z"
       id="path95" />
    <path
       d="m 1464.5,545.3 c -3.8,-0.9 -3.6,-2 1.7,-7.4 12.1,-12.3 23.2,-33.5 26.4,-50.1 2.9,-15 0,-37.7 -6.7,-52.6 -3.7,-8.3 -11.8,-21.5 -16.9,-27.6 l -4.1,-4.9 7.9,-8.1 c 12.3,-12.4 22,-27.3 26.6,-40.4 4.4,-12.4 8.6,-27.6 9.6,-34.7 2.2,-16 0.8,-42.4 -3.1,-56.5 -4.8,-17.2 -9.5,-26.2 -20.7,-40.2 l -6.2,-7.6 1.2,-11.6 c 0.9,-8.8 1.6,-11.7 2.8,-12 2.4,-0.7 21.6,-3.4 33,-4.6 5.8,-0.6 16.6,-1.8 24,-2.6 7.4,-0.9 16.9,-1.8 21.1,-2.1 8.7,-0.6 8.2,-1 9.4,8.2 0.3,2.8 2.6,14.9 5.1,27 7.9,39.5 33,167.4 36.9,188 3.1,16.8 11,58.1 13.4,71 1.1,5.5 2.5,13.4 3.1,17.5 0.6,4.1 1.6,9.5 2.2,12 1.5,6.6 3.6,21.4 3.2,22.1 -0.4,0.8 -3.6,1.3 -27.3,4.5 -10.2,1.3 -25.7,3.6 -34.4,5 -8.7,1.5 -16,2.4 -16.4,2.1 -0.7,-0.8 -2.7,-16 -5.8,-44.7 -1.4,-12.9 -3.4,-31.5 -4.4,-41.4 -1.1,-9.8 -2.3,-18.2 -2.8,-18.6 -0.4,-0.4 -7.9,-1 -16.6,-1.3 -18.2,-0.6 -16.9,-1.4 -18.1,10.3 -0.4,3.6 -1.9,13.5 -3.2,22 -2.6,15.9 -5,34.5 -8,62 -1,8.5 -2.2,16.1 -2.7,16.8 -0.7,0.9 -4.7,1.2 -14.6,1.1 -7.5,-0.1 -14.5,-0.3 -15.6,-0.6 z M 1535,366.5 c 0,-0.8 -0.9,-9.3 -2,-18.8 -1.1,-9.4 -2.4,-21.5 -3,-26.7 -0.6,-5.2 -1.7,-11.5 -2.4,-14 l -1.4,-4.5 -0.6,3.5 c -0.9,5.4 -2.7,24.2 -3.6,38.5 -0.5,7.2 -1.2,15.4 -1.6,18.3 l -0.7,5.2 h 7.7 c 6.1,0 7.6,-0.3 7.6,-1.5 z"
       id="path97" />
    <path
       d="m 1708.6,539.1 c -0.4,-0.5 -0.2,-4.9 0.4,-9.8 0.5,-4.8 1,-9.3 1,-10 0,-1.9 6,-3 25.5,-4.8 9.9,-0.9 20.2,-2 23,-2.3 l 4.9,-0.7 3.2,-22 c 1.7,-12.1 5,-31.7 7.3,-43.5 2.2,-11.8 4.6,-24.2 5.2,-27.5 0.6,-3.3 1.9,-10.5 3,-16 1,-5.5 3.2,-18.1 4.9,-28 1.7,-9.9 3.8,-21.8 4.6,-26.4 1.7,-8.9 1.4,-10 -2.9,-10.1 -3,0 -36.5,4.9 -45.9,6.7 -4.8,0.9 -9,1.5 -9.3,1.1 -0.3,-0.3 0.3,-2.5 1.3,-4.9 1.1,-2.4 2.2,-6.9 2.6,-9.9 1.2,-9.3 6.5,-41.6 9.6,-58 3,-15.8 9.2,-51.7 13.6,-78.5 1.3,-8.2 3.1,-18.5 3.9,-22.7 0.8,-4.3 2,-13 2.7,-19.4 1.4,-13 0.6,-11.9 10.8,-14.8 20.9,-6 30.9,-8.7 41,-11.1 6.3,-1.5 15.6,-4 20.5,-5.5 5.3,-1.7 9.4,-2.5 9.9,-2 0.6,0.6 0.3,4.2 -0.8,9.2 -0.9,4.6 -2.1,10.3 -2.6,12.8 -0.5,2.5 -1.9,9.5 -2.9,15.5 -1.1,6.1 -2.9,15.1 -4,20 -1,5 -2.4,12.6 -3,17 -1.2,8.4 -5.3,29.9 -7.6,40 -1.4,6 -2,9.6 -7.5,41.5 -5.8,34.1 -20.8,114.8 -24.2,130.2 -0.6,3.2 -0.9,6 -0.5,6.4 0.7,0.8 6.2,-0.1 30.2,-4.6 8.3,-1.6 18.8,-3.5 23.5,-4.4 4.7,-0.8 12,-2.3 16.3,-3.2 4.3,-0.9 8,-1.4 8.3,-1.1 0.2,0.2 0,1.6 -0.6,3.1 -0.5,1.4 -1.5,6.8 -2.1,11.9 -0.6,5 -3.1,18.2 -5.5,29.2 -2.5,11 -6,27.6 -7.9,36.8 -1.9,9.3 -4.8,22.5 -6.4,29.5 -3.5,14.8 -4.7,20.3 -5.6,25.5 l -0.6,3.7 h -32.2 c -35.1,0.1 -64.5,0.6 -88.8,1.5 -10.1,0.4 -15.9,0.3 -16.3,-0.4 z"
       id="path99" />
    <path
       d="m 944,516.4 c -1.4,-0.2 -5.6,-0.9 -9.5,-1.5 -21.4,-3.5 -48.3,-18 -67.4,-36.4 -21.4,-20.6 -32.8,-41.2 -39.2,-70.6 -3.1,-14.3 -3.4,-44.3 -0.5,-56.4 5.8,-25 17,-44.1 37.3,-63.5 20.7,-19.8 41.5,-30.7 70.3,-36.6 13,-2.7 42.1,-2.5 55.5,0.5 12.7,2.8 18.1,4.5 28.1,9.1 31.3,14.4 60,46.7 70.2,79.1 8.2,25.7 8.1,57.9 -0.3,85.5 -5.7,19 -19.2,40.3 -34.7,54.9 -19.7,18.5 -40.1,28.9 -67.3,34.1 -7.6,1.5 -37.2,2.7 -42.5,1.8 z"
       id="path101" />
    <path
       d="m 1524.4,500.4 c 0.3,-0.9 0.6,-2.3 0.6,-3.2 0,-1.5 0.2,-1.5 1,-0.2 1.5,2.3 1.2,5 -0.6,5 -1.1,0 -1.4,-0.5 -1,-1.6 z"
       id="path103" />
    <path
       d="m 537.4,496.4 c 0.3,-0.8 0.6,-1.8 0.6,-2 0,-0.2 0.5,-0.4 1,-0.4 1.6,0 1.1,2.7 -0.6,3.4 -1.2,0.5 -1.5,0.2 -1,-1 z"
       id="path105" />
    <path
       d="m 1654.5,496.7 c -0.3,-0.7 -3,-14.7 -6,-31.2 -3.1,-16.5 -6.3,-33.1 -7.1,-37 -0.8,-3.8 -1.9,-9.5 -2.4,-12.5 -0.8,-5.1 -3.3,-18.5 -8,-42.5 -2.5,-12.7 -7.4,-39.8 -10.7,-58.5 -1.3,-8 -2.8,-15.8 -3.1,-17.5 -1.3,-5.5 -0.6,-53.7 1.1,-79 0.9,-13.7 1.9,-29.7 2.3,-35.5 0.3,-5.7 0.8,-10.8 1,-11.2 0.3,-0.4 1.6,-0.8 2.9,-0.8 1.2,0 7.6,-1.1 14.1,-2.5 16.1,-3.5 42.8,-8.5 48.7,-9.2 l 4.8,-0.6 -0.6,14.9 c -0.9,21.9 -3.4,64.4 -4,67.9 -0.3,1.7 -1,11.1 -1.5,21 -0.6,9.9 -1.7,27.7 -2.5,39.5 -0.8,11.8 -1.9,29.8 -2.5,40 -0.5,10.2 -1.2,21.3 -1.5,24.6 -0.5,5 -0.3,6.2 0.9,6.7 0.8,0.3 6.6,-0.2 12.8,-1.3 10.9,-1.8 25.6,-3.9 40.3,-5.9 3.9,-0.6 12.4,-1.9 18.9,-3.1 6.6,-1.1 12.3,-1.7 12.6,-1.3 0.4,0.5 -0.1,4.4 -1.1,8.8 -0.9,4.4 -3.1,17.2 -4.8,28.5 -3.4,22.7 -7.8,48.6 -11.6,68.5 -1.3,7.2 -2.6,14.4 -2.7,16 -0.3,2.8 -0.6,3 -4.8,3.3 -2.5,0.1 -10.6,1.1 -18,2.1 -7.4,1.1 -17.5,2.5 -22.5,3.1 -7.4,0.9 -23.3,3 -41.3,5.4 -2,0.3 -3.5,0 -3.7,-0.7 z"
       id="path107" />
    <path
       d="m 1277.1,460.7 c -0.1,-3.6 0.3,-5.6 0.9,-5.2 1.2,0.7 1.2,4.9 0,8.5 -0.6,1.9 -0.8,1.1 -0.9,-3.3 z"
       id="path109" />
    <path
       d="m 750.8,172.3 c 2.3,-0.2 5.9,-0.2 8,0 2,0.2 0.1,0.4 -4.3,0.4 -4.4,0 -6.1,-0.2 -3.7,-0.4 z"
       id="path111" />
    <path
       d="M 2589.8,2.5 C 2589.6,2.2 2483.6,1.9 2354.4,1.9 2225.2,1.8 2099,1.4 2074,1.1 2049,0.7 2155.3,0.3 2310.3,0.2 2485.8,0.1 2592,0.4 2592,0.9 c 0,1.2 -1.5,2.2 -2.2,1.6 z"
       id="path113" />
  </g>
  <g
     fill="#d29101"
     id="g167"
     transform="translate(-0.5)">
    <path
       d="m 1358,719 c 2,-1.3 5.3,-1.3 4.5,0 -0.3,0.6 -1.8,1 -3.3,1 -2.1,0 -2.4,-0.2 -1.2,-1 z"
       id="path117" />
    <path
       d="m 1725,719 c 0,-0.5 0.7,-1 1.5,-1 0.8,0 1.5,0.5 1.5,1 0,0.6 -0.7,1 -1.5,1 -0.8,0 -1.5,-0.4 -1.5,-1 z"
       id="path119" />
    <path
       d="M 733.9,713.1 C 710.1,706.7 695,687.4 695,663.3 c 0,-24.9 20.4,-47.5 44.5,-49.3 23.6,-1.7 40.5,7.8 50.5,28.5 4.1,8.4 4.4,9.5 4.8,19.6 0.3,8.1 0.1,11.8 -1.2,15.6 -6.3,19.1 -19.6,31.5 -38.3,35.7 -9,2 -13.1,2 -21.4,-0.3 z M 744,695.8 c 7.4,-2.2 16.8,-9.9 15.8,-12.9 -0.2,-0.5 -4.4,1.1 -9.4,3.5 -5,2.5 -11.1,5 -13.7,5.7 -4.9,1.2 -7.3,3.1 -6.2,4.9 0.7,1.2 7.5,0.6 13.5,-1.2 z m 27.5,-28.2 c 3.1,-6.2 3.2,-9.6 0.3,-12.3 -5.9,-5.4 -13,-6.2 -29.1,-3.4 -6.6,1.2 -14.2,2.1 -17,2.1 -6.8,0 -10.1,1.7 -10.5,5.4 -0.4,3.3 -3,3.4 21.5,-0.9 16.9,-3 20.5,-2.9 25.4,1.2 2.8,2.4 3.1,3 2.5,6.7 -0.3,2.3 -0.9,5.9 -1.2,8.1 l -0.6,4 3.1,-2.9 c 1.7,-1.7 4.2,-5.2 5.6,-8 z m -9.7,-27.2 c 1.5,-0.3 2.2,-1.2 2.2,-2.8 0,-2.2 -0.5,-2.5 -5.7,-3.2 -3.2,-0.4 -7.8,-0.2 -10.7,0.4 -2.8,0.6 -7,1.5 -9.4,2 -2.7,0.6 -5.9,0.6 -8.4,0 -5.2,-1.1 -7.8,-0.3 -7.8,2.6 v 2.3 l 18.8,-0.4 c 10.3,-0.2 19.7,-0.6 21,-0.9 z"
       id="path121" />
    <path
       d="m 855,713.1 c -28.3,-9.1 -41.7,-30.7 -37,-59.5 2.8,-17.3 17.2,-32.7 35.3,-38 21.6,-6.3 47.8,5 58.5,25.2 4.2,7.8 6.2,20.7 5,31.3 -1.6,14.4 -12.9,30.9 -25.3,37.1 -10.9,5.5 -26.4,7.2 -36.5,3.9 z m 30.4,-23.4 c 1.4,-1.5 2.7,-4.5 3.5,-8.7 0.7,-3.6 1.9,-8.7 2.7,-11.4 2.2,-7.7 1.8,-11.7 -1.5,-16.3 -1.6,-2.3 -4.5,-5.2 -6.3,-6.7 -3,-2.3 -4.4,-2.5 -13.3,-2.7 -23.6,-0.5 -39.1,3 -27.3,6.1 3.3,0.9 6.1,0.8 13.5,-0.4 12.2,-2.1 18.9,-2 23.3,0.2 5,2.5 5.8,4.9 5.5,16.5 l -0.3,10.2 -5.1,4.6 c -4.7,4.2 -5.1,4.9 -4.2,7.2 1.6,4.2 6,4.9 9.5,1.4 z M 861,689.4 c 7.4,-1.6 10.5,-3.8 7.9,-5.5 -1.8,-1.2 -27.9,0 -29.6,1.3 -1.4,1.1 -1.7,4 -0.6,5.1 1.2,1.3 15.4,0.7 22.3,-0.9 z m 32.8,-47.6 c 0.6,-2.9 -7.6,-6.8 -8.5,-4.1 -0.6,1.8 4.4,6.5 6.5,6.1 0.9,-0.2 1.8,-1.1 2,-2 z m 6.9,-4.4 c 0.9,-2.5 -1.3,-6.1 -4.6,-7.2 -3.6,-1.3 -4.1,0 -1.6,4.8 2,3.9 5.1,5.2 6.2,2.4 z"
       id="path123" />
    <path
       d="m 1104,714.4 c -13.8,-2.4 -30.3,-13 -36.9,-23.8 -3.3,-5.3 -7.1,-18.4 -7.1,-24.5 0,-7.7 2.5,-18.5 5.6,-24.9 5.1,-10.4 17,-21 28.5,-25.3 6.2,-2.4 18.5,-2.7 27.6,-0.9 18.2,3.8 32.7,17.6 37.4,36 2.5,10 2.1,20.6 -1.2,30.5 -4.7,14 -17.9,26.7 -31.8,30.4 -8,2.1 -17.9,3.2 -22.1,2.5 z m 8.1,-23.1 c 0.6,-1.6 0.8,-4.8 0.4,-7.3 -2.1,-15.4 -2.3,-14.5 3.2,-20 l 5,-5 h 7.6 c 7.6,0 9.2,-0.6 8.1,-3.3 -0.8,-2.1 -4.5,-3.5 -11.6,-4.3 -10,-1 -13.7,-4.1 -13.8,-11.6 0,-8.7 -4.6,-7 -5.7,2.1 -0.5,4.6 -1,5.6 -4.2,7.7 -2,1.3 -7,3 -11.5,3.9 -8.4,1.6 -10.5,3 -8,5.5 1.1,1.1 3.8,1.5 10.5,1.5 h 9.1 l 2.9,3.5 c 2.9,3.4 2.9,3.5 2.9,16.7 0,12.7 0.1,13.3 2,13.3 1.3,0 2.4,-1 3.1,-2.7 z m -24.4,-4.5 c 4,-3.8 2,-10.8 -3.2,-10.8 -3,0 -4.5,1.9 -4.5,5.8 0,6.9 3.4,9.1 7.7,5 z m 51.7,-1.1 c 0.8,-2.2 0.6,-3.3 -1,-5.5 -2.1,-2.8 -9.1,-6.9 -10.1,-5.9 -1.1,1.2 0.9,9.6 2.9,12.2 2.7,3.5 6.9,3.1 8.2,-0.8 z m -3.9,-43.8 -0.7,-4 3.6,0.6 c 3,0.6 3.6,0.4 3.6,-1.1 0,-2.6 -3,-5.4 -5.7,-5.4 -1.9,0 -2.3,0.5 -2.3,3.1 0,2.7 -0.3,3 -2.2,2.4 -1.3,-0.4 -3.1,-0.9 -4,-1.1 -3.8,-1.1 -0.4,5.7 4.1,8.1 3.9,2.1 4.3,1.9 3.6,-2.6 z"
       id="path125" />
    <path
       d="m 1341.5,713.1 c -16,-5.9 -26.9,-15.1 -32.6,-27.7 -5.6,-12.3 -5.1,-30.4 1.1,-43 6.4,-13.1 15.6,-21.6 28.1,-26.1 6.6,-2.4 8.2,-2.5 18.7,-2.1 11.1,0.5 11.6,0.7 20.7,5.2 10.4,5.1 15,9.6 21.5,20.6 5.3,8.8 6.3,13.7 5.9,27.7 -0.4,11 -0.6,12.3 -3.7,18.5 -3.7,7.6 -11.2,16.3 -17.8,20.7 -2.4,1.7 -7.5,4.1 -11.4,5.5 -9,3.3 -22.6,3.6 -30.5,0.7 z m 26.8,-20.5 c 2.5,-1.4 6.5,-3 8.7,-3.7 5.4,-1.6 8.2,-5.4 11.4,-15.4 3.1,-9.6 3.1,-9.5 0.7,-9.5 -2,0 -4.1,4.4 -4.1,8.5 0,5.2 -12.3,12.5 -18.5,10.9 -3.3,-0.8 -4.6,-3.3 -6.5,-11.8 -0.9,-3.8 -2.2,-7.2 -2.9,-7.4 -2.1,-0.7 -1.1,23.3 1.2,27.6 2.1,3.9 3.9,4 10,0.8 z m -34.9,-0.7 c 5.5,-4.3 7.7,-9.9 8.7,-22.1 0.5,-6.2 1.2,-13.9 1.5,-17.1 0.6,-5.1 0.4,-6.2 -2,-9.7 -1.4,-2.2 -2.9,-4 -3.3,-4 -1.5,0 -5.3,4.5 -5.3,6.1 0,1 1.4,4 3,6.6 5.7,9 3.5,22.8 -5.5,33.7 -5.7,7 -3.7,11.7 2.9,6.5 z m 27.8,-40.5 c 2.9,-8.7 3.3,-13.2 1.3,-15.4 -4.2,-4.6 -8.8,-0.2 -6.8,6.5 0.6,1.9 0.9,5.3 0.6,7.4 -1.1,8.4 2.2,9.4 4.9,1.5 z"
       id="path127" />
    <path
       d="m 1469.4,714 c -3.4,-0.4 -8.9,-2 -12.5,-3.7 -27.1,-12.7 -37.9,-42.3 -25.3,-69 4.2,-8.7 14.1,-18.2 24.5,-23.2 8.3,-4 8.9,-4.1 18.5,-4.1 5.4,0 11.9,0.5 14.4,1.1 7.6,1.7 16.4,6.7 23.2,13.2 10.6,10.1 14,18.9 14.2,36.2 0.2,16.2 -3.2,25 -13.2,35.2 -7,7.1 -15.5,11.6 -26,13.8 -7.8,1.6 -8.3,1.6 -17.8,0.5 z m 24.8,-21.7 c 4.4,-1.8 8.9,-6.6 6.5,-7.1 -0.7,-0.2 -3.7,0.6 -6.6,1.8 -2.9,1.1 -8.8,2.2 -13.4,2.6 -7.1,0.5 -8.6,0.3 -11.4,-1.5 -4.6,-2.9 -6.6,-7.4 -7.1,-16.3 -0.5,-9 0.1,-10.3 6.2,-11.8 5.6,-1.5 8.6,-3.1 8.6,-4.7 0,-1.5 -1.1,-1.6 -6.4,-0.4 -5,1.2 -8.4,-0.1 -9.2,-3.4 -0.5,-2.2 0,-3.4 3.2,-6.6 3.2,-3.2 3.7,-4.3 2.8,-5.7 -1.5,-2.4 -5.2,-2.7 -7.6,-0.5 -1.5,1.4 -1.9,2.6 -1.4,5.3 0.8,5.4 -1,10.6 -4.8,13.5 -1.8,1.4 -4.1,2.5 -5,2.5 -3.5,0 -7.6,3 -7.6,5.5 0,2.1 0.5,2.5 2.8,2.5 1.5,0 3.6,-0.7 4.6,-1.5 1.1,-0.8 3.3,-1.5 4.8,-1.5 3.5,0 5.3,3.8 4.2,9 -1.7,8.4 0,15.1 4.6,17.9 3.9,2.3 26.7,2.6 32.2,0.4 z m -3.4,-19.7 c 1.5,-0.8 4.9,-3.7 7.5,-6.5 8,-8.5 5.3,-12.9 -8,-13 -6,-0.1 -7.1,1.3 -1.7,2.3 6.1,1.2 5.8,6.2 -0.6,12.5 -2.2,2.1 -4,4.4 -4,5 0,1.5 3.6,1.4 6.8,-0.3 z m 12.8,-27.8 c -0.8,-4 -1.4,-4.6 -5.4,-5.4 -4.2,-0.9 -4.3,1.6 -0.3,5.7 4.1,4 6.6,3.9 5.7,-0.3 z m 6.4,-4.5 c 0,-2.4 -1,-3.8 -3.7,-5.2 -3.3,-1.7 -4.3,-1.3 -4.3,1.7 0,2.1 0.7,3.1 2.8,3.9 4,1.6 5.2,1.5 5.2,-0.4 z"
       id="path129" />
    <path
       d="m 1711.5,714.3 c -1.1,-0.2 -5.1,-1.6 -8.8,-3 -11.8,-4.4 -21.4,-13.6 -27.6,-26.3 -3.5,-7.4 -3.6,-7.6 -3.6,-20.5 v -13 l 3.8,-7.8 c 2.5,-5 6.1,-10.2 10.2,-14.6 10.4,-10.9 20,-15.1 35,-15.1 19.1,0 32.3,6.9 43,22.5 5.3,7.8 7.4,14.2 8.2,25 1.1,15.6 -3.4,28.1 -14.1,39 -10,10.2 -20.7,14.6 -35,14.4 -5,-0.1 -10,-0.3 -11.1,-0.6 z m -0.1,-19.5 c 0.3,-1.3 1.1,-6.9 1.6,-12.5 0.9,-10.1 2.4,-14.7 5.4,-17.2 2.3,-1.9 2,-2.6 -2.1,-7.1 -3.3,-3.8 -3.6,-4.6 -4.1,-11.8 -0.5,-8.6 -1.4,-11.2 -4,-11.2 -1.6,0 -1.7,2.4 -1.7,31 0,31 0,31 2.1,31 1.4,0 2.4,-0.8 2.8,-2.2 z m 35,-22.4 c 2.2,-0.8 2,-3.1 -0.3,-4.4 -2.2,-1.1 -15.1,-4 -18.1,-4 -3.4,0 -1.2,2.5 5.2,5.8 6,3.1 9.9,3.9 13.2,2.6 z"
       id="path131" />
    <path
       d="M 614.1,712.5 C 599.8,709 586.7,698.6 580,685.4 l -3.5,-6.9 v -14 -14 l 3.8,-7.9 c 8.3,-17.3 25.3,-27.7 45.6,-27.6 12.7,0.1 22.6,4.5 32.6,14.5 10.5,10.4 14.5,20.5 14.5,36.4 0,12.4 -4.2,22.9 -12.7,32.1 -6.2,6.8 -14.3,11.3 -24.9,14 -8.7,2.3 -13.5,2.4 -21.3,0.5 z m -6.1,-16 c 0.6,-0.8 1.8,-6.7 2.6,-13.1 1.4,-10.9 3,-16.4 5.4,-17.9 1.8,-1.1 1,-4 -2.5,-8.4 -3.2,-4 -3.5,-4.9 -3.5,-11 0,-7 -1.7,-11.1 -4.6,-11.1 -1.4,0 -1.5,2.5 -0.9,19.8 0.3,10.8 0.2,24.5 -0.2,30.5 -0.8,10 -0.4,12.7 1.8,12.7 0.4,0 1.2,-0.7 1.9,-1.5 z m 37.7,-25.1 c 1.2,-3.1 -3.5,-5 -16.9,-6.9 -3.1,-0.5 -4.8,-0.4 -4.8,0.3 0,0.9 6.9,5.5 11,7.4 0.8,0.4 3.4,0.7 5.8,0.7 3.1,0.1 4.4,-0.4 4.9,-1.5 z m 0.1,-25 c 0.4,-2.5 -4.9,-7.4 -7.9,-7.4 -2.9,0 -2.3,3 1.3,6.7 3.6,3.7 6.1,3.9 6.6,0.7 z m 4.1,-6.8 c 1,-1.1 0.6,-2 -1.6,-4 -1.5,-1.4 -3.6,-2.6 -4.6,-2.6 -2.8,0 -1.8,5.1 1.3,6.7 3.2,1.6 3.5,1.6 4.9,-0.1 z"
       id="path133" />
    <path
       d="m 977.8,712.4 c -15.2,-3.6 -27.1,-13.2 -34.1,-27.3 l -4.2,-8.5 v -13.5 c 0.1,-12.6 0.3,-14 2.7,-19.3 6.4,-13.9 14.9,-22.3 27.9,-28 4.7,-2 7,-2.3 18.4,-2.3 12.9,0 13.1,0 20.5,3.6 9.9,4.8 17,10.7 22,18.5 6.3,9.7 7.1,13.1 7.2,27.9 0.1,14.7 -1.1,19 -7.6,28.5 -12,17.5 -32.4,25.4 -52.8,20.4 z m -3.7,-20.2 c 3.7,-1 8.3,-3.2 10.5,-4.9 2.1,-1.7 5.9,-3.7 8.4,-4.3 2.5,-0.6 6.1,-1.5 8,-2 5.2,-1.4 19.7,-15.8 20.6,-20.5 0.3,-2 0.4,-3.9 0,-4.2 -0.3,-0.3 -4,3 -8.3,7.4 -5,5.1 -9.6,8.8 -12.8,10.2 -2.7,1.3 -6.5,3.6 -8.3,5.2 -3.7,3.3 -4.8,3.6 -15.4,4.3 -4.2,0.3 -8.8,1.1 -10.2,1.8 -4.2,1.9 -4.9,8.8 -0.9,8.8 1,0 4.8,-0.8 8.4,-1.8 z m 7.9,-39.4 c 0,-1.4 -2.2,-4.4 -6,-8 -6.8,-6.6 -10.7,-7.6 -13.5,-3.4 -1.9,2.9 -1.2,4.8 3.1,8.1 4.5,3.5 9.2,5.4 13.2,5.5 2.6,0 3.2,-0.4 3.2,-2.2 z"
       id="path135" />
    <path
       d="m 1223.8,712.4 c -6,-1.4 -16.5,-6.3 -20.8,-9.6 -9.9,-7.6 -15.7,-15.5 -18.5,-25.2 -2.2,-7.6 -1.7,-25.7 1,-33.1 3.8,-10.7 14.3,-22.8 24.3,-27.9 6,-3.1 13.2,-4.6 22.2,-4.6 15.6,0 26.6,4.6 37.7,15.7 10.7,10.6 13.8,19.7 13.1,37.9 -0.3,9.6 -0.7,11.6 -3.4,17.4 -8,16.8 -21.4,26.8 -40.5,29.9 -7.8,1.3 -7.9,1.3 -15.1,-0.5 z M 1224,668 c 8.5,-0.4 17,-1.3 18.9,-1.9 2.6,-0.8 3.8,-0.8 4.9,0.1 1.7,1.5 16.4,1.7 16.8,0.3 0.2,-0.5 -0.1,-1.7 -0.6,-2.5 -0.7,-1.2 -2.8,-1.5 -9.2,-1.3 -4.7,0.1 -11.5,-0.5 -15.6,-1.4 -5.1,-1 -9,-1.3 -12.5,-0.8 -2.9,0.4 -8.4,0.7 -12.4,0.6 -6.4,-0.1 -7.4,0.2 -8.7,2.1 -0.9,1.2 -1.6,3.3 -1.6,4.6 0,2.1 0.3,2.3 2.3,1.7 1.2,-0.3 9.2,-1 17.7,-1.5 z"
       id="path137" />
    <path
       d="m 1592.5,712.9 c -6.6,-1.2 -17.4,-5.7 -22.4,-9.3 -18,-13.4 -24.7,-32 -19.5,-54.6 3.7,-16.6 19.5,-32.6 35.2,-35.9 8.5,-1.8 21.1,-1.4 28.5,0.9 16.5,5.1 30.1,19.8 34.1,36.8 1.5,6.5 0.8,22.2 -1.3,29 -3.7,12.2 -16,24.4 -30.2,30.1 -6.4,2.5 -18.4,4 -24.4,3 z m 5.8,-20.3 c 8.1,-3.4 17.7,-13.4 19.3,-20.1 0.7,-2.9 0.6,-2.9 -3.4,1.6 -5.8,6.5 -18.8,15 -23.2,15.2 -3.8,0.2 -5.1,1.2 -4.3,3.4 0.7,1.7 7.4,1.7 11.6,-0.1 z m -9.9,-22.8 c 2.4,-3.4 1.9,-5.3 -1.9,-8.3 -3.3,-2.5 -6.5,-2.8 -6.5,-0.7 0,1.4 3,8.5 4.2,10 1.5,1.7 2.5,1.5 4.2,-1 z m 11,-2.7 c 1.8,-2.8 -3.9,-13.1 -6.4,-11.6 -2.7,1.7 0.7,12.5 4,12.5 1,0 2.1,-0.4 2.4,-0.9 z m 22.2,-3.2 c 1.8,-3.5 1,-6.9 -1.6,-6.9 -1.3,0 -1.9,0.9 -2.2,3.8 -0.7,7.6 0.8,8.8 3.8,3.1 z"
       id="path139" />
    <path
       fill="url(#lg0)"
       d="m 402.9,563.7 c -1.3,-3.4 -5.5,-13.3 -11.2,-26.2 -1.9,-4.4 -6.1,-13.8 -9.2,-21 -3.1,-7.1 -9.7,-21.8 -14.5,-32.5 -4.8,-10.7 -9.1,-20.5 -9.4,-21.7 -1.4,-4.6 -3.6,-1.9 -3.6,4.5 0,2 -0.7,8.7 -1.5,14.7 -2,15 -6.4,51.8 -7.6,64 -1.6,16.4 0,14.8 -14.2,14.1 -6.7,-0.4 -15.1,-0.8 -18.7,-1.1 -3.6,-0.2 -18,-1 -32,-1.6 -14,-0.6 -25.7,-1.5 -26,-1.9 -0.3,-0.4 -0.3,-6.8 0,-14.2 l 0.5,-13.4 7.7,-8.5 c 11.5,-12.5 17.9,-20.8 28.6,-36.9 28.2,-42.2 44.1,-87.8 49.6,-141.8 2,-19.3 2,-34.5 0,-55.3 C 336.1,228.3 317,179.2 281.3,130 l -8.4,-11.5 0.7,-6.5 c 0.3,-3.6 0.9,-11.4 1.2,-17.5 l 0.7,-11 H 289 c 27.3,0.1 56.4,7.6 84.3,21.7 34.4,17.5 63.4,43.6 82.3,74 18.7,30.3 24.1,49.1 23.1,81.1 -0.7,23.8 -4.1,37.5 -14.5,58.4 -10.1,20.5 -29.7,41.6 -54.4,58.7 l -9.7,6.7 11.8,18.2 c 10.5,16.4 20.9,32.3 39.3,60.7 44.8,68.7 47.4,72.9 45.6,73 -0.2,0 -8.4,2.8 -18.3,6.1 -9.9,3.3 -21.4,7.1 -25.5,8.4 -4.1,1.3 -15.6,5.1 -25.5,8.5 -25.7,8.8 -23.1,8.4 -24.6,4.7 z m -21,-247 c 11,-5.1 18.5,-16.9 21.1,-33 2.3,-13.9 -0.8,-24.5 -9.5,-33.2 -7.8,-7.9 -19.7,-12 -20.2,-7 -0.1,1.1 -0.9,8.5 -1.7,16.5 -0.9,8 -2,19.5 -2.6,25.5 -0.5,6.1 -1.5,15.9 -2,21.8 -0.6,5.9 -0.8,11.3 -0.4,11.9 1,1.5 9.7,0.1 15.3,-2.5 z"
       id="path141"
       style="fill:url(#linearGradient1038)" />
    <path
       fill="url(#lg0)"
       d="m 141.6,554.8 c -0.2,-0.7 -1.6,-8.7 -3,-17.8 -1.5,-9.1 -3.1,-18.7 -3.6,-21.5 C 131.8,498.8 97.1,291.8 93,265 91.8,257 90.6,249.5 90.3,248.3 89.8,246.1 89.4,246 77,246 H 64.2 l -0.6,-2.8 C 63,240.4 55.8,193.8 53.5,178.5 51.6,165.5 41.8,103.7 35.9,67 33,49.7 30.5,33.1 30.3,30.3 L 29.8,25 h 5.3 c 19.8,0.1 64.5,10.3 87.9,20 4.1,1.7 10.2,4.2 13.5,5.5 15.9,6.3 42.2,21.7 62.2,36.6 90.1,66.9 131.2,176.6 107.3,286.7 -12.6,57.9 -43.8,110.7 -82.5,139.7 -22.2,16.6 -47.3,30.8 -68.1,38.5 -11.6,4.3 -13.3,4.7 -13.8,2.8 z m 51.2,-175.9 c 20.6,-7.1 35.7,-23.1 41.2,-43.7 1.3,-5 1.6,-21.6 0.5,-28 -1,-6.1 -4.7,-15.2 -8.4,-20.5 -4.5,-6.7 -15.3,-16 -22.9,-20 -8.1,-4.3 -22.9,-9.3 -31.4,-10.7 -3.5,-0.6 -8.1,-1.4 -10.3,-2 -2.2,-0.5 -4.3,-0.6 -4.7,-0.2 -0.3,0.4 0.5,7.5 1.8,15.7 3.6,22.8 12.3,76 13.9,85 0.8,4.4 2.2,12.4 3.1,17.8 l 1.6,9.9 5.1,-0.7 c 2.8,-0.4 7.5,-1.6 10.5,-2.6 z"
       id="path143"
       style="fill:url(#linearGradient1040)" />
    <path
       d="m 194.7,339.3 c -0.3,-1 -1,-4.9 -1.7,-8.8 -0.6,-3.8 -2.1,-13.5 -3.4,-21.5 -1.3,-8 -2.1,-14.9 -1.6,-15.3 1.2,-1.3 4.1,0.6 9.2,6.1 5.3,5.6 8.3,13.6 8.1,21.3 -0.1,5.6 -3.5,13.8 -7.3,17.4 -2.5,2.4 -2.9,2.5 -3.3,0.8 z"
       id="path145" />
    <path
       fill="url(#lg0)"
       d="m 742.7,552.5 c -11.1,-1.4 -30.9,-7 -36.1,-10.2 -1.9,-1.2 -3.3,-3.3 -4.3,-6.3 -1.5,-5 -13.9,-48.8 -18.3,-64.5 -1.5,-5.5 -8.2,-29.3 -14.9,-53 -6.7,-23.6 -13.7,-48.8 -15.7,-56 -2,-7.1 -5.1,-18.4 -7,-25 -1.8,-6.6 -5.6,-20.3 -8.5,-30.5 -2.8,-10.2 -5.1,-19.6 -5.1,-21 0,-1.4 2.4,-6.7 5.1,-11.8 21.1,-38.7 50.8,-64 87.1,-74.3 7.7,-2.2 10.4,-2.4 28.5,-2.4 15,0 22.1,0.5 28.5,1.8 26.8,5.5 46.7,15 66.6,31.8 8.3,7 19.9,20 19.3,21.5 -0.2,0.5 -4.3,4.1 -9.1,8.1 -17.2,14.4 -30.7,29.8 -40.2,46.1 -2,3.4 -3.9,6.2 -4.2,6.2 -0.2,0 -3,-1.3 -6.2,-2.9 C 795.7,303.9 779.9,300 767,300 c -27.2,0 -55.2,17.8 -67,42.5 -7.5,15.8 -9.7,28.9 -8.1,49.5 1.7,21.7 7.7,37.5 18.2,48.6 9.6,9.9 21.2,14.4 37.6,14.4 11.9,0 18.8,-2.4 25.3,-8.9 4.2,-4.2 10.9,-15.6 12.2,-20.8 l 0.6,-2.3 -25.1,-0.2 -25.2,-0.3 -0.3,-32.7 L 735,357 h 33 33 l -0.6,12.8 c -0.7,13.9 0.2,23.2 4.2,43.2 7.1,35 19.8,58 46.2,83.6 l 9.4,9 -9,8.8 c -13.9,13.6 -25.9,21.7 -42.9,29.1 -19.8,8.6 -43.5,11.8 -65.6,9 z"
       id="path147"
       style="fill:url(#linearGradient1042)" />
    <path
       fill="url(#lg0)"
       d="m 578.6,531.8 c -2,-11.2 -4.8,-25.9 -6.2,-32.8 -1.3,-6.9 -4.4,-23.7 -6.9,-37.5 -2.5,-13.7 -4.8,-26.2 -5.1,-27.7 L 559.8,431 H 541 522.2 l -0.6,3.3 c -0.3,1.7 -1.2,8.8 -2.1,15.7 -2.1,16.5 -5.5,40.1 -6.1,42.3 -0.6,1.9 -6.2,2.4 -9.4,0.7 -1.9,-1 -15,-19.6 -33.7,-47.5 -20.9,-31.3 -23.1,-35.1 -22.8,-38 0.1,-0.5 0.5,-4.4 0.9,-8.6 1.3,-13.2 1.8,-14.2 9.9,-22.6 10.9,-11.3 16,-17.5 23.9,-29.2 12.6,-18.8 20.9,-38.4 26,-61 2.9,-12.8 3.2,-42.3 0.5,-54.7 -4.2,-19.8 -11.8,-39.1 -20.6,-52.4 -6.9,-10.3 -6.9,-10.5 -5.8,-19.7 0.8,-6.8 1.3,-8.3 2.7,-8.3 1,0 7.1,1.1 13.6,2.4 6.6,1.4 23.8,4.8 38.4,7.6 14.6,2.8 29.2,5.6 32.5,6.3 l 6,1.3 2.6,10 c 1.5,5.4 4.8,17.8 7.4,27.4 2.6,9.6 6.3,23.4 8.2,30.5 10.4,39.4 12.6,47.8 14.8,56.5 1.3,5.2 4,15.8 6,23.5 10.1,38.3 19.1,74.2 50.6,200.9 2.7,10.9 4.8,20.1 4.5,20.3 -0.6,0.7 -34.5,6.9 -49.6,9.2 -8,1.1 -19.1,2.8 -24.6,3.6 -5.6,0.8 -10.8,1.5 -11.6,1.5 -1,0 -2.4,-5.3 -5.2,-20.2 z M 548.7,346.6 c 0.1,-0.1 -0.6,-5.4 -1.7,-11.6 -1,-6.3 -2.6,-16.7 -3.5,-23 -0.9,-6.3 -2.3,-15.3 -3,-20 -0.8,-4.7 -2,-13.6 -2.6,-19.7 -0.7,-6.2 -1.6,-10.7 -2,-10.1 -0.4,0.6 -1,4.3 -1.4,8.2 -2,23.4 -3.7,41.9 -5,54.6 -0.8,8 -1.5,16.3 -1.5,18.5 v 4 l 10.2,-0.3 c 5.7,-0.2 10.4,-0.5 10.5,-0.6 z"
       id="path149"
       style="fill:url(#linearGradient1044)" />
    <path
       fill="url(#lg0)"
       d="m 1033.7,550.2 -3.8,-0.3 0.5,-6.2 c 0.4,-3.4 0.8,-8.6 1.1,-11.4 0.5,-6.5 0.7,-6.8 5.8,-9.5 10.6,-5.4 30.4,-20.5 39.3,-29.9 11.2,-12 19.9,-24.6 26.7,-38.5 5.2,-10.6 5.9,-12.4 9.1,-23.4 5.3,-18.5 6.1,-24.9 6.1,-50 -0.1,-25.9 -1.1,-33 -7.5,-52.2 -6.8,-20.1 -21.7,-42.7 -40,-60.6 l -10,-9.7 1,-6.5 c 0.5,-3.6 1.9,-15.3 3,-26 1.2,-10.7 2.4,-20.6 2.6,-21.8 l 0.5,-2.4 25.2,0.7 c 13.9,0.4 25.9,1.1 26.7,1.5 1.3,0.7 14.5,27.6 52.7,107 5.1,10.7 9.7,19.6 10.2,19.8 0.4,0.1 1.3,-10 2,-22.5 0.7,-12.5 1.6,-30.2 2.1,-39.3 0.5,-9.1 1.2,-26.5 1.6,-38.8 0.4,-12.2 1,-22.4 1.3,-22.6 0.8,-0.5 58.4,1.3 62.7,2 l 3.1,0.4 0.7,65.8 c 0.4,37.1 0.3,104.9 -0.3,155.7 -1.4,112.5 -1.5,117.5 -2.1,117.5 -0.3,0 -16.1,0.2 -35.2,0.4 l -34.6,0.3 -7.1,-14.1 c -3.8,-7.8 -9.5,-18.8 -12.6,-24.6 -3.1,-5.8 -9.7,-18.5 -14.8,-28.2 -5,-9.8 -9.7,-17.8 -10.3,-17.8 -0.7,0 -1.4,2.7 -1.8,6.8 -0.4,3.7 -1.3,11.4 -2.1,17.2 -2.2,15.2 -6.6,48.5 -7.4,55.3 l -0.6,5.7 -45,0.3 c -24.7,0.1 -46.7,0.1 -48.8,-0.1 z"
       id="path151"
       style="fill:url(#linearGradient1046)" />
    <path
       fill="url(#lg0)"
       d="m 931,513.5 c -12.3,-2.7 -18.1,-4.9 -30.7,-11.5 -26.7,-14 -48.5,-35.7 -61.2,-60.7 -3.9,-7.9 -9.4,-26.1 -11.7,-38.8 -2.3,-13.5 -2.3,-39 0,-49.8 2,-9.3 6.2,-21 10.7,-29.9 9.2,-18.3 27.3,-38.1 46.6,-51 30.7,-20.6 72.3,-27.6 110.3,-18.7 28.1,6.5 52,22.4 72.2,47.8 11.3,14.1 16.5,23.9 21.8,41 9.6,30.5 6.9,70.5 -6.6,98.8 -12.5,26.1 -33,47.7 -57.4,60.2 -12.6,6.5 -21.7,9.6 -36.5,12.6 -17,3.5 -41.8,3.5 -57.5,0 z M 913.8,452 c 5.9,-4.4 12.5,-9.3 14.7,-11 2.2,-1.6 9.6,-7.1 16.4,-12.1 l 12.4,-9.3 4.1,2.4 c 5.5,3.2 36.7,26.4 44,32.8 3.3,2.9 6.3,5.2 6.9,5.2 1.2,0 0.2,-5.2 -2.8,-14.3 -1.3,-4 -3.8,-12.6 -5.5,-19.2 -1.7,-6.6 -4.3,-15.5 -5.6,-19.8 -1.3,-4.3 -2.4,-8.4 -2.4,-9.1 0,-0.7 2.8,-3.8 6.3,-6.9 3.4,-3.1 11.6,-10.5 18.2,-16.4 6.6,-5.9 14.1,-12.5 16.8,-14.6 8.3,-6.8 8.3,-6.8 -23.6,-6.1 l -28.2,0.5 -8.2,-24.8 c -4.4,-13.6 -8.7,-26.9 -9.3,-29.5 -2.2,-8.3 -1.3,-9.8 -15.5,26.4 -5.4,13.6 -10.4,25.6 -11.1,26.7 -1.4,2 -2.2,2 -21.7,1.6 -11.1,-0.3 -24.1,-0.7 -28.9,-1 -7.1,-0.4 -8.8,-0.2 -8.8,0.9 0,0.8 6.4,7.4 14.2,14.8 7.9,7.3 17.8,16.7 22.1,20.8 l 7.9,7.6 -4.6,10.2 c -2.5,5.6 -4.6,10.7 -4.6,11.2 0,0.6 -0.5,1.8 -1,2.8 -1.7,2.9 -14,35.2 -14,36.8 0,0.7 0.2,1.4 0.5,1.4 0.3,0 5.4,-3.6 11.3,-8 z"
       id="path153"
       style="fill:url(#linearGradient1048)" />
    <path
       d="m 1525.1,499.3 c 0,-2.5 0.1,-2.6 0.9,-0.8 1.2,2.7 1.2,3.5 0,3.5 -0.5,0 -1,-1.2 -0.9,-2.7 z"
       id="path155" />
    <path
       d="m 2386.5,1 c -45,-0.4 -33.6,-0.5 51,-0.6 60,-0.1 108.1,0 107,0.2 -3.8,0.7 -100,0.9 -158,0.4 z"
       id="path157" />
    <path
       d="m 2547,0.9 c 0,-0.5 1.4,-0.9 3,-0.9 1.7,0 3,0.4 3,0.8 0,0.5 -1.3,0.9 -3,1 -1.6,0 -3,-0.4 -3,-0.9 z"
       id="path159" />
    <path
       d="m 2554.3,0.8 c -0.2,-0.5 6.7,-0.8 15.4,-0.8 10.4,0.1 15.2,0.4 14.2,1 -1.9,1.1 -28.9,0.9 -29.6,-0.2 z"
       id="path161" />
    <path
       d="m 2067.8,0.3 c 11.1,-0.2 29.3,-0.2 40.5,0 11.1,0.1 2,0.2 -20.3,0.2 -22.3,0 -31.4,-0.1 -20.2,-0.2 z"
       id="path163" />
    <path
       d="m 2178.8,0.3 c 27.7,-0.2 72.7,-0.2 100,0 27.3,0.1 4.7,0.2 -50.3,0.2 -55,0 -77.4,-0.1 -49.7,-0.2 z"
       id="path165" />
  </g>
  <g
     fill="#fcec11"
     id="g217"
     transform="translate(-0.5)">
    <path
       d="m 855.8,704.5 c -12.1,-3 -22,-10 -23.9,-16.8 -0.6,-2.3 -1.8,-5.6 -2.5,-7.3 -7.2,-16.5 -3,-35 10.7,-47.3 11.5,-10.3 26.1,-12.9 42.4,-7.3 7.2,2.4 8.2,3.1 9.7,6.3 0.9,2 3.4,5 5.6,6.7 2.1,1.7 5.1,5.4 6.7,8.4 2.8,5.1 3,5.9 2.9,17.3 0,13.9 -1,17 -9.1,27 -8.6,10.6 -13.6,13 -29.8,14 -4.3,0.3 -9.2,-0.1 -12.7,-1 z m 4.7,-14.6 c 9.6,-2.3 12.2,-4.9 6.9,-6.9 -2.3,-0.9 -14,-0.6 -24.1,0.6 -5,0.6 -7,3.1 -5.2,6.5 1,2 1.6,2.1 9.7,1.4 4.8,-0.3 10.5,-1.1 12.7,-1.6 z m 25.5,-0.1 c 1.1,-1.3 2.3,-3.4 2.5,-4.8 0.3,-1.4 1.4,-6.3 2.5,-11 1.1,-4.7 2,-10.6 2,-13.2 0,-4.4 -0.4,-5.2 -5.9,-11 l -5.9,-6.3 h -12.3 c -11.7,0 -24.2,0.9 -28.2,2.1 -3.1,0.9 -1.5,3.8 2.6,4.8 2.6,0.7 6.4,0.6 12,-0.3 18.8,-3 23.3,-2.6 28.1,2.8 1.7,1.8 1.9,3.5 1.7,12.9 l -0.1,10.7 -5,4.5 c -2.8,2.5 -5,5.3 -5,6.2 0,4.7 7.4,6.5 11,2.6 z m 7.8,-47.9 c 0.4,-3 -1.3,-4.7 -5.6,-5.5 -2.7,-0.5 -3.2,-0.3 -3.2,1.2 0,2.4 5,7.5 7,7.2 0.8,-0.2 1.6,-1.5 1.8,-2.9 z"
       id="path169" />
    <path
       d="m 1348.3,705 c -2.3,-0.5 -7.2,-1.8 -11,-2.9 -9.4,-2.9 -13.2,-6.7 -19.3,-19.5 -5.6,-11.6 -5.9,-14.1 -3.4,-26.3 2.5,-12.5 6.3,-17.8 17.9,-25.8 10.6,-7.2 21.4,-9.2 33.3,-6.1 7.4,2 12.9,5.5 21,13.3 6.7,6.6 7,7 8.7,14.7 2.8,12.7 2.6,14.4 -3.2,31.3 -1.6,4.8 -11.5,15 -16.5,17.1 -4.6,2 -17.9,5.2 -20.8,5.1 -1.4,-0.1 -4.4,-0.5 -6.7,-0.9 z m 22.2,-13 c 3.3,-1.7 6.7,-3 7.6,-3 3.3,0 7.7,-6.1 10.3,-14.2 3.1,-9.5 3.2,-10.8 0.6,-10.8 -2.3,0 -4,2.8 -4,6.8 0,5.9 -8.2,12.2 -15.9,12.2 -3.1,0 -4.4,-0.6 -6,-2.6 -1.2,-1.5 -2.1,-3.6 -2.1,-4.8 -0.1,-2.7 -2.4,-11.3 -3.3,-12.2 -1.1,-1.2 -2.7,4.5 -2.7,9.9 0,7.4 1.7,16.5 3.5,19.3 2,3.1 4.7,3 12,-0.6 z m -37.6,1 c 3,-1.5 7.8,-10.1 9,-15.8 0.6,-2.9 1.1,-8.1 1.1,-11.5 0,-3.4 0.5,-8 1,-10.2 1.3,-5.4 0.4,-9.7 -3,-13.6 -2.4,-2.8 -3.2,-3.2 -4.7,-2.3 -1,0.6 -2.4,2.3 -3.1,3.7 -1.2,2.5 -1,3.1 2,7.4 3.1,4.6 3.3,5.2 3.1,13 -0.2,9.4 -2.7,15.7 -8.9,22.5 -3.3,3.7 -4.1,5.8 -2.7,7.1 0.9,1 4.2,0.8 6.2,-0.3 z m 29.1,-42.6 c 2.7,-8.9 2.6,-12.5 -0.5,-15.4 l -2.6,-2.4 -2.6,2.6 c -2.5,2.5 -2.5,2.9 -1.4,7 0.7,2.4 1,6.4 0.8,9 -0.5,5.2 -0.2,5.8 2.4,5.8 1.4,0 2.3,-1.7 3.9,-6.6 z"
       id="path171" />
    <path
       d="m 737.5,704.2 c -8.9,-1 -13.6,-3.3 -20.6,-10.3 -7.8,-7.8 -9.7,-11 -11.5,-19.4 -2.6,-12 -1.2,-21.3 4.7,-31 4.2,-7 13.2,-16.2 17.7,-18.1 5.8,-2.4 18,-2.9 26.5,-1 14.5,3.3 22.4,8.9 27.9,20.1 5.7,11.5 5.1,31.8 -1.2,42.1 -3.3,5.3 -11.6,12.1 -17.4,14.3 -5.3,2 -20.4,3.9 -26.1,3.3 z m 5.2,-7.6 c 8,-2.1 15.9,-7.9 17.6,-12.8 0.9,-2.6 -1.1,-2.2 -7.9,1.4 -3.2,1.8 -9.5,4.4 -13.9,5.9 -6.3,2.1 -8.1,3.1 -8.3,4.8 -0.3,1.8 0.2,2.1 3.5,2.1 2.1,0 6.2,-0.6 9,-1.4 z m 24.5,-21.8 c 6.2,-6.7 8.8,-16.7 5,-20.1 -5.7,-5.2 -12.2,-5.7 -35.7,-2.6 -19.9,2.5 -20.7,2.8 -21.9,6.2 -1.5,4.3 0.1,5.1 7,3.3 18.7,-4.7 34,-5.8 39.1,-2.6 4.1,2.5 4.8,5.2 2.8,11.5 -2.6,8.5 -1.5,9.8 3.7,4.3 z M 759,641.2 c 5,-0.6 5.5,-0.9 5.8,-3.4 0.3,-2.5 0,-2.7 -5.3,-3.8 -5.8,-1.2 -11.2,-0.7 -17.9,1.6 -2.8,1 -6.2,1.2 -11.6,0.8 -7.3,-0.6 -7.8,-0.5 -8.5,1.5 -0.3,1.1 -0.3,2.5 0,3.1 0.7,1.1 28.4,1.2 37.5,0.2 z"
       id="path173" />
    <path
       d="m 979.5,703.6 c -3.3,-0.8 -7.6,-1.6 -9.6,-2 -6.8,-1.2 -17.6,-15 -21.9,-28.1 -1.5,-4.7 -1.6,-12 -0.1,-19.8 2.7,-13.7 16.6,-26.8 32.7,-30.6 8.7,-2.1 25.5,1 32.3,6 5.7,4.1 15.1,16.4 16.8,21.8 0.8,2.5 1.2,6 0.9,7.6 -0.3,1.7 -0.6,6.4 -0.7,10.5 -0.2,9.1 -1.6,12.7 -7.4,19.6 -10.2,11.9 -28.4,18.2 -43,15 z m -3.1,-11.7 c 3.2,-1 7.1,-3 8.6,-4.4 1.8,-1.8 5.6,-3.4 11.3,-4.9 8.5,-2.3 8.7,-2.4 17.2,-10.9 7.4,-7.5 8.5,-9.1 8.5,-12.1 0,-1.9 -0.4,-3.7 -0.9,-4.1 -0.6,-0.3 -2.9,2 -5.2,5 -4.2,5.5 -13.9,13.5 -16.5,13.5 -0.7,0 -2.8,1.3 -4.6,2.9 -5.5,4.7 -8.7,5.8 -18.7,6.3 -8.8,0.4 -9.5,0.6 -11.8,3.2 -1.7,2 -2.2,3.4 -1.7,4.9 1.3,4.1 2.2,4.2 13.8,0.6 z m 6.5,-37.5 c 0.2,-0.2 -0.2,-1.7 -0.9,-3.4 -1.5,-3.5 -7.7,-9.4 -12.5,-11.7 -3.1,-1.5 -3.6,-1.5 -5.9,0.1 -4.7,3 -2.6,7.8 5.7,13.1 4.5,2.9 11.4,3.8 13.6,1.9 z"
       id="path175" />
    <path
       d="m 1099.5,704.1 c -6.3,-1.6 -15.2,-6.8 -20.1,-11.6 -6.1,-6 -9.3,-13.4 -10.4,-24.5 -1.1,-10.8 2.3,-21.6 9.8,-30.9 4.9,-6.1 10.5,-9.8 18.1,-12.2 8.9,-2.8 18.3,-2.8 25.2,-0.1 3,1.1 7.1,2.3 9.1,2.7 4.3,0.7 5.8,2.3 3.4,3.7 -1.3,0.7 -1.6,1.7 -1.2,3.4 0.7,2.7 -0.5,3.1 -4.8,1.4 -2.3,-0.8 -2.6,-0.7 -2.6,1.1 0,2.5 6.1,8.9 8.5,8.9 1.5,0 1.7,-0.6 1.2,-3.5 -0.5,-3 -0.3,-3.5 1.3,-3.5 6.5,0 12.6,7.9 14.1,18.4 1.2,8.9 -2,27.5 -5.7,32.3 -3.5,4.6 -12,10.6 -17.9,12.7 -5.5,2 -23,3 -28,1.7 z m 12.1,-11.6 c 1.9,-2.9 2,-8.4 0.4,-14.5 -1.6,-5.8 -0.4,-9.6 4.2,-14.1 3.7,-3.5 4.5,-3.9 9.3,-3.9 8,0 11.5,-0.9 11.5,-3.1 0,-2.5 -3.5,-4.6 -9,-5.3 -13.5,-1.9 -17,-4.6 -17,-12.7 0,-4.3 -0.3,-4.9 -2,-4.9 -2.5,0 -4,3.5 -4,9 0,3.6 -0.4,4.1 -4.3,6.5 -2.6,1.4 -6,2.5 -8.3,2.6 -5,0.1 -10.5,2.1 -11.8,4.3 -2,3.1 1.8,4.7 11.1,4.5 13.5,-0.2 15.5,2.5 15,21.2 -0.3,12.9 1.2,16 4.9,10.4 z m -24.4,-4.2 c 3.2,-3.7 3.9,-6.2 2.7,-8.5 -2.7,-5.1 -6.8,-6.1 -9.3,-2.3 -2.3,3.5 -2,7.2 0.9,10 2.9,3 3.7,3.1 5.7,0.8 z m 52.2,-0.9 c 1.3,-3.3 0.5,-6.1 -2.6,-9.1 -3.4,-3.2 -7.1,-4.8 -8.7,-3.9 -1.2,0.8 0.5,9.4 2.4,12.3 1.9,2.8 7.9,3.3 8.9,0.7 z"
       id="path177" />
    <path
       d="m 1464.5,704.1 c -6,-1.6 -18,-9.9 -19,-13.2 -0.4,-1 -1,-1.9 -1.4,-1.9 -1,0 -5.4,-9.2 -7.6,-15.9 -2.3,-6.9 -1.6,-13.2 2.4,-23.6 4.8,-12.3 15.5,-22.3 27.8,-25.9 9.3,-2.8 18.4,-1.6 28.5,3.6 7.7,4.1 8.8,5.1 6.7,6.3 -0.6,0.4 -0.7,1.9 -0.4,3.6 0.6,2.8 0.6,2.9 -2.1,1.9 -2.9,-1.1 -5.4,-0.7 -5.4,0.9 0,1.8 5.9,7.8 8.1,8.4 2,0.5 2.1,0.3 1.6,-3.8 l -0.6,-4.4 4.6,2 c 2.5,1.1 5.2,2.7 6,3.7 2.2,2.8 4.6,12.4 4.5,18 0,5.5 -3.9,17.5 -8,24.9 -2.8,5 -12.2,12.9 -17.2,14.3 -4.6,1.4 -24.7,2.2 -28.5,1.1 z m 31.3,-12.2 c 4,-2 7.3,-6.1 6,-7.4 -0.3,-0.3 -3.9,0.5 -7.9,1.9 -4.1,1.3 -10.3,2.7 -13.9,3.1 -5.8,0.6 -6.9,0.4 -10,-1.7 -4.6,-3.1 -7,-8.2 -7.7,-16.5 -0.6,-8 0,-8.8 8,-11.4 2.9,-0.9 5.7,-2.6 6.6,-3.9 l 1.5,-2.2 -6.1,0.7 c -8.4,0.9 -10.3,0.2 -10.3,-4 0,-2.6 0.7,-3.9 3,-5.5 4.7,-3.3 3.5,-8 -2,-8 -3.9,0 -5,1.8 -5,7.9 0,8.8 -2.2,12.1 -9.8,14.7 -8,2.7 -8.9,3.6 -7.4,6.9 1,2.1 1.6,2.4 3.9,1.9 1.6,-0.4 3.2,-1.1 3.8,-1.5 0.5,-0.5 2.4,-0.9 4.2,-0.9 4.5,0 5.9,3.4 4.2,10.1 -1.6,6.2 -0.1,11.7 4.3,15.5 3,2.4 3.8,2.6 9.8,2.2 3.6,-0.3 7.6,-0.2 9,0.3 3.7,1.2 10.8,0.2 15.8,-2.2 z m -6,-18.3 c 3.5,-1.8 14.2,-13 14.2,-14.8 0,-5.2 -13.5,-9.1 -18.5,-5.4 -1.9,1.3 -1.7,1.5 1.7,2.1 7.3,1.4 7.3,4.9 0.1,12.6 -4,4.3 -4.3,4.8 -2.6,5.8 2.3,1.3 1.9,1.3 5.1,-0.3 z"
       id="path179" />
    <path
       d="m 1591.8,703.3 c -3.5,-0.7 -7.6,-1.8 -9.3,-2.4 -5.3,-2.1 -14.4,-8.1 -15.9,-10.5 -0.9,-1.2 -3.4,-8 -5.7,-15 -4.9,-15 -4.9,-20 0.3,-30.1 4.6,-9.1 9.8,-14.6 18.8,-19.7 10,-5.8 18.2,-6.9 29.8,-4.1 9,2.2 13,4.9 21.5,14.2 8.9,9.7 10.4,14.4 8.8,28.7 -1.7,16.7 -5.6,24.6 -15.5,31.4 -8.7,6 -9.3,6.2 -18.8,7.6 -6.1,0.9 -9.1,0.9 -14,-0.1 z m 3.7,-9.4 c 5.7,-1.6 16.1,-9.3 19.2,-14.2 1.5,-2.3 3.1,-6 3.6,-8.2 0.6,-2.2 1.8,-5.1 2.9,-6.4 3.2,-4.2 1.3,-10.3 -2.8,-8.7 -1.4,0.5 -1.6,1.7 -1.1,6.6 0.5,5.6 0.3,6.2 -2.8,10.3 -4.8,6.2 -19.2,15.7 -23.9,15.7 -4.3,0 -6,2.5 -3.1,4.6 2.3,1.7 2.9,1.7 8,0.3 z m -6.9,-23.6 c 2.2,-2.9 1.6,-6 -1.7,-8.7 -3.5,-2.9 -5.7,-3.3 -6.5,-1.1 -1.1,2.8 3.4,11.5 5.9,11.5 0.5,0 1.6,-0.8 2.3,-1.7 z m 9.8,-1.9 c 2.6,-1 2,-6.8 -1,-10.3 -1.4,-1.7 -3.2,-3.1 -3.9,-3.1 -2.3,0 -2.6,4.6 -0.5,9.4 1.9,4.6 2.6,5.1 5.4,4 z"
       id="path181" />
    <path
       d="m 1708.5,703.4 c -2.2,-0.9 -5.3,-2.1 -6.9,-2.7 -1.6,-0.6 -4.6,-2.7 -6.6,-4.6 -2,-2 -4.9,-4.4 -6.4,-5.4 -5.5,-3.7 -8.6,-14.1 -8.6,-28.5 0,-9.5 1.9,-15 7.6,-22.4 8.9,-11.4 20.5,-16.8 35.1,-16.5 6.8,0.2 8.8,0.7 15.8,4.1 14.6,7.2 23.5,19.7 23.5,33.4 0,6 -2.1,18.8 -3.9,23.5 -2.9,7.5 -12.4,15.5 -23.1,19.4 -5,1.7 -21.5,1.6 -26.5,-0.3 z m 3,-8.7 c 0.7,-1.7 1.6,-7 2,-11.7 0.8,-10.1 1.9,-14.1 4.5,-16.5 2.8,-2.5 2.5,-4.4 -1.2,-8.3 -3.1,-3.1 -3.3,-3.9 -3.9,-11.8 -0.4,-6.8 -0.9,-8.9 -2.6,-10.6 -4,-3.9 -4.4,-1.9 -3.8,18 0.4,10.3 0.3,24 -0.2,30.5 -0.5,7.4 -0.5,12.1 0.1,12.7 1.8,1.8 3.7,1 5.1,-2.3 z m 36.8,-22.9 c 1.2,-3.6 -1.7,-5.2 -13.3,-7.3 -11.2,-2 -12.1,0.3 -2.2,5.5 6.1,3.1 14.6,4.1 15.5,1.8 z"
       id="path183" />
    <path
       d="m 608.6,702.4 c -7,-2.2 -9.2,-3.9 -15.7,-12.2 -4.8,-6 -6,-8.5 -7.3,-14.2 -1.9,-8 -2,-15.9 -0.5,-21.4 1.1,-4.1 7.7,-15.3 11.3,-19.5 5.8,-6.6 17.9,-11.1 29.2,-11.1 5.2,0 16.6,4.2 20.4,7.4 1.7,1.4 3.7,2.3 4.4,2 2.1,-0.8 5.4,1.3 6.1,3.8 0.4,1.3 2.2,5.7 4.1,9.9 2.9,6.6 3.4,8.8 3.5,15.5 0,9.1 -1.3,17 -3.7,21.6 -2.7,5.3 -11.1,12.7 -17.8,15.9 -5.6,2.6 -7.8,3 -17.7,3.4 -8.7,0.4 -12.6,0.1 -16.3,-1.1 z m 0.5,-6.5 c 0.6,-1.1 1.5,-6.7 2,-12.2 1.1,-12 1.4,-13.2 4.6,-17.4 2.7,-3.5 2.6,-3.7 -2.1,-9.6 -2.6,-3.2 -3,-4.8 -3.6,-11.8 -0.4,-6.4 -1,-8.4 -2.5,-9.5 -1,-0.8 -2.4,-1.4 -2.9,-1.4 -0.8,0 -1,9.8 -0.9,31.3 0.1,17.1 0.2,31.5 0.2,32 0.2,1.6 4.1,0.6 5.2,-1.4 z m 35,-22.9 c 2.7,0 2.5,-3.6 -0.3,-5.4 -1.3,-0.8 -6.1,-2.1 -10.8,-3 -11.7,-2 -12.8,-0.5 -3.6,4.8 5.6,3.2 9.5,4.6 11.4,4 0.8,-0.2 2.2,-0.4 3.3,-0.4 z m 2.6,-25.6 c 0.7,-2.2 -4.2,-7.9 -7.1,-8.2 -4.8,-0.6 -5.1,1.2 -1,5.7 3.6,4.1 7.2,5.2 8.1,2.5 z m 4,-8.1 c 0.4,-1.1 -0.4,-2.6 -2.5,-4.5 -4.9,-4.3 -8.1,-3.4 -6.8,1.8 1,3.9 8.1,6 9.3,2.7 z"
       id="path185" />
    <path
       d="m 1223,702.6 c -8.3,-1.9 -12.8,-4.2 -17.4,-8.8 -10,-10.4 -12.2,-15.3 -13.2,-30.2 -0.8,-10.9 0.1,-14.4 5.8,-23.3 5.8,-9.1 14.2,-15.5 23.4,-17.9 10.8,-2.8 22,-1.6 32.4,3.6 5.5,2.7 15.3,14.7 18.1,22 2.4,6.3 2.7,24.2 0.5,29.4 -1.9,4.7 -13.3,18.4 -17,20.7 -7.6,4.7 -22.7,6.7 -32.6,4.5 z m -4,-33.6 c 4.7,0 11.9,-0.6 16,-1.2 9.2,-1.4 11.9,-1.3 19.1,0.3 7.3,1.5 10.9,0.7 10.9,-2.6 0,-1.3 -0.5,-2.7 -1,-3 -0.6,-0.4 -6.1,-0.8 -12.3,-1 -6.2,-0.1 -13.9,-0.7 -17.2,-1.3 -4.3,-0.7 -7.8,-0.6 -12.5,0.2 -4.3,0.9 -7.2,0.9 -8.7,0.3 -3.5,-1.5 -8,0.8 -9.3,4.9 -1.5,4.5 -0.7,5.5 3.3,4.3 1.7,-0.5 7,-0.9 11.7,-0.9 z"
       id="path187" />
    <path
       fill="url(#lg0)"
       d="m 679.6,453.6 c -3.4,-11.2 -18.9,-66 -26.1,-92.6 -2.1,-7.4 -4.8,-17.1 -6.1,-21.5 C 640.6,316 633,287.8 633,286.1 c 0,-3.1 9.9,-20.6 18.2,-32.2 22.3,-31.2 54.2,-51.7 87.3,-56.1 10.3,-1.3 31.3,-0.3 44.3,2.2 29.2,5.5 52.2,17.8 73.5,39.2 6.5,6.5 11.7,12.4 11.4,13.1 -0.2,0.6 -3,3.2 -6.3,5.7 -8.4,6.3 -27,25.2 -33.6,34 -3.1,4.1 -7.3,10.5 -9.3,14.2 l -3.7,6.8 -4.1,-2.4 c -5.5,-3.2 -17.5,-7.4 -26,-9.2 -9.8,-2 -26.7,-1.8 -35.4,0.4 -20.5,5.4 -40.1,21.4 -49.5,40.4 -6.1,12.3 -8,19.8 -8.5,33.8 -1.1,26.5 5.1,49.9 16.9,63.4 4.7,5.5 14.3,12.1 18.9,13.1 1.7,0.4 3.2,1.2 3.5,1.9 0.3,0.8 4.4,1.1 14.5,0.9 16.4,-0.3 21.3,-1.9 28.7,-9.3 4.7,-4.8 12.8,-20 11.9,-22.4 -0.6,-1.4 -3.8,-1.6 -25.1,-1.6 -20.9,0 -24.5,-0.2 -25,-1.5 -0.3,-0.8 -0.4,-15.4 -0.3,-32.3 l 0.2,-30.7 32.6,-0.3 32.7,-0.2 -0.5,14.7 c -0.7,20.6 1.9,38.9 8.9,61.3 2.8,9.3 3.6,11.3 6.4,17.5 1.3,3 1.8,5.6 1.5,8.5 -0.1,1.2 -0.6,1 -1.9,-0.6 -2.8,-3.3 -7,-5.7 -10.8,-6 -2,-0.2 -4.2,-0.8 -4.9,-1.4 -0.9,-0.8 -1.7,-0.7 -2.8,0.5 -1.9,1.8 -3.7,2 -3.7,0.2 0,-0.7 -1.4,-1.2 -3.4,-1.3 -2.6,0 -3.3,0.3 -2.9,1.5 0.3,0.9 -0.4,0.5 -1.4,-0.8 l -2,-2.3 -3.9,2.4 c -7.7,4.9 -13.7,6.1 -30.4,6.4 -10.4,0.1 -17.2,-0.2 -20.6,-1.1 -5.9,-1.5 -15.2,-4.5 -17.4,-5.5 -2.2,-1 -9.6,0 -7.9,1.1 1.1,0.7 1.1,0.9 0.1,0.9 -0.7,0 -1.5,-0.7 -1.8,-1.5 -0.4,-1 -1.9,-1.3 -5.5,-1.1 -3.3,0.2 -5,-0.2 -5.3,-1.1 -0.7,-1.8 -3.3,-1.6 -4,0.3 -0.3,0.9 -0.6,3.7 -0.6,6.4 0,3.9 -0.4,4.9 -2,5.3 -1.7,0.4 -2.3,-0.6 -4.4,-7.7 z"
       id="path189"
       style="fill:url(#linearGradient1050)" />
    <path
       fill="url(#lg0)"
       d="m 1001.1,453.1 c -9,-7.6 -13.5,-10.3 -15.5,-9.5 -0.9,0.3 -2.4,0 -3.3,-0.7 -1.5,-1.3 -1.6,-1.1 -1,0.9 0.4,1.8 0.2,2.2 -0.9,1.8 -0.8,-0.3 -2.2,-0.9 -3.1,-1.3 -1.3,-0.5 -1.5,-0.3 -1,1.1 0.5,1.2 0.3,1.6 -0.5,1.3 -0.7,-0.2 -1.2,-1 -1,-1.6 0.4,-1.8 -1.1,-1.2 -3.7,1.4 -2.5,2.7 -3.6,3.1 -4.6,1.5 -0.4,-0.6 -1.8,-0.5 -4,0.4 -1.8,0.8 -3.6,1.2 -3.8,0.9 -0.5,-0.4 -2.9,-1 -4.9,-1.2 -0.5,-0.1 -0.7,-0.7 -0.5,-1.3 0.1,-0.9 -0.9,-1.2 -3,-1.1 -1.7,0.2 -3.5,-0.2 -3.8,-0.8 -0.5,-0.6 -1.2,-0.4 -2,0.7 -0.7,1 -2,1.9 -2.9,2 -2,0.3 -2,-0.1 -0.2,-1.8 1.1,-1.2 0.9,-1.6 -1.1,-2.5 -2.2,-1.1 -2.3,-1 -1.1,0.4 1.1,1.4 1,1.5 -1,0.9 -1.7,-0.6 -2.2,-0.3 -2.2,1.1 0,1.4 -0.6,1.1 -2.9,-1.4 -2.5,-2.9 -3,-3.1 -4.1,-1.8 -0.7,0.8 -1.7,1.5 -2.2,1.5 -0.5,0 0.4,-1.2 2.1,-2.6 2.5,-2.1 3.4,-2.3 5.3,-1.4 2.1,1 2.1,1 0.5,-0.3 -1.6,-1.3 -0.8,-2.2 10,-10.1 6.5,-4.7 12.7,-8.6 13.8,-8.6 1.1,0 4.5,1.9 7.5,4.2 3,2.3 9.1,6.8 13.5,10 16.3,11.9 30.9,23.8 29.3,23.8 -0.3,0 -3.8,-2.7 -7.7,-5.9 z m -30.6,-7.3 c 0.4,-0.3 0.2,-0.9 -0.3,-1.2 -0.5,-0.3 -1.5,0.1 -2.1,0.8 -1,1.1 -0.9,1.4 0.3,1.2 0.9,-0.1 1.8,-0.5 2.1,-0.8 z"
       id="path191"
       style="fill:url(#linearGradient1052)" />
    <path
       fill="url(#lg0)"
       d="m 1250.1,454.3 c -3.8,-5.1 -4.5,-5.7 -4.9,-4.5 -0.2,0.7 -0.8,1.2 -1.3,1.2 -0.4,0 -0.6,-0.7 -0.3,-1.5 0.7,-1.8 0,-1.9 -4.2,-0.3 -2.6,0.9 -3.6,0.9 -4.9,-0.2 -1.9,-1.6 -5.7,-2.1 -4.8,-0.7 0.4,0.6 -0.8,0.8 -3,0.4 -2.9,-0.4 -3.7,-0.2 -3.7,1 0,1.9 -6.1,1.3 -10.5,-1.1 -3.4,-1.8 -4.9,-2 -4,-0.6 0.3,0.6 -0.1,1 -0.9,1 -0.8,0 -1.7,-0.4 -2,-0.8 -0.3,-0.5 -1.9,-0.9 -3.6,-1 -2.4,0 -3,0.3 -2.6,1.4 0.4,1.1 0.2,1.2 -1.2,0.5 -1.1,-0.6 -4.1,-0.5 -8.5,0.3 -3.7,0.7 -6.9,1.1 -7.2,0.8 -0.3,-0.3 -1.3,-0.6 -2.3,-0.7 -0.9,-0.1 -2.7,-0.7 -3.9,-1.3 -1.9,-1 -2.3,-1 -2.3,0.1 0,1 -0.8,1.3 -2.5,0.9 -1.4,-0.2 -2.5,-0.8 -2.5,-1.2 0,-0.7 -2,-0.7 -4,0 -0.3,0.1 -2,0.2 -3.7,0.2 -1.8,0 -3.3,0.5 -3.3,0.9 0,0.5 -1.8,0.9 -4.1,0.9 -2.4,0 -3.8,-0.4 -3.4,-1 0.9,-1.5 -4.8,-1.2 -6.4,0.3 -1.1,1 -1.3,0.9 -0.8,-0.5 0.4,-1.2 0.1,-1.6 -1.4,-1.5 -1,0.1 -1.9,0.5 -1.9,0.9 0,0.4 -0.3,0.7 -0.7,0.6 -0.5,0 -1.6,0.2 -2.7,0.7 -1.2,0.5 -2.8,0.2 -4.7,-0.9 -2,-1.2 -3.4,-1.4 -4.5,-0.8 -0.9,0.5 -2.5,0.7 -3.5,0.5 -1.3,-0.4 -1.9,0 -1.9,1.1 0,1 -0.5,1.4 -1,1.1 -0.6,-0.4 -0.9,-1.4 -0.8,-2.3 0.3,-1.9 -3.2,-1.8 -4.4,0.1 -0.4,0.7 -0.8,0.8 -0.8,0.3 0,-0.4 -1.9,1 -4.2,3.3 -3.4,3.2 -4.4,3.8 -5.1,2.6 -0.4,-0.9 -0.2,-2.6 0.6,-4.2 0.8,-1.6 2.8,-7.1 4.5,-12.3 13.9,-43.9 11.7,-88.9 -6.3,-125.5 -6.9,-14 -18.9,-30.1 -32.2,-43.3 l -10.5,-10.3 1.6,-14.7 c 0.9,-8.1 2.3,-20.1 3.1,-26.7 0.8,-6.6 1.5,-12.6 1.5,-13.2 0,-1.4 27.6,-1.7 44.3,-0.4 l 8.8,0.6 8.8,18.5 c 10.5,22.1 16.8,35.1 29.1,60.5 5.1,10.5 12.3,25.4 16,33.1 3.8,7.8 7.3,14.5 7.8,14.8 1,0.6 2.6,-18.9 4.3,-51.9 1.4,-27 2.8,-68.9 2.3,-69.4 -0.2,-0.2 0,-0.9 0.5,-1.5 0.9,-1.1 35.7,-0.4 56.1,1.2 l 9.5,0.7 0.3,115 c 0.4,112.9 0,131.5 -2.8,131.5 -0.5,0 -1.8,-1.2 -2.9,-2.7 z m -31.1,-6.4 c 0,-0.5 -0.6,-0.9 -1.3,-0.9 -0.8,0 -1.4,0.6 -1.4,1.4 0,0.8 0.6,1.2 1.4,0.9 0.7,-0.3 1.3,-0.9 1.3,-1.4 z"
       id="path193"
       style="fill:url(#linearGradient1054)" />
    <path
       fill="url(#lg0)"
       d="m 643.6,448.8 c -4.5,-9.6 -6,-11.1 -12.1,-12.4 -3.4,-0.7 -5.3,-0.7 -5.2,-0.1 0.1,0.5 -0.4,1.2 -1.2,1.5 -1,0.3 -1.2,0 -0.8,-1.2 0.4,-0.9 0.2,-1.6 -0.3,-1.6 -0.6,0 -1,0.5 -1,1 0,0.6 -0.6,0.9 -1.2,0.8 -0.7,-0.2 -1.2,0.3 -1,1 0.3,1.7 -1.3,1.5 -3.2,-0.4 -0.9,-0.8 -2,-1.3 -2.5,-0.9 -0.5,0.3 -1.2,0.1 -1.6,-0.5 -0.8,-1.3 -5.4,-0.9 -4.8,0.6 0.2,0.6 -0.8,1.1 -2.7,1.2 -1.6,0 -3,-0.4 -3,-0.9 0,-0.6 0.5,-0.7 1,-0.4 0.6,0.3 1,0.2 1,-0.4 0,-1.5 -2.1,-2.5 -2.9,-1.4 -0.7,1.1 -4,1.1 -5.9,0 -0.8,-0.6 -1,-0.3 -0.6,0.7 0.4,1 0.1,1.6 -0.7,1.7 -10,0.6 -10.7,0.6 -10.3,-0.6 0.9,-2.3 -4.9,-2.5 -7,-0.3 -1.3,1.4 -2.1,1.7 -2.6,0.8 -0.6,-0.9 -0.9,-0.9 -1.5,0 -0.4,0.6 -1.4,0.9 -2.2,0.5 -0.9,-0.3 -2.4,0.2 -3.4,1.1 -1,0.9 -2.2,1.3 -2.8,1 -0.5,-0.3 -1.1,0 -1.4,0.6 -0.2,0.7 -1,-0.7 -1.7,-3.2 -0.7,-2.5 -1.4,-5.1 -1.6,-5.8 -0.3,-1 -4.7,-1.2 -19.6,-1 l -19.3,0.3 -0.8,5 c -2.1,12.8 -5.7,19.3 -5.7,10.3 0,-5.8 -1.8,-9.1 -5.2,-9.5 -1.6,-0.2 -2.8,0.1 -2.8,0.7 0,0.5 0.8,1 1.8,1.1 0.9,0 1.2,0.3 0.5,0.5 -0.7,0.3 -2.1,0.1 -3.1,-0.5 -1.4,-0.7 -2.8,-0.7 -5,0.1 -2.5,1 -3.5,0.9 -5.7,-0.6 -2.1,-1.4 -2.9,-1.5 -4.1,-0.6 -0.8,0.7 -2.1,0.9 -3.1,0.5 -1,-0.5 -2.8,-0.7 -4,-0.6 -1.1,0.1 -2.4,-0.3 -2.8,-0.8 -0.9,-1.5 -4.5,0.5 -4.5,2.4 0,0.8 -0.7,1.5 -1.5,1.5 -1.2,0 -1,0.5 0.5,2 1.6,1.6 1.8,2.4 1,4.1 -0.6,1.1 -1.5,1.7 -2.1,1.4 -1.2,-0.8 -1.2,0.2 0.1,2.6 0.6,1 0.9,1.9 0.6,1.9 -0.2,0 -6.6,-9.3 -14.1,-20.7 l -13.7,-20.6 0.6,-6.6 c 1.9,-20 0.9,-17.4 10.4,-27.5 22.2,-23.7 35.9,-45.6 44.2,-70.3 6.8,-20.4 7.5,-25.1 7.5,-49.3 -0.1,-20.1 -0.2,-22.2 -2.7,-31.5 -5.6,-21.1 -10.9,-33.6 -20.5,-48.3 l -5.4,-8.4 0.7,-8.9 c 0.4,-4.9 0.7,-8.9 0.8,-8.9 0.1,0 8.4,1.6 18.6,3.6 10.2,1.9 21.9,4.2 26,5 30.6,5.7 46.5,9.2 47.2,10.5 1,1.9 18.7,68 33.9,126.9 3.3,12.9 7.3,28.5 8.9,34.5 7.9,30 11.3,43.3 12,46.5 0.6,3.1 2.3,9.8 7.5,30 3.3,12.7 9.4,39.2 10.1,43.7 0.8,5.1 -0.8,3.9 -4,-2.9 z m -50.7,-13.9 c -2.2,-1.4 -3.3,-1 -1.9,0.6 0.7,0.8 1.7,1.2 2.2,0.9 0.6,-0.4 0.5,-1 -0.3,-1.5 z m -45,-87.9 c 1,0 1.2,-0.9 0.8,-3.7 -0.6,-3.7 -3.2,-21 -6.2,-40.8 -0.9,-5.5 -2.4,-17 -3.6,-25.5 -2.8,-21.7 -3.2,-21.7 -5.3,0.5 -5.4,56.3 -6.4,68.9 -5.8,69.9 0.2,0.5 4.6,0.6 9.6,0.3 5,-0.4 9.7,-0.7 10.5,-0.7 z"
       id="path195"
       style="fill:url(#linearGradient1056)" />
    <path
       fill="url(#lg0)"
       d="m 317.7,437.7 c 4.5,-6.9 17.9,-53.8 21.2,-74.2 5.3,-32.3 5.3,-74.6 0,-102.5 -9.5,-49.8 -27.2,-90.1 -57.7,-131.5 l -7.4,-10 0.6,-11.5 c 0.3,-6.3 0.9,-14.6 1.3,-18.4 l 0.6,-6.9 13.7,0.6 c 7.5,0.4 15.8,1.1 18.6,1.6 32,6.5 43.4,10.1 63.1,19.8 30.7,15.1 57.5,37.6 76.9,64.6 6,8.3 16.4,26.3 20.1,34.5 15.3,34.2 12.8,82.1 -6,117.6 -10.5,19.7 -35.2,44.9 -57.5,58.5 -2.8,1.8 -5.2,3.7 -5.2,4.2 0,0.4 1.7,3.4 3.9,6.6 2.1,3.2 7.1,11 11.1,17.3 4,6.3 9.3,14.6 11.8,18.3 3.5,5.2 4.3,7 3.3,7.7 -0.8,0.4 -1,1.3 -0.6,2.1 0.5,0.8 -0.8,-0.1 -2.8,-2 -2.1,-2 -4.2,-3.1 -5.1,-2.8 -1.4,0.6 -3.1,-0.7 -3.8,-2.8 -0.1,-0.5 -1.1,-0.9 -2,-0.8 -1,0.2 -1.5,-0.2 -1.2,-1 0.2,-0.7 -0.3,-1.3 -1.3,-1.3 -1,0 -3.1,-0.3 -4.7,-0.8 -2.4,-0.6 -2.8,-0.4 -2.2,1 0.4,1.2 0.2,1.5 -0.9,1.1 -0.8,-0.4 -1.7,-0.2 -2,0.4 -0.8,1.2 -8.4,0.7 -8.2,-0.5 0.3,-1.2 -5.4,-1.5 -7.5,-0.4 -2.1,1 -5.4,-0.5 -8,-3.6 -1,-1.2 -1.7,-1.5 -1.8,-0.8 0,0.6 0.5,1.2 1,1.2 0.6,0 1,0.5 1,1 0,0.6 -0.7,1 -1.5,1 -0.8,0 -1.5,0.5 -1.5,1.1 0,0.9 -1.6,0.7 -5.9,-0.9 -1.1,-0.4 -1.1,-0.1 -0.2,1.6 1.7,3.1 1.3,3.5 -1.1,1.2 -1.2,-1.1 -3,-2 -4.1,-2 -1.6,0 -1.7,-0.3 -0.7,-1.5 1.6,-1.9 0.1,-1.9 -2.4,0 -1.1,0.8 -1.5,1.9 -1,2.7 0.4,0.7 -0.2,0.5 -1.3,-0.4 -2.1,-1.9 -4.8,-2.5 -3.8,-0.9 0.9,1.5 -1.4,2.4 -3,1.1 -0.8,-0.7 -1.5,-0.7 -1.9,-0.1 -0.4,0.6 -2.1,0.5 -4.9,-0.3 -2.3,-0.7 -4.8,-1.1 -5.6,-0.8 -0.7,0.2 -2.4,-0.2 -3.7,-0.9 -3.9,-2 -7.2,-0.1 -12.3,7 -2.5,3.5 -5.4,6.5 -6.4,6.7 -1.1,0.1 -1.4,-0.2 -1,-0.9 z m 65.2,-121.3 c 5.5,-2.8 8.1,-4.8 11.2,-8.9 8.8,-11.7 12.5,-32.6 7.9,-44.8 -4,-10.7 -15.8,-20.8 -25.5,-21.9 -2.8,-0.3 -3,-0.1 -3.7,4.7 -0.4,2.8 -1.7,14.9 -2.8,27 -1.1,12.1 -2.5,25.8 -3,30.5 -0.6,4.7 -1,10.4 -1,12.8 v 4.2 h 4.9 c 3.5,0 6.7,-0.9 12,-3.6 z"
       id="path197"
       style="fill:url(#linearGradient1058)" />
    <path
       fill="url(#lg0)"
       d="m 1006.1,432.7 c -0.1,-1.1 -1,-5.1 -2.2,-9 -1.1,-4 -2.8,-9.7 -3.6,-12.7 -0.9,-3 -2.1,-7.3 -2.8,-9.5 -0.7,-2.2 -1,-4.5 -0.7,-5.1 0.4,-0.7 4.5,-4.4 9.2,-8.4 4.7,-4 12.8,-11.1 18,-15.8 5.2,-4.7 7.6,-6.6 5.2,-4.1 -4.8,5.1 -6.3,10.4 -3.4,12.5 1,0.7 1.3,1.6 0.8,2.1 -0.5,0.4 -1.1,0.2 -1.3,-0.4 -0.3,-0.7 -0.9,-1.3 -1.5,-1.3 -0.6,0 -0.5,0.7 0.3,1.6 1.6,2 2,4.2 0.8,5 -0.5,0.3 -0.9,2.3 -0.9,4.5 0,4 -0.7,4.8 -2.8,2.7 -1.7,-1.7 -1.5,-0.2 0.4,2.7 1.5,2.3 1.5,2.5 0,3.1 -1.1,0.4 -1.3,1 -0.7,1.8 0.6,0.7 0.6,1.7 0.1,2.6 -0.6,0.8 -1,2.5 -1,3.8 0,1.3 -0.4,2 -1,1.7 -0.5,-0.3 -1,-0.1 -1,0.4 0,0.6 -0.7,1.1 -1.6,1.1 -0.9,0 -1.4,0.7 -1.2,1.8 0.2,0.9 -0.9,2.9 -2.3,4.3 -3.5,3.4 -5.1,6.6 -4.5,8.7 0.3,0.9 -0.1,3.1 -0.9,4.7 -0.9,2.1 -1.4,2.5 -1.4,1.2 z"
       id="path199"
       style="fill:url(#linearGradient1060)" />
    <path
       fill="url(#lg0)"
       d="m 908.1,426.1 c -0.7,-0.5 -1,-1.4 -0.7,-2 0.4,-0.6 0.2,-1.1 -0.4,-1.1 -0.8,0 -0.9,-1 -0.5,-2.9 0.3,-1.7 0.2,-3.2 -0.5,-3.6 -0.5,-0.3 -0.7,-1.1 -0.4,-1.7 0.4,-0.6 0.2,-0.8 -0.4,-0.4 -1.7,1.1 -4.3,-2.3 -3.7,-5.1 0.5,-3.2 -1,-6.3 -3.1,-6.3 -1.2,0 -1.1,0.5 0.6,1.8 1.8,1.4 1.9,1.9 0.7,1.9 -0.9,0 -1.4,-0.4 -1.2,-0.8 0.3,-0.4 -0.3,-1 -1.3,-1.4 -1.6,-0.6 -1.6,-0.7 0.2,-2.1 1.4,-1 2.3,-1.1 3.3,-0.3 0.7,0.7 1.3,0.7 1.3,0.2 0,-1.6 -4.8,-3.4 -5.3,-2 -0.2,0.7 -0.8,0.8 -1.3,0.3 -0.5,-0.5 -0.4,-1 0.2,-1.3 0.6,-0.2 2,-1 3,-1.8 1.8,-1.3 1.7,-1.4 -0.7,-1 -2.6,0.5 -2.6,0.4 -2.8,-6.1 -0.1,-3.7 -0.4,-7 -0.7,-7.5 -1.3,-2.1 -1.2,-4.8 0.1,-4.3 4.7,1.8 0.8,-6.9 -6.7,-15.2 -8.5,-9.3 -4,-5.9 8.7,6.4 6.6,6.4 16,15.3 20.8,19.7 l 8.8,8 -3.6,7.2 c -1.9,3.9 -3.5,7.4 -3.5,7.8 0,1.8 -4.3,10.4 -5,10 -0.5,-0.3 -1.7,0.6 -2.7,2 -1.2,1.7 -2.2,2.2 -3.2,1.6 z"
       id="path201"
       style="fill:url(#linearGradient1062)" />
    <path
       d="m 903.1,417.6 c -0.8,-1 -0.9,-1.6 -0.1,-2.1 0.5,-0.3 1,-0.5 1.1,-0.3 0.4,1.8 0.7,3.8 0.4,3.8 -0.1,0 -0.8,-0.6 -1.4,-1.4 z"
       id="path203" />
    <path
       fill="url(#lg0)"
       d="m 119.2,414.5 c -1.8,-3.9 -23.1,-128.9 -27.8,-162.8 -0.6,-4.8 -2.5,-6.7 -6.5,-6.5 -0.8,0.1 -5.8,0 -11.1,0 l -9.7,-0.2 -0.6,-4.7 c -0.3,-2.7 -1.2,-8.8 -2,-13.8 C 60.7,221.6 58.7,209.2 57.1,199 55.5,188.8 53,173.1 51.6,164 50.2,154.9 47.9,140.3 46.5,131.5 45,122.7 43.3,111.2 42.5,106 41.7,100.8 40.6,93.8 40.1,90.5 39.6,87.2 37.5,74.4 35.6,62 33.7,49.6 31.6,37.1 31,34.1 c -1.8,-9.8 -2.1,-9.4 6.8,-8.7 74.6,6.5 144.9,40 197.2,94.2 39.9,41.2 65,91.9 74.2,149.8 2,12.2 2.3,17.9 2.2,42.6 0,22.3 -0.3,30.9 -1.7,39.5 -3.7,23 -9.4,45.1 -14.7,56.8 -4.4,9.7 -8.3,11.9 -6.2,3.5 1.1,-4.1 1,-4.4 -1.6,-6.6 -2.3,-2 -2.8,-2.1 -3,-0.8 -0.4,1.7 -3.2,2.2 -3.2,0.6 0,-0.5 -1.1,-1 -2.5,-1 -1.4,0 -2.5,-0.5 -2.5,-1.1 0,-0.7 -1.1,-0.9 -2.7,-0.6 -1.5,0.3 -3.4,0 -4.3,-0.6 -1.2,-0.7 -2.7,-0.7 -4.9,0.1 -2.3,0.8 -3,0.8 -2.5,0 0.5,-0.7 -0.4,-0.9 -2.6,-0.6 -1.9,0.3 -4.9,0.2 -6.8,-0.3 -3.9,-0.8 -7.2,-0.1 -5.1,1.2 1.5,0.9 -6.3,2.1 -10.5,1.6 -1.7,-0.2 -3.2,-1.1 -3.5,-2 -0.4,-1.2 -1,-1.4 -2.1,-0.7 -1.3,0.9 -1.3,1.1 0,1.9 0.8,0.6 1.1,1.3 0.7,1.8 -0.5,0.4 -1.1,0.3 -1.5,-0.3 -1,-1.6 -5.3,-3.7 -6,-3 -0.3,0.3 0.1,0.6 0.9,0.6 1.1,0 1.1,0.2 -0.1,1 -1.3,0.8 -1.2,1 0.3,1 1,0 1.5,0.5 1.2,1 -1,1.5 -3.5,1.2 -3.5,-0.5 0,-0.8 -0.6,-1.5 -1.4,-1.5 -0.8,0 -1.6,-0.5 -1.8,-1.2 -0.2,-0.6 -1,-0.8 -1.7,-0.4 -0.7,0.5 -1,1.5 -0.7,2.2 0.5,1.3 0.2,1.2 -1.6,-0.1 -2.5,-1.7 -7.3,-2.1 -6.3,-0.5 0.8,1.3 -0.8,1.3 -2.1,0 -0.5,-0.5 -4.1,-0.9 -7.9,-0.9 -3.9,-0.1 -8.5,-0.1 -10.3,-0.1 -1.9,0 -3.1,0.3 -2.8,0.9 0.9,1.4 -3.6,0.1 -5.7,-1.7 -0.9,-0.8 -2,-1.2 -2.4,-0.9 -0.3,0.4 0,0.7 0.8,0.7 1.1,0 1.1,0.2 -0.1,1 -2,1.3 -6,1.3 -6,0 0,-0.6 -1.3,-0.4 -3,0.5 -1.7,0.9 -3.6,1.2 -4.3,0.8 -1.5,-0.9 -3.7,-1.3 -3.7,-0.6 0,0.3 1,1.4 2.2,2.4 2.5,2.2 1.7,2.5 -1.5,0.5 -2.6,-1.7 -10.7,-2.8 -12.2,-1.7 -1.5,1.2 -6.5,1.9 -6.5,1 0,-1.3 -3.4,-1.1 -4.8,0.3 -1.3,1.3 -4.2,-0.6 -4.2,-2.9 0,-1.2 -0.3,-1.2 -1.6,0.1 -0.8,0.9 -2,1.6 -2.5,1.6 -1.1,0 -1.2,-2.7 -0.1,-3.3 0.4,-0.2 0.1,-0.2 -0.5,-0.1 -0.7,0.2 -1.3,0 -1.3,-0.4 0,-0.4 -1.1,-0.7 -2.4,-0.7 -2.1,0 -2.6,0.6 -3.2,4.5 -0.4,2.5 -0.7,5.9 -0.5,7.6 0.1,1.7 -0.4,3.6 -1.2,4.2 -1.1,0.9 -1.6,0.7 -2.5,-1.3 z M 282,401 c 1.2,-0.8 1.1,-1 -0.7,-1 -1.3,0 -2.3,0.5 -2.3,1 0,1.3 1.1,1.3 3,0 z m -89.6,-21.6 c 9.7,-3.3 18.3,-8.4 24.7,-14.6 7.4,-7.2 11.5,-13.4 15.2,-23.1 2.9,-7.7 3.1,-9.1 3.1,-21.7 0.1,-12.2 -0.2,-14.2 -2.5,-20.7 -7.1,-19.3 -22.3,-32.2 -47.2,-40.2 -9.6,-3.1 -28.4,-6.7 -29.5,-5.7 -0.5,0.6 1,10.1 10.4,67.6 2.4,15.1 5.4,33.1 6.5,40 1.1,6.9 2.4,14.6 3,17.1 l 1,4.7 4.2,-0.6 c 2.3,-0.3 7.3,-1.6 11.1,-2.8 z"
       id="path205"
       style="fill:url(#linearGradient1064)" />
    <path
       d="m 194.6,337.9 c -0.2,-1.3 -0.9,-5.8 -1.5,-9.9 -2.1,-14.7 -5.1,-32.2 -5.7,-33.1 -1.4,-2.3 3.3,-0.5 7.3,2.7 12,9.8 13.5,30.4 2.9,40.3 l -2.5,2.4 z"
       id="path207" />
    <path
       fill="url(#lg0)"
       d="m 906,352.9 c -1.4,-0.4 -2,-0.8 -1.5,-0.8 0.6,-0.1 0.3,-0.6 -0.5,-1.1 -1.3,-0.8 -1,-1.4 1.4,-3.7 1.9,-1.9 3,-2.4 3.3,-1.5 0.7,1.8 2.3,1.5 2.3,-0.5 0,-1.4 0.2,-1.5 0.9,-0.4 0.7,1 1,1 1.6,0.1 0.4,-0.7 0.1,-1.6 -0.6,-2.1 -0.8,-0.5 -0.9,-0.9 -0.4,-0.9 0.6,0 2.1,-0.9 3.3,-2 2.2,-1.8 2.2,-2.1 0.8,-3.6 -0.9,-0.8 -1.6,-2 -1.6,-2.5 0,-1.5 6.3,-5 8.2,-4.5 1,0.2 2.2,-0.2 2.9,-1 0.6,-0.8 1.6,-1.4 2.2,-1.4 0.6,0 0.2,0.7 -0.9,1.5 -1.9,1.5 -1.9,1.5 0.1,0.8 2.1,-0.7 3.5,-2.2 3.5,-3.7 0,-0.4 -0.7,-0.6 -1.5,-0.2 -0.8,0.3 -1.5,0.1 -1.5,-0.4 0,-0.6 1.1,-1 2.4,-1 1.3,0 2.7,-0.6 2.9,-1.2 0.3,-0.7 0.6,-0.3 0.6,0.9 0.1,1.2 -0.3,2.5 -0.9,2.8 -0.5,0.3 -1,1.1 -1,1.7 0,0.6 0.9,-0.1 2.1,-1.6 1.1,-1.5 1.8,-3.3 1.5,-4.1 -0.6,-1.7 1.1,-2 3.3,-0.6 1.6,1.1 5.9,-0.7 8,-3.3 1.5,-1.8 3.1,-2.1 3.1,-0.6 0,0.6 -0.5,0.9 -1.2,0.8 -0.6,-0.2 -1.4,0.5 -1.6,1.5 -0.2,1 0.2,1.6 0.9,1.5 0.9,-0.2 1.3,0.7 1.2,2.7 v 2.9 l 1.8,-2.3 c 2.4,-3 2.4,-3 -1,5.9 -6.9,18.3 -8.2,20.9 -9.9,20.3 -1.5,-0.6 -1.5,-0.5 -0.3,1.1 1.4,1.7 0.7,1.7 -13.4,1.1 -8.2,-0.3 -15.1,-0.8 -15.4,-1 -0.2,-0.3 -0.9,-0.1 -1.5,0.3 -0.6,0.5 -2.2,0.5 -3.6,0.1 z"
       id="path209"
       style="fill:url(#linearGradient1066)" />
    <path
       fill="url(#lg0)"
       d="m 985.5,352.7 c -2.1,-5.6 -11.3,-34.3 -11.1,-34.5 0.7,-0.7 3.6,1.1 3.6,2.2 0,2 4.5,3.7 5.9,2.3 0.7,-0.7 1.2,-0.7 1.1,-0.2 -0.6,2.7 0.2,3.8 1.1,1.7 0.5,-1.3 1.4,-2 1.9,-1.7 0.7,0.4 0.7,1.2 0.2,1.8 -0.5,0.8 0.1,2.1 1.6,3.7 2.1,2.1 2.4,2.2 1.8,0.5 -0.4,-1.1 -0.4,-1.6 0,-1.3 0.4,0.4 1.6,0.2 2.7,-0.4 1.7,-0.9 1.9,-0.8 1.4,0.6 -0.4,1 -0.3,1.4 0.3,1.1 0.5,-0.3 1.4,0.3 1.9,1.4 1.4,2.5 1.4,3.4 0.1,2.6 -0.5,-0.3 -1,-0.1 -1,0.4 0,2 2,1.1 3,-1.1 0.6,-1.7 0.9,-1.8 0.9,-0.6 0.1,0.9 1.1,2 2.2,2.3 1.2,0.4 1.7,1 1.2,1.4 -1.2,0.8 -1.4,5.1 -0.2,5.1 0.5,0 0.9,-0.4 0.9,-1 0,-0.5 0.7,-1 1.5,-1 0.8,0 1.6,-0.6 1.6,-1.2 0.1,-0.7 0.4,0.1 0.8,1.7 0.3,1.7 1.2,3.1 1.9,3.1 2.5,0.3 2.6,0.4 1.4,1.6 -0.8,0.8 -1.5,0.9 -2,0.3 -0.4,-0.6 -1.6,-1.7 -2.6,-2.5 -1.9,-1.5 -1.9,-1.4 -0.1,1.3 1.2,1.9 2.4,2.7 3.7,2.4 1.1,-0.3 2.2,0.2 2.8,1.3 0.5,1 3,2.4 5.4,3.1 5.2,1.5 6.7,3.5 2.7,3.5 -1.4,0 -10.2,0.3 -19.4,0.7 -12.8,0.5 -16.9,0.3 -17.2,-0.6 z"
       id="path211"
       style="fill:url(#linearGradient1068)" />
    <path
       d="m 911,339.1 c 0,-1.2 3.9,-2.5 4.8,-1.6 0.7,0.7 -1.7,2.5 -3.5,2.5 -0.7,0 -1.3,-0.4 -1.3,-0.9 z"
       id="path213" />
    <path
       d="m 981,319.9 c 0,-1.1 2.7,-1.2 3.4,-0.1 0.2,0.4 -0.4,0.9 -1.5,0.9 -1,0.1 -1.9,-0.2 -1.9,-0.8 z"
       id="path215" />
  </g>
</svg>
