<?xml version="1.0" encoding="UTF-8" standalone="no"?>
<svg
   version="1.0"
   width="2713"
   height="720"
   viewBox="0 0 2713 720"
   preserveAspectRatio="xMidYMid meet"
   id="svg110"
   sodipodi:docname="devilutionx.svg"
   inkscape:version="1.1.2 (0a00cf5339, 2022-02-04, custom)"
   xmlns:inkscape="http://www.inkscape.org/namespaces/inkscape"
   xmlns:sodipodi="http://sodipodi.sourceforge.net/DTD/sodipodi-0.dtd"
   xmlns:xlink="http://www.w3.org/1999/xlink"
   xmlns="http://www.w3.org/2000/svg"
   xmlns:svg="http://www.w3.org/2000/svg">
  <sodipodi:namedview
     id="namedview112"
     pagecolor="#ffffff"
     bordercolor="#666666"
     borderopacity="1.0"
     inkscape:pageshadow="2"
     inkscape:pageopacity="0.0"
     inkscape:pagecheckerboard="0"
     showgrid="false"
     inkscape:zoom="0.39402875"
     inkscape:cx="1356.5"
     inkscape:cy="360.37979"
     inkscape:window-width="1920"
     inkscape:window-height="1017"
     inkscape:window-x="-8"
     inkscape:window-y="-8"
     inkscape:window-maximized="1"
     inkscape:current-layer="svg110" />
  <defs
     id="defs44">
    <linearGradient
       id="lg0"
       gradientUnits="userSpaceOnUse"
       x1="1063"
       y1="70"
       x2="1063"
       y2="705">
      <stop
         offset="0%"
         style="stop-color:rgb(255,243,193);"
         id="stop2" />
      <stop
         offset="39%"
         style="stop-color:rgb(243,170,70);"
         id="stop4" />
      <stop
         offset="42%"
         style="stop-color:rgb(240,160,28);"
         id="stop6" />
      <stop
         offset="49%"
         style="stop-color:rgb(245,178,91);"
         id="stop8" />
      <stop
         offset="79%"
         style="stop-color:rgb(255,243,192);"
         id="stop10" />
      <stop
         offset="100%"
         style="stop-color:rgb(255,244,193);"
         id="stop12" />
    </linearGradient>
    <linearGradient
       id="lg1"
       gradientUnits="userSpaceOnUse"
       x1="225.99998"
       y1="9.999999"
       x2="225.99998"
       y2="375">
      <stop
         offset="0%"
         style="stop-color:rgb(255,244,194);"
         id="stop15" />
      <stop
         offset="72%"
         style="stop-color:rgb(243,170,72);"
         id="stop17" />
      <stop
         offset="81%"
         style="stop-color:rgb(240,162,40);"
         id="stop19" />
      <stop
         offset="100%"
         style="stop-color:rgb(249,194,121);"
         id="stop21" />
    </linearGradient>
    <linearGradient
       id="lg2"
       gradientUnits="userSpaceOnUse"
       x1="660"
       y1="73"
       x2="660"
       y2="323">
      <stop
         offset="0%"
         style="stop-color:rgb(255,243,193);"
         id="stop24" />
      <stop
         offset="100%"
         style="stop-color:rgb(240,160,31);"
         id="stop26" />
    </linearGradient>
    <linearGradient
       id="lg3"
       gradientUnits="userSpaceOnUse"
       x1="2496"
       y1="6.9999995"
       x2="2496"
       y2="376">
      <stop
         offset="0%"
         style="stop-color:rgb(255,244,194);"
         id="stop29" />
      <stop
         offset="100%"
         style="stop-color:rgb(244,176,87);"
         id="stop31" />
    </linearGradient>
    <linearGradient
       id="lg4"
       gradientUnits="userSpaceOnUse"
       x1="1531.0001"
       y1="72"
       x2="1531.0001"
       y2="322">
      <stop
         offset="0%"
         style="stop-color:rgb(255,243,194);"
         id="stop34" />
      <stop
         offset="100%"
         style="stop-color:rgb(245,178,90);"
         id="stop36" />
    </linearGradient>
    <linearGradient
       id="lg5"
       gradientUnits="userSpaceOnUse"
       x1="2004"
       y1="73"
       x2="2004"
       y2="323">
      <stop
         offset="0%"
         style="stop-color:rgb(255,243,193);"
         id="stop39" />
      <stop
         offset="100%"
         style="stop-color:rgb(247,188,111);"
         id="stop41" />
    </linearGradient>
    <linearGradient
       inkscape:collect="always"
       xlink:href="#lg0"
       id="linearGradient929"
       gradientUnits="userSpaceOnUse"
       x1="1063"
       y1="70"
       x2="1063"
       y2="705" />
    <linearGradient
       inkscape:collect="always"
       xlink:href="#lg3"
       id="linearGradient931"
       gradientUnits="userSpaceOnUse"
       x1="2496"
       y1="6.9999995"
       x2="2496"
       y2="376" />
    <linearGradient
       inkscape:collect="always"
       xlink:href="#lg1"
       id="linearGradient933"
       gradientUnits="userSpaceOnUse"
       x1="225.99998"
       y1="9.999999"
       x2="225.99998"
       y2="375" />
    <linearGradient
       inkscape:collect="always"
       xlink:href="#lg2"
       id="linearGradient935"
       gradientUnits="userSpaceOnUse"
       x1="660"
       y1="73"
       x2="660"
       y2="323" />
    <linearGradient
       inkscape:collect="always"
       xlink:href="#lg5"
       id="linearGradient937"
       gradientUnits="userSpaceOnUse"
       x1="2004"
       y1="73"
       x2="2004"
       y2="323" />
    <linearGradient
       inkscape:collect="always"
       xlink:href="#lg4"
       id="linearGradient939"
       gradientUnits="userSpaceOnUse"
       x1="1531.0001"
       y1="72"
       x2="1531.0001"
       y2="322" />
    <linearGradient
       inkscape:collect="always"
       xlink:href="#lg0"
       id="linearGradient941"
       gradientUnits="userSpaceOnUse"
       x1="1063"
       y1="70"
       x2="1063"
       y2="705" />
    <linearGradient
       inkscape:collect="always"
       xlink:href="#lg0"
       id="linearGradient943"
       gradientUnits="userSpaceOnUse"
       x1="1063"
       y1="70"
       x2="1063"
       y2="705" />
    <linearGradient
       inkscape:collect="always"
       xlink:href="#lg3"
       id="linearGradient945"
       gradientUnits="userSpaceOnUse"
       x1="2496"
       y1="6.9999995"
       x2="2496"
       y2="376" />
    <linearGradient
       inkscape:collect="always"
       xlink:href="#lg5"
       id="linearGradient947"
       gradientUnits="userSpaceOnUse"
       x1="2004"
       y1="73"
       x2="2004"
       y2="323" />
    <linearGradient
       inkscape:collect="always"
       xlink:href="#lg5"
       id="linearGradient949"
       gradientUnits="userSpaceOnUse"
       x1="2004"
       y1="73"
       x2="2004"
       y2="323" />
    <linearGradient
       inkscape:collect="always"
       xlink:href="#lg4"
       id="linearGradient951"
       gradientUnits="userSpaceOnUse"
       x1="1531.0001"
       y1="72"
       x2="1531.0001"
       y2="322" />
    <linearGradient
       inkscape:collect="always"
       xlink:href="#lg0"
       id="linearGradient953"
       gradientUnits="userSpaceOnUse"
       x1="1063"
       y1="70"
       x2="1063"
       y2="705" />
    <linearGradient
       inkscape:collect="always"
       xlink:href="#lg2"
       id="linearGradient955"
       gradientUnits="userSpaceOnUse"
       x1="660"
       y1="73"
       x2="660"
       y2="323" />
    <linearGradient
       inkscape:collect="always"
       xlink:href="#lg1"
       id="linearGradient957"
       gradientUnits="userSpaceOnUse"
       x1="225.99998"
       y1="9.999999"
       x2="225.99998"
       y2="375" />
  </defs>
  <g
     fill="#b83025"
     id="g70">
    <path
       d="m 1203,714.7 c -36.9,-20.5 -66,-40.3 -93.5,-63.7 -16.3,-13.9 -55.3,-53.2 -70.5,-71.1 -35.3,-41.3 -59.7,-77.2 -77.5,-114.1 -18.6,-38.6 -30.4,-74.9 -37,-113.7 -2.5,-14.2 -2.6,-15.5 -1.1,-18.6 2.2,-4.5 2,-6.8 -0.8,-11 -3.4,-4.9 -4,-10.9 -4,-38.5 0,-26.2 1.6,-42.5 6.3,-65.5 4.7,-22.7 8.6,-35.2 13.1,-41.7 3.3,-4.7 4,-6.5 4,-10.5 0,-3.7 1.2,-7.2 5.3,-15.8 3,-6 6.1,-11.6 7,-12.4 0.9,-0.7 1.7,-2.3 1.7,-3.4 0,-2.4 4.2,-9.9 8.2,-14.5 1.5,-1.8 2.8,-3.8 2.8,-4.4 0,-0.6 1.9,-4 4.1,-7.5 4,-6.1 4.1,-6.4 2.3,-7.8 C 971.3,99 951.6,89 950.6,89 c -0.3,0 -4.1,-1.7 -8.4,-3.8 -4.2,-2.1 -9.3,-4.2 -11.1,-4.5 -1.9,-0.4 -4.2,-1.3 -5,-2.1 -0.9,-0.8 -3.2,-1.6 -5.1,-1.9 -5.5,-0.8 -13.3,-3.8 -15.7,-6 -2.8,-2.5 -2.9,-5.8 -0.3,-8.2 2.1,-1.9 9.2,-1.9 55,0.4 8.5,0.5 26.5,1.1 40,1.5 13.5,0.4 30,1.4 36.7,2.2 8.9,1.1 13.6,1.3 17,0.6 3.7,-0.7 59.9,0 79.8,1 1.1,0.1 6.6,-0.2 12.2,-0.7 7.2,-0.5 10.7,-0.4 11.6,0.3 0.9,0.8 2.4,0.9 4.5,0.3 1.7,-0.5 14.3,-1.2 27.9,-1.6 l 24.8,-0.7 2.9,3 c 2.7,2.9 2.9,3.8 3.4,13 l 0.4,9.8 -3.2,2.7 c -1.7,1.5 -3.6,2.7 -4.2,2.7 -0.5,0 -2.5,0.7 -4.4,1.6 -4.2,2 -7.5,7.4 -10.9,17.6 l -2.5,7.3 -0.4,53 c -0.2,29.2 -0.4,53.9 -0.4,55 0,1.1 0.2,11.7 0.3,23.5 0.2,14.8 0.6,22.4 1.5,24.5 4.9,11.4 6.2,13.8 8.7,16.1 1.5,1.4 4.6,3.5 6.8,4.6 6.3,3.2 8.5,5.7 8.5,9.7 0,5.8 -2.6,15.1 -4.9,17.5 l -2.1,2.2 -82,-0.1 c -94.4,-0.2 -85.1,0.9 -87.6,-10.6 -3,-14.2 -1.8,-15.8 17.1,-21.9 24.5,-7.9 32.8,-12.8 37.2,-21.7 2.7,-5.8 2.8,-5.9 3.1,-29.3 0.4,-21.7 0.2,-23.7 -1.5,-25.7 -2.6,-3.1 -26.9,-13.2 -51.4,-21.4 -11.4,-3.8 -21.4,-6.9 -22.1,-6.9 -0.8,0 -2.2,2.3 -3.3,5.1 -1.1,2.8 -3.2,6.2 -4.7,7.4 -2.3,1.9 -2.7,2.9 -2.2,5.4 0.4,2 0.1,3.9 -0.8,5.3 -0.8,1.3 -1.8,4.9 -2.1,8.2 -0.3,3.2 -1.3,6.6 -2.1,7.5 -0.9,1 -1.6,3.5 -1.6,5.7 0,2.1 -0.9,8.6 -2,14.4 -11.8,60.7 -5.7,125.2 18.5,193.7 2.5,7 4.5,14 4.5,15.5 0,3.6 2.2,8.9 4.4,10.7 2.5,2.1 7.6,13.8 7.6,17.4 0,1.7 1.1,4.5 2.6,6.4 1.4,1.9 2.4,4.3 2.2,5.6 -0.2,1.7 0.8,3.3 3.3,5.5 2,1.8 6.9,9 11.3,16.9 23,40.8 48.2,76.8 78.2,111.7 16.9,19.6 32.2,34.9 50.9,50.6 26.3,22.3 32,27.5 32.3,29.9 0.5,3.5 -1.5,5.1 -6.7,5.1 -3.7,-0.1 -6.5,-1.1 -14.1,-5.3 z m -18,-22.8 c -2.5,-2.2 -7.2,-6.3 -10.5,-9.1 -3.3,-2.8 -13.3,-12.7 -22.2,-22 -37.8,-39.4 -72.6,-87.4 -101.7,-140 -2.1,-3.7 -5.5,-8.1 -7.7,-9.9 -3.1,-2.4 -3.9,-3.7 -3.9,-6.3 0,-1.9 -0.9,-4.5 -2,-5.9 -1.1,-1.4 -2,-3.8 -2,-5.5 0,-3.8 -3.4,-11.5 -7.7,-17.5 -2.5,-3.4 -3.8,-6.4 -4.3,-10.5 -0.5,-3.1 -3.3,-12.9 -6.3,-21.7 -22.5,-65.9 -28,-125.4 -17.8,-192 1.1,-7.1 2.3,-15.6 2.6,-18.7 0.4,-3.1 1.3,-6.2 2.1,-6.9 0.9,-0.7 1.4,-3 1.4,-6.3 0,-3 0.6,-6 1.5,-7.2 0.8,-1 1.5,-4 1.5,-6.6 0,-3.9 0.4,-5 2.8,-6.6 1.5,-1.1 3.5,-4.2 4.6,-6.9 3.3,-8.5 4.1,-9.3 9.4,-9.3 8.3,0 62.7,19.2 78.3,27.6 3.5,1.9 5.6,3.7 6,5.4 1.1,3.9 1,50.1 -0.1,55.9 -1.4,7.3 -3.8,11.9 -8.6,16.6 -5.9,5.8 -12.9,9.2 -31.4,15.5 -18.2,6.1 -18.2,6.2 -15.8,13.5 l 1.3,3.8 77.3,0.1 c 86.4,0.1 78.5,0.8 79.8,-7.1 0.6,-3.8 0.5,-3.9 -3.6,-5.8 -2.3,-1.1 -6.2,-3.9 -8.7,-6.2 -4.1,-4 -9.3,-13 -9.3,-16.2 0,-0.8 -0.8,-2.3 -1.7,-3.4 -1.3,-1.4 -1.7,-3.3 -1.6,-7.1 0.1,-2.8 0.5,-11.7 0.8,-19.9 0.6,-12.1 0.4,-15.5 -0.9,-19.4 -1.9,-5.6 -2,-9.5 -0.3,-11.1 1.1,-1.2 1.3,-19 0.7,-76.2 -0.2,-23 0,-29.3 1.4,-31.9 0.8,-1.4 2.1,-5.1 3,-8.1 1.9,-6.7 6.5,-14.2 10.2,-16.7 1.5,-1 4.6,-2.5 6.8,-3.3 3.9,-1.5 4.1,-1.8 4,-5.5 0,-2.2 -0.4,-5.3 -0.8,-6.9 l -0.7,-2.9 -20.2,0.8 c -11.1,0.3 -22.1,1.1 -24.4,1.7 -2.3,0.5 -6.4,0.7 -9,0.3 -2.6,-0.4 -7.7,-0.6 -11.3,-0.4 -8.7,0.3 -14.2,0.2 -51,-0.8 -26,-0.7 -33,-0.6 -40.2,0.6 -8.9,1.5 -10,1.4 -24.3,-2 -2.2,-0.5 -16.8,-1.2 -32.5,-1.4 -31.3,-0.5 -41.3,-0.8 -56.9,-2 -11.5,-0.9 -13.3,0.4 -3.6,2.6 3,0.7 5.5,1.5 5.5,1.9 0,0.4 2.4,1.7 5.3,3 17.2,7.6 21.7,9.7 26.2,12.3 7.9,4.6 9.5,6.4 9.5,11.2 0,3.1 -1,5.7 -3.8,10.1 -2.1,3.2 -4.8,8 -6.1,10.6 -1.2,2.7 -2.7,4.8 -3.1,4.8 -1.2,0 -4.9,6.3 -6.9,11.8 -1,2.7 -2.5,5.7 -3.5,6.8 -0.9,1 -3.6,6.2 -6.1,11.4 -3.5,7.4 -4.5,10.6 -4.5,14.7 0,2.8 -0.3,5.3 -0.7,5.5 -1.6,0.6 -6.3,8.4 -7.8,12.8 -2.5,7 -8.2,29.6 -9.9,39 -3.3,18.5 -4.8,33.9 -4.9,49.8 -0.2,27.6 1.1,37.3 5.7,41.1 2,1.7 2,6.5 0.2,15.1 -1.3,6.1 -1.3,7.4 1,19.5 4.6,23.8 14.7,58.8 21.4,74 0.5,1.1 2.8,6.5 5,12 24.2,58.2 69.5,121 130.1,180 28.9,28.1 56.5,49.5 93.4,72.3 6.6,4.1 6.9,3.9 1.5,-0.9 z"
       id="path46" />
    <path
       d="m 1033,166.3 c 0,-10.5 34.7,-43 58.7,-55.2 4.5,-2.2 7.6,-3.1 11.1,-3.1 h 4.9 l 0.6,12.2 c 0.4,6.6 0.7,19.9 0.7,29.4 v 17.2 l -8.7,0.6 c -8.4,0.7 -55.7,2.5 -63.5,2.6 -3.7,0 -3.8,-0.1 -3.8,-3.7 z m 63.7,-7 4.6,-0.6 -0.6,-19.9 c -0.3,-11 -0.7,-20.2 -1,-20.4 -0.8,-0.8 -8.5,3.4 -17.7,9.7 -10.8,7.4 -23.7,18.6 -30.9,26.8 l -5.6,6.4 23.3,-0.7 c 12.9,-0.4 25.4,-0.9 27.9,-1.3 z"
       id="path48" />
    <path
       d="m 2487,385.4 c -23,-1.5 -56.1,-8.6 -63,-13.4 -1.4,-1 -4.4,-2.1 -6.5,-2.5 -6.7,-1.2 -18.7,-7.3 -22.8,-11.5 -2.1,-2.2 -4.6,-4 -5.7,-4 -3.7,0 -12.6,-4.7 -18,-9.6 -3,-2.8 -7.5,-6.2 -10,-7.6 -6.3,-3.7 -31.2,-29.6 -39.2,-40.9 -13.3,-18.6 -24.8,-44.1 -24.8,-54.9 0,-4.7 -0.5,-6.9 -2.5,-10 -4.4,-6.9 -6.9,-31.5 -4.4,-41.6 0.9,-3.5 0.9,-5.1 0,-6.8 -1,-1.7 -1,-4.2 -0.2,-10.7 3.9,-29.4 13.8,-55.8 30.6,-81.3 l 1.9,-2.9 -3.5,1.8 c -1.8,1 -9.6,5.3 -17.1,9.7 -15.4,8.8 -18.9,10 -21.8,7.3 -5.3,-4.8 0.6,-14.9 20.4,-35.3 34.8,-35.8 80.9,-58.5 139.6,-68.7 13.7,-2.4 16.4,-2.5 51.3,-2.5 35.3,0 37.5,0.1 49.1,2.5 22.5,4.5 38.8,10.1 58.7,20 12.9,6.4 27.6,15.4 30.8,18.9 1.4,1.4 3,2.6 3.6,2.6 1.8,0 15.9,12.3 26.4,22.9 15.3,15.7 26.6,31.2 35.6,49.1 5.3,10.5 10.5,24.4 10.5,28 0,1.7 0.7,4.2 1.6,5.5 2.7,4.1 5.1,23.6 5.3,42.1 0.3,23 -2.3,39 -9.6,60.4 -3.6,10.6 -13.9,30.8 -17.9,35.2 -1.9,2.1 -3.4,4.5 -3.4,5.4 0,2.7 -12.1,17.6 -24.5,29.9 -17.9,17.9 -33.4,29 -56.5,40.5 -13.2,6.6 -33.6,14 -38.5,14 -1.9,0 -3.6,0.4 -4,0.9 -0.7,1.2 -12.4,3.9 -24.9,5.6 -10.5,1.4 -37,2.5 -46.6,1.9 z m 28,-8.4 c 14.7,-1.2 34.7,-4.6 37.5,-6.4 1.1,-0.7 4.3,-1.6 7.1,-1.9 6.9,-0.8 27.5,-8.6 40.4,-15.4 27.4,-14.3 51.7,-34.5 68.6,-56.9 3,-3.9 5.4,-7.8 5.4,-8.7 0,-0.9 1.5,-3.4 3.4,-5.4 10.1,-11.2 21.5,-40.5 25.6,-65.8 2.2,-13.3 2.7,-30 0.9,-31.1 -0.8,-0.4 -1,-2.9 -0.6,-7.3 0.6,-8.1 -1.6,-20.6 -4.3,-24.3 -1.2,-1.7 -2,-4.3 -2,-6.9 0,-8.2 -9.5,-28.6 -22.3,-47.7 -10.5,-15.8 -35,-41 -45,-46.5 -1.7,-0.9 -3.6,-2.3 -4.2,-3 -2.4,-3.2 -21.3,-14.7 -34.3,-20.8 -36.5,-17.5 -74.8,-24.8 -115.1,-22.1 -48.9,3.3 -95.1,17.6 -132.5,40.9 -14.6,9.2 -34.3,26.2 -46.5,40.3 -3.6,4.1 -4,5.8 -0.8,3.8 4.8,-3.2 26.4,-15.2 32.1,-17.9 3.4,-1.6 7.8,-2.9 9.9,-2.9 3.5,0 3.7,0.2 3.7,3.3 -0.1,2.4 -2.1,6 -9,15.2 -15.8,21.1 -28.2,49.1 -33,74.5 -1.9,9.7 -2,11.9 -1,15.1 1.1,3.1 1,5.2 -0.4,12.6 -1.6,8.1 -1.6,9.7 -0.2,19.8 1.4,9.3 2.1,11.7 4.7,15.4 2.8,4.1 3.1,5 2.6,9.9 -0.5,4.4 0,6.9 2.4,13.4 6.1,16.7 19.5,40 28.1,49.1 2,2.1 3.9,4.5 4.2,5.2 0.3,0.8 2.1,2.5 4,3.7 2,1.3 3.6,2.6 3.6,3.1 0,1.7 14.8,16 18.5,17.9 2.2,1.2 6.5,4.4 9.6,7.3 5.4,4.9 13.2,9.5 16.3,9.5 2.6,0 8.4,3.4 9.7,5.7 1.4,2.5 14,8.9 19.7,9.9 2,0.3 5.1,1.5 6.9,2.5 6.6,4.1 29.5,9.8 47.3,11.8 18.4,2.2 23.5,2.3 39,1.1 z"
       id="path50" />
    <path
       d="m 2493.5,326 c -24.8,-3.5 -45.3,-14.5 -66.2,-35.7 -5.6,-5.7 -10,-9.3 -11.3,-9.3 -1.6,0 -2,-0.6 -2,-3.5 0,-2.3 -1.2,-5.4 -3.5,-9 -4.6,-7.2 -10.5,-19.2 -13.8,-28 -6.4,-17 -9.1,-32.1 -10.7,-58.1 -0.9,-15.3 -0.9,-18.7 0.3,-22 0.8,-2.1 2.3,-7.7 3.2,-12.4 8.7,-42.6 35.8,-76.5 70.6,-88 3.5,-1.2 7.9,-2.8 9.8,-3.7 2.3,-1 4.9,-1.4 8.1,-1 3.6,0.4 5.3,0.1 7.6,-1.4 3.7,-2.4 8.7,-2.4 12.2,0 3.2,2.3 13.3,3.6 24.9,3.3 l 8.2,-0.3 0.3,2.8 c 0.3,2.3 1.6,3.4 8.7,7 4.7,2.4 9.1,4.3 9.7,4.3 0.7,0 1.9,0.8 2.6,1.8 0.7,0.9 4.3,4.1 8,7 7.8,6.2 18.4,17.3 24.1,25.5 2.7,3.7 5.5,6.3 8,7.5 3.6,1.6 3.8,1.9 3.4,5.7 -0.3,2.9 0.4,5.5 2.4,9.5 4.1,8.4 10.7,28.7 13,39.7 1,5.4 2.2,16.1 2.6,23.8 0.4,9.2 1.1,14.7 1.9,16 2.2,3.1 1.7,10.1 -1,14.8 -1.3,2.3 -2.9,7.4 -3.6,11.2 -1.7,9.3 -8,27.3 -12.6,36 -15.3,28.9 -37.4,47.3 -65.4,54.4 -9.6,2.5 -29.6,3.5 -39.5,2.1 z m 27.5,-8.5 c 11.1,-2 16.7,-3.9 27,-9.1 27.7,-14.2 48.3,-44.2 54.9,-79.9 0.7,-3.3 2.1,-7.9 3.3,-10.2 1.8,-3.4 2,-4.6 1.1,-6.5 -0.6,-1.3 -1.4,-8.1 -1.7,-15.3 -0.9,-22.6 -5.6,-41.8 -15.2,-62.4 -2.4,-5.1 -4.4,-10.4 -4.4,-11.7 0,-1.3 -0.9,-2.8 -2,-3.4 -1.1,-0.6 -3.9,-3.6 -6.2,-6.8 C 2566,96 2551.5,83.1 2536,75.1 c -4.7,-2.4 -9.5,-5.3 -10.8,-6.5 -1.5,-1.3 -3.4,-1.9 -5.5,-1.8 -1.8,0.2 -6.1,-0.4 -9.7,-1.2 -3.6,-0.9 -8.1,-1.6 -10,-1.6 -1.9,0 -4.7,-0.6 -6.1,-1.4 -2.2,-1.1 -2.9,-1.1 -4.4,0 -1.2,0.9 -4.5,1.4 -8.6,1.4 -3.7,0 -7,0.4 -7.3,0.9 -0.3,0.5 -2.7,1.4 -5.3,2.1 -2.7,0.6 -8.6,2.9 -13.1,5.1 -29.4,13.7 -50.1,43 -58,82.1 -1.1,5.3 -2.5,10.4 -3,11.4 -0.7,1.3 -0.7,2.5 0,3.8 0.6,1 0.8,4.1 0.5,6.8 -0.8,6.6 1,26.4 3.3,36.9 4,18.1 12.7,39.1 21.5,52.1 1.9,2.9 3.5,5.8 3.5,6.4 0,2 18.1,19.8 26.7,26.1 8.3,6.2 22.9,13.8 31.8,16.7 6.7,2.1 19.8,4.4 26,4.5 2.8,0.1 8.8,-0.6 13.5,-1.4 z"
       id="path52" />
    <path
       d="M 8.5,384.3 C 6.3,384 3.5,382.9 2.3,381.8 0.2,379.8 0,378.7 0,369.4 0,359.9 0.2,359 2.2,357.6 3.5,356.7 6.5,356 9.3,356 c 3.2,0 5.8,-0.7 7.6,-1.9 2.4,-1.7 7.1,-3.7 19.1,-8.1 1.9,-0.7 4.9,-1.5 6.5,-1.7 3.2,-0.6 14,-9.5 17.6,-14.4 1.1,-1.6 3,-5.5 4.2,-8.7 1.9,-5.1 2.2,-8.9 2.9,-38.2 1,-38.7 1,-34.9 0.2,-63.3 -0.4,-15 -0.2,-23.2 0.5,-24 1.3,-1.6 1.3,-4.7 0,-30.2 -0.8,-16.2 -0.7,-22.2 0.2,-26.3 1,-4.2 1,-5.8 0.1,-7.3 C 67.4,130.6 67,122.8 67,106.3 67.1,76.7 66.1,68.2 62.1,63.2 60.5,61.1 58,58.4 56.6,57.1 55.2,55.7 54,54.1 54,53.3 54,52.6 52.9,52 51.4,52 50,52 47.9,51.5 46.7,50.8 45.5,50.2 42.7,49.3 40.5,48.9 32.5,47.4 17.9,43.2 15.5,41.6 14.2,40.7 12,40 10.8,40 9.4,40 6.8,38.3 4.2,35.6 0.1,31.3 0,31.2 0,24.1 0,17.8 0.3,16.7 2.7,14 5.3,11.1 6.1,10.8 13,10.5 17.1,10.2 21.6,9.6 23,9.1 26.1,7.9 51.1,6.1 72,5.5 80.6,5.3 88.9,4.6 90.5,4 94.9,2.3 179,1 231.5,1.9 c 5.5,0.1 12.7,0.6 16,1.1 3.3,0.5 11,1.4 17,2 13.5,1.4 39.5,6.5 43.5,8.5 1.6,0.8 4.1,1.5 5.5,1.5 1.5,0 4.1,0.6 5.8,1.4 1.8,0.8 6.4,2.2 10.2,3.1 20.5,4.9 69.8,28.8 72.2,35.1 0.3,0.8 0.9,1.4 1.4,1.4 1.2,0 11.5,7.3 15.2,10.8 15.9,14.8 21.2,20.3 23.8,24.2 1.6,2.5 4.7,6.4 6.9,8.8 3,3.2 4,5.2 4,7.6 0,4.4 -2.9,7.1 -7,6.3 -4,-0.9 -12.6,-6.5 -17.5,-11.6 -2.8,-3 -4.7,-4.1 -6.9,-4.1 -1.6,0 -5.8,-1.6 -9.3,-3.5 -3.6,-2 -6.1,-3 -5.7,-2.3 0.5,0.7 2.7,3.9 5.1,7.1 2.3,3.2 4.5,7.5 4.9,9.5 0.4,2 1.6,5.1 2.8,6.7 1.2,1.7 2.8,4.6 3.6,6.5 0.7,1.9 2.1,4.9 3.1,6.5 2.8,4.9 8,22.4 9,30.5 0.5,4.1 1.4,9.3 2.1,11.5 1.6,5.4 2.1,30.1 0.9,41.1 -1.5,12.6 -2.6,18 -5.1,24.9 -1.2,3.3 -2.6,7.8 -3.1,10 -0.6,2.2 -1.9,5.4 -3,7.1 -1,1.7 -1.9,3.8 -1.9,4.6 0,0.9 -0.7,2.1 -1.5,2.8 -0.8,0.7 -1.5,2.6 -1.5,4.3 0,4.6 -12.2,24.7 -19,31.2 -1.6,1.6 -3,3.4 -3,4 0,1.6 -12.9,15.5 -14.5,15.5 -0.7,0 -3.4,2.5 -6,5.6 -5.4,6.3 -17.5,16.4 -19.7,16.4 -0.8,0 -2.7,1.4 -4.4,3.1 -1.6,1.8 -4.8,4 -7.1,5.1 -2.3,1 -4.5,2.3 -4.8,2.8 -0.3,0.6 -1.4,1 -2.4,1 -1,0 -3.8,1.6 -6.3,3.6 -2.6,1.9 -9.5,5.5 -15.5,8 -22.2,9.3 -23,9.5 -30.7,9.2 -6.6,-0.2 -7.5,0 -13.1,3.4 -5,3 -7.8,3.9 -17,5.3 -15.8,2.3 -37.2,3.1 -42.9,1.5 -3,-0.8 -5,-0.9 -5.8,-0.3 -0.7,0.5 -11.1,1.1 -23.3,1.2 -19.7,0.2 -22.6,0 -28.1,-1.8 -5.6,-1.9 -6.8,-1.9 -15,-0.8 -5.2,0.7 -16.3,1.1 -26.4,0.9 -32.4,-0.6 -42.8,-0.4 -52.7,1.2 -14.5,2.2 -29.9,3.1 -30.7,1.7 -1,-1.6 -7.9,-1.4 -10.2,0.4 -1.8,1.4 -6.3,1.6 -14.9,0.8 z M 29.2,374 c 4.8,0 8.9,0.4 9.3,0.9 0.7,1.2 6.8,0.6 23.5,-2.1 11.2,-1.8 14.6,-2 33,-1.2 26.8,1 33.1,1 47.8,-0.6 11.8,-1.3 12.5,-1.3 19,0.8 8.8,2.8 26.1,3.1 37,0.5 6.5,-1.5 8.1,-1.5 15,-0.3 10.2,1.9 28.1,1.5 41.7,-0.9 8.9,-1.5 12.1,-2.6 17,-5.5 5.6,-3.4 6.5,-3.7 13.5,-3.5 7.5,0.1 11,-0.8 20.1,-4.9 2.5,-1.2 6.9,-3 9.8,-4.2 7.8,-3 12.3,-5.5 15.4,-8.4 1.5,-1.4 3.7,-2.6 4.8,-2.6 1.1,0 2.2,-0.7 2.5,-1.5 0.4,-0.8 1.5,-1.5 2.5,-1.5 2.7,0 9.7,-4.8 10.4,-7.1 0.4,-1.1 1.6,-1.9 2.7,-1.9 3.6,0 17.8,-12.1 17.8,-15.2 0,-1.1 0.7,-1.8 2,-1.8 1.1,0 2,-0.6 2,-1.4 0,-0.7 1.5,-2.1 3.4,-3 3.4,-1.6 12.6,-11.3 12.6,-13.3 0,-0.5 2,-3.1 4.4,-5.7 8.3,-8.7 17.6,-24.3 17.6,-29.4 0,-1.6 0.7,-3.5 1.5,-4.2 0.8,-0.7 1.5,-1.7 1.5,-2.4 0,-0.6 1.1,-3.3 2.4,-6.1 1.4,-2.7 3,-7 3.7,-9.5 0.7,-2.5 1.7,-5 2.1,-5.7 0.5,-0.6 1.2,-3.8 1.5,-7 0.3,-3.2 1,-6.4 1.6,-7.1 0.5,-0.7 0.9,-4 0.8,-7.3 -0.1,-3.4 0.3,-6.7 0.9,-7.4 2.4,-2.9 -0.2,-32.1 -3,-34.9 -0.6,-0.6 -1,-3.8 -1,-7.3 0,-9 -8.3,-32.4 -14.5,-40.8 -1.3,-1.6 -2.5,-4.6 -2.9,-6.6 -0.6,-3.7 -7,-13.7 -11.1,-17.5 -1.2,-1.1 -2.4,-2.5 -2.6,-3 -0.2,-0.5 -2.8,-3 -5.7,-5.4 -5.1,-4.3 -5.3,-4.7 -5,-9 l 0.3,-4.5 4.8,0.1 c 3.9,0 7.5,1.4 19.8,7.7 8.3,4.2 16.2,7.7 17.7,7.7 2.5,0 2.1,-0.5 -4.3,-6.5 -3.8,-3.6 -8.6,-8 -10.5,-9.7 -3.9,-3.7 -12.7,-9.8 -14,-9.8 -0.5,0 -1.7,-1 -2.7,-2.3 C 388.8,53.5 347.6,33.4 326,28 321.3,26.8 316.1,25.2 314.3,24.4 312.6,23.6 310,23 308.5,23 c -1.4,0 -3.9,-0.7 -5.5,-1.5 -3.8,-1.9 -29.8,-7.2 -42.5,-8.5 -5.5,-0.6 -12.7,-1.4 -15.9,-1.9 -3.4,-0.4 -7.7,-0.3 -10.2,0.2 -3.2,0.8 -5.4,0.7 -8.2,-0.2 -4.3,-1.4 -29.9,-1.7 -90.8,-0.8 -29.6,0.4 -37.8,0.8 -40.6,2 -2.6,1.1 -7.6,1.5 -18.4,1.5 C 50,13.9 27.6,16.1 21.7,19.2 20.6,19.7 17.6,20 14.8,19.9 9.5,19.6 8,20.6 8,24.8 8,26.1 8.6,27 9.5,27 c 0.9,0 2,1.1 2.5,2.5 0.7,1.8 1.7,2.5 3.6,2.5 1.5,0 3.5,0.6 4.3,1.4 2.1,1.9 19.7,6.7 35.4,9.7 5.1,1 5.7,1.4 5.7,3.7 0,1.7 1.7,4.1 5.9,8.1 6.7,6.3 6.5,5.9 8.2,26.6 1.2,13.8 1.2,17 0.3,31.9 -0.4,7.7 -0.2,11.5 0.6,13.1 0.8,1.6 1,4.9 0.6,10.6 -0.9,11 -0.9,12.8 0,29.9 1,19.7 0.8,32 -0.5,33.3 -1.8,1.8 -1.4,29.4 0.6,39.4 1.4,7.3 1.5,9.1 0.4,12.7 -0.9,2.8 -1.6,14.4 -2.1,35.6 -0.8,33.7 -1.3,37.8 -6.5,46 -3,4.8 -17.5,18 -19.7,18 -4,0 -24.8,7.8 -27.8,10.5 -0.8,0.7 -4.3,1.6 -7.7,2 -6,0.7 -6.3,0.8 -6.2,3.3 0.2,6.1 1.3,7.7 5.4,8.2 2.4,0.4 4.8,0.1 6,-0.7 1.2,-0.8 5.3,-1.3 10.7,-1.3 z"
       id="path54" />
    <path
       d="m 187.5,323.2 c -6.2,-0.7 -13.7,-3.5 -16.9,-6.3 -5.6,-4.8 -5.8,-7.3 -6.4,-60.4 -0.6,-53.5 -0.6,-57.1 0.4,-67 0.3,-3.8 0.1,-15.7 -0.6,-26.3 -0.9,-15.2 -0.9,-20.8 0.1,-26.3 1.1,-6.3 1.1,-7.1 -0.5,-8.2 -2,-1.5 -1.9,-6.3 0.4,-17.2 1.6,-7.8 1,-28.6 -0.9,-30.8 -1,-1.3 -1.2,-3.3 -0.6,-8.2 0.3,-3.6 1.1,-6.5 1.6,-6.5 0.5,0 0.9,-1.1 0.9,-2.4 0,-7.2 3.8,-9.6 15.1,-9.6 5.5,0 6.9,-0.3 6.9,-1.5 0,-1.1 1.2,-1.5 5,-1.5 3.8,0 5,0.4 5,1.5 0,1.2 1.3,1.5 5.5,1.5 3,0 5.5,-0.4 5.5,-1 0,-0.5 1.6,-1 3.5,-1 2.3,0 3.5,0.5 3.5,1.4 0,1.3 2,2.6 4.1,2.6 0.5,0 0.9,-0.7 0.9,-1.5 0,-1.1 1.2,-1.5 5,-1.5 4.7,0 5,0.2 5,2.5 0,1.9 0.7,2.6 2.8,3.1 11,2.5 16.7,4.5 32.2,11.4 4.7,2.1 10.8,4.4 13.5,5.3 3.8,1 5.4,2.1 6.4,4.3 0.8,1.6 2.6,3.8 4,4.9 4,3.1 17.4,16.7 19.1,19.3 2.4,3.8 5.5,7.2 6.5,7.2 1.8,0.1 4.2,4.4 4.9,8.7 0.7,4.6 2.9,10.2 5.8,14.4 1.8,2.7 7.2,18.1 9,25.4 3.8,16.2 4.7,23.6 4.7,41 0,13.2 -0.4,17.2 -2.7,27 -0.5,2.2 -1.7,7.8 -2.6,12.5 -1,4.7 -1.9,9.4 -2.1,10.6 -0.3,1.1 -1.4,3.1 -2.6,4.5 -1.2,1.3 -2.8,3.9 -3.6,5.8 -0.8,1.8 -3.2,6.2 -5.3,9.7 -2.1,3.5 -4.1,7.3 -4.5,8.4 -0.3,1.1 -1,2 -1.4,2 -0.5,0 -1.1,1.3 -1.4,3 -0.5,2.2 -1.6,3.3 -4.3,4.5 -2,0.8 -3.8,2.4 -4.1,3.5 -0.3,1.1 -0.9,2 -1.3,2 -0.8,0 -13.1,9.6 -14,10.9 -0.8,1.2 -16.4,8.9 -22.1,11 -3,1.1 -8.3,2.7 -11.9,3.6 -3.6,0.9 -8.3,2.1 -10.5,2.7 -3.7,1.1 -49.3,1.8 -57,1 z m 41.7,-8.7 c 16.1,-0.5 29.1,-3.9 44.3,-11.8 8.8,-4.5 14,-8.3 23.2,-16.9 3.4,-3.2 6.6,-5.8 7.1,-5.8 0.5,0 1.2,-0.8 1.6,-1.7 0.3,-1 1,-2.5 1.5,-3.3 0.5,-0.8 3.3,-5.8 6.2,-11 2.9,-5.2 6.3,-11.2 7.7,-13.2 2.1,-3.2 3.5,-8.6 6.9,-25.8 0.2,-1.4 0.8,-3.4 1.3,-4.5 2.6,-5.9 2.7,-34.8 0.1,-44.5 -0.6,-1.9 -1.5,-5.7 -2.2,-8.5 -2.2,-9.2 -7.7,-24.9 -11.3,-32.8 -2,-4.3 -3.6,-9 -3.6,-10.5 0,-2 -1.8,-4.6 -6.6,-9.6 -3.6,-3.8 -6.9,-7.7 -7.2,-8.6 -0.4,-0.8 -5.3,-5.8 -10.9,-10.9 -5.7,-5.1 -10.3,-9.6 -10.3,-10 0,-0.4 -1.9,-1.4 -4.2,-2 -7,-2.1 -11.9,-4.4 -18.1,-8.3 -3.2,-2.1 -6.4,-3.8 -7.2,-3.8 -0.9,0 -6.8,-1.4 -13.2,-3.1 C 218.1,63.7 205.6,62 191,62 c -15.1,0 -16.8,0.4 -17.6,3.9 -0.3,1.4 -1,3.5 -1.5,4.6 -0.7,1.4 -0.7,4.3 0,8.5 1.4,8.3 1.4,31.1 0.1,38.1 -0.8,3.9 -0.7,6 0.1,7.6 0.8,1.6 0.9,4.8 0.2,12 -0.6,5.6 -0.7,16.2 -0.2,24.8 1.1,22.5 1,37.1 -0.2,39.9 -0.7,1.4 -0.9,3.3 -0.5,4.2 0.4,1 0.8,23 1,48.9 0.2,32.9 0.7,48.1 1.5,50.8 2.2,6.8 7.5,8.8 26.1,9.7 7.4,0.4 14.7,0.5 16.2,0.2 1.5,-0.2 7.4,-0.5 13,-0.7 z"
       id="path56" />
    <path
       d="m 574.2,329.6 c -3.1,-3.5 -3.2,-4 -3.2,-11.9 0,-5.7 0.5,-8.9 1.5,-10.4 2,-2.8 7,-5.3 10.8,-5.3 1.7,0 5,-1.2 7.4,-2.6 2.4,-1.4 6.9,-2.9 10,-3.4 3.3,-0.6 6.1,-1.6 6.5,-2.5 0.5,-0.8 4,-4 7.8,-7 5.2,-4.2 7.5,-6.9 9.9,-11.6 1.7,-3.4 3.1,-7 3.1,-8 0,-1 0.5,-2.1 1,-2.4 0.6,-0.3 1,-2.1 1,-3.8 0,-1.8 0.6,-5.6 1.3,-8.4 1.2,-4.4 1.2,-5.5 -0.2,-8 -1.3,-2.3 -1.5,-6.8 -1.5,-25.3 0.1,-12.4 0.6,-27 1.2,-32.5 0.6,-5.5 0.7,-10.4 0.2,-11 -1.7,-2.2 -2.9,-15.9 -3.1,-37.5 -0.3,-22.1 -0.3,-22.6 -3,-28 -1.4,-3 -3,-6.6 -3.4,-7.9 -0.5,-1.6 -2.6,-3.2 -6.9,-5.1 -9.5,-4.3 -10.1,-5.3 -10.1,-17.6 0,-9.4 0.2,-10.5 2.3,-12.6 2.2,-2.2 2.8,-2.3 17,-2 8.1,0.2 15.3,0.7 16.2,1.1 0.8,0.5 19.3,0.3 41,-0.2 21.7,-0.5 45.1,-1 51.9,-1.1 12.1,-0.1 12.4,0 14.2,2.4 1.4,1.9 2,5.2 2.5,13.1 l 0.7,10.5 -2.8,2.2 c -1.5,1.2 -3.8,2.2 -5,2.2 -6,0 -13.2,9.6 -15.5,20.6 -1,4.6 -3.1,103.3 -3,137.9 0.1,33.8 4,44 18.4,48.2 1.6,0.4 3.8,2 4.8,3.4 1.7,2.3 1.9,3.6 1.2,11.3 -0.6,7.4 -1.1,9.3 -3.3,11.9 l -2.5,3 -24.9,-0.6 c -13.7,-0.4 -25.6,-1.1 -26.5,-1.6 -1,-0.5 -3.9,-0.5 -6.7,0 -2.7,0.4 -15.6,0.8 -28.5,0.9 -12.9,0 -30.2,0.5 -38.5,1 -8.2,0.5 -20.6,1.3 -27.5,1.6 l -12.5,0.7 z m 34.3,-6.1 c 13.2,-0.8 32.8,-1.5 43.5,-1.5 10.7,0 24.3,-0.5 30.3,-1.2 8.4,-0.9 11.2,-0.9 12.7,0 1.2,0.7 9.3,1.4 22.1,1.9 23.1,0.7 22.9,0.8 22.9,-7.9 0,-4.4 -0.2,-4.8 -2.7,-5.3 -1.6,-0.3 -4.8,-1.6 -7.2,-2.8 -5.2,-2.6 -9.1,-8.7 -11.6,-18.2 -2.1,-8.1 -3.6,-45.1 -2.5,-63.1 0.5,-7.7 1,-33.9 1,-58.4 0.2,-46.8 0.9,-55.8 4.9,-65.3 3.1,-7.3 8.5,-12.5 14.7,-14.3 4.1,-1.1 5.4,-2 5.4,-3.4 0,-1 -0.4,-2.2 -1,-2.5 -0.5,-0.3 -1,-2.6 -1,-5.1 V 72 h -5.2 c -2.9,0 -10.5,0.5 -16.8,1.1 -11.6,1 -71.5,1.2 -93.1,0.3 l -11.7,-0.5 -0.6,2.5 c -0.3,1.4 -0.3,4.4 0,6.7 0.6,3.7 1.1,4.2 5.8,6.4 5.3,2.4 11.6,7.6 11.6,9.5 0,0.6 1.4,3.8 3,7.2 l 3,6 v 24.2 c 0,23.1 0.7,30.5 3.2,35.3 0.8,1.6 0.8,5.9 -0.1,16.5 -0.7,7.9 -1.5,21.9 -1.7,31.1 -0.5,15.7 -0.3,17.2 1.6,21.3 2.4,4.8 2.4,8.6 0,19.9 -3.4,17 -7.8,25.8 -15.9,32.3 -2.5,2 -6.1,5.4 -8.1,7.4 -2.7,2.9 -4.7,3.9 -9,4.6 -3,0.6 -7.5,2.2 -10,3.6 -2.5,1.4 -5.9,2.6 -7.6,2.6 -1.8,0 -4.4,0.7 -6,1.5 -2.6,1.3 -2.8,1.8 -2.5,6.7 0.3,5 1.2,6.8 3.6,6.8 0.6,0 11.8,-0.7 25,-1.5 z"
       id="path58" />
    <path
       d="m 2104,332.3 c -3.6,-0.2 -7,-0.5 -7.7,-0.8 -0.7,-0.2 -9.4,-0.7 -19.4,-0.9 -9.9,-0.3 -18.4,-0.8 -18.8,-1 -0.4,-0.3 -17.3,-0.8 -37.7,-1.1 -21.6,-0.4 -37.7,-1.1 -38.8,-1.7 -1.3,-0.7 -5.9,-0.6 -14.5,0.2 -6.9,0.7 -16.6,1 -21.6,0.7 -4.9,-0.3 -12.1,-0.8 -16,-1 -3.8,-0.3 -7.8,-0.1 -8.7,0.4 -1.9,1 -23.4,1.9 -61.8,2.7 l -22.5,0.4 -3,-3.1 c -2.7,-2.9 -2.9,-3.8 -3.3,-12.4 -0.4,-9 -0.3,-9.2 2.5,-11.8 1.8,-1.7 5.7,-3.5 10.6,-4.8 4.3,-1.2 9.4,-2.8 11.4,-3.6 1.9,-0.8 4.8,-1.5 6.3,-1.5 1.5,0 3.3,-0.7 4,-1.5 0.7,-0.8 1.6,-1.5 2.1,-1.5 0.5,0 3.8,-2.3 7.4,-5 6.8,-5.4 11.9,-12.2 13.1,-17.3 0.4,-1.7 1.4,-4.2 2.2,-5.5 1.3,-2 1.3,-2.8 0.3,-4.4 -0.7,-1.1 -1.1,-4.3 -1,-7.1 0.4,-14.2 -1.3,-130.3 -2,-131.2 -0.5,-0.5 -1.1,-2.9 -1.5,-5.2 -0.3,-2.2 -2,-6.6 -3.8,-9.7 -2.6,-4.5 -4.1,-5.9 -7.9,-7.6 -2.6,-1.1 -5.2,-2 -5.7,-2 -0.5,0 -1.9,-1.1 -3.1,-2.4 -2.1,-2.3 -2.2,-2.9 -1.5,-12.2 0.7,-9.1 0.9,-10.1 3.6,-12.8 l 2.9,-2.9 27.2,0.8 c 35.3,1 59.9,0.8 76.7,-0.5 24.9,-1.9 30.1,-1.2 32.6,4 0.7,1.4 1.8,6.3 2.5,10.8 1.1,7.8 1,8.5 -0.8,11 -1.2,1.7 -3.8,3.2 -6.8,4 -3.2,1 -6,2.7 -8.9,5.8 -4,4.1 -4.4,5 -5.9,14.2 -0.9,5.3 -1.9,12.4 -2.2,15.7 -0.5,5.1 -1.3,67.4 -1.3,102.1 0,5.9 -0.5,10.4 -1.1,10.8 -0.6,0.4 -0.7,1.6 -0.1,3.4 0.6,1.5 1.4,5.8 1.9,9.7 1.1,7.9 2,8.9 9.3,10.4 12.4,2.7 33.7,0.4 50.7,-5.4 4.1,-1.4 8.5,-2.5 9.7,-2.5 1.3,0 3.8,-0.9 5.7,-2 4.8,-2.9 14.8,-6.7 19.6,-7.5 2.2,-0.4 4.5,-1.3 5.2,-2.1 0.6,-0.8 1.9,-1.4 2.8,-1.4 0.9,0 2.6,-0.7 3.7,-1.4 3.7,-2.6 34.5,-15.6 36.9,-15.6 1.3,0 2.7,-0.4 3,-1 0.3,-0.5 2.9,-1 5.6,-1 5.4,0 19,4.7 23.2,8 1.4,1.1 3.5,2 4.6,2 2.7,0 9.8,3.5 12.9,6.3 3,2.8 2.8,6.7 -0.5,10 -3.3,3 -19.5,10.7 -22.7,10.7 -1.2,0 -3.3,1.2 -4.7,2.6 -1.3,1.4 -6.6,5.1 -11.8,8.1 -5.2,3.1 -13.6,8.4 -18.7,11.8 -5.1,3.5 -10.2,6.6 -11.3,7 -1.2,0.3 -2.1,1.4 -2.1,2.3 0,0.9 -0.9,2.8 -2,4.2 -1.1,1.4 -2,3.3 -2,4.3 0,2.7 2.8,6.4 5.5,7.1 1.3,0.3 3.6,1.7 5.2,2.9 1.5,1.3 3.9,2.7 5.3,3 1.4,0.4 4.2,2 6.3,3.7 4.2,3.6 4.9,7.6 1.9,10.3 -1.9,1.7 -4.4,1.8 -21.2,1 z m 2,-9.4 c 0,-1.5 -3,-3.8 -5,-3.9 -2.3,0 -7.9,-7.2 -8.6,-11 -0.7,-3.4 -0.1,-6 3.2,-15.4 1.5,-4.1 2.4,-5.1 6,-6.7 2.3,-1.1 8.2,-4.6 13,-8 4.9,-3.3 12.9,-8.3 17.7,-11.1 4.9,-2.9 9.6,-6.2 10.4,-7.4 0.9,-1.5 3.1,-2.6 6.2,-3.3 2.6,-0.5 7.9,-2.5 11.8,-4.4 l 7.1,-3.4 -3.4,-1.7 c -1.9,-0.9 -4.5,-1.6 -5.9,-1.6 -1.3,0 -3.1,-0.8 -4,-1.7 -1,-0.9 -5.3,-3.1 -9.7,-4.9 -6.7,-2.7 -8.4,-3 -11.1,-2.2 -5.6,1.8 -34.1,14 -37.3,15.9 -1.7,1.1 -3.8,1.9 -4.6,1.9 -0.9,0 -2.1,0.6 -2.7,1.4 -0.7,0.8 -3,1.7 -5.2,2.1 -6.3,1.1 -20.9,7.1 -20.9,8.7 0,0.4 -1.5,0.8 -3.2,0.8 -1.8,0 -6.9,1.2 -11.3,2.6 -15.3,4.8 -25.7,6.4 -41.3,6.4 -22.3,0 -29.4,-2.7 -30.7,-11.9 -0.3,-2 -1.2,-6.5 -2,-10.1 -1.8,-7.8 -1.9,-13.4 -0.3,-16 1,-1.5 1,-2.9 0,-6.5 -1.6,-6.2 -1.5,-12 0.3,-13.5 1.3,-1.1 1.5,-5.8 1.5,-31.4 0,-16.6 -0.5,-34.6 -1.2,-40.2 -1,-8.9 -0.9,-10.6 0.5,-14.3 1,-2.3 1.7,-6.3 1.7,-8.9 0.1,-2.6 0.7,-8.6 1.4,-13.3 1.2,-7.9 1.7,-9.1 5.6,-13.8 4.7,-5.5 9,-8.5 14,-9.6 2.9,-0.6 3.2,-1 2.6,-3.7 -0.3,-1.7 -0.6,-4.1 -0.6,-5.4 0,-1.2 -0.8,-3 -1.7,-3.9 -1.4,-1.5 -3.2,-1.6 -13.7,-1 -6.7,0.4 -12.5,1 -13.1,1.4 -1.2,0.9 -45.8,0.6 -75.7,-0.4 -24.7,-0.8 -23.8,-1.2 -23.8,8.2 v 4.8 l 4.9,1.8 c 7.7,2.7 17.1,14.5 17.1,21.5 0,2.6 0.7,4.3 2.1,5.6 2,1.7 2.1,2.3 1.3,11.9 -0.9,10.1 -1.1,24.9 -0.6,42.2 0.2,5 0.3,23.2 0.4,40.5 0,25.4 0.3,31.8 1.4,33.1 1.6,1.8 1.9,7.5 0.4,8.4 -0.6,0.4 -0.5,1.5 0.2,3 1.2,2.7 0.3,10.9 -1.5,12.7 -0.7,0.7 -1.9,3.3 -2.6,5.8 -1.9,6.4 -6.4,12.5 -13.2,17.7 -3.2,2.6 -5.9,5 -5.9,5.5 0,0.4 -0.9,0.8 -2,0.8 -1,0 -2.4,0.9 -3,2 -0.7,1.4 -2.1,2 -4.3,2 -1.7,0 -4.9,0.7 -7.2,1.4 -2.2,0.8 -7.9,2.7 -12.7,4.1 -9.8,2.9 -10.1,3.3 -7.7,11.8 l 1,3.7 h 16.7 c 18.7,0 21.2,-0.4 21.2,-3.1 0,-2.9 8,-2.7 9.9,0.2 1.2,2.1 1.8,2.2 14,1.7 7,-0.3 13.7,-1.1 14.9,-1.7 2.6,-1.4 23.8,-1.5 24.7,-0.1 0.8,1.3 12.9,1.2 22,-0.1 14.9,-2.2 16.4,-2.2 20.8,-0.5 3.7,1.4 10.3,1.7 40.8,2.2 20,0.3 40.5,0.9 45.4,1.4 5,0.6 13.3,0.7 18.6,0.4 6.6,-0.4 9.9,-0.2 10.3,0.5 0.9,1.5 6.6,1.4 6.6,0 z"
       id="path60" />
    <path
       d="m 1480.5,330.9 c -30,-1.9 -88.5,-11 -92.5,-14.4 -1.4,-1.2 -4,-1.9 -12,-3.2 -1.9,-0.3 -4.2,-1.1 -5,-1.8 -0.8,-0.7 -3.3,-1.5 -5.6,-1.7 -4.8,-0.7 -18.9,-7 -22.1,-10 -3,-2.8 -2.9,-5.9 0.1,-8.7 2.3,-2.2 3.1,-2.3 14.3,-2 6.5,0.2 12.3,0.1 12.8,-0.3 0.6,-0.3 11.1,-0.9 23.5,-1.2 12.4,-0.4 24.7,-0.9 27.3,-1.2 l 4.8,-0.6 v -57.7 c -0.1,-63.8 0,-61 -1.1,-91.1 -0.7,-22.1 -1.1,-24.5 -5.9,-33.7 -2.1,-4.3 -6.1,-7.3 -12.2,-9.2 -6.5,-2.1 -7.2,-3.8 -6.7,-14.5 0.6,-10.4 2,-14 6.5,-15.7 1.7,-0.6 8.2,-0.6 19.2,0.1 28.6,1.9 64.8,2.6 86.1,1.8 11.3,-0.4 37.2,-0.9 57.5,-1 39.6,-0.3 41.7,-0.1 56.9,5.2 11.9,4.1 29.7,15.2 37.2,23.2 8.4,8.9 21.9,16.8 28.5,16.8 2.2,0 7.3,0.5 11.2,1.1 11.7,1.8 15.1,7 8.1,12.7 -5.6,4.6 -32.7,18.2 -36.3,18.2 -2.2,0 -4.3,1.1 -7.4,3.8 -2.3,2.1 -7.9,5.8 -12.4,8.2 l -8.3,4.4 9.8,5.1 c 17.1,8.9 27,16.1 38.5,27.8 5.9,6 10.7,11.4 10.7,12.1 0,0.6 2.1,3.5 4.6,6.4 5.8,6.6 9.3,16.2 10.1,27.5 1.1,17 -4.7,30.7 -19.2,45.3 -11.4,11.5 -21.4,18.4 -26.9,18.4 -3.2,0 -4.4,0.6 -7,3.5 -7.1,8 -46.7,19 -86.6,23.9 -26.2,3.3 -71,4.4 -100.5,2.5 z m 68.7,-7.9 c 37.1,-2.5 69.4,-8.4 95.3,-17.3 13.7,-4.8 15.2,-5.6 15.8,-8.6 0.6,-3 3.4,-4.1 10.2,-4.1 4.7,0 14.3,-6.7 24.5,-16.9 9.4,-9.4 13.7,-16.8 16.5,-28.1 1.5,-5.9 1.5,-7.2 0.1,-13.6 -1.9,-9.4 -5.3,-17.2 -7.8,-18 -1,-0.3 -2.3,-1.5 -2.9,-2.7 -2.3,-5.5 -8.7,-13.7 -10.5,-13.7 -0.7,0 -2.5,-1.7 -3.8,-3.8 -2.7,-4.2 -9.1,-9.3 -21.6,-17.2 -8.3,-5.3 -29.8,-16 -31.9,-16 -0.6,0 -1.1,-1.7 -1.1,-3.8 0,-3.4 0.4,-4 3.8,-5.6 10.4,-4.9 26.2,-14 26.2,-15.2 0,-1.8 7.2,-5.4 10.7,-5.4 1.6,0 8.6,-3 15.7,-6.7 l 12.9,-6.8 -4.4,-0.7 c -2.4,-0.3 -6.3,-0.7 -8.7,-0.7 -5.7,-0.1 -13,-3.6 -22,-10.5 -4.1,-3.1 -7.8,-5.6 -8.3,-5.6 -0.5,0 -0.9,-0.7 -0.9,-1.5 0,-0.8 -3.5,-4.1 -7.8,-7.3 C 1634,81.9 1617.3,75 1600,73 c -9.2,-1.2 -101,0.3 -103.1,1.6 -0.5,0.3 -11.4,0.1 -24.2,-0.5 -12.8,-0.6 -32.1,-1.3 -42.9,-1.7 l -19.6,-0.6 -1.1,3.8 c -2.1,7.6 -1.6,9.1 3.7,10.8 6.3,2.1 11.2,6.3 14.5,12.3 4.4,8.2 5.7,15.9 5.7,35.1 0,12.7 0.4,18 1.4,20 2.3,4.6 3,15.5 1.2,19.1 -1.4,2.7 -1.6,9.5 -1.4,57.8 l 0.3,54.8 4.8,0.9 c 4.5,0.9 4.7,1.1 4.7,4.3 0,3.2 -0.1,3.3 -4.1,3.3 -16.7,0 -63.6,2.3 -64.7,3.2 -0.8,0.7 -4.3,0.9 -9.5,0.5 l -8.2,-0.5 5,2.3 c 3.3,1.6 6.9,2.4 10.6,2.4 4.2,0.1 6.3,0.7 8.9,2.6 2.9,2.2 4.4,2.5 11.1,2.5 7.3,0 7.8,0.1 8.1,2.2 0.3,2 1.4,2.5 9.3,4 14.4,2.8 48.9,7.6 62.5,8.8 6.9,0.5 14.1,1.2 16,1.4 8.5,0.7 46.2,0.5 60.2,-0.4 z"
       id="path62" />
    <path
       d="m 1511.6,230.3 c 0.5,-40.4 1,-60.2 1.8,-61.2 2.9,-3.7 38,5.3 60.1,15.4 4.3,1.9 8.9,3.5 10.4,3.5 1.6,0 3.6,1.1 5.1,2.8 1.4,1.5 5,4.4 8,6.5 13.5,8.9 22.3,19.4 25.7,30.6 0.9,3.1 2.5,6.7 3.5,8 2.4,3.2 2.3,9.2 -0.2,12.3 -1,1.4 -2.8,4.9 -3.9,7.9 -5,13.4 -15.4,20.2 -39.8,26.3 -18.1,4.5 -44.2,7.6 -64.6,7.6 h -6.7 z m 39.4,49.1 c 11.3,-1.5 28.2,-5 37,-7.8 15.9,-5 23.3,-11.2 27.1,-22.7 0.7,-1.9 1.9,-4.2 2.7,-5.1 1.3,-1.6 1.3,-2 0,-3.5 -0.9,-1 -1.9,-3.4 -2.3,-5.3 -2.1,-10.2 -11.7,-22.3 -24.1,-30.3 -3.8,-2.5 -7.8,-5.4 -8.8,-6.6 -1.1,-1.2 -3,-2.1 -4.3,-2.1 -1.3,0 -4.9,-1.3 -8.1,-2.9 -7.6,-3.8 -26.9,-10.5 -39.4,-13.6 -5.5,-1.4 -10.1,-2.5 -10.3,-2.3 -0.1,0.2 -0.5,23.9 -0.9,52.7 l -0.6,52.4 10.2,-0.7 c 5.7,-0.4 15.5,-1.4 21.8,-2.2 z"
       id="path64" />
    <path
       d="m 1513.2,139.3 0.3,-27.8 3,-1.5 c 4.7,-2.4 37.9,-2.1 46,0.3 8,2.5 14.9,6 21.3,10.9 4.8,3.7 5.2,4.4 5.2,8.2 v 4.1 l -33.5,16.8 c -28.5,14.2 -34.2,16.7 -38,16.7 h -4.5 z m 62.6,-12.6 c -4.6,-3.5 -14.5,-7.6 -22.8,-9.3 -8.3,-1.7 -26,-1.6 -30.2,0.1 -1.6,0.6 -1.8,2.6 -1.8,20.1 V 157 l 28.5,-14.2 c 28.3,-14.2 28.5,-14.3 26.3,-16.1 z"
       id="path66" />
    <path
       d="m 2684.3,72 c -5.2,-1.2 -9.5,-4.3 -13.3,-9.5 -3.2,-4.5 -3.5,-5.7 -3.9,-12.8 -0.4,-9.6 1.5,-15.2 7.3,-21.5 6.1,-6.6 10.6,-8.5 18.7,-8 5.9,0.5 7.3,1 11.3,4.3 7.7,6.3 8.6,8.5 8.6,21.3 v 11.1 l -4.3,5.3 c -7.2,8.9 -15.1,12.1 -24.4,9.8 z"
       id="path68" />
  </g>
  <g
     fill="#f6b762"
     id="g88">
    <path
       fill="url(#lg0)"
       d="m 1020.4,466.1 c -0.3,-2.1 -1,-4.4 -1.4,-5.1 -0.6,-0.9 -5.7,-1.3 -18.6,-1.5 -9.9,-0.2 -20.3,-0.7 -23.2,-1.1 -5.8,-0.8 -7.2,0 -7.2,4.4 0,3.6 -3.3,2.7 -5.1,-1.6 -1,-2 -4,-9.1 -6.9,-15.7 -2.8,-6.6 -5.5,-12.9 -6,-14 -1.7,-4 -7,-19.3 -10.5,-30.4 -4.8,-15.4 -7.9,-27.9 -11,-44.6 -3.5,-19.2 -3.6,-19.5 -2.6,-19.5 0.5,0 1.4,-2.8 2,-6.2 1,-5.6 0.9,-6.4 -0.9,-8.3 -4.9,-5.2 -5.5,-9.7 -5.3,-43.5 0,-22.4 1.9,-38.8 6.9,-62.8 1.5,-7.2 3.6,-9.4 4.9,-5.3 0.5,1.7 2,2 12.8,2.5 6.7,0.4 17,0.9 23,1.2 7.5,0.4 10.7,0.3 10.7,-0.5 0,-0.6 1.7,-1.1 4,-1.1 2.5,0 4,0.5 4,1.3 0,0.8 1.7,1.2 5.8,1.1 9.7,-0.3 9.2,-0.1 9.2,-3.9 0,-3.2 0.3,-3.5 2.9,-3.5 3.6,0 4.7,2.4 2.5,5.8 -0.9,1.4 -1.8,4.9 -1.9,7.9 -0.1,3.4 -0.9,6 -1.9,7.2 -1.2,1.3 -1.9,4 -2.1,7.8 -0.2,3.2 -1.2,11.2 -2.4,17.8 -10.4,60.4 -4.7,120.6 17.6,186 3,8.8 5.8,18.5 6.3,21.7 0.4,3.1 1.1,6.1 1.4,6.7 0.5,0.7 -0.5,1.1 -2.8,1.1 -3.4,0 -3.6,-0.2 -4.2,-3.9 z"
       id="path72"
       style="fill:url(#linearGradient929)" />
    <path
       fill="url(#lg3)"
       d="m 2487,380.3 c -23.3,-1.6 -52.6,-7.9 -61.3,-13.2 -1.8,-1 -4.9,-2.2 -6.9,-2.5 -5.7,-1 -18.3,-7.4 -19.7,-9.9 -1.3,-2.3 -7.1,-5.7 -9.7,-5.7 -3.1,0 -10.9,-4.6 -16.3,-9.5 -3.1,-2.9 -7.4,-6.1 -9.6,-7.3 -3.5,-1.8 -19.1,-16.8 -18.9,-18.2 0,-0.3 -1.7,-1.7 -3.8,-3.3 -2.1,-1.5 -3.8,-3.1 -3.8,-3.5 0,-0.5 -1.7,-2.7 -3.7,-4.8 -3.7,-3.8 -14.7,-19.8 -15.9,-22.9 -0.5,-1.1 0.1,-1.5 2.5,-1.5 1.7,0 3.1,0.5 3.1,1.1 0,3.5 7.4,5.9 18.1,5.9 4.6,0 17.7,0.7 29.1,1.5 11.4,0.8 27.6,1.7 36,2 8.4,0.3 16.5,0.8 18,1 l 2.6,0.4 -2.4,-2.4 c -1.4,-1.4 -2.9,-2.5 -3.4,-2.5 -0.6,0 -1,-0.6 -1,-1.3 0,-0.7 -1.9,-1.7 -4.2,-2.3 -4.2,-0.9 -4.3,-1 -4.6,-5.1 -0.2,-3.4 0,-4.3 1.2,-4.3 0.9,0 1.6,-0.7 1.6,-1.5 0,-0.8 0.4,-1.5 1,-1.5 1.6,0 3.1,3.8 2.4,6.5 -0.5,2.1 -0.3,2.5 1.5,2.5 1.4,0 5.5,3.3 11.4,9.3 18.3,18.5 35.3,28.7 56.4,33.9 12.7,3.1 30.6,3 42.8,-0.1 15.1,-3.9 28,-10.6 40,-20.9 3.3,-2.8 6.2,-4.7 6.5,-4.2 1,1.6 62.3,5.4 62.8,3.9 0.5,-1.2 6.9,-1.1 7.4,0 0.2,0.5 3,1 6.3,1.1 10.7,0.3 11.5,0.2 11.5,-1.9 0,-1.3 0.9,-2 3,-2.4 1.8,-0.4 3,-1.3 3,-2.2 0,-1 1,-1.5 3.1,-1.5 3.5,0 3.5,-0.1 -3,8.5 -7.3,9.7 -25.8,27.5 -37.4,36.2 -12.5,9.3 -28.7,18.8 -41.5,24.3 -12.3,5.3 -29.8,11.1 -31.6,10.4 -0.8,-0.3 -2.5,0.1 -3.8,1 -6.7,4.4 -47.1,8.5 -68.8,6.9 z"
       id="path74"
       style="fill:url(#linearGradient931)" />
    <path
       fill="url(#lg1)"
       d="m 9.5,379.1 -4,-0.6 -1.4,-7.3 c -1,-5.3 -1.1,-7.6 -0.3,-8.4 0.6,-0.6 3.7,-1.3 6.9,-1.5 3.2,-0.3 6.5,-1.1 7.3,-1.8 2.9,-2.6 23.7,-10.5 27.8,-10.5 2.2,0 16.7,-13.2 19.7,-18 5.2,-8.2 5.8,-12.3 6.4,-46 0.5,-19.8 1.1,-32.5 1.8,-34.1 0.9,-2.1 0.8,-4.3 -0.3,-9.5 -1.6,-8 -2,-42.4 -0.4,-44 0.5,-0.5 1,-3.7 1,-6.9 0.1,-9.6 -0.9,-32.5 -1.6,-36.2 -0.6,-3.2 -0.5,-3.4 1.7,-3.1 2.3,0.3 2.4,0.7 2.7,9.1 l 0.3,8.7 9.2,0.2 c 16.6,0.3 23,0.5 33.7,1.2 24.8,1.4 39.1,2.1 40,1.8 0.6,-0.2 1,-2.6 1,-5.3 0,-4.7 0.1,-4.9 2.9,-4.9 3.8,0 4,1.5 3.6,21.5 -0.2,8.8 -0.4,17.6 -0.4,19.5 -0.1,1.9 0.1,24.7 0.2,50.5 0.2,33.9 0.7,48.5 1.6,52.2 2.6,10.6 10.9,14.3 33,14.7 7.5,0.1 16.2,-0.2 19.3,-0.6 3.4,-0.5 7.5,-0.4 10.1,0.2 3.3,0.7 5.6,0.6 8.8,-0.4 2.4,-0.7 6.9,-1.9 9.9,-2.6 3,-0.7 8.2,-2.2 11.5,-3.3 6,-2 23.6,-10.4 24.5,-11.8 0.9,-1.3 13.2,-10.9 14,-10.9 0.4,0 1,-0.9 1.3,-2 0.3,-1.1 2.1,-2.7 4.1,-3.5 2.7,-1.2 3.8,-2.3 4.3,-4.5 0.3,-1.7 0.9,-3 1.4,-3 0.4,0 1.1,-0.9 1.4,-2 0.4,-1.1 2.4,-4.9 4.5,-8.4 2.1,-3.5 4.5,-7.9 5.3,-9.7 0.8,-1.9 2.4,-4.5 3.6,-5.8 1.2,-1.4 2.3,-3.4 2.6,-4.5 0.2,-1.2 1.1,-5.9 2.1,-10.6 0.9,-4.7 2.1,-10.3 2.6,-12.5 2.2,-9.6 2.7,-13.6 2.7,-24 0,-14 -2.2,-31.9 -4.3,-35.4 -0.6,-0.9 0,-1.2 2.5,-0.9 3.2,0.3 3.5,0.6 4.2,4.8 0.5,2.5 1.3,6.5 1.9,8.9 l 1.1,4.3 5.3,-0.6 c 3.2,-0.4 9,0 14.1,0.9 4.8,0.8 17.1,1.7 27.3,1.9 10.2,0.2 20.4,0.8 22.8,1.1 2.9,0.5 4.2,0.4 4.2,-0.4 0,-0.6 1.6,-1.1 3.5,-1.1 1.9,0 3.5,0.5 3.5,1 0,0.6 1.5,1 3.4,1 1.9,0 4.6,0.4 6,1 2.5,0.9 2.6,1.2 2.6,9.9 0,5.1 -0.4,9.3 -1,9.6 -0.6,0.4 -0.8,2.5 -0.4,5.4 0.5,3.5 0.2,5.8 -1.1,8.4 -0.9,2 -1.4,4.1 -1,4.6 0.6,1 -1.2,8.6 -2.5,10.6 -0.3,0.6 -1.2,3 -1.9,5.5 -0.7,2.5 -2.3,6.8 -3.7,9.5 -1.3,2.8 -2.4,5.5 -2.4,6.1 0,0.7 -0.7,1.7 -1.5,2.4 -0.8,0.7 -1.5,2.6 -1.5,4.2 0,5.1 -9.3,20.7 -17.6,29.4 -2.4,2.6 -4.4,5.2 -4.4,5.7 0,2 -9.2,11.7 -12.6,13.3 -1.9,0.9 -3.4,2.3 -3.4,3 0,0.8 -0.9,1.4 -2,1.4 -1.3,0 -2,0.7 -2,1.8 0,3.1 -14.2,15.2 -17.8,15.2 -1.1,0 -2.3,0.8 -2.7,1.9 -0.7,2.3 -7.7,7.1 -10.4,7.1 -1,0 -2.1,0.7 -2.5,1.5 -0.3,0.8 -1.4,1.5 -2.5,1.5 -1.1,0 -3.3,1.2 -4.8,2.6 -3.1,2.9 -7.6,5.4 -15.4,8.4 -2.9,1.2 -7.3,3 -9.8,4.2 -10.3,4.7 -15.4,5.9 -21.6,5.3 -5.7,-0.6 -6.3,-0.4 -12,3 -4.9,3 -8.1,4.1 -17,5.7 -13.5,2.3 -37.4,2.9 -45.7,1 -4.8,-1.1 -6.6,-1.1 -11.6,0.3 -4.1,1 -10.7,1.5 -20.9,1.5 -12.5,0 -15.9,-0.3 -21.1,-2.1 -5.8,-2 -6.8,-2 -15.9,-0.8 -5.8,0.8 -16.4,1.2 -25.8,1 -37.7,-0.7 -44.3,-0.6 -50.5,0.6 -11.8,2.2 -29.8,3.7 -31.2,2.5 -1.9,-1.5 -11.9,-1.2 -14.5,0.4 -2.3,1.4 -4.9,1.6 -11.8,0.5 z"
       id="path76"
       style="fill:url(#linearGradient933)" />
    <path
       fill="url(#lg2)"
       d="m 578,327 c -1,-0.6 -1.5,-3.2 -1.8,-8.8 l -0.3,-8 3.2,-1.6 c 1.8,-0.9 4.6,-1.6 6.3,-1.6 1.7,0 5.1,-1.2 7.6,-2.6 2.5,-1.4 7,-3 10,-3.6 4.3,-0.7 6.3,-1.7 9,-4.6 2,-2 5.6,-5.3 8,-7.3 2.5,-2 5.7,-5.4 7.2,-7.5 3.1,-4.5 7.8,-16.7 7.8,-20.3 0,-1.4 0.7,-5.1 1.6,-8.2 1.6,-5.6 1.6,-5.9 -0.5,-10.2 -2.1,-4.3 -2.2,-5.5 -1.7,-24.8 0.3,-11.2 0.7,-22.4 1,-24.9 0.2,-2.5 0.4,-5.3 0.5,-6.2 0.2,-2.7 3,-2.1 3.7,0.8 0.4,1.4 0.4,4.2 0.1,6.3 l -0.5,3.7 28.2,1.2 c 46.5,2 45.5,2 46.1,0.4 0.3,-0.7 0.5,-4.5 0.5,-8.3 V 184 h 3 3 l -0.1,16.3 c 0,8.9 -0.4,21.4 -0.8,27.7 -1,16.4 0.4,50.1 2.4,57.5 3.2,11.9 10.3,20.4 17.1,20.5 4.6,0 5.5,1.9 4.8,9.8 -1,10.4 -1.3,10.6 -12.5,10.5 -18.4,-0.3 -37.4,-1.5 -38.6,-2.5 -0.7,-0.6 -3.9,-0.5 -8.8,0.1 -4.2,0.6 -16.7,1.1 -27.8,1.1 -11.1,0 -31,0.7 -44.2,1.5 -28.3,1.7 -31.5,1.8 -33.5,0.5 z"
       id="path78"
       style="fill:url(#linearGradient935)" />
    <path
       fill="url(#lg5)"
       d="m 2104.5,327.3 c -3.3,-0.2 -7,-0.8 -8.2,-1.4 -1.2,-0.7 -3,-0.8 -4,-0.4 -2.1,0.8 -12.2,0.7 -24.8,-0.5 -4.9,-0.4 -25.4,-1.1 -45.5,-1.4 -29.5,-0.5 -37.3,-0.9 -40.6,-2.2 -3.3,-1.3 -4.9,-1.4 -8,-0.4 -5.5,1.6 -33,2.6 -34.6,1.2 -1.5,-1.2 -16.1,-0.8 -23.3,0.7 -2.7,0.5 -10.5,1 -17.2,1 -11.2,0.1 -12.4,-0.1 -13.5,-1.9 -1.6,-2.5 -3.8,-2.6 -3.8,-0.1 0,2.8 -2.4,3.1 -24.2,3.1 h -19.7 l -1,-3.7 c -0.6,-2.1 -1.1,-6.4 -1.1,-9.5 v -5.7 l 8.8,-2.6 c 4.8,-1.4 10.5,-3.3 12.7,-4.1 2.3,-0.7 5.5,-1.4 7.2,-1.4 2.2,0 3.6,-0.6 4.3,-2 0.6,-1.1 2,-2 3,-2 1.1,0 2,-0.4 2,-0.8 0,-0.5 2.7,-2.9 5.9,-5.5 6.8,-5.2 11.3,-11.3 13.2,-17.7 0.7,-2.5 1.7,-4.8 2.1,-5.1 1.9,-1.3 2.6,-6.7 1.2,-8.6 -1.8,-2.4 -1.8,-5.8 0.1,-7.3 1.4,-1.2 1.4,-1.5 0,-3 -2.2,-2.4 -1.9,-3 1.5,-3 h 2.9 v 8.9 c -0.1,5 0.2,9.5 0.6,10 0.4,0.7 5.5,1.1 13.3,1.1 7,0 16.5,0.4 21.2,0.9 4.7,0.5 15.4,1.2 23.7,1.6 l 15.3,0.7 -0.6,-6 c -0.5,-4.8 -0.3,-6.4 0.9,-7.6 2.4,-2.5 3.6,-1.9 4.2,1.9 0.3,1.9 0.7,5 1,6.9 1.3,8.5 8.8,11.6 27.7,11.6 11.9,0 23.8,-1.9 36.6,-5.9 l 6.2,-1.9 v 2.3 c 0,2.2 0.3,2.3 11.8,2.9 6.4,0.4 17.1,1.1 23.7,1.7 8.2,0.6 12.1,0.6 12.3,-0.1 0.5,-1.3 7.2,-1.3 7.2,0 0,1.9 10.3,1.1 13.5,-1 1.7,-1.1 4,-2 5.3,-2 1.2,0 2.2,-0.4 2.2,-1 0,-0.5 1.1,-1 2.5,-1 1.5,0 2.5,-0.6 2.5,-1.5 0,-1.4 1.4,-2 6.5,-2.7 1.2,-0.2 2.1,-1.2 2.3,-2.6 0.3,-1.6 1,-2.2 2.8,-2.2 1.3,0 2.4,-0.4 2.4,-1 0,-0.5 1.8,-1 4,-1 4.8,0 5.6,2.5 1.1,3.5 -1.6,0.3 -3.6,1.6 -4.4,2.9 -0.8,1.2 -5.5,4.5 -10.4,7.4 -4.8,2.8 -12.8,7.8 -17.7,11.1 -4.8,3.4 -10.8,7 -13.2,8 -2.4,1.1 -4.5,2.6 -4.6,3.3 -0.2,2.5 -0.5,3.4 -2.7,8 -1.3,2.9 -1.8,5.3 -1.4,6.6 1.3,3.2 6.6,9.2 8.2,9.2 2,0.1 5.1,2.4 5.1,3.8 0,0.6 1.5,1.4 3.3,1.7 3.7,0.8 9.7,4.2 9.7,5.6 0,0.9 -4.4,0.9 -17.5,0.2 z"
       id="path80"
       style="fill:url(#linearGradient937)" />
    <path
       fill="url(#lg4)"
       d="m 1478.5,325.9 c -24,-1.9 -64.6,-7.9 -80.6,-11.8 -6.3,-1.6 -6.8,-1.9 -3.6,-2 2,-0.1 3.7,-0.5 3.7,-1.1 0,-0.6 -3.3,-1 -7.8,-1 -6.8,0 -8.3,-0.3 -11.2,-2.5 -2.6,-1.9 -4.6,-2.5 -8.6,-2.5 -5.2,0 -13.5,-2.9 -21.1,-7.3 -5.5,-3.2 -3.1,-4 10.3,-3.4 6.7,0.2 12.6,0.1 13.1,-0.3 0.6,-0.7 39.9,-2.5 64.5,-3.1 l 4.3,-0.1 -5,-1.2 -5,-1.1 -0.3,-26.3 C 1431,236.5 1431,236 1433,236 c 1.1,0 2,0.6 2,1.3 0,0.8 1.8,1.2 5.5,1.2 3,0 5.5,-0.3 5.5,-0.7 0,-1.2 7.8,-0.9 8.2,0.2 0.4,1.4 14.1,2.7 37.6,3.5 19.1,0.7 19.2,0.7 19.2,-1.4 0,-1.4 0.6,-2.1 1.9,-2.1 1.9,0 1.9,0.8 1.4,24.5 l -0.6,24.5 h 3.9 c 17.6,0 44.7,-3.4 61.7,-7.6 24.3,-6.1 34.8,-13 39.7,-26.2 1.1,-2.9 3,-6.6 4.2,-8.2 2,-2.8 2,-3 0.4,-5.4 -1.6,-2.6 -1.6,-2.6 1.3,-2.6 1.7,0 3.1,0.6 3.5,1.6 0.9,2.3 0.7,6.7 -0.4,8.4 -0.8,1.3 0.9,1.6 12.8,2.1 67.7,3.1 70.2,3.1 70.2,-0.2 0,-1.2 0.7,-1.9 2,-1.9 2.6,0 2.5,1.9 -0.3,10 -4.2,11.8 -12.8,22.5 -25.7,31.9 -8.8,6.5 -10.2,7.2 -16.6,7.5 -5.6,0.3 -7.7,1.7 -6.7,4.2 0.6,1.6 -2.8,3.3 -14.1,7.3 -27.1,9.6 -59.1,15.5 -97.4,18.1 -17.9,1.2 -57.8,1.1 -73.7,-0.1 z"
       id="path82"
       style="fill:url(#linearGradient939)" />
    <path
       fill="url(#lg0)"
       d="m 1051,323 c -0.5,-0.9 -1.4,-4.4 -2,-7.9 -0.9,-5.2 -0.9,-6.6 0.2,-7.7 0.7,-0.7 8.3,-3.6 16.8,-6.4 28.4,-9.4 37,-16.4 40,-32.1 1.1,-5.7 1.4,-43.8 0.4,-48.9 -0.5,-2.2 -1.7,-3.9 -4,-5.2 -4.3,-2.6 -4.3,-3.8 0.1,-3.8 1.9,0 3.5,0.5 3.5,1 0,0.6 0.9,1 2,1 1.5,0 2,0.7 2,2.9 0,1.6 0.7,3.7 1.6,4.5 1.5,1.6 3.3,1.8 17.9,2.2 3.9,0.1 17.3,0.7 29.8,1.2 21.8,1.1 22.9,1 24.7,-0.8 2.2,-2.2 3.8,-9 2.1,-9 -0.6,0 -1.1,-1.7 -1.1,-4 0,-3.8 0.1,-4 3.1,-4 h 3.2 l -0.7,10.7 c -0.4,6 -1.1,11.2 -1.6,11.7 -0.4,0.4 -0.1,2.8 0.7,5.2 1.2,3.5 1.4,7.9 0.9,22.1 -0.3,9.8 -0.6,18.8 -0.7,20.1 0,1.3 0.6,3.1 1.5,4.1 0.9,1 1.6,2.4 1.6,3.2 0,3 5,11.9 8.9,15.8 2.2,2.2 6.4,5.2 9.2,6.6 l 5.1,2.7 -0.5,4.1 c -0.3,2.3 -1.2,6 -1.9,8.2 l -1.3,4 h -80.4 c -71,0 -80.4,-0.2 -81.1,-1.5 z"
       id="path84"
       style="fill:url(#linearGradient941)" />
    <path
       d="m 2691,69 c 1.2,-0.9 0.7,-1 -2.1,-0.6 -1.9,0.4 -3.9,0.3 -4.3,-0.1 -0.3,-0.4 -1.4,-0.8 -2.2,-0.9 -0.9,-0.1 -2.3,-1.2 -3.1,-2.3 -0.8,-1.2 -2.1,-2.1 -2.9,-2.1 -0.8,0 -1.3,-0.4 -0.9,-0.9 0.3,-0.5 -0.4,-1.6 -1.6,-2.5 -1.2,-0.8 -1.8,-1.9 -1.5,-2.4 0.3,-0.5 -0.1,-1.5 -0.9,-2.2 -1.2,-1 -1.5,-2.9 -1.1,-8.4 0.2,-4 0.8,-7.2 1.5,-7.4 0.6,-0.2 2.9,-3 5.1,-6.1 3.3,-4.9 4.6,-6 8.4,-7.1 9.5,-2.6 18.2,1.4 22.5,10.5 3.8,8.1 2.2,17.3 -4.3,24 -2,2 -3.6,4.1 -3.6,4.6 0,1 -4.3,3.3 -8,4.3 -2,0.6 -2.2,0.5 -1,-0.4 z m 6.2,-8.3 c 3.1,-1.5 5.9,-4.3 5.6,-5.4 -0.1,-0.4 0.1,-2.9 0.5,-5.4 0.9,-5.1 -1.3,-12.3 -3.9,-13.3 -0.8,-0.3 -1.4,-1.2 -1.4,-2.1 0,-0.8 -0.6,-1.6 -1.2,-1.6 -1.9,-0.2 -3,-0.4 -6.1,-1.3 -1.6,-0.5 -3.2,-0.4 -4,0.2 -0.6,0.6 -2.3,1.2 -3.6,1.4 -4.9,0.7 -8.7,12.8 -5.8,18.4 1.8,3.4 5.5,7.6 8.3,9.2 2.6,1.5 8.6,1.5 11.6,-0.1 z"
       id="path86" />
  </g>
  <g
     fill="#ffe5ad"
     id="g108">
    <path
       fill="url(#lg0)"
       d="m 1205.5,709.9 c -47.2,-25.7 -82.6,-51.5 -118.4,-86.4 -35.8,-34.9 -67,-72 -91.8,-109 -10.9,-16.4 -29.5,-49.3 -29.2,-51.8 0.3,-2.5 -0.1,-3.8 -1.1,-3.2 -0.6,0.4 -1,-0.7 -1,-2.5 v -3.1 l 8.4,0.4 c 4.7,0.3 8.8,0.7 9.3,1 0.4,0.2 5.3,0.5 10.8,0.5 14.6,0.1 28.9,1.3 29.7,2.6 0.4,0.6 0.8,2.1 0.8,3.4 0,1.2 0.6,2.2 1.4,2.2 0.8,0 1.8,1 2.2,2.3 0.3,1.2 2.1,4.2 3.9,6.7 4.2,5.8 7.5,13.4 7.5,17.2 0,1.6 1.1,4.4 2.4,6.1 1.7,2.2 2.3,4 1.9,5.8 -0.4,2.1 0.3,3.2 3.5,5.8 2.3,1.8 5.7,6.1 7.8,9.9 29,52.4 63.8,100.4 101.6,140 8.8,9.2 18.2,18.5 20.8,20.7 2.7,2.2 13.2,11.1 23.4,19.7 24.9,21.2 25.4,22.3 6.1,11.7 z"
       id="path90"
       style="fill:url(#linearGradient943)" />
    <path
       fill="url(#lg3)"
       d="m 2666,305.5 c 0,-0.6 -5.3,-1 -13.3,-1 -7.2,0 -15.4,-0.3 -18.2,-0.6 -2.7,-0.4 -12.9,-1.1 -22.5,-1.5 -9.6,-0.4 -20.4,-0.9 -24,-1.1 -3.6,-0.2 -8.8,-0.5 -11.6,-0.6 l -5.2,-0.2 1.8,-2.5 c 1,-1.4 4.2,-5.2 7,-8.5 13.3,-15.6 24.3,-38.7 28,-59 0.7,-3.8 2.4,-9.1 3.9,-11.7 2.5,-4.6 2.5,-4.9 0.9,-8 -1.2,-2.4 -1.8,-7.2 -2.2,-16.8 -0.3,-7.4 -1.5,-17.9 -2.6,-23.3 -2.3,-11.7 -8.9,-31.6 -13.5,-40.8 -2.6,-5.2 -3.2,-7.3 -2.6,-9.5 0.6,-2.5 0.3,-3 -3,-4.8 -2.1,-1.2 -5.8,-4.8 -8.2,-8.2 -6.2,-8.5 -15.8,-18.5 -23.6,-24.7 -3.6,-2.8 -7.2,-6 -7.9,-6.9 -0.7,-1 -1.9,-1.8 -2.5,-1.8 -1.5,0 -16.1,-7.3 -18.3,-9.1 -0.8,-0.7 -1.3,-2.1 -1.1,-3.1 0.3,-1 0.4,-1.8 0.2,-1.8 -0.2,0 -2.6,0.5 -5.2,1 -3.8,0.9 -6.2,0.7 -10.8,-0.5 -3.3,-0.8 -7.8,-1.5 -10.1,-1.5 -2.7,0 -5.1,-0.7 -6.8,-2.1 l -2.6,-2.1 -3.4,2.2 c -2.7,1.6 -4.8,2 -9.4,1.8 -3.3,-0.1 -6.6,0.3 -7.3,0.9 -0.8,0.6 -3.4,1.6 -5.9,2.3 -13.6,3.6 -29.3,13.5 -41.2,25.9 -16.7,17.2 -27.1,37.7 -32.3,63.1 -0.9,4.7 -2.4,10.4 -3.2,12.7 -1.3,3.5 -1.3,4.8 -0.4,7.2 0.7,1.6 1,4.3 0.6,6.2 -0.9,4.8 1.1,26.3 3.6,37.4 3.8,17.7 9.9,33.4 18.6,47.9 5.4,9.1 6.5,12.6 3.8,12.6 -1.6,0 -2,1.5 -0.7,2.4 0.5,0.3 2.2,0.7 3.8,1 1.6,0.3 3.4,1.2 4,2.1 0.6,0.8 1.5,1.5 2,1.6 0.5,0 2.4,1.8 4.1,3.8 3.2,3.7 3.2,3.8 1.3,5.8 -1.6,1.8 -2.5,2 -5.8,1.2 -2.1,-0.4 -7,-0.8 -10.8,-0.8 -3.8,0.1 -10.9,-0.1 -15.9,-0.5 -4.9,-0.3 -13.3,-0.8 -18.5,-1.1 -5.2,-0.3 -11.3,-0.7 -13.5,-0.9 -2.2,-0.3 -11.4,-0.8 -20.5,-1.1 -9.1,-0.4 -17.3,-1.1 -18.3,-1.7 -1,-0.5 -2.5,-0.7 -3.3,-0.4 -0.8,0.3 -1.4,-0.1 -1.4,-0.9 0,-0.8 -0.4,-1.5 -1,-1.5 -0.5,0 -1,-0.5 -1,-1.1 0,-0.7 -0.6,-1.7 -1.4,-2.3 -2,-1.5 -9.9,-17.7 -13.7,-27.8 -2.4,-6.6 -3,-9.4 -2.6,-13.7 0.3,-4.8 0,-6 -2.5,-9.6 -2.5,-3.6 -3.1,-5.8 -4.6,-17.2 -1.5,-12 -1.5,-13.8 -0.1,-21.2 1.3,-6.5 1.3,-8.5 0.4,-9.8 -1.4,-1.9 -1.2,-5.4 1.6,-20.7 4.5,-24.4 17.1,-52.9 32.8,-74.1 4.9,-6.6 8.8,-12.2 8.6,-12.4 -0.8,-0.7 -14,6.1 -31.8,16.3 -19.3,11.1 -23.7,13.2 -23.7,11.5 0,-3.5 14.6,-21.7 27,-33.7 4.9,-4.7 24,-19.4 30.6,-23.5 23.1,-14.4 48.4,-24.9 77.4,-32.2 64.5,-16.1 123.5,-11.7 175.6,13.1 13.4,6.4 32.4,17.8 34.9,21.1 0.6,0.7 2.5,2.1 4.2,3 9.5,5.2 34.1,30.2 44.1,44.9 13.1,19.4 25.1,45.1 23.6,50.9 -0.4,1.5 0.1,3.3 1.5,5.2 2.9,3.9 6.4,23.5 4.8,27 -0.8,1.8 -0.8,2.9 0.1,4.4 1.9,3 1.5,23.7 -0.8,37.4 -4.1,25.3 -15.5,54.6 -25.6,65.8 -1.9,2 -3.4,4.5 -3.4,5.5 0,2.5 -6.2,9.2 -8.5,9.2 -1.5,0 -1.7,0.2 -0.6,0.9 1.1,0.7 1.1,1.3 -0.3,3.2 -0.9,1.3 -1.6,1.9 -1.6,1.4 z"
       id="path92"
       style="fill:url(#linearGradient945)" />
    <path
       fill="url(#lg5)"
       d="m 2097,275.9 c -8,-0.4 -17.9,-1 -22,-1.3 -4.1,-0.3 -14.7,-0.8 -23.5,-1.2 -13.7,-0.5 -19.2,-1.4 -17.4,-2.7 1.7,-1.2 20.3,-6.7 22.8,-6.7 1.7,0 3.1,-0.4 3.1,-0.8 0,-1.6 14.6,-7.6 20.9,-8.7 2.2,-0.4 4.5,-1.3 5.2,-2.1 0.6,-0.8 1.8,-1.4 2.7,-1.4 0.8,0 2.9,-0.8 4.6,-1.9 3.4,-2.1 32,-14.2 37.7,-16 1.9,-0.6 4.5,-1.1 5.8,-1.1 2.9,0 17.7,5.8 19.6,7.7 0.9,0.8 3,1.7 4.7,2 4.5,0.7 12.8,5 12.8,6.7 0,1.8 -16.6,9.7 -21.8,10.4 -2.3,0.2 -4.5,0.9 -4.8,1.3 -0.3,0.5 -1.5,0.9 -2.7,0.9 -1.8,0 -1.9,0.2 -0.7,1 1.3,0.9 1.1,1.3 -1,3 -1.4,1.1 -3.3,1.7 -4.2,1.4 -2.2,-0.7 -4.3,0.6 -4.3,2.6 0,1 -0.8,1.4 -2.7,1.2 -2.1,-0.2 -2.6,0.1 -2.2,1.2 0.3,0.8 0.1,1.7 -0.5,2.1 -0.6,0.3 -1.1,0.1 -1.1,-0.4 0,-1.8 -3,-1.3 -6.9,1.1 -4.2,2.6 -4.8,2.7 -24.1,1.7 z"
       id="path94"
       style="fill:url(#linearGradient947)" />
    <path
       fill="url(#lg5)"
       d="m 1960.5,268.8 c -3.8,-0.4 -12.6,-0.9 -19.5,-1.1 -34.8,-1.3 -40.8,-1.6 -43.2,-2.2 -2.4,-0.6 -2.6,-0.9 -1.6,-3.1 0.9,-1.9 0.9,-3.3 0,-5.8 -1.5,-4 -1.5,-7.6 -0.2,-7.6 1.5,0 1.2,-2.1 -0.4,-3.4 -1.1,-0.9 -1.4,-7.3 -1.6,-35.1 -0.1,-18.7 -0.2,-35.1 -0.1,-36.5 0,-1.4 -0.1,-12.6 -0.2,-25 -0.1,-12.4 0.2,-23.9 0.7,-25.6 0.6,-2.5 0.4,-3.5 -1.2,-5 -1.2,-1.1 -2.2,-3.6 -2.5,-5.9 -0.8,-8.2 -8.9,-18.3 -17,-21.4 l -5.2,-1.9 0.4,-7.9 c 0.5,-12.7 -2.4,-11.6 31.4,-10.8 16.1,0.4 29.4,0.9 29.7,1 0.3,0.2 7.7,0 16.5,-0.4 9.5,-0.4 16.9,-0.3 18.2,0.3 1.5,0.6 2.7,0.5 3.6,-0.2 1.7,-1.4 30.7,-2.6 32.6,-1.4 1.3,1 4.4,16.9 3.5,18.3 -0.2,0.4 -1.8,1.1 -3.5,1.4 -4.9,1.1 -9.2,4.1 -13.9,9.6 -2.7,3.2 -4.4,6.3 -4.6,8.3 -0.1,1.7 -0.8,5.5 -1.3,8.5 -0.6,2.9 -1.1,7.6 -1.1,10.2 0,2.7 -0.7,6.7 -1.6,8.9 -1.3,3.1 -1.4,4.7 -0.6,6.4 0.6,1.5 1.1,16.2 1.2,40.1 0.1,34.2 -0.1,37.9 -1.6,39.6 -1.5,1.6 -1.5,2.5 -0.6,5.8 1.5,4.9 1.5,12.6 0.1,14.9 -0.9,1.4 -0.8,3.3 0.3,7.8 1.3,4.9 1.3,6 0.2,6.2 -1.9,0.5 -1.8,3.2 0.1,3.2 1.8,0 2,3.6 0.3,4.3 -0.7,0.3 -0.4,0.6 0.7,0.6 1.6,0.1 1.7,0.3 0.5,1.1 -1.2,0.8 -1.2,1.1 0.3,2.8 1.6,1.8 1.5,1.8 -5.1,1.8 -3.7,-0.1 -9.8,-0.4 -13.7,-0.8 z"
       id="path96"
       style="fill:url(#linearGradient949)" />
    <path
       fill="url(#lg4)"
       d="m 1707.4,256 c -1.1,-0.4 -4.5,-0.8 -7.5,-0.9 -14.1,-0.1 -40.6,-1.2 -41.9,-1.7 -0.7,-0.3 -8.8,-0.7 -18,-1 -9.1,-0.3 -17,-0.7 -17.7,-0.9 -1.5,-0.5 -1.1,-2.9 0.8,-5.2 2.9,-3.3 2.9,-4.1 0.6,-7 -1.3,-1.5 -3.1,-5.3 -4,-8.4 -3.4,-11.2 -12.2,-21.7 -25.7,-30.6 -3,-2.1 -6.6,-5 -8,-6.5 -1.5,-1.7 -3.5,-2.8 -5.1,-2.8 -1.5,0 -6.1,-1.6 -10.4,-3.5 -14.1,-6.5 -39.8,-14.4 -50.5,-15.6 -5,-0.6 -5,-0.4 -5,25.7 0,21 -0.2,24.4 -1.5,24.4 -2,0 -2,5.6 -0.1,6.3 1.2,0.5 1.4,2.5 1.3,9.6 -0.1,4.9 -0.4,8.6 -0.7,8.2 -0.3,-0.5 -10.6,-1.2 -23,-1.6 -22.8,-0.7 -27.6,-1 -41,-2.1 -4.1,-0.3 -9.9,-0.7 -12.9,-0.8 -4.6,-0.1 -5.4,-0.4 -5.7,-2.1 -0.2,-1.1 -0.4,-16.5 -0.4,-34.1 -0.1,-27.6 0.1,-32.6 1.4,-35.2 1.5,-2.9 1.5,-3.2 -0.1,-4.1 -1.5,-0.8 -1.6,-1.4 -0.7,-3.9 0.9,-2.2 0.8,-3.5 -0.2,-5.3 -1,-1.7 -1.3,-7.3 -1.4,-19.9 0,-19.4 -1.3,-27.1 -5.7,-35.3 -3.3,-6 -8.2,-10.2 -14.5,-12.3 l -4.8,-1.6 v -5.6 c 0,-6.9 1.5,-12.8 3.5,-13.5 0.8,-0.4 8.3,-0.2 16.7,0.3 16.3,1 58.6,2.5 65.3,2.4 2.2,0 11.2,-0.3 20,-0.7 36.2,-1.5 84.1,-1.9 92.8,-0.7 17.2,2.1 33.8,9 48.9,20.2 4.3,3.2 7.8,6.5 7.8,7.3 0,0.8 0.4,1.5 0.9,1.5 0.5,0 4.2,2.5 8.3,5.6 8.8,6.7 16.3,10.4 21.5,10.4 5.5,0 17.6,1.9 18.6,2.9 1.1,1.1 -1.4,2.6 -18.4,11.6 -8.9,4.7 -14.9,7.3 -16,7 -2.2,-0.7 -9.9,3.1 -9.9,4.9 0,1.2 -15.8,10.3 -26.2,15.2 -3.6,1.7 -5,3.4 -2.7,3.4 2.1,0 23.6,10.7 31.9,16 12.5,7.9 18.9,13 21.6,17.2 1.3,2.1 3.1,3.8 3.8,3.8 1.8,0 8.2,8.2 10.5,13.7 0.6,1.2 1.9,2.4 2.9,2.7 2.4,0.8 5.9,8.6 7.8,17.5 1.7,8 1.7,13.1 0.1,19.1 -0.9,3.5 -1.6,4.5 -2.9,4.2 -2,-0.4 -2.5,1.4 -0.5,2.1 0.8,0.4 0.7,0.5 -0.3,0.6 -0.8,0 -2.4,-0.4 -3.6,-0.9 z M 1552.5,147.3 c 18.4,-9.3 33.5,-17.3 33.5,-17.9 0,-1.6 -9.4,-8.7 -15.5,-11.7 -10.2,-5.1 -15.8,-6.2 -32.5,-6.2 -11.8,0 -16.2,0.4 -18.5,1.5 l -3,1.5 -0.3,24.8 c -0.2,21.5 0,24.7 1.3,24.7 0.8,0 16.6,-7.5 35,-16.7 z"
       id="path98"
       style="fill:url(#linearGradient951)" />
    <path
       fill="url(#lg0)"
       d="m 1172.7,228.4 c -0.5,-0.5 -13.9,-1.1 -29.7,-1.5 -4.7,-0.1 -9.1,-0.6 -9.7,-1.1 -0.9,-0.7 -1.3,-0.7 -1.3,0.1 0,0.8 -1.1,1 -3.2,0.6 -1.8,-0.3 -6.5,-0.7 -10.3,-0.9 -10.8,-0.7 -11.3,-0.9 -11.4,-7 -0.1,-1.6 -0.4,-2.6 -0.8,-2.3 -0.3,0.4 -1.3,0.1 -2.2,-0.6 -0.9,-0.8 -6.1,-3.3 -11.6,-5.7 -5.5,-2.4 -10.5,-5 -11.1,-5.7 -0.6,-0.7 -1.3,-1 -1.6,-0.8 -0.8,0.8 -14.8,-4.6 -14.8,-5.7 0,-0.5 -0.4,-0.7 -0.8,-0.4 -1.3,0.8 -8.2,-1.3 -8.2,-2.5 0,-0.6 -0.4,-0.8 -0.9,-0.4 -0.5,0.3 -7.6,-1.6 -15.6,-4.2 -10.7,-3.4 -15.2,-4.4 -16.3,-3.7 -0.9,0.6 -2.8,3.9 -4.2,7.3 -1.5,3.5 -4,7.3 -5.5,8.5 -2.3,1.8 -2.7,2.8 -2.3,5.4 0.4,2.6 0.1,3.2 -1.4,3.2 -1.4,0 -1.8,0.5 -1.3,1.9 0.7,2.4 -0.4,5.1 -2.2,5.1 -0.8,0 -1.1,0.5 -0.7,1.1 0.5,0.9 -0.6,1 -4.2,0.5 -2.7,-0.4 -5.6,-0.7 -6.4,-0.7 -0.8,0 -9.4,-0.5 -19,-0.9 -23.2,-1.2 -39,-2 -41.7,-2 -2,0 -2.2,-0.4 -1.9,-5.2 0.8,-10.8 9.2,-33.4 13.9,-36.9 0.4,-0.3 0.7,-2.6 0.6,-5.1 -0.2,-3.5 0.8,-6.7 4.4,-14.4 2.6,-5.4 5.4,-10.7 6.3,-11.8 1,-1.1 2.5,-4.1 3.5,-6.8 2,-5.5 5.7,-11.8 6.9,-11.8 0.4,0 1.9,-2.1 3.1,-4.7 1.3,-2.7 4,-7.5 6.1,-10.7 2.1,-3.3 3.8,-6.4 3.8,-7.1 0,-1.7 -3.7,-4.9 -9.5,-8.2 -4.5,-2.6 -9,-4.7 -26.2,-12.3 -2.9,-1.3 -5.3,-2.6 -5.3,-3 0,-0.4 -2.4,-1.2 -5.4,-1.9 -3,-0.7 -6,-1.9 -6.6,-2.7 -0.7,-0.8 -3,-1.4 -5.1,-1.4 -2.1,0 -4,-0.4 -4.3,-0.9 -0.3,-0.4 -2.6,-1.4 -5.1,-2.1 -2.5,-0.7 -4.8,-1.7 -5.1,-2.1 -0.7,-1.2 15.7,-1.1 31.2,0.2 14.9,1.2 22.6,1.5 61.4,2.3 26,0.5 31.3,1 42,3.6 2.2,0.6 5.9,0.4 10.3,-0.4 5.3,-1 14,-1.1 41.5,-0.3 19.1,0.5 37.4,0.8 40.7,0.6 5.3,-0.2 14.3,-0.2 23.8,0.1 1.7,0.1 13.8,-0.5 26.7,-1.2 12.9,-0.8 24.5,-1.2 25.8,-1 2.8,0.5 3.6,3.5 3.7,12.7 v 6.9 l -4.1,1.6 c -2.2,0.8 -5.3,2.3 -6.8,3.3 -3.7,2.5 -8.3,10 -10.2,16.7 -0.9,3 -2.2,6.7 -3,8.1 -0.9,1.8 -1.1,4.6 -0.7,9.6 0.3,4.3 0.1,9.1 -0.7,12.4 -1,3.9 -1,5.4 -0.1,5.7 1.3,0.4 1.5,3.8 0.1,4.7 -0.6,0.4 -0.6,1.5 0,3.1 0.6,1.4 1,14 1,28 0,21.9 -0.2,25.4 -1.5,25.4 -0.8,0 -1.5,0.5 -1.5,1 0,0.6 0.4,1 0.9,1 1.5,0 2,6.8 0.8,10.2 -2,5.5 -4.5,7.2 -10.8,7.4 -3.2,0.1 -5.9,0 -6.2,-0.2 z m -97.2,-62.9 c 8.3,-0.3 18.5,-0.8 22.8,-1.2 l 7.7,-0.6 v -14.2 c 0,-7.8 -0.3,-19.7 -0.7,-26.3 -0.7,-14.2 -0.6,-14.1 -10.6,-9.1 -12.4,6.3 -31.8,21 -42.9,32.5 -5.6,5.9 -15.8,18.6 -15.8,19.7 0,0.5 5.5,0.6 12.3,0.3 6.7,-0.3 19,-0.8 27.2,-1.1 z"
       id="path100"
       style="fill:url(#linearGradient953)" />
    <path
       fill="url(#lg2)"
       d="m 706.4,204.1 c -0.2,-0.2 -4.3,-0.5 -9.1,-0.6 -8.1,-0.2 -25.7,-1.1 -39.3,-2 -3,-0.2 -9.5,-0.4 -14.3,-0.4 -8.1,-0.1 -8.8,-0.2 -8.2,-2 1,-3.2 1.5,-24.4 0.6,-25.5 -2.1,-2.7 -3.1,-13.1 -3.2,-35.6 l -0.1,-24.1 -2.9,-5.9 c -1.6,-3.2 -2.9,-6.4 -2.9,-7 0,-1.9 -6.3,-7.1 -11.6,-9.5 -4.6,-2.1 -5.2,-2.7 -5.7,-6.2 -1.3,-7.8 -0.6,-14.8 1.7,-15.6 0.7,-0.3 7.3,-0.1 14.7,0.4 18.8,1.2 74.8,1.1 90.4,-0.2 7.2,-0.5 16.2,-0.9 20,-0.7 l 7,0.3 v 4.2 c 0,2.3 0.3,4.5 0.8,4.9 0.4,0.4 0.7,2.9 0.7,5.5 v 4.8 l -5.4,1.5 c -8.8,2.6 -14.9,10.9 -17.5,23.7 -1.4,6.8 -1.9,20.2 -2,49.7 -0.1,19.9 -0.3,23.2 -1.6,23.2 -1.2,0 -1.5,1.3 -1.5,6 0,3.3 0.4,6 0.9,6 1.3,0 2.1,3.9 0.9,4.7 -1.2,0.7 -11.7,1.1 -12.4,0.4 z"
       id="path102"
       style="fill:url(#linearGradient955)" />
    <path
       fill="url(#lg1)"
       d="m 428.4,190 c -1.2,-0.5 -5.3,-0.8 -9,-0.8 -3.8,0 -9.6,-0.2 -12.9,-0.6 -3.3,-0.3 -13.4,-0.8 -22.5,-1.1 -9.1,-0.3 -18.7,-0.8 -21.5,-1.1 -2.7,-0.2 -9,-0.6 -14,-0.8 -10.8,-0.4 -10.5,-0.4 -10.5,-1.5 0,-0.5 -0.5,-2.2 -1.1,-3.8 -0.7,-1.5 -1.3,-4.7 -1.4,-7.1 -0.2,-2.9 -1,-5 -2.4,-6.3 -1.1,-1.1 -2.1,-3 -2.1,-4.2 0,-1.2 -0.9,-4.4 -1.9,-7.2 -1,-2.7 -2.7,-8.6 -3.6,-13 -1,-4.4 -2.1,-8.4 -2.6,-8.9 -0.5,-0.6 -0.9,-1.8 -0.9,-2.7 0,-0.9 -0.7,-2.2 -1.5,-2.9 -0.8,-0.7 -1.5,-2.4 -1.5,-3.8 0,-2.2 -3.1,-7.3 -6.7,-11 -0.7,-0.7 -1.3,-1.9 -1.3,-2.7 0,-0.7 -1.5,-2 -3.4,-2.9 -2.1,-1 -3.8,-2.8 -4.6,-4.8 -1.7,-4.3 -3.9,-6.8 -5.9,-6.8 -0.9,0 -3.4,-1.7 -5.6,-3.6 -2.2,-2 -5.2,-4.7 -6.7,-6 -1.6,-1.3 -2.8,-3.2 -2.8,-4.2 0,-3.5 -9.4,-8.9 -11,-6.2 -1,1.6 -11.1,-3.5 -10.4,-5.3 0.3,-0.8 -0.7,-1.9 -2.3,-2.7 -1.5,-0.8 -3.9,-2.2 -5.2,-3.2 -2.6,-1.9 -7.1,-2.4 -7.1,-0.8 0,1.1 -1.2,0.9 -12.2,-1.7 -6,-1.5 -6.6,-1.8 -6.2,-4 0.4,-2.1 0.1,-2.3 -4.3,-2.3 -4.2,0 -7.4,-0.6 -13.2,-2.1 -0.7,-0.2 -1.6,0.2 -1.8,0.9 -0.3,0.7 0.4,1.2 1.6,1.2 1.1,0 2.3,0.5 2.6,1.1 0.5,0.7 -2,0.8 -8.2,0.3 -6.7,-0.5 -9.2,-1.1 -10.6,-2.5 -2.2,-2.3 -1.9,-2.3 -4.7,0.1 -1.7,1.4 -3.7,2 -7.5,2 -9.7,0 -13.5,2.7 -13.5,9.6 0,1.3 -0.5,2.4 -1.1,2.4 -0.5,0 -0.8,0.4 -0.5,0.9 0.4,0.5 0.2,2.1 -0.4,3.6 -0.8,2 -0.7,3.1 0.2,4.3 1.9,2.2 1.8,35 -0.1,41.6 -1.3,4.4 -1.3,5 0.2,6.1 1.4,1 1.4,1.7 0.5,4.9 -0.8,2.5 -0.8,4 -0.1,4.7 0.6,0.6 0.7,2.6 0.2,5.2 -0.4,2.3 -0.5,8.8 -0.2,14.5 0.5,9.1 0.4,10.2 -1,10.2 -2.4,0 -2.3,5.7 0,6.2 1,0.2 1.7,1.3 1.7,3 0.1,1.4 -0.2,2.4 -0.7,2.1 -0.4,-0.2 -6.9,-0.6 -14.5,-0.9 -7.5,-0.2 -17.7,-0.7 -22.7,-1.1 -4.9,-0.5 -10.8,-0.6 -13,-0.3 -2.2,0.3 -5.1,0.2 -6.5,-0.3 -2.1,-0.7 -14.3,-1.3 -31.2,-1.6 L 74,172 v -8.3 c 0,-4.8 -0.5,-8.8 -1.1,-9.4 -1.1,-1.1 -1,-3.8 0.7,-17.7 0.4,-2.9 0.2,-5.7 -0.6,-7 C 72.2,128 72,123.2 72.4,113.4 72.7,105.8 72.9,98.8 72.9,98 73,95.8 71.3,75.5 70.5,69.2 70,64.5 69.2,63.2 64.5,58.2 60.7,54.2 59,51.7 59,49.8 59,47.5 58.5,47 55.5,46.4 53.5,46.1 51.6,46 51.3,46.3 51,46.7 49.9,46.5 48.9,45.9 47.9,45.4 45.1,44.6 42.8,44.1 33.6,42.3 18.4,37.8 16.9,36.4 16.1,35.6 14.1,35 12.6,35 10.6,35 9.7,34.4 9.3,32.9 9,31.8 7.6,30.4 6.2,29.9 3.9,29 3.8,28.6 4.4,24.4 c 1,-7.7 2,-8.7 7.8,-8.1 2.7,0.4 5.7,0.2 6.6,-0.2 5.6,-2.9 26.2,-5 55.4,-5.5 C 83.1,10.4 90.8,9.8 92.5,9.1 98,6.9 225.1,5.5 228.3,7.6 c 1.4,0.9 2.9,0.9 5.5,0.2 2.5,-0.7 6.2,-0.7 11.7,0 4.4,0.6 12.5,1.6 18,2.2 11.8,1.2 38.8,6.5 41.8,8.2 1.2,0.6 3.7,1.3 5.6,1.5 1.9,0.2 4.9,1 6.5,1.7 1.7,0.8 6.9,2.4 11.6,3.6 21.6,5.4 62.8,25.5 69.3,33.7 1,1.3 2.2,2.3 2.7,2.3 1.3,0 10.1,6.1 14.3,10 11.6,10.7 22.7,22.2 24.3,25.1 0.9,1.9 3.2,4.9 5,6.7 3.7,3.6 4.6,6.6 1.7,5.4 -2.9,-1.2 -9.7,-5 -11.3,-6.4 -0.9,-0.7 -2.9,-3 -4.4,-5 -2.3,-3.1 -3.5,-3.8 -6.3,-3.8 -2.4,0 -7.2,-2 -14.7,-5.9 -6.1,-3.3 -13.5,-6.9 -16.4,-8 -4.7,-1.9 -5.3,-1.9 -5.9,-0.5 -0.4,1.1 0.9,2.9 4.2,5.7 2.7,2.3 5.3,4.8 5.9,5.5 0.6,0.8 2.1,2.4 3.2,3.5 4.3,4.5 10.4,14.1 11,17.6 0.4,2 1.6,5 2.9,6.6 5.8,7.9 14.6,32.1 15,41 0.1,3.3 0.7,7.1 1.2,8.5 0.9,1.9 0.8,2.7 -0.3,3.6 -1.8,1.4 -1.8,2.4 0.1,2.4 1.8,0 3.3,5.2 1.7,5.8 -1.7,0.5 -1.5,3.2 0.3,3.2 1.1,0 1.5,1.2 1.5,4.5 0,4.8 -1,5.4 -5.6,3.5 z"
       id="path104"
       style="fill:url(#linearGradient957)" />
    <path
       d="m 2689.5,65.3 c -3.5,-0.8 -8.9,-3.5 -10.8,-5.4 -1,-1.1 -1.5,-1.9 -1.2,-1.9 0.4,0 -0.1,-0.7 -0.9,-1.5 -0.9,-0.9 -2.2,-3.8 -3,-6.5 -1.3,-4.2 -1.3,-5.4 0,-9.8 2.7,-9 9.4,-14.4 18.1,-14.5 9.5,-0.1 16.4,7.1 17.1,18 0.7,10.2 -2.2,15.8 -10.3,20.2 -3.9,2.1 -5.2,2.3 -9,1.4 z m 7.3,-4 c 4.2,-1.9 6,-4 8.4,-9.8 3.3,-7.9 1.5,-15.3 -4.9,-20.2 -10.1,-7.7 -24.3,0.8 -24.3,14.7 0,3.9 0.6,5.5 3.6,9.5 3.5,4.6 7.9,7.4 11.7,7.5 1.1,0 3.5,-0.8 5.5,-1.7 z"
       id="path106" />
  </g>
</svg>
