<?xml version="1.0" encoding="UTF-8" standalone="no"?>
<svg
   version="1.0"
   width="1070"
   height="719.63391"
   viewBox="0 0 1070 719.63391"
   preserveAspectRatio="xMidYMid meet"
   id="svg50"
   sodipodi:docname="dragonball.svg"
   inkscape:version="1.1.2 (0a00cf5339, 2022-02-04, custom)"
   xmlns:inkscape="http://www.inkscape.org/namespaces/inkscape"
   xmlns:sodipodi="http://sodipodi.sourceforge.net/DTD/sodipodi-0.dtd"
   xmlns="http://www.w3.org/2000/svg"
   xmlns:svg="http://www.w3.org/2000/svg">
  <defs
     id="defs54" />
  <sodipodi:namedview
     id="namedview52"
     pagecolor="#ffffff"
     bordercolor="#666666"
     borderopacity="1.0"
     inkscape:pageshadow="2"
     inkscape:pageopacity="0.0"
     inkscape:pagecheckerboard="0"
     showgrid="false"
     inkscape:zoom="0.99906542"
     inkscape:cx="535"
     inkscape:cy="360.33676"
     inkscape:window-width="1920"
     inkscape:window-height="1017"
     inkscape:window-x="-8"
     inkscape:window-y="-8"
     inkscape:window-maximized="1"
     inkscape:current-layer="svg50" />
  <g
     fill="#030202"
     id="g8"
     transform="translate(0,-0.19189633)">
    <path
       d="m 116,718.7 c -0.8,-0.8 -9.8,-7 -20,-13.8 C 85.8,698.1 77.3,692.3 77,692 76.7,691.7 69.4,686.8 60.8,681.1 L 45,670.6 V 522.3 374 h 11.5 c 6.3,0 11.5,-0.3 11.5,-0.7 0,-0.5 -3,-2.8 -6.5,-5.2 -3.6,-2.4 -7.3,-5 -8.2,-5.8 -1,-0.8 -6.5,-4.8 -12.3,-8.9 -5.8,-4.2 -11.4,-8.2 -12.5,-9 -1.1,-0.8 -8,-5.8 -15.3,-11 L 0,323.8 0.2,172.6 0.5,21.5 H 44 87.5 l 10,2.9 c 17.1,5 29.5,12.2 43.8,25.6 3.7,3.5 7.1,5.9 7.5,5.5 0.4,-0.4 0.6,-9.2 0.4,-19.7 l -0.2,-18.9 51.2,0.3 c 50.6,0.4 51.4,0.4 58.3,2.7 22.2,7.4 48.6,25.9 67.2,47 4,4.6 8.5,10.3 10.1,12.7 1.5,2.4 3.2,4.3 3.8,4.4 0.6,0 1.8,-2.4 2.7,-5.3 0.8,-2.8 4.3,-13.1 7.6,-22.7 3.4,-9.6 7.8,-22.2 9.7,-28 2,-5.8 4.1,-11.1 4.6,-11.8 0.8,-1 7.9,-1.2 31.2,-1.2 l 30.2,0.1 17,16.1 c 9.3,8.9 24.6,23.5 34,32.5 9.4,9 18.3,17.2 19.6,18.3 l 2.5,1.9 0.6,-6.7 C 500.8,61.1 504,50.1 510.5,38.5 519.1,23.1 532.2,13.4 551.9,7.8 563,4.6 589,4.6 600.5,7.7 c 13.8,3.8 26.6,11 37.5,21.2 l 5.4,5.1 5.1,-5.3 C 664.2,12.1 683.8,3.4 709,1.6 c 3.6,-0.2 7.6,-0.8 8.8,-1.2 1.3,-0.4 4.7,-0.2 7.5,0.4 2.9,0.6 8.2,1.5 11.8,2.1 17.4,2.5 38.4,15.1 51.1,30.7 3.6,4.5 5.4,6 6,5.2 0.4,-0.7 0.6,-7 0.4,-14 L 794.2,12 h 30.6 30.6 l 8,7.8 c 25.4,24.4 45.9,43.7 46.7,44 0.5,0.2 0.9,-10.2 0.9,-25.6 V 12.3 l 6.8,-0.6 C 921.5,11.3 934.6,11 947,11 h 22.5 l 6.5,5.6 c 8,7 18.5,16.3 26,22.9 12.5,11.2 20.9,18.7 23.1,20.6 1.3,1.1 4,3.5 5.9,5.2 1.9,1.8 6.8,6.1 10.8,9.6 l 7.2,6.3 V 226.6 372 h -25 c -22.5,0 -25.3,-0.2 -26.9,-1.7 -1.8,-1.9 -19.6,-22.9 -24.6,-29.3 -10,-12.6 -41.9,-50 -42.6,-50 -0.5,0 -0.9,17.3 -0.9,40.5 V 372 h -28.1 -28 l 0.2,-12.6 c 0.1,-6.9 -0.2,-12.8 -0.5,-13.1 -0.3,-0.4 -2.2,1.2 -4.2,3.5 -5.4,6.4 -19,16.6 -28.5,21.4 -10.8,5.5 -12.7,6.3 -22.9,8.9 -13.1,3.3 -35.1,1.9 -46.5,-3.1 -1.1,-0.5 -3.1,-1.2 -4.5,-1.6 -3.3,-0.9 -18.4,-8.4 -23.5,-11.6 -2.2,-1.4 -6,-4.2 -8.5,-6.3 -3.9,-3.3 -4.9,-3.7 -8.7,-3.2 -3.1,0.3 -5.4,1.5 -9.3,4.9 -14.7,12.9 -40.3,21.8 -62.4,21.8 -13.2,0 -33.2,-4.7 -44.8,-10.6 -5.7,-2.9 -7.3,-3 -6.3,-0.6 2.3,5.6 4.1,5.2 -24.9,5.2 -15.8,0 -26.6,0.4 -26.6,0.9 0,0.5 4.8,3.9 10.8,7.4 5.9,3.5 19,11.5 29.2,17.7 10.2,6.2 22.2,13.5 26.8,16.3 l 8.2,5 v 82.6 82.6 l 10.8,7.2 c 5.9,3.9 15.2,10.2 20.7,14 5.5,3.8 15.6,10.7 22.5,15.4 6.9,4.8 17.5,12 23.5,16.1 6.1,4.2 11,8.1 10.9,8.7 -0.1,0.6 -0.2,15.7 -0.2,33.6 L 714,715 H 562.7 411.3 l -15,-17.2 c -8.3,-9.5 -16,-18.3 -17,-19.6 l -1.8,-2.2 -31.4,0.2 -31.4,0.3 -4.3,12 c -2.3,6.6 -5.3,15.3 -6.5,19.3 l -2.4,7.2 h -32.8 c -20.8,0 -33.5,0.4 -34.8,1 -4.8,2.6 -17.4,3.3 -65.9,3.7 -42,0.3 -50.8,0.1 -52,-1 z M 242.3,401.3 c 3.7,-12.6 6.7,-23.4 6.7,-24 0,-1 -3,-1.3 -11.4,-1.3 -7,0 -11.7,-0.4 -12.1,-1.1 -0.4,-0.5 -2.6,-2.5 -4.9,-4.2 -2.4,-1.8 -6.8,-5.1 -9.9,-7.5 l -5.5,-4.3 -5.7,3.7 c -11.6,7.4 -27.2,13.4 -34.7,13.4 -5.4,0 -3.6,1.9 4.2,4.5 11.2,3.6 29.3,12.2 39.4,18.9 9,5.8 22.3,17.8 24.6,22.1 0.7,1.4 1.6,2.5 1.9,2.5 0.4,0 3.7,-10.2 7.4,-22.7 z m 131.5,-8 -0.3,-16.8 -19.8,-0.3 -19.8,-0.2 -21.2,-16 c -11.7,-8.8 -21.5,-16 -21.9,-16 -0.5,0 -0.8,6.3 -0.8,14 v 14 h 11.4 11.5 l 16.6,10.8 c 9.1,5.9 18.9,12.2 21.8,14 2.9,1.8 8.6,5.4 12.7,8.1 4.1,2.7 8.1,5 8.8,5 1,0.1 1.2,-3.6 1,-16.6 z m 111,-1.8 c -0.3,-5.6 -0.3,-11.4 -0.1,-12.9 l 0.5,-2.6 27.1,-0.2 27,-0.3 -2.9,-3 c -1.6,-1.7 -6.3,-6 -10.4,-9.5 -7.8,-6.8 -14.2,-12.5 -16.9,-15 -0.9,-0.8 -4.4,-3.9 -7.7,-6.7 l -6.1,-5.3 h -30.1 c -16.6,0 -30.2,0.1 -30.2,0.3 0,0.2 -2.1,6.1 -4.6,13.3 -2.5,7.1 -5.4,15.5 -6.4,18.7 l -1.8,5.7 h 8.4 8.4 l 12,7.8 c 6.6,4.2 16.6,10.7 22.3,14.3 5.6,3.7 10.6,6.4 11.1,6.1 0.5,-0.3 0.6,-5.1 0.4,-10.7 z"
       id="path2" />
    <path
       d="m 826,630 c -16.3,-3.4 -28.9,-13.8 -36.2,-29.7 -1.9,-4.1 -2.2,-6.6 -2.3,-17.8 0,-13 0,-13 3.7,-20.5 13.6,-27.8 46.6,-36.3 70.7,-18.2 7.3,5.5 14.5,15.5 16.7,22.9 0.8,2.9 1.9,5.5 2.4,5.8 0.5,0.3 1.4,-1.4 2,-3.7 5,-19 25.5,-34.8 45.1,-34.8 5.7,0 16.3,2.7 22.2,5.7 5.6,2.8 16.5,13.3 18.9,18.3 1,1.9 2.7,5.8 3.9,8.5 2.1,4.8 2.2,4.9 3.1,2.5 8.1,-20.4 20.2,-31.1 38.6,-34.2 16,-2.7 33.9,4.6 44.1,17.8 4.6,6 8.1,13.9 8.8,19.6 0.3,2.7 1,5.1 1.4,5.4 1.2,0.7 1.2,9.1 0,9.8 -0.4,0.3 -1.1,2.8 -1.4,5.5 -1.1,9.6 -8.4,21.1 -17.7,28.1 -2.4,1.9 -7.6,4.7 -11.5,6.3 -8.8,3.7 -21.7,4.2 -30.5,1.2 -7.2,-2.4 -18.1,-9.6 -22,-14.5 -3.6,-4.5 -10,-16.5 -10,-18.6 0,-0.8 -0.4,-1.4 -1,-1.4 -0.5,0 -1,0.6 -1,1.3 0,2.4 -6,13.9 -9.6,18.3 -4.5,5.4 -15,12.5 -22.4,15 -11.4,3.8 -27,1.8 -38,-4.9 -9.4,-5.8 -18.3,-17.4 -21,-27.4 -0.6,-2.4 -1.5,-4.3 -1.9,-4.3 -0.5,0 -1.4,2 -2,4.4 -1.5,6.2 -7,15.2 -12.8,20.9 -10.1,10.1 -27.2,15.5 -40.3,12.7 z"
       id="path4" />
    <path
       d="m 726.8,513.7 c -23.5,-8 -37.4,-33.5 -31.3,-57.2 4.6,-17.8 18.2,-31.4 35.4,-35.5 8.2,-1.9 21.3,-0.8 28.5,2.4 12.2,5.4 22.2,16 26.2,27.4 1.5,4.5 2.4,4.4 4,-0.2 3.4,-9.7 13.8,-21.2 23.6,-25.9 7.6,-3.6 12.3,-4.7 20.8,-4.7 16.2,0 30.3,7.7 39.2,21.4 2.1,3.2 4.6,8.3 5.5,11.2 0.9,3 2,5.4 2.3,5.4 0.4,0 1.7,-2.8 3,-6.2 4.3,-11.9 13.1,-21.8 24.5,-27.6 10.2,-5.1 26.1,-5.5 37.1,-1 11.7,4.7 22.1,15.2 26.6,26.9 2.5,6.4 3.3,7.1 4.3,3.7 2.7,-9.8 14.3,-24.1 23.2,-28.7 10.1,-5.1 24.9,-6.6 35.2,-3.4 7.4,2.3 17.2,8.4 22,13.9 4.9,5.6 9.9,15.3 10.7,20.7 0.3,2.3 1,5.2 1.6,6.3 1.8,3.9 -0.8,17.9 -5.1,26.8 -9.8,20.2 -33.2,30.9 -54.5,24.9 -15.2,-4.3 -28.7,-17.3 -33.1,-32 -0.9,-3.3 -1.9,-2.8 -3.4,1.5 -3.7,10.4 -14.6,23.1 -23.5,27.2 -19.1,9 -39.5,5.7 -54,-8.7 -5.9,-5.8 -10.3,-12.9 -12.4,-20 -0.7,-2.4 -1.7,-4.3 -2.1,-4.3 -0.5,0 -1.4,2 -2.1,4.5 -1.6,5.8 -7,14.9 -11.8,19.8 -10.8,11.2 -29.6,16.3 -45.4,12.2 -13.8,-3.6 -27.6,-16.1 -31.7,-28.7 -1.5,-4.5 -2.9,-5.6 -3.7,-3.1 -3.6,10.6 -11,20.2 -20.2,26.3 -10.6,7 -26.9,8.9 -39.4,4.7 z"
       id="path6" />
  </g>
  <g
     fill="#0090d5"
     id="g22"
     transform="translate(0,-0.19189633)">
    <path
       d="m 790.8,379 c -10.5,-1.3 -21.2,-4.7 -34.3,-11 -11.1,-5.4 -22.5,-12.9 -26.8,-17.8 -1.8,-2 -1.8,-2.2 1.1,-6.4 7.2,-10.5 11.6,-23.8 13.2,-39.5 0.7,-6.6 1,-27.6 0.8,-53.8 l -0.3,-43 -14,-0.2 c -7.7,-0.1 -16.1,-0.2 -18.7,-0.2 L 707,207 v -13 -13 h 19.1 19.1 l -0.7,-17.2 c -0.4,-9.5 -1.3,-20 -2.1,-23.3 -1.9,-7.9 -7.3,-19.3 -13,-27.2 l -4.5,-6.3 3.1,-4.1 c 6.3,-7.8 20.2,-17.5 31,-21.5 11.8,-4.3 18.7,-5.5 34.1,-6.1 21.8,-0.8 32.8,1.8 50.2,12 9.9,5.8 23.8,19.9 30.1,30.4 5.8,9.9 11.1,24.8 12.5,35.6 1.5,11.1 1.5,148.9 0,157.6 -4.8,27.3 -29.8,53.4 -61.5,64.1 -7,2.4 -23.9,5.5 -26.4,4.9 -0.3,-0.1 -3.5,-0.5 -7.2,-0.9 z M 811,324.3 c 8.3,-4.1 18.3,-13.4 21.5,-19.8 1.9,-3.9 2,-6.5 2.3,-76.9 0.2,-63.2 0,-73.7 -1.3,-78.2 -3.4,-11.8 -17.4,-25 -29,-27.4 -11.5,-2.4 -24.9,2.3 -33.5,11.7 -8.9,9.8 -8.4,4.6 -8.8,89.6 l -0.3,74.9 2.5,5.3 c 6,13.1 21.7,24.3 34.2,24.5 4,0 6.8,-0.8 12.4,-3.7 z"
       id="path10" />
    <path
       d="m 637,376.6 c -4.1,-0.8 -9.5,-1.9 -11.9,-2.6 -5.7,-1.5 -20,-8.2 -22.8,-10.6 -1.5,-1.3 -4.5,-8.7 -9.3,-22.9 -8.1,-23.7 -16.9,-49.3 -22.9,-66.7 L 566,262.1 v -53.3 c 0,-49.7 0.1,-53.9 2,-61.6 6.6,-27.4 24.5,-49.8 48.5,-60.6 16.7,-7.6 42.7,-9.9 60.6,-5.5 27.7,6.8 51.7,28.7 61,55.6 1.9,5.7 2.4,9.6 3.4,30.6 L 742,178 h -21.9 -22 l -0.6,-4.7 c -2.1,-17.5 -7.2,-30.7 -15,-38.8 -2.6,-2.7 -7.4,-6 -11.3,-7.8 -6.1,-2.9 -7.6,-3.2 -16.2,-3.2 -8.2,0 -10.3,0.4 -15.2,2.7 -8.6,4 -15,10.5 -19.7,20.1 -7.4,15.1 -7.6,16.7 -7.6,80.7 0,49.6 0.2,57.4 1.7,64.2 3.7,16.6 12.5,29.1 24.6,35 6.3,3.1 7.2,3.3 17.7,3.3 10.2,0 11.5,-0.2 17,-2.9 7.7,-3.8 14.5,-10.8 18.7,-19.3 l 3.3,-6.7 V 279 257.5 L 667.8,257.2 640,257 v -23 -23 h 50.6 50.5 l -0.3,51.3 -0.3,51.2 -3.6,10.2 c -4.5,12.7 -8.7,19.9 -16.5,27.8 -16.1,16.5 -37.5,25.2 -63.4,26 -7.8,0.3 -15.3,-0.1 -20,-0.9 z"
       id="path12" />
    <path
       d="M 82.7,373.4 C 82.3,373 82,310.2 82,233.8 V 94.9 l 46.8,0.3 46.7,0.3 8.9,3.2 c 21.4,7.8 36.9,21.4 48,42.3 5.4,10.2 7.8,16.6 10.8,28.5 2.3,8.8 2.3,10 2.3,66 0,52.7 -0.1,57.5 -1.9,64 -8.4,31.4 -35.6,60.2 -67.1,71.2 l -8,2.8 -42.5,0.3 c -23.4,0.2 -42.9,0 -43.3,-0.4 z m 68.2,-47.9 c 15.7,-3.7 30.3,-15.1 36.9,-28.6 5.8,-11.9 6.4,-19.3 5.9,-69.3 -0.3,-38.2 -0.6,-44.9 -2.1,-50 -4.4,-15.1 -13.1,-25.8 -26,-32.1 -7.9,-3.9 -19.7,-6.8 -26,-6.3 l -4.1,0.3 -0.3,92.5 c -0.1,50.9 0,93.1 0.3,93.8 0.6,1.6 7.5,1.5 15.4,-0.3 z"
       id="path14" />
    <path
       d="m 231,353.4 v -20.5 l 3.1,-4.5 c 4.3,-6.4 10.3,-19.6 12.5,-27.9 1.8,-6.5 1.9,-11.4 1.9,-65 0,-57.7 0,-58 -2.4,-67.4 -2.6,-10.4 -6.3,-19.9 -11.6,-29.9 L 231,131.6 V 111.3 91 h 48 c 47.8,0 47.9,0 55.5,2.4 19.9,6.3 39.5,24.6 49.8,46.4 l 3.2,6.7 0.3,30.9 c 0.2,19.6 -0.1,32.7 -0.8,36 -1.6,7.4 -8.2,20.3 -14.4,27.8 -5.4,6.5 -10.3,10.3 -16.1,12.4 l -3,1.1 4,1.2 c 11.3,3.1 24.3,14.5 31,27.1 l 4,7.5 0.3,41.8 0.3,41.7 -27.8,-0.2 -27.8,-0.3 -0.5,-33.5 -0.5,-33.5 -2.9,-6 c -6.5,-13.3 -26,-26.9 -40.4,-28.2 l -6.2,-0.6 v 51.2 51.1 h -28 -28 z m 75.2,-130.9 c 19.3,-4 29.8,-19.2 29.8,-42.9 0,-24.6 -14.9,-39.9 -40.2,-41.4 l -8.8,-0.5 v 43.2 43.1 h 6.3 c 3.4,0 9.2,-0.7 12.9,-1.5 z"
       id="path16" />
    <path
       d="m 397,336.2 c 0,-21.4 -0.4,-38.2 -1.1,-41.8 -0.6,-3.2 -2.6,-8.8 -4.5,-12.4 -1.9,-3.5 -3.4,-7.2 -3.4,-8.1 0,-0.9 5.4,-19.2 12.1,-40.6 6.7,-21.3 13.1,-42.2 14.4,-46.3 1.3,-4.1 4.2,-13.6 6.5,-21 2.3,-7.4 6.5,-21.1 9.5,-30.5 2.9,-9.3 7.4,-23.6 10,-31.8 l 4.6,-14.7 29.1,0.2 29,0.3 9.9,28.5 c 5.4,15.7 12.1,35 14.8,43 2.7,8 9.3,27.1 14.6,42.5 5.3,15.4 14.8,42.9 21,61 6.2,18.2 15.7,45.6 21,61 13.8,40 15.5,44.9 15.5,45.8 0,0.4 -13.1,0.6 -29.1,0.5 l -29.2,-0.3 -6.6,-19 -6.6,-19 -47.6,-0.3 -47.7,-0.2 -4.9,14.2 c -2.8,7.9 -5.8,16.7 -6.7,19.6 l -1.8,5.2 H 408.4 397 Z m 103.4,-87.9 c -6.4,-18.6 -14.1,-41.1 -17.1,-50.1 -3,-9 -5.7,-16.1 -6,-15.8 -0.3,0.2 -2.4,6.7 -4.8,14.3 -4.7,15.1 -12.2,39 -20.9,66.5 -3.1,9.7 -5.6,18 -5.6,18.3 0,0.3 14.8,0.5 33,0.5 h 32.9 z"
       id="path18" />
    <path
       d="m 1022.1,369 -22.3,-0.5 -9.3,-20.5 c -5.1,-11.3 -20.2,-44.3 -33.5,-73.5 -13.3,-29.1 -24.9,-54.7 -25.8,-56.8 -1,-2.5 -2.1,-3.7 -3.1,-3.5 -1.4,0.3 -1.6,8.1 -1.9,77.6 L 926,369 h -25 -25 v -13.6 -13.6 l 3.4,-5.7 c 4.8,-7.8 7,-13.4 9,-21.8 1.4,-6.3 1.6,-16.4 1.6,-81.6 0,-81.6 -0.1,-83.8 -6,-99.8 -1.6,-4.4 -4.1,-10.1 -5.5,-12.6 C 876.1,116 876,115 876,100.4 V 85 l 28.2,0.2 28.1,0.3 14.9,32.5 c 8.2,17.9 20.8,45.4 27.9,61.2 7.2,15.8 13.6,29.4 14.3,30.4 3.4,4.6 3.6,1.3 3.6,-62.2 V 85 h 20.4 c 11.1,0 23.1,-0.3 26.5,-0.6 l 6.1,-0.7 v 142.6 c 0,78.4 -0.3,142.7 -0.7,142.9 -0.5,0.2 -10.9,0.1 -23.2,-0.2 z"
       id="path20" />
  </g>
  <g
     fill="#fe0000"
     id="g32"
     transform="translate(0,-0.19189633)">
    <path
       d="M 120,571 V 426 h 50.3 c 47.7,0 50.6,0.1 57.7,2.1 12.3,3.4 20.5,8.2 30,17.9 10.2,10.2 14.6,17.5 19.3,31.8 10.6,31.8 5.3,67.2 -12.7,85.7 -3.4,3.4 -7,6.8 -8.1,7.4 -1.4,0.9 -1.6,1.4 -0.7,1.8 3.1,1.3 11.2,8.5 14.4,12.9 15.7,21.5 15.1,60.9 -1.2,92.3 -7.3,13.9 -19.6,27.3 -30.5,32.8 -10,5.2 -11.2,5.3 -66.7,5.3 H 120 Z m 82.6,85.4 C 214,652.6 219.8,645.8 220.7,635.2 222,621.1 214,609.3 200.5,605.1 196.3,603.8 191,603 186.4,603 H 179 v 27.3 c 0,15.1 0.3,27.7 0.8,28.1 1.1,1.3 17.5,-0.2 22.8,-2 z m -2.1,-117.8 c 7.2,-1.9 10.8,-4 14.8,-8.6 4.5,-5.3 6.2,-11.3 5.3,-19.2 -1.6,-16 -14,-25.5 -33.8,-26.1 l -7.3,-0.2 -0.3,27.8 -0.2,27.7 h 8.2 c 4.6,0 10.6,-0.6 13.3,-1.4 z"
       id="path24" />
    <path
       d="m 246.5,709.8 c 6.2,-4.4 17.2,-16.7 21.7,-24.4 11.1,-18.5 16.1,-36.3 16.2,-57.9 0.1,-16.3 -1.6,-24.8 -7.1,-36.1 l -3.5,-7 9,-28 c 5,-15.3 14.7,-45.7 21.7,-67.4 6.9,-21.7 14.5,-45.3 16.9,-52.5 l 4.3,-13 29.1,-0.3 29.1,-0.2 8.1,25.2 c 4.5,13.9 11.9,37 16.5,51.3 7.5,23.5 17.9,55.9 42,131 4.6,14.3 12.2,38 16.9,52.6 4.7,14.6 8.6,27.1 8.6,27.7 0,0.9 -8.1,1.2 -31.4,1.2 h -31.3 l -3.1,-8.7 c -1.7,-4.9 -4.8,-13.6 -6.8,-19.6 l -3.7,-10.7 -43.4,0.2 -43.5,0.3 -6.7,19 -6.6,19 -28,0.2 -28,0.3 z m 137,-96 c -0.4,-1.3 -2,-6.3 -3.5,-11.3 -1.6,-4.9 -5.8,-18.9 -9.5,-31 -3.7,-12.1 -8.1,-26.7 -9.9,-32.5 l -3.3,-10.5 -14.5,43.8 -14.5,43.7 h 27.9 27.9 z"
       id="path26" />
    <path
       d="m 479.5,710.8 c -0.2,-0.7 -4.2,-13.2 -8.9,-27.8 -4.6,-14.6 -10.9,-34.4 -14,-44 l -5.5,-17.5 -0.9,-97.5 c -0.5,-53.6 -0.6,-97.8 -0.3,-98.3 0.4,-0.4 14,-0.6 30.2,-0.5 l 29.4,0.3 0.2,112.5 0.3,112.5 44,0.5 44,0.5 0.5,14 c 0.4,7.7 0.3,21.3 -0.1,30.3 l -0.6,16.2 h -59 c -46.2,0 -58.9,-0.3 -59.3,-1.2 z"
       id="path28" />
    <path
       d="m 602,679.6 v -32.4 l -16.2,-11.8 c -8.9,-6.6 -17.4,-13 -18.9,-14.4 l -2.7,-2.5 -0.7,-96.8 -0.7,-96.7 29.9,0.2 29.8,0.3 0.3,112.8 0.2,112.7 h 44.5 44.5 v 30.5 30.5 h -55 -55 z"
       id="path30" />
  </g>
  <g
     fill="#f8dd00"
     id="g48"
     transform="translate(0,-0.19189633)">
    <path
       d="m 823,626.2 c -11.5,-3 -21.6,-10.7 -27.6,-20.9 -3.8,-6.6 -6.7,-18.7 -6,-25.6 2.2,-22.5 16.6,-38.4 38.1,-41.9 19.8,-3.3 40,8.3 47.5,27.2 6.8,17.1 3.2,35.6 -9.5,48.9 -6.7,7 -13.2,10.7 -22.2,12.6 -8.6,1.9 -12.2,1.8 -20.3,-0.3 z m 14,-34.7 V 574 h 10 10 v -2.9 c 0,-1.6 -0.6,-3.1 -1.4,-3.4 -0.9,-0.4 -1.2,-1.4 -0.9,-2.5 0.6,-2.6 -5.5,-7.6 -7.4,-6 -1,0.8 -0.5,1.8 2.4,4.3 4.6,4 3.6,4.7 -5.8,4.3 l -6.4,-0.3 v -5.8 -5.7 h -3.2 -3.3 v 6 6 h -10.6 -10.5 l 0.3,2.8 0.3,2.7 10.3,0.3 10.2,0.3 v 17.4 17.5 h 3 3 z m -17.7,4 c 2.6,-5.2 4.7,-9.9 4.7,-10.3 0,-0.4 -0.9,-1.3 -2.1,-2 -1.9,-1.2 -2.3,-0.7 -7,9.4 -4,8.4 -4.8,10.9 -3.7,11.5 2.6,1.7 3.4,0.8 8.1,-8.6 z m 38.7,6.4 c 0,-0.6 -2.5,-5.3 -5.5,-10.5 -5,-8.5 -5.8,-9.3 -7.5,-8.4 -2.4,1.3 -2.5,2.3 -0.6,5.3 0.7,1.2 3.2,5.5 5.5,9.5 3.7,6.4 4.4,7.1 6.1,6.2 1.1,-0.6 2,-1.5 2,-2.1 z"
       id="path34" />
    <path
       d="M 919.7,626.9 C 899.2,622.9 884,604 884,582.5 c 0,-13.2 4.7,-24.2 14.4,-33.3 17.4,-16.5 44,-15.9 61.1,1.3 6.6,6.6 9.6,11.8 12,21 5.2,20.2 -4.8,42.2 -23.5,51.3 -9.9,4.8 -18.1,6 -28.3,4.1 z M 954,579.5 V 576 h -25.9 c -17.2,0 -26.2,0.4 -26.6,1.1 -0.4,0.5 -0.4,2.1 -0.1,3.5 l 0.6,2.4 h 26 26 z"
       id="path36" />
    <path
       d="m 1013,626.9 c -7.4,-1.4 -16.7,-6.7 -22.6,-12.6 -17.2,-17.5 -17.3,-46.5 -0.1,-63.7 22,-22 58,-15.8 71.6,12.4 3.5,7.3 3.6,7.8 3.6,19.5 0,11.8 -0.1,12.1 -3.7,19.6 -2.7,5.6 -5.4,9.2 -9.9,13.3 -7.3,6.8 -12,9.3 -20.8,11.2 -7.3,1.5 -11.4,1.6 -18.1,0.3 z m -4.3,-29.7 c 4.5,-7.7 6.3,-15.4 6.3,-27.3 V 559 h -2.9 -2.9 l -0.4,11.8 c -0.3,10 -0.8,12.5 -3.1,17.5 -1.5,3.2 -3.8,7.2 -5.2,8.9 -1.9,2.3 -2.3,3.4 -1.5,4.8 2.2,4.2 5.4,2.6 9.7,-4.8 z m 28.4,4.8 c 2.5,-1.6 6,-5 7.9,-7.6 3.2,-4.5 8.4,-14.4 7.8,-14.9 -1,-0.8 -5,-2.6 -5.2,-2.3 -0.2,0.2 -1.8,3.1 -3.6,6.6 -3.6,6.8 -9.9,13.2 -13,13.2 -1.9,0 -2,-0.7 -2,-19 v -19 h -3 -3 v 23 23 h 4.8 c 3.7,0 5.9,-0.7 9.3,-3 z"
       id="path38" />
    <path
       d="M 726.7,510.6 C 701.3,501.4 689.6,471.3 702,447 c 7.7,-15.1 22.4,-24 39.5,-24 34,0 55.3,36.8 38.8,67.2 -3.8,6.9 -13,15.3 -21,19.1 -5.9,2.7 -8.1,3.2 -16.3,3.5 -8.1,0.2 -10.5,-0.1 -16.3,-2.2 z m 6.3,-28.2 v -15.5 l 2.3,0.6 c 3.5,1 18.6,8.3 21.7,10.5 1.5,1.1 3.2,2 3.7,2 0.8,0 4.6,-6 4.1,-6.5 -1.2,-1.1 -29.5,-14.5 -30.5,-14.5 -1,0 -1.3,-2.3 -1.3,-9 v -9 h -3 -3 v 28.5 28.5 h 3 3 z"
       id="path40" />
    <path
       d="m 819.9,510.7 c -16.1,-5.6 -27,-18.7 -29.9,-35.8 -3.3,-19.4 7.5,-39.6 25.7,-48.2 6.4,-3 7.4,-3.2 18.3,-3.2 10.9,0 11.9,0.2 18.3,3.2 9.3,4.4 17,11.9 21.2,20.8 10.2,21.2 3.9,45.3 -15.3,58.2 -7.9,5.3 -11.5,6.4 -22.7,6.9 -7.6,0.4 -10.1,0.1 -15.6,-1.9 z m 16.6,-18.8 c 11,-3.5 17.1,-10.9 19.4,-23.4 2,-10.5 4.1,-9.5 -20.4,-9.5 H 814 v 3 3 h 17.5 17.5 v 3.2 c 0,9.7 -8.6,17 -23.7,20.3 -3.8,0.8 -3.7,0.6 -2.1,4 1.3,2.9 2.6,2.9 13.3,-0.6 z M 853,448 v -3 h -18 -18 v 3 3 h 18 18 z"
       id="path42" />
    <path
       d="m 914,510.8 c -12,-4.2 -20.8,-12.6 -26.6,-25.3 -3.1,-6.7 -4.3,-19.2 -2.6,-27.2 2.9,-13.4 12.1,-25.2 24.5,-31.3 5.7,-2.8 8.1,-3.4 16,-3.8 7,-0.3 10.8,0 15.2,1.3 16.8,4.8 28.7,18.5 31.7,36.3 3.3,19.4 -6.9,39 -24.8,47.8 -6.7,3.3 -8.4,3.7 -17.2,4.1 -8.2,0.3 -10.7,0 -16.2,-1.9 z m 36,-39 c 0,-16.3 0.3,-20.4 1.5,-21.8 1.3,-1.4 1.1,-2 -1.6,-5.3 -2.5,-3.1 -3.4,-3.5 -4.5,-2.6 -1.3,1 -1.2,1.5 0.6,3.4 4,4.3 3.2,4.5 -18,4.5 h -20 v 3.5 3.5 h 18 18 v 12 12 h -18.1 -18 l 0.3,3.3 0.3,3.2 17.8,0.3 c 16.9,0.2 17.7,0.3 17.7,2.2 0,1.6 0.7,2 3,2 h 3 z"
       id="path44" />
    <path
       d="m 1010.6,511.9 c -11.4,-2.8 -23.4,-13 -28.7,-24.3 -10.9,-23.2 -1.3,-49.9 21.8,-60.9 6.4,-3 7.4,-3.2 18.3,-3.2 10.9,0 11.9,0.2 18.3,3.2 9.1,4.3 17.8,13 21.9,22 2.7,5.8 3.2,8.3 3.6,16.6 0.6,12.5 -2,21.2 -8.7,30.1 -4.9,6.4 -14.7,13.8 -20.8,15.7 -5.1,1.5 -20.8,2 -25.7,0.8 z m 5.4,-19.1 c 12,-3.6 26.9,-15.8 31.9,-26.2 2.3,-4.7 2.3,-5 0.6,-6.3 -1.1,-0.7 -2.1,-1.3 -2.4,-1.3 -0.3,0 -1.9,2.4 -3.5,5.3 -6.5,11.6 -19.4,20.8 -32.3,23 -5.7,1 -6.4,1.3 -5.9,3.2 0.3,1.1 0.6,2.6 0.6,3.3 0,1.4 4.3,1 11,-1 z"
       id="path46" />
  </g>
</svg>
