<svg id="Layer_1" data-name="Layer 1" xmlns="http://www.w3.org/2000/svg" xmlns:xlink="http://www.w3.org/1999/xlink" viewBox="0 0 3840 477.90002"><defs><linearGradient id="Dégradé_sans_nom" x1="820.79999" y1="282.43982" x2="3095.90015" y2="282.43982" gradientTransform="matrix(1, 0, 0, -1, 0, 477.88983)" gradientUnits="userSpaceOnUse"><stop offset="0.1596" stop-color="#ea2427"/><stop offset="0.5303" stop-color="#ffcc05"/><stop offset="0.7318" stop-color="#6dbd46"/><stop offset="1" stop-color="#46a2da"/></linearGradient></defs><path d="M2618.1001,415.5h25.8c19.2,0,27.5,14,27.5,31.2s-8.3,31.2-27.5,31.2h-25.8ZM2629,468.9h10.7c17.1001,0,20.8-9.8,20.8-22.3s-3.7-22.3-20.8-22.3H2629Z" transform="translate(0 0)" style="fill:#fff"/><path d="M2710.80005,415.5h11.6001l24,62.3H2734.7002l-5.80005-16.5H2704l-5.8,16.5H2686.8999Zm-3.8,37.6h19l-9.3-26.8h-.30005Z" transform="translate(0 0)" style="fill:#fff"/><path d="M2751.3999,415.5h50.3999v9.4h-19.8v52.9h-10.89991V425h-19.7Z" transform="translate(0 0)" style="fill:#fff"/><path d="M2830.80005,415.5h11.6001l24,62.3H2854.7002l-5.80005-16.5H2824l-5.8,16.5H2806.8999Zm-3.8,37.6h19l-9.3-26.8h-.30005Z" transform="translate(0 0)" style="fill:#fff"/><path d="M2922.7,415.5h10.8999v52.9h31.69995v9.4h-42.60009V415.5Z" transform="translate(0 0)" style="fill:#fff"/><path d="M2971.8999,415.5h50.3999v9.4h-19.8v52.9h-10.89991V425h-19.7Z" transform="translate(0 0)" style="fill:#fff"/><path d="M3042.7,415.5h25.8c19.2,0,27.5,14,27.5,31.2s-8.3,31.2-27.5,31.2h-25.8Zm10.90015,53.4h10.69995c17.1001,0,20.80005-9.8,20.80005-22.3s-3.7-22.3-20.80005-22.3H3053.6001Z" transform="translate(0 0)" style="fill:#fff"/><path d="M3100.7,466.1h12.1001v11.8H3100.7Z" transform="translate(0 0)" style="fill:#fff"/><polygon points="324.6 327.2 293 382 276 382 307.7 327.2 324.6 327.2" style="fill:#ec2224"/><path d="M389.4,215,463.1,87.4A42.58269,42.58269,0,0,1,500,66.1H656.5L665,51.4H500.3a58.2437,58.2437,0,0,0-50.2,29l-27.8,48.2-.8,1.4-49.1,85Z" transform="translate(0 0)" style="fill:#ec2224"/><path d="M689.5,8.9H500.3a100.53758,100.53758,0,0,0-87,50.2l-27.8,48.2-.8,1.5L323.2,215h38.1L441.8,75.6a67.60979,67.60979,0,0,1,58.4-33.7h170.1Z" transform="translate(0 0)" style="fill:#ec2224"/><path d="M476.6,149.1H608.5l42.4-73.4h-151a33.04956,33.04956,0,0,0-28.6,16.5L400.4,215h38.1Z" transform="translate(0 0)" style="fill:#ec2224"/><polygon points="373.8 327.2 342.2 382 304 382 335.7 327.2 373.8 327.2" style="fill:#ec2224"/><polygon points="258.5 327.2 226.9 382 265 382 296.6 327.2 258.5 327.2" style="fill:#ec2224"/><path d="M97.1,149.1h90.1L175,170.3c-38.7,67,9.7,150.7,87,150.7H640.4l-35.1,61h38.1l25.6-44.4a33,33,0,0,0-28.6-49.5H262a67.45,67.45,0,0,1-58.4-101.2l12.2-21.2a33,33,0,0,0-28.6-49.5H78Z" transform="translate(0 0)" style="fill:#ec2224"/><path d="M58.5,82.3H186.2a67.45,67.45,0,0,1,58.4,101.2l-12.2,21.2A33,33,0,0,0,261,254.2H639.4a67.431,67.431,0,0,1,62.2,93.5L681.8,382h38.8l5.8-10c38.7-67-9.7-150.7-87-150.7H261l12.2-21.2c38.7-67-9.7-150.7-87-150.7h-1L163.3,71.3,141.4,49.4H39.4Z" transform="translate(0 0)" style="fill:#ec2224"/><polygon points="147.6 43.1 163.3 27.4 179.1 43.1 195.7 43.1 163.3 10.7 130.9 43.1 147.6 43.1" style="fill:#ec2224"/><path d="M50.4,116.2,0,97.8,29.2,79.4l7.2,12.4H186.2a57.95,57.95,0,0,1,50.2,86.9l-12.2,21.2a42.6,42.6,0,0,0,36.9,63.9H639.5a57.95,57.95,0,0,1,50.2,86.9L671.4,382h-17l22.9-39.6a42.6,42.6,0,0,0-36.9-63.9H262a57.95,57.95,0,0,1-50.2-86.9L224,170.4a42.6,42.6,0,0,0-36.9-63.9H45Z" transform="translate(0 0)" style="fill:#ec2224"/><path d="M1009.5,8.9H820.8V382H987C1117.1,382,1177.7,309.4,1177.7,194.9,1177.7,100.9,1133.9,8.9,1009.5,8.9ZM980.7,286.4H935.8V104.5h36.6c83.1,0,90.4,65.3,90.4,88.8C1062.80005,228.4,1052.30005,286.4,980.7,286.4ZM1497,209c38.19995-14.1,55.9-54.9,55.9-93.5,0-70.5-56.4-106.6-121.8-106.6h-219V382h115V251.9h61.1c45.5,0,48.6,37.1,51.69995,72.6,1.6,19.3,3.6,38.7,9.4,57.5h115c-10.4-17.2-11-61.7-12.5-80C1547.7,255.5,1528.4,221,1497,209Zm-109.69995-37.1h-60.1V97.7h53.8c43.9,0,57,13.6,57,37.1C1438,168.3,1408.7,171.9,1387.30005,171.9ZM1719.1,8.9,1581.6,382h115.5l16.69995-53.3h118.6l15.7,53.3h119.1L1831.4,8.9Zm19.8,239.8,36.1-115h1l33.4,115Zm425.4,7.9H2215c-5.7,27.7-32.8999,41.3-59.6001,41.3-70,0-84.1001-61.1-84.1001-96.1,0-25.6-2.60009-108.7,76.30005-108.7a54.43025,54.43025,0,0,1,54.3,46.5H2312.2C2295.3999,51.7,2235.30005,0,2140.2,0c-84.1001,0-183.9,57-183.9,199.1,0,106.1,67.9,191.8,178.20007,191.8,40.8,0,80.5-14.1,106.1001-47l3.69995,38.1h72.6001V176.6h-152.6001Zm372.5-256.6c-113.3999,0-189.19995,81.5-189.19995,195.4s75.8,195.4,189.19995,195.4S2726,309.3,2726,195.4,2650.2,0,2536.80005,0Zm0,297.9c-29.3,0-74.19995-19.3-74.19995-102.4s45-102.5,74.19995-102.5c29.30005,0,74.2,19.3,74.2,102.4S2566.1001,297.9,2536.80005,297.9Zm450.5-289V208.5H2986.2L2877.5,8.9H2759.8999V382h108.7V178.2h1L2984.1001,382h111.8V8.9Z" transform="translate(0 0)" style="fill:url(#Dégradé_sans_nom)"/><path d="M3399,115.5c-2.1001-6.8-7.3-14.1-15.2-19.9-7.3-4.7-16.69995-6.3-28.19995-6.3-39.7,0-59.6001,38.7-63.2,74.7,24.60009-22.5,51.2-28.2,84.10009-28.2,70,0,121.80005,44.9,121.80005,116,0,89.4-62.7,134.3-149.3999,134.3-110.3,0-155.19995-83.6-155.19995-173,0-114.4,52.8-199.1,164.1001-199.1,78.3999,0,125.3999,30.3,136.8999,101.4H3399Zm-99.8,137.9c0,28.7,20.8999,50.2,49.69995,50.2,31.3999,0,53.30005-22.5,53.30005-50.2,0-25.6-20.8999-48.1-53.30005-48.1C3320.6001,205.4,3299.2,226.3,3299.2,253.4Z" transform="translate(0 0)" style="fill:#fff"/><path d="M3682.2,309.9H3520.7V211.7L3686.8999,18.4h104V221H3840v88.8h-49.1001V382H3682.2ZM3593.3999,221H3682.2V119.1Z" transform="translate(0 0)" style="fill:#fff"/></svg>