<?xml version="1.0" encoding="UTF-8" standalone="no"?>
<svg
   version="1.1"
   viewBox="0 0 156 45"
   id="svg28"
   sodipodi:docname="ecwolf.svg"
   inkscape:version="1.1.2 (0a00cf5339, 2022-02-04, custom)"
   width="156"
   height="45"
   xmlns:inkscape="http://www.inkscape.org/namespaces/inkscape"
   xmlns:sodipodi="http://sodipodi.sourceforge.net/DTD/sodipodi-0.dtd"
   xmlns="http://www.w3.org/2000/svg"
   xmlns:svg="http://www.w3.org/2000/svg"
   xmlns:rdf="http://www.w3.org/1999/02/22-rdf-syntax-ns#"
   xmlns:cc="http://creativecommons.org/ns#"
   xmlns:dc="http://purl.org/dc/elements/1.1/">
  <defs
     id="defs32" />
  <sodipodi:namedview
     id="namedview30"
     pagecolor="#ffffff"
     bordercolor="#666666"
     borderopacity="1.0"
     inkscape:pageshadow="2"
     inkscape:pageopacity="0.0"
     inkscape:pagecheckerboard="0"
     showgrid="false"
     inkscape:zoom="3.4262821"
     inkscape:cx="59.101964"
     inkscape:cy="44.654817"
     inkscape:window-width="1920"
     inkscape:window-height="1017"
     inkscape:window-x="-8"
     inkscape:window-y="-8"
     inkscape:window-maximized="1"
     inkscape:current-layer="svg28" />
  <title
     id="title2">Wolfenstein logo</title>
  <path
     d="m 22,9 v 25 l -2,1 V 9 h -6 v 25 l -2,1 V 9 H 0 l 6,4 v 32 l 8,-5 v 5 L 28,36 V 9 h -6"
     id="path4"
     style="fill:#f2f2f2" />
  <path
     d="m 52,5 -6,4 v 36 l 6,-4 V 5"
     id="path6"
     style="fill:#f2f2f2" />
  <path
     d="m 60,4 6,-4 h -6 l -6,4 v 36 l 6,-4 V 13 L 66,9 H 60 V 4"
     id="path8"
     style="fill:#f2f2f2" />
  <path
     d="m 70,28 6,-4 V 9 h -6 l -8,5 V 36 H 76 V 30 H 68 V 17 l 2,-1.25 V 28"
     id="path10"
     style="fill:#f2f2f2" />
  <path
     d="m 78,9 v 27 h 6 V 15 h 2 v 21 h 6 V 9 H 78"
     id="path12"
     style="fill:#f2f2f2" />
  <path
     d="m 94,30 v 6 h 14 V 24 l -8,-5 v -4 h 2 v 4 l 6,-4 V 9 H 94 v 12 l 8,5 v 4 h -2 v -4 l -6,4"
     id="path14"
     style="fill:#f2f2f2" />
  <path
     d="m 110,9 v 31 l 6,-4 V 13 l 6,-4 h -6 V 5 l -6,4"
     id="path16"
     style="fill:#f2f2f2" />
  <path
     d="m 126,28 6,-4 V 9 h -6 l -8,5 v 22 h 14 v -6 h -8 V 17 l 2,-1.25 V 28"
     id="path18"
     style="fill:#f2f2f2" />
  <path
     d="m 140,11 -6,4 v 21 h 6 V 11"
     id="path20"
     style="fill:#f2f2f2" />
  <path
     d="m 140,5 -6,4 v 4 l 6,-4 V 5"
     id="path22"
     style="fill:#f2f2f2" />
  <path
     d="m 142,9 v 27 h 6 V 15 h 2 v 21 h 6 V 9 h -14"
     id="path24"
     style="fill:#f2f2f2" />
  <path
     d="M 30,9 V 36 H 44 V 9 Z m 8,21 H 36 V 15 h 2 z"
     id="path26"
     style="fill:#f2f2f2" />
  <metadata
     id="metadata849">
    <rdf:RDF>
      <cc:Work
         rdf:about="">
        <dc:title>Wolfenstein logo</dc:title>
      </cc:Work>
    </rdf:RDF>
  </metadata>
</svg>
