<svg id="Layer_1" data-name="Layer 1" xmlns="http://www.w3.org/2000/svg" viewBox="0 0 3838.98999 1181.65002"><path d="M170.08,891.7c-3.06-12.56-11.34-22.37-21.76-29.11a64.74641,64.74641,0,0,0-35.86-10.73c-46.28,0-72.63,36.16-72.63,78.76,0,42.29,25.74,78.76,72.63,78.76,33.1,0,50.57-17.16,62.82-41.68h36.78c-12.87,53.02-51.49,78.45-99.6,78.45C48.73,1046.16,0,995.59,0,929.4c0-77.84,59.15-114.31,112.16-114.31,7.05,0,40.15,2.15,57.92,19v-14.1h32.18v71.71H170.08Z" transform="translate(0 0)" style="fill:#fff"/><path d="M446.51,930.93c0-64.05,49.34-115.84,116.15-115.84s116.45,51.79,116.45,115.84c0,65.28-53.32,115.23-116.45,115.23C481.75,1046.16,446.51,984.25,446.51,930.93Zm39.84,4.29a73.63817,73.63817,0,0,0,74.16,74.16c45.66,0,78.76-34.94,78.76-79.99,0-42.6-32.48-77.53-75.39-77.53C515.16,851.86,486.35,888.33,486.35,935.22Z" transform="translate(0 0)" style="fill:#fff"/><path d="M985.88,864.73h-.61v146.49h24.82v30.03h-83.66v-30.03h22.07V850.02h-22.07v-30.03h83.97l42.6,126.87h.61l45.97-126.87h79.99v30.03h-21.76v161.2h21.76v30.03h-83.36v-30.03h24.82V864.73h-.61l-54.86,149.55h-24.52Z" transform="translate(0 0)" style="fill:#fff"/><path d="M1491.23,850.02h-24.21V819.99h83.97c42.9,0,85.81006,17.16,85.81006,69.87,0,53.32-41.37,69.87-77.84,69.87h-27.89v51.49H1559.26v30.03h-92.24v-30.03h24.21Zm39.84,79.68h15.02c31.56994,0,50.87-11.65,50.87-40.15s-19.31006-40.15-50.87-40.15h-15.02Z" transform="translate(0 0)" style="fill:#fff"/><path d="M1894.22,819.99H1980.03v30.03h-23.9V950.54c0,26.36-3.98,58.84,41.37,58.84,41.07,0,37.08-32.48,37.08-58.84V850.02h-23.9V819.99H2096.49v30.03h-22.07007V967.4c0,58.23-41.68,78.76-76.31006,78.76-44.74,0-81.81994-26.36-81.81994-73.86V850.02H1894.22Z" transform="translate(0 0)" style="fill:#fff"/><path d="M2361.26,881.9V820h166.1001v61.9h-35.24V850.03h-27.8899v161.2h26.65992v30.03h-93.15992v-30.03h26.65992V850.03h-27.8899V881.9H2361.26Z" transform="translate(0 0)" style="fill:#fff"/><path d="M2797.3501,1041.26v-30.03h23.6001V850.03h-23.6001v-30.03H2967.74v58.53H2932.5v-28.5h-71.71v55.78h61.6001v34.94H2860.79v70.49h71.71V975.08h35.24v66.19995H2797.3501Z" transform="translate(0 0)" style="fill:#fff"/><path d="M3229.76,1041.26v-30.03h23.6001V850.03H3229.76v-30.03h95c15.02,0,47.5-2.45,68.34009,25.13a47.24978,47.24978,0,0,1,9.81006,30.03c0,25.74-11.34009,40.45-34.62989,50.26v.61c25.12989,6.13,27.27,21.76,27.27,35.24v49.95h21.44995v30.03h-61.29V963.72c0-20.84-22.37012-22.98-38.61011-22.98h-23.8999v70.49h24.52v30.03ZM3293.2,910.7h25.74c22.07007,0,44.12988-3.68,44.12988-33.4,0-27.27-27.88989-27.27-48.73-27.27h-21.1499V910.7Z" transform="translate(0 0)" style="fill:#fff"/><path d="M3712.42993,965.56c3.67993,29.11,23.29,49.95,53.32007,49.95,17.77,0,33.3999-14.1,33.3999-32.48,0-30.03-23.29-29.73-60.07007-40.76-9.18994-2.76-59.45-8.89-59.45-66.2,0-20.53,17.15991-60.99,68.95-60.99,17.15992,0,33.39991,7.36,45.36011,18.69V819.98h32.17993v66.2H3795.47c-2.45-11.65-7.65991-21.76-15.02-28.81-7.65991-7.36-17.77-11.65-30.03-11.65-18.08008,0-30.94995,11.03-30.94995,30.03,0,21.15,30.03,25.13,60.07007,34.02,30.03,8.89,59.45,19.92,59.45,67.73,0,41.37-29.73,68.65-70.17993,68.65-20.53,0-39.23-5.52-55.15991-18.68994v13.79h-32.17994v-75.7h30.95972Z" transform="translate(0 0)" style="fill:#fff"/><rect x="54" y="7.25" width="95.39999" height="661.67999" style="fill:#fff"/><rect x="1001.89001" y="7.25" width="95.40002" height="661.67999" style="fill:#fff"/><rect x="1.8316" y="587.19687" width="109.63" height="81.74" style="fill:#fff"/><rect x="1.83211" y="7.2574" width="109.62999" height="81.74" style="fill:#fff"/><rect x="263.66" y="481.48001" width="79.76001" height="156.79001" style="fill:#fff"/><rect x="166.40967" y="587.1888" width="177" height="81.74001" style="fill:#fff"/><rect x="845.73535" y="37.9162" width="79.76001" height="144.8" style="fill:#fff"/><rect x="845.74158" y="7.26123" width="139.14" height="81.73999" style="fill:#fff"/><rect x="1173.68994" y="37.92" width="79.76001" height="144.8" style="fill:#fff"/><rect x="1114.31269" y="7.2522" width="139.14" height="81.73999" style="fill:#fff"/><rect x="263.66" y="37.92" width="79.76001" height="121.92" style="fill:#fff"/><rect x="166.4207" y="7.26031" width="177" height="81.74001" style="fill:#fff"/><rect x="166.41449" y="283.83368" width="126.92999" height="81.74001" style="fill:#fff"/><rect x="1053.91492" y="587.19357" width="109.63" height="81.73999" style="fill:#fff"/><rect x="935.63745" y="587.19101" width="109.63" height="81.74005" style="fill:#fff"/><rect x="2935.61011" y="7.25" width="95.3999" height="661.67999" style="fill:#fff"/><rect x="2869.36194" y="587.19678" width="109.63" height="81.73999" style="fill:#fff"/><rect x="2987.63928" y="587.18921" width="109.63" height="81.73999" style="fill:#fff"/><rect x="2987.63984" y="7.24976" width="109.62999" height="81.73999" style="fill:#fff"/><rect x="2869.3625" y="7.25708" width="109.62999" height="81.73999" style="fill:#fff"/><rect x="1706.16003" y="7.25" width="95.40002" height="661.67999" style="fill:#fff"/><rect x="1653.99622" y="587.19226" width="109.63" height="81.73999" style="fill:#fff"/><rect x="1932.95251" y="587.19617" width="109.63" height="81.73999" style="fill:#fff"/><rect x="1653.99677" y="7.25281" width="109.62999" height="81.73999" style="fill:#fff"/><rect x="2215.91449" y="587.19409" width="52.15997" height="81.73999" style="fill:#fff"/><rect x="1330.5" y="7.25" width="95.40002" height="661.67999" style="fill:#fff"/><rect x="1278.33521" y="587.19336" width="109.63" height="81.73999" style="fill:#fff"/><rect x="1278.33576" y="7.25391" width="109.62999" height="81.73999" style="fill:#fff"/><rect x="1540.16003" y="481.48001" width="79.76001" height="156.79001" style="fill:#fff"/><rect x="1442.91339" y="587.19525" width="177" height="81.73999" style="fill:#fff"/><rect x="1540.16003" y="37.92" width="79.76001" height="121.92" style="fill:#fff"/><rect x="3363.25" width="79.76001" height="158.87" style="fill:#fff"/><rect x="3127.75" y="468.48999" width="79.76001" height="188.07001" style="fill:#fff"/><rect x="1442.92431" y="7.25378" width="177" height="81.73999" style="fill:#fff"/><rect x="1442.91809" y="283.8374" width="126.92999" height="81.73999" style="fill:#fff"/><rect x="3532.02002" y="7.25" width="95.3999" height="661.67999" style="fill:#fff"/><rect x="3479.8573" y="587.19092" width="109.63" height="81.73999" style="fill:#fff"/><rect x="3479.8581" y="7.25146" width="109.62999" height="81.73999" style="fill:#fff"/><rect x="3741.67993" y="481.48001" width="79.76001" height="156.79001" style="fill:#fff"/><rect x="3644.43585" y="587.19287" width="177" height="81.73999" style="fill:#fff"/><rect x="3741.67993" y="37.92" width="79.76001" height="121.92" style="fill:#fff"/><rect x="3644.44665" y="7.2561" width="177" height="81.73999" style="fill:#fff"/><rect x="3644.44043" y="283.8396" width="126.92999" height="81.73999" style="fill:#fff"/><polygon points="1931.74 181.51 2027.15 181.51 2027.15 86.88 1947.52 7.25 1818.58 7.25 1818.58 89 1896.87 89 1931.74 123.87 1931.74 181.51" style="fill:#fff"/><polygon points="1931.74 151.38 2027.15 151.38 2027.15 278.18 1947.52 357.81 1818.58 357.81 1818.58 276.06 1896.87 276.06 1931.74 241.19 1931.74 151.38" style="fill:#fff"/><rect x="2120.5" y="7.25" width="95.3999" height="661.67999" style="fill:#fff"/><rect x="2068.33923" y="587.18933" width="109.63" height="81.73999" style="fill:#fff"/><rect x="2068.33979" y="7.25" width="109.62999" height="81.73999" style="fill:#fff"/><polygon points="2346.09 181.51 2441.49 181.51 2441.49 86.88 2361.86 7.25 2232.92 7.25 2232.92 89 2311.21 89 2346.09 123.87 2346.09 181.51" style="fill:#fff"/><polygon points="2346.09 151.38 2441.49 151.38 2441.49 278.18 2361.86 357.81 2232.92 357.81 2232.92 276.06 2311.21 276.06 2346.09 241.19 2346.09 151.38" style="fill:#fff"/><polygon points="1944.38 374.82 1844.96 374.82 1931.24 668.94 2030.66 668.94 1944.38 374.82" style="fill:#fff"/><rect x="2513.30005" y="7.25" width="95.3999" height="661.67999" style="fill:#fff"/><rect x="2461.13269" y="587.19592" width="109.63" height="81.73999" style="fill:#fff"/><rect x="2740.08875" y="587.1897" width="109.63" height="81.73999" style="fill:#fff"/><rect x="2461.13325" y="7.25659" width="109.62999" height="81.73999" style="fill:#fff"/><polygon points="2738.88 181.51 2834.28 181.51 2834.28 86.88 2754.65 7.25 2625.72 7.25 2625.72 89 2704.01 89 2738.88 123.87 2738.88 181.51" style="fill:#fff"/><polygon points="2738.88 151.38 2834.28 151.38 2834.28 278.18 2754.65 357.81 2625.72 357.81 2625.72 276.06 2704.01 276.06 2738.88 241.19 2738.88 151.38" style="fill:#fff"/><polygon points="3220.34 186.34 3124.93 186.34 3124.93 280.96 3204.57 360.6 3333.5 360.6 3333.5 278.85 3255.21 278.85 3220.34 243.98 3220.34 186.34" style="fill:#fff"/><polygon points="3220.34 206.43 3124.93 206.43 3124.93 79.63 3204.57 0 3346.24 0 3346.24 81.74 3255.21 81.74 3220.34 116.62 3220.34 206.43" style="fill:#fff"/><polygon points="3350.42 497.29 3445.83 497.29 3445.83 358.48 3366.19 278.85 3237.26 278.85 3237.26 360.6 3315.55 360.6 3350.42 395.47 3350.42 497.29" style="fill:#fff"/><polygon points="3350.42 482.32 3445.83 482.32 3445.83 576.94 3366.19 656.57 3224.52 656.57 3224.52 574.83 3315.55 574.83 3350.42 539.95 3350.42 482.32" style="fill:#fff"/><polygon points="2751.52 374.82 2652.1 374.82 2738.37 668.94 2837.79 668.94 2751.52 374.82" style="fill:#fff"/><polygon points="765.71 538.41 765.71 89 817.88 89 817.88 7.25 765.71 7.25 695.97 7.25 670.31 7.25 670.31 328.46 765.71 538.41" style="fill:#fff"/><polygon points="438.02 130.13 438.02 587.19 385.85 587.19 385.85 668.94 438.02 668.94 507.76 668.94 533.42 668.94 533.42 340.08 438.02 130.13" style="fill:#fff"/><polygon points="769.19 587.19 767.45 583.38 523.43 46.35 505.66 7.25 382.33 7.25 382.33 89 438 89 438.01 88.99 438.02 89 438.02 89 438.02 89 533.42 298.95 533.42 298.95 701.54 668.94 818.48 668.94 818.48 587.19 769.19 587.19" style="fill:#fff"/><rect x="1.83" y="687.98999" width="604.98" height="81.73999" style="fill:#e20c00"/><rect x="1.83" y="1099.91003" width="3819.61019" height="81.73999" style="fill:#fff"/><rect x="644.76001" y="687.98999" width="604.97998" height="81.73999" style="fill:#fca200"/><rect x="1287.68005" y="687.98999" width="604.97998" height="81.73999" style="fill:#fff100"/><rect x="1930.60999" y="687.98999" width="604.97986" height="81.73999" style="fill:#00a85f"/><rect x="2573.53003" y="687.98999" width="604.97998" height="81.73999" style="fill:#00a0de"/><rect x="3216.45996" y="687.98999" width="604.97998" height="81.73999" style="fill:#f10075"/></svg>