<?xml version="1.0" encoding="UTF-8" standalone="no"?>
<!-- Created with Inkscape (http://www.inkscape.org/) -->

<svg
   version="1.1"
   id="svg880"
   width="1083.9999"
   height="719.73999"
   viewBox="0 0 1083.9999 719.73999"
   sodipodi:docname="test.svg"
   inkscape:version="1.1.2 (0a00cf5339, 2022-02-04, custom)"
   xmlns:inkscape="http://www.inkscape.org/namespaces/inkscape"
   xmlns:sodipodi="http://sodipodi.sourceforge.net/DTD/sodipodi-0.dtd"
   xmlns="http://www.w3.org/2000/svg"
   xmlns:svg="http://www.w3.org/2000/svg">
  <defs
     id="defs884" />
  <sodipodi:namedview
     id="namedview882"
     pagecolor="#ffffff"
     bordercolor="#666666"
     borderopacity="1.0"
     inkscape:pageshadow="2"
     inkscape:pageopacity="0.0"
     inkscape:pagecheckerboard="0"
     showgrid="false"
     inkscape:zoom="0.20868056"
     inkscape:cx="366.58902"
     inkscape:cy="-28.75208"
     inkscape:window-width="1366"
     inkscape:window-height="697"
     inkscape:window-x="-8"
     inkscape:window-y="-8"
     inkscape:window-maximized="1"
     inkscape:current-layer="g886" />
  <g
     inkscape:groupmode="layer"
     inkscape:label="Image"
     id="g886"
     transform="translate(-173.20816,344.85651)">
    <path
       style="fill:#f9f9f9"
       d="m 317.20799,373.75641 c -1.925,-0.55796 -7.1,-2.0656 -11.5,-3.35032 -4.4,-1.28472 -12.275,-2.84795 -17.5,-3.47385 -5.225,-0.62591 -13.96098,-2.21168 -19.41329,-3.52394 -5.45231,-1.31227 -11.52731,-2.89551 -13.5,-3.51831 -1.97269,-0.6228 -8.31171,-3.20131 -14.08671,-5.73002 -5.775,-2.52871 -13.65,-6.58562 -17.5,-9.01535 -3.85,-2.42974 -10.07687,-6.88808 -13.83749,-9.90743 -3.76062,-3.01935 -9.71437,-9.12796 -13.23057,-13.57468 -3.51619,-4.44673 -7.94224,-11.03302 -9.83566,-14.63621 -1.89342,-3.60319 -4.57207,-9.92626 -5.95257,-14.05126 -1.38049,-4.125 -3.21507,-12.57797 -4.07684,-18.78438 -1.26781,-9.13057 -1.5661,-21.82324 -1.56285,-66.5 0.003,-44.19844 0.30123,-57.01139 1.49355,-64.21562 0.81924,-4.95 2.10528,-11.25 2.85787,-14 0.75259,-2.75 2.5934,-7.88899 4.09068,-11.41997 1.49728,-3.53099 4.98515,-9.77334 7.75083,-13.8719 2.76568,-4.09856 6.66196,-9.259948 8.65839,-11.469768 1.99644,-2.20982 7.00821,-6.58369 11.13727,-9.71972 4.12907,-3.13603 8.51989,-6.23898 9.75739,-6.89544 1.73318,-0.91941 2.76682,-0.92227 4.5,-0.0125 1.2375,0.64961 8.91991,4.98304 17.07202,9.62983 8.1521,4.6468 15.04416,8.22657 15.31568,7.95506 0.27151,-0.27152 -0.9984,-1.60253 -2.82202,-2.9578 -1.82362,-1.35527 -8.26568,-5.31002 -14.31568,-8.78832 -6.05,-3.47831 -14.375,-8.18639 -18.5,-10.46241 -4.125,-2.27601 -9.75,-5.41322 -12.5,-6.97157 -2.75,-1.55835 -6.59075,-3.83142 -8.535,-5.05127 -1.94424,-1.21985 -5.6907,-4.46727 -8.32546,-7.2165 -2.63476,-2.74922 -6.35457,-7.32114 -8.26625,-10.15982 -1.91168,-2.83868 -4.35258,-7.20674 -5.42423,-9.70679 -1.07165,-2.50005 -2.84859,-8.07104 -3.94876,-12.37997 -1.91828,-7.51318 -2.00029,-11.1078004 -2.00013,-87.6678 1.4e-4,-66.206632 0.25191,-81.148962 1.47501,-87.540762 0.81117,-4.23906 2.35606,-10.31406 3.43309,-13.5 1.07703,-3.18595 3.28437,-9.04336 4.90518,-13.01647 1.62081,-3.97312 5.10845,-10.72312 7.75031,-15 2.64185,-4.27689 6.70772,-10.25116 9.03526,-13.27616 2.32754,-3.025 7.98243,-9.17377 12.56643,-13.66393 4.584,-4.49017 11.80614,-10.63232 16.0492,-13.64924 4.24306,-3.01692 12.04385,-7.57729 17.3351,-10.13415 5.29124,-2.55686 15.31965,-6.22176 22.28534,-8.1442 6.9657,-1.92245 18.28991,-5.02871 25.16491,-6.9028 6.875,-1.87409 16.775,-4.55942 22,-5.96741 5.225,-1.40798 20.525,-5.49873 34,-9.09055 13.475,-3.59183 28.775,-7.66643 34,-9.05467 5.225,-1.38824 15.35,-4.12601 22.5,-6.08393 7.15,-1.95792 15.25,-4.13669 18,-4.84172 2.75,-0.70502 9.275,-2.42242 14.5,-3.81644 5.225,-1.39401 18.95,-5.06494 30.5,-8.15761 11.55,-3.09268 25.05,-6.70495 30,-8.02728 4.95,-1.32234 14.85,-3.99243 22,-5.93355 7.15,-1.94113 18.85,-5.07309 26,-6.95991 7.15,-1.88683 18.175,-4.8524 24.5,-6.59014 6.325,-1.73775 14.65,-4.05274 18.5,-5.14443 3.85,-1.09169 9.25,-2.21941 12,-2.50605 4.72019,-0.49198 5.55962,-0.18779 15,5.43578 5.5,3.27631 17.12293,10.10663 25.82873,15.1785 8.70581,5.07187 17.31116,9.84097 19.123,10.59801 1.90923,0.79773 3.55215,2.33909 3.90762,3.66608 0.33734,1.2593 0.61949,32.07285 0.627,68.47454 0.008,38.2692 -0.37737,67.21337 -0.91342,68.62329 -0.56097,1.47544 -2.04188,2.6995 -3.75,3.09958 -1.55261,0.36365 -5.07293,1.3093 -7.82293,2.10143 -2.75,0.79214 -10.85,2.99832 -18,4.90264 -7.15,1.90431 -19.075,5.1122 -26.5,7.12863 -7.425,2.01643 -21.825,5.88022 -32,8.5862 -10.175,2.70599 -23.45,6.23986 -29.5,7.85306 -6.05,1.6132 -15.275,4.09088 -20.5,5.50594 -5.225,1.41507 -16.925,4.53686 -26,6.93732 -9.075,2.40045 -22.575,6.01084 -30,8.02308 -7.425,2.01225 -23.625,6.34408 -36,9.62631 -12.375,3.28222 -26.50373,7.11062 -31.39718,8.50755 -4.89345,1.396932 -11.41845,3.815402 -14.5,5.374382 -3.22175,1.6299 -8.20047,5.54406 -11.71525,9.21028 -3.36184,3.50668 -7.0247,8.1667 -8.13969,10.35559 -1.11499,2.1889 -2.7519,6.424 -3.63757,9.41132 -0.88567,2.98733 -1.61031,6.53772 -1.61031,7.88976 0,1.35204 0.7875,3.05605 1.75,3.78669 0.9625,0.73065 3.1,1.33936 4.75,1.35271 1.65,0.0134 8.4,-1.34452 15,-3.01748 6.6,-1.67296 19.425,-5.04615 28.5,-7.49598 9.075,-2.44983 21.45,-5.7992 27.5,-7.44305 6.05,-1.64386 15.05,-4.05945 20,-5.368 4.95,-1.30854 15.75,-4.21583 24,-6.46064 8.25,-2.24481 20.175,-5.45444 26.5,-7.13252 6.325,-1.67807 22.525,-6.0168 36,-9.6416 13.475,-3.624812 31.25,-8.361422 39.5,-10.525802 8.25,-2.16439 21.75,-5.76078 30,-7.99199 8.25,-2.23121 19.275,-5.19246 24.5,-6.58055 5.225,-1.38809 14.9,-3.99223 21.5,-5.78697 6.6,-1.79474 17.4,-4.70478 24,-6.46675 6.6,-1.76198 13.54728,-3.68176 15.43839,-4.26619 l 3.43839,-1.06259 -4.39806,-2.06995 c -2.41893,-1.13846 -6.89121,-4.56444 -9.93839,-7.61328 -3.09568,-3.09736 -7.21738,-8.73784 -9.34104,-12.78306 -2.09039,-3.98185 -4.44507,-10.28049 -5.23263,-13.99699 -0.78756,-3.7165 -1.43975,-9.87852 -1.4493,-13.69338 -0.01,-3.81486 0.69696,-9.88986 1.57001,-13.5 0.87306,-3.61014 3.36329,-10.21143 5.53385,-14.66954 3.14428,-6.45805 5.61652,-9.72805 12.16262,-16.08738 4.51889,-4.38996 10.27712,-9.17782 12.79607,-10.63969 2.51895,-1.46188 7.21233,-3.56365 10.42975,-4.6706 3.21741,-1.10695 9.48146,-2.29057 13.92009,-2.63027 4.96871,-0.38025 10.37616,-0.14451 14.07025,0.61342 3.3,0.67707 9.15,2.73679 13,4.57716 3.85,1.84038 11.275,5.90377 16.5,9.02976 5.225,3.126 14.225,8.37943 20,11.6743 5.775,3.29487 14.87033,8.35762 20.21185,11.25056 5.34152,2.89295 11.46332,6.64709 13.60402,8.34255 2.14069,1.69547 5.79766,5.55254 8.1266,8.57127 2.32894,3.01874 5.51783,8.77045 7.08643,12.78159 2.7651,7.07075 2.9473,7.28314 5.97941,6.96992 1.72007,-0.17768 6.77617,-1.41518 11.23577,-2.75 4.45961,-1.33477 9.35982,-2.42689 10.88938,-2.42689 1.69063,0 9.1691,3.69111 19.07378,9.41414 8.96102,5.17777 21.01776,12.18086 26.79276,15.56242 5.775,3.38155 11.85,6.3799 13.5,6.663 l 3,0.51471 -2.67206,-2.32713 c -1.46963,-1.27993 -11.04928,-7.05214 -21.2881,-12.82714 -10.23883,-5.775 -22.01471,-12.75 -26.16864,-15.5 l -7.5526,-5 -0.1593,-50.76118 c -0.12384,-39.46292 0.11105,-50.65741 1.05532,-50.29496 0.66803,0.25642 8.76803,4.83765 18,10.18052 9.23196,5.34287 21.39504,12.3381 27.02908,15.54496 5.63403,3.20686 10.66997,5.83066 11.19098,5.83066 0.52101,0 1.20627,-0.41904 1.5228,-0.93119 0.31653,-0.51216 -3.14442,-3.05755 -7.69099,-5.65643 -4.54657,-2.59888 -10.51649,-6.02125 -13.26649,-7.60526 -2.75,-1.58401 -5.675,-3.31009 -6.5,-3.83574 -0.825,-0.52565 -6.14917,-3.65925 -11.83148,-6.96355 -5.68232,-3.30431 -10.63232,-6.01783 -11,-6.03006 -0.36769,-0.0122 -1.7868,-0.88146 -3.15358,-1.93161 -1.36678,-1.05016 -2.23934,-2.15509 -1.93903,-2.45541 0.30032,-0.30031 4.5686,-1.71215 9.48506,-3.1374 4.91647,-1.42525 11.41403,-3.18808 14.43903,-3.91739 3.025,-0.72931 23.12881,-6.09826 44.67513,-11.93099 21.54632,-5.83273 39.88665,-10.60497 40.7563,-10.60497 0.86965,0 6.19087,2.64535 11.82488,5.87856 5.634,3.2332 14.5187,8.35699 19.7437,11.3862 5.225,3.0292 11.525,6.70258 14,8.16307 2.475,1.46048 6.975,3.83577 10,5.27844 3.025,1.44266 5.8306,3.11143 6.2347,3.70837 0.4041,0.59695 0.7416,13.04786 0.75,27.66869 0.01,14.62084 0.2888,26.85685 0.6231,27.19115 0.3343,0.33429 1.3468,0.19011 2.25,-0.32041 0.9032,-0.51052 10.8672,-3.36005 22.1422,-6.3323 11.275,-2.97224 21.4,-5.62393 22.5,-5.89264 1.1,-0.26871 16.4,-4.40234 34,-9.18584 17.6,-4.7835 36.275,-9.82246 41.5,-11.19769 5.225,-1.37523 11.8655,-3.08221 14.7566,-3.79327 4.5823,-1.127 5.6405,-1.08499 8.2484,0.32741 1.6454,0.89114 12.2482,7.02026 23.5616,13.62026 11.3135,6.6 22.4518,13.00502 24.7517,14.23339 2.2999,1.22836 5.4192,2.66745 6.9317,3.19798 l 2.75,0.96459 -0.015,115.30202 c -0.01,63.416112 -0.358,115.8410916 -0.7769,116.4999616 -0.4188,0.65887 -9.2994,3.49832 -19.7346,6.30988 -10.4353,2.81157 -29.0982,7.81752 -41.4732,11.1243204 -12.375,3.3068 -26.775,7.16465 -32,8.57298 -5.225,1.40834 -10.9401,2.77244 -12.7002,3.03134 -2.1783,0.32041 -4.0941,-0.16392 -6,-1.51686 -1.5399,-1.09317 -5.2748,-3.45309 -8.2998,-5.24427 -3.025,-1.79117 -7.3,-4.27488 -9.5,-5.5193304 -2.2,-1.24446 -11.2,-6.38576 -20,-11.42512 -8.8,-5.03935 -16.6052,-9.7541396 -17.3449,-10.4772996 -1.0255,-1.00257 -1.3716,-5.85572 -1.4571,-20.43421 -0.062,-10.51565 -0.1592,-19.11937 -0.2162,-19.11937 -0.057,0 -5.2513,1.31983 -11.5429,2.93296 -6.2915,1.61313 -16.6142,4.36275 -22.9392,6.11028 -6.325,1.74752 -14.7625,4.02769 -18.75,5.06704 -3.9875,1.03934 -10.5125,2.74697 -14.5,3.79472 -3.9875,1.04775 -15.8,4.20353 -26.25001,7.01284 -10.45,2.8093 -24.625,6.64494 -31.5,8.52364 -6.875,1.8787 -20.375,5.52057 -30,8.09304 -9.625,2.5724796 -25.825,6.9131196 -36,9.6458696 -10.175,2.73276 -22.55,6.02429 -27.5,7.31452 -4.95,1.29024 -21.6,5.7274804 -37,9.8605404 -15.4,4.13306 -36.55,9.82491 -47,12.64855 -10.45,2.82365 -22.15,5.97097 -26,6.99406 -3.85,1.02308 -12.175,3.23646 -18.5,4.91862 -6.325,1.68216 -16.675,4.46251 -23,6.17856 -6.325,1.71605 -18.7,5.04321 -27.5,7.39369 -8.8,2.35048 -21.175,5.65171 -27.5,7.33607 -6.325,1.68436 -19.15,5.14429 -28.5,7.68874 -9.35,2.54445 -20.375,5.4676 -24.5,6.4959 -4.125,1.02829 -14.25,3.71003 -22.5,5.9594 -8.25,2.24938 -23.55,6.38071 -34,9.18073 -10.45,2.80002 -26.425,7.10697 -35.5,9.570998 -9.075,2.46403 -19.65,5.28213 -23.5,6.26244 -3.85,0.98031 -11.275,2.94913 -16.5,4.37517 -5.225,1.42603 -16.925,4.57742 -26,7.00309 -9.075,2.42567 -25.275,6.75447 -36,9.61954 -11.43443,3.05459 -21.93179,6.49687 -25.37929,8.32234 -3.23361,1.71222 -7.89162,5.12545 -10.35114,7.58497 -2.45951,2.45952 -5.59295,6.24779 -6.96318,8.41838 -1.37023,2.17058 -3.63269,6.92704 -5.0277,10.56991 -1.82972,4.77808 -2.5679,8.71293 -2.64956,14.12339 -0.0791,5.24082 0.5629,9.65775 2.13129,14.6633 1.40775,4.49288 3.75968,9.08017 6.30893,12.30522 2.23545,2.82805 6.41813,6.64754 9.29485,8.48776 2.87672,1.84022 7.6533,4.06537 10.6146,4.94478 2.96131,0.87942 7.55992,1.59894 10.21913,1.59894 2.65921,0 9.66503,-1.32561 15.5685,-2.9458 5.90346,-1.62018 15.00857,-4.05472 20.23357,-5.41008 5.225,-1.35535 28.85,-7.65804 52.5,-14.00598 23.65,-6.34793 57.4,-15.41155 75,-20.14137 17.6,-4.72982 36.95,-9.8981 43,-11.48505 6.05,-1.58696 15.275,-4.05219 20.5,-5.47829 5.225,-1.4261 14.45,-3.87326 20.5,-5.43814 6.05,-1.56488 11.72632,-3.15116 12.61404,-3.52508 1.23356,-0.51958 1.76395,0.0697 2.25,2.49998 0.34978,1.74889 0.63596,32.79427 0.63596,68.98971 0,37.27259 -0.39591,66.85122 -0.913,68.21128 -0.74451,1.95821 -2.45158,2.82255 -9.25,4.68357 -4.58535,1.2552 -13.062,3.55698 -18.837,5.11506 -5.775,1.55808 -19.05,5.10082 -29.5,7.87275 -10.45,2.77194 -20.35,5.46476 -22,5.98405 -1.65,0.51929 -7.5,2.08757 -13,3.48507 -5.5,1.3975 -15.175,3.95003 -21.5,5.67228 -6.325,1.72225 -18.7,5.05086 -27.5,7.3969 -8.8,2.34604 -31.525,8.37803 -50.5,13.40443 -18.975,5.02639 -35.85,9.5558 -37.5,10.06534 -1.65,0.50954 -11.775,3.25048 -22.5,6.09096 -10.725,2.84048 -24.1374,6.47263 -29.80534,8.07143 -5.66794,1.5988 -14.32567,3.80243 -19.23941,4.89695 -7.1686,1.59678 -12.34497,1.96986 -26.19466,1.88794 -9.49333,-0.0562 -18.83559,-0.55859 -20.76059,-1.11654 z m 44,-3.72198 c 3.025,-0.60439 8.65,-1.96975 12.5,-3.03414 3.85,-1.06439 10.6,-2.89062 15,-4.05829 4.4,-1.16766 20.375,-5.43267 35.5,-9.47779 15.125,-4.04512 36.05,-9.66101 46.5,-12.47976 10.45,-2.81875 23.275,-6.26006 28.5,-7.64735 5.225,-1.3873 19.4,-5.18156 31.5,-8.43169 12.1,-3.25013 25.375,-6.82345 29.5,-7.94071 4.125,-1.11726 15.15,-4.07049 24.5,-6.56273 9.35,-2.49225 21.05,-5.6062 26,-6.9199 4.95,-1.31369 17.55,-4.66731 28,-7.45248 10.45,-2.78518 20.0125,-5.50219 21.25,-6.03781 l 2.25,-0.97386 v -67.02144 c 0,-36.86179 -0.30798,-67.02144 -0.6844,-67.02144 -0.37641,0 -3.18891,0.67027 -6.25,1.4895 -3.06108,0.81922 -17.9406,4.8121 -33.0656,8.87307 -15.125,4.06097 -37.85,10.14037 -50.5,13.50978 -12.65,3.3694 -37.4,9.97674 -55,14.68297 -17.6,4.70623 -44.6,11.95678 -60,16.11232 -15.4,4.15555 -32.275,8.625 -37.5,9.93212 -5.225,1.30713 -12.49741,2.38191 -16.16091,2.38841 -3.77582,0.007 -9.31323,-0.81367 -12.78444,-1.89403 -3.36794,-1.04822 -8.52107,-3.71601 -11.45138,-5.92842 -2.93031,-2.21241 -7.01331,-6.31863 -9.07333,-9.12494 -2.06002,-2.8063 -4.62431,-7.41524 -5.69843,-10.24208 -1.07411,-2.82684 -2.20754,-8.77548 -2.51873,-13.2192 -0.4075,-5.81904 -0.10324,-9.89806 1.0875,-14.5795 0.90931,-3.575 2.87874,-8.96308 4.37651,-11.97351 1.49776,-3.01043 5.52638,-8.45526 8.95249,-12.09963 3.61609,-3.84647 8.65008,-7.90813 12,-9.68217 3.17389,-1.68083 11.84572,-4.678 19.27072,-6.66039 7.425,-1.98239 17.55,-4.71589 22.5,-6.07444 4.95,-1.35855 19.125,-5.18177 31.5,-8.49603 12.375,-3.31426 28.35,-7.60176 35.5,-9.52778 7.15,-1.92603 20.425,-5.486468 29.5,-7.912098 9.075,-2.42563 20.775,-5.54428 26,-6.93033 5.225,-1.38606 24.8,-6.62703 43.5,-11.64661 18.7,-5.01958 39.625,-10.63683 46.5,-12.48278 6.875,-1.84595 15.875,-4.26388 20,-5.37318 4.125,-1.1093 16.725,-4.49013 28,-7.51294 11.275,-3.02282 23.9875,-6.42575 28.25,-7.56207 4.2625,-1.13632 11.2375,-2.98936 15.5,-4.11787 4.2625,-1.12851 15.85,-4.23699 25.75,-6.90774 9.9,-2.67075 32.175,-8.66434 49.5,-13.31908 17.325,-4.65474 41.85,-11.2206504 54.5,-14.5909204 12.65,-3.37027 36.275,-9.69057 52.5,-14.04512 16.225,-4.3545396 34.9,-9.3316096 41.5,-11.0601496 6.6,-1.72854 13.35,-3.56139 15,-4.07299 1.65,-0.51161 12.225,-3.38061 23.5,-6.37557 11.27501,-2.99497 32.20001,-8.59131 46.50001,-12.43634 14.3,-3.84502 33.2,-8.86384 42,-11.15293 8.8,-2.28909 26.6525,-7.04768 39.6723,-10.57465 13.0197,-3.52698 23.9322,-6.41268 24.25,-6.41268 0.3177,0 0.5777,20.25 0.5777,45 0,35.1072296 0.2722,45 1.2383,45 0.6811,0 8.2186,-1.85605 16.75,-4.12455 8.5315,-2.2685 25.4117,-6.7693004 37.5117,-10.0017604 12.1,-3.23247 27.3023,-7.30016 33.783,-9.03931 6.4806,-1.73915 12.5556,-3.72716 13.5,-4.4178 1.6049,-1.1737296 1.717,-8.5346296 1.717,-112.7529916 0,-61.32351 -0.322,-111.81919 -0.7155,-112.21263 -0.3936,-0.39345 -12.5436,2.46916 -27,6.36134 -14.4565,3.89219 -42.4845,11.40924 -62.2845,16.70456 -19.8,5.29533 -45.675,12.24134 -57.5,15.43558 -11.825,3.19425 -28.7,7.69422 -37.5,9.99993 -8.8,2.30572 -16.7875,4.41501 -17.75,4.68731 -1.6509,0.46706 -1.75,-2.50998 -1.75,-52.57229 0,-29.18706 -0.2865,-53.06739 -0.6366,-53.06739 -0.3502,0 -12.1627,3.11024 -26.25,6.91163 -14.0874,3.8014 -37.76341,10.1262 -52.61341,14.05511 -14.85,3.92892 -27.675,7.50503 -28.5,7.94691 -1.29427,0.69323 -1.56858,8.02854 -2,53.48179 -0.40849,43.03722 -0.74991,52.83274 -1.86551,53.52187 -0.75103,0.46392 -7.05103,2.29022 -14,4.05844 -6.94897,1.76822 -16.68449,4.30865 -21.63449,5.64541 -4.95,1.33676 -14.625,3.96309 -21.5,5.83629 -6.875,1.87321 -21.01062,5.69972 -31.41248,8.50336 -10.40186,2.80365 -19.33506,4.95668 -19.85154,4.78452 -0.51649,-0.17217 0.65413,-2.21996 2.60138,-4.55066 1.94724,-2.3307 4.88043,-6.59047 6.51819,-9.46615 1.63776,-2.87569 3.98827,-8.15352 5.22334,-11.72852 1.77391,-5.13469 2.25853,-8.81053 2.30718,-17.5 0.0504,-9.00575 -0.36017,-12.23518 -2.26476,-17.81307 -1.27949,-3.74719 -4.19272,-9.58927 -6.47383,-12.98239 -2.28111,-3.39312 -6.68802,-8.20224 -9.79312,-10.68693 -3.10509,-2.48468 -8.9173,-5.78755 -12.916,-7.33971 -4.01392,-1.55806 -10.26605,-3.07325 -13.95858,-3.38281 -4.46084,-0.37399 -9.15123,-0.0114 -14.084,1.08888 -4.06768,0.90728 -9.77657,2.75481 -12.68642,4.10564 -2.90985,1.35082 -8.01915,4.55558 -11.35401,7.1217 -3.33486,2.56611 -8.10465,7.41584 -10.59954,10.77717 -2.49489,3.36134 -5.8313,8.85092 -7.41423,12.19908 -1.58294,3.34816 -3.53704,9.19816 -4.34246,13 -0.80542,3.80184 -1.47221,9.42796 -1.48176,12.50248 -0.01,3.07452 0.87604,9.08321 1.96798,13.35265 1.09194,4.26944 3.40509,10.24407 5.14033,13.27695 1.73524,3.03289 5.60858,7.92904 8.60742,10.88035 2.99884,2.95131 8.33569,6.78544 11.85967,8.52029 3.52398,1.73485 6.40724,3.50674 6.40724,3.93754 0,0.4308 -1.4625,1.09361 -3.25,1.47292 -1.7875,0.37931 -10.675,2.66278 -19.75,5.07438 -9.075,2.411602 -18.075,4.838512 -20,5.393132 -1.925,0.55462 -14.3,3.89404 -27.5,7.42092 -13.2,3.52688 -41.1,10.98807 -62,16.58042 -20.9,5.59235 -49.7,13.30184 -64,17.1322 -14.3,3.83036 -36.8,9.86212 -50,13.40391 -13.2,3.54179 -34.8,9.34346 -48,12.89258 -13.2,3.54913 -27.6,7.41523 -32,8.59132 -4.4,1.1761 -13.85,3.70223 -21,5.61362 -7.15,1.91138 -15.72225,3.7324896 -19.04944,4.0468896 -3.32719,0.3144 -8.42284,0.0626 -11.32365,-0.55947 -2.90081,-0.6221196 -7.71822,-2.3278296 -10.70535,-3.7904896 -3.05383,-1.49531 -7.85445,-5.19996 -10.96738,-8.46354 -3.04493,-3.19229 -6.63933,-8.21364 -7.98756,-11.15855 -1.34822,-2.94491 -2.90476,-7.74538 -3.45897,-10.66771 -0.55421,-2.92233 -1.00231,-7.61441 -0.99578,-10.42684 0.007,-2.81243 0.61173,-7.36583 1.3449,-10.11866 0.73316,-2.75284 2.23636,-7.02784 3.34042,-9.5 1.10407,-2.47217 3.98637,-7.06117 6.40511,-10.19779 2.41873,-3.13662 6.6477,-7.45844 9.3977,-9.60405 2.75,-2.14561 7.925,-5.04798 11.5,-6.449722 3.575,-1.40173 12.575,-4.16823 20,-6.14776 7.425,-1.97954 27.9,-7.44688 45.5,-12.14963 17.6,-4.70276 45.5,-12.17476 62,-16.60445 16.5,-4.42969 42.15,-11.31988 57,-15.31153 14.85,-3.99165 37.575,-10.0594 50.5,-13.48388 12.925,-3.42448 25.975,-6.97326 29,-7.88618 l 5.5,-1.65986 0.25694,-67.60872 0.25695,-67.60872 -19.25695,5.23244 c -10.59131,2.87784 -32.08194,8.65884 -47.75694,12.84667 -15.675,4.18783 -42.9,11.47042 -60.5,16.18355 -17.6,4.71313 -41.225,11.04289 -52.5,14.06613 -11.275,3.02324 -24.325,6.54509 -29,7.82633 -4.675,1.28124 -21.325,5.75148 -37,9.93387 -15.675,4.18239 -42.9,11.46827 -60.5,16.19084 -17.6,4.72257 -36.05,10.18489 -41,12.13848 -4.95,1.95359 -11.7,5.11679 -15,7.02933 -3.3,1.91253 -8.94936,5.6579 -12.55414,8.32303 -3.60478,2.66513 -10.59489,9.03094 -15.53358,14.14623 -4.93868,5.1153 -11.50296,13.12554 -14.58729,17.80054 -3.08433,4.675 -7.17409,11.65 -9.08835,15.5 -1.91427,3.85 -4.66798,10.55317 -6.11937,14.89594 -1.45138,4.34277 -3.53402,12.28846 -4.62808,17.65709 -1.88247,9.23744 -1.98919,13.83675 -1.98919,85.725832 v 75.96469 l 2.43576,9.60205 c 1.3526,5.33213 4.33407,13.25084 6.70459,17.80729 2.86328,5.50358 6.66941,10.69804 11.55966,15.77617 4.00996,4.16402 7.29289,7.7386 7.29541,7.94351 0.003,0.20491 -2.66354,3.22479 -5.92457,6.710838 -3.26103,3.48606 -7.46912,8.96585 -9.35131,12.17732 -1.88219,3.21147 -4.6145,8.8194 -6.0718,12.46206 -1.45729,3.64267 -3.4367,9.47022 -4.39868,12.95012 -1.58804,5.7446 -1.74888,12.72543 -1.74712,75.82709 l 0.002,69.5 2.80073,10 c 1.5404,5.5 4.95333,14.5 7.58429,20 2.63095,5.5 7.57682,13.69395 10.99082,18.20878 3.414,4.51484 8.77519,10.52073 11.91377,13.34644 3.13857,2.8257 8.8565,7.27755 12.7065,9.89299 3.85,2.61544 10.15,6.21122 14,7.99062 3.85,1.77941 11.26814,4.37274 16.48476,5.76296 5.21663,1.39022 13.54163,2.81355 18.5,3.16294 4.95838,0.3494 12.61524,0.33338 17.01524,-0.0356 4.4,-0.36898 10.475,-1.16536 13.5,-1.76975 z m -30.5,-10.03061 c -3.85,-0.44644 -9.76748,-1.53621 -13.14997,-2.4217 -3.38248,-0.8855 -9.33321,-2.90542 -13.22384,-4.48873 -3.89063,-1.5833 -10.57315,-5.03233 -14.85003,-7.66451 -4.67498,-2.87718 -11.58205,-8.60796 -17.31935,-14.36981 -5.44618,-5.46949 -11.58868,-12.87968 -14.30775,-17.26061 -2.6205,-4.22212 -6.30044,-11.44382 -8.17764,-16.04823 -1.8772,-4.60441 -4.43871,-12.39995 -5.69225,-17.32342 -2.25183,-8.84438 -2.2791,-9.69556 -2.27315,-70.95177 0.006,-61.2882 0.0319,-62.09185 2.26015,-70 1.23978,-4.4 4.03086,-11.71673 6.20242,-16.25941 2.17155,-4.54267 5.38896,-10.39267 7.14979,-13 1.76084,-2.60732 5.8658,-7.5519 9.12214,-10.987938 l 5.92061,-6.24734 -6.90627,-6.75266 c -3.79845,-3.71396 -8.37965,-8.92406 -10.18045,-11.578 -1.80079,-2.65394 -4.74355,-8.05394 -6.53945,-12 -1.79591,-3.94606 -4.11346,-10.32465 -5.15012,-14.17465 -1.76852,-6.56799 -1.88484,-11.6904 -1.88484,-83 0,-60.45296 0.27809,-77.227402 1.3594,-82.000002 0.74768,-3.3 2.48357,-9.6 3.85755,-14 1.37398,-4.4 4.21124,-11.6 6.30501,-16 2.09378,-4.4 6.11621,-11.53333 8.93874,-15.85184 2.82254,-4.31851 9.37869,-12.22838 14.56924,-17.57749 5.19055,-5.34911 12.93222,-12.23403 17.20371,-15.29982 4.27149,-3.06579 11.45825,-7.4292 15.97058,-9.69646 4.51232,-2.26726 12.38732,-5.42143 17.5,-7.00926 5.11267,-1.58783 16.04577,-4.69438 24.29577,-6.90345 8.25,-2.20906 27.15,-7.25791 42,-11.21967 14.85,-3.96175 36.675,-9.7955 48.5,-12.96387 11.825,-3.16837 33.425,-8.95993 48,-12.87012 14.575,-3.9102 33.925,-9.10169 43,-11.53665 9.075,-2.43496 36.075,-9.66514 60,-16.06707 23.925,-6.40194 46.75423,-12.50937 50.73162,-13.57209 3.97739,-1.06271 7.46489,-1.93221 7.75,-1.93221 0.28511,0 0.51838,11.90917 0.51838,26.46482 0,24.41174 -0.13894,26.53917 -1.79097,27.42331 -0.98503,0.52717 -6.04753,2.08239 -11.25,3.45603 -5.20246,1.37365 -27.90903,7.45291 -50.45903,13.50946 -22.55,6.05656 -60.575,16.25115 -84.5,22.65466 -23.925,6.40351 -51.825,13.87994 -62,16.61429 -10.175,2.73434 -34.34094,9.219 -53.70209,14.41035 -19.36114,5.19135 -37.51125,10.31623 -40.33356,11.38863 -2.82231,1.07239 -8.13137,3.74245 -11.79791,5.93346 -3.66654,2.19102 -8.96893,5.96238 -11.78309,8.3808 -2.81416,2.41843 -7.15158,6.68836 -9.63872,9.48875 -2.48714,2.80038 -5.92549,7.1314 -7.64078,9.62449 -1.71528,2.49309 -4.89258,8.20104 -7.06066,12.68435 -2.16807,4.4833 -4.8897,12.27236 -6.04806,17.309032 -2.01142,8.74582 -2.09234,11.31576 -1.79967,57.15757 l 0.30645,47.9999996 3.22533,9.5000004 c 1.77394,5.225 5.25223,12.95372 7.72954,17.17494 2.47731,4.22121 7.36319,10.52121 10.8575,14 3.49431,3.47878 9.24059,8.02447 12.76951,10.10154 3.52891,2.07706 9.17389,4.63298 12.54438,5.67983 3.3705,1.04685 9.49326,2.3714 13.60613,2.94345 4.11287,0.57205 9.7927,0.76594 12.62183,0.43087 3.23571,-0.38322 5.14387,-0.22985 5.14387,0.41345 0,0.56246 -0.7875,1.26298 -1.75,1.55671 -0.9625,0.29372 -4.912,1.44493 -8.77666,2.55824 -3.86466,1.11331 -10.04325,3.37766 -13.73019,5.03188 -3.68695,1.65422 -9.52496,4.90879 -12.97335,7.23238 -3.44839,2.32359 -9.69598,7.63391 -13.88354,11.80071 -4.18756,4.1668 -9.71214,10.823458 -12.27683,14.792578 -2.5647,3.96912 -6.04476,10.26912 -7.73347,14 -1.68871,3.73088 -4.15164,11.00362 -5.47317,16.16164 -2.35205,9.18018 -2.40247,10.26776 -2.38744,51.5 0.0139,38.23387 0.19306,42.82688 1.94065,49.76089 1.05891,4.20151 3.12896,10.50151 4.60011,14 1.47116,3.49849 4.2048,8.66791 6.07476,11.48759 1.86996,2.81969 5.23977,7.21688 7.48847,9.77154 2.2487,2.55465 6.62927,6.57361 9.7346,8.93101 3.10533,2.3574 7.72049,5.47972 10.25591,6.93849 2.53542,1.45876 7.93542,3.74997 12,5.09157 4.06458,1.3416 11.346,2.98368 16.18093,3.64906 6.75414,0.9295 10.6927,0.9413 17,0.0509 4.51507,-0.63737 16.75922,-3.43771 27.20922,-6.22298 10.45,-2.78527 23.95,-6.39157 30,-8.01401 6.05,-1.62243 36.875,-9.8722 68.5,-18.33281 31.625,-8.46061 75.275,-20.15898 97,-25.99638 21.725,-5.83739 41.95704,-11.26137 44.9601,-12.05328 3.00305,-0.79191 5.81555,-1.43984 6.25,-1.43984 0.43444,0 0.7899,11.90917 0.7899,26.46482 0,24.18395 -0.15082,26.54489 -1.75,27.39396 -0.9625,0.51103 -10.3,3.19077 -20.75,5.95496 -10.45,2.7642 -36.1,9.62397 -57,15.24394 -20.9,5.61997 -46.1,12.36898 -56,14.9978 -9.9,2.62882 -35.1,9.37167 -56,14.98412 -20.9,5.61244 -42.725,11.48735 -48.5,13.05534 -5.775,1.56799 -19.95,5.30104 -31.5,8.29567 -17.23237,4.46792 -22.97352,5.53494 -32,5.94733 -6.05,0.27641 -14.15,0.13729 -18,-0.30916 z m 31.8602,-71.50511 c -3.92689,-0.71271 -8.87689,-1.85221 -11,-2.53224 -2.12311,-0.68003 -7.32374,-3.01897 -11.55696,-5.19765 -4.23321,-2.17869 -10.61803,-6.63807 -14.18848,-9.90974 -3.57046,-3.27167 -8.05085,-8.07244 -9.95644,-10.66837 -1.90559,-2.59592 -5.02276,-7.86892 -6.92705,-11.71777 -1.9043,-3.84884 -4.53536,-10.8229 -5.84681,-15.4979 -2.31911,-8.26705 -2.38446,-9.52774 -2.38446,-46 0,-35.94392 0.095,-37.85271 2.29037,-46 1.2597,-4.675 4.30344,-12.58943 6.76388,-17.58762 2.46043,-4.9982 7.53487,-12.8732 11.27654,-17.5 3.74166,-4.62681 9.92291,-11.037278 13.73612,-14.245498 3.8132,-3.20821 10.23122,-7.8895 14.26227,-10.40285 4.03105,-2.51336 10.33059,-5.6592 13.99898,-6.99075 3.66839,-1.33156 15.67026,-4.86298 26.67082,-7.84761 11.00056,-2.98463 24.27602,-6.58599 29.50102,-8.00303 5.225,-1.41703 27.92195,-7.49182 50.43768,-13.49953 22.51572,-6.00771 41.52822,-10.92311 42.25,-10.92311 1.04929,0 1.31232,5.18674 1.31232,25.87756 0,20.98594 -0.26518,26.09763 -1.40286,27.04182 -0.77157,0.64035 -10.33407,3.58003 -21.25,6.53262 -10.91593,2.95259 -35.37214,9.505678 -54.34714,14.562418 -18.975,5.05674 -37.27682,10.0215 -40.67071,11.0328 -3.39389,1.0113 -8.34389,2.95818 -11,4.3264 -2.65611,1.36822 -6.88735,4.21275 -9.40276,6.32117 -2.51541,2.10843 -6.00565,5.46466 -7.75608,7.45829 -1.75043,1.99363 -4.77082,6.26227 -6.71197,9.48585 -1.94116,3.22359 -4.63843,9.3718 -5.99393,13.66269 -1.83973,5.82374 -2.46154,10.00686 -2.45268,16.5 0.007,4.78411 0.66958,11.16998 1.47344,14.19082 0.80387,3.02084 2.88424,8.29531 4.62305,11.72105 1.91251,3.76794 5.58898,8.55961 9.30615,12.12902 3.37956,3.24523 8.38135,7.03307 11.11508,8.41743 2.73372,1.38436 7.41459,3.2422 10.40191,4.12854 2.98733,0.88633 8.61233,1.6107 12.5,1.6097 5.22271,-0.001 11.50769,-1.18845 24.0685,-4.54608 9.35,-2.49934 20.15,-5.38952 24,-6.42263 3.85,-1.0331 16.225,-4.35408 27.5,-7.37994 11.275,-3.02585 33.325,-8.93785 49,-13.13776 15.675,-4.1999 44.475,-11.91732 64,-17.14982 19.525,-5.23249 41.27042,-11.0545 48.32315,-12.93779 7.05274,-1.88329 13.01524,-3.42416 13.25,-3.42416 0.23477,0 0.42685,11.8699 0.42685,26.37756 0,19.90437 -0.30676,26.62188 -1.25,27.37318 -0.6875,0.5476 -3.95,1.67738 -7.25,2.51064 -3.3,0.83325 -10.5,2.71941 -16,4.19145 -5.5,1.47205 -30.925,8.29181 -56.5,15.15502 -25.575,6.86322 -58.425,15.6687 -73,19.56773 -14.575,3.89904 -43.825,11.76636 -65,17.48293 -21.175,5.71658 -42.55,11.0552 -47.5,11.86361 -4.95,0.80841 -10.575,1.43103 -12.5,1.38361 -1.925,-0.0474 -6.71291,-0.66935 -10.6398,-1.38206 z M 538.3823,76.660592 c -1.19587,-1.27295 -2.17431,-3.49386 -2.17431,-4.93536 0,-2.06542 5.82556,-8.72796 27.48645,-31.43554 15.11755,-15.84806 27.49255,-29.31349 27.5,-29.92319 0.007,-0.6097004 -11.57395,-8.4298004 -25.73645,-17.3780004 -14.1625,-8.9481996 -26.9875,-17.4210496 -28.5,-18.8285496 -1.5182,-1.4128 -2.75,-3.629 -2.75,-4.94767 0,-1.31372 1.04768,-3.32177 2.32817,-4.46233 1.60418,-1.42889 12.56585,-4.81577 35.25,-10.89138 18.10701,-4.84969 34.07232,-8.83245 35.47846,-8.85058 1.5324,-0.0198 7.91964,3.37232 15.94337,8.46705 7.3627,4.675 13.73217,8.5 14.15437,8.5 0.4222,0 5.65148,-5.0625 11.62062,-11.25 5.96914,-6.1875 13.20912,-13.7922 16.08884,-16.89933 2.87972,-3.10712 6.45093,-6.13499 7.93601,-6.7286 1.48509,-0.5936 12.05826,-3.5918 23.49594,-6.66267 11.43768,-3.07088 21.96817,-5.44301 23.4011,-5.2714 1.43293,0.1716 3.52139,1.5444 4.64102,3.05067 1.85384,2.49403 1.90734,2.99775 0.59889,5.63903 -0.79023,1.5952 -13.53481,15.6107 -28.32128,31.14555 l -26.88448,28.24519 5.38448,3.31595 c 2.96147,1.82377 15.46863,9.7508696 27.79369,17.6157796 12.32506,7.8649104 23.28505,15.4832504 24.35553,16.9296604 1.28206,1.73228 1.71378,3.36252 1.26496,4.77664 -0.37476,1.18075 -1.73706,2.83852 -3.02734,3.68395 -1.29028,0.84542 -8.11865,3.04429 -15.17416,4.88637 -7.0555,1.84208 -22.21213,5.87897 -33.68139,8.97086 -12.43932,3.3534 -21.68478,5.35768 -22.91422,4.96748 -1.13356,-0.35978 -7.62256,-4.20037 -14.42001,-8.53464 -6.79744,-4.33427 -13.16695,-7.88049 -14.15446,-7.88049 -1.01946,0 -8.95321,7.47229 -18.35644,17.28875 l -16.56097,17.28875 -22.93781,6.21125 c -12.6158,3.41619 -23.84152,6.21125 -24.94604,6.21125 -1.10452,0 -2.98666,-1.0415 -4.18254,-2.31445 z m 36.25669,-20.19287 8.22023,-2.50733 14.42439,-14.70685 c 7.93341,-8.08877 16.49759,-16.86048 19.03152,-19.49268 3.22087,-3.34578 5.40263,-4.78582 7.25083,-4.78582 1.62945,0 8.42129,3.68479 17.70335,9.60462 11.82777,7.54342 15.63685,9.5064 17.74917,9.14696 1.47923,-0.25172 9.66451,-2.38725 18.18951,-4.74563 8.525,-2.35837 17.83202,-4.79402 20.68226,-5.41255 2.85025,-0.61853 5.44519,-1.38751 5.76654,-1.70886 0.32134,-0.32135 -10.28109,-7.48282 -23.56098,-15.9143704 -13.27988,-8.43156 -24.98732,-16.2339696 -26.01653,-17.3386996 -1.02921,-1.10472 -1.87129,-3.05048 -1.87129,-4.32389 0,-1.64295 6.36487,-9.06551 21.91792,-25.56018 12.05486,-12.78469 21.77625,-23.38657 21.60308,-23.55973 -0.17316,-0.17316 -4.11763,0.84508 -8.76549,2.26276 l -8.45064,2.57761 -18.23991,18.98598 c -16.14589,16.80631 -18.60298,18.98575 -21.40243,18.98397 -2.0397,-0.001 -5.4703,-1.51872 -9.66253,-4.27392 -3.575,-2.34955 -9.91277,-6.39864 -14.08393,-8.99799 -4.35264,-2.71243 -8.78045,-4.72608 -10.39219,-4.72608 -1.54454,0 -5.78177,0.86059 -9.41607,1.91242 -3.63429,1.05183 -12.90781,3.58167 -20.60781,5.62187 -7.7,2.04021 -14.36179,4.0389 -14.80397,4.44156 -0.44218,0.40265 2.25782,2.59514 6,4.8722 3.74218,2.27706 14.40556,8.98027 23.69639,14.8960296 9.29082,5.91575 17.78694,11.95425 18.88025,13.41887 1.40913,1.88768 1.79243,3.44153 1.31662,5.3373104 -0.37916,1.51069 -6.61841,8.83681 -14.33919,16.83705 -7.51739,7.78948 -17.50207,18.10019 -22.18819,22.91269 -4.68612,4.8125 -8.14467,8.75 -7.68567,8.75 0.45899,0 4.53364,-1.1283 9.05476,-2.50732 z m -220.87029,1.92633 c -3.81661,-0.85618 -9.61948,-2.64575 -12.89527,-3.97682 -3.27578,-1.33107 -8.11462,-3.80533 -10.75296,-5.49835 -2.63835,-1.69303 -7.63548,-6.08805 -11.10474,-9.76673 -3.46926,-3.67868 -7.96007,-9.83594 -9.97959,-13.68281 -2.01951,-3.84686 -4.67564,-10.5943 -5.90249,-14.9943 -2.08474,-7.4767104 -2.25987,-10.5084404 -2.67749,-46.34897 -0.29218,-25.07476 -0.0548,-41.67278 0.68562,-47.9514 0.62287,-5.28133 2.48741,-13.64661 4.14343,-18.589512 1.65602,-4.94289 5.12861,-12.54887 7.71686,-16.90218 2.58826,-4.3533 7.11438,-10.57755 10.05805,-13.83166 2.94367,-3.2541 8.01031,-7.96198 11.25919,-10.46194 3.24889,-2.49996 9.39044,-6.30608 13.64788,-8.45805 5.22139,-2.6392 14.90118,-5.84715 29.7408,-9.85633 12.1,-3.26903 39.1,-10.51653 60,-16.10557 20.9,-5.58904 49.7,-13.29707 64,-17.12896 14.3,-3.8319 35.9,-9.62426 48,-12.87192 12.1,-3.24766 38.65,-10.37817 59,-15.84557 20.35,-5.46741 38.46992,-10.24975 40.26649,-10.62742 l 3.26649,-0.68667 -0.26649,26.83307 -0.26649,26.83308 -5.5,1.66963 c -3.025,0.91829 -12.25,3.46823 -20.5,5.66653 -8.25,2.19829 -27.15,7.24323 -42,11.21096 -14.85,3.96773 -36.675,9.80727 -48.5,12.97674 -11.825,3.16948 -32.525,8.71644 -46,12.32658 -13.475,3.61014 -41.34417,11.10155 -61.93149,16.64757 -27.76459,7.47951 -39.18928,11.00737 -44.23786,13.66032 -4.04344,2.12477 -9.47154,6.24182 -13.37194,10.142222 -3.61107,3.61107 -8.1176,9.34085 -10.01451,12.73285 -1.89692,3.392 -4.4197,8.82212 -5.60619,12.06694 -1.73349,4.74077 -2.175,8.25685 -2.24763,17.89966 -0.076,10.08949 0.27672,13.06234 2.21539,18.67258 1.26817,3.66992 4.46352,9.74512 7.10078,13.50044 3.08879,4.39827 6.99515,8.37116 10.978,11.16498 3.40064,2.3854096 8.75528,5.2841896 11.89921,6.4417396 4.33513,1.59612 8.13236,2.11807 15.71624,2.16025 9.5811,0.0533 11.4452,-0.33685 44.5,-9.3136396 18.975,-5.1531 41.74625,-11.33962 50.60277,-13.74781 8.85652,-2.4082 16.61902,-4.37854 17.25,-4.37854 0.83367,0 1.14304,7.038 1.13192,25.7499996 -0.008,14.1625 -0.34592,26.2472904 -0.75,26.8550904 -0.40408,0.6078 -2.30969,1.60842 -4.23469,2.22361 -1.925,0.61519 -9.575,2.73962 -17,4.72095 -7.425,1.98134 -16.65,4.42794 -20.5,5.4369 -3.85,1.00896 -16.45,4.38979 -28,7.51295 -11.55,3.12316 -30.225,8.13053 -41.5,11.12749 -16.34432,4.34441 -22.52716,5.5402 -30.5,5.89886 -6.89587,0.31022 -12.15405,-0.0334 -16.93929,-1.10684 z m 397.75221,-36.49896 c -1.15441,-0.42704 -2.82207,-1.80888 -3.70592,-3.07075 -1.42667,-2.03685 -1.607,-8.21059 -1.607,-55.01604 v -52.72173 l 2.25,-2.57485 c 1.7813,-2.03847 5.27054,-3.38576 16.75,-6.46761 7.975,-2.141012 24.6908,-6.632422 37.14622,-9.980912 12.45542,-3.34849 24.19817,-6.08816 26.09501,-6.08816 2.07114,0 4.10989,0.73051 5.10378,1.82874 1.49738,1.65459 1.65499,7.02037 1.65499,56.345012 0,51.0545396 -0.11333,54.6188396 -1.78474,56.1314396 -0.98161,0.88835 -11.89137,4.35451 -24.24392,7.70258 -12.35254,3.3480704 -28.53691,7.7000804 -35.96526,9.6711204 -7.42834,1.97105 -14.87592,3.90634 -16.55016,4.30066 -1.67425,0.39432 -3.9886,0.36754 -5.143,-0.0595 z m 43.18708,-24.4254704 c 13.75,-3.64306 25.37246,-6.98964 25.82769,-7.43685 0.45523,-0.4472096 0.77689,-20.3089996 0.71479,-44.1372996 -0.0621,-23.8283 -0.29443,-43.50572 -0.5163,-43.72759 -0.22188,-0.22187 -3.01853,0.26427 -6.21479,1.08032 -3.19627,0.81604 -15.48639,4.03558 -27.31139,7.15453 -11.825,3.11894 -22.625,6.2283 -24,6.90969 l -2.5,1.23888 -0.26037,44.16105 -0.26036,44.1610496 4.76036,-1.39003 c 2.61821,-0.76451 16.01037,-4.3707 29.76037,-8.01375 z m 363.50001,8.50542 c -1.1,-1.1 -2.017,-2.5625 -2.0379,-3.25 -0.021,-0.6875 -0.1333,-20.9001596 -0.25,-44.9170096 -0.1166,-24.01686 -0.5231,-43.97785 -0.9032,-44.35776 -0.3801,-0.37991 -3.9801,1.3563 -8,3.85824 -4.0199,2.50194 -10.2339,5.91025 -13.8089,7.57402 -3.575,1.66377 -9.425,3.77348 -13,4.68824 -4.9681,1.27122 -8.9746,1.52796 -17,1.08934 -7.356,-0.40203 -12.6496,-1.31403 -17.6792,-3.0458 -3.9485,-1.35957 -9.2166,-3.66597 -11.7068,-5.12534 -2.4902,-1.45936 -6.9999,-5.32371 -10.0216,-8.58743 -3.0216,-3.26372 -6.8187,-8.74484 -8.438,-12.18027 -1.6193,-3.435432 -3.4207,-8.533772 -4.003,-11.329642 -0.5824,-2.79588 -1.1287,-17.78122 -1.2142,-33.30076 -0.1415,-25.71536 0,-28.39064 1.6135,-30.1718 0.9728,-1.07496 4.7344,-2.81156 8.359,-3.85911 3.6247,-1.04756 20.4101,-5.59843 37.3011,-10.11304 20.0416,-5.35675 31.5828,-7.98951 33.2211,-7.57833 1.3807,0.34654 3.0383,1.6165 3.6835,2.82214 0.7671,1.43319 1.3829,11.60607 1.7789,29.38475 0.5534,24.84516 0.7702,27.37426 2.5107,29.29612 1.0477,1.15689 2.6227,2.09356 3.5,2.08148 0.8772,-0.0121 3.4724,-0.87437 5.767,-1.91621 2.2947,-1.04183 4.9417,-3.06885 5.8824,-4.50449 1.5238,-2.32558 1.6901,-5.69315 1.525,-30.87935 -0.1115,-17.00142 0.2153,-29.32283 0.8198,-30.91275 0.5528,-1.454 1.9096,-3.12772 3.0151,-3.71937 1.1055,-0.59165 18.1145,-5.43094 37.7979,-10.75397 19.6833,-5.32303 37.8719,-9.85614 40.4191,-10.07358 3.9524,-0.33738 4.8686,-0.0566 6.25,1.91568 1.4657,2.09258 1.6187,11.87313 1.6187,103.47772 0,94.875212 -0.1088,101.298512 -1.75,103.286072 -1.3415,1.62459 -8.2867,3.86309 -29.75,9.5886196 -15.4,4.10809 -32.95,8.83744 -39,10.50968 -6.05,1.67223 -11.7875,3.0322 -12.75,3.02216 -0.9625,-0.01 -2.65,-0.91825 -3.75,-2.01825 z m 31.5,-19.4580296 c 9.9,-2.6034 23.175,-6.1629 29.5,-7.91 l 11.5,-3.17653 0.2552,-91.727722 c 0.1404,-50.45025 -0.098,-91.72772 -0.5299,-91.72772 -0.4318,0 -13.9836,3.54105 -30.1152,7.869 -16.1614,4.33594 -29.7229,8.48905 -30.2048,9.25 -0.4811,0.75955 -0.8816,13.21143 -0.89,27.67084 -0.014,23.93217 -0.1875,26.62731 -1.9351,30.05291 -1.0559,2.06968 -3.4184,5.25908 -5.25,7.08754 -1.8316,1.82845 -5.7243,4.43959 -8.6503,5.80251 -3.6162,1.68433 -7.1395,2.49462 -11,2.5298 -3.3122,0.0302 -6.9305,-0.60185 -8.6799,-1.51615 -1.65,-0.86234 -4.2089,-2.84557 -5.6864,-4.40717 -1.4775,-1.56161 -3.2457,-4.18928 -3.9293,-5.83928 -0.7997,-1.93022 -1.4465,-11.20162 -1.8136,-26 -0.4861,-19.59114 -0.793,-22.98418 -2.0707,-22.89326 -0.825,0.0587 -12.075,2.89837 -25,6.31037 -12.925,3.41199 -25.075,6.75741 -27,7.43425 l -3.5,1.23062 -0.2685,23.88938 c -0.2193,19.50504 0.025,24.91155 1.3313,29.45901 0.8799,3.0633 2.9554,7.69978 4.6123,10.303292 1.6568,2.60351 5.2091,6.34615 7.8939,8.31697 2.6848,1.97083 7.4801,4.55869 10.6562,5.75082 4.7368,1.77789 7.9342,2.17029 17.7882,2.18302 l 12.0134,0.0155 10.7326,-5.33364 c 5.9029,-2.93351 14.864,-8.49197 19.9137,-12.352152 5.0496,-3.86018 10.2395,-7.50069 11.5329,-8.09004 1.9062,-0.86853 2.8673,-0.68668 5.0729,0.95986 l 2.7211,2.03139 0.2595,49.245642 c 0.2039,38.69319 0.5253,49.1458596 1.5,48.7799996 0.6823,-0.2561 9.3405,-2.5956896 19.2405,-5.1990896 z m -308.38768,-6.05639 c -2.96323,-0.83328 -8.00803,-2.91169 -11.21069,-4.61869 -3.20266,-1.707 -8.26342,-5.66214 -11.24613,-8.78921 -2.98272,-3.12706 -6.56072,-7.93051 -7.95112,-10.67434 -1.3904,-2.74382 -3.28866,-7.60534 -4.21835,-10.80338 -1.30018,-4.47246 -1.59314,-8.50201 -1.26919,-17.45729 0.31228,-8.63254 1.00253,-13.3232 2.66979,-18.14267 1.23674,-3.575 4.08621,-9.65 6.33216,-13.500002 2.42618,-4.15894 7.57351,-10.45512 12.68237,-15.51296 6.32935,-6.26614 10.5783,-9.50118 16.09883,-12.25721 4.125,-2.05933 11.05948,-4.641 15.40996,-5.73704 4.35048,-1.09603 10.92656,-1.99279 14.61351,-1.99279 3.68695,0 9.0544,0.44583 11.92765,0.99073 2.87325,0.5449 8.22217,2.4574 11.88649,4.25 3.66431,1.7926 6.99989,3.40927 7.41239,3.5926 0.4125,0.18334 0.75,-26.41848 0.75,-59.11514 0,-57.44675 0.0657,-59.53203 1.95198,-61.93001 1.55831,-1.98108 4.83548,-3.24708 16.25,-6.27751 7.86391,-2.08779 25.54802,-6.83462 39.29803,-10.54851 13.75,-3.71389 26.3795,-7.04223 28.0656,-7.3963 2.2888,-0.48065 3.7458,-0.10874 5.75,1.46776 l 2.6844,2.11154 v 107.75311 107.753102 l -2.25,2.03255 c -1.4643,1.32281 -9.2338,3.86495 -22.25,7.28011 -11,2.88615 -28.89658,7.67495 -39.77017,10.64176 -10.87358,2.96682 -21.04134,5.39421 -22.59501,5.39421 -1.55367,0 -3.51088,-0.7875 -4.34935,-1.75 -0.83848,-0.9625 -1.92072,-2.97305 -2.40499,-4.46788 l -0.88049,-2.71788 -6.35521,5.38463 c -3.49536,2.96155 -8.99648,6.79241 -12.2247,8.51304 -3.22822,1.72062 -8.46838,4.04887 -11.64479,5.17388 -4.02301,1.42485 -9.11283,2.16978 -16.7753,2.45516 -7.86951,0.2931 -12.53328,-0.0215 -16.38767,-1.10537 z m 35.33456,-17.40279 c 6.88378,-3.33195 10.42995,-5.87361 15.95228,-11.43357 3.90546,-3.93207 8.40234,-9.62422 9.99306,-12.64922 1.59073,-3.025 3.80668,-6.5125 4.92432,-7.75 1.19491,-1.32306 3.19619,-2.25 4.85776,-2.25 1.55413,0 3.72569,0.9 4.82569,2 1.74543,1.74543 2,3.33333 2,12.47525 v 10.47525 l 2.28835,-0.87003 c 1.2586,-0.47852 14.4211,-4.09842 29.25,-8.04422 14.82896,-3.9458 28.53666,-7.72434 30.46166,-8.39674 l 3.5,-1.22255 0.2549,-97.658182 0.2549,-97.65817 -2.7549,0.88641 c -1.5152,0.48752 -14.9049,4.08322 -29.75491,7.99044 -14.85,3.90722 -28.4625,7.75342 -30.25,8.54711 l -3.25,1.44307 v 66.79368 c 0,58.83502 -0.18549,67.05849 -1.5567,69.01617 -1.09615,1.56497 -2.57542,2.22251 -5,2.22251 -2.07861,0 -4.21489,-0.77159 -5.39012,-1.94682 -1.07075,-1.07075 -2.61662,-3.24207 -3.43526,-4.82515 -0.81864,-1.58308 -3.37499,-4.58272 -5.68078,-6.66585 -2.30578,-2.08314 -6.27241,-4.72168 -8.81474,-5.86343 -3.22221,-1.44708 -7.40528,-2.20553 -13.80944,-2.50385 -7.3317,-0.34153 -10.56292,-0.009 -16,1.64701 -3.74713,1.14123 -9.06296,3.50501 -11.81296,5.25285 -2.75,1.74783 -6.7529,4.67818 -8.89532,6.51188 -2.14243,1.8337 -5.6797,5.70877 -7.86059,8.61127 -2.18089,2.902492 -5.19385,7.753352 -6.69546,10.779682 -1.50161,3.02632 -3.36435,7.75241 -4.13942,10.50241 -0.77506,2.75 -1.38486,8.375 -1.35509,12.5 0.0314,4.35365 0.78528,9.66028 1.79698,12.64948 0.95857,2.83222 3.08593,7.17714 4.72745,9.65539 1.64152,2.47825 4.6221,5.7549 6.6235,7.28144 2.0014,1.52654 6.14969,3.83702 9.21843,5.13439 4.92941,2.084 6.80851,2.31735 16.12724,2.00264 10.04235,-0.33914 10.97181,-0.56148 19.39917,-4.64055 z M 775.70799,-116.42711 c -2.2,-0.69759 -5.99198,-2.29218 -8.42663,-3.54353 -2.43464,-1.25135 -6.74437,-4.46721 -9.57717,-7.14636 -2.8328,-2.67914 -6.37997,-7.30109 -7.88261,-10.27099 -1.50263,-2.9699 -3.37506,-7.81568 -4.16095,-10.76839 -0.7859,-2.95272 -1.43424,-7.93393 -1.44077,-11.06936 -0.007,-3.13543 0.48542,-8.08543 1.09321,-11 0.6078,-2.91457 2.44618,-8.14397 4.08529,-11.62088 1.76617,-3.74645 5.58696,-9.08496 9.37932,-13.10507 4.5336,-4.80585 8.51726,-7.85602 13.66472,-10.46266 4.51932,-2.28855 9.89749,-4.08635 14.22861,-4.7563 5.09562,-0.7882 8.83286,-0.76826 13.93517,0.0744 4.05873,0.67029 9.47387,2.48483 12.95902,4.34239 3.29277,1.75503 8.15306,5.3916 10.80063,8.08127 2.64758,2.68967 5.93146,7.19821 7.29752,10.01898 1.36606,2.82078 3.17244,7.81072 4.01419,11.08878 0.84175,3.27805 1.5238,8.00305 1.51567,10.5 -0.008,2.49694 -0.69333,7.4185 -1.52266,10.93679 -0.82933,3.51828 -3.13645,9.49607 -5.12694,13.28396 -1.99048,3.7879 -5.93142,9.2343 -8.75765,12.10312 -2.82623,2.86882 -7.9165,6.69374 -11.3117,8.49984 -3.3952,1.8061 -8.33156,3.93872 -10.96968,4.73918 -2.63813,0.80045 -8.17159,1.43013 -12.29659,1.39929 -4.125,-0.0308 -9.3,-0.62683 -11.5,-1.32443 z m 26.33291,-16.15065 c 4.3081,-2.15525 8.52563,-5.20383 10.72166,-7.75 1.99102,-2.30846 4.54938,-5.9972 5.68524,-8.1972 1.13587,-2.2 2.66625,-6.25 3.40084,-9 0.73458,-2.75 1.34095,-6.54548 1.34748,-8.4344 0.007,-1.88891 -0.7038,-5.98501 -1.5785,-9.10243 -0.8747,-3.11741 -3.2372,-7.82748 -5.25,-10.46682 -2.0128,-2.63933 -5.94278,-6.07934 -8.7333,-7.64447 -3.2217,-1.80696 -7.2621,-3.07442 -11.0691,-3.47233 -4.15526,-0.43431 -7.66834,-0.14032 -11.44594,0.95786 -2.99779,0.87148 -7.53419,2.96467 -10.08089,4.65154 -2.5467,1.68686 -6.43706,5.41693 -8.64523,8.28904 -2.20818,2.8721 -4.95318,8.02031 -6.10002,11.44046 -1.14683,3.42015 -2.08515,8.62598 -2.08515,11.5685 0,2.94253 0.67945,7.638 1.50989,10.43439 0.97573,3.28565 3.17963,6.9415 6.22972,10.33394 2.73433,3.04124 6.83173,6.23304 9.74011,7.58739 3.77109,1.75608 6.79085,2.34022 12.13592,2.34756 6.16401,0.008 8.06541,-0.46538 14.21727,-3.54303 z"
       id="path970" />
  </g>
</svg>
