<?xml version="1.0" encoding="UTF-8" standalone="no"?>
<svg
   version="1.0"
   width="1198.6467"
   height="718.0675"
   viewBox="0 0 1198.6467 718.0675"
   preserveAspectRatio="xMidYMid meet"
   id="svg261"
   sodipodi:docname="finalfantasy.svg"
   inkscape:version="1.1.2 (0a00cf5339, 2022-02-04, custom)"
   xmlns:inkscape="http://www.inkscape.org/namespaces/inkscape"
   xmlns:sodipodi="http://sodipodi.sourceforge.net/DTD/sodipodi-0.dtd"
   xmlns:xlink="http://www.w3.org/1999/xlink"
   xmlns="http://www.w3.org/2000/svg"
   xmlns:svg="http://www.w3.org/2000/svg">
  <sodipodi:namedview
     id="namedview263"
     pagecolor="#ffffff"
     bordercolor="#666666"
     borderopacity="1.0"
     inkscape:pageshadow="2"
     inkscape:pageopacity="0.0"
     inkscape:pagecheckerboard="0"
     showgrid="false"
     inkscape:zoom="0.88493377"
     inkscape:cx="596.0898"
     inkscape:cy="359.34892"
     inkscape:window-width="1920"
     inkscape:window-height="1017"
     inkscape:window-x="-8"
     inkscape:window-y="-8"
     inkscape:window-maximized="1"
     inkscape:current-layer="svg261" />
  <defs
     id="defs61">
    <linearGradient
       id="lg0"
       gradientUnits="userSpaceOnUse"
       x1="319.00003"
       y1="545"
       x2="727.99994"
       y2="309">
      <stop
         offset="0%"
         style="stop-color:rgb(194,201,217);"
         id="stop2" />
      <stop
         offset="30%"
         style="stop-color:rgb(122,153,190);"
         id="stop4" />
      <stop
         offset="68%"
         style="stop-color:rgb(73,123,117);"
         id="stop6" />
      <stop
         offset="100%"
         style="stop-color:rgb(45,83,68);"
         id="stop8" />
    </linearGradient>
    <linearGradient
       id="lg1"
       gradientUnits="userSpaceOnUse"
       x1="480"
       y1="449"
       x2="1206"
       y2="28.999998">
      <stop
         offset="0%"
         style="stop-color:rgb(97,135,153);"
         id="stop11" />
      <stop
         offset="1%"
         style="stop-color:rgb(95,133,150);"
         id="stop13" />
      <stop
         offset="2%"
         style="stop-color:rgb(98,138,154);"
         id="stop15" />
      <stop
         offset="9%"
         style="stop-color:rgb(87,132,137);"
         id="stop17" />
      <stop
         offset="14%"
         style="stop-color:rgb(76,125,121);"
         id="stop19" />
      <stop
         offset="19%"
         style="stop-color:rgb(67,117,108);"
         id="stop21" />
      <stop
         offset="32%"
         style="stop-color:rgb(48,86,72);"
         id="stop23" />
      <stop
         offset="33%"
         style="stop-color:rgb(45,84,68);"
         id="stop25" />
      <stop
         offset="39%"
         style="stop-color:rgb(35,66,51);"
         id="stop27" />
      <stop
         offset="45%"
         style="stop-color:rgb(25,28,25);"
         id="stop29" />
      <stop
         offset="46%"
         style="stop-color:rgb(23,22,20);"
         id="stop31" />
      <stop
         offset="50%"
         style="stop-color:rgb(21,16,16);"
         id="stop33" />
      <stop
         offset="63%"
         style="stop-color:rgb(21,16,16);"
         id="stop35" />
      <stop
         offset="64%"
         style="stop-color:rgb(20,16,15);"
         id="stop37" />
      <stop
         offset="76%"
         style="stop-color:rgb(20,15,15);"
         id="stop39" />
      <stop
         offset="77%"
         style="stop-color:rgb(20,16,15);"
         id="stop41" />
      <stop
         offset="79%"
         style="stop-color:rgb(21,16,16);"
         id="stop43" />
      <stop
         offset="99%"
         style="stop-color:rgb(5,3,4);"
         id="stop45" />
      <stop
         offset="100%"
         style="stop-color:rgb(11,9,8);"
         id="stop47" />
    </linearGradient>
    <linearGradient
       id="lg2"
       gradientUnits="userSpaceOnUse"
       x1="363.99997"
       y1="710.00006"
       x2="609"
       y2="569">
      <stop
         offset="0%"
         style="stop-color:rgb(224,226,229);"
         id="stop50" />
      <stop
         offset="10%"
         style="stop-color:rgb(205,210,223);"
         id="stop52" />
      <stop
         offset="11%"
         style="stop-color:rgb(203,209,222);"
         id="stop54" />
      <stop
         offset="15%"
         style="stop-color:rgb(197,203,219);"
         id="stop56" />
      <stop
         offset="100%"
         style="stop-color:rgb(101,140,160);"
         id="stop58" />
    </linearGradient>
    <linearGradient
       inkscape:collect="always"
       xlink:href="#lg1"
       id="linearGradient1080"
       gradientUnits="userSpaceOnUse"
       x1="480"
       y1="449"
       x2="1206"
       y2="28.999998" />
    <linearGradient
       inkscape:collect="always"
       xlink:href="#lg0"
       id="linearGradient1082"
       gradientUnits="userSpaceOnUse"
       x1="319.00003"
       y1="545"
       x2="727.99994"
       y2="309" />
    <linearGradient
       inkscape:collect="always"
       xlink:href="#lg1"
       id="linearGradient1084"
       gradientUnits="userSpaceOnUse"
       x1="480"
       y1="449"
       x2="1206"
       y2="28.999998" />
    <linearGradient
       inkscape:collect="always"
       xlink:href="#lg2"
       id="linearGradient1086"
       gradientUnits="userSpaceOnUse"
       x1="363.99997"
       y1="710.00006"
       x2="609"
       y2="569" />
    <linearGradient
       inkscape:collect="always"
       xlink:href="#lg0"
       id="linearGradient1088"
       gradientUnits="userSpaceOnUse"
       x1="319.00003"
       y1="545"
       x2="727.99994"
       y2="309" />
    <linearGradient
       inkscape:collect="always"
       xlink:href="#lg0"
       id="linearGradient1090"
       gradientUnits="userSpaceOnUse"
       x1="319.00003"
       y1="545"
       x2="727.99994"
       y2="309" />
    <linearGradient
       inkscape:collect="always"
       xlink:href="#lg0"
       id="linearGradient1092"
       gradientUnits="userSpaceOnUse"
       x1="319.00003"
       y1="545"
       x2="727.99994"
       y2="309" />
    <linearGradient
       inkscape:collect="always"
       xlink:href="#lg2"
       id="linearGradient1094"
       gradientUnits="userSpaceOnUse"
       x1="363.99997"
       y1="710.00006"
       x2="609"
       y2="569" />
    <linearGradient
       inkscape:collect="always"
       xlink:href="#lg2"
       id="linearGradient1096"
       gradientUnits="userSpaceOnUse"
       x1="363.99997"
       y1="710.00006"
       x2="609"
       y2="569" />
    <linearGradient
       inkscape:collect="always"
       xlink:href="#lg2"
       id="linearGradient1098"
       gradientUnits="userSpaceOnUse"
       x1="363.99997"
       y1="710.00006"
       x2="609"
       y2="569" />
  </defs>
  <g
     fill="#1c2922"
     id="g115"
     transform="translate(-8,-1.6299329)">
    <path
       d="m 461.7,718.5 c -3.1,-0.8 -11,-3.9 -17.5,-6.9 -6.5,-3 -15,-6.5 -18.8,-7.8 -8.9,-3.1 -9.4,-3.4 -9.4,-6.8 0,-3.2 1.8,-4.2 6.5,-3.4 5.9,0.9 23.1,1.2 29.7,0.4 3.7,-0.4 8,-1.6 9.5,-2.6 l 2.8,-1.8 -4.4,-0.8 c -2.4,-0.4 -18.4,-1.4 -35.4,-2.3 -18.7,-0.9 -31.6,-2 -32.4,-2.7 -2.5,-2.1 -1.4,-4.4 3.3,-6.7 2.9,-1.3 4.3,-2.6 3.8,-3.1 -0.5,-0.5 -4.1,-1.3 -7.9,-1.7 -6.8,-0.8 -6.9,-0.9 -7.2,-3.9 -0.5,-4.1 2.3,-5.9 10.2,-6.7 3.3,-0.3 6.9,-0.9 7.9,-1.3 1.9,-0.7 1.9,-0.8 0,-1.5 -1,-0.4 -4.9,-0.8 -8.5,-0.8 -5.8,-0.1 -6.7,-0.4 -7.2,-2.1 -0.3,-1 0.1,-2.4 0.9,-3.1 2.2,-1.8 1.7,-2.5 -2.8,-3.5 -3.9,-0.8 -4.3,-1.1 -4,-3.6 0.2,-2 -0.1,-2.8 -1.1,-2.8 -0.9,0 -1.7,-0.4 -1.9,-0.8 -0.1,-0.5 -2.5,-2.5 -5.3,-4.5 -4.9,-3.4 -5.2,-3.5 -16,-3.9 -8.7,-0.3 -12,-0.8 -15.6,-2.5 -5.8,-2.8 -8.9,-2.2 -8.9,1.8 0,3.3 -0.8,3.5 -6.8,1.4 -4.9,-1.7 -12.1,-8.4 -14.7,-13.5 -0.9,-1.9 -3.8,-5.7 -6.4,-8.5 -2.5,-2.7 -4.2,-4.7 -3.8,-4.4 0.4,0.4 2.3,-0.7 4.2,-2.4 2.7,-2.3 3.5,-3.8 3.4,-6.1 -0.1,-1.7 -0.3,-2.3 -0.6,-1.4 -0.3,1.4 -1,1.1 -3.9,-1.8 -2.9,-3 -3.2,-3.9 -2.3,-5.6 0.6,-1.1 0.9,-2.8 0.6,-3.8 -0.4,-1.4 0.2,-2 2.5,-2.5 2,-0.5 2.8,-1.1 2.4,-2.1 -0.4,-1 -0.2,-1.3 0.7,-0.8 0.7,0.5 0.6,0.1 -0.2,-1 -1.1,-1.3 -1.2,-1.9 -0.3,-2.5 1.6,-0.9 7.2,-0.2 7.2,1 0,0.5 0.7,0.6 1.5,0.3 0.8,-0.4 1.5,-0.2 1.5,0.3 0,0.5 1.5,0.7 3.4,0.5 2.9,-0.3 3.6,-0.9 4.1,-3.3 l 0.7,-2.9 42.1,0.1 c 23.2,0 44,0.3 46.2,0.7 3.5,0.7 4,1 3.6,3.2 -0.1,1.4 -0.8,2.9 -1.5,3.3 -1.4,1 9.2,0.6 11.9,-0.4 1.1,-0.4 7.1,-2.2 13.2,-3.9 l 11.2,-3.1 85.3,0.3 c 46.9,0.2 86.1,0.7 87.1,1.2 0.9,0.4 1.7,1.4 1.7,2.1 0,0.8 1.6,1.9 3.5,2.5 4.4,1.5 4.5,3.2 0.3,9.5 -3.8,5.7 -10,12.6 -28.3,31.5 -7.2,7.4 -15.7,16.7 -18.8,20.6 -3.1,4 -6.8,8.1 -8.3,9.3 -5.2,4.1 0.3,2.1 6.1,-2.1 3.1,-2.4 6.7,-4.3 7.9,-4.4 2.8,-0.1 15.4,-6.3 16.9,-8.3 0.7,-0.9 2.5,-1.6 4,-1.6 2.5,-0.1 2.8,0.2 2.4,2.5 -0.2,1.4 -0.8,3.3 -1.2,4.3 -0.6,1.5 -0.4,1.7 1.9,1.1 2.8,-0.7 3.6,1.2 1.4,3.4 -2.2,2.2 0.3,1.3 4.6,-1.7 2.4,-1.7 7,-6 10.3,-9.8 8,-9.1 8.2,-9.5 4.3,-8.8 -2.5,0.4 -3.1,0.3 -2.7,-0.8 0.3,-0.8 0,-2 -0.6,-2.6 -0.8,-0.8 0,-2 3,-4.6 2.4,-2 4.7,-5.1 5.4,-7.3 0.6,-2 2.1,-5 3.3,-6.7 2.2,-3.1 3,-5.9 1.5,-4.9 -1.7,1 -0.9,-1.3 1.6,-5 2.3,-3.5 2.6,-6.4 0.4,-5.1 -1.1,0.7 -1.2,-3.5 -0.1,-5.1 0.4,-0.7 2.3,-1.9 4.2,-2.7 2.2,-1 2.8,-1.6 1.7,-1.6 -1.3,-0.1 -1.7,-0.7 -1.5,-2.3 0.3,-2.2 0.7,-2.3 9.8,-2.4 12.7,-0.1 18,0.5 18,2.1 0,1.6 4.9,5.7 6,5 0.5,-0.3 0.7,0.5 0.6,1.8 -0.4,3.8 -7.7,13.4 -30.1,40.2 -14.6,17.5 -18.1,21.1 -23.8,24.6 -2.9,1.8 -9.2,7.1 -14.2,11.9 -4.9,4.8 -11.2,10.1 -14,12 -5.4,3.6 -10.5,8.5 -10.5,10.1 0,0.6 0.5,0.7 1,0.4 0.6,-0.3 1,0.3 1,1.4 0,3.3 -20.9,18.1 -25.7,18.1 -4.4,0 -3.7,-2.3 2.2,-7.7 l 5.9,-5.2 -4.9,1.5 c -3.7,1.1 -6.7,1.3 -11.5,0.7 -10.1,-1.2 -10.8,-0.9 -18.5,7.2 -6.6,6.9 -7.6,7.5 -18,11.5 -20.6,7.8 -26.6,9.2 -41.5,9.6 -9.6,0.3 -15.2,-0.1 -19.3,-1.1 z M 406.8,605.8 c 0.7,-0.7 1.2,-0.9 1.2,-0.4 0,1.1 6.2,-3.5 9,-6.8 4.4,-5.1 4.4,-5.7 -0.2,-3.6 -2.4,1 -7.2,2.1 -10.7,2.4 -8.9,0.9 -13.8,3.6 -12.5,7 0.9,2.4 11.1,3.5 13.2,1.4 z"
       id="path63" />
    <path
       d="m 8,566.7 c 0,-2.3 0.3,-5.2 0.6,-6.4 l 0.6,-2.1 590,0.1 c 588.7,0.2 590,0.2 591.4,2.2 0.9,1.1 1.3,3.5 1.1,5.5 -0.3,3.4 -0.5,3.5 -5.2,4.2 -2.8,0.3 -269,0.6 -591.7,0.6 H 8 Z"
       id="path65" />
    <path
       fill="url(#lg1)"
       d="m 497.7,554.4 c -0.3,-0.4 0.4,-2.4 1.6,-4.6 1.6,-2.9 1.9,-4.2 1,-4.5 -2.7,-1 4.8,-5.9 11.5,-7.7 5.6,-1.4 10.2,-1.7 27,-1.4 22.7,0.3 22.6,0.3 21.8,-6.4 -0.2,-2.1 -1.3,-5.7 -2.5,-8 -4.5,-9.5 -4.4,-8.9 -4.2,-43.8 0.2,-26.7 0.6,-33.9 1.7,-35.4 0.8,-1.1 1.4,-1.5 1.4,-0.8 0,0.6 0.6,1.1 1.3,0.9 0.8,-0.1 1.3,1.2 1.5,3.8 0.4,6.6 1.2,10.5 2.2,10.5 0.6,0 1,-1 1,-2.2 0,-3.3 1,-4.4 5.2,-5.7 2.1,-0.7 4,-1.7 4.4,-2.2 0.3,-0.5 0.6,-22.3 0.6,-48.3 0,-26 0.4,-48 0.9,-48.7 0.8,-1.2 1.1,-1.2 1.9,0.1 0.5,0.8 1,2.2 1,3.1 0,3.6 2.2,7.9 4,7.9 1.1,0 2.1,-0.4 2.4,-0.9 0.3,-0.5 2.2,-1.2 4.1,-1.5 2.7,-0.5 3.5,-1.2 3.6,-2.9 0,-1.2 0.1,-22.6 0,-47.6 0,-35.9 -0.3,-45.7 -1.3,-46.7 -1.7,-1.6 -6.9,-2.1 -8.8,-0.9 -0.8,0.6 -8.6,1.1 -17.2,1.3 -14.8,0.4 -16.1,0.3 -23.7,-2.3 -9.9,-3.3 -25.4,-6.5 -28,-5.8 -1.8,0.5 -1.8,0.6 -0.3,3.4 1,1.6 2.1,2.9 2.5,2.9 0.4,0 -0.1,1 -1.3,2.2 -3.1,3.4 -2.7,9 1,12.8 1.6,1.7 3.3,4.3 3.6,5.8 0.4,1.5 1.5,3.8 2.6,5.1 1.7,2.2 1.8,5.4 1.8,56.1 0,44.4 -0.2,54 -1.4,54.9 -0.7,0.6 -1.9,3.2 -2.6,5.6 -1.2,4.2 -2,5.1 -9.8,10.2 -13.5,8.9 -20,12.3 -30.4,15.9 -5.3,1.9 -10.1,3.4 -10.5,3.4 -2.2,0 -7.3,-6.1 -7.3,-8.6 0,-2.1 -0.4,-2.5 -2,-2.1 -1.3,0.3 -2.4,-0.1 -3,-1.4 -2.6,-4.7 -10.1,-0.7 -13.4,7.2 -2.2,5.2 -3.9,6.3 -6.1,3.9 -1,-1.1 -3.3,-2.2 -5.1,-2.6 -2.8,-0.5 -3.4,-1.1 -3.4,-3.1 0,-2.8 3.2,-7.8 6.7,-10.6 1.3,-1 2.3,-2.3 2.3,-2.9 0,-2.7 27.8,-31.8 30.4,-31.8 0.6,0 1.7,-0.9 2.4,-2 0.7,-1.1 1.6,-2 2.2,-2 0.5,0 2,-1 3.4,-2.3 3.3,-3.1 12,-7.3 20.4,-9.8 9.2,-2.9 9.4,-3.1 3.2,-4.5 -12.4,-2.8 -24.7,1.6 -46.2,16.6 -7,5 -13.7,9 -14.8,9 -1.2,0 -3.2,-1.3 -4.6,-3 -1.6,-1.8 -3.1,-2.7 -4.1,-2.3 -1.5,0.6 -1.5,-0.9 0.1,-11.9 0.4,-3 -0.3,-3.5 -2.2,-1.6 -0.9,0.9 -1.2,0.8 -1.2,-0.5 0,-3.8 3,-7.5 8.2,-10.1 2.9,-1.5 6.3,-3.9 7.6,-5.3 2.5,-2.8 2.3,-4.5 -0.3,-1.9 -1.8,1.8 -5.5,2.2 -5.5,0.5 0,-0.5 -0.4,-0.8 -0.9,-0.5 -0.5,0.4 -0.7,-0.3 -0.4,-1.4 0.4,-1.4 0,-2 -1.1,-2 -0.9,0 -1.6,-0.6 -1.6,-1.2 0,-1 -0.3,-0.9 -0.9,0.1 -0.7,1.1 -1.1,1 -2,-0.5 -1,-1.8 -1,-1.8 -1.1,0 0,3.3 -1.2,0.9 -1.7,-3.6 -0.3,-2.4 -0.9,-5.1 -1.4,-6 -1.7,-3.2 -1,-13.8 1.4,-20 1.8,-4.9 3.6,-7.2 9.8,-12.9 15.4,-14.2 24.9,-20 35.4,-22 7.7,-1.4 8.4,-1.9 5.1,-3.6 -1.4,-0.7 -2.6,-1.8 -2.6,-2.3 0,-0.4 -0.3,-1.5 -0.6,-2.4 -0.4,-1 0.5,-2.2 2.6,-3.5 l 3.2,-1.9 -5.3,-0.7 c -3.8,-0.5 -7.2,-2 -12.2,-5.3 -5.8,-3.9 -8,-4.8 -14.4,-5.6 -6.7,-1 -7.6,-1.4 -7.9,-3.3 L 438,248 h 16.4 c 16.7,0 22.6,-0.6 22.6,-2.1 0,-2 -6,-3.3 -18,-4 -15.4,-0.9 -26,-3.5 -27.2,-6.9 -1.1,-3 -0.8,-3.2 5.4,-3.6 2.9,-0.2 10,-1.1 15.8,-2 11.1,-1.7 17.3,-1.5 30.7,1.1 4.3,0.9 12,1.5 17.1,1.4 5.1,-0.1 9.6,0.2 10,0.6 0.4,0.4 -0.4,1.5 -1.7,2.6 -2,1.7 -4.1,1.9 -17.5,2 -16.7,0 -16.8,0.6 -1.1,4.1 5.6,1.3 12.7,2 19,2 11.2,0.1 14.9,-0.7 14.1,-2.8 -0.8,-2.1 6.3,-1.8 13.4,0.7 5.5,1.9 15,2.3 16.6,0.7 0.5,-0.6 -26,-11.9 -33.1,-14.2 -26.5,-8.4 -66.8,-8.9 -101.5,-1.5 -21.9,4.8 -40.3,12.5 -59.6,25 -5.9,3.8 -11.3,6.9 -12.1,6.9 -0.8,0 -1.3,-1.1 -1.3,-2.9 0,-2.3 1.2,-4 5.2,-7.5 2.8,-2.5 5.5,-4.3 6,-4 0.4,0.3 0.8,0.1 0.8,-0.3 0,-0.9 5.5,-4.5 6.6,-4.3 0.4,0.1 1,-0.3 1.3,-0.8 0.7,-1 6.7,-4.3 7.7,-4.1 0.4,0 1,-0.3 1.3,-0.8 0.5,-0.8 8.8,-4.8 10.1,-4.8 0.3,-0.1 1.5,-0.6 2.8,-1.3 1.2,-0.7 2.2,-1 2.2,-0.6 0,0.3 0.6,0.2 1.3,-0.3 1.1,-1 9.2,-3.9 13.3,-4.8 1,-0.2 4.4,-1.1 7.4,-1.9 3,-0.8 6.9,-1.7 8.5,-2 1.7,-0.3 4.1,-0.8 5.5,-1.1 8.4,-1.8 15.7,-2.8 27,-4 3,-0.3 7.8,-0.8 10.5,-1.1 2.8,-0.4 22.5,-0.8 43.8,-0.9 36.7,-0.3 46.8,-1 50.2,-3.5 0.6,-0.4 2.8,-1.3 5,-2 5.4,-1.8 27.7,-12.2 29.3,-13.7 0.7,-0.7 2,-1.3 2.8,-1.3 0.8,0 1.4,-0.4 1.4,-1 0,-0.5 1.1,-1.2 2.5,-1.6 1.4,-0.3 2.5,-0.9 2.5,-1.3 0,-0.3 1.7,-1.5 3.8,-2.6 2,-1.1 3.9,-2.2 4.2,-2.5 1.3,-1.3 9.1,-6 10,-6 0.5,0 1,-0.4 1,-0.9 0,-1.1 9.2,-5.1 10.2,-4.5 0.4,0.3 -0.2,2 -1.2,4 -2.7,4.8 -2.5,5.8 0.8,3.5 8.7,-6.1 23.2,-15.1 24.1,-15.1 0.6,0 1.1,-0.4 1.1,-0.9 0,-0.5 1.5,-1.4 3.3,-2.2 1.7,-0.7 3.4,-1.6 3.7,-2 0.3,-0.4 3.7,-2.3 7.5,-4.2 3.9,-1.9 17.1,-8.7 29.5,-15 25.8,-13.1 26.7,-13.5 27.7,-11.1 0.9,2.4 -1.4,4.1 -23,17.4 -19.6,12 -32.3,20.8 -31.4,21.7 1,0.9 15.1,-7 29.7,-16.7 13.5,-9 23.9,-15.1 25.7,-15 2.2,0.2 17.2,-7.1 31.6,-15.2 8.6,-4.8 10.1,-5.1 10.5,-1.6 0.4,3.4 -2.6,6.5 -10.7,11 -3.1,1.7 -7,4.4 -8.8,6.1 -2.6,2.4 -3.5,2.8 -4.7,1.8 -1.1,-0.9 -2.4,-0.5 -6.2,2 -2.7,1.8 -5.9,4.2 -7.1,5.5 -1.2,1.2 -3.1,2.8 -4.1,3.6 -2,1.4 -5.5,7.8 -4.7,8.6 1,1 29.2,-14.5 34.2,-18.8 0.7,-0.5 1.5,-1 1.8,-1 0.4,0 2.1,-1.1 3.8,-2.4 1.8,-1.3 6.8,-3.8 11.2,-5.5 4.4,-1.7 11.2,-5 15,-7.3 7,-4.3 12.6,-7.1 13,-6.6 3.4,4.2 2.1,7 -4.8,10.4 -11.1,5.6 -39.9,23.9 -49.8,31.7 -3.2,2.5 -3.3,2.7 -1,2.7 2.2,0 23,-9.5 24.1,-11.1 0.3,-0.3 2.8,-1.9 5.5,-3.3 2.8,-1.5 6.4,-3.6 8,-4.7 1.7,-1 3.7,-2.2 4.5,-2.6 0.8,-0.3 1.7,-1 2,-1.3 0.7,-1 10.3,-5.5 18,-8.4 3.6,-1.3 9.4,-4.1 13,-6.2 3.6,-2 10.8,-6 16,-8.7 5.2,-2.8 14.7,-8.1 21,-11.9 10.3,-6.2 11.5,-6.6 11.8,-4.8 0.5,2.7 1.3,2.6 7.6,-1.5 5.6,-3.5 8.6,-3.8 8.6,-0.6 0,3.1 -6.3,7.7 -18.1,13.4 -9.6,4.6 -12.4,6.5 -16,10.7 -2.4,2.8 -6.1,7.1 -8.2,9.5 -3.4,3.9 -16.6,13.5 -47.5,34.6 -5.4,3.6 -11.7,7.3 -14.2,8.3 l -4.5,1.6 5.2,-0.4 c 6,-0.6 9.8,-2.3 17,-7.8 2.8,-2.2 10.7,-6.8 17.5,-10.2 6.8,-3.5 13.7,-7 15.3,-7.9 1.7,-0.9 9.1,-4.6 16.5,-8.3 11.1,-5.4 28.9,-16 31,-18.4 0.7,-0.9 9.3,-4 11,-4 0.8,-0.1 3.3,-0.9 5.5,-2 2.2,-1.1 4.5,-1.9 5.2,-2 0.7,0 1.6,-0.6 2,-1.3 0.4,-0.7 2.8,-2.5 5.3,-3.8 10.6,-6 12.1,-7 16,-10.9 2.2,-2.2 4.6,-4 5.4,-4 1.8,0 12.5,-5.1 20,-9.5 3.2,-1.9 6.4,-3.5 7.1,-3.5 0.8,0 3.5,-1.8 6.1,-4.1 7.7,-6.7 11.5,-8.8 19.8,-10.9 4.3,-1.1 8.4,-2.4 9,-2.8 0.6,-0.5 4.1,-2.1 7.9,-3.6 3.7,-1.6 8.4,-4.2 10.5,-5.8 2,-1.7 6.7,-4.5 10.5,-6.4 7.3,-3.7 7.4,-3.7 6.9,2.9 -0.2,2.4 2.2,2.1 7.4,-0.9 2.5,-1.5 4.8,-2.4 5.1,-2.1 0.3,0.4 1.4,0.2 2.5,-0.4 1,-0.5 3.5,-1.2 5.6,-1.5 6.9,-0.9 11.7,-2.6 15,-5.5 4.1,-3.6 9.4,-6.3 15.2,-7.9 5.2,-1.3 14.9,-5 16.7,-6.3 2,-1.4 4.3,0 4.3,2.6 0,1.9 -1.5,3.2 -8.2,6.9 -4.6,2.5 -9.7,5.1 -11.5,5.7 -3.7,1.5 -7.5,5.1 -5.2,5.1 0.8,0 4.9,-1.1 9.2,-2.5 6.3,-2 8.1,-2.3 9.7,-1.3 2.6,1.7 0.9,4.4 -3.2,5.3 -1.8,0.4 -6,2.1 -9.2,3.7 -5.9,3 -19.6,11.7 -19.6,12.5 0,0.9 6.9,-1 15,-4.2 4.7,-1.8 12.3,-4.3 17,-5.6 4.9,-1.3 10.8,-3.7 14,-5.7 3,-1.9 8.2,-4.7 11.5,-6.3 3.3,-1.5 7.3,-4.1 8.9,-5.8 1.7,-1.7 3.3,-3.1 3.7,-3.1 2.1,0 15.8,-7.3 17.9,-9.6 3.5,-3.7 10.5,-8.4 14.3,-9.5 1.8,-0.6 6,-1.4 9.4,-2 3.4,-0.5 8.8,-1.8 12,-2.9 3.2,-1.1 8.3,-2.6 11.3,-3.4 5.1,-1.4 5.6,-1.3 7.4,0.4 1.9,1.8 1.8,1.9 -1.5,3.9 -1.9,1.2 -4.5,2.4 -5.9,2.7 -1.4,0.4 -4.7,1.7 -7.5,2.9 -6.6,3.1 -12,5 -17.6,6.5 -2.9,0.7 -7.3,3.3 -11.5,6.6 -3.8,2.9 -10.7,7.2 -15.4,9.5 -12.9,6.2 -14,6.9 -20.4,12 -3.2,2.6 -8.6,5.7 -12,6.9 -3.3,1.3 -7.6,3.3 -9.6,4.5 -8,5.1 -23.7,13.5 -25.1,13.5 -0.8,0 -3.8,1.2 -6.7,2.6 -4,2 -5.8,3.7 -7.9,7.5 -2.8,4.9 -6,6.8 -5,2.9 1,-3.7 -3,-3.5 -7.3,0.4 -2.2,2 -8,5.6 -12.9,8.1 -9,4.5 -12.7,7.4 -8,6.2 2.7,-0.7 5.3,2.1 4.3,4.6 -0.6,1.7 -8.1,5.4 -12.7,6.2 -2,0.4 -6.6,2.7 -10.3,5.1 -3.7,2.4 -7,4.4 -7.3,4.4 -0.3,0 -1.9,1.1 -3.6,2.5 -3.6,2.9 -1.4,3.2 3,0.5 2.6,-1.7 7.6,-4.2 24,-12.1 2.2,-1 4.6,-1.9 5.3,-1.9 1.7,0 10.8,-4.6 16,-8.2 3.5,-2.4 4.6,-2.7 5.7,-1.8 2.7,2.3 1.5,4.5 -5.2,9.4 -8.1,6 -18.2,11.2 -23.5,12.1 -2.9,0.5 -3.7,1 -2.9,1.8 1.9,1.9 1.2,2.7 -2.7,2.7 -2.7,0 -5.7,1.2 -10.3,4 -3.5,2.2 -9.1,5.4 -12.4,7.1 -3.3,1.7 -8.3,5.3 -11.1,7.9 -2.8,2.7 -8.4,6.5 -12.4,8.4 -7.4,3.7 -28.9,18.4 -29,19.9 0,0.4 1.1,1.3 2.5,1.9 2.4,1.1 3.6,4.8 1.6,4.8 -0.5,0 -5.8,4.6 -11.8,10.2 -6,5.7 -14.2,12.6 -18.2,15.3 -9.9,6.8 -39.2,27.5 -58.1,40.9 -20.1,14.3 -25.1,16.1 -45.2,16.1 -10.9,0 -14,0.3 -15.2,1.5 -1.1,1.1 -1.6,5.3 -1.9,17 -0.3,8.5 -0.8,17.1 -1.2,19 -0.5,1.9 -0.8,4.6 -0.8,6 -0.1,1.4 -0.9,3.4 -2,4.5 -1,1.1 -2.6,3.3 -3.4,4.9 -1.4,2.7 -1.4,2.9 0.5,2.4 3.7,-1 4.8,0.7 3,4.5 -2.4,5 -15.6,15.6 -19,15.2 -3.5,-0.4 -4.8,-1.3 -4.8,-3.3 0,-1.5 1.2,-2.9 10.5,-12.5 2.5,-2.5 3.2,-3.8 2,-3.3 -1.1,0.5 -2.9,1.1 -4,1.4 -1.1,0.2 -2.6,1 -3.4,1.6 -1.1,0.8 -1.3,0.8 -0.8,-0.1 0.9,-1.4 -1.9,-2.5 -5,-1.9 -2.9,0.6 -3.3,-1.3 -3.3,-18 0,-13.6 0.1,-14.3 2.9,-19.5 5.6,-10.5 6,-21.8 0.9,-23.5 -2.7,-0.8 -7.7,0.5 -8.7,2.4 -1.1,2 -11.4,2.8 -19.1,1.4 -4,-0.7 -5.7,-0.7 -6.3,0.1 -1.2,1.7 0.1,11.4 1.8,14.1 3.1,4.7 3.9,11.8 3.6,33.1 -0.3,19.1 -0.8,24.3 -2.4,21.8 -0.3,-0.5 -1,-4.3 -1.6,-8.4 -7.7,-58 -7.8,-58.7 -10.2,-59.9 -2,-1.1 -4.5,-1.1 -25.3,-0.5 -10.8,0.3 -13.1,0.7 -13.9,2.1 -1.5,2.6 0,8.4 2.9,11.3 1.5,1.5 3.5,4.7 4.5,7.2 1.7,4.1 1.8,10.7 1.8,110.4 0.1,68.7 -0.3,108.2 -1,112.4 -0.5,3.5 -2.2,8.4 -3.6,10.9 -2.5,4.2 -2.5,4.6 -0.9,5.7 1.6,1.2 1.5,1.5 -0.8,4 -1.4,1.5 -2.8,4.3 -3.2,6.1 -0.3,1.9 -1.6,4.2 -2.8,5 l -2.1,1.6 2.3,-0.5 c 1.2,-0.3 2.8,0 3.5,0.7 0.7,0.7 4.3,1.1 9,1.1 4.2,0 7.7,0.3 7.7,0.7 0,0.4 0.9,1.6 2.1,2.7 3.1,2.9 1.2,5.3 -7.5,9.1 -7.5,3.2 -7.7,3.2 -18.1,2.5 -10.5,-0.7 -10.5,-0.7 -10.5,-3.3 0,-2 -0.3,-2.3 -1.2,-1.4 -1.7,1.7 -2.9,1.5 -2.2,-0.3 0.3,-0.8 0.9,-1.4 1.2,-1.3 0.4,0 1,-0.1 1.5,-0.2 0.4,-0.1 1.3,-0.3 1.9,-0.4 1.2,-0.1 4.6,-5.9 4.8,-7.9 0,-1.3 -8.2,3.5 -11.6,6.7 -2.1,2 -5.6,3.6 -12,5.4 l -8.9,2.4 -74,0.5 c -40.8,0.2 -74.4,0.1 -74.8,-0.3 z m 177.6,-17.8 c 2,-0.4 4.6,-1.7 5.7,-2.8 2.8,-3.1 2.5,-4.3 -0.5,-2 -2.4,1.9 -4,2 -19.8,1.9 -15.6,-0.2 -17.2,-0.4 -17.5,-2 -0.2,-1 0.3,-2.9 1.2,-4.2 2.2,-3.3 2,-4 -1.1,-5.1 l -2.6,-0.9 0.2,-18.8 c 0.2,-13.4 -0.1,-19.2 -0.9,-20.3 -1.9,-2.2 -6.6,-1.7 -9.7,1 l -2.8,2.4 v 13.4 c 0,15.6 0.7,25.8 1.7,26.4 0.9,0.6 1.1,4.4 0.3,4.4 -0.2,0 -2,-0.8 -3.9,-1.7 -3.4,-1.6 -3.7,-1.6 -5.6,0.2 -1.1,1 -1.8,2.5 -1.6,3.2 0.4,1 -0.7,1.3 -4.9,1.2 l -5.4,-0.2 2,-3.9 c 1.1,-2.1 1.6,-4.4 1.2,-5 -1.3,-2.3 -1.1,-15.4 0.8,-46.8 2.5,-40.8 8.5,-150.1 9.9,-179 1.5,-31.8 1.3,-30.7 6.1,-32.1 2.7,-0.9 5.9,-0.9 10.6,-0.3 6.6,0.9 6.6,0.9 8,4.9 1.4,3.8 1.7,6.6 2.8,24.5 0.2,4.1 0.6,10.2 0.9,13.5 1,10.9 1.6,19.9 2.1,29 0.3,5 0.9,14.6 1.4,21.5 0.5,6.9 0.9,13.2 0.9,14 0.1,2.7 7.1,97.4 7.6,102.5 1.8,17 2.3,29.7 1.7,43.8 -0.3,6 2,8.9 8.6,10.8 4.5,1.2 4.7,1.2 7,-1.5 1.2,-1.5 2.3,-3.2 2.3,-3.9 0,-0.7 -1,0.1 -2.3,1.6 -2.8,3.6 -5.1,2.8 -7.7,-2.6 -2.2,-4.5 -2.5,-7.8 -1,-9.3 0.5,-0.5 1.1,-1.9 1.3,-3.1 0.2,-1.3 0.6,-2.6 1,-2.9 0.4,-0.4 0.7,-1.4 0.7,-2.3 0,-1.4 -0.2,-1.4 -1,-0.1 -0.6,0.9 -1,1 -1,0.3 0,-0.6 0.4,-1.5 1,-1.8 0.5,-0.3 1.4,-1.4 2,-2.4 0.9,-1.7 0.6,-1.8 -3,-1.5 -3.9,0.4 -4,0.3 -4.2,-2.9 0,-1.7 -0.2,-4.3 -0.4,-5.7 -0.1,-1.4 -0.5,-7.9 -0.8,-14.5 -0.3,-6.6 -0.9,-14 -1.1,-16.5 -0.3,-2.5 -0.7,-7.4 -1,-11 -1.2,-17.2 -1.5,-22.6 -2.1,-29.8 -0.3,-4.2 -0.6,-8.4 -0.6,-9.2 0,-0.8 -0.6,-10 -1.4,-20.5 -0.8,-10.4 -1.6,-22.6 -1.9,-27 -0.3,-4.4 -0.8,-10.7 -1.1,-14 -0.2,-3.3 -0.7,-8.9 -0.9,-12.5 -1.2,-17.6 -1.7,-24.6 -1.7,-26 0,-0.8 -0.4,-6.7 -0.9,-13 -0.5,-6.3 -1.1,-14.4 -1.4,-18 -1.1,-15.1 -1.6,-17 -4.4,-18.3 -1.4,-0.7 -3.7,-1.1 -5.1,-1 -1.4,0.2 -6.3,0.4 -11,0.6 -12.2,0.4 -13,1.1 -13,10 0,4 -0.9,23.2 -2,42.7 -1.1,19.5 -2.2,40.2 -2.5,46 -0.3,5.8 -1.7,29.9 -3,53.5 -1.3,23.7 -3.2,56 -4,71.8 -1.8,31.4 -2.5,34.9 -8.5,41.2 -2.6,2.7 -5,7.3 -5,9.5 0,0.5 1.7,1 3.8,1.2 7.5,0.6 73.8,0.1 77.5,-0.6 z M 637.4,461 c 0.6,-0.6 1.1,-4.3 1.1,-8.3 0,-10 -3.6,-73.9 -4.3,-75.7 -1,-2.7 -2.3,15.9 -3.8,52.5 -0.3,8.8 -0.9,19 -1.3,22.8 -0.4,3.9 -0.3,6.7 0.2,6.7 0.5,0 0.7,1 0.4,2.1 -0.5,2 -0.3,2.1 3,1.6 2,-0.4 4.1,-1.1 4.7,-1.7 z"
       id="path67"
       style="fill:url(#linearGradient1080)" />
    <path
       d="m 631,504 v -8.1 l 2.6,0.3 c 4,0.5 4.9,2.7 3.8,9.4 -0.8,5.4 -1.1,5.9 -3.6,6.2 l -2.8,0.3 z"
       id="path69" />
    <path
       d="m 439.6,553.2 c -0.7,-1.2 0.3,-2.3 5.9,-6.7 2.8,-2.2 5.2,-4.2 5.5,-4.5 0.3,-0.3 2.1,-1.7 4,-3 1.9,-1.3 3.7,-2.7 4,-3 0.3,-0.3 5.9,-4.3 12.6,-8.8 6.7,-4.6 13.4,-9.6 14.9,-11.2 2.4,-2.6 1.5,-2.2 -7.1,2.5 -7,3.9 -10.8,5.5 -12.9,5.3 -1.6,-0.2 -3,-0.7 -3,-1.3 0,-1.8 -1.6,-3.6 -4,-4.5 -1.6,-0.6 -2.4,-2 -2.8,-4.7 -1.1,-6.5 -0.8,-52.3 0.3,-52.3 0.6,0 1.6,-2.1 2.3,-4.7 0.8,-3.3 2.5,-6 5.7,-9 2.4,-2.4 5,-4.3 5.6,-4.3 0.7,0 1.4,-0.4 1.6,-0.9 0.6,-1.9 14.2,-10.1 15.8,-9.6 0.9,0.3 3.4,-0.2 5.5,-1.1 2.4,-1 4.7,-1.3 6.4,-0.8 2.8,0.8 3.9,1 5.8,1.2 1.6,0.2 3.9,4.7 4.7,9.6 0.7,3.9 0.3,5.4 -5.6,16.9 -1.1,2.1 -1.7,4.1 -1.4,4.5 1.4,1.3 4.4,1.1 5,-0.4 0.3,-0.8 1,-1.3 1.5,-1 0.5,0.3 1.1,-0.3 1.4,-1.3 0.7,-2.8 3.8,-4.2 5.9,-2.7 3.7,2.7 -1.5,12.2 -9.7,17.7 -1.9,1.3 -3.5,2.7 -3.5,3.2 0,1.3 4.5,0.8 6.7,-0.8 1.9,-1.4 2.1,-1.3 1.6,0.5 -0.4,1.4 0.3,2.4 2.6,3.7 1.7,1 3.1,2.2 3.1,2.7 0,2.1 -4.6,7.9 -10.1,12.6 -3.2,2.9 -6.9,6.5 -8,8.2 l -2.1,2.9 5.3,-3.5 c 3,-2 7,-4.5 9,-5.5 l 3.6,-2 1.3,2.4 c 0.7,1.3 1.8,2.3 2.4,2.2 1.6,-0.3 1.9,6 0.6,12.3 -0.8,3.9 -2.1,6.4 -4.3,8.6 -1.8,1.6 -3.9,4 -4.7,5.2 -0.8,1.2 -2,2.2 -2.7,2.2 -0.8,0 -1.9,1.1 -2.5,2.5 -0.6,1.4 -1.5,2.5 -1.9,2.5 -0.4,0 -4.7,3.6 -9.5,8.1 -7.4,6.9 -9.2,8 -11.6,7.7 -2.8,-0.5 -3.8,0.6 -1.5,1.6 0.6,0.3 -0.3,0.3 -2,0 -2.2,-0.4 -3.3,-0.2 -3.3,0.6 0,0.6 -1,1 -2.2,0.8 -1.8,-0.2 -2.2,-0.8 -2,-2.8 0.2,-1.4 1.2,-3.4 2.3,-4.6 1.7,-1.9 2.6,-5.4 1.4,-5.4 -0.3,0 -5.3,2.2 -11.1,5 -5.8,2.7 -13.2,5.6 -16.5,6.5 -7,1.7 -7.6,1.8 -8.3,0.7 z"
       id="path71" />
    <path
       d="m 1016.6,533.9 c -10.1,-2.4 -16.2,-9.3 -20.7,-23.2 -3,-9 -3.4,-14.4 -3.4,-43.4 0,-25.9 0,-26.2 2.3,-28.6 2.2,-2.3 5.9,-4.2 13,-6.5 2.9,-0.9 3.6,-0.8 5.3,0.9 1.9,1.9 1.9,3 1.4,26.7 -0.7,29.6 0.4,45.2 3.4,51.6 2.6,5.3 4.9,6.5 7.2,3.7 5.2,-6.4 5.9,-55.7 1.2,-81.6 -1.4,-7.8 -2.8,-11.4 -11.4,-28 -10.7,-21 -18,-38.3 -20.4,-49 -2.2,-9.3 -3.3,-55.3 -1.6,-65.1 2.8,-16 11.8,-24.9 25.1,-24.8 12,0.1 22.4,7.7 24.5,17.9 1,4.7 1,4.9 1.8,6.1 0.4,0.7 0.7,2.3 0.7,3.5 0.1,4.1 0.9,20.1 1.6,29.9 0.8,11.6 -0.5,15.5 -6.6,19.9 -4,2.9 -4.4,3 -7.1,1.6 -1.5,-0.8 -3.9,-1.5 -5.2,-1.5 h -2.4 l -0.2,-21.2 c -0.3,-34 -0.8,-39.6 -3.9,-43 -2.4,-2.8 -3.8,-2.1 -5.8,2.5 -1.5,3.7 -1.7,7.6 -1.6,35.2 l 0.2,31 7,13.8 c 3.9,7.6 7,14.4 7,15.2 0,0.7 0.3,1.5 0.8,1.7 0.9,0.4 7.8,14.9 7.4,15.6 -0.2,0.2 0,0.8 0.6,1.1 2.2,1.4 10.8,25.1 11.7,32.1 0.2,1.6 0.6,3.3 0.9,3.8 0.6,1 1.4,8.5 2.1,19.2 0.2,3.6 0.7,9 1,12 0.5,4.8 0,14.2 -2,35.4 -0.3,3.3 -1,6.5 -1.5,7.1 -0.5,0.7 -0.7,1.5 -0.4,1.8 0.9,0.8 -2.6,10.7 -3.7,10.7 -0.6,0 -0.7,0.5 -0.4,1 0.3,0.6 0.1,1 -0.5,1 -0.6,0 -0.9,0.4 -0.6,0.8 1.5,2.5 -9.8,13.3 -12.3,11.8 -0.5,-0.4 -1.1,-0.2 -1.3,0.3 -0.5,1.4 -8.9,2.1 -13.2,1 z"
       id="path73" />
    <path
       d="m 132,532.8 c 0,-0.7 0.9,-2.8 2,-4.6 2.4,-3.9 2.4,-4.6 0.5,-6.5 -1.3,-1.3 -1.5,-16.8 -1.5,-122.8 0,-118.5 0,-121.3 1.9,-123.2 1.9,-1.9 1.9,-2 -0.6,-6.6 l -2.4,-4.6 7.3,-0.3 c 9.1,-0.4 11.6,0.3 12.8,3.2 0.9,2.4 6.2,4.2 8.3,2.9 0.6,-0.4 -0.1,1.4 -1.6,3.9 l -2.7,4.7 v 119.8 c 0,119 0,119.8 2.1,123.2 2.3,3.8 2.4,3.5 -1.6,4.8 -1.7,0.5 -3.2,1.8 -3.4,2.9 -0.7,3.9 -2.1,4.4 -11.7,4.4 -6.9,0 -9.4,-0.3 -9.4,-1.2 z"
       id="path75" />
    <path
       d="m 335.4,532.5 c -0.3,-0.8 0.3,-3.1 1.5,-5.1 1.2,-1.9 1.7,-3.2 1.1,-2.9 -0.5,0.3 -1,0.1 -1,-0.5 0,-0.7 -0.7,-0.9 -1.6,-0.6 -0.8,0.3 -1.3,0.2 -1,-0.3 0.3,-0.5 0,-1.1 -0.7,-1.4 -1.1,-0.4 -1.2,-2.1 -0.5,-8.3 1.1,-9.7 0.5,-29.1 -0.9,-30.5 -0.6,-0.6 -2.7,-1.2 -4.7,-1.4 -2.9,-0.3 -4,0.2 -5.6,2.2 -1.8,2.3 -2,4 -2,19.3 0,9.2 0.4,18 0.9,19.6 0.5,1.6 1.2,4.2 1.5,5.7 l 0.7,2.8 -4,-2.1 c -5.3,-2.6 -5.8,-2.6 -6.6,1.1 -0.7,3 -0.7,3 -6.5,2.7 -5.5,-0.2 -5.8,-0.4 -4.8,-2.3 0.6,-1.1 1.8,-2.8 2.6,-3.8 1.2,-1.3 1.3,-2 0.4,-2.9 -1.7,-1.7 -1.5,-16.9 0.8,-53 1.1,-17.2 3.5,-61.2 5.5,-97.8 1.9,-36.6 3.9,-70.5 4.4,-75.5 0.5,-4.9 1,-13.2 1,-18.3 0,-5.1 0.5,-10.1 1.1,-11.2 1.4,-2.5 6,-3.3 14,-2.3 5.8,0.7 6.6,1.1 7.8,3.7 0.8,1.5 1.6,5.6 1.8,9 0.9,15.4 1.4,22.2 1.9,26 0.3,2.3 0.8,9.1 1.1,15.1 0.7,13.5 0.8,16.4 4.8,72 0.8,11 1.4,20.7 1.4,21.5 0,0.8 0.8,10.5 1.6,21.5 0.9,11 1.9,23.6 2.1,28 0.8,12.3 4.4,56.5 5,60.8 0.4,2.8 0.2,3.7 -1,3.8 -4,0.4 -5.7,1.6 -5,3.8 0.5,1.6 -0.3,1.9 -5.6,2.5 -9.1,0.9 -10.9,0.8 -11.5,-0.9 z m -6,-72.7 c 1.7,-2.1 1.8,-3.5 1.1,-15.8 -0.4,-7.4 -0.9,-14.6 -1,-16 -0.2,-1.4 -0.6,-10.6 -0.9,-20.5 -0.7,-20.7 -1.6,-33.8 -2.3,-33.2 -0.5,0.6 -2.1,21 -2.7,34.7 -0.3,5.8 -0.7,15 -1,20.5 -0.2,5.5 -0.6,15.4 -0.8,22.1 l -0.3,12.1 3,-0.8 c 1.7,-0.5 3.8,-1.9 4.9,-3.1 z"
       id="path77" />
    <path
       d="m 394,532.6 c 0,-1 1,-3.1 2.1,-4.8 1.8,-2.5 2,-3.4 1,-5.5 -0.6,-1.3 -0.8,-2.9 -0.5,-3.5 0.9,-1.4 0.9,-232.2 0,-237.4 -0.6,-3.1 -0.3,-4.4 0.8,-5.4 2.1,-1.7 2,-2.5 -0.9,-6.8 -1.4,-2 -2.5,-4 -2.5,-4.4 0,-0.5 5.1,-0.8 11.4,-0.8 h 11.4 l 0.5,2.9 c 0.4,2.1 1.5,3.2 3.9,4.1 1.8,0.7 3.7,1.2 4.1,1.1 0.5,-0.1 0,0.9 -1,2.3 -1,1.3 -2.1,2.2 -2.6,1.9 -0.4,-0.2 -0.7,-0.1 -0.6,0.4 0.1,0.4 -0.1,2.4 -0.5,4.3 -0.4,1.9 -0.9,55 -1,118 -0.2,63 -0.6,115.6 -0.9,117 -0.2,1.4 -0.5,3 -0.6,3.7 0,0.6 -0.9,1.4 -1.8,1.6 -1.3,0.3 -1.1,0.5 0.6,0.6 3.5,0.2 9.5,-6.9 14.1,-16.4 5,-10.5 9.2,-27.5 12.6,-51.7 l 2.8,-19.6 2.6,-0.4 2.7,-0.4 0.6,21 c 0.9,26.3 0.7,69.3 -0.2,72.6 -1.4,5.1 -5.7,6 -33.2,6.7 -23.3,0.6 -24.9,0.5 -24.9,-1.1 z"
       id="path79" />
    <path
       d="m 822.7,532.7 c 0.3,-0.7 1.3,-2.2 2,-3.4 1.2,-1.8 1.5,-21.5 1.7,-118.5 0.2,-113.7 0.4,-119 3.2,-128.3 0.6,-1.7 0.3,-1.6 -1.8,0.6 -3.8,4 -9.7,18.7 -11.4,28.2 -0.3,2 -1,4 -1.5,4.3 -0.5,0.3 -0.7,0.9 -0.5,1.3 0.3,0.4 -0.2,5 -1,10.2 -0.8,5.2 -1.6,11.9 -1.9,14.9 -0.7,8.1 -0.7,8.2 -1.9,7 -0.5,-0.5 -1.8,-1 -2.8,-1 -1.8,0 -1.9,-1.8 -1.6,-40.4 0.2,-22.2 0.7,-40.8 1.1,-41.3 1,-1 59.4,-1.1 61,-0.1 0.9,0.5 1.2,12.2 1.4,43 0,23.3 -0.1,41.5 -0.4,40.6 -0.2,-1 -0.5,-1.8 -0.6,-1.8 -0.1,0 -1.6,0.4 -3.3,0.9 l -3.1,0.9 -0.7,-10.2 c -0.4,-5.5 -1.1,-12.8 -1.6,-16.1 -0.5,-3.3 -1.2,-7.8 -1.6,-10 -1.5,-10.3 -8.7,-30.1 -10.4,-29 -0.4,0.2 -0.3,2.9 0.1,6 0.4,3 0.8,55.4 0.8,116.3 0.1,89.7 0.3,111.7 1.4,115.3 1.3,4.3 1.3,4.5 -1.1,6.3 -1.5,1.1 -2.2,2.5 -1.9,3.6 0.4,1.7 -0.4,1.9 -11.9,1.9 -9.4,0 -12.3,-0.3 -11.7,-1.2 z"
       id="path81" />
    <path
       d="m 932,531.1 c 0,-1.6 0.6,-3.4 1.4,-4.1 0.8,-0.6 1.2,-1.8 0.9,-2.6 -0.3,-0.8 -0.8,-1.3 -1,-1 -0.3,0.3 -1.2,-0.2 -2.1,-1 -1.2,-1.3 -1.5,-4.9 -1.6,-19.9 -0.1,-15.5 -0.4,-18.7 -1.7,-20 -2.2,-2.2 -8.5,-1.1 -10,1.8 -2.3,4.3 -1.1,36.7 1.7,46 0.5,1.4 -0.1,1.3 -3.2,-0.8 -4.8,-3.2 -6,-3.2 -7.3,0.5 -0.9,2.8 -1.3,3 -6,3 -5.5,0 -5.7,-0.5 -2.3,-5.8 1.2,-1.9 1.3,-2.7 0.2,-4.7 -1,-1.8 -1.1,-6 -0.7,-16.7 0.6,-14.7 5.2,-96.3 6.2,-109.8 0.3,-4.1 1.7,-30.4 3,-58.5 2.9,-60.3 3.4,-68.8 4.6,-70.6 1.4,-2.3 17.2,-1.8 19.8,0.5 1.1,1 2,2.1 1.9,2.5 -0.1,0.3 0.2,2.2 0.5,4.1 0.4,1.9 0.9,8.2 1.2,13.9 0.2,5.8 1,16.2 1.5,23.2 0.6,7 1,13.3 0.9,14.1 -0.1,0.7 0.1,4.2 0.4,7.8 0.4,3.6 0.9,10.3 1.2,15 0.2,4.7 0.9,14.6 1.4,22 0.5,7.4 1,14.2 0.9,15 0,0.8 0.3,4.9 0.6,9 1.2,16.3 2.4,33.6 2.4,35 0.1,0.8 1,13.4 2.1,28 1.1,14.6 2.3,29.9 2.6,34 1.5,21.7 2.5,32.7 3.1,34.3 0.5,1.3 -0.1,1.8 -2.5,2.3 -2.1,0.5 -3.3,1.4 -3.7,2.9 -0.5,1.8 -1.5,2.3 -5.7,2.9 -9.8,1.1 -10.7,0.9 -10.7,-2.3 z m -7.7,-69.2 c 2.1,-0.9 2.6,-2.1 3.1,-6.8 0.4,-3.1 0.2,-10.1 -0.3,-15.6 -1,-9.4 -3.3,-50.2 -3.5,-60.7 -0.2,-8.6 -1.3,-5 -1.9,6 -0.3,5.9 -0.8,15.2 -1.1,20.7 -3.4,60.4 -3.4,59.7 3.7,56.4 z"
       id="path83" />
    <path
       d="m 35.8,532.4 c -0.9,-0.8 0.1,-3.2 2.6,-6.7 2.1,-2.9 2.1,-2.9 0.1,-4.3 -2,-1.5 -2,-2.8 -2.2,-122.5 -0.2,-102.3 -0.1,-121.4 1.1,-123.1 1.2,-1.7 1.2,-2.4 -0.6,-5.4 -1.1,-1.9 -1.7,-3.8 -1.3,-4.2 1.2,-1.2 59.3,-0.8 60.5,0.4 2.4,2.4 3,10 3,42.5 v 33.7 l -2.6,0.6 c -1.5,0.4 -2.9,0.4 -3.2,0.1 -0.3,-0.3 -0.9,-3.8 -1.4,-7.8 -2,-18.8 -6.5,-35.7 -11.9,-44.2 -3.7,-5.9 -12.5,-12 -19.5,-13.5 0,0 0.4,3.3 0.9,7.3 0.8,6.8 0.4,73.1 -0.6,91.7 -0.2,4.7 -0.2,7 0,5.2 0.3,-2 1.3,-3.8 2.9,-4.9 3,-1.9 7.3,-9 8.6,-14.1 0.5,-2 1.2,-7.3 1.6,-11.7 l 0.7,-8 3.2,-0.2 3.1,-0.1 -0.1,45.4 v 45.3 l -2.1,-0.4 c -1.2,-0.2 -2.7,-0.4 -3.3,-0.4 C 74.4,433 74,431 74,426.8 c 0,-8.3 -2.4,-19.6 -5.2,-24.5 -1.3,-2.2 -4,-5.9 -6.2,-8.4 -3.2,-3.6 -3.7,-4 -3.2,-1.9 1.8,6.5 2.7,35.8 2.4,80.6 -0.3,41.5 -0.1,49.4 1.1,50.8 1.2,1.5 1.2,1.9 0.1,2.6 -0.7,0.4 -1.8,0.6 -2.5,0.4 -1.5,-0.6 -3.6,1.8 -3.8,4.4 -0.1,1.8 -0.9,2 -10.2,2.1 -5.5,0.1 -10.4,-0.1 -10.7,-0.5 z"
       id="path85" />
    <path
       d="m 203.8,532.3 c 0.6,-0.2 1.2,-1.3 1.2,-2.3 0,-0.9 0.7,-2.3 1.5,-3 1.9,-1.6 1.9,-4.4 0.1,-5.9 -1.2,-1 -1.4,-19.4 -1.5,-122.5 -0.1,-119 0,-121.4 1.9,-123.1 1.9,-1.7 1.9,-1.8 -0.5,-6 -1.4,-2.3 -2.5,-4.5 -2.5,-4.8 0,-0.8 21.6,-0.1 22.9,0.8 2.1,1.3 4.8,9.4 5.5,16.5 0.4,4.1 1.8,16.3 3.1,27 1.4,10.7 2.7,22 3,25 0.3,3 1.3,12.3 2.4,20.5 1,8.3 1.9,15.7 1.9,16.5 0,0.8 0.9,8.5 2,17 2.3,18.5 2.4,19.7 2.6,23.2 0,1.4 0.4,2.4 0.8,2.2 0.4,-0.2 0.9,0.6 1.1,1.8 0.3,1.3 0.4,-29 0.2,-67.3 l -0.4,-69.6 2.5,-2.6 2.4,-2.6 -2.1,-3.6 c -1.2,-2 -1.9,-3.9 -1.6,-4.2 1.1,-1 15.1,-1.2 17.5,-0.2 1.9,0.7 2.2,1.4 1.8,4.6 -0.6,4.7 -1.5,7.3 -2.7,7.3 -0.4,0 -0.6,0.7 -0.3,1.5 0.3,0.8 0.2,2 -0.3,2.7 -0.4,0.7 -0.8,57.2 -0.8,125.5 0,68.3 -0.2,124.3 -0.5,124.6 -1.1,1 -9.7,1.7 -14.3,1.1 -6.4,-0.9 -6.3,-0.5 -9.2,-23.4 -0.3,-2.5 -0.8,-6.1 -1,-8 -0.5,-4.5 -3.5,-26.7 -4,-30 -1,-6.9 -1.5,-10.9 -2,-15.5 -0.9,-7.4 -2.5,-19.9 -2.9,-22.1 -0.2,-1 -0.7,-4.8 -1.1,-8.4 -0.4,-3.6 -1.3,-11.4 -2.1,-17.5 -2.1,-15.9 -5.4,-41.9 -5.4,-42.7 0,-0.5 -0.5,-0.8 -1,-0.8 -1.5,0 -0.5,157.2 1,160 0.9,1.7 0.8,2 -1.4,2 -3.1,0 -5.9,2.7 -5.3,5.1 0.5,1.7 -0.2,1.9 -6.6,1.8 -4,0 -6.6,-0.3 -5.9,-0.6 z"
       id="path87" />
    <path
       d="m 525.7,528 c 2.6,-4.6 2.6,-5 1,-6.7 -1.5,-1.8 -1.6,-10.8 -1.7,-123.1 0,-89.4 0.3,-121.8 1.2,-123.1 0.9,-1.5 0.7,-2.5 -1.1,-5.4 l -2.1,-3.5 25.4,-0.7 c 14,-0.4 28.1,-0.4 31.3,0.1 5.7,0.9 5.8,1 6.1,4.4 0.2,1.9 0.8,3.9 1.3,4.4 0.5,0.6 0.9,15.6 0.9,35.4 0,27.1 -0.3,34.3 -1.2,33.9 -0.7,-0.2 -2.1,0 -3,0.4 -2.2,1.2 -3.8,-1.6 -3.8,-6.7 0,-2 -0.9,-8.9 -2,-15.3 -4,-23.7 -9.9,-34.9 -21.5,-40.9 -8.1,-4.2 -8.2,-4.1 -7.2,6.2 0.8,8.2 0.2,69.9 -0.7,85.3 -0.4,5.9 -0.3,6.2 1.4,5.3 3.1,-1.7 8.6,-8.8 9.8,-12.7 0.6,-2.1 1.7,-8.1 2.3,-13.4 l 1.2,-9.5 2.9,0.4 2.8,0.4 -0.1,45.3 -0.2,45.3 -2.7,-0.2 c -2.7,-0.1 -2.8,-0.2 -3.4,-8.1 -1.3,-15.4 -4,-22.7 -12,-31.9 l -3.4,-4 1,5 c 0.5,2.7 1,31.7 1.2,65.4 0.2,44.2 0.6,61.1 1.4,62.7 1.7,3 1.5,3.3 -1.3,3.3 -2.6,0 -6.2,4.1 -5.1,5.9 0.4,0.6 -3.6,0.9 -10.4,0.9 h -11 z"
       id="path89" />
    <path
       d="m 700.5,532.2 c 2.1,-1.5 4.8,-8.1 4,-9.9 -1.1,-2.3 -1,2.5 -1.3,-131.2 -0.2,-103.6 -0.1,-114.6 1.3,-116.2 1.5,-1.6 1.4,-2 -0.9,-5.7 l -2.5,-3.9 6.1,-0.7 c 7.6,-0.8 16.8,0.2 18.9,2.1 2.9,2.5 3.8,7.6 7.9,44.3 0.6,5.2 1.3,10.6 1.5,12 0.2,1.4 0.7,5 0.9,8 0.3,3 1,8.4 1.5,12 0.5,3.6 0.9,7.2 0.9,8 0.1,1.6 4,32.9 6.8,54 1.7,12.4 3.9,20.5 3,10.5 -0.3,-2.7 -0.6,-35.3 -0.6,-72.4 -0.1,-63.7 0,-67.4 1.7,-68.8 1,-0.8 1.1,-1.1 0.3,-0.7 -1.3,0.7 -1.3,0.5 -0.2,-0.9 1.2,-1.4 1.1,-2 -0.2,-3.9 -2.4,-3.4 -2,-3.8 2.9,-3.8 3.4,0 4.5,0.4 4.5,1.5 0,0.8 0.5,2.3 1.1,3.3 1,1.7 1.6,1.7 4.8,0.6 3.2,-1.1 3.7,-1 4.3,0.4 0.5,1.2 0.7,1.3 0.7,0.3 0.1,-0.8 0.4,-1.1 0.7,-0.8 0.4,0.4 -0.4,3 -1.7,5.9 l -2.3,5.3 -0.1,124.3 c 0,142 1.2,126.9 -10,127.1 -5.7,0.1 -6.6,-0.2 -9.4,-2.8 -1.7,-1.6 -3.1,-3.7 -3.2,-4.8 0,-1 -0.2,-2.5 -0.4,-3.4 -0.1,-0.8 -0.6,-4.2 -0.9,-7.5 -0.4,-3.2 -2,-15.3 -3.6,-26.9 -2.7,-19.5 -8.5,-62.8 -9.6,-72 -0.5,-4.1 -2.3,-17.4 -2.8,-21 -0.2,-1.1 -1.2,-9.1 -2.2,-17.7 -1,-8.7 -2.2,-15.8 -2.6,-15.8 -0.4,0 -0.8,33.9 -0.9,75.3 -0.2,94.5 -0.3,86.7 1.3,86.7 2,0 0.5,1.7 -2.6,2.8 -3.8,1.4 -5.3,4.7 -2.8,6.2 1.2,0.6 -0.8,0.9 -6.8,1 -4.7,0 -8,-0.4 -7.5,-0.8 z"
       id="path91" />
    <path
       d="m 1096.5,529.3 c 0.9,-2 2,-4.2 2.6,-5 0.7,-0.7 0.8,-2 0.3,-3 -0.4,-1 -0.8,-24.3 -1,-51.8 -0.1,-27.8 -0.7,-55.6 -1.3,-62.5 -1.9,-20.6 -2,-21.7 -3.6,-44.5 -0.8,-12.1 -1.7,-23.1 -2,-24.5 -0.2,-1.4 -0.7,-6.5 -1,-11.5 -0.3,-4.9 -0.8,-11.2 -1,-14 -0.2,-2.7 -0.7,-9 -1,-14 -0.4,-4.9 -1.1,-10.9 -1.6,-13.3 -0.6,-2.7 -0.6,-4.9 0,-6.1 0.8,-1.3 0.4,-2.7 -1.4,-5.3 l -2.4,-3.5 7,-0.6 c 8.2,-0.7 9.5,-0.3 10.3,2.7 0.3,1.3 1.9,2.7 4.1,3.4 3.5,1.3 3.5,1.3 2,4.2 -2.5,4.8 -1.9,19.7 2,50 0.3,1.9 0.9,5.7 1.5,8.5 0.6,2.7 1.2,6.8 1.5,9 0.7,5.4 1.2,8.4 2,12 0.6,2.7 1,5.3 1.4,9.4 0.4,4.8 1.5,-3.5 4.7,-34 1.9,-18.9 3.6,-38.6 3.7,-43.8 0.2,-8.4 0.5,-9.5 2.6,-11.2 l 2.3,-1.9 -2.3,-3.6 c -2.6,-4.3 -1.9,-5.1 4.8,-4.9 3.7,0.2 4.8,0.6 5.4,2.3 0.4,1.2 2.2,2.8 3.8,3.7 1.7,0.8 3.1,1.9 3.1,2.3 -0.1,1.5 -2.7,4.1 -3.5,3.4 -0.5,-0.4 -0.6,-0.2 -0.2,0.3 0.3,0.6 -1,10.7 -2.9,22.5 -1.9,11.8 -3.4,22.7 -3.4,24.2 0,1.5 -0.4,2.9 -0.9,3.3 -0.6,0.3 -0.8,1.1 -0.6,1.8 0.3,0.7 -0.6,7.7 -2,15.7 -1.3,8 -2.7,16.9 -3,19.9 -0.3,2.9 -1,6.1 -1.5,7.1 -0.5,0.9 -0.7,2 -0.4,2.3 0.3,0.3 0,2.9 -0.6,5.8 -0.6,3 -1.1,6.6 -1,8.1 0,1.5 -0.4,3 -1,3.3 -0.6,0.4 -0.8,1 -0.5,1.5 0.5,0.8 -1.6,15.6 -2.5,18 -0.1,0.3 -0.2,0.9 -0.1,1.3 0.1,0.5 -0.3,3.4 -0.9,6.5 -0.6,3.5 -1,22.9 -1,50.1 0,42.4 0.1,44.7 2,47.8 1.8,3.2 1.9,3.4 0.2,3.9 -4.6,1.5 -7.1,2.7 -7,3.3 0,0.3 0,1.6 -0.1,2.9 -0.1,2.1 -0.5,2.2 -8.6,2.2 h -8.5 z"
       id="path93" />
    <path
       d="m 723.5,501.5 c 1.7,-21.7 1.9,-41 0.4,-43.6 -1.2,-2.2 -1.2,-18.6 0,-19.3 0.5,-0.3 1.3,0 1.9,0.7 1.5,1.7 4,19.9 4.8,33.7 0.3,6.3 1,12.5 1.5,13.9 0.6,1.5 0.6,5.4 -0.1,10.5 -1.7,12.7 -1.5,12.1 -5.5,12.1 l -3.6,0.1 z"
       id="path95" />
    <path
       d="m 426.4,496.9 c -1.6,-1.8 -2,-4.1 -2.2,-14.5 -0.2,-7.6 0,-12.4 0.6,-12.4 0.5,0 1.3,-1.1 1.6,-2.5 0.3,-1.3 1.6,-3.3 2.7,-4.4 1.7,-1.6 2.6,-1.8 5,-0.9 1.6,0.5 3.1,1.4 3.4,1.8 0.5,0.8 -3.6,22.3 -5.4,28.8 -0.5,1.7 -1.6,3.9 -2.4,4.7 -1.3,1.2 -1.7,1.2 -3.3,-0.6 z"
       id="path97" />
    <path
       d="m 277.3,431.8 c -0.3,-3.3 -2.2,-4.8 -4.8,-3.8 -1.5,0.6 -2.7,0.6 -3,-0.1 -0.4,-0.5 -0.6,-10.9 -0.5,-23.1 0,-20.2 0.3,-23 2.6,-32.2 3,-11.8 3.5,-12.9 8.1,-16.9 3.8,-3.4 8.5,-11.9 10.2,-18.7 1.5,-5.7 3,-8.9 5.5,-11.7 2.2,-2.6 7.1,-3.1 8,-0.8 0.3,0.8 1.5,1.5 2.6,1.5 1.1,0 2.3,0.7 2.6,1.5 0.9,2.3 -1.4,35.9 -3.1,45 -0.8,4.4 -2.4,15.2 -3.5,23.9 -2.5,19 -4.2,23 -13.7,31.3 -6.8,6 -10.8,7.5 -11,4.1 z"
       id="path99" />
    <path
       d="m 384,415.8 c -1.8,-5.1 -2.1,-7.6 -1,-8.3 0.5,-0.3 1,-1.4 1,-2.4 0,-2.3 7.8,-2.9 8.6,-0.6 1.2,3 -4.1,14.5 -6.7,14.5 -0.4,0 -1.2,-1.5 -1.9,-3.2 z"
       id="path101" />
    <path
       d="m 381.9,378.1 c -0.1,-1.7 -0.2,-3.7 -0.3,-4.3 -0.1,-0.7 1,-3.9 2.6,-7 1.5,-3.2 2.8,-6 2.8,-6.4 0,-0.3 -2.5,2.9 -5.6,7.2 -7,9.9 -6.7,9.6 -8.7,8.8 -2.9,-1.1 -1.9,-5.4 2.5,-11.3 7.2,-9.4 8.7,-11.9 10.2,-16.9 1.1,-3.9 1.1,-4.9 0.1,-4.9 -0.7,0 -1.1,0.6 -0.8,1.3 0.7,1.9 -1.4,5.1 -3.6,5.7 -1.1,0.3 -2,0.2 -1.9,-0.2 0.3,-2.3 -0.4,-4.1 -1.4,-3.8 -2.1,0.4 -1.1,-7.2 1.3,-10.8 4,-5.8 10.9,-8.3 10.9,-4 0,0.9 -0.9,3.3 -2,5.5 -2.2,4.3 -2.5,5.4 -1.1,4.5 0.5,-0.3 1.1,0.5 1.3,1.7 0.2,1.3 0.8,2.2 1.3,2 2,-0.5 2.1,7.2 0.3,12.1 -2.1,5.6 -2.2,6 -0.7,5.1 0.7,-0.4 0.9,0.1 0.7,1.2 -0.2,1.1 -1.1,1.8 -1.9,1.6 -0.8,-0.2 -0.4,0.6 0.9,1.8 1.8,1.7 2.2,2.9 1.7,4.9 -1.1,4.5 -4,8.6 -6.3,8.9 -1.8,0.3 -2.2,-0.2 -2.3,-2.7 z"
       id="path103" />
    <path
       d="m 774.6,369.8 c 0.5,-0.7 0.2,-0.9 -0.7,-0.6 -2.4,0.9 -3.4,-1.4 -3.4,-8 v -6.4 l 6,-5.5 c 7.9,-7.3 12.9,-10.6 16.8,-11 2.8,-0.3 3.5,0.2 5,2.9 1.6,3.1 1.6,3.7 0.1,8.8 -1.3,4.4 -2.7,6.6 -7.7,11.4 -3.4,3.3 -7.5,6.7 -9.2,7.8 -3.4,2 -8,2.5 -6.9,0.6 z"
       id="path105" />
    <path
       d="m 553.1,332.2 c 0.3,-28.4 0.8,-36.8 2.3,-37 2.8,-0.2 4.7,-0.9 5.8,-2 1.9,-1.9 5.5,3.1 8.2,11.7 1.4,4.3 2.6,9.6 2.8,11.7 0.3,3.8 0.2,3.9 -3.3,4.2 -3.2,0.3 -3.6,0.6 -3.1,2.4 0.3,1.3 0.1,1.9 -0.5,1.5 -1.8,-1.1 -5.3,6.9 -5.3,12.1 0,5 -1.6,17.1 -2.3,17.8 -0.2,0.3 -1.4,0.7 -2.7,0.9 l -2.2,0.4 z"
       id="path107" />
    <path
       d="m 273.7,341.1 -2.9,-0.6 6.5,-13 c 12.7,-25.3 26,-42.4 30.7,-39.5 1.9,1.2 -0.8,6.7 -10,21 -3.8,5.8 -9.7,15.4 -13.2,21.4 -3.5,6 -6.8,11 -7.3,11.1 -0.6,0.2 -2.3,0 -3.8,-0.4 z"
       id="path109" />
    <path
       d="m 855.4,257.7 c 0.1,-3 2,-5.2 9.1,-10.5 0.6,-0.4 2.7,-1.9 4.7,-3.4 2,-1.6 4.1,-2.8 4.7,-2.8 0.6,0 1.1,-0.4 1.1,-1 0,-0.5 0.7,-1 1.5,-1 0.8,0 1.5,-0.4 1.5,-1 0,-0.5 0.7,-1 1.5,-1 0.8,0 1.5,-0.4 1.5,-1 0,-0.5 0.7,-1 1.5,-1 0.8,0 1.5,-0.4 1.5,-0.8 0,-0.5 1,-1.4 2.3,-2 1.2,-0.6 4,-2.3 6.2,-3.6 7.1,-4.4 13.4,-7.6 14.9,-7.6 0.7,0 1.7,1.2 2.1,2.8 0.8,3.4 0,4.1 -24.4,20.8 -17.9,12.3 -21.7,14.4 -27.2,15.8 -2.5,0.5 -2.7,0.4 -2.5,-2.7 z"
       id="path111" />
    <path
       d="M 804.5,85.1 C 793.5,82.4 789,69.5 795,57.5 c 3.1,-6 7.5,-8.9 13.9,-8.9 9.9,0.1 15,6.3 15.1,18.1 0,3.4 -0.5,7.4 -1.1,9 -1.5,4.1 -5.7,8.1 -9.3,8.8 -1.7,0.4 -3.8,0.8 -4.6,1 -0.8,0.1 -2.8,0 -4.5,-0.4 z"
       id="path113" />
  </g>
  <g
     fill="#4a7674"
     id="g169"
     transform="translate(-8,-1.6299329)">
    <path
       fill="url(#lg0)"
       d="m 468,718.4 c -8.1,-1.6 -14.6,-3.8 -23,-7.7 -10,-4.7 -17,-7.9 -18.2,-8.2 -0.5,-0.2 -1,-0.4 -1.3,-0.5 -0.6,-0.3 -0.9,-0.4 -5.7,-1.3 -3.3,-0.7 -3.8,-1.1 -3.8,-3.7 0,-3.2 1.8,-4.2 6.5,-3.4 5.9,0.9 23.1,1.2 29.7,0.4 3.7,-0.4 8,-1.5 9.4,-2.5 l 2.7,-1.8 -2.4,-1.3 c -2.9,-1.5 -9.6,-2.1 -39.9,-3.4 -12.9,-0.6 -25.2,-1.3 -27.2,-1.6 -5.2,-0.8 -5.1,-3.5 0.2,-5.9 2.3,-1 4.3,-2.2 4.6,-2.6 0.7,-1.2 -6.3,-3.9 -10,-3.9 -3.5,0 -5.6,-1.5 -5.6,-4.1 0,-2.6 3.9,-4.6 10.5,-5.2 3.3,-0.3 6.8,-0.9 7.8,-1.3 1.6,-0.6 1.5,-0.8 -0.6,-1.9 -1.3,-0.6 -4.9,-1.5 -8.1,-1.8 -6.6,-0.7 -8.4,-1.8 -6.1,-3.7 2.7,-2.2 1.7,-3.8 -2.8,-4.5 -4,-0.6 -4.3,-0.9 -3.9,-3.1 0.3,-1.7 0,-2.4 -1.2,-2.4 -0.9,0 -1.6,-0.4 -1.6,-0.9 0,-0.5 -2.2,-2.3 -5,-4.1 -2.7,-1.8 -5,-3.5 -5,-3.9 0,-0.3 -4.2,-0.7 -9.3,-0.7 -8.3,0 -10.1,-0.4 -16.1,-3.2 -5.5,-2.6 -6.8,-2.9 -7.3,-1.7 -0.3,0.8 -1.1,1.5 -1.9,1.5 -0.9,0 -1.4,1.1 -1.4,2.9 v 2.9 l -6.1,-2.1 c -7.1,-2.4 -12.7,-7.2 -15.9,-13.7 -1.2,-2.5 -3.8,-6.1 -5.9,-8 -2,-1.9 -3.5,-3.4 -3.4,-3.4 0.2,0.1 1.9,-1.2 3.8,-2.9 2.7,-2.3 3.5,-3.8 3.4,-6.1 -0.1,-1.7 -0.3,-2.3 -0.6,-1.4 -0.3,1.4 -1,1.1 -3.9,-1.8 -2.9,-3 -3.2,-3.9 -2.3,-5.6 0.6,-1.1 0.9,-2.8 0.6,-3.8 -0.4,-1.4 0.2,-2 2.5,-2.5 2,-0.5 2.8,-1.1 2.4,-2.1 -0.4,-1 -0.2,-1.3 0.7,-0.8 0.7,0.5 0.6,0.1 -0.2,-1 -1.1,-1.3 -1.2,-1.9 -0.3,-2.5 1.6,-0.9 7.2,-0.2 7.2,1 0,0.5 0.7,0.6 1.5,0.3 0.8,-0.4 1.5,-0.2 1.5,0.3 0,0.5 1.5,0.7 3.4,0.5 2.9,-0.3 3.6,-0.9 4.1,-3.3 l 0.7,-2.9 42.1,0.1 c 23.2,0 44,0.3 46.2,0.7 3.5,0.7 4,1 3.6,3.2 -0.1,1.4 -0.8,2.9 -1.5,3.3 -1.4,1 9.2,0.6 11.9,-0.4 1.1,-0.4 7.1,-2.2 13.2,-3.9 l 11.2,-3.1 85.3,0.3 c 46.9,0.2 86.1,0.7 87.1,1.2 0.9,0.4 1.7,1.4 1.7,2.1 0,0.7 1.4,1.8 3,2.4 1.7,0.5 3,1.3 3,1.6 0,0.3 -1.8,3.3 -4,6.5 -4.5,6.6 -12.3,15.3 -31.2,34.7 -7,7.3 -12.8,13.7 -12.8,14.2 0,0.6 -0.4,1.1 -1,1.1 -0.5,0 -1,0.7 -1,1.5 0,0.7 -0.6,1.8 -1.3,2.2 -2.1,1.3 -5.7,6.5 -5.2,7.3 0.3,0.5 -0.5,1.6 -1.7,2.4 -1.7,1.2 -1.8,1.6 -0.6,1.6 0.8,0 4.1,-1.9 7.3,-4.2 3.1,-2.4 6.7,-4.3 7.9,-4.4 2.8,-0.1 15.4,-6.3 16.9,-8.3 1.5,-1.9 6.7,-2.3 6,-0.4 -0.3,0.7 -1,1.3 -1.5,1.3 -0.7,0 -0.6,0.5 0.1,1.4 0.6,0.7 0.8,2.1 0.5,3 -0.5,1.4 -0.2,1.6 2,1 2.5,-0.6 2.6,-0.5 1.6,2 -0.5,1.4 -0.7,2.6 -0.4,2.6 1.8,0 10,-6.9 15.1,-12.7 8,-9.1 8.2,-9.5 4.3,-8.8 -2.5,0.4 -3.1,0.3 -2.7,-0.8 0.3,-0.8 0,-2 -0.6,-2.6 -0.8,-0.8 0,-2 3,-4.6 2.4,-2 4.7,-5.1 5.4,-7.3 0.6,-2 2.1,-5 3.3,-6.7 2.2,-3.1 3,-5.9 1.5,-4.9 -1.7,1 -0.9,-1.3 1.6,-5 2.3,-3.5 2.6,-6.4 0.4,-5.1 -1,0.7 -1.2,-2.5 -0.3,-4.9 0.3,-0.8 2.2,-2 4.2,-2.7 3.3,-1.1 3.4,-1.3 1.7,-2.5 -1,-0.8 -1.5,-2 -1.1,-2.9 0.5,-1.3 2.1,-1.6 9.8,-1.4 13.7,0.3 17.8,0.9 17.8,2.5 0,0.7 1.3,2.3 2.9,3.5 l 3,2.2 -3.1,4.6 c -5,7.4 -28.6,36.2 -42.5,51.9 -3,3.5 -7.6,7.3 -10.2,8.6 -2.5,1.3 -8.4,6.2 -13.1,10.8 -9.7,9.7 -15.5,14.2 -16.9,13.4 -0.5,-0.3 -1.1,-0.2 -1.3,0.2 -0.1,0.5 -3.4,2.9 -7.3,5.3 -3.8,2.3 -7.2,4.6 -7.5,5 -1.3,1.7 -12,7.8 -15.6,8.9 -3.3,1 -4.6,0.9 -7.8,-0.4 -6.4,-2.7 -10.3,-2.1 -13.9,1.9 -9.9,10.9 -9.9,11 -24.3,16.4 -7.6,2.9 -17.3,6.2 -21.4,7.3 -7.3,1.9 -24.9,3.2 -30,2.2 z M 406.8,605.8 c 0.7,-0.7 1.2,-0.9 1.2,-0.4 0,2 9.8,-6.8 12.3,-11.1 0.7,-1.2 0.3,-1.2 -2.1,0.1 -1.7,0.9 -4.1,1.6 -5.4,1.6 -15.8,0 -22.6,3.1 -19,8.6 1.4,2.3 11,3.2 13,1.2 z"
       id="path117"
       style="fill:url(#linearGradient1082)" />
    <path
       d="m 564.4,700.8 c -0.5,-0.7 1.2,-2.9 4.2,-5.6 2.7,-2.5 4.8,-4.9 4.6,-5.4 -0.1,-0.5 0.2,-0.7 0.8,-0.3 0.5,0.3 1,0.2 1,-0.3 0,-1.1 16.4,-12.2 17.9,-12.2 1.6,0 1.3,2 -0.4,2.6 -0.8,0.4 -1.5,1.3 -1.5,2.1 0,0.8 0.5,1.1 1.3,0.8 2.9,-1.5 -6.5,5.9 -14.3,11.3 -11.2,7.8 -12.7,8.5 -13.6,7 z"
       id="path119" />
    <path
       d="m 8,566.5 c 0,-2.2 0.3,-5 0.6,-6.2 l 0.6,-2.1 590,0.1 c 585.1,0.2 590,0.2 591.4,2.2 1.7,2.2 1.5,8.5 -0.2,9.2 -0.6,0.2 -266.9,0.5 -591.8,0.6 L 8,570.5 Z"
       id="path121" />
    <path
       d="m 439.6,551.8 c 0.3,-0.7 2.6,-2.9 5.1,-4.8 2.6,-1.9 5.1,-4 5.7,-4.5 0.6,-0.6 2.7,-2.2 4.6,-3.5 1.9,-1.3 3.7,-2.7 4,-3 0.3,-0.3 5.7,-4.1 12,-8.4 6.3,-4.3 13.1,-9.3 15,-11 4.7,-4.3 11.3,-9.4 12.3,-9.4 0.5,0 3.6,-1.8 7,-4 10.1,-6.4 10.2,-6.5 11.7,-3.7 0.7,1.3 1.7,2.2 2.2,1.9 1.2,-0.7 1,11.3 -0.3,15.8 -0.6,2.5 -1.9,4.3 -3.8,5.2 -1.5,0.8 -3.2,2.6 -3.9,4 -0.6,1.4 -3,3.5 -5.2,4.6 -5,2.6 -17.9,14.6 -19.1,17.9 -0.8,1.9 -1.5,2.2 -3.9,1.9 -2.9,-0.4 -4.2,0.6 -1.9,1.4 0.6,0.2 -1.3,0.4 -4.3,0.5 -5.3,0.1 -5.5,0 -5,-2.2 0.2,-1.3 1.3,-3.2 2.3,-4.1 1,-0.9 1.9,-2.5 1.9,-3.4 0,-0.9 0.5,-2.1 1.2,-2.8 1.9,-1.9 -1.7,-1.5 -6,0.7 -2,1 -4.1,2 -4.7,2.2 -3.3,0.9 -10,4.4 -11.7,6.1 -3.3,3.3 -16.4,5.5 -15.2,2.6 z"
       id="path123" />
    <path
       fill="url(#lg1)"
       d="m 498.2,552.3 c 0.2,-0.4 1,-2.1 1.8,-3.7 1.1,-2.2 1.2,-3 0.3,-3.3 -2.7,-0.9 4.9,-6 11.5,-7.7 5.6,-1.4 10.2,-1.7 27,-1.4 22.7,0.3 22.6,0.3 21.8,-6.4 -0.2,-2.1 -1.3,-5.7 -2.5,-8 -4.5,-9.5 -4.4,-8.9 -4.2,-43.8 0.2,-26.5 0.6,-33.9 1.7,-35.4 1.3,-1.9 1.4,-1.9 2,1.2 0.4,1.8 1,3.2 1.5,3.2 0.5,0 0.9,1.2 0.9,2.8 0,3.7 1,7.2 2.1,7.2 0.5,0 0.9,-1 0.9,-2.2 0,-3.3 1,-4.4 5.2,-5.7 2.1,-0.7 4,-1.7 4.4,-2.2 0.3,-0.5 0.6,-22.3 0.6,-48.3 0,-43.8 0.6,-54.9 2.3,-47 1.6,7 5.9,11.7 7.9,8.5 0.3,-0.5 2.2,-1.2 4.1,-1.5 2.7,-0.5 3.5,-1.2 3.6,-2.9 0,-1.2 0.1,-22.6 0,-47.6 0,-35.9 -0.3,-45.7 -1.3,-46.7 -1.1,-1 -6.1,-2 -7.8,-1.5 -0.3,0.1 -8.4,0.4 -18,0.7 l -17.5,0.6 -11,-3.7 c -10.6,-3.6 -19,-5 -23.3,-3.8 -2,0.5 -2,0.5 -0.2,3.5 1.8,3 1.8,3.1 0,4.7 -2.7,2.3 -1.3,10.1 2.4,13.6 1.4,1.3 2.9,3.8 3.2,5.5 0.4,1.7 1.1,3.3 1.5,3.6 0.5,0.3 0.9,25.6 0.9,56.3 0,48.4 -0.2,56.4 -1.6,60.4 -0.9,2.6 -1.9,4.7 -2.4,4.7 -0.4,0 -6.8,3.6 -14.1,8.1 -7.3,4.4 -15.4,9.1 -17.9,10.4 -5.1,2.6 -15.6,5.6 -16.4,4.7 -0.3,-0.3 -0.6,0 -0.6,0.6 0,1.9 -1.5,1.4 -4.4,-1.3 -1.5,-1.4 -2.6,-3.5 -2.6,-5.1 0,-2.1 -0.4,-2.5 -2,-2.1 -1.3,0.3 -2.4,-0.1 -3,-1.4 -1.3,-2.2 -4.7,-2.5 -8.5,-0.5 -3.8,2 -6.1,4.8 -5.7,6.9 0.2,1 -0.4,2.9 -1.3,4.3 l -1.7,2.6 -2.2,-2.1 c -1.2,-1.1 -3.6,-2.4 -5.4,-2.7 -2.6,-0.5 -3.2,-1.1 -3.2,-3.1 0,-2.8 3.2,-7.8 6.7,-10.6 1.3,-1 2.3,-2.3 2.3,-2.9 0,-2.7 27.8,-31.8 30.4,-31.8 0.6,0 1.7,-0.9 2.4,-2 0.7,-1.1 1.6,-2 2.2,-2 0.5,0 2,-1 3.4,-2.3 3.3,-3.1 12,-7.3 20.4,-9.8 3.7,-1.2 7,-2.4 7.5,-2.8 0.4,-0.4 -2.6,-1.6 -6.6,-2.6 -6.3,-1.6 -8.3,-1.7 -13.3,-0.7 -8.5,1.7 -20,7.8 -34.6,18.2 l -12.8,9.2 -2.5,-3.1 c -1.6,-1.8 -3.2,-2.8 -4,-2.4 -2.4,0.8 -1.8,-2.1 1,-5.1 1.3,-1.4 2.2,-2.6 1.9,-2.6 -0.2,0 0.2,-1.7 1.1,-3.7 l 1.5,-3.8 -2.8,3.2 -2.8,3.3 0.2,-3 c 0.2,-3.2 -0.5,-3.7 -2.4,-1.8 -0.9,0.9 -1.2,0.8 -1.2,-0.5 0,-3.8 3,-7.5 8.2,-10.1 2.9,-1.5 6.3,-3.9 7.6,-5.3 2.5,-2.8 2.3,-4.5 -0.3,-1.9 -1.8,1.8 -5.5,2.2 -5.5,0.5 0,-0.5 -0.4,-0.8 -0.9,-0.5 -0.5,0.4 -0.7,-0.3 -0.4,-1.4 0.4,-1.4 0,-2 -1.1,-2 -0.9,0 -1.6,-0.6 -1.6,-1.2 0,-1 -0.3,-0.9 -0.9,0.1 -0.7,1.1 -1.1,1 -2,-0.5 -1,-1.8 -1,-1.8 -1.1,0 0,3.3 -1.2,0.9 -1.7,-3.6 -0.3,-2.4 -0.9,-5.1 -1.4,-6 -1.7,-3.2 -1,-13.8 1.4,-20 1.8,-4.9 3.6,-7.2 9.8,-12.9 15.4,-14.2 24.9,-20 35.4,-22 7.7,-1.4 8.4,-1.9 5.1,-3.6 -1.4,-0.7 -2.6,-1.8 -2.6,-2.3 0,-0.4 -0.3,-1.5 -0.6,-2.4 -0.4,-1 0.5,-2.2 2.6,-3.5 l 3.3,-1.9 -4.4,-1.2 c -9.8,-2.7 -11.3,-3.4 -14.8,-6.5 -4.4,-3.9 -8.8,-5.5 -15.5,-5.5 -4.5,0 -5.2,-0.3 -5.3,-2 -0.2,-1.9 0.4,-2 16.1,-2 23.2,0 26.9,-1 18,-5 -3.6,-1.5 -6.8,-2 -14.1,-2 -13.7,0 -30.2,-5.4 -26.9,-8.8 0.3,-0.3 2.9,-0.6 5.8,-0.8 2.9,-0.2 10,-1.1 15.8,-2 11.1,-1.7 17.3,-1.5 30.7,1.1 4.3,0.9 12,1.5 17.1,1.4 5.1,-0.1 9.5,0.1 9.8,0.4 1.6,1.6 -1.5,2.5 -10.8,3.2 -5.7,0.4 -13.2,1 -16.8,1.4 l -6.5,0.6 6,1.7 c 11,3.1 17.9,4.1 27.6,4.1 10.8,0 14.3,-0.8 13.5,-2.9 -0.8,-2.1 6.3,-1.8 13.4,0.7 5.5,1.9 15,2.3 16.6,0.7 0.2,-0.3 -4.2,-2.8 -9.8,-5.6 -25.3,-12.6 -53.5,-18.2 -84.3,-16.7 -44.6,2.1 -79.6,13.1 -106.8,33.4 l -6.7,5 V 255 c 0,-2.2 1.2,-3.9 5.2,-7.4 2.8,-2.5 5.5,-4.3 6,-4 0.4,0.3 0.8,0.1 0.8,-0.3 0,-0.9 5.5,-4.5 6.6,-4.3 0.4,0.1 1,-0.3 1.3,-0.8 0.7,-1 6.7,-4.3 7.7,-4.1 0.4,0 1,-0.3 1.3,-0.8 0.5,-0.8 8.8,-4.8 10.1,-4.8 0.3,-0.1 1.5,-0.6 2.8,-1.3 1.2,-0.7 2.2,-1 2.2,-0.6 0,0.3 0.6,0.2 1.3,-0.3 1.1,-1 9.2,-3.9 13.3,-4.8 1,-0.2 4.4,-1.1 7.4,-1.9 3,-0.8 6.9,-1.7 8.5,-2 1.7,-0.3 4.1,-0.8 5.5,-1.1 8.4,-1.8 15.7,-2.8 27,-4 3,-0.3 7.8,-0.8 10.5,-1.1 2.8,-0.4 22.5,-0.8 43.8,-0.9 36.7,-0.3 46.8,-1 50.2,-3.5 0.6,-0.4 2.8,-1.3 5,-2 5.4,-1.8 27.7,-12.2 29.3,-13.7 0.7,-0.7 2,-1.3 2.8,-1.3 0.8,0 1.4,-0.4 1.4,-1 0,-0.5 1.1,-1.2 2.5,-1.6 1.4,-0.3 2.5,-0.9 2.5,-1.3 0,-0.3 1.7,-1.5 3.8,-2.6 2,-1.1 3.9,-2.2 4.2,-2.5 1.3,-1.3 9.1,-6 10,-6 0.5,0 1,-0.4 1,-0.8 0,-0.9 7,-4.5 7.6,-3.9 0.2,0.2 -1.3,1.3 -3.4,2.5 -6.2,3.5 -20.8,13.4 -18.7,12.7 5.2,-1.8 8.6,-2.5 9.5,-2 0.6,0.4 3.3,-0.7 6,-2.4 2.8,-1.7 5.4,-3 5.8,-2.9 0.8,0.3 1.7,-0.3 16.3,-9.9 5.4,-3.5 10.2,-6.3 10.8,-6.3 0.6,0 1.1,-0.4 1.1,-0.8 0,-0.9 5,-3.5 5.5,-3 0.2,0.2 -7.8,5.6 -17.8,12 -13.7,9 -17.4,11.8 -15.3,11.8 1.5,0 4,-0.7 5.6,-1.5 1.7,-0.9 3,-1.3 3,-0.9 0,0.4 0.7,0.1 1.5,-0.6 0.8,-0.7 1.5,-1 1.5,-0.6 0,0.3 1,0.2 2.3,-0.3 3,-1.2 5.1,0.1 8.2,4.7 1.4,2 5,7.1 8,11.2 3,4.1 7,9.8 9,12.5 9.5,13.5 13.6,19.1 20.1,27.7 7.3,9.5 11.9,16.2 14.3,20.6 1,1.9 1.1,2.6 0.1,3.2 -0.9,0.6 -0.8,0.9 0.6,1.2 1,0.3 -0.3,0.5 -3.1,0.4 -7.5,0 -9.5,1.5 -9.5,6.9 0,3.7 0.6,5.1 3.4,8.1 2.2,2.3 3.9,5.4 4.6,8.3 1.6,6.9 0.9,224.9 -0.7,227.6 -0.7,1.1 -1.3,1.4 -1.3,0.8 0,-1.2 -5.5,4.4 -9.9,10.2 -1.3,1.7 -2.6,3 -3.1,3 -0.4,0 -1.6,1 -2.6,2.3 -2.5,3.1 -4.9,2.1 -7.4,-3.1 -2.4,-4.9 -2.5,-6.5 -0.6,-10.3 1.9,-3.8 3.2,-9.5 1.7,-7.4 -0.7,0.9 -1.1,1 -1.1,0.3 0,-0.6 0.4,-1.5 1,-1.8 0.5,-0.3 1.4,-1.4 2,-2.4 0.9,-1.7 0.6,-1.8 -3,-1.5 -3.9,0.4 -4,0.3 -4.2,-2.9 0,-1.7 -0.2,-4.3 -0.4,-5.7 -0.1,-1.4 -0.5,-7.9 -0.8,-14.5 -0.3,-6.6 -0.9,-14 -1.1,-16.5 -0.3,-2.5 -0.7,-7.4 -1,-11 -1.1,-17 -1.6,-23.1 -2.1,-30 -0.3,-4.1 -0.6,-8.2 -0.6,-9 0,-0.8 -0.6,-10 -1.4,-20.5 -0.8,-10.4 -1.6,-22.6 -1.9,-27 -0.3,-4.4 -0.8,-10.7 -1.1,-14 -0.2,-3.3 -0.7,-8.9 -0.9,-12.5 -1.2,-17.6 -1.7,-24.6 -1.7,-26 0,-0.8 -0.4,-6.4 -0.9,-12.5 -0.4,-6 -1.1,-14.8 -1.5,-19.5 -0.9,-13.3 -1.6,-16.3 -4.2,-17.6 -1.2,-0.6 -7.6,-1.2 -14.2,-1.3 -11.4,-0.2 -12.1,-0.1 -14.3,2.1 -2.3,2.3 -2.4,3.2 -3,21.4 -0.3,10.4 -1.3,31.1 -2.1,45.9 -0.9,14.9 -3.2,56.3 -5.1,92 -5.6,104.4 -4.9,97.1 -10.9,103.5 -2.3,2.4 -3.6,4.9 -4,7.8 L 594,537 h 3.2 c 1.8,0.1 20,0.1 40.3,0.2 38.1,0.1 41.3,-0.2 44.1,-4 2.2,-2.8 1.6,-3.4 -1.3,-1.3 -2.6,1.9 -3.8,2 -20,1.4 -15.2,-0.5 -17.3,-0.8 -17.3,-2.3 0,-0.9 0.7,-2.5 1.5,-3.6 2.1,-2.8 1.8,-3.9 -1.2,-5 l -2.6,-0.9 0.2,-18.8 c 0.2,-13.4 -0.1,-19.2 -0.9,-20.3 -1.9,-2.2 -6.6,-1.7 -9.7,1 l -2.8,2.4 v 15.4 c 0,15.5 0.6,23.2 1.8,24.5 0.8,0.7 1,4.3 0.2,4.3 -0.2,0 -2,-0.8 -3.9,-1.7 -3.4,-1.6 -3.7,-1.6 -5.6,0.2 -1.1,1 -1.8,2.5 -1.6,3.2 0.4,1 -0.7,1.3 -4.9,1.2 l -5.4,-0.2 2,-3.9 c 1.1,-2.1 1.6,-4.4 1.2,-5 -1.3,-2.3 -1.1,-15.4 0.8,-46.8 2.5,-40.8 8.5,-150.1 9.9,-179 1.5,-31.8 1.3,-30.7 6.1,-32.1 2.7,-0.9 5.9,-0.9 10.6,-0.3 6.6,0.9 6.6,0.9 8,4.8 0.7,2.2 1.5,7.2 1.8,11 0.3,3.9 0.7,10.7 1,15.1 0.3,4.4 1.2,16.8 1.9,27.5 0.8,10.7 1.4,20.2 1.4,21 0,0.8 0.5,7.1 1,14 0.6,6.9 1,13.2 1,14 0,2.5 7.1,98.4 8.7,116 0.7,9.1 1.1,19.4 0.9,23 -0.8,10 -0.5,12.3 1.7,14.6 2.9,3 10.4,5.1 12.4,3.4 1.3,-1.1 1.5,-1 0.9,0.6 -0.3,1.2 0.6,0.6 2.7,-1.6 1.7,-1.9 2.8,-2.8 2.4,-2 -0.5,0.9 -0.4,1.2 0.1,0.7 0.5,-0.5 0.9,-1.6 0.9,-2.5 0,-0.9 1,-2.1 2.2,-2.8 1.3,-0.6 2.1,-1.3 1.8,-1.6 -0.3,-0.2 0.7,-1.5 2.1,-2.9 2.6,-2.4 2.7,-2.4 1.5,-0.1 -0.7,1.2 -0.9,2.7 -0.6,3.2 0.4,0.6 -0.3,2.2 -1.4,3.6 -1.2,1.5 -2.1,4.1 -2.1,6 0,2.1 -0.8,4.2 -2.2,5.6 l -2.1,2.1 2.2,-0.6 c 1.2,-0.3 2.7,0 3.4,0.7 0.6,0.6 3.6,1.1 6.5,1.1 l 5.2,-0.2 -2.7,2.9 c -1.4,1.5 -2.3,3.1 -2,3.5 0.4,0.4 2,-0.8 3.5,-2.7 3.3,-3.8 5.9,-4.6 6.7,-2 0.3,1 1.3,2.1 2.1,2.4 1.3,0.5 1.3,1 -0.5,3.5 -3.4,4.8 -8.4,6.1 -23.1,6.1 -12.7,0 -13,0 -13,-2.2 0,-1.7 -0.3,-1.9 -1.2,-1 -1.7,1.7 -2.9,1.5 -2.2,-0.3 0.3,-0.8 0.9,-1.4 1.2,-1.3 0.4,0 1,-0.1 1.5,-0.2 0.4,-0.1 1.3,-0.3 1.9,-0.4 1.2,-0.1 4.6,-6 4.8,-7.9 0,-0.5 -1.6,0 -3.6,1.2 -4.2,2.5 -4.5,2.6 -3.7,0.5 1.1,-2.9 -3.4,0.3 -6.2,4.3 -4.6,6.9 -2,6.7 -89.3,7 -43.1,0.2 -78.2,0 -78,-0.4 z M 637.4,461 c 0.6,-0.6 1.1,-4.3 1.1,-8.3 0,-9.9 -3.6,-73.8 -4.3,-75.7 -0.8,-2.1 -1.9,8.2 -2.6,23.5 -0.3,7.2 -0.9,18.6 -1.2,25.5 -0.3,6.9 -0.9,17.1 -1.2,22.8 -0.4,5.8 -0.4,10.2 0.1,10.2 0.5,0 0.7,1 0.4,2.1 -0.5,2 -0.3,2.1 3,1.6 2,-0.4 4.1,-1.1 4.7,-1.7 z"
       id="path125"
       style="fill:url(#linearGradient1084)" />
    <path
       d="m 822.7,532.7 c 0.3,-0.7 1.3,-2.2 2,-3.4 1.2,-1.8 1.5,-21.5 1.7,-118.5 0.2,-113.7 0.4,-119 3.2,-128.3 0.6,-1.7 0.2,-1.5 -1.8,0.7 -4.6,4.8 -11.6,23.4 -13.3,35.3 -1.7,11 -2.7,18.7 -3.1,23.5 -0.7,8.5 -0.6,8.2 -1.8,7 -0.5,-0.5 -1.8,-1 -2.8,-1 -1.8,0 -1.9,-1.8 -1.6,-40.4 0.2,-22.2 0.7,-40.8 1.1,-41.3 1,-1 59.4,-1.1 61,-0.1 0.9,0.5 1.2,12.2 1.4,43 0,23.3 -0.1,41.5 -0.4,40.6 -0.2,-1 -0.5,-1.8 -0.6,-1.8 -0.1,0 -1.6,0.4 -3.3,0.9 l -3.1,0.9 -0.7,-10.2 c -0.4,-5.5 -1.1,-12.8 -1.6,-16.1 -0.5,-3.3 -1.2,-7.8 -1.6,-10 -1.5,-10.3 -8.7,-30.1 -10.4,-29 -0.4,0.2 -0.3,2.9 0.1,6 0.4,3 0.8,55.6 0.8,116.9 0.1,91.8 0.3,112 1.5,115.2 1.3,3.8 1.2,4 -1.1,5.8 -1.6,1.1 -2.3,2.5 -2,3.6 0.4,1.7 -0.4,1.9 -11.9,1.9 -9.4,0 -12.3,-0.3 -11.7,-1.2 z"
       id="path127" />
    <path
       d="m 1013.1,532.7 c -4.1,-1.3 -11.2,-7.9 -13.6,-12.5 -2.6,-5.3 -5.6,-15.2 -6.3,-21.2 -0.4,-3 -0.7,-17.3 -0.7,-31.7 0,-25.9 0,-26.2 2.3,-28.6 2.2,-2.3 5.9,-4.2 13,-6.5 2.8,-0.9 3.6,-0.8 5.2,0.8 1.9,1.9 1.9,3.2 1.4,28.2 -0.7,30.4 0.4,44.9 3.8,50.9 6.7,12 10.9,0.1 11.2,-31.9 0.1,-19.7 -0.8,-34.3 -3.1,-46.7 -1.4,-7.8 -2.8,-11.4 -11.4,-28 -10.7,-21 -18,-38.3 -20.4,-49 -2.2,-9.3 -3.3,-55.3 -1.6,-65.1 2.8,-16 11.8,-24.9 25.1,-24.8 11.7,0.1 22.4,7.7 24.4,17.4 0.3,1.4 0.8,3.6 1.2,5 1.1,4.5 1.6,8.4 2,17.5 0.2,5 0.6,13.1 1,18 0.8,11.1 -0.5,14.7 -6.7,19.2 -4.1,2.8 -4.7,3 -6.9,1.7 -1.4,-0.7 -3.7,-1.3 -5.1,-1.4 h -2.6 l -0.2,-21.2 c -0.3,-34 -0.8,-39.6 -3.9,-43 -2.4,-2.8 -3.7,-2.2 -5.8,2.4 -1.8,4 -1.9,6.7 -1.7,35.3 l 0.3,31 7.2,14.5 c 3.9,8 9.1,18.4 11.5,23.2 2.4,4.8 4.3,8.9 4.3,9 -0.1,0.2 1,2.8 2.4,5.9 3.7,8.4 8.5,22.6 9,26.4 0.3,1.9 0.7,3.8 1,4.3 2.7,4.5 2.8,67.9 0,72.4 -0.3,0.5 -0.7,2.1 -0.9,3.7 -0.2,1.6 -1,4.4 -1.8,6.2 -0.8,1.9 -1.4,3.8 -1.5,4.3 0,0.5 -0.4,1.2 -0.9,1.5 -0.4,0.3 -1.5,2 -2.4,3.6 -1.9,3.4 -9.6,9.8 -10.9,9 -0.5,-0.3 -1.1,-0.1 -1.5,0.5 -0.8,1.3 -12,1.1 -16.4,-0.3 z"
       id="path129" />
    <path
       d="m 132,532.3 c 0,-0.4 0.9,-2.3 2,-4.1 2.4,-3.9 2.4,-4.6 0.5,-6.5 -1.3,-1.3 -1.5,-16.8 -1.5,-122.8 0,-118.5 0,-121.3 1.9,-123.2 1.9,-1.9 1.9,-2 -0.6,-6.6 l -2.4,-4.6 7.3,-0.3 c 9.1,-0.4 11.6,0.3 12.8,3.2 0.9,2.4 6.2,4.2 8.3,2.9 0.6,-0.4 -0.1,1.4 -1.6,3.9 l -2.7,4.7 v 119.8 c 0,119 0,119.8 2.1,123.2 2.3,3.8 2.4,3.5 -1.6,4.8 -1.9,0.6 -3.2,1.8 -3.5,3.4 -0.6,2.3 -0.9,2.4 -10.8,2.7 -5.6,0.1 -10.2,-0.1 -10.2,-0.5 z"
       id="path131" />
    <path
       d="m 203.8,532.3 c 0.6,-0.2 1.2,-1.3 1.2,-2.3 0,-0.9 0.7,-2.3 1.5,-3 1.9,-1.6 1.9,-4.4 0.1,-5.9 -1.2,-1 -1.4,-19.4 -1.5,-122.5 -0.1,-119 0,-121.4 1.9,-123.1 1.9,-1.7 1.9,-1.8 -0.5,-6 -1.4,-2.3 -2.5,-4.5 -2.5,-4.8 0,-0.8 21.6,-0.1 23,0.8 2.7,1.7 4.4,10 7.6,36.5 1.9,15.7 3.7,30.5 3.9,33 0.3,2.5 1.2,9.9 2,16.5 0.8,6.6 1.7,14 1.9,16.5 0.3,2.5 1.2,10.1 2,17 2.6,20.6 2.9,23.4 3,26.2 0.1,1.4 0.4,2.4 0.8,2.2 0.4,-0.2 0.9,0.6 1.1,1.8 0.3,1.3 0.4,-29 0.2,-67.3 l -0.4,-69.6 2.5,-2.6 2.4,-2.6 -2.1,-3.6 c -1.2,-2 -1.9,-3.9 -1.6,-4.2 1,-1 15.1,-1.2 17.5,-0.2 1.8,0.7 2.2,1.5 1.9,4.1 -0.2,1.8 -1,4.4 -1.7,5.8 -0.8,1.4 -1.6,3.2 -1.9,4 -0.3,0.8 -0.6,57.9 -0.8,126.9 -0.1,68.9 -0.4,125.5 -0.5,125.6 -0.9,0.9 -10,1.4 -14.1,0.9 -6.4,-0.9 -6.3,-0.5 -9.2,-23.4 -0.3,-2.5 -0.8,-6.1 -1,-8 -0.5,-4.5 -3.5,-26.7 -4,-30 -1,-6.9 -1.5,-10.9 -2,-15.5 -0.9,-7.4 -2.5,-19.9 -2.9,-22.1 -0.2,-1 -0.7,-4.8 -1.1,-8.4 -0.4,-3.6 -1.3,-11.4 -2.1,-17.5 -2.1,-15.9 -5.4,-41.9 -5.4,-42.7 0,-0.5 -0.4,-0.8 -1,-0.8 -0.7,0 -1,26.7 -1,78 0,68.1 0.2,78.5 1.5,81 1.5,2.9 1.5,3 -0.9,3 -3.1,0 -5.9,2.7 -5.3,5.1 0.5,1.7 -0.2,1.9 -6.6,1.8 -4,0 -6.6,-0.3 -5.9,-0.6 z"
       id="path133" />
    <path
       d="m 301.2,530.5 c 0.6,-1.1 1.8,-2.8 2.6,-3.8 1.2,-1.3 1.3,-2 0.4,-2.9 -1.7,-1.7 -1.5,-16.9 0.8,-53 1.1,-17.2 3.5,-61.2 5.5,-97.8 1.9,-36.6 3.9,-70.5 4.4,-75.5 0.5,-4.9 1,-13.2 1,-18.3 0,-5.1 0.5,-10.1 1.1,-11.2 1.4,-2.5 6,-3.3 14,-2.3 7.9,1 8.8,2.4 9.6,14 0.2,4.3 0.6,10.5 0.9,13.8 1.7,24.2 2.3,33.2 2.3,34.5 0.1,0.8 0.3,4.7 0.6,8.5 0.3,3.9 0.8,10.8 1.1,15.5 0.8,12.1 1.3,19.6 2.5,35 0.5,7.4 1.2,17.1 1.5,21.5 0.3,4.4 1.4,19.5 2.4,33.5 1,14 1.9,26.2 1.9,27 0.2,5.1 4.3,52.1 4.7,54.8 0.5,2.5 0.2,3.2 -1,3.2 -0.8,0 -1.7,-0.1 -1.8,-0.2 -1.1,-0.8 -3.7,2.7 -3.2,4.3 0.6,1.8 0,1.9 -8.4,1.9 -10.1,0 -10.4,-0.3 -7.1,-5.8 1.2,-1.9 1.6,-3.1 1,-2.7 -0.5,0.3 -1,0.1 -1,-0.5 0,-0.7 -0.7,-0.9 -1.6,-0.6 -0.8,0.3 -1.3,0.2 -1,-0.3 0.3,-0.5 0,-1.1 -0.7,-1.4 -1.1,-0.4 -1.2,-2.1 -0.5,-8.3 1.2,-9.9 0.5,-29.1 -1,-30.6 -0.6,-0.6 -2.8,-1.1 -4.8,-1.2 -2.9,-0.1 -4.1,0.5 -5.7,2.6 -1.8,2.4 -2,4.2 -2,18.5 0,14.2 0.4,17.8 2.9,26.6 0.5,1.7 0.3,1.7 -3.5,-0.2 -5.3,-2.7 -5.8,-2.7 -6.6,1 -0.7,3 -0.7,3 -6.5,2.7 -5.5,-0.2 -5.8,-0.4 -4.8,-2.3 z m 28.2,-70.7 c 1.7,-2.1 1.8,-3.5 1.1,-15.8 -0.4,-7.4 -0.9,-14.6 -1,-16 -0.2,-1.4 -0.6,-10.6 -0.9,-20.5 -0.8,-23.2 -1.6,-33.6 -2.5,-33 -0.7,0.4 -1.3,8.7 -2.6,35 -0.2,5.5 -0.7,14.5 -0.9,20 -0.3,5.5 -0.7,15.5 -0.8,22.1 l -0.4,12.1 3.1,-0.8 c 1.6,-0.5 3.8,-1.9 4.9,-3.1 z"
       id="path135" />
    <path
       d="m 394,531.9 c 0,-0.6 1,-2.4 2.1,-4.1 1.8,-2.5 2,-3.4 1,-5.5 -0.6,-1.3 -0.8,-2.9 -0.5,-3.5 0.9,-1.4 0.9,-232.2 0,-237.4 -0.6,-3.1 -0.3,-4.4 0.8,-5.4 2.1,-1.7 2,-2.5 -0.9,-6.8 -1.4,-2 -2.5,-4 -2.5,-4.4 0,-0.5 5.1,-0.8 11.4,-0.8 h 11.4 l 0.5,2.9 c 0.4,2.1 1.5,3.2 3.9,4.1 1.8,0.7 3.8,1.2 4.3,1.1 0.6,-0.1 -0.2,1 -1.7,2.3 -1.7,1.5 -3,3.9 -3.3,6.3 -0.4,2.1 -0.8,55.3 -1,118.3 -0.1,63 -0.5,115.6 -0.8,117 -0.2,1.4 -0.5,3 -0.6,3.7 0,0.6 -0.9,1.4 -1.8,1.6 -1.3,0.3 -1.1,0.5 0.6,0.6 3.5,0.2 9.5,-6.9 14.1,-16.4 5,-10.5 9.2,-27.5 12.6,-51.7 l 2.8,-19.6 2.7,-0.4 2.7,-0.4 0.4,45.5 c 0.2,25.1 0.1,46.7 -0.2,48.1 -0.4,1.5 -2,3.2 -4.1,4.2 -2.9,1.5 -7,1.7 -28.6,1.8 -17.7,0 -25.3,-0.3 -25.3,-1.1 z"
       id="path137" />
    <path
       d="m 525.7,528 c 2.6,-4.6 2.6,-5 1,-6.7 -1.5,-1.8 -1.6,-10.8 -1.7,-123.1 0,-89.4 0.3,-121.8 1.2,-123.1 0.9,-1.5 0.7,-2.5 -1.1,-5.4 l -2.1,-3.5 25.4,-0.7 c 14,-0.4 28.1,-0.4 31.3,0.1 l 5.8,0.9 0.7,4.5 c 0.8,5.7 1,73.5 0.2,72.7 -0.4,-0.3 -1.5,-0.2 -2.5,0.3 -2.3,1.3 -3.9,-1.4 -3.9,-6.6 0,-6.2 -3.8,-26.5 -6.4,-34.2 -2.5,-7.3 -6.6,-14.1 -10.7,-17.8 -2.8,-2.4 -9.5,-6 -12.4,-6.7 -2,-0.4 -2,0.1 -2,49.9 0,56 -0.5,52.9 6.8,44.4 4.1,-4.8 5.3,-8.5 6.8,-21.1 l 1.2,-9.5 2.9,0.4 2.8,0.4 -0.1,45.3 -0.2,45.3 -2.7,-0.2 c -2.7,-0.1 -2.8,-0.2 -3.4,-8.1 -1.3,-15.4 -4,-22.7 -12,-31.9 l -3.4,-4 0.9,4.5 c 0.4,2.4 0.9,31.2 0.9,63.9 0.1,49.1 0.3,60.2 1.5,63.5 0.8,2.2 1.5,4.1 1.5,4.3 0,0.1 -1.1,0.2 -2.5,0.2 -2.6,0 -6.2,4.1 -5.1,5.9 0.4,0.6 -3.6,0.9 -10.4,0.9 h -11 z"
       id="path139" />
    <path
       d="m 700.5,532.2 c 2.1,-1.5 4.8,-8.1 4,-9.9 -1.1,-2.3 -1,2.5 -1.3,-131.2 -0.2,-103.6 -0.1,-114.6 1.3,-116.2 1.5,-1.6 1.4,-2 -0.9,-5.7 l -2.5,-3.9 6.1,-0.7 c 7.6,-0.8 16.8,0.2 18.9,2.1 0.9,0.8 2.2,3.3 2.8,5.6 0.9,3.5 6.7,49.5 7.6,60.2 0.1,1.7 0.5,4.6 0.9,6.5 0.3,1.9 0.8,5.8 1.1,8.5 0.6,7 6.2,52.3 7.6,62 1.4,9.2 3.2,13.7 2.5,6 -0.3,-2.7 -0.6,-35.3 -0.6,-72.4 -0.1,-63.7 0,-67.4 1.7,-68.8 1,-0.8 1.1,-1.1 0.3,-0.7 -1.3,0.7 -1.3,0.5 -0.2,-0.9 1.2,-1.4 1.1,-2 -0.2,-3.9 -2.4,-3.4 -2,-3.8 2.9,-3.8 3.4,0 4.5,0.4 4.5,1.5 0,0.8 0.5,2.3 1.1,3.3 1,1.7 1.6,1.7 4.8,0.6 3.2,-1.1 3.7,-1 4.3,0.4 0.5,1.2 0.7,1.3 0.7,0.3 0.1,-0.8 0.4,-1.1 0.8,-0.8 0.3,0.4 -0.4,2.8 -1.8,5.5 l -2.4,4.7 v 124.8 c 0,142.6 1.2,127.4 -10,127.6 -5.7,0.1 -6.6,-0.2 -9.4,-2.8 -1.7,-1.6 -3.1,-3.7 -3.2,-4.8 0,-1 -0.2,-2.5 -0.4,-3.4 -0.1,-0.8 -0.6,-4.2 -0.9,-7.5 -0.4,-3.2 -2,-15.3 -3.6,-26.9 -2.7,-19.5 -8.5,-62.8 -9.6,-72 -0.5,-4.1 -2.3,-17.4 -2.8,-21 -0.2,-1.1 -1.2,-9.1 -2.2,-17.7 -1,-8.7 -2.2,-15.8 -2.6,-15.8 -0.4,0 -0.8,34.1 -0.9,75.8 -0.3,91.4 -0.4,86.2 1.3,86.2 2,0 0.5,1.7 -2.6,2.8 -3.8,1.4 -5.3,4.7 -2.8,6.2 1.2,0.6 -0.8,0.9 -6.8,1 -4.7,0 -8,-0.4 -7.5,-0.8 z"
       id="path141" />
    <path
       d="m 898.7,531.3 c 0.4,-1 1.3,-2.8 2.1,-4.1 1.2,-1.9 1.3,-2.7 0.2,-4.7 -1,-1.8 -1.1,-6 -0.7,-16.7 0.6,-14.7 5.2,-96.3 6.2,-109.8 0.3,-4.1 1.7,-30.4 3,-58.5 2.9,-60.3 3.4,-68.8 4.6,-70.6 1.4,-2.3 17.2,-1.8 19.8,0.5 1.1,1 2,2.1 1.9,2.5 -0.1,0.3 0.1,2 0.5,3.6 0.3,1.7 0.9,9 1.2,16.4 0.3,7.4 0.8,13.7 1,14 0.2,0.3 0.6,6.9 0.9,14.6 0.4,7.7 0.8,14.7 1.1,15.5 0.2,0.8 0.6,7.8 1,15.5 0.3,7.7 0.8,14.9 1,16 0.2,1.1 0.7,7.2 1,13.5 0.7,13.4 1.2,20.1 2.4,36.5 0.5,6.6 0.9,12.7 0.9,13.5 0,0.8 0.9,13.7 2.1,28.5 1.1,14.9 2.3,30.4 2.6,34.5 1.1,16.7 2.5,31.8 3.1,33.4 0.5,1.2 -0.1,1.8 -2.5,2.2 -2.2,0.5 -3.3,1.4 -3.7,3 -0.6,2.3 -1,2.4 -8.5,2.4 -7.7,0 -7.9,-0.1 -7.9,-2.4 0,-1.3 0.6,-2.9 1.4,-3.6 0.8,-0.6 1.2,-1.8 0.9,-2.6 -0.3,-0.8 -0.8,-1.3 -1,-1 -0.3,0.3 -1.2,-0.2 -2.1,-1 -1.2,-1.3 -1.5,-4.9 -1.6,-19.8 -0.1,-20.9 -0.5,-22.2 -6.5,-21.1 -6.5,1.2 -6.6,1.7 -6.5,20.8 0,15.6 0.3,18.7 3,28 0.5,1.4 -0.1,1.3 -3.2,-0.8 -4.8,-3.2 -6,-3.2 -7.3,0.5 -0.9,2.8 -1.3,3 -6,3 -4.4,0 -5,-0.2 -4.4,-1.7 z m 25.6,-69.4 c 2.1,-0.9 2.6,-2.1 3.1,-6.8 0.4,-3.1 0.2,-10.1 -0.3,-15.6 -1,-9.4 -3.3,-50.2 -3.5,-60.7 -0.1,-2.7 -0.4,-4.8 -0.7,-4.8 -0.7,0 -1.6,10 -2.4,27 -2.5,52.4 -2.5,55.2 -1.9,58.7 0.7,3.5 1.8,4 5.7,2.2 z"
       id="path143" />
    <path
       d="m 1096,530.8 c 0,-0.7 0.9,-2.8 2.1,-4.7 1.2,-2 1.7,-4 1.3,-5 -0.4,-0.9 -0.8,-24.1 -1,-51.6 -0.1,-27.8 -0.7,-55.6 -1.3,-62.5 -1.9,-20.6 -2,-21.7 -3.6,-44.5 -0.8,-12.1 -1.7,-23.1 -2,-24.5 -0.2,-1.4 -0.7,-6.5 -1,-11.5 -0.3,-4.9 -0.8,-11.2 -1,-14 -0.2,-2.7 -0.7,-9 -1,-14 -0.4,-4.9 -1.1,-10.9 -1.6,-13.3 -0.6,-2.7 -0.6,-4.9 0,-6.1 0.8,-1.3 0.4,-2.7 -1.4,-5.3 l -2.4,-3.5 7,-0.6 c 8.2,-0.7 9.5,-0.3 10.3,2.7 0.3,1.3 1.9,2.7 4.1,3.5 3.3,1.2 3.4,1.3 2,3.4 -2.6,3.7 -1.8,23.6 2.1,51.2 0.2,1.7 0.8,5.2 1.4,8 0.6,2.7 1.2,6.8 1.5,9 0.7,5.4 1.2,8.4 2,12 0.6,2.7 1,5.3 1.4,9.4 0.4,4.8 1.5,-3.5 4.7,-34 1.9,-18.9 3.6,-38.6 3.7,-43.8 0.2,-8.4 0.5,-9.5 2.6,-11.2 l 2.3,-1.9 -2.3,-3.6 c -2.6,-4.3 -1.9,-5.1 4.8,-4.9 3.7,0.2 4.8,0.6 5.4,2.3 0.4,1.2 2.2,2.8 3.8,3.7 2.7,1.4 2.9,1.8 1.9,3.5 -0.7,1.1 -1.5,2 -1.8,2 -0.3,0 -0.6,1.5 -0.7,3.3 -0.2,1.7 -1.7,11.8 -3.3,22.2 -3.4,21.3 -3.6,22.4 -4.4,28 -0.3,2.2 -1.4,9.6 -2.6,16.5 -1.1,6.9 -2.3,14.3 -2.6,16.5 -0.2,2.2 -0.7,5.1 -1,6.5 -0.3,1.4 -0.8,4.1 -1,6 -0.2,1.9 -0.7,5.1 -1,7 -1,5.3 -1.2,6.1 -1.8,11.6 -0.3,2.8 -1.1,7.5 -1.7,10.5 -0.6,3 -1.3,7.4 -1.5,9.9 -0.3,2.5 -0.7,5.1 -1,5.9 -0.3,0.8 -0.4,21.9 -0.4,47 0,43.4 0.1,45.6 2,48.8 1.8,3.2 1.9,3.4 0.2,3.9 -4.6,1.5 -7.1,2.7 -7,3.3 0.5,3.8 -0.1,4.1 -8.2,4.1 -5.7,0 -8,-0.4 -8,-1.2 z"
       id="path145" />
    <path
       d="m 463.9,523.5 c -0.1,-0.3 -0.2,-0.8 -0.3,-1.2 -0.3,-1.8 -1.9,-3.5 -4.1,-4.3 -1.6,-0.6 -2.4,-2 -2.8,-4.7 -1.1,-6.5 -0.8,-52.3 0.3,-52.3 0.6,0 1.6,-2.1 2.3,-4.7 0.8,-3.3 2.5,-6 5.7,-9 2.4,-2.4 5,-4.3 5.6,-4.3 0.7,0 1.4,-0.4 1.6,-0.9 0.6,-1.9 14.2,-10.1 15.8,-9.6 0.9,0.3 3.4,-0.2 5.5,-1.1 2.4,-1 4.7,-1.3 6.4,-0.8 2.8,0.8 3.9,1 5.8,1.2 1.7,0.3 4.3,5.5 4.3,8.7 0,5.8 -5.5,14.8 -15.6,25.5 -5.4,5.7 -11.2,11.9 -12.9,13.6 -2.9,3.1 -5.5,6.8 -5.5,7.9 0,0.3 0.8,0.1 1.9,-0.4 1,-0.6 2,-0.9 2.2,-0.8 0.2,0.1 0.3,0 0.1,-0.3 -0.2,-0.2 1.5,-2.2 3.6,-4.5 7.1,-7.2 10.2,-10.6 10.2,-11.3 0,-0.4 2.2,-2.8 4.9,-5.4 2.9,-2.8 4.8,-4.1 4.7,-3.1 -0.1,2.1 4,2.7 4.8,0.7 0.3,-0.8 1,-1.3 1.5,-1 0.5,0.3 1.1,-0.3 1.4,-1.3 0.7,-2.9 3.8,-4.2 6,-2.6 2.5,1.8 1.2,4 -6.7,12.4 -3.4,3.5 -5.4,6.1 -4.6,5.7 0.9,-0.5 0.8,-0.2 -0.2,0.7 -1,0.8 -1.8,1.7 -1.8,2.1 0,1.2 4.6,0.6 6.7,-0.9 1.9,-1.4 2.1,-1.3 1.6,0.5 -0.4,1.4 0.3,2.4 2.6,3.7 1.7,1 3.1,2.1 3.1,2.5 0,0.3 -3.7,4 -8.2,8.1 -4.6,4.1 -10,9.1 -12.2,11.1 -5.1,4.8 -13.1,10.3 -23.7,16 -8.4,4.5 -9.8,5.1 -10,4.1 z"
       id="path147" />
    <path
       d="m 723.1,502.8 c 0.1,-7.6 1.4,-11.6 4.9,-16.1 3,-3.7 4,-2.2 4,6 0,6.3 -2.6,14.3 -5.2,15.9 -3.3,2.1 -3.8,1.3 -3.7,-5.8 z"
       id="path149" />
    <path
       d="m 425.9,496.3 c -1.6,-1.8 -2.7,-26.3 -1.2,-26.3 0.5,0 1.4,-1.5 2.1,-3.2 1.4,-4.1 4,-5.8 7,-4.7 1.9,0.7 2.1,1.4 1.7,4.6 -0.3,2.1 -0.8,5.3 -1.1,7.1 -0.2,1.7 -1.3,6.9 -2.4,11.5 -3.4,14.2 -3.4,14.3 -6.1,11 z"
       id="path151" />
    <path
       d="m 724.9,486.9 c 0,-0.8 0,-4.8 0.1,-8.9 0.1,-13.6 -0.1,-18.3 -1.1,-20.1 -1.2,-2.2 -1.2,-18.6 0,-19.3 1.2,-0.8 1.7,1.7 3.2,14.3 1,7.9 1,10.8 0.1,12.2 -1,1.5 -0.9,1.9 0.1,1.9 0.9,0 1.7,2.3 2.4,6.7 0.9,6.3 0.8,6.9 -1.4,10.2 -3.1,4.5 -3.3,4.7 -3.4,3 z"
       id="path153" />
    <path
       d="m 277.3,431.8 c -0.3,-3.3 -2.2,-4.8 -4.8,-3.8 -1.5,0.6 -2.7,0.6 -3,-0.1 -0.4,-0.5 -0.6,-10.9 -0.5,-23.1 0,-20.2 0.3,-23 2.6,-32.2 3,-11.8 3.5,-12.9 8.1,-16.9 3.8,-3.4 8.5,-11.9 10.2,-18.7 1.5,-5.7 3,-8.9 5.5,-11.7 2.2,-2.6 7.1,-3.1 8,-0.8 0.3,0.8 1.5,1.5 2.7,1.5 2,0 2.1,0.4 1.5,5.3 -0.3,2.8 -0.8,9.9 -1.1,15.7 -0.9,15.3 -1.3,19.6 -3,28.5 -0.9,4.4 -1.8,9.8 -2,12 -3.3,28.8 -3.4,28.8 -13.6,38.3 -4.5,4.2 -8.7,7.7 -9.3,7.8 -0.7,0.1 -1.3,-0.7 -1.3,-1.8 z"
       id="path155" />
    <path
       d="m 384,415.7 c -1.8,-5 -2.1,-7.5 -1,-8.2 0.5,-0.3 1,-1.4 1,-2.4 0,-1.4 0.9,-1.8 4,-1.9 3.9,-0.2 4,-0.1 4,3.4 0,2.4 -0.4,3.3 -1.2,2.8 -0.7,-0.4 -0.8,-0.3 -0.4,0.5 1.3,2 -0.2,5.7 -2.8,7.4 -2.4,1.6 -2.5,1.5 -3.6,-1.6 z"
       id="path157" />
    <path
       d="m 381.9,378.1 c -0.1,-1.7 -0.2,-3.7 -0.3,-4.3 -0.3,-1.6 5,-12.4 6.4,-13.3 0.6,-0.4 0.7,0.1 0.3,1.1 -0.5,1.2 -0.3,1.5 0.6,0.9 0.9,-0.5 1.2,-0.2 0.9,1.1 -0.2,1.1 -1.1,1.8 -1.9,1.6 -0.8,-0.2 -0.5,0.5 0.9,1.8 1.2,1.1 2.2,2.5 2.2,3.1 0,2.4 -3,7.9 -4.4,7.9 -0.8,0 -2.2,0.7 -3,1.6 -1.5,1.4 -1.6,1.3 -1.7,-1.5 z"
       id="path159" />
    <path
       d="m 371,373.3 c 0,-1.5 1.7,-4.9 4.2,-8.2 7.2,-9.4 8.7,-11.9 10.2,-16.9 1.1,-3.9 1.1,-4.9 0.1,-4.9 -0.7,0 -1.1,0.6 -0.8,1.3 0.7,1.9 -1.4,5.1 -3.6,5.7 -1.1,0.3 -2,0.2 -1.9,-0.2 0.3,-2.3 -0.4,-4.1 -1.4,-3.8 -2.1,0.4 -1.1,-7.2 1.4,-10.9 3,-4.3 8.3,-7.3 10,-5.6 0.9,0.9 0.3,2 -2.8,4.7 -3.8,3.5 -3.8,3.6 -1.1,3 2.5,-0.5 2.7,-0.4 1.8,1.4 -1.4,2.5 -1.4,3.4 -0.1,2.6 0.6,-0.3 1,0.3 1,1.4 0,1.1 0.5,2.3 1,2.6 0.6,0.4 0.7,1.1 0.4,1.7 -0.4,0.6 -0.1,1.4 0.6,1.8 1.5,0.9 0.6,7.5 -1.2,8.6 -0.8,0.5 -0.9,0.1 -0.4,-1.1 1.2,-3.2 -1.5,-0.2 -8.9,9.9 -3.8,5.2 -7.3,9.6 -7.7,9.6 -0.5,0 -0.8,-1.2 -0.8,-2.7 z"
       id="path161" />
    <path
       d="m 553.1,332.1 c 0.3,-28.3 0.8,-36.7 2.3,-36.9 2.7,-0.2 4.5,-0.9 5.9,-2 1.3,-1.1 1.9,-0.5 4.1,4.2 2.1,4.5 6.6,19.9 6.6,22.9 0,0.4 -1.5,0.7 -3.4,0.7 -3,0 -3.3,0.3 -2.8,2.2 0.3,1.3 0.1,1.9 -0.5,1.5 -0.5,-0.3 -2.1,0.6 -3.5,2.1 -2.2,2.3 -2.7,4.2 -3.7,13.7 -1.5,13.7 -1.9,15.2 -3.8,15.2 -1.3,0 -1.4,-3.1 -1.2,-23.6 z"
       id="path163" />
    <path
       d="m 272,338.4 c 2.4,-6.1 12.4,-24.6 17.9,-32.9 8.9,-13.5 16.3,-20.7 17.7,-17.1 0.4,0.9 -2.5,6.1 -7.3,13.1 -4.3,6.3 -8.3,12.3 -8.8,13.2 -0.6,1 -3.7,6.3 -7,11.8 -3.3,5.5 -6.4,10.9 -7,12 -0.6,1.1 -2.3,2.1 -3.8,2.3 -2.6,0.3 -2.6,0.2 -1.7,-2.4 z"
       id="path165" />
    <path
       d="m 739.6,324.5 c -0.4,-3.3 -1.1,-8.2 -1.6,-11 -0.5,-2.7 -1.8,-12.4 -3,-21.5 -2.6,-20.7 -3.9,-28.2 -5.2,-29.7 -0.5,-0.7 -2.9,-1.5 -5.4,-1.9 -2.5,-0.3 -4.1,-1 -3.8,-1.6 0.8,-1.3 8,-0.4 9.8,1.1 1.4,1.2 3.7,12.9 5.6,28.1 0.6,4.7 2,15.1 3.1,23.2 1.1,8.1 1.9,15.7 1.7,17 -0.2,1.3 -0.8,-0.4 -1.2,-3.7 z"
       id="path167" />
  </g>
  <g
     fill="#96acc9"
     id="g223"
     transform="translate(-8,-1.6299329)">
    <path
       fill="url(#lg2)"
       d="m 470,718.4 c -8.8,-1.3 -14.9,-3.2 -25.2,-8 -11.4,-5.3 -16.5,-7.5 -18,-7.9 -0.5,-0.2 -0.9,-0.3 -1,-0.4 -0.2,-0.2 -1.3,-0.4 -2.4,-0.6 -5.2,-1 -7.4,-2.5 -7.4,-4.9 0,-3 1.9,-3.7 7.8,-2.8 7.2,1.1 30.5,0.6 34.5,-0.7 1.9,-0.7 4.1,-1.9 4.8,-2.7 2.7,-3.3 -1.1,-3.8 -38.6,-5.4 -29.5,-1.3 -33.5,-1.7 -33.5,-3.9 0,-1 1.9,-2.6 4.7,-4 4.5,-2.2 4.7,-2.4 2.8,-3.7 -1.1,-0.8 -2.9,-1.6 -4,-1.8 -8.6,-1.6 -10,-2.2 -10.3,-4.2 -0.4,-3 3.2,-5 10.6,-5.7 3.4,-0.4 7,-1 7.9,-1.5 1.4,-0.9 1.4,-1.1 -0.4,-2 -1.1,-0.6 -5,-1.4 -8.7,-1.8 -3.7,-0.4 -6.8,-1 -7.1,-1.4 -0.2,-0.3 0.7,-1.8 2.1,-3.3 l 2.4,-2.6 -5,-0.7 c -4.4,-0.6 -5,-0.9 -5,-3 0,-1.3 -0.5,-2.4 -1.1,-2.4 -0.5,0 -0.8,-0.4 -0.5,-0.9 0.3,-0.4 -1.3,-1.6 -3.5,-2.6 -2.2,-1 -5.3,-3.2 -6.9,-4.8 -2.6,-2.6 -3.2,-2.8 -5.8,-1.9 -4.3,1.5 -15,-0.1 -21.8,-3.2 -6.6,-3.1 -6.4,-3 -6.4,-1.1 0,0.8 -0.7,1.5 -1.5,1.5 -1,0 -1.5,1 -1.5,2.6 0,2.1 -0.4,2.5 -1.7,2.1 -1,-0.4 -3.8,-1.2 -6.2,-1.9 -5.5,-1.6 -10.3,-6 -13.7,-12.4 -1.4,-2.7 -3.9,-6.3 -5.5,-7.9 -3.6,-3.9 -3.6,-4.6 0.1,-7.3 2.3,-1.8 3,-3 2.9,-5.5 -0.1,-1.8 -0.3,-2.4 -0.6,-1.5 -0.4,1.4 -1,1.2 -3.6,-1.5 -2.8,-2.8 -3.1,-3.6 -2.4,-6 0.5,-1.5 0.7,-3.4 0.4,-4.1 -0.4,-1 0.4,-1.7 2.4,-2.1 2.1,-0.5 2.9,-1.1 2.5,-2.1 -0.4,-1 -0.2,-1.3 0.7,-0.8 0.7,0.5 0.6,0.1 -0.2,-1 -1.1,-1.3 -1.2,-1.9 -0.3,-2.5 1.6,-0.9 7.2,-0.2 7.2,1 0,0.5 0.7,0.6 1.5,0.3 0.8,-0.4 1.5,-0.2 1.5,0.3 0,0.5 1.5,0.7 3.4,0.5 2.9,-0.3 3.6,-0.9 4.1,-3.3 l 0.7,-2.9 42.1,0.1 c 23.2,0 44,0.3 46.2,0.7 3.5,0.7 4,1 3.6,3.2 -0.1,1.4 -0.8,2.9 -1.5,3.3 -1.4,1 9.2,0.6 11.9,-0.4 1.1,-0.4 7,-2.2 13.1,-3.8 l 11.1,-3.1 h 82.8 c 45.6,0 82.6,0.2 82.4,0.4 -0.2,0.3 -4.8,0.6 -10.2,0.7 -5.3,0.2 -10.2,0.6 -10.7,0.9 -1.5,1 -0.1,4 1.9,4 0.9,0 4.6,2.3 8.2,5.1 3.5,2.9 6.9,5.6 7.6,6.1 0.7,0.6 2.8,1.4 4.8,1.8 3.1,0.7 3.8,0.5 6,-2.2 1.4,-1.6 2.5,-2.6 2.5,-2.2 0,1.4 -7.6,10 -21.5,24.4 -16.1,16.7 -19.4,20.4 -25.2,28 -2.3,3 -5.3,6.8 -6.7,8.4 -3.1,3.5 -3.1,3.6 -0.7,3.6 1,0 4.4,-1.9 7.6,-4.2 3.1,-2.4 6.7,-4.3 7.9,-4.4 3,-0.1 15.4,-6.3 16.9,-8.5 0.9,-1.2 1.8,-1.5 2.7,-0.9 1.2,0.7 1.3,1.5 0.3,4 -1.2,3.1 -0.6,3.9 1.6,1.8 1,-1.1 1.1,-0.9 0.5,0.6 -0.6,1.5 -0.4,1.7 1.4,1.1 2.7,-0.8 2.8,0.6 0.2,3 -5.1,4.6 0.6,2.8 8.2,-2.7 2.7,-1.9 13.5,-14.1 17.1,-19.2 1.8,-2.6 1.8,-2.6 3.9,-0.6 1.5,1.4 2.6,1.7 3.8,1 1,-0.5 2,-0.7 2.3,-0.3 0.4,0.3 1.5,0 2.4,-0.8 1,-0.7 0.4,0.2 -1.3,2.1 -1.6,1.9 -5.6,6.7 -8.7,10.7 -4.1,5.1 -7.5,8.3 -12,10.8 -3.6,2.1 -9.9,7.5 -14.9,12.6 -4.9,5.1 -10.3,9.6 -12.4,10.5 -2.1,0.9 -10,5.8 -17.5,10.9 -15.6,10.6 -18.7,11.6 -27.2,8.9 -6.9,-2.1 -9.6,-1 -15.1,6.4 -4.6,6.2 -11,9.6 -29.8,16.1 -17.5,6 -30.3,8 -40.8,6.5 z M 406.8,605.8 c 0.7,-0.7 1.2,-0.9 1.2,-0.4 0,2 9.8,-6.8 12.3,-11.1 0.8,-1.2 0.5,-1.3 -1.3,-0.3 -1.2,0.6 -6.1,1.4 -10.8,1.7 -8.6,0.5 -12.7,1.8 -15.1,4.7 -1.9,2.2 -0.4,5.4 2.7,5.9 5.6,0.8 9.8,0.7 11,-0.5 z"
       id="path171"
       style="fill:url(#linearGradient1086)" />
    <path
       d="m 564,700.1 c 0,-0.8 13.1,-13.1 16.8,-15.7 1.1,-0.7 2.2,-1 2.6,-0.7 0.3,0.3 0.6,0.1 0.6,-0.5 0,-1.4 6.3,-5.2 8.6,-5.2 1.7,0.1 1.8,0.2 0.3,1.3 -0.9,0.7 -1.8,2.1 -2,3.2 -0.4,2.1 -11.2,10.7 -19.4,15.6 -5.1,2.9 -7.5,3.6 -7.5,2 z"
       id="path173" />
    <path
       d="m 8,566.3 c 0,-2.1 0.3,-4.8 0.6,-6 l 0.6,-2.1 h 586.1 c 322.4,0 588.1,0.3 590.5,0.5 5,0.6 6.7,2.9 5.7,7.9 l -0.6,3.4 H 599.5 8 Z"
       id="path175" />
    <path
       d="m 439.6,551.6 c 0.3,-0.6 2.6,-2.7 5.1,-4.6 2.6,-1.9 5.1,-4 5.7,-4.5 0.6,-0.6 2.7,-2.2 4.6,-3.5 1.9,-1.3 3.7,-2.7 4,-3 0.3,-0.3 5.9,-4.3 12.5,-8.9 6.6,-4.5 14.9,-10.7 18.5,-13.7 3.6,-2.9 6.9,-5.4 7.3,-5.4 0.4,0 3.5,-1.8 6.9,-4 3.3,-2.3 7.3,-4.7 8.8,-5.5 2.5,-1.3 2.7,-1.2 4.3,1.5 2,3.3 2.2,8.9 0.4,14.6 -1.4,4.8 -5.1,8.9 -22.7,25.3 -5.3,4.9 -10.8,9.3 -12.3,9.6 -2.9,0.8 -3.5,2 -1.4,2.9 0.6,0.4 0.1,0.4 -1.3,0.1 -1.4,-0.2 -3.7,-0.5 -5.2,-0.5 -3.4,0 -3.8,-2.8 -0.8,-5.5 1.1,-1 2,-2.5 2,-3.4 0,-0.8 2.1,-3.4 4.8,-5.8 l 4.7,-4.3 -5.9,3.5 c -3.2,1.9 -7.5,4 -9.5,4.6 -2,0.7 -7.9,3.3 -13.1,5.9 -9.2,4.7 -18.4,7.1 -17.4,4.6 z"
       id="path177" />
    <path
       fill="url(#lg0)"
       d="m 498.2,552.3 c 0.2,-0.5 1,-2.1 1.8,-3.7 1.1,-2.2 1.2,-3 0.3,-3.3 -2.8,-1 4.9,-6 11.8,-7.8 6.1,-1.5 9.5,-1.7 23.9,-1.2 9.3,0.3 18.4,0.3 20.4,0 4.9,-0.8 5.5,-3.6 2.7,-12.3 -2.5,-7.8 -2.6,-8.6 -0.7,-7.1 1.5,1.3 4.1,9.5 3.9,12.6 -0.1,1.1 0.1,1.4 0.3,0.8 0.8,-1.8 6.7,3.1 10.1,8.2 1.5,2.2 4.5,5.7 6.7,7.7 l 4,3.8 -2.9,0.1 c -1.7,0 -2.4,0.3 -1.7,0.6 4.7,1.9 -2.8,2.3 -39.9,2.3 -22.6,0 -40.9,-0.3 -40.7,-0.7 z"
       id="path179"
       style="fill:url(#linearGradient1088)" />
    <path
       d="M 657.3,533.3 C 644.4,533 643,532.8 643,531.2 c 0,-1 0.7,-2.7 1.5,-3.8 2.1,-2.8 1.8,-3.9 -1.2,-5 l -2.6,-0.9 0.2,-18.8 c 0.2,-13.4 -0.1,-19.2 -0.9,-20.3 -1.6,-1.8 -5.3,-1.8 -9,0.1 -2.3,1.2 -3,2.4 -3.6,6.1 -0.7,4.8 0,31.5 1,34.9 0.3,1.1 0.8,3 1.2,4.3 0.8,2.6 0.5,2.7 -4,0.5 -3.4,-1.6 -3.7,-1.6 -5.6,0.2 -1.1,1 -1.8,2.5 -1.6,3.2 0.4,1 -0.7,1.3 -4.9,1.2 l -5.4,-0.2 2,-3.9 c 1.1,-2.1 1.6,-4.4 1.2,-5 -1.3,-2.3 -1.1,-15.4 0.8,-46.8 2.5,-40.8 8.5,-150.1 9.9,-179 1.5,-31.8 1.3,-30.7 6.1,-32.1 2.7,-0.9 5.9,-0.9 10.6,-0.3 6.5,0.9 6.6,1 7.9,4.6 0.7,2 1.5,7.9 1.9,13 0.7,10.9 1.1,16.4 2.5,35.3 0.5,7.7 1.2,17.8 1.5,22.5 0.3,4.7 0.7,10.8 1,13.5 0.3,2.8 0.7,8.8 1,13.5 0.9,15.6 7.5,106.3 8.9,122 0.8,8.5 1.2,18.4 1,22 -1,13.2 -0.2,15 7.7,18 5.1,1.8 6.4,4.1 2.2,3.8 -1.5,-0.1 -9.2,-0.4 -17,-0.5 z M 637.4,461 c 1.4,-1.4 1.2,-13.2 -0.7,-46 -0.9,-14.6 -1.8,-29.8 -1.9,-33.7 -0.1,-4 -0.5,-7.3 -0.9,-7.3 -0.9,0 -1.7,11.7 -3.4,47.5 -0.4,7.2 -1,18.5 -1.3,25.3 -0.4,6.7 -0.3,12.2 0.2,12.2 0.4,0 0.6,1 0.3,2.1 -0.5,2 -0.3,2.1 3,1.6 2,-0.4 4.1,-1.1 4.7,-1.7 z"
       id="path181" />
    <path
       d="m 822.7,532.7 c 0.3,-0.7 1.3,-2.2 2,-3.4 1.2,-1.8 1.5,-21.5 1.7,-118.5 0.2,-113.7 0.4,-119 3.2,-128.3 0.6,-1.7 0.3,-1.6 -1.7,0.6 -4.6,4.8 -11.5,22.5 -13.5,34.4 -1.1,7 -3.4,26.2 -3.7,31.3 0,0.9 -0.4,0.9 -1.1,0.2 -0.5,-0.5 -1.8,-1 -2.8,-1 -1.8,0 -1.9,-1.8 -1.6,-40.4 0.2,-22.2 0.7,-40.8 1.1,-41.3 1,-1 59.4,-1.1 61,-0.1 0.9,0.5 1.3,12.2 1.5,42.5 0.1,23 -0.2,41.2 -0.6,40.6 -0.6,-0.9 -1.7,-1 -3.9,-0.4 l -3,0.9 -0.7,-10.2 c -0.4,-5.5 -1.1,-12.8 -1.6,-16.1 -0.5,-3.3 -1.2,-7.8 -1.6,-10 -1.5,-10.2 -8.6,-30.1 -10.4,-29 -0.3,0.2 -0.3,3.7 0.1,7.7 0.4,4 0.7,56.9 0.8,117.4 0.1,91.7 0.3,110.7 1.5,113.5 1.3,3.1 1.2,3.4 -1.1,5.2 -1.5,1.2 -2.3,2.7 -2,3.8 0.4,1.6 -0.5,1.8 -11.9,1.8 -9.4,0 -12.3,-0.3 -11.7,-1.2 z"
       id="path183" />
    <path
       d="m 1011.5,531.6 c -7.8,-3.6 -11.7,-8.9 -15.6,-20.9 -3,-9 -3.4,-14.4 -3.4,-43.4 0,-25.9 0,-26.2 2.3,-28.6 2.2,-2.3 5.9,-4.2 13,-6.5 2.8,-0.9 3.6,-0.8 5.2,0.8 1.8,1.8 1.9,3.4 1.3,29.2 -0.6,31 0.4,43.7 3.8,49.8 6.8,12.1 11,0.3 11.3,-31.8 0.1,-19.7 -0.8,-34.3 -3.1,-46.7 -1.4,-7.8 -2.8,-11.4 -11.4,-28 -10.7,-21 -18,-38.3 -20.4,-49 -2.2,-9.3 -3.3,-55.3 -1.6,-65.1 1.9,-10.9 6.9,-18.7 14.5,-22.7 10.2,-5.3 26.6,-0.7 31.8,9.1 2.7,5 3.9,8.7 5.4,16.7 0.7,3.6 1.4,17 1.7,31.9 l 0.2,10.8 -4.9,4.5 c -4.1,3.7 -5.4,4.3 -7.5,3.8 -1.4,-0.3 -4,-0.9 -5.7,-1.2 l -3.1,-0.5 -0.2,-21.1 c -0.3,-33.9 -0.8,-39.5 -3.9,-42.9 -2.3,-2.7 -3.6,-2.2 -5.7,2 -1.7,3.2 -2,6.4 -2.3,22.2 -0.2,10.2 0.1,24.8 0.6,32.5 l 0.9,14 10.4,21.1 c 12.1,24.4 11.9,24 16.9,36.4 3.8,9.7 5.4,14.7 6.5,20.9 0.3,1.9 0.8,3.7 1,4.1 2.6,4.2 2.6,65.8 0,70 -0.3,0.4 -0.7,2.5 -1.1,4.6 -0.7,4.6 -4.8,13.5 -8.4,18.3 -5.5,7.6 -18.9,10.2 -28.5,5.7 z"
       id="path185" />
    <path
       d="m 35.8,532.4 c -0.9,-0.8 0.1,-3.2 2.6,-6.7 2.1,-2.9 2.1,-2.9 0.1,-4.3 -2,-1.5 -2,-2.8 -2.2,-122.5 -0.2,-102.3 -0.1,-121.4 1.1,-123.1 1.2,-1.7 1.2,-2.4 -0.6,-5.4 -1.1,-1.9 -1.7,-3.8 -1.3,-4.2 1.2,-1.2 59.3,-0.8 60.5,0.4 2.4,2.4 3,10 3,42.5 v 33.7 l -2.6,0.6 c -1.5,0.4 -2.9,0.4 -3.2,0.1 -0.3,-0.3 -0.9,-3.8 -1.4,-7.8 -2,-18.8 -6.5,-35.7 -11.9,-44.2 -3.2,-5 -9.8,-10.1 -15.6,-12.2 -2.1,-0.7 -3.8,-1.3 -3.8,-1.3 0,0 0,24.2 0,53.8 0,29.5 0.1,52.2 0.3,50.4 0.2,-2.1 1.2,-3.8 2.8,-4.9 3,-1.9 7.3,-9 8.6,-14.1 0.5,-2 1.2,-7.3 1.6,-11.7 l 0.7,-8 3.2,-0.2 3.1,-0.1 -0.1,45.4 v 45.3 l -2.1,-0.4 c -1.2,-0.2 -2.7,-0.4 -3.3,-0.4 C 74.4,433 74,431 74,426.8 74,418.5 71.6,407.2 68.8,402.3 66.2,397.8 59,389.1 59,390.6 c 0,0.5 0.5,2.7 1,4.9 0.5,2.3 1,30.4 1,65 0.1,55.6 0.2,61.1 1.7,62.8 1.4,1.5 1.5,2 0.4,2.7 -0.8,0.4 -1.9,0.6 -2.6,0.4 -1.5,-0.6 -3.6,1.8 -3.8,4.4 -0.1,1.8 -0.9,2 -10.2,2.1 -5.5,0.1 -10.4,-0.1 -10.7,-0.5 z"
       id="path187" />
    <path
       d="m 132,532.3 c 0,-0.4 0.9,-2.3 2,-4.1 2.4,-3.9 2.4,-4.6 0.5,-6.5 -1.3,-1.3 -1.5,-16.8 -1.5,-122.8 0,-118.5 0,-121.3 1.9,-123.2 1.9,-1.9 1.9,-2 -0.6,-6.6 l -2.4,-4.6 7.3,-0.3 c 9.1,-0.4 11.6,0.3 12.8,3.2 0.9,2.4 6.1,4.2 8.3,2.9 1.1,-0.7 0.4,0.8 -2.5,4.8 -1.9,2.5 -1.9,6.7 -1.8,122.7 0,69.6 0.4,121.2 1,122.6 0.5,1.3 1.4,2.7 1.9,3.1 1.9,1.1 1.2,2.2 -2.1,3.1 -2.2,0.7 -3.4,1.7 -3.8,3.4 -0.6,2.4 -0.9,2.5 -10.8,2.8 -5.6,0.1 -10.2,-0.1 -10.2,-0.5 z"
       id="path189" />
    <path
       d="m 203.8,532.3 c 0.6,-0.2 1.2,-1.3 1.2,-2.3 0,-0.9 0.7,-2.3 1.5,-3 1.9,-1.6 1.9,-4.4 0.1,-5.9 -1.2,-1 -1.4,-19.4 -1.5,-122.5 -0.1,-119 0,-121.4 1.9,-123.1 1.9,-1.7 1.9,-1.8 -0.5,-6 -1.4,-2.3 -2.5,-4.5 -2.5,-4.8 0,-0.8 21.6,-0.1 23,0.8 3.1,1.9 5.6,17.3 11.5,70 0.2,2.2 1.1,9.4 1.9,16 0.8,6.6 1.7,14.3 2,17 0.5,4.7 2.6,22.8 4.2,35.5 0.4,3 0.8,6.5 0.8,7.7 0.1,1.1 0.4,1.9 0.8,1.7 0.4,-0.2 0.9,0.6 1.1,1.8 0.3,1.3 0.4,-29 0.2,-67.3 l -0.4,-69.6 2.5,-2.6 2.4,-2.6 -2.1,-3.6 c -1.2,-2 -1.9,-3.9 -1.6,-4.2 1.1,-1 15.1,-1.2 17.5,-0.2 2,0.8 2.2,1.4 1.8,4.5 -0.4,1.9 -1.2,4.5 -1.8,5.7 -0.7,1.2 -1.4,2.9 -1.7,3.7 -0.3,0.8 -0.6,58 -0.8,126.9 -0.2,69 -0.5,125.6 -0.6,125.7 -0.9,0.8 -10.1,1.3 -14,0.8 -6.4,-0.9 -6.3,-0.5 -9.2,-23.4 -0.3,-2.5 -0.8,-6.1 -1,-8 -0.5,-4.5 -3.5,-26.7 -4,-30 -1,-6.9 -1.5,-10.9 -2,-15.5 -0.9,-7.4 -2.5,-19.9 -2.9,-22.1 -0.2,-1 -0.7,-4.8 -1.1,-8.4 -0.4,-3.6 -1.3,-11.4 -2.1,-17.5 -2.1,-15.9 -5.4,-41.9 -5.4,-42.7 0,-0.5 -0.4,-0.8 -1,-0.8 -0.7,0 -1,26.8 -1,78.5 0,70.6 0.2,78.8 1.6,81 1.6,2.4 1.6,2.5 -0.9,2.5 -3.2,0 -6,2.7 -5.4,5.1 0.5,1.7 -0.2,1.9 -6.6,1.8 -4,0 -6.6,-0.3 -5.9,-0.6 z"
       id="path191" />
    <path
       d="m 301.2,530.5 c 0.6,-1.1 1.8,-2.8 2.6,-3.8 1.2,-1.3 1.3,-2 0.4,-2.9 -1.7,-1.7 -1.5,-16.9 0.8,-53 1.1,-17.2 3.5,-61.2 5.5,-97.8 1.9,-36.6 3.9,-70.5 4.4,-75.5 0.5,-4.9 1,-13.2 1,-18.3 0,-5.1 0.5,-10.1 1.1,-11.2 1.4,-2.5 6,-3.3 14,-2.3 9,1.1 8.6,0 10.5,30.3 0.3,4.7 0.7,10.5 1,13 0.3,2.5 0.7,9.2 1,15 0.4,5.8 0.8,12.8 1,15.5 0.2,2.8 0.7,8.6 1,13 0.3,4.4 0.7,10.9 1,14.5 0.6,8.6 2.4,34.8 3,43 0.4,6.2 3.1,43.1 3.9,55 1.2,15.6 3.8,47.4 4.5,54 0.5,4.1 0.8,7.6 0.7,7.7 -0.1,0.2 -1.1,0.4 -2.2,0.6 -3.2,0.5 -4.5,1.8 -3.9,3.8 0.6,1.8 0,1.9 -8.4,1.9 -10.1,0 -10.4,-0.3 -7.1,-5.8 1.2,-1.9 1.6,-3.1 1,-2.7 -0.5,0.3 -1,0.1 -1,-0.5 0,-0.7 -0.7,-0.9 -1.6,-0.6 -0.8,0.3 -1.3,0.2 -1,-0.3 0.3,-0.5 0,-1.1 -0.7,-1.4 -1.1,-0.4 -1.2,-2.1 -0.5,-8.3 1.1,-9.7 0.5,-29.1 -0.9,-30.5 -0.6,-0.6 -2.7,-1.2 -4.6,-1.4 -2.7,-0.3 -4,0.2 -5.9,2.2 -2.2,2.4 -2.3,3.1 -2.3,18.1 0,14 0.9,21.8 3.1,27.5 0.6,1.8 0.4,1.7 -3.4,-0.2 -5.4,-2.7 -5.9,-2.7 -6.7,1 -0.7,3 -0.7,3 -6.5,2.7 -5.5,-0.2 -5.8,-0.4 -4.8,-2.3 z m 28.2,-70.7 c 1.9,-2.4 1.9,-5.9 0,-33.3 -0.6,-9.1 -2.6,-51.3 -2.5,-54.2 0,-1.2 -0.3,-2.4 -0.7,-2.7 -0.5,-0.3 -0.8,0.3 -0.8,1.2 0.1,0.9 -0.2,7.8 -0.7,15.2 -0.4,7.4 -1,18 -1.2,23.5 -0.3,5.5 -0.8,13.8 -1,18.5 -0.3,4.7 -0.7,14.7 -1,22.2 l -0.5,13.7 3.3,-1 c 1.7,-0.5 4,-1.9 5.1,-3.1 z"
       id="path193" />
    <path
       d="m 394,531.9 c 0,-0.6 1,-2.4 2.1,-4.1 1.8,-2.5 2,-3.4 1,-5.5 -0.6,-1.3 -0.8,-2.9 -0.5,-3.5 0.9,-1.4 0.9,-232.2 0,-237.4 -0.6,-3.1 -0.3,-4.4 0.8,-5.4 2.1,-1.7 2,-2.5 -0.9,-6.8 -1.4,-2 -2.5,-4 -2.5,-4.4 0,-0.5 5.1,-0.8 11.4,-0.8 h 11.4 l 0.5,2.9 c 0.4,2.1 1.5,3.2 3.7,3.9 3.3,1.2 3.7,2.3 1.5,4.5 -0.7,0.8 -1.7,2.5 -2,3.8 -0.3,1.3 -0.7,54.6 -0.9,118.4 -0.2,63.8 -0.6,117.1 -0.9,118.5 -0.2,1.4 -0.5,3 -0.6,3.7 0,0.6 -0.9,1.4 -1.8,1.6 -1.3,0.3 -1.1,0.5 0.6,0.6 3.5,0.2 9.5,-6.9 14.1,-16.4 5,-10.5 9.2,-27.5 12.6,-51.7 l 2.8,-19.6 2.8,-0.4 2.8,-0.5 -0.2,48.1 -0.3,48.1 -3.5,1.7 c -3,1.5 -7,1.7 -28.7,1.8 -17.7,0 -25.3,-0.3 -25.3,-1.1 z"
       id="path195" />
    <path
       d="m 525.7,528 c 2.6,-4.6 2.6,-5 1,-6.7 -1.5,-1.8 -1.6,-10.8 -1.7,-123.1 0,-89.4 0.3,-121.8 1.2,-123.1 0.9,-1.5 0.7,-2.5 -1.1,-5.4 l -2.1,-3.5 25.4,-0.7 c 14,-0.4 28.1,-0.4 31.3,0.1 l 5.8,0.9 0.7,4.5 c 0.8,5.7 1,73.5 0.2,72.7 -0.4,-0.3 -1.5,-0.2 -2.5,0.3 -2.3,1.3 -3.9,-1.4 -3.9,-6.6 0,-6.2 -3.8,-26.5 -6.4,-34.2 -2.5,-7.3 -6.6,-14.1 -10.7,-17.8 -2.8,-2.4 -9.5,-6 -12.4,-6.7 -2,-0.4 -2,0.1 -2,49.9 0,56 -0.5,52.9 6.8,44.4 4.1,-4.8 5.3,-8.5 6.8,-21.1 l 1.2,-9.5 2.9,0.4 2.8,0.4 -0.1,45.3 -0.2,45.3 -2.7,-0.2 c -2.7,-0.1 -2.8,-0.2 -3.4,-8.1 -1.3,-15.4 -4,-22.7 -12,-31.9 l -3.4,-4 0.9,4.5 c 0.4,2.4 0.8,31.3 0.9,64.2 0,50.8 0.2,60.3 1.5,63.4 1.9,4.5 1.9,4.3 -1,4.3 -2.6,0 -6.2,4.1 -5.1,5.9 0.4,0.6 -3.6,0.9 -10.4,0.9 h -11 z"
       id="path197" />
    <path
       d="m 700.5,532.2 c 2.1,-1.5 4.8,-8.1 4,-9.9 -1.1,-2.3 -1,2.5 -1.3,-131.2 -0.2,-103.6 -0.1,-114.6 1.3,-116.2 1.5,-1.6 1.4,-2 -0.9,-5.7 l -2.5,-3.9 6.1,-0.7 c 7.7,-0.8 16.8,0.2 19,2.1 0.9,0.9 2.2,3.8 2.8,6.7 0.8,4.2 6.1,46 7.5,59.6 0.2,1.9 0.6,5.1 0.9,7 0.4,1.9 0.8,5.5 1.1,8 0.6,7 5.3,45.3 7.1,58 1.7,11.8 3.9,18.9 3,9.5 -0.3,-2.7 -0.6,-35.3 -0.6,-72.4 -0.1,-63.7 0,-67.4 1.7,-68.8 1,-0.8 1.1,-1.1 0.3,-0.7 -1.3,0.7 -1.3,0.5 -0.2,-0.9 1.2,-1.4 1.1,-2 -0.2,-3.9 -2.4,-3.4 -2,-3.8 2.9,-3.8 3.4,0 4.5,0.4 4.5,1.5 0,0.8 0.5,2.3 1.1,3.3 1,1.7 1.6,1.7 4.8,0.6 3.2,-1.1 3.7,-1 4.3,0.4 0.5,1.2 0.7,1.3 0.7,0.3 0.1,-0.8 0.4,-1.2 0.7,-0.9 0.3,0.3 -0.5,2.6 -1.8,5 l -2.3,4.3 -0.3,125.5 c -0.1,73.8 -0.6,125.8 -1.2,126.4 -0.5,0.5 -3.8,1.1 -7.4,1.3 -5.5,0.4 -7,0.1 -9.5,-1.6 -3.7,-2.7 -4.1,-3.8 -5.6,-17.1 -0.3,-3 -1.9,-14.9 -3.5,-26.5 -2.8,-19.7 -8.5,-63.1 -9.6,-72 -0.5,-4.1 -2.3,-17.4 -2.8,-21 -0.2,-1.1 -1.2,-9.1 -2.2,-17.7 -1,-8.7 -2.2,-15.8 -2.6,-15.8 -0.4,0 -0.8,34.1 -0.9,75.8 -0.3,91.4 -0.4,86.2 1.3,86.2 2,0 0.5,1.7 -2.6,2.8 -3.8,1.4 -5.3,4.7 -2.8,6.2 1.2,0.6 -0.8,0.9 -6.8,1 -4.7,0 -8,-0.4 -7.5,-0.8 z"
       id="path199" />
    <path
       d="m 898.7,531.3 c 0.4,-1 1.3,-2.8 2.1,-4.1 1.2,-1.9 1.3,-2.7 0.2,-4.7 -1,-1.8 -1.1,-6 -0.7,-16.7 0.6,-14.7 5.2,-96.3 6.2,-109.8 0.3,-4.1 1.7,-30.4 3,-58.5 2.9,-60.3 3.4,-68.8 4.6,-70.6 1.4,-2.3 17.2,-1.8 19.8,0.5 1.1,1 2,2.1 1.9,2.5 -0.1,0.3 0.1,2.9 0.5,5.6 0.3,2.8 0.9,10.4 1.2,17 0.3,6.6 0.8,12.7 1,13.5 0.2,0.8 0.6,7.6 1,14.9 0.3,7.4 0.8,13.7 0.9,14 0.2,0.4 0.7,7.1 1,15.1 0.4,8 0.9,15.4 1.1,16.5 0.2,1.1 0.7,7.6 1,14.5 0.4,6.9 0.8,14.5 1,17 0.8,10.1 1.5,20.9 2,28.5 0.3,4.4 1.4,19.5 2.5,33.5 1.1,14 2.2,29.1 2.5,33.5 1.3,18.2 2.4,30.1 3,31.8 0.6,1.3 0.1,1.8 -2.4,2.3 -2.2,0.5 -3.3,1.4 -3.7,3 -0.6,2.3 -1,2.4 -8.5,2.4 -7.7,0 -7.9,-0.1 -7.9,-2.4 0,-1.3 0.6,-2.9 1.4,-3.6 0.8,-0.6 1.2,-1.8 0.9,-2.6 -0.3,-0.8 -0.8,-1.3 -1,-1 -0.3,0.3 -1.2,-0.2 -2.1,-1 -1.2,-1.3 -1.5,-4.9 -1.6,-19.8 -0.1,-20.9 -0.5,-22.2 -6.5,-21.1 -6.5,1.2 -6.6,1.6 -6.6,21.3 0,14 0.4,18.8 1.8,23.1 0.9,3 1.7,5.6 1.7,5.8 0,0.1 -1.6,-0.9 -3.6,-2.2 -4.8,-3.2 -6,-3.1 -7.3,0.5 -0.9,2.8 -1.3,3 -6,3 -4.4,0 -5,-0.2 -4.4,-1.7 z m 25.6,-69.4 c 2.1,-0.9 2.6,-2.1 3.1,-6.8 0.4,-3.1 0.2,-10.1 -0.3,-15.6 -1,-9.4 -3.3,-50.2 -3.5,-60.7 -0.1,-2.7 -0.4,-4.8 -0.7,-4.8 -0.9,0 -1.7,9.5 -2.4,26.5 -0.3,7.2 -0.8,16.6 -1,21 -2.3,41 -2,43.5 4.8,40.4 z"
       id="path201" />
    <path
       d="m 1096,530.8 c 0,-0.7 0.9,-2.8 2.1,-4.7 1.2,-2 1.7,-4 1.3,-5 -0.4,-0.9 -0.8,-24.1 -1,-51.6 -0.1,-27.8 -0.7,-55.6 -1.3,-62.5 -1.9,-20.6 -2,-21.7 -3.6,-44.5 -0.8,-12.1 -1.7,-23.1 -2,-24.5 -0.2,-1.4 -0.7,-6.5 -1,-11.5 -0.3,-4.9 -0.8,-11.2 -1,-14 -0.2,-2.7 -0.7,-9 -1,-14 -0.4,-4.9 -1.1,-10.9 -1.6,-13.3 -0.6,-2.7 -0.6,-4.9 0,-6.1 0.8,-1.3 0.4,-2.7 -1.4,-5.3 l -2.4,-3.5 7,-0.6 c 8.2,-0.7 9.5,-0.3 10.3,2.6 0.3,1.3 1.9,2.7 3.7,3.4 2.5,1 3,1.6 2.4,3 -2.5,6 -2.3,19.9 0.6,41.5 0.5,4.3 1.2,9.1 1.4,10.8 0.2,1.6 0.8,5.3 1.4,8.2 0.6,2.9 1.3,7.1 1.6,9.3 0.8,5.3 1.2,7.4 2,11 0.6,2.7 1,5.3 1.4,9.4 0.4,4.8 1.5,-3.5 4.7,-34 1.9,-18.9 3.6,-38.6 3.7,-43.8 0.2,-8.4 0.5,-9.5 2.6,-11.2 l 2.3,-1.9 -2.3,-3.6 c -2.6,-4.3 -1.9,-5.1 4.8,-4.9 3.7,0.2 4.8,0.6 5.4,2.3 0.4,1.2 2.2,2.8 3.9,3.7 3.1,1.6 3.1,1.7 1.4,3.6 -1,1.1 -2,3.2 -2.2,4.7 -0.3,2.6 -6,39.6 -6.7,43.7 -0.2,1.1 -0.6,4 -0.9,6.5 -0.4,2.5 -1.6,10.1 -2.7,17 -1.1,6.9 -2.2,14.1 -2.5,16 -0.2,1.9 -0.6,4.5 -0.9,5.7 -0.3,1.2 -0.7,4.1 -1,6.5 -0.3,2.4 -0.7,5.4 -1,6.8 -1.2,5.8 -1.5,7.8 -2.1,12.5 -0.3,2.7 -1,7.2 -1.5,10 -0.5,2.7 -1.2,7.3 -1.5,10 -0.3,2.8 -0.8,5.3 -1,5.7 -0.2,0.4 -0.4,21.7 -0.5,47.4 0,45.8 0.1,46.9 2.1,49.6 2,2.7 2,2.9 0.3,3.4 -4.7,1.5 -7.2,2.7 -7.1,3.3 0.5,3.8 -0.1,4.1 -8.2,4.1 -5.7,0 -8,-0.4 -8,-1.2 z"
       id="path203" />
    <path
       d="m 463.9,523.5 c -0.1,-0.3 -0.2,-0.8 -0.3,-1.2 -0.3,-1.8 -1.9,-3.5 -4.1,-4.3 -1.6,-0.6 -2.4,-2 -2.8,-4.7 -1.1,-6.5 -0.8,-52.3 0.3,-52.3 0.6,0 1.6,-2.1 2.3,-4.7 0.8,-3.3 2.5,-6 5.7,-9 2.4,-2.4 5,-4.3 5.6,-4.3 0.7,0 1.4,-0.4 1.6,-0.9 0.2,-0.6 3.4,-3 7.2,-5.5 4.9,-3.2 7.6,-4.4 9.2,-4 1.2,0.3 3.6,-0.2 5.4,-1.1 2.7,-1.4 3.7,-1.5 5.5,-0.5 1.3,0.7 2.8,1 3.3,0.6 2.6,-1.6 7.2,3.7 7.2,8.3 0,4.9 -6,15.2 -13.7,23.3 -13.9,14.7 -19.8,21.4 -21.7,24.7 -1.8,3.2 -1.8,3.3 0.1,2.3 1.1,-0.6 2.5,-1.8 3.2,-2.6 0.8,-0.9 1.8,-1.3 2.4,-0.9 0.5,0.3 0.7,0.2 0.4,-0.4 -0.4,-0.6 1.3,-2.9 3.6,-5.1 2.3,-2.2 5.8,-6 7.7,-8.3 1.9,-2.3 5.4,-6.2 7.6,-8.6 l 4.1,-4.4 -0.4,3.8 c -0.2,2 -0.9,4.3 -1.5,5 -0.7,0.9 -0.7,1.3 0,1.3 0.6,0 2.6,-2 4.5,-4.5 1.9,-2.4 3.7,-4.2 4.1,-3.8 0.3,0.3 0.6,-0.1 0.6,-1 0,-2 4.1,-5 5.3,-3.8 1.9,1.9 -1.1,6.9 -8.7,15 -4.5,4.6 -7.4,8.1 -6.6,7.6 0.8,-0.5 2.7,-0.8 4.3,-0.7 1.5,0.1 3.6,-0.2 4.7,-0.8 1.6,-0.9 2,-0.8 2,0.5 0,0.8 0.9,2 2,2.7 1.1,0.7 2,2 2,3 0,2.4 -20.2,21.1 -29.5,27.3 -8.1,5.3 -22.4,13 -22.6,12 z"
       id="path205" />
    <path
       d="m 425.9,496.3 c -1.6,-1.8 -2.7,-26.3 -1.2,-26.3 0.5,0 1.4,-1.5 2.1,-3.2 1.5,-4.1 4,-5.8 7,-4.7 1.7,0.6 2.1,1.4 1.8,3.1 -0.3,1.3 -1.2,6.4 -2.1,11.3 -1.9,10.4 -4.5,20.4 -5.5,21 -0.4,0.3 -1.4,-0.3 -2.1,-1.2 z"
       id="path207" />
    <path
       d="m 277.3,431.3 c -1.2,-3.5 -2.3,-4.2 -4.8,-3.3 -1.5,0.6 -2.7,0.6 -3,-0.1 -0.4,-0.5 -0.6,-10.9 -0.5,-23.1 0,-20.2 0.3,-23 2.6,-32.2 3,-11.8 3.5,-12.9 8.1,-16.9 3.8,-3.4 8.5,-11.9 10.2,-18.7 1.5,-5.7 3,-8.9 5.5,-11.7 2.2,-2.6 7.1,-3.1 8,-0.8 0.3,0.8 1.2,1.5 2.1,1.5 1.2,0 1.5,1.3 1.5,6.3 -0.1,12 -1.9,32.3 -3.9,43.7 -1.1,6.3 -2.5,16.1 -3.1,21.7 -1.6,14.7 -3.2,19.4 -8.2,24 -2.4,2.1 -5.9,5.5 -8,7.6 -4.1,4.1 -5.6,4.6 -6.5,2 z"
       id="path209" />
    <path
       fill="url(#lg0)"
       d="m 435,430.5 c -0.6,-0.8 -2.7,-1.7 -4.6,-2.1 -2.8,-0.5 -3.4,-1.1 -3.4,-3.1 0,-2.8 3.2,-7.8 6.7,-10.6 1.3,-1 2.3,-2.3 2.3,-2.9 0,-2.7 27.8,-31.8 30.4,-31.8 0.6,0 -0.5,1.6 -2.4,3.4 -1.9,1.8 -4.1,4.3 -4.8,5.6 -1.5,2.5 -1.4,2.6 3.9,5.5 1.5,0.8 6.8,5.7 11.9,10.9 5.7,5.9 10.6,10 12.7,10.7 1.8,0.6 3.3,1.5 3.3,2 0,0.4 2.3,-0.5 5,-2.1 2.8,-1.7 5.4,-3 5.8,-3 1,0 -11.2,7.6 -16.6,10.4 -5.8,2.9 -17.9,6.3 -21,5.8 -2.8,-0.4 -4.6,-3.6 -3.8,-6.8 0.5,-1.7 0.2,-2.4 -0.8,-2.4 -0.8,0 -1.8,0.5 -2.2,1.1 -0.5,0.8 -1.2,0.5 -2.3,-0.8 -0.9,-1.2 -3.2,-2.4 -5.2,-2.7 -3.3,-0.6 -4,-0.3 -6.7,2.8 -1.6,1.9 -3.3,4.8 -3.7,6.5 -0.9,4 -2.8,5.6 -4.5,3.6 z"
       id="path211"
       style="fill:url(#linearGradient1090)" />
    <path
       fill="url(#lg0)"
       d="m 432.7,381.4 c -1.5,-1.3 -3.4,-2.1 -4.2,-1.8 -0.8,0.4 -1.5,0.2 -1.5,-0.3 0,-1.1 3,-5.6 4.4,-6.5 0.6,-0.4 0.8,-0.8 0.3,-0.8 -1.4,0 2,-5.4 6.2,-9.7 4,-4.2 6.5,-5.6 5.5,-3 -0.7,2 7.4,9 9.7,8.4 1,-0.3 1.9,-0.1 1.9,0.5 0,0.5 1.7,-0.1 3.8,-1.3 5.7,-3.5 3.7,-1.8 -8.7,7 -15,10.7 -14.1,10.4 -17.4,7.5 z"
       id="path213"
       style="fill:url(#linearGradient1092)" />
    <path
       d="m 371,373.3 c 0,-1.5 1.7,-4.9 4.2,-8.2 7.4,-9.7 8.7,-12 10.4,-17.8 1.4,-4.7 1.8,-5.4 2.4,-3.7 0.5,1.1 0.4,4.3 -0.1,7.2 -0.8,4.1 -2.5,7.2 -8.5,15.2 -4.2,5.5 -7.7,10 -8,10 -0.2,0 -0.4,-1.2 -0.4,-2.7 z"
       id="path215" />
    <path
       d="m 379,347.8 c 0,-1 -0.5,-1.7 -1.2,-1.5 -2.1,0.4 -1.1,-7.2 1.4,-10.9 2.4,-3.5 8.2,-7.3 9.4,-6.1 0.4,0.4 -1.4,2.9 -3.9,5.6 -2.6,2.8 -4.7,5.2 -4.7,5.4 0,0.2 1.1,0.2 2.5,-0.1 3.5,-0.6 3.3,1.9 -0.5,6 -2.2,2.5 -2.9,2.9 -3,1.6 z"
       id="path217" />
    <path
       d="m 272,338.4 c 2.4,-6.1 12.4,-24.6 17.9,-32.9 8.4,-12.8 15.9,-20.3 17.6,-17.5 0.8,1.3 -0.3,3.1 -8.9,15.9 -4,5.8 -10.7,16.6 -15,23.9 -6.5,11 -8.2,13.2 -10.2,13.2 -2.1,0 -2.3,-0.3 -1.4,-2.6 z"
       id="path219" />
    <path
       d="m 346,254.7 c 0,-1.8 1.5,-3.8 5.2,-7.1 2.8,-2.5 5.5,-4.3 6,-4 0.4,0.3 0.8,0.1 0.8,-0.3 0,-0.9 6.2,-4.9 6.9,-4.4 0.2,0.1 0.7,-0.1 1,-0.6 1,-1.4 8.1,-5.3 8.1,-4.5 0,0.5 -1.8,1.8 -3.9,3 -2.1,1.2 -4.2,2.9 -4.5,3.8 -0.3,0.9 -1.3,1.4 -2.1,1.1 -0.9,-0.4 -1.2,-0.1 -0.9,0.8 0.5,1.2 1.1,1.2 3.7,-0.2 4.5,-2.2 3.4,-1.4 -7.2,5.8 -5.1,3.5 -10.2,7 -11.2,7.8 -1.7,1.2 -1.9,1.1 -1.9,-1.2 z"
       id="path221" />
  </g>
  <g
     fill="#ececeb"
     id="g259"
     transform="translate(-8,-1.6299329)">
    <path
       fill="url(#lg2)"
       d="m 435.8,705.8 c -1.6,-0.5 -2.8,-1.3 -2.8,-1.8 0,-0.4 -0.6,-0.7 -1.2,-0.7 -0.7,0.1 -4.6,-0.9 -8.5,-2.1 -6.4,-2 -7.3,-2.6 -7.3,-4.6 0,-1.3 0.6,-2.6 1.3,-2.9 2.4,-0.9 10.7,0.5 11.9,2.1 1.1,1.3 1.1,1.4 -0.2,0.7 -0.8,-0.4 0.1,0.8 1.9,2.8 1.9,2.1 4,3.7 4.6,3.7 0.5,0 1.6,0.9 2.3,2 0.7,1.1 1.1,2 1,1.9 -0.2,0 -1.5,-0.5 -3,-1.1 z"
       id="path225"
       style="fill:url(#linearGradient1094)" />
    <path
       fill="url(#lg2)"
       d="m 401.5,683.3 c -11.5,-0.6 -13.7,-2.6 -6.5,-5.8 2.2,-1 4.7,-2.6 5.6,-3.6 1.5,-1.7 1.5,-1.8 -0.7,-2.4 -1.3,-0.3 -5.3,-0.9 -8.9,-1.3 -5.6,-0.6 -6.5,-1 -6.8,-2.8 -0.4,-3 3.2,-5 10.5,-5.7 6.2,-0.5 6.3,-0.5 5.7,1.9 -0.4,1.5 0.2,3.6 1.6,5.9 1.2,1.9 1.8,3.5 1.4,3.5 -0.4,0 0.3,1.1 1.5,2.4 2.3,2.5 10.2,6.3 15.6,7.7 3.1,0.7 -6.9,0.8 -19,0.2 z"
       id="path227"
       style="fill:url(#linearGradient1096)" />
    <path
       fill="url(#lg2)"
       d="m 373.7,635.6 -6.7,-4.3 -9.3,0.5 c -9,0.4 -9.4,0.4 -18.8,-3.7 -5.3,-2.2 -10.1,-4.1 -10.7,-4.1 -2.4,0 -2.1,2 0.5,3.2 2.1,1 2.9,2.2 3.1,4.6 0.4,3.7 0.3,3.7 -4.5,1.7 -1.9,-0.8 -4.3,-1.5 -5.2,-1.5 -2.6,0 -7.4,-5 -11,-11.4 -1.9,-3.2 -4.7,-7 -6.2,-8.4 -3.6,-3.2 -3.6,-4.3 0.1,-7 4,-3 3.9,-6.4 -0.2,-10.1 -2.5,-2.2 -3.3,-3.7 -3.3,-6.5 0,-3.7 1.2,-4.6 6.4,-4.6 h 2.4 l -2.3,-2.5 c -3.1,-3.4 -1.9,-4.2 3.8,-2.5 6.3,1.8 14.2,2.5 14.2,1.2 0,-0.6 -0.4,-1.3 -0.9,-1.6 -0.5,-0.3 -0.7,-1.5 -0.4,-2.6 0.5,-2 1.3,-2 43.7,-1.8 l 43.1,0.2 -37.5,0.6 c -20.6,0.3 -37.6,0.7 -37.6,0.8 -0.6,0.8 -1.1,4.3 -0.7,3.8 0.8,-0.8 4.3,4.5 3.7,5.6 -0.5,0.7 1.9,4.5 6.4,10.2 1.3,1.7 2.8,3.9 3.2,5 0.5,1.2 3.9,5.9 7.7,10.5 3.7,4.6 7.3,9.1 7.8,9.9 0.6,0.8 2.8,3.2 5.1,5.3 2.2,2.1 4.9,5.4 6,7.4 1,1.9 2.4,3.5 3,3.5 0.6,0 1.7,0.7 2.4,1.5 2.2,2.6 -0.3,1.6 -7.3,-2.9 z"
       id="path229"
       style="fill:url(#linearGradient1098)" />
    <path
       d="m 491.8,574.3 c 23.3,-0.2 61.1,-0.2 84,0 22.9,0.1 3.9,0.2 -42.3,0.2 -46.2,0 -65,-0.1 -41.7,-0.2 z"
       id="path231" />
    <path
       d="m 8,566.3 c 0,-2.1 0.3,-4.8 0.6,-6 l 0.6,-2.1 590,0.1 c 582.7,0.2 590,0.2 591.4,2.1 1.8,2.6 1.8,6.1 -0.2,8 -1.4,1.5 -56.6,1.6 -592,1.6 H 8 Z"
       id="path233" />
    <path
       d="m 825.8,533.2 c -3.3,-0.4 -3.3,-0.5 -1.2,-3.7 1.3,-2.1 1.5,-15.3 1.8,-118.7 0.2,-113.8 0.4,-119.1 3.2,-128.3 0.6,-1.7 0.4,-1.7 -1.8,0.5 -5.8,5.8 -12.5,25.4 -14.8,43 -0.6,4.7 -1.3,10.1 -1.5,12 -0.3,1.9 -0.6,5.4 -0.7,7.8 -0.1,2.8 -0.5,3.9 -1.2,3.2 -0.5,-0.5 -1.8,-1 -2.8,-1 -1.8,0 -1.9,-1.8 -1.6,-40.4 0.2,-22.2 0.7,-40.8 1.1,-41.3 0.8,-0.8 57.8,-1.2 60.5,-0.4 0.9,0.2 1.2,9.3 1.2,41.2 v 40.8 l -3.2,0.9 -3.3,0.8 -1.1,-12.6 c -0.6,-7 -1.4,-14.2 -1.7,-16.1 -0.4,-1.9 -0.9,-5.2 -1.3,-7.4 -1.5,-9.9 -8.6,-30.1 -10.3,-29.1 -0.3,0.2 -0.3,6.2 0,13.3 0.3,7 0.6,59.9 0.7,117.5 0.1,88.3 0.3,105.2 1.5,108 1.3,3.2 1.3,3.6 -0.5,4.7 -1,0.6 -2.3,2.2 -2.8,3.6 -0.9,2.3 -1.3,2.4 -9.2,2.2 -4.6,-0.1 -9.5,-0.3 -11,-0.5 z"
       id="path235" />
    <path
       d="m 1013.7,532.5 c -8.5,-3.2 -13.5,-9.1 -17.4,-20.8 -3.4,-9.9 -3.8,-14.4 -3.8,-44.4 0,-25.9 0,-26.2 2.3,-28.6 2.2,-2.3 5.9,-4.2 13,-6.5 2.8,-0.9 3.6,-0.8 5.1,0.7 1.7,1.7 1.8,3.9 1.3,31.7 -0.5,32.8 0.3,42.6 4.1,48.1 2.9,4.2 4.8,4.9 6.8,2.4 5.2,-6.4 5.9,-55.5 1.2,-81.6 -1.4,-7.9 -2.8,-11.4 -11.3,-28 -10.8,-20.9 -18.1,-38.3 -20.5,-49 -2.2,-9.3 -3.3,-55.3 -1.6,-65.1 1.9,-10.9 6.9,-18.7 14.5,-22.7 5.6,-2.9 15.4,-2.9 21.2,0.1 12.4,6.4 15.4,14.1 17.1,43.7 1.4,24.2 1.1,25.6 -6.6,30.9 -3.6,2.5 -4.5,2.7 -6.7,1.8 -1.4,-0.7 -3.5,-1.2 -4.8,-1.2 h -2.3 l -0.2,-21.2 c -0.3,-34 -0.8,-39.6 -3.9,-43 -2.4,-2.8 -3.9,-2.2 -6.2,2.6 -2,4.2 -2.1,5.5 -1.8,35.3 l 0.3,30.8 10.7,21.5 c 14.8,29.9 21,44.8 23.9,57.5 4.7,20.9 4.8,59.7 0.3,79.3 -3,12.7 -9.5,22.2 -17.8,25.6 -4.7,1.9 -11.7,2 -16.9,0.1 z"
       id="path237" />
    <path
       d="m 35.8,532.4 c -0.9,-0.8 0.1,-3.2 2.6,-6.7 2.1,-2.9 2.1,-2.9 0.1,-4.3 -2,-1.5 -2,-2.8 -2.2,-122.5 -0.2,-102.3 -0.1,-121.4 1.1,-123.1 1.2,-1.7 1.2,-2.4 -0.6,-5.4 -1.1,-1.9 -1.7,-3.8 -1.3,-4.2 1.2,-1.2 59.3,-0.8 60.5,0.4 2.4,2.4 3,10 3,42.5 v 33.7 l -2.7,0.6 c -3.4,0.9 -3.9,0 -4.6,-8.3 C 90.9,326 88.4,312.8 85.8,305 80.8,289.7 75.6,283.5 64,279.3 62.1,278.6 60.5,278 60.5,278 c 0,0 0,24.2 0,53.8 0,29.5 0.1,52.2 0.3,50.4 0.2,-2.1 1.2,-3.8 2.8,-4.9 3,-1.9 7.3,-9 8.6,-14.1 0.5,-2 1.2,-7.3 1.6,-11.7 l 0.7,-8 3.2,-0.2 3.1,-0.1 -0.1,45.4 v 45.3 l -2.1,-0.4 c -1.2,-0.2 -2.7,-0.4 -3.3,-0.4 C 74.4,433 74,431 74,426.8 c 0,-8.3 -2.4,-19.6 -5.2,-24.5 -1.3,-2.2 -4,-5.9 -6.2,-8.4 -3.1,-3.5 -3.7,-3.9 -3.1,-1.9 0.5,1.4 1,31 1.2,65.9 0.4,55.1 0.6,63.7 2,65.7 1.6,2.4 1.1,2.9 -2.3,2.5 -1.5,-0.2 -3.5,2.3 -3.7,4.7 -0.1,1.8 -0.9,2 -10.2,2.1 -5.5,0.1 -10.4,-0.1 -10.7,-0.5 z"
       id="path239" />
    <path
       d="m 132,532.3 c 0,-0.4 0.9,-2.3 2,-4.1 2.4,-3.9 2.4,-4.6 0.5,-6.5 -1.3,-1.3 -1.5,-16.8 -1.5,-122.8 0,-118.5 0,-121.3 1.9,-123.2 1.9,-1.9 1.9,-2 -0.6,-6.6 l -2.4,-4.6 7.3,-0.3 c 9.1,-0.4 11.6,0.3 12.8,3.2 0.6,1.6 2,2.6 4.4,3 l 3.5,0.7 -2.5,4.6 -2.4,4.7 0.2,119 0.3,119.1 2.2,3.6 2.3,3.6 -3.2,0.9 c -2.2,0.7 -3.4,1.7 -3.8,3.4 -0.6,2.4 -0.9,2.5 -10.8,2.8 -5.6,0.1 -10.2,-0.1 -10.2,-0.5 z"
       id="path241" />
    <path
       d="m 206.1,532.2 c -1.6,-0.5 -1.3,-3.8 0.4,-5.2 1.9,-1.6 1.9,-4.4 0.1,-5.9 -1.2,-1 -1.4,-19.4 -1.5,-122.5 -0.1,-119 0,-121.4 1.9,-123.1 1.9,-1.7 1.9,-1.8 -0.5,-6 -1.4,-2.3 -2.5,-4.5 -2.5,-4.8 0,-0.8 21.6,-0.1 23,0.8 2.6,1.6 4.1,9.5 7.5,38.7 2,17.2 3.8,32.4 4,33.8 0.2,1.4 1.1,8.6 2,16 2.6,22.5 5.3,45.1 6.1,52 0.4,3.6 0.8,6.7 0.9,7 0,0.3 0.6,1.4 1.3,2.5 1,1.6 1.1,-12 0.8,-67.6 l -0.5,-69.6 2.5,-2.6 2.4,-2.6 -2.1,-3.6 c -1.2,-2 -1.9,-3.9 -1.6,-4.2 1.1,-1 15.1,-1.2 17.5,-0.2 2.7,1 2.6,4.4 -0.4,10 -1.8,3.3 -1.9,8.9 -2.4,129.9 l -0.5,126.5 -9.3,0.3 c -9.1,0.3 -9.2,0.2 -10.2,-2.3 -1.3,-3.4 -2,-7.8 -4.5,-28.5 -0.5,-4.5 -3.5,-26.7 -4,-30 -1,-6.9 -1.5,-10.9 -2,-15.5 -0.9,-7.4 -2.5,-19.9 -2.9,-22.1 -0.2,-1 -0.7,-4.8 -1.1,-8.4 -0.4,-3.6 -1.3,-11.4 -2.1,-17.5 -4.6,-34.7 -5.6,-43.2 -5.5,-45.2 0,-1.3 -0.4,-2.3 -0.9,-2.3 -0.7,0 -1,28.2 -1,80.8 0,71.5 0.2,81 1.6,83 1.4,2.1 1.4,2.2 -0.8,2.2 -3.1,0 -4.5,1 -5.7,4.1 -0.8,2.3 -1.5,2.6 -5,2.5 -2.2,0 -4.5,-0.2 -5,-0.4 z"
       id="path243" />
    <path
       d="m 302,532 c -1.2,-0.8 -1.1,-1.4 0.9,-4 1.7,-2.3 2,-3.5 1.2,-4.3 -1.6,-1.6 -1.4,-17.4 0.9,-52.9 1.1,-17.2 3.5,-61.2 5.5,-97.8 1.9,-36.6 3.9,-70.5 4.4,-75.5 0.5,-4.9 1,-13.2 1,-18.3 0,-5.1 0.5,-10.1 1.1,-11.2 1.4,-2.5 6,-3.3 14,-2.3 8.1,1 8.6,1.8 9.4,16.8 0.4,6.1 1.1,16.6 1.6,23.5 0.5,6.9 1.2,16.6 1.5,21.5 0.6,9.1 1,15.6 2,27.5 0.5,6.6 0.7,10.6 2.5,36 0.5,8 1.2,17.7 1.5,21.5 0.3,3.9 1.2,16.9 2,29 0.8,12.1 1.7,24 1.9,26.5 0.3,2.5 1.2,14.4 2.1,26.5 0.8,12.1 1.9,24.3 2.4,27 1,5.7 1.1,5.4 -1.5,5.8 -3.2,0.5 -4.5,1.8 -3.9,3.8 0.6,1.8 0,1.9 -8.4,1.9 -10.1,0 -10.4,-0.3 -7.1,-5.8 1.2,-1.9 1.6,-3.1 1,-2.7 -0.5,0.3 -1,0.1 -1,-0.5 0,-0.7 -0.7,-0.9 -1.6,-0.6 -0.8,0.3 -1.3,0.2 -1,-0.3 0.3,-0.5 0,-1.1 -0.7,-1.4 -1.1,-0.4 -1.2,-2.1 -0.5,-8.3 1.1,-9.7 0.5,-29.1 -0.9,-30.5 -1.9,-1.9 -8.1,-1.9 -10.5,0.1 -2.1,1.7 -2.3,2.7 -2.6,15.7 -0.3,9.9 0,16.3 1.2,22.3 0.8,4.6 1.4,8.5 1.2,8.8 -0.2,0.2 -1.8,-0.4 -3.5,-1.2 -4.2,-2.2 -4.8,-2 -5.6,1.4 -0.6,2.8 -1,3 -4.8,3 -2.3,0 -4.9,-0.5 -5.7,-1 z m 27.4,-72.2 c 1.9,-2.4 1.9,-5.9 0,-33.3 -0.6,-9.1 -2.6,-51.3 -2.5,-54.2 0,-1.2 -0.3,-2.4 -0.8,-2.7 -0.4,-0.3 -0.9,3.1 -1,7.6 -0.1,4.5 -0.4,8.4 -0.5,8.7 -0.2,0.3 -0.7,7.9 -1.1,16.9 -0.4,8.9 -0.8,17.5 -1,19 -0.2,1.5 -0.7,11.6 -1.1,22.4 l -0.7,19.7 3.4,-0.9 c 1.9,-0.5 4.2,-2 5.3,-3.2 z"
       id="path245" />
    <path
       d="m 394,531.9 c 0,-0.6 1,-2.4 2.1,-4.1 1.8,-2.5 2,-3.4 1,-5.5 -0.6,-1.3 -0.8,-2.9 -0.5,-3.5 0.9,-1.4 0.9,-232.2 0,-237.4 -0.6,-3.1 -0.3,-4.4 0.8,-5.4 2.1,-1.7 2,-2.5 -0.9,-6.8 -1.4,-2 -2.5,-4 -2.5,-4.4 0,-0.5 5.1,-0.8 11.4,-0.8 h 11.4 l 0.5,2.9 c 0.4,2.1 1.5,3.2 3.7,3.9 3.3,1.2 3.7,2.3 1.6,4.1 -3.4,2.8 -3.5,8.6 -3.5,124.1 0,63 -0.2,115.6 -0.4,117 -0.3,1.4 -0.5,3 -0.6,3.7 0,0.6 -0.9,1.4 -1.8,1.6 -1.3,0.3 -1.1,0.5 0.6,0.6 3.5,0.2 9.5,-6.9 14.1,-16.4 5,-10.5 9.2,-27.5 12.6,-51.7 l 2.8,-19.6 2.8,-0.4 2.8,-0.5 v 47.2 c 0,36.2 -0.3,47.5 -1.2,48.7 -2.6,3.2 -7.8,3.8 -32.4,3.8 -17,0 -24.4,-0.3 -24.4,-1.1 z"
       id="path247" />
    <path
       d="m 524,531.8 c 0,-0.5 1,-2.6 2.2,-4.8 2.1,-3.6 2.2,-3.9 0.6,-5.7 -1.6,-1.8 -1.7,-10.5 -1.8,-123.1 0,-89.4 0.3,-121.8 1.2,-123.1 0.9,-1.5 0.7,-2.5 -1.1,-5.4 l -2.1,-3.5 25.4,-0.7 c 14,-0.4 28.1,-0.4 31.3,0.1 l 5.8,0.9 0.7,4.5 c 0.8,5.7 1,73.5 0.2,72.7 -0.4,-0.3 -1.5,-0.2 -2.5,0.3 -2.3,1.3 -3.9,-1.4 -3.9,-6.6 0,-6.1 -3.8,-26.5 -6.4,-34 -4.8,-14.1 -12.1,-22.1 -22.1,-24.4 l -3,-0.7 v 50.3 c 0,56 -0.5,52.9 6.8,44.4 4.1,-4.8 5.3,-8.5 6.8,-21.1 l 1.2,-9.5 2.9,0.4 2.8,0.4 -0.1,45.3 -0.2,45.3 -2.7,-0.2 c -2.7,-0.1 -2.8,-0.2 -3.4,-8.1 -1.3,-15.4 -4,-22.8 -11.9,-31.8 l -3.3,-3.8 0.7,6.8 c 0.5,3.7 0.8,32.9 0.9,64.8 0.1,48.3 0.3,58.4 1.5,60.5 2,3.5 1.9,3.8 -1.2,4.2 -2,0.2 -3.3,1.3 -4.4,3.5 l -1.6,3.1 -9.6,-0.1 c -5.3,0 -9.7,-0.4 -9.7,-0.9 z"
       id="path249" />
    <path
       d="m 609,531.8 c 0,-0.5 0.7,-2.2 1.5,-3.9 0.9,-1.6 1.3,-3.5 0.9,-4.1 -1.4,-2.3 -1.2,-15.4 0.7,-46.8 2.5,-40.8 8.5,-150.1 9.9,-179 1.5,-31.8 1.3,-30.7 6.1,-32.1 2.7,-0.9 5.9,-0.9 10.6,-0.3 6.4,0.9 6.7,1 7.8,4.4 0.7,1.9 1.5,8.7 1.9,15 0.4,6.3 0.9,13.8 1.1,16.5 0.3,2.8 0.9,12 1.5,20.5 1.4,20.8 2.5,37.4 3.5,50.5 0.3,3.3 2.1,28.7 4.1,56.5 1.9,27.8 4.1,56.6 4.8,64 0.7,7.4 1.1,16.2 0.9,19.5 -0.8,12.2 -0.8,12.4 7.9,18.7 2.2,1.6 1.6,1.7 -13.4,1.8 -14.6,0 -15.8,-0.1 -15.8,-1.8 0,-1 0.7,-2.7 1.5,-3.8 2.1,-2.8 1.8,-3.9 -1.2,-5 l -2.6,-0.9 0.2,-19.1 c 0.2,-16.3 0,-19.2 -1.3,-20.4 -2.1,-1.6 -8.2,-0.7 -10.8,1.7 -1.9,1.7 -2,2.8 -1.6,20.8 0.3,11.2 1,20.2 1.7,21.9 0.6,1.6 1,3.1 0.8,3.3 -0.3,0.2 -2.1,-0.4 -4.1,-1.3 -3.4,-1.7 -3.6,-1.7 -5.6,0.1 -1.1,1 -1.8,2.5 -1.5,3.2 0.4,1.1 -0.7,1.3 -4.5,1.2 -2.8,-0.2 -5,-0.6 -5,-1.1 z M 637.4,461 c 1.8,-1.8 1.5,-10.5 -2.8,-82.3 -0.2,-3.8 -0.6,-7.1 -0.9,-7.3 -0.3,-0.3 -0.8,3.9 -1.1,9.3 -0.4,5.4 -0.9,12.1 -1.1,14.8 -0.2,2.8 -0.7,12.9 -1.1,22.5 -0.4,9.6 -0.8,17.8 -1,18.1 -0.3,0.5 -0.5,21.5 -0.2,25.3 0.1,1.5 0.7,1.7 3.6,1.2 2,-0.3 4,-1 4.6,-1.6 z"
       id="path251" />
    <path
       d="m 706.8,532.3 c -5.2,-0.4 -5.6,-1.1 -3.2,-5.3 1.1,-1.8 1.4,-3.4 0.9,-4.6 -1.1,-2.4 -1,2.7 -1.3,-131.3 -0.2,-103.6 -0.1,-114.6 1.3,-116.2 1.5,-1.6 1.4,-2 -0.9,-5.7 l -2.5,-3.9 6.1,-0.7 c 7.6,-0.8 16.8,0.2 19,2.1 2.2,2 2.3,2.1 6.3,35.3 3.7,31.3 5.4,44.9 6.1,49 0.2,1.4 1.9,15.7 3.9,31.9 3.3,27.6 4.9,37.1 6.1,37.1 0.3,0 0.3,-2.1 0,-4.7 -0.3,-2.7 -0.6,-35.1 -0.6,-72.2 -0.1,-63.7 0,-67.4 1.7,-68.8 1,-0.8 1.1,-1.1 0.3,-0.7 -1.3,0.7 -1.3,0.5 -0.2,-0.9 1.2,-1.4 1.1,-2 -0.2,-3.9 -2.4,-3.4 -2,-3.8 2.9,-3.8 3.4,0 4.5,0.4 4.5,1.5 0,0.8 0.5,2.3 1.1,3.3 1,1.7 1.6,1.7 4.8,0.6 3.3,-1.1 3.7,-1 4.3,0.7 0.4,1.1 -0.1,3.6 -1.2,6.1 -1.9,4.2 -2,7.8 -2,128.3 0,68.2 -0.4,124.5 -0.8,125.2 -0.4,0.7 -3.8,1.5 -7.4,1.9 -5.8,0.6 -7,0.4 -9.7,-1.5 -3.7,-2.7 -4.1,-3.8 -5.6,-17.1 -0.3,-3 -1.9,-14.9 -3.5,-26.5 -2.8,-19.7 -8.5,-63.1 -9.6,-72 -0.5,-4.1 -2.3,-17.4 -2.8,-21 -0.2,-1.1 -1.2,-9.1 -2.2,-17.7 -1,-8.7 -2.2,-15.8 -2.6,-15.8 -0.7,0 -1.6,141.3 -1.1,156.8 0.1,2.4 0.6,4.9 1.2,5.6 0.8,0.9 0.2,1.5 -2.4,2.5 -1.9,0.7 -3.6,1.9 -3.6,2.7 -0.4,4.4 0,4.2 -7.1,3.7 z"
       id="path253" />
    <path
       d="m 899,531.5 c 0,-0.9 0.7,-2.7 1.6,-4.1 1.4,-2.1 1.5,-2.9 0.4,-4.9 -1,-1.8 -1.1,-6 -0.7,-16.7 0.6,-14.7 5.2,-96.3 6.2,-109.8 0.3,-4.1 1.7,-30.4 3,-58.5 2.9,-60.3 3.4,-68.8 4.6,-70.6 1.4,-2.3 17.2,-1.8 19.8,0.5 1.1,1 2,2.1 1.9,2.5 -0.1,0.3 0.2,5.1 0.6,10.6 1.3,18.1 2.5,35.9 3.1,45 0.3,5 0.7,11 1,13.5 0.2,2.5 0.7,9.5 1,15.5 0.3,6.1 0.8,12.6 1,14.5 0.2,1.9 0.7,8.9 1,15.5 0.3,6.6 0.8,13.6 1,15.5 0.2,1.9 0.6,8 1,13.5 0.3,5.5 0.8,12.7 1,16 0.5,5.4 2.6,34.3 4.1,56 0.3,4.4 0.7,9.4 0.9,11 0.3,1.7 0.7,8.2 1.1,14.5 0.4,6.3 1.1,12.5 1.5,13.8 0.8,2 0.5,2.3 -2.1,2.9 -2.1,0.4 -3.2,1.3 -3.6,2.9 -0.6,2.3 -1,2.4 -8.5,2.4 -7.7,0 -7.9,-0.1 -7.9,-2.4 0,-1.3 0.6,-2.9 1.4,-3.6 0.8,-0.6 1.2,-1.8 0.9,-2.6 -0.3,-0.8 -0.8,-1.3 -1,-1 -0.3,0.3 -1.2,-0.2 -2.1,-1 -1.2,-1.3 -1.5,-4.9 -1.6,-19.8 -0.1,-20.9 -0.5,-22.2 -6.5,-21.1 -6.9,1.3 -7.1,2 -7.1,19.4 0.1,8.6 0.5,17.4 0.9,19.6 0.5,2.2 1.2,5.5 1.6,7.3 l 0.8,3.3 -3.4,-2 c -4.5,-2.8 -5.5,-2.6 -6.8,0.9 -0.9,2.7 -1.4,3 -5.5,3 -3.5,0 -4.6,-0.4 -4.6,-1.5 z m 25.3,-69.6 c 2.1,-0.9 2.6,-2.1 3.1,-6.8 0.4,-3.1 0.2,-10.1 -0.3,-15.6 -0.6,-5.5 -1.5,-19.9 -2.1,-32 -0.6,-12.1 -1.3,-24.8 -1.5,-28.3 -0.7,-14.4 -2.1,-5.5 -3.1,19.8 -0.3,9.1 -0.7,17.9 -0.9,19.5 -0.8,7.6 -1.7,39.6 -1.1,41.9 0.7,2.8 2.2,3.2 5.9,1.5 z"
       id="path255" />
    <path
       d="m 1096,530.8 c 0,-0.7 0.9,-2.8 2.1,-4.7 1.2,-2 1.7,-4 1.3,-5 -0.4,-0.9 -0.8,-24.1 -1,-51.6 -0.1,-27.8 -0.7,-55.6 -1.3,-62.5 -1.9,-20.6 -2,-21.7 -3.6,-44.5 -0.8,-12.1 -1.7,-23.1 -2,-24.5 -0.2,-1.4 -0.7,-6.5 -1,-11.5 -0.3,-4.9 -0.8,-11.2 -1,-14 -0.2,-2.7 -0.7,-9 -1,-14 -0.4,-4.9 -1.1,-10.9 -1.6,-13.3 -0.6,-2.7 -0.6,-4.9 0,-6.1 0.8,-1.3 0.4,-2.7 -1.4,-5.3 l -2.4,-3.5 7,-0.6 c 8.2,-0.7 9.5,-0.3 10.3,2.6 0.3,1.3 1.8,2.7 3.5,3.3 l 2.9,1.2 -1.6,4.7 c -1.4,4.4 -1.4,6.4 0.1,23.4 1.6,17.1 5,40.6 7.9,54.1 1.4,6.5 1.5,6.9 1.6,9.4 0.1,1.1 0.4,1.7 0.7,1.4 0.9,-0.8 7.5,-68.3 7.8,-78.7 0.2,-8.4 0.5,-9.5 2.6,-11.2 l 2.3,-1.9 -2.3,-3.6 c -2.6,-4.3 -1.9,-5.1 4.8,-4.9 3.8,0.2 4.8,0.6 5.4,2.4 0.5,1.2 2,2.6 3.4,3.3 2.8,1.3 3.1,2.4 1.1,4.7 -0.8,0.9 -1.9,5.7 -2.5,10.6 -0.7,5 -2.7,18.7 -4.6,30.5 -1.9,11.8 -4.4,27.4 -5.5,34.5 -2.6,16.7 -3.9,24.7 -5,31.5 -0.5,3 -1.2,7.5 -1.5,10 -0.3,2.5 -1.2,8.3 -2,13 -0.8,4.7 -1.9,11.2 -2.4,14.5 -0.6,3.4 -0.9,24.6 -0.8,49.5 0.2,39.6 0.4,43.8 2,46.3 0.9,1.4 1.7,3.1 1.7,3.7 0,0.5 -0.8,1 -1.7,1 -2.1,0.1 -6.9,2.6 -6.5,3.4 1.2,3 0,3.6 -7.8,3.6 -5.7,0 -8,-0.4 -8,-1.2 z"
       id="path257" />
  </g>
</svg>
