<?xml version="1.0" encoding="UTF-8" standalone="no"?>
<svg
   version="1.0"
   width="762.20569"
   height="716.31116"
   viewBox="0 0 762.20569 716.31116"
   preserveAspectRatio="xMidYMid meet"
   id="svg649"
   sodipodi:docname="finalfight.svg"
   inkscape:version="1.1.2 (0a00cf5339, 2022-02-04, custom)"
   xmlns:inkscape="http://www.inkscape.org/namespaces/inkscape"
   xmlns:sodipodi="http://sodipodi.sourceforge.net/DTD/sodipodi-0.dtd"
   xmlns:xlink="http://www.w3.org/1999/xlink"
   xmlns="http://www.w3.org/2000/svg"
   xmlns:svg="http://www.w3.org/2000/svg">
  <sodipodi:namedview
     id="namedview651"
     pagecolor="#ffffff"
     bordercolor="#666666"
     borderopacity="1.0"
     inkscape:pageshadow="2"
     inkscape:pageopacity="0.0"
     inkscape:pagecheckerboard="0"
     showgrid="false"
     inkscape:zoom="1.1541667"
     inkscape:cx="382.52708"
     inkscape:cy="358.70036"
     inkscape:window-width="1920"
     inkscape:window-height="1017"
     inkscape:window-x="-8"
     inkscape:window-y="-8"
     inkscape:window-maximized="1"
     inkscape:current-layer="svg649" />
  <defs
     id="defs23">
    <linearGradient
       id="lg0"
       gradientUnits="userSpaceOnUse"
       x1="375"
       y1="119.99999"
       x2="375"
       y2="676">
      <stop
         offset="0%"
         style="stop-color:rgb(251,216,25);"
         id="stop2" />
      <stop
         offset="16%"
         style="stop-color:rgb(249,213,26);"
         id="stop4" />
      <stop
         offset="26%"
         style="stop-color:rgb(245,196,27);"
         id="stop6" />
      <stop
         offset="28%"
         style="stop-color:rgb(243,186,27);"
         id="stop8" />
      <stop
         offset="29%"
         style="stop-color:rgb(240,173,26);"
         id="stop10" />
      <stop
         offset="35%"
         style="stop-color:rgb(234,141,25);"
         id="stop12" />
      <stop
         offset="36%"
         style="stop-color:rgb(233,138,25);"
         id="stop14" />
      <stop
         offset="39%"
         style="stop-color:rgb(230,123,25);"
         id="stop16" />
      <stop
         offset="42%"
         style="stop-color:rgb(226,100,25);"
         id="stop18" />
      <stop
         offset="100%"
         style="stop-color:rgb(212,23,22);"
         id="stop20" />
    </linearGradient>
    <linearGradient
       inkscape:collect="always"
       xlink:href="#lg0"
       id="linearGradient1468"
       gradientUnits="userSpaceOnUse"
       x1="375"
       y1="119.99999"
       x2="375"
       y2="676" />
    <linearGradient
       inkscape:collect="always"
       xlink:href="#lg0"
       id="linearGradient1470"
       gradientUnits="userSpaceOnUse"
       x1="375"
       y1="119.99999"
       x2="375"
       y2="676" />
    <linearGradient
       inkscape:collect="always"
       xlink:href="#lg0"
       id="linearGradient1472"
       gradientUnits="userSpaceOnUse"
       x1="375"
       y1="119.99999"
       x2="375"
       y2="676" />
    <linearGradient
       inkscape:collect="always"
       xlink:href="#lg0"
       id="linearGradient1474"
       gradientUnits="userSpaceOnUse"
       x1="375"
       y1="119.99999"
       x2="375"
       y2="676" />
    <linearGradient
       inkscape:collect="always"
       xlink:href="#lg0"
       id="linearGradient1476"
       gradientUnits="userSpaceOnUse"
       x1="375"
       y1="119.99999"
       x2="375"
       y2="676" />
    <linearGradient
       inkscape:collect="always"
       xlink:href="#lg0"
       id="linearGradient1478"
       gradientUnits="userSpaceOnUse"
       x1="375"
       y1="119.99999"
       x2="375"
       y2="676" />
    <linearGradient
       inkscape:collect="always"
       xlink:href="#lg0"
       id="linearGradient1480"
       gradientUnits="userSpaceOnUse"
       x1="375"
       y1="119.99999"
       x2="375"
       y2="676" />
    <linearGradient
       inkscape:collect="always"
       xlink:href="#lg0"
       id="linearGradient1482"
       gradientUnits="userSpaceOnUse"
       x1="375"
       y1="119.99999"
       x2="375"
       y2="676" />
  </defs>
  <g
     fill="#010201"
     id="g45"
     transform="translate(-2.5,-0.79274255)">
    <path
       d="m 159.6,717 c -9.4,-30.4 -19.4,-50.3 -32.6,-64.3 -5.7,-6.1 -6.3,-7.3 -6.8,-11.9 -0.3,-3.3 -1.2,-5.8 -2.3,-6.8 -1.5,-1.2 -2,-4.8 -3.4,-21 -0.8,-10.7 -1.7,-25.1 -1.9,-32 -0.2,-6.9 -0.7,-15.5 -1.1,-19.1 -0.7,-6.3 -0.6,-7 3.3,-15.5 5,-11.1 6.2,-15.5 6.2,-22.3 0,-4 1,-7.7 4,-14.7 5.3,-12.4 6.3,-17.2 5.1,-24.2 -0.5,-3.2 -1.3,-10.4 -1.7,-16.1 -0.8,-13.1 -1.6,-14.1 -11,-14.1 -9.4,0 -19.7,-3.3 -24,-7.6 -1.9,-1.9 -4.3,-3.4 -5.3,-3.4 -1,0 -3.8,-0.9 -6.2,-1.9 -2.7,-1.1 -9.4,-2.4 -16.9,-3.2 -6.9,-0.7 -13.1,-1.5 -13.8,-1.9 -0.8,-0.4 3,-2.6 9.7,-5.5 6.1,-2.6 10.8,-5.1 10.6,-5.5 -0.3,-0.4 -3.7,-1.1 -7.7,-1.4 -15.8,-1.5 -15.9,-1.2 3.5,-9.9 27.4,-12.3 53.7,-28.1 58.3,-35.2 2,-3 1.4,-5.9 -3.3,-18 -5.6,-14.3 -13.1,-27.1 -19.9,-34.3 l -6.2,-6.5 -4.5,0.7 -4.6,0.7 -1.2,-4.3 c -1.5,-5.8 -4.6,-11.7 -7.7,-15.1 -1.9,-2 -3.5,-2.7 -6.2,-2.7 -2.1,0 -6.2,-1.3 -9.6,-3 l -5.9,-3 h -27 L 2.5,293.9 23,286.7 43.4,279.5 25.7,279 8,278.5 22.3,273.6 c 25.6,-8.8 39.4,-14.5 39.9,-16.4 0.8,-2.8 8.2,-4.5 20.3,-4.7 13.2,-0.2 18.2,-1.1 18.8,-3.4 0.3,-1.3 4,-2.3 17.8,-4.9 9.6,-1.8 19.6,-3.5 22.2,-3.9 2.7,-0.3 5.1,-1.2 5.4,-1.9 1.1,-2.9 2.4,-1.2 2.1,2.8 l -0.3,4.3 -8.5,1.2 c -15.9,2.3 -32.1,6 -33.3,7.6 -2.2,2.9 -11.9,4.2 -34.5,4.7 -0.7,0 -2.4,1.2 -3.7,2.6 -1.3,1.4 -7.1,4.5 -13.2,6.9 -9.9,4.1 -10.5,4.4 -6.8,4.5 2.2,0 6.7,1.2 10,2.6 3.3,1.5 8.1,2.9 10.6,3.3 2.6,0.4 5.8,1.5 7.3,2.4 2.9,1.9 8,10.3 9.8,16 1,3.4 1.4,3.7 4.7,3.7 2,0 5,0.9 6.8,1.9 6.9,4.2 16.6,19.3 24.4,37.7 6.8,16 9.9,27.1 9.9,35.4 0,6.5 -0.1,6.8 -4.2,10.9 -6.5,6.5 -22.2,16.5 -39.5,25.2 -8.6,4.4 -14.6,7.9 -13.4,7.9 1.2,0 3.9,0.9 6.1,2 2.2,1.1 5.7,2 7.9,2 3.3,0 4,0.3 4.3,2.3 0.5,3.9 8.5,7 20,7.8 8.5,0.6 10.3,1 12.4,3 5.5,5.1 6.7,9.6 9,33.9 2.2,23.5 1.7,29.1 -3.5,41.1 -2.7,6.5 -4.1,11.1 -4.1,14.1 0,6.1 -2.4,15 -6.5,23.5 l -3.4,7.2 1,19.8 c 0.5,10.9 1.6,26.9 2.4,35.7 l 1.4,15.9 6,6.1 c 9.2,9.7 17.4,23.3 24.7,41.1 l 3.3,8 3.4,-7.5 c 8.3,-17.7 13,-41.4 16.8,-84 1.2,-13.3 0.9,-56.7 -0.7,-127.2 -0.6,-24.3 -0.5,-28 0.9,-30.1 3.7,-5.7 20.5,-13.9 43.9,-21.6 5.3,-1.8 11.5,-4.5 13.7,-6.2 8.6,-6.2 17.3,-20.1 26.1,-41.8 l 4.3,-10.4 -2.3,-1.9 c -1.2,-1 -2.8,-1.8 -3.5,-1.8 -2.4,0 -12.3,3.9 -30,11.7 -26.6,11.8 -25.9,11.6 -36.7,11.1 -7.6,-0.3 -10.1,-0.8 -13.1,-2.7 -5.3,-3.3 -6.7,-6.6 -6.7,-16.1 0,-10.3 1.6,-13.5 12.3,-24.7 14.3,-14.9 31,-26.9 38.9,-27.9 4.5,-0.6 4.9,-0.9 7.9,-6.2 1.7,-3 6.4,-8.8 10.5,-12.8 5.5,-5.4 7,-7.3 5.8,-7.8 -3.2,-1.2 -5.7,-12.2 -3.8,-17 0.7,-1.9 4.5,-2.1 9.1,-0.4 4,1.5 7.5,0 15.5,-6.5 4.1,-3.3 6.5,-4.5 10,-4.9 2.5,-0.3 7.1,-1.7 10.3,-3.2 3.1,-1.4 7,-2.6 8.6,-2.6 2.6,0 2.9,0.3 2.9,3.4 0,2.6 -1.1,4.6 -4.7,8.6 -4,4.5 -4.4,5.2 -2.3,4.5 4.9,-1.6 9.6,-2.5 13.3,-2.5 3.5,0 3.7,0.2 3.7,3.3 0,3.5 -3.1,8.6 -17.3,27.7 -7.1,9.6 -8.2,11.6 -6.6,11.8 1.1,0.2 1.9,1.1 1.9,2.2 0,1 0.4,2.1 0.9,2.4 1.9,1.2 44.1,-28.9 65.6,-46.9 l 12,-10 -6,-0.5 c -9,-0.8 -13.4,-4.7 -14.3,-12.6 -0.8,-7 0.3,-9.4 4.1,-9.4 1.8,0 4.2,0.7 5.3,1.5 3.6,2.7 8.3,1.6 13.4,-3.1 1.8,-1.6 4.3,-2.5 8.8,-3 l 6.2,-0.7 v 5.9 5.8 l 6.5,-6.4 c 6.2,-6.1 6.5,-6.7 6.5,-11.2 V 207 h 3.5 c 2.7,0 3.5,0.4 3.5,1.8 0,1.3 1.5,2.2 5.6,3.4 5.1,1.6 6,1.6 9.8,0.1 2.2,-0.8 5.8,-1.8 8,-2 l 3.9,-0.5 -6.9,8.3 c -16.2,19.8 -45.7,47.9 -71.2,67.7 -21.8,17 -60.1,43.2 -63,43.2 -0.5,0 -1.3,-2 -1.6,-4.5 -0.4,-2.5 -1.1,-4.5 -1.5,-4.5 -0.4,0 -4.5,1.5 -9.1,3.4 -7.7,3.1 -8.5,3.7 -9.3,6.7 -1.8,7.6 -9.7,10.3 -15.7,5.3 -6.6,-5.6 -7.9,-12.7 -3.1,-17.5 1.6,-1.6 3.9,-2.9 5.1,-2.9 3.8,0 8.7,2.8 10.6,5.9 1,1.7 2.2,3.1 2.5,3.1 0.9,0 13.8,-16.5 14.6,-18.6 0.6,-1.5 -2.5,-0.6 -12,3.5 -2.7,1.2 -5,2.1 -5.3,2.1 -0.2,0 4.2,-5.9 9.7,-13.1 5.5,-7.2 9.9,-13.3 9.6,-13.5 -0.8,-0.8 -14.5,6 -21.3,10.6 -7.8,5.1 -17.5,15.4 -20.5,21.8 -2.4,4.9 -2.5,5 -8,5.6 -4.6,0.5 -7.1,1.7 -13,5.7 -16.5,11.4 -30.4,24.7 -35.1,33.5 -2.7,5.1 -2.2,5.8 4.7,6.9 5.3,0.7 8.2,-0.2 32.7,-11.1 29,-12.8 34.3,-14.2 40.8,-10.9 3.3,1.7 5,4.3 5,7.7 0,1.4 1.3,3.3 3.5,5.1 l 3.4,2.7 -0.6,-4.9 c -1.1,-9.6 5.1,-20.7 14,-25 16.1,-7.8 34.3,-2.1 41.5,13.1 1.2,2.6 2.6,4.9 3.2,5.3 0.6,0.3 2.2,2.8 3.5,5.5 1.9,3.7 2.5,6.5 2.5,11.3 0,7.8 -1.8,12.5 -7,18 -2.4,2.7 -4.1,5.7 -4.5,8.1 -0.8,3.8 -0.7,3.9 1.8,3.2 1.4,-0.3 3.2,-0.9 4.1,-1.2 1.4,-0.5 1.6,0.5 1.6,7.7 0,8.4 -3.6,39 -7,60.4 -1.1,6.6 -2,12.3 -2,12.7 0,1 6.1,-1.3 17.3,-6.5 7,-3.3 9.6,-5 9.1,-5.9 -0.4,-0.7 -1.6,-2.5 -2.6,-4 -1.1,-1.5 -3.7,-8.3 -6,-15 -3.6,-10.9 -4,-13.4 -4,-21.8 0,-12 2.5,-21.9 9.1,-35.5 6.6,-13.8 11.9,-21.5 21.5,-31 8.7,-8.6 16.2,-13.2 26,-16 7.9,-2.3 20.1,-1.6 27.4,1.5 5.4,2.3 12.5,9.1 14.2,13.6 1.5,3.9 6.3,9.4 8.3,9.4 2.6,0 7.4,2.7 8.1,4.5 0.3,0.9 0.6,2.9 0.6,4.3 0,2 0.9,3.2 3,4.4 1.7,1 3.7,3.2 4.4,4.9 1.2,2.8 1.4,3 1.9,1.3 0.4,-1 1.1,-17.2 1.8,-35.9 1.1,-33.1 0.7,-90.9 -1,-137.4 -0.8,-21 -0.4,-26.5 2.7,-33.8 2.6,-6.5 5.2,-5.3 5.2,2.3 0,2 0.5,3.4 1.3,3.4 0.6,0 2.2,1.8 3.5,4 4.4,7.7 14.7,12.7 21.2,10.2 1.4,-0.5 4.5,-2.6 6.9,-4.6 2.3,-2 5.3,-3.6 6.5,-3.6 2.2,0 2.3,-0.4 2.9,-11.5 0.6,-12.5 -0.1,-16.6 -3.3,-20 l -2.1,-2.2 -5.9,2 c -5.2,1.8 -6,2.4 -6,4.6 -0.1,1.5 -1.8,6.7 -3.9,11.6 -3.6,8.7 -3.9,9 -7.3,9.3 -2.9,0.3 -3.6,-0.1 -4.6,-2.3 -0.7,-1.4 -1.2,-5.4 -1.2,-8.9 0,-5 0.4,-6.7 1.9,-8.1 1.2,-1 2.1,-3.3 2.3,-5.8 0.2,-3 0.8,-4.3 2.1,-4.5 1.1,-0.2 1.7,0.3 1.7,1.3 0,1.3 0.5,1.5 1.8,1 7.9,-3.5 18.5,-6.6 20.5,-6.1 3.9,0.9 7.5,4.4 8.7,8.4 0.7,2 2.5,5.1 4.1,6.7 5.2,5.5 5.1,5.2 4.3,58.9 -0.6,46.9 -0.6,49.9 1,49.3 1,-0.4 14.9,-8.6 31.1,-18.3 26.6,-16 29.3,-17.8 29.9,-20.6 0.3,-1.7 0.4,-3.3 0.2,-3.6 -0.3,-0.2 -10.7,3.4 -23.2,8.1 l -22.7,8.5 8.9,-9 c 4.9,-4.9 18.7,-18.2 30.7,-29.5 19.6,-18.7 21.7,-21 21.7,-23.9 0,-3 -0.3,-3.3 -3.5,-3.6 l -3.6,-0.3 3.1,-4.8 c 1.6,-2.6 3,-4.9 3,-5.2 0,-0.2 -3.7,-1.6 -8.1,-3 l -8.2,-2.8 6.2,-3.9 c 3.4,-2.1 5.9,-4.2 5.7,-4.7 -0.3,-0.4 -3.2,-1.6 -6.6,-2.6 -3.3,-1 -5.9,-2.2 -5.8,-2.6 0.3,-0.9 45.5,-30.4 56.8,-37.1 7,-4.1 10.5,-4.6 15,-2.3 2.9,1.5 6,6 6,8.8 0,0.7 1.2,2.4 2.6,3.8 4.4,4 5.4,7.8 5.4,20.5 v 11.7 l 5.3,-0.6 5.3,-0.7 1.8,4 c 1,2.4 2.4,4 3.4,4 0.9,0 9.2,-2 18.5,-4.3 9.2,-2.4 16.4,-4 16,-3.6 -0.5,0.3 -6.2,4.4 -12.8,8.9 -6.6,4.6 -12.2,8.5 -12.4,8.7 -1.7,1.4 3,0.5 20.7,-4.1 11.1,-2.9 19.9,-4.9 19.5,-4.6 -0.4,0.4 -11.3,8 -24.1,16.9 -24.7,17.2 -35.4,25.4 -43.9,33.8 l -5.3,5.1 v 24.6 c 0,13.5 0.2,24.6 0.5,24.6 0.3,0 4.5,-2.7 9.4,-5.9 l 8.8,-6 2.2,3 c 1.6,2.2 3,2.9 5.5,2.9 1.8,0 14,-3.6 27.2,-8 13.1,-4.4 23.4,-7.6 22.8,-7.2 -0.5,0.5 -8,5.8 -16.8,11.7 -8.7,6 -15.5,11 -15,11.2 0.5,0.2 12.3,-3.7 26.3,-8.7 13.9,-4.9 25.5,-9 25.8,-9 1,0 -130.2,90.2 -132.5,91.1 -3.2,1.3 -10.9,1.1 -13.5,-0.2 -1.2,-0.6 -3.2,-2 -4.3,-3.1 -2.1,-1.9 -2.2,-1.9 -10.5,3.4 -9.9,6.3 -9.8,6.3 9.6,5 7.2,-0.5 13.1,-0.8 13.3,-0.7 0.1,0.1 -8.2,5.5 -18.5,12 -10.4,6.5 -26.9,17 -36.8,23.2 -9.9,6.3 -19.1,11.7 -20.6,12 -5.9,1.1 -11.9,-5.3 -11.9,-12.8 0,-1.8 -0.8,-4.1 -1.7,-5.2 -1.6,-1.7 -1.9,-5.2 -2.4,-30.1 -0.3,-15.5 -0.9,-28.8 -1.3,-29.4 -1.4,-2.3 -3.4,-1.2 -5,2.8 -2.6,6.5 -4.5,20.2 -5.6,39.5 -1.5,28.3 -1.8,25.9 4,29.2 2.7,1.5 5,3.1 5,3.4 0,0.3 -1.2,1.1 -2.6,1.8 -3.3,1.5 -2.5,2.6 5.5,7.1 3.4,1.8 6.1,3.7 6.1,4 0,0.3 -16.5,10.6 -36.7,22.8 l -36.8,22.2 -0.3,-8.6 c -0.3,-8.6 -0.3,-8.6 -2.7,-8 -2.5,0.6 -2.5,0.6 -2.5,-6.6 0,-4 0.6,-11.1 1.4,-15.8 1.9,-11 3,-23.7 2.1,-22.8 -0.4,0.4 -1.9,4 -3.2,8 -2.4,7.1 -7.6,18.5 -13,28.1 -2.3,4.3 -2.6,6.1 -3,17.3 l -0.5,12.5 5.1,-2.6 c 2.8,-1.4 5.1,-2.4 5.1,-2.2 0,0.2 -2.2,6.2 -4.9,13.3 -12.3,32.6 -24.7,74.9 -27.1,92.4 -3.6,25.9 -7.6,42.4 -13.9,56.9 -12.3,28.6 -30.8,41.5 -54.7,38.2 -15.3,-2.2 -27.4,-10.6 -33.4,-23.3 -1.7,-3.5 -3,-6.8 -3,-7.4 0,-0.6 -1.4,-5.4 -3.2,-10.5 -3,-8.7 -3.2,-10.4 -3.2,-22.4 0,-8.7 0.5,-15.8 1.7,-21.5 2.2,-10.5 7.9,-27.5 11.9,-35.4 1.6,-3.2 2.7,-6 2.4,-6.3 -0.2,-0.3 -3.5,1.3 -7.3,3.5 -19.9,11.8 -34.2,10.5 -41.4,-3.8 -4.6,-9 -8.9,-24.4 -9.9,-35.4 -0.5,-5.6 -1.1,-18.9 -1.2,-29.6 -0.3,-21.1 -0.1,-21.7 5.8,-29.7 2.2,-2.9 2.4,-4.1 2.4,-15.7 v -12.4 l 5.3,-1.7 c 2.8,-0.9 7.8,-2.6 10.9,-3.7 l 5.8,-2.1 -4.3,-2.7 c -7.6,-4.8 -13.7,-13.4 -13.7,-19.3 0,-1.3 -0.7,-3.2 -1.5,-4.3 -1.4,-1.8 -1.4,-1.7 -1.5,1.5 0,1.9 -0.9,5.3 -1.9,7.5 -1.1,2.3 -3.6,8 -5.5,12.9 -6.1,14.9 -11.3,23.4 -20,32.5 -6.3,6.6 -8.4,7.7 -27.1,14.2 -16.7,5.8 -28.8,11.6 -32.9,15.9 l -2.7,2.9 1,33.8 c 2.4,78 2.5,101.1 0.2,124.7 -4.6,48.1 -9.9,69.4 -23.5,94.8 -3.1,5.8 -5.7,9.7 -6,8.9 z m 210.8,-89.9 c 19.8,-9.7 32.5,-35.9 39.1,-80.5 3.5,-23.7 8.8,-44 20.7,-79 4.1,-12 4.8,-15 3.7,-15.7 -1.1,-0.7 -1.3,-4.3 -1.1,-18.1 0.2,-9.5 0.8,-19.1 1.3,-21.2 0.6,-2.2 3.1,-7.4 5.5,-11.6 2.4,-4.2 6,-12 7.9,-17.4 4.3,-12 4,-13 -4.5,-12 l -5.6,0.6 -1.1,-6.1 c -1.6,-8.6 -5.5,-13.8 -12.8,-17.6 -5.1,-2.6 -6.9,-3 -13.9,-3 -7.1,0 -9,0.4 -15,3.2 -14.6,7 -28,21.3 -37.1,39.8 -10.7,21.8 -12.8,38.2 -6.5,50.5 5.7,10.9 20.8,17.5 33.1,14.3 3,-0.8 7.7,-2.7 10.6,-4.3 3.1,-1.8 6.7,-3 8.8,-3 3.3,0 3.5,0.2 3.5,3.1 0,6.6 -7.8,18.7 -19.2,30.1 -7.2,7.1 -8.3,7.8 -11.8,7.8 -3.4,0 -4.1,-0.4 -4.6,-2.6 -0.7,-2.5 -0.8,-2.5 -7.1,3.8 -21.7,21.2 -38.2,51.7 -44.3,81.8 -4.3,21.3 -1.3,37.2 9.3,48.7 11,11.9 27.2,15.2 41.1,8.4 z M 305.8,510 c 10,-5.2 23.2,-15.2 34.1,-25.7 8.1,-7.9 8.4,-8.3 4.6,-6.7 -2.2,0.8 -6.2,2.4 -8.8,3.5 -6.6,2.6 -13.5,2.5 -17.8,-0.4 -3.2,-2.2 -3.4,-2.6 -3.7,-9.1 -0.2,-3.9 0.8,-14.3 2.3,-24.1 3.4,-22.5 7.4,-53.9 7,-54.4 -0.2,-0.2 -9.5,2.8 -20.7,6.5 l -20.3,6.9 -0.5,12.5 c -0.5,11.6 -0.7,12.8 -3.2,16.4 -1.5,2.1 -3.2,5.3 -3.7,7.1 -0.5,1.9 -0.5,13 -0.1,26.6 1,28.3 2.4,34.6 9.6,41.8 4.2,4.2 4.6,4.3 9,3.7 2.5,-0.3 8,-2.4 12.2,-4.6 z M 380,477.5 c 0.7,-0.9 1,-1.8 0.7,-2.2 -0.8,-0.7 -3.7,1.5 -3.7,2.8 0,1.4 1.6,1.1 3,-0.6 z m -16.7,-2.6 c 4,-2.1 4.1,-2.2 2,-3.2 -2.4,-1.1 -4.6,0.1 -6.4,3.5 -1.2,2.3 -0.7,2.3 4.4,-0.3 z m 154.2,-81.1 c 0.5,-0.5 -0.5,-2.3 -2.7,-4.6 -2,-2 -4.1,-4.7 -4.7,-5.9 -0.7,-1.4 -1.1,-8.8 -1.1,-20 0,-29 2.7,-52 7.3,-61.3 l 2.2,-4.5 7.2,-0.3 c 6.7,-0.3 7.3,-0.1 8.8,2.2 4.2,6.4 6.5,25.4 6.5,54.7 0,13.8 0.3,17.9 1.4,18.8 1.1,0.9 6.1,-1.8 24.1,-13.1 20.8,-13.1 22.4,-14.3 19.4,-14.6 -1.9,-0.1 -5.8,-0.7 -8.8,-1.3 l -5.4,-1.1 0.7,-27.2 c 0.3,-14.9 0.9,-30.9 1.2,-35.6 0.5,-7 0.4,-8.3 -0.7,-7.2 -0.7,0.6 -2.8,1.2 -4.6,1.2 -3,0 -3.3,-0.3 -3.3,-3.1 0,-3.5 1.1,-5.9 5.2,-11.1 2.7,-3.4 1,-2.6 -17.4,8.4 -19.6,11.8 -20.5,12.2 -26.8,12.6 -10.1,0.6 -9.5,2.6 -9.3,-35.8 l 0.3,-32.7 -4.8,2.4 c -4.2,2.2 -5.7,2.4 -13.7,2.1 -13,-0.6 -18.2,-3.9 -23.7,-15.3 -2.5,-5.1 -2.9,-5.5 -2.4,-2.5 1.3,7.9 1.9,146.5 0.7,170 -1.1,21.1 -3.1,42.8 -4.7,51.8 l -0.6,3.3 24.3,-14.7 c 13.4,-8.1 24.8,-15.1 25.4,-15.6 z m -204,-21.5 c 6.1,-3.1 9.8,-6.7 12.2,-11.9 2.2,-4.9 2.3,-5.7 1.1,-9.6 -1.9,-6.4 -9.1,-13.3 -16.2,-15.3 -5.2,-1.5 -6,-1.5 -11.2,0 -6.9,2 -14.6,9.1 -16.4,15.2 -2.7,9 5.3,19.3 18,23.4 3.1,1 8.5,0.2 12.5,-1.8 z M 608,338 h 3.8 l -0.6,-4.7 c -0.3,-2.7 -1.6,-6.8 -2.9,-9.2 -2.2,-4.2 -2.3,-5.3 -2.3,-24.7 0,-18.6 -0.2,-20.6 -2,-23.6 -2.5,-4.2 -2.5,-7.4 0,-12.1 2,-3.6 2.7,-8.7 1.3,-8.7 -0.5,0 -4.5,4 -9.1,9 l -8.2,8.9 -1,23.8 c -0.5,13.1 -1,28 -1,33.2 v 9.4 l 9.2,-0.7 c 5,-0.3 10.8,-0.6 12.8,-0.6 z M 259.7,324.6 c -0.9,-2.3 -3.5,-3 -5.2,-1.6 -1.4,1.2 -1.3,1.6 0.7,3.7 1.9,2 2.4,2.2 3.6,0.9 0.8,-0.8 1.2,-2.2 0.9,-3 z m 402.8,-28.5 40,-27.6 -9,-0.6 -9,-0.5 -6,3.7 c -7.8,4.9 -10.6,5.9 -16.3,5.9 -8.2,0 -7.7,2.5 -8,-38.1 l -0.3,-36.1 8.3,-8.2 c 4.6,-4.5 13.4,-12 19.7,-16.6 10.4,-7.8 11.1,-8.5 8.5,-8.8 -3.1,-0.4 -7.4,-3.7 -7.4,-5.7 0,-0.8 -2.9,-1.4 -8.2,-1.8 -12.8,-0.8 -11.8,0.8 -11.8,-19.3 0,-17.9 -0.7,-22.3 -4.3,-25.2 -2,-1.7 -1.2,-2.2 -30.4,16.7 l -24.3,15.6 3.3,1.1 c 2.9,1 3.2,1.5 3.2,5.2 0,3.8 0.3,4.2 2.4,4.2 2.4,0 2.4,0.1 1.7,7.7 -0.3,4.2 -0.6,11.2 -0.6,15.7 v 8.1 l -19.5,18.4 c -10.8,10.1 -19.4,18.5 -19.2,18.7 0.2,0.2 7,-2.1 15,-5.1 8.1,-3 16.3,-5.5 18.2,-5.5 h 3.5 v 23.1 c 0,21.3 -0.2,23.3 -1.9,25.8 -2,2.7 -2,2.8 0,6 1.7,2.8 1.9,5.1 1.9,23.9 0.1,22.1 0.5,24.3 5.1,26.7 1.2,0.7 3,1 3.8,0.7 0.9,-0.3 19.6,-13 41.6,-28.1 z m -59.9,-51.2 c 2,-1.2 3.4,-2.9 3.4,-4 0,-2.8 -1.1,-2.4 -5.5,2.1 -4.2,4.3 -3.2,5.2 2.1,1.9 z"
       id="path25" />
    <path
       d="m 354.2,582.7 c -2,-2.1 -2.2,-3.4 -2.2,-12 0,-8.5 0.3,-10.4 2.5,-14.8 4.3,-8.3 10.1,-17.6 21.7,-34.1 10.6,-15.1 11.2,-15.8 14.4,-15.8 3.1,0 3.4,0.3 3.4,3.1 0,6 -9.1,57 -11.1,62.4 -1.1,3.1 -3.8,7.4 -5.8,9.6 l -3.8,3.9 h -8.5 c -7.5,0 -8.7,-0.2 -10.6,-2.3 z m 18.8,-7.5 c 3.6,-4.4 9.4,-21.2 7.3,-21.2 -0.9,0 -9.9,14 -12.7,19.7 -0.9,1.8 -1.6,3.9 -1.6,4.7 0,2.4 3.8,0.7 7,-3.2 z"
       id="path27" />
    <path
       d="m 375.2,425.3 c -4.2,-1.7 -5.9,-18.9 -2.5,-26 4.2,-8.9 18.3,-18.7 28.6,-19.9 8.1,-1 8.7,-0.2 8.7,11.2 0,11.9 -2.3,18.3 -9.1,25.8 -6.3,6.9 -11.8,9.6 -19,9.5 -3,0 -6,-0.3 -6.7,-0.6 z m 16.1,-9.3 c 4.3,-3.2 9.6,-9.8 9.7,-11.8 0,-2.8 -12.1,7.2 -14.6,12.1 -1.9,3.6 -0.1,3.6 4.9,-0.3 z"
       id="path29" />
    <path
       d="m 151.4,333.5 c -0.8,-1.9 -1.7,-6.2 -2.1,-9.5 -0.6,-5.8 -0.5,-6 1.7,-6 9.3,0 25.4,-17.4 31,-33.3 1.8,-5.1 1.8,-6.1 0.4,-18.3 -0.8,-7.1 -1.9,-17.5 -2.5,-23.2 -1.1,-9.8 -0.8,-13.2 1,-10.4 0.6,1 4.2,0.5 16.8,-2.2 24.9,-5.5 52.6,-12.6 55.1,-14.2 2.1,-1.4 2.2,-1.3 2.2,2 0,1.8 -0.6,3.8 -1.3,4.4 -1.2,1 -35.1,9.6 -56.5,14.3 l -10.4,2.3 0.6,3.9 c 2.2,13.8 5.7,49 5.2,53.1 -0.7,6 -5.2,15.9 -11.1,24.1 -7.8,10.9 -15.9,16.5 -24,16.5 -4.3,0 -4.7,-0.2 -6.1,-3.5 z"
       id="path31" />
    <path
       d="m 13.5,326 c 1.8,-2 1.7,-2 -1.6,-2 l -3.4,-0.1 5,-4.6 c 10.8,-9.9 25.5,-17.7 35.9,-18.9 5.3,-0.6 5.6,-0.5 5.6,1.5 0,1.3 0.6,2.1 1.6,2.1 1.4,0 1.6,0.9 1.2,6.5 -0.6,7.4 -3,12 -7.8,15.2 -3.1,2.2 -4.3,2.3 -20.8,2.3 -17.4,0 -17.5,0 -15.7,-2 z m 30.3,-10.5 c 3.4,-2.8 5.9,-8.5 3.8,-8.5 -1.6,0 -16.5,7.3 -19.1,9.4 -1.9,1.4 -1.5,1.5 5.2,1.6 6.2,0 7.5,-0.3 10.1,-2.5 z"
       id="path33" />
    <path
       d="m 361.5,322.5 c -7.2,-2.6 -10.2,-9.2 -7,-15.8 2,-4.3 7.3,-6.7 14.8,-6.7 11.4,0 16.7,3.7 16.7,11.6 0,9.8 -12.2,15.2 -24.5,10.9 z m 16.1,-7.6 c 3.1,-2.9 3,-4.3 -0.2,-6.8 -4.6,-3.6 -15.6,-2.3 -16.9,2 -0.8,2.4 1.4,5.7 4.5,6.9 3.8,1.4 9.9,0.5 12.6,-2.1 z"
       id="path35" />
    <path
       d="m 313.4,254.9 c -1.5,-1.7 -1.9,-3.6 -1.9,-9.3 v -7.1 l 4.2,-0.3 c 5,-0.4 7.8,-3.4 11.2,-12 1.9,-4.7 7.1,-27.5 9,-38.7 0.5,-3.1 1.1,-4.1 2.8,-4.3 1.7,-0.3 2.1,0 1.7,1.2 -0.8,2 -0.7,2 8.3,-0.6 4.1,-1.2 7.7,-2.8 8,-3.5 1.1,-2.8 2.3,-1.1 2.3,3.1 0,3.9 -0.3,4.5 -2.2,4.8 -1.6,0.2 -2.4,1.1 -2.6,2.9 -0.2,1.5 -1.4,3.2 -3.1,4.2 -4.1,2.4 -6.6,8.5 -9,22.4 -3.9,21.8 -7.4,32.6 -12.1,37.3 -3,3 -13.9,2.9 -16.6,-0.1 z"
       id="path37" />
    <path
       d="m 268.3,238.3 c -0.8,-0.3 -1.3,-2.4 -1.3,-5.4 0,-3.9 0.9,-6.8 4.1,-13 2.3,-4.4 4.9,-8.4 5.9,-8.9 1.2,-0.6 2,-2.4 2.2,-4.8 0.2,-3 0.7,-3.8 2.5,-4 1.7,-0.3 2.1,0 1.7,1.2 -0.3,0.9 -0.3,1.6 0.2,1.6 2.4,0 41.3,-14.4 40.8,-15.1 -0.3,-0.5 0.4,-0.9 1.5,-0.9 1.8,0 2.1,0.6 2.1,3.9 v 3.9 l -6.7,2.3 c -3.8,1.2 -11.9,4 -18,6.1 -10.5,3.7 -11.3,4.2 -11.3,6.7 0,1.4 -2.7,8.1 -6,14.9 l -5.9,12.2 -5.3,-0.1 c -2.9,0 -5.9,-0.3 -6.5,-0.6 z"
       id="path39" />
    <path
       d="m 367.9,209.8 c -1.6,-2.9 -0.5,-20.4 1.5,-25.2 0.8,-2 2.2,-3.6 3,-3.6 1,0 1.6,-1.2 1.8,-3.7 0.2,-3.1 0.7,-3.9 2.5,-4.1 1.8,-0.3 2.2,0 1.6,1.4 -0.6,1.5 -0.2,1.6 3.3,1 2.1,-0.3 7.4,-0.9 11.7,-1.3 4.7,-0.3 8.4,-1.2 9.3,-2 1.2,-1.2 1.4,-0.9 1.4,2.5 0,3.6 -0.3,4 -3.1,4.6 -1.7,0.3 -4.6,0.6 -6.3,0.6 -5.6,0 -7.6,1 -7.6,3.7 0,1.4 -2.2,6.7 -4.9,11.7 -2.7,5 -5.2,10.8 -5.5,12.9 -0.6,3.4 -0.9,3.7 -4.1,3.7 -2.5,0 -3.7,-0.6 -4.6,-2.2 z"
       id="path41" />
    <path
       d="m 411,192.1 c -2,-3.8 -0.7,-21.1 1.6,-21.1 0.8,0 1.4,0.6 1.4,1.3 0,0.8 1.9,1.9 4.1,2.6 5.5,1.7 8.9,5.2 8.9,9.2 0,2.6 0.3,3.1 2,2.6 1.6,-0.4 2,0 2,1.7 0,3.2 -1.9,4.6 -6.2,4.6 -3.6,0 -3.8,-0.2 -3.9,-3.2 l -0.1,-3.3 -1,3.8 c -0.9,3.3 -1.3,3.7 -4.4,3.7 -2.3,0 -3.7,-0.6 -4.4,-1.9 z"
       id="path43" />
  </g>
  <g
     fill="#db4419"
     id="g185"
     transform="translate(-2.5,-0.79274255)">
    <path
       fill="url(#lg0)"
       d="m 151.5,683.3 c -1.2,-4.8 -11,-24.7 -16,-32.4 -2.6,-4 -7.3,-10 -10.4,-13.4 l -5.8,-6 -1.2,-15.5 c -2,-26.2 -3.1,-45.1 -3.1,-54.8 0,-7.8 0.4,-10 2.4,-14 3.7,-7.5 6.9,-18 6.3,-21.5 -0.4,-3.3 2.1,-12.5 5.3,-18.7 4.1,-8.1 5.2,-14.6 4.1,-24.3 -0.5,-5.1 -1.3,-12.8 -1.7,-17.2 -0.8,-10.3 -3.7,-19.7 -7.4,-23.9 -3.6,-4 -9.1,-5.7 -17.5,-5.4 -4.4,0.2 -7.2,-0.3 -10.7,-1.9 -4.3,-1.9 -4.8,-2.5 -4.8,-5.4 v -3.2 l -4.6,0.7 c -3.6,0.5 -5.5,0.1 -9.5,-1.9 -4.4,-2.3 -4.9,-2.9 -4.8,-5.8 0,-3.1 0.4,-3.4 14.1,-10.1 22.8,-11.3 41.9,-25 43.5,-31.4 0.3,-1.3 -0.2,-5.1 -1.1,-8.3 -0.9,-3.2 -1.6,-7.2 -1.6,-8.9 0,-2.7 0.3,-3 3.4,-3 2.8,0 3.5,0.4 4,2.5 0.5,2 1.1,2.4 2.9,2 2.7,-0.6 19.7,-3.5 25,-4.2 2.8,-0.4 3.7,-1 3.7,-2.4 0,-1.5 0.7,-1.9 3.5,-1.9 2.1,0 3.5,0.5 3.5,1.3 0,0.6 1.1,3.5 2.4,6.4 3.3,7 9.5,10.8 18.1,10.8 5.1,0 7.8,-0.8 18,-5.3 34.4,-15.4 37.7,-16.6 45.3,-17 9.1,-0.5 10.5,0.4 9.9,6.7 -0.8,8.8 -13.2,35.1 -21.2,45.4 -6.2,7.9 -11,11 -22.3,14.8 -25.2,8.2 -40.7,16.2 -44.6,22.8 -1.8,3.2 -1.9,4.7 -0.7,45.9 1.4,52.5 1.4,100.1 0.1,114.7 -0.6,6.1 -1.2,13.5 -1.4,16.5 -1.3,19.7 -9.1,53.2 -15.2,65.3 -2.2,4.2 -2.8,4.7 -5.8,4.7 -2.9,0 -3.5,-0.4 -4.1,-2.7 z"
       id="path47"
       style="fill:url(#linearGradient1468)" />
    <path
       d="m 343.8,632.3 c -7.2,-1.9 -12.7,-5.3 -18.1,-11.3 -7.1,-7.9 -9,-13.9 -9.5,-30.2 -0.5,-16.9 1.5,-29.9 6.8,-44.8 8.1,-23 19.5,-41.4 36.4,-58.7 6.7,-7 8.5,-8.3 11.2,-8.3 2.6,0 3.3,0.5 3.8,2.5 0.4,1.4 1,2.5 1.6,2.5 1.9,0 17.3,-16.4 21.3,-22.8 4.4,-6.8 7.1,-12.2 6.2,-12.2 -0.3,0 -2.9,1.3 -5.8,2.9 -2.8,1.6 -8.3,3.7 -12,4.6 -5.8,1.4 -7.8,1.5 -13.5,0.5 -9.3,-1.7 -15.6,-4.7 -20.1,-9.5 -5.6,-6.1 -6.6,-9.9 -6.5,-25.5 0,-12.6 0.2,-14.2 3.3,-23.2 3.9,-11.3 9.8,-22.1 17.7,-32.5 6.6,-8.6 14.4,-15.1 23.4,-19.6 6.3,-3.1 6.7,-3.2 20.1,-3.2 13.4,0 13.6,0 18.5,3 6,3.7 9.1,9 10,16.7 l 0.6,5.7 7.2,0.3 7.1,0.3 0.3,3.2 c 0.4,4.5 -5.8,22.1 -11.2,31.3 -6.7,11.5 -7.5,14.9 -7.7,31.1 -0.2,12.2 0,14.4 1.4,15.4 1,0.7 1.7,2.1 1.7,3.2 0,1.2 -3.6,12.8 -8,25.9 -9.1,27.4 -15.1,50.1 -17.5,65.9 -4.9,32.2 -9.5,49 -17.4,62.7 -7,12.3 -17,21.3 -26.6,24 -5.8,1.6 -18.5,1.7 -24.7,0.1 z m 25.7,-50.7 c 4.4,-1.9 8.8,-8.1 11.5,-16 1.8,-5.6 11.2,-56.6 10.5,-57.4 -0.5,-0.5 -19.1,26 -25.8,36.6 -9.3,14.7 -12,21.3 -11.5,27.3 0.9,9 7.2,12.9 15.3,9.5 z m 26,-165.8 c 7.8,-7.1 11.8,-15.6 11.6,-24.5 -0.1,-3.6 -0.6,-7.2 -1.2,-7.9 -3.3,-4 -21.1,5.7 -27.8,15.1 -1.7,2.4 -3.6,6.3 -4.2,8.8 -1.1,3.8 -1,5.1 0.5,9.1 3.5,9.1 10.8,8.9 21.1,-0.6 z"
       id="path49" />
    <path
       d="m 286.5,517.3 c -2.6,-0.7 -7.3,-5.1 -9.1,-8.4 -2.6,-5.2 -3.7,-12.6 -4.5,-32.4 -0.5,-11 -1,-23.1 -1.3,-27 -0.4,-7.9 1.3,-13.9 5.9,-19.9 2.7,-3.5 2.7,-3.8 2.4,-14.8 l -0.4,-11.3 20,-6.7 c 11,-3.6 21.5,-6.7 23.3,-6.7 3.1,-0.1 3.2,0.1 3.2,3.7 0,4 -4.5,39.3 -8.1,63.1 -2.4,16.1 -2.1,17.8 3.3,21.1 4.5,2.7 5.6,2.6 16.5,-2 5.3,-2.2 10.9,-4 12.5,-4 2.4,0 2.8,0.4 2.8,2.9 0,5.6 -27.8,29.6 -44.4,38.2 -6.2,3.3 -9.2,4.2 -14,4.5 -3.4,0.1 -7,0 -8.1,-0.3 z"
       id="path51" />
    <path
       fill="url(#lg0)"
       d="m 466.3,418.8 c 0.3,-4 1.3,-13.1 2.1,-20.3 2.1,-17.6 3.8,-51.6 3.5,-67.8 -0.1,-7.2 0.1,-16.3 0.6,-20.1 l 0.8,-6.8 4.8,0.5 c 9,1.1 34.9,-4.5 34.9,-7.5 0,-0.5 1.6,-0.8 3.5,-0.8 3.2,0 3.5,0.2 3.5,3 0,1.6 -0.8,5.1 -1.9,7.7 -4.4,11.4 -7.1,32 -7.1,54.4 0,10.3 0.4,14.9 1.5,17.7 1.8,4.3 8,11 11.3,12.3 1.2,0.5 2.2,1.2 2.2,1.7 0,0.5 -12,8.2 -26.7,17 -20.6,12.5 -27.6,16.2 -30.2,16.2 h -3.4 z"
       id="path53"
       style="fill:url(#linearGradient1470)" />
    <path
       d="m 296.9,376.6 c -5.9,-2.1 -10,-4.8 -13.3,-8.9 -3,-3.7 -3.1,-4.3 -3.1,-13.2 0,-8.9 0.1,-9.5 3.1,-13.2 4.9,-6.2 10,-8.1 21.9,-8.1 7.6,0.1 10.8,0.5 13.5,1.8 7.3,3.7 11,10.4 11,19.7 -0.1,9.9 -4,15.8 -13.9,20.8 -4.4,2.2 -14.5,2.8 -19.2,1.1 z"
       id="path55" />
    <path
       fill="url(#lg0)"
       d="m 541.3,377 c -2.2,-0.9 -2.2,-1.4 -2.7,-20.7 -0.7,-32.5 -1.2,-39.2 -3.6,-46.3 -2.9,-8.8 -4.4,-10.2 -9.7,-9.8 -3.9,0.3 -4.3,0.1 -4.3,-1.9 0,-1.9 0.6,-2.3 3,-2.3 2.3,0 3,-0.4 3,-2 0,-1.6 0.7,-2 3.5,-2 1.9,0 3.5,0.3 3.5,0.8 0,1.8 5.4,3.1 9.4,2.2 2.3,-0.5 8.5,-1.7 14,-2.6 7.9,-1.4 10,-2 10.3,-3.5 0.4,-1.4 1.5,-1.9 4,-1.9 h 3.5 l -0.7,24.3 c -0.4,13.4 -0.4,25.3 -0.1,26.5 0.8,2.3 4.3,3.7 11.9,4.8 3,0.4 4.7,1.1 4.7,2 0,0.8 0.7,1.4 1.5,1.4 0.8,0 1.5,0.3 1.5,0.8 0,0.4 -8,5.7 -17.7,11.7 -9.7,6.1 -20.6,12.9 -24.1,15.3 -6.9,4.4 -7.4,4.6 -10.9,3.2 z"
       id="path57"
       style="fill:url(#linearGradient1472)" />
    <path
       d="m 119.9,345.3 c -4.2,-9.5 -4.1,-9.3 -1.4,-9.3 2.2,0 2.5,0.4 2.5,3.5 0,2.4 0.5,3.5 1.5,3.5 1,0 1.5,1.1 1.5,3.5 0,4.9 -1.7,4.4 -4.1,-1.2 z"
       id="path59" />
    <path
       d="m 159,335.2 c 0,-0.5 2.7,-2.5 6,-4.5 l 6,-3.5 v 2.9 c 0,1.6 -0.5,2.9 -1.1,2.9 -0.6,0 -1.7,0.7 -2.5,1.5 -1.6,1.6 -8.4,2.1 -8.4,0.7 z"
       id="path61" />
    <path
       d="m 151,331.5 c 0,-2.4 0.5,-3.5 1.5,-3.5 0.8,0 1.5,0.7 1.5,1.5 0,0.8 0.9,2.4 2,3.5 l 2,2 h -3.5 c -3.3,0 -3.5,-0.2 -3.5,-3.5 z"
       id="path63" />
    <path
       d="m 187,329.5 c 0,-3.4 0.1,-3.5 3.7,-3.5 h 3.7 l -3.4,3.5 c -1.9,1.9 -3.5,3.5 -3.7,3.5 -0.2,0 -0.3,-1.6 -0.3,-3.5 z"
       id="path65" />
    <path
       fill="url(#lg0)"
       d="m 616,327 c -5.8,-1.4 -6,-2.2 -6,-25.3 v -20.9 l 6.3,0.6 c 6,0.7 15.4,-0.5 30,-3.6 4.3,-0.9 4.7,-1.2 4.7,-3.9 0,-2.6 0.3,-2.9 3.4,-2.9 2.6,0 3.6,0.5 4.1,2 0.8,2.5 3.5,2.5 8.3,0.1 2.4,-1.2 6.8,-2 12.5,-2.4 5.8,-0.3 9.6,-1.1 11.3,-2.2 1.4,-0.9 5,-1.9 8,-2.2 5,-0.5 5.4,-0.4 5.4,1.5 0,1.1 0.5,2.2 1.2,2.4 1.5,0.5 1.1,0.8 -43,31.2 -20.5,14.1 -38.5,25.9 -40,26.1 -1.5,0.2 -4.3,0 -6.2,-0.5 z"
       id="path67"
       style="fill:url(#linearGradient1474)" />
    <path
       d="m 178.3,317.8 c 2.5,-3.5 5.4,-8.2 6.6,-10.5 2.5,-5 4.1,-5.5 4.1,-1.4 0,3.9 -0.9,6.1 -2.6,6.1 -0.8,0 -1.4,1 -1.4,2.5 0,1.4 -0.4,2.5 -1,2.5 -0.5,0 -1,0.7 -1,1.5 0,0.8 -0.7,1.5 -1.5,1.5 -0.8,0 -1.5,0.9 -1.5,2 0,1.6 -0.7,2 -3.1,2 h -3 z"
       id="path69" />
    <path
       d="M 105.2,317.5 103,314 h 3 c 2.8,0 3,0.3 3,3.5 0,4.4 -0.9,4.4 -3.8,0 z"
       id="path71" />
    <path
       d="m 362,320 c -2.7,-1.1 -6,-5.7 -6,-8.4 0,-2.8 2.2,-6.4 4.7,-7.5 1.3,-0.6 5.7,-1.1 9.8,-1.1 6.3,0 7.8,0.3 10.1,2.4 3.8,3.2 3.9,8.6 0.1,12.3 -2.3,2.4 -3.6,2.8 -9.4,3 -3.8,0.1 -7.9,-0.2 -9.3,-0.7 z"
       id="path73" />
    <path
       d="m 291,304 c 0,-2.8 0.3,-3 3.5,-3 4.4,0 4.4,0.9 0,3.8 L 291,307 Z"
       id="path75" />
    <path
       d="m 221,304 c 0,-1.6 0.7,-2 3.5,-2 4,0 4.9,2.4 1.3,3.4 -3.8,1 -4.8,0.7 -4.8,-1.4 z"
       id="path77" />
    <path
       d="m 189,297.8 c 0,-3 1.3,-5.8 2.6,-5.8 0.9,0 1.4,1.2 1.4,3.5 0,2.8 -0.4,3.5 -2,3.5 -1.1,0 -2,-0.6 -2,-1.2 z"
       id="path79" />
    <path
       d="m 309,292 c 0,-2.8 0.3,-3 3.5,-3 4.4,0 4.4,0.9 0,3.8 L 309,295 Z"
       id="path81" />
    <path
       d="m 319,285.1 c 0,-2.9 0.3,-3.1 3.6,-3.1 3.9,0 3.8,0.9 -0.6,4 l -3,2.1 z"
       id="path83" />
    <path
       d="m 471,279.5 c 0,-4.8 0.2,-5.5 2,-5.5 1.8,0 2,0.7 2,5.5 0,4.8 -0.2,5.5 -2,5.5 -1.8,0 -2,-0.7 -2,-5.5 z"
       id="path85" />
    <path
       d="m 330,277.1 c 0,-2.4 0.4,-3.1 2,-3.1 1.1,0 2,-0.7 2,-1.5 0,-1.1 1.1,-1.5 3.6,-1.5 4.3,0 3.8,0.9 -3.1,5.9 l -4.5,3.2 z"
       id="path87" />
    <path
       d="m 51.8,277.1 c -6.5,-2 -6.6,-4.6 -0.3,-3.8 5.3,0.5 5.8,0.9 5.3,3.4 -0.3,1.8 -0.5,1.8 -5,0.4 z"
       id="path89" />
    <path
       d="m 248,274.1 v -2.8 l 3.5,1.6 c 4.5,2.1 4.5,4.1 0,4.1 -3.2,0 -3.5,-0.3 -3.5,-2.9 z"
       id="path91" />
    <path
       d="m 564,272.1 c 0,-4.5 1,-6.1 3.6,-6.1 2.7,0 2.8,0.3 1.3,3.3 -1.2,2.2 -1.2,2.2 1,0.3 2.1,-1.9 2.1,-1.9 2.1,0.2 0,3.9 -1.1,5.2 -4.6,5.2 -3.1,0 -3.4,-0.3 -3.4,-2.9 z"
       id="path93" />
    <path
       d="m 269,267.5 c 0,-2.2 0.4,-2.5 3.5,-2.5 4.3,0 4.5,1.4 0.5,3.5 -3.8,2 -4,1.9 -4,-1 z"
       id="path95" />
    <path
       d="m 343,267.1 c 0,-2.6 0.4,-3.1 2.5,-3.1 1.8,0 2.5,-0.5 2.5,-2 0,-1.7 0.7,-2 3.8,-2 l 3.7,0.1 -3.5,3 c -1.9,1.7 -4.7,3.9 -6.2,5 l -2.8,2 z"
       id="path97" />
    <path
       d="m 574.5,266 c 1,-1.1 2,-2 2.2,-2 0.1,0 0.3,0.9 0.3,2 0,1.4 -0.7,2 -2.2,2 -2,0 -2.1,-0.1 -0.3,-2 z"
       id="path99" />
    <path
       d="m 183,262.5 c 0,-1.9 0.5,-3.5 1,-3.5 0.6,0 1,0.9 1,1.9 0,1.1 0.3,2.6 0.6,3.5 0.4,1.1 0.1,1.6 -1,1.6 -1.2,0 -1.6,-1 -1.6,-3.5 z"
       id="path101" />
    <path
       d="m 186.6,263.8 c -1,-3.8 -0.7,-4.8 1.4,-4.8 1.6,0 2,0.7 2,3.5 0,4 -2.4,4.9 -3.4,1.3 z"
       id="path103" />
    <path
       d="m 243,261.5 c 0,-3.3 0.2,-3.5 3.5,-3.5 2.5,0 3.5,0.4 3.5,1.6 0,1 -0.6,1.4 -1.5,1 -1,-0.3 -1.7,0.3 -2.1,1.9 -1,3.9 -3.4,3.1 -3.4,-1 z"
       id="path105" />
    <path
       d="m 282,262.5 c 0,-2.4 2.2,-3.5 7.3,-3.5 4.5,0 3.1,2.5 -2.3,4.2 l -5,1.6 z"
       id="path107" />
    <path
       d="m 573.8,258.2 c 0.5,-4.8 2,-6.5 5.8,-6 l 2.7,0.3 -4.4,4.9 -4.5,4.9 z"
       id="path109" />
    <path
       d="m 300,257 c 0,-1.6 0.7,-2 3.5,-2 4,0 4.9,2.4 1.3,3.4 -3.8,1 -4.8,0.7 -4.8,-1.4 z"
       id="path111" />
    <path
       d="m 360,253.1 c 0,-2.9 0.3,-3.1 3.6,-3.1 3.9,0 3.8,0.9 -0.6,4 l -3,2.1 z"
       id="path113" />
    <path
       d="m 327.5,251.4 c 1.4,-1.5 2.5,-3.1 2.5,-3.5 0,-0.5 0.5,-0.9 1,-0.9 0.6,0 1,1.6 1,3.5 0,3.3 -0.2,3.5 -3.5,3.5 h -3.4 z"
       id="path115" />
    <path
       d="m 181,246.5 c 0,-1.9 0.5,-3.5 1,-3.5 0.6,0 1,0.6 1,1.3 0,0.6 0.3,2.2 0.6,3.5 0.5,1.6 0.2,2.2 -1,2.2 -1.2,0 -1.6,-0.9 -1.6,-3.5 z"
       id="path117" />
    <path
       d="m 184.6,247.8 c -1,-3.8 -0.7,-4.8 1.4,-4.8 1.6,0 2,0.7 2,3.5 0,4 -2.4,4.9 -3.4,1.3 z"
       id="path119" />
    <path
       d="m 142,244.5 c 0,-0.8 0.7,-1.5 1.6,-1.5 0.9,0 1.8,-0.9 2.1,-2 0.9,-3.5 3.3,-2.4 3.3,1.5 0,3.3 -0.2,3.5 -3.5,3.5 -2.4,0 -3.5,-0.5 -3.5,-1.5 z"
       id="path121" />
    <path
       d="m 311,241.5 c 0,-3.3 0.2,-3.5 3.5,-3.5 2.8,0 3.5,0.4 3.5,2 0,1.3 -0.5,1.8 -1.6,1.3 -1,-0.4 -1.7,0.1 -2.1,1.6 -0.9,3.5 -3.3,2.5 -3.3,-1.4 z"
       id="path123" />
    <path
       d="m 367,243 c 0,-0.8 5.1,-4 6.5,-4 0.3,0 0.5,1.1 0.5,2.5 0,2.2 -0.4,2.5 -3.5,2.5 -1.9,0 -3.5,-0.4 -3.5,-1 z"
       id="path125" />
    <path
       d="m 277,238.1 c 0,-3.5 1.2,-5.1 3.6,-5.1 1.3,0 2.4,-0.4 2.4,-1 0,-0.5 1.6,-1 3.5,-1 3.3,0 3.5,0.2 3.5,3.5 0,3.2 -0.2,3.5 -3,3.5 -1.6,0 -3,0.5 -3,1 0,0.6 -1.6,1 -3.5,1 -2.8,0 -3.5,-0.4 -3.5,-1.9 z"
       id="path127" />
    <path
       d="m 334,238.8 c 0,-3 1.3,-5.8 2.6,-5.8 0.9,0 1.4,1.2 1.4,3.5 0,2.8 -0.4,3.5 -2,3.5 -1.1,0 -2,-0.6 -2,-1.2 z"
       id="path129" />
    <path
       d="m 379.3,236.2 c -2.7,-0.4 -2.7,-0.5 -0.7,-4.3 1,-2 2,-2.9 3,-2.5 0.9,0.3 2.9,0.6 4.6,0.6 2.6,0 2.9,0.2 1.8,1.5 -2.4,2.9 -6.5,5.1 -8.7,4.7 z"
       id="path131" />
    <path
       d="m 568,233.4 c 0,-2.1 0.5,-2.4 3.5,-2.4 2.2,0 3.5,0.5 3.5,1.3 0,0.8 -1.6,1.8 -3.5,2.4 -3.3,1.1 -3.5,1 -3.5,-1.3 z"
       id="path133" />
    <path
       d="m 336,230.8 c 0,-3 1.3,-5.8 2.6,-5.8 0.9,0 1.4,1.2 1.4,3.5 0,2.8 -0.4,3.5 -2,3.5 -1.1,0 -2,-0.6 -2,-1.2 z"
       id="path135" />
    <path
       d="m 587,226.5 c 0,-2.2 0.4,-2.5 3.6,-2.5 4.4,0 4.2,1.8 -0.4,3.7 -3.1,1.3 -3.2,1.2 -3.2,-1.2 z"
       id="path137" />
    <path
       d="m 595,223.5 c 0,-2.2 0.4,-2.5 3.6,-2.5 4.4,0 4.2,1.8 -0.4,3.7 -3.1,1.3 -3.2,1.2 -3.2,-1.2 z"
       id="path139" />
    <path
       d="m 381,223 c 0,-1.3 -0.5,-1.8 -1.5,-1.4 -1,0.4 -1.5,0 -1.5,-1.5 0,-1.7 0.6,-2.1 3.5,-2.1 3.3,0 3.5,0.2 3.5,3.5 0,2.8 -0.4,3.5 -2,3.5 -1.3,0 -2,-0.7 -2,-2 z"
       id="path141" />
    <path
       d="m 247,222.5 c 0,-0.8 0.7,-1.5 1.5,-1.5 0.8,0 2,-0.9 2.7,-2 1.9,-2.9 2.8,-2.4 2.8,1.5 0,3.3 -0.2,3.5 -3.5,3.5 -2.4,0 -3.5,-0.5 -3.5,-1.5 z"
       id="path143" />
    <path
       d="m 395,220.7 c 0,-4 1.2,-5.1 5,-4.5 2,0.3 2,0.5 -1.4,4.3 l -3.5,4 z"
       id="path145" />
    <path
       d="m 343,217 c 0,-0.5 -0.9,-1 -2,-1 -2.1,0 -2.4,-1 -1.4,-4.7 0.6,-2.2 3.4,-3.3 3.4,-1.3 0,0.6 1.6,1 3.5,1 3.3,0 3.5,0.2 3.5,3.5 0,3.3 -0.2,3.5 -3.5,3.5 -1.9,0 -3.5,-0.4 -3.5,-1 z"
       id="path147" />
    <path
       d="m 288,213 c 1.2,-2.3 1.1,-2.4 -2.4,-1 -2.4,0.9 -2.6,0.7 -2.6,-1.5 0,-2.2 0.4,-2.5 3.5,-2.5 3.3,0 3.5,0.2 3.5,3.5 0,2.5 -0.4,3.5 -1.5,3.5 -1.3,0 -1.4,-0.4 -0.5,-2 z"
       id="path149" />
    <path
       d="m 373.4,206.8 c 1.1,-8.4 4.6,-12.4 4.6,-5.3 0,1.9 0.5,3.5 1,3.5 0.6,0 1,1.6 1,3.5 0,3.4 -0.1,3.5 -3.6,3.5 h -3.7 z"
       id="path151" />
    <path
       d="m 481,208.4 v -3.6 l 3.5,3.3 c 1.9,1.9 3.5,3.5 3.5,3.6 0,0.2 -1.6,0.3 -3.5,0.3 -3.3,0 -3.5,-0.2 -3.5,-3.6 z"
       id="path153" />
    <path
       d="m 317,206.5 c 0,-1.9 0.5,-3.5 1,-3.5 0.6,0 1,-1.1 1,-2.5 0,-2.2 0.4,-2.5 3.5,-2.5 3.3,0 3.5,0.2 3.5,3.5 0,1.9 -0.4,3.5 -1,3.5 -0.5,0 -1,1.1 -1,2.5 0,2.2 -0.4,2.5 -3.5,2.5 -3.3,0 -3.5,-0.2 -3.5,-3.5 z"
       id="path155" />
    <path
       d="m 514.9,206.5 c 2.1,-4.5 4.1,-4.5 4.1,0 0,3.2 -0.3,3.5 -2.9,3.5 h -2.8 z"
       id="path157" />
    <path
       d="m 347,204.5 c 0,-3.3 0.2,-3.5 3.5,-3.5 3.3,0 3.5,0.2 3.5,3.5 0,3.3 -0.2,3.5 -3.5,3.5 -3.3,0 -3.5,-0.2 -3.5,-3.5 z"
       id="path159" />
    <path
       d="m 469.6,204.4 c -1.2,-3.2 -0.6,-5.4 1.4,-5.4 1.6,0 2,0.7 2,3.5 0,3.7 -2.2,4.9 -3.4,1.9 z"
       id="path161" />
    <path
       d="m 377,196.4 c 0,-1.2 3.4,-6.4 4.2,-6.4 0.4,0 0.8,1.6 0.8,3.5 0,3.1 -0.3,3.5 -2.5,3.5 -1.4,0 -2.5,-0.3 -2.5,-0.6 z"
       id="path163" />
    <path
       d="m 347,193 2.5,-2 -3.2,0.6 c -2.9,0.6 -3.3,0.4 -3.3,-1.5 0,-1.7 0.6,-2.1 3.5,-2.1 3.3,0 3.5,0.2 3.5,3.5 0,3.2 -0.3,3.5 -2.7,3.5 h -2.8 z"
       id="path165" />
    <path
       d="m 668,191.1 c 0,-2.8 0.3,-3.1 3,-3.1 2.5,0 3,-0.4 3,-2.5 0,-2.2 0.4,-2.5 3.8,-2.5 l 3.7,0.1 -4,3.5 c -2.2,1.9 -5.2,4.4 -6.7,5.5 l -2.8,2 z"
       id="path167" />
    <path
       d="m 511,189.5 c 0,-3.3 0.2,-3.5 3.5,-3.5 3.3,0 3.5,0.2 3.5,3.3 0,3.2 -0.2,3.4 -3.5,3.5 -3.4,0.1 -3.5,0 -3.5,-3.3 z"
       id="path169" />
    <path
       d="m 383.5,184.1 c 0.5,-1.5 0.1,-1.8 -2,-1.3 -2,0.3 -2.5,0 -2.5,-1.7 0,-1.7 0.6,-2.1 3.5,-2.1 3.3,0 3.5,0.2 3.5,3.5 0,2.5 -0.4,3.5 -1.6,3.5 -1,0 -1.3,-0.6 -0.9,-1.9 z"
       id="path171" />
    <path
       d="m 417.7,183.4 c 0.4,-1 -0.1,-1.7 -1.6,-2.1 -3.5,-0.9 -2.5,-3.3 1.4,-3.3 3.3,0 3.5,0.2 3.5,3.5 0,2.8 -0.4,3.5 -2,3.5 -1.3,0 -1.8,-0.5 -1.3,-1.6 z"
       id="path173" />
    <path
       d="m 505,181.5 c 0,-3.3 0.2,-3.5 3.5,-3.5 3.3,0 3.5,0.2 3.5,3.5 0,3.3 -0.2,3.5 -3.5,3.5 -3.3,0 -3.5,-0.2 -3.5,-3.5 z"
       id="path175" />
    <path
       d="m 690,174.1 c 0,-2.9 0.3,-3.1 3.6,-3.1 3.9,0 3.8,0.9 -0.6,4 l -3,2.1 z"
       id="path177" />
    <path
       d="m 666.3,161.3 c -1.9,-0.4 -2.3,-1.1 -2.3,-3.9 0,-1.9 0.5,-3.4 1,-3.4 0.6,0 1,0.6 1,1.4 0,1.4 0.8,1.8 6.3,3 3.9,0.9 3.6,3.6 -0.5,3.5 -1.8,-0.1 -4.3,-0.4 -5.5,-0.6 z"
       id="path179" />
    <path
       d="m 679,160.6 c 0,-1.5 4.5,-3 6,-2.1 2.4,1.5 0.9,3.5 -2.5,3.5 -2.3,0 -3.5,-0.5 -3.5,-1.4 z"
       id="path181" />
    <path
       d="m 602.8,153.1 c -6.5,-2 -6.6,-4.6 -0.3,-3.8 5.3,0.5 5.8,0.9 5.3,3.4 -0.3,1.8 -0.5,1.8 -5,0.4 z"
       id="path183" />
  </g>
  <g
     fill="#2967c2"
     id="g553"
     transform="translate(-2.5,-0.79274255)">
    <path
       d="m 151.6,683.2 c -0.2,-0.4 -1.4,-3.2 -2.5,-6.1 l -2.1,-5.2 2.2,0.3 c 1.5,0.2 2.4,1.1 2.6,2.6 0.2,1.2 0.8,2.2 1.3,2.2 0.5,0 0.9,1.6 0.9,3.5 0,3.2 -1.2,4.6 -2.4,2.7 z"
       id="path187" />
    <path
       d="m 162,672.4 c 0,-5.1 2.2,-10.4 4.3,-10.4 1.6,0 1.9,0.5 1.4,2.9 -1.6,7.9 -5.7,13.3 -5.7,7.5 z"
       id="path189" />
    <path
       d="m 136.7,652.8 c -2.1,-3.5 -5,-7.8 -6.4,-9.6 l -2.7,-3.4 3,0.4 c 2.4,0.2 2.9,0.8 3.2,3.5 0.2,2.4 0.9,3.3 2.5,3.5 1.2,0.2 2.3,1.2 2.6,2.3 0.2,1.1 0.9,2.4 1.7,2.8 1.5,0.8 2,6.7 0.6,6.7 -0.4,0 -2.5,-2.8 -4.5,-6.2 z"
       id="path191" />
    <path
       d="m 168,652.3 c 0,-1 1,-7.5 2.2,-14.5 1.9,-10.7 2.6,-12.8 4.1,-12.8 2.1,0 2.1,-0.3 0.2,10.2 -2.6,15.3 -3.6,18.8 -5.1,18.8 -0.8,0 -1.4,-0.8 -1.4,-1.7 z"
       id="path193" />
    <path
       d="m 122,634 -3.5,-3 h 3.3 c 3.3,0 4.7,1.5 4,4.4 -0.2,1.3 -1,1 -3.8,-1.4 z"
       id="path195" />
    <path
       d="m 118.6,627.8 c -1.1,-4.2 -0.7,-5.8 1.4,-5.8 1.7,0 2,0.7 2,4 0,4.5 -2.3,5.7 -3.4,1.8 z"
       id="path197" />
    <path
       d="m 381,622.8 c 0,-2.8 1.7,-4.8 4.1,-4.8 1.2,0 1.9,-0.9 2.1,-2.7 0.2,-2 0.9,-2.9 2.6,-3.1 1.2,-0.2 2.2,0.1 2.2,0.6 0,1.3 -6.6,9.3 -9.1,11 -1.7,1.2 -1.9,1.1 -1.9,-1 z"
       id="path199" />
    <path
       d="m 117.6,616.8 c -1.1,-4.2 -0.7,-5.8 1.4,-5.8 1.7,0 2,0.7 2,4 0,4.5 -2.3,5.7 -3.4,1.8 z"
       id="path201" />
    <path
       d="m 174,611.5 c 0,-2.8 0.4,-3.5 2,-3.5 2.1,0 2.4,1 1.4,4.8 -1,3.6 -3.4,2.7 -3.4,-1.3 z"
       id="path203" />
    <path
       d="m 319.6,612.1 c -0.3,-0.4 -1,-2 -1.5,-3.5 -1,-2.4 -0.8,-2.6 1.4,-2.6 2.2,0 2.5,0.4 2.5,3.5 0,3.3 -1.2,4.6 -2.4,2.6 z"
       id="path205" />
    <path
       d="m 116.6,604.8 c -1.1,-4.2 -0.7,-5.8 1.4,-5.8 1.7,0 2,0.7 2,4 0,4.5 -2.3,5.7 -3.4,1.8 z"
       id="path207" />
    <path
       d="m 175,600.5 c 0,-2.8 0.4,-3.5 2,-3.5 2.1,0 2.4,1 1.4,4.8 -1,3.6 -3.4,2.7 -3.4,-1.3 z"
       id="path209" />
    <path
       d="m 315.6,599.8 c -1,-3.8 -0.7,-4.8 1.4,-4.8 1.6,0 2,0.7 2,3.5 0,4 -2.4,4.9 -3.4,1.3 z"
       id="path211" />
    <path
       d="m 115.6,590.8 c -1.1,-4.2 -0.7,-5.8 1.4,-5.8 1.7,0 2,0.7 2,4 0,4.5 -2.3,5.7 -3.4,1.8 z"
       id="path213" />
    <path
       d="m 176,589 c 0,-3.3 0.3,-4 2,-4 2.1,0 2.5,1.6 1.4,5.8 -1.1,3.9 -3.4,2.7 -3.4,-1.8 z"
       id="path215" />
    <path
       d="m 400,590.4 c 0,-5.1 2.2,-10.4 4.3,-10.4 1.6,0 1.9,0.5 1.4,2.9 -1.6,7.9 -5.7,13.3 -5.7,7.5 z"
       id="path217" />
    <path
       d="m 360,585 c 0,-0.5 -1,-1 -2.3,-1 -2.9,0 -4.7,-1.8 -4.7,-4.7 0,-1.3 -0.4,-2.3 -1,-2.3 -0.5,0 -1,-2.5 -1,-5.5 0,-4.8 0.2,-5.5 2,-5.5 1.8,0 2,0.7 2,5.8 0,7.8 2.3,10.2 9.8,10.2 4.5,0 5.2,0.3 5.2,2 0,1.7 -0.7,2 -5,2 -2.7,0 -5,-0.4 -5,-1 z"
       id="path219" />
    <path
       d="m 315,578.3 c 0,-3.4 1.2,-6.3 2.6,-6.3 1,0 1.4,1.3 1.4,4 0,3.3 -0.3,4 -2,4 -1.2,0 -2,-0.7 -2,-1.7 z"
       id="path221" />
    <path
       d="m 115.3,573.5 c 0.1,-2.6 0.7,-3.5 2,-3.5 1.3,0 1.7,0.8 1.7,3.5 0,2.8 -0.4,3.5 -2,3.5 -1.7,0 -2,-0.6 -1.7,-3.5 z"
       id="path223" />
    <path
       d="m 406,569 c 0,-1.1 0.6,-5.9 1.4,-10.7 0.8,-4.9 2,-12.7 2.6,-17.5 1.1,-7.8 1.4,-8.8 3.2,-8.8 1.7,0 1.9,0.5 1.4,3.3 -0.3,1.7 -1.3,8.2 -2.1,14.2 -2.3,16.6 -3.4,21.5 -5.1,21.5 -0.8,0 -1.4,-0.9 -1.4,-2 z"
       id="path225" />
    <path
       d="m 114.6,566.8 c -1,-3.8 -0.7,-4.8 1.4,-4.8 1.6,0 2,0.7 2,3.5 0,4 -2.4,4.9 -3.4,1.3 z"
       id="path227" />
    <path
       d="m 317,566.9 c 0,-3.2 2.4,-9.9 3.6,-9.9 1.5,0 1.8,2.8 0.8,7.9 -0.5,2.1 -1.2,3.1 -2.5,3.1 -1.1,0 -1.9,-0.5 -1.9,-1.1 z"
       id="path229" />
    <path
       d="m 114,555.4 c 0,-2.1 1.8,-5.4 3,-5.4 0.6,0 1,1.6 1,3.5 0,2.8 -0.4,3.5 -2,3.5 -1.1,0 -2,-0.7 -2,-1.6 z"
       id="path231" />
    <path
       d="m 358,552 c 0,-1.6 0.6,-3.3 1.4,-3.7 0.8,-0.4 1.5,-1.7 1.7,-2.8 0.4,-1.8 4.9,-3.6 4.9,-2 0,1.3 -6.5,11.5 -7.2,11.5 -0.5,0 -0.8,-1.3 -0.8,-3 z"
       id="path233" />
    <path
       d="m 325.1,539.8 c 2.5,-6.3 2.8,-6.8 4,-6.8 1.2,0 1.2,5.7 -0.1,6.5 -0.5,0.3 -1,1.7 -1,3.1 0,1.9 -0.5,2.4 -2.5,2.4 H 323 Z"
       id="path235" />
    <path
       d="m 387,533.3 c 0,-0.5 0.9,-6 2,-12.3 1.1,-6.3 2,-11.6 2,-11.7 0,-0.2 0.7,-0.3 1.5,-0.3 1.9,0 1.9,1.2 -0.2,14.3 -1.4,9 -2,10.7 -3.5,10.7 -1,0 -1.8,-0.3 -1.8,-0.7 z"
       id="path237" />
    <path
       d="m 123,531.8 c 0,-3 1.3,-5.8 2.6,-5.8 0.9,0 1.4,1.2 1.4,3.5 0,2.8 -0.4,3.5 -2,3.5 -1.1,0 -2,-0.6 -2,-1.2 z"
       id="path239" />
    <path
       d="m 373,529.7 c 0,-3.6 2.7,-7.7 5.1,-7.7 1.3,0 1.9,-0.9 2.1,-3.2 0.3,-2.8 0.7,-3.4 3.2,-3.6 l 2.8,-0.4 -4.8,6.9 c -2.6,3.7 -5.6,7.7 -6.6,8.8 -1.8,1.9 -1.8,1.9 -1.8,-0.8 z"
       id="path241" />
    <path
       d="m 413,527.6 c 0,-5.2 1.2,-8.6 3.1,-8.6 2.2,0 2.3,0.6 0.8,6.6 -1.2,4.7 -3.9,6.1 -3.9,2 z"
       id="path243" />
    <path
       d="m 176,514.5 c 0,-4.9 0.3,-6.5 1.4,-6.5 1.7,0 2.6,3.1 2.6,8.8 0,3.5 -0.3,4.2 -2,4.2 -1.8,0 -2,-0.7 -2,-6.5 z"
       id="path245" />
    <path
       d="m 283.3,515.5 -2.8,-2.4 2.5,-0.1 c 4.4,0 7,1.1 7,3.1 0,2.7 -3.3,2.4 -6.7,-0.6 z"
       id="path247" />
    <path
       d="m 416,514.5 c 0,-2.8 0.4,-3.5 2,-3.5 2.1,0 2.4,1 1.4,4.8 -1,3.6 -3.4,2.7 -3.4,-1.3 z"
       id="path249" />
    <path
       d="m 127.3,510.9 c 1.8,-4.6 3.9,-5 3.5,-0.8 -0.2,2.7 -0.8,3.5 -2.6,3.7 -2.2,0.3 -2.2,0.2 -0.9,-2.9 z"
       id="path251" />
    <path
       d="m 339,513.1 c 0,-1.2 14.1,-20.1 16.5,-22.1 1.5,-1.2 1.6,-1 1.3,2.1 -0.2,2.4 -1,3.7 -2.5,4.4 -1.3,0.5 -2.3,1.8 -2.3,2.8 0,1 -0.7,2 -1.5,2.3 -0.8,0.4 -1.5,1.2 -1.5,2 0,0.7 -0.6,1.7 -1.2,2.1 -0.7,0.4 -2.1,2.2 -3,3.8 -1.6,2.9 -5.8,4.8 -5.8,2.6 z"
       id="path253" />
    <path
       d="m 387,511 c 0,-1.1 0.7,-2 1.5,-2 1.3,0 1.4,0.4 0.5,2 -0.6,1.1 -1.3,2 -1.5,2 -0.3,0 -0.5,-0.9 -0.5,-2 z"
       id="path255" />
    <path
       d="m 274.1,499.3 c -0.6,-2.7 -1.3,-7.4 -1.7,-10.5 -0.6,-5.3 -0.5,-5.8 1.3,-5.8 1.7,0 2.1,0.9 2.6,5.8 0.4,3.1 1,7.8 1.3,10.5 0.5,3.8 0.4,4.7 -0.9,4.7 -1,0 -1.9,-1.6 -2.6,-4.7 z"
       id="path257" />
    <path
       d="m 420,500.5 c 0,-2.8 0.4,-3.5 2,-3.5 2.1,0 2.4,1 1.4,4.8 -1,3.6 -3.4,2.7 -3.4,-1.3 z"
       id="path259" />
    <path
       d="m 133,491.1 c 0,-2.7 -0.3,-6.3 -0.6,-8 -0.6,-2.6 -0.4,-3.1 1.3,-3.1 1.6,0 2.1,0.9 2.7,4.6 1.1,8.7 0.8,11.4 -1.4,11.4 -1.7,0 -2,-0.7 -2,-4.9 z"
       id="path261" />
    <path
       d="m 334,492.8 c 0,-3.2 1.8,-4.8 5.3,-4.8 2.5,0 2.8,0.2 1.7,1.5 -0.7,0.9 -2.6,2.5 -4.2,3.6 l -2.8,2 z"
       id="path263" />
    <path
       d="m 423,491.4 c 0,-5 2.2,-10.4 4.2,-10.4 2.2,0 2.2,0.9 0.1,7.7 -1.8,5.6 -4.3,7.2 -4.3,2.7 z"
       id="path265" />
    <path
       d="m 380.5,480.4 c 3.8,-3.4 4,-3.4 4.3,-1.4 0.5,3 -1.6,5 -5.2,5 l -3.1,-0.1 z"
       id="path267" />
    <path
       d="m 175,477 c 0,-3.6 0.4,-5 1.4,-5 1.5,0 2.6,3 2.6,7.3 0,2 -0.5,2.7 -2,2.7 -1.7,0 -2,-0.7 -2,-5 z"
       id="path269" />
    <path
       d="m 317.3,480.3 c -1.3,-0.8 -2.3,-2.2 -2.3,-2.9 0,-0.8 -0.4,-1.4 -1,-1.4 -0.5,0 -1,-1.8 -1,-4 0,-3.3 0.3,-4 1.9,-4 1.6,0 2,0.8 2.3,3.7 0.2,3 1,4.2 3.8,6.1 1.9,1.3 3.7,2.7 3.8,3.3 0.6,1.5 -5.1,0.9 -7.5,-0.8 z"
       id="path271" />
    <path
       d="m 370,479.1 c 0,-1.7 0.5,-3.3 1.1,-3.6 1.4,-0.9 1.8,-0.4 2.5,3.3 0.6,2.8 0.4,3.2 -1.5,3.2 -1.7,0 -2.1,-0.6 -2.1,-2.9 z"
       id="path273" />
    <path
       d="m 331.2,479.8 c 0.6,-1.6 13.2,-6.9 13.6,-5.7 0.8,2.1 -0.9,3.9 -3.7,3.9 -1.6,0 -3.1,0.6 -3.5,1.5 -0.7,1.8 -7,2.1 -6.4,0.3 z"
       id="path275" />
    <path
       d="m 131.6,474.8 c -1,-3.8 -0.7,-4.8 1.4,-4.8 1.6,0 2,0.7 2,3.5 0,4 -2.4,4.9 -3.4,1.3 z"
       id="path277" />
    <path
       d="m 354,472.9 c 0,-4.3 1.8,-6.2 5.6,-5.7 l 2.6,0.3 -4,4.5 -4.1,4.5 z"
       id="path279" />
    <path
       d="m 388.1,473.3 c 0.7,-1 2.7,-3.4 4.5,-5.4 1.7,-1.9 4.6,-6.1 6.5,-9.2 1.8,-3.1 3.7,-5.7 4.1,-5.7 1.5,0 0.8,6.1 -0.7,6.6 -0.8,0.4 -1.5,1.3 -1.5,2 0,2.5 -3.1,6.4 -5.1,6.4 -1.3,0 -1.9,0.7 -1.9,2.3 0,3 -1.8,4.7 -4.8,4.7 -2.2,0 -2.3,-0.2 -1.1,-1.7 z"
       id="path281" />
    <path
       d="m 431,467.3 c 0,-5.2 1.1,-7.3 3.6,-7.3 h 2.4 l -1.8,4.7 c -2,5.4 -4.2,6.8 -4.2,2.6 z"
       id="path283" />
    <path
       d="m 314.3,461.8 c 0.4,-2.9 1.6,-12.2 2.8,-20.5 2,-13.3 2.5,-15.3 4.1,-15.3 1,0 1.8,0.3 1.8,0.6 0,0.7 -4.8,32.7 -5.5,37.2 -0.4,2 -1.2,3.2 -2.2,3.2 -1.3,0 -1.5,-0.9 -1,-5.2 z"
       id="path285" />
    <path
       d="m 130.6,462.3 c -1.9,-10.1 -1.9,-11.3 0.3,-11.3 1.3,0 2.1,0.6 2.1,1.8 0,0.9 0.3,4.1 0.6,7 0.6,4.3 0.4,5.2 -0.9,5.2 -0.9,0 -1.8,-1.2 -2.1,-2.7 z"
       id="path287" />
    <path
       d="m 373.8,457.2 c -3.4,-0.7 -2,-3.2 1.7,-3.2 2.8,0 3.5,0.4 3.5,1.9 0,1.9 -1,2.2 -5.2,1.3 z"
       id="path289" />
    <path
       d="m 389,453.6 c 0,-2.3 0.4,-2.6 3.5,-2.6 5.3,0 4.6,1.3 -2.7,4.8 -0.5,0.2 -0.8,-0.8 -0.8,-2.2 z"
       id="path291" />
    <path
       d="m 436,454 c 0,-1.3 -0.7,-2 -2,-2 -1.9,0 -2,-0.7 -2,-10.5 0,-10.1 0.1,-10.5 2.1,-10.5 2.1,0 2.1,0.4 1.7,7.1 -0.6,7.6 -0.1,11.2 1.3,10.3 0.5,-0.3 1.5,-0.1 2.3,0.3 1.2,0.7 1.2,1.3 0.1,4.1 -1.6,3.6 -3.5,4.3 -3.5,1.2 z"
       id="path293" />
    <path
       d="m 403.4,450.4 c 0.5,-1.2 0.1,-1.4 -1.5,-0.9 -1.7,0.6 -2,0.3 -1.7,-1.7 0.2,-1.8 1,-2.4 3.6,-2.6 3.1,-0.3 3.2,-0.2 3.2,3.2 0,3 -0.4,3.6 -2.1,3.6 -1.5,0 -1.9,-0.5 -1.5,-1.6 z"
       id="path295" />
    <path
       d="m 174,444 c 0,-4.3 0.3,-5 2,-5 1.7,0 2,0.7 2,5 0,4.3 -0.3,5 -2,5 -1.7,0 -2,-0.7 -2,-5 z"
       id="path297" />
    <path
       d="m 350.9,446.4 c -2.2,-2.5 -4.9,-7.9 -4.9,-9.9 0,-0.8 0.9,-1.5 2,-1.5 1.5,0 2,0.7 2,2.6 0,1.5 0.7,3.2 1.6,3.8 1,0.8 1.4,2.3 1.2,4 -0.3,2.7 -0.4,2.8 -1.9,1 z"
       id="path299" />
    <path
       d="m 271.4,443.8 c 0.3,-1.3 0.5,-2.9 0.5,-3.5 0.1,-0.7 0.8,-1.3 1.6,-1.3 1,0 1.5,1.1 1.5,3.5 0,2.8 -0.4,3.5 -2,3.5 -1.5,0 -1.9,-0.5 -1.6,-2.2 z"
       id="path301" />
    <path
       d="m 123.7,441.2 c -1.6,-1.7 -4.4,-3.3 -6.3,-3.7 -4.7,-0.8 -4.6,-3.5 0.1,-3.5 2.4,0 3.5,0.5 3.5,1.5 0,0.9 0.9,1.5 2.5,1.5 2.8,0 3.8,1.6 3.3,5 -0.3,2.1 -0.4,2 -3.1,-0.8 z"
       id="path303" />
    <path
       d="m 274,435.2 c 0,-0.4 1.1,-2.3 2.5,-4.2 2.3,-3.1 2.5,-4.2 2.5,-14.6 0,-9.4 0.3,-11.5 1.8,-13 1.6,-1.7 1.7,-1.1 2,12.2 0.2,12.5 0.1,14.1 -1.6,15.4 -1,0.8 -2.1,2.3 -2.5,3.3 -0.6,1.7 -4.7,2.5 -4.7,0.9 z"
       id="path305" />
    <path
       d="m 344.6,430.8 c -1,-3.8 -0.7,-4.8 1.4,-4.8 1.6,0 2,0.7 2,3.5 0,4 -2.4,4.9 -3.4,1.3 z"
       id="path307" />
    <path
       d="m 320,423.3 c 0,-1 0.3,-4.2 0.6,-7 0.6,-4.4 1,-5.3 2.6,-5.3 2,0 2.1,1.3 0.2,11.3 -0.6,3 -3.4,3.8 -3.4,1 z"
       id="path309" />
    <path
       d="m 65.8,422.3 c -2.1,-0.2 -3.8,-0.9 -3.8,-1.4 0,-1.3 6.4,-4 6.8,-2.8 0.2,0.5 1.5,0.9 2.8,0.9 1.7,0 2.4,0.6 2.4,2 0,2.1 -0.2,2.1 -8.2,1.3 z"
       id="path311" />
    <path
       d="m 372.7,422.3 c -1.1,-1 -0.8,-6.3 0.3,-6.3 0.5,0 1.6,1.3 2.5,2.9 0.8,1.6 2,3.1 2.7,3.4 0.7,0.3 -0.1,0.6 -1.8,0.6 -1.7,0.1 -3.4,-0.2 -3.7,-0.6 z"
       id="path313" />
    <path
       d="m 433.3,416.3 c 0.3,-2.6 1.2,-5.2 2,-5.8 0.8,-0.6 1.7,-2.2 1.9,-3.5 0.2,-1.7 1,-2.6 2.6,-2.8 2.7,-0.4 2.7,0.2 0.3,4.2 -1.1,1.7 -2.5,5.2 -3.1,7.9 -0.8,3 -1.8,4.7 -2.7,4.7 -1.3,0 -1.5,-0.9 -1,-4.7 z"
       id="path315" />
    <path
       d="m 465,420.4 c 0,-0.6 1.8,-13.3 2.6,-18.1 0.3,-2 1.1,-3.3 1.9,-3.3 1.8,0 1.8,1.7 0.4,13.2 -1,7.5 -1.4,8.8 -3,8.8 -1.1,0 -1.9,-0.3 -1.9,-0.6 z"
       id="path317" />
    <path
       d="m 344.4,416.3 c 1.4,-8.2 1.8,-9.3 3.2,-9.3 1.6,0 1.7,1.5 0.8,8.4 -0.5,3.7 -1.1,4.6 -2.6,4.6 -1.8,0 -1.9,-0.5 -1.4,-3.7 z"
       id="path319" />
    <path
       d="m 71.2,416.9 c 0.2,-0.7 1.9,-1.9 3.7,-2.6 3.1,-1.3 3.2,-1.3 2.9,0.9 -0.2,1.8 -1,2.4 -3.7,2.6 -2.3,0.2 -3.2,0 -2.9,-0.9 z"
       id="path321" />
    <path
       d="m 488.2,413.8 c 0.2,-1.8 1.1,-2.4 3.6,-2.6 4,-0.4 4.1,0.8 0.3,3.1 -3.8,2.2 -4.3,2.2 -3.9,-0.5 z"
       id="path323" />
    <path
       d="m 370,410.5 c 0,-2.8 0.4,-3.5 2,-3.5 1.6,0 2,0.7 2,3.5 0,2.8 -0.4,3.5 -2,3.5 -1.6,0 -2,-0.7 -2,-3.5 z"
       id="path325" />
    <path
       d="m 322,406 c 0,-3.3 0.3,-4 2,-4 2.1,0 2.5,1.6 1.4,5.8 -1.1,3.9 -3.4,2.7 -3.4,-1.8 z"
       id="path327" />
    <path
       d="m 91,407.3 c 0,-0.9 5.2,-4.3 6.5,-4.3 0.3,0 0.5,1 0.3,2.3 -0.2,1.7 -1.1,2.3 -3.5,2.5 -1.8,0.2 -3.3,-0.1 -3.3,-0.5 z"
       id="path329" />
    <path
       d="m 405.3,401.5 c 0.6,-1.9 1.6,-3.5 2.4,-3.5 0.8,0 1.3,1.3 1.3,3.5 0,3 -0.3,3.5 -2.4,3.5 -2.3,0 -2.4,-0.2 -1.3,-3.5 z"
       id="path331" />
    <path
       d="m 373,401 c 0,-1.6 0.6,-3.3 1.3,-3.7 0.8,-0.4 1.6,-1.6 2,-2.5 0.3,-1 1.3,-1.8 2.1,-1.8 0.7,0 1.6,-0.9 1.9,-2 0.4,-1.5 1.4,-2 3.8,-2 h 3.3 l -4.6,4.3 c -2.5,2.4 -5.3,5.8 -6.4,7.5 -2.3,4 -3.4,4.1 -3.4,0.2 z"
       id="path333" />
    <path
       d="m 348,401.4 c 0,-2.1 1.8,-5.4 3,-5.4 0.6,0 1,1.6 1,3.5 0,2.8 -0.4,3.5 -2,3.5 -1.1,0 -2,-0.7 -2,-1.6 z"
       id="path335" />
    <path
       d="m 323,397 v -3.9 l -4.1,1.4 c -5.2,1.9 -9.9,1.9 -9.9,0.2 0,-0.7 3.6,-2.5 8.3,-4 9.9,-3.2 9.7,-3.2 9.7,-0.7 0,1.1 -0.6,2 -1.2,2 -1,0 -0.9,0.3 0.1,0.9 1.8,1.2 0.6,8.1 -1.4,8.1 -1.1,0 -1.5,-1.2 -1.5,-4 z"
       id="path337" />
    <path
       d="m 516.2,396.8 c 0.2,-1.8 1.1,-2.4 3.6,-2.6 4,-0.4 4.1,0.8 0.3,3.1 -3.8,2.2 -4.3,2.2 -3.9,-0.5 z"
       id="path339" />
    <path
       d="m 108,397.3 c 0,-0.5 2.9,-2.7 6.3,-5 3.4,-2.3 8.2,-6.1 10.6,-8.5 4.3,-4.3 4.3,-4.3 3.7,-9.8 -0.3,-3 -0.9,-6.7 -1.2,-8.2 -0.5,-2.3 -0.3,-2.8 1.3,-2.8 1.7,0 2.2,1.1 3.2,5.7 1.4,7 1.4,12.3 0.1,12.3 -0.5,0 -1,0.6 -1,1.3 0,1.9 -5.3,6.7 -7.3,6.7 -0.9,0 -1.7,0.7 -1.7,1.5 0,0.9 -0.7,1.8 -1.6,2.2 -0.9,0.3 -2.8,1.7 -4.2,2.9 -2.3,2.2 -8.2,3.4 -8.2,1.7 z"
       id="path341" />
    <path
       d="m 444.2,394.9 c 0.2,-2.7 0.8,-3.5 2.6,-3.7 2.2,-0.3 2.2,-0.2 0.9,2.9 -1.8,4.6 -3.9,5 -3.5,0.8 z"
       id="path343" />
    <path
       d="m 248.2,392.8 c 0.2,-2.5 0.8,-3.4 2.6,-3.6 2.7,-0.4 2.7,0.1 0.5,3.9 -2.3,3.8 -3.5,3.7 -3.1,-0.3 z"
       id="path345" />
    <path
       d="m 468,394.8 c 0,-3 1.3,-5.8 2.6,-5.8 0.9,0 1.4,1.2 1.4,3.5 0,2.8 -0.4,3.5 -2,3.5 -1.1,0 -2,-0.6 -2,-1.2 z"
       id="path347" />
    <path
       d="m 351.7,391.3 c 1.7,-4.4 6.6,-13.3 7.4,-13.3 1.7,0 0.9,6 -1,7.9 -1.1,1.1 -2.1,3 -2.3,4.3 -0.2,1.5 -1.1,2.4 -2.5,2.6 -1.9,0.3 -2.2,0 -1.6,-1.5 z"
       id="path349" />
    <path
       d="m 469,381.3 c 0,-3.4 1.2,-6.3 2.6,-6.3 1,0 1.4,1.3 1.4,4 0,3.3 -0.3,4 -2,4 -1.2,0 -2,-0.7 -2,-1.7 z"
       id="path351" />
    <path
       d="m 539.7,376.2 c -2.3,-2.6 -2.2,-5.2 0.3,-5.2 1.6,0 2,0.7 2,3.5 0,4 -0.1,4.1 -2.3,1.7 z"
       id="path353" />
    <path
       d="m 184,372 c 0,-2.1 1,-2.4 4.8,-1.4 3.6,1 2.7,3.4 -1.3,3.4 -2.8,0 -3.5,-0.4 -3.5,-2 z"
       id="path355" />
    <path
       d="m 287.3,371.5 -2.8,-2.5 3.5,0.2 c 2.8,0.2 3.6,0.8 3.8,2.6 0.4,2.9 -1,2.8 -4.5,-0.3 z"
       id="path357" />
    <path
       d="m 552.2,370.8 c 0.2,-1.8 1.1,-2.4 3.6,-2.6 4,-0.4 4.1,0.8 0.3,3.1 -3.8,2.2 -4.3,2.2 -3.9,-0.5 z"
       id="path359" />
    <path
       d="m 202,371.1 c 0,-1.2 0.5,-1.5 6.8,-4 L 214,365 v 2.5 c 0,2 -0.5,2.5 -2.5,2.5 -1.4,0 -2.5,0.5 -2.5,1 0,0.6 -1.6,1 -3.5,1 -1.9,0 -3.5,-0.4 -3.5,-0.9 z"
       id="path361" />
    <path
       d="m 436,368.5 c 0,-6 -2.3,-12.9 -5.2,-15.3 -1.7,-1.4 -2.8,-3.4 -2.8,-4.8 0,-2.4 0,-2.4 2.6,-0.7 3.9,2.5 7.4,8.8 8.6,15.2 1,5.3 1.3,5.7 3.4,5.3 1.9,-0.3 2.4,0 2.4,1.7 0,1.8 -0.6,2.1 -4.5,2.1 -4.5,0 -4.5,0 -4.5,-3.5 z"
       id="path363" />
    <path
       d="m 448,370 c 0,-2.3 2.9,-2.7 4.8,-0.8 1.9,1.9 1.4,2.8 -1.8,2.8 -2.3,0 -3,-0.4 -3,-2 z"
       id="path365" />
    <path
       d="m 323.2,368 c 0.2,-2.8 0.8,-3.6 2.6,-3.8 2.9,-0.4 2.8,1 -0.3,4.5 l -2.5,2.8 z"
       id="path367" />
    <path
       d="m 260,366.6 c 0,-3.2 0.3,-3.6 2.5,-3.6 2.4,0 2.5,0.1 1.2,3.2 -1.9,4.6 -3.7,4.8 -3.7,0.4 z"
       id="path369" />
    <path
       d="m 282.8,366.4 c -1.8,-2.1 -3.8,-6.7 -3.8,-9 0,-0.8 0.8,-1.4 1.8,-1.4 2.1,0 4.6,6.1 4,9.9 -0.3,2.3 -0.4,2.3 -2,0.5 z"
       id="path371" />
    <path
       d="m 560.2,365.8 c 0.2,-1.8 1,-2.4 3.8,-2.6 l 3.5,-0.2 -2.8,2.5 c -3.5,3.1 -4.9,3.2 -4.5,0.3 z"
       id="path373" />
    <path
       d="m 216.2,364.8 c 0.3,-0.7 1.9,-1.8 3.6,-2.5 3.1,-1.3 3.2,-1.2 3.2,1.2 0,2.2 -0.4,2.5 -3.6,2.5 -2.3,0 -3.4,-0.4 -3.2,-1.2 z"
       id="path375" />
    <path
       d="m 370.2,361.8 c 1.3,-1.7 3.9,-4.3 5.6,-5.6 l 3.2,-2.5 v 2.5 c 0,3.1 -5.8,8.8 -8.9,8.8 h -2.4 z"
       id="path377" />
    <path
       d="m 470,360.8 c 0,-3.9 1.2,-6.8 2.6,-6.8 1,0 1.4,1.3 1.4,4.5 0,3.8 -0.3,4.5 -2,4.5 -1.4,0 -2,-0.7 -2,-2.2 z"
       id="path379" />
    <path
       d="m 225.2,360.8 c 0.3,-0.7 4.7,-3.1 9.9,-5.3 13.7,-6 12.9,-5.8 12.9,-3 0,2.2 -0.4,2.5 -3.5,2.5 -2.4,0 -3.5,0.5 -3.5,1.5 0,1 -1.1,1.5 -3.5,1.5 -2.3,0 -3.5,0.5 -3.5,1.4 0,1.7 -2.2,2.6 -6.2,2.6 -1.9,0 -2.8,-0.4 -2.6,-1.2 z"
       id="path381" />
    <path
       d="m 264,355.4 c 0,-4 0.3,-5.5 1.3,-5.2 2.1,0.8 3.2,5.4 1.9,8.3 -1.9,4.1 -3.2,2.9 -3.2,-3.1 z"
       id="path383" />
    <path
       d="m 171,354.5 c 0,-3 0.5,-5.5 1,-5.5 0.6,0 1,-1.3 1,-3 0,-2.3 0.4,-3 2,-3 1.6,0 2,-0.7 2,-3 0,-2.5 0.4,-3 2.5,-3 2.1,0 2.5,-0.5 2.5,-2.8 0,-3.8 3.7,-7.2 7.9,-7.2 h 3.3 l -5.5,5.8 C 177.4,343.4 175,347.6 175,355 c 0,4.3 -0.3,5 -2,5 -1.8,0 -2,-0.7 -2,-5.5 z"
       id="path385" />
    <path
       d="m 579.2,353.8 c 0.2,-1.8 1.1,-2.4 3.6,-2.6 4,-0.4 4.1,0.8 0.3,3.1 -3.8,2.2 -4.3,2.2 -3.9,-0.5 z"
       id="path387" />
    <path
       d="m 123.6,354.1 c -0.3,-0.4 -1,-2 -1.5,-3.5 -1,-2.4 -0.8,-2.6 1.4,-2.6 2.2,0 2.5,0.4 2.5,3.5 0,3.3 -1.2,4.6 -2.4,2.6 z"
       id="path389" />
    <path
       d="m 279,351.5 c 0,-2.5 2.8,-8.5 3.9,-8.5 1.2,0 1.4,4.2 0.5,7.8 -0.7,2.5 -4.4,3.1 -4.4,0.7 z"
       id="path391" />
    <path
       d="m 383.3,350.5 c 3.6,-3.2 4.7,-3.1 4.7,0 0,2.2 -0.4,2.5 -3.7,2.5 l -3.8,-0.1 z"
       id="path393" />
    <path
       d="m 325,344.5 c 0,-5.3 1.3,-4.6 4.8,2.8 0.2,0.4 -0.8,0.7 -2.2,0.7 -2.3,0 -2.6,-0.4 -2.6,-3.5 z"
       id="path395" />
    <path
       d="m 509,342.5 c 0,-3.8 0.3,-4.5 2,-4.5 2.1,0 2.6,2.3 1.4,6.8 -1.1,4.1 -3.4,2.6 -3.4,-2.3 z"
       id="path397" />
    <path
       d="m 414,344 c 0,-2.1 1.6,-2.5 5.8,-1.4 3.9,1.1 2.7,3.4 -1.8,3.4 -3.3,0 -4,-0.3 -4,-2 z"
       id="path399" />
    <path
       d="m 592.3,345.3 c -3.8,-0.5 -4.4,-2.8 -1,-3.7 3.2,-0.8 10.7,-0.7 10.7,0.2 0,0.8 -5.5,4.4 -6.2,4 -0.1,0 -1.8,-0.3 -3.5,-0.5 z"
       id="path401" />
    <path
       d="m 577.2,344.3 c -4.4,-0.8 -6.2,-3.4 -6.2,-8.5 0,-4.1 0.3,-4.8 2,-4.8 1.7,0 2,0.7 2,4.4 v 4.5 l 5.5,1.1 c 3.6,0.7 5.5,1.6 5.5,2.6 0,1.4 -3.6,1.7 -8.8,0.7 z"
       id="path403" />
    <path
       d="m 316.3,338.2 c -2.3,-1.1 -3.3,-2.3 -3.3,-3.8 0,-2.1 0.3,-2.2 2.8,-1.3 1.6,0.5 4.4,2.3 6.3,3.9 l 3.4,2.9 -3,-0.1 c -1.6,0 -4.5,-0.8 -6.2,-1.6 z"
       id="path405" />
    <path
       d="m 288,337.1 c 0,-0.5 1.9,-1.8 4.3,-3 l 4.2,-2.1 0.3,2.1 c 0.2,1.2 -0.2,2.6 -1,3 -1.7,1.2 -7.8,1.1 -7.8,0 z"
       id="path407" />
    <path
       d="m 537.9,336.8 c -0.1,-0.7 -0.3,-2.5 -0.5,-4 -0.2,-2.2 0.1,-2.8 1.7,-2.8 1.6,0 1.9,0.7 1.9,4 0,2.9 -0.4,4 -1.5,4 -0.8,0 -1.6,-0.6 -1.6,-1.2 z"
       id="path409" />
    <path
       d="m 510,332.3 c 0,-1.6 0.3,-5.2 0.6,-8 0.6,-4.3 1,-5.3 2.6,-5.3 2,0 2,1 0.2,12.8 -0.6,4 -3.4,4.4 -3.4,0.5 z"
       id="path411" />
    <path
       d="m 252.5,330 c -1.8,-2 -1.7,-2 1.8,-2 3,0 3.7,0.4 3.7,2 0,1.3 -0.7,2 -1.8,2 -1.1,0 -2.7,-0.9 -3.7,-2 z"
       id="path413" />
    <path
       d="m 613.2,326.3 c -1.5,-0.6 -4.2,-5.6 -4.2,-7.8 0,-0.8 0.9,-1.5 2,-1.5 1.3,0 2,0.7 2,1.9 0,1 0.7,2.4 1.5,3.1 0.8,0.7 1.5,2.1 1.5,3.1 0,1.9 -0.5,2.1 -2.8,1.2 z"
       id="path415" />
    <path
       d="m 250,323.2 c 0,-4.5 6.5,-6.7 10.8,-3.6 3.6,2.5 2.7,3.7 -2.3,3.1 -3.6,-0.5 -4.5,-0.4 -4.5,0.8 0,0.8 -0.9,1.5 -2,1.5 -1.3,0 -2,-0.7 -2,-1.8 z"
       id="path417" />
    <path
       d="M 147.7,318.3 C 144.6,307.2 142,243 144.6,243 c 2.2,0 3.2,-12.6 1.8,-21.3 -1.7,-9.8 -11.3,-19.4 -22,-21.8 l -5.6,-1.3 4.5,-1.3 c 20,-5.8 29.7,-29.8 24.3,-60.3 -1.2,-6.5 -1.8,-7.9 -4.9,-10.5 -6.2,-5.3 -18.8,-8.8 -38,-10.4 -6,-0.5 -11.1,-1.1 -11.3,-1.4 -0.9,-0.9 14,-6.4 24.1,-9 5.5,-1.5 14,-3.3 18.8,-4.2 18.6,-3.2 42.2,-10.2 127.7,-38.3 20.1,-6.6 37.9,-12.3 39.7,-12.7 7.3,-1.5 9.7,7.3 4.3,15.5 -4.1,6.3 -21,23.1 -38,37.9 -16.1,14 -40.5,34.1 -41.4,34.1 -0.4,0 0.6,-1.9 2,-4.2 7.5,-11.8 9.3,-20.3 5.2,-23.2 -3,-2.1 -10.3,-2 -21.1,0.4 -18.3,4 -26.2,10.4 -31.3,25 -2.3,6.7 -2.5,26.6 -0.3,34.5 l 1.4,5 7,-0.1 c 7.2,-0.1 16.8,-2.2 32.7,-7.3 l 8.9,-2.9 -0.6,3.1 c -2.6,12.2 -19.2,25.6 -45.2,36.4 -8.8,3.7 -11.2,5.1 -10.7,6.3 0.7,1.4 2,7.6 4.5,20.6 l 1,5.2 5.7,-1.4 c 7.5,-1.8 8.2,-1.7 8.2,0.5 0,1.5 -1.1,2.1 -4.7,2.8 -5.6,1 -5.4,-0.8 -2.9,21.2 1.4,12.9 2.1,28.2 1.1,25.6 -0.3,-0.5 -1.6,-10.6 -3,-22.4 -1.4,-11.8 -2.8,-21.7 -3.1,-22 -0.4,-0.3 -0.4,1.4 -0.1,3.9 0.4,2.5 1.4,11.5 2.3,20.2 1.6,14.7 1.6,15.9 0,21 -5.3,16.2 -22,34.8 -31.5,34.8 -1.6,0 -2.1,0.4 -1.7,1.5 0.3,1 -0.1,1.5 -1.3,1.5 -1.4,0 -2.2,-1.4 -3.4,-5.7 z"
       id="path419" />
    <path
       d="m 471.5,320.8 c -0.3,-1.8 -0.5,-11.8 -0.3,-22.3 0.3,-17.1 0.5,-19 2.1,-19.3 1.6,-0.3 1.7,1.3 1.7,22.2 0,19.1 -0.2,22.6 -1.5,22.6 -0.8,0 -1.7,-1.3 -2,-3.2 z"
       id="path421" />
    <path
       d="m 536.5,320.3 c -0.3,-2.1 -1,-5.7 -1.6,-8 -1.3,-5.7 -1.2,-6.3 1,-6.3 2,0 2.5,1.5 3.7,11.8 0.6,5.3 0.4,6.2 -0.9,6.2 -1.1,0 -1.8,-1.2 -2.2,-3.7 z"
       id="path423" />
    <path
       d="m 16,320.5 c 0,-0.7 14.2,-10.5 15.2,-10.5 0.4,0 0.8,1.1 0.8,2.5 0,1.6 -0.6,2.5 -1.5,2.5 -0.8,0 -1.5,0.5 -1.5,1 0,0.6 -0.7,1 -1.5,1 -0.8,0 -1.5,0.5 -1.5,1 0,0.6 -0.9,1 -2,1 -1.1,0 -2,0.5 -2,1 0,0.6 -1.3,1 -3,1 -1.6,0 -3,-0.2 -3,-0.5 z"
       id="path425" />
    <path
       d="m 200,318.1 c 0,-2.9 0.3,-3.1 3.6,-3.1 3.9,0 3.8,0.9 -0.6,4 l -3,2.1 z"
       id="path427" />
    <path
       d="m 46,316.9 c 0,-1.3 0.8,-5 1.7,-8.1 1.3,-4.1 2.3,-5.8 3.5,-5.8 1.4,0 1.6,0.6 1.2,3.3 -1.1,5.9 -2.5,9.4 -4.4,11.2 -1.9,1.8 -2,1.7 -2,-0.6 z"
       id="path429" />
    <path
       d="m 102.8,314 -2.8,-3.5 2.6,-0.3 c 3.3,-0.4 3.6,-0.1 3.2,3.9 l -0.3,3.4 z"
       id="path431" />
    <path
       d="m 572,310 c 0,-6.3 0.2,-7 2,-7 1.7,0 2,0.7 2,4.8 0,6.1 -0.9,9.2 -2.6,9.2 -1.1,0 -1.4,-1.7 -1.4,-7 z"
       id="path433" />
    <path
       d="m 513,312.5 c 0,-2.8 0.4,-3.5 2,-3.5 2.1,0 2.4,1 1.4,4.8 -1,3.6 -3.4,2.7 -3.4,-1.3 z"
       id="path435" />
    <path
       d="m 37,307.9 c 0,-1.1 6,-3.9 8.5,-3.9 2.4,0 1.8,3.7 -0.7,4.4 -3.6,0.9 -7.8,0.7 -7.8,-0.5 z"
       id="path437" />
    <path
       d="m 285.6,305.8 c -1,-3.8 -0.7,-4.8 1.4,-4.8 1.1,0 2,0.5 2,1 0,0.6 1.5,1 3.3,1 l 3.2,0.1 -2.8,2.4 c -3.5,3.1 -6.3,3.2 -7.1,0.3 z"
       id="path439" />
    <path
       d="m 654.2,303.8 c 0.2,-1.8 1,-2.4 3.8,-2.6 l 3.5,-0.2 -2.8,2.5 c -3.5,3.1 -4.9,3.2 -4.5,0.3 z"
       id="path441" />
    <path
       d="m 276,301 c 2.9,-4.1 4,-4.5 4,-1.6 0,1.5 -0.8,3 -1.9,3.6 -3.5,1.8 -4.3,1.1 -2.1,-2 z"
       id="path443" />
    <path
       d="m 80.9,294.8 c -1.2,-2.4 -3,-5.5 -4.1,-7 L 74.9,285 h 3 c 2.6,0 3.1,0.4 3.1,2.5 0,1.5 0.6,2.5 1.4,2.5 1.7,0 2.6,2.2 2.6,6.1 0,4.1 -1.6,3.6 -4.1,-1.3 z"
       id="path445" />
    <path
       d="m 236,291.6 c 0,-3.3 0.2,-3.6 3.1,-3.6 h 3 l -2.1,3 c -3.1,4.4 -4,4.5 -4,0.6 z"
       id="path447" />
    <path
       d="m 312,289.5 c 0,-2.2 0.4,-2.5 3.8,-2.5 l 3.7,0.1 -2.8,2.4 c -3.6,3.2 -4.7,3.1 -4.7,0 z"
       id="path449" />
    <path
       d="m 286.2,287.8 c 5,-6.6 18.9,-26.2 19.9,-28 0.8,-1.5 0.6,-1.8 -1.1,-1.8 -1.1,0 -2,-0.4 -2,-1 0,-0.5 1.6,-1 3.5,-1 3.3,0 3.5,0.2 3.5,3.5 0,1.9 -0.4,3.5 -1,3.5 -0.5,0 -1,0.7 -1,1.5 0,0.8 -0.4,1.5 -1,1.5 -0.5,0 -1,0.7 -1,1.5 0,0.9 -0.9,1.5 -2.5,1.5 -2.2,0 -2.5,0.4 -2.5,3.5 0,2.4 -0.5,3.5 -1.5,3.5 -0.8,0 -1.5,0.9 -1.5,2 0,1.1 -0.4,2 -1,2 -0.5,0 -1,0.7 -1,1.5 0,0.8 -0.7,1.5 -1.5,1.5 -0.8,0 -1.5,0.9 -1.5,2 0,1.1 -0.7,2 -1.5,2 -0.8,0 -1.5,0.9 -1.5,2 0,1.6 -0.7,2 -3.1,2 h -3.1 z"
       id="path451" />
    <path
       d="m 573,283.5 c 0,-3.8 0.3,-4.5 2,-4.5 2.1,0 2.6,2.3 1.4,6.8 -1.1,4.1 -3.4,2.6 -3.4,-2.3 z"
       id="path453" />
    <path
       d="m 61.7,281.5 c -2.5,-1.8 -2.1,-2.5 1.8,-2.5 2.3,0 3.5,0.5 3.5,1.4 0,1.9 -3.3,2.6 -5.3,1.1 z"
       id="path455" />
    <path
       d="m 518,278.5 c 0,-1.4 -0.4,-2.5 -1,-2.5 -0.5,0 -1,-2 -1,-4.5 0,-5.8 2.6,-6.3 3.5,-0.7 0.3,2 1,4.4 1.4,5.2 1.2,2.3 5.8,2.4 10.2,0.1 4.9,-2.6 4.9,-2.6 4.9,0.4 0,1.8 -0.5,2.5 -2,2.5 -1.1,0 -2,0.5 -2,1 0,0.6 -3,1 -7,1 -6.8,0 -7,-0.1 -7,-2.5 z"
       id="path457" />
    <path
       d="m 608.2,278.2 c -2.6,-5.4 -2.6,-5.4 0.4,-5 2.6,0.3 2.9,0.7 3.2,4.1 0.4,4.5 -1.6,5 -3.6,0.9 z"
       id="path459" />
    <path
       d="m 696.2,275.4 c 0.3,-2.5 0.8,-2.9 3.7,-3.2 3.8,-0.4 3.5,0.6 -1,3.9 l -3.1,2.1 z"
       id="path461" />
    <path
       d="m 656,275.5 c 0,-0.8 -0.4,-1.5 -1,-1.5 -0.5,0 -1,-1.6 -1,-3.5 0,-4.4 2.6,-4.8 3.5,-0.5 0.8,3.6 4,4.7 8.5,3.2 2.8,-1 3,-0.9 3,1.4 0,2.3 -0.3,2.4 -6.5,2.4 -5.1,0 -6.5,-0.3 -6.5,-1.5 z"
       id="path463" />
    <path
       d="m 26.6,275.1 c 0.5,-0.4 3,-1.5 5.7,-2.4 l 4.7,-1.6 v 2.5 c 0,2.3 -0.3,2.4 -5.7,2.4 -3.3,0 -5.3,-0.4 -4.7,-0.9 z"
       id="path465" />
    <path
       d="m 257.8,274.3 c -3.4,-0.9 -1.7,-2.3 8.5,-7.2 13,-6.2 13.4,-6.3 14.1,-4.4 0.9,2.1 0.1,3 -4.2,4.4 -2,0.7 -6.5,2.7 -10,4.6 -3.5,1.8 -6.4,3.2 -6.5,3.2 -0.1,-0.1 -1,-0.3 -1.9,-0.6 z"
       id="path467" />
    <path
       d="m 571.5,268.5 c 2.2,-1.8 4,-3.3 4.1,-3.2 0.1,0.1 -0.1,1.7 -0.3,3.5 -0.5,2.9 -0.8,3.2 -4.2,3.2 l -3.6,-0.1 z"
       id="path469" />
    <path
       d="m 44.2,269.8 c 0.3,-0.7 3.1,-2.3 6.4,-3.6 3.2,-1.3 6.9,-2.7 8.2,-3.2 1.9,-0.8 2.2,-0.6 2.2,1.5 0,2.2 -0.4,2.5 -3.5,2.5 -2.3,0 -3.5,0.5 -3.5,1.4 0,1.5 -3,2.6 -7.3,2.6 -1.8,0 -2.7,-0.4 -2.5,-1.2 z"
       id="path471" />
    <path
       d="m 605,268.3 c 0.1,-1.9 2.2,-5.3 3.4,-5.3 0.3,0 0.6,1.6 0.6,3.5 0,2.8 -0.4,3.5 -2,3.5 -1.3,0 -2,-0.7 -2,-1.7 z"
       id="path473" />
    <path
       d="m 568.4,265.9 c 0.3,-1.7 0.6,-3.8 0.6,-4.5 0,-0.9 1.1,-1.4 3.1,-1.4 h 3 l -3.2,4.5 c -1.8,2.5 -3.4,4.5 -3.7,4.5 -0.2,0 -0.2,-1.4 0.2,-3.1 z"
       id="path475" />
    <path
       d="m 690,267 c 0,-1.7 0.7,-2 4.8,-2 2.6,0 9.8,-1.3 16,-2.9 6.1,-1.6 11.2,-2.6 11.2,-2.2 0,0.8 -9.3,6.7 -10.2,6.4 -0.3,-0.1 -3.7,0.4 -7.5,1.2 -3.7,0.8 -8.5,1.5 -10.5,1.5 -3.1,0 -3.8,-0.4 -3.8,-2 z"
       id="path477" />
    <path
       d="m 680.5,265 c 0.3,-0.5 1.9,-1.9 3.5,-3 l 3,-2.1 v 3 c 0,2.9 -0.3,3.1 -3.6,3.1 -2,0 -3.3,-0.4 -2.9,-1 z"
       id="path479" />
    <path
       d="m 243.2,261.5 c -4.2,-5.3 -4.1,-13.6 0.1,-28.4 1.9,-6.3 2.1,-8.1 1,-8.1 -0.7,0 -1.3,-0.7 -1.3,-1.5 0,-0.9 1.4,-1.7 3.9,-2.1 3.3,-0.5 4.2,-1.2 6,-4.9 2.8,-5.6 2.7,-6.4 -1.4,-11.8 -4.8,-6.3 -4.7,-9.8 0.5,-14.8 7.7,-7.3 24.7,-14.9 30.3,-13.5 5.2,1.3 6,14.1 1.7,25.4 -1.1,2.9 -2,5.6 -2,6.2 0,0.5 2.9,-0.2 6.5,-1.5 L 295,204 v 2.4 c 0,1.9 -0.7,2.6 -3.2,3.1 -1.8,0.4 -5.6,1.8 -8.5,3.1 -4.7,2.2 -5.5,3 -9.2,10.3 -4.4,8.6 -5,11.5 -2.5,12.5 2.7,1.1 5.4,0.7 6,-0.9 0.4,-0.8 1.2,-1.5 1.8,-1.5 0.7,0 3.5,-1.1 6.2,-2.5 2.7,-1.4 6.4,-2.5 8.2,-2.5 3,0 3.2,0.2 3.2,3.4 0,2.8 -1.2,4.7 -7.1,11 -6,6.4 -7.6,7.6 -10.3,7.6 -2,0 -4,0.8 -5.1,2.1 -1.1,1.1 -4.6,3.8 -7.8,6 -4.9,3.2 -6.8,3.9 -10.9,3.9 -2.7,0 -5.8,-0.5 -6.9,-1 -1.6,-0.9 -2.1,-0.7 -2.7,1.1 -0.8,2.2 -0.9,2.2 -3,-0.6 z"
       id="path481" />
    <path
       d="m 292,259 c 0,-1.6 0.7,-2 3.5,-2 4,0 4.9,2.4 1.3,3.4 -3.8,1 -4.8,0.7 -4.8,-1.4 z"
       id="path483" />
    <path
       d="m 354,258.1 c 0,-2.9 0.3,-3.1 3.6,-3.1 3.9,0 3.8,0.9 -0.6,4 l -3,2.1 z"
       id="path485" />
    <path
       d="m 65,258.9 c 0,-1.1 6,-3.9 8.5,-3.9 2.4,0 1.8,3.7 -0.7,4.4 -3.6,0.9 -7.8,0.7 -7.8,-0.5 z"
       id="path487" />
    <path
       d="m 84,257.6 c 0,-1.3 2.8,-2.6 5.8,-2.6 0.6,0 1.2,0.9 1.2,2 0,1.6 -0.7,2 -3.5,2 -2.3,0 -3.5,-0.5 -3.5,-1.4 z"
       id="path489" />
    <path
       d="m 123,247.6 c 0,-1.4 3.8,-2.5 14.8,-4.1 3.7,-0.6 4.2,-0.4 4.2,1.2 0,1.7 -1.2,2.1 -7.7,3.1 -10,1.5 -11.3,1.5 -11.3,-0.2 z"
       id="path491" />
    <path
       d="m 368,246.1 c 0,-2.9 0.3,-3.1 3.6,-3.1 3.9,0 3.8,0.9 -0.6,4 l -3,2.1 z"
       id="path493" />
    <path
       d="m 579,248.2 c 0,-0.8 15.3,-10.2 16.6,-10.2 0.4,0 -1,1.8 -3.1,4 -2.1,2.2 -4.5,4 -5.2,4 -0.7,0 -1.3,0.7 -1.3,1.5 0,1 -1.1,1.5 -3.5,1.5 -1.9,0 -3.5,-0.3 -3.5,-0.8 z"
       id="path495" />
    <path
       d="m 516,232.5 c 0,-12.8 0.1,-13.5 2,-13.5 1.9,0 2,0.7 2,11.3 0,12.4 -0.6,15.7 -2.6,15.7 -1.1,0 -1.4,-2.7 -1.4,-13.5 z"
       id="path497" />
    <path
       d="m 310.4,241.9 c -1.4,-1.6 -2,-3.9 -2.2,-9.8 -0.3,-7.2 -0.1,-8.1 4.4,-17.6 2.5,-5.5 5.3,-12.1 6.3,-14.7 1.1,-3.3 2.3,-4.9 3.9,-5.3 2.7,-0.7 2.4,-3.7 -0.7,-8.9 -1.2,-1.8 -2.1,-4 -2.1,-4.8 0,-2.3 9.7,-18 13,-21 3.8,-3.5 8.1,-3.6 13.5,-0.3 5.5,3.4 8.3,3.2 14,-1.2 4,-3.2 5.5,-3.8 9.2,-3.6 5.1,0.2 10.2,2.9 12.2,6.4 1.2,2.2 1.1,3.1 -1.8,9.6 -1.7,3.9 -3.1,7.4 -3.1,7.7 0,0.3 0.9,0.6 2,0.6 1.3,0 2,0.7 2,2 0,1.4 -0.9,2.1 -3.6,2.6 -2.8,0.5 -3.9,1.4 -4.9,3.8 -2.1,4.9 -3,16.9 -1.5,19.7 l 1.3,2.3 0.8,-2.2 c 0.7,-1.7 1.6,-2.2 4.4,-2.2 h 3.5 v 5.5 c 0,7.3 -2.3,12.9 -4.9,12.2 -1.2,-0.3 -2.7,0.3 -3.8,1.5 -4.5,5 -12.8,6.8 -18.3,3.9 -3.8,-1.9 -3.8,-1.9 -4.6,0 -0.9,1.9 -1.1,1.8 -3.3,-1.2 -2.8,-3.7 -3.9,-11.3 -2.3,-15.6 0.6,-1.5 2.2,-5.9 3.6,-9.8 1.4,-3.8 2.6,-7.1 2.6,-7.2 0,-0.2 -1,-0.3 -2.2,-0.3 -2.1,0 -2.1,0 -0.2,-1.5 2.5,-1.9 0.8,-1.9 -4.9,0.1 -3.3,1.1 -4.8,2.2 -5.2,3.7 -0.2,1.2 -1.6,7.9 -3,14.9 -3,14.8 -5.6,22.3 -9.5,27 -2.3,2.8 -3.4,3.3 -6.9,3.2 -2.9,-0.1 -4.1,0.3 -4.1,1.2 0,2 -1.4,1.7 -3.6,-0.7 z m 38.8,-55.5 c 6.6,-1.8 6.7,-1.9 7.3,-5.7 0.8,-4.7 -0.3,-6.1 -4.2,-5.3 -6.2,1.4 -11.1,5.8 -12.8,11.5 -0.6,2 -0.4,2.3 1.1,1.9 1.1,-0.3 4.9,-1.4 8.6,-2.4 z"
       id="path499" />
    <path
       d="m 470.6,236.8 c -1.2,-4.8 -0.7,-7.8 1.4,-7.8 1.7,0 2,0.7 2,5 0,3.6 -0.4,5 -1.4,5 -0.7,0 -1.6,-1 -2,-2.2 z"
       id="path501" />
    <path
       d="m 560,238.2 c 0,-0.5 1,-1.8 2.3,-3 2.5,-2.4 8.2,-3.1 7.5,-1 -0.5,1.5 -9.8,5.2 -9.8,4 z"
       id="path503" />
    <path
       d="m 198,234.6 c 0,-1.3 2.8,-2.6 5.8,-2.6 0.6,0 1.2,0.9 1.2,2 0,1.6 -0.7,2 -3.5,2 -2.3,0 -3.5,-0.5 -3.5,-1.4 z"
       id="path505" />
    <path
       d="m 207,232.6 c 0,-0.8 2.4,-2 6.5,-3 8.1,-2 8.5,-2 8.5,0.2 0,1.4 -1.3,2.1 -5.1,3 -6.7,1.6 -9.9,1.5 -9.9,-0.2 z"
       id="path507" />
    <path
       d="m 571,232 c 0,-1.6 0.7,-2 3.5,-2 3.9,0 4.6,1.4 1.6,3 -3.1,1.6 -5.1,1.2 -5.1,-1 z"
       id="path509" />
    <path
       d="m 579,229.5 c 0,-2.2 0.4,-2.5 3.6,-2.5 4.4,0 4.2,1.8 -0.4,3.7 -3.1,1.3 -3.2,1.2 -3.2,-1.2 z"
       id="path511" />
    <path
       d="m 224,228.6 c 0,-1.3 2.8,-2.6 5.8,-2.6 0.6,0 1.2,0.9 1.2,2 0,1.6 -0.7,2 -3.5,2 -2.3,0 -3.5,-0.5 -3.5,-1.4 z"
       id="path513" />
    <path
       d="m 609,223 c 0,-2.3 0,-2.3 -3.4,-1 -2.4,0.9 -2.6,0.7 -2.6,-1.5 0,-2.2 0.4,-2.5 3.5,-2.5 3.3,0 3.5,0.2 3.5,3.5 0,1.9 -0.2,3.5 -0.5,3.5 -0.3,0 -0.5,-0.9 -0.5,-2 z"
       id="path515" />
    <path
       d="m 582,215.7 6.5,-6.1 0.3,2.8 c 0.5,4.2 -5,9.6 -9.7,9.6 l -3.6,-0.1 z"
       id="path517" />
    <path
       d="m 399.3,215.1 c -4,-3.8 -5.4,-10.8 -5.1,-25 l 0.2,-13.1 3.3,-0.6 c 1.8,-0.3 3.3,-1.2 3.3,-1.9 0,-0.7 0.4,-1.5 0.9,-1.7 0.5,-0.1 2.5,-3.7 4.4,-7.8 12.1,-25.4 24.5,-35.4 36.6,-29.2 8.7,4.4 9.4,11.4 3.1,30.9 -8.3,25.6 -6.3,37.8 5.6,33.3 3.5,-1.4 3.8,-0.9 2,3.3 -2.4,5.8 -7.3,7.1 -15.7,4.2 -4.5,-1.6 -4.5,-1.6 -7,2.7 -2.8,5 -15.4,8 -22.6,5.5 -3.5,-1.2 -4.4,-1.2 -5.5,0 -1.2,1.1 -1.7,1 -3.5,-0.6 z m 19.1,-27.2 c 1.5,1.2 2.6,-0.4 2.6,-3.7 0,-1.9 -3.7,-3.9 -6.2,-3.4 -2.1,0.4 -2.4,5.1 -0.7,8.5 l 1.2,2.1 0.9,-2.3 c 0.6,-1.8 1.1,-2.1 2.2,-1.2 z m 9.7,-0.1 c 6.9,-5.1 12.7,-19.4 11.6,-28.7 -0.6,-5.5 -4.2,-9.1 -8.9,-9.1 -6.4,0 -16.8,14.9 -16.8,24 0,2.4 0.5,2.9 3.5,3.4 4.7,0.9 7.9,5 7.2,9.3 -0.7,3.9 -0.5,4 3.4,1.1 z"
       id="path519" />
    <path
       d="m 655,204.5 c 0,-3.2 0.2,-3.5 3,-3.5 h 3 l -2.2,3.5 c -2.9,4.4 -3.8,4.4 -3.8,0 z"
       id="path521" />
    <path
       d="m 469.9,205.8 c 0,-0.7 -0.2,-2.3 -0.5,-3.5 -0.3,-1.8 0.1,-2.3 1.6,-2.3 1.6,0 2,0.7 2,3.5 0,2.4 -0.5,3.5 -1.5,3.5 -0.8,0 -1.5,-0.6 -1.6,-1.2 z"
       id="path523" />
    <path
       d="m 296.2,204.8 c 0.3,-0.7 5.2,-3 11.1,-5 l 10.7,-3.7 v 2.3 c 0,2.4 -2.1,3.6 -6.7,3.6 -1.3,0 -2.3,0.4 -2.3,0.8 0,1.1 -6.9,3.2 -10.4,3.2 -1.8,0 -2.6,-0.5 -2.4,-1.2 z"
       id="path525" />
    <path
       d="m 601.5,197.3 5,-4.6 0.3,2.7 c 0.5,3.9 -2.3,6.6 -6.7,6.6 l -3.6,-0.1 z"
       id="path527" />
    <path
       d="m 488.8,200 c -4.4,-1.3 -8.8,-5 -11.9,-9.8 -3.3,-5.2 -3.5,-4.7 -1.4,2.4 l 1.4,4.9 -1.9,-2.5 c -1.1,-1.4 -2,-2.8 -2,-3.2 0,-0.5 -0.9,-0.8 -2,-0.8 -2.4,0 -2.5,-1.1 -0.7,-7.2 1.2,-3.9 1.2,-6.1 -0.4,-16.7 -2.8,-18.9 -3.4,-44.1 -1.5,-58.6 4.4,-33.3 23.7,-76.6 43.8,-98 10.3,-11.1 17.6,-12.7 21.4,-4.7 3.6,7.4 1.8,30.8 -4.3,54.2 -2.9,11.6 -7.6,23.4 -24.8,63 -7.3,16.8 -13.6,32 -13.9,33.7 l -0.7,3.2 6.5,-2.9 c 7.7,-3.5 9.6,-3.7 9.6,-1 0,1.5 -0.7,2 -2.5,2 -1.4,0 -2.5,0.5 -2.5,1 0,0.6 -1.8,1 -4,1 -2.7,0 -3.8,0.4 -3.5,1.3 0.2,0.6 -1.4,2.4 -3.5,3.9 -3.5,2.4 -4,3.3 -4,6.5 0.1,2.1 0.7,4.9 1.4,6.2 1.2,2.2 1.4,2.3 2.4,0.6 0.9,-1.8 1.2,-1.7 4.2,0.8 1.7,1.5 3.6,2.7 4.1,2.7 1.5,0 8,-3.5 11.8,-6.4 1.9,-1.4 4.3,-2.6 5.3,-2.6 2,0 2.3,-3.7 1.2,-12.4 -0.6,-4 -1,-4.6 -3,-4.6 -1.7,0 -2.4,-0.6 -2.4,-2 0,-3 3.4,-2.5 6.4,1 3.3,4 4.1,10.1 2.8,22.9 -1.1,10.5 -3.6,19.5 -4.3,15.7 -0.3,-1.6 -1,-1.3 -4.9,1.9 -2.4,2 -5.5,4.1 -6.8,4.6 -2.8,1.1 -11.7,1 -15.4,-0.1 z m 1.8,-71.3 c 12.6,-22.3 20.5,-42.6 26,-66.7 2.7,-12.3 3.7,-18.9 3.8,-26 0.1,-8.8 0,-9.5 -1.9,-9.5 -2.5,0 -11.6,10.9 -17.9,21.6 -8.8,14.8 -13.1,26.6 -16.1,43.9 -2.7,15.6 -4.5,44.9 -3.1,48.7 0.7,1.7 0.8,1.7 2.2,-0.2 0.9,-1.1 4,-6.4 7,-11.8 z"
       id="path529" />
    <path
       d="m 384,179.6 c 0,-1.3 2.8,-2.6 5.8,-2.6 0.6,0 1.2,0.9 1.2,2 0,1.6 -0.7,2 -3.5,2 -2.3,0 -3.5,-0.5 -3.5,-1.4 z"
       id="path531" />
    <path
       d="m 611,172.8 c 0,-5.7 0.9,-8.8 2.6,-8.8 1.1,0 1.4,1.6 1.4,6.5 0,5.8 -0.2,6.5 -2,6.5 -1.7,0 -2,-0.7 -2,-4.2 z"
       id="path533" />
    <path
       d="m 700,169 c 0,-0.7 -0.8,-0.9 -2,-0.5 -1.1,0.4 -4.5,0.3 -7.5,0 l -5.5,-0.7 v -3.6 -3.6 l 2.9,2.9 3,2.8 10.3,-2.6 c 5.6,-1.4 10.4,-2.4 10.6,-2.2 0.2,0.2 -2.4,2.2 -5.7,4.4 -3.4,2.3 -6.1,3.7 -6.1,3.1 z"
       id="path535" />
    <path
       d="m 265.8,163.3 c -3.1,-3.6 -4.1,-6.9 -4.2,-13.8 -0.1,-6.2 0.3,-7.7 2.7,-11.4 5.2,-7.9 14,-10.6 18.6,-5.8 4.7,5.1 4.8,19.2 0,25.9 -4.4,6.1 -13.8,8.9 -17.1,5.1 z"
       id="path537" />
    <path
       d="m 669,160 c 0,-1.5 0.5,-1.9 2.3,-1.6 1.2,0.3 2.8,0.5 3.5,0.5 0.6,0.1 1.2,0.8 1.2,1.6 0,1 -1.1,1.5 -3.5,1.5 -2.8,0 -3.5,-0.4 -3.5,-2 z"
       id="path539" />
    <path
       d="m 605,160.2 c 0,-0.4 0.7,-1.7 1.5,-2.8 0.8,-1.2 1.1,-2.4 0.8,-2.8 -0.3,-0.3 0.1,-0.6 1,-0.6 1.3,0 1.7,0.9 1.7,3.5 0,3.1 -0.3,3.5 -2.5,3.5 -1.4,0 -2.5,-0.3 -2.5,-0.8 z"
       id="path541" />
    <path
       d="m 597,151.1 c -0.8,-0.6 -1.2,-1.2 -1,-1.4 1.9,-1.5 5.6,-3.7 6.3,-3.7 0.5,0 0.7,1.2 0.5,2.8 -0.3,2.9 -3.1,4 -5.8,2.3 z"
       id="path543" />
    <path
       d="m 607,143.3 c 0,-0.8 11.2,-8.3 12.3,-8.3 0.4,0 0.7,1.1 0.7,2.5 0,1.6 -0.6,2.5 -1.5,2.5 -0.8,0 -1.5,0.5 -1.5,1 0,0.6 -0.7,1 -1.5,1 -0.8,0 -1.5,0.5 -1.5,1 0,0.6 -1.6,1 -3.5,1 -1.9,0 -3.5,-0.3 -3.5,-0.7 z"
       id="path545" />
    <path
       d="m 621,134.3 c 0,-0.8 14.1,-10.3 15.3,-10.3 0.4,0 0.7,1.1 0.7,2.5 0,1.6 -0.6,2.5 -1.5,2.5 -0.8,0 -1.5,0.5 -1.5,1 0,0.6 -0.7,1 -1.5,1 -0.8,0 -1.5,0.5 -1.5,1 0,0.6 -0.7,1 -1.5,1 -0.8,0 -1.5,0.5 -1.5,1 0,0.6 -1.6,1 -3.5,1 -1.9,0 -3.5,-0.3 -3.5,-0.7 z"
       id="path547" />
    <path
       d="m 662,121.5 c 0,-4 2.4,-4.9 3.4,-1.2 1,3.7 0.7,4.7 -1.4,4.7 -1.6,0 -2,-0.7 -2,-3.5 z"
       id="path549" />
    <path
       d="m 638,123.3 c 0,-0.8 11.2,-8.3 12.3,-8.3 0.4,0 0.7,1.1 0.7,2.5 0,1.6 -0.6,2.5 -1.5,2.5 -0.8,0 -1.5,0.5 -1.5,1 0,0.6 -0.7,1 -1.5,1 -0.8,0 -1.5,0.5 -1.5,1 0,0.6 -1.6,1 -3.5,1 -1.9,0 -3.5,-0.3 -3.5,-0.7 z"
       id="path551" />
  </g>
  <g
     fill="#f3ba1b"
     id="g615"
     transform="translate(-2.5,-0.79274255)">
    <path
       d="m 104.2,400.8 c 0.2,-1.3 1.1,-2.4 2.1,-2.6 1,-0.2 2.8,-1.4 4.1,-2.6 1.4,-1.2 3.7,-2.8 5.3,-3.6 1.5,-0.8 3.2,-2.1 3.6,-2.7 0.4,-0.7 2.2,-1.3 3.9,-1.3 2.7,0 2.9,0.2 1.7,1.6 -1.5,1.9 -18.9,13.4 -20.1,13.4 -0.5,0 -0.8,-1 -0.6,-2.2 z"
       id="path555" />
    <path
       fill="url(#lg0)"
       d="m 128.5,382.5 c 1.2,-7.1 0.8,-10.8 -2.5,-21 -6.4,-19.8 -16.8,-40.5 -25.2,-50 -4.2,-4.8 -10.4,-8.4 -14.5,-8.5 -1.7,0 -2.5,-1.1 -3.8,-4.7 C 79.1,288.2 71.3,281 63.7,281 c -1.5,0 -4.5,-0.9 -6.5,-1.9 -2,-1 -5.6,-2.4 -8,-3 -3.9,-1.1 -4.2,-1.4 -4.2,-4.6 0,-1.9 0.5,-3.5 1.1,-3.5 2.3,0 17.1,-7 20,-9.4 2.8,-2.4 3.7,-2.5 13.7,-2.5 10.9,0 21.1,-1.9 24.2,-4.5 0.8,-0.7 2.4,-1.6 3.4,-2 2.2,-0.8 35.8,-6.6 38.1,-6.6 1.3,0 1.5,3.1 1.5,20.4 0,23.1 1.4,43.8 3.5,51.1 0.7,2.8 1.9,7.8 2.6,11.2 1.5,7.9 2.7,9 7.9,7.4 8.4,-2.5 21.4,-18 26.5,-31.6 l 2.6,-6.8 -1.6,-14.6 c -2.7,-25.1 -4.6,-38.6 -5.6,-39.6 -2.2,-2.2 -0.5,-3.4 6.9,-5 4.2,-0.9 18.6,-4.3 31.9,-7.6 13.3,-3.2 25.3,-5.9 26.6,-5.9 h 2.5 l -2.8,8.8 c -4.7,14.6 -5.5,20.1 -3.5,24.8 1,2.1 1.8,5.8 1.9,8.1 0.2,5.4 3.4,9.8 7,9.8 3.9,-0.1 3.5,3.5 -0.6,6 -5,2.9 -16,14.5 -18.7,19.6 -2.3,4.3 -2.9,4.8 -7.7,5.8 -14.5,3.3 -46.6,31.5 -51.3,45.1 -1.3,3.8 -0.5,15 1.1,15 0.5,0 2.4,1.1 4.1,2.4 1.8,1.3 4.9,2.7 7,3.1 2.8,0.6 3.7,1.2 3.7,2.7 0,1.8 -0.4,1.9 -3.7,1.3 -8.3,-1.5 -13.3,-6 -16.8,-15.1 -1.1,-2.9 -1.4,-3.2 -1.2,-1.2 0.3,1.9 0,2.5 -1,2.1 -0.7,-0.3 -5.5,0.2 -10.6,1.1 -17.3,3.2 -25.2,4.8 -25.5,5 -0.1,0.2 0.2,2.5 0.8,5.1 1.2,5.5 0.1,10.2 -3.2,13.1 l -2.1,1.9 z"
       id="path557"
       style="fill:url(#linearGradient1476)" />
    <path
       d="m 297,376 c 0,-0.5 -0.9,-1 -2.1,-1 -3.4,0 -5.9,-1.9 -5.9,-4.5 v -2.4 l 4.3,2.4 c 2.3,1.3 5.7,2.6 7.5,3 4.4,0.9 4.3,3.5 -0.3,3.5 -1.9,0 -3.5,-0.4 -3.5,-1 z"
       id="path559" />
    <path
       d="m 306,375.7 c 0,-0.7 2.1,-2 4.8,-2.8 2.6,-0.9 5.5,-1.9 6.5,-2.4 1.6,-0.6 1.8,-0.4 1.5,1.6 -0.2,1.8 -1,2.5 -3,2.7 -1.6,0.2 -2.8,0.8 -2.8,1.3 0,0.5 -1.6,0.9 -3.5,0.9 -2.2,0 -3.5,-0.5 -3.5,-1.3 z"
       id="path561" />
    <path
       d="m 197,373.3 c 0,-1.6 1.3,-2.4 6.3,-3.8 3.4,-1 6.6,-2.2 7.2,-2.7 0.5,-0.4 2.2,-0.8 3.7,-0.8 1.7,0 2.8,-0.5 2.8,-1.4 0,-1.4 2.9,-2.6 6.8,-2.6 4.8,0 1.3,2.6 -9.6,7.3 -13.9,5.9 -17.2,6.7 -17.2,4 z"
       id="path563" />
    <path
       d="m 281.5,364 c -2,-3.8 -2,-9 0,-9 0.8,0 1.5,0.6 1.5,1.3 0,0.8 1.1,3.5 2.4,6 l 2.3,4.7 h -2.3 c -1.6,0 -2.8,-1 -3.9,-3 z"
       id="path565" />
    <path
       d="m 228.2,360.8 c 0.2,-1.5 1.3,-2.6 3.3,-3.3 1.7,-0.5 3.2,-1.2 3.5,-1.6 0.3,-0.3 4,-2 8.2,-3.7 8.4,-3.5 13.8,-4.2 13.8,-1.7 0,0.8 -0.5,1.5 -1.1,1.5 -1.1,0 -14.1,5.1 -24.2,9.4 -3.8,1.7 -3.8,1.7 -3.5,-0.6 z"
       id="path567" />
    <path
       d="m 261,362.6 c 0,-0.3 0.7,-2.1 1.7,-4 1.3,-2.9 1.4,-3.8 0.3,-5.1 -0.7,-0.8 -1.9,-1.5 -2.6,-1.5 -0.8,0 -1.4,-0.7 -1.4,-1.6 0,-1.1 0.8,-1.4 3.3,-1.2 l 3.2,0.3 v 6.5 c 0,6 -0.2,6.5 -2.2,6.8 -1.3,0.2 -2.3,0.1 -2.3,-0.2 z"
       id="path569" />
    <path
       d="m 434.5,360.3 c -0.3,-1.5 -1.5,-3.9 -2.6,-5.5 l -2,-2.8 h 2.5 c 2.7,0 5.6,4.4 5.6,8.7 0,3.2 -2.6,2.9 -3.5,-0.4 z"
       id="path571" />
    <path
       d="m 326.3,358.5 c 0.6,-1.9 1.6,-3.5 2.4,-3.5 0.8,0 1.3,1.3 1.3,3.5 0,3 -0.3,3.5 -2.4,3.5 -2.3,0 -2.4,-0.2 -1.3,-3.5 z"
       id="path573" />
    <path
       d="m 376.2,358.5 c 0.1,-1.5 1.1,-3.3 2.2,-3.9 1,-0.6 3,-2.1 4.4,-3.3 1.4,-1.3 3.3,-2.3 4.2,-2.3 1,0 2,-0.7 2.4,-1.5 0.6,-1.7 6.6,-2.1 6.6,-0.5 0,0.5 -1.7,1.8 -3.8,2.9 -3.3,1.7 -8.9,5.6 -15,10.4 -1.1,0.9 -1.3,0.5 -1,-1.8 z"
       id="path575" />
    <path
       d="m 280,351 c 0,-3.8 4.1,-11.2 6.9,-12.5 1.1,-0.5 2.1,-1.3 2.1,-1.8 0,-2.1 8.7,-4.7 16,-4.7 7.4,0 16,2.6 16,4.8 0,0.5 0.9,1.2 2,1.5 1.1,0.3 2,1.2 2,2.1 0,0.9 0.4,1.6 1,1.6 1.5,0 4,5.6 4,9 0,4.4 -2.4,3.8 -3.9,-1 -0.6,-2.1 -2.3,-5.3 -3.8,-7 -2.8,-3.3 -10.5,-7.8 -11,-6.4 -0.3,1 -9.6,1 -11.1,0 -1.9,-1.1 -9.9,3.2 -13,6.9 -1.6,2.1 -3.3,5.3 -3.7,7.1 -0.8,4.3 -3.5,4.6 -3.5,0.4 z"
       id="path577" />
    <path
       d="m 398,345 c 0,-1.6 0.7,-2 3.5,-2 4,0 4.9,2.4 1.3,3.4 -3.8,1 -4.8,0.7 -4.8,-1.4 z"
       id="path579" />
    <path
       d="m 508,343.8 c 0,-3.9 1.2,-6.8 2.6,-6.8 1,0 1.4,1.3 1.4,4.5 0,3.8 -0.3,4.5 -2,4.5 -1.4,0 -2,-0.7 -2,-2.2 z"
       id="path581" />
    <path
       d="m 581.8,345.3 c -3.3,-0.8 -2,-3.3 1.7,-3.3 2.8,0 3.5,0.4 3.5,2 0,2 -1.4,2.3 -5.2,1.3 z"
       id="path583" />
    <path
       d="m 570.7,338 c -0.7,-2.8 0.3,-6 1.9,-6 1,0 1.4,1.3 1.4,4 0,4.3 -2.3,5.7 -3.3,2 z"
       id="path585" />
    <path
       d="m 538,333.5 c 0,-3.3 0.4,-4.5 1.5,-4.5 0.8,0 1.5,0.3 1.5,0.8 0.1,0.4 0.3,2.4 0.6,4.5 0.5,3.3 0.3,3.7 -1.5,3.7 -1.8,0 -2.1,-0.6 -2.1,-4.5 z"
       id="path587" />
    <path
       d="m 509,332.8 c 0,-3 1.3,-5.8 2.6,-5.8 0.9,0 1.4,1.2 1.4,3.5 0,2.8 -0.4,3.5 -2,3.5 -1.1,0 -2,-0.6 -2,-1.2 z"
       id="path589" />
    <path
       fill="url(#lg0)"
       d="m 471.6,274.3 c -0.3,-31.8 -0.9,-65.3 -1.2,-74.5 -0.6,-16.3 -0.6,-16.8 1.3,-16.8 1.7,0 2.2,0.9 2.7,4.8 0.7,5.6 5.3,15.6 8.8,19.4 7.6,8 21.7,9 29.8,2.1 1.7,-1.4 3,-3.1 3,-3.9 0,-0.8 0.7,-1.4 1.7,-1.4 1.5,0 1.5,2.5 0.9,30.8 -0.7,29.7 -0.2,38 2.3,42.1 2.2,3.4 6.9,1.5 29,-11.7 13,-7.8 23,-13.2 24.5,-13.2 3.9,0 3.6,5 -0.6,10 -3.5,4.1 -8,11.3 -5.7,9.3 0.7,-0.7 2.8,-1.3 4.7,-1.3 h 3.4 l -0.4,10.8 c -0.3,5.9 -1.1,12.1 -1.8,13.7 l -1.4,3 -0.5,-4 c -0.5,-3.1 -0.8,-3.5 -1.2,-1.9 -0.5,1.8 -2.1,2.4 -10.5,3.8 -12.5,2.1 -23.3,4.6 -23.8,5.5 -0.3,0.4 0.4,3.1 1.4,6.1 0.9,3 2,8.1 2.4,11.3 0.6,5.3 0.5,5.7 -1.4,5.7 -1.5,0 -2,-0.7 -2,-2.6 0,-1.4 -0.8,-5.8 -1.7,-9.8 -1.8,-7.6 -5.5,-12.6 -9.3,-12.6 -3.1,0 -7.6,5 -8.4,9.3 -0.5,2.8 -1.2,3.7 -2.6,3.7 -2.4,0 -2.5,-1.8 -0.5,-6.7 1.7,-4 1.3,-5.2 -1,-3.3 -0.9,0.8 -8.7,2.6 -17.3,4.1 -8.6,1.5 -16.4,3 -17.4,3.4 -1.1,0.4 -1.8,0.1 -2.1,-1.2 -0.4,-1.7 -0.6,0.2 -1.2,14.7 -0.4,8.9 -0.4,9 -1.9,9 -1.1,0 -1.4,-10 -2,-57.7 z"
       id="path591"
       style="fill:url(#linearGradient1478)" />
    <path
       d="M 613.7,326.3 C 613.3,326 613,324.4 613,322.8 V 320 l 2,2 c 1.1,1.1 2.7,2 3.5,2 0.8,0 1.5,0.7 1.5,1.5 0,1.5 -5,2.2 -6.3,0.8 z"
       id="path593" />
    <path
       d="m 510,324.3 c 0,-3.4 1.2,-6.3 2.6,-6.3 1,0 1.4,1.3 1.4,4 0,3.3 -0.3,4 -2,4 -1.2,0 -2,-0.7 -2,-1.7 z"
       id="path595" />
    <path
       d="m 621,325.2 c 0,-0.6 1.6,-1.9 3.6,-3.1 l 3.5,-2.1 -0.3,2.7 c -0.2,2.3 -0.8,2.9 -3.5,3.1 -1.8,0.2 -3.3,-0.1 -3.3,-0.6 z"
       id="path597" />
    <path
       d="m 379,312.3 c 0,-4 0.4,-7.3 0.8,-7.3 3.5,0 4.4,8.4 1.2,12.1 l -1.9,2.4 z"
       id="path599" />
    <path
       d="m 571,312.3 c 0,-5.3 1,-8.3 2.6,-8.3 1,0 1.4,1.6 1.4,6 0,5.3 -0.2,6 -2,6 -1.6,0 -2,-0.7 -2,-3.7 z"
       id="path601" />
    <path
       d="m 637.8,313.8 c 0.6,-0.8 5.2,-4.2 10.2,-7.7 8.5,-5.9 9,-6.1 9,-3.8 0,2.9 -6.5,7.7 -10.4,7.7 -1.8,0 -2.5,0.6 -2.8,2.3 -0.2,1.7 -1.1,2.3 -3.7,2.5 -2.9,0.3 -3.3,0.1 -2.3,-1 z"
       id="path603" />
    <path
       d="m 285.4,303.5 c -0.3,-1.3 -1.2,-2.9 -2,-3.6 -2.3,-1.9 -1.6,-6.4 1.7,-10.5 6.9,-8.6 22.1,-30.4 21.7,-31.3 -0.1,-0.5 -5.5,0.6 -11.8,2.4 -12.9,3.8 -16,4.2 -16,2 0,-0.8 0.6,-1.5 1.3,-1.5 0.7,0 4.2,-3 7.8,-6.7 9.9,-10.3 10.1,-10.7 3.5,-7.7 -5.8,2.6 -13.6,4.3 -13.6,2.9 0,-0.4 3.6,-4.6 8,-9.2 7.9,-8.4 9.5,-11 4.8,-8 -2.9,1.9 -12.7,5.1 -13.4,4.4 -0.3,-0.3 1.5,-4.5 3.9,-9.3 2.5,-4.9 5.2,-10.6 6.1,-12.8 l 1.6,-3.8 -2.5,0.6 c -2.3,0.6 -2.4,0.5 -1.4,-1.7 0.6,-1.4 2.5,-2.9 4.2,-3.5 1.8,-0.5 9.1,-3.1 16.4,-5.6 12.8,-4.5 18.3,-5.6 18.3,-3.7 0,0.9 -2,5.7 -10,24 -3.4,7.9 -3.8,14.3 -1,17.6 0.7,0.8 1.3,3.7 1.4,6.4 0.2,5.9 2.6,9.1 6.8,9.1 4.4,0 6.6,-1.6 9.3,-7 3.2,-6.2 5.8,-16.2 8.6,-32 2.5,-14.4 4.8,-20.1 9.2,-22.9 3.8,-2.5 3.3,-2.6 -2.2,-0.6 -2.2,0.8 -4.1,1 -4.1,0.5 0,-1.5 8.5,-6 11.4,-6 2.4,0 2.6,0.3 2,2.3 -0.4,1.2 -1.3,4.2 -1.9,6.7 -0.7,2.5 -2.5,7.7 -4,11.5 -3.1,7.8 -3.6,13.4 -1.5,16.1 0.8,0.9 1.5,3.8 1.5,6.3 0.1,13.6 18.3,18.1 27,6.7 2.1,-2.8 5.8,-13.5 5,-14.4 -0.2,-0.2 -1.3,0.2 -2.5,0.8 -1.2,0.6 -2.8,0.9 -3.5,0.6 -1.2,-0.4 -1.1,-1.3 0.5,-4.8 1.8,-4 2.7,-9.8 1.4,-9.8 -0.3,0 -1.5,0.5 -2.6,1.1 -2,1.1 -2,0.9 -1.4,-2.7 0.4,-2.2 2.9,-8.3 5.6,-13.6 2.8,-5.3 5,-10 5,-10.3 0,-0.4 -0.9,-0.3 -2,0 -2.1,0.7 -2.5,-0.1 -1.2,-2.2 0.7,-1.2 11.7,-3.2 17.3,-3.3 h 2.6 l -1.9,5.7 c -1.5,4.5 -1.9,7.5 -1.5,13.3 0.6,9.2 2.7,16.8 4.5,16.2 0.6,-0.2 1.2,0.4 1.2,1.3 0,5.6 -38.5,40.8 -71.2,65.1 -34.1,25.3 -44.8,31.1 -46.4,24.9 z"
       id="path605" />
    <path
       fill="url(#lg0)"
       d="m 663.5,296 c 0.3,-0.5 8.5,-6.4 18.3,-13.1 9.7,-6.7 18.2,-12.6 18.7,-13.2 1.2,-1.1 -2.6,-0.2 -7,1.8 -5.2,2.2 -10.4,3.6 -11.5,3 -0.5,-0.3 -2.6,0.1 -4.6,1 -4.6,1.9 -5.3,1.9 -2.8,0 1.9,-1.4 1.8,-1.4 -0.3,-1 -1.1,0.2 -3.5,1.1 -5.2,1.9 -1.6,0.9 -4.4,1.6 -6.1,1.6 -1.6,0 -3,0.4 -3,0.9 0,0.5 -2.4,1.1 -5.2,1.4 -2.9,0.3 -6.2,0.7 -7.3,1 -1.1,0.3 -6.9,1.2 -13,2.1 -6,0.9 -12.8,2.1 -15,2.6 -3.3,0.7 -4.2,0.6 -5.2,-0.7 -1.1,-1.5 -1.3,-1.2 -1.3,1.8 -0.1,3.2 -0.1,3.3 -1.5,1.5 -0.8,-1.1 -1.5,-3.6 -1.5,-5.7 0,-2.1 -0.8,-4.7 -2,-6.2 -2.7,-3.4 -2.7,-10.5 0,-14 1.9,-2.4 2,-3.8 1.8,-22.5 l -0.3,-20 -15.5,5.9 c -8.9,3.4 -17.1,5.9 -19.2,5.9 -3.5,0 -3.8,-0.2 -3.8,-2.8 0,-2.3 3.4,-5.9 20,-21.7 11,-10.4 20.3,-19.8 20.5,-20.9 0.2,-1.2 0.6,-7.2 0.7,-13.4 l 0.3,-11.2 h -2.9 c -2.7,0 -2.8,-0.2 -2.4,-3.7 0.4,-3.2 0.1,-3.7 -2.4,-4.7 -2.5,-0.9 -2.9,-1.5 -2.6,-4.5 0.3,-3.3 1.2,-4 25.7,-19.8 21.4,-13.7 26,-16.3 29.2,-16.3 2.9,0 4.2,0.6 5.8,2.6 2,2.5 2.1,4 2.1,22 v 19.3 l 3.8,1.1 c 2,0.6 6.7,1.3 10.4,1.7 5.6,0.5 6.8,0.9 7.9,2.9 0.7,1.3 2.7,2.9 4.6,3.6 2.8,1 3.3,1.7 3.3,4.3 -0.1,2.6 -1.3,3.9 -10.1,10.4 -12.8,9.4 -25.8,21.6 -27.6,25.8 -1.8,4.3 -1.8,58 0,63.3 1.1,3.3 1.4,3.5 6.5,3.8 2.8,0.2 5.2,-0.1 5.2,-0.6 0,-1.4 13.7,-10.2 15.9,-10.2 1,0 3.2,0.7 4.7,1.5 2.2,1.2 4.6,1.4 9.7,0.9 l 6.7,-0.7 v 3.1 c 0,2.8 -0.9,3.7 -7.5,8.2 -4.1,2.7 -7.9,5 -8.5,5 -0.5,0 -1,0.4 -1,0.9 0,1 -10.5,8.1 -12,8.1 -0.5,0 -1,0.4 -1,0.9 0,1.5 -7.9,6.1 -10.5,6.1 -1.5,0 -2.3,-0.4 -2,-1 z"
       id="path607"
       style="fill:url(#linearGradient1480)" />
    <path
       d="m 516,194.1 c 0,-1.3 -0.5,-1.9 -1.4,-1.5 -1.1,0.4 -1.1,-0.3 0.2,-4 2.4,-6.6 4.4,-6.1 4,1.1 -0.2,3.4 -0.8,5.8 -1.5,6.1 -0.8,0.2 -1.3,-0.5 -1.3,-1.7 z"
       id="path609" />
    <path
       d="m 416.3,189.1 c 0.3,-1.6 0.9,-4 1.3,-5.5 0.5,-2 0.2,-2.6 -1,-2.6 -0.9,0 -1.6,-0.4 -1.6,-1 0,-1.4 6.4,-1.2 7.8,0.2 1.3,1.3 1.6,7.5 0.6,10.2 -0.4,1 -1.8,1.6 -4.1,1.6 -3.4,0 -3.5,-0.1 -3,-2.9 z"
       id="path611" />
    <path
       fill="url(#lg0)"
       d="m 494.5,184.6 c -5.6,-2.4 -5.8,-3.5 -2.4,-11.7 5.4,-12.9 5.2,-12.1 2.8,-10.8 -2.7,1.4 -3.1,0.9 -1.6,-2 1.5,-3.1 11.5,-7 17.8,-7 7.1,-0.1 8.3,1.8 8.7,14.3 0.3,8.4 0.1,10.4 -1.2,11.5 -1.4,1.2 -1.6,1 -1.6,-0.9 0,-2.1 -0.1,-2.2 -2.2,-0.6 -4.6,3.2 -12.4,7.4 -14.8,7.9 -1.4,0.3 -3.9,0 -5.5,-0.7 z"
       id="path613"
       style="fill:url(#linearGradient1482)" />
  </g>
  <g
     fill="#ffffff"
     id="g647"
     transform="translate(-2.5,-0.79274255)">
    <path
       d="m 154.6,692 c -0.3,-0.8 -1.7,-4.9 -3.2,-9 -6.1,-17.1 -17.2,-36.4 -26.8,-46.4 l -5.5,-5.7 -1.6,-17.2 c -0.9,-9.5 -1.8,-23 -2,-30.2 -0.2,-7.1 -0.7,-16.4 -1.1,-20.6 -0.6,-7.3 -0.5,-7.9 3.1,-15.9 4.6,-10.2 6.5,-16.9 6.5,-23.3 0,-3.3 1.2,-7.6 4,-14.1 4.2,-10 6.4,-18.1 5.5,-20.4 -0.3,-0.8 -1.2,-8.7 -2.1,-17.6 -1.6,-17.6 -2.6,-22.3 -5.6,-27.7 -2.9,-5.2 -5.2,-6.2 -16,-6.9 -11.3,-0.8 -19.1,-3.9 -19.6,-7.8 -0.3,-1.8 -1,-2.2 -3.6,-2.2 -1.9,0 -5.5,-1 -8.2,-2.1 -2.6,-1.2 -7.6,-2.4 -11.1,-2.7 -6.5,-0.5 -8,-1.5 -4,-2.8 1.2,-0.3 8.5,-3.7 16.2,-7.4 24.7,-11.8 45.7,-25.5 49.1,-32.1 1.3,-2.5 1.3,-3.6 0,-9.1 C 124,350.9 110.9,322.9 100.8,311.6 96,306.1 92.4,304 87.7,304 84.5,304 84.2,303.7 83.1,299.7 80.2,289.6 73,282 66.2,282 64.4,282 60.6,280.8 57.7,279.3 53,276.8 51.2,276.5 39,276 l -13.5,-0.5 11,-3.9 C 53.1,265.7 64,260.9 65,259 c 1.4,-2.5 8.2,-4.2 14.8,-3.5 7.2,0.8 22.2,-1.8 23.9,-4 1.3,-1.9 3.9,-2.6 23.5,-6 16.7,-2.9 19.8,-3.1 19.8,-1 0,1.7 0.1,1.6 -17.5,4.5 -15.8,2.6 -20.5,3.8 -22.5,5.5 -3,2.7 -13.3,4.7 -24.6,4.8 -8.8,0.2 -11.6,0.6 -13,1.8 -2.3,2 -8.8,5.4 -16.4,8.5 -5.5,2.2 -5.5,2.2 -2.5,3 1.7,0.4 5.1,1.7 7.7,3 2.6,1.3 6.1,2.4 7.8,2.4 7.4,0 14.9,6.5 19.1,16.5 2,4.8 2.5,5.3 5.9,5.9 10.9,1.7 27,26.2 37.4,56.8 4.4,12.7 5.4,19.5 3.6,23.8 -2.8,6.8 -20.5,19.2 -44.6,31.4 l -12.7,6.4 4.1,2.1 c 2.8,1.4 6,2.1 9.9,2.1 7.4,0 9.4,1.1 7,3.8 -0.9,1 -1.7,2.1 -1.7,2.4 0,1.5 10,3.8 16.4,3.8 17.1,0.1 22.1,7.4 24.8,36.1 2.3,25 2,28.8 -3.1,40.4 -2.8,6.6 -4.3,11.4 -4.3,14 0.1,6 -2.3,15.2 -6.2,23.9 l -3.6,7.9 1,23.1 c 0.6,12.7 1.7,29.3 2.4,36.8 l 1.3,13.7 5.3,5.8 c 3,3.2 7.8,9.5 10.8,14.1 5.4,8.3 14.5,26.4 15.7,31.5 0.4,1.5 1.1,2.7 1.5,2.7 2,0 9.7,-23.5 13,-39.9 5.1,-25.5 6.4,-42.7 6.4,-88.6 0.1,-23.6 -0.3,-59.5 -0.8,-79.6 l -0.8,-36.7 4.3,-4.7 c 5.3,-5.7 20.3,-13.2 38.9,-19.5 6.9,-2.3 13.7,-4.8 15.1,-5.6 7.6,-3.9 19.6,-21.8 26.4,-39.7 1.3,-3.4 3.1,-7.7 4,-9.4 2.5,-5.1 1.3,-7.3 -4,-7.3 -5.1,0 -11.7,2.4 -29.5,10.5 -27,12.3 -33.2,14 -43.4,11.4 -5.4,-1.3 -11.4,-6.2 -13.2,-10.5 -5,-12 2,-25.5 21.9,-42.3 14.2,-11.9 23.2,-17.8 29.1,-19.2 4.8,-1 5.6,-1.6 7.7,-5.3 9.7,-17.4 37.1,-33.7 70.4,-41.7 9.1,-2.2 12.5,-2.4 12.5,-0.8 0,1.2 -13.7,21.2 -22.8,33.4 -5.4,7.1 -5.9,8.2 -4.6,9.6 0.8,0.8 1.4,2 1.4,2.5 0,0.5 0.4,1.5 0.9,2.3 0.7,1 4,-0.8 14.7,-8 32.2,-21.7 57.6,-42.2 82.2,-66.3 12.1,-11.9 16.5,-15.7 17.4,-14.8 3,3 -36.7,39.7 -70.3,64.9 -13.6,10.2 -44.5,31.3 -45.9,31.3 -0.4,0 -1,-1.8 -1.4,-4 -0.7,-4.5 -1.1,-4.6 -6.3,-2.5 -1.9,0.8 -4,1.5 -4.5,1.5 -0.5,0 3.3,-5.5 8.4,-12.2 13.8,-18 24.1,-32.8 23.4,-33.5 -0.9,-1 -19.3,4.2 -29.9,8.5 -19.7,8 -35.7,20.1 -42.7,32.5 -2.8,5 -3.6,5.7 -6.3,5.7 -4.8,0.1 -10.2,2.9 -21.2,11.2 -17.6,13.3 -28.9,25.6 -31.5,34.4 -2.3,7.8 1.7,16 9.5,18.9 7.2,2.8 15.1,1.7 27.5,-3.7 35.4,-15.5 39.7,-17.2 44.6,-17.6 8.2,-0.7 12.4,3.2 10.4,9.5 -4.2,13.3 -14.6,34.5 -21.2,43.1 -6.5,8.4 -10.5,10.9 -25.6,16.2 -19.1,6.6 -28.2,10.5 -34.4,14.8 -8.6,6 -8.7,6.6 -7.6,34.7 0.5,13.2 1,47.4 1.1,76 0.2,44.1 -0.1,54.4 -1.6,67.5 -2.6,23.1 -6.4,43.1 -10.8,56.5 -4.4,13.4 -11.4,27.9 -12.3,25.5 z"
       id="path617" />
    <path
       d="m 345.5,632.7 c -16.1,-4.1 -26.1,-15.2 -29.6,-32.6 -1.8,-9.2 -0.6,-26.3 2.6,-39.1 7.3,-28.8 20.7,-52.6 42.4,-75.2 5.7,-5.9 10.7,-10.8 11.1,-10.8 0.4,0 1.1,1.5 1.4,3.3 1.2,6.2 2,6.4 7.1,2.2 7.1,-5.7 16.8,-17.7 20.4,-24.9 1.7,-3.5 3.1,-6.6 3.1,-7 0,-0.3 -1.7,0.4 -3.7,1.7 -8.4,5.1 -14.4,7 -22.8,6.9 -28.4,-0.2 -40.1,-22.7 -29.3,-56.2 7.6,-23.8 24.9,-46 42.4,-54.6 7.6,-3.8 8,-3.9 18.9,-3.9 9,0 11.8,0.4 15.5,2.1 8.3,3.9 13.8,11.8 14.2,20.3 l 0.1,4 4.3,-0.6 c 5.5,-0.7 9.1,0.2 10.4,2.8 1.9,3.5 -5.2,22.5 -14.5,38.3 -2.7,4.7 -2.9,5.9 -3.8,21.8 -0.6,9.3 -0.7,17.1 -0.4,17.4 0.3,0.3 1.5,0 2.7,-0.6 1.2,-0.6 2.4,-1 2.6,-0.7 0.3,0.3 -2,7.6 -5.1,16.3 -12.3,34.6 -20.3,64.5 -23.6,88.1 -3.2,23.4 -9.5,44.2 -17,56.9 -5.4,9.1 -14.2,17.9 -21.4,21.5 -5.2,2.6 -7.9,3.2 -14.7,3.5 -4.8,0.2 -10.4,-0.2 -13.3,-0.9 z m 27.3,-6.7 c 17.4,-9.3 29.5,-34.7 35.2,-74 3.6,-24.9 9.4,-47.4 20.7,-80.6 5.2,-15 5.7,-17.3 4.4,-18.1 -1.4,-0.9 -1.6,-3.5 -1.3,-18.2 0.3,-19.4 0.8,-21.5 7.5,-33.4 4.1,-7.1 10.2,-22.4 10.9,-27.2 0.3,-1.7 -0.3,-2 -4.2,-2 -2.5,0 -5.9,0.3 -7.5,0.7 l -3.1,0.7 v -6.7 c -0.1,-9.6 -3.1,-14.5 -11.4,-18.8 -5.2,-2.7 -19.3,-3.1 -26.1,-0.9 -18.9,6.2 -36.8,27.4 -46,54.5 -2.9,8.4 -3.3,10.8 -3.3,20.5 -0.1,10.1 0.1,11.5 2.7,16.8 4.8,9.7 12.6,13.9 26.2,14 8.8,0.1 14,-1.7 24.9,-8.7 3.1,-2 5.9,-3.6 6.2,-3.6 1.2,0 -0.7,8.6 -3.1,13.9 -1.4,2.9 -4.5,8.1 -6.9,11.5 -5.5,7.8 -21.3,22.8 -23.4,22.4 -0.9,-0.2 -2.3,-1.7 -3.2,-3.3 -0.8,-1.7 -1.6,-3.2 -1.8,-3.4 -0.4,-0.8 -7,5.9 -14.1,14.4 -24.3,28.8 -38.2,64.4 -36.9,94.6 0.7,16.6 6,27.2 16.8,33.6 6.9,4.2 11.6,5.3 22,4.9 7.5,-0.2 9.3,-0.6 14.8,-3.6 z"
       id="path619" />
    <path
       d="m 356.8,584.5 c -4.1,-2.3 -5.8,-6.4 -5.8,-14.3 0,-8.8 3.1,-15.3 17.4,-36.6 10.5,-15.5 26.8,-38 28.4,-39 0.9,-0.6 -10.1,65.6 -11.9,71.3 -2.1,6.4 -5.6,12.5 -9.3,16.1 -3.2,3 -4.3,3.4 -9.9,3.7 -4.2,0.2 -7.1,-0.2 -8.9,-1.2 z m 12.5,-2.9 c 4.4,-1.8 8.1,-6.4 10.6,-13 1.9,-5 11.6,-58.4 10.8,-59.2 -1.1,-1.1 -27,37.3 -32.2,47.6 -6,11.9 -5.3,22.4 1.5,24.7 4.6,1.6 5.5,1.6 9.3,-0.1 z"
       id="path621" />
    <path
       d="m 375.6,424.9 c -3.8,-3 -5.6,-7.6 -5.6,-14.1 0.1,-9.6 5.8,-18.1 17.2,-25.8 11.6,-7.7 20.1,-8.4 22.9,-1.8 2,4.8 0.7,16.7 -2.6,23.5 -7.2,14.6 -24.1,24.3 -31.9,18.2 z m 12.9,-3.8 c 4.7,-2.1 12.5,-10.1 15.4,-15.9 4,-7.9 4.5,-20.3 0.9,-22.5 -3.5,-2.3 -19.9,6.9 -25.9,14.5 -4.1,5.2 -5.9,11.6 -4.7,17.7 1.4,7.8 6.2,9.9 14.3,6.2 z"
       id="path623" />
    <path
       d="m 284,515.8 c -8.7,-5.9 -10.8,-14.2 -12,-46.7 -0.5,-12.8 -0.5,-25.3 -0.1,-27.8 0.5,-2.4 2.5,-6.8 4.5,-9.7 l 3.6,-5.2 v -11.7 -11.6 l 23.2,-7.6 c 12.7,-4.1 23.4,-7.3 23.6,-7 0.7,0.6 -1.5,20.1 -4.9,43.5 -6.6,45.2 -6.6,43.5 0,46.6 4.8,2.3 8.7,1.2 28,-8.2 8.5,-4.1 15.6,-7.3 15.8,-7 0.2,0.2 -6.5,7.3 -14.9,15.8 -24.2,24.5 -43.4,37.5 -57,38.5 -5.5,0.4 -6.8,0.2 -9.8,-1.9 z m 19.1,-4.3 c 6.1,-2.4 15.1,-8.2 23.8,-15.2 7.1,-5.7 23.2,-20.6 22.7,-21 -0.1,-0.2 -3.6,1.2 -7.7,3.1 -12.2,5.6 -15.1,6.2 -20.4,4.2 -9.1,-3.5 -9.9,-7.3 -6.5,-29.6 2.7,-17.1 8.2,-59.2 7.8,-59.5 -0.2,-0.1 -9.2,2.7 -20,6.2 l -19.8,6.4 v 11.5 c 0,10.7 -0.2,11.8 -2.5,14.8 -5.4,7.1 -5.5,8.2 -4.5,36.3 0.9,26.4 1.6,31.7 5,38.2 4.2,8.3 9.8,9.5 22.1,4.6 z"
       id="path625" />
    <path
       d="m 465,425.1 c 0,-2.6 0.4,-7.1 1,-10 1.9,-9.9 4,-39.9 5.1,-72.6 1.1,-32.7 0.7,-71.1 -1.2,-124.7 -0.6,-19.6 -0.6,-29.1 0.2,-32.7 1,-4.9 2.8,-6.9 3,-3.3 0.3,6.5 0.7,34.6 1.4,94.2 0.9,78.5 -0.2,109.3 -4.7,138.8 -0.6,4 -0.8,7.5 -0.6,7.8 0.4,0.4 46.6,-26.8 49.6,-29.2 0.2,-0.1 -1.7,-2.2 -4.1,-4.6 -6.7,-6.7 -7.1,-8.8 -6.4,-33.7 0.8,-30.9 4.3,-50.2 10.2,-56.5 2,-2.1 3.3,-2.6 7.3,-2.6 11.7,0 14.8,10.4 15.9,52.3 0.6,23.8 0.7,25.7 2.4,25.7 1,0 2,-0.4 2.3,-0.9 0.3,-0.4 9.8,-6.6 21,-13.7 11.3,-7.1 20.4,-12.9 20.3,-13.1 -0.2,-0.1 -3.1,-0.6 -6.7,-1.2 -11.1,-1.8 -10.6,0.5 -9.2,-38.3 0.6,-18.2 1,-33.3 0.8,-33.5 -0.2,-0.2 -1.9,0.5 -3.7,1.6 -4.1,2.5 -7.9,2.7 -7.9,0.6 0,-1.6 5.4,-10.2 10.6,-17.1 2.4,-3.1 0.5,-2.2 -16.6,8.1 -23.9,14.4 -26.1,15.5 -30.2,15.5 -5.1,0 -7.5,-2.3 -8.8,-8.2 -1.1,-5.2 -0.7,-73.3 0.6,-90.6 0.4,-5.9 0.2,-7.2 -0.8,-6.6 -1,0.5 -1.1,0.4 0,-0.7 1.7,-1.9 1.5,-13.3 -0.3,-16.9 -0.9,-1.7 -2.4,-3 -3.3,-3 -3.1,0 -14.5,4.2 -19.6,7.2 -5.5,3.3 -6.9,3 -3.9,-1 2.2,-3 17.8,-10 22.5,-10.1 1.5,-0.1 3.9,1 5.5,2.3 l 2.8,2.4 -0.3,57.2 c -0.2,40.6 0,58.1 0.8,60.6 1,3 1.5,3.4 4.8,3.4 3,0 9.8,-3.7 37,-20 18.4,-11 33.6,-20 33.9,-20 0.4,0 -4.1,4.8 -9.8,10.7 -10.2,10.5 -13.7,14.6 -17.5,20.8 -1.8,2.9 -1.8,2.9 2.9,-0.9 2.7,-2.1 5.1,-3.6 5.4,-3.3 0.5,0.5 -1.2,50.7 -2.2,66.4 -0.6,9.6 -0.1,9.8 16.3,9.7 6.7,-0.1 12.2,-0.1 12.2,0.1 0,0.1 -2.8,1.9 -6.2,4.1 -3.5,2.1 -16.5,10.2 -29,18.1 -12.4,7.9 -23.6,14.3 -24.7,14.3 -4.3,0 -4.9,-2.9 -5.4,-30 -0.6,-27.6 -1.6,-36 -5,-43 -2.7,-5.5 -7.4,-7.5 -10.7,-4.5 -2.7,2.5 -5.5,10.4 -7.5,21.5 -2.2,12.7 -3.3,53.6 -1.5,57.9 1.2,2.9 7.6,9.4 11.6,11.7 1,0.7 1.7,1.4 1.4,1.7 -0.7,0.7 -60.1,36.7 -60.6,36.7 -0.2,0 -0.4,-2.2 -0.4,-4.9 z"
       id="path627" />
    <path
       d="m 296.3,376.2 c -7.2,-2.6 -11.7,-6.3 -14.7,-12.4 -5.6,-11.3 -1.2,-23.4 10.6,-29.4 13.5,-6.8 29.7,-2.1 36.1,10.5 3.5,7 3.5,12.1 0.1,18.9 -5.6,11.2 -19.9,16.7 -32.1,12.4 z m 15.8,-3.3 c 8.9,-2.7 15.5,-11.6 14.7,-20 -1.9,-19.4 -31.1,-24.4 -41.5,-7.3 -9,15 8.4,32.8 26.8,27.3 z"
       id="path629" />
    <path
       d="m 252.7,330 c -3.3,-2.6 -3.6,-7.1 -0.7,-10 2.4,-2.4 4.1,-2.5 8,-0.5 3.6,1.9 4.9,5.9 2.9,9.4 -1.9,3.5 -6.6,3.9 -10.2,1.1 z"
       id="path631" />
    <path
       d="m 612.8,325.1 -3.3,-2.9 -0.3,-22.3 c -0.3,-20.2 -0.5,-22.4 -2.3,-24.7 -2.4,-3.2 -2.4,-6.8 0.1,-11 1.8,-3 2,-5 2,-23.2 0,-11 -0.3,-20 -0.7,-20 -0.5,0 -11.6,4.1 -24.8,9 -13.1,4.9 -24.1,8.8 -24.3,8.6 -0.2,-0.2 11.4,-11.6 25.7,-25.2 L 611,188.5 V 184 c 0,-2.5 0.3,-8.2 0.7,-12.7 l 0.6,-8.3 h -4.7 -4.7 l 2.5,-3.7 c 1.4,-2 2.3,-4 2,-4.4 -0.2,-0.5 -2.9,-1.6 -6,-2.5 -4.3,-1.4 -5.2,-2 -4.2,-3 0.7,-0.7 13.7,-9.2 28.8,-18.9 25.1,-16.1 27.7,-17.6 31.4,-17.3 2.9,0.2 4.4,1 6,3.1 1.9,2.6 2.1,4.5 2.6,22 l 0.5,19.1 3.5,0.9 c 1.9,0.5 6.1,0.7 9.3,0.5 5.7,-0.4 5.8,-0.4 7.4,2.9 0.8,1.9 2.5,3.6 3.8,3.9 1.3,0.3 6.5,-0.6 11.6,-2 5.1,-1.4 9.4,-2.4 9.6,-2.2 0.2,0.1 -3,2.5 -7,5.2 -15.6,10.6 -31.6,23.1 -39.4,30.8 l -8.3,8.2 v 32.2 c 0,20.4 0.4,33 1,34.3 1.3,2.4 5.9,2.5 10.3,0.3 1.8,-0.9 6.6,-4 10.8,-6.9 7.6,-5.2 7.7,-5.2 8.7,-3 0.6,1.3 2.3,2.5 3.9,2.8 3,0.6 12.8,-1.1 23.8,-4.3 5,-1.4 6.5,-1.6 5.5,-0.6 -2.4,2.3 -92.2,63.9 -96,65.8 -5,2.6 -8.4,2.3 -12.2,-1.1 z m 50.2,-29 c 21.7,-15 39.5,-27.3 39.7,-27.4 0.1,-0.2 -2.6,-0.1 -6.1,0.1 -4.2,0.3 -7.2,-0.1 -9,-1 -2.7,-1.4 -3.1,-1.2 -10.8,3.8 -12.2,8 -19.3,8.3 -22.4,0.9 -2,-5 -2.1,-64.3 0,-68.3 2.1,-4 16.8,-17.8 28,-26.2 l 9.7,-7.3 -3,-1.3 c -1.6,-0.7 -3.7,-2.3 -4.5,-3.7 -1.4,-2 -2.7,-2.5 -8.4,-3 -3.7,-0.4 -8.4,-1.1 -10.4,-1.7 l -3.7,-1.1 -0.3,-20.5 c -0.3,-19 -0.4,-20.7 -2.2,-22 -1.1,-0.8 -2.9,-1.1 -4,-0.8 -2.6,0.8 -50.6,31.7 -50.6,32.6 0,0.3 1.7,1.2 3.8,1.9 5.4,1.7 5.4,1.8 3.2,5 l -2.1,2.9 h 3.2 3.2 l -0.7,6.1 c -0.3,3.4 -0.6,10.4 -0.6,15.6 0,8.5 -0.2,9.6 -2.3,11.6 -1.3,1.2 -10.5,9.9 -20.4,19.2 -10,9.4 -17.9,17.2 -17.8,17.3 0.3,0.3 18.5,-6.3 36.8,-13.3 1.6,-0.7 1.7,0.9 1.7,23.7 0,23.2 -0.1,24.6 -2,26.3 -1.1,1 -2,3 -2,4.5 0,1.5 0.9,3.5 2,4.5 1.9,1.7 2,3.1 2,23.4 0,18.4 0.2,22 1.6,24 3.4,4.7 6.2,3.2 48.4,-25.8 z"
       id="path633" />
    <path
       d="m 19.9,317.7 c 9.4,-7.4 24.5,-14.7 30.5,-14.7 2.2,0 2.3,0.2 1.5,4.5 -0.5,2.5 -1.5,5.8 -2.4,7.4 -2.8,5.6 -4.6,6.1 -19.9,6.1 H 15.7 Z"
       id="path635" />
    <path
       d="m 182,238.6 c 0,-1.7 -0.4,-1.6 17.5,-5.6 7.7,-1.7 22.2,-5.2 32.3,-7.7 10,-2.5 18.5,-4.3 18.8,-4.1 2.5,2.6 -16.3,8.3 -55.3,16.8 -11,2.4 -13.3,2.5 -13.3,0.6 z"
       id="path637" />
    <path
       d="m 279,213.2 c 0,-2.4 3.9,-4.5 17,-9.2 8,-2.8 16.9,-6 19.8,-7.1 6.8,-2.4 9.2,-2.5 8.5,-0.1 -0.3,1.2 -3.7,2.8 -11.1,5.1 -5.9,1.9 -15.8,5.4 -22.1,7.8 -12.7,4.8 -12.1,4.6 -12.1,3.5 z"
       id="path639" />
    <path
       d="m 338,192 c 0,-1.6 1.7,-2.5 8.5,-4.6 4.7,-1.5 8.8,-2.4 9.2,-2.1 1.3,1.4 -0.9,3.7 -4.4,4.6 -2.1,0.6 -5.9,1.7 -8.5,2.5 -4.6,1.4 -4.8,1.4 -4.8,-0.4 z"
       id="path641" />
    <path
       d="m 419.5,189 c 0.8,-1.6 1.5,-3.3 1.5,-3.9 0,-1.8 -3.1,-4.1 -5.6,-4.1 -1.7,0 -2.4,-0.5 -2.4,-2 0,-4.1 9.3,-1 11.1,3.7 1.5,4 -0.6,9.3 -3.7,9.3 -2.4,0 -2.4,-0.1 -0.9,-3 z"
       id="path643" />
    <path
       d="m 374,183.2 c 0,-2.5 3.5,-4.1 11.2,-5.2 9.7,-1.4 16.1,-1.1 15,0.7 -0.4,0.7 -5.3,1.9 -10.9,2.7 -5.6,0.8 -11.3,1.8 -12.7,2.2 -1.6,0.4 -2.6,0.2 -2.6,-0.4 z"
       id="path645" />
  </g>
</svg>
