<?xml version="1.0" encoding="UTF-8" standalone="no"?>
<svg
   id="Layer_1"
   data-name="Layer 1"
   viewBox="0 0 227.04068 47.080354"
   version="1.1"
   sodipodi:docname="test.svg"
   width="227.04066"
   height="47.080353"
   inkscape:version="1.1.2 (0a00cf5339, 2022-02-04, custom)"
   xmlns:inkscape="http://www.inkscape.org/namespaces/inkscape"
   xmlns:sodipodi="http://sodipodi.sourceforge.net/DTD/sodipodi-0.dtd"
   xmlns="http://www.w3.org/2000/svg"
   xmlns:svg="http://www.w3.org/2000/svg">
  <sodipodi:namedview
     id="namedview54"
     pagecolor="#ffffff"
     bordercolor="#666666"
     borderopacity="1.0"
     inkscape:pageshadow="2"
     inkscape:pageopacity="0.0"
     inkscape:pagecheckerboard="0"
     showgrid="false"
     inkscape:zoom="1.9150957"
     inkscape:cx="115.13785"
     inkscape:cy="22.975353"
     inkscape:window-width="1366"
     inkscape:window-height="697"
     inkscape:window-x="-8"
     inkscape:window-y="-8"
     inkscape:window-maximized="1"
     inkscape:current-layer="Layer_1" />
  <defs
     id="defs9">
    <radialGradient
       id="radial-gradient"
       cx="0.66623002"
       cy="-0.88832998"
       r="47.266289"
       gradientUnits="userSpaceOnUse"
       gradientTransform="translate(-4.8273888e-6)">
      <stop
         offset="0.00562"
         stop-color="#fbb7d4"
         id="stop2" />
      <stop
         offset="0.67416"
         stop-color="#e6360b"
         id="stop4" />
      <stop
         offset="1"
         stop-color="#891600"
         id="stop6" />
    </radialGradient>
  </defs>
  <rect
     x="0.222076"
     y="0.222076"
     width="46.6357"
     height="46.6362"
     style="fill:url(#radial-gradient);stroke:#891600;stroke-width:0.444152px"
     id="rect11" />
  <path
     d="m 23.239175,11.679066 -0.0025,0.0029 a 23.15959,23.15959 0 0 0 -3.0991,5.21 l -2.2446,5.4761 c -0.0049,0.0127 -0.0103,0.0254 -0.0146,0.0385 a 45.26925,45.26925 0 0 1 -1.9605,4.8228 l -0.0127,0.0264 a 18.346,18.346 0 0 1 -1.9702,3.498 6.94782,6.94782 0 0 1 -2.4111,1.9932 7.93785,7.93785 0 0 1 -3.4296998,0.6953 0.84626,0.84626 0 0 0 -0.8467,0.8457 v 6.9531 a 0.84668,0.84668 0 0 0 0.8467,0.8477 15.48856,15.48856 0 0 0 12.5966998,-5.9453 27.03972,27.03972 0 0 0 2.5371,-4.0801 0.48713,0.48713 0 0 0 0.0214,-0.0469 c 0,0 1.3321,-3.043 1.6783,-3.834 h 7.417 a 0.84643,0.84643 0 0 0 0.8462,-0.8467 v -6.9189 a 0.84643,0.84643 0 0 0 -0.8462,-0.8467 h -3.9229 a 18.12215,18.12215 0 0 1 0.9385,-1.6821 8.152,8.152 0 0 1 1.6431,-1.9282 l 0.0263,-0.0215 a 6.20181,6.20181 0 0 1 2.0659,-1.1997 8.25545,8.25545 0 0 1 2.7422,-0.4283 0.84645,0.84645 0 0 0 0.8467,-0.8466 V 6.5784661 a 0.84636,0.84636 0 0 0 -0.8467,-0.8462 15.41472,15.41472 0 0 0 -12.5986,5.9467999 z"
     style="fill:#ffffff;fill-rule:evenodd"
     id="path13" />
  <path
     d="m 35.837775,4.8855661 a 16.22636,16.22636 0 0 0 -13.2593,6.2641999 l -0.0043,0.0059 a 23.99851,23.99851 0 0 0 -3.2134,5.3999 l -0.0127,0.0307 -2.2383,5.461 c -0.0103,0.0254 -0.0205,0.0512 -0.0298,0.0771 a 42.73431,42.73431 0 0 1 -1.9199,4.7261 l -0.0249,0.0537 a 17.76592,17.76592 0 0 1 -1.8574,3.3174 6.16032,6.16032 0 0 1 -2.1153,1.7597 7.12354,7.12354 0 0 1 -3.0682998,0.6153 1.6924,1.6924 0 0 0 -1.6929,1.6914 v 6.9531 a 1.69283,1.69283 0 0 0 1.6929,1.6934 16.30033,16.30033 0 0 0 13.2543998,-6.2578 c 0.0117,-0.0137 0.0224,-0.0284 0.0337,-0.043 a 27.876,27.876 0 0 0 2.5991,-4.1856 c 0.0161,-0.0312 0.0303,-0.0605 0.0439,-0.0918 l 1.4556,-3.3281 h 6.8633 a 1.69238,1.69238 0 0 0 1.6933,-1.6924 v -6.9189 a 1.69313,1.69313 0 0 0 -1.6933,-1.6929 h -2.5054 q 0.115,-0.1941 0.2319,-0.376 l -0.0068,0.0108 a 7.37745,7.37745 0 0 1 1.4644,-1.7349 c 0.017,-0.0136 0.0346,-0.0283 0.0512,-0.0429 a 5.40845,5.40845 0 0 1 1.7935,-1.043 7.44355,7.44355 0 0 1 2.4648,-0.3809 1.69324,1.69324 0 0 0 1.6934,-1.6933 V 6.5784661 a 1.6929,1.6929 0 0 0 -1.6934,-1.6929 z M 8.0941752,34.287966 a 8.82222,8.82222 0 0 0 3.7972998,-0.7793 7.82627,7.82627 0 0 0 2.7139,-2.2383 19.28215,19.28215 0 0 0 2.0698,-3.6621 45.71014,45.71014 0 0 0 2.001,-4.9189 l 2.2378,-5.461 a 22.30705,22.30705 0 0 1 2.9853,-5.0195 14.52128,14.52128 0 0 1 11.9385,-5.6303999 v 6.8852999 0 a 9.10145,9.10145 0 0 0 -3.019,0.4746 7.07121,7.07121 0 0 0 -2.3404,1.3569 9.002,9.002 0 0 0 -1.831,2.1367 22.04857,22.04857 0 0 0 -1.5601,2.9849 h 5.2569 v 6.9189 h -7.9707 l -1.899,4.3418 a 26.35408,26.35408 0 0 1 -2.4419,3.9346 14.61821,14.61821 0 0 1 -11.9383998,5.6289 z"
     style="fill:#b12401"
     id="path15" />
  <path
     d="m 70.937894,3.2000314 h 22.082988 v 4.4408733 h -16.7284 V 21.268235 h 15.452654 v 4.37892 H 76.292482 v 18.554143 h -5.354588 z"
     style="fill:#f9f9f9;stroke-width:4.21456"
     id="path27" />
  <path
     d="m 100.56535,3.2000314 h 5.35459 V 39.764218 h 17.52074 v 4.43708 h -22.87533 z"
     style="fill:#f9f9f9;stroke-width:4.21456"
     id="path29" />
  <path
     d="m 135.97097,31.306455 -4.25756,12.894843 h -5.47595 L 140.22893,3.2000314 h 6.32814 l 13.99147,41.0012666 h -5.65719 l -4.37933,-12.894843 z m 13.50593,-4.136161 -4.07672,-11.804116 c -0.9116,-2.675398 -1.52061,-5.11183 -2.1275,-7.4825152 h -0.12349 c -0.60732,2.3706852 -1.21633,4.9306042 -2.06851,7.4247752 l -4.01478,11.861856 z"
     style="fill:#f9f9f9;stroke-width:4.21456"
     id="path31" />
  <path
     d="m 165.90311,37.755983 a 17.968573,17.968573 0 0 0 9.42923,2.674977 c 5.41443,0 8.57703,-2.856202 8.57703,-6.996578 0,-3.769916 -2.18946,-6.021329 -7.72527,-8.091518 -6.69229,-2.432639 -10.83056,-5.959796 -10.83056,-11.68063 0,-6.3875739 5.29305,-11.1289447 13.2632,-11.1289447 a 18.37317,18.37317 0 0 1 9.00312,2.0040193 l -1.45908,4.3178084 a 15.188317,15.188317 0 0 0 -7.72737,-1.9429084 c -5.59525,0 -7.72527,3.3421394 -7.72527,6.1410234 0,3.835663 2.49416,5.720832 8.15136,7.910292 6.93714,2.675398 10.40488,6.025544 10.40488,12.046875 0,6.326042 -4.6242,11.861855 -14.29829,11.861855 a 21.106011,21.106011 0 0 1 -10.46221,-2.679612 z"
     style="fill:#f9f9f9;stroke-width:4.21456"
     id="path33" />
  <path
     d="M 201.8562,3.2000314 V 20.354522 h 19.8341 V 3.2000314 h 5.35037 V 44.201298 H 221.6903 V 24.980413 h -19.8341 v 19.220885 h -5.35459 V 3.2000314 Z"
     style="fill:#f9f9f9;stroke-width:4.21456"
     id="path35" />
  <path
     d="m 28.470575,41.307466 h -0.8354 v -3.292 h -1.208 v -0.707 h 3.2519 v 0.707 h -1.2085 z"
     style="fill:#ffffff"
     id="path49" />
  <path
     d="m 34.010675,41.307466 h -0.7793 v -3.3418 h -0.0113 l -0.746,3.3418 h -0.8184 l -0.7295,-3.3418 h -0.0112 v 3.3418 h -0.7793 v -3.999 h 1.2192 l 0.7241,3.1514 h 0.0113 l 0.7124,-3.1514 h 1.208 z"
     style="fill:#ffffff"
     id="path51" />
</svg>
