<svg id="Layer_1" data-name="Layer 1" xmlns="http://www.w3.org/2000/svg" viewBox="0 0 3840.1001 1671.91864"><g id="layer1"><g id="g5598"><path id="path5600" d="M1241.1331,412.35769h75.26839c14.4583,0,27.64091,10.63112,28.49146,24.23894h.85054V379.61381H1241.13323V279.68127h100.78308c14.4583,0,27.64092,10.20589,28.49146,24.239h.85054V246.93742H1159.91156v.42525c14.033.85049,25.08942,15.73406,25.08942,29.76714V538.23016c0,14.03309-10.63112,29.3419-25.08942,29.76714v.42524h106.73649v-.42524c-14.4583-.85048-25.08942-15.73405-25.08942-29.76714Z" transform="translate(0 -0.28131)" style="fill:#e50012"/></g><g id="g5602"><path id="path5604" d="M1459.589,482.83219c0,33.59435,28.06618,62.511,62.511,62.511s62.51105-29.3419,62.51105-62.93625V277.4389c0-14.03308-10.63112-29.3419-25.08942-29.76714v-.42525h106.73648v.85049c-14.4583.8505-25.08942,15.73407-25.08942,29.76714V476.87873c0,64.212-53.1556,101.20828-119.06856,101.20828s-119.49383-37.42156-119.49383-101.20828V277.86414c0-14.03308-10.63112-29.3419-25.08942-29.76714v-.8505h106.73649v.8505c-14.033.85049-25.08942,15.73406-25.08942,29.76714Z" transform="translate(0 -0.28131)" style="fill:#e50012"/></g><g id="g5606"><path id="path5608" d="M2331.414,299.36112c-17.86033-28.91665-58.68374-25.51469-58.68374-25.51469-66.76349,0-63.78672,50.60414-63.78672,50.60414s-4.67772,25.51469,28.91659,42.94972l66.7635,35.29534c64.212,34.44483,56.98278,83.348,56.98278,83.348s2.97677,91.42764-131.8259,91.42764c0,0-39.12258,1.27575-61.23524-7.22915l-19.136-58.6838h.85054c20.4117,29.3419,79.946,33.59435,79.946,33.59435,75.69353-3.402,76.1188-54.43136,76.1188-54.43136s3.40191-22.11272-26.36523-38.272l-66.33823-35.29534c-68.88958-36.57105-61.2351-86.32469-61.2351-86.32469s-1.70095-90.15191,117.36761-90.15191c0,0,53.58088,1.27573,62.08577,9.78063v48.90316Z" transform="translate(0 -0.28131)" style="fill:#e50012"/></g><g id="g5610"><path id="path5612" d="M1811.25883,135.08394a67.08,67.08,0,0,0,46.35167,18.71077c36.14581,0,65.48768-28.49141,65.48768-63.78673s-29.34187-63.78673-65.48768-63.78673c0,0-50.60411-4.67769-73.14217,58.25855V37.27762C1801.47813,15.59013,1827.41809.28131,1857.6105.28131c51.02938,0,92.70332,40.39827,92.70332,90.15192s-41.2488,90.15191-92.70332,90.15191A94.04205,94.04205,0,0,1,1792.12282,154.22l-31.89337-34.87008a48.99049,48.99049,0,0,0-34.01959-13.60783c-26.36523,0-48.05261,20.837-48.05261,46.77693s21.68751,46.77693,48.05261,46.77693c0,0,35.29527,4.67769,57.83333-38.272v37.8468c-13.60789,16.1593-34.87013,26.36519-57.83333,26.36519-41.2488,0-74.84312-32.74386-74.84312-73.14212s33.59432-72.71687,74.84312-72.71687a75.9638,75.9638,0,0,1,53.15561,21.26224Z" transform="translate(0 -0.28131)" style="fill:#e50012"/></g><g id="g5614"><path id="path5616" d="M1828.4507,277.02986c0-14.03308-10.63112-28.49141-25.08942-29.34191v-.42523H1909.6725v.42523c-14.033.8505-25.08942,15.30881-25.08942,29.34191V538.98068c0,14.03309,10.63112,29.3419,25.08942,30.19238v.42524H1803.36128v-.42524c14.033-.85048,25.08942-16.15932,25.08942-30.19238Z" transform="translate(0 -0.28131)" style="fill:#e50012"/></g><g id="g5618"><path id="path5620" d="M1761.42487,277.683c0-14.03307,10.63112-29.3419,25.08942-29.76714v-.42523H1679.77781v.42523c14.4583.8505,25.08942,15.73407,25.08942,29.76714V605.12154s-1.27569,57.83332-47.62748,91.00237v.42527c9.35544-1.701,104.61026-19.136,104.61026-110.9889Z" transform="translate(0 -0.28131)" style="fill:#e50012"/></g><g id="g5622"><path id="path5624" d="M1909.60772,305.1547h.42527c14.4583-25.08946,36.57109-25.51469,36.57109-25.51469h57.83332V539.03937c0,14.03309-10.63112,28.91666-25.08942,29.76714v.42524h106.73649v-.42524c-14.4583-.85048-25.08942-16.15932-25.08942-29.76714V279.64h48.05261c14.4583,0,26.36524,11.48161,26.79038,25.51469h.42527l17.86033-58.25855H1927.46806Z" transform="translate(0 -0.28131)" style="fill:#e50012"/></g><g id="g5626"><path id="path5628" d="M2441.24206,482.83219c0,33.59435,28.06619,62.511,62.51105,62.511s62.511-29.3419,62.511-62.93625V277.4389c0-14.03308-10.63112-29.3419-25.08942-29.76714v-.42525h106.73649v.85049c-14.033.8505-25.08955,15.73407-25.08955,29.76714V476.87873c0,64.212-53.15561,101.20828-119.06856,101.20828s-119.49383-37.42156-119.49383-101.20828V277.86414c0-14.03308-10.63112-29.3419-25.08942-29.76714v-.8505h106.73648v.8505c-14.4583.85049-25.08942,15.73406-25.08942,29.76714Z" transform="translate(0 -0.28131)" style="fill:#e50012"/></g></g><rect x="2174.69995" y="1131.41864" width="397.1001" height="152.69995" style="fill:#fff"/><path d="M3397.30005,1609.5H3120.5s2.3-408.69995,300.2-588.5c4.1001-2.5,278.8-.6,276.8,0C3397.6001,1103.4,3397.30005,1609.5,3397.30005,1609.5Z" transform="translate(0 -0.28131)" style="fill:#fff"/><path d="M3697.5,825.2h-848V1131.7h152.7V1090.8999a69.90607,69.90607,0,0,1,69.8999-69.9h625.5V825.2Z" transform="translate(0 -0.28131)" style="fill:#fff"/><path d="M3808.5,794v846.7H2738.3999V794H3808.5m31.5-31.5H2707v909.7H3840.1001V762.5Z" transform="translate(0 -0.28131)" style="fill:#fff"/><rect x="88.7" y="977.11871" width="242.89998" height="523.09998" style="fill:#fff"/><rect x="1758.59998" y="948.11871" width="242.90002" height="575.09998" style="fill:#fff"/><polygon points="1595.6 1397.619 1426.5 1609.219 1092.9 896.919 1327.1 824.219 1595.6 1397.619" style="fill:#fff"/><rect x="210.10001" y="1158.21869" width="397.49997" height="152.80005" style="fill:#fff"/><rect x="1062.58374" y="922.25469" width="152.80005" height="577.90002" style="fill:#fff"/><rect y="824.21869" width="905" height="152.79999" style="fill:#fff"/><polygon points="973.8 977.119 1259.9 977.119 1327.1 824.219 973.8 824.219 973.8 977.119" style="fill:#fff"/><rect x="1758.59998" y="824.21869" width="331.59998" height="152.79999" style="fill:#fff"/><rect y="1456.31866" width="420.20001" height="152.80005" style="fill:#fff"/><rect x="1669.90002" y="1456.31866" width="420.20007" height="152.80005" style="fill:#fff"/><rect x="973.79999" y="1456.31866" width="330.20001" height="152.80005" style="fill:#fff"/><rect x="709" y="883.9187" width="196" height="246.99994" style="fill:#fff"/><polygon points="1739.4 824.219 1408.9 1490.519 1520.7 1609.219 1910 824.219 1739.4 824.219" style="fill:#fff"/><rect x="1426.5" y="1475.31866" width="94.09998" height="133.90002" style="fill:#fff"/></svg>