<svg id="Layer_1" data-name="Layer 1" xmlns="http://www.w3.org/2000/svg" viewBox="0 0 3840.02538 1260.04394"><path d="M1400.6,933.8c10.6-115,107.3-205,225.1-205,117.80005,0,214.4,90,225.1,205H1930.1c-10.80005-158.7-142.9-284.1-304.29993-284.1s-293.5,125.4-304.30005,284.1h79.1Z" transform="translate(0 0.14392)" style="fill:#fff"/><path d="M1625.6,1180.9c-119.6,0-217.5-93-225.5-210.6h-79.2c8.1,161.30005,141.4,289.6,304.70008,289.6s296.69995-128.3,304.69995-289.6H1851.1001C1843.2,1088,1745.30005,1180.9,1625.6,1180.9Z" transform="translate(0 0.14392)" style="fill:#fff"/><rect x="1039.69995" y="970.44391" width="79.09998" height="269.79999" style="fill:#fff"/><polygon points="1347.9 670.044 813.8 670.044 813.8 749.144 1039.7 749.144 1039.7 933.944 1118.8 933.944 1118.8 749.144 1347.9 749.144 1347.9 670.044" style="fill:#fff"/><rect x="2728.6001" y="970.44391" width="79.1001" height="269.79999" style="fill:#fff"/><path d="M3162.2,1161.1h-19.3999l-84.8999-190.7h-86.5l109.2,245.3a41.10708,41.10708,0,0,0,37.6001,24.4h122.8999V970.3H3162v190.8Z" transform="translate(0 0.14392)" style="fill:#fff"/><rect x="3162.19995" y="670.04394" width="79.1001" height="263.90002" style="fill:#fff"/><path d="M2935,694.4a41.10709,41.10709,0,0,0-37.6001-24.4h-168.8V933.9H2807.7V749h65.19995L2955.2,933.8h86.5Z" transform="translate(0 0.14392)" style="fill:#fff"/><polygon points="2532.5 933.944 2613.5 933.944 2672 670.044 2591 670.044 2532.5 933.944" style="fill:#fff"/><polygon points="2140 1164.944 2125.5 1164.944 2082.4 970.444 2001.4 970.444 2061.2 1240.244 2123.3 1240.244 2142.2 1240.244 2204.2 1240.244 2264 970.444 2183.1 970.444 2140 1164.944" style="fill:#fff"/><polygon points="2481.3 1164.944 2466.9 1164.944 2423.8 970.444 2342.8 970.444 2402.6 1240.244 2464.6 1240.244 2483.6 1240.244 2545.6 1240.244 2605.4 970.444 2524.4 970.444 2481.3 1164.944" style="fill:#fff"/><polygon points="2357.2 670.044 2330.7 670.044 2276.2 670.044 2249.7 670.044 2191.2 933.944 2272.1 933.944 2303.4 792.944 2334.7 933.944 2415.7 933.944 2357.2 670.044" style="fill:#fff"/><polygon points="2015.8 670.044 1934.8 670.044 1993.3 933.944 2074.3 933.944 2015.8 670.044" style="fill:#fff"/><path d="M3418.30005,922h223.1001c21.3999,0,39.80005,4.3,55.5,11.8h114.3999C3780.2,881.4,3724,843.3,3642.5,843h-224.2c-62.69995,0-62.69995-94,0-94h388.6001V669.9h-388.6001C3250.30005,669.9,3250.30005,922,3418.30005,922Z" transform="translate(0 0.14392)" style="fill:#fff"/><path d="M3828.2,970.3h-88.6001c47.89991,69.8,15.19995,190.7-98.2,190.7h-347.3v79.1h347.3C3806.1001,1240.1,3868.3999,1086.5,3828.2,970.3Z" transform="translate(0 0.14392)" style="fill:#fff"/><g id="layer1"><g id="g5598"><path id="path5600" d="M1372.10846,340.91654h62.51105c11.9068,0,22.96319,8.5049,23.38846,19.98651h.42527V313.70086h-86.32478v-82.4975h83.348c11.9068,0,22.9632,8.5049,23.38847,19.9865h.42527V203.98768H1304.49456v.42525c11.9068.85049,20.4117,13.18259,20.4117,24.6642v216.0244c0,11.4816-8.93017,24.23894-20.4117,24.66421v.42524h88.02573v-.42524c-11.9068-.85047-20.837-13.18258-20.837-24.66421Z" transform="translate(0 0.14392)" style="fill:#e50012"/></g><g id="g5602"><path id="path5604" d="M1552.71761,399.48419c0,27.64092,22.96319,51.87988,51.45465,51.87988s51.87992-24.239,51.87992-51.87988V230.23674c0-11.48161-8.93016-24.23895-20.837-24.6642v-.42525h88.45088c-11.9068.85049-20.837,13.18259-20.837,24.6642V394.38125c0,53.15561-43.80017,83.77322-98.23159,83.77322-54.43129,0-99.082-31.04288-99.082-83.77324V229.81147c0-11.48161-8.93017-24.239-20.4117-24.6642V204.722h88.02574v.42527c-11.90681.85049-20.41171,13.18259-20.41171,24.6642Z" transform="translate(0 0.14392)" style="fill:#e50012"/></g><g id="g5606"><path id="path5608" d="M2274.006,247.48126c-14.88357-23.81372-48.47789-20.837-48.47789-20.837-55.28183,0-52.73034,42.09924-52.73034,42.09924s-3.82718,21.26224,23.81374,35.29532l55.28183,29.3419c53.15561,28.49141,46.77694,68.88967,46.77694,68.88967s2.55149,75.6936-108.86271,75.6936c0,0-32.31864.85048-50.60412-5.95343l-15.73411-48.90316h.42527c17.0098,24.23894,66.33823,28.06615,66.33823,28.06615,62.511-2.55146,62.93618-45.07595,62.93618-45.07595s2.97677-18.28554-21.68751-31.46812l-54.85656-29.3419c-57.40806-30.61764-50.60411-71.86639-50.60411-71.86639s-1.70095-74.41785,96.95577-74.41785c0,0,44.22544,1.27573,51.45466,8.07965v40.39827Z" transform="translate(0 0.14392)" style="fill:#e50012"/></g><g id="g5610"><path id="path5612" d="M1843.57747,111.69547a55.48246,55.48246,0,0,0,38.272,15.30882c30.19241,0,54.43129-23.81372,54.43129-52.73036s-24.239-52.73036-54.43129-52.73036c0,0-41.674-3.82721-60.81,48.05266V30.47371c14.033-17.86028,35.72055-30.61763,60.38483-30.61763,42.52448,0,76.54407,33.1691,76.54407,74.41785s-34.44486,74.41785-76.54407,74.41785a77.61365,77.61365,0,0,1-54.00615-21.68749L1801.053,98.08764A40.99964,40.99964,0,0,0,1772.9868,86.606c-22.11279,0-39.54772,17.435-39.54772,38.69729s17.86033,38.69728,39.54772,38.69728c0,0,29.34187,3.8272,48.05261-31.46812V164.0006a63.5903,63.5903,0,0,1-48.05261,22.11273c-34.44486,0-62.08578-27.21567-62.08578-60.38478s27.64092-60.38476,62.08578-60.38476A62.04891,62.04891,0,0,1,1816.787,83.20407Z" transform="translate(0 0.14392)" style="fill:#e50012"/></g><g id="g5614"><path id="path5616" d="M1857.79257,229.40244c0-11.48162-8.93017-23.38847-20.837-24.239v-.42524h88.02574v.42524c-11.48167.8505-20.4117,12.75735-20.4117,24.239V445.85208c0,11.4816,8.93016,24.23895,20.4117,24.66422v.42524H1836.9556v-.42524c11.9068-.85048,20.837-13.18259,20.837-24.66422Z" transform="translate(0 0.14392)" style="fill:#e50012"/></g><g id="g5618"><path id="path5620" d="M1802.67354,229.63034c0-11.48161,8.93017-24.23895,20.41171-24.66421v-.42524h-88.02574v.42524c11.9068.8505,20.4117,13.1826,20.4117,24.6642v270.881s-.85054,47.62741-39.54772,75.26836v.42524c7.65436-1.27575,86.32465-15.73405,86.32465-91.85289Z" transform="translate(0 0.14392)" style="fill:#e50012"/></g><g id="g5622"><path id="path5624" d="M1924.91656,252.42433h.42527c11.90681-20.837,30.19242-20.837,30.19242-20.837h47.62747V445.91074c0,11.4816-8.93017,24.23894-20.837,24.66421v.42524h88.45088V470.575c-11.90681-.85047-20.837-13.18258-20.837-24.66421V231.58732h39.973a21.78815,21.78815,0,0,1,22.11278,21.26225h.42527l14.4583-48.05267H1938.94972Z" transform="translate(0 0.14392)" style="fill:#e50012"/></g><g id="g5626"><path id="path5628" d="M2364.698,399.48419c0,27.64092,22.96319,51.87988,51.87992,51.87988,28.49146,0,51.87993-24.239,51.87993-51.87988V230.23674c0-11.48161-8.93017-24.23895-20.41171-24.6642v-.42525h88.02574c-11.9068.85049-20.4117,13.18259-20.4117,24.6642V394.38125c0,53.15561-43.80017,83.77322-98.65686,83.77322-54.43129,0-98.65686-31.04288-98.65686-83.77324V229.81147c0-11.48161-8.93016-24.239-20.837-24.6642V204.722h88.02574v.42527c-11.90681.85049-20.837,13.18259-20.837,24.6642Z" transform="translate(0 0.14392)" style="fill:#e50012"/></g></g><rect x="31.3" y="1016.84393" width="85.9" height="184.89996" style="fill:#fff"/><rect x="621.70001" y="1006.54394" width="85.90002" height="203.30005" style="fill:#fff"/><polygon points="564.1 1165.444 504.3 1240.244 386.3 988.444 469.1 962.744 564.1 1165.444" style="fill:#fff"/><rect x="74.3" y="1080.84387" width="140.5" height="54" style="fill:#fff"/><rect x="375.64709" y="997.44604" width="54" height="204.29999" style="fill:#fff"/><rect y="962.7439" width="319.89999" height="54" style="fill:#fff"/><polygon points="344.3 1016.844 445.4 1016.844 469.1 962.744 344.3 962.744 344.3 1016.844" style="fill:#fff"/><rect x="621.70001" y="962.7439" width="117.20001" height="54" style="fill:#fff"/><rect y="1186.2439" width="148.60001" height="54" style="fill:#fff"/><rect x="590.29999" y="1186.2439" width="148.60004" height="54" style="fill:#fff"/><rect x="344.29999" y="1186.2439" width="116.70001" height="54" style="fill:#fff"/><rect x="250.60001" y="983.84393" width="69.30002" height="87.29999" style="fill:#fff"/><polygon points="614.9 962.744 498.1 1198.344 537.6 1240.244 675.2 962.744 614.9 962.744" style="fill:#fff"/><rect x="504.29999" y="1192.94397" width="33.29999" height="47.30005" style="fill:#fff"/></svg>