<svg id="Layer_1" data-name="Layer 1" xmlns="http://www.w3.org/2000/svg" viewBox="0 0 3839.9 715"><rect x="180.7" y="423.5" width="226.39998" height="106.90002" style="fill:red"/><rect x="671.40002" y="398.29999" width="106.90002" height="310.10004" style="fill:red"/><path d="M778.3,398.3H671.4c0-46.5-69.7-46.5-69.7,0H494.8C494.7,209.3,778.3,209.3,778.3,398.3Z" transform="translate(0 0)" style="fill:red"/><rect x="494.70001" y="398.29999" width="106.90002" height="310.10004" style="fill:red"/><rect x="508.70001" y="477" width="260.10004" height="106.90002" style="fill:red"/><rect x="2990.30005" y="327.39999" width="106.8999" height="381.00003" style="fill:red"/><rect x="2921.3999" y="256.60001" width="244.6001" height="106.89999" style="fill:red"/><rect x="2417.1001" y="398.29999" width="106.8999" height="310.10004" style="fill:red"/><path d="M2524,398.3H2417.1001c0-46.5-69.7-46.5-69.7,0H2240.50024C2240.5,209.3,2524,209.3,2524,398.3Z" transform="translate(0 0)" style="fill:red"/><rect x="2240.5" y="398.29999" width="106.8999" height="310.10004" style="fill:red"/><rect x="2254.5" y="477" width="260.1001" height="106.90002" style="fill:red"/><rect x="1008.09998" y="393.70001" width="106.90002" height="314.70001" style="fill:red"/><rect x="831.5" y="393.70001" width="106.90002" height="314.70001" style="fill:red"/><path d="M1061.6,398.3h-53.5c0-46.5-69.7-46.5-69.7,0h-106.9C831.5,209.3,1061.6,209.3,1061.6,398.3Z" transform="translate(0 0)" style="fill:red"/><path d="M1291.7,398.3h-106.9c0-46.5-69.69995-46.5-69.69995,0h-53.5C1061.6,209.3,1291.7,209.3,1291.7,398.3Z" transform="translate(0 0)" style="fill:red"/><rect x="1184.80005" y="393.70001" width="106.90002" height="314.70001" style="fill:red"/><rect x="1903.69995" y="393.70001" width="106.90002" height="314.70001" style="fill:red"/><rect x="1727" y="393.70001" width="106.90002" height="314.70001" style="fill:red"/><path d="M1957.2,398.3h-53.5c0-46.5-69.69995-46.5-69.69995,0H1727.1C1727,209.3,1957.2,209.3,1957.2,398.3Z" transform="translate(0 0)" style="fill:red"/><path d="M2187.30005,398.3h-106.8999c0-46.5-69.69995-46.5-69.69995,0h-53.5C1957.2,209.3,2187.30005,209.3,2187.30005,398.3Z" transform="translate(0 0)" style="fill:red"/><rect x="2080.30005" y="393.70001" width="106.8999" height="314.70001" style="fill:red"/><rect x="1376.30005" y="429.10001" width="192.80005" height="106.89999" style="fill:red"/><rect x="1376.30005" y="256.60001" width="192.80005" height="106.89999" style="fill:red"/><path d="M1451.80005,601.5v-345H1344.9V622.2a86.20889,86.20889,0,0,0,86.2,86.2h138V601.5Z" transform="translate(0 0)" style="fill:red"/><rect x="3238" y="429" width="192.80005" height="106.90002" style="fill:red"/><rect x="3238.1001" y="256.5" width="192.80005" height="106.89999" style="fill:red"/><path d="M3313.6001,601.5v-345H3206.7002V622.2a86.209,86.209,0,0,0,86.19995,86.2h138V601.5Z" transform="translate(0 0)" style="fill:red"/><rect x="3484.1001" y="413" width="106.8999" height="295.40002" style="fill:red"/><polygon points="3697.6 511.6 3675 534.3 3591 468.5 3622.1 587.2 3749.9 715 3825.5 639.4 3697.6 511.6" style="fill:red"/><path d="M3662,235a177.94969,177.94969,0,0,0-71.1001,341.1V468.5L3621.7,586.2A177.60981,177.60981,0,0,0,3839.8999,412.9C3840,314.7,3760.30005,235,3662,235Zm0,249.1a71.1,71.1,0,1,1,71.1001-71.1A71.12245,71.12245,0,0,1,3662,484.1Z" transform="translate(0 0)" style="fill:red"/><path d="M2880.80005,256.6h-62.8999a127.79189,127.79189,0,0,0-126.1001,106.9l-32.8999,198.3a47.57179,47.57179,0,0,1-46.89991,39.8h-47.3999V708.5h70a127.7919,127.7919,0,0,0,126.1001-106.9l32.8999-198.3a47.5718,47.5718,0,0,1,46.8999-39.8h40.30005l-.00024-106.9Z" transform="translate(0 0)" style="fill:red"/><path d="M380.1,423.5l-40.8,40.8c.2,2.6.4,5.1.4,7.7a116.7357,116.7357,0,1,1-24.1-70.6l76-76a222.69515,222.69515,0,0,0-168.3-76.6C100,248.8,0,348.7,0,472.1S100,695.4,223.3,695.4s223.3-100,223.3-223.3a221.12473,221.12473,0,0,0-5.3-48.5H380.1Z" transform="translate(0 0)" style="fill:red"/><path d="M1297.80005,3.5h54.1V60.6h49.4V3.5h54.1V165.2h-54.1v-58h-49.4v58h-54.1Z" transform="translate(0 0)" style="fill:red"/><path d="M1537.6,2.3h53.6l68.19995,162.9H1600.7l-8.6-21.7h-56.6L1527.2,165.2H1469.3999Zm41.1,102.8L1563.8999,65.8l-14.8,39.3Z" transform="translate(0 0)" style="fill:red"/><path d="M1673.4,3.5h79c28.6,0,46.9,7.2,58.2,18.5,9.69995,9.7,14.8,21.7,14.8,38.3v.5c0,23.6-12.19995,40-31.9,49.4l37.69995,55H1769.5L1739,119h-11.6v46.2h-54.1l.1-161.7Zm77.4,76.9c12.9,0,20.80005-5.8,20.80005-15.7v-.5c0-10.4-8.1-15.5-20.6-15.5h-23.6V80.3l23.3999.1Z" transform="translate(0 0)" style="fill:red"/><path d="M1887.30005,49.2h-47.6V3.5H1989V49.2h-47.6v116h-54.1Z" transform="translate(0 0)" style="fill:red"/><path d="M2007.2,92.6V3.5h55V92c0,20.1,10.3999,28.6,24.8999,28.6s24.89991-7.9,24.89991-27.5V3.5h55v88c0,55.2-32.1001,76.9-80.39991,76.9C2038.4,168.4,2007.2,146.2,2007.2,92.6Z" transform="translate(0 0)" style="fill:red"/><path d="M2191.5,3.5h50.6001l57.5,71.4V3.5h53.6001V165.2h-48.1001L2245,90.6v74.6h-53.6001V3.5Z" transform="translate(0 0)" style="fill:red"/><path d="M2375.3999,84.8v-.5c0-48.3,38.1001-84.3,89.2-84.3,27.69995,0,50.1001,9.2,67.69995,24.5L2502,61c-10.6001-9-22.3999-14.1-35.8-14.1-21,0-36.30005,16.2-36.30005,38.1v.5c0,22.9,15.8999,38.6,38.6001,38.6,9.2,0,14.3-1.4,18.5-3.7V104.2h-27.7V69.5h78.30005v74.8c-17.6001,14.3-42,24.3-71.3999,24.3C2415.80005,168.7,2375.3999,134.9,2375.3999,84.8Z" transform="translate(0 0)" style="fill:red"/></svg>