<svg id="Layer_1" data-name="Layer 1" xmlns="http://www.w3.org/2000/svg" viewBox="0 0 3840 1133.40002"><path d="M3724,527.8H116A99.31115,99.31115,0,0,0,16.8,627v390.4a99.31114,99.31114,0,0,0,99.2,99.2H3724a99.31114,99.31114,0,0,0,99.2-99.2V627A99.31114,99.31114,0,0,0,3724,527.8Z" transform="translate(0 0)"/><g id="path68"><path d="M439.5,746a142.2541,142.2541,0,1,0,12.7,142.2H326.6V823.5H527.2c.1,1.5.1,3,.1,4.5a203.04422,203.04422,0,0,1-9,60.2C492.6,971.6,415,1032.2,323.2,1032.2,210.5,1032.2,119,940.7,119,828c0-112.8,91.4-204.2,204.2-204.2,83.6,0,155.4,50.3,187,122.2Z" transform="translate(0 0)" style="fill:#fff"/></g><g id="path70"><path d="M744,627.8h0L486,1016.3h79.9l55.1-83H744v83.1h66.5V627.8Zm-78.9,239L744,748.1V866.8Z" transform="translate(0 0)" style="fill:#fff"/></g><g id="path72"><path d="M1331.6,627.8h0L1153.7,895.6V627.8h-66.5l-258,388.5H909l178.1-268.2v268.4h66.5v-.5l177.9-267.9v268.4H1398V627.8Z" transform="translate(0 0)" style="fill:#fff"/></g><g id="path74"><path d="M1654,694.4v-66.6H1451.9v388.8l66.5-.3H1654v-66.6H1518.4v-90.6H1654v-66.5H1518.4v-98.3H1654Z" transform="translate(0 0)" style="fill:#fff"/></g><g id="path86"><path d="M2009.6,882.9c21.3-48,53.4-120.2,53.4-120.2H1997.7l-34.4,77.5L1912.1,792.9c23.4-18.8,44-42.6,44-82.4a80.01456,80.01456,0,0,0-23.6-56.7,95.67453,95.67453,0,0,0-67.19995-27.3c-43.9,0-89.4,31.4-89.4,84,0,36.6,20.2,60.3,40.2,77.8-37.1,26.3-69.4,54.2-69.4,111.9,0,32.7,11.80005,62.5,33.30005,84,21.69995,21.7,51.9,33.6,85.19995,33.6,63.1,0,94.4-30.5,118.30005-77.7l77.3999,71.5,40.5-43.8L2009.6,882.9ZM1841.9,695.4c5.6-5.6,14.7-9.1,23.5-9.1,9.4,0,18.9,3.8,25,9.8a19.61034,19.61034,0,0,1,6.2,14.5c0,16.8-8,25.9-30,42.1-19.2-15.4-30.9-26.1-30.9-42.1A20.51716,20.51716,0,0,1,1841.9,695.4m94.7,205.1c-20.6,45.9-35.2,57.8-71.2,57.8-17.69995,0-32.5-5.6-43.1-16.1C1811.9,931.8,1806.5,917.3,1806.5,900.4c0-31.4,16.1-43.8,55.80005-71.3.19995-.1.4-.3.6-.4l74.9,69.2L1936.6,900.5Z" transform="translate(0 0)" style="fill:#fff"/></g><g id="path76"><path d="M2774.8999,627.9h0l-258,388.5h79.8999l55.1001-83h123v83.2H2841.5V627.9ZM2696,866.9l78.8-118.7V866.9Z" transform="translate(0 0)" style="fill:#fff"/></g><g id="path78"><path d="M2230.5,1016.6h0l177.8-267.9v267.9h66.5l258-388.5H2653L2474.8999,896.3V627.9h-66.5v.5l-177.8,267.8V627.9H2164v388.7h66.5Z" transform="translate(0 0)" style="fill:#fff"/></g><g id="path80"><path d="M3656.6001,627.9V784.4H3536.5V627.9H3470v388.7h66.5V851h120.1001v165.6h66.6001V627.9Z" transform="translate(0 0)" style="fill:#fff"/></g><g id="path82"><path d="M3084.6001,627.9h-217.2v66.5h75.30005v322.1h66.60009V694.4h75.3l-.00024-66.5Z" transform="translate(0 0)" style="fill:#fff"/></g><g id="path84"><path d="M3375.80005,911.8A139.55607,139.55607,0,1,1,3272.1001,678.9c40.6001,0,77.1001,18.2,102.6001,46.2h78c-34.1001-64.8-102.1001-110.6-180.5-110.6-112.6001,0-203.89991,91.3-203.89991,203.9s91.3,204,203.89991,204c78.8999,0,147.3999-45,181.3-110.6h-77.70019Z" transform="translate(0 0)" style="fill:#fff"/></g><path d="M3724,1133.4H116a116.08336,116.08336,0,0,1-116-116V627A116.08336,116.08336,0,0,1,116,511H3724a116.08336,116.08336,0,0,1,116,116v390.4A116.08336,116.08336,0,0,1,3724,1133.4ZM116,527.8A99.31115,99.31115,0,0,0,16.8,627v390.4a99.31114,99.31114,0,0,0,99.2,99.2H3724a99.31114,99.31114,0,0,0,99.2-99.2V627a99.31114,99.31114,0,0,0-99.2-99.2Z" transform="translate(0 0)" style="fill:#fff"/><path d="M2440.1001,440.1h-1040.8c-131.69995,0-230.6-94.4-230.6-219.6,0-125.7,99-220.5,230.19995-220.5H2440.6001c131.69995,0,230.6001,94.8,230.6001,220.5C2671.6001,345.7,2571.7,440.1,2440.1001,440.1Z" transform="translate(0 0)" style="fill:#fff"/><path d="M1476.6,252.3l-70.4-114.2h-51.1V301.5h50.6V187.4l70.9,114.2h50.6V138.1h-50.6Zm400.5-59.4V176.8h-26.7V154.7h-49.3v22.1h-26.7v16.1h26.7V301.5h49.3V192.9ZM1555.30005,301.5h49.30005V192.9h-49.30005Zm0-130.3h49.30005V137.6h-49.30005Zm860.80005,14.3c-39.6001,0-71.80005,27.2-71.80005,61.2,0,33.6,32.2,61.2,71.80005,61.2s71.8-27.2,71.8-61.2S2456.6001,185.5,2416.1001,185.5Zm19.7998,83.8c0,17.5-10.1001,24.4-20.3,24.4-9.7,0-20.30005-7.4-20.30005-24.4V223.2c0-17,10.1001-24.4,20.30005-24.4,9.69995,0,20.3,6.9,20.3,24.4v46.1Zm-155.59985-70.9c-7.8-4.6-16.1001-8.7-27.6001-9.7-35.3999-3.2-62.6001,28.1-62.6001,57.1,0,37.7,29,52,33.6001,53.9,16.6001,7.8,37.69995,7.8,56.6001-4.1V302h48.30005V138.6h-48.30005Zm0,48.3V266c0,16.6-11.5,21.2-19.3,21.2s-19.3-4.6-19.3-21.2V227.4c0-17,11.5-21.2,19.3-21.2s19.3,4.1,19.3,21.2ZM1719.7,187.8a58.05152,58.05152,0,0,0-39.1,16.6V192.9h-48.80005V301.5H1680.6V230.1c0-9.7,10.1-19.8,23.5-19.8,13.3,0,22.6,10.6,22.6,19.8v71.4H1775.5V242.6C1775.4,199.3,1738.1,187.4,1719.7,187.8Zm399.5,0a58.0521,58.0521,0,0,0-39.1001,16.6V192.9H2031.2998V301.5h48.80005V230.1c0-9.7,10.1001-19.8,23.5-19.8,13.3,0,22.6001,10.6,22.6001,19.8v71.4H2175V242.6C2174.5,199.3,2137.2,187.4,2119.2,187.8Zm-103.6,59.9c0-33.6-32.7-61.7-72.7-61.7s-72.3,27.2-72.3,61.2c0,33.6,32.19995,61.2,72.3,61.2,33.1,0,61.2-18.9,70-44.7h-48.8v6.4c0,19.8-12.9,24.4-20.30005,24.4S1923.1,289.9,1923.1,270.1V247.5h92.5Zm-88.79993-38.3c3.69995-6.9,11-9.7,17.5-10.1a20.50429,20.50429,0,0,1,17.5,10.1C1965,214.9,1965,221.4,1965,230.6h-41C1923.1,221,1923.1,215,1926.80005,209.4Zm581.3999-51c0-5.5-4.1001-7.8-12-7.8h-11v28.1h6.8999V167.2h3.19995l5.5,11.5h7.39991l-6-12.4C2505.8999,164.8,2508.2,162,2508.2,158.4Zm-12.8999,4.1h-3.19995v-8.3h2.8c4.10009,0,6,1.4,6,4.1C2501.30005,161.6,2499,162.5,2495.30005,162.5Zm0-23a25.201,25.201,0,0,0-25.3,25.3,25.30005,25.30005,0,0,0,50.6001,0A25.201,25.201,0,0,0,2495.30005,139.5Zm0,45.5a20.3,20.3,0,1,1,20.30005-20.3A20.187,20.187,0,0,1,2495.30005,185ZM2440.5,46.5H1399.30005c-110-.5-184.1,79.2-184.1,174s73.69995,173.1,184.6,173.1H2440.6001c110.5,0,184.6001-78.3,184.6001-173.1C2624.7,125.2,2550.5,46,2440.5,46.5Zm-.3999,304.7H1399.7c-87.9.5-141.30005-58.5-141.30005-131.2s53.9-130.7,141.30005-131.2H2440c87.5,0,141.3,58.5,141.3,131.2S2527.5,351.2,2440.1001,351.2ZM2440.5,46.5H1399.30005c-110-.5-184.1,79.2-184.1,174s73.69995,173.1,184.6,173.1H2440.6001c110.5,0,184.6001-78.3,184.6001-173.1C2624.7,125.2,2550.5,46,2440.5,46.5Zm-.3999,304.7H1399.7c-87.9.5-141.30005-58.5-141.30005-131.2s53.9-130.7,141.30005-131.2H2440c87.5,0,141.3,58.5,141.3,131.2S2527.5,351.2,2440.1001,351.2ZM2440.5,46.5H1399.30005c-110-.5-184.1,79.2-184.1,174s73.69995,173.1,184.6,173.1H2440.6001c110.5,0,184.6001-78.3,184.6001-173.1C2624.7,125.2,2550.5,46,2440.5,46.5Zm-.3999,304.7H1399.7c-87.9.5-141.30005-58.5-141.30005-131.2s53.9-130.7,141.30005-131.2H2440c87.5,0,141.3,58.5,141.3,131.2S2527.5,351.2,2440.1001,351.2Z" transform="translate(0 0)" style="fill:#e31e26"/></svg>