<svg id="Layer_1" data-name="Layer 1" xmlns="http://www.w3.org/2000/svg" viewBox="0 0 3839.99951 1052.59998">
  <g>
    <g>
      <rect x="1029.82141" y="455.82526" width="369.40002" height="72.59998" style="fill: #fff"/>
      <path d="M412.2,455.9H320.8V906.5A73.74843,73.74843,0,0,1,247.3,980H39.8v72.6H271A141.28442,141.28442,0,0,0,412.3,911.3V455.9Z" transform="translate(0 0)" style="fill: #fff"/>
      <path d="M1577.80005,883.9h-91.4V602a73.7484,73.7484,0,0,0-73.5-73.5h-207.6V455.9H1436.5a141.28446,141.28446,0,0,1,141.30005,141.3Z" transform="translate(0 0)" style="fill: #fff"/>
      <path d="M898.3,883.9H806.9V602a73.7484,73.7484,0,0,0-73.5-73.5H525.8V455.9H757A141.28441,141.28441,0,0,1,898.3,597.2Z" transform="translate(0 0)" style="fill: #fff"/>
      <rect x="1734.17212" y="633.63391" width="281.20001" height="72.59998" style="fill: #fff"/>
      <path d="M898.3,706.2V633.6H628.8a125.195,125.195,0,0,0-125.2,125.2h0a125.195,125.195,0,0,0,125.2,125.2H898.3v-72.6H646.9a51.85347,51.85347,0,0,1-51.9-51.9v-1.3a51.85346,51.85346,0,0,1,51.9-51.9H898.3Z" transform="translate(0 0)" style="fill: #fff"/>
      <rect x="1246.19995" y="455.89999" width="91.40002" height="428.10001" style="fill: #fff"/>
      <rect x="1005.90002" y="455.89999" width="91.40002" height="428.10001" style="fill: #fff"/>
      <path d="M3698.7,455.9H3268V884h91.3999V528.5h148.8999V884h91.39991V528.5h75.3999a73.74849,73.74849,0,0,1,73.5,73.5V884h91.3999V597.1A141.19837,141.19837,0,0,0,3698.7,455.9Z" transform="translate(0 0)" style="fill: #fff"/>
      <path d="M207.5,528.5H412.2V455.9H174.7C60.6,455.9,0,558.2,0,669.9s60.6,214,174.7,214H412.2v-72.6H207.5c-17.6,0-104.9-8.7-104.9-141.4S189.9,528.5,207.5,528.5Z" transform="translate(0 0)" style="fill: #fff"/>
      <path d="M1876.1,528.5h139.19995V455.9H1843.2C1729.1,455.9,1668.5,558.2,1668.5,669.9s60.6,214,174.69995,214h172.1v-72.6H1876.1c-17.6,0-104.9-8.7-104.9-141.4S1858.5,528.5,1876.1,528.5Z" transform="translate(0 0)" style="fill: #fff"/>
      <path d="M2508.30005,528.5h139.2V455.9H2475.3999C2361.2998,455.9,2300.7,558.2,2300.7,669.9s60.6001,214,174.69995,214H2647.5v-72.6h-139.2c-17.6001,0-104.8999-8.7-104.8999-141.4S2490.7,528.5,2508.30005,528.5Z" transform="translate(0 0)" style="fill: #fff"/>
      <path d="M2953.1001,452.4c-137.6001,0-225,80.5-225,225s87.3999,225,225,225,225-80.4,225-225C3178,532.9,3090.6001,452.4,2953.1001,452.4Zm0,381.1c-86,0-127.7-58.2-127.7-156,0-97.9,41.7-156,127.7-156s127.69995,58.2,127.69995,156C3080.7,775.3,3039.1001,833.5,2953.1001,833.5Z" transform="translate(0 0)" style="fill: #fff"/>
      <circle cx="2151.1001" cy="864.09998" r="63.89996" style="fill: red"/>
      <path d="M2198.30005,821a63.86732,63.86732,0,1,1-102.59985,74.80005" transform="translate(0 0)" style="fill: #fff"/>
      <path d="M2282.6001,774.5c-12.1001-21-77.80005,6.7-147.5,59.8s-122.1,111.3-102.1,128.9c24.79993,21.9,88.9-8.9,155.29993-59C2245.80005,860.8,2291.6001,790.2,2282.6001,774.5Zm-106,118.7c-57.6001,43.5-117.6001,69.1-132,58.1-18-13.6,32-64.1,92.5-110.1s117.1001-74.6,125.8-58.7C2269.3999,794.3,2226.5,855.5,2176.6001,893.2Z" transform="translate(0 0)" style="fill: #c4c4c4"/>
      <circle cx="2093" cy="948.70001" r="20.80002" style="fill: #0072bc"/>
      <path d="M2095.7,895.9a63.85716,63.85716,0,0,1,102.59985-74.8" transform="translate(0 0)" style="fill: #fff"/>
    </g>
    <g>
      <rect x="1238.19995" width="101.69995" height="353.60001" style="fill: red"/>
      <polygon points="958.9 86.7 1033.2 86.7 1033.2 87.8 1033.2 351.4 1033.2 353.6 1134.9 353.6 1134.9 351.4 1134.9 87.8 1134.9 86.7 1209.2 86.7 1209.2 0 958.9 0 958.9 86.7" style="fill: red"/>
      <path d="M1518.7,0C1417.3999,0,1363.5,88.4,1363.5,176.8s54,176.8,155.19995,176.8H1701.5V133.4H1522.1v86.7h77.69995v46.8h-51.8c-120.1,0-120.1-180.2,0-180.2h153.5V0Z" transform="translate(0 0)" style="fill: red"/>
      <path d="M2820.7,148.5c-28.2-15-62.1001,6.4-62.1001,38.3v6.6c0,12.6,6.3,23.9,15.69995,32.2,14,12.4,8.7,41.2-15.69995,41.2H2296.99976V233a35.87612,35.87612,0,0,0-19.6001-32c25.7-20.8,41.8-55.9,41.8-90.9,0-55-39.3-110.1-93.8-110.1H2012.2V239.5H2113.8999V86.7h76.2c12.69995,0,24,9.5,24.69995,22.1a23.32369,23.32369,0,0,1-23.3,24.6h-49.5v86.7h28.60009a24.79581,24.79581,0,0,1,24.8,24.8V353.6H2758.7c73.3999,0,122.6001-55,122.6001-110.1C2881.1001,206.1,2858.30005,168.6,2820.7,148.5Z" transform="translate(0 0)" style="fill: red"/>
      <path d="M1175.80005,93.5a33.4,33.4,0,1,0,33.4,33.4A33.45948,33.45948,0,0,0,1175.80005,93.5Z" transform="translate(0 0)" style="fill: red"/>
      <path d="M992.3,93.5a33.4,33.4,0,1,0,33.4,33.4A33.45948,33.45948,0,0,0,992.3,93.5Z" transform="translate(0 0)" style="fill: red"/>
      <path d="M1840.6,243.5a23.43011,23.43011,0,0,1,23.4-23.4h129.5V133.4H1864a23.4,23.4,0,1,1,0-46.8h129.5V0H1814.6001a91.22346,91.22346,0,0,0-91.2,91.2v13c0,40.1,31.4,72.5,41.30005,72.5-9.9,0-41.30005,32.5-41.30005,72.5v13a91.15956,91.15956,0,0,0,91.2,91.2H2114V266.7H1864.1A23.09462,23.09462,0,0,1,1840.6,243.5Z" transform="translate(0 0)" style="fill: red"/>
    </g>
  </g>
</svg>
