<svg id="Calque_1" data-name="Calque 1" xmlns="http://www.w3.org/2000/svg" viewBox="0 0 3839 933.40009"><g id="Layer_1" data-name="Layer 1"><path d="M2524.7,928.2l57.69995-375.5L2714.7,441.6H2956.3999L2938,560.5H2728.7l-10,65H2928l-18.2,118.8H2700.5l-10,65.1h209.3L2881.6001,928.2H2524.7Zm316.90015-46.5,4-25.9H2636.30005l7.30005-47.7,11.6001-75.3,5.3999-35.1h209.19995l4-25.9H2664.5l7.3-47.7,11.6001-75.2,3.7-23.7L2625.5,576.9l-46.7,304.7H2841.6001Zm56.5-367.7,4-25.9H2731.30005L2700.5,514Z" transform="translate(0 0)" style="fill:#034693"/><path d="M2950.30005,446.8,2933.6001,555.5H2724.30005L2712.7,630.7H2922l-16.7,108.7H2696l-11.6001,75.3H2893.7L2877,923.4H2530.3999l56.5-367.7L2716.2998,447h234.00025m-42.19995,36h-178.5l-108.80005,91.4-47.8999,312.4h273.10009l5.6001-36.1h-209.3l6.39991-41.8,11.60009-75.3,4.8-30.8h209.2002l5.60009-36.1h-209.3l6.3999-41.8,11.6001-75.2,4.8-30.8h209.3L2908.1001,483m54-46.4H2712.7002l-2.80005,2.4L2580.50024,547.7l-2.8999,2.5-.6001,3.8-56.5,367.7-1.8,11.7h367.10009l1.3-8.6,16.7-108.7,1.8-11.7h-209.3l8.5-54.9h209.3l1.3-8.6,16.7-108.7,1.8-11.7h-209.3l8.3999-54.8h209.30005l1.3-8.6,16.7-108.7,1.79981-11.8ZM2733.2,493.2h163l-2.3999,15.7H2714.50024L2733.2,493.2Zm-103,86.5,49.69995-41.8-1.6001,10.4-11.60009,75.2-6.39991,41.9-1.8,11.7H2867.7l-2.3999,15.7H2656.2l-1.30005,8.6-4.8,30.8-11.60009,75.3-6.39991,41.9-1.80005,11.7H2839.5l-2.3999,15.7H2584.5L2630.2,579.7Z" transform="translate(0 0)" style="fill:#fff"/><path d="M1524.30005,928.2,1582,552.7l132.30005-111.1H1956l-18.19995,118.8H1728.5l-10,65h209.30005L1909.6001,744.2H1700.30005l-10,65.1H1899.6001l-18.2,118.8h-357.1001ZM1841.2,881.7l4-25.9H1635.8999L1643.2,808.1l11.6-75.3,5.4-35.1h209.1l4-25.9h-209.3l7.3-47.7,11.6-75.2,3.7-23.6-61.5,51.6-46.7,304.7H1841.2ZM1897.7,514l4-25.9H1731L1700.2,514Z" transform="translate(0 0)" style="fill:#034693"/><path d="M1950,446.8l-16.69995,108.7H1724l-11.6,75.2h209.30005l-16.7,108.7h-209.3l-11.6,75.3h209.3L1876.7002,923.4h-346.6l56.5-367.7,129.4-108.7H1950M1572.5,886.8h273.1l5.6-36.1H1641.8999l6.4-41.8,11.6-75.3,4.80005-30.8h209.1l5.6-36.1H1670l6.4-41.8,11.6-75.2,4.80005-30.8H1902l5.6-36.1H1729.2l-108.80005,91.4L1572.5,886.8m389.30005-450.2H1712.4l-2.8,2.4L1580.2,547.7l-2.9,2.5-.6,3.8-56.5,367.7-1.80005,11.7h367.1l1.3-8.6,16.7-108.7,1.8-11.7H1696l8.5-54.9h209.29993l1.30005-8.6,16.69995-108.7L1933.6,620.5H1724.29993l8.4-54.8h209.29993l1.3-8.6,16.7-108.7,1.80017-11.8Zm-228.9,56.6h162.9l-2.4,15.7H1714.2L1732.9,493.2Zm-103,86.5,49.6-41.7-1.6,10.3-11.6,75.2-6.4,41.9-1.8,11.7h209.3l-2.4,15.7H1655.9l-1.3,8.6-4.80005,30.8-11.6,75.3-6.4,41.9-1.8,11.7H1839.2l-2.4,15.7H1584.2L1629.9,579.7Z" transform="translate(0 0)" style="fill:#fff"/><path d="M1105.1,928.2l56.5-367.7h-75L1030,928.2H882.5l57.7-375.5,132.3-111.1h475.4l-74.69995,486.5h-147.6l56.5-367.6h-73l-56.5,367.7Zm328-46.6,60.5-393.8H1088.80005l-30.9,26h157.5l-7.3,47.7-49.1,320h53.5l51.1-332.6,5.4-35.1h167.1l-7.30005,47.7L1379.6,881.6001h53.5Zm-443.4-.2,51.1-332.6L1044.5,524.9,983,576.8,936.3,881.5h53.4Z" transform="translate(0 0)" style="fill:#034693"/><path d="M1541.9,446.8l-73.1,476.3H1331.5L1388,555.5H1304.7l-56.5,367.7H1111l56.5-367.7H1082.2l-56.5,367.7H888.4l56.5-367.7,129.4-108.7h467.6M930.3,886.5h63.8l51.8-336.9,4.80005-30.8h158.8l-6.4,41.8L1153,886.6h63.80005l51.80005-336.9,4.8-30.8H1430.2002l-6.4,41.8-50.1,325.9h63.8l62.1-403.7v-.3H1087L978.2,574,930.3,886.5m623.4-449.9H1070.5L1067.7,439,938.3,547.6l-2.9,2.5-.6,3.8L878.3,921.6l-1.8,11.7h157.79993l1.30005-8.6,55.1-359.1H1155.5l-54.69995,356L1099,933.3H1256.7L1258,924.7l55.1-359.1h62.69995L1321.1,921.5l-1.80005,11.7H1477.1l1.3-8.6,73.1-476.3L1553.7,436.6Zm-463,56.3h397l-59,383.7H1385.5l48.30005-314.2,6.4-41.8,1.8-11.7h-177.3l-1.30005,8.6-4.8,30.8-50.5,328.3h-43.2l48.30005-314.2,6.4-41.8,1.8-11.7H1072L1090.7,492.9ZM987.7,579.4l49.8-41.8-1.6,10.5L985.4,876.4H942.2l45.5-297Z" transform="translate(0 0)" style="fill:#fff"/><path d="M2086.5,928.2l57.7-375.5,132.3-111.1h166.8l92.80005,118.8h-245.5l-27.2,176.9,133.10009-111.8h123.39991l-46.39991,302.6H2086.5Zm347.1001-46.5,32.3-209.7h-52.5l-30.89991,25.9h25.80005l-7.30005,47.7-11.60009,75.2-5.39991,35.1h-186l7.30005-47.7,39.8-259.1,3.7-23.6-61.5,51.6-46.7,304.7H2433.6001ZM2344.2,809.4l10-65h-91.8999l-10,65Zm96.6001-295.4-20.19995-25.9H2293.30005L2262.5,514Z" transform="translate(0 0)" style="fill:#034693"/><path d="M2440.80005,446.8,2525.7,555.5H2286.2L2246.3999,814.6h102.2L2360.2,739.4H2269l129.3999-108.7H2514l-44.8999,292.5h-376.7l56.5-367.7,129.3999-108.7h162.5M2134.7,886.8H2438l33.8-219.9H2411.6001l-43,36.1h33.8l-6.39991,41.8L2384.40015,820l-4.8,30.8H2204l6.3999-41.8L2250.2,549.9l4.8-30.8h196.2L2423,483H2291.3999l-108.8,91.4L2134.7,886.8m311.1001-450.2H2274.6001l-2.80005,2.4-129.3999,108.7-2.89991,2.5-.60009,3.8-56.5,367.7-1.8,11.7h397.19995l1.30005-8.6,44.8999-292.5,1.8-11.7H2394.6001l-2.80005,2.4-121.3,101.9,24.5-159.2h251.6001l-12.80005-16.4-84.8999-108.7-3.1001-4ZM2295.1001,493.2h123l12.3,15.7h-154l18.7-15.7Zm-103,86.5,49.6001-41.7-1.6001,10.3-39.80005,259.1-6.3999,41.8-1.8,11.7h196.19995l1.30005-8.6,4.8-30.8,11.60009-75.2,6.39991-41.9,1.80005-11.7h-17.7l18.80005-15.7h44.69995l-30.69995,199.6h-282.7l45.49976-296.9ZM2266.7,749.5h81.69995L2340,804.3h-81.6001L2266.7,749.5Z" transform="translate(0 0)" style="fill:#fff"/><path d="M5.9,928.1l57.7-375.4L195.9,441.6H362.7l92.8,118.7H210l-27.2,176.9L315.9,625.4H439.3L392.9,928H5.9Zm347.2-46.4L385.3,672H332.8L302,697.9h25.8l-7.3,47.7-11.6,75.2-5.4,35.1h-186l7.3-47.7,39.8-259.1,3.7-23.6-61.5,51.6L60.1,881.7Zm-89.5-72.4,10-65H181.7l-10,65ZM360.2,514,340,488.1H212.7L181.9,514Z" transform="translate(0 0)" style="fill:#034693"/><path d="M360.2,446.8l84.9,108.6H205.6L165.8,814.5H268l11.6-75.2H188.4L317.8,630.6H433.5L388.6,923.1H11.8L68.3,555.5,197.7,446.8H360.2m-306,440H357.5l33.8-219.9H331L288,703h33.8l-6.4,41.8L303.9,820l-4.8,30.8H123.5l6.4-41.8,39.8-259.1,4.8-30.8H370.7L342.5,483H210.9L102.1,574.4,54.2,886.8M365.1,436.6H194l-2.8,2.4L61.8,547.6l-2.9,2.5-.6,3.8L1.8,921.5,0,933.2H397.2l1.3-8.6,44.9-292.5,1.8-11.7H314l-2.8,2.4L189.9,724.7l24.5-159.2H466l-12.8-16.4L368.3,440.5l-3.2-3.9ZM214.6,493.2h123l12.3,15.7H195.8l18.8-15.7Zm-103,86.5L161.2,538l-1.6,10.3L119.8,807.4l-6.4,41.8-1.8,11.7H307.9l1.3-8.6,4.8-30.8,11.6-75.2,6.4-41.9,1.8-11.7H316L334.8,677h44.7L348.8,876.6H66l45.6-296.9Zm74.5,169.7h81.7l-8.4,54.8H177.8l8.3-54.8Z" transform="translate(0 0)" style="fill:#fff"/><path d="M2932.80005,928.1l29.6001-192.6,131.10009-110.1h125.30005l10-65h-247.5l141.5-118.8h271.8l-74.8999,486.5H2932.80005Zm347.30005-46.4,60.5-393.6L3140,488.2l-30.8999,25.9h174.1001l-7.30005,47.7-11.6001,75.2-5.3999,35.1H3110.7002l-17.7,14.8h10.30005v11h151.6001l-7.3,47.7-4.3999,28.4-15.6001,107.8h52.49976Zm-100.6001,0,4-26h-139l7.3-47.7,9-58.5h-20.3V730.8l-34.7,29.1L2987.1001,881.6H3179.5Zm11.1001-72.4,10-65h-91.8999l-10,65Z" transform="translate(0 0)" style="fill:#034693"/><path d="M3388.7,446.8,3315.3999,923.1H2938.7l28.3999-184.8,128.3-107.7H3223.2l11.6001-75.2h-239.5L3124.7,446.7h264M3095.1001,519.2h182l-6.3999,41.8-11.6001,75.2-4.80005,30.8H3108.5l-29.8,25h19.19995v11h150.7L3242.2,744.8l-4.5,29h0l-16.30005,113h62.7L3346.2,483l-208.3999.1-42.69995,36.1M2981.2,886.8H3183.8999l5.5-36.2H3050.49976l6.3999-41.8,9.8999-64.3h-21.19995V720l-44.5,37.4L2981.2,886.8m111.6001-72.4H3195l11.6001-75.2h-102.2l-11.6001,75.2M3400.6001,436.6H3121l-2.8,2.4-129.3999,108.7-21.3999,17.9h255.5l-8.39991,54.8H3091.80029l-2.80005,2.4-128.3,107.7-2.89991,2.5-.60009,3.8-28.39991,184.8-1.80005,11.7h397.2l1.3-8.6,73.30005-476.3L3400.6001,436.6Zm-258.80005,56.7,192.8999-.1-58.8999,383.5h-42.3l14.7-101.4.1001-.6,4.3999-28.3,6.3999-41.9,1.8-11.7h-152.3v-11H3107.2l5.6001-4.7h150.7998l1.3-8.6,4.80005-30.8,11.6001-75.2,6.3999-41.9,1.8-11.7H3123l18.8-15.59991ZM3010.6001,762.6l24.8999-20.9v12.9H3055l-8.1001,52.6L3040.5,849.1l-1.8,11.7H3177.6001l-2.3999,15.8H2993l17.6001-114Zm102.5-13.2h81.6001l-8.39991,54.8H3104.7002l8.3999-54.8Z" transform="translate(0 0)" style="fill:#fff"/><path d="M3610.80005,928.2,3639,744.4h-91.8999l-28.2,183.8h-147.6001L3429,552.7l132.3-111.1H3833.1001l-28.3999,185.2-75.5,63.4,54.8999,70.8-25.7,167.2Zm107.7-46.5,16.6001-108.1-44.6001-57.6-4.5,29.4L3665,881.7Zm-239.5-.1,22.8-148.7,5.3999-35.1h151.1001V671.9H3511.1001l7.3-47.7,11.60009-75.2,3.7-23.8-61.5,51.7-46.7,304.7Zm235.8-247.6v7.5l46.6001-39.1,17.5-114.3H3578.2002l-30.89991,26h174.19995l-7.3,47.7L3703,634Zm-57.5-8.5,10-65h-91.8999l-10,65Z" transform="translate(0 0)" style="fill:#034693"/><path d="M3827.2,446.8l-27.2,177.4-77.8,65.3,56.6001,72.9L3754,923.2H3616.7l28.19995-183.8H3542.7l-28.2,183.8H3377.2l56.5-367.7,129.3999-108.7H3827.2M3419.6001,886.7h63.8l23.5-153,4.80005-30.8h175.6997l.5-3.3H3663.5V666.9H3517.2l6.3999-41.8L3535.2,549.9l4.8-30.8h175.7l-6.3999,41.8L3697.7,636.1l-.5,3h12.6001v13.3L3766.2,605l18.69995-122.1h-208.5l-108.8,91.4L3419.6001,886.7M3559.5,630.6h102.2l11.6001-75.2H3571l-11.5,75.2m99.6001,256.2h63.8l17.60009-114.6-47-60.6-6.19995-8v-.1h0l-6.30005,41.2L3659.1001,886.8M3839,436.6H3559.3999l-2.8,2.4L3427.2,547.7l-2.8999,2.5L3423.7,554l-56.5,367.7-1.80005,11.7H3523.2l1.3-8.6,26.8999-175.2H3633l-26.3999,172.1-1.80005,11.7H3762.7l1.3-8.6,24.7-160.8.69995-4.3-2.69995-3.5-50.6001-65.2,70.3-59,2.8999-2.5.6001-3.8,27.2-177.4L3839,436.6Zm-259,56.5h193l-16.3,106.6-36.80005,30.9v-1.6h-11l10.2-66.5,6.39991-41.9,1.8-11.7H3561.1001L3580,493.1Zm-103,86.5,49.7-41.7-1.6001,10.4-11.60009,75.2-6.39991,41.9-1.80005,11.7h148v15.7H3502.8999l-1.3,8.6-4.80005,30.8-22.10009,144.4h-43.19995L3477,579.6Zm102.7-14h81.6001l-8.3999,54.8h-81.6001l8.3999-54.8Zm91.19995,311,20-130.4,2.7-17.7,36.1001,46.5-15.6001,101.6h-43.2Z" transform="translate(0 0)" style="fill:#fff"/><path d="M444,928.1l29.6-192.6L604.7,625.4H730l10-65H492.6L634.1,441.6H905.9L831.1,928.1H444Zm346.3-47.6,60.1-391.3H651.5l-28.1,23.6H795.6l-7.5,49-11.6,75.2L771,673H622.2l-15.9,13.3v11.4H766l-7.3,47.7-11.6,75.2-5.4,35.1h-186L563,808l11.3-73.3H556.6v-6.6l-38.5,32.4-18.4,120H790.3Zm-88.5-71.2,10-65H620l-10,65Z" transform="translate(0 0)" style="fill:#034693"/><path d="M900,446.8,826.8,923.1H450l28.4-184.8L606.7,630.6H734.5l11.6-75.2H506.5L635.9,446.7H900M609.4,517.8H789.7L783.1,561l-11.6,75.2L766.6,668H620.4L594,690.1h7.3v12.8H760.2l-6.4,41.8-11.6,75.2-4.8,30.8H561.7l6.4-41.8,11.6-75.2.6-4H561.7v-12.5l-48.3,40.6-19.6,127.8H794.7l61.6-401.5H649.6L609.4,517.8M604,814.4H706.2l11.6-75.2H615.6L604,814.4M911.8,436.6H632.2l-2.8,2.4L500,547.6l-21.4,17.9H734.1l-8.4,54.8H603l-2.8,2.4L471.9,730.4l-2.9,2.5-.6,3.8L440,921.5l-1.8,11.7H835.5l1.3-8.6L910,448.3l1.8-11.7ZM653.3,494.3H844.4L785.9,875.4H505.6l17.2-112.3,28.7-24.1v.8h16.9L558,807.3l-6.4,41.9-1.8,11.7H746.1l1.3-8.6,4.8-30.8,11.6-75.2,6.4-41.9,1.8-11.7H611.4v-4l12.7-10.6H775.4l1.3-8.6,4.9-31.8,11.6-75.1,6.6-43.2,1.8-11.7H637.3L653.3,494.3Zm-29,255.1h81.6l-8.4,54.8H615.9l8.4-54.8Z" transform="translate(0 0)" style="fill:#fff"/><path d="M3576.30005,482.9l-108.8,91.4-47.8999,312.4h63.8l23.5-153,4.80005-30.8h175.6997l5.6001-36.4,5.8999-5L3766.2,604.9l18.69995-122.1H3576.30005ZM3682,650.7l-145.8999-6.8L3551,531.1l143.8,7.8Z" transform="translate(0 0)" style="fill:#fff"/><path d="M3138.1001,483.1l-43,36.1h182l-6.3999,41.8-11.6001,75.2-4.80005,30.8H3108.5l-107.7,90.4-19.8999,129.5H3284.2002l62.10009-403.8Zm77.19995,352.2L3071.7,830.6l13.3-109.4,137.7,8.5Z" transform="translate(0 0)" style="fill:#fff"/><path d="M649.6,484.1l-40.2,33.7H789.7L783.1,561l-11.6,75.2L766.6,668H620.4l-107,89.9L493.8,885.7H794.7l61.6-401.5H649.6Zm61.6,352.3H577.4L604,729.7H729Z" transform="translate(0 0)" style="fill:#fff"/><path d="M3673.2,555.4l-11.6001,75.2h-102.2L3571,555.4h102.2m42.40015-36.3H3539.80005l-4.8,30.8-11.6001,75.2L3517,666.9h175.7l4.8-30.8,11.6001-75.2,6.5-41.8Z" transform="translate(0 0)" style="fill:#034693"/><path d="M3206.5,739.2l-11.6001,75.2H3092.7l11.6001-75.2h102.2m42.3999-36.3H3073.2l-4.80005,30.8-11.6001,75.2-6.3999,41.8H3226.2l4.8-30.8,11.6001-75.2,6.2998-41.8Z" transform="translate(0 0)" style="fill:#034693"/><path d="M717.8,739.2l-11.6,75.2H604l11.6-75.2H717.8m42.3-36.3H584.4l-4.8,30.8L568,808.9l-6.4,41.8H737.4l4.8-30.8,11.6-75.2,6.3-41.8Z" transform="translate(0 0)" style="fill:#034693"/><path d="M856.3,484.1,794.7,885.6h-301l19.6-127.8,107-89.9H766.6l4.9-31.8,11.6-75.2,6.6-43.2H609.4l40.2-33.7H856.3M900,446.8H635.9L506.5,555.4H746l-11.6,75.2H606.7L478.4,738.2,450,923.1H826.8L900,446.8Z" transform="translate(0 0)" style="fill:#034693"/><path d="M2933.7,555.4l16.69995-108.7H2716.5L2587,555.4l-56.5,367.7h346.6001l16.69995-108.7H2684.5l11.6001-75.3h209.3l16.7-108.7H2712.80005l11.6001-75.2H2933.7Zm-220.8999,111.4h167L2874.2,702.9H2664.8999l-4.8,30.8-11.60009,75.3-6.39991,41.8h209.3l-5.6001,36.1H2572.69971l47.8999-312.4,108.8-91.4h178.5l-5.6001,36.1h-209.3l-4.80005,30.8-11.60009,75.2-6.39991,41.8h42.60059Z" transform="translate(0 0)" style="fill:#034693"/><path d="M1586.7,555.4l-56.5,367.7h346.6l16.7-108.7H1684.19983l11.6-75.3h209.30005l16.69995-108.7h-209.3l11.6-75.2h209.30005l16.69995-108.7h-233.9ZM1907.6,483l-5.6,36.1H1692.70007L1687.9,549.9l-11.6,75.2-6.4,41.8h209.30005l-5.6,36.1h-209.1l-4.8,30.8-11.6,75.3-6.4,41.8h209.3l-5.6,36.1h-273.1l47.9-312.4,108.8-91.4H1907.6Z" transform="translate(0 0)" style="fill:#034693"/><path d="M1074.2,446.8,944.8,555.4,888.3,923.1h137.3l56.5-367.7h85.3L1111,923.2H1248.2l56.5-367.7H1388l-56.5,367.6h137.30005l73.1-476.3ZM1437.5,886.7H1373.7l50.1-325.9,6.4-41.8H1273.3999l-4.8,30.8-51.80005,336.9H1153l50.1-325.9,6.4-41.8H1050.7l-4.80005,30.8-51.8,336.9h-63.8l47.9-312.4L1087,482.90005h412.5v.3Z" transform="translate(0 0)" style="fill:#034693"/><path d="M2246.3999,814.5,2286.2,555.4h239.5l-84.8999-108.7h-162.5l-129.3999,108.7-56.5,367.7h376.7L2514,630.6h-115.7L2269,739.3h91.2l-11.6001,75.2ZM2368.6001,703l43-36.1h60.19995L2438,886.8H2134.7l47.8999-312.4,108.8-91.4H2423l28.1001,36.1h-196.2l-4.8,30.8L2210.30005,809l-6.3999,41.8h175.7l4.8-30.8,11.60009-75.2,6.39991-41.8Z" transform="translate(0 0)" style="fill:#034693"/><path d="M165.8,814.4l39.8-259.1H445.1L360.2,446.7H197.7L68.3,555.4,11.8,923.1H388.5l44.9-292.5H317.7L188.3,739.2h91.2L268,814.4ZM288.1,703l43-36.1h60.2l-33.8,219.9H54.2l47.9-312.4L210.9,483H342.5l28.1,36.1H174.4l-4.8,30.8L129.8,809l-6.4,41.8H299.2L304,820l11.6-75.2L322,703Z" transform="translate(0 0)" style="fill:#034693"/><path d="M3124.7,446.8l-129.3999,108.7h239.5L3223.2,630.7H3095.3999l-128.3,107.7L2938.7,923.2H3315.3999L3388.7,446.9h-264Zm159.69995,440h-303.3l19.89991-129.5,107.69995-90.4h145.80005l4.8-30.8,11.6001-75.2,6.3999-41.8h-182l43-36.1,208.39991-.1Z" transform="translate(0 0)" style="fill:#034693"/><polygon points="693.6 896.8 731.1 899 746.7 790 710.7 785.6 693.6 896.8" style="fill:#034693"/><path d="M3827.2,446.8h-264.1001L3433.7,555.5l-56.5,367.7h137.3l28.2-183.8H3645l-28.2,183.8H3754l24.7-160.8-56.6001-72.9,77.8-65.3ZM3740.3999,772.2l-17.6001,114.6h-63.8l21.8-142.1,6.30005-41.2h0v.1l6.19995,8ZM3766.1001,605l-67.30005,56.6-5.8999,5-5.6001,36.4H3511.6001l-4.80005,30.8-23.5,153h-63.8l47.8999-312.4L3576.2,483h208.5Z" transform="translate(0 0)" style="fill:#034693"/><path d="M2310.3999,57.4a82.24133,82.24133,0,0,0-156.7998,0l-27.7,82.2V4.8H1980.7002c-25.80005,0-49.7,10.6-67.80005,27.7V4.8h-149.1a96.68466,96.68466,0,0,0-70.69995,30.6V4.8h-141.5c-60.19995,0-109.9,49.7-109.9,109.9a108.58592,108.58592,0,0,0,29.69995,74.5H1441.7002V317.3h141.5c40.1,0,74.5-21,94.69995-53.5,16.2,31.6,48.7,53.5,86.9,53.5h150V289.6a95.23484,95.23484,0,0,0,67.80005,27.7h414.79993Z" transform="translate(0 0)" style="fill:#fff"/><path d="M1583.1,212.2H1463.7v37.3h119.4a42,42,0,0,0,0-84h-30.6c-27.69995,0-50.69995-23-50.69995-50.7s23-50.7,50.69995-50.7H1671V26.7H1551.6a87.9,87.9,0,1,0,0,175.8h30.6A4.56651,4.56651,0,0,1,1587,207.3C1586.9,210.2,1585.1,212.2,1583.1,212.2Z" transform="translate(0 0)" style="fill:#034693"/><path d="M1551.6,110.9H1671V72.6H1551.6a42,42,0,0,0,0,84h30.6c27.69995,0,50.69995,23,50.69995,50.7s-23,50.7-50.69995,50.7H1463.7v37.3H1583a87.9,87.9,0,1,0,0-175.8h-30.6a4.56651,4.56651,0,0,1-4.8-4.8A4.36177,4.36177,0,0,1,1551.6,110.9Z" transform="translate(0 0)" style="fill:#034693"/><path d="M1980.6,72.6a28.09754,28.09754,0,0,0-28.6,28.6V220.6a28.09754,28.09754,0,0,0,28.6,28.6H2058V165.1h-59.19995v37.3h21.9V211h-21.9a8.5994,8.5994,0,0,1-8.6-8.6V118.3a8.59947,8.59947,0,0,1,8.6-8.6h106V72.6Z" transform="translate(0 0)" style="fill:#034693"/><path d="M2215.7,249.4h86.8999l-59.2-175.8c-1.8999-4.8-5.69995-8.6-11.5-8.6-4.8,0-9.5,3.9-11.5,7.6L2144,295.2h44l26.7-79.3v33.4h1Zm15.40015-80.3L2243.5,207.3h-25.8Z" transform="translate(0 0)" style="fill:#034693"/><path d="M2289.30005,65.9C2281.7,41,2258.7,21.9,2231,21.9s-50.7,18.2-57.3999,43l-69.80005,204.5v-150h-105.1v37.3H2067.5V258h-86A37.36268,37.36268,0,0,1,1944.2,220.7V101.3A37.36262,37.36262,0,0,1,1981.5,64h123.3V26.7H1980.6001a74.558,74.558,0,0,0-74.5,74.5V220.6a74.558,74.558,0,0,0,74.5,74.5H2134.5l77.3999-224.5a21.27636,21.27636,0,0,1,40.2002,0l63.1001,187.3h-99.39991v37.3h151Z" transform="translate(0 0)" style="fill:#034693"/><path d="M1763.7,258.1a37.36268,37.36268,0,0,1-37.30005-37.3V101.3A37.36262,37.36262,0,0,1,1763.7,64h128.1V26.7H1763.7a74.558,74.558,0,0,0-74.5,74.5V220.6a74.558,74.558,0,0,0,74.5,74.5h128.1V258H1763.7Z" transform="translate(0 0)" style="fill:#034693"/><path d="M1772.30005,203.5H1865V166.2H1735v55.5a28.09754,28.09754,0,0,0,28.6,28.6h128.1V213h-110.9C1776.2,212.2,1772.30005,208.3,1772.30005,203.5Z" transform="translate(0 0)" style="fill:#034693"/><path d="M1865.1,119.4h-92.7a8.59947,8.59947,0,0,1,8.6-8.6h109.9V72.6h-127a28.09753,28.09753,0,0,0-28.6,28.6v55.5h130C1865.1,156.7,1865.1,119.4,1865.1,119.4Z" transform="translate(0 0)" style="fill:#034693"/><polygon points="1670 666.8 1676.4 625 1687.9 549.8 1692.7 519.1 1723.9 519.1 1902 519.1 1907.6 483 1907.6 483 1729.2 483 1620.4 574.4 1572.5 886.8 1845.6 886.8 1851.2 850.8 1684.2 850.8 1641.8 850.8 1648.2 808.9 1659.8 733.7 1664.6 702.9 1695.6 702.9 1873.7 702.9 1879.3 666.8 1712.3 666.8 1670 666.8" style="fill:#fff"/><polygon points="930.3 886.5 994.1 886.5 1045.9 549.6 1050.7 518.9 1081.9 518.9 1167.2 518.9 1209.5 518.9 1203.1 560.7 1153 886.6 1216.8 886.6 1268.6 549.7 1273.4 519 1304.6 519 1387.8 519 1430.2 519 1423.8 560.8 1373.7 886.7 1437.5 886.7 1499.6 483 1499.6 482.7 1087 482.7 978.3 574.1 930.3 886.5" style="fill:#fff"/><polygon points="331 666.9 288.1 703 321.9 703 315.5 744.8 303.9 820 299.1 850.8 268 850.8 165.8 850.8 123.4 850.8 129.8 808.9 169.7 549.8 174.4 519.1 205.6 519.1 370.6 519.1 342.5 483 342.5 483 210.9 483 102.1 574.4 54.2 886.8 357.4 886.8 391.3 666.9 331 666.9" style="fill:#fff"/><polygon points="2411.6 666.9 2368.6 703 2402.4 703 2396 744.8 2384.4 820 2379.7 850.8 2348.5 850.8 2246.3 850.8 2204 850.8 2210.4 808.9 2250.2 549.8 2254.9 519.1 2286.1 519.1 2451.2 519.1 2423 483 2423 483 2291.4 483 2182.6 574.4 2134.7 886.8 2438 886.8 2471.8 666.9 2411.6 666.9" style="fill:#fff"/><polygon points="2688.4 549.8 2693.2 519.1 2724.3 519.1 2902.5 519.1 2908.1 483 2908.1 483 2729.5 483 2620.8 574.4 2572.8 886.8 2845.9 886.8 2851.5 850.8 2684.5 850.8 2642.2 850.8 2648.6 808.9 2660.2 733.7 2664.9 702.9 2696 702.9 2874.1 702.9 2879.7 666.8 2712.8 666.8 2670.4 666.8 2676.8 625 2688.4 549.8" style="fill:#fff"/><polygon points="3687.2 703.6 3687.2 703.5 3687.2 703.5 3680.9 744.7 3659.1 886.8 3722.9 886.8 3740.4 772.2 3693.4 711.6 3687.2 703.6" style="fill:#fff"/></g></svg>