<svg id="Layer_1" data-name="Layer 1" xmlns="http://www.w3.org/2000/svg" viewBox="0 0 3839.0034 1112.20163"><path d="M1521.80005,184.5,1458.6001,82.1h-45.80005V228.6h45.4V126.3l63.6,102.4h45.4V82.1h-45.4Zm359.1-53.2V116.8H1857V97h-44.19995v19.8h-23.9v14.5h23.9v97.4H1857V131.3h23.9Zm-288.5,97.4h44.2V131.3h-44.2Zm0-116.8h44.2V81.7h-44.2Zm771.9,12.8c-35.5,0-64.3999,24.3-64.3999,54.9,0,30.1,28.8999,54.9,64.3999,54.9S2428.7,210.2,2428.7,179.6,2400.6001,124.7,2364.30005,124.7Zm17.7,75.1c0,15.7-9.1001,21.9-18.1001,21.9-8.69995,0-18.1001-6.6-18.1001-21.9V158.6c0-15.3,9.1001-21.9,18.1001-21.9,8.7,0,18.1001,6.2,18.1001,21.9v41.2Zm-139.5-63.6c-7-4.1-14.5-7.8-24.8-8.7-31.80005-2.9-56.2,25.2-56.2,51.2,0,33.9,26,46.6,30.1001,48.3,14.8999,7,33.8999,7,50.8-3.7v5.8h43.30005V82.6h-43.30005C2242.5,82.1,2242.5,113.5,2242.5,136.2Zm0,43.4v17.3c0,14.9-10.3,19-17.3,19s-17.30005-4.1-17.30005-19V162.3c0-15.3,10.30005-19,17.30005-19s17.3,3.7,17.3,19Zm-502.69995-52.9a51.6884,51.6884,0,0,0-35.1,14.9V131.3H1660.9v97.4h43.80005v-64c0-8.7,9.1-17.8,21-17.8S1745.9,156.4,1745.9,164.7v64h43.80005V175.9C1789.7,137,1756.30005,126.3,1739.80005,126.7ZM2098,126.7a51.689,51.689,0,0,0-35.1001,14.9V131.3h-43.8v97.4h43.69995v-64c0-8.7,9.1001-17.8,21-17.8s20.2,9.5,20.2,17.8v64h43.8V175.9C2147.6001,137,2114.1001,126.3,2098,126.7ZM2005.2,180.4c0-30.1-29.30005-55.3-65.19995-55.3S1875.2,149.4,1875.2,180c0,30.1,28.9,54.9,64.80005,54.9,29.69995,0,54.9-16.9,62.69995-40H1958.8999v5.8c0,17.8-11.6,21.9-18.1,21.9-6.6,0-18.6-4.1-18.6-21.9V180.5h83ZM1925.5,146.1c3.30005-6.2,9.9-8.7,15.69995-9.1a18.26578,18.26578,0,0,1,15.69995,9.1c2.9,4.9,2.9,10.7,2.9,19H1923C1922.2,156.4,1922.2,151.1,1925.5,146.1Zm521.3-45.8c0-4.9-3.69995-7-10.69995-7h-9.8999v25.2h6.19995V108.2h2.8999l4.8999,10.3h6.6001l-5.3999-11.1C2444.7,106.1,2446.80005,103.6,2446.80005,100.3Zm-11.5,3.7h-2.8999V96.6h2.5c3.7,0,5.3999,1.3,5.3999,3.7C2440.6001,103.2,2438.6001,104,2435.30005,104Zm0-20.6a22.61908,22.61908,0,0,0-22.69995,22.7,22.7,22.7,0,1,0,22.69995-22.7Zm0,40.9a18.1,18.1,0,1,1,18.1001-18.1A18.03081,18.03081,0,0,1,2435.30005,124.3ZM2386.1001,0h-933.7c-98.6-.4-165.1,71-165.1,156s66,155.2,165.5,155.2H2386.1001c99.1001,0,165.5-70.1,165.5-155.2C2551.2,70.6,2484.80005-.4,2386.1001,0ZM2385.7,273.2h-932.9c-78.8.4-126.69995-52.4-126.69995-117.6S1374.4,38.4,1452.9,38h932.9c78.3999,0,126.7,52.4,126.7,117.6S2464.1001,273.2,2385.7,273.2ZM2386.1001,0h-933.7c-98.6-.4-165.1,71-165.1,156s66,155.2,165.5,155.2H2386.1001c99.1001,0,165.5-70.1,165.5-155.2C2551.2,70.6,2484.80005-.4,2386.1001,0ZM2385.7,273.2h-932.9c-78.8.4-126.69995-52.4-126.69995-117.6S1374.4,38.4,1452.9,38h932.9c78.3999,0,126.7,52.4,126.7,117.6S2464.1001,273.2,2385.7,273.2ZM2386.1001,0h-933.7c-98.6-.4-165.1,71-165.1,156s66,155.2,165.5,155.2H2386.1001c99.1001,0,165.5-70.1,165.5-155.2C2551.2,70.6,2484.80005-.4,2386.1001,0ZM2385.7,273.2h-932.9c-78.8.4-126.69995-52.4-126.69995-117.6S1374.4,38.4,1452.9,38h932.9c78.3999,0,126.7,52.4,126.7,117.6S2464.1001,273.2,2385.7,273.2Z" transform="translate(0.0034 0.00168)" style="fill:#e31e26"/><path d="M3619.5,1065.2h5.8c6.80005,0,9.8999-2,9.8999-6.9,0-5.1-3.3999-7.3-10.3999-7.3h-5.19995v14.1m41.2998,3.30017a35.35,35.35,0,1,1-35.3-35.4A35.27323,35.27323,0,0,1,3660.8999,1068.4ZM3625.6001,1024.7a43.75,43.75,0,1,0,43.8,43.80005A43.5751,43.5751,0,0,0,3625.6001,1024.7Zm1.19995,18.80005c13.7,0,20.7,4.69995,20.7,13.9,0,6.30005-4,11.2-10.7,12.80005l10.8999,21.6h-13.1001L3625.2998,1072h-5.8V1091.7h-11.80005v-48.4l19.10034.20007Z" transform="translate(0.0034 0.00168)" style="fill:#fff"/><path d="M824.2,778,799.6,651.4,743,778.1h81.2M1713,1099.80005H1579L1561,696.1l-174.4,403.70007h-89.4l-74.6-365-116.30005,365H878.6L844.3,904.6h-155l-87.9,195.2h-140L749,447.2H914.4l88,527.5,171.4-527.5h132.6l65.5,357.5,151.80005-357.5h161l28.29993,652.6" transform="translate(0.0034 0.00168)" style="fill:#fff"/><polyline points="2097.503 1099.802 2119.803 959.802 1885.703 959.802 1904.403 843.502 2107.903 843.502 2130.303 703.402 1924.603 703.402 1942.403 587.302 2176.303 587.302 2198.604 447.202 1827.603 447.202 1723.503 1099.802 2097.503 1099.802" style="fill:#fff"/><polyline points="3839.003 447.202 3682.703 447.202 3550.104 660.302 3466.503 447.202 3313.104 447.202 3471.003 791.302 3422.403 1099.802 3556.503 1099.802 3597.703 827.102 3839.003 447.202" style="fill:#fff"/><path d="M3042.8999,975.6c71,31.8,157.80005-30.5,194-139.1,36.2-108.5,8-222.3-63-254-70.8999-31.8-157.69995,30.6-194,139.1-36,108.5-7.8999,222.3,63,254M2840,717.4c41.7-180.4,195.8999-298.7,344.3999-264.5,148.6001,34.4,235.2,208.3,193.7,388.7-41.7,180.5-195.8999,298.7-344.3999,264.50006C2885.2,1071.80005,2798.30005,897.9,2840,717.4" transform="translate(0.0034 0.00168)" style="fill:#fff"/><path d="M175.3,505.3C47.7,584.5-13.8,704.9,2.6,868.9c19,190.2,265.2,309.9,473.9,189.4,18.2-10.5,11.1-9,17.9-15l41.8-265.1h-249l-19.1,122.2h104l-11.9,65.6c-59.6,23.8-160.9,14.9-204-62.7-27.3-49.1-52.7-158.7,62.7-259.2,93.9-82,256.2-96.8,350.1-53.6,0,0,11.9-68.6,20.9-132.7C409.3,395.1,269.2,447.2,175.3,505.3" transform="translate(0.0034 0.00168)" style="fill:#fff"/><path d="M2402.7,450.9l-103.6001,647.6H2600.7c124.3,0,305.8-183.1,140.5-332.7,170.1001-176,1.5-313.4-88.7-314.9-72.5-1.3-251.3999,0-251.3999,0H2402.7m74,391.8H2589c106.3999,0,103.6001,130.2-14.8,130.2h-118.3999L2476.7,842.7m41.5-254.2h87.19995c94.6001,0,75.3999,121.3-14.8,121.3h-93.10009L2518.2,588.5" transform="translate(0.0034 0.00168)" style="fill:#fff"/></svg>