<?xml version="1.0" encoding="UTF-8" standalone="no"?>
<svg
   id="Layer_1"
   data-name="Layer 1"
   viewBox="0 0 3839.0029 1398.9343"
   version="1.1"
   sodipodi:docname="gb2players.svg"
   width="3839.0029"
   height="1398.9343"
   inkscape:version="1.1.2 (0a00cf5339, 2022-02-04, custom)"
   xmlns:inkscape="http://www.inkscape.org/namespaces/inkscape"
   xmlns:sodipodi="http://sodipodi.sourceforge.net/DTD/sodipodi-0.dtd"
   xmlns="http://www.w3.org/2000/svg"
   xmlns:svg="http://www.w3.org/2000/svg">
  <defs
     id="defs21" />
  <sodipodi:namedview
     id="namedview19"
     pagecolor="#ffffff"
     bordercolor="#666666"
     borderopacity="1.0"
     inkscape:pageshadow="2"
     inkscape:pageopacity="0.0"
     inkscape:pagecheckerboard="0"
     showgrid="false"
     inkscape:zoom="0.16"
     inkscape:cx="1221.875"
     inkscape:cy="1318.75"
     inkscape:window-width="1920"
     inkscape:window-height="1017"
     inkscape:window-x="-8"
     inkscape:window-y="-8"
     inkscape:window-maximized="1"
     inkscape:current-layer="Layer_1"
     showguides="false" />
  <path
     d="m 1521.8035,184.50163 -63.2,-102.399948 h -45.8 V 228.60163 h 45.4 V 126.30168 l 63.6,102.39995 h 45.4 V 82.101682 h -45.4 z m 359.1,-53.19995 v -14.5 h -23.9001 V 97.001682 h -44.1999 v 19.799998 h -23.9 v 14.5 h 23.9 v 97.39995 h 44.1999 v -97.39995 h 23.9 z m -288.5,97.39995 h 44.2 v -97.39995 h -44.2 z m 0,-116.79995 h 44.2 V 81.701682 h -44.2 z m 771.9,12.8 c -35.5,0 -64.3999,24.3 -64.3999,54.89995 0,30.1 28.8999,54.9 64.3999,54.9 35.5,0 64.3999,-24.3 64.3999,-54.9 0,-30.59995 -28.0999,-54.89995 -64.3999,-54.89995 z m 17.7,75.09995 c 0,15.7 -9.1001,21.9 -18.1001,21.9 -8.7,0 -18.1002,-6.6 -18.1002,-21.9 v -41.19995 c 0,-15.3 9.1002,-21.9 18.1002,-21.9 8.6999,0 18.1001,6.2 18.1001,21.9 z m -139.5,-63.59995 c -7,-4.1 -14.5,-7.8 -24.8,-8.7 -31.8001,-2.9 -56.2,25.2 -56.2,51.19995 0,33.9 26,46.6 30.1001,48.3 14.8999,7 33.8999,7 50.8,-3.7 v 5.8 h 43.3 V 82.601682 h -43.3 c 0.1,-0.5 0.1,30.899998 0.1,53.599998 z m 0,43.39995 v 17.3 c 0,14.9 -10.3,19 -17.3,19 -7,0 -17.3001,-4.1 -17.3001,-19 v -34.6 c 0,-15.29995 10.3001,-18.99995 17.3001,-18.99995 7,0 17.3,3.7 17.3,18.99995 z m -502.7,-52.89995 a 51.6884,51.6884 0 0 0 -35.1,14.9 v -10.3 h -43.8001 v 97.39995 h 43.8001 v -64 c 0,-8.69995 9.1,-17.79995 21,-17.79995 11.9,0 20.1999,9.5 20.1999,17.79995 v 64 h 43.8001 v -52.8 c -10e-5,-38.89995 -33.4,-49.59995 -49.9,-49.19995 z m 358.1999,0 a 51.689,51.689 0 0 0 -35.1001,14.9 v -10.3 h -43.8 v 97.39995 h 43.6999 v -64 c 0,-8.69995 9.1002,-17.79995 21,-17.79995 11.8999,0 20.2,9.5 20.2,17.79995 v 64 h 43.8 v -52.8 c -0.1997,-38.89995 -33.6997,-49.59995 -49.7998,-49.19995 z m -92.8,53.69995 c 0,-30.09995 -29.3,-55.29995 -65.1999,-55.29995 -35.8999,0 -64.8001,24.3 -64.8001,54.89995 0,30.1 28.9,54.9 64.8001,54.9 29.6999,0 54.9,-16.9 62.6999,-40 h -43.8001 v 5.8 c 0,17.8 -11.6,21.9 -18.1,21.9 -6.6,0 -18.6,-4.1 -18.6,-21.9 v -20.2 h 83 z m -79.7,-34.29995 c 3.3001,-6.2 9.9,-8.7 15.7,-9.1 a 18.26578,18.26578 0 0 1 15.6999,9.1 c 2.9,4.9 2.9,10.7 2.9,18.99995 h -36.7999 c -0.8,-8.69995 -0.8,-13.99995 2.5,-18.99995 z m 521.3,-45.8 c 0,-4.899998 -3.6999,-6.999998 -10.6999,-6.999998 h -9.8999 v 25.199998 h 6.1999 v -10.3 h 2.8999 l 4.8999,10.3 h 6.6001 l -5.3999,-11.1 c 3.2999,-1.3 5.3999,-3.8 5.3999,-7.1 z m -11.5,3.7 h -2.8999 v -7.399998 h 2.5 c 3.7,0 5.3999,1.3 5.3999,3.699998 0.3001,2.9 -1.6999,3.7 -5,3.7 z m 0,-20.599998 a 22.61908,22.61908 0 0 0 -22.6999,22.699998 22.7,22.7 0 1 0 22.6999,-22.699998 z m 0,40.899998 a 18.1,18.1 0 1 1 18.1001,-18.1 18.03081,18.03081 0 0 1 -18.1001,18.1 z M 2386.1035,0.00168193 h -933.7 c -98.6,-0.4 -165.1,71.00000007 -165.1,155.99999807 0,84.99995 66,155.19995 165.5,155.19995 h 933.3 c 99.1001,0 165.5,-70.1 165.5,-155.19995 -0.4001,-85.399998 -66.8001,-156.39999807 -165.5,-155.99999807 z M 2385.7034,273.20163 h -932.9 c -78.8,0.4 -126.7,-52.4 -126.7,-117.59995 0,-65.199998 48.3,-117.199998 126.8,-117.599998 h 932.9 c 78.3999,0 126.7,52.4 126.7,117.599998 0,65.19995 -48.3999,117.59995 -126.8,117.59995 z m 0.4001,-273.19994807 h -933.7 c -98.6,-0.4 -165.1,71.00000007 -165.1,155.99999807 0,84.99995 66,155.19995 165.5,155.19995 h 933.3 c 99.1001,0 165.5,-70.1 165.5,-155.19995 -0.4001,-85.399998 -66.8001,-156.39999807 -165.5,-155.99999807 z M 2385.7034,273.20163 h -932.9 c -78.8,0.4 -126.7,-52.4 -126.7,-117.59995 0,-65.199998 48.3,-117.199998 126.8,-117.599998 h 932.9 c 78.3999,0 126.7,52.4 126.7,117.599998 0,65.19995 -48.3999,117.59995 -126.8,117.59995 z m 0.4001,-273.19994807 h -933.7 c -98.6,-0.4 -165.1,71.00000007 -165.1,155.99999807 0,84.99995 66,155.19995 165.5,155.19995 h 933.3 c 99.1001,0 165.5,-70.1 165.5,-155.19995 -0.4001,-85.399998 -66.8001,-156.39999807 -165.5,-155.99999807 z M 2385.7034,273.20163 h -932.9 c -78.8,0.4 -126.7,-52.4 -126.7,-117.59995 0,-65.199998 48.3,-117.199998 126.8,-117.599998 h 932.9 c 78.3999,0 126.7,52.4 126.7,117.599998 0,65.19995 -48.3999,117.59995 -126.8,117.59995 z"
     style="fill:#e31e26"
     id="path2" />
  <path
     d="m 3619.5034,1065.2016 h 5.8 c 6.8001,0 9.8999,-2 9.8999,-6.9 0,-5.1 -3.3999,-7.3 -10.3999,-7.3 h -5.1999 v 14.1 m 41.2997,3.3002 a 35.35,35.35 0 1 1 -35.3,-35.4 35.27323,35.27323 0 0 1 35.3001,35.3998 z m -35.2997,-43.7002 a 43.75,43.75 0 1 0 43.8,43.8001 43.5751,43.5751 0 0 0 -43.8,-43.8001 z m 1.2,18.8001 c 13.7,0 20.7,4.6999 20.7,13.9 0,6.3 -4,11.2 -10.7,12.8 l 10.8999,21.6 h -13.1001 l -9.3001,-19.8001 h -5.8 v 19.7 h -11.8001 v -48.4 z"
     style="fill:#ffffff"
     id="path4" />
  <path
     d="m 824.20342,778.00163 -24.6,-126.6 -56.6,126.7 h 81.2 m 888.79998,321.70007 h -134 l -18,-403.70007 -174.4,403.70007 h -89.4 l -74.6,-365 -116.3001,365 H 878.60342 l -34.3,-195.20007 h -155 l -87.9,195.19997 h -140 l 287.6,-652.59997 h 165.4 l 87.99998,527.5 171.4,-527.5 h 132.6 l 65.5,357.5 151.8001,-357.5 h 161 l 28.2999,652.59997"
     style="fill:#ffffff"
     id="path6" />
  <polyline
     points="2097.503 1099.802 2119.803 959.802 1885.703 959.802 1904.403 843.502 2107.903 843.502 2130.303 703.402 1924.603 703.402 1942.403 587.302 2176.303 587.302 2198.604 447.202 1827.603 447.202 1723.503 1099.802 2097.503 1099.802"
     style="fill:#ffffff"
     id="polyline8"
     transform="translate(3.7959145e-6,-1.8075718e-5)" />
  <polyline
     points="3839.003 447.202 3682.703 447.202 3550.104 660.302 3466.503 447.202 3313.104 447.202 3471.003 791.302 3422.403 1099.802 3556.503 1099.802 3597.703 827.102 3839.003 447.202"
     style="fill:#ffffff"
     id="polyline10"
     transform="translate(3.7959145e-6,-1.8075718e-5)" />
  <path
     d="m 3042.9033,975.60163 c 71,31.79997 157.8,-30.5 194,-139.1 36.2,-108.5 8,-222.3 -63,-254 -70.8999,-31.8 -157.7,30.6 -194,139.1 -36,108.5 -7.8999,222.3 63,254 m -202.8999,-258.2 c 41.7,-180.4 195.8999,-298.7 344.3999,-264.5 148.6001,34.4 235.2,208.3 193.7,388.7 -41.7,180.49997 -195.8999,298.69997 -344.3999,264.50007 -148.5,-34.3 -235.4,-208.20007 -193.7,-388.70007"
     style="fill:#ffffff"
     id="path12" />
  <path
     d="m 175.30342,505.30163 c -127.600016,79.2 -189.100016,199.6 -172.7000162,363.6 C 21.603404,1059.1016 267.80342,1178.8016 476.50342,1058.3016 c 18.2,-10.5 11.1,-9 17.9,-15 l 41.8,-265.09997 h -249 l -19.1,122.2 h 104 l -11.9,65.6 c -59.6,23.8 -160.9,14.9 -204.00002,-62.7 -27.3,-49.1 -52.7,-158.7 62.70002,-259.2 93.9,-82 256.2,-96.8 350.1,-53.6 0,0 11.9,-68.6 20.9,-132.7 -180.6,-62.7 -320.7,-10.6 -414.6,47.5"
     style="fill:#ffffff"
     id="path14" />
  <path
     d="m 2402.7034,450.90163 -103.6001,647.59997 h 301.6001 c 124.3,0 305.8,-183.09997 140.5,-332.69997 170.1001,-176 1.5,-313.4 -88.7,-314.9 -72.5,-1.3 -251.3999,0 -251.3999,0 h 1.5999 m 74,391.8 h 112.3 c 106.3999,0 103.6001,130.2 -14.8,130.2 h -118.3999 l 20.8999,-130.2 m 41.5,-254.2 h 87.2 c 94.6001,0 75.3998,121.3 -14.8001,121.3 h -93.1 l 20.7001,-121.3"
     style="fill:#ffffff"
     id="path16" />
  <g
     aria-label="2 PLAYERS"
     id="text3568"
     style="font-size:40px;line-height:1.25;fill:#ff0000"
     transform="translate(-12.5,93.75)">
    <path
       d="m 1170.0746,1209.1843 v -24 h 24 v 24 z m 0,96 v -48 h 24 v -24 h 48 v -48 h -48 v -24 h 96 v 24 h 24 v 48 h -24 v 24 h -48 v 24 h 72 v 24 z"
       style="font-size:192px;font-family:'Early GameBoy';-inkscape-font-specification:'Early GameBoy, Normal';fill:#ff0000"
       id="path11801" />
    <path
       d="m 1554.0746,1233.1843 v -48 h -48 v 48 z m -96,72 v -144 h 120 v 24 h 24 v 48 h -24 v 24 h -72 v 48 z"
       style="font-size:192px;font-family:'Early GameBoy';-inkscape-font-specification:'Early GameBoy, Normal';fill:#ff0000"
       id="path11803" />
    <path
       d="m 1650.0746,1305.1843 v -144 h 48 v 120 h 96 v 24 z"
       style="font-size:192px;font-family:'Early GameBoy';-inkscape-font-specification:'Early GameBoy, Normal';fill:#ff0000"
       id="path11805" />
    <path
       d="m 1842.0746,1305.1843 v -120 h 24 v 48 h 48 v -48 h -48 v -24 h 96 v 24 h 24 v 120 h -72 v -48 h -48 v 48 z"
       style="font-size:192px;font-family:'Early GameBoy';-inkscape-font-specification:'Early GameBoy, Normal';fill:#ff0000"
       id="path11807" />
    <path
       d="m 2082.0746,1305.1843 v -72 h -24 v -24 h -24 v -48 h 48 v 48 h 48 v -48 h 48 v 48 h -24 v 24 h -24 v 72 z"
       style="font-size:192px;font-family:'Early GameBoy';-inkscape-font-specification:'Early GameBoy, Normal';fill:#ff0000"
       id="path11809" />
    <path
       d="m 2226.0746,1305.1843 v -144 h 144 v 24 h -96 v 24 h 72 v 24 h -72 v 48 h 96 v 24 z"
       style="font-size:192px;font-family:'Early GameBoy';-inkscape-font-specification:'Early GameBoy, Normal';fill:#ff0000"
       id="path11811" />
    <path
       d="m 2514.0746,1305.1843 v -24 h 48 v 24 z m 0,-72 v -48 h -48 v 48 z m -96,72 v -144 h 120 v 24 h 24 v 48 h -24 v 24 h -24 v 24 h -24 v -24 h -24 v 48 z"
       style="font-size:192px;font-family:'Early GameBoy';-inkscape-font-specification:'Early GameBoy, Normal';fill:#ff0000"
       id="path11813" />
    <path
       d="m 2610.0746,1281.1843 v -24 h 24 v 24 z m 24,24 v -24 h 48 v -48 h -48 v -24 h -24 v -24 h 24 v -24 h 96 v 24 h -72 v 24 h 72 v 24 h 24 v 48 h -24 v 24 z"
       style="font-size:192px;font-family:'Early GameBoy';-inkscape-font-specification:'Early GameBoy, Normal';fill:#ff0000"
       id="path11815" />
  </g>
</svg>
