<?xml version="1.0" encoding="UTF-8" standalone="no"?>
<svg
   version="1.0"
   width="1836"
   height="719.40002"
   viewBox="0 0 1836 719.40002"
   preserveAspectRatio="xMidYMid meet"
   id="svg190"
   sodipodi:docname="gbah.svg"
   inkscape:version="1.1.2 (0a00cf5339, 2022-02-04, custom)"
   xmlns:inkscape="http://www.inkscape.org/namespaces/inkscape"
   xmlns:sodipodi="http://sodipodi.sourceforge.net/DTD/sodipodi-0.dtd"
   xmlns="http://www.w3.org/2000/svg"
   xmlns:svg="http://www.w3.org/2000/svg">
  <defs
     id="defs194" />
  <sodipodi:namedview
     id="namedview192"
     pagecolor="#ffffff"
     bordercolor="#666666"
     borderopacity="1.0"
     inkscape:pageshadow="2"
     inkscape:pageopacity="0.0"
     inkscape:pagecheckerboard="0"
     showgrid="false"
     inkscape:zoom="0.58161045"
     inkscape:cx="917.28064"
     inkscape:cy="359.34705"
     inkscape:window-width="1920"
     inkscape:window-height="1017"
     inkscape:window-x="-8"
     inkscape:window-y="-8"
     inkscape:window-maximized="1"
     inkscape:current-layer="svg190" />
  <g
     fill="#4b2e7f"
     id="g4"
     transform="translate(-1,-0.6)">
    <path
       d="M 61.3,719 1,718.5 l 11.4,-19 c 6.2,-10.4 27.3,-46 46.8,-79 19.6,-33 48.5,-81.8 64.3,-108.5 15.9,-26.7 34.6,-58.2 41.6,-70 l 12.8,-21.5 238.8,-0.2 238.8,-0.3 22.5,39 c 18.7,32.5 22.7,38.8 23.7,37.5 0.6,-0.9 10,-18.5 20.9,-39.1 L 742.4,420 h 117.8 c 114.2,0 117.8,-0.1 116.9,-1.8 -0.6,-1.1 -1,-3.4 -0.9,-5.3 0,-1.9 -0.3,-7.6 -0.7,-12.6 L 974.7,391 H 697.4 C 544.8,391 420,390.9 420,390.8 c -0.2,-3.2 -12,-70.1 -12.5,-70.6 -0.1,-0.1 -4.2,8.6 -9.1,19.4 -4.9,10.9 -12.1,26.8 -16,35.3 l -7,15.6 -70.5,0.6 c -41.2,0.4 -73.3,1.1 -77.4,1.7 -3.8,0.6 -11.6,1.1 -17.1,1.1 C 131.5,394.3 61.4,346.4 39.2,277 26.8,238.2 29.2,182 45,141.5 55.9,113.7 69.7,93.2 92.1,71.5 125.1,39.5 173.2,14.5 219.9,5 236.7,1.6 248,0.6 268,0.6 c 29.7,0.1 52.5,3.9 82.8,14 9,3 16.6,5.4 17,5.4 0.4,0 1.8,-2.7 3.2,-6 l 2.5,-6 h 73.6 73.6 l 5.3,32.3 c 2.9,17.7 5.6,32.5 6,33 0.3,0.4 5.4,-14 11.2,-32 L 553.8,8.5 893.6,8.2 c 242.7,-0.2 342.7,0 349.7,0.8 27.5,3.1 46.1,12.5 68.6,34.8 12.4,12.2 12.5,12.3 14.7,10.5 25.5,-20.9 36.8,-27.9 57.9,-35.8 12.2,-4.6 27.6,-8.1 41.4,-9.5 10.7,-1 411.1,-1.5 411.1,-0.5 0,0.3 -18,28.8 -39.9,63.3 -21.9,34.5 -52.3,82.3 -67.5,106.2 l -27.6,43.5 4.8,0.3 c 2.6,0.2 11.1,-0.1 18.8,-0.7 25.6,-2 31.9,-1.4 42.5,3.9 10.5,5.2 14.4,8.8 19.2,17.3 4.2,7.5 4.7,9.1 5.6,18.2 0.6,5.5 1.3,11.7 1.7,13.7 0.3,2.1 0.3,4.6 -0.1,5.5 -0.5,1 -0.8,2.1 -0.7,2.4 0.1,0.4 0.4,4.2 0.7,8.5 0.4,4.4 1.2,11.5 1.7,15.9 0.6,4.4 1.2,12.5 1.4,18 0.3,10.2 0.8,21.4 1.8,36.5 0.3,4.7 0.9,13.2 1.2,19 0.3,5.8 0.8,12.3 1,14.5 0.2,2.2 0.6,8.7 0.9,14.5 0.2,5.8 0.8,15 1.2,20.5 1.2,15 0.7,23.3 -1.6,31 -2.3,7.7 -8.5,16.6 -14.9,21.3 -3.4,2.5 -3.7,3.1 -3.7,8 -0.1,2.8 -0.2,55.8 -0.3,117.7 L 1783,720 h -288.3 -288.2 l -12.5,-9.8 c -6.9,-5.3 -25.5,-19.8 -41.5,-32.1 -15.9,-12.3 -29.6,-22.9 -30.4,-23.5 -1.2,-0.9 -1.3,3.8 -1,31.9 l 0.4,33 h -234 -234 l -15.9,-25.7 -15.9,-25.7 -8.1,7.5 c -18.1,16.9 -41.9,29 -71.6,36.4 -18.5,4.7 -33,6.2 -62,6.6 -46.1,0.6 -354.6,0.9 -418.7,0.4 z M 1158,475.3 c 0,-13.2 -0.8,-17.6 -2.9,-16.7 -0.9,0.4 -3.4,0.9 -5.6,1.1 -2.2,0.2 -4.7,0.7 -5.5,1 -2.4,1 -11.4,1.1 -12.5,0.2 -0.6,-0.4 -1.7,-0.4 -2.4,0 -1,0.6 0.7,2.5 6,6.9 13.2,10.8 21.4,17.1 22.2,17.2 0.4,0 0.7,-4.4 0.7,-9.7 z m -44.8,-29.5 c 0.1,-3.7 0.1,-4.5 -0.7,-10.2 -0.3,-2.2 -0.6,-8.3 -0.7,-13.5 -0.1,-11.1 -2,-21.1 -4.4,-22.8 -1,-0.7 -3.4,-1 -6.4,-0.6 l -4.8,0.6 -0.7,-4.1 c -0.5,-3 -1.1,-3.9 -2.3,-3.7 -0.9,0.2 -2.2,0.4 -2.8,0.4 -0.7,0.1 -1.4,1.1 -1.7,2.4 -0.6,2.5 1.6,28.4 2.6,30.7 0.3,0.8 0.8,3.3 0.9,5.5 0.3,3.7 0.9,4.4 9.6,11.2 5.1,4 9.8,7.3 10.3,7.3 0.5,0 1,-1.5 1.1,-3.2 z m 44.8,-14 V 420 h 15 14.9 l 0.6,-3.7 c 0.3,-2.1 1.2,-7.2 2,-11.3 0.8,-4.2 1.5,-9 1.5,-10.8 V 391 h -19.2 c -10.6,0 -19.8,0.4 -20.5,0.8 -1.2,0.8 -1.4,5.7 -1,25.5 0.2,7.3 0.8,12.2 1.5,12.9 0.7,0.7 1.2,3.9 1.2,7.3 0,6.2 1.6,9.8 3.2,7.2 0.4,-0.6 0.8,-6.5 0.8,-12.9 z m -108.7,-20.5 c -0.2,-4.9 -0.7,-11.3 -1.1,-14.3 l -0.7,-5.5 h -15.2 c -8.3,0 -15.4,0.3 -15.7,0.6 -0.4,0.3 -0.1,4.1 0.4,8.5 0.6,4.3 1.4,10.2 1.7,12.9 0.3,2.8 1,5.3 1.7,5.7 0.6,0.4 7.4,0.8 15.2,0.8 h 14.1 z m 240.2,7 c -1.3,-3.5 -4.8,-16.9 -5,-19.3 -0.2,-1.4 -0.8,-7.4 -1.5,-13.4 -0.7,-6 -1,-12.6 -0.7,-14.6 l 0.5,-3.7 -10.7,5.9 c -5.8,3.3 -11,6.3 -11.5,6.8 -0.5,0.5 -0.2,2.9 0.7,5.7 2.6,8.2 5.5,18.6 6.2,22.3 0.7,4.2 2.5,9 3.8,10.8 0.6,0.8 3.9,1.2 9.9,1.2 8.2,0 9,-0.2 8.3,-1.7 z m 80.4,-4.3 c 1.4,-6.3 3.1,-8 8.1,-8 2.4,0 5.2,5 3.9,7.1 -1.6,2.6 -1,5.6 1.4,6.3 1.2,0.3 6.8,0.6 12.5,0.6 h 10.4 l -0.6,-2.7 c -0.3,-1.6 -0.8,-6.7 -1.2,-11.6 -0.3,-4.8 -0.9,-8.9 -1.3,-9.1 -0.3,-0.2 -4.8,-1.1 -9.8,-2 -19.9,-3.4 -40.8,-12 -58.6,-24 l -9.8,-6.6 0.5,17.2 c 0.3,9.5 1,19.7 1.7,22.7 0.6,3 0.9,7.8 0.6,10.7 l -0.5,5.2 20.7,0.1 20.7,0.2 z m 93.1,4.3 c 0,-1 -0.7,-2.7 -1.5,-3.7 -0.8,-1 -2.8,-6.1 -4.5,-11.2 -3.4,-10 -3.4,-10.1 -10,-8.8 l -3.2,0.7 0.6,7.6 c 0.9,10.9 1.7,15.5 3,16.3 0.6,0.4 4.4,0.8 8.4,0.8 6.2,0 7.2,-0.2 7.2,-1.7 z m 73.1,-10.7 c -0.4,-17.7 0.6,-16.6 -15.6,-16.6 -11.3,0 -13.5,-0.2 -13.5,-1.5 0,-0.8 0.7,-5.6 1.6,-10.6 0.8,-5 1.3,-9.3 1.1,-9.5 -0.2,-0.3 -4.3,1.9 -8.9,4.7 l -8.6,5.2 2.8,6.1 c 1.5,3.4 3.3,7.9 4,10.1 0.7,2.2 1.9,4.9 2.5,6 0.7,1.1 2,4.3 2.9,7 0.9,2.8 2.5,6.5 3.6,8.3 l 2,3.3 13.2,-0.3 13.2,-0.3 z m 55.7,9.9 c 2.6,-1.3 6.3,-4.1 8.3,-6.2 4.1,-4.4 10.7,-18.2 9.1,-19.2 -1.5,-0.9 -30.9,-0.7 -31.8,0.2 -1.4,1.4 -1.7,18.7 -0.4,18.7 0.8,0 1.1,1.4 0.8,4 -0.2,2.2 0.1,4.2 0.7,4.4 2.9,1.2 9,0.4 13.3,-1.9 z m 43.5,1.5 c 7.9,-6.4 7.2,-4.8 7.1,-16 -0.1,-7.5 -0.5,-10.5 -1.5,-11.1 -1.7,-1.1 -16.9,-1.2 -18.6,-0.1 -2.2,1.4 -0.3,25.8 2.1,27.4 1.6,1.1 9.5,1 10.9,-0.2 z m 55.1,-2.9 c 0.5,-3.1 1.1,-4 3.1,-4.5 6.2,-1.6 6.7,-6.6 4,-41.1 -0.9,-11 -1.6,-22.2 -1.5,-25 0,-8.1 -2.6,-33.8 -3.7,-36.5 -1,-2.3 -10.2,-11.5 -10.8,-10.8 -0.2,0.2 -1.2,6.9 -2.4,15 -2,14.9 -2,17.8 0.3,44.3 0.5,5.3 1.1,17.8 1.7,34 0.1,2.8 0.6,5.5 1.1,6.2 0.5,0.7 0.9,3.1 0.7,5.5 -0.1,2.4 -0.2,7 -0.1,10.3 l 0.2,6 3.4,0.2 c 3.2,0.3 3.4,0.1 4,-3.6 z m 71.4,-2.8 c -0.3,-6.4 -0.2,-6.8 2,-7.1 2.5,-0.4 2.8,0.2 3.7,7.8 0.6,5.2 0.7,5.5 3.5,5.7 1.8,0.1 3,-0.3 3.1,-1 0.2,-3.9 -0.2,-19 -0.8,-23.4 -0.4,-3.7 -0.2,-5.3 0.6,-5.3 0.8,0 0.6,-1 -0.4,-3 -0.9,-1.7 -1.6,-4.7 -1.6,-6.8 -0.1,-9.9 -0.6,-19 -1.2,-21.7 -0.8,-3.5 -3.2,-42 -4.1,-65.5 -0.2,-5.2 -0.6,-11.5 -1,-14 -0.3,-2.5 -0.8,-7.8 -1.1,-11.7 -0.5,-7.9 -1.1,-9.7 -4.7,-13 -5.4,-5 -22.3,-8.4 -25.6,-5.1 -1,1 -3.6,1.2 -15.7,0.8 -1.6,0 -6.6,0.1 -11,0.4 -4.4,0.2 -11,0.5 -14.7,0.7 -3.7,0.2 -6.3,0.6 -5.6,1 0.6,0.4 0.8,1.9 0.6,3.3 l -0.5,2.6 10.6,-0.5 c 5.8,-0.4 15.6,-1 21.6,-1.6 21,-1.7 27.6,-0.9 33.3,4.4 4.2,3.8 5.5,7.7 5.9,17.7 0.3,5.2 0.9,9.7 1.3,10 1.1,0.7 1.5,6.1 0.5,8.3 -0.4,0.9 -0.2,8.6 0.4,17 0.6,8.3 1.3,18.4 1.6,22.2 0.7,10 2.5,41.3 3.1,52.8 0.2,5.4 0.5,10.3 0.7,10.9 0.3,1.5 -3.2,2.3 -4.4,1.1 -0.6,-0.6 -1.2,-4 -1.4,-7.7 -0.3,-3.7 -0.7,-7.1 -1,-7.6 -0.3,-0.5 -0.6,-5.5 -0.6,-11.2 -0.1,-5.7 -0.5,-13.3 -1,-17 -0.5,-3.7 -1.1,-12 -1.4,-18.5 -0.3,-6.5 -1,-17.9 -1.5,-25.3 -0.6,-7.4 -1.5,-19.9 -2,-27.8 -1,-15.1 -1.4,-16.3 -7.2,-21.1 -1.8,-1.4 -4.3,-2.3 -6.6,-2.4 -8.4,-0.3 -26.5,1.3 -27.8,2.4 -0.9,0.8 -5.1,0.9 -13.8,0.5 -10.9,-0.5 -12.5,-0.4 -12,0.9 0.4,0.9 0.1,3.4 -0.4,5.8 -0.6,2.3 -1.4,7.2 -1.8,10.8 l -0.7,6.7 6.3,0.1 c 6.8,0.1 11.4,1.3 17,4.3 8.7,4.9 13.2,8.3 16.4,12.7 4.6,6.3 10.6,17.9 10.6,20.5 0,1.2 0.5,2.7 1,3.2 1.7,1.7 4.7,20.4 4.9,30.2 0.1,6.1 -0.4,11 -1.4,13.9 -0.8,2.4 -1.6,6.1 -1.8,8.2 -0.2,2 -1.7,6.1 -3.5,8.9 -1.8,2.9 -3.2,5.9 -3.2,6.7 0,2.4 -10.8,16.3 -13.9,18 -1.6,0.8 -3.1,2 -3.4,2.8 -0.4,1.1 4,1.4 24.9,1.6 l 25.5,0.3 z m -557.8,2.5 c 0,-5.2 0.9,-5.8 8.7,-5.7 8.5,0.1 11.3,-0.6 11.2,-2.9 0,-0.9 -0.8,-4.8 -1.8,-8.7 l -1.7,-7 h -8.1 c -6.6,0.1 -8.3,-0.2 -8.6,-1.5 -0.3,-1.5 -3.5,17.2 -4.2,24.9 -0.3,3.8 -0.2,4.1 2.1,4.1 2,0 2.4,-0.5 2.4,-3.2 z"
       id="path2" />
  </g>
  <g
     fill="#e82327"
     id="g26"
     transform="translate(-1,-0.6)">
    <path
       d="m 1012.5,535.9 c -3.8,-1.1 -8.6,-3.2 -10.5,-4.7 l -3.5,-2.7 4.5,-0.6 c 4.1,-0.5 3.9,-0.6 -2.2,-0.7 -6.4,-0.2 -6.8,-0.3 -8.3,-3.2 -0.9,-1.6 -2,-3 -2.5,-3 -0.6,0 -2.6,-3.4 -4.7,-7.6 -4.2,-8.8 -4.7,-12.5 -6.3,-41.9 -0.6,-11 -1.4,-22 -1.9,-24.5 -0.6,-2.5 -0.7,-6.4 -0.4,-8.8 l 0.6,-4.2 -113.3,0.2 -113.2,0.3 -24,45 c -13.1,24.8 -24.3,45.3 -24.7,45.8 -0.4,0.4 -0.8,-5.5 -1,-13 l -0.2,-13.8 20.7,-39.3 20.8,-39.2 h 116.5 c 64.2,0 118.4,-0.3 120.6,-0.7 l 4,-0.7 -3.5,-0.6 c -3.9,-0.6 -5.3,-3.6 -2.6,-5.6 1.4,-1 1.4,-1.3 0.2,-1.7 -1,-0.4 -1.6,-3 -2.1,-8.4 -0.3,-4.3 -1.2,-12.3 -2,-17.8 -0.7,-5.5 -1.6,-16.7 -2,-25 -0.3,-8.2 -0.9,-16 -1.2,-17.2 l -0.5,-2.3 h -71 -71 l 0.6,-3.2 C 829.1,332.6 873,58 873,57.4 c 0,-0.2 36.2,-0.4 80.5,-0.4 78.2,0 80.5,0.1 80.5,1.9 0,1 -2,14.4 -4.5,29.7 -2.5,15.4 -4.5,28.2 -4.5,28.7 0,0.4 -22.9,0.7 -50.8,0.7 h -50.8 l -3.7,24.3 c -2.1,13.3 -3.7,24.5 -3.7,25 0,0.4 20,0.7 44.5,0.7 h 44.5 l -0.4,2.3 c -0.3,1.2 -2.4,13.9 -4.6,28.2 -2.2,14.3 -4.3,27 -4.6,28.3 L 995,229 h -44 -44 l -0.4,2.3 c -0.6,2.3 -7.6,46.4 -7.6,47.2 0,0.3 19,0.5 42.3,0.5 h 42.4 l 2.4,-2.6 c 6.3,-6.8 18.6,-9.8 44.4,-10.9 3.9,-0.1 15.8,-0.8 26.5,-1.4 10.7,-0.6 22.5,-1.2 26.2,-1.3 6.2,-0.3 6.7,-0.5 7.1,-2.8 0.3,-1.4 7.6,-47.1 16.3,-101.6 l 15.8,-99.1 8.9,-0.7 c 13.2,-0.9 85.2,-0.7 99.2,0.3 9.7,0.7 13.7,1.5 20.1,4 17.7,6.8 35.3,22.4 43.2,38.2 2.3,4.6 4.9,11.1 5.7,14.4 1.9,7.5 1.9,22.2 0,30.3 -3.2,13.5 -11.9,29.3 -23.8,43.2 l -5.6,6.4 6.2,6.6 c 10.5,11.1 16.9,22.1 20.2,34.8 0.8,3.3 1.5,7.4 1.5,9.2 0,2.7 0.3,3.1 1.8,2.4 0.9,-0.4 3.8,-0.7 6.5,-0.6 2.6,0.2 4.7,-0.1 4.7,-0.5 0,-0.4 -0.5,-2.6 -1,-4.8 -2,-8.8 -2.9,-28.9 -1.9,-41.5 5.5,-68.2 48.1,-125.6 104.6,-140.7 8.7,-2.4 11.6,-2.7 26.3,-2.6 13.7,0 17.8,0.3 24.2,2.1 42.8,11.7 72.7,46.3 84,96.9 1.9,8.5 2.2,12.8 2.2,32.3 0,19.4 -0.3,23.9 -2.1,32.5 -1.2,5.4 -2.1,10 -2,10.1 0.1,0.1 8.4,0 18.3,-0.3 l 18.2,-0.6 1.6,-10.3 c 0.9,-5.6 1.6,-11.4 1.6,-12.8 0,-1.4 -14,-33 -31.1,-70.3 -17.2,-37.3 -32.4,-70.6 -34,-74.1 l -2.8,-6.2 33.6,0.2 33.7,0.3 16.2,41.6 c 8.9,22.8 17,43.4 18,45.6 l 1.9,4.1 28.5,-45.9 28.5,-45.9 h 33.8 c 28.8,0 33.8,0.2 33.4,1.4 -0.3,0.8 -23.7,37.8 -52,82.3 -28.2,44.4 -51.6,81.9 -52,83.1 -0.5,2.2 -0.3,2.4 2.6,1.8 1.8,-0.3 9.5,-0.8 17.2,-1.1 7.7,-0.3 18.5,-1 24,-1.5 5.5,-0.6 17,-1.2 25.5,-1.4 8.5,-0.3 21.7,-0.8 29.2,-1.2 10.1,-0.5 14.9,-0.4 18.5,0.6 8.8,2.4 21.7,9.7 25.1,14.2 2.4,3.2 7.4,13.3 7.9,15.8 0.2,1.4 0.8,6.3 1.3,11 0.4,4.7 1.1,9.7 1.5,11.3 0.4,1.6 0.2,4 -0.5,5.8 -1,2.3 -1,3.3 -0.1,3.8 0.6,0.4 1.1,2.3 1.1,4.2 -0.1,1.9 0.1,6.3 0.3,9.9 0.3,3.6 1,14.6 1.6,24.5 0.6,9.9 1.5,23 2,29 0.5,6.1 0.9,11.7 0.9,12.5 0.1,0.8 0.3,4.9 0.6,9 0.5,9.1 0.5,9.4 0.5,12.3 0,1.2 0.2,4.7 0.5,7.7 1.5,15.9 3.5,54.1 3,58 -1.9,14.5 -8.3,25.6 -18.8,32.6 -9.2,6.1 -15.7,7.2 -54.6,9.3 -9.6,0.6 -22,1.4 -27.5,1.9 -5.5,0.5 -11.3,0.9 -13,0.9 -7,0 -44.7,2.3 -45.4,2.7 -0.7,0.5 -15.7,1.3 -32.1,1.8 -4.1,0.2 -7.7,0.6 -8,1 -0.3,0.3 -4.6,0.7 -9.5,0.8 -5,0.1 -16.9,0.8 -26.5,1.6 -43.4,3.4 -53.6,3.8 -54.4,2.5 -0.4,-0.6 -1.9,-1.1 -3.4,-1.1 -1.5,0 -3.6,-0.7 -4.6,-1.5 -1,-0.8 -2.3,-1.2 -2.9,-0.8 -0.5,0.3 -0.3,0.9 0.4,1.4 1.1,0.6 1.1,1.1 0.2,2 -0.9,0.9 -4.3,0.9 -14.5,0 -18.3,-1.6 -17.9,-1.6 -21.6,0 -2.7,1.1 -3.6,1.1 -5.4,0 -1.7,-1 -8.2,-1.3 -30,-1.2 -15.3,0.1 -28.4,-0.2 -29.1,-0.6 -1.4,-0.9 -1.6,-0.9 -33.2,-1.1 -20,-0.1 -48.1,1.1 -38,1.6 1.7,0.1 4.1,0.9 5.3,1.8 2,1.4 3.8,1.4 13.5,0.5 6.2,-0.5 12.6,-0.8 14.2,-0.6 1.7,0.3 17.2,0.5 34.4,0.5 27.2,0.1 31.9,0.3 34.3,1.8 2.1,1.2 3.2,1.3 5,0.5 5.2,-2.5 17.8,-2.4 17.8,0.2 0,1.3 -2.5,1.6 -23,2.8 -8.6,0.6 -36.6,2.5 -45.5,3.2 -3.3,0.2 -13,0.9 -21.5,1.5 -8.5,0.6 -18.4,1.3 -22,1.6 -3.6,0.3 -9.2,0.5 -12.5,0.6 -3.3,0 -9.1,0.4 -13,0.9 -3.8,0.5 -14,1.1 -22.5,1.3 -8.5,0.3 -17.7,0.9 -20.5,1.5 -2.7,0.5 -13.3,1.2 -23.5,1.6 -10.2,0.3 -20.3,0.8 -22.5,1.1 -2.2,0.2 -11.2,0.9 -20,1.4 -8.8,0.5 -17.8,1.2 -20,1.5 -4.8,0.6 -11.8,1.1 -38,2.5 -11,0.6 -26.7,1.5 -35,2.1 -8.2,0.5 -21.7,1.4 -30,1.9 -8.2,0.5 -20.2,1.4 -26.5,1.9 -6.3,0.5 -18,1.2 -26,1.5 -12.7,0.5 -15.4,0.3 -21.5,-1.5 z m 4.9,-36.1 c -0.2,-4.4 -0.9,-8.7 -1.5,-9.4 -0.5,-0.7 -1.3,-6 -1.6,-11.8 l -0.6,-10.6 h 2.5 c 3.8,0 4.5,1.6 5.2,11.5 0.6,7.1 1.1,9.4 2.7,11 l 2,2 -0.5,-2.5 c -0.3,-1.4 -1,-5.6 -1.5,-9.5 -0.5,-3.8 -1.2,-7.7 -1.6,-8.6 -0.8,-2.1 3.6,-2.9 16.6,-2.9 17.3,0 17,-0.1 33.2,12.6 l 14.5,11.4 15.6,-1 c 8.6,-0.6 19.8,-1.5 24.9,-2 5,-0.5 9.8,-1 10.5,-1 0.8,0 -4.2,-4.3 -11,-9.6 -6.7,-5.3 -12.9,-10.2 -13.6,-10.9 -1.1,-1 0.3,-1.3 7,-1.4 4.6,-0.1 9.2,-0.4 10.3,-0.7 1.5,-0.4 5.4,2.1 14.2,9 6.7,5.3 12.4,9.6 12.7,9.6 0.3,0 0.6,-5.2 0.6,-11.5 0,-10.6 0.2,-11.5 1.9,-11.5 2.7,0 7.1,-3.8 7.1,-6.2 0,-1.2 -1.9,-3.9 -4.5,-6.2 l -4.5,-4.2 V 432.7 420 h 15 14.9 l 0.6,-3.7 c 0.3,-2.1 1.2,-7.2 2,-11.3 0.8,-4.2 1.5,-10.5 1.6,-14 0,-3.6 0.8,-10.1 1.8,-14.5 l 1.6,-8 4.8,-0.6 c 2.7,-0.3 5,-0.2 5.3,0.2 0.5,0.8 -1,10 -4.7,29.9 -1,5.8 -2.1,12.3 -2.3,14.5 -0.1,2.2 -0.7,4.9 -1.2,6 -0.4,1.1 -0.8,6.7 -0.9,12.5 v 10.5 l 3.7,1.7 c 4.2,2 7.1,5.8 6.6,8.5 -0.3,1.9 -1.1,2 -17.8,4.2 -4.1,0.6 -9,1.3 -10.7,1.7 -1.9,0.3 -3.3,0.2 -3.3,-0.3 0,-2 3.6,-4.2 7.5,-4.5 l 4,-0.4 -4.8,-0.8 c -3.3,-0.6 -5.6,-0.5 -7.1,0.3 -1.2,0.7 -2.9,1.1 -3.7,0.9 -0.9,-0.2 -1.2,0.3 -0.9,1.2 0.2,0.8 0.6,8.6 0.8,17.2 l 0.3,15.8 11.2,-0.5 c 6.2,-0.2 14.2,-0.7 17.9,-1.1 l 6.7,-0.7 0.3,-7.6 0.3,-7.6 h 26 26 l 0.3,5.8 0.3,5.9 13.7,-0.7 c 12.9,-0.7 14.1,-0.9 20.7,-4.1 14.3,-6.9 12.5,-6.8 97.5,-6.9 52.5,-0.1 78.4,-0.5 82.5,-1.2 6.2,-1.2 17.5,-2.1 58.5,-4.8 12.9,-0.8 29.6,-2 37.1,-2.5 18.5,-1.4 18.2,-1.4 17.6,1 -0.4,1.6 -0.1,1.8 2.3,1.4 2.9,-0.6 4.9,1.1 3.3,2.7 -0.4,0.4 -3.5,0.9 -6.7,1 -4.5,0.2 -6.2,-0.2 -7.1,-1.5 -1.1,-1.4 -1.7,-1.5 -3.9,-0.5 -2.2,1 -2.9,0.9 -4.6,-0.6 -1.9,-1.7 -2.2,-1.8 -5.5,-0.2 -1.9,0.9 -3.5,2.1 -3.5,2.5 0,1.7 -10.6,3.1 -26,3.6 -8.5,0.3 -21.6,0.9 -29,1.5 -7.4,0.5 -18.2,1.2 -23.9,1.6 -5.8,0.3 -10.7,0.8 -11.1,1 -0.3,0.2 -9.1,0.7 -19.5,1.1 -10.5,0.3 -20,1.1 -21.3,1.5 -1.3,0.5 -7.6,0.9 -14,1 -6.4,0 -15.7,0.5 -20.7,0.9 -4.9,0.5 -16.9,1.4 -26.5,2 -9.6,0.5 -23.6,1.4 -31,2 -31.8,2.4 -75.4,5.1 -80.7,4.9 -3.2,0 -11.6,0.6 -18.6,1.4 -7.1,0.9 -20.4,1.9 -29.5,2.2 -9.2,0.3 -20.7,1 -25.7,1.5 -4.9,0.5 -13.9,1.2 -20,1.4 -20.3,0.9 -49,2.6 -51,3.1 -1.1,0.2 -7.6,0.7 -14.5,1 -6.9,0.3 -14.5,0.8 -17,1 -2.5,0.3 -14.6,1.2 -27,2 -23.2,1.6 -26.5,1.3 -31.9,-2.1 -2.6,-1.7 -2.6,-1.7 -0.8,0.4 1,1.1 4.2,3 7,4.2 5.7,2.5 8.4,2.5 48.5,-0.6 17.5,-1.3 19.4,-1.3 21.7,0.2 1.3,0.8 3.2,1.3 4.2,1 1,-0.3 10.4,-1 20.8,-1.6 10.5,-0.5 21.5,-1.2 24.5,-1.5 3,-0.2 9.1,-0.7 13.5,-0.9 39.1,-2.4 44,-2.9 45,-4.2 0.7,-0.8 5.7,-1.6 15.5,-2.4 18.4,-1.3 30.9,-2.7 33.8,-3.6 1.9,-0.5 2.4,-0.2 2.9,1.5 0.6,2.2 0.8,2.2 10.7,1.5 6.3,-0.4 10.4,-1.1 10.8,-1.9 0.8,-1.3 4.1,-1.7 43.8,-4.2 14,-0.8 27.1,-1.7 29,-1.9 6.4,-0.5 39.4,-2.5 49,-3 5.2,-0.2 21.7,-1.3 36.5,-2.4 25.2,-1.8 32.7,-2.1 54.4,-1.9 13.6,0.2 27.1,-1.1 27.1,-2.5 0,-0.9 3.4,-1.5 11.8,-2 6.4,-0.4 15.8,-1.2 20.7,-1.8 5,-0.5 28.1,-1.3 51.5,-1.7 39.9,-0.8 55.5,-1.5 86,-4.1 6.9,-0.5 24.4,-1.7 39,-2.5 34.4,-2 34.5,-2 39.1,-6.2 5.8,-5.3 6.1,-7.3 5.4,-32.7 -0.6,-21.1 -0.6,-22.5 1.2,-23.5 1.5,-0.9 1.6,-1 0.2,-1.1 -0.9,0 -2,-0.7 -2.3,-1.6 -1,-2.5 -0.7,-8.4 0.4,-8.4 1.3,0 0.9,-2.1 -0.8,-3.8 -0.7,-0.8 -1.3,-3.3 -1.3,-5.6 -0.1,-10.2 -0.6,-19.3 -1.2,-22.1 -0.7,-2.9 -2.8,-35.5 -3.2,-48.5 -0.2,-3.6 -0.6,-10 -1,-14.2 -0.4,-4.8 -0.3,-8.8 0.3,-10.8 0.6,-1.6 0.7,-3 0.2,-3 -1.1,0 -1.8,-4.1 -2.4,-14.4 -0.5,-7.4 -1,-9 -4.9,-13.8 -2,-2.6 -12.4,-6.9 -15,-6.3 -1.2,0.3 -7.1,0.7 -13.2,0.9 -17.5,0.7 -46.7,2.6 -47.5,3.1 -0.4,0.2 -8.8,0.7 -18.6,1.1 -9.8,0.3 -18.2,0.8 -18.5,1 -0.6,0.3 -10.5,1.1 -25.9,1.9 -39.7,2.2 -89,5.4 -119.5,7.7 -29.3,2.1 -36.2,2.6 -57,3.7 -11.5,0.6 -23.2,1.5 -26,2 -2.7,0.5 -12.6,1.3 -22,1.7 -9.3,0.3 -18.8,0.9 -21,1.1 -4.3,0.5 -16.8,1.1 -33,1.6 -5.5,0.2 -11.6,0.9 -13.5,1.5 -3.1,1 -13,1.6 -65,3.8 -5.8,0.3 -12.9,0.9 -15.9,1.4 -3,0.6 -9.5,1 -14.5,1 -5,0.1 -13.8,0.5 -19.6,1.1 -5.8,0.6 -22,1.6 -36,2.4 -14,0.7 -28.9,1.6 -33,1.9 -4.1,0.4 -12.7,1.1 -19,1.6 -6.3,0.5 -17.6,1.1 -25.1,1.5 -12.2,0.5 -13.7,0.4 -14.3,-1.1 -0.6,-1.5 -0.8,-1.5 -2.6,0.1 -1.4,1.2 -4.7,1.9 -12.2,2.6 -8.6,0.7 -35.4,2.6 -40.8,2.8 -17.9,0.8 -21.7,1.4 -25.5,4 -2.1,1.4 -4.8,3.9 -5.9,5.4 -2.9,3.9 -2.9,8.3 0.6,57.7 0.6,8.5 1,16.4 1,17.5 0,1.1 0.4,6.5 0.9,12 0.5,5.5 0.9,14.3 1,19.5 0,5.2 0.4,12.2 0.9,15.5 0.5,3.3 1.2,13.3 1.6,22.1 l 0.7,16.2 -8.9,0.7 c -11.2,0.8 -12.4,1.2 -12.4,3.5 0,3.2 5.1,3.7 14.3,1.4 2.3,-0.5 3.4,-0.1 5.8,2.2 2.4,2.3 2.9,3.6 2.9,7.4 0,2.6 0.3,8.2 0.6,12.4 0.6,7.1 1,8 4.6,12.1 2.2,2.5 4.1,4.5 4.2,4.5 0.2,0 0.2,-3.7 0,-8.2 z M 1180.5,256 c 6.6,-0.5 22,-1.5 34.1,-2.2 l 22.1,-1.2 -0.7,-2.6 c -2.5,-8.7 -7.2,-13.9 -16.6,-18.2 -4.7,-2.2 -6.1,-2.3 -34.6,-2.6 -16.4,-0.2 -29.8,0 -29.8,0.5 -0.1,0.4 -1.1,6.9 -2.3,14.4 l -2.3,13.6 9.1,-0.4 c 4.9,-0.2 14.4,-0.8 21,-1.3 z M 1411,241 c 8.5,-0.4 16.2,-1 17,-1.3 0.8,-0.3 8.9,-0.8 18,-1.1 9.1,-0.3 20.5,-1.1 25.4,-1.8 l 8.9,-1.2 1.9,-4.5 c 6.5,-15.1 9.9,-40.5 8,-58.2 -2.4,-21 -9.4,-37.2 -20.9,-47.9 -9,-8.5 -15.5,-11.3 -27.3,-11.8 -8.3,-0.4 -10.5,-0.1 -16.7,2.1 -27.2,9.4 -49.8,41.3 -56.9,80.2 -1.9,10.8 -2.2,32.4 -0.4,41.4 l 1.3,6.4 13.1,-0.7 c 7.2,-0.4 20.1,-1.1 28.6,-1.6 z m -193.7,-72.4 c 6.6,-2.5 14.9,-10.3 17.7,-16.8 1.7,-4.1 2.1,-6.5 1.8,-11.9 -0.5,-8.6 -3.9,-14.1 -11.3,-17.8 -4.8,-2.5 -5.5,-2.6 -28.7,-2.9 l -23.7,-0.3 -0.5,2.3 c -0.3,1.3 -2.2,11.8 -4.1,23.3 -2,11.6 -3.8,22.3 -4.1,23.8 l -0.6,2.9 24.4,-0.4 c 20.1,-0.4 25.1,-0.8 29.1,-2.2 z"
       id="path6" />
    <path
       d="m 1016,464.7 c -2.4,-1.2 -2.5,-1.7 -3.8,-18.7 -0.7,-9.6 -1.4,-25.1 -1.5,-34.5 -0.1,-9.3 -0.8,-19.5 -1.5,-22.5 -0.7,-3 -1.7,-13.4 -2.2,-23 -0.6,-9.6 -1.4,-23.9 -1.9,-31.7 -1.1,-16.6 -0.7,-20.5 2.5,-25.3 4.7,-7.1 7.8,-7.8 43.4,-10.1 9.6,-0.6 21.2,-1.3 25.7,-1.6 7.1,-0.5 8.2,-0.8 8.5,-2.5 0.3,-1.8 1.3,-2 16.3,-2.2 8.8,-0.2 25,-1.1 36,-1.9 11,-0.9 29,-2.1 40,-2.7 23.9,-1.2 42.2,-2.4 72.5,-4.5 12.4,-0.8 26.7,-1.8 31.8,-2.2 6.6,-0.4 9.2,-0.3 9.2,0.5 0,1.6 10.6,1.6 22.1,0 5.5,-0.7 8.9,-1.6 8.9,-2.3 0,-1.4 9,-2.6 22.5,-3 5,-0.1 16,-0.5 24.5,-0.8 10.4,-0.4 15.9,-0.2 16.7,0.5 0.9,0.7 3.3,0.8 6.6,0.4 2.8,-0.4 12.4,-0.9 21.2,-1.2 8.8,-0.3 18.9,-1 22.5,-1.6 3.6,-0.5 9.1,-0.9 12.4,-0.8 4,0 6.6,-0.4 8.4,-1.6 1.9,-1.2 6.2,-1.9 16.1,-2.5 7.5,-0.5 16.5,-1.3 20.1,-1.9 9.1,-1.4 39,-2 39,-0.9 0,0.6 5.6,0.8 14.8,0.4 19,-0.9 29.3,-2 30.2,-3.5 0.4,-0.7 8.4,-1.6 21.6,-2.5 11.5,-0.8 24.4,-1.7 28.7,-2 6.5,-0.5 7.7,-0.3 7.7,1 0,1.3 0.9,1.5 4.8,1 7.8,-0.9 37.6,-2.6 54.2,-3.1 8.5,-0.2 20.2,-0.9 26,-1.4 20.1,-1.9 27,-1 32.9,4.3 3.5,3.3 4.4,6.2 5.2,17.7 0.5,5.8 1,13 1.3,16 0.5,5.6 2.5,38 3.2,52.4 0.2,4.4 0.8,13.5 1.4,20.4 0.5,6.9 1,16.9 1,22.2 0,8.2 -0.3,9.9 -1.6,10.4 -2.3,0.9 -2.4,0.6 -2.9,-5.5 -0.2,-3 -0.8,-9 -1.3,-13.4 -0.7,-6.1 -0.6,-8.2 0.3,-9 1,-0.8 1,-1.3 -0.1,-2.3 -0.7,-0.7 -1.1,-1.8 -0.8,-2.6 0.3,-0.8 0.1,-4.8 -0.5,-9 -0.6,-4.2 -1.3,-12.9 -1.6,-19.4 -0.3,-6.4 -1,-17.8 -1.5,-25.2 -0.6,-7.4 -1.5,-19.9 -2,-27.8 -0.7,-11.5 -1.3,-14.8 -2.9,-17 -5.3,-7.5 -8.1,-8.2 -26.6,-6.6 -15.5,1.3 -45.7,3.4 -58,4 -3.8,0.2 -13.7,0.8 -22,1.4 -16.5,1.1 -17.2,1.2 -46.5,2.8 -11.3,0.7 -21.8,1.4 -23.5,1.7 -1.6,0.2 -7.3,0.7 -12.5,1 -5.2,0.3 -15.8,1 -23.5,1.6 -7.7,0.5 -14.7,1 -15.5,1 -0.8,0 -7.8,0.4 -15.5,1 -7.7,0.5 -24.3,1.6 -37,2.4 -12.6,0.8 -26,1.8 -29.7,2.1 -6.5,0.6 -6.8,0.6 -7.9,-1.9 -1.3,-2.9 -3.3,-2.6 -6.4,0.9 -1.9,2.2 -2.9,2.4 -23.5,3.4 -11.8,0.6 -27.1,1.6 -34,2.1 -6.9,0.5 -20.8,1.4 -31,1.9 -10.2,0.5 -24.3,1.4 -31.5,2 -7.1,0.6 -20.2,1.5 -29,2 -21,1.2 -60,3.7 -85.3,5.5 -11.1,0.8 -25.3,1.5 -31.6,1.5 -6.2,0 -12.6,0.4 -14.2,0.9 -1.6,0.6 -7.4,1.2 -12.9,1.5 -25.3,1.2 -47.2,2.6 -50.9,3.1 -5.7,0.8 -29.4,2.6 -33.6,2.6 -1.9,0 -8.8,0.4 -15.3,0.9 -9.8,0.7 -12.6,1.3 -16.2,3.4 -2.4,1.4 -4.5,3.5 -4.8,4.8 -0.7,2.7 0,27.9 0.8,28.6 0.3,0.3 0.5,3.5 0.5,7.1 0,3.6 0.5,11.9 1,18.3 0.7,8.5 0.7,12.4 -0.2,14.3 -0.8,1.9 -0.8,2.8 0.3,4.1 1.4,1.7 2.4,12 3.2,32.4 0.2,5.8 1,18 1.7,27.3 0.9,10.6 1,17.1 0.4,17.7 -0.6,0.6 -1.8,0.5 -3.4,-0.3 z"
       id="path8" />
    <path
       d="m 1053.4,465.3 c -0.6,-0.4 -1.4,-1.8 -1.8,-3 -0.8,-2.5 -2.6,-2.9 -5.6,-1.3 -1.3,0.7 -2.1,0.6 -3,-0.5 -1,-1.2 -0.7,-2 1.7,-4.3 1.5,-1.6 3.5,-3.1 4.3,-3.4 1.1,-0.3 1.5,-2.2 1.6,-7.2 0,-3.7 -0.1,-7.9 -0.4,-9.4 l -0.4,-2.7 -13.4,0.3 -13.4,0.3 v -7 -7.1 h 13.4 13.3 l -0.3,-7.2 c -0.1,-4 -0.9,-13.6 -1.8,-21.3 -0.9,-7.7 -2,-21.4 -2.5,-30.4 -1,-17.2 -1.9,-20.1 -6.3,-20.1 -1.1,0 -2.5,-1.4 -3.5,-3.6 -1.8,-3.6 -1.8,-3.6 0.9,-5.9 2.4,-2.1 4,-2.4 16.5,-2.9 7.6,-0.4 16.8,-0.9 20.4,-1.2 l 6.7,-0.6 0.6,-5.1 c 0.4,-2.9 1.2,-7.3 1.7,-9.8 l 1,-4.6 6.2,-0.8 c 3.4,-0.5 9.6,-0.9 13.7,-1.1 13.4,-0.3 43.4,-2.5 44.5,-3.2 0.5,-0.4 6.2,-0.7 12.5,-0.8 11.1,-0.1 49.1,-2.4 99.2,-6.1 13.1,-0.9 24,-1.4 24.4,-1.1 3,3 -30.1,33.8 -36.4,33.8 -0.7,0 -1.5,-1.3 -1.8,-3 -0.6,-2.6 -3.4,-6.4 -3.4,-4.5 0,1.3 3.1,13 4,15 0.4,1.1 1.8,5.8 3,10.5 1.2,4.7 2.8,10.2 3.6,12.3 1.9,5.1 1.8,7.7 -0.3,7.7 -1.4,0 -1.2,0.3 0.6,1.3 1.6,0.8 2.8,2.7 3.6,5.7 0.7,2.5 2.3,7.9 3.5,12 11.7,39.5 11.9,40.9 8.1,41.1 -0.9,0 -0.4,0.5 1.2,1.1 1.7,0.6 2.9,2 3.3,3.6 1.1,4.2 3.3,8.2 4.8,8.2 1.9,0 5.6,4.4 5.6,6.7 0,2.9 -2.4,5.1 -6.5,5.9 -4.9,0.9 -7.7,-0.1 -10,-3.6 -2.2,-3.3 -7.5,-4.4 -7.5,-1.5 0,0.8 0.7,1.5 1.6,1.5 0.8,0 2.5,0.5 3.7,1.2 2.1,1.1 2,1.3 -1.8,2.1 -2.2,0.5 -10.6,1.4 -18.7,2 -13.8,0.9 -14.9,0.9 -16.8,-0.8 -2.8,-2.6 -2.5,-5.1 1.4,-9.8 3.1,-3.8 3.4,-4.6 2.6,-7.7 -0.4,-1.9 -0.8,-2.9 -0.9,-2.2 -0.1,0.9 -3.8,1.2 -15.2,1.2 h -15.2 l 0.7,-4.2 c 0.9,-5.8 2,-6.6 5.5,-4.5 2.3,1.3 4.9,1.6 12.8,1.4 l 10,-0.2 -0.7,-2.5 c -0.7,-2.7 -0.2,-2.7 -16,-2 -9.5,0.3 -9.2,0.5 -8.5,-3.7 1.4,-8.8 1.1,-8.5 6.3,-8.3 14.8,0.5 14.9,0.4 12.7,-9.6 -0.9,-4.4 -2.2,-8.4 -2.7,-9.1 -0.5,-0.7 -1.6,-3.4 -2.3,-6 -0.7,-2.6 -2.2,-7.8 -3.3,-11.5 l -1.9,-6.8 h 3.3 c 1.8,0 3.6,-0.4 3.9,-1 0.4,-0.6 -0.7,-1 -2.7,-1 -1.8,0 -3.8,-0.4 -4.3,-0.8 -0.6,-0.4 -1.9,-4.1 -2.9,-8.2 -0.9,-4.1 -2.4,-9.4 -3.3,-11.7 l -1.5,-4.3 h -26.4 c -14.5,0 -26.4,-0.4 -26.4,-0.8 0,-0.5 0.9,-1.7 2,-2.7 2.7,-2.4 3.3,-5 1.9,-7.7 -1.1,-2.1 -1.2,-2.1 -2.3,1.2 -0.7,2.2 -2.2,4 -3.9,4.8 -3.8,1.8 -5,5.3 -3.7,10.3 0.6,2.2 1.1,7 1.1,10.7 0,11 1.4,32.6 2.1,33.8 0.4,0.6 1,9.1 1.3,19 0.2,9.8 0.9,19.4 1.4,21.2 0.6,1.9 0.8,4.7 0.4,6.3 -0.9,4.6 0.5,7.7 4.7,10.5 4.1,2.7 5.5,5 4.5,7.7 -0.9,2.1 -10.2,5 -14,4.3 -2.2,-0.4 -3.6,-0.2 -4.4,0.8 -0.9,1 -1.9,1.2 -3.4,0.7 -1.3,-0.5 -2.9,-0.4 -3.9,0.3 -1.3,0.8 -2.4,0.7 -4.6,-0.6 -2.4,-1.5 -2.9,-1.5 -3.7,-0.2 -0.7,1.1 -3.7,1.6 -11.2,2 -9.4,0.4 -10.3,0.3 -11.2,-1.5 -0.6,-1.1 -1.1,-2.9 -1.1,-4 0,-1.2 -0.6,-2.1 -1.4,-2.1 -0.7,0 -2.5,-1.1 -4,-2.5 -2.2,-2 -2.6,-3.2 -2.6,-8 0,-3 0.2,-5.5 0.5,-5.5 0.3,0 3.7,2.5 7.6,5.5 3.9,3 7.5,5.5 8,5.5 1.4,0 1.5,-5.4 0.4,-13.4 -0.3,-2.2 -0.6,-8.3 -0.7,-13.5 -0.1,-9.7 -1.6,-18.9 -3.7,-22.9 -1.1,-2 -1.7,-2.1 -6.5,-1.6 l -5.3,0.6 -1.2,-4.5 c -1.5,-6.3 -1.5,-6.6 1.7,-6.6 4.6,0 10.1,-0.6 10.7,-1.3 0.7,-0.6 -2.4,-44.8 -3.2,-46.1 -0.2,-0.4 -1.9,-1.4 -3.6,-2.3 -2.1,-1.1 -2.8,-1.2 -1.9,-0.3 1.9,2 1.5,2.9 -1.4,2.9 -2.3,0 -2.5,-0.3 -1.9,-2.9 0.6,-2.8 -1,-7.1 -2.7,-7.1 -0.5,0 -0.8,1.3 -0.8,3 0,2.4 -0.8,3.5 -4.1,5.5 -3.9,2.5 -4,2.8 -3.5,6.8 0.3,2.3 1.1,11.9 1.6,21.2 0.6,9.4 1.3,19.5 1.6,22.5 0.8,7.8 2.3,34.7 2.7,46.5 0.2,5.5 0.8,10.9 1.4,11.9 0.6,1.1 2.8,3.1 4.9,4.6 7.4,5 4.9,10.4 -5.3,11.5 -5.4,0.6 -6.3,0.5 -6.3,-0.9 0,-1 -0.9,-1.6 -2.5,-1.6 -1.8,0 -2.3,0.4 -1.9,1.5 0.8,2 -2,2 -3.7,-0.1 -1.4,-1.7 -3.9,-1.5 -10.6,1 -5.4,2 -11.5,2.9 -12.9,1.9 z"
       id="path10" />
    <path
       d="m 1602,465 c -1.9,-0.3 -5.3,-1.5 -7.5,-2.5 l -4,-2 8,-0.5 c 4.4,-0.3 8.5,-0.8 9,-1.2 0.6,-0.4 10.7,-1.2 22.5,-1.8 11.8,-0.6 24,-1.2 27,-1.4 3,-0.2 10.7,-0.7 17,-1.1 6.3,-0.3 19.2,-1.3 28.5,-2 9.4,-0.8 24.7,-1.7 34,-2.1 16.5,-0.6 17.1,-0.7 19.9,-3.3 1.9,-1.8 3,-2.2 3.3,-1.3 0.7,1.7 3.3,1.5 3.3,-0.3 0,-0.8 -0.7,-1.5 -1.5,-1.5 -1.8,0 -1.8,-0.8 0,-4 0.8,-1.4 1.4,-3.3 1.5,-4.2 0,-1.7 -4,-1.8 -70.2,-1.8 -48.3,-0.1 -69.8,-0.4 -68.5,-1.1 1.3,-0.8 1.7,-2.3 1.7,-6.9 v -6 h 4 c 2.3,0 4.6,-0.4 5.3,-1 7.3,-5.9 7,-5.3 7.3,-12.1 0.1,-3.5 -0.4,-10.1 -1.2,-14.7 -1.4,-8.4 -1.8,-12.4 -3,-34.3 l -0.7,-12.7 4.2,-0.7 c 4.9,-0.8 4.6,-2.1 -0.4,-1.6 -4.1,0.3 -3.9,1 -5.5,-19.4 -0.6,-8.2 -1.4,-15.8 -1.6,-16.8 -0.3,-0.9 -1.9,-2.4 -3.5,-3.2 l -2.9,-1.6 -0.1,4.3 c 0,2.4 -1,10.8 -2.3,18.8 l -2.2,14.5 -10.4,0.3 c -9.8,0.3 -10.5,0.1 -12.3,-2 l -1.8,-2.3 0.6,3.3 c 0.6,2.7 0.4,3.2 -1.2,3.2 -1.1,0 -1.4,0.3 -0.7,0.8 1.8,1.2 2.2,3.8 3.4,22.7 1.3,20.9 0.8,24 -3.7,22.9 -3.9,-0.9 -5.1,-2.1 -5.9,-5.7 -1,-5.1 -3.9,-10 -7.3,-12.4 -1.6,-1.3 -3.4,-2.3 -3.9,-2.3 -0.5,0 -1.2,-2.6 -1.5,-5.7 -0.6,-5.7 -0.6,-5.9 2.9,-9.2 1.9,-1.8 4.2,-4.4 5.1,-5.8 0.9,-1.4 2.6,-2.9 3.7,-3.3 1.7,-0.7 1.8,-0.9 0.4,-0.9 -1,-0.1 -1.8,-0.8 -1.8,-1.6 0,-1.2 -1.5,-1.5 -7.4,-1.5 h -7.3 l -0.7,-5.2 c -0.3,-2.9 -0.6,-8.7 -0.6,-12.9 0,-4.2 -0.5,-11.1 -1,-15.5 -0.9,-6.6 -0.8,-9.7 0.9,-19.3 1.1,-6.3 2.4,-11.7 3,-12.1 0.7,-0.3 12.1,-1.2 25.4,-1.9 13.3,-0.6 26,-1.4 28.1,-1.8 l 3.9,-0.5 -0.6,6 c -0.4,3.4 -1,7.9 -1.3,10.2 l -0.7,4.2 7.4,-0.7 c 13.6,-1.2 35.4,-2.3 35.9,-1.8 0.3,0.2 0.8,6.6 1.1,14.1 0.7,14.4 3.2,53.5 4.9,76.2 1.8,23.9 2.8,44.5 2.1,45.2 -0.7,0.8 -4,1 -31.9,2.4 l -15.3,0.7 2.3,2.5 2.3,2.5 19,-0.7 c 21.8,-0.8 26.2,-1.5 29,-5 l 2,-2.5 2.9,2.6 c 2.7,2.3 3.5,2.5 8.4,1.9 5.4,-0.6 11.6,-3.3 16.1,-6.7 2.1,-1.7 4.4,-1.9 23.8,-1.9 h 21.3 l -0.2,-6.7 c -0.3,-6.7 -0.2,-6.8 2.2,-6.8 2.4,0 2.5,0.2 3.1,9 0.4,5 0.7,13.6 0.8,19.2 l 0.1,10.3 -3.6,3.9 c -1.9,2.2 -5.4,4.7 -7.7,5.5 -3.8,1.3 -26.6,3.2 -50.7,4.2 -10.9,0.5 -47.4,3.2 -52,3.8 -1.9,0.3 -7.2,0 -11.7,-0.6 -7.5,-1.1 -8.8,-1 -13.5,0.7 -6.8,2.5 -15.5,3.5 -19.2,2.2 -1.6,-0.6 -3.1,-0.6 -3.5,-0.1 -0.3,0.5 -2.2,0.7 -4.1,0.4 z"
       id="path12" />
    <path
       d="m 1330,449.3 c -3.6,-0.8 -8.2,-1.7 -10.3,-2 -2,-0.3 -4,-0.9 -4.3,-1.4 -0.3,-0.5 -1.4,-0.9 -2.5,-0.9 -2.3,0 -14.4,-11.1 -16.4,-15.1 -1.1,-2 -1.1,-2.9 -0.2,-3.9 1,-1 0.8,-1.2 -0.7,-0.6 -1.2,0.4 -2.4,0 -3.3,-1.1 -1.1,-1.3 -1.1,-1.2 0.1,0.7 0.8,1.4 2.4,4 3.5,5.8 l 2,3.2 h -10.3 -10.4 l -1.6,-4 c -0.9,-2.2 -1.6,-5.4 -1.6,-7 v -3 h 8.1 c 7.3,0 8,-0.2 7.4,-1.7 -1.3,-3.5 -4.8,-16.9 -5,-19.3 -0.1,-1.4 -0.7,-7 -1.3,-12.5 -2.5,-22.2 -0.7,-34.8 6.8,-50 7.2,-14.4 21.9,-26.5 34.2,-28.1 5.4,-0.7 5.4,-0.8 6.1,7.1 0.5,4.7 0.3,5.1 -2.6,7 -6.1,3.9 -6.6,11.2 -3.8,49 0.6,7.2 1.3,17.3 1.6,22.5 0.3,5.2 0.9,14.5 1.3,20.5 0.6,8.7 0.5,11.2 -0.5,12.1 -1.1,0.9 -1,1.2 0.6,1.7 1,0.2 2.5,1.7 3.2,3.2 0.9,1.8 2.7,3.3 4.9,4 l 3.5,1.2 0.3,7.1 c 0.3,8.1 0.9,7.7 -8.8,5.5 z"
       id="path14" />
    <path
       d="m 1345.5,449.2 c -0.3,-0.3 -0.5,-3.3 -0.5,-6.8 0,-5.9 0.2,-6.3 2.8,-7.2 2.2,-0.9 1.2,-1.1 -5.4,-1.1 -7.9,-0.1 -8.2,-0.2 -9.2,-2.8 -0.6,-1.6 -1.2,-4.6 -1.4,-6.8 l -0.3,-4 18.5,-0.3 18.5,-0.2 1.5,-6.3 c 1.5,-6 1.7,-6.2 5.3,-7.1 3,-0.8 4.1,-0.7 4.8,0.5 2.8,4.1 -3.3,20.9 -11.1,30.8 -3,3.7 -5.7,5.9 -9.8,7.7 -6.2,2.7 -12.8,4.5 -13.7,3.6 z"
       id="path16" />
    <path
       d="m 1398.8,441.9 c -1.2,-0.7 -1.8,-2.2 -1.8,-4.4 V 434 h -9 c -4.9,0 -9,-0.3 -9,-0.6 0,-0.3 0.8,-1.8 1.9,-3.2 1,-1.5 2.4,-4.4 3,-6.4 l 1.3,-3.8 h 10.5 10.5 l -0.6,-2.7 c -0.3,-1.6 -0.8,-6.7 -1.2,-11.6 -0.3,-4.8 -1,-9 -1.5,-9.2 -0.4,-0.3 -0.8,-4.3 -0.8,-9 0.1,-4.6 -0.1,-8.7 -0.4,-9.2 -0.3,-0.4 -0.8,-8.2 -1.2,-17.3 -0.4,-9.1 -0.8,-16.6 -0.9,-16.8 -0.2,-0.1 -2.9,-0.9 -6.1,-1.8 -3.2,-0.8 -7.7,-2.3 -10,-3.3 l -4.2,-1.8 -1.2,-12.1 c -0.8,-7.5 -1.9,-12.8 -2.8,-13.9 -1.3,-1.6 -1.4,-1.1 -0.8,4.7 0.4,3.6 0.9,11 1.1,16.5 0.2,5.5 0.7,13 1.2,16.6 1,7.9 0.2,10.5 -3.4,12.1 -2.5,1.2 -2.9,1 -6,-2.6 -1.9,-2.2 -3.4,-4.7 -3.4,-5.6 0,-2.4 -7.7,-17.8 -10.8,-21.6 -3.1,-3.7 -12,-10.4 -13.9,-10.4 -1.8,0 -3.1,-2.9 -3.4,-8 -0.3,-3.6 0,-4.5 1.4,-4.8 2.3,-0.5 2.2,-0.7 -1.7,-5.5 -3.8,-4.8 -7,-10.6 -6.2,-11.4 0.3,-0.3 6.7,-0.9 14.3,-1.4 37.9,-2.1 51,-2.9 53.1,-3.3 1.3,-0.2 4.5,0.3 7,1.1 8.2,2.6 19.4,2.1 30.2,-1.4 6.9,-2.2 12.4,-3.2 20,-3.7 32.6,-2 59.3,-3.7 64.8,-4.3 3.4,-0.3 6.2,-0.2 6.2,0.2 0,2.3 -15.3,23.2 -18.9,25.7 -1,0.7 -2.1,2.2 -2.4,3.3 -1.1,3.2 -5.4,7.3 -10.1,9.3 -4.3,2 -8.3,6.2 -11.5,12.4 -0.9,1.8 -2.9,5.4 -4.5,8 -2.6,4.4 -2.7,4.9 -1.2,7 0.9,1.2 1.6,3.1 1.6,4.1 0,1 2.2,6.4 4.9,12 2.6,5.6 5.2,11.3 5.6,12.7 0.4,1.4 2.5,5.8 4.6,9.8 2.2,4.1 3.9,8 3.9,8.8 0,0.8 1.4,4.3 3,7.7 1.7,3.5 3,7 3,7.7 0,3.3 7.3,16.1 10.5,18.6 3.8,2.9 4.3,4.8 1.9,8.2 -1.3,1.9 -2.4,2.2 -7.5,2.2 -3.2,0 -5.9,0.3 -5.9,0.8 0,0.4 -3.9,0.8 -8.7,0.9 -4.9,0.1 -14.2,0.5 -20.7,0.8 -11.7,0.6 -12,0.6 -13.8,-1.7 -1,-1.3 -1.8,-3 -1.8,-3.8 0,-0.8 -1.6,-2.8 -3.5,-4.3 -2.6,-2.1 -3.5,-3.5 -3.5,-5.8 v -3.1 l 6.5,0.4 c 5.7,0.3 6.5,0.1 6.5,-1.5 0,-1 -0.7,-2.8 -1.5,-4.1 -0.8,-1.2 -2.9,-6.3 -4.5,-11.1 -1.7,-4.9 -3.4,-9.1 -3.8,-9.4 -1.3,-1 -6.2,-17 -6.2,-20.4 0,-1.9 2.1,-7 5.2,-12.7 2.8,-5.2 6.6,-12.4 8.5,-16 1.8,-3.6 4.1,-7.6 5,-8.9 l 1.7,-2.4 -3.4,1.8 c -4.3,2.2 -16.8,6.5 -19,6.5 -2,0 -3,-4.3 -3,-13.8 0,-6 0.2,-6.4 4.1,-10.3 4.1,-4 4.3,-5.4 1.8,-9.9 -0.6,-1.1 -0.8,-0.8 -0.9,1.1 0,2.6 -2.1,5.1 -5.3,6.2 -3.1,1.1 -3.9,5.4 -2.8,14.7 0.6,4.7 1.1,11.8 1.1,15.8 0,6.9 -0.1,7.2 -1.9,6.2 -1.2,-0.6 -2.2,-0.6 -2.5,-0.1 -0.8,1.2 2.3,4.3 3.5,3.6 1.5,-1 1.7,1.2 5,50.8 l 1.2,17.8 4.4,3.6 c 3.5,2.9 4.3,4.2 4.3,6.9 0,3.9 -2.1,5.4 -7.5,5.4 -2,0 -4.4,0.4 -5.3,0.9 -2.5,1.3 -40.3,2.2 -42.4,1 z"
       id="path18" />
    <path
       d="m 1533.7,434.4 c -0.4,-0.4 -3.3,-0.6 -6.7,-0.5 -4.9,0.1 -6,-0.2 -6,-1.5 0,-0.9 -1.5,-3.1 -3.4,-4.8 -1.8,-1.8 -3.8,-4.2 -4.5,-5.4 -1.1,-2.1 -1.1,-2.1 11.1,-2.4 l 12.2,-0.3 -0.3,-11.5 c -0.1,-6.3 -0.8,-13.7 -1.6,-16.5 -0.7,-2.7 -1.6,-12.6 -2,-22 -0.4,-9.3 -0.9,-18 -1.2,-19.2 -0.4,-1.7 -0.1,-2.3 1.3,-2.3 1.7,0 1.7,-0.1 0.1,-1.2 -1.9,-1.4 -2.1,-3.3 -3.2,-22.1 l -0.7,-11.8 -4,-2 c -3.3,-1.7 -5.9,-5.2 -5.7,-7.7 0.1,-1.5 6.2,-5.5 8.7,-5.8 1.5,-0.2 11.1,-0.6 21.3,-1 l 18.7,-0.7 0.7,4.9 c 0.3,2.7 0.8,7.8 0.9,11.4 0.1,3.6 0.6,12.2 1,19.3 0.8,12 0.7,12.7 -1,12.8 -1.6,0 -1.5,0.2 0.4,0.9 1.3,0.6 2.2,1.8 2.3,3.2 0.3,17.4 3.8,63.1 4.8,64.1 1.5,1.5 1.4,2.3 -0.6,4.2 -1.2,1.3 -1.4,2.2 -0.7,3.4 1.5,2.5 1.7,10.8 0.3,11.6 -0.6,0.5 -9.3,1.2 -19.3,1.6 -10,0.5 -19,1.1 -20.2,1.3 -1.2,0.3 -2.4,0.3 -2.7,0 z"
       id="path20" />
    <path
       d="m 1584.8,430.3 c -1.6,-0.4 -3.8,-5.7 -3.8,-9 0,-0.8 1.3,-1.3 3,-1.3 4.2,0 11.8,-4.1 16.1,-8.7 4.4,-4.8 10.7,-18.2 9,-19.3 -0.9,-0.5 -0.5,-1.6 1.4,-3.8 3.1,-3.7 4.5,-3.9 7,-1.2 1.3,1.5 2,4.9 2.7,15.2 0.6,7.3 1.4,13.5 1.9,13.6 0.5,0.2 0.6,0.9 0.2,1.5 -0.4,0.7 -0.8,3.4 -0.8,6.2 v 5 l -5,0.6 c -7.6,0.9 -29.8,1.8 -31.7,1.2 z"
       id="path22" />
    <path
       d="m 1690.2,422.8 c -0.7,-0.9 -0.8,-2.7 -0.1,-6 0.8,-3.6 1.5,-4.7 3.4,-5.2 6.2,-1.6 6.7,-6.7 4,-41.1 -0.9,-11 -1.6,-22.2 -1.5,-25 0,-2.7 -0.6,-11.5 -1.3,-19.5 -1.6,-18.3 -2.7,-20.8 -11.4,-26.8 -1.3,-1 -1.9,-2.7 -2.1,-6.1 l -0.2,-4.8 6.3,0.3 c 3.4,0.2 7.5,0.6 9.2,0.9 4.6,0.8 15.3,6.5 20,10.7 4.8,4.2 11,13.1 12,17.1 0.4,1.4 1.3,3.1 2.1,3.8 0.8,0.6 1.4,2.4 1.4,4 0,1.6 0.4,3.7 0.9,4.7 0.6,0.9 1.7,4.6 2.6,8.2 3.4,13.3 1,45.1 -4,52.7 -0.9,1.4 -2.1,3.7 -2.5,5.2 -1.1,3.8 -9.8,15.9 -12.9,17.9 -1.4,0.9 -4,2.8 -5.8,4.3 -5,4.3 -17.9,7.3 -20.1,4.7 z"
       id="path24" />
  </g>
  <g
     fill="#8361b9"
     id="g88"
     transform="translate(-1,-0.6)">
    <path
       d="m 89.5,668 c -0.4,-0.7 27.4,-48.1 97.7,-166.2 L 206.1,470 h 25.4 25.3 l 11.1,18.3 c 6.1,10 28,46.4 48.8,80.9 l 37.8,62.7 0.5,-81.2 0.5,-81.2 61.5,-0.3 c 66.5,-0.3 91.7,0.6 107.5,3.9 18.3,3.7 34,10.3 45.4,19 2.9,2.2 5.5,3.9 5.6,3.7 0.2,-0.2 -3,-5.7 -7.1,-12.3 -4,-6.6 -7.4,-12.6 -7.4,-13.2 0,-1 7.1,-1.3 32.3,-1.3 h 32.4 l 37.4,64.1 c 20.6,35.3 37.8,64.2 38.3,64.1 0.5,0 16.7,-28.8 36,-63.9 l 35.2,-63.8 30.3,-0.3 c 28.6,-0.2 30.3,-0.1 29.9,1.5 -0.3,1 -26,45.7 -57.1,99.3 l -56.5,97.5 -19.4,0.3 -19.5,0.2 -39.2,-64.7 c -33.9,-55.9 -40,-65.3 -37.5,-57.5 1.4,4.7 2.2,24.5 1.3,34 -2.4,25.5 -10.2,42.8 -26.1,57.8 -16.9,16 -40.1,25.2 -72.8,28.9 -11.4,1.3 -27.9,1.5 -104.5,1.3 l -90.9,-0.3 -40.5,-72.2 c -22.3,-39.8 -40.7,-72.3 -41,-72.3 -0.5,0 -54.8,97.3 -55.9,100.2 -0.2,0.4 12.3,0.8 27.7,0.8 H 229 v 22.5 22.6 l -69.5,-0.2 c -38.2,0 -69.7,-0.4 -70,-0.9 z M 497,619.5 c 28.9,-3.9 43.1,-14.4 47.5,-35.2 1.7,-8.1 1.9,-26.1 0.4,-33.5 -1.8,-8.4 -6.3,-17 -11.7,-22 -5.9,-5.5 -10.5,-8 -20.3,-10.9 -7.1,-2.1 -9.5,-2.3 -53.6,-2.7 L 413,514.8 v 53.1 53.1 h 36.8 c 26.1,0 39.7,-0.4 47.2,-1.5 z"
       id="path28" />
    <path
       d="m 752.9,663.3 c 1.6,-2.7 12.1,-20.3 23.3,-39.3 73.6,-124.1 91.2,-153.6 91.9,-154 0.4,-0.3 11.9,-0.5 25.5,-0.5 h 24.8 l 49,81.4 49.1,81.3 0.5,-45.8 c 0.3,-25.3 0.7,-45.9 0.8,-45.9 25.9,0 56.9,-1.6 106,-5.6 l 14.2,-1.2 4,2.8 c 2.2,1.5 17.6,13.5 34.3,26.5 l 30.2,23.7 0.5,-28.6 0.5,-28.6 9.5,-0.6 c 5.2,-0.4 16.7,-1.1 25.4,-1.7 8.8,-0.6 16.3,-0.9 16.8,-0.6 0.4,0.3 0.8,32.2 0.8,71 V 668 h -19.9 -19.8 l -74.7,-59.5 -74.6,-59.4 v 59.4 59.5 h -49.2 -49.3 L 932,595.5 c -22.3,-39.8 -40.8,-72.3 -41.3,-72.2 -0.4,0.1 -13.3,22.8 -28.6,50.5 L 834.2,624 h 28.4 28.4 v 22 22 H 820.5 750 Z"
       id="path30" />
    <path
       d="m 1309.7,666.5 c -13.4,-2.7 -22.1,-8.3 -27,-17.4 -5.3,-9.7 -5.7,-13.8 -5.7,-71.3 v -52.6 l 8.3,-0.6 c 23.8,-1.7 39.3,-2.6 43.7,-2.6 h 5 v 49 49 h 55.5 55.5 v -15 -15 h 29.1 29.2 l -0.6,21.3 c -0.7,27.5 -2.6,35.3 -10.6,43.9 -4.3,4.7 -10.1,8.1 -18.4,10.6 -4.5,1.4 -15,1.6 -81.2,1.8 -61.1,0.2 -77.3,0 -82.8,-1.1 z"
       id="path32" />
    <path
       d="m 1521,588.5 c 0,-43.7 0.3,-79.5 0.8,-79.5 1.9,-0.1 31.3,-2.1 43.7,-3 22.8,-1.7 25.1,-1.8 45,-3 10.5,-0.6 28.9,-1.7 41,-2.5 12.1,-0.8 25.6,-1.7 30,-2 26.3,-1.7 39.7,-2.6 45.3,-3.1 l 6.2,-0.6 v 10.1 10.1 h -77 -77 v 14 14 h 45 45 v 22 22 h -45 -45 v 17 17 h 78 78 v 23.5 23.5 h -107 -107 z"
       id="path34" />
    <path
       d="m 109.5,561.2 c 0.4,-0.8 0.7,-6.8 0.7,-13.5 v -12.2 l 3.8,-7 c 2.1,-3.8 17.4,-29.7 33.9,-57.5 l 30,-50.5 238.8,-0.2 238.8,-0.3 9.2,16 9.2,16 0.7,13.1 c 0.6,10.5 0.4,13.1 -0.6,12.7 -0.7,-0.2 -6.9,-10.1 -13.9,-22.1 L 647.5,434.1 416.9,434 H 186.3 l -9.4,15.8 c -41,68.8 -66.3,110.9 -67.1,111.7 -0.8,0.7 -0.9,0.6 -0.3,-0.3 z"
       id="path36" />
    <path
       d="m 1445,530 v -14 l -11.2,-0.1 c -14,-0.2 -12.5,-0.6 7.2,-2.2 15.2,-1.2 15.4,-1.2 16,-3.7 0.5,-1.9 1.2,-2.4 3.1,-2.2 2.2,0.2 5.6,0.2 16.4,-0.1 2.2,0 8.8,0.3 14.7,0.7 l 10.7,0.8 0.6,6.1 c 0.3,3.4 0.5,11.2 0.3,17.2 l -0.3,11 -28.7,0.3 -28.8,0.2 z"
       id="path38" />
    <path
       d="m 701.1,512.3 -0.2,-13.8 20.7,-39.3 20.8,-39.2 H 859.2 976 v 5.4 c 0,3 0.3,6.1 0.6,7 0.6,1.4 -10,1.6 -112.6,1.8 l -113.2,0.3 -24,45 c -13.1,24.8 -24.3,45.3 -24.7,45.8 -0.4,0.4 -0.8,-5.5 -1,-13 z"
       id="path40" />
    <path
       d="m 1020.9,508.9 c -2.8,-1 -3.9,-4 -3.9,-10.7 v -3.6 l 3.8,3.6 c 2,2.1 5.9,4.7 8.6,5.9 5.5,2.4 8.4,2.4 48.5,-0.7 14.8,-1.1 19.7,-1.2 20.7,-0.3 0.8,0.7 1.2,1.4 1,1.6 -0.3,0.3 -7.8,0.9 -16.8,1.3 -15.8,0.8 -41,2.4 -53.3,3.4 -3.3,0.3 -7.2,0 -8.6,-0.5 z"
       id="path42" />
    <path
       d="m 1029.3,495 c -3.4,-2 -3.5,-2.4 -5.2,-15 -0.5,-3.6 -1.2,-7.2 -1.6,-8.1 -0.8,-2.2 3.8,-2.9 17.5,-2.8 16.3,0 16.4,0.1 32.2,12.4 l 14.1,11 -4.9,0.7 c -2.7,0.3 -12.8,1.1 -22.4,1.7 -9.6,0.6 -19.5,1.3 -22,1.6 -3.4,0.4 -5.3,0 -7.7,-1.5 z"
       id="path44" />
    <path
       d="m 1281.3,491.7 c 0.4,-1.5 6.7,-2.1 42.2,-4.3 14.9,-0.9 28.6,-1.8 30.5,-2 6.3,-0.5 39.3,-2.5 49,-3 5.2,-0.2 21.9,-1.3 37,-2.4 41.8,-3 44.4,-3.1 45.8,-2.2 1.9,1.3 -4.8,2.3 -18.3,2.9 -6,0.3 -16.2,0.9 -22.5,1.4 -20.7,1.5 -43.2,3 -62.3,3.9 -10.4,0.5 -19.2,1.2 -19.6,1.4 -0.4,0.3 -6.8,0.7 -14.2,1.1 -7.3,0.3 -20.8,1.2 -29.9,2 -26.3,2.2 -38.2,2.6 -37.7,1.2 z"
       id="path46" />
    <path
       d="m 1126.8,479.3 c -6.8,-5.2 -12.9,-10.1 -13.6,-10.8 -1.1,-1 0.3,-1.3 7,-1.4 4.6,-0.1 9.2,-0.4 10.3,-0.7 1.5,-0.4 5.4,2.1 14.2,9 6.7,5.3 12.4,9.6 12.7,9.6 0.3,0 0.6,-5.2 0.6,-11.5 0,-10.6 0.2,-11.5 1.9,-11.5 2.7,0 7.1,-3.8 7.1,-6.2 0,-1.2 -1.9,-3.9 -4.5,-6.2 l -4.5,-4.2 V 432.7 420 h 13.9 13.9 l 1,2.9 c 0.8,2.3 0.7,3.2 -0.3,4.1 -0.7,0.6 -1.5,2.4 -1.9,4 -0.5,3 -0.6,3 -7.1,3 h -6.6 l 0.2,7.3 c 0,3.9 -0.3,8.3 -0.9,9.7 -0.5,1.4 -0.6,3.4 -0.1,4.5 0.4,1.1 0.8,8.8 0.8,17.1 l 0.1,15 h -3.7 c -2.1,0 -9.3,0.3 -16,0.7 l -12.2,0.7 z"
       id="path48" />
    <path
       d="m 1220.5,485 c -0.3,-0.5 -3.3,-0.7 -7.1,-0.3 l -6.5,0.6 0.3,-7.9 0.3,-7.9 h 26 26 v 6 6 l -8.5,0.7 c -4.7,0.4 -12.8,0.9 -18,1.2 -5.4,0.3 -9.6,0.9 -9.8,1.5 -0.5,1.4 -1.9,1.4 -2.7,0.1 z"
       id="path50" />
    <path
       d="m 1291,479.2 c 0,-1.6 9.8,-6 17.5,-7.9 6,-1.4 15,-1.7 62.2,-1.9 30.4,-0.1 55.5,0.1 55.7,0.5 0.3,0.4 -7.7,1.3 -17.7,2 -10,0.6 -24,1.6 -31,2.2 -7,0.5 -15.8,1 -19.5,1 -3.7,0 -10.1,0.4 -14.2,0.9 -4.1,0.6 -15.8,1.5 -26,2 -10.2,0.5 -20.4,1.3 -22.7,1.6 -2.8,0.4 -4.3,0.3 -4.3,-0.4 z"
       id="path52" />
    <path
       d="m 1521,475.7 c 0,-1.1 2.9,-1.6 11.8,-2.1 6.4,-0.4 15.8,-1.2 20.7,-1.8 5,-0.6 22.5,-1.1 39,-1.3 18,-0.1 27,0.1 22.5,0.5 -4.1,0.4 -11.5,0.9 -16.5,1 -4.9,0.1 -11.5,0.6 -14.5,1.1 -3,0.5 -12.6,1.1 -21.5,1.4 -8.8,0.4 -20,1 -25,1.5 -12.8,1.4 -16.5,1.3 -16.5,-0.3 z"
       id="path54" />
    <path
       d="m 1023,427 v -7 h 12.9 12.9 l 0.7,5.9 c 0.4,3.3 0.4,6.5 0,7 -0.4,0.7 -5.6,1.1 -13.6,1.1 H 1023 Z"
       id="path56" />
    <path
       d="m 1275.6,430 c -0.9,-2.2 -1.6,-5.4 -1.6,-7 v -3 h 8 8 l 1.5,3.3 c 0.8,1.7 2.6,4.9 4,7 l 2.5,3.7 h -10.4 -10.4 z"
       id="path58" />
    <path
       d="m 1333.2,431.3 c -0.6,-1.6 -1.2,-4.6 -1.4,-6.8 l -0.3,-4 18.3,-0.3 c 10,-0.1 18.2,0 18.2,0.3 0,1 -6.6,7.2 -11,10.4 -4.1,2.9 -4.8,3.1 -13.5,3.1 -9.2,0 -9.3,0 -10.3,-2.7 z"
       id="path60" />
    <path
       d="m 1379,433.4 c 0,-0.3 0.8,-1.8 1.9,-3.2 1,-1.5 2.4,-4.4 3,-6.4 l 1.3,-3.8 h 9.9 9.9 v 4.5 c 0,4.1 -0.3,4.7 -4,7 -3.5,2.2 -5.1,2.5 -13,2.5 -4.9,0 -9,-0.3 -9,-0.6 z"
       id="path62" />
    <path
       d="m 1624.3,432.9 c 1.3,-0.8 1.7,-2.3 1.7,-6.9 v -6 h 3.9 c 3.8,0 3.9,0.1 4.6,3.9 0.3,2.1 1.7,4.9 3.1,6.1 2.3,2.3 2.6,2.3 21.1,1.6 21.6,-0.8 26,-1.5 28.8,-5 l 2,-2.5 2.9,2.6 c 2.7,2.3 3.5,2.5 8.4,1.9 5.4,-0.6 11.6,-3.3 16.1,-6.7 2.1,-1.7 4.4,-1.9 23.1,-1.9 h 20.7 l 1,7 0.9,7 h -70 c -48.1,-0.1 -69.6,-0.4 -68.3,-1.1 z"
       id="path64" />
    <path
       d="m 1393.1,342.4 c -3,-0.8 -7.3,-2.3 -9.6,-3.3 l -4.2,-1.8 -1.3,-12.3 c -1.1,-10.9 -1.5,-12.6 -3.9,-15.1 -1.4,-1.6 -4,-3.2 -5.8,-3.5 -3,-0.6 -3.4,-0.3 -4.9,3 -2.1,4.3 -2.9,4.4 -13,1.1 -4.2,-1.4 -8.4,-2.5 -9.3,-2.5 -2.6,-0.1 -13.2,-15.2 -11.7,-16.7 0.3,-0.3 6.7,-0.9 14.3,-1.4 37.9,-2.1 51,-2.9 53.1,-3.3 1.3,-0.2 4.5,0.3 7,1.1 8.2,2.6 19.4,2.1 30.2,-1.4 6.9,-2.2 12.4,-3.2 20,-3.7 32.6,-2 59.3,-3.7 64.8,-4.3 3.4,-0.3 6.2,-0.2 6.2,0.2 0,2.1 -14.6,22.2 -18.4,25.4 -1.4,1.2 -1.9,1.1 -3.7,-0.5 -1.8,-1.6 -4,-1.8 -20.9,-1.9 -17.1,0 -19,0.2 -20.9,1.9 -3.3,3 -2.7,6.9 1.7,10.5 2,1.7 4.5,3.7 5.5,4.6 1.2,1 1.7,3 1.7,6.4 0,6.3 -3.2,9.9 -11.4,13 -8.2,3.1 -14.4,4.6 -15.2,3.8 -0.4,-0.3 -0.9,-4.9 -1.2,-10.1 l -0.5,-9.4 4.3,-4.2 c 2.6,-2.6 4,-4.7 3.6,-5.6 -0.3,-0.9 -0.6,-2 -0.6,-2.4 0,-0.5 -1.2,-2.1 -2.7,-3.5 -2.5,-2.2 -3.6,-2.5 -10.3,-2.4 -14.3,0.1 -42.5,2.5 -44.7,3.7 -4.4,2.4 -2.3,9.6 3.6,12.7 2.6,1.3 2.8,1.9 3.5,10.1 0.3,4.8 0.9,9.7 1.2,11 0.7,2.8 0.7,2.8 -6.5,0.8 z"
       id="path66" />
    <path
       d="m 188,341.6 c -30.3,-5.5 -55,-17.8 -74.4,-37.1 -18.5,-18.3 -28.7,-39.4 -31.7,-65.3 -1.7,-13.9 -0.6,-42.3 2,-55.5 9.3,-46.3 36.5,-81.3 83.3,-107.5 42.7,-23.7 87.2,-31.9 132.4,-24.2 13.1,2.2 33.5,7.5 35.8,9.3 1.6,1.3 1.8,-0.1 -4,35.6 -1.9,11.8 -3.6,21.6 -3.8,21.9 -0.2,0.2 -3.6,-0.8 -7.5,-2.2 -14.3,-5.2 -25.9,-6.9 -45.6,-6.9 -27.6,0 -48.8,4.6 -71,15.3 -14,6.8 -21.5,12 -32.3,22.4 -15.4,14.9 -24.5,29.1 -29.4,46.1 -3.3,11.4 -3.3,32.4 0,43.9 8.9,31.2 32.5,48.6 66.2,49 10.8,0.1 24.1,-1.9 27.7,-4.2 0.7,-0.5 2.2,-6 3.3,-12.3 1.2,-6.3 2.4,-12.4 2.7,-13.6 l 0.5,-2.3 h -22.6 c -12.4,0 -22.6,-0.2 -22.6,-0.4 0,-1.9 8.2,-52.1 8.6,-52.7 0.3,-0.5 24.6,-0.9 54,-0.9 H 313 v 2.4 c 0,1.3 -3.4,23.7 -7.5,49.7 -4.1,26 -7.3,47.4 -7.2,47.6 0.1,0.1 24.3,-54.5 53.7,-121.3 L 405.5,57 h 36.1 36.1 l 19,113.8 19,113.7 4,-12.5 C 522,265.1 538.3,215 555.9,160.5 573.6,106 588.5,60.5 589,59.3 l 1,-2.3 h 28.8 28.7 l 13.9,75.7 c 7.6,41.7 14.1,76.1 14.5,76.5 0.3,0.4 15.2,-33.7 33.1,-75.8 L 741.4,57 h 35.3 35.3 v 5 c 0,5.9 10.6,254.1 11.5,268.3 l 0.6,9.7 H 794.5 765 v -2.7 c 0,-1.6 -1.1,-27.3 -2.5,-57.3 -1.3,-30 -3,-67.7 -3.6,-83.8 -1.2,-28.4 -1.3,-29.2 -2.9,-26 -0.9,1.8 -17.8,40.8 -37.6,86.6 L 682.5,340 h -19.6 c -19.6,0 -19.7,0 -20.2,-2.2 -0.3,-1.3 -7.4,-35.8 -15.7,-76.8 -8.3,-41 -15.4,-75.2 -15.6,-76 -0.3,-0.8 -9.3,26 -20,59.5 -10.7,33.6 -21.9,68.8 -24.9,78.3 l -5.6,17.2 h -49.7 -49.7 l -5.9,-33.7 c -3.2,-18.6 -6.5,-37.5 -7.4,-42.1 l -1.5,-8.2 -33.5,0.2 -33.5,0.3 -18.7,41.5 -18.7,41.5 -30.6,0.3 c -16.9,0.1 -30.7,0 -30.7,-0.2 0,-0.2 1.8,-4.3 4,-9 2.1,-4.7 3.8,-8.6 3.6,-8.6 -0.1,0 -4.7,2.2 -10.2,4.9 -12.4,6.1 -22,9.6 -35.4,12.8 -8.7,2 -13.6,2.5 -29,2.8 -12.7,0.3 -20.9,0 -26,-0.9 z M 437.6,198.3 c -0.3,-1 -2.6,-12.8 -5.2,-26.3 -2.5,-13.5 -4.7,-24.6 -4.8,-24.7 -0.2,-0.2 -21.7,47.2 -23.3,51.5 -0.4,0.9 3.3,1.2 16.7,1.2 15.8,0 17.1,-0.1 16.6,-1.7 z"
       id="path68" />
    <path
       d="M 828.4,336.8 C 829.1,332.6 873,58 873,57.4 c 0,-0.2 36.2,-0.4 80.5,-0.4 78.2,0 80.5,0.1 80.5,1.9 0,1 -2,14.4 -4.5,29.7 -2.5,15.4 -4.5,28.2 -4.5,28.7 0,0.4 -22.9,0.7 -50.8,0.7 h -50.8 l -3.7,24.3 c -2.1,13.3 -3.7,24.5 -3.7,25 0,0.4 20,0.7 44.5,0.7 h 44.5 l -0.4,2.3 c -0.3,1.2 -2.4,13.9 -4.6,28.2 -2.2,14.3 -4.3,27 -4.6,28.3 L 995,229 h -44 -44 l -0.4,2.3 c -0.6,2.3 -7.6,46.4 -7.6,47.2 0,0.3 18.9,0.5 42,0.5 h 42 l -4,5.2 c -5.2,6.5 -6.5,9 -8.3,16 -1.3,4.9 -1.3,5.9 0,7.7 1.2,1.8 1.2,2.4 -0.2,5.1 -1.3,2.5 -1.5,5 -1,12.8 0.3,5.3 0.8,10.7 1.1,12 l 0.4,2.2 h -71.6 -71.6 z"
       id="path70" />
    <path
       d="m 1152,339.2 c 0,-0.5 0.9,-1.7 2,-2.7 1.1,-1 2.2,-2.6 2.6,-3.7 0.8,-2.5 -3.4,-8.7 -6.4,-9.5 -1.3,-0.3 -8,0 -15,0.6 -7,0.6 -14.7,1.3 -17.2,1.5 -2.5,0.3 -7.9,0.7 -12,1 -6.3,0.4 -7.8,0.9 -9.5,2.8 l -2.1,2.4 -2.4,-2.3 c -2.4,-2.2 -4.7,-2.8 -9.9,-2.3 -2.3,0.2 -2.4,0 -1.7,-5.2 0.4,-2.9 1.2,-7.4 1.7,-9.9 l 1,-4.6 6.2,-0.8 c 3.4,-0.5 9.6,-0.9 13.7,-1.1 13.4,-0.3 43.4,-2.5 44.5,-3.2 0.5,-0.4 6.2,-0.7 12.5,-0.8 11.1,-0.1 49.1,-2.4 99.2,-6.1 13.1,-0.9 24,-1.4 24.4,-1.1 3,3 -30.1,33.8 -36.3,33.8 -0.7,0 -1.6,-1.2 -1.9,-2.7 -0.4,-1.6 -1.8,-4.1 -3.3,-5.7 l -2.6,-2.8 -14,0.6 c -7.7,0.4 -15.6,0.9 -17.6,1.3 -3.6,0.5 -3.7,0.6 -4.4,5.9 -0.6,4.9 -0.3,8.6 1.1,13.7 0.5,1.6 -1.2,1.7 -26,1.7 -14.6,0 -26.6,-0.4 -26.6,-0.8 z"
       id="path72" />
    <path
       d="m 1573.6,334.8 c -0.3,-2.9 -0.6,-8.7 -0.6,-12.9 0,-4.2 -0.5,-11.1 -1,-15.5 -0.9,-6.6 -0.8,-9.7 0.9,-19.2 1,-6.3 2.2,-11.7 2.6,-12 0.7,-0.8 56.7,-4.2 57.4,-3.6 0.3,0.3 -0.1,4.6 -0.8,9.7 -1,7.5 -1.6,9.6 -3.5,11.2 -3.2,2.7 -3.7,4.8 -2,8 1.8,3.6 1.7,7.1 -1,24.5 l -2.2,14.5 -10.6,0.3 -10.6,0.3 -1.9,-3.1 c -3.1,-5.3 -8.6,-5.3 -10.6,0 -1.1,2.9 -1.3,3 -8.3,3 h -7.1 z m 41.4,0.4 2.2,-1.8 -1.4,-18.2 c -1.9,-24 -0.5,-22.6 -20.3,-21.7 -21.7,0.9 -20.5,0.5 -20.5,7.5 0,5.5 0.2,5.9 3.3,7.8 1.7,1.1 5.2,2.2 7.6,2.6 6.3,1 11.2,5.2 15.6,13.8 3.5,7 7.7,11.8 10.1,11.8 0.7,0 2.2,-0.8 3.4,-1.8 z"
       id="path74" />
    <path
       d="m 1092,297.1 c -0.8,-0.6 -2.7,-0.7 -4.3,-0.4 -2.5,0.5 -2.8,0.3 -2.5,-1.6 0.3,-2.2 0.6,-2.3 16.3,-2.5 8.8,-0.2 25,-1.1 36,-1.9 11,-0.9 29,-2.1 40,-2.7 23.9,-1.2 42.2,-2.4 72.5,-4.5 12.4,-0.8 26.7,-1.8 31.8,-2.2 6.1,-0.4 9.2,-0.3 9.2,0.4 0,1.3 -6,2.1 -26.5,3.3 -8.8,0.5 -25.9,1.6 -38,2.5 -12.1,0.8 -25.1,1.7 -29,2 -22.1,1.4 -37.5,2.5 -41.5,3 -2.5,0.3 -9,0.7 -14.5,0.9 -26.3,1 -41.9,2.3 -46.7,4.1 -0.7,0.3 -2,0.1 -2.8,-0.4 z"
       id="path76" />
    <path
       d="m 1097,263.5 c -0.7,-0.8 -2.6,-1.5 -4.2,-1.5 -2.6,0 -2.9,-0.3 -2.5,-2.2 0.3,-1.3 7.6,-46.9 16.3,-101.4 l 15.8,-99.1 8.9,-0.7 c 13.2,-0.9 85.2,-0.7 99.2,0.3 9.7,0.7 13.7,1.5 20.1,4 17.7,6.8 35.3,22.4 43.2,38.2 2.3,4.6 4.9,11.1 5.7,14.4 1.9,7.5 1.9,22.2 0,30.3 -3.2,13.5 -11.9,29.3 -23.8,43.2 l -5.6,6.4 6.2,6.6 c 10.5,11.1 16.9,22.1 20.2,34.8 0.8,3.3 1.5,7.4 1.5,9.1 v 3.1 h -6.2 c -3.5,0 -10.1,0.4 -14.8,1 -4.7,0.5 -14.9,1.2 -22.7,1.5 -7.8,0.3 -14.9,0.8 -15.7,1.1 -1,0.4 -1.8,-0.1 -2.2,-1.2 -3.1,-10.1 -7.6,-15.3 -17,-19.6 -4.7,-2.2 -6.1,-2.3 -34.6,-2.6 l -29.7,-0.3 -0.5,3.3 c -0.3,1.8 -1.3,7.6 -2.1,12.8 -2.2,13.8 -2.1,13.6 -4.7,13.5 -1.3,0 -11.4,0.6 -22.6,1.4 -17.9,1.2 -20.4,1.6 -21.3,3.3 -1.2,2.2 -5.2,2.4 -6.9,0.3 z m 120.3,-94.9 c 6.6,-2.5 14.9,-10.3 17.7,-16.8 1.7,-4.1 2.1,-6.5 1.8,-11.9 -0.5,-8.6 -3.9,-14.1 -11.3,-17.8 -4.8,-2.5 -5.5,-2.6 -28.7,-2.9 l -23.7,-0.3 -0.5,2.3 c -0.3,1.3 -2.2,11.8 -4.1,23.3 -2,11.6 -3.8,22.3 -4.1,23.8 l -0.6,2.9 24.4,-0.4 c 20.1,-0.4 25.1,-0.8 29.1,-2.2 z"
       id="path78" />
    <path
       d="m 1310.1,242.8 c -2.2,-10.6 -3.1,-28.9 -2,-41.8 5.5,-68.2 48.1,-125.6 104.6,-140.7 8.7,-2.4 11.6,-2.7 26.3,-2.6 13.7,0 17.8,0.3 24.2,2.1 42.8,11.7 72.7,46.3 84,96.9 1.9,8.5 2.2,12.8 2.2,32.3 0,19.4 -0.3,23.9 -2.1,32.4 -1.2,5.5 -2.7,10.2 -3.3,10.6 -0.5,0.3 -13.9,1.4 -29.8,2.4 -15.8,1 -29,2 -29.5,2.3 -0.4,0.2 -1.6,0.2 -2.7,-0.2 -1.9,-0.6 -1.9,-0.7 0.1,-5.3 6.6,-15.2 10,-40.5 8.1,-58.3 -2.4,-21 -9.4,-37.2 -20.9,-47.9 -9,-8.5 -15.5,-11.3 -27.3,-11.8 -8.3,-0.4 -10.5,-0.1 -16.7,2.1 -27.2,9.4 -49.8,41.3 -56.9,80.2 -1.9,10.8 -2.2,32.4 -0.4,41.3 0.7,3.4 1.1,6.4 0.9,6.6 -0.2,0.2 -11.6,1.1 -25.4,2 -13.7,0.9 -26.6,1.9 -28.7,2.2 l -3.6,0.5 z"
       id="path80" />
    <path
       d="m 1582.4,227 c 0.3,-1.9 1.1,-7.5 1.7,-12.5 l 1.2,-9 -31.3,-68 c -17.2,-37.4 -32.5,-70.8 -34.1,-74.3 l -2.8,-6.2 33.6,0.2 33.7,0.3 16.2,41.6 c 8.9,22.8 17,43.4 18,45.6 l 1.9,4.1 28.5,-45.9 28.5,-45.9 h 33.8 c 28.8,0 33.8,0.2 33.4,1.4 -0.3,0.8 -23.7,37.8 -52,82.3 -28.2,44.5 -51.7,82.1 -52.1,83.6 -0.6,2.6 -0.9,2.7 -6.9,2.7 -7.3,0 -10.7,0.8 -10.7,2.4 0,0.8 -5.9,1.1 -20.6,1.1 h -20.6 z"
       id="path82" />
    <path
       d="m 52.1,160.4 c -0.1,-0.7 -2,-0.9 -5.5,-0.6 -5.7,0.5 -7.6,-1 -5.7,-4.6 0.4,-0.9 1.2,-3.5 1.5,-5.6 C 44.4,138.9 58.1,112.3 70,96 77.9,85.3 101.9,61.4 112.8,53.5 146.1,29.3 183.5,12.4 219.9,5 236.7,1.6 248,0.6 268,0.6 c 29.8,0.1 54.2,4.3 84.7,14.6 8.4,2.8 15.4,4.9 15.6,4.7 0.1,-0.2 1.2,-2.6 2.5,-5.2 1.5,-3.2 2.6,-4.6 3.5,-4.1 0.8,0.5 0.7,0.2 -0.2,-0.9 -1.3,-1.6 3.3,-1.7 73,-1.7 h 74.2 l -1.9,2.3 c -1.1,1.2 -3.8,4.2 -5.9,6.7 l -3.9,4.5 -63.5,0.5 -63.5,0.5 -3.3,7.5 c -1.7,4.1 -3.8,7.4 -4.5,7.4 -0.7,-0.1 -10.7,-3.4 -22.3,-7.2 -34.3,-11.5 -55.2,-15.3 -85,-15.4 -37.8,-0.1 -70.4,7.8 -106.4,25.8 -53.8,26.9 -87.5,62.5 -105.6,111.6 -1.9,5.1 -3.4,8.8 -3.4,8.2 z"
       id="path84" />
    <path
       d="M 531.4,90.8 532.1,75.5 542.9,42 553.8,8.5 893.6,8.2 c 242.7,-0.2 342.7,0 349.7,0.8 27.5,3.1 46.1,12.5 68.6,34.8 12.4,12.2 12.5,12.3 14.7,10.5 25.5,-20.9 36.8,-27.9 57.9,-35.8 12.2,-4.6 27.6,-8.1 41.4,-9.5 13.2,-1.3 410.9,-1.4 409.6,-0.1 -0.6,0.5 -6,3.7 -12.1,7 l -11.1,6.1 h -188.7 c -125.5,0 -191.9,0.4 -198.4,1.1 -34.9,3.7 -66.5,19.5 -94.9,47.3 l -7.3,7 v -8.1 -8.1 l -5.7,0.5 -5.8,0.4 -9.3,-9 C 1286.6,37.8 1271,29 1252,24.4 c -7.1,-1.8 -23.4,-1.9 -347.6,-2.1 l -340,-0.3 -14,41.7 c -13.9,41.7 -13.9,41.8 -16.8,42.1 l -2.9,0.4 z"
       id="path86" />
  </g>
  <g
     fill="#a689d2"
     id="g154"
     transform="translate(-1,-0.6)">
    <path
       d="m 89.2,667.2 c 0.2,-0.5 15.4,-26.2 33.8,-57.2 18.4,-31.1 44.6,-75.1 58.2,-98 l 24.6,-41.5 25.5,-0.3 25.5,-0.2 48.7,80.7 c 26.8,44.5 49,81.1 49.3,81.5 0.4,0.4 0.6,-36 0.4,-80.7 L 355,470 h 75.1 c 81.4,0 86.2,0.3 104.7,5.6 15.5,4.5 26.2,9.9 39.9,20 1.4,1 -0.7,-3.3 -5.7,-11.5 -4.4,-7.2 -8,-13.4 -8,-13.6 0,-0.3 14.7,-0.4 32.7,-0.3 l 32.7,0.3 37.5,64.2 37.5,64.2 14.7,-26.7 c 8.1,-14.7 24.1,-43.8 35.7,-64.7 l 20.9,-38 30.1,-0.3 c 20.2,-0.1 30.2,0.1 30.2,0.8 0,0.6 -25.7,45.3 -57.1,99.5 L 718.8,668 h -19.2 -19.2 l -22.8,-37.7 c -12.6,-20.8 -30.1,-49.8 -39,-64.4 -8.9,-14.7 -16.2,-26.6 -16.3,-26.5 -0.2,0.1 0.4,3.4 1.2,7.2 2.2,10.2 2,34.5 -0.4,45.9 -3.9,18.9 -11.5,33 -24.4,45.1 -14.4,13.6 -34.9,22.7 -62.2,27.6 l -13,2.3 h -96.4 -96.4 l -40.4,-72 c -22.1,-39.6 -40.6,-72.1 -41.1,-72.3 -0.6,-0.2 -54.7,96.2 -56,99.9 -0.2,0.5 11.4,0.9 27.7,0.9 H 229 v 22 22 H 158.9 C 120.4,668 89,667.6 89.2,667.2 Z M 495.5,620 c 29.6,-3.9 44.1,-14.3 49,-35.2 2,-8.5 2,-28.6 0,-36.3 -4.2,-16.1 -14.5,-25.8 -33,-31.1 -5.2,-1.5 -12.1,-1.8 -52.2,-2.2 L 413,514.9 v 52.9 c 0,29.1 0.3,53.2 0.8,53.7 1,1.1 71.9,-0.2 81.7,-1.5 z"
       id="path90" />
    <path
       d="m 751.3,666.5 c 0.4,-0.8 11.2,-19.3 24.2,-41.2 13,-21.9 39,-65.8 57.8,-97.5 l 34.2,-57.7 25.6,-0.1 h 25.6 l 17,28.3 c 9.3,15.5 31.3,52 48.9,81.1 l 31.9,53 0.5,-46 c 0.3,-25.2 0.7,-45.9 0.8,-45.9 0.1,0 3.7,0.1 7.9,0.3 7.7,0.4 29.8,-0.7 64.3,-3.3 10.2,-0.8 25.5,-1.7 34,-2.1 l 15.5,-0.7 8,6.1 c 4.4,3.3 19.5,15 33.5,26 l 25.5,20 0.5,-28.2 0.5,-28.1 11,-1.2 c 6.1,-0.6 17.9,-1.4 26.3,-1.8 l 15.2,-0.7 v 70.6 70.6 h -19.7 -19.8 l -23,-18.3 c -12.6,-10.1 -46.3,-36.8 -74.7,-59.5 L 1071,549 v 59.5 59.5 h -49.2 L 972.5,667.9 938,606.2 c -19,-33.9 -37.3,-66.8 -40.8,-73 l -6.4,-11.3 -28.2,50.8 -28.3,50.8 28.4,0.3 28.3,0.2 v 22 22 h -70.1 c -60.9,0 -70,-0.2 -69.6,-1.5 z"
       id="path92" />
    <path
       d="m 1310.3,666.5 c -3.9,-0.7 -9.5,-2.4 -12.5,-3.7 -10.6,-4.9 -15.4,-11.1 -18.8,-24.3 -1.9,-7.3 -2,-11.1 -2,-60.5 v -52.8 l 12.8,-0.7 c 7,-0.3 17.9,-1.1 24.2,-1.6 6.3,-0.5 13.4,-0.9 15.8,-0.9 h 4.2 v 49 49 h 55.5 55.5 v -15 -15 h 29.2 29.1 l -0.6,20.8 c -0.7,22.1 -1.9,29.8 -6.1,38.1 -4.7,9.1 -14.3,15.1 -28.4,17.7 -10.8,1.9 -147.2,1.9 -157.9,-0.1 z"
       id="path94" />
    <path
       d="m 1521,588.6 v -79.4 l 9.3,-0.6 c 5,-0.3 16.6,-1.1 25.7,-1.6 9.1,-0.6 22.6,-1.5 30,-2.1 7.4,-0.5 21.4,-1.4 31,-1.9 15.9,-0.9 35.9,-2.2 75.5,-5 7.7,-0.5 20,-1.3 27.3,-1.6 l 13.2,-0.7 v 9.7 9.6 h -77 -77 v 14 14 h 45 45 v 22 22 h -45 -45 v 17.5 17.5 h 78 78 v 23 23 h -107 -107 z"
       id="path96" />
    <path
       d="m 1445,530 v -14 l -8.2,-0.1 c -11,-0.1 -5.7,-1.5 9.5,-2.5 10.1,-0.6 10.8,-0.8 11.3,-3 0.5,-2.1 1.1,-2.3 7.7,-2.3 4,0 8.6,-0.1 10.2,-0.2 1.7,0 8.3,0.2 14.7,0.6 l 11.6,0.8 0.7,9.1 c 0.4,5 0.5,12.7 0.3,17.1 l -0.3,8 -28.7,0.3 -28.8,0.2 z"
       id="path98" />
    <path
       d="m 701.5,511.3 -0.6,-12.8 20.7,-39.2 20.8,-39.3 H 859.2 976 v 7 7 l -112.7,0.2 -112.7,0.3 -23.6,44.2 c -13,24.4 -23.9,44.5 -24.2,44.8 -0.3,0.3 -0.9,-5.2 -1.3,-12.2 z"
       id="path100" />
    <path
       d="m 139.3,510.7 c 0.4,-1 0.9,-7.6 1,-14.6 l 0.4,-12.8 18.6,-31.4 18.5,-31.4 238.7,-0.3 238.6,-0.2 -3.2,5.7 c -1.8,3.2 -3.7,6.4 -4.2,7.1 -0.7,0.9 -48.2,1.2 -231.3,1.2 H 186.1 l -23.2,38.8 c -12.8,21.3 -23.4,38.9 -23.7,39.2 -0.3,0.3 -0.2,-0.3 0.1,-1.3 z"
       id="path102" />
    <path
       d="m 1020.8,508.9 c -2,-0.8 -2.9,-1.8 -3,-3.7 -0.7,-10.1 -0.2,-11.3 2.7,-6.9 0.8,1.3 4.1,3.7 7.1,5.2 5.2,2.6 6.5,2.9 15.3,2.7 5.3,-0.1 14.3,-0.7 20.1,-1.2 20.8,-1.9 35.7,-2.3 36.4,-1.1 0.4,0.6 0.6,1.1 0.4,1.1 -0.2,0.1 -7.7,0.5 -16.8,1 -16.5,0.9 -42.1,2.5 -53.5,3.4 -3.3,0.3 -7.2,0 -8.7,-0.5 z"
       id="path104" />
    <path
       d="m 1029.8,495.3 c -3.3,-2.1 -4.4,-5.2 -5.3,-14.7 -0.3,-3.8 -1,-7.7 -1.6,-8.7 -0.9,-1.8 -0.2,-1.9 16.8,-1.9 l 17.8,0.1 11.1,8.7 c 6.1,4.8 12.5,9.9 14.3,11.3 l 3.3,2.6 -11.9,1.1 c -6.5,0.6 -17,1.4 -23.3,1.7 -6.3,0.3 -13.1,0.8 -15,1 -2.3,0.3 -4.5,-0.1 -6.2,-1.2 z"
       id="path106" />
    <path
       d="m 1282.1,491.6 c 1,-0.9 8.4,-1.6 24.9,-2.4 12.9,-0.7 28.5,-1.6 34.5,-2.2 6.1,-0.5 21.8,-1.6 35,-2.5 13.2,-0.8 36.6,-2.4 52,-3.5 35.7,-2.5 60.3,-3.3 55.5,-2 -1.9,0.6 -8.9,1.3 -15.5,1.6 -6.6,0.3 -17.2,1 -23.5,1.5 -21.2,1.6 -43.3,3 -62.3,3.9 -10.4,0.5 -19.2,1.2 -19.6,1.4 -0.4,0.3 -6.8,0.7 -14.2,1.1 -7.3,0.3 -20.8,1.2 -29.9,2 -27.2,2.3 -38.6,2.6 -36.9,1.1 z"
       id="path108" />
    <path
       d="m 1159.2,487.2 c -0.8,-0.2 -1.2,-4.1 -1.2,-12.2 v -11.8 l 3.5,-0.6 c 7.4,-1.4 8.5,0.2 8.5,12.6 0,6.5 -0.3,8 -2.1,9.7 -2,1.9 -6.5,3.1 -8.7,2.3 z"
       id="path110" />
    <path
       d="m 1126.2,478.5 c -6.1,-4.7 -11.4,-8.9 -11.7,-9.5 -0.3,-0.5 3.5,-0.9 9.7,-0.9 11.4,0 11,-0.2 22.1,8.6 3.7,3 6.7,6 6.7,6.8 0,1.7 -5.9,3.5 -11.6,3.5 -3.7,0 -5.4,-1 -15.2,-8.5 z"
       id="path112" />
    <path
       d="m 1220.5,485 c -0.3,-0.5 -3.3,-0.7 -7,-0.3 l -6.5,0.6 v -7.7 -7.6 h 26.5 26.6 l -0.3,5.8 -0.3,5.7 -8.5,0.7 c -4.7,0.4 -12.8,0.9 -18,1.2 -5.4,0.3 -9.6,0.9 -9.8,1.5 -0.5,1.4 -1.9,1.4 -2.7,0.1 z"
       id="path114" />
    <path
       d="m 1292,478.5 c 2.1,-2.5 9.4,-5.5 17.5,-7 7.1,-1.4 58.2,-2.2 99,-1.5 l 19,0.2 -15,1.3 c -23.3,1.9 -51.5,3.7 -56.5,3.6 -2.5,0 -7.9,0.4 -12,0.9 -4.1,0.6 -15.8,1.5 -26,2 -10.2,0.5 -20.5,1.3 -23,1.7 -4.2,0.6 -4.4,0.5 -3,-1.2 z"
       id="path116" />
    <path
       d="m 1162.2,448 -4.2,-3 V 432.5 420 h 14 14 l 0.6,2.5 c 0.4,1.5 0,3.9 -1,5.9 -0.9,1.9 -1.6,3.9 -1.6,4.5 0,1.6 -12.2,1.4 -13.9,-0.1 -1.1,-1.1 -1.2,-1 -0.6,0.1 1.7,2.9 -0.4,18.1 -2.4,18.1 -0.4,0 -2.7,-1.4 -4.9,-3 z"
       id="path118" />
    <path
       d="m 1024,427 v -7.1 l 12.3,0.3 12.2,0.3 0.3,6.8 0.3,6.7 h -12.6 -12.5 z"
       id="path120" />
    <path
       d="m 1334,432.1 c -0.6,-1.2 -1.4,-4.4 -1.7,-7.1 l -0.6,-5 h 18.3 18.2 l -3.3,3.8 c -1.9,2.1 -5.2,5.1 -7.4,6.8 -3.6,2.6 -4.9,2.9 -13.2,3.2 -8.5,0.4 -9.2,0.2 -10.3,-1.7 z"
       id="path122" />
    <path
       d="m 1380.2,433.3 c 0.2,-0.5 1.3,-2.8 2.5,-5.3 1.2,-2.5 2.4,-5.3 2.7,-6.2 0.5,-1.6 1.9,-1.8 10.1,-1.8 h 9.5 v 4.5 c 0,4.1 -0.3,4.7 -4,7 -3.4,2.2 -5.1,2.5 -12.6,2.5 -4.7,0 -8.4,-0.3 -8.2,-0.7 z"
       id="path124" />
    <path
       d="m 1625.8,432.8 c 0.7,-0.7 1.2,-3.8 1.2,-7.1 v -5.8 l 3.3,0.3 c 2.9,0.3 3.2,0.6 3.5,4 0.2,2.7 1.2,4.4 3.5,6.4 l 3.2,2.7 18,-0.7 c 19.8,-0.8 27,-1.8 29.6,-4.2 1.6,-1.4 2,-1.4 4.8,0 5.8,3 14.2,1.3 23.1,-4.7 l 5.5,-3.7 h 19.7 19.8 v 3.9 c 0,2.1 0.3,5.3 0.6,7 l 0.7,3.1 h -68.9 c -53.5,0 -68.5,-0.3 -67.6,-1.2 z"
       id="path126" />
    <path
       d="m 1392.3,342 c -3.9,-1 -8.5,-2.6 -10.1,-3.4 -2.8,-1.5 -2.9,-1.8 -3.6,-11.3 -1.1,-16.1 -2.8,-19.4 -10.6,-20.9 -2.6,-0.6 -3.1,-0.3 -4.6,3 -2.1,4.3 -2.9,4.4 -13,1.1 -4.2,-1.4 -8.2,-2.5 -8.9,-2.5 -2.3,0 -13.7,-15.2 -12.4,-16.4 0.2,-0.2 16.2,-1.4 35.6,-2.6 33.4,-2.1 35.6,-2.1 42.5,-0.5 8.9,2 16.4,1.4 26.3,-2.1 7.4,-2.6 10.4,-2.9 57.6,-5.9 28.2,-1.8 32.9,-1.9 32.9,-0.4 0,1.5 -9.1,14.4 -14.3,20.4 l -4.5,5 -2.1,-2 c -2,-1.7 -3.8,-1.9 -21.1,-2 -17.1,0 -19,0.2 -20.9,1.9 -3.7,3.4 -2.8,6.9 3.4,12.2 5.1,4.4 5.5,5.1 5.5,9.2 0,6.6 -2.6,9.5 -11.8,13 -4.2,1.7 -9.3,3.3 -11.3,3.7 l -3.6,0.7 -0.7,-9 c -0.8,-10 -0.3,-11.9 4.5,-16 3.9,-3.2 3.8,-6.5 -0.3,-10.3 -3,-2.7 -3.8,-2.9 -10.8,-2.8 -14.3,0.1 -42.5,2.5 -44.7,3.7 -1.6,0.9 -2.3,2.2 -2.3,4.2 0,3.2 4,8.5 7,9.5 1.6,0.5 2,1.6 2,4.8 0,2.3 0.5,7.1 1,10.7 0.5,3.5 0.8,6.5 0.7,6.6 -0.1,0.1 -3.4,-0.6 -7.4,-1.6 z"
       id="path128" />
    <path
       d="m 185.7,341 c -50.4,-9.2 -90.4,-43.2 -101,-86 -4.5,-18 -4.8,-52 -0.7,-71.5 9.6,-45.2 35.4,-79.4 79.1,-104.8 38.4,-22.3 78.6,-32.1 117.7,-28.9 8.1,0.7 17.9,1.9 21.9,2.7 10.8,2.1 31,7.6 32.7,8.9 1.2,0.9 1.3,2.2 0.5,6.6 -0.5,3 -2.5,15.6 -4.4,27.9 -1.9,12.4 -3.7,22.6 -3.8,22.8 -0.2,0.1 -4.3,-1.1 -9.1,-2.7 -42,-14.3 -100.1,-5.2 -135.6,21.1 -22.2,16.4 -37.7,39.1 -42.7,62.4 -2.1,9.6 -1.2,28.4 1.7,38.5 4.8,16.8 14.7,30.4 27.8,38.4 13.4,8.1 31.8,11.8 48.5,9.8 7.6,-1 18.7,-3.7 18.7,-4.6 0,-0.2 1.1,-6.3 2.5,-13.7 1.4,-7.4 2.5,-13.5 2.5,-13.6 0,-0.2 -10.2,-0.3 -22.6,-0.3 h -22.6 l 0.6,-2.7 c 0.3,-1.6 2.1,-13.4 4.1,-26.3 2,-12.9 3.9,-23.8 4.1,-24.2 0.3,-0.5 24.6,-0.8 54,-0.8 H 313 v 2.3 c 0,1.2 -3.4,23.5 -7.5,49.6 -4.1,26.1 -7.3,47.6 -7.2,47.8 0.2,0.2 83.6,-188.5 105.1,-237.9 l 2.1,-4.8 h 36 36 l 19,114.1 19,114.2 37,-113.9 37.1,-113.9 28.4,-0.3 c 15.6,-0.1 28.7,0.1 29.1,0.5 0.4,0.5 6.9,34.9 14.5,76.5 7.7,41.7 14.1,75.8 14.4,75.8 0.3,0 6.3,-13.4 13.2,-29.7 6.9,-16.4 21.5,-50.8 32.4,-76.6 l 19.9,-46.7 35,0.2 35,0.3 5.6,129.5 c 3.1,71.2 5.9,134.8 6.2,141.3 l 0.6,11.7 H 794.5 765 v -3.2 c 0,-1.8 -1.6,-38.6 -3.5,-81.8 -1.9,-43.2 -3.5,-80.7 -3.5,-83.4 0,-2.8 -0.4,-4.6 -0.8,-4 -0.5,0.5 -17.5,39.5 -37.8,86.6 L 682.5,340 h -19.6 c -19.6,0 -19.7,0 -20.2,-2.2 -0.3,-1.3 -7.4,-36 -15.8,-77.3 -8.4,-41.2 -15.5,-75.3 -15.8,-75.7 -0.3,-0.4 -9.5,27.3 -20.4,61.5 -10.9,34.2 -22,69.3 -24.8,78 l -5,15.7 -49.7,-0.2 -49.7,-0.3 -7.2,-41 c -4,-22.5 -7.2,-41.3 -7.3,-41.8 0,-0.4 -15.2,-0.6 -33.7,-0.5 l -33.7,0.3 -18.7,41.5 -18.7,41.5 -30.6,0.3 -30.6,0.2 0.9,-2.2 c 0.5,-1.3 2.3,-5.3 4,-9 1.6,-3.8 2.8,-6.8 2.6,-6.8 -0.2,0 -4.8,2.2 -10.2,4.9 -22.1,11 -38.7,15.1 -64.3,15.7 -14.4,0.3 -19.4,0 -28.3,-1.6 z M 438,200.2 c 0,-3.5 -10.5,-53 -11.1,-52 -1.4,2.5 -22.9,51 -22.9,51.6 0,0.4 7.7,0.7 17,0.7 9.4,0 17,-0.2 17,-0.3 z"
       id="path130" />
    <path
       d="M 828.4,337.3 C 829.1,333.9 873,58.5 873,57.6 c 0,-0.3 36.2,-0.6 80.5,-0.6 71.5,0 80.5,0.2 80.5,1.5 0,0.9 -2,14.2 -4.5,29.6 -2.5,15.4 -4.5,28.5 -4.5,29 0,0.5 -20.7,0.9 -51,0.9 -35.8,0 -51,0.3 -51,1.1 0,0.6 -1.6,11.2 -3.5,23.6 -1.9,12.4 -3.5,23.2 -3.5,23.9 0,1.2 7.5,1.4 43.9,1.4 24.2,0 44.2,0.3 44.4,0.8 0.3,0.5 -6.3,43.2 -8.8,57 l -0.6,3.2 H 951 907 l -0.5,2.3 c -0.5,2.2 -7.5,46.2 -7.5,47.2 0,0.3 18.9,0.5 42,0.5 h 42 l -4,5.2 c -5.2,6.5 -6.5,9 -8.3,16 -1.3,4.9 -1.3,5.9 0,7.7 1.2,1.8 1.2,2.4 -0.2,5.1 -1.3,2.5 -1.5,5 -1,12.8 0.3,5.3 0.8,10.7 1.1,12 l 0.4,2.2 h -71.6 -71.6 z"
       id="path132" />
    <path
       d="m 1152.8,339.4 c -0.3,-0.3 0.5,-1.6 1.8,-2.9 3.2,-3.3 3.1,-7 -0.5,-10.6 -2.6,-2.6 -3.6,-2.9 -8.8,-2.8 -3.2,0 -9.6,0.5 -14.3,1 -10,1.1 -14.9,1.6 -24.9,2.3 -5.6,0.3 -7.9,1 -9.4,2.5 l -2,2 -2.9,-2 c -1.9,-1.4 -4.4,-2.1 -7.4,-2.1 h -4.6 l 0.6,-4.6 c 0.4,-2.6 1.1,-7 1.7,-9.9 l 1,-5.1 11.7,-0.7 c 6.4,-0.3 20.3,-1.3 30.7,-2.1 10.5,-0.8 26.4,-1.9 35.5,-2.4 29.8,-1.7 73.2,-4.4 102.5,-6.5 11,-0.7 20.1,-1.2 20.4,-1 0.8,0.9 -7.2,10.6 -14.3,17.3 -7.2,6.8 -20,16.2 -22.1,16.2 -0.6,0 -1.7,-1.9 -2.5,-4.2 -2.4,-7 -4,-7.4 -23.4,-6.1 -9.2,0.6 -16.9,1.3 -17.3,1.6 -0.9,0.9 -0.9,14.8 0,18 l 0.7,2.7 h -25.8 c -14.2,0 -26.1,-0.3 -26.4,-0.6 z"
       id="path134" />
    <path
       d="m 1573.6,327.3 c -0.3,-7.1 -1,-16.2 -1.5,-20.3 -0.7,-5.5 -0.6,-10 0.5,-17 2.4,-16.5 0,-14.5 18.7,-15.9 8.9,-0.7 21.9,-1.6 29,-1.9 14.6,-0.8 13.4,-1.9 11.6,10.5 -0.9,5.9 -1.7,8.3 -3.4,9.8 -3.2,2.8 -3.5,4.7 -1.7,8.5 1.5,3.1 1.4,4.4 -0.7,19.9 -1.3,9.1 -2.6,17.2 -2.9,17.9 -0.3,0.8 -3.3,1.2 -10.6,1.2 h -10.1 l -1.7,-3 c -1.7,-3 -5.6,-4.7 -8.4,-3.6 -0.9,0.3 -2.1,2 -2.7,3.6 -1.1,2.9 -1.3,3 -8.3,3 h -7.2 z m 41.8,8.1 c 1.9,-1.8 2,-8.6 0.6,-25.2 -1,-10.9 -2,-14.8 -4.4,-16.5 -1.1,-0.8 -28.8,0 -33.8,0.9 -2.7,0.5 -2.8,0.8 -2.8,6.4 0,5.1 0.3,6.1 2.6,7.9 1.5,1.2 3.6,2.1 4.7,2.1 7.9,0 14.9,5.5 20.2,16 4.7,9.3 9.1,12.2 12.9,8.4 z"
       id="path136" />
    <path
       d="m 1092,297.1 c -0.8,-0.6 -2.7,-0.7 -4.3,-0.4 -2.5,0.5 -2.8,0.3 -2.5,-1.3 0.3,-1.8 1.7,-1.9 20.3,-2.5 11,-0.4 28.8,-1.4 39.5,-2.3 10.7,-0.8 27.8,-2.1 38,-2.6 10.2,-0.6 30,-1.8 44,-2.7 14,-0.8 26.6,-1.5 28,-1.5 1.4,0 6.1,-0.4 10.5,-0.9 9.9,-1.1 25.5,-1.6 25.5,-0.8 0,0.9 -7.9,1.8 -26.5,2.9 -8.8,0.5 -25.9,1.6 -38,2.5 -12.1,0.8 -25.1,1.7 -29,2 -22.1,1.4 -37.5,2.5 -41.5,3 -2.5,0.3 -9,0.7 -14.5,0.9 -26.3,1 -41.9,2.3 -46.7,4.1 -0.7,0.3 -2,0.1 -2.8,-0.4 z"
       id="path138" />
    <path
       d="m 1097,263.5 c -0.7,-0.8 -2.6,-1.5 -4.2,-1.5 -2.4,0 -2.9,-0.4 -2.6,-1.7 0.3,-1 7.6,-46.6 16.3,-101.4 l 15.9,-99.7 27.6,-0.7 c 36.2,-1 85.5,0.1 93.1,2 24,6.3 47.7,28 55.1,50.5 3,9.2 3.6,24.9 1.3,34.3 -3.3,13.9 -11.9,29.5 -24.4,44.1 l -5,5.9 6.5,7 c 11.7,12.7 19.4,27.8 21,41 l 0.7,5.7 h -6.4 c -3.5,0 -10.2,0.4 -14.9,1 -4.7,0.5 -14.8,1.2 -22.5,1.5 -7.7,0.3 -14.8,0.7 -15.9,0.8 -1.4,0.1 -2.2,-0.9 -3.2,-4.3 -1.9,-6.5 -6.5,-11.4 -14.2,-15.2 l -6.7,-3.3 -29.6,-0.3 -29.7,-0.3 -0.6,2.8 c -0.3,1.5 -1.3,7.3 -2.1,12.8 -2.2,13.9 -2.3,14.1 -4.8,14 -1.2,0 -11.3,0.6 -22.5,1.4 -17.9,1.2 -20.4,1.6 -21.3,3.3 -1.2,2.2 -5.2,2.4 -6.9,0.3 z m 120.2,-94.9 c 6.5,-2.4 14.6,-9.9 17.4,-16.1 4.7,-9.9 2.4,-22.3 -5,-28 -6.5,-5 -9.3,-5.4 -33.8,-5.5 -20.7,0 -22.7,0.1 -23.2,1.8 -0.3,0.9 -2.1,11.4 -4.1,23.2 -1.9,11.8 -3.8,22.8 -4.1,24.3 l -0.6,2.9 24.4,-0.4 c 20.2,-0.4 25.1,-0.7 29,-2.2 z"
       id="path140" />
    <path
       d="m 1310.7,245.8 c -3.6,-14.8 -3.4,-49.2 0.3,-66.3 13.1,-60.9 51.7,-105.4 104,-119.8 6,-1.6 10.6,-2 23.5,-2.1 14.5,-0.1 16.9,0.2 26,2.7 41.8,11.5 71.7,46.6 82.7,97.1 1.9,8.7 2.2,13.1 2.2,32.1 0,18.7 -0.3,23.5 -2.2,31.9 -1.1,5.5 -2.6,10.2 -3.2,10.6 -0.5,0.3 -13.7,1.4 -29.2,2.4 -15.6,1 -29.3,2 -30.4,2.3 -3.4,0.8 -3.7,-1.2 -1,-8.5 5,-14.1 7,-26.4 7,-43.7 0,-13.2 -0.4,-17.6 -2.2,-24.8 -4,-15.9 -11.5,-29.1 -21.1,-37.1 -8.5,-7.1 -16,-9.7 -27.6,-9.7 -31.6,0 -62.8,36.3 -71.2,82.5 -1.9,10.8 -2.1,32.2 -0.4,41.5 0.7,3.4 1.1,6.4 0.9,6.6 -0.2,0.2 -11.5,1 -25.3,1.9 -13.7,0.9 -26.6,1.9 -28.6,2.2 -3.2,0.5 -3.7,0.3 -4.2,-1.8 z"
       id="path142" />
    <path
       d="m 1582,230 c 0,-0.3 0.8,-5.7 1.8,-12.1 l 1.8,-11.5 -33.7,-73.5 c -18.6,-40.3 -33.8,-74 -33.8,-74.7 -0.1,-1 6.8,-1.2 33,-1 l 33.2,0.3 17.6,45.2 c 9.7,24.9 17.9,45.4 18.1,45.7 0.3,0.2 13.3,-20.2 29,-45.5 L 1677.5,57 h 33.9 c 26.6,0 33.7,0.3 33.3,1.3 -0.2,0.6 -23.6,37.7 -51.9,82.2 -28.3,44.6 -51.8,82.2 -52.2,83.8 -0.6,2.6 -0.9,2.7 -6.9,2.7 -7.3,0 -10.7,0.8 -10.7,2.4 0,0.8 -5.9,1.1 -20.5,1.1 -11.3,0 -20.5,-0.2 -20.5,-0.5 z"
       id="path144" />
    <path
       d="M 83.9,98.8 C 85,97.3 84.8,97.2 81.6,97.7 79.7,98 77.3,97.9 76.3,97.5 75.3,97 74.1,96.8 73.6,96.9 73.1,97 73,96.3 73.4,95.4 c 0.6,-1.5 0.4,-1.5 -1,-0.3 -1.5,1.2 -1.5,1 0.1,-2.1 C 75.1,88 103,60.5 112.8,53.5 146.3,29.2 183.5,12.4 219.9,5 c 17,-3.4 28.2,-4.4 48.6,-4.3 30.4,0.1 57.3,4.9 87.7,15.6 7,2.5 13,4.1 13.3,3.6 0.4,-0.5 2.7,-0.9 5.3,-0.9 7.3,0 8,2.1 4.1,11.4 l -3.1,7.4 -21.6,-7.3 C 313.8,16.8 281.4,12 249.5,14.9 c -58.8,5.4 -116,32.6 -156.1,74.3 -6,6.2 -10.3,10.5 -9.5,9.6 z"
       id="path146" />
    <path
       d="m 1323.8,66.3 0.5,-9.8 4.5,-4 c 19.9,-17.7 43.9,-31.2 67.8,-38 22.5,-6.3 5.5,-5.9 232.9,-6.2 124.9,-0.2 206.6,0 206,0.6 -0.6,0.5 -5.7,3.5 -11.5,6.7 l -10.5,5.9 -196.5,0.5 -196.5,0.6 -9.2,2.1 c -14.3,3.4 -23.8,6.8 -36.8,13.3 -14.6,7.3 -27.3,16.2 -40.5,28.6 -5.5,5.2 -10.1,9.4 -10.3,9.4 -0.3,0 -0.2,-4.4 0.1,-9.7 z"
       id="path148" />
    <path
       d="m 545.5,72.4 c -0.5,-0.1 -3.1,-0.5 -5.7,-0.9 -4.1,-0.5 -4.8,-1 -4.8,-2.8 0,-1.2 4.2,-15.2 9.4,-31.2 l 9.4,-29 339.8,-0.3 c 242.7,-0.2 342.7,0 349.7,0.8 24,2.7 43.9,11.7 61.6,27.7 l 6.4,5.8 -9.6,0.3 -9.6,0.3 -5.8,-3.9 c -7.4,-5 -16.4,-9.5 -24.2,-12.2 -15.6,-5.2 0.4,-5 -361.8,-5 H 564.2 l -7.7,22.8 c -8.5,25.3 -9.6,28.1 -11,27.6 z"
       id="path150" />
    <path
       d="m 378.3,15.3 -4.2,-6.8 36.4,-0.3 c 20.1,-0.1 53,-0.1 73.1,0 l 36.7,0.3 -5.8,6.8 -5.7,6.7 h -63.2 -63.1 z"
       id="path152" />
  </g>
  <g
     fill="#eeeeef"
     id="g188"
     transform="translate(-1,-0.6)">
    <path
       d="m 91.4,663.8 c 1.4,-2.4 27.9,-46.9 58.8,-99 L 206.5,470 h 25 25 l 5,8.3 c 2.8,4.5 25,41.4 49.5,82.1 l 44.5,73.9 0.3,-82.2 0.2,-82.2 77.8,0.4 c 85.1,0.4 83.6,0.3 104.2,6.7 12.4,3.8 23.9,9.4 32.3,15.8 3.7,2.8 6.7,4.8 6.7,4.5 0,-0.3 -3.4,-6.3 -7.6,-13.2 -4.2,-6.9 -7.9,-12.9 -8.1,-13.3 -0.2,-0.5 14.2,-0.8 32.1,-0.8 h 32.4 l 13,22.3 c 41.6,71.4 61.5,105.3 62.2,106 0.4,0.4 16.6,-28.2 36.1,-63.7 l 35.4,-64.5 30.3,-0.1 h 30.4 l -2.5,4.2 c -8.9,15.4 -68,117.5 -88,152 l -24.2,41.8 -19,-0.3 -19,-0.2 -39.5,-65.2 c -21.7,-35.8 -39.5,-65.1 -39.7,-65 -0.1,0.1 0.5,2.9 1.3,6.2 2.5,10.1 3,32.5 0.9,44.6 -6.9,41.6 -32.8,65.7 -80.9,75.4 -19.8,4 -34.8,4.5 -125.7,4.5 H 311.3 L 279,610.3 c -17.8,-31.8 -36.2,-64.7 -40.9,-73 -4.7,-8.4 -8.8,-15.3 -9.1,-15.3 -0.9,0.1 -56.7,101.5 -56.3,102.3 0.2,0.4 13,0.7 28.4,0.7 H 229 v 21.5 21.5 h -70.1 -70 z M 501,619.6 c 15.7,-3 24.4,-6.7 32.2,-13.5 11.3,-10 16.4,-32.4 12.3,-53.7 -2.9,-15.1 -10.3,-25.4 -22.6,-31.2 -11.9,-5.7 -17,-6.2 -65.5,-6.2 l -43.9,-0.1 -0.3,53.7 -0.2,53.6 39.7,-0.5 c 30.7,-0.4 41.7,-0.9 48.3,-2.1 z"
       id="path156" />
    <path
       d="m 751,667.6 c 0,-0.2 26.3,-44.7 58.4,-98.7 l 58.4,-98.4 25.3,-0.2 25.4,-0.3 49.5,82.3 49.5,82.2 0.3,-46.7 0.2,-46.7 5.5,0.6 c 4.6,0.5 31.7,-0.7 49.5,-2.2 3,-0.3 12.7,-0.9 21.5,-1.5 8.8,-0.6 22.1,-1.5 29.5,-2.1 9.1,-0.7 14.3,-0.7 16,0 1.4,0.5 16.9,12.2 34.4,26 17.6,13.8 32.1,25 32.2,24.8 0.2,-0.1 0.4,-12.4 0.5,-27.2 0.1,-14.8 0.4,-27.5 0.6,-28.2 0.4,-0.9 2.9,-1.3 8.3,-1.3 4.2,0 9.9,-0.4 12.6,-0.9 2.7,-0.5 10.8,-1.1 17.9,-1.3 l 13,-0.3 0.3,70.3 0.2,70.2 h -19.5 -19.5 l -74.7,-59.5 c -41.1,-32.7 -75.1,-59.5 -75.5,-59.5 -0.5,0 -0.8,26.7 -0.8,59.3 l 0.1,59.2 h -48.7 -48.6 l -40.7,-72.7 c -22.3,-40 -40.9,-72.6 -41.3,-72.5 -0.4,0.1 -13.4,22.9 -28.8,50.7 l -28,50.5 28.5,0.3 28.5,0.2 v 22 22 h -70 c -38.5,0 -70,-0.2 -70,-0.4 z"
       id="path158" />
    <path
       d="m 1316,667 c -23.7,-2.8 -34.8,-13 -38,-34.8 -1.2,-8.1 -1.3,-104.9 -0.2,-105.6 0.9,-0.5 45.2,-3.6 52.1,-3.6 h 4.1 v 49 49 h 55.5 55.5 V 605.5 590 h 28.6 28.6 l -0.4,22.8 c -0.5,25 -1.4,29.6 -7,38.5 -5.6,8.8 -16,13.8 -32.5,15.7 -10.2,1.1 -136.3,1.1 -146.3,0 z"
       id="path160" />
    <path
       d="m 1521,589 c 0,-74.6 0.1,-79 1.8,-79 0.9,0 14.5,-0.9 30.2,-2.1 15.7,-1.1 32.3,-2.2 37,-2.4 4.7,-0.2 10.3,-0.7 12.5,-0.9 2.2,-0.3 10.1,-0.8 17.5,-1.1 7.4,-0.4 18.7,-1 25,-1.5 6.3,-0.5 22.8,-1.6 36.5,-2.5 13.8,-0.8 28.8,-1.8 33.5,-2.2 4.7,-0.4 10.5,-0.8 13,-0.8 h 4.5 l 0.3,8.7 0.3,8.8 -77.3,0.2 -77.3,0.3 -0.3,14.3 -0.3,14.2 h 45.1 45 v 22 22 h -45 -45 v 17.5 17.5 h 78.5 78.5 v 23 23 h -107 -107 z"
       id="path162" />
    <path
       d="M 1445,529.5 V 516 l -4.2,-0.1 c -6.5,-0.1 -3.2,-0.9 7.3,-1.7 8.4,-0.6 9.5,-0.9 10.4,-2.9 0.8,-1.9 1.7,-2.2 7,-2.3 3.3,0 7.8,-0.1 10,-0.1 2.2,-0.1 6.7,0.1 10,0.4 3.3,0.2 8.4,0.5 11.3,0.6 l 5.2,0.1 v 16.5 16.5 h -28.5 -28.5 z"
       id="path164" />
    <path
       d="m 1032,495.8 c -3.3,-1.2 -5.8,-6.5 -6.5,-14.2 -0.4,-3.9 -1.1,-8.1 -1.6,-9.3 L 1023,470 h 16.9 16.8 l 12.4,9.6 c 18.4,14.3 17.8,13.1 7.3,13.8 -4.9,0.4 -14.5,1.1 -21.4,1.6 -19.4,1.6 -20.8,1.6 -23,0.8 z"
       id="path166" />
    <path
       d="m 1207.6,481.3 c -0.3,-2.1 -0.6,-5.5 -0.6,-7.5 V 470 h 26.5 26.5 v 5.5 c 0,4.9 -0.2,5.5 -2.2,5.9 -2.1,0.4 -24.7,2.1 -42.4,3.2 l -7.1,0.4 z"
       id="path168" />
    <path
       d="m 1293.8,477.5 c 3.4,-2.5 12.2,-5.4 19.9,-6.5 3.9,-0.5 29.8,-0.9 60.3,-0.8 29.4,0.1 50.1,0.4 46,0.8 -4.1,0.4 -12.2,0.8 -18,0.9 -5.8,0.1 -13.2,0.6 -16.5,1.1 -3.3,0.5 -12.1,1.2 -19.5,1.5 -7.4,0.3 -17.8,1 -23,1.5 -5.2,0.6 -14.7,1.2 -21,1.4 -6.3,0.3 -15.8,0.8 -21,1.2 -9.1,0.6 -9.4,0.5 -7.2,-1.1 z"
       id="path170" />
    <path
       d="M 191.5,341.5 C 140.9,334.4 100,302.7 86.7,260.5 82.6,247.2 81.6,238.9 81.6,218 c 0,-26.7 3.3,-44.2 12.4,-65.2 17.7,-41.1 57.5,-74.5 110.5,-92.8 19.7,-6.7 32.9,-9.1 55.7,-9.7 26.2,-0.8 42.2,1.3 66.6,8.5 l 9.4,2.7 -0.6,5 c -0.3,2.8 -2.3,15.7 -4.3,28.8 -3.2,19.9 -4,23.6 -5.3,23 -4.7,-2.1 -15.6,-5.4 -23,-7 -13.1,-2.8 -45.6,-2.5 -60.6,0.5 -44.5,8.9 -78.8,33 -95,66.7 -6.3,13 -8.6,22.6 -8.6,36.5 -0.2,34.3 17.2,59.4 47.7,69 9.5,3 28.1,3.8 38.3,1.6 12.6,-2.6 12.3,-2.3 14.8,-16.1 1.3,-6.6 2.3,-13 2.3,-14.2 L 242,253 h -22 -22 l 0.1,-2.2 c 0,-1.3 1.7,-12.9 3.7,-25.8 l 3.7,-23.5 53.8,-0.3 c 29.5,-0.1 53.7,0 53.7,0.2 0,0.7 -14.9,95.9 -15.5,98.6 -0.4,2 -0.2,2.2 0.6,1 0.6,-0.8 25.1,-55.9 54.4,-122.5 l 53.3,-121 35.6,-0.3 35.6,-0.2 0.5,2.2 c 0.3,1.3 8.8,52.5 19,113.8 10.2,61.3 18.7,111.6 19,111.8 0.4,0.4 6.9,-19.4 44,-133.8 10.8,-33.3 22.1,-68 25.1,-77.2 L 590.2,57 h 28.4 28.4 l 0.5,2.2 c 0.3,1.3 6.6,35.8 14.1,76.8 7.5,41 13.9,74.7 14.1,75 0.3,0.3 0.7,0.1 1,-0.5 0.2,-0.5 14.9,-35.2 32.7,-77 l 32.3,-76 34.6,-0.3 34.5,-0.2 0.6,8.2 c 0.7,10.2 11.6,263.4 11.6,270.1 v 4.7 h -28.5 -28.4 l -0.5,-3.2 c -0.3,-1.8 -1.9,-36.6 -3.6,-77.3 -3.3,-78.5 -4,-93.8 -4.7,-93.1 -0.2,0.2 -17.2,39.3 -37.7,86.7 l -37.3,86.4 -19.4,0.3 -19.4,0.2 -16,-78.5 C 618.7,218.3 611.3,183 611,183 c -0.3,0 -11.7,35.3 -25.4,78.5 l -25,78.5 h -49.2 -49.2 l -0.6,-2.7 c -0.3,-1.6 -3.5,-19.7 -7.1,-40.3 -3.6,-20.6 -6.7,-38.5 -7,-39.8 l -0.5,-2.2 -33.7,0.2 -33.6,0.3 -19,42.3 -19,42.2 h -30.3 -30.3 l 3.9,-8.6 c 2.2,-4.7 4,-9 4,-9.5 0,-0.5 -2.8,0.7 -6.2,2.5 -27.2,14.9 -61.6,21.3 -91.3,17.1 z M 438,199.6 c 0,-1.9 -9.8,-52.8 -10.3,-53.2 -0.2,-0.3 -22.7,48.9 -24.5,53.7 -0.2,0.5 7.5,0.9 17.2,0.9 14.7,0 17.6,-0.2 17.6,-1.4 z"
       id="path172" />
    <path
       d="m 1390,341.1 c -9.9,-3.1 -9.4,-2.5 -10.8,-16.2 -0.8,-6.8 -1.8,-13.1 -2.3,-14.1 -1.3,-2.5 -6.5,-5 -9.7,-4.6 -1.6,0.2 -3.1,1.2 -3.8,2.6 -2.2,4.5 -2.8,4.6 -11.1,1.9 -4.3,-1.4 -9,-2.8 -10.5,-3.1 -2,-0.5 -4.2,-2.7 -7.9,-7.9 l -5,-7.2 5.3,-0.6 c 2.9,-0.4 9.8,-1 15.3,-1.3 5.5,-0.3 15.4,-1 22,-1.6 18,-1.4 29.3,-1.4 36.3,0 7.8,1.6 17.7,0.8 25.7,-2 6.3,-2.2 13.4,-2.9 55.5,-5.6 35.7,-2.3 35,-2.2 35,-1.4 0,1.3 -10.9,16.2 -14.8,20.3 -2.4,2.5 -4.2,3.5 -5.2,3.1 -1.6,-0.7 -12.3,-2.5 -15.5,-2.6 -1.1,-0.1 -7.6,0.2 -14.5,0.5 -14.3,0.7 -15.5,1.3 -14.6,8.2 0.3,2.9 1.2,4.6 3.2,6 5.5,4 7.4,6.4 7.4,9.5 0,5.8 -2.4,8.5 -10.2,11.8 -7.5,3.1 -14.9,5.4 -15.5,4.8 -0.2,-0.2 -0.6,-4.5 -0.9,-9.7 -0.6,-8.6 -0.4,-9.6 1.5,-11.6 1.1,-1.2 2.8,-2.6 3.6,-3 4.2,-2.4 1.1,-11.6 -4.2,-12.9 -1.5,-0.4 -13.6,-0.2 -26.8,0.5 -27.1,1.4 -28.5,1.8 -28.5,7.8 0,3 0.8,4.4 4.5,7.9 4,3.7 4.5,4.7 4.6,8.5 0,2.4 0.4,6.5 0.8,9.2 0.7,4.4 0.6,4.7 -1.3,4.6 -1.2,0 -4.6,-0.8 -7.6,-1.8 z"
       id="path174" />
    <path
       d="m 829.4,333.8 c 0.5,-3.5 10.7,-67 22.5,-141.3 l 21.6,-135 80.3,-0.3 c 63.9,-0.2 80.2,0 80.1,1 0,0.7 -2.2,14.4 -4.7,30.3 l -4.7,29 -50.7,0.3 -50.7,0.2 -0.6,3.3 c -2.2,11.9 -7.2,46.3 -6.8,47 0.2,0.4 20.2,0.7 44.4,0.7 26,0 43.9,0.4 43.9,0.9 0,0.5 -2,13.6 -4.5,29 -2.5,15.4 -4.5,28.5 -4.5,29.1 0,0.7 -14.7,1 -44.3,1 h -44.3 l -3.7,23.3 c -2,12.7 -3.7,24.2 -3.7,25.5 v 2.2 h 41.5 41.5 l -3.9,5 c -4.4,5.5 -8.3,14.9 -8.2,19.5 0,1.7 0,4.4 0,6 -0.3,9.1 -0.1,23.4 0.2,26 l 0.4,3 -71.1,0.3 -71.1,0.2 z"
       id="path176" />
    <path
       d="m 1575.2,338.8 c -3,-38.4 -3.1,-45.4 -1.3,-55.4 l 1.2,-7.1 13.2,-1.1 c 18.9,-1.6 44,-3.3 44.3,-2.9 0.2,0.1 -0.3,4.2 -1,9.1 -1.1,7.3 -1.8,9.2 -3.9,11.2 -3.1,2.9 -3.3,4 -1.2,9.2 1.4,3.5 1.3,5 -1,20.1 -1.4,9 -2.5,16.7 -2.5,17.2 0,0.5 -4.5,0.9 -9.9,0.9 -9.1,0 -10,-0.2 -10.6,-2 -0.7,-2.2 -5.3,-5 -8.3,-5 -2.3,0 -5.2,3 -5.2,5.3 0,1.4 -1.1,1.7 -6.8,1.7 -4.8,0 -6.9,-0.4 -7,-1.2 z m 40.7,-3 c 2.3,-2 2.3,-2.4 1.6,-14.2 -1,-18 -2.1,-24.6 -4.4,-27 -2.3,-2.2 -4.2,-2.3 -25.1,-0.9 l -12.5,0.8 -0.3,5.8 c -0.4,8.1 1.1,10.1 8.6,11.6 7.7,1.5 13,6 18.3,15.7 5.7,10.4 9.2,12.5 13.8,8.2 z"
       id="path178" />
    <path
       d="m 1156.1,336.1 c 2.4,-3.3 2.1,-6.4 -1,-10.2 -1.8,-2.3 -2.6,-2.4 -14.8,-2.7 -7,-0.1 -14,0.2 -15.5,0.7 -1.6,0.6 -7.9,1.3 -14,1.6 -8.8,0.5 -11.9,1.1 -14,2.6 -2.6,1.8 -2.9,1.9 -5.4,0.3 -1.4,-1 -4.5,-1.8 -7,-1.8 -4.2,-0.1 -4.4,-0.2 -3.9,-2.6 0.2,-1.4 0.9,-5.5 1.6,-9.1 l 1.1,-6.6 6.6,-0.8 c 3.7,-0.5 9.9,-0.9 13.7,-1.1 17.6,-0.7 43.3,-2.6 46.5,-3.4 1.9,-0.5 9.1,-0.9 16,-0.9 6.9,-0.1 13.9,-0.3 15.5,-0.6 1.7,-0.2 7.5,-0.7 13,-1 24.4,-1.3 45.9,-2.6 56.5,-3.5 22.6,-1.9 32,-2.3 32,-1.3 0,0.5 -2.6,4.1 -5.8,7.9 -6.2,7.3 -16.3,16 -24.7,21.3 l -4.9,3.1 -1.6,-4.1 c -2.8,-7.7 -3.9,-8 -23.8,-6.5 -9.5,0.8 -17.5,1.6 -17.8,1.8 -1.1,1.1 -1.5,12.7 -0.6,16.1 l 1,3.7 h -25.4 -25.5 z"
       id="path180" />
    <path
       d="m 1097,262.9 c -1.9,-1 -4.1,-1.7 -4.7,-1.4 -0.7,0.2 -1.3,-0.3 -1.3,-1.3 0,-1.7 30.6,-194.6 31.5,-198.9 L 1123,59 h 56.3 c 61.3,0 62.4,0.1 75.1,5.9 17.9,8.1 32.7,22.4 40.6,39.3 12.1,25.9 5.1,56.1 -19.6,84.5 -3,3.3 -5.4,6.3 -5.4,6.5 0,0.2 2.3,2.8 5.1,5.8 7.1,7.6 13.4,16.6 16.8,24.2 2.8,6.1 6.8,21.4 5.9,22.4 -0.7,0.6 -19.2,2.2 -32.3,2.8 -6,0.3 -14.9,0.8 -19.7,1.2 l -8.6,0.7 -1.3,-4.3 c -1.8,-5.8 -8.7,-13.2 -14.9,-15.9 -7.3,-3.2 -19.7,-4.2 -44.6,-3.9 l -21.8,0.3 -1.2,7.5 c -0.6,4.1 -1.7,10.7 -2.3,14.6 l -1.2,7.2 -5.2,0.6 c -2.9,0.3 -10.4,0.8 -16.7,1.1 -18.5,0.9 -22.7,1.5 -24.6,3.6 -2.1,2.3 -2,2.3 -6.4,-0.2 z m 117.9,-93.5 c 20.4,-5.7 29.6,-29.2 16.9,-43 -6.7,-7.2 -9.7,-7.9 -36.3,-7.9 h -23 l -4.2,24 c -2.3,13.2 -4.2,25 -4.2,26.3 l -0.1,2.2 h 22.7 c 17.5,0 23.9,-0.4 28.2,-1.6 z"
       id="path182" />
    <path
       d="m 1311.5,247 c -1.8,-2.9 -3,-17.2 -2.9,-34.5 0,-17.6 0.4,-21.5 2.7,-32.6 6.9,-32.6 21.2,-60.8 42,-82.6 11.7,-12.2 23.5,-21 37.2,-27.8 37.6,-18.6 77.5,-15.5 109.3,8.5 30.8,23.2 50.1,65.7 50.2,110.5 0,10.2 -1.2,21.6 -3.6,34.5 -1.9,10.4 -1.1,10 -17,10.1 -5.9,0 -13.1,0.4 -16,0.9 -3,0.5 -11.5,1.2 -19,1.6 -13.3,0.7 -13.7,0.6 -12.9,-1.2 2.7,-6.5 6.6,-20.9 8.1,-29.5 2.2,-13.6 1.5,-35.9 -1.6,-47.4 -7.9,-29.5 -28.3,-47.3 -51.7,-45.2 -30,2.8 -59,37.1 -67.8,80.2 -3,14.9 -3,39.1 0.1,49.6 0.4,1.4 -1.9,1.8 -18.8,2.9 -10.6,0.6 -23.5,1.5 -28.6,1.9 -5.1,0.4 -9.5,0.4 -9.7,0.1 z"
       id="path184" />
    <path
       d="m 1583,228.1 c 0,-1.3 0.7,-6.7 1.5,-12 l 1.6,-9.6 -34.1,-74.2 c -18.7,-40.8 -34,-74.4 -34,-74.7 0,-0.3 14.8,-0.6 32.8,-0.6 h 32.9 l 14.8,37.8 c 8.1,20.7 16.2,41.3 18,45.7 1.7,4.4 3.5,7.8 4.1,7.6 0.5,-0.3 13.5,-20.7 29,-45.5 l 28,-45.1 33.7,-0.3 c 18.5,-0.1 33.7,0 33.7,0.4 0,0.3 -0.8,1.8 -1.9,3.2 -5.4,7.8 -99,155.5 -101.4,160.2 l -2.8,5.5 -7.1,0.1 c -5.6,0 -7.3,0.4 -8.4,1.8 -1.1,1.6 -3.3,1.8 -20.8,2 l -19.6,0.1 z"
       id="path186" />
  </g>
</svg>
