<svg id="Layer_1" data-name="Layer 1" xmlns="http://www.w3.org/2000/svg" viewBox="0 0 3840.00317 1539.00579"><path d="M824.4,348.8l-24.6-126.7-56.6,126.7h81.2m889,321.9h-134.1l-17.9-403.8L1387,670.7h-89.4l-74.5-365.1L1106.9,670.7h-228L844.6,475.5h-155L601.7,670.7H461.6L749.2,18H914.6l87.9,527.5L1173.9,18h132.6l65.6,357.6L1524.1,18H1685l28.4,652.7" transform="translate(0.00317 -0.00139)" style="fill:#fff"/><polyline points="2097.903 670.699 2120.303 530.599 1886.303 530.599 1904.903 414.399 2108.303 414.399 2130.703 274.299 1925.003 274.299 1942.903 157.999 2176.903 157.999 2199.203 17.999 1828.203 17.999 1723.803 670.699 2097.903 670.699" style="fill:#fff"/><polyline points="3840.003 17.999 3683.503 17.999 3550.903 230.999 3467.403 17.999 3314.003 17.999 3471.903 362.199 3423.303 670.699 3557.403 670.699 3598.603 397.999 3840.003 17.999" style="fill:#fff"/><path d="M3043.7,546.4c70.8999,31.8,157.8-30.5,193.8999-139.1,36.19995-108.6,8-222.3-62.8999-254.1-70.8999-31.7-157.80005,30.6-194,139.1-36.2,108.6-8,222.3,63,254.1m-203-258.3c41.6001-180.4,195.8999-298.9,344.5-264.5,148.6001,34.3,235.3999,208.5,193.69995,388.9C3337.30005,593,3183,711.4,3034.3999,677.1,2885.7,642.7,2799,468.6,2840.7,288.1" transform="translate(0.00317 -0.00139)" style="fill:#fff"/><path d="M175.5,76.1C47.7,155.2-13.8,275.8,2.6,439.7c19,190.2,265.3,310,473.9,189.3,18.2-10.6,11.1-8.9,17.9-15l41.7-265.2H287.3L268.2,471h104l-11.9,65.6c-59.6,23.9-161,14.9-204.2-62.6-27.3-49-52.7-158.6,62.6-259.3,93.9-82,256.3-96.8,350.2-53.6,0,0,11.9-68.6,20.9-132.7C409.4-34.2,269.4,18,175.5,76.1" transform="translate(0.00317 -0.00139)" style="fill:#fff"/><path d="M2403.3999,21.6l-103.5,647.8h301.7c124.3,0,305.89991-183.1,140.5-332.8,170.1001-176,1.5-313.5-88.7-315-72.5-1.2-251.3999,0-251.3999,0h1.3999m73.90015,391.9H2589.7c106.5,0,103.6001,130.1-14.80005,130.1h-118.3l20.7002-130.1M2518.7,159.1H2606c94.6001,0,75.3999,121.3-14.8,121.3H2498l20.7-121.3" transform="translate(0.00317 -0.00139)" style="fill:#fff"/><path d="M3209.8999,1398.6a89.8555,89.8555,0,0,0-15.3-16.7c-26.8999-23-129.3999-110.5-206.2-173.5,59.8999-32.69995,88.80005-55.19995,88.80005-55.19995s83.3-55.2,101.1001-139.7c13.6001-81.1-1.69995-123.4-118.8-180.9-93.1001-45.6-287.1001-86.4-390.3,57.8-23.8999,33.3-23.8999,84.7-14,110.8,23.19995,61.2,43.19995,109.7,39.1001,344.1-.5,28.5-20.19995,40.6-22.5,68.5-2.6001,30.19995,8.30005,110,93,113.5,72.8999,3,85.7-59.69995,85.7-85.6V1321.4s197.6001,165.80005,231.5,194.9c18.3,15.69995,42.1001,24.5,66.1001,22.4,18.3-1.6,39.3-9.2,59.8-29.5C3249.80005,1467.9,3224.7,1419.7,3209.8999,1398.6ZM2850,1086.1l.3999-135.9H2953.2c47.19995,0,73,55.9,41.6001,91.19995C2972.80005,1066.1,2930.2,1086.1,2850,1086.1Z" transform="translate(0.00317 -0.00139)" style="fill:#00968c"/><path d="M2413.3999,910c-190.8-1-344.5,108.2-343.69995,311.1.69995,170.69995,94.8999,295.79992,275.8999,290.4,135-4.1,352.69995-122.4,352.69995-309.80005C2698.30005,1044.30005,2596.5,911,2413.3999,910ZM2538.5,1201.5c-7.8999,75.1-84.3,136-170.6001,136.1s-149.8-60.80005-141.8999-135.9c7.8999-75.1,84.3-136,170.6001-136.1C2482.8999,1065.6,2546.3999,1126.4,2538.5,1201.5Z" transform="translate(0.00317 -0.00139)" style="fill:#dfb10a"/><path d="M1468.1,891.5c-170.4-5.6-335.79993,144.6-355.5,315.30005C1089.7,1405,1217.7,1508.9,1389.7,1512.4c195.19995,4,331.19995-121.3,346.6-292.4C1751.5,1050.7,1638.5,897.1,1468.1,891.5Zm-60.79993,462.9c-76.6,0-128-68-114.69995-151.9s86.19995-151.9,162.8-151.9,111.5,75.19995,109.6,160.1C1562.30005,1328.6,1483.9,1354.4,1407.30005,1354.4Z" transform="translate(0.00317 -0.00139)" style="fill:#4f549d"/><path d="M984.5,925.7c12.7-3.1,25.1,4.5,29.3,16.9,18.7,54.9,93.8,82.9,143.7,36.5,18.1-16.8,23.6-38.7,28.1-85.1,11.6-120-212.1-178.8-330.8-89.7-82,61.5-249.8,242.1-245.7,456.4-1.7,59,15.7,101.9,15.7,101.9s30.6,106,136.7,147.6c64.6,26.69995,161.8,21.9,161.8,21.9s182.9.1,183.4.1c72.30005,0,137.6-177.7-46-162.30005-77.3,6.5-302.9,65-298.4-130.3C766.1,1082.5,916.1,942.2,984.5,925.7Z" transform="translate(0.00317 -0.00139)" style="fill:#bd0547"/><path d="M1883.7,1332,1875.5,1015.5a435.4142,435.4142,0,0,0-3.6-45.6c-5.4-40.8-18.19995-118.7-40.19995-149-36.9-50.9-114-53.2-138.9-3.9-16.9,33.5-14.69995,90.6,11.80005,158.3,13.4,34.4,20.4,70.9,22.3,107.8,0,0,14.9,238.4,19.80005,317.79992,2.19995,34.7-11,114.5,34.4,131.1,69.4,25.4,183-70.6,319.99988-74.5,79-2.30005,127.69995-220-119.30005-161A477.92484,477.92484,0,0,0,1883.7,1332Z" transform="translate(0.00317 -0.00139)" style="fill:#7aac3b"/></svg>