<?xml version="1.0" encoding="UTF-8" standalone="no"?>
<svg
   version="1.0"
   width="1794.6003"
   height="717.63855"
   viewBox="0 0 1794.6003 717.63855"
   preserveAspectRatio="xMidYMid meet"
   id="svg150"
   sodipodi:docname="gbch.svg"
   inkscape:version="1.1.2 (0a00cf5339, 2022-02-04, custom)"
   xmlns:inkscape="http://www.inkscape.org/namespaces/inkscape"
   xmlns:sodipodi="http://sodipodi.sourceforge.net/DTD/sodipodi-0.dtd"
   xmlns="http://www.w3.org/2000/svg"
   xmlns:svg="http://www.w3.org/2000/svg">
  <defs
     id="defs154" />
  <sodipodi:namedview
     id="namedview152"
     pagecolor="#ffffff"
     bordercolor="#666666"
     borderopacity="1.0"
     inkscape:pageshadow="2"
     inkscape:pageopacity="0.0"
     inkscape:pagecheckerboard="0"
     showgrid="false"
     inkscape:zoom="0.59521158"
     inkscape:cx="898"
     inkscape:cy="357.85594"
     inkscape:window-width="1920"
     inkscape:window-height="1017"
     inkscape:window-x="-8"
     inkscape:window-y="-8"
     inkscape:window-maximized="1"
     inkscape:current-layer="svg150" />
  <g
     fill="#4e507c"
     id="g46"
     transform="translate(-0.59963452,-1.1551382)">
    <path
       d="m 633,706 c -30.7,-3.8 -55.9,-13.9 -75.2,-30.4 -4.4,-3.7 -6.8,-5.2 -6.8,-4.2 0,0.9 -0.7,1.6 -1.5,1.6 -0.9,0 -1.5,-0.9 -1.5,-2.2 0,-6.3 -8.6,-17.8 -15.6,-21 -2.6,-1.2 -3.5,-5.4 -0.9,-4.4 1.9,0.7 1.9,0.6 -1,-6 -7.2,-16.3 -10.5,-33.2 -10.5,-54.3 0,-36.6 10.3,-67.5 32.8,-98.1 7.9,-10.6 29,-31.3 40.2,-39.2 19.7,-13.9 44.8,-24.6 66.5,-28.3 20,-3.4 45.7,-1.6 63.5,4.5 36.7,12.6 64.9,40.6 79.5,78.9 1.8,4.7 3.8,11.1 4.5,14.1 0.9,3.8 1.5,4.9 2,3.6 1.5,-4.5 2.8,2.1 3.9,20.9 1.4,24.1 1.4,32.2 0.2,33 -0.5,0.3 -1.2,-0.3 -1.4,-1.2 -0.3,-1 -0.5,-0.3 -0.6,1.5 -0.2,5.3 -3.8,22.1 -6.7,30.8 -1.4,4.3 -4.9,12.9 -7.9,18.9 -20.2,41.7 -59.3,70.3 -109,79.6 -12.6,2.4 -42.2,3.4 -54.5,1.9 z m 52,-75 c 23.8,-5.8 38.5,-19.9 44.7,-43 2.8,-10.3 2.5,-40.5 -0.4,-52.2 -6.2,-24.3 -20.1,-39.9 -39.1,-43.9 -8,-1.6 -20.4,-0.6 -29.9,2.6 -10.7,3.6 -20.1,9.4 -29,17.9 -12.5,11.8 -20,23.8 -24.9,40.3 -2.3,7.5 -2.7,10.7 -2.8,21.8 0,12 0.2,13.7 3,21.5 3.6,10.3 8.8,18.4 15.6,24.5 5.8,5.2 17,10.9 24.3,12.4 7.6,1.6 28.6,0.5 38.5,-1.9 z"
       id="path2" />
    <path
       d="m 999.5,494 c -3.8,-1 -7.3,-1.9 -7.7,-1.9 -0.4,-0.1 -0.7,-1.7 -0.6,-3.6 0.1,-3.1 0.4,-3.5 2.7,-3.5 1.4,0 5.1,0.7 8.1,1.5 4.6,1.2 8.4,1.3 23.5,0.5 9.9,-0.6 21.8,-1.5 26.5,-2 4.7,-0.5 15.4,-1.2 23.8,-1.6 l 15.2,-0.7 v 4.2 c 0,3.6 -0.3,4.1 -2.2,4.1 -1.3,0 -8.4,0.5 -15.8,1 -34.9,2.5 -58.9,4 -62.5,3.9 -2.2,0 -7.1,-0.9 -11,-1.9 z"
       id="path4" />
    <path
       d="m 1093,486.6 c 0,-3.4 0.2,-3.5 4.3,-4 2.3,-0.3 9.2,-0.7 15.2,-1 6.1,-0.3 13.4,-0.8 16.3,-1.2 l 5.2,-0.7 v 3.7 c 0,3.2 -0.3,3.6 -2.6,3.6 -1.4,0 -3.3,0.4 -4.2,0.9 -0.9,0.5 -9,1.2 -17.9,1.5 l -16.3,0.8 z"
       id="path6" />
    <path
       d="m 1246,479.4 c -0.8,-1.6 -1.9,-3.2 -2.5,-3.6 -1.6,-1.2 2.7,-3.7 6.5,-3.8 1.9,-0.1 11.8,-0.6 22,-1.2 10.2,-0.6 21.9,-1.2 26,-1.4 4.1,-0.2 14.2,-0.8 22.4,-1.4 8.2,-0.6 15.1,-0.8 15.5,-0.5 0.3,0.4 -0.2,1.2 -1.2,1.9 -1,0.8 -1.7,2.6 -1.7,4.5 v 3.1 h -7.2 c -4,0 -12.5,0.5 -18.8,1 -6.3,0.5 -18.9,1.4 -28,2 -9.1,0.5 -19.9,1.3 -24,1.6 -7.5,0.6 -7.5,0.6 -9,-2.2 z"
       id="path8" />
    <path
       d="m 1406.1,464.5 c -0.9,-4.1 -1.8,-5.9 -3.2,-6.2 -1,-0.3 -1.9,-1.2 -1.9,-1.9 0,-2.1 20.5,-2.5 28.6,-0.7 3.1,0.7 4.8,0.6 6.5,-0.3 2.8,-1.5 8.3,-1.8 10.7,-0.5 0.9,0.4 6.1,1.1 11.5,1.5 9.4,0.6 9.7,0.6 9.7,-1.5 0,-1.9 0.4,-2 4.3,-1.5 8.4,1 11.7,1.8 11.7,2.7 0,0.5 1.6,0.9 3.5,0.9 2.4,0 3.5,0.5 3.5,1.5 0,0.8 -0.7,1.5 -1.5,1.5 -0.9,0 -1.5,0.9 -1.5,2.4 0,2.4 -0.3,2.5 -7.7,2.7 -4.3,0.1 -17.2,0.1 -28.7,0 -20.1,-0.1 -20.9,-0.1 -22.3,1.9 -1.3,1.8 -2.4,2.1 -8.1,1.9 -3.7,-0.1 -8.3,0.2 -10.3,0.6 l -3.5,0.7 z"
       id="path10" />
    <path
       d="m 1284.8,466.7 c -1,-1 -5.5,-1.5 -17.2,-1.9 -8.7,-0.3 -16.1,-1 -16.5,-1.5 -0.3,-0.6 -3.3,-1.3 -6.5,-1.7 -6.1,-0.7 -8.1,-1.5 -5.8,-2.3 1.7,-0.6 1.5,-2.3 -0.3,-2.3 -0.8,0 -1.5,-0.6 -1.5,-1.3 0,-1.1 5.4,-1.3 28.3,-1.1 15.5,0.1 28.8,0.2 29.5,0.3 0.9,0.1 1.2,1.8 1,6.4 l -0.3,6.2 -4.6,0.3 c -3,0.2 -5.2,-0.2 -6.1,-1.1 z"
       id="path12" />
    <path
       d="m 1313.6,464.1 c -3.3,-0.4 -6.1,-1.2 -6.4,-1.9 -0.2,-0.6 -1.7,-1.2 -3.3,-1.2 -2.6,0 -2.9,-0.3 -2.9,-3.3 v -3.3 l 16.6,-1.2 c 9.2,-0.6 17.1,-0.9 17.5,-0.6 1.5,0.9 1,3.4 -0.6,3.4 -1.9,0 -2.1,5.6 -0.2,6.3 0.6,0.2 1,0.7 0.7,0.9 -0.9,1 -15.4,1.6 -21.4,0.9 z"
       id="path14" />
    <path
       d="m 1017,461.5 c 0,-0.4 1,-1.5 2.3,-2.6 1.9,-1.6 1.9,-1.8 0.5,-1.9 -1.4,0 -2.7,-2.6 -1.5,-3.1 0.1,-0.1 6.1,-0.5 13.2,-0.9 19.5,-1.2 59.1,-3.8 75,-5 7.7,-0.6 20.8,-1.5 29,-2 8.3,-0.5 25.7,-1.6 38.8,-2.5 13.1,-0.9 24.2,-1.3 24.7,-1 0.6,0.4 1,2.1 1,4 0,3.1 -0.3,3.4 -3.7,3.9 -2.1,0.3 -11.2,0.8 -20.3,1.1 -9.1,0.3 -19.6,1 -23.5,1.5 -3.8,0.5 -15.8,1.4 -26.5,2 -10.7,0.6 -25.6,1.5 -33,2 -7.4,0.6 -23.2,1.7 -35,2.5 -11.8,0.8 -25.9,1.7 -31.2,2.1 -5.4,0.3 -9.8,0.3 -9.8,-0.1 z"
       id="path16" />
    <path
       d="m 1239,447 c 0,-3.1 -0.4,-4.9 -1,-4.5 -0.5,0.3 -1,-0.1 -1,-0.9 0,-1.1 1,-1.6 3.3,-1.7 1.7,-0.1 2.4,-0.3 1.5,-0.6 -2.1,-0.5 -2.2,-1.2 -0.8,-4.7 0.8,-2.3 1.5,-2.6 5.5,-2.6 4.3,0 4.5,0.1 4.5,3 0,2.8 0.3,3 3.5,3 3.3,0 3.5,-0.2 3.5,-3.5 0,-3.3 0.2,-3.5 3.5,-3.5 3.4,0 3.5,0.1 3.5,3.6 v 3.7 l 6.3,-0.6 c 3.4,-0.4 12.5,-1 20.2,-1.4 7.7,-0.4 12.8,-0.9 11.3,-1.1 -2.5,-0.3 -2.8,-0.8 -2.8,-3.8 V 428 h 8 8 v 3 3 h 7.8 7.8 l -0.4,-4 c -0.4,-4 -0.4,-4 3.2,-4 3.4,0 3.6,0.1 3.6,3.5 v 3.5 l 7.8,-0.1 c 4.2,0 7.1,-0.3 6.5,-0.6 -0.7,-0.2 -1.3,-2 -1.3,-3.9 0,-3.2 0.2,-3.4 3.5,-3.4 3.2,0 3.5,0.2 3.5,3 0,2.8 0.2,3 4,3 3.9,0 4,-0.1 4,-3.5 V 424 h 5 c 4.9,0 5,0.1 5,3 0,2.5 0.4,3 2.5,3 2.2,0 2.5,-0.4 2.5,-3.5 0,-3.3 0.2,-3.5 3.5,-3.5 3.3,0 3.5,0.2 3.5,3.5 0,3.9 0.5,4.1 10.8,2.9 5.1,-0.7 5.2,-0.7 5.2,-4 0,-3 0.3,-3.4 2.7,-3.4 3.8,0 9.3,2.2 9.3,3.7 0,0.8 1.2,1.3 3,1.3 2.3,0 3,-0.4 3,-2 0,-1.6 0.7,-2 3.5,-2 2.9,0 3.5,0.4 3.5,2.1 0,2.1 0.3,2.2 7.7,1.5 4.2,-0.3 10.6,-0.6 14.2,-0.7 3.6,0 6,-0.3 5.4,-0.6 -0.7,-0.2 -1.3,-1.9 -1.3,-3.7 v -3.3 l 8.7,-0.7 c 7.8,-0.6 8.8,-0.4 10.8,1.4 1.2,1.1 2.7,2 3.3,2 0.7,0 1.2,0.7 1.2,1.5 0,0.9 0.9,1.5 2.5,1.5 2.6,0 3.4,1.5 1.3,2.2 -1,0.4 -1,1 -0.1,3 1.9,4.2 0.6,6.8 -3.3,6.8 -1.9,0 -3.4,-0.4 -3.4,-1 0,-0.5 -1.6,-1 -3.5,-1 -2.3,0 -3.5,0.5 -3.5,1.3 0,1.5 -16.1,3 -32,3.2 -4.1,0 -8.2,0.3 -9,0.7 -0.8,0.3 -6.3,0.9 -12.2,1.2 -8.2,0.4 -10.8,0.3 -10.8,-0.7 0,-0.9 -0.2,-0.9 -0.9,0.1 -1,1.7 -12.1,2.9 -12.1,1.3 0,-1.7 -8.7,-1.4 -9.7,0.3 -0.6,1.2 -5.4,1.7 -21.3,2.6 -11.3,0.6 -24.7,1.4 -29.7,1.7 -6.5,0.4 -9.3,0.2 -9.3,-0.6 0,-0.6 -1.1,-1.1 -2.5,-1.1 -1.4,0 -2.5,0.6 -2.5,1.4 0,0.9 -2.4,1.5 -8.7,2 -4.8,0.3 -8.9,0.3 -9.1,-0.2 -0.1,-0.5 -2.5,-0.5 -5.5,0 -2.9,0.4 -8.7,0.5 -12.9,0.2 -6.8,-0.6 -7.8,-0.4 -7.8,1 0,1.3 -1.2,1.6 -6.5,1.6 -3.7,0 -6.5,-0.4 -6.5,-1 0,-1.5 -3.8,-1.2 -4.7,0.4 -0.5,0.8 -3.7,1.6 -8.5,2.1 l -7.8,0.7 z"
       id="path18" />
    <path
       d="m 1301.5,410 c -6.4,-0.8 -11.9,-2.5 -17.5,-5.3 -4,-2 -4.5,-2.6 -4.8,-5.9 -0.3,-3.7 -0.2,-3.8 3.1,-3.8 1.9,0 4,0.7 4.7,1.5 0.7,0.8 1.9,1.5 2.6,1.5 0.8,0 2.2,0.4 3.2,0.9 0.9,0.5 4.2,1.4 7.2,2.1 3,0.6 6.3,1.4 7.3,1.7 1.4,0.3 1.7,-0.2 1.7,-3.2 0,-3.1 -0.4,-3.7 -2.9,-4.6 -1.7,-0.6 -4.1,-2.6 -5.5,-4.4 -2.1,-2.8 -2.6,-4.5 -2.6,-9.4 0,-3.4 0.4,-6.1 0.9,-6.1 0.5,0 1.1,0.5 1.3,1 0.2,0.7 1.4,0.7 3.6,0.1 l 3.2,-1 v 4.2 c 0,4.8 2.2,8.7 4.9,8.7 0.9,0 2.3,0.6 2.9,1.2 0.9,0.9 1.5,0.9 2,0.3 0.4,-0.6 2.6,-1.9 4.8,-2.9 4.3,-1.9 14.4,-10.7 14.4,-12.6 0,-0.7 1.5,-1 3.8,-0.8 3.5,0.3 3.7,0.5 4,4.1 0.2,2.8 0,3.7 -1.2,3.7 -0.9,0 -1.6,0.4 -1.6,0.8 0,2.1 -8.8,9.3 -13.7,11.4 -3.8,1.6 -5.5,2.9 -6,4.6 -1,4.1 0.9,4.4 7.4,1.3 9.1,-4.4 17.4,-15.6 20.3,-27.3 0.7,-2.8 1.8,-4.8 2.6,-4.8 0.8,0 1.4,0.7 1.4,1.5 0,1 1,1.5 3.1,1.5 h 3.1 l -0.4,5.5 c -0.3,3.7 -1.7,7.9 -4.4,13.1 -7.9,15.6 -16.4,21.7 -29.5,21.3 -3.8,-0.1 -7.2,0.1 -7.6,0.4 -0.8,0.8 -8.9,0.7 -15.8,-0.3 z"
       id="path20" />
    <path
       d="m 1370.3,403.4 c -4.1,-1.8 -5.3,-4.1 -5.3,-10.3 0,-6.3 2.3,-9.1 7.5,-9.1 3.2,0 3.5,0.2 3.5,3.1 0,1.9 -0.8,3.7 -2.1,4.8 -1.7,1.4 -1.9,1.9 -0.8,2.8 1.7,1.3 12.9,2.3 12.9,1.1 0,-0.4 5.1,-0.8 11.4,-0.8 7.4,0 11.7,-0.4 12.2,-1.1 0.4,-0.7 2.4,-0.9 5,-0.6 4.7,0.5 5.4,-0.2 5.4,-5.5 0,-2.5 0.3,-2.9 1.8,-2.3 0.9,0.4 3.2,1.3 5.1,2 1.8,0.7 3.8,2 4.3,2.9 0.7,1.2 2.5,1.6 7.8,1.6 5.6,0 7,0.3 7,1.5 0,0.8 -0.8,1.5 -1.7,1.5 -1.2,0 -0.8,0.6 1.3,1.9 6.2,3.8 5.4,4.3 -6.7,4 -6.3,-0.2 -12.1,0.1 -12.9,0.6 -1.7,1 -33.1,3.4 -44.5,3.4 -4.6,0 -9.4,-0.7 -11.2,-1.5 z"
       id="path22" />
    <path
       d="m 1448.4,320.8 c -5.1,-7.2 -7.9,-21.9 -5,-26.3 0.9,-1.3 2.8,-4.6 4.2,-7.2 4.3,-7.9 7.1,-11 11.8,-13.3 4.4,-2.1 9.6,-7.1 9.6,-9.1 0,-0.6 1.7,-0.9 3.8,-0.7 l 3.7,0.3 0.3,5.2 c 0.4,6.7 -0.6,8.5 -7.3,12.8 -5.7,3.6 -10,8.8 -14.1,16.7 -2.7,5.4 -2.9,8.2 -0.9,11.8 2.2,3.8 1.9,8 -0.5,8 -1.1,0 -2,0.7 -2,1.5 0,1.8 -2.4,2 -3.6,0.3 z"
       id="path24" />
    <path
       d="m 1405.3,317 c -1.9,-0.8 -2.3,-1.7 -2.3,-5 0,-3.3 0.3,-4 2,-4 1.9,0 2,-0.5 1.3,-14.8 -0.3,-8.2 -0.3,-16 0,-17.3 0.4,-1.5 1.8,-2.9 3.6,-3.6 1.9,-0.7 3.2,-2 3.7,-3.7 0.5,-2.2 1.2,-2.6 4,-2.6 2.7,0 3.7,0.5 4.5,2.4 1.9,4 0.3,10.9 -3.2,14.2 l -3.1,2.9 0.7,13 c 0.4,7.2 0.3,14 -0.2,15.1 -0.8,2 -1.1,2.1 -5.5,0.9 -5.2,-1.3 -6.3,-1 -2.3,0.5 1.4,0.5 2.5,1.4 2.5,2 0,1.2 -2.7,1.2 -5.7,0 z"
       id="path26" />
    <path
       d="m 1637,308.8 c 0,-4.6 -0.7,-17.3 -1.5,-28.3 -0.8,-11 -1.5,-22.6 -1.5,-25.8 v -5.8 l 3.8,0.3 c 3.4,0.3 3.8,0.7 5.2,4.6 1.2,3.6 1.8,4.2 4.3,4.2 4.2,0 8.7,4.9 8.7,9.4 0,3.3 -0.2,3.6 -3,3.6 -1.8,0 -3.9,-1 -5.7,-2.7 l -2.7,-2.8 -0.6,2.5 c -0.3,1.4 -0.1,5.9 0.6,10 0.6,4.1 1.4,13.9 1.8,21.8 l 0.7,14.2 h -3.6 c -2.4,0 -3.5,0.4 -3.5,1.5 0,0.8 -0.7,1.5 -1.5,1.5 -1.2,0 -1.5,-1.6 -1.5,-8.2 z"
       id="path28" />
    <path
       d="m 1123.6,310.8 c -0.3,-2.9 -0.6,-7.6 -0.6,-10.3 0,-4.6 0.4,-5.4 4,-8.9 2.2,-2.1 4,-4.4 4,-5.2 0,-1.1 1,-1.4 3.8,-1.2 l 3.7,0.3 0.3,6.1 c 0.3,5.5 0,6.3 -2.8,9.2 -2.4,2.6 -3,4 -3,7.6 0,4.2 -0.1,4.4 -3.5,5 -1.9,0.4 -3.5,1.1 -3.5,1.6 0,0.6 -0.4,1 -0.9,1 -0.4,0 -1.1,-2.4 -1.5,-5.2 z"
       id="path30" />
    <path
       d="m 1222.5,308.3 c -2.7,-11.2 -2.7,-11.3 -8.5,-11.3 h -5 v -3.5 c 0,-3.4 0.1,-3.5 3.9,-3.5 h 3.9 l -0.5,-6 -0.6,-6 h 4.1 c 4.1,0 4.1,0 5.6,5.3 0.9,2.8 2.9,9.7 4.6,15.2 1.6,5.4 3,10.4 3,11.1 0,0.6 -1.4,1.7 -3.1,2.4 -1.8,0.8 -2.8,1.8 -2.5,2.6 0.3,0.9 -0.2,1.4 -1.2,1.4 -1.4,0 -2.2,-1.7 -3.7,-7.7 z"
       id="path32" />
    <path
       d="m 979.5,286.1 c -0.9,-16.8 -0.2,-22.3 3.7,-26.7 2.1,-2.4 3.9,-3.4 5.9,-3.4 1.6,0 2.9,0.5 2.9,1 0,0.6 -0.4,1 -0.9,1 -0.5,0 -1.1,1.5 -1.4,3.3 -0.2,1.7 -1.2,7.9 -2.1,13.7 -1,5.8 -2.2,13.5 -2.8,17.3 -0.8,5.4 -1.3,6.7 -2.8,6.7 -1.6,0 -1.9,-1.4 -2.5,-12.9 z"
       id="path34" />
    <path
       d="m 1083,266.5 c 0,-2.4 -0.5,-3.5 -1.5,-3.5 -0.8,0 -1.5,-0.7 -1.5,-1.5 0,-1.1 1.1,-1.5 3.8,-1.5 7.6,0 29.2,-2.4 29.2,-3.3 0,-0.5 -2.8,-0.6 -6.2,-0.3 -3.5,0.3 -9.9,0.8 -14.3,1.1 l -8.1,0.6 0.4,-4.2 c 0.4,-3.6 0.2,-4.1 -1.2,-3.6 -1.1,0.5 -1.6,0.1 -1.6,-1.4 0,-1.8 0.6,-2 5.8,-1.9 3.1,0.1 11.8,-0.3 19.2,-0.9 46,-3.8 46,-3.8 46,-1.7 0,0.8 -0.6,1.6 -1.4,1.9 -1.6,0.6 -2.7,5.2 -1.4,6.5 0.5,0.5 -4.9,1.2 -13.3,1.6 -7.9,0.4 -15,1.1 -15.8,1.7 -1.1,0.7 -0.3,0.8 2.9,0.5 2.5,-0.3 11.9,-0.8 21,-1.1 9.1,-0.3 22.1,-1 29,-1.5 6.9,-0.5 24,-1.7 38,-2.6 14,-0.9 25.7,-1.8 25.9,-2 0.2,-0.2 -0.8,-0.4 -2.2,-0.4 -3.5,0 -3.4,-0.7 1,-5.2 2.7,-2.8 3.3,-3.8 2,-3.8 -0.9,0 -1.7,-0.6 -1.7,-1.4 0,-1.2 2.3,-1.6 11.3,-1.9 19.1,-0.7 47.9,-2.6 54.9,-3.7 9.1,-1.4 10.8,-1.3 10.8,0.6 0,0.8 -0.4,1.3 -0.9,1 -0.4,-0.3 -1.4,1.2 -2.1,3.4 -0.7,2.1 -1.9,4.1 -2.5,4.4 -1.8,0.7 -21.3,2.4 -46.4,4.1 -11.8,0.8 -21.6,1.7 -21.9,2 -1.3,1.2 30.5,-0.2 56.2,-2.5 9,-0.8 12.2,-0.8 13,0.1 0.8,0.8 0.8,1.3 -0.1,1.6 -0.7,0.2 -2.2,2.1 -3.4,4.2 l -2.1,3.7 -17.6,1.3 c -9.7,0.6 -24.4,1.6 -32.7,2.1 -8.2,0.5 -24.9,1.6 -37,2.5 -21.9,1.5 -43.5,2.8 -74,4.5 -8.8,0.5 -24.5,1.6 -35,2.4 -26.3,2.2 -24.5,2.3 -24.5,-1.9 z"
       id="path36" />
    <path
       d="m 1339.9,250.3 c -1.3,-2.1 -2.8,-4.1 -3.3,-4.5 -0.6,-0.4 -0.8,-0.9 -0.5,-1.2 0.7,-0.7 33.8,-3.6 41.3,-3.6 4.5,0 5.7,-0.3 4.8,-1.2 -0.8,-0.8 -5.3,-0.8 -18.4,0.1 -9.5,0.6 -19.8,1.1 -22.8,1.1 -5.5,0 -5.6,-0.1 -6.9,-3.5 -0.7,-1.9 -1.7,-3.3 -2.2,-3 -0.5,0.4 -0.9,-0.1 -0.9,-0.9 0,-1.2 1,-1.6 4,-1.6 2.1,0 4.9,-0.4 6.2,-1 1.3,-0.5 12.2,-1.4 24.3,-2 12.1,-0.6 25,-1.4 28.8,-1.6 5.7,-0.5 6.7,-0.3 6.7,1 0,0.9 -0.7,1.6 -1.5,1.6 -1.2,0 -1.1,0.6 0.5,3.3 1.1,1.7 2.3,4 2.6,5 0.4,0.9 1,1.7 1.3,1.7 0.4,0 2.3,1.9 4.1,4.1 l 3.3,4.2 -4.6,-0.5 c -2.5,-0.3 -5,-0.1 -5.6,0.5 -0.9,0.9 -7.7,1.5 -40.1,3.7 -8.5,0.6 -16.2,1.3 -17.1,1.6 -1.2,0.3 -2.4,-0.7 -4,-3.3 z"
       id="path38" />
    <path
       d="m 1482.5,241.8 c 1.1,-1.3 2.5,-2.7 3,-3.1 0.6,-0.6 0.6,-1 -0.2,-1.4 -0.7,-0.2 -1.3,-1.1 -1.3,-1.8 0,-1.4 0.1,-1.4 36.8,-4.2 12.7,-0.9 23.2,-2.1 23.2,-2.5 0,-1.1 -9.4,-0.9 -21.5,0.3 -5.5,0.6 -14.4,1.2 -19.7,1.4 l -9.8,0.4 2.5,-3.9 c 2,-3.1 2.2,-4 1,-4 -0.8,0 -1.5,-0.6 -1.5,-1.4 0,-1.6 3.7,-2 46.7,-4.3 17.8,-0.9 32.6,-1.3 33,-0.9 0.4,0.4 0.2,1.1 -0.5,1.5 -2.2,1.3 -4.1,5.8 -3,6.9 0.6,0.6 -2.5,1.2 -9.1,1.7 -5.6,0.4 -10.4,1.2 -10.7,1.7 -0.4,0.7 2,0.8 7.2,0.4 5.2,-0.4 8.4,-0.3 9.4,0.4 1.1,0.9 1.2,1.3 0.3,1.7 -0.7,0.2 -1.3,1 -1.3,1.6 -0.1,0.7 -1.1,2.4 -2.3,3.9 l -2.2,2.7 -26.4,1.6 c -14.5,0.9 -27.6,1.5 -29,1.2 -1.4,-0.3 -3.4,-0.2 -4.5,0.3 -1.2,0.4 -6.6,1 -12.1,1.4 l -9.9,0.8 z"
       id="path40" />
    <path
       d="m 1614,232.1 c 0,-2.1 -0.5,-3.1 -1.6,-3.1 -0.9,0 -1.4,-0.7 -1.2,-1.7 0.4,-2 2.1,-2.2 33.8,-4.3 20.7,-1.3 35,-1.3 35,0 0,0.6 -0.4,1 -1,1 -0.5,0 -1.4,1.7 -2.1,3.8 l -1.1,3.9 -22.2,1.2 c -12.1,0.6 -26,1.5 -30.8,1.8 l -8.8,0.6 z"
       id="path42" />
    <path
       d="m 1615.8,219.5 c 0.3,-2.7 0.1,-3.5 -1.2,-3.5 -0.9,0 -1.6,-0.6 -1.6,-1.4 0,-1.7 3.5,-2.2 26.5,-3.6 31.5,-2 42.5,-2.3 42.5,-1.3 0,0.6 -0.6,1.3 -1.4,1.6 -1.6,0.7 -2.8,6 -1.4,6.8 1.1,0.7 -6.8,1.4 -37.2,3.4 -29.6,1.9 -26.7,2.2 -26.2,-2 z"
       id="path44" />
  </g>
  <g
     fill="#019389"
     id="g70"
     transform="translate(-0.59963452,-1.1551382)">
    <path
       d="m 1456.3,717.2 c -7.4,-2.7 -10.4,-4.8 -35.9,-26.3 -12.6,-10.7 -37.3,-31.5 -54.9,-46.3 l -32,-26.9 -0.5,32.9 c -0.6,35.4 -0.9,37.1 -6.6,47.1 -11.1,19.3 -42.9,22.1 -61.6,5.4 -6.1,-5.5 -12.1,-17.3 -13.8,-27.1 -2,-12 -1.1,-18 4.5,-30 l 5,-10.5 0.3,-27 c 0.2,-24.2 0.1,-26.8 -1.3,-25.1 -2.5,3.2 -2.8,1.1 -1.5,-9 1.6,-11.8 0.8,-27 -2.1,-40.9 -3.1,-14.8 -3.2,-15.3 -2.4,-17.2 0.7,-1.7 0.8,-1.6 1.6,0.2 2.9,6.4 -3.9,-24.4 -7.2,-32.7 -1,-2.7 -1.5,-4.8 -1.1,-4.9 0.4,0 2.5,-0.1 4.7,-0.3 2.2,-0.2 9,-0.7 15,-1 6.1,-0.4 13.5,-0.9 16.5,-1.1 7.4,-0.6 36,-2.4 43.8,-2.8 l 6.2,-0.3 v 17.6 17.5 l 7.8,-0.3 c 4.2,-0.1 11.3,-0.7 15.7,-1.3 29.9,-3.8 50.5,-18 50.5,-34.8 0,-2.9 0.5,-5.3 1.3,-5.8 0.6,-0.4 4.7,-0.8 9,-0.8 6.5,0 8.1,-0.3 9.2,-1.8 1.2,-1.6 3,-1.9 13.4,-2.1 6.6,-0.1 11.8,0.1 11.6,0.4 -0.9,1.4 19.3,0.4 20.9,-1 1.4,-1.1 2.9,-1.1 8.6,-0.1 3.9,0.7 7,1.4 7,1.6 0,0.1 -0.7,4 -1.6,8.6 -2.2,11.7 -6.3,21.8 -13.3,32.6 -13,20.1 -33.2,37.1 -66.9,56.2 -5.1,2.9 -9.2,5.4 -9,5.6 0.2,0.1 10.2,8.5 22.3,18.5 52.5,43.7 79,66.8 82.3,71.9 4.4,6.8 6.8,12.7 8.2,19.9 3,15.1 -6.5,30.9 -23.7,39.4 -5.7,2.8 -7.8,3.3 -15.7,3.5 -6.9,0.3 -10.3,-0.1 -14.3,-1.5 z"
       id="path48" />
    <path
       d="m 1236,450.5 c 0,-0.8 0.7,-1.5 1.5,-1.5 0.8,0 1.5,-0.6 1.5,-1.4 0,-0.7 1.3,-1.6 2.8,-1.8 3.5,-0.5 5.4,0 4.6,1.3 -0.3,0.5 0.9,0.9 2.6,0.9 1.7,0 2.9,-0.4 2.5,-0.9 -0.7,-1.3 1.7,-1.9 10.5,-2.6 15.9,-1.3 21.5,-1.4 22.6,-0.4 0.7,0.6 4.1,0.4 9.5,-0.6 4.6,-0.9 12,-1.8 16.4,-2.1 4.4,-0.3 8.6,-0.7 9.3,-0.9 2,-0.7 6.3,0.6 5.6,1.6 -0.3,0.5 1.8,0.9 4.6,0.9 2.8,0 4.9,-0.4 4.6,-0.9 -1,-1.6 4.7,-3 14.9,-3.6 5.5,-0.3 11.6,-0.5 13.5,-0.4 1.9,0.1 4.3,0.2 5.2,0.2 0.9,0.1 1.4,0.5 1.2,0.9 -0.3,0.4 0.4,0.8 1.6,0.8 1.3,0 2,0.5 1.8,1.3 -0.3,0.7 -3.4,1.4 -8.4,1.9 -11.1,0.9 -44.7,3.1 -51.9,3.3 -3.3,0.1 -6.7,0.5 -7.5,0.8 -1.7,0.6 -17.2,1.5 -39.5,2.3 -8.2,0.3 -16.6,1 -18.5,1.5 -5.6,1.4 -11,1.2 -11,-0.6 z"
       id="path50" />
    <path
       d="m 1374,441.1 c 0,-0.6 1,-1.1 2.1,-1.1 1.2,0 2.7,-0.7 3.3,-1.4 1.2,-1.7 10.2,-2.7 26.6,-3.1 5.8,-0.1 11.8,-0.7 13.3,-1.4 3.2,-1.3 27.6,-1.8 32.5,-0.7 1.7,0.4 3.2,1.4 3.2,2.1 0,1.8 -3.3,2.3 -20.5,2.9 -7.7,0.3 -16.7,1 -20,1.5 -9.7,1.5 -40.5,2.4 -40.5,1.2 z"
       id="path52" />
    <path
       d="m 1239.1,437.4 c 0.9,-1.1 2.5,-4.6 3.5,-7.8 2.4,-7.9 9.6,-18.7 13.7,-20.6 1.9,-0.9 3.3,-2.4 3.5,-3.7 0.2,-1.2 3.4,-4.9 7.3,-8.4 3.8,-3.3 6.9,-6.7 6.9,-7.5 0,-2.8 3.7,-1.3 8,3.2 6.4,6.6 20.5,12.4 27,11.1 2.3,-0.5 3.2,-0.2 4,1.2 0.9,1.8 0.6,1.9 -3.3,1.5 -2.3,-0.3 -7,-1.2 -10.4,-2 -3.5,-0.9 -6.9,-1.4 -7.5,-1.1 -2.3,0.7 9.5,3.5 16.2,3.9 l 6.5,0.3 0.3,-4.5 c 0.2,-3 -0.2,-5.2 -1.3,-6.5 -1.6,-2 -1.6,-2 -1,0.2 1.1,4 -0.7,4.9 -2.4,1.2 -1,-2.1 -2.5,-3.5 -3.8,-3.7 -2.8,-0.4 -5.3,-3.8 -5.3,-7.2 0.1,-2.5 0.1,-2.5 3.1,1 1.7,1.9 2.4,2.4 1.5,1 -2.3,-3.5 -2.2,-12.7 0.2,-13.4 5.8,-1.7 16.1,-3.6 25.7,-4.7 6.1,-0.6 11.3,-1.7 11.7,-2.3 0.9,-1.3 1,4.5 0.2,9.7 -0.4,2 -1.1,3.7 -1.6,3.7 -0.6,0 -2.9,1.9 -5.2,4.1 -2.2,2.3 -6.6,5.4 -9.6,6.8 -4.8,2.3 -5.5,3 -5.8,5.9 -0.3,2.7 0.1,3.4 2.3,4.2 1.5,0.6 3.1,0.7 3.7,0.4 0.7,-0.4 0.8,-0.2 0.4,0.4 -0.4,0.7 -2.4,1.2 -4.4,1.2 -2.8,0 -3.3,0.3 -2.2,1 4.8,3.1 16.3,-1.1 22.5,-8.2 5.1,-5.8 11.5,-18.2 12.2,-23.7 0.5,-3.9 0.8,-4.2 3.2,-3.7 1.4,0.3 5.7,0.8 9.5,1.2 5.3,0.5 7,0.3 7.7,-0.7 1.7,-2.7 2.9,1.3 2.9,9.8 v 8.3 l -3.6,1.5 c -4.5,1.8 -4.2,4.3 0.6,6.7 1.9,0.9 3.1,1.8 2.5,1.9 -2.6,0.4 -7.1,-0.4 -8.4,-1.4 -1.2,-0.9 -1.3,-0.9 -0.7,0.1 1.9,3.1 7.9,4.4 18.1,3.8 5.5,-0.3 14.3,-0.8 19.5,-1.1 13.1,-0.8 15.4,-1.3 18.3,-3.6 2.4,-1.8 2.8,-1.9 6.3,-0.4 2,0.8 6.3,1.5 9.6,1.5 5.7,0 6.4,0.3 15.1,6.3 5.1,3.4 11.7,8.6 14.6,11.5 3,2.8 5.9,5.2 6.3,5.2 0.4,0 0.8,0.6 0.8,1.3 0,1.1 -3.2,1.6 -13.2,2.1 -14.5,0.8 -33.6,3.9 -30.3,4.9 1.1,0.3 0.1,0.5 -2.2,0.4 -2.3,-0.1 -4.4,0.1 -4.7,0.3 -0.2,0.3 -7.3,0.1 -15.8,-0.3 -10,-0.6 -20.1,-0.5 -29.1,0.2 -7.6,0.6 -14.2,0.9 -14.7,0.6 -0.5,-0.3 -3.7,-0.1 -7.2,0.5 -3.5,0.5 -15.7,1.4 -27.3,2 -11.5,0.5 -29.5,1.7 -40,2.5 -10.4,0.8 -23.7,1.7 -29.5,2 -5.8,0.3 -14.1,0.8 -18.5,1.1 -7.7,0.6 -7.9,0.6 -6.4,-1.2 z"
       id="path54" />
    <path
       d="m 1453,317.6 c 0,-0.8 -0.7,-2.2 -1.6,-3 -0.8,-0.9 -1.3,-1.6 -1.1,-1.6 0.3,0 -0.1,-2.5 -0.8,-5.5 -0.7,-3 -0.9,-5.5 -0.4,-5.5 0.7,0 2.4,-4.1 2,-4.9 -0.2,-0.2 0.1,-0.7 0.6,-1 1.3,-0.9 6.4,-9.1 5.7,-9.1 -0.3,0 1.4,-1.6 3.8,-3.6 2.3,-2 4.5,-3.9 4.8,-4.3 0.3,-0.3 1.2,-0.7 2,-0.9 2.6,-0.5 5.9,-5 5.6,-7.7 -0.4,-3.4 -1.3,-4.1 -2.1,-1.6 -0.9,3.1 -2.5,1.5 -2.5,-2.5 0,-3.2 0.2,-3.4 3.5,-3.4 4,0 5.5,2 5.5,7.5 0,5.2 -2.3,8.9 -7.3,11.8 -5.5,3.3 -9.5,7.8 -14.1,16 -3.5,6.2 -3.6,6.5 -2.4,11.5 0.7,2.9 1.6,5.2 2,5.2 0.5,0 0.8,0.9 0.8,2 0,1.3 -0.7,2 -2,2 -1.1,0 -2,-0.6 -2,-1.4 z"
       id="path56" />
    <path
       d="m 1642.4,286.8 c -1.2,-5.5 -1.4,-7.9 -1.7,-19.3 -0.1,-6.6 -0.7,-11.9 -1.5,-13.2 -1.4,-2.6 -2.4,-3.1 -1.6,-0.9 0.3,0.8 0.1,2.3 -0.5,3.3 -0.9,1.5 -1,1.2 -1.1,-1.9 0,-3.7 0.1,-3.8 3.5,-3.8 3,0 3.5,0.4 4.1,2.8 1,4.8 1.3,5.2 3.5,5.2 1.1,0 3.4,0.9 5,2.1 2.2,1.6 2.9,2.8 2.9,5.5 0,3.2 -0.2,3.4 -3.2,3.4 -1.7,0 -4,-0.8 -5.1,-1.7 -2,-1.8 -2,-1.7 -1.3,10 0.6,10 0.5,11.7 -0.7,11.7 -0.9,0 -1.9,-1.4 -2.3,-3.2 z"
       id="path58" />
    <path
       d="m 1086.9,258.3 c -1.9,-0.3 -2.6,-0.9 -2.2,-2.1 0.4,-1.7 2.2,-2 15.3,-2.7 2.5,-0.1 4.5,-0.3 4.5,-0.4 0,-0.1 3.8,-0.4 8.5,-0.6 15.6,-0.9 18.5,-1.1 19.5,-1.4 0.6,-0.2 2.2,-0.3 3.8,-0.2 1.9,0.1 2.7,0.6 2.7,1.9 0,1.6 -1.5,2 -10.7,3.3 -6,0.7 -13.6,1.3 -17,1.2 -3.5,-0.1 -6.3,0.3 -6.3,0.8 0,0.9 -12.7,1 -18.1,0.2 z"
       id="path60" />
    <path
       d="m 1341.7,253.3 c -2.8,-2.8 2.3,-4 19.3,-4.8 4.1,-0.1 10.9,-0.6 15,-0.9 4.1,-0.4 9.5,-0.7 12,-0.7 5.6,0.1 10.6,-1.3 10.3,-2.8 -0.2,-0.6 0.1,-1.1 0.7,-1.1 0.6,0 1,-0.9 1,-2 0,-3 -4,-2.7 -4.1,0.3 -0.1,1.6 -0.2,1.8 -0.6,0.5 -0.4,-1.6 -1.8,-1.8 -11.4,-1.8 -6.1,0 -12.9,0.4 -15.2,1 -5.8,1.3 -35.7,1.9 -35.7,0.7 0,-0.5 0.6,-0.7 1.4,-0.4 1,0.4 1.2,0 0.9,-1.4 -0.5,-1.7 0,-1.9 3.8,-1.9 7.5,-0.1 25.3,-1.1 26.9,-1.6 0.8,-0.3 5.3,-0.7 10,-0.9 4.7,-0.3 12,-0.6 16.3,-0.8 7.8,-0.4 7.8,-0.4 10.3,2.8 3,4 3,6.5 0.1,9.7 -2.1,2.3 -3.5,2.6 -11.8,3.2 -18.6,1.3 -36.5,2.6 -42.5,3.1 -3.3,0.3 -6.4,0.2 -6.7,-0.2 z"
       id="path62" />
    <path
       d="m 1231,248.7 c 0,-0.8 0.9,-1.7 2,-2 1.1,-0.3 2.1,-0.6 2.3,-0.7 1,-0.8 10.6,-2.2 16.7,-2.4 19.3,-0.8 35.5,-2 35.5,-2.6 0,-0.2 8,-0.7 15.7,-1 1,-0.1 2,-0.5 2.3,-1 0.9,-1.4 4.5,0.2 4.5,2 0,1.2 -1.2,2.2 -3.2,2.8 -4.3,1.4 -22.5,3.1 -44.6,4.4 -9.8,0.5 -20.7,1.2 -24.4,1.5 -5.5,0.4 -6.8,0.2 -6.8,-1 z"
       id="path64" />
    <path
       d="m 1494.1,229.7 c 2.8,-2.6 10.6,-4.4 12.2,-2.8 0.5,0.5 2.9,0.4 6.2,-0.4 2.9,-0.6 6.7,-1 8.4,-0.7 1.7,0.2 3.9,0.1 4.8,-0.3 1,-0.4 6.5,-0.7 12.3,-0.7 5.8,0 10.9,-0.2 11.3,-0.5 0.8,-0.5 11.4,-1.4 16.2,-1.4 3,0 7.5,1.9 7.5,3.1 0,1.3 -16.7,2.9 -40.5,4 -13.2,0.6 -27.8,1.3 -32.5,1.6 l -8.5,0.5 z"
       id="path66" />
    <path
       d="m 1614.7,224.4 c -1,-1.8 1.9,-4.1 5.8,-4.7 5,-0.8 17.8,-1.6 27,-1.7 3.9,-0.1 7.7,-0.4 8.5,-0.7 0.8,-0.3 3.1,-0.5 5,-0.4 1.9,0 6.2,-0.3 9.5,-0.8 5.2,-0.8 6.2,-0.6 7.8,1 2.8,3 2,3.9 -3.5,4 -8.1,0.2 -18,0.8 -32.3,1.9 -7.1,0.6 -16.2,1.4 -20.1,1.7 -3.9,0.3 -7.4,0.2 -7.7,-0.3 z"
       id="path68" />
  </g>
  <g
     fill="#d61932"
     id="g114"
     transform="translate(-0.59963452,-1.1551382)">
    <path
       d="m 395,714.9 c -33.1,-3.8 -56,-14 -74.7,-33.1 -26.7,-27.5 -38.2,-63.8 -34.4,-109.3 4.1,-49.5 24.9,-97.6 62.5,-144.4 11.5,-14.3 33.3,-36.7 45,-46.1 21.7,-17.5 43.5,-25 72.5,-25 39.4,0 72.3,15.5 84.2,39.5 2.5,5.1 3.2,8 3.6,14.7 0.6,9.8 -1.6,25.9 -4.7,34.1 -2.9,7.8 -9.6,14.9 -17.8,18.9 -12.5,6.2 -29,4.9 -40.7,-3.2 -6.4,-4.4 -10.5,-9.3 -14.4,-17.1 -6.7,-13.1 -11.9,-14.4 -27.4,-6.6 -11.6,5.8 -24.4,15.5 -36.7,27.7 -27.6,27.4 -46.7,60.8 -53.7,94 -2.4,11.6 -2.4,34.9 0,44 6,22.3 20.8,36 45.2,41.7 12.9,2.9 48,2.5 73.9,-1 10.9,-1.5 23.9,-2.7 29,-2.7 21.4,0.1 36.4,6.9 42.2,19.5 3.3,6.9 3.3,18.4 0,27.6 -4,11.5 -12.1,21.3 -21.1,25.5 l -5,2.4 -60,-0.1 c -33,-0.1 -63.4,-0.5 -67.5,-1 z"
       id="path72" />
    <path
       d="m 998.7,495.1 c -8,-2.1 -9.3,-3.1 -7.8,-5.9 0.8,-1.5 0.6,-2.3 -0.8,-3.6 -0.9,-0.9 -2.2,-1.6 -2.8,-1.6 -0.6,0 -1.3,-0.7 -1.7,-1.5 -0.4,-1.2 0.6,-1.5 6.1,-1.5 3.6,0 6.3,-0.3 6,-0.7 -0.4,-0.3 -4.3,-0.5 -8.7,-0.5 -7.9,0.2 -8.2,0.1 -11.2,-3 -6,-6.5 -10.8,-21.1 -10.8,-33.3 -0.1,-4.4 -0.5,-9.9 -0.9,-12.2 -0.7,-3.4 -0.5,-4.3 0.5,-4.3 1.8,0 1.8,-3 0,-4.4 -1.7,-1.4 -3.1,-20.2 -1.5,-21.1 0.6,-0.4 0.6,-1.1 0.1,-1.8 -1.1,-1.4 -3.2,-14.1 -3.2,-19 0,-3.2 0.3,-3.6 3.8,-4.4 l 3.7,-0.9 -3.7,-0.8 c -5,-0.9 -5.3,-4.1 -0.5,-5.5 3,-0.9 3,-0.9 0.6,-1 -3.9,-0.1 -5.1,-2.2 -4.8,-8.8 0.1,-3.2 -0.1,-7.7 -0.6,-10 -0.7,-3.8 -0.5,-4.3 1,-4.3 1.7,0 1.7,-0.1 0.2,-1.8 -1.8,-1.9 -4.1,-21.6 -3.1,-25.8 0.5,-1.8 0.1,-2.6 -1.9,-3.5 -3,-1.4 -3.5,-4.5 -4.3,-30.7 -0.8,-25.4 1.1,-33.4 8.4,-34.6 2.8,-0.4 4.2,-1.2 5,-3 0.6,-1.4 3,-3.8 5.3,-5.3 2.3,-1.5 5.4,-3.6 6.8,-4.5 4.2,-2.8 7.4,-4.1 10.8,-4.2 1.8,0 3.3,-0.4 3.3,-0.8 0,-1.2 8.3,-0.9 11.8,0.3 2.4,0.8 4.2,0.7 7.9,-0.4 6.9,-2.2 16.8,-3.5 32.8,-4.2 7.7,-0.4 16.4,-0.8 19.3,-1.1 3.1,-0.2 7,0.2 9.5,1.1 2.3,0.8 6.7,1.5 9.8,1.5 h 5.6 l 1.3,-3.9 c 1.5,-4.7 0.7,-4.5 28.5,-6.1 9.4,-0.6 21.3,-1.3 26.7,-1.7 9,-0.6 9.6,-0.5 9.5,1.3 -0.1,1 0.3,1.8 1,1.7 0.6,-0.1 6.2,-0.5 12.5,-0.8 6.2,-0.3 13.3,-0.7 15.8,-1 2.5,-0.3 17.1,-1.2 32.4,-2.1 15.4,-0.8 28.3,-1.7 28.7,-2 0.5,-0.2 0.6,-1.1 0.3,-1.9 -0.7,-1.8 1.5,-2.3 13.1,-2.9 33.7,-1.8 48.3,-2.7 50.6,-3.1 2.1,-0.5 2.8,-0.2 3.2,1.4 0.4,1.9 1.3,2.1 7.1,2.1 6.5,0 7.1,-0.3 6.7,-3.7 -0.1,-0.8 1.1,-1.3 3.2,-1.3 3.3,0 43.6,-2.6 53.5,-3.4 4.1,-0.4 5.2,-0.1 5.2,1 0,2.5 4.2,3.2 14,2.2 5.2,-0.6 13.1,-1.2 17.5,-1.4 10.2,-0.5 36.8,-2.1 46.5,-2.9 4.1,-0.4 12.5,-0.8 18.5,-1.1 19.8,-0.7 26.5,-1.7 28.4,-4 2.3,-2.9 6.9,-3.3 39.9,-3.9 26.8,-0.5 27.2,-0.5 27.2,1.5 0,1.2 1,2.4 2.4,3 3.3,1.2 6.2,0.6 5.8,-1.3 -0.3,-2 2.4,-2.8 9.5,-2.7 3.2,0.1 9.6,-0.3 14.2,-0.8 7.7,-0.9 9.4,-1.7 10.4,-4.6 0.1,-0.4 7,-1.2 15.2,-1.7 8.3,-0.5 22,-1.3 30.5,-1.9 8.5,-0.5 16,-1 16.7,-1 0.6,0 0.9,0.9 0.6,2.1 -0.5,1.8 -0.3,2 1.6,1.4 1.1,-0.3 7.8,-0.7 14.9,-0.7 18,0 25,2.5 36.3,13.4 5.1,4.8 7.1,7.7 8.9,12.3 3.3,8.6 5.1,29.5 3,33.6 -0.7,1.3 -0.6,2 0.3,2.6 0.8,0.4 1.7,2.9 2,5.5 0.6,4 0.3,5.1 -1.4,6.7 -2,1.8 -2,1.9 -0.1,2.3 1.8,0.5 2.1,1.8 2.6,12.4 0.4,6.6 1.1,17.4 1.6,24.2 0.6,6.7 1,15.1 1,18.5 0,6.3 0,6.4 -2.7,6 -1.6,-0.2 -3.5,0.1 -4.3,0.7 -1.3,0.9 -1.3,1.1 0,2 0.8,0.5 2.9,0.7 4.6,0.4 l 3.1,-0.6 0.3,6.4 c 0.6,12.4 0.8,15.4 1.4,23.3 0.4,4.4 0.9,11.2 1.1,15 0.3,3.9 1,12.9 1.5,20 1.1,14.2 0.8,17.8 -2.1,27.3 -5.2,17.3 -20,27.7 -41,28.6 -4.6,0.2 -14.7,0.9 -22.4,1.5 -7.7,0.6 -18.7,1.3 -24.5,1.5 -5.8,0.2 -11.2,0.6 -12,0.9 -0.8,0.3 -11.2,1 -23,1.7 -11.8,0.6 -23.3,1.3 -25.5,1.5 -9.6,0.8 -22.7,1.4 -31.5,1.6 -5.2,0.2 -10,0.6 -10.5,1 -0.6,0.4 -6.6,1 -13.5,1.3 -32.6,1.3 -40.7,1.8 -43.3,2.6 -2.1,0.7 -2.9,0.6 -3.4,-0.6 -0.5,-1.3 -0.7,-1.3 -1.7,0 -1.5,1.8 -25.6,3.4 -25.6,1.6 0,-0.6 -0.4,-0.9 -1,-0.5 -0.5,0.3 -2.6,-0.1 -4.6,-1 -4.5,-1.9 -4.3,-1.9 -3.7,0.6 0.6,2 0.4,2 -12.6,1.5 -7.2,-0.3 -14,-1 -15.1,-1.6 -1.5,-0.8 -2.9,-0.7 -5.5,0.6 -3,1.4 -4.5,1.5 -9.3,0.6 -9.6,-1.8 -9.7,-1.8 -9.7,-0.2 0,0.9 1.2,1.7 2.9,2 5.7,1 3,2.5 -5.6,3.2 -4.8,0.3 -9.2,0.9 -9.8,1.3 -0.5,0.3 -1,-0.1 -1,-0.9 0,-1 1.3,-1.7 3.8,-2.1 4.9,-0.8 8.2,-2.2 8.2,-3.5 0,-0.6 -7.1,-1.1 -19.7,-1.2 -19.2,-0.1 -22.7,-0.2 -24.8,-0.8 -4.1,-1 -50.9,-1.1 -62.5,-0.1 -5.2,0.4 -7.6,0.9 -5.3,0.9 2.3,0.1 4.3,0.7 4.5,1.4 0.3,0.7 3.1,1.4 6.4,1.7 6.2,0.6 38.2,0.5 66.6,-0.2 16.3,-0.4 21.2,0.3 21,2.8 0,1.4 -6.8,2.5 -18.2,3 -25.5,1 -49,2.6 -53.5,3.5 -7.5,1.4 -23.6,2.5 -54.5,3.6 -8.5,0.4 -15.9,1 -16.5,1.4 -0.5,0.5 -3.4,0.6 -6.3,0.4 -3.3,-0.3 -5.9,-0.1 -6.8,0.7 -0.7,0.6 -2.1,0.8 -3.1,0.5 -2.2,-0.9 -21.3,0.5 -21.3,1.5 0,0.4 2.9,0.5 6.4,0.2 5.8,-0.5 6.5,-0.4 8,1.8 l 1.6,2.4 -13.7,0.6 c -17.5,0.7 -64.4,3.7 -70.3,4.4 -2.5,0.3 -14.8,1.2 -27.5,2.1 -33.1,2.1 -62.7,4.1 -88.4,5.9 -27.9,1.9 -32.9,1.8 -41.4,-0.4 z m 16.8,-33 c 3.7,-3.2 5.9,-3.6 24.5,-4.7 6.3,-0.3 12.2,-0.8 13,-0.9 0.8,-0.1 7.1,-0.6 14,-1 12.3,-0.6 14.6,-0.8 28.5,-1.9 3.9,-0.3 11.3,-0.8 16.5,-1.1 24.3,-1.3 38.6,-2.4 43.5,-3.5 2.7,-0.6 0.3,-0.7 -7,-0.3 -6,0.3 -13.5,0.7 -16.5,0.8 -3,0.1 -12.7,0.7 -21.5,1.4 -21.2,1.5 -58.1,4 -78,5.1 -17.2,1 -21.1,0.5 -25.6,-3.3 -5.1,-4.2 -6.9,-8.6 -6.9,-16.2 0,-3.9 0.5,-7.6 1.1,-8.2 2,-2 3.9,-0.3 3.9,3.6 0.2,9.6 3.6,16.9 9,18.9 4.4,1.6 16.8,0.3 22,-2.3 4.1,-2.1 7,-2.5 23.6,-3.5 10.4,-0.6 24.8,-1.5 31.9,-2 7.2,-0.5 21.9,-1.4 32.9,-2 10.9,-0.6 20.3,-1.3 20.8,-1.6 0.4,-0.3 9.3,-1 19.6,-1.5 19.3,-1 22.2,-0.7 32.2,3.4 3.6,1.4 7,1.5 8.2,0 1.2,-1.5 5.4,-1.7 6.3,-0.3 0.4,0.6 1,0.8 1.5,0.5 0.4,-0.3 1,0.2 1.4,1 0.4,1.1 -0.3,1.5 -2.7,1.6 -1.8,0.1 -4.5,0.4 -6.1,0.8 l -2.9,0.6 4.1,2.9 c 4.1,2.8 4.4,2.8 13.4,2.2 5.1,-0.4 15.4,-1.3 22.8,-2.1 7.4,-0.8 18.5,-1.7 24.5,-2 6.1,-0.3 17.8,-1 26,-1.5 8.3,-0.6 22.6,-1.5 31.9,-2 9.3,-0.5 17.6,-1.2 18.5,-1.4 0.9,-0.3 8.6,-0.7 17.3,-1.1 8.6,-0.3 18,-1 21,-1.5 2.9,-0.6 7.6,-1 10.3,-0.9 8.5,0.3 31.9,-1.3 33.2,-2.3 0.7,-0.5 4.5,-0.8 8.5,-0.7 4,0.1 14.7,-0.3 23.8,-1 9.1,-0.7 24.4,-1.4 34,-1.7 9.6,-0.3 19.5,-0.7 22,-0.9 2.5,-0.2 8.6,-0.6 13.5,-0.9 5,-0.2 19.8,-1.2 33,-2.1 13.2,-1 28.1,-1.9 33,-2 5,-0.2 15.3,-0.8 23,-1.4 31.2,-2.5 40.5,-3.2 50.3,-3.6 5.6,-0.2 10.6,-0.6 11,-0.9 0.4,-0.2 6.6,-0.7 13.7,-1 24.1,-1.2 32.6,-2.4 36.7,-5.3 6.1,-4.1 7.3,-6.7 7.1,-15.3 -0.1,-4.5 0.2,-7.7 0.9,-8.1 0.6,-0.4 0.8,-1.4 0.5,-2.4 -0.4,-0.9 -1.1,-1.3 -1.7,-1 -0.5,0.3 -1,-0.2 -1,-1.2 0,-1 -0.3,-7.1 -0.6,-13.6 -0.6,-10.5 -0.4,-12 1.1,-13.1 1.9,-1.4 1.3,-3.6 -1.1,-3.6 -1,0 -1.4,-1.2 -1.4,-3.9 0,-4.2 0.1,-4.3 6.8,-5.6 2.5,-0.5 3.1,-1 2.3,-1.8 -0.8,-0.8 -1.4,-0.8 -2.3,0.1 -1.5,1.5 -4.8,1.6 -4.8,0.2 0,-0.5 -0.7,-1 -1.5,-1 -1.1,0 -1.5,-1.1 -1.5,-4 0,-2.2 0.5,-4 1,-4 1.6,0 1.2,-2.7 -0.5,-3.4 -1.1,-0.4 -1.5,-2 -1.5,-5.6 0,-3.8 0.4,-5 1.5,-5 0.8,0 1.5,-0.4 1.5,-1 0,-0.5 -0.7,-1 -1.5,-1 -0.8,0 -1.6,-1.3 -1.9,-3.2 -0.8,-5.4 -2.1,-30.5 -2.1,-41.8 0,-5.8 -0.3,-10.7 -0.7,-11 -0.4,-0.3 -1,-4.3 -1.4,-8.8 -0.7,-7.9 -0.6,-8.2 1.5,-8.2 2.6,0 2.7,-1.4 0.2,-3.7 -1.4,-1.3 -2.1,-3.9 -2.6,-9.8 -1.3,-14.8 -3.4,-18.6 -12.7,-22.2 -4.4,-1.7 -5.7,-1.7 -20,-0.5 -8.4,0.7 -18.9,1.4 -23.3,1.7 -4.4,0.2 -15.2,0.8 -24,1.4 -8.8,0.6 -27,1.8 -40.5,2.6 -13.5,0.9 -32.6,2.2 -42.5,2.9 -9.9,0.8 -22.5,1.5 -27.9,1.5 -5.5,0.1 -10.2,0.4 -10.6,0.6 -1.4,0.9 -56.1,3.5 -58.8,2.8 -1.1,-0.2 -2.3,0 -2.6,0.6 -0.4,0.6 -3.7,1.1 -7.4,1.1 -3.7,0.1 -10.1,0.5 -14.2,1.1 -4.1,0.5 -13,1.2 -19.7,1.5 -6.8,0.3 -16.2,0.9 -21,1.4 -4.9,0.6 -18.5,1.4 -30.3,2 -11.8,0.6 -23,1.5 -24.8,2.1 -3.9,1.3 -12.4,0.9 -13.4,-0.5 -0.5,-0.7 -1.8,-0.6 -4.2,0.2 -2,0.7 -6.1,1.3 -9.3,1.2 -3.2,0 -8,0.4 -10.8,1 -4.7,0.9 -15.3,1.7 -32,2.5 -19.9,0.8 -49.4,2.5 -52,3 -1.6,0.3 -8.8,0.8 -16,1.1 -7.1,0.2 -17.9,0.9 -24,1.5 -6,0.5 -15.3,1.1 -20.5,1.3 -5.2,0.2 -13.1,0.6 -17.5,1 -4.4,0.4 -13.6,1.1 -20.5,1.6 -6.9,0.5 -15.4,1.1 -19,1.4 -3.6,0.3 -12.3,0.8 -19.5,1.1 -7.1,0.2 -13.6,0.7 -14.2,1 -0.7,0.2 -1.8,-0.5 -2.4,-1.6 -1,-2 -1.1,-2 -3,-0.3 -1.2,1.1 -3.9,1.8 -7.6,2 -3.2,0.2 -9.8,0.8 -14.8,1.3 -4.9,0.6 -13.9,1.3 -20,1.6 -30.3,1.4 -31.6,1.7 -36.9,7.5 -4,4.4 -5.3,11.2 -4.1,20.8 0.4,3.1 0.9,9.1 1.1,13.2 1,22.1 1.5,31.7 2.4,43 0.5,6.9 1.2,17.7 1.5,24 0.5,10.4 1.1,20.1 3.1,47.3 l 0.6,8.7 -3.8,0.1 c -2.2,0.1 -6.8,0.6 -10.4,1.3 -4.9,0.8 -6.6,1.5 -6.8,2.9 -0.3,1.2 0.4,2 1.7,2.4 1.2,0.3 2.1,0.9 2.1,1.3 0,1.5 7.5,3.4 12.6,3.1 l 5.1,-0.2 0.6,5.3 c 0.4,2.9 0.7,7.8 0.7,10.8 0,4.5 0.6,6.4 3.3,10.5 5.5,8.5 13.3,10.8 19.2,5.6 z"
       id="path74" />
    <path
       d="m 1235,442 c -0.8,-0.5 -1.7,-0.7 -2,-0.5 -0.4,0.2 -0.6,-0.6 -0.5,-1.8 0.1,-1.7 0.8,-2.2 3.1,-2.3 1.7,0 3.4,-0.3 4,-0.7 0.6,-0.3 7.7,-1.1 16,-1.6 8.2,-0.6 21,-1.6 28.4,-2.2 7.4,-0.5 17.1,-1.2 21.5,-1.4 20.5,-0.8 47.5,-2.6 52.5,-3.4 3,-0.5 8.9,-0.9 13,-1 4.1,0 13.8,-0.4 21.5,-0.9 10.6,-0.7 14.6,-0.7 16.5,0.2 3.1,1.5 13.7,0.7 29.5,-2.3 6.1,-1.1 15.5,-2.3 21,-2.6 5.5,-0.3 10.7,-0.5 11.5,-0.6 6.1,-0.4 22.1,0.4 22.5,1.2 0.4,0.5 1.5,0.9 2.6,0.9 1,0 1.9,0.4 1.9,0.9 0,0.5 -2.6,1.2 -5.7,1.5 -3.2,0.4 -8.5,1 -11.8,1.6 -3.3,0.5 -9.1,0.9 -12.9,1 -3.7,0 -7.2,0.3 -7.7,0.6 -0.5,0.3 -7.8,0.7 -16.2,1 -21.1,0.6 -27.7,1 -38.7,2.3 -5.2,0.5 -15.1,1.3 -22,1.5 -18,0.7 -25.6,1.2 -26.6,1.9 -0.5,0.3 -9.4,0.8 -19.9,1.2 -10.4,0.4 -19.3,0.9 -19.6,1 -0.5,0.4 -34.4,2.7 -57.4,4 -4.9,0.3 -12.1,0.7 -16,1 -3.8,0.2 -7.7,0 -8.5,-0.5 z"
       id="path76" />
    <path
       d="m 1000,419 c -1.7,-1.7 -2.1,-3.2 -2,-8.8 0.1,-3.7 -0.3,-11.2 -0.9,-16.6 -0.7,-6.4 -0.8,-10.3 -0.2,-10.9 0.7,-0.7 0.6,-1.7 0,-2.9 -0.6,-1.1 -0.9,-4.4 -0.7,-7.4 0.1,-3 0,-5.5 -0.3,-5.7 -1.2,-0.4 -2.1,-25.7 -1,-25.7 0.8,0 0.6,-0.8 -0.3,-2.2 -0.7,-1.3 -1.7,-6.4 -2,-11.5 -0.6,-8.1 -0.5,-9.2 0.9,-8.7 1.9,0.8 2,-1.2 0,-2.3 -2.3,-1.3 -4.8,-33.7 -2.9,-37.5 1.7,-3.3 1.8,-4.1 0.3,-3.2 -2.3,1.4 0.4,-3.9 3.5,-6.8 4.2,-4 8.5,-5.7 15.3,-6.3 3.2,-0.2 8.3,-0.7 11.3,-1 3,-0.3 12.9,-1 22,-1.6 9.1,-0.5 19.8,-1.2 23.8,-1.5 7.1,-0.5 7.8,-0.2 7.3,2.9 -0.2,1.4 1.6,0.7 3.4,-1.3 1,-1.1 2.9,-2 4.2,-2 1.3,0 2.6,-0.7 2.9,-1.5 0.5,-1.2 2.3,-1.4 9,-1.2 4.6,0.2 8.4,-0.1 8.4,-0.6 0,-0.4 3.5,-0.7 7.8,-0.7 4.2,0.1 12.4,-0.6 18.2,-1.4 12.2,-1.8 20.6,-2 21.5,-0.6 0.8,1.3 17.2,1.3 24.9,0 3.2,-0.5 11.6,-1.2 18.5,-1.5 6.9,-0.3 16.7,-1 21.6,-1.5 5,-0.5 12.6,-1.2 17,-1.6 4.4,-0.3 9.6,-1 11.5,-1.4 1.9,-0.5 11.5,-1.1 21.2,-1.4 9.8,-0.4 18.8,-1 20.1,-1.5 1.3,-0.5 4.4,-0.9 6.8,-0.9 5.2,0 11.2,-0.8 15.7,-2.1 2.8,-0.9 3.2,-0.7 3.2,1 0,1.8 0.5,2 4.3,1.5 2.3,-0.3 8.1,-0.7 12.8,-0.8 4.8,-0.2 8.5,-0.6 8.3,-1 -0.9,-1.5 2.1,-1.9 14.7,-1.9 7.2,-0.1 14.4,-0.5 16.1,-1 1.7,-0.5 8.1,-0.9 14.2,-1 6.1,0 13.1,-0.4 15.5,-0.9 4.2,-0.8 4.5,-0.6 7.7,2.9 1.9,2 2.9,3.8 2.2,4 -0.6,0.2 0,1 1.3,1.7 2.3,1.3 2.2,1.3 -1.8,1.4 -4.3,0 -6.3,-1.4 -4.5,-3.2 0.6,-0.6 0.8,-1.7 0.5,-2.4 -0.8,-2.1 -4.4,-1.7 -5,0.5 -0.4,1.6 -1.8,2 -10.6,2.5 -5.6,0.4 -18.4,1.4 -28.5,2.2 -10,0.8 -18.7,1.2 -19.2,0.9 -0.6,-0.4 -4.3,-0.2 -8.3,0.4 -3.9,0.6 -11.7,1.3 -17.2,1.6 -5.5,0.3 -12.9,0.8 -16.5,1 -3.6,0.2 -13.5,0.9 -22,1.5 -8.5,0.6 -18.4,1.1 -22,1 -3.6,0 -10.8,0.4 -16,0.9 -5.2,0.6 -14.4,1.3 -20.5,1.6 -6,0.3 -12.8,0.7 -15,1 -2.2,0.3 -9.8,0.8 -17,1.1 -7.1,0.3 -13.2,0.7 -13.5,0.9 -0.3,0.2 -8.9,0.6 -19,0.9 -10.2,0.4 -20.7,0.9 -23.5,1.2 -2.7,0.2 -7,0.7 -9.5,0.9 -2.5,0.3 -6.5,0.7 -9,1 -2.5,0.2 -13.5,1 -24.5,1.6 -19,1 -26.8,1.5 -36,2.3 -2.2,0.2 -10.7,0.6 -19,1 -17,0.7 -21,1.1 -26.7,2.9 -6.5,1.9 -7.3,4.2 -7.1,18.4 0.1,8.2 -0.2,12.3 -0.9,12.3 -0.6,0 -0.4,0.8 0.5,1.8 1.2,1.3 1.7,3.7 1.7,7.8 0,3.2 0.5,11.1 1,17.5 0.9,9.6 0.8,12.1 -0.4,15.1 -1.5,3.4 -1.4,3.6 0.4,4.1 1.8,0.5 2,1.4 2,8.9 0,4.5 0.5,12.6 1.1,17.8 0.5,5.2 1.1,12.9 1.3,17 0.2,4.1 0.7,12.5 1.1,18.6 0.8,12.1 0.2,14.1 -3.5,10.4 z"
       id="path78" />
    <path
       d="m 1036,418 c -2.4,-2.6 -3.2,-2.8 -6.6,-2.3 l -3.9,0.6 1.6,-2.4 c 0.9,-1.3 2.6,-2.9 3.9,-3.6 1.2,-0.6 2.6,-1.7 3.1,-2.5 0.8,-1.3 0.3,-19.4 -0.7,-25.7 -0.4,-2.2 -0.1,-3.7 0.7,-4.2 1.1,-0.6 1,-1.1 -0.2,-2.6 -2.4,-2.8 -1.2,-5.8 2.1,-5.5 9.4,0.8 22,0.8 22,0.1 0,-0.9 -0.8,-1 -15.2,-1.3 -4.7,0 -9,-0.4 -9.4,-0.8 -0.8,-0.9 -2.9,-23.8 -3.9,-43.9 -0.9,-18.2 -1.3,-19.9 -5.5,-22.7 -3.8,-2.5 -5.4,-5.5 -4.5,-8.2 0.7,-2.2 11.8,-3.6 35.3,-4.6 17.5,-0.7 19.2,-0.3 19.2,4.2 0,1.7 -1.2,3.3 -4,5.2 -3.9,2.7 -4,2.7 -3.5,8.2 0.6,6.4 4.3,67.7 5.1,83 0.7,13.3 1.6,16.4 6,19 3.7,2.3 5.3,6.2 3.5,8.4 -0.6,0.8 -3.5,1.7 -6.4,2 -5.6,0.7 -7.4,0.6 -6.9,-0.6 0.1,-0.5 -0.4,-0.8 -1.2,-0.8 -0.8,0 -2.2,-0.3 -3,-0.6 -1.2,-0.5 -1.5,-0.2 -1,1 0.8,2 -0.1,2 -3.6,-0.1 -2.7,-1.5 -3.1,-1.5 -6.7,0 -3.7,1.6 -10.9,3.7 -12.6,3.7 -0.5,0 -2.1,-1.3 -3.7,-3 z"
       id="path80" />
    <path
       d="m 1609.8,417.5 c -0.3,-0.3 -3.5,-0.6 -7.2,-0.7 -4.1,-0.1 -7.1,-0.7 -7.7,-1.5 -1.8,-2.1 -2.1,-2 35.1,-3.9 4.1,-0.2 12.4,-0.8 18.4,-1.4 10.1,-1 19.7,-1.3 31.9,-1 2.6,0 5.3,-0.3 6,-0.7 2.1,-1.3 17.7,-1.4 20,-0.1 2.8,1.5 8.4,1.1 11.1,-0.7 2.4,-1.8 3.6,-1.9 3.6,-0.4 0,1.3 -6.2,3.9 -10.4,4.4 -1.7,0.2 -8.7,0.6 -15.6,1 -38.2,2 -43.3,2.3 -56.5,3.5 -16.9,1.4 -28.1,2 -28.7,1.5 z"
       id="path82" />
    <path
       d="m 1087,414.5 c -1.5,-3.9 -1.2,-5.5 0.9,-5.5 1,0 2.4,-0.7 3.1,-1.5 0.7,-0.8 1.8,-1.5 2.6,-1.5 1.9,0 2.7,-1.9 1.4,-3.5 -0.8,-1 -0.8,-1.9 0.2,-3.5 1.1,-1.8 1.1,-2.3 -0.2,-3.3 -1.1,-0.9 -1.7,-3.5 -1.9,-9.2 -0.2,-4.4 -0.5,-8.3 -0.8,-8.8 -0.2,-0.4 0.2,-2 1,-3.6 1.2,-2.3 1.2,-3.1 0,-4.6 -0.7,-1.1 -1.3,-3.6 -1.3,-5.7 0,-2.2 -0.7,-5.2 -1.5,-6.7 -0.8,-1.6 -1.1,-3.2 -0.7,-3.6 0.4,-0.4 -0.2,-0.5 -1.3,-0.2 -8.5,2.5 -11.5,1.5 -11.5,-3.6 0,-3.2 0.1,-3.3 4.7,-3.5 9.1,-0.4 8.6,0.6 7.8,-16.6 -0.4,-8.3 -0.9,-15.4 -1.2,-15.8 -0.2,-0.5 -1.3,-0.8 -2.4,-0.8 -1.6,0 -1.9,-0.7 -1.9,-4.1 0,-3.2 -0.6,-4.7 -3,-7.1 -3.6,-3.6 -3.1,-4.9 0.9,-2.5 3.8,2.2 4.8,2.2 2.7,-0.2 -1,-1.1 -2.8,-2.2 -4.1,-2.5 -2,-0.5 -2.3,-1.2 -2.1,-4 0.2,-1.9 0.8,-4.8 1.5,-6.4 1.2,-2.8 1.3,-2.8 13.9,-4 7,-0.7 18.4,-1.5 25.4,-1.9 10.9,-0.5 13,-0.4 15.2,1.1 2,1.3 2.6,2.5 2.6,5.3 0,3.5 -0.1,3.6 -1.5,1.7 -1.4,-1.9 -1.4,-1.9 -1.5,0.3 0,1.2 -1.8,3.8 -3.9,5.9 l -4,3.7 0.4,10.8 0.3,10.9 -4.2,0.2 c -4,0.1 -4,0.1 -0.6,0.5 5.5,0.7 6,1.6 5.8,11.2 0,4.7 0.2,10.5 0.6,12.8 0.9,4.9 -0.4,8 -3.6,8.6 -2.2,0.3 -2.2,0.4 -0.4,1.2 1.3,0.6 2.1,0.5 2.4,-0.3 0.9,-2.8 2,-0.8 2.4,4.1 0.2,2.8 0.6,5.7 0.7,6.2 0.2,0.6 0.3,3.5 0.2,6.6 -0.1,5.6 -0.1,5.6 -2.8,5.1 l -2.8,-0.5 3.4,3.1 c 3.4,3.1 3.5,3.3 3.3,10.8 -0.1,7.7 1.7,13.4 4.3,13.4 0.7,0 2.2,1.1 3.4,2.4 1.7,1.8 1.9,2.5 0.9,2.9 -0.9,0.4 -0.9,0.6 -0.1,0.6 2,0.2 0.2,3.1 -1.8,3.1 -1.1,0 -3.1,0.7 -4.4,1.6 -2,1.3 -3.1,1.4 -5.6,0.5 -1.9,-0.6 -3.7,-0.7 -4.3,-0.2 -2.2,1.7 -11,2.1 -13,0.6 -2.6,-2 -3.8,-1.9 -3.4,0.3 0.3,1.5 -0.8,1.7 -9.5,2 -9.7,0.3 -9.7,0.3 -10.7,-2.3 z"
       id="path84" />
    <path
       d="m 1156,411 c 1.1,-2 1.8,-2.2 6.8,-1.8 5.4,0.5 5.5,0.4 2.7,-0.8 -1.6,-0.7 -5.4,-1.3 -8.2,-1.4 -2.9,0 -5.3,-0.3 -5.3,-0.7 0,-0.3 2.7,-3.2 6,-6.5 5.2,-5 6,-6.3 6,-9.6 0,-5 0.8,-5.8 5.8,-6.7 l 4.2,-0.7 v 7.1 7 l 4.5,3.1 c 4.1,2.8 6.5,5.6 6.5,7.7 0,1.2 -12.5,3.4 -14.6,2.6 -1,-0.4 -1.5,-0.2 -1.1,0.4 0.4,0.6 -1,1 -3.6,1 -2.3,0 -5.7,0.3 -7.5,0.7 -3.2,0.7 -3.3,0.7 -2.2,-1.4 z"
       id="path86" />
    <path
       d="m 1205.6,408.1 c -2.5,-2.8 -1.8,-6.7 1.2,-6.4 1.5,0.2 2.1,-0.1 1.6,-0.8 -0.3,-0.6 -0.1,-2.1 0.6,-3.4 1,-1.8 0.9,-3.4 -0.5,-8.1 -0.9,-3.3 -2.2,-7.2 -2.8,-8.7 l -1.2,-2.8 -11.3,0.6 -11.2,0.7 0.2,-5.2 c 0.1,-2.8 0.7,-5.4 1.3,-5.8 0.5,-0.4 3.9,-0.7 7.5,-0.8 8.9,-0.1 11.4,-1 10.5,-3.7 -0.3,-1.2 -0.9,-4 -1.2,-6.2 -0.3,-2.2 -0.9,-4.4 -1.3,-5 -0.4,-0.5 -1.5,-4.3 -2.4,-8.3 -0.9,-4 -2.5,-9.6 -3.6,-12.5 -1.1,-2.9 -2,-5.2 -2,-5.2 3,0 5.5,-0.6 6.3,-1.4 0.8,-0.8 0.3,-1.1 -2,-1.1 -3.7,0 -4.9,-1.3 -5.7,-6.5 -0.6,-3.2 -1.2,-4.1 -2.8,-4.2 -1.1,-0.1 -2.8,-0.9 -3.9,-1.8 -1.7,-1.6 -1.8,-1.6 -1.5,0.9 0.1,1.4 0.6,2.9 0.9,3.3 0.4,0.3 0.7,2.1 0.7,4 0,2.5 -0.4,3.3 -1.7,3.3 -3.4,0 -4.6,-1.6 -4.1,-5.5 0.3,-3 0.1,-3.9 -1.4,-4.3 -1.3,-0.3 -1.8,-1.4 -1.8,-3.7 0,-4.9 0.9,-6.5 3.7,-6.5 2.3,0 2.4,-0.2 1.6,-3.2 -0.9,-3.8 -0.9,-22.5 0,-23.4 1.2,-1.3 39.9,-2.6 41,-1.5 0.6,0.6 2.1,4.8 3.3,9.3 1.2,4.6 2.9,10.9 3.8,14.1 0.9,3.2 1.6,6.1 1.5,6.5 -0.1,1.3 -3,-7.1 -5,-14.8 -1.9,-7.1 -4.9,-12.6 -4.9,-9 0,0.8 0.7,3.7 1.5,6.3 0.8,2.7 1.4,5.2 1.3,5.5 -0.1,0.4 0.2,1.6 0.8,2.7 0.6,1.1 1.9,5.6 2.9,10 1,4.4 2.4,9.9 3.2,12.3 2,6.6 2.1,6.6 -5.7,5.9 -3.8,-0.3 -7.2,-0.2 -7.5,0.2 -0.6,1.1 6.9,2.5 11.5,2.2 l 3.6,-0.2 3.2,9.8 c 1.7,5.4 3.6,11.9 4.2,14.5 0.5,2.6 1.6,6.5 2.4,8.5 2.3,6.3 6,22.2 5.3,22.9 -0.4,0.4 -2.4,1 -4.4,1.4 l -3.8,0.8 4.1,0.1 c 4.4,0.1 7.4,2.4 7.4,5.6 0,2 4.4,8.2 7.3,10.3 2.3,1.7 1.8,5.5 -0.8,6.4 -5.2,1.7 -9.2,0.9 -12.9,-2.7 -4,-3.8 -4.4,-3.9 -6.5,-2.6 -1.9,1.2 -0.6,4.1 1.9,4.1 1.1,0 2,0.4 2,0.9 0,1.1 -6.4,2.2 -16,2.7 -4.1,0.2 -9.6,0.6 -12.1,0.9 -3.7,0.4 -4.9,0.2 -6.3,-1.4 z"
       id="path88" />
    <path
       d="m 1304,405.4 c -3.6,-0.8 -8.2,-1.7 -10.3,-2 -2.1,-0.4 -4,-1.1 -4.3,-1.5 -0.3,-0.5 -1.3,-0.9 -2.2,-0.9 -4.9,0 -18.1,-16.2 -14.9,-18.2 0.7,-0.5 0.3,-0.8 -1,-0.8 -2.9,0 -4.5,-2.6 -8.1,-13.5 -3.7,-11.1 -4.7,-17.5 -3,-17.6 0.7,-0.1 1.8,-0.2 2.3,-0.4 0.6,-0.1 3.5,-0.3 6.5,-0.5 5.2,-0.3 5,-0.4 -2.5,-0.9 l -8,-0.6 -0.8,-7.5 c -0.8,-7.6 -0.3,-14.4 1.1,-16.8 1,-1.6 15.3,-4.6 16.1,-3.4 1.5,2.3 4.7,2.8 10.1,1.6 l 5.5,-1.2 -5.3,-0.1 c -3.4,-0.1 -5.9,-0.7 -6.9,-1.7 -1,-1 -2.3,-1.3 -3.7,-0.9 -3.4,1.2 -10.5,1.7 -13.1,1.1 -3.1,-0.8 -3.3,-3.5 -0.4,-6 1.5,-1.2 1.8,-2 1,-2.5 -1,-0.7 0.2,-7.3 2.4,-12.4 0.6,-1.3 0.4,-1.6 -0.9,-1.1 -2.6,1 -2,-3.2 1.3,-9 5.8,-10.1 21.1,-21.6 28.6,-21.6 2.3,0 2.4,0.2 1.5,2 -1,1.9 -0.8,1.9 3.4,1.4 4.9,-0.7 4.6,-1.1 6,7.4 0.4,2.3 0.2,3.2 -0.9,3.2 -0.7,0 -2.7,1.1 -4.2,2.4 l -2.8,2.4 v 17.1 c 0,14.2 -0.2,17.1 -1.4,17.1 -1.2,0 -1.1,0.3 0.2,1.3 1.8,1.3 2.8,10.1 4.7,41.7 0.6,9.1 1.2,17.6 1.3,19 0.4,3.8 3.6,7.9 7.6,9.8 3.6,1.7 3.6,1.7 3.6,8.1 0,3.6 -0.5,6.5 -1,6.7 -0.6,0.1 -3.9,-0.4 -7.5,-1.2 z"
       id="path90" />
    <path
       d="m 1318.5,404.2 c -0.7,-2 -0.6,-9.5 0.3,-10.8 0.4,-0.6 3.2,-2.2 6.2,-3.6 7.7,-3.6 15.2,-11.1 15.6,-15.7 0.2,-1.9 0.7,-3.7 1.1,-4 0.5,-0.3 1.4,-1.8 2,-3.3 0.9,-1.9 2,-2.8 3.5,-2.8 7.1,0.1 7.6,7.2 1.4,19.4 -4.1,8.3 -12.6,18.3 -14.5,17.1 -0.6,-0.3 -1.1,-0.2 -1.1,0.2 0,1.2 -6.7,4 -10.7,4.5 -2.2,0.3 -3.4,0 -3.8,-1 z"
       id="path92" />
    <path
       d="m 1374.2,399.2 c -7.1,-0.7 -7.8,-8.3 -1.2,-11.7 l 3.2,-1.6 -0.7,-20.7 c -0.3,-11.4 -1,-24.7 -1.5,-29.7 -0.5,-4.9 -1,-11.5 -1,-14.5 0,-5.4 0.1,-5.5 3,-5.7 1.7,-0.1 3.8,-0.7 4.8,-1.3 1.4,-0.9 1.1,-1 -1.8,-0.9 -6.7,0.3 -7,-0.2 -7,-11.2 0,-5.4 -0.3,-9.9 -0.8,-9.9 -0.4,0 -2.2,-2.3 -4,-5 -1.8,-2.8 -3.9,-5 -4.7,-5 -2.6,0 -4.5,-4.2 -4.5,-10.1 0,-5.2 0.2,-5.7 2.8,-6.7 3.1,-1.3 32,-3.2 47.1,-3.2 11.2,0 12.2,0.6 12,7.2 0,2.9 -0.1,3 -0.9,1.2 -1.1,-2.8 -3,-4 -2.3,-1.5 0.7,2.6 -1.2,5.8 -3.9,6.7 -1.3,0.4 -2.6,1.2 -3,1.8 -1,1.4 -1,17 -0.1,17.9 0.3,0.4 0.7,4.3 0.7,8.7 0.1,7.7 0,7.9 -2.1,7.3 -3.2,-0.7 -3.1,2.4 0,3.6 2.2,0.9 2.4,1.7 3.1,9.8 1.1,15.5 2.7,40.6 3,48.2 0.3,6.9 0.6,7.7 3.2,9.8 5.7,4.5 6.4,5.3 6.4,8.1 -0.1,4.5 -2.3,6.4 -6.9,6.1 -2.2,-0.2 -4.3,0 -4.7,0.4 -0.4,0.4 -5.8,0.7 -12.1,0.7 -7.3,0 -11.3,0.4 -11.3,1.1 0,0.9 -5.4,1 -14.8,0.1 z"
       id="path94" />
    <path
       d="m 1432.7,395.3 c -2.9,-0.3 -4,-1.1 -5.2,-3.3 -1.9,-3.6 -1.9,-4 0,-4 2.3,0 6.5,-4.9 6.5,-7.6 0,-1.3 -1.1,-5 -2.4,-8.2 -1.3,-3.1 -2.9,-7.5 -3.6,-9.7 -0.7,-2.2 -1.5,-4.4 -1.9,-5 -0.3,-0.5 -0.6,-1.2 -0.6,-1.5 -0.4,-2.8 -3,-11 -3.6,-11 -0.4,0 -1.4,-1.9 -2.3,-4.2 -1.3,-3.8 -1.4,-5.7 -0.8,-12.7 0.1,-1 1.3,-3.5 2.7,-5.5 2.6,-3.8 2.5,-5.6 -0.1,-5.6 -2.2,0 -1.7,-2.1 2.1,-7.9 1.9,-2.9 3.5,-5.8 3.5,-6.5 0,-0.7 1.3,-3.3 2.9,-5.7 5.6,-8.9 6.6,-11.8 5,-14.4 -0.8,-1.3 -3,-3.4 -4.9,-4.7 -3.3,-2.2 -3.5,-2.7 -3.8,-8.7 -0.4,-8.5 0.2,-9.1 10.2,-9.1 4.4,0 11.6,-0.5 15.9,-1.2 6.1,-0.9 8.3,-0.9 9.8,0 1,0.7 3.8,1.2 6.2,1.2 5.2,0 6.7,1.3 6.7,5.9 0,3.3 -0.1,3.4 -1.5,1.5 -1.2,-1.6 -1.4,-1.7 -1.5,-0.2 0,2.7 -4.7,7.5 -9.6,9.8 -4.7,2.3 -7.5,5.4 -11.8,13.3 -1.4,2.6 -3.4,5.9 -4.3,7.3 -1.4,2.2 -1.5,3 -0.4,5.8 0.7,1.7 1.4,4 1.5,5.1 0.1,1.1 1.1,4 2.3,6.5 4.8,10.6 8.3,18.7 8.3,19.5 0,0.4 1.5,4 3.4,7.9 1.8,3.9 3.8,8.5 4.4,10.1 4.7,13.8 10.5,25.6 14.5,29.7 4,4.2 4.2,4.9 2.7,7.7 -0.8,1.6 -2.9,2 -13.2,2.6 -16.1,1 -16.1,1 -17.6,1.9 -0.7,0.4 -3.8,0.6 -7,0.5 -3.1,-0.1 -6.4,0 -7.2,0.3 -0.8,0.2 -3.2,0.3 -5.3,0.1 z"
       id="path96" />
    <path
       d="m 1497.7,388.5 c -3.5,-3.4 -1.1,-7.5 4.5,-7.5 1.3,0 1.9,-0.4 1.3,-0.8 -0.6,-0.4 -1,-6.4 -1,-14.2 0,-7.4 -0.3,-15.4 -0.8,-17.8 -0.6,-3.3 -0.5,-4.2 0.4,-3.6 0.9,0.5 1,0.2 0.4,-1.2 -1.5,-3.8 -2.3,-10.1 -2.4,-20.3 -0.1,-5.6 -0.4,-11.3 -0.7,-12.6 -0.4,-1.7 0,-2.4 1.8,-2.9 2.2,-0.7 2.2,-0.7 0.3,-1.6 -1.1,-0.4 -3,-0.6 -4.2,-0.3 -1.5,0.3 -2.3,0 -2.3,-0.8 0,-0.8 -0.5,-7.2 -1,-14.3 -0.9,-11.9 -1.1,-13 -3.5,-15.2 -1.4,-1.3 -3,-2.4 -3.6,-2.4 -1.4,0 -2.9,-4.6 -2.8,-8.8 0,-2.9 0.7,-4.2 2.9,-6 2.6,-2 4.7,-2.4 16.2,-3.2 7.3,-0.5 17.9,-0.9 23.6,-1 h 10.2 v 3.6 c 0,3.3 -0.2,3.5 -1.6,2.3 -1.5,-1.2 -1.6,-1 -1.1,2.6 0.4,2.2 0.9,9.6 1.1,16.5 0.3,6.9 0.8,15.3 1.1,18.8 0.5,5 0.4,6.3 -0.7,6.1 -0.7,-0.1 -3.8,0 -6.8,0.2 l -5.5,0.3 7,0.5 7,0.6 0.7,17 c 0.4,9.4 1.1,19.5 1.7,22.5 0.6,3 1,11.5 0.9,18.8 0,7.3 0.2,13.6 0.6,13.9 0.3,0.3 0.6,2.8 0.6,5.4 v 4.7 l -4.2,0.6 c -2.4,0.3 -12,0.8 -21.4,1.2 -15.1,0.5 -17.3,0.4 -18.7,-1.1 z"
       id="path98" />
    <path
       d="m 1551.3,386.3 c -2.1,-0.8 -1.6,-6.1 0.6,-6.8 1,-0.3 2.1,-1.4 2.4,-2.5 0.3,-1.1 1.7,-2.4 3.3,-3 4.5,-1.7 10.1,-8.2 13.9,-16.1 4.7,-9.8 9.1,-13.3 11.4,-9 0.6,1 1.3,8.8 1.6,17.4 0.3,8.6 0.8,16.2 1.1,17 0.4,1.1 -0.6,1.6 -4.3,2 -7.6,0.9 -28.7,1.6 -30,1 z"
       id="path100" />
    <path
       d="m 1599.9,380.6 c -2.6,-4.2 -2.4,-5 1.4,-6.8 2.5,-1.2 3.6,-2.6 4.3,-5.4 1.1,-4.1 1.1,-11 0,-12.1 -1.2,-1.2 -0.6,-8.1 0.8,-9.3 1.7,-1.3 1.1,-4 -0.9,-4 -1.5,0 -3,-23.3 -1.5,-23.8 0.6,-0.2 1,-1.3 1,-2.4 0,-1.2 -0.3,-1.8 -0.7,-1.5 -1.4,1.5 -2.9,-2.7 -2.4,-6.6 0.6,-4 0.8,-4.2 4.4,-4.5 4.3,-0.4 4.1,-2.2 -0.3,-2.2 -4,0 -4.7,-1.8 -5.2,-12.7 -0.3,-7.4 -0.1,-9.3 1,-9.3 1.1,0 1,-0.3 -0.2,-1.6 -0.9,-0.8 -1.6,-3 -1.7,-4.7 -0.2,-4.9 -1.3,-7.9 -3.4,-9.1 -3.1,-1.8 -5.2,-4 -5.9,-6.2 -1.1,-3.5 2,-5.1 11.4,-5.8 7.7,-0.6 9.3,-1.2 10.3,-4 0.1,-0.4 6.4,-1 13.9,-1.2 7.5,-0.2 14.8,-0.8 16.3,-1.4 5.2,-2 18.2,-0.1 25.8,3.7 4.3,2.1 4.8,2.7 4.3,4.8 -0.5,2.1 0.4,3.5 5.7,8.5 7.5,7.1 10.8,13.1 15.7,28.6 1.9,6.1 2.3,9.5 2.4,23.5 0.1,20.5 -0.9,27 -5.4,34.6 -1.1,1.9 -2,4.1 -2,4.9 0,2.3 -8.8,13.7 -13.3,17.1 -8.9,6.9 -18.7,10.3 -22.5,7.9 -1.3,-0.8 -1.6,-7.5 -0.4,-9.1 0.4,-0.5 2.5,-2 4.7,-3.2 3.8,-2 4,-2.3 3.7,-6.1 -0.2,-2.2 0.1,-4.3 0.7,-4.7 1.6,-0.9 1.4,-4.2 -0.3,-4.8 -1,-0.4 -1.5,-3.7 -2,-12.4 -1.1,-22.5 -1.6,-25.3 -4,-25.9 -1.9,-0.5 -2.2,-1.2 -2.3,-6.7 -0.2,-14.2 -2,-32.4 -3.6,-35.9 -0.8,-2.1 -3.1,-4.7 -4.9,-5.8 -1.8,-1.1 -3.4,-2.4 -3.4,-3 -0.1,-0.5 -0.2,-2.1 -0.3,-3.4 0,-1.3 -0.9,-3.4 -1.9,-4.7 -1.9,-2.2 -1.9,-2.2 -1.7,5.2 0.2,4.1 0.8,15.7 1.4,25.9 0.6,10.2 1.3,23 1.6,28.5 0.2,5.5 0.9,16.1 1.5,23.5 1.1,14.1 2.8,43.4 2.6,43.7 -0.4,0.5 -26.1,2.6 -34,2.8 l -8.8,0.2 z"
       id="path102" />
    <path
       d="m 1167.6,379.7 c -1.5,-1.1 -1.6,-1.9 -0.8,-5.3 1.1,-4 3.2,-16.5 3.8,-21.9 1,-9.3 1.9,-13.1 3.3,-14.3 1.5,-1.2 1.4,-1.3 -0.1,-0.8 -1.5,0.4 -1.6,0.1 -0.2,-4.2 0.7,-2.6 1.4,-5 1.4,-5.4 0,-0.5 1.8,-0.8 4,-0.8 3.7,0 4,0.2 4,2.9 0,1.5 -0.5,5.3 -1.1,8.2 -0.6,3 -1.2,6.8 -1.4,8.4 -0.1,1.7 -1.2,7.8 -2.3,13.8 -1.2,5.9 -1.9,11.4 -1.6,12.2 0.4,0.8 0.1,1.5 -0.5,1.5 -0.6,0 -1.1,1.6 -1.1,3.5 0,3.2 -0.3,3.5 -2.8,3.5 -1.6,0 -3.6,-0.6 -4.6,-1.3 z"
       id="path104" />
    <path
       d="m 1721.1,355.2 c -1.3,-2.5 -1.4,-7.2 -0.2,-7.2 0.5,0 0.3,-1.3 -0.5,-3 -0.9,-1.6 -1.8,-5.5 -2.1,-8.5 -0.5,-4.6 -0.3,-5.8 1.2,-6.9 1.6,-1.2 1.6,-1.3 0.1,-1.9 -1.8,-0.7 -2.1,-4.8 -0.4,-6.5 0.8,-0.8 0.8,-1.5 -0.2,-2.7 -1.8,-2.2 -3.3,-18.4 -1.8,-20.2 0.9,-1.1 0.9,-1.6 -0.2,-2.3 -1.1,-0.7 -1.6,-4.9 -2.3,-17.2 -0.4,-9 -0.8,-17 -0.8,-17.8 0,-0.8 -0.5,-4.4 -1.1,-7.9 -0.9,-5.2 -0.8,-6.5 0.3,-7.2 0.8,-0.5 1,-0.9 0.4,-0.9 -0.5,0 -1.1,-3 -1.2,-6.6 -0.3,-7.9 -1,-9.2 -6.4,-13 -4.7,-3.2 -5.3,-3.3 -24.2,-1.5 -13.9,1.2 -44.3,3.3 -53.2,3.6 -6.8,0.3 -22.9,1.2 -42,2.5 -7.1,0.5 -17.7,1.2 -23.5,1.5 -5.8,0.3 -10.6,1 -10.8,1.5 -0.2,0.5 -1.7,0.7 -3.3,0.3 -3.4,-0.7 -37.9,1.7 -37.9,2.6 0,0.3 -4.2,0.6 -9.2,0.7 -20.5,0.2 -27.8,0.5 -38.3,1.5 -6,0.6 -14.4,1.2 -18.5,1.4 -21.4,0.9 -32.6,1.8 -34.1,2.6 -1.2,0.6 -2.1,0.4 -2.9,-0.6 -1,-1.2 -0.9,-1.5 0.4,-1.6 3.1,-0.3 7.9,-1.9 8.6,-2.9 0.4,-0.7 37.3,-3.9 43.5,-3.8 1.1,0 6.6,-0.3 12.2,-0.8 7.8,-0.5 10.6,-0.4 11.8,0.6 1.3,1.1 1.9,1 3.3,-0.4 1,-0.9 2.6,-1.6 3.5,-1.6 0.9,0 1.8,-0.4 2.1,-0.9 0.9,-1.4 26,-3.6 42.3,-3.6 6.6,0 11.9,-0.3 11.6,-0.8 -0.2,-0.4 2.2,-0.7 5.4,-0.6 3.2,0.1 6,0 6.3,-0.1 0.3,-0.1 8.2,-0.4 17.5,-0.5 20.4,-0.2 38.4,-1.5 39.1,-2.7 0.3,-0.4 1.7,-0.5 3.1,-0.2 1.6,0.4 2.4,0.3 2,-0.3 -0.3,-0.5 0,-1 0.8,-1 0.8,0 1.1,0.5 0.8,1.1 -0.5,0.8 -0.2,0.8 0.8,0 0.8,-0.6 3.2,-1.1 5.4,-1.2 2.2,0 7.6,-0.3 12,-0.6 20.9,-1.5 27.3,-1.8 44,-2 17.4,-0.3 18.2,-0.2 22.6,2.2 8.6,4.5 10,8.2 11.3,31.2 0.3,5.2 1,17.8 1.6,27.9 0.6,10.1 1.2,18.6 1.4,19 0.3,0.4 0.7,7.6 1.1,16.1 0.4,8.5 0.9,15.8 1.1,16.1 0.1,0.3 0.4,6 0.5,12.7 0.3,12.6 -0.7,16.6 -3,12.4 z"
       id="path106" />
    <path
       d="m 1559.7,344.2 c -1,-1 -1.7,-2.4 -1.7,-3.1 0,-1.9 -4.1,-9.5 -5.9,-10.7 -0.9,-0.7 -2.8,-2.3 -4.4,-3.8 -2.4,-2.3 -2.7,-3 -2.1,-6.8 0.5,-2.9 1.9,-5.7 4.6,-8.7 2.1,-2.4 3.8,-4.7 3.8,-5.1 0,-1.1 4.8,-3 7.5,-3 2.9,0 3.2,1.5 4,16.5 0.3,5.5 0.8,12.5 1.1,15.5 1,9.3 -2.6,14 -6.9,9.2 z"
       id="path108" />
    <path
       d="m 1342,317.1 c -1.8,-1.7 -3,-3.8 -3,-5.4 0,-1.4 -0.4,-2.7 -0.9,-2.9 -0.4,-0.1 -2.5,-3.7 -4.5,-7.8 -4.3,-8.6 -7.1,-11.8 -14.1,-16.3 -2.7,-1.7 -5.1,-3.5 -5.3,-3.9 -0.2,-0.5 -1,-0.8 -1.8,-0.8 -0.9,0 -1.4,-1.1 -1.4,-2.9 0,-1.6 -0.3,-3.6 -0.6,-4.4 -1,-2.7 3.4,-3 10.9,-0.6 10.4,3.2 12.5,3.1 15,-0.3 2.3,-3.1 5.7,-3.7 8,-1.3 0.8,0.8 1.6,1.2 1.8,1 0.4,-0.4 0.5,0.7 1.4,18.8 0.3,7 0.2,12.7 -0.1,12.7 -0.4,0 -1.2,-0.7 -1.9,-1.6 -1,-1.5 -1.4,-1.4 -4.1,1 l -2.9,2.5 4.2,0.1 c 3.1,0 4.5,0.5 5.3,1.9 2.1,4 0.7,13.1 -2,13.1 -0.6,0 -2.4,-1.3 -4,-2.9 z"
       id="path110" />
    <path
       d="m 1572,292.8 c -0.6,-0.7 -3.2,-5 -5.7,-9.5 -2.5,-4.5 -4.8,-8.1 -5.2,-8 -0.3,0.1 -1.6,-0.8 -2.8,-2 -2.1,-2.1 -2.1,-2.3 -0.5,-3.2 1.5,-0.9 1.5,-1 -0.5,-1.1 -1.2,0 -2.3,0.6 -2.5,1.2 -0.3,0.9 -1.2,0.8 -3.1,-0.5 -3.5,-2.3 -7.3,-2.2 -9.4,0.3 -1,1.1 -2,2 -2.4,2 -2,0 -2.6,-18 -0.6,-19.2 0.7,-0.4 4.4,-0.8 8.3,-0.8 7,0 7.1,0 6.7,2.4 l -0.5,2.4 5.9,-1.4 c 3.2,-0.7 7.9,-1.4 10.5,-1.4 5.4,0 5.3,-0.4 6.3,15.5 0.4,5.5 1.1,12.3 1.5,15 0.7,4.3 0.5,5.3 -1.3,7.3 -2.4,2.5 -3.2,2.7 -4.7,1 z"
       id="path112" />
  </g>
  <g
     fill="#7aac3b"
     id="g122"
     transform="translate(-0.59963452,-1.1551382)">
    <path
       d="m 834.6,716.6 c -5.7,-2.1 -8.8,-4.7 -11.5,-9.5 -4.4,-8 -5.2,-13.3 -5.7,-37.6 -0.3,-12.6 -1.6,-39.9 -2.9,-60.5 -1.4,-20.6 -3.1,-48.1 -3.9,-61 -0.9,-12.9 -2,-30.9 -2.6,-40 -1.3,-21.2 -3.5,-31.8 -10.9,-53.7 -6.6,-19.6 -8.7,-28.8 -9.7,-41.4 -1.4,-17.8 3.6,-32.9 13,-40 18.9,-14.3 48.2,-5.2 59.6,18.5 6.7,13.9 13.7,46 15.9,72.6 0.6,6.9 1.8,45 2.8,84.8 0.9,39.7 2,72.7 2.4,73.4 0.5,0.8 3.2,0 9.1,-2.7 21.1,-9.6 49.4,-16.5 69,-16.8 10.5,-0.2 11.8,-0.4 11.8,-1.9 0,-2.4 3.6,-2.3 13.4,0.2 20,5.1 29.9,16.7 31.3,36.5 0.6,9.6 -1.3,19.8 -5.3,27.9 -3.4,6.9 -4.8,8.3 -6.9,6.6 -1.2,-1 -2.2,-0.6 -5.3,2.2 -5.3,4.8 -10.7,6.6 -24.2,7.8 -22,2.1 -39.7,7 -79.5,22.3 -12.1,4.7 -25.4,9.4 -29.5,10.6 -9.8,2.9 -25,3.7 -30.4,1.7 z"
       id="path116" />
    <path
       d="m 1049,493.6 c 0,-2 2.6,-2.3 24,-3.6 10.2,-0.6 20.8,-1.3 23.5,-1.5 2.8,-0.3 15.8,-1.2 29,-2 13.2,-0.8 25.8,-1.7 28,-2 2.2,-0.3 15.5,-1.2 29.5,-2.1 14,-0.8 27.2,-1.8 29.3,-2.2 2.1,-0.4 6.7,-0.5 10.3,-0.4 5.4,0.3 6.4,0.7 6.4,2.2 0,1.6 -1.2,1.8 -10.7,2.3 -10.6,0.5 -59,3.6 -87.3,5.7 -33.8,2.4 -74.8,5 -78.2,5 -2.6,0 -3.8,-0.4 -3.8,-1.4 z"
       id="path118" />
    <path
       d="m 1088.8,458.2 c -2.7,-0.5 -2.1,-2 1,-2.6 1.5,-0.3 8.1,-0.8 14.7,-1.1 6.6,-0.3 14,-0.8 16.5,-1 2.5,-0.2 8.1,-0.7 12.5,-1 4.4,-0.3 22.5,-1.5 40.3,-2.6 23.7,-1.6 32.6,-1.9 33.5,-1 0.6,0.6 0.9,1.3 0.6,1.5 -0.2,0.3 -5.2,0.7 -10.9,1 -5.8,0.3 -13,0.8 -16,1.1 -6.3,0.6 -35.1,2.4 -48.5,3.1 -4.9,0.2 -14.2,0.8 -20.5,1.4 -6.3,0.5 -12.2,0.9 -13,0.9 -0.8,0 -3.1,0.2 -5,0.4 -1.9,0.1 -4.3,0.1 -5.2,-0.1 z"
       id="path120" />
  </g>
  <g
     fill="#dcae09"
     id="g130"
     transform="translate(-0.59963452,-1.1551382)">
    <path
       d="m 1077.2,706 c -28.2,-2.7 -51.9,-13.1 -70.3,-30.8 l -4.7,-4.4 2.8,-4.2 c 7.4,-10.9 9.6,-28.2 5.1,-39.8 -4.6,-11.9 -15.4,-20.1 -31.2,-23.4 -9.2,-2 -8.7,-1 -9.8,-19.7 -0.8,-14.9 0.2,-34.5 2.4,-45.2 2.5,-12.3 8.1,-28 13.6,-38.5 2.8,-5.2 5.4,-9.8 5.7,-10.2 0.4,-0.3 3.9,0.4 7.7,1.7 5.2,1.8 9.2,2.5 15.6,2.5 7.1,0 71.3,-3.9 107.4,-6.6 5,-0.3 10.8,-0.8 13,-0.9 18.3,-1.4 38.8,-2.7 48,-3 6.1,-0.3 15.3,-1 20.5,-1.5 5.2,-0.6 15.3,-1.2 22.5,-1.3 l 12.9,-0.2 4.9,8.7 c 16.2,29.3 22.4,67.1 15.6,96.4 -2.3,10 -5.4,18.4 -10.7,28.9 -13.6,26.9 -41.8,53.4 -75.2,70.4 -32.6,16.7 -65.8,23.9 -95.8,21.1 z m 44.4,-81.1 c 30.4,-5.3 55.5,-25.6 63.7,-51.4 3.3,-10.5 3,-26.4 -0.6,-35.9 -10,-25.6 -37.5,-41.3 -68.6,-39.3 -12.7,0.8 -21,3.1 -34.1,9.4 -10.4,5 -12.3,6.4 -21.1,15.2 -7.8,7.8 -10.3,11.2 -13.8,18.1 -17.9,36.2 2.1,74.5 43.6,83.4 8.2,1.7 22.7,2 30.9,0.5 z"
       id="path124" />
    <path
       d="m 1016.5,461.5 c 1.1,-0.9 2.5,-1.3 3.2,-1.1 0.6,0.3 6.7,0.1 13.5,-0.4 20.2,-1.5 55.6,-3.9 66.3,-4.5 5.5,-0.3 12.5,-0.8 15.5,-1 3,-0.2 14.3,-0.9 25,-1.5 10.7,-0.6 20.5,-1.3 21.8,-1.5 1.3,-0.2 8.2,-0.7 15.5,-1 13,-0.6 14.8,-0.8 23.7,-2 4,-0.5 8.2,0.6 7,1.9 -0.3,0.2 -5.3,0.7 -11,1 -5.8,0.3 -13,0.8 -16,1.1 -6.3,0.6 -35.1,2.4 -48.5,3.1 -4.9,0.2 -14.2,0.8 -20.5,1.4 -6.3,0.5 -12.2,0.9 -13,0.9 -0.8,0 -4.2,0.2 -7.5,0.5 -3.3,0.2 -14.9,0.9 -25.8,1.5 -10.8,0.5 -20.1,1.2 -20.5,1.4 -0.4,0.3 -7.4,0.8 -15.7,1.1 -13.6,0.6 -14.8,0.5 -13,-0.9 z"
       id="path126" />
    <path
       d="m 1043.1,445.1 c 36.9,-19.1 91.3,-24.4 128.8,-12.6 4.2,1.3 10.3,3.5 13.5,4.8 l 5.9,2.4 -12.9,0.8 c -7.1,0.4 -15.8,0.9 -19.4,1 -3.6,0.2 -10.8,0.8 -16,1.4 -5.2,0.6 -13.2,1.1 -17.8,1.1 -4.6,0 -12.5,0.4 -17.5,0.9 -8.4,0.9 -29.5,2.4 -52.2,3.6 -4.9,0.3 -11.9,0.8 -15.5,1 l -6.5,0.6 z"
       id="path128" />
  </g>
  <g
     fill="#f9f9f9"
     id="g148"
     transform="translate(-0.59963452,-1.1551382)">
    <path
       d="m 1452.5,315.6 c -3.6,-8.6 -3.6,-11.2 0.2,-18.7 4.5,-8.6 9.2,-14.2 14.9,-17.5 4,-2.4 7.4,-6.6 7.4,-9.3 0,-0.5 -1.2,-2.3 -2.6,-4 -2.2,-2.7 -3.3,-3.1 -7.3,-3.1 -2.6,0 -5.1,-0.4 -5.6,-0.9 -0.6,-0.6 -2.9,-0.7 -5.3,-0.4 -3.1,0.4 -4,0.9 -3,1.5 0.9,0.7 0.6,0.7 -0.7,0.1 -2.8,-1.2 -18.5,-0.6 -20.1,0.8 -1.9,1.6 -1.7,7 0.4,9.5 0.9,1.1 3.2,3.1 5,4.3 2.8,1.9 3.2,2.8 3.2,6.5 0,4.5 -1.4,8 -6.2,15.5 -1.5,2.5 -2.8,5 -2.8,5.7 0,0.6 -1.5,3.5 -3.2,6.3 -3.2,4.9 -3.5,5.1 -6.8,4.6 -7,-1.2 -6.5,0.1 -6.5,-18 v -16.4 l 3.4,-3.1 c 2.8,-2.7 3.2,-3.5 2.7,-6.3 -0.3,-1.7 -1.6,-4.1 -2.8,-5.4 -2.6,-2.7 -6.4,-2.9 -33.1,-1.2 -20.5,1.2 -22.7,1.8 -22.7,6.4 0,2.6 1,4.3 4.5,7.7 3.3,3.2 4.5,5.1 4.5,7.3 v 2.9 l -4.1,-3.9 c -2.2,-2.2 -6.2,-6.7 -8.9,-10 -5.8,-7.2 -16.4,-24.5 -15.6,-25.3 0.4,-0.3 5.7,-0.9 11.9,-1.3 6.1,-0.4 17.7,-1.3 25.7,-1.8 8,-0.6 15.3,-1.1 16.3,-1.1 2.4,0 6.7,-4.8 6,-6.7 -0.3,-0.8 0.7,-0.3 2.3,1.2 6.1,5.6 14,11.7 17.7,13.6 17.5,9.1 41.3,4.6 58.7,-10.9 2.5,-2.2 4.5,-3.2 7,-3.2 1.9,-0.1 9.4,-0.5 16.5,-1 33.6,-2.5 59.8,-4 60.2,-3.6 0.3,0.2 -1.9,4.5 -4.9,9.5 l -5.3,9.1 h -5 c -7.4,0 -7.9,0.6 -7.3,8.9 0.4,4.9 0.2,7.4 -0.7,8.1 -0.9,0.8 -1.4,-0.1 -1.7,-3.5 -0.3,-2.5 -1.6,-6.1 -2.9,-8 l -2.4,-3.5 -15.5,0.5 c -21.1,0.6 -24.9,1.2 -28.3,4.1 -3.6,3.1 -2.9,6.2 2.5,10.8 l 3.9,3.4 0.9,12.4 c 0.5,6.7 1,13.4 1,14.8 0,2.2 -1.1,2.9 -9.1,6.3 -8.3,3.5 -21.6,7.4 -31.2,9.1 -3.6,0.7 -3.8,0.5 -5.2,-2.8 z"
       id="path132" />
    <path
       d="M 128.5,315.9 C 73.2,312.4 23.2,277.2 7.1,230.1 1.8,214.6 -0.5,191.5 1.1,168.4 5.4,103.8 39.6,56 104.5,24.1 126,13.4 143.3,7.6 165.7,3.4 c 11.7,-2.1 45,-3 57.9,-1.5 21.3,2.5 51.4,10.1 51.4,13 0,1.5 -5.4,37 -8.1,52.8 l -1.2,7.1 -4.1,-1.7 C 244.7,65.8 213.4,62.3 190,64.9 149.8,69.5 118.5,83.4 94.5,107.5 70.9,131 60.9,154.8 62.3,184 c 0.6,13.4 3,22.7 8.9,35 5.5,11.4 16.6,22.7 28.3,28.7 18.8,9.7 41.8,11.7 63.7,5.7 l 5.6,-1.6 2.1,-11.2 c 1.1,-6.2 2.4,-13.3 2.7,-15.9 l 0.7,-4.7 H 150.1 126 l 0.6,-3.7 c 0.3,-2.1 2.2,-14.6 4.3,-27.8 l 3.7,-24 57.7,-0.3 c 31.7,-0.1 57.7,0 57.7,0.2 0,0.3 -3.8,24.9 -8.5,54.7 -4.7,29.9 -8.4,54.6 -8.3,55.1 0.2,0.5 26.6,-58.9 58.8,-131.9 L 350.5,9.5 h 38.5 38.4 l 20.5,122.8 c 11.2,67.5 20.7,122.7 21,122.7 0.3,0 18.6,-55.4 40.5,-123 l 40,-123 h 30.8 c 16.9,0 30.8,0.4 30.8,0.8 0,0.5 6.8,37.7 15,82.7 8.3,45 15,82.3 15,82.9 0,0.6 0.3,0.6 0.9,0 0.5,-0.5 15.2,-34.4 32.6,-75.4 17.4,-41 33.2,-78.2 35.2,-82.7 L 713.2,9 h 37.4 37.4 v 4.6 c 0,5.7 11.6,274.9 12.5,289.2 l 0.6,10.2 h -31 c -24.7,0 -31.1,-0.3 -31.1,-1.3 0,-0.7 -1.8,-41.5 -4,-90.7 -2.2,-49.2 -4,-90.9 -4,-92.8 0,-1.8 -0.4,-3.1 -0.9,-2.8 -0.4,0.3 -19,42.6 -41.2,94.1 L 648.5,313 h -20.6 -20.6 l -2.1,-9.7 c -1.1,-5.4 -8.9,-43.7 -17.3,-85 C 579.4,176.9 572.3,143 572,143 c -0.3,0 -12.6,38.3 -27.5,85 l -27,85 h -53 -53.1 l -7.9,-45.2 -8,-45.3 -36.6,-0.3 -36.7,-0.2 -8.8,19.7 c -4.9,10.8 -14.1,31.2 -20.4,45.2 l -11.6,25.6 -32.2,0.3 c -17.7,0.1 -32.2,0 -32.2,-0.4 0,-0.3 0.5,-1.4 1,-2.5 0.6,-1.1 2.6,-5.5 4.5,-9.9 l 3.4,-7.9 -9.2,4.9 c -27.3,14.6 -56.6,20.8 -88.2,18.9 z M 385.8,161.8 c -0.3,-1.3 -2.9,-14.8 -5.8,-30 -3,-15.3 -5.7,-27.8 -6,-27.8 -0.4,0 -24.8,53.6 -26.8,59.1 -0.2,0.5 8.4,0.9 19.3,0.9 h 19.7 z"
       id="path134" />
    <path
       d="m 881.6,313.2 -74.8,-0.2 0.5,-2.8 c 0.3,-1.5 11.2,-69.9 24.3,-152 L 855.5,9 h 86.3 86.4 l -0.6,2.7 c -0.8,4.4 -9.6,60.1 -9.6,61.3 0,0.7 -17.7,1 -55,1 -31.3,0 -55,0.4 -55,0.9 0,0.5 -1.8,12.4 -4,26.6 -2.2,14.2 -4,26.1 -4,26.6 0,0.5 20.8,0.9 48.1,0.9 h 48.1 l -0.6,2.8 c -0.8,3.9 -9.6,59.3 -9.6,60.3 0,0.5 -21.5,1 -47.7,1.1 l -47.8,0.3 -4.2,26 c -2.3,14.3 -4.2,26.8 -4.3,27.8 0,1.6 2.5,1.7 39.5,1.7 21.7,0 39.5,0.2 39.5,0.5 0,0.3 -0.8,2.2 -1.9,4.3 -1,2 -2.3,5.9 -3,8.6 -1,4.2 -1,5 0.5,6.1 1.6,1.1 1.6,1.4 0,4.6 -1.5,3 -1.6,5.1 -0.6,21.7 0.7,10.1 1,18.4 0.8,18.5 -0.2,0.1 -34,0.1 -75.2,-0.1 z"
       id="path136" />
    <path
       d="m 1644.9,313.9 c -0.3,-0.9 -2.8,-35.2 -3.2,-44.4 -0.3,-5.5 -0.5,-10.8 -0.6,-11.7 -0.1,-0.9 -1.2,-3 -2.6,-4.6 l -2.5,-2.9 -12.3,0.4 -12.4,0.5 1.3,-7.8 c 0.7,-4.4 1.3,-8.4 1.3,-9.1 0.1,-1.3 4.1,-1.9 16.1,-2.7 4.1,-0.3 15.9,-1 26.2,-1.7 10.4,-0.7 19,-1 19.3,-0.7 0.7,0.7 -2.6,25 -3.5,26.1 -0.3,0.4 -3.1,-0.6 -6.1,-2.2 -6.4,-3.4 -16.8,-5.5 -20.5,-4.1 -2.2,0.9 -2.4,1.4 -2.1,5.7 0.4,4.1 1.1,5.5 4.9,9.3 2.5,2.5 4.9,5.2 5.4,6 0.5,0.8 1.1,7.2 1.4,14.2 0.3,6.9 1,13.2 1.6,14 0.5,0.7 0.8,4.3 0.6,8.1 l -0.4,6.7 h -4.3 c -2.4,0 -5,0.3 -5.9,0.6 -0.9,0.3 -1.7,0.5 -1.7,0.3 z"
       id="path138" />
    <path
       d="m 1130,307.6 c 0,-4.7 0.4,-5.9 3.5,-9.6 1.9,-2.3 3.5,-5.1 3.5,-6.2 0,-1.1 -1.6,-3.6 -3.5,-5.5 l -3.5,-3.5 -12.8,0.7 c -7,0.4 -13.3,1.2 -13.9,1.7 -0.7,0.6 -2.9,0.7 -4.8,0.4 -1.9,-0.4 -4.1,-0.3 -4.8,0.1 -0.6,0.4 -4,0.8 -7.5,0.9 -5,0.2 -6.2,-0.1 -5.8,-1.2 0.3,-0.7 1,-5.1 1.7,-9.7 l 1.2,-8.4 11.6,-0.8 c 6.4,-0.4 16.1,-1.1 21.6,-1.6 5.5,-0.4 18.6,-1.3 29,-1.8 10.5,-0.5 22.4,-1.2 26.5,-1.5 4.1,-0.3 15.2,-1 24.5,-1.6 9.4,-0.6 26.5,-1.7 38,-2.5 45.3,-3.1 69.7,-4.6 70,-4.3 0.2,0.2 -1.9,4 -4.8,8.4 -4.6,7.4 -5.6,8.4 -11.1,10.9 -6.8,3.2 -17.5,13.3 -21.7,20.5 -2.2,3.9 -3.8,5.1 -12,9.2 -8.7,4.3 -20.6,8.8 -23.4,8.8 -1.1,0 -5.2,-11.7 -8.5,-24.2 -0.7,-2.5 -2.4,-5.8 -3.9,-7.2 l -2.6,-2.5 -16.8,0.8 c -9.2,0.5 -17,1.1 -17.4,1.5 -1.6,1.5 -0.6,16.3 1.4,22.1 3.2,9.4 3.6,11.5 1.9,11.5 -0.9,0 -2.8,-1.6 -4.3,-3.5 -2.9,-3.6 -4.3,-3.2 -4.3,1.3 v 2.2 h -23.5 -23.5 z"
       id="path140" />
    <path
       d="m 1091,222.4 c -0.1,-0.5 7.4,-48.2 16.6,-106 l 16.8,-105.1 33.8,-0.8 c 42.2,-0.9 87,0.1 95.3,2.1 16.8,4.1 36.3,17.3 47.7,32.3 10.5,14 15.4,29.2 14.5,45.6 -0.3,5.5 -1.2,12.7 -2.1,15.9 -3.7,13.4 -13.2,29.9 -25.4,44.1 l -6,7 6.3,6.7 c 6.9,7.3 12.8,15.5 16.7,23.3 2.6,5 6.8,17.5 6.8,20 0,1 -3.3,1.5 -12.7,1.9 -7.1,0.3 -18.6,1.1 -25.8,1.6 -7.1,0.6 -16.2,1.3 -20.2,1.5 l -7.2,0.4 -1.7,-3.5 c -2.3,-4.8 -9.6,-10.9 -16.3,-13.6 -5.3,-2.1 -7.2,-2.3 -37.7,-2.6 l -32.1,-0.3 -1.7,10.8 c -0.9,5.9 -1.9,11.8 -2.1,12.9 -0.5,2.4 -1.9,2.6 -32.5,4.4 -9.1,0.5 -19.8,1.2 -23.7,1.6 -4,0.3 -7.3,0.2 -7.3,-0.2 z m 128.5,-91.5 c 17,-3.1 28.5,-15.8 28.5,-31.4 -0.1,-11.4 -4.2,-18 -14.5,-22.7 -4.8,-2.2 -6,-2.3 -30.5,-2.3 h -25.5 l -4.2,24.5 c -2.2,13.5 -4.4,26.4 -4.8,28.8 l -0.6,4.2 h 22.9 c 12.5,0 25.5,-0.5 28.7,-1.1 z"
       id="path142" />
    <path
       d="m 1326.7,206.6 c -0.4,-0.9 -1.2,-7.8 -1.9,-15.2 -3.4,-39.4 8,-83.6 30.3,-116.9 21.7,-32.3 50.6,-53.8 84.5,-62.6 7.6,-2 11.3,-2.3 25.9,-2.3 15.1,0 18.1,0.3 26.7,2.7 38.4,10.3 68.4,40 83.1,82.4 9.5,27.2 11.8,56.6 6.7,86.6 -1,6 -2.1,11.1 -2.4,11.5 -0.4,0.3 -12.2,0.7 -26.4,0.9 -14.1,0.1 -28.8,0.7 -32.6,1.3 -3.8,0.6 -7,0.9 -7.2,0.7 -0.2,-0.2 0.5,-2.9 1.6,-6.1 4.9,-14.4 6.5,-25.2 6.4,-44.1 -0.1,-16.2 -0.3,-19 -2.7,-27.9 -10.6,-39.7 -38.6,-58.3 -70,-46.6 -34.5,12.9 -61.5,59.7 -62,107.5 -0.1,7.2 0.1,15.7 0.6,19 l 0.7,6.1 -28.4,1.8 c -15.7,1 -29.4,2 -30.4,2.3 -1.2,0.3 -2.2,-0.2 -2.5,-1.1 z"
       id="path144" />
    <path
       d="m 1622.9,178.7 1.4,-9.4 -36.2,-78.9 c -20,-43.4 -36.5,-79.5 -36.8,-80.1 -0.4,-1 6.9,-1.3 34.8,-1.3 h 35.4 l 19,48.5 c 10.4,26.7 19.3,49.1 19.7,49.8 0.6,0.9 1.1,0.8 1.8,-0.3 0.5,-0.8 14.4,-23.1 30.9,-49.5 l 29.9,-48 36.2,-0.3 36.2,-0.2 -1.8,2.7 c -7.2,11 -108.3,170.6 -108.6,171.5 -0.2,0.6 -5.7,1.4 -13.8,1.9 -7.4,0.4 -21.1,1.3 -30.5,1.8 -9.3,0.6 -17.5,1.1 -18.1,1.1 -0.7,0 -0.5,-3 0.5,-9.3 z"
       id="path146" />
  </g>
</svg>
