<?xml version="1.0" encoding="UTF-8" standalone="no"?>
<svg
   version="1.0"
   width="1545.3236"
   height="620.27319"
   viewBox="0 0 1545.3236 620.27319"
   preserveAspectRatio="xMidYMid meet"
   id="svg88"
   sodipodi:docname="gbh.svg"
   inkscape:version="1.1.2 (0a00cf5339, 2022-02-04, custom)"
   xmlns:inkscape="http://www.inkscape.org/namespaces/inkscape"
   xmlns:sodipodi="http://sodipodi.sourceforge.net/DTD/sodipodi-0.dtd"
   xmlns="http://www.w3.org/2000/svg"
   xmlns:svg="http://www.w3.org/2000/svg">
  <defs
     id="defs92" />
  <sodipodi:namedview
     id="namedview90"
     pagecolor="#ffffff"
     bordercolor="#666666"
     borderopacity="1.0"
     inkscape:pageshadow="2"
     inkscape:pageopacity="0.0"
     inkscape:pagecheckerboard="0"
     showgrid="false"
     inkscape:zoom="0.68481742"
     inkscape:cx="779.03976"
     inkscape:cy="360.68007"
     inkscape:window-width="1920"
     inkscape:window-height="1017"
     inkscape:window-x="-8"
     inkscape:window-y="-8"
     inkscape:window-maximized="1"
     inkscape:current-layer="svg88" />
  <g
     fill="#644343"
     id="g8"
     transform="translate(-0.94407708,-0.48979206)">
    <path
       d="m 1216.8,443.5 c -0.5,-0.5 -9.2,-2.5 -12,-2.8 -1,-0.1 -1.8,-0.9 -1.8,-1.8 0,-1.9 2.7,-2.3 30,-4 28.9,-1.8 38.1,-2.6 32,-2.7 -3,-0.1 -14.9,0.5 -26.5,1.3 -29,2 -26.5,2.3 -26.5,-2.4 v -3.8 l 6.3,-0.7 c 7,-0.7 43.3,-2.7 44.4,-2.4 0.5,0 1.5,-0.2 2.3,-0.5 0.8,-0.3 9.8,-1.1 19.9,-1.7 22.6,-1.2 23.8,-0.9 15.2,4.8 -3.7,2.3 -6.1,3.2 -9.3,3.2 -5.8,0 -11.8,1.1 -11.8,2.1 0,0.4 2.3,0.5 5,0.2 7.9,-0.9 6.5,1.7 -2.7,5.1 -7,2.7 -10.2,3.1 -31.8,4.7 -25.7,1.9 -31.9,2.2 -32.7,1.4 z"
       id="path2" />
    <path
       d="m 1377,431.6 c 0,-1.6 -0.6,-2.6 -1.5,-2.6 -2.5,0 -1.7,-3 1.1,-4 1.8,-0.7 2.4,-1.5 2,-2.6 -0.3,-0.9 -0.6,-1.8 -0.6,-2 0,-0.2 -0.7,-0.4 -1.5,-0.4 -0.8,0 -1.5,-0.7 -1.5,-1.5 0,-1.1 1.2,-1.5 4.4,-1.5 2.5,0 4.8,-0.4 5.1,-1 0.4,-0.6 6.8,-1 16,-1 9.2,0 15.6,-0.4 16,-1 0.6,-1 19.5,-1.5 19.5,-0.5 0,0.3 -0.9,1.4 -2,2.5 -1.1,1.1 -2,2.6 -2,3.4 0,1.1 -2.3,1.6 -9.7,2.1 -15,0.9 -15.3,1.4 -0.5,0.9 11.3,-0.3 13.2,-0.2 13.2,1.1 0,0.8 -0.7,1.5 -1.5,1.5 -0.8,0 -1.7,1.1 -2.1,2.4 -0.7,2.9 -1.5,3 -28.4,4.6 -9.6,0.6 -19.4,1.3 -21.7,1.6 -4.1,0.5 -4.3,0.4 -4.3,-2 z"
       id="path4" />
    <path
       d="m 1449.9,427.3 c -0.1,-1 -0.1,-2.1 0,-2.5 0,-0.5 -0.6,-0.8 -1.4,-0.8 -0.8,0 -1.5,-0.7 -1.5,-1.5 0,-1.7 3.6,-2.4 13.4,-2.8 6.5,-0.2 6.9,-0.3 5.3,-1.9 -1,-0.9 -3.7,-2 -6.1,-2.3 -3.5,-0.6 -5.4,-0.2 -9.8,1.9 -3,1.4 -5.7,2.6 -6.1,2.6 -1,0 0.5,-4 1.7,-4.1 0.6,-0.1 0.1,-0.4 -1.1,-0.7 -1.6,-0.5 -2,-1.1 -1.4,-2.1 1.2,-1.8 26.1,-3 26.1,-1.2 0,0.6 -0.4,1.1 -1,1.1 -1.4,0 -1.2,1.6 0.5,3.3 0.8,0.8 1.1,1.7 0.8,2.1 -0.4,0.3 1.5,0.6 4,0.6 3.3,0 4.7,0.4 4.7,1.4 0,0.7 -0.9,1.6 -2,1.9 -1.4,0.3 -2,1.4 -2,3.1 0,3.3 -1.7,3.4 -3.2,0.1 -0.6,-1.4 -1.9,-2.5 -2.8,-2.5 -0.9,0 -2.2,1.1 -2.8,2.5 -1.3,2.9 -4.9,3.4 -4.8,0.8 0.1,-2 -0.4,-2.3 -3.4,-2.3 -1.3,0 -2.2,0.9 -2.6,2.5 -0.7,2.9 -4.3,3.5 -4.5,0.8 z"
       id="path6" />
  </g>
  <g
     fill="#e72227"
     id="g68"
     transform="translate(-0.94407708,-0.48979206)">
    <path
       d="m 977.3,619.6 c -2.3,-0.8 -5.4,-2.3 -6.9,-3.5 l -2.7,-2.1 h 2.7 c 1.4,0 2.6,-0.3 2.6,-0.8 0,-0.4 -1.9,-0.6 -4.2,-0.4 -3.8,0.3 -4.6,0 -6.9,-3 -4.8,-6.3 -7.1,-13.4 -7.9,-25.2 -0.4,-6.1 -0.4,-11.6 0.1,-12.2 0.5,-0.6 0.4,-1.5 -0.2,-2.1 -0.6,-0.6 -1.5,-6.9 -1.9,-13.9 -1.4,-19.7 -1.4,-20.3 1.3,-21.4 l 2.2,-0.9 h -2.2 c -2.7,-0.1 -4,-2 -2.2,-3.1 0.9,-0.6 1,-1.2 0.2,-2.2 -0.7,-0.7 -1.4,-5.4 -1.7,-10.3 -0.2,-5 -1.3,-19.7 -2.2,-32.7 -1.8,-23.2 -1.8,-23.8 0.1,-25.8 1.9,-2.1 2.9,-5 1.7,-5 -0.4,0 -1.3,-0.4 -2.1,-0.9 -1.1,-0.7 -1.1,-1.3 0,-3.2 2,-3.6 2.2,-9.9 0.4,-9.9 -2.7,0 -1.6,-2.6 3.4,-7.8 8.7,-9 12.9,-10.1 48.1,-12.2 23,-1.4 59.3,-3.7 76.4,-5 7.2,-0.6 15.8,-1 19.3,-1 5.3,0 6.1,0.2 5.6,1.6 -0.5,1.4 0.2,1.6 6.3,1 3.8,-0.3 12.8,-0.8 19.9,-1.2 7.2,-0.4 14.6,-0.8 16.5,-0.9 1.9,-0.2 8.3,-0.7 14.3,-1.1 9.3,-0.6 10.7,-0.9 10.2,-2.3 -0.4,-1.4 1,-1.8 10.2,-2.8 6,-0.6 14.9,-1.2 19.8,-1.3 5,-0.1 10.8,-0.5 13,-1 2.2,-0.5 9.3,-0.9 15.9,-0.9 6.5,-0.1 12.3,-0.4 13,-0.8 0.6,-0.4 8.5,-1.1 17.6,-1.6 9.1,-0.4 23,-1.2 31,-1.7 36.7,-2.4 39.3,-2.4 38.6,-0.4 -0.5,1.8 0.1,1.9 12.7,1.2 23.7,-1.2 41.5,-2.6 42.6,-3.3 0.6,-0.3 1.1,-1.3 1.1,-2.1 0,-1.1 2.6,-1.4 14.8,-1.4 8.1,0 15.2,-0.4 15.7,-0.9 0.9,-0.8 16.1,-3.1 20.8,-3.1 1,0 1.7,0.8 1.7,2 0,2.4 0.8,2.4 20,0.9 16.1,-1.2 20.9,-1.5 40.3,-2.5 14.1,-0.6 15.1,-0.6 20.9,1.7 8.8,3.4 16.9,11.5 19.1,18.9 1.9,6.5 3,20 1.9,21.8 -0.5,0.8 -0.3,3.2 0.6,5.9 1.4,4.1 1.4,4.7 -0.1,5.7 -1.3,1 -1.3,1.4 -0.2,2.2 1.1,0.6 1.7,5.5 2.5,17.9 0.5,9.4 1.2,19.4 1.4,22.3 0.5,5.2 0.4,5.2 -2.5,5.2 -4,0 -3.9,2.8 0.1,3.7 2.6,0.5 3,1 3.1,4.2 0.2,5.5 0.5,9.8 2.2,32.6 1.9,24.6 1.3,29.8 -4.5,38.2 -7.5,11 -14.5,13.2 -47.3,14.9 -6,0.3 -13.9,0.7 -17.5,0.9 -3.6,0.2 -6.7,0.4 -7,0.5 -0.3,0.1 -0.8,0.2 -1.2,0.1 -0.4,0 -6.5,0.4 -13.5,0.9 -7,0.6 -16.8,1.2 -21.8,1.5 -4.9,0.3 -14.8,1 -22,1.5 -7.1,0.6 -18.8,1.2 -26,1.5 -7.1,0.3 -13.9,0.8 -15,1 -2,0.4 -21.9,1.8 -26.5,1.8 -3.1,0 -7.5,-1.2 -10.9,-2.9 -1.9,-1 -2.8,-1 -3.9,-0.1 -0.9,0.7 -1,1.3 -0.3,1.5 0.6,0.2 1.1,0.8 1.1,1.3 0,1 -16.8,0.1 -18.9,-1.1 -0.8,-0.4 -2.9,-0.1 -4.9,0.7 -2.2,0.9 -3.8,1.1 -4.5,0.4 -0.7,-0.5 -16.4,-1.2 -36.7,-1.6 -19.5,-0.3 -36.2,-0.6 -37,-0.7 -0.8,-0.1 -6.7,0 -13,0.1 -10,0.3 -11.1,0.4 -8,1.4 3.5,1.1 7.4,4.3 6.2,5 -0.4,0.2 0,0.2 0.8,0 6.2,-1.7 13.9,-2.2 37.5,-2.4 14.9,-0.2 27.6,0 28.3,0.4 1.9,1.3 1.4,2.4 -1,2.5 -1.3,0 -8.4,0.5 -15.8,1 -7.4,0.6 -14.2,1.1 -15,1 -3.3,-0.1 -22.3,1.3 -23,1.7 -0.3,0.2 -5.5,0.4 -11.6,0.5 -6,0.1 -13.4,0.6 -16.4,1.1 -3,0.5 -10.9,1.1 -17.5,1.4 -6.6,0.3 -17.8,0.9 -25,1.3 -7.3,0.5 -13.5,0.5 -14.2,0 -0.6,-0.5 -1.4,-0.5 -1.7,0.1 -0.3,0.5 -4.5,1.2 -9.4,1.6 -26.5,1.9 -36.3,2.6 -51.7,3.5 -9.3,0.6 -33.8,2.2 -54.4,3.5 -42.6,2.8 -39.3,2.8 -44.8,1.1 z m 28.2,-19.4 c 6.6,-0.5 12.9,-1 14,-1 1.1,0 15.3,-0.9 31.5,-2.1 43.3,-3 146.8,-9.7 154,-9.9 0.8,-0.1 11.6,-0.8 24,-1.6 12.4,-0.9 24.5,-1.5 27,-1.5 2.5,0 6.1,-0.2 8,-0.5 1.9,-0.3 11.2,-1 20.5,-1.5 9.4,-0.6 24,-1.6 32.5,-2.2 8.5,-0.7 20.3,-1.3 26.2,-1.3 6,-0.1 10.8,-0.4 10.8,-0.7 0,-0.4 5.3,-0.9 11.8,-1.3 6.4,-0.4 18,-1.1 25.7,-1.6 31.3,-2.2 44.4,-3 52.5,-3.5 4.7,-0.3 10.3,-0.7 12.5,-1 2.2,-0.2 8.7,-0.7 14.5,-1 5.8,-0.3 12.1,-0.8 14,-1 1.9,-0.3 8.7,-0.7 15,-1 15.1,-0.7 18.9,-1.3 22.4,-3.8 5.4,-3.8 6.3,-11.3 3.6,-29.5 -1.1,-7.7 -1.1,-8.4 0.6,-10.3 1.7,-1.9 1.8,-2.1 0.1,-3 -2,-1.2 -2.3,-6.5 -0.4,-7.3 0.9,-0.3 0.8,-0.8 -0.3,-1.8 -1.8,-1.6 -2.5,-6.8 -1,-6.8 0.7,0 0.5,-0.9 -0.4,-2.2 -1.8,-2.6 -2.1,-6.4 -0.6,-7.3 0.7,-0.4 0.8,-1.1 0.2,-1.8 -1.1,-1.4 -3.7,-36.4 -3,-40.2 0.3,-1.4 0.1,-2.5 -0.3,-2.5 -0.5,0 -0.9,-2.7 -0.9,-5.9 0,-4.9 0.3,-6 1.7,-6.3 1.6,-0.3 1.5,-0.6 -0.5,-2.6 -1.7,-1.7 -2.2,-3.4 -2.2,-7.1 0,-10.6 -2.6,-15.1 -9.9,-17.1 -3.8,-1 -33.2,0.4 -74.6,3.7 -4.9,0.3 -10.2,0.7 -11.8,0.8 -1.5,0.1 -3,0.5 -3.4,0.8 -0.3,0.4 -7.5,0.7 -15.9,0.7 -9.1,0 -15.5,0.4 -15.9,1 -0.3,0.6 -4.9,1 -10.4,1 -5.3,0 -15.5,0.4 -22.7,1 -7.1,0.5 -18.1,1.2 -24.4,1.4 -10.4,0.4 -16.3,0.9 -28.5,2.1 -2.2,0.2 -10.5,0.6 -18.5,1 -8,0.4 -14.9,1 -15.5,1.5 -0.5,0.4 -7.7,0.8 -15.9,0.9 -8.4,0.1 -15.7,0.6 -16.8,1.2 -1.1,0.6 -3.4,0.8 -5,0.5 -3.9,-0.8 -14.8,0.4 -14.8,1.7 0,0.6 1.7,0.7 4.3,0.3 2.3,-0.4 8.5,-0.9 13.7,-1.1 5.2,-0.2 17.4,-0.9 27,-1.5 9.6,-0.7 22.5,-1.5 28.7,-1.8 l 11.2,-0.7 -2.7,2.3 -2.7,2.2 3.5,-0.4 c 5,-0.7 24.9,-1.9 35.5,-2 5,-0.1 9.6,-0.5 10.2,-0.9 0.6,-0.4 2.2,-0.7 3.4,-0.6 6.8,0.2 26.9,-1.2 29.2,-2 1.5,-0.6 2.7,-1.7 2.7,-2.5 0,-1.1 2.3,-1.6 9.8,-2 5.3,-0.4 15.8,-1.1 23.3,-1.6 18.4,-1.3 19.9,-1.3 19.9,0.5 0,2.5 9.6,2.1 11.2,-0.5 0.8,-1.2 2.3,-2 3.8,-2 2.2,0.1 2.3,0.2 0.8,1.1 -1,0.5 -1.8,1.5 -1.8,2.1 0,0.6 0.8,0.7 1.8,0.3 0.9,-0.3 5.3,-0.9 9.7,-1.2 8.4,-0.5 9.8,-0.9 7.6,-2.2 -1,-0.6 -0.9,-1 0.4,-1.4 0.9,-0.4 2.5,0.2 3.8,1.4 1.8,1.7 3.1,1.9 8,1.5 20.6,-1.9 26.1,-1.8 29.4,0.3 6.6,4.2 6.9,5.5 8.8,42.6 0.3,6.1 0.8,12.6 1,14.5 1.6,12.1 2.7,43.8 1.6,44.4 -1,0.6 -2,-2.1 -2,-5.4 0,-0.8 -0.4,-4.2 -0.9,-7.5 -0.7,-4.3 -0.6,-6.2 0.2,-6.7 0.8,-0.6 0.8,-1 0,-1.5 -0.6,-0.5 -1.1,-2.4 -1.1,-4.3 0,-1.9 -0.3,-7.1 -0.7,-11.5 -0.4,-4.4 -1.1,-14.1 -1.6,-21.5 -0.5,-7.4 -1.1,-16.2 -1.4,-19.5 -0.3,-3.3 -0.5,-8.3 -0.5,-11.2 -0.1,-4.7 -0.4,-5.4 -3.4,-7.7 -1.9,-1.4 -4.5,-2.6 -5.8,-2.7 -2.1,-0.1 -29.4,1.5 -43.9,2.6 -7.7,0.6 -33.7,2.3 -44.5,3 -4.9,0.3 -16,1 -24.5,1.5 -8.5,0.6 -22.5,1.4 -31,2 -8.5,0.5 -18,1.1 -21,1.4 -3,0.3 -13.1,1.1 -22.5,1.6 -25.6,1.6 -27.5,1.9 -30.9,3.6 -3.2,1.6 -11.8,2.4 -45.1,4.4 -9.9,0.6 -19.3,1.3 -21,1.5 -1.8,0.3 -2.6,0.2 -2,-0.4 0.6,-0.5 14.2,-1.8 30.3,-2.9 16.1,-1.2 29.7,-2.4 30.2,-2.7 0.6,-0.3 1,-1.6 0.9,-2.8 v -2.2 l -1.6,2.3 c -1.3,1.8 -2.5,2.2 -6.9,2.2 -3,0 -10.9,0.4 -17.6,1 -12.3,1 -40.5,2.9 -50.8,3.5 -10.9,0.7 -23.7,1.5 -33,2.2 -5.2,0.4 -9.9,0.6 -10.3,0.5 -0.4,-0.1 -5.6,0.2 -11.5,0.8 -5.9,0.5 -16.8,1.2 -24.2,1.6 -7.4,0.3 -13.8,0.8 -14.1,1 -0.4,0.2 -7.6,0.6 -16,0.9 -8.5,0.3 -16.1,0.7 -16.9,1 -4,1.1 -38,2.7 -38,1.7 0,-2.4 16.1,-4.8 20.9,-3 1.7,0.6 2.7,0.5 3.2,-0.3 0.9,-1.6 15.4,-2.5 16.3,-1.1 0.4,0.7 1.5,0.6 3.4,-0.4 1.9,-0.9 6.1,-1.4 13.8,-1.4 6.1,0 13.5,-0.4 16.5,-0.9 3,-0.6 10.1,-1.2 15.9,-1.5 5.8,-0.2 20.4,-1.2 32.5,-2 12.1,-0.8 25.8,-1.7 30.5,-2 4.7,-0.3 8.7,-0.5 8.9,-0.5 0.3,-0.1 0,-0.6 -0.7,-1.3 -2.1,-2.1 -1.3,-2.7 4.1,-3.1 2.8,-0.2 0.3,-0.4 -5.8,-0.5 -6,-0.1 -20.2,0.5 -31.5,1.3 -11.3,0.8 -24.5,1.7 -29.5,2 -4.9,0.3 -12.4,0.8 -16.5,1.2 -10.2,0.8 -12.5,0.9 -27.3,1.3 -7,0.2 -13,0.6 -13.2,1 -0.2,0.3 -5,0.7 -10.6,0.8 -5.7,0.2 -10.6,0.5 -11,0.8 -0.4,0.2 -5.7,0.6 -11.9,0.9 -7.7,0.4 -11.7,0.2 -12.6,-0.6 -1.1,-0.9 -1.8,-0.8 -3,0.2 -0.9,0.7 -4.2,1.4 -7.3,1.5 -3.1,0.1 -8.1,0.5 -11.1,0.8 -3,0.3 -9.5,0.8 -14.5,1 -21.7,1.2 -24.5,2 -28,7.9 -1.6,2.6 -1.7,4.5 -1.1,16.1 0.4,7.2 1.1,18.1 1.6,24.1 0.5,6.1 1.2,16.5 1.6,23.3 l 0.6,12.2 h -3.3 c -3.9,0 -3.2,1.3 0.8,1.4 2.6,0.1 2.8,0.4 2.8,4.6 0,2.5 0.4,6.1 0.7,8 0.4,1.9 1,8.3 1.3,14.2 l 0.5,10.6 -6.2,0.7 c -8.3,0.9 -9.8,1.3 -9.8,3.1 0,1.8 6.2,5.6 7.3,4.5 0.5,-0.5 2.4,-0.5 4.3,-0.1 1.9,0.4 3.4,0.5 3.4,0.1 0,-0.3 0.5,0.1 1,0.9 0.5,0.8 1,4.1 1,7.3 0,8.4 3.6,15.8 8.4,17.6 2.1,0.8 6.9,0.7 24.1,-0.7 z"
       id="path10" />
    <path
       d="m 984.7,593 c -4,-3.2 -5.7,-7.2 -5.7,-13.2 0,-5.1 1.2,-8.9 2.3,-7.2 0.2,0.5 0.8,3.7 1.2,7.1 0.5,5 1.3,7 3.6,9.4 2.7,2.9 3.1,3 8.6,2.5 4.9,-0.5 34.2,-2.4 62.8,-4.1 3.9,-0.2 10.4,-0.6 14.5,-0.9 4.1,-0.3 11.3,-0.8 16,-1.1 13.2,-0.8 23.9,-1.5 30.7,-2 4.1,-0.4 6.9,-0.1 8.3,0.7 1.4,0.9 2.3,1 2.8,0.3 1.2,-1.8 7.7,-1.8 9.1,-0.1 0.8,0.9 1.2,1.6 1,1.6 -18.3,1 -55.2,3.2 -89.4,5.5 -62.6,4.2 -62.4,4.2 -65.8,1.5 z"
       id="path12" />
    <path
       d="m 1143.3,583.6 c 2,-1.5 8.3,-2.3 25.7,-3.1 6.3,-0.3 12.4,-0.8 13.6,-1 1.1,-0.2 10.9,-0.9 21.7,-1.5 10.8,-0.5 21.8,-1.2 24.5,-1.5 17.7,-1.8 52.1,-3.5 54.5,-2.6 1.5,0.6 4.8,0.8 7.4,0.6 9,-0.8 21.6,-2.5 22.3,-3 2.7,-1.6 59,-4.1 59,-2.7 0,1.6 -4,2.1 -22,3.2 -9.1,0.5 -23,1.4 -31,2 -8,0.5 -21.6,1.4 -30.2,2 -8.7,0.5 -22.9,1.5 -31.5,2 -8.7,0.6 -19.2,1.3 -23.3,1.5 -4.1,0.2 -13.8,0.9 -21.5,1.4 -7.7,0.6 -21.4,1.5 -30.5,2.1 -9.1,0.6 -19.1,1.3 -22.3,1.6 -3.9,0.4 -6.3,0.2 -7.3,-0.7 -1.1,-0.9 -1.8,-0.9 -2.6,-0.1 -0.7,0.7 -2.8,1.2 -4.7,1.2 -3.3,-0.1 -3.4,-0.2 -1.8,-1.4 z"
       id="path14" />
    <path
       d="m 978.7,567.3 c -0.5,-0.9 -1.5,-13.1 -3.2,-39.3 -0.3,-5.2 -0.8,-12.4 -1.1,-16 -0.4,-3.6 -0.8,-10.3 -1,-15 -0.2,-4.7 -0.7,-12 -1.2,-16.2 -0.7,-6.7 -0.7,-11.6 -0.2,-21.2 0.1,-1.9 5,-6.6 8.3,-7.9 1.6,-0.6 14.3,-1.6 49.2,-3.9 3.4,-0.3 4,0 4.3,1.8 0.3,2 -0.2,2.2 -6,2.3 -3.5,0 -8.5,0.3 -11.3,0.6 -2.7,0.3 -10.8,0.8 -18,1.1 -15.3,0.8 -20.5,2 -22.3,5.4 -1.4,2.7 -1,23 0.9,39.3 0.6,6.1 0.6,9.4 -0.2,10.8 -0.7,1.4 -0.7,2.4 0,3.3 1,1.1 2.1,13.1 3.7,37.3 1.1,17 1.1,18.3 -0.2,18.3 -0.7,0 -1.5,-0.3 -1.7,-0.7 z"
       id="path16" />
    <path
       d="m 1005.3,566.1 c -1.4,-1.1 -3.1,-1.7 -4.3,-1.4 -2.9,0.8 -2.5,-0.9 1.1,-3.9 3,-2.7 3,-2.8 2.4,-10.5 -0.3,-4.3 -0.7,-10.4 -1,-13.5 -0.2,-3.4 0,-6 0.7,-6.4 0.7,-0.5 0.7,-0.8 0,-1.3 -1.1,-0.6 -2.4,-14 -3.8,-36.9 -0.6,-11.1 -0.7,-11.3 -3.4,-12.7 -3.1,-1.6 -4.8,-5.1 -3.2,-6.7 1.2,-1.2 18,-2.7 30.3,-2.8 7,0 8.8,0.3 9.3,1.6 0.8,2.1 -0.9,5.1 -3.4,5.9 -1.1,0.3 -2,1.4 -2,2.3 0,0.9 0.7,11.8 1.5,24.2 0.9,12.4 1.8,28.1 2.1,35 0.7,16 0.8,16.6 5,20.4 2.3,2.1 3.3,3.7 2.9,4.8 -0.9,2.3 -8.1,3.4 -11.3,1.7 -1.9,-1.1 -2.6,-1.1 -2.9,-0.2 -0.3,0.9 -1,0.9 -2.9,0.1 -1.9,-0.9 -3,-0.9 -4.5,0 -3.6,2.3 -10.2,2.5 -12.6,0.3 z"
       id="path18" />
    <path
       d="m 1408.5,566.9 c -1.1,-1.6 -0.4,-1.8 6.3,-2 3.4,-0.1 6.2,-0.5 6.2,-0.9 0,-0.4 5.7,-1 12.8,-1.4 24.7,-1.3 30.7,-1.7 32,-2.1 0.6,-0.3 5.8,-0.5 11.5,-0.5 5.6,-0.1 13.6,-0.6 17.8,-1.1 5.5,-0.8 8.2,-0.8 9.7,0 1.6,0.9 3.2,0.7 6.7,-0.5 2.6,-0.8 4.9,-1.3 5.2,-1.1 0.9,1 -4.7,3.9 -6.2,3.3 -0.9,-0.3 -1.4,-0.2 -1.1,0.3 0.5,0.7 -9.3,1.4 -38.4,2.7 -5.8,0.3 -13,0.9 -16,1.3 -3,0.5 -11.8,0.9 -19.5,0.9 -8.2,-0.1 -15.2,0.4 -16.8,1.1 -3.6,1.4 -9.4,1.4 -10.2,0 z"
       id="path20" />
    <path
       d="m 1044,564 c -1.6,-2.9 -1.3,-3.5 2.4,-5 3.4,-1.3 3.5,-1.4 3,-5.9 -0.3,-2.5 -0.7,-8.9 -1,-14.1 -0.4,-10.3 -1.7,-19.6 -2.7,-20.6 -0.3,-0.3 -2.1,-0.1 -3.9,0.5 -2.8,1 -3.5,0.9 -4.5,-0.6 -0.7,-0.9 -1.3,-2.5 -1.3,-3.5 0,-1.5 0.8,-1.8 4.5,-1.8 3.2,0 4.7,-0.5 5.2,-1.5 0.3,-0.9 0,-8.7 -0.6,-17.3 -0.9,-12.6 -1.5,-15.9 -2.8,-16.7 -3.3,-2 -5.4,-4.7 -5.1,-6.3 0.3,-1.4 1.7,-1.7 9.3,-1.7 5,0 9.8,-0.4 10.8,-0.9 1,-0.5 5.7,-0.9 10.4,-1 7.2,-0.1 8.7,0.2 9.7,1.7 0.9,1.5 0.6,2.2 -2.1,4.5 l -3.2,2.7 0.5,9 c 0.3,5 0.9,13.7 1.3,19.5 0.9,11.5 0.7,12.7 -1.7,13.3 -1.6,0.4 -1.6,0.5 -0.1,0.6 2.2,0.1 2.9,2.1 3.6,9.8 0.6,6.1 0.5,6.3 -1.8,6.3 -1.3,0 -1.9,0.4 -1.4,0.8 2.4,1.7 4.5,7.3 4.5,12.1 0,4.5 0.4,5.4 3.4,8.2 2.2,1.9 3.2,3.7 2.9,4.6 -0.5,1.3 -0.9,1.2 -2.2,-0.5 -1.6,-2 -3.1,-2.6 -6.1,-2.3 -0.9,0.1 -0.4,0.8 1.3,1.7 3.5,1.9 3,4 -0.9,3.7 -1.6,-0.1 -5.1,0.3 -7.8,0.8 -3.3,0.6 -5.3,0.6 -6,-0.1 -1.3,-1.3 -3.7,-1.3 -3.3,0.1 0.1,0.7 -2.3,1.2 -6.5,1.5 -5.9,0.3 -6.9,0.1 -7.8,-1.6 z"
       id="path22" />
    <path
       d="m 1131.5,558 c -0.5,-1.7 -0.3,-2.7 0.9,-3.5 2.3,-1.8 2.8,-6.3 1.3,-12 l -1.3,-5 -8.1,-0.1 c -4.5,-0.1 -8.5,-0.4 -9,-0.7 -0.5,-0.3 -0.7,-2.2 -0.5,-4.1 l 0.4,-3.6 h 5.7 c 7.8,0 8.5,-0.6 7.2,-6.6 -1.4,-6.9 -3.6,-15.2 -5.3,-20 -1.4,-3.8 -1.3,-4 0.5,-4 2.8,0.1 3.3,-2.2 0.6,-2.6 -1.8,-0.2 -2.7,-2.1 -5.6,-10.8 -1.9,-5.8 -3.4,-11.8 -3.3,-13.5 0,-1.6 0,-4 0,-5.1 0,-1.9 0.8,-2.2 6.8,-2.8 13.3,-1.4 18.1,-1.5 19,-0.3 0.5,0.7 1.4,3.1 1.9,5.5 l 1.1,4.2 -4.2,0.2 -4.1,0.1 4.5,0.6 4.5,0.6 2.7,10 c 1.5,5.5 2.7,10.3 2.8,10.8 0,0.4 -2.6,0.8 -5.7,0.8 -3.2,0.1 -4.9,0.3 -3.8,0.6 1.1,0.3 2.4,0.9 3,1.4 0.5,0.5 2,0.9 3.5,0.9 4.6,0 4,-1.1 11.5,25.4 2,7 3.4,13.4 3.1,14.2 -0.3,0.8 -1.6,1.4 -2.8,1.5 -1.8,0.1 -1.6,0.3 0.9,1 2.5,0.7 3.7,2 5.2,5.4 1.1,2.5 2.7,4.8 3.5,5.1 2.1,0.8 2.8,3.4 1.5,5 -1.8,2.2 -6.8,1.7 -10.1,-1.1 -1.6,-1.4 -3.3,-2.5 -3.8,-2.5 -1.6,0 -2.2,2.1 -1.1,3.4 1.6,1.9 0.1,2.3 -12.2,3.2 -10.3,0.6 -10.5,0.6 -11.2,-1.6 z"
       id="path24" />
    <path
       d="m 1207.4,555.8 c -2.2,-1.7 -2.6,-1.8 -1.4,-0.4 1.4,1.8 1.3,1.8 -2,1.1 -8.3,-1.8 -12.7,-3.9 -17.2,-8.3 -2.7,-2.5 -4.8,-5.1 -4.8,-5.8 0,-0.6 -0.9,-1.9 -2,-2.9 -4.2,-3.8 -9,-22.2 -9,-34.5 0,-3.6 0.4,-7 0.8,-7.6 0.8,-1.3 6.8,-3.5 7.5,-2.7 0.3,0.2 2,0.7 3.9,0.9 1.8,0.3 3.8,0.6 4.3,0.8 0.6,0.2 2.4,-0.3 4,-1 l 3,-1.3 -3.5,-0.1 c -2,0 -4.1,-0.5 -4.7,-1.1 -0.7,-0.7 -2.2,-0.9 -4,-0.4 -5.7,1.5 -9.4,1.5 -10,-0.1 -0.3,-0.8 -0.1,-2 0.6,-2.7 0.6,-0.6 1.1,-2.4 1.1,-3.9 0,-9.3 12.8,-24.3 24.2,-28.4 5.4,-1.9 6.5,-1.4 7,3 0.3,2.9 0,3.7 -1.5,4.2 -3.6,1.1 -4.7,6.4 -4.3,19.6 0.3,6.8 0.7,14.1 1,16.3 0.3,2.2 0.8,8.5 1,14 0.3,5.5 0.8,13.5 1.2,17.8 l 0.7,7.7 h -4.4 c -3.5,0.1 -4,0.3 -2.6,1.1 0.9,0.5 2.2,0.7 2.7,0.4 1.7,-1.1 4.7,0.4 5.8,3 0.7,1.4 2.3,3 3.6,3.5 1.9,0.7 2.5,1.7 2.8,5 0.2,2.3 0.1,4.3 -0.3,4.6 -0.4,0.2 -2,-0.6 -3.5,-1.8 z"
       id="path26" />
    <path
       d="m 1217.9,556.2 c -0.1,-0.4 -0.2,-2.4 -0.3,-4.4 -0.1,-2.9 0.3,-3.8 1.5,-3.8 0.9,0 2.8,-0.9 4.1,-2 1.4,-1.1 3.7,-2.4 5.2,-3 1.4,-0.5 2.6,-1.6 2.6,-2.4 0,-0.8 0.9,-1.8 2,-2.1 1.5,-0.5 1.9,-1.2 1.4,-2.7 -0.9,-2.9 0.4,-8.5 2.2,-9.2 0.8,-0.3 2.5,-0.1 3.6,0.5 1.7,0.9 1.9,1.7 1.3,4.7 -1.4,7.8 -9,18.8 -14.9,21.9 -3.9,2 -8.6,3.3 -8.7,2.5 z"
       id="path28" />
    <path
       d="m 1255.8,551.4 c -2,-1.9 -0.7,-5.9 2.3,-7.7 2,-1.1 2.9,-2.2 2.5,-3.2 -0.8,-2.1 -2.5,-24.5 -3.1,-39.8 -0.2,-7 -0.6,-13.1 -0.8,-13.5 -0.3,-0.4 -0.5,-2.5 -0.4,-4.8 0,-2.2 -0.4,-7.1 -0.7,-10.7 -0.7,-5.9 -1.1,-7 -3.7,-8.9 -3.4,-2.6 -3.9,-6.4 -0.9,-7.3 2.6,-0.8 6.6,-1.2 22.5,-2 12.2,-0.6 13.2,-0.5 14.8,1.3 1.7,1.8 1.7,2.1 0.2,3.4 -5.8,4.7 -5.7,4.6 -4.9,11.1 0.4,3.4 0.7,8.7 0.7,11.7 0,4.5 -0.3,5.4 -1.7,5.2 -2.1,-0.4 -2,1.3 0.3,3.5 2,2 2.8,7.1 3.6,23.8 1.2,23.9 2.1,28.9 5.6,29.8 2.7,0.7 3.6,3.7 1.5,5.3 -1,0.7 -4.3,1.5 -7.4,1.8 -11.7,1.1 -29.7,1.8 -30.4,1 z"
       id="path30" />
    <path
       d="m 1299.7,548.3 c -1.4,-1.3 -0.6,-4.7 1.5,-7 l 2.1,-2.3 -2.7,-7.2 c -11.3,-29.8 -11.3,-29.8 -5.5,-39.4 6.9,-11.3 11.9,-22.5 11.9,-26.4 0,-3.2 -0.5,-4.1 -4,-6.4 -4,-2.7 -5,-5.2 -2.8,-7.4 1.4,-1.4 11.6,-1.6 13.8,-0.2 1,0.6 2,0.4 3.1,-0.6 1.1,-1 1.9,-1.2 2.4,-0.5 0.3,0.6 2.6,1.1 5.1,1.1 3.1,0 4.6,0.5 5.1,1.5 0.7,2 -2.3,5.3 -6.4,7 -2.1,0.9 -4.4,3.2 -6.2,6.2 -1.6,2.6 -3.9,6.4 -5.1,8.3 -2.1,3.2 -2.1,3.6 -0.7,8 0.8,2.5 4.5,11.5 8.1,20 3.7,8.5 7.5,17.5 8.5,20 1.1,2.5 2.7,6.5 3.7,9 1.1,2.4 3.4,6 5.3,7.8 5.3,5.4 3.8,6.5 -10.5,7.8 -13.8,1.4 -25.8,1.7 -26.7,0.7 z"
       id="path32" />
    <path
       d="m 1349.4,543.4 c -0.5,-1.8 -0.3,-2.9 0.5,-3.2 0.6,-0.2 1.9,-1.1 2.7,-2 1.7,-1.7 1.7,-6.1 -0.4,-41.2 -0.5,-7 -0.4,-11.8 0.2,-12.2 0.6,-0.4 0.5,-1.3 -0.3,-2.2 -0.8,-1 -1.5,-5.7 -1.8,-12.3 l -0.5,-10.8 -3.6,-3.1 c -2.2,-1.9 -3.3,-3.6 -3,-4.6 1,-2.4 8.5,-3.9 21.2,-4.1 l 12,-0.2 0.7,3.5 c 0.4,1.9 1,9.4 1.3,16.7 l 0.7,13.2 -4.8,0.4 -4.8,0.3 4.7,0.2 c 4.1,0.2 4.8,0.5 5.2,2.5 0.5,2.3 1.2,13.4 2.3,37.1 l 0.6,13.9 -2.6,-0.5 c -1.5,-0.3 -2.7,-0.2 -2.7,0.3 0,0.4 1.2,0.9 2.8,1.1 2.3,0.3 2.7,0.8 3,4 0.3,3.6 0.3,3.7 -4,4.2 -2.4,0.3 -9.8,0.8 -16.5,1.2 l -12.2,0.6 z"
       id="path34" />
    <path
       d="m 1389.7,542.3 c -0.4,-0.3 -0.7,-1.2 -0.7,-1.9 0,-1.6 4.3,-6.4 5.7,-6.4 1.8,0 8.8,-8.4 10.8,-13 1.1,-2.5 2.8,-5.3 3.9,-6.3 3.3,-3.5 4.4,-0.5 5.2,13.9 l 0.7,13.1 -4.8,0.6 c -6.2,0.9 -20,0.9 -20.8,0 z"
       id="path36" />
    <path
       d="m 1426,538.5 c -1.2,-2.2 -1,-2.7 1.9,-5.4 l 3.1,-2.9 -0.5,-10.4 c -0.2,-5.6 -0.6,-11.4 -0.9,-12.8 -0.3,-1.4 -0.7,-7.3 -1,-13.2 -0.5,-10.8 -0.5,-10.8 2,-11.4 2.8,-0.7 3.2,-2.4 0.5,-2.4 -3.2,0 -4.2,-2.5 -4.2,-10.2 0.1,-12.5 -0.7,-15.5 -4.5,-18.5 -1.9,-1.4 -3.4,-3.3 -3.4,-4.3 0,-2.2 4.1,-3.8 9.5,-3.9 8.6,-0.1 15.5,-1.3 15.5,-2.7 0,-1.7 0.5,-1.7 2.8,-0.4 0.9,0.5 2.9,1.4 4.3,1.9 2.5,0.9 2.6,1.1 3.2,13.3 1.1,19 2.9,48.8 4.5,70.8 0.5,6.3 0.6,11.9 0.2,12.3 -0.4,0.4 -6.1,1.2 -12.6,1.7 -18.2,1.4 -18.9,1.4 -20.4,-1.5 z"
       id="path38" />
    <path
       d="m 1103.3,537.9 c -0.7,-0.7 -0.8,-2.1 -0.3,-3.8 0.5,-1.4 1.1,-4.2 1.3,-6.1 1.2,-8.6 2.9,-18.6 3.4,-20 0.3,-0.8 0.5,-1.9 0.4,-2.4 -0.1,-0.5 0.1,-2.2 0.4,-3.7 0.5,-2.4 1.2,-2.9 3.6,-2.9 1.9,0 2.9,0.5 2.9,1.5 0,0.8 -1.3,9.5 -3,19.2 -1.6,9.7 -3,18 -3,18.4 0,1.3 -4.4,1.1 -5.7,-0.2 z"
       id="path40" />
    <path
       d="m 1466.1,537.7 c -2,-2 -1,-7.7 1.4,-7.7 1.8,0 4.8,-3.7 4.2,-5.2 -0.2,-0.7 -0.1,-2 0.4,-2.9 0.5,-0.9 0.4,-2.9 -0.1,-4.5 -1.5,-4.9 -3.3,-36.4 -2.1,-37.8 0.7,-0.9 0.7,-1.6 -0.1,-2.4 -0.6,-0.6 -1.3,-4.8 -1.5,-9.4 -0.5,-11.4 -1.8,-15.2 -6.3,-18.3 -2,-1.4 -4.4,-2.5 -5.3,-2.5 -3.1,0 -1.8,-2.5 2.3,-4.3 2.2,-0.9 4.6,-1.7 5.3,-1.7 0.7,0 2.2,-0.7 3.3,-1.5 2.6,-2 3.6,-1.9 2.9,0.4 -0.4,1.4 0.2,2.2 2.7,3.2 4.9,2 14.4,10.4 17.3,15.2 2.7,4.7 6,13.9 7,19.7 1.8,10.3 0,31.9 -3.1,36.7 -0.8,1.2 -1.4,2.8 -1.4,3.6 0,1.9 -7.4,11.7 -10.4,13.6 -1.3,0.9 -3.4,2.4 -4.7,3.3 -3.3,2.4 -10.4,3.9 -11.8,2.5 z"
       id="path42" />
    <path
       d="m 1394.7,507.8 c -1.3,-2.9 -3.9,-6.5 -5.6,-8.1 -4.2,-3.7 -4.2,-8.1 -0.1,-12.7 1.7,-1.8 3,-3.7 3,-4.1 0,-0.4 1,-0.9 2.2,-1.3 2.2,-0.5 2.2,-0.6 0.4,-1.9 -2.6,-1.9 -1.7,-5.2 1.4,-5.2 2,0 2.5,0.5 2.8,3 1.5,16.7 2.4,32.6 1.9,33.9 -1.2,3 -3.5,1.6 -6,-3.6 z"
       id="path44" />
    <path
       d="m 1233,490.8 c -0.8,-1.3 -1.4,-2.6 -1.5,-2.9 -0.1,-1.8 -6.3,-13.8 -8.4,-16.2 -1.4,-1.5 -4.6,-4.1 -7.2,-5.6 -3.6,-2.3 -4.7,-3.6 -5.1,-6.1 -0.6,-4.3 0.7,-4.6 9.2,-1.8 l 7.2,2.3 2.3,-3 c 2.1,-2.5 2.7,-2.7 4.8,-1.8 2,1 2.5,2.1 3,7.4 0.4,3.4 0.7,8.5 0.7,11.3 0,4.9 -0.1,5.2 -2.7,5.1 -3.9,0 -4,2.3 -0.1,3.3 2.4,0.6 3.4,1.5 3.6,3.1 0.9,6.3 -2.8,9.4 -5.8,4.9 z"
       id="path46" />
    <path
       d="m 1405.2,472.8 c -0.5,-0.7 -1.9,-3.2 -3.1,-5.6 -1.2,-2.4 -3.6,-5.8 -5.3,-7.5 l -3,-3.2 3.3,-0.7 c 2.7,-0.5 2.2,-0.6 -2.1,-0.5 -3,0 -7,-0.3 -8.7,-0.7 -3,-0.7 -3.3,-1.1 -3.3,-4.6 v -3.8 l 11.6,-0.7 c 6.4,-0.4 11.9,-0.3 12.4,0.1 0.4,0.5 1.2,6.5 1.8,13.4 1,12 0.6,15 -1.8,15 -0.4,0 -1.2,-0.6 -1.8,-1.2 z"
       id="path48" />
    <path
       d="m 570,123.3 c -12.8,-2.2 -28.5,-10.9 -37,-20.7 -4.7,-5.3 -10.1,-15.1 -12.3,-22.1 -2.8,-9.1 -2.9,-27.3 -0.2,-35 3.9,-11.4 7.9,-18 15.6,-25.7 6,-6.1 9.4,-8.6 16,-11.8 17,-8.1 -0.8,-7.5 219.4,-7.5 219.9,0 202.8,-0.6 219,7.4 14.8,7.3 25.7,19.8 31.1,35.6 2.3,6.7 2.7,9.8 2.8,19 0,18.3 -5.6,31.8 -18.5,43.9 -7.3,6.9 -12.7,10.3 -23.3,14.3 l -7.1,2.8 -201.5,0.1 c -110.8,0.1 -202.6,0 -204,-0.3 z m 404.8,-14.9 c 16.5,-4.7 28.3,-15.7 33.4,-31.2 2.2,-6.8 2.4,-21.6 0.3,-28.5 -4.9,-16.3 -19.7,-29.5 -36.4,-32.7 -7.3,-1.4 -393.7,-1.4 -401.2,0 -12.7,2.4 -27.2,12.7 -32.5,23.2 -4.5,8.8 -5.7,13.9 -5.7,23.4 -0.1,21.5 12.3,38.5 32.7,45 l 7.1,2.2 198.3,0.1 c 179.6,0.1 198.9,-0.1 204,-1.5 z"
       id="path50" />
    <path
       d="m 773.3,93 c -4.6,-1 -8.3,-3 -12.6,-6.9 -4.2,-3.8 -6,-7.9 -6.1,-13.7 -0.2,-15 18.1,-25.5 34.5,-19.9 8.1,2.8 15.9,11.3 15.9,17.5 0,1.9 -0.6,2 -16.5,2 H 772 v 6.5 c 0,5.7 0.3,6.9 2.5,9 4.8,4.9 12,2.4 13.1,-4.6 l 0.7,-3.9 h 7.9 7.9 l -1.8,3.1 c -4.8,8.3 -17.8,13.2 -29,10.9 z"
       id="path52" />
    <path
       d="m 885.4,92.1 c -8.2,-2 -14.6,-9.2 -16,-17.7 -0.7,-4.6 2,-12 5.9,-16.2 5.4,-5.8 14.7,-7.8 22,-4.7 2,0.8 3.9,1.5 4.2,1.5 0.3,0 0.5,-4.7 0.5,-10.5 V 34 h 8 8 V 62.5 91 h -7.9 c -5,0 -8.1,-0.4 -8.3,-1.1 -0.3,-0.8 -1.3,-0.7 -3.4,0.4 -3.9,2 -9.2,2.7 -13,1.8 z m 14.3,-7.3 c 2.1,-2 2.3,-3 2.3,-12.3 0,-8.8 -0.3,-10.6 -2.1,-12.9 -2.6,-3.3 -7.5,-3.5 -10.7,-0.6 -2,1.9 -2.2,3.1 -2.2,12.8 0,12.8 1.1,15.2 6.7,15.2 2.4,0 4.5,-0.8 6,-2.2 z"
       id="path54" />
    <path
       d="M 938.5,91 C 924.7,84.4 921,69.9 930.3,59.3 c 11.1,-12.6 35.5,-10.4 42.8,3.8 5.4,10.7 0,23.2 -12.4,28.4 -5.3,2.2 -17.2,2 -22.2,-0.5 z m 15,-2.2 c 3.6,-1.6 4.8,-6.6 4.3,-19.2 -0.3,-10.4 -0.4,-10.9 -3.1,-13.2 -3.7,-3.2 -6.2,-3 -9.8,0.5 -2.9,2.9 -2.9,3 -2.9,15.1 0,12.1 0,12.2 2.9,15.1 3.2,3.2 4.7,3.5 8.6,1.7 z"
       id="path56" />
    <path
       d="M 569,62.5 V 34 h 8.8 c 7.9,0 9,0.2 9.8,2 1.9,4.1 22.9,37.9 23.7,38 0.4,0 0.7,-9 0.7,-20 V 34 h 8.5 8.5 V 62.5 91.1 L 620.3,90.8 611.6,90.5 600,71.8 c -6.4,-10.4 -12.1,-19.3 -12.8,-20 -0.9,-0.9 -1.2,3.3 -1.2,19 V 91 h -8.5 -8.5 z"
       id="path58" />
    <path
       d="M 641,72.5 V 54 h 8 8 V 72.5 91 h -8 -8 z"
       id="path60" />
    <path
       d="M 668,72.3 V 53.5 l 8.5,0.3 c 6.5,0.3 8.5,0.7 8.5,1.8 0,1.9 0.6,1.8 3.8,-0.6 8.4,-6.1 21.8,-3.3 27.3,5.6 1.8,3 2.2,5.5 2.7,17 L 719.3,91 H 710.6 702 V 77.2 c 0,-13.5 -0.1,-13.9 -2.5,-16.2 -3.4,-3.2 -8.6,-3.2 -12,0 -2.4,2.3 -2.5,2.7 -2.5,16.2 V 91 h -8.5 -8.5 z"
       id="path62" />
    <path
       d="M 729,71.5 V 52 h -4.5 c -3.8,0 -4.5,-0.3 -4.5,-2 0,-1.7 0.7,-2 4.5,-2 h 4.5 v -4 -4 h 8.4 8.5 l 0.3,3.8 c 0.3,3.7 0.3,3.7 5.1,4 3.9,0.3 4.7,0.6 4.7,2.3 0,1.6 -0.7,1.9 -5,1.9 h -5 V 71.5 91 h -8.5 -8.5 z"
       id="path64" />
    <path
       d="M 812,72.5 V 54 h 8 c 6.4,0 8,0.3 8,1.5 0,2 1.6,1.9 4.8,-0.5 8.5,-6.2 22.6,-3.1 27.2,6.1 1.7,3.2 2,5.9 2,16.9 v 13 h -8 -8 V 77.2 c 0,-13.1 -0.1,-14 -2.2,-15.9 -3.3,-2.9 -5.7,-3.5 -9.5,-2.2 C 829,60.8 828,64 828,78.5 V 91 h -8 -8 z"
       id="path66" />
  </g>
  <g
     fill="#c5bebd"
     id="g72"
     transform="translate(-0.94407708,-0.48979206)">
    <path
       d="m 1218.1,443.8 c -2.4,-0.5 -3.9,-1.3 -3.5,-1.8 0.5,-0.4 14.1,-1.7 30.3,-2.8 16.2,-1.2 29.8,-2.5 30.4,-3.1 0.5,-0.5 0.7,-1.7 0.5,-2.7 -0.3,-1.5 -1.4,-1.7 -8.3,-1.5 -4.4,0.1 -12.9,0.6 -19,1.1 -23.3,1.9 -50.3,3.3 -51.8,2.7 -4.9,-1.9 2.4,-3.5 18.8,-4.2 13.2,-0.6 27.9,-1.4 44.5,-2.5 39.8,-2.7 40.2,-2.7 37.8,-0.8 -2.1,1.5 -6.8,2.5 -14.7,3.1 -4,0.2 -5.1,2.2 -2.5,4.2 1.7,1.2 1.6,1.4 -1.6,2.7 -8.2,3.3 -15.5,4.7 -32,5.7 -20,1.3 -22.8,1.3 -28.9,-0.1 z"
       id="path70" />
  </g>
  <g
     fill="#fefefe"
     id="g86"
     transform="translate(-0.94407708,-0.48979206)">
    <path
       d="M 102.5,442.9 C 56.2,437.2 15.9,404.9 5,364.8 c -7.2,-26.4 -4.6,-66 6.1,-92.7 14.5,-36.4 46.6,-66.1 91.5,-84.7 41.3,-17.1 86.3,-18.8 128.5,-4.7 l 5.5,1.8 -3.3,21 c -1.8,11.6 -3.6,23.2 -3.9,25.8 -0.6,3.9 -1,4.7 -2.3,4.3 -29.5,-9.8 -51.1,-11.1 -81.7,-4.6 -10.5,2.2 -24.3,7 -32.9,11.2 -17.7,8.9 -35.1,24 -45.1,39.3 -10.5,16.1 -13.7,26.5 -13.8,44.5 0,14.4 1.9,23.2 8,35.3 4.8,9.5 15.4,20.2 24.4,24.5 12.1,5.8 20.5,7.4 35.4,7 9.5,-0.3 14.6,-1 18.6,-2.4 l 5.5,-1.9 2.2,-12 c 1.2,-6.6 2.2,-12.8 2.3,-13.7 0,-1.7 -1.6,-1.8 -20.5,-1.8 -12.7,0 -20.5,-0.4 -20.5,-1 0,-0.5 1.6,-10.9 3.5,-23.1 1.9,-12.2 3.5,-22.6 3.5,-23.1 0,-0.4 22.3,-0.8 49.6,-0.8 h 49.6 l -0.6,2.8 c -0.3,1.5 -1.5,8.8 -2.6,16.2 -2.7,17.5 -6.2,39.8 -10.5,65.9 -0.8,5.2 -1.3,9.7 -1,9.9 0.4,0.4 8.5,-16.2 8.5,-17.4 0,-0.2 1.1,-2.7 2.4,-5.6 3.6,-8 21.7,-49 22.6,-51.3 0.4,-1.1 2.1,-4.9 3.8,-8.5 1.6,-3.6 5.3,-11.9 8.2,-18.5 2.8,-6.6 6,-13.8 7,-16 3.1,-6.8 17.1,-38.6 20.7,-46.9 1.9,-4.4 4,-9.4 4.8,-11 2.3,-4.9 18.4,-41.5 20.8,-47.3 l 2.2,-5.3 h 32.7 32.6 l 0.7,3.3 c 0.3,1.7 1,5.5 1.6,8.2 1.2,6.7 30.9,185.1 32.2,193.8 0.5,3.7 1.3,6.7 1.6,6.7 0.4,0 3.1,-7.3 5.9,-16.2 5.3,-16.4 20,-61.7 37.5,-115.3 5.2,-15.9 13.2,-40.6 17.8,-54.7 l 8.3,-25.8 h 26.1 26 l 2.8,15.3 c 1.6,8.3 3.9,21.1 5.3,28.2 1.3,7.2 3.3,18.2 4.4,24.5 1.2,6.3 3.2,17.4 4.5,24.5 1.3,7.2 3.3,18.2 4.5,24.5 2.8,15.7 5,26.4 5.5,26.9 0.3,0.2 0.9,-0.8 1.4,-2.1 0.5,-1.4 7.9,-18.9 16.4,-38.9 8.5,-20 19.2,-45.2 23.7,-55.9 4.5,-10.7 8.8,-20.8 9.6,-22.5 0.7,-1.6 3.3,-7.7 5.8,-13.5 l 4.4,-10.5 32,-0.3 31.9,-0.2 0.6,16.7 c 0.4,9.3 1.1,26.9 1.7,39.3 0.5,12.4 1.4,33.8 2,47.5 0.5,13.8 1.5,34 2,45 0.5,11 1.7,37.3 2.5,58.5 0.8,21.2 1.7,42 2,46.3 l 0.5,7.7 h -26.3 -26.4 l -0.6,-12.7 c -0.3,-7.1 -1.3,-28.8 -2.1,-48.3 -3.7,-86.7 -4.5,-100.5 -5.7,-99.3 -0.7,0.7 -37.3,84.5 -41.2,94.3 -0.3,0.8 -6.8,15.9 -14.4,33.5 l -13.9,32 -17.6,0.3 c -16.2,0.2 -17.7,0.1 -18.2,-1.5 -0.3,-1 -2.4,-10.8 -4.6,-21.8 -3.9,-19.7 -7.3,-36.4 -17.1,-84 -2.7,-13.2 -5.4,-26.7 -6.1,-30 -0.6,-3.3 -1.4,-6.7 -1.9,-7.5 -0.9,-1.8 -0.4,-3 -5.8,14 -2.2,6.9 -7.4,23.3 -11.6,36.5 -4.2,13.2 -8.7,27.4 -10,31.5 -1.3,4.1 -6,19 -10.6,33 -4.5,14 -8.4,26.5 -8.6,27.8 l -0.5,2.2 h -45.3 c -42.3,0 -45.4,-0.1 -45.9,-1.7 -0.8,-2.7 -3,-15.3 -9.6,-53.8 -1.1,-6.6 -2.5,-14.4 -3.1,-17.3 l -1,-5.2 -31.7,0.2 -31.6,0.3 -17.5,38.8 -17.5,38.7 h -27.3 c -15,0 -27.3,-0.1 -27.3,-0.3 0,-0.2 1.5,-3.9 3.4,-8.3 1.9,-4.3 3.3,-8 3.1,-8.2 -0.1,-0.2 -4.7,1.9 -10.1,4.6 -25.5,12.8 -52.9,17.5 -80.9,14.1 z M 331.7,310.8 c -0.3,-1.3 -2.2,-11.1 -4.2,-21.8 -4.7,-24.8 -5.4,-27.5 -6.6,-26.3 -0.7,0.7 -14.1,30 -21.5,47.1 L 298,313 h 17.1 17.1 z"
       id="path74" />
    <path
       d="m 1402.1,441.2 -26.3,-0.2 0.6,-2.3 c 0.3,-1.2 0.6,-3.2 0.6,-4.4 0,-1.8 0.6,-2.3 2.5,-2.3 1.4,0 2.5,-0.5 2.5,-1.1 0,-0.7 2.3,-0.8 6.9,-0.3 3.8,0.3 7.5,0.3 8.2,-0.2 0.8,-0.4 4.9,-0.7 9.3,-0.5 5.5,0.2 7.6,0 7.1,-0.8 -0.4,-0.8 0.7,-1 3.7,-0.7 2.4,0.2 6.2,0.5 8.6,0.5 l 4.2,0.1 -0.1,3.8 c -0.1,2 -0.4,4.8 -0.8,6.2 l -0.6,2.5 z"
       id="path76" />
    <path
       d="m 694,438.6 c 0,-1.3 0.5,-4.8 1,-7.7 0.6,-3 2.2,-12.6 3.6,-21.4 1.4,-8.8 3.6,-22.7 4.9,-31 1.3,-8.2 3.3,-21.1 4.4,-28.5 1.2,-7.4 2.6,-15.7 3.1,-18.5 0.5,-2.7 1.6,-9.5 2.4,-15 1.5,-9.4 2.9,-18.5 9.1,-57 1.4,-8.8 4.3,-27.2 6.5,-41 2.2,-13.7 4.5,-28 5.2,-31.8 l 1.1,-6.7 h 73.9 73.8 l -0.4,2.2 c -0.3,1.3 -1,5.5 -1.5,9.3 -1.6,10.6 -6.1,38.7 -6.6,41.3 L 874,235 H 827.5 781 l -0.9,2.3 c -0.4,1.2 -1.3,6.3 -2,11.2 -0.7,5 -2.1,14.4 -3.2,21 -1,6.6 -1.9,12.3 -1.9,12.8 0,0.4 18.5,0.7 41.1,0.7 h 41.1 l -0.7,5.8 c -0.4,3.1 -2.3,15.6 -4.3,27.7 l -3.7,22 -41,0.5 -41,0.5 -0.6,4.5 c -2.1,14 -5.8,36.9 -6.4,39.8 L 757,386 h 47 c 36.9,0 47,0.3 47,1.3 0,0.6 -1.4,9.5 -3,19.7 -1.7,10.2 -3.6,22 -4.2,26.3 l -1.1,7.7 H 768.3 694 Z"
       id="path78" />
    <path
       d="m 925,439.6 c 0,-0.7 0.6,-5.1 1.4,-9.7 1.3,-7.7 4.4,-26.7 8.2,-50.9 0.8,-5.2 2.6,-16.2 3.9,-24.5 1.3,-8.2 3.6,-22.2 5,-31 1.4,-8.8 3.2,-20 4,-25 0.9,-4.9 2.4,-14.8 3.6,-22 4,-25.9 8.1,-51.6 12.9,-81.1 1.1,-6.7 2,-12.4 2,-12.8 0,-0.3 23.7,-0.6 52.8,-0.6 48.4,0 53.2,0.2 59.2,1.9 22,6.2 42,24.4 49,44.4 3.1,8.7 3.8,23.2 1.6,32.9 -2.8,12.7 -10.2,26.2 -22,40 l -5.3,6.4 5.5,5.9 c 11.3,12.1 18.8,26.8 20,39.2 2.1,21.1 -4.6,39.7 -20.9,57.9 l -6.4,7.1 -11,0.7 c -6,0.5 -12.3,0.9 -14,1.1 -1.6,0.1 -9.6,0.6 -17.7,1 -12.8,0.6 -14.8,0.9 -14.8,2.4 0,1.1 -0.3,1.2 -0.8,0.4 -0.8,-1.3 -5.1,-1.6 -12.7,-0.9 -2.7,0.3 -9.5,0.7 -15,1 -25.9,1.4 -42.5,2.6 -44.1,3.2 -6.7,2.4 -11.3,5.2 -15.4,9.5 l -4.7,4.9 h -12.2 c -9.6,0 -12.1,-0.3 -12.1,-1.4 z m 129,-51.7 c 7.7,-3.6 12.5,-8.1 15.6,-14.6 7,-14.8 -2.6,-31.2 -19.9,-34.2 -3.5,-0.6 -17.2,-1.1 -30.5,-1.1 H 995 l -0.5,2.3 c -0.3,1.2 -1.6,9.4 -3,18.2 -1.4,8.8 -2.9,18.7 -3.5,22 -0.5,3.3 -1,7 -1,8.3 v 2.3 l 30.8,-0.3 c 30.7,-0.3 30.7,-0.3 36.2,-2.9 z m 0.3,-104.6 c 11.9,-5.5 18.1,-14.2 18.1,-25.3 0,-7.3 -1.7,-11.6 -6.8,-16.2 -5.3,-4.9 -10.6,-5.8 -33.6,-5.8 h -20.6 l -3.8,22.8 c -2.1,12.5 -4,23.7 -4.3,25 l -0.6,2.4 23.4,-0.4 c 21.7,-0.3 23.8,-0.5 28.2,-2.5 z"
       id="path80" />
    <path
       d="m 1164.9,408.4 c -12.4,-16.6 -19.8,-33.4 -24.5,-55.4 -2.6,-12.1 -2.6,-44.9 0,-57 6.1,-29.1 14.9,-48.8 31.2,-69.6 23.2,-29.8 59.2,-48 91.4,-46.1 47.5,2.8 84.6,39.1 95.7,93.8 2.7,13.3 2.4,44.1 -0.5,58.3 -4.6,22.1 -12.4,40.7 -24.4,58.7 -4.9,7.3 -7.6,10.5 -8.6,10.2 -0.8,-0.3 -1.7,0 -2.1,0.6 -0.5,0.7 -3.7,1.3 -7.7,1.5 -3.8,0.2 -9.7,0.6 -13.1,1.1 -4.5,0.6 -6.3,0.5 -6.3,-0.4 0,-1.4 -2.7,-1.5 -3.2,-0.1 -0.2,0.6 -3.9,1.2 -8.3,1.4 -4.4,0.2 -9.9,0.7 -12.2,1.1 -3,0.5 -4.3,0.4 -4.3,-0.4 0,-1.3 -2.7,-1.5 -3.2,-0.1 -0.1,0.5 -5,1.1 -10.8,1.4 -5.8,0.2 -11.2,0.7 -12,1 -0.8,0.3 -7.1,0.7 -14,1 -6.9,0.3 -15.3,0.8 -18.7,1.2 -4.5,0.5 -6.3,0.4 -6.3,-0.5 0,-1.4 -2.7,-1.5 -3.2,0 -0.2,0.6 -3.4,1.3 -7.3,1.5 -3.9,0.2 -10.8,0.6 -15.5,1 l -8.5,0.6 z m 83.6,-13.8 c 25.4,-7 47.1,-33.3 55.5,-67.5 11.5,-46.7 -5.5,-90.8 -37.2,-96.1 -23.7,-4 -49.5,14 -63.8,44.5 -4.3,9.2 -8.6,21.5 -10.1,29.5 -2,10.4 -2.2,32.2 -0.4,42.1 1.8,10 2.2,11.2 7.2,21.6 9.8,20.5 29.8,31.1 48.8,25.9 z"
       id="path82" />
    <path
       d="m 1385.3,399.2 c -1.3,-0.2 -2.3,-0.9 -2.3,-1.5 0,-0.7 1.1,-7.9 2.4,-16.2 1.4,-8.2 3.9,-24 5.6,-35 1.7,-11 3.4,-21.9 3.9,-24.1 0.7,-3.9 0.1,-5.6 -10.6,-29 -6.3,-13.7 -15.9,-34.6 -21.3,-46.4 -5.4,-11.8 -11.5,-25.1 -13.5,-29.5 -2.1,-4.4 -6.8,-14.6 -10.5,-22.8 l -6.9,-14.7 h 30.3 30.2 l 6.1,15.7 c 8.3,21.3 24.7,63 26.5,67.3 l 1.5,3.5 2.4,-4 c 1.4,-2.2 13.5,-21.7 26.9,-43.2 l 24.5,-39.3 h 30.7 30.7 l -9.1,14.2 c -5,7.9 -14.8,23.3 -21.8,34.3 -7,11 -19.1,30.1 -27,42.5 -35.6,56 -38.3,60.5 -39.2,65 -0.9,4.4 -4.2,26.3 -7.5,48.5 -1.4,9.9 -1.8,11 -3.7,11.2 -1.1,0.1 -5.2,0.4 -9.1,0.8 -3.8,0.3 -7.4,1.1 -8,1.8 -0.7,0.8 -5.1,1.2 -15,1.2 -7.7,0 -15,-0.1 -16.2,-0.3 z"
       id="path84" />
  </g>
</svg>
