<?xml version="1.0" encoding="UTF-8" standalone="no"?>
<svg
   version="1.0"
   width="1700.3671"
   height="576.91455"
   viewBox="0 0 1700.3671 576.91455"
   preserveAspectRatio="xMidYMid meet"
   id="svg266"
   sodipodi:docname="genh.svg"
   inkscape:version="1.1.2 (0a00cf5339, 2022-02-04, custom)"
   xmlns:inkscape="http://www.inkscape.org/namespaces/inkscape"
   xmlns:sodipodi="http://sodipodi.sourceforge.net/DTD/sodipodi-0.dtd"
   xmlns="http://www.w3.org/2000/svg"
   xmlns:svg="http://www.w3.org/2000/svg">
  <defs
     id="defs270" />
  <sodipodi:namedview
     id="namedview268"
     pagecolor="#ffffff"
     bordercolor="#666666"
     borderopacity="1.0"
     inkscape:pageshadow="2"
     inkscape:pageopacity="0.0"
     inkscape:pagecheckerboard="0"
     showgrid="false"
     inkscape:zoom="0.62587822"
     inkscape:cx="849.20674"
     inkscape:cy="359.49486"
     inkscape:window-width="1920"
     inkscape:window-height="1017"
     inkscape:window-x="-8"
     inkscape:window-y="-8"
     inkscape:window-maximized="1"
     inkscape:current-layer="svg266" />
  <g
     fill="#010106"
     id="g64"
     transform="translate(-5.2543556,-0.625)">
    <path
       d="m 800,566.9 c 0,-1.7 0.8,-1.9 6.4,-1.9 3.5,0 7.8,-0.3 9.5,-0.6 2.7,-0.6 3.1,-1.1 3.1,-3.8 0,-4 2.9,-6.6 7.5,-6.6 3.3,0 3.5,0.2 3.5,3.5 0,1.9 -0.4,3.5 -1,3.5 -0.5,0 -1,-0.5 -1,-1 0,-2 -3.1,-2.3 -4.5,-0.4 -0.8,1.1 -1.5,2.3 -1.5,2.8 0,0.8 18.1,0.3 35.3,-1 6.3,-0.5 7.7,-0.3 7.7,0.8 0,2.4 -6.7,3.7 -23.5,4.3 -8.8,0.4 -17.6,0.8 -19.5,1 -1.9,0.3 -7.7,0.6 -12.7,0.9 -8.6,0.4 -9.3,0.3 -9.3,-1.5 z"
       id="path2" />
    <path
       d="m 875.3,562.4 c -0.3,-0.8 -0.2,-1.8 0.1,-2.2 0.4,-0.4 8.7,-1 18.4,-1.4 9.7,-0.4 21.1,-1.1 25.2,-1.7 4.1,-0.6 12.9,-1 19.6,-1.1 6.6,0 14.5,-0.4 17.5,-1 3,-0.5 14.6,-1.4 25.9,-2 11.3,-0.6 24.3,-1.5 29,-2 4.7,-0.4 13.2,-0.9 19,-0.9 5.8,-0.1 13.4,-0.6 16.9,-1.1 3.6,-0.5 12.9,-1.2 20.8,-1.6 12.6,-0.6 14.3,-0.5 14.3,0.9 0,0.9 -1.2,1.8 -2.7,2.1 -2.4,0.5 -23.5,2 -43.3,3 -3,0.2 -9.5,0.6 -14.5,1 -4.9,0.3 -12.4,0.8 -16.5,1.1 -4.1,0.3 -8.6,0.7 -10,0.9 -1.4,0.2 -8.8,0.7 -16.5,1.1 -7.7,0.4 -16,0.9 -18.5,1.3 -2.5,0.3 -10.6,0.6 -18,0.6 -7.4,0.1 -13.7,0.4 -14,0.8 -0.3,0.3 -3.9,0.9 -8,1.2 -4.1,0.3 -9.3,0.7 -11.5,1 -2.2,0.3 -10.4,0.7 -18.3,1 -12.1,0.4 -14.4,0.3 -14.9,-1 z"
       id="path4" />
    <path
       d="m 961.4,543.5 c 0.9,-2.6 -8.8,-2.9 -28.3,-1 -5.3,0.6 -9.1,-0.3 -9.1,-2 0,-1.7 11.8,-2.5 41.8,-3.1 20.4,-0.4 24.2,-0.2 24.2,1 0,1.6 -3,2.6 -8.2,2.6 -2,0 -4,0.5 -4.3,1 -0.3,0.6 -0.1,1 0.4,1 0.6,0 1.1,0.4 1.1,1 0,0.6 -3.7,0.9 -9.1,0.9 -7.1,0 -8.9,-0.4 -8.5,-1.4 z"
       id="path6" />
    <path
       d="m 1113.7,543.4 c -2.9,-1.6 -5.9,-1.7 -42.2,-1.2 -8.2,0.1 -16.6,-0.2 -18.5,-0.6 -1.9,-0.4 -4.8,-0.7 -6.5,-0.6 -4.5,0.1 -8.5,-1 -8.5,-2.5 0,-1.9 12.6,-3.1 14.7,-1.3 1.3,1 7.8,1.2 32,1 27,-0.3 30.3,-0.1 30.3,1.3 0,1.4 0.3,1.4 3,0 3.6,-1.8 9,-2 9,-0.2 0,1 -4.6,3.6 -9.5,5.3 -0.5,0.2 -2.3,-0.4 -3.8,-1.2 z"
       id="path8" />
    <path
       d="m 760,532.2 c 0,-1.7 1.1,-2 9.8,-2.6 5.3,-0.3 19.8,-1.3 32.2,-2.1 58.3,-3.9 67,-4.2 67,-2.1 0,2 -3.3,2.5 -21.5,3.1 -8.8,0.3 -16.7,0.7 -17.5,1 -0.8,0.2 -6.7,0.6 -13,0.9 -6.3,0.4 -13.7,0.8 -16.5,1.1 -2.7,0.3 -9.5,0.7 -15,1 -5.5,0.3 -13.5,0.7 -17.7,1 -7.2,0.5 -7.8,0.4 -7.8,-1.3 z"
       id="path10" />
    <path
       d="m 1407.8,529.3 c -2.9,-0.7 -2,-3 1.5,-3.8 1.7,-0.3 9.1,-1 16.2,-1.5 14,-0.9 23.3,-3.3 29.7,-7.5 2.1,-1.4 3.9,-2.5 4.2,-2.5 0.5,0 7.6,-7.1 7.6,-7.6 0,-0.3 1.1,-2.1 2.5,-4.2 3.6,-5.4 6.4,-14.5 6.7,-21.5 0.2,-3.4 -0.1,-14.2 -0.5,-23.9 -0.8,-15.8 -0.7,-17.8 0.7,-17.8 1.6,0 2.6,4 2.4,9.5 0,1.7 0.3,7.7 0.7,13.5 1.1,14.4 0.8,26.3 -0.8,30.2 -0.8,1.8 -1.7,4.9 -2.1,6.8 -1.7,9 -20.2,25.2 -30.2,26.5 -1.6,0.2 -4.8,0.8 -7,1.3 -2.3,0.5 -8.5,1 -13.7,1.1 -5.3,0.1 -11.1,0.6 -12.9,1.2 -1.8,0.5 -3.3,0.8 -3.3,0.8 0,-0.1 -0.8,-0.3 -1.7,-0.6 z"
       id="path12" />
    <path
       d="m 982,518 c 0,-2.1 3,-2.5 30.5,-4.1 8.8,-0.5 20.7,-1.3 26.5,-1.8 17.5,-1.5 31,-1.3 31,0.3 0,2 -2.5,2.4 -20,3.1 -8.5,0.4 -16.6,0.9 -18,1.1 -1.4,0.3 -7.1,0.7 -12.8,0.9 -5.6,0.3 -11.3,0.7 -12.5,0.9 -1.2,0.3 -7.3,0.7 -13.4,0.9 C 983,519.7 982,519.6 982,518 Z"
       id="path14" />
    <path
       d="m 635.4,499.3 c -1.6,-1.7 -1.6,-1.8 -0.1,-2.1 2.1,-0.4 2.1,0.8 0.2,-24.2 -0.8,-11.3 -2,-27.8 -2.6,-36.7 -0.6,-9 -1.5,-16.3 -1.9,-16.3 -0.3,0 -0.6,-7.4 -0.6,-16.5 0.1,-11.6 0.4,-16.5 1.2,-16.5 2.7,0 4.7,21 2.5,26.5 -0.5,1.2 -0.3,3 0.5,4.6 0.7,1.4 1.7,9.8 2.4,19.5 0.6,9.3 1.8,25.2 2.6,35.4 1.9,25.5 1.9,28 -0.5,28 -1.1,0 -2.7,-0.8 -3.7,-1.7 z"
       id="path16" />
    <path
       d="m 675.9,498.6 c -1.3,-2.8 -1.5,-2.9 -6.9,-3 -2.5,-0.1 -3.6,-0.6 -3.8,-1.9 -0.3,-1.7 0.4,-1.8 7.5,-1.7 4.3,0 10.4,-0.2 13.6,-0.6 3.1,-0.3 5.7,-0.3 5.7,0.2 0,0.5 4.9,1 10.8,1.2 5.9,0.2 10.9,0.7 11,1.3 0.5,1.2 4.8,1.2 7.3,-0.1 1,-0.6 1.9,-2 1.9,-3 0,-1.3 0.7,-2 2,-2 1.5,0 2,0.7 2,2.8 0,4.9 -1.9,6.3 -9.1,6.9 -5.5,0.4 -6.7,0.2 -7.2,-1.1 -0.8,-2.1 -3.4,-2 -4.5,0.1 -0.9,1.6 -1.1,1.6 -3.6,0 -3.2,-2.1 -5.3,-2.1 -9.1,-0.1 -3.8,2 -5.9,2.6 -11.7,3.1 -4.4,0.5 -4.9,0.3 -5.9,-2.1 z"
       id="path18" />
    <path
       d="m 1311.5,497.5 c -0.5,-0.2 -2.7,-0.6 -4.7,-1 -2.4,-0.4 -3.8,-1.1 -3.8,-2.1 0,-1.2 1.4,-1.4 8.8,-0.8 5.4,0.4 14.7,0 24.7,-0.9 18.2,-1.8 41,-3.6 44,-3.4 1.1,0 6.8,-0.3 12.8,-0.7 9.2,-0.7 10.7,-0.6 10.7,0.7 0,2.9 -14.8,4.5 -46.5,5.1 -3.8,0.1 -7.5,0.5 -8.1,0.9 -0.7,0.4 -3.4,0.7 -6,0.7 -2.7,0 -6.5,0.2 -8.4,0.4 -6.1,0.7 -22.5,1.5 -23.5,1.1 z"
       id="path20" />
    <path
       d="m 739,494.9 c 0,-1.7 0.7,-1.9 6.5,-1.9 4.9,0 6.7,-0.4 7.1,-1.5 0.7,-1.6 8.4,-2.2 8.4,-0.7 0,0.5 2.1,0.5 4.8,0.1 2.6,-0.4 7.2,-0.9 10.2,-1 3.8,-0.2 4.5,-0.3 2.2,-0.6 -3.1,-0.4 -3.3,-0.6 -3,-4.1 l 0.3,-3.7 h 6.2 c 7.3,0 11.4,2.7 10.5,7 -0.2,1.4 -0.8,2.5 -1.3,2.5 -0.5,0 -1.1,0 -1.4,0 -0.3,0 -2.1,0.7 -4.1,1.5 -2,0.8 -5.5,1.5 -7.8,1.4 -2.2,0 -6.8,0.4 -10,1 -4.1,0.8 -6.2,0.9 -7,0.1 -1.4,-1.4 -4.3,-1.3 -4.8,0.2 -0.3,0.7 -3.5,1.2 -8.6,1.4 -7.5,0.2 -8.2,0.1 -8.2,-1.7 z"
       id="path22" />
    <path
       d="m 990.1,482.2 c -1.2,-2.2 -0.5,-3.2 2,-3.2 3.9,0 14.5,-5.9 18.4,-10.2 4.9,-5.3 12.1,-19.9 13,-26.2 0.8,-5 1.8,-5.7 3.5,-2.5 1.7,3.1 0.2,9.5 -4.1,17.9 -6.9,13.2 -10.7,17.6 -18.8,21.8 -7.9,4 -12.7,4.8 -14,2.4 z"
       id="path24" />
    <path
       d="m 824.8,467.8 c -0.2,-4.6 0,-8.4 0.5,-8.6 1.6,-0.8 0.5,-2 -2.2,-2.5 -1.6,-0.3 -3.1,-1.3 -3.4,-2.1 -0.5,-1.3 0.1,-1.6 3.1,-1.6 h 3.8 l 1.2,-8.2 c 0.6,-4.6 2.1,-13.2 3.2,-19.3 1.1,-6 2.7,-15 3.5,-20 0.9,-4.9 1.8,-9.1 2,-9.4 1.2,-1.2 3.5,2.5 3,4.8 -1.1,5 -1.5,7.6 -2.6,14.1 -0.5,3.6 -1.6,10.3 -2.4,15 -1.6,9.3 -1.9,11.6 -3,20.3 -0.4,3.1 -1.1,6 -1.6,6.3 -1.4,0.8 -1.1,16.8 0.3,18.2 0.9,0.9 0.5,1.2 -1.9,1.2 h -3.1 z"
       id="path26" />
    <path
       d="m 1359.6,455.1 c -1.5,-1.7 -1.5,-1.9 -0.1,-2.5 0.9,-0.3 2.9,-0.6 4.5,-0.6 3.8,0 12,-3.6 13.7,-6 0.7,-1 2.6,-2.1 4.3,-2.5 1.6,-0.4 3.2,-1.5 3.5,-2.6 0.4,-1 1,-1.9 1.3,-1.9 0.4,0 1.6,-1.6 2.6,-3.5 1.1,-1.9 2.3,-3.5 2.8,-3.5 0.4,0 0.8,-0.5 0.8,-1.1 0,-0.6 0.9,-2.2 2,-3.6 1.1,-1.4 2,-3.5 2,-4.5 0,-1.1 0.9,-3.3 2,-4.8 1.1,-1.6 2.3,-4.2 2.6,-5.9 0.6,-3.1 0.6,-3.1 -3.5,-3.1 -4,0 -4.1,-0.1 -4.1,-3.5 V 402 h -9 -9 v -4.1 -4.2 l 5.3,0.7 c 2.8,0.3 7.1,0.6 9.5,0.6 4,0 4.2,0.2 4.2,2.9 0,2.7 0.3,2.9 4.5,3.3 4.4,0.3 4.5,0.3 5.1,-3.1 0.8,-4.3 -0.4,-34.3 -1.4,-35.1 -1.2,-0.8 -6.2,-16.5 -6.2,-19.4 0,-4 2.3,-3.1 4.1,1.7 6,15.9 6.9,20.5 7.5,37.2 0.5,12.8 0.3,16.5 -1.5,25.3 -2,9.7 -4.5,16.2 -6.3,16.2 -0.4,0 -0.8,1.3 -0.8,2.9 0,1.6 -1,3.9 -2.5,5.5 -1.3,1.4 -2.4,2.9 -2.4,3.2 0.1,0.3 -1.1,1.9 -2.5,3.5 -1.4,1.6 -2.6,3.3 -2.6,3.8 0,0.6 -0.5,1.3 -1.2,1.7 -0.7,0.5 -0.9,0.2 -0.4,-0.7 0.4,-0.8 -0.2,-0.3 -1.3,1 -1.2,1.3 -2.1,2 -2.1,1.7 0,-0.3 -1.6,1 -3.7,2.9 -3.8,3.5 -13,7.2 -15.7,6.2 -0.9,-0.4 -1.8,-0.2 -2.1,0.3 -0.9,1.5 -2,1.2 -3.9,-0.9 z"
       id="path28" />
    <path
       d="m 1225.3,454.3 c -1.9,-0.4 -2.3,-1.1 -2.3,-3.9 0,-3.4 0,-3.4 4.5,-3.4 h 4.5 l -0.1,-11.7 c 0,-6.5 -0.4,-14 -0.9,-16.8 -0.5,-2.7 -1.2,-13.7 -1.6,-24.2 l -0.7,-19.3 h -4.9 -4.8 v -3.5 c 0,-3.4 0.1,-3.5 4.1,-3.5 h 4 l -0.6,-13.2 c -0.3,-7.3 -0.8,-17 -1.1,-21.5 -0.4,-6.7 -0.2,-8.3 0.9,-8.3 2.2,0 3.6,6.7 3.7,17.5 0,5.5 0.5,15.2 1.1,21.5 0.6,6.3 1.2,14.2 1.3,17.5 0.7,16.2 1.9,34.2 2.3,36 0.3,1.1 0.7,5.8 0.9,10.5 0.2,4.7 0.6,11.5 0.8,15.1 0.3,3.6 0.1,7.2 -0.4,7.9 -0.5,0.9 -0.5,2 0.2,2.7 0.8,1 0,1.3 -3.8,1.2 -2.7,-0.1 -5.9,-0.4 -7.1,-0.6 z"
       id="path30" />
    <path
       d="m 962,396.6 v -3.4 l -6.7,0.6 c -6.3,0.5 -6.7,0.4 -5.4,-1.1 1.2,-1.5 1.1,-1.7 -0.6,-1.7 -1.9,0 -4.3,-1.8 -4.3,-3.2 0,-0.4 2.9,-0.8 6.4,-0.8 10.2,0 9.6,1.1 9.6,-17.4 0,-19.4 0.8,-23.1 5.6,-25.3 2.9,-1.4 3.4,-2.2 3.4,-5 0,-2.3 0.5,-3.3 1.5,-3.3 0.8,0 1.5,0.6 1.6,1.3 0.1,0.6 0.3,2.8 0.4,4.8 0.3,3 -0.1,3.8 -2.6,5.3 -5.4,3.2 -6.3,6.5 -6.1,22.6 0,8 0.4,18 0.7,22.3 0.7,7.4 0.6,7.7 -1.4,7.7 -1.7,0 -2.1,-0.6 -2.1,-3.4 z"
       id="path32" />
    <path
       d="m 884,392 c 0,-1.1 0.7,-2 1.4,-2 1.3,0 1.3,-0.5 0.2,-3.2 -0.7,-1.8 -2.4,-7.9 -3.7,-13.5 L 879.5,363 h -6.7 -6.8 v -3.5 -3.5 h 5.6 c 5,0 5.5,-0.2 4.9,-1.7 -0.4,-1 -1,-4.2 -1.3,-7.1 -0.4,-4.5 -0.2,-5.2 1.2,-4.6 0.9,0.3 1.9,1.8 2.2,3.3 0.3,1.4 1.2,4.8 2,7.5 0.8,2.7 1.2,5.2 0.9,5.4 -0.2,0.3 0.2,1.7 0.9,3.1 0.8,1.4 2.4,6.4 3.7,11.1 1.2,4.7 2.8,10.4 3.6,12.8 2.2,7 1.8,8.2 -2.2,8.2 -2.8,0 -3.5,-0.4 -3.5,-2 z"
       id="path34" />
    <path
       d="m 1088,388 c 0,-3.8 -0.2,-4 -3,-4 -2.9,0 -3,-0.2 -3,-4.5 0,-4.1 0.2,-4.5 2.5,-4.5 h 2.4 l -0.6,-18 c -0.6,-18.9 -0.3,-21 3.8,-21 1,0 2.4,-0.9 3.1,-2 1.4,-2.2 4.8,-2.7 4.8,-0.7 0,2.8 -1.3,5.7 -2.6,5.7 -0.7,0 -2.5,1 -3.9,2.3 l -2.6,2.2 1.1,11.5 c 0.5,6.3 1,14.6 1,18.3 0,6.3 -0.2,6.8 -1.9,6.2 -3.4,-1 -3.5,1.6 -0.2,4.5 3.7,3.4 4.3,8 1.1,8 -1.7,0 -2,-0.7 -2,-4 z"
       id="path36" />
    <path
       d="m 628.6,378.8 c -1.1,-15.1 -1.3,-37.4 -0.5,-41 0.8,-2.9 2,-4.3 6.1,-6.8 4.9,-3.1 5.9,-3.3 17.5,-3.8 10.8,-0.4 12.3,-0.3 12.3,1.1 0,1.5 -5.1,3.3 -7.5,2.6 -0.6,-0.2 -3.9,0 -7.5,0.4 -11.7,1.3 -18.6,6.6 -18,13.7 0.1,1.4 0.6,11.3 1.7,32.8 0.4,7.7 0.3,8.2 -1.5,8.2 -1.8,0 -2.1,-0.9 -2.6,-7.2 z"
       id="path38" />
    <path
       d="m 1128,377 c 0,-3.8 -0.4,-5 -1.5,-5 -2.7,0 -1.9,-7.7 1.3,-12.9 1.6,-2.5 4.1,-6.7 5.6,-9.3 1.5,-2.7 3.1,-4.8 3.5,-4.8 0.5,0 1.1,-0.9 1.4,-1.9 0.3,-1.1 3.1,-3.3 6.3,-5 7.4,-3.8 8.9,-5.1 9.8,-7.9 0.9,-2.6 4.6,-3.1 4.6,-0.6 0,3.2 -4.2,8.5 -8.4,10.5 -5.8,3 -10.6,6.8 -10.6,8.5 0,0.7 -0.4,1.4 -0.9,1.4 -0.4,0 -2.2,2.9 -4,6.4 -1.7,3.5 -3.8,6.9 -4.6,7.6 -1.9,1.6 -1.9,5.4 -0.1,8.3 0.7,1.2 1.6,3.9 1.9,6 0.5,3.4 0.4,3.7 -1.9,3.7 -2.2,0 -2.4,-0.4 -2.4,-5 z"
       id="path40" />
    <path
       d="m 613.3,354.3 c -1.6,-26 -0.6,-30.5 8.3,-36.4 2.9,-2 5.8,-2.9 11.2,-3.4 6.9,-0.7 7.2,-0.6 7.2,1.4 0,1.6 -0.6,2.1 -2.9,2.1 -5,0 -12.8,3.1 -15.9,6.4 -1.6,1.7 -3.3,4.9 -3.8,7.1 -1,4.2 -0.9,17.1 0.1,31.8 0.6,8.1 0.5,8.7 -1.3,8.7 -1.7,0 -1.9,-1.4 -2.9,-17.7 z"
       id="path42" />
    <path
       d="m 737.8,312.3 c -2.7,-0.7 -2.1,-3 1,-3.8 5,-1.3 34.4,-3.5 60.7,-4.5 14.3,-0.6 28.3,-1.5 31,-2 2.8,-0.6 15.1,-1.5 27.5,-2 12.4,-0.6 26.8,-1.5 32,-1.9 15.9,-1.5 31,-1.3 31,0.3 0,1.8 -3,2.4 -12,2.4 -4.1,0 -8.2,0.2 -9,0.5 -1.9,0.7 -22.5,2 -34.5,2.3 -4.9,0.1 -9.7,0.4 -10.5,0.7 -1.4,0.5 -16.8,1.5 -36,2.3 -8.9,0.4 -30,1.7 -45.5,2.8 -23,1.6 -31.1,2.3 -32.5,2.8 -0.8,0.3 -2.3,0.4 -3.2,0.1 z"
       id="path44" />
    <path
       d="m 1133,298.2 c 0,-2.4 4,-3 28,-3.8 9.6,-0.4 18.2,-1 19,-1.4 0.8,-0.4 9.3,-1.1 18.8,-1.5 15.3,-0.6 17.2,-0.6 17.2,0.8 0,2.4 -1,2.5 -40.5,5.1 -3.3,0.2 -11.4,0.7 -18,1.1 -6.6,0.3 -14.8,0.8 -18.2,1.1 -5.8,0.5 -6.3,0.4 -6.3,-1.4 z"
       id="path46" />
    <path
       d="m 1464.6,293.8 c -0.3,-1.3 -0.6,-6 -0.6,-10.5 0,-4.6 -0.4,-8.3 -0.9,-8.3 -0.5,0 -1.3,-1.5 -1.6,-3.2 -0.4,-1.8 -1.6,-5 -2.6,-7 -1.1,-2.1 -1.9,-5.2 -1.9,-7.1 v -3.3 l 27.3,-1.2 c 50.9,-2.2 82.2,-7.2 118.2,-18.9 21.6,-7 36.3,-15.1 48.3,-26.7 14.3,-13.6 15,-23.7 2.8,-37.2 -22.5,-25.2 -80.6,-42.1 -157.1,-45.9 -6.6,-0.3 -49.8,-0.8 -96,-1 -78.8,-0.3 -101.8,-0.9 -137.5,-3.5 -42.8,-3.2 -83.2,-9.5 -119,-18.5 -17.9,-4.5 -29.4,-8.2 -48.9,-15.6 l -15.4,-5.9 -12.3,8 c -6.8,4.5 -16.3,10.1 -21.1,12.6 -20.8,10.6 -58.1,19.6 -102,24.6 -18.6,2.1 -23.8,2.3 -87.3,2.3 -71.6,0 -80.5,-0.4 -112.5,-5.5 C 698.7,114.7 672,105.5 645.1,87.6 L 633.7,80 618.1,85.9 c -41.4,15.7 -82.1,25 -136.5,31.1 -44.7,5 -74.4,6.1 -169.1,6.5 -46.2,0.2 -89.4,0.7 -96,1 -54.3,2.7 -100.8,12.3 -130,26.7 -21.5,10.7 -36.2,25.9 -35.8,37 0.7,15.3 25.7,34.8 58.9,45.7 34.1,11.2 65.3,16.6 110.9,19.1 12.4,0.6 165.1,1 439.8,1 H 1081 v 3.4 c 0,2 -0.6,3.6 -1.4,3.9 -0.8,0.3 -7.7,0.8 -15.3,1.2 -7.6,0.3 -19.2,1 -25.8,1.5 -13.5,1.1 -43.8,3.2 -81,5.5 -13.7,0.8 -30.4,1.9 -37,2.5 -6.6,0.6 -15.1,1 -18.9,1 -6,0 -6.7,-0.2 -5.6,-1.5 1.1,-1.3 0.5,-1.5 -4.6,-1.5 -3.3,0 -158.9,-0.1 -345.9,-0.3 -251.3,-0.3 -344.2,-0.7 -356,-1.5 -26.1,-2 -61.8,-6.9 -82.5,-11.3 C 72.1,249.5 38,233.9 22.1,218 1.7,197.5 -0.3,176.4 16.8,159.6 37,139.8 77.4,123.3 127,114.6 c 43.9,-7.6 77.6,-9.8 139,-8.7 111.5,1.8 166.8,0.2 220.5,-6.5 44,-5.4 68.6,-10.6 104,-21.8 26.3,-8.3 36.2,-12.7 59,-26.6 48,-29.1 92.2,-43 156.5,-49.1 17.7,-1.7 81.1,-1.7 98.5,0 28.9,2.8 43.4,5.1 64,10.2 34.4,8.6 63.5,21 96.6,41.1 21.4,13 37.2,19.5 73.4,29.9 37.4,10.9 83.6,17.7 150,22.1 20.9,1.4 94,1.7 156,0.7 66,-1.1 103.8,1.6 150,10.7 41.8,8.2 78.9,23.9 97.6,41.2 18.5,17.1 18,37.5 -1.4,57.8 -19.7,20.9 -57.1,36.7 -105.2,44.8 -30.1,5.1 -56.8,7.5 -101.7,9.2 -12.3,0.4 -17.8,1 -17.8,1.8 0,0.6 0.4,2.7 0.9,4.6 0.5,1.9 1.1,7.2 1.4,11.8 0.5,7.4 0.3,8.2 -1.3,8.2 -1,0 -2,-1 -2.4,-2.2 z M 917.5,101.5 c 56.5,-4.9 95.9,-15.4 108.5,-29.1 2.2,-2.4 4,-5 4,-5.7 0,-0.7 -1.6,-3.2 -3.5,-5.4 C 1009.1,40.9 919.2,26 837.2,29.9 c -73.3,3.4 -125.5,15.4 -139.5,32 -3.6,4.4 -3.4,6.4 1.3,11.1 15.5,15.5 65.1,26.6 136,30.4 14,0.8 65.4,-0.4 82.5,-1.9 z"
       id="path48" />
    <path
       d="m 833.7,94 c -3.9,-0.7 -9.7,-5.3 -9.7,-7.7 0,-0.7 -1.5,0.4 -3.4,2.5 l -3.5,3.7 -15.6,-0.2 c -8.6,0 -16.2,-0.4 -17,-0.7 C 783.3,91.2 783,89 783,81.5 V 72 h 3.2 3.1 l -2.1,-2.2 c -3,-3.3 -4.2,-7.1 -4.2,-13.4 0,-8.6 3.6,-14.8 10.1,-17.2 1.4,-0.6 9.1,-1.3 17.2,-1.7 L 825,36.7 v 2.8 2.7 l 3.1,-2.6 c 2.8,-2.4 3.8,-2.6 11.8,-2.6 4.9,0 12.2,-0.3 16.4,-0.6 7.5,-0.7 7.7,-0.6 7.7,1.5 0,2.1 0.1,2.1 2.2,0.7 1.8,-1.3 5.5,-1.6 19,-1.6 H 902 l 0.1,14.3 v 14.2 l 3.8,-12.3 c 2.2,-6.7 4.4,-12.9 5.1,-13.7 3.5,-4.2 16,-4.2 20.3,0.1 2.9,2.9 17,44.9 16.5,49.2 -0.3,2.6 -0.5,2.7 -9.3,3.4 C 913.8,94 893.3,95 881.9,95 870.6,95 869,94.8 866.6,92.9 l -2.6,-2 v 2 c 0,2 -0.5,2.1 -13.2,2 -7.3,-0.1 -15,-0.5 -17.1,-0.9 z"
       id="path50" />
    <path
       d="m 1005.8,294.3 c -3.5,-0.9 -2,-3.3 2.1,-3.3 2.2,0 5,-0.4 6.4,-0.9 1.3,-0.5 12.2,-1.2 24.3,-1.6 12,-0.4 22.6,-1.1 23.4,-1.5 0.8,-0.5 9.7,-1.1 19.8,-1.5 16.1,-0.7 18.2,-0.6 18.2,0.8 0,1.8 -3.8,2.8 -10.6,2.8 -2.7,0 -10.1,0.4 -16.4,1 -6.3,0.5 -16.2,1.1 -22,1.4 -5.8,0.2 -11.2,0.6 -12,0.9 -0.8,0.2 -6.9,0.7 -13.5,1 -6.6,0.3 -13.3,0.7 -15,1 -1.6,0.2 -3.8,0.2 -4.7,-0.1 z"
       id="path52" />
    <path
       d="m 1106,286.1 c 0,-2.5 1.7,-2.8 20.5,-3.7 8.8,-0.3 16.5,-1 17,-1.4 0.6,-0.4 8.7,-1 18,-1.4 9.4,-0.3 22.1,-0.9 28.3,-1.2 9.9,-0.6 11.2,-0.5 11.2,1 0,1.8 0,1.8 -8.5,2.3 -3.3,0.1 -8.5,0.5 -11.5,0.8 -3,0.3 -12.9,1 -22,1.6 -9.1,0.6 -17.8,1.2 -19.5,1.3 -1.6,0.2 -7,0.6 -12,1 -4.9,0.3 -11.8,0.9 -15.2,1.1 -5.7,0.5 -6.3,0.4 -6.3,-1.4 z"
       id="path54" />
    <path
       d="m 1314,286 c 0,-1.5 1.3,-1.9 8.3,-2.4 4.5,-0.4 13.8,-1.1 20.7,-1.7 6.9,-0.5 20.4,-1.4 30,-1.9 9.6,-0.5 22,-1.4 27.5,-2 7.5,-0.8 11.2,-0.7 14.8,0.2 4.2,1.1 4.7,1.5 4.7,4 0,2.8 0,2.8 -2.6,1.1 -2.1,-1.4 -4.6,-1.6 -12.8,-1.4 -5.5,0.1 -11.9,0.4 -14.1,0.7 -8.9,1 -24.5,2 -44,2.9 -2.7,0.1 -6.1,0.5 -7.5,0.8 -1.4,0.3 -7.6,0.8 -13.7,1 -10.3,0.4 -11.3,0.3 -11.3,-1.3 z"
       id="path56" />
    <path
       d="m 1203,279.2 c 0,-2.2 0.3,-2.3 36,-4.2 10.7,-0.6 24.5,-1.5 30.6,-2 16.5,-1.5 25.4,-1.3 25.4,0.4 0,1.7 -4.1,2.7 -10.6,2.6 -2.7,0 -7.1,0.2 -9.9,0.4 -2.7,0.3 -9,0.7 -14,1 -4.9,0.3 -13,0.8 -18,1.2 -4.9,0.3 -13,0.7 -18,0.9 -4.9,0.1 -11.8,0.6 -15.2,1 -5.8,0.6 -6.3,0.5 -6.3,-1.3 z"
       id="path58" />
    <path
       d="m 1296,273.1 c 0,-1.6 0.6,-2.1 2.7,-2.1 1.5,0 12.9,-0.7 25.3,-1.5 38,-2.5 68.8,-4.5 83.1,-5.5 11.5,-0.9 14.2,-0.8 18.2,0.6 3.9,1.3 4.7,2 4.7,4.1 0,1.3 -0.4,2.2 -0.9,1.9 -0.5,-0.3 -8.8,-0.6 -18.5,-0.7 -10.4,0 -17.4,-0.4 -17,-1 0.3,-0.5 0.1,-0.9 -0.5,-0.9 -0.5,0 -1.1,0.4 -1.3,0.9 -0.1,0.5 -8.2,1.1 -17.8,1.5 -9.6,0.3 -19.1,0.8 -21,1 -3,0.3 -16.1,1.1 -34.5,2.1 -2.7,0.2 -8.9,0.6 -13.7,0.9 -8.4,0.7 -8.8,0.6 -8.8,-1.3 z"
       id="path60" />
    <path
       d="m 212.5,243.3 c -25.8,-1.1 -52.3,-4.5 -69.8,-8.9 -22.9,-5.8 -34.3,-10.5 -45.3,-18.8 -15.8,-11.8 -20.9,-22.1 -17.3,-35.1 1.7,-6 13.3,-17 23.7,-22.4 15.9,-8.2 45.6,-16.5 69.7,-19.5 33.9,-4.2 9.7,-4.1 681.5,-4.1 516,0 644.2,0.3 655.5,1.3 37.1,3.4 54.6,6.8 79,15.2 14.2,4.9 21.3,8.6 29.1,14.8 9,7.4 11.8,12 12.2,20.3 0.6,9.4 -1.4,14.3 -8.8,21.8 -11.9,12.1 -23.1,17.9 -46.8,24.5 -28.5,7.9 -51.9,10.5 -102.7,11.3 -33.1,0.6 -35.2,0.5 -38.5,-1.3 -3.1,-1.7 -5.5,-1.9 -23,-1.7 -10.7,0.1 -28,0.9 -38.5,1.8 -16.8,1.3 -82.6,1.5 -586,1.3 -311.8,-0.1 -570.1,-0.3 -574,-0.5 z m 13.3,-41 L 226,178 H 212.5 199 v 24.5 24.6 l 13.3,-0.3 13.2,-0.3 z m 72.2,0.2 V 178 H 284.5 271 v 23.8 c 0,13.1 0.3,24.2 0.7,24.5 0.3,0.4 6.4,0.7 13.5,0.7 H 298 Z m 73,0 V 178 h -13.4 c -7.4,0 -13.7,0.3 -13.9,0.8 -0.2,0.4 -0.2,11.4 0.1,24.5 l 0.5,23.7 h 13.3 13.4 z m 136,18 V 214 h -39.9 c -47,0 -44,0.7 -44.4,-10.5 l -0.2,-7 39.3,-0.3 39.2,-0.2 v -5.5 -5.5 h -37.2 c -33.2,0 -37.3,-0.2 -39,-1.7 -1,-0.9 -1.8,-2.4 -1.8,-3.5 0,-1.7 -1.1,-1.8 -14,-1.8 h -13.9 l 0.4,17.1 c 0.3,9.6 1,18 1.6,19.2 2.7,5.2 8.6,9.8 14.9,11.8 1.4,0.4 23.3,0.8 48.8,0.8 L 507,227 Z m 141.6,3.8 c 8.4,-4.5 14.4,-14.5 12.5,-20.9 -2.1,-7.2 -6.3,-12.4 -13.1,-16 -3.1,-1.7 -6.5,-1.9 -31.7,-2.2 L 588,184.9 v 5.5 5.6 h 20.3 c 24.9,0 25.1,0.1 25.5,8.7 0.5,9.9 2.7,9.3 -38.2,9.3 -28.9,0 -35.6,-0.3 -37.2,-1.4 -1.7,-1.3 -1.9,-2.8 -1.9,-17.8 v -16.3 l -13.7,-0.3 -13.8,-0.3 v 14.8 c 0,8.1 0.5,16.5 1.1,18.6 1.8,6.4 8.1,12.4 15.9,14.8 1.4,0.4 24.1,0.7 50.5,0.6 47.5,-0.2 48,-0.2 52.1,-2.4 z M 711,202.5 V 178 H 697.5 684 v 24.5 24.5 h 13.5 13.5 z m 98.5,-0.2 0.1,-24.3 H 795.8 782 v 8 8 H 752.5 723 v 8 8 h 29.5 29.5 v 7.8 c 0,4.3 0.3,8.2 0.7,8.6 0.4,0.3 6.6,0.5 13.7,0.4 l 13.1,-0.3 z m 109.7,1 c 0.3,-13.1 0.3,-24.1 0.1,-24.5 -0.2,-0.5 -6.5,-0.8 -13.9,-0.8 H 892 v 23.8 c 0,13.1 0.3,24.2 0.7,24.5 0.3,0.4 6.4,0.7 13.3,0.7 h 12.7 z m 92.4,21 c 4.3,-2.3 9.1,-7.2 10.4,-10.7 0.4,-1.2 1,-9.6 1.4,-18.8 l 0.7,-16.8 h -14.2 -14.2 l 0.6,9.8 c 0.8,12.1 -0.4,24 -2.3,25.2 -0.8,0.6 -15.5,1 -32.7,1 H 930 v 6.6 6.5 l 38.8,-0.3 c 37.7,-0.3 38.8,-0.4 42.8,-2.5 z M 1078,202.5 V 178 h -13.5 -13.5 v 24.5 24.5 h 13.5 13.5 z m 95.2,16.2 c -7.3,-7.4 -8.2,-8.6 -8.2,-12 0,-2 0.4,-3.7 1,-3.7 0.5,0 2.5,-1.4 4.5,-3.2 4.9,-4.2 8.5,-11.6 8.5,-17.3 V 178 h -13.5 -13.5 v 5.8 c 0,3.6 -0.6,6.6 -1.6,8 -1.5,2.2 -1.7,2.2 -30.5,2.2 H 1091 v 8 8 h 23 23 l 8.1,8.5 8.2,8.5 h 14.1 14.1 z M 1231,202.5 V 178 h -13.5 -13.5 v 24.5 24.5 h 13.5 13.5 z m 121.7,-0.2 16.2,-24.3 h -13.5 -13.5 l -9.4,14.5 c -9.4,14.4 -9.5,14.5 -13.2,14.5 -3.8,0 -3.8,-0.1 -13.1,-14.5 l -9.4,-14.5 h -13.5 -13.5 l 1.8,2.8 c 0.9,1.5 8.3,12.5 16.3,24.5 l 14.5,21.7 17,-0.2 17,-0.3 z M 1520,220.5 V 214 h -39.9 c -47.3,0 -44.6,0.6 -44.6,-10.7 v -6.8 l 39.3,-0.3 39.2,-0.2 v -5.5 -5.5 h -37.3 c -34.4,0 -37.5,-0.1 -38.9,-1.7 -0.8,-1 -1.8,-2.6 -2.1,-3.5 -0.6,-1.6 -2.2,-1.8 -14.1,-1.8 h -13.5 l 0.3,16.8 c 0.1,11.4 0.6,17.5 1.5,19.2 2.9,5.5 8.6,10.1 15.1,12.1 1.4,0.4 23.3,0.8 48.8,0.8 L 1520,227 Z M 125.4,205 c 4.3,-1.6 10.4,-7.9 12.2,-12.6 2.2,-5.8 0.9,-10.6 -4.5,-16.2 -7.6,-7.8 -16.4,-7.9 -24.1,-0.2 -5.4,5.4 -6.8,10.5 -4.6,16.5 3.8,9.7 13.3,15.5 21,12.5 z m 1469.1,-0.9 c 5,-2.3 7.8,-5.3 10.4,-11.2 1.7,-3.7 1.9,-5.2 1,-8.3 -1.9,-6.8 -11.1,-14.6 -17.1,-14.6 -6.6,0.1 -15.8,7.8 -17.8,14.9 -1.1,3.9 1.3,10.6 5.3,15 2.5,2.7 9.2,6.1 12.2,6.1 1.1,0 3.8,-0.9 6,-1.9 z M 370,165.9 c 0,-2.6 -4.5,-8.1 -8.1,-9.9 -3.7,-1.9 -6.2,-2 -83.4,-2 H 199 v 6.5 6.5 h 85.5 c 63,0 85.5,-0.3 85.5,-1.1 z m 136.8,-5.6 0.3,-6.3 H 451 395 v 5.8 c 0,3.2 0.3,6.2 0.7,6.5 0.3,0.4 25.4,0.6 55.7,0.5 l 55.1,-0.3 z m 155,0 0.3,-6.3 h -60.4 -60.4 l -3.4,2.3 c -3.2,2.1 -7.9,8 -7.9,9.9 0,0.4 29.6,0.7 65.8,0.6 l 65.7,-0.3 z m 147.2,5.8 c 0,-1.8 -4.7,-7.7 -7.9,-9.8 L 797.7,154 H 747 696.3 l -3.4,2.3 c -3.2,2.1 -7.9,8 -7.9,9.8 0,0.5 27.9,0.9 62,0.9 34.1,0 62,-0.4 62,-0.9 z m 213.3,-0.8 c -0.3,-1 -1.7,-3.3 -3,-5.1 -4.8,-6.4 -2.2,-6.2 -67.8,-6.2 H 892 v 5.8 c 0,3.2 0.3,6.2 0.7,6.5 0.3,0.4 29.8,0.7 65.4,0.7 61.3,0 64.8,-0.1 64.2,-1.7 z m 155.7,0.5 c 0,-2.3 -4.5,-7.7 -8.1,-9.7 -3.6,-2 -5.1,-2.1 -54.8,-2.1 -48.9,0 -51.3,0.1 -55,2 -3.6,1.8 -8.1,7.3 -8.1,9.9 0,0.8 16.8,1.1 63,1.1 48,0 63,-0.3 63,-1.2 z m 53,-5.3 V 154 h -13.5 -13.5 v 5.8 c 0,3.2 0.3,6.2 0.7,6.5 0.3,0.4 6.4,0.7 13.5,0.7 h 12.8 z m 56.4,3.8 c -0.9,-1.6 -3.1,-4.9 -4.8,-7.5 l -3.1,-4.8 h -13.2 c -7.3,0 -13.3,0.2 -13.3,0.5 0,0.3 2.1,3.7 4.6,7.5 l 4.7,7 h 13.5 13.4 z m 91.9,-1.9 c 1.7,-2.5 4,-5.9 5,-7.5 l 1.9,-2.9 h -13.5 -13.4 l -4.7,7 c -2.5,3.8 -4.6,7.2 -4.6,7.5 0,0.3 5.9,0.5 13,0.5 h 13 z m 140.5,-2.1 0.3,-6.3 h -56.1 -56 v 5.8 c 0,3.2 0.3,6.2 0.7,6.5 0.3,0.4 25.4,0.6 55.7,0.5 l 55.1,-0.3 z"
       id="path62" />
  </g>
  <g
     fill="#e82327"
     id="g106"
     transform="translate(-5.2543556,-0.625)">
    <path
       d="m 633,576.1 c -7.2,-1.9 -11.5,-4.4 -13.1,-7.2 -0.9,-1.7 -0.3,-1.9 8.3,-2.2 8.1,-0.3 7.7,-0.3 -2.6,-0.4 -10.7,0 -12.1,-0.2 -13,-1.9 -0.6,-1 -1.8,-2.4 -2.7,-3.1 -2,-1.5 -8.4,-14.6 -9.5,-19.3 -0.9,-4.3 -0.8,-3 -1.8,-18 -0.4,-6.9 -0.9,-14.3 -1.1,-16.5 -1.4,-18.5 -2.6,-39 -2.8,-46.7 l -0.2,-9.3 h 3.2 c 1.7,0 3.5,-0.3 3.9,-0.7 0.4,-0.5 -1.1,-0.8 -3.4,-0.8 -3.2,0 -4.2,-0.4 -4.7,-2.1 -0.4,-1.3 0,-2.7 1.1,-4 1.6,-1.7 1.6,-1.9 0.1,-1.9 -1,0 -1.7,-0.6 -1.7,-1.2 -0.1,-0.7 -0.3,-4.2 -0.5,-7.8 -0.2,-3.6 -0.7,-10.8 -1,-16 -0.3,-5.2 -0.7,-10.8 -0.9,-12.5 -0.2,-1.6 -0.7,-8.8 -1.1,-16 -0.3,-7.1 -0.9,-15.9 -1.3,-19.5 -0.3,-3.6 -0.7,-11.7 -0.9,-18 l -0.4,-11.5 3.1,-3.3 c 3.6,-4 3.7,-4.2 0.6,-4.2 -3.5,0 -3.9,-1.3 -2.6,-7.3 1.9,-8.5 4.4,-12.8 11.5,-20.5 11.9,-12.8 19.9,-15.3 53.5,-16.7 3,-0.2 12.5,-0.8 21,-1.4 38.3,-2.8 46.4,-3 47.7,-1.4 0.6,0.8 2.9,1.7 5,2 3.2,0.4 3.9,0.1 4.8,-1.8 0.6,-1.3 2.1,-2.4 3.5,-2.6 5.7,-0.8 19.3,-1.8 51.5,-3.8 14.5,-0.8 23.3,-1.4 29,-1.9 2.8,-0.3 9.7,-0.7 15.5,-1 5.8,-0.3 12.5,-0.8 15,-1.1 4.6,-0.5 10.8,-0.9 35.5,-2 7.7,-0.4 14.5,-1 15,-1.5 0.6,-0.4 5.9,-1 11.9,-1.4 6,-0.4 11.4,-1 12,-1.3 0.5,-0.4 5.2,-0.6 10.3,-0.4 5.1,0.1 9.8,-0.1 10.4,-0.5 0.7,-0.4 4.9,-0.8 9.3,-0.9 12.5,-0.2 33.9,-1.6 35.6,-2.2 0.8,-0.4 6,-0.8 11.5,-0.9 5.5,-0.2 15.6,-0.8 22.5,-1.3 15,-1.2 24,-1.8 42,-2.6 16.1,-0.8 20.7,-2.4 7.5,-2.6 l -9,-0.2 7,-0.9 c 3.9,-0.5 11.1,-1.1 16,-1.3 27.2,-1.4 49.5,-2.6 61.5,-3.5 41.8,-3.1 79.1,-5.1 106.5,-5.6 17.4,-0.3 31.2,-1 31.6,-1.5 1.4,-2.3 9.2,-2.9 36.9,-2.9 16.2,0 39,-0.6 50.5,-1.5 50.8,-3.5 59.7,-3.5 66.6,0 1.5,0.8 5,1.5 7.6,1.5 4.5,0 5.3,0.4 11.4,6 7,6.3 9.2,10 5.8,10 -2.5,0 -2.4,0.6 0.7,6 2.8,4.8 3.1,6 4.4,19 0.4,4.7 1.1,10.6 1.5,13.1 0.5,3.3 0.3,5.4 -0.8,7.5 -1.3,2.5 -1.3,3.1 -0.1,4.2 0.8,0.7 1.5,2.7 1.6,4.5 0.1,1.8 0.3,5.5 0.4,8.2 0.2,2.8 0.6,7.7 0.9,11 0.4,3.3 0.8,10.1 1,15 0.2,5 1,16.4 1.7,25.5 1.5,17.6 1.3,20.5 -1.4,20.6 -1,0.1 -2.5,0.2 -3.3,0.3 -0.8,0 -1.5,0.8 -1.5,1.7 0,1.3 0.7,1.5 3.5,1.1 1.9,-0.3 3.7,-0.2 3.9,0.2 0.3,0.4 0.8,6.3 1.1,13.2 0.4,6.8 0.8,14 1,15.9 1.4,14.4 3.4,56.5 2.9,60.5 -2.8,24.3 -19.5,40 -44.6,42 -4,0.3 -10.2,0.8 -13.8,1.2 -3.6,0.3 -11.2,0.7 -17,0.9 -5.8,0.2 -15.4,0.7 -21.5,1.3 -12.8,1.1 -13.1,1.1 -21,1.6 -6.5,0.3 -41.2,2.5 -48.5,3 -2.5,0.2 -12.6,0.8 -22.5,1.5 -9.8,0.6 -18.3,1.4 -18.7,1.6 -0.4,0.3 -1.7,-0.1 -2.8,-0.8 -1.7,-1.1 -2.2,-1.1 -3,0.2 -0.7,1.1 -3.5,1.5 -12.2,1.7 -6.2,0.1 -16,0.6 -21.8,1.2 -5.8,0.5 -14.3,1 -18.9,1.1 -4.7,0 -8.9,0.4 -9.5,0.7 -0.5,0.4 -3.7,0.8 -7,0.9 -3.4,0.2 -10,0.6 -14.8,0.9 -8.8,0.6 -13,-0.1 -19,-3.1 -1.4,-0.8 -3.6,-1.4 -4.7,-1.4 -1.8,0 -2,0.3 -1.1,1.9 0.5,1.1 1,2.3 1,2.6 0,0.4 -3.7,0.5 -8.2,0.1 -4.6,-0.3 -10.5,-0.6 -13.3,-0.6 -2.7,-0.1 -6.5,-0.6 -8.2,-1.2 -2.7,-1 -3.9,-0.9 -6.8,0.5 -4.3,2.1 -6.9,2.2 -8.7,0.4 -1.1,-1.1 -7.4,-1.4 -31.5,-1.3 -22.3,0.1 -30.5,-0.2 -31.4,-1.1 -0.9,-0.9 -1.8,-0.9 -3.1,-0.2 -1.1,0.6 -3,0.8 -4.3,0.5 -1.3,-0.3 -14.6,-0.5 -29.7,-0.5 -15,0.1 -30.8,0.1 -35.1,0 -5.3,-0.1 -7.7,0.1 -7.2,0.8 0.3,0.6 1.9,1.1 3.4,1.1 1.5,0 4.2,1.1 6.1,2.5 3.3,2.4 3.9,2.5 13,2 5.2,-0.3 26.7,-0.8 47.7,-1 36.6,-0.4 38.4,-0.3 42.7,1.6 3.5,1.5 5,1.7 6.5,0.9 1.1,-0.5 3.3,-1 4.8,-1 1.6,0 3.3,-0.4 3.9,-1 1.3,-1.3 8.7,0.7 7.8,2.1 -0.3,0.6 -3.4,1 -6.7,1 -3.4,0 -12.3,0.4 -19.7,0.9 -16.9,1.2 -21.4,1.4 -48.5,2.8 -12.1,0.7 -24.4,1.7 -27.4,2.2 -3,0.6 -10.6,1 -16.8,1 -6.2,0 -11.3,0.3 -11.3,0.8 0,0.4 -3.3,0.8 -7.2,0.8 -15.2,0.3 -50.9,2.3 -52,3 -0.7,0.4 -9.3,1.1 -19.2,1.5 -21.7,1 -32.9,1.7 -37.6,2.5 -1.9,0.4 -8.2,0.8 -14,1 -14.4,0.5 -19.5,0.8 -42.5,2.8 -11,0.9 -22.2,1.6 -25,1.6 -5.1,0 -34.7,1.6 -46.5,2.5 -3.6,0.3 -13,1 -21,1.5 -8,0.5 -20.6,1.4 -28,1.9 -29,2.1 -43,2.2 -50,0.2 z m 328.5,-29.9 c 0,-1.8 0.7,-3.7 1.5,-4.2 1.1,-0.7 0.1,-1 -3.5,-1.1 -8.8,-0.2 -17,0.1 -23.8,0.9 -3.7,0.5 -9.1,0.5 -11.9,0.1 -6.7,-0.9 -23.7,-1 -30.3,0 l -5,0.7 4.8,0.5 c 2.7,0.2 5.1,0.1 5.3,-0.3 0.6,-1 8.6,-0.8 9.9,0.2 0.6,0.4 2.6,1 4.5,1.3 1.9,0.3 7.7,1.4 12.8,2.6 10.4,2.3 19.5,2.1 22.4,-0.6 1.5,-1.4 2,-1.4 3.5,-0.2 1,0.8 2.2,2 2.6,2.7 0.5,0.8 2.2,1.2 4,1 2.9,-0.3 3.2,-0.6 3.2,-3.6 z M 659,548 c 6.3,-0.6 13.5,-1.1 16,-1.1 2.5,-0.1 12.4,-0.7 22,-1.5 9.6,-0.7 22.9,-1.6 29.5,-1.9 6.6,-0.3 19.2,-1.2 28,-1.9 8.8,-0.7 19.4,-1.4 23.5,-1.5 4.1,-0.1 11.8,-0.6 17,-1.1 5.2,-0.5 15.4,-1.2 22.5,-1.5 7.2,-0.3 18,-1 24.2,-1.5 6.1,-0.6 15.1,-1.2 20,-1.5 17.2,-1 25,-1.5 38.8,-2.4 7.7,-0.6 25,-1.7 38.5,-2.6 13.5,-0.8 31,-2 39,-2.5 8,-0.6 19.2,-1.3 25,-1.6 16.8,-0.8 22.8,-1.2 34.5,-2.2 6.1,-0.5 12.4,-1 14,-1 1.7,0 10,-0.5 18.5,-1.2 8.5,-0.6 20.5,-1.3 26.5,-1.5 6.1,-0.2 13,-0.6 15.5,-0.8 7.6,-0.7 22.2,-1.9 27.5,-2.2 2.8,-0.2 12,-0.8 20.5,-1.4 8.5,-0.6 19.8,-1.3 25,-1.6 5.2,-0.2 14.9,-0.9 21.5,-1.4 6.6,-0.6 18.3,-1.3 26,-1.6 7.7,-0.3 14.6,-0.7 15.5,-1 0.8,-0.2 12.5,-1.1 26,-2 61.3,-3.7 57.1,-3.5 116,-7.6 8.5,-0.5 21.8,-1.5 29.5,-2.1 7.7,-0.5 15,-1 16.2,-0.9 2.5,0.1 9.6,-5.1 12.6,-9.1 2.5,-3.3 2.6,-6.1 0.8,-33.1 -1.3,-19.2 -1.1,-23.4 0.8,-22.3 0.5,0.3 1.1,-0.1 1.5,-0.9 0.3,-1 -0.1,-1.5 -1.3,-1.5 -2.2,0 -3.1,-1.9 -3.1,-6.7 0,-2.6 0.5,-3.6 2,-4 2.7,-0.7 2.5,-1.7 -0.5,-3.1 -2.1,-1 -2.5,-1.8 -2.5,-5.6 0,-2.6 0.5,-4.6 1.2,-4.8 0.9,-0.3 0.8,-0.9 -0.5,-2.2 -1.8,-1.9 -2.5,-12.6 -0.8,-12.6 0.5,0 0.3,-1.2 -0.4,-2.7 -0.9,-1.8 -1.7,-9.8 -2.4,-22.3 -0.6,-10.7 -1.6,-27.9 -2.3,-38.2 -1.1,-17.2 -1,-18.9 0.5,-20.6 2.1,-2.3 2.1,-3.2 0.2,-3.2 -1.8,0 -2.2,-1.7 -3.4,-14.8 -1.2,-13.1 -2.8,-15.9 -11.3,-19.7 -6.8,-3 -6.4,-3 -29.8,-1.5 -19.6,1.3 -25.3,1.7 -47,2.9 -10.7,0.6 -28,1.8 -38.5,2.6 -10.4,0.8 -22.8,1.7 -27.5,1.9 -4.7,0.3 -16.1,1 -25.5,1.6 -9.3,0.5 -21,1.2 -26,1.5 -9.2,0.5 -25.4,1.6 -50,3.5 -7.7,0.6 -18.7,1.1 -24.5,1.2 -5.8,0 -10.9,0.4 -11.5,0.8 -0.5,0.4 -7.3,1.1 -15,1.5 -7.7,0.4 -15.3,0.9 -17,1.1 -1.6,0.2 -11.5,0.8 -22,1.4 -10.4,0.5 -21,1.2 -23.5,1.6 -2.5,0.3 -11.9,1 -21,1.5 -9.1,0.4 -19.6,1.1 -23.5,1.5 -6.6,0.6 -12.4,0.9 -38.5,1.9 -5.8,0.2 -11.4,0.7 -12.5,1.1 -2.1,0.7 -30.9,2.6 -64.5,4.3 -11.3,0.6 -23.2,1.5 -26.5,2 -3.3,0.6 -13.9,1.3 -23.5,1.7 -9.6,0.4 -19.3,0.9 -21.5,1.1 -2.2,0.2 -12.1,0.9 -22,1.4 -9.9,0.5 -21.4,1.1 -25.5,1.4 -4.1,0.3 -10.9,0.7 -15,1 -4.1,0.2 -13.1,1 -20,1.7 -6.9,0.6 -15.6,1.3 -19.5,1.4 -3.8,0.1 -10.5,0.3 -14.8,0.4 -6.5,0.3 -8,0 -9.1,-1.5 -1.1,-1.6 -1.4,-1.6 -2.2,-0.3 -1.1,1.9 -4.9,2.8 -13.4,3.3 -3.6,0.2 -12.1,0.8 -19,1.4 -12.8,1.1 -19.5,1.6 -38,2.6 -9.1,0.6 -10.9,1 -14.4,3.3 -8.8,6 -9.7,9.8 -7.9,34.7 0.6,9.4 1.6,26 2.2,37 0.6,11 1.4,21.6 1.7,23.5 0.3,1.9 1,12.1 1.5,22.5 0.4,10.5 1.3,24.6 1.8,31.5 0.5,6.9 1.2,16.2 1.4,20.7 l 0.4,8.1 -10.4,0.7 c -12,0.9 -14.3,2 -11.7,6.1 1.8,2.7 4.1,3 12.5,1.4 4.9,-1 5.5,-0.9 7.1,1 0.9,1.2 2.1,2 2.5,1.8 1,-0.4 2.1,8.3 2.2,17.7 0.1,7.5 0.8,9.2 6.5,15.4 3.3,3.5 7.8,6 11.1,6.1 1.1,0 7.2,-0.5 13.5,-1 z"
       id="path66" />
    <path
       d="m 649.6,539.6 c -5.7,-2.1 -8.4,-4.5 -11.3,-9.6 -2.2,-3.8 -2.6,-6.2 -3.1,-15.2 -0.5,-10.3 -0.4,-10.8 1.5,-10.8 3.9,0 5.3,3.1 5.3,11.8 0,7.3 0.3,8.6 2.8,12.1 4.3,6.3 6.8,7.1 20.2,6 6.3,-0.4 19.6,-1.3 29.5,-1.8 9.9,-0.6 20.3,-1.3 23,-1.6 2.8,-0.3 12.9,-1 22.5,-1.5 9.6,-0.6 22.9,-1.5 29.5,-2 6.6,-0.6 15.4,-1 19.5,-1.1 4.1,0 10.2,-0.4 13.5,-0.9 3.3,-0.5 11.9,-1.2 19,-1.5 24.3,-1.1 26,-1.3 29.8,-2 2.5,-0.5 3.7,-0.4 3.7,0.4 0,1.3 3.7,1.5 4.2,0.2 0.2,-0.5 3.3,-1.2 7,-1.4 5.7,-0.5 7,-0.2 9,1.5 1.9,1.6 2.4,1.7 2.6,0.5 0.2,-0.8 1.5,-2 3,-2.5 2.3,-0.9 20.7,-2.3 49.2,-3.7 4.1,-0.2 13.1,-0.8 20,-1.4 6.9,-0.6 17,-1.3 22.5,-1.5 5.5,-0.3 16.5,-1 24.5,-1.6 8,-0.5 18.3,-1.2 23,-1.5 4.7,-0.2 17.7,-1.1 28.9,-1.9 11.3,-0.8 20.7,-1.3 21,-1.1 0.4,0.2 4.2,-0.1 8.6,-0.6 6.5,-0.7 8.3,-0.6 10.2,0.6 1.9,1.3 3.9,1.4 12.5,0.5 5.7,-0.6 14.1,-1.7 18.8,-2.4 4.7,-0.8 8.9,-1.2 9.3,-0.9 0.4,0.3 1.3,0 2,-0.5 1.1,-0.9 8.8,-1.6 29.7,-2.7 5.2,-0.3 18.3,-1.2 29,-2.1 10.7,-0.8 22.2,-1.4 25.5,-1.3 3.3,0.1 7.8,0 10,-0.4 2.2,-0.4 8.4,-0.9 13.7,-1.2 8.9,-0.5 9.7,-0.4 10.3,1.4 0.3,1.1 1.2,1.8 1.9,1.5 0.7,-0.3 1.9,0.2 2.6,1.1 1.1,1.3 0.6,1.5 -3.9,1.7 -2.8,0 -5.7,0.1 -6.3,0.2 -0.7,0.1 -1.2,-0.5 -1.1,-1.1 0.4,-1.8 -3.8,-2.6 -7,-1.4 -2.2,0.8 -3.3,0.7 -5.1,-0.4 -2.5,-1.7 -4.9,-1.2 -8.1,1.5 -3.5,2.9 -10.3,4 -32.5,5.1 -32.8,1.6 -37.4,1.8 -52,2.9 -7.4,0.6 -18.7,1.3 -25,1.6 -6.3,0.2 -16.4,0.9 -22.5,1.5 -6,0.6 -19.5,1.4 -30,1.9 -10.4,0.5 -21.2,1.2 -24,1.5 -2.7,0.4 -12.6,1.1 -22,1.5 -9.3,0.5 -21,1.4 -26,1.9 -4.9,0.6 -15.8,1.3 -24,1.6 -8.3,0.3 -17.7,1 -21,1.5 -3.3,0.5 -10.8,1 -16.7,1 -5.9,0 -15.2,0.5 -20.7,1.1 -7,0.8 -10.5,0.8 -11.9,0 -1.5,-0.8 -2.9,-0.7 -5.4,0.3 -1.8,0.8 -7.6,1.7 -12.8,2 -14.7,1.1 -29.2,1.8 -32,1.7 -2.4,-0.1 -22.1,1.2 -38,2.6 -4.1,0.3 -8.4,0.6 -9.5,0.6 -1.1,-0.1 -10.4,0.6 -20.8,1.3 -10.3,0.8 -23.1,1.6 -28.5,1.8 -5.3,0.2 -16.4,0.9 -24.7,1.6 -8.2,0.6 -16.8,1.1 -19,1.1 -2.2,0 -8,0.4 -13,0.9 -4.9,0.5 -12.6,1.2 -17,1.5 -4.4,0.3 -10.7,0.7 -14,1 -3.9,0.3 -7.4,0 -9.9,-0.9 z"
       id="path68" />
    <path
       d="m 636.8,500.3 c -2.1,-0.5 -2.5,-2 -3.3,-13.8 -0.3,-4.9 -0.9,-12.7 -1.3,-17.2 -0.4,-4.4 -0.5,-9.2 -0.1,-10.5 0.3,-1.2 0.2,-3.4 -0.2,-4.8 -0.4,-1.4 -1.3,-10.8 -1.9,-21 -1.6,-26.1 -2.6,-41.2 -3.6,-53 -0.2,-3 -0.7,-8.4 -0.9,-12 -0.6,-7.1 -0.9,-21 -0.7,-27.7 0.2,-3.5 0.8,-4.8 4.2,-7.9 2.2,-2 4.9,-4.3 6,-5.1 2.4,-1.7 14,-3.1 31.5,-3.8 7.2,-0.3 17.7,-1 23.5,-1.6 17.2,-1.6 26.2,-1.9 28.2,-0.8 1.4,0.8 2.8,0.7 4.7,-0.1 3.9,-1.6 23.9,-3 26.9,-1.9 1.7,0.7 2.9,0.6 4,-0.3 1,-0.9 5.7,-1.4 14.6,-1.5 7.2,-0.1 13.8,-0.4 14.6,-0.6 4,-1.4 10.7,-1.9 24.2,-1.8 8.1,0.1 14.9,-0.3 15.2,-0.8 0.5,-0.8 10.3,-1.7 29.6,-2.6 3,-0.1 12,-0.7 20,-1.4 8,-0.6 18.8,-1.3 24,-1.5 5.2,-0.2 15.1,-0.9 22,-1.5 6.9,-0.6 17,-1.3 22.5,-1.5 5.5,-0.2 15.9,-0.9 23,-1.5 7.2,-0.6 17.3,-1.3 22.5,-1.5 5.2,-0.2 15.4,-0.9 22.5,-1.5 7.2,-0.6 17.3,-1.3 22.5,-1.5 5.2,-0.2 17.7,-0.9 27.8,-1.6 13.9,-1 18.5,-1.1 19.4,-0.2 0.9,0.9 0.7,1.2 -0.8,1.2 -1,0 -2.4,0.9 -2.9,2.1 -0.9,1.8 -2.1,2.1 -11.5,2.5 -5.8,0.3 -13.2,0.9 -16.5,1.4 -3.3,0.6 -10,1 -15,1 -4.9,0.1 -13.7,0.5 -19.5,1.1 -5.8,0.6 -17.5,1.4 -26,1.9 -8.5,0.5 -18.9,1.1 -23,1.4 -4.1,0.3 -14.7,0.9 -23.5,1.5 -8.8,0.5 -18.5,1.2 -21.5,1.4 -3,0.3 -10.9,0.8 -17.5,1.1 -6.6,0.4 -17.4,1.1 -24,1.7 -20.7,1.7 -65.3,4.1 -82,4.5 -8.7,0.2 -17.3,0.8 -19,1.4 -2.6,0.8 -27.3,2.8 -46,3.6 -6.8,0.3 -33.5,2.2 -41,2.8 -2.7,0.3 -13.3,0.9 -23.5,1.5 -10.2,0.6 -19.7,1.2 -21.1,1.4 -4,0.5 -11.7,5.4 -12.5,8 -0.8,2.5 -0.8,29.3 0.1,30.6 0.2,0.5 0.7,4.6 1,9.2 0.3,4.6 0.9,12.9 1.3,18.4 0.4,5.5 0.3,11.9 -0.1,14.3 -0.6,2.6 -0.5,4.7 0.1,5.5 0.6,0.7 1.5,7.7 2.1,15.7 0.6,8 1.3,17.9 1.6,22 0.3,4.1 0.7,9.5 0.9,12 0.1,2.5 0.6,10.8 1,18.6 0.5,8.1 0.5,14.3 0,14.6 -0.5,0.2 -1.7,0.3 -2.6,0.1 z"
       id="path70" />
    <path
       d="m 678.4,500.2 c -1.2,-0.2 -2.6,-1.4 -3.3,-2.8 -1,-2.3 -1.7,-2.5 -5.3,-2.2 -6.2,0.5 -6.2,-2.1 -0.2,-6.3 l 4.7,-3.2 -0.7,-12.1 c -0.3,-6.7 -0.9,-15.9 -1.2,-20.5 -0.5,-7.4 -0.4,-8.6 1.2,-9.8 1.6,-1.1 1.6,-1.3 0.2,-1.3 -1.2,0 -1.8,-1.2 -2.2,-4.2 -0.9,-7.5 -2.6,-29.9 -3.1,-42.3 -0.8,-19.4 -1.4,-24.1 -3.5,-26 -1,-0.9 -2.5,-1.8 -3.4,-1.9 -3.9,-0.6 -6.1,-8.1 -3.2,-10.5 1.5,-1.2 21,-3.5 23,-2.8 0.6,0.3 7.6,-0.1 15.6,-0.8 16.7,-1.4 19.1,-1 20.2,3 0.9,3.6 0,5.2 -4.8,8.5 -2.2,1.5 -3.7,3.3 -3.5,4.1 0.6,2.4 1.1,8.5 2.1,26.3 0.5,9.4 1.6,25.9 2.4,36.6 0.8,10.7 1.8,25.8 2.2,33.5 0.4,7.7 1.1,15 1.5,16.3 0.5,1.2 2.9,3.5 5.4,5 4.1,2.5 4.5,3 3.9,5.7 -0.8,4 -2.9,5.5 -8,5.5 -2.3,0 -4.9,0.3 -5.8,0.6 -1.1,0.4 -1.6,0.1 -1.6,-1 0,-1.1 -0.9,-1.6 -3,-1.6 -1.6,0 -2.9,0.3 -2.9,0.8 0.4,2.1 -0.4,2.2 -3.7,0.1 l -3.6,-2.2 -4.6,2.2 c -5.3,2.4 -11.7,3.8 -14.8,3.3 z"
       id="path72" />
    <path
       d="m 1273.8,500.2 c -1,-0.2 -1.8,-0.8 -1.8,-1.2 0,-0.6 -1.1,-0.5 -2.6,0 -3.7,1.5 -7.5,1.2 -11.3,-0.9 l -3.3,-1.8 5.3,-0.3 c 3,-0.2 6.6,-0.3 8.2,-0.3 1.5,0 2.7,-0.4 2.7,-0.8 0,-0.5 2.4,-0.7 5.3,-0.5 2.8,0.2 5.7,0 6.2,-0.5 1,-0.7 22.4,-2.5 41,-3.4 17,-0.8 27.9,-1.5 30.5,-2 1.4,-0.2 7.9,-0.7 14.5,-1 6.6,-0.3 15.4,-0.8 19.5,-1.1 4.1,-0.3 14.9,-0.8 24,-1.1 16.2,-0.4 16.5,-0.5 18.6,-3 2.2,-2.6 2.2,-2.6 4.3,-0.6 2,1.9 2,2 0.4,3.5 -4.8,4.2 -8.3,5 -27.2,5.9 -10.2,0.5 -22,1.2 -26.1,1.5 -4.1,0.2 -12,0.6 -17.5,0.9 -5.5,0.3 -17,1.2 -25.5,2.1 -11.1,1.2 -19.4,1.5 -29.3,1 -12.2,-0.6 -14.4,-0.5 -19.5,1.3 -5.7,2 -13.2,3 -16.4,2.3 z"
       id="path74" />
    <path
       d="m 733.2,495.8 c -0.5,-0.7 -1.3,-3 -1.7,-5 -0.7,-3.4 -0.5,-3.8 1.4,-3.8 2.6,0 7.3,-4.9 6.6,-6.8 -0.3,-0.7 0,-2.2 0.5,-3.3 0.8,-1.3 0.7,-2.5 0,-3.9 -0.6,-1.1 -1.3,-8.4 -1.5,-16.2 -0.3,-7.9 -0.8,-17.7 -1.2,-21.8 l -0.8,-7.5 -6.9,0.3 c -7.8,0.3 -8.6,-0.2 -8.6,-5.9 v -3.7 l 7,-0.7 c 5.5,-0.6 7,-1.1 7.5,-2.5 0.3,-1.1 0.1,-6.5 -0.4,-12.2 -1.3,-12.7 -2.3,-26.5 -2.2,-29.8 0.1,-4.8 -0.9,-6.7 -4.5,-8.6 -6.2,-3.3 -8.1,-10.4 -3.3,-11.9 1.1,-0.4 4.2,-0.4 6.8,0 3.3,0.4 5.9,0.2 8.4,-0.9 2.2,-0.9 3.9,-1.1 4.2,-0.5 0.9,1.4 5.3,1.1 7.9,-0.6 1.4,-1 4.7,-1.5 8.7,-1.6 3.5,0 9.1,0 12.3,0 7.4,-0.1 10.6,1.5 10.6,5.1 0,2.4 -3.5,7 -5.4,7 -0.4,0 -1.4,0.6 -2.1,1.4 -1.5,1.4 -1.2,16.3 0.6,39.1 3.1,37.5 3.5,48.5 1.7,51.8 -0.7,1.4 -0.6,2.2 0.8,3.1 1.3,1 1.8,3.4 2.2,11 l 0.5,9.7 4.8,4.1 c 6.2,5.2 6.3,9.1 0.3,10.1 -1,0.2 -2.9,0.8 -4.1,1.5 -1.4,0.8 -3.8,1 -6.3,0.6 -2.5,-0.4 -4.5,-0.2 -5.4,0.6 -0.8,0.6 -2.4,0.9 -3.5,0.5 -1.1,-0.3 -2.9,-0.1 -4.1,0.5 -1.5,0.8 -2.6,0.7 -4.5,-0.6 -2.3,-1.5 -2.7,-1.5 -3.8,-0.2 -1.7,2.2 -20.9,3.5 -22.5,1.6 z"
       id="path76" />
    <path
       d="m 808,491.6 c 0,-2.5 3,-3.9 8.3,-3.9 h 5.2 l -4,-1.3 c -5.5,-1.7 -9.6,-1.7 -12.2,0.1 -1.4,1 -2.4,1.2 -2.8,0.5 -1,-1.7 2.1,-5.7 6.5,-8.5 4.5,-2.8 6.5,-6.2 8.1,-13.4 0.6,-2.8 1.4,-5.3 1.8,-5.5 0.4,-0.3 2.6,-0.6 4.9,-0.7 5,-0.3 5.1,-2.3 0.1,-2.7 -3.7,-0.4 -5.2,-1.8 -4.3,-4.2 0.6,-1.5 2.9,-14.7 4.4,-25 1.1,-7.5 2.8,-17.4 4.1,-24.1 1.1,-5.6 1.1,-5.7 5.3,-6.2 2.2,-0.3 4.5,-0.2 5,0.3 0.9,0.9 0.1,6.9 -4.5,31.8 -1.1,6.3 -2.2,13.1 -2.4,15.2 -0.1,2.1 -0.5,4.2 -0.8,4.6 -0.3,0.5 -1.1,5.9 -1.8,12 -1.2,10.9 -1.2,11.2 0.9,13.9 1.2,1.5 4,3.6 6.2,4.7 2.4,1.2 4.1,2.8 4.2,3.9 0,1 0.1,2.5 0.2,3.2 0.1,1.2 -3.1,1.8 -18.4,3.5 -4.1,0.5 -8.8,1.4 -10.3,2 -3.6,1.5 -3.7,1.5 -3.7,-0.2 z"
       id="path78" />
    <path
       d="m 862,485.4 c -1.2,-3 0,-7.4 2,-7.4 0.5,0 1.7,-1.4 2.6,-3.1 1.5,-2.9 1.4,-3.7 -0.6,-12 -2.7,-10.6 -2.4,-10.5 -17.2,-9.2 -7.1,0.7 -10.5,0.6 -11,-0.1 -0.6,-1 -0.1,-8.4 0.8,-11.3 0.2,-0.9 3,-1.3 9.1,-1.3 4.8,0 9.4,-0.4 10.2,-0.9 1.2,-0.8 0.8,-3.3 -2.4,-15.3 -5.7,-21.7 -7,-26.2 -7.8,-27.5 -0.6,-1 0.2,-1.3 3.2,-1.3 5.1,0 5.2,-2.3 0.2,-3 -4.1,-0.6 -4.2,-0.9 -7.6,-13 -1.4,-5.2 -3.5,-12.6 -4.6,-16.5 -1.5,-5.3 -1.9,-8.5 -1.4,-13.2 0.7,-6.2 0.7,-6.3 3.8,-6.4 1.8,-0.1 5.7,-0.3 8.7,-0.6 13.1,-0.9 25.6,-1.2 26.6,-0.5 0.5,0.4 2,4.5 3.2,9.2 1.1,4.7 3.1,11.9 4.3,16 1.1,4.1 2.9,10.4 3.9,14 1.1,3.6 2.2,7.5 2.5,8.6 0.5,1.8 0,2.2 -2.6,2.8 -1.7,0.3 -4.3,0.6 -5.6,0.6 -4.9,0 -0.5,2.9 4.9,3.2 l 5,0.3 1.8,5.5 c 4.1,12.7 6,19 5.8,19.7 0,0.5 0.1,1.5 0.4,2.3 2.2,5.9 3.7,11 4.3,14 0.3,1.9 1.6,6.3 2.7,9.8 2.1,6.5 1.9,9.2 -0.6,9.2 -1,0 -1.3,0.6 -1,1.5 0.4,0.8 0.9,1.3 1.3,1.1 1.3,-0.8 3.7,2 5.6,6.9 1.1,2.7 3,5.4 4.2,6 6.3,3.2 7.2,7.4 2.1,10.4 -4.4,2.8 -10.3,2.5 -12.3,-0.5 -2.2,-3.5 -6.1,-5.7 -8.5,-4.9 -2.6,0.8 -2.6,3.2 0,4 1.1,0.3 2,1 2,1.4 0,1.8 -7.6,3.1 -21.7,3.7 l -15.2,0.7 z"
       id="path80" />
    <path
       d="m 976,483.9 c -1.9,-0.4 -5.5,-1.3 -8,-1.9 -2.5,-0.6 -5.8,-1.2 -7.3,-1.3 -1.5,-0.1 -3.2,-0.9 -3.7,-1.7 -0.5,-0.8 -1,-1.2 -1,-0.8 0,2.1 -6.7,-2.2 -12.4,-8.2 -6,-6.2 -7.1,-8.1 -6.7,-11.6 0.1,-0.7 -0.7,-1.1 -1.6,-1 -2.5,0.2 -7.7,-10.1 -10.2,-19.9 -2.6,-10.6 -4.7,-35.7 -3.5,-41 0.8,-3.3 1.5,-4.1 3.9,-4.6 2.9,-0.7 2.9,-0.7 0.4,-0.8 -3.2,-0.1 -4.6,-3.9 -2.7,-7.4 0.7,-1.2 1.3,-2.7 1.4,-3.4 1.7,-9.8 4.3,-16.6 8.8,-22.6 4.2,-5.8 13.2,-15 17.2,-17.7 4.7,-3.3 14.6,-7 18.5,-7 3.2,0 3.9,1.5 3.9,7.9 0,4.4 -0.2,4.8 -3.5,6.4 -4.9,2.3 -5.7,6.5 -5.3,25.8 0.2,13.4 0.1,15.9 -1.2,16.3 -1.1,0.3 -1.1,0.4 0.3,0.5 0.9,0 1.8,0.9 1.8,1.9 0.1,0.9 0.3,2.4 0.3,3.2 0.4,3.8 1.7,23.5 2.1,33 0.3,5.8 0.9,14.8 1.4,20 0.5,5.2 0.6,9.9 0.4,10.4 -0.3,0.4 -3,0.6 -6,0.4 -3.2,-0.3 -5,-0.1 -4.5,0.4 0.6,0.6 3.1,1 5.7,1 4.3,0 4.9,0.3 7.3,3.8 1.6,2.2 4.3,4.6 6.5,5.4 l 3.7,1.6 v 7 c 0,7.5 0.1,7.4 -6,5.9 z"
       id="path82" />
    <path
       d="m 989.5,480.8 c -0.9,-4 -0.1,-10 1.5,-10.8 0.8,-0.4 3.2,-1.5 5.3,-2.4 5.1,-2.2 12.5,-7.7 13.2,-9.8 0.3,-0.9 1.5,-2 2.5,-2.3 1.2,-0.4 1.9,-1.4 1.8,-2.8 -0.1,-1.2 0.4,-4.7 1.2,-7.7 2,-8.1 6.6,-11.3 10.5,-7.3 4,4 -2.7,23.1 -11.7,33.7 -4.3,5 -12.6,9.6 -20,11 -3.4,0.6 -3.8,0.4 -4.3,-1.6 z"
       id="path84" />
    <path
       d="m 1045.9,473.6 c -1.7,-3.7 -0.4,-6.9 3.8,-9.7 4.4,-2.8 4.3,1.3 1.2,-42.9 -0.6,-8 -1.2,-20.1 -1.5,-26.9 -0.2,-6.9 -0.6,-13.2 -0.8,-14 -0.3,-0.9 -0.8,-8.3 -1.2,-16.6 -0.3,-8.2 -1.1,-15.8 -1.6,-16.8 -0.5,-1 -2.5,-2.5 -4.4,-3.3 -3.3,-1.4 -5.4,-4.5 -5.4,-7.9 0,-3.1 4.9,-4.8 14.8,-5.2 5.3,-0.2 14.1,-0.8 19.6,-1.3 5.4,-0.6 13.1,-1 17.2,-1 6.8,0 7.5,0.2 9.1,2.6 1.5,2.4 1.5,2.9 0.2,5.3 -0.8,1.4 -2.4,2.7 -3.4,3 -4,0.7 -4.5,2 -4.5,12.1 0,5.3 0.3,10 0.7,10.3 0.8,0.9 1,18.7 0.1,18.7 -0.4,0 -1,-0.4 -1.3,-1 -0.9,-1.5 -3.5,-1.2 -3.5,0.4 0,0.8 1.4,2.6 3.1,3.9 l 3.2,2.5 0.8,15.8 c 0.5,8.8 1.3,20 1.9,25.1 0.5,5.1 1,13 1,17.6 0,10.2 1.7,14.9 5.9,16.6 4.1,1.8 5.9,6.3 3.7,9.6 -1.4,2.1 -2.4,2.5 -6.2,2.5 -2.5,0 -5.3,0.4 -6.2,0.9 -0.9,0.4 -11.5,1.2 -23.4,1.5 l -21.8,0.7 z"
       id="path86" />
    <path
       d="m 1111.2,469.6 c -1.4,-3.1 -0.1,-7.3 3,-9.7 2.9,-2.3 2.6,-6.3 -1.2,-15 -4.4,-9.8 -7.9,-19.3 -8.5,-22.7 -0.2,-1.6 -1.6,-5.4 -3,-8.5 -3.4,-7.8 -2.9,-15.8 1.4,-22.2 1.7,-2.5 3.1,-5.1 3.1,-5.7 0,-0.6 0.7,-1.9 1.5,-2.8 2.2,-2.4 15.2,-28.5 16,-32.1 1.1,-4.8 -1.8,-10 -6.8,-12.4 -4.6,-2.2 -6.3,-5.7 -4.8,-9.7 0.9,-2.4 1.5,-2.6 9.9,-3.3 5.9,-0.5 9.7,-0.3 11,0.4 2.6,1.4 4.5,1.4 3.7,0.1 -0.4,-0.6 1.3,-1 4.4,-1 2.7,0 5.3,0.5 5.6,1.1 0.5,0.7 2.5,0.8 5.4,0.4 11,-1.5 8.3,8.3 -3.8,14.5 -6,3 -7.9,5.2 -16.6,19.9 l -3.8,6.4 1.8,3.3 c 1,1.9 1.9,4.4 1.9,5.6 0.1,1.3 2.5,7.2 5.4,13.2 2.9,6 5.2,11.4 5.2,12 0,0.6 2.3,5.5 5,10.9 2.8,5.5 5,10.5 5,11.3 0,0.8 1.4,4.3 3,7.7 1.7,3.5 3,7 3,7.6 0,0.7 2,5.2 4.5,10 3,5.8 5.4,9.2 7,9.9 3,1.4 3.4,6.1 0.8,8.4 -1.9,1.6 -19.8,3.4 -45.9,4.4 l -12,0.5 z"
       id="path88" />
    <path
       d="m 1186,464.1 c -1.4,-3.5 -0.8,-6.1 1.8,-6.8 0.9,-0.2 2.6,-1.6 3.7,-3.1 1.7,-2.4 1.9,-4 1.7,-14.2 -0.1,-6.3 -0.7,-14.7 -1.3,-18.7 -0.5,-3.9 -1.4,-15.6 -1.8,-26 -0.7,-18 -0.7,-18.9 1.2,-20.5 2,-1.8 2,-1.8 -0.1,-1.8 -1.4,0 -2.3,-0.8 -2.6,-2.2 -1,-4.7 -1.7,-15.2 -1.7,-23.9 0,-9 0,-9.1 -2.9,-10.7 -1.7,-0.9 -3,-2.1 -3,-2.5 0,-0.5 -0.4,-0.5 -1,-0.2 -0.5,0.3 -1.8,-1 -2.7,-3 l -1.7,-3.6 3.3,-2.6 c 3.7,-2.9 2.6,-2.8 28.7,-3.8 14,-0.6 19.3,-0.5 19.8,0.3 0.4,0.7 1.1,9.9 1.6,20.4 0.5,10.6 1.2,21.7 1.6,24.6 l 0.7,5.2 -4.9,0.2 -4.9,0.1 5,0.6 5,0.6 0.7,14 c 0.4,7.7 0.8,15.8 0.8,18 0,2.2 0.5,7.1 1,10.8 0.6,3.7 1,13.6 1.1,21.9 0,8.8 0.4,15.7 1,16.4 0.6,0.7 0.9,3.2 0.7,5.6 -0.2,3.4 -0.7,4.3 -2.3,4.6 -1.1,0.2 -2.9,0.7 -4,1.2 -1.1,0.5 -11.3,1.1 -22.6,1.5 l -20.6,0.6 z"
       id="path90" />
    <path
       d="m 1245,458.2 c 0,-4.7 0,-4.7 5.8,-8 3.1,-1.7 7.6,-5 10,-7.2 4.3,-4.2 11.2,-16.4 11.2,-20 0,-1.1 0.3,-2 0.8,-2 0.4,0 1.2,-1 1.7,-2.2 1.2,-2.8 4.7,-3.5 6.5,-1.3 1.1,1.4 3.6,27.1 4,41.8 0,1.4 -0.9,1.7 -4.4,1.7 -2.5,0 -4.7,0.4 -5,0.8 -0.3,0.5 -7.3,0.9 -15.5,1 l -15.1,0.1 z"
       id="path92" />
    <path
       d="m 1299.9,457.2 c -1.7,-4.4 -1.1,-7.1 1.9,-8.6 4.9,-2.5 5.5,-4 5.3,-12.4 -0.3,-8.6 -0.8,-17 -1.6,-25.2 -1.4,-15.1 -2.5,-37.1 -2,-38 0.3,-0.5 2.4,-1 4.6,-1 5.2,0 4.8,-2.4 -0.4,-2.8 -2.2,-0.2 -4,-1 -4.6,-2 -0.4,-0.9 -1.1,-6.9 -1.5,-13.2 -1.6,-25.5 -1.5,-25 -6.8,-27.5 -3.8,-1.7 -4.3,-2.4 -4.6,-5.5 -0.4,-5.7 1.8,-6.5 20.3,-7.8 20.6,-1.5 28.9,-1.7 30.3,-0.8 0.8,0.5 1.2,4.7 1.2,13 0,6.7 0.5,14.7 1,17.8 0.6,3 1.5,14.7 2,25.9 1.1,22.3 1.3,25.2 2.4,35 1.1,9 0.4,10.7 -4.2,11.2 l -3.7,0.4 4.1,0.1 4.1,0.2 1.2,17.3 c 0.7,9.4 1.4,18.4 1.7,19.9 0.4,2 0.1,2.8 -1.5,3.3 -2.7,0.8 -25.8,2.5 -38.5,2.8 -9.5,0.2 -9.9,0.1 -10.7,-2.1 z"
       id="path94" />
    <path
       d="m 1359,454.5 c -0.6,-0.7 -1,-3.3 -0.8,-5.7 0.3,-3.8 0.7,-4.5 3.7,-5.9 5.5,-2.6 6.1,-4.7 5.5,-19.4 -0.5,-14 -1,-21.4 -1.8,-28.5 -1.3,-11.3 -1.7,-27 -0.7,-27 1.5,0 1.4,-2.7 -0.1,-3.2 -0.8,-0.3 -1.6,-5.6 -2.3,-15.9 -1.3,-17.3 -2.8,-21.9 -7.5,-23.9 -3.9,-1.6 -4.6,-2.7 -5.4,-8.3 -0.7,-4.4 -0.6,-4.8 1.7,-5.6 6.2,-2.4 20.9,2.1 30.2,9.2 11.7,8.9 16,15.3 21.4,31.5 4.1,12.3 5.7,23.6 5.4,39.4 -0.3,11.9 -3.1,25.3 -6.4,29.9 -1,1.5 -1.9,3.5 -1.9,4.6 0,2.5 -9.4,15.7 -13.1,18.5 -1.7,1.3 -4.2,3.4 -5.6,4.6 -5.5,5 -19.8,8.7 -22.3,5.7 z"
       id="path96" />
    <path
       d="m 1433.8,427.7 c -0.4,-7.2 -0.5,-8.4 -1.1,-12.7 -1.8,-13.4 -1.7,-14.9 0.6,-15.6 l 2.2,-0.7 -2.4,-0.8 c -1.8,-0.7 -2.2,-1.4 -1.7,-3.3 0.3,-1.4 0,-8.2 -0.8,-15.3 -0.8,-7 -1.5,-13.5 -1.5,-14.3 -0.5,-12.3 -2.3,-39.5 -3,-46 -0.5,-4.7 -1,-12.9 -1,-18.3 l -0.1,-9.7 -4,-4.4 c -3.7,-4 -9.2,-6.5 -12.5,-5.7 -0.5,0.1 -4.2,0.4 -8.3,0.6 -4,0.2 -9.6,0.6 -12.5,0.9 -2.9,0.4 -9.7,0.8 -15.2,1.1 -21.7,1 -30.1,1.5 -32.6,2.1 -2.7,0.5 -6.5,0.7 -29.4,1.8 -6.6,0.3 -13.6,0.9 -15.5,1.2 -3.7,0.6 -11.4,1.1 -34,2 -7.4,0.3 -13.7,0.8 -14,1.2 -0.3,0.4 -3.6,0.8 -7.5,0.8 -13.9,0.3 -37.5,1.7 -37.5,2.3 0,0.3 -4.2,0.7 -9.3,0.9 -10.1,0.3 -33.2,1.6 -44.2,2.5 -5.9,0.5 -25.3,1.7 -48,3.1 -2.7,0.1 -7.5,0.6 -10.6,1.1 -5.2,0.7 -5.8,0.6 -6.8,-1.4 -1.8,-3.2 -0.6,-4.1 5.4,-4.1 3,0 5.7,-0.5 6,-1 0.4,-0.6 2.5,-1.1 4.8,-1 5.1,0.1 20.3,-0.9 48.7,-3 8,-0.6 17.7,-1 21.6,-0.9 4,0.1 7.6,-0.1 8.2,-0.5 2,-1.2 30.7,-2.7 33.4,-1.7 1.9,0.7 2.8,0.7 3,-0.1 0.2,-0.6 2.8,-1.2 5.8,-1.3 3,-0.1 15,-0.9 26.5,-1.8 17.7,-1.4 45.3,-3.3 61,-4.3 2.2,-0.1 7.5,-0.4 11.8,-0.5 4.2,-0.1 8,-0.6 8.3,-1.1 0.3,-0.5 1.1,-0.5 1.8,0.2 0.9,0.7 2.9,0.7 6.3,0.1 2.8,-0.6 9.7,-1.2 15.4,-1.5 27,-1.5 32.4,-1.8 32.9,-2.1 0.3,-0.2 7.3,-0.6 15.5,-1 13.9,-0.6 15.4,-0.5 19.7,1.5 4.5,2 8.4,6 10.4,10.5 0.4,1.1 1.1,7 1.5,13 0.4,6.1 0.9,13 1.2,15.5 0.2,2.5 0.7,11.3 1.1,19.5 0.4,8.3 1.1,19.1 1.7,24 0.8,8.5 2.4,35 3.5,58.5 0.4,10.4 0.4,10.5 -2.1,11.7 -2.4,1.1 -2.5,0.9 -2.7,-2 z"
       id="path98" />
    <path
       d="m 1256.1,416.7 c -0.6,-0.8 -1.8,-3.8 -2.7,-6.8 -1.5,-5.1 -2.8,-6.7 -11.1,-13.9 -1.9,-1.6 -2.3,-3 -2.3,-7.4 0,-4.8 0.3,-5.8 2.5,-7.2 1.3,-0.9 4,-3.8 5.9,-6.4 2,-2.8 4.5,-5 5.8,-5.3 1.8,-0.3 1.7,-0.4 -0.4,-0.2 -2.2,0.1 -2.7,-0.3 -3.1,-2.9 -0.8,-5.6 3.3,-9 8,-6.5 2.1,1.1 2.4,1.9 2.2,5.9 -0.1,2.5 0.1,6.1 0.5,8 0.3,1.9 0.8,8 1.1,13.5 0.3,5.5 0.7,13.2 1,17 0.8,9 -0.3,12.9 -3.7,13.3 -1.3,0.2 -3,-0.3 -3.7,-1.1 z"
       id="path100" />
    <path
       d="m 1013.8,386.3 c -1.5,-1.6 -3,-4.1 -3.4,-5.8 -1,-4 -8.7,-19.3 -11.3,-22.5 -3.7,-4.5 -8.1,-8 -13.8,-10.8 -4.4,-2.3 -5,-3.3 -5.5,-9.7 l -0.3,-4 4.7,-0.3 c 3.2,-0.2 6.3,0.4 9.5,1.8 2.7,1.2 6.7,2.4 9,2.7 4.2,0.6 4.3,0.5 5.8,-3.1 1.7,-3.9 4.2,-4.6 8.8,-2.5 2.3,1.1 2.5,1.7 3.1,13.3 0.4,6.6 0.9,15 1.3,18.6 l 0.6,6.5 -2.1,-1.8 c -2.4,-2.2 -5,-1.7 -7.8,1.4 -1.5,1.6 -1.5,2 -0.4,1.8 0.8,-0.2 2.4,0 3.5,0.3 1.1,0.3 3.2,0.9 4.8,1.2 2.6,0.6 2.7,0.9 2.7,6.5 0,4.3 -0.5,6.2 -1.8,7.4 -2.6,2.4 -4.4,2.1 -7.4,-1 z"
       id="path102" />
    <path
       d="m 1269,358.5 c -0.7,-0.8 -2.5,-4.2 -4.1,-7.5 -1.5,-3.3 -4.9,-8 -7.4,-10.4 -2.5,-2.4 -4.5,-4.8 -4.5,-5.3 0,-0.5 -1.1,-1 -2.5,-1.1 -1.4,-0.1 -3.9,-0.9 -5.5,-1.7 -1.7,-0.9 -4,-1.3 -5.4,-0.9 -2.6,0.6 -3,0 -4,-7.1 -0.4,-2.2 -0.3,-4.5 0.2,-5.2 0.8,-1.2 16.3,-2.6 30.7,-2.7 l 7,-0.1 0.7,4 c 0.3,2.2 1,10.1 1.4,17.5 0.3,7.4 1,14.2 1.5,15.1 0.6,1.1 0,2.4 -1.9,4.3 -3.2,3 -4.4,3.2 -6.2,1.1 z"
       id="path104" />
  </g>
  <g
     fill="#7a94c2"
     id="g190"
     transform="translate(-5.2543556,-0.625)">
    <path
       d="m 182,253.3 c -24.6,-2.7 -51.9,-8.6 -75.4,-16.4 -27.5,-9 -49.3,-23.6 -56.6,-37.9 -3.3,-6.3 -3.3,-15.8 -0.2,-22.2 6.4,-13 23.3,-25.1 49.2,-35.3 19.7,-7.7 53.6,-14.8 86.6,-17.9 21.4,-2.1 22.4,-2.1 22.4,0.4 0,1.7 -0.7,2 -4.5,2 -6.8,0 -32.2,2.8 -47,5.1 -16,2.6 -42.1,9 -52.3,13 -4.2,1.6 -8.4,2.9 -9.3,2.9 -1,0 -1.9,0.4 -2.1,0.9 -0.5,1.3 -12.5,7.1 -14.8,7.1 -1.1,0 -2,0.7 -2,1.5 0,0.8 -0.7,1.5 -1.5,1.5 -0.8,0 -1.5,0.5 -1.5,1 0,0.6 -0.7,1 -1.5,1 -0.8,0 -1.5,0.5 -1.5,1 0,0.6 -0.8,1 -1.8,1 -0.9,0 -2.2,1 -2.7,2.3 -0.6,1.3 -2.1,2.3 -3.7,2.5 -2.1,0.3 -2.7,0.9 -3,3 -0.2,1.9 -1,2.8 -2.4,3 -1.6,0.2 -2.3,1.2 -2.7,3.5 -0.3,1.8 -0.8,4.2 -1.2,5.5 l -0.7,2.2 h 13.6 c 8.4,0 13.6,-0.4 13.6,-1 0,-0.5 0.7,-1 1.5,-1 1,0 1.5,-1.1 1.5,-3.5 0,-2.4 0.5,-3.5 1.5,-3.5 0.8,0 1.5,-0.8 1.5,-1.8 0,-2.5 4.1,-6.2 6.8,-6.2 1.5,0 2.2,-0.6 2.2,-2 0,-1.1 0.7,-2 1.5,-2 0.8,0 1.5,-0.4 1.5,-1 0,-0.5 1.1,-1 2.5,-1 1.4,0 2.5,-0.6 2.5,-1.3 0,-1.5 6.1,-4.7 9,-4.7 1.1,0 2,-0.4 2,-1 0,-0.5 1.1,-1 2.4,-1 1.3,0 2.6,-0.4 2.8,-0.9 0.3,-1 20.1,-7.2 30.8,-9.7 7.9,-1.9 31.3,-5.4 35.8,-5.4 2.1,0 3.2,0.5 3.2,1.5 0,1.5 -1.3,1.8 -15,3.5 -20.7,2.6 -51.3,11.5 -66.2,19.1 -10.8,5.6 -22,16.4 -23.8,22.9 -2.2,8.2 1.9,15.7 14.3,26.2 11.5,9.6 23.8,15 48.4,21.2 8.4,2.1 15,3.4 33.1,6.2 2,0.3 3.2,1.1 3.2,2.1 0,1.4 -1,1.5 -7.7,0.9 -17.5,-1.6 -48.2,-9.2 -61.2,-15.2 -8.1,-3.7 -21.2,-6 -28.7,-4.8 -4.4,0.6 -6.2,2.4 -2.5,2.4 3,0 5.1,1.1 5.1,2.6 0,0.9 1.1,1.4 2.9,1.4 1.6,0 3.6,0.7 4.5,1.5 0.8,0.8 2,1.5 2.7,1.5 0.7,0 6.7,1.8 13.3,3.9 23.2,7.6 52.3,13.8 72.9,15.7 6.6,0.6 7.7,0.9 7.7,2.5 0,2 -0.9,2.1 -9,1.2 z"
       id="path108" />
    <path
       d="m 1531,251.3 c 0,-1.7 1.3,-2.1 10.3,-3.2 20.8,-2.6 44.2,-8.2 67.4,-16.2 11.2,-3.9 16.3,-4.8 16.3,-2.9 0,1.5 -4.5,3.4 -19.5,8.3 -22.4,7.3 -46.9,12.7 -68.7,15.3 -5.3,0.6 -5.8,0.5 -5.8,-1.3 z"
       id="path110" />
    <path
       d="m 1280.8,248.3 c -1,-0.2 -1.8,-1.1 -1.8,-1.9 0,-1.2 -10.2,-1.4 -71.5,-1.4 -70.8,0 -71.5,0 -71.5,-2 0,-2 0.7,-2 99.2,-2 54.5,0 98.9,0.2 98.7,0.4 -0.7,0.7 -28.9,2.9 -34.7,2.7 -6.7,-0.2 -13.2,1.5 -13.2,3.4 0,1.5 -1.7,1.7 -5.2,0.8 z"
       id="path112" />
    <path
       d="m 1517,240.7 c 0,-1.8 2.2,-2.3 13.5,-3.2 18.1,-1.5 50.5,-9.3 63.9,-15.4 8.8,-4 17.8,-10.3 24.6,-17.2 9.8,-10 11.4,-18.6 5,-27.5 l -3.1,-4.4 h 3 c 2.9,0 3.1,0.3 3.1,3.5 0,2.8 0.4,3.5 2,3.5 1.3,0 2,0.7 2,2 0,1.9 0.7,2 15.5,2 h 15.5 l -2,-4 c -1.1,-2.1 -2,-4.6 -2,-5.5 0,-0.8 -0.7,-1.5 -1.5,-1.5 -1,0 -1.5,-1.1 -1.5,-3.5 0,-3.4 -0.2,-3.5 -3.6,-3.5 -2.7,0 -3.7,-0.5 -4.1,-2 -0.3,-1.1 -1.4,-2 -2.4,-2 -1.2,0 -1.9,-0.7 -1.9,-2 0,-1.6 -0.7,-2 -3,-2 -1.6,0 -3,-0.4 -3,-0.9 0,-0.5 -1.1,-1.2 -2.5,-1.5 -1.8,-0.5 -2.5,-1.3 -2.5,-3.1 0,-1.4 0.4,-2.5 0.9,-2.5 2.3,0 19.3,12.5 23.6,17.2 7.1,7.9 8.9,12.1 8.9,20.3 0,5.6 -0.5,8 -2.6,12.1 -3.4,6.6 -15.3,17.5 -25.4,23.6 -10.7,6.4 -11.4,6.6 -11.4,3.5 0,-1.9 0.8,-2.8 3.8,-4 3.6,-1.6 3.4,-1.6 -9.6,-1.6 -12.3,-0.1 -13.6,0.1 -18.2,2.4 -15.7,8 -50.1,16.2 -75.7,18.1 -8.1,0.6 -9.3,0.5 -9.3,-0.9 z"
       id="path114" />
    <path
       d="M 196,209.5 V 189 h 13.4 c 7.3,0 14.8,-0.3 16.5,-0.6 l 3.1,-0.7 -0.2,20.9 -0.3,20.9 -16.2,0.3 -16.3,0.2 z"
       id="path116" />
    <path
       d="M 268.7,229.3 C 268.3,229 268,219.5 268,208.2 v -20.4 l 3.1,0.6 c 1.7,0.3 9.2,0.6 16.5,0.6 H 301 v 20.5 20.5 h -15.8 c -8.7,0 -16.2,-0.3 -16.5,-0.7 z"
       id="path118" />
    <path
       d="m 340.8,210.5 c -0.4,-36.3 -0.5,-34.9 1.5,-35.3 1.5,-0.3 1.7,0.5 1.7,6.8 v 7.2 l 15,-0.3 15,-0.4 V 209.2 230 H 357.5 341 Z"
       id="path120" />
    <path
       d="m 409,229.1 c -6.5,-2 -12.2,-6.6 -15,-12.1 -0.9,-1.7 -1.4,-8.7 -1.7,-22.2 C 392,175.5 392,175 394,175 c 1.8,0 2,0.7 2,7 v 7 h 54 54 v 5 5 l -39.2,0.2 -39.3,0.3 0.3,4 c 0.6,7.7 -0.7,7.5 44.3,7.5 H 510 v 9.5 9.5 l -49.2,-0.1 c -27.1,0 -50.4,-0.4 -51.8,-0.8 z"
       id="path122" />
    <path
       d="m 543,229.1 c -7.7,-2.4 -14.1,-8.4 -15.9,-14.8 -0.6,-2.1 -1.1,-8.8 -1.1,-14.8 v -11 l 15,0.4 15,0.3 V 182 c 0,-6.3 0.2,-7.1 1.8,-6.8 1.5,0.3 1.7,1.9 1.7,16.6 0,15 0.2,16.5 1.9,17.8 1.6,1.1 7.9,1.4 34.2,1.4 35.8,0 35.8,0 35.2,-6.4 -0.5,-5.2 -2.8,-5.6 -25.6,-5.4 l -20.2,0.3 v -5.2 -5.3 h 33 c 18.2,0 33,-0.4 33,-0.9 0,-1.6 -9.2,-2.1 -37.6,-2.1 -28,0 -28.4,0 -28.4,-2.1 0,-2 0.2,-2 31.3,-1.7 29.7,0.3 31.4,0.4 35.2,2.5 17.6,9.4 17.6,33.2 0.1,42.6 -4.1,2.2 -4.5,2.2 -55.1,2.4 -28,0.1 -52.1,-0.2 -53.5,-0.6 z"
       id="path124" />
    <path
       d="m 681,208.9 v -21.1 l 3.1,0.6 c 1.7,0.3 9.2,0.6 16.5,0.6 H 714 V 209.5 230 H 697.5 681 Z"
       id="path126" />
    <path
       d="M 779.7,229.4 C 779.3,229 779,225.1 779,220.8 V 213 H 749.5 720 v -11 -11 h 29.5 29.5 v -8 c 0,-7.3 0.2,-8 2,-8 1.8,0 2,0.7 2,7 v 7 h 13 13 v -7 c 0,-6.2 0.2,-7 1.9,-7 1.8,0 1.9,1.1 1.7,27.3 l -0.1,27.2 -16.1,0.3 c -8.8,0.1 -16.3,-0.1 -16.7,-0.4 z"
       id="path128" />
    <path
       d="M 889.7,229.3 C 889.3,229 889,219.6 889,208.6 v -20.1 l 15,0.4 15,0.3 V 182 c 0,-6.3 0.2,-7.1 1.8,-6.8 1.9,0.4 1.8,-1 1.4,35.3 L 922,230 h -15.8 c -8.7,0 -16.2,-0.3 -16.5,-0.7 z"
       id="path130" />
    <path
       d="M 927,220.6 V 211 h 31.4 c 27.3,0 31.7,-0.2 33,-1.6 1.6,-1.6 2.3,-8.1 1.7,-17.6 -0.2,-4.3 0,-4.8 1.8,-4.8 1.2,0 2.1,0.5 2.1,1 0,0.6 5,1 13,1 h 13 v -7 c 0,-6.4 0.2,-7 2,-7 2,0 2.1,0.4 1.6,19.3 -0.2,10.5 -0.9,20.4 -1.4,21.8 -1.6,4 -6.1,8.8 -10.6,11.2 -4,2.2 -5,2.2 -45.8,2.5 l -41.8,0.3 z"
       id="path132" />
    <path
       d="M 1048,209.5 V 189 h 16.5 16.5 v 20.5 20.5 h -16.5 -16.5 z"
       id="path134" />
    <path
       d="M 1142.1,221.5 1134,213 h -23 -23 v -11 -11 l 29.3,-0.2 29.2,-0.3 1.5,-3.2 c 1.8,-3.9 4,-4.3 4,-0.8 v 2.5 h 13 c 10.9,0 13,-0.2 13,-1.5 0,-0.8 0.9,-1.5 2,-1.5 5.9,0 -3.8,17.5 -11.2,20.3 -0.8,0.3 2.5,4.4 9.5,11.4 5.9,5.9 10.7,11.2 10.7,11.6 0,0.4 -8.7,0.7 -19.4,0.7 h -19.3 z"
       id="path136" />
    <path
       d="m 1201,208.9 v -21.1 l 3.1,0.6 c 1.7,0.3 9.2,0.6 16.5,0.6 h 13.4 v 20.5 20.5 h -16.5 -16.5 z"
       id="path138" />
    <path
       d="M 1285.7,209.5 1272,189 h 15.5 c 13.1,0 15.5,-0.2 15.5,-1.5 0,-0.8 -0.4,-1.5 -1,-1.5 -0.5,0 -1,-0.7 -1,-1.5 0,-0.8 -0.4,-1.5 -1,-1.5 -0.5,0 -1,-0.6 -1,-1.4 0,-0.8 -0.7,-1.6 -1.5,-2 -2.2,-0.8 -1.9,-4.6 0.4,-4.6 1.4,0 4.6,4.2 11.3,14.5 5.1,8 9.6,14.5 10.1,14.5 0.4,0 5,-6.5 10.2,-14.5 5.2,-8 9.9,-14.5 10.5,-14.5 0.5,0 1,1.4 1,3 0,1.7 -0.4,3 -1,3 -0.5,0 -1,0.7 -1,1.5 0,0.8 -0.4,1.5 -1,1.5 -0.5,0 -1,0.7 -1,1.5 0,0.8 -0.4,1.5 -1,1.5 -0.5,0 -1,0.5 -1,1 0,0.6 5,1 13.1,1 13,0 15.9,-0.7 15.9,-3.9 0,-0.6 0.5,-1.1 1,-1.1 0.6,0 1,-0.7 1,-1.5 0,-0.8 0.5,-1.5 1,-1.5 0.6,0 1,-0.7 1,-1.5 0,-0.8 0.5,-1.5 1,-1.5 0.6,0 1,-0.7 1,-1.5 0,-0.9 0.9,-1.5 2.5,-1.5 1.4,0 2.5,0.3 2.5,0.8 0,0.4 -8,12.6 -17.8,27.2 l -17.8,26.5 -20,0.3 -20.1,0.2 z"
       id="path140" />
    <path
       d="m 1422,229.1 c -7.7,-2.4 -14.2,-8.4 -16,-14.9 -0.5,-2.2 -0.9,-9.1 -0.9,-15.6 0.2,-10.6 0.4,-11.6 2,-11.6 1.1,0 1.9,0.5 1.9,1 0,0.7 18.7,1 54,1 h 54 v 5 5 l -39.2,0.2 -39.3,0.3 0.1,3.9 c 0.1,2.8 0.8,4.5 2.4,5.8 2.1,1.7 5.1,1.8 42.1,1.8 h 39.9 v 9.5 9.5 l -49.2,-0.1 c -27.1,0 -50.4,-0.4 -51.8,-0.8 z"
       id="path142" />
    <path
       d="m 112.5,207.6 c -4.4,-2 -8.3,-6 -10.5,-10.8 -3.7,-8.2 -4.7,-7.8 19,-7.8 23.6,0 22.7,-0.4 19.1,7.5 -1.9,4.3 -7.8,10 -11.8,11.6 -3.5,1.3 -12.3,1 -15.8,-0.5 z"
       id="path144" />
    <path
       d="m 1579.5,207.1 c -5.1,-2.3 -7.8,-5.4 -10.6,-11.5 -2.5,-5.7 -2.2,-12.6 0.8,-17.6 3.4,-5.8 4,-3.1 1.7,7.8 l -0.6,3.2 h 17.6 c 17.6,0 17.6,0 17.6,-2.2 -0.1,-1.3 -0.7,-3.4 -1.5,-4.8 -0.8,-1.4 -1.4,-3.7 -1.5,-5.2 0,-2.4 -0.4,-2.8 -3,-2.8 -2,0 -3,-0.5 -3,-1.5 0,-1 -1,-1.5 -3,-1.5 -2.3,0 -3,-0.4 -3,-2 0,-2.5 2,-2.5 6.9,-0.1 7.3,3.8 12.1,11.5 12.1,19.6 0,3.8 -4,12.3 -7.1,15.2 -5.8,5.3 -16,6.8 -23.4,3.4 z"
       id="path146" />
    <path
       d="m 428,183.8 v -2.3 l 38,0.3 c 37.1,0.2 38,0.3 38,2.2 0,2 -0.8,2 -38,2 h -38 z"
       id="path148" />
    <path
       d="m 1441,185 c 0,-0.5 -0.9,-1 -2,-1 -1.6,0 -2,-0.7 -2,-3.5 0,-4.2 0.6,-4.3 3.2,-1 l 1.9,2.5 h 37.5 c 36.7,0 37.4,0 37.4,2 0,2 -0.7,2 -38,2 -24.7,0 -38,-0.4 -38,-1 z"
       id="path150" />
    <path
       d="m 196,168 c 0,-2 0.7,-2 87,-2 h 87 l -1.3,-2.7 c -0.6,-1.6 -2,-3.4 -2.9,-4.1 -1,-0.7 -1.8,-2 -1.8,-2.8 0,-0.9 -1.1,-1.4 -3,-1.4 -2.3,0 -3,-0.4 -3,-2 0,-2.5 2,-2.5 6.9,0 4.6,2.3 8.1,7.5 8.8,13 l 0.6,4 h -89.2 c -88.4,0 -89.1,0 -89.1,-2 z"
       id="path152" />
    <path
       d="m 392.7,169.3 c -0.4,-0.3 -0.7,-4.6 -0.7,-9.5 0,-8.1 0.2,-8.8 2,-8.8 1.8,0 2,0.7 2,7.5 v 7.5 h 57.1 c 53.8,0 57,0.1 56.7,1.8 -0.3,1.6 -4,1.7 -58.4,2 -31.9,0.1 -58.4,-0.1 -58.7,-0.5 z"
       id="path154" />
    <path
       d="m 526.4,168.5 c -0.8,-2.1 1.4,-8.1 4.3,-11.6 4.5,-5.3 12.3,-7.9 12.3,-4.1 0,1.8 -4.8,4.2 -8.3,4.2 -1.1,0 -1.7,0.8 -1.7,2.5 0,1.4 -0.4,2.5 -1,2.5 -0.5,0 -1,0.9 -1,2 0,2 0.7,2 67.1,2 63.3,0 67,0.1 66.7,1.8 -0.3,1.6 -4.5,1.7 -69.1,2 -59.6,0.2 -68.8,0 -69.3,-1.3 z"
       id="path156" />
    <path
       d="m 681.4,168.5 c -0.8,-2.1 1.4,-8.1 4.3,-11.6 4.5,-5.3 11.3,-7.7 11.3,-3.9 0,1.3 -0.7,2 -2,2 -1.1,0 -2,0.5 -2,1 0,0.6 -1.1,1 -2.5,1 -2,0 -2.5,0.5 -2.5,2.5 0,1.4 -0.4,2.5 -1,2.5 -0.5,0 -1,0.9 -1,2 0,2 0.7,2 61,2 33.6,0 61,-0.4 61,-0.8 0,-0.5 -0.7,-1.7 -1.5,-2.8 -0.8,-1 -1.5,-2.6 -1.5,-3.4 0,-1 -1.7,-2.1 -4.5,-2.9 -3.3,-1 -4.5,-1.8 -4.5,-3.2 0,-4 7.7,-1.4 12.4,4.1 2.7,3.2 5.1,10.4 4.1,12 -0.4,0.6 -24.4,1 -65.6,1 -56,0 -65,-0.2 -65.5,-1.5 z"
       id="path158" />
    <path
       d="m 889.7,169.3 c -0.4,-0.3 -0.7,-4.6 -0.7,-9.5 0,-8.1 0.2,-8.8 2,-8.8 1.8,0 2,0.7 2,7.5 v 7.5 h 65 c 42.7,0 65,-0.3 65,-1 0,-0.5 -0.4,-1 -1,-1 -0.5,0 -1,-0.7 -1,-1.5 0,-0.8 -0.4,-1.5 -1,-1.5 -0.5,0 -1,-0.8 -1,-1.8 0,-1.2 -1.3,-2.2 -4.5,-3.1 -3.3,-1 -4.5,-1.8 -4.5,-3.2 0,-4.1 8.2,-1.2 12.4,4.3 2.5,3.4 4.9,10.5 4,12 -0.6,0.9 -135.7,1.1 -136.7,0.1 z"
       id="path160" />
    <path
       d="m 1048.3,166 c 0.7,-5.5 4.2,-10.7 8.8,-13 4.9,-2.5 6.9,-2.5 6.9,0 0,1.6 -0.7,2 -3,2 -1.9,0 -3,0.5 -3,1.4 0,0.8 -0.8,2.1 -1.8,2.8 -0.9,0.7 -2.3,2.5 -2.9,4.1 l -1.3,2.7 h 62.9 62.8 l -1.1,-3.5 c -0.6,-1.9 -1.7,-3.5 -2.3,-3.5 -0.7,0 -1.3,-0.9 -1.3,-2 0,-1.6 -0.7,-2 -3.5,-2 -2.8,0 -3.5,-0.4 -3.5,-2 0,-2.6 2.2,-2.6 6.9,0.1 4.8,2.7 8.3,8 8.5,12.7 l 0.1,3.7 -66.9,0.3 -66.9,0.2 z"
       id="path162" />
    <path
       d="m 1252.6,159.9 c -3.7,-5.5 -6.5,-10.3 -6.2,-10.6 1,-1.1 5.6,0.8 5.6,2.2 0,0.8 0.5,1.5 1,1.5 0.6,0 1,0.7 1,1.5 0,0.8 0.5,1.5 1,1.5 0.6,0 1,0.7 1,1.5 0,0.8 0.5,1.5 1,1.5 0.6,0 1,0.7 1,1.5 0,0.8 0.5,1.5 1,1.5 0.6,0 1,0.6 1,1.4 0,2.2 2.4,2.6 16.3,2.5 7.3,0 12.6,-0.3 12,-0.6 -0.7,-0.2 -1.3,-1.1 -1.3,-1.9 0,-0.8 -0.4,-1.4 -1,-1.4 -0.5,0 -1,-0.7 -1,-1.5 0,-0.8 -0.4,-1.5 -1,-1.5 -0.5,0 -1,-0.7 -1,-1.5 0,-0.8 -0.4,-1.5 -1,-1.5 -0.5,0 -1,-0.7 -1,-1.5 0,-0.8 -0.4,-1.5 -1,-1.5 -0.5,0 -1,-0.9 -1,-2 0,-4.6 3.6,-1.8 9.8,7.5 3.4,5.2 6.2,9.9 6.2,10.5 0,0.6 -6.5,1 -17.8,1 h -17.9 z"
       id="path164" />
    <path
       d="m 1343.8,169.4 c -1.2,-1.1 12.4,-20.4 14.4,-20.4 2.2,0 2.5,3.8 0.3,4.6 -0.8,0.4 -1.5,1.2 -1.5,2 0,0.8 -0.4,1.4 -1,1.4 -0.5,0 -1,0.7 -1,1.5 0,0.8 -0.4,1.5 -1,1.5 -0.5,0 -1,0.7 -1,1.5 0,0.8 -0.4,1.5 -1,1.5 -0.5,0 -1,0.7 -1,1.5 0,1.3 2.2,1.5 13.5,1.5 11.3,0 13.5,-0.2 13.5,-1.5 0,-0.8 0.5,-1.5 1,-1.5 0.6,0 1,-0.7 1,-1.5 0,-0.8 0.5,-1.5 1,-1.5 0.6,0 1,-0.7 1,-1.5 0,-0.8 0.5,-1.5 1,-1.5 0.6,0 1,-0.7 1,-1.5 0,-0.8 0.5,-1.5 1,-1.5 0.6,0 1,-0.5 1,-1.1 0,-1.9 2.9,-4 5,-3.7 1.9,0.3 1.3,1.4 -4.7,10.3 l -6.8,10 -17.6,0.3 c -9.6,0.1 -17.8,0 -18.1,-0.4 z"
       id="path166" />
    <path
       d="m 1405.7,169.3 c -0.4,-0.3 -0.7,-4.6 -0.7,-9.5 0,-8.1 0.2,-8.8 2,-8.8 1.8,0 2,0.7 2,7.5 v 7.5 h 57.1 c 53.8,0 57,0.1 56.7,1.8 -0.3,1.6 -4,1.7 -58.4,2 -31.9,0.1 -58.4,-0.1 -58.7,-0.5 z"
       id="path168" />
    <path
       d="m 1587,154.3 c -23.2,-8.3 -45.8,-12.8 -73.5,-14.8 -11.9,-0.8 -14.5,-1.4 -14.5,-3.1 0,-1.8 3.6,-1.8 23.1,0.1 18.7,1.9 31.8,3.9 42.4,6.6 11.8,3 30,9 30.3,10 0.2,0.5 1.5,0.9 2.8,0.9 1.9,0 2.4,0.5 2.4,2.5 0,1.4 -0.1,2.5 -0.2,2.4 -0.2,-0.1 -5.9,-2.1 -12.8,-4.6 z"
       id="path170" />
    <path
       d="m 1620.5,148.8 c -1.1,-0.6 -2.2,-1.4 -2.5,-1.7 -0.3,-0.4 -2.3,-1.2 -4.5,-1.8 -2.2,-0.7 -9.2,-2.7 -15.5,-4.6 -23.3,-7 -48.9,-11.6 -77.7,-13.9 -13.6,-1.1 -15.3,-1.4 -15.3,-3 0,-2.3 1.7,-2.3 21.5,-0.3 29.4,2.9 50.9,6.8 72.4,13 13.2,3.8 29.2,10.4 29.9,12.3 0.5,1.6 -5.5,1.6 -8.3,0 z"
       id="path172" />
    <path
       d="m 806,127 c 0,-2 0.7,-2 45.5,-2 44.8,0 45.5,0 45.5,2 0,2 -0.7,2 -45.5,2 -44.8,0 -45.5,0 -45.5,-2 z"
       id="path174" />
    <path
       d="m 769.5,125.9 c -31.7,-3.5 -63,-10 -86,-17.9 -9.6,-3.3 -21.5,-9.2 -21.5,-10.7 0,-0.7 -1.1,-1.3 -2.5,-1.3 -1.6,0 -2.5,-0.6 -2.5,-1.5 0,-0.9 -0.9,-1.5 -2.5,-1.5 -1.4,0 -2.5,-0.4 -2.5,-1 0,-0.5 -0.7,-1 -1.5,-1 -0.9,0 -1.5,-0.9 -1.5,-2.5 0,-1.4 0.3,-2.5 0.6,-2.5 0.4,0 3.8,2 7.8,4.4 10.9,6.8 24.8,13.1 38.1,17.1 21,6.3 51.8,12.2 75.5,14.5 16,1.5 18,1.9 18,3.5 0,1.7 -6.1,1.8 -19.5,0.4 z"
       id="path176" />
    <path
       d="m 924,125.5 c 0,-1.6 2,-2 18,-3.5 32.8,-3.1 75.4,-12.7 95.3,-21.4 3.7,-1.6 3.7,-1.6 3.7,0.8 0,2.4 -1.6,3.6 -5,3.6 -1,0 -2,0.4 -2.2,0.9 -0.6,1.8 -26.7,9.2 -45.7,13.1 -18.5,3.7 -50.5,8 -59.8,8 -3.1,0 -4.3,-0.4 -4.3,-1.5 z"
       id="path178" />
    <path
       d="m 437,119.7 c 0,-1.9 2.4,-2.3 15.5,-3.2 47.9,-3.2 105.2,-13.9 143.8,-26.9 15.6,-5.2 15.7,-5.2 15.7,-2.9 0,1.8 -0.6,2.3 -2.4,2.3 -1.3,0 -2.6,0.4 -2.8,0.9 -0.4,1.2 -20.5,7.6 -38.3,12.1 -36.2,9.3 -81.8,16.3 -120.2,18.6 -10,0.6 -11.3,0.5 -11.3,-0.9 z"
       id="path180" />
    <path
       d="m 1258.5,120.3 c -44.1,-3.9 -83.3,-10.3 -116.2,-18.8 -15.5,-4.1 -32.6,-9.4 -33.3,-10.5 -0.3,-0.4 -2.2,-1 -4.2,-1.4 -2.1,-0.4 -3.8,-1.1 -3.8,-1.5 0,-0.5 -1.8,-1.1 -4,-1.5 -2.2,-0.3 -4,-1.1 -4,-1.6 0,-0.6 -1.1,-1 -2.5,-1 -1.4,0 -2.5,-0.4 -2.5,-1 0,-0.5 -1.1,-1 -2.5,-1 -1.4,0 -2.5,-0.4 -2.5,-1 0,-0.5 -1.3,-1 -3,-1 -3.1,0 -4.3,-2.6 -1.6,-3.6 0.7,-0.3 8.9,2.4 18.2,5.9 21.2,8.1 32.3,11.6 50.4,16.2 34.1,8.6 78.9,15.7 113.5,18 12.8,0.8 15.5,1.4 15.5,3 0,1.5 -6.5,1.8 -17.5,0.8 z"
       id="path182" />
    <path
       d="m 832,106.4 c -50.9,-2.7 -92.8,-9.5 -115.9,-18.7 -10.5,-4.2 -5.8,-6.7 4.9,-2.6 3,1.1 11.5,3.6 18.8,5.5 l 13.3,3.4 24.2,-0.1 c 19.3,-0.2 22.4,-0.3 15.3,-1 -4.9,-0.4 -9.3,-1.2 -9.8,-1.7 -0.5,-0.5 -0.7,-5.1 -0.6,-10.3 0.3,-8.8 0.4,-9.4 2.5,-9.7 l 2.2,-0.3 -1.9,-3.2 C 782.6,63.9 782.3,57 784.4,57 c 0.8,0 1.7,1.4 2.1,3 1.3,6 8.4,12 14.2,12 3.8,0 7.3,1 7.3,2.1 0,0.5 -4.9,0.9 -11,0.9 -10.9,0 -11,0 -11,2.4 0,2 0.6,2.4 4.6,3 2.6,0.3 8,0.6 12,0.6 6.1,0 7.8,-0.4 9.4,-2 2.8,-2.8 2.6,-7.5 -0.5,-10.5 -2,-2.1 -3.4,-2.5 -8.4,-2.5 -5.4,0 -6.2,-0.3 -8.5,-3.1 -3.4,-4 -3.4,-8 0.2,-11.9 1.9,-2.3 3.9,-3.3 7,-3.7 5.5,-0.7 5.7,1.4 0.2,2.3 -4.3,0.7 -8,4.2 -8,7.4 0,1 0.9,2.9 2.1,4.4 1.7,2.2 2.8,2.6 7,2.6 2.8,0 6,0.5 7.2,1.1 7.7,4 7.5,15 -0.4,17.8 -2.6,0.9 -11.7,0.7 -20.7,-0.4 -3.2,-0.4 -3.3,-0.3 -3,2.8 l 0.3,3.2 9,0.8 c 12.6,1.1 18,0.5 21.1,-2.4 4.3,-4 5.7,-7.6 5.2,-13.6 -0.8,-9.2 -6.3,-14.4 -15.8,-15.1 -3.9,-0.3 -5.9,-0.8 -5.7,-1.6 0.6,-1.6 15.9,-1.5 16.5,0.2 0.5,1.7 2.2,1.5 2.2,-0.3 0,-0.8 0.7,-1.5 1.5,-1.5 1,0 1.5,-1 1.5,-3 0,-2 -0.5,-3 -1.5,-3 -0.8,0 -1.5,-0.4 -1.5,-1 0,-0.5 0.7,-1 1.5,-1 1,0 1.5,-1.1 1.5,-3.5 0,-2.4 -0.5,-3.5 -1.5,-3.5 -0.8,0 -1.5,-0.7 -1.5,-1.5 0,-1 1.1,-1.5 3.5,-1.5 2.3,0 3.5,0.5 3.5,1.4 0,1.1 0.8,1 3.7,-0.5 3.1,-1.6 5.9,-1.9 17,-1.9 10.7,0 13.3,0.3 13.3,1.4 0,2 -3.3,2.6 -15.1,2.6 -9.4,0 -11,0.3 -13.4,2.2 -3.3,2.6 -5.5,7.5 -5.5,12.3 0,3.2 -0.2,3.5 -3,3.5 -2.8,0 -2.9,0.1 -1.8,2.2 0.7,1.2 1.9,2.8 2.6,3.6 0.6,0.7 1.2,1.6 1.3,2 0,0.4 0.4,4.7 0.8,9.5 0.7,8 1.1,9.1 3.8,11.9 2.1,2 4.6,3.3 7.9,3.9 2.7,0.5 5.1,1.4 5.2,1.9 0.5,1.3 11.2,1.3 11.2,0 0,-0.5 1.5,-1 3.4,-1 3.5,0 4.6,-1.6 3.8,-5.2 -0.3,-1.6 -1.7,-1.8 -12.3,-1.8 -11.4,0 -12.1,-0.1 -14.4,-2.5 -2.4,-2.3 -2.5,-2.8 -2.5,-17 0,-14.2 0.1,-14.7 2.5,-17 2.3,-2.4 3,-2.5 14.3,-2.5 11.1,0 12,-0.1 12.5,-2 0.3,-1.4 1.4,-2 3.1,-2 2.1,0 2.6,-0.5 2.6,-2.4 0,-3.2 1.8,-3.6 19.3,-3.6 13.3,0 14.7,0.2 14.7,1.8 0,0.9 0.3,4 0.6,6.7 l 0.6,5 -13.4,-0.3 C 877,48.9 875.2,49 873.9,50.6 c -1,1.2 -1.5,5.1 -1.7,13.6 -0.4,13.3 0.6,17.5 4.4,18.4 3.4,0.9 3,2.4 -0.5,2.4 -5.3,0 -6.1,-2.6 -6.1,-19.1 0,-13.3 0.2,-14.9 2.1,-17.3 2,-2.6 2.2,-2.6 14.5,-2.6 H 899 V 43 40 H 885.2 C 874.1,40 871,40.3 869.1,41.6 866,43.8 864,48.9 864,54.5 V 59 L 852.8,58.4 C 846.6,58 841.3,57.5 841,57.3 839.6,56 844.6,55 852.3,55 h 8.7 v -3 -3 h -11.9 c -13.9,0 -14.3,0.2 -14.9,9.1 l -0.4,5.9 h 11.1 c 9.2,0 11.1,-0.3 11.1,-1.5 0,-0.8 0.7,-1.5 1.5,-1.5 1,0 1.5,1 1.5,3.3 v 3.2 L 846.5,67.1 834,66.8 v 5.5 c 0,3.9 0.5,6.2 1.9,7.8 1.8,2.2 2.8,2.4 13.5,2.7 L 861,83.2 V 79.6 76 h -10 c -8.2,0 -10,-0.3 -10,-1.5 0,-1.2 1.5,-1.5 7.5,-1.5 6,0 7.5,-0.3 7.5,-1.5 0,-0.8 0.7,-1.5 1.5,-1.5 0.8,0 1.5,0.5 1.5,1 0,0.6 0.9,1 2,1 1.5,0 2,0.7 2,2.8 0,4.8 3,12.1 6.2,14.7 2.7,2.3 3.7,2.5 13.4,2.5 6.3,0 10.4,0.4 10.4,1 0,1.3 2.7,1.3 3.2,-0.1 0.2,-0.5 2.2,-1.3 4.4,-1.6 l 4,-0.5 6.3,-20.7 c 3.5,-11.3 7,-21.6 7.8,-22.8 1.6,-2.8 3.5,-2.9 5.5,-0.5 1.2,1.3 11.5,31.7 12.1,35.7 0.1,0.6 -3.5,1.2 -8.3,1.5 -8.5,0.5 -8.5,0.5 -8.8,3.4 l -0.4,2.9 12.4,-0.8 c 6.8,-0.3 12.6,-1 12.9,-1.3 0.3,-0.4 -2.6,-10.3 -6.5,-22 -7.2,-21.7 -9.2,-25.5 -13.8,-26.4 -3.6,-0.7 -8.7,1 -10.2,3.5 -0.8,1.2 -4.2,11.4 -7.6,22.7 -3.3,11.2 -6.3,20.6 -6.6,20.9 -0.2,0.2 -0.4,-2.4 -0.4,-5.8 0,-8.9 9.5,-40.1 12.2,-40.1 1.1,0 1.8,-0.7 1.8,-2 0,-2.5 3.3,-3.4 10.5,-2.8 8.4,0.7 9.5,2.3 17.5,26.4 4.2,12.6 7,22.5 7,25.1 v 4.2 l -5.2,0.5 c -2.9,0.3 -6.9,0.8 -8.8,0.9 -1.9,0.2 5.4,0.5 16.3,0.5 21.2,0.2 27.5,-0.7 45.8,-6.3 8.7,-2.7 24.2,-9.4 24.7,-10.7 0.2,-0.5 1.9,-0.8 3.7,-0.8 3.1,0 3.3,-0.2 3.9,-4.2 0.9,-6.3 0.8,-8.2 -0.4,-8.6 -0.5,-0.2 -1,-1.2 -1,-2.3 0,-1.2 -0.7,-1.9 -2,-1.9 -1.1,0 -2.3,-0.7 -2.6,-1.5 -0.4,-0.8 -1.2,-1.5 -2,-1.5 -0.8,0 -1.4,-1 -1.4,-2.5 0,-3.2 0.8,-3.1 5.7,0.4 7.4,5.4 10.2,11 8,16.3 -6.8,16.1 -48.1,28.7 -112.7,34.3 -16.3,1.5 -73.4,2.7 -88,1.9 z m 84.3,-23.1 c 2.1,-6.5 2.5,-7.2 2.6,-4.4 l 0.1,3.3 6.9,-0.4 c 3.9,-0.2 7.2,-0.6 7.5,-0.9 C 934.2,80.1 923,47 921.9,47 c -0.4,0 -1.2,0.8 -1.7,1.8 -0.9,1.7 -13.2,40.6 -13.2,41.6 0,0.3 1.5,0.6 3.4,0.6 3.3,0 3.4,-0.1 5.9,-7.7 z"
       id="path184" />
    <path
       d="m 704,52.2 c 0,-4.1 35.1,-14.7 63.5,-19.1 23.2,-3.5 23.5,-3.6 23.5,-1.4 0,1.7 -1.3,2.1 -10.2,3.2 -13.6,1.6 -37.1,6.3 -48.3,9.7 -4.9,1.5 -10.2,2.9 -11.7,3.2 -1.6,0.2 -2.8,0.8 -2.8,1.3 0,0.5 -0.9,0.9 -2.1,0.9 -1.1,0 -2.7,0.7 -3.5,1.5 -1.6,1.5 -8.4,2.1 -8.4,0.7 z"
       id="path186" />
    <path
       d="m 1006.8,49.7 c -1.6,-0.6 -2.8,-1.4 -2.8,-1.9 0,-0.4 -1.1,-0.8 -2.5,-0.8 -1.4,0 -2.5,-0.4 -2.5,-1 0,-0.5 -1,-1 -2.2,-1 -1.3,0 -7.5,-1.3 -13.8,-2.9 -12.2,-3.1 -31.5,-6.6 -42.4,-7.7 -5.7,-0.6 -6.6,-1 -6.6,-2.6 0,-2.3 0.5,-2.2 23,1.3 28.1,4.4 59,13.3 59,16.9 0,1.3 -5.7,1.1 -9.2,-0.3 z"
       id="path188" />
  </g>
  <g
     fill="#c7d1e1"
     id="g264"
     transform="translate(-5.2543556,-0.625)">
    <path
       d="m 219.5,255.9 c -59.7,-2.8 -117.1,-15.9 -143.6,-33 -7.6,-4.9 -5.8,-5.6 12.3,-5.3 18.6,0.3 18.5,0.3 27.8,4.7 13.2,6.2 39.5,12.8 61,15.2 30,3.5 40.5,3.5 448.5,3.5 435.3,0 707.1,0.9 689.5,2.3 -5.8,0.5 -12.3,0.8 -14.5,0.8 -6.3,-0.2 -12.3,0.9 -14,2.6 -1.3,1.3 -6.2,1.5 -31.7,1.8 -29.2,0.4 -75,2.9 -114.8,6.3 -17.8,1.5 -58.6,1.6 -461.5,1.8 -243.1,0 -449.6,-0.2 -459,-0.7 z"
       id="path192" />
    <path
       d="m 1455.6,251.4 c -3.3,-3.1 -7.3,-6.5 -9,-7.5 -2.1,-1.3 -2.6,-2 -1.5,-2.3 0.8,-0.2 15.6,-0.7 32.9,-1 44.2,-0.7 66,-3.1 92.2,-10.2 14.2,-3.8 22.9,-6.9 29.8,-10.4 3.8,-2 6,-2.2 20.4,-2.4 8.9,-0.2 17.3,0.1 18.7,0.5 1.4,0.3 3.4,0.2 4.5,-0.3 4.1,-2.1 -3.5,3.3 -10.9,7.8 -8.6,5.1 -20.1,9.5 -40.3,15.4 -30.3,8.9 -67.6,14 -113.9,15.5 l -17,0.6 z"
       id="path194" />
    <path
       d="m 407.1,227.8 c -2.6,-0.7 -3.1,-1.2 -2,-1.9 0.8,-0.5 23.7,-0.9 52.7,-0.9 50.5,0 51.2,0 51.2,2 0,2 -0.6,2 -49.2,1.9 -29.1,0 -50.7,-0.5 -52.7,-1.1 z"
       id="path196" />
    <path
       d="m 541,227.8 c -2.5,-0.7 -3,-1.2 -2,-1.8 2.1,-1 99.1,-2.2 106.7,-1.2 3.4,0.5 6.9,0.4 7.8,0 0.8,-0.5 1.5,-0.6 1.5,-0.3 0,0.3 -1.9,1.5 -4.2,2.5 -4.1,1.9 -7,2 -55.3,1.9 -30.6,-0.1 -52.4,-0.5 -54.5,-1.1 z"
       id="path198" />
    <path
       d="m 927,227.2 c 0,-1.1 1,-1.9 2.8,-2.2 3.4,-0.6 73.9,-0.6 81,-0.1 2.9,0.3 4.9,0.8 4.5,1.1 -2.9,2.6 -9.6,3 -47.9,3 -38.1,0 -40.4,-0.1 -40.4,-1.8 z"
       id="path200" />
    <path
       d="m 1420.3,227.9 c -1.8,-0.5 -3.3,-1.3 -3.3,-1.7 0,-1.3 6.6,-1.5 57.2,-1.6 l 47.8,-0.1 v 2.3 2.2 l -49.2,-0.1 c -27.4,0 -50.7,-0.5 -52.5,-1 z"
       id="path202" />
    <path
       d="m 100,188 c 0,-11.3 9.7,-21 21,-21 11.3,0 21,9.7 21,21 v 4 h -21 -21 z"
       id="path204" />
    <path
       d="M 196,183.5 V 175 l 16.3,0.2 16.2,0.3 v 8 8 l -16.2,0.3 -16.3,0.2 z"
       id="path206" />
    <path
       d="m 268.4,190.7 c -0.3,-0.8 -0.4,-4.5 -0.2,-8.3 l 0.3,-6.9 16.3,-0.3 16.2,-0.2 v 8.5 8.5 h -16 c -12.6,0 -16.2,-0.3 -16.6,-1.3 z"
       id="path208" />
    <path
       d="M 341,183.5 V 175 l 16.3,0.2 16.2,0.3 v 8 8 l -16.2,0.3 -16.3,0.2 z"
       id="path210" />
    <path
       d="m 392.8,190.3 c -0.2,-1 -0.2,-4.8 0,-8.5 l 0.4,-6.8 h 15.9 c 15.9,0 16,0 16.9,2.4 2.1,5.6 2.3,5.6 41.7,5.6 H 504 v 4.5 4.5 h -55.4 c -51.9,0 -55.4,-0.1 -55.8,-1.7 z"
       id="path212" />
    <path
       d="m 526.4,190.7 c -0.3,-0.8 -0.4,-4.5 -0.2,-8.3 l 0.3,-6.9 16.3,-0.3 16.2,-0.2 v 8.5 8.5 h -16 c -12.6,0 -16.2,-0.3 -16.6,-1.3 z"
       id="path214" />
    <path
       d="M 585,187.5 V 183 h 31.2 c 29.2,0 31.4,0.1 35.3,2 2.3,1.1 5.2,3.1 6.5,4.5 l 2.3,2.5 H 622.7 585 Z"
       id="path216" />
    <path
       d="m 681.4,190.7 c -0.3,-0.8 -0.4,-4.5 -0.2,-8.3 l 0.3,-6.9 16.3,-0.3 16.2,-0.2 v 8.5 8.5 h -16 c -12.6,0 -16.2,-0.3 -16.6,-1.3 z"
       id="path218" />
    <path
       d="M 780,183.5 V 175 h 16 16 v 8.5 8.5 h -16 -16 z"
       id="path220" />
    <path
       d="m 889.4,190.7 c -0.3,-0.8 -0.4,-4.5 -0.2,-8.3 l 0.3,-6.9 16.3,-0.3 16.2,-0.2 v 8.5 8.5 h -16 c -12.6,0 -16.2,-0.3 -16.6,-1.3 z"
       id="path222" />
    <path
       d="m 993.5,189.7 c -0.4,-1.3 -0.5,-5 -0.3,-8.2 l 0.3,-6 16.3,-0.3 16.2,-0.2 v 8.5 8.5 h -16 c -15.8,0 -16,0 -16.5,-2.3 z"
       id="path224" />
    <path
       d="M 1048,183.5 V 175 h 16.5 16.5 v 8.5 8.5 h -16.5 -16.5 z"
       id="path226" />
    <path
       d="m 1146.8,190 c 1.8,-1.7 2.2,-3.2 2.2,-8.5 V 175 h 16.5 16.5 v 6.3 c 0,11.5 1.5,10.7 -19.3,10.7 h -18.1 z"
       id="path228" />
    <path
       d="m 1201.4,190.7 c -0.3,-0.8 -0.4,-4.5 -0.2,-8.3 l 0.3,-6.9 16.3,-0.3 16.2,-0.2 v 8.5 8.5 h -16 c -12.6,0 -16.2,-0.3 -16.6,-1.3 z"
       id="path230" />
    <path
       d="m 1269,184.5 c -2.7,-4.1 -5,-7.9 -5,-8.5 0,-0.7 5.7,-1 17.7,-0.8 l 17.8,0.3 5.2,7.5 c 2.9,4.1 5.2,7.8 5.3,8.3 0,0.4 -8.1,0.7 -18,0.7 h -17.9 z"
       id="path232" />
    <path
       d="m 1329,191.3 c 0,-0.4 2.3,-4.2 5.1,-8.5 l 5.2,-7.8 h 17.9 c 9.9,0 17.8,0.4 17.6,0.9 -0.1,0.4 -2.5,4.2 -5.3,8.4 l -5,7.7 h -17.7 c -9.8,0 -17.8,-0.3 -17.8,-0.7 z"
       id="path234" />
    <path
       d="m 1405.5,189.7 c -0.4,-1.3 -0.5,-5 -0.3,-8.2 l 0.3,-6 16.3,-0.3 16.3,-0.2 1,2.8 c 0.5,1.6 2.1,3.4 3.5,4.1 1.7,0.7 13.7,1.1 38.4,1.1 h 36 v 4.5 4.5 h -55.5 -55.5 z"
       id="path236" />
    <path
       d="m 1567.5,190.9 c -1.1,-1.8 0.4,-9.1 2.8,-13.4 1.2,-2.1 4.2,-5.3 6.5,-7 3.9,-2.7 5.2,-3 11.7,-3 6.5,0 7.8,0.3 11.7,3 5.4,3.9 8.9,10.1 9.1,16.3 l 0.2,4.7 -20.7,0.3 c -14.1,0.2 -20.9,-0.1 -21.3,-0.9 z"
       id="path238" />
    <path
       d="M 47.6,184.3 C 49,178.1 53,171.1 57.9,166.2 77,147.1 116.1,132.7 167.5,126 c 29.1,-3.8 40.6,-4.2 141.5,-5 55.3,-0.4 107.9,-1.3 117,-1.9 84,-5.7 136.1,-15.7 189.4,-36.1 9.9,-3.9 18.5,-7 19,-7 0.5,0 5.4,3.1 11,6.9 21.4,14.5 32.5,19.8 55.1,26.5 39.9,11.6 85,16.6 149.8,16.6 63.4,0 98.2,-2.6 134.9,-10 35.6,-7.2 55.2,-14.9 80.3,-31.4 9.3,-6.2 13.5,-8.4 15,-8 1.1,0.3 9.6,3.5 18.8,7 41.1,15.7 84.5,25.5 138.7,31.3 44.9,4.8 79,6.1 167,6.1 40.4,0 82.1,0.5 92.5,1 67.8,3.5 116.3,14.9 145.4,34.1 12.3,8.1 20.5,18.2 22.6,27.7 l 0.7,3.2 h -19.1 c -17.7,0 -19.1,-0.1 -19.1,-1.8 0,-5.9 -12,-17.9 -24,-24.1 -15.1,-7.8 -42.5,-16 -63.9,-19 -33.5,-4.8 -0.7,-4.6 -686.1,-4.6 -611.1,0 -646.4,0.1 -661.5,1.8 -31.8,3.5 -54.2,8.5 -75.1,16.7 -16.9,6.7 -30.4,17.2 -33.9,26.4 L 81.7,187 H 64.3 47 Z"
       id="path240" />
    <path
       d="m 196,160 v -9 h 81.9 c 55.6,0 82.9,0.3 84.8,1.1 1.5,0.6 3.9,2 5.2,3.2 2.6,2.4 6,9.2 6.1,12 0,1.6 -4.9,1.7 -89,1.7 h -89 z"
       id="path242" />
    <path
       d="m 393,160 v -9 h 58.5 58.5 v 9 9 H 451.5 393 Z"
       id="path244" />
    <path
       d="m 527.1,164.8 c 1.3,-5.7 4.4,-9.7 9.3,-11.9 3.9,-1.7 7.8,-1.9 66.4,-1.9 H 665 v 9 9 h -69.4 -69.4 z"
       id="path246" />
    <path
       d="m 681.6,166.3 c 1.2,-5.3 3.7,-9.4 7.2,-12.1 l 3.5,-2.7 52.6,-0.3 c 60.4,-0.3 59.1,-0.5 64.2,7.6 1.6,2.5 2.9,5.9 2.9,7.4 V 169 H 746.5 681 Z"
       id="path248" />
    <path
       d="m 889.4,165.3 c 0.1,-2.1 0.3,-6.2 0.4,-9 L 890,151 h 61.3 c 57.8,0 61.4,0.1 65.4,1.9 4.6,2.1 9.3,8.9 9.3,13.4 v 2.7 h -68.4 -68.3 z"
       id="path250" />
    <path
       d="m 1048,167.3 c 0.1,-2.8 3.5,-9.6 6.1,-12 1.3,-1.2 3.7,-2.6 5.2,-3.2 1.9,-0.7 20.7,-1.1 55.7,-1.1 35,0 53.8,0.4 55.7,1.1 5.4,2 9.3,7 10.8,13.7 l 0.7,3.2 h -67.1 c -63.2,0 -67.1,-0.1 -67.1,-1.7 z"
       id="path252" />
    <path
       d="m 1201,160 v -9 h 16.5 16.5 v 9 9 h -16.5 -16.5 z"
       id="path254" />
    <path
       d="m 1253,160 c -3.3,-4.9 -6,-9.4 -6,-10 0,-0.6 6.1,-1 17.5,-1 h 17.4 l 5.9,8.8 c 3.2,4.8 6.2,9.3 6.6,10 0.6,0.9 -3.2,1.2 -17.3,1.2 h -18 z"
       id="path256" />
    <path
       d="m 1344,168.3 c 0.1,-0.5 2.9,-4.8 6.3,-9.8 l 6.2,-9 17.8,-0.3 c 9.7,-0.1 17.7,0.1 17.7,0.5 0,0.4 -2.8,4.9 -6.1,10 l -6.2,9.3 h -17.8 c -9.9,0 -17.9,-0.3 -17.9,-0.7 z"
       id="path258" />
    <path
       d="m 1405.5,167.3 c 0.2,-1 0.4,-5.1 0.4,-9 l 0.1,-7.3 h 58.5 58.5 v 9 9 h -58.9 c -55.6,0 -58.9,-0.1 -58.6,-1.7 z"
       id="path260" />
    <path
       d="M 748.6,96.3 C 737.3,94.4 717.2,88.2 708.4,84 c -5.2,-2.5 -9.5,-5.4 -12.2,-8.4 -3.6,-4 -4.2,-5.2 -4.2,-9.1 0,-4 0.5,-5 4.4,-9 C 709,45 744.1,35.2 797.5,29.4 c 20.2,-2.1 85.4,-3 109.2,-1.5 32.7,2.2 58.5,5.9 80.9,11.6 55.2,14.1 60.7,35.2 13.1,50.4 -23.7,7.6 -15.3,7.1 -136.4,7.4 -80.8,0.1 -110.4,-0.1 -115.7,-1 z M 861,88.5 V 84 h -12.4 c -10,0 -12.8,-0.3 -14,-1.6 -2.4,-2.4 -2.8,-31.2 -0.5,-34 0.9,-1.1 4.3,-1.4 14,-1.4 H 861 v -4 -4 h -12 c -13.9,0 -17.9,1.2 -21,6.2 -1.9,3.1 -2,4.6 -1.8,21.5 l 0.3,18.3 3.3,3.2 c 3.2,3.3 3.3,3.3 15.5,3.9 6.7,0.3 13,0.6 14,0.7 1.4,0.2 1.7,-0.6 1.7,-4.3 z m 43.8,3.1 c 0.1,-0.2 3.3,-10.3 7.1,-22.5 3.7,-12.3 7.4,-22.7 8.2,-23.1 3,-1.9 4.8,1.2 10.3,18.4 3.1,9.6 5.6,17.6 5.6,17.9 0,0.3 -3.8,0.8 -8.5,1.2 l -8.5,0.7 v 3.5 3.5 l 8.8,-0.6 c 13.2,-1 17.2,-1.7 17.2,-3 0,-0.6 -3.2,-10.6 -7,-22.2 -7.7,-23 -9,-25.2 -15.8,-26.1 -3.3,-0.4 -4.4,-0.1 -7,2.3 -2.6,2.5 -4,5.9 -9.2,22.8 -3.3,11 -6.3,20.2 -6.5,20.5 -0.3,0.2 -0.5,-5.7 -0.5,-13.2 V 58 h -9.6 -9.5 l 0.3,3.3 c 0.3,3.2 0.4,3.2 6.1,3.5 l 5.7,0.3 v 9.3 9.3 l -3.7,0.7 c -6.6,1 -12.8,0.7 -15.1,-1 -2.1,-1.5 -2.2,-2.1 -2.2,-17.8 0,-11.3 0.4,-16.6 1.2,-17.4 0.8,-0.8 5.4,-1.2 14.1,-1.2 h 12.8 l -0.3,-3.8 -0.3,-3.7 H 884.8 871 l -3.2,3.3 -3.3,3.2 -0.3,18.4 c -0.4,20.6 0.2,23 6.1,26.7 3,1.9 4.2,2 18.7,1.4 8.5,-0.4 15.6,-0.8 15.8,-0.9 z m 7.7,-0.5 c 1.3,-0.5 2.7,-3 4.2,-7.7 1.8,-5.6 2.2,-6.3 2.2,-3.7 l 0.1,3.3 7.8,-0.7 c 4.2,-0.3 7.7,-0.6 7.8,-0.7 0.5,-0.5 -11.4,-34 -12.2,-34.3 -0.6,-0.2 -1.6,0.2 -2.1,0.9 -0.8,1 -8.6,24.6 -13.9,42.1 -0.4,1.3 0,1.7 1.8,1.6 1.3,0 3.2,-0.4 4.3,-0.8 z m -96.6,-2.8 c 4.3,-3.2 7.3,-10 6.7,-15.3 -1.2,-9.1 -7.9,-15 -17,-15 -9,0 -4.4,-1.8 6.4,-2.5 l 11,-0.8 V 51.9 49 h -12 c -11.5,0 -12.2,0.1 -14.5,2.5 -1.6,1.5 -2.5,3.6 -2.5,5.5 0,1.9 0.9,4 2.5,5.5 2,2.1 3.4,2.5 8.3,2.5 5,0 6.2,0.4 8.3,2.6 3.5,3.8 3.3,9.8 -0.6,13.1 -2.9,2.5 -3,2.5 -15.2,1.8 L 785,81.8 v 3.1 c 0,1.6 0.5,3.3 1,3.6 1.6,1 17.7,2.4 22.9,2 2.4,-0.1 5.5,-1.1 7,-2.2 z m 44.9,-9 -0.3,-3.8 -10,-0.6 -10,-0.5 7.8,-0.2 L 856,74 V 70.5 67 h -11 -11 v 5.8 c 0,9.6 0.9,10.2 15.1,10.2 h 12 z M 891,74.5 V 66 h -5.5 -5.5 v 3.9 c 0,3.3 0.4,4 2.3,4.4 1.9,0.4 1.8,0.4 -0.5,0.6 L 879,75 V 65.5 56 h 10 10 v -3.4 -3.3 l -6.7,-0.6 c -11.5,-1.1 -14.8,-0.9 -17.7,1.4 -2.6,2 -2.6,2.1 -2.6,15.6 0,17.2 0.1,17.3 11.2,17.3 h 7.8 z m -79.6,5.4 c 3.4,-2.7 3.6,-8.2 0.4,-11.6 -1.8,-1.9 -3.2,-2.3 -8,-2.3 -4.9,0 -6.3,-0.4 -8.3,-2.4 -3.3,-3.4 -4,-6.7 -2,-10.6 2.4,-4.7 6.6,-6 19,-6 H 823 V 43.5 40 h -8.9 c -10.6,0 -18.3,1.3 -21.6,3.7 -6.4,4.8 -8.4,15.1 -4.2,21.4 2.7,4.2 9.8,7.9 14.9,7.9 2.1,0 3.8,0.5 3.8,1.1 0,0.8 -3.3,1 -10.7,0.8 l -10.8,-0.4 v 3 c 0,3 0,3 7,3.6 14.1,1.1 16.1,1 18.9,-1.2 z M 856,61.5 V 58 h -7.5 c -4.3,0 -7.5,-0.4 -7.5,-1 0,-0.6 4,-1 10,-1 h 10 v -4.1 -4.1 l -11.6,0.4 c -10.7,0.3 -11.7,0.5 -13.5,2.7 -1.4,1.7 -1.9,3.9 -1.9,8.2 V 65 h 11 11 z"
       id="path262" />
  </g>
</svg>
