<?xml version="1.0" encoding="UTF-8" standalone="no"?>
<svg
   version="1.0"
   width="1782.4376"
   height="682.40137"
   viewBox="0 0 1782.4376 682.40137"
   preserveAspectRatio="xMidYMid meet"
   id="svg36"
   sodipodi:docname="test.svg"
   inkscape:version="1.1.2 (0a00cf5339, 2022-02-04, custom)"
   xmlns:inkscape="http://www.inkscape.org/namespaces/inkscape"
   xmlns:sodipodi="http://sodipodi.sourceforge.net/DTD/sodipodi-0.dtd"
   xmlns="http://www.w3.org/2000/svg"
   xmlns:svg="http://www.w3.org/2000/svg">
  <defs
     id="defs40" />
  <sodipodi:namedview
     id="namedview38"
     pagecolor="#ffffff"
     bordercolor="#666666"
     borderopacity="1.0"
     inkscape:pageshadow="2"
     inkscape:pageopacity="0.0"
     inkscape:pagecheckerboard="0"
     showgrid="false"
     inkscape:zoom="0.58736264"
     inkscape:cx="903.1899"
     inkscape:cy="352.42283"
     inkscape:window-width="1920"
     inkscape:window-height="1017"
     inkscape:window-x="-8"
     inkscape:window-y="-8"
     inkscape:window-maximized="1"
     inkscape:current-layer="svg36" />
  <g
     fill="#eacc00"
     id="g8"
     transform="translate(-6.5,-6)">
    <path
       d="m 644,293.1 c 0,-1 -5.9,-1.1 -119,-1.6 l -107.5,-0.4 -0.3,-3.9 c -0.7,-8.8 17.1,-45.2 32.8,-67.2 2.6,-3.6 5,-7 5.3,-7.6 0.8,-1.3 4.4,-1.2 -78.8,-2 -52.5,-0.4 -70.2,-0.3 -74.1,0.7 -5.9,1.3 -10.3,0.6 -11,-1.9 -1.1,-3.5 -5.8,-11.8 -9.2,-16 -10.4,-13 -29.5,-20.1 -48.5,-18.1 -13.1,1.4 -21.6,3.1 -22.9,4.6 -0.6,0.8 -1.3,6.6 -1.5,13.6 -0.2,6.7 -0.6,13.2 -0.9,14.5 L 208,210 H 112.6 C 60.2,210 15.8,209.7 14,209.3 l -3.3,-0.6 0.7,-60.6 C 12.3,76.6 13.3,41.3 14.6,40 c 0.9,-0.9 27.7,-8.2 42.9,-11.6 3.9,-0.9 8.8,-2 11,-2.5 10,-2.3 47.8,-9 55.5,-9.8 4.7,-0.6 14.6,-1.7 22,-2.5 37.6,-4.3 98.6,-4.6 126.5,-0.7 23.4,3.3 39.6,6.9 59.3,13.3 12.9,4.1 38,14.8 46.2,19.7 5.1,3 5.8,3.4 13.3,7.9 17.4,10.3 38.6,30 50.7,47.2 17.1,24.1 29.5,55.9 31.6,81.2 l 0.7,7.7 10.1,-9.4 c 11.8,-10.9 18.1,-16 29.1,-23.6 28.2,-19.5 59.6,-32.6 93.5,-39 21.2,-3.9 67.4,-3.7 95.7,0.5 46.2,6.9 89.2,25.5 122.1,52.9 13.5,11.2 29.3,27.9 32.6,34.4 2,4.1 2.1,15.7 0.1,54.8 -0.8,16 -1.5,29.5 -1.5,30 0,0.7 -29,1 -84.7,1.1 -99.4,0.2 -109.3,0.3 -109.3,1.4 0,0.5 -4,0.8 -9,0.8 -4.9,0 -9,-0.3 -9,-0.7 z"
       id="path2" />
    <path
       d="M 1410.3,291.3 1305,291 v -3 c 0,-4.4 3.3,-12.4 12.9,-31.4 31.3,-61.6 76.7,-106.4 137.1,-135.4 42,-20.1 91,-29.5 144,-27.7 44,1.5 72.8,5.8 100.6,15 19.4,6.5 32.6,12.6 34.2,15.7 1.2,2.7 0.9,8.9 -3.8,66.8 -1.2,14.7 -4.6,62.2 -5.5,76.5 -0.4,5.5 -0.9,10.8 -1.1,11.8 -0.8,2.5 -4.4,2.2 -16.4,-1.7 -18.5,-6 -36.7,-9 -63.5,-10.4 -16.5,-0.9 -18.6,-0.9 -36.6,0.8 -23.4,2.2 -48.4,10 -64.9,20.1 -6,3.7 -3.6,3.6 -131.7,3.2 z"
       id="path4" />
    <path
       d="m 1132.6,204.8 c -0.2,-0.7 -1.2,-4.7 -2.1,-8.8 -4.4,-18.1 -11.2,-31.8 -17.9,-35.9 l -3.6,-2.3 -7.2,2.2 c -6.5,2 -8,2.9 -14.9,9.8 -7.8,7.8 -13.9,17.9 -17.8,29.6 l -1.7,4.8 H 964.9 l -102.4,-0.1 v -5.8 c 0,-8.9 2.5,-71.8 3.5,-89.8 0.6,-8.8 1,-23.6 1.1,-33 0.1,-9.3 0.6,-25.1 1.3,-35 l 1.1,-18 11.5,-0.7 c 6.3,-0.3 22.3,-1.1 35.5,-1.7 13.2,-0.6 31.7,-1.6 41,-2.1 9.4,-0.6 26.2,-1.5 37.5,-2 11.3,-0.5 30.6,-1.4 42.9,-2 13.3,-0.7 22.8,-0.7 23.3,-0.2 0.6,0.6 0.6,12.1 0.1,28.1 l -0.8,27.2 8,-8.2 c 11,-11.3 29.5,-26.9 32,-26.9 0.2,0 3.3,-1.7 6.7,-3.8 10.8,-6.5 26.5,-12.5 40.8,-15.6 18,-3.9 48.9,-2.9 69.3,2.4 16.8,4.3 36.9,14.3 49.9,25 16.3,13.4 30.3,31.1 40.1,50.6 13.9,27.6 29,77.9 31.3,104.2 l 0.7,7.2 h -4.9 c -2.7,0.1 -46.7,0.2 -97.9,0.4 -51.1,0.2 -95.4,0.7 -98.2,1.1 -4.1,0.5 -5.4,0.4 -5.7,-0.7 z"
       id="path6" />
  </g>
  <g
     fill="#dc8311"
     id="g18"
     transform="translate(-6.5,-6)">
    <path
       d="m 1287.2,482.3 c -7.7,-31.5 -8.4,-83.9 -1.7,-127.3 0.8,-5.2 1.3,-9.6 1.1,-9.8 -0.6,-0.5 -1.4,3.8 -4.1,22.8 -1.4,10.2 -2.9,20.3 -3.3,22.5 l -0.7,4 -69.5,0.3 c -38.2,0.1 -70.5,0 -71.7,-0.3 -2.7,-0.6 -2.9,-3.2 -1.3,-24.5 4.5,-62.3 4.2,-114.6 -0.9,-146.5 -1.5,-9.2 -2.4,-23.5 -1.6,-23.5 0.4,0 1.3,0.7 1.9,1.5 0.9,1.2 2.1,1.3 7.1,0.5 3.7,-0.6 41.4,-1 97.5,-1.1 50.3,0 92.5,-0.1 93.8,-0.2 1.4,-0.1 2.2,-0.8 2.2,-2 0,-2.6 2.3,-1.6 3.1,1.4 0.4,1.3 0.7,6.1 0.8,10.7 l 0.1,8.3 -7.3,11.7 c -8.9,14.1 -17,29.2 -23.1,43 -2.5,5.6 -4.6,10.4 -4.6,10.6 0,0.2 1,0.2 2.2,-0.2 1.8,-0.4 2,-0.2 1.6,1.6 l -0.6,2.1 104.7,0.2 c 115.9,0.3 110.6,0.3 117.9,-0.2 4.7,-0.4 5.2,-0.2 5.1,1.6 0,1.2 -2.5,3.9 -6.5,7 -24.4,18.7 -39.5,42.9 -46.1,73.5 -1.4,6.6 -1.8,12.5 -1.7,26.5 0.1,15.9 0.4,19.3 2.8,29 5.3,21.8 11.9,35 24.5,48.7 3.7,4.1 5.1,6.4 5.1,8.6 0,2.6 -0.4,3 -3.7,3.6 -2.1,0.3 -52.9,0.6 -112.9,0.6 h -109 z"
       id="path10" />
    <path
       d="m 1622.6,475.8 c 0.4,-6.2 0.8,-12.6 0.8,-14.3 l 0.1,-3 -22,-0.6 c -12.1,-0.4 -33.4,-0.8 -47.2,-0.9 l -25.3,-0.1 v -6.7 c 0,-3.7 0.7,-20.6 1.5,-37.7 0.8,-17 1.7,-41.9 2.1,-55.3 0.5,-15.6 1.1,-24.5 1.8,-25.1 0.6,-0.4 13.9,-1.1 29.6,-1.5 15.7,-0.3 42.2,-1.1 59,-1.6 16.8,-0.6 46.5,-1.4 66,-2 19.5,-0.5 46.7,-1.4 60.3,-1.9 13.7,-0.6 25.4,-0.8 26.1,-0.5 1,0.4 1.4,10.5 1.9,45.7 0.4,24.9 1,61.3 1.4,81 l 0.6,35.7 h -78.7 -78.7 z"
       id="path12" />
    <path
       d="m 412.6,462.8 c -0.2,-0.7 -1.4,-4.4 -2.5,-8.3 -6.1,-20.1 -10.1,-49.6 -10.1,-74 0,-10.7 1.7,-32.2 3.6,-46 0.4,-2.7 0.4,-4.8 0.2,-4.5 -0.6,0.6 -3.4,18 -4.4,27.8 -0.6,5.6 -1,6.6 -4.3,9.3 -5,4.1 -39.5,21.2 -51.6,25.5 -10.4,3.7 -20.7,6.8 -36.2,10.9 l -9.1,2.5 H 154.7 C 40.8,406 11.1,405.7 10.9,404.8 10.7,404.1 10.7,358.5 11,303.6 c 0.4,-78.7 0.8,-100 1.8,-100.4 0.6,-0.2 1.2,0.3 1.2,1.1 0,0.8 1.3,1.7 3.1,2.1 1.7,0.3 44.7,0.6 95.5,0.6 H 205 l 0.6,-2.5 c 0.3,-1.4 1.3,-2.5 2.1,-2.5 1.3,0 1.4,1.4 0.9,8.7 -0.3,4.9 -1.1,22.1 -1.6,38.3 -0.6,16.2 -1.2,31.3 -1.5,33.5 -0.8,6.8 -0.5,6.9 15.7,6.2 15.7,-0.7 23.2,-2.4 33.8,-7.6 17.8,-8.8 29.8,-22 35.5,-38.9 2.9,-8.6 3.9,-18.3 2.5,-24.7 -2.3,-10.5 -2.4,-13.5 -0.6,-13.5 0.9,0 1.6,0.7 1.6,1.5 0,2.2 3,3.4 6.1,2.3 2,-0.7 128,-0.6 150.8,0.1 1.4,0.1 3.5,-0.9 4.8,-2.1 l 2.3,-2.1 v 3.1 c 0,2.3 -2,6 -7.7,13.9 -13.7,19.3 -24.3,38.6 -32.2,59 -2,5.2 -2,5.3 -0.2,5.3 1.1,0 2.1,0.7 2.3,1.5 0.3,1.3 13.6,1.5 107.3,1.8 58.9,0.2 108,0.6 109.2,1 1.3,0.3 2.5,0.2 2.7,-0.2 0.6,-0.8 7.6,-0.2 7.6,0.8 0,0.3 2.7,0.6 6,0.6 3.3,0 6,-0.3 6,-0.8 0,-0.9 6.2,-1 109.3,-1.1 67,-0.1 84.7,-0.4 84.7,-1.3 0,-0.7 0.7,-1.3 1.6,-1.3 1.8,0 1.8,0.4 -1.1,53.5 -0.8,14.3 -1.9,35.7 -2.5,47.5 -0.6,11.8 -1.7,32.1 -2.5,45 -0.9,12.9 -1.6,25.3 -1.8,27.5 l -0.2,4 -66.5,0.3 c -36.6,0.2 -72.5,0 -79.7,-0.3 L 687,462.8 v -3.2 c 0,-2.8 0.7,-3.8 5.4,-7 8.7,-6 19.7,-19.6 25,-30.9 11.4,-24.8 11.9,-52.6 1.2,-79 -7.8,-19.4 -24.2,-36.4 -41.7,-43.2 -14.2,-5.6 -25.3,-6.5 -37.1,-3.2 -37.9,10.8 -60.9,41.5 -61,81.2 0,30.3 12.9,59.7 33.4,75.6 4.8,3.7 5.7,4.9 5.8,7.6 V 464 H 515.5 c -81.6,0 -102.6,-0.2 -102.9,-1.2 z"
       id="path14" />
    <path
       d="m 853.3,393.4 c -0.6,-1.5 0.8,-36.8 2.7,-69.4 0.5,-8.5 1.4,-26.1 2,-39 0.5,-12.9 1.5,-31.1 2,-40.5 0.5,-9.3 1.3,-24.3 1.6,-33.2 0.6,-14.2 0.9,-16.3 2.4,-16.3 1.1,0 1.6,0.9 1.6,3 l -0.1,3 99.5,0.1 c 71.8,0.1 99.5,-0.2 99.8,-1 0.2,-0.6 0.8,-1.1 1.3,-1.1 1.6,0 1,5.4 -2.1,18.8 -5.4,23.8 -6.4,40.5 -9.7,157 l -0.5,20.2 h -99.9 c -90.7,0 -100,-0.1 -100.6,-1.6 z"
       id="path16" />
  </g>
  <g
     fill="#c00003"
     id="g26"
     transform="translate(-6.5,-6)">
    <path
       d="m 1521,680.4 c -13.7,-0.8 -38.2,-4.8 -52,-8.5 -39.4,-10.6 -77.1,-30.7 -103.3,-55 -2.3,-2.1 -4.5,-3.9 -4.8,-3.9 -0.4,0 -5.6,-5.4 -11.7,-12 -10.7,-11.6 -23.2,-27.5 -26.5,-33.5 l -1.6,-3 -0.1,3.8 v 3.8 l -30.2,-0.4 c -56.1,-0.6 -178.3,-2.9 -179.7,-3.3 -1.7,-0.6 -1.4,-3.3 4.4,-38.9 2.4,-14.8 5.3,-33.5 6.4,-41.5 1.2,-8 2.6,-17.6 3.1,-21.5 2.6,-17.7 6.9,-52.2 8,-63.5 0.7,-6.9 1.4,-13.1 1.6,-13.8 0.5,-1.7 3.4,-1.5 3.4,0.2 0,0.8 0.7,1.7 1.6,2 0.9,0.3 31.7,0.6 68.6,0.6 66.1,0 67,0 67.5,-2 0.3,-1.1 1.2,-2 1.9,-2 1.2,0 1.4,3.9 1.4,21.8 0,29.1 2.1,50.3 6.8,69.7 1.2,4.9 1.8,6.2 2,4.3 0.4,-3.1 3.2,-4.8 3.2,-1.8 0,1.9 1.7,1.9 106,2 58.3,0 107.8,-0.3 110,-0.6 3.3,-0.5 3.8,-0.9 2.9,-2 -0.9,-1.1 -0.6,-1.4 1.8,-1.4 1.9,0 4.9,1.5 8.4,4.1 6.8,5.1 19.5,11.3 27.9,13.6 8.6,2.4 29.4,2.4 40.2,0 15.2,-3.3 29.2,-9.6 32.9,-14.8 2.4,-3.4 3.9,-3.7 3.9,-1 0,1.9 1.5,2 75.5,2.1 67.1,0 75.5,-0.1 75.5,-1.5 0,-0.8 0.6,-1.5 1.4,-1.5 2.2,0 2.5,4.2 3.1,58.2 l 0.7,49.6 -3.9,4.4 c -38.9,44.3 -102.3,73.4 -185.8,85.4 -11.6,1.6 -53.8,2.7 -70.5,1.8 z"
       id="path20" />
    <path
       d="m 640,638.4 c -20.3,-1.6 -35.8,-3.9 -48.5,-7 -10.9,-2.7 -33.4,-10.1 -35,-11.5 -0.5,-0.5 -1.5,-0.9 -2.2,-0.9 -1.8,0 -23,-10.6 -32.6,-16.3 -31.2,-18.6 -58.3,-44.7 -78.9,-76.1 -13.2,-20 -29.8,-56.3 -29.8,-65 0,-3.7 1.3,-4.8 2.4,-2.1 0.5,1.3 11.9,1.5 94.4,1.5 51.7,0 96,-0.3 98.6,-0.6 4,-0.6 4.4,-0.9 3.4,-2.2 -1.1,-1.3 -0.8,-1.5 3,-0.9 2.4,0.3 5.1,1.2 6.1,2.1 2.4,2.2 15.1,6.4 23,7.7 10.6,1.7 25.1,-1.1 37.3,-7.2 6.1,-3.1 14,-4.2 10.3,-1.6 -1.5,1.2 -0.5,1.5 8.1,2 5.4,0.4 40,0.7 76.7,0.7 66,0 66.9,0 67.4,-2 0.3,-1.1 1.2,-2 1.9,-2 1.7,0 1.7,0.9 -0.1,28 -1.4,21.1 -1.9,36.7 -1.1,35.9 0.5,-0.5 2.2,-25.8 3.6,-52.9 2.1,-41.4 4.1,-75.6 4.6,-77.7 0.6,-2.8 3,-3 3.7,-0.3 0.5,2 1.4,2 97.6,2 85.6,0 97.1,-0.2 97.1,-1.5 0,-0.8 0.7,-1.5 1.6,-1.5 1.5,0 1.6,2.9 1,31.8 -0.4,17.4 -1.1,44.3 -1.6,59.7 -0.6,15.4 -1,39 -1.1,52.5 -0.1,13.5 -0.4,28.6 -0.8,33.5 l -0.6,9 -10.5,0.6 c -5.8,0.4 -22.9,1.2 -38,1.8 -53.2,2.2 -97.7,4.2 -116,5.2 -10.2,0.6 -23.8,1.3 -30.2,1.6 l -11.7,0.6 -0.7,-2.8 c -0.4,-1.5 -0.4,-5.7 0,-9.4 0.3,-3.6 0.8,-16.5 1,-28.6 0.4,-20.5 0.4,-21.1 -0.5,-8 -1.4,21.6 -0.4,19.4 -14.2,33 -26.2,25.9 -57.4,44.8 -92.7,56.3 -19.1,6.3 -28.4,8.3 -48,10.7 -11.8,1.5 -40,2.6 -48,1.9 z"
       id="path22" />
    <path
       d="m 9.9,601.3 c 0,-0.5 0,-45.6 0.1,-100.3 0.1,-65.9 0.4,-99.8 1.1,-100.5 0.7,-0.7 1.5,-0.4 2.3,0.8 1.2,1.6 9.2,1.7 141.5,1.7 137.7,0 140.1,0 140.1,1.9 0,2.3 -2.3,2.9 -28,6.6 -21.2,3.1 -45.7,5.5 -55.7,5.5 -12.8,0 -11.4,-11.6 -11.2,92.5 0,49.7 -0.2,90.8 -0.5,91.4 -0.8,1.3 -189.6,1.6 -189.7,0.4 z"
       id="path24" />
  </g>
  <g
     fill="#000000"
     id="g34"
     transform="translate(-6.5,-6)">
    <path
       d="m 1530,687.9 c -3,-0.4 -11.6,-1.5 -19,-2.4 -7.4,-0.9 -15.3,-2.1 -17.5,-2.7 -2.2,-0.5 -5.8,-1.4 -8,-1.9 -2.2,-0.6 -6,-1.6 -8.5,-2.4 -2.5,-0.7 -6.4,-1.6 -8.7,-2 -2.4,-0.4 -4.5,-1.1 -4.9,-1.6 -0.3,-0.5 -1.5,-0.9 -2.8,-0.9 -6.5,0 -40.8,-15.9 -61.1,-28.3 -24.2,-14.8 -36.6,-25.4 -61.8,-52.8 -12.7,-13.9 -9.7,-13 -43.2,-13.4 -154.7,-2 -154,-2 -161.2,-5.1 -5.2,-2.3 -6.8,-2.5 -16.5,-2.3 -5.9,0.2 -11,0.1 -11.3,-0.3 -0.6,-0.6 2.4,-21.9 6,-42.3 0.8,-4.4 2.6,-15.6 4,-25 1.4,-9.3 2.9,-19.9 3.5,-23.5 0.5,-3.6 1.2,-8.5 1.5,-11 0.3,-2.5 1.8,-13.9 3.4,-25.5 1.7,-11.5 3.3,-24.1 3.6,-28 0.3,-3.8 1.2,-12.4 2,-19 4.7,-41.5 6.8,-107 4.5,-143 -2,-30.9 -6.3,-61.3 -10,-70 -3.4,-8.2 -5.5,-11.7 -8.5,-13.9 l -3.4,-2.6 -2.3,2.1 c -1.3,1.1 -4.5,3.5 -7.3,5.3 -8.3,5.5 -16.5,16.4 -22.9,30.6 -0.6,1.4 -1.4,2.7 -1.8,3 -0.8,0.6 -3.6,10.3 -4.8,16.5 -0.4,2.2 -1.2,5.1 -1.8,6.5 -0.5,1.4 -1.5,8.2 -2.2,15 -0.6,6.9 -1.5,14.5 -2,17 -0.6,2.5 -1.2,10.8 -1.5,18.5 -0.3,7.7 -0.7,19.6 -1,26.5 -0.2,6.9 -0.7,34.1 -1,60.5 -0.3,26.4 -1,56.1 -1.4,66 -0.5,9.9 -0.9,26.9 -1,37.8 0,11 -0.4,20.3 -0.7,20.8 -0.3,0.5 -0.7,15.2 -1,32.7 -0.5,39.6 -1.2,54 -2.7,54.9 -3.6,2.3 -9.4,3.3 -20.2,3.3 -6.6,0 -14.9,0.2 -18.5,0.5 -16.3,1.2 -24.6,1.6 -58,3 -6.3,0.3 -16.7,0.7 -23,1.1 -6.3,0.3 -22.5,0.7 -36,0.9 -13.5,0.3 -25.5,0.7 -26.8,0.9 -1.2,0.3 -4.7,-0.4 -7.8,-1.4 -3.6,-1.3 -9.3,-2.1 -16,-2.4 -7.3,-0.2 -11,-0.8 -12.2,-1.8 -3.3,-2.9 -4.9,-2.8 -7.8,0.6 -4.2,4.7 -15.4,13.9 -18.8,15.4 -3.2,1.4 -6.9,4.1 -12.4,9 -2,1.7 -4.4,3.2 -5.3,3.2 -1,0 -2.5,0.7 -3.3,1.6 -0.9,0.8 -1.6,1.3 -1.6,0.9 0,-0.4 -0.7,0.1 -1.6,0.9 -0.8,0.9 -2.3,1.6 -3.3,1.6 -0.9,0 -3.7,1.3 -6.2,2.8 -4.2,2.7 -6.2,3.5 -20.4,8.6 -3.3,1.2 -7.5,2.9 -9.3,3.8 -1.8,0.9 -6.7,2.4 -11,3.3 -4.2,0.9 -8.4,1.9 -9.2,2.2 -0.8,0.3 -1.9,0.8 -2.5,0.9 -1,0.4 -14.5,2.5 -28.5,4.5 -9.5,1.3 -40.3,1.8 -54,0.7 -5.8,-0.4 -13.9,-1.4 -18,-2.3 -4.1,-0.8 -12.2,-2.4 -18,-3.6 -5.8,-1.1 -13,-2.8 -16,-3.9 -3,-1 -7.1,-2.1 -9,-2.5 -3.9,-0.7 -10.9,-3.3 -27.5,-10.3 -11.7,-4.9 -16.8,-7.5 -30.5,-15.5 -7.4,-4.4 -10.8,-6.5 -21.4,-13.7 -9.8,-6.6 -33.2,-28.3 -43.1,-40 C 424,512.1 402.2,460.4 397,405.7 c -0.9,-10.5 -3.2,-21.6 -5.1,-24.7 -0.6,-1.1 -0.8,-0.9 -0.9,1 0,3.1 -1.7,5 -4.3,5 -1,0 -3.2,0.9 -4.8,2 -3.6,2.7 -16.9,8.1 -17.9,7.5 -0.5,-0.3 -1.1,-0.1 -1.5,0.5 -0.4,0.6 -1.1,0.7 -1.7,0.4 -0.7,-0.4 -0.8,-0.2 -0.4,0.4 0.4,0.7 -0.4,1.4 -2.1,1.7 -1.5,0.3 -4.6,1.4 -6.8,2.5 -7.2,3.4 -11,4.7 -16,5.5 -2.8,0.4 -7.2,1.6 -10,2.6 -2.7,1 -6,1.9 -7.2,1.9 -1.2,0 -5.5,1.1 -9.5,2.4 -7,2.2 -12.3,3.2 -23.6,4.1 -3,0.3 -8.8,1.1 -13,1.9 -12.9,2.4 -24.2,3.6 -35.7,3.8 -12.6,0.2 -14.5,0.9 -20.2,7.1 -8.2,8.9 -7.4,-0.1 -7.3,90.7 0.1,80.1 0,81.2 -2,84.5 -2.1,3.4 -5.8,5 -9,4 -1,-0.3 -3.6,-0.2 -5.8,0.4 -2.3,0.5 -4.3,0.7 -4.5,0.5 -0.2,-0.2 -33.4,-0.5 -73.8,-0.7 -73.1,-0.3 -73.4,-0.3 -82.4,-2.6 -5.4,-1.4 -12.2,-2.4 -17,-2.5 l -8,-0.1 V 461 C 6.5,381.5 6.9,308.4 7.3,298.5 7.8,288.6 8,280.1 7.9,279.5 6.4,271.4 8,51.9 9.7,40.8 10.2,37.4 10.6,36.9 14.4,35.9 16.6,35.4 19.9,34.5 21.5,34 43.8,27.5 57.2,24.3 88.9,17.9 126.3,10.3 172.9,6 217,6 c 34.6,0.1 55.5,1.9 76,6.6 5.8,1.3 13,2.9 16,3.4 9.9,1.9 31.3,9 46.5,15.7 16.2,7.1 40,20.4 51.1,28.6 12.1,9.1 41.4,39.7 41.4,43.3 0,0.4 0.6,1.5 1.4,2.3 6.4,7.3 22.6,42.3 26.1,56.4 2.6,10.6 4.7,16.7 5.6,16.7 0.4,0 3,-1.9 5.6,-4.3 7.9,-6.9 24.4,-20 30.8,-24.4 30.2,-20.5 65.9,-33.6 105,-38.5 20.2,-2.5 60.1,-1 83.5,3.2 60.5,10.8 111.2,38.1 145.5,78.3 4.1,4.8 5,5.5 5.6,4 0.9,-2.5 2.9,-38.8 3.9,-70.5 0.5,-14.5 1.4,-42.7 2,-62.8 0.6,-20.1 1.4,-37.5 1.6,-38.7 0.2,-1.3 1.1,-2.3 1.8,-2.3 0.8,0 1.7,-1.1 2,-2.5 0.6,-2.3 1.1,-2.5 6,-2.5 3,0 16,-0.6 28.8,-1.4 12.8,-0.8 34.6,-2 48.3,-2.6 13.8,-0.6 35.6,-1.7 48.5,-2.5 12.9,-0.8 33.1,-1.7 44.8,-2.1 l 21.3,-0.7 -0.2,7.4 c -0.1,4.6 0.7,11.2 2,17.4 2.1,9.7 2.3,15 0.6,18.9 -0.9,2.1 8.7,-4.1 17,-10.9 14.5,-11.9 32.3,-22 47.5,-26.9 28.8,-9.2 64.2,-8.6 94.5,1.6 7.3,2.5 24.4,10.9 30.5,15.1 14.7,10 34.8,30.4 43.6,44.3 6.2,9.7 18.2,34.6 24.2,49.9 4.1,10.6 13.2,41.9 15.1,52 0.6,2.8 1.9,8.7 3.1,13.2 1.1,4.7 1.8,9.5 1.4,11 -0.4,2.1 5.2,-3.1 22.8,-20.8 27.9,-28.3 43.1,-40.2 71.3,-55.8 10.4,-5.8 37.9,-18.1 40.4,-18.1 0.6,0 1.9,-0.4 2.9,-0.9 5.1,-2.6 27.5,-8.5 47.7,-12.5 16.6,-3.3 42.4,-4.9 68.2,-4.2 44.3,1.2 81.6,7.5 110.5,18.5 9.4,3.6 27,12.1 29.2,14.1 0.5,0.5 0.9,3.3 0.9,6.2 0,2.9 0.5,7.1 1.2,9.3 1.7,5.4 0.8,30.8 -1.6,44.6 -0.5,3.1 -0.9,7.6 -0.9,10 0.2,9.5 -1.4,39.2 -2.6,48.9 -0.3,2.5 -0.7,7.2 -1,10.5 -2.3,28.6 -3.9,37.5 -6.9,37.5 -0.8,0 -5,-1.2 -9.2,-2.6 -17.5,-5.9 -27.3,-8 -43.3,-9.4 -7.4,-0.6 -15.7,-1.3 -18.5,-1.5 -13,-1.2 -38.3,0.1 -50.5,2.6 -2.5,0.5 -7.2,1.3 -10.5,1.8 -3.3,0.5 -7.8,1.7 -10,2.6 -5.6,2.5 -7.5,3.2 -11.5,4.4 -5.7,1.8 -17.9,8.5 -34.5,19 -6.7,4.3 -27,26.2 -29.8,32.1 -0.4,0.8 -2.1,3.8 -3.7,6.5 -5.7,9.4 -10.9,21 -11.6,25.9 -0.4,2.7 -1.5,6.3 -2.4,8 -1.1,1.9 -1.8,5.5 -1.9,9.1 -0.1,3.3 -0.4,7.8 -0.7,10 -0.3,2.2 0,10.5 0.6,18.5 0.9,11.7 1.7,16.6 4.5,25.3 4.3,13.4 6,16.7 13.3,25.8 8.6,10.8 15,16.1 26.5,21.8 7.9,3.9 12,5.3 18.2,6.2 8.8,1.2 28.8,0.6 37.6,-1.1 9.4,-2 21.9,-7.1 25.6,-10.7 3.2,-2.9 3.5,-3.6 2.8,-7 -0.3,-2.1 -1.4,-5.3 -2.3,-7.2 l -1.7,-3.4 -15,-0.3 c -8.2,-0.2 -20.9,-0.4 -28.1,-0.4 -8.5,0 -14.8,-0.5 -17.9,-1.5 -2.7,-0.8 -9.9,-2 -16.1,-2.6 -6.2,-0.7 -11.5,-1.8 -11.7,-2.3 -0.7,-2.6 1.4,-76 2.4,-84.1 0.7,-4.9 1.3,-13.5 1.3,-19 0.1,-5.5 0.5,-13.9 1,-18.7 0.8,-8.6 0.9,-8.8 3.5,-8.8 18.6,-0.2 41.3,-0.9 44.1,-1.4 1.9,-0.3 19,-1 38,-1.6 19,-0.5 48.7,-1.5 66,-2 17.3,-0.5 42.8,-1.2 56.5,-1.6 13.8,-0.3 28.3,-0.7 32.2,-0.9 8.7,-0.5 8.8,-0.4 9.6,10.5 0.3,4.1 1.5,12.1 2.6,17.7 1.7,8.1 2.2,14.9 2.5,34.5 0.2,13.4 0.9,42.5 1.5,64.8 0.6,22.3 1.4,65.2 1.7,95.4 0.6,62.6 1.7,55.2 -9.9,67.3 -4,4.1 -7.6,8.1 -8,8.9 -0.4,0.8 -1.3,1.4 -1.8,1.4 -0.6,0 -3,1.8 -5.4,4.1 -2.4,2.2 -5.7,4.8 -7.3,5.7 -3.1,1.7 -6.5,4.1 -11.1,7.8 -1.4,1.2 -3.7,2.5 -5.1,2.9 -2.3,0.7 -13,7.2 -15.7,9.5 -0.7,0.5 -1.6,1 -2.2,1 -0.5,0 -2.2,0.7 -3.8,1.5 -6.4,3.3 -18,8.4 -20.6,9 -1.5,0.4 -2.7,1.1 -2.7,1.5 0,0.4 -1.7,1.2 -3.7,1.8 -3.3,0.9 -6.1,1.8 -12.3,4 -0.8,0.3 -1.9,0.6 -2.5,0.7 -0.5,0 -1.6,0.4 -2.3,0.9 -0.7,0.4 -3,0.9 -5,1.1 -2,0.1 -5,0.8 -6.7,1.5 -1.6,0.7 -4.3,1.8 -6,2.5 -1.6,0.7 -5.2,1.6 -7.8,2 -2.7,0.3 -6.5,1.2 -8.6,1.9 -2,0.8 -6.6,1.7 -10.1,2 -3.6,0.4 -10.2,1.4 -14.8,2.3 -4.5,0.8 -9.1,1.3 -10.2,1 -1.1,-0.3 -2,-0.2 -2,0.3 0,0.4 -2.8,1.1 -6.2,1.4 -9.1,1 -60.3,1.4 -66.8,0.5 z m 58.5,-12.4 c 67.9,-9.6 120.7,-29.9 162,-62.4 9.1,-7.2 26.4,-24.9 27.1,-27.7 0.6,-2.2 -0.8,-89.4 -2.6,-168.9 -0.5,-22.5 -1,-51.6 -1,-64.6 0,-18 -0.3,-23.8 -1.2,-24.1 -0.7,-0.3 -10.7,-0.1 -22.3,0.3 -11.5,0.4 -37.4,1.3 -57.5,1.8 -20.1,0.6 -50.2,1.5 -67,2.1 -16.8,0.5 -43.3,1.3 -59,1.6 -15.7,0.4 -29,1.1 -29.6,1.5 -0.7,0.6 -1.3,9.6 -1.8,26.2 -0.4,13.8 -0.9,29.3 -1.2,34.2 -0.8,14.9 -2.4,50.7 -2.4,54.6 v 3.6 l 9.3,-0.1 c 5,0 26.2,0.4 47,0.8 30,0.7 38,1.1 38.4,2.2 1,2.6 -1.6,27.5 -3.1,29.9 -2.9,4.4 -17.8,11 -31.9,14.1 -11.2,2.4 -31.6,3 -41.5,1.1 -28.7,-5.5 -53.1,-27.1 -64.2,-56.9 -1,-2.9 -3.1,-10.2 -4.6,-16.3 -2.5,-10.1 -2.7,-12.8 -2.8,-32 -0.1,-16.8 0.3,-22.7 1.7,-29.5 11.2,-52.4 49.1,-87.9 106.2,-99.4 25,-5.1 57.6,-5.3 90,-0.6 15.2,2.2 21.7,3.7 34.2,7.8 10.8,3.5 9.9,4.4 10.8,-10.3 0.9,-14.5 4.3,-61.9 5.5,-76.5 0.5,-6.9 1.5,-19.2 2,-27.5 0.6,-8.2 1.3,-16.8 1.5,-19 1,-8.9 0.8,-14.6 -0.6,-16 -2.2,-2.2 -19.1,-9.3 -33.4,-14 -27,-9 -55.9,-13.4 -98.5,-15 -71.8,-2.7 -138.5,18.2 -194.1,61 -54.9,42.3 -95,107.8 -111.8,182.6 -9.1,40.6 -10.8,87.6 -4.5,125.4 3.2,19.6 10.6,46.9 13.5,50 0.5,0.5 0.9,1.5 0.9,2.3 0,0.8 2.3,6.6 5.1,12.9 5.8,13.2 17.8,33.4 27.3,46.3 6.3,8.5 28.2,33 29.5,33 0.3,0 2.5,1.8 4.8,3.9 26.2,24.3 63.9,44.4 103.3,55 13.8,3.7 38.3,7.7 52,8.5 15.5,0.8 52.9,-0.2 64.5,-1.9 z m -903,-42.1 c 19.6,-2.4 28.2,-4.3 47.5,-10.6 35.3,-11.5 66.5,-30.4 92.6,-56.3 8.6,-8.5 12.3,-12.9 12.7,-15 0.4,-1.6 1.1,-12 1.7,-23 2.3,-44.2 4.1,-76.2 5.5,-99 0.8,-13.2 1.9,-33.9 2.5,-46 0.6,-12.1 1.5,-29.2 2,-38 0.6,-8.8 1.4,-25.7 2,-37.5 0.6,-11.8 1.5,-29.8 2,-40 2.3,-45.6 2.4,-55.3 0.5,-59 -3.4,-6.8 -19,-23.3 -32.7,-34.7 -46.7,-38.9 -107.4,-57.8 -179.8,-56 -35.1,0.9 -62,7.5 -94.5,23.4 -97.9,47.7 -156.4,160.3 -142,272.9 1.6,12.9 2.5,17.1 6.2,30.9 1.3,5 2.8,10.8 3.4,13 5.6,22 26.9,62.7 43.4,83.1 19.2,23.7 42.1,43.7 66.2,58.1 9.6,5.7 30.8,16.3 32.6,16.3 0.7,0 1.7,0.4 2.2,0.9 1.6,1.4 24.1,8.8 35,11.5 12.7,3.1 28.9,5.5 48.5,7 7.5,0.6 29.8,-0.5 42.5,-2 z M 196.5,598 c 0.3,-0.5 0.6,-41.7 0.5,-91.4 -0.1,-104.3 -1.5,-92.6 11.7,-92.6 4.3,0 12.3,-0.5 17.8,-1 47.3,-4.6 79.3,-11.2 114,-23.4 12.1,-4.3 46.6,-21.4 51.6,-25.5 3.4,-2.8 3.7,-3.6 4.3,-9.8 2.9,-28.4 12.3,-64.6 22.7,-87.3 5.7,-12.4 10.7,-22.2 14.8,-29 6.4,-10.8 21.9,-32.5 28.5,-39.8 9,-10.1 8.9,-9.9 7.6,-18.9 -3.5,-24.8 -15.2,-52.9 -31.2,-75.6 C 426.9,86.8 405.6,67.1 388.3,56.8 380.8,52.3 380.1,51.9 375,48.9 366.8,44 341.7,33.3 328.8,29.2 309,22.8 292.8,19.2 269.5,15.9 241.6,12 186.3,12.3 149,16.6 c -7.4,0.8 -17.3,1.9 -22,2.5 -7.7,0.8 -45.5,7.5 -55.5,9.8 -2.2,0.5 -7.1,1.6 -11,2.5 C 46.9,34.5 18.6,42 17.9,42.8 15.4,45.2 14,130.1 14,277.4 13.9,344 13.8,400.1 13.6,402 c -0.3,2.5 -0.9,190.3 -0.6,196.3 0,1.1 182.8,0.9 183.5,-0.3 z M 883,580 c 10.7,-0.5 29.2,-1.4 41,-2 11.8,-0.6 33.2,-1.5 47.5,-2 40.5,-1.3 73.9,-3.1 74.9,-4 0.4,-0.5 1.2,-20.5 1.6,-44.7 3,-157.2 6.2,-265.1 8.5,-285.8 2.8,-24 7.7,-42.8 15.3,-58 3.5,-7 6.2,-10.7 12.1,-16.6 6.8,-6.8 8.4,-7.9 14.5,-9.8 9,-2.8 13.3,-2.7 17.8,0.4 7.7,5.3 16.2,25.1 19.7,46.5 4.5,27.8 6.4,53 6.3,87.5 -0.1,56.9 -4.3,109.3 -14.2,178 -0.5,3.9 -1.9,13.5 -3.1,21.5 -1.1,8 -4,26.7 -6.4,41.5 -2.4,14.9 -4.5,28.4 -4.7,30 l -0.3,3 10,0.2 c 12.7,0.3 127.7,2.4 165.8,3 25,0.4 28.7,0.2 28.7,-1.1 0,-0.8 -0.6,-2.1 -1.3,-2.8 -1.5,-1.5 -13.7,-23.4 -13.7,-24.6 0,-0.4 -1.2,-2.9 -2.6,-5.5 -3.9,-7.4 -12.2,-30.8 -15.5,-43.7 -7.1,-27.5 -9.3,-49.4 -8.7,-84.6 0.4,-20.5 1,-27.9 3.2,-41.9 7.8,-50 24.8,-96.3 49.9,-136.2 6.4,-10.2 7.7,-12.9 7.7,-16.4 0,-5.5 -2.7,-23.4 -5.1,-33.9 -1.1,-4.7 -2.7,-11.6 -3.5,-15.5 -4.3,-18.6 -15.6,-50 -24.1,-66.9 -9.8,-19.5 -23.8,-37.2 -40.1,-50.6 -7.8,-6.3 -23.5,-15.7 -32.9,-19.4 -40.4,-16.1 -86.7,-13.2 -121.1,7.6 -3.4,2.1 -6.5,3.8 -6.7,3.8 -1,0 -11.1,7.5 -17.5,13 -3.6,3 -11,10.2 -16.4,16 -5.4,5.8 -10.5,10.7 -11.3,10.8 -1.2,0.3 -1.4,-1.7 -0.9,-13 1.4,-33.5 1.7,-46.6 0.9,-47.1 -0.4,-0.3 -8.9,-0.1 -18.8,0.4 -9.9,0.4 -27.9,1.3 -40,1.8 -12.1,0.6 -29.6,1.5 -39,2.1 -9.3,0.5 -27.8,1.5 -41,2.1 -13.2,0.6 -29.2,1.4 -35.5,1.7 l -11.5,0.7 -0.7,10 c -0.4,5.5 -1.1,24.9 -1.7,43 -1.2,37.5 -2.3,65.7 -5.2,126.5 -1.1,23.4 -2.4,52.4 -2.9,64.5 -0.6,12.1 -1.4,29.7 -2,39 -0.5,9.4 -1.4,26.7 -2,38.5 -0.6,11.8 -2,35.5 -3.1,52.5 -1.1,17.1 -2.4,41.8 -2.9,55 -0.6,13.2 -1.2,26.7 -1.5,30 -0.3,3.3 -0.9,13.2 -1.5,22 -0.6,8.8 -1.2,16.5 -1.5,17.2 -0.2,0.6 -0.5,8.3 -0.5,17 -0.1,8.7 -0.6,20.8 -1.1,27 -0.5,6.1 -0.6,11.9 -0.2,12.9 0.5,1.5 1.7,1.6 9.2,1 4.7,-0.3 17.4,-1 28.1,-1.6 z"
       id="path28" />
    <path
       d="m 639.5,469.9 c -7.2,-1.2 -18.4,-5.2 -22.6,-8 -27.4,-18.7 -41.2,-47 -41.2,-84.4 0.1,-15.7 2,-26.3 7.3,-38.6 9.4,-22.2 29.4,-39.1 53.7,-45.4 7.3,-1.9 27,-2 33.8,-0.1 23.3,6.3 41.7,23.1 51.1,46.4 17.2,42.6 5.7,92.6 -26.7,116.2 -11.4,8.3 -20.3,12 -33.6,13.9 -8.2,1.2 -14.6,1.2 -21.8,0 z m 27.9,-8.5 c 11.6,-2.8 22.3,-9.1 31.4,-18.3 10.1,-10.3 16.3,-21.9 20.7,-38.6 5,-19.5 2.8,-46.6 -5.4,-64.1 -7.4,-15.8 -16.1,-25.9 -26.6,-30.9 -10.5,-4.9 -14.9,-5.8 -27.8,-5.3 -9.2,0.3 -12,0.8 -14.8,2.5 -1.9,1.1 -7.7,4.2 -12.9,6.9 -5.5,2.8 -12.3,7.2 -16.1,10.6 -6.4,5.7 -15.3,17.6 -20,26.8 -1.2,2.5 -2.8,5.2 -3.5,6 -0.6,0.8 -1.4,3.5 -1.7,6 -0.9,7.1 -1.9,11.4 -3,12.8 -1,1.2 -1.1,19.2 -0.1,26 1.5,10.5 8.4,27.7 14.7,36.5 8.2,11.5 23.9,22.1 36.3,24.6 6.1,1.2 21,0.4 28.8,-1.5 z"
       id="path30" />
    <path
       d="m 202.7,290.6 c -0.4,-1 -0.2,-11.7 0.3,-23.9 0.6,-12.2 1.7,-37.2 2.4,-55.6 1.1,-25.5 1.7,-33.6 2.7,-34.6 1.7,-1.5 9.8,-3.1 24,-4.5 22.3,-2.4 42.1,4.4 53.1,18.2 8.9,11.1 11.2,18.6 11.1,35.3 0,10.1 -0.5,13.1 -2.6,19.2 -6.1,17.6 -17.8,30.5 -35.7,39.4 -11.5,5.7 -17.8,7 -37.1,7.6 -16,0.5 -17.6,0.4 -18.2,-1.1 z m 35.5,-7.1 c 13.5,-2.9 26.3,-10.1 36.3,-20.6 8,-8.4 9.9,-11.8 12.6,-21.9 3.7,-14.1 2.7,-27.3 -2.7,-38.2 -7.1,-14.1 -20.1,-20.5 -39.1,-19.3 -4.9,0.4 -10.2,1 -11.9,1.6 -3.7,1.1 -10.2,7.8 -13.7,13.9 -2.5,4.4 -2.6,5.2 -3.3,30 -0.4,14 -0.8,29.8 -0.9,35 -0.1,5.2 -0.5,11.2 -0.9,13.3 -0.6,2.5 -0.4,4.2 0.4,5.2 2.2,2.7 12.8,3.1 23.2,1 z"
       id="path32" />
  </g>
</svg>
