<svg id="Layer_1" data-name="Layer 1" xmlns="http://www.w3.org/2000/svg" viewBox="0 0 3840 954.59998"><rect x="1946.90002" y="8" width="1885.09998" height="938.59998"/><path d="M3824,16V938.6H1954.9V16H3824m16-16H1938.9V954.6H3840V0Z" transform="translate(0 0)" style="fill:#fff"/><path d="M3030.7,114.7c-55.6001,0-100.6001,162.3-100.6001,362.6s45,362.6,100.6001,362.6,100.6001-162.3,100.6001-362.6S3086.30005,114.7,3030.7,114.7Zm34.1001,564.9c0,75.2-15.3,136.1-34.1001,136.1s-34.1001-61-34.1001-136.1V275c0-75.2,15.3-136.1,34.1001-136.1s34.1001,61,34.1001,136.1Z" transform="translate(0 0)" style="fill:#f7db17"/><path d="M3307.80005,114.7C3252.2,114.7,3207.2,277,3207.2,477.3s45,362.6,100.6001,362.6,100.6001-162.3,100.6001-362.6S3363.30005,114.7,3307.80005,114.7Zm34.09985,564.9c0,75.2-15.3,136.1-34.1001,136.1s-34.10009-61-34.10009-136.1V275c0-75.2,15.30005-136.1,34.10009-136.1s34.1001,61,34.1001,136.1Z" transform="translate(0 0)" style="fill:#f7db17"/><path d="M3584.80005,114.7C3529.2,114.7,3484.2,277,3484.2,477.3s45,362.6,100.6001,362.6,100.6001-162.3,100.6001-362.6S3640.30005,114.7,3584.80005,114.7Zm0,701.1c-18.8,0-34.1001-61-34.1001-136.1V275c0-75.2,15.3-136.1,34.1001-136.1s34.1001,61,34.1001,136.1V679.6C3618.8999,754.8,3603.6001,815.8,3584.80005,815.8Z" transform="translate(0 0)" style="fill:#f7db17"/><polygon points="2815.4 427.5 2758.5 467.5 2758.5 595.6 2685.8 595.6 2825.3 124.7 2754.7 124.7 2649.1 623.3 2758.5 623.3 2758.5 806.9 2725.9 829.7 2725.9 836.8 2848 836.8 2848 829.7 2815.4 806.9 2815.4 623.3 2864.4 623.3 2864.4 595.6 2815.4 595.6 2815.4 427.5" style="fill:#f7db17"/><polygon points="2518.5 454.1 2590.7 154.6 2623.3 131.8 2623.3 124.7 2534.7 124.7 2534.7 131.8 2563 151.5 2504.9 392.5 2452 153.9 2483.6 131.8 2483.6 124.7 2361.4 124.7 2361.4 131.8 2393.9 154.5 2464.3 471.9 2383.7 806.1 2349.9 829.7 2349.9 836.8 2438.4 836.8 2438.4 829.7 2411.1 810.6 2477.9 533.5 2538.7 807.6 2507.1 829.7 2507.1 836.8 2629.3 836.8 2629.3 829.7 2596.7 807 2518.5 454.1" style="fill:#f7db17"/><path d="M2206.3999,430.3v7.1l35,24.5V714c-4.5,58.5-11.8999,101.8-30.5,101.8-22,0-39.8-61-39.8-136.1V275c0-75.2,17.8-136.1,39.8-136.1s52.3999,97.9,68.80005,199.6h7.19995V117.6h-7.1001L2257.09985,150c-12.2-23.2-27.7-35.2-46.2-35.2-64.8999,0-117.5,162.3-117.5,362.6S2146,840,2210.8999,840c28.6001,0,40.30005-31.6,54.8999-84.1h.30005l24.89991,81h7.10009V430.3Z" transform="translate(0 0)" style="fill:#f7db17"/><polygon points="1224.6 0 751.9 954.6 1159.5 954.6 1618.2 0 1224.6 0" style="fill:#c1214e"/><path d="M254.2,721.8H154.8l-8.2-98.7H106.2l-7.5,98.7H0L62.8,223.2H192.1ZM126.3,347.2l-14.2,193.6h28.4Z" transform="translate(0 0)" style="fill:#fff"/><path d="M589.1,721.8H494.2V439.2l-37.4,282.6H395.5L355.9,437.7v284.1H261V223.1H400.1l24.7,220.5L451,223.1h138.3V721.8Z" transform="translate(0 0)" style="fill:#fff"/><path d="M744.5,394.3V335.2c0-15.7-.7-20.9-2.2-24.7-3-5.2-7.5-9-12.7-9a15.70108,15.70108,0,0,0-13.5,9c-1.5,4.5-2.2,8.2-2.2,24.7v36.6c0,16.5,4.5,22.4,23.9,32.9l44.9,24.7C841.8,462.3,850,475.7,850,543v80c0,43.4-3,57.6-15,73.3-16.4,22.4-34.4,26.9-112.1,26.9-62.1,0-79.2-3.7-95.7-22.4-9.7-10.5-14.2-22.4-16.4-41.1-1.5-9.7-1.5-20.9-1.5-54.6V515.4H714v96.4c0,20.2,4.5,28.4,15.7,28.4,9.7,0,14.9-8.2,14.9-22.4v-68l-.7-10.5c-.7-18.7-3-22.4-20.9-32.1-6.7-3.7-12-6-12.7-6.7L666,475.8c-48.6-27.7-56.8-43.4-56.8-105.4V312.1c0-41.1,4.5-59.1,20.2-73.3,16.4-14.9,35.9-18.7,108.4-18.7,63.5,0,80.7,4.5,96.4,25.4,12.7,16.5,15.7,32.1,15.7,78.5v70.3Z" transform="translate(0 0)" style="fill:#fff"/><path d="M1015,721.8H909.5V303.9H856.4V223.2h210.1v80.7H1015Z" transform="translate(0 0)" style="fill:#fff"/><path d="M1185.2,223.1l37.4.7c73.3,1.5,91.19995,20.9,91.19995,96.4v52.3c0,69.5-10.5,93.5-47.1,103.2,17.9,6,28.4,14.2,35.9,27.7,9.69995,17.2,11.19995,30.7,11.19995,89V721.7H1209.1V572.3c0-49.3,0-48.6-26.2-49.3h-4.5V721.9H1073V223.1ZM1185.9,431.7c20.2,0,23.2-4.5,23.2-36.6V341.3l-.7-13.5c0-17.9-4.5-23.2-18.69995-23.2h-11.2V431.7Z" transform="translate(0 0)" style="fill:#fff"/><path d="M1570.9,721.8h-99.4l-8.19995-98.7h-40.4l-7.5,98.7h-98.69995l62.8-498.6h129.30005ZM1443.1,347.2l-14.2,193.6h28.4Z" transform="translate(0 0)" style="fill:#fff"/><path d="M1680,223.1c90.5,0,103.19995,2.2,120.4,22.4,15.7,17.9,19.4,37.4,19.4,106.2v246c0,61.3-2.19995,77.8-14.19995,95.7-14.2,20.9-35.1,27.7-86.7,27.7l-53.1.7h-88.19995V223.1Zm12.80005,417.2c16.4,0,20.19995-5.2,20.19995-26.2V332.3c0-22.4-3.69995-27.7-20.19995-27.7-2.19995,0-6,.7-9.69995.7v334.9C1686.80005,640.3,1690.5,640.3,1692.80005,640.3Z" transform="translate(0 0)" style="fill:#fff"/></svg>