<?xml version="1.0" encoding="UTF-8" standalone="no"?>
<svg
   version="1.0"
   width="3703.5037"
   height="708.28052"
   viewBox="0 0 3703.5037 708.28052"
   preserveAspectRatio="xMidYMid meet"
   id="svg30"
   sodipodi:docname="hacks.svg"
   inkscape:version="1.1.2 (0a00cf5339, 2022-02-04, custom)"
   xmlns:inkscape="http://www.inkscape.org/namespaces/inkscape"
   xmlns:sodipodi="http://sodipodi.sourceforge.net/DTD/sodipodi-0.dtd"
   xmlns="http://www.w3.org/2000/svg"
   xmlns:svg="http://www.w3.org/2000/svg">
  <defs
     id="defs34" />
  <sodipodi:namedview
     id="namedview32"
     pagecolor="#ffffff"
     bordercolor="#666666"
     borderopacity="1.0"
     inkscape:pageshadow="2"
     inkscape:pageopacity="0.0"
     inkscape:pagecheckerboard="0"
     showgrid="false"
     inkscape:zoom="0.28790735"
     inkscape:cx="1853.0267"
     inkscape:cy="354.28064"
     inkscape:window-width="1920"
     inkscape:window-height="1017"
     inkscape:window-x="-8"
     inkscape:window-y="-8"
     inkscape:window-maximized="1"
     inkscape:current-layer="svg30" />
  <g
     fill="#000000"
     id="g10"
     transform="translate(-3.9,-5.7194939)">
    <path
       d="m 270.8,706.8 c -0.1,-4 -0.2,-13.8 -0.2,-21.8 L 270.5,670.5 248.3,670.2 226,670 v -38.3 c 0,-21 -0.4,-38.7 -0.8,-39.2 -0.5,-0.8 -28.5,-1.1 -89.2,-1 -48.7,0 -98.3,-0.1 -110.3,-0.2 L 3.9,591 4.7,588.8 c 0.4,-1.3 0.7,-11.2 0.6,-22 L 5.1,547 l 19.2,-0.2 19.2,-0.3 0.3,-20.8 c 0.2,-19.6 0.3,-20.8 2.1,-20.2 1.1,0.3 2.8,-0.4 4.5,-2 2.6,-2.4 3.2,-2.5 15.7,-2.5 12.5,0 12.9,0.1 12.9,2.2 0,2 0.1,2 1.9,0.4 1.8,-1.7 2,-1.7 2.9,0 0.9,1.6 1.2,1.5 3.6,-1.2 l 2.5,-2.9 0.1,-20 v -20 l 3.2,-1.8 c 2.8,-1.4 6.4,-1.7 21.6,-1.8 10.3,-0.1 18.5,-0.6 18.8,-1.1 0.4,-0.5 0.6,-9.4 0.5,-19.7 -0.1,-12.8 0.2,-19.6 1,-21.4 l 1.2,-2.7 21.6,-0.2 21.6,-0.3 0.3,-20.4 c 0.2,-18 0.4,-20.6 2,-21.7 1.3,-1 6.9,-1.3 22.3,-1.4 17.9,0 20.8,-0.2 21.3,-1.6 0.3,-0.9 0.6,-72.5 0.6,-159.2 V 48.7 l 2.3,2.2 c 2.5,2.2 5.7,2 5.7,-0.4 0,-1 3.8,-1.4 17.7,-1.5 12.7,0 17.9,-0.4 18.5,-1.3 0.4,-0.7 0.8,-10.2 0.7,-21.1 0,-10.9 0.4,-20.2 0.8,-20.5 0.4,-0.3 764,-0.5 1696.7,-0.3 l 1695.9,0.2 -0.8,10.8 c -0.4,5.9 -0.9,12.1 -1,13.9 -0.1,1.7 -0.6,3.8 -1.2,4.5 -0.6,0.7 -0.8,3 -0.5,5.1 0.4,3.4 0.6,3.6 1.7,2 0.7,-1 1.7,-1.5 2.1,-1.1 0.4,0.4 0.2,1.4 -0.5,2.2 -0.9,1.1 -0.7,2.3 1,5.5 1.1,2.3 2.3,4.1 2.6,4.1 0.3,0 1.7,-0.9 3.2,-1.9 2.4,-1.7 4.6,-1.9 19.4,-2 l 16.7,-0.2 0.2,308.6 c 0.1,169.7 0.2,309.3 0.2,310.3 0.1,1.5 -1.7,1.7 -21.1,2.2 -11.6,0.3 -21.4,0.7 -21.6,1 -0.8,0.8 -1.8,14.9 -1.7,24.5 0.1,9.1 0.4,12.2 1.6,16.2 l 0.6,2.3 H 1968.1 271 Z m 1671,-208.5 0.2,-90.3 h 70.5 c 55.7,0 70.5,0.3 70.6,1.3 0,0.6 0,41.4 -0.1,90.5 l -0.1,89.2 64.8,-0.2 64.8,-0.3 V 366 143.5 l -64.8,-0.3 -64.8,-0.2 0.2,89.6 c 0,52.6 -0.3,90 -0.8,90.5 -0.5,0.5 -29.7,0.8 -70.4,0.7 l -69.4,-0.3 -0.5,-90 -0.5,-90 -64.1,-0.3 -64.1,-0.2 -0.6,9.1 c -0.9,12.2 -0.9,435.4 0,436.2 0.3,0.4 29.5,0.6 64.7,0.5 l 64.1,-0.3 z M 2393,500 c 0,-88 0,-89 2,-91 2,-2 3,-2 70,-1.8 48.9,0.2 68.2,0.6 69,1.4 0.9,0.9 1.1,25.3 1,90.6 l -0.1,89.5 61.9,0.2 c 34,0.1 63.1,-0.1 64.5,-0.4 l 2.7,-0.7 -0.2,-199.7 -0.3,-199.6 -21.7,-0.3 c -12,-0.1 -21.9,-0.3 -22,-0.5 -0.1,-0.1 -0.4,-10.1 -0.8,-22.2 l -0.5,-22 H 2464 2309.5 l -0.5,22 c -0.4,12.1 -0.7,22.1 -0.8,22.3 -0.1,0.1 -10.1,0.2 -22.2,0.2 h -22 v 198.6 c 0,134.9 0.3,199.2 1,200.5 1,1.8 2.8,1.9 64.5,1.9 h 63.5 z m 677,66.5 c 0,-17.3 0.3,-22.5 1.3,-22.6 0.6,-0.1 10.9,-0.2 22.7,-0.3 l 21.5,-0.1 0.3,-51.5 c 0.2,-28.3 0.1,-57.5 -0.3,-64.7 l -0.7,-13.3 h -64.4 -64.4 v 45 45 h -70.5 -70.5 l 0.2,-138.2 0.3,-138.3 54,-0.3 c 29.7,-0.1 61.3,0.1 70.3,0.4 l 16.2,0.6 v 44.3 c 0,39.5 0.2,44.4 1.6,44.9 0.9,0.3 29.8,0.6 64.3,0.6 h 62.8 l 0.7,-9.2 c 0.9,-12.9 0.7,-118 -0.2,-119.5 -0.6,-0.9 -6.7,-1.3 -22.7,-1.5 l -22,-0.3 -0.3,-22.3 -0.2,-22.2 -154.8,0.2 -154.7,0.3 0.4,20.6 c 0.2,13.4 0,21.3 -0.7,22.5 -1,1.8 -2.5,1.9 -22.9,1.9 h -21.8 l -0.3,176.4 c -0.1,137.3 0.1,176.7 1,177.9 1,1.2 4.6,1.4 21.8,1.1 11.3,-0.2 21.1,0 21.9,0.5 1.1,0.7 1.2,4.5 0.6,21.7 -0.4,11.4 -0.4,21.2 0,21.8 0.4,0.8 46.6,1.1 155.1,1.1 H 3070 Z m 226.2,-45.2 0.3,-67.8 h 25 25 l 0.5,22 0.5,22 22.5,0.5 c 12.4,0.3 22.6,0.7 22.6,0.8 0.1,0.1 -0.1,10 -0.4,22 l -0.5,21.9 5.4,0.6 c 3,0.4 13.1,0.7 22.5,0.7 14.7,0 17.3,0.2 17.8,1.6 0.3,0.9 0.6,11 0.6,22.5 V 589 l 64.3,-0.2 64.2,-0.3 v -42 -42 L 3544.3,504.2 3522,504 V 481.5 459 l -22.7,-0.2 -22.8,-0.3 0.4,-22.2 0.4,-22.3 h -22.7 c -19.4,0 -22.6,-0.2 -22.7,-1.5 0,-0.8 0,-22 0,-47 0,-25 0,-45.9 0,-46.5 0.1,-0.6 8.7,-1.1 22.3,-1.2 l 22.2,-0.3 0.1,-22 v -22 l 16,-0.6 c 8.8,-0.4 19,-0.7 22.7,-0.8 l 6.8,-0.1 0.2,-22.3 0.3,-22.2 22,-0.2 22,-0.2 v -41.8 -41.8 l -64.2,-0.3 -64.3,-0.2 v 20.9 c 0,11.5 -0.3,21.6 -0.6,22.5 -0.5,1.4 -3.4,1.6 -21.8,1.6 -11.6,0 -21.7,0.4 -22.5,0.9 -1.2,0.8 -1.3,4.6 -0.9,22 0.5,16.9 0.3,21.3 -0.8,22.2 -0.9,0.7 -6.5,0.9 -19.2,0.4 -9.9,-0.4 -19.6,-0.5 -21.6,-0.1 l -3.6,0.7 v 21.3 c 0,16.9 -0.3,21.6 -1.4,22.5 -0.9,0.8 -8.5,1.1 -25.2,0.9 l -23.9,-0.3 -0.3,-67.7 -0.2,-67.8 h -64.5 -64.5 v 223 223 h 64.5 64.5 z M 497,496.4 c 0,-59.1 0.3,-89.2 1,-90.5 1,-1.8 2.9,-1.9 70.5,-1.9 38.2,0 69.6,0.1 69.7,0.3 0.2,0.1 0.5,40.8 0.8,90.4 0.3,49.6 0.7,90.3 1,90.5 0.3,0.2 29.2,0.2 64.3,0 l 63.7,-0.2 -0.2,-87.3 -0.3,-87.2 h -21.3 c -17.8,0 -21.4,-0.2 -22.2,-1.5 -1.3,-2 -1.3,-91.5 -0.1,-93.9 0.9,-1.6 2.7,-1.7 22.5,-1.3 l 21.6,0.5 -0.2,-64.9 -0.3,-64.9 -21.6,0.3 -21.6,0.4 -0.6,-2.4 C 723.3,181.6 723,171.4 723,160.2 V 140 l -177.2,0.2 -177.3,0.3 -0.3,222.2 -0.2,222.3 63.7,0.2 c 35.1,0.2 64.1,0.2 64.6,0 0.4,-0.2 0.7,-40.1 0.7,-88.8 z m 678,67.1 c 0,-11.7 0.3,-22 0.6,-22.8 0.5,-1.3 3.5,-1.5 21.6,-1 17.4,0.5 21.1,0.4 21.9,-0.8 0.5,-0.8 0.9,-76.4 0.9,-177.5 0,-140.1 -0.3,-176.3 -1.2,-176.6 -0.7,-0.3 -10.5,-0.4 -21.8,-0.3 -14.4,0.2 -20.7,-0.1 -21.2,-0.9 -0.4,-0.6 -0.8,-10.7 -0.8,-22.4 V 140 l -154.7,0.2 -154.8,0.3 -0.3,20.9 c -0.1,13.4 -0.6,21.4 -1.3,22.3 -0.9,1 -5.7,1.2 -22.5,1 -17.1,-0.1 -21.5,0.1 -21.9,1.1 -0.9,2.4 -0.5,351.6 0.4,353.1 0.8,1.2 4.5,1.3 21.8,0.9 11.4,-0.3 21.4,-0.3 22.1,-0.1 0.9,0.4 1.2,5.9 1.2,22.9 V 585 l 154.3,0.2 c 84.8,0.2 154.5,0.2 155,0 0.4,-0.2 0.7,-9.9 0.7,-21.7 z m 225.2,20.2 c 0.4,-0.7 0.8,-51.3 0.8,-112.4 V 360 h 25 25 l 0.2,21.8 0.3,21.7 22,0.5 22,0.5 0.3,22.3 0.2,22.2 19.8,-0.2 19.7,-0.3 v -21 c 0,-11.5 0.4,-21.6 0.8,-22.2 0.6,-1 6.2,-1.3 22.3,-1.3 h 21.4 v -21.9 -21.9 l 24.3,-0.4 c 13.3,-0.2 25,-0.2 26,0 1.6,0.4 1.7,6.6 1.7,112.8 V 585 h 64.5 64.5 V 362.5 140 l -64.2,0.2 -64.3,0.3 -0.5,22 -0.5,22 -21.9,0.1 -21.9,0.1 -1,2.4 c -0.5,1.4 -0.7,10.3 -0.3,21.1 0.5,16.4 0.4,18.9 -1.1,20.3 -1.4,1.4 -4.2,1.6 -21.9,1.3 -11.1,-0.2 -20.5,0 -20.8,0.3 -0.4,0.3 -0.7,10.5 -0.9,22.5 l -0.2,21.9 -24.5,0.6 c -13.8,0.3 -24.9,0.2 -25.5,-0.3 -0.6,-0.5 -1.1,-10.1 -1.3,-23.3 l -0.3,-22.4 -20.9,0.6 c -16.9,0.5 -21.2,0.4 -22.6,-0.8 -1.4,-1.1 -1.5,-2.9 -1,-12.4 0.3,-6 0.2,-15.7 -0.2,-21.5 l -0.7,-10.4 -21,-0.1 c -11.5,0 -21.6,-0.4 -22.2,-0.8 -1,-0.6 -1.1,-5.7 -0.6,-22.3 l 0.6,-21.4 h -65.6 -65.7 v 222.8 222.7 l 64.7,-0.3 c 49.4,-0.2 64.9,-0.6 65.5,-1.5 z"
       id="path2" />
    <path
       d="m 2394.2,322.8 c -0.9,-0.9 -1.2,-12.6 -1.2,-46.3 0,-43.4 0.1,-45.3 1.9,-46.9 1.8,-1.7 6.7,-1.8 70,-1.8 37.4,0 68.5,0.3 69,0.7 0.8,0.4 1.1,15.6 1.1,47.5 0,41.7 -0.2,46.9 -1.6,47.4 -0.9,0.3 -32.3,0.6 -69.8,0.6 -51.7,0 -68.5,-0.3 -69.4,-1.2 z"
       id="path4" />
    <path
       d="M 497.6,317.8 C 497.3,316.5 497,294.7 497,269.2 V 223 l 70.8,0.2 70.7,0.3 0.3,46.9 c 0.1,33.8 -0.1,47.3 -0.9,48.2 -0.9,1.2 -13.1,1.4 -70.4,1.4 h -69.3 z"
       id="path6" />
    <path
       d="M 949.6,499.4 C 949.3,498.6 949,436 949,360.4 V 223 l 70.4,0.2 c 38.7,0.2 70.6,0.5 70.8,0.8 0.2,0.3 0.1,62.6 -0.2,138.5 l -0.5,138 -69.6,0.3 c -62.9,0.2 -69.7,0.1 -70.3,-1.4 z"
       id="path8" />
  </g>
  <g
     fill="#ec0b60"
     id="g20"
     transform="translate(-3.9,-5.7194939)">
    <path
       d="m 2262,590.1 c -0.7,-1.3 -1,-66.6 -1,-203.8 V 184.5 l 22,0.3 21.9,0.4 0.6,-2.4 c 0.4,-1.3 0.5,-11.3 0.3,-22.2 -0.3,-19 -0.2,-19.7 1.7,-20.2 1.1,-0.2 72.2,-0.3 158,-0.2 l 156,0.3 0.5,22 c 0.4,12.1 0.7,22.1 0.8,22.2 0.1,0.2 10,0.4 22,0.5 l 21.7,0.3 v 203 203 l -67.2,0.2 -67.3,0.2 -0.2,-80.7 c -0.2,-44.4 -0.1,-84.5 0.2,-89.1 0.3,-5.6 0.1,-8.9 -0.7,-10 -1,-1.4 -8,-1.6 -66.2,-1.9 C 2401,410 2400,410 2398,412 c -2,2 -2,3 -2,91 v 89 h -66.5 c -64.7,0 -66.5,-0.1 -67.5,-1.9 z m 268.4,-269.7 c 1.4,-0.6 1.6,-5.3 1.6,-44.5 0,-26.8 -0.4,-44 -1,-44.4 -0.5,-0.3 -30.3,-0.6 -66.1,-0.6 -60,0 -65.3,0.1 -67,1.7 -1.8,1.6 -1.9,3.8 -1.9,43.9 0,31.4 0.3,42.4 1.2,43.3 0.9,0.9 17,1.2 66.4,1.2 35.9,0 66,-0.3 66.8,-0.6 z"
       id="path12" />
    <path
       d="M 428.8,588.3 365,588 364.8,363.7 c -0.2,-126.5 0.1,-224.7 0.6,-225.4 0.7,-1 38,-1.3 180.7,-1.3 H 726 v 20.3 c 0,11.1 0.3,21.2 0.6,22.3 0.6,2.1 0.9,2.2 22.2,2 l 21.7,-0.1 0.3,67.8 0.2,67.8 -21.6,-0.2 c -17.3,-0.1 -21.8,0.2 -22.5,1.2 -1.2,1.9 -1.1,86 0,87.8 0.8,1.2 4.6,1.4 21.9,1.2 13.1,-0.2 21.2,0.1 21.6,0.7 0.6,1 1,179.2 0.4,179.8 -0.2,0.1 -30.3,0.4 -67,0.6 l -66.7,0.3 -0.5,-2.9 c -0.3,-1.6 -0.6,-41.7 -0.6,-89.1 0,-47.5 -0.3,-87 -0.6,-87.9 -0.6,-1.4 -7.4,-1.6 -66.9,-1.6 -52,0 -66.6,0.3 -67.2,1.3 -0.4,0.6 -1,41.5 -1.3,90.7 l -0.5,89.5 H 496 c -1.9,0 -32.2,-0.1 -67.2,-0.2 z M 634.9,315.6 c 0.8,-0.9 1,-13.6 0.9,-45.2 L 635.5,226.5 567.8,226.2 500,226 v 43.2 c 0,23.8 0.3,44.3 0.6,45.6 l 0.6,2.2 h 66.3 c 54.8,0 66.5,-0.2 67.4,-1.4 z"
       id="path14" />
    <path
       d="m 862.4,588.1 c -0.2,-0.2 -0.4,-10.5 -0.4,-22.8 0,-17.1 -0.3,-22.3 -1.2,-22.4 -0.7,-0.1 -10.7,0 -22.2,0.1 -16.5,0.1 -21,-0.1 -21.7,-1.2 -1.1,-1.6 -1.2,-357.8 -0.1,-359.5 0.5,-0.8 6.4,-1.1 21.7,-0.8 14.6,0.3 21.3,0 22.3,-0.7 1.1,-0.9 1.3,-5.3 1.1,-21.3 -0.1,-11.1 0.1,-20.6 0.5,-21.3 0.5,-0.9 36.9,-1.2 158.2,-1.2 H 1178 v 20.9 c 0,11.5 0.2,21.6 0.5,22.3 0.4,1.1 4.3,1.3 20.3,1.1 10.8,-0.2 20.7,-0.1 22,0.2 l 2.2,0.5 v 179.3 c 0,98.5 -0.4,179.8 -0.9,180.6 -0.7,1 -5,1.2 -22,1 -11.6,-0.2 -21.2,-0.4 -21.3,-0.4 -0.1,0 -0.5,10.3 -0.8,22.8 l -0.5,22.8 -157.3,0.2 c -86.6,0.1 -157.6,0 -157.8,-0.2 z M 1087,362.5 c 0.3,-74.2 0.4,-135.2 0.2,-135.5 -0.2,-0.3 -30.7,-0.6 -67.8,-0.8 L 952,226 v 134.4 c 0,73.9 0.3,135.1 0.6,136 0.5,1.3 8.5,1.4 67.2,1.3 l 66.7,-0.2 z"
       id="path16" />
    <path
       d="M 1267,362.8 V 137 h 68.6 68.7 l -0.5,21.6 c -0.4,18.9 -0.3,21.6 1.1,22.3 0.9,0.4 10.6,0.6 21.6,0.5 11,-0.1 20.5,0.2 21.1,0.7 0.7,0.6 1,8 1,22 -0.1,15.9 0.2,21.3 1.2,22.1 0.8,0.7 8,0.8 22.1,0.3 l 21,-0.7 0.3,22.6 c 0.2,13.4 0.7,22.8 1.3,23.3 0.6,0.4 10.7,0.6 22.5,0.3 l 21.5,-0.5 v -21.7 c 0,-11.9 0.4,-22 0.9,-22.5 0.4,-0.4 9.9,-0.7 20.9,-0.6 11.6,0.2 20.8,-0.1 21.7,-0.7 1.3,-0.8 1.4,-3.9 1.2,-20.2 -0.2,-12 0,-20.3 0.7,-22 l 1,-2.8 21.8,0.3 21.8,0.2 0.5,-22 0.5,-22 h 67.3 67.2 v 224.9 c 0,123.7 -0.1,225.1 -0.3,225.2 -0.2,0.2 -128,0.7 -133.4,0.4 -1,0 -1.3,-23.2 -1.3,-112.4 0,-103.8 -0.1,-112.5 -1.7,-112.8 -0.9,-0.2 -11.3,-0.2 -23.1,0 l -21.4,0.3 0.4,21.9 c 0.2,14.2 -0.1,22 -0.7,22.1 -0.5,0.1 -10.3,0 -21.7,-0.1 -18.5,-0.2 -20.9,0 -21.4,1.5 -0.4,0.9 -0.7,10.9 -0.8,22.3 l -0.1,20.7 -22.7,0.3 -22.8,0.2 -0.2,-22.2 -0.3,-22.3 H 1471 c -13.2,0 -21.8,-0.4 -22.2,-1 -0.4,-0.5 -0.8,-10.6 -0.8,-22.2 V 363 h -22 -22 v 111.3 c 0,61.1 -0.4,111.7 -0.8,112.4 -0.6,0.9 -16.8,1.3 -68.5,1.5 l -67.7,0.3 z"
       id="path18" />
  </g>
  <g
     fill="#ffffff"
     id="g28"
     transform="translate(-3.9,-5.7194939)">
    <path
       d="m 1809.5,590.7 c -0.3,-0.7 -0.4,-102.2 -0.3,-225.7 l 0.3,-224.5 h 67.5 67.5 l 0.5,90 0.5,90 66.4,0.3 c 36.6,0.1 66.9,-0.2 67.3,-0.6 0.5,-0.5 0.9,-41.2 0.8,-90.5 V 140 l 67.7,0.2 67.8,0.3 V 366 591.5 l -67.8,0.3 -67.7,0.2 v -89.2 c 0,-49.1 0,-89.9 0,-90.5 0,-1 -14.2,-1.3 -67.5,-1.3 H 1945 l -0.2,90.3 -0.3,90.2 -67.3,0.3 c -53.7,0.2 -67.4,0 -67.7,-1.1 z"
       id="path22" />
    <path
       d="m 2757.3,590.5 c -0.3,-0.9 -0.3,-10.8 0,-22.1 0.2,-11.7 0.1,-20.7 -0.4,-21 -0.5,-0.3 -10.3,-0.5 -21.8,-0.4 -16.6,0 -21,-0.2 -22,-1.3 -0.8,-1.1 -1,-46.4 -0.9,-180.8 l 0.3,-179.4 21.9,-0.2 c 12,-0.1 22.1,-0.5 22.5,-0.8 0.3,-0.4 0.6,-10.4 0.6,-22.3 v -21.7 h 157.8 157.9 l 0.1,22 0.2,22 22,0.3 c 16,0.2 22.1,0.6 22.7,1.5 0.9,1.5 1.1,112.5 0.2,125.5 l -0.7,9.2 h -65.8 c -36.1,0 -66.4,-0.3 -67.3,-0.6 -1.4,-0.5 -1.6,-5.4 -1.6,-44.9 v -44.2 l -9.7,-0.5 c -5.4,-0.2 -35.7,-0.4 -67.3,-0.3 l -57.5,0.1 -0.3,135.2 -0.2,135.2 h 67.5 67.5 v -45 -45 h 67.4 67.4 l 0.5,3.8 c 0.2,2 0.4,32.5 0.3,67.7 l -0.1,64 -21.5,0.2 c -11.8,0.1 -22.1,0.2 -22.7,0.3 -1,0 -1.3,5.2 -1.3,22.5 V 592 h -157.5 c -141.4,0 -157.6,-0.2 -158.2,-1.5 z"
       id="path24" />
    <path
       d="M 3164,366 V 140 h 67.5 67.5 l 0.2,67.8 0.3,67.7 20.8,0.3 c 14.8,0.2 21.3,-0.1 22.3,-0.9 1.1,-0.9 1.4,-5.4 1.4,-22.5 v -21.3 l 3.5,-0.7 c 1.9,-0.3 11.8,-0.4 22,-0.2 11.9,0.3 18.8,0.1 19.2,-0.6 0.4,-0.5 0.5,-10.4 0.4,-21.9 -0.2,-16.6 0,-21.2 1.1,-21.8 0.7,-0.5 10.8,-0.9 22.5,-0.9 19.3,0 21.2,-0.2 21.7,-1.7 0.3,-1 0.5,-11 0.5,-22.3 l -0.1,-20.5 h 67.3 67.4 v 45 45 h -22 -22 l -0.3,22.5 -0.2,22.6 -22.2,0.2 c -12.2,0.2 -22.4,0.5 -22.7,0.7 -0.2,0.3 -0.4,10.3 -0.5,22.2 l -0.1,21.8 -22.2,0.3 c -13.7,0.1 -22.3,0.6 -22.3,1.2 0,0.6 -0.1,20.1 -0.1,43.5 0,23.4 0.1,43.2 0.1,44 0,1.3 3.2,1.5 22.6,1.5 h 22.5 l -0.2,22.3 -0.2,22.2 22.7,0.3 22.6,0.2 v 22.5 22.5 l 22.3,0.2 22.2,0.3 v 45 45 h -67.4 -67.5 l 0.2,-21 c 0.2,-11.5 -0.1,-21.5 -0.5,-22.2 -0.6,-0.9 -6.7,-1.2 -21.2,-1.4 -11.1,-0.1 -21.2,-0.4 -22.3,-0.7 -1.9,-0.5 -2,-1.1 -1.6,-22.3 0.2,-18.4 0.1,-22 -1.2,-22.4 -0.8,-0.3 -10.6,-0.5 -21.8,-0.4 -11.2,0.1 -20.8,-0.3 -21.3,-0.8 -0.5,-0.5 -1,-10.5 -1.1,-22.3 l -0.3,-21.5 h -22 -22 l -0.3,67.8 -0.2,67.7 h -67.5 -67.5 z"
       id="path26" />
  </g>
</svg>
