<?xml version="1.0" encoding="UTF-8" standalone="no"?>
<svg
   id="Layer_1"
   data-name="Layer 1"
   viewBox="0 0 3839 2153.90015"
   version="1.1"
   sodipodi:docname="test.svg"
   inkscape:version="1.1.2 (0a00cf5339, 2022-02-04, custom)"
   xmlns:inkscape="http://www.inkscape.org/namespaces/inkscape"
   xmlns:sodipodi="http://sodipodi.sourceforge.net/DTD/sodipodi-0.dtd"
   xmlns:xlink="http://www.w3.org/1999/xlink"
   xmlns="http://www.w3.org/2000/svg"
   xmlns:svg="http://www.w3.org/2000/svg">
  <defs
     id="defs35">
    <linearGradient
       inkscape:collect="always"
       id="linearGradient3724">
      <stop
         style="stop-color:#000000;stop-opacity:1;"
         offset="0"
         id="stop3720" />
      <stop
         style="stop-color:#000000;stop-opacity:0;"
         offset="1"
         id="stop3722" />
    </linearGradient>
    <linearGradient
       inkscape:collect="always"
       xlink:href="#linearGradient3724"
       id="linearGradient3726"
       x1="-0.5"
       y1="1770.9501"
       x2="651.7"
       y2="1770.9501"
       gradientUnits="userSpaceOnUse" />
    <linearGradient
       inkscape:collect="always"
       xlink:href="#linearGradient3724"
       id="linearGradient3728"
       x1="774"
       y1="1770.9501"
       x2="964.1"
       y2="1770.9501"
       gradientUnits="userSpaceOnUse" />
    <linearGradient
       inkscape:collect="always"
       xlink:href="#linearGradient3724"
       id="linearGradient3730"
       x1="1086.6"
       y1="1771.0001"
       x2="1768.1595"
       y2="1771.0001"
       gradientUnits="userSpaceOnUse" />
    <linearGradient
       inkscape:collect="always"
       xlink:href="#linearGradient3724"
       id="linearGradient3732"
       x1="1771.172"
       y1="1770.95"
       x2="2532.7226"
       y2="1770.95"
       gradientUnits="userSpaceOnUse" />
    <linearGradient
       inkscape:collect="always"
       xlink:href="#linearGradient3724"
       id="linearGradient3734"
       x1="2590.2002"
       y1="1770.9501"
       x2="3196.6144"
       y2="1770.9501"
       gradientUnits="userSpaceOnUse" />
    <linearGradient
       inkscape:collect="always"
       xlink:href="#linearGradient3724"
       id="linearGradient3736"
       x1="3203.7001"
       y1="1780.6001"
       x2="3839.5"
       y2="1780.6001"
       gradientUnits="userSpaceOnUse" />
  </defs>
  <sodipodi:namedview
     id="namedview33"
     pagecolor="#ffffff"
     bordercolor="#666666"
     borderopacity="1.0"
     inkscape:pageshadow="2"
     inkscape:pageopacity="0.0"
     inkscape:pagecheckerboard="0"
     showgrid="false"
     inkscape:zoom="0.27845793"
     inkscape:cx="1212.0323"
     inkscape:cy="1077.362"
     inkscape:window-width="1920"
     inkscape:window-height="1017"
     inkscape:window-x="-8"
     inkscape:window-y="-8"
     inkscape:window-maximized="1"
     inkscape:current-layer="Layer_1" />
  <path
     d="M3489.7,230.4C3447.3999,96,3320.7,0,3174.8999,0c-145.8999,0-272.6001,96-314.8,230.3L2748.7998,560.5V19.2h-583.5c-103.69995,0-199.6,42.2-272.6,111.3V19.2h-598.9c-111.3,0-211.1,46.1-284.1,122.8V19.2H441.5C199.6,19.2,0,218.9,0,460.7,0,575.9,46.1,683.4,119,760.2H0V1274.6001H568.2c161.2,0,299.4-84.5,380.1-215,65.3,126.69995,195.80005,215,349.30005,215h602.69995V1163.30005c69.1,69.1,165.1001,111.30005,272.6001,111.30005H3839Z"
     transform="translate(0 0)"
     style="fill:#fff"
     id="path2" />
  <path
     d="M568.2,852.3H88.3V1002H568.2c92.1,0,168.9-76.8,168.9-168.9s-76.8-168.9-168.9-168.9H445.3c-111.3,0-203.5-92.1-203.5-203.5S334,257.3,445.3,257.3h476V107.5H441.5a353.2,353.2,0,0,0,0,706.4H564.3c11.5,0,19.2,7.7,19.2,19.2S575.8,852.3,568.2,852.3Z"
     transform="translate(0 0)"
     style="fill:#034693"
     id="path4" />
  <path
     d="M441.5,445.4H921.4V291.8H441.5c-92.1,0-168.9,76.8-168.9,168.9s76.8,168.9,168.9,168.9H564.3c111.3,0,203.5,92.1,203.5,203.5s-92.1,203.5-203.5,203.5H88.3v149.69995h479.9A353.2,353.2,0,1,0,568.2,479.9H445.3c-11.5,0-19.2-7.7-19.2-19.2C426.1,453,433.8,445.4,441.5,445.4Z"
     transform="translate(0 0)"
     style="fill:#034693"
     id="path6" />
  <path
     d="M2165.2,291.8c-65.30005,0-115.2,49.9-115.2,115.2V886.9c0,65.3,49.8999,115.2,115.2,115.2h311V664.2h-238V813.9h88.3v34.6h-88.3a34.48435,34.48435,0,0,1-34.6001-34.6V476.1A34.48418,34.48418,0,0,1,2238.2,441.5h426.1001V291.8Z"
     transform="translate(0 0)"
     style="fill:#034693"
     id="path8" />
  <path
     d="M3109.6001,1002h349.3l-238-706.4c-7.69995-19.2-23-34.6-46.1001-34.6-19.19995,0-38.3999,15.4-46.1001,30.7l-307.1001,894.5H2998.2l107.5-318.6V1002ZM3171,679.5l49.8999,153.6H3117.2Z"
     transform="translate(0 0)"
     style="fill:#034693"
     id="path10" />
  <path
     d="M3405.2,264.9C3374.5,165.1,3282.3999,88.3,3171,88.3s-203.5,72.9-230.3,172.8l-280.2,821.5V479.9H2238.2V629.6h276.3999v406.9H2169c-84.5,0-149.69995-69.1-149.69995-149.7V407c0-84.5,69.1001-149.7,149.69995-149.7h495.2V107.5h-499.1001c-165.1,0-299.4,134.4-299.4,299.4V886.8c0,165.1,134.4,299.4,299.4,299.4h618.09986l311-902.2c11.5-34.6,42.2-57.6,80.60009-57.6,38.39991,0,69.1001,23,80.6001,57.6l253.3999,752.4h-399.3v149.7h606.59985Z"
     transform="translate(0 0)"
     style="fill:#034693"
     id="path12" />
  <path
     d="M1293.7,1036.6C1209.2,1036.6,1144,967.5,1144,886.9V407c0-84.5,69.1-149.7,149.69995-149.7h514.4V107.5H1293.7c-165.1,0-299.4,134.4-299.4,299.4V886.8c0,165.1,134.4,299.4,299.4,299.4h514.4V1036.5l-514.4.1Z"
     transform="translate(0 0)"
     style="fill:#034693"
     id="path14" />
  <path
     d="M1328.30005,817.7h372.4V668h-522.1V890.7c0,65.3,49.9,115.2,115.19995,115.2h514.4V856.1H1362.90015C1343.7,852.3,1328.30005,836.9,1328.30005,817.7Z"
     transform="translate(0 0)"
     style="fill:#034693"
     id="path16" />
  <path
     d="M1700.7,479.9h-372.4a34.48422,34.48422,0,0,1,34.6-34.6h441.5V291.8h-510.6c-65.3,0-115.19995,49.9-115.19995,115.2V629.7h522.1Z"
     transform="translate(0 0)"
     style="fill:#034693"
     id="path18" />
  <path
     d="M462.1,1688V1407.30005H651.2V2134.6001H462.1v-298.1h-273v298.1H0V1407.30005H189.1V1688Z"
     transform="translate(0 0)"
     style="fill:#e6e6e6;fill-opacity:1;stroke:url(#linearGradient3726)"
     id="path20" />
  <path
     d="M963.6,2134.6001H774.5V1407.30005H963.6Z"
     transform="translate(0 0)"
     style="fill:#e6e6e6;fill-opacity:1;stroke:url(#linearGradient3728)"
     id="path22" />
  <path
     d="M1506.7,1407.30005h234.4l-289.4,344.4,315.4,383.00013h-245l-244-315.4h-1.9v315.4H1087.1V1407.40015h189.1v300h1.9Z"
     transform="translate(0 0)"
     style="fill:#e6e6e6;fill-opacity:1;stroke:url(#linearGradient3730)"
     id="path24" />
  <polygon
     points="2258.1 1407.3 2051.6 1407.3 1771.9 2134.6 1972.5 2134.6 2152.9 1632.1 2154.9 1632.1 2330.4 2134.6 2532 2134.6 2258.1 1407.3"
     style="fill:#e6e6e6;fill-opacity:1;stroke:url(#linearGradient3732)"
     id="polygon26" />
  <path
     d="M3195.6001,2134.6001H2960.2002l-178.5-279.7h-1.89991v279.7H2590.7002V1407.30005h282.60009c143.69995,0,252.69995,68.5,252.69995,223.80005,0,100.3-55.8999,187.1-159.19995,205.5Zm-415.7002-401.30005H2798.2c61.69995,0,131.19995-11.6,131.19995-90.69995s-69.5-90.7-131.19995-90.7H2779.8999Z"
     transform="translate(0 0)"
     style="fill:#e6e6e6;fill-opacity:1;stroke:url(#linearGradient3734)"
     id="path28" />
  <path
     d="M3839,1407.30005v409c0,93.6-3.8999,186.19995-76.2,256.6001-60.8,59.80005-156.3,81-241.19995,81s-180.3999-21.19995-241.2-81c-72.39991-70.4-76.19995-163-76.19995-256.6v-409h189.10009v383c0,94.5,6.8,197.69995,128.3,197.69995s128.3-103.19995,128.3-197.69995v-383L3839,1407.30005Z"
     transform="translate(0 0)"
     style="fill:#e6e6e6;fill-opacity:1;stroke:url(#linearGradient3736)"
     id="path30" />
</svg>
