<svg id="svg2" xmlns="http://www.w3.org/2000/svg" viewBox="0 0 3839 1467.80005"><rect x="1445.30005" y="496.79999" width="948.5" height="948.50006" style="fill:#fff"/><path d="M2416.30005,1467.80005h-993.5V474.2h993.5Zm-948.5-45.1001H2371.2002V519.3h-903.4l-.00012,903.4Z" transform="translate(0 0)"/><rect x="2393.80005" y="496.79999" width="1422.69995" height="948.50006" style="fill:#fff"/><path d="M3839,1467.80005H2371.2V474.2H3839Zm-1422.7-45.1001H3794V519.3h-1377.7Z" transform="translate(0 0)"/><rect x="22.6" y="22.6" width="474.20002" height="474.20002" style="fill:#5f9ed5"/><path d="M519.3,519.3H0V0H519.3ZM45.1,474.2H474.3V45.1H45.1Z" transform="translate(0 0)"/><rect x="2845.5" y="971.09998" width="45.1001" height="474.20007"/><rect x="2845.5" y="971.09998" width="45.1001" height="474.20007"/><polygon points="1445.3 971.1 971.1 971.1 971.1 1445.3 496.8 1445.3 496.8 496.8 1445.3 496.8 1445.3 971.1" style="fill:#fff"/><path d="M993.5,1467.80005H474.2V474.2H1467.7V993.5H993.5ZM519.3,1422.7H948.5V948.5H1422.7V519.3H519.3Z" transform="translate(0 0)"/><polyline points="22.6 496.8 496.8 496.8 496.8 1445.3 22.6 1445.3 22.6 496.8" style="fill:#6ab145"/><path d="M519.3,1467.80005H0V474.2H519.3ZM45.1,1422.7H474.3V519.3H45.1Z" transform="translate(0 0)"/><rect x="1761.40002" y="790.40002" width="316.09998" height="45.09998"/><rect x="1761.40002" y="1106.59998" width="632.40002" height="45.09998"/><rect x="3319.69995" y="971.09998" width="45.1001" height="474.20007"/><rect x="3319.69995" y="971.09998" width="45.1001" height="474.20007"/></svg>