<svg id="Layer_1" data-name="Layer 1" xmlns="http://www.w3.org/2000/svg" viewBox="0 0 3839 1187"><path d="M1675.80005,317.6V725.5a68.90314,68.90314,0,0,1-68.9,68.9h0a68.90314,68.90314,0,0,1-68.9-68.9V661.2a17.09231,17.09231,0,0,0-17.1-17.1h-72.19995a17.0923,17.0923,0,0,0-17.1,17.1V718a175.1492,175.1492,0,0,0,175.19995,175.2h0A175.14912,175.14912,0,0,0,1782,718V317.6a17.09235,17.09235,0,0,0-17.1-17.1h-72.19995A17.18186,17.18186,0,0,0,1675.80005,317.6Z" transform="translate(0 0)" style="fill:#fff"/><path d="M2150.3999,893.3H2221.7a17.10239,17.10239,0,0,0,16.69995-20.7l-123-558.6A17.12125,17.12125,0,0,0,2098.7,300.6H1926.2A17.20522,17.20522,0,0,0,1909.5,314l-123,558.6A17.10242,17.10242,0,0,0,1803.2,893.3H1874.5A17.20519,17.20519,0,0,0,1891.2,879.9l51.5-233.5H2082.3999l51.5,233.5A16.73743,16.73743,0,0,0,2150.3999,893.3ZM1964.5,547.6l48.1-218.2,48.1,218.2Z" transform="translate(0 0)" style="fill:#fff"/><path d="M3040.8999,382.3V317.6a17.09246,17.09246,0,0,0-17.1001-17.1h-336.5a17.09251,17.09251,0,0,0-17.10009,17.1V876.2a17.0924,17.0924,0,0,0,17.10009,17.1h336.5a17.09249,17.09249,0,0,0,17.1001-17.1V811.5a17.09242,17.09242,0,0,0-17.1001-17.1h-247.3V630.9h201.60009a17.09248,17.09248,0,0,0,17.1001-17.1V549.1a17.09241,17.09241,0,0,0-17.1001-17.1H2776.49976V399.4h247.3A17.15672,17.15672,0,0,0,3040.8999,382.3Z" transform="translate(0 0)" style="fill:#fff"/><path d="M2378.1001,794.5V317.6A17.09246,17.09246,0,0,0,2361,300.5h-72.2A17.09252,17.09252,0,0,0,2271.7,317.6V876.2a17.15669,17.15669,0,0,0,17.1001,17.1h336.5a17.09249,17.09249,0,0,0,17.1001-17.1V811.5a17.09242,17.09242,0,0,0-17.1001-17.1l-247.19995.1Z" transform="translate(0 0)" style="fill:#fff"/><path d="M3644.80005,293.9c-14.3999,0-194.19995,0-194.19995,227.2V666c0,227.2,179.8999,227.2,194.19995,227.2S3839,893.2,3839,666V521.2C3839,293.9,3659.1001,293.9,3644.80005,293.9ZM3730.2,646c0,157.8-80.30005,157.8-86.80005,157.8s-86.8,0-86.8-157.8V545.5c0-157.8,80.3-157.8,86.8-157.8S3730.2,387.7,3730.2,545.5Z" transform="translate(0 0)" style="fill:#fff"/><path d="M3092.6001,611.3c19.8999-.5,39.69995-2.2,59.5-3.9v-62c0-157.8,80.3-157.8,86.8-157.8,6,0,76,0,85.60009,127.2a17.09518,17.09518,0,0,0,17,15.7h75.80005a17.00752,17.00752,0,0,0,17-17.1c-4-219.5-180-219.5-194.10009-219.5-14.39991,0-194.2,0-194.2,227.2v88.1C3061.3999,610.4,3076.8999,611.7,3092.6001,611.3Z" transform="translate(0 0)" style="fill:#fff"/><path d="M3417.30005,656.6h-75.8a17.01886,17.01886,0,0,0-17,15.7c-9.7,127.1-79.7,127.2-85.6001,127.2-6.3999,0-86.8,0-86.8-157.8V545.4c0-157.8,80.3-157.8,86.8-157.8,6,0,76,0,85.6001,127.2a17.09518,17.09518,0,0,0,17,15.7h75.8a17.00752,17.00752,0,0,0,17-17.1c-4-219.5-180-219.5-194.1001-219.5-14.3999,0-194.2,0-194.2,227.2v144.8c0,227.2,179.8999,227.2,194.2,227.2,14.19995,0,190.19995,0,194.1001-219.5A17.11522,17.11522,0,0,0,3417.30005,656.6Z" transform="translate(0 0)" style="fill:#fff"/><ellipse cx="671.59998" cy="593.5" rx="671.59998" ry="593.5" style="fill:#356cb4"/><rect x="1062.66734" y="453.88415" width="131.49873" height="263.29742" transform="translate(-83.52865 969.40971) rotate(-45)" style="fill:#fff"/><rect x="879.89306" y="457.11288" width="131.49873" height="263.29748" transform="translate(-139.34508 841.11446) rotate(-45)" style="fill:#fff"/><rect x="697.18928" y="460.27108" width="131.49873" height="263.29745" transform="translate(-195.09095 712.84839) rotate(-45)" style="fill:#fff"/><rect x="514.46856" y="463.57068" width="131.49873" height="263.29748" transform="translate(-250.9418 584.61176) rotate(-45)" style="fill:#fff"/><rect x="331.6942" y="466.79945" width="131.49873" height="263.29745" transform="translate(-306.75824 456.31645) rotate(-45)" style="fill:#fff"/><rect x="148.99055" y="469.95764" width="131.49873" height="263.29745" transform="translate(-362.50407 328.05047) rotate(-45)" style="fill:#fff"/><rect x="879.89871" y="145.62883" width="131.49873" height="263.29745" transform="translate(80.90907 749.88688) rotate(-45)" style="fill:#fff"/><rect x="697.19515" y="148.78704" width="131.49873" height="263.29744" transform="translate(25.16325 621.62097) rotate(-45)" style="fill:#fff"/><rect x="514.4207" y="152.01581" width="131.49873" height="263.29745" transform="translate(-30.65324 493.32561) rotate(-45)" style="fill:#fff"/><rect x="331.64634" y="155.10331" width="131.49873" height="263.29745" transform="translate(-86.3698 364.98893) rotate(-45)" style="fill:#fff"/><rect x="879.94089" y="768.66776" width="131.49873" height="263.29745" transform="translate(-359.63363 932.40059) rotate(-45)" style="fill:#fff"/><rect x="697.16655" y="771.89662" width="131.49873" height="263.29739" transform="translate(-415.45012 804.10532) rotate(-45)" style="fill:#fff"/><rect x="514.46286" y="775.05473" width="131.49873" height="263.29739" transform="translate(-471.19591 675.83928) rotate(-45)" style="fill:#fff"/><rect x="331.68842" y="778.28357" width="131.49873" height="263.29745" transform="translate(-527.01246 547.54395) rotate(-45)" style="fill:#fff"/></svg>