<?xml version="1.0" encoding="UTF-8" standalone="no"?>
<svg
   version="1.0"
   width="1332.1569"
   height="656.54663"
   viewBox="0 0 1332.1569 656.54663"
   preserveAspectRatio="xMidYMid meet"
   id="svg53"
   sodipodi:docname="kids.svg"
   inkscape:version="1.1.2 (0a00cf5339, 2022-02-04, custom)"
   xmlns:inkscape="http://www.inkscape.org/namespaces/inkscape"
   xmlns:sodipodi="http://sodipodi.sourceforge.net/DTD/sodipodi-0.dtd"
   xmlns:xlink="http://www.w3.org/1999/xlink"
   xmlns="http://www.w3.org/2000/svg"
   xmlns:svg="http://www.w3.org/2000/svg">
  <sodipodi:namedview
     id="namedview55"
     pagecolor="#ffffff"
     bordercolor="#666666"
     borderopacity="1.0"
     inkscape:pageshadow="2"
     inkscape:pageopacity="0.0"
     inkscape:pagecheckerboard="0"
     showgrid="false"
     inkscape:zoom="0.76851186"
     inkscape:cx="665.57203"
     inkscape:cy="329.20767"
     inkscape:window-width="1920"
     inkscape:window-height="1017"
     inkscape:window-x="-8"
     inkscape:window-y="-8"
     inkscape:window-maximized="1"
     inkscape:current-layer="svg53" />
  <defs
     id="defs23">
    <linearGradient
       id="lg0"
       gradientUnits="userSpaceOnUse"
       x1="695"
       y1="77"
       x2="695"
       y2="638">
      <stop
         offset="0%"
         style="stop-color:rgb(0,0,0);"
         id="stop2" />
      <stop
         offset="1%"
         style="stop-color:rgb(254,205,47);"
         id="stop4" />
      <stop
         offset="12%"
         style="stop-color:rgb(254,231,64);"
         id="stop6" />
      <stop
         offset="31%"
         style="stop-color:rgb(254,225,58);"
         id="stop8" />
      <stop
         offset="44%"
         style="stop-color:rgb(254,198,47);"
         id="stop10" />
      <stop
         offset="50%"
         style="stop-color:rgb(254,177,37);"
         id="stop12" />
      <stop
         offset="75%"
         style="stop-color:rgb(254,163,28);"
         id="stop14" />
      <stop
         offset="82%"
         style="stop-color:rgb(254,167,29);"
         id="stop16" />
      <stop
         offset="97%"
         style="stop-color:rgb(254,144,17);"
         id="stop18" />
      <stop
         offset="100%"
         style="stop-color:rgb(252,138,27);"
         id="stop20" />
    </linearGradient>
    <linearGradient
       inkscape:collect="always"
       xlink:href="#lg0"
       id="linearGradient872"
       gradientUnits="userSpaceOnUse"
       x1="695"
       y1="77"
       x2="695"
       y2="638" />
    <linearGradient
       inkscape:collect="always"
       xlink:href="#lg0"
       id="linearGradient874"
       gradientUnits="userSpaceOnUse"
       x1="695"
       y1="77"
       x2="695"
       y2="638" />
    <linearGradient
       inkscape:collect="always"
       xlink:href="#lg0"
       id="linearGradient876"
       gradientUnits="userSpaceOnUse"
       x1="695"
       y1="77"
       x2="695"
       y2="638" />
    <linearGradient
       inkscape:collect="always"
       xlink:href="#lg0"
       id="linearGradient878"
       gradientUnits="userSpaceOnUse"
       x1="695"
       y1="77"
       x2="695"
       y2="638" />
    <linearGradient
       inkscape:collect="always"
       xlink:href="#lg0"
       id="linearGradient880"
       gradientUnits="userSpaceOnUse"
       x1="695"
       y1="77"
       x2="695"
       y2="638" />
    <linearGradient
       inkscape:collect="always"
       xlink:href="#lg0"
       id="linearGradient882"
       gradientUnits="userSpaceOnUse"
       x1="695"
       y1="77"
       x2="695"
       y2="638" />
    <linearGradient
       inkscape:collect="always"
       xlink:href="#lg0"
       id="linearGradient884"
       gradientUnits="userSpaceOnUse"
       x1="695"
       y1="77"
       x2="695"
       y2="638" />
    <linearGradient
       inkscape:collect="always"
       xlink:href="#lg0"
       id="linearGradient886"
       gradientUnits="userSpaceOnUse"
       x1="695"
       y1="77"
       x2="695"
       y2="638" />
    <linearGradient
       inkscape:collect="always"
       xlink:href="#lg0"
       id="linearGradient888"
       gradientUnits="userSpaceOnUse"
       x1="695"
       y1="77"
       x2="695"
       y2="638" />
  </defs>
  <g
     fill="#34139b"
     id="g29"
     transform="translate(-29.379995,-31.356584)">
    <path
       d="m 183,686.6 c -3,-0.7 -8.2,-2.6 -11.5,-4.3 -6.6,-3.4 -17.7,-12.1 -17,-13.3 0.3,-0.4 -0.2,-1.1 -1.1,-1.4 -0.8,-0.3 -1.2,-1 -0.9,-1.6 0.3,-0.5 0.2,-1 -0.3,-1 -0.8,0 -3.3,-4.7 -3.8,-7 0,-0.3 -0.8,-2.2 -1.8,-4.3 -1.7,-3.8 -4.3,-13.2 -5.1,-18.4 -0.3,-1.5 -1.4,-6.4 -2.5,-10.8 -3.1,-11.9 -7.2,-29.3 -8.4,-36 -0.3,-1.6 -1.5,-6.4 -2.6,-10.5 -3.3,-11.7 -3.7,-13.4 -7.5,-30.5 -2,-8.8 -4,-16.9 -4.5,-18 -0.7,-1.7 -4.8,-20.5 -6.4,-29.5 -0.3,-1.4 -1.4,-5.6 -2.6,-9.5 -2,-6.7 -3.2,-11.6 -4.4,-18 -0.8,-4.4 -7.3,-29.6 -8.4,-32.5 -0.5,-1.4 -1.3,-5.2 -1.7,-8.5 -0.9,-6.5 -0.9,-6.3 -1.8,-8.5 -0.3,-0.8 -0.8,-2.8 -1,-4.5 -0.2,-1.6 -0.7,-3.7 -1,-4.5 -1.3,-3.1 -5.2,-18.4 -9,-35 -1.5,-6.4 -6.4,-27 -15.7,-65.5 -2.7,-11 -7,-28.8 -9.6,-39.5 -2.5,-10.7 -6.4,-26.7 -8.6,-35.5 -2.2,-8.8 -5.1,-20.9 -6.4,-27 -1.3,-6 -3,-13.2 -3.9,-16 -2,-6.7 -5.5,-22.1 -6,-26.7 -0.5,-3.9 0.6,-10.5 2.6,-15.4 0.7,-1.6 1.2,-3.2 1.1,-3.6 -0.3,-1.3 3.9,-9.8 4.8,-9.8 0.6,0 1,-0.6 1,-1.3 0,-0.7 2.5,-3.7 5.5,-6.7 3,-3 5.5,-5.1 5.5,-4.7 0,0.4 1,-0.1 2.1,-1.2 2.1,-1.9 8,-5.1 10.3,-5.5 0.6,-0.1 2.5,-1 4.3,-1.9 1.8,-0.9 4.2,-1.7 5.4,-1.7 1.2,0 5.2,-0.9 8.8,-1.9 3.6,-1.1 14,-3.6 23.1,-5.6 19,-4.2 20.5,-4.6 32,-7.8 15.9,-4.5 20.3,-5.2 33.6,-5.2 11.2,0 13.5,0.3 15.1,1.7 1.1,1 2.7,1.8 3.6,1.8 1.8,0 10.6,4.5 12.2,6.2 0.7,0.8 0.6,0.9 -0.4,0.3 -1,-0.5 -1.2,-0.4 -0.7,0.4 0.4,0.6 1.1,0.9 1.6,0.6 1.3,-0.8 13,11.2 13,13.3 0,1.8 2.9,5.2 4.3,5.2 0.4,0 0.7,-1.3 0.7,-2.9 0,-1.6 0.6,-3.6 1.3,-4.3 0.8,-0.7 1.7,-2.5 2,-3.9 1.5,-6 8.3,-18.8 14.3,-27.1 7.3,-9.9 19.2,-18.3 30.8,-21.9 5,-1.5 23.8,-0.8 24.4,0.9 0.2,0.7 0.8,0.9 1.4,0.6 1.2,-0.8 9.8,2.5 9.8,3.7 0,0.6 0.4,0.8 0.8,0.5 0.8,-0.5 4.1,1 23.7,10.3 4.4,2.2 9.2,4.2 10.8,4.5 1.5,0.4 2.7,1.1 2.7,1.6 0,0.6 0.7,1 1.6,1 0.8,0 6.1,2 11.7,4.4 10.7,4.7 15.9,6.8 16.7,6.7 0.3,0 1.4,0.6 2.5,1.2 1.1,0.7 3.7,1.4 5.8,1.6 3,0.2 3.7,-0.1 3.7,-1.6 0.1,-2.5 2.9,-7.3 3.1,-5.3 0.2,1.2 1.4,-7.1 2.1,-14.2 0.1,-1 0.6,-1.8 1.1,-1.8 0.4,0 0.5,-0.5 0.2,-1 -0.3,-0.6 -0.2,-1 0.3,-1 0.6,0 1.2,-1 1.6,-2.3 0.3,-1.3 1.7,-4.1 3.2,-6.2 1.5,-2.2 2.7,-4.5 2.8,-5.2 0.1,-0.7 0.6,-1.6 1.1,-2 0.4,-0.5 0.4,-0.1 0,0.7 -0.8,1.3 -0.7,1.3 0.8,0.1 1,-0.8 1.5,-1.6 1.3,-1.9 C 399.9,60.6 412.5,51 414,51 c 0.6,0 2.3,-0.6 3.8,-1.4 2.8,-1.4 20.2,-5.1 38.2,-8.1 15.9,-2.6 32.6,-4.4 51,-5.5 9.6,-0.6 21.1,-1.7 25.5,-2.5 14.4,-2.6 31.6,-1.5 41.3,2.6 2.3,1 4.2,1.6 4.2,1.3 0,-0.3 0.6,0.1 1.4,0.8 0.8,0.7 3.2,2.4 5.2,3.8 4.7,3.2 10.4,9 10.4,10.7 0,0.7 0.5,1.3 1,1.3 0.6,0 1,0.7 1,1.5 0,0.8 0.4,1.5 0.8,1.5 0.4,0 0.8,1 0.9,2.2 0.1,1.1 0.8,2.5 1.5,2.9 0.7,0.5 1,0.9 0.5,0.9 -0.4,0 -0.1,1.3 0.8,2.9 0.8,1.6 1.7,4.4 1.9,6.3 0.3,1.8 0.9,4.7 1.4,6.4 0.5,1.7 1.3,6.8 1.6,11.5 0.4,4.6 1.1,9.5 1.6,10.9 0.5,1.4 1.4,10.5 1.9,20.3 0.9,16.3 2.1,26.1 5.3,46.2 0.6,3.9 1.2,8.6 1.5,10.5 0.2,1.9 1,7.6 1.8,12.5 2.7,17.1 4.9,37.9 5.9,55.5 0.5,8.9 1.6,17.3 5.2,38 0.8,4.7 1.4,10.6 1.4,13.2 0,2.6 0.7,7.3 1.5,10.5 0.8,3.1 1.5,9.3 1.5,13.8 0.1,9.3 1.5,26 2.9,34.2 1.8,9.9 4.2,26.4 5.1,34.3 0.5,4.1 1.3,10.9 1.9,15 0.6,4.1 1.6,12.9 2.2,19.5 0.7,6.6 1.3,12.5 1.3,13 0.2,1.1 0.9,1.5 2.8,1.5 0.6,0 0.9,-0.3 0.5,-0.6 -0.3,-0.3 -0.2,-1.1 0.3,-1.8 0.6,-0.6 2.1,-2.6 3.6,-4.4 3.8,-4.8 6.3,-12.2 7.4,-22 0.5,-4.8 1.3,-10 1.9,-11.7 0.5,-1.6 1.2,-7 1.5,-12 0.3,-4.9 1,-10.6 1.6,-12.5 0.6,-1.9 1.5,-8.9 2,-15.4 0.6,-6.6 1.3,-12.2 1.8,-12.5 0.4,-0.4 0.7,-1.5 0.7,-2.6 0,-2.8 1.3,-15.6 1.9,-18 2.8,-12.3 4.4,-20.1 5.2,-26 0.3,-2.2 1.1,-7.1 1.9,-11 1.6,-8.4 2.5,-15.9 3,-24 0.1,-3.3 0.6,-6.7 0.9,-7.7 1.1,-2.5 0.1,-15.1 -1.3,-15.6 -0.6,-0.2 -0.9,-0.8 -0.5,-1.3 0.3,-0.5 0,-0.9 -0.6,-0.9 -0.6,0 -0.8,-0.5 -0.4,-1.2 0.4,-0.6 0.3,-0.8 -0.4,-0.4 -0.6,0.3 -1.4,0 -1.9,-0.8 -1.1,-2 -11.9,-7.7 -12.8,-6.8 -0.4,0.4 -0.5,0.1 -0.3,-0.6 0.1,-0.7 -1.9,-2.5 -4.7,-4 -7.9,-4.3 -13.8,-10.9 -16.9,-18.8 -2.6,-6.7 -5.1,-16.5 -6.3,-24.9 -0.3,-2.2 -1,-5.1 -1.4,-6.4 -0.5,-1.3 -0.7,-2.6 -0.4,-2.9 0.2,-0.3 0.1,-1 -0.4,-1.6 -0.5,-0.6 -1.2,-3.3 -1.5,-6.1 -0.4,-2.7 -1.1,-7.7 -1.6,-10.9 -0.5,-3.2 -0.7,-6.2 -0.5,-6.7 0.3,-0.4 0.1,-1 -0.4,-1.3 -0.5,-0.3 -1.2,-3.4 -1.6,-6.8 -0.5,-3.5 -1,-7.4 -1.3,-8.8 -0.2,-1.4 -0.5,-3.7 -0.6,-5.2 0,-1.4 -0.5,-2.4 -1,-2 -0.5,0.3 -0.7,-0.2 -0.3,-1.1 0.3,-1 0.2,-1.7 -0.3,-1.7 -0.5,0 -0.7,-1.4 -0.5,-3 0.2,-1.7 -0.3,-5.7 -1.1,-8.8 -1.1,-3.9 -1.4,-8.6 -1.1,-15.2 0.3,-8.1 1,-10.8 4.1,-18.4 2,-5 4.9,-10.1 6.3,-11.5 1.4,-1.4 3.7,-4.1 5,-5.8 1.4,-1.8 2.9,-3.1 3.3,-2.8 0.4,0.3 1.1,-0.2 1.4,-1.1 0.4,-0.9 0.9,-1.4 1.3,-1.1 0.3,0.4 1.5,0.1 2.7,-0.5 1.1,-0.7 2.4,-1.1 2.9,-1 0.4,0.1 0.7,-0.3 0.7,-0.9 0,-0.6 0.7,-0.8 1.6,-0.5 0.8,0.3 1.2,0.2 0.9,-0.4 -0.3,-0.6 -0.1,-1 0.4,-1 0.6,0 1.3,0 1.6,0 0.3,0 2.4,-0.9 4.7,-1.9 3.9,-1.6 8.6,-2.7 17.3,-3.7 1.7,-0.2 9.5,-1.7 17.5,-3.3 17.9,-3.7 22.6,-4.4 37.5,-5.6 4.4,-0.4 9.1,-0.9 10.5,-1.3 3.8,-0.9 34.9,-1.2 32,-0.3 -1.6,0.5 0.8,0.9 7,0.9 10.3,0.2 24,1.1 28,1.9 1.4,0.3 4.1,0.7 6,1 22,2.8 39.8,6.2 49.5,9.5 1.7,0.5 4.8,1.4 7,1.9 2.2,0.5 5.4,1.6 7.2,2.4 1.7,0.8 3.9,1.5 5,1.5 1,0 3.1,0.7 4.7,1.5 1.5,0.8 3.3,1.5 4,1.5 0.6,0 2.8,0.9 4.9,2 2,1.1 3.7,1.7 3.7,1.4 0,-0.3 1.6,0.3 3.6,1.5 1.9,1.2 4,2.1 4.5,2.1 1,0 16.4,7.3 21.2,10 0.9,0.6 2.3,1.3 3.1,1.8 7.4,4.1 24.7,17.3 35.4,27 13.9,12.6 20.6,19.7 31.2,32.7 3.5,4.4 7,8.6 7.7,9.3 0.7,0.7 1.3,1.7 1.3,2.2 0,0.4 1,1 2.2,1.3 1.2,0.4 1.9,0.9 1.5,1.3 -0.9,1 5.5,6.5 7.3,6.1 0.8,-0.1 2.9,-2.2 4.8,-4.7 19,-25.5 25.7,-33.7 36.1,-44.3 5.3,-5.4 11.4,-11 13.6,-12.5 2.2,-1.5 4.9,-3.5 6,-4.5 1.1,-1 4.9,-3.8 8.5,-6.1 16.3,-10.8 20,-12.9 32,-17.8 16.4,-6.7 21.3,-7.9 41.5,-10.3 21.6,-2.7 34,-3.1 47.8,-1.5 9.2,1.1 25.8,5.9 29.2,8.4 1.1,0.9 2.8,1.6 3.7,1.6 2.5,0 20.8,8.9 20.8,10.1 0,0.6 0.4,0.7 1,0.4 1.4,-0.8 7,2.6 6.3,3.8 -0.3,0.6 -0.1,0.7 0.5,0.4 0.5,-0.4 3.4,1.2 6.2,3.5 2.9,2.4 6.3,4.9 7.6,5.6 4.2,2.3 26,24 31.7,31.5 6.3,8.2 17,25.6 17,27.4 0,0.7 0.4,1.3 0.9,1.3 0.5,0 0.6,0.5 0.3,1 -0.3,0.6 -0.1,1 0.6,1 0.7,0 1,0.2 0.7,0.5 -0.3,0.3 0.7,3.2 2.3,6.3 1.6,3.1 3.2,7.4 3.6,9.4 0.3,2.1 0.9,3.8 1.3,3.8 1.1,0 5,14.9 5,19.1 0,1.9 0.9,8.4 2,14.4 3.2,17.4 2.7,46.9 -1,63.5 -6.4,28.2 -12.4,49.1 -14.2,49.8 -0.4,0.2 -0.8,1.2 -0.8,2.3 0,1 -0.5,1.9 -1.1,1.9 -0.5,0 -0.7,0.4 -0.4,1 0.3,0.5 0.2,1 -0.4,1 -0.5,0 -1.3,1 -1.7,2.3 -0.4,1.2 -1,2.4 -1.3,2.7 -1,0.7 -5.6,7.4 -5.6,8.1 0,0.6 -2.7,3.7 -8.1,9.2 -4.9,5 -6.5,8.2 -6.2,12 0.1,2 0.6,3.3 1.2,3 0.5,-0.4 0.7,0.1 0.3,1 -0.4,1 -0.2,1.6 0.6,1.4 0.7,-0.1 1.1,0.6 1.1,1.6 -0.1,0.9 0.3,1.7 1,1.7 1.4,0 5.2,5.7 4.8,7.3 -0.2,0.7 -0.1,0.9 0.3,0.5 0.8,-0.8 5.5,4.4 5.5,6 0,0.5 0.7,1.2 1.5,1.6 0.8,0.3 1.5,1.2 1.5,2.1 0,0.8 0.5,1.5 1,1.5 0.6,0 1,0.6 1,1.4 0,0.8 0.4,1.6 0.9,1.8 1.2,0.4 14.1,25 16.4,31.3 2,5.3 7.5,24.6 8.1,28 0.1,1.1 1,4.5 1.8,7.5 2.4,8.2 3.1,25 1.4,29.1 -0.8,1.9 -1.7,7.2 -2,11.9 -0.9,12.7 -4,28.4 -6.4,32.5 -0.4,0.6 -0.8,1.8 -0.9,2.7 -0.2,1 -1.9,5.9 -4,11 -4.4,11.1 -12.6,25.6 -19.9,35.4 -7.1,9.4 -19.4,22.5 -20.5,21.8 -0.5,-0.3 -0.8,-0.1 -0.7,0.4 0.2,0.6 0,1.1 -0.4,1.2 -0.4,0.1 -2.8,2.2 -5.5,4.8 -6.6,6.5 -11.1,10.2 -12.2,10.2 -0.5,0 -1.1,0.4 -1.3,0.8 -0.9,2.3 -27.6,15.6 -33.9,16.9 -1.6,0.3 -2.9,0.9 -2.9,1.3 0,0.8 -9.2,3 -13,3 -1.6,0 -3.1,0.4 -3.4,0.9 -0.6,0.9 -9.8,2.1 -20,2.6 -2.8,0.1 -7.8,0.8 -11.1,1.5 -6.4,1.3 -17.2,0.9 -26.5,-1 -20.9,-4.4 -26.1,-5.7 -33.5,-9 -2.2,-0.9 -6.9,-3 -10.5,-4.5 -3.6,-1.6 -7.6,-3.6 -9,-4.4 -1.4,-0.9 -4.2,-2.5 -6.2,-3.5 -2.1,-1.1 -3.8,-2.2 -3.8,-2.6 0,-0.4 -1.2,-1.2 -2.6,-1.9 -9.5,-4.3 -39.6,-32.4 -49.1,-46 -2.6,-3.6 -5,-6.8 -5.3,-7.1 -0.3,-0.3 -1.1,-1.7 -1.8,-3.1 -0.8,-1.4 -2.7,-4.1 -4.3,-6 -1.6,-1.9 -2.9,-3.9 -2.9,-4.4 0,-0.6 -2.6,-3.9 -5.8,-7.3 -4.5,-4.9 -6,-6 -6.9,-5.1 -1,1 -1.4,0.9 -1.8,-0.4 -0.4,-0.9 -1.3,-1.3 -2,-1.1 -0.7,0.3 -1.6,0 -2,-0.6 -0.4,-0.6 -1.5,-0.8 -2.6,-0.5 -1,0.4 -1.9,0.2 -1.9,-0.4 0,-0.6 -0.7,-0.8 -1.5,-0.5 -0.8,0.4 -1.5,0.1 -1.5,-0.6 0,-0.6 -0.5,-0.8 -1,-0.5 -0.6,0.4 -1.7,0.1 -2.5,-0.5 -0.8,-0.7 -1.5,-0.9 -1.5,-0.5 0,0.4 -0.8,0.1 -1.7,-0.6 -1.3,-1.1 -1.5,-1.1 -0.9,-0.1 0.6,1 -0.2,1.2 -3.6,0.8 -2.3,-0.2 -5.3,-0.5 -6.6,-0.5 -1.3,-0.1 -2,-0.5 -1.7,-1.1 0.3,-0.6 -0.1,-1 -1,-1 -0.9,0 -1.3,0.5 -0.9,1.1 0.4,0.7 -0.2,1 -1.7,0.8 -1.3,-0.2 -3.4,0.2 -4.5,0.9 -1.2,0.6 -2.4,0.9 -2.7,0.6 -0.3,-0.3 -4.1,3.2 -8.5,7.8 -26.5,27.7 -33.5,34.5 -40.2,39.6 -4.1,3.1 -7.9,6 -8.5,6.4 -7,5.7 -12.9,9.7 -13.6,9.2 -0.5,-0.3 -0.9,-0.1 -0.9,0.5 0,0.6 -1.5,1.8 -3.2,2.7 -1.8,0.9 -3.6,2.1 -3.9,2.6 -0.3,0.5 -1,1 -1.5,1 -1.3,0.1 -4.4,1.5 -8.4,3.9 -1.9,1.2 -7.9,3.9 -13.3,6.1 -5.4,2.1 -10.6,4.3 -11.5,4.8 -3.8,2.2 -30.6,10.3 -39.2,11.9 -14.5,2.8 -25.1,5.3 -31.9,7.6 -4,1.3 -9.4,2.7 -12,3 -5.1,0.7 -42.6,-1.9 -49.3,-3.4 -2.4,-0.5 -8.1,-1.3 -12.8,-1.6 -4.7,-0.4 -10.7,-1.1 -13.5,-1.6 -2.7,-0.6 -9.9,-1.4 -15.9,-1.9 -12.6,-1.1 -19.7,-2.6 -39.1,-8.6 -22.9,-7 -29,-7.5 -49,-3.9 -4.4,0.8 -9.8,1.6 -12,1.9 -2.2,0.2 -4.7,0.7 -5.5,1 -1.6,0.6 -16.9,2.7 -37.3,5.2 -6.6,0.8 -12.2,1.6 -12.6,1.9 -0.4,0.2 -8.3,0.9 -17.5,1.5 -9.2,0.5 -18.8,1.5 -21.4,2.1 -7.4,1.7 -26.7,1.2 -28.1,-0.7 -0.3,-0.5 -2.1,-1 -3.9,-1.2 -4.8,-0.3 -11.2,-3.9 -15.5,-8.6 -7.5,-8.1 -8.7,-9.6 -8.7,-10.6 0,-0.5 -0.4,-1 -0.9,-1 -0.5,0 -1.5,-1.7 -2.2,-3.7 -0.6,-2.1 -1.4,-4.2 -1.8,-4.8 -0.3,-0.5 -0.6,-1.2 -0.7,-1.5 0,-0.3 -0.6,-2.4 -1.3,-4.8 -0.7,-2.4 -1.3,-5.8 -1.5,-7.6 -0.2,-1.8 -0.6,-3.8 -1,-4.5 -0.4,-0.6 -0.4,-1.1 0.1,-1.1 0.4,0 0.3,-0.4 -0.3,-0.8 -0.6,-0.4 -1.4,-3 -1.8,-5.9 -0.3,-2.8 -1.1,-6.4 -1.7,-7.9 -0.5,-1.6 -0.9,-4.2 -0.8,-5.9 0.2,-4.1 -0.9,-6.5 -3.3,-6.5 -1,0 -1.6,-0.5 -1.3,-1 0.4,-0.7 -1.8,-0.9 -6.3,-0.8 -3.9,0.2 -6.8,0.6 -6.5,1.1 0.2,0.4 -0.5,0.7 -1.6,0.7 -1.2,0 -4.1,0.5 -6.5,1.2 -3.7,1 -6.2,0.8 -16.3,-1.1 -6.5,-1.2 -17.9,-4.2 -25.3,-6.6 -7.4,-2.5 -14.4,-4.6 -15.5,-4.8 -2.3,-0.4 -5,-1.4 -8,-2.8 -1.1,-0.6 -3,-1.1 -4.3,-1.2 -1.2,0 -2.2,-0.4 -2.2,-0.8 0,-0.4 -1.2,-0.9 -2.7,-1.2 -15.1,-3 -17.7,-3.8 -22.5,-7.2 -2.7,-2 -5.2,-3.4 -5.5,-3.1 -0.3,0.2 0.7,2 2.1,3.9 1.5,2 2.9,4.8 3.2,6.3 0.8,4.3 4.1,17.9 6.8,27.9 1.3,5 2.6,10.4 2.9,12 1.2,7.6 7.1,34.5 8.4,38.5 3.1,9.1 -0.2,25.5 -6.5,31.7 -2,2.1 -3,3.3 -2.2,2.9 0.8,-0.5 -2.1,2.5 -6.4,6.6 -5.8,5.5 -8.6,7.4 -10.3,7.2 -1.3,-0.1 -2.1,0.1 -1.8,0.5 0.5,0.9 -5.9,4.1 -8.3,4.1 -1,0 -2.2,0.4 -2.7,0.8 -1.5,1.4 -14.6,5 -24,6.7 -7.1,1.4 -19.6,4.4 -32.5,7.9 -5.2,1.4 -10.9,2.6 -12.7,2.6 -1.7,0 -3.4,0.4 -3.7,0.8 -0.3,0.5 -2,0.9 -3.9,1 -1.9,0.1 -4.6,0.6 -6.1,1.2 -3.7,1.4 -22.7,1.1 -29.6,-0.4 z m 25.1,-48.5 c 7.6,-2.3 32.2,-8.3 43.4,-10.7 8.1,-1.7 20.4,-4.7 26.1,-6.5 3.2,-1 5.4,-4.3 5.4,-8.3 0,-1.2 -1.4,-7.4 -3,-13.7 -5,-19 -15.2,-60.7 -19.4,-79.4 -0.9,-3.8 -2.5,-10.8 -3.5,-15.5 -1.1,-4.7 -3.1,-13.5 -4.5,-19.6 -1.4,-6.1 -3.6,-14 -5,-17.4 -1.4,-3.5 -2.6,-7.8 -2.6,-9.7 0,-3.1 0.2,-3.3 3.3,-3.3 1.8,0 3.7,0.4 4.2,0.9 1.8,1.5 13.1,5.4 40,13.6 6.6,2 13.8,4.2 16,5 2.2,0.7 8.3,2.7 13.5,4.3 11.3,3.5 40.9,12.9 57,18.2 6.3,2 14.3,4.3 17.8,5 6.1,1.2 6.3,1.2 8.7,-1 3,-2.8 6.7,-12.2 13.4,-34 2.8,-9.1 6.9,-21.9 9.1,-28.4 4.6,-13.8 5,-17.7 1.8,-20.9 -2.2,-2.2 -14.1,-6.5 -39.3,-14.2 -6.6,-2 -22.8,-7.2 -36,-11.5 -13.2,-4.4 -31.4,-10.2 -40.5,-13.1 -33.2,-10.5 -37,-12.7 -37,-21.4 0,-5.9 3.1,-14.1 16.7,-45 6.3,-14.3 13.7,-31.1 16.4,-37.2 2.7,-6.2 7.1,-16.4 9.8,-22.5 2.7,-6.2 7.3,-16.7 10.1,-23.3 9,-20.9 19,-43.6 24.5,-56 9.3,-20.7 9.2,-21.2 -7.4,-29.1 -6.4,-3.1 -13.2,-6.2 -15.1,-6.9 -1.9,-0.7 -13.5,-5.8 -25.8,-11.4 C 294,119.5 282.9,115 281.6,115 c -3.7,0 -8.8,6.7 -12.6,16.7 -2.7,7.2 -12,29 -16,37.8 -0.5,1.1 -4.3,9.7 -8.4,19 -4.1,9.4 -9.7,22.2 -12.6,28.5 -2.8,6.3 -8.5,19.4 -12.6,29 -10.6,25 -10,24 -14.4,24 h -3.7 l -1.1,-8.5 c -0.6,-4.7 -2.7,-14.3 -4.6,-21.3 -4.2,-15.7 -9.7,-37.9 -14.2,-57.7 C 175.7,157.4 171,146 166.5,146 c -3.3,0 -20.5,3.5 -39.5,8.1 -9.1,2.2 -20.8,4.9 -26,6 -9.9,2.2 -19.5,6.2 -20.4,8.6 -0.3,0.7 0.2,4.6 1,8.6 2.5,11 22.1,93 28,116.7 2,8 4.6,19 5.9,24.5 1.3,5.5 4.1,17 6.4,25.6 2.3,8.6 4.5,17.6 5,20 0.5,2.4 4.7,19.7 9.4,38.4 12.3,48.9 23.1,92.8 34.2,139.5 3,12.9 7.8,32.7 10.5,44 2.7,11.3 6.1,25.8 7.5,32.3 2.8,13 4.2,16.5 8.1,19.6 3.3,2.6 3.6,2.6 11.5,0.2 z m 1010.6,-48.7 c 8.2,-1.7 26.8,-8.3 32.2,-11.6 2,-1.2 7.8,-5.3 12.8,-9.1 26.1,-19.5 41.5,-46.4 46.8,-81.7 3.3,-21.6 -4.2,-50.5 -19.1,-74.1 -14.6,-23.2 -30.1,-38.1 -63.4,-60.7 -37.3,-25.3 -63.2,-51.7 -75.5,-76.7 -6,-12.2 -7.3,-20.2 -5.7,-33.2 1.7,-13.4 6.8,-23.8 16.6,-33.9 8.3,-8.4 14.8,-11.4 24.7,-11.4 7.9,0 12.1,1.9 15.9,7.2 5.1,7 6,10.1 6,21.3 0,8.2 -0.7,12.9 -3.4,24.1 -1.9,7.6 -4,16.6 -4.6,19.9 l -1.2,5.9 3.4,3.2 c 3.1,2.8 14.6,7.4 18.4,7.4 0.8,0 14.3,3.2 30.1,7 17.8,4.4 30.3,7 32.8,6.8 3.6,-0.3 4.2,-0.7 6.1,-4.8 6,-12.8 13,-39.9 15.4,-59.9 1.1,-9.4 0,-26.4 -2.6,-38.8 -4.7,-23.1 -20.1,-49.2 -39.3,-67.1 -6.6,-6.2 -22.3,-16.5 -32.2,-21.1 -26.2,-12.3 -51.9,-13.7 -80.4,-4.4 -39,12.7 -75.8,48.7 -92.5,90.5 -8.4,21.1 -13.2,48.3 -11,62.3 3,19.7 8.1,35.7 16.5,52.5 12.9,25.7 27.6,45.3 52.9,70.5 18.8,18.8 32.5,30 58.6,48 31.5,21.8 38,29.9 38,47.5 0,14.1 -4.5,20 -15.1,20 -14.9,0 -25.6,-9.6 -38.9,-34.5 -5,-9.3 -13.5,-22.6 -17.6,-27.3 l -2.9,-3.4 -4.7,1.7 c -4.6,1.5 -28.7,14.5 -31.8,17 -0.8,0.7 -7.6,4.3 -15,8.1 -13.4,6.7 -24,14.9 -24,18.5 0,4 17,34.6 30,53.9 14.7,21.8 33.3,38.8 53.9,49 16.4,8.2 27.4,11.6 43.1,13.4 5.4,0.6 18.7,-0.4 26.7,-2 z M 788,586 c 4.5,-2.3 13.2,-4.5 24,-5.9 43.6,-6 84.6,-26.6 116.6,-58.6 26.4,-26.5 43.9,-55.3 58.6,-96.5 6.3,-17.8 14.1,-52 18.3,-80.4 2.2,-15.1 3.1,-56 1.6,-71.2 C 1000.7,210 973,160.6 923.5,124 902.5,108.4 878.8,98.1 844.7,89.4 823.9,84.2 809.6,82 787.5,80.8 c -27.7,-1.4 -54.3,0.7 -93,7.7 -11.3,2.1 -14.6,3.2 -17.9,6.1 l -2.8,2.5 1,8.2 c 0.6,4.5 2.5,15.9 4.2,25.2 1.6,9.4 3.7,21.5 4.4,27 2.4,17.2 3.7,23.1 5.7,26.4 3.3,5.5 4.9,5.7 22.3,2.2 17.7,-3.5 24.7,-3.9 27,-1.5 2,1.9 2,7.5 0.2,23.9 -1.5,13.3 -16,129.7 -17.6,141.5 -0.6,4.1 -1.8,13.4 -2.6,20.5 -0.8,7.2 -1.8,14.4 -2.3,16 -0.5,1.7 -1.2,6.8 -1.6,11.5 -0.3,4.7 -1.2,10.8 -2,13.5 -0.7,2.8 -1.6,8.6 -1.9,13 -0.4,4.4 -1.1,10 -1.6,12.5 -0.5,2.5 -1.4,7.9 -2,12 -1.3,9.1 -4.4,19 -7.1,22.4 -1.6,2.1 -2.9,2.6 -6.4,2.6 -5.5,0 -9.2,1.4 -12.7,4.7 -3.2,3.1 -4.5,6.8 -9.3,26.1 -1.9,7.9 -5.6,21.4 -8.1,30 -6.4,22.1 -6.8,24.6 -3.6,28.3 3.2,3.9 5.3,4.9 22.8,10.9 12.7,4.4 17.2,5.4 30.9,7.1 21.7,2.6 41,5 47,5.9 2.8,0.4 9.2,0.8 14.3,0.9 7.5,0.1 10,-0.3 13.2,-1.9 z m -270,-7.1 c 2.5,-0.5 8.3,-1.3 13,-1.9 4.7,-0.5 12.3,-1.4 16.9,-2 4.6,-0.6 15.2,-1.7 23.5,-2.5 29.1,-2.7 35.2,-4.3 38.7,-9.8 2.2,-3.7 2.2,-3.9 -1.6,-31.2 -1.2,-9.3 -3,-24.2 -4,-33 -2.7,-26.9 -5.6,-50.7 -7.9,-66 -0.8,-5.5 -2.2,-17.2 -3,-26 -2.3,-23 -4.5,-43.4 -6.2,-55.5 -2,-15 -4.3,-36.6 -5.4,-50.5 -0.5,-6.6 -2.7,-26.2 -4.9,-43.5 -2.2,-17.3 -4.7,-39.1 -5.6,-48.5 -0.8,-9.3 -2,-20.1 -2.6,-24 -4.7,-33.5 -8.9,-66.9 -8.9,-71.4 0,-8.6 -2.7,-22 -5.6,-27.9 l -2.7,-5.4 -7.6,0.5 c -4.2,0.3 -14.3,1.4 -22.6,2.6 -14.7,2 -35.2,4.2 -59,6.2 -14,1.2 -20.3,2.9 -24.5,6.9 -3.8,3.5 -3.8,3.5 0,30.2 1.7,11.7 3.9,31.2 5,43.3 1,12.1 2.4,25.2 3,29 4.4,29 6.3,44.8 8.5,67.5 2.1,22 3.1,30.5 7,56 1.9,12.4 3.7,25.4 4,29 0.4,3.6 1.1,8.8 1.6,11.6 0.5,2.7 1.4,10.4 1.9,17 0.5,6.5 1.8,18.9 2.9,27.4 1.1,8.5 2.6,21.1 3.5,28 0.8,6.9 2,15.4 2.6,19 0.6,3.6 1.5,11.9 2.1,18.5 1.4,18.7 2.7,30.8 4.8,45.5 3.3,23.3 4.1,30.1 5.1,42.8 0.9,12.6 2.3,16.4 6.8,19.2 1.8,1.1 13.4,0.6 21.2,-1.1 z m 526.4,-152.4 c 1.7,-1.4 5.1,-4.2 7.5,-6.2 2.4,-2.1 5.8,-4.6 7.5,-5.5 1.7,-0.9 2.8,-1.7 2.4,-1.8 -0.4,0 0.1,-1.5 1.2,-3.2 2.5,-4.1 2.5,-7.1 0,-12.7 -1.1,-2.3 -1.7,-4.8 -1.3,-5.4 0.3,-0.5 0.2,-0.7 -0.4,-0.4 -0.5,0.4 -1.6,-0.6 -2.4,-2.1 -0.8,-1.5 -3.1,-5.2 -5.3,-8.2 l -3.8,-5.5 0.7,6.5 c 0.9,7.9 0.8,11.1 -0.5,12.4 -0.6,0.6 -1,1.8 -1,2.8 0,0.9 -0.9,3.4 -2,5.3 -1.1,2 -2.2,4.4 -2.3,5.3 -0.5,2.9 -3.1,9.2 -3.7,9.2 -0.4,0 -0.7,0.6 -0.7,1.3 0,0.6 -0.3,3.3 -0.7,6 -0.8,5.5 0.1,5.9 4.8,2.2 z M 415.5,354.8 c -0.3,-0.7 -0.7,-6 -0.9,-11.8 -0.2,-5.8 -0.7,-11.8 -1,-13.5 -0.3,-1.6 -0.8,-6.8 -1.2,-11.5 -0.4,-4.7 -1.1,-9.3 -1.5,-10.2 -1.3,-2.5 -4.9,-31.3 -6.1,-48.3 -1,-14.8 -1.4,-19.1 -2.3,-27 -0.2,-2.2 -0.7,-6.6 -1,-9.7 -0.3,-3.2 -0.9,-6.8 -1.4,-8.1 -0.5,-1.3 -1.1,-5.1 -1.2,-8.3 -0.3,-6.8 -0.8,-9.4 -1.9,-9.4 -0.4,0 -1,0.6 -1.3,1.3 -5.3,12.3 -7.7,18.3 -8.2,20.7 -0.4,1.7 -1.1,3.2 -1.6,3.5 -0.5,0.4 -0.9,1.3 -0.9,2.1 0,1.7 -2.5,7.7 -10.4,24.7 -2,4.2 -3.6,8 -3.6,8.3 0,0.3 -0.7,2.2 -1.6,4.2 -0.9,2.1 -2.5,5.7 -3.6,8.2 -1.1,2.5 -2.8,6.3 -3.8,8.5 -1,2.2 -2.5,5.8 -3.5,8 -1.6,3.9 -6.1,13.7 -10,22 -1,2.2 -2,5.3 -2.2,6.9 -0.3,1.5 -0.9,4 -1.5,5.5 -1.7,4 -1.9,6.1 -0.7,6.1 0.7,0 0.9,1 0.7,2.5 -0.3,1.3 -0.2,2.2 0.2,2 0.4,-0.2 2.4,1.1 4.5,3 2.1,1.9 4.1,3.5 4.6,3.5 0.5,0 1.8,0.9 2.9,2 1.1,1.1 2,1.5 2,1 0,-0.7 0.6,-0.7 1.9,-0.1 4.3,2.4 38.6,11.8 45.9,12.7 2.5,0.3 5.3,0.9 6.1,1.4 2.2,1.3 3.1,1.2 2.6,-0.2 z"
       id="path25" />
    <path
       d="m 799,483.3 c 0,-2.1 0.7,-5.7 1.5,-8.1 0.9,-2.4 2,-8.7 2.5,-14 1.2,-12 3.5,-29.8 6,-46.2 1.1,-6.9 2.9,-19.5 4,-28 7.2,-54.1 13.3,-97.5 18,-127 1.2,-7.4 3,-19.1 4,-26 3.8,-25.1 5.3,-33.5 6.2,-35.2 0.6,-1.4 2.1,-1.8 6,-1.8 4.1,0 6.8,0.9 14.2,4.7 7.5,3.9 10.9,6.5 19.1,14.8 11,11 16.9,20.1 21.6,33.5 6,16.8 9.3,42.1 7.9,60.5 -2.4,33.1 -3.1,40.4 -4,45 -0.6,2.8 -1.9,10 -3,16 -5.1,28.2 -15,51.4 -31.5,73.6 -12.6,17 -30.9,29.4 -53.9,36.4 -4.5,1.4 -9.1,3.2 -10.2,4 -1,0.8 -3.4,1.5 -5.1,1.5 -3.1,0 -3.3,-0.2 -3.3,-3.7 z"
       id="path27" />
  </g>
  <g
     fill="#ffa71e"
     id="g39"
     transform="translate(-29.379995,-31.356584)">
    <path
       fill="url(#lg0)"
       d="m 193.6,640.9 c -3.9,-3.1 -5.3,-6.6 -8.1,-19.6 -1.4,-6.5 -4.8,-21 -7.5,-32.3 -2.7,-11.3 -7.5,-31.1 -10.5,-44 -11.1,-46.7 -21.9,-90.6 -34.2,-139.5 -4.7,-18.7 -8.9,-36 -9.4,-38.4 -0.5,-2.4 -2.7,-11.4 -5,-20 -2.3,-8.6 -5.1,-20.1 -6.4,-25.6 C 111.2,316 108.6,305 106.6,297 101.2,275.2 81.3,192.4 78.4,179.5 c -1,-4.4 -1.8,-9 -1.7,-10.3 0.2,-5.2 6.8,-8.9 21.3,-12 5.2,-1.2 16.9,-3.9 26,-6.1 26.9,-6.5 43.7,-9.5 46.6,-8.4 3.8,1.4 8.7,14.5 13.8,36.8 4.5,19.8 10,42 14.2,57.7 1.9,7 4,16.6 4.6,21.3 0.6,4.7 1.4,8.5 1.8,8.5 1,0 3,-4.2 11.4,-24 4.1,-9.6 9.8,-22.7 12.6,-29 2.9,-6.3 8.5,-19.1 12.6,-28.5 4.1,-9.3 7.9,-17.9 8.4,-19 4,-8.8 13.3,-30.6 16,-37.8 4.3,-11.3 8.5,-16.4 14.3,-17.2 3.8,-0.6 6.3,0.3 27.7,10 12.9,5.9 25.1,11.3 27,12 1.9,0.7 8.7,3.8 15.1,6.9 10.6,5.1 11.7,5.8 13.4,9.6 2.4,5.3 1.6,8.8 -5.9,25.5 -5.5,12.3 -15.3,34.6 -24.6,56 -2.8,6.6 -7.4,17.1 -10.1,23.2 -2.7,6.2 -7.1,16.4 -9.8,22.6 -2.7,6.1 -10.1,22.9 -16.4,37.2 -6.4,14.3 -12.8,29.7 -14.3,34.1 -2.7,7.9 -2.8,8.2 -1.1,10.8 2.9,4.3 6.7,6 30.1,13.6 12.2,3.9 32.9,10.7 46.1,15 13.2,4.3 29.4,9.5 36,11.5 36.7,11.3 39.1,12.3 41.1,17.2 2,4.7 1.4,9.1 -3.7,24.1 -2.1,6.4 -6.2,19.1 -9,28.2 -9.7,31.5 -12.4,36.5 -19.6,36.2 -5.5,-0.3 -15.3,-2.6 -27.3,-6.5 -14.4,-4.7 -44.5,-14.3 -56,-17.9 -5.2,-1.6 -11.3,-3.6 -13.5,-4.3 -2.2,-0.8 -9.4,-3 -16,-5 -26.9,-8.2 -38,-12 -40.2,-13.8 -1.7,-1.3 -1.7,-1 1.3,6.3 1.4,3.4 3.6,11.3 5,17.4 1.4,6.1 3.4,14.9 4.5,19.6 1,4.7 2.6,11.7 3.5,15.5 4.2,18.7 14.4,60.4 19.4,79.4 4.6,17.6 3.9,26.1 -2.4,28 -5.7,1.8 -18,4.8 -26.1,6.5 -11.2,2.4 -35.8,8.4 -43.4,10.7 -8.4,2.5 -14.1,2.5 -17.5,-0.2 z m 32.6,-241.6 c 5.6,-2.2 13.1,-7.6 14.6,-10.5 0.7,-1.3 2.1,-7.7 3.1,-14.3 2.4,-14.9 4.3,-21.7 6.9,-24.3 1.1,-1.1 3.8,-5.1 6,-8.8 2.2,-3.8 5.2,-8 6.7,-9.4 1.5,-1.4 4.9,-5.6 7.6,-9.5 2.7,-3.8 8.7,-11.2 13.3,-16.3 8.5,-9.4 12.8,-16 22.8,-35.2 5.7,-10.8 8.1,-16.1 19.8,-43 3.7,-8.5 11.4,-26.1 17.1,-39 8.3,-19 10.3,-24.4 10.4,-28.4 0,-6.9 -1.1,-7.8 -28.8,-22.3 -3.4,-1.8 -6.7,-3.3 -7.3,-3.3 -0.6,0 -2.2,-0.8 -3.5,-1.8 -4.4,-3.3 -28.4,-13.2 -32,-13.2 -0.4,0 -2.2,1.2 -4,2.7 -4,3.4 -8.1,11.9 -31.4,65.8 -2.4,5.5 -6.4,14.2 -8.9,19.3 -2.5,5.1 -4.6,9.5 -4.6,9.7 0,0.3 -2.3,5.2 -5.1,11.1 -6.3,13.5 -19.9,47.7 -19.9,50.4 0,1.7 -0.7,2 -4,2 -2.2,0 -4,-0.3 -4,-0.7 0,-2.2 -3.2,-20.2 -4,-22.8 -0.6,-1.6 -2.1,-7.9 -3.6,-14 -8.2,-35.3 -16.3,-66.1 -20.4,-77.5 -1.6,-4.7 -3,-8.5 -3,-8.6 0,-0.1 -1.8,-1.4 -4,-2.9 -3.6,-2.5 -4.6,-2.7 -9.8,-2.2 -3.1,0.4 -10.2,1.7 -15.7,3 -5.5,1.3 -14.5,3.2 -20,4.2 -21.5,3.8 -31.7,6.9 -35.5,11 l -2.3,2.5 5.1,21.2 c 2.9,11.7 7.9,32.3 11.1,45.8 3.3,13.5 8,33.1 10.6,43.5 2.5,10.5 5.7,22.6 7.2,26.9 3.1,9.4 7.9,19.6 9.4,19.6 1.9,0 14.4,11.4 33.4,30.3 24.4,24.4 31.9,30.1 48.4,37.3 8.6,3.8 12.2,4.1 18.3,1.7 z"
       id="path31"
       style="fill:url(#linearGradient872)" />
    <path
       fill="url(#lg0)"
       d="m 1189,594.4 c -16.1,-1.9 -26.7,-5.2 -43.1,-13.4 -15.5,-7.7 -27.8,-17.4 -40.7,-32 -15.5,-17.7 -42,-61.9 -43.9,-73.3 -0.5,-3.4 -0.2,-4 5.3,-9.5 4.6,-4.5 9,-7.4 19.9,-13.1 7.7,-3.9 17.8,-9.5 22.5,-12.3 15.1,-8.9 23.7,-12.9 29.3,-13.5 5.2,-0.5 5.3,-0.5 8.8,3.8 4.7,5.7 11.5,16.4 16.9,26.4 10,18.7 19.7,29.8 28.8,33 6.2,2.1 9,1.9 12.9,-0.7 6.3,-4.4 8.1,-14.9 4.2,-25.3 -3.5,-9.3 -12.4,-17.7 -35.9,-34 -26.1,-18 -39.8,-29.2 -58.6,-48 -41.9,-41.7 -62.3,-78.1 -69.5,-123.5 -1.9,-12 0.5,-33.7 5.7,-51.8 14.1,-49.1 52.6,-91.2 97.4,-106.3 36.2,-12.3 72.4,-7.3 104.9,14.6 14.3,9.5 24.3,19.5 34.1,34 14.5,21.6 20.5,39.8 22.5,68.6 1.4,20.4 -6.5,59.9 -15.9,79.9 l -2.1,4.5 -7.1,0.3 c -5.9,0.2 -11.5,-0.8 -35.7,-6.8 -15.8,-3.8 -29.3,-7 -30.1,-7 -3.6,0 -15.2,-4.6 -18.2,-7.2 -5.5,-4.8 -5.6,-3.1 2.2,-35.2 3.7,-15.3 4.4,-26 2,-31.7 -2.4,-5.8 -7.6,-12 -11.1,-13.5 -4.7,-1.9 -8.4,-1.8 -15.2,0.7 -4.5,1.7 -7.3,3.7 -12.9,9.3 -9.1,9.4 -14.8,20.4 -16.4,32.2 -1.5,10.5 -0.3,16.9 5.6,28.9 12,24.9 38.1,51.4 75.4,76.7 25.7,17.5 38.1,28 50.4,42.8 14.2,17 24.5,36.3 29.1,54.5 3.5,13.5 4.9,30.5 3.5,40.7 -5.2,36.9 -20.6,64.6 -47.3,84.5 -5,3.8 -10.8,7.9 -12.8,9.1 -5.3,3.2 -23.9,9.9 -32.2,11.6 -7.5,1.6 -26.6,2.7 -32.7,2 z m -68.2,-295.3 c 0.8,-0.4 2,-4 2.7,-7.9 1.4,-7 3.5,-12.4 6.1,-14.9 0.7,-0.8 3.4,-4 6,-7.3 2.6,-3.3 5.1,-6 5.5,-6 0.5,0 0.9,-2.4 0.9,-5.4 0,-24.9 14,-51.8 31.7,-60.6 3.8,-1.9 5.7,-2.1 14.6,-1.8 9.8,0.3 10.5,0.4 14.4,3.5 2.4,2 5,5.3 6.4,8.5 2.2,4.8 2.4,6.5 2.2,18.3 -0.1,7.2 -0.6,15.9 -1.1,19.4 l -0.9,6.3 3.5,1.5 c 2,0.8 5.1,2.7 7.1,4.1 3.3,2.6 4.2,2.7 19,3.3 8.6,0.4 18.5,1 21.9,1.4 l 6.4,0.8 12.9,-13.4 c 7.2,-7.4 14.2,-15.2 15.7,-17.4 1.5,-2.2 3.3,-4.6 4,-5.3 0.6,-0.7 1.2,-1.4 1.2,-1.5 2.6,-13.2 2.8,-16.2 1.6,-22.5 -3.6,-18.5 -11.1,-34.2 -25.1,-52.7 -17.3,-23 -44.8,-39.9 -74.5,-45.9 -4.1,-0.8 -8.8,-1.9 -10.3,-2.5 -9,-3.5 -38.8,2.8 -56.8,11.9 -18.8,9.5 -42.8,30.7 -54.8,48.5 -12.9,18.8 -21.5,37.6 -26,56.5 -2.3,9.7 -2.7,14.6 -1.6,24.5 0.6,5.1 1.4,7.5 3.1,9.1 1.2,1.3 4.8,7 8,12.8 6.2,11.2 7.7,12.5 16.3,14.7 2.7,0.6 6,2.6 9,5.3 6.3,5.9 12.1,9.4 21.1,12.7 8.7,3.2 8.1,3.1 9.8,2 z"
       id="path33"
       style="fill:url(#linearGradient874)" />
    <path
       fill="url(#lg0)"
       d="m 757.5,589.9 c -6.3,-0.9 -25.3,-3.2 -46.5,-5.8 -14.5,-1.8 -18.4,-2.7 -32.4,-7.5 -16.7,-5.7 -19.8,-7.4 -23.2,-12.4 -2.6,-3.8 -2.2,-6.4 4.8,-31 2.6,-9.5 6.4,-23.7 8.3,-31.5 4.8,-19.2 6.1,-22.9 9.3,-26 3.5,-3.3 7.2,-4.7 12.7,-4.7 3.5,0 4.8,-0.5 6.4,-2.6 2.7,-3.4 5.8,-13.3 7.1,-22.4 0.6,-4.1 1.5,-9.5 2,-12 0.5,-2.5 1.2,-8.1 1.6,-12.5 0.3,-4.4 1.2,-10.2 1.9,-13 0.8,-2.7 1.7,-8.8 2,-13.5 0.4,-4.7 1.1,-9.8 1.6,-11.5 0.5,-1.6 1.5,-8.8 2.3,-16 0.8,-7.1 2,-16.4 2.6,-20.5 0.5,-4.1 4.4,-34.7 8.6,-68 11.8,-94.7 11.5,-91.4 6.9,-92.6 -1.3,-0.3 -9.4,0.8 -18,2.5 -30.1,6 -30.3,5.7 -35,-27.9 -0.8,-5.8 -2.8,-18.1 -4.5,-27.5 -4.3,-23.6 -6,-36.7 -5,-38.5 2.8,-5.2 12.1,-9 26,-10.5 3,-0.4 10.5,-1.5 16.5,-2.6 6.1,-1 20.3,-2.6 31.5,-3.5 17.7,-1.5 23.6,-1.6 43.5,-0.6 24.8,1.3 37.4,3.1 59.2,8.6 34.1,8.7 57.8,19 78.8,34.6 49.5,36.6 77.4,86.4 83.6,149.5 1.6,16.6 0.7,62.5 -1.5,77 -4.6,30 -12.1,62.9 -18.4,80.5 -14.7,41.2 -32.2,70 -58.6,96.5 -32,32 -73,52.6 -116.6,58.6 -10.9,1.5 -19.5,3.6 -24.1,6 -3.6,1.8 -5.6,2 -16.2,1.7 -6.7,-0.1 -14.4,-0.5 -17.2,-0.9 z m -13,-57.3 c 6.6,-1.7 11.3,-4.2 15.3,-8 5.6,-5.2 6.1,-7.1 4.5,-14.9 -1.5,-7.3 -7,-24.7 -8.2,-26 -0.4,-0.4 -1.4,0.5 -2.2,2 -1.7,3.4 -6.9,10.4 -14.3,19.6 -5.7,6.9 -7.4,10 -10.1,17.6 -1.8,5.2 -1.4,5.8 5,9 4.8,2.4 3.9,2.4 10,0.7 z m 70.2,-54.1 c 15.7,-4.8 30.9,-13.2 42.6,-23.6 5.6,-4.9 15.6,-18 22,-28.9 12.4,-20.8 21.5,-51.2 24.7,-82 3.3,-33.1 3.8,-44.8 2.1,-58.9 -3.7,-31 -11.2,-48.2 -28.6,-65.6 -8.2,-8.3 -11.6,-10.9 -19.1,-14.8 -9.9,-5.1 -12.8,-5.7 -14.2,-2.9 -0.9,1.7 -2.4,10.1 -6.2,35.2 -1,6.9 -2.8,18.6 -4,26 -4.7,29.5 -10.8,72.9 -18,127 -1.1,8.5 -2.9,21.1 -4,28 -2.5,16.4 -4.8,34.2 -6,46.2 -0.5,5.3 -1.6,11.6 -2.5,14 -2,5.7 -1.9,6.2 0.7,4.3 1.3,-0.8 6,-2.7 10.5,-4 z M 776.9,321.4 c 3.9,-2.7 6.5,-5.6 10,-11.2 2.5,-4.1 7.5,-10.6 11.1,-14.2 3.6,-3.7 8.8,-10 11.5,-14.1 2.8,-4.1 7.3,-9.7 10.2,-12.4 5.9,-5.8 5.9,-5.7 11.8,-38.5 6.7,-37.6 6.5,-37 15.9,-37 3,0 6.6,1.2 11.7,3.8 15.1,7.6 28.6,19.7 37.2,33.4 3.4,5.3 8.7,15.9 8.7,17.3 0,0.4 0.6,2.1 1.4,3.8 0.7,1.8 2.1,5 3.1,7.2 1.9,4.3 5.2,8.5 6.8,8.5 2,0 21.3,12.9 25.4,17 2.3,2.2 6.8,6.2 9.9,8.9 5.5,4.7 5.9,4.9 8.4,3.6 3.4,-1.8 8.1,-7.1 11.6,-13.2 3.1,-5.4 10.4,-16.5 11.4,-17.3 0.3,-0.3 3.5,-4.1 7,-8.4 5.9,-7.3 6.4,-8.4 6.8,-13.6 0.7,-10.1 -7.4,-35.1 -17.6,-54 -8.9,-16.5 -14,-23 -31.6,-40.5 -18.1,-18 -22.5,-21.4 -40.3,-32 C 878.9,101.7 838.6,89.7 793,84.4 c -20.1,-2.3 -54.9,-1 -72.5,2.7 -2.7,0.5 -8.4,1.4 -12.5,1.9 -13.7,1.8 -24.8,5.8 -28.7,10.4 -2.1,2.5 -2.4,3.6 -1.8,6.5 0.3,2 1,6.8 1.5,10.6 0.4,3.9 1.5,10.4 2.3,14.5 0.8,4.1 2.5,13.4 3.7,20.5 3.3,19.1 5.7,27.2 9,29.5 5,3.5 7.4,4 13.1,2.4 3,-0.8 11.7,-1.7 19.4,-2.1 17.7,-0.7 17,-1.4 16.1,14 -0.3,6.1 -1,14.1 -1.5,17.7 -0.5,3.6 -1.5,10.3 -2.2,15 -0.7,4.7 -1.3,14.8 -1.4,22.5 -0.2,11.6 0,14.3 1.4,15.8 0.8,1 3.6,6.1 6.1,11.2 4.5,9.1 8.3,13.5 12.6,14.9 1.7,0.5 2.5,2.4 4.3,10.4 3.6,15.7 4.2,17.6 6.4,20 1.1,1.2 2.3,2.2 2.6,2.2 0.4,0 3,-1.6 6,-3.6 z"
       id="path35"
       style="fill:url(#linearGradient876)" />
    <path
       fill="url(#lg0)"
       d="m 494.4,583.1 c -4.9,-2.1 -6.5,-6.3 -7.4,-19.3 -1,-12.7 -1.8,-19.5 -5.1,-42.8 -2.1,-14.7 -3.4,-26.8 -4.8,-45.5 -0.6,-6.6 -1.5,-14.9 -2.1,-18.5 -0.6,-3.6 -1.8,-12.1 -2.6,-19 -0.9,-6.9 -2.4,-19.5 -3.5,-28 -1.1,-8.5 -2.4,-20.9 -2.9,-27.4 -0.5,-6.6 -1.4,-14.3 -1.9,-17 -0.5,-2.8 -1.2,-8 -1.6,-11.6 -0.3,-3.6 -2.1,-16.6 -4,-29 -3.9,-25.5 -4.9,-34 -7,-56 -2.2,-22.7 -4.1,-38.5 -8.5,-67.5 -0.6,-3.8 -2,-16.9 -3,-29 -1.1,-12.1 -3.3,-31.4 -4.9,-43 -4.8,-34.9 -4.8,-31.8 -0.7,-35.8 4.5,-4.6 10.5,-6.4 25.1,-7.6 26.8,-2.3 43.8,-4.1 58.5,-6.2 8.5,-1.2 20.3,-2.4 26.1,-2.6 l 10.6,-0.5 2.7,5.4 c 2.9,5.9 5.6,19.3 5.6,27.9 0,4.5 4.2,37.9 8.9,71.4 0.6,3.9 1.8,14.7 2.6,24 0.9,9.4 3.4,31.2 5.6,48.5 2.2,17.3 4.4,36.9 4.9,43.5 1.1,13.9 3.4,35.5 5.4,50.5 1.7,12.1 3.9,32.5 6.2,55.5 0.8,8.8 2.2,20.5 3,26 2.3,15.3 5.2,39.2 7.9,66 1,8.8 2.8,23.4 4.1,32.5 1.3,9.1 2.6,20.6 2.9,25.5 1.2,16.8 -1.7,18.4 -40.1,22 -8.3,0.8 -18.9,1.9 -23.5,2.5 -4.6,0.6 -12.2,1.5 -16.9,2 -4.7,0.6 -10.7,1.5 -13.3,2 -7,1.5 -23.9,2.2 -26.3,1.1 z m 37.1,-257 c 5.9,-2.7 10.4,-7.7 17.5,-19.1 3.5,-5.6 8.2,-12.5 10.6,-15.2 4,-4.7 7.7,-11.3 11.9,-21.2 3.9,-9.3 3.1,-19.8 -6.1,-83.6 -0.9,-6.3 -2.2,-16.9 -3,-23.5 -2.9,-25.9 -4.3,-37.1 -4.8,-38.5 -0.3,-0.8 -1.4,-6.7 -2.5,-13.1 -3.6,-21.3 -5.1,-23 -22.8,-24.8 -7.6,-0.8 -11.6,-0.7 -17.8,0.4 -4.4,0.8 -12,1.7 -17,2 -14.5,1 -37.7,3.5 -42,4.6 -6.7,1.8 -14.4,5.8 -16.2,8.5 -1.5,2.3 -1.5,3.6 -0.5,11.2 0.7,4.8 1.6,13.4 2.2,19.2 0.5,5.8 1.9,18.2 3,27.5 1.1,9.4 2.5,21.1 3,26 4.9,44.1 10.3,82.4 11.9,83.4 0.5,0.3 1.2,2.2 1.6,4.1 0.9,4.3 3.1,8 4.8,8 0.7,0 2.4,1.9 3.7,4.3 5.7,10.3 8.6,13.3 17.7,17.7 6.1,3.1 10.2,5.9 13.7,9.7 5.9,6.2 19.6,14.3 24.1,14.3 1.6,0 4.8,-0.9 7,-1.9 z"
       id="path37"
       style="fill:url(#linearGradient878)" />
  </g>
  <g
     fill="#ffe23b"
     id="g51"
     transform="translate(-29.379995,-31.356584)">
    <path
       fill="url(#lg0)"
       d="m 731.5,534.9 c -2.2,-1.1 -4.9,-2.8 -5.9,-3.9 -1.9,-1.9 -1.9,-2.1 -0.2,-7.7 2.9,-9.4 5.2,-13.7 11.1,-21 7.5,-9.1 12.7,-16.2 14.4,-19.5 0.8,-1.5 2.3,-3.7 3.4,-4.9 2.8,-2.9 3.8,-1.5 8.1,11.3 4.3,12.9 7.1,26.6 6.2,30.2 -0.9,3.7 -7.2,10.3 -12,12.8 -5.2,2.7 -13.1,4.8 -17.6,4.7 -1.9,0 -5.3,-0.9 -7.5,-2 z"
       id="path41"
       style="fill:url(#linearGradient880)" />
    <path
       fill="url(#lg0)"
       d="M 209.6,402.5 C 192.8,396.6 181.5,388.3 156.5,363.3 137.5,344.4 125,333 123.1,333 c -1.5,0 -6.3,-10.2 -9.4,-19.6 -1.5,-4.3 -5.1,-18.2 -8.2,-30.9 -3.1,-12.6 -7.9,-32.4 -10.6,-44 -2.8,-11.5 -7.3,-30 -10,-41 -2.7,-11 -4.9,-21.8 -4.9,-24.1 0,-8.2 7.5,-11.5 37.5,-16.9 5,-0.9 13.7,-2.7 19.5,-4.1 17.3,-3.9 25.4,-4.8 28.7,-3 5.8,3.1 7.3,5.2 10.3,13.6 4.1,11.4 12.2,42.2 20.4,77.5 1.5,6.1 3,12.4 3.6,14 0.8,2.6 4,20.6 4,22.8 0,0.4 0.5,0.7 1,0.7 0.6,0 1,-0.9 1,-2 0,-2.7 13.6,-36.9 19.9,-50.4 2.8,-5.9 5.1,-10.8 5.1,-11.1 0,-0.2 2.1,-4.6 4.6,-9.7 2.5,-5.1 6.5,-13.8 8.9,-19.3 27.7,-63.8 28.9,-66.2 36.1,-68.5 2.7,-0.9 4.5,-0.7 11.1,1.6 9.7,3.3 23,9.2 26.2,11.6 1.3,1 2.9,1.8 3.5,1.8 1,0 3.5,1.3 20.8,10.4 10.3,5.4 14.2,8.8 15.8,13.5 1.8,5.6 0.7,9.4 -11.2,36.6 -5.6,12.6 -13.1,30 -16.8,38.5 -11.7,26.9 -14.1,32.2 -19.8,43 -10,19.2 -14.3,25.8 -22.8,35.2 -4.6,5.1 -10.6,12.5 -13.3,16.3 -2.7,3.9 -6.1,8.1 -7.6,9.5 -1.5,1.4 -4.5,5.6 -6.7,9.4 -2.2,3.7 -4.9,7.7 -6,8.8 -2.6,2.6 -4.5,9.4 -6.9,24.3 -1,6.6 -2.4,13 -3.1,14.3 -1.5,2.9 -9,8.3 -14.8,10.6 -6.5,2.7 -12,2.7 -19.4,0.1 z"
       id="path43"
       style="fill:url(#linearGradient882)" />
    <path
       fill="url(#lg0)"
       d="m 518.8,330.6 c -6.8,-2.4 -17.5,-9.5 -21.9,-14.4 -3.1,-3.4 -7,-6.1 -13.2,-9.1 -9.1,-4.5 -12,-7.5 -17.7,-17.8 -1.3,-2.4 -3,-4.3 -3.7,-4.3 -1.8,0 -4,-3.8 -4.8,-8.2 -0.4,-2.1 -1.1,-3.5 -1.6,-3.2 -0.5,0.3 -0.9,0.1 -0.9,-0.3 0,-0.5 -1.1,-8.3 -2.5,-17.4 -3.5,-23 -5,-34.8 -8.5,-66.4 -2,-18.7 -5,-44.1 -5.5,-46.5 -0.2,-1.4 -0.7,-6.5 -1.1,-11.5 -0.3,-4.9 -1,-11.2 -1.5,-13.9 -1.4,-7.6 -1.1,-15.9 0.7,-18.4 2.8,-4.1 14.5,-8.5 25.4,-9.7 3.6,-0.4 7.4,-0.9 8.5,-1 6.4,-0.8 16.1,-1.6 23.5,-2 4.7,-0.3 12.9,-1.2 18.2,-2.1 8.2,-1.4 11.5,-1.4 21.3,-0.5 19.6,1.9 21,3.3 24.6,25 1.1,6.4 2.2,12.3 2.5,13.1 0.5,1.4 1.9,12.6 4.8,38.5 0.8,6.6 2.1,17.2 3,23.5 9.3,64.2 10.4,79.7 6.1,89.5 -4.4,10.4 -7.9,16.6 -11.9,21.3 -2.4,2.7 -7.2,9.6 -10.6,15.2 -7.6,12.2 -12.6,17.3 -19.7,20 -6.2,2.3 -8.4,2.4 -13.5,0.6 z"
       id="path45"
       style="fill:url(#linearGradient884)" />
    <path
       fill="url(#lg0)"
       d="m 766.2,326.5 c -3,-2.5 -3.3,-3.3 -7.3,-20.7 -1.2,-5.4 -2.6,-9.5 -3,-9.2 -0.5,0.3 -0.9,0 -0.9,-0.5 0,-0.6 -0.6,-1.1 -1.2,-1.1 -2.9,-0.1 -7.7,-6.1 -12.1,-15.1 -2.6,-5.3 -5.4,-10.2 -6.2,-10.9 -1.2,-1 -1.5,-3.5 -1.5,-10.4 -0.1,-17.8 0.1,-21.2 1,-26.6 0.5,-3 1.4,-9.5 2,-14.5 0.6,-4.9 1.6,-11.7 2.1,-15.1 1.4,-9.2 1.2,-15.9 -0.6,-17.4 -2,-1.7 -20.1,-0.7 -28.8,1.6 -7.5,1.9 -12.6,1.4 -17.6,-1.9 -3.3,-2.2 -4,-3.5 -5.8,-9.8 -1.1,-4.1 -3.1,-13.2 -4.3,-20.4 -1.2,-7.1 -2.9,-16.4 -3.7,-20.5 -1.6,-7.9 -3,-18.4 -4,-28.5 -0.5,-5.5 -0.3,-6.4 2,-9.1 3.9,-4.6 15,-8.6 28.7,-10.4 4.1,-0.5 9.8,-1.4 12.5,-1.9 9.1,-1.9 25.7,-3.3 45,-3.8 22.4,-0.6 38.3,0.9 66.5,6.4 39.4,7.5 70.6,20.1 98.5,39.6 9.3,6.5 39.5,37 45.2,45.7 12,18.2 18.9,33.7 25.1,56 4.8,17.1 3.9,22.8 -5.1,33.9 -3.4,4.2 -6.4,7.8 -6.7,8.1 -1,0.8 -8.3,11.9 -11.4,17.4 -4,6.9 -8.9,12 -13.6,14.1 l -4,1.8 -3.7,-2.6 c -2.1,-1.5 -7.2,-5.8 -11.3,-9.7 -6.8,-6.5 -26.3,-20 -28.7,-20 -1.5,0 -4.9,-4.1 -6.7,-8.2 -0.9,-2.1 -2.3,-5.3 -3.1,-7.2 -0.8,-1.9 -1.5,-3.7 -1.5,-4.1 0,-0.3 -1.1,-3.1 -2.5,-6.2 -6.3,-13.7 -16.8,-26.6 -29,-35.6 -10.2,-7.5 -21.6,-13.1 -25,-12.3 -4.3,1.1 -5.1,3.6 -11,36.6 -5.9,32.8 -5.9,32.7 -11.8,38.5 -2.9,2.7 -7.4,8.3 -10.2,12.4 -2.7,4.1 -7.9,10.4 -11.5,14.1 -3.6,3.6 -8.6,10.1 -11.2,14.3 -3.8,6.2 -5.9,8.4 -10.9,11.7 -3.4,2.2 -7,4 -8,4 -1,0 -3.1,-1.1 -4.7,-2.5 z"
       id="path47"
       style="fill:url(#linearGradient886)" />
    <path
       fill="url(#lg0)"
       d="m 1108,300.1 c -9,-3.3 -14.8,-6.8 -21.1,-12.7 -3,-2.7 -6.3,-4.7 -9,-5.3 -8.6,-2.2 -10.1,-3.5 -16.3,-14.7 -3.2,-5.8 -6.8,-11.5 -8,-12.8 -4.4,-4.3 -5.2,-24.7 -1.6,-39.5 9.3,-38.3 35.1,-75.5 66.5,-96.2 12.3,-8.2 16.2,-10.2 28.4,-14.6 17.3,-6.2 40.8,-9.3 48.8,-6.2 1.5,0.6 6.2,1.7 10.3,2.5 23.3,4.7 46.6,16.9 64,33.6 4.5,4.3 14.2,16.7 19.2,24.4 7.6,11.8 14.4,29 16.8,42.8 1.8,9.6 -0.4,24.6 -4.2,29 -0.5,0.6 -2,2.7 -3.4,4.6 -4,5.6 -25.6,28 -29.1,30.1 -1.9,1.2 -3.8,1.7 -4.5,1.2 -0.7,-0.4 -2,-0.8 -2.8,-1 -13.2,-1.8 -19,-2.3 -28.9,-2.3 -11.5,0 -11.9,-0.1 -15.9,-3 -2.2,-1.6 -5.7,-3.6 -7.8,-4.5 l -3.7,-1.5 0.7,-5.8 c 3.7,-30.2 2.2,-39.7 -7.1,-46.8 -3.2,-2.4 -4.9,-2.9 -11,-3.2 -8.3,-0.5 -12.8,1.3 -20.7,8 -12.9,11 -23.4,36.7 -22,53.6 0.4,3.9 0.1,5.4 -1,5.8 -0.8,0.3 -3.4,3.1 -5.9,6.2 -2.5,3.1 -5.4,6.8 -6.5,8.1 -3.2,3.5 -5.8,11.4 -6.1,18.3 -0.3,5.4 -6.9,6.1 -18.1,1.9 z"
       id="path49"
       style="fill:url(#linearGradient888)" />
  </g>
</svg>
