<?xml version="1.0" encoding="UTF-8" standalone="no"?>
<!-- Created with Inkscape (http://www.inkscape.org/) -->

<svg
   version="1.1"
   id="svg824"
   width="2941.269"
   height="616.0603"
   viewBox="0 0 2941.2691 616.0603"
   sodipodi:docname="test.svg"
   inkscape:version="1.1.2 (0a00cf5339, 2022-02-04, custom)"
   xmlns:inkscape="http://www.inkscape.org/namespaces/inkscape"
   xmlns:sodipodi="http://sodipodi.sourceforge.net/DTD/sodipodi-0.dtd"
   xmlns="http://www.w3.org/2000/svg"
   xmlns:svg="http://www.w3.org/2000/svg">
  <defs
     id="defs828" />
  <sodipodi:namedview
     id="namedview826"
     pagecolor="#ffffff"
     bordercolor="#666666"
     borderopacity="1.0"
     inkscape:pageshadow="2"
     inkscape:pageopacity="0.0"
     inkscape:pagecheckerboard="0"
     showgrid="false"
     inkscape:zoom="0.30087891"
     inkscape:cx="1454.0733"
     inkscape:cy="827.57544"
     inkscape:window-width="1920"
     inkscape:window-height="1017"
     inkscape:window-x="-8"
     inkscape:window-y="-8"
     inkscape:window-maximized="1"
     inkscape:current-layer="g830" />
  <g
     inkscape:groupmode="layer"
     inkscape:label="Image"
     id="g830"
     transform="translate(-252.52822,352.63621)">
    <g
       id="g988"
       transform="translate(29.912365,-528.45179)"
       style="fill:#f2f2f2">
      <path
         style="fill:#f2f2f2;fill-opacity:1;stroke-width:1.33333"
         d="m 1410,789.87135 c -54.4717,-9.6483 -96.467,-44.10315 -117.8182,-96.66357 -10.6514,-26.2207 -14.8002,-47.80272 -15.8031,-82.20779 l -0.7482,-25.66667 h 77.6639 77.664 l -0.7923,5 c -1.9592,12.3644 -2.4909,47.25492 -0.8733,57.30129 4.3147,26.79508 15.3347,38.86965 34.1001,37.36333 19.5206,-1.5669 33.9695,-17.98562 41.28,-46.90736 l 3.0562,-12.0906 68.8021,-0.34533 68.8021,-0.34533 v 2.85146 c 0,5.7385 -7.0004,33.84406 -12.1482,48.77352 -23.9104,69.34262 -70.427,105.35781 -146.7992,113.65847 -18.4508,2.00536 -63.3872,1.58096 -76.3859,-0.72142 z m -356,-0.53142 c -34.736,-2.21183 -58.84416,-9.65088 -92.254,-28.46687 -7.19364,-4.05136 -14.1927,-8.19347 -15.55349,-9.20467 -2.38488,-1.77224 -2.10693,-4.09622 7.70461,-64.42015 5.59831,-34.41987 10.48567,-63.98163 10.86079,-65.6928 0.63943,-2.91682 1.24148,-2.58359 9.63577,5.33333 16.33727,15.4082 43.26142,30.96041 66.85122,38.61525 16.481,5.34807 33.2947,6.54906 44.8346,3.2025 24.4826,-7.09995 35.7899,-19.42544 31.3662,-34.19059 -3.5814,-11.95373 -13.3498,-18.32548 -44.7474,-29.18793 -20.8733,-7.22145 -34.1863,-12.88479 -38.6983,-16.46221 -2.4399,-1.93455 7.1535,-2.11794 112.8243,-2.15674 l 115.491,-0.0424 2.131,7.66667 c 9.2338,33.22029 4.5725,75.932 -11.8604,108.67552 -30.5673,60.90741 -103.0432,92.41482 -198.5859,86.33109 z m 1584,0 c -28.3896,-1.80772 -48.8787,-6.91839 -72.492,-18.08199 -17.0294,-8.05092 -36.2222,-19.16355 -37.1147,-21.48939 -0.5723,-1.49129 19.2912,-129.23911 20.3411,-130.81873 0.1401,-0.21092 3.7661,2.99036 8.0578,7.11396 15.8451,15.22463 41.7482,30.29491 67.006,38.98378 13.169,4.53022 15.3168,4.88356 29.5351,4.85877 12.7701,-0.0223 16.6121,-0.53315 22.9835,-3.05616 17.549,-6.94933 25.5965,-15.49451 25.423,-26.99519 -0.2138,-14.17446 -9.7877,-21.68916 -42.2716,-33.17985 -24.1725,-8.55065 -39.9081,-15.32528 -42.3052,-18.21372 -1.2632,-1.52202 16.7935,-1.75548 113.6128,-1.46886 l 115.1148,0.34077 2.347,7.70912 c 6.0528,19.8821 5.732,51.59517 -0.7819,77.27328 -16.5447,65.22117 -70.3676,106.6511 -150.1224,115.55595 -17.7668,1.98371 -41.8709,2.58019 -59.3333,1.46826 z m -1975.95897,-5.4911 c -61.13492,-8.90494 -95.4225,-68.46666 -95.36278,-165.65678 0.007,-10.3723 0.38994,-22.00873 0.85238,-25.85873 l 0.8408,-7 h 77.68872 77.68871 l -0.73083,18.46128 c -1.43464,36.24004 5.98666,52.25441 24.17914,52.1761 21.8135,-0.0939 34.95526,-18.8692 48.27601,-68.97071 0.34761,-1.30746 16.06453,-1.66667 72.92406,-1.66667 h 72.48094 l -4.37867,27.66666 c -2.40825,15.21667 -9.01811,57.21667 -14.68855,93.33334 l -10.30988,65.66666 h -64.41721 c -60.47912,0 -64.41428,-0.14264 -64.36921,-2.33333 0.0264,-1.28334 1.49341,-8.92272 3.26003,-16.97643 l 3.21201,-14.64308 -9.59335,10.17379 c -16.54074,17.5415 -28.76389,25.46104 -47.75804,30.94302 -18.47084,5.33096 -50.56769,7.48543 -69.79428,4.68488 z m 2343.29227,-3.32008 c -14.3572,-1.74317 -30.2457,-4.93498 -39.4943,-7.93394 -53.1372,-17.23042 -86.6706,-57.31451 -99.277,-118.67053 -1.9836,-9.65384 -2.9316,-20.77818 -3.488,-40.9243 l -0.7639,-27.66666 h 86.5781 86.5782 l 1.6261,7.87284 c 2.2025,10.66327 9.5349,24.8749 16.5016,31.98292 11.6943,11.93168 23.5328,14.80542 51.0725,12.39749 8.0667,-0.70531 14.8499,-1.11768 15.0736,-0.91639 0.2239,0.2013 -4.0054,30.58284 -9.3985,67.51456 l -9.8056,67.14857 -8.7088,2.19286 c -18.8759,4.75289 -34.2987,6.6475 -57.8273,7.10377 -13.2,0.25597 -26.1,0.21044 -28.6667,-0.1012 z M 223.30306,768.99998 c 0.71003,-3.09956 30.03027,-181.75087 30.03027,-182.97753 0,-0.37902 37.8,-0.68913 84,-0.68913 h 84 l -0.0423,3.66667 c -0.0232,2.01666 -0.90422,9.96666 -1.95776,17.66666 -1.05353,7.7 -1.93452,15.35 -1.95776,17 l -0.0422,3 h 69.39375 69.39375 l -0.76509,4.33333 c -1.23832,7.01368 -19.35575,137.37193 -19.35575,139.26819 0,1.41037 -29.08357,1.73181 -156.69206,1.73181 H 222.61586 Z m 1415.36364,1.48411 c 0,-2.01943 26.4824,-178.30513 27.3634,-182.15077 l 0.6874,-3 h 77.3079 c 60.9211,0 77.3223,0.35328 77.3759,1.66667 0.037,0.91666 -6.1079,42.91666 -13.6561,93.33333 l -13.7243,91.66666 h -77.6771 c -57.1325,0 -77.6771,-0.40093 -77.6771,-1.51589 z m 263.9999,1.12693 c 0,-0.46924 22.2914,-140.94966 28.7651,-181.2777 l 0.8027,-5 h 81.8828 c 45.0356,0 81.8746,0.45 81.8645,1 -0.013,0.55 -1.4972,10.6 -3.3048,22.33333 -1.8077,11.73333 -3.2995,22.03567 -3.3151,22.89405 -0.093,5.14586 22.8443,2.49396 37.2074,-4.30153 11.7013,-5.53616 24.0372,-17.4746 33.4308,-32.35381 l 6,-9.5038 89,-0.0341 c 48.95,-0.0188 89,0.19048 89,0.46497 0,0.27451 -2.1055,5.72176 -4.6788,12.10501 -22.7616,56.45988 -55.3482,98.46157 -99.3212,128.0176 -24.3824,16.38835 -61.8118,31.59045 -93.4368,37.94981 -33.7635,6.78933 -38.5467,7.04504 -144.2299,7.71049 -54.8167,0.34516 -99.6667,0.34323 -99.6667,-0.004 z m 441.964,-3.94437 C 2345.5498,762.36613 2372,586.71083 2372,585.90679 c 0,-0.31542 35.1477,-0.57347 78.106,-0.57347 h 78.1058 l -0.759,3.66667 C 2526.695,592.661 2500,769.90551 2500,771.27634 c 0,0.398 -35.1272,0.72364 -78.0604,0.72364 h -78.0604 z M 2188.0144,538.33332 c 0.013,-0.91667 0.8848,-4.53519 1.9486,-8.04116 3.0124,-9.92809 8.2338,-36.91723 11.5352,-59.6255 2.3115,-15.89862 3.0128,-26.819 3.0404,-47.33334 0.037,-28.14912 -1.165,-37.03476 -7.172,-52.98728 -8.3888,-22.27789 -29.5849,-37.06242 -53.7717,-37.50634 l -9.4284,-0.17304 -8.1967,52.66666 c -4.5081,28.96667 -11.7078,75.31667 -15.9993,103 l -7.8027,50.33333 h -81.084 c -51.34,0 -81.0838,-0.47312 -81.0838,-1.28974 0,-0.70935 1.5384,-10.69091 3.4188,-22.18124 1.8802,-11.49032 2.9302,-21.379 2.3333,-21.97483 -2.1444,-2.14021 -17.1449,-5.22085 -25.4219,-5.22085 -10.8568,0 -26.3349,3.21018 -39.0085,8.09049 -20.6985,7.97041 -44.2777,25.76821 -49.7825,37.57617 l -2.331,5 h -77.7525 -77.7526 l 0.5176,-3 c 1.1816,-6.8489 27.1126,-182.57862 27.1126,-183.73729 0,-0.77941 28.0677,-1.2627 73.3333,-1.2627 67.9503,0 73.3334,0.16534 73.3334,2.25253 0,2.1118 -4.8387,34.38945 -5.8992,39.35216 -0.267,1.24925 0.2878,3.32896 1.233,4.62156 1.5582,2.13089 2.7462,1.26259 12.7314,-9.30567 22.4137,-23.72265 49.3981,-36.76056 95.229,-46.01148 l 18.6276,-3.75995 10.7039,-81.00011 10.7037,-81.00012 96.0019,0.52887 c 89.6532,0.49389 97.1557,0.71423 113.4476,3.33176 28.3365,4.55268 47.3588,10.06784 68.3823,19.82621 69.8114,32.40415 105.534,101.35787 105.4978,203.63884 -0.013,35.80708 -7.4304,108.39935 -13.4737,131.85873 l -1.2881,5 h -85.9486 c -67.8777,0 -85.9456,-0.35043 -85.9342,-1.66667 z M 571.99999,536.09328 c 0,-1.42697 2.64616,-11.8142 5.88036,-23.08271 19.47728,-67.86218 47.74275,-115.87009 84.78631,-144.00654 10.99911,-8.35437 32.21464,-18.76289 46,-22.56797 9.43281,-2.60368 13.90553,-2.94483 38.66667,-2.94923 26.07912,-0.004 28.8908,0.23595 40.98493,3.5068 22.4548,6.07291 40.83179,17.995 49.92547,32.38921 2.06594,3.27015 4.43002,5.94679 5.25352,5.9481 1.31672,0.003 3.72728,-10.55516 6.62108,-28.99762 l 0.88916,-5.66666 h 63.16291 c 59.79472,0 63.16292,0.1272 63.16292,2.38573 0,1.31215 -6.3,43.29628 -14,93.29808 -7.7,50.00178 -14,91.22821 -14,91.61426 0,0.38606 -33,0.70192 -73.33333,0.70192 h -73.33333 l -0.0217,-3.66666 c -0.0828,-13.99615 -2.79174,-34.18012 -5.40156,-40.24684 -5.5533,-12.90899 -16.08879,-18.22417 -29.03502,-14.64826 -4.57877,1.26472 -8.1333,3.6814 -13.54173,9.2069 -7.59904,7.76349 -12.20188,16.22722 -20.31475,37.35486 l -4.35192,11.33334 -79,0.3439 c -77.49661,0.33736 -79,0.29454 -79,-2.25061 z m 410.83257,-4.00313 c -5.3113,-12.3465 -7.30013,-23.78535 -7.31801,-42.09016 -0.0583,-59.60591 30.23235,-110.22831 81.22235,-135.74085 28.1875,-14.10344 72.2229,-22.12641 112.5964,-20.51432 22.623,0.90332 36.6814,3.34779 56.037,9.7437 14.4707,4.78175 42.2132,18.58832 44.438,22.11546 0.8398,1.3314 -1.5056,20.98916 -7.0626,59.19469 -4.576,31.46072 -8.5667,57.45232 -8.8684,57.75909 -0.3016,0.30677 -3.0974,-1.2664 -6.2129,-3.49593 -13.9251,-9.96535 -39.4606,-20.12547 -62.9977,-25.06568 -14.3442,-3.01071 -35.8201,-4.05832 -43.0176,-2.09843 -7.7004,2.09684 -14.6042,8.41264 -16.3719,14.97752 -3.7076,13.76883 7.5053,25.33631 34.7228,35.82099 24.5201,9.44556 37.0568,14.96568 46,20.25444 11.0277,6.5215 20.5417,13.31317 20.6147,14.71598 0.028,0.55 -54.1742,1 -120.4505,1 H 985.66171 Z m 299.83414,5.7596 c 0,-0.44931 2.0646,-8.99931 4.5881,-19 15.0858,-59.78551 38.6194,-104.42503 71.22,-135.09333 20.5132,-19.29731 39.89,-30.88418 66.2052,-39.58895 19.8143,-6.55434 35.8877,-9.33613 59.9867,-10.38169 62.1592,-2.69681 110.6325,15.16897 142.6913,52.59177 17.8868,20.8796 23.6373,31.66709 28.0415,52.60352 3.4012,16.16891 5.0729,47.52208 3.982,74.68558 l -1.0039,25 h -187.8555 c -103.3205,0 -187.8554,-0.36761 -187.8554,-0.8169 z m 242.4054,-65.51643 c -0.4353,-11.22296 -1.2253,-15.84993 -3.6401,-21.32218 -4.954,-11.22606 -15.6335,-18.97526 -26.19,-19.00371 -8.0192,-0.0216 -17.1567,4.36085 -24.5565,11.77776 -9.4443,9.46584 -15.1182,21.03116 -19.2387,39.2148 l -0.8309,3.66666 h 37.5062 37.5062 z m 854.9765,64 c 0.027,-1.28333 6.1866,-43.43333 13.6882,-93.66666 l 13.6393,-91.33334 77.6453,-0.34408 c 42.7048,-0.18924 77.6731,0.1108 77.7072,0.66667 0.033,0.55591 -6.116,42.86055 -13.6666,94.01031 l -13.7287,92.99955 -77.6667,4.4e-4 c -73.0981,4.2e-4 -77.6638,-0.13681 -77.618,-2.33289 z m 186.5906,-3.73084 c -5.7411,-13.39316 -7.1842,-21.88752 -7.2376,-42.60249 -0.071,-27.30876 4.8984,-49.27955 16.2834,-72 28.5488,-56.9732 93.186,-87.74005 176.9816,-84.24192 22.1716,0.92559 37.0808,3.38582 54.1203,8.93067 12.3749,4.02694 39.0191,16.50678 44.9019,21.03154 l 3.022,2.32447 -8.3502,58.31096 c -4.5926,32.07101 -8.7422,58.31094 -9.2214,58.31094 -0.4792,0 -4.0815,-2.16397 -8.0052,-4.80882 -23.6616,-15.94961 -58.704,-26.44512 -88.4674,-26.49675 -13.9502,-0.0241 -16.6998,0.34672 -21.4629,2.89543 -12.5457,6.71309 -14.732,20.3546 -4.9903,31.13756 6.3531,7.03201 14.9042,11.7137 37.2703,20.40529 21.9655,8.53588 35.1063,14.92228 47.3416,23.0078 16.3371,10.79601 26.6631,9.85949 -108.7095,9.85949 h -120.8773 z m 303.3544,0.39751 c 1.72,-10.89307 9.8828,-41.78328 14.7102,-55.66667 6.3571,-18.28241 17.109,-40.20893 27.4603,-56 10.0841,-15.38337 34.6883,-40.41797 49.1692,-50.02937 36.9633,-24.53371 82.6861,-37.10628 135.3333,-37.21318 19.065,-0.0387 24.5099,0.42061 34.2663,2.89065 12.3175,3.11845 30.8987,10.3817 32.9087,12.86376 1.0601,1.30917 -17.6344,119.05873 -19.1418,120.56606 -0.2898,0.28991 -3.416,-0.4106 -6.9468,-1.55668 -3.5308,-1.14608 -10.4697,-2.7688 -15.4197,-3.60605 -23.4541,-3.96705 -48.3173,8.14868 -63.9436,31.15936 -6.3917,9.41222 -14.8991,27.13976 -17.2596,35.96538 l -1.6832,6.2934 h -85.174 -85.174 z M 263.95661,532.33332 c -0.0239,-0.55 12.41201,-80.95 27.63529,-178.66666 L 319.2706,176 h 85.57321 c 80.81371,0 85.54337,0.12973 85.03689,2.33333 -0.29497,1.28333 -13.45705,78.53333 -29.24908,171.66666 -15.79202,93.13333 -29.33705,172.48333 -30.10006,176.33333 l -1.3873,7 h -82.57213 c -45.41467,0 -82.59165,-0.45 -82.61552,-1 z M 2414.1834,304.99999 c 0.3754,-2.38333 3.8211,-25.33333 7.6572,-51 l 6.9747,-46.66666 77.5924,-0.34408 c 76.0639,-0.3373 77.5923,-0.29304 77.5923,2.2467 0,2.22922 -11.9187,83.54458 -14.0366,95.76404 l -0.7509,4.33334 h -77.8557 -77.8559 z m 679.1499,-26.33333 v -17.33333 h -6.6667 c -5.7777,0 -6.6666,-0.35556 -6.6666,-2.66667 0,-2.52444 0.8889,-2.66667 16.6666,-2.66667 15.7778,0 16.6667,0.14223 16.6667,2.66667 0,2.31111 -0.8889,2.66667 -6.6667,2.66667 H 3100 v 17.33333 17.33333 h -3.3334 -3.3333 z m 24,-2.75115 v -20.08448 l 4.1507,0.41782 c 3.9517,0.39778 4.3666,1.02486 8.6581,13.08448 2.4791,6.96666 4.8783,13.56666 5.3315,14.66666 0.5074,1.2315 2.0424,-1.58633 3.9946,-7.33333 7.1188,-20.95604 6.9511,-20.66667 11.9754,-20.66667 H 3156 v 20 20 h -3.3334 -3.3333 l -0.116,-14.33333 -0.116,-14.33333 -4.8388,14.33333 c -4.4716,13.24524 -5.0988,14.33333 -8.2631,14.33333 -3.1642,0 -3.7914,-1.08809 -8.263,-14.33333 l -4.8388,-14.33333 -0.116,14.33333 c -0.108,13.40587 -0.2883,14.33333 -2.7824,14.33333 -2.5487,0 -2.6667,-0.88889 -2.6667,-20.08448 z"
         id="path992" />
      <path
         style="fill:#f2f2f2;fill-opacity:1;stroke-width:1.33333"
         d="m 1410,789.87135 c -54.4717,-9.6483 -96.467,-44.10315 -117.8182,-96.66357 -10.6514,-26.2207 -14.8002,-47.80272 -15.8031,-82.20779 l -0.7482,-25.66667 h 77.6639 77.664 l -0.7923,5 c -1.9592,12.3644 -2.4909,47.25492 -0.8733,57.30129 4.3147,26.79508 15.3347,38.86965 34.1001,37.36333 19.5206,-1.5669 33.9695,-17.98562 41.28,-46.90736 l 3.0562,-12.0906 68.8021,-0.34533 68.8021,-0.34533 v 2.85146 c 0,5.7385 -7.0004,33.84406 -12.1482,48.77352 -23.9104,69.34262 -70.427,105.35781 -146.7992,113.65847 -18.4508,2.00536 -63.3872,1.58096 -76.3859,-0.72142 z m -356,-0.53142 c -34.736,-2.21183 -58.84416,-9.65088 -92.254,-28.46687 -7.19364,-4.05136 -14.1927,-8.19347 -15.55349,-9.20467 -2.38488,-1.77224 -2.10693,-4.09622 7.70461,-64.42015 5.59831,-34.41987 10.48567,-63.98163 10.86079,-65.6928 0.63943,-2.91682 1.24148,-2.58359 9.63577,5.33333 16.33727,15.4082 43.26142,30.96041 66.85122,38.61525 16.481,5.34807 33.2947,6.54906 44.8346,3.2025 24.4826,-7.09995 35.7899,-19.42544 31.3662,-34.19059 -3.5814,-11.95373 -13.3498,-18.32548 -44.7474,-29.18793 -20.8733,-7.22145 -34.1863,-12.88479 -38.6983,-16.46221 -2.4399,-1.93455 7.1535,-2.11794 112.8243,-2.15674 l 115.491,-0.0424 2.131,7.66667 c 9.2338,33.22029 4.5725,75.932 -11.8604,108.67552 -30.5673,60.90741 -103.0432,92.41482 -198.5859,86.33109 z m 1584,0 c -28.3896,-1.80772 -48.8787,-6.91839 -72.492,-18.08199 -17.0294,-8.05092 -36.2222,-19.16355 -37.1147,-21.48939 -0.5723,-1.49129 19.2912,-129.23911 20.3411,-130.81873 0.1401,-0.21092 3.7661,2.99036 8.0578,7.11396 15.8451,15.22463 41.7482,30.29491 67.006,38.98378 13.169,4.53022 15.3168,4.88356 29.5351,4.85877 12.7701,-0.0223 16.6121,-0.53315 22.9835,-3.05616 17.549,-6.94933 25.5965,-15.49451 25.423,-26.99519 -0.2138,-14.17446 -9.7877,-21.68916 -42.2716,-33.17985 -24.1725,-8.55065 -39.9081,-15.32528 -42.3052,-18.21372 -1.2632,-1.52202 16.7935,-1.75548 113.6128,-1.46886 l 115.1148,0.34077 2.347,7.70912 c 6.0528,19.8821 5.732,51.59517 -0.7819,77.27328 -16.5447,65.22117 -70.3676,106.6511 -150.1224,115.55595 -17.7668,1.98371 -41.8709,2.58019 -59.3333,1.46826 z m -1975.95897,-5.4911 c -61.13492,-8.90494 -95.4225,-68.46666 -95.36278,-165.65678 0.007,-10.3723 0.38994,-22.00873 0.85238,-25.85873 l 0.8408,-7 h 77.68872 77.68871 l -0.73083,18.46128 c -1.43464,36.24004 5.98666,52.25441 24.17914,52.1761 21.8135,-0.0939 34.95526,-18.8692 48.27601,-68.97071 0.34761,-1.30746 16.06453,-1.66667 72.92406,-1.66667 h 72.48094 l -4.37867,27.66666 c -2.40825,15.21667 -9.01811,57.21667 -14.68855,93.33334 l -10.30988,65.66666 h -64.41721 c -60.47912,0 -64.41428,-0.14264 -64.36921,-2.33333 0.0264,-1.28334 1.49341,-8.92272 3.26003,-16.97643 l 3.21201,-14.64308 -9.59335,10.17379 c -16.54074,17.5415 -28.76389,25.46104 -47.75804,30.94302 -18.47084,5.33096 -50.56769,7.48543 -69.79428,4.68488 z m 2343.29227,-3.32008 c -14.3572,-1.74317 -30.2457,-4.93498 -39.4943,-7.93394 -53.1372,-17.23042 -86.6706,-57.31451 -99.277,-118.67053 -1.9836,-9.65384 -2.9316,-20.77818 -3.488,-40.9243 l -0.7639,-27.66666 h 86.5781 86.5782 l 1.6261,7.87284 c 2.2025,10.66327 9.5349,24.8749 16.5016,31.98292 11.6943,11.93168 23.5328,14.80542 51.0725,12.39749 8.0667,-0.70531 14.8499,-1.11768 15.0736,-0.91639 0.2239,0.2013 -4.0054,30.58284 -9.3985,67.51456 l -9.8056,67.14857 -8.7088,2.19286 c -18.8759,4.75289 -34.2987,6.6475 -57.8273,7.10377 -13.2,0.25597 -26.1,0.21044 -28.6667,-0.1012 z M 223.30306,768.99998 c 0.71003,-3.09956 30.03027,-181.75087 30.03027,-182.97753 0,-0.37902 37.8,-0.68913 84,-0.68913 h 84 l -0.0423,3.66667 c -0.0232,2.01666 -0.90422,9.96666 -1.95776,17.66666 -1.05353,7.7 -1.93452,15.35 -1.95776,17 l -0.0422,3 h 69.39375 69.39375 l -0.76509,4.33333 c -1.23832,7.01368 -19.35575,137.37193 -19.35575,139.26819 0,1.41037 -29.08357,1.73181 -156.69206,1.73181 H 222.61586 Z m 1415.36364,1.48411 c 0,-2.01943 26.4824,-178.30513 27.3634,-182.15077 l 0.6874,-3 h 77.3079 c 60.9211,0 77.3223,0.35328 77.3759,1.66667 0.037,0.91666 -6.1079,42.91666 -13.6561,93.33333 l -13.7243,91.66666 h -77.6771 c -57.1325,0 -77.6771,-0.40093 -77.6771,-1.51589 z m 263.9999,1.12693 c 0,-0.46924 22.2914,-140.94966 28.7651,-181.2777 l 0.8027,-5 h 81.8828 c 45.0356,0 81.8746,0.45 81.8645,1 -0.013,0.55 -1.4972,10.6 -3.3048,22.33333 -1.8077,11.73333 -3.2995,22.03567 -3.3151,22.89405 -0.093,5.14586 22.8443,2.49396 37.2074,-4.30153 11.7013,-5.53616 24.0372,-17.4746 33.4308,-32.35381 l 6,-9.5038 89,-0.0341 c 48.95,-0.0188 89,0.19048 89,0.46497 0,0.27451 -2.1055,5.72176 -4.6788,12.10501 -22.7616,56.45988 -55.3482,98.46157 -99.3212,128.0176 -24.3824,16.38835 -61.8118,31.59045 -93.4368,37.94981 -33.7635,6.78933 -38.5467,7.04504 -144.2299,7.71049 -54.8167,0.34516 -99.6667,0.34323 -99.6667,-0.004 z m 441.964,-3.94437 C 2345.5498,762.36613 2372,586.71083 2372,585.90679 c 0,-0.31542 35.1477,-0.57347 78.106,-0.57347 h 78.1058 l -0.759,3.66667 C 2526.695,592.661 2500,769.90551 2500,771.27634 c 0,0.398 -35.1272,0.72364 -78.0604,0.72364 h -78.0604 z M 2188.0144,538.33332 c 0.013,-0.91667 0.8848,-4.53519 1.9486,-8.04116 3.0124,-9.92809 8.2338,-36.91723 11.5352,-59.6255 2.3115,-15.89862 3.0128,-26.819 3.0404,-47.33334 0.037,-28.14912 -1.165,-37.03476 -7.172,-52.98728 -8.3888,-22.27789 -29.5849,-37.06242 -53.7717,-37.50634 l -9.4284,-0.17304 -8.1967,52.66666 c -4.5081,28.96667 -11.7078,75.31667 -15.9993,103 l -7.8027,50.33333 h -81.084 c -51.34,0 -81.0838,-0.47312 -81.0838,-1.28974 0,-0.70935 1.5384,-10.69091 3.4188,-22.18124 1.8802,-11.49032 2.9302,-21.379 2.3333,-21.97483 -2.1444,-2.14021 -17.1449,-5.22085 -25.4219,-5.22085 -10.8568,0 -26.3349,3.21018 -39.0085,8.09049 -20.6985,7.97041 -44.2777,25.76821 -49.7825,37.57617 l -2.331,5 h -77.7525 -77.7526 l 0.5176,-3 c 1.1816,-6.8489 27.1126,-182.57862 27.1126,-183.73729 0,-0.77941 28.0677,-1.2627 73.3333,-1.2627 67.9503,0 73.3334,0.16534 73.3334,2.25253 0,2.1118 -4.8387,34.38945 -5.8992,39.35216 -0.267,1.24925 0.2878,3.32896 1.233,4.62156 1.5582,2.13089 2.7462,1.26259 12.7314,-9.30567 22.4137,-23.72265 49.3981,-36.76056 95.229,-46.01148 l 18.6276,-3.75995 10.7039,-81.00011 10.7037,-81.00012 96.0019,0.52887 c 89.6532,0.49389 97.1557,0.71423 113.4476,3.33176 28.3365,4.55268 47.3588,10.06784 68.3823,19.82621 69.8114,32.40415 105.534,101.35787 105.4978,203.63884 -0.013,35.80708 -7.4304,108.39935 -13.4737,131.85873 l -1.2881,5 h -85.9486 c -67.8777,0 -85.9456,-0.35043 -85.9342,-1.66667 z M 571.99999,536.09328 c 0,-1.42697 2.64616,-11.8142 5.88036,-23.08271 19.47728,-67.86218 47.74275,-115.87009 84.78631,-144.00654 10.99911,-8.35437 32.21464,-18.76289 46,-22.56797 9.43281,-2.60368 13.90553,-2.94483 38.66667,-2.94923 26.07912,-0.004 28.8908,0.23595 40.98493,3.5068 22.4548,6.07291 40.83179,17.995 49.92547,32.38921 2.06594,3.27015 4.43002,5.94679 5.25352,5.9481 1.31672,0.003 3.72728,-10.55516 6.62108,-28.99762 l 0.88916,-5.66666 h 63.16291 c 59.79472,0 63.16292,0.1272 63.16292,2.38573 0,1.31215 -6.3,43.29628 -14,93.29808 -7.7,50.00178 -14,91.22821 -14,91.61426 0,0.38606 -33,0.70192 -73.33333,0.70192 h -73.33333 l -0.0217,-3.66666 c -0.0828,-13.99615 -2.79174,-34.18012 -5.40156,-40.24684 -5.5533,-12.90899 -16.08879,-18.22417 -29.03502,-14.64826 -4.57877,1.26472 -8.1333,3.6814 -13.54173,9.2069 -7.59904,7.76349 -12.20188,16.22722 -20.31475,37.35486 l -4.35192,11.33334 -79,0.3439 c -77.49661,0.33736 -79,0.29454 -79,-2.25061 z m 410.83257,-4.00313 c -5.3113,-12.3465 -7.30013,-23.78535 -7.31801,-42.09016 -0.0583,-59.60591 30.23235,-110.22831 81.22235,-135.74085 28.1875,-14.10344 72.2229,-22.12641 112.5964,-20.51432 22.623,0.90332 36.6814,3.34779 56.037,9.7437 14.4707,4.78175 42.2132,18.58832 44.438,22.11546 0.8398,1.3314 -1.5056,20.98916 -7.0626,59.19469 -4.576,31.46072 -8.5667,57.45232 -8.8684,57.75909 -0.3016,0.30677 -3.0974,-1.2664 -6.2129,-3.49593 -13.9251,-9.96535 -39.4606,-20.12547 -62.9977,-25.06568 -14.3442,-3.01071 -35.8201,-4.05832 -43.0176,-2.09843 -7.7004,2.09684 -14.6042,8.41264 -16.3719,14.97752 -3.7076,13.76883 7.5053,25.33631 34.7228,35.82099 24.5201,9.44556 37.0568,14.96568 46,20.25444 11.0277,6.5215 20.5417,13.31317 20.6147,14.71598 0.028,0.55 -54.1742,1 -120.4505,1 H 985.66171 Z m 299.83414,5.7596 c 0,-0.44931 2.0646,-8.99931 4.5881,-19 15.0858,-59.78551 38.6194,-104.42503 71.22,-135.09333 20.5132,-19.29731 39.89,-30.88418 66.2052,-39.58895 19.8143,-6.55434 35.8877,-9.33613 59.9867,-10.38169 62.1592,-2.69681 110.6325,15.16897 142.6913,52.59177 17.8868,20.8796 23.6373,31.66709 28.0415,52.60352 3.4012,16.16891 5.0729,47.52208 3.982,74.68558 l -1.0039,25 h -187.8555 c -103.3205,0 -187.8554,-0.36761 -187.8554,-0.8169 z m 242.4054,-65.51643 c -0.4353,-11.22296 -1.2253,-15.84993 -3.6401,-21.32218 -4.954,-11.22606 -15.6335,-18.97526 -26.19,-19.00371 -8.0192,-0.0216 -17.1567,4.36085 -24.5565,11.77776 -9.4443,9.46584 -15.1182,21.03116 -19.2387,39.2148 l -0.8309,3.66666 h 37.5062 37.5062 z m 854.9765,64 c 0.027,-1.28333 6.1866,-43.43333 13.6882,-93.66666 l 13.6393,-91.33334 77.6453,-0.34408 c 42.7048,-0.18924 77.6731,0.1108 77.7072,0.66667 0.033,0.55591 -6.116,42.86055 -13.6666,94.01031 l -13.7287,92.99955 -77.6667,4.4e-4 c -73.0981,4.2e-4 -77.6638,-0.13681 -77.618,-2.33289 z m 186.5906,-3.73084 c -5.7411,-13.39316 -7.1842,-21.88752 -7.2376,-42.60249 -0.071,-27.30876 4.8984,-49.27955 16.2834,-72 28.5488,-56.9732 93.186,-87.74005 176.9816,-84.24192 22.1716,0.92559 37.0808,3.38582 54.1203,8.93067 12.3749,4.02694 39.0191,16.50678 44.9019,21.03154 l 3.022,2.32447 -8.3502,58.31096 c -4.5926,32.07101 -8.7422,58.31094 -9.2214,58.31094 -0.4792,0 -4.0815,-2.16397 -8.0052,-4.80882 -23.6616,-15.94961 -58.704,-26.44512 -88.4674,-26.49675 -13.9502,-0.0241 -16.6998,0.34672 -21.4629,2.89543 -12.5457,6.71309 -14.732,20.3546 -4.9903,31.13756 6.3531,7.03201 14.9042,11.7137 37.2703,20.40529 21.9655,8.53588 35.1063,14.92228 47.3416,23.0078 16.3371,10.79601 26.6631,9.85949 -108.7095,9.85949 h -120.8773 z m 303.3544,0.39751 c 1.72,-10.89307 9.8828,-41.78328 14.7102,-55.66667 6.3571,-18.28241 17.109,-40.20893 27.4603,-56 10.0841,-15.38337 34.6883,-40.41797 49.1692,-50.02937 36.9633,-24.53371 82.6861,-37.10628 135.3333,-37.21318 19.065,-0.0387 24.5099,0.42061 34.2663,2.89065 12.3175,3.11845 30.8987,10.3817 32.9087,12.86376 1.0601,1.30917 -17.6344,119.05873 -19.1418,120.56606 -0.2898,0.28991 -3.416,-0.4106 -6.9468,-1.55668 -3.5308,-1.14608 -10.4697,-2.7688 -15.4197,-3.60605 -23.4541,-3.96705 -48.3173,8.14868 -63.9436,31.15936 -6.3917,9.41222 -14.8991,27.13976 -17.2596,35.96538 l -1.6832,6.2934 h -85.174 -85.174 z M 263.95661,532.33332 c -0.0239,-0.55 12.41201,-80.95 27.63529,-178.66666 L 319.2706,176 h 85.57321 c 80.81371,0 85.54337,0.12973 85.03689,2.33333 -0.29497,1.28333 -13.45705,78.53333 -29.24908,171.66666 -15.79202,93.13333 -29.33705,172.48333 -30.10006,176.33333 l -1.3873,7 h -82.57213 c -45.41467,0 -82.59165,-0.45 -82.61552,-1 z M 2414.1834,304.99999 c 0.3754,-2.38333 3.8211,-25.33333 7.6572,-51 l 6.9747,-46.66666 77.5924,-0.34408 c 76.0639,-0.3373 77.5923,-0.29304 77.5923,2.2467 0,2.22922 -11.9187,83.54458 -14.0366,95.76404 l -0.7509,4.33334 h -77.8557 -77.8559 z m 679.1499,-26.33333 v -17.33333 h -6.6667 c -5.7777,0 -6.6666,-0.35556 -6.6666,-2.66667 0,-2.52444 0.8889,-2.66667 16.6666,-2.66667 15.7778,0 16.6667,0.14223 16.6667,2.66667 0,2.31111 -0.8889,2.66667 -6.6667,2.66667 H 3100 v 17.33333 17.33333 h -3.3334 -3.3333 z m 24,-2.75115 v -20.08448 l 4.1507,0.41782 c 3.9517,0.39778 4.3666,1.02486 8.6581,13.08448 2.4791,6.96666 4.8783,13.56666 5.3315,14.66666 0.5074,1.2315 2.0424,-1.58633 3.9946,-7.33333 7.1188,-20.95604 6.9511,-20.66667 11.9754,-20.66667 H 3156 v 20 20 h -3.3334 -3.3333 l -0.116,-14.33333 -0.116,-14.33333 -4.8388,14.33333 c -4.4716,13.24524 -5.0988,14.33333 -8.2631,14.33333 -3.1642,0 -3.7914,-1.08809 -8.263,-14.33333 l -4.8388,-14.33333 -0.116,14.33333 c -0.108,13.40587 -0.2883,14.33333 -2.7824,14.33333 -2.5487,0 -2.6667,-0.88889 -2.6667,-20.08448 z"
         id="path990" />
    </g>
  </g>
</svg>
