<?xml version="1.0" encoding="UTF-8" standalone="no"?>
<svg
   height="167.29466"
   viewBox="0 0 593.18427 167.29466"
   width="593.18427"
   version="1.1"
   id="svg99"
   sodipodi:docname="megatech.svg"
   inkscape:version="1.1.2 (0a00cf5339, 2022-02-04, custom)"
   xmlns:inkscape="http://www.inkscape.org/namespaces/inkscape"
   xmlns:sodipodi="http://sodipodi.sourceforge.net/DTD/sodipodi-0.dtd"
   xmlns:xlink="http://www.w3.org/1999/xlink"
   xmlns="http://www.w3.org/2000/svg"
   xmlns:svg="http://www.w3.org/2000/svg">
  <defs
     id="defs103">
    <linearGradient
       inkscape:collect="always"
       xlink:href="#a"
       id="linearGradient920"
       gradientUnits="userSpaceOnUse"
       x1="360.46387"
       y1="-0.34570301"
       x2="360.46387"
       y2="164.28418" />
    <linearGradient
       inkscape:collect="always"
       xlink:href="#a"
       id="linearGradient922"
       gradientUnits="userSpaceOnUse"
       x1="360.46387"
       y1="-0.34570301"
       x2="360.46387"
       y2="164.28418" />
    <linearGradient
       inkscape:collect="always"
       xlink:href="#a"
       id="linearGradient924"
       gradientUnits="userSpaceOnUse"
       x1="360.46387"
       y1="-0.34570301"
       x2="360.46387"
       y2="164.28418" />
    <linearGradient
       inkscape:collect="always"
       xlink:href="#a"
       id="linearGradient926"
       gradientUnits="userSpaceOnUse"
       x1="360.46387"
       y1="-0.34570301"
       x2="360.46387"
       y2="164.28418" />
    <linearGradient
       inkscape:collect="always"
       xlink:href="#a"
       id="linearGradient928"
       gradientUnits="userSpaceOnUse"
       x1="360.46387"
       y1="-0.34570301"
       x2="360.46387"
       y2="164.28418" />
    <linearGradient
       inkscape:collect="always"
       xlink:href="#a"
       id="linearGradient930"
       gradientUnits="userSpaceOnUse"
       x1="360.46387"
       y1="-0.34570301"
       x2="360.46387"
       y2="164.28418" />
    <linearGradient
       inkscape:collect="always"
       xlink:href="#a"
       id="linearGradient932"
       gradientUnits="userSpaceOnUse"
       x1="360.46387"
       y1="-0.34570301"
       x2="360.46387"
       y2="164.28418" />
    <linearGradient
       inkscape:collect="always"
       xlink:href="#a"
       id="linearGradient934"
       gradientUnits="userSpaceOnUse"
       x1="360.46387"
       y1="-0.34570301"
       x2="360.46387"
       y2="164.28418" />
    <linearGradient
       inkscape:collect="always"
       xlink:href="#a"
       id="linearGradient936"
       gradientUnits="userSpaceOnUse"
       x1="360.46387"
       y1="-0.34570301"
       x2="360.46387"
       y2="164.28418" />
    <linearGradient
       inkscape:collect="always"
       xlink:href="#a"
       id="linearGradient938"
       gradientUnits="userSpaceOnUse"
       x1="360.46387"
       y1="-0.34570301"
       x2="360.46387"
       y2="164.28418" />
    <linearGradient
       inkscape:collect="always"
       xlink:href="#a"
       id="linearGradient940"
       gradientUnits="userSpaceOnUse"
       x1="360.46387"
       y1="-0.34570301"
       x2="360.46387"
       y2="164.28418" />
    <linearGradient
       inkscape:collect="always"
       xlink:href="#a"
       id="linearGradient942"
       gradientUnits="userSpaceOnUse"
       x1="360.46387"
       y1="-0.34570301"
       x2="360.46387"
       y2="164.28418" />
    <linearGradient
       inkscape:collect="always"
       xlink:href="#a"
       id="linearGradient944"
       gradientUnits="userSpaceOnUse"
       x1="360.46387"
       y1="-0.34570301"
       x2="360.46387"
       y2="164.28418" />
    <linearGradient
       inkscape:collect="always"
       xlink:href="#a"
       id="linearGradient946"
       gradientUnits="userSpaceOnUse"
       x1="360.46387"
       y1="-0.34570301"
       x2="360.46387"
       y2="164.28418" />
    <linearGradient
       inkscape:collect="always"
       xlink:href="#a"
       id="linearGradient948"
       gradientUnits="userSpaceOnUse"
       x1="360.46387"
       y1="-0.34570301"
       x2="360.46387"
       y2="164.28418" />
    <linearGradient
       inkscape:collect="always"
       xlink:href="#a"
       id="linearGradient950"
       gradientUnits="userSpaceOnUse"
       x1="360.46387"
       y1="-0.34570301"
       x2="360.46387"
       y2="164.28418" />
    <linearGradient
       inkscape:collect="always"
       xlink:href="#a"
       id="linearGradient952"
       gradientUnits="userSpaceOnUse"
       x1="360.46387"
       y1="-0.34570301"
       x2="360.46387"
       y2="164.28418" />
    <linearGradient
       inkscape:collect="always"
       xlink:href="#a"
       id="linearGradient954"
       gradientUnits="userSpaceOnUse"
       x1="360.46387"
       y1="-0.34570301"
       x2="360.46387"
       y2="164.28418" />
    <linearGradient
       inkscape:collect="always"
       xlink:href="#a"
       id="linearGradient956"
       gradientUnits="userSpaceOnUse"
       x1="360.46387"
       y1="-0.34570301"
       x2="360.46387"
       y2="164.28418" />
    <linearGradient
       inkscape:collect="always"
       xlink:href="#a"
       id="linearGradient958"
       gradientUnits="userSpaceOnUse"
       x1="360.46387"
       y1="-0.34570301"
       x2="360.46387"
       y2="164.28418" />
  </defs>
  <sodipodi:namedview
     id="namedview101"
     pagecolor="#ffffff"
     bordercolor="#666666"
     borderopacity="1.0"
     inkscape:pageshadow="2"
     inkscape:pageopacity="0.0"
     inkscape:pagecheckerboard="0"
     showgrid="false"
     inkscape:zoom="1.7816667"
     inkscape:cx="296.07109"
     inkscape:cy="83.62956"
     inkscape:window-width="1920"
     inkscape:window-height="1017"
     inkscape:window-x="-8"
     inkscape:window-y="-8"
     inkscape:window-maximized="1"
     inkscape:current-layer="svg99" />
  <linearGradient
     id="a"
     gradientUnits="userSpaceOnUse"
     x1="360.46387"
     x2="360.46387"
     y1="-0.34570301"
     y2="164.28418">
    <stop
       offset="0"
       stop-color="#8d82ce"
       id="stop2" />
    <stop
       offset=".04930225"
       stop-color="#8f83d0"
       id="stop4" />
    <stop
       offset=".3055557"
       stop-color="#fff"
       id="stop6" />
    <stop
       offset=".3232936"
       stop-color="#fff"
       id="stop8" />
    <stop
       offset=".36013636"
       stop-color="#fb9302"
       id="stop10" />
    <stop
       offset=".60351187"
       stop-color="#f3ee12"
       id="stop12" />
    <stop
       offset=".95469856"
       stop-color="#fff"
       id="stop14" />
    <stop
       offset="1"
       stop-color="#fff"
       id="stop16" />
  </linearGradient>
  <text
     fill="#ef00eb"
     font-family="TrasksHand"
     font-size="2px"
     stroke="#0105ff"
     stroke-width="2.5"
     x="317.80511"
     y="46.104134"
     id="text21"><tspan
       fill="#fafafa"
       fill-opacity="0.4"
       font-size="2px"
       stroke="none"
       stroke-width="2.5"
       x="317.80511"
       y="46.104134"
       id="tspan19">John Loreth 2022</tspan></text>
  <g
     stroke="#010315"
     stroke-width="2.5"
     id="g27"
     transform="translate(-4.0236757,-3.0951384)">
    <path
       d="m 453.34407,169.04059 c -3.07656,0 -4.61483,-1.1938 -4.61483,-3.58139 v -34.61996 c 0,-2.38758 1.53827,-3.58137 4.61483,-3.58137 h 17.48961 c 2.20486,0 4.10207,0.63669 5.69163,1.91007 l 17.96765,19.63787 18.91494,-19.63787 c 1.58956,-1.27338 3.48676,-1.91007 5.6916,-1.91007 h 15.77322 c 3.07656,0 4.61483,1.19379 4.61483,3.58137 v 34.61996 c 0,2.38759 -1.53827,3.58139 -4.61483,3.58139 h -8.98336 c -3.07656,0 -4.63021,-1.19385 -4.61483,-3.58139 v -17.42935 l -19.01328,19.19988 c -1.58954,1.27337 -3.48675,1.91007 -5.69161,1.91007 h -4.92249 c -2.20486,0 -4.10207,-0.6367 -5.69163,-1.91007 l -18.23287,-19.19988 v 17.42935 c 0,2.38759 -1.53827,3.58139 -4.61482,3.58139 z M 438.66496,157.1233 q 3.77713,0 3.77713,3.54218 v 4.60484 q 0,3.54218 -3.77713,3.54218 h -52.25038 q -3.77714,0 -3.77714,-3.54218 v -34.2411 q 0,-3.54218 3.77714,-3.54218 h 51.62086 q 3.77714,0 3.77714,3.54218 v 4.60484 q 0,3.54218 -3.77714,3.54218 h -37.77137 v 4.01448 h 35.88281 q 3.14761,0 3.14761,2.95181 v 3.54219 q 0,2.95182 -3.14761,2.95182 h -35.88281 v 4.48676 z m -69.53274,-29.63626 q 3.98864,0 3.98864,3.54218 v 6.49401 q 0,3.54218 -3.98864,3.54218 h -19.94315 v 24.20491 q 0,3.54219 -3.98862,3.54219 H 334.5641 q -3.98863,0 -3.98863,-3.54219 v -24.20491 h -19.94315 q -3.98862,0 -3.98862,-3.54218 v -6.49401 q 0,-3.54218 3.98862,-3.54218 z m -133.76601,31.52543 v -0.82651 q 0,-3.18796 3.43869,-3.18796 h 11.46231 q 2.29247,0 2.29247,2.1253 v 0.11808 q 0,0.88554 0.38208,1.23976 0.44575,0.29518 1.65567,0.29518 h 27.76426 q 1.20992,0 1.59199,-0.35422 0.44576,-0.41325 0.44576,-1.53495 v -1.18072 q 0,-1.12169 -0.44576,-1.47591 -0.38207,-0.35422 -1.59199,-0.41325 l -35.78789,-1.2988 q -5.54012,-0.17711 -8.0873,-2.4205 -2.48349,-2.30241 -2.48349,-7.37953 v -5.43135 q 0,-5.13617 2.54718,-7.43859 2.54718,-2.36145 8.02361,-2.36145 h 44.19359 q 5.47643,0 8.02361,2.36145 2.54719,2.30242 2.54719,7.43859 v 0.35421 q 0,3.18797 -3.43869,3.18797 h -11.8444 q -1.91038,0 -1.91038,-1.77109 v -0.11807 q 0,-0.76748 -0.44576,-1.06266 -0.44575,-0.35422 -1.59199,-0.35422 h -26.23595 q -1.20992,0 -1.65567,0.41326 -0.38208,0.35422 -0.38208,1.4759 v 0.70844 q 0,1.1217 0.38208,1.47591 0.44575,0.35422 1.65567,0.41326 l 35.78788,1.29879 q 5.54012,0.17712 8.02362,2.47953 2.54718,2.24338 2.54718,7.32051 v 5.90364 q 0,5.13616 -2.54718,7.49762 -2.54718,2.30241 -8.02362,2.30241 h -45.72189 q -5.47643,0 -8.02362,-2.30241 -2.54718,-2.36146 -2.54718,-7.49762 z m -12.78026,-31.52543 q 2.65909,0 3.25737,1.35784 0.66478,1.35783 -1.19658,3.01085 l -23.73235,22.07961 v 11.33498 q 0,3.54219 -3.98863,3.54219 h -10.63634 q -3.98863,0 -3.98863,-3.54219 v -11.33498 l -23.73234,-22.07961 q -1.86137,-1.65302 -1.26308,-3.01085 0.66478,-1.35784 3.32386,-1.35784 h 14.22611 q 2.925,0 4.91932,1.9482 l 12.29827,12.10246 12.29828,-12.10246 q 1.99431,-1.9482 4.9193,-1.9482 z M 81.366146,159.01247 v -0.82651 q 0,-3.18796 3.589766,-3.18796 h 11.965889 q 2.393178,0 2.393178,2.12531 v 0.11807 q 0,0.88554 0.398862,1.23976 0.465339,0.29518 1.728409,0.29518 h 28.98404 q 1.26306,0 1.66193,-0.35422 0.46534,-0.41325 0.46534,-1.53494 v -1.18072 q 0,-1.12169 -0.46534,-1.47591 -0.39887,-0.35422 -1.66193,-0.41326 l -37.360164,-1.2988 q -5.783513,-0.17711 -8.4426,-2.42049 -2.592608,-2.30242 -2.592608,-7.37955 v -5.43135 q 0,-5.13617 2.659086,-7.43859 2.659086,-2.36145 8.376122,-2.36145 h 46.135154 q 5.71703,0 8.37611,2.36145 2.6591,2.30242 2.6591,7.43859 v 0.35422 q 0,3.18796 -3.58978,3.18796 h -12.36475 q -1.99431,0 -1.99431,-1.77109 v -0.11807 q 0,-0.76747 -0.46535,-1.06266 -0.46533,-0.35421 -1.66192,-0.35421 h -27.38859 q -1.26307,0 -1.72841,0.41325 -0.39886,0.35422 -0.39886,1.47591 v 0.70844 q 0,1.12169 0.39886,1.47591 0.46534,0.35422 1.72841,0.41325 l 37.36016,1.2988 q 5.78352,0.17711 8.37613,2.47953 2.65909,2.24339 2.65909,7.32052 v 5.90363 q 0,5.13616 -2.65909,7.49762 -2.65908,2.30242 -8.37613,2.30242 H 92.401354 q -5.717035,0 -8.376122,-2.30242 -2.659086,-2.36146 -2.659086,-7.49762 z"
       id="path23" />
    <path
       d="M 576.49342,9.9917574 575.63082,47.401639 555.51133,47.04061 555.64532,9.9917574 H 534.9211 c 0,0 0.0738,67.1393876 -0.0367,100.9172126 h 21.79064 l 0.13634,-38.130997 18.09212,0.02645 v 38.104547 c 0,0 20.98781,0.0361 21.05443,0 0,0 -0.636,-70.366677 -0.43008,-100.9172145 z m -88.94546,3.0981876 -16.30826,24.133756 0.20793,73.685799 h 59.53776 l 0.11908,-19.469582 -39.76985,-0.501195 V 48.138106 L 497.74391,35.426461 530.14704,35.31 530.37526,13.221988 Z m -51.33968,-0.202253 c -10.61362,0 -12.7991,-0.151055 -16.86544,6.548529 l -11.46739,19.746755 c 0,0 -0.34864,47.562091 -0.34864,71.726524 h 60.67598 L 467.7185,91.795434 428.26172,91.589185 c 0.13527,-4.279008 -0.0835,-14.136273 -0.0835,-14.136273 -0.22244,-3.395519 0.90102,-3.328369 3.84047,-3.461634 l 27.10197,-0.356259 7.97128,-22.520623 -40.62672,0.318412 7.93803,-16.136904 31.98561,-0.107333 -0.18099,-22.000618 z m -97.51321,24.899205 20.07099,0.05077 0.17201,73.372403 23.22817,-0.30485 0.19108,-73.012303 22.84968,-0.196719 -0.50533,-25.725377 c -22.43273,0.42491 -66.00683,0.252189 -66.00683,0.252189 z m -16.53415,17.782448 0.11156,17.662119 23.6261,0.132681 -0.0139,-18.000016 z m -2.07853,55.340155 c 3.86893,-0.003 5.10415,0 3.83759,-4.46808 L 294.014,23.471213 c -2.21257,-4.393056 -4.20534,-10.218864 -10.02577,-10.479323 -2.5519,-0.288308 -5.88246,-0.08705 -8.44303,-0.171538 l -3e-5,3e-6 c -6.89348,0.213646 -18.73113,0.39611 -18.73113,0.39611 -1.65573,0 -2.66705,1.557665 -2.67857,4.678132 0.1896,30.454786 0.0141,93.014903 0.0141,93.014903 h 17.02831 c 4.46487,0 3.62062,-2.53248 3.62062,-10.33405 0.52904,-17.803866 -0.28743,-50.428567 -0.28743,-50.428567 L 274.38775,37.38518 c 4.73489,-0.321089 14.56465,31.660836 14.56465,31.660836 0.3661,2.612841 0.65602,3.505817 -2.92967,3.505817 -3.94062,0.292167 -10.05263,0.014 -10.05263,0.014 l 4.907,19.451433 12.01186,0.268367 c 5.36188,0 4.69865,0.7847 6.58842,6.735788 l 3.61796,11.888069 z M 207.1624,13.515069 c -6.85335,-0.3618 -8.24539,1.368929 -9.82447,5.184953 -4.25906,8.189201 -10.54852,25.338923 -10.54852,25.338923 l -0.33658,66.870555 54.8905,-0.14018 c 3.77842,-0.71738 5.50773,-2.8593 5.50773,-7.8176 l -0.49568,-42.565166 c 0,-5.04675 0.44972,-6.573726 -5.92165,-6.323952 l -15.2903,0.369537 -12.95159,19.467044 14.78448,-0.299816 c 3.6262,0 3.5034,0.729597 3.5034,3.554312 l 0.13319,12.132922 h -21.50105 c -3.29777,0.284043 -2.87623,-0.280001 -2.89894,-3.211454 l 0.25923,-37.80723 5.59062,-13.318582 34.0302,-0.402301 0.0796,-21.181328 z m -58.01236,-0.627377 c -12.31673,0 -15.08522,-2.104712 -18.86544,6.548529 l -8.41853,20.675115 c 0,0 -1.10781,46.633731 -1.10781,70.798164 h 59.69121 l 0.33504,-21.039911 -40.53681,-0.13574 c 0.13527,-4.279009 -0.0835,-12.109062 -0.0835,-12.109062 -0.22244,-3.395519 0.90102,-3.328369 3.84047,-3.461634 l 27.10197,-0.356259 7.97128,-23.588368 -38.26542,-0.148878 5.57673,-14.773744 33.75104,-0.107333 0.60754,-21.822865 c 0,0 -31.55833,-0.505029 -31.59777,-0.478014 z m -70.526997,-2.076359 -20.617644,0.44911 c -1.244083,0.0271 -4.681333,-0.703365 -6.79162,4.339296 L 18.29684,110.73217 38.846158,110.9095 C 47.835804,86.853248 57.348741,60.157245 66.20194,37.335713 l 9.082921,0.08458 -12.251153,33.55416 c 0,0 -10.224515,27.034028 -14.319362,39.935047 l 20.51009,0.27495 24.221079,-68.417358 c 3.017006,-7.495322 2.4497,-7.881893 2.542815,0.288232 L 96.308972,110.9095 H 115.46374 L 115.28741,11.80372 83.925466,11.319663 c -3.076613,-0.251491 -5.98216,11.872438 -5.457843,5.996059 z"
       stroke-linejoin="round"
       id="path25" />
  </g>
  <g
     fill="url(#a)"
     id="g67"
     style="fill:url(#linearGradient958)"
     transform="translate(-4.0236757,-3.0951384)">
    <g
       stroke="#010000"
       id="g43"
       style="fill:url(#linearGradient934)">
      <path
         d="m 65.532162,152.97326 v -1.72398 c 0,-1.37919 1.029111,-2.06879 3.087332,-2.06879 h 10.906251 c 1.835711,0 2.753566,0.63213 2.753566,1.89639 v 0.11493 c 0,0.99608 0.333765,1.70483 1.001296,2.12625 0.723159,0.42142 1.947602,0.58529 3.671421,0.63213 l 27.143022,0.73749 c 1.72381,0.0468 2.92045,-0.22986 3.58798,-0.68959 0.72315,-0.49805 1.08473,-1.34089 1.08473,-2.52852 v -0.64621 c 0,-1.18763 -0.33376,-1.99216 -1.00129,-2.41358 -0.66753,-0.45973 -1.89134,-0.72791 -3.67142,-0.80453 l -35.212266,-0.34262 c -7.245087,0 -12.398953,-5.41145 -12.516208,-11.02162 v -3.51676 c 0,-7.05525 7.904131,-10.61994 16.516208,-10.61994 h 35.034146 c 4.28333,0 7.42629,0.6896 9.42888,2.06879 2.05823,1.37919 3.08734,4.90255 3.08734,7.89079 v 1.0344 c 0,1.37918 -1.0013,2.06878 -3.00389,2.06878 h -8.35175 c -1.61321,0 -2.41981,-0.55551 -2.41981,-1.66652 v -0.11493 c 0,-1.53244 -1.5576,-2.31222 -4.67271,-2.29865 l -25.120399,0.10945 c -1.724434,0.008 -2.948263,0.24902 -3.671422,0.74706 -0.667531,0.45973 -1.001296,1.28341 -1.001296,2.47104 v 0.74707 c 0,1.18764 0.333765,2.01132 1.001296,2.47105 0.667531,0.42141 1.891339,0.67043 3.671422,0.74706 l 30.815429,0.15996 c 9.12949,0.42098 15.70602,3.68987 16.17901,11.16456 v 4.00653 c 0,2.98825 -1.02911,5.17196 -3.08734,6.55115 -2.00259,1.37919 -5.46768,2.06879 -9.751,2.06879 H 78.04837 c -4.283325,0 -7.454098,-0.6896 -9.512319,-2.06879 -2.002593,-1.37919 -3.003889,-4.30039 -3.003889,-7.28864 z"
         stroke-width="1.5"
         id="path29"
         style="fill:url(#linearGradient920)" />
      <path
         d="m 209.34276,122.54429 c 1.43701,0 2.3567,0.26818 2.75907,0.80453 0.40236,0.53635 0.20118,1.18763 -0.60355,1.95385 l -26.89281,25.42475 v 11.30464 c 0,1.53243 -1.1496,2.29865 -3.44882,2.29865 H 169.2569 c -2.29922,0 -3.44883,-0.76622 -3.44883,-2.29865 v -12.35524 l -26.67042,-24.62415 c -0.80473,-0.76622 -1.00592,-1.4175 -0.60355,-1.95385 0.40237,-0.53635 1.32205,-0.80453 2.75906,-0.80453 h 13.77088 c 1.78189,0 3.16142,0.49804 4.13859,1.49412 l 17.01411,18.01553 15.96742,-17.76553 c 0.91969,-0.99608 2.29922,-1.49412 4.1386,-1.49412 z"
         stroke-width="1.49999"
         id="path31"
         style="fill:url(#linearGradient922)" />
      <g
         stroke-width="1.5"
         id="g41"
         style="fill:url(#linearGradient932)">
        <path
           d="m 353.44513,122.59556 c 2.23137,0 3.34705,0.79496 3.34705,2.38487 v 6.57358 c 0,1.58992 -1.11568,2.38487 -3.34705,2.38487 h -21.63727 v 28.00696 c 0,1.5899 -1.11568,2.38485 -3.34705,2.38485 h -9.31316 c -2.23137,0 -3.34705,-0.79495 -3.34705,-2.38485 v -28.00696 h -20.92877 c -2.23137,0 -3.34705,-0.79495 -3.34705,-2.38487 v -6.57358 c 0,-1.58991 1.11568,-2.38487 3.34705,-2.38487 z"
           id="path33"
           style="fill:url(#linearGradient924)" />
        <path
           d="m 422.53919,153.80125 c 2.22073,0 3.3311,0.81465 3.3311,2.44396 v 5.64153 c 0,1.62931 -1.11037,2.44396 -3.3311,2.44396 h -52.95092 c -2.22073,0 -3.3311,-0.81465 -3.3311,-2.44396 v -37.88139 c 0,-1.62931 1.11037,-2.44396 3.3311,-2.44396 h 52.11814 c 2.22073,0 3.3311,0.81465 3.3311,2.44396 v 6.35485 c 0,1.62931 -1.11037,2.44396 -3.3311,2.44396 h -37.67697 v 5.55946 h 35.44215 c 1.88763,0 2.83144,0.69246 2.83144,2.07737 v 3.78813 c 0,1.38491 -0.94381,2.07737 -2.83144,2.07737 h -35.44215 v 7.49476 z"
           id="path35"
           style="fill:url(#linearGradient926)" />
        <path
           d="m 438.68317,164.33069 c -2.56387,0 -3.8458,-0.81465 -3.8458,-2.44395 v -37.88138 c 0,-1.62931 1.28193,-2.44396 3.8458,-2.44396 h 16.9472 c 1.9229,0 3.46122,0.50916 4.61496,1.52748 l 18.87536,24.74775 18.43342,-24.74775 c 1.08964,-1.01832 2.62795,-1.52748 4.61495,-1.52748 h 18.42946 c 2.56386,0 3.84579,0.81465 3.84579,2.44396 v 37.88138 c 0,1.6293 -1.28193,2.44395 -3.84579,2.44395 h -9.5331 c -2.56386,0 -3.82968,-0.81473 -3.84579,-2.44395 l -0.26074,-26.36688 -21.06863,26.90454 c -1.15374,0.97759 -2.72411,1.46638 -4.7111,1.46638 h -3.07663 c -1.98699,0 -3.55736,-0.48879 -4.71109,-1.46638 l -22.08475,-27.11694 0.43457,26.57928 c 0.0266,1.62908 -1.28193,2.44395 -3.84579,2.44395 z"
           id="path37"
           style="fill:url(#linearGradient928)" />
        <path
           d="m 220.32122,152.97326 v -1.72398 c 0,-1.37919 1.02551,-2.06879 3.07652,-2.06879 h 10.86807 c 1.82928,0 2.74392,0.63213 2.74392,1.89639 v 0.11493 c 0,0.99608 0.33261,1.70483 0.9978,2.12625 0.72063,0.42142 1.94089,0.58145 3.65856,0.63213 l 24.9967,0.73749 c 1.71766,0.0507 2.91022,-0.22986 3.57542,-0.68959 0.72061,-0.49805 1.08093,-1.34089 1.08093,-2.52852 v -0.64621 c 0,-1.18763 -0.33259,-1.99216 -0.99779,-2.41358 -0.66519,-0.45973 -1.88471,-0.72791 -3.65856,-0.80453 l -33.0377,-0.34262 c -7.21971,0 -12.35553,-5.41145 -12.47236,-11.02162 v -3.51676 c 0,-7.05525 7.87645,-10.61994 16.45836,-10.61994 h 33.29917 c 4.26833,0 7.40028,0.6896 9.39587,2.06879 2.05102,1.37919 3.07652,4.90255 3.07652,7.89079 v 1.0344 c 0,1.37918 -0.99779,2.06878 -2.99337,2.06878 h -8.32251 c -1.60756,0 -3.52363,-0.55551 -3.52363,-1.66652 v -0.11493 c 0,-1.53244 -1.55217,-2.31388 -4.65635,-2.29865 l -22.30783,0.10945 c -1.7184,0.008 -2.93794,0.24902 -3.65857,0.74706 -0.66519,0.45973 -0.99779,1.28341 -0.99779,2.47104 v 0.74707 c 0,1.18764 0.3326,2.01132 0.99779,2.47105 0.6652,0.42141 1.88471,0.67043 3.65857,0.74706 l 28.65625,0.15996 c 9.09752,0.42098 15.05532,3.68987 15.52666,11.16456 v 4.00653 c 0,2.98825 -1.02551,5.17196 -3.07654,6.55115 -1.99557,1.37919 -5.44852,2.06879 -9.71685,2.06879 h -40.17487 c -4.26833,0 -7.42801,-0.6896 -9.47902,-2.06879 -1.99557,-1.37919 -2.99337,-4.30039 -2.99337,-7.28864 z"
           id="path39"
           style="fill:url(#linearGradient930)" />
      </g>
    </g>
    <g
       stroke="#000000"
       stroke-width="2.5"
       id="g65"
       style="fill:url(#linearGradient956)">
      <path
         d="M 68.321903,4.3733206 46.9482,4.8386343 C 45.658496,4.8667116 42.095201,4.1098932 39.907529,9.334487 L 5.78351,106.28084 27.086381,106.46457 C 36.405682,81.540399 46.267462,53.881234 55.445312,30.236328 l 9.415996,0.08763 L 52.1609,65.088715 c 0,0 -10.599453,28.00938 -14.84446,41.375855 l 18.974328,0.28487 27.397154,-70.885776 c 3.127641,-7.765744 2.539532,-8.166262 2.636061,0.298631 l 0.3324,70.302275 H 106.51357 L 106.33077,5.4015122 73.818768,4.8999911 C 70.629335,4.6394264 67.61724,17.200773 68.160784,11.112381 Z"
         id="path45"
         style="fill:url(#linearGradient936)" />
      <path
         d="m 139.16406,4.90625 c -12.31673,0 -15.08522,-2.1806477 -18.86544,6.784792 l -8.41853,21.42105 c 0,0 -1.10781,48.316222 -1.10781,73.352478 h 59.69121 l 0.33504,-21.799004 -40.53681,-0.140638 c 0.13527,-4.43339 -0.0835,-14.887239 -0.0835,-14.887239 -0.22244,-3.518025 0.90102,-3.448452 3.84047,-3.586525 l 27.10197,-0.369113 7.97128,-22.098113 -38.26542,-0.15425 5.57673,-15.306764 33.75104,-0.111205 0.60754,-22.610209 c 0,0 -31.55833,-0.52325 -31.59777,-0.49526 z"
         id="path47"
         style="fill:url(#linearGradient938)" />
      <path
         d="m 196.30911,5.5562619 c -6.85335,-0.3748531 -8.24539,1.418318 -9.82447,5.3720201 -4.25906,8.484658 -10.54852,26.253122 -10.54852,26.253122 l -0.33658,69.283166 54.8905,-0.14523 c 3.77842,-0.74327 5.50773,-2.96247 5.50773,-8.09966 l -0.49568,-44.100864 c 0,-5.228831 0.44972,-6.810898 -5.92165,-6.552113 l -15.2903,0.38287 -12.95159,20.169393 14.78448,-0.310633 c 3.6262,0 3.5034,0.75592 3.5034,3.682547 l 0.13319,12.570664 h -21.50105 c -3.29777,0.294291 -2.87623,-0.290103 -2.89894,-3.32732 l 0.25923,-39.171271 5.59062,-13.799101 34.0302,-0.416816 0.0796,-21.945526 z"
         id="path49"
         style="fill:url(#linearGradient940)" />
      <path
         d="m 307.0774,106.46457 c 3.86893,-0.003 5.10415,0 3.83759,-4.62928 L 281.00901,15.871612 C 278.79644,11.32006 276.80367,5.2840633 270.98324,5.0142073 c -2.5519,-0.2987102 -5.88246,-0.090188 -8.44303,-0.1777276 l -3e-5,3.5e-6 c -6.89348,0.2213536 -18.73113,0.4104022 -18.73113,0.4104022 -1.65573,0 -2.66705,1.6138626 -2.67857,4.8469126 0.1896,31.55356 0.0141,96.370772 0.0141,96.370772 h 17.02831 c 4.46487,0 3.62062,-2.62385 3.62062,-10.706892 0.52904,-18.446205 -0.28743,-52.247968 -0.28743,-52.247968 l -0.12332,-13.222131 c 4.73489,-0.332673 14.56465,32.803123 14.56465,32.803123 0.3661,2.707109 0.65602,3.632303 -2.92967,3.632303 -3.94062,0.302708 -10.05263,0.01451 -10.05263,0.01451 l 4.907,20.153219 12.01186,0.278049 c 5.36188,0 4.69865,0.813011 6.58842,6.978805 l 3.61796,12.316982 z"
         id="path51"
         style="fill:url(#linearGradient942)" />
      <g
         stroke-linejoin="round"
         id="g59"
         style="fill:url(#linearGradient950)">
        <path
           d="m 313.93167,50.896395 0.12946,18.299348 27.41718,0.137468 -0.0161,-18.649436 z"
           id="path53"
           style="fill:url(#linearGradient944)" />
        <path
           d="m 330.69507,28.216454 20.07099,0.05187 0.17201,78.507666 23.22817,-0.31142 0.19108,-78.139808 22.84968,-0.200952 -0.50533,-22.7223 c -22.43273,0.4340521 -66.00683,0.2576151 -66.00683,0.2576151 z"
           id="path55"
           style="fill:url(#linearGradient946)" />
        <path
           d="m 428.20828,4.90625 c -10.61362,0 -12.7991,-0.1565053 -16.86544,6.784792 l -11.46739,20.459196 c 0,0 -0.34864,49.278076 -0.34864,74.314332 h 60.67598 l -0.48429,-19.803677 -39.45678,-0.21369 c 0.13527,-4.43339 -0.0835,-16.809514 -0.0835,-16.809514 -0.22244,-3.518025 0.90102,-3.448452 3.84047,-3.586525 l 27.10197,-0.369113 7.97128,-21.169921 -40.62672,0.3299 7.93803,-16.719106 31.98561,-0.111205 -0.18099,-22.7943747 z"
           id="path57"
           style="fill:url(#linearGradient948)" />
      </g>
      <path
         d="m 479.54796,5.1158003 -16.30826,25.0044737 0.20793,76.344296 h 59.53776 l 0.11908,-20.17202 -39.76985,-0.519277 V 41.428458 l 6.40929,-13.170266 32.40313,-0.120663 0.22822,-22.8849221 z"
         id="path61"
         style="fill:url(#linearGradient952)" />
      <path
         d="m 567.63532,5.40151 -0.84481,37.463949 -19.70457,-0.361551 0.13123,-37.102398 h -20.29682 c 0,0 0.0723,67.236422 -0.0359,101.06306 h 21.34124 l 0.13353,-38.186101 17.719,0.02649 v 38.159611 c 0,0 20.55498,0.0362 20.62022,0 0,0 -0.62288,-70.468368 -0.42121,-101.06306 z"
         stroke-linejoin="round"
         id="path63"
         style="fill:url(#linearGradient954)" />
    </g>
  </g>
  <g
     fill-opacity="0.973362"
     stroke="#000000"
     id="g97"
     transform="translate(-4.0236757,-3.0951384)">
    <path
       d="m 581.25748,55.816551 3.10707,-1.755595 v 3.51119 z m -49.70679,0 h 50.39434 m -49.93509,0 -3.10707,-1.755595 v 3.51119 z"
       stroke-width="1.5"
       id="path69" />
    <path
       d="m 477.76298,55.816551 3.57002,-1.755595 v 3.51119 z m -9.71736,0 h 9.71736 m -9.18969,0 -3.57001,-1.755595 v 3.51119 z"
       stroke-width="1.5"
       id="path71" />
    <path
       d="m 450.55445,55.816551 3.31117,-1.755595 v 3.51119 z m -45.54652,0 h 45.54655 m -45.54658,0 -3.31117,-1.755595 v 3.51119 z"
       stroke-width="1.50001"
       id="path73" />
    <path
       d="m 369.34681,55.816551 3.39466,-1.755595 v 3.51119 z m -13.20374,0 h 13.20374 m -13.20377,0 -3.39465,-1.755595 v 3.51119 z"
       stroke-width="1.5"
       id="path75" />
    <path
       d="m 336.03974,63.816551 3.50218,-1.755595 v 3.51119 z m -16.6073,0 h 16.6073 m -16.6073,0 -3.50215,-1.755595 v 3.51119 z"
       stroke-width="1.5"
       id="path77" />
    <path
       d="m 289.68232,55.816551 4.19353,-1.755595 v 3.51119 z m -15.44917,0 h 16.31099 m -11.63174,0 -4.19353,-1.755595 v 3.51119 z"
       stroke-width="1.49999"
       id="path79" />
    <g
       stroke-width="1.5"
       id="g95">
      <path
         d="m 256.48542,55.816551 3.35909,-1.755595 v 3.51119 z m -13.21524,0 h 13.06535 m -9.91487,0 -3.35908,-1.755595 v 3.51119 z"
         id="path81" />
      <path
         d="m 230.08206,55.816551 3.86279,-1.755595 v 3.51119 z m -16.90803,0 h 20.24255 m -20.18919,0.08839 -1.87134,-0.850506 -1.45992,-0.420399 -0.33704,2.938112 z"
         id="path83" />
      <path
         d="m 190.15384,55.77909 3.4588,-1.755595 v 3.51119 z m -9.1161,0 h 10.8926 m -10.84481,0.08839 -3.28464,-1.667206 v 3.334413 z"
         id="path85" />
      <path
         d="m 160.5221,55.816551 3.19929,-1.755595 v 3.51119 z m -44.34606,0 h 45.98928 m -45.80323,0.08839 -3.03821,-1.667206 v 3.334413 z"
         id="path87" />
      <path
         d="m 101.39667,55.816551 3.04079,-1.755595 v 3.51119 z m -10.086124,0 h 10.327604 m -10.136399,0.08839 -3.12252,-1.667206 v 3.334413 z"
         id="path89" />
      <path
         d="m 71.994721,55.816551 3.210356,-1.755595 v 3.51119 z m -12.990224,0 h 12.986739 m -12.968272,0.08839 -3.048731,-1.667206 v 3.334413 z"
         id="path91" />
      <path
         d="m 41.542168,55.816551 3.617461,-1.755595 v 3.51119 z m -14.319829,0 H 41.48133 m -14.048627,0.08839 -3.435339,-1.667206 v 3.334413 z"
         id="path93" />
    </g>
  </g>
</svg>
