<?xml version="1.0" encoding="UTF-8" standalone="no"?>
<svg
   version="1.0"
   width="1491.8013"
   height="241.71722"
   viewBox="0 0 1491.8013 241.71722"
   preserveAspectRatio="xMidYMid meet"
   id="svg198"
   sodipodi:docname="megaman.svg"
   inkscape:version="1.1.2 (0a00cf5339, 2022-02-04, custom)"
   xmlns:inkscape="http://www.inkscape.org/namespaces/inkscape"
   xmlns:sodipodi="http://sodipodi.sourceforge.net/DTD/sodipodi-0.dtd"
   xmlns="http://www.w3.org/2000/svg"
   xmlns:svg="http://www.w3.org/2000/svg">
  <defs
     id="defs202" />
  <sodipodi:namedview
     id="namedview200"
     pagecolor="#ffffff"
     bordercolor="#666666"
     borderopacity="1.0"
     inkscape:pageshadow="2"
     inkscape:pageopacity="0.0"
     inkscape:pagecheckerboard="0"
     showgrid="false"
     inkscape:zoom="0.71552878"
     inkscape:cx="745.60243"
     inkscape:cy="121.5884"
     inkscape:window-width="1920"
     inkscape:window-height="1017"
     inkscape:window-x="-8"
     inkscape:window-y="-8"
     inkscape:window-maximized="1"
     inkscape:current-layer="svg198" />
  <g
     fill="#1f3c56"
     id="g4"
     transform="translate(-1.1986814,-2)">
    <path
       d="m 463.9,242.1 c -9.1,-2.5 -12.1,-4.4 -21.2,-13.3 -4.4,-4.3 -8.2,-7.8 -8.6,-7.8 -0.3,0 -1.7,3.5 -3,7.8 -3.9,12.5 2.9,11.2 -61.1,11.2 -54.6,0 -55.8,0 -58.3,-2 l -2.6,-2.1 -2.1,2.1 c -1.9,1.9 -3.1,2 -34.1,2 h -32.2 l -10.8,-10.6 c -5.9,-5.8 -11.1,-10.4 -11.6,-10.1 -0.5,0.3 -3,4.1 -5.7,8.4 -8.4,13.4 -5.8,12.3 -29.4,12.3 h -20.5 l -12.4,-12.2 c -6.8,-6.8 -12.6,-13.3 -13,-14.6 -0.3,-1.3 -0.9,-2 -1.3,-1.5 -0.4,0.4 -2.7,6.4 -5,13.3 -2.3,6.9 -4.7,13.1 -5.2,13.8 -0.8,0.9 -12.1,1.2 -50.1,1.2 h -49 L 13.8,227.3 c -7.1,-7 -12.7,-13.4 -12.6,-14.2 0.4,-1.9 23.7,-15.3 25.5,-14.7 0.7,0.3 1.2,0.1 1,-0.4 -0.1,-0.6 3.1,-2.9 7.2,-5.2 7.7,-4.5 8.6,-5.9 12.1,-18.3 0.5,-1.6 7,-21 14.5,-43 7.5,-22 14,-41.3 14.5,-43 0.4,-1.6 1.4,-4.6 2.1,-6.5 0.6,-1.9 1.8,-5.1 2.5,-7 0.6,-2 5.6,-16.6 10.9,-32.5 5.3,-16 10.6,-31.6 11.7,-34.7 L 105.3,2 h 48.8 48.9 l 12.6,12.6 12.6,12.6 -0.4,7.4 c -0.3,6.6 -0.2,7.2 1.3,5.8 0.8,-0.8 3.3,-4.4 5.5,-8 2.1,-3.6 4.6,-7.6 5.4,-8.9 0.8,-1.3 3.6,-5.9 6.3,-10.2 2.6,-4.3 5.3,-8.6 6.1,-9.5 C 253.6,2.1 258,2 319.8,2 h 66.1 l 12.6,12.5 c 6.9,7 12.5,13 12.5,13.5 0,1.2 -4.5,4.2 -11.7,8 -3.5,1.7 -6.3,3.6 -6.3,4.1 0,0.6 12.8,0.9 33.7,0.9 l 33.6,-0.1 3.9,3.8 c 3.3,3.2 4.1,3.6 5.6,2.5 5.6,-4 8.5,-5.5 15.3,-7.6 17.2,-5.5 85.4,-5.8 101.9,-0.4 8.3,2.7 9.9,3.9 23.9,17.8 15,14.9 18.1,19.5 18.1,26.5 0,3 0.5,5.7 1,6 0.6,0.3 1,0.2 1,-0.3 0,-0.5 2,-4 4.5,-7.6 2.5,-3.7 4.5,-7 4.5,-7.2 0,-0.2 1.6,-2.7 3.5,-5.4 1.9,-2.7 3.5,-5.2 3.5,-5.5 0,-0.3 1.6,-2.8 3.5,-5.5 1.9,-2.7 3.5,-5.2 3.5,-5.5 0,-0.9 7.2,-10.9 8.4,-11.7 0.6,-0.4 28.7,-0.8 62.5,-0.8 h 61.4 l 13.1,13 c 10.7,10.6 12.9,13.3 12.1,14.6 -0.6,0.9 -4.5,3.5 -8.8,5.8 -4.2,2.3 -8.3,4.8 -8.9,5.4 -0.7,0.7 -1.6,1.2 -2.1,1.2 -0.4,0 -5.1,2.5 -10.3,5.6 -9,5.3 -9.4,5.7 -9.4,9 0,1.9 -0.9,10.9 -1.9,20.2 -1.1,9.2 -2.7,24.1 -3.6,33.2 -3,30.9 -4.6,45.5 -5.2,47.3 -0.7,2.5 0.6,2.1 9.3,-2.8 l 7.2,-3.9 13.5,-40.6 c 14.6,-43.4 16.3,-48.6 18.2,-54 1.6,-4.7 1.8,-5.1 16,-47.5 6.8,-20.4 13.1,-38.7 14,-40.8 L 841,2 h 48.8 48.7 l 12.3,12.3 12.2,12.2 v 6.8 c 0,3.8 0.4,6.7 1,6.7 0.6,0 1,-0.5 1,-1 0,-0.6 1.5,-3.2 3.3,-5.8 1.7,-2.6 3.7,-5.5 4.2,-6.5 0.6,-0.9 4.4,-6.8 8.5,-13.1 L 988.5,2 h 66.5 66.5 l 12.4,12.4 c 8.3,8.3 12.2,12.9 11.8,13.9 -0.6,1.6 -10.8,8 -14.6,9.2 -6.5,2 0.8,2.5 38.6,2.5 h 40.6 l 12.9,12.7 c 14.7,14.6 14.1,12.7 11.3,31.8 -2.4,17.3 -2.2,25.2 0.5,16.3 0.7,-2.4 2,-6.5 3,-9.3 1,-2.7 4.6,-13.3 7.9,-23.5 8.3,-25.2 8.6,-26.1 10.2,-27.1 0.8,-0.5 21.1,-0.9 45.2,-0.9 h 43.7 l 4.7,4.2 c 2.5,2.4 7.3,7.1 10.6,10.6 3.3,3.4 6.5,6.2 7.1,6.2 0.6,0 2.4,-4.1 4,-9.1 1.7,-5 3.6,-9.8 4.4,-10.5 1.1,-1.2 9.4,-1.4 46.4,-1.4 h 45.1 l 12.9,12.7 c 7,7 12.8,13.2 12.8,13.9 0,1.3 -3.2,3.4 -16.5,10.9 -18.1,10.1 -23.3,13.6 -24.3,16.2 -0.5,1.6 -2,6 -3.2,9.8 -1.2,3.9 -2.6,8 -3.1,9.3 -0.5,1.3 -10.2,30.1 -21.5,64 -11.3,33.9 -21.1,62 -21.7,62.4 -0.7,0.4 -21,0.8 -45.2,0.8 h -44 l -11.2,-11.2 c -6.2,-6.2 -11.4,-11 -11.6,-10.8 -0.3,0.3 -1.9,4.8 -3.7,10 -1.8,5.2 -3.9,10.1 -4.8,10.8 -1.2,0.9 -8.7,1.2 -29.8,1.2 -26.3,0 -28.3,-0.1 -30.6,-1.9 -2.4,-2 -2.5,-2 -4.1,0 -1.6,1.8 -3.2,1.9 -30.4,1.9 h -28.6 l -12.9,-12.7 c -7.2,-7.2 -12.8,-13.5 -12.8,-14.6 0,-1.5 -0.7,-1.8 -4.7,-1.5 -4.9,0.3 -5.6,1 -9.8,9.3 -0.9,1.7 -2.7,4.8 -4,7 -1.4,2.2 -3,5 -3.5,6.2 -0.5,1.2 -1.8,3.1 -3,4.3 -2,2 -2.9,2 -67,2 h -65 l -10.7,-10.5 c -5.8,-5.8 -11.1,-10.4 -11.6,-10.2 -0.6,0.2 -3.7,4.6 -6.9,9.7 -3.3,5.2 -6.5,9.8 -7.1,10.2 -0.7,0.4 -10.2,0.8 -21.3,0.8 h -20.1 l -12.7,-12.6 c -7.1,-7 -13.1,-13.8 -13.5,-15.2 -0.6,-2.1 -1.5,-0.2 -4.9,10.4 -2.4,7.2 -5,14 -5.8,15.2 l -1.5,2.2 h -48.8 c -42.2,0 -49,-0.2 -50.1,-1.5 -0.7,-0.8 -1.7,-1.5 -2.2,-1.5 -0.5,0 -1.6,0.7 -2.4,1.5 -1.3,1.3 -6.1,1.5 -30.3,1.5 h -28.8 l -12.6,-12.5 c -8.1,-7.9 -12.7,-13.3 -12.7,-14.6 0,-1.8 -0.5,-2 -4.7,-1.7 -4.9,0.3 -5.5,0.9 -9.8,9.3 -2,4 -6.1,11.1 -9.1,15.8 L 646,240 h -33.9 c -32.6,0 -33.9,-0.1 -36.4,-2.1 l -2.7,-2 -4.7,2.1 c -11,4.8 -16.3,5.4 -58.3,5.6 -35.3,0.3 -40.2,0.1 -46.1,-1.5 z"
       id="path2" />
  </g>
  <g
     fill="#2e90c9"
     id="g60"
     transform="translate(-1.1986814,-2)">
    <path
       d="m 514.4,231.3 c -4.2,-5.4 -8.3,-10.3 -9,-10.9 -1,-0.8 1.2,-1.3 8.9,-1.8 5.6,-0.3 13.2,-1.3 17,-2.1 7.3,-1.5 18,-5.9 19.9,-8.2 0.6,-0.8 2,-1.9 3.1,-2.5 1.9,-1 1.9,-0.8 -0.2,2.6 -1.5,2.4 -2.1,4.5 -1.7,6 0.3,1.3 4.5,6 9.2,10.5 5.4,5.2 8.3,8.6 7.7,9.2 -3.6,3.6 -21.6,6.9 -37.3,6.9 h -9.8 z"
       id="path6" />
    <path
       d="m 461.8,238.6 c -2.6,-0.7 -6.4,-2.5 -8.5,-3.9 -5.1,-3.5 -21.3,-20.2 -18.8,-19.3 3.9,1.5 15.1,3.6 18.7,3.6 2.8,0 4,0.5 4.9,2.3 0.7,1.2 2.8,4.2 4.8,6.7 2,2.5 4.9,6.2 6.4,8.3 l 2.8,3.7 -2.8,-0.1 c -1.5,0 -4.9,-0.6 -7.5,-1.3 z"
       id="path8" />
    <path
       d="m 363.8,236.3 c -4,-0.2 -6.8,-0.8 -6.8,-1.5 0,-0.6 1.7,-3.6 3.9,-6.7 5.7,-8.5 7.3,-11.8 5.8,-12.4 -0.6,-0.3 6.1,-0.6 14.9,-0.6 8.9,-0.1 17.4,-0.3 19,-0.5 2.6,-0.4 4.1,0.9 13.9,11 L 425.4,237 398,236.8 c -15.1,-0.1 -30.5,-0.3 -34.2,-0.5 z"
       id="path10" />
    <path
       d="m 584,236.3 c 0.8,-0.3 1.7,-0.9 2,-1.3 0.3,-0.4 6.5,-4.7 13.9,-9.5 10,-6.4 13.1,-8.9 12,-9.6 -0.9,-0.6 0.8,-0.9 4.9,-0.9 h 6.2 l 10.2,9.5 c 5.5,5.2 10.5,9.5 10.9,9.5 0.5,0 0.9,-0.8 0.9,-1.7 0,-0.9 0.3,-1.3 0.7,-1 0.3,0.4 1.2,-0.1 2,-1.1 0.8,-0.9 0.4,0.2 -0.8,2.6 l -2.3,4.2 -31,-0.1 c -17.1,0 -30.4,-0.3 -29.6,-0.6 z"
       id="path12" />
    <path
       d="m 715.5,235.9 c 0.4,-0.6 4.4,-4.9 8.9,-9.6 4.4,-4.7 8,-9.2 7.8,-9.9 -0.2,-0.8 -0.1,-1.4 0.1,-1.4 0.3,0 5.1,5 10.7,11 l 10.2,11 h -19.1 c -13.5,0 -19,-0.3 -18.6,-1.1 z"
       id="path14" />
    <path
       d="m 1016.3,236.3 c -5,-0.2 -8.3,-0.8 -8.3,-1.4 0,-0.6 2.6,-4.6 5.8,-8.8 3.2,-4.2 5.7,-8.3 5.4,-9.1 -0.4,-1.5 11.1,14.8 12.9,18.2 0.9,1.6 0.5,1.8 -3.3,1.6 -2.4,-0.1 -8,-0.4 -12.5,-0.5 z"
       id="path16" />
    <path
       d="m 1070.8,236.3 c -4.3,-0.2 -7.8,-0.8 -7.8,-1.2 0,-0.5 2,-4.4 4.5,-8.7 2.5,-4.4 4.5,-8.7 4.5,-9.6 0,-1.5 0.9,-1.8 5.8,-1.8 h 5.7 l 11,11 11,11 -13.5,-0.2 c -7.4,-0.1 -17,-0.4 -21.2,-0.5 z"
       id="path18" />
    <path
       d="m 1193.7,236.2 -8.7,-0.3 2.1,-4.2 c 1.2,-2.3 3.9,-6.4 6,-9 l 3.8,-4.9 9.1,8.8 c 4.9,4.8 9,9.1 9,9.6 0,0.5 -2.8,0.8 -6.2,0.6 -3.5,-0.2 -10.2,-0.4 -15.1,-0.6 z"
       id="path20" />
    <path
       d="m 1246.3,236.3 c -2.4,-0.2 -4.3,-0.8 -4.3,-1.2 0,-0.4 3.7,-4.4 8.1,-8.9 5.4,-5.4 7.9,-8.7 7.5,-9.7 -0.3,-0.8 -0.3,-1.5 0,-1.5 0.9,0 22.4,20.4 22.4,21.3 0,0.7 -25.6,0.7 -33.7,0 z"
       id="path22" />
    <path
       d="m 1364.3,236.3 c -4.6,-0.2 -8.3,-0.7 -8.3,-1.2 0,-0.7 1,-2.8 6.8,-13.5 2.2,-4.1 2.1,-5 -0.3,-5.8 -1.1,-0.3 2.2,-0.6 7.3,-0.7 l 9.4,-0.1 11.1,11 11.2,11 -14.5,-0.2 c -8,-0.1 -18.2,-0.4 -22.7,-0.5 z"
       id="path24" />
    <path
       d="M 443.5,216.6 C 426.8,212.8 420.1,205.7 420,192 c 0,-5.8 2.2,-12.9 19.9,-66 10.9,-32.7 21.2,-62.2 22.9,-65.5 3.5,-7.1 9.9,-13.6 15.7,-16.4 10.8,-5.1 13.8,-5.4 52.5,-5.8 37.2,-0.4 47.4,0.2 56.6,3.3 5.6,1.9 12,6.6 12.9,9.5 0.4,1 1,1.7 1.4,1.4 0.5,-0.2 5.4,4.3 11,10 12.3,12.6 14.6,16.9 13.8,26.1 -0.4,5.7 -1.1,7.4 -7.2,16.9 l -6.8,10.6 -4.4,-4.3 c -2.4,-2.4 -4.3,-3.8 -4.2,-3.3 0.1,0.6 -0.3,2.3 -0.9,3.8 -0.7,1.6 -1.2,3.5 -1.2,4.3 0,2.1 -0.6,1.8 -7,-3.1 l -5.8,-4.5 h -20.4 -20.4 l -4.7,-4.7 c -5,-4.9 -6.3,-5 -2.2,-0.1 1.4,1.6 2.5,3.4 2.5,3.9 0,0.5 -7.1,0.9 -16.5,0.9 H 511 l -1.3,-2.7 c -0.6,-1.6 -1.5,-3.1 -2,-3.4 -0.8,-0.6 3.9,-16.7 5.3,-18.3 0.5,-0.5 2.6,-1.2 4.7,-1.6 3.4,-0.7 3.5,-0.8 0.8,-0.8 -6.4,-0.1 -5.8,-1.2 -21.7,46.2 -8.2,24.7 -14.6,45.1 -14.3,45.5 1.1,1 23.7,0.4 26.5,-0.7 1.9,-0.7 3,-2.5 4.7,-7.8 1.2,-3.7 2.1,-7 1.9,-7.2 -0.2,-0.2 -1.4,2.7 -2.6,6.3 -1.2,3.6 -2.3,6.5 -2.5,6.3 -0.1,-0.2 -2.8,-3.2 -5.9,-6.7 -3.1,-3.5 -5.6,-6.8 -5.6,-7.3 0,-0.6 3.6,-0.9 9,-0.6 4.9,0.1 8.6,0 8.2,-0.4 -0.4,-0.4 -4.8,-0.8 -9.8,-1 l -9.1,-0.3 5.8,-18 c 3.3,-9.9 6.6,-19.9 7.5,-22.2 l 1.6,-4.3 h 38.4 c 29.6,0 38.4,0.3 38.4,1.2 0,2.5 -25.3,77.4 -28.1,83.2 -5.6,11.6 -14.6,17.9 -30.1,21.3 -10.3,2.2 -78.5,2.9 -87.3,0.9 z m 89.8,-9.5 c 11.3,-2.9 15.4,-6.1 20.4,-15.5 1.9,-3.7 25.3,-71.4 25.3,-73.3 0,-0.2 -13.8,-0.3 -30.7,-0.3 h -30.8 l -4.7,14.9 c -4.4,13.6 -5.1,15 -8.3,17.2 -5.5,3.8 -4.1,4.4 2.2,1 4.9,-2.7 6.6,-3.1 13.4,-3.1 h 7.8 l -4.8,14.3 c -4.1,12.4 -5.2,14.5 -7.9,16.4 -5,3.3 -15.5,4.7 -27.6,3.5 -11.2,-1.1 -14.6,-2.3 -14.6,-5 0,-1.9 30.6,-94.5 32.2,-97.5 0.5,-1.1 3.1,-2.8 5.6,-4 4,-1.8 6.6,-2.1 17.7,-2.2 12.9,0 19.1,1.1 21.4,3.9 0.8,0.9 0.5,3 -1,7.4 -1.1,3.4 -2.4,6.2 -2.7,6.2 -0.4,0.1 -2,1.2 -3.6,2.5 l -3,2.4 3.7,-0.9 c 2,-0.4 5.3,-1.7 7.2,-2.9 3.3,-1.9 5.1,-2.1 20.5,-2.1 15.1,0 17,-0.2 17.9,-1.7 2.2,-4.2 6.1,-21.3 6.1,-26.6 0,-5.2 -0.3,-6.2 -2.9,-8.7 -4.3,-3.9 -12.4,-5.7 -31.1,-6.9 -20.9,-1.4 -36,-1.4 -53.1,-0.1 -26.1,2.1 -34.1,6.5 -40,21.9 -5.3,14 -39.1,115.8 -39.9,120.4 -2.1,10.6 1.5,16.1 12.2,19.2 5.1,1.5 11.4,2 33.3,2.4 32.4,0.7 49.3,-0.1 59.8,-2.8 z"
       id="path26" />
    <path
       d="m 448,208 c -3.6,-0.5 -8.4,-1.6 -10.7,-2.5 -3.6,-1.4 -4.4,-2.3 -4.9,-5.1 -0.3,-1.9 -0.1,-6.1 0.5,-9.3 C 434.4,183.7 471,74 474,68 c 7.2,-14.4 15.1,-16.9 56.7,-17.7 37.3,-0.8 56.3,0.9 61.6,5.5 2.5,2.2 2.2,8.9 -0.9,20.2 -3.9,14.3 -1.8,13 -21,13 h -16.6 l 0.6,-3.5 c 1,-5.1 -2.9,-10 -9.7,-12 -10,-3 -31.7,-1.4 -38.1,2.8 -2.1,1.4 -5,9.3 -18.6,50.2 -8.9,26.7 -16,49.5 -15.8,50.7 0.5,3 7.6,7.6 13.7,8.8 11.8,2.2 31.1,0 35.1,-4 1.4,-1.4 11,-27.7 11,-30.3 0,-0.4 -0.9,-0.7 -2.1,-0.7 -1.6,0 -1.9,-0.4 -1.4,-2 0.6,-1.9 0.2,-2 -6.9,-2 -4.2,0 -7.6,-0.3 -7.6,-0.6 0,-0.6 4.2,-13.3 6.6,-20.1 l 1.6,-4.3 h 26.9 c 14.8,0 26.9,0.3 26.9,0.8 0,0.4 -5,15.7 -11.1,34.1 -7.4,22.1 -12.2,34.9 -14.3,37.9 -5.6,8.3 -12.9,11.6 -29.6,13.2 -11.2,1.1 -63.6,1.1 -73,0 z"
       id="path28" />
    <path
       d="m 403.6,213.3 c -0.2,-0.2 1.2,-5 3,-10.6 1.9,-5.6 3.3,-10.6 3.1,-11.2 -0.2,-0.5 -1.9,3.6 -3.7,9.2 -1.8,5.6 -3.6,10.7 -4,11.3 -0.4,0.7 -17.9,0.9 -56.2,0.8 l -55.6,-0.3 6.4,-19 c 25,-75 48.8,-145.5 49.9,-148.2 l 1.3,-3.2 55.2,0.1 h 55.1 l -0.5,3.2 c -0.6,2.8 -0.5,2.9 0.4,0.7 l 1.1,-2.4 3.4,3.3 c 3.4,3.3 3.4,3.3 1.6,5.9 -4.3,6 -11.7,24.5 -18.7,46.6 -7.3,22.7 -9.6,28.5 -11,27.4 -1.1,-0.9 -1.4,-0.8 -1.4,0.1 0,0.8 -0.2,1.1 -0.5,0.8 -0.3,-0.3 1.3,-6.4 3.5,-13.6 2.2,-7.2 4,-13.6 4,-14.2 0,-0.6 -6.1,-1 -17.9,-1 h -18 l -3.5,-4.4 c -2,-2.3 -3.6,-4.6 -3.6,-4.9 0,-0.4 10.7,-0.8 23.7,-0.9 l 23.8,-0.3 2.3,-6.4 c 1.2,-3.5 2.1,-6.9 1.9,-7.5 -0.2,-0.6 -1.4,2.2 -2.7,6.1 l -2.3,7.3 -23.5,0.2 -23.5,0.3 -1.2,3.5 c -0.7,1.9 -1.5,4.5 -1.9,5.8 l -0.7,2.2 h 23.1 23 l -0.7,2.7 c -0.3,1.6 -3.6,11.8 -7.2,22.8 l -6.6,20 -23.5,0.3 -23.6,0.2 -3.2,9.8 c -1.8,5.4 -3.2,10.3 -3.2,11 0,0.9 5.8,1.2 22.9,1.2 h 23 l -3.5,10.2 c -1.9,5.6 -3.4,10.7 -3.3,11.2 0,0.6 1.7,-3.8 3.8,-9.7 3.6,-10.6 3.7,-10.8 5.5,-8.9 1.7,2 1.7,2.3 -0.3,9.4 -3.6,12.9 -2.2,23.9 4.1,30.6 l 2.1,2.2 -6.4,0.2 c -13,0.4 -15,0.4 -15.3,0.1 z M 401,190.8 c 2.9,-8.4 5.6,-15.4 5.9,-15.6 2.4,-0.9 7.2,-4.4 6.8,-4.8 -0.2,-0.3 -2.6,0.9 -5.3,2.5 l -4.8,3.1 h -21.8 c -16.8,0 -21.8,-0.3 -21.7,-1.2 0,-0.7 2.6,-9.2 5.7,-18.8 l 5.8,-17.5 23.4,-0.3 23.5,-0.2 4.8,-14.3 c 2.6,-7.8 4.7,-14.5 4.7,-14.9 0,-0.5 -10.4,-0.8 -23.1,-0.8 -19.3,0 -23,-0.2 -22,-1.3 0.6,-0.8 0.9,-1.6 0.6,-1.8 -0.2,-0.3 1.3,-5.9 3.4,-12.5 l 3.8,-11.9 23.6,-0.3 23.5,-0.2 4.6,-13.3 c 2.6,-7.2 4.8,-13.9 4.9,-14.7 0.2,-1.3 -5.7,-1.5 -47,-1.8 L 353.2,50 343.5,78.7 c -16.3,48.4 -42.5,126.7 -42.5,127 0,0.2 21.3,0.3 47.4,0.3 h 47.3 z"
       id="path30" />
    <path
       d="m 307.8,204.5 c -0.3,-0.4 0,-2.5 0.7,-4.8 1.4,-4.4 43.9,-130.3 47.2,-139.5 L 357.5,55 H 401 c 23.9,0 43.4,0.3 43.4,0.7 -0.1,0.5 -1.8,5.9 -3.9,12.1 L 436.8,79 h -23.3 -23.3 l -4.6,13.8 c -2.5,7.5 -4.6,14.3 -4.6,15 0,0.6 1.1,1.2 2.5,1.2 1.9,0 2.5,0.5 2.3,1.8 -0.3,1.6 1.3,1.7 19.9,2 l 20.1,0.2 -4,12 -4,12 h -23.3 -23.3 l -1.6,4.3 c -1.9,5 -11.6,34.6 -11.6,35.3 0,0.2 1.1,0.4 2.5,0.4 1.6,0 2.5,0.6 2.5,1.5 0,1.3 2.9,1.5 20,1.5 11,0 20,0.4 20,0.8 0,0.4 -1.7,5.9 -3.8,12.2 l -3.9,11.5 -43.5,0.3 c -23.9,0.1 -43.7,0 -44,-0.3 z"
       id="path32" />
    <path
       d="m 5.5,211.7 c 1.1,-0.8 8.8,-5.1 17,-9.7 22.9,-12.7 21.7,-11.7 24.2,-19.6 2.8,-9.1 57.8,-172.1 59.2,-175.6 L 107,4 h 47 47 l 0.2,17.3 0.2,17.2 0.3,-16.3 c 0.2,-8.9 0.7,-16.2 1.1,-16.2 0.4,0 5.6,4.9 11.6,10.9 l 10.8,10.8 -0.4,10.9 -0.3,10.9 -11,16.2 c -6,9 -11.3,15.9 -11.7,15.5 -0.4,-0.4 -0.9,-9.7 -1,-20.7 l -0.3,-20 -0.5,24.2 c -0.4,17.9 -0.2,23.9 0.6,23 C 201.2,87 211.1,71.9 222.5,54 233.9,36.1 245.8,17.6 248.9,12.8 L 254.5,4 h 64.5 64.5 l 11.8,11.6 c 6.4,6.4 11.7,12 11.7,12.4 0,0.5 -4.7,3.4 -10.4,6.4 L 386.2,40 366.5,39.8 c -18.1,-0.3 -19.8,-0.2 -21,1.5 -0.8,1.1 -5.6,14.6 -10.8,30 -15.2,45.3 -34.8,102.7 -36.1,105.7 -0.8,2 -1.6,2.6 -2.5,2 -1.1,-0.6 0.2,-5.6 6.3,-24.5 4.3,-13 7.5,-23.9 7.3,-24.1 -0.2,-0.3 -6.6,18.2 -14.2,41.1 L 281.6,213 h -32.2 -32.2 l 1.8,-5.7 c 1,-3.2 8.9,-26.9 17.5,-52.7 8.6,-25.7 15.4,-47 15.2,-47.3 -0.3,-0.2 -5.2,13.7 -11,30.9 -5.7,17.2 -11.9,35.4 -13.7,40.5 l -3.2,9.2 -2.9,-1.5 c -1.6,-0.8 -5.7,-3.3 -9.1,-5.4 -3.3,-2.2 -6.5,-3.7 -7.1,-3.3 -0.5,0.3 -0.8,0.2 -0.5,-0.3 16.2,-26.8 46.5,-75.3 48,-76.9 0.7,-0.7 0.8,0.2 0.3,2.5 -0.4,1.9 -0.5,3.2 -0.1,2.9 0.6,-0.6 5.6,-15.3 5.2,-15.6 -0.1,-0.1 -6,9.1 -13.2,20.5 -7.2,11.4 -24.7,39 -38.8,61.5 L 179.8,213 H 159.4 139 l 0.4,-2.2 c 0.3,-1.3 0.7,-12.2 1.1,-24.3 0.3,-12.1 1.3,-38.9 2.1,-59.7 0.9,-20.7 1.4,-38.6 1.2,-39.8 -0.2,-1.1 -9.9,26.7 -21.7,62 l -21.3,64 H 52.2 C 11.3,213 3.9,212.8 5.5,211.7 Z m 156.5,-5.9 13.3,-0.3 12.9,-20 c 7,-11 18.6,-29.4 25.8,-41 7.1,-11.5 20.5,-32.9 29.8,-47.5 l 16.9,-26.5 5.6,-0.3 c 4.7,-0.2 5.7,0 5.7,1.3 0,0.9 -9.9,31.3 -22,67.6 -12.1,36.4 -22,66.3 -22,66.5 0,0.2 10.7,0.4 23.8,0.4 h 23.8 L 306,114.8 c 16.6,-50.2 30.7,-91.8 31.1,-92.4 0.5,-0.5 4.4,-3 8.8,-5.4 4.4,-2.4 7.7,-4.8 7.5,-5.2 -0.6,-1 -45,-1.1 -74.1,-0.1 L 258.4,12.3 252,22.4 C 248.5,28 237,45.8 226.5,62 215.9,78.2 205,95.2 202.1,99.8 c -4.6,7.1 -5.7,8.2 -8.2,8.2 h -2.8 l 0.4,-18.7 c 1,-44.9 1.6,-64.2 2.1,-70.5 l 0.6,-6.8 h -40.3 -40.3 l -2.4,-2.2 c -2.3,-2.1 -2.5,-2.2 -1.7,-0.3 0.4,1.1 1,2.8 1.2,3.7 0.4,1.5 -57.3,176.2 -59.7,180.8 -0.5,0.9 -4.5,3.6 -8.9,6 -4.5,2.5 -8.1,4.8 -8.1,5.3 0,0.4 13.6,0.6 30.2,0.5 l 30.3,-0.3 3.9,-11 c 2.1,-6 9.4,-27.6 16.3,-48 6.8,-20.3 15.4,-45.8 19.1,-56.5 l 6.8,-19.5 5.4,-0.3 c 2.9,-0.2 5.6,0 6,0.5 0.5,0.4 0.2,14.5 -0.5,31.3 -0.7,16.8 -1.8,45.1 -2.5,63 -0.6,17.9 -1.5,34.9 -1.9,37.7 -0.6,4 -0.5,5.1 0.4,4.3 0.6,-0.5 7.1,-1.1 14.5,-1.2 z"
       id="path34" />
    <path
       d="m 47,204.1 c 0,-0.5 1.4,-1.4 3.1,-2.1 1.7,-0.7 3.7,-2.3 4.4,-3.4 0.7,-1.2 4.5,-11.5 8.4,-23.1 7,-20.9 45.2,-134.3 50.8,-150.5 l 2.9,-8.5 37.8,-0.3 37.7,-0.2 -0.5,19.2 c -0.3,10.6 -0.8,31.6 -1.2,46.6 -0.6,26.7 -0.6,27.2 1.4,27.2 1.1,0 2.2,0.8 2.5,2 0.7,2.5 5.1,2.7 7.2,0.3 1.2,-1.5 31.6,-48.2 56.4,-86.5 l 5.6,-8.8 h 40.5 40.5 l -4,2.3 c -2.2,1.2 -4.5,3.3 -5.2,4.7 -0.7,1.4 -14.3,42.3 -30.4,91 -16,48.7 -29.6,89.1 -30.1,89.8 -1.2,1.4 -39.3,1.8 -40.2,0.3 -0.3,-0.5 9.1,-29.7 20.9,-65 11.8,-35.2 21.5,-64.3 21.5,-64.6 0,-0.3 -0.9,-0.5 -2,-0.5 -1.7,0 -1.9,-0.4 -1.4,-2.5 l 0.6,-2.6 -7.3,0.3 -7.3,0.3 -38,60.6 c -21,33.4 -40.1,63.7 -42.6,67.5 l -4.5,6.9 h -11 -11 l 0.2,-13 c 0.2,-13.4 2.8,-82.2 3.9,-104.7 0.6,-11.2 0.5,-12.8 -0.9,-12.8 -0.9,0 -1.7,-1 -1.9,-2.2 -0.3,-2.1 -0.9,-2.3 -6.7,-2.6 -3.5,-0.2 -6.8,0.1 -7.2,0.5 -0.4,0.4 -10.8,30.5 -23,66.8 -12.2,36.3 -22.6,66.6 -23.2,67.3 -1.1,1.4 -46.7,1.8 -46.7,0.3 z"
       id="path36" />
    <path
       d="m 556.7,209.8 c 1.1,-1.8 25.5,-40.3 54.2,-85.5 L 663.2,42 h 61.1 c 37.9,0 60.7,0.4 60.2,0.9 -0.6,0.5 -9.4,5.7 -19.7,11.6 -15.5,8.7 -18.8,11 -18.8,12.8 0,2.2 0,2.2 1.3,-0.2 1.1,-2.1 35.6,-22.9 38.2,-23.1 0.6,0 6.1,5.1 12.4,11.4 l 11.3,11.3 -13.3,7.6 c -7.4,4.1 -16,8.9 -19.1,10.7 -3.2,1.7 -6,3.5 -6.3,4 -0.6,1 -2.6,18.2 -7,61.5 -2.1,20.1 -3.6,30.6 -4.4,30.1 -0.5,-0.4 -13.5,2 -21.6,3.8 -1.9,0.5 -2,0.2 -1.4,-8.7 1.9,-27.3 1.9,-26.9 0.4,-14.7 -0.8,6.3 -2.1,18.3 -3,26.5 -0.9,8.3 -1.8,17.4 -2.2,20.3 l -0.5,5.2 h -28.4 c -15.6,0 -28.4,-0.3 -28.4,-0.7 0,-0.5 0.7,-6.2 1.5,-12.8 0.8,-6.6 1.5,-12.6 1.5,-13.3 0,-1 -4.4,-1.2 -20.1,-1 l -20.1,0.3 -7.8,13.5 -7.8,13.5 -33.2,0.3 -33.2,0.2 z m 67.8,-18.3 8,-14.4 26.4,-0.1 h 26.4 l -0.6,7.8 c -0.4,4.2 -1,10.7 -1.3,14.5 l -0.7,6.7 h 20.1 c 11,0 20.3,-0.4 20.6,-0.9 0.8,-1.2 3.8,-32.7 3.4,-34.9 -0.2,-0.9 -1.1,6.1 -2,15.5 -0.9,9.5 -2,17.7 -2.3,18.3 -0.7,1.2 -34.1,1.4 -34.9,0.2 -0.4,-0.7 0.5,-10.2 1.9,-20.4 0.5,-3.4 0.3,-3.8 -1.6,-3.8 -1.6,0 -2,-0.5 -1.6,-2 0.5,-2 0,-2 -26.9,-2 h -27.3 l -8.2,14.5 -8.1,14.5 h -19.4 c -14.9,0 -19.4,-0.3 -19.3,-1.2 0,-0.7 21.3,-34.5 47.2,-75.1 l 47.2,-73.9 37.3,-0.1 c 20.4,-0.1 37.2,-0.1 37.2,0 0,0 -2,1.3 -4.4,2.7 l -4.3,2.5 -1.2,12.8 c -0.7,7 -2.1,21.5 -3.2,32 -1.7,17.3 -2.3,27.4 -1.3,23.3 0.7,-2.8 6.4,-59.5 6.4,-63.2 0,-3.7 0.3,-3.9 8,-8.4 4.5,-2.6 8.3,-5.1 8.6,-5.6 0.3,-0.4 -19.2,-0.8 -43.3,-0.8 h -43.8 l -15.1,23.8 c -40.4,63.2 -48.3,75.7 -65.2,102.4 -10,15.8 -18.2,29 -18.2,29.3 0,0.3 10.7,0.5 23.8,0.5 h 23.7 z m 68.9,-44.2 c 0.3,-2.1 2.2,-15.7 4.1,-30.3 2,-14.6 3.8,-28 4.1,-29.7 0.5,-2.6 0.2,-3.4 -1.2,-4 -1.1,-0.5 -1.9,-1.5 -1.9,-2.3 0,-1.2 -1.6,-1.6 -7,-1.8 l -7,-0.3 -9.4,17.8 c -5.2,9.8 -13.2,24.8 -17.8,33.4 -4.5,8.5 -8.3,16.1 -8.3,16.7 0,0.7 1.2,1.2 2.6,1.2 1.9,0 2.5,0.4 2,1.5 -0.5,1.3 2.1,1.5 19.3,1.5 h 19.9 z"
       id="path38" />
    <path
       d="m 650.8,146.5 c -0.3,-0.3 7.2,-15.3 16.8,-33.3 l 17.3,-32.7 6.1,-0.3 6,-0.3 V 83 c 0,3 -1.9,17.6 -6.4,48.5 l -2.2,15 -18.5,0.3 c -10.2,0.1 -18.8,0 -19.1,-0.3 z M 682.6,131 c 0.6,-4.1 1.9,-13.3 2.9,-20.5 0.9,-7.1 1.9,-14.1 2.1,-15.5 0.8,-4 -0.8,-1.5 -8.1,12.5 -3.7,7.2 -9,17.2 -11.7,22.3 l -5,9.3 9.3,-0.3 9.3,-0.3 z"
       id="path40" />
    <path
       d="m 740.3,212.3 c 0.4,-0.4 9.4,-5.5 19.9,-11.4 l 19.2,-10.7 15.4,-45.9 C 822.3,62.5 839.8,10.6 841,7.3 L 842.2,4 h 47.4 47.4 l 0.2,5.8 0.1,5.7 0.6,-4.8 0.6,-4.8 11.4,11.4 11.3,11.4 -1.1,10.9 -1.2,10.9 -8,12 c -7,10.7 -8.3,12.1 -10.9,12.3 L 937,75 V 49.8 c 0,-13.8 -0.2,-24.9 -0.4,-24.7 -0.2,0.2 -0.7,14.8 -1,32.4 l -0.7,32 5.8,-9 c 3.2,-4.9 15.5,-24 27.4,-42.5 l 21.6,-33.5 64.8,-0.3 64.8,-0.2 12.1,11.9 c 6.6,6.6 11.8,12.2 11.6,12.4 -1.4,1.1 -37.9,20.7 -38.6,20.7 -0.4,0 -1.7,-0.8 -2.8,-1.8 -2.1,-1.7 -2.1,-1.7 -0.4,0.4 1.7,1.9 1.4,3 -6.8,27.7 l -8.6,25.8 -13.7,21.2 c -7.5,11.7 -15,23.2 -16.6,25.5 l -2.9,4.4 -5.5,-0.7 c -3.1,-0.4 -6,-1 -6.5,-1.5 -0.5,-0.5 3,-12.6 7.8,-27.5 4.8,-14.7 8.6,-26.9 8.4,-27.1 -0.2,-0.2 -8.6,24.2 -18.6,54.3 -10,30 -18.1,54.8 -17.8,55 0.2,0.2 1.2,-1.1 2.3,-2.9 1.1,-1.8 10.3,-16.1 20.3,-31.8 10.1,-15.7 32,-50.1 48.8,-76.5 16.7,-26.4 31.2,-48.8 32,-49.7 1.4,-1.7 4.8,-1.8 43.9,-1.8 h 42.3 l 0.1,3.8 c 0.1,2.7 0.3,3.1 0.7,1.6 0.6,-1.9 1.9,-1 11.9,8.5 l 11.2,10.6 -0.9,8 c -0.5,4.4 -1.9,16.5 -3,26.9 l -2.1,18.8 -8.6,24.9 c -5.1,14.6 -9,24.6 -9.5,24.1 -0.5,-0.5 -2.9,-0.6 -5.5,-0.1 -2.6,0.5 -4.9,0.7 -5.1,0.4 -0.3,-0.3 0.2,-9.6 1.2,-20.6 1,-11 1.6,-20.3 1.3,-20.5 -0.2,-0.3 -1,5.3 -1.6,12.3 -0.7,7.1 -1.9,18.7 -2.6,25.8 -0.8,7.2 -2.2,20.5 -3.1,29.8 l -1.8,16.7 h -28.8 -28.9 l 0.5,-3.2 c 0.6,-3.5 2.6,-22 2.6,-23.8 0,-0.6 -6.8,-1 -19.8,-1 h -19.8 l -7.9,14 -8,14 h -64.7 c -35.7,0 -64.8,-0.4 -64.8,-0.8 0,-0.4 7.9,-24.4 17.5,-53.3 20.8,-62.2 23,-69.1 20.9,-66.4 -2.5,3.2 -3.8,5.9 -2.5,5.1 0.6,-0.4 1.1,-0.5 1.1,-0.3 0,0.3 -5.2,15.7 -11.6,34.3 -6.3,18.7 -12.4,36.6 -13.5,39.9 -2.2,6.4 -3.8,9.7 -3.9,7.9 0,-0.6 -2.1,-1.9 -4.7,-2.9 -2.7,-1 -6.3,-2.6 -8.2,-3.6 -1.9,-1 -3.9,-1.5 -4.5,-1.2 -1.2,0.8 -0.5,-0.3 23.4,-38.7 10.8,-17.3 20,-32.2 20.4,-33 2.2,-4.4 -3.8,4.6 -14.4,21.5 -6.6,10.5 -22.2,35.2 -34.7,55 l -22.8,36 -20.4,0.3 -20.4,0.2 0.6,-14.7 c 0.4,-8.2 0.9,-24.9 1.1,-37.3 l 0.5,-22.5 -1,18.5 c -0.5,10.2 -1.1,19.9 -1.4,21.6 l -0.5,3.1 -10.8,-3 c -5.9,-1.6 -11.3,-3 -12,-3 -0.7,0 -1.1,-0.5 -0.9,-1.1 0.2,-0.6 6.4,-19.5 13.8,-42.1 l 13.4,-40.9 0.6,10.9 0.5,11 0.2,-12.5 c 0.1,-6.9 0.5,-13.6 0.7,-15 1.4,-6.6 -2.8,5.3 -21,60 -10.8,32.2 -20.3,60.4 -21.2,62.8 l -1.6,4.2 h -48 c -26.4,0 -47.7,-0.3 -47.4,-0.7 z M 852.9,138 875.6,70.5 h 6 5.9 L 887.3,83 c -0.2,11.8 -2.5,75.8 -4,108.3 l -0.6,14.7 h 14 14.1 l 4.2,-6.7 c 2.4,-3.8 17,-27 32.5,-51.8 C 963,122.8 980.3,95.2 986,86.3 L 996.4,70 h 5.8 c 3.2,0 5.8,0.3 5.8,0.8 0,0.4 -9.9,30.4 -22,66.7 -12.1,36.3 -22,66.6 -22,67.3 0,1 5,1.2 23.6,1 l 23.7,-0.3 6.2,-18.5 c 3.4,-10.2 17.1,-51.5 30.5,-91.8 l 24.4,-73.3 6.6,-3.6 c 3.6,-2 7.4,-4.2 8.5,-5 1.6,-1.1 -5.5,-1.3 -45.6,-1.3 h -47.6 l -26,40.3 C 954,74.4 940.1,96 937.4,100.2 c -4.3,6.8 -5.3,7.8 -7.8,7.8 h -2.9 l 0.6,-35.7 c 0.4,-19.7 1,-41.3 1.4,-48 L 929.3,12 h -40.9 -40.9 l -27.8,83.3 c -15.3,45.7 -29.1,87 -30.8,91.7 l -3,8.5 -7.9,4.3 c -4.4,2.4 -8.2,4.7 -8.5,5.3 -0.4,0.6 10.6,0.8 30,0.7 l 30.7,-0.3 z m 224.8,67.2 c 0.7,-0.4 4.6,-6.8 8.7,-14.2 l 7.4,-13.5 26.7,-0.3 26.6,-0.2 -0.5,3.2 c -0.3,1.8 -0.8,6.5 -1.1,10.3 -0.3,3.9 -0.8,8.9 -1.2,11.3 l -0.5,4.2 h 20.5 20.5 l 0.5,-3.2 c 1,-6 3,-29.9 2.5,-30.4 -0.3,-0.2 -1.1,6.2 -1.8,14.3 -0.7,8.1 -1.7,15.6 -2.2,16.6 -0.8,1.5 -2.7,1.7 -18,1.7 h -17.1 l 0.7,-7.2 c 0.3,-4 0.9,-9.7 1.3,-12.5 0.5,-4.5 0.3,-5.3 -1.1,-5.3 -0.9,0 -1.6,-0.8 -1.6,-2 0,-2 -0.7,-2 -27.3,-2 h -27.3 l -8,14.3 -8,14.2 -18.9,0.3 c -10.4,0.1 -19.2,-0.1 -19.6,-0.5 -0.7,-0.7 20.7,-34.9 75.9,-121.3 9.6,-15.1 17.6,-27.6 17.7,-27.8 0.4,-0.4 65.7,-0.3 66.2,0.2 0.3,0.2 -0.5,10.1 -1.7,22 -1.2,11.8 -2,22.3 -1.8,23.3 0.2,1 1,-4 1.7,-11.2 0.7,-7.1 1.9,-18.6 2.6,-25.4 0.8,-6.8 1.2,-12.8 0.9,-13.2 -0.3,-0.5 -16.5,-0.9 -35.9,-0.9 H 1129 l -3.4,5.3 c -13,19.9 -87.7,137.3 -93.8,147.5 l -2,3.2 h 23.4 c 12.8,0 23.8,-0.4 24.5,-0.8 z m 76.8,-57.4 c 1.1,-7.1 8.5,-61.5 8.5,-63.2 0,-1.2 -0.5,-1.6 -1.5,-1.2 -1.1,0.4 -1.5,-0.2 -1.5,-2 0,-2.5 -0.1,-2.5 -7.2,-2.2 l -7.3,0.3 -17.7,33.5 c -9.8,18.4 -17.8,33.8 -17.8,34.3 0,0.4 1.3,0.7 3,0.7 2.2,0 2.8,0.4 2.4,1.5 -0.5,1.3 2,1.5 18.9,1.5 h 19.6 z"
       id="path42" />
    <path
       d="m 783,204.3 c 0,-0.5 1.7,-1.8 3.8,-3 l 3.7,-2.1 14.9,-44.4 c 18.3,-54.7 37.5,-111.4 42.8,-127 l 4,-11.8 h 37.6 37.5 l -0.7,38.8 c -0.3,21.3 -0.9,42.2 -1.2,46.5 l -0.7,7.7 h 2.7 c 2,0 2.6,0.5 2.6,2.1 0,1.7 0.5,2 3.3,1.7 3.1,-0.3 4.5,-2.4 34.2,-48.3 l 31.1,-48 40.4,-0.2 40.5,-0.3 -4,2.5 -4,2.4 -30.5,91.8 -30.6,91.8 -20.2,0.3 c -15.9,0.2 -20.2,0 -20.2,-1 0,-0.7 9.6,-30.2 21.4,-65.6 18.9,-56.5 21.2,-64.2 19.5,-64.2 -1.4,0 -1.9,-0.7 -1.9,-2.5 0,-2.4 -0.2,-2.5 -6.5,-2.5 -3.9,0 -6.9,0.5 -7.6,1.3 -0.6,0.6 -19.9,31.1 -42.8,67.7 l -41.8,66.5 h -11.4 -11.4 l 0.3,-10.5 c 0.1,-5.8 0.9,-26 1.7,-45 0.8,-19 1.7,-42.8 2,-53 0.4,-10.2 0.9,-19.3 1.1,-20.2 0.4,-1.3 0,-1.8 -1.5,-1.8 -1.6,0 -2.1,-0.6 -2.1,-2.5 0,-2.6 -0.1,-2.6 -7.1,-2.3 l -7.2,0.3 -22.6,67.5 -22.6,67.5 -23.2,0.3 c -12.8,0.1 -23.3,-0.1 -23.3,-0.5 z"
       id="path44" />
    <path
       d="m 1113.7,146.3 c -1.5,-0.4 -0.4,-3.2 7.9,-19.1 5.4,-10.3 13,-24.7 17.1,-32.1 4,-7.4 7.3,-13.8 7.3,-14.2 0,-0.5 3,-0.9 6.6,-0.9 h 6.6 l -0.5,3.3 c -0.3,1.7 -2.5,16.8 -4.8,33.5 l -4.2,30.2 -17.1,-0.1 c -9.4,-0.1 -17.9,-0.3 -18.9,-0.6 z m 29.8,-10.5 c 0.3,-1.8 1,-6.4 1.4,-10.3 0.5,-3.8 1.7,-12.6 2.6,-19.4 0.9,-6.7 1.5,-12.4 1.3,-12.6 -0.3,-0.4 -23.8,43.8 -23.8,44.8 0,0.4 4,0.7 9,0.7 h 8.9 z"
       id="path46" />
    <path
       d="m 1200.1,212.3 c 0,-0.5 12.7,-38.8 28.2,-85.3 l 28.2,-84.5 h 44 44 l 0.6,3.5 c 0.4,2.1 0.7,2.6 0.8,1.3 0,-1.3 0.5,-2.3 0.9,-2.3 0.5,0 5.6,4.9 11.4,10.8 l 10.6,10.8 1.2,-4 c 0.7,-2.3 2.6,-7.8 4.2,-12.3 l 3,-8.3 h 44.5 c 26.1,0 44.2,0.4 43.9,0.9 -0.3,0.5 -8.9,5.7 -19.1,11.6 -10.2,5.9 -18.8,11.2 -19.2,11.8 -0.3,0.6 0.9,0.1 2.8,-1 8.8,-5.5 36.2,-21.3 36.8,-21.3 0.3,0 5.7,5.1 11.9,11.3 l 11.4,11.4 -16.9,9.5 c -21,12 -21.3,12.1 -21.3,10.9 0,-0.6 -1.5,-1.8 -3.2,-2.7 -1.8,-0.9 -6.4,-4.6 -10.3,-8.3 -4,-3.8 -2.8,-2.3 2.7,3.4 l 9.8,10 -7.3,21.5 c -4.1,11.8 -11.1,32.6 -15.6,46.1 -8.2,24.4 -8.3,24.6 -11,24.2 -1.4,-0.3 -6.9,-1.4 -12.1,-2.5 -5.2,-1 -10.3,-2 -11.2,-2.1 -1,-0.1 -1.8,-0.5 -1.8,-0.9 0,-0.4 5.7,-17.9 12.6,-38.9 6.9,-20.9 12.4,-38.2 12.2,-38.4 -0.2,-0.2 -8.2,23.1 -17.8,51.8 -9.5,28.7 -18.3,54.6 -19.3,57.5 l -2,5.2 h -43.9 -43.9 l 0.5,-27.2 c 0.3,-20.2 0.2,-23.7 -0.4,-13.3 -0.4,7.7 -0.8,14.7 -0.9,15.6 -0.1,1.4 -1.1,1.5 -10.3,0.2 -5.7,-0.8 -10.4,-1.5 -10.5,-1.7 -0.2,-0.1 2,-7.4 4.8,-16 2.8,-8.7 4.8,-16 4.6,-16.2 -0.2,-0.3 -4.8,12.8 -10.3,29.1 l -9.8,29.5 h -28.8 c -15.8,0 -28.8,-0.3 -28.7,-0.7 z m 52.3,-7.5 c 0.3,-0.7 8.9,-26.8 19.3,-58 L 1290.5,90 h 5.7 5.8 l -0.5,5.8 c -0.3,3.1 -1,21.9 -1.5,41.7 -0.6,19.8 -1.3,43.3 -1.7,52.3 l -0.6,16.2 37.4,-0.2 37.4,-0.3 1.3,-4 c 0.7,-2.2 11.5,-34.8 24,-72.4 l 22.8,-68.5 7.5,-4.4 c 4,-2.4 7.8,-4.8 8.4,-5.3 0.6,-0.6 -9.4,-0.8 -26.5,-0.7 l -27.3,0.3 -19.2,57.5 -19.2,57.5 -6.1,0.3 c -4.6,0.2 -6.2,0 -6.2,-1 0,-5 3.2,-78.8 4,-93.3 0.5,-9.9 1,-18.8 1,-19.7 0,-1.7 -2.4,-1.8 -37.3,-1.8 h -37.3 l -25.7,77.3 c -14.1,42.5 -25.7,77.6 -25.7,78 0,0.4 9.2,0.7 20.5,0.7 15.6,0 20.7,-0.3 20.9,-1.2 z M 1362.6,83.3 c -0.2,-0.3 -1.6,3.3 -3.1,7.9 -5.4,16.3 -8.7,24.8 -9.5,24.3 -0.4,-0.2 -2.2,0 -3.9,0.5 l -3.2,0.9 0.5,-20.2 c 0.3,-11.1 0.4,-19.7 0.2,-19.2 -0.3,0.6 -1,15.6 -1.6,33.5 -0.6,17.9 -1.3,34.5 -1.6,37 -0.3,2.5 4.7,-11 11,-29.9 6.4,-19 11.4,-34.6 11.2,-34.8 z"
       id="path48" />
    <path
       d="m 1217.6,204.1 c -0.3,-0.4 10.6,-34.2 24.2,-75 l 24.7,-74.2 h 34 l 34,0.1 0.3,4.7 c 0.2,2.7 -0.4,20.6 -1.2,39.8 -3.2,73.2 -3.1,67.5 -0.7,67.5 1.2,0 2.1,0.6 2.1,1.5 0,1.2 1.4,1.5 6.8,1.5 h 6.7 l 19.3,-57.7 19.2,-57.8 h 20.4 c 11.2,0 20.3,0.2 20,0.4 -0.2,0.2 -2.1,1.4 -4.1,2.7 l -3.8,2.2 -24,72.4 -24,72.3 h -34.5 -34.5 l 0.1,-11 c 0.2,-11.3 1.9,-62.3 3,-86.7 0.6,-12.3 0.4,-13.8 -1,-13.8 -0.9,0 -1.6,-0.8 -1.6,-2 0,-1.8 -0.7,-2 -6.8,-2 h -6.7 l -18.3,55.3 c -10.1,30.3 -18.8,56.4 -19.4,58 l -1,2.7 h -16.4 c -8.9,0 -16.5,-0.4 -16.8,-0.9 z"
       id="path50" />
    <path
       d="m 656.4,202.8 -4.8,-5.1 5.2,-4.6 c 2.9,-2.5 5.2,-5.2 5.2,-5.8 0,-0.9 2,-1.3 6.8,-1.3 h 6.7 l -0.9,11 -0.9,11 h -6.2 c -6.2,0 -6.2,0 -11.1,-5.2 z"
       id="path52" />
    <path
       d="m 137.9,175.5 c -0.2,-0.6 -4.8,-2.7 -10.1,-4.9 -5.4,-2.1 -9.8,-4.1 -9.8,-4.4 0,-1.3 24.4,-75.2 24.7,-74.9 0.1,0.2 -0.4,17.9 -1.2,39.3 -1.5,35.6 -2.4,47.6 -3.6,44.9 z"
       id="path54" />
    <path
       d="m 418,168 c 0,-0.6 -4.9,-1 -12.8,-1 h -12.8 l -6.4,-8.6 c -5.9,-8.1 -6.4,-8.5 -7.8,-6.8 -1.4,1.8 -1.4,1.8 -0.8,0.1 0.3,-1 0.6,-2.5 0.6,-3.3 0,-1.2 3.9,-1.4 23.5,-1.4 h 23.4 l 1.5,2.8 c 1.3,2.5 1.1,3.4 -1.6,11 -2.3,6.4 -3.4,8.2 -4.9,8.2 -1,0 -1.9,-0.4 -1.9,-1 z"
       id="path56" />
    <path
       d="m 576.9,164.1 c -1.4,-1.6 -2.4,-3.2 -2.3,-3.7 0.2,-0.5 3.7,-11.6 7.9,-24.7 l 7.7,-23.7 4.7,3.4 c 2.5,1.9 5,4.2 5.6,5.2 0.5,1 2,2.7 3.3,3.8 l 2.2,2.1 -2.9,4.5 c -1.6,2.5 -7.2,11.4 -12.5,19.7 -5.4,8.4 -10.1,15.5 -10.5,15.7 -0.4,0.3 -1.9,-0.8 -3.2,-2.3 z"
       id="path58" />
  </g>
  <g
     fill="#7bb2c7"
     id="g138"
     transform="translate(-1.1986814,-2)">
    <path
       d="m 443.5,216.6 c -12.3,-2.8 -19.1,-7.5 -22.1,-15.1 -3.4,-8.9 -2.4,-13 18.5,-75.6 10.6,-31.7 20.6,-60.5 22.2,-64 5.3,-11.3 13.3,-17.7 27,-21.6 5.7,-1.6 10.7,-1.8 47.4,-1.8 35.1,0 41.8,0.2 46.8,1.7 7.5,2.1 14.5,6.3 16.6,9.9 0.9,1.6 2,2.9 2.5,2.9 1.1,0 16.5,15.7 20.3,20.7 5.8,7.5 5.3,17.9 -1.2,28 -3.7,5.7 -4.9,6.9 -8.6,7.9 l -4.2,1.3 -6.7,-6.5 -6.7,-6.5 3.9,-12.2 c 4.1,-12.5 6,-26.7 4.2,-30 -0.6,-1 -0.9,1.8 -1,7.6 0,7.9 -0.5,10.8 -3.8,20.7 -2.1,6.3 -4.3,12.1 -4.9,12.8 -0.8,1 -6.5,1.2 -28.6,0.6 -15.2,-0.4 -27.8,-0.8 -28,-1 -0.1,-0.1 0.7,-3.3 1.9,-6.9 1.2,-3.6 1.9,-6.9 1.5,-7.3 -1.1,-1.1 -23.7,-0.6 -26.5,0.5 -2.2,1 -4.1,5.8 -17.3,45.8 -8.2,24.5 -14.6,45 -14.2,45.3 1.1,1.1 23.7,0.6 26.5,-0.6 1.9,-0.7 3,-2.6 4.9,-8.3 1.4,-4.1 2.7,-7.9 2.9,-8.6 0.3,-0.9 -2.3,-1.3 -9.5,-1.5 l -10,-0.3 5.4,-16.5 c 2.9,-9.1 6.3,-19.1 7.4,-22.2 l 2.1,-5.8 h 38.4 c 30.3,0 38.4,0.3 38.4,1.3 0,2.7 -25.9,78.6 -28.8,84.3 -5.4,10.6 -14.5,16.9 -29.4,20 -10.3,2.3 -78.4,3 -87.3,1 z m 83.6,-8 c 14.9,-2.7 20.8,-6.2 25.7,-15.5 2.6,-4.7 26.2,-71.8 26.2,-74.3 0,-0.5 -13.9,-0.8 -30.8,-0.8 h -30.8 l -4.4,14.2 c -4.4,14.1 -5,15.2 -11.6,20.3 -1.8,1.4 -1.7,1.5 1.1,0.9 1.7,-0.4 4.7,-1.8 6.7,-3.1 3.1,-1.9 5.1,-2.3 11.2,-2.3 h 7.5 l -4.6,13.8 c -2.5,7.5 -5.2,14.5 -6.1,15.4 -2.8,3.3 -10.5,5 -23,4.9 -14.4,0 -20.6,-1.6 -20.9,-5.1 -0.1,-1.4 7.1,-24.1 16,-50.5 l 16.2,-48 5,-2.5 c 4.6,-2.2 6.1,-2.4 17.5,-2.4 12.7,0.1 19.9,1.3 21.9,3.7 0.8,1 0.5,3 -1,7.5 -1.1,3.4 -2.4,6.2 -2.7,6.2 -0.4,0 -2,1.1 -3.7,2.4 l -3,2.5 5.5,-0.6 c 3.2,-0.3 6.7,-1.4 8.5,-2.7 2.7,-1.9 4.8,-2.2 19,-2.6 l 16,-0.5 2.2,-6.2 c 5,-14.1 5.9,-25.4 2.3,-29.7 -2.3,-2.8 -10.1,-5.6 -18.7,-6.6 -14.4,-1.8 -50.5,-2.4 -65.8,-1.1 -26,2.1 -33.5,5.8 -39.6,19.6 -1.2,2.6 -6.4,17.5 -11.6,32.9 -32.8,97.2 -31.6,93.1 -29.3,100 1.4,4.5 6.4,8 13.5,9.7 11.8,2.8 70.6,3.1 85.6,0.5 z"
       id="path62" />
    <path
       d="m 448.8,208 c -14.4,-1.7 -17.5,-4.3 -16.4,-13.8 0.7,-5.3 33.9,-106.7 38.6,-117.8 1.2,-2.7 2.4,-4.4 2.8,-3.7 0.5,0.7 6.4,1.2 16.9,1.5 9,0.1 16.3,0.5 16.3,0.7 0,0.2 -0.7,0.9 -1.5,1.5 -1.5,1.2 -33.5,96.9 -33.5,100.4 0,2.7 6.4,7.3 12.4,8.9 9.8,2.5 30,0.9 35.8,-2.9 1.7,-1.1 3.6,-5.3 7.1,-16 2.6,-7.9 4.7,-14.7 4.7,-15.1 0,-0.4 -0.9,-0.7 -2.1,-0.7 -1.6,0 -1.9,-0.4 -1.4,-2 0.6,-1.9 0.2,-2 -6.3,-2 -3.8,0 -7.1,-0.3 -7.4,-0.6 -0.3,-0.3 1.2,-5.9 3.4,-12.5 l 4,-11.9 h 26.9 c 14.8,0 26.9,0.3 26.9,0.7 0,2.2 -21.4,64.6 -23.8,69.3 -5.1,10.1 -13.2,14.2 -31.7,16 -11.7,1.1 -61.9,1.1 -71.7,0 z"
       id="path64" />
    <path
       d="m 554.7,85 c 0.4,-2 0.1,-3.6 -1,-4.8 -0.8,-0.9 -1.8,-2.7 -2.1,-3.9 l -0.7,-2.2 h 19.5 c 11.3,0 19.8,0.4 20.1,0.9 0.3,0.6 -0.2,3.7 -1.1,7 l -1.7,6 h -16.8 -16.8 z"
       id="path66" />
    <path
       d="m 474.2,68.5 c 0.9,-1.9 1.8,-2 26.6,-1.9 93.2,0.4 90.2,0.3 90.2,1.9 0,1.4 -3.6,1.6 -29.2,1.5 -16.1,-0.1 -42.6,0 -58.9,0.2 -29.3,0.3 -29.6,0.3 -28.7,-1.7 z"
       id="path68" />
    <path
       d="m 6,211.4 c 1.4,-0.8 10.6,-6.1 20.5,-11.7 14,-8 18.1,-10.7 18.6,-12.7 0.7,-2.6 53.6,-159.5 58.6,-174 l 3,-8.5 L 154,4.2 201.2,4 200.6,38.7 c -0.4,19.2 -0.9,38.4 -1.2,42.8 -0.5,7.1 -0.4,7.8 0.9,6.5 0.9,-0.8 9.6,-14.1 19.4,-29.5 9.8,-15.4 21.7,-34 26.3,-41.2 L 254.5,4 H 319 c 37.7,0 64,0.4 63.5,0.9 -0.6,0.5 -9.1,5.4 -19,11 -9.9,5.5 -18.5,10.4 -19.1,10.8 -0.7,0.4 -15.1,42.5 -32,93.6 L 281.5,213 h -32.2 c -25.4,0 -32.1,-0.3 -31.8,-1.2 3.7,-10 40.4,-121.3 40.1,-121.6 -0.7,-0.6 -4,6.1 -4.2,8.3 -0.2,3.3 -14.4,44 -15.4,44.3 -0.5,0.2 -0.6,1.1 -0.3,2 0.4,1.3 0.2,1.2 -1,-0.3 -0.9,-1.1 -1.7,-1.6 -1.7,-1.1 0,0.6 -0.7,0.1 -1.6,-1 -0.8,-1 -1.3,-1.2 -0.9,-0.4 0.4,0.8 -0.2,0.4 -1.3,-0.9 -1.9,-2.3 -2,-2.3 -3,-0.5 -0.6,1 -1.2,1.6 -1.2,1.2 0,-0.5 5.7,-9.9 23.2,-38.1 1.7,-2.6 2.8,-5 2.6,-5.2 -0.4,-0.4 -15.5,23.2 -59.3,92.8 L 179.8,213 h -20.1 -20.2 l 0.7,-20.2 c 0.4,-11.2 1.4,-39.8 2.4,-63.6 0.9,-23.8 1.5,-43.5 1.3,-43.7 -0.2,-0.2 -10.1,28.4 -21.9,63.6 L 100.6,213 H 52 C 8.3,212.9 3.7,212.8 6,211.4 Z M 148.4,210 c 1.4,-0.5 2.6,-1.6 2.6,-2.5 0,-1.3 1.9,-1.5 12,-1.5 h 12 l 4.6,-7.2 c 2.6,-4 9.1,-14 14.4,-22.3 5.4,-8.2 16,-25.1 23.5,-37.5 7.6,-12.4 19.9,-31.9 27.3,-43.5 7.4,-11.6 14,-21.9 14.7,-23 1,-1.5 2.4,-2 6.9,-2.1 3.8,-0.1 5.6,0.3 5.6,1.1 0,0.7 -9.9,31 -22,67.4 -12.1,36.3 -22,66.3 -22,66.6 0,0.3 10.8,0.5 24,0.5 h 23.9 l 7.2,-22.2 C 287,171.5 295.5,146 302,127 c 6.5,-19 16.9,-50.2 23.2,-69.5 l 11.4,-35 8.7,-5 c 4.7,-2.7 8.7,-5.4 8.7,-5.9 0,-0.9 -93.6,-0.5 -94.9,0.4 -0.5,0.3 -6.6,9.5 -13.6,20.5 -7.1,11 -17.2,26.5 -22.5,34.5 -5.3,8 -13.4,20.5 -17.9,27.8 -7.5,12 -8.6,13.2 -11.2,13.2 H 191 l 0.5,-5.7 c 0.4,-4.7 1.6,-56.9 1.9,-84.1 l 0.1,-6.2 h -40 -39.9 l -2.8,-2.6 -2.7,-2.6 -0.6,3.5 c -0.5,2.4 -0.2,4.2 0.9,5.8 1.4,2.3 0,7 -27.9,90.4 -16.2,48.4 -29.5,88.1 -29.5,88.2 0,0.1 -3.8,2.3 -8.5,5 -4.7,2.6 -8.5,5.1 -8.5,5.6 0,0.4 13.5,0.7 30,0.7 29.7,0 29.9,0 31.1,-2.2 0.6,-1.2 7.3,-20.6 14.9,-43.2 19.3,-57.6 26.1,-77 27.1,-77.4 0.5,-0.2 0.6,-0.8 0.3,-1.4 -0.5,-0.7 -0.1,-0.7 1.1,0 1.4,0.7 2.2,0.6 3.2,-0.3 1,-1.1 1,-2.1 -0.2,-5.6 -0.8,-2.3 -1.3,-4.4 -1,-4.7 0.7,-0.7 11.5,-1 11.9,-0.3 0.2,0.3 0,8.5 -0.5,18.1 -0.4,9.6 -1.5,36.6 -2.3,60 -2.1,56.1 -2.1,56.7 -5.4,59.6 -2.6,2.3 -2.6,2.3 -0.5,2.4 1.2,0 3.3,-0.4 4.7,-1 z"
       id="path70" />
    <path
       d="m 47,204 c 0,-0.4 1.4,-1.3 3.1,-2 1.7,-0.7 3.7,-2.3 4.4,-3.4 0.8,-1.2 7.2,-19.4 14.4,-40.6 C 96.5,75.9 98,71.7 99.6,73 c 0.6,0.6 9.1,1.1 19.3,1.2 17.9,0.1 18.1,0.1 17.6,2.2 -1.9,6.7 -41.9,126.3 -42.6,127.2 -1,1.2 -46.9,1.7 -46.9,0.4 z"
       id="path72" />
    <path
       d="M 162.8,204.2 152,203.9 v -3.7 c 0,-2.1 0.4,-13 1,-24.2 0.5,-11.3 1.6,-36.7 2.5,-56.5 1.5,-35.1 2.4,-48.2 3.2,-45.8 0.3,0.8 2.8,1 8.6,0.6 4.5,-0.3 11.5,-0.2 15.5,0.2 l 7.2,0.7 v 16.9 c 0,15.9 0.1,16.9 1.9,16.9 1,0 2.1,0.9 2.4,2 0.4,1.4 1.4,2 3.5,2 2.7,0 3.9,-1.5 16.2,-20.1 7.3,-11.1 13.5,-19.7 13.9,-19.2 0.3,0.5 6,0.9 12.8,0.9 7,-0.1 12.6,0.3 13.2,0.9 0.7,0.7 0.1,2.5 -1.8,5.5 -1.6,2.5 -12.5,20 -24.3,39 -35.8,57.4 -51,81.4 -52.7,83 -1.3,1.2 -3.9,1.4 -12.3,1.2 z"
       id="path74" />
    <path
       d="m 252.7,204.3 c -16.8,-0.3 -18.8,-0.5 -18.3,-1.9 0.4,-0.9 6.1,-17.9 12.7,-37.8 13.6,-40.6 26.2,-77.5 29.1,-85.3 l 1.9,-5.2 18.4,0.2 c 11.2,0.1 18.8,0.6 19.4,1.2 0.8,0.8 -1.2,8.2 -6.5,24.5 -14.2,44.4 -33.7,102.5 -34.7,103.8 -0.5,0.6 -1.5,1.1 -2.1,1 -0.6,-0.2 -9.6,-0.4 -19.9,-0.5 z"
       id="path76" />
    <path
       d="m 318.5,128.4 c 15.6,-46.6 28.7,-84.9 29,-85.3 0.8,-0.7 110.5,-0.9 110.5,-0.1 0,0.3 -3.2,10.5 -7.2,22.7 l -7.2,22.3 -23.4,0.2 -23.5,0.3 -1.2,3.5 c -0.7,1.9 -1.5,4.5 -1.9,5.8 l -0.7,2.2 h 23.1 23 l -0.7,2.8 c -0.3,1.5 -3.6,11.7 -7.3,22.7 l -6.6,20 -23.5,0.3 -23.5,0.2 -3.6,11 -3.6,11 h 22.9 c 17.6,0 22.9,0.3 22.9,1.2 0,0.7 -3.2,10.9 -7.1,22.5 L 401.8,213 H 346 290.1 Z m 82.4,63 c 2.8,-8 5.1,-15 5.1,-15.5 0,-0.5 1.1,-0.9 2.4,-0.9 2.4,0 5.6,-2.3 5.6,-4.1 0,-1.4 -0.5,-1.2 -5.7,2.1 l -4.7,3 h -21.8 c -19.9,0 -24.1,-0.5 -20.8,-2.5 0.5,-0.3 0.7,-1.1 0.5,-1.8 -0.2,-0.7 2,-8.4 4.8,-17.2 l 5.3,-16 12.9,-0.3 c 7.2,-0.1 17.8,0.1 23.7,0.5 5.9,0.5 10.5,0.7 10.3,0.5 -0.2,-0.2 1.9,-6.8 4.6,-14.7 2.7,-7.9 4.9,-14.8 4.9,-15.4 0,-0.8 -6.9,-1.1 -23.2,-1.1 h -23.3 l 3,-2.6 c 2.2,-1.8 2.4,-2.2 0.8,-1.4 -1.3,0.6 -2.3,0.9 -2.3,0.8 0,-0.2 1.8,-5.7 4,-12.3 l 3.9,-12 h 15.8 c 8.7,0 19.2,-0.1 23.4,-0.3 L 437.7,80 442,67.7 c 5.2,-15.1 5.4,-15.3 8.5,-16.1 1.3,-0.3 3.2,-2 4,-3.6 1.9,-3.7 1,-3.8 -3,-0.2 l -3,2.7 -25.2,-0.5 c -13.9,-0.3 -35.4,-0.3 -47.8,0 L 352.8,50.5 339.5,90 c -7.3,21.7 -14.6,43.3 -16.3,48 -1.7,4.7 -7.2,21.3 -12.2,37 -5.1,15.7 -9.5,29.1 -9.7,29.8 -0.4,0.9 9.4,1.2 47,1.2 h 47.5 z"
       id="path78" />
    <path
       d="m 323.8,204.2 -16.7,-0.2 17.8,-52.8 c 9.9,-29 19.8,-58.2 22.2,-65 l 4.4,-12.4 43.2,0.4 c 35.6,0.2 43.2,0.5 42.8,1.6 -0.3,0.8 -0.5,1.6 -0.5,1.8 0,0.2 -10.3,0.4 -22.9,0.4 -17.1,0 -23.1,0.3 -23.9,1.3 -0.5,0.6 -3,7.5 -5.5,15.2 l -4.4,14 2.7,0.3 c 2.2,0.2 2.7,0.7 2.3,2.3 -0.5,1.8 0.2,1.9 19.9,1.9 h 20.5 l -3.9,12 -4,12 -23.6,0.2 -23.6,0.3 -6.3,19 c -3.4,10.5 -6.3,19.3 -6.3,19.8 0,0.4 1.1,0.7 2.5,0.7 1.6,0 2.5,0.6 2.5,1.5 0,1.3 2.9,1.5 20,1.5 11,0 20,0.4 20,0.8 0,0.4 -1.7,5.9 -3.8,12.2 l -3.9,11.5 h -27.4 c -15.1,0 -34.9,-0.1 -44.1,-0.3 z"
       id="path80" />
    <path
       d="m 557.1,209.3 c 1.2,-2.1 14,-22.2 28.4,-44.8 14.3,-22.5 37.7,-59.3 51.9,-81.7 L 663.3,42 h 61 c 36.6,0 60.7,0.4 60.2,0.9 -0.6,0.5 -9.4,5.7 -19.7,11.6 -17.4,9.9 -18.8,10.8 -19.2,13.8 -0.3,1.8 -1.2,10.9 -2.1,20.2 -2.8,29.1 -6.1,61.5 -10.6,103.8 l -2.3,20.7 h -28.4 -28.4 l 0.6,-3.7 c 1.1,-7.5 2.6,-23.6 2.2,-24 -0.7,-0.7 -39,-0.3 -39.7,0.5 -0.4,0.4 -4.1,6.6 -8.2,13.7 l -7.5,13 -33.2,0.3 -33.2,0.2 z m 67.4,-17.8 8,-14.4 26.4,-0.1 h 26.4 l -0.6,7.8 c -0.4,4.2 -1,10.7 -1.3,14.5 l -0.7,6.7 h 20.1 c 11,0 20.3,-0.4 20.6,-0.9 0.3,-0.4 1.2,-7.7 2.1,-16.2 2.7,-27.6 4.4,-43.8 8.5,-80.4 2.1,-19.8 4,-38.6 4.1,-41.8 l 0.2,-5.8 7.9,-4.6 c 4.3,-2.4 8,-4.9 8.4,-5.4 0.3,-0.5 -17,-0.9 -43.3,-0.9 h -43.8 l -10,15.7 c -5.5,8.7 -18.3,28.7 -28.5,44.5 -18.8,29.2 -59.2,93.3 -59.8,94.9 -0.2,0.5 10,0.9 23.5,0.9 h 23.8 z"
       id="path82" />
    <path
       d="m 578.7,204.2 c -0.9,-0.2 -1.7,-0.5 -1.7,-0.7 0,-0.4 55.8,-88.1 71.7,-112.8 7.9,-12.1 11.9,-17.5 12.7,-16.9 0.6,0.5 17.5,0.8 37.5,0.7 l 36.3,-0.3 -0.6,9.2 c -1.4,18.7 -11.5,119.6 -12.1,120.6 -0.7,1.1 -35,0.5 -35,-0.6 0.1,-2.9 1.6,-17.8 2.1,-20.4 0.6,-2.6 0.4,-3 -1.5,-3 -1.8,0 -2.1,-0.4 -1.6,-2 0.6,-2 0.2,-2 -26.9,-2 h -27.5 l -7.7,13.8 c -4.2,7.5 -7.8,13.9 -8,14.1 -0.4,0.4 -35.4,0.7 -37.7,0.3 z m 114.7,-56.4 c 0.3,-1.8 1.5,-10.3 2.6,-18.8 1.2,-8.5 3,-21.4 4.1,-28.7 2.3,-15.7 2.3,-17.3 0.5,-17.3 -0.8,0 -1.6,-1 -1.8,-2.2 -0.3,-2.1 -0.8,-2.3 -7.3,-2.3 h -6.9 l -4.1,7.5 c -9.4,17.2 -31.5,60 -31.5,61 0,0.5 1.2,1 2.6,1 1.9,0 2.5,0.4 2,1.5 -0.5,1.3 2.1,1.5 19.4,1.5 h 19.9 z"
       id="path84" />
    <path
       d="m 651,145.8 c 0,-0.6 7.1,-14.5 15.7,-30.7 8.6,-16.3 16.3,-30.8 17,-32.3 1.3,-2.6 1.9,-2.8 7.4,-2.8 5.5,0 5.9,0.2 5.9,2.2 0,2.1 -4.4,35.5 -7.3,55.8 l -1.2,8.5 -18.8,0.3 c -14.1,0.2 -18.7,-0.1 -18.7,-1 z m 31.9,-16 c 0.7,-5.1 2.1,-15.3 3.2,-22.6 1.1,-7.4 1.8,-13.6 1.6,-13.8 -0.3,-0.3 -3.5,5.2 -7.2,12.3 -3.7,7 -9.2,17.4 -12.2,23.1 l -5.5,10.2 h 9.5 9.4 z"
       id="path86" />
    <path
       d="m 740.3,212.3 c 0.4,-0.4 9.4,-5.5 19.9,-11.4 l 19.2,-10.7 14.7,-43.9 C 818.4,74.1 833.6,29.2 838,16.3 L 842.2,4 h 47.6 47.5 l -0.6,15.8 c -0.4,8.6 -0.9,27.9 -1.3,42.7 l -0.6,27 7.9,-12 C 947,70.9 958.8,52.6 969,36.8 979.1,21 988.1,7.2 989,6 c 1.5,-2 1.9,-2 65.9,-1.8 l 64.5,0.3 -18.9,10.4 c -10.3,5.8 -19.6,11.2 -20.5,12 -1.8,1.6 -60.6,176.8 -59.7,177.7 0.2,0.3 5.8,-8 12.4,-18.3 6.6,-10.3 28.8,-45.1 49.3,-77.3 20.5,-32.2 38.6,-60.4 40.2,-62.7 l 2.9,-4.3 h 42.4 42.5 l 0.1,3.8 c 0.1,2.5 0.3,3 0.6,1.3 0.4,-2.2 1.5,-1.3 11.8,8.9 7.1,7.1 11.1,11.8 10.9,12.9 -0.2,0.9 -1.5,12.2 -2.9,25.1 -1.9,17.2 -3.3,25.7 -5.2,31.7 -2.2,6.7 -2.9,8 -4.1,7.1 -0.9,-0.8 -1.6,-0.8 -2,-0.1 -0.4,0.6 -3.6,0.9 -7.4,0.8 -7.1,-0.2 -8.1,0.1 -9.1,2.5 -0.4,0.8 -0.5,0.2 -0.2,-1.5 0.2,-1.6 0.7,-6.8 1,-11.5 0.3,-4.7 1,-12.5 1.5,-17.5 2.5,-23.6 5,-50.3 4.9,-53 -0.1,-3.2 -2.5,16.9 -5.3,45 -1,9.4 -2.6,24.9 -3.6,34.5 -1,9.6 -2.7,25.2 -3.6,34.5 -0.9,9.4 -2.4,23.5 -3.3,31.5 l -1.6,14.5 -28.8,0.3 -28.8,0.2 0.6,-3.2 c 0.9,-5.4 2.5,-20.1 2.5,-22.8 v -2.5 h -19.6 -19.7 l -8.1,14.2 -8.1,14.3 h -64.7 c -35.7,0 -64.8,-0.3 -64.8,-0.8 0,-0.4 9.2,-28.3 20.4,-62 11.3,-33.6 20.3,-61.2 20.1,-61.2 -0.9,0 -4.4,7.3 -3.9,8.1 0.3,0.5 0.1,0.8 -0.4,0.7 -0.6,-0.2 -17.4,25.6 -37.4,57.2 l -36.4,57.5 -20.2,0.3 -20.2,0.2 v -4 c 0,-2.3 0.4,-15 1,-28.3 0.5,-13.3 1.4,-37.9 2,-54.7 0.5,-16.8 1.2,-33.4 1.5,-37 0.4,-5.6 -2.1,0.8 -18.4,49.5 -10.4,30.8 -20.3,60.2 -22.1,65.3 l -3.3,9.2 h -48 c -26.4,0 -47.7,-0.3 -47.4,-0.7 z m 401.8,-4.4 c 0.9,-1.8 2.4,-1.9 21.9,-1.9 h 20.9 l 0.6,-4.2 c 0.3,-2.4 1.9,-17.6 3.5,-33.8 5.5,-55 10,-99.5 11,-107.5 0.6,-4.4 1,-8.5 1,-9.2 0,-1 -7.5,-1.3 -36,-1.3 h -35.9 l -1.6,2.3 c -4.4,6.1 -87.4,136.5 -95.8,150.5 l -1.9,3.2 24.3,-0.2 24.4,-0.3 7.8,-14.2 7.8,-14.3 h 26.4 26.5 l -0.5,4.3 c -0.3,2.3 -1,8.5 -1.5,13.7 -1,8.7 -1.4,9.8 -4.3,12.8 -1.9,2 -2.5,3.1 -1.4,2.6 1,-0.3 2.2,-1.5 2.8,-2.5 z M 842.2,170 c 17.3,-51.9 32.9,-97.4 33.8,-98.5 0.5,-0.6 3.3,-1 6.2,-1 h 5.3 l -0.2,12 c -0.2,11.3 -2.5,74.9 -4,108.3 l -0.6,15.2 h 14 14.1 l 8.5,-13.2 c 4.7,-7.3 14.3,-22.7 21.4,-34.3 15,-24.3 42.9,-68.5 48.3,-76.5 2,-3 4.4,-6.9 5.3,-8.6 1.5,-2.9 2,-3.1 7.1,-3.2 3.1,0 5.8,0.3 6.1,0.8 0.2,0.4 -9.6,30.9 -22,67.9 l -22.4,67.1 24.1,-0.2 24,-0.3 6,-17 c 3.2,-9.3 8.4,-24.9 11.4,-34.5 3.1,-9.6 11.2,-34.1 18.1,-54.5 6.8,-20.3 15.4,-46.1 19.1,-57.3 l 6.6,-20.2 8.3,-4.7 c 4.6,-2.6 8.3,-4.9 8.3,-5.2 0,-0.3 -21.3,-0.5 -47.2,-0.4 l -47.3,0.2 -5.1,7.8 c -6.9,10.5 -31.6,48.6 -45.6,70.5 -10.4,16.3 -11.5,17.8 -14.2,17.8 h -2.9 l 0.9,-38.7 c 0.5,-21.4 0.9,-43 0.9,-48.1 V 12 l -40.4,-0.1 h -40.5 l -30.8,91.8 c -16.9,50.5 -30.8,91.8 -30.8,91.8 0,0 -3.8,2.1 -8.5,4.5 -4.7,2.5 -8.5,4.8 -8.5,5.3 0,0.4 13.8,0.6 30.7,0.5 l 30.6,-0.3 z"
       id="path88" />
    <path
       d="m 1055.9,204 -17.6,-0.5 6,-9.5 c 21.5,-34 63.8,-100.3 69.9,-109.5 4.8,-7.2 7.8,-10.9 8.8,-10.7 0.8,0.2 17.8,0.4 37.8,0.3 h 36.3 l -0.5,2.7 c -0.3,1.5 -0.8,6.5 -1.1,11.2 -1.2,16.6 -10.5,109.6 -11.2,112.8 l -0.8,3.3 -16.3,0.2 c -9,0.1 -16.8,-0.1 -17.4,-0.4 -0.8,-0.5 -0.8,-3.6 0,-10.8 1.5,-12.9 1.5,-13.1 -0.3,-13.1 -0.8,0 -1.5,-0.9 -1.5,-2 0,-2 -0.7,-2 -27.3,-2 h -27.3 l -7.3,13 c -7.6,13.6 -9.5,16.1 -11.4,15.8 -0.7,-0.1 -9.1,-0.5 -18.8,-0.8 z m 98.5,-55.2 c 0.3,-1.3 0.7,-4.3 1,-6.8 0.9,-7.4 7.6,-53.3 8.2,-55.8 0.4,-1.8 0,-2.5 -1.6,-2.9 -1.5,-0.4 -1.9,-1.1 -1.5,-2.4 0.8,-2.3 -2.1,-3.1 -9.5,-2.7 -4.8,0.3 -5.5,0.6 -7,3.3 -0.9,1.7 -5.8,11.1 -10.9,21 -5.2,9.9 -12.4,23.9 -16.2,31.1 -3.8,7.2 -6.9,13.4 -6.9,13.7 0,0.4 1.4,0.7 3.1,0.7 2.7,0 3,0.2 1.9,1.5 -1.1,1.3 1.1,1.5 18.9,1.5 20,0 20.1,0 20.5,-2.2 z"
       id="path90" />
    <path
       d="m 1116.8,146.3 -4.6,-0.4 8.5,-16.7 c 4.7,-9.2 12.4,-23.5 17,-31.9 4.5,-8.4 8.3,-15.7 8.3,-16.2 0,-0.7 2.6,-1.1 6.5,-1.1 h 6.6 l -0.6,3.3 c -0.3,1.7 -1.2,7.9 -1.9,13.7 -0.8,5.8 -2.7,19.4 -4.2,30.2 l -2.9,19.8 -14,-0.2 c -7.7,-0.1 -16.1,-0.3 -18.7,-0.5 z m 26.6,-10 c 0.3,-1.6 0.7,-4.6 1,-6.8 0.3,-2.2 1.5,-10.9 2.6,-19.3 1.2,-8.3 2,-15.7 1.8,-16.2 -0.3,-0.9 -22.9,40.9 -23.6,43.8 -0.3,0.9 1.9,1.2 8.6,1.2 h 9 z"
       id="path92" />
    <path
       d="m 783,204 c 0,-0.3 1.7,-1.5 3.9,-2.7 l 3.8,-2.2 12.8,-38.3 c 7,-21.1 16.2,-48 20.3,-59.8 4.1,-11.8 7.9,-22.8 8.4,-24.5 l 1,-3 18.9,0.3 c 14.9,0.2 19.1,0.6 19.5,1.6 0.4,1.1 -40.9,127.1 -42,128.3 -0.5,0.5 -46.6,0.8 -46.6,0.3 z"
       id="path94" />
    <path
       d="m 887.4,204.1 c -0.2,-0.2 -0.2,-4.1 0.1,-8.5 0.3,-4.5 1.2,-24.5 2,-44.6 0.9,-20.1 2,-44.8 2.5,-55 0.6,-10.2 1,-19.2 1,-20.1 0,-1.4 1.9,-1.6 15.3,-1.6 8.3,0 15.8,0.2 16.6,0.5 1.1,0.4 1.2,3.6 0.6,17.3 l -0.7,16.9 h 2.6 c 1.9,0 2.6,0.5 2.6,2 0,1.6 0.7,2 3.3,2 3.1,0 3.7,-0.8 16.5,-20.5 7.4,-11.3 13.6,-20.5 13.8,-20.5 0.2,0 0.3,0.5 0.1,1 -0.1,0.6 4.6,1.1 12.6,1.2 7,0.1 13.1,0.5 13.7,0.8 0.5,0.3 -2.3,5.7 -6.2,12 -11,17.7 -47,75.2 -60.8,97.3 l -12.4,19.7 -4.6,0.1 c -2.5,0 -7.6,0.1 -11.3,0.2 -3.8,0.1 -7.1,0 -7.3,-0.2 z"
       id="path96" />
    <path
       d="m 984.3,204.2 c -7.9,-0.1 -14.3,-0.6 -14.3,-1 0,-0.6 31.3,-94.3 39.9,-119.7 l 3.1,-9 20,-0.1 c 11,-0.1 20,0 20,0.2 0,0.8 -21,65.1 -31.3,95.9 l -11.4,34 h -5.9 c -3.2,0 -12.3,-0.1 -20.1,-0.3 z"
       id="path98" />
    <path
       d="m 965,70 c 0.1,-3.3 3.6,-3.5 59.9,-3.2 24.4,0.2 27.2,0.4 26.1,1.7 -1.1,1.3 -4.4,1.5 -20.1,1.5 -10.4,-0.1 -19.3,0.1 -19.8,0.4 -0.5,0.4 -1.1,0.1 -1.3,-0.4 -0.2,-0.8 -7.3,-0.8 -22.6,-0.3 C 975,70.1 965,70.3 965,70 Z"
       id="path100" />
    <path
       d="m 838.3,68.9 c -1.1,-0.3 -1.3,-0.8 -0.6,-1.2 1.3,-0.8 84.9,-1.8 86.9,-1 0.8,0.3 1.4,1.1 1.4,1.9 0,1.1 -7.2,1.3 -43,1.1 -23.7,-0.1 -43.8,-0.5 -44.7,-0.8 z"
       id="path102" />
    <path
       d="m 1200.4,211.3 c 0.3,-1 13.1,-39.4 28.4,-85.3 l 27.8,-83.5 h 43.9 44 l 0.6,5.5 c 0.6,5.5 0.6,5.5 0.7,1 l 0.2,-4.5 10.9,10.9 10.9,10.9 -4.9,14 c -2.6,7.7 -5,14 -5.1,14.1 -0.2,0.1 -1.3,0.7 -2.5,1.4 -1.3,0.6 -3.8,1.2 -5.6,1.2 -1.8,0 -3.8,0.5 -4.5,1.2 -1,1 -1.1,-3.5 -0.8,-20.7 0.4,-19.2 0.4,-20.3 -0.4,-8.5 -0.5,7.4 -1.3,26.6 -1.9,42.5 -0.6,16 -1.4,31.7 -1.7,35 -0.4,4.7 3,-4.5 16.1,-43.5 9.1,-27.2 17.5,-52.1 18.7,-55.2 l 2,-5.8 h 44.6 c 37.3,0 44.4,0.2 43.2,1.3 -1.4,1.3 -20,12.2 -32.6,19.2 l -5,2.8 -17.7,52.6 c -9.7,28.9 -20.8,62.2 -24.8,73.9 l -7.1,21.2 h -44 -44 l 0.6,-17.7 c 1.7,-49.1 2.8,-86.5 2.4,-86.8 -0.2,-0.2 -8.2,23.2 -17.8,52.1 l -17.4,52.4 h -28.9 c -27,0 -28.8,-0.1 -28.3,-1.7 z m 8.6,-2.9 c 2.5,-2.3 3.2,-2.4 22.8,-2.6 l 20.3,-0.3 19.2,-57.7 19.2,-57.8 h 5.8 5.8 l -0.5,4.3 c -0.3,2.3 -0.8,13.4 -1.1,24.7 -1.8,68.3 -2.7,86.5 -4.4,88.5 -1.6,2 -1.6,2 0.5,0.3 1.9,-1.6 5.3,-1.8 39.2,-1.8 h 37.1 l 1.6,-5.7 c 2,-7.1 17.2,-53.1 33.9,-102.8 l 12.4,-37 7.2,-4.1 c 3.9,-2.3 7.7,-4.7 8.3,-5.3 0.8,-0.8 -5.8,-1.1 -26.2,-0.9 l -27.4,0.3 -19.3,57.5 c -10.6,31.6 -19.3,57.6 -19.4,57.8 0,0.1 -2.7,0.2 -6,0.2 h -6 l 0.5,-10.7 c 0.3,-6 1,-23.4 1.5,-38.8 0.6,-15.4 1.5,-35.2 2,-44 0.6,-8.8 1,-17.5 1,-19.2 V 50 h -37.4 -37.4 l -25.7,77.8 c -15.3,46.6 -26.3,78.3 -27.4,79.2 -0.9,0.8 -2.8,2.3 -4.2,3.2 -1.9,1.4 -2,1.6 -0.4,1.1 1.1,-0.3 3.1,-1.6 4.5,-2.9 z"
       id="path104" />
    <path
       d="m 1217.9,203.9 c -0.8,-0.5 37.1,-115.4 41.6,-126.2 l 1.6,-3.8 35.9,0.3 36,0.3 V 72 69.5 l -27.3,-0.3 c -14.9,-0.1 -29.4,-0.6 -32.2,-1.1 -3.4,-0.6 5.4,-0.9 27.8,-1 L 1334,67 v 10.3 c 0,5.6 -0.7,25.5 -1.5,44.2 -2,46.1 -2,45.5 0.5,45.5 1.1,0 2,0.7 2,1.5 0,1.2 1.4,1.5 6.8,1.5 h 6.7 l 14.4,-42.8 c 7.9,-23.5 15.2,-45.1 16.3,-47.9 l 1.9,-5.3 16.4,0.3 16.4,0.2 -0.6,2.5 c -0.3,1.4 -9.9,30.6 -21.2,65 l -20.7,62.5 -34.4,-0.3 c -19,-0.2 -34.6,-0.5 -34.7,-0.6 -0.3,-0.3 2.1,-65.7 3.5,-95 0.6,-13.6 0.6,-15 -1,-15.4 -0.9,-0.2 -1.8,-1.4 -2,-2.6 -0.3,-1.9 -0.9,-2.1 -6.8,-2.1 h -6.5 l -18.7,56.5 c -10.3,31.1 -19.1,57.1 -19.6,57.9 -0.6,1.1 -4.1,1.4 -16.6,1.5 -8.7,0.1 -16.2,-0.2 -16.7,-0.5 z"
       id="path106" />
    <path
       d="m 1282.4,159.9 c -0.3,-0.6 -1.7,-0.8 -3,-0.5 l -2.3,0.6 1.5,-5.2 c 0.9,-2.8 4.2,-13 7.4,-22.7 5.1,-15.1 5.9,-16.8 5.5,-12.1 -0.3,3 -0.7,13.4 -1.1,23 l -0.6,17.5 -3.3,0.2 c -1.9,0.2 -3.7,-0.2 -4.1,-0.8 z"
       id="path108" />
    <path
       d="m 739.4,144 c 0.4,-5.2 1.1,-13.1 1.6,-17.5 0.5,-4.4 1.9,-18.6 3,-31.5 1.2,-12.9 2.5,-24.5 2.8,-25.6 0.6,-1.9 1.9,-1 11.9,8.5 l 11.2,10.6 -1.4,11.5 c -0.7,6.3 -2.1,18.7 -3,27.5 -1.9,19.1 -2.5,23.1 -3.5,21.6 -0.5,-0.8 -2.5,-0.7 -7.5,0.4 -3.7,0.9 -7.4,1.4 -8.1,1.1 -0.7,-0.3 -1.6,-0.1 -2,0.5 -0.3,0.6 -1.2,0.8 -1.9,0.5 -0.7,-0.2 -1.8,0.1 -2.5,0.7 -1,1 -1.1,-0.7 -0.6,-8.3 z"
       id="path110" />
    <path
       d="m 970.7,149.7 c -0.4,-1 -1.2,-1.4 -2.1,-1.1 -0.9,0.3 -2.2,-0.1 -3,-0.9 -0.8,-0.8 -2.6,-1.3 -4,-1.2 -1.8,0.2 -2.4,-0.1 -2,-0.8 3.2,-5.7 28.9,-46.5 29.1,-46.3 0.2,0.2 -3.4,11.3 -8,24.7 -4.6,13.4 -8.6,25.1 -8.9,25.8 -0.3,1.2 -0.6,1.2 -1.1,-0.2 z"
       id="path112" />
    <path
       d="m 1416.5,147.5 c -2.2,-0.6 -5.5,-1.9 -7.4,-2.9 -2.5,-1.3 -3.6,-1.5 -4.1,-0.6 -0.5,0.8 -0.9,0.6 -1.2,-0.7 -0.3,-1.3 19.2,-63.4 23.6,-74.8 0.6,-1.6 2.4,-0.2 12,9.4 l 11.4,11.4 -10.1,29.6 -10.1,29.7 -5,-0.1 c -2.8,0 -6.9,-0.5 -9.1,-1 z"
       id="path114" />
    <path
       d="m 307.7,140 c 0.3,-1.4 6.9,-21.6 14.6,-45 7.6,-23.4 15.5,-47.4 17.5,-53.5 2,-6 3.7,-11.2 3.9,-11.5 0.2,-0.2 2.5,1.7 4.9,4.3 l 4.6,4.7 h -3 c -1.6,0 -3.6,0.8 -4.4,1.8 -1.2,1.2 -30.8,85.7 -34.5,98.5 -0.3,1 -1.1,1.6 -1.9,1.3 -0.7,-0.3 -1.5,0 -1.8,0.7 -0.3,0.7 -0.3,0.1 0.1,-1.3 z"
       id="path116" />
    <path
       d="m 867.3,138.7 c -2.4,-0.5 -4.3,-1.4 -4.3,-1.8 0,-0.5 0.4,-0.9 1,-0.9 0.5,0 0.8,-0.6 0.5,-1.2 -0.2,-0.7 2.7,-10.5 6.5,-21.8 l 7,-20.5 -0.5,8.5 c -0.3,4.7 -0.8,15.1 -1.1,23.2 -0.4,8.1 -1,14.5 -1.5,14.3 -0.4,-0.3 -1,-0.1 -1.4,0.5 -0.7,1.1 -0.5,1.1 -6.2,-0.3 z"
       id="path118" />
    <path
       d="m 1077.4,112.4 c 0.4,-0.7 -2.2,-1.3 -7.7,-1.7 -8.8,-0.6 -12,-1.4 -11.2,-2.8 0.3,-0.4 -0.3,-0.6 -1.5,-0.4 -1.1,0.2 -2.2,0 -2.4,-0.4 -0.5,-0.7 24,-77 25,-78 0.2,-0.2 5.5,4.4 11.7,10.2 l 11.4,10.6 -8.7,25.4 c -4.7,14 -9.8,27.4 -11.2,29.8 -2.5,4.1 -6.6,9.7 -5.4,7.3 z"
       id="path120" />
    <path
       d="m 543.5,104 -4.9,-5 20.9,0.1 c 11.6,0 20.3,0.3 19.5,0.6 -2,0.8 -4,2.9 -3.4,3.6 0.3,0.3 0.1,1.4 -0.5,2.5 -0.9,1.7 -0.8,2.1 0.7,2.5 0.9,0.3 -4.8,0.5 -12.8,0.6 l -14.6,0.1 z"
       id="path122" />
    <path
       d="m 401.2,94.8 c -1.8,-2.3 -3.2,-4.5 -3.2,-5 0,-1 18.5,-1.1 29.2,-0.2 l 7.5,0.7 -2.1,2.5 c -5.3,6.4 -4.8,6.2 -16.9,6.2 h -11.3 z"
       id="path124" />
    <path
       d="m 771.8,82.2 c -1.8,-1.5 -5,-4 -7.1,-5.5 -2,-1.6 -5,-4 -6.5,-5.3 -1.4,-1.4 -3.9,-3.3 -5.4,-4.2 -1.6,-0.9 -2.8,-1.9 -2.8,-2.2 0,-0.7 34.7,-21 35.8,-21 0.4,0 5.8,5.1 12.1,11.4 l 11.3,11.3 -16.5,9.2 c -9.1,5 -16.8,9.1 -17.1,9.1 -0.3,0 -2,-1.3 -3.8,-2.8 z"
       id="path126" />
    <path
       d="m 1455.5,76.5 c -3.9,-2.5 -9.2,-5.8 -12,-7.5 -6.1,-3.7 -9,-5.9 -8.4,-6.4 0.6,-0.5 27.1,-16.2 29.8,-17.6 2.2,-1.2 3,-0.6 13.8,10.2 l 11.5,11.5 -13,7.1 c -7.1,4 -13.4,7.2 -13.9,7.2 -0.5,0 -4,-2 -7.8,-4.5 z"
       id="path128" />
    <path
       d="M 202,33.5 C 202,18.4 202.2,6 202.4,6 c 0.2,0 5.4,5.1 11.5,11.2 L 225,28.5 224.3,39 c -0.5,8.7 -1,11.1 -3,14.2 -1.4,2 -3.4,3.9 -4.6,4.3 -1.2,0.4 -2.6,0.9 -3.2,1.1 -2.1,0.7 -9.1,2.4 -10.2,2.4 -1,0 -1.3,-6.2 -1.3,-27.5 z"
       id="path130" />
    <path
       d="m 942,59 c -1.9,-0.5 -3.9,-0.6 -4.4,-0.3 -0.5,0.4 -0.6,-7.6 -0.3,-20.3 0.4,-11.5 0.7,-23.6 0.7,-26.9 v -6 l 11.1,11 11.1,11 -0.6,10.4 C 959,48.1 956.8,55.2 953.4,58.1 951.6,59.6 946,60 942,59 Z"
       id="path132" />
    <path
       d="m 1109.7,40 c -2.1,-1.6 -5.2,-4 -7,-5.4 -1.8,-1.4 -5.7,-4.5 -8.8,-6.9 l -5.6,-4.3 16.1,-9.2 16.1,-9.2 11.2,11.3 c 6.1,6.1 10.8,11.5 10.5,11.9 -1.3,1.2 -26.7,14.8 -27.7,14.7 -0.5,0 -2.7,-1.3 -4.8,-2.9 z"
       id="path134" />
    <path
       d="m 356.6,37.6 c 0.3,-0.7 -0.8,-4.1 -2.3,-7.4 l -2.9,-5.9 16.6,-9.5 16.5,-9.5 11.3,11.1 c 6.1,6.1 11.2,11.3 11.2,11.6 0,0.3 -4.2,2.9 -9.4,5.8 l -9.4,5.2 h -16.1 c -13.2,0 -15.9,-0.2 -15.5,-1.4 z"
       id="path136" />
  </g>
  <g
     fill="#cde6ea"
     id="g196"
     transform="translate(-1.1986814,-2)">
    <path
       d="m 449.4,217.1 c -20.3,-1.7 -30.7,-11.5 -29,-27.4 0.6,-6.1 32,-102.6 39.9,-122.6 6.5,-16.5 12.8,-22.1 29.9,-26.9 5.5,-1.5 11.4,-1.7 45.3,-1.7 34,0 40,0.2 46.6,1.8 9.2,2.2 16,6.4 18.5,11.5 3.8,7.4 1.6,23.8 -5.3,41.5 L 593.8,97 H 565.4 C 549.8,97 537,96.9 537,96.7 c 0,-0.2 1.1,-3.5 2.4,-7.5 2.1,-6 2.2,-7.1 0.9,-7.6 -2.6,-1 -19.6,-0.5 -24.2,0.7 l -4.4,1.2 -14.9,44.5 c -8.1,24.5 -14.6,45.1 -14.3,45.9 0.4,1.1 3,1.3 12.8,0.9 6.7,-0.2 13.2,-0.9 14.4,-1.6 1.4,-0.8 3,-3.7 4.7,-8.9 1.4,-4.3 2.6,-8.1 2.6,-8.6 0,-0.4 -4.5,-0.7 -9.9,-0.7 h -10 l 6.8,-20.3 c 3.8,-11.2 7.3,-21.3 8,-22.5 l 1.2,-2.2 H 551 c 26.5,0 38,0.3 38,1.1 0,2.8 -25.6,77.9 -28.6,83.9 -5.8,11.6 -13.5,16.9 -28.8,20.1 -7.5,1.6 -14.6,2 -41.1,2.3 -17.6,0.3 -36.1,0.1 -41.1,-0.3 z m 70,-2.1 c 6.4,-1 10.6,-3.7 8.4,-5.3 -0.9,-0.6 -0.8,-0.7 0.4,-0.3 1,0.3 2,0.1 2.3,-0.3 0.2,-0.5 2.4,-1.3 4.7,-1.9 6.4,-1.6 13.5,-6.6 16.7,-11.7 1.6,-2.5 4.3,-8.7 6.1,-13.8 1.8,-5 4.7,-12.9 6.3,-17.5 1.6,-4.6 3.1,-8.1 3.4,-7.8 0.3,0.3 2,-1.5 3.8,-3.8 2.2,-3 5.3,-10 9.4,-22 3.3,-9.7 5.8,-17.6 5.5,-17.6 -0.3,0 -2,1.1 -3.9,2.5 l -3.3,2.6 -30.8,-0.1 -30.7,-0.2 -1.9,-2.4 c -2.5,-3 -3.8,-3.1 -3.8,0 0,1.3 1,3 2.2,3.8 l 2.2,1.5 -4.2,13.1 c -3.9,11.9 -4.6,13.4 -8.5,16.7 l -4.2,3.6 5,-0.6 c 2.9,-0.4 6.3,-1.7 8.2,-3.1 2.5,-1.9 4.4,-2.4 9.1,-2.4 h 5.9 l -5.1,14.8 c -5,14.4 -5.2,14.7 -9,16.6 -2.3,1.1 -7,2.1 -11.4,2.4 -7.2,0.5 -7.4,0.4 -6.3,-1.5 1.5,-2.9 0.6,-3.3 -6.4,-3.3 -5.4,0 -6.5,0.3 -7.7,2.2 -1.3,2 -1.9,2.1 -4.3,1.3 -1.5,-0.6 -3.2,-1.7 -3.8,-2.6 -0.7,-1.2 3.2,-14 15.4,-50.5 18.8,-56.1 16.5,-52.1 30.6,-53.1 7.1,-0.6 7.7,-0.5 6.5,1 -2.2,2.7 -0.4,3.7 6.3,3.7 5.4,0 6.6,-0.3 7.5,-2 1.9,-3.5 10,-2 10,1.9 0,4.1 -3.2,10.8 -6.8,13.9 l -3.7,3.3 12.4,-0.6 c 11.9,-0.6 16.9,-1.6 18.1,-3.5 0.3,-0.5 4.6,-1.3 9.5,-1.6 l 8.8,-0.7 2.3,2.8 2.3,2.9 1.1,-2.8 c 1.5,-4.2 5.8,-19.6 6.5,-23.8 0.7,-4.4 -0.5,-4.9 -3.2,-1.5 -1.8,2.3 -1.8,2.3 -1.8,-4.6 0,-6.5 -0.2,-7 -3.2,-9.7 -4.7,-4.2 -12.6,-6.1 -30.4,-7.4 -14.3,-1 -15.5,-1.2 -14.5,-2.8 0.5,-0.9 0.7,-2.1 0.2,-2.5 -0.4,-0.4 -7.8,-0.7 -16.4,-0.7 -15.4,0.2 -15.6,0.2 -17.8,2.7 -1.8,2.1 -3.5,2.7 -11.2,3.6 -18.2,2.2 -26.9,6.7 -31.8,16.2 -2.9,5.9 -4.1,9.2 -17.5,48.4 -8.3,24.5 -10.7,30.5 -13.2,33 -3.8,3.8 -7.2,11.2 -13.2,29 -5.4,15.9 -6.2,23.9 -2.9,29.4 2.1,3.6 4.5,4.8 5.8,2.9 0.7,-1.1 1.7,-1 5.5,0.9 6.4,3.1 14.2,4.1 39.1,4.9 11.8,0.4 20.8,0.9 20,1.2 -1.6,0.5 -3,2.1 -3,3.5 0,1 21.4,0.9 28.4,-0.3 z"
       id="path140" />
    <path
       d="m 449.9,207.9 c -10.6,-1.2 -15.1,-3 -16.8,-6.4 -2.1,-4.3 0.3,-13.4 14.4,-55.3 l 12.4,-36.7 16.5,-0.3 c 9.1,-0.1 16.6,0 16.6,0.2 0,0.3 -3.2,10.3 -7.1,22.3 -13.2,40.6 -14.7,45.5 -14.3,46.7 1,2.3 8.7,6.7 13.7,7.7 3,0.7 9.9,1 16.4,0.7 9.1,-0.4 12.1,-1 16,-2.9 l 4.8,-2.4 4.7,-13.5 c 5.3,-15.3 5.6,-17 2.9,-17 -1.4,0 -1.7,-0.6 -1.3,-2.5 0.4,-2.5 0.4,-2.5 -6.7,-2.5 -5,0 -7.1,-0.4 -7,-1.2 0,-0.7 1.7,-6 3.7,-11.8 l 3.7,-10.5 h 26.8 c 17.4,0 26.6,0.3 26.3,1 -0.2,0.6 -4.9,15 -10.5,32 -10.9,32.9 -14.4,41 -19.6,44.9 -5,3.9 -13.9,6.3 -27.2,7.5 -14.1,1.3 -57.3,1.2 -68.4,0 z"
       id="path142" />
    <path
       d="M 4.1,212.6 C 4.3,212.4 12.7,207.7 22.7,202 32.8,196.4 41.8,191.1 42.9,190.2 44,189.2 49.3,175 56.3,154 72.7,105.3 104.6,11.1 106,7.3 L 107.2,4 h 46.9 46.9 v 7.3 c 0,3.9 -0.5,23.2 -1,42.6 -0.5,19.5 -0.8,35.6 -0.6,35.8 0.2,0.2 8.1,-11.9 17.7,-26.9 9.5,-15 22,-34.4 27.6,-43.1 L 255,4 h 64.2 c 35.3,0 63.9,0.3 63.5,0.6 -0.3,0.4 -9.3,5.5 -19.9,11.4 l -19.3,10.8 -31,92.9 -31,92.8 -32.2,0.3 -32.1,0.2 20.4,-61.2 c 11.2,-33.6 20.2,-61.3 20,-61.5 -0.3,-0.3 -17.6,26.8 -58.4,91.7 -8.4,13.5 -16.3,26 -17.5,27.7 l -2.2,3.3 h -20 -20 l 0.7,-15.7 c 0.8,-20.3 2.6,-71.5 3.3,-95.3 l 0.5,-18.5 -21.7,64.5 -21.8,64.5 -48.4,0.3 c -26.7,0.1 -48.3,0 -48,-0.2 z M 154.9,211 c 9.1,-1 13.2,-2.9 9,-4.1 -1.5,-0.4 0.3,-0.7 4.6,-0.8 l 7,-0.2 8.1,-12.7 c 4.4,-7 8.6,-12.6 9.3,-12.4 0.7,0.1 2.2,0 3.3,-0.4 2,-0.6 12.1,-15.1 16.4,-23.6 2.3,-4.5 2.3,-7.8 0.2,-7.8 -1.2,0 1.2,-4.1 15.4,-27 19.2,-30.6 20.7,-32.7 23.4,-32.2 3.9,0.7 7.3,-4.2 7.4,-10.5 0,-7.9 0.3,-8.3 7.1,-8.3 3.2,0 5.9,0.3 5.9,0.8 0,0.4 -9.9,30.4 -22,66.7 l -22,66 -4.2,3.8 -4.3,3.9 4.8,-0.6 c 5.9,-0.7 9,-2.3 8.3,-4.2 -0.5,-1.2 2.9,-1.4 21.6,-1.4 20.9,0 22.3,0.1 24.3,2 l 2.2,2.1 1.7,-5.9 c 2.1,-7.7 2.1,-9.2 -0.4,-9.2 -1.1,0 -2,-0.3 -2,-0.7 0,-2.5 25.4,-76.2 26.2,-75.7 0.4,0.3 2.1,-0.8 3.6,-2.4 2,-2.1 4.4,-7.7 8,-18.4 6.2,-18.5 6.4,-20.6 2,-19.9 -1,0.1 -1,0 0.1,-3.5 4.7,-14.7 15.4,-47.5 16.3,-49.6 0.7,-2 3.4,-4.1 9.4,-7.3 4.6,-2.5 8.4,-5 8.4,-5.6 0,-0.5 -4.4,-0.9 -10,-0.9 -8.4,0 -9.8,-0.2 -9.4,-1.5 1,-2.6 -4.1,-3.5 -19,-3.5 -11.9,0 -14.6,0.3 -15.7,1.6 -1,1.3 -1,1.7 0.2,2.5 0.9,0.5 -6.9,0.9 -20.2,0.9 -21.3,0 -21.7,0 -23.2,-2.3 l -1.5,-2.2 -1.6,3.7 c -1.6,3.6 -1.3,7.3 0.5,6.2 1.8,-1.1 0.7,1 -7.8,14.4 -17.4,27.6 -24.7,37.8 -26.6,37.4 -2.5,-0.5 -8.1,5.7 -14.1,15.6 -3.9,6.5 -4.7,8.7 -4.1,10.9 0.5,2.1 0.8,2.4 1.6,1.2 0.5,-0.7 0.9,-1.1 0.9,-0.6 0,0.4 -1.7,3.4 -3.7,6.7 -3.2,5 -4.3,6 -6.5,6 -3.4,0 -3.4,-0.3 -0.3,-7.4 3.1,-6.9 3.1,-8 0.3,-7.3 l -2.1,0.6 0.6,-30.4 c 0.7,-29.5 1.1,-34 2.7,-33 2.1,1.3 3.4,-3.2 3.8,-13.2 0.5,-10.4 0.5,-10.5 -1.6,-9.4 -1.2,0.6 -2.4,1.6 -2.7,2.1 -0.4,0.6 -15.5,1 -41.4,1 h -40.9 l -1.6,-2.5 c -0.9,-1.4 -2,-2.5 -2.5,-2.5 -0.5,0 -2,4.8 -3.5,10.6 -2.3,9 -2.5,11.1 -1.5,14.3 1.1,3.7 0,7.3 -25.5,83.8 l -26.7,80 -8.5,4.9 c -4.6,2.6 -8.4,5.2 -8.4,5.6 0,0.4 13.7,0.8 30.5,0.8 16.8,0 30.5,-0.1 30.5,-0.3 0,-0.5 24.6,-72.9 28.7,-84.5 2.9,-8.3 4,-10.3 5.3,-9.9 2.2,0.6 3,-0.8 9,-16.4 5,-13.2 5.2,-14.3 3.4,-21.3 l -0.6,-2.7 5.8,0.3 5.9,0.3 -0.2,4 c -0.2,2.2 -1,22.2 -1.8,44.5 -0.8,22.3 -2,50.6 -2.5,63 l -1,22.4 -3.2,3.3 -3.2,3.3 h 3 c 1.6,0 6.7,-0.4 11.3,-1 z"
       id="path144" />
    <path
       d="m 48,203.5 c 0,-0.2 1.5,-1.2 3.3,-2.1 1.7,-0.9 3.3,-1.7 3.4,-1.9 0.2,-0.1 6.4,-18.1 13.9,-40.1 C 76.1,137.5 83.1,117 84.1,114 l 1.9,-5.5 18.9,0.5 c 10.4,0.3 19.2,0.7 19.5,1 0.5,0.5 -17.4,56 -26.6,82.3 L 93.7,204 H 70.9 C 58.3,204 48,203.8 48,203.5 Z"
       id="path146" />
    <path
       d="m 152.5,194.8 c 0.3,-5.1 1.2,-26.2 2.1,-46.8 1.1,-25 2,-37.7 2.8,-38.2 1.3,-0.9 29.1,-1 33.5,-0.2 1.7,0.4 3.1,1.3 3.1,2 0,1 1.3,1.4 3.9,1.4 3.1,0 4.1,-0.4 4.6,-2 0.4,-1.3 1.6,-2 3.3,-2.1 3.7,-0.2 27.6,0.3 27.9,0.5 0.1,0.1 -13,21.3 -29.1,47.2 l -29.3,46.9 -11.7,0.3 -11.6,0.3 z"
       id="path148" />
    <path
       d="m 249.1,159.8 c 8.3,-24.4 15.3,-45 15.6,-46 0.3,-0.9 1.9,-1.8 3.6,-2.1 1.8,-0.3 5.5,-1 8.2,-1.6 2.8,-0.5 10.5,-1 17.3,-1 l 12.3,-0.1 -0.7,2.3 c -0.4,1.2 -7.4,22.6 -15.6,47.5 L 274.9,204 h -20.4 -20.4 z"
       id="path150" />
    <path
       d="m 302.4,176.8 c 6.7,-20 19.6,-58.2 28.6,-85.1 L 347.3,43 h 23 23 l -5.9,3.2 c -5.7,3 -6.5,3.1 -20.6,3.6 -14.1,0.4 -14.7,0.4 -15.9,-1.7 -1.7,-2.7 -2.5,-2.7 -3.2,0.1 -0.4,1.4 0.1,2.7 1.5,3.9 l 2,1.8 -6.1,19.2 c -11.6,35.6 -18.2,53.9 -19.5,53.2 -3.4,-2.2 -4.7,0 -10.9,18.7 -5,15.4 -5.2,16.5 -2.7,18.3 2.1,1.4 2.1,1.5 -4.5,21.8 -4.8,14.7 -7.3,20.8 -8.8,21.9 -6.8,4.8 -6.8,4.9 0.8,4.4 7.5,-0.6 11.4,-2.6 8.5,-4.4 -1,-0.6 14,-0.9 41.5,-0.8 23.7,0 42,0.3 40.8,0.5 -1.4,0.3 -2.3,1.2 -2.3,2.2 0,1.5 1.1,1.9 5.7,2.4 3.2,0.3 5.9,0.4 6.1,0.2 0.3,-0.2 -0.5,-1.7 -1.6,-3.2 l -2,-2.8 4.4,-12.4 c 2.4,-6.9 4.4,-12.7 4.4,-12.8 0,-0.2 0.3,-0.2 0.8,-0.2 2.9,0.5 4.4,-0.6 6.7,-5.1 2.9,-5.7 2,-6.4 -3.7,-2.5 -3.7,2.5 -3.8,2.5 -26.5,2.4 -21.8,0 -22.7,-0.1 -20.3,-1.7 4.8,-3.3 6.8,-5.7 7.4,-8.9 0.5,-3 0.3,-3.3 -1.9,-3.3 -1.4,0 -2.5,-0.6 -2.4,-1.2 0.1,-2.7 6.5,-21.3 7.2,-21 0.4,0.1 4.6,0.2 9.3,0.2 4.9,0 8.3,0.4 7.9,0.9 -0.3,0.5 0.2,1.7 1.1,2.5 1.3,1.3 4.2,1.6 16.5,1.6 8.2,0 14.9,-0.2 14.9,-0.5 0,-0.3 -0.7,-1.7 -1.6,-3 -1.5,-2.2 -1.4,-2.9 0.1,-7.7 4.4,-13.2 7.8,-21.8 8.5,-21.3 1.7,1 4.1,-0.9 6.1,-4.6 2.3,-4.6 1.8,-4.8 -2.7,-1.4 -3.3,2.5 -3.3,2.5 -26.3,2.5 -14.7,0 -23.1,-0.4 -23.1,-1 0,-0.5 0.4,-1 0.8,-1 0.4,0 2.3,-1.3 4.2,-3 l 3.5,-2.9 -3.2,0.6 c -1.8,0.3 -3.3,0.2 -3.3,-0.3 0,-1.7 5.2,-17.9 6.1,-18.8 0.5,-0.6 1.7,0.1 2.9,1.7 l 2.1,2.7 h 22 c 12,0 21.9,-0.3 21.9,-0.6 0,-0.3 -0.5,-1.4 -1.1,-2.6 -0.8,-1.6 -0.3,-4.2 2.7,-12.9 2,-6 4.2,-10.9 4.9,-10.9 2.7,0 10.7,-12.1 9.1,-13.8 -0.3,-0.2 -2,0.8 -4,2.3 l -3.5,2.6 -16.5,-0.3 c -9,-0.2 -16.8,-0.6 -17.1,-1 -0.4,-0.4 0.6,-1.8 2.1,-3.2 2.9,-2.5 3,-2.5 22.2,-2.6 10.5,0 19.2,0.3 19.1,0.8 0,0.4 -3.3,10.4 -7.2,22.2 l -7.2,21.5 -23.6,0.3 -23.5,0.2 -1.7,5.4 c -0.9,2.9 -1.7,5.6 -1.7,5.9 0,0.4 10,0.7 22.3,0.7 12.3,0 22.6,0.2 22.9,0.5 0.5,0.5 -9.1,31.6 -12.8,41.3 l -1.6,4.2 h -23.2 -23.3 l -3.3,9.8 c -1.8,5.3 -3.5,10.3 -3.8,11 -0.3,0.9 4.6,1.2 22.7,1.2 13.1,0 23.1,0.4 23.1,0.9 0,0.5 -3.2,10.6 -7,22.5 L 401.9,213 H 346 290.1 Z"
       id="path152" />
    <path
       d="m 555.6,211.8 c 0.4,-0.7 7.5,-11.9 15.7,-24.8 8.3,-12.9 28.2,-44.2 44.2,-69.5 16.1,-25.3 33.2,-52.3 38.1,-60 l 9,-14 60.9,-0.3 61,-0.2 -18.5,10.5 c -10.1,5.8 -18.9,11 -19.6,11.6 -0.6,0.5 -1.4,5.1 -1.8,10.2 -0.4,5 -1.3,15.1 -2.1,22.2 -0.7,7.2 -2.1,20.4 -3,29.5 -0.9,9.1 -2.5,24.4 -3.5,34 -1,9.6 -2.7,25.3 -3.6,34.8 L 730.6,213 H 702.3 674 l 0.5,-3.7 c 1.1,-7.8 2.5,-20.8 2.5,-23 V 184 h -19.8 -19.8 l -8.3,14.5 -8.2,14.5 h -33 c -26.1,0 -32.9,-0.3 -32.3,-1.2 z m 63.9,-0.8 c 0.4,-0.6 0,-2.2 -0.9,-3.5 -1.5,-2.3 -1.3,-2.9 6.3,-16.2 l 7.8,-13.8 18.9,-0.1 c 10.4,-0.1 17.4,0.1 15.5,0.5 -2.2,0.4 -3.5,1.2 -3.7,2.4 -0.2,1.4 0.5,1.7 3.9,1.7 2.3,0 5.8,0.3 7.7,0.6 3,0.5 4,0.1 6.8,-2.6 l 3.2,-3.2 v 2.8 c -0.1,1.6 -0.7,8 -1.3,14.2 -0.7,6.2 -1.1,11.5 -0.8,11.8 0.3,0.2 10,0.4 21.5,0.4 20.4,-0.1 21.1,-0.1 22,1.9 1.2,2.7 2.2,2.7 3,-0.1 0.9,-3.5 0.7,-7.8 -0.3,-7.8 -0.6,0 -1.7,1 -2.5,2.2 -1.5,2.2 -1.6,2.1 -1.6,-2.6 0,-2.6 0.4,-8.9 1,-13.9 0.5,-5.1 1.9,-18.4 3,-29.7 4.2,-42.3 5,-47.1 8.1,-51.5 2.8,-4.1 4.7,-13.7 6.5,-33 0.6,-6.9 0.6,-7.1 -2,-8.3 -1.4,-0.6 -2.6,-1.5 -2.6,-1.9 0,-0.5 3.6,-2.8 8,-5.3 4.4,-2.5 8,-4.8 8,-5.2 C 755,50.3 735.3,50 711.2,50 H 667.4 L 658,64.8 c -20.7,32.3 -26.1,40.2 -27.8,40.2 -3.3,0 -6.3,3.2 -14.3,15.1 -13.5,20.2 -22.8,36.2 -20,34.4 0.5,-0.3 1.2,-0.1 1.6,0.5 0.4,0.6 1.1,0.7 1.7,0.4 1.3,-0.9 2.8,-3.3 -15.4,25.8 -8.1,13 -14.8,23.9 -14.8,24.2 0,0.3 3.7,0.6 8.2,0.6 7,0 7.9,0.2 6.4,1.3 -3.1,2.3 0.3,3.6 10.5,4 21.4,0.7 24.8,0.7 25.4,-0.3 z"
       id="path154" />
    <path
       d="m 579.1,200.3 c 4.9,-8 48.4,-76.1 52,-81.4 l 3.8,-5.7 6.3,-0.7 c 3.5,-0.3 9.1,-1.3 12.5,-2.1 3.5,-0.8 8,-1.4 10.2,-1.3 l 3.9,0.3 -6.5,12.5 c -3.6,6.9 -8.1,15.4 -9.9,18.8 -1.9,3.4 -3.4,6.4 -3.4,6.7 0,0.3 1.3,0.6 3,0.6 2.2,0 2.8,0.4 2.4,1.5 -0.6,1.4 1.8,1.5 19.7,1.3 l 20.4,-0.3 1.7,-12.5 c 0.9,-6.9 2.2,-16.2 2.9,-20.7 l 1.2,-8.2 16.4,-0.3 16.4,-0.3 -0.5,4.5 c -0.6,4.2 -2.4,23.5 -4.6,48 -0.6,5.8 -1.7,16.8 -2.5,24.5 -0.8,7.7 -1.5,15 -1.5,16.3 0,2.2 0,2.2 -17.6,2.2 h -17.7 l 0.7,-8.2 c 0.4,-4.6 0.9,-10 1.3,-12 0.4,-3 0.2,-3.8 -1,-3.8 -0.9,0 -1.7,-1 -1.9,-2.2 l -0.3,-2.3 -27,-0.3 -27.1,-0.2 -8,14.2 -8,14.3 -19.8,0.3 -19.8,0.2 z"
       id="path156" />
    <path
       d="m 651,145.8 c 0,-0.4 1,-1.3 2.2,-1.9 1.5,-0.8 1.8,-1.4 1,-1.7 -1.3,-0.4 10.2,-23.4 25,-50.2 l 6.3,-11.5 5.8,-0.3 c 5.1,-0.3 5.7,-0.1 5.7,1.7 0,2 -7.7,57.7 -8.5,62.1 l -0.5,2.5 h -18.5 c -10.2,0 -18.5,-0.3 -18.5,-0.7 z m 32.4,-19 c 0.9,-6.8 2.4,-16.7 3.2,-22 0.9,-5.3 1.4,-10.4 1.2,-11.2 -0.2,-1.1 -22.7,39.4 -24.6,44.5 -0.2,0.5 3.9,0.9 9.1,0.9 h 9.4 z"
       id="path158" />
    <path
       d="m 742.5,211.1 c 1.7,-1 10.7,-6.2 20.1,-11.4 l 17.1,-9.6 6.6,-19.8 C 789.9,159.4 803.8,118.3 817,79 830.3,39.7 841.4,6.7 841.7,5.7 842.2,4.1 845.4,4 889.7,4 h 47.5 l -0.6,11.3 c -0.3,6.1 -0.8,24.3 -1.1,40.2 -0.4,16 -0.8,30.4 -1.1,32 -0.5,2.9 -0.4,2.9 1.1,1 0.9,-1.1 13.6,-20.6 28.2,-43.2 L 990.2,4 h 64.6 64.7 l -15,8.5 c -8.2,4.7 -17.4,9.7 -20.2,11.2 -3.2,1.7 -5.7,3.8 -6.2,5.3 -2.3,5.7 -59,177.4 -58.7,177.7 0.1,0.1 6.9,-10.2 15.1,-23 13.4,-20.8 79.3,-124 86.8,-135.9 l 3,-4.8 h 42.8 c 27.9,0 42.9,0.3 42.9,1 0,0.6 -0.6,1 -1.4,1 -0.8,0 -2.8,1.1 -4.4,2.5 l -3,2.5 h -36.3 -36.4 l -12.4,19.8 c -16.2,25.6 -34.2,53.2 -34.8,53.2 -0.2,0 -0.1,-0.5 0.2,-1 1.5,-2.4 -3,-0.7 -5.8,2.3 -3.9,4.1 -14.8,20.7 -19.3,29.3 -3.2,6.2 -4.6,13.3 -2.4,11.9 0.6,-0.4 -1.4,3.3 -4.3,8.2 -13.3,21.7 -19.9,31.9 -21.9,33.3 -1.2,0.8 -3.1,2.3 -4.2,3.2 -2.1,1.7 -2,1.7 1.4,1.2 4.9,-0.9 8.7,-3.3 6.9,-4.5 -0.8,-0.5 8.5,-0.9 22.7,-0.9 h 24.1 l 1.3,2.6 1.4,2.5 2.3,-4.5 c 2.7,-5.3 3.4,-8.5 2.2,-10.7 -0.5,-1.1 0.7,-4.4 3.8,-10.4 4.1,-8 4.7,-8.7 5.9,-7 0.7,1 1.5,2.3 1.7,2.8 0.2,0.7 1.4,0.7 3.6,-0.2 2,-0.9 3,-1.9 2.7,-2.7 -0.4,-1.2 2.8,-1.4 18.1,-1.4 16.2,0 18.4,0.2 16.8,1.4 -1.6,1.2 -1.7,1.6 -0.6,3 1.8,2.2 2.8,2 5.6,-1 l 2.5,-2.7 v 3.1 c 0,1.7 -0.5,7.8 -1.1,13.4 -1,9.8 -1.2,10.5 -4.7,14.1 -4,4.1 -3.4,4.5 4.4,2.6 4.9,-1.3 6.4,-2.7 4.3,-4 -0.8,-0.5 6.4,-0.9 17.5,-0.9 18.1,0 19.1,0.1 21.3,2.2 1.3,1.2 2.3,1.6 2.3,1 0,-0.6 -1,-1.8 -2.2,-2.6 -2.2,-1.5 -2.2,-1.6 -0.9,-15.3 0.7,-7.6 2.1,-22.1 3.1,-32.3 1.1,-10.2 2.6,-25.5 3.5,-34 0.8,-8.5 2.7,-26.3 4.2,-39.4 2.6,-23.4 2.7,-24 5.4,-26.5 1.8,-1.6 3.4,-4.6 4.3,-8.1 1.3,-5 1.4,-5.2 1.5,-2 0.1,1.9 -1,14.5 -2.4,28 -1.4,13.5 -3.2,31 -4,39 -1.5,13.9 -2.1,20.1 -6.4,61 -1.1,10.2 -2.3,21.7 -2.6,25.5 -0.4,3.9 -0.9,7.8 -1.1,8.8 -0.5,1.6 -2.7,1.7 -28.8,1.7 h -28.2 l 0.8,-7.2 c 0.4,-4 1.2,-10.4 1.6,-14.1 0.6,-4.9 0.5,-7 -0.2,-7.3 -0.7,-0.3 -9.7,-0.3 -20.1,-0.2 l -19,0.3 -8.1,14 -8,14 -64.7,0.3 c -35.6,0.1 -64.7,-0.1 -64.7,-0.6 0,-0.4 9.2,-28.4 20.5,-62.1 11.2,-33.8 20.1,-61 19.6,-60.5 -0.7,0.8 -21.3,33.2 -63.7,100.4 l -14.1,22.5 -20.3,0.3 -20.3,0.2 0.7,-12.2 c 0.3,-6.8 1.1,-25.3 1.6,-41.3 0.6,-15.9 1.5,-39.6 2,-52.5 0.5,-12.8 0.8,-23.5 0.6,-23.7 -0.1,-0.2 -4,10.8 -8.6,24.4 -4.5,13.7 -14.3,42.9 -21.7,65.1 L 835.8,213 h -48.1 c -47.3,0 -48.1,-0.1 -45.2,-1.9 z m 19.8,-0.2 c 8.5,-1.3 11.7,-2.7 9.6,-4 -0.8,-0.5 10.9,-0.9 28.3,-0.9 20.4,0 29.9,-0.3 30.4,-1.1 0.3,-0.6 8.9,-25.7 18.9,-55.7 10.1,-30.1 19,-56.2 19.8,-58.1 1.3,-3.1 1.5,-3.1 2,-1.1 0.8,3 2.5,1.7 4.8,-3.8 1.9,-4.4 2,-7.6 0.3,-13.4 -0.5,-1.6 0.2,-1.8 5.6,-1.8 h 6.2 l -0.6,10.7 c -0.7,11.8 -3.1,71.8 -4.2,104.1 l -0.7,20.3 -2.9,2 c -4.2,3.1 -3.6,4.2 2,3.4 5.7,-0.8 7.7,-2.2 6.1,-4.1 -1,-1.2 0.8,-1.4 10.9,-1.4 9.4,0 12.2,-0.3 13.2,-1.5 0.7,-0.8 1.6,-1.2 2.1,-1 2.4,1.6 18.2,-19.1 25.3,-33.2 2.8,-5.6 2.7,-9.4 -0.2,-7.1 -2.1,1.7 1.2,-4 17,-29.4 20,-32.1 31.2,-48.6 32.5,-48.1 2.9,1 4.8,-1.6 5.8,-7.9 l 1,-6.3 6.2,-0.3 6.2,-0.3 -22.5,67.3 c -20.8,62.6 -22.6,67.5 -25.6,70 l -3.3,2.7 6.5,0.1 c 7,0 12.6,-2.3 9.9,-4.1 -0.8,-0.5 6.8,-0.9 18,-0.9 16,0 19.2,0.2 18.8,1.4 -0.7,1.7 1.1,3.6 3.5,3.6 2.3,0 2.3,-0.8 0.1,-3.2 -1.6,-1.8 -1.6,-2.4 1.1,-10.3 1.7,-5.1 3.3,-8.2 4,-7.9 2.3,0.9 4.4,-2.2 7.9,-11.1 6.2,-16.2 8.4,-28.4 5,-27.8 -1.4,0.3 -0.7,-2.1 7.9,-28.7 9.9,-30.2 16,-47.2 16.8,-46.1 1,1.6 4.5,-2.5 6.9,-8.2 6.2,-14.6 9.8,-31.6 6.4,-31 -0.9,0.2 -0.8,-1.2 0.4,-5 2.5,-8.7 3.4,-9.9 11.3,-14.3 4.1,-2.3 7.6,-4.7 7.8,-5.3 0.3,-0.8 -13.1,-1.1 -46.7,-1.1 H 995 l -2.7,3.9 c -1.6,2.2 -6.1,9 -10,15.3 -40.5,63.4 -49.8,77.3 -52.4,77.6 l -2.7,0.3 2.6,-7.2 2.6,-7.2 -2.4,-1.9 -2.3,-1.9 0.6,-39.4 0.6,-39.5 H 888.1 C 853,11 847.1,10.8 846,9.5 844,7 843.3,7.7 841.7,14 c -1.5,6 -1.3,10.5 0.4,9.4 0.5,-0.3 0.9,-0.1 0.9,0.3 0,1 -47.8,144.1 -53.6,160.7 l -3.9,10.9 -8.4,4.8 c -6,3.4 -11.3,5.4 -18.9,7.3 -5.8,1.4 -11.1,3.1 -11.6,3.6 -1.4,1.4 6.6,1.3 15.7,-0.1 z"
       id="path160" />
    <path
       d="m 786.5,201.7 c 4.4,-2.5 3.2,0.8 27.1,-69.9 l 7.6,-22.8 3.7,-0.2 c 3.8,-0.2 35.5,0.3 35.7,0.6 0.1,0 -6.9,21.4 -15.4,47.4 L 829.6,204 h -23.5 -23.6 z"
       id="path162" />
    <path
       d="m 888,196.3 c 0,-10.1 2.9,-75.8 3.6,-80 0.4,-2.8 0.9,-3.3 4.2,-3.8 2,-0.4 4.8,-1.1 6.2,-1.7 1.4,-0.5 7,-1.3 12.5,-1.7 10.1,-0.6 14.5,0.2 14.5,2.6 0,2.2 7.5,1.6 9.1,-0.7 1.3,-1.8 2.7,-2 16.7,-2.3 8.4,-0.2 15.1,0 15,0.3 -0.2,0.3 -13.6,21.8 -29.8,47.8 L 910.5,204 H 899.3 888 Z"
       id="path164" />
    <path
       d="m 970.2,202.8 c 0.3,-0.7 7.4,-21.9 15.8,-47 l 15.3,-45.8 h 3.3 c 1.8,0 4.5,0.5 6,1 3.6,1.4 12.4,1.5 16.6,0.2 4.7,-1.4 11.3,-2.1 12.7,-1.3 1.1,0.7 -2.1,11.1 -23.2,75.3 l -6.2,18.8 h -20.4 c -15.8,0 -20.2,-0.3 -19.9,-1.2 z"
       id="path166" />
    <path
       d="m 1201.4,209.3 c 0.7,-2.1 13.4,-40.4 28.1,-85 L 1256.4,43 h 44.3 44.3 l -0.5,8.2 c -0.5,8.3 -3,65 -3.9,88.8 l -0.5,12.5 18.2,-54.2 c 10,-29.8 18.5,-54.4 18.8,-54.7 0.3,-0.4 20.3,-0.5 44.3,-0.4 l 43.8,0.3 -19.1,11 -19.1,10.9 -24.6,73.8 -24.6,73.8 h -44 -44 l 0.6,-13.2 c 0.8,-16.2 2.6,-76.6 2.6,-86.3 0,-6.9 -0.2,-6.6 -17.8,46 l -17.7,53 -28.7,0.3 -28.7,0.2 z m 8.8,1.7 c 2.2,-0.6 3.9,-1.9 4.3,-3 0.6,-1.9 1.6,-2 19.5,-2 17.9,0 19,0.1 20,2 0.6,1.1 1.5,2 2,2 0.9,0 8,-21 8,-23.7 0,-0.9 -0.8,-1.2 -2.4,-0.9 l -2.4,0.4 1.4,-4.9 c 2.3,-7.7 15,-45.7 17.4,-52.2 1.2,-3.1 2.6,-5.4 3.1,-5.1 1.9,1.2 4.7,-2.8 7.9,-11.3 3.1,-8.2 3.2,-9 2.2,-14.6 -0.6,-3.3 -0.9,-6.4 -0.6,-6.8 0.3,-0.5 2.8,-0.9 5.6,-0.9 h 5.1 l -0.6,18.8 c -0.3,10.3 -1.1,36.3 -1.8,57.7 l -1.1,39 -3.1,3.3 -3.1,3.2 7.9,-0.6 c 7.9,-0.6 13.1,-2.6 12,-4.4 -0.4,-0.6 9.6,-1 26.7,-0.9 15,0.1 26.2,0.4 24.8,0.8 -1.4,0.4 -2.5,1.3 -2.5,2.1 0,1.1 1.9,1.7 7,2.3 6.5,0.8 7.1,0.7 8.7,-1.3 1.7,-2.2 8.8,-22.9 8.8,-25.8 0,-1 -0.8,-1.3 -2.4,-1 l -2.4,0.5 1.5,-5.1 c 6.4,-21.6 23.2,-70.6 24.1,-70.4 3.6,1 8,-7.2 14.1,-26.5 3.6,-11.4 3.8,-12.7 1.1,-13.4 -2.3,-0.6 -2.4,-1 -1,-4.9 0.8,-2.2 3.1,-4 9,-7.4 4.4,-2.5 8,-4.8 8,-5.3 0,-0.4 -12.3,-0.6 -27.2,-0.5 l -27.3,0.3 -10.2,30.5 c -5.6,16.8 -14.4,42.8 -19.5,57.8 l -9.2,27.2 h -5.8 c -3.2,0 -5.8,-0.3 -5.8,-0.7 0,-0.5 1.4,-2.8 3,-5.3 2.8,-4.2 3,-5.1 3,-13.9 0,-8.8 -0.1,-9.3 -2,-8.8 -1.9,0.5 -2,0 -2,-7.1 0.1,-23.7 2.9,-75 4,-73.1 1.7,2.6 3.7,0 4.4,-5.7 0.3,-3.1 0.4,-5.9 0.1,-6.2 -0.3,-0.3 -1.8,0.7 -3.3,2.1 l -2.8,2.7 h -37 c -35.9,0 -37.2,-0.1 -38.9,-2 -2.1,-2.3 -2.3,-2.3 -3.4,1.8 -0.8,2.5 -0.6,3 0.5,2.5 0.8,-0.3 1.4,0.1 1.4,0.8 0,1.1 0.3,1.1 1,-0.1 0.5,-0.8 1,-1.2 1,-0.8 0,0.3 -11.4,35.1 -25.4,77.3 -25.3,76.5 -25.4,76.7 -29,79.1 -2,1.4 -3.6,2.7 -3.6,2.9 0,0.8 3.3,0.5 7.2,-0.5 z"
       id="path168" />
    <path
       d="m 1232.7,157.6 c 13.1,-39 16,-46.6 17.9,-47.7 1.9,-1 3.5,-0.9 8.7,0.5 3.4,0.9 9.8,1.7 14,1.7 4.2,0 7.7,0.2 7.7,0.4 0,0.4 -13.3,41.5 -23.4,72 l -6.2,19 -17.2,0.3 -17.1,0.2 z"
       id="path170" />
    <path
       d="m 1302.6,194.8 c 1.2,-30.5 3.6,-85.3 3.7,-85.5 0.1,-0.1 6.2,-0.3 13.4,-0.5 l 13.2,-0.3 -0.5,8.5 c -0.8,12.4 -2,47.9 -1.6,49 0.2,0.6 1.2,1 2.3,1 1.2,0 1.9,0.7 1.9,2 0,1.9 0.5,2.1 6.8,1.8 l 6.7,-0.3 10.5,-30.7 10.4,-30.8 h 5.1 c 2.8,0 7.8,0.7 11,1.5 3.3,0.9 8,1.8 10.5,2.1 2.5,0.3 4.6,0.7 4.8,0.9 0.3,0.2 -5.3,17.7 -22.6,70.3 l -6.6,20.2 h -34.7 -34.6 z"
       id="path172" />
    <path
       d="m 317.6,173.8 c 5.6,-16.7 12.9,-38.1 16.1,-47.6 l 6,-17.4 16.4,0.1 c 21.3,0.2 28.9,0.9 28.2,2.7 -0.4,1.2 3.1,1.4 20.1,1.4 11.3,0 20.6,0.3 20.5,0.8 0,0.4 -1.7,5.7 -3.8,11.7 l -3.8,11 -23.4,0.3 -23.5,0.2 -6.2,19.4 c -3.4,10.6 -6.2,19.6 -6.2,20 0,0.3 1.2,0.6 2.6,0.6 1.9,0 2.5,0.4 2,1.5 -0.5,1.3 2.2,1.5 20,1.5 19.3,0 20.5,0.1 20,1.8 -0.4,1 -2.1,6.3 -3.9,11.7 l -3.4,10 -43.9,0.3 -44,0.2 z"
       id="path174" />
    <path
       d="m 1045.3,192.6 c 3.9,-6.2 17.6,-27.6 30.2,-47.5 l 23,-36.1 15.3,0.1 15.3,0.1 -9.6,18.4 c -5.2,10.1 -9.5,18.9 -9.5,19.4 0,0.6 1.2,1 2.6,1 1.9,0 2.5,0.4 2,1.5 -0.5,1.3 2.1,1.5 19.8,1.5 h 20.2 l 1.2,-9.2 c 1.8,-14 4.5,-31.2 5,-31.8 0.2,-0.3 7.5,-0.7 16.3,-1 15.4,-0.5 15.9,-0.4 15.9,1.5 0,1.1 -0.9,11.2 -2,22.5 -1.1,11.3 -2.5,25.5 -3,31.5 -0.6,6.1 -1.7,16.9 -2.5,24 -0.8,7.2 -1.5,13.6 -1.5,14.3 0,0.9 -4.2,1.2 -17.5,1.2 -16,0 -17.5,-0.1 -17.5,-1.7 0.1,-1 0.6,-6.4 1.3,-12 1.2,-9.6 1.2,-10.3 -0.4,-10.3 -1.1,0 -1.9,-0.9 -2.1,-2.2 l -0.3,-2.3 h -27 -27 l -8,14.2 -8,14.3 h -19.7 -19.7 z"
       id="path176" />
    <path
       d="m 1116.5,144.2 c 4.2,-2.6 5.2,-4.1 6.4,-9.1 0.6,-3 0.6,-4.9 -0.1,-6 -1.1,-1.7 -1.1,-1.6 11.8,-25.7 3.9,-7.2 4.6,-8.1 6.7,-7.7 1.9,0.4 3,-0.3 4.7,-2.7 2,-2.9 2.1,-3.6 1.1,-7.1 -0.7,-2.2 -0.9,-4.4 -0.6,-4.9 0.6,-1 10.7,-1.4 11.6,-0.5 0.5,0.5 -3.2,29.3 -5.1,39.5 -0.6,3 -1.5,5.7 -2,5.8 -2.4,0.8 -3.9,3.5 -5,8.8 -1.2,5.5 -1.1,5.7 1.6,8.5 l 2.8,2.9 h -18.5 c -18.3,0 -18.4,0 -15.4,-1.8 z m 26.9,-6.9 c 0.3,-1 1.5,-9 2.6,-17.8 1.2,-8.8 2.5,-18.7 2.9,-22 0.5,-3.3 0.8,-6.1 0.6,-6.3 -0.1,-0.1 -4.4,7.8 -9.5,17.5 -5.1,9.8 -10.9,20.6 -12.7,24.1 l -3.5,6.2 h 9.5 c 8.2,0 9.6,-0.2 10.1,-1.7 z"
       id="path178" />
    <path
       d="m 745.6,85.5 c 0.4,-4.4 1,-10.1 1.3,-12.7 l 0.6,-4.6 11,10.5 c 6.1,5.8 10.3,10 9.4,9.4 -1.3,-0.9 -3.9,-0.6 -11.5,1 -5.5,1.2 -10.3,2.7 -10.7,3.3 -0.4,0.6 -0.5,-2.5 -0.1,-6.9 z"
       id="path180" />
    <path
       d="m 601.4,80.3 c 2.1,-7 2.7,-12 2.4,-18.7 l -0.3,-7.7 10.2,10.5 c 9.6,9.7 11.6,13.2 8,13.3 -0.7,0.1 -5.2,1 -10,2.2 -10.6,2.5 -11,2.6 -10.3,0.4 z"
       id="path182" />
    <path
       d="M 791,73.1 C 785.3,69.5 768,54.6 768.7,54 c 0.4,-0.4 4.4,-2.8 8.8,-5.4 l 8,-4.6 11.2,11.2 c 12.8,12.7 12.6,11.5 2.3,16.7 -5.2,2.7 -5.6,2.7 -8,1.2 z"
       id="path184" />
    <path
       d="m 1209.2,71 c 0,-1.4 0.5,-7.7 1.1,-14 l 1.2,-11.5 6.9,6.5 c 6.3,5.9 12.6,13.4 12.6,14.9 0,0.3 -1.9,0.6 -4.2,0.6 -2.4,0.1 -7,0.3 -10.3,0.5 -5.5,0.3 -6.1,0.6 -6.6,2.9 l -0.7,2.6 z"
       id="path186" />
    <path
       d="m 1479,70 c -3.1,-0.9 -26,-15.8 -26,-16.9 0,-0.5 3.2,-2.8 7.1,-5.1 l 7.2,-4.2 11.4,11.4 11.4,11.4 -4.3,2 c -2.9,1.4 -5.1,1.9 -6.8,1.4 z"
       id="path188" />
    <path
       d="m 384.1,38.3 c 1.3,-0.3 1.1,-1.7 -1.7,-9.6 -1.8,-5.1 -3.7,-10.5 -4.4,-12.2 -0.6,-1.6 -1.1,-3.2 -1,-3.4 0.1,-0.2 -0.4,-0.7 -1,-1.1 -1.1,-0.7 6.6,-6 8.7,-6 1.1,0 22.8,21.8 22.2,22.3 -2.6,2.2 -20.2,10.7 -22,10.6 -1.4,-0.1 -1.7,-0.3 -0.8,-0.6 z"
       id="path190" />
    <path
       d="M 959.2,33.9 C 959,32.7 957.1,32 951.3,31.1 938.9,29.2 939.1,29.2 938.7,30.9 938.4,31.8 938.2,26.4 938.1,19 L 938,5.5 949.1,16.6 c 10.8,10.8 11,11.1 10.6,15 -0.2,2.1 -0.4,3.2 -0.5,2.3 z"
       id="path192" />
    <path
       d="m 1132.3,32.4 c 0.6,-0.6 -8.5,-8.1 -19.1,-15.8 l -5.3,-3.8 5.6,-3.4 c 3.1,-1.9 5.9,-3.4 6.3,-3.4 0.4,0 5.6,4.9 11.6,10.9 l 10.8,10.9 -4.4,2.6 c -4.1,2.4 -7,3.4 -5.5,2 z"
       id="path194" />
  </g>
</svg>
