<svg id="Layer_1" data-name="Layer 1" xmlns="http://www.w3.org/2000/svg" viewBox="0 0 3840.00528 978.29999"><path d="M1449,289.9h185.80005l-21.5,247.8h.9l145.4-247.8h189.3l-142,460.3H1683l101.5-317.5h-.9L1606.4,750.2h-98.9l18.9-317.5h-.9l-94.6,317.5h-123Z" transform="translate(0.00528 0)" style="fill:#fff"/><path d="M1995.30005,289.9H2128.7l-141.1,460.3H1854.2Z" transform="translate(0.00528 0)" style="fill:#fff"/><path d="M2177.7,289.9h199.6001c79.2,0,173.80005,52.5,149.7,203.1-24.1001,153.1-125.6001,257.3-276.2,257.3H2036.6001ZM2207,632.4h64.5c86.8999,0,117.8999-96.4,122.2-138.5,7.69995-68.8-24.1001-86-68.80005-86h-49Z" transform="translate(0.00528 0)" style="fill:#fff"/><path d="M2905.6001,750.3h-128.2l26.7-238.3h-.8999l-120.5,238.3h-128.2L2573.40015,290H2704.2002L2675,557.5h.8999l133.3999-267.6h116.2l-29.30005,267.6h.8999l131.6001-267.6h135.8999Z" transform="translate(0.00528 0)" style="fill:#fff"/><path d="M3224.80005,289.9H3355.6001l52.5,460.3H3277.30005l-5.19995-65.4H3131l-35.3,65.4h-135.8999ZM3182.7,585.9h83.5L3255.8999,448.2H3255Z" transform="translate(0.00528 0)" style="fill:#fff"/><path d="M3471.80005,581.6,3403,289.9h133.3999l27.5,171.2L3683.5,289.9H3840l-234.8999,289.9-46.5,170.4H3425.2002Z" transform="translate(0.00528 0)" style="fill:#fff"/><path d="M3595.7,720.1a24.1001,24.1001,0,1,1,24.1001,24.1A24.04619,24.04619,0,0,1,3595.7,720.1Zm24,20.7c11.19995,0,18.8999-8.6,18.8999-19.8s-8.60009-19.8-18.8999-19.8A19.47075,19.47075,0,0,0,3599.8999,721C3600.80005,732.2,3609.3999,740.8,3619.7,740.8Zm-4.30005-6.9h-4.3V706.4h10.3c6.8999,0,9.5,2.6,9.5,7.7s-3.3999,6.9-6.8999,7.7l7.7,12h-4.30005l-6.8999-12h-5.2l.09985,12.1ZM3619.7,719.3c3.3999,0,6.8999,0,6.8999-4.3,0-3.4-3.3999-4.3-6-4.3h-6v8.6Z" transform="translate(0.00528 0)" style="fill:#fff"/><path d="M224.7,778.6C73.3,726.2-31.7,627.2,8.7,506.8,66.3,333.9,406.2,199.6,768.4,208.2c50.8.9,84.3,3.4,130.8,9.5l184.1-217.7-71.4,237.5c215.1,52.5,350.20008,167.8,305.4,298.6-58.5,172.9-382,282.2-621.2,295.1l119.6-413L342.5,978.3l122.2-452.6ZM1196.9,505c28.4-95.5-49-177.2-195.3-227.1L882.9,679.7C1026.6,653.9,1171.1,592.8,1196.9,505ZM876.8,242.6c-41.3-6-77.4-8.6-123.9-10.3-291.7-6.9-567,101.5-613.5,241.8C112,557.5,156.7,610.9,248.8,647L657.5,268.4,574.9,598.8,876.8,242.6" transform="translate(0.00528 0)" style="fill:#df2227"/><path d="M877.7,844a24.1,24.1,0,1,1,24.1,24.1C888.9,867.3,877.7,857.8,877.7,844Zm24.1,19.8c11.2,0,18.9-8.6,18.9-19.8s-8.6-19.8-18.9-19.8A19.47066,19.47066,0,0,0,882,844C882.9,855.2,890.6,863.8,901.8,863.8Zm-5.2-6h-4.3V830.3h10.3c6.9,0,9.5,2.6,9.5,7.7,0,5.2-3.4,6.9-6.9,7.7l7.7,12h-4.3l-6.9-12h-5.2C896.6,845.8,896.6,857.8,896.6,857.8Zm5.2-15.5c3.4,0,6.9,0,6.9-4.3,0-3.4-3.4-4.3-6-4.3h-6v8.6Z" transform="translate(0.00528 0)" style="fill:#df2227"/></svg>