<?xml version="1.0" encoding="utf-8"?>
<!-- Generator: Adobe Illustrator 25.4.1, SVG Export Plug-In . SVG Version: 6.00 Build 0)  -->
<svg version="1.1" id="Layer_1" xmlns="http://www.w3.org/2000/svg" xmlns:xlink="http://www.w3.org/1999/xlink" x="0px" y="0px"
	 viewBox="0 0 3839 1292.4" style="enable-background:new 0 0 3839 1292.4;" xml:space="preserve">
<style type="text/css">
	.st0{fill:#FFFFFF;}
	.st1{fill:#034693;}
	.st2{fill:url(#SVGID_00000002350353491981843060000004817402285531403180_);}
	.st3{fill:url(#SVGID_00000177466871697836443230000003946941484949870240_);}
	.st4{fill:url(#SVGID_00000172413696854448404460000012936442935037850549_);}
	.st5{fill:url(#SVGID_00000026883438525917728240000015300873795475608973_);}
	.st6{fill:url(#SVGID_00000039832476570597053130000011568685803259009948_);}
	.st7{fill:url(#SVGID_00000175301237781187666900000003301956583630669704_);}
	.st8{fill:url(#SVGID_00000121273091872663762080000016328131390844051380_);}
	.st9{fill:url(#SVGID_00000031895552439762221140000011541676488298937254_);}
	.st10{fill:url(#SVGID_00000164495131049044193760000016746209948461023138_);}
	.st11{fill:url(#SVGID_00000057859298837051142100000016692655717932978366_);}
	.st12{fill:url(#SVGID_00000010297677260638801380000011636314374615443371_);}
	.st13{clip-path:url(#SVGID_00000054952952154231361100000013390809787005045408_);}
	.st14{fill:url(#SVGID_00000129192767998138676530000003223470300996381577_);}
	.st15{fill:url(#SVGID_00000183243020425657144530000007522315615914420883_);}
	.st16{fill:url(#SVGID_00000021816103470930159810000002330427651392366999_);}
	.st17{fill:url(#SVGID_00000034775540050154828870000001731739233230456500_);}
	.st18{fill:url(#SVGID_00000126309327263046376480000010313727841856696721_);}
	.st19{fill:url(#SVGID_00000143579988958203547530000016089696140361270702_);}
	.st20{fill:url(#SVGID_00000018932250093250462570000014241047630374515080_);}
	.st21{fill:none;}
	.st22{clip-path:url(#SVGID_00000116237718059565709630000007289037137173839544_);}
	.st23{fill:url(#SVGID_00000008838944484757166450000001004213959458619785_);}
	.st24{fill:url(#SVGID_00000061459831155839627250000003244183711442301577_);}
	.st25{fill:url(#SVGID_00000178884526958641887430000016935286066375187644_);}
	.st26{fill:url(#SVGID_00000146461365467188377180000013675759357120780474_);}
	.st27{fill:url(#SVGID_00000179631391856262600530000004246853909751218094_);}
	.st28{fill:url(#SVGID_00000051343616108211734070000005897975972296005291_);}
	.st29{fill:url(#SVGID_00000083088890142153389840000000824679684117981850_);}
	.st30{fill:url(#SVGID_00000107550587942126225920000015907776479277089413_);}
	.st31{fill:url(#SVGID_00000101798040808213200420000013666155164306550417_);}
	.st32{fill:url(#SVGID_00000057117610352097772930000010600098717019387039_);}
	.st33{fill:url(#SVGID_00000114055025658693893480000014822500220832977040_);}
	.st34{fill:url(#SVGID_00000177486515590971528520000011025183023082517663_);}
	.st35{clip-path:url(#SVGID_00000112624328144138246830000004313532569058542986_);}
	.st36{fill:url(#SVGID_00000088099067893364099470000009500759519591261847_);}
	.st37{fill:url(#SVGID_00000006701454848716307370000011777316563450942615_);}
	.st38{fill:url(#SVGID_00000096761905015654869230000016834110390227780996_);}
	.st39{fill:url(#SVGID_00000055702399091468289570000006281404002665637506_);}
	.st40{fill:url(#SVGID_00000124126048089896080040000001480869562047907714_);}
	.st41{fill:url(#SVGID_00000116209865499756960800000012670566700551345076_);}
	.st42{fill:url(#SVGID_00000170970441081120424520000016373070587369984930_);}
	.st43{clip-path:url(#SVGID_00000134953164566521369060000013127445884673115820_);}
	.st44{fill:url(#SVGID_00000090992878086886695110000007954883758091042698_);}
	.st45{fill:url(#SVGID_00000159471771768484007010000007015715650666944178_);}
	.st46{fill:url(#SVGID_00000044177476200729317860000013778181417350379186_);}
	.st47{fill:url(#SVGID_00000094605339481052477810000005012464592119802758_);}
	.st48{fill:url(#SVGID_00000143604278748532545650000018337318272208049060_);}
	.st49{fill:url(#SVGID_00000131350353943727203500000006915777895995954083_);}
	.st50{fill:url(#SVGID_00000154419464856540026330000013067605801463508651_);}
	.st51{fill:url(#SVGID_00000006703450249478459800000000637486544812567707_);}
	.st52{fill:url(#SVGID_00000017502345437901268120000018029844211821239944_);}
	.st53{fill:url(#SVGID_00000007430108574558419600000015409468950045829282_);}
	.st54{fill:url(#SVGID_00000178177797204826018320000017370766061848087958_);}
	.st55{fill:url(#SVGID_00000024720056157007313880000015426336691884602284_);}
	.st56{clip-path:url(#SVGID_00000095334538626965987050000017906658354203965103_);}
	.st57{fill:url(#SVGID_00000132806216372121227460000010195315393594995359_);}
	.st58{fill:url(#SVGID_00000130607059749546252700000016076820808387219861_);}
	.st59{fill:url(#SVGID_00000007390340090177508550000007052799540938527909_);}
	.st60{fill:url(#SVGID_00000022541419427766957400000000883978091409540770_);}
	.st61{fill:url(#SVGID_00000078034312686474707890000003908117364143298235_);}
	.st62{fill:url(#SVGID_00000118359166409974633060000012551885555472648093_);}
	.st63{fill:url(#SVGID_00000034055174353092079360000012097281598951443622_);}
	.st64{clip-path:url(#SVGID_00000072983061780708421670000004754602497829771658_);}
	.st65{fill:url(#SVGID_00000079444465387263474360000013356928513291986868_);}
	.st66{fill:url(#SVGID_00000070105795779487466780000007144227893911117987_);}
	.st67{fill:url(#SVGID_00000021082821027040141860000015758193466176178314_);}
	.st68{fill:url(#SVGID_00000134208762825066043810000001682258548657932948_);}
	.st69{fill:url(#SVGID_00000175320759617579669640000010553929874565365120_);}
	.st70{fill:url(#SVGID_00000057826602090700762900000000606729772436919733_);}
	.st71{fill:url(#SVGID_00000176022624603832553550000014958578818570736519_);}
	.st72{fill:url(#SVGID_00000154401301871153200000000004217445184832235688_);}
	.st73{fill:url(#SVGID_00000059303527056550165970000014172203367341682102_);}
	.st74{fill:url(#SVGID_00000040569134888864986040000010746927551947314352_);}
	.st75{fill:url(#SVGID_00000152976062104054798960000017010956560496545204_);}
	.st76{fill:url(#SVGID_00000176030566961426517730000005651747743808113543_);}
	.st77{fill:url(#SVGID_00000116219314541760576190000010751479933981414799_);}
	.st78{fill:url(#SVGID_00000025418569541543049560000003350345117012863659_);}
	.st79{fill:url(#SVGID_00000003802923920191841010000016547325508098662825_);}
	.st80{fill:url(#SVGID_00000067946183363148520870000012752631079255385776_);}
	.st81{fill:url(#SVGID_00000131362295649867332350000001529179471416925887_);}
	.st82{fill:url(#SVGID_00000074427894122944649830000005969186243965855881_);}
	.st83{fill:url(#SVGID_00000115481530064069571230000013104900432610028470_);}
	.st84{fill:url(#SVGID_00000124865561111612018170000002756211075262788012_);}
	.st85{fill:url(#SVGID_00000128467779379727227010000017660929954870312335_);}
	.st86{fill:url(#SVGID_00000141413669961061691000000011773772719385783215_);}
	.st87{fill:url(#SVGID_00000181804218499889424270000004616822042488907160_);}
	.st88{fill:url(#SVGID_00000048465735181943004600000014572389232553385902_);}
	.st89{fill:url(#SVGID_00000054252187105630042470000000604188956366783632_);}
	.st90{fill:url(#SVGID_00000005269004762209270650000001693813516752011170_);}
	.st91{fill:url(#SVGID_00000050652077999902169840000011379549854968058544_);}
	.st92{clip-path:url(#SVGID_00000049929627322295396590000003121105707888858024_);}
	.st93{fill:url(#SVGID_00000094602355346116439040000017147988713604740780_);}
	.st94{fill:url(#SVGID_00000155832357089537669840000001978259338391090841_);}
	.st95{fill:url(#SVGID_00000070806713469701126470000016826738996655363257_);}
	.st96{fill:url(#SVGID_00000085930604593007985560000012887885790011172759_);}
	.st97{fill:url(#SVGID_00000158022023472161541090000007332914055073446838_);}
	.st98{fill:url(#SVGID_00000095299656151089128580000006859349064026179506_);}
	.st99{fill:url(#SVGID_00000093158555922072880260000004717214854164048826_);}
	.st100{clip-path:url(#SVGID_00000114038660483927681880000006524878482878257055_);}
	.st101{fill:url(#SVGID_00000159435823204784248060000001833534775141437345_);}
	.st102{fill:url(#SVGID_00000023994951075002315750000012449129211321295776_);}
	.st103{fill:url(#SVGID_00000083057483647357869110000003352216606592424635_);}
	.st104{fill:url(#SVGID_00000181790405684107959910000000059272068527068605_);}
	.st105{fill:url(#SVGID_00000109729895205969675880000003032886140523411617_);}
	.st106{fill:url(#SVGID_00000106868715406915223310000013789216370071877823_);}
	.st107{fill:url(#SVGID_00000097478895922166962620000003084682894962710163_);}
	.st108{fill:url(#SVGID_00000168809735415541363560000013193612979114884031_);}
	.st109{fill:url(#SVGID_00000132061982048598524070000005824069707001564555_);}
	.st110{fill:url(#SVGID_00000021840904837406268460000011042631561746610058_);}
	.st111{fill:url(#SVGID_00000176040739831898787560000001359172979929672366_);}
	.st112{fill:url(#SVGID_00000072981516097411596140000010026140296132912048_);}
	.st113{fill:url(#SVGID_00000079486809439522084590000009948525404088306607_);}
	.st114{fill:url(#SVGID_00000023988075289974978730000018419176819983428277_);}
	.st115{fill:url(#SVGID_00000031921664163294033510000005387235572575270577_);}
	.st116{clip-path:url(#SVGID_00000085959870670640961050000012937990837417247419_);}
	.st117{fill:url(#SVGID_00000042695408490065052400000012851809707919552152_);}
	.st118{fill:url(#SVGID_00000170261167728679753750000000831848944484266942_);}
	.st119{fill:url(#SVGID_00000176016931401262275730000008433179997047557004_);}
	.st120{fill:url(#SVGID_00000038372964541180293040000006037855159485162927_);}
	.st121{fill:url(#SVGID_00000031166992098537362310000002517197124824404671_);}
	.st122{fill:url(#SVGID_00000068677115437983423960000008200347968426060965_);}
	.st123{fill:url(#SVGID_00000019680137648076785220000003691883315476409747_);}
	.st124{clip-path:url(#SVGID_00000121976985361832808060000006106571943716802693_);}
	.st125{fill:url(#SVGID_00000145764437694109487100000001753811503292958648_);}
	.st126{fill:url(#SVGID_00000152230382937057783780000012622445455274353849_);}
	.st127{fill:url(#SVGID_00000003789690051479263630000006322702531769342891_);}
	.st128{fill:url(#SVGID_00000016757794825333955330000004712810746103722141_);}
	.st129{fill:url(#SVGID_00000000193773410700004670000012911534317107772581_);}
	.st130{fill:url(#SVGID_00000009548754107882270780000017073634756537992352_);}
	.st131{fill:url(#SVGID_00000004528274386667682350000010931879287979452339_);}
	.st132{clip-path:url(#SVGID_00000011743906091244758770000016085312993902588078_);}
	.st133{fill:url(#SVGID_00000038377586078171978460000000226617247830959764_);}
	.st134{fill:url(#SVGID_00000078041275542454426700000002868289500433408391_);}
	.st135{fill:url(#SVGID_00000170998235880954190910000017378674849877440947_);}
	.st136{fill:url(#SVGID_00000142875012162703520900000000402805576967970214_);}
	.st137{fill:url(#SVGID_00000032615847085677902110000014182463147459386518_);}
	.st138{fill:url(#SVGID_00000096772950561342370670000007315164876221226121_);}
	.st139{fill:url(#SVGID_00000041296881369594169360000006435275527245633720_);}
	.st140{clip-path:url(#SVGID_00000113337625849664110520000001441358974347109527_);}
	.st141{fill:url(#SVGID_00000119818361383028811440000003961406178510209922_);}
	.st142{fill:url(#SVGID_00000142174811286698099030000009882063029031976324_);}
	.st143{fill:url(#SVGID_00000114774819150814831360000003043602794832217487_);}
	.st144{fill:url(#SVGID_00000126286835120532971010000005693862760062290328_);}
	.st145{fill:url(#SVGID_00000138537977881744332140000011126828055779209103_);}
	.st146{fill:url(#SVGID_00000106110565760158537880000012081880503640564660_);}
	.st147{fill:url(#SVGID_00000167374347671815313510000008969505840396576930_);}
	.st148{clip-path:url(#SVGID_00000104691101983525505640000012408499037801953189_);}
	.st149{fill:url(#SVGID_00000075875451915615169370000003018253021810107012_);}
	.st150{fill:url(#SVGID_00000157284374538285055980000003522692184016198797_);}
	.st151{fill:url(#SVGID_00000041997510181364626870000000072125302876760710_);}
	.st152{fill:url(#SVGID_00000082328677188198439410000010106111119570115220_);}
	.st153{fill:url(#SVGID_00000085217668908654526580000001944597743605330819_);}
	.st154{fill:url(#SVGID_00000149366638444722835660000017087669090407638950_);}
	.st155{fill:url(#SVGID_00000074400966798891383000000013923312858101161344_);}
	.st156{clip-path:url(#SVGID_00000088110318013254189170000008923398707698356655_);}
	.st157{fill:url(#SVGID_00000127727483498465840750000001583787164924446602_);}
	.st158{fill:url(#SVGID_00000026158441531190002850000009190341891199900079_);}
	.st159{fill:url(#SVGID_00000104675862075289751090000006421137198567387824_);}
	.st160{fill:url(#SVGID_00000073696260229893598510000005267904097216975293_);}
	.st161{fill:url(#SVGID_00000158015581848256390770000016553196796256093597_);}
	.st162{fill:url(#SVGID_00000052087803871514639550000000591916628866785937_);}
	.st163{fill:url(#SVGID_00000181074698332644775610000012715301873950423711_);}
	.st164{fill:url(#SVGID_00000129889584398859473760000003372644419500264884_);}
	.st165{fill:url(#SVGID_00000046324477455764926070000009464303810853550258_);}
	.st166{fill:url(#SVGID_00000023247636636689444680000001254416571897052563_);}
	.st167{fill:url(#SVGID_00000088844672375326167800000015144955660122749844_);}
	.st168{fill:url(#SVGID_00000046305215141341768090000018211901431427817107_);}
	.st169{fill:url(#SVGID_00000134954544313653839180000011030753313082687105_);}
	.st170{fill:url(#SVGID_00000026159123408939451200000002518172010090115467_);}
	.st171{clip-path:url(#SVGID_00000093151513196361257060000013216507519075398273_);}
	.st172{fill:url(#SVGID_00000138540637079326107190000015291136092171184552_);}
	.st173{fill:url(#SVGID_00000014629930082152983110000011520714808271821699_);}
	.st174{fill:url(#SVGID_00000040543846542597772260000000563809466911249069_);}
	.st175{fill:url(#SVGID_00000092440167334527852730000009681466079875349633_);}
	.st176{fill:url(#SVGID_00000023968479498180721590000012639230092848237234_);}
	.st177{fill:url(#SVGID_00000141446308153722319030000009624832320406418062_);}
	.st178{fill:url(#SVGID_00000013904278187858403950000001932331866391947941_);}
	.st179{clip-path:url(#SVGID_00000064320796062151729360000008524134354416627901_);}
	.st180{fill:url(#SVGID_00000060015929697807241470000009513449716241884316_);}
	.st181{fill:url(#SVGID_00000024719317327377428520000018180542253580581051_);}
	.st182{fill:url(#SVGID_00000135672598402562640720000009394937814279088056_);}
	.st183{fill:url(#SVGID_00000026128241185240761310000015628779216994871439_);}
	.st184{fill:url(#SVGID_00000106835701827017340390000006979752866914210438_);}
	.st185{fill:url(#SVGID_00000065788813690205588050000016440169335355194007_);}
	.st186{fill:url(#SVGID_00000085223838725787012570000004979721541619660939_);}
	.st187{fill:url(#SVGID_00000085962644158304810330000010731811966930268604_);}
	.st188{fill:url(#SVGID_00000024706246285773432730000009610250083370775958_);}
	.st189{fill:url(#SVGID_00000176015735504758850770000006538614124547062144_);}
	.st190{fill:url(#SVGID_00000145034796669607381280000018191142565190531477_);}
	.st191{fill:url(#SVGID_00000067950682936914844090000012269842827903635612_);}
	.st192{clip-path:url(#SVGID_00000090974975529613925770000009397117861133144193_);}
	.st193{fill:url(#SVGID_00000109017793741983840660000007076542291361958565_);}
	.st194{fill:url(#SVGID_00000176043423912863827970000005761756476288235137_);}
	.st195{fill:url(#SVGID_00000013169888514064902300000013545944674711744666_);}
	.st196{fill:url(#SVGID_00000054962248703075805010000015006452685049401508_);}
	.st197{fill:url(#SVGID_00000079471164473566689220000000663848946210397853_);}
	.st198{fill:url(#SVGID_00000019640965935729413340000004360406895185583762_);}
	.st199{fill:url(#SVGID_00000173123749893756329960000012538586840912528526_);}
	.st200{clip-path:url(#SVGID_00000091711911822590177620000003513742825899017092_);}
	.st201{fill:url(#SVGID_00000021801141144104719130000002377243788967372178_);}
	.st202{fill:url(#SVGID_00000056413410324698400670000000725960847553682562_);}
	.st203{fill:url(#SVGID_00000103987668764476212880000001348737088970824366_);}
	.st204{fill:url(#SVGID_00000146491879636108373660000005783430537737552572_);}
	.st205{fill:url(#SVGID_00000118367615605270571950000000370068813024725406_);}
	.st206{fill:url(#SVGID_00000182515572730852032360000012816753770014882445_);}
	.st207{fill:url(#SVGID_00000142876311775549864160000002319864550504259227_);}
	.st208{fill:url(#SVGID_00000031195622966639212290000012815649674885662126_);}
	.st209{fill:url(#SVGID_00000129176449162627056090000006761523910108047274_);}
	.st210{fill:url(#SVGID_00000173873349937007069920000012985778230108458430_);}
</style>
<g>
	<g>
		<g>
			
				<linearGradient id="SVGID_00000012467280283706511980000002663018298324437424_" gradientUnits="userSpaceOnUse" x1="1919.5516" y1="1.762364e-04" x2="1919.5516" y2="405.2029">
				<stop  offset="0" style="stop-color:#23BFD4"/>
				<stop  offset="0.7055" style="stop-color:#3F4DA0"/>
			</linearGradient>
			<path style="fill:url(#SVGID_00000012467280283706511980000002663018298324437424_);" d="M1490.1,274.7c0-34-28.3-62.2-62.2-62.2
				h-45.3c-41,0-75-34-75-75c0-41,34-75,75-75H1558V7.3h-176.8c-72.2,0-130.2,58-130.2,130.2s58,130.2,130.2,130.2h45.3
				c4.2,0,7.1,2.8,7.1,7.1c0,4.2-2.8,7.1-5.7,7.1H1251V337h176.8C1461.8,337,1490.1,308.7,1490.1,274.7z M1427.8,144.8l-45.3,0
				c-4.2,0-7.1-2.8-7.1-7.1c0-2.8,2.8-5.7,5.7-5.7L1558,132l0-56.6l-176.8,0.1c-34,0-62.2,28.3-62.2,62.3c0,34,28.3,62.2,62.3,62.2
				l45.3,0c41,0,75,33.9,75,74.9s-33.9,75-74.9,75l-175.4,0.1l0,55.2l176.8-0.1c72.2,0,130.1-58.1,130.1-130.2
				C1558,202.7,1500,144.8,1427.8,144.8z M2043.3,130.4h157V75.2h-183.9c-24.1,0-42.4,18.4-42.4,42.4v176.8
				c0,24.1,18.4,42.4,42.4,42.4H2131V212.5h-87.7v55.2h32.5v12.7h-32.5c-7.1,0-12.7-5.7-12.7-12.7V143.1
				C2030.6,136.1,2036.2,130.4,2043.3,130.4z M2493.2,337l-87.7-260.3c-2.8-7.1-8.5-12.7-17-12.7c-7.1,0-14.1,5.7-17,11.3
				l-113.2,329.6h65.1l39.6-117.4V337H2493.2z M2387.1,218.1l18.4,56.6h-38.2L2387.1,218.1z M2473.3,65C2462,28.3,2428,0,2387,0
				c-41,0-75,26.9-84.9,63.7L2199,366.5l-0.1-222.1l-155.6,0.1l0,55.2l101.9-0.1l0.1,150l-127.3,0.1c-31.1,0-55.2-25.4-55.2-55.1
				l-0.1-176.8c0-31.1,25.4-55.2,55.1-55.2l182.5-0.1l0-55.2l-183.9,0.1c-60.8,0-110.3,49.6-110.3,110.4l0.1,176.8
				c0,60.8,49.6,110.3,110.4,110.3l227.8-0.1l114.4-332.5c4.2-12.7,15.6-21.2,29.7-21.2c14.1,0,25.5,8.5,29.7,21.2l93.5,277.2
				l-147.1,0.1l0,55.2l223.5-0.1L2473.3,65z M1640.1,294.5V117.7c0-31.1,25.5-55.2,55.2-55.2h189.6V7.3h-189.6
				c-60.8,0-110.4,49.5-110.4,110.4v176.8c0,60.8,49.5,110.4,110.4,110.4h189.6v-55.2h-189.6
				C1664.1,349.7,1640.1,324.2,1640.1,294.5z M1720.8,283.3c-7.1-1.4-12.7-7.1-12.7-14.1l137.2-0.1l0-55.2l-192.4,0.1l0,82.1
				c0,24.1,18.4,42.4,42.5,42.4l189.6-0.1l0-55.2L1720.8,283.3z M1720.7,131.8h162.7V75.2h-188.2c-24.1,0-42.4,18.4-42.4,42.4v82.1
				h192.4c0,0,0-55.2,0-55.2H1708C1708,137.5,1713.7,131.8,1720.7,131.8z"/>
		</g>
	</g>
	<g>
		<g>
			
				<linearGradient id="SVGID_00000159432475346570034500000002219002470952613011_" gradientUnits="userSpaceOnUse" x1="1404.5271" y1="336.9524" x2="1404.5271" y2="7.313">
				<stop  offset="0" style="stop-color:#FFFFFF;stop-opacity:0"/>
				<stop  offset="0.7031" style="stop-color:#FFFFFF;stop-opacity:0.5"/>
			</linearGradient>
			<path style="fill:url(#SVGID_00000159432475346570034500000002219002470952613011_);" d="M1552.6,12.7v44.4h-170.1
				c-21.3,0-41.4,8.4-56.7,23.7c-15.3,15.3-23.7,35.4-23.7,56.7s8.4,41.4,23.7,56.7c15.3,15.3,35.4,23.7,56.7,23.7h45.3
				c15,0,29.2,6,40.1,16.8s16.8,25.1,16.8,40.1c0,15-6,29.2-16.8,40.1c-10.8,10.8-25.1,16.8-40.1,16.8h-171.5v-44.4h171.5
				c6.1,0,11-5.6,11-12.5c0-7.2-5.2-12.5-12.5-12.5h-45.3c-33.5,0-64.8-12.9-88.3-36.4s-36.4-54.9-36.4-88.3s12.9-64.8,36.4-88.3
				c23.5-23.5,54.9-36.4,88.3-36.4H1552.6 M1558,7.3h-176.8c-72.2,0-130.2,58-130.2,130.2s58,130.2,130.2,130.2h45.3
				c4.2,0,7.1,2.8,7.1,7.1c0,4.2-2.8,7.1-5.7,7.1H1251V337h176.8c34,0,62.2-28.3,62.2-62.2c0-34-28.3-62.2-62.2-62.2h-45.3
				c-41,0-75-34-75-75c0-41,34-75,75-75H1558V7.3L1558,7.3z"/>
		</g>
		<g>
			
				<linearGradient id="SVGID_00000031919155327886229660000000611563293753474444_" gradientUnits="userSpaceOnUse" x1="1404.5271" y1="404.8608" x2="1404.5271" y2="75.2217">
				<stop  offset="0" style="stop-color:#FFFFFF;stop-opacity:0"/>
				<stop  offset="0.7031" style="stop-color:#FFFFFF;stop-opacity:0.5"/>
			</linearGradient>
			<path style="fill:url(#SVGID_00000031919155327886229660000000611563293753474444_);" d="M1552.6,80.6v45.8h-171.5
				c-5.8,0-11,5.3-11,11c0,7.2,5.2,12.5,12.5,12.5h45.3c33.5,0,64.8,12.9,88.3,36.4s36.4,54.9,36.4,88.3s-12.9,64.8-36.4,88.3
				s-54.9,36.4-88.3,36.4h-171.5v-44.4h170.1c21.3,0,41.4-8.4,56.7-23.7c15.3-15.3,23.7-35.4,23.7-56.7s-8.4-41.4-23.7-56.7
				s-35.4-23.7-56.7-23.7h-45.3c-15,0-29.2-6-40.1-16.8s-16.8-25.1-16.8-40.1c0-15,6-29.2,16.8-40.1s25.1-16.8,40.1-16.8H1552.6
				 M1558,75.2h-176.8c-34,0-62.2,28.3-62.2,62.2c0,34,28.3,62.2,62.2,62.2h45.3c41,0,75,34,75,75s-34,75-75,75H1251v55.2h176.8
				c72.2,0,130.2-58,130.2-130.2s-58-130.2-130.2-130.2h-45.3c-4.2,0-7.1-2.8-7.1-7.1c0-2.8,2.8-5.7,5.7-5.7H1558V75.2L1558,75.2z"
				/>
		</g>
		<g>
			
				<linearGradient id="SVGID_00000137840759487680127560000018002947639046980792_" gradientUnits="userSpaceOnUse" x1="2087.1492" y1="336.9524" x2="2087.1492" y2="75.2217">
				<stop  offset="0" style="stop-color:#FFFFFF;stop-opacity:0"/>
				<stop  offset="0.7031" style="stop-color:#FFFFFF;stop-opacity:0.5"/>
			</linearGradient>
			<path style="fill:url(#SVGID_00000137840759487680127560000018002947639046980792_);" d="M2195,80.6V125h-151.7
				c-10,0-18.1,8.1-18.1,18.1v124.5c0,10,8.1,18.1,18.1,18.1h32.5h5.4v-5.4v-12.7v-5.4h-5.4h-27.2v-44.4h77v113.7h-109.2
				c-21.1,0-37.1-15.9-37.1-37.1V117.7c0-21.1,15.9-37.1,37.1-37.1H2195 M2200.3,75.2h-183.9c-24.1,0-42.4,18.4-42.4,42.4v176.8
				c0,24.1,18.4,42.4,42.4,42.4H2131V212.5h-87.7v55.2h32.5v12.7h-32.5c-7.1,0-12.7-5.7-12.7-12.7V143.1c0-7.1,5.7-12.7,12.7-12.7
				h157V75.2L2200.3,75.2z"/>
		</g>
		<g>
			
				<linearGradient id="SVGID_00000182505992472821130480000001564694932528757418_" gradientUnits="userSpaceOnUse" x1="2375.7603" y1="404.8608" x2="2375.7603" y2="63.9038">
				<stop  offset="0" style="stop-color:#FFFFFF;stop-opacity:0"/>
				<stop  offset="0.7031" style="stop-color:#FFFFFF;stop-opacity:0.5"/>
			</linearGradient>
			<path style="fill:url(#SVGID_00000182505992472821130480000001564694932528757418_);" d="M2388.5,69.3c7.1,0,10.5,5.7,11.9,9.2
				l85.3,253.1h-117.3v-44.1v-7.4h37.1h7.4l-2.3-7l-18.4-56.6l-4.9-15.2l-5.3,15l-13.6,38.8v-0.5l-4.8,14.2l-1.4,4l-2.5,7.2h0.1
				l-1.9,5.6l-38.4,113.8h-53.7l110.6-322.1C2378.6,73.4,2383.8,69.3,2388.5,69.3 M2388.5,63.9c-7.1,0-14.1,5.7-17,11.3
				l-113.2,329.6h65.1l39.6-117.4V337h1.4h128.7l-87.7-260.3C2402.6,69.6,2397,63.9,2388.5,63.9L2388.5,63.9z M2367.3,274.7
				l19.8-56.6l18.4,56.6H2367.3L2367.3,274.7z"/>
		</g>
		<g>
			
				<linearGradient id="SVGID_00000068636964767581083910000004775825076528301232_" gradientUnits="userSpaceOnUse" x1="2247.0171" y1="404.8608" x2="2247.0171" y2="0.2393">
				<stop  offset="0" style="stop-color:#FFFFFF;stop-opacity:0"/>
				<stop  offset="0.7031" style="stop-color:#FFFFFF;stop-opacity:0.5"/>
			</linearGradient>
			<path style="fill:url(#SVGID_00000068636964767581083910000004775825076528301232_);" d="M2387.1,5.6c18.5,0,36.2,6.1,51,17.6
				c14.2,11,24.9,26.5,30.2,43.7l0,0.1l0,0.1l112.2,332.4h-210.7v-44.4h141.8h7.5l-2.4-7.1l-93.4-277.3c-5-15.1-18.7-24.9-34.8-24.9
				c-16.1,0-29.8,9.8-34.8,24.9l-113.3,328.8h-223.9c-57.9,0-105-47.1-105-105V117.7c0-57.9,47.1-105,105-105H2195v44.4h-177.1
				c-33.4,0-60.6,27.2-60.6,60.6v176.8c0,33.4,27.2,60.6,60.6,60.6h127.3h5.4v-5.4v-150v-5.4h-5.4h-96.5v-44.4h144.9v216.7v32.4
				l10.5-30.7l103.3-302.8l0.1-0.2l0-0.2c4.5-16.9,14.8-32,28.8-42.7C2350.8,11.5,2368.4,5.6,2387.1,5.6 M2387.1,0.2
				c-41,0-75,26.9-84.9,63.7l-103.3,302.8V144.5h-155.6v55.2h101.9v150h-127.3c-31.1,0-55.2-25.5-55.2-55.2V117.7
				c0-31.1,25.5-55.2,55.2-55.2h182.5V7.3h-183.9c-60.8,0-110.4,49.5-110.4,110.4v176.8c0,60.8,49.5,110.4,110.4,110.4h227.8
				l114.6-332.5c4.2-12.7,15.6-21.2,29.7-21.2c14.1,0,25.5,8.5,29.7,21.2l93.4,277.3h-147.1v55.2H2588L2473.4,65.3
				C2462.1,28.5,2428.1,0.2,2387.1,0.2L2387.1,0.2z"/>
		</g>
		<g>
			
				<linearGradient id="SVGID_00000034050380284434397120000014534984824118841986_" gradientUnits="userSpaceOnUse" x1="1734.8737" y1="404.8608" x2="1734.8737" y2="7.313">
				<stop  offset="0" style="stop-color:#FFFFFF;stop-opacity:0"/>
				<stop  offset="0.7031" style="stop-color:#FFFFFF;stop-opacity:0.5"/>
			</linearGradient>
			<path style="fill:url(#SVGID_00000034050380284434397120000014534984824118841986_);" d="M1879.5,12.7v44.4h-184.2
				c-33.4,0-60.6,27.2-60.6,60.6v176.8c0,33.4,27.2,60.6,60.6,60.6h184.2v44.4h-184.2c-57.9,0-105-47.1-105-105V117.7
				c0-57.9,47.1-105,105-105H1879.5 M1884.8,7.3h-189.6c-60.8,0-110.4,49.5-110.4,110.4v176.8c0,60.8,49.5,110.4,110.4,110.4h189.6
				v-55.2h-189.6c-31.1,0-55.2-25.5-55.2-55.2V117.7c0-31.1,25.5-55.2,55.2-55.2h189.6V7.3L1884.8,7.3z"/>
		</g>
		<g>
			
				<linearGradient id="SVGID_00000049191578620419760250000016724601576125960100_" gradientUnits="userSpaceOnUse" x1="1768.8279" y1="338.3672" x2="1768.8279" y2="213.8682">
				<stop  offset="0" style="stop-color:#FFFFFF;stop-opacity:0"/>
				<stop  offset="0.7031" style="stop-color:#FFFFFF;stop-opacity:0.2"/>
			</linearGradient>
			<path style="fill:url(#SVGID_00000049191578620419760250000016724601576125960100_);" d="M1839.8,219.2v44.4H1708h-5.4v5.4
				c0,9.3,7.2,17.4,17.1,19.4l0.5,0.1h0.5h158.7V333h-184.2c-21.1,0-37.1-15.9-37.1-37.1v-76.7H1839.8 M1845.2,213.9h-192.4v82.1
				c0,24.1,18.4,42.4,42.4,42.4h189.6v-55.2h-164.1c-7.1-1.4-12.7-7.1-12.7-14.1h137.2V213.9L1845.2,213.9z"/>
		</g>
		<g>
			
				<linearGradient id="SVGID_00000140718779483453983370000002149190543930780048_" gradientUnits="userSpaceOnUse" x1="1768.1206" y1="199.7207" x2="1768.1206" y2="75.2217">
				<stop  offset="0" style="stop-color:#FFFFFF;stop-opacity:0"/>
				<stop  offset="0.7031" style="stop-color:#FFFFFF;stop-opacity:0.5"/>
			</linearGradient>
			<path style="fill:url(#SVGID_00000140718779483453983370000002149190543930780048_);" d="M1878,80.6v45.8h-157.3
				c-10,0-18.1,8.1-18.1,18.1v5.4h5.4h131.9c0,10.6,0,33.9,0,44.4h-181.6v-76.7c0-21.1,15.9-37.1,37.1-37.1H1878 M1883.4,75.2
				h-188.2c-24.1,0-42.4,18.4-42.4,42.4v82.1h192.4c0,0,0-55.2,0-55.2H1708c0-7.1,5.7-12.7,12.7-12.7h162.7V75.2L1883.4,75.2z"/>
		</g>
	</g>
	<g>
		<g>
			<g>
				
					<linearGradient id="SVGID_00000019660035658120916730000015741052732652551607_" gradientUnits="userSpaceOnUse" x1="1919.5" y1="519.1802" x2="1919.5" y2="1292.449">
					<stop  offset="0" style="stop-color:#23BFD4"/>
					<stop  offset="0.7031" style="stop-color:#3F4DA0"/>
				</linearGradient>
				<path style="fill:url(#SVGID_00000019660035658120916730000015741052732652551607_);" d="M3820.9,663.8
					c-12.1-29.2-28.2-54.4-48.5-75.7c-20.2-21.3-43.6-38.1-70.2-50.4c-26.5-12.3-54-18.5-82.4-18.5h-575V624h562.3
					c20,0,37.8,3.9,53.6,11.8c15.8,7.9,29,18.1,39.8,30.7c10.8,12.6,19.1,26.9,24.8,43c5.8,16,8.7,31.9,8.7,47.7v297.2
					c0,15.8-2.9,31.7-8.7,47.7c-5.8,16-14.1,30.3-24.8,43c-10.8,12.6-24,22.9-39.8,30.7c-15.8,7.9-33.6,11.8-53.6,11.8H3268v0
					h-286.1c-20,0-37.8-3.9-53.6-11.8c-15.8-7.9-29-18.1-39.8-30.7c-10.8-12.6-19.1-26.9-24.8-43c-5.8-16-8.7-31.9-8.7-47.7V519.2
					h-104.8v535.2c0,33.1,6,64.2,18.1,93.4c12.1,29.2,28.2,54.4,48.5,75.7c20.2,21.3,43.6,38.1,70.2,50.4
					c26.5,12.4,54,18.5,82.4,18.5h263v0h387.6c28.4,0,55.8-6.2,82.4-18.5c26.5-12.3,49.9-29.2,70.2-50.4
					c20.2-21.3,36.4-46.5,48.5-75.7c12.1-29.2,18.1-60.3,18.1-93.4V757.2C3839,724.1,3833,693,3820.9,663.8z M3604.5,762.8
					c3.4,3.7,5.1,8.7,5.1,15v11H3381v104h324.7V773c0-13.7-2.2-27.7-6.7-42.2c-4.5-14.4-11.2-27.5-20.1-39
					c-8.9-11.6-20.2-21-33.9-28.4c-13.7-7.4-29.7-11-48.1-11h-552.1v104.8h549.7C3597.8,757.2,3601.1,759.1,3604.5,762.8z
					 M1500.8,572.8c-17.9-18.9-40.6-32.6-68.2-41c-27.6-8.4-60.6-12.6-98.9-12.6h-100.9c-37.8,0-70.4,4.2-97.7,12.6
					c-27.3,8.4-50.1,22.1-68.2,41c-18.1,18.9-31.5,43.5-40.2,73.7c-8.7,30.2-13,67.1-13,110.7v297.2c0,42,4.3,78.2,13,108.4
					c8.7,30.2,22.1,54.9,40.2,74.1c18.1,19.2,40.9,33.2,68.2,42.2c27.3,8.9,59.9,13.4,97.7,13.4h100.9c38.4,0,71.3-4.5,98.9-13.4
					c27.6-8.9,50.3-23,68.2-42.2c17.9-19.2,31-43.9,39.4-74.1c8.4-30.2,12.6-66.3,12.6-108.4V757.2c0-43.6-4.2-80.5-12.6-110.7
					C1531.8,616.3,1518.6,591.7,1500.8,572.8z M1453.5,1076.5c0,15.8-2,30.5-5.9,44.1c-3.9,13.7-10.2,25.5-18.9,35.5
					c-8.7,10-19.8,17.7-33.5,23.3c-13.7,5.5-30.5,8.3-50.4,8.3h-61.5h-61.5c-20,0-36.8-2.8-50.4-8.3c-13.7-5.5-24.8-13.3-33.5-23.3
					c-8.7-10-15-21.8-18.9-35.5c-3.9-13.7-5.9-28.4-5.9-44.1V735.2c0-15.8,2-30.5,5.9-44.1c3.9-13.7,10.2-25.5,18.9-35.5
					c8.7-10,20-17.7,33.9-23.3c13.9-5.5,30.9-8.3,50.8-8.3h121.4c20,0,36.9,2.8,50.8,8.3c13.9,5.5,25.2,13.3,33.9,23.3
					c8.7,10,15,21.8,18.9,35.5c3.9,13.7,5.9,28.4,5.9,44.1V1076.5z M1407,680.8c-6.8-8.9-16.2-15.9-28-20.9
					c-11.8-5-26.9-7.5-45.3-7.5h-50.4h-50.4c-18.4,0-33.5,2.5-45.3,7.5c-11.8,5-21.2,12-28,20.9c-6.8,8.9-11.6,19.4-14.2,31.5
					c-2.6,12.1-3.9,25-3.9,38.6v309.8c0,18.4,1.3,33.8,3.9,46.1c2.6,12.4,7.2,22.5,13.8,30.3c6.6,7.9,15.8,13.5,27.6,16.9
					c11.8,3.4,26.9,5.1,45.3,5.1h102.5c18.4,0,33.5-1.7,45.3-5.1c11.8-3.4,21-9.1,27.6-16.9c6.6-7.9,11.2-18,13.8-30.3
					c2.6-12.3,3.9-27.7,3.9-46.1V750.9c0-13.7-1.3-26.5-3.9-38.6C1418.5,700.2,1413.8,689.7,1407,680.8z M1323.4,1033.9
					c0,6.3-0.9,11.3-2.8,15c-1.8,3.7-5.9,5.5-12.2,5.5H1258c-6.3,0-10.4-1.8-12.2-5.5c-1.8-3.7-2.8-8.7-2.8-15V777.7
					c0-6.3,0.9-11.3,2.8-15c1.8-3.7,5.9-5.5,12.2-5.5h50.4c6.3,0,10.4,1.8,12.2,5.5c1.8,3.7,2.8,8.7,2.8,15V1033.9z M2077,572.8
					c-17.9-18.9-40.6-32.6-68.2-41c-27.6-8.4-60.6-12.6-98.9-12.6h-303.5V624h313.7c20,0,36.9,2.8,50.8,8.3
					c13.9,5.5,25.2,13.3,33.9,23.3c8.7,10,15,21.8,18.9,35.5c3.9,13.7,5.9,28.4,5.9,44.1v341.3c0,15.8-2,30.5-5.9,44.1
					c-3.9,13.7-10.2,25.5-18.9,35.5c-8.7,10-19.8,17.7-33.5,23.3c-13.7,5.5-30.5,8.3-50.4,8.3h-215.2V782.5h-99.3v510h303.5
					c38.4,0,71.3-4.5,98.9-13.4c27.6-8.9,50.3-23,68.2-42.2c17.9-19.2,31-43.9,39.4-74.1c8.4-30.2,12.6-66.3,12.6-108.4V757.2
					c0-43.6-4.2-80.5-12.6-110.7C2108,616.3,2094.8,591.7,2077,572.8z M1896.9,762.7c3.9,3.7,5.9,8.7,5.9,15v256.2
					c0,6.3-2,11.3-5.9,15c-3.9,3.7-9.1,5.5-15.4,5.5h-17.3c-13.1,0-19.7-6.8-19.7-20.5V782.5h-110.4v376.8h176.6
					c18.4,0,33.5-1.7,45.3-5.1c11.8-3.4,21-9.1,27.6-16.9c6.6-7.9,11.2-18,13.8-30.3c2.6-12.3,3.9-27.7,3.9-46.1V750.9
					c0-13.7-1.3-26.5-3.9-38.6c-2.6-12.1-7.4-22.6-14.2-31.5c-6.8-8.9-16.2-15.9-28-20.9c-11.8-5-26.9-7.5-45.3-7.5h-303.5v104.8
					h275.1C1887.8,757.2,1892.9,759.1,1896.9,762.7z M2315.4,537.7c-26.5,12.4-49.9,29.2-70.2,50.4c-20.2,21.3-36.4,46.5-48.5,75.7
					c-12.1,29.2-18.1,60.3-18.1,93.4v297.2c0,33.1,6,64.2,18.1,93.4c12.1,29.2,28.2,54.4,48.5,75.7c20.2,21.3,43.6,38.1,70.2,50.4
					c26.5,12.4,54,18.5,82.4,18.5h298.7v-104.8h-286.1c-20,0-37.8-3.9-53.6-11.8c-15.8-7.9-29-18.1-39.8-30.7
					c-10.8-12.6-19.1-26.9-24.8-43c-5.8-16-8.7-31.9-8.7-47.7V757.2c0-15.8,2.9-31.7,8.7-47.7c5.8-16,14.1-30.3,24.8-43
					c10.8-12.6,24-22.9,39.8-30.7c15.8-7.9,33.6-11.8,53.6-11.8h286.1V519.2h-298.7C2369.4,519.2,2341.9,525.4,2315.4,537.7z
					 M2372.6,663.4c-13.7,7.4-25,16.8-33.9,28.4c-8.9,11.6-15.6,24.6-20.1,39c-4.5,14.5-6.7,28.5-6.7,42.2v119.8h324.8v-104H2408
					v-11c0-6.3,1.7-11.3,5.1-15c3.4-3.7,6.7-5.5,9.9-5.5h273.5V652.4h-275.9C2402.2,652.4,2386.2,656.1,2372.6,663.4z
					 M2413.2,1048.9c-3.4-3.7-5.1-8.7-5.1-15v-10.2h228.6V918.8h-324.8v119.8c0,13.7,2.2,27.7,6.7,42.2c4.5,14.5,11.2,27.5,20.1,39
					c8.9,11.6,20.2,21,33.9,28.4c13.7,7.4,29.7,11,48.1,11h275.9v-104.8H2423C2419.9,1054.4,2416.6,1052.6,2413.2,1048.9z
					 M2910.1,1119.8c8.9,11.6,20.2,21,33.9,28.4c13.7,7.4,29.7,11,48.1,11h240.1v0H3597c18.4,0,34.4-3.7,48.1-11
					c13.7-7.4,25-16.8,33.9-28.4c8.9-11.6,15.6-24.6,20.1-39c4.5-14.4,6.7-28.5,6.7-42.2V918.8H3381v104.8h228.6v10.2
					c0,6.3-1.7,11.3-5.1,15c-3.4,3.7-6.7,5.5-9.9,5.5H3268v0h-261.7v-0.8c-3.2,0-6.4-1.7-9.9-5.1c-3.4-3.4-5.1-8.3-5.1-14.6V519.2
					h-108v519.4c0,13.7,2.2,27.7,6.7,42.2C2894.5,1095.3,2901.2,1108.3,2910.1,1119.8z M776,573.2c-7.1-10.2-15.8-19.4-26-27.6
					c-10.2-8.1-22.3-14.6-36.3-19.3c-13.9-4.7-29.6-7.1-46.9-7.1c-17.9,0-33.4,2.4-46.5,7.1c-13.1,4.7-24.6,11.2-34.3,19.3
					c-9.7,8.2-18.1,17.3-25.2,27.6c-7.1,10.2-13.5,20.9-19.3,31.9l-23.6,47.3l-23.6-47.3c-5.3-11-11.4-21.7-18.5-31.9
					c-7.1-10.2-15.6-19.4-25.6-27.6c-10-8.1-21.6-14.6-34.7-19.3c-13.1-4.7-28.6-7.1-46.5-7.1c-17.9,0-33.6,2.4-47.3,7.1
					c-13.7,4.7-25.6,11.2-35.9,19.3c-10.2,8.2-18.8,17.3-25.6,27.6c-6.8,10.2-12.4,20.9-16.6,31.9L0,1292.4h104.8l227-647.9
					c1.6-5.2,6.3-10,14.2-14.2c7.9-4.2,15.5-6.3,22.9-6.3c8.4,0,16,2.1,22.9,6.3c6.8,4.2,11.3,8.9,13.4,14.2l112.7,301.9
					l112.7-301.9c2.1-5.2,6.6-10,13.4-14.2c6.8-4.2,14.4-6.3,22.9-6.3c7.4,0,15,2.1,22.9,6.3c7.9,4.2,12.6,8.9,14.2,14.2l227,647.9
					h104.8L792.2,605.1C788.5,594.1,783.1,583.4,776,573.2z M678.7,655.9c-4.2-2.4-8.2-3.5-11.8-3.5c-3.7,0-7.5,1.2-11.4,3.5
					c-3.9,2.4-6.4,5.1-7.5,8.3l-130.1,358.6L387.8,664.2c-1.1-3.2-3.5-5.9-7.5-8.3c-3.9-2.4-7.8-3.5-11.4-3.5
					c-3.7,0-7.6,1.2-11.8,3.5c-4.2,2.4-6.8,5.1-7.9,8.3l-216,628.2H238l130.8-397.3l149,397.3l149-397.3l134.8,397.3h100.9
					l-216-628.2C685.5,661.1,682.9,658.3,678.7,655.9z"/>
			</g>
		</g>
		<g>
			<g>
				
					<linearGradient id="SVGID_00000075134548117638055940000007279367972314167986_" gradientUnits="userSpaceOnUse" x1="1919.5" y1="1292.449" x2="1919.5" y2="519.1799">
					<stop  offset="0" style="stop-color:#FFFFFF;stop-opacity:0"/>
					<stop  offset="0.7031" style="stop-color:#FFFFFF;stop-opacity:0.5"/>
				</linearGradient>
				<path style="fill:url(#SVGID_00000075134548117638055940000007279367972314167986_);" d="M2981.7,528.8v505.1
					c0,8.9,2.7,16.1,7.9,21.3c2.3,2.3,4.6,4.1,7.1,5.4v3.3h9.6h252.1v0h9.6h326.7c5.9,0,11.6-2.9,16.9-8.6
					c5.1-5.5,7.7-12.7,7.7-21.5v-10.2v-9.6h-9.6h-219v-85.7h305.6v110.2c0,12.7-2.1,25.9-6.3,39.3c-4.1,13.3-10.3,25.4-18.5,36
					c-8.1,10.4-18.4,19.1-30.9,25.8c-12.2,6.6-26.8,9.9-43.5,9.9h-355.2v0h-9.6h-240.1c-16.7,0-31.4-3.3-43.5-9.9
					c-12.4-6.7-22.8-15.4-30.9-25.8c-8.2-10.6-14.4-22.7-18.5-36c-4.2-13.4-6.3-26.7-6.3-39.3V528.8H2981.7 M2845.4,528.8v525.6
					c0,16.8,3.1,34,9.2,50.9c6.1,17,15.1,32.5,26.6,45.9c11.5,13.5,25.9,24.7,42.8,33.1c17,8.5,36.5,12.8,57.9,12.8h276.5v0h9.6
					h339.3c21.4,0,40.8-4.3,57.9-12.8c16.9-8.4,31.3-19.6,42.8-33.1c11.5-13.4,20.4-28.9,26.6-45.9c6.1-17,9.2-34.1,9.2-50.9V757.2
					c0-16.8-3.1-34-9.2-50.9c-6.1-17-15.1-32.5-26.6-45.9c-11.6-13.5-26-24.7-42.8-33.1c-17-8.5-36.5-12.8-57.9-12.8h-552.8v-85.7
					h565.4c26.8,0,53.2,5.9,78.3,17.6c25.3,11.8,48,28.1,67.2,48.4c19.3,20.3,35,44.8,46.6,72.7c11.5,27.8,17.4,58,17.4,89.7v297.2
					c0,31.7-5.9,61.9-17.4,89.7c-11.6,27.9-27.2,52.4-46.6,72.7c-19.3,20.3-41.9,36.6-67.2,48.4c-25.1,11.7-51.5,17.6-78.3,17.6
					h-378v0h-9.6h-263c-26.9,0-53.2-5.9-78.3-17.6c-25.3-11.8-47.9-28-67.2-48.4c-19.3-20.3-35-44.8-46.6-72.7
					c-11.5-27.8-17.4-58-17.4-89.7V528.8H2845.4 M2686.9,528.8v85.7h-276.5c-21.4,0-40.9,4.3-57.9,12.8
					c-16.9,8.4-31.3,19.6-42.8,33.1c-11.5,13.4-20.4,28.9-26.6,45.9c-6.1,17-9.2,34.1-9.2,50.9v297.2c0,16.8,3.1,34,9.2,50.9
					c6.1,17,15.1,32.5,26.6,45.9c11.5,13.5,25.9,24.7,42.8,33.1c17,8.5,36.5,12.8,57.9,12.8h276.5v85.7h-289.2
					c-26.9,0-53.2-5.9-78.3-17.6c-25.3-11.8-47.9-28-67.2-48.4c-19.3-20.3-35-44.8-46.6-72.7c-11.5-27.8-17.4-58-17.4-89.7V757.2
					c0-31.7,5.9-61.9,17.4-89.7c11.6-27.9,27.2-52.4,46.6-72.7c19.3-20.3,41.9-36.6,67.2-48.4c25.1-11.7,51.5-17.6,78.3-17.6H2686.9
					 M1909.9,528.8c37.2,0,69.5,4.1,96.1,12.2c25.8,7.9,47.4,20.8,64,38.4c16.7,17.7,29.2,41.1,37.1,69.7
					c8.1,29.3,12.3,65.7,12.3,108.2v297.2c0,41-4.1,76.6-12.3,105.8c-8,28.6-20.5,52.2-37.2,70.1c-16.7,17.9-38.2,31.2-64.1,39.6
					c-26.5,8.6-58.8,12.9-96,12.9H1616V792h80.1v395.6v9.6h9.6h215.2c21.1,0,39.3-3,54-9c15-6.1,27.5-14.8,37.1-25.9
					c9.5-11,16.6-24.1,20.9-39.1c4.2-14.5,6.3-30.2,6.3-46.8V735.2c0-16.6-2.1-32.3-6.3-46.8c-4.3-14.9-11.3-28.1-20.9-39.1
					c-9.6-11.1-22.3-19.8-37.6-25.9c-15-5.9-33.3-8.9-54.4-8.9H1616v-85.7H1909.9 M1333.7,528.8c37.2,0,69.5,4.1,96.1,12.2
					c25.8,7.9,47.4,20.8,64,38.4c16.7,17.7,29.2,41.1,37.1,69.7c8.1,29.3,12.3,65.7,12.3,108.2v297.2c0,41-4.1,76.6-12.3,105.8
					c-8,28.6-20.5,52.2-37.2,70.1c-16.7,17.9-38.2,31.2-64.1,39.6c-26.5,8.6-58.8,12.9-96,12.9h-100.9c-36.7,0-68.6-4.3-94.8-12.9
					c-25.7-8.4-47.3-21.7-64.2-39.6c-17-18-29.8-41.6-38-70.2c-8.4-29.2-12.6-64.8-12.6-105.7V757.2c0-42.5,4.3-78.9,12.6-108.1
					c8.2-28.6,20.9-52,37.9-69.7c16.9-17.6,38.5-30.6,64.1-38.5c26.3-8.1,58.2-12.2,94.9-12.2H1333.7 M1221.8,1197.2h61.5h61.5
					c21.1,0,39.3-3,54-9c15-6.1,27.5-14.8,37.1-25.9c9.6-11,16.6-24.1,20.9-39.1c4.2-14.5,6.3-30.2,6.3-46.8V735.2
					c0-16.6-2.1-32.3-6.3-46.8c-4.3-14.9-11.3-28.1-20.9-39.1c-9.7-11.1-22.3-19.8-37.6-25.9c-15-5.9-33.3-8.9-54.4-8.9h-121.4
					c-21.1,0-39.4,3-54.4,8.9c-15.3,6.1-27.9,14.8-37.6,25.9c-9.5,11-16.6,24.2-20.9,39.1c-4.2,14.5-6.3,30.2-6.3,46.8v341.3
					c0,16.6,2.1,32.3,6.3,46.8c4.3,15,11.3,28.1,20.9,39.1c9.6,11.1,22.1,19.8,37.1,25.9C1182.5,1194.2,1200.6,1197.2,1221.8,1197.2
					 M666.8,528.8c16.2,0,30.9,2.2,43.8,6.6c12.8,4.4,24,10.3,33.4,17.7c9.5,7.5,17.6,16.1,24.1,25.5c6.5,9.4,11.6,19.4,14.9,29.5
					l0,0.1l0,0.1l239,674.5h-84.5L713,641.5c-2.4-7.7-8.7-14.3-18.8-19.7c-9.3-4.9-18.5-7.4-27.4-7.4c-10.2,0-19.6,2.6-27.9,7.7
					c-8.6,5.3-14.4,11.6-17.3,18.8l0,0.1l0,0.1L517.9,919L414.1,641.2l0-0.1l0-0.1c-2.9-7.2-8.7-13.5-17.3-18.8
					c-8.3-5.1-17.7-7.7-27.9-7.7c-8.9,0-18.1,2.5-27.4,7.4c-10.1,5.4-16.4,12-18.8,19.6L98,1282.8H13.6l239-674.4
					c3.9-10.3,9.1-20.3,15.5-29.9c6.2-9.3,14.2-17.9,23.6-25.4c9.4-7.4,20.5-13.4,33-17.8c12.6-4.4,27.4-6.6,44.2-6.6
					c16.7,0,31.2,2.2,43.3,6.5c12,4.3,22.8,10.3,31.9,17.7c9.3,7.6,17.3,16.2,23.8,25.6c6.8,9.8,12.7,20.1,17.8,30.6l0,0.1l0,0.1
					l23.6,47.3l8.6,17.2l8.6-17.2l23.6-47.2c5.5-10.6,11.8-21,18.7-30.8c6.6-9.5,14.5-18.1,23.5-25.7c8.8-7.4,19.4-13.3,31.4-17.6
					C635.6,531,650.2,528.8,666.8,528.8 M2686.9,662v85.7H2423c-5.9,0-11.6,2.9-16.9,8.6c-5.1,5.5-7.7,12.7-7.7,21.5v11v9.6h9.6h219
					v84.9h-305.6V773c0-12.6,2.1-25.9,6.3-39.3c4.1-13.3,10.3-25.4,18.5-36c8.1-10.4,18.4-19.1,30.9-25.8
					c12.2-6.6,26.8-9.9,43.5-9.9H2686.9 M1909.9,662c17,0,31,2.3,41.6,6.7c10.2,4.3,18.3,10.3,24.1,17.9
					c5.9,7.8,10.1,17.1,12.4,27.7c2.5,11.4,3.7,23.7,3.7,36.6v309.8c0,17.6-1.3,32.5-3.7,44.1c-2.3,10.8-6.3,19.6-11.8,26.2
					c-5.4,6.4-12.9,11-22.9,13.9c-10.9,3.1-25.2,4.7-42.7,4.7h-167V792h91.2v241.9c0,9.4,2.6,16.8,7.6,22c5.1,5.3,12.4,8.1,21.7,8.1
					h17.3c8.8,0,16.2-2.7,21.9-8.1c5.9-5.5,9-13.1,9-22V777.7c0-8.9-3.1-16.5-9-22c-5.8-5.4-13.1-8.1-21.9-8.1H1616V662H1909.9
					 M1333.7,662c17,0,31,2.3,41.6,6.7c10.2,4.3,18.3,10.3,24.1,17.9c5.9,7.8,10.1,17.1,12.4,27.7c2.5,11.4,3.7,23.7,3.7,36.6v309.8
					c0,17.6-1.3,32.5-3.7,44.1c-2.3,10.8-6.3,19.6-11.8,26.2c-5.4,6.4-12.9,11-22.9,13.9c-10.9,3.1-25.2,4.7-42.7,4.7H1232
					c-17.4,0-31.8-1.6-42.7-4.7c-9.9-2.9-17.6-7.5-22.9-13.9c-5.5-6.6-9.5-15.4-11.8-26.2c-2.5-11.6-3.7-26.4-3.7-44.1V750.9
					c0-12.9,1.3-25.2,3.7-36.6c2.3-10.6,6.5-20,12.4-27.7c5.8-7.5,13.9-13.6,24.1-17.9c10.6-4.5,24.6-6.7,41.6-6.7h50.4H1333.7
					 M1258,1064h50.4c12.7,0,18.3-5.9,20.8-10.8c2.5-5.1,3.8-11.4,3.8-19.3V777.7c0-7.9-1.2-14.2-3.8-19.3
					c-2.5-4.9-8.1-10.8-20.8-10.8H1258c-12.7,0-18.3,5.9-20.8,10.8c-2.5,5.1-3.8,11.4-3.8,19.3v256.2c0,7.9,1.2,14.2,3.8,19.3
					C1239.7,1058.1,1245.3,1064,1258,1064 M666.8,662c2,0,4.4,0.8,7.1,2.3c2.4,1.4,3.3,2.5,3.5,3l0,0l0,0l211.6,615.5h-80.6
					L675.9,892.1l-8.6-25.4l-9.4,25.1l-140,373.3l-140-373.3l-9.6-25.5l-8.5,25.9l-128.7,390.7h-84.5l211.6-615.5l0,0l0,0
					c0.1-0.4,1-1.6,3.5-2.9c2.7-1.5,5.1-2.3,7.1-2.3c1.9,0,4.1,0.7,6.5,2.2c1.8,1.1,3,2.2,3.3,3.1l0,0.1l0,0.1l130.1,358.6l9,24.9
					l9-24.9l130.1-358.6l0-0.1l0-0.1c0.1-0.3,0.7-1.5,3.3-3.1C662.8,662.7,664.9,662,666.8,662 M3597,662c16.7,0,31.4,3.3,43.5,9.9
					c12.4,6.7,22.8,15.4,30.9,25.8c8.2,10.6,14.4,22.7,18.5,36c4.2,13.5,6.3,26.7,6.3,39.3v110.2h-305.6v-84.9h219h9.6v-9.6v-11
					c0-8.8-2.6-16-7.7-21.5c-5.3-5.7-11-8.6-16.9-8.6h-540.1V662H3597 M2627,928.4v85.7h-219h-9.6v9.6v10.2c0,8.8,2.6,16,7.7,21.5
					c5.3,5.7,11,8.6,16.9,8.6h263.9v85.7h-266.3c-16.7,0-31.4-3.3-43.5-9.9c-12.4-6.7-22.8-15.4-30.9-25.8
					c-8.2-10.6-14.4-22.7-18.5-36c-4.2-13.4-6.3-26.7-6.3-39.3V928.4H2627 M2991.3,519.2h-108v519.4c0,13.7,2.2,27.7,6.7,42.2
					c4.5,14.5,11.2,27.5,20.1,39c8.9,11.6,20.2,21,33.9,28.4c13.7,7.4,29.7,11,48.1,11h240.1v0H3597c18.4,0,34.4-3.7,48.1-11
					c13.7-7.4,25-16.8,33.9-28.4c8.9-11.6,15.6-24.6,20.1-39c4.5-14.4,6.7-28.5,6.7-42.2V918.8H3381v104.8h228.6v10.2
					c0,6.3-1.7,11.3-5.1,15c-3.4,3.7-6.7,5.5-9.9,5.5H3268v0h-261.7v-0.8c-3.2,0-6.4-1.7-9.9-5.1c-3.4-3.4-5.1-8.3-5.1-14.6V519.2
					L2991.3,519.2z M2855,519.2h-104.8v535.2c0,33.1,6,64.2,18.1,93.4c12.1,29.2,28.2,54.4,48.5,75.7c20.2,21.3,43.6,38.1,70.2,50.4
					c26.5,12.4,54,18.5,82.4,18.5h263v0h387.6c28.4,0,55.8-6.2,82.4-18.5c26.5-12.3,49.9-29.2,70.2-50.4
					c20.2-21.3,36.4-46.5,48.5-75.7c12.1-29.2,18.1-60.3,18.1-93.4V757.2c0-33.1-6-64.2-18.1-93.4c-12.1-29.2-28.2-54.4-48.5-75.7
					c-20.2-21.3-43.6-38.1-70.2-50.4c-26.5-12.3-54-18.5-82.4-18.5h-575V624h562.3c20,0,37.8,3.9,53.6,11.8
					c15.8,7.9,29,18.1,39.8,30.7c10.8,12.6,19.1,26.9,24.8,43c5.8,16,8.7,31.9,8.7,47.7v297.2c0,15.8-2.9,31.7-8.7,47.7
					c-5.8,16-14.1,30.3-24.8,43c-10.8,12.6-24,22.9-39.8,30.7c-15.8,7.9-33.6,11.8-53.6,11.8H3268v0h-286.1
					c-20,0-37.8-3.9-53.6-11.8c-15.8-7.9-29-18.1-39.8-30.7c-10.8-12.6-19.1-26.9-24.8-43c-5.8-16-8.7-31.9-8.7-47.7V519.2
					L2855,519.2z M2696.5,519.2h-298.7c-28.4,0-55.8,6.2-82.4,18.5c-26.5,12.4-49.9,29.2-70.2,50.4c-20.2,21.3-36.4,46.5-48.5,75.7
					c-12.1,29.2-18.1,60.3-18.1,93.4v297.2c0,33.1,6,64.2,18.1,93.4c12.1,29.2,28.2,54.4,48.5,75.7c20.2,21.3,43.6,38.1,70.2,50.4
					c26.5,12.4,54,18.5,82.4,18.5h298.7v-104.8h-286.1c-20,0-37.8-3.9-53.6-11.8c-15.8-7.9-29-18.1-39.8-30.7
					c-10.8-12.6-19.1-26.9-24.8-43c-5.8-16-8.7-31.9-8.7-47.7V757.2c0-15.8,2.9-31.7,8.7-47.7c5.8-16,14.1-30.3,24.8-43
					c10.8-12.6,24-22.9,39.8-30.7c15.8-7.9,33.6-11.8,53.6-11.8h286.1V519.2L2696.5,519.2z M1909.9,519.2h-303.5V624h313.7
					c20,0,36.9,2.8,50.8,8.3c13.9,5.5,25.2,13.3,33.9,23.3c8.7,10,15,21.8,18.9,35.5c3.9,13.7,5.9,28.4,5.9,44.1v341.3
					c0,15.8-2,30.5-5.9,44.1c-3.9,13.7-10.2,25.5-18.9,35.5c-8.7,10-19.8,17.7-33.5,23.3c-13.7,5.5-30.5,8.3-50.4,8.3h-215.2V782.5
					h-99.3v510h303.5c38.4,0,71.3-4.5,98.9-13.4c27.6-8.9,50.3-23,68.2-42.2c17.9-19.2,31-43.9,39.4-74.1
					c8.4-30.2,12.6-66.3,12.6-108.4V757.2c0-43.6-4.2-80.5-12.6-110.7c-8.4-30.2-21.6-54.8-39.4-73.7c-17.9-18.9-40.6-32.6-68.2-41
					C1981.2,523.4,1948.2,519.2,1909.9,519.2L1909.9,519.2z M1333.7,519.2h-100.9c-37.8,0-70.4,4.2-97.7,12.6
					c-27.3,8.4-50.1,22.1-68.2,41c-18.1,18.9-31.5,43.5-40.2,73.7c-8.7,30.2-13,67.1-13,110.7v297.2c0,42,4.3,78.2,13,108.4
					c8.7,30.2,22.1,54.9,40.2,74.1c18.1,19.2,40.9,33.2,68.2,42.2c27.3,8.9,59.9,13.4,97.7,13.4h100.9c38.4,0,71.3-4.5,98.9-13.4
					c27.6-8.9,50.3-23,68.2-42.2c17.9-19.2,31-43.9,39.4-74.1c8.4-30.2,12.6-66.3,12.6-108.4V757.2c0-43.6-4.2-80.5-12.6-110.7
					c-8.4-30.2-21.6-54.8-39.4-73.7c-17.9-18.9-40.6-32.6-68.2-41C1405,523.4,1372,519.2,1333.7,519.2L1333.7,519.2z M1221.8,1187.6
					c-20,0-36.8-2.8-50.4-8.3c-13.7-5.5-24.8-13.3-33.5-23.3c-8.7-10-15-21.8-18.9-35.5c-3.9-13.7-5.9-28.4-5.9-44.1V735.2
					c0-15.8,2-30.5,5.9-44.1c3.9-13.7,10.2-25.5,18.9-35.5c8.7-10,20-17.7,33.9-23.3c13.9-5.5,30.9-8.3,50.8-8.3h121.4
					c20,0,36.9,2.8,50.8,8.3c13.9,5.5,25.2,13.3,33.9,23.3c8.7,10,15,21.8,18.9,35.5c3.9,13.7,5.9,28.4,5.9,44.1v341.3
					c0,15.8-2,30.5-5.9,44.1c-3.9,13.7-10.2,25.5-18.9,35.5c-8.7,10-19.8,17.7-33.5,23.3c-13.7,5.5-30.5,8.3-50.4,8.3h-61.5H1221.8
					L1221.8,1187.6z M666.8,519.2c-17.9,0-33.4,2.4-46.5,7.1c-13.1,4.7-24.6,11.2-34.3,19.3c-9.7,8.2-18.1,17.3-25.2,27.6
					c-7.1,10.2-13.5,20.9-19.3,31.9l-23.6,47.3l-23.6-47.3c-5.3-11-11.4-21.7-18.5-31.9c-7.1-10.2-15.6-19.4-25.6-27.6
					c-10-8.1-21.6-14.6-34.7-19.3c-13.1-4.7-28.6-7.1-46.5-7.1c-17.9,0-33.6,2.4-47.3,7.1c-13.7,4.7-25.6,11.2-35.9,19.3
					c-10.2,8.2-18.8,17.3-25.6,27.6c-6.8,10.2-12.4,20.9-16.6,31.9L0,1292.4h104.8l227-647.9c1.6-5.2,6.3-10,14.2-14.2
					c7.9-4.2,15.5-6.3,22.9-6.3c8.4,0,16,2.1,22.9,6.3c6.8,4.2,11.3,8.9,13.4,14.2l112.7,301.9l112.7-301.9
					c2.1-5.2,6.6-10,13.4-14.2c6.8-4.2,14.4-6.3,22.9-6.3c7.4,0,15,2.1,22.9,6.3c7.9,4.2,12.6,8.9,14.2,14.2l227,647.9h104.8
					L792.2,605.1c-3.7-11-9.1-21.7-16.2-31.9c-7.1-10.2-15.8-19.4-26-27.6c-10.2-8.1-22.3-14.6-36.3-19.3
					C699.8,521.5,684.2,519.2,666.8,519.2L666.8,519.2z M2696.5,652.4h-275.9c-18.4,0-34.4,3.7-48.1,11c-13.7,7.4-25,16.8-33.9,28.4
					c-8.9,11.6-15.6,24.6-20.1,39c-4.5,14.5-6.7,28.5-6.7,42.2v119.8h324.8v-104H2408v-11c0-6.3,1.7-11.3,5.1-15
					c3.4-3.7,6.7-5.5,9.9-5.5h273.5V652.4L2696.5,652.4z M1909.9,652.4h-303.5v104.8h275.1c6.3,0,11.4,1.8,15.4,5.5
					c3.9,3.7,5.9,8.7,5.9,15v256.2c0,6.3-2,11.3-5.9,15c-3.9,3.7-9.1,5.5-15.4,5.5h-17.3c-13.1,0-19.7-6.8-19.7-20.5V782.5h-110.4
					v376.8h176.6c18.4,0,33.5-1.7,45.3-5.1c11.8-3.4,21-9.1,27.6-16.9c6.6-7.9,11.2-18,13.8-30.3c2.6-12.3,3.9-27.7,3.9-46.1V750.9
					c0-13.7-1.3-26.5-3.9-38.6c-2.6-12.1-7.4-22.6-14.2-31.5c-6.8-8.9-16.2-15.9-28-20.9C1943.4,654.9,1928.3,652.4,1909.9,652.4
					L1909.9,652.4z M1333.7,652.4h-50.4h-50.4c-18.4,0-33.5,2.5-45.3,7.5c-11.8,5-21.2,12-28,20.9c-6.8,8.9-11.6,19.4-14.2,31.5
					c-2.6,12.1-3.9,25-3.9,38.6v309.8c0,18.4,1.3,33.8,3.9,46.1c2.6,12.4,7.2,22.5,13.8,30.3c6.6,7.9,15.8,13.5,27.6,16.9
					c11.8,3.4,26.9,5.1,45.3,5.1h102.5c18.4,0,33.5-1.7,45.3-5.1c11.8-3.4,21-9.1,27.6-16.9c6.6-7.9,11.2-18,13.8-30.3
					c2.6-12.3,3.9-27.7,3.9-46.1V750.9c0-13.7-1.3-26.5-3.9-38.6c-2.6-12.1-7.4-22.6-14.2-31.5c-6.8-8.9-16.2-15.9-28-20.9
					C1367.2,654.9,1352.1,652.4,1333.7,652.4L1333.7,652.4z M1258,1054.4c-6.3,0-10.4-1.8-12.2-5.5c-1.8-3.7-2.8-8.7-2.8-15V777.7
					c0-6.3,0.9-11.3,2.8-15c1.8-3.7,5.9-5.5,12.2-5.5h50.4c6.3,0,10.4,1.8,12.2,5.5c1.8,3.7,2.8,8.7,2.8,15v256.2
					c0,6.3-0.9,11.3-2.8,15c-1.8,3.7-5.9,5.5-12.2,5.5H1258L1258,1054.4z M666.8,652.4c-3.7,0-7.5,1.2-11.4,3.5
					c-3.9,2.4-6.4,5.1-7.5,8.3l-130.1,358.6L387.8,664.2c-1.1-3.2-3.5-5.9-7.5-8.3c-3.9-2.4-7.8-3.5-11.4-3.5
					c-3.7,0-7.6,1.2-11.8,3.5c-4.2,2.4-6.8,5.1-7.9,8.3l-216,628.2H238l130.8-397.3l149,397.3l149-397.3l134.8,397.3h100.9
					l-216-628.2c-1.1-3.2-3.7-5.9-7.9-8.3C674.5,653.6,670.5,652.4,666.8,652.4L666.8,652.4z M3597,652.4h-552.1v104.8h549.7
					c3.2,0,6.4,1.8,9.9,5.5c3.4,3.7,5.1,8.7,5.1,15v11H3381v104h324.8V773c0-13.7-2.2-27.7-6.7-42.2c-4.5-14.4-11.2-27.5-20.1-39
					c-8.9-11.6-20.2-21-33.9-28.4C3631.4,656.1,3615.4,652.4,3597,652.4L3597,652.4z M2636.6,918.8h-324.8v119.8
					c0,13.7,2.2,27.7,6.7,42.2c4.5,14.5,11.2,27.5,20.1,39c8.9,11.6,20.2,21,33.9,28.4c13.7,7.4,29.7,11,48.1,11h275.9v-104.8H2423
					c-3.2,0-6.4-1.8-9.9-5.5c-3.4-3.7-5.1-8.7-5.1-15v-10.2h228.6V918.8L2636.6,918.8z"/>
			</g>
		</g>
	</g>
</g>
</svg>
