<svg id="Calque_1" data-name="Calque 1" xmlns="http://www.w3.org/2000/svg" viewBox="0 0 632.50943 137.99999"><path d="M32.4,137c-8-2.8-9.6-3.9-8.9-6,.5-1.7.1-1.8-4.8-1.3-6.8.7-11.9-1.6-15.2-6.6-4-6.2-4-8.8.1-20.8C7.2,91.6,9,88.7,11.5,89.6c.9.4,1.1-.7.7-4.4-.7-8,6.1-27.2,9.7-27.2,1.6,0,1.8-.6,1.3-4.5-.4-3.5.3-6.8,3.3-15.1,2.1-5.8,4.4-10.8,5.2-11.1s5.3.8,10,2.6a71.24,71.24,0,0,0,9,2.8c.1-.2-2.7-2.7-6.3-5.6C36.5,20.8,34.2,16.5,35.9,11a15.90232,15.90232,0,0,1,3.7-6.1l2.6-2.4,21.5.2c13.7.2,22.1.7,22.9,1.4,1,.8.5,3.2-2.7,12.2-2.1,6.2-4.3,12.1-4.9,13.2-.5,1.1-3.2,8.8-6,17-6.1,17.6-7.1,19.6-10.6,22.4-2.6,2-2.6,2.2-.9,3.5,1.7,1.2,1.6,1.9-2.4,13-3.2,8.5-5.1,12.3-7.3,14.1-1.6,1.4-3.5,2.5-4.1,2.5a5.79257,5.79257,0,0,0-2.6.9c-1.1.7-1.1,1.2.2,3.2,3.2,5,3,8.8-.9,19.9-3.6,10.2-5,13.1-6.3,12.9C37.8,138.9,35.2,138,32.4,137Z" transform="translate(-0.51239 -1)" style="fill:#167ae3"/><path d="M52.3,137.8c-3-1.4-4.5-6.3-3.4-10.8.5-1.9,4.4-13.2,8.6-25S68.7,70.4,73,58C89.7,10.2,88.1,14,94.3,8.3c10.3-9.5,28-9.6,37.9-.3,2.3,2.2,4.2,4,4.3,4s2.1-1.8,4.5-4c11.6-10.7,32.5-8.6,41.7,4.2,2,2.8,5.6,11.1,9.2,21.4,8.6,24.5,8.7,24.8,9.8,25.1q1.2.45.6-5.4c-.6-7.4,1-22.3,3.2-28.8C211.4,7.3,224,1,252.4,1c17.7,0,28.3,2,34.2,6.5,2.9,2.2,3.8,2.5,4.5,1.4a5.79254,5.79254,0,0,0,.9-2.6c0-.6,1.2-2.1,2.6-3.2,2.6-2,3.8-2.1,31.3-2.1,31,0,37.7.8,45.7,5.5a42.85067,42.85067,0,0,1,12,12c.9,1.7,1.5,1.3,5.8-3.3a56.94313,56.94313,0,0,1,9.5-8.1c9-5.8,11.7-6.1,63.8-6.1,32.1,0,48,.4,49.7,1.1a8.1283,8.1283,0,0,1,3.5,3.6c.7,1.6,1.1,14.8,1.1,40.8V84.9l19,.3c25.5.4,23.5-1.9,23.5,26.9v22.1l-2.8,2.4-2.8,2.4H527c-31.2,0-35.4-.8-45.9-8.5a57.45142,57.45142,0,0,0-6.6-4.5c-.3,0-.5,1.5-.5,3.4,0,9.2-1.3,9.6-32.7,9.6-28.7,0-34.2-.8-42.4-6.1a56.9436,56.9436,0,0,1-9.5-8.1l-4.8-5.1-1.5,2.4a46.47512,46.47512,0,0,1-5.8,6.6c-9.2,9.1-15,10.3-51.9,10.3-27,0-28.2-.1-30.8-2.1-1.4-1.1-2.6-2.6-2.6-3.2-.1-3.5-1.7-3.8-5.5-1.3-6.8,4.7-12.7,5.9-30.7,6.4-13.2.3-18.4,0-24.1-1.2-6.6-1.5-7.6-1.5-10.3-.1-2.3,1.2-7,1.5-23,1.5-18.3,0-20.4-.2-22.5-1.9-1.7-1.4-4.2-7.3-9-21.7-3.6-10.9-7-19.9-7.5-20.1s-2.2,3.4-3.8,7.9c-3.8,10.9-10.5,28.7-11.8,31.5-2.2,4.4-10.3,5.1-13.5,1.1-1.1-1.3-4.1-9.1-11.9-30.8-1.8-5.2-3.7-9.6-4.1-9.7-.5-.2-3.7,8.6-7.2,19.5-3.5,10.8-7.2,20.6-8.3,21.7-1.7,1.9-3.3,2-23.1,2.2-13.8.1-22-.2-23.4-.9Z" transform="translate(-0.51239 -1)" style="fill:#167ae3"/><path d="M606.3,137.8c-3.7-1.8-4.3-5.9-4.3-29.4,0-12.3-.3-22.4-.6-22.4a10.99324,10.99324,0,0,0-3.2,1.9c-6.6,4.6-11.5,3.4-16.2-3.8-3.7-5.9-4-10.9-.7-13.8,1.2-1.1,8.3-6.3,15.9-11.6L610.8,49h8.7c7.8,0,8.8.2,11,2.5l2.5,2.4V93.8c0,48.5,1.2,44.6-14.2,44.9-6,.2-11.2-.2-12.5-.9Z" transform="translate(-0.51239 -1)" style="fill:#167ae3"/><path d="M32.4,137c-8-2.8-9.6-3.9-8.9-6,.5-1.7.1-1.8-4.8-1.3-6.8.7-11.9-1.6-15.2-6.6-4-6.2-4-8.8.1-20.8C7.2,91.6,9,88.7,11.5,89.6c.9.4,1.1-.7.7-4.4-.7-8,6.1-27.2,9.7-27.2,1.6,0,1.8-.6,1.3-4.5-.4-3.5.3-6.8,3.3-15.1,2.1-5.8,4.4-10.8,5.2-11.1s5.3.8,10,2.6a71.24,71.24,0,0,0,9,2.8c.1-.2-2.7-2.7-6.3-5.6C36.5,20.8,34.2,16.5,35.9,11a15.90232,15.90232,0,0,1,3.7-6.1l2.6-2.4,21.5.2c13.7.2,22.1.7,22.9,1.4,1,.8.5,3.2-2.7,12.2-2.1,6.2-4.3,12.1-4.9,13.2-.5,1.1-3.2,8.8-6,17-6.1,17.6-7.1,19.6-10.6,22.4-2.6,2-2.6,2.2-.9,3.5,1.7,1.2,1.6,1.9-2.4,13-3.2,8.5-5.1,12.3-7.3,14.1-1.6,1.4-3.5,2.5-4.1,2.5a5.79257,5.79257,0,0,0-2.6.9c-1.1.7-1.1,1.2.2,3.2,3.2,5,3,8.8-.9,19.9-3.6,10.2-5,13.1-6.3,12.9C37.8,138.9,35.2,138,32.4,137Zm7-5.2c.8-2.4,2.5-6.8,3.6-9.8,2.4-6.5,2.5-8.9.6-13.5-4.4-10.4-20.5-9.7-24.5,1-1.7,4.6-1.9,5-2.6,4.3-.3-.2.9-4.2,2.6-8.8,2.4-6.6,2.7-8.5,1.7-9.1-1.9-1.3-4.8-1.1-4.8.3,0,.7-1.4,4.9-3.1,9.5-3,7.9-3.1,8.4-1.5,10.8,3.8,5.8,8.8,4.5,12.1-2.9,2.9-6.5,6.8-8.5,11.6-6.1,4.4,2.4,4.7,5.5,1.1,16.4-3,8.9-3.1,9.7-1.5,10.9C37.3,136.6,37.7,136.4,39.4,131.8Zm-4.5-8.4c3.7-10.5,3.4-13.8-1.3-15-4.3-1-6.6.5-9.1,6.2-3,6.8-6,8.5-11,6.1-5.2-2.5-5.4-5.4-1.5-16.9,1.8-5.4,3.1-10,2.9-10.2a15.25438,15.25438,0,0,0-2.5-1c-2-.6-2.5.2-5.4,8.1C2.7,112.5,2.4,115,4.6,119.5c2.2,4.8,6.7,7.5,12.2,7.5,5.7,0,9.9-3,12.4-8.7,3.2-7.3,3.1-4.2-.2,4.7-2.4,6.5-2.8,8.5-1.8,9.2C30.4,134.2,31.6,132.9,34.9,123.4ZM49.8,97.5c2.1-1.8,4-5.3,6.6-12.6,2-5.6,3.5-10.3,3.3-10.5a7.04066,7.04066,0,0,0-2.7-.6c-2.1-.3-2.7.6-5.8,8.7-1.8,5-4.2,9.9-5.2,10.9-1.9,1.9-2,1.9-9-.5-9.5-3.2-15.1-6-16.4-8.1-1-1.6,1.3-9.6,5.8-20.9q.75-1.5-1.8-2.7c-3.1-1.4-3.1-1.3-7.5,11.4C12.2,87,14,90.5,29.5,96.4,40.7,100.6,45.8,100.9,49.8,97.5Zm-4-5.7c1.5-1.9,7.3-18.9,6.7-19.8a4.71157,4.71157,0,0,0-2.4-1.3c-2-.5-2.1-.1-7.3,14.2-.5,1.3-1.1,2.1-1.4,1.8s.4-3.3,1.7-6.7c1.9-5.2,2-6.3.8-7.1-2.8-1.8-4.2-.3-7,7.5A84.7033,84.7033,0,0,0,34,89.2c0,1.1,5.9,3.6,8.6,3.7A4.59056,4.59056,0,0,0,45.8,91.8ZM32.4,88.2c.3-.5,1.8-4.5,3.4-8.9l3-8.1-2.4-1.1c-2.6-1.2-3-.7-6.5,8.8-.7,1.9-1.4,3-1.6,2.4-.2-.5.8-4.2,2.2-8,3.1-8.6,3.1-8.9.3-9.6-2.8-.8-3.1-.3-6.7,10.4-3.2,9.6-2.9,11.1,2.2,13.3,3.8,1.7,5.4,1.9,6.1.8ZM61.5,65.7A20.00181,20.00181,0,0,0,65.8,59c.5-1.9,2.3-7.2,4-11.6l3.1-8.2L58.2,27.4c-8.1-6.6-14.8-12.7-15-13.6-.5-2.8,2.7-3.3,18.5-3l15.2.3-2.5,7.1c-2.1,5.7-2.3,7.2-1.2,7.9,2.8,1.9,4.2.1,7.8-9.7L84.7,6.3l-6.6-.7C74.5,5.3,65.3,5,57.7,5H43.8L40.9,7.9C37.9,11,37.2,14.6,39,18c.6,1.1,6.7,6.5,13.5,12.1,6.9,5.6,12.4,10.4,12.2,10.6-.3.2-4.3-1.1-9.1-2.8-4.9-1.8-9.1-2.8-9.6-2.3a58.70361,58.70361,0,0,0-3.1,7.2c-1.9,5.4-2,6.5-.8,7.3,2.6,1.6,3.7.9,5.5-3.6.9-2.5,1.9-4.5,2.3-4.5.3,0,3.6,1.2,7.4,2.6,5.4,2.1,6.7,3,6.2,4.3-.4.9-1.6,3.9-2.6,6.8-3.3,8.7-4.9,9-19.7,3.3-11.3-4.4-11.6-5.1-6.8-17.6a91.00821,91.00821,0,0,0,3.4-10c-.2-.1-1.4-.5-2.8-.9-2.4-.5-2.7-.1-5.7,8.3-3.9,10.7-4.2,16-1,19.7,2.6,3,21.3,10.4,26.6,10.5C57.3,69,59,68.2,61.5,65.7Zm-4.7-4.9c.8-1,5.2-11.6,5.2-12.5,0-.4-7.2-3.3-9.6-3.9-1.9-.5-2.6,0-3.8,3.1-.9,2-1.4,4.1-1.1,4.5,1,1.5,4.6,1.9,5.2.4.5-1.5,2.3-2,2.3-.6a5.62419,5.62419,0,0,1-.9,2.1c-.8,1.2-1.9,1.1-7-.5-3.4-1-6.6-2.3-7.2-3-.6-.8-.1-3.5,1.7-8.4,2.6-7,2.7-7.3.9-8.6A6.64173,6.64173,0,0,0,39.9,32c-1.1,0-7,18-6.7,20.4.2,1.7,2.3,2.9,9.8,5.8C53.6,62.2,55.3,62.6,56.8,60.8ZM74.5,34.3c.6-2.4.1-3.3-3.7-6.7-2.6-2.3-3.5-3.6-2.3-3.2,1.7.5,2.3-.3,4.1-5.3,2.5-7.3,3.4-6.8-14.5-7-11.2-.2-13.1,0-13.1,1.3C45,14.8,71.5,37,73.1,37,73.5,37,74.1,35.8,74.5,34.3Z" transform="translate(-0.51239 -1)" style="fill:#fff"/><path d="M62,20.5c-1.1-1.3-.8-1.5,1.3-1.5,1.9,0,2.5.4,2.1,1.5-.4.8-1,1.5-1.4,1.5A4.4122,4.4122,0,0,1,62,20.5Z" transform="translate(-0.51239 -1)" style="fill:#fff"/><path d="M57,129.6c0-.8,3.6-11.7,8.1-24.3C75.8,75.1,85.3,48.1,90,34.3c4.9-14.4,7.5-18.9,12.5-21.8,5.8-3.4,10.4-4,16.7-2.1,6.4,1.8,10.4,5.7,14.6,14.1l3,6,1.3-3c3.2-7.4,7.9-13.5,12.1-15.7a21.7074,21.7074,0,0,1,19.7.2c7,4,7.2,4.2,18.1,35.5,2.1,6.1,6.7,19.3,10.3,29.5,18.6,52.7,18.7,53.1,17.3,53.6-.7.3-4.4.4-8.1.2l-6.9-.3-3.2-9.5c-3.1-9.1-15.1-43.8-23.6-68-2.2-6.3-5-14.4-6.2-18-2.8-8-5.9-10.4-10.3-8-2.9,1.7-4.1,4.4-14.8,34.1-2.7,7.4-5.1,13.7-5.5,14.1-.3.4-4.6-10.1-9.5-23.3-7-19.2-9.3-24.3-11.1-25.1a6.26916,6.26916,0,0,0-8.6,3c-1.4,3.6-11,30.9-21.3,60.7-4.6,13.2-9.6,27.6-11.2,32l-2.8,8-7.7.3c-6.3.2-7.8,0-7.8-1.2Z" transform="translate(-0.51239 -1)" style="fill:#fff"/><path d="M77,130.5c0-.3,3.1-9.7,7-20.8,3.8-11.1,11.3-33,16.6-48.7s10.2-29.1,10.9-29.8c2.1-2.3,4.9.1,6.9,6,1.9,5.4,7.5,21.3,14.1,39.6,2.1,5.7,4.1,10,4.5,9.5.4-.4,5.1-13,10.5-28,6-16.7,10.4-27.4,11.3-27.8,2.6-1,4.1,1.7,8.2,13.6,2.1,6.3,9.5,28,16.4,48.3S196,129.7,196,130.1c0,.5-3.3.9-7.3.9-5.8,0-7.4-.3-8.2-1.7-.6-1-5.3-14.7-10.5-30.5S160.2,70,159.9,70s-2.7,5.7-5.3,12.8c-13.7,36.6-16.9,44.8-17.4,45.9-.4.6-4.7-9.5-9.5-22.5-12-32.3-12.9-34.6-13.8-35.6-.4-.5-5.2,12.8-10.7,29.5l-9.9,30.4-8.1.3c-4.5.2-8.2,0-8.2-.3Z" transform="translate(-0.51239 -1)" style="fill:#fff"/><path d="M235.2,130c-10.2-1.9-16.8-6.9-21.1-15.9l-2.6-5.6-.3-36c-.3-31.2-.1-36.8,1.3-42.3,2.5-9.1,6.3-13.7,14.3-17.5l6.7-3.2H251c25.9,0,33.7,3,39.7,15.3l2.8,5.7.3,35.1c.4,43.7-.4,49-8.8,57.4-5.5,5.5-11.9,7.2-29.5,7.6-8.2.1-17.4-.1-20.3-.6ZM271,111.9c7.5-4.2,7.5-4.2,7.5-41.9,0-38,0-38.1-8-42-5.9-2.9-29.9-2.9-36.2-.1-7.6,3.5-7.8,4.1-8.1,40.6-.3,35.1.1,38.5,5.6,42.4,3.8,2.7,5.1,2.9,21.1,3C265.7,114,267.6,113.8,271,111.9Z" transform="translate(-0.51239 -1)" style="fill:#fff"/><path d="M236.4,108.6c-5.5-2.4-5.9-4.8-5.9-38.1,0-40.6-.4-39.7,20.6-40.3,11.2-.4,13.1-.2,16.7,1.7,6.4,3.3,6.7,5,6.7,39.6,0,34.2-.3,35.5-7.3,37.4-5.4,1.6-27,1.3-30.8-.3ZM258.5,70V47.5h-12L246.2,69c-.1,11.8,0,22,.3,22.8.3.9,2.2,1.2,6.2,1l5.8-.3Z" transform="translate(-0.51239 -1)" style="fill:#fff"/><path d="M300,90.6V50h15v64h19.3c21.1-.1,24-.7,28.1-6.3,2-2.7,2.1-4.2,2.4-35.5.2-21.6,0-34-.8-36.4a13.29963,13.29963,0,0,0-4.7-6.5l-3.6-2.8-27.9-.3L300,25.9V8.8l28.3.4c33.5.5,36.4,1.1,43.9,8.9,7.9,8.1,8.3,10.3,8.3,51.4,0,32-.2,35.6-2,41.5a22.82554,22.82554,0,0,1-6.6,11.2c-7.5,7.5-10.4,8-43.6,8.6l-28.3.4V90.6Z" transform="translate(-0.51239 -1)" style="fill:#fff"/><path d="M411.6,129.4c-9.4-2.9-18.6-11-22.9-20.2-2.1-4.6-2.2-5.7-2.2-39.2,0-34.3,0-34.5,2.4-39.5,3.5-7.3,11.1-14.8,18.4-18.1l6.2-2.9,26.3-.3L466,8.9v17l-25.4.3-25.4.3-4.3,3a24.30694,24.30694,0,0,0-6.3,7c-2,3.8-2.1,5.5-2.1,33.5s.1,29.7,2.1,33.5a23.08289,23.08289,0,0,0,6.3,7l4.3,3,25.4.3,25.4.3V131l-24.7-.1c-19,0-25.9-.4-29.7-1.5Z" transform="translate(-0.51239 -1)" style="fill:#fff"/><path d="M499.3,130c-10.2-2.1-19.5-9.9-24.6-20.8l-3.2-6.7V9.5l7.7-.3,7.7-.3.3,44.8c.3,41.5.4,45.1,2.2,48.3,2.6,4.9,5.5,7.9,9.8,10.1,3.4,1.7,6.1,1.9,28.3,1.9h24.6l-.3,8.3-.3,8.2-24,.1C514.3,130.7,501.6,130.4,499.3,130Z" transform="translate(-0.51239 -1)" style="fill:#fff"/><path d="M610.5,129.8c-.3-.7-.6-14.7-.7-31.1l-.3-29.9-8.6,6.6c-4.8,3.6-9,6.6-9.5,6.6-.6,0-1.8-1.3-2.7-2.9l-1.7-3,9.2-6.5c5.1-3.5,11.1-7.8,13.4-9.5,3.4-2.6,5-3.1,9.7-3.1h5.7v74h-7q-7.05,0-7.5-1.2Z" transform="translate(-0.51239 -1)" style="fill:#fff"/><path d="M319.5,108.7c-.3-.7-.4-13.8-.3-29.2l.3-28,8.7-.3,8.8-.3.2,20.8.3,20.8,3.4.3c2,.2,3.7-.2,4.2-.9,1.3-2.1,1.1-41.9-.2-43.5-.9-1.1-5.5-1.4-23-1.4H300V30h25.3c37.8,0,35.7-2.4,35.7,40.5,0,34-.3,35.9-7,38.2C349,110.4,320.1,110.4,319.5,108.7Z" transform="translate(-0.51239 -1)" style="fill:#fff"/><path d="M415.8,108c-7.4-3.9-9.8-10.1-9.8-25.2V72l25.3.2,25.2.3v16l-17.8.3c-16.3.2-17.8.4-17.5,2,.3,1.5,2.4,1.7,22.6,2L466,93v17H442.8c-21.1-.1-23.7-.3-27-2Z" transform="translate(-0.51239 -1)" style="fill:#fff"/><path d="M502.5,108.6c-3.9-1.7-7-5.2-9-9.8C492.2,95.6,492,88.6,492,52V8.9l8.3.3,8.2.3L509,51l.5,41.5,21,.5,21,.5v16l-23,.2C511,109.9,504.8,109.6,502.5,108.6Z" transform="translate(-0.51239 -1)" style="fill:#fff"/><path d="M406,57.2c0-15.2,2.4-21.3,10-25.2,3.6-1.8,6-2,27-2h23V47l-22.2.2c-21.5.3-22.3.4-22.3,2.3s.7,2,17.5,2.1l17.5.1V67.5l-25.2.3L406,68Z" transform="translate(-0.51239 -1)" style="fill:#fff"/></svg>