<svg id="Layer_1" data-name="Layer 1" xmlns="http://www.w3.org/2000/svg" viewBox="0 0 3840.10059 1751.3999"><path d="M18.9,1712V1363.30005l467.9-113.6v-2.2L18.9,1133.80005V785.1H814.30005v231.7H304.1v2.2l510.2,138.1v182.69995L304.1,1478V1480.2h510.2V1712Z" transform="translate(0 0)" style="fill:#828283"/><path d="M547,512.2c20.1,0,37.9-3.3,52.4-8.9,47.9-17.8,57.9-71.3,57.9-117,0-40.1-13.4-101.4-72.4-101.4-41.2,0-52.4,34.5-91.4,171.6-35.7,125.9-70.2,269.6-230.6,269.6C79.1,726.1,0,569,0,405.2,0,232.5,65.7,79.9,259.6,73.2V304.9c-30.1-4.5-50.1,8.9-63.5,29C181.6,354,176,381.8,176,406.3c0,33.4,8.9,88,53.5,88,56.8-4.5,69.1-118.1,100.3-230.6S413.3,39.8,559.3,39.8c207.2,0,274.1,190.5,274.1,367.6,0,90.2-32.3,347.6-286.3,349.8V512.2Z" transform="translate(0 0)" style="fill:#828283"/><path d="M3311.1001,905c-.1001,3.2-.2,6.4-.2,9.5-.1001,4-.19995,8-.39991,12-.19995,4.3-.3,8.5-.5,12.7-.10009,2.1-.19995,4.3-.3,6.4a1122.192,1122.192,0,0,1-12.5,118.7c110.19995,39.30005,187,93.19995,187,193,0,170.9-196.7,208.4-325.5,208.4-196.7,0-369.89991-86.6-369.89991-309.1h-355.8999c-4.69995,412.1,341.80005,594.69995,711.80005,594.69995,454.19995,0,695.40015-229.5,695.40015-536.19995,0-379.3-374.6001-456.6-496.39991-487-14.8999-3.8-29.3999-7.5-43.5-11.2.39991,2.6.7,5.3,1,7.9q.15015,1.05.30005,2.1c.8,5.9,1.5,11.8,2.19995,17.7,0,.4.1001.8.1001,1.1,1.8999,16.6,3.3999,33.4,4.6001,50.3.19995,3.2.5,6.3.6001,9.5.2,3.6.3999,7.3.60009,10.9q.29994,6,.6001,12c.1001,3.2.30005,6.4.3999,9.6.2,4.8.3,9.7.39991,14.5.10009,2.5.10009,5,.2,7.5.1001,7.5.2,15,.2,22.5v1C3311.30005,890.9,3311.30005,898,3311.1001,905Z" transform="translate(0 0)" style="fill:#fbbe02"/><path d="M2429.7,1442.2c-1,0-2,.1-3,.1-39.1001,0-75.30005-4-108.7-11.4a741.63641,741.63641,0,0,1-58.2,80.1,693.14213,693.14213,0,0,1-199,163.9c105.7,49.2,228.2,76.5,365.80005,76.5,97.3999,0,187.19995-13.8,268.8999-39.19995-60.2-31.9-113-70.80005-157.8999-116.19995A562.35193,562.35193,0,0,1,2429.7,1442.2Z" transform="translate(0 0)" style="fill:#8d2877"/><path d="M2399.5,866.3c0-191.3-38.7-348.9-107.2-473.4-67.5,23.4-122.5,66.3-164.5,128.4-59.69995,88.2-95.9,218-95.9,362.9a24.58708,24.58708,0,0,1-.19995,2.8c.1,4.9.19995,9.7.19995,14.4,0,369.9-203.69995,501.1-416.79992,501.1H1287.30005V348.9H1549.5c44.30005,0,84.80005,3.2,122,9.4A846.52878,846.52878,0,0,1,1774.7,213.6a802.09036,802.09036,0,0,1,147-129.8c-86-29.3-180.5-43.9-280.80005-43.9H919.8V1711.6H1640.8999C2151.30005,1711.5,2399.5,1351,2399.5,866.3Z" transform="translate(0 0)" style="fill:#bc2223"/><path d="M1604.9,882.7c0,163.9,35.2,316.6,101.9,446.9,51.30005-11.80005,105.9-36.1,151.9-82.9,73.3-74.69995,110.5-190.9,110.5-345.3,0-18.3,1.9-44.7,4.8-73.1,14.80005-272.1,143.1-519.3,452.79993-519.3,12,0,23.6001.4,35.1001,1.1,36.3999-93.2,100.5-173.4,190.30005-236.8q24.15013-16.95,50.10009-32C2618.80005,14.5,2526.7,0,2426.7,0,1909.30005,0,1604.9,386.3,1604.9,882.7Z" transform="translate(0 0)" style="fill:#8d2877"/><path d="M2489,505.7c0,240,146.6001,352.6,326.6001,421.6,3.3-91.3-7-184.1-14.6001-252.7-2-18.4-4-35.7-5.3999-50.9-7.1001-75.4,9.1001-182.1,76.1001-255.6,26.60009-29.2,62.10009-52,99.60009-66a120.7173,120.7173,0,0,1,19.89991-5.6c46.8-12.3,69.8-10.7,106.60009-10.7,175.6001,0,318.39991,51.5,330.1001,252.9h355.8999C3783.80005,152.2,3463,0,3114.2,0,2812.1001,0,2489,163.9,2489,505.7Z" transform="translate(0 0)" style="fill:#fbbe02"/><path d="M3173.6001,484.5a845.3911,845.3911,0,0,0-71.1001-136h-.1001C2881,332,2849.7,527.5,2858.2,617.8c3.3,34.9,9.19995,81.3,13.8999,133.6,12.3,89.9,12.19995,185.2-2.80005,274.9h0a712.52829,712.52829,0,0,1-17.8,79.30005c-2.80005,120.1,6.5,268,254.19995,295.1C3274.30005,1140.9,3290.1001,769.5,3173.6001,484.5Z" transform="translate(0 0)" style="fill:#8d2877"/></svg>