<svg id="Layer_1" data-name="Layer 1" xmlns="http://www.w3.org/2000/svg" viewBox="0 0 3839 1600.70007"><rect x="18.2" y="18.2" width="3802.6999" height="1564.39997"/><path d="M3802.7,36.3V1564.4H36.3V36.3H3802.7M3839,0H0V1600.70007H3839V0Z" transform="translate(0 0)" style="fill:#fff"/><polygon points="2707 540 2426.5 540 2426.5 263.7 2742.9 263.7 2707 540" style="fill:#fffffa"/><rect x="1585.69995" y="1060.80005" width="559.59985" height="276.19995" style="fill:#fffffa"/><rect x="1902.80005" y="662.20001" width="242.3999" height="276.20001" style="fill:#fffffa"/><path d="M1902.80005,938.5c-449.80005,0-449.80005-674.7,0-674.7V540c-81.6,0-81.6,122.4,0,122.4Z" transform="translate(0 0)" style="fill:#fffffa"/><path d="M2145.2,662.2c449.8,0,449.8,674.7,0,674.7V1060.7c81.6001,0,81.6001-122.4,0-122.4Z" transform="translate(0 0)" style="fill:#fffffa"/><polygon points="3505.2 1337 2742.9 263.7 2502.3 402.1 3166.5 1337 3505.2 1337" style="fill:#fffffa"/><polygon points="2380.6 1337 3143 263.7 3481.7 263.7 2719.4 1337 2380.6 1337" style="fill:#fffffa"/><rect x="1902.80005" y="263.70001" width="572.5" height="276.20001" style="fill:#fffffa"/><polygon points="620 1337 751.9 853.7 883.8 1337 1132.9 1337 1264.8 853.7 1396.6 1337 1682.9 1337 1390.1 263.7 1139.4 263.7 1008.3 744.2 877.3 263.7 626.5 263.7 333.8 1337 620 1337" style="fill:#fffffa"/></svg>