<svg id="Layer_1" data-name="Layer 1" xmlns="http://www.w3.org/2000/svg" viewBox="0 0 3839 1077"><rect x="15" y="15" width="2624.30005" height="1046.90002"/><path d="M2624.30005,30V1046.9H30V30H2624.30005m30-30H0V1076.9H2654.30005V0Z" transform="translate(0 0)" style="fill:#fff"/><polygon points="1882.1 354.9 1684.5 354.9 1684.5 160.3 1907.4 160.3 1882.1 354.9" style="fill:#fffffa"/><rect x="1091.90002" y="722" width="394.29993" height="194.59998" style="fill:#fffffa"/><rect x="1315.40002" y="441.20001" width="170.90002" height="194.60004" style="fill:#fffffa"/><path d="M1315.4,635.7c-317,0-317-475.5,0-475.5V354.8c-57.5,0-57.5,86.2,0,86.2Z" transform="translate(0 0)" style="fill:#fffffa"/><path d="M1486.2,441.2c317,0,317,475.5,0,475.5V722.1c57.5,0,57.5-86.2,0-86.2Z" transform="translate(0 0)" style="fill:#fffffa"/><polygon points="2444.7 916.6 1907.4 160.3 1737.9 257.8 2205.8 916.6 2444.7 916.6" style="fill:#fffffa"/><polygon points="1652.1 916.6 2189.3 160.3 2428.1 160.3 1890.8 916.6 1652.1 916.6" style="fill:#fffffa"/><rect x="1315.40002" y="160.3" width="403.40002" height="194.60002" style="fill:#fffffa"/><polygon points="411.4 916.6 504.3 575.9 597.2 916.6 772.8 916.6 865.7 575.9 958.7 916.6 1160.4 916.6 954.1 160.3 777.4 160.3 685 498.9 592.6 160.3 416 160.3 209.6 916.6 411.4 916.6" style="fill:#fffffa"/><path d="M2718.2,606.5c1-73.4,10.1001-132.7,44.19995-174.9,34.2-42.2,92.5-66.3,189-66.3,187,0,229.1001,87.5,229.1001,193.9,0,96.5-35.2,157.8-88.5,211L2981.3999,878C2965.2998,894.1,2942.2,915.2,2935.2,936.3H3180.3999V1077h-468.3c0-98.5,25.1001-189,106.6001-272.3L2943.30005,678c36.2-36.2,50.30005-63.3,50.30005-116.6,0-60.3-19.1001-79.4-48.2-79.4-26.1001,0-52.3,14.1-52.3,94.5v30.2L2718.2,606.5Z" transform="translate(0 0)" style="fill:#fff"/><polygon points="3839 676.4 3607.6 676.4 3607.6 445 3438.5 445 3438.5 676.4 3207.1 676.4 3207.1 845.5 3438.5 845.5 3438.5 1076.9 3607.6 1076.9 3607.6 845.5 3839 845.5 3839 676.4" style="fill:#fff"/></svg>