<svg id="Layer_1" data-name="Layer 1" xmlns="http://www.w3.org/2000/svg" viewBox="0 0 3839.01001 1070.60395"><polygon points="799.01 482.764 1081.28 482.764 983.3 613.454 799.01 613.454 799.01 482.764" style="fill:#fff"/><rect y="482.75397" width="192.38" height="572.31006" style="fill:#fff"/><rect x="1282.59998" y="679.99396" width="256.66003" height="168.70001" style="fill:#fff"/><polygon points="1247.1 1055.064 981.83 1055.064 1079.65 924.374 1247.1 924.374 1247.1 1055.064" style="fill:#fff"/><path d="M628.62,482.75H501.13V612.78H520a26.6949,26.6949,0,0,1,26.7,26.7v415.58H739.08V482.75Z" transform="translate(0 0.00397)" style="fill:#fff"/><path d="M326.38,482.75H227.79V612.78h18.85a26.69489,26.69489,0,0,1,26.7,26.7v415.58H465.72V482.75Z" transform="translate(0 0.00397)" style="fill:#fff"/><path d="M938.14,1055.06006l336.9-451.76c37.11-49.76,1.6-120.55-60.48-120.55h-89.61l-337,451.91c-37.06,49.7-1.59,120.4,60.41,120.4Z" transform="translate(0 0.00397)" style="fill:#fff"/><path d="M1588.99,467.22V613.45H1832.1V467.22Zm188.25,91.37H1643.83v-36.53h133.41Z" transform="translate(0 0.00397)" style="fill:#fff"/><path d="M1841.38,842.02h123.35a125.50218,125.50218,0,0,0,125.5-125.5V557.73a90.50656,90.50656,0,0,0-90.51-90.51H1868.63v197.72a30.84744,30.84744,0,0,1-30.85,30.85h-123.34a125.50227,125.50227,0,0,0-125.5,125.5v249.28991H2090.23V924.37H1810.54V872.86A30.8431,30.8431,0,0,1,1841.38,842.02Zm194,137.19v36.53h-391.58V821.3a70.72343,70.72343,0,0,1,70.65-70.64h123.34a85.80576,85.80576,0,0,0,85.69995-85.71V522.06h76.24a35.70636,35.70636,0,0,1,35.66,35.67V716.52a70.72342,70.72342,0,0,1-70.65,70.64H1841.39A85.79306,85.79306,0,0,0,1755.7,872.85V979.2H2035.38Z" transform="translate(0 0.00397)" style="fill:#fff"/><path d="M2539.73,695.79H2385.55005V613.44h279.63989V467.22H2163.94971v374.8H2412.7998a30.83681,30.83681,0,0,1,30.84009,30.84v20.66a30.84747,30.84747,0,0,1-30.8501,30.85H2163.94971V1070.6h375.81006a125.48084,125.48084,0,0,0,125.48-125.48V821.3A125.51251,125.51251,0,0,0,2539.73,695.79Zm70.6499,249.33a70.69352,70.69352,0,0,1-70.62011,70.62H2218.80005V979.21h193.98a85.80364,85.80364,0,0,0,85.71-85.69V872.86a85.793,85.793,0,0,0-85.68994-85.69h-194V522.06H2610.3501v36.53H2330.7V750.65h209.04a70.72127,70.72127,0,0,1,70.63989,70.64Z" transform="translate(0 0.00397)" style="fill:#fff"/><path d="M3129.24,467.22H2982.08008V613.44H3002.26a30.85175,30.85175,0,0,1,30.86011,30.86V893.51A30.85816,30.85816,0,0,1,3002.26,924.37h-25.8501a30.85816,30.85816,0,0,1-30.86011-30.86V467.22h-96.12988a125.48085,125.48085,0,0,0-125.48,125.48V945.12a125.48724,125.48724,0,0,0,125.48,125.48H3129.25a125.48724,125.48724,0,0,0,125.48-125.48V592.7A125.50862,125.50862,0,0,0,3129.24,467.22Zm70.62012,477.89a70.71707,70.71707,0,0,1-70.62012,70.64H2849.40991a70.7108,70.7108,0,0,1-70.62012-70.64V592.7a70.7,70.7,0,0,1,70.62012-70.62h41.28V893.52a85.80788,85.80788,0,0,0,85.71,85.71H3002.25a85.80788,85.80788,0,0,0,85.71-85.71V644.3a85.81109,85.81109,0,0,0-51.04-78.36V522.08H3129.23a70.70011,70.70011,0,0,1,70.62012,70.62V945.11Z" transform="translate(0 0.00397)" style="fill:#fff"/><path d="M3713.52,467.22H3566.36011V613.44H3586.54a30.85175,30.85175,0,0,1,30.86011,30.86V893.51A30.85816,30.85816,0,0,1,3586.54,924.37h-25.8501a30.85816,30.85816,0,0,1-30.86011-30.86V467.22H3433.7A125.48085,125.48085,0,0,0,3308.22,592.7V945.12A125.48724,125.48724,0,0,0,3433.7,1070.6H3713.53a125.48724,125.48724,0,0,0,125.48-125.48V592.7A125.4958,125.4958,0,0,0,3713.52,467.22Zm70.62988,477.89a70.71707,70.71707,0,0,1-70.62011,70.64H3433.7a70.7108,70.7108,0,0,1-70.62012-70.64V592.7A70.7,70.7,0,0,1,3433.7,522.08h41.28V893.52a85.80788,85.80788,0,0,0,85.71,85.71H3586.54a85.80788,85.80788,0,0,0,85.71-85.71V644.3a85.81109,85.81109,0,0,0-51.04-78.36V522.08H3713.52a70.70011,70.70011,0,0,1,70.62012,70.62V945.11Z" transform="translate(0 0.00397)" style="fill:#fff"/><g id="g9277"><path id="path9279" d="M1527.88807,137.47613H1309.798V10.6138H1197.09677V342.41H1309.798v-133.309h218.09007V342.41h112.70128V10.6138H1527.88807V137.47613" transform="translate(0 0.00397)" style="fill:#d02026"/></g><g id="g9281"><path id="path9283" d="M1828.7958,209.09473l78.48895-128.84117L1983.362,209.09473H1828.7958m34.76887-198.48717L1661.429,342.40373h86.1569l41.33924-67.88357h233.03957l40.10238,67.88357h137.59137L1997.56928,10.60756H1863.56467" transform="translate(0 0.00397)" style="fill:#d02026"/></g><g id="g9285"><path id="path9287" d="M2646.71776,154.40144c26.838-35.17083,23.205-86.68258-28.33757-116.17967C2570.347,10.64166,2478.65537.5001,2421.37709.5001c-91.64517,0-150.63927,6.23026-200.83707,14.81037V342.4069h112.67033V64.95156c40.58173-8.03906,81.79735-8.22457,97.19516-7.498,44.725,1.97885,69.90873,8.93571,90.02182,23.205,20.79323,14.82585,26.43606,47.61587-.52557,70.37255-20.22123,16.9593-61.18945,30.301-152.85009,16.31l-12.93977,21.2571,173.30325,153.80858h153.43757L2526.70406,209.09778c37.01045-4.79242,93.17567-19.60284,120.0137-54.69634" transform="translate(0 0.00397)" style="fill:#d02026"/></g><g id="g9289"><path id="path9291" d="M950.09709,125.26141c-65.06989-12.646-120.36924-20.515-120.36924-41.61755,0-23.37506,44.72492-29.40434,108.0788-22.67941,59.92183,6.33849,116.427,22.03008,169.14464,44.44665l40.02519-65.67284C1104.36954,23.52105,1016.58934,2.7432,936.86363.37787,849.53178-2.15755,702.07711,5.68054,695.7077,93.98636c-5.81284,80.83881,109.36195,100.148,184.898,117.71016,73.66548,17.14481,142.724,23.34417,142.724,48.85268,0,17.93327-24.33356,31.92428-88.72322,27.10086-77.4995-5.79739-143.43513-26.97718-209.20073-59.659L681.70121,299.755c72.95432,28.5077,168.619,51.40352,254.80683,52.84128,102.46692,1.70058,218.16735-14.82585,220.79551-102.59057,2.14883-73.23257-73.72738-98.81836-207.20646-124.74431" transform="translate(0 0.00397)" style="fill:#d02026"/></g><g id="g9293"><path id="path9295" d="M3010.86169,151.67739c-19.46371,15.95443-47.90961,21.59721-92.82012,21.47356-33.11476-.10823-67.37333-6.19936-95.29364-12.5378V64.94849c40.55077-8.03907,82.50843-8.16272,97.90624-7.51339,44.97222,1.90156,71.20749,9.52318,90.70215,23.22046,20.29879,14.2538,27.07015,48.43523-.49463,71.02183m98.50938-113.44331C3063.48659,11.07136,2977.57709.51241,2911.62594.51241c-91.6916,0-151.38149,6.23026-201.56363,14.79494V342.41923h112.70128V222.57562c34.84624,5.81287,78.48895,9.19855,116.27238,8.92024,92.21717-.78846,160.7345-22.44748,191.93227-56.41245,44.43117-48.31158,29.51252-106.65649-21.59717-136.84933" transform="translate(0 0.00397)" style="fill:#d02026"/></g></svg>