<svg id="Layer_1" data-name="Layer 1" xmlns="http://www.w3.org/2000/svg" viewBox="0 0 3840.00024 857.90002"><polyline points="1145.7 626.9 1285.1 626.9 1285.1 316.9 1190.8 316.9 1190.8 494.7 1190 494.7 1127.8 316.9 988.3 316.9 988.3 626.9 1082.6 626.9 1082.6 448 1083.4 448 1145.7 626.9" style="fill:#fff"/><polyline points="1672 626.9 1811.5 626.9 1811.5 316.9 1717.1 316.9 1717.1 494.7 1716.3 494.7 1654.1 316.9 1514.6 316.9 1514.6 626.9 1609 626.9 1609 448 1609.7 448 1672 626.9" style="fill:#fff"/><polyline points="2578.2 626.9 2717.7 626.9 2717.7 316.9 2623.4 316.9 2623.4 494.7 2622.5 494.7 2560.3 316.9 2420.8 316.9 2420.8 626.9 2515.2 626.9 2515.2 448 2515.9 448 2578.2 626.9" style="fill:#fff"/><rect x="1342.19995" y="316.89999" width="116.30005" height="310.00003" style="fill:#fff"/><polyline points="1919.2 401.2 1845.2 401.2 1845.2 316.9 2109.7 316.9 2109.7 401.2 2035.5 401.2 2035.5 626.9 1919.2 626.9 1919.2 401.2" style="fill:#fff"/><path d="M2881.7,556.5h11.3999c18.69995,0,31.3-5.7,38.6001-18.2,7.8-12.9,8.6001-36.3,8.6001-66.3,0-30.1-.8-53.5-8.6001-66.4-7.30005-12.4-19.80005-18.2-38.6001-18.2H2881.7V556.5m-113.8999-239.6H2905.7c117.6001,0,155,66.5,155,158.4,0,93.6-57.80005,151.6-148.1001,151.6H2767.7998v-310Z" transform="translate(0 0)" style="fill:#fff"/><path d="M3243,556.5c17.8999,0,31.3-8.8,31.3-84.6,0-74.1-12.6001-84.6-31.3-84.6s-31.3999,10.5-31.3999,84.6C3211.7,547.8,3225.2,556.5,3243,556.5m0-247.8c101.3,0,151.7,66.5,151.7,163.2,0,96.6-50.3999,163.2-151.7,163.2s-151.8-66.5-151.8-163.2C3091.30005,375.3,3141.80005,308.7,3243,308.7Z" transform="translate(0 0)" style="fill:#fff"/><path d="M3537.3999,428.8c16,0,25.6001-16.2,25.6001-37-.1001-17.6-8.1001-36.6-29.5-36.6a28.77783,28.77783,0,0,0-27,18.2c-1.5,3.1-2,7.5-2,14.8,1.3999,19.8,10.8999,40.6,32.6001,40.6h.2998m65.40015-153.1a178.21573,178.21573,0,0,0-20.6001.1c-49.1001,2.3-68.8999,23.2-75.6001,46.8h1.19995c12.2-10.7,27.30005-15.6,47.6001-15.6,38.8999,0,74.5,28.2,74.5,81.3,0,50.8-39.1001,90.4-91.3999,90.4-69.1001,0-99.2-52.7-99.2-109.3,0-46,16.30005-84.9,43-110,25.5-23.6,58.30005-35.5,98.5-36.4a128.31692,128.31692,0,0,1,22.1001.5v52.2Z" transform="translate(0 0)" style="fill:#fff"/><path d="M3751.5,368V325.3c0-15.7.8999-32.1,1.7-49.4h-1.30005c-7.8,16.8-14.5,32.7-23.1001,49.9l-20.3999,41.3-.3.8H3751.5m0,106.7V419H3648.1001V374.6l83-148h82.6001V368h26.3v51h-26.3v55.6Z" transform="translate(0 0)" style="fill:#fff"/><polyline points="2144 316.9 2374.2 316.9 2374.2 398.8 2258.6 398.8 2258.6 431.2 2365 431.2 2365 510.7 2258.6 510.7 2258.6 545.5 2377.8 545.5 2377.8 626.8 2144 626.8 2144 316.9" style="fill:#fff"/><g id="layer2"><g id="polygon3542"><polygon points="429.5 92.8 330.5 269.6 429.5 231.7 524.1 267.9 549.4 239.5 549.4 46.3 429.5 92.8" style="fill:#354ea2"/></g><g id="polygon3558"><polygon points="737.4 728.2 558.4 494.6 558.4 803.4 429.5 857.9 429.5 330.4 558.4 281 737.4 536.8 737.4 211.6 859.1 164.7 859.1 677 737.4 728.2" style="fill:#354ea2"/></g><g id="polygon3560"><polygon points="121.7 728.2 235.9 677.6 121.7 455.9 121.7 728.2" style="fill:#354ea2"/></g></g><g id="layer3"><g id="polygon3538"><polygon points="243.4 164.7 300.7 281 330.5 269.6 429.5 92.8 309.6 46.2 243.4 164.7" style="fill:#23b057"/></g><g id="polygon3540"><polygon points="524.1 267.9 615.7 164.7 737.4 211.6 737.4 536.8 558.4 281 524.1 267.9" style="fill:#23b057"/></g><g id="polygon3552"><polygon points="121.7 211.6 0 164.7 0 677 121.7 728.2 121.7 455.9 300.7 803.4 429.5 857.9 429.5 330.4 300.7 281 300.7 548.8 121.7 211.6" style="fill:#23b057"/></g></g><g id="layer4"><g id="polygon3554"><polygon points="300.7 281 300.7 548.8 121.7 211.6 243.4 164.7 300.7 281" style="fill:#f01b25"/></g><g id="polygon3556"><polygon points="737.4 728.2 558.4 494.6 558.4 622.2 595 673.5 737.4 728.2" style="fill:#f01b25"/></g></g><g id="layer5"><g id="polygon3544"><polygon points="558.4 281 429.5 330.4 300.7 281 429.5 231.7 558.4 281" style="fill:#ffa623"/></g><g id="polygon3546"><polygon points="615.7 164.7 737.4 117.9 859.1 164.7 737.4 211.6 615.7 164.7" style="fill:#ffa623"/></g><g id="polygon3548"><polygon points="0 164.7 121.7 117.9 243.4 164.7 121.7 211.6 0 164.7" style="fill:#ffa623"/></g><g id="polygon3550"><polygon points="549.4 46.3 429.5 0 309.6 46.2 429.5 92.8 549.4 46.3" style="fill:#ffa623"/></g></g></svg>