<?xml version="1.0" encoding="UTF-8" standalone="no"?>
<svg
   id="Layer_1"
   data-name="Layer 1"
   viewBox="0 0 3839.49976 1214.6041"
   version="1.1"
   sodipodi:docname="test.svg"
   inkscape:version="1.1.2 (0a00cf5339, 2022-02-04, custom)"
   xmlns:inkscape="http://www.inkscape.org/namespaces/inkscape"
   xmlns:sodipodi="http://sodipodi.sourceforge.net/DTD/sodipodi-0.dtd"
   xmlns="http://www.w3.org/2000/svg"
   xmlns:svg="http://www.w3.org/2000/svg">
  <defs
     id="defs20" />
  <sodipodi:namedview
     id="namedview18"
     pagecolor="#ffffff"
     bordercolor="#666666"
     borderopacity="1.0"
     inkscape:pageshadow="2"
     inkscape:pageopacity="0.0"
     inkscape:pagecheckerboard="0"
     showgrid="false"
     inkscape:zoom="0.27842169"
     inkscape:cx="1919.7499"
     inkscape:cy="606.99295"
     inkscape:window-width="1920"
     inkscape:window-height="1017"
     inkscape:window-x="-8"
     inkscape:window-y="-8"
     inkscape:window-maximized="1"
     inkscape:current-layer="Layer_1" />
  <polyline
     id="polyline2"
     points="211.9 544.105 399.7 544.105 399.7 126.705 272.7 126.705 272.7 366.005 271.6 366.005 187.8 126.705 0 126.705 0 544.105 127 544.105 127 303.105 128.2 303.105 211.9 544.105"
     style="fill:#3771c8" />
  <polyline
     id="polyline4"
     points="920.5 544.105 1108.4 544.105 1108.4 126.705 981.4 126.705 981.4 366.005 980.2 366.005 896.4 126.705 708.7 126.705 708.7 544.105 835.7 544.105 835.7 303.105 836.7 303.105 920.5 544.105"
     style="fill:#3771c8" />
  <polyline
     id="polyline6"
     points="2140.6 544.105 2328.5 544.105 2328.5 126.705 2201.5 126.705 2201.5 366.005 2200.3 366.005 2116.5 126.705 1928.8 126.705 1928.8 544.105 2055.8 544.105 2055.8 303.105 2056.8 303.105 2140.6 544.105"
     style="fill:#3771c8" />
  <rect
     id="rect8"
     x="476.5"
     y="126.70412"
     width="156.59998"
     height="417.3"
     style="fill:#3771c8" />
  <polyline
     id="polyline10"
     points="1253.4 240.105 1153.7 240.105 1153.7 126.705 1509.8 126.705 1509.8 240.105 1410 240.105 1410 544.105 1253.4 544.105 1253.4 240.105"
     style="fill:#3771c8" />
  <path
     id="path12"
     d="M2549.2,449.29254h15.3c25.2,0,42.1001-7.7,51.8999-24.5,10.3999-17.3,11.6001-48.9,11.6001-89.3,0-40.5-1.1001-72.1-11.6001-89.4-9.8-16.8-26.69995-24.6-51.8999-24.6h-15.3v227.8m-153.30005-322.6H2581.5c158.3,0,208.6001,89.6,208.6001,213.3,0,126-77.80005,204.1-199.30005,204.1h-194.8999v-417.4Z"
     transform="translate(0 0.01157)"
     style="fill:#3771c8" />
  <path
     id="path14"
     d="M3035.7,449.29254c24.1001,0,42.1001-11.8,42.1001-113.9,0-99.8-16.8999-113.9-42.1001-113.9-25.2,0-42.2,14.1-42.2,113.9,0,102.1,18.2,113.9,42.2,113.9m0-333.6c136.3999,0,204.19995,89.6,204.19995,219.7s-67.8,219.7-204.19995,219.7c-136.30005,0-204.30005-89.6-204.30005-219.7s68-219.7,204.30005-219.7Z"
     transform="translate(0 0.01157)"
     style="fill:#3771c8" />
  <path
     id="path16"
     d="M3432.1001,277.39254c21.5,0,34.3999-21.8,34.3999-49.8-.1001-23.7-10.8999-49.3-39.8-49.3a38.60461,38.60461,0,0,0-36.30005,24.5c-2,4.1-2.8,10-2.8,19.9,1.8,26.7,14.69995,54.7,43.89991,54.7h.60034m88-206.2c-8.30005-.6-16.3999-.4-27.7.1-66.1001,3.2-92.69995,31.2-101.8,63.1h1.6001c16.3999-14.4,36.69995-21,64-21,52.3999,0,100.3,37.9,100.3,109.5,0,68.4-52.60009,121.7-123.10009,121.7-93,0-133.5-71-133.5-147.1,0-61.9,22-114.3,58-148.1,34.30005-31.7,78.5-47.7,132.60009-49.1a195.77109,195.77109,0,0,1,29.7.6v70.3Z"
     transform="translate(0 0.01157)"
     style="fill:#f01b25" />
  <path
     id="path18"
     d="M3720.3999,195.49255v-57.4c0-21.1,1.2-43.3,2.30005-66.5h-1.80005c-10.5,22.6-19.5,44-31.19995,67.2l-27.3999,55.6-.3,1.1h58.3999m0,143.5v-74.9h-139.3v-59.8l111.8-199.2h111.2v190.5h35.39991v68.6h-35.39991v74.8Z"
     transform="translate(0 0.01157)"
     style="fill:#f01b25" />
  <polyline
     id="polyline20"
     points="1556.1 126.605 1865.9 126.605 1865.9 237.005 1710.4 237.005 1710.4 280.605 1853.6 280.605 1853.6 387.605 1710.4 387.605 1710.4 434.505 1870.9 434.505 1870.9 544.005 1556.1 544.005 1556.1 126.605"
     style="fill:#3771c8" />
  <rect
     id="rect22"
     x="1034.40002"
     y="717.6041"
     width="1770.70007"
     height="497"
     style="fill:none" />
  <path
     id="path24"
     d="M1283.2,1073.89257c23.80005,0,38.1-22.4,38.1-51.1-.1-24.3-12.1-50.6-44-50.6-19.3,0-34.5,11.3-40.19995,25.1-2.2,4.2-3.1,10.3-3.1,20.5,2,27.4,16.19995,56.1,48.6,56.1h.6m97.5-211.5c-9.19995-.6-18.1-.4-30.69995.1-73.19995,3.2-102.6,32-112.69995,64.7H1239c18.19995-14.7,40.6-21.5,70.9-21.5,58,0,111,38.9,111,112.3,0,70.2-58.19995,124.9-136.3,124.9-102.9,0-147.80005-72.8-147.80005-150.9,0-63.5,24.30005-117.3,64.2-151.9,38-32.5,86.9-49,146.8-50.3a224.73191,224.73191,0,0,1,32.9.6Z"
     transform="translate(0 0.01157)"
     style="fill:#f2f2f2" />
  <path
     id="path26"
     d="M1688.5,989.99255v-58.9c0-21.7,1.30005-44.4,2.6-68.2h-2c-11.6,23.2-21.6,45.1-34.5,69l-30.4,57.1-.4,1.1H1688.5m0,147.00007v-76.8H1534.30005v-61.4L1658,794.59253h123.1v195.4h67.69995v70.3H1781.1v76.80005h-92.6Z"
     transform="translate(0 0.01157)"
     style="fill:#f2f2f2" />
  <path
     id="path28"
     d="M2543.7,794.59253h-134v342.6h134c112,0,170.3-71.4,170.3-161.9v-18.7C2714,865.99255,2655.7,794.59253,2543.7,794.59253Zm0,271.70007h-44v-200.9h44c34.69995,0,64.5,32.6,64.5,100.4S2578.3999,1066.2926,2543.7,1066.2926Z"
     transform="translate(0 0.01157)"
     style="fill:#f2f2f2" />
  <path
     id="path30"
     d="M2120.7,794.59253h-134v342.6h134c112,0,170.3-71.4,170.3-161.9v-18.7C2291,865.99255,2232.7,794.59253,2120.7,794.59253Zm0,271.70007h-44v-200.9h44c34.69995,0,64.5,32.6,64.5,100.4S2155.30005,1066.2926,2120.7,1066.2926Z"
     transform="translate(0 0.01157)"
     style="fill:#f2f2f2" />
</svg>
