<svg id="Layer_1" data-name="Layer 1" xmlns="http://www.w3.org/2000/svg" viewBox="0 0 3839 754"><path d="M3648,754H191C85.5,754,0,668.5,0,563V191C0,85.5,85.5,0,191,0H3648c105.5,0,191,85.5,191,191V563C3839,668.5,3753.5,754,3648,754Z" transform="translate(0 0)" style="fill:#fff"/><path d="M297.1,172.1V582H439.4V291.2h234V582H815.7V294.7A122.71965,122.71965,0,0,0,693,172l-395.9.1Z" transform="translate(0 0)" style="fill:#a21f2c"/><path d="M880.8,172.1v102h404.6v43.4H1003.5A122.71964,122.71964,0,0,0,880.8,440.2v19.1A122.71965,122.71965,0,0,0,1003.5,582H1427.7V294.7A122.71964,122.71964,0,0,0,1305,172l-424.2.1Zm142.3,307.8V419.3h262.4v60.6Z" transform="translate(0 0)" style="fill:#a21f2c"/><path d="M1507.1,172.1V582h142.3V291.2h161.4V582H1953V291.2h161.3999V582H2256.7V294.7A122.71956,122.71956,0,0,0,2134,172l-626.9.1Z" transform="translate(0 0)" style="fill:#a21f2c"/><path d="M2328,294.7V459.2a122.71956,122.71956,0,0,0,122.7,122.7h389.8999V462.7H2470.2998V291.2h370.30005V172.1H2450.7A122.69834,122.69834,0,0,0,2328,294.7Z" transform="translate(0 0)" style="fill:#a21f2c"/><path d="M2912.1001,294.7V459.2a122.71956,122.71956,0,0,0,122.69995,122.7H3379a122.71964,122.71964,0,0,0,122.7-122.7V294.7A122.71956,122.71956,0,0,0,3379,172h-344.2C2967.1001,172.1,2912.1001,227,2912.1001,294.7Zm142.19995,185.2V274.1h305.2v206l-305.2-.2Z" transform="translate(0 0)" style="fill:#a21f2c"/><path d="M3642.5,342.1c-43.7,0-77.7-33.6-77.7-77.7,0-43.3,33.8999-77.3,77.7-77.3,44.5,0,77.7,33.9,77.7,77.3-.2,43.7-33.59985,77.7-77.7,77.7m0,14.9a92.52785,92.52785,0,0,0,92.8-93c0-51.3-41.5-92-92.8-92-51.6001,0-93,41.1-93,92A92.69755,92.69755,0,0,0,3642.5,357Zm12.5-88c17.8999-.4,33-7.7,33-29.1.3999-8.5-4.2-17.9-11.8-22.1-7.7-5.5-16.6001-5.5-25.5-5.5H3605V316h14.3999V269H3639.7l29.69995,47H3686Zm-35.2-10.9V222.9h28c12.7,0,25.5,2,25.5,16.6,0,20.5-21.19995,18.6-35.6001,18.6Z" transform="translate(0 0)" style="fill:#a21f2c"/></svg>