<svg id="Layer_1" data-name="Layer 1" xmlns="http://www.w3.org/2000/svg" viewBox="0 0 3839.12777 1208.80005"><polygon points="3160.617 575.4 3160.617 588.2 3187.017 588.2 3187.017 676.3 3204.417 676.3 3204.417 588.4 3235.517 588.2 3235.517 575.4 3160.617 575.4" style="fill:#fff"/><path d="M3350.2,676.3H3334V620.4l-37.2,47.1-37.3-47.1s-.1001,55.8.1001,55.9c.19995.1-14.8999,0-14.8999,0V575.5l52.3999,65.1,53-65.1V676.3Z" transform="translate(0.0168 0)" style="fill:#fff"/><rect x="2994.5168" y="575.40002" width="96.69995" height="582" style="fill:#fff"/><polygon points="2789.517 575.4 2446.517 972.6 2103.617 575.4 2103.617 1157.4 2200.317 1157.4 2200.317 835.4 2446.517 1120.6 2692.817 835.4 2692.817 1157.4 2789.517 1157.4 2789.517 575.4" style="fill:#fff"/><rect x="475.84602" y="575.46228" width="96.70001" height="483.5" style="fill:#fff"/><rect y="668.33484" width="96.7" height="489.09998" style="fill:#fff"/><rect x="675.55728" y="947.96638" width="492.20001" height="96.70001" style="fill:#fff"/><polygon points="572.517 1032.5 572.517 1157.4 0.017 688.4 0.017 563.4 572.517 1032.5" style="fill:#fff"/><path d="M1674.5,536.2c-185.69995,0-336.30005,150.6-336.30005,336.3s150.6,336.30005,336.30005,336.30005c185.69995,0,336.30005-150.6,336.30005-336.3S1860.2,536.2,1674.5,536.2Zm0,96.7c-132.30005,0-239.6,107.3-239.6,239.6s107.30005,239.6,239.6,239.6c132.30005,0,239.6-107.3,239.6-239.6S1806.80005,632.9,1674.5,632.9Zm0,461.9c-122.6,0-222.30005-99.7-222.30005-222.3s99.69995-222.3,222.30005-222.3c122.6,0,222.30005,99.7,222.30005,222.3S1797,1094.80005,1674.5,1094.80005Zm0,17.3999c-132.30005,0-239.6-107.3-239.6-239.6S1542.20007,633,1674.5,633s239.6,107.3,239.6,239.6C1914.1,1004.9,1806.80005,1112.2,1674.5,1112.2Z" transform="translate(0.0168 0)" style="fill:#f05100"/><polygon points="785.217 1157.4 1000.717 763.8 1216.117 1157.4 1326.317 1157.4 1000.717 562.4 675.017 1157.4 785.217 1157.4" style="fill:#fff"/><rect x="3504.56228" y="1060.75421" width="334.5" height="96.69995" style="fill:#f05100"/><path d="M3796,638.4c-42.2-47.9-96.3999-73.2-156.7-73.2-71.8999,0-134.8,36.8-174.69995,67.4l68.3999,68.7c47.1001-33.3,128-71.1,191.2.5,94.3999,106.9-189.80005,335.9-268.8999,392.69995v62.9h76.30005c78.3999-58.9,289-230,306.3-382.5C3843.6001,723.2,3829.1001,675.9,3796,638.4Z" transform="translate(0.0168 0)" style="fill:#f05100"/><path d="M2491.6001,83.9A120.3535,120.3535,0,0,0,2262.2,83.9l-40.6001,120.3V7H2009C1971.2,7,1936.30005,22.4,1909.7,47.6V7H1691.5c-40.6,0-76.9,16.8-103.5,44.8V7H1381c-88.1,0-160.9,72.7-160.9,160.9A159.28646,159.28646,0,0,0,1263.5,277h-43.4V464.4h207c58.69995,0,109.1-30.8,138.5-78.3,23.8,46.2,71.3,78.3,127.3,78.3h219.6V423.8c25.19995,25.2,60.1,40.6,99.30005,40.6H2618.8999Z" transform="translate(0.0168 0)" style="fill:#fff"/><path d="M1427.1,310.5H1252.29993v54.6H1427.1c33.6,0,61.5-28,61.5-61.5s-28-61.5-61.5-61.5h-44.80005c-40.6,0-74.1-33.6-74.1-74.1s33.6-74.1,74.1-74.1h173.4V39.2H1381a128.7,128.7,0,0,0,0,257.4h44.80005a6.61343,6.61343,0,0,1,7,7C1432.7,307.7,1429.9,310.5,1427.1,310.5Z" transform="translate(0.0168 0)" style="fill:#1281c4"/><path d="M1381,162.3h174.80005V106.4H1381c-33.6,0-61.5,28-61.5,61.5s28,61.5,61.5,61.5h44.80005c40.6,0,74.1,33.6,74.1,74.1s-33.6,74.1-74.1,74.1H1252.4v54.6h174.80005a128.7,128.7,0,0,0,0-257.4H1382.4a6.61344,6.61344,0,0,1-7-7A6.01026,6.01026,0,0,1,1381,162.3Z" transform="translate(0.0168 0)" style="fill:#1281c4"/><path d="M2009,106.3c-23.80005,0-42,18.2-42,42V323.1c0,23.8,18.19995,42,42,42h113.3V242H2035.6001v54.6h32.19995v12.6H2035.6001a12.54759,12.54759,0,0,1-12.6-12.6V173.4a12.54759,12.54759,0,0,1,12.6-12.6h155.3V106.2H2009Z" transform="translate(0.0168 0)" style="fill:#1281c4"/><path d="M2353.1001,365.1h127.3L2393.7002,107.7c-2.80005-7-8.39991-12.6-16.80005-12.6-7,0-14,5.6-16.8,11.2L2248.2002,432.2h64.3l39.2-116.1v49ZM2375.5,247.6l18.2,55.9H2355.8999Z" transform="translate(0.0168 0)" style="fill:#1281c4"/><path d="M2460.80005,96.5c-11.19995-36.4-44.8-64.3-85.3-64.3-40.6001,0-74.1001,26.6-83.8999,62.9L2189.5,394.4V174.8H2035.6v54.6h100.70007V377.7H2010.4a54.66715,54.66715,0,0,1-54.6-54.6V148.3a54.66715,54.66715,0,0,1,54.6-54.6h180.4V39.2H2009a109.29812,109.29812,0,0,0-109.1,109.1V323.1A109.29812,109.29812,0,0,0,2009,432.2h225.2l113.3-328.7a31.07986,31.07986,0,0,1,58.7998,0l92.30005,274.2h-145.5v54.6h221Z" transform="translate(0.0168 0)" style="fill:#1281c4"/><path d="M1691.5,377.7a54.66715,54.66715,0,0,1-54.6-54.6V148.3a54.66716,54.66716,0,0,1,54.6-54.6h187.4V39.2H1691.5a109.29812,109.29812,0,0,0-109.1,109.1V323.1a109.29812,109.29812,0,0,0,109.1,109.1h187.4V377.6H1691.5Z" transform="translate(0.0168 0)" style="fill:#1281c4"/><path d="M1704.1,297.9h135.69995V243.3H1649.6v81.1c0,23.8,18.19995,42,42,42H1879V311.8H1716.7C1709.7,310.5,1704.1,304.9,1704.1,297.9Z" transform="translate(0.0168 0)" style="fill:#1281c4"/><path d="M1839.80005,174.8H1704.1001a12.54758,12.54758,0,0,1,12.6-12.6h160.9V106.3h-186c-23.80005,0-42,18.2-42,42v81.1h190.19995Z" transform="translate(0.0168 0)" style="fill:#1281c4"/><path d="M2541.2,0a42.6,42.6,0,1,0,42.6001,42.6A42.57107,42.57107,0,0,0,2541.2,0Zm0,80.3a37.7,37.7,0,1,1,37.69995-37.7A37.59951,37.59951,0,0,1,2541.2,80.3Z" transform="translate(0.0168 0)" style="fill:#fff"/><path d="M2524,18.3h14.3c10.80005,0,22.30005,1.4,22.30005,13.4,0,7.1-5.30005,11.7-14,12.8L2562.5,66.8h-8.1001L2539.30005,45H2530.7V66.8h-6.6001L2524,18.3Zm6.6001,21.4H2536.5c7.3,0,16.8,0,16.8-8,0-7-7-8-13.3999-8h-9.3v16Z" transform="translate(0.0168 0)" style="fill:#fff"/></svg>