<svg id="Layer_1" data-name="Layer 1" xmlns="http://www.w3.org/2000/svg" viewBox="0 0 3839 1384.90002"><path d="M2425.3999,96A137.65326,137.65326,0,0,0,2163,96l-46.3999,137.6V8h-243.1c-43.19995,0-83.19995,17.6-113.6,46.4V8h-249.5c-46.4,0-88,19.2-118.4,51.2V8H1155.30017c-100.80005,0-184,83.2-184,184a182.3251,182.3251,0,0,0,49.6,124.8h-49.6v214.4H1208c67.19995,0,124.80005-35.2,158.4-89.6,27.2,52.8,81.6,89.6,145.6,89.6h251.1V484.8c28.8,28.8,68.8,46.4,113.6,46.4H2570.8999Z" transform="translate(0 0)" style="fill:#fff"/><path d="M1208,355.1H1008v62.4h200c38.4,0,70.4-32,70.4-70.4s-32-70.4-70.4-70.4h-51.19995C1110.4,276.7,1072,238.3,1072,191.9s38.4-84.8,84.80005-84.8h198.4V44.8h-200a147.2,147.2,0,1,0,0,294.4H1206.4a7.55816,7.55816,0,0,1,8,8C1214.4,351.9,1211.2,355.1,1208,355.1Z" transform="translate(0 0)" style="fill:#1281c4"/><path d="M1155.2,185.6h200v-64h-200c-38.4,0-70.4,32-70.4,70.4s32,70.4,70.4,70.4h51.19995c46.4,0,84.80005,38.4,84.80005,84.8s-38.4,84.8-84.80005,84.8h-198.4v62.4h200A147.2,147.2,0,0,0,1208,200h-51.19995a7.55816,7.55816,0,0,1-8-8A6.88244,6.88244,0,0,1,1155.2,185.6Z" transform="translate(0 0)" style="fill:#1281c4"/><path d="M1873.5,121.6c-27.19995,0-48,20.8-48,48v200c0,27.2,20.80005,48,48,48H2003V276.7h-99.19995v62.4h36.80005v14.4h-36.80005a14.34014,14.34014,0,0,1-14.4-14.4V198.4a14.34014,14.34014,0,0,1,14.4-14.4h177.6001V121.6Z" transform="translate(0 0)" style="fill:#1281c4"/><path d="M2267,417.5h145.6001l-99.2-294.3c-3.19995-8-9.6001-14.4-19.19995-14.4-8,0-16,6.4-19.2,12.8l-128,372.7h73.6001l44.8-132.8v56Zm25.6001-134.4,20.8,64H2270.2002Z" transform="translate(0 0)" style="fill:#1281c4"/><path d="M2390.2,110.4c-12.80005-41.6-51.2-73.6-97.6001-73.6s-84.80005,30.4-96,72L2079.7998,451.1V200h-176v62.4H2019V432H1875a62.47683,62.47683,0,0,1-62.4-62.4v-200a62.47683,62.47683,0,0,1,62.4-62.4h206.3999V44.8h-208a124.96058,124.96058,0,0,0-124.8,124.8v200a124.96058,124.96058,0,0,0,124.8,124.8H2131l129.6001-375.9c4.8-14.4,17.6001-24,33.6001-24s28.8,9.6,33.60009,24L2433.40039,432H2267v62.4h252.7Z" transform="translate(0 0)" style="fill:#1281c4"/><path d="M1510.4,431.9a62.47683,62.47683,0,0,1-62.4-62.4v-200a62.47683,62.47683,0,0,1,62.4-62.4h214.4V44.8H1510.4a124.96058,124.96058,0,0,0-124.8,124.8v200a124.96058,124.96058,0,0,0,124.8,124.8h214.4V432H1510.4Z" transform="translate(0 0)" style="fill:#1281c4"/><path d="M1524.80005,340.7H1680V278.3H1462.4v92.8c0,27.2,20.80005,48,48,48h214.4V356.7h-185.6C1531.2,355.1,1524.80005,348.7,1524.80005,340.7Z" transform="translate(0 0)" style="fill:#1281c4"/><path d="M1679.9,200H1524.70007a14.34014,14.34014,0,0,1,14.4-14.4h184v-64H1510.30005c-27.19995,0-48,20.8-48,48v92.8h217.6Z" transform="translate(0 0)" style="fill:#1281c4"/><path d="M2482.1001,0a48.7,48.7,0,1,0,48.69995,48.7A48.69524,48.69524,0,0,0,2482.1001,0Zm0,91.8a43.1,43.1,0,1,1,43.1001-43.1A43.0407,43.0407,0,0,1,2482.1001,91.8Z" transform="translate(0 0)" style="fill:#fff"/><path d="M2462.3999,21h16.3999c12.39991,0,25.5,1.6,25.5,15.3,0,8.1-6.10009,13.4-16,14.7l18.2,25.6h-9.30005l-17.3-25h-9.8v25h-7.6001L2462.3999,21ZM2470,45.4h6.8c8.3999,0,19.30005,0,19.30005-9.2,0-8-8-9.2-15.3999-9.2H2470V45.4Z" transform="translate(0 0)" style="fill:#fff"/><polygon points="3621.6 659 3621.6 673.6 3651.9 673.6 3651.9 774.6 3671.9 774.6 3671.9 673.9 3707.5 673.6 3707.5 659 3621.6 659" style="fill:#fff"/><path d="M3839,659.1V774.6h-18.5V710.5l-42.6001,54L3735.2,710.5s-.1001,63.9.1001,64c.30005.1-17.1001,0-17.1001,0V659l60.1001,74.6Z" transform="translate(0 0)" style="fill:#fff"/><rect x="774.09998" y="1085.90002" width="564" height="110.80005" style="fill:#fff"/><rect x="3431.3999" y="659" width="110.80005" height="666.90002" style="fill:#fff"/><polygon points="3196.4 659 2803.4 1114.1 2410.5 659 2410.5 1325.9 2521.3 1325.9 2521.3 956.8 2803.4 1283.7 3085.6 956.8 3085.6 1325.9 3196.4 1325.9 3196.4 659" style="fill:#fff"/><rect x="545.29999" y="659" width="110.79999" height="554" style="fill:#fff"/><rect y="765.5" width="110.8" height="560.40002" style="fill:#fff"/><polygon points="656 1182.7 656 1325.9 0 788.4 0 645.2 656 1182.7" style="fill:#fff"/><path d="M1918.7,614.1c-212.80005,0-385.4,172.5-385.4,385.4s172.5,385.4,385.4,385.4c212.80005,0,385.3999-172.5,385.3999-385.4S2131.6001,614.1,1918.7,614.1Zm0,110.8c-151.69995,0-274.6,122.9-274.6,274.6s122.9,274.6,274.6,274.6,274.6001-122.9,274.6001-274.6S2070.3999,724.9,1918.7,724.9Zm0,529.29993C1778.2,1254.2,1664,1139.8999,1664,999.49994c0-140.5,114.30005-254.7,254.69995-254.7,140.5,0,254.69995,114.3,254.69995,254.7C2173.5,1139.9,2059.2,1254.2,1918.7,1254.2Zm0,19.9c-151.69995,0-274.6-122.9-274.6-274.6S1767,724.9,1918.7,724.9s274.6001,122.9,274.6001,274.6C2193.30005,1151.1,2070.3999,1274.1,1918.7,1274.1Z" transform="translate(0 0)" style="fill:#cf3312"/><polygon points="899.8 1325.9 1146.6 874.8 1393.5 1325.9 1519.8 1325.9 1146.6 644.1 773.5 1325.9 899.8 1325.9" style="fill:#fff"/></svg>