<?xml version="1.0" encoding="UTF-8" standalone="no"?>
<svg
   id="Layer_1"
   data-name="Layer 1"
   viewBox="0 0 3839.10301 402.10001"
   version="1.1"
   sodipodi:docname="test.svg"
   inkscape:version="1.1.2 (0a00cf5339, 2022-02-04, custom)"
   xmlns:inkscape="http://www.inkscape.org/namespaces/inkscape"
   xmlns:sodipodi="http://sodipodi.sourceforge.net/DTD/sodipodi-0.dtd"
   xmlns="http://www.w3.org/2000/svg"
   xmlns:svg="http://www.w3.org/2000/svg">
  <defs
     id="defs25" />
  <sodipodi:namedview
     id="namedview23"
     pagecolor="#ffffff"
     bordercolor="#666666"
     borderopacity="1.0"
     inkscape:pageshadow="2"
     inkscape:pageopacity="0.0"
     inkscape:pagecheckerboard="0"
     showgrid="false"
     inkscape:zoom="0.27845046"
     inkscape:cx="1919.5515"
     inkscape:cy="201.11297"
     inkscape:window-width="1920"
     inkscape:window-height="1017"
     inkscape:window-x="-8"
     inkscape:window-y="-8"
     inkscape:window-maximized="1"
     inkscape:current-layer="Layer_1" />
  <path
     d="M385,9.6H268.3V24.9h15.2c20.4,0,36.9,19,36.9,39.3V253.6L121.5,9.6H0V24.9c27.1,0,48.5,24.5,48.5,51.7V342c0,27.1-28.6,36.2-48.5,36.2v15.3H131.9V378.2c-24.7-.1-37.8-3.5-46.2-11.5S75,348.1,75,333.5V84.7L332.7,398.9h14.1V64.6c0-19.8,15.5-36.6,38.3-37.4V9.6Z"
     transform="translate(0 0)"
     style="fill:#f2f2f2"
     id="path2" />
  <circle
     cx="1163.40002"
     cy="200.3"
     r="44.5"
     style="fill:#f2f2f2"
     id="circle4" />
  <path
     d="M1414.1,213.9v18.5h14.5c23.5,0,30.19995,11.4,30.19995,31.6v90.7c-5.4,6.6-23.8,14.9-49.69995,14.9-5.30005,0-35.30005-.6-57.80005-19-23.5-19.3-39.3-58.3-39.3-151.1,0-120.8,42.5-171.9,104.1-171.9,20,0,88,13.5,116.9,100.9h18.1V2.5H1534c-2.19995,17-15.6,26.4-40.9,15.8C1455,2.4,1420.80005,0,1395.80005,0c-98.5,0-182.5,91.3-182.5,200.3,0,125.6,94.80005,199.1,196.6,199.1,48.30005,0,99.4-11.1,139.9-31.6V264.1c0-24.3,17-31.6,39.80005-31.6V214L1414.1,213.9Z"
     transform="translate(0 0)"
     style="fill:#f2f2f2"
     id="path6" />
  <path
     d="M917.9,5.5c-110.5,0-195.5,81.3-195.5,198.3s85.1,198.3,195.5,198.3c110.5,0,195.6-81.3,195.6-198.3S1028.30005,5.5,917.9,5.5Zm0,371c-53.1,0-96-48.6-96-172.7s43-172.7,96-172.7c53.1,0,96,48.6,96,172.7C1014,327.9,970.9,376.5,917.9,376.5Z"
     transform="translate(0 0)"
     style="fill:#f2f2f2"
     id="path8" />
  <path
     d="M2102.2,5.5c-110.5,0-195.5,81.3-195.5,198.3s85.1,198.3,195.5,198.3c110.5,0,195.6001-81.3,195.6001-198.3S2212.6001,5.5,2102.2,5.5Zm0,371c-53.1001,0-96-48.6-96-172.7s43-172.7,96-172.7c53.1001,0,96,48.6,96,172.7C2198.30005,327.9,2155.30005,376.5,2102.2,376.5Z"
     transform="translate(0 0)"
     style="fill:#f2f2f2"
     id="path10" />
  <path
     d="M3692,161.5H3437.7V89.6h159.8l15.8,27.4h109l-30.5-52.8a109.1883,109.1883,0,0,0-94.5-54.6H3407.2c-27,0-69.80005,21.9-69.80005,48.9V196c0,27,47.30005,45.5,81.7,45.5H3685.2998l41.5,71.9h-289V286H3337.3999v47.5c0,33.1,20.1001,59.9,78.8999,59.9h364c45.2,0,73.5-48.9,50.80005-88.1L3776,210A97.05094,97.05094,0,0,0,3692,161.5Z"
     transform="translate(0 0)"
     style="fill:#f2f2f2;fill-rule:evenodd"
     id="path12" />
  <path
     d="M2782.5,39.2,2686.1001,206V68.8a59.19392,59.19392,0,0,0-59.2-59.2h-39.3a59.0933,59.0933,0,0,0-51.2,29.6l-204.6001,354.3h109L2591.7,132.1V340.8a52.6003,52.6003,0,0,0,52.6001,52.6h12.1001a52.82885,52.82885,0,0,0,45.60009-26.3l128.6001-222.8V393.4H2931V58.6c0-35.1-33.3-49-60.3999-49h-37A59.05354,59.05354,0,0,0,2782.5,39.2Z"
     transform="translate(0 0)"
     style="fill:#f2f2f2;fill-rule:evenodd"
     id="path14" />
  <path
     d="M3201.5,346.4,3327.3999,9.6h-94.6001L3133.5,275l-99.2-265.4H2939.7l125.8999,336.8a72.47972,72.47972,0,0,0,67.89991,47.1h0A72.61108,72.61108,0,0,0,3201.5,346.4Z"
     transform="translate(0 0)"
     style="fill:#f2f2f2;fill-rule:evenodd"
     id="path16" />
  <path
     d="M1893.7,275c-9.5,52.6-54.9,93.6-105.80005,92.3H1744a25.00909,25.00909,0,0,1-25-25V207.8h12c35.9,0,58.80005,30.1,58.80005,81.8h15.80005V103.4h-15.80005c0,45.5-19.19995,78.3-58.9,78.3h-12V32.6H1782c85,0,87.9,75.7,87.9,85.5h17V9.6H1580.6001V24.9h21.6c16.5,0,29.9,15.6,29.9,32.1V339.6c0,29.8-19.5,36.5-36.1,36.5h-15.5v17.4h310.6l17.5-118.5Z"
     transform="translate(0 0)"
     style="fill:#f2f2f2"
     id="path18" />
  <path
     d="M709.4,275c-9.5,52.6-54.9,93.6-105.8,92.3H559.7a25.00913,25.00913,0,0,1-25-25V207.8h12c35.9,0,58.8,30.1,58.8,81.8h15.8V103.4H605.5c0,45.5-19.2,78.3-58.9,78.3h-12V32.6h63.1c85,0,87.9,75.7,87.9,85.5h17V9.6H396.3V24.9H418c16.5,0,29.9,15.6,29.9,32.1V339.6c0,29.8-19.5,36.5-36.1,36.5H396.3v17.4H707L724.5,275Z"
     transform="translate(0 0)"
     style="fill:#f2f2f2"
     id="path20" />
</svg>
