<svg id="Layer_1" data-name="Layer 1" xmlns="http://www.w3.org/2000/svg" viewBox="0 0 3839.00024 1158.80005"><path d="M1530.1,55.1c0,30.4,20.4,55,45.5,55h126.19995c3.1,0,5.6,3.1,5.6,6.8,0,3.8-2.5,6.8-5.6,6.8H1530.1V172h192.3c25.2,0,45.5-24.7,45.5-55.1s-20.3-55-45.5-55H1596.20007c-3.1,0-5.6-3-5.6-6.8,0-3.7,2.5-6.9,5.6-6.9H1767.9V0H1575.6C1550.4,0,1530.1,24.7,1530.1,55.1Z" transform="translate(0 0)" style="fill:#fff"/><polygon points="1958.9 0 1958.9 107.7 1844 0 1781.4 0 1781.4 172 1841.8 172 1841.8 64.2 1956.8 172 2019.3 172 2019.3 0 1958.9 0" style="fill:#fff"/><polygon points="2270.6 0 2191.5 0 2093.2 75.8 2093.2 0 2032.9 0 2032.9 172 2093.2 172 2093.2 96.1 2191.5 172 2270.6 172 2159.1 86 2270.6 0" style="fill:#fff"/><path d="M605.1,354.6c-57.4,8.8-68.9,17.7-68.9,73.3V945.6h-24.7L116.6,464.1V813.9c0,68,15,85.7,83,93.6v22.1H0V907.5c64.5-8,77.7-20.3,77.7-74.2V418.2C40.6,367,20.3,354.6,2.6,354.6V332.5H189L497.3,712.4V448.2c0-70.7-15.9-87.5-81.3-93.6V332.5H605.1Z" transform="translate(0 0)" style="fill:#c2ac6d"/><path d="M1157.6,929.7H640.8V907.6c65.4-7.1,77.7-21.2,77.7-67.2V417.3c0-45.1-16.8-59.2-77.7-62.7V332.5h509.7V510h-22.1C1108.1,391.7,1063,362.5,919,362.5c-45.9,0-57.4,14.1-57.4,47.7V609c93.6-.9,132.5-29.2,143.1-131.6h23V776h-23c-8.8-105.1-46.8-136.9-143.1-136.9V852.9c0,38,15.9,49.5,73.3,49.5,68.9,0,119.3-13.3,160.8-47.7,30-24.7,45.9-51.2,72.4-108.7h24.69995Z" transform="translate(0 0)" style="fill:#c2ac6d"/><path d="M1558.1,946.5c-173.80005-.3-314.9-146.5-311.20008-320.2,3.9-183.5,136-307,317-307,177.6,0,308.30005,131.6,308.30005,314.5C1872.2,817.7,1741.2,946.7,1558.1,946.5ZM1556,348.4C1458.80005,348.4,1403.2,452.6,1403.2,638.1c0,186.4,56.5,279.2,157.30005,279.2,101.6,0,155.5-95.4,155.5-277.4C1715.9,451.8,1659.30005,348.4,1556,348.4Z" transform="translate(0 0)" style="fill:#c2ac6d"/><path d="M2570.1001,698.2c-66.30005,7-76,32.7-76,88.3V890.7c-57.3999,33.6-152.8999,55.7-244.7,55.7-177.6001,0-313.6-120.1-313.6-309.2,0-175.8,130.70007-318,307.4-318,45.8999,0,85.69995,9.7,136.8999,30.9,20.3,8.8,31.8,12.4,40.6001,12.4,16.8,0,25.60009-8.8,38.8999-40.6H2483.5V529.5h-22.1001c-30.8999-67.1-46.8-98-84.8-131.6C2338.7,364.3,2296.2,348.4,2254.7,348.4c-102.5,0-162.6001,99.8-162.6001,282.7,0,91,13.3,160.8,42.39991,209.4,30.8999,51.3,68.8999,76.9,136.8999,76.9,62.7,0,84.8-30.1,84.8-75.1v-78.6c0-45.9-14.1001-61-90.1001-65.4v-22.1h303.8999L2570.1001,698.2Z" transform="translate(0 0)" style="fill:#c2ac6d"/><path d="M3124.30005,929.7H2607.5V907.6c65.3999-7.1,77.7-21.2,77.7-67.2V417.3c0-45.1-16.80005-59.2-77.7-62.7V332.5h509.7V510h-22.1001c-20.30005-118.4-65.30005-147.5-209.30005-147.5-45.8999,0-57.3999,14.1-57.3999,47.7V609c93.6001-.9,132.5-29.2,143.1001-131.6h23V776h-23c-8.8-105.1-46.8-136.9-143.1001-136.9V852.9c0,38,15.8999,49.5,73.30005,49.5,68.8999,0,119.3-13.3,160.8-47.7,30.1001-24.7,46-51.2,72.5-108.7h24.7Z" transform="translate(0 0)" style="fill:#c2ac6d"/><path d="M3524.80005,946.5c-173.8-.3-314.8999-146.5-311.19995-320.3,3.8999-183.5,136.1001-307,317.1001-307,177.60009,0,308.3,131.6,308.3,314.5C3839,817.7,3708,946.7,3524.80005,946.5ZM3522.7,348.4c-97.2,0-152.80005,104.2-152.80005,289.7,0,186.4,56.5,279.2,157.30005,279.2,101.6001,0,155.5-95.4,155.5-277.4C3682.6001,451.8,3626.1001,348.4,3522.7,348.4Z" transform="translate(0 0)" style="fill:#c2ac6d"/><path d="M16.3,1106.6v44H0V1042.29993H18.5c9.1,0,15.9.6,20.6,1.9a26.61548,26.61548,0,0,1,12.3,7.19995c6.2,6.1,9.3,13.7,9.3,23,0,9.9-3.3,17.80005-10,23.6-6.6,5.8-15.6,8.69995-26.9,8.69995L16.3,1106.6Zm0-15.1h6.1c15,0,22.5-5.69995,22.5-17.30005C44.9,1063,37.2,1057.5,21.7,1057.5H16.3v34Z" transform="translate(0 0)" style="fill:#fff"/><path d="M114.3,1104.5,147.8,1150.7h-20L96.9,1106.3999H94V1150.7H77.6V1042.3999H96.8c14.3,0,24.7,2.7,31,8.1q10.5,9,10.5,23.69995a30.905,30.905,0,0,1-6.6,19.80005A30.164,30.164,0,0,1,114.3,1104.5ZM94,1092h5.2c15.5,0,23.2-5.9,23.2-17.69995,0-11.1-7.5-16.6-22.6-16.6H94Z" transform="translate(0 0)" style="fill:#fff"/><path d="M158.7,1096q0-22.79992,16.8-39.30005a55.26734,55.26734,0,0,1,40.1-16.4,56.14517,56.14517,0,0,1,39.6,96.1c-11.2,10.9-24.7,16.30005-40.5,16.30005-14,0-26.5-4.80005-37.7-14.5C164.9,1127.30005,158.7,1113.30005,158.7,1096Zm16.5.19995c0,12,4,21.80005,12.1,29.5,8,7.69995,17.2,11.6,27.7,11.6,11.4,0,21-3.9,28.8-11.8a40.14585,40.14585,0,0,0,11.7-29.1c0-11.6-3.9-21.19995-11.6-29.1a40.438,40.438,0,0,0-57.1,0C179.1,1075.1,175.2,1084.80005,175.2,1096.2Z" transform="translate(0 0)" style="fill:#fff"/><path d="M279.5,1097h31.3V1110.7H279.5Z" transform="translate(0 0)" style="fill:#fff"/><path d="M379.5,1094.2h44.8v3.6a74.29324,74.29324,0,0,1-2.9,21.6A46.107,46.107,0,0,1,411.9,1135.7c-10.1,11.30005-22.8,17-38.4,17-15.2,0-28.1-5.5-38.9-16.4a54.51084,54.51084,0,0,1-16.2-39.6c0-15.69995,5.5-29.1,16.5-40,11-11,24.4-16.5,40.1-16.5a54.0676,54.0676,0,0,1,23.7,5.19995q10.5,5.25,20.7,16.80005l-11.7,11.19995c-8.9-11.8-19.7-17.69995-32.5-17.69995-11.5,0-21.1,4-28.8,11.80005-7.8,7.80005-11.7,17.5-11.7,29.19995,0,12.1,4.3,22,13,29.80005,8.1,7.19995,16.9,10.9,26.3,10.9a32.47633,32.47633,0,0,0,21.7-8.19995c6.4-5.5,10-12,10.7-19.7h-27l.1-15.30017Z" transform="translate(0 0)" style="fill:#fff"/><path d="M504.7,1057.6H461.3v26h42.2V1099H461.3V1135.2h43.4v15.4H444.9V1042.29993h59.8Z" transform="translate(0 0)" style="fill:#fff"/><path d="M589.8,1124.30005H543.4l-12.1,26.30005H513.7l53.6-115.1,51.7,115.1H601.1ZM583.1,1109,567,1072.2,550.2,1109Z" transform="translate(0 0)" style="fill:#fff"/><path d="M669.2,1104.5,702.7,1150.7h-20l-30.9-44.30005h-2.9V1150.7H632.6V1042.3999h19.2c14.3,0,24.7,2.7,31,8.1q10.5,9,10.5,23.69995a30.90523,30.90523,0,0,1-6.6,19.80005C682.30005,1099.6,676.4,1102.9,669.2,1104.5ZM648.9,1092h5.2c15.5,0,23.2-5.9,23.2-17.69995,0-11.1-7.5-16.6-22.6-16.6h-5.8L648.9,1092Z" transform="translate(0 0)" style="fill:#fff"/><path d="M824.7,1058.4l-13.3,7.9c-2.5-4.30005-4.8-7.1-7.1-8.4a18.67225,18.67225,0,0,0-20.4,1.6,11.88387,11.88387,0,0,0-4.5,9.5c0,5.30005,3.9,9.5,11.8,12.80005l10.8,4.4c8.8,3.6,15.2,7.9,19.3,13s6.1,11.4,6.1,18.8c0,10-3.3,18.2-10,24.7-6.7,6.6-15,9.8-24.9,9.8-9.4,0-17.2-2.8-23.3-8.3-6-5.6-9.8-13.4-11.3-23.5l16.6-3.7c.7,6.4,2.1,10.7,3.9,13.2,3.4,4.69995,8.3,7,14.7,7a17.18522,17.18522,0,0,0,12.7-5.1,17.55547,17.55547,0,0,0,5.1-13,18.08065,18.08065,0,0,0-.9-5.80005,15.2148,15.2148,0,0,0-2.7-4.80005,19.83817,19.83817,0,0,0-4.8-4.1,50.21046,50.21046,0,0,0-7-3.69995L785,1096.4c-14.8-6.3-22.2-15.4-22.2-27.5a26.1922,26.1922,0,0,1,9.3-20.4c6.2-5.5,14-8.30005,23.2-8.30005C807.9,1040.2,817.6,1046.30005,824.7,1058.4Z" transform="translate(0 0)" style="fill:#fff"/><path d="M863.5,1106.6v44H847.2V1042.29993h18.5c9.1,0,15.9.6,20.6,1.9a26.61539,26.61539,0,0,1,12.3,7.19995c6.2,6.1,9.3,13.7,9.3,23,0,9.9-3.3,17.80005-10,23.6-6.6,5.8-15.6,8.69995-26.9,8.69995L863.5,1106.6Zm0-15.1h6.1c15,0,22.5-5.69995,22.5-17.30005C892.1,1063,884.4,1057.5,868.9,1057.5h-5.4l.00006,34Z" transform="translate(0 0)" style="fill:#fff"/><path d="M984.6,1057.6H941.2v26h42.2V1099H941.2V1135.2h43.4v15.4H924.8V1042.29993h59.8Z" transform="translate(0 0)" style="fill:#fff"/><path d="M1086.1,1048.1v19.4c-9.4-7.9-19.2-11.80005-29.30005-11.80005a37.27734,37.27734,0,0,0-28.1,12c-7.7,8-11.5,17.69995-11.5,29.19995,0,11.4,3.8,21,11.5,28.80005a38.11632,38.11632,0,0,0,28.19995,11.69995,34.74457,34.74457,0,0,0,14.7-2.8,37.3064,37.3064,0,0,0,7-3.80005c2.4-1.6,4.9-3.5,7.6-5.69995v19.69995a60.129,60.129,0,0,1-29.5,7.9q-23.25,0-39.6-16.19995a53.76142,53.76142,0,0,1-16.3-39.4,55.72749,55.72749,0,0,1,13.7-36.9c11.2-13.19995,25.7-19.9,43.6-19.9A54.00117,54.00117,0,0,1,1086.1,1048.1Z" transform="translate(0 0)" style="fill:#fff"/><path d="M1214.7,1124.30005h-46.4l-12.1,26.30005h-17.6l53.6-115.1,51.69995,115.1h-17.9ZM1208.1,1109,1192,1072.2,1175.2,1109Z" transform="translate(0 0)" style="fill:#fff"/><path d="M1257.5,1150.6V1042.29993H1280.2c10.9,0,19.5,1.1,25.80005,3.2a49.50794,49.50794,0,0,1,18.5,10.69995q16.79992,15.29992,16.80005,40.19995c0,16.69995-5.80005,30.1-17.5,40.4a51.14512,51.14512,0,0,1-18.4,10.7q-9,3-25.5,3l-22.4.10022Zm16.4-15.4h7.4a63.26975,63.26975,0,0,0,18.30005-2.30005,36.938,36.938,0,0,0,13.19995-7.8c8-7.30005,12.1-16.9,12.1-28.7,0-11.9-4-21.5-11.9-28.9-7.19995-6.6-17.69995-9.9-31.69995-9.9h-7.4Z" transform="translate(0 0)" style="fill:#fff"/><path d="M1367.30005,1042.30005l30,75.1,30.4-75.1h17.9l-48.6,116.5-47.5-116.5Z" transform="translate(0 0)" style="fill:#fff"/><path d="M1522.7,1124.30005h-46.4l-12.1,26.30005h-17.6l53.6-115.1,51.69995,115.1H1534ZM1516,1109,1499.9,1072.2,1483.1,1109Z" transform="translate(0 0)" style="fill:#fff"/><path d="M1565.5,1150.6V1034.9l79,82.6V1042.2h16.30005v114.9l-79-82.4V1150.5l-16.30005.1Z" transform="translate(0 0)" style="fill:#fff"/><path d="M1766.9,1048.1v19.4c-9.4-7.9-19.19995-11.80005-29.3-11.80005a37.27734,37.27734,0,0,0-28.1,12c-7.69995,8-11.5,17.69995-11.5,29.19995,0,11.4,3.80005,21,11.5,28.80005A38.11632,38.11632,0,0,0,1737.7,1137.3999a34.74457,34.74457,0,0,0,14.69995-2.8,37.3064,37.3064,0,0,0,7-3.80005,83.48733,83.48733,0,0,0,7.6-5.69995v19.69995a60.129,60.129,0,0,1-29.5,7.9q-23.25,0-39.6-16.19995a53.76148,53.76148,0,0,1-16.3-39.4,55.72779,55.72779,0,0,1,13.69995-36.9c11.2-13.19995,25.7-19.9,43.6-19.9A54.00124,54.00124,0,0,1,1766.9,1048.1Z" transform="translate(0 0)" style="fill:#fff"/><path d="M1847.30005,1057.6h-43.4v26h42.2V1099h-42.2V1135.2h43.4v15.4H1787.5V1042.29993h59.80005Z" transform="translate(0 0)" style="fill:#fff"/><path d="M1868.7,1150.6V1042.29993h22.69995c10.9,0,19.5,1.1,25.80005,3.2a49.50787,49.50787,0,0,1,18.5,10.69995q16.79993,15.29992,16.80005,40.19995c0,16.69995-5.80005,30.1-17.5,40.4a51.14517,51.14517,0,0,1-18.4,10.7q-9,3-25.5,3l-22.4.10022Zm16.4-15.4h7.4a63.26975,63.26975,0,0,0,18.30005-2.30005,38.7333,38.7333,0,0,0,13.19995-7.8c8-7.30005,12.1-16.9,12.1-28.7,0-11.9-4-21.5-11.9-28.9-7.19995-6.6-17.69995-9.9-31.69995-9.9h-7.4V1135.2Z" transform="translate(0 0)" style="fill:#fff"/><path d="M2077.2,1057.6h-43.4v26H2076V1099h-42.19995V1135.2H2077.2v15.4H2017.3999V1042.29993H2077.2Z" transform="translate(0 0)" style="fill:#fff"/><path d="M2098.7,1150.6V1034.9l79,82.6V1042.2H2194v114.9l-79-82.4V1150.5l-16.3.1Z" transform="translate(0 0)" style="fill:#fff"/><path d="M2249.8999,1057.6v93h-16.3v-93H2208.7v-15.4h66.1001v15.4Z" transform="translate(0 0)" style="fill:#fff"/><path d="M2349.1001,1057.6h-43.3999v26h42.19995V1099H2305.7002V1135.2h43.3999v15.4h-59.80005V1042.29993h59.80005Z" transform="translate(0 0)" style="fill:#fff"/><path d="M2407.30005,1104.5l33.6001,46.19995h-20l-30.89991-44.30005h-2.8999V1150.7h-16.3V1042.3999h19.19995c14.30005,0,24.7,2.7,31,8.1q10.5,9,10.5,23.69995a30.90435,30.90435,0,0,1-6.60009,19.80005A31.32413,31.32413,0,0,1,2407.30005,1104.5ZM2386.8999,1092h5.2c15.5,0,23.19995-5.9,23.19995-17.69995,0-11.1-7.60009-16.6-22.60009-16.6h-5.8L2386.8999,1092Z" transform="translate(0 0)" style="fill:#fff"/><path d="M2487,1057.6v93h-16.3v-93h-24.8999v-15.4h66.1001v15.4Z" transform="translate(0 0)" style="fill:#fff"/><path d="M2590.1001,1124.30005h-46.3999l-12.1001,26.30005h-17.7l53.60009-115.1,51.7,115.1h-17.80005ZM2583.3999,1109,2567.2998,1072.2l-16.8,36.80005Z" transform="translate(0 0)" style="fill:#fff"/><path d="M2649.2,1042.30005V1150.6001H2632.8999V1042.30005Z" transform="translate(0 0)" style="fill:#fff"/><path d="M2675.2,1150.6V1034.9l79,82.6V1042.2h16.3v114.9l-79-82.4V1150.5l-16.3.1Z" transform="translate(0 0)" style="fill:#fff"/><path d="M2792.80005,1150.6l22.80005-116.5,37.19995,84.19995,38.5-84.19995,20.5,116.5H2895l-10.5-65.4-32.1001,70.4L2821.2,1085.1l-11.7,65.5Z" transform="translate(0 0)" style="fill:#fff"/><path d="M2994.5,1057.6H2951v26h42.2V1099H2951V1135.2h43.3999v15.4H2934.7V1042.29993h59.69995V1057.6Z" transform="translate(0 0)" style="fill:#fff"/><path d="M3016,1150.6V1034.9l79,82.6V1042.2h16.3v114.9l-79-82.4V1150.5l-16.3.1Z" transform="translate(0 0)" style="fill:#fff"/><path d="M3167.2,1057.6v93H3150.8999v-93H3126v-15.4h66.1001v15.4Z" transform="translate(0 0)" style="fill:#fff"/><path d="M3312.2,1058.4l-13.2,7.9c-2.5-4.30005-4.8-7.1-7.1001-8.4a16.3448,16.3448,0,0,0-9.1001-2.3,16.69624,16.69624,0,0,0-11.3,3.9,11.88387,11.88387,0,0,0-4.5,9.5c0,5.30005,3.8999,9.5,11.69995,12.80005l10.80005,4.4c8.8,3.6,15.19995,7.9,19.3,13s6.1001,11.4,6.1001,18.8c0,10-3.3,18.2-10,24.7-6.69995,6.6-15,9.8-24.8999,9.8-9.3999,0-17.2-2.8-23.3-8.3-6-5.6-9.80005-13.4-11.30005-23.5l16.6001-3.7c.7,6.4,2.1001,10.7,3.8999,13.2,3.30005,4.69995,8.2,7,14.7,7a17.18468,17.18468,0,0,0,12.69995-5.1,19.12484,19.12484,0,0,0,4.2002-18.80005,15.21814,15.21814,0,0,0-2.7-4.80005,19.83739,19.83739,0,0,0-4.8-4.1,50.21386,50.21386,0,0,0-7-3.69995L3272.5,1096.4c-14.8-6.3-22.2-15.4-22.2-27.5a26.19248,26.19248,0,0,1,9.30005-20.4c6.19995-5.5,14-8.30005,23.19995-8.30005C3295.3999,1040.2,3305.2,1046.30005,3312.2,1058.4Z" transform="translate(0 0)" style="fill:#fff"/><path d="M3356.6001,1103.80005l-35.3999-61.5h18.8l24.80005,43.30005,24.8-43.30005h18.8l-35.5,61.5v46.80005h-16.3l-.00024-46.80005Z" transform="translate(0 0)" style="fill:#fff"/><path d="M3482.2,1058.4l-13.30005,7.9c-2.5-4.30005-4.8-7.1-7.1001-8.4a18.67255,18.67255,0,0,0-20.40014,1.6,11.88387,11.88387,0,0,0-4.5,9.5c0,5.30005,3.8999,9.5,11.8,12.80005l10.80005,4.4c8.8,3.6,15.19995,7.9,19.3,13s6.1001,11.4,6.1001,18.8c0,10-3.3,18.2-10,24.7-6.69995,6.6-15,9.8-24.8999,9.8-9.3999,0-17.2-2.8-23.3-8.3-6-5.6-9.80005-13.4-11.30005-23.5l16.6001-3.7c.7,6.4,2.1001,10.7,3.8999,13.2,3.3999,4.69995,8.30005,7,14.7,7a17.18468,17.18468,0,0,0,12.69995-5.1,17.556,17.556,0,0,0,5.1001-13,18.08589,18.08589,0,0,0-.8999-5.80005,15.21814,15.21814,0,0,0-2.7-4.80005,19.83739,19.83739,0,0,0-4.8-4.1,50.21386,50.21386,0,0,0-7-3.69995L3442.5,1096.4c-14.8-6.3-22.2-15.4-22.2-27.5a26.19248,26.19248,0,0,1,9.30005-20.4c6.19995-5.5,14-8.30005,23.19995-8.30005C3465.3999,1040.2,3475.2,1046.30005,3482.2,1058.4Z" transform="translate(0 0)" style="fill:#fff"/><path d="M3534.6001,1057.6v93h-16.30005v-93h-24.8999v-15.4h66.10009v15.4Z" transform="translate(0 0)" style="fill:#fff"/><path d="M3633.80005,1057.6h-43.3999v26h42.2V1099h-42.2V1135.2h43.3999v15.4H3574V1042.29993h59.8Z" transform="translate(0 0)" style="fill:#fff"/><path d="M3651.5,1150.6l22.8-116.5,37.2,84.19995L3750.1001,1034.1l20.5,116.5h-16.80005l-10.5-65.4L3711.2,1155.6l-31.2-70.5-11.7,65.5Z" transform="translate(0 0)" style="fill:#fff"/></svg>