<?xml version="1.0" encoding="UTF-8" standalone="no"?>
<svg
   version="1.0"
   width="1810"
   height="717.83826"
   viewBox="0 0 1810 717.83826"
   preserveAspectRatio="xMidYMid meet"
   id="svg450"
   sodipodi:docname="nesh.svg"
   inkscape:version="1.1.2 (0a00cf5339, 2022-02-04, custom)"
   xmlns:inkscape="http://www.inkscape.org/namespaces/inkscape"
   xmlns:sodipodi="http://sodipodi.sourceforge.net/DTD/sodipodi-0.dtd"
   xmlns="http://www.w3.org/2000/svg"
   xmlns:svg="http://www.w3.org/2000/svg">
  <defs
     id="defs454" />
  <sodipodi:namedview
     id="namedview452"
     pagecolor="#ffffff"
     bordercolor="#666666"
     borderopacity="1.0"
     inkscape:pageshadow="2"
     inkscape:pageopacity="0.0"
     inkscape:pagecheckerboard="0"
     showgrid="false"
     inkscape:zoom="0.59060773"
     inkscape:cx="905"
     inkscape:cy="358.95229"
     inkscape:window-width="1920"
     inkscape:window-height="1017"
     inkscape:window-x="-8"
     inkscape:window-y="-8"
     inkscape:window-maximized="1"
     inkscape:current-layer="svg450" />
  <g
     fill="#1e1010"
     id="g4"
     transform="translate(0,-1.1618028)">
    <path
       d="m 838,538.1 c 0,-43.9 0.1,-44.8 8.3,-53.7 4.1,-4.5 4.7,-5.7 3.7,-6.9 -0.7,-0.9 -1,-1.8 -0.7,-2.1 0.3,-0.3 -0.3,-1.4 -1.4,-2.5 -1,-1 -1.6,-2.5 -1.3,-3.4 0.4,-0.8 0.1,-1.5 -0.5,-1.5 -0.6,0 -1,-0.3 -1,-0.7 0.1,-0.5 0,-1 -0.1,-1.3 -1,-2.6 -2.7,-17.9 -3.8,-34 l -0.7,-9.5 -299,-0.5 C 261.1,421.5 241.8,421.3 232,419.7 179.9,410.9 138.8,390.8 106.2,358.1 74.6,326.5 54.4,285.1 48.4,239.7 c -2,-15.4 -1.5,-49.5 1,-63.2 C 51.9,163.2 56.6,146 60.7,135.6 89.6,61.8 155.5,12.5 238.5,2.5 250.2,1.1 318.4,1 910.5,1.3 l 659,0.3 11,2.1 c 37.1,7.1 63.1,17.2 89.5,34.8 44,29.4 73.4,71.7 87.1,125.9 4.3,16.8 4.8,21.1 5.9,46.1 0.5,12.2 1.4,27 1.9,33 0.6,6.1 1.3,16 1.6,22 0.4,6.1 0.8,12.6 1,14.5 0.2,1.9 0.6,9.4 0.9,16.5 0.6,12.8 3.3,53.2 4.1,61 0.2,2.2 1,13.7 1.6,25.5 1.1,19.2 1.1,22.3 -0.4,28.8 -2.4,10.3 -6.2,17.7 -12.6,24.2 -6.7,6.8 -9.8,8.9 -17.1,11.8 -7.3,3 -12.8,3.9 -25.5,4.7 -2.7,0.1 -8.8,0.5 -13.5,0.9 -4.7,0.3 -12.7,0.8 -17.8,1.1 -5.1,0.3 -12.3,0.7 -16,1 -3.7,0.2 -11,0.7 -16.2,1.1 -5.2,0.3 -12,0.7 -15,0.9 -3,0.2 -10,0.7 -15.5,1 -17.4,1 -23,1.4 -29.1,2 -3.2,0.3 -9.9,0.7 -14.9,1 -22.9,1.2 -32.1,1.7 -33.8,2.1 -1.1,0.2 -7.2,0.6 -13.6,0.9 -6.4,0.4 -13.2,0.8 -15.1,1 -1.9,0.2 -8.9,0.7 -15.5,1.1 -6.6,0.3 -13.8,0.8 -16,1 -2.2,0.2 -8.7,0.6 -14.5,0.9 -5.8,0.3 -12.5,0.7 -15,0.9 -2.4,0.1 -6.5,-0.1 -9,-0.6 -2.5,-0.5 -5.5,-1 -6.7,-1.2 -1.2,-0.3 -4.6,0.2 -7.5,1 -3.9,1 -8,1.2 -15.3,0.6 -11.3,-0.8 -19.9,-0.7 -26.5,0.1 -2.5,0.3 -5.2,0.6 -6.1,0.6 -0.8,0.1 -2.4,0.9 -3.5,1.9 -2.6,2.3 -3.2,2.4 -19.1,3.4 -1.8,0.2 -1.6,1.8 0.1,1.8 2.4,0 10.7,9.3 13.5,15 l 2.6,5.5 0.3,39.3 0.3,39.2 h -17 -17.1 v -35.9 -36 l -2.6,-2 c -2.4,-1.9 -4,-2.1 -17,-2.1 -15.3,0 -18.5,0.7 -20.3,4.7 -0.7,1.6 -1.1,13.7 -1.1,36.8 V 576 h -16.5 -16.5 v -35.1 -35.1 l -3,-2.9 -3,-3 -15.4,0.3 c -13.5,0.3 -15.7,0.5 -17.5,2.2 -2.1,1.9 -2.1,2.6 -2.1,37.8 V 576 h -15 -15 v -41.2 c 0,-22.7 -0.3,-43 -0.6,-45 -0.5,-3.1 -1,-3.6 -2.8,-3.2 -1.1,0.2 -6.4,0.7 -11.6,1 -5.2,0.2 -9.6,0.7 -9.8,0.9 -0.2,0.2 0.2,1.4 1,2.7 1,1.8 1.4,11.5 1.6,43.6 l 0.3,41.2 h -16 -16.1 v -34.9 -35 l -2.4,-2.8 -2.4,-2.8 h -31.6 c -31.5,0 -31.5,0 -33.8,2.3 -2.3,2.2 -2.3,2.3 -2.6,37.7 l -0.3,35.5 h -15.9 -16 v -34.9 c 0,-19.1 -0.3,-36.9 -0.6,-39.5 l -0.7,-4.7 -9.6,0.6 c -5.3,0.4 -9.8,0.9 -10.1,1.2 -0.3,0.2 -0.6,17.8 -0.8,38.9 l -0.3,38.4 H 1003 986 v -33.4 c 0,-18.3 -0.3,-35.3 -0.6,-37.8 l -0.6,-4.5 -4.2,0.4 c -2.2,0.2 -7,0.5 -10.6,0.7 -6.2,0.3 -6.5,0.5 -7.1,3.2 -0.4,1.6 -0.7,18.3 -0.8,37.2 L 962,576 h -16 -15.9 l -0.3,-12.2 -0.3,-12.3 H 900 870.5 l -0.3,12.3 -0.3,12.2 H 854 838 Z m 91,-21.3 c 0,-13.2 0.3,-12.8 -9.8,-12 -15.9,1.1 -25.4,0.6 -33.1,-1.7 -8,-2.4 -12.5,-2.1 -14.1,0.9 -0.6,1 -1,6.2 -1,11.4 v 9.6 h 29 29 z m -37,-56.2 c -1.4,-1.3 -2.8,-2.1 -3.2,-1.9 -0.5,0.2 -0.8,0 -0.8,-0.4 0,-0.5 -0.9,-1.4 -1.9,-2 -2.4,-1.5 -2.3,0.2 0.2,4 1.3,2 2.6,2.7 5,2.7 h 3.2 z m 49,-11.5 c 9.1,-0.6 23.3,-1.6 31.5,-2.2 20.2,-1.4 42.8,-2.8 55,-3.5 5.5,-0.3 14.7,-1 20.5,-1.5 5.8,-0.6 16.6,-1.3 24,-1.5 7.4,-0.3 14.9,-0.9 16.5,-1.4 1.7,-0.5 4.6,-0.7 6.5,-0.6 1.9,0.2 6,0 9,-0.4 3,-0.4 6.5,-0.4 7.7,0.1 1.3,0.5 2.5,0.4 2.8,-0.1 0.3,-0.5 2.5,-1 4.8,-1 5,-0.1 13.1,-0.7 20.7,-1.4 5.3,-0.6 29.1,-2.1 49,-3.2 5.2,-0.2 15.6,-0.9 23,-1.4 7.4,-0.6 25,-1.7 39,-2.5 14,-0.9 35.9,-2.2 48.5,-3 12.7,-0.8 24.5,-1.5 26.3,-1.5 2.3,0 3.1,-0.4 2.6,-1.2 -0.5,-0.8 -48.7,-0.9 -195.3,-0.4 -107,0.4 -195,0.7 -195.6,0.8 -0.5,0 -8,-0.3 -16.6,-0.7 -8.6,-0.4 -18.2,-0.4 -21.3,-0.1 l -5.8,0.8 0.6,3.1 c 0.4,1.8 1.1,6.6 1.6,10.7 1.1,9.7 1.7,11 5.1,11.7 1.6,0.3 2.9,1 2.9,1.6 0,1 6.8,0.8 37,-1.2 z M 1374.5,423 c -0.3,-0.5 -3.3,-1 -6.5,-1 -3.2,0 -6.2,0.5 -6.5,1 -0.4,0.6 2,1 6.5,1 4.5,0 6.9,-0.4 6.5,-1 z M 1679,400.6 c 9.6,-0.8 21.1,-1.5 25.4,-1.6 6.9,-0.1 8.3,-0.4 10.9,-2.6 1.6,-1.3 3.3,-2.1 3.9,-1.8 0.6,0.4 0.8,-0.1 0.4,-1.4 -0.4,-1.1 0,-3.7 0.8,-5.6 1.2,-2.8 1.3,-4.8 0.5,-9.3 -1.4,-8.7 -2.2,-27.3 -1.1,-28.6 0.6,-0.8 0.3,-2.2 -0.8,-4 l -1.8,-2.8 -4,4.3 c -2.2,2.4 -5.2,5.8 -6.7,7.6 -4.6,5.6 -24.5,22.1 -34.9,29.1 -5.5,3.6 -15.4,9.4 -22,12.8 l -12.1,6.2 12,-0.5 c 6.6,-0.2 19.9,-1.1 29.5,-1.8 z M 692.8,371.3 c -79.1,-0.2 -208.5,-0.2 -287.5,0 -79.1,0.1 -14.4,0.2 143.7,0.2 158.1,0 222.8,-0.1 143.8,-0.2 z m 220.5,0 c -2.9,-0.2 -7.8,-0.2 -11,0 -3.2,0.2 -0.8,0.3 5.2,0.3 6.1,0 8.7,-0.1 5.8,-0.3 z m 71.5,0 c -1,-0.2 -2.8,-0.2 -4,0 -1.3,0.2 -0.5,0.4 1.7,0.4 2.2,0.1 3.2,-0.1 2.3,-0.4 z m 83,0 c -3.2,-0.2 -8.6,-0.2 -12,0 -3.5,0.2 -0.9,0.3 5.7,0.3 6.6,0 9.4,-0.1 6.3,-0.3 z m 195,0 c -3.2,-0.2 -8.6,-0.2 -12,0 -3.5,0.2 -0.9,0.3 5.7,0.3 6.6,0 9.4,-0.1 6.3,-0.3 z m 51,0 c -2.1,-0.2 -5.5,-0.2 -7.5,0 -2.1,0.2 -0.4,0.4 3.7,0.4 4.1,0 5.8,-0.2 3.8,-0.4 z M 251.2,369.9 C 188.6,364.3 140.5,333.8 115.8,283.7 106,263.9 100.9,243.2 99,215.5 l -0.9,-14 0.4,14 c 1.3,43.9 16,79.2 44.9,108 13.8,13.7 26.4,22.7 42.7,30.4 21.2,10 49.3,16.9 67.9,16.9 5.8,-0.1 5.6,-0.2 -2.8,-0.9 z M 99.7,193.3 c -0.2,-1.6 -0.4,-0.3 -0.4,2.7 0,3 0.2,4.3 0.4,2.8 0.2,-1.6 0.2,-4 0,-5.5 z m 7.9,-33.9 c 7.8,-23.4 20.3,-43.3 37.5,-60 21.8,-20.9 43.7,-32.8 75.4,-41 7.2,-1.8 12.2,-3.3 11.2,-3.4 -3.3,0 -22,5.1 -31.7,8.7 -45.6,17 -78.9,51.1 -93.5,95.7 -3.3,10.3 -6.6,24.9 -6.4,29 0,1.1 0.9,-2.5 2,-8.1 1,-5.6 3.5,-15.1 5.5,-20.9 z m 1581.8,-28.2 c -13,-24.2 -39.8,-49.1 -66.4,-61.6 -16.2,-7.6 -43.1,-15.8 -51.2,-15.5 -1.3,0 2.7,1.1 8.7,2.3 47.6,10 86.9,37.3 108.1,75.2 2,3.5 3.8,6.4 4.1,6.4 0.2,0 -1.2,-3.1 -3.3,-6.8 z M 253,52.9 c 7.1,-0.7 7,-0.8 -2,-0.3 -5.2,0.3 -11.3,0.9 -13.5,1.4 -4.3,1 -1.2,0.8 15.5,-1.1 z m 1314.8,0.4 c -1,-0.2 -2.8,-0.2 -4,0 -1.3,0.2 -0.5,0.4 1.7,0.4 2.2,0.1 3.2,-0.1 2.3,-0.4 z m -9.5,-1 c -1.8,-0.2 -4.8,-0.2 -6.5,0 -1.8,0.2 -0.4,0.4 3.2,0.4 3.6,0 5,-0.2 3.3,-0.4 z m -332.1,-1 c -177.3,-0.2 -467.1,-0.2 -644,0 -176.9,0.1 -31.9,0.2 322.3,0.2 354.2,0 499,-0.1 321.7,-0.2 z"
       id="path2" />
  </g>
  <g
     fill="#ce1f25"
     id="g10"
     transform="translate(0,-1.1618028)">
    <path
       d="m 838,538.1 c 0,-44 0.1,-44.8 8.4,-53.8 l 5,-5.5 1.8,2.4 c 0.9,1.2 1.8,1.8 1.8,1.2 0,-0.5 -1.3,-2.3 -3,-3.9 -1.6,-1.5 -2.7,-3.2 -2.4,-3.7 0.3,-0.4 0.1,-0.8 -0.5,-0.8 -0.5,0 -1.2,-1.3 -1.6,-3 -0.4,-1.6 -1.1,-3 -1.6,-3 -0.5,0 -0.8,-0.3 -0.8,-0.7 0.1,-0.5 0,-1 -0.1,-1.3 -1,-2.6 -2.7,-17.9 -3.8,-34 l -0.7,-9.5 -299,-0.5 C 261.1,421.5 241.8,421.3 232,419.7 179.9,410.9 138.8,390.8 106.2,358.1 74.6,326.5 54.4,285.1 48.4,239.7 c -2,-15.4 -1.5,-49.5 1,-63.2 C 51.9,163.2 56.6,146 60.7,135.6 89.6,61.8 155.5,12.5 238.5,2.5 250.2,1.1 318.4,1 910.5,1.3 l 659,0.3 11,2.1 c 45.6,8.7 77.6,23.2 108.7,49.2 32.1,26.9 56.5,66 66.8,107.4 1.2,4.5 2.3,9.1 2.6,10.2 0.3,1.1 -1.1,-0.5 -3.1,-3.5 -5,-7.6 -7.7,-10.2 -16.3,-16.2 -6.1,-4.2 -7.1,-4.6 -5.7,-2.4 1,1.4 2.3,2.6 2.9,2.6 2.3,0 9.5,8.6 13.2,16 4.9,9.5 4.9,9.4 3.5,8.6 -0.8,-0.5 -0.8,0 0.1,2.1 1.6,4 3.1,20.5 2.8,32.6 0,1.2 0.2,4 0.5,6.2 0.3,2.2 0.7,9 1,15 0.3,6.1 1,12.4 1.6,14.2 0.5,1.7 0.8,7.2 0.6,12.2 -0.2,5 0,9.4 0.3,9.8 0.7,0.7 1.1,6.5 2.6,39.2 0.3,6.3 0.9,12.4 1.4,13.6 0.4,1.2 0.4,2.9 -0.2,3.9 -0.6,1.1 -0.6,3.3 0.1,6.4 0.5,2.6 1,6.1 0.9,7.7 0,1.7 0.5,9.5 1.1,17.5 0.6,8 1.3,21.7 1.7,30.5 0.6,15.5 0.5,16.2 -2.1,24.5 -3.1,9.5 -6.2,14.6 -12.7,20.6 -8.8,8.1 -18.5,12.1 -31.8,13 -4.1,0.3 -11.3,0.9 -16,1.5 -4.7,0.5 -15,1.1 -23,1.4 -8,0.2 -16.7,0.6 -19.5,0.9 -6.7,0.7 -32.2,2.4 -47,3.1 -6.6,0.3 -16.5,1 -22,1.5 -10.3,1 -39.3,2.5 -45.5,2.4 -1.9,-0.1 -3.8,0.3 -4.1,0.8 -0.3,0.5 -6.4,1.1 -13.5,1.3 -7.1,0.3 -15.8,0.7 -19.4,1 -3.6,0.3 -12.3,0.8 -19.5,1.1 -7.1,0.3 -13.3,0.8 -13.8,1.1 -0.5,0.3 -2.8,0.7 -5.1,0.8 -22.7,1.4 -29.6,1.6 -31.2,0.7 -1.1,-0.5 -3.2,-1.4 -4.9,-1.9 -1.6,-0.6 -3.7,-1.4 -4.6,-1.7 -1.3,-0.6 -1.5,-0.2 -1.1,2 l 0.5,2.7 -10.9,-0.8 c -6,-0.4 -12.8,-0.7 -15.2,-0.6 -2.4,0.1 -5.2,-0.5 -6.4,-1.3 -1.7,-1.2 -2.5,-1.2 -6.1,0.5 -4.6,2 -9.2,2.5 -10.2,0.9 -0.3,-0.5 -2,-1 -3.6,-1 -1.7,0 -3.8,-0.4 -4.8,-1 -1.3,-0.6 -2.4,-0.5 -3.7,0.4 -1.7,1.3 -1.6,1.5 1.8,2.1 4.2,0.8 6.9,3.2 5,4.4 -0.7,0.4 -10.3,1.3 -21.4,2 -11.1,0.7 -20.5,1.4 -20.9,1.7 -0.3,0.2 -6.7,0.6 -14,0.8 -21.2,0.8 -33.4,1.7 -33.7,2.5 -0.1,0.4 -4.7,0.6 -10.1,0.3 -6.5,-0.3 -10.1,0 -10.5,0.7 -0.5,0.7 -5.3,1.1 -13.5,1.1 -7,0 -13.1,0.3 -13.5,0.8 -0.4,0.4 -4.8,0.5 -9.7,0.3 -4.9,-0.1 -9.5,0.1 -10.2,0.7 -0.6,0.5 -10,1.2 -20.7,1.6 -10.7,0.3 -21.5,1 -24,1.5 -2.5,0.6 -10.9,1 -18.7,1.1 -8,0 -14.3,0.4 -14.3,0.9 0,0.5 -6,1.2 -13.2,1.4 -17.4,0.7 -27.1,1.2 -45.3,2.5 -13.1,1 -24.4,1.7 -55,3.6 -3.8,0.2 -12.2,0.7 -18.5,1 -6.3,0.3 -13.1,1 -15.1,1.5 -2,0.4 -4.3,0.5 -5,0.1 -0.8,-0.4 -8.8,-0.1 -17.9,0.6 -17.1,1.4 -25.8,2 -44.5,2.9 -6,0.3 -14.6,1 -19,1.6 -11.8,1.4 -17.8,1.1 -26.8,-1.1 -8.6,-2.1 -12.7,-4 -16.5,-7.3 -1.2,-1.1 -3.8,-2.6 -5.8,-3.3 -3.5,-1.2 -3.5,-1.2 -2.1,0.9 0.8,1.2 5.1,4.8 9.5,8 8,5.8 8.1,5.8 6.1,7.8 -1.6,1.6 -1.9,3.3 -1.9,11.9 v 10 h 29 29 v -8.9 c 0,-10.2 -0.7,-9.6 11.5,-10.2 13,-0.6 21,-0.5 21.3,0.4 0.1,0.4 0.2,16.2 0.2,35.2 V 576 h -16 -15.9 l -0.3,-12.2 -0.3,-12.3 H 900 870.5 l -0.3,12.3 -0.3,12.2 H 854 838 Z m 203.3,-66.7 c 2.6,-0.4 4.5,-1 4.2,-1.4 -0.4,-0.6 -10.5,0.5 -13,1.4 -1.6,0.7 3.9,0.6 8.8,0 z m 178.1,-5 c 1,-0.4 1.6,-1.8 1.6,-3.5 0,-2.9 -1.5,-3.8 -6.5,-3.8 -4.3,0.1 -4.5,0.9 -0.8,4.3 4.4,4.1 3.7,3.8 5.7,3 z m -313.9,-2 c 5,-0.1 14.4,-0.7 21,-1.4 6.6,-0.6 19.7,-1.5 29,-2 9.4,-0.4 19,-1 21.5,-1.3 2.5,-0.3 10.4,-0.8 17.5,-1.2 7.2,-0.3 22.7,-1.3 34.5,-2.2 11.8,-0.8 25.1,-1.6 29.5,-1.9 15,-0.7 42,-2.4 45.5,-2.9 1.9,-0.3 8.5,-0.8 14.5,-1.1 6.1,-0.3 13.3,-0.7 16,-0.9 2.8,-0.2 10,-0.6 16,-0.9 6.1,-0.4 14.4,-1 18.5,-1.5 4.1,-0.5 11.1,-1 15.5,-1 4.4,-0.1 16.3,-0.8 26.5,-1.7 10.2,-0.8 26.2,-1.9 35.5,-2.4 9.4,-0.5 22.6,-1.4 29.5,-2 6.9,-0.5 17,-1.2 22.5,-1.5 5.5,-0.3 16.1,-0.9 23.5,-1.5 13.9,-1 28.9,-1.9 42,-2.6 4.1,-0.2 9.1,-0.7 11,-1 1.9,-0.4 5.8,-0.6 8.5,-0.6 2.8,0 10.2,-0.4 16.5,-0.9 6.3,-0.5 23.2,-1.6 37.5,-2.5 14.3,-0.8 28.3,-1.7 31,-1.9 2.8,-0.2 10.9,-0.7 18,-1.1 7.2,-0.3 13.5,-0.9 14,-1.3 0.6,-0.3 3.7,-0.7 7,-0.8 20.8,-0.5 40.2,-1.7 41.2,-2.5 0.6,-0.5 3,-0.7 5.4,-0.4 2.3,0.3 7.4,0.1 11.3,-0.4 3.9,-0.5 12.7,-1.2 19.6,-1.5 6.9,-0.3 14.5,-0.6 17,-0.8 2.5,-0.2 10.1,-0.7 17,-1.1 6.9,-0.4 15.4,-0.9 19,-1.2 3.6,-0.2 9.4,-0.6 13,-0.9 15.2,-1 39.2,-2.5 49,-3 22.2,-1 22.8,-1.2 28.1,-6.6 6.8,-7 6.7,-5.6 4.2,-53.4 -0.4,-6.6 -0.8,-14.9 -1.1,-18.5 -0.2,-3.6 -0.5,-9.3 -0.7,-12.8 -0.2,-3.5 -0.6,-6.6 -0.9,-6.9 -0.3,-0.4 -0.6,-3.6 -0.6,-7.2 0,-3.6 -0.5,-11.8 -1.1,-18.1 -0.5,-6.3 -1.2,-15.5 -1.3,-20.5 -0.6,-14.7 -1.7,-30.5 -2.7,-38.3 -1.1,-9.1 -1.1,-16.3 0,-18.1 0.5,-0.8 0.3,-2.4 -0.4,-4 -0.7,-1.4 -1.5,-6.7 -1.9,-11.8 -0.3,-6.2 -1.2,-10.9 -2.7,-14.2 -1.9,-4.6 -2.6,-5.2 -8.2,-7.4 -5.8,-2.3 -6.8,-2.4 -16.2,-1.6 -5.5,0.5 -10.9,0.7 -12,0.5 -1.1,-0.3 -4.9,-0.1 -8.5,0.4 -3.6,0.5 -10.5,1.2 -15.5,1.4 -29.2,1.5 -70.1,4.1 -80,5.1 -2.7,0.3 -9.5,0.8 -15,1 -5.5,0.2 -15.4,0.9 -22,1.4 -6.6,0.6 -19.4,1.3 -28.5,1.6 -9.1,0.3 -20.3,1 -25,1.5 -14.7,1.6 -20.1,1.9 -36.5,2.6 -14.1,0.5 -23.8,1.2 -38.1,2.8 -2.3,0.2 -10.4,0.7 -18,1.1 -7.6,0.3 -14.2,0.9 -14.7,1.2 -0.5,0.3 -5.9,0.7 -12.1,0.9 -6.1,0.2 -16.7,0.8 -23.6,1.4 -6.9,0.6 -22.8,1.5 -35.5,2 -12.6,0.6 -24.4,1.4 -26.1,2 -3.7,1.2 -15.4,1.3 -17.2,0.1 -0.9,-0.5 -3.2,-0.2 -6,0.9 -3.3,1.2 -7.2,1.6 -13.2,1.5 -4.7,-0.1 -9.6,0.2 -11,0.6 -2.4,0.7 -19.2,1.9 -34.5,2.4 -20.9,0.7 -52.7,2.6 -57.5,3.5 -3,0.5 -11.1,1.2 -18,1.5 -6.9,0.3 -17.6,0.7 -23.8,1 -6.2,0.3 -12,0.9 -13,1.4 -0.9,0.5 -4.2,0.9 -7.2,0.9 -14.5,-0.1 -43.8,1.4 -46.2,2.4 -1.5,0.6 -3.3,0.8 -4.1,0.5 -0.7,-0.2 -5.5,-0.1 -10.7,0.3 -11.9,1.1 -21.6,1.6 -39.8,2.4 -7.9,0.3 -14.8,0.8 -15.3,1.2 -0.6,0.3 -1.9,-0.2 -2.9,-1.1 -1.4,-1.3 -2.3,-1.5 -3.2,-0.8 -2.1,1.7 -6.9,2.7 -13.8,2.9 -3.6,0.1 -12.1,0.7 -19,1.3 -12.8,1.1 -21.5,1.7 -40,2.7 -12.1,0.7 -17.1,2.8 -21.9,9.4 -2.8,3.9 -2.8,4 -2.4,16.7 0.6,18.2 1.1,28 2.8,51.3 0.8,11.3 1.7,25.9 2,32.5 0.3,6.6 1,17.9 1.6,25 1.7,22.7 2.8,40.8 2.8,48.1 l 0.1,7.2 -11.2,0.8 c -10.3,0.8 -11.3,1.1 -11.3,2.9 0,2.2 2.8,2.5 12,1.1 4.7,-0.7 5.2,-0.6 8.7,2.6 3.6,3.2 3.7,3.5 4.2,11.8 0.3,4.7 0.5,10.8 0.6,13.6 0,4.5 0.5,5.7 4,9.7 4.4,5 10.9,8 15,7 1.4,-0.4 6.6,-0.8 11.5,-0.9 z m 450.8,-0.6 c 1.2,-0.6 3.6,-1.1 5.3,-0.9 1.8,0.1 3.6,-0.4 4.3,-1.3 1.2,-1.4 0.9,-1.6 -2.6,-1.6 -2.2,0 -6.8,0.3 -10.3,0.7 l -6.3,0.6 3.4,1.8 c 4.1,2.2 3.6,2.1 6.2,0.7 z m -149.5,-2.1 c 0.4,-1.7 -0.1,-1.8 -6.5,-1.1 -7.3,0.9 -12.6,0.9 -18.5,0 -2.1,-0.4 -3.8,-0.2 -3.8,0.3 0,1.3 10.1,2.6 20,2.6 7.4,0 8.5,-0.2 8.8,-1.8 z m 67.7,-0.1 c 1.7,0 8.4,0.1 15,0.1 6.6,0.1 15.7,-0.1 20.3,-0.4 7,-0.4 8.1,-0.7 7.2,-1.9 -0.9,-1 -1.7,-1.1 -3.2,-0.3 -1.1,0.6 -3,0.8 -4.3,0.5 -1.3,-0.3 -15.5,-0.6 -31.7,-0.6 -16.1,0.1 -31.1,0.1 -33.3,0 h -4 l 2.3,1.9 c 2,1.8 3.3,1.9 15.5,1.3 7.2,-0.3 14.6,-0.6 16.2,-0.6 z m 65.3,-0.3 c -1,-0.2 -2.8,-0.2 -4,0 -1.3,0.2 -0.5,0.4 1.7,0.4 2.2,0.1 3.2,-0.1 2.3,-0.4 z m -647,-90 c -79.1,-0.2 -208.5,-0.2 -287.5,0 -79.1,0.1 -14.4,0.2 143.7,0.2 158.1,0 222.8,-0.1 143.8,-0.2 z M 251.2,369.9 C 188.6,364.3 140.5,333.8 115.8,283.7 106,263.9 100.9,243.2 99,215.5 l -0.9,-14 0.4,14 c 1.3,43.9 16,79.2 44.9,108 13.8,13.7 26.4,22.7 42.7,30.4 21.2,10 49.3,16.9 67.9,16.9 5.8,-0.1 5.6,-0.2 -2.8,-0.9 z M 99.7,193.3 c -0.2,-1.6 -0.4,-0.3 -0.4,2.7 0,3 0.2,4.3 0.4,2.8 0.2,-1.6 0.2,-4 0,-5.5 z m 7.9,-33.9 c 7.8,-23.4 20.3,-43.3 37.5,-60 21.8,-20.9 43.7,-32.8 75.4,-41 7.2,-1.8 12.2,-3.3 11.2,-3.4 -3.3,0 -22,5.1 -31.7,8.7 -45.6,17 -78.9,51.1 -93.5,95.7 -3.3,10.3 -6.6,24.9 -6.4,29 0,1.1 0.9,-2.5 2,-8.1 1,-5.6 3.5,-15.1 5.5,-20.9 z m 1581.8,-28.2 c -13,-24.2 -39.8,-49.1 -66.4,-61.6 -16.2,-7.6 -43.1,-15.8 -51.2,-15.5 -1.3,0 2.7,1.1 8.7,2.3 47.6,10 86.9,37.3 108.1,75.2 2,3.5 3.8,6.4 4.1,6.4 0.2,0 -1.2,-3.1 -3.3,-6.8 z M 253,52.9 c 7.1,-0.7 7,-0.8 -2,-0.3 -5.2,0.3 -11.3,0.9 -13.5,1.4 -4.3,1 -1.2,0.8 15.5,-1.1 z m 1314.8,0.4 c -1,-0.2 -2.8,-0.2 -4,0 -1.3,0.2 -0.5,0.4 1.7,0.4 2.2,0.1 3.2,-0.1 2.3,-0.4 z m -9.5,-1 c -1.8,-0.2 -4.8,-0.2 -6.5,0 -1.8,0.2 -0.4,0.4 3.2,0.4 3.6,0 5,-0.2 3.3,-0.4 z m -332.1,-1 c -177.3,-0.2 -467.1,-0.2 -644,0 -176.9,0.1 -31.9,0.2 322.3,0.2 354.2,0 499,-0.1 321.7,-0.2 z"
       id="path6" />
    <path
       d="m 897,458.1 c -7.3,-2.6 -11.9,-6 -13.7,-10 -2.3,-5.3 -3.9,-14.7 -3.9,-22.6 l 0.1,-7 2.9,0.2 c 5.2,0.4 6.2,2.3 6.9,13.5 l 0.6,10.2 4.1,4.1 4,4 h 11.8 c 6.4,0 20,-0.6 30.2,-1.3 24.9,-1.7 58.6,-4 69,-4.7 4.7,-0.3 13,-0.8 18.5,-1.1 5.5,-0.3 14.7,-1 20.5,-1.5 5.8,-0.6 16.6,-1.3 24,-1.5 7.4,-0.3 14.9,-0.9 16.5,-1.4 1.7,-0.5 4.6,-0.7 6.5,-0.6 1.9,0.2 6,0 9,-0.4 3,-0.4 6.5,-0.4 7.7,0.1 1.3,0.5 2.5,0.4 2.8,-0.1 0.3,-0.5 2.5,-1 4.8,-1 5,-0.1 13.1,-0.7 20.7,-1.4 5.3,-0.6 29.1,-2.1 49,-3.2 5.2,-0.2 15.6,-0.9 23,-1.4 7.4,-0.6 25,-1.7 39,-2.5 14,-0.9 35.9,-2.2 48.5,-3 12.7,-0.8 24.6,-1.5 26.5,-1.5 2.3,0 3.1,-0.3 2.4,-1 -0.7,-0.7 -49.6,-0.9 -149.1,-0.8 -81.5,0.2 -147.6,0 -147,-0.3 0.7,-0.4 3.9,-0.9 7.3,-1.2 6.6,-0.5 13.7,-3.6 15.3,-6.6 1.7,-3.1 3.7,-3.1 7.8,-0.1 5.2,4 8.1,4.4 22.3,3.1 17.2,-1.6 21,-3.6 21,-11.1 0,-3.7 -1.2,-6.1 -5.7,-11.6 -2.5,-3.2 -3.3,-5 -3.3,-8.2 0,-2.2 0.5,-4.4 1.1,-4.7 0.6,-0.4 5.7,-0.9 11.5,-1.2 9.1,-0.5 10.4,-0.3 10.4,1.1 0,0.9 0.5,1.6 1.1,1.6 1.4,0 0.4,-8.7 -1.3,-12.6 l -1.2,-2.5 -12.2,0.5 c -14.2,0.6 -14.9,0.2 -14.5,-7.2 0.3,-7 0.9,-8 5.2,-9.3 3.3,-1 3.9,-1.6 3.9,-4 0,-3.9 2.9,-17.2 4,-18.3 0.6,-0.6 1.5,-0.4 2.4,0.3 1.2,1 1.3,0.6 0.5,-3.1 -0.5,-2.4 -1.3,-5.2 -1.8,-6.3 -0.8,-1.9 -4.1,-13.9 -4.1,-15 0,-0.3 1,-0.5 2.3,-0.5 2.1,-0.1 2.1,-0.1 -0.4,-1.5 -2.2,-1.2 -3,-2.9 -4.9,-10.7 -2.2,-9 -3.9,-13.7 -4,-11 0,0.6 -0.7,1.2 -1.5,1.2 -2,0 -1.9,1.3 0.9,9.5 3.1,9.1 2.4,10.9 -3.8,11.3 -5.5,0.4 -5.2,2.2 0.3,2.2 5.2,0 6.2,1.4 5,7 -0.5,2.5 -1.6,9 -2.4,14.5 -0.8,5.5 -2.1,13.2 -2.9,17 -0.8,3.9 -1.8,9.8 -2.2,13.3 -0.3,3.4 -1,6.2 -1.5,6.2 -0.5,0 -0.6,1.3 -0.3,2.9 0.4,1.6 0.1,3.2 -0.5,3.5 -0.7,0.4 -1.1,4.1 -1.1,9.1 0,8.4 1.2,11.5 4.4,11.5 0.6,0 2.6,1.2 4.4,2.8 2.3,1.9 3.3,3.7 3.4,6.1 l 0.3,3.4 -9.5,1.8 c -5.2,1.1 -11.1,1.8 -13,1.8 -1.9,-0.1 -5.3,0.6 -7.5,1.4 -3.8,1.5 -4.1,1.5 -5.8,-0.5 -1.6,-2 -1.6,-2.2 -0.1,-3.9 1,-1.1 1.2,-1.9 0.6,-1.9 -0.6,0 -1.4,0.5 -1.7,1 -1.2,1.9 -3.3,1 -7.8,-3.3 -4.9,-4.5 -5,-4.9 -6.7,-17.2 -2.5,-18.4 -6.3,-70.7 -5.1,-71.2 0.3,-0.2 0.5,-6.1 0.3,-13.2 -0.3,-12.8 -0.3,-13.1 2.8,-19.5 2.5,-5.1 3,-7.1 2.4,-10 -0.7,-4 -3.5,-8 -6.6,-9.7 -1.9,-1 -2,-0.9 -1.6,2.8 0.6,4.4 -2.2,9.3 -5.1,9.3 -3.9,0 -4.2,2 -3.1,18.1 0.5,8.5 1,17.7 0.9,20.4 0,2.8 0.5,9.1 1.1,14 0.6,5 1.3,13.1 1.5,18 0.2,5 0.7,12.3 1,16.3 0.5,5.1 0.3,7.7 -0.5,8.7 -0.9,1 -0.9,1.9 -0.2,2.8 1.2,1.5 2.7,10.3 2.3,14.1 -0.6,5.8 0.8,9.3 4.4,11.4 7,4.2 8.6,11.5 2.7,12.8 -1.5,0.3 -3.7,1 -4.9,1.6 -1.2,0.6 -4.2,0.8 -6.7,0.5 -2.6,-0.4 -4.8,-0.2 -5.1,0.3 -0.3,0.6 -2.3,1 -4.3,1 -2,0 -4.4,0.4 -5.2,1 -0.9,0.6 -2.3,0.3 -4.2,-0.8 -2.6,-1.5 -2.9,-1.5 -4,0.1 -1.1,1.4 -3.2,1.7 -12.7,1.8 -11.4,0.1 -11.5,0.1 -13.9,-2.7 -2,-2.3 -2.3,-3.5 -2,-7.5 0.3,-2.7 0.1,-4.6 -0.3,-4.3 -1,0.6 -1.7,-3.7 -2.5,-16.8 -0.3,-6.2 -1,-10.8 -1.6,-10.8 -1.4,0 -0.6,-16.6 0.8,-18 1.6,-1.6 4.4,-1.9 7.2,-0.9 2.3,0.9 2.3,0.9 1.6,-5.4 -0.4,-3.4 -0.7,-6.3 -0.9,-6.4 -0.1,-0.2 -2.7,0.3 -5.9,0.9 -5.6,1.2 -5.9,1.2 -7.7,-1.1 -2.6,-3.2 -2.7,-11.8 -0.2,-12.3 1.5,-0.3 1.8,-1.5 1.8,-8.3 0,-24.7 0.4,-30.2 2.5,-32.8 2.5,-3.1 5,-2.6 5,1.1 0,4.1 1.4,1.6 1.7,-3.1 0.4,-7.2 -0.5,-9.6 -4.5,-11.5 -2.5,-1.2 -4.3,-3 -5.7,-5.9 -2.9,-6.1 -3.8,-6.4 -3.1,-1.3 0.7,4.9 0.5,5.3 -6.2,10.6 -1.7,1.4 -2.9,3.1 -2.6,3.6 0.8,1.2 1.1,4.5 1.8,21.3 0.3,6.6 0.9,14.5 1.2,17.5 0.3,3 0.8,8.4 0.9,12 0.2,3.6 0.9,13.5 1.5,22 0.7,8.5 1.5,22 1.9,29.9 0.6,12.5 0.9,14.6 2.5,15.5 7.9,4.7 8.1,5 8.1,10.1 v 4.9 l -7.9,1.2 c -7.5,1.2 -8.1,1.1 -10.5,-0.8 l -2.6,-2 -0.3,2.1 c -0.4,2.6 -0.7,2.6 -4.4,-0.1 -2.7,-1.9 -3.4,-2 -6.2,-0.9 -10,4.1 -19.8,5.7 -22.3,3.8 -0.7,-0.5 -1.3,-1.8 -1.3,-2.9 0,-2.3 -2.7,-3.5 -4.3,-1.9 -0.6,0.6 -1.9,1.1 -2.9,1.1 -1.6,0 -1.7,0.3 -0.7,2.1 0.6,1.1 2.4,2.8 4.1,3.7 6.4,3.6 6.2,3.7 -7.3,3.4 -13,-0.3 -13.1,-0.3 -12.7,-2.6 0.3,-1.2 -0.1,-10.1 -0.8,-19.7 -0.7,-9.6 -1.3,-19.7 -1.3,-22.6 l -0.1,-5.2 11.3,-0.4 11.2,-0.3 -12.1,-0.2 -12.1,-0.2 -1.3,-14.7 c -1.5,-17.6 -2.7,-44.7 -1.9,-45.1 0.3,-0.1 0.1,-3.3 -0.3,-7 -1.3,-11.2 -1.1,-42.5 0.3,-45.6 1.5,-3.1 6.6,-6.1 12.4,-7.1 2.2,-0.4 4.5,-1.1 5,-1.6 0.6,-0.4 4.5,-1.1 8.5,-1.4 21.8,-1.5 42.4,-2.6 68,-3.5 15.7,-0.6 29.8,-1.3 31.4,-1.6 1.8,-0.3 3.2,0 3.7,0.8 0.7,1 0.9,0.9 0.9,-0.4 0,-2.5 3.3,-3.1 16.5,-3 14.3,0.1 60.6,-2.7 62,-3.8 0.6,-0.4 6.4,-1 13,-1.4 6.6,-0.3 18.7,-1.1 27,-1.7 8.6,-0.6 15.1,-0.7 15.2,-0.2 0.2,0.5 3.8,0.6 8.1,0.2 4.2,-0.4 12.4,-0.9 18.2,-1.3 24.2,-1.2 32.5,-1.9 33,-2.7 0.9,-1.3 20.1,-2.4 20.9,-1.2 0.4,0.6 4.2,0.7 10.1,0.2 11.6,-0.9 24,-1.7 38.5,-2.5 6.1,-0.4 11.5,-1 12.1,-1.5 1,-0.9 13.6,-2 37.2,-3.4 9.4,-0.5 10.2,-0.4 10.2,1.2 0,1.1 0.3,1.4 0.8,0.7 1.3,-1.9 6.4,-2.7 20.2,-3 16.1,-0.4 34.6,-1.8 41.5,-3.3 6.7,-1.3 21.4,-1.9 21.8,-0.8 0.1,0.5 5.1,0.4 11.7,-0.2 6.3,-0.6 18.3,-1.3 26.5,-1.7 9,-0.4 16.1,-1.2 17.8,-1.9 1.6,-0.8 10.4,-1.8 22.5,-2.5 10.8,-0.6 21.2,-1.2 23,-1.5 2.2,-0.3 3.2,0 3.2,1 0,1 0.8,1.1 3.3,0.5 1.7,-0.5 9.1,-1.1 16.2,-1.5 7.2,-0.4 17.2,-1 22.3,-1.4 5.3,-0.3 9.7,-0.2 10.2,0.3 0.5,0.5 0.7,0.1 0.4,-1 -0.4,-1.6 0,-1.9 2.3,-1.9 4.6,-0.1 32.6,-1.6 35.8,-2 3.7,-0.5 13,-1.2 34.7,-2.6 9.2,-0.6 21.2,-1.4 26.5,-1.8 9.2,-0.7 16.2,-0.7 20.8,0.1 3,0.5 2.1,-4 -1.5,-7.7 -3.3,-3.3 -4.1,-3.3 -26.5,-2.1 -8.4,0.5 -11.1,0.7 -42.8,3.1 -10.9,0.9 -20.2,1.3 -20.6,1.1 -0.4,-0.3 -4.4,-0.1 -8.7,0.4 -4.3,0.6 -11.7,1.2 -16.4,1.5 -4.7,0.3 -15.2,0.9 -23.5,1.4 -8.2,0.5 -20.6,1.2 -27.4,1.5 -6.9,0.4 -12.7,1 -13,1.4 -0.4,0.4 -4.9,0.9 -10.1,1.1 -27.1,0.7 -37,1.3 -37,2.2 0,0.5 -1.7,0.9 -3.7,0.8 -8.6,-0.4 -42.9,1.4 -44,2.3 -0.6,0.5 -3.6,0.9 -6.5,0.7 -2.9,-0.1 -9.1,0.1 -13.8,0.5 -4.7,0.3 -12.8,0.8 -18,1.1 -5.2,0.3 -16.2,1 -24.3,1.6 -14.5,1.1 -14.9,1.1 -17.1,-1 -3,-2.8 -5.4,-2.7 -6.2,0.3 -0.6,2.3 -0.9,2.4 -13.2,3 -7,0.4 -18,1.1 -24.4,1.6 -6.4,0.6 -13.9,1 -16.7,1 -2.8,0 -5.1,0.3 -5.1,0.8 0,0.4 -4.6,0.7 -10.2,0.7 -5.7,0 -15.2,0.4 -21.3,0.9 -11.9,0.9 -33.4,2.2 -51,3.1 -6,0.3 -13.2,0.9 -16,1.4 -2.7,0.5 -9,1 -14,1.1 -17.3,0.5 -23.4,0.8 -35.7,1.9 -6.8,0.6 -20.8,1.6 -31.3,2.1 -10.4,0.6 -25.1,1.6 -32.5,2.2 -7.4,0.6 -19.6,1.3 -27,1.4 -7.4,0.2 -20.5,1.1 -29,1.9 -8.5,0.9 -22.5,1.9 -31,2.4 -18.2,1 -29.7,1.7 -47.5,3.2 -7.1,0.5 -19.7,1.2 -27.9,1.5 -8.4,0.2 -15.5,0.9 -16.2,1.5 -0.7,0.6 -1.8,0.8 -2.3,0.5 -1.6,-1 -10.9,4.1 -12.3,6.6 -0.6,1.3 -1.1,4.8 -1,7.8 0.5,15.5 1.1,26.8 2.1,39 1.9,23.7 2.1,28.4 1,31.2 -0.8,2 -0.7,3.1 0.5,5 0.8,1.3 1.6,4.4 1.6,6.8 0,2.5 0.2,6.5 0.5,9 0.2,2.5 0.8,12 1.4,21.2 0.6,9.2 1.5,21.6 2.1,27.5 0.5,6 1,13.4 1,16.6 v 5.8 l -3.2,-0.3 c -5.3,-0.5 -6.5,-3.6 -7.1,-17.3 -0.5,-11.2 -1.2,-21.7 -5.2,-81.5 -4.9,-72.4 -4.9,-71.9 -0.5,-78.2 5.6,-8.2 10.2,-9.2 55,-11.3 5.8,-0.3 15.2,-1 21,-1.6 5.8,-0.6 13.4,-0.9 16.9,-0.6 3.5,0.3 7.8,0.1 9.5,-0.5 1.7,-0.5 9.2,-1.1 16.6,-1.4 7.4,-0.2 15.5,-0.9 18,-1.5 2.5,-0.6 9,-0.9 14.5,-0.8 5.5,0.2 10.5,0 11.2,-0.4 0.7,-0.4 5.4,-1 10.5,-1.2 5.1,-0.3 12.7,-0.7 16.8,-0.9 4.1,-0.2 13.1,-0.9 20,-1.5 6.9,-0.6 16.8,-1.3 22,-1.6 5.2,-0.2 16,-0.9 24,-1.5 8,-0.6 22.2,-1.5 31.5,-2 9.4,-0.5 23.5,-1.4 31.5,-2 8,-0.5 17.9,-1.2 22,-1.5 33,-2 42.4,-2.7 48.5,-3.4 3.9,-0.4 12.2,-0.9 18.5,-1 6.3,-0.1 11.8,-0.5 12.4,-0.8 0.5,-0.3 3.6,-0.7 7,-0.8 3.4,-0.1 15.8,-0.8 27.6,-1.5 11.8,-0.7 23.5,-1.2 26,-1.1 2.5,0.1 5.4,-0.3 6.5,-0.8 1.1,-0.5 11,-1.4 22,-2 42.8,-2.4 56,-3.4 56.6,-4.2 0.3,-0.5 1.8,-0.5 3.5,0 1.6,0.4 6.5,0.4 10.9,0 4.4,-0.4 13.8,-1 20.9,-1.3 7,-0.2 13,-0.7 13.4,-1 0.3,-0.3 3.9,-0.6 8.1,-0.6 4.2,0 15.9,-0.7 26.1,-1.5 17.8,-1.5 26.8,-2.1 45,-3 4.7,-0.2 14.8,-0.9 22.5,-1.5 7.7,-0.6 17.8,-1.3 22.5,-1.5 11.5,-0.6 25.7,-1.5 30,-2 1.9,-0.2 9.4,-0.7 16.5,-1 7.2,-0.3 19,-1.1 26.3,-1.7 12.1,-1 13.6,-0.9 17.5,0.7 2.3,1 5.7,3.2 7.6,4.9 3.7,3.4 8.4,12.9 7.7,15.5 -0.3,0.9 -0.1,5.7 0.4,10.6 1,9.3 1.9,23.1 2.6,39.5 0.2,5.2 0.8,13.8 1.4,19 0.5,5.2 1.2,14.5 1.5,20.5 0.3,6.1 0.8,13.9 1,17.5 0.3,3.6 0.8,13 1.1,21 l 0.5,14.5 -2.7,1.2 c -1.9,0.9 -3.1,1 -4,0.2 -1.2,-1 -4.7,2.2 -11.9,10.9 -4.6,5.6 -24.5,22.1 -34.9,29.1 -5.5,3.6 -15.4,9.4 -22,12.8 l -12.1,6.2 12,-0.5 c 6.6,-0.2 19.9,-1.1 29.5,-1.8 9.6,-0.8 21.1,-1.5 25.4,-1.6 6.9,-0.1 8.3,-0.4 10.9,-2.6 1.6,-1.3 3.3,-2.1 3.9,-1.8 0.6,0.4 0.8,-0.1 0.4,-1.4 -0.4,-1.1 0,-3.7 0.8,-5.7 1.3,-3 1.3,-4.7 0.3,-10.8 -0.7,-4 -1.2,-11.6 -1.2,-17.1 0,-8.2 0.3,-10 1.7,-10.9 1.3,-0.9 2.1,-0.7 3.6,0.6 2.2,2 2.6,7.7 2.7,32.9 0,13.2 -0.1,13.7 -2.5,16.3 -1.4,1.5 -4.5,3.8 -6.8,5.2 -4,2.4 -6.1,2.7 -24,4 -10.9,0.7 -25.3,1.6 -32.2,1.9 -13.1,0.5 -32,1.8 -45.5,3.1 -4.4,0.5 -12.9,0.7 -19,0.6 -21.5,-0.3 -23.3,-0.3 -26.9,1.2 -2,0.8 -6,1.8 -8.8,2.1 -2.9,0.3 -5.9,0.7 -6.7,1 -0.8,0.2 -3,-0.1 -4.9,-0.7 -2.1,-0.7 -3.7,-0.8 -4.1,-0.2 -1.1,1.7 -10.2,0.9 -11.3,-1 -0.5,-0.9 -1.6,-1.7 -2.5,-1.7 -1.2,0 -1.3,0.3 -0.3,1.5 1.9,2.3 0.4,3.2 -6.2,3.7 -4.4,0.4 -7.2,0.1 -9.2,-0.9 -1.6,-0.8 -4,-1.3 -5.4,-1 -1.4,0.3 -3.6,-0.2 -4.8,-1 -2.6,-1.7 -5,-1.2 -9,2 -1.5,1.2 -3.5,2.3 -4.3,2.5 -4.8,1 -30.4,2.7 -60.3,3.9 -9.4,0.3 -15.8,1 -15.8,1.6 0,0.6 -1.6,0.7 -4.2,0.3 -2.3,-0.4 -8.4,-0.2 -13.7,0.4 -8.2,0.8 -22.8,1.9 -66.1,4.5 -4.1,0.3 -14.9,1 -24,1.7 -9.1,0.6 -20.8,1.2 -26,1.4 -5.2,0.1 -10.2,0.5 -11,0.8 -0.8,0.3 -6,0.7 -11.5,0.9 -5.5,0.3 -12.9,0.7 -16.5,1 -3.6,0.3 -13,0.8 -21,1.2 -8,0.4 -15.6,1 -17,1.2 -1.4,0.3 -9.9,0.9 -19,1.3 -9.1,0.5 -20,1.2 -24.2,1.5 -4.3,0.4 -8.5,0.2 -9.4,-0.3 -1.2,-0.6 -2.7,-0.5 -4.8,0.3 -3.6,1.5 -23.1,3.1 -54.6,4.5 -12.4,0.6 -27.2,1.5 -33,2 -5.8,0.5 -19.5,1.4 -30.5,2 -11,0.6 -25.4,1.5 -32,2 -6.6,0.6 -16.7,1.2 -22.5,1.5 -12,0.5 -20.9,1.2 -36.5,2.5 -6,0.6 -15.3,1.2 -20.5,1.5 -5.2,0.2 -11.3,0.6 -13.5,0.8 -2.2,0.2 -6,-0.3 -8.5,-1.2 z M 1374.5,423 c -0.3,-0.5 -3.3,-1 -6.5,-1 -3.2,0 -6.2,0.5 -6.5,1 -0.4,0.6 2,1 6.5,1 4.5,0 6.9,-0.4 6.5,-1 z m -210,-10.1 c 2.2,-0.5 7.4,-0.9 11.6,-0.9 6.2,0 8.2,-0.4 11,-2.3 6.5,-4.4 6.3,-11.5 -0.7,-19.8 -3.1,-3.7 -7.4,-13.3 -7.4,-16.4 0,-0.8 1.3,-1.5 3.3,-1.8 2.9,-0.3 2.8,-0.4 -0.9,-0.5 l -4.2,-0.2 -1.9,-7.7 c -2.6,-9.8 -12.8,-44.9 -14.3,-48.8 -0.8,-2 -0.8,-3.1 -0.1,-3.3 0.7,-0.2 0.7,-0.9 0.1,-2 -1.2,-2.1 -5,-17.1 -5.1,-20.4 -0.1,-2 -0.2,-2.1 -0.6,-0.3 -0.4,1.2 -2.6,-4.3 -6,-14.8 -4.3,-13.5 -6.1,-17.6 -8.8,-20.5 -1.8,-2 -3.7,-3.4 -4.1,-3 -0.4,0.4 -0.1,1.4 0.5,2.2 0.7,0.8 1,1.9 0.7,2.4 -0.3,0.5 0.4,3.7 1.4,7.2 1.1,3.5 1.7,6.6 1.5,6.9 -0.3,0.2 -0.1,0.9 0.4,1.5 1.1,1.4 6.1,18.9 6.1,21.3 0,1.1 0.7,2.8 1.5,3.9 0.8,1 1.5,4 1.5,6.5 0,2.9 0.6,5.1 1.5,5.9 0.8,0.7 1.5,2.1 1.5,3.1 0,1.1 1.5,6.8 3.4,12.7 3.9,12.1 6.1,19.9 8.1,28.7 0.8,3.3 2.3,8.5 3.3,11.6 1.3,3.7 1.7,6.1 1.1,7.2 -0.7,1.2 -0.4,2.2 1.1,3.7 1.1,1.1 2,2.9 2,4 0,3.2 2.9,8 4.7,8 0.9,0 2.7,1 4,2.2 2.7,2.5 3.1,7.9 0.8,10.2 -1.9,1.9 -9.6,3.1 -13.2,2.1 -3.2,-0.9 -6,-0.8 -12.3,0.5 -2.5,0.5 -11,1.5 -19,2.1 -11.5,0.9 -15.1,0.9 -16.9,-0.1 l -2.3,-1.2 1.7,2.9 c 4.3,7.1 12.2,9.5 29.5,8.7 6.3,-0.3 13.3,-1 15.5,-1.5 z m 108,-5.6 c 6.3,-2.2 11.8,-5.8 16.4,-10.8 4.2,-4.6 12.1,-19.3 12.1,-22.7 0,-1.5 1.2,-1.8 8.3,-2.1 l 8.2,-0.3 -8.5,-0.2 -8.6,-0.2 0.4,-3.3 c 0.6,-5 -1.4,-11.1 -4.8,-14.7 -3.5,-3.8 -4.5,-3.5 -3,0.6 1.3,3.2 0.4,7.2 -3.3,15.4 -1.1,2.5 -2.7,6.3 -3.7,8.5 -2.9,6.8 -10.5,14.3 -17.9,17.7 -13.7,6.3 -17.1,5.6 -17.1,-3.7 0,-4.6 -0.4,-5.6 -3.5,-8.8 -1.9,-2 -3.5,-4.5 -3.5,-5.6 0,-1.1 -0.3,-2.6 -0.6,-3.5 -0.5,-1.3 1.1,-1.6 12.3,-1.9 l 12.8,-0.3 -13.1,-0.2 -13.1,-0.2 -0.7,-5.7 c -0.3,-3.2 -1.1,-13.9 -1.6,-23.8 -0.6,-9.9 -1.4,-22.5 -2,-28 -1.1,-11.8 -1.1,-35.9 0,-39.5 0.4,-1.4 0.9,-1.8 0.9,-1 0.1,0.8 1.1,-0.1 2.3,-2.2 3.1,-5.4 5.9,-6.3 11.7,-3.7 5.9,2.5 11,7.6 15,14.9 4.7,8.4 3.7,4.1 -1.3,-5.8 -5.1,-10.2 -10.5,-16 -18.3,-19.8 -5.6,-2.8 -7.3,-5.1 -7.3,-10.3 0,-3.3 -1.7,-5.7 -4.8,-6.6 -2.1,-0.6 -2.3,-0.5 -1.3,1.4 0.6,1.1 1.3,4.7 1.5,7.9 0.5,5.9 0.4,6 -2.5,7.2 -5.6,2.4 -6.4,5.5 -6.2,24.5 0.1,9.4 0.6,22 1.1,28 0.6,6.1 1.3,16.6 1.6,23.5 1.1,24.9 2.1,37.5 3,38.9 0.5,0.8 0.4,1.7 -0.5,2.3 -1.1,0.7 -1.1,1.1 -0.1,1.5 0.7,0.2 1.9,1.8 2.7,3.4 0.9,1.7 2.7,3.1 4.3,3.5 5.3,1.3 6.2,3 6.2,11.6 v 7.8 l -4.2,-0.6 c -2.4,-0.3 -5.6,-1 -7.1,-1.6 -1.5,-0.6 -3,-0.8 -3.4,-0.5 -0.3,0.4 -1.5,0.1 -2.7,-0.5 -1.1,-0.6 -3.5,-1.1 -5.2,-1 -1.8,0.1 -3.8,-0.5 -4.4,-1.3 -0.7,-0.8 -2.1,-1.5 -3.2,-1.5 -1.2,0 -5.7,-3.5 -10.5,-8 -4.6,-4.4 -8.9,-8 -9.4,-8 -0.5,0 -0.9,-1.3 -0.9,-3 0,-3.5 -2,-4.8 -6.3,-4.1 l -3.2,0.5 3,0.6 c 1.6,0.3 3.4,1.4 4,2.5 4.6,9 19.1,23.7 27.4,28 3,1.5 9.5,3.8 14.5,5.1 8.1,2 10.5,2.2 21.6,1.7 6.9,-0.3 14.3,-1.2 16.5,-2 z m -234,-5.3 c 0.3,-0.5 0.2,-1 -0.4,-1 -0.5,0 -1.8,-0.3 -2.8,-0.7 -1.6,-0.6 -1.6,-0.5 -0.4,1 1.5,1.9 2.7,2.2 3.6,0.7 z m -30.5,-1 c 1.1,-0.7 0.1,-1 -3.5,-1 -3.6,0 -4.6,0.3 -3.5,1 0.8,0.5 2.4,1 3.5,1 1.1,0 2.7,-0.5 3.5,-1 z m 356.5,0 c 6.6,-0.6 13.4,-1.5 15,-2 1.7,-0.5 13.6,-1.1 26.5,-1.4 24.1,-0.5 38.6,-1.8 43,-3.9 2.2,-1.1 6.3,-6.1 7.3,-9 0.2,-0.7 1.8,0.2 3.8,2.1 5.8,5.5 11.4,6.5 31.8,5.7 9.7,-0.3 20.3,-1.3 23.6,-2.1 4,-1 12.8,-1.6 26.5,-1.8 11.7,-0.2 22.1,-0.8 24.2,-1.5 2.2,-0.7 5,-2.8 7,-5.1 l 3.3,-4 3.7,2.5 c 2.1,1.4 6.4,3.1 9.5,3.6 7.4,1.4 35.8,0.3 44.5,-1.7 3.5,-0.8 11,-1.6 16.8,-1.7 9.7,-0.2 11.1,-0.5 17.5,-3.6 10.9,-5.3 20.1,-15.2 26.6,-28.6 6.8,-14.2 9,-24.5 9,-43 0,-14.8 -2.7,-31.9 -5.4,-34 -0.7,-0.5 -1.9,-3 -2.6,-5.5 -4.1,-13.9 -15.4,-30 -25.6,-36.4 -3,-1.8 -3,-1.8 0.6,2 5.6,6.2 8.8,11 12,17.9 1.5,3.5 3.3,6.6 3.9,7 0.6,0.4 0.8,1.5 0.5,2.5 -0.3,1.1 0,3.2 0.8,4.7 0.7,1.5 1.8,5.1 2.4,7.8 0.7,2.8 1.5,6.4 1.9,8 1,3.9 0.5,30.9 -0.6,35.5 -0.5,1.9 -1.4,6.2 -2,9.5 -0.7,3.2 -2.3,7.6 -3.6,9.7 -1.3,2.1 -2.4,4.5 -2.4,5.5 0,2.5 -8.7,14.9 -12.9,18.3 -2,1.6 -4.7,4 -6.1,5.4 -3.1,3 -10.8,6.1 -17.6,7 -6.8,0.9 -9,-0.9 -9.7,-8.1 -0.6,-5.4 0.7,-8.3 3.9,-8.3 1.9,0 4.5,-6.7 4.2,-11.1 -0.1,-2.1 -0.5,-3.6 -1,-3.3 -0.4,0.3 -0.6,1.5 -0.3,2.7 0.4,1.3 0.2,3.3 -0.3,4.7 -0.9,2.3 -0.9,2.3 -1.5,-0.9 -0.4,-1.8 -0.4,-3.7 -0.1,-4.2 0.3,-0.5 -0.2,-0.6 -1,-0.3 -1.1,0.4 -1.5,-1.1 -2,-8.3 -0.4,-4.8 -1.1,-14.9 -1.6,-22.3 -3,-42.3 -3.9,-67.4 -2.5,-68.8 0.3,-0.3 1.5,-0.1 2.5,0.6 1.8,1.1 2,0.9 2,-1.2 0,-4.2 -2.1,-7.5 -6.7,-10.1 -3.4,-2.1 -4.3,-3.1 -4.3,-5.4 0,-2.5 -3.1,-7.1 -4.8,-7.1 -1.2,0 -0.1,27.5 2.7,68.5 0.5,7.2 1.2,17.7 1.5,23.5 0.9,14.6 3.5,50.6 4.1,55.7 0.3,3 0,4.3 -1.1,4.7 -0.8,0.3 -7.6,0.9 -15.2,1.2 -7.5,0.4 -14.1,1 -14.7,1.4 -0.5,0.3 -5.9,0.6 -12,0.5 l -11,-0.1 -1.5,-3.2 c -0.8,-1.7 -2,-3.2 -2.6,-3.2 -1.1,0 -2.2,-6.2 -3.9,-21 -0.8,-6.5 -4.5,-15 -7.5,-16.8 -2.1,-1.3 -2.1,-1.2 -1.5,6 0.3,4 0.8,10.9 1,15.3 0.3,4.4 0.8,11.7 1.1,16.3 0.4,6.3 0.2,8.2 -0.8,8.3 -0.7,0 -3.1,0.2 -5.3,0.5 -2.2,0.2 -9.6,0.6 -16.4,0.9 -6.8,0.2 -12.9,0.9 -13.5,1.5 -3.3,3.3 -8.2,-0.9 -8.9,-7.8 -0.5,-4.4 -0.3,-5.5 1.5,-7.1 1.6,-1.5 1.9,-2.7 1.4,-5.3 -0.3,-1.8 -0.7,-10.6 -0.8,-19.6 -0.2,-16.9 0.4,-19.9 3.6,-17.3 3.2,2.7 3.6,0.5 0.9,-4.9 -1.9,-3.7 -4.2,-6.4 -6.9,-8.2 -4,-2.7 -4.2,-3 -4.9,-9.4 -0.6,-5.9 -0.4,-7 1.5,-9.6 2,-2.8 2.1,-3.2 1,-17.1 -0.6,-8.2 -0.7,-15.9 -0.3,-18.2 0.8,-3.6 1.2,-4 4.2,-4.3 4.2,-0.4 12.1,2.5 12.1,4.4 0,0.8 0.4,1.4 1,1.4 1.5,0 7,8 7,10.3 0,1.4 -0.5,1.8 -2,1.4 -2.2,-0.6 -2.6,0.3 -0.8,2.1 1.1,1.1 1.7,6.7 2.3,21.9 0.2,3.9 0.8,12.7 1.4,19.5 0.6,6.8 0.7,13.9 0.3,15.8 -0.7,3 -1.2,3.5 -4.1,3.8 -1.8,0.2 -4,-0.3 -4.9,-1.1 -3.7,-3.1 -4.5,-3 -2.6,0.3 2.1,3.6 7.4,7.5 11.5,8.5 3.1,0.8 5.9,-1.5 5.9,-4.8 0,-1.2 0.9,-3.7 2.1,-5.6 1.8,-3 2,-4.4 1.4,-10.2 -0.4,-3.7 -0.3,-7.4 0.1,-8.1 0.9,-1.4 0.7,-6.9 -0.7,-18.4 -0.5,-4.5 -0.7,-8.8 -0.4,-9.7 0.4,-0.9 2.4,-1.7 5.3,-2 3.6,-0.4 5.3,-1.2 7.4,-3.6 2.7,-3 2.8,-3.5 2.8,-13.9 0,-19.8 -4.1,-34.6 -10.6,-38.4 l -3.1,-1.8 0.8,5.8 c 0.5,3.1 1.1,11.6 1.4,18.7 0.4,7.2 1.1,14.3 1.7,15.8 0.9,2.4 0.7,3.1 -1.2,5.2 -4.8,5.2 -8.7,2.7 -15.5,-9.7 -3.9,-7 -5.8,-9.4 -9.9,-12.1 -7.4,-5 -9.3,-5.8 -12,-5.1 -3.9,0.9 -6.3,-1 -6.9,-5.6 -0.5,-3.7 -2.8,-6.9 -5,-7 -0.5,0 -0.6,4.6 -0.2,10.3 0.7,11.9 1.5,26.3 2,36.2 0.2,3.9 0.5,7.7 0.8,8.5 0.3,0.8 0.8,7.4 1.2,14.5 0.4,7.2 1.1,18 1.6,24 0.5,6.1 1,16.3 1.1,22.7 0.2,7.7 0.7,12.1 1.6,13 1.4,1.4 1.7,5.2 0.3,4.4 -1.2,-0.8 -2,4.1 -0.9,5.2 0.5,0.5 0.8,3.6 0.6,6.8 -0.3,5.4 -0.5,5.9 -2.5,5.6 -1.2,-0.2 -2.4,0.2 -2.8,0.8 -0.4,0.6 -5.9,1 -14.6,1 -7.7,0 -13.8,0.4 -13.5,0.8 0.2,0.4 -4,0.9 -9.4,1 l -9.8,0.3 -2.8,-3.3 c -1.5,-1.8 -2.5,-2.5 -2.1,-1.5 1,2.6 0.1,2.1 -3.7,-2 l -3.5,-3.8 3.2,-0.6 c 2.9,-0.6 2.8,-0.6 -1.3,-0.8 -5.5,-0.1 -5.3,0.1 -12.6,-17.9 -3.1,-7.5 -7.5,-18.2 -9.9,-23.7 -11,-25.2 -15.7,-37.3 -16.2,-42.2 -0.5,-4.6 -0.2,-5.8 2.7,-10.5 7.6,-12.5 8.5,-13.7 9.9,-13.3 1.7,0.7 11.7,-7.8 13.6,-11.5 3.1,-6 1.2,-14 -4.1,-17.5 -1.4,-0.9 -2.3,-1.2 -1.9,-0.6 2.4,4 -4,13 -11.7,16.3 -5.1,2.2 -9,6.7 -13.3,15.3 -1.1,2.2 -3.3,5.9 -4.9,8.2 l -2.8,4.2 2.1,3.4 c 1.2,1.9 2,4.3 1.9,5.3 -0.1,1.1 2.4,7.2 5.5,13.7 3.1,6.5 5.7,12.3 5.7,13 0,0.6 2.3,5.5 5,10.9 2.8,5.4 5,10.5 5,11.3 0,0.9 1.1,3.7 2.4,6.3 1.3,2.6 2.9,6.7 3.5,9 1.9,7 8,18.1 10.9,19.9 3.8,2.4 5.2,4.3 5.2,7.3 0,4.5 -3,6.3 -10.5,6.1 -4.2,-0.1 -6.5,0.3 -6.5,1 0,0.8 -1.4,0.9 -4.5,0.4 -2.5,-0.3 -7.8,-0.2 -11.8,0.4 -3.9,0.6 -12.5,1.2 -19,1.5 l -11.8,0.4 -2.9,-4 c -2.9,-3.9 -2.9,-4 -1.2,-7.6 0.9,-2 2.1,-4 2.6,-4.4 0.5,-0.3 -0.4,-0.8 -2,-1 -2.4,-0.2 -3,-0.8 -3.2,-3.2 -0.2,-1.6 -0.1,-4.5 0.3,-6.4 0.6,-3.2 0.7,-3.3 2.4,-1.8 2.9,2.7 3.2,1.8 1,-3.6 -4.7,-12 -12.9,-38.6 -13,-42.3 -0.1,-2.5 0.8,-6.2 2.6,-10 3.5,-7.6 4.6,-11.3 3.4,-11.7 -0.5,-0.2 -1.1,-6.6 -1.5,-14.3 l -0.6,-14 3.1,-5.7 c 3.6,-6.7 3.9,-10.8 1,-15.4 -1.8,-3 -6.8,-7.4 -8.3,-7.4 -0.3,0 0.1,1.7 0.9,3.9 1.5,4.5 0.3,8.3 -3,8.9 -1.1,0.2 -2.8,1.1 -3.8,2 -1.7,1.5 -1.8,2.7 -1.2,11.7 0.4,5.5 1,14.4 1.2,19.8 l 0.4,9.8 -2.5,-0.7 c -3.3,-0.8 -3.4,0.9 -0.2,2.4 2.8,1.3 3.1,2.9 4.6,25.2 0.6,9.1 1.6,24.6 2.3,34.4 l 1.2,17.9 4.5,3.2 c 5.3,3.7 6.9,7.8 4.9,12.1 -1.3,2.6 -2,3 -8.4,3.7 -7.9,0.8 -16.4,1.3 -38,2.1 -12.9,0.5 -15.1,0.3 -16.7,-1.1 -2.6,-2.3 -2.2,-0.5 0.8,3.4 2.7,3.5 6.9,6.2 11.9,7.4 4.5,1.1 26.5,1 40,-0.1 z M 1165,399.5 c 0,-1.3 -5.5,-5.3 -6.6,-4.8 -2,0.8 -1.7,2.3 0.5,2.3 1,0 2.4,0.7 3.1,1.5 1.2,1.4 3,2 3,1 z M 985.3,371.3 c -1.3,-0.2 -3.5,-0.2 -5,0 -1.6,0.2 -0.5,0.4 2.2,0.4 2.8,0 4,-0.2 2.8,-0.4 z m 82.5,0 c -3.2,-0.2 -8.6,-0.2 -12,0 -3.5,0.2 -0.9,0.3 5.7,0.3 6.6,0 9.4,-0.1 6.3,-0.3 z m 228.6,-66.5 2.8,-3.1 -0.5,-11.6 c -0.3,-6.4 -0.8,-12.9 -1.2,-14.6 -0.3,-1.6 -0.9,-8 -1.4,-14.1 -1,-12.6 -2.9,-17.5 -8.5,-21.7 -4,-3.1 -5.6,-3.5 -3.4,-0.9 1.2,1.2 1.7,5.2 2.2,14.7 0.4,7.2 1,16.8 1.3,21.5 0.3,4.7 0.8,11.3 1,14.7 0.5,7.3 -0.6,9.9 -4.8,10.8 -2.6,0.6 -3.6,0.2 -6.5,-2.6 -4.7,-4.6 -4.2,-2.4 0.8,3.5 7.1,8.2 12.7,9.3 18.2,3.4 z M 1121.5,295 c -0.3,-0.5 -1.2,-1 -2,-1 -0.8,0 -1.7,0.5 -2,1 -0.4,0.6 0.5,1 2,1 1.5,0 2.4,-0.4 2,-1 z M 913,282.6 c 0,-2.8 -1.3,-4.6 -3.3,-4.6 -1.1,0 -3.1,-1 -4.4,-2.2 -3.1,-2.9 -2.9,-1 0.2,3.3 3.3,4.4 7.5,6.3 7.5,3.5 z m 371,-3.1 c 0,-0.8 -0.9,-1.5 -1.9,-1.5 -2.9,0 -3.5,1.8 -0.9,2.3 1.3,0.2 2.4,0.5 2.6,0.6 0.1,0 0.2,-0.6 0.2,-1.4 z m 24.8,-26 c -1.8,-1.7 -5.8,-2.9 -5.8,-1.7 0,0.6 1.5,2.5 3.2,4.3 3.2,3.4 3.3,3.4 3.6,1 0.2,-1.3 -0.2,-2.9 -1,-3.6 z m 82.2,2.5 c 0,-3.8 -2.3,-6.7 -7.1,-9.4 -5,-2.6 -5,-2.6 -3.8,-0.4 1.4,2.7 9.1,11.6 10.2,11.7 0.4,0.1 0.7,-0.8 0.7,-1.9 z m 66.2,-7.3 c -0.3,-2.6 -1.2,-3.7 -4.4,-5.5 l -3.9,-2.3 1.2,2.3 c 1.4,2.7 6.1,8.6 6.9,8.7 0.4,0.1 0.4,-1.4 0.2,-3.2 z m 119.8,-7.5 c 0,-1.5 -0.4,-3.1 -0.8,-3.7 -0.6,-0.9 -7.6,-4.5 -8.8,-4.5 -0.9,0 1.8,4.5 5,8.1 3.5,4 4.6,4 4.6,0.1 z"
       id="path8" />
  </g>
  <g
     fill="#ebeaea"
     id="g378"
     transform="translate(0,-1.1618028)">
    <path
       d="m 1424.7,576 c -5,-0.9 -11.8,-4 -15.1,-6.8 -2.9,-2.7 -7.2,-9.4 -8.4,-13.2 -0.6,-2.1 -1.2,-19.1 -1.5,-42.2 l -0.4,-38.8 h 57.3 57.4 v 12.5 12.5 h -40 -40.1 l -2.4,2.5 c -1.7,1.6 -2.5,3.5 -2.5,6 0,2.5 0.8,4.4 2.5,6 l 2.4,2.5 h 37.6 37.5 v 8.5 8.5 h -37.1 -37.1 l -2.9,2.9 c -3.7,3.8 -3.9,8.2 -0.4,11.6 l 2.4,2.5 h 40.1 40 v 13 13 l -42.2,-0.1 c -23.3,-0.1 -44.5,-0.5 -47.1,-0.9 z"
       id="path12" />
    <path
       d="m 838,538.1 c 0,-43.9 0.1,-44.8 8.2,-53.6 2.7,-2.9 5.6,-5.2 6.5,-5.1 2.2,0.3 5.7,4.7 4.4,5.6 -1.8,1.1 1.5,4.6 9.9,10.5 7.9,5.5 7.9,5.6 6,7.5 -1.7,1.7 -2,3.4 -2,12 v 10 h 29 29 v -8.9 c 0,-10.2 -0.7,-9.6 11.5,-10.2 13,-0.6 21,-0.5 21.3,0.4 0.1,0.4 0.2,16.2 0.2,35.2 V 576 h -16 -15.9 l -0.3,-12.2 -0.3,-12.3 H 900 870.5 l -0.3,12.3 -0.3,12.2 H 854 838 Z"
       id="path14" />
    <path
       d="m 985.8,540.4 c -0.2,-19.6 -0.1,-35.9 0.2,-36.4 0.5,-0.7 24,-3 30.8,-3 h 3.2 v 37.5 37.5 h -17 -17 z"
       id="path16" />
    <path
       d="m 1041.8,538.8 c -0.2,-20.5 0,-37.7 0.4,-38.2 1,-1.2 1.1,-1.2 14.9,-2 6.3,-0.4 17,-1.1 23.9,-1.6 6.9,-0.6 19.9,-1.5 29,-2 9.1,-0.6 17.6,-1.2 19,-1.4 1.4,-0.2 9,-0.7 17,-1 8,-0.4 17.9,-0.9 22.1,-1.2 6.3,-0.5 7.8,-0.3 9,1.2 1.1,1.4 1.5,8.9 1.7,42.6 l 0.3,40.8 h -16 -16.1 v -34.9 -35 l -2.4,-2.8 -2.4,-2.8 h -31.6 c -31.5,0 -31.5,0 -33.8,2.3 -2.3,2.2 -2.3,2.3 -2.6,37.7 l -0.3,35.5 h -15.9 -16 z"
       id="path18" />
    <path
       d="M 1201,532.5 V 489 h 2.3 c 1.2,0 11.9,-0.7 23.7,-1.5 19.2,-1.2 35.2,-2.3 62,-4 4.7,-0.3 9.9,-0.8 11.5,-1 1.7,-0.2 8.6,-0.7 15.5,-1 12.5,-0.5 23.9,-1.3 29.5,-2 1.7,-0.2 6.7,-0.7 11.2,-1.1 l 8.1,-0.6 5,4.6 c 2.8,2.7 6,6.9 7.3,9.9 2.4,5.1 2.4,5.7 2.7,44.5 l 0.3,39.2 h -17 -17.1 v -35.9 -36 l -2.6,-2 c -2.4,-1.9 -4,-2.1 -17,-2.1 -15.3,0 -18.5,0.7 -20.3,4.7 -0.7,1.6 -1.1,13.7 -1.1,36.8 V 576 h -16.5 -16.5 v -35.1 -35.1 l -3,-2.9 -3,-3 -15.4,0.3 c -13.5,0.3 -15.7,0.5 -17.5,2.2 -2.1,1.9 -2.1,2.6 -2.1,37.8 V 576 h -15 -15 z"
       id="path20" />
    <path
       d="M 1535,525.5 V 475 l 58.3,0.2 c 54.6,0.3 58.4,0.4 62,2.2 4.8,2.4 10.2,7.8 13,13 2.1,4 2.2,5.1 2.5,44.9 l 0.3,40.7 h -15.5 -15.5 l -0.3,-35.6 -0.3,-35.6 -2.9,-2.4 -2.8,-2.5 -31.5,0.3 -31.5,0.3 -1.9,2.4 c -1.8,2.2 -1.9,4.4 -1.9,37.7 V 576 h -16 -16 z"
       id="path22" />
    <path
       d="m 863.5,488 c -0.9,-1.5 0.7,-1.8 13,-1.8 h 12 l -9.5,0.9 c -5.2,0.4 -10.7,1 -12.2,1.3 -1.5,0.3 -3,0.1 -3.3,-0.4 z"
       id="path24" />
    <path
       d="m 896,486 c 0.8,-0.5 3.5,-0.9 6,-0.9 4.1,0.1 4.2,0.2 1.5,0.9 -1.6,0.4 -4.3,0.8 -6,0.9 -2.3,0 -2.6,-0.2 -1.5,-0.9 z"
       id="path26" />
    <path
       d="m 997.5,485 c -3.2,-0.6 -2.4,-0.7 4.3,-0.9 4.9,0 8.2,0.3 8.2,0.9 0,1.1 -6.3,1.1 -12.5,0 z"
       id="path28" />
    <path
       d="m 1060,485.2 c 0,-0.5 0.9,-1.7 2,-2.7 1.6,-1.4 2,-1.5 2,-0.4 0,1.6 -1.9,3.9 -3.2,3.9 -0.4,0 -0.8,-0.4 -0.8,-0.8 z"
       id="path30" />
    <path
       d="m 1071.5,483 c -0.3,-0.5 -0.5,-1 -0.3,-1.1 0.2,0 1.8,-0.3 3.7,-0.6 3.5,-0.5 6.1,-2.3 6.1,-4.2 0,-0.6 0.7,-1.1 1.5,-1.1 2.5,0 1.9,4.9 -0.7,5.9 -4.4,1.6 -9.6,2.2 -10.3,1.1 z"
       id="path32" />
    <path
       d="m 965,481.3 c 0.1,-2.4 1.9,-3.5 4.9,-2.8 2.3,0.5 4.3,0.1 7.2,-1.4 4.8,-2.6 6.7,-2.7 4.8,-0.4 -1.3,1.5 -1.1,1.6 2.6,1 2.2,-0.4 4.1,-1.1 4.3,-1.6 0.2,-0.5 1.2,-0.7 2.3,-0.4 1.1,0.3 7.9,-0.2 15.2,-1.1 9.4,-1.3 13.9,-1.5 15.7,-0.7 l 2.5,1 -2.5,0.2 c -1.4,0.1 -3.6,0.4 -5,0.5 -1.4,0.2 -5.6,0.6 -9.5,0.9 -3.8,0.3 -9,1 -11.5,1.6 -2.5,0.5 -7.2,1.2 -10.5,1.4 -3.3,0.3 -8.9,0.9 -12.5,1.5 -7.9,1.2 -8,1.2 -8,0.3 z"
       id="path34" />
    <path
       d="m 1093,479 c 1.1,-2 4,-2.8 4,-1 0,0.9 -3.1,3 -4.5,3 -0.3,0 -0.1,-0.9 0.5,-2 z"
       id="path36" />
    <path
       d="m 925,478.5 c 3.5,-2 5.7,-2 4,0 -0.7,0.8 -2.4,1.5 -3.9,1.5 l -2.6,-0.1 z"
       id="path38" />
    <path
       d="m 850,476.5 c -0.7,-0.8 -0.9,-1.5 -0.4,-1.5 0.5,0 0.4,-0.4 -0.2,-0.8 -0.6,-0.4 -1.5,-1.8 -1.9,-3 -0.7,-2.4 -0.7,-2.4 1.3,-0.4 1,1 2.1,3.1 2.4,4.6 0.6,3 0.5,3.1 -1.2,1.1 z"
       id="path40" />
    <path
       d="m 1033,474.1 c 0,-0.7 -1.4,-0.9 -4.2,-0.5 -3.6,0.4 -4,0.3 -2.4,-0.7 1.1,-0.6 4.9,-1.3 8.5,-1.4 3.6,-0.1 12.1,-0.9 18.9,-1.9 19.2,-2.6 40.2,-4 40.2,-2.6 0,1.2 -2.7,1.5 -24.5,3.4 -9.9,0.9 -20.2,2 -23,2.5 -12,2.2 -13.5,2.4 -13.5,1.2 z"
       id="path42" />
    <path
       d="m 1130,472.2 c 0,-0.9 6.7,-2.8 12.8,-3.7 2.6,-0.3 4.1,-0.2 3.8,0.4 -0.3,0.5 -2.9,1.2 -5.6,1.6 -2.7,0.4 -5.2,1.1 -5.6,1.6 -0.6,1.1 -5.4,1.2 -5.4,0.1 z"
       id="path44" />
    <path
       d="m 1105.3,471.3 c 0.9,-0.2 2.5,-0.2 3.5,0 0.9,0.3 0.1,0.5 -1.8,0.5 -1.9,0 -2.7,-0.2 -1.7,-0.5 z"
       id="path46" />
    <path
       d="m 1114.5,471.1 -3,-0.7 2.5,-0.7 c 3.5,-1 9,-0.9 9,0.2 0,0.8 -3.7,2.2 -5,2 -0.3,-0.1 -1.8,-0.4 -3.5,-0.8 z"
       id="path48" />
    <path
       d="m 1243.8,469.3 c 2.4,-0.8 4.6,-1.2 5,-0.8 1.1,1.1 -2.1,2.5 -5.8,2.4 l -3.5,-0.1 z"
       id="path50" />
    <path
       d="m 1216.9,467.3 c -0.8,-0.9 -0.9,-1.4 -0.2,-1 2.1,1.3 4.3,-0.4 4.3,-3.4 0,-2.7 0.3,-2.9 3.6,-2.9 2.1,0 3.3,0.4 2.9,1 -0.3,0.6 -1.3,1 -2.1,1 -0.9,0 -1.4,1.1 -1.4,3.5 0,3.2 -0.3,3.5 -2.9,3.5 -1.6,0 -3.5,-0.8 -4.2,-1.7 z"
       id="path52" />
    <path
       d="m 845.3,467.3 c 0.4,-0.3 0.1,-1.3 -0.6,-2.1 -1,-1.3 -0.9,-1.4 0.3,-1 1.9,0.6 2.6,3.8 0.9,3.8 -0.7,0 -0.9,-0.3 -0.6,-0.7 z"
       id="path54" />
    <path
       d="m 888.8,466.6 c -2,-0.6 -4.3,-1.7 -5,-2.4 -1.6,-1.6 -1,-1.5 4.3,0.3 3.2,1.1 5,1.3 7.3,0.5 1.7,-0.5 5.1,-0.8 7.6,-0.6 2.5,0.1 11.3,-0.3 19.5,-1.1 8.3,-0.8 23.3,-1.8 33.5,-2.3 10.2,-0.4 25,-1.3 33,-1.9 22.7,-1.7 61.7,-4.3 70,-4.7 13.2,-0.6 41.4,-2.4 45,-2.9 1.9,-0.3 8.5,-0.8 14.5,-1.1 6.1,-0.3 13.3,-0.7 16,-0.9 2.8,-0.2 10,-0.6 16,-0.9 6.1,-0.4 14.4,-1 18.5,-1.5 4.1,-0.5 11.1,-1 15.5,-1 4.4,-0.1 16.3,-0.8 26.5,-1.7 10.2,-0.8 26.2,-1.9 35.5,-2.4 9.4,-0.4 22.6,-1.3 29.5,-1.9 6.9,-0.6 17.5,-1.3 23.5,-1.5 6.1,-0.3 12.1,-0.7 13.5,-0.9 2.5,-0.5 17.1,-1.4 35.5,-2.3 5.5,-0.2 14.3,-0.9 19.5,-1.4 5.2,-0.6 12,-1.1 15,-1.1 3,0 10.7,-0.5 17,-1 6.3,-0.5 23.2,-1.6 37.5,-2.5 14.3,-0.8 28.3,-1.7 31,-1.9 2.8,-0.2 10.9,-0.7 18,-1.1 7.2,-0.3 13.5,-0.9 14,-1.3 0.6,-0.3 3.7,-0.7 7,-0.7 3.3,-0.1 14.3,-0.7 24.5,-1.3 10.2,-0.6 19.9,-1.1 21.5,-1 1.7,0 6.8,-0.5 11.5,-1.1 4.7,-0.5 14.1,-1.2 21,-1.5 6.9,-0.3 13.2,-0.5 14,-0.5 0.8,-0.1 6.9,-0.5 13.5,-1 6.6,-0.5 16.5,-1.2 22,-1.5 5.5,-0.3 12.9,-0.8 16.5,-1 13.9,-1 38,-2.5 48,-3 22.2,-1 22.8,-1.2 28.1,-6.6 6,-6.1 6.5,-8.9 5.4,-29.4 -1.4,-27.5 -1.8,-34.9 -1.9,-40.9 l -0.1,-5.9 9,-0.2 9,-0.3 -4.5,1.4 c -2.5,0.7 -6.2,1.4 -8.2,1.4 h -3.8 v 4.8 c 0,5.3 0.8,7.1 3,6.9 0.8,-0.1 1.6,0.3 1.7,0.8 0.1,0.6 -0.7,1 -1.9,0.9 -2.1,-0.1 -2.1,0.1 -1.2,12 0.5,6.7 0.9,19.4 0.9,28.3 0,17.9 -0.2,18.5 -7.6,24.4 -3.1,2.5 -4.6,2.9 -15.4,3.8 -6.6,0.6 -18.5,1.3 -26.5,1.6 -8,0.3 -18.1,1 -22.5,1.5 -8.4,0.9 -23.2,1.9 -37.5,2.5 -4.7,0.2 -14.6,0.8 -22,1.5 -7.4,0.6 -18,1.3 -23.5,1.4 -5.5,0.1 -15.8,0.8 -23,1.5 -7.1,0.6 -17.7,1.4 -23.5,1.6 -5.8,0.2 -13,0.7 -16,1 -4.5,0.4 -20.3,1.6 -56.5,4 -2.2,0.2 -11.2,0.6 -20,1 -8.8,0.3 -17.6,1 -19.5,1.5 -1.9,0.5 -12.5,1.2 -23.5,1.5 -11,0.4 -20.7,1.1 -21.5,1.5 -1.3,0.7 -11.9,1.3 -40.5,2.4 -4.4,0.2 -13.2,0.8 -19.5,1.5 -6.3,0.6 -16.9,1.3 -23.5,1.5 -6.6,0.2 -21.2,1 -32.5,1.9 -11.3,0.8 -21.4,1.5 -22.5,1.6 -1.1,0 -4.9,0.3 -8.5,0.6 -3.6,0.3 -17.3,1.2 -30.5,2 -13.2,0.9 -33.7,2.2 -45.5,3 -11.8,0.8 -29.1,2 -38.5,2.5 -9.3,0.6 -23.3,1.5 -31,2.1 -7.7,0.6 -17.8,1.2 -22.5,1.5 -4.7,0.2 -15.7,0.9 -24.5,1.5 -16.1,1.1 -37,2.5 -50,3.2 -3.8,0.2 -13.5,0.9 -21.5,1.4 -8,0.6 -15.8,1.1 -17.5,1.2 -1.6,0 -5.9,0.3 -9.5,0.6 -8.7,0.6 -34.2,2.5 -41,2.9 -3,0.2 -7.2,-0.1 -9.2,-0.8 z"
       id="path56" />
    <path
       d="m 1099.2,465.8 c 0.3,-0.7 2,-1.4 3.9,-1.6 l 3.4,-0.3 -2.9,1.6 c -3.4,1.8 -4.9,1.9 -4.4,0.3 z"
       id="path58" />
    <path
       d="m 1186.1,465.5 c -3,-0.8 -5.9,-1.2 -6.3,-0.9 -0.4,0.3 -1.6,0.1 -2.5,-0.5 -1.6,-0.8 -1.4,-1 1,-1.6 1.5,-0.4 3.5,-0.4 4.4,0 1,0.3 6.6,0.9 12.5,1.1 9.2,0.5 10.9,0.3 11.4,-1 0.8,-2.1 4.8,-2 6.5,0.1 1,1.2 1,1.5 0.1,0.9 -0.7,-0.4 -2.3,0.1 -3.8,1.3 -2.2,1.7 -4,2.1 -10.3,2 -4.2,-0.1 -10.1,-0.7 -13,-1.4 z"
       id="path60" />
    <path
       d="m 1351.2,465.3 c -1.8,-1.3 -6.3,-1.7 -23.7,-2 -14.5,-0.4 -22,-0.2 -22.8,0.6 -0.8,0.6 -5.8,0.9 -13.8,0.6 -16.5,-0.5 -14.4,-0.5 -31,0.1 -11.5,0.4 -14.8,0.3 -15.7,-0.8 -0.9,-1.1 0.2,-1.4 6.6,-1.4 4.2,0 12,-0.2 17.2,-0.4 5.2,-0.2 14.9,-0.4 21.5,-0.4 6.6,0 22.1,0 34.5,-0.1 20.2,-0.2 22.9,0 26.3,1.7 3.1,1.5 4.1,1.6 6,0.6 1.2,-0.6 3.5,-1.1 5,-0.9 1.5,0.1 3.4,-0.3 4.2,-0.9 1,-0.8 2.4,-0.8 5.7,0.1 2.4,0.7 4.7,1.6 5.3,2.1 1.3,1.1 -1.8,1 -5,-0.2 -1.6,-0.6 -3.2,-0.6 -4.3,-0.1 -1.9,1.1 -10.4,3.1 -12.4,3 -0.7,0 -2.3,-0.7 -3.6,-1.6 z"
       id="path62" />
    <path
       d="m 1111.5,463.5 c 2.4,-0.8 11.4,-1.1 10.9,-0.3 -0.3,0.4 -3.1,0.8 -6.2,0.7 -3.1,0 -5.2,-0.2 -4.7,-0.4 z"
       id="path64" />
    <path
       d="m 843.6,459.9 c -0.3,-1.7 -0.5,-5.5 -0.5,-8.3 0.2,-4.2 0.3,-3.8 0.9,2.9 0.9,8.5 0.7,10.7 -0.4,5.4 z"
       id="path66" />
    <path
       d="m 1148,462.1 c 0,-1.8 27.4,-2.8 28.5,-1.1 0.4,0.6 0.3,1 -0.2,0.9 -0.4,-0.1 -1,0 -1.3,0.1 -1.6,0.6 -27,0.7 -27,0.1 z"
       id="path68" />
    <path
       d="m 1238,461.2 c -4.8,-0.5 -6.4,-2.2 -1.9,-2.2 3.1,0 7,1.5 5.9,2.2 -0.3,0.2 -2.1,0.2 -4,0 z"
       id="path70" />
    <path
       d="m 1453.3,455.5 c 1.5,-1.4 4,-2.5 5.5,-2.5 2.5,0 2.4,0.1 -1.1,1.9 -6.1,3.1 -7.4,3.3 -4.4,0.6 z"
       id="path72" />
    <path
       d="m 1174.5,453 c -1.8,-0.8 -1.7,-0.9 0.7,-0.9 1.5,-0.1 3,0.4 3.3,0.9 0.7,1.2 -1.2,1.2 -4,0 z"
       id="path74" />
    <path
       d="m 1193.8,453.3 c 1.8,-0.2 4.5,-0.2 6,0 1.5,0.2 0,0.4 -3.3,0.4 -3.3,0 -4.5,-0.2 -2.7,-0.4 z"
       id="path76" />
    <path
       d="m 1464.3,453.3 c 0.9,-0.2 2.5,-0.2 3.5,0 0.9,0.3 0.1,0.5 -1.8,0.5 -1.9,0 -2.7,-0.2 -1.7,-0.5 z"
       id="path78" />
    <path
       d="m 898.1,451.4 c -4,-1.7 -3.7,-2.9 0.4,-1.4 3,1.2 22,0.7 39.5,-0.9 10.6,-1 26.7,-1.4 25.9,-0.7 -0.2,0.2 -6.5,0.7 -13.9,1 -7.4,0.3 -18,1 -23.5,1.5 -20.3,2 -24.8,2.1 -28.4,0.5 z"
       id="path80" />
    <path
       d="m 883.4,448.4 c -2.4,-5.6 -4,-14.9 -4,-22.9 l 0.1,-7 2.9,0.2 c 1.6,0.1 3.4,0.7 4,1.4 0.8,0.8 0.5,0.9 -1.3,0.4 -1.3,-0.4 -2.6,-0.3 -3,0.3 -1.2,1.9 0.7,22.6 2.4,26.6 0.9,2.1 1.4,4 1.1,4.3 -0.3,0.3 -1.2,-1.2 -2.2,-3.3 z"
       id="path82" />
    <path
       d="m 1310,450 c -1.1,-0.7 0.4,-1 4.8,-1 4,0 6.1,0.4 5.7,1 -0.8,1.3 -8.5,1.3 -10.5,0 z"
       id="path84" />
    <path
       d="m 1440.5,450 c -1.1,-0.5 -3.1,-0.6 -4.4,-0.3 -1.7,0.4 -2.2,0.2 -1.7,-0.6 0.5,-0.7 3.2,-1.1 7.9,-0.9 4,0.2 8,-0.1 9,-0.6 1.2,-0.6 1.7,-0.4 1.7,0.8 0,0.9 -0.6,1.7 -1.2,1.7 -5.5,0.6 -9.6,0.5 -11.3,-0.1 z"
       id="path86" />
    <path
       d="m 966.5,448.1 c 2.7,-1.1 36.7,-3.6 38.6,-2.8 0.7,0.3 -1,0.6 -3.9,0.6 -2.9,0.1 -9.4,0.5 -14.5,1 -16.1,1.7 -22.3,2 -20.2,1.2 z"
       id="path88" />
    <path
       d="m 1366.3,446.8 c 1.8,-0.6 4,-0.7 6.5,0 3.5,0.9 3.3,1 -2.8,1 -5.5,0 -6.1,-0.1 -3.7,-1 z"
       id="path90" />
    <path
       d="m 1574,447 c -1.2,-0.8 -1.1,-1 0.7,-1 1.2,0 2.5,0.5 2.8,1 0.8,1.3 -1.5,1.3 -3.5,0 z"
       id="path92" />
    <path
       d="m 1009.5,445 c 1.1,-0.5 3.1,-0.8 4.5,-0.8 h 2.5 l -2.5,0.8 c -1.4,0.4 -3.4,0.8 -4.5,0.8 l -2,0.1 z"
       id="path94" />
    <path
       d="m 1503,444.4 -2.5,-1.5 2.5,0.5 c 1.4,0.3 3.1,0.6 3.8,0.6 0.6,0 1.2,0.5 1.2,1 0,1.4 -2.1,1.2 -5,-0.6 z"
       id="path96" />
    <path
       d="m 1025.3,444.4 c 0.6,-0.7 22.9,-2.8 39.7,-3.7 6.4,-0.4 6.7,-0.4 2,0.3 -3,0.4 -11.3,1.2 -18.5,1.8 -7.1,0.7 -15.5,1.4 -18.4,1.7 -3,0.3 -5.2,0.3 -4.8,-0.1 z"
       id="path98" />
    <path
       d="m 1074,441 c 0,-0.8 7.2,-1.5 23.8,-2.4 4.5,-0.3 9.2,-0.8 10.5,-1.2 1.5,-0.4 1.9,-0.3 1.2,0.4 -0.6,0.6 -7.3,1.6 -15,2.2 -7.7,0.6 -15.5,1.2 -17.2,1.5 -1.8,0.2 -3.3,0 -3.3,-0.5 z"
       id="path100" />
    <path
       d="m 1114.2,440.8 c -1.7,-1.7 0.4,-3.8 3.7,-3.7 2.4,0.2 2.4,0.2 0.3,0.6 -1.7,0.3 -2.1,0.9 -1.7,2.4 0.7,2.1 -0.5,2.5 -2.3,0.7 z"
       id="path102" />
    <path
       d="m 1131.5,441 c 0.3,-0.5 1.2,-1 2,-1 0.7,0 1.6,-0.7 1.9,-1.6 0.5,-1.2 0.1,-1.4 -1.7,-0.9 -2,0.6 -2.1,0.5 -0.3,-0.6 1.1,-0.6 4.2,-1.3 7,-1.5 6.2,-0.5 35.7,-2.2 48.1,-2.9 5,-0.3 15.5,-1 23.5,-1.6 23.4,-1.6 62.6,-3.9 74,-4.4 l 10.5,-0.4 -9,0.9 c -11.5,1.1 -40.4,3.2 -43,3.1 -1.1,0 -11.7,0.7 -23.5,1.6 -21,1.6 -30.9,2.2 -36,2.4 -1.4,0 -11.9,0.5 -23.5,1.1 -21.4,1.1 -24.5,1.8 -24.5,5.5 0,0.8 -1.2,1.3 -3.1,1.3 -1.7,0 -2.8,-0.4 -2.4,-1 z"
       id="path104" />
    <path
       d="m 840.7,428.5 c -0.4,-6.6 -1.2,-17.2 -1.8,-23.5 -1.1,-12.2 -1.8,-22.8 -1.9,-29.7 V 371 l -293.7,-0.3 c -320.2,-0.3 -298.8,0.1 -322.7,-5.6 -62.9,-15 -107.5,-61.6 -118.8,-124.1 -3,-16.7 -3,-43.1 0,-59.3 6.2,-32.7 20.8,-60.5 43.3,-82.3 25.7,-24.6 54.7,-38.4 95.2,-45.2 9.5,-1.5 54.9,-1.7 655.7,-2 456.4,-0.2 649.4,0 658.9,0.8 39.2,3.2 72.4,15.8 99.4,37.8 12.7,10.4 26.4,26.7 34.3,40.8 1.9,3.5 4.1,6.7 4.7,7.1 0.7,0.5 5.7,0.8 11.2,0.8 9.9,0.1 20.5,2.4 20.5,4.6 0,0.5 0.3,0.8 0.8,0.7 1.3,-0.3 6.5,2.2 5.9,2.9 -0.4,0.3 -3.9,-0.9 -7.9,-2.8 l -7.3,-3.4 -16.5,0.1 c -9.1,0 -22.3,0.6 -29.5,1.3 -7.1,0.7 -16.8,1.4 -21.5,1.6 -4.7,0.2 -15.9,0.9 -25,1.5 -9.1,0.7 -20.3,1.3 -25,1.4 -4.7,0.2 -10.5,0.8 -12.8,1.5 -2.4,0.7 -5.7,0.9 -7.3,0.6 -1.6,-0.4 -5.3,-0.3 -8.4,0 -5,0.7 -5.5,1 -5.5,3.2 0,2.1 -0.3,2.4 -1.7,1.7 -2.5,-1.2 -68.2,-0.6 -76.2,0.7 -3.6,0.6 -14,1.2 -23.1,1.5 -9.1,0.2 -19.6,0.9 -23.5,1.4 -6.4,0.9 -15.3,1.5 -36.5,2.3 -4.1,0.2 -13.3,0.9 -20.5,1.5 -7.1,0.7 -18.4,1.4 -25,1.6 -6.6,0.2 -15.8,0.9 -20.5,1.5 -4.7,0.5 -15,1.1 -23,1.2 -8,0.1 -15.2,0.6 -16.1,1 -1.4,0.7 -7.4,1.1 -35.9,2.5 -5.8,0.2 -13,0.9 -16,1.4 -3,0.6 -7.5,1 -10,0.9 -5.9,-0.2 -25.9,0.9 -38.5,2.1 -5.5,0.5 -16.1,1.2 -23.5,1.5 -7.4,0.3 -18.9,1.1 -25.5,1.6 -6.6,0.6 -15.8,1.2 -20.5,1.4 -7.6,0.4 -21,1.2 -71,4.5 -8.5,0.6 -20.4,1.4 -26.5,1.9 -6,0.4 -12.6,0.8 -14.5,0.9 -12.2,0.2 -34.5,2.4 -35.1,3.4 -1.1,1.8 0,3 2.2,2.3 1.1,-0.4 1.9,-0.2 1.9,0.5 0,0.7 -2.4,1 -7,0.9 -4.7,-0.1 -7,-0.6 -7,-1.4 0,-0.7 1.1,-1.1 2.7,-0.9 1.8,0.2 3.3,-0.5 4.7,-2.1 1.2,-1.3 3.2,-2.5 4.6,-2.7 2.1,-0.2 1.1,-1 -5.5,-4.4 -33.4,-17.4 -75,-14.5 -104.3,7.1 -3.5,2.5 -6.2,4.8 -6,5 0.2,0.2 3.7,-0.1 7.8,-0.6 4.1,-0.5 9.1,-0.9 11,-0.9 12.2,0 33.2,-2.2 39.4,-4.1 6.1,-2 7.5,-2.1 12.6,-1.1 6.8,1.4 23.9,1.6 27.4,0.2 1.4,-0.5 3.3,-0.7 4.2,-0.3 3.8,1.4 -5,3.1 -20.1,3.7 -8.8,0.3 -22.3,1.1 -30,1.8 -7.7,0.6 -15.1,1 -16.5,1 -1.4,0 -8.6,0.4 -16,0.9 -14.7,1 -26.2,3.3 -28.1,5.5 -0.6,0.8 -2.2,1.4 -3.5,1.4 -3.3,0 -16.6,13.8 -20.3,21 -3,5.8 -5.9,16.6 -4.7,17.7 0.3,0.4 2.5,1 4.9,1.3 l 4.2,0.7 -3.4,0.8 c -2,0.5 -3.6,1.6 -3.8,2.7 -0.3,1 -1,1.8 -1.6,1.8 -0.6,0 -0.8,3.9 -0.3,11.3 0.3,6.1 0.8,16.2 1.1,22.2 0.3,6.1 1,16 1.6,22 0.5,6.1 1.2,13.9 1.3,17.5 0.2,3.6 0.4,6.7 0.5,7 0,0.3 0.3,6.5 0.5,13.8 0.2,8.5 0.7,13.7 1.5,14.5 0.7,0.7 3.2,1.1 5.7,1 2.5,-0.1 4.2,0.3 3.9,0.8 -0.4,0.5 -2.6,0.9 -5.1,0.9 -4.2,0 -4.4,0.1 -4.4,3 0,2.9 0.2,3 4.3,3.1 7.2,0.1 9.1,1.7 2,1.8 -5.3,0.1 -6.1,0.3 -5.7,1.9 0.2,0.9 0.6,7.6 0.8,14.7 0.5,18.4 2.5,38.8 3.9,39.7 0.9,0.6 0.8,0.8 -0.2,0.8 -0.9,0 -1.2,0.9 -0.8,3.3 0.3,1.7 0.2,5.7 -0.2,8.7 -0.6,5 -0.7,4.3 -1.4,-6.5 z m -562.5,-186.8 0.3,-69.3 43,69.3 43,69.3 H 395.3 426 V 211.5 112 h -31 -31 l -0.2,68.5 -0.3,68.6 -42.1,-68.3 -42.2,-68.3 -31.6,-0.3 L 216,112 v 98.8 c 0,54.4 0.3,99.2 0.7,99.5 0.3,0.4 14.3,0.7 31,0.7 H 278 Z M 520,244.5 V 178 h -30 -30 v 66.5 66.5 h 30 30 z m 93,19.5 c 0.6,-52.4 0.1,-49.4 8.5,-56.8 6.3,-5.5 12.8,-7.6 21.9,-7 10.3,0.7 18.3,5.6 22.9,14.2 2.2,4 2.2,4.9 2.5,50.4 l 0.3,46.2 h 29.4 29.5 v -40.7 c 0,-46.3 -0.4,-49.6 -7,-63.1 -5.8,-11.7 -14.8,-20.6 -27.2,-26.6 -12.4,-6.1 -20,-8 -32.3,-8 -16,0 -31,5.2 -42.7,14.7 l -5.7,4.6 -0.3,-6.7 -0.3,-6.7 H 583 553.5 l -0.3,65 c -0.1,35.8 0,65.6 0.3,66.3 0.3,1 6.8,1.2 29.7,1 l 29.3,-0.3 z M 819.8,244.3 820,178 h 16 16 V 168.5 159 H 836 820 V 145.5 132 h -30 -29.9 l -0.3,13.3 -0.3,13.2 -16.2,0.3 -16.3,0.2 v 9.5 9.5 l 16.3,0.2 16.2,0.3 0.3,66.3 0.2,66.2 29.8,-0.2 29.7,-0.3 z m 250.7,-63.8 c 24.3,-1.9 23.8,-2.2 -3.2,-2.4 -27.1,-0.1 -27.3,-0.1 -27.3,2 0,2 0.3,2.1 11.8,1.5 6.4,-0.3 14.9,-0.9 18.7,-1.1 z m 75,-5.1 c 4.4,-0.3 9.6,-0.8 11.5,-1.3 3.2,-0.7 2.8,-0.9 -4,-1.5 -7.3,-0.7 -15.3,0.1 -23.8,2.4 -6.1,1.6 -5.1,2.4 2.1,1.5 3.4,-0.4 9.8,-0.9 14.2,-1.1 z m 228,-15 c 15.6,-0.7 18.5,-1 24.8,-2 l 3.7,-0.6 V 134.9 112 h -29.5 -29.5 v 24.9 25 l 7.8,-0.4 c 4.2,-0.2 14.5,-0.7 22.7,-1.1 z M 520,131.5 V 111 h -30 -30 v 20.5 20.5 h 30 30 z m 1060.4,10.9 c 0.8,-7 3.4,-12.1 8.2,-16.4 5.2,-4.5 9.3,-6 16.4,-6 6.4,0 12.3,2.2 16.8,6.4 3,2.7 6.4,9.1 7.1,13.6 0.6,3.1 1,3.5 3.6,3.5 2.6,0 3,-0.3 2.8,-2.5 -1,-10.6 -6.8,-18.9 -16.7,-24 -6,-3 -7.7,-3.4 -14,-3.4 -4.9,0.1 -8.5,0.7 -11.7,2.1 -10.1,4.5 -17.5,14.6 -18.6,25.6 -0.5,4.8 -0.3,5.6 1.3,6 3.8,1 4.1,0.6 4.8,-4.9 z m 27.9,2.7 c 8.9,-1 11.8,-2.8 11.9,-7.7 0.2,-8.1 -3.6,-10.4 -17.6,-10.4 h -9.6 v 9.5 9.5 l 3.8,-0.1 c 2,0 7.2,-0.4 11.5,-0.8 z"
       id="path106" />
    <path
       d="m 1601,136 c 0,-4.6 0.2,-5 2.4,-5 6.3,0 9.9,3.8 7.6,8 -0.8,1.5 -2.1,2 -5.5,2 h -4.5 z"
       id="path108" />
    <path
       d="m 1642.6,438.1 c -0.3,-0.5 0,-1.1 0.8,-1.4 1.5,-0.6 2.6,0.1 2.6,1.5 0,1.1 -2.7,1 -3.4,-0.1 z"
       id="path110" />
    <path
       d="m 1123.5,437 c 1.7,-0.4 3.9,-0.8 5,-0.8 1.6,0 1.5,0.2 -0.5,0.8 -1.4,0.4 -3.6,0.8 -5,0.8 -2.2,0 -2.2,-0.1 0.5,-0.8 z"
       id="path112" />
    <path
       d="m 1655.7,436 c 1.3,-0.5 4.6,-1.2 7.5,-1.5 l 5.3,-0.5 -6,1.4 c -6.8,1.7 -10.1,1.9 -6.8,0.6 z"
       id="path114" />
    <path
       d="m 857.7,427.4 c -0.3,-0.5 2.3,-1 5.6,-1.2 3.4,-0.2 6.7,-0.8 7.3,-1.3 0.8,-0.6 1.4,-0.7 1.8,0 0.4,0.5 0.3,1.2 -0.1,1.4 -1.6,1 -14.1,1.9 -14.6,1.1 z"
       id="path116" />
    <path
       d="m 1298.5,426 c 0.3,-0.5 1.6,-1 2.8,-0.9 2.1,0 2.1,0.1 0.2,0.9 -2.8,1.2 -3.7,1.2 -3,0 z"
       id="path118" />
    <path
       d="m 1313.5,425.1 c 1.7,-0.5 5.8,-0.9 9.3,-1 3.9,-0.1 6.1,-0.5 5.7,-1.1 -0.4,-0.6 2.1,-1 6.7,-1.1 6.3,0 13.9,-0.4 17.3,-0.9 0.6,-0.1 2.8,0.5 5,1.4 4.3,1.6 17,2.2 17.9,0.7 0.5,-0.8 8.2,-2.6 9.8,-2.3 0.4,0.1 2.8,-0.3 5.5,-0.9 8.1,-1.7 10.4,-2 22.8,-2.5 6.5,-0.3 12.5,-1 13.2,-1.6 0.7,-0.5 1.9,-0.8 2.7,-0.5 0.8,0.3 6.8,0.2 13.3,-0.4 6.5,-0.5 16.8,-1.1 22.8,-1.4 20.8,-1 30,-1.6 40,-2.5 12.7,-1.2 18.5,-1.2 18.5,-0.1 0,0.9 -23.1,3.1 -33,3 -5.6,0 -25.6,1.3 -55.5,3.7 -4.4,0.4 -13.4,0.8 -19.9,1.1 -6.6,0.2 -12.5,0.8 -13.1,1.3 -0.6,0.5 -2,0.7 -3.2,0.4 -1.1,-0.3 -2.4,-0.1 -2.7,0.5 -0.4,0.6 -3.1,1.1 -6.1,1.1 -3,0 -6.6,0.5 -8.2,1.1 -1.5,0.6 -7.1,1.5 -12.3,1.9 -8.5,0.8 -9.9,0.7 -12.8,-1 -1.7,-1.1 -3.8,-1.8 -4.5,-1.5 -0.6,0.2 -7.7,0.9 -15.7,1.4 -8,0.6 -17.2,1.3 -20.5,1.6 -4.3,0.3 -5.1,0.2 -3,-0.4 z"
       id="path120" />
    <path
       d="m 849.3,423.3 c -2.6,-1 -1.2,-2.2 1.8,-1.6 1.7,0.3 5.5,0 8.4,-0.7 7.1,-1.7 10.9,-0.4 4.5,1.6 -4.4,1.3 -12.3,1.7 -14.7,0.7 z"
       id="path122" />
    <path
       d="m 1478,419 c 2,-1.3 5.3,-1.3 4.5,0 -0.3,0.6 -1.8,1 -3.3,1 -2.1,0 -2.4,-0.2 -1.2,-1 z"
       id="path124" />
    <path
       d="m 922.7,415.8 c -1.7,-4.4 -1.7,-4.4 4.7,-4 4.6,0.2 7,-0.1 9.9,-1.6 3.7,-2 3.7,-2 4.8,0 0.6,1.1 0.7,1.8 0.2,1.5 -0.5,-0.3 -3.7,0.1 -7.3,0.9 -3.5,0.9 -7.4,1.3 -8.6,1 -1.8,-0.5 -2.3,-0.1 -2.7,1.6 -0.3,2 -0.4,2.1 -1,0.6 z"
       id="path126" />
    <path
       d="m 1516,416.1 c 0.8,-0.6 3.3,-1.1 5.6,-1.1 2.2,0 4.5,-0.5 5.1,-1.1 0.7,-0.7 2,-0.8 3,-0.4 1.6,0.6 1.5,0.8 -0.7,1.8 -3.5,1.4 -15,2.1 -13,0.8 z"
       id="path128" />
    <path
       d="m 879.2,413.3 c -0.5,-1 -1.2,-7.2 -1.5,-13.8 -0.5,-11.2 -1.2,-22.3 -5.2,-81.5 -4.9,-72.4 -4.9,-71.9 -0.5,-78.2 5.6,-8.2 10.2,-9.2 55,-11.3 5.8,-0.3 15.2,-1 21,-1.6 5.8,-0.6 13.4,-0.9 16.9,-0.6 3.5,0.3 7.8,0.1 9.5,-0.5 1.7,-0.5 9.2,-1.1 16.6,-1.4 7.4,-0.2 15.5,-0.9 18,-1.5 2.5,-0.6 9,-0.9 14.5,-0.8 5.5,0.2 10.5,0 11.2,-0.4 0.7,-0.4 5.4,-0.9 10.5,-1.2 16.6,-0.7 25.1,-1.3 37.3,-2.4 6.6,-0.6 16.3,-1.3 21.5,-1.6 5.2,-0.2 16,-0.9 24,-1.5 8,-0.6 22.2,-1.5 31.5,-2 9.4,-0.5 23.5,-1.4 31.5,-2 8,-0.5 17.9,-1.2 22,-1.5 32.9,-2 42.4,-2.7 48.5,-3.4 3.9,-0.4 11.5,-0.9 17,-1 5.5,-0.1 14.5,-0.7 20,-1.2 11.7,-1.1 45.4,-3 53.9,-3 3.2,0 6.5,-0.4 7.5,-0.9 1.3,-0.7 58.9,-4.6 83.1,-5.6 3,-0.1 13.1,-0.7 22.3,-1.4 9.3,-0.6 17.7,-0.8 18.7,-0.5 1,0.3 2.1,0.1 2.5,-0.5 0.3,-0.5 4.1,-1 8.3,-1 4.2,0 16,-0.7 26.2,-1.5 17.8,-1.5 26.8,-2.1 45,-3 4.7,-0.2 14.8,-0.9 22.5,-1.5 7.7,-0.6 17.8,-1.3 22.5,-1.5 11.5,-0.6 25.7,-1.5 30,-2 1.9,-0.2 9.4,-0.7 16.5,-1 7.2,-0.3 19.1,-1 26.5,-1.6 12.7,-1.1 13.8,-1 18,0.9 2.5,1.2 5.9,3.6 7.5,5.4 l 3,3.3 -3,-2.6 c -1.6,-1.4 -4.9,-3.4 -7.2,-4.4 -3.9,-1.6 -5.3,-1.7 -16.5,-0.6 -6.8,0.6 -17.2,1.3 -23.3,1.6 -6,0.3 -17.7,1 -26,1.7 -8.2,0.6 -16.3,1.1 -18,1.2 -1.6,0.1 -3.6,0.5 -4.2,0.9 -0.7,0.4 -2.2,0.3 -3.3,-0.3 -1.6,-0.9 -2.5,-0.8 -3.5,0 -0.8,0.7 -1.8,0.9 -2.3,0.6 -0.9,-0.5 -13.1,0.2 -38.7,2.3 -6.6,0.6 -18,1.3 -25.3,1.6 -7.3,0.3 -18.6,1 -25,1.6 -6.4,0.5 -14.9,1 -18.8,1 -7.7,0 -8.9,0.5 -9.7,3.4 -0.4,1.8 -0.5,1.7 -0.6,-0.3 l -0.1,-2.4 -12.7,0.7 c -7.1,0.4 -15.5,1.1 -18.8,1.6 -3.3,0.4 -13.9,1.1 -23.5,1.4 -9.6,0.3 -18.4,0.8 -19.6,1 -5.3,1.1 -27.1,2.6 -38.9,2.6 -10.8,0 -12.7,0.2 -11.3,1.3 1.5,1.1 0.8,1.3 -4.5,1.2 -6.1,-0.1 -6.2,0 -6.5,2.7 -0.4,3.3 -2.2,2.6 -2.2,-0.9 v -2.6 l -7.6,0.7 c -4.2,0.4 -11.9,0.9 -17.2,1 -5.3,0.2 -19,1 -30.4,1.9 -11.4,0.9 -21.7,1.6 -23,1.6 -4.6,-0.1 -46.5,2.9 -55.3,3.9 -4.9,0.6 -12.6,1 -17,1.1 -7.6,0 -29,1.5 -36.5,2.5 -1.9,0.2 -11.6,0.7 -21.5,1.1 -9.9,0.3 -18.3,0.8 -18.6,0.9 -1.2,0.8 -26.8,2.6 -35.9,2.7 -5.2,0 -8.6,0.3 -7.5,0.7 1,0.4 -6.6,1.1 -17,1.6 -24.7,1 -23.8,0.9 -25.1,1.7 -0.6,0.4 -4,0.6 -7.5,0.4 -3.5,-0.2 -10,0.1 -14.4,0.6 -4.4,0.5 -9.1,0.9 -10.5,0.9 -9.7,0.4 -28.9,1.9 -30.4,2.5 -1,0.4 -2.2,1.6 -2.6,2.8 -0.8,1.9 -0.9,1.9 -0.9,-0.6 -0.1,-2.7 -0.3,-2.8 -5.5,-2.8 -2.9,0 -11.8,0.6 -19.7,1.4 -7.9,0.8 -20.9,1.7 -28.7,2 -29.9,1.2 -37.2,3 -42.1,10.2 -3.4,4.9 -4.1,10.9 -3.1,24.9 0.5,6.6 1.4,20.3 2,30.5 0.6,10.2 1.7,24.4 2.5,31.5 0.8,7.2 1.4,18.3 1.4,24.8 0,6.5 0.3,12.2 0.6,12.7 0.3,0.4 0.8,5.5 1.1,11.2 1.3,24.7 1.9,37.8 1.7,37.8 -0.1,0 -0.6,-0.8 -1.1,-1.7 z"
       id="path130" />
    <path
       d="m 981.6,409.8 c -2.4,-3.5 -2.1,-8.7 0.7,-9.7 3,-1.2 5.4,-4 6.3,-7.4 0.7,-3 2.6,-4.3 4.4,-3.2 0.8,0.5 0.7,1 -0.3,1.8 -0.8,0.7 -1.8,2.2 -2.2,3.5 -0.5,1.7 -0.2,2.2 1.2,2.2 1.1,0.1 0.6,0.6 -1.4,1.5 -1.8,0.8 -3.3,2.1 -3.3,3 0,0.9 -0.9,1.5 -2.5,1.5 -2.8,0 -2.9,0.2 -1.5,4.9 1.2,4.3 0.7,4.9 -1.4,1.9 z"
       id="path132" />
    <path
       d="m 1528.4,411.1 c 0.3,-0.4 3.8,-1.1 7.8,-1.4 4,-0.3 11.8,-1.1 17.3,-1.6 5.5,-0.6 15.4,-1.3 22,-1.6 6.6,-0.3 17.4,-1 24,-1.5 11.1,-0.9 22.5,-1.5 43,-2.4 6.1,-0.3 7,-0.2 4,0.4 -3.4,0.8 -42.3,3.8 -48,3.8 -1.1,0 -5.1,0.2 -9,0.6 -7.5,0.5 -27.8,1.8 -36,2.2 -2.7,0.1 -7,0.7 -9.5,1.3 -5.5,1.2 -16.3,1.4 -15.6,0.2 z"
       id="path134" />
    <path
       d="m 911.4,409.9 c -0.6,-1.1 5.3,-7.3 7.6,-8.1 1.2,-0.4 1.5,-2.7 1.3,-13.4 -0.4,-19.1 0.9,-17.4 -13.6,-17.4 H 894.3 L 893,356.3 c -1.2,-13.4 -2.8,-44.3 -2.4,-45.1 0.1,-0.2 4.4,1 9.6,2.6 11.9,3.8 15.8,4.5 15.8,3 0,-7.4 -2.6,-25 -4.1,-28 -2.3,-4.6 -2.4,-5.9 -0.3,-5.1 1.4,0.5 1.6,0.1 1.2,-2.1 -0.5,-2.4 -0.4,-2.6 0.8,-1.4 1.6,1.5 2.7,13.4 4.4,45.3 1,18 1.8,28 2.5,30.1 0.2,0.8 4.2,1.2 11.6,1.2 12.5,0.1 18.6,0.8 19.6,2.4 0.4,0.8 -0.9,0.9 -4.3,0.3 -4.7,-0.7 -6.1,-0.7 -10.1,-0.3 -1,0.1 -5.3,-0.2 -9.6,-0.6 l -7.8,-0.7 0.6,7.8 c 0.8,8.8 1.3,17.2 1.7,28.7 0.2,7 0,8.1 -1.7,9 -1.1,0.6 -3.4,2.5 -5.2,4.3 -1.8,1.7 -3.6,2.7 -3.9,2.2 z"
       id="path136" />
    <path
       d="m 1060.7,406.6 c -1.6,-4.2 7.5,-6.3 14.3,-3.3 l 3.5,1.5 -5.8,-0.6 c -4.9,-0.4 -6.3,-0.2 -8.7,1.6 -2.2,1.7 -2.9,1.8 -3.3,0.8 z"
       id="path138" />
    <path
       d="m 1039,405 c 0,-0.5 -2.4,-1.2 -5.2,-1.6 -4.9,-0.7 -5.1,-0.8 -2.4,-1.5 1.9,-0.5 3.5,-0.4 4.3,0.3 0.9,0.7 1.7,0.7 2.7,-0.2 1.1,-0.8 2,-0.9 3.3,-0.1 1,0.6 1.2,1.1 0.6,1.1 -0.7,0 -1.3,0.7 -1.3,1.5 0,0.8 -0.4,1.5 -1,1.5 -0.5,0 -1,-0.4 -1,-1 z"
       id="path140" />
    <path
       d="m 1000,402.2 c -1.9,-0.8 -3,-1.7 -2.3,-1.9 0.7,-0.2 2,0 3,0.5 1,0.6 5.7,0.8 10.9,0.5 5,-0.3 10.4,-0.2 12,0.2 2.8,0.7 2.8,0.7 0.7,1.6 -3.7,1.4 -20.4,0.8 -24.3,-0.9 z"
       id="path142" />
    <path
       d="m 1651.6,403.1 c -0.3,-0.4 2.1,-0.9 5.2,-1 3.1,-0.1 13.5,-0.8 23.1,-1.7 9.5,-0.8 17.5,-1.3 17.8,-1.1 0.5,0.6 -7.8,1.5 -24.7,2.7 -8,0.5 -16,1.2 -17.7,1.4 -1.8,0.3 -3.5,0.1 -3.7,-0.3 z"
       id="path144" />
    <path
       d="m 971.7,401.4 c -1.6,-0.9 -2.7,-1.8 -2.4,-2.1 0.6,-0.5 6.7,2.4 6.7,3.2 0,0.8 -1.4,0.5 -4.3,-1.1 z"
       id="path146" />
    <path
       d="m 1055.7,402.4 c -1.6,-1.7 -0.5,-4.8 3,-8 2,-1.9 4.3,-3.4 5,-3.4 1.4,0 7.3,-11.3 7.3,-14 0,-0.9 0.7,-2.6 1.6,-3.8 l 1.5,-2.2 h -14.9 -14.9 l -0.6,-7.7 c -0.3,-4.3 -1,-15.2 -1.6,-24.3 -0.6,-9.1 -1.2,-19.1 -1.5,-22.2 l -0.4,-5.8 h 20.9 20.9 l 1,-2.5 c 0.9,-2.3 1.5,-2.5 6.5,-2.5 3,0 5.5,0.5 5.5,1 0,0.6 -2.2,1 -4.8,1 h -4.8 l -1.3,6.3 c -0.6,3.4 -1.4,8.5 -1.7,11.2 -0.3,2.8 -1.1,7.3 -1.8,10 -0.8,2.8 -1.4,5.9 -1.4,7 -0.1,3.9 -1.5,11 -2.4,12.2 -0.6,0.7 -0.8,2.4 -0.4,3.7 0.3,1.3 0,4.2 -0.8,6.4 -1.7,4.9 -0.8,6.2 4.6,6.2 2.1,0 3.8,0.4 3.8,1 0,1.1 -3.5,2 -6.9,1.7 -2.2,-0.2 -2.7,0.6 -5.2,7.6 -3.2,9.1 -3.5,9.5 -9.4,13.3 -3,1.8 -4.8,3.8 -5.3,5.7 -0.4,1.6 -1.1,2.5 -1.5,2.1 z"
       id="path148" />
    <path
       d="m 1117.2,399.5 c -1.3,-2.9 -0.4,-6.1 2.6,-8.9 1.2,-1 2.4,-3 2.7,-4.5 0.5,-2.4 -1.2,-12 -3,-16.3 -0.5,-1.3 -0.2,-1.8 0.8,-1.8 0.9,0 1.8,1.3 2.2,3.3 0.3,1.7 1.3,6.2 2.2,9.9 l 1.5,6.6 -3,3 c -3.9,3.9 -5.2,6.4 -4.5,9 0.7,3 -0.1,2.8 -1.5,-0.3 z"
       id="path150" />
    <path
       d="m 956,400 c 0,-0.5 1.7,-1 3.8,-1 2.7,0 3.3,0.3 2.2,1 -2,1.3 -6,1.3 -6,0 z"
       id="path152" />
    <path
       d="m 1705.5,399.3 c 5.4,-0.3 7.5,-0.9 9.5,-2.6 l 2.5,-2.2 -2.4,2.8 c -2.3,2.5 -2.9,2.7 -9.5,2.5 l -7.1,-0.2 z"
       id="path154" />
    <path
       d="m 1156.7,398.3 c -0.4,-0.3 -0.7,-1 -0.7,-1.4 0,-0.9 3.9,0.1 4.6,1.2 0.6,1 -2.9,1.2 -3.9,0.2 z"
       id="path156" />
    <path
       d="m 1040.5,396 c -1.6,-1.1 -2.5,-2 -1.9,-2 1.1,0 6.4,3.9 5.4,4 -0.3,0 -1.8,-0.9 -3.5,-2 z"
       id="path158" />
    <path
       d="m 1172.5,397.1 c -0.3,-0.5 0.4,-1.3 1.6,-1.6 2.3,-0.8 3.4,-0.1 2.4,1.4 -0.8,1.3 -3.2,1.4 -4,0.2 z"
       id="path160" />
    <path
       d="m 1236,397 c -1.2,-0.8 -0.9,-1 1.3,-1 1.6,0 2.6,0.4 2.2,1 -0.8,1.2 -1.6,1.2 -3.5,0 z"
       id="path162" />
    <path
       d="m 1251.8,397.4 c -0.5,-0.4 -0.8,-3.7 -0.8,-7.4 v -6.7 l 5.3,-2.2 c 5.6,-2.3 14.7,-8.1 14.7,-9.3 0,-0.5 -6.5,-0.8 -14.4,-0.8 h -14.3 l -0.7,-5.7 c -0.3,-3.2 -1.1,-13.9 -1.6,-23.8 -0.6,-9.9 -1.4,-22.5 -2,-28 -1.1,-11.1 -1.2,-35.7 -0.1,-39.4 0.6,-2.2 0.7,-2.1 2.5,1.5 1,2.2 3.8,6.7 6.2,10.1 12,16.8 32,27.8 52.9,29 5.1,0.3 10.4,0.3 11.9,-0.1 2.4,-0.6 2.6,-1 2.6,-6.4 0,-3.1 -0.3,-8 -0.6,-10.8 -0.6,-4.6 -0.9,-5.2 -3.9,-6.3 -4.3,-1.5 -10.1,-7.9 -11.5,-12.8 -0.7,-2.2 -1.4,-14.3 -1.7,-28.9 l -0.6,-25.2 5.9,-0.6 c 4.6,-0.5 36.8,-2.5 40.7,-2.6 0.4,0 0.7,2.9 0.7,6.5 v 6.5 h 10.5 c 6.3,0 10.5,0.4 10.5,1 0,0.6 -3.6,1 -8.7,1 -4.9,0 -12.7,0.5 -17.5,1 -4.8,0.6 -13.7,1.2 -19.9,1.5 -13.9,0.6 -16.5,1.8 -15.5,7.3 0.4,2.1 0.8,4.4 0.9,5.2 0.4,2.6 2.7,5.9 4.9,7.1 1.9,1 2,0.9 1.6,-2 -0.2,-1.7 -0.2,-3.1 0.2,-3.1 1.6,0 2.9,5.2 3.6,14.5 1.9,26.1 1.7,25 4.4,25.4 3.1,0.4 10.6,-1.4 22.9,-5.5 9.2,-3.1 11.1,-3.3 11.1,-1.4 0,1 -4.2,2.2 -13.5,3.9 -3.3,0.6 -8.3,2.2 -11.2,3.7 -4.1,2 -5.7,2.3 -7.2,1.5 -4.5,-2.5 -4.9,-1.7 -4.5,8.2 0.2,5 0.9,13.5 1.4,18.7 1,8.3 2.4,30.3 3.2,48.5 l 0.2,6 -3.7,2 c -3.7,2 -5.4,5.1 -4.8,8.8 0.4,3 -1.7,1.8 -2.4,-1.3 -0.8,-3.8 1.2,-7.2 5.4,-9 2.2,-0.9 3.1,-1.9 3.1,-3.6 0,-2.3 -0.2,-2.4 -8.7,-2.4 h -8.8 l -0.1,-5.8 c 0,-9.4 -5.6,-16.2 -13.2,-16.2 -3.8,0 -5.7,2.3 -7,8.5 -0.6,2.8 -1.3,6 -1.7,7.2 -0.7,2.1 -0.5,2.3 2.6,1.7 4.4,-0.8 2.8,0.9 -2.3,2.5 -2,0.7 -4.2,1.9 -4.9,2.8 -1.1,1.3 -1,1.8 0.6,3 1.9,1.5 1.9,1.5 -0.2,0.8 -1.6,-0.4 -3.6,0.3 -6.9,2.6 -2.6,1.8 -6.8,3.9 -9.3,4.8 l -4.6,1.7 -0.5,6.8 c -0.3,3.7 -0.8,6.4 -1.2,6 z"
       id="path164" />
    <path
       d="m 1719.6,397.2 c -0.7,-1.2 0.6,-2.7 2.7,-3 2,-0.3 2.2,0.9 0.5,2.6 -1.4,1.4 -2.5,1.5 -3.2,0.4 z"
       id="path166" />
    <path
       d="m 1094.5,395 c -0.3,-0.5 -2,-1.3 -3.7,-1.8 -1.8,-0.4 -3.3,-1.3 -3.5,-1.9 -0.6,-1.7 3,-0.5 6.3,2.2 1.6,1.4 2.6,2.4 2.2,2.5 -0.4,0 -1,-0.4 -1.3,-1 z"
       id="path168" />
    <path
       d="m 1146,393 c -1.4,-0.9 -0.7,-1.5 1.4,-1.1 0.5,0.1 0.6,-0.5 0.2,-1.4 -0.4,-1 -0.2,-1.5 0.6,-1.3 1.6,0.6 2.1,4.8 0.5,4.8 -0.6,0 -1.9,-0.5 -2.7,-1 z"
       id="path170" />
    <path
       d="m 1233,389.9 c 0,-2.4 0.3,-3 0.9,-2 0.5,0.8 2.2,2 3.8,2.8 2.5,1.2 2.6,1.3 0.4,0.9 -1.4,-0.3 -3.1,0 -3.8,0.6 -1,0.8 -1.3,0.3 -1.3,-2.3 z"
       id="path172" />
    <path
       d="m 998.7,391.3 c -3,-0.5 -2.8,-2.3 0.3,-2.3 1,0 2.5,-0.8 3.2,-1.7 1.8,-2.5 3.8,-2.7 3.8,-0.5 0,1.7 -3,5.4 -4.1,5.1 -0.2,-0.1 -1.6,-0.4 -3.2,-0.6 z"
       id="path174" />
    <path
       d="m 1138.5,390.5 -4,-1.2 5.1,-0.4 c 4.5,-0.4 5,-0.2 4.6,1.4 -0.5,1.9 -0.3,1.9 -5.7,0.2 z"
       id="path176" />
    <path
       d="m 1259.5,391 c 0.3,-0.5 1.3,-1 2.1,-1 0.8,0 1.2,0.5 0.9,1 -0.3,0.6 -1.3,1 -2.1,1 -0.8,0 -1.2,-0.4 -0.9,-1 z"
       id="path178" />
    <path
       d="m 1719,391.5 c 0,-0.3 0.6,-2.1 1.4,-4 0.8,-1.8 1.3,-5.3 1,-7.7 l -0.3,-4.3 1,4.9 c 0.8,3.9 0.7,5.5 -0.6,8.2 -1.4,3.1 -2.5,4.3 -2.5,2.9 z"
       id="path180" />
    <path
       d="m 1007,388.1 c 0,-1.6 1.8,-2.2 4.7,-1.5 2.5,0.7 2.5,0.8 0.8,1.5 -2.8,1.1 -5.5,1.1 -5.5,0 z"
       id="path182" />
    <path
       d="m 1175,388 c 0,-0.5 0.9,-1 2,-1 1.1,0 2,0.5 2,1 0,0.6 -0.9,1 -2,1 -1.1,0 -2,-0.4 -2,-1 z"
       id="path184" />
    <path
       d="m 988.5,381.5 c -0.4,-3.6 -0.5,-7.4 -0.2,-8.5 0.5,-1.9 0,-2 -6.5,-2 h -7 l 0.3,-8.5 c 0.2,-4.6 0.9,-8.9 1.5,-9.5 1.6,-1.6 4.4,-1.9 7.2,-0.9 2.3,0.9 2.3,0.8 1.7,-4.5 -1.1,-8.8 -0.6,-9.4 8,-9.8 9.2,-0.4 9.9,0.8 1.1,1.7 l -6.4,0.7 -0.4,4.2 c -0.3,2.2 -0.1,5 0.3,6.1 2.4,6.8 3,10.1 2.1,12.6 -0.7,1.7 -0.7,6.2 -0.2,12.5 1.2,12.6 1.2,12.4 0.1,12.4 -0.5,0 -1.3,-2.9 -1.6,-6.5 z"
       id="path186" />
    <path
       d="m 1378.2,382.8 -2.1,-3.3 2.4,-4.2 2.5,-4.2 -2.7,-0.3 c -2.3,-0.2 -2.9,-0.9 -3.1,-3.2 -0.2,-1.6 -0.1,-4.5 0.3,-6.4 0.6,-3.2 0.7,-3.3 2.4,-1.8 2.9,2.7 3.2,1.8 1,-3.6 -4.7,-12 -12.9,-38.6 -13,-42.3 -0.2,-4 3.9,-14.6 6,-16 0.6,-0.3 1.1,-1.3 1.1,-2.2 0,-0.8 1.3,-3.5 2.9,-5.8 1.6,-2.4 3.9,-6.5 5.1,-9.2 1.1,-2.6 2.9,-5.7 4,-6.8 4.9,-5.2 7.3,-15.8 5,-21.9 -0.5,-1.5 -0.6,-2.6 0,-2.6 0.5,0 1.2,0.9 1.5,2 0.3,1.1 1.1,2 1.6,2 0.5,0 0.9,2 0.9,4.5 0,4.9 -2.4,10.4 -8.4,19.4 -2,2.9 -3.6,6.2 -3.6,7.2 0,1.1 -1.6,4.2 -3.5,6.9 -1.9,2.7 -3.5,5.5 -3.5,6.2 0,0.6 -0.7,1.9 -1.5,2.8 -2.7,2.9 -5.4,12.4 -5,17.1 0.4,5.5 10.7,35.9 14,41.5 1.3,2.2 2.7,6.4 3.1,9.3 0.6,4.7 0.5,5.3 -1.4,5.7 -1.1,0.3 -2.8,2.3 -3.7,4.5 -1.5,3.2 -1.6,4.1 -0.5,5.4 0.7,0.9 1.1,1.8 0.8,2.1 -0.3,0.3 -1.5,-1 -2.6,-2.8 z"
       id="path188" />
    <path
       d="m 1237.6,382.1 c -1.7,-1.9 -1.6,-1.9 1.8,-0.7 4.6,1.6 5.6,2.6 2.4,2.6 -1.4,0 -3.3,-0.9 -4.2,-1.9 z"
       id="path190" />
    <path
       d="m 1745.3,380.4 c 3,-1.6 4.4,-1.4 3.2,0.5 -0.3,0.6 -1.8,1.1 -3.3,1.1 l -2.7,-0.1 z"
       id="path192" />
    <path
       d="m 1197.3,377.4 c -4.1,-4.7 -2.6,-5.6 7.2,-4.4 3.7,0.5 7.4,0.6 8.3,0.3 1,-0.4 1.3,-0.1 1,0.8 -0.3,0.8 -1.4,1.3 -2.4,1.2 -1,-0.1 -4.5,-0.5 -7.6,-0.9 -6.1,-0.7 -6.8,-0.2 -4.8,3.7 1.4,2.6 1,2.4 -1.7,-0.7 z"
       id="path194" />
    <path
       d="m 1456.5,377.7 c -0.4,-0.9 -0.5,-2.9 -0.3,-4.2 0.5,-2.4 0.3,-2.5 -5.1,-2.5 -6.8,0 -6.2,0.7 -13.7,-17.8 -3.1,-7.5 -7.5,-18.2 -9.9,-23.7 -11,-25.2 -15.7,-37.3 -16.2,-42.2 -0.5,-4.6 -0.2,-5.8 2.7,-10.5 6.6,-10.8 8.5,-13.7 9.1,-13.8 0.3,0 1.6,2.5 2.8,5.5 6.1,14.7 18.8,28.5 34.8,37.8 0.9,0.6 1,-1.8 0.7,-9.5 -0.5,-10.7 -3,-39.8 -4.1,-47.6 -0.5,-3.6 -0.3,-4.4 0.8,-4 1,0.3 1.6,3.1 2.1,9.4 0.6,8.3 1.6,23.6 1.7,27.7 0.1,1.3 1,1.7 4.4,1.8 l 4.2,0.1 -4,1 -4.1,1 0.4,7.1 c 0.1,4 1,15.5 1.9,25.7 0.8,10.2 1.7,25.1 1.9,33.2 0.5,14.5 0.4,14.7 -1.8,16 l -2.3,1.2 3,0.7 c 2.8,0.6 2.7,0.7 -1.2,0.8 -4.5,0.1 -5.2,0.8 -6.3,5.5 -0.6,2.5 -0.9,2.8 -1.5,1.3 z"
       id="path196" />
    <path
       d="m 1519,373.8 c 0,-1.8 -0.3,-4.3 -0.6,-5.4 -0.4,-1.5 0.2,-2.8 1.6,-4.2 1.8,-1.6 2.1,-2.8 1.6,-5.4 -0.3,-1.8 -0.7,-10.6 -0.8,-19.6 -0.2,-16.9 0.4,-19.9 3.6,-17.3 3.1,2.6 3.5,0.5 1.1,-4.7 -2.8,-6 -2.9,-6.6 -1.5,-5.7 0.6,0.4 2.2,2.8 3.5,5.5 2.6,5.1 3.4,11.7 1.4,10.4 -2.9,-1.8 3,6.1 6.1,8.2 6.9,4.5 12,3.7 12,-1.9 0,-1.2 0.9,-3.7 2.1,-5.6 1.8,-3 2,-4.3 1.4,-10.7 l -0.7,-7.4 3.2,-1.7 c 7.8,-4.3 15.9,-10.2 21.9,-16 5.2,-5.2 6.2,-6.7 5.9,-8.8 -0.6,-2.7 0.3,-3.2 7.1,-3.7 5.3,-0.5 4.9,1.8 -0.4,2.4 -2.5,0.3 -4.8,0.8 -5.1,1.1 -0.3,0.2 0,8.3 0.6,17.8 1.8,29.2 1.6,27.4 3.7,27.5 3.5,0.2 3.8,0.5 1.5,1.5 -2.3,0.9 -2.4,1.2 -2.1,12.7 0.4,17.7 0.5,17.1 -4.1,19 -3.9,1.6 -4,1.9 -4.1,6.7 -0.1,4.7 -0.2,4.8 -1.2,2.3 -0.6,-1.6 -1.6,-2.8 -2.3,-2.8 -1.1,0 -2.1,-5.1 -3.9,-21 -1.1,-9 -6.6,-18.8 -9.9,-17.7 -0.6,0.2 -1.6,-0.2 -2.3,-0.9 -2.9,-2.9 -9.3,2.8 -9.3,8.4 0,4 -6.6,15.5 -11.7,20.3 -2.6,2.5 -7.3,5.6 -10.3,6.9 -3,1.3 -5.7,2.6 -5.9,2.7 -0.3,0.2 -0.4,2.6 -0.2,5.3 0.1,3 -0.2,5 -0.9,5 -0.5,0 -1,-1.5 -1,-3.2 z"
       id="path198" />
    <path
       d="m 1163.5,375 c -4,-0.3 -5.4,-0.8 -4.2,-1.2 2.6,-1.1 7.9,-1 9.7,0.2 2.2,1.4 1.1,1.6 -5.5,1 z"
       id="path200" />
    <path
       d="m 1221.3,375.3 c -0.7,-0.2 -1.3,-0.8 -1.3,-1.3 0,-1 10.9,-0.1 13,1.1 1.6,0.9 -9.5,1.1 -11.7,0.2 z"
       id="path202" />
    <path
       d="m 1368.9,374 -2.4,-2.1 3.3,1.6 c 3.1,1.5 4.1,2.5 2.3,2.5 -0.5,0 -1.9,-0.9 -3.2,-2 z"
       id="path204" />
    <path
       d="m 1439.5,371.9 c -1.1,-1.7 -0.2,-1.8 2.5,-0.4 2.4,1.4 2.4,1.4 0.3,1.5 -1.2,0 -2.5,-0.5 -2.8,-1.1 z"
       id="path206" />
    <path
       d="m 959.5,371 c 0.3,-0.5 1.6,-1 2.8,-1 1.8,0 1.9,0.2 0.7,1 -2,1.3 -4.3,1.3 -3.5,0 z"
       id="path208" />
    <path
       d="m 1024.2,370.8 c 0.3,-0.7 1.3,-1.5 2.4,-1.7 1.6,-0.3 1.7,-0.1 0.5,1.3 -1.6,1.9 -3.4,2.1 -2.9,0.4 z"
       id="path210" />
    <path
       d="m 861.9,369.5 c -0.1,-0.5 -0.1,-1.3 0,-1.7 0,-0.5 -0.3,-0.8 -0.9,-0.8 -0.5,0 -1,-0.4 -1,-1 0,-0.5 1.2,-1 2.6,-1 2.1,0 2.4,0.3 1.5,1.3 -1.3,1.6 -0.5,2.7 2.1,2.7 1.1,0 1.6,0.4 1.3,1 -0.8,1.3 -5.5,0.9 -5.6,-0.5 z"
       id="path212" />
    <path
       d="m 940,368.6 c 0,-1.4 0.5,-2.8 1,-3.1 0.6,-0.4 1,0.7 1,2.4 0,1.7 -0.4,3.1 -1,3.1 -0.5,0 -1,-1.1 -1,-2.4 z"
       id="path214" />
    <path
       d="m 1152.5,370 c -0.4,-0.6 -1.5,-1 -2.6,-1 -1,0 -1.9,-0.4 -1.9,-0.9 0,-0.5 1.8,-0.8 4,-0.7 2.3,0 4,0.6 4,1.2 0,1.5 -2.8,2.6 -3.5,1.4 z"
       id="path216" />
    <path
       d="m 1176.1,366.3 c -0.6,-2.6 -2.5,-9.3 -4.1,-14.8 -5.2,-18.1 -10.9,-37.2 -11.6,-38.8 -0.5,-1.4 0.7,-1.7 9.3,-1.9 l 9.8,-0.3 0.8,-6 c 0.4,-3.3 1.8,-10.3 2.9,-15.5 3.9,-17.3 14.6,-34.2 27,-42.2 l 5.1,-3.3 -0.6,-7.2 c -0.3,-4 -0.2,-7.3 0.1,-7.3 0.4,0 5,-0.3 10.3,-0.6 l 9.6,-0.7 -1,6.1 -1,6.1 -6.6,2.1 c -20.7,6.7 -34.9,23.3 -41.1,48.1 -1.5,6 -2.5,11.1 -2.2,11.4 0.3,0.2 1.4,0.3 2.6,0 4.9,-1.1 14.6,-1.3 14.6,-0.4 0,0.6 1.4,0.7 3.4,0.4 1.8,-0.4 3.6,-0.3 3.9,0.2 0.4,0.6 2.9,0.6 5.9,0.2 2.9,-0.4 7.3,-0.7 9.8,-0.7 3.8,0 3.4,0.2 -3,1.3 -4.9,0.8 -12.5,1.1 -22.2,0.7 l -14.6,-0.5 -0.7,4.5 c -0.6,4.2 -0.1,21.1 0.9,31.8 0.6,6 3.1,17.1 4.4,19.6 0.5,1 2.1,4.2 3.5,7 l 2.5,5.1 -8.3,0.2 -8.2,0.2 z"
       id="path218" />
    <path
       d="m 1638.8,368 c -0.3,-0.8 -0.9,-3.6 -1.2,-6.2 -0.6,-4.9 0.9,-7.8 3.9,-7.8 2.6,0 5.5,-5.6 5.5,-10.4 0,-2.5 -0.2,-4.6 -0.5,-4.6 -0.3,0 -1.7,0.7 -3.1,1.6 -1.3,0.9 -2.7,1.5 -2.9,1.2 -0.6,-0.5 -2.2,-23.3 -3.5,-49.3 -0.6,-11 -1.4,-25.4 -1.9,-32 -1.3,-16.6 -0.3,-21.2 3.8,-17.3 1.1,1.1 1.2,0.7 0.9,-2.2 -0.3,-1.9 -0.9,-4.4 -1.3,-5.5 -0.8,-1.8 -0.7,-1.8 0.8,-0.7 2.7,2.3 4.5,10.2 5.2,23.2 0.8,16.8 1.1,18.3 3.8,17.4 2.2,-0.7 2.2,-0.6 0.3,1.4 -1.6,1.9 -1.9,3.7 -1.7,12.9 0,6 0.6,16.4 1.3,23.3 0.7,6.9 1.2,16 1.2,20.3 -0.2,6.5 0.1,7.7 1.5,7.7 1,0 1.2,0.3 0.5,0.8 -0.9,0.6 -3.3,8.5 -3.6,12 -0.1,0.6 -1.8,1.7 -3.9,2.2 l -3.8,1.1 -0.3,6.2 c -0.2,3.4 -0.6,5.5 -1,4.7 z"
       id="path220" />
    <path
       d="m 1092.4,366.9 c -0.8,-1.4 -0.7,-9.2 0.2,-12.1 0.3,-1 2.3,-2.3 4.5,-2.9 3.3,-1 3.9,-1.6 3.9,-4 0,-3.9 2.9,-17.2 4,-18.3 0.6,-0.6 1.5,-0.4 2.4,0.3 1.2,1 1.3,0.6 0.5,-3.1 -0.5,-2.4 -1.3,-5.2 -1.8,-6.3 -0.8,-1.9 -4.1,-13.9 -4.1,-15 0,-0.3 2.7,-0.5 6.1,-0.5 3.7,0 5.8,0.4 5.4,1 -0.3,0.6 -2.7,1 -5.2,1 -3.9,0 -4.4,0.2 -3.8,1.8 0.4,0.9 1.2,3.7 1.7,6.2 0.5,2.5 1.3,5.3 1.8,6.2 1,1.8 8.1,28.1 8.4,30.8 0.1,1.7 -5.8,2.8 -15.6,2.9 -3.9,0.1 -5.8,0.5 -5.9,1.4 -0.1,3.7 -1,11.2 -1.3,11.5 -0.2,0.2 -0.7,-0.2 -1.2,-0.9 z"
       id="path222" />
    <path
       d="m 1503,366 c -2.1,-0.7 -1.9,-0.8 1.5,-0.8 2.2,0 4.9,0.3 6,0.8 1.6,0.7 1.3,0.9 -1.5,0.8 -1.9,0 -4.6,-0.4 -6,-0.8 z"
       id="path224" />
    <path
       d="m 930.8,365.3 c 1.2,-0.2 3.2,-0.2 4.5,0 1.2,0.2 0.2,0.4 -2.3,0.4 -2.5,0 -3.5,-0.2 -2.2,-0.4 z"
       id="path226" />
    <path
       d="m 1615.2,362.9 c 0.9,-0.5 3.8,-1.2 6.5,-1.4 6.1,-0.7 2.8,1 -3.7,1.8 -3.1,0.4 -4,0.3 -2.8,-0.4 z"
       id="path228" />
    <path
       d="m 1719.2,355.9 c -0.2,-6.2 1.4,-8.7 4.5,-7.4 1.6,0.7 1.5,0.9 -0.7,1.4 -2.2,0.6 -2.6,1.4 -3.1,6.1 l -0.6,5.5 z"
       id="path230" />
    <path
       d="m 857.6,356.1 c 1.3,-1.2 9.4,-2.3 9.4,-1.2 0,1.3 -2.6,2.1 -6.8,2.1 -2.1,0 -3.2,-0.4 -2.6,-0.9 z"
       id="path232" />
    <path
       d="m 1594,351 c 1.4,-1 2.7,-1.7 2.9,-1.5 0.8,0.8 -2.2,3.5 -3.8,3.5 -1.2,0 -1,-0.5 0.9,-2 z"
       id="path234" />
    <path
       d="m 853.3,346.3 c 1.5,-0.2 3.7,-0.2 5,0 1.2,0.2 0,0.4 -2.8,0.4 -2.7,0 -3.8,-0.2 -2.2,-0.4 z"
       id="path236" />
    <path
       d="m 1716.9,341.3 c -0.1,-1 -0.3,-3.8 -0.4,-6.3 -0.1,-2.5 -0.5,-6.1 -0.8,-8 -0.4,-1.9 -0.9,-8.4 -1.2,-14.4 -0.6,-11.8 0,-13.6 4.2,-13.6 2.5,0 2.5,0 0.5,1.8 -1.2,0.9 -2.4,3.4 -2.7,5.4 -0.7,3.6 -0.6,3.7 2.7,4.1 l 3.3,0.3 -3.1,0.8 c -3.4,0.9 -3.4,0.5 -1.9,14.6 1.3,11.2 1.4,16 0.5,16.5 -0.6,0.3 -1.1,-0.2 -1.1,-1.2 z"
       id="path238" />
    <path
       d="m 1018.4,340.5 c -1.8,-1.4 -1.8,-1.4 0.7,-1.5 1.5,0 3.2,0.7 3.9,1.5 1,1.2 0.9,1.5 -0.7,1.5 -1,0 -2.8,-0.7 -3.9,-1.5 z"
       id="path240" />
    <path
       d="m 1754.4,340.6 c 2.2,-1.8 6.2,-2.1 7.1,-0.6 0.4,0.6 -0.6,1 -2.4,1 -1.6,0 -3.8,0.3 -4.8,0.6 -1.6,0.5 -1.6,0.4 0.1,-1 z"
       id="path242" />
    <path
       d="m 970,339.1 c -0.5,-1.1 -1,-4 -1,-6.4 0,-3.5 0.4,-4.6 1.8,-4.9 1.7,-0.5 1.8,-1.4 1.5,-8.4 l -0.5,-7.9 5.5,-2.8 5.5,-2.9 -0.4,-9.6 c -0.2,-5.3 -0.6,-12.3 -0.8,-15.6 -0.4,-5.1 -0.2,-5.7 1,-4.4 1.1,1.1 1.5,4.6 1.7,13.9 0.2,6.8 0.6,12.9 1,13.5 0.4,0.6 0.9,6.6 1.3,13.2 l 0.6,12 -8.2,0.8 -8.2,0.7 0.4,5.3 c 0.3,3 0.3,5.4 0.2,5.4 -0.2,0 -0.8,-0.9 -1.4,-1.9 z"
       id="path244" />
    <path
       d="m 1026.6,340.1 c -0.3,-0.5 0.5,-1.1 1.7,-1.3 1.5,-0.3 2.4,0 2.4,0.9 0,1.5 -3.3,1.8 -4.1,0.4 z"
       id="path246" />
    <path
       d="m 1121,340.4 c 0,-0.4 1.1,-1.7 2.5,-3 2.3,-2.2 2.5,-2.2 3.5,-0.5 0.7,1.5 0.4,2 -1.6,3 -2.8,1.2 -4.4,1.4 -4.4,0.5 z"
       id="path248" />
    <path
       d="m 1146.6,340.2 c -0.2,-0.4 -0.1,-1.4 0.4,-2.2 0.7,-1.1 1.1,-1.2 2.5,0 1.3,1 1.3,1.5 0.3,2.1 -1.7,1.1 -2.6,1.1 -3.2,0.1 z"
       id="path250" />
    <path
       d="m 1656.4,339.3 c 1.1,-1.2 5.6,-1.4 5.6,-0.3 0,0.5 -1.4,1 -3.2,1 -1.7,0 -2.8,-0.3 -2.4,-0.7 z"
       id="path252" />
    <path
       d="m 1132,338.1 c 0,-1.4 3.7,-2.3 6.1,-1.6 1.7,0.6 1.9,0.9 0.8,1.6 -1.9,1.2 -6.9,1.1 -6.9,0 z"
       id="path254" />
    <path
       d="m 1187,336 c -1.7,-1.1 0.7,-1.7 10.4,-2.4 5.4,-0.4 6.7,-0.3 5.8,0.6 -0.7,0.7 -3.9,1.3 -7.2,1.4 -3.2,0.1 -6.3,0.4 -6.7,0.7 -0.5,0.3 -1.5,0.2 -2.3,-0.3 z"
       id="path256" />
    <path
       d="m 1621.5,329 c -0.4,-0.6 1.1,-1 3.7,-0.9 3.6,0.1 3.9,0.2 1.8,0.9 -3.6,1.1 -4.8,1.1 -5.5,0 z"
       id="path258" />
    <path
       d="m 849.5,328 c 2.8,-1.2 5.5,-1.2 5.5,0 0,0.6 -1.7,1 -3.7,0.9 -3.1,0 -3.4,-0.2 -1.8,-0.9 z"
       id="path260" />
    <path
       d="m 1730.5,326.1 c -0.3,-1.2 -0.5,-4.1 -0.4,-6.6 0.2,-2.4 0,-4.7 -0.4,-5.1 -0.4,-0.4 -0.7,-3.7 -0.7,-7.3 0,-3.6 -0.5,-11.8 -1.1,-18.1 -0.5,-6.3 -1.2,-15.5 -1.3,-20.5 -0.6,-14.7 -1.7,-30.5 -2.7,-38.3 -1,-8.5 -1.2,-15.3 -0.3,-17.6 0.4,-1 1.8,-1.6 3.5,-1.6 3.6,0 3.8,1.6 0.4,2.4 -2.5,0.6 -2.5,0.7 -2,8.9 0.2,4.5 0.9,13.4 1.5,19.7 0.5,6.3 1.4,20.5 2,31.5 1.2,25.3 1.5,27.3 4.3,27.8 2.1,0.4 2.1,0.4 -0.1,0.6 -2.2,0.1 -2.3,0.4 -2,6.8 l 0.3,6.8 4.5,1.7 4.5,1.7 -4.4,-0.6 -4.4,-0.6 0.6,3.9 c 0.7,4.5 -0.6,8 -1.8,4.5 z"
       id="path262" />
    <path
       d="m 1659.1,324.9 c 0.8,-0.5 4.3,-0.8 7.9,-0.8 4.3,0 5.8,0.3 4.5,0.8 -2.8,1.2 -14.2,1.2 -12.4,0 z"
       id="path264" />
    <path
       d="m 1742,320 c -1,-0.6 -0.4,-0.8 2.1,-0.4 2.5,0.4 5.1,0 8.4,-1.5 6.1,-2.7 7.1,-2 1.2,0.8 -4.6,2.2 -9.2,2.7 -11.7,1.1 z"
       id="path266" />
    <path
       d="m 1680.5,318 c -0.4,-0.6 0.8,-1 2.9,-1 1.9,0 3.8,0.5 4.1,1 0.4,0.6 -0.8,1 -2.9,1 -1.9,0 -3.8,-0.4 -4.1,-1 z"
       id="path268" />
    <path
       d="m 1671.3,317.3 c 1.5,-0.2 3.7,-0.2 5,0 1.2,0.2 0,0.4 -2.8,0.4 -2.7,0 -3.8,-0.2 -2.2,-0.4 z"
       id="path270" />
    <path
       d="m 1667,311 -8.5,-0.6 9.3,-0.2 c 5.6,-0.1 9.2,0.2 9.2,0.8 0,0.6 -0.3,0.9 -0.7,0.8 -0.5,-0.1 -4.6,-0.5 -9.3,-0.8 z"
       id="path272" />
    <path
       d="m 1608.5,310.1 c -0.6,-1.1 0.9,-2.3 1.9,-1.4 0.9,0.9 0.7,2.3 -0.3,2.3 -0.6,0 -1.2,-0.4 -1.6,-0.9 z"
       id="path274" />
    <path
       d="m 1615.1,309.4 c 1.1,-1 2.4,-1.3 4.2,-0.8 4.1,1 3.2,2.4 -1.5,2.4 -3.8,0 -4.1,-0.1 -2.7,-1.6 z"
       id="path276" />
    <path
       d="m 1135.5,306.5 c -3.9,-1.2 -3.7,-1.2 4.7,-1.1 5.3,0.1 9.3,0.7 10,1.4 1.7,1.7 -9.3,1.5 -14.7,-0.3 z"
       id="path278" />
    <path
       d="m 1514.7,306.3 c -0.3,-0.5 -0.8,-3.7 -1.2,-7.3 -0.6,-5.7 -0.4,-6.8 1.5,-9.2 2,-2.7 2.1,-3.1 1,-17 -0.6,-8.3 -0.7,-16 -0.3,-18.3 0.8,-3.6 1.2,-4 4.2,-4.3 1.9,-0.2 5.4,0.4 7.8,1.3 4.6,1.8 4.7,2 4.3,9.9 -0.1,3.1 0.3,4.3 2.2,5.8 l 2.3,1.8 h -3.1 c -4.1,0 -6.4,2.7 -6.4,7.5 v 3.8 l 5.6,-0.7 c 3.6,-0.4 5.3,-0.3 4.9,0.4 -0.3,0.5 -2.1,1 -3.8,1 -5.5,0 -7.3,1 -9.6,5.1 -1.2,2.2 -3.5,4.6 -5,5.4 -3.7,1.8 -4.1,3.1 -3.4,9.9 0.5,5.1 0.2,6.8 -1,4.9 z"
       id="path280" />
    <path
       d="m 1752.6,305.1 c -0.3,-0.5 1.4,-1.1 3.9,-1.3 3.1,-0.2 4.5,0.1 4.5,0.9 0,1.5 -7.6,1.8 -8.4,0.4 z"
       id="path282" />
    <path
       d="m 1739.2,304.3 c -1.7,-0.7 -0.5,-2.3 1.9,-2.3 1.1,0 1.7,-0.4 1.4,-1 -0.3,-0.5 -0.2,-1 0.4,-1 0.9,0 3.1,3.1 3.1,4.4 0,0.7 -5,0.6 -6.8,-0.1 z"
       id="path284" />
    <path
       d="m 1101.6,302 c -1,-2.3 -6.4,-22.2 -8.5,-31.1 -1.4,-6.2 -1.5,-8.8 -0.7,-13.7 0.9,-5.5 1.2,-6.1 3.5,-6.4 2.4,-0.3 2.6,-0.7 3.1,-7 0.3,-3.6 0.7,-6.8 1,-7.1 0.3,-0.2 6.4,-0.8 13.5,-1.1 7.2,-0.4 18.4,-1.1 25,-1.6 6.6,-0.5 13,-1 14.3,-1 h 2.2 l -0.1,28.8 v 28.7 l -5.5,-16.8 c -4.1,-12.5 -6.3,-17.6 -8.6,-20.3 -1.7,-1.9 -3.7,-3.3 -4.4,-3 -0.8,0.3 -1.4,0 -1.4,-0.7 0,-0.8 -0.2,-0.9 -0.8,-0.1 -0.4,0.6 -1.6,1.1 -2.7,1 -3,-0.2 -28.4,1.4 -33.2,2 -3.7,0.5 -4.2,0.9 -4.2,3.3 0,1.4 0,5.1 0,8.1 -0.1,5.4 1.3,11.7 4.3,19.5 0.8,2.2 1.5,4.8 1.6,5.7 0,1 0.7,3.8 1.6,6.3 1.5,4.6 1.6,9.9 0,6.5 z"
       id="path286" />
    <path
       d="m 1014.8,300.8 c 1.3,-1.3 12.2,-1.2 13.6,0.2 0.7,0.7 -1.8,1 -6.9,1 -6,0 -7.6,-0.3 -6.7,-1.2 z"
       id="path288" />
    <path
       d="m 1085,298 c 0,-4.5 2.5,-14.9 4,-16.4 1.2,-1.2 0.1,9.5 -1.1,10.9 -0.5,0.5 -0.9,2.8 -0.9,5.2 0,2.4 -0.4,4.3 -1,4.3 -0.5,0 -1,-1.8 -1,-4 z"
       id="path290" />
    <path
       d="m 1109.4,297.5 c 2.2,-1.7 3.6,-1.9 3.6,-0.6 0,1 -2.4,2.1 -4.3,2.1 -0.7,0 -0.3,-0.7 0.7,-1.5 z"
       id="path292" />
    <path
       d="m 1116,297.4 c 0,-1.5 3.6,-1.8 8.9,-0.8 4.7,1 2.7,2.2 -3.4,2.2 -4,0 -5.5,-0.4 -5.5,-1.4 z"
       id="path294" />
    <path
       d="m 1611.4,298.3 c 0.4,-0.5 2.9,-0.8 5.6,-0.8 2.6,0 4.6,0.3 4.3,0.8 -0.2,0.4 -2.7,0.7 -5.5,0.7 -2.8,0 -4.8,-0.3 -4.4,-0.7 z"
       id="path296" />
    <path
       d="m 1713.7,297.4 c -0.3,-1 -0.9,-9.1 -1.2,-17.9 -0.4,-8.8 -0.9,-19.1 -1.1,-23 -0.2,-3.8 -0.6,-10.7 -0.8,-15.3 -0.3,-4.5 -1,-9 -1.5,-10 -0.9,-1.4 -1,-1.3 -1.1,1 -0.1,7.6 -8.1,38.8 -10,38.8 -0.4,0 -1.1,-1.5 -1.4,-3.3 -1,-5.2 -8.1,-19.2 -13,-25.5 -4.7,-6.1 -8.3,-9.6 -13.1,-12.6 l -3,-1.9 3.5,3.9 c 3.1,3.4 3.1,3.6 0.5,1.3 -9.9,-8.4 -19.9,-13.5 -29.6,-15 -9.5,-1.5 -12.4,-0.4 -11.4,4.4 0.8,3.5 0.8,3.5 0.6,6 -0.2,2.8 -2.1,0.9 -2.1,-2.1 -0.1,-5.3 -5.5,-8.9 -10.7,-7.2 -1.5,0.5 -12.1,1.1 -23.5,1.3 -19.3,0.4 -20.9,0.6 -23.7,2.7 -2.5,1.7 -3.1,2.9 -3.1,5.6 0,2.1 -0.4,3.3 -1,2.9 -0.5,-0.3 -1,-2.1 -1,-4 0,-3.6 2.9,-7.3 5.9,-7.7 0.9,-0.1 3,-0.3 4.6,-0.4 6.7,-0.6 12.9,-1.5 13.4,-2 0.3,-0.3 -0.9,-3.2 -2.7,-6.4 -1.7,-3.2 -3.2,-6 -3.2,-6.2 0,-0.2 1.2,-0.3 2.8,-0.3 4.6,-0.1 32.5,-1.6 35.7,-2 3.7,-0.5 13,-1.2 34.7,-2.6 9.2,-0.6 21.2,-1.4 26.5,-1.8 9.2,-0.7 16.2,-0.7 20.8,0.1 1.6,0.2 1.9,-0.2 1.8,-1.9 -0.2,-1.3 0.1,-2.3 0.7,-2.3 1.9,0 1.8,-0.4 3.5,27.5 0.3,5 1,12.2 1.6,16 0.5,3.9 1.1,14.2 1.4,23 0.3,8.8 1,20.4 1.5,25.7 0.7,6.1 0.7,10.4 0.2,11.5 -0.9,1.5 -1,1.4 -1.5,-0.3 z"
       id="path298" />
    <path
       d="m 1746,298.1 c 0,-1.1 3.9,-2.5 4.7,-1.8 0.3,0.3 0.2,1 -0.2,1.6 -0.8,1.3 -4.5,1.5 -4.5,0.2 z"
       id="path300" />
    <path
       d="m 1671,296.6 c 0,-1.7 2.7,-2.9 3.5,-1.6 0.4,0.6 2.3,1 4.3,1 2.8,0 3.3,0.3 2.2,1 -2.4,1.5 -10,1.3 -10,-0.4 z"
       id="path302" />
    <path
       d="m 1586,295.9 c 0,-1.1 2.5,-2.2 3.9,-1.7 0.6,0.1 -0.1,0.8 -1.4,1.5 -1.4,0.6 -2.5,0.7 -2.5,0.2 z"
       id="path304" />
    <path
       d="m 1355,293 c -1,-1.8 -0.9,-1.9 1.5,-0.8 2.7,1.2 3.3,2.8 1,2.8 -0.8,0 -1.9,-0.9 -2.5,-2 z"
       id="path306" />
    <path
       d="m 1273,291.6 c -0.5,-1.5 -1,-3.2 -1,-3.7 0,-0.5 -2,-5 -4.5,-9.9 -2.5,-5 -4.1,-9 -3.5,-9 0.5,0 2.4,2.9 4.1,6.5 1.6,3.5 3.4,6.7 3.9,7 1,0.6 3.3,10.6 2.5,11.3 -0.2,0.3 -0.9,-0.7 -1.5,-2.2 z"
       id="path308" />
    <path
       d="m 996.9,289.9 c 2.7,-2.2 4.3,-2.5 3.5,-0.5 -0.3,0.8 -1.7,1.6 -3.2,1.9 l -2.7,0.5 z"
       id="path310" />
    <path
       d="m 1278.5,289 c 0.3,-0.5 1.3,-1 2.1,-1 0.8,0 1.2,0.5 0.9,1 -0.3,0.6 -1.3,1 -2.1,1 -0.8,0 -1.2,-0.4 -0.9,-1 z"
       id="path312" />
    <path
       d="m 953,287 c -0.8,-0.5 -1.2,-1.1 -1,-1.4 0.8,-0.7 6,0.6 6,1.5 0,1.2 -3.1,1.1 -5,-0.1 z"
       id="path314" />
    <path
       d="m 1006.2,287.1 c -1,-0.6 -0.6,-1.1 1.5,-1.9 2.4,-0.8 3.4,-0.6 5.4,0.9 l 2.4,1.9 h -4 c -2.2,0 -4.6,-0.4 -5.3,-0.9 z"
       id="path316" />
    <path
       d="m 1277.1,281.4 c 0.8,-1 2.3,-1.4 4.1,-1.2 1.9,0.3 2.8,0 3,-1.1 0.2,-1 0.7,-0.5 1.5,1.2 l 1.3,2.7 h -5.6 c -5,0 -5.5,-0.2 -4.3,-1.6 z"
       id="path318" />
    <path
       d="m 1497.4,281.8 c 5.3,-0.6 8.3,-0.5 9,0.2 0.7,0.7 -1.8,1 -7.9,0.9 l -9,-0.2 z"
       id="path320" />
    <path
       d="m 1610.8,279.3 c 2.3,-0.2 5.9,-0.2 8,0 2,0.2 0.1,0.4 -4.3,0.4 -4.4,0 -6.1,-0.2 -3.7,-0.4 z"
       id="path322" />
    <path
       d="m 1579.6,275.8 c -0.9,-4.4 -3.4,-39 -2.9,-39.7 1.3,-1.8 2.6,8.7 4.6,36.2 0.4,5.6 -0.8,8 -1.7,3.5 z"
       id="path324" />
    <path
       d="m 903.5,272.6 c -1.8,-3.9 -1,-6.7 2.5,-8.6 1.7,-0.9 2,-2.1 2,-7.5 0,-3.5 0.4,-6.6 0.9,-6.9 0.5,-0.3 4.9,-0.9 9.8,-1.2 4.8,-0.3 14.7,-1 21.8,-1.5 7.2,-0.5 28.2,-1.2 46.8,-1.6 26.4,-0.5 33.7,-0.9 33.7,-1.9 0,-1.6 1.8,-2.1 11.3,-2.9 l 7.7,-0.7 v 9.5 9.4 l -4.4,-0.7 c -2.4,-0.3 -10.2,-0.5 -17.2,-0.2 -10.9,0.3 -13.2,0.7 -15,2.3 -2.4,2.3 -6.4,2.5 -6.4,0.4 0,-1.9 -3.4,-2 -4.9,-0.1 -0.8,1 -3,1.3 -7.8,1 -8.8,-0.5 -11.8,1.2 -11,6.2 0.8,4.6 0,4.3 -2.2,-0.8 -2.5,-5.9 -3.3,-6 -34.8,-3.4 -11.1,0.9 -20.8,1.3 -21.7,1 -2.3,-0.9 -8.5,1.5 -9.7,3.8 -0.7,1.3 -0.7,2.8 0,4.9 1.4,4 0.6,3.7 -1.4,-0.5 z"
       id="path326" />
    <path
       d="m 1110.5,270.1 c -3.1,-0.5 -3.5,-0.8 -2,-1.3 1.1,-0.4 5.4,-0.1 9.5,0.6 l 7.5,1.3 h -5.5 c -3,0 -7.3,-0.3 -9.5,-0.6 z"
       id="path328" />
    <path
       d="m 1128,270 c 0,-0.5 2.5,-1 5.6,-1 3.4,0 5.3,0.4 4.9,1 -0.3,0.6 -2.8,1 -5.6,1 -2.7,0 -4.9,-0.4 -4.9,-1 z"
       id="path330" />
    <path
       d="m 1201.6,270.2 c -0.3,-0.5 1.7,-0.8 4.5,-0.8 2.7,0 4.9,0.3 4.9,0.8 0,0.4 -2,0.8 -4.4,0.8 -2.5,0 -4.7,-0.4 -5,-0.8 z"
       id="path332" />
    <path
       d="m 1742.5,267 c -0.3,-0.5 -0.3,-1 0.2,-1.1 6.1,-0.7 10.3,-0.6 10.3,0 0,1.9 -9.4,2.9 -10.5,1.1 z"
       id="path334" />
    <path
       d="m 1539.7,259.8 c -2,-4 -4.4,-8.3 -5.3,-9.5 -0.9,-1.3 -1.3,-2.3 -0.8,-2.3 0.5,0 1.7,1.2 2.7,2.8 0.9,1.5 2.6,4.1 3.6,5.7 2.7,4.1 5.3,10.5 4.3,10.5 -0.4,0 -2.4,-3.3 -4.5,-7.2 z"
       id="path336" />
    <path
       d="m 1259,264 c -0.8,-1.6 -0.8,-1.8 0.4,-1.4 1.7,0.6 3,3.4 1.6,3.4 -0.5,0 -1.4,-0.9 -2,-2 z"
       id="path338" />
    <path
       d="m 1242.2,252 c -0.5,-1.4 -1.1,-4.8 -1.3,-7.5 -0.4,-5 -0.4,-5 3.2,-5.9 2.9,-0.7 5.2,-0.3 12.7,2.3 4.9,1.7 9.8,3.1 10.6,3.1 0.9,0 2.6,-1.5 3.7,-3.4 1.3,-2.3 2.9,-3.5 4.8,-3.8 3.3,-0.5 7.1,0.7 7.1,2.1 0,0.7 -0.9,0.7 -2.6,0 -3.8,-1.4 -6.4,-0.2 -7.1,3.2 -1,5.3 -2.3,5.4 -14,1.6 -10.2,-3.3 -16.9,-4.1 -16.8,-2.1 0.1,0.5 0.5,3 0.9,5.6 1,5.6 0.3,8.4 -1.2,4.8 z"
       id="path340" />
    <path
       d="m 1610.4,251.2 c 0.4,-0.7 1.6,-1.2 2.7,-1.2 1.1,0 2.2,-0.7 2.5,-1.5 0.9,-2.2 2.4,-1.8 2.4,0.5 0,1.4 -0.7,2 -2.4,2 -1.3,0 -3.2,0.3 -4.2,0.7 -1.2,0.4 -1.5,0.3 -1,-0.5 z"
       id="path342" />
    <path
       d="m 1653,249.1 c -2.5,-0.7 -2.4,-0.8 0.8,-1.5 1.7,-0.4 3.2,-1.2 3.2,-1.8 0,-0.6 0.6,-0.6 1.5,0.2 3.8,3.1 0.6,4.9 -5.5,3.1 z"
       id="path344" />
    <path
       d="m 841.5,248 c -0.4,-0.6 0.5,-1 2,-1 1.5,0 2.4,0.4 2,1 -0.3,0.6 -1.2,1 -2,1 -0.8,0 -1.7,-0.4 -2,-1 z"
       id="path346" />
    <path
       d="m 1379.8,243.4 c -1.3,-1.3 -0.9,-6.8 0.7,-9.1 1.3,-1.8 2.9,-2.2 11.5,-2.8 l 10,-0.7 v -6.8 -6.8 l 6.3,-0.6 c 7.7,-0.7 18.7,-1.4 18.7,-1.1 0,0.1 -0.8,2.6 -1.8,5.6 -3.7,10.8 -3.7,10.9 0.5,10.9 5.4,0 2.9,1.9 -3.5,2.7 -4.4,0.5 -5.2,0.3 -5.2,-1.1 0,-0.9 -0.8,-1.6 -1.7,-1.5 -2.9,0.1 -10,1.7 -8,1.8 0.9,0 1.7,0.6 1.7,1.1 0,1.5 -1.7,1.2 -4.5,-0.6 -2,-1.3 -4,-1.5 -11.3,-0.9 -4.9,0.4 -9.5,1.1 -10.2,1.5 -0.7,0.5 -1.6,2.7 -1.9,5 -0.3,2.3 -0.9,3.8 -1.3,3.4 z"
       id="path348" />
    <path
       d="m 1527.6,242.5 c 0.7,-1.6 0.7,-1.6 7.6,-1.8 3.5,-0.2 4.8,0.2 4.8,1.2 0,1 -1,1.2 -4.4,0.7 -2.7,-0.4 -4.7,-0.3 -5.1,0.4 -1,1.6 -3.5,1.2 -2.9,-0.5 z"
       id="path350" />
    <path
       d="m 1448,237.4 c -1.3,-3.2 -1.3,-5.4 -0.1,-5.4 0.6,0 2.2,-1.1 3.7,-2.5 1.5,-1.4 3.9,-2.5 5.3,-2.5 6.4,-0.1 21.8,-1.1 23.9,-1.6 1.9,-0.4 2.2,-1.1 2.2,-5.7 0,-8.7 -0.6,-8.4 25.5,-10 12.7,-0.7 23.1,-1.3 23.2,-1.3 0.1,0.1 0.3,3 0.5,6.6 l 0.4,6.5 h 8.6 c 4.7,0 9,0.3 9.4,0.8 0.4,0.4 -0.6,0.7 -2.2,0.8 -1.6,0 -4.5,0.2 -6.4,0.4 -1.9,0.2 -9.1,0.6 -16,1 -6.9,0.3 -12.9,1.1 -13.5,1.6 -0.5,0.6 -0.9,3.7 -0.8,7 0.1,3.3 -0.2,5.9 -0.7,5.9 -0.6,0 -1,-1 -1,-2.2 -0.1,-9.7 -3.6,-10.4 -43.3,-8.4 -10,0.5 -11.1,0.8 -14.3,3.3 -2.7,2.2 -3.3,3.3 -2.9,5.6 0.6,3.4 -0.2,3.5 -1.5,0.1 z"
       id="path352" />
    <path
       d="m 1650,231 c 0,-0.5 1.2,-1 2.6,-1 1.4,0 2.3,0.4 1.9,1 -0.3,0.6 -1.5,1 -2.6,1 -1,0 -1.9,-0.4 -1.9,-1 z"
       id="path354" />
    <path
       d="m 1752.8,229.8 c 0.9,-0.9 1.5,-0.9 2.4,0 0.9,0.9 0.7,1.2 -1.2,1.2 -1.9,0 -2.1,-0.3 -1.2,-1.2 z"
       id="path356" />
    <path
       d="m 901.3,218.8 c -1.8,-0.6 -3.3,-1.5 -3.3,-1.9 0,-1.2 0.2,-1.1 5.2,0.5 2.4,0.8 5.7,1.7 7.3,1.9 2.1,0.3 1.6,0.4 -1.5,0.4 -2.5,0.1 -6,-0.4 -7.7,-0.9 z"
       id="path358" />
    <path
       d="m 858.8,217.3 c -2,-0.5 -2.4,-2.3 -0.5,-2.3 0.6,0 2.2,-0.3 3.5,-0.6 1.3,-0.4 2.2,-0.2 2.2,0.4 0,1.5 -3.1,2.9 -5.2,2.5 z"
       id="path360" />
    <path
       d="m 885.4,215.1 c 0.8,-1.2 6.3,-2.2 8.3,-1.4 1.4,0.6 1.2,0.9 -1.2,1.4 -4.5,1 -7.7,1 -7.1,0 z"
       id="path362" />
    <path
       d="m 930.1,215.6 c 0.2,-0.2 1.8,-0.6 3.4,-1 2.2,-0.5 2.6,-0.4 1.5,0.4 -1.4,0.9 -5.9,1.5 -4.9,0.6 z"
       id="path364" />
    <path
       d="m 871.3,214.3 c 1.5,-0.2 3.7,-0.2 5,0 1.2,0.2 0,0.4 -2.8,0.4 -2.7,0 -3.8,-0.2 -2.2,-0.4 z"
       id="path366" />
    <path
       d="m 1723.1,207.8 c -0.5,-1.3 -1.1,-6.5 -1.4,-11.6 -0.4,-6 -1.3,-10.9 -2.7,-13.9 -2.3,-5.1 -2.4,-5.6 -1.1,-4.9 1.6,1 4.8,8.1 5.5,12.1 0.8,5.3 1.6,20.5 1,20.5 -0.2,0 -0.8,-1 -1.3,-2.2 z"
       id="path368" />
    <path
       d="m 1168.7,197.3 c -0.4,-0.6 1.7,-1.3 5,-1.6 5.6,-0.6 7.3,-0.3 6,0.9 -1.1,1.2 -10.4,1.7 -11,0.7 z"
       id="path370" />
    <path
       d="m 1041.6,191.1 c -0.3,-0.5 0.1,-1.1 0.9,-1.5 1.5,-0.6 2.9,0.7 1.8,1.8 -0.9,0.9 -2.1,0.8 -2.7,-0.3 z"
       id="path372" />
    <path
       d="m 1596.7,168.3 c -0.3,-0.5 0.7,-1.7 2.4,-2.7 2.8,-1.7 2.9,-1.7 2.9,0.3 0,1.2 -0.4,2.1 -0.9,2.1 -0.5,0 -1.6,0.3 -2.4,0.6 -0.8,0.3 -1.7,0.1 -2,-0.3 z"
       id="path374" />
    <path
       d="m 1740.5,154.9 c -0.4,-0.5 -1.9,-1.5 -3.3,-2.1 -1.8,-0.7 -2.2,-1.2 -1.3,-1.5 0.7,-0.3 2.5,0.6 3.9,2.1 1.5,1.4 2.4,2.6 2,2.6 -0.4,0 -1,-0.5 -1.3,-1.1 z"
       id="path376" />
  </g>
  <g
     fill="#efefef"
     id="g448"
     transform="translate(0,-1.1618028)">
    <path
       d="M 475,706.5 V 694 h 43.4 43.3 l 2.7,-2.6 c 3.6,-3.6 3.6,-8.5 0,-11.3 -2.6,-2 -3.9,-2.1 -29.8,-2.1 -14.9,0 -30,-0.5 -33.4,-1 -16.4,-2.7 -25.1,-11.7 -26,-27.1 -0.4,-6.7 -0.1,-8.4 2.1,-13.2 3,-6.5 8.9,-12.6 15.5,-15.8 l 4.7,-2.4 49.8,-0.3 49.7,-0.3 v 12.6 12.5 h -42.9 -42.8 l -2.7,2.6 c -3.6,3.6 -3.6,8.5 0,11.3 2.5,2 3.9,2.1 27.3,2.1 13.5,0 28.3,0.4 32.9,1 18.9,2.1 29.5,12.7 29.6,29.5 0.1,12.7 -7.2,22.9 -19.4,27.6 -4.7,1.8 -8.1,1.9 -54.5,1.9 H 475 Z"
       id="path380" />
    <path
       d="m 656,704.1 v -14.9 l -12.2,-0.4 c -11.4,-0.3 -12.7,-0.6 -17.6,-3.3 -6.2,-3.4 -10.7,-8.6 -13.3,-15.5 -1.7,-4.4 -1.9,-7.9 -1.9,-28.5 V 618 h 15.4 15.5 l 0.3,20.5 c 0.3,19.7 0.4,20.5 2.6,22.7 2.2,2.3 2.7,2.3 28.3,2.6 l 26,0.3 2.9,-3 3,-2.9 V 638.1 618 h 15.6 15.6 l -0.4,24.8 c -0.4,28.1 -0.5,28.8 -8.3,37.1 -6.6,7.1 -12.5,9.1 -26,9.1 H 691 v 15 15 H 673.5 656 Z"
       id="path382" />
    <path
       d="M 751,706.5 V 694 h 43.8 43.9 l 2,-2.2 c 2.8,-3.2 3.4,-5.3 2.2,-8.6 -1.7,-4.9 -3.8,-5.2 -32.7,-5.2 -35.6,0 -43.5,-1.4 -51.1,-9.1 -5.3,-5.2 -7.4,-11.1 -7.5,-20.4 -0.1,-6.2 0.4,-9.1 2.1,-12.6 2.5,-5.7 8.7,-12 14.5,-15.1 4.3,-2.3 4.4,-2.3 53.6,-2.6 l 49.2,-0.3 v 12.6 12.5 h -42.4 c -47.5,0 -46.1,-0.2 -47.2,7.2 -0.5,3 -0.2,4.1 1.9,6.2 l 2.6,2.6 h 26.3 c 29.3,0 36.3,0.7 44.1,4.3 10.8,4.9 15.9,12.6 16.5,24.8 0.5,10 -2,16 -9.4,22.8 -9,8.2 -7.9,8.1 -63.6,8.1 H 751 Z"
       id="path384" />
    <path
       d="m 928,683 c 0,-34.7 -0.1,-36.1 -2,-38 -1.9,-1.9 -3.3,-2 -21.5,-2 H 885 V 630.5 618 h 61 61 v 12.5 12.5 h -19.5 c -18.2,0 -19.6,0.1 -21.5,2 -1.9,1.9 -2,3.3 -2,38 v 36 h -18 -18 z"
       id="path386" />
    <path
       d="m 1040.7,717.6 c -6.5,-2.4 -12.8,-8.1 -16.5,-15.1 l -2.7,-5 -0.3,-39.7 -0.3,-39.8 h 57 57.1 v 12.5 12.5 h -39.4 -39.5 l -2.7,2.4 c -3.8,3.2 -3.8,9 0.1,12.3 l 2.6,2.3 h 37.5 37.4 v 8.5 8.4 l -38,0.3 c -37.2,0.3 -38,0.3 -40.1,2.4 -3,3 -3,8.6 0.1,11.9 l 2.3,2.5 h 39.9 39.8 v 12.5 12.5 h -45.2 c -35.3,-0.1 -46.1,-0.4 -49.1,-1.4 z"
       id="path388" />
    <path
       d="M 1156,668.5 V 618 h 77.3 c 86.5,0 82.7,-0.3 91.1,7.1 2.5,2.2 5.7,6.5 7.3,9.7 l 2.8,5.7 0.3,39.3 0.3,39.2 h -16.5 -16.5 l -0.3,-35.6 -0.3,-35.6 -2.8,-2.4 c -2.7,-2.3 -3.4,-2.4 -17.2,-2.4 -15.4,0 -18.6,0.7 -20.4,4.7 -0.7,1.6 -1.1,13.7 -1.1,36.8 V 719 h -16.5 -16.5 v -35.5 -35.6 l -2.5,-2.4 c -2.3,-2.4 -2.8,-2.5 -17.8,-2.5 -14.1,0 -15.7,0.2 -18.1,2.1 l -2.6,2 v 36 35.9 h -15 -15 z"
       id="path390" />
    <path
       d="m 1360,637 v -16 h -5.5 c -4.2,0 -5.5,-0.3 -5.5,-1.5 0,-1.3 2.2,-1.5 13.5,-1.5 11.3,0 13.5,0.2 13.5,1.5 0,1.2 -1.3,1.5 -5.5,1.5 h -5.5 v 16 16 h -2.5 -2.5 z"
       id="path392" />
    <path
       d="m 1381,635.4 v -17.5 l 3.2,0.3 c 3.1,0.3 3.2,0.4 7.9,14.7 2.7,7.9 5,14.6 5.3,14.8 0.2,0.2 2.6,-6.2 5.3,-14.4 4.9,-14.7 5,-14.8 8.1,-15.1 l 3.2,-0.3 v 17.5 c 0,16.9 -0.1,17.6 -2,17.6 -1.8,0 -2,-0.8 -2.2,-15.2 l -0.3,-15.3 -5.1,15 c -4.2,12.4 -5.4,15.1 -7.1,15.3 -1.9,0.3 -2.6,-1.3 -6.8,-14 -2.6,-7.9 -5.1,-14.7 -5.6,-15.2 -0.5,-0.6 -0.9,5.5 -0.9,14.2 0,12.8 -0.2,15.2 -1.5,15.2 -1.3,0 -1.5,-2.6 -1.5,-17.6 z"
       id="path394" />
    <path
       d="M 26,576 C 12.6,573.7 3.5,564.8 1.1,551.6 0.4,548.1 0,531.2 0,510.3 V 475 h 57 57 V 487.5 500 H 74.5 34.9 l -2.4,2.5 c -3.4,3.3 -3.4,8.7 0,12 l 2.4,2.5 H 72.5 110 v 8.5 8.5 H 73.4 c -37.3,0 -39.3,0.2 -42.1,3.9 -2.1,2.7 -1.5,7.9 1.2,10.6 l 2.4,2.5 H 74.5 114 v 13 13 L 72.3,576.9 C 49.3,576.8 28.5,576.4 26,576 Z"
       id="path396" />
    <path
       d="m 451.1,575.9 c -9.8,-1.6 -18,-8.2 -22.5,-17.8 -2,-4.4 -2.1,-6.4 -2.4,-43.8 L 425.9,475 h 57 57.1 v 12.5 12.5 h -39.5 -39.6 l -2.4,2.5 c -1.7,1.6 -2.5,3.5 -2.5,6 0,2.5 0.8,4.4 2.5,6 l 2.4,2.5 h 37.6 37.5 v 8.5 8.5 h -36.5 c -43.3,0 -43.5,0 -43.5,9.4 0,2.1 0.8,4 2.3,5.4 2.3,2.2 2.6,2.2 42,2.2 H 540 v 13 13 l -41.7,-0.1 c -23,-0.1 -44.3,-0.5 -47.2,-1 z"
       id="path398" />
    <path
       d="m 1424.7,576 c -5,-0.9 -11.8,-4 -15.1,-6.8 -2.9,-2.6 -7.2,-9.4 -8.4,-13.2 -1.2,-3.7 -2.1,-72.4 -1,-73.5 1,-1 16.1,-1.5 56.3,-2 34.9,-0.4 41.2,-0.7 52.8,-2 l 4.7,-0.5 v 11 11 h -40 -40.1 l -2.4,2.5 c -1.7,1.6 -2.5,3.5 -2.5,6 0,2.5 0.8,4.4 2.5,6 l 2.4,2.5 h 37.6 37.5 v 8.5 8.5 h -37.1 -37.1 l -2.9,2.9 c -3.7,3.8 -3.9,8.2 -0.4,11.6 l 2.4,2.5 h 40.1 40 v 13 13 l -42.2,-0.1 c -23.3,-0.1 -44.5,-0.5 -47.1,-0.9 z"
       id="path400" />
    <path
       d="M 137,525.5 V 475 h 57.3 57.2 l 5,2.4 c 6.4,2.9 11.2,7.7 14.1,14.1 2.4,5 2.4,5.2 2.4,44.8 V 576 h -15.5 -15.4 l -0.3,-35.6 -0.3,-35.6 -2.9,-2.4 -2.8,-2.5 -31.5,0.3 -31.5,0.3 -1.9,2.4 c -1.8,2.2 -1.9,4.4 -1.9,37.7 V 576 h -16 -16 z"
       id="path402" />
    <path
       d="m 331,540.6 c 0,-34.2 -0.1,-35.4 -2.1,-38 l -2,-2.6 H 307.4 288 V 487.5 475 h 61 61 v 12.5 12.5 h -19.5 c -18.2,0 -19.6,0.1 -21.5,2 -1.9,1.9 -2,3.3 -2,38 v 36 h -18 -18 z"
       id="path404" />
    <path
       d="m 561,525.5 v -50.6 l 52.3,0.3 52.2,0.3 5,2.7 c 6.2,3.2 12.9,10.3 15.8,16.6 1.7,3.6 2.2,6.6 2.2,13.2 0,10.4 -2.1,15.6 -9.4,23.3 l -5.1,5.3 4,3.9 c 6.7,6.6 8,10.4 8,23.8 V 576 h -15.4 -15.4 l -0.4,-11.1 C 654.3,549.1 656.2,550 624.3,550 h -25.4 l -2.4,2.5 c -2.3,2.3 -2.5,3.1 -2.5,13 V 576 H 577.5 561 Z m 91.9,-3.1 c 3.6,-4.6 2.7,-20 -1.3,-22.6 -0.6,-0.4 -12.9,-0.8 -27.3,-0.8 -22.4,0 -26.4,0.2 -27.7,1.6 -2.3,2.2 -2.9,5.5 -2.4,13.3 0.6,11.6 -0.7,11.1 30.4,11.1 h 26.3 z"
       id="path406" />
    <path
       d="m 744,540 c 0,-34.7 -0.1,-36.1 -2,-38 -1.9,-1.9 -3.3,-2 -21.5,-2 H 701 V 487.5 475 h 61 61 v 12.5 12.5 h -19.5 c -18.2,0 -19.6,0.1 -21.5,2 -1.9,1.9 -2,3.3 -2,38 v 36 h -18 -18 z"
       id="path408" />
    <path
       d="m 838,538.1 c 0,-42.3 0.3,-44.6 6.7,-52.1 1.9,-2.2 3.8,-4 4.2,-4 0.4,0 1.5,1.5 2.6,3.3 2.6,4.4 10.7,12.9 15.5,16.2 l 4,2.8 v 10.3 10.4 h 29 29 v -3.2 c 0,-4.5 1,-5.6 4.5,-5.5 3.1,0 24.9,-1.2 26.9,-1.6 0.8,-0.1 1.2,8.9 1.4,30.6 L 962,576 h -16 -15.9 l -0.3,-12.2 -0.3,-12.3 H 900 870.5 l -0.3,12.3 -0.3,12.2 H 854 838 Z"
       id="path410" />
    <path
       d="m 986,544.5 c 0,-29.3 0.1,-31.5 1.8,-31.6 1.8,-0.2 3.6,-0.3 21,-1.3 l 11.2,-0.7 v 32.5 32.6 h -17 -17 z"
       id="path412" />
    <path
       d="M 1042,542.5 V 509 l 2.3,0.1 c 2.4,0.2 22.5,-1 27,-1.5 l 2.7,-0.3 v 34.3 34.4 h -16 -16 z"
       id="path414" />
    <path
       d="m 1146.8,540.8 c -0.2,-19.4 -0.7,-36 -1.1,-36.9 -0.8,-1.6 1.9,-1.9 23.3,-2.2 l 9.5,-0.2 0.3,37.3 0.2,37.2 h -16 -16 z"
       id="path416" />
    <path
       d="M 1201,537.5 V 499 l 3.3,-0.1 c 5.8,-0.2 25.4,-1.4 38.7,-2.4 6.7,-0.5 24.5,-1.7 30,-2 5.5,-0.3 18.7,-1.2 31,-2.1 14.7,-1.1 20,-1.4 29,-1.9 10.4,-0.7 14.5,-1 26.5,-2 15.8,-1.4 14.7,-1.6 17.5,4 l 2.5,5 0.3,39.3 0.3,39.2 h -17 -17.1 v -35.9 -36 l -2.6,-2 c -2.4,-1.9 -4,-2.1 -17,-2.1 -15.3,0 -18.5,0.7 -20.3,4.7 -0.7,1.6 -1.1,13.7 -1.1,36.8 V 576 h -16.5 -16.5 v -35.1 -35.1 l -3,-2.9 -3,-3 -15.4,0.3 c -13.5,0.3 -15.7,0.5 -17.5,2.2 -2.1,1.9 -2.1,2.6 -2.1,37.8 V 576 h -15 -15 z"
       id="path418" />
    <path
       d="m 1535,526.5 c 0,-46.4 0.1,-49.5 1.8,-49.6 0.9,0 4.9,-0.4 8.7,-0.7 3.9,-0.4 29.3,-0.7 56.5,-0.7 46.4,0 49.7,0.1 53.3,1.9 4.8,2.4 10.2,7.8 13,13 2.1,4 2.2,5.1 2.5,44.9 l 0.3,40.7 h -15.5 -15.5 l -0.3,-35.6 -0.3,-35.6 -2.9,-2.4 -2.8,-2.5 -31.5,0.3 -31.5,0.3 -1.9,2.4 c -1.8,2.2 -1.9,4.4 -1.9,37.7 V 576 h -16 -16 z"
       id="path420" />
    <path
       d="m 1730.8,539.9 -0.3,-36.1 -2.4,-1.9 C 1726,500.2 1724,500 1706.4,500 H 1687 V 487.5 475 h 61.5 61.5 v 12.5 12.5 h -19.9 -20 l -2,2.6 c -2,2.6 -2.1,3.8 -2.1,38 V 576 h -17.5 -17.4 z"
       id="path422" />
    <path
       d="M 251.2,369.9 C 171.4,362.8 115,314.1 101.8,241 c -3,-16.7 -3,-43.1 0,-59.3 6.2,-32.7 20.8,-60.5 43.3,-82.3 25.7,-24.6 54.7,-38.4 95.2,-45.2 9.5,-1.5 54.9,-1.7 655.7,-2 456.4,-0.2 649.4,0 658.9,0.8 59.1,4.8 105.3,31.5 132.3,76.4 2.7,4.3 4.8,8.2 4.8,8.6 0,0.7 -7.7,1.3 -45.6,3.9 l -10.2,0.6 -1.1,-4.9 c -2.3,-9.8 -8.9,-17.8 -18,-21.9 -6.4,-2.9 -17.9,-2.9 -24.2,0 -10.1,4.5 -17.5,14.5 -18.6,24.8 l -0.6,5.3 -6.5,2.2 c -6,2 -8.8,2.2 -37.1,2.6 -26.9,0.3 -42,1 -68.6,2.9 -15.9,1.2 -40.6,2.8 -49.7,3.2 l -9.8,0.5 V 134.6 112 h -29.5 -29.5 v 24.9 24.9 l -11.7,0.6 c -21.4,1.2 -44.6,2.6 -58.8,3.7 -7.7,0.5 -21,1.4 -29.5,2 -8.5,0.5 -26.5,1.7 -40,2.6 -13.5,0.9 -33.9,1.7 -45.5,1.8 -16.5,0 -22.3,0.4 -27,1.7 -8.6,2.4 -30.8,3.8 -62.6,3.8 -26.8,0 -27.7,0.1 -28.2,2 -0.3,1.4 -1.4,2 -3.2,2 -1.4,0 -13.2,0.7 -26.2,1.6 l -23.6,1.6 -10.6,-5.1 c -16.1,-7.6 -25.2,-9.6 -44.1,-9.5 -12.6,0 -17.2,0.4 -24.5,2.2 -10.4,2.6 -26.6,10.2 -34.5,16.3 -3,2.3 -8.2,5.3 -11.4,6.7 -14.5,5.8 -25.3,17.5 -30.6,32.8 -2.9,8.2 -3.1,34.3 -0.6,69.9 1,14.9 2,29.9 2.2,33.5 0.5,10.4 2.5,34.3 3,36.8 l 0.4,2.2 -287.7,-0.1 c -158.3,-0.1 -292,-0.5 -297.1,-1 z m 27,-128.1 0.3,-69.2 43,69.2 42.9,69.2 H 395.2 426 V 211.5 112 h -31 -31 l -0.2,68.4 -0.3,68.5 -42.1,-68.2 -42.1,-68.2 -31.6,-0.3 L 216,112 v 99.5 99.5 h 31 31 z M 520,244.5 V 178 h -30 -30 v 66.5 66.5 h 30 30 z m 93,21 c 0,-49.9 -0.1,-48.9 6,-55.9 4.7,-5.3 12.1,-8.8 20.1,-9.4 11.7,-0.8 20.9,3.9 26.7,13.6 l 2.7,4.7 0.3,46.3 0.3,46.2 h 29.5 29.5 l -0.3,-43.7 -0.3,-43.8 -2.8,-8 c -7,-19.7 -20.3,-32.3 -41.8,-39.6 -8.2,-2.8 -10.8,-3.2 -20.4,-3.3 -6.1,-0.1 -13.5,0.5 -16.5,1.3 -8.1,1.9 -22.8,9.3 -28.2,14.1 l -4.8,4.2 v -7.1 -7.1 h -30 -30 v 66.5 66.5 h 30 30 z m 207,-21 V 178 h 16 16 V 168.5 159 H 836 820 V 145.5 132 H 789.5 759 v 13.5 13.5 h -16 -16 v 9.5 9.5 h 16 16 v 65.8 c 0,36.2 0.3,66.2 0.7,66.5 0.3,0.4 14.1,0.7 30.5,0.7 H 820 Z M 520,131.5 V 111 h -30 -30 v 20.5 20.5 h 30 30 z"
       id="path424" />
    <path
       d="m 902.1,357.3 c -0.7,-7.6 -1.5,-20.4 -1.9,-28.4 l -0.7,-14.6 6.8,1.8 c 3.8,1 7,1.9 7.2,2.1 0.5,0.5 2.4,25.1 3.2,40.6 l 0.6,12.2 h -7 -7 z"
       id="path426" />
    <path
       d="m 1052.6,363.8 c -0.8,-8.5 -3.6,-48.5 -3.6,-51 0,-1.6 1.4,-1.8 16.5,-1.8 h 16.5 l -0.5,2.3 c -0.2,1.2 -1.6,9 -3,17.2 -1.4,8.3 -3.2,17.7 -3.9,21 -0.8,3.3 -1.7,9 -2.1,12.8 l -0.7,6.7 h -9.3 -9.3 z"
       id="path428" />
    <path
       d="m 1250.6,366.3 c -2.4,-19.2 -4.6,-73.8 -3.2,-76.2 0.5,-0.8 3.4,1.3 8.3,5.9 5.4,5 10.1,8.3 16.7,11.5 11.6,5.7 18.8,7.5 30.2,7.5 h 9.3 l 1,5.3 c 1.6,8.2 3.3,32.3 2.9,41.7 -0.3,8.4 -0.3,8.5 -3,8.8 -2.3,0.3 -2.8,-0.2 -4.2,-4.6 -3.6,-10.8 -10.6,-18.1 -18.2,-19 -7.2,-0.8 -10.7,2.8 -13.4,13.5 -0.6,2.3 -2.2,5.6 -3.6,7.3 -2.6,3 -2.7,3 -12.4,3 h -9.8 z"
       id="path430" />
    <path
       d="m 1452.1,368.9 c -1.1,-1.2 -3.9,-6.7 -6.2,-12.3 -2.3,-5.5 -6.7,-15.7 -9.6,-22.6 -14.4,-33 -15.9,-40.1 -10.7,-50.4 1.4,-2.8 2.9,-5.5 3.3,-5.9 0.4,-0.4 1.9,0.9 3.3,3 4.6,6.9 11.9,14.3 20.3,20.3 l 8.2,6 0.7,11.8 c 0.3,6.4 1.1,18.8 1.6,27.5 0.5,9.3 0.6,16.7 0,18.1 -0.7,2 -6.5,6.6 -8.3,6.6 -0.4,0 -1.5,-1 -2.6,-2.1 z"
       id="path432" />
    <path
       d="m 1574.9,338.3 c -1.8,-3.2 -5.7,-8.1 -8.7,-11 -5.8,-5.6 -7.1,-8.9 -7.2,-17.4 0,-4.3 0.3,-4.8 3.9,-7.2 2.1,-1.4 6.5,-5 9.8,-8.1 l 6,-5.5 0.7,8.7 c 2.7,35.3 2.7,45 -0.1,45.9 -0.6,0.2 -2.6,-2.2 -4.4,-5.4 z"
       id="path434" />
    <path
       d="m 1171.1,320 c -1.7,-4.3 -3.1,-8.2 -3.1,-8.5 0,-0.3 2.3,-0.5 5.1,-0.5 h 5.1 l -0.7,6.8 c -1.3,12.9 -2.2,13.2 -6.4,2.2 z"
       id="path436" />
    <path
       d="m 1149.7,257.7 c -2.6,-5.6 -4.7,-10.5 -4.7,-10.8 0,-0.7 2.9,-1.7 7.3,-2.5 l 2.7,-0.5 v 12 c 0,6.7 -0.1,12.1 -0.2,12.1 -0.2,0 -2.4,-4.6 -5.1,-10.3 z"
       id="path438" />
    <path
       d="m 1698.2,255 c -4.2,-7.6 -13.9,-19.7 -19.5,-24.3 -2.4,-2 -8.5,-6.3 -13.5,-9.7 -8.4,-5.6 -11.2,-8.9 -7.9,-9.1 0.6,0 2.1,-0.2 3.2,-0.5 1.1,-0.2 4,-0.6 6.5,-0.9 2.5,-0.4 5.6,-0.8 7,-1.1 1.4,-0.2 5.9,-0.6 10,-1 4.1,-0.3 8.9,-0.7 10.5,-0.8 5,-0.5 9.1,1.1 10.4,4 2.5,5.5 3.5,18 2.2,26.5 -1.1,7.4 -4.5,21.6 -5.3,22.4 -0.2,0.2 -1.8,-2.3 -3.6,-5.5 z"
       id="path440" />
    <path
       d="m 926.6,188 c 2.5,-1 6.8,-1.4 10.9,-1 2.4,0.2 1.9,0.4 -2,1 -2.7,0.5 -6.3,0.8 -8,0.8 -2.6,0.1 -2.7,0 -0.9,-0.8 z"
       id="path442" />
    <path
       d="m 1580.5,145.1 c -1,-1.7 1.5,-10.4 4,-14.3 9.5,-14.5 31.7,-14.3 40.8,0.3 1.5,2.5 3,6.2 3.4,8.2 l 0.6,3.7 h -5.3 c -4.4,0 -5.1,-0.3 -4.6,-1.6 2.5,-6.4 0.7,-11.5 -4.5,-13.3 -1.8,-0.6 -7.6,-1.1 -13,-1.1 h -9.9 v 8.9 8.9 l -3.1,0.6 c -4.5,0.9 -7.7,0.7 -8.4,-0.3 z"
       id="path444" />
    <path
       d="m 1601,135.9 v -5.2 l 4.3,0.7 c 4.7,0.8 5.2,1.1 6.1,4.2 1,3.1 -1.8,5.4 -6.5,5.4 h -3.9 z"
       id="path446" />
  </g>
</svg>
