<svg id="Layer_1" data-name="Layer 1" xmlns="http://www.w3.org/2000/svg" viewBox="0 0 3839.9 699.70001"><path d="M1775.9,0c-62.6,0-79.1.1-92.9,13.9-8.4,7.6-10.5,15.6-10.5,27.3V118c0,11.6,2.1,20.5,10.5,28.1,13.80005,13,29.5,13.9,92.1,13.9,62.69995,0,79.1-.9,92.9-13.9,8.4-7.6,10.5-16.5,10.5-28.1V41.2c0-11.8-2.1-19.8-10.5-27.3C1854.2.1,1838.5,0,1775.9,0ZM1432.5,2.3V157.7h46.1V39.3l.69995,1.5,94.7,116.8h79.4V2.3h-46.1V120.2L1606.6,118l-94-115.7h-80.1Zm465.4,0V157.7h49V2.3ZM1947,77.9l89.1,79.7h70.79992l-101.1-79.7,89.9-75.6h-65.1Zm168.8-75.6V157.7h49V2.3Zm143.80005,0-85.7,155.4h54.30005l14.60009-26.6h96.19995l14.2,26.6h54.3l-85-155.4ZM1730.9,38.6h89.5c11,0,14.6,2.1,14.6,9.7v63.3c0,4.8-4,9-15,9h-89.1c-10.9,0-14.19995-2.2-14.19995-9V48.3C1716.7,42.9,1720,38.6,1730.9,38.6ZM2290.7,40.8,2321,97.3h-60.7Z" transform="translate(-0.1 0)" style="fill:#fff;fill-rule:evenodd"/><path d="M814.4,431.9c-42.7,0-77.6,24.7-77.6,55.7,0,31.1,34.9,56.8,77.6,56.8,43,0,77.6-25.7,77.6-56.8C892,456.5,857.5,431.9,814.4,431.9Z" transform="translate(-0.1 0)" style="fill:#e40603;fill-rule:evenodd"/><path d="M967.6,359.2v254a86.465,86.465,0,0,0,86.5,86.5H1600.3999a86.465,86.465,0,0,0,86.5-86.5V449.4h-446.5V523h323.9v88.3H1090.2V361h1117v88.3H1837.1V523h370.1V699.7h122.6001V359.2a86.465,86.465,0,0,0-86.5-86.5H1054.1A86.529,86.529,0,0,0,967.6,359.2Z" transform="translate(-0.1 0)" style="fill:#fff;fill-rule:evenodd"/><path d="M2413.2,359.2v254a86.465,86.465,0,0,0,86.5,86.5H3046a86.465,86.465,0,0,0,86.5-86.5v-1.8l-1.8-162H2686V523h322.1001v88.3H2535.80005V361H3840V272.7H2499.7A86.529,86.529,0,0,0,2413.2,359.2Z" transform="translate(-0.1 0)" style="fill:#fff;fill-rule:evenodd"/><polygon points="3317.1 523 3710.1 523 3710.1 449.4 3194.5 449.4 3196.5 699.7 3839.9 699.7 3839.9 611.3 3317.1 611.3 3317.1 523" style="fill:#fff;fill-rule:evenodd"/><path d="M530,272.8v276.4L177,315.8c-24.3-20-59.7-43.2-102.1-43.2-70.4,0-74.8,45-74.8,69.4V699.6H122.7V423L476,656.5c24.3,20,59.3,43.2,101.7,43.2,70.4,0,74.8-45,74.8-69.4V272.8Z" transform="translate(-0.1 0)" style="fill:#e40603;fill-rule:evenodd"/></svg>