<svg id="Layer_1" data-name="Layer 1" xmlns="http://www.w3.org/2000/svg" viewBox="0 0 3839 945.00499"><path d="M3335.2,829.7H502.6C263.2,831,117.8,670.5,117.8,472.5s146.6-356,384.8-357.2H3335.2002c238.10009,0,384.8,159.2,384.8,357.2S3573.30005,829.7,3335.2,829.7Z" transform="translate(0 0.00499)" style="fill:#fff"/><path d="M711.9,560.3,520.1,249.4H381V694.3H518.9V383.5l193,310.8h137.9V249.4H711.9Zm1090.4-161.7V354.7H1729.6001V294.5h-134.1v60.2h-72.69995v43.9h72.69995V694.4h134.1V398.6ZM926.2,694.4h134.1V398.6H926.2Zm0-354.7h134.1V248.2H926.2ZM3270,378.5c-107.8,0-195.5,73.9-195.5,166.7,0,91.5,87.7,166.7,195.5,166.7s195.5-73.9,195.5-166.7S3380.30005,378.5,3270,378.5Zm53.8999,228.1c0,47.6-27.6001,66.4-55.1001,66.4-26.3,0-55.10009-20.1-55.10009-66.4V481.3c0-46.4,27.60009-66.4,55.10009-66.4,26.30005,0,55.1001,18.8,55.1001,66.4V606.6ZM2900.2,413.6c-21.30005-12.5-43.8999-23.8-75.2-26.3-96.5-8.8-170.5,76.5-170.5,155.4,0,102.8,79,141.6,91.5,146.6,45.1001,21.3,102.8,21.3,154.2-11.3v17.5h131.6001V250.7H2900.2Zm0,131.6v52.6c0,45.1-31.30005,57.7-52.6001,57.7s-52.60009-12.5-52.60009-57.7V492.6c0-46.4,31.3-57.7,52.60009-57.7S2900.2,446.2,2900.2,492.6ZM1373.7,384.8c-43.9,1.3-81.5,20.1-106.5,45.1V398.6h-132.9V694.4h132.9V500.1c0-26.3,27.6-53.9,63.9-53.9s61.4,28.8,61.4,53.9V694.4h132.9V534C1525.30005,416.1,1423.80005,383.5,1373.7,384.8Zm1087.90015,0c-43.8999,1.3-81.5,20.1-106.5,45.1V398.6H2222.2002V694.4H2355V500.1c0-26.3,27.6001-53.9,63.8999-53.9,36.30005,0,61.3999,28.8,61.3999,53.9V694.4h132.89991V534C2612,416.1,2510.5,383.5,2461.6001,384.8Zm-282,162.9c0-91.5-89-167.9-198-167.9s-196.80005,73.9-196.80005,166.7c0,91.5,87.69995,166.7,196.80005,166.7,90.19995,0,166.69995-51.4,190.5-121.6h-132.9v17.5c0,53.9-35.1,66.4-55.1,66.4-20.1,0-56.4-12.5-56.4-66.4V547.7ZM1937.7,443.7c10-18.8,30.1-26.3,47.6-27.6,17.5,0,36.30005,8.8,47.6,27.6,8.80005,15,8.80005,32.6,8.80005,57.7H1930.2C1927.6,475,1927.6,458.7,1937.7,443.7ZM3520.6001,304.6c0-15-11.30005-21.3-32.6001-21.3h-30v76.5h18.8V328.5h8.80005l15,31.3h20.1001L3504.40015,326C3514.3999,322.1,3520.6001,314.6,3520.6001,304.6Zm-35,11.2h-8.80005V293.2h7.5c11.30005,0,16.30005,3.8,16.30005,11.3C3501.80005,313.3,3495.6001,315.8,3485.6001,315.8Zm0-62.6a68.71,68.71,0,0,0-68.8999,68.9c0,37.6,31.3,68.9,68.8999,68.9S3554.5,359.7,3554.5,322.1A68.71017,68.71017,0,0,0,3485.6001,253.2Zm0,124.1c-30.1001,0-55.1001-25.1-55.1001-55.1,0-30.1,25.1001-55.1,55.1001-55.1s55.1001,25.1,55.1001,55.1A54.81968,54.81968,0,0,1,3485.6001,377.3ZM3336.3999,0H501.3C201.8-1.2,0,215.6,0,473.8S200.5,945,502.6,945H3336.40015C3637.2,945,3839,732,3839,473.8,3837.7,214.3,3636-1.2,3336.3999,0ZM3335.2,829.7H502.6C263.2,831,117.8,670.5,117.8,472.5s146.6-356,384.8-357.2H3335.2002c238.10009,0,384.8,159.2,384.8,357.2S3573.30005,829.7,3335.2,829.7ZM3336.3999,0H501.3C201.8-1.2,0,215.6,0,473.8S200.5,945,502.6,945H3336.40015C3637.2,945,3839,732,3839,473.8,3837.7,214.3,3636-1.2,3336.3999,0ZM3335.2,829.7H502.6C263.2,831,117.8,670.5,117.8,472.5s146.6-356,384.8-357.2H3335.2002c238.10009,0,384.8,159.2,384.8,357.2S3573.30005,829.7,3335.2,829.7ZM3336.3999,0H501.3C201.8-1.2,0,215.6,0,473.8S200.5,945,502.6,945H3336.40015C3637.2,945,3839,732,3839,473.8,3837.7,214.3,3636-1.2,3336.3999,0ZM3335.2,829.7H502.6C263.2,831,117.8,670.5,117.8,472.5s146.6-356,384.8-357.2H3335.2002c238.10009,0,384.8,159.2,384.8,357.2S3573.30005,829.7,3335.2,829.7Z" transform="translate(0 0.00499)" style="fill:#e31e26"/></svg>