<?xml version="1.0" encoding="UTF-8" standalone="no"?>
<svg
   height="41.506474mm"
   viewBox="0 0 157.2414 57.193437"
   width="114.11338mm"
   version="1.1"
   id="svg112"
   sodipodi:docname="nmk.svg"
   inkscape:version="1.1.2 (0a00cf5339, 2022-02-04, custom)"
   xmlns:inkscape="http://www.inkscape.org/namespaces/inkscape"
   xmlns:sodipodi="http://sodipodi.sourceforge.net/DTD/sodipodi-0.dtd"
   xmlns="http://www.w3.org/2000/svg"
   xmlns:svg="http://www.w3.org/2000/svg">
  <defs
     id="defs116" />
  <sodipodi:namedview
     id="namedview114"
     pagecolor="#ffffff"
     bordercolor="#666666"
     borderopacity="1.0"
     inkscape:pageshadow="2"
     inkscape:pageopacity="0.0"
     inkscape:pagecheckerboard="0"
     inkscape:document-units="mm"
     showgrid="false"
     inkscape:zoom="1.7526236"
     inkscape:cx="215.96195"
     inkscape:cy="68.468781"
     inkscape:window-width="1920"
     inkscape:window-height="1017"
     inkscape:window-x="-8"
     inkscape:window-y="-8"
     inkscape:window-maximized="1"
     inkscape:current-layer="svg112" />
  <g
     transform="translate(-33.058094,-45.007072)"
     id="g110">
    <text
       fill="#ef00eb"
       font-family="TrasksHand"
       font-size="0.72916px"
       stroke="#0105ff"
       stroke-width="0.91145"
       x="85.712479"
       y="67.095551"
       id="text4"><tspan
         fill="#fafafa"
         fill-opacity="0.4"
         font-size="0.72916px"
         stroke="none"
         stroke-width="0.91145"
         x="85.712479"
         y="67.095551"
         id="tspan2">John Loreth 2022</tspan></text>
    <g
       stroke-linejoin="round"
       id="g108">
      <g
         id="g34">
        <path
           d="m 145.44164,45.007332 h 16.48113 v 57.192608 h -16.48113 z"
           fill="#ffffff"
           stroke-width="0.79375"
           id="path6" />
        <path
           d="m 719.24219,170.10547 -0.74024,0.002 h -93.77148 v 92.67383 30.81055 92.67578 h 93.77148 l 0.74024,0.002 -82.72071,-108.08203 z"
           fill="#ffffff"
           stroke-width="3"
           transform="scale(0.26458333)"
           id="path8" />
        <rect
           fill="#000080"
           height="15.302733"
           rx="0.24087401"
           stroke-width="0.793751"
           width="12.692972"
           x="147.3082"
           y="46.672058"
           id="rect10" />
        <rect
           fill="#0000ff"
           height="14.048033"
           rx="0.24087401"
           stroke-width="0.793751"
           width="11.428181"
           x="147.3082"
           y="47.926758"
           id="rect12" />
        <g
           stroke-width="0.79375"
           id="g22">
          <rect
             fill="#000080"
             height="9.086484"
             rx="0.24087401"
             width="12.692972"
             x="147.3082"
             y="65.378189"
             id="rect14" />
          <rect
             fill="#0000ff"
             height="7.3392529"
             rx="0.24087401"
             ry="0.24087299"
             width="11.407765"
             x="147.3082"
             y="67.12542"
             id="rect16" />
          <rect
             fill="#000080"
             height="9.086484"
             rx="0.24087401"
             width="12.692972"
             x="147.3082"
             y="81.469208"
             id="rect18" />
          <rect
             fill="#0000ff"
             height="6.9772968"
             rx="0.24087401"
             width="11.407765"
             x="147.3082"
             y="83.578392"
             id="rect20" />
        </g>
        <path
           d="m 657.54083,337.94061 -45.51779,26.027 v -57.27403 z"
           fill="#000080"
           stroke-width="3.02157"
           transform="matrix(0.25805033,0.15291133,0,0.26742163,9.23138,-100.44182)"
           id="path24" />
        <path
           d="m 647.19625,343.85562 -35.17321,20.11199 v -44.79086 z"
           fill="#0000ff"
           stroke-width="3.02157"
           transform="matrix(0.25805033,0.15291133,0,0.26742163,9.23138,-100.44182)"
           id="path26" />
        <path
           d="m 186.25673,46.845949 -19.0926,8.33e-4 V 61.95768 l 6.75711,-0.0064 z"
           fill="#000080"
           stroke-width="0.793749"
           id="path28" />
        <path
           d="m 183.87568,47.936585 -16.71155,0.0096 v 13.952401 l 5.22101,-0.01783 z"
           fill="#0000ff"
           stroke-width="0.793749"
           id="path30" />
        <path
           d="m 167.27919,65.396977 v 4.641009 l 3.88765,-4.66072 z"
           fill="#000080"
           stroke-width="0.79375"
           id="path32" />
      </g>
      <g
         stroke-width="0.79375"
         id="g74">
        <g
           fill="#ffffff"
           id="g42">
          <path
             d="m 79.953573,102.19994 h 16.81574 L 89.307632,67.155602 h -1.880557 z"
             id="path36" />
          <path
             d="M 118.66945,102.19994 105.53912,45.007331 H 93.002235 l -2.025212,8.154106 11.181437,49.038503 h 16.54127"
             id="path38" />
          <path
             d="M 140.36542,102.19994 127.23509,45.007332 h -12.53693 l -2.02522,8.154106 11.18149,49.038502 h 16.54127"
             id="path40" />
        </g>
        <path
           d="m 84.307536,90.476249 h 8.079445 L 90.53541,81.466464 h -4.322379 z"
           fill="#007e00"
           id="path44" />
        <path
           d="m 84.326866,90.476251 6.445072,-2e-6 -1.544608,-6.929983 h -3.404806 z"
           fill="#00ff00"
           id="path46" />
        <path
           d="m 87.760127,74.429946 h 1.147879 l -0.361845,-2.498973 h -0.303519 z"
           fill="#007e00"
           id="path48" />
        <path
           d="m 99.630041,81.496666 h 12.144079 c 0.13344,0 0.24087,0.240873 0.24087,0.240873 l 1.93892,8.497841 c 0.0297,0.130101 -0.10743,0.240874 -0.24087,0.240874 h -12.0889 c -0.13345,0 -0.21039,-0.110959 -0.24088,-0.240874 l -1.994099,-8.497841 c -0.03049,-0.129914 0.10743,-0.240873 0.24088,-0.240873 z"
           fill="#007e00"
           id="path50" />
        <path
           d="m 100.15921,83.613333 h 10.55658 c 0.13344,0 0.24087,0.240873 0.24087,0.240873 l 1.24698,6.381174 c 0.0256,0.130972 -0.10743,0.240874 -0.24087,0.240874 h -10.33863 c -0.13345,0 -0.21102,-0.110813 -0.24088,-0.240874 l -1.464932,-6.381174 c -0.02986,-0.13006 0.107432,-0.240873 0.240882,-0.240873 z"
           fill="#00ff00"
           id="path52" />
        <path
           d="m 95.917442,65.411445 h 12.144078 c 0.13344,0 0.24087,0.240873 0.24087,0.240873 l 1.93892,8.497841 c 0.0297,0.130101 -0.10743,0.240874 -0.24087,0.240874 H 97.911541 c -0.13345,0 -0.21039,-0.110959 -0.24088,-0.240874 l -1.994099,-8.497841 c -0.03049,-0.129914 0.10743,-0.240873 0.24088,-0.240873 z"
           fill="#007e00"
           id="path54" />
        <path
           d="m 96.446611,67.528112 h 10.556579 c 0.13344,0 0.24087,0.240873 0.24087,0.240873 l 1.24698,6.381174 c 0.0256,0.130972 -0.10743,0.240874 -0.24087,0.240874 H 97.911541 c -0.13345,0 -0.21102,-0.110813 -0.24088,-0.240874 l -1.464932,-6.381174 c -0.02986,-0.13006 0.107432,-0.240873 0.240882,-0.240873 z"
           fill="#00ff00"
           id="path56" />
        <path
           d="m 94.80771,46.738766 h 9.04508 c 0.13344,0 0.21235,0.11051 0.24087,0.240873 l 3.22411,14.741321 c 0.0285,0.130369 -0.10743,0.240874 -0.24087,0.240874 H 95.18569 c -0.133444,0 -0.240873,-0.10743 -0.240873,-0.240874 l -2.035583,-8.726609 1.657603,-6.014712 c 0.03545,-0.128648 0.107429,-0.240873 0.240873,-0.240873 z"
           fill="#007e00"
           id="path58" />
        <path
           d="m 94.417286,47.797099 h 7.801184 c 0.13344,0 0.21036,0.110961 0.24087,0.240873 l 3.21311,13.682988 c 0.0305,0.129914 -0.10743,0.240874 -0.24087,0.240874 H 95.18569 c -0.133444,0 -0.240873,-0.10743 -0.240873,-0.240874 l -2.035583,-8.726609 1.267179,-4.956379 c 0.03305,-0.129284 0.107429,-0.240873 0.240873,-0.240873 z"
           fill="#00ff00"
           id="path60" />
        <path
           d="m 121.4697,81.496666 h 12.14408 c 0.13344,0 0.24087,0.240873 0.24087,0.240873 l 1.93892,8.497841 c 0.0297,0.130101 -0.10743,0.240874 -0.24087,0.240874 h -12.0889 c -0.13345,0 -0.21039,-0.110959 -0.24088,-0.240874 l -1.99411,-8.497841 c -0.0305,-0.129914 0.10744,-0.240873 0.24089,-0.240873 z"
           fill="#007e00"
           id="path62" />
        <path
           d="m 121.99887,83.613333 h 10.55658 c 0.13344,0 0.24087,0.240873 0.24087,0.240873 l 1.24698,6.381174 c 0.0256,0.130972 -0.10743,0.240874 -0.24087,0.240874 H 123.4638 c -0.13345,0 -0.21102,-0.110813 -0.24088,-0.240874 l -1.46494,-6.381174 c -0.0299,-0.13006 0.10744,-0.240873 0.24089,-0.240873 z"
           fill="#00ff00"
           id="path64" />
        <path
           d="m 117.75708,65.411445 h 12.1441 c 0.13344,0 0.24087,0.240873 0.24087,0.240873 l 1.93892,8.497841 c 0.0297,0.130101 -0.10743,0.240874 -0.24087,0.240874 h -12.08891 c -0.13345,0 -0.21039,-0.110959 -0.24088,-0.240874 l -1.99412,-8.497841 c -0.0305,-0.129914 0.10744,-0.240873 0.24089,-0.240873 z"
           fill="#007e00"
           id="path66" />
        <path
           d="m 118.28625,67.528112 h 10.5566 c 0.13344,0 0.24087,0.240873 0.24087,0.240873 l 1.24698,6.381174 c 0.0256,0.130972 -0.10743,0.240874 -0.24087,0.240874 h -10.33864 c -0.13345,0 -0.21102,-0.110813 -0.24088,-0.240874 l -1.46495,-6.381174 c -0.0299,-0.13006 0.10744,-0.240873 0.24089,-0.240873 z"
           fill="#00ff00"
           id="path68" />
        <path
           d="m 116.64734,46.738766 h 9.04511 c 0.13344,0 0.21235,0.11051 0.24087,0.240873 l 3.22411,14.741321 c 0.0285,0.130369 -0.10743,0.240874 -0.24087,0.240874 h -11.89124 c -0.13344,0 -0.24087,-0.10743 -0.24087,-0.240874 l -2.0356,-8.726609 1.65761,-6.014712 c 0.0354,-0.128648 0.10743,-0.240873 0.24088,-0.240873 z"
           fill="#007e00"
           id="path70" />
        <path
           d="m 116.25691,47.797099 h 7.80122 c 0.13344,0 0.21036,0.110961 0.24087,0.240873 l 3.21311,13.682988 c 0.0305,0.129914 -0.10743,0.240874 -0.24087,0.240874 h -10.24592 c -0.13344,0 -0.24087,-0.10743 -0.24087,-0.240874 l -2.0356,-8.726609 1.26719,-4.956379 c 0.0331,-0.129284 0.10743,-0.240873 0.24087,-0.240873 z"
           fill="#00ff00"
           id="path72" />
      </g>
      <path
         d="M 33.074289,102.19994 H 51.881545 L 34.880782,66.817229 33.058097,67.190799 V 102.19994"
         fill="#ffffff"
         stroke-width="0.79375"
         id="path76" />
      <path
         d="m 33.058094,45.007331 v 8.374126 L 56.958827,102.19994 H 74.889811 V 93.992069 L 51.007467,45.007331 Z"
         fill="#ffffff"
         stroke-width="0.79375"
         id="path78" />
      <path
         d="M 74.921511,45.007331 V 79.680765 L 73.192552,80.314934 56.094351,45.007331 Z"
         fill="#ffffff"
         stroke-width="0.79375"
         id="path80" />
      <path
         d="m 34.846637,90.476251 h 9.173877 l -4.209386,-8.972475 h -4.878277 z"
         fill="#7f0404"
         stroke-width="0.79375"
         id="path82" />
      <path
         d="M 34.889198,90.476251 H 41.9432 l -3.41434,-6.929983 h -3.631013 z"
         fill="#ff0000"
         stroke-width="0.79375"
         id="path84" />
      <path
         d="m 34.923186,74.429948 h 1.384573 l -1.13979,-2.933036 H 34.86445 Z"
         fill="#7f0404"
         stroke-width="0.79375"
         id="path86" />
      <path
         d="m 49.147226,81.496666 h 17.443406 c 0.133444,0 0.18137,0.12143 0.240873,0.240873 l 4.233333,8.497837 c 0.0595,0.119443 -0.107429,0.240874 -0.240873,0.240874 H 53.380559 c -0.133443,0 -0.18137,-0.121431 -0.240873,-0.240874 l -4.233333,-8.497837 c -0.0595,-0.119443 0.10743,-0.240873 0.240873,-0.240873 z"
         fill="#7f0404"
         stroke-width="0.79375"
         id="path88" />
      <path
         d="m 50.239643,83.613333 h 15.035943 c 0.133444,0 0.181506,0.121362 0.240873,0.240873 l 3.169818,6.38117 c 0.05937,0.119511 -0.107429,0.240874 -0.240873,0.240874 H 53.429699 c -0.133443,0 -0.181203,-0.121514 -0.240873,-0.240874 l -3.190056,-6.38117 c -0.05967,-0.119359 0.10743,-0.240873 0.240873,-0.240873 z"
         fill="#ff0000"
         stroke-width="0.79375"
         id="path90" />
      <path
         d="m 41.239513,65.361003 h 17.443406 c 0.133444,0 0.18137,0.12143 0.240873,0.240873 l 4.233333,8.497837 c 0.0595,0.119443 -0.107429,0.240874 -0.240873,0.240874 H 45.472846 c -0.133443,0 -0.18137,-0.121431 -0.240873,-0.240874 L 40.99864,65.601876 c -0.0595,-0.119443 0.10743,-0.240873 0.240873,-0.240873 z"
         fill="#7f0404"
         stroke-width="0.79375"
         id="path92" />
      <path
         d="m 42.33193,67.47767 h 15.035943 c 0.133444,0 0.181506,0.121362 0.240873,0.240873 l 3.169818,6.38117 c 0.05937,0.119511 -0.107429,0.240874 -0.240873,0.240874 H 45.521986 c -0.133443,0 -0.181203,-0.121514 -0.240873,-0.240874 l -3.190056,-6.38117 c -0.05967,-0.119359 0.10743,-0.240873 0.240873,-0.240873 z"
         fill="#ff0000"
         stroke-width="0.79375"
         id="path94" />
      <path
         d="m 35.147163,46.816753 h 14.432171 c 0.133444,0 0.182643,0.120805 0.240874,0.240874 l 7.131647,14.70489 c 0.05823,0.120069 -0.10743,0.240873 -0.240874,0.240873 H 39.448576 c -0.133444,0 -0.203408,-0.112795 -0.240873,-0.240873 l -4.303743,-8.767347 0.0023,-5.937543 c 5.2e-5,-0.133445 0.107429,-0.240874 0.240873,-0.240874 z"
         fill="#7f0404"
         stroke-width="0.79375"
         id="path96" />
      <path
         d="m 35.147163,47.875086 h 12.844671 c 0.133444,0 0.182756,0.120751 0.240874,0.240874 l 6.60248,13.646557 c 0.05812,0.120123 -0.10743,0.240873 -0.240874,0.240873 H 39.448576 c -0.133444,0 -0.203408,-0.112795 -0.240873,-0.240873 l -4.303743,-8.767347 0.0023,-4.87921 c 6.3e-5,-0.133445 0.107429,-0.240874 0.240873,-0.240874 z"
         fill="#ff0000"
         stroke-width="0.79375"
         id="path98" />
      <path
         d="M 72.968124,46.858285 V 61.932528 H 66.218622 L 59.025387,46.864619 Z"
         fill="#7f0404"
         stroke-width="0.79375"
         id="path100" />
      <path
         d="m 71.668507,47.916618 v 14.01591 H 66.218622 L 59.501385,47.922952 Z"
         fill="#ff0000"
         stroke-width="0.79375"
         id="path102" />
      <path
         d="m 72.952456,65.411108 v 8.899123 h -0.690171 l -4.395716,-8.908663 z"
         fill="#7f0404"
         stroke-width="0.79375"
         id="path104" />
      <path
         d="m 71.683618,67.181873 0.02439,5.956006 -2.946185,-5.965546 z"
         fill="#ff0000"
         stroke-width="0.79375"
         id="path106" />
    </g>
  </g>
</svg>
