<?xml version="1.0" encoding="UTF-8" standalone="no"?>
<!-- Created with Inkscape (http://www.inkscape.org/) -->

<svg
   version="1.1"
   id="svg1032"
   width="1538.4565"
   height="264.4845"
   viewBox="0 0 1538.4565 264.4845"
   sodipodi:docname="test.svg"
   inkscape:version="1.1.2 (0a00cf5339, 2022-02-04, custom)"
   xmlns:inkscape="http://www.inkscape.org/namespaces/inkscape"
   xmlns:sodipodi="http://sodipodi.sourceforge.net/DTD/sodipodi-0.dtd"
   xmlns="http://www.w3.org/2000/svg"
   xmlns:svg="http://www.w3.org/2000/svg">
  <defs
     id="defs1036" />
  <sodipodi:namedview
     id="namedview1034"
     pagecolor="#ffffff"
     bordercolor="#666666"
     borderopacity="1.0"
     inkscape:pageshadow="2"
     inkscape:pageopacity="0.0"
     inkscape:pagecheckerboard="0"
     showgrid="false"
     inkscape:zoom="0.62768921"
     inkscape:cx="771.87881"
     inkscape:cy="546.44877"
     inkscape:window-width="1920"
     inkscape:window-height="1017"
     inkscape:window-x="-8"
     inkscape:window-y="-8"
     inkscape:window-maximized="1"
     inkscape:current-layer="g1038" />
  <g
     inkscape:groupmode="layer"
     inkscape:label="Image"
     id="g1038"
     transform="translate(-46.049646,367.1051)">
    <g
       id="g1122"
       transform="translate(14.338306,-377.57539)">
      <path
         style="fill:#d7d7d7;stroke-width:0.32"
         d="m 151.68,213.70895 -4.32,-0.0416 -3.75769,-0.25432 -3.75769,-0.25431 -3.60231,-0.52563 -3.60231,-0.52562 -2.72,-0.62025 -2.72,-0.62025 -3.04,-0.98726 -3.04,-0.98725 -2.77321,-1.37136 -2.77321,-1.37136 -1.70679,-1.13759 -1.70679,-1.1376 -1.87031,-1.58698 -1.8703,-1.58699 -1.59292,-1.87031 -1.59292,-1.8703 -1.74054,-2.60131 -1.74054,-2.60131 -1.3998,-2.99869 -1.399809,-2.99869 -1.001069,-2.99206 -1.001069,-2.99205 -0.791363,-3.9084 -0.79136,-3.9084 -0.470573,-4.0228 -0.470573,-4.0228 -0.364435,-6.99675 -0.364438,-6.99675 0.241024,-4.64 0.241021,-4.64 0.139574,-2.08 0.139574,-2.08 0.04804,-1.52 0.04803,-1.52 h 0.283993 0.283994 l -0.167171,-1.48315 -0.167175,-1.48315 0.244608,0.39578 0.244608,0.39578 0.231648,-1.87263 0.231645,-1.87263 1.110352,-4.4277 1.110349,-4.42771 1.068291,-2.7994 1.068294,-2.79939 1.1854,-2.3729 1.1854,-2.3729 1.75568,-2.65518 1.75568,-2.65518 2.13259,-2.16242 2.1326,-2.162417 2.39698,-1.692055 2.39699,-1.692057 2.72,-1.373213 2.72,-1.373216 2.82239,-0.996035 2.8224,-0.996032 2.47636,-0.632273 2.47636,-0.632272 3.98124,-0.637696 3.98125,-0.637699 4.48,-0.329824 4.48,-0.329827 4.48,-6.4e-4 4.48,-6.4e-4 4.32,0.320816 4.32,0.320819 3.42749,0.4956 3.42749,0.4956 3.25254,0.787562 3.25254,0.787562 2.43997,0.835356 2.43997,0.835354 3.2,1.590518 3.2,1.590519 2.08,1.469987 2.08,1.469987 2.27452,2.259386 2.27451,2.25938 1.99336,3.03747 1.99336,3.03747 1.26755,2.65578 1.26755,2.65578 1.24133,3.74675 1.24133,3.74675 0.82325,3.71853 0.82324,3.71853 0.005,0.76147 0.005,0.76147 0.28066,-0.44316 0.28065,-0.44315 -0.16717,1.48315 -0.16717,1.48316 h 0.28399 0.284 l 0.055,1.52 0.055,1.52 0.15543,1.76 0.15544,1.76 0.22909,6.4 0.2291,6.4 -0.37704,6.4 -0.37704,6.4 -0.46661,3.68 -0.46662,3.68 -0.80675,3.91353 -0.80675,3.91353 -1.14174,3.28647 -1.14173,3.28647 -1.79319,3.51054 -1.7932,3.51053 -2.37739,3.15601 -2.37739,3.15601 -2.53756,2.16092 -2.53757,2.16092 -2.51266,1.51897 -2.51267,1.51897 -3.06385,1.26154 -3.06386,1.26153 -4.24507,1.07926 -4.24507,1.07926 -3.68,0.51757 -3.68,0.51758 -4.64,0.31045 -4.64,0.31045 -4.32,-0.0416 z m -3.60703,-32.98722 11.44703,-0.13933 2.55743,-0.69791 2.55744,-0.69791 1.10004,-0.89034 1.10004,-0.89034 0.64932,-1.2512 0.64931,-1.2512 0.0132,-1.17984 0.0132,-1.17984 0.22945,0.14046 0.22945,0.14045 0.0155,-26.28226 0.0155,-26.28227 -11.76499,0.14029 -11.76499,0.1403 -2.15884,0.64631 -2.15883,0.64632 -1.2424,0.82218 -1.24239,0.82217 -0.75877,1.54112 -0.75878,1.54111 -0.087,27.15053 -0.087,27.15052 z M 476,213.70993 l -4.48,-0.0438 -3.96922,-0.25232 -3.96918,-0.25232 -2.91082,-0.36378 -2.91078,-0.36378 -3.85869,-0.76642 -3.85865,-0.76641 -3.34135,-1.16012 -3.34131,-1.16012 -2.85267,-1.47005 -2.85267,-1.47005 -2.42733,-1.8025 -2.42733,-1.80251 -2.1799,-2.35835 -2.17991,-2.35835 -1.73763,-2.61149 -1.73763,-2.61149 -1.42327,-3.00805 -1.42326,-3.00805 -0.96224,-2.88 -0.96221,-2.88001 -0.81299,-4.02045 -0.81296,-4.02045 -0.47056,-4.0228 -0.47059,-4.0228 -0.36538,-6.99675 -0.36537,-6.99675 0.23075,-5.12 0.23075,-5.12 0.1625,-2.4 0.16246,-2.4 0.006,-1.52 0.006,-1.52 h 0.31402 0.31398 l -0.16717,-1.48315 -0.16717,-1.48315 0.24116,0.3902 0.24115,0.39021 0.21885,-1.9342 0.21881,-1.93419 0.96032,-3.93286 0.96032,-3.93286 1.28362,-3.2 1.28361,-3.2 1.46557,-2.56 1.46557,-2.56 1.14486,-1.6 1.14484,-1.6 2.09123,-2.19661 2.0912,-2.196613 1.76,-1.35624 1.76,-1.356237 2.56,-1.475683 2.56,-1.475683 3.2,-1.276707 3.2,-1.276704 3.90493,-0.953508 3.90496,-0.953507 3.45504,-0.499658 3.45507,-0.499657 4.32,-0.320819 4.32,-0.320816 3.87353,-6.4e-4 3.87354,-6.4e-4 4.12646,0.31975 4.12647,0.31975 5.92,0.831332 5.92,0.831331 4.26537,1.070787 4.26535,1.070787 0.40771,0.338362 0.40771,0.338362 -2.84877,14.319771 -2.84876,14.31977 -0.11309,0.34481 -0.11309,0.34482 -3.9512,-0.72561 -3.95123,-0.7256 -4.64,-0.55332 -4.64,-0.55333 -6.72,0.004 -6.72,0.004 -3.01543,0.53944 -3.01539,0.53944 -1.46061,0.64609 -1.4606,0.64609 -0.76634,0.70437 -0.76634,0.70437 -0.75452,1.6 -0.75453,1.6 -0.003,26.58469 -0.003,26.58469 2,0.36579 2,0.36579 3.04,0.35416 3.04,0.35417 6.4,-0.006 6.4,-0.006 4.48,-0.5141 4.48,-0.51411 3.8736,-0.79045 3.8736,-0.79044 2.99513,-0.93902 2.99514,-0.93902 0.15405,0.15405 0.15405,0.15406 0.0642,1.35054 0.0642,1.35055 0.19395,1.92001 0.19392,1.92 0.14391,1.44 0.14393,1.44 0.19629,2.24 0.19629,2.24 0.1271,1.28 0.12714,1.28 0.18893,2.4 0.18889,2.4 0.12314,1.12 0.1231,1.12 0.37191,3.92533 0.3719,3.92533 -0.16598,0.43251 -0.16595,0.43251 -3.14624,0.99946 -3.14621,0.99945 -2.72,0.62655 -2.72,0.62655 -3.36,0.48518 -3.36,0.48518 -4.64,0.32781 -4.64,0.32781 -4.48,-0.0437 z m 97.12,-0.11712 -6.56,0.1249 -3.50998,-0.29293 -3.51002,-0.29292 -3.972,-0.67077 -3.972,-0.67077 -3.1639,-0.93991 -3.16388,-0.93992 -2.8584,-1.23232 -2.85836,-1.23232 -2.40864,-1.50124 -2.40868,-1.50125 -2.56508,-2.41304 -2.56506,-2.41304 -1.6048,-2.12864 -1.60477,-2.12863 -1.56729,-3.04 -1.5673,-3.04 -1.12154,-3.22939 -1.1215,-3.22939 -0.63795,-3.01061 -0.63795,-3.01062 -0.42896,-2.88 -0.429,-2.88 0.0554,-9.28 0.0554,-9.28 0.10313,-1.65333 0.10314,-1.65333 0.13789,0.13789 0.13789,0.13789 0.703,-3.486 0.70298,-3.48601 0.88634,-2.67855 0.88636,-2.67856 1.217,-2.57478 1.21699,-2.57477 1.65856,-2.54065 1.65853,-2.54064 2.11724,-2.20119 2.11722,-2.20119 1.76,-1.35028 1.76,-1.35028 2.24,-1.31106 2.24,-1.31106 2.78768,-1.14445 2.78768,-1.14445 3.62323,-0.93421 3.62323,-0.93421 3.44301,-0.51124 3.44304,-0.51124 5.50605,-0.3003 5.50608,-0.3003 5.51213,0.30025 5.51213,0.30026 3.28787,0.50958 3.28787,0.50957 3.04,0.75558 3.04,0.75558 2.4,0.86271 2.4,0.86272 1.92,0.95512 1.92,0.95513 2.71059,1.7922 2.71063,1.7922 2.11568,2.0927 2.11564,2.0927 1.6834,2.4 1.68336,2.4 1.45043,2.87338 1.4504,2.87338 1.20333,3.68662 1.20332,3.68662 0.4058,2.30849 0.40579,2.30848 0.26601,-0.16439 0.26599,-0.16439 -0.19322,0.96603 -0.19321,0.96604 0.24108,0.56987 0.24106,0.56987 0.19696,2.4 0.19696,2.4 -0.0346,6.56 -0.0345,6.56 -0.54544,4.2499 -0.54544,4.2499 -0.92246,3.77757 -0.92243,3.77756 -0.97693,2.45925 -0.97693,2.45925 -1.09136,2.15329 -1.09139,2.15329 -1.69194,2.4 -1.69193,2.4 -2.27248,2.24 -2.27248,2.24 -2.22484,1.48075 -2.22486,1.48077 -2.26438,1.13525 -2.26439,1.13525 -3.20499,1.11559 -3.20502,1.11559 -3.02324,0.65501 -3.02326,0.65502 -3.82736,0.50733 -3.82736,0.50734 z m -5.52,-28.08124 6.32,-0.17608 2.23846,-0.64653 2.23847,-0.64653 1.01814,-1.11099 1.01815,-1.111 0.33433,-1.21085 0.33434,-1.21084 0.0134,-19.93937 0.0134,-19.93938 h -4.0169 -4.01689 l -3.07722,0.34313 -3.07718,0.34313 -1.71194,0.64052 -1.71194,0.64052 -0.76684,1.01635 -0.76682,1.01635 -0.34963,1.28 -0.34963,1.28 -0.003,19.80383 -0.003,19.80382 6.32,-0.17608 z m 441.52,28.06998 -4.8,0.11188 -1.44,-0.12773 -1.44,-0.12773 -2.5496,-0.3215 -2.5496,-0.3215 -2.0904,-0.5195 -2.0904,-0.5195 -2.78429,-1.19506 -2.78425,-1.19506 -2.39088,-1.49017 -2.39092,-1.49018 -2.22758,-2.3853 -2.22762,-2.3853 -1.2926,-2.64745 -1.29258,-2.64744 -0.64496,-2.46512 -0.64496,-2.46511 -0.39462,-2.65489 -0.39463,-2.65488 -0.0115,-4.16 -0.0115,-4.16001 0.14637,-1.67965 0.1464,-1.67965 0.27632,-3.2e-4 0.27632,-3.2e-4 -0.13843,-0.9431 -0.1384,-0.9431 0.23606,0.1459 0.23607,0.14589 0.21936,-1.04279 0.21939,-1.0428 1.20621,-2.59802 1.20624,-2.59803 1.28377,-1.88197 1.28378,-1.88198 2.20262,-2.11856 2.20263,-2.11856 2.34198,-1.51503 2.34202,-1.51504 2.61203,-1.20624 2.61203,-1.20623 3.12483,-1.00049 3.12483,-1.00049 2.79516,-0.61565 2.7951,-0.61565 3.52,-0.49738 3.52,-0.49739 4.48,-0.32534 4.48,-0.32535 6.64,-0.001 6.64,-0.001 v -3.4892 -3.48921 l -3.44,-0.23609 -3.44,-0.23609 -8.16,0.19239 -8.16,0.1924 -4.32,0.49375 -4.32,0.49374 -3.83992,0.65248 -3.84,0.65248 -4.16,1.07781 -4.16,1.07782 -0.54659,0.21796 -0.54663,0.21795 -0.1696,-0.74909 -0.1696,-0.7491 -2.2318,-12.94852 -2.23181,-12.94853 0.38285,-0.23661 0.38284,-0.23661 2.56519,-0.69289 2.56515,-0.69289 5.22045,-1.06848 5.22041,-1.06848 5.17956,-0.64468 5.1795,-0.64468 4.64,-0.35762 4.64,-0.35761 8.96,-0.005 8.96,-0.005 4.48,0.53341 4.48,0.5334 3.04,0.65155 3.04,0.65155 3.04,0.9634 3.04,0.9634 3.1664,1.61916 3.1663,1.61916 2.3404,1.85981 2.3403,1.85982 1.6044,2.00671 1.6043,2.00672 1.2832,2.56023 1.2831,2.56023 0.6021,2.37089 0.6021,2.3709 0.1678,-0.45113 0.1677,-0.45112 0.046,37.52 0.046,37.52 -9.8497,-0.007 -9.8497,-0.007 -5.6828,-5.4651 -5.6829,-5.46511 -1.9205,1.77806 -1.9205,1.77806 -1.9967,1.42086 -1.9966,1.42085 -2.5795,1.29748 -2.5796,1.29747 -2.5404,0.98287 -2.5405,0.98286 -2.9267,0.80167 -2.9268,0.80166 -2.6732,0.48573 -2.6733,0.48571 -4.8,0.11189 z m 10.96,-28.06497 7.28,-0.15881 1.9075,-0.5324 1.9075,-0.5324 1.0198,-0.77778 1.0197,-0.77778 0.6727,-1.38974 0.6728,-1.38973 v -5.21225 -5.21225 l -7.6,0.14603 -7.6,0.14602 -1.76,0.563 -1.76,0.563 -0.8525,0.60649 -0.8526,0.60649 -0.6674,1.3788 -0.6675,1.3788 v 5.37666 5.37666 z m 228.88,28.19756 -3.04,-0.0393 -2.5314,-0.26685 -2.5313,-0.26684 -2.5887,-0.5279 -2.5886,-0.52791 -2.72,-0.95896 -2.72,-0.95896 -1.6,-0.80511 -1.6,-0.80511 -2.1357,-1.37642 -2.1357,-1.37643 -2.4426,-2.3203 -2.4427,-2.3203 -1.7463,-2.62449 -1.7462,-2.6245 -1.5589,-3.3174 -1.5589,-3.31739 -1.1483,-3.56885 -1.1484,-3.56884 -0.7924,-3.95116 -0.7925,-3.95116 -0.3679,-4 -0.368,-4 0.208,-7.2 0.2081,-7.2 0.056,-1.34124 0.056,-1.34125 0.1458,0.14585 0.1459,0.14585 0.7319,-3.63043 0.7319,-3.63043 1.0057,-2.85417 1.0057,-2.85418 1.0665,-2.25142 1.0665,-2.25142 1.5633,-2.38858 1.5632,-2.38858 1.7271,-1.88407 1.7271,-1.88407 2.0341,-1.53987 2.0341,-1.53987 3.0935,-1.58252 3.0935,-1.58252 2.6651,-0.83624 2.6651,-0.83625 2.9349,-0.476 2.9349,-0.47601 14,-0.001 14,-10e-4 V 97.778902 80.997785 l 0.24,-0.149408 0.24,-0.149408 -0.1063,2.398806 -0.1062,2.398807 2.0262,-0.196256 2.0263,-0.19626 15.52,-1.104512 15.52,-1.104512 2.16,-0.19999 2.16,-0.199991 v 64.192479 64.19248 l -9.84,-0.009 -9.84,-0.009 -4.2403,-4.02264 -4.2403,-4.02265 -2.351,2.19131 -2.351,2.19131 -2.4576,1.40117 -2.4575,1.40118 -2.6506,0.9136 -2.6505,0.91361 -3.0507,0.62771 -3.0508,0.62772 -3.8098,0.3342 -3.8099,0.33421 -3.04,-0.0393 z m 5.2,-28.12047 4.88,-0.006 2.24,-0.3193 2.24,-0.31929 1.4683,-0.48292 1.4683,-0.48292 0.8348,-0.87145 0.8346,-0.87144 0.4881,-1.1683 0.488,-1.1683 0.013,-20.1917 0.013,-20.1917 h -4.0168 -4.0168 l -3.0772,0.34313 -3.0772,0.34312 -1.7119,0.64052 -1.712,0.64052 -0.7668,1.01636 -0.7668,1.01635 -0.3497,1.28 -0.3496,1.28 v 19.76 19.76 l 4.88,-0.006 z m 126.32,27.9922 -7.52,0.13296 -3.51,-0.29348 -3.51,-0.29349 -3.972,-0.67077 -3.972,-0.67077 -3.1639,-0.93991 -3.1639,-0.93992 -2.8584,-1.23232 -2.8583,-1.23232 -2.4087,-1.50124 -2.4087,-1.50125 -2.565,-2.41304 -2.5651,-2.41304 -1.6048,-2.12864 -1.6048,-2.12863 -1.5673,-3.04 -1.5673,-3.04 -1.1215,-3.22939 -1.1215,-3.22939 -0.638,-3.01061 -0.6379,-3.01062 -0.429,-2.88 -0.429,-2.88 0.055,-9.28 0.055,-9.28 0.1032,-1.65333 0.1031,-1.65333 0.1379,0.13789 0.1379,0.13789 0.703,-3.486 0.703,-3.48601 0.8863,-2.67855 0.8864,-2.67856 1.217,-2.57478 1.2169,-2.57477 1.6586,-2.54065 1.6585,-2.54064 2.1173,-2.20119 2.1172,-2.20119 1.76,-1.35028 1.76,-1.35028 2.24,-1.31106 2.24,-1.31106 2.8006,-1.14981 2.8006,-1.1498 2.9594,-0.7858 2.9594,-0.7858 3.794,-0.64681 3.7939,-0.64681 5.6522,-0.30843 5.6521,-0.30844 7.0339,0.30287 7.0339,0.30286 4,0.49732 4,0.49731 3.68,0.81891 3.68,0.81892 2.88,1.1074 2.88,1.10741 2.3025,1.43411 2.3024,1.43411 1.9108,2.08523 1.9107,2.08523 1.274,2.46296 1.274,2.46296 0.8176,2.60833 0.8176,2.60833 0.2164,1.63167 0.2165,1.63167 h 0.2418 0.2419 l -0.069,7.44 -0.069,7.44 -0.702,2.72 -0.702,2.72 -1.4476,2.93101 -1.4476,2.93101 -1.9432,2.12072 -1.9433,2.12073 -1.9609,1.39091 -1.9609,1.3909 -2.24,1.11876 -2.24,1.11877 -3.1147,0.99567 -3.1147,0.99567 -3.9253,0.78464 -3.9253,0.78464 -4.32,0.49981 -4.32,0.49982 -4.8,0.31352 -4.8,0.31352 -4.7308,0.005 -4.7309,0.005 0.091,3.44 0.091,3.44 2.56,0.25598 2.56,0.25598 8.96,-0.15446 8.96,-0.15447 3.52,-0.50161 3.52,-0.50162 3.68,-0.65643 3.68,-0.65644 4.32,-1.09101 4.32,-1.09101 1.5001,-0.45514 1.5001,-0.45514 0.2274,0.52269 0.2276,0.52268 -0.066,0.68944 -0.067,0.68944 0.3249,0.20081 0.325,0.20081 -0.1803,0.46975 -0.1803,0.46975 0.2418,0.56 0.2419,0.56 -0.067,0.68944 -0.066,0.68944 0.3401,0.21017 0.34,0.21018 -0.1871,0.74548 -0.1871,0.74547 0.359,0.22184 0.3589,0.22184 -0.1936,0.61021 -0.1937,0.61021 0.2557,0.40286 0.2558,0.40286 0.051,0.8 0.051,0.8 0.208,1.12 0.208,1.12 0.16,0.96 0.16,0.96 0.1397,0.8 0.1397,0.8 0.16,0.96 0.16,0.96 0.19,1.12 0.19,1.12 0.1201,0.64 0.1201,0.64 0.1872,1.12 0.1872,1.12 0.1261,1.33752 0.1261,1.33751 -3.4173,0.81518 -3.4173,0.81518 -3.04,0.62233 -3.04,0.62234 -5.28,0.81935 -5.28,0.81936 -5.12,0.49207 -5.12,0.49208 -7.52,0.13295 z m -8.5067,-57.75093 3.8667,-0.005 3.68,-0.30666 3.68,-0.30667 1.636,-0.4876 1.636,-0.48759 0.8842,-0.69552 0.8842,-0.69552 0.5928,-1.30515 0.5928,-1.30516 0.01,-5.36 0.01,-5.36 h -4.9726 -4.9726 l -3.0772,0.34313 -3.0772,0.34313 -1.7119,0.64052 -1.712,0.64052 -0.7668,1.01635 -0.7668,1.01635 -0.3497,1.28 -0.3496,1.28 v 3.44 3.44 l 5.36,0.0717 5.36,0.0717 -5.36,0.096 -5.36,0.096 v 1.05893 1.05893 l 0.2134,0.21333 0.2133,0.21333 3.8667,-0.005 z M 258,210.79841 225.28,210.9253 V 150.56143 90.197554 l 33.2,0.133268 33.2,0.133264 3.97164,0.530358 3.97164,0.530355 3.8874,0.787108 3.88738,0.78711 2.98302,0.9748 2.983,0.974803 2.72243,1.27577 2.72242,1.275773 2.59555,1.729552 2.59552,1.729555 2.27478,2.35036 2.27476,2.35037 1.66102,2.54522 1.66099,2.54522 1.22016,2.57478 1.22016,2.57478 0.82743,2.40554 0.82742,2.40554 0.81491,3.19446 0.81491,3.19446 0.38528,2.63608 0.38525,2.63608 0.24739,-0.39608 0.2474,-0.39608 -0.19053,1.18602 -0.19053,1.18603 0.24163,0.57397 0.24163,0.57398 0.17623,2.24 0.17622,2.24 0.004,10.4 0.004,10.4 -0.5568,4.64 -0.5568,4.64 -0.7976,3.97116 -0.7976,3.97115 -1.26093,3.86885 -1.26096,3.86885 -1.13564,2.36441 -1.13562,2.36443 -1.79574,2.75557 -1.79572,2.75559 -2.27548,2.27502 -2.27549,2.27502 -2.54858,1.66294 -2.54857,1.66294 -2.39277,1.13547 -2.39276,1.13546 -3.33191,1.09146 -3.33191,1.09145 -3.88675,0.77943 -3.88675,0.77943 -4.32,0.55144 -4.32,0.55144 -32.72,0.1269 z m 14.93333,-30.64121 7.54667,-0.003 4.35648,-0.31416 4.35648,-0.31416 2.12893,-0.65756 2.12894,-0.65756 1.09381,-0.96039 1.09382,-0.96038 0.54059,-1.41553 0.54059,-1.41552 -0.16998,-0.65001 -0.16997,-0.65 0.29007,0.17928 0.29008,0.17927 -0.0799,-22.65883 L 296.8,127.2 l -0.69069,-1.28 -0.6907,-1.28 -0.9093,-0.85463 -0.90931,-0.85464 -1.9807,-0.66226 -1.9807,-0.66226 -3.6193,-0.32037 -3.6193,-0.32036 -8.72,-0.003 -8.72,-0.003 v 29.38667 29.38667 l 0.21333,0.21333 0.21334,0.21333 7.54666,-0.003 z M 659.84,210.88001 H 640 V 162.72 114.56 l 10,0.009 10,0.009 4.47987,4.2692 4.47991,4.26919 1.60009,-1.44899 1.60013,-1.449 2.56,-1.66944 2.56,-1.66944 1.6,-0.80312 1.6,-0.80312 2.73814,-0.96544 2.73812,-0.96544 3.09299,-0.67012 3.09299,-0.67012 4.25146,-0.30383 4.25142,-0.30383 4.94112,0.29569 4.94115,0.29568 2.73629,0.50541 2.73632,0.50541 2.24,0.65462 2.24,0.65462 2.3489,1.07993 2.34889,1.07992 1.97111,1.40258 1.9711,1.40256 2.60131,-1.49458 2.60131,-1.49459 2.55127,-1.00817 2.55126,-1.00817 2.74791,-0.79631 2.7479,-0.79631 3.45952,-0.5303 3.45952,-0.5303 5.44,-0.007 5.44,-0.007 3.2,0.39173 3.2,0.39172 2.90362,0.73639 2.90358,0.73639 2.50365,1.04227 2.50365,1.04227 2.33779,1.56362 2.33782,1.56362 1.73747,1.91998 1.73751,1.91999 1.01168,2.05507 1.01171,2.05507 0.46022,2.17179 0.4602,2.1718 0.005,39.76 0.005,39.76 h -19.84 -19.84 v -33.79891 -33.79891 l -4.89924,0.13163 -4.89926,0.13163 -1.81421,0.88762 -1.81424,0.88762 -0.92128,1.11766 -0.92125,1.11767 -0.36528,1.21912 -0.36524,1.21912 v 30.44288 30.44287 h -19.84 -19.84 v -33.79823 -33.79824 l -5.04,0.13829 -5.04,0.13829 -1.35149,0.70211 -1.35152,0.70211 -1.11536,1.11537 -1.11539,1.11538 -0.49312,1.66054 -0.49312,1.66054 v 30.18192 30.18192 h -19.84 z m 169.92,0 H 809.92 V 162.72 114.56 l 10,0.009 10,0.009 4.47987,4.2692 4.47991,4.26919 1.60009,-1.44899 1.60013,-1.449 2.56,-1.66944 2.56,-1.66944 1.6,-0.80312 1.6,-0.80312 2.73814,-0.96544 2.73812,-0.96544 3.09299,-0.67012 3.09299,-0.67012 4.25146,-0.30383 4.25142,-0.30383 4.94112,0.29569 4.94115,0.29568 2.73629,0.50541 2.73632,0.50541 2.24,0.65462 2.24,0.65462 2.3489,1.07993 2.34889,1.07992 1.97111,1.40258 1.9711,1.40256 2.60131,-1.49458 2.60131,-1.49459 2.55127,-1.00817 2.55126,-1.00817 2.74791,-0.79631 2.7479,-0.79631 3.45952,-0.5303 3.45952,-0.5303 5.44,-0.007 5.44,-0.007 3.2,0.39173 3.2,0.39172 2.90362,0.73639 2.90358,0.73639 2.50365,1.04227 2.50365,1.04227 2.33779,1.56362 2.33782,1.56362 1.73747,1.91998 1.73751,1.91999 1.01168,2.05507 1.01171,2.05507 0.46022,2.17179 0.4602,2.1718 0.005,39.76 0.005,39.76 h -19.84 -19.84 v -33.79891 -33.79891 l -4.89924,0.13163 -4.89926,0.13163 -1.81421,0.88762 -1.81424,0.88762 -0.92128,1.11766 -0.92125,1.11767 -0.36528,1.21912 -0.36524,1.21912 v 30.44288 30.44287 h -19.84 -19.84 v -33.79823 -33.79824 l -5.04,0.13829 -5.04,0.13829 -1.35149,0.70211 -1.35152,0.70211 -1.11536,1.11537 -1.11539,1.11538 -0.49312,1.66054 -0.49312,1.66054 v 30.18192 30.18192 h -19.84 z m 282.5539,0 H 1092.48 V 162.72 114.56 h 10.0985 10.0985 l 4.7307,4.64 4.7307,4.64 h 0.1763 0.1762 l 2.8202,-1.77054 2.8201,-1.77054 3.5344,-1.71521 3.5344,-1.71522 3.2,-1.19306 3.2,-1.19305 3.52,-0.88608 3.52,-0.88608 3.84,-0.5549 3.84,-0.55491 5.6,0.003 5.6,0.003 3.1819,0.55046 3.1819,0.55046 2.4181,0.78554 2.4181,0.78555 2.0643,1.13021 2.0643,1.13022 1.8494,1.45293 1.8493,1.45292 1.2627,1.63778 1.2628,1.63777 0.9727,2.05818 0.9727,2.05817 0.2072,1.38183 0.2073,1.38182 h 0.2836 0.2837 v 39.92 39.92001 l -0.1929,0.72 -0.193,0.72 h -19.6053 -19.6054 l -0.1929,-0.72 -0.193,-0.72 v -33.07339 -33.07339 l -6.32,0.14827 -6.32,0.14828 -1.9076,0.53863 -1.9075,0.53863 -1.0528,0.80302 -1.0528,0.80303 -0.5597,1.02345 -0.5596,1.02346 -0.086,31.28 -0.086,31.28001 h -19.8339 z m 348.8061,0 h -19.84 V 162.72 114.56 h 10.0346 10.0346 l 5.4136,5.24062 5.4136,5.24062 1.2718,-1.08462 1.2718,-1.08461 3.0507,-2.0648 3.0506,-2.0648 3.9894,-1.89248 3.9893,-1.89248 3.04,-0.99209 3.04,-0.99208 3.2,-0.7662 3.2,-0.76619 0.2489,0.83956 0.2489,0.83955 0.1503,2.88 0.1504,2.88 0.1699,2.56 0.17,2.56 0.1171,1.92 0.1171,1.92 0.2204,3.2 0.2204,3.2 0.1014,1.76 0.1014,1.76 0.1955,3.04 0.1955,3.04 0.047,0.48 0.047,0.48 -0.05,1.5004 -0.05,1.50039 -1.52,0.19652 -1.52,0.19652 -3.3265,0.64927 -3.3265,0.64926 -3.1875,0.94695 -3.1876,0.94695 -2.1906,1.10316 -2.1906,1.10315 -1.1353,0.99687 -1.1354,0.99686 v 27.64685 27.64686 z m -1086,-38.79073 -26.32,0.0985 0.007,-11.77389 0.007,-11.7739 0.59568,-1.31165 0.59568,-1.31166 0.95805,-0.68219 0.95805,-0.68219 1.87926,-0.55548 1.87923,-0.55549 26.34154,-0.1046 26.34153,-0.1046 -0.10249,11.61393 -0.10253,11.61393 -0.5743,1.27564 -0.57431,1.27563 -0.68627,0.73053 -0.6863,0.73052 -2.09844,0.70922 -2.09843,0.70922 -26.32,0.0985 z M 1471.91,121.6 h -0.09 l -1.91,-2 -1.91,-2 2,1.90999 2,1.90998 v 0.09 0.09 z m -449.99,-13.85916 -1.92,-0.003 1.0457,-0.12949 1.0458,-0.12949 0.8742,0.13275 0.8743,0.13276 -1.92,-0.003 z"
         id="path1136" />
      <path
         style="fill:#b2c1bd;stroke-width:0.32"
         d="m 1074.48,193.01551 -0.086,17.0645 -10e-5,-33.92001 v -33.92 l 0.086,16.85551 0.086,16.85549 z m 234.56,-14.85551 -0.083,31.92001 V 146.24 82.400002 l 0.083,31.919998 0.083,31.92 z m -960.32058,-12.96 -0.0964,5.2 V 160 149.6 l 0.0964,5.2 0.0964,5.2 z m 169.90922,-2.71426 -0.13274,0.87426 0.003,-1.92 0.003,-1.92 0.12948,1.04574 0.1295,1.04573 -0.13277,0.87427 z m 687.99996,0 -0.1327,0.87426 v -1.92 -1.92 l 0.1295,1.04574 0.1295,1.04573 -0.1328,0.87427 z m 118.4,0 -0.1327,0.87426 v -1.92 -1.92 l 0.1295,1.04574 0.1295,1.04573 -0.1328,0.87427 z M 274.4,121.13822 l -9.6,-2.6e-4 4.89978,-0.0974 4.89978,-0.0974 4.70022,0.0977 4.70022,0.0977 z m 204.32,-1.8966 h -3.36 l 1.68,-0.11753 1.68,-0.11753 1.68,0.11753 1.68,0.11753 z"
         id="path1134" />
      <path
         style="fill:#96ada7;stroke-width:0.32"
         d="m 565.76,183.87465 h -4.32 l 2.16,-0.11194 2.16,-0.11195 2.16,0.11195 2.16,0.11194 z m 452.32,-0.006 -5.44,-6.4e-4 2.8157,-0.10688 2.8157,-0.10688 2.6243,0.10755 2.6243,0.10755 -5.44,-6.4e-4 z m 235.68,0.006 h -4.32 l 2.16,-0.11194 2.16,-0.11195 2.16,0.11195 2.16,0.11194 z m -777.92,-4.79796 h -4 l 2,-0.11361 2,-0.11361 2,0.11361 2,0.11361 z m -201.28,-0.97821 h -9.44 l 4.72,-0.0978 4.72,-0.0978 4.72,0.0978 4.72,0.0978 z m 1096.48,0.0246 -3.2,-0.002 1.6907,-0.1179 1.6907,-0.1179 1.5093,0.11942 1.5093,0.11941 -3.2,-0.002 z m -998.01005,-5.72107 -24.25005,0.0779 -0.17526,-0.45672 -0.17526,-0.45673 0.14172,-0.74327 0.14173,-0.74328 0.0436,1.03799 0.0436,1.03799 24.24,0.084 24.24,0.0841 z M 384.32,140.32793 h -24.16 l 12.08,-0.0878 12.08,-0.0878 12.08,0.0878 12.08,0.0878 z m 193.76,-0.6048 -3.2,-0.002 1.69072,-0.1179 1.69072,-0.1179 1.50928,0.11941 1.50928,0.11942 -3.2,-0.002 z m 688,0 -3.2,-0.002 1.6907,-0.1179 1.6907,-0.1179 1.5093,0.11941 1.5093,0.11942 -3.2,-0.002 z m 119.36,-0.007 -4.16,-9.6e-4 2.1733,-0.11225 2.1733,-0.11224 1.9867,0.11326 1.9867,0.11327 -4.16,-9.6e-4 z m -735.52,-29.1382 h -10.08 l 5.04,-0.0969 5.04,-0.0969 5.04,0.0969 5.04,0.0969 z m 169.92,0 h -10.08 l 5.04,-0.0969 5.04,-0.0969 5.04,0.0969 5.04,0.0969 z m 282.56,0 h -10.08 l 5.04,-0.0969 5.04,-0.0969 5.04,0.0969 5.04,0.0969 z m 153.76,-0.004 -13.12,-1.5e-4 6.6614,-0.0934 6.6614,-0.0934 6.4586,0.0936 6.4586,0.0936 z m 195.04,0.004 h -10.08 l 5.04,-0.0969 5.04,-0.0969 5.04,0.0969 5.04,0.0969 z M 152.48,82.755669 l -4.16,-9.6e-4 2.17331,-0.112249 2.17331,-0.11225 1.98669,0.113267 1.98669,0.113268 -4.16,-9.6e-4 z m 322.56,0.0022 -3.84,-0.0013 2.01254,-0.113936 2.01255,-0.113939 1.82745,0.115088 1.82746,0.115088 -3.84,-0.0013 z m 833.9926,-1.229379 -0.125,1.191543 v -2.56 -2.56 l 0.1229,1.368457 0.1229,1.368461 -0.125,1.191539 z"
         id="path1132" />
      <path
         style="fill:#53a88d;stroke-width:0.32"
         d="m 679.9199,195.60001 -0.0866,14.48 v -28.96 V 152.16 l 0.0866,14.48 0.0866,14.48001 z m 15.68004,-2.24 -0.0858,16.72 V 176.64 143.2 l 0.0858,16.72 0.0858,16.72 z m 39.99996,1.94421 -0.0865,14.77579 3e-5,-29.76001 3e-5,-29.76 0.0864,14.98422 0.0864,14.98421 z m 15.68004,-1.94421 -0.0858,16.72 V 176.64 143.2 l 0.0858,16.72 0.0858,16.72 z m 40.00003,-2.56 -0.0851,19.28 V 171.52 132.96 l 0.0851,19.28 0.085,19.28 z m 58.55993,4.8 -0.0866,14.48 v -28.96 V 152.16 l 0.0866,14.48 0.0866,14.48001 z m 15.68004,-2.24 -0.0858,16.72 V 176.64 143.2 l 0.0858,16.72 0.0858,16.72 z m 39.99996,1.94421 -0.0865,14.77579 3e-5,-29.76001 3e-5,-29.76 0.0864,14.98422 0.0864,14.98421 z m 15.68004,-1.94421 -0.0858,16.72 V 176.64 143.2 l 0.0858,16.72 0.0858,16.72 z m 40.00003,-2.56 -0.0851,19.28 V 171.52 132.96 l 0.0851,19.28 0.085,19.28 z m 171.19993,4.50421 -0.086,14.77579 10e-5,-29.76001 v -29.76 l 0.086,14.98422 0.087,14.98421 z m 348.8,1.27978 -0.087,13.49601 v -27.2 l 10e-5,-27.20001 0.087,13.704 0.087,13.70399 z m -919.68006,-22.12684 -0.0899,9.38285 -9e-5,-18.56001 -7e-5,-18.56 0.09,9.17716 0.09,9.17715 z m 687.99996,0 -0.09,9.38285 -10e-5,-18.56001 -10e-5,-18.56 0.09,9.17716 0.09,9.17715 z m 118.3928,7.5513 -0.125,1.19155 V 180.64 178.08 l 0.1229,1.36846 0.1229,1.36846 -0.125,1.19154 z M 265.1999,163.94411 265.1132,178.08 l 4e-5,-28.48 3e-5,-28.48 0.0867,14.34411 0.0867,14.34411 z m -96.64001,-6.26411 -0.0876,12.4 v -24.8 -24.8 l 0.0876,12.4 0.0876,12.4 z m 317.60011,-0.98875 -1.04,0.17998 v -1.57115 -1.57115 l 3.92,-0.74821 3.92,-0.74821 0.60797,-0.14896 0.608,-0.14895 -0.21047,1.53534 -0.21043,1.53534 -0.38173,0.23591 -0.38169,0.23591 -2.89584,0.51708 -2.89581,0.51708 z m 881.7548,-5.08052 -0.1194,1.50927 v -3.2 -3.2 l 0.1178,1.69073 0.1179,1.69073 -0.1194,1.50927 z m -1028.16219,-0.96227 -0.12503,1.19154 0.003,-2.56 0.003,-2.56 0.12292,1.36846 0.12291,1.36846 -0.12503,1.19154 z m -269.188847,-22.23255 -0.41039,2.62409 -0.03669,-0.82034 -0.03669,-0.82035 0.477955,-3.6238 0.477955,-3.6238 0.503901,-2.75585 0.503904,-2.75586 1.133667,-4.48 1.133668,-4.48 1.440528,-4 1.440528,-3.999997 1.369862,-2.933799 1.369859,-2.933801 1.805079,-3.067088 1.805078,-3.067092 2.449725,-3.252035 2.449725,-3.252039 2.899283,-2.916691 2.899283,-2.916694 2.649498,-2.011991 2.649494,-2.01199 2.493765,-1.546688 2.49377,-1.546685 2.85674,-1.428141 2.85673,-1.428141 3.0206,-1.188371 3.02059,-1.188371 3.84402,-1.106423 3.84402,-1.106425 3.85538,-0.768359 3.85539,-0.768358 3.912,-0.495562 3.91199,-0.495561 6.66812,-0.341172 6.66812,-0.341171 6.37988,0.332435 6.37989,0.332436 4,0.493334 4,0.493334 4.70788,0.959712 4.70787,0.959709 4.06516,1.299607 4.06515,1.299606 3.38697,1.441485 3.38697,1.441485 1.2,0.668678 1.2,0.668675 v 3.280781 3.280778 l -2.96,-1.388803 -2.96,-1.388807 -3.15415,-1.168921 -3.15414,-1.168922 -4.26929,-1.094205 -4.26929,-1.094205 -3.77657,-0.650374 L 172,65.914799 l -4.48,-0.476032 -4.48,-0.476029 -6.56,-0.202685 -6.56,-0.202685 -5.76,0.375792 -5.76,0.375789 -3.68,0.475482 -3.68,0.475484 -4.73528,0.964813 -4.73528,0.964813 -4.54311,1.462887 -4.54311,1.462886 -3.20161,1.416838 -3.20161,1.416839 -3.10603,1.755689 -3.106021,1.75569 -2.653975,1.960794 -2.653974,1.960793 -2.365072,2.108583 -2.365072,2.108582 -2.546195,3.040442 -2.546195,3.040439 -1.914916,2.88 -1.914915,2.88 -2.338288,4.702547 -2.338288,4.70255 -1.762976,5.37745 -1.762976,5.37745 -0.865475,4.09591 -0.865478,4.0959 z M 1122.232,120.32 h -0.16 l -4.792,-4.8 -4.792,-4.8 h 0.16 0.16 l 4.792,4.8 4.792,4.8 z M 378.20678,120 h -16.86294 l -0.39808,-1.68 -0.39805,-1.68 -1.40435,-4.16 -1.40432,-4.16 -2.20688,-4.48 -2.20688,-4.479997 -1.82426,-2.716064 -1.82422,-2.716068 -1.8369,-2.243932 -1.83686,-2.243937 -2.71846,-2.605868 -2.71847,-2.605869 -2.36304,-1.741748 -2.36307,-1.741747 -2.7567,-1.654 -2.75674,-1.654 -3.05366,-1.426995 -3.0537,-1.426992 -3.7896,-1.306787 -3.7896,-1.306788 -3.68,-0.926204 -3.68,-0.926202 -3.84,-0.636496 -3.84,-0.636496 -2.88,-0.346336 -2.88,-0.346339 -5.12,-0.314432 -5.12,-0.314432 -42.64,-0.0013 -42.64,-9.89e-4 v -3.372096 -3.372093 l 46.64,0.107699 46.64,0.107702 4.48,0.56321 4.48,0.56321 4.03692,0.784326 4.03691,0.784323 3.96309,1.088903 3.96308,1.088902 3.41306,1.321251 3.41305,1.321252 3.14695,1.61135 3.14694,1.611354 3.04,2.043917 3.04,2.043916 2.79178,2.419661 2.79177,2.419661 2.43053,2.791776 2.43053,2.791776 2.35081,3.52 2.35082,3.520001 1.74611,3.52 1.74608,3.519997 1.1856,3.0206 1.18557,3.0206 1.05251,3.6994 1.05251,3.6994 0.20877,0.88 0.2088,0.88 h 16.91111 16.9111 l 0.88701,-3.6 0.88701,-3.6 1.26176,-3.68 1.26176,-3.68 1.8702,-3.916119 1.87021,-3.916125 1.64941,-2.730666 1.64941,-2.730665 1.89821,-2.560103 1.89817,-2.560105 1.808,-1.993108 1.80797,-1.993107 2.74826,-2.489725 2.74822,-2.489725 3.2,-2.19182 3.2,-2.191818 3.04,-1.621469 3.04,-1.621472 3.66166,-1.469104 3.6617,-1.469107 3.78675,-1.090183 3.78672,-1.090182 4.07159,-0.811706 4.07158,-0.811702 3.72,-0.478602 3.71997,-0.478598 6.59312,-0.340016 6.59309,-0.340013 5.84691,0.332122 5.84691,0.332121 4.16,0.484576 4.16,0.484576 4,0.646199 4,0.646198 3.5545,0.795574 3.55449,0.795575 3.26224,1.098608 3.26221,1.098608 9.6633,4.224499 9.66326,4.224496 0.21488,0.191044 0.21488,0.191046 -0.53488,2.616099 -0.53488,2.6161 -0.1951,0.192339 -0.19511,0.192339 -9.47145,-3.994951 -9.47146,-3.994947 -3.13344,-0.967469 -3.13344,-0.967472 -3.68,-0.784153 -3.68,-0.784154 -4.32,-0.650682 -4.32,-0.650678 -4.96,-0.495331 -4.96,-0.495328 -5.6,-0.194983 -5.6,-0.194979 -5.83347,0.367018 -5.83347,0.367017 -3.76653,0.492336 -3.76653,0.492336 -3.23805,0.623223 -3.23805,0.623225 -4.00675,1.098122 -4.00672,1.098125 -3.1552,1.175235 -3.15523,1.175235 -4.32,2.187146 -4.32,2.187146 -2.94579,2.016041 -2.94579,2.016045 -2.84026,2.478733 -2.84029,2.47873 -2.21392,2.588902 -2.21395,2.588906 -1.85242,2.586246 -1.85241,2.58625 -1.76986,3.125847 -1.76989,3.125854 -1.3952,3.1702 -1.3952,3.17021 -1.11235,3.33007 -1.11238,3.33005 -0.57527,2.48 -0.57529,2.48 z m 827.11712,-15.38052 -0.044,-0.0205 -2.7005,-2.3994 -2.7005,-2.399407 -2.6021,-1.731405 -2.6021,-1.731405 -3.6574,-1.74168 -3.6574,-1.74168 -3.04,-0.998368 -3.04,-0.998371 -3.84,-0.775216 -3.84,-0.775216 -3.6608,-0.378202 -3.6609,-0.378198 -7.0591,0.185734 -7.0592,0.185734 -3.36,0.51752 -3.36,0.51752 -3.04,0.626653 -3.04,0.62665 -3.4664,0.980906 -3.4665,0.980905 -2.8114,1.045245 -2.8114,1.045245 -2.0422,-1.857341 -2.0421,-1.857344 -27.76,-0.01392 -27.76,-0.01393 v 1.957321 1.957322 l -0.56,-0.186471 -0.56,-0.186473 -4.64,-1.586259 -4.64,-1.58626 -3.84,-0.799276 -3.84,-0.799281 -3.36,-0.488998 -3.36,-0.488998 -4.96,-0.378557 -4.96,-0.37856 -10.4,0.177977 -10.4,0.177981 -5.28,0.517226 -5.28,0.517225 -4.48,0.644525 -4.48,0.644525 -4.16,0.803891 -4.16,0.803895 -3.84,0.956835 -3.84,0.956838 -5.41203,1.60042 -5.412,1.600419 -3.708,-1.90537 -3.70797,-1.905366 -3.04,-1.123539 -3.04,-1.123543 -4,-0.980057 -4,-0.980058 -3.36,-0.511507 -3.36,-0.511504 -7.52,-0.17625 -7.52,-0.176253 -4.3856,0.51128 -4.3856,0.51128 -3.2944,0.679747 -3.2944,0.679748 -3.60362,1.089248 -3.60358,1.089248 -1.90262,-0.640941 -1.9026,-0.640941 -3.13379,-0.800557 -3.13379,-0.80056 -4.48,-0.703955 -4.48,-0.703955 -9.44,-0.0079 -9.44,-0.0079 -4.15901,0.722857 -4.15901,0.722858 -1.92099,0.483431 -1.92099,0.48343 -3.46787,1.140608 -3.46791,1.140608 -1.02732,-0.99575 -1.02736,-0.995748 H 812.54477 784.64 v 0.64 0.64 h -0.10989 -0.10992 l -1.73008,-0.594067 -1.73011,-0.594067 -3.52,-0.830304 -3.52,-0.830307 -3.36,-0.520112 -3.36,-0.520116 -7.22365,-0.177814 -7.22365,-0.177818 -3.81635,0.385988 -3.81635,0.38599 -4,0.779933 -4,0.779936 -3.2,0.997062 -3.2,0.997066 -0.8,0.01306 -0.8,0.01306 -3.84,-1.142896 -3.84,-1.142893 -4,-0.662813 -4,-0.662813 -3.31392,-0.328025 -3.31389,-0.328023 h -5.80806 -5.80807 l -4.08755,0.478151 -4.08758,0.478147 -3.24599,0.672637 -3.24601,0.67264 -3.984,1.273661 -3.984,1.273664 -1.01571,-0.984451 -1.01568,-0.984448 H 642.78477 615.04 v -3.040001 -3.04 h 27.5865 27.58652 l 1.17143,1.143882 1.17145,1.143882 2.84205,-1.005709 2.84205,-1.005709 3.82131,-0.935571 3.82131,-0.935571 3.69869,-0.547748 3.69869,-0.547744 7.52,-0.01293 7.52,-0.01293 3.36,0.416045 3.36,0.416048 3.95117,0.790186 3.95113,0.790189 3.43392,1.110112 3.43396,1.110115 2.69782,-0.91193 2.69786,-0.911933 3.51705,-0.832115 3.51709,-0.832115 3.68,-0.560963 3.68,-0.560964 7.68,-0.0038 7.68,-0.0038 3.04,0.396836 3.04,0.396832 3.36,0.669872 3.36,0.669872 3.04,0.903097 3.04,0.903095 0.56,0.214944 0.56,0.214944 v -0.834237 -0.834237 h 27.6567 27.65671 l 0.95625,1.160106 0.95626,1.160102 4.42704,-1.447584 4.42704,-1.447581 3.36,-0.66303 3.36,-0.663027 2.88,-0.405949 2.88,-0.405949 7.36,0.0049 7.36,0.0049 3.36,0.409498 3.36,0.409497 3.95117,0.790186 3.95113,0.790189 3.41658,1.104505 3.41658,1.104506 2.39228,-0.812826 2.39226,-0.812822 3.04,-0.767965 3.04,-0.767965 2.78874,-0.482601 2.78873,-0.482602 4.41127,-0.371878 4.41126,-0.371882 5.28,0.193328 5.28,0.193328 2.72,0.343424 2.72,0.343424 3.92189,0.78809 3.92192,0.788089 3.43808,1.141264 3.43811,1.141268 3.2,1.522147 3.2,1.52215 1.5456,0.965972 1.5456,0.965971 6.1344,-1.875629 6.1344,-1.875629 3.84,-0.940906 3.84,-0.940908 3.32966,-0.671268 3.32967,-0.671264 5.31033,-0.775302 5.31034,-0.775302 5.6,-0.4884 5.6,-0.488401 8,-0.206236 8,-0.20624 5.9081,0.390832 5.908,0.390829 4.022,0.590307 4.0221,0.590307 3.804,0.853171 3.804,0.853171 3.5459,1.206247 3.5459,1.206243 1.68,0.680899 1.68,0.680896 v -2.235331 -2.235331 h 27.432 27.4319 l 2.1143,2.098054 2.1142,2.098051 2.4774,-0.984099 2.4773,-0.984102 3.5765,-1.081971 3.5764,-1.081972 3.68,-0.820752 3.68,-0.820748 4,-0.552221 4,-0.552221 7.52,-0.01453 7.52,-0.01453 2.88,0.425971 2.88,0.425968 3.0003,0.635715 3.0003,0.635719 3.6676,1.264643 3.6676,1.26464 2.7872,1.399811 2.7872,1.399811 2.9617,1.98105 2.9617,1.981053 2.8072,2.67143 2.8073,2.671431 2.3289,-1.752061 2.329,-1.752061 3.0045,-1.768205 3.0044,-1.768201 3.2154,-1.425655 3.2155,-1.425651 3.6811,-1.115798 3.6811,-1.115802 3.586,-0.651645 3.586,-0.651645 3.6,-0.198691 3.6,-0.198691 v 2.928954 2.92895 l -1.52,0.0026 -1.52,0.0026 -2.88,0.319523 -2.88,0.319524 -3.5058,0.660108 -3.5058,0.660112 -4.2344,1.393376 -4.2343,1.393376 -3.6853,1.798753 -3.6853,1.798755 -3.5706,2.385609 -3.5707,2.38562 -0.044,-0.0205 z M 614.64,97.567302 l -0.08,-0.0327 -3.04,-1.408947 -3.04,-1.408944 -4.32,-1.411344 -4.32,-1.411344 -3.68,-0.810074 -3.68,-0.810073 -3.36,-0.486356 -3.36,-0.486355 -4.48,-0.371174 -4.48,-0.371171 -8.48,0.185152 -8.48,0.185152 -3.65712,0.486777 -3.65712,0.486775 -2.74288,0.503561 -2.74288,0.503559 -4.16,1.08639 -4.16,1.086387 -2.20074,0.831303 -2.20076,0.831299 -0.11808,-0.118099 -0.11812,-0.118099 0.52733,-2.694487 0.52733,-2.69449 0.31152,-0.400976 0.31152,-0.400976 4.04,-1.293929 4.04,-1.29393 4.65136,-0.940643 4.65136,-0.94064 4.30864,-0.540368 4.30864,-0.540368 9.28,-0.01914 9.28,-0.01914 3.52,0.405309 3.52,0.405312 3.68,0.641744 3.68,0.641744 3.71178,0.936291 3.71177,0.936291 3.11677,1.128224 3.11677,1.128224 3.17145,1.491767 3.17146,1.491766 v 2.831719 2.831721 z m 721.0969,-0.636346 -1.3369,0.682055 v -2.836452 -2.836451 l 3.4952,-1.659741 3.4953,-1.659741 4.3572,-1.433833 4.3573,-1.433834 4.7117,-0.950573 4.7116,-0.950569 4.1559,-0.496938 4.1558,-0.496941 6.72,-0.192134 6.72,-0.192135 6.56,0.37776 6.56,0.377764 3.84,0.485814 3.84,0.485815 4,0.797283 4,0.797283 2.88,0.825693 2.88,0.825689 0.4,0.150852 0.4,0.150854 v -1.154237 -1.154237 h 27.432 27.4319 l 2.1445,2.128077 2.1446,2.12808 2.6635,-1.134048 2.6635,-1.134048 2.3948,-0.854121 2.3947,-0.854122 4.1653,-1.088195 4.1652,-1.088199 15.1588,-2.906224 15.1588,-2.906227 0.08,0.09452 0.08,0.09451 0.1779,3.52 0.178,3.52 -0.1599,-0.560198 -0.1599,-0.560198 -0.6965,0.159657 -0.6965,0.159658 -14.88,2.728595 -14.88,2.728595 -4.1861,1.097338 -4.1861,1.097341 -3.0139,1.092294 -3.0139,1.092295 -1.631,0.658332 -1.631,0.658333 -2.1008,-1.896019 -2.1008,-1.896022 h -27.7082 -27.7082 v 0.994236 0.994237 l -0.56,-0.221395 -0.56,-0.221395 -3.52,-0.916887 -3.52,-0.916886 -2.72,-0.496771 -2.72,-0.496768 -3.5387,-0.463232 -3.5387,-0.463232 -5.6935,-0.376919 -5.6935,-0.376915 -8.8478,0.169808 -8.8478,0.169811 -4,0.522275 -4,0.522272 -3.84,0.776749 -3.84,0.776749 -3.4716,0.997475 -3.4715,0.997476 -3.4315,1.379104 -3.4315,1.379107 z m -59.0169,-34.749741 -32.24,2.322473 v -3.432237 -3.432233 l 1.36,-0.179799 1.36,-0.179798 42.9323,-3.199808 42.9323,-3.199812 h 0.5182 0.5182 l -0.091,3.599805 -0.091,3.599802 -12.48,0.889568 -12.48,0.889568 z"
         id="path1130" />
      <path
         style="fill:#4a8d79;stroke-width:0.32"
         d="m 378.24,115.37091 h -17.12 l 8.56,-0.0907 8.56,-0.0907 8.56,0.0907 8.56,0.0907 z m 236.71562,-19.140562 -0.12026,1.529655 -0.003,-2.88 -0.003,-2.88 0.12202,1.350345 0.12201,1.350343 -0.12022,1.529657 z m 719.35998,0 -0.1202,1.529655 v -2.88 -2.88 l 0.122,1.350345 0.122,1.350343 -0.1202,1.529657 z m -267.0379,-0.550345 h -0.2423 l 0.096,-1.52 0.096,-1.52 0.1029,-0.64 0.1028,-0.64 0.044,2.16 0.044,2.16 z m 177.0423,-4.16 h -0.16 v -2.859725 -2.859725 l -1.04,-0.129063 -1.04,-0.129065 1.2,-0.05121 1.2,-0.05121 v 3.04 3.040001 z m -117.6892,-1.920001 h -0.089 l -2.0707,-2.16 -2.0708,-2.16 2.16,2.070756 2.16,2.070755 v 0.08924 0.08924 z m 349.12,0 h -0.089 l -2.0707,-2.16 -2.0708,-2.16 2.16,2.070756 2.16,2.070755 v 0.08924 0.08924 z m -1387.088938,-2.56 h -0.16 l 1.738138,-1.76 1.738138,-1.76 h 0.16 0.16 l -1.738138,1.76 -1.738138,1.76 z M 254.88,85.606518 l -29.76,3.5e-5 14.77579,-0.08646 14.77578,-0.08645 14.98422,0.08642 14.98421,0.08642 z m -13.12,-24.961784 -41.6,2e-5 20.69511,-0.0847 20.69512,-0.0847 20.90488,0.08469 20.90489,0.08468 z"
         id="path1128" />
      <path
         style="fill:#39816c;stroke-width:0.32"
         d="m 152.48,213.975 -2.24,0.003 1.03286,-0.12853 1.03286,-0.12853 1.20714,0.12595 1.20714,0.12595 -2.24,0.003 z m 324.48,-0.005 -2.56,-0.002 1.36845,-0.12291 1.36848,-0.12291 1.19152,0.12502 1.19155,0.12502 -2.56,-0.002 z m 94.24,0.007 h -2.08 l 1.04,-0.12906 1.04,-0.12907 1.04,0.12907 1.04,0.12906 z m 806.56,-0.003 -2.24,0.003 1.0329,-0.12853 1.0328,-0.12853 1.2072,0.12595 1.2071,0.12595 -2.24,0.003 z m -354.24,-73.93716 -3.84,-0.001 2.0125,-0.11394 2.0126,-0.11393 1.8274,0.11508 1.8275,0.11509 -3.84,-0.001 z m -864.16,-19.5388 h -9.12 l 4.56,-0.0983 4.56,-0.0983 4.56,0.0983 4.56,0.0983 z m 218.88,-0.32813 h -17.12 l 8.56,-0.0907 8.56,-0.0907 8.56,0.0907 8.56,0.0907 z M 1468.3914,117.76 h -0.089 l -2.2314,-2.32 -2.2314,-2.32 2.32,2.23142 2.32,2.23142 v 0.0886 0.0886 z m -802.56234,-1.28 h -0.0909 l -1.74908,-1.84 -1.74906,-1.84 1.84,1.74907 1.84,1.74907 v 0.0909 0.0909 z m 169.92,0 h -0.0909 l -1.74908,-1.84 -1.74906,-1.84 1.84,1.74907 1.84,1.74907 v 0.0909 0.0909 z M 242.72,67.684632 l -42.56,-1.6e-5 21.38492,-0.08458 21.38493,-0.08459 21.17507,0.0846 21.17508,0.0846 z m -90.08,-2.843017 h -3.36 l 1.68,-0.11753 1.68,-0.11753 1.68,0.11753 1.68,0.11753 z m 322.72,0.0016 -3.2,-0.0016 1.69072,-0.117901 1.69072,-0.117901 1.50928,0.119414 1.50928,0.119415 -3.2,-0.0016 z m -190.4,-4.142285 -1.92,-0.0033 1.04573,-0.129492 1.04573,-0.129491 0.87427,0.132755 0.87427,0.132759 -1.92,-0.0033 z"
         id="path1126" />
      <path
         style="fill:#215849;stroke-width:0.32"
         d="m 154.4,274.71807 -12.8,0.0844 -1.44,-0.12225 -1.44,-0.12225 -4.96,-0.50391 -4.96,-0.50391 -4.64,-0.78447 -4.64,-0.78447 -5.12358,-1.25912 -5.12358,-1.25911 -4.68412,-1.59663 -4.684118,-1.59663 -4.049197,-1.75206 -4.049197,-1.75206 -3.742483,-2.02279 -3.742487,-2.02279 -4.323315,-2.88 -4.323315,-2.88 -3.357306,-2.70353 -3.357302,-2.70352 -4.160912,-4.17648 -4.160912,-4.17647 -2.443094,-3.05235 -2.443095,-3.05235 -2.715712,-3.98765 -2.715715,-3.98765 -2.015846,-3.51011 -2.01585,-3.5101 -1.720195,-3.61891 -1.720195,-3.61892 -1.709012,-4.39098 -1.709011,-4.39098 -1.144841,-3.84 -1.144839,-3.84 -0.948358,-4 -0.948359,-4 -0.655036,-3.68 -0.655034,-3.68001 -0.483114,-3.84 -0.48311,-3.84 -0.337827,-3.68 -0.337827,-3.68 -0.290381,-8.13578 -0.290385,-8.13578 0.299111,-7.83484 0.299111,-7.83483 0.49608,-4.98938 0.496083,-4.98939 0.648873,-4.32 0.648877,-4.32 1.099277,-5.14833 1.099277,-5.14832 1.301625,-4.451677 1.301629,-4.45167 1.616621,-4.320001 1.616624,-4.32 1.584854,-3.52 1.584858,-3.52 1.924909,-3.52 1.924912,-3.52 2.983168,-4.48 2.983168,-4.48 2.799219,-3.47776 2.799216,-3.477764 3.870586,-3.8828 L 68.96,47.838875 72.48,45.010369 76,42.18186 l 4,-2.661248 4,-2.661248 3.2,-1.756723 3.2,-1.756723 3.36,-1.515117 3.36,-1.515117 3.68,-1.411812 3.68,-1.411812 4.83602,-1.40905 4.83603,-1.40905 4.60397,-0.953431 4.60398,-0.953431 4.32,-0.646062 4.32,-0.646062 4,-0.417487 4,-0.417486 h 12.8 12.8 l 5.21201,0.579206 5.212,0.579205 3.588,0.682357 3.58799,0.682357 55.36,0.200018 55.36,0.200018 4.78803,0.529396 4.78804,0.529397 3.53196,0.513624 3.53197,0.513624 5.39262,1.119062 5.39263,1.119062 4.36736,1.276978 4.36739,1.276979 4.32,1.615459 4.32,1.61546 4.28803,2.043686 4.288,2.04369 4.10496,2.449216 4.10496,2.449213 3.66195,2.750995 3.66196,2.750998 3.19241,2.80736 3.19242,2.80736 2.69161,2.952641 2.69162,2.95264 1.61238,1.958134 1.61236,1.958138 2.20867,-2.911053 2.20867,-2.91105 4.16,-4.296035 4.16,-4.296035 3.11325,-2.614759 3.11325,-2.614758 2.48675,-1.788637 2.48675,-1.78864 3.17917,-1.996474 3.1792,-1.996474 3.8608,-2.014608 3.86083,-2.014611 3.8384,-1.64645 3.8384,-1.646451 4.6416,-1.547946 4.6416,-1.547947 4.48,-1.125853 4.48,-1.125853 4.33814,-0.800961 4.33815,-0.80096 5.74185,-0.685959 5.74186,-0.685959 9.82122,-0.170492 9.82121,-0.170493 5.21879,0.380048 5.21878,0.380048 4.96,0.626277 4.96,0.626278 4,0.64381 4,0.64381 5.12,1.137355 5.12,1.137356 5.12,1.690475 5.12,1.690476 17.93875,7.883126 17.93872,7.883126 3.66128,0.0016 3.66125,0.0016 6.08,0.322247 6.08,0.322249 5.21539,0.654163 5.21539,0.654164 3.26397,0.621942 3.26397,0.621943 h 35.36426 35.36422 l 3.83642,-0.789127 3.83638,-0.78913 3.84,-0.499625 3.84,-0.499629 5.86918,-0.350989 5.86919,-0.350992 6.61651,0.352151 6.61648,0.35215 3.8343,0.486419 3.83434,0.486416 4.21878,0.824848 4.21882,0.824845 4.10118,-0.813337 4.10122,-0.813341 3.68,-0.500784 3.68,-0.500781 5.99891,-0.352477 5.99891,-0.352477 6.22327,0.364426 6.22329,0.364429 3.9378,0.504566 3.93782,0.504566 3.83949,0.773937 3.83949,0.773936 h 28.97548 28.97549 l 2.86503,-0.623152 2.86502,-0.623156 4.48,-0.647257 4.48,-0.647261 5.76,-0.360983 5.76,-0.360985 4.96,0.207933 4.96,0.207932 3.52,0.313296 3.52,0.313296 3.36,0.489108 3.36,0.48911 3.23398,0.644711 3.23402,0.644707 4.04224,-0.818602 4.04224,-0.818605 3.68813,-0.483469 3.68813,-0.483472 5.35564,-0.348416 5.35562,-0.348412 5.12,0.20798 5.12,0.207984 4.58986,0.468304 4.58985,0.468304 4.37015,0.79681 4.37014,0.79681 4.69267,1.271718 4.69271,1.271722 2.58748,0.954035 2.58749,0.954038 0.75018,-0.285216 0.75017,-0.285216 5.72964,-1.287769 5.72966,-1.287767 5.77174,-0.963356 5.77175,-0.963354 5.74825,-0.643005 5.74826,-0.643005 4.96,-0.319395 4.96,-0.319392 6.88,-0.207674 6.88,-0.207676 6.72,0.360921 6.72,0.360925 4.32,0.484938 4.32,0.48494 4.5735,0.788538 4.5736,0.788535 37.0264,-0.0013 37.0265,-0.0013 4,-0.775405 4,-0.775408 4,-0.502634 4,-0.502634 5.6,-0.354019 5.6,-0.354019 4.64,0.203549 4.64,0.203545 3.36,0.317248 3.36,0.317252 3.9223,0.650633 3.9223,0.650637 3.7676,0.920029 3.7677,0.920026 3.4927,1.16856 3.4927,1.168556 3.9373,1.690186 3.9374,1.690183 V 38.911111 22.868591 l 80.56,-6.032635 80.56,-6.032635 1.68,-0.166517 1.68,-0.166518 v 17.428695 17.428694 l 3.44,-0.140368 3.44,-0.140368 8.2015,0.361571 8.2014,0.361571 5.6647,0.646157 5.6647,0.64616 3.5738,0.625402 3.5739,0.625398 33.92,0.006 33.92,0.006 3.52,-0.824147 3.52,-0.824144 35.52,-6.789031 35.52,-6.789027 0.095,0.822829 0.095,0.822829 5.3889,84.787603 5.389,84.7876 -0.081,0.0905 -0.081,0.0905 -13.2428,0.54948 -13.2428,0.54947 -0.082,33.2 -0.082,33.20001 h -64.3438 -64.3437 l -5.4947,0.78839 -5.4948,0.78839 -5.6,0.56447 -5.6,0.56448 -13.76,0.006 -13.76,0.006 -4.7038,-0.56914 -4.7038,-0.56913 -4.505,-0.79023 -4.5051,-0.79023 -34.3111,10e-4 -34.3112,0.001 -4,0.77695 -4,0.77694 -4.48,0.58182 -4.48,0.58181 -11.2,-0.004 -11.2,-0.004 -4,-0.56742 -4,-0.56741 -3.9108,-0.78903 -3.9109,-0.78903 h -94.3441 -94.3442 l -2.865,0.62315 -2.865,0.62316 -4.64,0.72608 -4.64,0.72609 -11.2,0.0108 -11.2,0.0107 -4.32,-0.57865 -4.32,-0.57865 -3.91085,-0.78135 -3.91088,-0.78135 H 791.38269 602.58707 l -4.57353,0.78934 -4.57354,0.78934 -4.64,0.56985 -4.64,0.56985 -12.8,-0.003 -12.8,-0.003 -4.70381,-0.56578 -4.70377,-0.56577 -4.52954,-0.79452 -4.52957,-0.79453 -4.36665,-1.10511 -4.36666,-1.10512 -3.0327,-0.95644 -3.03268,-0.95643 -3.53692,1.07221 -3.5369,1.07222 -3.3504,0.81996 -3.3504,0.81996 -4.32,0.78806 -4.32,0.78806 -3.84,0.48888 -3.84,0.48887 -4.93946,0.3753 -4.93945,0.3753 -11.70055,-0.17067 -11.70054,-0.17066 -4.48,-0.49019 -4.48,-0.49019 -3.51555,-0.52206 -3.51555,-0.52205 -3.72285,-0.75822 -3.72282,-0.75821 -2.68163,-0.68191 -2.6816,-0.6819 -4,-1.29432 -4,-1.29431 -3.04,-1.2128 -3.04,-1.21279 -2.83318,-1.30903 -2.83316,-1.30902 -3.24684,-1.80868 -3.24682,-1.80869 -3.64291,-2.39065 -3.64288,-2.39065 -3.99053,-3.20655 -3.99053,-3.20655 -3.77325,-3.77323 -3.77321,-3.77323 -2.95789,-3.70029 -2.95789,-3.70028 h -0.39241 -0.39242 l -2.03952,2.48 -2.03949,2.48 -3.52355,3.54344 -3.52352,3.54344 -2.91907,2.41239 -2.91907,2.41238 -3.00093,2.08718 -3.00093,2.08717 -2.99958,1.81418 -2.99956,1.81417 -3.49862,1.75462 -3.49862,1.75462 -3.81645,1.56878 -3.81645,1.56879 -4.51174,1.47454 -4.51175,1.47454 -4.53849,1.09412 -4.53852,1.09411 -4.63511,0.79645 -4.63511,0.79644 -4.32,0.49367 -4.32,0.49367 -4.64,0.31749 -4.64,0.31748 -51.38301,0.003 -51.38302,0.003 -4.66489,0.79026 -4.66488,0.79025 -4.5921,0.52658 -4.5921,0.52658 -12.8,0.0844 z m -3.04,-60.69324 0.8,0.0437 6.31912,-0.30687 6.31912,-0.30687 4.40088,-0.64718 4.40088,-0.64717 3.63524,-0.95817 3.63524,-0.95818 2.92476,-1.16104 2.92476,-1.16105 2.88,-1.68876 2.88,-1.68876 2.41762,-2.06846 2.41762,-2.06846 1.62136,-2.04377 1.62135,-2.04376 1.51443,-2.34768 1.51443,-2.34767 1.39172,-2.93795 1.39172,-2.93795 0.98537,-3.01534 0.98537,-3.01535 0.78693,-3.88655 0.78694,-3.88655 0.55242,-4.29248 0.55242,-4.29249 0.005,-13.92 0.005,-13.92 -0.7211,-5.27025 -0.7211,-5.27025 -0.81679,-3.68975 -0.81679,-3.68975 -1.26677,-3.84 -1.26677,-3.84 -1.56566,-3.2 -1.56565,-3.2 -1.50507,-2.24 -1.50506,-2.239997 -1.74363,-1.996938 -1.74364,-1.996934 -2.77563,-2.089415 -2.77563,-2.089411 -3.04,-1.563731 -3.04,-1.563732 -3.23738,-1.124307 -3.23738,-1.124304 -3.64262,-0.804905 -3.64263,-0.804906 -4,-0.513779 -4,-0.513783 -6.56,-0.190937 -6.56,-0.190935 -4.96,0.374592 -4.96,0.374592 -3.98125,0.63824 -3.98124,0.63824 -2.47636,0.632272 -2.47636,0.632272 -2.8224,0.995703 -2.82239,0.995702 -2.24,1.117939 -2.24,1.117943 -2.5674,1.69727 -2.56739,1.697268 -2.79039,2.894585 -2.79038,2.894586 -1.40649,2.1742 -1.40649,2.17421 -1.31197,2.6019 -1.31197,2.6019 -1.079827,2.8373 -1.079827,2.8373 -0.992093,3.84 -0.99209,3.84 -0.501238,2.88 -0.501239,2.88 -0.494803,4.16 -0.494803,4.16 -0.176282,9.76 -0.176281,9.76 0.367859,5.44 0.367862,5.44 0.637991,4.38713 0.637993,4.38713 0.924836,3.66194 0.924832,3.66194 1.32126,3.31093 1.32126,3.31094 1.46579,2.56 1.46579,2.56 1.75821,2.35701 1.75822,2.35701 1.95238,1.92231 1.95239,1.9223 2.25214,1.59034 2.25215,1.59034 2.72,1.36981 2.72,1.36981 2.32063,0.83388 2.32063,0.83388 2.55774,0.65305 2.55773,0.65305 2.48163,0.45898 2.48164,0.45897 2.72,0.36605 2.72,0.36605 4.96,0.23915 4.96,0.23915 z m -3.6,-35.23719 -11.12,0.1735 0.006,-24.28057 0.006,-24.28057 0.29643,-2.05069 0.29643,-2.05069 0.75438,-1.46931 0.75438,-1.46931 1.36009,-0.75353 1.36009,-0.75354 1.66267,-0.49829 1.66267,-0.4983 11.7673,-0.13247 11.76731,-0.13247 -0.0873,26.0243 -0.0873,26.0243 -0.99796,1.76 -0.99796,1.76 -1.40204,0.72092 -1.40204,0.72092 -2.24,0.50615 -2.24,0.50616 z m 328.08,35.23955 1.12,0.047 5.96458,-0.31369 5.96457,-0.31369 3.63543,-0.50381 3.63542,-0.50381 2.82653,-0.62626 2.82653,-0.62626 3.46988,-1.12174 3.46986,-1.12173 -0.12717,-1.3516 -0.1272,-1.3516 -1.29625,-15.04 -1.29629,-15.04001 -0.16064,-1.00368 -0.16064,-1.00369 -2.95229,0.95045 -2.95232,0.95046 -3.36,0.75522 -3.36,0.75521 -3.84,0.56925 -3.84,0.56926 -9.12,-0.0174 -9.12,-0.0174 -3.52,-0.61602 -3.52,-0.61601 v -25.27779 -25.2778 l 0.3921,-1.28 0.39209,-1.28 0.95853,-1.16034 0.9585,-1.16035 1.4071,-0.66141 1.40707,-0.66141 2.84231,-0.56779 2.8423,-0.56778 7.52,9.6e-4 7.52,9.6e-4 3.04,0.38704 3.04,0.38704 5.04848,0.84653 5.04845,0.84653 0.19683,-0.19682 0.19683,-0.19682 2.94781,-14.72805 2.94781,-14.728043 h -0.42512 -0.42509 l 0.18829,-1.04 0.18829,-1.040001 0.24883,-1.196147 0.24883,-1.19615 -2.92512,-0.932157 -2.92512,-0.93216 -3.36,-0.672989 -3.36,-0.672989 -4.48,-0.623923 -4.48,-0.623923 -4.96,-0.378765 -4.96,-0.378762 -5.76,0.19968 -5.76,0.19968 -4,0.495684 -4,0.49568 -3.68,0.822086 -3.68,0.822087 -2.88,0.960185 -2.88,0.960186 -2.56,1.21896 -2.56,1.21896 -2.46973,1.614221 -2.46973,1.614217 -2.50342,2.391757 -2.50342,2.39176 -1.79072,2.501416 -1.79072,2.50141 -1.45965,2.72 -1.45965,2.72 -1.11133,2.88285 -1.11136,2.88286 -0.80585,3.19714 -0.80586,3.19715 -0.49443,2.88 -0.49443,2.88 -0.50512,4.32 -0.50512,4.32 -0.18087,10.4 -0.18086,10.4 0.37725,5.6 0.37721,5.6 0.48384,3.52 0.48384,3.52 0.65098,3.04 0.65097,3.04 0.96925,3.04 0.96928,3.04 1.22688,2.65675 1.22691,2.65676 2.05636,3.13846 2.05632,3.13847 2.1966,2.33828 2.19658,2.33829 2.55549,1.90191 2.55545,1.90191 3.52455,1.69573 3.52451,1.69573 2.6697,0.83302 2.66966,0.83301 3.89034,0.7761 3.8903,0.7761 3.2,0.37493 3.2,0.37492 5.12,0.2349 5.12,0.2349 1.12,0.047 z m 97.92,-0.16154 4.32,-0.1383 3.52,-0.31626 3.52,-0.31626 4,-0.80438 4,-0.80438 2.88,-0.95274 2.88,-0.95274 3.2,-1.58339 3.2,-1.58338 2.8096,-2.11547 2.8096,-2.11546 1.95779,-2.27471 1.95779,-2.27472 1.42621,-2.2047 1.42621,-2.20469 1.20624,-2.61204 1.20621,-2.61202 0.97325,-3.04 0.97324,-3.04 0.64608,-3.36001 0.64608,-3.36 0.38116,-4.07748 0.38115,-4.07749 -0.1696,-8.40251 -0.16957,-8.40252 -0.50918,-3.2 -0.50916,-3.2 -0.49174,-2.18801 -0.49178,-2.18802 -0.98496,-3.09198 -0.98499,-3.09199 -1.24163,-2.61429 -1.24166,-2.61429 -1.89392,-2.82571 -1.89392,-2.82571 -2.66925,-2.58501 -2.66925,-2.58502 -1.92,-1.29183 -1.92,-1.29183 -2.56,-1.28277 -2.56,-1.28277 -2.4,-0.86313 -2.4,-0.86312 -3.04,-0.7617 -3.04,-0.76169 -3.68,-0.57476 -3.68,-0.57477 -9.76,0.003 -9.76,0.003 -3.58749,0.57339 -3.58749,0.57339 -3.21059,0.7774 -3.21059,0.77741 -2.96192,1.14241 -2.96192,1.14242 -2.4,1.28706 -2.4,1.28706 -2.32909,1.77678 -2.32909,1.77677 -1.94294,2.11915 -1.94294,2.11915 -1.72858,2.59657 -1.72858,2.59658 -1.23923,2.68342 -1.2392,2.68343 -0.98566,3.07853 -0.98567,3.07852 -0.63548,3.16148 -0.63552,3.16147 -0.41408,3.36 -0.41412,3.36 -0.005,8.48 -0.005,8.48 0.41828,3.36 0.41824,3.36 0.81011,3.65484 0.81008,3.65484 0.96845,2.74516 0.96844,2.74516 1.1202,2.24 1.12022,2.24 1.48038,2.24 1.48039,2.24 2.24259,2.36223 2.24262,2.36222 1.76,1.34467 1.76,1.34467 2.24,1.31454 2.24,1.31454 2.88,1.15991 2.88,1.1599 3.55079,0.9204 3.55075,0.92039 3.64925,0.53553 3.64921,0.53553 4.32,0.24471 4.32,0.2447 4.32,-0.1383 z m -6.00947,-30.26913 -6.16951,0.15973 0.0895,-19.63812 0.0895,-19.63813 0.75088,-1.20775 0.75091,-1.20776 1.00909,-0.52785 1.00912,-0.52784 1.76,-0.4503 1.76,-0.45029 6.17411,-0.17583 6.17408,-0.17582 -0.0941,19.32172 -0.0941,19.32172 -0.8,1.41166 -0.8,1.41165 -0.8,0.57952 -0.8,0.57951 -1.92,0.52723 -1.92,0.52723 z m 442.16947,30.27859 3.04,-0.14158 2.4,-0.33132 2.4,-0.33131 3.0856,-0.77231 3.0856,-0.77231 2.8344,-0.9956 2.8344,-0.99559 3.1369,-1.6059 3.1369,-1.6059 1.9831,-1.45957 1.9831,-1.45956 1.6714,-1.58031 1.6713,-1.58032 5.5287,5.31056 5.5286,5.31056 10.1723,0.008 10.1723,0.008 -0.1145,-38.00001 -0.1144,-38 -0.5217,-2.08 -0.5216,-2.08 -0.612,-1.76143 -0.6119,-1.76144 -0.9808,-1.94296 -0.9808,-1.94296 -1.8088,-2.27028 -1.8088,-2.27028 -2.2364,-1.78185 -2.2365,-1.78186 -1.9943,-1.11524 -1.9942,-1.11526 -2.384,-0.98421 -2.3839,-0.98422 -3.52,-0.93017 -3.52,-0.93017 -2.88,-0.48019 -2.88,-0.48018 -4.103,-0.37636 -4.1031,-0.37636 -9.9769,0.18131 -9.977,0.18131 -4.8,0.50911 -4.8,0.50912 -3.84,0.62059 -3.84,0.6206 -3.2,0.65942 -3.2,0.65942 -3.7033,0.97834 -3.70329,0.97835 -0.34992,0.21625 -0.34989,0.21625 0.29251,1.56572 0.29251,1.56572 -0.27843,0.35195 -0.2784,0.35196 2.38157,13.75582 2.3816,13.75581 0.0575,0.0542 0.0575,0.0542 4,-1.09973 4,-1.09974 4.16,-0.7701 4.16004,-0.77011 4.48,-0.53218 4.48,-0.53217 10.1495,-0.16616 10.1494,-0.16616 1.7706,0.22121 1.7705,0.22122 v 1.85902 1.85903 l -10.32,0.1667 -10.32,0.1667 -4.421,0.66423 -4.421,0.66423 -2.779,0.65394 -2.77904,0.65394 -2.08,0.6726 -2.08,0.6726 -2.71389,1.10951 -2.71385,1.1095 -2.1609,1.26202 -2.16086,1.26202 -2.32525,1.87399 -2.32525,1.87398 -1.64368,2.03497 -1.64368,2.03496 -1.00643,1.71121 -1.0064,1.7112 -0.80727,1.9688 -0.80726,1.96879 -0.64925,2.56 -0.64928,2.56 -0.17539,5.82 -0.17542,5.82 0.39497,3.13786 0.39495,3.13785 0.78428,2.70636 0.78426,2.70635 1.32515,2.5758 1.32515,2.57579 2.57767,2.58798 2.57763,2.58799 2.39907,1.3923 2.39904,1.39231 2.68301,1.09384 2.68298,1.09384 3.07795,0.63291 3.07795,0.63292 4.00004,0.26129 4,0.26131 z m 10.2819,-30.27421 -7.478,0.14773 0.1353,-4.27431 0.1353,-4.27432 0.6621,-1.46877 0.6621,-1.46878 1.1377,-0.70313 1.1377,-0.70313 2.183,-0.46959 2.1829,-0.46959 6.8377,-0.21029 6.8378,-0.21029 -0.1224,4.45503 -0.1223,4.45503 -0.8623,1.47136 -0.8623,1.47136 -0.7579,0.49661 -0.7579,0.49661 -1.7352,0.55537 -1.7352,0.55537 z M 1252,213.85601 l 3.84,-0.13571 3.52,-0.47306 3.52,-0.47307 2.3931,-0.64616 2.3931,-0.64616 2.0869,-0.82498 2.0869,-0.82498 2.1835,-1.2638 2.1836,-1.26381 2.2113,-2.08607 2.2114,-2.08606 4.0851,3.86707 4.0851,3.86708 10.16,0.007 10.16,0.007 V 144.31999 77.759993 h -1.1921 -1.1921 l -17.1279,1.273894 -17.1279,1.273891 -1.68,0.189133 -1.68,0.189133 v 14.856976 14.85697 l -12.88,0.003 -12.88,0.003 -2.88,0.32604 -2.88,0.32604 -2.9972,0.79364 -2.9971,0.79364 -2.5034,1.08484 -2.5034,1.08484 -2.7358,1.78334 -2.7359,1.78333 -2.0124,2.01238 -2.0124,2.01238 -1.5324,2.14752 -1.5324,2.14751 -1.5804,3.10393 -1.5803,3.10394 -1.0988,3.39898 -1.0988,3.39898 -0.6406,3.18671 -0.6407,3.18671 -0.4155,3.36 -0.4155,3.36 v 8.48 8.48 l 0.4049,2.88 0.4049,2.88 0.6634,3.36 0.6634,3.36 1.2349,3.77157 1.2349,3.77157 1.584,3.26843 1.584,3.26843 1.3416,2.0625 1.3416,2.06249 1.9666,2.05501 1.9666,2.05501 1.76,1.34939 1.76,1.34939 2.24,1.31803 2.24,1.31803 2.88,1.10586 2.88,1.10586 3.2579,0.69483 3.2579,0.69482 3.4621,0.25024 3.4621,0.25025 3.84,-0.1357 z m 3.9105,-30.25565 -6.3295,0.16175 0.09,-19.64105 0.09,-19.64106 0.7509,-1.20775 0.7509,-1.20776 1.0091,-0.52785 1.0091,-0.52784 1.76,-0.4503 1.76,-0.45029 6.1719,-0.17578 6.1719,-0.17577 -0.092,19.32167 -0.092,19.32167 -0.5974,1.12 -0.5974,1.12 -0.6642,0.72616 -0.6641,0.72616 -2.0985,0.67314 -2.0984,0.67314 z m 124.8895,30.26441 4.96,-0.13478 4.64,-0.32347 4.64,-0.32345 4.64,-0.61599 4.64,-0.61598 4.48,-0.81872 4.48,-0.81871 4.32,-1.03482 4.32,-1.03483 -0.059,-1.0441 -0.058,-1.0441 -2.2994,-14.14791 -2.2995,-14.14791 -0.079,-0.0907 -0.079,-0.0907 -4.5609,1.28898 -4.5608,1.28897 -4.6818,0.93742 -4.6818,0.93741 -4.0403,0.51386 -4.0403,0.51385 -5.3997,0.27236 -5.3997,0.27236 -5.28,-0.26564 -5.28,-0.26563 -0.56,-0.0163 -0.56,-0.0163 v -2.4 -2.4 l 3.28,-1.9e-4 3.28,-1.8e-4 5.92,-0.33147 5.92,-0.33147 4.0062,-0.46279 4.0063,-0.46279 2.8737,-0.49659 2.8738,-0.49658 3.6571,-0.9516 3.657,-0.9516 2.5249,-1.09161 2.5249,-1.0916 1.7793,-1.06576 1.7793,-1.06577 2.3154,-2.15108 2.3153,-2.15108 1.3527,-2.07618 1.3527,-2.07617 0.933,-2.40289 0.933,-2.40289 0.5066,-2.32985 0.5065,-2.32986 0.1703,-4.96 0.1703,-4.96 -0.3651,-3.95964 -0.365,-3.95965 -0.6066,-2.77936 -0.6066,-2.77937 -1.0057,-2.60773 -1.0056,-2.60773 -1.5232,-2.33337 -1.5233,-2.33337 -2.0324,-1.83921 -2.0324,-1.83921 -3.2262,-1.59025 -3.2262,-1.59025 -2.88,-0.82857 -2.88,-0.82858 -4.48,-0.75613 -4.48,-0.75613 -4.4981,-0.34573 -4.4981,-0.34572 h -7.0463 -7.0463 l -3.4956,0.34015 -3.4956,0.34015 -4,0.79573 -4,0.79573 -3.314,1.10661 -3.314,1.10662 -2.9201,1.50815 -2.92,1.50815 -2.465,1.85742 -2.465,1.85742 -1.973,2.15193 -1.973,2.15194 -1.7285,2.59657 -1.7286,2.59658 -1.2392,2.68342 -1.2392,2.68343 -0.9857,3.07852 -0.9857,3.07853 -0.6355,3.16147 -0.6355,3.16148 -0.4141,3.36 -0.4141,3.36 v 8.48 8.48 l 0.4183,3.36 0.4182,3.36 0.8101,3.65484 0.8101,3.65484 0.9685,2.74516 0.9684,2.74516 1.1202,2.24 1.1202,2.24 1.4804,2.24 1.4804,2.24 2.2426,2.36223 2.2426,2.36222 1.76,1.34467 1.76,1.34467 2.24,1.31454 2.24,1.31454 2.88,1.1599 2.88,1.15991 3.5508,0.92039 3.5508,0.9204 3.6492,0.53553 3.6492,0.53553 4.32,0.24251 4.32,0.24252 4.96,-0.13479 z m -7.4714,-60.91465 -5.3914,0.01 0.1114,-4.24 0.1114,-4.24 0.7509,-1.20776 0.7509,-1.20776 1.0091,-0.52784 1.0091,-0.52785 1.76,-0.45565 1.76,-0.45565 7.154,-0.16755 7.1539,-0.16755 -0.1143,3.95881 -0.1143,3.9588 -0.6675,1.28 -0.6675,1.28 -1.0605,0.72068 -1.0605,0.72068 -1.2069,0.32499 -1.2069,0.32498 -2.3447,0.30445 -2.3448,0.30446 -5.3914,0.01 z M 257.4491,210.88001 h 32.1691 l 4.7109,-0.49148 4.7109,-0.49147 4,-0.80359 4,-0.80358 3.71593,-1.23921 3.71593,-1.23922 2.68407,-1.34888 2.68407,-1.34888 1.92,-1.29253 1.92,-1.29252 2.4423,-2.42783 2.44231,-2.42783 1.95731,-3.02666 1.95731,-3.02665 1.42042,-3.36984 1.42041,-3.36983 0.83357,-2.88001 0.83357,-2.88 0.77542,-3.84 0.77546,-3.84 0.54029,-4.96 0.54029,-4.96 0.003,-10.24 0.003,-10.24 -0.3856,-4 -0.38557,-4 -0.63587,-3.98124 -0.63588,-3.98125 -0.64518,-2.57875 -0.64522,-2.57876 -0.9926,-3.04 -0.99261,-3.04 -1.23274,-2.68342 -1.23277,-2.68343 -1.77222,-2.6635 -1.77222,-2.6635 -1.66839,-1.830307 -1.66838,-1.830311 -2.56,-1.91191 -2.56,-1.911911 -3.52,-1.694067 -3.52,-1.694067 -2.56,-0.837255 -2.56,-0.837254 -3.36,-0.760755 -3.36,-0.760755 -3.60501,-0.49794 -3.605,-0.497942 -5.6748,-0.314698 -5.675,-0.314694 -28.56,-0.0061 -28.56,-0.0061 V 148.16 210.88001 Z M 275.44,177.91367 265.28,177.92 V 149.6 121.28 l 9.52,9.6e-4 9.52,9.6e-4 2.83192,0.34732 2.83191,0.34731 1.80093,0.61961 1.80092,0.61961 1.03998,1.00799 1.03998,1.00799 0.56718,1.62419 0.56718,1.62418 v 21.12 21.12 l -0.57907,1.66 -0.57908,1.65999 -1.24186,1.12195 -1.24186,1.12194 -1.69906,0.50773 -1.69907,0.50773 -2.08,0.30399 -2.08,0.30399 -10.16,0.006 z m 384.55379,32.96634 h 19.99383 l 0.0862,-30.96001 0.0862,-30.96 0.86131,-1.46512 0.86135,-1.46511 1.25568,-0.83098 1.25568,-0.83097 1.24297,-0.31871 1.24301,-0.31872 4.24,-0.22089 4.24,-0.22088 v 33.79569 33.7957 h 20.16 20.16 v -30.73028 -30.73028 l 0.49526,-1.18536 0.4953,-1.18535 0.7047,-0.75604 0.70474,-0.75605 1.54717,-0.78748 1.54717,-0.78749 3.57283,-0.29563 3.57283,-0.29563 1.36,-0.005 1.36,-0.005 v 33.76 33.76 h 20.17226 20.17228 l -0.10112,-42 -0.10115,-42 -0.56502,-1.90896 -0.56503,-1.90895 -0.9918,-2.01463 -0.99181,-2.01464 -1.88922,-2.06176 -1.88925,-2.06175 -2.24592,-1.4931 -2.24592,-1.49309 -2.50262,-1.05546 -2.50259,-1.05547 -3.31655,-0.81411 -3.31654,-0.81411 -3.33478,-0.37213 -3.33479,-0.37213 -6.10521,0.17393 -6.10522,0.17392 -3.2,0.6857 -3.2,0.6857 -2.78093,0.92803 -2.78093,0.92802 -3.13907,1.59504 -3.13907,1.59503 -0.92816,0.63145 -0.92819,0.63146 -1.63181,-1.21795 -1.63184,-1.21795 -1.76,-0.97966 -1.76,-0.97966 -3.36,-1.11085 -3.36,-1.11084 -3.2,-0.58162 -3.2,-0.58162 -8.16,0.009 -8.16,0.009 -3.0985,0.69209 -3.09846,0.69208 -2.48778,0.83512 -2.48774,0.83511 -3.11427,1.59969 -3.11427,1.59968 -2.17949,1.61336 -2.17949,1.61337 -1.20634,1.1581 -1.20633,1.1581 -4.33997,-4.55112 -4.34,-4.55113 H 650.0537 640 v 50.24 50.24001 z m 169.92,0 h 19.99383 l 0.0862,-30.96001 0.0862,-30.96 0.86131,-1.46512 0.86135,-1.46511 1.25568,-0.83098 1.25568,-0.83097 1.24297,-0.31871 1.24301,-0.31872 4.24,-0.22089 4.24,-0.22088 v 33.79569 33.7957 h 20.16 20.16 v -30.73028 -30.73028 l 0.49526,-1.18536 0.4953,-1.18535 0.7047,-0.75604 0.70474,-0.75605 1.54717,-0.78748 1.54717,-0.78749 3.57283,-0.29563 3.57283,-0.29563 1.36,-0.005 1.36,-0.005 v 33.76 33.76 h 20.17226 20.17228 l -0.10112,-42 -0.10115,-42 -0.56502,-1.90896 -0.56503,-1.90895 -0.9918,-2.01463 -0.99181,-2.01464 -1.88922,-2.06176 -1.88925,-2.06175 -2.24592,-1.4931 -2.24592,-1.49309 -2.50262,-1.05546 -2.50259,-1.05547 -3.31655,-0.81411 -3.31654,-0.81411 -3.33478,-0.37213 -3.33479,-0.37213 -6.10521,0.17393 -6.10522,0.17392 -3.2,0.6857 -3.2,0.6857 -2.78093,0.92803 -2.78093,0.92802 -3.13907,1.59504 -3.13907,1.59503 -0.92816,0.63145 -0.92819,0.63146 -1.63181,-1.21795 -1.63184,-1.21795 -1.76,-0.97966 -1.76,-0.97966 -3.36,-1.11085 -3.36,-1.11084 -3.2,-0.58162 -3.2,-0.58162 -8.16,0.009 -8.16,0.009 -3.0985,0.69209 -3.09846,0.69208 -2.48778,0.83512 -2.48774,0.83511 -3.11427,1.59969 -3.11427,1.59968 -2.17949,1.61336 -2.17949,1.61337 -1.20634,1.1581 -1.20633,1.1581 -4.33997,-4.55112 -4.34,-4.55113 H 819.9737 809.92 v 50.24 50.24001 z m 282.56161,0 h 19.9954 l 0.085,-31.49038 0.085,-31.49038 0.9841,-1.22962 0.9842,-1.22963 2.1971,-0.74193 2.1972,-0.74193 3.5387,-0.29286 3.5387,-0.29286 2.96,-0.005 2.96,-0.005 v 33.76 33.76 h 20 20 v -41.41185 -41.41185 l -0.4742,-2.50815 -0.4742,-2.50815 -1.2956,-2.62851 -1.2956,-2.62851 -1.9902,-2.01649 -1.9902,-2.01649 -2.08,-1.35999 -2.08,-1.35998 -2.5396,-0.98198 -2.5396,-0.98198 -2.7404,-0.63591 -2.7404,-0.6359 -5.9546,-0.17801 -5.9546,-0.178 -3.1654,0.37223 -3.1654,0.37223 -3.2,0.64529 -3.2,0.64529 -4.32,1.43307 -4.32,1.43307 -4.16,2.0556 -4.16,2.05559 -2.9209,1.89763 -2.9209,1.89762 -4.9152,-4.92294 -4.9153,-4.92292 h -10.0038 -10.0039 v 50.24 50.24001 z m 348.8046,0 h 20 V 183.2233 155.5666 l 1.1687,-0.96335 1.1687,-0.96334 1.9513,-0.94981 1.9513,-0.94981 1.6,-0.5363 1.6,-0.53631 3.5964,-0.91096 3.5965,-0.91096 3.0435,-0.39819 3.0436,-0.39819 0.01,-1.78469 0.01,-1.78469 -1.1611,-18.4 -1.1612,-18.4 -0.1256,-0.13429 -0.1256,-0.13429 -2.639,0.56327 -2.639,0.56327 -3.84,1.27761 -3.84,1.2776 -3.5377,1.72447 -3.5377,1.72448 -2.7023,1.80847 -2.7023,1.80846 -1.868,1.56048 -1.868,1.56047 -0.212,-1.1e-4 -0.212,-10e-5 -5.2242,-5.4399 -5.2241,-5.43989 h -10.0558 -10.0559 v 50.24 50.24001 z M 374.62675,172.3946 400.8,172.28122 l 2.1689,-0.56876 2.16892,-0.56876 0.99661,-0.83861 0.99664,-0.83861 0.58743,-1.29324 0.58745,-1.29324 0.007,-13.37565 0.007,-13.37565 -26,0.11504 -26,0.11505 -2.05817,0.55046 -2.05818,0.55047 -1.03914,0.64221 -1.0391,0.64221 -0.74269,1.50793 -0.74272,1.50793 -0.0933,13.374 -0.0933,13.37399 26.17328,-0.11339 z m 1155.84475,-4.3146 0.129,-1.04 -0.129,-1.04 -0.1291,-1.04 v 2.08 2.08 z m -0.3189,-4.31154 0.125,-1.19154 -0.1229,-1.36846 -0.1229,-1.36846 v 2.56 2.56 l 0.125,-1.19154 z m -0.3195,-5.12846 0.1255,-1.2 -0.1255,-1.2 -0.1255,-1.2 v 2.4 2.4 z m -1042.86187,-1.97125 2.17123,-0.21395 2.38877,-0.55343 2.38877,-0.55344 0.0915,-0.95396 0.0915,-0.95397 0.45773,-3.64794 0.45773,-3.64795 -0.22116,-0.35205 -0.22115,-0.35206 -0.22966,1.28 -0.22963,1.28 -0.0234,1.6 -0.0234,1.6 -0.23511,0.36533 -0.2351,0.36533 -3.2,0.66057 -3.2,0.66056 -1.2,0.0795 -1.2,0.0795 v 1.73595 1.73594 l 2.17123,-0.21395 z M 1529.527,153.76 l 0.087,-1.28 -2.385,-37.39133 -2.385,-37.391333 -0.102,-0.0808 -0.102,-0.0808 -15.36,2.949597 -15.36,2.9496 -3.2012,0.827606 -3.2011,0.82761 -3.7991,1.309978 -3.799,1.309977 -2.0047,0.908963 -2.0047,0.908967 -2.0258,-2.044019 -2.0259,-2.04402 h -27.7693 -27.7692 v 0.96 0.96 h -0.1937 -0.1938 l -2.6062,-0.788057 -2.6063,-0.788058 -2.88,-0.633926 -2.88,-0.63393 -4.48,-0.642717 -4.48,-0.642716 -5.1885,-0.374141 -5.1885,-0.374144 -10.0115,0.168736 -10.0115,0.168736 -4.392,0.659005 -4.3919,0.659001 -3.7681,0.840688 -3.768,0.840688 -3.8357,1.277559 -3.8357,1.277558 -3.7643,1.780816 -3.7643,1.780816 v 2.971287 2.971283 l 2.64,-1.226163 2.64,-1.226167 3.1541,-1.171101 3.1542,-1.171097 4.2058,-1.074269 4.2059,-1.074269 4,-0.659686 4,-0.659684 3.2,-0.316083 3.2,-0.316083 5.6,-0.209776 5.6,-0.209779 6.88,0.357846 6.88,0.35785 4.32,0.494982 4.32,0.494986 4.64,0.93392 4.64,0.93392 2.64,0.77383 2.64,0.773831 v -1.082746 -1.082745 h 27.5914 27.5914 l 2.0081,1.99032 2.0082,1.990323 1.0405,-0.417792 1.0404,-0.417795 4,-1.438925 4,-1.438925 4.16,-1.064758 4.16,-1.064762 15.1435,-2.778723 15.1434,-2.778727 0.1198,0.11977 0.1197,0.119766 2.3368,35.350111 2.3368,35.35011 z m -1460.061064,-13.6 0.254534,-3.68 0.359488,-3.04 0.359488,-3.04 0.638618,-3.82304 0.638618,-3.82305 1.234272,-4.8378 1.234272,-4.83781 1.173212,-3.17915 1.173216,-3.17915 1.839092,-3.84 1.839094,-3.839997 1.649821,-2.656868 1.649821,-2.656864 1.807043,-2.400998 1.807043,-2.400999 2.375603,-2.52528 2.375603,-2.52528 2.942612,-2.380573 2.942614,-2.380569 2.24,-1.438835 2.24,-1.438839 3.04,-1.608202 3.04,-1.608198 3.79636,-1.487987 3.79636,-1.487984 4.00673,-1.098122 4.00672,-1.098122 4.03691,-0.780979 4.03692,-0.780976 4.48,-0.579229 4.48,-0.579225 11.52,-0.0029 11.52,-0.0029 3.52,0.414157 3.52,0.414153 3.84,0.640403 3.84,0.640404 3.96399,0.968265 3.964,0.968266 3.716,1.298778 3.71601,1.298774 3.00674,1.3984 3.00675,1.3984 h 0.12408 0.12408 l -0.0908,-3.44 -0.0908,-3.44 -2.4,-1.19801 -2.4,-1.198009 -3.26,-1.2836 -3.26001,-1.2836 -3.91387,-1.126532 -3.91387,-1.126531 -4.18613,-0.770966 -4.18612,-0.770967 -4.32,-0.523238 -4.32,-0.523239 -8,-0.177683 -8,-0.177686 -5.12,0.37095 -5.12,0.370951 -4.64,0.6595 -4.64,0.659501 -5.48173,1.385047 -5.48174,1.385046 -3.65126,1.427674 -3.65127,1.42767 -2.94483,1.478983 -2.94483,1.478982 -2.16217,1.319725 L 100,70.80381 l -2.88,2.16377 -2.88,2.163769 -3.380928,3.474381 -3.380931,3.474384 -1.824343,2.4701 -1.824345,2.470099 -1.812138,2.969901 -1.812141,2.969901 -1.656713,3.52 -1.656717,3.519995 -1.132314,3.04 -1.132313,3.04 -1.140647,4.16001 -1.140643,4.16 -0.789209,4.16 -0.789207,4.16 -0.49567,4 -0.495667,4 -0.326736,4.48 -0.326736,4.48 0.0444,2.08 0.0444,2.08 0.254538,-3.68 z M 378.19088,120.32 h 16.88621 l 1.17689,-4.3551 1.17693,-4.35511 1.65338,-4.14009 1.65341,-4.14009 1.90384,-3.424807 1.90384,-3.4248 2.01264,-2.88 2.0126,-2.88 2.30208,-2.652234 2.30208,-2.652231 2.768,-2.419955 2.768,-2.419955 3.36461,-2.25633 3.36461,-2.256333 4.44214,-2.174925 4.44212,-2.174928 4.83788,-1.58632 4.83786,-1.586323 3.82992,-0.855216 3.82992,-0.855216 4.01008,-0.587094 4.01008,-0.587092 5.0328,-0.390784 5.0328,-0.390787 8.4072,0.174899 8.4072,0.174896 4.32,0.523274 4.32,0.52327 4.11024,0.622176 4.11027,0.622173 3.72973,0.833031 3.72976,0.833027 3.04,0.969501 3.04,0.969501 9.40515,3.959987 9.40519,3.959987 h 0.0809 0.081 l 0.57172,-3.035494 0.57174,-3.035498 -0.13786,-0.119997 -0.13782,-0.119997 -10.24,-4.480237 -10.24,-4.48024 -2.56,-0.830185 -2.56,-0.830186 -2.58474,-0.64679 -2.58476,-0.646791 -4.61847,-0.807613 -4.61849,-0.807612 -5.59677,-0.662141 -5.59677,-0.662141 -7.2,-0.180397 -7.2,-0.180393 -5.39034,0.382028 -5.39033,0.382029 -4.05975,0.595843 -4.05974,0.595847 -3.82992,0.847069 -3.82992,0.847068 -4.67043,1.547361 -4.67043,1.54736 -3.40362,1.605491 -3.40365,1.605494 -2.73273,1.65064 -2.73271,1.65064 -2.59536,1.92433 -2.59533,1.92433 -2.87862,2.770093 -2.87859,2.770089 -1.89511,2.314231 -1.8951,2.31423 -2.09859,3.12577 -2.09863,3.12577 -2.5103,5.12 -2.51034,5.119997 -1.42758,4.32 -1.42755,4.32 -0.56218,2.64 -0.56214,2.64 h -16.86752 -16.86752 l -0.3704,-1.52 -0.37043,-1.52 -0.80992,-2.79541 -0.80989,-2.79542 -1.27955,-3.28458 -1.27956,-3.28459 -1.74985,-3.482097 -1.74983,-3.482102 -1.47241,-2.277898 -1.47242,-2.277901 -1.46413,-1.904412 -1.46412,-1.904413 -1.70941,-1.935588 -1.70944,-1.935587 -2.62231,-2.342566 -2.6223,-2.342567 -3.69418,-2.483817 -3.69417,-2.483821 -3.66583,-1.779114 L 323.68,67.589 l -2.4,-0.865478 -2.4,-0.865479 -3.04,-0.927721 -3.04,-0.927722 -4.64,-0.943139 -4.64,-0.943139 -4,-0.493981 -4,-0.493978 -5.44,-0.321085 -5.44,-0.321084 -42.16,-0.0032 -42.16,-0.003 v 3.667088 3.667088 l 47.12,0.11567 47.12,0.115671 4,0.539206 4,0.539207 3.68,0.653907 3.68,0.65391 3.16907,0.802144 3.16908,0.802147 3.39092,1.132964 3.39093,1.132963 3.46483,1.544406 3.46483,1.54441 2.93517,1.752266 2.93517,1.752268 2.56,1.95906 2.56,1.959056 2.83366,2.793286 2.83367,2.793284 2.02019,2.572515 2.02019,2.572512 1.59239,2.567418 1.59235,2.56742 1.31248,2.6104 1.31248,2.6104 1.24675,3.12967 1.24672,3.12966 0.81498,2.72 0.81494,2.72 0.35194,1.36 0.35193,1.36 z m 827.60812,-15.76044 0.5601,-0.39956 2.6605,-1.78037 2.6604,-1.78036 1.8688,-1.038627 1.8688,-1.038624 2.7712,-1.219076 2.7712,-1.219072 2.9815,-0.990707 2.9816,-0.990707 3.5784,-0.790099 3.5785,-0.790099 3.04,-0.332845 3.04,-0.332845 2.16,-0.193754 2.16,-0.193753 v -3.055754 -3.05575 l -3.28,0.230022 -3.28,0.230026 -3.68,0.600979 -3.68,0.600979 -3.36,0.947946 -3.36,0.947945 -3.52,1.474963 -3.52,1.474961 -3.106,1.757497 -3.1061,1.757495 -2.5977,1.926131 -2.5978,1.926128 -2.2584,-2.130451 -2.2584,-2.130448 -2.7578,-2.056205 -2.7578,-2.056208 -4.48,-2.207044 -4.48,-2.207043 -3.0785,-0.968102 -3.0786,-0.968103 -3.1614,-0.6355 -3.1615,-0.635498 -3.3217,-0.377632 -3.3216,-0.377629 -7.7184,0.167958 -7.7183,0.167959 -4,0.65409 -4,0.654089 -2.24,0.518058 -2.24,0.518057 -2.88,0.818647 -2.88,0.818646 -3.4638,1.287047 -3.4638,1.287046 -1.9848,-1.967181 -1.9848,-1.967181 h -27.5914 -27.5914 v 2.117322 2.117322 l -0.56,-0.178039 -0.56,-0.178038 -2.9031,-1.124205 -2.9032,-1.124205 -2.8568,-0.828672 -2.8569,-0.828672 -3.84,-0.775661 -3.84,-0.77566 -4.16,-0.567975 -4.16,-0.567978 -13.6,0.01338 -13.6,0.01338 -5.28,0.550529 -5.28,0.550524 -4.48,0.657472 -4.48,0.657472 -4.64,0.950512 -4.64,0.950512 -3.04,0.794413 -3.04,0.794416 -5.80102,1.771959 -5.80103,1.771958 -1.60288,-0.986262 -1.60288,-0.986263 -3.31609,-1.552422 -3.3161,-1.552423 -3.04,-0.995548 -3.04,-0.995549 -2.72,-0.637066 -2.72,-0.637069 -3.2,-0.518 -3.2,-0.518003 -7.77677,-0.171334 -7.77673,-0.171335 -3.58327,0.38192 -3.58323,0.381917 -3.84,0.766141 -3.84,0.766141 -3.66707,1.164147 -3.66707,1.164147 -3.21293,-0.992611 -3.21293,-0.992608 -2.72,-0.623565 -2.72,-0.623561 -3.36,-0.527927 -3.36,-0.527926 -7.75258,-0.167696 -7.75257,-0.167696 -3.60743,0.372604 -3.60742,0.372609 -3.968,0.798163 -3.968,0.798166 -4.10474,1.371171 -4.1047,1.371172 -1.03005,-1.062743 -1.03005,-1.062742 H 812.41722 784.64 v 0.674237 0.674236 l -0.52531,-0.20158 -0.52531,-0.201578 -2.75469,-0.790918 -2.75469,-0.790922 -2.96205,-0.644941 -2.96205,-0.644944 -4.076,-0.476797 -4.07596,-0.476793 h -6.6256 -6.62557 l -3.77639,0.49391 -3.77638,0.493911 -3.14326,0.650185 -3.14324,0.650189 -3.56201,1.127923 -3.56202,1.127927 -3.69475,-1.147872 -3.69472,-1.147876 -3.07088,-0.626793 -3.07088,-0.626797 -4.60912,-0.531959 -4.60912,-0.531961 -8,0.154941 -8,0.15494 -3.68,0.664199 -3.68,0.664202 -3.15981,0.824771 -3.15984,0.824771 -2.44016,0.953366 -2.44019,0.95337 -0.91104,-1.122675 -0.91104,-1.122672 H 642.84896 615.04 v 3.04 3.04 h 27.5865 27.58652 l 1.14791,1.120909 1.1479,1.120912 3.19658,-1.076493 3.19654,-1.076493 3.50903,-0.830505 3.50902,-0.830503 3.84,-0.555827 3.84,-0.555831 7.52,0.01443 7.52,0.01443 4.16,0.538484 4.16,0.538483 3.68,0.818963 3.68,0.818963 2.74346,0.878013 2.74345,0.878013 0.77655,-0.29313 0.77654,-0.293126 4,-1.102186 4,-1.102182 3.52,-0.611338 3.52,-0.611337 4.8,-0.377965 4.8,-0.377962 4.8,0.216794 4.8,0.21679 3.68,0.471735 3.68,0.471734 3.57405,0.798339 3.57401,0.79834 2.32202,0.789769 2.32202,0.789767 h 0.10396 0.10394 v -0.8 -0.8 h 27.5865 27.58652 l 1.13348,1.099401 1.1335,1.099405 3.70675,-1.230435 3.70675,-1.230435 3.01325,-0.649792 3.01325,-0.649796 3.84,-0.561091 3.84,-0.561088 7.52,0.01168 7.52,0.01168 4.16,0.550371 4.16,0.550371 3.52,0.778074 3.52,0.778074 2.88,0.896134 2.88,0.896135 3.28726,-1.040692 3.28727,-1.040688 3.91273,-0.794185 3.91274,-0.794186 3.2,-0.400406 3.2,-0.400407 6.72,-0.0029 6.72,-0.0029 3.52,0.399037 3.52,0.399034 3.97117,0.796985 3.97113,0.796983 3.92503,1.27695 3.92502,1.276947 4.33133,2.169188 4.3313,2.169184 4.57251,-1.381044 4.57251,-1.381046 5.76,-1.430621 5.76,-1.430624 5.6,-0.945517 5.6,-0.94552 4.48,-0.497907 4.48,-0.49791 4,-0.305632 4,-0.305636 7.2,-0.213408 7.2,-0.213404 5.9553,0.358675 5.9552,0.358675 3.8048,0.498294 3.8047,0.498295 4,0.805725 4,0.805725 5.12,1.699209 5.12,1.69921 0.56,0.228125 0.56,0.228124 v -2.1142 -2.114237 h 27.5477 27.5477 l 2.0201,1.939824 2.0201,1.939824 4.7522,-1.592615 4.7522,-1.592614 3.36,-0.815917 3.36,-0.81592 4,-0.641491 4,-0.641488 4.96,-0.365066 4.96,-0.365065 4.32,0.215612 4.32,0.215616 2.56,0.316077 2.56,0.316077 3.2,0.657664 3.2,0.657664 3.3556,1.097338 3.3556,1.097341 3.2599,1.557225 3.2599,1.557226 2.3445,1.516419 2.3445,1.516419 2.24,1.84068 2.24,1.84067 0.9395,0.99381 0.9394,0.99381 0.5601,-0.39956 z m -590.839,-6.673944 0.08,0.03439 v -2.992045 -2.992042 l -3.76,-1.777027 -3.76,-1.777024 -3.37421,-1.127325 -3.37424,-1.127322 -2.65885,-0.678864 -2.65884,-0.678864 -4.52692,-0.75878 -4.52694,-0.758784 -4.25584,-0.385985 -4.25587,-0.385987 -9.34413,0.172375 -9.34416,0.172374 -4.39197,0.656544 -4.39193,0.656544 -3.76375,0.844141 -3.76374,0.844138 -3.41792,1.1124 -3.41792,1.112396 -0.5017,0.37457 -0.50166,0.374566 -0.61943,3.038618 -0.61942,3.038618 0.0547,0.05379 0.0547,0.05379 4.16,-1.384118 4.16,-1.384116 3.82992,-0.853276 3.82992,-0.853277 4.17008,-0.613146 4.17008,-0.613142 6.60771,-0.378 6.60771,-0.378 6.51709,0.379808 6.51706,0.379808 4.16531,0.611334 4.16528,0.611338 3.82992,0.857629 3.82992,0.857632 3.84,1.265404 3.84,1.265405 3.36,1.547559 3.36,1.547561 z m 629.7627,-33.245614 h 0.2426 l 44.3948,-3.2 44.3948,-3.2 h 0.1626 0.1625 v -3.824925 -3.824922 l -1.52,0.158278 -1.52,0.158279 -42.723,3.186646 -42.723,3.186644 h -0.557 -0.557 v 3.68 3.68 z"
         id="path1124" />
    </g>
  </g>
</svg>
