<svg id="Layer_1" data-name="Layer 1" xmlns="http://www.w3.org/2000/svg" xmlns:xlink="http://www.w3.org/1999/xlink" viewBox="0 0 3839.16351 1509.79993"><defs><clipPath id="clip-path" transform="translate(0.03845 0)"><rect y="-53.2" width="3839" height="1121.00005" style="fill:none"/></clipPath><linearGradient id="Dégradé_sans_nom" x1="1775.08058" y1="-489.50677" x2="1775.08058" y2="972.06207" gradientTransform="matrix(1, 0, 0, -1, 0, 1065.88983)" gradientUnits="userSpaceOnUse"><stop offset="0.3484" stop-color="#fbed0e" stop-opacity="0"/><stop offset="0.4353" stop-color="#f8c40a" stop-opacity="0.4392"/><stop offset="0.5048" stop-color="#f7aa08" stop-opacity="0.7908"/><stop offset="0.5461" stop-color="#f6a007"/><stop offset="0.6583" stop-color="#f36601"/><stop offset="0.75" stop-color="#f06922"/></linearGradient></defs><g style="clip-path:url(#clip-path)"><path d="M360,93.8H29.7c-26,0-39.3,31-21.5,49.9L1297.79993,1509.7H1447.6L463.9,146.9A128.25322,128.25322,0,0,0,360,93.8ZM525,501.6A64.99492,64.99492,0,0,1,475.8,479L326.6,305c-16.6-19.4-2.9-49.4,22.7-49.4H360A64.96788,64.96788,0,0,1,410.7,280L548.4,453C564,472.7,550.1,501.6,525,501.6ZM1841.4,309.1H1686.5a29.8572,29.8572,0,0,1-29.69995-26.4l-3.19995-27.1h268.5l4.6-161.8h-364.4c-55.1,0-96.19995,50.7-84.9,104.6l41.30005,196.1a67.617,67.617,0,0,0,66.1,53.7H1776.5L1777.7,470a29.86769,29.86769,0,0,1-29.80005,31.6H1541.2L1753.5,1509.7h133.1l31.69995-1121.5A76.79591,76.79591,0,0,0,1841.4,309.1ZM841.7,93.8H485.4L597.2,255.6H826.7a30.05642,30.05642,0,0,1,26.1,15.3L956.9,457.1c11.2,19.9-3.3,44.5-26.1,44.5H904.2L786.9,309.1H634.1L1463.3999,1509.7h128.7L935.3,152.5A103.98038,103.98038,0,0,0,841.7,93.8ZM2306.6001,309.1H2182a29.85067,29.85067,0,0,1-29.5-34.6l3-18.8h233l47-161.8h-357.7a86.89944,86.89944,0,0,0-86.69995,81l-14.30005,212.7A56.7958,56.7958,0,0,0,2033.5,448.2h133l-5.3999,29a29.90421,29.90421,0,0,1-29.3999,24.5h-162.6l-67.9,1008.1h123.1l330.1-1136.9A49.79513,49.79513,0,0,0,2306.6001,309.1ZM3346.2,93.8l-165.8999,214.8a30.0396,30.0396,0,0,1-23.69995,11.6c-24.5,0-38.6001-27.8-24.1001-47.6L3263.3999,93.7h-223.3l-184.5,302.3c-16.8999,27.7,3,63.3,35.5,63.3h49.39991l-726,1050.30011h60.3999l868.5-1050.3h65.7a41.52188,41.52188,0,0,0,31.19995-14.1l309.80005-351.4H3346.2ZM2613.3999,501.6A29.88967,29.88967,0,0,1,2586.2,459.3l5.1001-11.1H2779.2l80.19995-139.1H2701.2998a29.88967,29.88967,0,0,1-27.19995-42.3l5.1001-11.1H2893.3999l90.2-161.8H2498.99976L2041,1509.7h126l581.3-1008.1H2613.3999ZM1389.1,448.2h40.19995a46.4724,46.4724,0,0,0,45.2-57.2l-70.2-297.2h-178.5L1283.1,269.9a29.92857,29.92857,0,0,1-28.4,39.2H1250a29.84163,29.84163,0,0,1-28-19.5L1149.6,93.9H961l138.1,301a91.43186,91.43186,0,0,0,83.1,53.3H1217.5l69.80005,176.4h0l350,885.1h63.6l-260-885.1Z" transform="translate(0.03845 0)" style="fill:url(#Dégradé_sans_nom)"/><path d="M3769.6001,0H3664l-46,52.2h151.6001c23.1001,0,23.1001,34.6,0,34.6h-136.2l-46,52.2-39.1001,44.3h0l-54.8999,62.2h219.2L3767.5,183.3h-148.2l39.1001-44.3h111.2C3862.30005,139.1,3862.30005,0,3769.6001,0Z" transform="translate(0.03845 0)" style="fill:#f36600"/><path d="M1287.30005,624.6,1217.5,448.2H1182.2a91.43186,91.43186,0,0,1-83.1-53.3L961,93.8h188.6L1222,289.5a29.84163,29.84163,0,0,0,28,19.5H1254.7a29.89722,29.89722,0,0,0,28.4-39.2L1225.79993,93.7h178.5l70.2,297.2a46.47241,46.47241,0,0,1-45.2,57.2H1389.1l51.8,176.4" transform="translate(0.03845 0)" style="fill:#f36600"/><path d="M3180.2,308.6a30.0396,30.0396,0,0,1-23.7,11.6c-24.5,0-38.6001-27.8-24.1001-47.6L3263.2998,93.7h-223.3l-184.5,302.3c-16.89991,27.7,3,63.3,35.5,63.3h49.3999l-114.2,165.2h180.5L3143.2998,459.3h65.7a41.5219,41.5219,0,0,0,31.19995-14.1L3549.99976,93.8H3346.09985Z" transform="translate(0.03845 0)" style="fill:#f36600"/><path d="M2327.30005,624.6h350.2l70.8999-123H2613.5a29.88967,29.88967,0,0,1-27.2-42.3l5.1001-11.1h187.8999l80.2-139.1H2701.3999A29.88967,29.88967,0,0,1,2674.2,266.8l5.1001-11.1h214.2l90.2-161.8h-484.6001Z" transform="translate(0.03845 0)" style="fill:#f36600"/><path d="M1991.1,174.8l-14.30005,212.7a56.7958,56.7958,0,0,0,56.7,60.6H2166.5l-5.3999,29a29.90421,29.90421,0,0,1-29.3999,24.5h-162.6l-8.30005,123h289.20007a41.46046,41.46046,0,0,0,39.89991-30l64.3999-221.8a49.79372,49.79372,0,0,0-47.8-63.7H2182a29.85067,29.85067,0,0,1-29.5-34.6l3-18.8h233l47-161.8h-357.7A86.66983,86.66983,0,0,0,1991.1,174.8Z" transform="translate(0.03845 0)" style="fill:#f36600"/><path d="M1477.4,198.4l41.30005,196.1a67.617,67.617,0,0,0,66.1,53.7H1776.5L1777.7,470a29.86769,29.86769,0,0,1-29.80005,31.6H1541.2l25.9,123h304.1a41.653,41.653,0,0,0,41.6-40.4l5.5-196a76.97963,76.97963,0,0,0-76.9-79.1h-154.9a29.85719,29.85719,0,0,1-29.7-26.4L1653.6,255.6h268.5l4.6-161.8h-364.4C1507.2,93.8,1466.1,144.5,1477.4,198.4Z" transform="translate(0.03845 0)" style="fill:#f36600"/><path d="M935.3,152.5a103.98044,103.98044,0,0,0-93.6-58.7H485.4L597.2,255.6H826.7a30.05642,30.05642,0,0,1,26.1,15.3L956.9,457.1c11.1,19.9-3.3,44.5-26.1,44.5H904.2L786.9,309.1H634.1L852,624.6h245.4c30.7,0,50.80005-32.1,37.4-59.7Z" transform="translate(0.03845 0)" style="fill:#f36600"/><path d="M463.8,146.9A128.20716,128.20716,0,0,0,360,93.8H29.6c-26,0-39.3,31-21.5,49.9L431.4,592a103.56728,103.56728,0,0,0,75.4,32.5h98.9c84.6,0,133.7-95.9,84.1-164.5ZM525,501.6A64.99492,64.99492,0,0,1,475.8,479L326.6,305c-16.6-19.4-2.9-49.4,22.7-49.4H360A64.96788,64.96788,0,0,1,410.7,280L548.4,453C564,472.7,550.1,501.6,525,501.6Z" transform="translate(0.03845 0)" style="fill:#f36600"/></g></svg>