<?xml version="1.0" encoding="UTF-8" standalone="no"?>
<svg
   id="Layer_1"
   data-name="Layer 1"
   viewBox="0 0 3838.9999 1067.8001"
   version="1.1"
   sodipodi:docname="odyssey2.svg"
   width="3839"
   height="1067.8"
   inkscape:version="1.1.2 (0a00cf5339, 2022-02-04, custom)"
   xmlns:inkscape="http://www.inkscape.org/namespaces/inkscape"
   xmlns:sodipodi="http://sodipodi.sourceforge.net/DTD/sodipodi-0.dtd"
   xmlns="http://www.w3.org/2000/svg"
   xmlns:svg="http://www.w3.org/2000/svg">
  <sodipodi:namedview
     id="namedview41"
     pagecolor="#ffffff"
     bordercolor="#666666"
     borderopacity="1.0"
     inkscape:pageshadow="2"
     inkscape:pageopacity="0.0"
     inkscape:pagecheckerboard="0"
     showgrid="false"
     inkscape:zoom="0.27844607"
     inkscape:cx="1919.5818"
     inkscape:cy="754.18555"
     inkscape:window-width="1920"
     inkscape:window-height="1017"
     inkscape:window-x="-8"
     inkscape:window-y="-8"
     inkscape:window-maximized="1"
     inkscape:current-layer="Layer_1" />
  <defs
     id="defs18">
    <clipPath
       id="clip-path"
       transform="translate(0.03845 0)">
      <rect
         y="-53.200001"
         width="3839"
         height="1121"
         style="fill:none"
         id="rect2"
         x="0" />
    </clipPath>
    <linearGradient
       id="Dégradé_sans_nom"
       x1="1775.0806"
       y1="-489.50677"
       x2="1775.0806"
       y2="972.06207"
       gradientTransform="matrix(1,0,0,-1,0,1065.8898)"
       gradientUnits="userSpaceOnUse">
      <stop
         offset="0.3484"
         stop-color="#fbed0e"
         stop-opacity="0"
         id="stop5" />
      <stop
         offset="0.4353"
         stop-color="#f8c40a"
         stop-opacity="0.4392"
         id="stop7" />
      <stop
         offset="0.5048"
         stop-color="#f7aa08"
         stop-opacity="0.7908"
         id="stop9" />
      <stop
         offset="0.5461"
         stop-color="#f6a007"
         id="stop11" />
      <stop
         offset="0.6583"
         stop-color="#f36601"
         id="stop13" />
      <stop
         offset="0.75"
         stop-color="#f06922"
         id="stop15" />
    </linearGradient>
  </defs>
  <g
     clip-path="url(#clip-path)"
     id="g38">
    <path
       d="M 360,93.8 H 29.7 c -26,0 -39.3,31 -21.5,49.9 l 1289.5999,1366 H 1447.6 L 463.9,146.9 A 128.25322,128.25322 0 0 0 360,93.8 Z M 525,501.6 A 64.99492,64.99492 0 0 1 475.8,479 L 326.6,305 C 310,285.6 323.7,255.6 349.3,255.6 H 360 a 64.96788,64.96788 0 0 1 50.7,24.4 l 137.7,173 c 15.6,19.7 1.7,48.6 -23.4,48.6 z M 1841.4,309.1 h -154.9 a 29.8572,29.8572 0 0 1 -29.6999,-26.4 l -3.2,-27.1 h 268.5 l 4.6,-161.8 h -364.4 c -55.1,0 -96.1999,50.7 -84.9,104.6 l 41.3,196.1 a 67.617,67.617 0 0 0 66.1,53.7 H 1776.5 l 1.2,21.8 a 29.86769,29.86769 0 0 1 -29.8,31.6 h -206.7 l 212.3,1008.1 h 133.1 L 1918.2999,388.2 A 76.79591,76.79591 0 0 0 1841.4,309.1 Z M 841.7,93.8 H 485.4 l 111.8,161.8 h 229.5 a 30.05642,30.05642 0 0 1 26.1,15.3 l 104.1,186.2 c 11.2,19.9 -3.3,44.5 -26.1,44.5 H 904.2 L 786.9,309.1 H 634.1 l 829.2999,1200.6 h 128.7 L 935.3,152.5 A 103.98038,103.98038 0 0 0 841.7,93.8 Z M 2306.6001,309.1 H 2182 a 29.85067,29.85067 0 0 1 -29.5,-34.6 l 3,-18.8 h 233 l 47,-161.8 h -357.7 a 86.89944,86.89944 0 0 0 -86.6999,81 L 1976.8,387.6 a 56.7958,56.7958 0 0 0 56.7,60.6 h 133 l -5.3999,29 a 29.90421,29.90421 0 0 1 -29.3999,24.5 h -162.6 l -67.9,1008.1 h 123.1 l 330.1,-1136.9 a 49.79513,49.79513 0 0 0 -47.8001,-63.8 z M 3346.2,93.8 3180.3001,308.6 a 30.0396,30.0396 0 0 1 -23.7,11.6 c -24.5,0 -38.6001,-27.8 -24.1001,-47.6 L 3263.3999,93.7 h -223.3 l -184.5,302.3 c -16.8999,27.7 3,63.3 35.5,63.3 h 49.3999 l -726,1050.3001 h 60.3999 l 868.5,-1050.29999 h 65.7 a 41.52188,41.52188 0 0 0 31.2,-14.1 l 309.8,-351.4 H 3346.2 Z M 2613.3999,501.6 A 29.88967,29.88967 0 0 1 2586.2,459.3 l 5.1001,-11.1 H 2779.2 l 80.2,-139.1 h -158.1002 a 29.88967,29.88967 0 0 1 -27.2,-42.3 l 5.1001,-11.1 h 214.2 l 90.2,-161.8 H 2498.9998 L 2041,1509.7 h 126 L 2748.3,501.6 Z M 1389.1,448.2 h 40.1999 A 46.4724,46.4724 0 0 0 1474.5,391 L 1404.2999,93.8 h -178.5 L 1283.1,269.9 a 29.92857,29.92857 0 0 1 -28.4,39.2 h -4.7 a 29.84163,29.84163 0 0 1 -28,-19.5 L 1149.6,93.9 H 961 l 138.1,301 a 91.43186,91.43186 0 0 0 83.1,53.3 h 35.3 l 69.8001,176.4 v 0 l 350,885.1 h 63.6 l -260,-885.1 z"
       transform="translate(0.03845)"
       style="fill:url(#D%C3%A9grad%C3%A9_sans_nom)"
       id="path20" />
    <path
       d="M 3769.6001,0 H 3664 l -46,52.2 h 151.6001 c 23.1001,0 23.1001,34.6 0,34.6 h -136.2 l -46,52.2 -39.1001,44.3 v 0 l -54.8999,62.2 h 219.2 L 3767.5,183.3 h -148.2 l 39.1001,-44.3 h 111.2 c 92.6999,0.1 92.6999,-139 0,-139 z"
       transform="translate(0.03845)"
       style="fill:#f36600"
       id="path22" />
    <path
       d="M 1287.3001,624.6 1217.5,448.2 h -35.3 a 91.43186,91.43186 0 0 1 -83.1,-53.3 L 961,93.8 h 188.6 l 72.4,195.7 a 29.84163,29.84163 0 0 0 28,19.5 h 4.7 a 29.89722,29.89722 0 0 0 28.4,-39.2 L 1225.7999,93.7 h 178.5 l 70.2,297.2 a 46.47241,46.47241 0 0 1 -45.2,57.2 H 1389.1 l 51.8,176.4"
       transform="translate(0.03845)"
       style="fill:#f36600"
       id="path24" />
    <path
       d="m 3180.2,308.6 a 30.0396,30.0396 0 0 1 -23.7,11.6 c -24.5,0 -38.6001,-27.8 -24.1001,-47.6 L 3263.2998,93.7 h -223.3 l -184.5,302.3 c -16.8999,27.7 3,63.3 35.5,63.3 h 49.3999 l -114.2,165.2 h 180.5 l 136.6001,-165.2 h 65.7 a 41.5219,41.5219 0 0 0 31.1999,-14.1 L 3549.9998,93.8 h -203.8999 z"
       transform="translate(0.03845)"
       style="fill:#f36600"
       id="path26" />
    <path
       d="m 2327.3,624.6 h 350.2 l 70.8999,-123 H 2613.5 a 29.88967,29.88967 0 0 1 -27.2,-42.3 l 5.1001,-11.1 H 2779.3 l 80.2,-139.1 H 2701.3999 A 29.88967,29.88967 0 0 1 2674.2,266.8 l 5.1001,-11.1 h 214.2 l 90.2,-161.8 H 2499.1 Z"
       transform="translate(0.03845)"
       style="fill:#f36600"
       id="path28" />
    <path
       d="m 1991.1,174.8 -14.3001,212.7 a 56.7958,56.7958 0 0 0 56.7001,60.6 h 133 l -5.3999,29 a 29.90421,29.90421 0 0 1 -29.3999,24.5 h -162.6 l -8.3,123 h 289.2 a 41.46046,41.46046 0 0 0 39.8999,-30 L 2354.3,372.8 a 49.79372,49.79372 0 0 0 -47.8,-63.7 H 2182 a 29.85067,29.85067 0 0 1 -29.5,-34.6 l 3,-18.8 h 233 l 47,-161.8 h -357.7 a 86.66983,86.66983 0 0 0 -86.7,80.9 z"
       transform="translate(0.03845)"
       style="fill:#f36600"
       id="path30" />
    <path
       d="m 1477.4,198.4 41.3001,196.1 a 67.617,67.617 0 0 0 66.1,53.7 H 1776.5 l 1.2,21.8 a 29.86769,29.86769 0 0 1 -29.8,31.6 h -206.7 l 25.9,123 h 304.1 a 41.653,41.653 0 0 0 41.6,-40.4 l 5.5,-196 a 76.97963,76.97963 0 0 0 -76.9,-79.1 h -154.9 a 29.85719,29.85719 0 0 1 -29.7,-26.4 l -3.2,-27.1 h 268.5 l 4.6,-161.8 h -364.4 c -55.1,0 -96.2,50.7 -84.9,104.6 z"
       transform="translate(0.03845)"
       style="fill:#f36600"
       id="path32" />
    <path
       d="M 935.3,152.5 A 103.98044,103.98044 0 0 0 841.7,93.8 H 485.4 l 111.8,161.8 h 229.5 a 30.05642,30.05642 0 0 1 26.1,15.3 l 104.1,186.2 c 11.1,19.9 -3.3,44.5 -26.1,44.5 H 904.2 L 786.9,309.1 H 634.1 L 852,624.6 h 245.4 c 30.7,0 50.8001,-32.1 37.4,-59.7 z"
       transform="translate(0.03845)"
       style="fill:#f36600"
       id="path34" />
    <path
       d="M 463.8,146.9 A 128.20716,128.20716 0 0 0 360,93.8 H 29.6 c -26,0 -39.3,31 -21.5,49.9 L 431.4,592 a 103.56728,103.56728 0 0 0 75.4,32.5 h 98.9 c 84.6,0 133.7,-95.9 84.1,-164.5 z M 525,501.6 A 64.99492,64.99492 0 0 1 475.8,479 L 326.6,305 C 310,285.6 323.7,255.6 349.3,255.6 H 360 a 64.96788,64.96788 0 0 1 50.7,24.4 l 137.7,173 c 15.6,19.7 1.7,48.6 -23.4,48.6 z"
       transform="translate(0.03845)"
       style="fill:#f36600"
       id="path36" />
  </g>
</svg>
