<svg id="Layer_1" data-name="Layer 1" xmlns="http://www.w3.org/2000/svg" viewBox="0 0 3840 1850.00012"><path d="M1511.6,37.1V1209.6h233.8V689.8l299.4,519.8,286-.1L2063.8999,742C2180.2998,678.3,2255.7,554.4,2255.7,412.4c0-207.2-168-375.2-375.2-375.2-2.6,0-5.1.1-7.69995.2v-.2H1511.6Zm233.8,230.1h119.30005c192.1,0,192.1,297.7,0,297.8H1745.4Z" transform="translate(0 0)" style="fill:#fff"/><path d="M833.8,0c-343,0-621.1,278.1-621.1,621.1C212.7,964,490.8,1242,833.8,1242s620.9-277.9,620.9-620.9S1176.80005,0,833.8,0Zm0,235.2c213.1,0,385.9,172.8,385.9,385.9s-172.80005,385.9-385.9,385.9-385.9-172.8-385.9-385.9C447.9,408,620.7,235.2,833.8,235.2Z" transform="translate(0 0)" style="fill:#fff"/><path d="M3239.2,5.5c-339.8999,0-615.59985,275.7-615.59985,615.6,0,339.9,275.69995,615.4,615.6001,615.4,205.8999,0,388.3-101.1,500-256.3l-190-135.3c-69.5,96-182.5,158.6-310.1001,158.6-211.2,0-382.30005-171.1-382.30005-382.3s171.1001-382.5,382.30005-382.5a381.89044,381.89044,0,0,1,306.69995,153.8l187.6001-138.2c-112.1001-151-291.8-248.8-494.2002-248.8Z" transform="translate(0 0)" style="fill:#fff"/><rect x="2330.80005" y="37.1" width="235.1001" height="1172.49998" style="fill:#fff"/><path d="M389.4,1791.6H288l-22.2,52.8H212.7L320.9,1593h38.4l105.2,251.4H411.7Zm-14.3-40-35.8-90.5-35.8,90.5Z" transform="translate(0 0)" style="fill:#fff"/><path d="M899.3,1635.2V1844.3999h-49V1635.2H793.8V1593H955.9V1635.2Z" transform="translate(0 0)" style="fill:#fff"/><path d="M1351.9,1592.9h35.4L1454,1752.70007,1523.7,1592.9h35.4l42.19995,251.4H1551.6L1529,1689.4l-67.5,154.9H1445l-64.4-154.9-25.6,154.9h-49.69995Z" transform="translate(0 0)" style="fill:#fff"/><path d="M2241.2,1718.80005c0,76.5-55,131.19995-134.2,131.19995-79.1,0-134.19995-54.6-134.19995-131.19995s55-131.5,134.19995-131.5S2241.2,1642.30005,2241.2,1718.80005Zm-50.5,0c0-50.9-34.7-87.1-83.7-87.1s-83.69995,36.19995-83.69995,87.1S2058,1805.5,2107,1805.5,2190.7,1769.7,2190.7,1718.80005Z" transform="translate(0 0)" style="fill:#fff"/><path d="M2749.2,1650.2c-14.7-19.6-32-21.5-41.1001-21.5-26.3999,0-34.7,16.6-34.7,29.4,0,6,1.8999,11.69995,7.8999,17,6,5.69995,14.30005,8.69995,30.2,14.3,19.60009,6.80005,38.10009,13.6,50.8999,25.30005,11.3,10.19995,21.5,27.1,21.5,52.8,0,49-35.3999,82.5-87.3999,82.5-46.39991,0-73.5-28.3-86.7-47.5l32-30.5a58.99074,58.99074,0,0,0,52.80005,33.5c22.19995,0,38.8-13.6,38.8-34.69995a29.17148,29.17148,0,0,0-9.8-22.6c-9.3999-8.7-24.5-13.6-38.80005-18.5-13.19995-4.5-29-10.5-41.8-21.9-8.30005-7.19995-20-21.1-20-46.69995,0-36.9,24.8999-73.9,80.69995-73.9,15.80005,0,45.60009,3,71.2,29.4Z" transform="translate(0 0)" style="fill:#fff"/><path d="M3270.3999,1757.7h29.3999v39.19995h-29.3999v47.5h-46v-47.5H3101.5V1775l124.8-182h44.1001V1757.7Zm-46,0V1662l-64.8,95.69995Z" transform="translate(0 0)" style="fill:#fff"/><path d="M3492,1775.7c0,41.5-33.2,74.19995-87.3999,74.19995s-87.3999-32.8-87.3999-74.19995c0-29,17-53.5,44.8-62.6-19.19995-9.4-36.19995-27.9-36.19995-55.80005,0-36.6,26.39991-70.1,78.8-70.1s78.8,33.5,78.8,70.1c0,27.9-17,46.4-36.19995,55.80005C3475,1722.2,3492,1746.7,3492,1775.7ZM3443,1772.4c0-23-16.6001-39.19995-38.3999-39.19995S3366.2002,1749.4,3366.2002,1772.4s16.60009,39.2,38.3999,39.2S3443,1795.30005,3443,1772.4Zm-3.3999-114.6c0-20.69995-14.30005-35.1-35.1001-35.1s-35.1001,14.3-35.1001,35.1c0,20.69995,14.30005,35.1,35.1001,35.1S3439.6001,1678.5,3439.6001,1657.80005Z" transform="translate(0 0)" style="fill:#fff"/><path d="M3579.3999,1699.2,3671.7,1592.8999h61.8L3627.30005,1709,3739.2,1844.30005H3674.3999l-89.3-112.69995-5.7,5.69995v107h-49V1592.9h49Z" transform="translate(0 0)" style="fill:#fff"/><polygon points="480.4 1263.1 1407 37.1 1093.9 37.1 0 1484.3 3840 1484.3 3840 1263.1 480.4 1263.1" style="fill:#e31c1c"/></svg>