<svg id="Layer_1" data-name="Layer 1" xmlns="http://www.w3.org/2000/svg" viewBox="0 0 3840.01733 693.66669"><rect x="1988.58994" y="297.02088" width="207.8" height="113.3999" style="fill:#fff"/><path d="M1373.2,26.4v-.2h-232.6001V681.8h158.1V162.7h66.80005c95.5,0,95.5,143.3,0,143.3h-35.80005V442.6h43.5v-.2C1640.4,434.8,1640.4,34.1,1373.2,26.4Z" transform="translate(0.01733 -0.03332)" style="fill:#fff"/><path d="M1998.6,516.7a163.57823,163.57823,0,0,1-74.80005,18.1c-96.4,0-174.8-84.2-174.8-187.7s78.4-187.7,174.8-187.7A163.8883,163.8883,0,0,1,1998.6,177.5V10.1a323.78224,323.78224,0,0,0-74.80005-8.9C1740,1.3,1591,156.1,1591,347.1s149,345.8,332.9,345.8a319.0582,319.0582,0,0,0,74.80005-8.9V516.7Z" transform="translate(0.01733 -0.03332)" style="fill:#fff"/><path d="M3092.2,332.9a209.31515,209.31515,0,0,0,39-121.9C3131.2,95,3037.1001.8,2921,.8s-210.2,94.1-210.2,210.2A209.81017,209.81017,0,0,0,2748.2,330.7a219.41591,219.41591,0,0,0-49.1001,138.6c0,121.7,98.6001,220.3,220.3,220.3s220.30005-98.6,220.30005-220.3A219.8332,219.8332,0,0,0,3092.2,332.9ZM2921,137.4a73.7,73.7,0,1,1-73.7,73.7A73.76834,73.76834,0,0,1,2921,137.4Zm-1.6001,415.7a83.7,83.7,0,1,1,83.7-83.7A83.79769,83.79769,0,0,1,2919.3999,553.1Z" transform="translate(0.01733 -0.03332)" style="fill:#fff"/><path d="M2620.2,332.9a209.31515,209.31515,0,0,0,39-121.9C2659.1001,95,2565,.8,2448.8999.8S2238.7,94.9,2238.7,211a209.81017,209.81017,0,0,0,37.3999,119.7,219.4159,219.4159,0,0,0-49.10009,138.6c0,121.7,98.60009,220.3,220.3,220.3s220.30005-98.6,220.30005-220.3A219.74777,219.74777,0,0,0,2620.2,332.9ZM2448.8999,137.4A73.7,73.7,0,1,1,2375.2,211.1,73.76834,73.76834,0,0,1,2448.8999,137.4Zm-1.59985,415.7a83.7,83.7,0,1,1,83.7-83.7A83.79769,83.79769,0,0,1,2447.30005,553.1Z" transform="translate(0.01733 -0.03332)" style="fill:#fff"/><path d="M3407.5.8c-129.8,0-234.8999,116.1-234.8999,344.4S3277.80005,689.6,3407.5,689.6c129.8,0,234.8999-116.1,234.8999-344.4C3642.5,117,3537.30005.8,3407.5.8Zm56.3,521.1c-20.3999,27.6-40.8,31.2-56.3,31.2s-35.8999-3.5-56.3-31.2c-15.7-21.3-42.1001-72.5-42.1001-176.7s26.39991-155.4,42.1001-176.7c20.3999-27.6,40.8-31.2,56.3-31.2s35.8999,3.5,56.3,31.2c15.7,21.3,42.1001,72.5,42.1001,176.7S3479.5,500.6,3463.80005,521.9Z" transform="translate(0.01733 -0.03332)" style="fill:#fff"/><rect x="3703.41724" y="0.76668" width="136.6001" height="680.99999" style="fill:#fff"/><rect y="464.23809" width="110.30002" height="43" style="fill:#fff"/><rect x="0.01953" y="536.75747" width="110.30002" height="43" style="fill:#fff"/><rect x="432.64441" y="555.70907" width="189.60001" height="43.00003" style="fill:#fff"/><rect x="161.84032" y="473.77625" width="43" height="141.10004" style="fill:#fff"/><path d="M204.8,614.9c0,36.9-24.6,73.8-73.8,73.8v-43c20.6,0,30.8-15.4,30.8-30.8" transform="translate(0.01733 -0.03332)" style="fill:#fff"/><rect x="362.13" y="460.69849" width="43" height="154.10004" style="fill:#fff"/><path d="M405.1,614.9c0,36.9-24.6,73.8-73.8,73.8v-43c20.6,0,30.8-15.4,30.8-30.8" transform="translate(0.01733 -0.03332)" style="fill:#fff"/><rect x="239.2251" y="460.65644" width="43.00002" height="116.5" style="fill:#fff"/><path d="M765.9,584.1l34.4-34.4c32.8-32.8,9.6-89-36.8-89H612.1v43H750.3a14.57758,14.57758,0,0,1,10.3,24.9l-113,112.9a31.41619,31.41619,0,0,1-22.2,9.2H612.1v43h31.1a31.41615,31.41615,0,0,0,22.2-9.2l66-66c18.5,19.3,33.8,44.8,42.8,75.2h54.7C817.2,648,794,610.7,765.9,584.1Z" transform="translate(0.01733 -0.03332)" style="fill:#fff"/><circle cx="843.41736" cy="480.56669" r="19.79999" style="fill:#fff"/><circle cx="895.11731" cy="480.56669" r="19.79999" style="fill:#fff"/><polygon points="292.817 78.967 352.417 45.167 279.617 2.467 241.917 182.167 83.317 5.067 9.117 88.867 31.817 90.967 47.917 108.867 0.017 336.767 87.817 292.267 46.617 254.667 71.617 135.367 241.317 324.867 292.817 78.967" style="fill:#c30207"/><path d="M616.7,12.5H356.8a2.00874,2.00874,0,0,0-.7,3.9c20.6,7.3,36.4,18.4,34.3,28.3l-19.7,94c-2.4,11.5-21.9,16.5-39.9,18.6-2.9.3-2.9,4.5-.1,5,23.1,3.7,31.4,8.5,32.6,11.5L341.7,277c-3.5,16.5-27.2,20.5-47.8,27.8a2.00873,2.00873,0,0,0,.7,3.9H577.7l19.8-94.6a2.84707,2.84707,0,0,0-5.2-2.1c-16.4,26.3-53.1,77.6-89.8,77.6H436.8L462.5,167h16.7c25.7,0,43.7,39.6,49.7,54.9a1.8296,1.8296,0,0,0,3.5-.3L558.6,96.9a1.81253,1.81253,0,0,0-3.2-1.5c-12,15.4-43.9,52.5-73.2,52.5H466.6L490.9,31.8h68.7c35.6,0,47.2,38,51.7,85a3.34185,3.34185,0,0,0,6.6.4L639.8,12.7H616.7Z" transform="translate(0.01733 -0.03332)" style="fill:#c30207"/><path d="M840.9,308.7l62.1-120c1.8-3.4-1-4.7-4-2.2-118.2,97.9-197.2,9-185.6-49.1,12.8-63.5,63-95.1,109.4-105.5l48.5,62.4L915,73,881.7.3c-104.3-5-237.2,60.5-243.6,180.4C635,240.5,692.8,360.2,840.9,308.7Z" transform="translate(0.01733 -0.03332)" style="fill:#c30207"/></svg>