<svg id="Layer_1" data-name="Layer 1" xmlns="http://www.w3.org/2000/svg" viewBox="0 0 3839.59961 1484.80005"><path d="M132.1,1482.30005V1356.9l-53,125.4H66.9L14.1,1356.9v125.4H0V1341.4H21.9l51.3,119.9,51.1-119.9h21.9v140.9Z" transform="translate(0 0)" style="fill:#e0e0e0"/><path d="M221.8,1484.80005c-28.4,0-47.9-17.1-47.9-55.5v-87.9H188v87.9c0,28.80005,11.8,42.5,33.9,42.5,21.7,0,33.8-13.69995,33.8-42.5v-87.9h14.1v87.9C269.8,1467.6,250.4,1484.80005,221.8,1484.80005Z" transform="translate(0 0)" style="fill:#e0e0e0"/><path d="M297.6,1482.30005V1341.4h14.1v128.1H370v12.80005Z" transform="translate(0 0)" style="fill:#e0e0e0"/><path d="M409.1,1354.2v128.1H395V1354.2H362.8V1341.3999h78.5V1354.2Z" transform="translate(0 0)" style="fill:#e0e0e0"/><path d="M455.9,1482.30005V1341.4H470v140.9Z" transform="translate(0 0)" style="fill:#e0e0e0"/><path d="M629.9,1482.30005V1356.9l-53,125.4H564.7l-52.8-125.4v125.4H497.8V1341.4h21.9l51.3,119.9,51.1-119.9H644v140.9Z" transform="translate(0 0)" style="fill:#e0e0e0"/><path d="M671.8,1482.30005V1341.4h77v12.80005H685.9v50.5h60.8v12.8H685.9v52.1h62.9v12.8h-77Z" transform="translate(0 0)" style="fill:#e0e0e0"/><path d="M810.7,1482.30005h-38V1341.4h33.2c25.5,0,40.4,3.1,53.8,11.1,21,12.4,32,33.30005,32,59.80005C891.7,1453,865.8,1482.30005,810.7,1482.30005Zm41.2-119c-10.7-6.5-24-9.1-45.4-9.1H786.9v115.3h19.6c25,0,39.5-3.6,50.7-12.6,13-10.5,20.2-26.69995,20.2-45.19995C877.4,1390.80005,868.1,1373.1,851.9,1363.30005Z" transform="translate(0 0)" style="fill:#e0e0e0"/><path d="M913.4,1482.30005V1341.4h14.1v140.9Z" transform="translate(0 0)" style="fill:#e0e0e0"/><path d="M1064.30005,1482.30005l-20.4-47.5h-65.6l-20.6,47.5h-14.9l60.4-140.9h15.8l60.6,140.9ZM1011.3,1357.5l-27.6,64.6h54.7Z" transform="translate(0 0)" style="fill:#e0e0e0"/><path d="M1146.7,1482.30005V1341.4h77v12.80005h-62.9v50.5H1221.6v12.8h-60.80005v52.1h62.9v12.8h-77Z" transform="translate(0 0)" style="fill:#e0e0e0"/><path d="M1345.7,1482.30005l-83.9-123.9v123.9h-14.1V1341.4h19.1l78.9,116.9V1341.4h14.1v140.9Z" transform="translate(0 0)" style="fill:#e0e0e0"/><path d="M1420.7,1354.2v128.1h-14.1V1354.2h-32.2V1341.3999h78.5V1354.2Z" transform="translate(0 0)" style="fill:#e0e0e0"/><path d="M1467.6,1482.30005V1341.4h77v12.80005h-62.9v50.5H1542.5v12.8H1481.7v52.1h62.9v12.8h-77Z" transform="translate(0 0)" style="fill:#e0e0e0"/><path d="M1622.5,1429.7l39.5,52.6h-17.5l-47.5-63.9c39.5,0,52.80005-6.8,52.80005-32.19995,0-23.5-14.5-32-47.30005-32H1582.7v128.1h-14.1v-140.9h34.9c44.19995,0,60.6,16,60.6,45.4C1664.1,1411.80005,1649.6,1426.80005,1622.5,1429.7Z" transform="translate(0 0)" style="fill:#e0e0e0"/><path d="M1716.30005,1354.2v128.1h-14.1V1354.2h-32.2V1341.3999h78.5V1354.2Z" transform="translate(0 0)" style="fill:#e0e0e0"/><path d="M1862.6,1482.30005l-20.4-47.5h-65.6l-20.6,47.5h-14.9l60.4-140.9h15.80005l60.6,140.9ZM1809.6,1357.5l-27.7,64.6h54.7Z" transform="translate(0 0)" style="fill:#e0e0e0"/><path d="M1893.4,1482.30005V1341.4h14.1v140.9Z" transform="translate(0 0)" style="fill:#e0e0e0"/><path d="M2033.30005,1482.30005l-83.9-123.9v123.9h-14.1V1341.4h19.1l78.9,116.9V1341.4h14.1v140.9Z" transform="translate(0 0)" style="fill:#e0e0e0"/><path d="M2207.30005,1482.30005V1356.9l-53,125.4H2142.1001l-52.80005-125.4v125.4H2075.2V1341.4h21.8999l51.3,119.9L2199.5,1341.4h21.8999v140.9Z" transform="translate(0 0)" style="fill:#e0e0e0"/><path d="M2249.1001,1482.30005V1341.4h77v12.80005h-62.8999v50.5h60.8v12.8h-60.8v52.1h62.8999v12.8h-77Z" transform="translate(0 0)" style="fill:#e0e0e0"/><path d="M2448.1001,1482.30005l-83.8999-123.9v123.9h-14.1001V1341.4h19.1001l78.8999,116.9V1341.4h14.1001v140.9Z" transform="translate(0 0)" style="fill:#e0e0e0"/><path d="M2523.1001,1354.2v128.1H2509V1354.2h-32.2V1341.3999h78.5V1354.2Z" transform="translate(0 0)" style="fill:#e0e0e0"/><path d="M2662.80005,1425.30005H2635.7v57h-14.1001V1341.4h38.89991c38.69995,0,54.3,13.1,54.3,42.7C2714.80005,1410.80005,2701.1001,1425.30005,2662.80005,1425.30005ZM2655.7,1354.2h-20V1412.5h26.1001c28,0,38.7-8,38.7-28.4C2700.5,1355.5,2682.6001,1354.2,2655.7,1354.2Z" transform="translate(0 0)" style="fill:#e0e0e0"/><path d="M2733.2,1482.30005V1341.4h14.1001v128.1h58.30005v12.80005Z" transform="translate(0 0)" style="fill:#e0e0e0"/><path d="M2935.80005,1482.30005l-20.3999-47.5h-65.6001l-20.6001,47.5h-14.8999L2874.7,1341.4h15.8l60.6001,140.9Zm-53-124.80005-27.69995,64.6h54.69995Z" transform="translate(0 0)" style="fill:#e0e0e0"/><path d="M3001.1001,1435.2v47.1H2987v-47.1l-48.8-93.80005h15.6001l40,78.9,41-78.9H3050.2Z" transform="translate(0 0)" style="fill:#e0e0e0"/><path d="M3064,1482.30005V1341.4h77v12.80005h-62.8999v50.5h60.8v12.8h-60.8v52.1H3141v12.8h-77Z" transform="translate(0 0)" style="fill:#e0e0e0"/><path d="M3218.8999,1429.7l39.5,52.6h-17.5l-47.5-63.9c39.5,0,52.80005-6.8,52.80005-32.19995,0-23.5-14.5-32-47.30005-32h-19.8v128.1H3165v-140.9h34.8999c44.2,0,60.6001,16,60.6001,45.4C3260.5,1411.80005,3246,1426.80005,3218.8999,1429.7Z" transform="translate(0 0)" style="fill:#e0e0e0"/><path d="M3372.30005,1425.30005H3345.2v57h-14.1001V1341.4h38.89991c38.69995,0,54.3,13.1,54.3,42.7C3424.30005,1410.80005,3410.6001,1425.30005,3372.30005,1425.30005ZM3365.2,1354.2h-20V1412.5h26.1001c28,0,38.7-8,38.7-28.4C3410,1355.5,3392.1001,1354.2,3365.2,1354.2Z" transform="translate(0 0)" style="fill:#e0e0e0"/><path d="M3510.6001,1484.80005c-42.1001,0-74-31.30005-74-72.4,0-42.1,31.1001-73.4,73-73.4,29.19995,0,54,14.9,64.8,39.1h-15.8c-12-18.9-28.6001-26.1-48.3999-26.1-33.5,0-59.30005,25.9-59.30005,59.9,0,33,26.8999,60,59.5,60,20.60009,0,34.10009-7.8,49-26.5h15.60009C3561,1471.5,3539.2,1484.80005,3510.6001,1484.80005Z" transform="translate(0 0)" style="fill:#e0e0e0"/><path d="M3662.2,1354.2v50.9h55.3v12.8h-55.3v64.4h-14.1001V1341.4h71.5v12.80005L3662.2,1354.2Z" transform="translate(0 0)" style="fill:#e0e0e0"/><path d="M3822.8999,1482.30005l-39.8-60.19995-40,60.19995h-16.60009l47.8999-72.1-45.2-68.80005h16.60009l37.39991,56.4,37.2-56.4h16.3999l-45.19995,68.80005,48,72.1Z" transform="translate(0 0)" style="fill:#e0e0e0"/><path d="M3606.8999,1424.6a10.30005,10.30005,0,1,1,0-20.6001,10.30005,10.30005,0,1,1,0,20.6001Z" transform="translate(0 0)" style="fill:#e0e0e0"/><path d="M316.7,44.9H0V1263.1H124V926.5H316.7C904.5,926.5,904.5,44.9,316.7,44.9Zm0,757.6H124V169H316.7C739.1,169,739.1,802.5,316.7,802.5Z" transform="translate(0 0)" style="fill:#e0e0e0"/><path d="M1441.6,1148c-282.79993,0-512-229.2-512-512s229.19995-512,512-512c191.69995,0,358.70007,105.4,446.4,261.4h138.30005C1929,158.8,1703.9,0,1441.6,0c-351.29993,0-636,284.8-636,636,0,351.3,284.79992,636,636,636C1703.8999,1272,1929,1113.2,2026.30005,886.6H1888C1800.30005,1042.6,1633.30005,1148,1441.6,1148Z" transform="translate(0 0)" style="fill:#e0e0e0"/><rect x="1947.30005" y="517" width="174" height="238" style="fill:#e0e0e0"/><polygon points="2827.9 718.3 2827.9 479.1 2468.1 479.1 2468.1 262.6 2827.9 262.6 2827.9 23.4 2468.1 23.4 2282.1 23.4 2228.9 23.4 2228.9 1242.3 2468.1 1242.3 2468.1 718.3 2827.9 718.3" style="fill:#e0e0e0"/><polygon points="3462.5 589.3 3789.2 23.4 3513 23.4 3324.4 350.1 3135.8 23.4 2859.6 23.4 3186.3 589.3 2809.3 1242.3 3085.5 1242.3 3324.4 828.6 3563.3 1242.3 3839.5 1242.3 3462.5 589.3" style="fill:#e0e0e0"/></svg>