<svg id="Layer_1" data-name="Layer 1" xmlns="http://www.w3.org/2000/svg" viewBox="0 0 3840 1737.41642"><path d="M1152.5,700.4c-97.19995,89.5-320.9,77.1-444.3,77.1h-395V1029H0V0H705.1c57.1,0,112.6,0,169.7,1.5C975.1,3,1089.30005,13.8,1164.80005,87.9c71,69.4,71,222.2,71,313.2C1235.80005,498.3,1229.6,629.5,1152.5,700.4ZM780.7,259.2c-24.7,0-50.9-1.5-75.6-1.5H313.2V520H779.1C899.4,520,921,498.4,921,379.6,921.1,266.9,880.9,260.7,780.7,259.2Z" transform="translate(0 0)" style="fill:#fff"/><path d="M1322.2,1029.1V0H2460.7998V242.2h-830V391.9h788.39991V617.2h-788.4v165.1h836.20008v246.9H1322.2Z" transform="translate(0 0)" style="fill:#fff"/><path d="M3381.80005,262.3v766.8H3053.2V262.3H2595V0H3840V262.3Z" transform="translate(0 0)" style="fill:#fff"/><path d="M83.8,1731.1c0-13.4-1-27.2-1-40.6,0-27.80005-.5-55.5,4.1-82.80005,9.3-57.1,58.6-64.19995,107.9-68.4l129.5-10.3c16.4-1.5,34.4-1.5,50.4-7.2,14.9-5.1,14.9-13.9,14.9-28.3,0-9.80005,0-20.6-8.7-26.7-12.9-9.8-68.4-7.19995-83.3-7.19995-31.4,0-65.3-1.5-96.6,3.6-23.6,3.6-21.1,20.6-21.1,41.1V1515.6H78.6v-13.9c0-28.30005.5-67.30005,21.6-89.4C123.8,1387.6,176.3,1386.6,207.6,1385.1c22.1-1,44.2-1,66.3-1h9.8l84.8.5c32.9,0,75,.5,99.7,25.69995,19,19.5,19,58.6,19,83.80005,0,25.69995-.5,52.9-14.9,75.6-19,30.30005-73,34.4-104.9,36.5-24.7,1.5-48.8,3.1-73.5,4.6-19.5,1-39.1,2.6-58.6,4.1-8.7.5-30.8,2.1-39.1,5.1-16.4,6.19995-16.4,17.5-16.4,32.4h313v78.6H83.8Z" transform="translate(0 0)" style="fill:#fff"/><path d="M865,1729.1c-41.1,6.69995-96.6,6.19995-138.3,6.19995-25.7,0-50.9-.5-76.6-1-56.5-1-122.3-3.1-134.7-71.4-5.7-31.9-4.1-70.4-4.1-102.8,0-20.6,0-40.6.5-61.2.5-28.8,2.6-61.69995,23.6-83.8,13.9-14.4,33.4-21.6,52.9-24.7C629.4,1383.7,684.4,1384.2,726.6,1384.2c25.2,0,50.9,1,76.1,1.5,87.9,2.1,138.8,11.30005,138.8,113.1V1621.1C941.6,1678.2,927.2,1718.80005,865,1729.1Zm-49.8-249.29993c-11.8-5.1-29.3-5.69995-42.1-5.69995-20.6,0-41.1-.5-62.2-.5s-44.2-.5-64.8,4.1c-6.2,1.5-12.3,3.6-17,8.69995-13.9,14.4-12.9,55-12.9,73.5,0,17-1,57.1,10.8,70.9,5.1,6.19995,11.3,8.69995,19,10.80005,22.1,5.1,58.6,5.1,81.7,4.6l45.2-1c12.9-.5,30.3-.5,42.1-6.2,25.7-11.3,22.1-56.5,22.1-79.19995C837.3,1537.4,840.9,1491.6,815.2,1479.80005Z" transform="translate(0 0)" style="fill:#fff"/><path d="M1318.9,1729.1c-41.1,6.69995-96.6,6.19995-138.3,6.19995-25.7,0-50.9-.5-76.6-1-56.5-1-122.3-3.1-134.7-71.4-5.7-31.9-4.1-70.4-4.1-102.8,0-20.6,0-40.6.5-61.2.5-28.8,2.6-61.69995,23.6-83.8,13.9-14.4,33.4-21.6,52.9-24.7,41.1-6.69995,96.1-6.19995,138.30005-6.19995,25.19995,0,50.9,1,76.1,1.5,87.9,2.1,138.8,11.30005,138.8,113.1V1621.1C1395.5,1678.2,1381.1,1718.80005,1318.9,1729.1ZM1269,1479.80005c-11.80005-5.1-29.30005-5.69995-42.1-5.69995-20.6,0-41.1-.5-62.19995-.5s-44.2-.5-64.80005,4.1c-6.19995,1.5-12.3,3.6-17,8.69995-13.9,14.4-12.9,55-12.9,73.5,0,17-1,57.1,10.80005,70.9,5.1,6.19995,11.30005,8.69995,19,10.80005,22.1,5.1,58.6,5.1,81.69995,4.6l45.19995-1c12.9-.5,30.30005-.5,42.1-6.2,25.7-11.3,22.1-56.5,22.1-79.19995C1291.1,1537.4,1294.7,1491.6,1269,1479.80005Z" transform="translate(0 0)" style="fill:#fff"/><path d="M1587.2,1731.1V1477.7H1560.5L1459.2,1563,1401.6,1495.7l124.9-107.4H1692v342.79992H1587.2Z" transform="translate(0 0)" style="fill:#fff"/><path d="M2235.30005,1709C2210.6001,1735.7,2156.7,1734.7,2123.30005,1735.2c-26.69995,1-53.5,1-80.19995,1-44.7,0-98.7,1.5-142.4-8.19995-16.4-3.6-30.80005-10.30005-42.7-22.1-17.5-17-19.5-39.1-19.5-62.19995,0-8.7.5-17.5,1-26.2h100.7c0,7.7,0,14.9,2.6,22.1a20.18339,20.18339,0,0,0,7.69995,10.8c9.80005,7.7,39.1,6.7,50.4,6.7,14.9,0,29.30005.5,44.2.5,18.50012,0,36.50012-.5,55.00012-.5,12.8999,0,45.19995,1.5,54-10.80005,3.6001-5.69995,3.6001-13.4,3.6001-19.5,0-26.19995-20.6001-25.19995-41.6001-25.69995-55-1.5-110-4.6-165-6.7-29.80005-1-67.80005-2.1-89.4-26.19995-18-20-19.5-48.80005-19.5-74.5,0-61.2,15.9-99.7,81.69995-106.4,44.2-4.6,89.9-4.1,134.70008-4.1,43.19995,0,88.8999-1,131.1001,9.3,46.8,11.8,56.5,42.7,56.5,87.4v16.4H2144.90015v-5.1c0-9.8-1-17-9.8-22.6-9.80005-6.69995-32.8999-6.19995-44.2-6.19995H2002c-10.80005,0-41.1-.5-50.4,6.19995-6.7,4.6-8.2,12.80005-8.2,20.6,0,6.2,1.5,14.4,6.7,18.5,3.6,3.1,8.69995,4.1,13.4,4.6,11.80005,2.1,24.19995,2.1,36,2.6,23.1,1,46.30005,2.1,69.3999,2.6,39.6001,1,96.1001.5,134.7,10.8,12.3,3.6,23.1001,8.7,32.89991,17.5,21.10009,18.5,22.10009,54,22.10009,79.7C2258.5,1654,2255.8999,1686.9,2235.30005,1709Z" transform="translate(0 0)" style="fill:#fff"/><path d="M2616.2,1629.4H2378.7c0,13.9-.5,29.80005,11.3,39.6,12.3,9.80005,46.8,10.30005,61.7,10.30005s56.5.5,66.3-10.30005c4.1001-4.1,5.1001-9.80005,6.2-15.4h90.5c-2.1001,23.1-6.7,41.1-24.2,57.1-31.3999,28.30005-106.3999,26.69995-146,26.69995-36,0-96.1001.5-125.8999-22.6-9.30005-7.19995-15.3999-15.4-20.6001-25.69995-11.3-23.6-10.3-52.9-10.3-78.1,0-15.4,0-30.80005,1.5-45.69995,2.6001-24.69995,10.8-46.80005,31.3999-61.69995,31.89991-23.1,95.6001-21.6,133.1001-21.6,34.3999,0,72-1,105.3999,8.7,54,15.9,57.6001,65.3,57.6001,114.1C2616.7,1612.9,2616.7,1621.1,2616.2,1629.4Zm-91-55.6c0-9.30005-.5-16.4-7.2-23.6-10.8-11.80005-47.8-11.80005-62.7-11.80005-13.8999,0-27.8,0-41.1001,2.1-25.7,3.6-34.8999,13.4-35.5,39.1h146.5Z" transform="translate(0 0)" style="fill:#fff"/><path d="M2928.7,1595.9H2843.3999c0-36-11.8-45.69995-47.8-45.69995-56,0-57.60009,35.5-57.60009,80.19995v100.7h-91V1488h85.8v36.5h4.1001c21.1001-37.5,55-42.69995,94.6001-42.69995,28.3,0,62.2,3.6,81.2,27.19995,17,21.1,16.3999,51.4,16.3999,77.1C2929.2,1589.30005,2928.7,1592.9,2928.7,1595.9Z" transform="translate(0 0)" style="fill:#fff"/><path d="M2941.1001,1456.7v-68.4h91v68.4Zm0,274.4V1488h91v243.1Z" transform="translate(0 0)" style="fill:#fff"/><path d="M3392.80005,1629.4h-237.5c0,13.9-.5,29.80005,11.30005,39.6,12.3,9.80005,46.8,10.30005,61.69995,10.30005s56.5.5,66.30005-10.30005c4.1001-4.1,5.1001-9.80005,6.19995-15.4h90.5c-2.1001,23.1-6.69995,41.1-24.19995,57.1-31.3999,28.30005-106.3999,26.69995-146,26.69995-36,0-96.1001.5-125.8999-22.6-9.30005-7.19995-15.39991-15.4-20.6001-25.69995-11.30005-23.6-10.30005-52.9-10.30005-78.1,0-15.4,0-30.80005,1.5-45.69995,2.6001-24.69995,10.80005-46.80005,31.3999-61.69995,31.8999-23.1,95.6001-21.6,133.1001-21.6,34.3999,0,72-1,105.3999,8.7,54,15.9,57.6001,65.3,57.6001,114.1C3393.3999,1612.9,3393.3999,1621.1,3392.80005,1629.4Zm-90.90015-55.6c0-9.30005-.5-16.4-7.19995-23.6C3283.8999,1538.4,3246.8999,1538.4,3232,1538.4c-13.8999,0-27.8,0-41.1001,2.1-25.69995,3.6-34.8999,13.4-35.5,39.1h146.5Z" transform="translate(0 0)" style="fill:#fff"/><path d="M3734.1001,1710.6c-28.30005,28.3-117.2,26.69995-153.7,26.69995-39.6001,0-109.5,3.1-141.3-25.19995-17.5-15.4-21.1001-36-21.6001-58.6H3510c2.1001,22.1,24.7,24.69995,42.1001,26.19995,11.3,1,22.6001,1,33.8999,1,15.8999,0,59.1001,1,71.3999-10.30005,3.6001-3.1,5.1001-7.69995,5.1001-12.3,0-20-28.3-19-42.1001-19-17,0-33.8999-.5-50.8999-.5h-52.3999c-54.5,0-97.7-12.9-97.7-75.6,0-38.5,15.3999-64.2,54-73.5,35.5-8.2,77.60009-7.7,113.60009-7.7,38,0,104.30005-2.6,134.1001,22.1,15.8999,13.4,18,33.4,19.5,52.9h-92.5c-1-5.1-2.1001-8.69995-6.7-11.8-9.8-6.7-46.3-6.7-57.6001-6.7-14.8999,0-55-.5-67.80005,8.2-3.60009,3.1-5.69995,6.69995-5.69995,11.3,0,13.4,10.8,15.4,21.6001,16.4,23.1001,2.1,49.8999,1.5,73,1.5l50.8999.5c57.1001.5,97.1001,11.30005,97.1001,76.1C3753.2,1673,3749.6001,1695.1,3734.1001,1710.6Z" transform="translate(0 0)" style="fill:#fff"/></svg>