<svg id="svg2" xmlns="http://www.w3.org/2000/svg" viewBox="0 0 3838.90015 787.5">
  <g>
    <path id="path1506" d="M2839.8999,413.1h64.8999V354.5h-64.8999Z" transform="translate(0 0)" style="fill: #fff"/>
    <g>
      <path id="path1502" d="M1266.5,732.7,1109,619.9l151-100.7-36-54L1088.2,555.7l-5.6,5,.8-7v-199h-64.9v426.1h64.9v-93.3l-1-8.1,6.1,5.7L1228.7,785.6001,1266.5,732.7" transform="translate(0 0)" style="fill: #fff"/>
      <path id="path1504" d="M2839.80005,780.5H2904.7v-307h-64.8999Z" transform="translate(0 0)" style="fill: #fff"/>
      <path id="path1508" d="M179,309.5C80.6,309.5.7,390.4.2,488.7L0,787.5H64.9V626.3A178.09318,178.09318,0,0,0,179,667.5c98.7,0,179-80.3,179-179s-80.3-179-179-179Zm0,293A114.1,114.1,0,1,1,293.1,488.4,114.24846,114.24846,0,0,1,179,602.5" transform="translate(0 0)" style="fill: #fff"/>
      <path id="path1510" d="M515.1,786.3c87.9,0,159.4-71.5,159.4-159.4,0-87.9-71.5-159.4-159.4-159.4S355.7,539,355.7,626.9C355.7,714.8,427.2,786.3,515.1,786.3ZM420.6,626.8a94.5,94.5,0,1,1,94.5,94.5,94.61664,94.61664,0,0,1-94.5-94.5" transform="translate(0 0)" style="fill: #fff"/>
      <path id="path1512" d="M993.2,540.3a158.75561,158.75561,0,0,0-134-73.1c-87.9,0-159.4,71.5-159.4,159.4s71.5,159.4,159.4,159.4a159.71521,159.71521,0,0,0,139.8-82.6L942,672.1a94.55887,94.55887,0,1,1-3.4-96.6l54.6-35.2" transform="translate(0 0)" style="fill: #fff"/>
      <path id="path1514" d="M1576.1,659.9c3.3-13.9,3.3-32.3,3.3-32.3,0-87.9-71.5-159.4-159.4-159.4s-159.4,71.5-159.4,159.4S1332.1,787,1420,787a159.90166,159.90166,0,0,0,139.30005-81.8l-56.69995-31.6a94.43263,94.43263,0,0,1-168.9-7.8c-.80005-1.9-2.9-4.8-3.6-6.8l7.1,1h209.8l29.1-.2v.1Zm-242.6-70.2a94.34539,94.34539,0,0,1,172.80005-.3c.80005,1.9,2.9,4.7,3.6,6.6l-7.19995-.9h-166.7l-5.8.9c.69995-1.8,2.49988-4.6,3.29993-6.3" transform="translate(0 0)" style="fill: #fff"/>
      <path id="path1516" d="M1672,621.5v-83h94.5V473.6H1672V403.9h-64.9V621.5c0,87.9,71.5,159.4,159.4,159.4V716a94.61666,94.61666,0,0,1-94.5-94.5" transform="translate(0 0)" style="fill: #fff"/>
      <path id="path1518" d="M2057.6001,411.7c-3.3999-51.1-59.1-96-119.2-96-37.19995,0-70.5,12.9-93.8,36.3-22.80005,23-34.80005,54.4-34.6,90.9.4,64,53.6,111.5,126.4,112.9,63.9,1.3,94.9,27.2,94.9,79.2,0,60.4-47.1,87.4-93.80005,87.4a94.51418,94.51418,0,0,1-93.8-82.9l-64.4,7.9a159.59022,159.59022,0,0,0,158.19995,139.9c91.9,0,158.7-64,158.7-152.2,0-88.3-59.2-142.1-158.5-144.1-31.1-.6-62.69995-15.9-62.9-48.4-.1-19.1,5.2-34.1,15.7-44.8,11-11,27.9-17.1,47.69995-17.1,28.19995,0,53.5,21.7,54.4,35.4l65.00025-4.4" transform="translate(0 0)" style="fill: #fff"/>
      <path id="path1520" d="M2189.30005,621.5V538.8H2283.2V473.9h-94V409.2h-64.8999V621.5c0,87.9,71.5,159.4,159.3999,159.4V716c-52,.1-94.3999-42.3-94.3999-94.5" transform="translate(0 0)" style="fill: #fff"/>
      <path id="path1522" d="M2546.8999,474v19.2l.7,7.9c-1.5-1.1-3.7-4.3-5.30005-5.4a158.60382,158.60382,0,0,0-90.19995-28.1C2364.2,467.6,2292.7,539.1,2292.7,627s71.5,159.4,159.3999,159.4a159.27845,159.27845,0,0,0,90.19995-28c1.6001-1.1,4.1001-4,5.7-5.1l-1,7.6v19.9h64.8999V474Zm-94.7998,247.5a94.5,94.5,0,1,1,94.5-94.5,94.61659,94.61659,0,0,1-94.5,94.5" transform="translate(0 0)" style="fill: #fff"/>
      <path id="path1524" d="M2711.2,621.4V538.5h94.19995V473.6H2711.2V408.5h-64.8999V621.4c0,87.9,71.5,159.4,159.3999,159.4V715.9a94.61675,94.61675,0,0,1-94.5-94.5" transform="translate(0 0)" style="fill: #fff"/>
      <path id="path1526" d="M3093.3999,786.6c87.8999,0,159.3999-71.5,159.3999-159.4s-71.5-159.4-159.3999-159.4S2934,539.29993,2934,627.19995,3005.5,786.6,3093.3999,786.6Zm-94.5-159.4a94.5,94.5,0,1,1,94.5,94.5,94.61659,94.61659,0,0,1-94.5-94.5" transform="translate(0 0)" style="fill: #fff"/>
      <path id="path1528" d="M3345.2,780.8V627a94.5,94.5,0,0,1,189,0V781.2h64.8999V627c0-87.9-71.5-159.4-159.3999-159.4s-159.3999,71.5-159.3999,159.4V780.8H3345.2" transform="translate(0 0)" style="fill: #fff"/>
    </g>
    <path id="path1530" d="M3679.6001,688.5h-34.3999V676.6h82.10009v11.9h-34.2v92.7h-13.5V688.5" transform="translate(0 0)" style="fill: #fff"/>
    <path id="path1532" d="M3782.8999,781.2l-28.6001-85v85h-13.8V676.5h19.10009l30.1001,89,30.1001-89h19.1001V781.1h-13.8v-85l-28.6001,85h-13.6001" transform="translate(0 0)" style="fill: #fff"/>
    <g>
      <path d="M2311.8999,7.9v26h9.7c8.19995,0,10.8,1.2,10.8,4.2,0,1.8-1.1001,3.9-3.3,7l-38.60009,41.2c-4.89991,5.6-10.2,5-14.5.6l-36.39991-39.6c-1.8999-2.4-4.80005-4.8-4.80005-7.9,0-3.6,4.1001-5.4,13.80005-5.4h9.5V8h-133.5V34c33.1001,0,31.39991,3,43.3,16.9l71.8999,79.5v40.2c0,10.3-5.19995,13.9-20.10009,13.9h-23.1001v25.1h147.6001V184.5h-23c-14.89991,0-20.1001-3.6-20.1001-13.9V130.4l61-65.9c22.3-28.1,25.3-30.5,41.3-30.5h13.8999V8H2311.8999Z" transform="translate(0 0)" style="fill: #fff"/>
      <path d="M1238.2,54.4c0-16,29.6-26.9,64.69995-26.9,27.2,0,59.6,11.4,74.5,25.2,8.30005,7.6,17.4,13.3,20,27.8h29.7V7.9H1395c.1,16.7-6.30005,16.1-13.19995,11.7-24.69995-13.9-50.30005-18-81.1-18-72.9,0-119,26-119,67.4,0,39.9,36.4,51.1,86.5,58.7l44.3,7.3c52.2,8.2,68.4,11.8,68.4,26.9s-16.4,25.5-64,26c-31.6.3-66.1-9.4-80.6-22.7-8.30005-7.6-17.4-11.5-24-30.5h-29.9v75h33c1.4-10.5,4.6-19,12.1-14.6,23.9,12.7,64.30005,21,91.1,21,77.19995,0,120.3-24.5,120.3-68.3C1439,63.5,1238.2,98.9,1238.2,54.4Z" transform="translate(0 0)" style="fill: #fff"/>
      <path d="M1984.2,34.5h18.5c15.69995,0,21.19995,3.6,21.19995,14.2l-.6,80.7-128-120H1789.7V34.5h20.19995c15.7,0,21.2,3.6,21.2,14.2V172.1c0,10.3-5.5,14.2-21.2,14.2H1789.7v24.8h122.1V186.3h-20.5C1875.6,186.3,1870.1,182.4,1870.1,172.1V69.6l149,141.2,46.00012.4V48.7c0-10.6,5.5-14.2,21.19995-14.2h15.30005V9.4h-117.6V34.5Z" transform="translate(0 0)" style="fill: #fff"/>
      <path d="M1629.4,0C1535.7,0,1477,41.4,1477,108c0,65.3,57.9,106.4,149.5,106.4,97.4,0,154-40.5,154-109.8C1780.6,42.3,1719.4,0,1629.4,0Zm-2.1,188.1c-51.9,0-81.69995-29.9-81.69995-81.6,0-50.5,31.1-80.4,84.3-80.4,51,0,80.80005,30.5,80.80005,82.6C1710.7,159.4,1680.4,188.1,1627.30005,188.1Z" transform="translate(0 0)" style="fill: #fff"/>
    </g>
  </g>
</svg>
