<svg id="Layer_1" data-name="Layer 1" xmlns="http://www.w3.org/2000/svg" viewBox="0 0 3839 1091.30005">
  <g>
    <path d="M1041,966.9h39.30005c12,0,26.69995-5.9,26.69995-25.2,0-20.4-12.19995-25.4-26.4-25.4H1041Zm-26.9-71.8h67.6c44.19995,0,51.9,27.4,51.9,46.9,0,18.9-7.7,46.9-51.9,46.8H1041v58.50006h-26.9V895.1" transform="translate(0 0)" style="fill: #fff"/>
    <rect x="1150" y="895.09998" width="24.69995" height="152.09998" style="fill: #fff"/>
    <path d="M1269.4,992c-7.5,4.5-18.69995,4.5-29.5,6.4-10.6,1.7-20.1,5.7-20.1,18.5,0,11.1,14.1,14.4,22.69995,14.4,10.9,0,27-5.69995,27-21.1V992Zm24.7,30.9c0,5.9,1.5,8.30005,5.9,8.30005a25.9166,25.9166,0,0,0,6.19995-.6v16.6c-3.80005,1.3-11.6,2.9-15.69995,2.9-9.9,0-17.30005-3.6-19-13.30005-9.80005,8.9-25.1,13.30005-38.19995,13.30005-20.1,0-38.4-10.9-38.4-32.2,0-27.6,22.5-32.1,43-34.6,17.6-3.4,33.1-1.4,33.1-15.3,0-12.7-13.1-15.1-22.5-15.1-13.9,0-23.6,5.5-24.6,17.8h-24.6c1.5-28.8,26.1-37.2,50.69995-37.2,21.4,0,44.1,8.7,44.1,32.4V1022.9" transform="translate(0 0)" style="fill: #fff"/>
    <path d="M1304.7,936.7h26.6l29.1,82.6h.2l27.9-82.6h25.5l-42.7,116.6c-8.19995,20-13.8,38-39.5,38A111.2186,111.2186,0,0,1,1315.1,1090.1001v-20.7c3.69995.5,7.4,1.6,11.19995,1.6,11.4,0,14.30005-6,17.5-15.6l2.80005-8.6Z" transform="translate(0 0)" style="fill: #fff"/>
    <path d="M1444.5,996.3c0,23.6,17.1,33.1,38.69995,33.1,23.30005,0,31.69995-11.6,31.69995-23.5,0-11.8-6.19995-16.5-12.4-18.6-10.1-4.2-24.1-7.2-45.4-12.7-25.80005-7-33.5-22.8-33.5-39,0-29.7,27.69995-44.2,55.9-44.2,31.1,0,58.19995,17.2,58.19995,48.3h-27c-1.4-20-13.69995-27.4-32.19995-27.4-12.5,0-28.30005,4.8-28.30005,20.3,0,10.6,7.19995,16.8,18.1,19.7,2.6.7,36.2,9.4,43.6,11.9,20.4,5.9,30,23.1,30,38.6,0,34.50006-30.4,47.9-60.1,47.9-35.19995,0-63.4-16.30005-64-54.5H1444.5Z" transform="translate(0 0)" style="fill: #fff"/>
    <path d="M1550.6,936.7h18.69995V904.1H1593.6v32.6h22V955h-22v58.9c0,10,.8,15.5,11.6,15.5,3.6,0,7,0,10.4-1.19995v18.8c-5.4.30005-10.6,1.30005-15.9,1.30005-25.6,0-30-9.80005-30.4-28V955H1550.6Z" transform="translate(0 0)" style="fill: #fff"/>
    <path d="M1703.2,992c-7.19995,4.5-19,4.5-29.6,6.4-10.7,1.7-20.30005,5.7-20.30005,18.5,0,11.1,14.1,14.4,22.80005,14.4,10.9,0,27.1-5.69995,27.1-21.1Zm24.6001,30.9c0,5.9,1.30005,8.30005,5.80005,8.30005a25.17367,25.17367,0,0,0,6.1-.6v16.6a61.652,61.652,0,0,1-15.4,2.9c-9.9,0-17-3.6-19-13.30005-9.4,8.9-25.19995,13.30005-38.30005,13.30005-20,0-37.6-10.9-37.6-32.2,0-27.6,21.6-32.1,42.30005-34.6,17.9-3.4,33.1-1.4,33.1-15.3,0-12.7-12.69995-15.1-22.5-15.1-13.9,0-23.69995,5.5-24.9,17.8h-23.8c1.3-28.8,25.5-37.2,50-37.2,21.5,0,44.4,8.7,44.4,32.4V1022.9" transform="translate(0 0)" style="fill: #fff"/>
    <path d="M1742.2,936.7H1760.5V904.1H1785v32.6h22.30005V955H1785v58.9c0,10,.9,15.5,11.9,15.5,3.5,0,7,0,10.4-1.19995v18.8c-5.5.30005-10.5,1.30005-16.1,1.30005-25.9,0-30.4-9.80005-30.7-28V955h-18.3V936.7Z" transform="translate(0 0)" style="fill: #fff"/>
    <path d="M1827.9,936.7h24.6v110.4h-24.6Zm0-41.6h24.6v22.4h-24.6Z" transform="translate(0 0)" style="fill: #fff"/>
    <path d="M1958.2,992c0-18.7-9.4-38.9-31.1-38.9-22.1,0-32,20.2-32,38.9,0,19.2,9.9,39.30005,32,39.30005,21.70007,0,31.1-20.1,31.1-39.30005M1871,992c0-33.7,20-58.3,56-58.3,35.19995,0,55.80005,24.6,55.80005,58.3,0,34.19995-20.6,58.30005-55.80005,58.30005-36,0-56-24.20007-56-58.30005" transform="translate(0 0)" style="fill: #fff"/>
    <path d="M2001.30005,936.7h22.80005v16.4l.6.3a39.1906,39.1906,0,0,1,34.6-19.7c22.30005,0,37.3999,12.7,37.3999,38V1047.2h-22.5v-69.7c-.3999-17-7.30005-24.5-21.7-24.5-16.5,0-27.19995,13-27.19995,28.8v65.3h-24.1V936.7Z" transform="translate(0 0)" style="fill: #fff"/>
    <polygon points="2173 894.9 2200.9 894.9 2239 1015.1 2239.6 1015.1 2278.5 894.9 2305.7 894.9 2253.8 1046.9 2223.8 1046.9 2173 894.9" style="fill: #fff"/>
    <path d="M2320.3999,894.9H2344.5v22.5h-24.1001Zm0,41.7H2344.5v110.3h-24.1001Z" transform="translate(0 0)" style="fill: #fff"/>
    <path d="M2360,936.6h18.5V904.1h24.2v32.5H2425v18.1h-22.3v58.9c0,10,.8,15.4,11.8999,15.4,3.6001,0,6.8,0,10.39991-1.1v18.6c-5.6001.4-10.7,1.1-16.2,1.1-25.10009,0-30-9.6-30.3999-27.9v-65.2H2360Z" transform="translate(0 0)" style="fill: #fff"/>
    <path d="M2534.80005,1022.5c0,5.9,1.5,8.30005,5.80005,8.30005a46.66109,46.66109,0,0,0,6-.30005V1047c-3.7,1.30005-11.3999,3-15.3999,3-9.89991,0-16.5-3.6-18.30005-13.4-9.89991,9.19995-25.6001,13.4-38.8,13.4-19.80005,0-37.7-10.9-37.7-32.2,0-27.6,21.8999-32.3,42.3999-34.4,17.80005-3.3,33.6001-1.5,33.6001-15.5,0-12.7-13.19995-15.2-23.1001-15.2-13.8,0-23.8,5.7-24.8,17.8h-24.1001c1.80005-28.4,25.6001-37.1,50.3999-37.1,21.7,0,43.80005,9,43.80005,32.5v56.6Zm-23.90015-30.8c-7.5,4.6-19.3999,4.5-30.19995,6.5-10.6001,1.7-19.8999,5.6-19.8999,18.4,0,11.00006,13.8999,14.3,22.6001,14.3,10.7,0,27.5-5.5,27.5-21.1V991.7Z" transform="translate(0 0)" style="fill: #fff"/>
    <polygon points="3735.3 549.5 3713.3 549.5 3713.3 542 3766.6 542 3766.6 549.5 3744 549.5 3744 609.8 3735.3 609.8 3735.3 549.5" style="fill: #fff"/>
    <polygon points="3802.7 609.8 3784.2 554.8 3784.2 609.8 3775.2 609.8 3775.2 542 3787.7 542 3807.2 599.5 3826.4 542 3839 542 3839 609.8 3830 609.8 3830 554.8 3811.6 609.8 3802.7 609.8" style="fill: #fff"/>
    <path d="M0,424.7v183a4.58205,4.58205,0,0,0,4.3,4.5H122a4.443,4.443,0,0,0,4.3-4.5v-183c0-53.2,28-90.4,67.4-90.4H504.2c99,0,160.3-63.5,160.3-166.8C664.5,64.5,603.1.1,504.2.1H4.5A4.777,4.777,0,0,0,0,4.7V71.4A4.77707,4.77707,0,0,0,4.5,76H465.3c45.1,0,71.2,33.2,71.2,91.5,0,58.2-26.1,91.8-71.2,91.8H135C58.7,259.2,0,330.1,0,424.7" transform="translate(0 0)" style="fill: #fff"/>
    <path d="M1090.80005,76H1326a4.76312,4.76312,0,0,0,4.80005-4.6V4.7A4.77915,4.77915,0,0,0,1326,0L1052,.2c-99,0-160.2,64.1-160.2,167.2V445c0,58.3-25.3,91.5-71,91.5H579.3a4.72226,4.72226,0,0,0-4.5,4.7v66.5a4.48129,4.48129,0,0,0,4.5,4.5h281c98.3,0,159.5-64.1,159.5-167.1V167.4c0-58.4,26.1-91.4,71.00006-91.4" transform="translate(0 0)" style="fill: #fff"/>
    <path d="M2224.7,607.7a4.54583,4.54583,0,0,0,4.5,4.5h119.1001a4.37811,4.37811,0,0,0,4.30005-4.5V5a4.28731,4.28731,0,0,0-4.30005-4.6H2229.2a4.4426,4.4426,0,0,0-4.5,4.6Z" transform="translate(0 0)" style="fill: #fff"/>
    <path d="M1852.7,544.8,2140.1001,5.4c1.3999-2.7,0-5.4-2.5-5.4H2064c-2.5,0-5.2,1.9-6.5,4.1L1825.2,436.2c-16.69995,32.1-45.5,35.8-62.9,3.9L1528.6,4.1c-1-2.3-4.2-4.1-6.7-4.1H1391.6c-3.1,0-4.2,2.8-2.7,5.7L1676.6001,544.8c16.69995,30.9,36.69995,51.2,58,60.6,34,15.9,71.19995,4.2,100.9-34.2A207.64532,207.64532,0,0,0,1852.7,544.8" transform="translate(0 0)" style="fill: #fff"/>
    <path d="M3034.80005.4H2440.5A4.2788,4.2788,0,0,0,2436,5V70.8a4.3965,4.3965,0,0,0,4.5,4.4h226.1001a8.21666,8.21666,0,0,1,8.1001,8.2V607.7a4.48129,4.48129,0,0,0,4.5,4.5h116.60009a4.55665,4.55665,0,0,0,4.8-4.5V83.4a8.027,8.027,0,0,1,8.1001-8.2h226a4.71208,4.71208,0,0,0,4.69995-4.4V5a4.35684,4.35684,0,0,0-4.60034-4.6" transform="translate(0 0)" style="fill: #fff"/>
    <path d="M3678,606.9l-287.2-539.1c-16.5-31.1-37-51.2-58.1001-61.1-34.30005-15.4-71-3.9-101.1001,34.5A147.66546,147.66546,0,0,0,3214.7,67.8l-290,539.6c-1.30005,2.6,0,5.1,3.1001,5.1h75.7a8.29723,8.29723,0,0,0,6.6001-4l62-115.5.1001-.3a14.62074,14.62074,0,0,1,11.8-7.2h378.5c4.2,0,9.1001,3.1,11.7,6.8l.19995.5,62,115.6c.8999,2.2,4.10009,4,6.5,4h132.7C3678.7,612.5,3679.3999,609.6,3678,606.9M3421.1001,410.5H3125.30005c-5.19995,0-7.19995-3.6-5-7.9h.1001L3241.7002,176.1c17.3-31.7,45.60009-35.6,63-3.9l121.69995,231.3c1.59985,3.8-.40015,7-5.3,7" transform="translate(0 0)" style="fill: #fff"/>
  </g>
</svg>
