<svg id="Layer_1" data-name="Layer 1" xmlns="http://www.w3.org/2000/svg" viewBox="0 0 3839 1157"><polygon points="9.3 255.6 308.1 387.1 308.1 240 181.9 184.5 64.6 184.5 64.6 147.5 308.1 147.5 308.1 12.9 9.3 12.9 9.3 255.6" style="fill:#e41608"/><path d="M174.3,379.3V528.9h89.3v36.8H48V528.9h89.4V379.3H121.2C33.3,379.3,0,424.9,0,481.2V613.5c0,56.2,33.3,101.9,121.2,101.9h69.4c87.9,0,121.2-45.6,121.2-101.9V481.2c0-56.2-33.3-101.9-121.2-101.9H174.3Z" transform="translate(0 0)" style="fill:#e41608"/><path d="M136.1,764.5H76.6A67.43068,67.43068,0,0,0,9.2,831.9v263.5H308.1V960.7H64.6V923.9H181.8L308,868.4V723.2l-133.8,70A39.56539,39.56539,0,0,0,136.1,764.5Z" transform="translate(0 0)" style="fill:#e41608"/><path d="M3558.80005,12.1H3330.80029a6.55089,6.55089,0,0,0-6.3999,5.1c-.8999,3.9,2,8.1,6.1001,8.1,83.6001,0,71.8999,47.1,66.6001,71.2l-116.7,526.2c-7.8999,35.7-43.5,69.5-101.2,71.4a6.961,6.961,0,0,0-6.3999,5.1,6.65567,6.65567,0,0,0,6.3999,8.1h242.5a6.55091,6.55091,0,0,0,6.39991-5.1c.8999-3.9-2-8.1-6.1001-8.1-66.19995,0-73.19995-47.1-67.8999-71.2l116.8999-526.2c7.8999-35.7,30.2-69.5,87.7-71.4a6.96093,6.96093,0,0,0,6.3999-5.1A6.54256,6.54256,0,0,0,3558.80005,12.1Z" transform="translate(0 0)" style="fill:#fff"/><path d="M3832.3999,12.1H3604.40015a6.5509,6.5509,0,0,0-6.39991,5.1c-.8999,3.9,2,8.1,6.1001,8.1,83.6001,0,71.8999,47.1,66.6001,71.2l-116.7,526.2c-7.8999,35.7-43.5,69.5-101.19995,71.4a6.961,6.961,0,0,0-6.39991,5.1,6.65568,6.65568,0,0,0,6.39991,8.1h242.5a6.5509,6.5509,0,0,0,6.3999-5.1c.8999-3.9-2-8.1-6.1001-8.1-66.2,0-73.2-47.1-67.8999-71.2l116.8999-526.2c7.8999-35.7,30.2-69.5,87.7-71.4a6.961,6.961,0,0,0,6.39991-5.1A6.44857,6.44857,0,0,0,3832.3999,12.1Z" transform="translate(0 0)" style="fill:#fff"/><path d="M1191.80005,601.1l67-301.9h102.4l9.4-42.3h-102.4l37.3-168.4c1.1-5.1-5.69995-7.9-8.4-3.4-31.30005,52.3-58.2,173.8-197.6,195.1a10.07414,10.07414,0,0,0-8.4,8.6,9.54772,9.54772,0,0,0,9.5,10.6h82.5c-.9,1.1-49.6,222.1-71.7,323.1-17.4,79.7,43.30005,112.4,103.30005,72.6,71.1-47.1,100.1-107.5,107.3-123.6a7.87431,7.87431,0,0,0-.6-7.6l-.2-.2a8.12822,8.12822,0,0,0-13.6,0c-73.9,111.3-110.4,111.3-117.19995,68.1A87.87347,87.87347,0,0,1,1191.80005,601.1Z" transform="translate(0 0)" style="fill:#fff"/><path d="M2790.30005,721.9c-33.5,0-80-8-110.69995-46.2-32.1001-40-38.8999-103.2-20.2-188,19.3999-87.8,90.5-236.3,234.10009-236.3,46.2,0,81.7,15.1,105.39991,44.8,54.80005,68.8,27.7,191,27.3999,192.2C3004.8999,582.3,2924.30005,721.9,2790.30005,721.9ZM2889.2,274.6c-55.7,0-131.7,103.9-156.6001,213.9C2716.7,558.7,2704.7,635.7,2735.2998,674.1c13.1001,16.4,33.6001,24.7,60.89991,24.7,77.5,0,142-139.7,157.7-211,21-95.3,18.8999-157-6.5-188.7C2934.3999,282.8,2914.80005,274.6,2889.2,274.6Z" transform="translate(0 0)" style="fill:#fff"/><path d="M2893.6001,253.2c-133.1001,0-209.7,132.3-232.3999,234.9-41.39991,187.5,50.8999,232.1,129.10009,232.1,136.69995,0,213.89991-143.1,234.3-232.1C3033,451.8,3061.2,253.2,2893.6001,253.2Zm62,234.9C2941.5,552,2878.30005,700.5,2796.2002,700.5c-103.89991,0-87-116.2-65.30005-212.4,25.5-112.8,101.7-215.2,158.30005-215.2C2985.5,272.9,2978.30005,385.7,2955.6001,488.1Z" transform="translate(0 0)" style="fill:#fff"/><path d="M2494.7,604.2h0l77-347.3H2428a11.13913,11.13913,0,0,0-11.1001,11.1h0A11.13913,11.13913,0,0,0,2428,279.1h18.3999c36.6001,0,41.8999,29,36.8999,51.4,0,0-43.19995,192.4-63.69995,287.2-14.80005,68.3,34.8,108.5,78.39991,89.8,47.3999-20.3,97.8-110.4,109.19995-131a7.5667,7.5667,0,0,0-.89991-8.7l-.19995-.2a7.89241,7.89241,0,0,0-12.2.6C2531.6001,660.7,2477.2,682.6,2494.7,604.2Z" transform="translate(0 0)" style="fill:#fff"/><path d="M2195.2,23.8h0a10.93113,10.93113,0,0,0,10.8999,10.6l25.3.2a46.98768,46.98768,0,0,1,45.3999,57l-44.60009,201.1c-12.3-21-35-30.9-69.6001-37.2-62.5-11.4-172.80005,29.7-245.9,201.9-69.8,164.6-.6,260,65.4,260.8,79.30005,0,118.8999-57.7,179.5-140.5-10.7,70.7,16.19995,161.9,88.3,117,51.8-32.3,95.3999-95.9,108-114.2a8.65529,8.65529,0,0,0,.2-9.4l-.2-.2a8.54016,8.54016,0,0,0-13.3999-1.1c-82.6001,91.8-119.89991,99.9-102.39991,21.5h-.2L2370.2,12.1l-163.8999.2A11.22477,11.22477,0,0,0,2195.2,23.8ZM2208,401.3l-.8999,4.4c-5.8999,25.7-16.1001,55.2-31.2,88.4-69,152.3-118.69995,186.3-170.19995,176.3-51.4-10-58.4-99.5-13.1-210.8,45.4-111.4,122.6-190,174.1-180.1C2205,286.8,2224.7,324.2,2208,401.3Z" transform="translate(0 0)" style="fill:#fff"/><ellipse cx="2584.73482" cy="66.2557" rx="58.30326" ry="43.90242" transform="translate(1348.97908 2337.41216) rotate(-62.91738)" style="fill:#fff"/><path d="M1857.9,571.4l-.19995-.2a8.87142,8.87142,0,0,0-14.2-.8c-24.6,30.7-46.3,64.6-72.19995,79.6-20.69995,12-41.1,13.9-31.80005-27.9l80.80005-365.2H1745C1712.4,381.1,1603.9,665.1,1501.2,665.1c-31.19995,0-23.30005-44.8-21.30005-53.9l78.4-354.3H1420.6a6.73592,6.73592,0,0,0-5.30005,2.5c-7.69995,9.1-1.19995,19.6,7.6,19.6h10.1a35.86552,35.86552,0,0,1,24,8.9c7.8,7.3,14.3,20.1,9.4,42.6,0,0-43.19995,194.7-59.4,267.4-15.2,68.1,24.69995,139.1,99.6,111.4,60.6-22.3,141.69995-145.9,170.1-191.7h0c-11.6,49.2-26.19995,127.9-18.5,155.9,13.5,48.4,66.69995,50.5,95.4,28.4,63.69995-49.1,95.69995-103.5,104.69995-122A8.5657,8.5657,0,0,0,1857.9,571.4Z" transform="translate(0 0)" style="fill:#fff"/><path d="M1103.30005,90c5,22.1-5.30005,72.4-71.30005,44.9-32.2-13.4-87.2-96.1-200.1-96.1-49.8,0-84,18.8-110.3,44.2-34.3,33-46.6,84.8-31.2,116.7,16.8,34.9,75.6,63.5,104.9,76.9,58.5,26.8,169.4,54.5,205.3,118.2,28.4,50.5,27.7,159.2-89.6,257.2-53.2,44.4-127.3,71.4-218.5,66.4C610.6,713.9,494.8,686,456,615.6c-17.3-31.3,18.7-84.9,66.9-55.5C611,613.8,637,680.4,756.3,683.2,870.5,685.8,938.6,602,951,550.7c8.9-36.5,24.8-103.9-108.7-154.7-38.7-14.7-156.4-51.3-202.2-103.6-54-61.6-17.2-158.9,28.7-204.7C737.2,19.6,800,0,898.9,0,960.9,0,1088.2,23.9,1103.30005,90Z" transform="translate(0 0)" style="fill:#fff"/><path d="M487.9,871.3h49.3v86h90.7v-86h49.3v224.1H627.9V998.7H537.2v96.7H487.9V871.3Z" transform="translate(0 0)" style="fill:#fff"/><path d="M794.6,928.8c51.2,0,84.1,33.9,84.1,85.7,0,51.5-33,85.4-84.1,85.4-50.9,0-83.8-33.9-83.8-85.4C710.8,962.7,743.7,928.8,794.6,928.8Zm0,137.50006c30.4,0,39.6-26.1,39.6-51.8,0-26.1-9.1-52.1-39.6-52.1-30.1,0-39.2,26.1-39.2,52.1C755.3,1040.2,764.4,1066.30005,794.6,1066.30005Z" transform="translate(0 0)" style="fill:#fff"/><path d="M908.8,933.2h42.1v22h.6c11.6-16.6,28.6-26.4,49.6-26.4,20.4,0,38.6,7.5,47.4,27,9.4-14.1,26.4-27,49-27,34.5,0,59.3,16,59.3,58.1v108.6h-44.6v-92c0-21.7-1.9-39.6-27.30005-39.6-25.1,0-29.8,20.7-29.8,41.1v90.4h-44.6v-91c0-18.8,1.3-40.5-27-40.5-8.8,0-30.1,5.7-30.1,37.4V1095.5h-44.6V933.2Z" transform="translate(0 0)" style="fill:#fff"/><path d="M1228.7,1025.1c1.30005,28.3,15.1,41.1,39.9,41.1,17.9,0,32.3-11,35.19995-21h39.2c-12.6,38.30005-39.2,54.6-76,54.6-51.2,0-82.9-35.19995-82.9-85.4,0-48.7,33.6-85.7,82.9-85.7,55.19995,0,81.9,46.5,78.8,96.4H1228.7Zm72.5-28.2c-4.1-22.6-13.80005-34.5-35.5-34.5-28.30005,0-36.4,22-37,34.5Z" transform="translate(0 0)" style="fill:#fff"/><path d="M1526.30005,912.8H1459.1001V871.4h183.6v41.4h-67.2v182.7h-49.3V912.8Z" transform="translate(0 0)" style="fill:#fff"/><path d="M1785.2,1095.4h-55.6l-72.80005-224.1h50.9l49.9,157.6h.6l50.5-157.6h50.9Z" transform="translate(0 0)" style="fill:#fff"/><path d="M1978.6,871.3h101.1c55.8999,0,77.5,35.5,77.5,71.9s-21.7,71.9-77.5,71.9H2027.8999v80.4h-49.3V871.3Zm49.3,105.5H2066.2c22.8999,0,43.3-5,43.3-33.6s-20.3999-33.6-43.3-33.6H2027.8999V976.8Z" transform="translate(0 0)" style="fill:#fff"/><path d="M2183.2,933.2h42.3999v30.1h.6001c8.19995-20.4,30.1001-34.5,51.8-34.5a31.30282,31.30282,0,0,1,9.7,1.6v41.4a84.88215,84.88215,0,0,0-16-1.6c-32.6001,0-43.8999,23.5-43.8999,52.1v73.1H2183.2Z" transform="translate(0 0)" style="fill:#fff"/><path d="M2378.5,928.8c51.2,0,84.1001,33.9,84.1001,85.7,0,51.5-33,85.4-84.1001,85.4-50.8999,0-83.8-33.9-83.8-85.4C2294.7,962.7,2327.6001,928.8,2378.5,928.8Zm0,137.50006c30.3999,0,39.6001-26.1,39.6001-51.8,0-26.1-9.1001-52.1-39.6001-52.1-30.1001,0-39.2,26.1-39.2,52.1C2339.2,1040.2,2348.30005,1066.30005,2378.5,1066.30005Z" transform="translate(0 0)" style="fill:#fff"/><path d="M2647.5,1085.1c0,26.69995-9.3999,71.9-84.1001,71.9-32,0-69.3999-15.1-71.6001-52.1h44.30005c4.1001,16.6,17.6001,22.30005,33.3,22.30005,24.80005,0,36.1001-17,35.80005-40.2v-21.3h-.6001c-9.7,17-29.2,25.1-48.7,25.1-48.69995,0-69.3999-37-69.3999-81.6,0-42.1,24.2-80.4,69.7-80.4,21.3,0,37.69995,7.2,48.3,26.1h.6001V933.2H2647.5Zm-42.3999-72.8c0-26.4-9.1001-49.9-38-49.9-25.1001,0-36.1001,22-36.1001,46.1,0,23.2,8.8,48.7,36.1001,48.7C2592.5,1057.1,2605.1001,1035.5,2605.1001,1012.3Z" transform="translate(0 0)" style="fill:#fff"/><path d="M2683.30005,933.2H2725.7v30.1h.6001c8.2-20.4,30.1001-34.5,51.80005-34.5a31.30282,31.30282,0,0,1,9.69995,1.6v41.4a84.88215,84.88215,0,0,0-16-1.6c-32.6001,0-43.8999,23.5-43.8999,52.1v73.1h-44.6001Z" transform="translate(0 0)" style="fill:#fff"/><path d="M2803.5,983.1c2.5-41.7,39.8999-54.3,76.3-54.3,32.30005,0,71.30005,7.2,71.30005,46.1v84.4c0,14.80005,1.6001,29.5,5.69995,36.1H2911.6001A64.26533,64.26533,0,0,1,2908.5,1079.7c-14.1001,14.80005-34.8,20.1-54.6001,20.1-30.8,0-55.19995-15.4-55.19995-48.69995,0-36.7,27.6001-45.5,55.19995-49.3,27.30005-4.1,52.7-3.1,52.7-21.3,0-19.1-13.2-22-28.8999-22-17,0-27.8999,6.9-29.5,24.5h-44.7Zm102.8999,32.9c-7.5,6.6-23.19995,6.9-37,9.4-13.8,2.80005-26.3999,7.5-26.3999,23.9,0,16.6,12.8999,20.69995,27.3,20.69995,34.80005,0,36.1001-27.6,36.1001-37.4V1016Z" transform="translate(0 0)" style="fill:#fff"/><path d="M2986.80005,933.2h42.1001v22h.60009c11.6001-16.6,28.6001-26.4,49.6001-26.4,20.3999,0,38.6001,7.5,47.3999,27,9.39991-14.1,26.39991-27,49-27,34.5,0,59.30005,16,59.30005,58.1v108.6H3190.2002v-92c0-21.7-1.89991-39.6-27.30005-39.6-25.1001,0-29.8,20.7-29.8,41.1v90.4H3088.5v-91c0-18.8,1.3-40.5-27-40.5-8.8,0-30.1001,5.7-30.1001,37.4V1095.5h-44.6001V933.2Z" transform="translate(0 0)" style="fill:#fff"/><path d="M3271.2,933.2h42.1001v22h.6001c11.60009-16.6,28.60009-26.4,49.60009-26.4,20.39991,0,38.6001,7.5,47.39991,27,9.3999-14.1,26.3999-27,49-27,34.5,0,59.30005,16,59.30005,58.1v108.6h-44.6001v-92c0-21.7-1.8999-39.6-27.30005-39.6-25.1001,0-29.8,20.7-29.8,41.1v90.4h-44.6001v-91c0-18.8,1.30005-40.5-27-40.5-8.8,0-30.1001,5.7-30.1001,37.4V1095.5h-44.60009V933.2Z" transform="translate(0 0)" style="fill:#fff"/><path d="M3591,1025.1c1.3,28.3,15.1001,41.1,39.8999,41.1,17.8999,0,32.30005-11,35.2-21h39.19995c-12.60009,38.30005-39.19995,54.6-76,54.6-51.19995,0-82.8999-35.19995-82.8999-85.4,0-48.7,33.6001-85.7,82.8999-85.7,55.2,0,81.89991,46.5,78.80005,96.4H3591Zm72.5-28.2c-4.1001-22.6-13.8-34.5-35.5-34.5-28.3,0-36.3999,22-37,34.5Z" transform="translate(0 0)" style="fill:#fff"/><path d="M3734.5,933.2h42.3999v30.1h.6001c8.2-20.4,30.1001-34.5,51.8-34.5a31.30282,31.30282,0,0,1,9.7,1.6v41.4a84.88215,84.88215,0,0,0-16-1.6c-32.6001,0-43.8999,23.5-43.8999,52.1v73.1H3734.5Z" transform="translate(0 0)" style="fill:#fff"/></svg>