<?xml version="1.0" encoding="UTF-8" standalone="no"?>
<svg
   version="1.0"
   width="1134.678"
   height="631.70392"
   viewBox="0 0 1134.678 631.70392"
   preserveAspectRatio="xMidYMid meet"
   id="svg373"
   sodipodi:docname="rng.svg"
   inkscape:version="1.1.2 (0a00cf5339, 2022-02-04, custom)"
   xmlns:inkscape="http://www.inkscape.org/namespaces/inkscape"
   xmlns:sodipodi="http://sodipodi.sourceforge.net/DTD/sodipodi-0.dtd"
   xmlns:xlink="http://www.w3.org/1999/xlink"
   xmlns="http://www.w3.org/2000/svg"
   xmlns:svg="http://www.w3.org/2000/svg">
  <sodipodi:namedview
     id="namedview375"
     pagecolor="#ffffff"
     bordercolor="#666666"
     borderopacity="1.0"
     inkscape:pageshadow="2"
     inkscape:pageopacity="0.0"
     inkscape:pagecheckerboard="0"
     showgrid="false"
     inkscape:zoom="0.74236111"
     inkscape:cx="561.04771"
     inkscape:cy="315.21048"
     inkscape:window-width="1920"
     inkscape:window-height="1017"
     inkscape:window-x="-8"
     inkscape:window-y="-8"
     inkscape:window-maximized="1"
     inkscape:current-layer="svg373" />
  <defs
     id="defs13">
    <linearGradient
       id="lg0"
       gradientUnits="userSpaceOnUse"
       x1="721"
       y1="66"
       x2="721"
       y2="507">
      <stop
         offset="0%"
         style="stop-color:rgb(0,0,0);"
         id="stop2" />
      <stop
         offset="2%"
         style="stop-color:rgb(255,242,110);"
         id="stop4" />
      <stop
         offset="33%"
         style="stop-color:rgb(254,200,78);"
         id="stop6" />
      <stop
         offset="51%"
         style="stop-color:rgb(254,162,55);"
         id="stop8" />
      <stop
         offset="100%"
         style="stop-color:rgb(255,65,51);"
         id="stop10" />
    </linearGradient>
    <linearGradient
       inkscape:collect="always"
       xlink:href="#lg0"
       id="linearGradient1192"
       gradientUnits="userSpaceOnUse"
       x1="721"
       y1="66"
       x2="721"
       y2="507" />
    <linearGradient
       inkscape:collect="always"
       xlink:href="#lg0"
       id="linearGradient1194"
       gradientUnits="userSpaceOnUse"
       x1="721"
       y1="66"
       x2="721"
       y2="507" />
    <linearGradient
       inkscape:collect="always"
       xlink:href="#lg0"
       id="linearGradient1196"
       gradientUnits="userSpaceOnUse"
       x1="721"
       y1="66"
       x2="721"
       y2="507" />
    <linearGradient
       inkscape:collect="always"
       xlink:href="#lg0"
       id="linearGradient1198"
       gradientUnits="userSpaceOnUse"
       x1="721"
       y1="66"
       x2="721"
       y2="507" />
    <linearGradient
       inkscape:collect="always"
       xlink:href="#lg0"
       id="linearGradient1200"
       gradientUnits="userSpaceOnUse"
       x1="721"
       y1="66"
       x2="721"
       y2="507" />
    <linearGradient
       inkscape:collect="always"
       xlink:href="#lg0"
       id="linearGradient1202"
       gradientUnits="userSpaceOnUse"
       x1="721"
       y1="66"
       x2="721"
       y2="507" />
  </defs>
  <g
     fill="#131520"
     id="g49"
     transform="translate(-159,-44.149214)">
    <path
       d="m 326.5,675.3 c -11.9,-2.5 -31.2,-8.2 -65.5,-19.3 -13.5,-4.4 -29,-9.3 -34.5,-11 l -10.1,-3 -6.1,-8.4 -6.2,-8.5 1.5,-6.3 c 0.8,-3.5 2.9,-10.6 4.5,-15.8 1.7,-5.2 4.3,-14.2 5.9,-20 1.6,-5.8 4.4,-16.3 6.3,-23.3 2.4,-8.5 3.4,-14 3,-16.2 -0.6,-3.8 2.1,-7.9 8.2,-12.5 1.8,-1.4 6.7,-5.2 10.8,-8.5 4.1,-3.3 11.3,-8.7 16.2,-12 4.8,-3.3 9.9,-6.9 11.3,-8.1 l 2.5,-2 -3.5,-9 c -1.9,-4.9 -4.5,-12.3 -5.8,-16.4 -1.2,-4.1 -2.3,-7.9 -2.5,-8.5 -0.2,-0.5 -0.4,3.6 -0.4,9.3 -0.1,9.5 -0.2,10.2 -2.1,10.2 -1.1,0 -2,-0.6 -2,-1.4 0,-0.7 -1.1,-5.1 -2.5,-9.7 -4.1,-13.7 -6.7,-29.5 -6.8,-40.9 0,-5.8 0.1,-11.2 0.2,-12 0.1,-1.5 -0.5,-10.6 -1.4,-19.5 -0.2,-2.7 -0.7,-39 -1,-80.5 -0.4,-41.5 -0.8,-76 -1,-76.6 -0.2,-0.6 -4.5,-1.6 -9.7,-2.3 -14.3,-1.9 -20,-3.2 -24.1,-5.3 -4.7,-2.3 -4,-3.8 1.9,-3.8 2.8,0 4.3,-0.4 3.9,-1 -0.3,-0.5 -1.7,-1 -3,-1 -1.6,0 -3,-1.1 -4.5,-3.4 -2.6,-4.3 -11.1,-12.1 -19.6,-18.2 -3.5,-2.5 -6.4,-4.7 -6.4,-4.9 0,-0.1 4.7,-2 10.5,-4.1 5.8,-2.1 10.5,-4.1 10.5,-4.4 0,-0.3 -4.8,-2 -10.8,-3.8 -13.2,-4.1 -35.1,-12.4 -35.2,-13.4 0,-0.5 1.5,-0.8 3.3,-0.8 2.5,0 3.9,-0.8 6.7,-4 1.9,-2.2 7.3,-6.7 12,-9.9 4.7,-3.2 8.6,-6.5 8.8,-7.3 0.6,-3 -2.9,-2.7 -9.3,0.7 -3.8,1.9 -6.7,2.9 -7.1,2.4 -0.3,-0.6 -0.4,-1.1 -0.3,-1.3 7,-4.3 20.9,-13.8 20.9,-14.1 0,-0.3 -0.9,-2.2 -2,-4.2 -3.6,-6.8 -1.9,-13.5 5.5,-20.8 7.7,-7.7 16.1,-8.4 26.7,-2.1 l 6.1,3.7 9.1,-4.7 c 5,-2.6 10,-5.5 11.1,-6.5 1.1,-0.9 3.4,-2.1 5,-2.4 1.7,-0.4 6.8,-2.8 11.5,-5.3 12.8,-6.9 43.2,-21.9 46,-22.7 1.4,-0.5 7,-2.9 12.5,-5.5 5.6,-2.6 13.2,-5.9 17,-7.3 3.9,-1.4 12.7,-4.8 19.6,-7.6 6.9,-2.7 13.7,-5.2 15,-5.5 1.3,-0.3 5.3,-1.4 8.9,-2.6 28.6,-9.2 44.3,-10.2 56.5,-3.6 2.2,1.2 7.5,4.9 11.9,8.1 4.3,3.3 12.6,9.3 18.5,13.3 5.8,4.1 12,8.6 13.6,10.1 1.7,1.5 4.6,3.9 6.5,5.2 5.6,3.8 22.7,19.3 32.8,29.7 5.1,5.2 9.4,9.3 9.5,9.1 0.5,-0.6 2.8,-14.7 3.4,-20.1 0.4,-2.9 1.1,-4.8 1.8,-4.8 1.8,0 2.5,2.2 3.2,10.7 0.3,4 0.8,7.1 1.1,6.9 0.2,-0.3 1.7,-4 3.2,-8.3 4.4,-12.6 10,-23.9 12.3,-25.2 2.7,-1.5 16.8,0 24.2,2.4 14.2,4.8 47.5,28.2 74,51.9 17.1,15.4 41.1,39.5 55.2,55.4 7.5,8.3 14.3,15.2 15.1,15.2 1.1,0 1.3,-0.8 0.8,-3.7 -0.3,-2.1 -1.1,-10.7 -1.6,-19.1 -0.6,-8.5 -1.5,-17.2 -2.1,-19.5 -0.8,-3.6 -3,-44.5 -3,-57.6 0,-2.5 2,-10.2 4.7,-18.3 3.7,-11.2 4.8,-13.7 5.9,-12.8 0.8,0.7 1.3,2.8 1.2,5.1 -0.1,4 1.6,7.1 3.2,5.4 0.4,-0.6 2.5,-6.4 4.5,-13 5.4,-17.2 6.4,-19.9 8.7,-22.3 1.5,-1.7 2.4,-2 3.8,-1.3 1.2,0.7 2.2,0.6 3,-0.2 1,-0.9 1.8,-0.5 3.8,1.8 5.3,6.2 14.5,15.5 15.4,15.5 0.4,0 1.5,-1.3 2.3,-2.9 1.7,-3.2 3.4,-4.1 7.7,-4.1 10.5,0 36,22.2 54,47 7.2,9.9 17.8,28.9 19.9,35.5 0.7,2.2 3.7,8.9 6.7,14.9 2.9,6 5.3,11.5 5.3,12.2 0,0.7 1.5,4.8 3.4,9.1 4.9,11.4 8.4,22.2 11.6,35.1 1.5,6.2 3.2,11.8 3.8,12.4 0.7,0.7 1.8,0.5 3.6,-1 1.4,-1.1 4,-2.2 5.8,-2.6 3.6,-0.7 3.5,-0.4 13,-22.5 2.7,-6.3 4.7,-12 4.4,-12.6 -0.2,-0.7 -1.7,-1.5 -3.3,-1.8 -2.2,-0.4 -3.4,-1.6 -4.8,-4.7 -1.7,-3.7 -1.7,-4.7 -0.6,-10.3 0.7,-3.4 1.6,-8.2 2,-10.7 1.2,-7.8 5.8,-14 11,-15.3 3.5,-0.9 8.8,1.9 10.3,5.4 2,4.5 3.5,4.3 6.5,-0.9 4.9,-8.5 18.4,-26.5 28.6,-38.1 13.9,-15.7 30.3,-29.1 35.8,-29.1 1.5,0 4.4,-0.6 6.7,-1.4 12.6,-4.5 32.4,-4.1 49.3,0.9 34.9,10.4 70.6,44.5 104.2,99.8 17.7,29.1 29.3,54.5 38.8,84.7 l 1.4,4.5 13,-0.5 c 23.7,-0.9 43.4,-0.5 44.7,0.8 0.8,0.8 1.4,4.2 1.4,8.4 0.2,10.8 -2.8,52.6 -4.6,63.8 -0.5,3 -1.4,8.9 -2.1,13 -1,6.6 -5.3,25.3 -8,35 -0.6,1.9 -1.4,5.2 -2,7.3 -0.5,2.1 -2.3,8.6 -3.9,14.4 -1.7,5.9 -3,10.7 -3,10.8 0,0.1 1.7,0.5 3.8,0.8 7.9,1.2 11.4,2.6 12.9,5.1 0.4,0.7 3.4,2.9 6.5,4.9 9.1,5.7 16.9,16.8 19.4,27.5 1.6,6.8 -0.3,16.5 -4.4,22.6 -2.1,3.1 -2.8,5.1 -2.5,7 0.4,2 -0.1,3.5 -2.2,5.6 -3,3.2 -5.6,4.2 -14.8,6 l -5.9,1.2 2.1,2.2 c 3.6,3.8 0.7,5.1 -11.3,5.1 -8.6,0 -11.3,-0.5 -18.5,-3 -9.3,-3.3 -11.8,-5.6 -12.8,-12 -0.3,-2.2 -2.1,-6 -3.8,-8.5 -1.8,-2.5 -3.5,-5.3 -3.9,-6.4 -0.5,-1.6 -2.1,-0.4 -10.4,7.6 -5.3,5.2 -11.2,10.3 -12.9,11.3 -3.5,2 -4.1,3.3 -2,3.9 5.3,1.7 14.1,4 25.2,6.7 7.1,1.7 14.5,3.9 16.5,4.9 6.2,3.2 7,4.6 10.1,19 0.5,2.5 1.4,5.2 1.8,6 0.5,0.9 1.2,3.1 1.5,5 0.4,1.9 1.1,4.4 1.6,5.5 1.3,3.2 3.7,10.4 6,18.5 1.2,4.1 2.5,8.4 3,9.5 0.4,1.1 2.7,8.1 5,15.5 2.3,7.4 4.6,14.6 5.1,16 1.7,5.3 3.1,13.6 2.7,16.9 -0.4,3.9 -0.4,4 -12.3,8.1 -4.9,1.8 -9.9,3.6 -11,4 -4.7,2 -20.2,7.3 -35,12.1 -8.8,2.8 -16.9,5.5 -18,5.9 -7.6,3.1 -21.5,7.2 -24,7.1 -1.6,0 -6.8,1.3 -11.5,2.9 -4.7,1.6 -11,3.3 -14,3.9 -3,0.5 -6.8,1.4 -8.4,2.1 -3.7,1.4 -6,-0.3 -3.1,-2.3 1,-0.8 1.5,-1.9 1.2,-2.4 -0.5,-0.7 -3.9,-0.1 -9.9,1.8 -5.1,1.6 -10,2.9 -11,2.9 -2.1,0 -2.3,-1.3 -0.5,-2.8 1.5,-1.2 12.1,-6.6 16.2,-8.2 l 3,-1.2 -2.3,-1.1 c -2.4,-1.1 -3.2,-1 -19.5,3.1 -4.2,1.1 -7.9,1.7 -8.1,1.3 -0.3,-0.4 1.1,-1.7 3,-3 1.9,-1.3 3.4,-2.7 3.4,-3.1 0,-0.4 -1.2,-2.8 -2.6,-5.3 l -2.5,-4.6 -9.2,9.2 c -5.1,5 -11.2,10.8 -13.7,12.7 l -4.5,3.5 -340,-0.3 c -187,-0.2 -342,-0.5 -344.5,-0.8 -4.1,-0.6 -15.8,-7.2 -16.8,-9.6 -0.2,-0.5 -0.7,-0.6 -1,-0.4 -0.4,0.2 -4.5,-0.5 -9.2,-1.5 -4.7,-1.1 -10.6,-2.2 -13.2,-2.6 -7.5,-0.9 -6.1,1.7 2.8,5.2 4.1,1.7 8.3,3.8 9.2,4.8 1.6,1.7 1.3,1.8 -6.3,1.2 -4.4,-0.4 -11.8,-1.6 -16.5,-2.6 -18.8,-4.2 -23.2,-5.1 -23.7,-4.5 -0.4,0.3 0,0.6 0.8,0.6 2.7,0 25.9,9.4 25.9,10.5 0,0.5 -1.5,0.5 -4.5,-0.2 z m 30,-16.3 c -1,-1.1 -2.1,-1.7 -2.4,-1.4 -0.3,0.3 0.3,1.2 1.3,2 2.8,2 3.2,1.7 1.1,-0.6 z m -40.7,-9.9 c 10.4,-3.3 16.9,-4.4 22.6,-3.7 3,0.3 5.7,0.2 6,-0.2 0.3,-0.5 0.8,-2.6 1.2,-4.8 l 0.6,-3.9 -9,0.3 -9,0.3 -4.1,-3.6 c -3.7,-3.4 -4.1,-4.2 -4.1,-8.5 0,-3.4 0.5,-5.2 1.9,-6.4 2.6,-2.4 9.3,-3.2 13.1,-1.6 1.7,0.7 3.3,1.1 3.5,0.8 0.2,-0.2 -6.9,-3.8 -15.9,-7.9 l -16.3,-7.6 0.5,4.6 c 0.3,3.7 0,5 -1.7,6.5 -3.2,2.9 -10.9,3.3 -15.9,0.7 -5.1,-2.6 -7.2,-5.5 -7.2,-10.3 0,-5.5 2.2,-7.1 9.2,-6.6 l 5.8,0.4 -3.8,-2.1 c -2.8,-1.6 -4.2,-1.9 -5.7,-1.2 -1.8,0.9 -22.1,14.2 -23.7,15.6 -0.4,0.3 1.7,0.4 4.6,0.3 5.9,-0.4 12.7,2.3 14.6,5.7 1.2,2.3 1.3,7.1 0.2,8.7 -3.4,5.2 -19.1,4.1 -22.1,-1.4 -1.4,-2.7 -1.4,-7.8 0,-10.5 1.2,-2.1 1.1,-2.1 -1.2,-0.6 -1.3,0.9 -5.7,3.5 -9.6,5.8 -4,2.4 -7.3,4.4 -7.3,4.5 0,0.1 1.5,0 3.4,-0.2 4.8,-0.6 14.2,2.4 16.1,5 1.8,2.7 2,7.9 0.3,9.6 -0.7,0.7 -2.8,1.2 -4.7,1.3 -2.8,0 -2.1,0.4 3.2,1.5 3.7,0.8 9.4,2.3 12.7,3.3 l 6,1.9 v -2.4 c 0,-1.3 0.9,-2.8 1.9,-3.4 2.4,-1.2 10.5,-1.3 14.8,-0.1 l 3.2,0.9 0.3,-5.1 0.3,-5.2 7.5,-0.3 c 6.6,-0.2 8.1,0 11,2 3.2,2.2 3.5,2.8 3.8,7.9 0.3,5 0,5.6 -2.1,6.8 -2.5,1.3 -11.7,1.1 -14.9,-0.3 -1.5,-0.7 -1.8,-0.3 -1.8,2.3 0,2.8 0.3,3.1 3,3.1 1.7,0 5.6,-0.8 8.8,-1.9 z m 662.5,-2.8 c -1.6,-1.1 -2.3,-2.6 -2.3,-4.9 0,-3.2 0.2,-3.4 3.3,-3.4 1.8,0 7.8,2.2 13.7,5.1 l 10.5,5.1 33.6,-0.4 33.6,-0.3 3.6,-3 c 2.4,-2 3.5,-3.8 3.5,-5.5 0,-1.6 -0.2,-1.9 -0.5,-0.7 -0.3,1.2 -1.5,1.7 -4.1,1.7 -4.8,0 -8.2,-3.2 -8.2,-7.8 0,-3.4 0,-3.4 3.9,-3 2.6,0.2 3.7,0 3.2,-0.7 -6.7,-8.6 -12.1,-16.8 -12.1,-18.3 0,-1.1 -0.7,-2.5 -1.5,-3.2 -0.8,-0.7 -1.5,-2.8 -1.5,-4.6 0,-3 0.3,-3.4 2.8,-3.4 2.7,0 2.7,0 2.4,-6 l -0.4,-6 h 3.2 c 2.3,0 4,0.9 6.4,3.5 1.9,1.9 3.8,3.5 4.5,3.5 1.8,0 1.5,-26.4 -0.5,-33.1 -3,-10.1 -2.5,-9.9 -17.9,-9.9 H 1044 v 3.8 c 0,5.8 -2.2,8.2 -7.6,8.2 -2.5,0 -4.4,0.5 -4.4,1.1 0,2.1 -7.3,0.3 -21.6,-5.3 -7.7,-3.1 -15.5,-6.3 -17.2,-7.2 -2.8,-1.5 -29.6,-1.6 -313.5,-1.6 -294.4,0 -310.5,0.1 -311.9,1.8 -2.7,3 -3.5,7.5 -3,15.6 0.4,6 0.2,8 -0.9,8.7 -1.1,0.7 -1.5,6.9 -1.7,33.1 l -0.3,32.4 2.8,2.7 2.9,2.7 25.4,0.3 c 14,0.1 152,0.3 306.5,0.4 255.6,0.2 280.8,0.1 278.8,-1.4 z m 158.8,-10.7 c 42.6,-17.1 39.1,-15.3 38.3,-19 -0.8,-3.7 -2.4,-7 -6.8,-14 -5,-7.7 -9.1,-16.3 -11.6,-24.3 -2,-6.1 -2.7,-7.2 -5,-7.7 -1.5,-0.3 -4.1,-1.7 -5.9,-3.1 -2.6,-2.3 -3.1,-3.4 -3.1,-7.1 0,-4.4 0,-4.4 3.6,-4.4 3.2,0 3.5,-0.2 2.9,-2.2 -3.1,-10.3 -3.9,-12.7 -5.1,-15.5 -0.8,-1.7 -1.4,-3.6 -1.4,-4.2 0,-0.6 -0.4,-1.9 -1,-2.9 -1.1,-1.9 -3.9,-9.6 -4.7,-12.9 l -0.5,-2.1 -4.4,2.6 c -4.2,2.6 -5.6,5.3 -3.4,6.7 0.6,0.3 1,5 1,10.6 v 9.9 h -3.4 c -3.6,0 -4.6,-1.5 -4.6,-7.2 0,-2.1 -0.5,-2.8 -1.9,-2.8 -1.5,0 -2.2,-1 -2.8,-3.8 l -0.8,-3.9 -13.3,8.6 c -11.3,7.3 -13.2,8.9 -12.6,10.6 0.3,1.1 0.9,3.9 1.1,6.3 0.4,3.7 0.8,4.2 3,4.2 1.6,0 3.8,1.3 5.9,3.6 3.1,3.3 3.4,4 3.4,10 0,3.9 -0.6,7.7 -1.5,9.4 -1.6,3 -6.1,6 -9,6 -1.5,0 -1.6,1.8 -1.3,16.3 l 0.3,16.3 6.4,13.7 c 4.5,9.7 6.9,13.7 8.1,13.7 0.9,0 14.5,-5.1 30.1,-11.4 z m 33.9,6 c 6.9,-2.4 17.9,-5.8 24.5,-7.7 9.4,-2.6 11.4,-3.5 9.5,-4 -5.3,-1.5 -13.1,-1 -15.6,1 -1.4,1.1 -9.1,4.7 -17.2,8.1 -8.1,3.5 -15.4,6.7 -16.2,7.2 -1.8,1.1 -2.3,1.3 15,-4.6 z m -929.8,-13.4 0.3,-4.8 -5.1,3 -5.1,3.1 3.6,1.6 c 5.4,2.6 5.9,2.4 6.3,-2.9 z M 346,621.7 c 0,-0.8 -1.2,-1.9 -2.6,-2.6 -3.4,-1.5 -4.1,-0.8 -0.9,0.9 1.4,0.7 2.5,1.7 2.5,2.2 0,0.4 0.2,0.8 0.5,0.8 0.3,0 0.5,-0.6 0.5,-1.3 z m 897.8,-4.4 c -0.5,-2.1 -2.9,-8.7 -5.3,-14.8 -5.9,-15.3 -14,-39.8 -17,-51.8 -0.7,-2.9 -2.1,-8.3 -3.2,-12.2 l -1.8,-6.9 -5.5,-1.1 c -3,-0.7 -6.6,-1.5 -7.8,-1.9 -2.1,-0.7 -2.3,-0.6 -1.3,1.2 0.6,1.1 1.4,4.5 1.7,7.6 l 0.7,5.6 h -3.6 c -2.9,0 -4.2,-0.7 -7.2,-4.2 -4.2,-4.8 -6.5,-9.5 -6.5,-13.1 0,-2.2 -0.7,-2.6 -6.2,-3.7 -3.5,-0.6 -6.7,-1.5 -7.3,-2 -0.5,-0.4 -2.6,-1.1 -4.5,-1.5 -1.9,-0.4 -6.9,-1.8 -11,-3.1 -4.1,-1.3 -7.6,-2.4 -7.7,-2.4 -0.3,0 4.4,12.7 5.7,15.5 0.5,1.1 4.7,13.3 9.4,27 9.2,27.4 18.5,51 21.7,55.4 1.9,2.6 2.7,2.9 11.2,3.5 8.5,0.6 16.9,1.8 35.2,5.1 11.6,2.1 11.5,2.1 10.3,-2.2 z M 231,609 l 2.5,-2 h -3.9 c -2.4,0 -4.3,-0.6 -5.1,-1.7 -1.1,-1.4 -1.3,-1.1 -1.9,2.3 -0.4,2.1 -1,4.7 -1.3,5.8 -0.5,1.7 -0.3,1.7 3.3,-0.3 2.2,-1.2 5,-3.1 6.4,-4.1 z m 30,-17.6 11.5,-5.8 -4.4,-0.6 c -2.5,-0.4 -5,-1.5 -5.7,-2.5 -1.9,-2.5 -1.8,-11.9 0.1,-15.5 1.9,-3.8 4.3,-5 9.6,-5 5.6,0 7.9,2.1 8,7.4 0.1,3.7 0.2,3.8 0.9,1.4 0.4,-1.4 1.5,-3.9 2.3,-5.5 0.8,-1.5 2.3,-8.2 3.2,-14.7 0.9,-6.6 2,-12.7 2.4,-13.5 0.5,-0.9 2.1,-8.3 3.6,-16.6 1.5,-8.2 2.9,-15.4 3.2,-15.9 1,-1.5 -1.1,-0.3 -10.5,6.4 l -9.1,6.5 4.2,0.3 c 2.4,0.2 4.7,1 5.5,1.9 2.7,3.6 0.7,12.2 -3.9,17.2 -2.8,3 -11,3 -14,0 -1.7,-1.7 -2,-3.1 -1.7,-7.4 l 0.3,-5.3 -4.5,3.2 c -2.5,1.8 -7.6,5.5 -11.4,8.2 -5.9,4.3 -6.5,4.9 -4.5,5.2 3.9,0.6 4.9,2.1 4.9,7.6 0,4 -0.6,6 -2.5,8.7 -3.6,4.9 -5.3,5.9 -10.1,5.9 h -4.3 l -2.2,9.8 c -1.2,5.3 -2.6,10.1 -3,10.7 -0.5,0.5 -0.9,1.5 -0.9,2.3 0,1 0.4,1 2.2,-0.2 2.9,-2.1 10.2,-2.1 12.2,0 2.4,2.3 2,9.2 -0.8,14.1 l -2.4,4.1 5.2,-3.2 c 2.8,-1.9 10.3,-6 16.6,-9.2 z m 83.7,10.9 c -5.2,-8.9 -6.1,-18 -2.2,-21.8 1.3,-1.4 2.9,-2.5 3.5,-2.5 0.6,0 1,-5 1,-14.1 v -14.1 l 5.2,-5.9 c 3,-3.5 4.8,-6.3 4.2,-6.8 -5.5,-5 -48.7,-33.1 -49.6,-32.2 -0.4,0.3 -1.2,4 -1.8,8.1 -2.8,20.7 -9.9,50.8 -12.2,51.8 -0.5,0.2 -0.8,3.7 -0.8,7.8 v 7.3 l 5.3,1.6 c 2.8,0.9 14.7,6 26.2,11.5 22.5,10.7 21.8,10.4 21.2,9.3 z m 160.2,-64.2 5.5,-0.6 -3.5,-1.7 c -1.9,-0.9 -7.3,-3.5 -12.2,-5.7 -16.6,-7.6 -35.7,-22.8 -61.1,-48.5 -14.5,-14.8 -27.5,-29.5 -60.3,-68.4 -2,-2.3 -3.7,-4.1 -3.9,-4 -0.1,0.2 -0.5,10.4 -0.9,22.8 -0.7,24.3 -3.6,56.1 -6,65 -0.8,3 -1.5,7.4 -1.5,9.8 0,2.3 -0.4,4.2 -0.9,4.2 -2.6,0 -3.4,-4.3 -4.8,-27.7 -0.3,-5.7 -1,-10.3 -1.4,-10.3 -0.5,0 -0.9,1.9 -0.9,4.1 0,2.3 -0.6,8.7 -1.4,14.3 -0.8,5.5 -1.7,12.2 -2,14.8 l -0.6,4.8 5.3,3.8 c 2.8,2.1 9.5,6.7 14.7,10.2 5.2,3.5 12,8.1 15,10.2 l 5.5,3.8 55,-0.2 c 30.3,0 57.4,-0.4 60.4,-0.7 z M 650,537.5 c 0,-0.9 1.6,-3.7 3.5,-6.2 1.9,-2.5 3.4,-4.8 3.2,-4.9 -0.2,-0.2 -3.6,1 -7.6,2.6 -14.1,5.8 -16.7,5.3 -26.4,-4.9 -5.2,-5.4 -6,-5.9 -7.4,-4.6 -0.8,0.8 -2.5,1.5 -3.9,1.5 -1.3,0 -2.4,0.5 -2.4,1 0,1.6 -1.7,1.2 -5.6,-1.5 -2,-1.4 -4.2,-2.5 -4.8,-2.5 -1.3,0 -3.8,5.9 -3.1,7.1 1.1,1.7 -2.7,8.7 -5.4,9.8 -6.9,2.9 -27.2,0.7 -40.5,-4.5 -2.1,-0.8 -4.1,-1.3 -4.3,-1 -0.3,0.2 -0.7,2.2 -1,4.4 l -0.5,4.1 3.8,0.3 c 2.2,0.2 26.1,0.5 53.2,0.7 45.4,0.3 49.2,0.2 49.2,-1.4 z m 348,0.5 c 0,-0.6 -1.1,-1 -2.5,-1 -5.1,0 -24.1,-8.7 -36.2,-16.6 l -8.6,-5.5 -5.1,2.2 c -8,3.4 -24.9,3.9 -34.7,0.9 -9.4,-2.8 -17.7,-7.2 -21.9,-11.5 l -3.3,-3.4 -3.2,6.7 c -6.4,13.2 -14.6,19.2 -28.7,21.2 -7.7,1.1 -9.4,1 -25,-1.8 -10,-1.7 -12.7,-3.2 -6,-3.2 4.1,0 30.2,-5.2 34.5,-6.9 4.4,-1.7 3.1,-2 -2,-0.4 -2.7,0.8 -9.4,1.7 -15,2 -8.2,0.5 -10.3,0.9 -10.3,2.1 0,1.6 -1.5,1.4 -9,-1.2 -2.5,-0.8 -8.1,-2.5 -12.5,-3.7 -9.9,-2.6 -23.4,-9.1 -34,-16.1 -18.9,-12.6 -51.9,-49.9 -64.7,-73.3 -2.1,-3.8 -4.6,-8 -5.6,-9.3 -1.8,-2.3 -1.8,-2.3 -3.1,6 -4.6,29.7 -8,45.5 -13.1,60.9 -7.3,21.6 -14.7,34.8 -25.6,45.2 -3.5,3.3 -6.1,6.4 -5.8,6.9 0.8,1.2 341.4,1 341.4,-0.2 z m 72,-1 c 0.3,-0.4 1.2,-0.9 2,-1.2 0.8,-0.4 -3.2,-0.4 -9,-0.1 -23.8,1.1 -60.1,-7.5 -87.6,-20.6 -10.7,-5.1 -12.3,-5.7 -13.9,-4.5 -1.8,1.4 -1.8,1.4 0.1,2.8 6.4,4.8 42.5,22.2 50.9,24.6 3.5,1 56.8,0.1 57.5,-1 z M 517.3,501.8 c -0.3,-2.9 -1.4,-7.2 -2.5,-9.6 -1,-2.4 -1.8,-6.1 -1.8,-8.3 0,-3.6 0.2,-3.9 2.8,-3.9 3.4,0 10,2 17.6,5.4 4.9,2.2 5.7,2.3 5.1,0.8 -2.4,-5.4 -3.6,-12.6 -3.3,-19.8 0.2,-6.9 -0.1,-8.4 -2,-11.1 -1.2,-1.8 -3.7,-6.2 -5.4,-10 -1.7,-3.7 -4.2,-8.5 -5.5,-10.6 -3.1,-5 -2.9,-11 0.4,-11.5 1.9,-0.3 0.3,-3.1 -14,-24.5 -9,-13.3 -19.6,-29.4 -23.6,-35.7 -25.4,-39.3 -28.1,-44.2 -28.1,-50.7 0,-5.5 0.8,-6.3 20.8,-21.4 26.4,-20 47.3,-41.5 62.2,-63.9 3.1,-4.7 6.7,-10 8.1,-11.9 2.2,-3 2.4,-4.1 2.2,-12.9 -0.1,-5.4 -0.8,-13.9 -1.6,-18.9 -1.4,-9.1 -1.5,-9.4 -6.3,-14 -2.7,-2.7 -7.8,-8.5 -11.3,-13 -10.8,-14 -30.2,-31.5 -63.8,-57.7 C 447.9,83.6 440.1,78 438.2,78 c -1,0 -9,1.8 -17.8,3.9 -60.2,14.9 -167.8,56.7 -182.9,71.1 -2.2,2.1 -10.9,8.4 -19.4,13.9 -11.8,7.7 -14.9,10.2 -13.6,10.8 3.6,1.3 31.1,0.8 44,-0.9 23.3,-3.1 30.7,-3.7 54.3,-4.2 L 326,172 v 4.4 4.3 l -6.2,1.3 c -3.5,0.7 -8.1,1.9 -10.2,2.7 -8.4,2.9 -26.2,5.9 -51.3,8.7 l -10.2,1.1 -3.5,4.2 c -4.9,5.6 -4.7,7.9 0.4,9.3 2.3,0.6 6.1,2.4 8.5,3.9 4,2.5 5.7,2.9 17.2,3.6 7,0.5 15.8,0.7 19.4,0.6 7.8,-0.3 9.2,0.8 8.7,7.1 l -0.3,4.3 -6.5,0.8 c -3.6,0.4 -6.9,1.2 -7.4,1.8 -0.6,0.5 -1.8,0.9 -2.7,0.9 -2.8,0 -3.1,1.5 -1.3,6.6 1.3,3.9 1.5,7 1,15.4 -2,32.8 -0.1,201.4 2.3,208.3 0.9,2.5 8.1,-14.7 8.1,-19.3 0,-3.4 1,-8.2 3.1,-16.2 0.9,-3.4 1.3,-3.8 4.3,-3.8 4.2,0 4.6,0.8 5.3,13.5 0.6,9.4 0.8,10.3 4,14.4 1.8,2.4 3.3,4.8 3.3,5.2 0,0.5 0.4,0.9 0.9,0.9 0.6,0 1.1,-1.5 1.3,-3.2 0.3,-3.1 0.5,-3.3 4.2,-3.3 4.9,0 5.1,0.7 6.7,19.7 1.2,13.2 1.4,14 4.8,19.3 l 3.6,5.6 0.6,-17.8 c 0.3,-9.8 1.1,-21.4 1.7,-25.8 0.7,-4.4 1.9,-13.4 2.7,-20 0.9,-6.6 2,-14.9 2.5,-18.5 1.4,-9.3 3,-28.5 3,-35.2 v -5.6 l 6.4,-2.2 c 3.6,-1.2 8.1,-3.4 10,-4.9 2.8,-2.2 5.1,-3 10.2,-3.6 3.6,-0.4 6.7,-0.5 6.8,-0.3 0.2,0.1 3,4.7 6.3,10 24.9,39.8 79.2,97.2 121.7,128.5 6.1,4.5 11.4,8.2 11.8,8.2 0.4,0.1 0.4,-2.3 0.1,-5.1 z m 598.7,0 c 1.9,-0.6 6.7,-3.1 10.7,-5.5 7.7,-4.7 9.3,-4.9 19,-3.1 5.6,1 7.1,0.9 11.7,-0.6 4.3,-1.5 6.6,-3.3 13,-10.3 7.7,-8.3 7.8,-8.5 5.7,-9.9 -1.4,-1 -2.1,-2.6 -2.1,-4.8 0,-2.7 1.8,-5.5 9.9,-15.3 11.5,-14.2 19.9,-26.6 24.8,-36.9 2.4,-5 4.1,-7.4 5.3,-7.4 1.1,0 2.3,-1.5 3.2,-3.9 1.3,-3.1 2.2,-4 4.4,-4.3 3.2,-0.3 3.1,-0.1 9,-22.8 6.6,-25.9 10.4,-48.5 13.9,-83.3 l 0.5,-5.8 -6.2,0.5 c -3.5,0.3 -9.7,0.8 -13.8,1.1 -26.2,2 -33.8,2.6 -45,3.9 -6.9,0.8 -19.5,2.2 -28,3.1 -8.5,0.9 -22.5,2.5 -31,3.5 -8.5,1.1 -19.5,2.4 -24.5,2.9 -4.9,0.6 -15.7,1.9 -24,3 -8.2,1.1 -21.7,2.7 -30,3.7 -8.2,0.9 -15.4,2 -15.9,2.5 -0.5,0.4 4,3.1 9.8,5.9 5.9,2.8 12.4,6.1 14.4,7.4 3.1,2 5.6,2.5 14.2,3 5.8,0.4 12.3,1.1 14.5,1.8 2.2,0.6 6.5,1.4 9.5,1.7 l 5.5,0.6 v 4 4 l -5,0.3 c -15,0.7 -31.2,2.3 -32.6,3.1 -0.9,0.5 -3.4,1.3 -5.5,1.6 -4.6,0.9 -8.4,3 -8.4,4.9 0,0.7 -0.9,2.1 -2,3.1 -1.1,1 -3.1,3.7 -4.4,6 l -2.3,4.2 16.6,0.8 c 9.1,0.4 21.3,1 27.1,1.4 l 10.5,0.6 0.3,3.6 0.3,3.7 -6.3,0.7 c -3.5,0.3 -8.7,1 -11.7,1.6 -3,0.5 -7.6,0.9 -10.3,0.9 -4,0 -4.8,0.3 -4.8,1.9 0,1.5 1.3,2 7.3,3 9,1.4 32.4,3.1 43.8,3.1 10.8,0 11.3,0.5 10.4,9.7 -1.9,19 -2.9,22.8 -8.5,31.3 -6.5,9.9 -9.2,12.3 -20.4,18 -8.8,4.5 -8.9,4.5 -20.5,4.9 l -11.7,0.3 -11,-4.3 c -6,-2.3 -15.4,-6.5 -20.9,-9.3 l -10,-5.1 -6.2,-10 c -8.6,-13.7 -23.8,-42 -28,-51.7 l -3.3,-8.1 0.1,-21.6 c 0.1,-22.1 0.2,-22.3 5,-39.1 0.6,-1.9 1.5,-5.7 2,-8.5 2.1,-10.8 5.3,-22.2 7.5,-26.6 1.3,-2.6 8,-11.6 15,-20 20.7,-25.1 22.8,-26.9 30.6,-26.9 4.4,0 8.4,1.9 12.8,6.1 1.3,1.3 6.1,5.8 10.7,10 11.4,10.4 19.3,12.9 19.3,5.9 0,-2.8 0.2,-3 3.8,-3 2,0 8.2,1.6 13.7,3.6 5.5,1.9 12.9,4.2 16.5,5 3.6,0.8 8.1,2.1 10.1,2.9 l 3.6,1.4 2.6,-5.2 c 2.3,-4.5 2.5,-6 2,-11.4 l -0.6,-6.3 h 4 c 2.5,0 5,0.8 6.6,2 1.4,1.1 5.9,3.6 10.1,5.6 5.8,2.8 8.2,3.4 10.6,2.9 1.6,-0.4 3,-0.9 3,-1.1 0,-0.3 -1.8,-6 -3.9,-12.7 -2.1,-6.7 -4.2,-13.5 -4.5,-15 -0.7,-3 -14,-24 -23,-36.2 -27.9,-38.1 -56.9,-63.6 -81.3,-71.4 -13.5,-4.3 -20.6,-5.3 -29.7,-4.2 -4.7,0.5 -10.3,1.9 -12.4,3 -2.2,1.1 -8.7,7.1 -14.5,13.3 -34.5,37.1 -55.8,74.2 -68.7,119.8 -1.7,6.3 -3.8,13.5 -4.6,15.9 -0.8,2.5 -1.4,5.1 -1.4,5.8 0,1.8 -4.1,7.3 -5.5,7.3 -1.6,0 -6.5,25.7 -9.5,50.5 -0.5,4.4 -1.1,21.1 -1.2,37 l -0.3,29 3.4,8 c 1.8,4.4 5,10.1 7,12.7 2,2.6 5.2,6.9 7.1,9.5 1.9,2.6 6.4,8.3 9.9,12.6 5.3,6.3 7.1,7.9 10.5,8.7 14.1,3.5 17.4,4.7 22.5,8.1 7,4.6 11.4,10 15.2,18.5 2.4,5.2 3.8,7 7.7,9.4 18.9,12 67.1,31.8 85.4,35.1 15.2,2.7 34,3 41.8,0.7 z m -265.9,-3.7 c 11.6,-4 16.5,-6.7 17.7,-9.7 4.7,-12.3 8.3,-31.6 12.7,-68.4 3,-24.8 3.4,-31 4.1,-62 0.7,-36.1 -0.7,-71.7 -3.7,-94 -1.1,-8 -2.4,-17.6 -3,-21.5 C 875.3,222.7 865.6,188 857.5,169 854,160.7 832,127.1 821.9,114.5 c -7,-8.8 -25,-27.8 -25.6,-27.1 -0.3,0.2 0.4,2.4 1.5,4.8 4.4,9.7 10.2,26.8 13.2,38.8 1.1,4.7 2.7,11.1 3.5,14.2 0.8,3.2 1.5,6.9 1.5,8.3 0,2.2 -0.4,2.5 -3.5,2.5 -2,0 -3.5,-0.5 -3.5,-1.2 0,-0.6 -2.2,-5.7 -4.9,-11.2 -5.6,-11.5 -6.5,-13.5 -16.2,-36.4 -5,-12 -5.3,-12.4 -16,-23.5 -9.6,-9.9 -10.7,-10.8 -9.8,-7.7 3.5,11.4 9.9,37.6 10.8,44 0.5,4.1 1.3,12.3 1.6,18.3 l 0.6,10.7 h -3.4 c -2.9,0 -3.6,-0.4 -4.2,-2.7 -0.3,-1.5 -2.4,-6.3 -4.5,-10.8 -3.7,-7.7 -4.6,-10.3 -9.2,-28 -1.1,-4.4 -2.2,-8.2 -2.4,-8.4 -0.5,-0.5 0.1,10.2 2.1,35.4 0.8,9.9 1.7,23 2,29 0.3,6.1 1.3,16.4 2,23.1 0.8,6.6 1.9,16.4 2.5,21.7 0.5,5.3 2.6,17.5 4.5,27.1 1.9,9.6 3.5,19.3 3.5,21.5 0,4 -0.1,4.1 -3.2,4.1 -6.1,-0.1 -20.4,-12.1 -42.1,-35.5 -33.9,-36.6 -67,-66.8 -103.3,-94.2 C 602,118.2 580.3,104 577.7,104 c -0.4,0 -0.7,2.2 -0.7,4.9 0,2.6 -0.4,7.2 -1,10 -1.4,7.4 -4,41.8 -4,53 0,6.6 0.4,9.9 1.4,11 1.1,1.3 1.5,8.8 2,35.1 0.9,50.7 3.5,81.6 11.2,131.5 3.1,20.1 11.5,66.8 13,71.8 0.4,1.2 1.6,1.7 4.1,1.7 2.6,0 3.6,0.5 4,2 0.3,1.1 0.9,2 1.4,2 0.4,0 3.4,2.4 6.6,5.4 l 5.8,5.4 -0.8,-16.7 c -0.5,-9.1 -0.6,-18.5 -0.2,-20.8 0.6,-4.1 0.8,-4.3 4,-4.3 3.1,0 3.4,0.2 4.4,4.8 1.8,8.1 3.1,15.3 4.7,26.7 3.4,23.3 4.4,31.5 5.6,45.2 l 1.2,14.3 4.7,4.6 4.7,4.6 0.8,-32.9 c 0.5,-18 0.7,-38.3 0.6,-45 L 650.8,406 h 4.6 c 2.8,0 4.8,0.5 5.1,1.3 0.2,0.6 0.9,5.3 1.5,10.2 0.6,5 1.5,11.3 1.9,14 0.5,2.8 1.3,11.4 1.7,19.3 0.7,13.7 1.5,17.3 2.7,11.5 0.4,-1.6 1,-4.8 1.5,-7.3 5.3,-25.5 8.8,-51.8 13.2,-100 0.6,-5.8 1.3,-12.9 1.6,-15.7 l 0.7,-5.3 h 3.7 c 3.3,0 4.1,0.5 6.5,4.3 6.4,9.6 26.5,37.2 37.4,51.2 6.5,8.3 15.4,20.4 19.8,27 24.6,36.4 55.9,67 82.1,80.3 7.5,3.7 8.2,3.8 15.3,1.3 z m 91,-3.2 c 10.9,-2.6 16.2,-6.1 19.1,-12.6 2.7,-6.1 2.1,-12.7 -1.8,-19 -4.2,-6.7 -10.5,-10.4 -20.6,-11.8 -12.1,-1.8 -17.5,0 -22.6,7.6 -2.1,3.1 -2.2,4 -1.7,12.9 1.1,15.4 2.3,17.7 12.5,22.4 3,1.4 5.6,2.6 5.8,2.6 0.2,0 4.4,-1 9.3,-2.1 z M 599.5,484.1 c 1.3,-2.2 3,-4.3 3.7,-4.8 0.8,-0.4 2.2,-4.3 3.2,-8.5 1.8,-7.4 1.8,-7.9 0.1,-12.5 -3.5,-9.5 -14.7,-17.3 -24.7,-17.3 -3.4,0 -4.5,0.7 -9.1,5.6 -10.5,11.2 -14,18.7 -11.6,24.5 4.1,9.9 16,16.5 30.6,16.8 5.1,0.1 5.4,0 7.8,-3.8 z m 655.9,0.7 c 9,-2.5 10.7,-6.9 7.6,-19.5 -4.8,-19.3 -14.3,-23.1 -31.2,-12.4 -5.6,3.5 -5.8,3.7 -5.8,8.1 0,9 6.9,18.8 16,22.9 5.3,2.3 7.9,2.5 13.4,0.9 z M 901.8,444.9 c -0.5,-0.3 -1,-1 -1,-1.5 -0.1,-1.5 -2.6,-4.6 -3.1,-3.7 -0.2,0.4 -0.8,3.7 -1.1,7.3 l -0.8,6.5 3.5,-4 c 1.9,-2.2 3,-4.3 2.5,-4.6 z M 562,431.4 c 1.1,-1.2 1,-3.4 -0.8,-12.2 -1.1,-5.9 -3.2,-16.8 -4.7,-24.2 -2.4,-12.5 -6.1,-37 -8.9,-60.2 -0.7,-5.4 -1.5,-10 -1.8,-10.4 -0.3,-0.3 -0.9,6.7 -1.3,15.6 -0.4,8.9 -1.1,15.8 -1.6,15.3 -2.5,-2.6 -6.9,-33.4 -6.9,-49.1 v -9.4 l -3.7,3.1 c -2.1,1.7 -7.4,6.1 -11.8,9.7 -4.4,3.6 -12,9.3 -17,12.6 -4.9,3.3 -9.1,6.3 -9.3,6.7 -0.1,0.4 4.4,7.8 10,16.4 15.3,23.2 21.9,33.7 31.1,49.2 20.6,34.6 23.1,38.5 24.2,38.5 0.7,0 1.8,-0.7 2.5,-1.6 z m 505.9,-12.6 c 6.8,-3.3 6.8,-4.8 0.1,-4.8 -4.5,0 -21.5,-3.5 -29.7,-6.2 -3.4,-1.1 -6.5,-1.9 -6.8,-1.9 -0.3,0.1 -2.6,-1 -5.3,-2.3 -4.8,-2.5 -8.5,-5.9 -11.6,-10.9 -1,-1.6 -2,-2.6 -2.3,-2.4 -0.8,0.9 4.8,8.4 13.5,18.1 7.6,8.6 8.2,9.1 15.8,11.6 10.1,3.5 17.2,3.1 26.3,-1.2 z M 1005,345.9 c 2.5,-1.2 6.4,-3 8.7,-4 4.8,-2.1 5.3,-3.3 2.1,-5 -1.3,-0.7 -4.9,-3.2 -8.1,-5.7 -3.2,-2.4 -6,-4.3 -6.1,-4.1 -0.7,0.9 -2.6,19.1 -2.1,19.9 0.8,1.3 0.4,1.3 5.5,-1.1 z m 12,-50.7 c 14.1,-3.5 23.9,-5.4 61,-11.9 5.2,-0.9 10.5,-1.6 11.8,-1.7 3.7,-0.2 1.9,-1.9 -6.7,-6.3 -8.9,-4.7 -12.1,-5.3 -12.2,-2.5 0,1.4 -0.2,1.4 -0.9,-0.3 -0.5,-1.1 -0.9,-1.5 -0.9,-1 -0.1,1.5 -4.1,1.3 -4.1,-0.2 0,-0.6 -0.4,-1.5 -1,-1.8 -0.6,-0.3 -0.7,0.1 -0.4,0.9 0.8,2.2 -0.5,2 -6.2,-0.9 -2.7,-1.4 -5.4,-2.5 -6.1,-2.5 -0.6,0 -3.9,-1.8 -7.3,-4.1 -3.4,-2.2 -7.5,-4.5 -9.1,-5.1 -2.8,-1 -3.3,-0.8 -6.6,2.8 -6.6,7.1 -15.5,19.8 -18.9,26.9 -3.5,7.1 -4.6,12.6 -2.1,10.8 0.6,-0.5 5,-1.9 9.7,-3.1 z"
       id="path15" />
    <path
       d="m 1034.2,641.4 c -2.7,-2.2 -3.6,-2.4 -4.2,-1.3 -0.7,1.1 -2,1.1 -7.7,0.1 -3.7,-0.7 -10.2,-1.4 -14.3,-1.6 -7.3,-0.3 -10.5,-1.2 -37.5,-10.9 -3.6,-1.2 -4,-1.8 -4.3,-5 -0.3,-3.2 0,-3.7 2.2,-4.3 1.5,-0.3 4.2,-0.4 6.1,-0.2 2.4,0.3 3.5,0 3.5,-0.9 0,-0.9 1.5,-1.3 4.7,-1.3 3.7,0 4.4,-0.3 3.5,-1.2 -0.7,-0.7 -1.2,-2.7 -1.2,-4.5 0,-2.6 0.4,-3.3 2,-3.3 1.6,0 2,-0.7 2,-3.5 0,-3.2 0.2,-3.5 3,-3.5 1.6,0 4.2,0.5 5.7,1.2 5.3,2.3 46.8,30.3 49.2,33.2 0.7,0.8 1.1,3.2 0.9,5.3 l -0.3,3.8 -5,0.3 c -4.1,0.2 -5.6,-0.2 -8.3,-2.4 z"
       id="path17" />
    <path
       d="m 1053.3,642.3 c -0.7,-0.2 -1.3,-1.4 -1.3,-2.6 -0.1,-2.5 -2.7,-6 -5.2,-7 -1,-0.3 -1.8,-1.5 -1.8,-2.5 0,-1.7 -15,-14.8 -18.6,-16.2 -0.7,-0.3 -4.4,-3.2 -8.3,-6.5 -6.4,-5.4 -7.1,-6.3 -7.1,-9.7 0,-3.7 0.1,-3.8 3.4,-3.8 3.8,0 10.6,4.2 26.1,16.3 12.7,9.9 15.5,12.7 15.5,15.6 0.1,1.9 1.2,3.4 4,5.3 3.7,2.5 4,3.2 4,7.3 v 4.5 l -4.7,-0.1 c -2.7,0 -5.4,-0.3 -6,-0.6 z"
       id="path19" />
    <path
       d="m 519.9,631.4 c -0.8,-1 -1.9,-2.9 -2.6,-4.3 l -1.1,-2.6 -0.1,3.1 c -0.1,1.9 -0.7,3.4 -1.7,3.8 -2.3,0.9 -22.7,0.7 -24.2,-0.2 -1.8,-1.2 -1.3,-73.5 0.6,-75.4 0.8,-0.8 5.6,-1.4 14.2,-1.6 16.8,-0.6 24.8,1.6 31.5,8.3 2.5,2.4 4.7,5.4 5,6.7 0.6,2.3 0.8,2.3 12.6,2 8.3,-0.3 12.4,0 13.4,0.8 1.2,1 1.5,4 1.6,12.9 0.1,6.4 0.5,13 0.9,14.6 l 0.7,3 0.7,-2.5 c 0.3,-1.4 1,-8.3 1.4,-15.5 l 0.7,-13 11,0.1 c 25.9,0.2 37.6,0.2 46.8,-0.3 l 9.7,-0.5 3.9,3.9 c 6.3,6.3 7.6,12.2 7.5,33.8 -0.1,10.6 -0.6,19.1 -1.2,20.8 L 650,632 h -10.4 c -7.1,0 -10.7,-0.4 -11.4,-1.2 -0.6,-0.8 -1,-6.9 -0.9,-14.5 0.1,-12.3 -0.4,-15.6 -1.9,-14 -0.3,0.3 -0.8,6.1 -1.1,12.9 -0.7,18.5 0.6,16.8 -12.3,16.8 -6.2,0 -11.1,-0.4 -11.5,-1 -0.4,-0.7 -1.3,-0.6 -2.6,0.1 -1.7,0.9 -8.3,0.9 -22.4,0 -0.5,0 -4.5,0.2 -8.7,0.5 -9.7,0.8 -14.9,-1.4 -19.1,-7.8 l -2.7,-4.2 v 4.6 c 0,2.6 -0.4,5 -1,5.3 -1.3,0.8 -16.8,3.5 -20.1,3.5 -1.5,0 -3.3,-0.7 -4,-1.6 z M 543,610 c -0.5,-2.9 -1,-7.5 -1,-10.3 v -5 l -2.4,3.6 -2.5,3.6 3.1,7 c 1.8,3.9 3.3,6.9 3.5,6.7 0.2,-0.1 -0.1,-2.7 -0.7,-5.6 z"
       id="path21" />
    <path
       d="m 802.5,632.1 c -10.2,-1.6 -16.5,-6.6 -21.2,-16.6 -2.7,-5.7 -2.8,-6.7 -2.8,-21 0,-14.7 0.1,-15.1 3.1,-21.5 3.5,-7.2 8.9,-13.1 14.9,-16.3 3.2,-1.7 6.2,-2.2 15,-2.4 10.5,-0.4 11.2,-0.2 16,2.4 6.1,3.4 11.5,10.8 11.6,16.2 0.1,3.1 0.2,3.3 0.8,1.1 0.7,-2.5 0.9,-2.5 12,-2.8 7.5,-0.2 11.8,0.1 12.7,0.9 1,0.9 1.4,4.2 1.5,13.3 0.2,22.1 2.8,22.6 3.6,0.6 0.5,-12.8 0.8,-14 2.6,-14.6 2.9,-0.9 22.6,0.6 23.3,1.8 0.4,0.6 1,0.5 1.5,-0.3 0.6,-1.1 5.2,-1.5 20.6,-1.6 17.9,-0.3 20.1,-0.1 22.9,1.6 3.8,2.3 7,8.6 8.5,16.7 1.2,6.2 0.7,37.5 -0.6,40.7 -0.7,1.6 -2,1.7 -11.9,1.5 l -11.1,-0.3 -0.5,-14.7 c -0.8,-21.8 -2.4,-20.6 -3.8,2.7 l -0.7,12 -10.9,0.3 c -6.3,0.1 -11.3,-0.1 -11.9,-0.7 -0.6,-0.6 -1.7,-0.7 -2.7,-0.1 -0.9,0.5 -10.2,0.9 -20.6,0.9 -16.5,-0.1 -19.4,-0.3 -22.9,-2 -4.5,-2.1 -8.1,-6.8 -10,-13.1 l -1.2,-4.3 -2.2,5.1 c -2.6,5.9 -7.1,10.7 -12.1,12.7 -4.4,1.9 -16.9,2.8 -23.5,1.8 z m 11,-27.3 c 1.5,-2.2 1.4,-2.3 -1.2,-2.8 -2.7,-0.5 -2.8,-0.7 -2.8,-7 v -6.5 l 14.8,-0.3 14.7,-0.3 v -3.5 c 0,-2.7 -0.4,-3.5 -1.4,-3.1 -6.2,2.4 -15.6,4.7 -19.1,4.7 -3.3,0 -4.6,-0.5 -5.7,-2.2 -1.8,-2.7 -3.5,-1.8 -5.9,3.6 -2.4,5.3 -2.4,10.7 0.1,15.6 2.3,4.5 4.2,5 6.5,1.8 z"
       id="path23" />
    <path
       d="m 680.7,631.3 c -0.4,-0.3 -0.7,-13.6 -0.7,-29.5 0,-22.4 0.3,-29 1.3,-29.3 1.1,-0.5 15.5,-0.9 19.7,-0.7 0.8,0.1 5.8,-0.1 11.1,-0.4 9.3,-0.6 9.6,-0.5 12.9,2.2 4.6,4 6.8,9.6 8.1,21 1,9.7 0,33.8 -1.5,36.3 -1.1,1.6 -21,1.5 -22.4,-0.2 -0.7,-0.8 -1.1,-5.7 -1,-12.3 0.1,-6 -0.3,-12.5 -0.7,-14.4 l -0.9,-3.5 -0.7,4 c -0.4,2.2 -0.8,8.7 -0.8,14.6 -0.1,6.8 -0.5,10.9 -1.3,11.7 -1.3,1.3 -21.9,1.8 -23.1,0.5 z"
       id="path25" />
    <path
       d="m 735.2,580.8 c -0.7,-0.7 -1.2,-2.9 -1.2,-4.9 0,-2.1 -0.4,-4.1 -1,-4.4 -1.2,-0.7 -1.3,-13.4 -0.2,-15.3 0.6,-0.9 3.3,-1.2 9.8,-1 l 8.9,0.3 0.3,8.9 0.3,8.9 -4.3,4.4 c -3.4,3.5 -4.9,4.3 -7.8,4.3 -2,0 -4.1,-0.5 -4.8,-1.2 z"
       id="path27" />
    <path
       d="m 1145.2,624.3 c -3.7,-0.7 -9,-6.5 -9.7,-10.7 -0.7,-3.6 0.7,-13.2 2.4,-16.6 0.4,-0.8 2.3,-2.5 4.1,-3.7 6,-4.2 16.3,-2.5 20.9,3.3 2.1,2.6 2.3,3.7 1.8,11 -0.5,8.1 -2.4,13.7 -5.6,16.1 -1.5,1.2 -9.1,1.5 -13.9,0.6 z"
       id="path29" />
    <path
       d="m 1112.2,606.1 c -2.7,-0.5 -5.3,-1.8 -7,-3.4 -5.2,-5.2 -3.8,-23 2.1,-27.2 1.5,-1 4.6,-1.5 10.1,-1.5 h 7.9 l 4.3,4.4 4.4,4.3 v 7.4 c 0,10.6 -0.5,11.6 -6.5,14.4 -5.3,2.5 -7.7,2.8 -15.3,1.6 z"
       id="path31" />
    <path
       d="m 1198.8,591.7 c -4.5,-2.7 -7,-5.8 -11.4,-14.3 -2.9,-5.6 -3.4,-7.5 -3.4,-13.5 0,-11.4 2.9,-14.8 12.5,-14.9 6.9,0 10.8,1.9 15,7.4 7.7,10.1 8.8,32.7 1.7,36.5 -3.5,1.9 -10.4,1.3 -14.4,-1.2 z"
       id="path33" />
    <path
       d="m 310.9,537.1 c -2.6,-2.6 -2.9,-3.7 -2.9,-8.9 0,-8.7 2.2,-11.2 10,-11.2 5.2,0 6.2,0.3 8.9,3.1 2.8,2.7 3.1,3.7 3.1,9 0,5 -0.4,6.4 -2.5,8.4 -2,2.1 -3.4,2.5 -8,2.5 -4.9,0 -6,-0.4 -8.6,-2.9 z"
       id="path35" />
    <path
       d="m 341.3,301.8 c 0.4,-9 1,-32.1 1.4,-51.5 l 0.6,-35.1 4.1,-0.6 c 2.3,-0.3 7,-0.8 10.6,-1 3.6,-0.3 13.8,-1.3 22.7,-2.2 20.3,-2 49.9,-1.6 55.3,0.8 4.1,1.8 13.9,11.8 16.5,16.8 3.2,6.2 0.2,21.3 -5.8,29.1 -4.8,6.3 -21.1,19.6 -32.3,26.3 -5.4,3.3 -22.1,12.2 -37,19.8 -23.7,12 -27.7,13.8 -31.9,13.8 h -4.8 z m 64.3,-36.3 c 10.1,-6.9 14.5,-11.4 13.4,-13.6 -0.6,-1 -1,-2.9 -1,-4.2 0,-4.8 -1.2,-5 -27.6,-4.5 -17.2,0.4 -24.9,0.9 -25.7,1.7 -0.8,0.8 -1.3,7.6 -1.6,22.2 l -0.3,20.9 17.9,-8.9 c 9.9,-4.9 21.1,-11.1 24.9,-13.6 z"
       id="path37" />
    <path
       d="m 210.3,494.8 c -1.9,-1.4 -3.9,-4.1 -4.9,-6.7 -1.5,-4 -1.5,-4.6 -0.1,-7.6 2.8,-5.9 11,-5.9 17.2,0 2.9,2.7 3.5,3.9 3.5,7.4 0,8.3 -8.5,12 -15.7,6.9 z"
       id="path39" />
    <path
       d="m 232.5,464.5 c -1.4,-1.3 -2.5,-3.6 -2.5,-5 0,-2.8 4,-7.5 6.3,-7.5 0.8,0 2.6,0.9 4.1,2.1 3.3,2.6 3.6,7.9 0.6,10.9 -2.7,2.7 -5.6,2.5 -8.5,-0.5 z"
       id="path41" />
    <path
       d="m 211.5,448 c -4.5,-1 -6.7,-2.4 -11.2,-7.3 -5.7,-6.2 -8.3,-11.6 -8.3,-17.4 0,-6.4 2.6,-11.3 7.5,-14 13,-7.3 29.6,5 29.5,21.9 0,3.9 -2.9,10.6 -5.6,13 -3.2,2.8 -8.6,4.6 -11.9,3.8 z"
       id="path43" />
    <path
       d="m 1285.2,437 c -4,-3.8 -3.7,-10 0.5,-10 3.2,0 7.1,3 7.8,6 1.2,5.6 -3.9,8.1 -8.3,4 z"
       id="path45" />
    <path
       d="m 1272.5,410 c -4.7,-1.9 -9.1,-9.4 -7.9,-13.4 1.1,-3.8 7.2,-12.1 9.7,-13.5 2.9,-1.5 8.7,-0.8 12.3,1.5 3.1,2.1 6.6,9.8 5.8,12.9 -0.8,3.2 -12.9,13.5 -15.7,13.4 -1.2,0 -3.1,-0.4 -4.2,-0.9 z"
       id="path47" />
  </g>
  <g
     fill="#696c9f"
     id="g145"
     transform="translate(-159,-44.149214)">
    <path
       d="m 1122.5,670 c -0.5,-0.8 5.5,-4 10.7,-5.5 3.2,-1 2.2,-0.3 -4.5,3.2 -3.1,1.7 -5.9,2.7 -6.2,2.3 z"
       id="path51" />
    <path
       d="m 286,651.4 c -10,-4.1 -22.3,-7.8 -31.1,-9.4 -3.5,-0.6 -7.7,-2 -9.4,-3 -1.6,-0.9 -4.3,-2.1 -6,-2.4 -4.2,-1 -16.5,-5.9 -16.5,-6.5 0.1,-0.3 7.6,-5.1 16.8,-10.6 9.2,-5.5 22.6,-13.9 29.7,-18.6 15.1,-10 16.7,-10.9 19.4,-10.9 1.1,0 11.6,4.7 23.3,10.3 11.7,5.7 24.8,11.9 29.1,13.7 l 7.7,3.4 -0.1,13 c -0.1,18.6 0.1,18.1 -9,18.1 -8.2,0.1 -12.6,0.8 -21.1,3.6 -3.1,1 -9.9,2.1 -15,2.3 -8.9,0.5 -9.7,0.4 -17.8,-3 z m 14.8,-4.1 c 0.2,-1.6 -0.5,-2.6 -2.6,-3.7 -4.3,-2.2 -10.6,-3 -13.1,-1.7 -5.9,3.2 1.4,8.2 11.4,7.8 3.3,-0.2 4.1,-0.6 4.3,-2.4 z m 17.5,-4.8 c 4.7,-3.5 -1.9,-10.5 -10,-10.5 -4.9,0 -6.2,1.6 -4.5,5.6 2.4,5.1 10.6,7.9 14.5,4.9 z m -58.5,-8.8 c 1.9,-2.2 -1.3,-5.5 -6.9,-7.2 -5.7,-1.6 -8.9,-0.8 -8.9,2.5 0,2.3 0.9,2.9 6.9,4.5 6.1,1.7 7.6,1.8 8.9,0.2 z m 83.1,-1.9 c 1,-2.9 -0.3,-7 -2.9,-8.6 -3.4,-2.1 -10.2,-4.1 -11.9,-3.5 -2.7,1 -5.1,3.5 -5.1,5.3 0,1 1.8,3.4 4,5.4 3.6,3.2 4.6,3.6 9.5,3.6 4.9,0 5.7,-0.3 6.4,-2.2 z m -65.6,-7.9 c 4.9,-2.6 3.9,-5.8 -2.7,-9.1 -5,-2.4 -8.9,-1.9 -10.6,1.2 -1.5,2.7 0.3,5.8 4.3,7.5 4,1.8 6.2,1.8 9,0.4 z M 302.4,610 c 1.8,-1.8 1.8,-2 0.3,-4.4 -1.9,-2.8 -11.3,-6.2 -14.6,-5.1 -4.7,1.5 -2.8,7 3.7,10.5 4.2,2.2 7.7,1.9 10.6,-1 z"
       id="path53" />
    <path
       d="m 1143,653.9 c -1.9,-0.4 -5.3,-1.1 -7.4,-1.4 l -3.9,-0.7 7.9,-3.2 c 27.6,-11.4 44.9,-19.2 47.4,-21.3 3.2,-2.7 1.6,-2.7 23.5,-0.2 14.4,1.6 15.4,2.5 6,4.9 -19.8,5.1 -44.9,13 -62.5,19.7 -5.8,2.2 -8.3,2.7 -11,2.2 z"
       id="path55" />
    <path
       d="m 389.9,650 c -25.4,-0.5 -25.5,-0.5 -28.5,-3 l -2.9,-2.5 0.5,-35.4 c 0.4,-27.1 0.8,-35.5 1.8,-35.9 1.4,-0.4 1.6,-6.8 0.2,-7.7 -1.5,-0.9 -1.2,-4.5 0.6,-10.1 3,-8.8 1.7,-8.4 27.6,-8.4 H 412 l 11,6.6 c 15.4,9.2 15.8,7.4 -7.1,33.7 -6.1,6.9 -12.8,11.7 -16.4,11.7 -1.6,0 -4.2,-1.3 -6.2,-3 -1.8,-1.6 -4.2,-3 -5.2,-3 -1.1,0 -3.9,-3.2 -7.5,-8.5 -3.2,-4.7 -6.4,-8.5 -7.2,-8.5 -0.8,0 -1.4,0.1 -1.4,0.3 0,0.8 5.5,13.7 7.6,17.9 1.3,2.6 2.4,6.1 2.4,7.8 0,2.7 -0.3,3 -2.9,3 -4.5,0 -5.9,-0.9 -9.3,-5.9 l -3.2,-4.6 -0.8,3.5 c -0.4,1.9 -0.5,9.3 -0.2,16.3 0.7,12.7 0.7,12.9 3.8,15.8 2.8,2.6 3.8,2.9 9.6,2.9 3.6,0 13,0.3 21,0.6 l 14.5,0.7 -3.2,-3.5 c -2.3,-2.4 -3.3,-4.4 -3.3,-6.6 0,-3 0.2,-3.2 3.4,-3.2 1.9,0 3.9,0.7 4.7,1.6 1.1,1.4 11.9,9 16.8,11.9 1.5,0.9 -4.3,-8 -5.9,-9 -0.6,-0.3 -1,-2.2 -1,-4.1 0,-3.1 0.2,-3.4 3,-3.4 3.2,0 13.9,6.7 20,12.6 l 3.5,3.3 89.4,0.1 c 49.1,0.1 89.6,-0.1 89.8,-0.4 0.3,-0.3 -0.6,-1 -2.1,-1.5 L 627,631 v -12.7 c 0,-7.1 -0.5,-13.5 -1,-14.3 -0.7,-1.1 -1,0.3 -1,4.8 0,5.7 -0.2,6.2 -2.1,6.2 -2.1,0 -2.1,-0.3 -1.5,-7.5 0.9,-9.4 2.3,-13.7 4.5,-13.3 3.2,0.6 4.4,5.7 4.6,19.4 0.1,7.2 0.5,13.6 0.9,14.2 0.4,0.8 3.6,1.2 8.2,1.2 7.1,0 7.5,-0.1 8.4,-2.6 0.6,-1.4 1,-4.4 1,-6.7 0,-5.8 1,-8.7 2.8,-8.7 1.3,0 1.4,1.3 0.8,9 -0.4,5 -0.9,9.6 -1.1,10.3 -0.3,0.7 1.8,2.2 5.3,3.7 l 5.7,2.5 56.8,0.3 56.7,0.2 4.3,-2.2 c 3.4,-1.9 5.8,-2.3 13,-2.3 4.8,0 8.2,-0.1 7.5,-0.3 -5,-1.3 -9.8,-3.6 -9.8,-4.7 0,-0.8 -1,-1.5 -2.1,-1.7 -1.2,-0.2 -2.7,-1.2 -3.3,-2.3 -0.6,-1.1 -1.4,-2.2 -1.8,-2.5 -1.9,-1.5 -5,-10.9 -6,-18.6 -1.9,-13.8 1.7,-32.4 6.3,-32.4 1.4,0 1.9,-0.7 1.9,-2.6 0,-2.4 4.5,-8.4 6.3,-8.4 0.5,0 1.5,-0.6 2.3,-1.4 2.7,-2.8 12.4,-4.8 20.4,-4.4 9.8,0.6 15,3.1 15,7 0,2.5 0.4,2.8 3.1,2.8 2.7,0 3.3,0.5 5.2,5 1.9,4.4 2.4,5 5.1,5 2.5,0.1 2.8,0.3 1.5,1 -0.9,0.5 -2,2.6 -2.3,4.5 -0.7,3.3 -3.6,5.1 -3.6,2.3 0,-1 -0.2,-1 -0.8,-0.1 -1,1.6 -12.8,5.3 -16.9,5.3 -6.2,0 -3.5,-2.5 5.7,-5.3 8.6,-2.6 9,-2.8 9,-5.6 0,-4.5 -5.8,-12.2 -11.5,-15.4 -4.5,-2.5 -5.7,-2.7 -13,-2.4 -12.8,0.6 -20.9,6.2 -26.9,18.7 -2.9,6.2 -3.1,7.1 -3.1,18.5 0,11 0.3,12.5 2.9,18.1 5.2,11.6 13.3,16.6 26.5,16.6 8.7,0 14,-1.7 18.4,-6 5.4,-5.1 9.2,-15.5 8.8,-24.2 -0.3,-8.2 0,-8 -11.2,-8 -9.2,0 -9.9,-0.1 -9.9,-2 0,-1.9 0.7,-2 10.6,-2 8,0 10.9,0.4 12,1.5 1,0.9 1.9,5 2.5,10.7 1.9,18.4 5.9,26.2 15,29 5.8,1.7 5.2,4.2 -0.8,3.5 -2.6,-0.3 -4.9,-1 -5.1,-1.6 -0.2,-0.6 -0.8,-1.1 -1.3,-1.1 -1.4,0 -4.9,-3.3 -4.9,-4.7 0,-0.7 -0.4,-1.3 -1,-1.3 -0.5,0 -1.5,-1.8 -2.1,-4 -1.4,-4.6 -2.4,-5.1 -3.3,-1.6 -0.3,1.4 -1.2,3.1 -1.9,3.8 -0.6,0.8 -1.7,2.2 -2.3,3.3 -0.6,1 -1.9,2.3 -3,2.9 -1,0.6 -2.1,1.4 -2.4,1.7 -1.7,2.1 -6.7,3.3 -15.5,3.7 l -10,0.5 5,1.3 c 2.8,0.8 5.7,1.1 6.5,0.8 1.9,-0.7 167,-0.5 172.5,0.2 2.6,0.3 -0.5,-1.2 -8.5,-4.2 -6.9,-2.5 -13.1,-5.3 -13.7,-6.2 -0.7,-0.9 -1.3,-3.1 -1.3,-5 v -3.4 l 6.8,0.3 c 8.6,0.3 15.8,-0.9 14.3,-2.4 -1.7,-1.7 -1.4,-8.7 0.4,-8.7 2.3,0 1.8,-1.6 -1,-2.8 -2,-0.9 -2.5,-1.9 -2.5,-4.7 0,-3.3 0.2,-3.5 3.4,-3.5 2.2,0 5.2,1.2 8.6,3.5 2.9,1.9 5.6,3.5 6.2,3.5 1.4,0 19.8,12.2 19.8,13.2 0,0.4 0.5,0.8 1,0.8 0.6,0 4.6,2.3 8.8,5.1 l 7.7,5.1 -4.5,-4.2 c -2.5,-2.3 -8.3,-7.7 -13,-11.9 -10.3,-9.3 -10,-8.7 -10,-13.3 0,-3.7 0.1,-3.8 3.9,-3.8 3.2,0 5.6,1.3 14.2,7.4 5.7,4.1 14.5,10.6 19.4,14.5 9.3,7.3 10.8,7.9 13.8,5.7 2.2,-1.7 2.2,-2.8 -0.3,-5.9 -4.1,-5.1 -9,-15 -9,-17.9 0,-2.9 0.2,-3 3.8,-2.6 l 3.9,0.3 -1.8,-4 c -1,-2.2 -1.9,-6.1 -1.9,-8.7 0,-4.7 0,-4.8 3.3,-4.8 2.7,0 3.8,0.8 7.1,5.3 2.1,2.8 4.3,6.2 4.9,7.4 0.6,1.3 1.4,2.3 1.9,2.3 0.4,0 0.8,-8 0.8,-17.7 0,-16.1 -0.2,-18 -2,-20.3 -2.6,-3.3 -2.6,-6 0,-6 2.5,0 4.4,3 6.4,9.9 2.3,7.9 2.3,41.1 0.1,41.1 -2.7,0 -9.2,-3.8 -11.4,-6.7 -1.6,-2 -1.9,-2.1 -1.2,-0.6 1.4,2.8 1.4,3.6 -0.1,2.7 -0.6,-0.4 0,0.8 1.4,2.7 1.4,1.9 2.5,4.1 2.5,4.9 0,0.8 2.3,5.7 5.1,10.9 2.9,5.1 5.2,9.8 5.2,10.4 0,0.5 -1.9,-1.2 -4.2,-3.9 -7.9,-9 -11.8,-12.9 -11.1,-11 0.5,1.4 0.3,1.7 -0.7,1.1 -0.7,-0.4 -0.2,0.6 1.1,2.4 2.6,3.5 3.1,3.8 2.3,1.4 -0.5,-1.5 -0.4,-1.5 0.4,-0.3 0.6,0.8 0.8,1.8 0.6,2.2 -0.3,0.5 0.8,2.5 2.4,4.6 7.8,10 10.2,14.8 10.1,19.8 0,4.4 -0.4,5.2 -3.6,7.9 l -3.6,3 -36.7,0.3 -36.7,0.4 -6.9,-3.5 c -8.6,-4.3 -15.2,-7.1 -13.9,-5.9 0.6,0.6 3.7,2.8 6.9,5.1 l 5.9,4.1 -288.4,-0.2 C 545.3,650.7 404,650.3 389.9,650 Z m 654.6,-10 c 0.4,-0.6 0.1,-1.8 -0.6,-2.6 -2.4,-2.9 -43.9,-30.9 -49.4,-33.3 l -3,-1.3 2.5,2.7 c 1.9,2 13.8,11.4 17.9,14.2 0.2,0.2 0.2,0.5 0,0.7 -0.2,0.2 -4.3,-1.6 -9.2,-4 -5.2,-2.6 -9.4,-4.1 -10.4,-3.7 -1,0.4 -1.4,0.2 -1,-0.4 0.4,-0.6 -0.3,-1.3 -1.5,-1.6 -7,-1.9 7.9,7 34.2,20.4 6.3,3.2 12.6,6.7 14,7.8 2.7,2.2 5.5,2.7 6.5,1.1 z m 16.5,-1.4 c 0,-1.4 -4.5,-5.4 -8,-7 -1.6,-0.8 1.5,2 4.6,4.2 1.8,1.2 1.8,1.3 -0.3,0.8 -2.5,-0.4 -3.3,1.8 -1,2.7 2.4,1 4.7,0.7 4.7,-0.7 z m -34,-1 c 0,-1 -7.3,-4.7 -16.8,-8.6 -8.8,-3.6 -10.5,-4 -11.9,-2.8 -1.5,1.1 -1.6,1.1 -1,-0.4 0.5,-1.3 -0.6,-2.1 -5.1,-3.8 -3.1,-1.2 -7,-2.4 -8.7,-2.6 l -3,-0.5 2.4,2.1 c 1.3,1.1 3.1,1.8 3.8,1.6 0.8,-0.3 1.2,-0.2 0.9,0.3 -0.8,1.2 2,2.2 4.1,1.4 1,-0.4 1.4,-0.2 1,0.4 -0.8,1.2 20.8,9.7 34.1,13.2 0.1,0.1 0.2,-0.1 0.2,-0.3 z m 47,-0.9 c 0,-0.2 -1.5,-1.4 -3.2,-2.7 l -3.3,-2.3 2.4,2.6 c 2.1,2.3 4.1,3.5 4.1,2.4 z m -69.5,-2.7 c 0.4,-0.6 -0.1,-0.7 -1.1,-0.3 -1.1,0.4 -1.5,0.2 -1.1,-0.4 0.9,-1.4 -4.8,-3.7 -6.4,-2.7 -0.7,0.4 -1,0.3 -0.5,-0.4 0.8,-1.3 -2.9,-2.6 -4.5,-1.6 -0.7,0.4 -0.9,0.3 -0.5,-0.4 1,-1.6 -17.8,-7.6 -20.1,-6.3 -2.1,1.1 -2.9,0.8 16.5,7.5 7,2.4 13.4,4.6 14.2,4.9 2.3,0.8 2.8,0.8 3.5,-0.3 z m 46.9,-9.1 c -3.9,-4.3 -31.9,-25.5 -34.4,-26.1 -0.8,-0.2 -1.9,-0.7 -2.3,-1.3 -0.6,-0.6 -0.7,-0.6 -0.5,0.1 0.7,2.4 14.3,13.4 16.1,13 0.9,-0.2 1.5,-0.1 1.2,0.4 -0.8,1.2 3.3,4.3 4.6,3.4 0.7,-0.4 1,-0.3 0.6,0.3 -0.9,1.4 2.9,4.7 4.4,3.7 0.7,-0.4 1,-0.3 0.5,0.4 -0.7,1.2 8.2,8.4 9.5,7.6 0.5,-0.3 0.9,0 0.9,0.7 0,0.7 0.3,0.9 0.7,0.6 0.3,-0.4 -0.2,-1.6 -1.3,-2.8 z"
       id="path57" />
    <path
       d="m 1044.5,621.5 c -1.6,-1.4 -2.5,-2.5 -1.9,-2.5 0.6,0 2.1,1.1 3.4,2.5 3,3.2 2.4,3.1 -1.5,0 z"
       id="path59" />
    <path
       d="m 1096,636.8 -6.4,-13.3 -0.4,-19.7 c -0.3,-17.8 -0.2,-19.8 1.3,-19.8 5.4,0 10.5,-6 10.5,-12.4 0,-4.4 -5.4,-10.6 -9.4,-10.6 -2.3,0 -2.6,-0.4 -2.6,-3.6 0,-3.9 -1.2,-6.7 -4.2,-10 l -1.9,-2.1 14.2,-9.3 c 23.3,-15.2 40.2,-25.1 41.3,-24 1,1 3,6.1 4.8,12 0.5,1.9 1.4,3.9 1.9,4.5 0.5,0.5 0.9,1.5 0.9,2.3 0,0.8 0.6,2.8 1.4,4.5 1.4,3.2 2.2,5.9 6.6,20.7 7,24 10.4,32.3 18.2,44.8 3.3,5.1 8.7,17.7 8.8,20.3 0,0.9 -18,8.5 -46.4,19.8 -17.3,6.9 -24.1,9.1 -27.6,9.1 h -4.7 z m 60.1,-16.1 c 2.6,-2 4.8,-7.2 5.5,-12.9 0.6,-4.8 0.4,-5.7 -2,-8.5 -3,-3.5 -8.5,-5.8 -11.6,-4.8 -3.6,1.1 -8,5.6 -8,8 0,1.3 -0.4,3.5 -1,5 -2.9,7.7 10.6,18.2 17.1,13.2 z m -29.6,-20.1 c 3.6,-1.9 4.3,-3.6 4.4,-10 0.1,-4.5 -0.3,-5.2 -4.3,-9.2 -3.9,-4 -4.8,-4.4 -9.2,-4.4 -6.2,0 -8.8,1.8 -10.9,7.5 -3.6,9.3 0.2,17.2 8.7,18.5 4.5,0.6 6.3,0.3 11.3,-2.4 z m 26.8,-35.7 c -2,-3.5 -6,-6.6 -7,-5.5 -1.1,1 1,3.8 4.7,6.4 4.3,2.9 4.5,2.8 2.3,-0.9 z m -27.7,-36.4 c -0.8,-0.6 -1.4,-2 -1.3,-3 0.2,-2.4 -3.1,-3.3 -3.9,-1.1 -0.3,0.9 -0.3,3.3 0.1,5.3 0.6,3.4 0.8,3.6 2,2 1.9,-2.6 2.5,-2.1 2.5,2.6 0,7.9 1.5,9.8 1.8,2.2 0.2,-5.2 -0.1,-7.2 -1.2,-8 z m 12.6,-4.6 c -0.4,-1.3 -1.2,-3.3 -1.8,-4.3 -1.2,-1.9 -1.2,-1.9 -4.4,0.1 l -3.3,2.1 4.9,2.4 c 2.7,1.4 5,2.4 5.1,2.4 0.1,-0.1 -0.1,-1.3 -0.5,-2.7 z"
       id="path61" />
    <path
       d="m 521.1,632.3 c -1.3,-0.3 -2.6,-1.3 -2.8,-2.4 -0.5,-1.9 -0.6,-1.9 -2.3,0.1 -2,2.3 -8,2.8 -8,0.6 0,-0.8 1.1,-1.7 2.5,-2 2.4,-0.6 2.5,-0.9 2.5,-8.7 0,-10 1.2,-10 5.6,0 4.4,10.3 4.3,10.2 13.7,8.6 4.2,-0.8 8.2,-1.7 8.7,-2 1.9,-1.2 1,-4.4 -4,-15.1 l -5,-10.8 2.4,-2.5 c 3.7,-3.9 5.6,-9.3 5.6,-16.3 0,-15.7 -12.1,-25 -32.4,-24.7 -11.9,0.2 -13.9,0.8 -15,4.7 -1.3,4.6 -3.6,4.2 -3.6,-0.7 0,-5.7 1.7,-6.8 11.5,-7.6 12.8,-1.1 27.5,1.1 27.5,4 0,1 1,1.5 3,1.5 2,0 3,0.5 3,1.5 0,0.8 0.9,1.5 2,1.5 1.1,0 2,0.7 2,1.5 0,0.8 0.5,1.5 1,1.5 0.6,0 1,0.7 1,1.5 0,0.8 0.4,1.5 0.9,1.5 0.5,0 1.2,1.1 1.5,2.5 0.5,2 1.3,2.5 3.8,2.5 2.7,0 3,0.2 1.6,1.3 -1.5,1.2 -2.5,4.6 -4.8,16 -0.6,3.1 -1.7,6.3 -2.4,7 -2.6,2.6 -2.7,5.3 -0.2,10.8 l 2.4,5.4 -0.5,-6.2 c -0.5,-5.4 -0.3,-6.3 1.1,-6.3 0.9,0 1.6,0.3 1.6,0.8 0.1,2.6 3.1,14.5 4.3,16.9 2.3,4.4 6.6,8.2 10.8,9.5 5,1.4 5.2,3.8 0.3,3.8 -1.9,0 -4.5,-0.5 -5.7,-1.2 -2.7,-1.4 -6.7,-5 -6.7,-6.1 0,-0.5 -0.7,-1.5 -1.5,-2.3 -1.3,-1.4 -1.5,-1 -1.5,3 0,5.1 0.7,4.7 -10.4,6.6 -6.1,1 -9.2,1.1 -13.5,0.3 z"
       id="path63" />
    <path
       d="m 600.2,631.8 c -1.6,-1.6 -1.6,-7.8 0.1,-7.8 0.7,0 1.7,1 2.2,2.3 0.9,2 1.8,2.2 9.2,2.5 8.1,0.3 8.3,0.2 8.9,-2.3 0.9,-3.6 3.4,-3.2 3.4,0.6 0,5.1 -1.7,5.9 -12.7,5.9 -6.4,0 -10.3,-0.4 -11.1,-1.2 z"
       id="path65" />
    <path
       d="m 683,630.8 c 0,-2.2 0.3,-2.3 8.7,-2.3 8.2,0 8.9,-0.2 9.8,-2.2 1.5,-3.5 3.5,-2.8 3.5,1.2 0,4.7 -2,5.5 -12.9,5.5 -8.8,0 -9.1,-0.1 -9.1,-2.2 z"
       id="path67" />
    <path
       d="m 710.3,632 c -2.2,-0.9 -2.3,-1.4 -2.3,-13 0,-9.8 0.3,-12 1.5,-12 2,0 2.9,5.8 2.1,13.1 -0.5,4.1 -0.3,6.5 0.5,7.5 1.4,1.8 15.4,2 16.5,0.3 0.4,-0.7 0.9,-4.4 1.1,-8.3 0.6,-10.7 1.2,-13.6 2.8,-13.6 1.2,0 1.5,1.5 1.4,6.8 -0.1,10.2 -1.3,18.2 -3,19.3 -1.8,1.1 -17.7,1.1 -20.6,-0.1 z"
       id="path69" />
    <path
       d="m 898.8,632.3 c -1,-0.2 -2.2,-1.9 -2.7,-3.6 l -0.9,-3.2 -0.1,3.3 c -0.1,3 -0.3,3.2 -3.6,3.2 -4.4,0 -4.7,-2.1 -0.5,-3.7 2.8,-1 3,-1.5 3,-6.2 0,-2.8 0.5,-5.1 1,-5.1 0.6,0 1,-0.9 1,-2 0,-1.1 -0.4,-2 -1,-2 -0.5,0 -1,-1.8 -1,-4 0,-2.2 0.5,-4 1,-4 0.6,0 1,-1.1 1,-2.5 0,-1.6 0.6,-2.5 1.5,-2.5 0.8,0 1.6,0.1 1.6,0.3 0.1,0.1 0.5,6.5 0.8,14.2 l 0.6,14 h 8.5 8.5 l 0.2,-6.5 c 0.4,-9.4 1.2,-13 2.8,-13 1.2,0 1.5,2 1.5,10.5 0,9.8 -0.1,10.5 -2,10.5 -1.1,0 -2,0.7 -2,1.5 0,1.2 -1.6,1.5 -8.7,1.4 -4.9,-0.1 -9.6,-0.3 -10.5,-0.6 z"
       id="path71" />
    <path
       d="m 930,631 c 0,-1.8 0.7,-2 7.4,-2 8,0 8.6,-0.4 8.6,-5.8 0,-4.2 1.1,-7.2 2.6,-7.2 1,0 1.4,1.3 1.4,4.4 0,6.3 -1.1,10.6 -2.6,10.6 -0.8,0 -1.4,0.5 -1.4,1 0,0.6 -3.3,1 -8,1 -7.3,0 -8,-0.2 -8,-2 z"
       id="path73" />
    <path
       d="m 490,630.5 c 0,-0.8 -0.4,-1.5 -1,-1.5 -0.6,0 -1,-4.3 -1,-11 0,-10.3 0.1,-11 2,-11 1.9,0 2,0.7 2,10.5 0,10.3 0,10.5 2.5,11.1 3.9,1 3.1,3.4 -1,3.4 -2.4,0 -3.5,-0.5 -3.5,-1.5 z"
       id="path75" />
    <path
       d="m 566,630.7 c 0,-0.8 1.9,-2 4.3,-2.6 2.3,-0.7 4.8,-1.8 5.5,-2.4 0.9,-0.7 1.8,-0.4 3.3,1.1 1.1,1.2 2.6,2.2 3.4,2.2 0.8,0 1.5,0.7 1.5,1.5 0,1 -1.1,1.5 -3.5,1.5 -1.9,0 -3.5,-0.5 -3.5,-1 0,-0.7 -0.6,-0.7 -1.9,0 -2.9,1.5 -9.1,1.3 -9.1,-0.3 z"
       id="path77" />
    <path
       d="m 591,630.5 c 0,-0.8 0.7,-1.5 1.5,-1.5 0.8,0 2.4,-0.9 3.5,-2 l 2,-2 v 3.5 c 0,3.3 -0.2,3.5 -3.5,3.5 -2.4,0 -3.5,-0.5 -3.5,-1.5 z"
       id="path79" />
    <path
       d="m 863,630.6 c 0,-0.8 1.4,-1.7 3.3,-2.1 1.7,-0.4 4.3,-1.4 5.5,-2.2 2.2,-1.3 2.6,-1.3 4.3,0.6 1.1,1.2 2.6,2.1 3.4,2.1 0.8,0 1.5,0.7 1.5,1.5 0,1 -1.1,1.5 -3.5,1.5 -2.4,0 -3.5,-0.5 -3.5,-1.5 0,-0.8 -0.7,-1.5 -1.5,-1.5 -0.8,0 -1.5,0.7 -1.5,1.5 0,1.1 -1.1,1.5 -4,1.5 -2.8,0 -4,-0.4 -4,-1.4 z"
       id="path81" />
    <path
       d="m 1233.5,623 c -23.3,-4.1 -29.5,-5 -38.2,-5.6 -8.5,-0.6 -9.3,-0.9 -11.2,-3.5 -3.2,-4.4 -12.5,-28 -21.7,-55.4 -4.7,-13.7 -8.9,-25.9 -9.4,-27 -2.4,-4.9 -8,-20.9 -8,-22.6 0,-1.8 0.2,-1.8 3.8,-0.5 4.7,1.8 15.4,5.1 21.2,6.6 5.3,1.3 9,3 9,4.2 0,1.1 -9.7,1 -10.4,-0.1 -0.3,-0.5 -2.3,-1.2 -4.3,-1.6 -2.1,-0.4 -5.7,-1.3 -8.1,-2.2 -2.4,-0.8 -4.6,-1.3 -4.8,-1 -0.4,0.4 1.2,4.9 4.1,11.2 0.7,1.7 4.1,11.3 7.4,21.5 6.3,18.9 10,29.4 13.1,36.5 1,2.2 3.4,8.3 5.5,13.5 6.3,16 5.7,15.4 17.7,16.8 11.6,1.3 39.1,5.7 42.6,6.7 2.5,0.8 2.9,-0.7 1.3,-4.7 -0.5,-1.3 -1.9,-4.8 -3.1,-7.8 -1.1,-3 -2.5,-6.4 -3.1,-7.5 -2.2,-4.7 -10.9,-33.1 -10.9,-35.7 0,-4.9 2.6,-3.2 4.5,3 3.2,10.7 6.7,20.7 11,31.7 2.4,6.1 5.1,13.7 6,17 1.6,5.6 1.6,6 -0.1,7.2 -2.1,1.5 -1.1,1.6 -13.9,-0.7 z"
       id="path83" />
    <path
       d="m 215.8,623.5 c -0.5,-0.5 1.4,-9 4.8,-22.2 0.9,-3.5 2,-6.3 2.6,-6.3 0.5,0 0.6,-0.5 0.3,-1 -0.7,-1.2 1,-9.9 2.8,-14.2 0.7,-1.6 1.8,-2.8 2.6,-2.8 1.1,0 1.2,1.1 0.8,5.2 -0.4,2.8 -1.2,5.5 -1.9,6 -0.9,0.5 -0.6,0.8 0.9,0.8 1.6,0 2.2,-0.7 2.5,-2.7 0.3,-2.5 0.8,-2.8 4.3,-3.1 5.9,-0.4 8.5,2.1 8.5,8.2 0,2.6 -0.7,6 -1.5,7.5 -1.4,2.7 -1.3,2.9 0.5,2.4 1.1,-0.3 2,-0.9 2,-1.3 0,-0.5 1,-1.2 2.3,-1.6 1.2,-0.4 2.4,-1 2.7,-1.3 0.8,-1.1 19.2,-10.8 21.5,-11.4 1.1,-0.2 -0.4,-0.5 -3.2,-0.6 -4.7,-0.1 -5.4,-0.4 -6.8,-3.1 -3.2,-6.1 -0.7,-16.8 4.6,-19.5 5.6,-2.9 11.8,-1.6 14.2,3.1 l 1.4,2.6 1,-2.8 c 0.6,-1.6 1.8,-7.4 2.7,-12.9 0.9,-5.5 2.7,-14.9 4.1,-21 2.1,-9.2 5.5,-25.4 5.5,-26.2 0,-0.8 -3.7,1.5 -6.3,3.9 -1.8,1.6 -4.2,3.1 -5.4,3.4 -1.3,0.4 -2.3,1 -2.3,1.5 0,0.5 -1,1.4 -2.2,1.9 -2,0.8 -1.8,0.9 1.5,0.9 2.6,0.1 3.7,0.5 3.7,1.6 0,0.8 0.7,1.5 1.5,1.5 2.2,0 2,9.7 -0.3,13 -3.9,5.7 -5.6,7 -9.3,7 -4.7,0 -6.9,-0.8 -6.9,-2.6 0,-0.8 -0.7,-1.4 -1.5,-1.4 -1.2,0 -1.5,-1.3 -1.5,-5.5 0,-3 -0.4,-5.5 -1,-5.5 -0.5,0 -1,0.5 -1,1 0,0.6 -0.7,1 -1.5,1 -0.8,0 -1.5,0.5 -1.5,1 0,0.6 -0.9,1 -2,1 -1.1,0 -2,0.7 -2,1.5 0,0.8 -0.9,1.5 -2,1.5 -1.1,0 -2,0.7 -2,1.5 0,0.8 -0.6,1.5 -1.4,1.5 -0.8,0 -1.6,0.7 -2,1.5 -0.3,0.8 -1.2,1.5 -2.1,1.5 -0.8,0 -1.5,0.5 -1.5,1 0,0.6 0.5,1 1,1 0.6,0 1,1.4 1,3.2 0,2.5 -0.3,2.9 -1.2,2 -4.7,-4.7 -14.2,6.4 -10.8,12.7 1.9,3.6 5.2,2.3 9.5,-3.8 3.4,-5 4.5,-5.2 4.5,-0.8 0,3.7 -1.5,5.7 -4.2,5.7 -1.1,0 -1.8,0.7 -1.8,2 0,1.7 -0.7,2 -4.4,2 h -4.5 l -1.8,6 c -1.3,4.4 -2.2,6 -3.5,6 -2.3,0 -2.3,0.1 2,-18 l 3.7,-15.5 16,-11.6 c 23.7,-17.1 48.9,-34.9 49.1,-34.6 0.3,0.3 -3.6,21 -6.7,35.7 -5.8,27.6 -6.4,31 -4.7,31 2.5,0 9.7,-28.9 12.7,-51.1 0.6,-4.2 1.5,-8.8 2,-10.3 l 1,-2.6 7.3,4.4 c 4,2.5 13.4,8.6 20.8,13.6 7.4,5 17.6,11.9 22.5,15.2 l 9,6 -7.3,7.6 -7.3,7.7 0.2,7 c 0.1,3.9 0.2,10.2 0.1,14 -0.2,6.6 -0.4,7.1 -3.2,8.7 -4.4,2.5 -4.7,5.7 -1.1,13.1 2,4.1 3.1,7.9 3.1,10.6 0,4.3 0,4.3 -2.2,2.9 -4.3,-2.9 -49.3,-23.5 -53.8,-24.7 l -4.5,-1.2 0.4,-8 c 0.4,-10.6 -1.6,-10.7 -5.1,-0.3 -0.8,2.2 -3.2,6.3 -5.3,9.3 -3.5,4.6 -5.5,6 -15,10.8 -10,5 -36.4,21.1 -44.1,26.9 -1.7,1.3 -3.4,2.1 -3.6,1.9 z m 13.7,-14.2 c 1.9,-1.2 1.8,-1.3 -0.8,-1.3 -1.5,0 -2.7,-0.4 -2.7,-1 0,-1.9 -1.9,-1 -2.5,1.3 -2,6.8 -2.1,6.3 1.1,4.2 1.6,-1 3.8,-2.4 4.9,-3.2 z m 6.3,-8 c 5.5,-7.9 6.2,-12.5 2.1,-13.8 -4.6,-1.5 -11.9,8.2 -10.5,13.9 0.9,3.7 5.7,3.7 8.4,-0.1 z m 37.3,-22.4 c 3.9,-4.2 4.8,-9.4 2.1,-12.1 -2.7,-2.8 -6.7,-1.7 -9.2,2.5 -2.5,4.1 -2.5,8.2 0,10.7 2.7,2.7 3.7,2.5 7.1,-1.1 z m 33.6,-33.1 c 2.4,-3.2 4.2,-6.4 3.9,-7.1 -0.4,-0.7 -1.3,-2.3 -2.1,-3.7 -0.8,-1.4 -1.5,-4.8 -1.5,-7.7 0,-4.1 0.5,-5.8 2.4,-8 2.1,-2.4 3.1,-2.8 8,-2.8 3.1,0 5.6,-0.3 5.6,-0.8 0,-0.4 -3.5,-3 -7.7,-5.8 -9.3,-6.1 -8.4,-7.2 -11.8,15.6 -2.8,18.8 -3.8,23.7 -6.5,30.8 -2.9,7.6 -2.5,8 1.6,1.3 1.9,-3.3 5.6,-8.6 8.1,-11.8 z m 17.8,-11.3 c 3.5,-3.4 3.3,-7.6 -0.6,-11.4 -3.9,-4 -7.9,-4.1 -10.8,-0.5 -3,3.8 -2.7,8 0.8,11.5 3.6,3.6 7.3,3.7 10.6,0.4 z m -45.6,-0.6 c 1.1,-1.2 2.7,-3.7 3.6,-5.5 3.5,-7.5 -3.8,-10.3 -10.1,-4 -3.9,3.9 -4.3,6.7 -1.4,9.6 2.6,2.6 5.4,2.5 7.9,-0.1 z"
       id="path85" />
    <path
       d="m 947,607 c 0,-7.3 0.2,-8 2,-8 1.8,0 2,0.7 2,8 0,7.3 -0.2,8 -2,8 -1.8,0 -2,-0.7 -2,-8 z"
       id="path87" />
    <path
       d="m 702.4,604.9 c 1.5,-13.2 6.3,-15 8.2,-3 0.6,3.7 0.4,4.1 -1.4,4.1 -1.1,0 -2.3,-0.8 -2.5,-1.7 -0.3,-1 -0.5,0.1 -0.6,2.5 -0.1,3.6 -0.4,4.2 -2.2,4.2 -2,0 -2.1,-0.3 -1.5,-6.1 z"
       id="path89" />
    <path
       d="m 807.2,610.3 c -1.5,-0.6 -5.2,-7.5 -5.2,-9.8 0,-0.8 0.9,-1.5 2,-1.5 1.5,0 2,0.7 2,2.8 0,2.1 0.7,3 3,4 5.1,2.3 3.4,6.6 -1.8,4.5 z"
       id="path91" />
    <path
       d="m 923.9,606.8 c -0.1,-2.4 -0.4,-3.3 -0.6,-2 -0.3,1.4 -1.2,2.2 -2.5,2.2 -1.9,0 -2,-0.4 -1.4,-4.5 1.7,-12.5 6.9,-10.9 8.3,2.6 0.5,5.6 0.5,5.9 -1.6,5.9 -1.8,0 -2.1,-0.6 -2.2,-4.2 z"
       id="path93" />
    <path
       d="m 568.1,606.8 c -0.5,-1.3 -1.2,-4.2 -1.6,-6.5 -0.6,-3.9 -0.5,-4.3 1.4,-4.3 1.6,0 2.1,0.7 2.2,2.8 0.2,2.3 0.2,2.4 0.6,0.5 0.3,-1.5 1.2,-2.3 2.5,-2.3 1.9,0 2,0.4 1.4,4.6 -0.9,7.1 -4.7,10 -6.5,5.2 z"
       id="path95" />
    <path
       d="m 864.9,606.3 c -0.6,-1.6 -1.3,-5.2 -1.6,-8 -0.5,-4.9 -0.4,-5.3 1.6,-5.3 1.8,0 2.1,0.6 2.1,4.3 0,3.1 0.3,3.8 1,2.7 0.5,-0.8 1,-4.1 1,-7.2 0,-5.3 0.2,-5.8 2.1,-5.8 2.1,0 2.2,0.3 1.5,7.8 -0.9,10.2 -2.2,14.2 -4.7,14.2 -1.2,0 -2.4,-1.1 -3,-2.7 z"
       id="path97" />
    <path
       d="m 598,594 c 0,-16.4 -1.8,-20.4 -8.5,-19 -2.4,0.4 -7.5,-1.2 -7.5,-2.5 0,-1.2 3.5,-1.4 20.3,-1.5 11.1,0 23.8,-0.3 28.2,-0.6 8.7,-0.6 13.7,1 15.9,5.1 0.6,1.1 1.4,2.2 1.8,2.5 1.6,1.2 3.8,9.4 4.4,16.5 0.6,6.3 0.4,7.5 -0.8,7.5 -1.7,0 -2.8,-2.8 -2.8,-7.1 0,-5.5 -3.2,-13.3 -7,-17.1 -3.4,-3.5 -4.2,-3.8 -9.1,-3.8 -3.2,0 -7.2,0.9 -9.8,2 -3.9,1.8 -4.5,1.9 -5.5,0.5 -0.9,-1.3 -2.7,-1.5 -8.1,-1.3 l -7,0.3 -0.3,15.3 c -0.2,14.4 -0.4,15.2 -2.2,15.2 -1.9,0 -2,-0.7 -2,-12 z"
       id="path99" />
    <path
       d="m 679.2,589.5 c 0.2,-13.4 0.6,-16.8 1.8,-17.5 1.9,-1.2 19,-1.3 19,-0.1 0,0.5 1.9,0.2 4.3,-0.6 4.5,-1.6 17.4,-1.3 18.6,0.4 0.3,0.5 1.4,1.3 2.4,1.6 1.1,0.4 2.1,1.6 2.4,2.7 0.3,1.1 0.9,2 1.4,2 1.5,0 4,10.2 4.6,18.8 0.5,7.1 0.4,8.2 -1,8.2 -1.7,0 -2,-1.4 -3.2,-11.8 -0.8,-7.5 -3.1,-12.7 -7.1,-16.2 -2.9,-2.5 -4.3,-3 -8.7,-3 -3,0 -7,0.9 -9.5,2 -4.2,1.9 -4.3,1.9 -6.2,0 -1.6,-1.6 -2.9,-1.8 -7.2,-1.4 -2.9,0.3 -5.9,0.7 -6.5,1 -1,0.2 -1.3,4.2 -1.3,15.4 0,14.5 -0.1,15 -2.1,15 -2,0 -2,-0.4 -1.7,-16.5 z"
       id="path101" />
    <path
       d="m 811,601 c 0,-1.1 -0.7,-2 -1.5,-2 -1.1,0 -1.5,-1.2 -1.5,-4.5 V 590 h 3.7 c 3.3,0 3.5,0.1 1.9,1.3 -1.2,0.9 -1.7,2.3 -1.4,4.2 0.2,2.4 0.8,3.1 3.1,3.3 1.9,0.2 2.7,0.9 2.7,2.3 0,1.5 -0.7,1.9 -3.5,1.9 -2.8,0 -3.5,-0.4 -3.5,-2 z"
       id="path103" />
    <path
       d="m 946.5,594.3 c -1.7,-9.8 -5.1,-16.5 -9.5,-18.8 -4.1,-2.1 -11.8,-1.9 -16.5,0.5 -3.7,1.9 -4.1,1.9 -5.2,0.4 -0.9,-1.2 -2.7,-1.7 -6,-1.6 -8.9,0.1 -9.1,0.1 -9.9,2.5 -1.4,4.5 -4.5,4.9 -6.1,0.7 -1,-2.7 -1.6,-3 -5.5,-3 -5.7,0 -8.8,-0.9 -8.8,-2.6 0,-1.8 13.1,-2 16.2,-0.3 1.5,0.8 2.2,0.8 2.8,-0.1 0.5,-0.8 4.2,-1.1 11.6,-1.1 6,0.1 13.9,-0.2 17.6,-0.5 7.9,-0.7 13.8,0.8 13.8,3.6 0,1.2 0.8,2 2.3,2.2 1.7,0.2 2.7,1.6 4.4,6.8 2.6,7.7 3,15 0.8,15 -0.9,0 -1.6,-1.4 -2,-3.7 z"
       id="path105" />
    <path
       d="m 572,584.5 c 0,-10.2 0.1,-10.5 2.3,-10.5 2.2,0 2.2,0.1 1.6,10.2 -0.4,5.7 -0.7,10.4 -0.8,10.6 -0.1,0.1 -0.8,0.2 -1.6,0.2 -1.2,0 -1.5,-1.8 -1.5,-10.5 z"
       id="path107" />
    <path
       d="m 1198.3,592.3 c -1.3,-0.8 -2.3,-2.1 -2.3,-2.8 0,-0.7 -0.9,-1.5 -2,-1.8 -1.1,-0.3 -2,-1.2 -2,-2.1 0,-0.9 -0.4,-1.6 -0.9,-1.6 -1.6,0 -7.1,-12.2 -7.1,-15.7 0,-4.9 2.2,-4.1 4.2,1.5 3,8.1 9.2,16.6 14.3,19.3 4.2,2.2 4.7,2.3 7.3,0.9 1.7,-1 3.3,-3.2 4.2,-5.8 1.7,-4.8 4,-5.6 4,-1.3 0,4.1 -1.9,9 -4,10.1 -2.9,1.6 -13.2,1.1 -15.7,-0.7 z"
       id="path109" />
    <path
       d="m 802,590.3 c 0.1,-3 3.7,-10.1 5.8,-11.2 2.8,-1.5 3.2,-1.4 3.2,1 0,2.2 -2.2,4.9 -3.9,4.9 -0.6,0 -1.1,1.6 -1.1,3.5 0,2.8 -0.4,3.5 -2,3.5 -1.2,0 -2,-0.7 -2,-1.7 z"
       id="path111" />
    <path
       d="m 513,587 c 0,-1.6 0.7,-2 3,-2 3.4,0 3.9,1.4 1.1,3 -2.9,1.5 -4.1,1.2 -4.1,-1 z"
       id="path113" />
    <path
       d="m 517,582.1 c 0,-0.5 -0.9,-1.3 -2,-1.6 -1.3,-0.4 -2,-1.5 -2,-3.1 0,-2.9 0.6,-3 4.8,-0.4 3.7,2.3 4.4,6 1.2,6 -1.1,0 -2,-0.4 -2,-0.9 z"
       id="path115" />
    <path
       d="m 862.8,579.3 c -0.2,-2.8 -0.9,-4.1 -2.5,-4.8 -3.5,-1.5 -2.8,-3.5 1.2,-3.5 4.1,0 5.5,2 5.5,7.9 0,3.4 -0.3,4.1 -1.9,4.1 -1.6,0 -2,-0.8 -2.3,-3.7 z"
       id="path117" />
    <path
       d="m 734.4,580.6 c -0.3,-0.9 -0.4,-3 -0.2,-4.6 0.3,-1.8 0,-3.1 -0.9,-3.4 -1.7,-0.7 -1.8,-7.6 0,-7.6 0.7,0 1.7,1 2.2,2.3 0.6,1.2 1.7,2.3 2.5,2.3 0.8,0.1 1.9,0.2 2.3,0.3 0.5,0 -0.2,1.5 -1.4,3.2 -2,2.8 -2,3.2 -0.5,4.7 1.5,1.5 1.9,1.3 6.1,-2.8 4.3,-4.2 4.5,-4.6 4.5,-10.3 0,-5 -0.3,-6 -2,-6.4 -3.4,-0.9 -2.4,-3.3 1.5,-3.3 4.3,0 5,2 4,12.4 -0.6,6.5 -1,7.7 -3.9,10.5 -4,3.9 -13.1,5.6 -14.2,2.7 z"
       id="path119" />
    <path
       d="m 565.7,576.9 c -0.3,-1.1 -1.5,-2.3 -2.6,-2.6 -1.2,-0.3 -2.1,-1.2 -2.1,-2 0,-1 1,-1.3 3.8,-1.1 3.5,0.3 3.7,0.5 4,4.1 0.2,2.7 -0.1,3.7 -1.1,3.7 -0.8,0 -1.7,-0.9 -2,-2.1 z"
       id="path121" />
    <path
       d="m 871,574.5 c 0,-3.3 0.2,-3.5 3.5,-3.5 4.1,0 4.9,2.4 1,3.4 -1.4,0.4 -2.5,1.3 -2.5,2.1 0,0.8 -0.4,1.5 -1,1.5 -0.5,0 -1,-1.6 -1,-3.5 z"
       id="path123" />
    <path
       d="m 1213.3,569.8 c -2.5,-8.4 -7.5,-15 -12.8,-16.9 -1.9,-0.7 -3.5,-1.9 -3.5,-2.6 0,-1.8 6.5,-1.7 8.4,0.2 0.8,0.8 1.9,1.5 2.5,1.5 1.8,0 5.1,5.2 5.1,8.1 0,1.8 0.5,2.9 1.4,2.9 1.8,0 2.4,1.8 3.2,8.6 0.5,4.3 0.4,5.4 -0.8,5.4 -0.9,0 -2.2,-2.6 -3.5,-7.2 z"
       id="path125" />
    <path
       d="m 1021.5,564.1 c -2.2,-1.1 -9.5,-4 -16.2,-6.6 -6.8,-2.5 -12.5,-5.1 -12.8,-5.6 -0.4,-0.5 -24.3,-0.9 -59.6,-0.9 -58.4,0 -58.9,0 -58.9,-2 0,-2 0.4,-2 60.8,-1.7 65.5,0.5 64.5,0.4 63.7,1.6 -0.2,0.5 5.7,3.2 13.3,6.1 7.5,2.9 14.5,5.6 15.5,6.1 3.1,1.7 1.8,0.2 -2.3,-2.5 -2.3,-1.5 -4.6,-2.4 -5.2,-2 -0.6,0.4 -0.8,0.3 -0.5,-0.4 0.7,-1 -8.3,-7.2 -10.5,-7.2 -0.6,0 -0.9,-0.3 -0.6,-0.6 0.4,-0.3 6.5,-0.6 13.6,-0.7 11.1,-0.2 13.3,0.1 14.9,1.6 2.4,2.1 4.7,2.3 3.9,0.2 -0.5,-1.3 1.3,-1.5 12.4,-1.5 h 13 v 4.5 c 0,6.3 -2.6,8.5 -10.1,8.5 -4.1,0 -6.3,-0.5 -8,-1.9 -2.3,-1.8 -2.3,-1.8 -3.4,0.2 -2.9,5.8 -15.4,8.4 -23,4.8 z m 18,-6.3 c 1.4,-2.1 1.4,-2.4 -0.7,-4 -1.3,-0.9 -3.8,-1.9 -5.6,-2.3 -1.8,-0.3 -3.9,-0.8 -4.6,-1.1 -1.9,-0.7 -1.9,5.6 0,7.7 2.5,2.8 8.8,2.6 10.9,-0.3 z"
       id="path127" />
    <path
       d="m 732,559.5 c 0,-3.3 0.2,-3.5 3.5,-3.5 1.9,0 3.5,0.5 3.5,1 0,0.6 -0.7,1 -1.5,1 -0.8,0 -1.7,1.1 -2.1,2.5 -1,3.9 -3.4,3.1 -3.4,-1 z"
       id="path129" />
    <path
       d="m 1184,559.1 c 0,-3.9 0.9,-6.1 2.5,-6.1 0.7,0 1.5,-0.9 1.8,-2 0.4,-1.5 1.4,-2 4.1,-2 4.5,0 4.7,2 0.5,3.9 -2.1,0.9 -3.7,2.7 -4.8,5.2 -1.9,4.6 -4.1,5.1 -4.1,1 z"
       id="path131" />
    <path
       d="m 1223,555.5 c 0,-2.2 0.5,-3.5 1.3,-3.5 0.8,0 1.8,1.6 2.4,3.5 1.1,3.3 1,3.5 -1.3,3.5 -2.1,0 -2.4,-0.5 -2.4,-3.5 z"
       id="path133" />
    <path
       d="m 441.8,553.7 c -1.6,-0.6 -2.8,-1.4 -2.8,-1.9 0,-0.4 -0.9,-0.8 -2,-0.8 -1.3,0 -2,-0.7 -2,-2 0,-1.8 0.7,-2 8,-2 h 8 v 4 c 0,3.9 -0.1,4 -3.2,3.9 -1.8,-0.1 -4.5,-0.6 -6,-1.2 z"
       id="path135" />
    <path
       d="m 462.3,552.3 c -1.9,-1 -3.3,-2.4 -3.3,-3.5 0,-1.6 1.1,-1.8 13.5,-1.8 12.8,0 13.5,0.1 13.5,2 0,1.1 -1.2,2.6 -3,3.5 -3.9,2 -16.4,1.9 -20.7,-0.2 z"
       id="path137" />
    <path
       d="m 838,549 c 0,-1.8 0.7,-2 5.5,-2 4.8,0 5.5,0.2 5.5,2 0,1.8 -0.7,2 -5.5,2 -4.8,0 -5.5,-0.2 -5.5,-2 z"
       id="path139" />
    <path
       d="m 1220,544.9 c 0,-2.3 -0.7,-4.7 -1.5,-5.5 -0.8,-0.9 -1.5,-2.8 -1.5,-4.4 0,-2.4 -0.5,-2.9 -3.5,-3.4 -2.6,-0.5 -3.5,-1.2 -3.5,-2.7 0,-1.9 0.4,-2 4.3,-1.4 2.3,0.4 4.5,0.9 4.8,1.1 0.4,0.2 1.2,2.8 1.9,5.6 0.7,2.9 1.8,7.2 2.6,9.6 1.8,5.4 1.8,5.2 -1.1,5.2 -2.3,0 -2.5,-0.4 -2.5,-4.1 z"
       id="path141" />
    <path
       d="m 1193.8,540 c -4.2,-4.5 -7.8,-10.9 -7.8,-13.9 0,-1.1 -0.9,-2.2 -2,-2.6 -2.3,-0.7 -2.7,-4.5 -0.5,-4.5 0.8,0 3.4,0.6 5.7,1.4 2.4,0.8 7.8,2.4 12.1,3.6 8.3,2.5 10.5,5 4.2,5 -3.2,0 -3.5,0.2 -2.6,1.9 0.6,1 1.4,4.4 1.7,7.5 l 0.7,5.6 h -3.8 c -3.1,0 -4.5,-0.7 -7.7,-4 z m 6.2,-3.4 c -1,-4.3 -4.6,-10.3 -7,-11.6 -4.5,-2.4 -2.4,4 3.5,10.8 2,2.3 3.8,4.2 4,4.2 0.1,0 -0.1,-1.5 -0.5,-3.4 z"
       id="path143" />
  </g>
  <g
     fill="#ff7033"
     id="g345"
     transform="translate(-159,-44.149214)">
    <path
       fill="url(#lg0)"
       d="m 505.9,504.2 c -20,-14.7 -38.3,-30.6 -58,-50.4 -30.3,-30.4 -53.4,-58.3 -67.6,-81.4 l -5.6,-9 -4.3,0.6 c -2.3,0.4 -5.6,1.8 -7.3,3.2 -1.7,1.5 -6,3.6 -9.6,4.8 l -6.5,2.2 v 5.6 c 0,6.7 -1.6,25.9 -3,35.2 -0.5,3.6 -1.6,12.1 -2.5,19 -0.9,6.9 -2.1,15.7 -2.7,19.5 -0.5,3.9 -1.2,15.1 -1.5,25 -0.4,17.2 -1.5,24.1 -3.4,22.9 -0.5,-0.3 -3.1,-3.9 -5.8,-8 l -4.8,-7.4 -1.2,-13.8 c -1.2,-14.6 -2,-19 -3.6,-19.4 -0.9,-0.3 -1.4,2.1 -3,13.6 l -0.7,4.9 -3.3,-7.6 c -1.8,-4.2 -4.6,-9.3 -6.2,-11.4 -2.8,-3.5 -3.1,-4.6 -3.6,-14.1 -0.7,-12.2 -2,-15.6 -3.6,-9.7 -2.1,8.3 -3.1,13.1 -3.1,16.7 0,2.1 -2,8.3 -4.9,15 -2.7,6.2 -5.5,13.2 -6.2,15.6 -2.6,9 -2.5,9.7 -5.3,-57.9 -1.3,-31 -1.3,-159.4 -0.1,-166.6 0.4,-2 1.2,-3.3 2,-3.3 1.3,0 1.5,3.5 1.5,22.8 v 22.8 l 7.3,1.3 c 13.8,2.4 38.4,5.1 46.3,5.1 4,0 4.2,-0.1 4.8,-3.7 0.3,-2.1 0.6,-5.3 0.6,-7 0,-2.7 0.4,-3.3 2.1,-3.3 2,0 2.1,0.2 1.3,14.5 -0.6,13.5 -0.5,14.5 1.1,14.5 2.3,0 53.1,-25.9 65.9,-33.6 5.4,-3.2 13.5,-8.9 18,-12.7 7.9,-6.5 8.1,-6.7 8.4,-4.1 0.4,2.6 -3,7.4 -5.2,7.4 -0.6,0 -1.7,0.9 -2.4,2 -0.7,1.1 -1.6,2 -2.2,2 -0.5,0 -2,1 -3.3,2.3 -3,2.7 -15.2,10 -31.5,18.8 l -12.4,6.6 11.4,0.7 c 6.2,0.4 20.8,0.9 32.3,1.1 11.6,0.2 22.9,0.7 25.1,1 2.7,0.5 4.4,0.3 4.8,-0.4 0.4,-0.6 1.7,-1.1 3,-1.1 1.2,0 3.5,-1.3 5.1,-3 1.6,-1.6 3.5,-3 4.2,-3 0.7,0 1.3,-0.4 1.3,-0.9 0,-0.5 2.1,-2.4 4.6,-4.2 9.2,-6.8 23.9,-18.6 25.8,-20.7 1.1,-1.3 3.1,-2.2 4.8,-2.2 2.3,0 2.8,-0.4 2.8,-2.3 0,-2.7 7.7,-10.7 10.3,-10.7 1,0 1.7,-0.8 1.7,-2 0,-1.3 0.7,-2 2,-2 1.4,0 2,-0.7 2,-2.3 0,-2.8 1.7,-4.7 4.2,-4.7 1.3,0 1.8,-0.8 1.8,-2.6 0,-1.7 0.6,-2.8 2,-3.1 1.1,-0.3 2,-1.4 2,-2.4 0,-1.1 0.5,-1.9 1,-1.9 0.6,0 1,-0.7 1,-1.5 0,-0.9 0.7,-1.8 1.5,-2.1 0.8,-0.4 1.5,-1.2 1.5,-2 0,-0.8 0.5,-1.4 1,-1.4 0.6,0 1,-0.7 1,-1.5 0,-0.8 0.5,-1.5 1,-1.5 0.6,0 1,-0.7 1,-1.5 0,-0.8 0.7,-1.5 1.5,-1.5 0.9,0 1.5,-1 1.5,-2.6 0,-1.6 0.7,-2.8 1.8,-3.1 2.6,-0.6 4.2,-7.1 4.2,-16.8 0,-6.8 0.3,-8.5 1.5,-8.5 2,0 2.9,5.6 2.3,14.6 -0.4,5.8 -1,8.2 -2.8,10.7 -1.3,1.7 -4.9,7 -8,11.7 -14.9,22.4 -35.8,43.9 -62.2,63.9 -19.5,14.7 -21.1,16.3 -20.3,19.9 1.3,6.2 35.5,59.6 79.8,124.5 4.8,7 4.3,8.5 -0.7,2.4 -2.5,-3.1 -4.2,-4.3 -5.4,-4 -1.3,0.3 -2.9,-1.1 -5.6,-5.2 -2.5,-3.8 -4.1,-5.4 -4.8,-4.7 -0.6,0.6 -0.2,2.3 1.5,4.8 1.3,2.2 3.7,6.7 5.2,10.2 1.5,3.5 4.3,8.3 6,10.8 3,4.2 3.2,4.9 2.3,8.7 -2.3,10.1 2,24.2 10.2,33.1 2.4,2.5 3.9,4.6 3.5,4.6 -0.5,0 -3.6,-1.5 -6.9,-3.4 C 534.7,489.5 516,482.2 516,484 c 0,0.4 0.7,2.5 1.7,4.6 2.5,5.9 5.3,26.5 3.6,26.4 -0.5,-0.1 -7.4,-4.9 -15.4,-10.8 z"
       id="path147"
       style="fill:url(#linearGradient1192)" />
    <path
       fill="url(#lg0)"
       d="m 1085.5,506 c -17.7,-1.7 -26.6,-4.2 -55.5,-15.7 -16.2,-6.4 -34.9,-15.4 -44.2,-21.3 -3.9,-2.4 -5.3,-4.2 -7.7,-9.4 -3.8,-8.5 -8.2,-13.9 -15.2,-18.5 -5.1,-3.4 -8.4,-4.6 -22.5,-8.1 -3.4,-0.8 -5.2,-2.4 -10.5,-8.7 -3.5,-4.3 -8,-10 -9.9,-12.6 -1.9,-2.6 -5.1,-6.9 -7.1,-9.5 -2,-2.6 -5.2,-8.5 -7.2,-13.2 l -3.5,-8.5 0.3,-31 c 0.2,-17 0.8,-34.8 1.4,-39.5 3.3,-26.4 8,-51 9.6,-51 1.4,0 5.5,-5.5 5.5,-7.3 0,-0.7 0.6,-3.3 1.4,-5.8 0.8,-2.4 2.9,-9.6 4.6,-15.9 3.2,-11.4 10.7,-32.7 12.9,-36.8 0.6,-1.2 1.6,-2.2 2.1,-2.2 1.5,0 1.2,6.7 -0.3,8.2 -0.8,0.7 -1.7,3 -2.1,5.1 -0.4,2 -1.1,3.7 -1.6,3.7 -0.6,0 -1,0.9 -1,2.1 0,1.1 -1.1,5.3 -2.5,9.2 -1.3,4 -3.5,11.5 -4.9,16.7 -1.4,5.2 -3.2,12.2 -4.1,15.5 -1.5,5.7 -3.1,8.4 -6.5,11.3 -1.5,1.2 -3.3,9.7 -4.6,21.5 l -0.7,5.8 19.4,-0.6 c 27.9,-0.9 47,-2.2 50,-3.4 2.2,-0.8 3.2,-2.5 5.8,-10.6 3.3,-10.1 8.5,-19.5 12.1,-21.7 1.1,-0.7 2,-1.8 2,-2.5 0,-0.7 0.9,-1.8 2,-2.5 1.1,-0.7 2,-1.8 2,-2.5 0,-0.6 1.1,-2 2.5,-3.1 1.4,-1.1 2.5,-2.4 2.5,-2.8 0,-0.5 2.3,-3.3 5,-6.3 2.8,-3 5,-5.8 5,-6.2 0,-1.8 10.4,-9.9 13.6,-10.5 4.4,-0.8 10.4,0.3 11.1,2.2 0.3,0.7 1,1.4 1.6,1.4 1.1,0 4.2,2.7 14.5,12.7 8.5,8.2 18.2,12.1 18.2,7.3 0,-1.1 0.5,-2 1,-2 0.6,0 1,-0.7 1,-1.5 0,-2.5 5.2,-1.8 17.3,2.4 6.2,2.1 13.8,4.4 17.1,5.1 3.2,0.6 7.2,1.8 9,2.5 l 3.2,1.4 1.9,-4.2 c 1.3,-3 1.8,-6.3 1.7,-11.9 l -0.1,-7.8 h 3 c 1.8,0 6,1.8 10.2,4.3 4,2.4 9.1,5.1 11.5,6 5,2 9.7,1.4 8.6,-1.2 -0.6,-1.5 -3.6,-11.5 -6.9,-23.1 -1.7,-6 -3.6,-10.1 -5.7,-12.4 -1,-1.1 -1.8,-2.4 -1.8,-2.8 0,-0.5 -0.9,-1.9 -2,-3.1 -1.2,-1.2 -2.3,-3.2 -2.6,-4.4 -0.4,-1.3 -1,-2.3 -1.5,-2.3 -0.5,0 -0.9,-0.7 -0.9,-1.5 0,-0.8 -0.4,-1.5 -1,-1.5 -0.5,0 -1,-0.7 -1,-1.5 0,-0.8 -0.4,-1.5 -1,-1.5 -0.5,0 -1,-0.7 -1,-1.5 0,-0.8 -0.4,-1.5 -1,-1.5 -0.5,0 -1,-0.9 -1,-2 0,-1.1 -0.7,-2 -1.5,-2 -0.8,0 -1.5,-0.9 -1.5,-2 0,-1.1 -0.7,-2 -1.5,-2 -0.8,0 -1.5,-0.6 -1.5,-1.4 0,-0.8 -0.7,-1.6 -1.5,-2 -0.8,-0.3 -1.5,-1.7 -1.5,-3.1 0,-1.8 -0.5,-2.5 -2,-2.5 -1.3,0 -2,-0.7 -2,-2 0,-1.1 -0.7,-2 -1.5,-2 -0.9,0 -1.5,-0.9 -1.5,-2.4 0,-1.8 -0.6,-2.5 -2.2,-2.8 -1.9,-0.2 -2.4,-1 -2.6,-4.1 -0.3,-3.3 -0.6,-3.7 -3,-3.7 -2,0 -4.3,-1.6 -8.6,-5.9 -4.8,-4.8 -5.7,-6.3 -5.4,-8.7 0.3,-2.9 0.5,-2.8 8.8,5.6 18.4,18.3 50.6,62.9 53,73.2 0.5,2.4 3.2,11 5.9,19.3 2.7,8.2 4.8,15.2 4.5,15.4 -0.2,0.2 -1.5,-0.1 -2.9,-0.7 -1.5,-0.7 -2.5,-0.8 -2.5,-0.2 0,3.2 -19.5,-3.3 -26.7,-9 -1.4,-1.1 -2.9,-2 -3.3,-2 -0.5,0 -0.6,2.7 -0.3,6 0.5,5.1 0.2,6.7 -2.3,11.7 -1.5,3.2 -2.9,5.9 -2.9,6 -0.1,0.2 -2.6,-0.4 -5.6,-1.2 -3,-0.9 -9.4,-2.6 -14.4,-3.9 -4.9,-1.3 -12.8,-3.8 -17.4,-5.5 -4.7,-1.7 -8.8,-3.1 -9.3,-3.1 -0.4,0 -0.8,1.2 -0.8,2.6 0,1.4 -0.4,3.4 -1,4.4 -1,1.9 -1.3,1.9 -12.3,-1.3 -3.3,-0.9 -10,-6.4 -23.2,-19 -6.7,-6.4 -10.8,-6.9 -16.6,-2 -5.2,4.4 -32.8,38.1 -35.3,43.2 -2.3,4.5 -5.9,17.6 -7.2,25.6 -0.6,4.1 -1,5.6 -4.5,16.5 -1.7,5.4 -2.1,10.1 -2.5,27 l -0.6,20.5 3.5,8.2 c 4.2,9.8 19.4,38.1 28,51.8 l 6.2,10 10,5.1 c 5.5,2.8 14.9,7 21,9.3 10.5,4.2 11.3,4.3 19.7,3.9 8,-0.4 9.5,-0.8 17.5,-4.9 11.1,-5.6 13.8,-8 20.3,-17.9 4.6,-6.9 5.5,-9.2 6.6,-16.1 1.6,-10.3 2,-16.2 1,-17.7 -0.5,-0.8 -3.7,-1.2 -9.4,-1.2 -11.2,0 -34.6,-1.7 -44.2,-3.1 l -7.5,-1.2 v -4.8 -4.9 h 5.1 c 2.8,0 7.5,-0.4 10.5,-0.9 3,-0.6 8.2,-1.3 11.6,-1.6 3.9,-0.4 6.1,-1.1 5.7,-1.7 -0.4,-0.6 -2.8,-0.8 -5.7,-0.5 -2.7,0.2 -9.7,-0.2 -15.6,-0.9 -5.8,-0.7 -16.1,-1.3 -22.8,-1.4 -8.2,0 -12.3,-0.4 -12.3,-1.1 0,-1.7 6.8,-13.4 9,-15.4 1.1,-1 2,-2.4 2,-3.1 0,-1.9 3.8,-4.1 8.5,-4.9 2.2,-0.4 4.6,-1.1 5.3,-1.7 0.6,-0.6 6.3,-1.2 12.5,-1.5 6.1,-0.2 12.7,-0.8 14.5,-1.4 1.7,-0.6 4.8,-0.9 6.7,-0.7 1.9,0.2 3.6,-0.1 3.7,-0.7 0.2,-0.5 -2.2,-1.3 -5.2,-1.6 -3,-0.3 -7.3,-1.1 -9.5,-1.7 -2.2,-0.7 -8.7,-1.5 -14.5,-1.8 -8.2,-0.5 -11.3,-1.1 -14,-2.8 -1.9,-1.1 -10.2,-5.5 -18.4,-9.6 -8.2,-4.1 -15.1,-8.1 -15.4,-8.8 -0.2,-0.8 0.8,-1.2 3,-1.2 1.8,0 10.3,-0.9 18.8,-2 8.5,-1.1 17.8,-2.3 20.5,-2.5 7.5,-0.8 28.8,-3.5 30.5,-4 0.8,-0.2 4.9,-0.7 9,-1 4.1,-0.4 14,-1.5 21.9,-2.6 7.9,-1 17.4,-2.1 21.1,-2.4 3.8,-0.3 11.7,-1.1 17.6,-1.9 6,-0.8 11.6,-1.4 12.4,-1.4 2.2,-0.2 11.3,-1.1 21.2,-2.2 4.8,-0.6 13.4,-1.3 19,-1.6 5.7,-0.3 10.6,-0.8 10.9,-1 0.3,-0.2 7,-0.6 14.9,-1 l 14.3,-0.6 -0.7,3.8 c -0.4,2.2 -1.1,7.7 -1.6,12.4 -3.7,35.5 -6.7,53.1 -13.4,79 -5.9,22.7 -5.8,22.5 -9,22.8 -2.7,0.3 -3.4,1.4 -6,8.6 -0.5,1.4 -0.9,1.6 -2,0.7 -1.1,-0.9 -2,0.3 -4.9,6.3 -4.9,10.3 -13.3,22.7 -24.9,37 l -9.9,12.1 2.1,1.7 c 1.2,1 3.6,1.8 5.2,1.8 2.9,0 2.6,0.5 -7.7,11.3 -9.8,10.2 -11.3,11.4 -17.3,13.5 -6.5,2.4 -6.8,2.4 -14.5,0.8 l -7.9,-1.6 -7.1,4.4 c -4,2.3 -8.8,4.8 -10.7,5.4 -4.8,1.5 -23.7,2.2 -33.5,1.2 z"
       id="path149"
       style="fill:url(#linearGradient1194)" />
    <path
       fill="url(#lg0)"
       d="m 645,497.5 -7.5,-7.5 -1.2,-13.3 c -2.1,-24.6 -8.8,-69.5 -11.3,-76.1 -2.4,-6.5 -1.9,17.3 1,47.3 0.6,5.7 0.8,10.6 0.5,10.9 -0.3,0.3 -0.5,-0.6 -0.5,-1.9 0,-6.2 -11.3,-22 -18.4,-25.8 -1.4,-0.8 -2.6,-2 -2.6,-2.7 0,-1.8 -2.1,-2.9 -2.9,-1.6 -1.1,1.8 -4.9,0.2 -5.4,-2.1 -1.5,-5.9 -9.6,-48.8 -10.2,-53.2 -0.3,-2.7 -1.4,-10.2 -2.5,-16.5 -2.8,-16.8 -5.9,-38.8 -6.5,-46.6 -0.3,-3.8 -1,-10.5 -1.5,-14.9 -1.6,-12.6 -1.4,-16.5 0.9,-16.5 1.6,0 1.9,1.1 2.5,8.3 0.4,4.5 1.1,10.9 1.7,14.2 l 1,6 10.7,-0.3 c 21,-0.5 76.7,-4.3 91.2,-6.2 4.1,-0.6 14.7,-1.4 23.5,-2 8.8,-0.5 29.3,-1.8 45.5,-2.9 36.4,-2.5 76.6,-4.1 105.2,-4.1 11.9,0 22.3,-0.3 23.2,-0.6 0.9,-0.3 1.6,-1.5 1.6,-2.5 0,-3.3 2.9,-2.1 3.5,1.4 0.8,5 1.5,27.4 1.5,47.7 0,20 -1.7,69.7 -2.4,70.8 -0.2,0.4 -0.9,5.9 -1.6,12.2 -0.6,6.3 -1.5,14 -2,17 -0.5,3 -1.4,9.6 -2,14.5 -0.6,5 -1.5,10.6 -2,12.5 -0.5,1.9 -2.1,8.7 -3.6,15 -1.4,6.3 -3.2,12.7 -4,14.1 -1.5,2.9 -12.5,8 -22.9,10.6 l -6.2,1.5 -7.4,-3.5 c -26.2,-12.2 -58.9,-43.8 -84.2,-81.2 -4.4,-6.6 -13.3,-18.7 -19.8,-27 -10.9,-14 -31,-41.6 -37.4,-51.2 -1.5,-2.4 -3.1,-4.3 -3.5,-4.3 -0.8,0 -1.4,4.5 -3,21 -4.4,47.9 -7.3,70.4 -13,99.5 -1.2,6 -5.7,22.2 -7.9,28.5 l -1.9,5.5 -0.1,-18.5 c 0,-18.3 -1.1,-34 -3.1,-44.9 -0.6,-3.1 -1.4,-8.5 -1.8,-12.1 -0.5,-4.5 -1.1,-6.6 -2.2,-6.8 -1.3,-0.2 -1.5,3 -1.8,23.5 -0.2,13.1 -0.6,34.7 -1,48.1 l -0.7,24.3 z"
       id="path151"
       style="fill:url(#linearGradient1196)" />
    <path
       d="m 922,496.8 c -8.9,-4.6 -10.1,-6.5 -11.3,-19 -1.6,-16.7 -1,-20.5 4.5,-25.4 5.3,-4.9 11,-5.9 23.2,-4.3 18,2.3 26.8,11.1 26.8,26.5 0.1,13.1 -5.9,19.7 -21.1,23.3 -12,2.8 -14.7,2.7 -22.1,-1.1 z"
       id="path153" />
    <path
       d="m 592,491.3 c -8,-0.4 -16.9,-2.3 -21.5,-4.6 -12.2,-5.9 -16.6,-17.5 -11.1,-29.2 2,-4.3 11.9,-16.6 15,-18.7 2,-1.3 14.1,-0.8 18.8,0.8 9.8,3.3 17.8,13.8 17.8,23.4 0,6.9 -3.1,17.9 -6,21 -1.4,1.5 -3.3,3.9 -4.3,5.4 -1,1.4 -2.1,2.5 -2.5,2.4 -0.4,-0.1 -3.2,-0.3 -6.2,-0.5 z"
       id="path155" />
    <path
       d="m 1238.5,486.6 c -11.1,-5.2 -16,-14.3 -15.6,-29.1 0.1,-3.7 0.5,-4.2 5.9,-7.6 7.1,-4.5 11.7,-6.1 18.5,-6.1 10.3,-0.1 15.3,4.8 18.7,18.6 2.5,10.2 2.3,17.4 -0.6,21.3 -4.1,5.4 -18.1,6.9 -26.9,2.9 z"
       id="path157" />
    <path
       d="m 627,471.8 c 0,-7.4 0.5,-7.3 1.4,0.5 0.4,3.6 0.2,5.7 -0.4,5.7 -0.6,0 -1,-2.7 -1,-6.2 z"
       id="path159" />
    <path
       d="m 881.1,272.3 c -2.4,-20.8 -2.5,-25.3 -0.8,-25.3 1.8,0 2.1,1.4 4.2,17.5 2,16.1 2,19.5 -0.3,19.5 -1.5,0 -2,-1.6 -3.1,-11.7 z"
       id="path161" />
    <path
       d="m 574.7,271.8 c -0.4,-1.3 -0.9,-7.1 -1.3,-13 -0.7,-10.4 -0.6,-10.8 1.3,-10.8 1.8,0 2.1,0.9 2.6,8.3 1.1,13.2 0.9,17.7 -0.7,17.7 -0.8,0 -1.6,-1 -1.9,-2.2 z"
       id="path163" />
    <path
       d="m 342,262 c 0,-6.3 0.2,-7 2,-7 1.7,0 2,0.7 2,4.8 0,6.1 -0.9,9.2 -2.6,9.2 -1.1,0 -1.4,-1.7 -1.4,-7 z"
       id="path165" />
    <path
       d="m 760.2,260.2 c -1,-1 -2.6,-2.1 -3.5,-2.5 -0.9,-0.3 -1.7,-1.1 -1.7,-1.7 0,-0.5 -0.7,-1 -1.5,-1 -0.9,0 -1.8,-0.7 -2.1,-1.5 -0.4,-0.8 -1.2,-1.5 -2,-1.5 -0.8,0 -1.4,-0.6 -1.4,-1.4 0,-0.8 -1,-1.6 -2.2,-1.8 -1.8,-0.2 -2.4,-1.1 -2.6,-3.5 -0.3,-2.8 -0.7,-3.3 -3.1,-3.3 -3.7,0 -5.1,-1.7 -5.1,-5.9 l 0.1,-3.6 4.7,5.2 c 5,5.7 24.5,20.7 25,19.4 0.2,-0.5 -1.3,-8.7 -3.2,-18.2 -1.9,-9.6 -3.8,-19.9 -4.1,-22.9 -0.3,-3 -0.8,-7.4 -1.1,-9.7 -0.5,-3.7 -0.3,-4.3 1.4,-4.3 1.6,0 2,1.3 3.1,9.7 0.7,5.3 2.8,17.1 4.7,26.3 1.9,9.1 3.4,18.2 3.4,20.3 0,3.6 -0.1,3.7 -3.5,3.7 -2.1,0 -4.3,-0.8 -5.3,-1.8 z"
       id="path167" />
    <path
       d="m 444.9,253.5 c 1.6,-2.5 3.7,-7.7 4.6,-11.4 1.6,-6.5 1.6,-7.1 0,-10.1 -1,-1.8 -3.8,-5.5 -6.2,-8.2 l -4.6,-4.8 h 3.5 c 3.8,0 5.8,1.5 5.8,4.2 0,1 0.7,1.8 1.5,1.8 0.8,0 1.5,0.7 1.5,1.5 0,0.8 0.4,1.5 0.9,1.5 1.4,0 2.6,14.3 1.2,14.8 -0.6,0.2 -1.1,1.9 -1.1,3.8 0,1.9 -0.9,5.3 -2,7.4 -1.7,3.3 -2.6,4 -5,4 h -3 z"
       id="path169" />
    <path
       d="m 277.7,240.9 c -2.3,-6.9 -2.2,-11.8 0.1,-12.5 0.9,-0.3 2.4,-0.9 3.2,-1.3 0.9,-0.5 3.5,-1.2 5.8,-1.6 3.8,-0.6 4.2,-0.5 4.2,1.3 0,1.7 -0.9,2.2 -5.6,2.8 l -5.6,0.7 0.7,3.6 c 1.7,9.5 1.8,12.1 0.3,12.1 -0.9,0 -2.1,-2 -3.1,-5.1 z"
       id="path171" />
    <path
       d="m 875.1,230.3 c -1.3,-7.1 -4,-19 -6.2,-26.5 -2.1,-7.5 -3.9,-14.8 -3.9,-16.2 0,-1.4 -0.4,-2.6 -1,-2.6 -0.5,0 -1,-1.1 -1,-2.5 0,-1.4 -0.4,-2.5 -1,-2.5 -0.5,0 -1.3,-1.8 -1.6,-4 -0.4,-2.2 -1,-4 -1.5,-4 -0.5,0 -0.9,-1.1 -0.9,-2.5 0,-1.4 -0.4,-2.5 -1,-2.5 -0.5,0 -1,-1.6 -1,-3.6 0,-2.3 0.4,-3.4 1.2,-3.2 3.4,1.2 16.6,42.1 21.7,67.5 2.6,12.8 2.7,15.3 0.3,15.3 -1.6,0 -2.2,-1.9 -4.1,-12.7 z"
       id="path173" />
    <path
       d="m 572.6,237.3 c -0.3,-1.6 -0.5,-5.6 -0.5,-9 0.1,-5.5 0.3,-6.3 2,-6.3 1.7,0 1.9,0.8 1.9,9 0,7.1 -0.3,9 -1.4,9 -0.8,0 -1.7,-1.2 -2,-2.7 z"
       id="path175" />
    <path
       d="m 724.2,227.7 c -1.4,-1.4 -2.2,-3.6 -2.2,-5.7 v -3.4 l 3.1,3 c 1.7,1.6 4,4.1 5.1,5.7 l 1.9,2.7 h -2.9 c -1.7,0 -3.7,-0.9 -5,-2.3 z"
       id="path177" />
    <path
       d="m 294.6,224.6 c 1.4,-1.1 1.7,-1.9 0.9,-3.2 -0.9,-1.3 -3,-1.7 -11.1,-1.9 -12.1,-0.3 -16.4,-1.2 -16.4,-3.1 0,-1.2 2.2,-1.4 14.8,-0.8 8.1,0.4 15.3,1.1 16,1.7 0.6,0.5 1.2,2.7 1.2,4.8 0,3.8 -0.1,3.9 -3.7,3.9 -3.4,0 -3.6,-0.1 -1.7,-1.4 z"
       id="path179" />
    <path
       d="m 250.7,215 c -2.6,-1.6 -6.9,-3.5 -9.5,-4.1 -5.7,-1.5 -5.8,-1.5 -4.2,-3.4 1,-1.3 0.9,-1.5 -1,-1.5 -2.8,0 -2.5,-0.6 3.9,-8.4 5.2,-6.3 9.1,-8.4 9.1,-5 0,2.2 -2.5,4.4 -4.9,4.4 -1.8,0 -2.1,0.6 -2.1,4.9 0,5 0.9,6.1 4.8,6.1 0.9,0 3.7,1.4 6.2,3 2.5,1.6 5.3,3 6.3,3 1,0 1.7,0.8 1.7,2 0,3 -4.7,2.6 -10.3,-1 z"
       id="path181" />
    <path
       d="m 347,216 c 0,-1.6 0.7,-2 3.5,-2 4,0 4.9,2.4 1.3,3.4 -3.8,1 -4.8,0.7 -4.8,-1.4 z"
       id="path183" />
    <path
       d="m 356,215.2 c 0,-1.6 1,-2 7.7,-2.6 11.3,-0.9 13.3,-0.8 13.3,0.8 0,1.7 -2.7,2.3 -13.2,3.1 -7.2,0.5 -7.8,0.4 -7.8,-1.3 z"
       id="path185" />
    <path
       d="m 713.2,215.8 c -0.7,-0.7 -1.2,-2 -1.2,-3 0,-1.1 -0.7,-1.8 -1.8,-1.8 -3,0 -6.2,-4.2 -6.2,-8 v -3.4 l 6.1,5.9 c 3.3,3.3 6.9,7.2 8,8.8 l 2,2.7 h -2.8 c -1.6,0 -3.4,-0.5 -4.1,-1.2 z"
       id="path187" />
    <path
       d="m 432,214.9 c -1.4,-0.6 -6.7,-1.3 -11.7,-1.6 -8.2,-0.5 -9.3,-0.8 -9.3,-2.4 0,-1.6 0.8,-1.9 4.5,-1.9 2.4,0 7.8,0.5 12,1.1 6.9,1.1 7.5,1.3 7.5,3.5 0,1.3 -0.1,2.4 -0.2,2.3 -0.2,0 -1.4,-0.5 -2.8,-1 z"
       id="path189" />
    <path
       d="m 379,213 c 0,-1.7 0.7,-2 4,-2 4.5,0 5.7,2.3 1.8,3.4 -4.2,1.1 -5.8,0.7 -5.8,-1.4 z"
       id="path191" />
    <path
       d="m 389,211.9 c 0,-1.7 0.8,-1.9 7,-1.9 5.6,0 7,0.3 7,1.5 0,0.8 -0.6,1.5 -1.2,1.5 -0.7,0.1 -3.9,0.2 -7,0.5 -5.2,0.3 -5.8,0.1 -5.8,-1.6 z"
       id="path193" />
    <path
       d="m 571.7,208.8 c -0.8,-3.1 0.2,-6.8 1.9,-6.8 1,0 1.4,1.3 1.4,4.5 0,4.9 -2.3,6.4 -3.3,2.3 z"
       id="path195" />
    <path
       d="m 571.6,196.8 c -1,-3.8 -0.7,-4.8 1.4,-4.8 1.6,0 2,0.7 2,3.5 0,4 -2.4,4.9 -3.4,1.3 z"
       id="path197" />
    <path
       d="m 252,192.6 c 0,-1.3 2.8,-2.6 5.8,-2.6 0.6,0 1.2,0.9 1.2,2 0,1.6 -0.7,2 -3.5,2 -2.3,0 -3.5,-0.5 -3.5,-1.4 z"
       id="path199" />
    <path
       d="m 261,191.6 c 0,-1.4 1.1,-1.8 9.3,-3.2 3.2,-0.5 3.7,-0.4 3.7,1.4 0,1.5 -0.9,2.1 -3.7,2.6 -6.3,1 -9.3,0.7 -9.3,-0.8 z"
       id="path201" />
    <path
       d="m 754.7,190.8 c -0.3,-1.3 -0.9,-6 -1.3,-10.5 -0.6,-7.8 -0.5,-8.3 1.3,-8.3 1.7,0 2.1,0.9 2.6,6.8 1.1,10.7 0.9,14.2 -0.7,14.2 -0.8,0 -1.6,-1 -1.9,-2.2 z"
       id="path203" />
    <path
       d="m 283,188.6 c 0,-1 2.4,-2 6.9,-3 8.8,-2 9.1,-2 9.1,0.3 0,1.4 -1.2,2.1 -5.7,3 -7.5,1.5 -10.3,1.4 -10.3,-0.3 z"
       id="path205" />
    <path
       d="m 548.6,185.4 c -0.9,-6.9 -0.8,-8.4 0.8,-8.4 1.4,0 1.8,1.1 3.2,9.3 0.5,3.2 0.4,3.7 -1.4,3.7 -1.5,0 -2.1,-0.9 -2.6,-4.6 z"
       id="path207" />
    <path
       d="m 685.1,187.6 c -1.5,-1.6 -2.1,-3.3 -1.9,-5.2 l 0.3,-2.8 5.5,5.2 5.5,5.1 -3.6,0.1 c -2.5,0 -4.2,-0.7 -5.8,-2.4 z"
       id="path209" />
    <path
       d="m 941.5,185.3 c 2.4,-5.8 17.7,-32.3 18.7,-32.3 0.4,0 0.8,1.6 0.8,3.5 0,2.4 -0.5,3.5 -1.5,3.5 -0.9,0 -1.5,0.9 -1.5,2.5 0,1.8 -0.5,2.5 -2,2.5 -1.6,0 -2,0.7 -2,3.5 0,2.8 -0.4,3.5 -2,3.5 -1.6,0 -2,0.7 -2,3 0,1.6 -1.2,5.4 -2.7,8.5 -2.1,4.3 -3.2,5.5 -5,5.5 -2.3,0 -2.3,-0.1 -0.8,-3.7 z"
       id="path211" />
    <path
       d="m 301,184.7 c 0,-0.8 1.6,-1.8 3.5,-2.4 3.3,-1.1 3.5,-1 3.5,1.3 0,2.1 -0.5,2.4 -3.5,2.4 -2.2,0 -3.5,-0.5 -3.5,-1.3 z"
       id="path213" />
    <path
       d="m 312,181.6 c 0,-0.9 2,-1.9 5.5,-2.7 6.6,-1.5 7.6,-3.9 1.5,-3.9 -3.3,0 -4,-0.3 -4,-2 0,-1.7 0.7,-2 4.4,-2 4.1,0 4.4,0.2 5,3.1 1.3,6.9 1,7.6 -4,8.3 -6.9,0.9 -8.4,0.8 -8.4,-0.8 z"
       id="path215" />
    <path
       d="m 201,180.6 -9.5,-1.1 6.2,-4.3 c 8.5,-5.8 9.3,-6 9.3,-2.8 0,1.6 -0.6,2.6 -1.5,2.6 -0.8,0 -1.5,0.4 -1.5,0.9 0,1.2 6.3,2.1 16.3,2.1 8,0 8.7,0.2 8.7,2 0,1.9 -0.6,2 -9.2,1.9 -5.1,-0.1 -13.6,-0.7 -18.8,-1.3 z"
       id="path217" />
    <path
       d="m 234,180.1 c 0,-1.9 3.4,-3.1 8.6,-3.1 4.1,0 2.7,2.7 -2,3.9 -6,1.5 -6.6,1.4 -6.6,-0.8 z"
       id="path219" />
    <path
       d="m 248,178 c 0,-1.6 0.7,-2 3.5,-2 4,0 4.9,2.4 1.3,3.4 -3.8,1 -4.8,0.7 -4.8,-1.4 z"
       id="path221" />
    <path
       d="m 258,177.2 c 0,-1.5 0.9,-2.1 3.8,-2.6 6.2,-1 9.2,-0.7 9.2,0.8 0,1.4 -1.1,1.8 -9.2,3.2 -3.3,0.5 -3.8,0.4 -3.8,-1.4 z"
       id="path223" />
    <path
       d="m 672.6,176.1 c -1,-1.1 -1.6,-3.1 -1.4,-4.7 l 0.3,-2.7 5,4.6 5,4.6 -3.6,0.1 c -2.3,0 -4.2,-0.7 -5.3,-1.9 z"
       id="path225" />
    <path
       d="m 274,175 c 0,-1.6 0.7,-2 3.5,-2 4,0 4.9,2.4 1.3,3.4 -3.8,1 -4.8,0.7 -4.8,-1.4 z"
       id="path227" />
    <path
       d="m 547,172.5 c 0,-3.9 1.4,-4.6 3,-1.6 1.6,3.1 1.2,5.1 -1,5.1 -1.6,0 -2,-0.7 -2,-3.5 z"
       id="path229" />
    <path
       d="m 208,169.3 c 0,-0.5 5,-4.1 11,-8.1 l 11,-7.2 v 3 c 0,2 -0.5,3 -1.5,3 -0.8,0 -1.5,0.5 -1.5,1 0,0.6 -0.7,1 -1.5,1 -0.8,0 -1.5,0.5 -1.5,1 0,0.6 -0.7,1 -1.5,1 -0.8,0 -1.5,0.5 -1.5,1 0,0.6 -0.7,1 -1.5,1 -0.8,0 -1.5,0.5 -1.5,1 0,0.6 -0.7,1 -1.5,1 -0.8,0 -1.5,0.5 -1.5,1 0,0.6 -1.6,1 -3.5,1 -1.9,0 -3.5,-0.3 -3.5,-0.7 z"
       id="path231" />
    <path
       d="m 752.6,167.8 c -1,-3.8 -0.7,-4.8 1.4,-4.8 1.6,0 2,0.7 2,3.5 0,4 -2.4,4.9 -3.4,1.3 z"
       id="path233" />
    <path
       d="m 662.7,167.3 c -0.4,-0.3 -0.7,-1.9 -0.7,-3.5 0,-2.5 -0.3,-2.8 -3.5,-2.8 -3.1,0 -3.5,-0.3 -3.5,-2.5 0,-2.1 -0.5,-2.5 -3,-2.5 -2.7,0 -3,-0.3 -3,-3.1 0,-2.8 0.2,-3 1.8,-1.8 4.2,3.3 19.2,16.2 19.2,16.5 0,0.7 -6.6,0.4 -7.3,-0.3 z"
       id="path235" />
    <path
       d="m 535,158.4 c 0,-3.9 0.9,-3.8 4,0.6 l 2.1,3 h -3 c -2.9,0 -3.1,-0.3 -3.1,-3.6 z"
       id="path237" />
    <path
       d="m 568.7,158.1 c -0.5,-2 0.9,-5.1 2.3,-5.1 0.6,0 1,1.6 1,3.5 0,3.8 -2.4,5 -3.3,1.6 z"
       id="path239" />
    <path
       d="m 751.6,156.3 c -0.3,-1.6 -0.5,-4.7 -0.5,-7 0,-3.6 0.4,-4.3 2,-4.3 1.7,0 1.9,0.7 1.9,7 0,5.4 -0.3,7 -1.4,7 -0.8,0 -1.7,-1.2 -2,-2.7 z"
       id="path241" />
    <path
       d="m 190,157.1 c 0,-1.3 3.8,-3.3 5.3,-2.8 0.7,0.2 -0.3,1.1 -2,2.1 -1.8,0.9 -3.3,1.2 -3.3,0.7 z"
       id="path243" />
    <path
       d="m 808,150.5 c 0,-3.3 0.2,-3.5 3.5,-3.5 3.3,0 3.5,0.2 3.5,3.5 0,3.3 -0.2,3.5 -3.5,3.5 -3.3,0 -3.5,-0.2 -3.5,-3.5 z"
       id="path245" />
    <path
       d="m 526,147.4 c 0,-3.9 0.9,-3.8 4,0.6 l 2.1,3 h -3 c -2.9,0 -3.1,-0.3 -3.1,-3.6 z"
       id="path247" />
    <path
       d="m 237.3,147.5 c 3.6,-3.2 4.7,-3.1 4.7,0 0,2.2 -0.4,2.5 -3.7,2.5 l -3.8,-0.1 z"
       id="path249" />
    <path
       d="m 570,144.3 c 0,-3.4 1.2,-6.3 2.6,-6.3 1,0 1.4,1.3 1.4,4 0,3.3 -0.3,4 -2,4 -1.2,0 -2,-0.7 -2,-1.7 z"
       id="path251" />
    <path
       d="m 637,144 c 0,-1.5 -0.7,-2 -2.5,-2 -1.8,0 -2.5,-0.5 -2.5,-2 0,-1.5 -0.7,-2 -2.5,-2 -1.6,0 -2.5,-0.6 -2.5,-1.5 0,-0.8 -0.9,-1.5 -2,-1.5 -1.1,0 -2,-0.7 -2,-1.5 0,-0.8 -0.9,-1.5 -2,-1.5 -1.6,0 -2,-0.7 -2,-3.1 v -3.1 l 3.8,2.8 c 7.2,5.4 21.2,16.6 21.2,17 0,0.2 -1.6,0.4 -3.5,0.4 -2.8,0 -3.5,-0.4 -3.5,-2 z"
       id="path253" />
    <path
       d="m 768,142.5 c 0,-1.9 0.5,-3.5 1,-3.5 0.6,0 1,0.6 1,1.3 0,0.6 0.3,2.2 0.6,3.5 0.5,1.6 0.2,2.2 -1,2.2 -1.2,0 -1.6,-0.9 -1.6,-3.5 z"
       id="path255" />
    <path
       d="m 771.6,143.8 c -1,-3.8 -0.7,-4.8 1.4,-4.8 1.6,0 2,0.7 2,3.5 0,4 -2.4,4.9 -3.4,1.3 z"
       id="path257" />
    <path
       d="m 843,143 c 0,-2.3 -0.4,-3 -2,-3 -1.6,0 -2,-0.7 -2,-3.5 0,-1.9 0.3,-3.5 0.8,-3.5 0.4,0 2.6,3 5,6.5 l 4.2,6.5 h -3 c -2.7,0 -3,-0.3 -3,-3 z"
       id="path259" />
    <path
       d="m 750.6,138.8 c -1,-3.8 -0.7,-4.8 1.4,-4.8 1.6,0 2,0.7 2,3.5 0,4 -2.4,4.9 -3.4,1.3 z"
       id="path261" />
    <path
       d="m 969.9,138.3 c 1.1,-1.6 3.3,-4.4 5,-6.3 l 3,-3.5 0.1,3.8 c 0,3 -0.3,3.7 -2,3.7 -1.5,0 -2,0.7 -2,2.5 0,2.1 -0.5,2.5 -3.1,2.5 h -3 z"
       id="path263" />
    <path
       d="m 254,139.2 c 0,-0.7 1.7,-1.8 6.3,-4 0.4,-0.2 0.7,0.8 0.7,2.2 0,2.3 -0.4,2.6 -3.5,2.6 -1.9,0 -3.5,-0.4 -3.5,-0.8 z"
       id="path265" />
    <path
       d="m 808.6,136.8 c -1,-3.8 -0.7,-4.8 1.4,-4.8 1.6,0 2,0.7 2,3.5 0,4 -2.4,4.9 -3.4,1.3 z"
       id="path267" />
    <path
       d="m 511.3,135 c -0.3,-1.1 -1.2,-2 -1.9,-2 -0.8,0 -1.4,-1 -1.4,-2.5 0,-2.1 -0.5,-2.5 -3,-2.5 -2.7,0 -3,-0.3 -3,-3.1 v -3 l 2.8,2 c 1.5,1.1 5.4,4.5 8.7,7.5 l 6,5.6 h -3.8 c -3.1,0 -4,-0.4 -4.4,-2 z"
       id="path269" />
    <path
       d="m 267.2,132.8 c 0.3,-0.7 1.9,-1.8 3.6,-2.5 3.1,-1.3 3.2,-1.2 3.2,1.2 0,2.2 -0.4,2.5 -3.6,2.5 -2.3,0 -3.4,-0.4 -3.2,-1.2 z"
       id="path271" />
    <path
       d="m 571,131.3 c 0,-2.2 1.8,-14.7 2.6,-18.5 0.3,-1.6 1.2,-2.8 2.1,-2.8 1.3,0 1.5,0.9 0.9,5.8 -0.4,3.1 -0.9,8.3 -1.3,11.5 -0.5,4.7 -0.9,5.7 -2.4,5.7 -1.2,0 -1.9,-0.7 -1.9,-1.7 z"
       id="path273" />
    <path
       d="m 797,127.5 c 0,-4.1 1.1,-4.5 3.4,-1 2.2,3.4 2,4.5 -0.9,4.5 -2.2,0 -2.5,-0.4 -2.5,-3.5 z"
       id="path275" />
    <path
       d="m 276.2,128.8 c 0.3,-0.7 3.6,-2.5 7.4,-4.1 12.4,-5.1 11.4,-5 11.4,-2.2 0,2.2 -0.4,2.5 -3.5,2.5 -2.4,0 -3.5,0.5 -3.5,1.5 0,0.9 -0.9,1.5 -2.5,1.5 -1.4,0 -2.5,0.5 -2.5,1 0,0.6 -1.6,1 -3.6,1 -2.3,0 -3.4,-0.4 -3.2,-1.2 z"
       id="path277" />
    <path
       d="m 770.6,127.8 c -1.2,-4.5 -0.7,-6.8 1.4,-6.8 1.7,0 2,0.7 2,4.5 0,4.9 -2.3,6.4 -3.4,2.3 z"
       id="path279" />
    <path
       d="m 749.7,126.3 c -0.4,-0.3 -0.7,-2.8 -0.7,-5.5 0,-4.1 0.3,-4.8 2,-4.8 1.8,0 2,0.7 2,5.5 0,3.9 -0.4,5.5 -1.3,5.5 -0.8,0 -1.7,-0.3 -2,-0.7 z"
       id="path281" />
    <path
       d="m 611,124.5 c 0,-0.8 -0.9,-1.5 -2,-1.5 -1.6,0 -2,-0.7 -2,-3.1 v -3 l 4.5,3.2 c 6.9,5 7.4,5.9 3.1,5.9 -2.5,0 -3.6,-0.4 -3.6,-1.5 z"
       id="path283" />
    <path
       d="m 981.8,123.2 c 1.2,-1.6 2.8,-3.5 3.7,-4.2 1.5,-1.2 1.6,-1 1.3,2.6 -0.3,3.6 -0.5,3.9 -3.7,4.2 l -3.3,0.3 z"
       id="path285" />
    <path
       d="m 829,121.4 c 0,-3.9 0.9,-3.8 4,0.6 l 2.1,3 h -3 c -2.9,0 -3.1,-0.3 -3.1,-3.6 z"
       id="path287" />
    <path
       d="m 1090,120.9 v -3 l 3,2.1 c 4.4,3.1 4.5,4 0.6,4 -3.3,0 -3.6,-0.2 -3.6,-3.1 z"
       id="path289" />
    <path
       d="m 794,119.5 c 0,-5.3 1.3,-4.6 4.8,2.8 0.2,0.4 -0.8,0.7 -2.2,0.7 -2.3,0 -2.6,-0.4 -2.6,-3.5 z"
       id="path291" />
    <path
       d="m 298.2,119.8 c 0.3,-0.7 1.9,-1.8 3.6,-2.5 3.1,-1.3 3.2,-1.2 3.2,1.2 0,2.2 -0.4,2.5 -3.6,2.5 -2.3,0 -3.4,-0.4 -3.2,-1.2 z"
       id="path293" />
    <path
       d="m 494,117.9 v -3 l 3,2.1 c 4.4,3.1 4.5,4 0.6,4 -3.3,0 -3.6,-0.2 -3.6,-3.1 z"
       id="path295" />
    <path
       d="m 311,115.2 c 0,-1.4 0.4,-1.6 8.3,-4.6 l 6.7,-2.5 v 2.4 c 0,2 -0.5,2.5 -2.4,2.5 -1.3,0 -2.6,0.5 -2.8,1.1 -0.5,1.5 -9.8,2.5 -9.8,1.1 z"
       id="path297" />
    <path
       d="m 802.6,115.1 c -0.3,-0.4 -1,-2 -1.5,-3.5 -1,-2.4 -0.8,-2.6 1.4,-2.6 2.2,0 2.5,0.4 2.5,3.5 0,3.3 -1.2,4.6 -2.4,2.6 z"
       id="path299" />
    <path
       d="m 790,110.5 c 0,-4.3 1.4,-4.5 3.5,-0.5 2,3.8 1.9,4 -1,4 -2.2,0 -2.5,-0.4 -2.5,-3.5 z"
       id="path301" />
    <path
       d="m 1077,113 c 0,-0.5 -0.7,-1 -1.5,-1 -0.8,0 -1.5,-0.7 -1.5,-1.5 0,-0.8 -0.9,-1.5 -2,-1.5 -2.9,0 -7,-2.1 -7,-3.7 0,-0.7 -1.1,-1.3 -2.4,-1.3 -1.3,0 -3.1,-0.3 -4,-0.6 -2.1,-0.8 -2.1,-4.4 0,-4.4 2.3,0 18.8,8.8 22.7,12.1 l 3.2,2.8 -3.7,0.1 c -2.1,0 -3.8,-0.4 -3.8,-1 z"
       id="path303" />
    <path
       d="m 767.3,109.5 c -1.1,-3.3 -1,-3.5 1.3,-3.5 2.1,0 2.4,0.5 2.4,3.5 0,2.2 -0.5,3.5 -1.3,3.5 -0.8,0 -1.8,-1.6 -2.4,-3.5 z"
       id="path305" />
    <path
       d="m 589,109.5 c 0,-0.8 -0.9,-1.5 -1.9,-1.5 -3,0 -5.1,-1.1 -5.1,-2.6 0,-1 -1.2,-1.4 -4,-1.4 -3.4,0 -4,-0.3 -4,-2 0,-2.9 2.3,-3.4 6.2,-1.5 7,3.5 15.8,8.9 15.8,9.7 0,0.4 -1.6,0.8 -3.5,0.8 -2.4,0 -3.5,-0.5 -3.5,-1.5 z"
       id="path307" />
    <path
       d="m 818,108 c 0,-2.5 -0.4,-3 -2.5,-3 -2.2,0 -2.5,-0.4 -2.5,-3.7 l 0.1,-3.8 3.5,4 c 1.9,2.2 4.4,5.2 5.5,6.8 l 2,2.7 h -3 c -2.8,0 -3.1,-0.3 -3.1,-3 z"
       id="path309" />
    <path
       d="m 327,109.2 c 0,-1.5 0.7,-1.9 13,-6.2 l 11,-4 v 2.3 c 0,1.9 -0.9,2.6 -5.3,4 -3,0.9 -6.1,1.7 -7,1.7 -0.8,0 -1.7,0.5 -1.9,1.1 -0.5,1.5 -9.8,2.5 -9.8,1.1 z"
       id="path311" />
    <path
       d="m 478,106.5 c 0,-0.8 -0.9,-1.5 -2,-1.5 -1.3,0 -2,-0.7 -2,-2 0,-1.5 -0.7,-2 -2.5,-2 -2.1,0 -2.5,-0.5 -2.5,-3.1 0,-2.4 0.3,-2.9 1.3,-2.2 0.6,0.6 4.2,3.4 8,6.2 3.7,2.9 6.7,5.5 6.7,5.7 0,0.2 -1.6,0.4 -3.5,0.4 -2.4,0 -3.5,-0.5 -3.5,-1.5 z"
       id="path313" />
    <path
       d="m 748,98.3 c 0,-1 0.9,-3.3 2,-5.1 1.1,-1.8 1.7,-3.8 1.4,-4.4 -0.5,-0.7 -0.2,-0.8 0.5,-0.4 0.7,0.5 1,1.4 0.7,2.1 -0.2,0.7 0.2,2.5 1,4 2.2,4.4 1.8,5.5 -2.1,5.5 -2.7,0 -3.5,-0.4 -3.5,-1.7 z"
       id="path315" />
    <path
       d="m 1008,98 c 0,-1.3 2.8,-2.7 7.3,-3.5 3.3,-0.6 3.7,-0.5 3.7,1.3 0,1.4 -0.9,2.1 -3.1,2.6 -4.6,0.9 -7.9,0.7 -7.9,-0.4 z"
       id="path317" />
    <path
       d="m 361,97 c 0,-1.2 3.3,-3 5.4,-3 0.9,0 1.6,0.9 1.6,2 0,1.6 -0.7,2 -3.5,2 -1.9,0 -3.5,-0.4 -3.5,-1 z"
       id="path319" />
    <path
       d="m 795,95.3 c -0.8,-1.6 -1.6,-3.1 -1.8,-3.5 -0.2,-0.5 0.8,-0.8 2.2,-0.8 2.3,0 2.6,0.4 2.6,3.5 0,4.2 -1.2,4.5 -3,0.8 z"
       id="path321" />
    <path
       d="m 1021,95.6 c 0,-1.3 2.8,-2.6 5.8,-2.6 0.6,0 1.2,0.9 1.2,2 0,1.6 -0.7,2 -3.5,2 -2.3,0 -3.5,-0.5 -3.5,-1.4 z"
       id="path323" />
    <path
       d="m 1033,95 c 0,-2.1 1.6,-2.5 5.8,-1.4 3.9,1.1 2.7,3.4 -1.8,3.4 -3.3,0 -4,-0.3 -4,-2 z"
       id="path325" />
    <path
       d="m 371,93.7 c 0,-0.8 1.6,-1.8 3.5,-2.4 3.3,-1.1 3.5,-1 3.5,1.3 0,2.1 -0.5,2.4 -3.5,2.4 -2.2,0 -3.5,-0.5 -3.5,-1.3 z"
       id="path327" />
    <path
       d="m 460,92 c 0,-1.5 -0.7,-2 -2.5,-2 -2,0 -2.5,-0.5 -2.5,-2.5 0,-2.2 -0.4,-2.5 -3.5,-2.5 -3.2,0 -3.5,-0.2 -3.5,-3 v -3.1 l 5.8,4.1 c 3.1,2.2 7.5,5.6 9.7,7.5 l 4,3.4 -3.7,0.1 c -3.1,0 -3.8,-0.3 -3.8,-2 z"
       id="path329" />
    <path
       d="m 380,90.7 c 0,-1.2 6,-3.7 8.9,-3.7 2.1,0 1.1,3.8 -1.1,4.4 -4,1 -7.8,0.7 -7.8,-0.7 z"
       id="path331" />
    <path
       d="m 779,88.9 v -3 l 3,2.1 c 1.7,1.2 3,2.6 3,3.1 0,0.5 -1.3,0.9 -3,0.9 -2.7,0 -3,-0.3 -3,-3.1 z"
       id="path333" />
    <path
       d="m 790.6,85.6 c -1.6,-3.3 -2.2,-8.6 -1,-8.6 0.7,0 13.4,10 13.4,10.6 0,0.2 -1.6,0.4 -3.5,0.4 -2.8,0 -3.5,-0.4 -3.5,-2 0,-1.1 -0.4,-2 -1,-2 -0.5,0 -1,1.1 -1,2.5 0,3.5 -1.5,3.1 -3.4,-0.9 z"
       id="path335" />
    <path
       d="m 393,86.7 c 0,-0.8 2.5,-2.1 6,-3 7.6,-2.1 8,-2.1 8,0.3 0,1.6 -0.7,2 -3.5,2 -1.9,0 -3.5,0.5 -3.5,1 0,0.6 -1.6,1 -3.5,1 -2.3,0 -3.5,-0.5 -3.5,-1.3 z"
       id="path337" />
    <path
       d="m 772,81.4 c 0,-3.9 0.9,-3.8 4,0.6 l 2.1,3 h -3 c -2.9,0 -3.1,-0.3 -3.1,-3.6 z"
       id="path339" />
    <path
       d="m 439,76 c 0,-1.3 0.7,-2 1.8,-2 1.1,0 2.7,0.9 3.7,2 1.8,2 1.7,2 -1.8,2 -3,0 -3.7,-0.4 -3.7,-2 z"
       id="path341" />
    <path
       d="M 757.2,74.7 C 756,73.3 756.7,69 758,69 c 0.4,0 0.5,-1.2 0.2,-2.6 -0.6,-3.5 1.3,-2.9 4.6,1.4 l 2.5,3.2 h -2.7 c -2.1,0 -2.6,0.5 -2.6,2.5 0,2.7 -1.2,3.2 -2.8,1.2 z"
       id="path343" />
  </g>
  <g
     fill="#ffcd53"
     id="g355"
     transform="translate(-159,-44.149214)">
    <path
       fill="url(#lg0)"
       d="m 445.9,309.6 c -0.2,-0.3 -11.9,-0.8 -25.9,-1.1 -25.7,-0.7 -51,-2 -45.5,-2.4 2.6,-0.2 2.7,-0.4 1,-1 -1.3,-0.6 -3.1,-0.3 -5,0.7 -2.8,1.4 -2.9,1.4 -1.6,-0.1 0.7,-1 1.7,-1.7 2.2,-1.7 1,0 29.1,-15.2 38.9,-21 9.7,-5.7 18.3,-12.2 26.8,-20.4 10.4,-10 11.1,-11.3 13.9,-24.7 0.7,-3.9 -2.3,-9.4 -8.6,-15.6 -6.9,-6.8 -8.9,-7.8 -17.1,-9.1 -9.3,-1.4 -52.3,1.1 -75.1,4.4 l -3.6,0.5 -0.7,33.2 c -0.3,18.3 -1.1,37.8 -1.8,43.4 -1,9.4 -1.2,10.1 -2.9,9.3 -1,-0.6 -4.2,-1 -7.1,-1 -9,0 -32.9,-2.6 -47.5,-5.1 l -7.3,-1.3 v -26.5 c 0,-14.6 -0.4,-28.2 -0.9,-30.1 -0.6,-1.9 -1.1,-5.2 -1.3,-7.3 -0.3,-3.7 -0.1,-3.9 3.7,-5.3 2.2,-0.8 6.4,-1.7 9.2,-2 2.9,-0.4 5.8,-1.3 6.4,-2.1 2.6,-3 -0.8,-3.8 -21,-4.8 -19.4,-1.1 -20,-1.2 -24.2,-3.9 -3.8,-2.6 -9,-4.5 -12.6,-4.8 -1.6,-0.2 -1.7,-2 -0.1,-3.6 0.9,-0.9 0.7,-1.2 -1,-1.2 -1.2,0 -2.2,-0.3 -2.2,-0.6 0,-0.4 2.1,-3.2 4.7,-6.3 2.6,-3.1 4.8,-5.8 5,-6.1 0.2,-0.2 5.4,-1 11.6,-1.6 24.6,-2.7 43.1,-5.8 50.1,-8.6 1.6,-0.7 5.9,-1.7 9.5,-2.3 4.7,-0.7 6.7,-1.5 6.9,-2.7 0.4,-2.2 -2.6,-3 -6.8,-1.8 -1.9,0.6 -10.9,1 -20,1.1 -16.6,0 -20.1,0.3 -45,3.6 -7.4,0.9 -17.5,1.7 -22.5,1.6 -14.7,-0.2 -35.5,-1.5 -35.5,-2.2 0,-0.3 7.8,-5.7 17.4,-11.9 9.5,-6.2 19.9,-13.5 23.1,-16.3 C 253,133.8 367,90.1 427.2,76.6 c 6.3,-1.4 12.2,-2.6 13,-2.6 2.3,0 39,28.1 59.8,45.9 16.4,13.9 30.2,27.7 37.7,37.6 3.3,4.4 7.5,9.2 9.2,10.5 2.9,2.3 3.3,3.3 4.6,12.2 0.8,5.4 1.6,15 1.7,21.5 0.3,13.3 1.2,11 -10.6,28.4 -13.4,19.8 -32.4,39.9 -52.8,55.8 -10.5,8.2 -23.1,18.1 -28.1,22.1 -1.7,1.4 -2.8,1.9 -2.3,1.3 0.4,-0.7 0.3,-1.3 -0.3,-1.3 -0.5,0 -1.3,0.5 -1.6,1 -0.6,1 -10.7,1.5 -11.6,0.6 z"
       id="path347"
       style="fill:url(#linearGradient1198)" />
    <path
       fill="url(#lg0)"
       d="m 579.6,309.1 c -2.3,-3.6 -6.2,-50.9 -7.2,-85.6 -0.3,-11.5 -0.7,-24.5 -0.8,-28.8 -0.1,-4.3 -0.8,-8.3 -1.4,-8.9 -2.4,-2.4 -0.4,-49.5 2.8,-67.7 0.6,-3 1,-8 1,-11 0,-8.7 0.6,-9 9.1,-4.7 16.7,8.5 44.4,28.7 73.9,54 27.4,23.5 47.6,43.2 77.1,75.5 9.2,10.1 30.4,27.9 31.7,26.7 0.2,-0.3 -0.8,-6 -2.3,-12.8 -3.3,-15.4 -2.9,-13.2 -5.9,-33.3 -1.4,-9.3 -2.8,-20.7 -3.1,-25.2 -0.3,-4.6 -1.2,-14.2 -1.9,-21.5 -0.8,-7.3 -1.3,-13.5 -1.1,-13.9 0.2,-0.3 0,-4.8 -0.5,-10 -0.5,-5.2 -1.2,-13.5 -1.4,-18.6 -0.3,-5 -0.8,-12.5 -1.2,-16.6 -0.7,-8 0.5,-13.5 3.3,-15.9 1.1,-0.9 1.4,-0.9 1,-0.1 -0.5,0.7 -0.1,2.6 0.8,4.3 0.9,1.7 2.5,6.4 3.5,10.3 4.5,17.1 5.4,19.6 8.8,26.7 1.9,4.1 4.1,9.1 4.7,11 1.9,5.7 0.7,-14.7 -1.5,-25.5 -3.2,-16.1 -10.5,-42 -12,-43 -0.7,-0.4 0,-4.6 1.6,-9.3 0.2,-0.8 3.4,1.9 8.1,7 4.3,4.6 10.3,10.9 13.4,14 4.3,4.4 6.4,7.6 9.3,14.5 2.1,4.8 4.3,10.2 5,11.8 0.7,1.7 2.4,5.7 3.7,9 1.3,3.3 2.7,6.1 3.2,6.3 0.4,0.2 0.7,0.9 0.7,1.6 0,1.2 6.1,14 7.9,16.6 0.8,1.1 0.9,0.6 0.5,-2 -2.1,-12.2 -10.1,-36.5 -18.4,-55.8 -1.7,-4.1 -3,-8.3 -2.8,-9.4 0.3,-1.9 1.2,-1.4 7.8,3.9 15.2,12.3 27.5,26.8 46.5,55.3 16.1,24 19.2,30.7 27.1,58 4.4,15.4 10.8,46.2 11.9,57.6 0.3,3.2 1.2,11.5 2,18.4 1.8,14.7 1.9,21.4 0.5,20.5 -0.5,-0.3 -1,-0.3 -1,0.2 0,0.4 -10.7,0.7 -23.8,0.6 -29.8,-0.2 -66.2,1.1 -104.2,3.8 -16.2,1.1 -36.7,2.4 -45.5,2.9 -8.8,0.6 -19.4,1.4 -23.5,2 -4.1,0.5 -16.7,1.7 -28,2.5 -11.3,0.9 -25,1.9 -30.5,2.4 -5.5,0.4 -16.7,0.9 -24.9,1 -8.2,0.1 -16.9,0.6 -19.3,1 -2.4,0.5 -4.5,0.6 -4.7,0.2 z"
       id="path349"
       style="fill:url(#linearGradient1200)" />
    <path
       fill="url(#lg0)"
       d="m 907.4,291.2 c 0.4,-1.5 1.1,-5.8 1.7,-9.7 0.6,-3.8 1.2,-7.9 1.5,-9 0.2,-1.1 0.6,-4 1,-6.5 0.4,-2.5 1.4,-5.2 2.3,-6 4.8,-4.4 4.6,-3.9 10.7,-27 11.2,-42.7 31.5,-80.2 62.9,-116 18.9,-21.4 22.2,-23.3 42,-23.4 18.9,0 35.4,6 55.5,20.2 9.9,6.9 34.5,32.1 45.3,46.2 11.2,14.7 28.5,41.3 29.3,44.9 0.9,3.9 9.3,30.9 11.2,36 0.5,1.2 0.2,1.2 -1.7,-0.1 -1.5,-1.1 -3.6,-1.4 -6.7,-1 -6,0.6 -13.6,-2.4 -25.6,-10.2 l -2.3,-1.5 v 7.7 c -0.1,5.2 -0.7,8.8 -1.8,11.1 -0.9,1.9 -1.7,4 -1.7,4.8 0,1.5 -2.6,1.2 -9.5,-1.2 -2.2,-0.8 -6.9,-2.1 -10.5,-2.9 -3.6,-0.8 -11,-3.1 -16.5,-5 -9.1,-3.2 -10.1,-3.4 -11.2,-1.9 -0.7,0.9 -1.3,2.6 -1.3,3.8 0,3.7 -0.2,3.7 -12.3,0.4 -2.6,-0.7 -6.7,-3.7 -12.5,-9.1 -17.6,-16.4 -19.7,-17.4 -26.1,-12.8 -3.5,2.5 -31.4,35.4 -35.5,41.9 -3,4.8 -8.9,21.6 -8.7,25 0.1,2.2 0,2.3 -1.1,0.9 -1.1,-1.4 -2.1,-1.5 -5.8,-0.8 -2.5,0.5 -17.6,1.4 -33.5,2 -16,0.6 -31.4,1.3 -34.4,1.5 l -5.3,0.4 z"
       id="path351"
       style="fill:url(#linearGradient1202)" />
    <path
       d="m 190.2,156.9 c 0.2,-0.6 1.4,-1.6 2.7,-2 2.7,-1.1 1.9,0.6 -1.1,2.2 -1.6,0.8 -1.9,0.8 -1.6,-0.2 z"
       id="path353" />
  </g>
  <g
     fill="#d2daf4"
     id="g371"
     transform="translate(-159,-44.149214)">
    <path
       d="m 655.5,637.4 c -4.3,-2.2 -6,-2.4 -12,-2 -3.8,0.3 -9.6,1.2 -12.9,2.1 -4.4,1.2 -6.7,1.3 -9.5,0.5 -2.3,-0.6 -34.1,-1 -87.7,-1 h -84 l -2.9,-3.1 c -1.7,-1.6 -6.3,-5.2 -10.3,-8 l -7.3,-5 3.3,4.3 c 1.8,2.4 4.6,5.8 6.2,7.7 2.7,3.2 2.7,3.5 1,4.2 -4.8,1.9 -8.9,0.9 -15.9,-3.7 -3.9,-2.6 -8.3,-5.8 -10,-7.3 -2.3,-2 -2.1,-1.6 0.9,1.9 2.1,2.5 5.2,5.7 7,7.2 l 3.1,2.8 -6.5,-0.5 c -3.6,-0.2 -15.9,-0.7 -27.5,-1 -19.8,-0.6 -21.1,-0.7 -23.5,-2.8 -1.4,-1.2 -2.8,-2.6 -3.1,-3 -1.2,-1.6 -2,-24.4 -1.3,-36 l 0.7,-11.6 6.4,8.8 c 3.5,4.9 7,9.1 7.7,9.4 0.9,0.4 -0.1,-2.7 -2.4,-7.6 -5.9,-12.9 -8.2,-19.7 -6.7,-20.1 0.6,-0.3 2.6,-0.9 4.4,-1.4 3,-1 3.4,-0.8 6.1,2.6 1.6,2 4.6,6.3 6.7,9.5 2.3,3.5 4.5,5.7 5.6,5.7 1,0 3.3,1.3 5.1,2.9 l 3.4,2.9 4.5,-3.3 c 2.5,-1.8 6.7,-5.7 9.2,-8.7 2.5,-2.9 7.5,-8.7 11.1,-13 l 6.6,-7.6 -12,-7.2 c -6.6,-3.9 -12.2,-7.6 -12.5,-8.1 -0.4,-0.5 10.8,-0.8 27.2,-0.8 25.2,0.1 28.1,0.3 31.5,2 5,2.5 11.4,2.4 15.8,-0.2 l 3.5,-2.2 254.5,0.5 c 251.9,0.6 254.6,0.6 258,2.6 1.9,1.1 8,3.6 13.5,5.6 5.5,2.1 12,4.6 14.5,5.8 2.7,1.2 4.6,1.6 4.8,0.9 0.2,-0.5 1.6,-0.8 3,-0.5 4.3,0.9 11.2,-6.1 11.2,-11.3 0,-2.2 2,-1.5 3,1.1 1.2,3.3 5.7,6.6 8.9,6.6 3.7,0 7.1,-3.4 7.1,-7 0,-2.9 0.1,-3 4.9,-3 4.3,0 5.2,0.4 7,2.9 2,2.7 2.1,4.3 2.1,24.1 0,18.9 -0.2,21.1 -1.6,20.6 -0.9,-0.3 -2.5,-0.6 -3.7,-0.6 -1.5,0 -2.9,-1.3 -4.3,-3.8 -1.2,-2 -3.7,-5.5 -5.4,-7.7 l -3.3,-4 0.6,3.3 c 0.7,3.3 9.1,20.8 14.2,29.6 3.7,6.3 2,5.7 -4,-1.5 -2.7,-3.3 -7.1,-7.9 -9.7,-10.1 l -4.8,-4 3.3,5.9 c 1.8,3.2 5.4,8.8 8,12.5 4.8,6.9 5.8,9 3.2,6.8 -1.1,-0.9 -2,-0.8 -4.5,1 -2.6,1.9 -2.9,2.4 -1.8,3.8 1.1,1.3 0.8,1.2 -1.4,-0.2 -2.6,-1.7 -2.7,-1.7 -3,0.6 -0.2,1.3 -0.9,2.4 -1.5,2.4 -2.7,0.3 -2.7,0.5 -0.9,1.9 1.1,0.8 1.6,1.5 1,1.5 -1.4,-0.1 -5,-3 -3.6,-3 0.9,0 0.9,-0.7 0,-3 -1.8,-4.1 -38.7,-32.4 -40.3,-30.8 -1.1,1.1 0.8,3.4 6.6,8.3 3.3,2.8 8.1,7.1 10.7,9.7 4.4,4.5 7.2,6.3 5.6,3.6 -0.4,-0.7 -0.3,-0.8 0.5,-0.4 0.6,0.4 0.9,1.1 0.6,1.6 -0.3,0.5 3.3,4.1 8,8 4.7,4 8.5,7.6 8.5,8 0,0.4 -0.7,1.1 -1.6,1.4 -3.3,1.3 -7.2,0.5 -11,-2.2 C 1020.3,619 990,600 990,602 c 0,0.8 7.1,7.5 13.5,12.8 l 4,3.3 -6.4,-3.2 c -9.2,-4.5 -14.4,-6.2 -13.9,-4.6 0.7,2 7.1,5.8 28.3,17.1 17.6,9.3 19.5,10.6 16.3,10.6 -2,0 -4,-0.5 -4.3,-1 -1.6,-2.6 -35.1,-16.4 -42.7,-17.6 -3.9,-0.7 -4.9,0.4 -2.5,2.4 1.2,1 31.7,13.3 37.7,15.2 2.3,0.8 2.2,0.8 -1.1,0.9 -2.3,0.1 -6.6,-1.4 -12.5,-4.3 -10.5,-5.2 -33.3,-13.6 -36.9,-13.6 -2.2,0 -2.4,0.3 -1.6,1.8 1,1.9 29.2,12.4 38.5,14.3 10.3,2.2 6.6,2.8 -13.5,2.5 -39.5,-0.8 -173.4,-0.6 -176.4,0.2 -2.1,0.6 -5.3,0.3 -10.5,-1.1 -10.3,-2.7 -17.4,-2.7 -22.7,0.1 -4.2,2.2 -4.3,2.2 -63.5,2.1 l -59.3,-0.1 z M 531.6,629 c 10.6,-1.9 10.4,-1.8 10.4,-4.9 0,-1.6 -2.1,-7.4 -4.6,-12.9 l -4.6,-10 3,-4.1 c 7.1,-9.8 6.4,-23.7 -1.6,-31.7 -4,-4 -11.2,-7.2 -18.8,-8.4 -7.7,-1.2 -19.9,-0.4 -21.8,1.6 -1.6,1.5 -3,65.8 -1.5,68.7 0.8,1.4 2.4,1.7 10.3,1.7 6.4,0 9.7,-0.4 10.4,-1.3 0.6,-0.7 1.2,-4.6 1.4,-8.7 l 0.3,-7.5 3.4,8 c 3.1,7.2 5.3,10.5 7.1,10.5 0.4,0 3.3,-0.5 6.6,-1 z m 88.1,-0.2 c 0.6,-0.7 1.4,-7.4 1.7,-14.8 0.7,-12.9 2.3,-20 4.5,-20 2.5,0 3.5,5 3.9,19.3 0.4,14.7 0.4,14.8 2.9,15.8 3.9,1.4 12.9,1.1 14.6,-0.6 3.3,-3.3 3.5,-33.3 0.2,-42.4 -3.4,-9.7 -9.4,-13.9 -17.9,-12.7 -2.3,0.4 -5.6,1.5 -7.4,2.6 -3.1,1.9 -3.2,1.9 -4.2,0 -0.9,-1.7 -2.1,-2 -7.5,-2 -10.2,0 -9.9,-1.1 -9,28.4 0.4,14.4 1.1,25.6 1.7,26.4 0.7,0.7 3.7,1.2 8.3,1.2 4.6,0 7.6,-0.5 8.2,-1.2 z m 80.5,0 c 1.2,-1 1.7,-4.1 2.1,-14.4 0.4,-8.5 1.1,-14.4 2.1,-16.8 3.5,-8.4 6.4,-0.3 6.5,18.2 0.1,12.2 0.1,12.3 2.7,13.2 3.2,1.2 12.4,1.3 14.3,0.1 3,-1.9 4.1,-26.9 1.6,-38.4 -2.6,-12.3 -7.2,-17.1 -16.5,-17.1 -3.9,-0.1 -6.6,0.6 -9.2,2.1 -3.6,2.1 -3.7,2.1 -5.4,0.2 -1.3,-1.4 -3,-1.9 -7.3,-1.9 -9.1,0 -8.6,-1.6 -8.3,27.7 0.3,29.7 -0.2,28.3 9.7,28.3 3.4,0 6.8,-0.6 7.7,-1.2 z m 125.3,-2.3 c 7.9,-4.6 12.3,-13.8 12.7,-26.6 0.2,-10 -0.2,-10.3 -13.6,-9.6 -12.8,0.7 -15.1,1.9 -12.6,6.5 0.9,1.5 2.6,2.8 3.8,3 4.9,0.7 0.7,11.2 -4.5,11.2 -5.3,0 -9.3,-6.6 -9.3,-15.2 0,-7.2 1.5,-12 4.6,-15.2 3.4,-3.3 6.9,-3.4 9,-0.1 0.9,1.4 2.5,2.5 3.6,2.5 3.3,0 15.6,-4.1 16.8,-5.5 1.7,-2.1 -0.5,-7.9 -4.8,-12.7 -7,-7.7 -16.3,-10.3 -26.4,-7.4 -16.9,5 -26.9,23.4 -23.9,43.8 3,19.6 14.2,29.5 32.4,28.4 6,-0.3 8.7,-1 12.2,-3.1 z m 91.3,1.9 c 2,-1.4 2.2,-2.3 2.2,-11.8 0,-10.7 1.3,-20.3 3,-22 3.2,-3.2 5.9,8.4 6,24.6 0,5.2 0.4,9 1.1,9.4 0.6,0.3 3.9,0.9 7.3,1.1 8.8,0.7 9.5,-0.1 10.7,-12.2 1.8,-18.7 -1.2,-34.8 -7.6,-40.3 -4.6,-4.1 -9.4,-4.9 -16.1,-2.8 -2.9,0.9 -5.6,2.1 -6,2.7 -0.3,0.6 -1.2,0.2 -2.1,-1 -1.2,-1.7 -2.5,-2.1 -7.7,-2.1 -3.5,0 -6.7,0.5 -7.4,1.2 -1.3,1.3 -1.8,50.4 -0.4,52.4 1.1,1.7 3.2,2.2 9.2,2.3 3.5,0.1 6.4,-0.5 7.8,-1.5 z m -343,-1.3 c 3.8,-1.9 3.8,-1.9 5,0 1,1.6 2.4,1.9 8.5,1.9 4.3,0 7.8,-0.5 8.5,-1.2 0.9,-0.9 1.2,-8.1 1.2,-26.5 0,-29.4 0.9,-27.3 -11.9,-27.3 -9.9,0 -10,0.1 -10,14.1 -0.1,11.7 -1.8,20.4 -4.1,20.4 -3,0 -4.4,-5.6 -4.9,-20 l -0.6,-14 -8.8,-0.3 c -5.7,-0.2 -9.4,0.1 -10.3,0.9 -2.1,1.7 -1.9,28.4 0.1,36.4 1.9,7.2 5.5,12.9 9.8,15.5 4.2,2.6 12.5,2.7 17.5,0.1 z M 871,627 l 3.9,-2 1.1,2 c 0.9,1.7 2.1,2 8.4,2 5.4,0 7.7,-0.4 8.6,-1.5 1,-1.2 1.3,-7.4 1.1,-26.3 -0.1,-22 -0.3,-24.8 -1.9,-26 -1.1,-0.9 -4.4,-1.2 -10.2,-1 l -8.5,0.3 -0.9,13.5 c -0.9,14.5 -2.2,20.5 -4.6,20.5 -3,0 -4.4,-5.6 -4.6,-19.2 -0.1,-7.3 -0.5,-13.7 -0.9,-14.3 -1,-1.7 -18,-1.3 -19.5,0.5 -1.9,2.3 -0.8,33.6 1.4,39.4 2.2,6 5.7,10.4 9.8,12.4 4.6,2.3 12,2.1 16.8,-0.3 z M 744.9,575.5 c 3.3,-3 3.9,-4.3 4.5,-8.9 0.9,-8.3 0.5,-8.7 -7.3,-8.4 l -6.6,0.3 v 5.5 c 0,4.9 0.2,5.5 2.3,5.8 2.6,0.4 2.7,0.6 0.6,3.7 -1.8,2.8 -1.3,5.5 1.1,5.5 0.8,0 3.2,-1.6 5.4,-3.5 z M 447.5,550.1 c -0.3,-0.6 -1.8,-1.1 -3.3,-1.1 l -2.7,0.1 3,1.3 c 3.2,1.4 4.1,1.3 3,-0.3 z"
       id="path357" />
    <path
       d="m 513,582.6 c 0,-6.9 0.5,-7.5 4.3,-5.5 5.8,3.1 4.7,9.3 -2,11.3 -2.2,0.7 -2.3,0.5 -2.3,-5.8 z"
       id="path359" />
    <path
       d="m 1237.7,623.4 c -0.8,-0.8 -26.5,-4.9 -41.5,-6.6 -12,-1.4 -11.4,-0.8 -17.7,-16.8 -2.1,-5.2 -4.5,-11.3 -5.5,-13.5 -3.1,-7.1 -6.8,-17.6 -13.1,-36.5 -3.3,-10.2 -6.9,-20.3 -7.9,-22.5 -3.2,-7.3 -7.2,-18.6 -6.8,-19.1 0.3,-0.2 3.8,0.7 7.9,2 4.1,1.3 9.4,2.9 11.9,3.6 2.5,0.6 5.2,1.4 6,1.7 0.8,0.4 4.4,1.4 8,2.4 3.6,0.9 9.7,2.6 13.5,3.7 3.9,1.2 11.6,3.3 17.2,4.8 9.8,2.6 10.1,2.8 10.6,5.8 0.9,5.2 3.2,13.4 4,14.2 0.4,0.4 0.7,1.5 0.7,2.4 0,0.9 0.9,4.8 2.1,8.6 4.5,14.9 12.2,39 12.8,39.9 1,1.5 4.7,11.2 6.6,17.2 2.4,7.4 1.9,8.7 -3.5,9.1 -2.5,0.2 -4.9,0 -5.3,-0.4 z m -25.8,-34.3 c 4.4,-4.4 3.9,-16.6 -0.9,-26.1 -3.7,-7.3 -8.6,-11 -14.6,-11 -13.3,0 -12.2,20.3 1.8,34.3 3.8,3.8 5.4,4.7 8.3,4.7 2.1,0 4.2,-0.7 5.4,-1.9 z M 1201,537.5 c -1.1,-4.9 -5.6,-12.2 -8,-13 -3.5,-1.1 -4.1,0.4 -2,4.5 1.9,3.6 9,12 10.2,12 0.3,0 0.2,-1.6 -0.2,-3.5 z"
       id="path361" />
    <path
       d="m 216.6,619.7 c 0.4,-1.8 1.1,-5 1.7,-7.2 0.6,-2.2 1.1,-4.4 1.2,-5 0.1,-0.5 0.4,-1.7 0.7,-2.5 0.4,-0.8 1.4,-5.1 2.3,-9.5 0.9,-4.4 2,-8.9 2.5,-10 1,-2.2 3.7,-12.8 7.9,-31 l 2.8,-12 7.9,-6.3 c 4.3,-3.4 13.5,-10.2 20.4,-14.9 18.1,-12.5 22.8,-15.8 29.8,-20.9 l 6.3,-4.6 -0.6,3.8 c -1.4,8.5 -4.6,24.5 -7.1,35.4 -1.4,6.3 -2.7,12.4 -2.9,13.5 -0.2,1.1 -0.7,4.1 -1.3,6.7 -0.5,2.6 -0.7,5.9 -0.5,7.2 0.3,1.4 -0.2,3.5 -1.1,4.8 -0.9,1.3 -2.1,4 -2.7,6 -0.5,2 -2.5,5.8 -4.4,8.3 -1.9,2.5 -3.5,5 -3.5,5.5 0,0.6 -1.1,1.5 -2.5,2 -5.2,2 -25.7,13.6 -41.2,23.5 -16.2,10.3 -16.2,10.3 -15.7,7.2 z m 18.6,-17.4 c 3.2,-3.4 5.8,-8.5 5.8,-11.2 0,-1.1 -1.1,-2.8 -2.5,-3.7 -2.5,-1.6 -2.7,-1.6 -5.6,1.2 -3.9,3.7 -5.9,7.5 -5.9,11.2 0,5.6 4.1,6.8 8.2,2.5 z m 38.2,-22.8 c 2.8,-3.1 4.7,-9.6 3.4,-11.9 -3,-5.4 -9.6,-3.4 -12.3,3.8 -1.6,4 -1.6,4.6 -0.1,7.5 2.1,3.9 5.7,4.1 9,0.6 z m -29.6,-22.8 c 4,-4.2 5.1,-9 2.7,-11.7 -2.3,-2.5 -3.6,-2.5 -6.8,0.1 -3.1,2.3 -5.2,8.6 -4.3,12.3 0.9,3.7 4.4,3.4 8.4,-0.7 z m 36.9,-24.5 c 3.8,-5 4.2,-8.1 1.3,-10.7 -2.6,-2.3 -6.4,-1.3 -10.2,2.7 -3.7,3.9 -3.7,7.9 -0.1,10.8 3.6,2.8 5.1,2.3 9,-2.8 z"
       id="path363" />
    <path
       d="m 289.9,582.7 c -0.5,-1.2 -0.3,-19.7 0.2,-19.7 0.3,0 2,-4.2 3.7,-9.2 2.9,-8.5 6.1,-24.5 7.8,-38.8 0.3,-3 1.3,-7.8 2.1,-10.7 l 1.4,-5.1 5.8,3.2 c 9.1,5.2 18.1,11.6 18.1,12.9 0,0.6 -1.2,2.2 -2.6,3.4 -2,1.7 -3.4,2.1 -5.3,1.6 -4.3,-1.1 -6.5,-0.5 -9,2.3 -3.3,3.9 -2.4,8.9 2.2,12.7 l 3.5,2.9 -7,9.1 c -8.3,10.9 -12.8,18.9 -15.7,27.9 -1.2,3.6 -2.9,6.9 -3.7,7.2 -0.7,0.3 -1.4,0.4 -1.5,0.3 z"
       id="path365" />
    <path
       d="m 1029.5,549 c -1.8,-0.8 -1.7,-0.9 0.7,-0.9 1.5,-0.1 3,0.4 3.3,0.9 0.7,1.2 -1.2,1.2 -4,0 z"
       id="path367" />
    <path
       d="m 1136.8,531 c -3.1,-2.2 -6.1,-4 -6.6,-4 -0.6,0 -2.3,-1.1 -3.9,-2.4 -1.5,-1.2 -3.4,-2.5 -4.1,-2.7 -0.7,-0.2 2.4,-2.6 6.8,-5.2 8.1,-4.8 10,-5.2 10,-1.7 0,1 0.4,2.1 0.9,2.4 0.4,0.3 1.1,2 1.5,3.7 0.3,1.7 1.2,4.5 2,6.2 3.8,8.3 1.5,9.6 -6.6,3.7 z"
       id="path369" />
  </g>
</svg>
