<svg id="Layer_1" data-name="Layer 1" xmlns="http://www.w3.org/2000/svg" viewBox="0 0 3839 862.10173"><path d="M762.3,653.6v-13.4a12.50453,12.50453,0,0,0-12.5-12.5H529.7v-77.5h239.6a103.62137,103.62137,0,0,1,103.6,103.6v100.5a103.62136,103.62136,0,0,1-103.6,103.6H613.5q-49.95,0-77.6-19.7-27.6-19.8-27.6-54.9V758a47.30389,47.30389,0,0,1,35.2-45.8l218.8-58.6ZM602.6,769.7v13.5H743.3a19.09818,19.09818,0,0,0,19.1-19.1v-35h0L602.6,769.7Z" transform="translate(0 0.00169)" style="fill:#fff"/><path d="M2042.4,653.6v-13.4a12.50453,12.50453,0,0,0-12.5-12.5h-220v-77.5h239.6a103.62152,103.62152,0,0,1,103.6001,103.6v100.5a103.62131,103.62131,0,0,1-103.6001,103.6H1893.7q-49.95007,0-77.6-19.7-27.6-19.8-27.6-54.9V758A47.30393,47.30393,0,0,1,1823.7,712.2L2042.4,653.6ZM1882.7,769.7v13.5H2023.3999a19.09819,19.09819,0,0,0,19.1-19.1v-35h0L1882.7,769.7Z" transform="translate(0 0.00169)" style="fill:#fff"/><path d="M1223.6,754.4v13.4a12.50453,12.50453,0,0,0,12.5,12.5h220v77.5H1216.5a103.62142,103.62142,0,0,1-103.6-103.6V653.7a103.62137,103.62137,0,0,1,103.6-103.6h155.80005q49.95007,0,77.6,19.7,27.6,19.8,27.6,54.9V650a47.30393,47.30393,0,0,1-35.19995,45.8L1223.6,754.4Zm159.70007-116.2V624.7H1242.6001a19.09819,19.09819,0,0,0-19.1,19.1v35h0l159.79993-40.6Z" transform="translate(0 0.00169)" style="fill:#fff"/><path d="M2872.1001,754.4v13.4a12.50461,12.50461,0,0,0,12.5,12.5h220v77.5H2865a103.62152,103.62152,0,0,1-103.6001-103.6V653.7A103.62131,103.62131,0,0,1,2865,550.1h155.8q49.95008,0,77.6001,19.7,27.59985,19.8,27.60009,54.9V650a47.30379,47.30379,0,0,1-35.19995,45.8L2872.1001,754.4Zm159.69995-116.2V624.7H2891.1001A19.09829,19.09829,0,0,0,2872,643.8v35h0l159.8-40.6Z" transform="translate(0 0.00169)" style="fill:#fff"/><path d="M1508.7,423h110.5V857.8H1508.7Z" transform="translate(0 0.00169)" style="fill:#fff"/><path d="M1647.9,423h110.5V857.8H1647.9Z" transform="translate(0 0.00169)" style="fill:#fff"/><path d="M2263.5,550.1l107,208.6,109.6001-208.6h113.19995L2446,828.9c-5.3,10.3-14.6001,18.4-28.1001,24.3-13.5,5.9-28.69995,8.9-45.6001,8.9-17,0-32.3-3-46.10009-8.9q-20.54992-8.85-28.5-24.3L2150.2998,550.2h113.2v-.1Z" transform="translate(0 0.00169)" style="fill:#fff"/><path d="M3725.80005,550.1l-107,208.6L3539.1001,550.1h-113.2l-79.69995,208.6-107-208.6H3126l147.3999,278.7q7.95008,15.45,28.5,24.3C3315.7,859,3331,862,3348,862c16.8999,0,32.1001-3,45.6001-8.9s22.8-14,28.1001-24.3l60.8-144.3,60.80005,144.3c5.3,10.3,14.6001,18.4,28.1001,24.3,13.3999,5.9,28.6001,8.9,45.6001,8.9s32.3999-3,46.1001-8.9q20.54993-8.85,28.5-24.3L3839,550.1Z" transform="translate(0 0.00169)" style="fill:#fff"/><rect x="2622.19995" y="550.10166" width="110.5" height="307.59998" style="fill:#fff"/><path d="M1100.2,627.7V550.2h-57.9V435.1H931.9V550.2h-42v77.5h42V817.1a40.67188,40.67188,0,0,0,40.7,40.7h111.3V780.3h-41.5V627.7Z" transform="translate(0 0.00169)" style="fill:#fff"/><path d="M362.2,593.7H145.6a35.03844,35.03844,0,0,1-35-35V540.5a35.03844,35.03844,0,0,1,35-35H446.5V418H132a132.1,132.1,0,0,0,.1,264.19995H348.6a35.03846,35.03846,0,0,1,35,35v18.2a35.03846,35.03846,0,0,1-35,35H7v87.5H362.2A132.1,132.1,0,1,0,362.2,593.7Z" transform="translate(0 0.00169)" style="fill:#fff"/><circle cx="2677.69995" cy="469.10169" r="54.99999" style="fill:#fff"/><path d="M1094,272.2H164.9C86.3,272.6,38.6,219.9,38.6,155S86.7,38.3,164.9,37.8H1094C1172.1,37.8,1220.2,90,1220.2,155S1172.2,272.2,1094,272.2Z" transform="translate(0 0.00169)" style="fill:#fff"/><path d="M233.5,183.8l-62.9-102H124.9V227.7h45.2v-102l63.3,102h45.2V81.8H233.5Zm357.7-53.1V116.3H567.3V96.6h-44v19.7H499.4v14.4h23.9v97h44v-97ZM303.8,227.8h44v-97h-44Zm0-116.4h44v-30h-44Zm768.9,12.8c-35.30005,0-64.1,24.3-64.1,54.7,0,30,28.8,54.7,64.1,54.7s64.1-24.3,64.1-54.7C1136.80005,148.4,1108.9,124.2,1072.7,124.2ZM1090.4,199c0,15.6-9.1,21.8-18.1,21.8-8.6,0-18.1-6.6-18.1-21.8V157.9c0-15.2,9.1-21.8,18.1-21.8,8.6,0,18.1,6.2,18.1,21.8V199Zm-139-63.3c-7-4.1-14.4-7.8-24.7-8.6-31.6-2.9-55.9,25.1-55.9,51,0,33.7,25.9,46.5,30,48.1,14.8,7,33.7,7,50.6-3.7v5.8h43.2V82.2H951.4C951.4,81.8,951.4,113.1,951.4,135.7Zm0,43.2v17.3c0,14.8-10.3,18.9-17.3,18.9s-17.3-4.1-17.3-18.9V161.6c0-15.2,10.3-18.9,17.3-18.9s17.3,3.7,17.3,18.9ZM450.6,126.2A51.561,51.561,0,0,0,415.7,141V130.7H372.1v97h43.6V164c0-8.6,9.1-17.7,21-17.7s20.1,9.4,20.1,17.7v63.7h43.6V175.1C500.3,136.5,467.1,125.8,450.6,126.2Zm356.9,0A51.561,51.561,0,0,0,772.6,141V130.7H729v97h43.5V164c0-8.6,9.1-17.7,21-17.7s20.1,9.4,20.1,17.7v63.7h43.6V175.1C856.8,136.5,823.5,125.8,807.5,126.2ZM715,179.7c0-30-29.2-55.1-65-55.1s-64.5,24.3-64.5,54.7c0,30,28.8,54.7,64.5,54.7,29.6,0,54.7-16.8,62.5-39.9H668.9v5.8c0,17.7-11.5,21.8-18.1,21.8s-18.5-4.1-18.5-21.8V179.8H715Zm-79.4-34.1c3.3-6.2,9.9-8.6,15.6-9.1a18.111,18.111,0,0,1,15.6,9.1c2.9,4.9,2.9,10.7,2.9,18.9H633.1C632.3,155.8,632.3,150.5,635.6,145.6Zm519.3-45.7c0-4.9-3.69995-7-10.69995-7h-9.9V118H1140.5V107.7h2.9l4.9,10.3h6.6l-5.4-11.1C1152.9,105.7,1154.9,103.2,1154.9,99.9Zm-11.5,3.7h-2.9V96.2h2.5c3.69995,0,5.4,1.2,5.4,3.7C1148.7,102.8,1146.7,103.6,1143.4,103.6Zm0-20.6a22.57588,22.57588,0,0,0-22.6,22.6A22.6,22.6,0,1,0,1166,105.6,22.576,22.576,0,0,0,1143.4,83Zm0,40.7a18.1,18.1,0,1,1,18.1-18.1A18.22478,18.22478,0,0,1,1143.4,123.7ZM1094.4,0h-930C66.2-.4,0,70.7,0,155.4S65.8,310,164.9,310h929.6c98.69995,0,164.9-69.9,164.9-154.6C1258.9,70.3,1192.7-.4,1094.4,0Zm-.4,272.2H164.9C86.3,272.6,38.6,219.9,38.6,155S86.7,38.3,164.9,37.8H1094C1172.1,37.8,1220.2,90,1220.2,155S1172.2,272.2,1094,272.2ZM1094.4,0h-930C66.2-.4,0,70.7,0,155.4S65.8,310,164.9,310h929.6c98.69995,0,164.9-69.9,164.9-154.6C1258.9,70.3,1192.7-.4,1094.4,0Zm-.4,272.2H164.9C86.3,272.6,38.6,219.9,38.6,155S86.7,38.3,164.9,37.8H1094C1172.1,37.8,1220.2,90,1220.2,155S1172.2,272.2,1094,272.2ZM1094.4,0h-930C66.2-.4,0,70.7,0,155.4S65.8,310,164.9,310h929.6c98.69995,0,164.9-69.9,164.9-154.6C1258.9,70.3,1192.7-.4,1094.4,0Zm-.4,272.2H164.9C86.3,272.6,38.6,219.9,38.6,155S86.7,38.3,164.9,37.8H1094C1172.1,37.8,1220.2,90,1220.2,155S1172.2,272.2,1094,272.2Z" transform="translate(0 0.00169)" style="fill:#e31e26"/></svg>