<?xml version="1.0" encoding="UTF-8" standalone="no"?>
<!-- Generator: Adobe Illustrator 14.0.0, SVG Export Plug-In . SVG Version: 6.00 Build 43363)  -->

<svg
   version="1.1"
   id="Layer_1"
   x="0px"
   y="0px"
   width="635.25"
   height="211.34122"
   viewBox="0 0 635.24999 211.34122"
   enable-background="new 0 0 642.143 80.572"
   xml:space="preserve"
   sodipodi:docname="test.svg"
   inkscape:version="1.1.2 (0a00cf5339, 2022-02-04, custom)"
   xmlns:inkscape="http://www.inkscape.org/namespaces/inkscape"
   xmlns:sodipodi="http://sodipodi.sourceforge.net/DTD/sodipodi-0.dtd"
   xmlns="http://www.w3.org/2000/svg"
   xmlns:svg="http://www.w3.org/2000/svg"><defs
   id="defs21" /><sodipodi:namedview
   id="namedview19"
   pagecolor="#ffffff"
   bordercolor="#666666"
   borderopacity="1.0"
   inkscape:pageshadow="2"
   inkscape:pageopacity="0.0"
   inkscape:pagecheckerboard="0"
   showgrid="false"
   inkscape:zoom="0.83236911"
   inkscape:cx="395.85803"
   inkscape:cy="-18.020851"
   inkscape:window-width="1366"
   inkscape:window-height="697"
   inkscape:window-x="-8"
   inkscape:window-y="-8"
   inkscape:window-maximized="1"
   inkscape:current-layer="Layer_1" />
<g
   id="g16"
   transform="translate(-4,133.19822)"
   style="fill:#f2f2f2">
	<path
   d="M 4,32.768 V 20.393 c 0,-11 5.499,-16.5 16.5,-16.5 h 74.25 v 16.5 H 20.5 v 12.375 h 57.75 c 11,0 16.5,5.5 16.5,16.5 v 12.375 c 0,11.001 -5.5,16.5 -16.5,16.5 H 4 v -16.5 H 78.25 V 49.268 H 20.5 C 9.499,49.268 4,43.769 4,32.768 Z"
   id="path2"
   style="fill:#f2f2f2" />
	<path
   d="m 103,61.643 v -41.25 c 0,-11 5.499,-16.5 16.5,-16.5 h 70.125 v 16.5 H 119.5 v 41.25 h 70.125 v 16.5 H 119.5 c -11.001,0 -16.5,-5.499 -16.5,-16.5 z"
   id="path4"
   style="fill:#f2f2f2" />
	<path
   d="m 197.875,49.268 v -16.5 h 28.875 v 16.5 z"
   id="path6"
   style="fill:#f2f2f2" />
	<path
   d="m 329.875,61.643 c 0,11.001 -5.501,16.5 -16.5,16.5 H 235 v -16.5 h 78.375 v -16.5 h -41.25 L 292.75,20.393 H 235 v -16.5 h 90.75 l -20.625,24.75 h 8.25 c 11,0 16.5,5.5 16.5,16.5 z"
   id="path8"
   style="fill:#f2f2f2" />
	<path
   d="m 433,61.643 c 0,11.001 -5.5,16.5 -16.5,16.5 h -61.875 c -11.001,0 -16.5,-5.499 -16.5,-16.5 v -41.25 c 0,-11 5.499,-16.5 16.5,-16.5 H 416.5 c 11,0 16.5,5.5 16.5,16.5 z m -16.5,0 v -41.25 h -61.875 v 41.25 z"
   id="path10"
   style="fill:#f2f2f2" />
	<path
   d="m 536.125,61.643 c 0,11.001 -5.5,16.5 -16.5,16.5 H 457.75 c -11,0 -16.5,-5.499 -16.5,-16.5 v -41.25 c 0,-11 5.5,-16.5 16.5,-16.5 h 61.875 c 11,0 16.5,5.5 16.5,16.5 z m -16.5,0 V 20.393 H 457.75 v 41.25 z"
   id="path12"
   style="fill:#f2f2f2" />
	<path
   d="m 639.25,61.643 c 0,11.001 -5.5,16.5 -16.5,16.5 h -61.875 c -11,0 -16.5,-5.499 -16.5,-16.5 v -41.25 c 0,-11 5.5,-16.5 16.5,-16.5 h 61.875 c 11,0 16.5,5.5 16.5,16.5 z m -16.5,0 v -41.25 h -61.875 v 41.25 z"
   id="path14"
   style="fill:#f2f2f2" />
</g>
<path
   d="m 390.42639,51.9428 c -2.03794,-6.470391 -8.14216,-11.095537 -15.16661,-11.095537 -7.02929,0 -13.13351,4.625146 -15.16665,11.095537 l -5.36229,15.908584 V 41.772295 h -28.11221 c -4.99612,0 -9.61648,2.033135 -13.13352,5.362281 v -5.362281 h -28.85418 c -5.36226,0 -10.17049,2.221031 -13.68753,5.916333 v -5.916333 h -27.37509 c -11.65442,0 -21.27087,9.616453 -21.27087,21.270859 0,5.550178 2.22102,10.729382 5.73324,14.424684 h -5.73324 v 24.783082 h 27.37509 c 7.76641,0 14.42469,-4.071091 18.3127,-10.358404 3.14606,6.104235 9.43338,10.358404 16.8288,10.358404 h 29.03726 v -5.362279 c 3.32915,3.329139 7.95429,5.362289 13.1335,5.362289 h 80.27041 z"
   style="fill:#ffffff;stroke-width:0.0481786"
   id="path176" /><path
   d="m 249.67253,81.909906 h -23.12091 v 7.212339 h 23.12091 c 4.43726,0 8.13739,-3.700114 8.13739,-8.137365 0,-4.437256 -3.70013,-8.13737 -8.13739,-8.13737 h -5.92115 c -5.36229,0 -9.80436,-4.43725 -9.80436,-9.804356 0,-5.367099 4.44207,-9.804349 9.80436,-9.804349 h 22.93303 v -7.212338 h -23.1161 a 17.016692,17.016692 0 0 0 0,34.033382 h 5.91634 c 0.55405,0 0.925,0.370974 0.925,0.925031 0,0.554052 -0.37095,0.925026 -0.73712,0.925026 z"
   style="fill:#034693;stroke-width:0.0481786"
   id="path178" /><path
   d="m 243.56831,62.301207 h 23.12091 v -7.395416 h -23.12091 c -4.43726,0 -8.13739,3.700114 -8.13739,8.137363 0,4.437257 3.70013,8.137371 8.13739,8.137371 h 5.91634 c 5.36226,0 9.80433,4.43725 9.80433,9.804355 0,5.3671 -4.43723,9.80435 -9.80433,9.80435 h -22.93303 v 7.212333 h 23.12091 a 17.016692,17.016692 0 1 0 0,-34.033377 h -5.92115 c -0.55405,0 -0.92503,-0.370974 -0.92503,-0.925032 0,-0.370973 0.37098,-0.741947 0.74196,-0.741947 z"
   style="fill:#034693;stroke-width:0.0481786"
   id="path180" /><path
   d="m 326.61381,54.905791 c -3.14608,0 -5.5502,2.404109 -5.5502,5.550171 v 23.120923 c 0,3.146069 2.40412,5.550178 5.5502,5.550178 h 14.98355 V 72.842692 h -11.46651 v 7.212339 h 4.25418 v 1.666979 h -4.25418 a 1.6614087,1.6614087 0 0 1 -1.667,-1.666979 V 63.78029 a 1.661401,1.661401 0 0 1 1.667,-1.666985 h 20.52891 v -7.207514 z"
   style="fill:#034693;stroke-width:0.0481786"
   id="path182" /><path
   d="M 372.11369,89.122245 H 388.9425 L 377.47599,55.088863 c -0.37099,-0.925026 -1.10811,-1.66698 -2.22106,-1.66698 -0.925,0 -1.85003,0.741954 -2.22101,1.479084 l -14.79567,43.095784 h 8.50835 l 5.17922,-15.349709 v 6.475203 z m 2.95818,-15.537605 2.40412,7.40024 h -4.99612 z"
   style="fill:#034693;stroke-width:0.0481786"
   id="path184" /><path
   d="m 386.35531,53.609779 c -1.47909,-4.808224 -5.91634,-8.508344 -11.28344,-8.508344 -5.3671,0 -9.80436,3.512225 -11.09553,8.325266 L 350.47668,93.005443 V 63.968186 h -20.34583 v 7.212339 h 13.31658 v 19.603881 h -16.65054 c -4.07109,0 -7.21233,-3.32914 -7.21233,-7.212333 V 60.451144 c 0,-4.071094 3.32915,-7.212339 7.21233,-7.212339 h 23.85805 v -7.212338 h -24.04597 c -7.95429,0 -14.42468,6.475203 -14.42468,14.424677 v 23.120929 c 0,7.954287 6.47524,14.424678 14.42468,14.424678 h 29.77922 l 14.98354,-43.466758 c 0.55405,-1.666979 2.03314,-2.775089 3.8832,-2.775089 1.85007,0 3.32916,1.10811 3.88321,2.775089 l 12.20844,36.249601 h -19.2377 v 7.212339 h 29.22513 z"
   style="fill:#034693;stroke-width:0.0481786"
   id="path186" /><path
   d="m 284.62613,90.784406 c -4.07109,0 -7.21233,-3.32914 -7.21233,-7.212333 V 60.451144 c 0,-4.071094 3.32912,-7.212339 7.21233,-7.212339 h 24.78309 v -7.212338 h -24.78309 c -7.9543,0 -14.42469,6.475203 -14.42469,14.424677 v 23.120929 c 0,7.954287 6.47521,14.424678 14.42469,14.424678 h 24.78309 v -7.212345 z"
   style="fill:#034693;stroke-width:0.0481786"
   id="path188" /><path
   d="m 286.29312,80.242927 h 17.94172 v -7.212345 h -25.15407 v 10.729387 c 0,3.146063 2.40411,5.550171 5.5502,5.550171 h 24.78306 v -7.217156 h -21.45395 c -0.92503,-0.183078 -1.66696,-0.925032 -1.66696,-1.850057 z"
   style="fill:#034693;stroke-width:0.0481786"
   id="path190" /><path
   d="m 304.23484,63.968186 h -17.94172 a 1.6614024,1.6614024 0 0 1 1.66696,-1.666979 h 21.27088 v -7.395416 h -24.59999 c -3.14609,0 -5.5502,2.404109 -5.5502,5.550171 v 10.729387 h 25.15407 z"
   style="fill:#034693;stroke-width:0.0481786"
   id="path192" /></svg>
