<svg id="Layer_1" data-name="Layer 1" xmlns="http://www.w3.org/2000/svg" viewBox="0 0 3839.11548 955.10004"><rect x="1181.01538" y="714.09998" width="163.80005" height="74.79999" style="fill:#fff"/><path d="M1786.6,682.4l139.69995-139.7H1390.59985v74.8H1745.7998l-139.8,139.7h245.4V880.3h-466.4v74.8h477.4a63.78185,63.78185,0,0,0,63.80005-63.8c-7.69995-55.7,31.80005-210.3-63.80005-208.8C1862.5,682.4,1786.6,682.4,1786.6,682.4Z" transform="translate(0.01538 0)" style="fill:#fff"/><path d="M1135.4,617.5V542.7C539.7,570.2,591,408.4,594.2,891.2A63.78176,63.78176,0,0,0,658,955h477.4V880.2H686.9V617.5Z" transform="translate(0.01538 0)" style="fill:#fff"/><path d="M1967.80005,606.5V891.2A63.78177,63.78177,0,0,0,2031.6001,955h461.69995a63.78185,63.78185,0,0,0,63.80005-63.8V606.5a63.78177,63.78177,0,0,0-63.80005-63.8H2031.6001C1996.4,542.9,1967.80005,571.4,1967.80005,606.5ZM2060.5,880.3V617.5h403.8999V880.2H2060.5Z" transform="translate(0.01538 0)" style="fill:#fff"/><path d="M2608.80005,606.5V891.2A63.78177,63.78177,0,0,0,2672.6001,955h461.69995a63.78185,63.78185,0,0,0,63.80005-63.8V606.5a63.78177,63.78177,0,0,0-63.80005-63.8H2672.6001A63.97445,63.97445,0,0,0,2608.80005,606.5Zm92.7,273.8V617.5h403.8999V880.2H2701.5Z" transform="translate(0.01538 0)" style="fill:#fff"/><path d="M3249.80005,606.5V891.2A63.78177,63.78177,0,0,0,3313.6001,955h461.69995a63.78185,63.78185,0,0,0,63.80005-63.8V606.5a63.78177,63.78177,0,0,0-63.80005-63.8H3313.6001A63.97445,63.97445,0,0,0,3249.80005,606.5Zm92.59985,273.8V617.5h403.8999V880.2H3342.3999Z" transform="translate(0.01538 0)" style="fill:#fff"/><path d="M478.7,714.1H93.9V617.5H542.4V542.7H65A63.84583,63.84583,0,0,0,1.2,606.5c5,54.4-25.7,183.1,63.8,182.4H449.7v91.4H1.3v74.8H478.7a63.84586,63.84586,0,0,0,63.8-63.8C538.1,837.3,566.8,713.5,478.7,714.1Z" transform="translate(0.01538 0)" style="fill:#fff"/><path d="M1407.4,293.3H1223.1v57.5h184.3c35.4,0,64.9-29.5,64.9-64.9s-29.5-64.9-64.9-64.9h-47.19995c-42.7,0-78.1-35.4-78.1-78.1s35.4-78.1,78.1-78.1H1543V7.4H1358.7a135.6,135.6,0,0,0,0,271.2h47.19995a6.98081,6.98081,0,0,1,7.4,7.4C1413.30005,290.3,1410.30005,293.3,1407.4,293.3Z" transform="translate(0.01538 0)" style="fill:#034693"/><path d="M1358.7,137.1H1543v-59H1358.7c-35.4,0-64.9,29.5-64.9,64.9s29.5,64.9,64.9,64.9h47.19995c42.7,0,78.1,35.4,78.1,78.1s-35.4,78.1-78.1,78.1h-182.8v57.5h184.3a135.6,135.6,0,0,0,0-271.2H1360.2a6.98081,6.98081,0,0,1-7.4-7.4A6.34483,6.34483,0,0,1,1358.7,137.1Z" transform="translate(0.01538 0)" style="fill:#034693"/><path d="M2020.5,78.1c-25.1,0-44.19995,19.2-44.19995,44.2V306.6c0,25.1,19.19995,44.2,44.19995,44.2h119.3V221h-91.3999v57.5h33.8999v13.3h-33.8999a13.23072,13.23072,0,0,1-13.3-13.3V148.9a13.23073,13.23073,0,0,1,13.3-13.3h163.60009V78.1Z" transform="translate(0.01538 0)" style="fill:#034693"/><path d="M2383.1001,350.8h134.1001L2425.80029,79.7c-2.8999-7.4-8.80005-13.3-17.7-13.3-7.3999,0-14.7,5.9-17.7,11.8l-117.8999,343.4h67.80005l41.3-122.4v51.6ZM2406.7,226.9l19.19995,59H2386Z" transform="translate(0.01538 0)" style="fill:#034693"/><path d="M2496.6001,67.8C2484.80005,29.5,2449.3999,0,2406.7,0s-78.1001,28-88.3999,66.3L2210.7,381.7V150.4H2048.5v57.5h106.1001V364.2h-132.7a57.56941,57.56941,0,0,1-57.5-57.5V122.4a57.56943,57.56943,0,0,1,57.5-57.5h190.2V7.4h-191.6a115.14465,115.14465,0,0,0-115,115V306.7a115.14465,115.14465,0,0,0,115,115h237.29993L2377.2,75.4c4.3999-13.3,16.19995-22.1,31-22.1a31.98042,31.98042,0,0,1,31,22.1l97.3,288.8H2383.2v57.5H2616Z" transform="translate(0.01538 0)" style="fill:#034693"/><path d="M1686,364a57.56942,57.56942,0,0,1-57.5-57.5V122.3A57.56943,57.56943,0,0,1,1686,64.8h197.5V7.4H1686a115.14465,115.14465,0,0,0-115,115V306.7a115.14465,115.14465,0,0,0,115,115h197.5V364.2L1686,364Z" transform="translate(0.01538 0)" style="fill:#034693"/><path d="M1699.30005,280h143V222.5h-200.5V308c0,25.1,19.19995,44.2,44.19995,44.2h197.5V294.7h-171C1705.2,293.3,1699.30005,287.4,1699.30005,280Z" transform="translate(0.01538 0)" style="fill:#034693"/><path d="M1842.2,150.4h-143A13.23074,13.23074,0,0,1,1712.5,137.1H1882v-59H1685.9c-25.1,0-44.19995,19.2-44.19995,44.2v85.5h200.5V150.4Z" transform="translate(0.01538 0)" style="fill:#034693"/></svg>