<svg id="Layer_1" data-name="Layer 1" xmlns="http://www.w3.org/2000/svg" viewBox="0 0 3839.011 994.40009"><path d="M796.3,994.4c-10.7,0-15.1-2.1-19-4.9l21.6-95.6c37.4-5.7,52.9-31.3,60.7-99.3,19.7-170.3,133.3-180.2,146.1-180.7,1.5-.1,2.9-.1,4.2-.1a66.28879,66.28879,0,0,1,12.5,1.2l-22.8,101.4c-37,5.1-45.3,36.8-60.4,128.7-22.7,137.4-119.3,148.5-138.4,149.3Q798.25,994.4,796.3,994.4Z" transform="translate(0.01371 0)" style="fill:#ff221d"/><path d="M2748.30005,994.4c-10.8,0-15.1001-2.1-19.1001-4.9l21.6001-95.6c37.3999-5.7,52.8999-31.3,60.7-99.3,19.7-170.3,133.3-180.2,146.1001-180.7,1.5-.1,2.8999-.1,4.19995-.1a66.28975,66.28975,0,0,1,12.5,1.2l-22.8,101.4c-37,5.1-45.3,36.8-60.3999,128.7-22.7,137.4-119.30005,148.5-138.3999,149.3C2751.1001,994.4,2749.6001,994.4,2748.30005,994.4Z" transform="translate(0.01371 0)" style="fill:#ff221d"/><path d="M638.9,994.4c-10.7,0-15.1-2.1-19-4.9l21.6-95.6c37.4-5.7,52.9-31.3,60.7-99.3,19.7-170.3,133.3-180.2,146.1-180.7,1.5-.1,2.9-.1,4.2-.1a66.28879,66.28879,0,0,1,12.5,1.2l-22.8,101.4c-37,5.1-45.3,36.8-60.4,128.7C759,982.4,662.4,993.5,643.3,994.3,641.7,994.4,640.2,994.4,638.9,994.4Z" transform="translate(0.01371 0)" style="fill:#ff221d"/><rect x="2311.51371" y="512.20001" width="97.69995" height="482.20001" style="fill:#ff221d"/><path d="M3302.7,613.8c-107.6001,0-197.8999,78.2-207.30005,185.8C3086,907.2,3165.59985,994.4,3273.2,994.4s212.6001-83.7,211.8999-194.8C3484.3999,691.5,3410.30005,613.8,3302.7,613.8Zm68.6001,256.6c-25.6001,25.7-62.3,41.1-98.19995,41.1-28.3999,0-53.7-10.6-71.3999-29.9-17.89991-19.5-26.30005-46-23.80005-74.8,5.5-62.8,59.10009-110.1,124.7-110.1,60.8999,0,99,39.6,99.3999,103.4C3402.30005,832.4,3385.5,856.1,3371.30005,870.4Z" transform="translate(0.01371 0)" style="fill:#ff221d"/><path d="M586.1,993.6H500.4l42.1-186.8q.3-3.75.3-7.5c-.4-63.8-38.5-103.4-99.4-103.4-65.6,0-119.2,47.3-124.7,110.1-2.5,28.7,5.9,55.3,23.8,74.8,17.7,19.3,43,29.9,71.4,29.9,25.1,0,50.6-7.5,72.4-20.8l-22,97.8-.5.1s-33,5.9-49.9,5.9c-107.6,0-187.2-87.2-177.8-194.8C245.4,691.2,335.7,613,443.4,613S625,690.8,625.7,798.8a172.06408,172.06408,0,0,1-2.4,29.8Z" transform="translate(0.01371 0)" style="fill:#ff221d"/><path d="M1532.5,706.8H1597.2l17.4-77H1550l26.5-117.6h-89.9l-79,350.3s-1.80005,8-2.4,10.6c-14.4,61.3,1.6,121.2,81.30005,121.2h11.4l43.30005-77h-37.7c-15.9,0-14.69995-16.1-10.9-32.8C1502,842.8,1532.5,706.8,1532.5,706.8Z" transform="translate(0.01371 0)" style="fill:#ff221d"/><path d="M1729.1,706.8h64.69995l17.4-77h-64.6l26.5-117.6h-89.9l-79,350.3s-1.80005,8-2.4,10.6c-14.4,61.3,1.6,121.2,81.30005,121.2h11.4l43.30005-77H1700.1001c-15.9,0-14.80005-16.1-10.9-32.8C1698.5,842.8,1729.1,706.8,1729.1,706.8Z" transform="translate(0.01371 0)" style="fill:#ff221d"/><path d="M207.5,993.9c-63.8-6.1-120.7-33.3-158.2-76.2C11.4,874.4-5.2,818.4,1.4,756,22.6,554.3,199,513.2,344,514.5l-18.6,83C127.9,600.8,91.7,690.1,83.9,764.7,73.7,862,148.8,908.8,226,912.1Z" transform="translate(0.01371 0)" style="fill:#ff221d"/><path d="M2686.80005,629.8,2604.6001,994.4h90c15.69995-69.8,55.3-245.6,82.1001-364.6h-89.90015Z" transform="translate(0.01371 0)" style="fill:#ff221d"/><path d="M3112.8999,589.2c10.1001-45,17.3999-77,17.3999-77h-89.8999L3023,589.2Z" transform="translate(0.01371 0)" style="fill:#ff221d"/><path d="M3013.8999,629.8,2931.7,994.4h90c15.69995-69.8,55.3-245.6,82.1001-364.6H3013.8999Z" transform="translate(0.01371 0)" style="fill:#ff221d"/><path d="M3563.30005,629.8,3481.1001,994.4h90c15.69995-69.8,55.3-245.6,82.1001-364.6h-89.90015Z" transform="translate(0.01371 0)" style="fill:#ff221d"/><path d="M3641.80005,629.8l-17.3999,77h101.2A19.376,19.376,0,0,1,3744.5,730.4l-59.5,264h90c12.1001-53.8,38.5-170.9,62.2-275.9a72.66287,72.66287,0,0,0-70.8999-88.6l-124.5-.1Z" transform="translate(0.01371 0)" style="fill:#ff221d"/><path d="M2746.3999,512.2h-69.40014a83.516,83.516,0,0,0-70.7,39l-279.8,443.2H2442l255.8-405.2h88c10.1001-45,17.3999-77,17.3999-77Z" transform="translate(0.01371 0)" style="fill:#ff221d"/><path d="M1913,891.8l268.5-131.4c-16.2-87.1-84.6001-146.6-178.69995-146.6-107.6,0-197.9,78.2-207.30005,185.8S1865.7,994.4,1973.30005,994.4a218.21838,218.21838,0,0,0,51.6-6.3c1.80005-.5,3.7-.9,5.5-1.4L2053.2,885.8c-23.30005,16.4-51.80005,25.7-79.9,25.7C1950.4,911.5,1929.5,904.6,1913,891.8Zm-34.9-85c5.5-62.8,59.1-110.1,124.69995-110.1,33.30005,0,59.70007,11.8,76.99987,33l-201.5,98.6A110.12425,110.12425,0,0,1,1878.1,806.8Z" transform="translate(0.01371 0)" style="fill:#ff221d"/><path d="M1130.7,891.8l268.5-131.4c-16.19995-87.1-84.6-146.6-178.69995-146.6-107.6,0-197.9,78.2-207.3,185.8-9.4,107.6,70.2,194.8,177.8,194.8a218.21853,218.21853,0,0,0,51.6-6.3c1.8-.5,3.69995-.9,5.5-1.4l22.8-100.9c-23.3,16.4-51.8,25.7-79.9,25.7C1168.1,911.5,1147.2,904.6,1130.7,891.8Zm-34.8999-85c5.5-62.8,59.1-110.1,124.69995-110.1,33.30005,0,59.69995,11.8,77,33L1096,828.3A102.80827,102.80827,0,0,1,1095.80005,806.8Z" transform="translate(0.01371 0)" style="fill:#ff221d"/><path d="M128.7,2.4H202l-3.1,15.2H143l-5.5,26.3h51.8l-3,14.4h-52l-6.1,29.4h56.3l-3.1,15.2H107.8Z" transform="translate(0.01371 0)" style="fill:#ff221d"/><path d="M217.9,2.4h40.4c31.4,0,31.4,21.3,31.4,30.7,0,.6-.4,31.3-36.9,31.3H222.7l-8,38.6H197ZM225.6,50h26.6c15.8,0,19.9-10.6,19.9-19.4,0-5.6-2.4-13.8-16.8-13.8H232.5Z" transform="translate(0.01371 0)" style="fill:#ff221d"/><path d="M348.7,0c26.5,0,43.9,18.2,43.9,43.9,0,42.2-26.3,61.4-53.2,61.4-28.7,0-44.6-19-44.6-43.9C294.7,19.1,322.5,0,348.7,0Zm-8.8,91C363.1,91,375,66.9,375,44.5c0-18.7-9.3-30.1-26.9-30.1-23.9,0-35.8,24.1-35.8,46.5C312.3,79.5,322.3,91,339.9,91Z" transform="translate(0.01371 0)" style="fill:#ff221d"/><path d="M477.6,35.9c0-14.1-8.3-21.5-22.7-21.5-23.9,0-35.8,24.1-35.8,46.5,0,18.7,10,30.1,27.6,30.1,18.2,0,24.1-16.2,26-23.1h17.6c-5.8,25.3-23.2,37.5-44.2,37.5-28.7,0-44.6-19-44.6-43.9C401.5,19.3,429.2.1,455.4.1c23.8,0,40.4,12.8,39.7,35.9H477.6Z" transform="translate(0.01371 0)" style="fill:#ff221d"/><path d="M518.9,2.4h17.6l-8.3,40h47l8.3-40h17.6L580.3,102.9H562.7l9.4-45.3h-47l-9.4,45.3H498Z" transform="translate(0.01371 0)" style="fill:#ff221d"/><path d="M650.8,2.4h82.8l-3.2,15.2h-32l-17.7,85.3H663l17.7-85.3H647.6Z" transform="translate(0.01371 0)" style="fill:#ff221d"/><path d="M732.6,2.4h17.9l9.4,79.4h.3l42-79.4h18.7L765.7,102.9h-20Z" transform="translate(0.01371 0)" style="fill:#ff221d"/><path d="M935.6,102.9H924.3V92.4H924c-7,8.9-18.3,13-26.7,13-28.7,0-44.6-19-44.6-43.9C852.7,19.3,880.4.1,906.6.1c23.7,0,41.8,11,42,34.5H931c-.7-13.7-10.1-20.1-24.9-20.1-23.9,0-35.8,24.1-35.8,46.5,0,18.7,10,30.1,27.6,30.1,17.3,0,26.8-11.5,30.6-27.6H900.9l2.8-13.4h43.2Z" transform="translate(0.01371 0)" style="fill:#ff221d"/><path d="M1007,2.4h18.6l17.5,100.5h-17.9l-4.1-26.6h-40l-15.5,26.6H946.7Zm6,17.7h-.3L988.5,62.9h30.7Z" transform="translate(0.01371 0)" style="fill:#ff221d"/><path d="M1073,2.4H1097.2l11,76.6H1108.5l43.6-76.6H1177l-20.69995,100.5h-16.9l17.5-80.5h-.3l-45.5,80.5h-13.80005L1084.6,22.4h-.30005l-15.3,80.5h-16.9Z" transform="translate(0.01371 0)" style="fill:#ff221d"/><path d="M1197.80005,2.4H1271l-3.1,15.2H1212l-5.5,26.3h51.80005l-3,14.4h-52l-6.1,29.4h56.3l-3.1,15.2h-73.6Z" transform="translate(0.01371 0)" style="fill:#ff221d"/><path d="M527.6,448.2l.9-4.2c-7.9,2.3-18.7,4.2-33,4.2H462.4A60.00978,60.00978,0,0,1,403.9,375l32-141.8h65.8L469,378.8a8.12243,8.12243,0,0,0,1.7,7.2,8.63875,8.63875,0,0,0,6.7,3.2h46.4a21.31273,21.31273,0,0,0,20.9-16.7l31.4-139.3h65.8l-48.5,215Z" transform="translate(0.01371 0)" style="fill:#ff221d"/><path d="M631.2,241.8,604.8,358.9l-8.8,39h0l-9.4,41.8H538.3l2.3-10.4s-12.3,10.4-45.1,10.4H462.4A51.44764,51.44764,0,0,1,412.2,377l30.5-135.1h48.3l-30.5,135.1a17.12754,17.12754,0,0,0,16.7,20.9h46.4a30.05356,30.05356,0,0,0,29.3-23.4l29.9-132.7,48.4,0m21.4-17.1h-83.4l-3,13.4-29.9,132.7a12.738,12.738,0,0,1-12.5,10h-46.4l30.5-135.1,4.7-20.9h-83.4l-3,13.4-30.5,135.1a68.45829,68.45829,0,0,0,66.8,83.6h33.1a152.86842,152.86842,0,0,0,21.7-1.5l-.3,1.5h83.4l3-13.4,9.4-41.8,8.8-39L648,245.6l4.6-20.9Z" transform="translate(0.01371 0)" style="fill:#ff221d"/><path d="M1113.1,448.2l48.5-215h65.8l-.9,4.1c7.9-2.3,18.69995-4.1,33-4.1h43.6l-13.30005,58.9h-58.5a21.31279,21.31279,0,0,0-20.9,16.7l-31.4,139.3-65.8999.1Z" transform="translate(0.01371 0)" style="fill:#ff221d"/><path d="M1292.30005,241.8l-9.4,41.8h-51.69995A30.05375,30.05375,0,0,0,1201.9,307l-4.3,19.1-1.1,4.8-20.69995,91.7L1172,439.6H1123.7l35.19995-156.1h0l9.4-41.8H1216.6l-2.30005,10.4s12.30005-10.4,45.1-10.4l32.90015.1m21.5-17.1H1259.5a150.30259,150.30259,0,0,0-21.6,1.5l.30005-1.5h-83.4l-3,13.4-9.4,41.8L1107.20007,436l-4.7,20.9h83.4l3-13.4,3.80005-17,20.69995-91.7,1.1-4.8,4.30005-19.1a12.73807,12.73807,0,0,1,12.5-10h65.3999l3-13.4,9.4-41.8,4.69995-21Z" transform="translate(0.01371 0)" style="fill:#ff221d"/><path d="M943.3,448.2A60.00976,60.00976,0,0,1,884.8,375l17.8-79a80.08971,80.08971,0,0,1,78.6-62.8h74.69995a60.00968,60.00968,0,0,1,58.5,73.2L1112.2,316a71.69212,71.69212,0,0,1-45.80005,52h34.1l-3.9,17.5a80.08971,80.08971,0,0,1-78.6,62.8H943.3Zm6.5-69.4a8.12251,8.12251,0,0,0,1.7,7.2,8.63866,8.63866,0,0,0,6.7,3.2h56.6a18.62215,18.62215,0,0,0,18.3-14.7l.6-2.5h-82.4Zm86.1-65.6a13.7089,13.7089,0,0,0,13.5-10.8,8.24936,8.24936,0,0,0-1.6-7.1,8.34738,8.34738,0,0,0-6.6-3.1h-54.7a21.31274,21.31274,0,0,0-20.9,16.7l-1,4.3Z" transform="translate(0.01371 0)" style="fill:#ff221d"/><path d="M1055.80005,241.8A51.44755,51.44755,0,0,1,1106,304.5l-2.19995,9.6a63.45039,63.45039,0,0,1-61.9,49.5H944.4l-3,13.4a17.12753,17.12753,0,0,0,16.7,20.9h56.6a27.39791,27.39791,0,0,0,26.7-21.3h48.30005l-1.6,7a71.99175,71.99175,0,0,1-70.2,56.1h-74.7a51.44762,51.44762,0,0,1-50.2-62.7l17.8-79a71.99173,71.99173,0,0,1,70.2-56.1l74.8-.1M954,321.8h82a22.46968,22.46968,0,0,0,21.9-17.5,16.97166,16.97166,0,0,0-16.5-20.7H986.7A29.85919,29.85919,0,0,0,957.5,307L954,321.8m101.80005-97.1H981.1a88.55385,88.55385,0,0,0-86.9,69.5l-17.8,79a68.4583,68.4583,0,0,0,66.8,83.6h74.7a88.55391,88.55391,0,0,0,86.9-69.5l1.6-7,4.7-20.9h-14.4A80.53908,80.53908,0,0,0,1120.5,317.9l2.19995-9.6a68.45856,68.45856,0,0,0-66.8999-83.6ZM977.3,304.6a12.75494,12.75494,0,0,1,9.2-3.9h54.4a5.25224,5.25224,0,0,1-5.1,3.9Zm-19.1,76.1h0Z" transform="translate(0.01371 0)" style="fill:#ff221d"/><path d="M619.4,469.3l53.2-236.1h65.8l-.9,4.2c7.9-2.3,18.7-4.2,33-4.2H811a60.00976,60.00976,0,0,1,58.5,73.2L854,375.2A80.08972,80.08972,0,0,1,775.4,438H728.1c-16.4,0-27.4-2.5-34.7-5.4l-8.3,36.7-65.7,0ZM742.3,292.2a21.31275,21.31275,0,0,0-20.9,16.7l-13.5,59.7a8.12252,8.12252,0,0,0,1.7,7.2,8.63863,8.63863,0,0,0,6.7,3.2h53.9a21.31274,21.31274,0,0,0,20.9-16.7l13.5-59.7a8.12253,8.12253,0,0,0-1.7-7.2,8.63863,8.63863,0,0,0-6.7-3.2Z" transform="translate(0.01371 0)" style="fill:#ff221d"/><path d="M811,241.8a51.44761,51.44761,0,0,1,50.2,62.7l-15.5,68.8a71.99172,71.99172,0,0,1-70.2,56.1H728.2c-32.9,0-40.4-10.4-40.4-10.4l-3.3,14.4-1.4,6.2h0l-4.8,21.1H630.1l4.8-21.1h0l7.3-32.3,27.9-123.7h0l7-31.2,2.4-10.6h48.3l-2.3,10.4s12.3-10.4,45.1-10.4h21l19.4,0M710.7,317.3h0l-11.2,49.5a17.12752,17.12752,0,0,0,16.7,20.9h53.9a30.05356,30.05356,0,0,0,29.3-23.4l13.5-59.7a17.12752,17.12752,0,0,0-16.7-20.9H742.3A30.05358,30.05358,0,0,0,713,307.1l-2.3,10.2M811,224.7H770.5a152.86806,152.86806,0,0,0-21.7,1.5l.3-1.5h-83.4l-3,13.4-2.4,10.6-7,31.2-27.9,123.7-7.3,32.3-3.9,17.4h0l-.8,3.7-4.7,20.9h83.30005l3-13.4,4.7-20.9a120.30253,120.30253,0,0,0,28.4,3h47.3a88.55386,88.55386,0,0,0,86.9-69.5l15.5-68.8A68.45827,68.45827,0,0,0,811,224.7ZM727.4,321l2.3-10.3a12.738,12.738,0,0,1,12.5-10h53.9l-13.5,59.7a12.738,12.738,0,0,1-12.5,10H716.2L727.4,321Z" transform="translate(0.01371 0)" style="fill:#ff221d"/><path d="M162.4,448.2A60.00975,60.00975,0,0,1,103.9,375l1.5-6.7,6.9-.4h58.9l-2.4,10.9a8.12248,8.12248,0,0,0,1.7,7.2,8.63875,8.63875,0,0,0,6.7,3.2H287.7a21.31266,21.31266,0,0,0,20.9-16.7l5.1-22.7a12.87427,12.87427,0,0,0-2.6-11.2,13.07846,13.07846,0,0,0-10.4-5H193.6a64.234,64.234,0,0,1-62.7-78.4l5-22.3a80.08973,80.08973,0,0,1,78.6-62.8h130A60.013,60.013,0,0,1,403,243.4l-1.5,6.7-6.9.3H336.1l2.4-10.5a8.33465,8.33465,0,0,0-1.6-7.6,8.79214,8.79214,0,0,0-6.7-3.2H219.7a21.31267,21.31267,0,0,0-20.9,16.7l-2.9,12.7a13.3161,13.3161,0,0,0,13,16.2H330.6a52.299,52.299,0,0,1,51,63.9l-10.6,47a80.15834,80.15834,0,0,1-78.5,62.7l-130.1-.1Z" transform="translate(0.01371 0)" style="fill:#ff221d"/><path d="M344.5,178.6a51.36652,51.36652,0,0,1,50.1,62.8l-.1.3H346.8l.1-.4a17.12754,17.12754,0,0,0-16.7-20.9H219.7a30.05362,30.05362,0,0,0-29.3,23.4l-2.9,12.7a21.85547,21.85547,0,0,0,21.3,26.7H330.5a43.69512,43.69512,0,0,1,42.6,53.5l-10.7,46.9a71.98629,71.98629,0,0,1-70.2,56H162.4a51.44762,51.44762,0,0,1-50.2-62.7l.1-.4h48.3l-.1.4a17.12753,17.12753,0,0,0,16.7,20.9H287.7A30.05358,30.05358,0,0,0,317,374.4l5.1-22.7A21.85546,21.85546,0,0,0,300.8,325H193.6a55.66872,55.66872,0,0,1-54.3-68l5-22.3a71.99169,71.99169,0,0,1,70.2-56.1h130m0-17.1h-130A88.55382,88.55382,0,0,0,127.6,231l-5,22.3a72.81234,72.81234,0,0,0,71.1,88.8H300.8a4.48909,4.48909,0,0,1,3.7,1.8,4.63156,4.63156,0,0,1,.9,4l-5.1,22.7a12.738,12.738,0,0,1-12.5,10H177.2l.1-.4,4.7-20.9H98.6l-3,13.4-.1.4a68.45831,68.45831,0,0,0,66.8,83.6H292.4a88.6446,88.6446,0,0,0,86.9-69.3L390,340.5a60.90668,60.90668,0,0,0-59.4-74.4H208.9a4.489,4.489,0,0,1-3.7-1.8,4.63154,4.63154,0,0,1-.9-4l2.9-12.7a12.738,12.738,0,0,1,12.5-10H330.2l-.1.4-4.7,20.9h82.8l3-13.3.1-.3a68.49125,68.49125,0,0,0-66.8-83.8Z" transform="translate(0.01371 0)" style="fill:#ff221d"/><path d="M504.2,406l.9-4.2c-7.9,2.3-18.7,4.2-33,4.2H439a60.00976,60.00976,0,0,1-58.5-73.2l32-141.8h65.8L445.5,336.6a8.12243,8.12243,0,0,0,1.7,7.2,8.63875,8.63875,0,0,0,6.7,3.2h46.4a21.31267,21.31267,0,0,0,20.9-16.7L552.7,191h65.8L570,406Z" transform="translate(0.01371 0)" style="fill:#fdeb05"/><path d="M607.8,199.5,581.4,316.6l-8.8,39h0l-9.4,41.8H514.9l2.3-10.4s-12.3,10.4-45.1,10.4h-33.1a51.44764,51.44764,0,0,1-50.2-62.7l30.5-135.1h48.3l-30.5,135.1a17.12755,17.12755,0,0,0,16.7,20.9h46.4a30.05365,30.05365,0,0,0,29.3-23.4l29.9-132.7,48.4,0m21.4-17.1H545.8l-3,13.4L512.9,328.5a12.738,12.738,0,0,1-12.5,10H454l30.5-135.1,4.7-20.9H405.8l-3,13.4L372.3,331a68.45831,68.45831,0,0,0,66.8,83.6h33.1a152.86975,152.86975,0,0,0,21.7-1.5l-.3,1.5H577l3-13.4,9.4-41.8,8.8-39,26.4-117.1,4.6-20.9Z" transform="translate(0.01371 0)" style="fill:#ff221d"/><path d="M1089.7,406l48.5-215H1204l-.9,4.1c7.9-2.3,18.69995-4.1,33-4.1h43.6l-13.30005,58.9h-58.5a21.31279,21.31279,0,0,0-20.9,16.7L1155.5,406Z" transform="translate(0.01371 0)" style="fill:#fdeb05"/><path d="M1268.9,199.6l-9.4,41.8h-51.69995A30.05374,30.05374,0,0,0,1178.5,264.8L1174.2,283.9l-1.1,4.8-20.7,91.7-3.8,17h-48.30005l35.2-156.1h0l9.4-41.8H1193.2l-2.30005,10.4s12.30005-10.4,45.1-10.4l32.90014.1m21.5-17.2H1236a152.86864,152.86864,0,0,0-21.69995,1.5l.30005-1.5h-83.30005l-3,13.4-9.4,41.8-35.19995,156.1-4.7,20.9h83.4l3-13.4,3.80005-17,20.69995-91.7,1.1-4.8,4.30005-19.1a12.73806,12.73806,0,0,1,12.5-10h65.3999l3-13.4,9.4-41.8,4.79992-21Z" transform="translate(0.01371 0)" style="fill:#ff221d"/><path d="M919.9,406a60.00978,60.00978,0,0,1-58.5-73.2l17.8-79A80.08973,80.08973,0,0,1,957.8,191h74.7a60.00971,60.00971,0,0,1,58.6,73.2l-2.2,9.6a71.69213,71.69213,0,0,1-45.8,52h34.1l-3.9,17.4A80.08972,80.08972,0,0,1,994.7,406L919.9,406Zm6.5-69.4a8.19327,8.19327,0,0,0,1.7,7.2,8.63863,8.63863,0,0,0,6.7,3.2h56.6a18.6221,18.6221,0,0,0,18.3-14.7l.6-2.5H927.9Zm86.1-65.6a13.7089,13.7089,0,0,0,13.5-10.8,8.28678,8.28678,0,0,0-8.1-10.2H963.2a21.31273,21.31273,0,0,0-20.9,16.7l-1,4.3Z" transform="translate(0.01371 0)" style="fill:#fdeb05"/><path d="M1032.4,199.6a51.44756,51.44756,0,0,1,50.2,62.7l-2.2,9.6a63.45038,63.45038,0,0,1-61.9,49.5H921l-3,13.4a17.12752,17.12752,0,0,0,16.7,20.9h56.6a27.39786,27.39786,0,0,0,26.7-21.3h48.30005l-1.6,7a71.99173,71.99173,0,0,1-70.2,56.1h-74.6a51.44763,51.44763,0,0,1-50.2-62.7l17.8-79a71.99173,71.99173,0,0,1,70.2-56.1l74.7-.1M930.6,279.5h82a22.46969,22.46969,0,0,0,21.9-17.5,16.97165,16.97165,0,0,0-16.5-20.7H963.3a29.85917,29.85917,0,0,0-29.2,23.4l-3.5,14.8m101.8-97.1H957.7a88.55385,88.55385,0,0,0-86.9,69.5l-17.8,79a68.4583,68.4583,0,0,0,66.8,83.6h74.7a88.5539,88.5539,0,0,0,86.9-69.5l1.6-7L1087.7,317.1h-14.4A80.53926,80.53926,0,0,0,1097.1,275.6l2.19995-9.6A68.45855,68.45855,0,0,0,1032.4,182.4Zm-78.5,80a12.755,12.755,0,0,1,9.2-3.9h54.4a5.25228,5.25228,0,0,1-5.1,3.9Zm-19.1,76.1h0Z" transform="translate(0.01371 0)" style="fill:#ff221d"/><path d="M596,427l53.2-236H715l-.9,4.2c7.9-2.3,18.7-4.2,33-4.2h40.6a60.00976,60.00976,0,0,1,58.5,73.2l-15.5,68.8a80.00767,80.00767,0,0,1-78.6,62.8H704.8c-16.4,0-27.4-2.5-34.7-5.4l-8.3,36.7H596ZM718.9,249.9A21.31274,21.31274,0,0,0,698,266.6l-13.5,59.7a8.12251,8.12251,0,0,0,1.7,7.2,8.63866,8.63866,0,0,0,6.7,3.2h53.9a21.31273,21.31273,0,0,0,20.9-16.7l13.5-59.7a8.12249,8.12249,0,0,0-1.7-7.2,8.63862,8.63862,0,0,0-6.7-3.2l-53.9,0Z" transform="translate(0.01371 0)" style="fill:#fdeb05"/><path d="M787.6,199.5a51.44763,51.44763,0,0,1,50.2,62.7L822.3,331a71.99175,71.99175,0,0,1-70.2,56.1H704.8c-32.9,0-40.4-10.4-40.4-10.4l-3.3,14.4-1.4,6.2h0l-4.8,21.1h-48.2l4.8-21.1h0l7.3-32.3,27.9-123.7h0l7-31.2,2.4-10.6h48.3L702,210s12.3-10.4,45.1-10.4h21l19.5-.1M687.3,275h0l-11.2,49.5a17.12752,17.12752,0,0,0,16.7,20.9h53.9A30.05358,30.05358,0,0,0,776,322l13.5-59.7a17.12753,17.12753,0,0,0-16.7-20.9H718.9a30.05355,30.05355,0,0,0-29.3,23.4L687.3,275m100.3-92.6H747.1a152.86958,152.86958,0,0,0-21.7,1.5l.3-1.5h-83.4l-3,13.4-2.4,10.6-7,31.2L602,361.3l-7.3,32.3-3.8,17.1h0l-.9,4-4.7,20.9h83.4l3-13.4,4.7-20.9a120.30206,120.30206,0,0,0,28.4,3h47.3a88.55385,88.55385,0,0,0,86.9-69.5l15.5-68.8A68.45848,68.45848,0,0,0,787.6,182.4ZM692.9,328.2,704,278.7h0l2.3-10.3a12.738,12.738,0,0,1,12.5-10h53.9l-13.5,59.7a12.738,12.738,0,0,1-12.5,10l-53.8.1Z" transform="translate(0.01371 0)" style="fill:#ff221d"/><path d="M139,406a60.00977,60.00977,0,0,1-58.6-73.2l1.5-6.7,6.9-.4h59l-2.4,10.5a8.3347,8.3347,0,0,0,1.6,7.6,8.63871,8.63871,0,0,0,6.7,3.2H264.2a21.31266,21.31266,0,0,0,20.9-16.7l5.1-22.7a12.8743,12.8743,0,0,0-2.6-11.2,13.07849,13.07849,0,0,0-10.4-5h-107A64.234,64.234,0,0,1,107.5,213l5-22.3a80.08973,80.08973,0,0,1,78.6-62.8h130a60.013,60.013,0,0,1,58.5,73.3l-1.5,6.7-6.9.3H312.7l2.4-10.5a8.57505,8.57505,0,0,0-8.3-10.8H196.3a21.31267,21.31267,0,0,0-20.9,16.7l-2.9,12.7a13.31608,13.31608,0,0,0,13,16.2H307.2a52.299,52.299,0,0,1,51,63.9l-10.7,46.9a80.15834,80.15834,0,0,1-78.5,62.7L139,406Z" transform="translate(0.01371 0)" style="fill:#fdeb05"/><path d="M321.1,136.4a51.36652,51.36652,0,0,1,50.1,62.8l-.1.3H323.4l.1-.4a17.12755,17.12755,0,0,0-16.7-20.9H196.3A30.05361,30.05361,0,0,0,167,201.6l-2.9,12.7A21.85546,21.85546,0,0,0,185.4,241H307.1a43.69511,43.69511,0,0,1,42.6,53.5L339,341.4a71.98629,71.98629,0,0,1-70.2,56H139a51.44762,51.44762,0,0,1-50.2-62.7l.1-.4h48.3l-.1.4a17.12754,17.12754,0,0,0,16.7,20.9H264.3a30.05359,30.05359,0,0,0,29.3-23.4l5.1-22.7a21.85546,21.85546,0,0,0-21.3-26.7H170.2a55.66872,55.66872,0,0,1-54.3-68l5-22.3a71.99171,71.99171,0,0,1,70.2-56.1l130,0m0-17.1h-130a88.55384,88.55384,0,0,0-86.9,69.5l-5,22.3a72.81233,72.81233,0,0,0,71.1,88.8H277.4a4.48911,4.48911,0,0,1,3.7,1.8,4.63155,4.63155,0,0,1,.9,4l-5.1,22.7a12.738,12.738,0,0,1-12.5,10H153.8l.1-.5,4.7-20.9H75.2l-3,13.4-.1.4a68.45831,68.45831,0,0,0,66.8,83.6H269a88.64459,88.64459,0,0,0,86.9-69.3l10.7-46.9a60.90668,60.90668,0,0,0-59.4-74.4H185.5a4.489,4.489,0,0,1-3.7-1.8,4.63152,4.63152,0,0,1-.9-4l2.9-12.7a12.738,12.738,0,0,1,12.5-10H306.8l-.1.4L302,216.6h82.8l3-13.3.1-.3a68.35884,68.35884,0,0,0-66.8-83.7Z" transform="translate(0.01371 0)" style="fill:#ff221d"/><rect x="357.31369" y="249.10001" width="31.60001" height="49.39999" style="fill:#ff221d"/><rect x="146.7137" y="295.39999" width="31.60001" height="49.39999" style="fill:#ff221d"/></svg>