<svg id="Layer_1" data-name="Layer 1" xmlns="http://www.w3.org/2000/svg" viewBox="0 0 3839 1274.5"><path d="M3489.7,230.3C3447.3999,96,3320.7,0,3174.8999,0c-145.8999,0-272.6001,96-314.8,230.3L2748.7998,560.5V19.2h-583.5c-103.69995,0-199.6,42.2-272.6,111.3V19.2h-598.9c-111.3,0-211.1,46.1-284.1,122.8V19.2H441.5C199.6,19.2,0,218.8,0,460.7,0,575.9,46.1,683.4,119,760.1H0v514.4H568.2c161.2,0,299.4-84.5,380.1-215,65.3,126.69995,195.80005,215,349.30005,215h602.69995V1163.2c69.1,69.1,165.1001,111.30005,272.6001,111.30005H3839Z" transform="translate(0 0)" style="fill:#fff"/><path d="M568.2,852.3H88.3V1002H568.2c92.1,0,168.9-76.8,168.9-168.9s-76.8-168.9-168.9-168.9H445.3c-111.3,0-203.5-92.1-203.5-203.5S334,257.2,445.3,257.2h476V107.5H441.5a353.2,353.2,0,0,0,0,706.4H564.3c11.5,0,19.2,7.7,19.2,19.2C583.5,844.6,575.8,852.3,568.2,852.3Z" transform="translate(0 0)" style="fill:#034693"/><path d="M441.5,445.3H921.4V291.8H441.5c-92.1,0-168.9,76.8-168.9,168.9s76.8,168.9,168.9,168.9H564.3c111.3,0,203.5,92.1,203.5,203.5s-92.1,203.5-203.5,203.5H88.3v149.69995h479.9A353.2,353.2,0,1,0,568.2,479.9H445.3c-11.5,0-19.2-7.7-19.2-19.2C426.1,453,433.8,445.3,441.5,445.3Z" transform="translate(0 0)" style="fill:#034693"/><path d="M2165.2,291.8c-65.30005,0-115.2,49.9-115.2,115.2V886.9c0,65.3,49.8999,115.2,115.2,115.2h311V664.1h-238V813.8h88.3v34.6h-88.3a34.48435,34.48435,0,0,1-34.6001-34.6V476A34.48419,34.48419,0,0,1,2238.2,441.4h426.1001V291.8Z" transform="translate(0 0)" style="fill:#034693"/><path d="M3109.6001,1002h349.3l-238-706.4c-7.69995-19.2-23-34.6-46.1001-34.6-19.19995,0-38.3999,15.4-46.1001,30.7l-307.1001,894.5H2998.2l107.5-318.6V1002ZM3171,679.5l49.8999,153.6H3117.2Z" transform="translate(0 0)" style="fill:#034693"/><path d="M3405.2,264.9C3374.5,165.1,3282.3999,88.3,3171,88.3s-203.5,72.9-230.3,172.8l-280.2,821.5V479.9H2238.2V629.6h276.3999v406.9H2169c-84.5,0-149.69995-69.1-149.69995-149.7V406.9c0-84.5,69.1001-149.7,149.69995-149.7h495.2V107.5h-499.1001c-165.1,0-299.4,134.4-299.4,299.4V886.8c0,165.1,134.4,299.4,299.4,299.4h618.09986l311-902.2c11.5-34.6,42.2-57.6,80.60009-57.6,38.39991,0,69.1001,23,80.6001,57.6l253.3999,752.4h-399.3v149.7h606.59985Z" transform="translate(0 0)" style="fill:#034693"/><path d="M1293.7,1036.5C1209.2,1036.5,1144,967.4,1144,886.8V406.9c0-84.5,69.1-149.7,149.69995-149.7h514.4V107.5H1293.7c-165.1,0-299.4,134.4-299.4,299.4V886.8c0,165.1,134.4,299.4,299.4,299.4h514.4V1036.5Z" transform="translate(0 0)" style="fill:#034693"/><path d="M1328.30005,817.7h372.4V668h-522.1V890.7c0,65.3,49.9,115.2,115.19995,115.2h514.4V856.1H1362.90015C1343.7,852.3,1328.30005,836.9,1328.30005,817.7Z" transform="translate(0 0)" style="fill:#034693"/><path d="M1700.7,479.9h-372.4a34.48422,34.48422,0,0,1,34.6-34.6h441.5V291.8h-510.6c-65.3,0-115.19995,49.9-115.19995,115.2V629.7h522.1Z" transform="translate(0 0)" style="fill:#034693"/></svg>