<?xml version="1.0" encoding="UTF-8" standalone="no"?>
<svg
   version="1.0"
   width="1981"
   height="719.18018"
   viewBox="0 0 1981 719.18018"
   preserveAspectRatio="xMidYMid meet"
   id="svg56"
   sodipodi:docname="segastv.svg"
   inkscape:version="1.1.2 (0a00cf5339, 2022-02-04, custom)"
   xmlns:inkscape="http://www.inkscape.org/namespaces/inkscape"
   xmlns:sodipodi="http://sodipodi.sourceforge.net/DTD/sodipodi-0.dtd"
   xmlns="http://www.w3.org/2000/svg"
   xmlns:svg="http://www.w3.org/2000/svg">
  <defs
     id="defs60" />
  <sodipodi:namedview
     id="namedview58"
     pagecolor="#ffffff"
     bordercolor="#666666"
     borderopacity="1.0"
     inkscape:pageshadow="2"
     inkscape:pageopacity="0.0"
     inkscape:pagecheckerboard="0"
     showgrid="false"
     inkscape:zoom="0.38118868"
     inkscape:cx="494.50577"
     inkscape:cy="280.70089"
     inkscape:window-width="1920"
     inkscape:window-height="1017"
     inkscape:window-x="-8"
     inkscape:window-y="-8"
     inkscape:window-maximized="1"
     inkscape:current-layer="svg56" />
  <g
     fill="#ffffff"
     id="g42"
     transform="translate(-1,0.00133815)">
    <path
       d="m 227.1,718.4 c -19.8,-2.8 -34.7,-16 -39.7,-35.1 -1.7,-6.5 -1.8,-21.3 -0.3,-26.2 5.9,-18.8 18.2,-30.9 36.2,-35.7 6.3,-1.7 17.7,-1.8 24.9,-0.3 6.4,1.3 18.7,7 21.2,9.8 1.8,2 1.7,2.1 -2.9,7.5 l -4.7,5.6 -4.2,-2.9 c -16.8,-11.3 -38.3,-8.6 -48.5,6.3 -13.2,19.1 -6.9,46 12.8,54.9 8.7,4 25.7,2.7 34.9,-2.6 l 3.2,-1.9 v -9.9 -9.9 h -12 -12 v -6.5 -6.5 h 19.5 19.5 v 19.8 c 0,22.6 0.8,20.7 -10.3,26.7 -12.3,6.6 -24.3,8.8 -37.6,6.9 z"
       id="path2" />
    <path
       d="m 841.5,718.8 c -26.1,-3.4 -43.5,-23 -43.5,-49.1 0,-14.8 4.3,-25.2 14.4,-35.2 19.5,-19.5 52.1,-19.5 71.1,0 15.5,15.8 18.7,37.4 8.5,58 -8.7,17.9 -30,28.9 -50.5,26.3 z m 20.2,-16.9 c 25.9,-11 26,-52.8 0.2,-64.4 -19.6,-8.8 -40.2,0.6 -46.4,21.3 -5.9,19.4 5.9,41.2 24.5,45.3 5.4,1.2 16.3,0.1 21.7,-2.2 z"
       id="path4" />
    <path
       d="M 999.1,718.4 C 974.3,714.9 958,695.6 958,670 c 0,-14.5 4.6,-25.8 14.6,-35.7 11.9,-12 29.7,-16.9 47.6,-13.2 6.4,1.3 18.7,7 21.2,9.8 1.8,2 1.7,2.1 -2.9,7.5 l -4.7,5.6 -4.2,-2.9 c -7,-4.8 -13.2,-6.6 -22.6,-6.6 -7.3,0 -9.3,0.4 -14.2,2.8 -11.2,5.5 -18.8,18.5 -18.8,32.1 0,14.7 7.7,27.4 19.9,33 8.7,3.9 25.7,2.6 34.9,-2.7 l 3.2,-1.9 v -9.9 -9.9 h -12.5 -12.5 v -6.5 -6.5 h 20 20 v 19.9 19.9 l -3.2,2.4 c -11.9,9.1 -29.2,13.4 -44.7,11.2 z"
       id="path6" />
    <path
       d="m 30.3,718 c -2.8,-0.5 -7.6,-1.9 -10.7,-3 -6.2,-2.4 -17.9,-9.8 -17.4,-11.1 0.2,-0.5 2.1,-3.1 4.3,-5.8 l 3.9,-5 3.2,2.4 c 1.7,1.3 6,3.9 9.5,5.7 6,3 7,3.2 17,3.3 9.9,0 10.8,-0.2 14,-2.6 7,-5.3 6.9,-15 -0.1,-19.3 -4.6,-2.9 -7.7,-4 -18.5,-6.6 C 14.1,670.7 5,662.5 5,648.5 5,638.9 9.3,631 17.1,625.9 c 11.6,-7.4 28.3,-7.6 43.9,-0.6 4,1.8 10,5.9 10,6.8 0,0.4 -1.7,3.2 -3.7,6.1 l -3.8,5.4 -5.5,-3.4 c -17,-10.1 -35,-7.6 -37.6,5.3 -0.7,3.9 2.8,9.4 7.7,11.8 2,1 9.1,3.3 15.8,5.2 14.7,4.2 20.6,7.1 25.4,12.4 4.3,4.8 6.1,10.7 5.4,18.2 -0.9,10.4 -7.7,19.3 -17.6,23 -6.4,2.3 -19.1,3.2 -26.8,1.9 z"
       id="path8" />
    <path
       d="m 1462,718.4 c -10,-1.8 -21.9,-6.9 -27.8,-11.9 l -3.2,-2.7 4.6,-5.3 4.5,-5.4 4.8,3.4 c 8.8,6.3 13.5,7.9 24.6,7.9 8.1,0.1 10.6,-0.3 13.1,-1.8 6.6,-4 8.4,-12.1 3.9,-17.4 -2.4,-2.9 -8.6,-5.8 -17.5,-8.2 -10.6,-2.8 -12.8,-3.5 -17.9,-5.7 -11.8,-5.1 -16.1,-11.3 -16.1,-23 0.1,-15.2 9,-24.6 25.9,-27.5 5.6,-1 8.6,-0.9 14.8,0.1 7.3,1.2 19.3,6 23.7,9.3 1.8,1.4 1.8,1.7 -1.5,6.4 -1.9,2.6 -3.7,5.2 -4,5.7 -0.3,0.5 -3.1,-0.5 -6.1,-2.2 -11.1,-6.3 -22.6,-7.8 -30.3,-4.1 -9.6,4.6 -10,16.2 -0.7,20.9 2.1,1.1 9.6,3.6 16.6,5.6 13.8,3.8 18.5,5.9 23.6,10.2 4.8,4 7,9.5 7,17.8 0,16.8 -11.2,27 -30.8,27.9 -4.8,0.3 -9.8,0.3 -11.2,0 z"
       id="path10" />
    <path
       d="m 1640,718.1 c -7.4,-1.4 -15.9,-4.8 -22.1,-8.8 -3.2,-2.1 -6,-4.3 -6.3,-4.8 -0.2,-0.6 1.6,-3.4 4.1,-6.3 l 4.4,-5.1 4.8,3.4 c 8.8,6.4 13.5,7.9 24.6,7.9 11.3,0.1 14,-0.9 17.6,-6.7 2.5,-4 2,-9.9 -1.1,-13.2 -1.2,-1.3 -4.5,-3.2 -7.4,-4.3 -4.7,-1.8 -7.9,-2.8 -18.1,-5.4 -17.8,-4.6 -25.8,-12.9 -25.8,-26.7 0,-7.8 1.8,-12.4 6.7,-17.9 10.1,-11.2 31.6,-13.2 49.1,-4.6 11.5,5.6 11.4,5.4 6.9,11.6 -2.1,2.9 -3.9,5.4 -4,5.6 -0.1,0.2 -3.3,-1.2 -7,-3.2 -8.4,-4.2 -13.4,-5.6 -19.9,-5.6 -10.1,0.1 -16.5,5.3 -16.5,13.6 0,2.9 0.7,4.4 3.4,6.9 3.4,3.2 8.5,5.1 25.5,9.6 10.7,2.8 19.5,8.5 22.8,14.8 1.8,3.4 2.3,6.1 2.3,11.6 0,16.8 -11.5,27.1 -31.5,28 -4.4,0.2 -10,0 -12.5,-0.4 z"
       id="path12" />
    <path
       d="m 97,670 v -48 h 35 35 v 6.5 6.5 l -27.2,0.2 -27.3,0.3 -0.3,13.3 -0.3,13.2 h 24.6 24.5 v 7 7 h -24.5 -24.6 l 0.3,13.8 0.3,13.7 27.8,0.3 27.7,0.2 v 7 7 H 132.5 97 Z"
       id="path14" />
    <path
       d="m 292,716.5 c 0,-0.8 0.4,-2.3 1,-3.3 0.5,-0.9 4.5,-9.8 8.8,-19.7 4.3,-9.9 13.2,-30.3 19.8,-45.2 L 333.5,621 h 7.1 c 4.6,0 7.5,0.5 8.1,1.3 0.5,0.6 2.4,4.8 4.3,9.2 1.8,4.4 4.3,10.3 5.6,13 1.2,2.8 3.1,7 4.2,9.5 1.1,2.5 4.3,9.9 7.2,16.5 2.9,6.6 6.3,14.4 7.6,17.3 1.3,2.9 2.4,5.5 2.4,5.7 0,0.3 0.9,2.4 1.9,4.8 5.3,11.4 8.1,18.1 8.1,18.8 0,0.5 -3.5,0.9 -7.8,0.9 h -7.9 l -4.9,-11.7 -4.9,-11.8 -23.8,-0.3 -23.7,-0.2 -1,2.5 c -0.5,1.4 -1.8,4.5 -2.9,6.9 -1.1,2.4 -2.9,6.5 -3.9,9.2 l -2,4.9 -7.6,0.3 c -6.3,0.2 -7.6,0 -7.6,-1.3 z M 358,679 c 0,-0.6 -0.4,-1.8 -1,-2.8 -0.5,-0.9 -4.2,-9.1 -8,-18.2 -3.9,-9.1 -7.5,-16.9 -8,-17.4 -0.6,-0.6 -1.6,0.6 -2.6,3 -2,4.9 -4,9.5 -10.2,24 -1.7,3.8 -3.6,8.2 -4.1,9.7 L 323,680 h 17.5 c 11.2,0 17.5,-0.4 17.5,-1 z"
       id="path16" />
    <path
       d="m 481.4,714.3 c -0.9,-2.1 -3.6,-8.7 -6.1,-14.8 -2.5,-6 -5,-12.3 -5.8,-14 -4.6,-10.7 -6.7,-15.9 -9.5,-23 -1.8,-4.4 -4,-9.8 -5,-12 -2.8,-6.2 -11,-26.8 -11,-27.7 0,-0.4 3.7,-0.8 8.3,-0.8 h 8.3 l 6.1,15.8 c 19,48.9 22.8,58.2 23.6,57.9 0.5,-0.1 2.5,-4.3 4.4,-9.2 1.9,-5 3.8,-9.9 4.3,-11 0.7,-1.7 6.4,-16.2 17.9,-46 l 2.7,-7 8.2,-0.3 c 4.8,-0.2 8.2,0.1 8.2,0.7 0,0.5 -2.5,6.9 -5.6,14.2 -3.1,7.3 -6.9,16.7 -8.6,20.9 -1.6,4.1 -3.8,9.3 -4.8,11.5 -1,2.2 -3.7,8.7 -6,14.5 -2.3,5.8 -4.8,12.1 -5.7,14 -0.8,1.9 -1.9,4.4 -2.3,5.5 -0.4,1.1 -1.5,3.6 -2.3,5.5 -0.9,1.9 -2,4.8 -2.6,6.3 -1,2.6 -1.3,2.7 -8.1,2.7 h -7 z"
       id="path18" />
    <path
       d="m 556,670 v -48 h 8 8 v 48 48 h -8 -8 z"
       id="path20" />
    <path
       d="M 600,670.1 V 622 h 22.3 c 24,0 28.4,0.7 38.6,5.6 6.8,3.4 16.7,13.1 20,19.7 13.6,28 -0.7,60 -30.5,68.3 -4.3,1.2 -12,1.8 -28.1,2.1 l -22.3,0.6 z m 47.5,31.4 c 10.9,-3.8 17.8,-11.1 21,-22.1 4.8,-16.4 -2.5,-33.3 -17.5,-40.3 -5,-2.4 -6.8,-2.6 -20.7,-2.9 L 615,635.9 v 33.4 c 0,18.3 0.3,33.7 0.8,34.1 1.4,1.5 26.4,0 31.7,-1.9 z"
       id="path22" />
    <path
       d="m 709,670 v -48 h 35 35 v 6.5 6.5 l -27.2,0.2 -27.3,0.3 -0.3,13.3 -0.3,13.2 h 24.6 24.5 v 7 7 h -24.5 -24.6 l 0.3,13.8 0.3,13.7 27.8,0.3 27.7,0.2 v 7 7 H 744.5 709 Z"
       id="path24" />
    <path
       d="m 1068.5,705.8 c 2.9,-6.8 9.4,-21.7 14.5,-33.3 5,-11.5 12.1,-27.9 15.8,-36.3 l 6.6,-15.3 7.5,0.3 7.5,0.3 3.8,8.5 c 2,4.7 4.6,10.5 5.7,13 1.1,2.5 4.5,10.4 7.6,17.5 3.1,7.2 6.3,14.4 7,16 4.3,9.4 17.5,40.1 17.5,40.7 0,0.5 -3.5,0.8 -7.8,0.8 h -7.9 l -4.9,-11.7 -4.9,-11.8 h -23.9 -23.8 l -5,11.8 -5.1,11.7 h -7.7 -7.8 z m 61.1,-27.5 c -4.4,-11.6 -16.3,-38.2 -17,-38 -0.8,0.3 -17.6,37.9 -17.6,39.4 0,0.1 7.9,0.3 17.6,0.3 16.4,0 17.6,-0.1 17,-1.7 z"
       id="path26" />
    <path
       d="m 1181,670 v -48 h 8.8 8.7 l 14.4,22.5 c 7.9,12.4 14.9,22.5 15.6,22.5 0.7,0 1.5,-0.6 1.8,-1.3 0.3,-0.8 6.7,-10.9 14.2,-22.5 l 13.8,-21.2 h 8.3 8.4 v 48 48 h -7.5 -7.5 v -35 c 0,-19.2 -0.4,-35 -0.8,-35 -0.5,0 -7.5,9.9 -15.5,22 -8.1,12.1 -15.1,22 -15.6,22 -0.5,0 -7.5,-9.9 -15.5,-22 -8.1,-12.1 -15.1,-21.8 -15.6,-21.5 -0.6,0.4 -1,14.4 -1,35.1 V 718 h -7.5 -7.5 z"
       id="path28" />
    <path
       d="m 1302.7,717.3 c -0.4,-0.3 -0.7,-21.9 -0.7,-48 V 622 h 35.5 35.5 v 6.5 6.5 h -27.5 -27.5 v 13.5 13.5 h 24 24 v 7 7 h -24 -24 v 14 14 h 27.5 27.5 v 7 7 h -34.8 c -19.2,0 -35.2,-0.3 -35.5,-0.7 z"
       id="path30" />
    <path
       d="m 1551,698.9 v -19 l -4.7,-7.2 c -2.6,-4 -11.1,-17 -18.9,-28.9 L 1513.1,622 h 9.2 l 9.2,0.1 13,20.6 c 7.2,11.4 13.5,20.8 14.1,21 0.6,0.2 7.1,-9.1 14.5,-20.7 l 13.4,-21 h 8.8 c 6.8,0 8.6,0.3 8.1,1.3 -0.5,0.6 -9,13.7 -19.1,28.9 l -18.3,27.7 v 19 19.1 h -7.5 -7.5 z"
       id="path32" />
    <path
       d="m 1728,677 v -41 h -15.5 -15.5 v -7 -7 h 39 39 v 7 7 h -15.5 -15.5 v 41 41 h -8 -8 z"
       id="path34" />
    <path
       d="m 1794.7,717.3 c -0.4,-0.3 -0.7,-21.9 -0.7,-48 V 622 h 35.5 35.5 v 6.5 6.5 h -27.5 -27.5 v 13.5 13.5 h 24.5 24.5 v 7 7 h -24.5 -24.5 v 14 14 h 28 28.1 l -0.3,6.8 -0.3,6.7 -35.1,0.3 c -19.3,0.1 -35.3,-0.1 -35.7,-0.5 z"
       id="path36" />
    <path
       d="m 1887,670 v -48.1 l 9.1,0.3 9.1,0.3 7.4,11.5 c 4.1,6.3 10.6,16.5 14.5,22.7 4,6.2 7.5,11.1 7.8,10.8 0.4,-0.2 7.2,-10.5 15.1,-22.9 l 14.5,-22.6 h 8.8 8.7 v 48 48 h -8 -8 v -35 c 0,-19.2 -0.3,-35 -0.7,-35 -0.5,0.1 -7.5,10.2 -15.7,22.6 -8.2,12.4 -15.2,22.1 -15.6,21.7 -0.4,-0.4 -7.1,-10.3 -14.8,-22 -7.8,-11.6 -14.6,-21.4 -15.2,-21.8 -0.7,-0.4 -1,10.3 -1,34.4 V 718 h -8 -8 z"
       id="path38" />
    <path
       d="M 1,427.5 V 301 H 19.5 38 L 32,289.3 C 26.1,277.6 17.2,252.2 15.1,241 14.6,238 13.5,232.6 12.8,229 11,219.9 11.1,180.2 12.9,168.5 20.6,118.3 46.1,74.1 84.6,44 108.1,25.5 134.1,13.3 164,6.6 c 12.9,-3 23.3,-4.4 41.5,-5.6 20.1,-1.4 719.7,-1.3 734.1,0.1 27.7,2.6 50.4,13 68.9,31.4 15.9,15.8 25.4,33.7 30.4,57 l 1.7,8 28,0.3 28.1,0.2 0.6,-14.7 c 0.7,-17.1 2.8,-26.9 8.4,-38.1 9.3,-18.9 25.7,-33.2 46,-40.3 C 1164.9,0.3 1172,0 1281,0 h 102.5 l 28.5,37.2 c 74.6,97.3 86.2,112.3 87.3,112.6 0.7,0.1 6,-5.9 11.8,-13.5 C 1540,98.7 1597.3,24 1605.8,12.8 L 1615.5,0.1 1798.3,0 c 100.5,0 182.7,0.3 182.7,0.6 0,0.3 -1.9,2.9 -4.2,5.8 -2.4,2.9 -8.1,10.4 -12.8,16.6 -4.7,6.2 -8.9,11.8 -9.5,12.4 -0.5,0.6 -3.9,4.9 -7.5,9.6 -3.5,4.7 -8.7,11.4 -11.4,15 -2.8,3.6 -9.6,12.4 -15.1,19.6 -12.7,16.6 -13.5,17.7 -22.5,29.4 -4.1,5.4 -8.6,11.2 -10,13 -1.4,1.8 -8.1,10.6 -15,19.5 -6.9,9 -16.3,21.4 -21,27.5 -4.7,6.2 -8.9,11.8 -9.5,12.4 -0.5,0.6 -3.1,3.8 -5.6,7.1 -30.3,39.6 -39.8,51.9 -48.3,63 -5.5,7.2 -20.2,26.3 -32.6,42.5 -12.4,16.2 -27.3,35.6 -33,43 -5.7,7.4 -15.4,20 -21.4,28 -6.1,8 -11.5,15 -12.1,15.6 -0.5,0.6 -4.8,6.2 -9.5,12.4 -4.7,6.2 -11.2,14.7 -14.5,18.9 -3.3,4.3 -9.9,12.9 -14.7,19.2 -17.8,23.2 -64.2,83.7 -71.7,93.4 -4.3,5.5 -11.1,14.4 -15.2,19.7 l -7.4,9.8 H 1448.8 1341 v -15.5 c 0,-13.2 -0.3,-16.2 -2.1,-21 -2.9,-7.8 -11.4,-16.4 -19.4,-19.6 l -6,-2.4 H 1099 884.5 l -6.7,3.3 c -8.2,4 -14.8,11.1 -17.9,19 -1.8,4.6 -2.2,8.5 -2.7,21 L 856.7,554 H 730.9 605 l -0.2,-29.2 -0.3,-29.3 -31,-0.3 -31,-0.2 -5,4.6 c -2.7,2.5 -7.7,6.6 -11,9 -3.3,2.5 -6.7,5.1 -7.5,5.8 -0.9,0.7 -6.3,4.1 -12,7.6 -16.7,10.1 -33.3,17.2 -53,22.8 -16.5,4.6 -21.7,5.5 -45.6,8.2 -5.8,0.6 -80.4,1 -208.2,1 H 1 Z m 412.5,79.3 c 43.1,-7.4 74.1,-22.5 100,-48.7 l 8,-8.1 h 64.2 64.3 l 0.2,29.3 0.3,29.2 80.6,0.3 80.7,0.2 0.4,-16.2 c 0.3,-15.1 0.5,-16.7 3,-21.9 3.6,-7.9 8.9,-13.3 16.6,-17.1 l 6.7,-3.3 h 261 261 l 5.6,2.6 c 10.9,5.2 17.7,13.8 19.8,25.3 0.6,3.3 1.1,11.3 1.1,17.8 V 508 h 73.3 l 73.2,-0.1 27.7,-36.2 c 15.2,-19.9 47.3,-61.8 71.4,-93.2 24,-31.3 57,-74.3 73.2,-95.5 16.3,-21.2 32.9,-42.8 36.9,-48 4,-5.2 17.7,-23 30.3,-39.5 12.7,-16.5 27.5,-35.8 33,-43 25.6,-33.3 39.2,-51.1 47.5,-61.9 5,-6.5 11,-14.4 13.5,-17.6 14.1,-18.2 20,-25.9 20,-26.4 0,-0.3 -55.8,-0.6 -123.9,-0.6 h -124 l -25.8,33.6 c -23.2,30.2 -32.9,42.8 -62.2,81.1 -4.7,6.1 -17.4,22.6 -28.1,36.7 -19.2,25.1 -19.6,25.5 -23.2,25.5 -3.6,0.1 -3.8,-0.1 -25,-27.7 C 1463.1,180 1440.9,151.1 1425.5,131 1410.1,110.9 1389.2,83.6 1379,70.3 L 1360.5,46.1 1267.9,46 c -101.9,0 -98,-0.2 -108.1,6.2 -6.1,3.9 -10.5,8.8 -13.7,15.8 l -2.6,5.5 -0.5,34.5 -0.5,34.5 -73.1,0.3 -73.2,0.2 -0.5,-20.7 C 995.1,99.2 994.2,94.5 988.2,82 982.8,71 970.5,58.9 959,53.2 942.9,45.3 978.3,46 570.7,46 216,46 205.1,46.1 192.5,47.9 c -39.5,5.8 -68.9,20.3 -93.8,46 -20.5,21.3 -33.3,45.6 -39.8,76.2 -3.3,15 -3.3,41.8 0,56.9 9,42.1 31.6,75.8 65.6,98 7.8,5.1 25.3,14 27.4,14 0.6,0 1.1,1.8 1.1,4 v 4 H 99.5 46 v 80.3 c 0,44.2 0.3,80.7 0.7,81.1 0.4,0.4 81.1,0.5 179.3,0.3 154.8,-0.4 179.7,-0.6 187.5,-1.9 z"
       id="path40" />
  </g>
  <g
     fill="#ffe850"
     id="g50"
     transform="translate(-1,0.00133815)">
    <path
       d="M 83,427.5 V 383 l 155.8,-0.2 155.7,-0.3 4.7,-2.2 c 6.6,-3 13.5,-9.7 17.1,-16.8 2.8,-5.3 3.2,-6.9 3.2,-14.5 0,-7.2 -0.4,-9.3 -2.7,-14 -3.5,-7.1 -9.7,-13.3 -16.7,-16.8 l -5.6,-2.7 -99.5,-0.6 c -109.4,-0.6 -106.8,-0.5 -126.4,-7 -17.2,-5.7 -30.3,-13.6 -42.8,-25.7 -24.6,-23.8 -36.4,-58.2 -32.9,-95.7 2.2,-23.2 9.4,-42.4 22,-59.2 16,-21.3 38.5,-35.2 67.2,-41.5 l 10.4,-2.3 h 150.7 150.6 l 4.6,3.2 4.6,3.3 V 86.5 83 h 218.8 218.8 l 5.3,2.6 c 6.4,3.2 10.6,8.6 12.1,15.7 0.7,3.4 1,15.5 0.8,34.2 l -0.3,29 -91.7,0.3 L 775,165 V 318.5 472 H 731 687 V 318.5 165 l -238.7,0.2 -238.8,0.3 -5.5,2.6 c -13.8,6.6 -21.3,21.4 -17.5,34.5 2.8,9.7 8,16.1 16.5,20.6 l 4.5,2.3 101,0.5 c 91.9,0.5 101.9,0.8 110.5,2.4 52,9.9 87.2,41.3 99.5,88.6 3.6,13.9 4.5,38.4 2.1,53.2 -5.9,36 -25.3,64.6 -56.1,83 -15.4,9.2 -34.1,15.1 -57,17.7 -6,0.7 -62.3,1.1 -166.7,1.1 H 83 Z"
       id="path44" />
    <path
       d="m 1476.7,465.3 c -3,-3.8 -21.1,-27.3 -40.3,-52.3 -38.2,-49.9 -95,-124 -157.6,-205.5 C 1189.6,91.3 1188,89.2 1188,86.1 V 83 h 67.9 68 l 11.4,14.8 c 6.2,8.1 21.2,27.5 33.2,43.2 12,15.7 31.4,40.9 43,56 11.6,15.1 34.6,45.1 51,66.5 16.4,21.5 31.5,41.1 33.5,43.7 l 3.7,4.7 8.4,-11.1 c 4.6,-6 19,-24.8 31.9,-41.6 25.2,-32.8 110.3,-143.7 118,-153.7 2.5,-3.3 7.4,-9.7 10.9,-14.3 l 6.3,-8.2 h 67.9 67.9 v 3.4 c 0,2.8 -3.7,8.1 -24.2,34.9 -13.4,17.3 -36.4,47.3 -51.3,66.7 -14.8,19.4 -31.3,40.8 -36.5,47.5 -5.2,6.8 -20.1,26.1 -33,43 -12.9,16.9 -28.9,37.8 -35.5,46.4 -6.7,8.6 -27.8,36.1 -47,61.1 -19.2,25 -41.9,54.6 -50.4,65.8 l -15.6,20.2 h -17.7 -17.7 z"
       id="path46" />
    <path
       d="M 908,293.5 V 249 H 1093.5 1279 V 293.5 338 H 1093.5 908 Z"
       id="path48" />
  </g>
  <g
     fill="#000000"
     id="g54"
     transform="translate(-1,0.00133815)">
    <path
       d="M 43.7,511.4 C 43.3,511 43,473.2 43,427.3 V 344 h 53.5 c 35,0 53.5,-0.3 53.5,-1 0,-0.5 -0.5,-1 -1.1,-1 -2.1,0 -19.6,-8.9 -27.4,-14 -34,-22.2 -56.6,-55.9 -65.6,-98 -2,-9 -2.3,-13.5 -2.3,-31.5 0,-18 0.3,-22.5 2.3,-31.4 6.6,-30.7 19.3,-54.9 39.8,-76.2 24.9,-25.7 54.3,-40.2 93.8,-46 12.6,-1.8 23.6,-1.9 381.2,-1.9 411,0 375.2,-0.7 391.3,7.2 11.5,5.7 23.8,17.8 29.2,28.8 6,12.5 6.9,17.2 7.5,40.3 l 0.5,20.7 70.2,-0.2 70.1,-0.3 0.5,-34.5 0.5,-34.5 2.6,-5.5 c 3.2,-7 7.6,-11.9 13.7,-15.8 10.1,-6.4 5.9,-6.2 111.1,-6.2 l 95.6,0.1 18.5,24.2 c 10.2,13.3 31.1,40.6 46.5,60.7 15.4,20.1 37.6,49 49.3,64.3 11.8,15.2 21.6,27.7 22,27.6 0.4,0 9.5,-11.5 20.2,-25.5 10.7,-14.1 23.4,-30.6 28.1,-36.7 29.3,-38.3 39,-50.9 62.2,-81.1 L 1636.1,43 h 129.6 c 103.5,0 129.4,0.3 128.6,1.2 -7.2,9.5 -20.8,27.3 -24.3,31.8 -2.5,3.2 -8.5,11.1 -13.5,17.6 -8.3,10.8 -21.9,28.6 -47.5,61.9 -5.5,7.2 -20.3,26.5 -33,43 -12.6,16.5 -26.3,34.3 -30.3,39.5 -4,5.2 -20.6,26.8 -36.9,48 -16.2,21.2 -49.2,64.2 -73.2,95.5 -24.1,31.4 -56.2,73.3 -71.4,93.2 l -27.7,36.2 -76.2,0.1 H 1384 v -11.8 c 0,-6.5 -0.5,-14.5 -1.1,-17.8 -2.1,-11.5 -8.9,-20.1 -19.8,-25.3 l -5.6,-2.6 h -258 -258 l -6.7,3.3 c -7.7,3.8 -13,9.2 -16.6,17.1 -2.5,5.2 -2.7,6.8 -3,21.9 l -0.4,16.2 -83.7,-0.2 -83.6,-0.3 -0.3,-29.2 L 647,453 h -61.3 -61.2 l -8,8.1 c -21.1,21.3 -49.8,37.4 -79.1,44.4 -26.1,6.1 -12.9,5.8 -211.4,6.2 -99.9,0.2 -181.9,0.1 -182.3,-0.3 z m 360.8,-43.5 c 22.9,-2.6 41.6,-8.5 57,-17.7 38,-22.6 58.9,-61.6 57.2,-106.2 -2.1,-51.7 -34.1,-92.4 -85.2,-108.3 -19.8,-6.2 -17.6,-6.1 -128,-6.7 l -101,-0.5 -4.5,-2.3 c -12.3,-6.4 -18.9,-19 -17.7,-33.4 1.1,-12.6 7.7,-22.5 18.7,-27.7 l 5.5,-2.6 241.8,-0.3 L 690,162 V 315.5 469 h 41 41 V 315.5 162 l 91.8,-0.2 91.7,-0.3 0.3,-26 C 956,119 955.7,107.6 955,104.3 953.5,97.2 949.3,91.8 942.9,88.6 L 937.6,86 H 721.8 506 v 8.8 8.7 l -1.9,-4.1 c -2.3,-5 -9.3,-11.1 -14.2,-12.4 -2.5,-0.7 -53.5,-0.9 -149.6,-0.7 l -145.8,0.3 -9.9,2.2 c -28.6,6.6 -50.8,20.4 -66.7,41.5 -25.3,33.6 -29.6,81.1 -10.6,119.5 13,26.3 35.4,45.5 64.3,55.1 19.6,6.5 17,6.4 126.4,7 l 99.5,0.6 5.6,2.7 c 7,3.5 13.2,9.7 16.7,16.8 2.5,5 2.7,6.5 2.7,17 0,11 -0.1,11.8 -3.2,17.5 -3.6,7.1 -10.5,13.8 -17.1,16.8 l -4.7,2.2 -155.7,0.3 L 86,386 v 41.5 41.5 h 154.8 c 102.3,0 157.7,-0.4 163.7,-1.1 z m 1125.6,-19.1 c 8.5,-11.2 31.2,-40.8 50.4,-65.8 19.2,-25 40.3,-52.5 47,-61.1 6.6,-8.6 22.6,-29.5 35.5,-46.4 12.9,-16.9 27.8,-36.2 33,-43 5.2,-6.7 21.7,-28.1 36.5,-47.5 14.9,-19.4 37.9,-49.4 51.3,-66.8 l 24.4,-31.7 -64.9,-0.3 -64.8,-0.2 -2.9,3.5 c -1.6,2 -6.7,8.7 -11.4,14.8 -7.6,9.9 -45.3,59 -121.2,157.9 -12.9,16.8 -27.8,36.3 -33,43.2 -5.2,6.9 -9.8,12.5 -10.2,12.6 -0.8,0 -2.3,-2 -46.8,-60 -18.3,-23.9 -40.6,-52.9 -49.5,-64.5 -8.9,-11.5 -26,-33.8 -38,-49.5 -12,-15.7 -27,-35.1 -33.2,-43.2 L 1320.9,86 h -65 -65 l 9.4,12.3 c 9.1,11.8 47.4,61.8 83.7,109.1 9.6,12.5 26,33.9 36.4,47.4 41.9,54.6 86,112.1 119,155.2 19.2,25 37.3,48.5 40.3,52.3 l 5.4,6.7 h 14.7 14.7 z M 1276,293.5 V 252 H 1093.5 911 v 41.5 41.5 h 182.5 182.5 z"
       id="path52" />
  </g>
</svg>
