<?xml version="1.0" encoding="UTF-8" standalone="no"?>
<!-- Created with Inkscape (http://www.inkscape.org/) -->

<svg
   version="1.1"
   id="svg824"
   width="703.96271"
   height="112.86366"
   viewBox="0 0 703.96271 112.86366"
   sodipodi:docname="setup.svg"
   inkscape:version="1.1.2 (0a00cf5339, 2022-02-04, custom)"
   xmlns:inkscape="http://www.inkscape.org/namespaces/inkscape"
   xmlns:sodipodi="http://sodipodi.sourceforge.net/DTD/sodipodi-0.dtd"
   xmlns="http://www.w3.org/2000/svg"
   xmlns:svg="http://www.w3.org/2000/svg">
  <defs
     id="defs828" />
  <sodipodi:namedview
     id="namedview826"
     pagecolor="#ffffff"
     bordercolor="#666666"
     borderopacity="1.0"
     inkscape:pageshadow="2"
     inkscape:pageopacity="0.0"
     inkscape:pagecheckerboard="0"
     showgrid="false"
     inkscape:zoom="0.9342819"
     inkscape:cx="258.48729"
     inkscape:cy="75.994194"
     inkscape:window-width="1920"
     inkscape:window-height="1017"
     inkscape:window-x="-8"
     inkscape:window-y="-8"
     inkscape:window-maximized="1"
     inkscape:current-layer="g830" />
  <g
     inkscape:groupmode="layer"
     inkscape:label="Image"
     id="g830"
     transform="translate(-51.568047,-59.216343)">
    <path
       style="fill:#f2f2f2;stroke-width:0.32"
       d="m 61.026371,171.8399 c -4.752,-0.0989 -8.82,-0.29635 -9.04,-0.43873 -0.30618,-0.19817 -0.400001,-2.64424 -0.400001,-10.42864 v -10.16975 l 0.815057,-0.37136 c 0.605555,-0.27591 12.059203,-0.37338 44.560001,-0.37919 28.686772,-0.005 44.240632,-0.12069 45.184942,-0.33572 2.26244,-0.51516 3.65876,-1.62309 4.68849,-3.72014 0.8881,-1.80863 0.91421,-2.01027 1.01635,-7.84899 0.12329,-7.04764 -0.20926,-8.7546 -2.11762,-10.86947 -2.2628,-2.50767 0.63184,-2.31626 -38.14722,-2.52259 -37.699055,-0.20059 -36.17973,-0.12715 -41.595596,-2.01061 -3.281606,-1.14122 -5.575494,-2.59723 -8.153661,-5.1754 -2.66608,-2.66608 -4.068938,-4.92851 -5.336787,-8.60679 l -0.932279,-2.70472 0.08916,-14.978874 0.08916,-14.97887 0.846524,-2.009212 c 1.386148,-3.290007 2.860528,-5.514827 5.269431,-7.951487 4.050054,-4.09672 9.654388,-6.24728 17.87562,-6.85943 2.898221,-0.2158 19.718577,-0.29978 47.476188,-0.23704 l 42.98776,0.0972 0.77224,0.89784 0.77225,0.89785 v 9.2267 c 0,8.607406 -0.0411,9.277416 -0.61167,9.982162 l -0.61166,0.755449 -42.98834,0.16 -42.988342,0.16 -1.497866,0.692214 c -1.693629,0.782685 -3.244256,2.677908 -3.859421,4.717104 -0.249008,0.825427 -0.391754,3.324739 -0.385558,6.750682 0.0091,5.003971 0.0701,5.575772 0.761734,7.133922 0.879443,1.98125 2.655824,3.625 4.578685,4.23681 1.094845,0.34836 8.18146,0.47192 36.082428,0.62911 l 34.72001,0.19562 3.11162,0.84171 c 9.10206,2.46216 14.68758,8.14971 17.04126,17.35256 0.89989,3.51856 1.21085,8.90549 1.0336,17.90547 -0.22265,11.30459 -0.8509,14.19957 -4.20678,19.38479 -2.68077,4.14212 -6.17126,6.89274 -10.93338,8.61588 -5.9115,2.13903 -3.83224,2.04747 -47.64633,2.09803 -21.824002,0.0252 -43.568003,-0.0351 -48.320003,-0.13406 z m 167.520009,-0.0295 c -13.6095,-0.75181 -22.59585,-3.93718 -28.8,-10.20869 -3.90454,-3.94692 -6.17164,-8.15157 -7.81033,-14.48536 -1.81971,-7.03342 -1.93503,-8.87223 -1.94266,-30.97628 -0.008,-22.086907 0.12541,-24.435793 1.74889,-30.880004 2.11061,-8.377766 4.94337,-13.232278 10.20288,-17.484719 5.15296,-4.16629 12.42434,-6.7272 22.76122,-8.01627 5.02698,-0.62689 82.1015,-0.61195 83.27576,0.0161 1.42745,0.76353 1.52424,1.44693 1.52424,10.76206 v 8.767096 l -0.77217,0.897846 -0.77217,0.897843 -39.62783,0.182973 c -42.76912,0.197478 -41.27654,0.136045 -45.94676,1.891133 -3.62304,1.361555 -6.65492,5.120217 -7.7725,9.635676 -0.2945,1.189875 -0.58456,4.210198 -0.69123,7.197506 l -0.18379,5.14729 12.28322,0.21226 c 6.75578,0.11674 27.72723,0.21246 46.60323,0.21271 33.56482,3.2e-4 34.33369,0.0141 34.94215,0.6226 0.92175,0.92175 1.02606,2.04206 0.9171,9.84963 -0.0964,6.90937 -0.11999,7.13249 -0.82811,7.84 l -0.72886,0.72822 -46.59416,0.0832 -46.59416,0.0832 0.17157,5.67682 c 0.31245,10.33805 2.34783,14.74665 8.01699,17.36473 4.55931,2.10554 2.70172,2.01693 46.40531,2.21368 l 39.62783,0.1784 0.77217,0.89784 0.77217,0.89785 v 8.79804 c 0,9.26296 -0.1321,10.21664 -1.50816,10.88749 -0.70122,0.34185 -73.43063,0.44173 -79.45184,0.10911 z m 157.1712,0.0205 c -8.04048,-0.16937 -8.11395,-0.17718 -8.72,-0.92626 -0.5911,-0.7306 -0.6112,-1.66835 -0.6112,-28.50737 0,-15.26356 -0.0956,-35.1196 -0.21228,-44.124551 l -0.21232,-16.372663 h -26.16986 -26.16985 l -0.89784,-0.771875 -0.89785,-0.771875 -0.0943,-9.207245 c -0.0619,-6.045624 0.0237,-9.492174 0.24936,-10.036994 0.78694,-1.89985 -3.99628,-1.76444 65.55637,-1.85589 43.75837,-0.0575 64.18285,0.0215 65.03785,0.25176 2.14356,0.57719 2.21076,0.92124 2.21076,11.31838 v 9.11805 l -0.77223,0.897846 -0.77219,0.897843 -26.34781,0.16 -26.34778,0.16 -0.16,44.000004 c -0.12579,34.59489 -0.2463,44.1509 -0.56377,44.70599 -0.49591,0.8671 -2.26899,1.39264 -4.39623,1.30303 -0.88,-0.0371 -5.24896,-0.14427 -9.7088,-0.23822 z M 509.659,171.7994 c -4.99642,-0.27262 -9.36157,-0.93503 -13.90231,-2.10968 -6.19056,-1.60143 -10.67696,-4.03763 -14.59622,-7.92603 -5.0297,-4.99004 -7.82547,-11.40144 -9.28976,-21.30358 -0.48128,-3.2548 -0.55888,-7.93202 -0.67136,-40.479998 -0.07,-20.239999 -0.008,-37.363305 0.13837,-38.051785 0.16886,-0.79592 0.59126,-1.49512 1.1599,-1.92 0.85069,-0.63565 1.34442,-0.67299 10.13088,-0.76611 5.98336,-0.0634 9.69392,0.0252 10.5351,0.25176 2.41904,0.65138 2.26212,-1.86581 2.26832,36.390244 0.003,20.501339 0.1336,35.391749 0.32554,37.214599 1.0951,10.39959 5.0271,14.76216 14.41917,15.9982 1.84502,0.24281 11.63408,0.32209 31.16976,0.25245 28.25648,-0.10073 28.49965,-0.10707 30.98384,-0.80845 4.80541,-1.35674 7.43111,-3.44863 9.21751,-7.34362 2.02144,-4.40744 1.99827,-3.94137 2.18713,-44.008568 l 0.17152,-36.391275 0.72842,-0.72872 c 0.71987,-0.72021 0.83827,-0.72991 10.12621,-0.83015 6.27107,-0.0677 9.84297,0.0184 10.7358,0.25885 2.43709,0.65624 2.2898,-2.11332 2.16727,40.744273 -0.0986,34.49613 -0.16247,38.45918 -0.66867,41.4983 -1.60138,9.61473 -4.37383,15.73605 -9.21152,20.33835 -2.59319,2.46699 -4.45492,3.73142 -7.80708,5.30229 -5.14937,2.41307 -12.57872,3.93606 -21.65955,4.44013 -6.42419,0.3566 -52.03517,0.3399 -58.65827,-0.0215 z m 129.49856,0.0339 c -7.96889,-0.1702 -8.11907,-0.18585 -8.70246,-0.90698 -0.3265,-0.40359 -0.68019,-1.33959 -0.78602,-2.08 -0.10582,-0.74042 -0.14973,-25.04057 -0.0975,-54.00036 0.0895,-49.673983 0.12678,-52.702893 0.65929,-53.515533 0.31047,-0.47377 0.9521,-1.11541 1.42583,-1.42586 0.81043,-0.53107 3.43574,-0.57011 44.39555,-0.66005 45.20122,-0.0993 51.62147,0.0355 56.81418,1.19221 6.11888,1.36305 11.17625,3.83237 14.25398,6.95969 3.20215,3.25368 5.80544,7.950281 6.8864,12.423696 0.49581,2.051836 0.92576,2.532921 0.98666,1.104 0.0314,-0.73792 0.12605,-0.467338 0.28528,0.815999 0.35318,2.846714 0.32848,21.383458 -0.0322,24.159998 -0.17149,1.32 -0.43965,4.128 -0.59591,6.24 -0.53936,7.28998 -3.10518,12.91522 -7.99497,17.52799 -3.60999,3.40549 -7.6081,5.27316 -14.32141,6.69012 l -3.46784,0.73194 -37.44,0.16498 -37.44001,0.16497 -0.16,16.51107 c -0.12848,13.25962 -0.2456,16.61415 -0.59462,17.03452 -0.5943,0.71573 -2.44269,1.18396 -4.36538,1.10581 -0.88,-0.0358 -5.24896,-0.14296 -9.70883,-0.23821 z m 83.99713,-56.09718 c 3.70828,-1.26431 6.25078,-3.86247 7.39449,-7.55635 0.46131,-1.48989 0.55722,-3.06651 0.55722,-9.159658 0,-6.765626 -0.0583,-7.540896 -0.72256,-9.6 -0.91299,-2.830336 -2.08256,-4.520377 -4.03952,-5.837017 -3.38835,-2.279725 -1.14659,-2.147331 -38.11792,-2.251101 l -33.28001,-0.09341 -0.56,0.686214 c -0.51763,0.634298 -0.56,1.967229 -0.56,17.617837 v 16.931625 l 33.84001,-0.0881 c 31.29584,-0.0815 33.96393,-0.13034 35.48829,-0.65006 z"
       id="path914" />
  </g>
</svg>
