<?xml version="1.0" encoding="UTF-8" standalone="no"?>
<svg
   version="1.0"
   width="1621.0236"
   height="587.68719"
   viewBox="0 0 1621.0236 587.68719"
   preserveAspectRatio="xMidYMid meet"
   id="svg344"
   sodipodi:docname="snesh.svg"
   inkscape:version="1.1.2 (0a00cf5339, 2022-02-04, custom)"
   xmlns:inkscape="http://www.inkscape.org/namespaces/inkscape"
   xmlns:sodipodi="http://sodipodi.sourceforge.net/DTD/sodipodi-0.dtd"
   xmlns="http://www.w3.org/2000/svg"
   xmlns:svg="http://www.w3.org/2000/svg">
  <defs
     id="defs348" />
  <sodipodi:namedview
     id="namedview346"
     pagecolor="#ffffff"
     bordercolor="#666666"
     borderopacity="1.0"
     inkscape:pageshadow="2"
     inkscape:pageopacity="0.0"
     inkscape:pagecheckerboard="0"
     showgrid="false"
     inkscape:zoom="0.65906289"
     inkscape:cx="809.48269"
     inkscape:cy="359.6015"
     inkscape:window-width="1920"
     inkscape:window-height="1017"
     inkscape:window-x="-8"
     inkscape:window-y="-8"
     inkscape:window-maximized="1"
     inkscape:current-layer="svg344" />
  <g
     fill="#ffffff"
     id="g40"
     transform="translate(-0.97649491)">
    <path
       d="m 1262.2,292.3 c -3.8,-1.5 -5.2,-10.4 -3.1,-18.9 l 1.1,-4.4 h 5.5 5.5 l -2.6,-3.1 c -2.2,-2.6 -2.6,-4 -2.6,-9.9 0,-7.7 1.6,-12.3 5.7,-16.2 5.6,-5.3 19.1,-6.2 24,-1.6 2,1.9 2.3,3.1 2.3,9.4 0,9.8 -0.3,10.4 -5.7,10.4 h -4.4 l 2.2,3.2 c 1.6,2.1 2.4,5.1 2.7,8.9 0.8,10.2 -3.8,19.1 -11.1,21.8 -2.8,1.1 -17.1,1.4 -19.5,0.4 z m 14.4,-17.9 c -0.8,-2.1 -1.1,-1.7 -2,2.1 -0.7,2.8 -0.6,2.9 1,1.3 1,-1 1.4,-2.3 1,-3.4 z"
       id="path2" />
    <path
       d="m 1374.5,290.5 c -2.1,-2 -2.5,-3.4 -2.5,-8.1 0,-3.1 0.5,-7.4 1.2,-9.5 l 1.1,-3.9 h 5.4 5.5 l -2.6,-3.1 c -2.3,-2.7 -2.6,-4 -2.6,-10.2 0,-12.7 5,-19 16.2,-20.3 6.5,-0.8 12.1,0.8 14.3,3.9 1.6,2.2 2,10 0.9,15.6 -0.6,2.9 -0.9,3.1 -5.1,3.1 h -4.4 l 2.6,4.3 c 5.6,9.7 1.5,24.6 -8.2,29.6 -1.2,0.6 -6,1.1 -10.8,1.1 -7.8,0 -8.8,-0.2 -11,-2.5 z m 16,-16.2 c -0.7,-1.7 -0.8,-1.7 -1.5,0.2 -0.5,1.1 -0.9,2.7 -0.9,3.5 -0.1,1.2 0.2,1.1 1.5,-0.2 1.1,-1.1 1.4,-2.3 0.9,-3.5 z"
       id="path4" />
    <path
       d="m 477,288.7 c 0,-1.8 2.7,-13.8 6,-26.6 3.3,-12.8 6,-23.5 6,-23.7 0,-0.2 6.5,-0.4 14.5,-0.4 H 518 v 3.4 c 0,1.9 -0.4,4.6 -1,6 -0.9,2.5 -1.4,2.6 -8,2.6 -6.6,0 -7.1,0.1 -8,2.6 -1.6,4.1 -1.3,4.4 5,4.4 h 6 l -0.1,3.8 c -0.2,8.1 -0.7,8.6 -8.3,9.2 l -6.9,0.5 -1.2,4.3 -1.3,4.2 h 6.4 6.4 v 4.3 c 0,9.1 0.6,8.7 -15.6,8.7 H 477 Z"
       id="path6" />
    <path
       d="m 535,288.9 c 0,-1.8 2.8,-13.9 6.1,-27.1 l 6.2,-23.8 h 7.2 c 8.3,0 8.5,0.1 8.6,8.3 0,2.9 0.2,4.8 0.4,4.2 0.2,-0.5 1.1,-3.6 2,-6.8 l 1.6,-5.7 h 6.9 7 v 3.8 c 0,2 -2.8,14.1 -6.3,26.7 l -6.2,23 -7.8,0.3 -7.7,0.3 v -3.9 c 0,-5.5 -1.3,-6.1 -2.5,-1 l -1.1,4.3 -7.2,0.3 -7.2,0.3 z"
       id="path8" />
    <path
       d="m 600.7,291.4 c -1.4,-1.5 -0.6,-6.6 3.8,-23.2 2.5,-9.3 4.5,-17.2 4.5,-17.6 0,-0.3 -1.9,-0.6 -4.1,-0.6 h -4.2 l 0.6,-5.5 c 0.3,-3 0.8,-5.9 1.2,-6.5 0.4,-0.6 6.9,-1 17.1,-1 H 636 v 3.4 c 0,1.8 -0.3,4.8 -0.6,6.5 -0.6,2.9 -0.9,3.1 -5.4,3.1 h -4.7 l -5.5,20.8 -5.4,20.7 -6.5,0.3 c -3.6,0.2 -6.8,0 -7.2,-0.4 z"
       id="path10" />
    <path
       d="m 647,289.3 c 0,-1.6 2.8,-13.7 6.2,-27 l 6.3,-24.3 h 14.2 14.3 v 3.8 c 0,7.9 -0.4,8.2 -8.6,8.2 -7.7,0 -7.8,0 -8.8,4.3 L 670,257 h 6 6 v 3.9 c 0,2.2 -0.4,5.1 -1,6.5 -0.9,2.4 -1.4,2.6 -7.4,2.6 h -6.5 l -1,3.8 c -0.6,2 -1.1,4 -1.1,4.5 0,0.4 3,0.7 6.6,0.7 h 6.7 l -0.7,5.6 c -0.4,3.1 -0.9,6.1 -1.2,6.5 -0.3,0.5 -7,0.9 -15,0.9 H 647 Z"
       id="path12" />
    <path
       d="m 700.7,291.3 c -1.4,-1.4 -0.4,-6.5 5.7,-29.8 l 6.3,-24 12.1,-0.3 c 15.1,-0.3 18.7,0.8 19.8,6.3 0.9,5.2 0,10.8 -3,16.9 -1.4,2.9 -2.6,6.8 -2.6,8.7 0,1.9 -0.7,5.9 -1.5,8.9 -0.8,3 -1.5,7.4 -1.5,9.8 v 4.2 h -8 -8 v -3.2 c 0,-1.8 0.7,-6.2 1.4,-9.8 0.8,-3.8 1,-6.9 0.5,-7.4 -1.3,-1.5 -1.8,-0.5 -4.4,9.4 -1.4,5.1 -2.8,9.6 -3.1,10.1 -0.6,1 -12.7,1.2 -13.7,0.2 z m 26.9,-36.9 c 1.5,-2.2 1.5,-2.7 0.3,-3.4 -1.7,-1.1 -2.4,-0.4 -3.3,3.3 -0.8,3.4 0.8,3.5 3,0.1 z"
       id="path14" />
    <path
       d="m 765,288.3 c 0,-2.1 2,-11.4 4.5,-20.6 2.5,-9.3 4.5,-17.1 4.5,-17.3 0,-0.2 -1.9,-0.4 -4.1,-0.4 h -4.2 l 0.6,-5.5 c 0.3,-3 0.8,-5.9 1.2,-6.5 0.4,-0.6 6.9,-1 17.2,-1 h 16.6 l -0.6,5.5 c -0.3,3 -0.8,5.9 -1.2,6.5 -0.3,0.5 -2.6,1 -5.1,1 -2.4,0 -4.4,0.2 -4.4,0.4 0,0.6 -7.5,29.2 -9.6,36.4 l -1.5,5.2 h -6.9 -7 z"
       id="path16" />
    <path
       d="m 809,288.3 c 0,-2.6 2,-7.9 6.3,-16.8 3.5,-7.2 8.5,-17.6 11.2,-23.3 l 4.9,-10.2 h 8.8 c 7.9,0 8.8,0.2 8.8,1.8 0,1.7 -0.8,15.6 -2.6,43 l -0.6,9.2 h -7.4 -7.4 v -6 c 0,-4.3 -0.4,-6 -1.3,-6 -0.8,0 -2.5,2.7 -4,6 l -2.6,6 h -7 -7.1 z"
       id="path18" />
    <path
       d="m 873,289.3 c 0.1,-1.6 2.9,-13.6 6.3,-26.8 l 6.2,-24 7.3,-0.3 7.2,-0.3 v 3.2 c 0,1.8 -2.8,13.9 -6.1,27.1 l -6.2,23.8 h -7.3 -7.4 z"
       id="path20" />
    <path
       d="m 920,287.8 c 0,-2.4 2.6,-14.4 5.8,-26.8 l 5.8,-22.5 7.7,-0.3 7.7,-0.3 0.1,3.3 c 0,1.8 0.4,4.2 0.8,5.3 0.6,1.6 1,0.9 2,-3.3 l 1.3,-5.2 h 7.4 7.4 v 2.8 c 0,1.5 -3.1,13.5 -6.8,26.7 l -6.8,24 -7.1,0.3 c -7.8,0.3 -8.1,0 -8.4,-7.8 -0.1,-3.1 -0.3,-2.9 -1.6,2.3 l -1.5,5.7 h -6.9 -6.9 z"
       id="path22" />
    <path
       d="m 982,289.8 c -0.1,-1.3 2.8,-13.4 6.2,-27 l 6.3,-24.8 h 9.8 9.7 l 0.1,5.3 0.1,5.2 2.4,-5.3 2.4,-5.2 h 9.5 9.5 v 3.7 c 0,3 -2.8,14.9 -11.1,46.6 l -1,3.7 h -6.9 c -6.6,0 -7,-0.1 -7.1,-2.2 v -2.3 l -1.1,2.3 c -0.9,1.9 -1.9,2.2 -6.5,2.2 H 999 l -0.1,-4.2 -0.1,-4.3 -1,4.3 -0.9,4.2 h -7.5 c -7,0 -7.4,-0.1 -7.4,-2.2 z"
       id="path24" />
    <path
       d="m 1055,287.8 c 0,-2.4 2.6,-14.4 5.8,-26.8 l 5.9,-22.5 14.6,-0.3 14.7,-0.3 v 2.9 c 0,1.6 -0.5,4.3 -1.1,6.1 -1.1,3.1 -1.1,3.1 -8.5,3.1 h -7.3 l -0.9,3.3 -0.8,3.2 5.8,0.3 5.8,0.3 v 3.3 c 0,1.9 -0.3,4.8 -0.6,6.5 l -0.6,3.1 h -6.8 c -6.6,0 -6.8,0.1 -7.4,2.8 -0.4,1.5 -0.9,3.5 -1.2,4.5 -0.5,1.5 0.2,1.7 6,1.7 6.5,0 6.6,0 6.6,2.8 0,1.5 -0.3,4.4 -0.6,6.5 l -0.7,3.7 h -14.3 -14.4 z"
       id="path26" />
    <path
       d="m 1107,289.3 c 0,-1.6 2.7,-13.7 6.1,-27.1 l 6.2,-24.3 7.6,0.3 7.6,0.3 0.5,5.5 0.5,5.5 1.8,-5.8 1.8,-5.7 h 6.9 7 v 3.8 c 0,2 -2.8,14.2 -6.2,26.9 l -6.3,23.3 h -7.7 -7.8 v -4.5 c 0,-2.5 -0.4,-4.5 -0.9,-4.5 -0.6,0 -1.3,2 -1.7,4.5 l -0.6,4.5 h -7.4 c -7.4,0 -7.4,0 -7.4,-2.7 z"
       id="path28" />
    <path
       d="m 1174,287.9 c 0,-3.2 4.5,-22.2 8.6,-36.1 0.5,-1.5 -0.1,-1.8 -3.5,-1.8 -4,0 -4.1,-0.1 -4.1,-3.4 0,-1.8 0.3,-4.8 0.6,-6.5 l 0.7,-3.1 h 17 17 l -0.6,5.5 c -0.3,3 -0.8,5.9 -1.2,6.5 -0.3,0.5 -2.6,1 -5,1 -3.3,0 -4.5,0.4 -4.9,1.8 -0.3,0.9 -2.6,9.6 -5.1,19.2 -2.5,9.6 -4.8,18.3 -5.1,19.3 -0.4,1.4 -1.7,1.7 -7.5,1.7 h -6.9 z"
       id="path30" />
    <path
       d="m 1322,289.4 c 0,-1.5 1.2,-6.9 2.6,-12 2.5,-9.4 2.5,-9.5 1,-19.3 -0.9,-5.4 -1.6,-12.1 -1.6,-15 V 238 h 7 7 l 0.6,4.1 0.7,4.2 2.5,-4.2 2.4,-4.1 h 7.4 7.4 v 3.3 c 0,2.4 -2.2,6.9 -8.4,16.7 -7.4,11.6 -8.8,14.7 -11.2,23.7 l -2.7,10.3 h -7.4 c -7.2,0 -7.3,0 -7.3,-2.6 z"
       id="path32" />
    <path
       d="m 1554,289.2 c 0,-2.6 -0.2,-2.8 -3.4,-2.4 -1.9,0.2 -5.1,-0.1 -7,-0.8 -3.5,-1.1 -3.6,-1.3 -3.6,-5.8 0.1,-2.6 2.3,-13 4.9,-23.2 l 4.8,-18.5 9.6,-0.3 9.7,-0.3 0.1,5.8 v 5.8 l 2.6,-5.8 2.6,-5.7 h 9.3 9.4 v 4.3 c 0,2.3 -2.6,14.3 -5.8,26.7 l -5.8,22.5 -7.2,0.3 c -6.4,0.3 -7.2,0.1 -7.2,-1.5 -0.1,-1.7 -0.1,-1.7 -1.1,0 -0.8,1.3 -2.3,1.7 -6.4,1.7 -5.4,0 -5.5,-0.1 -5.5,-2.8 z"
       id="path34" />
    <path
       d="m 1432,284.8 c 0,-3.4 4.8,-24.1 7.6,-33 0.4,-1.5 -0.1,-1.8 -3.5,-1.8 -4,0 -4.1,-0.1 -4.1,-3.4 0,-1.8 0.3,-4.8 0.6,-6.5 l 0.7,-3.1 h 16.8 16.9 v 2.8 c 0,1.5 -0.3,4.4 -0.6,6.4 -0.7,3.8 -0.7,3.8 -5.5,3.8 -3.7,0 -4.9,0.4 -5.3,1.8 -1.1,3.8 -9.6,36.1 -9.6,36.6 0,0.3 -3.1,0.6 -7,0.6 h -7 z"
       id="path36" />
    <path
       d="m 1482,282.3 c 0,-2.1 2.3,-12.9 5.1,-24 l 5.2,-20.3 h 14.4 14.3 v 4.4 c 0,7.3 -0.3,7.6 -8.5,7.6 -6.7,0 -7.3,0.2 -7.9,2.3 -1.2,4.4 -0.8,4.7 4.9,4.7 h 5.5 v 4.9 c 0,7.8 -0.3,8.1 -8,8.1 h -6.9 l -1.8,8 -1.8,8 h -7.2 -7.3 z"
       id="path38" />
  </g>
  <g
     fill="#fdda00"
     id="g44"
     transform="translate(-0.97649491)">
    <path
       d="m 231.5,303 c -26.1,-1.9 -45.9,-8.9 -58.1,-20.3 -8.5,-7.9 -10.8,-12.8 -10.2,-21.5 1.5,-20.7 21.4,-35.1 55.4,-40.2 22.3,-3.3 56.6,-1.7 74.9,3.5 25.8,7.3 41.7,22.1 41.9,38.9 0.1,4.9 -0.4,7 -2.6,10.8 -3.7,6.2 -10.3,11.8 -19.6,16.6 -13.9,7.2 -28.2,10.6 -50.7,12.2 -15.2,1.1 -16.2,1.1 -31,0 z"
       id="path42" />
  </g>
  <g
     fill="#2aa4dd"
     id="g48"
     transform="translate(-0.97649491)">
    <path
       d="m 195.6,153.8 c -1.7,-16.9 -9.1,-35.9 -18.3,-47.3 -13,-16 -32,-25.7 -56.4,-28.6 -11.2,-1.4 -10.7,-0.6 -8.9,-11.6 1.4,-8.7 6.1,-22.1 10.6,-30.1 5.2,-9.3 17.8,-21.7 27.1,-26.5 18.8,-9.8 44.8,-11.2 65.7,-3.6 14.5,5.3 26.8,14.2 36.7,26.6 12.9,16.2 16.5,28.7 15.6,54.3 -0.5,15.7 -2.2,23 -7.7,34.1 -9.9,19.5 -32,33.8 -59.6,38.3 l -4.1,0.7 z"
       id="path46" />
  </g>
  <g
     fill="#73b744"
     id="g52"
     transform="translate(-0.97649491)">
    <path
       d="M 67,223.3 C 36.7,220.3 12,208.4 3.6,193 c -8.4,-15.4 4.1,-36.4 27.1,-45.4 7.2,-2.8 17.3,-5.2 27.6,-6.6 10.1,-1.3 38.3,-1.3 48.4,0 29.9,3.9 49.6,14.8 57.6,31.7 3.9,8.6 4,14.4 0.3,20.8 -9,15.2 -31.2,26.3 -59.1,29.5 -8.4,0.9 -30.6,1.1 -38.5,0.3 z"
       id="path50" />
  </g>
  <g
     fill="#ea2325"
     id="g134"
     transform="translate(-0.97649491)">
    <path
       d="m 825,586.5 c -3,-0.8 -8.1,-3.3 -11.3,-5.5 -3.2,-2.2 -6.2,-4 -6.6,-4 -2.5,0 -12.1,-15.8 -13.5,-22.1 -0.3,-1.3 -1.1,-10 -1.7,-19.4 -0.6,-9.3 -1.5,-21.9 -1.9,-28 -0.5,-6 -1.1,-16.6 -1.5,-23.5 -0.8,-14.2 -1,-17.2 -1.9,-29 -0.3,-4.7 -1.1,-15.7 -1.6,-24.5 -0.6,-8.8 -1.5,-22.1 -2,-29.5 -1.4,-20.2 -1.4,-28.4 -0.1,-30.8 0.9,-1.6 0.9,-2.7 0,-4.3 -0.7,-1.3 -0.8,-3.5 -0.3,-5.8 0.4,-2 0.8,-4.1 1,-4.7 1.2,-6 11.3,-18 19.2,-22.8 5.7,-3.6 13.6,-5.4 26.2,-6.1 5.8,-0.4 12.1,-0.8 14,-1 4.5,-0.5 36.5,-2.4 50.1,-3.1 8.7,-0.4 10.8,-0.2 11.9,1.1 1.7,2.1 4.7,1.9 6,-0.4 1.1,-2.1 4.4,-2.7 21,-3.5 16.2,-0.9 72.2,-4.5 77,-5.1 2.5,-0.2 9.2,-0.7 15,-1 5.8,-0.3 17.6,-1 26.3,-1.5 8.6,-0.6 23,-1.5 32,-2 8.9,-0.6 18,-1.2 20.2,-1.5 2.2,-0.3 8.7,-0.7 14.5,-0.9 13.3,-0.6 45,-2.6 47,-3 0.8,-0.2 -157,-0.4 -350.7,-0.5 L 461,304 V 264.5 225 h 571.5 571.5 v 39.5 39.5 h -18 -18 l 2,3.8 c 2.8,5.3 4,12.6 4.6,28.7 0.4,7.7 0.8,16 1,18.5 0.1,2.5 0.6,8.1 0.9,12.5 0.3,4.4 0.6,9.4 0.6,11 0,1.7 0.4,6.4 0.9,10.5 0.6,4.1 1.3,14.5 1.6,23 0.7,18.2 1.1,24.4 2.9,48.5 2.8,36.1 3,43.4 1.1,50 -2.5,8.5 -6.2,14.9 -11.6,19.9 -4.9,4.6 -12.9,9.2 -17.4,10 -1.4,0.2 -2.9,0.7 -3.3,0.9 -0.5,0.3 -5.3,0.8 -10.8,1.1 -5.5,0.3 -12.2,0.8 -15,1.1 -2.7,0.3 -10.6,0.8 -17.5,1.1 -22.9,1.2 -24.5,1.3 -29.5,1.8 -6.6,0.6 -19.4,1.5 -33,2.2 -6,0.3 -11.7,0.7 -12.5,0.9 -0.8,0.2 -7.8,0.7 -15.5,1 -7.7,0.4 -16.2,0.8 -19,1 -13.3,1 -36.7,2.6 -52,3.5 -21.3,1.3 -31.8,2.1 -32.7,2.6 -0.9,0.6 -9.5,-1.5 -13.6,-3.2 -3.6,-1.5 -5.2,-1.2 -5.2,1.2 0,1.2 -4.7,2.1 -8.3,1.5 -0.4,0 -4.2,-0.4 -8.5,-0.7 -7.4,-0.5 -9.3,-0.5 -18.4,-0.2 -2.4,0.1 -6.9,-0.2 -10,-0.6 -3.8,-0.4 -5.8,-0.3 -5.8,0.4 0,0.5 0.6,1 1.4,1 1.8,0 4.9,3 4.1,3.9 -0.4,0.3 -3,0.7 -5.8,0.8 -2.9,0 -8.1,0.4 -11.7,0.6 -16.4,1.4 -34.8,2.8 -43,3.2 -11.7,0.7 -26,1.6 -38.5,2.5 -28.8,2.1 -42.5,3 -53.5,3.5 -6.3,0.3 -14.9,0.9 -19,1.4 -4.1,0.6 -16.4,1.2 -27.3,1.5 -10.9,0.3 -20.3,0.9 -20.9,1.2 -0.5,0.4 -4.2,0.8 -8.1,1 -13.2,0.8 -53.1,3.4 -58.2,3.9 -2.7,0.2 -14.7,0.9 -26.5,1.5 -11.8,0.6 -24.2,1.3 -27.5,1.6 -6.8,0.7 -10,0.9 -27.5,1.9 -6.9,0.3 -13.8,0.8 -15.5,1.1 -1.6,0.2 -10.4,0.6 -19.5,0.9 -13,0.4 -17.7,0.2 -22,-1 z M 905,570 c -1.9,-1.2 -4.7,-1.3 -5.4,-0.2 -0.3,0.5 1.1,0.9 3.2,1 2.7,0.1 3.3,-0.1 2.2,-0.8 z m 212.6,-10.4 c 0.9,-3.7 -0.2,-4.6 -5.4,-4.6 h -4.6 l 3.4,3.5 c 4,4.1 5.7,4.4 6.6,1.1 z M 857,559 c 9.3,-0.8 30.3,-2.3 50.5,-3.5 3.9,-0.3 10.2,-0.7 14,-1 3.9,-0.3 11.3,-0.7 16.5,-1 5.2,-0.3 11.5,-0.7 14,-1 2.5,-0.3 12.6,-1 22.5,-1.5 9.9,-0.6 24.8,-1.5 33,-2.1 8.3,-0.5 19.1,-1.2 24,-1.4 5,-0.3 14,-1 20,-1.5 18.2,-1.5 25.1,-2 45,-3 27.5,-1.5 32.5,-1.8 47,-3 7.2,-0.5 20.9,-1.5 30.5,-2.1 9.6,-0.6 20,-1.2 23,-1.4 3,-0.2 14.3,-0.8 25,-1.4 10.7,-0.6 22.9,-1.3 27,-1.7 4.1,-0.4 9.5,-0.8 12,-0.9 2.5,-0.1 14.6,-1 27,-1.9 12.4,-0.8 27.1,-1.8 32.8,-2.1 5.7,-0.2 10.7,-0.7 11.2,-1 0.4,-0.3 8.2,-0.7 17.1,-1.1 9,-0.3 19.1,-0.9 22.4,-1.4 3.3,-0.5 9.2,-0.9 13,-0.9 3.9,0 12.4,-0.5 19,-1 6.6,-0.6 19.9,-1.5 29.5,-2.1 23,-1.4 44.2,-2.8 61.5,-4 34.8,-2.5 47.2,-3.3 49.2,-3.3 3.1,0.1 10.9,-7 12.2,-11 0.6,-1.9 0.9,-7.1 0.5,-12.7 -1.6,-28.2 -1.8,-34.2 -1.1,-34.7 0.4,-0.3 0.3,-1.1 -0.4,-1.9 -0.7,-0.9 -1,-3.4 -0.7,-6.4 0.3,-2.8 0.1,-5.3 -0.4,-5.6 -0.5,-0.3 -0.8,-2.7 -0.7,-5.3 0.1,-2.6 -0.1,-5.2 -0.5,-5.9 -0.4,-0.6 -0.6,-4.2 -0.5,-8 0.1,-3.8 -0.1,-7.3 -0.4,-7.8 -0.3,-0.5 -0.8,-7 -1.1,-14.4 -0.4,-7.4 -1.1,-17.5 -1.6,-22.5 -0.6,-4.9 -1.3,-15.5 -1.6,-23.5 -1.1,-27.9 -1.9,-34.7 -4.8,-38.5 -4.4,-5.8 -7.2,-6.6 -21.5,-6 -12.6,0.5 -20.7,1 -31.1,2 -3,0.3 -13.1,1 -22.5,1.5 -9.3,0.6 -20.1,1.2 -24,1.5 -28.7,2 -35.5,2.5 -47,3.1 -7.1,0.3 -13.2,0.8 -13.5,0.9 -0.3,0.2 -8,0.6 -17,1 -9.1,0.3 -17.8,0.8 -19.5,1 -1.6,0.3 -6.8,0.7 -11.5,1 -4.7,0.3 -10.7,0.7 -13.5,1 -2.7,0.3 -10.8,0.8 -18,1 -11.9,0.5 -32.6,2 -40,3 -1.6,0.2 -12.9,0.8 -25,1.5 -12.1,0.6 -22.7,1.3 -23.5,1.5 -0.8,0.2 -6.7,0.7 -13,1 -6.3,0.3 -12.8,0.8 -14.5,1 -4,0.5 -33.5,1.8 -45.5,2 -5.2,0.1 -11.1,0.6 -13,1.3 -1.9,0.6 -4.4,1 -5.5,0.9 -2.2,-0.1 -24,1.2 -29.5,1.8 -3.2,0.4 -21.2,1.5 -33.5,2 -2.7,0.2 -11.5,0.8 -19.5,1.4 -18.7,1.4 -25.3,1.8 -49.2,3.1 -29.8,1.6 -34,1.9 -38.3,2.4 -7.9,0.9 -52.1,3.6 -57.5,3.5 -3,-0.1 -10.2,0.4 -16,1 -12.1,1.2 -24.7,2.2 -34,2.6 -15,0.7 -23.7,1.9 -27.5,3.6 -5.2,2.4 -8.3,7.2 -8.7,12.9 -0.3,5.4 0.8,26.1 2.7,50.5 1.2,15.8 1.8,25.5 3,51 0.1,3.3 0.8,12.1 1.3,19.5 0.6,7.4 1.1,16.3 1.2,19.6 v 6.1 l -9.2,1.2 c -5.1,0.7 -9.6,1.7 -10,2.4 -1.2,2 2.2,3 8.3,2.3 10.2,-1.2 12.3,1.5 13.3,17.4 0.6,8.8 1.1,11 3.1,13.6 4.9,6.4 11.3,7.5 33.5,5.4 z m 376.5,0 c 0.4,-0.6 1.2,-1 1.8,-0.9 2.9,0.3 4.5,-0.2 5.1,-1.7 0.5,-1.4 -0.2,-1.5 -5.6,-1.1 -3.5,0.4 -6.6,0.6 -7,0.6 -1.7,0.2 -0.7,2.2 1.5,3.1 3,1.2 3.5,1.2 4.2,0 z m -129,-2 c 0,-0.9 -0.9,-1.5 -2.2,-1.4 -1.3,0 -6.9,0.2 -12.5,0.3 -9.2,0.3 -9.8,0.4 -5.5,1.1 2.7,0.5 5,1 5.2,1.2 0.2,0.2 3.6,0.3 7.7,0.3 5.8,0 7.3,-0.3 7.3,-1.5 z m 56.5,0 c 0,-0.5 0.9,-1 2,-1 1.1,0 2,0.5 2,1.1 0,1.1 21,0.8 25.5,-0.4 1.1,-0.3 4,-0.6 6.4,-0.6 6.4,-0.1 4.4,-1.2 -3.1,-1.6 -12.2,-0.7 -48.4,-0.7 -53,0 -4.7,0.7 -6.1,1.8 -3.5,2.8 2.4,1 23.7,0.7 23.7,-0.3 z m 117.7,-268.1 c 4.4,-1.6 8.1,-5.8 9.9,-11.1 2.3,-7.1 1.3,-11 -4.4,-16.7 -7.4,-7.4 -7.3,-7.4 -6.1,-11 0.6,-1.7 1.5,-3.1 1.9,-3.1 0.5,0 1.4,-0.2 2.2,-0.5 2.5,-0.9 4.2,1.2 4,4.9 -0.3,3.6 -0.2,3.6 3.7,3.6 4.4,0 5.1,-1 5.1,-7.4 0,-12.8 -19.1,-11.8 -24.6,1.3 -0.8,1.8 -1.4,5.1 -1.4,7.2 0,3.4 0.8,4.8 6,10.4 6.3,6.8 7.2,9.4 4.4,13.3 -1.1,1.6 -2.5,2.2 -5.1,2.2 h -3.6 l 0.5,-5 0.5,-5 h -4.2 -4.3 l -1.2,5 c -1.3,5.6 -0.2,10.2 2.9,12 2.2,1.3 10.3,1.2 13.8,-0.1 z m 115.2,-0.4 c 4.5,-2.3 7.8,-7 9.2,-12.9 1.1,-5.2 1.1,-5.7 -1.5,-9.9 -1.4,-2.5 -3.8,-5.5 -5.3,-6.7 -5.5,-4.3 -6.3,-10.3 -1.7,-12 3.8,-1.5 5.4,-0.3 5.4,4.1 0,3.9 0,3.9 3.9,3.9 4,0 4,0 4.7,-4.6 0.8,-5.8 -0.6,-9.1 -5,-10.9 -9.6,-4 -20.6,4.7 -20.6,16.3 0,3.8 0.6,4.9 6,10.7 6.3,6.8 7.2,9.4 4.4,13.3 -1,1.5 -2.5,2.2 -4.9,2.2 -4,0 -5,-1.9 -3.6,-6.8 l 1,-3.2 h -4.3 c -4.1,0 -4.3,0.2 -5.4,3.9 -1.8,5.8 -1.5,8.9 1.3,11.6 2,2.1 3.4,2.5 8,2.5 3.1,0 6.9,-0.7 8.4,-1.5 z m -890.5,-1.7 c 1.2,-4.6 0.9,-4.8 -6.4,-4.8 -3.8,0 -7,-0.3 -7,-0.7 0,-0.5 0.8,-3.7 1.8,-7.3 l 1.9,-6.5 6.4,-0.3 c 7.1,-0.3 7.4,-0.5 8.3,-4.4 L 509,260 h -6.6 -6.7 l 0.7,-3.9 c 1.4,-8.7 1.7,-9.1 9.6,-9.1 6.6,0 7.1,-0.1 8,-2.6 0.6,-1.4 1,-2.7 1,-3 0,-0.2 -5.2,-0.4 -11.5,-0.4 -6.3,0 -11.5,0.2 -11.5,0.4 0,0.2 -2.7,10.9 -6,23.7 -3.3,12.8 -6,23.4 -6,23.6 0,0.2 5.1,0.3 11.4,0.3 10.9,0 11.4,-0.1 12,-2.2 z m 44.8,-5.3 c 0.9,-3.8 2.5,-10.8 3.5,-15.5 l 1.7,-8.5 1.2,13 c 0.7,7.2 1.3,14.3 1.3,15.8 0.1,2.7 0.3,2.8 4.8,2.5 l 4.8,-0.3 5.7,-21 c 8,-29.6 7.7,-26.5 3,-26.5 -3.7,0 -4.1,0.3 -5.1,3.3 -2,6.3 -6.1,23.6 -6.1,25.8 0,1.2 -0.2,2 -0.5,1.7 -0.3,-0.2 -0.9,-6.3 -1.5,-13.4 -1.5,-18.3 -1.2,-17.4 -6.4,-17.4 h -4.3 l -5.7,22.3 c -3.1,12.2 -6,23 -6.2,24 -0.5,1.6 0,1.8 3.7,1.5 l 4.3,-0.3 z m 68.6,-13.7 5.5,-20.8 h 4.8 c 3.3,0 4.9,-0.4 4.9,-1.2 0,-0.7 0.3,-2.3 0.6,-3.5 l 0.6,-2.3 h -13.5 c -7.5,0 -13.8,0.3 -14,0.8 -0.2,0.4 -0.7,1.9 -1.1,3.5 -0.6,2.6 -0.5,2.7 3.9,2.7 3.6,0 4.5,0.3 4.5,1.8 0,0.9 -2.2,10 -4.9,20.2 -2.7,10.2 -4.7,18.9 -4.4,19.3 0.3,0.4 2.1,0.7 4.1,0.5 l 3.6,-0.3 z m 57.3,17.5 0.6,-3.3 h -7.3 c -4.1,0 -7.4,-0.2 -7.4,-0.4 0,-0.1 0.4,-1.6 1,-3.2 0.5,-1.6 1.4,-4.8 2,-7.1 l 1.1,-4.3 h 6.5 c 6,0 6.5,-0.2 7.4,-2.6 1.6,-4.1 1.3,-4.4 -5.5,-4.4 -7.3,0 -7.1,0.2 -5.2,-7.5 l 1.3,-5 7.6,-0.3 c 6.9,-0.3 7.6,-0.5 8.2,-2.5 0.3,-1.2 0.6,-2.5 0.6,-2.9 0,-0.5 -5.1,-0.8 -11.3,-0.8 h -11.3 l -5.7,22.5 c -3.2,12.4 -6,23.2 -6.4,24.1 -0.5,1.3 1.1,1.4 11.3,1.2 l 11.8,-0.3 z m 39.1,-2.8 c 0.9,-3.3 2.2,-7.9 2.8,-10.3 1.1,-4.3 1.1,-4.3 5.3,-4 3.6,0.3 4.3,0.7 4.5,2.7 0.3,2.2 -1,10.7 -2.5,16.4 -0.4,1.5 0.3,1.7 4.7,1.7 4.1,0 5.1,-0.3 4.7,-1.4 -0.3,-0.8 0.1,-4.5 0.9,-8.3 0.8,-3.7 1.7,-8 2,-9.4 0.4,-1.7 0,-3.2 -1.1,-4.3 -1.6,-1.6 -1.5,-1.8 0.8,-3.7 1.4,-1 3.5,-4.5 4.7,-7.6 4.2,-11.2 0.6,-14.6 -15.2,-14.1 l -9.1,0.3 -6.2,23.5 c -3.4,12.9 -6,23.9 -5.7,24.3 0.2,0.4 2,0.7 4,0.5 3.5,-0.3 3.7,-0.5 5.4,-6.3 z m 64.2,1.3 c 2.1,-7.2 9.6,-35.8 9.6,-36.4 0,-0.2 2,-0.4 4.4,-0.4 4.8,0 5,-0.1 6,-4.2 L 798,240 h -13.4 c -7.4,0 -13.7,0.3 -13.9,0.8 -0.2,0.4 -0.7,1.9 -1.1,3.5 -0.6,2.6 -0.5,2.7 3.9,2.7 3.4,0 4.5,0.4 4.5,1.5 0,0.9 -2.2,10 -5,20.3 -2.7,10.3 -5,19 -5,19.5 0,0.4 1.8,0.7 4,0.7 3.9,0 4,0 5.4,-5.2 z m 45.3,-0.8 2.6,-6 h 5 4.9 l -0.7,6 -0.7,6 h 4.5 4.5 l 0.6,-8.2 c 0.3,-4.6 0.8,-13.7 1.1,-20.3 0.3,-6.6 0.8,-13.7 1.1,-15.7 l 0.6,-3.8 h -5.9 -5.9 l -4.9,10.3 c -2.7,5.6 -7.7,16.1 -11.2,23.2 -3.5,7.2 -6.3,13.3 -6.3,13.8 0,0.4 1.8,0.7 4.1,0.7 4,0 4.1,-0.1 6.6,-6 z m 67.7,-16.2 c 3.1,-12.3 5.9,-23.1 6.2,-24 0.5,-1.5 -0.1,-1.8 -3.6,-1.8 -2.4,0 -4.3,0.5 -4.6,1.3 -0.2,0.7 -3.1,11.5 -6.3,24 l -5.8,22.7 h 4.2 4.2 z m 43.5,9.2 c 1.7,-7.1 3.1,-13.7 3.2,-14.7 0.1,-5.1 1.7,3.2 2.3,12.7 1,15.2 1,15.2 5.9,14.8 l 4.1,-0.3 6.6,-23.5 6.7,-23.5 -4,-0.3 c -2.1,-0.2 -4.1,-0.2 -4.3,0 -0.6,0.7 -7.4,28.5 -7.5,31 -0.1,2 -2.6,-24.4 -2.8,-29.5 -0.1,-1.5 -0.8,-1.8 -4.8,-1.5 l -4.7,0.3 -5.8,22.5 c -3.2,12.4 -5.8,23.1 -5.8,23.8 0,0.7 1.4,1.2 3.9,1.2 h 3.9 z m 61,8.3 c 0.6,-2.7 2.9,-11.5 5.1,-19.8 l 4,-15 -0.5,9.5 c -0.3,5.2 -0.8,14.1 -1.2,19.8 l -0.6,10.2 h 2.5 c 2.2,0 3.3,-1.8 11.4,-19.4 4.9,-10.7 8.9,-19.4 9,-19.3 0.1,0.1 -2,8.3 -4.7,18.1 -2.7,9.8 -4.9,18.5 -4.9,19.3 0,0.9 1.3,1.3 4,1.3 3.7,0 4,-0.2 4.9,-3.7 5.7,-21.8 11.1,-43.1 11.1,-43.7 0,-0.4 -3,-0.6 -6.6,-0.4 l -6.6,0.3 -6.4,14 -6.5,14 0.6,-8 c 0.3,-4.4 0.8,-10.8 1.1,-14.2 l 0.6,-6.3 h -6.9 -6.8 l -6.1,24 -6.2,24 h 4.3 4.3 z m 86.1,2.8 c 0,-1.1 0.3,-2.6 0.6,-3.5 0.5,-1.4 -0.5,-1.6 -6.8,-1.6 h -7.5 l 2,-7.5 2,-7.5 h 6.9 c 4.8,0 6.8,-0.4 6.8,-1.2 0,-0.7 0.3,-2.3 0.6,-3.5 0.6,-2.2 0.4,-2.3 -6.1,-2.3 h -6.7 l 0.6,-2.7 c 0.4,-1.6 1.2,-4.5 1.7,-6.5 l 1,-3.8 h 7.3 c 7.3,0 7.4,0 8.5,-3 l 1,-3.1 -11.6,0.3 -11.6,0.3 -5.9,22.5 c -3.2,12.4 -5.8,23.1 -5.8,23.8 0,0.9 3,1.2 11.5,1.2 10.7,0 11.5,-0.1 11.5,-1.9 z m 38.9,-3.8 c 3.5,-16.1 6,-25.5 6,-22.8 0.1,1.7 0.6,8.7 1.2,15.8 l 1.2,12.7 h 4.6 4.6 l 6.3,-23.3 c 3.4,-12.7 6.2,-23.5 6.2,-23.9 0,-0.5 -1.8,-0.8 -4,-0.8 -3.9,0 -4,0 -5.5,5.3 -0.8,2.9 -2.6,10 -3.9,15.8 l -2.3,10.4 -0.7,-8 c -0.4,-4.4 -1.1,-11.4 -1.4,-15.5 l -0.7,-7.5 -4.6,-0.3 -4.6,-0.3 -5.8,22.8 c -3.2,12.5 -6,23.4 -6.3,24.1 -0.3,0.8 0.9,1.2 4,1.2 h 4.4 z m 65.5,4 c 0.3,-1 2.6,-9.7 5.1,-19.3 2.5,-9.6 4.8,-18.3 5.1,-19.2 0.4,-1.4 1.6,-1.8 4.9,-1.8 4.7,0 4.9,-0.1 5.9,-4.2 l 0.6,-2.8 h -14 c -10.5,0 -14,0.3 -14,1.3 0,0.6 -0.3,2.2 -0.6,3.5 -0.6,2 -0.3,2.2 4,2.2 3,0 4.6,0.4 4.6,1.3 0,0.6 -2.3,9.6 -5,19.9 -2.8,10.3 -5,19.2 -5,19.8 0,0.5 1.8,1 3.9,1 2.9,0 4.1,-0.5 4.5,-1.7 z m 151,-8.5 c 2.3,-8.8 3.9,-12.2 10.5,-22.8 4.3,-6.9 8.1,-13.1 8.5,-13.7 0.5,-1 -0.5,-1.3 -3.8,-1.3 h -4.4 l -5,8.5 c -5.3,9.2 -6.1,9.2 -6.2,0 0,-7.3 -0.8,-8.5 -5.1,-8.5 -4.7,0 -4.7,0.1 -2,16.5 l 1.8,11 -2.7,10.3 -2.8,10.2 h 4.3 4.2 z m 234.4,-9.1 c 4.7,-10.3 8.6,-18.6 8.8,-18.5 0.1,0.2 -1.7,7.3 -4.1,15.8 -2.3,8.5 -4.6,17 -5,18.8 l -0.7,3.3 4.3,-0.3 4.3,-0.3 5.8,-22.5 c 3.2,-12.4 5.8,-23.1 5.8,-23.7 0,-0.9 -1.9,-1.3 -6.3,-1.3 h -6.4 l -6.7,14.8 c -5.7,12.4 -6.6,14 -6.2,10.2 0.3,-2.5 0.8,-9.1 1.2,-14.8 l 0.7,-10.3 -6.8,0.3 -6.8,0.3 -4.8,18.5 c -2.6,10.2 -4.8,19.2 -4.9,20.2 0,1.5 5.5,4.3 6.9,3.4 0.4,-0.3 2.7,-8.6 5.1,-18.5 2.5,-9.9 4.6,-17.8 4.7,-17.7 0.2,0.1 -0.4,8.3 -1.2,18.2 -2,24.5 -2.1,23.6 1.1,23.2 2.3,-0.3 3.5,-2.3 11.2,-19.1 z M 1443,285.4 c 0,-0.5 8.5,-32.8 9.6,-36.6 0.4,-1.4 1.6,-1.8 5.5,-1.8 4.2,0 4.9,-0.3 4.9,-1.9 0,-1.1 0.3,-2.6 0.6,-3.5 0.5,-1.4 -1,-1.6 -13.5,-1.6 -10.6,0 -14.1,0.3 -14.1,1.3 0,0.6 -0.3,2.2 -0.6,3.5 -0.6,2 -0.3,2.2 4,2.2 2.5,0 4.6,0.5 4.6,1 0,0.6 -2,8.8 -4.5,18.3 -2.5,9.5 -4.5,17.8 -4.5,18.5 0,0.7 1.6,1.2 4,1.2 2.2,0 4,-0.3 4,-0.6 z m 52.3,-10.4 1.8,-8 h 6.9 c 7.1,0 8,-0.6 8,-5.1 0,-1.7 -0.8,-1.9 -6.6,-1.9 -5.8,0 -6.5,-0.2 -6,-1.7 0.3,-1 1,-3.9 1.7,-6.5 l 1.1,-4.8 h 7.3 c 5.7,0 7.4,-0.3 7.9,-1.6 1.6,-4.2 1.1,-4.4 -10.7,-4.4 h -11.4 l -5.2,20.3 c -2.8,11.1 -5.1,20.5 -5.1,21 0,0.4 1.9,0.7 4.3,0.7 h 4.2 z"
       id="path54" />
    <path
       d="m 840,553.8 c -4.9,-1.4 -10.8,-6.4 -12.6,-10.7 -0.9,-2 -1.8,-8 -2.1,-13.3 l -0.6,-9.8 h 2.4 c 3.6,0 5.1,3.3 5.8,12.6 0.5,6.2 1.1,8.8 2.6,10.4 3.8,4.3 6.3,4.8 17,3.9 18.2,-1.5 49.8,-3.6 89.5,-6 9.6,-0.5 20,-1.2 23,-1.4 3,-0.2 13.8,-0.9 24,-1.5 10.2,-0.6 21.4,-1.5 25,-1.9 3.6,-0.5 7.5,-0.5 8.7,0 1.2,0.5 2.5,0.4 2.8,0 0.2,-0.5 3.1,-0.9 6.2,-1 3.2,0 11,-0.6 17.3,-1.2 6.3,-0.6 15.3,-1.2 20,-1.4 9.8,-0.3 22.5,-1.2 39,-2.5 6.3,-0.6 16.6,-1.2 22.8,-1.5 6.2,-0.2 11.7,-0.7 12,-0.9 0.4,-0.2 7.9,-0.7 16.7,-1.1 8.8,-0.3 18.7,-1 22,-1.5 3.3,-0.5 9.1,-0.9 12.8,-0.9 3.7,0 13.2,-0.5 21,-1.2 12.3,-1 14.7,-1 17.2,0.3 2.3,1.1 4.8,1.3 10,0.8 7.7,-0.8 19.5,-2.5 26.5,-4 5.1,-1.1 30.7,-2.8 64.5,-4.5 7.2,-0.3 19.2,-1.1 26.8,-1.7 9.7,-0.8 14.5,-0.8 16,0 1.2,0.5 3,1.3 4,1.6 1,0.3 1.7,1.3 1.5,2.2 -0.2,1.1 -1.7,1.7 -5.3,1.9 -2.7,0.2 -5.4,0 -6,-0.5 -0.5,-0.4 -4.1,-1 -7.9,-1.4 -6.2,-0.6 -7.1,-0.5 -9.2,1.5 -2,1.9 -4,2.3 -14.1,3 -6.5,0.5 -18.1,1.3 -25.8,1.9 -13.4,1 -20.1,1.4 -38.4,2.5 -4.6,0.3 -8.7,0.7 -9.1,1 -0.3,0.2 -5.8,0.5 -12.1,0.6 -6.3,0.1 -15.7,0.5 -20.9,0.9 -5.2,0.5 -14,1.1 -19.5,1.5 -5.5,0.3 -16.1,1.1 -23.5,1.6 -7.4,0.6 -16.9,1.3 -21,1.5 -4.1,0.2 -13.1,0.8 -20,1.3 -6.9,0.5 -18.3,1.2 -25.5,1.6 -7.1,0.3 -15.5,0.8 -18.5,1.1 -3,0.2 -8,0.6 -11,0.9 -3,0.3 -12.9,0.7 -22,1.1 -9.1,0.3 -19.4,1 -23,1.4 -3.6,0.5 -15,1.3 -25.5,1.9 -10.4,0.6 -24.6,1.6 -31.5,2.2 -6.9,0.5 -16.8,1.2 -22,1.4 -5.2,0.3 -12.4,0.7 -16,1 -3.6,0.2 -11.9,0.7 -18.5,1.1 -6.6,0.3 -12.7,0.7 -13.5,0.9 -0.8,0.2 -6.7,0.7 -13,1 -6.3,0.3 -23.4,1.5 -38,2.6 -14.6,1 -26.7,1.9 -27,1.8 -0.3,0 -2.1,-0.5 -4,-1.1 z"
       id="path56" />
    <path
       d="m 826.4,517.1 c -2.1,-1.9 -2.6,-6.2 -3.9,-31.1 -0.2,-3.6 -0.6,-9.2 -1,-12.5 -0.3,-3.3 -0.8,-11.6 -1.1,-18.5 -0.3,-6.9 -0.8,-14.3 -1,-16.5 -0.3,-2.2 -0.8,-10.3 -1.3,-18 -0.5,-7.7 -1.3,-19.4 -1.8,-26 -1.2,-17.6 -0.8,-23.1 1.9,-27.1 3.4,-5 8.5,-7.4 17,-7.9 4,-0.3 9.1,-0.7 11.3,-1 6.2,-0.8 40.1,-2.8 49,-3 4.4,0 11.4,-0.4 15.5,-0.9 8.2,-0.9 16.2,-1.3 34.5,-2 6.6,-0.3 12,-0.6 12,-0.6 0,-0.3 8.9,-1.1 22.5,-2 8,-0.5 17,-1.1 20,-1.4 5.2,-0.4 33.6,-2.3 69,-4.5 8.5,-0.6 22.3,-1.5 30.5,-2.2 8.3,-0.6 15.9,-1.1 17,-1.1 2.6,0 31.6,-2 54.5,-3.7 5.8,-0.5 11,-0.6 11.7,-0.4 0.7,0.3 4.4,0 8.3,-0.6 4,-0.6 15.5,-1.4 25.8,-1.7 10.7,-0.3 19.1,-0.9 19.8,-1.5 0.7,-0.6 2.2,-0.8 3.3,-0.4 1,0.3 10.6,-0.1 21.3,-0.9 22.5,-1.7 40.4,-2.9 46.8,-3.1 2.5,-0.1 10.6,-0.6 18,-1.2 7.4,-0.5 14.9,-1 16.5,-1 1.7,0 9.5,-0.5 17.5,-1.1 32.7,-2.7 40.8,-3.3 46,-3.3 3,0 9.8,-0.4 15,-1 5.2,-0.5 14.2,-1.1 20,-1.3 13.1,-0.5 53.3,-3.2 70,-4.6 11.7,-1 12.8,-1 17,0.9 8.6,3.8 13,10.8 13,20.8 0,3.2 0.4,9.6 0.9,14.3 0.5,4.7 1.2,13.7 1.6,20 0.7,14.1 2.2,37.9 3.5,56 0.5,7.4 1,16.5 1,20.2 0,6.4 -0.1,6.8 -2.5,7.4 -3.4,0.8 -3.6,0.5 -4.1,-5.8 -0.2,-2.9 -0.7,-9 -1.2,-13.6 -0.4,-4.6 -0.5,-8.5 -0.2,-8.7 0.3,-0.2 0.1,-5 -0.6,-10.7 -0.7,-5.7 -1.5,-14.8 -1.8,-20.3 -0.4,-5.5 -0.9,-14.3 -1.2,-19.5 -0.2,-5.2 -0.9,-14.7 -1.5,-21 -0.5,-6.3 -1,-14.4 -1,-18 -0.1,-7.2 -1.7,-11.2 -5.5,-13.6 -2.5,-1.7 -6.2,-1.7 -32.4,0.1 -6,0.4 -24.7,1.6 -33.5,2.1 -3.8,0.2 -12.8,0.8 -20,1.4 -11.2,0.9 -55,3.7 -69.8,4.5 -2.7,0.2 -8.8,0.6 -13.5,0.9 -4.8,0.4 -11.8,0.9 -15.7,1.1 -3.8,0.3 -9.2,0.7 -12,1 -2.7,0.2 -9.7,0.6 -15.5,0.9 -19.8,1 -32.5,1.7 -35.5,2.2 -1.6,0.2 -8.2,0.6 -14.5,0.9 -6.3,0.3 -13.5,0.7 -16,1 -20.5,1.9 -20.4,1.9 -23.5,-0.9 l -2.8,-2.6 -1.8,3 c -1.4,2.2 -2.6,3 -4.6,3 -1.6,0 -8.9,0.4 -16.3,1 -7.4,0.5 -18.7,1.1 -25,1.5 -6.3,0.3 -13.1,0.7 -15,1 -1.9,0.3 -8,0.7 -13.5,1 -5.5,0.2 -13.6,0.7 -18,1 -4.4,0.2 -12,0.7 -17,1 -4.9,0.3 -10.6,0.8 -12.5,1 -1.9,0.3 -12.5,1 -23.5,1.6 -11,0.6 -21.6,1.2 -23.5,1.4 -1.9,0.2 -15,1.1 -29,1.9 -14,0.9 -29.1,1.8 -33.5,2.1 -4.4,0.3 -15.6,1 -25,1.5 -9.3,0.5 -25.3,1.6 -35.5,2.4 -10.2,0.7 -20.5,1.4 -23,1.5 -6.5,0.1 -31.8,1.9 -36.5,2.6 -2.2,0.3 -10,0.8 -17.5,1.1 -17.7,0.6 -23.6,1.8 -27.3,5.6 l -3,2.9 0.7,19.7 c 0.3,10.8 1.1,22.6 1.7,26.2 0.6,3.6 1,10.3 0.9,15 -0.1,4.7 0.3,11.4 0.8,15 1.4,9.3 4.4,56.5 4,62.9 -0.3,6.1 -1.4,7.1 -4.4,4.2 z"
       id="path58" />
    <path
       d="m 864.5,518 c -1.2,-0.4 -2.7,-1.5 -3.4,-2.4 -0.7,-0.9 -2.8,-1.6 -4.6,-1.6 -5.3,0 -5.5,-2.8 -0.4,-7.2 l 4.3,-3.7 -1.2,-17.8 c -0.6,-9.8 -1.1,-18.7 -1.1,-19.8 0,-1.1 -0.4,-6.9 -1,-13 -0.5,-6 -1.5,-19.1 -2.1,-29 -1.4,-22.3 -1.6,-23.4 -4.6,-24.1 -7.2,-1.8 -8.1,-12.3 -1.1,-12.4 1.2,0 5.4,-0.3 9.2,-0.6 21,-1.5 36.3,-2 38.2,-1.3 2.4,0.9 4.3,3.8 4.3,6.4 0,1 -1.8,3.4 -4,5.4 l -3.9,3.6 0.9,10.5 c 0.5,5.8 1.4,19.5 2,30.5 0.6,11 1.5,25.2 2.1,31.5 0.5,6.3 0.9,14.7 0.9,18.5 0,8 1.4,11.4 5.3,13.3 3.7,1.8 5.4,5.4 3.9,8.6 -0.8,1.9 -2.1,2.5 -6.6,3 -3.4,0.5 -6.3,0.3 -7.5,-0.4 -1.1,-0.6 -3.2,-0.8 -4.5,-0.4 -1.3,0.3 -3.4,0 -4.6,-0.6 -1.8,-1 -3.1,-0.8 -7,0.9 -5.5,2.4 -10.7,3.2 -13.5,2.1 z"
       id="path60" />
    <path
       d="m 1387.5,517.3 c -1.1,-0.2 -3.1,-1.3 -4.5,-2.3 l -2.5,-2 h 3.6 c 1.9,0 6,-0.4 9,-1 3,-0.5 9.2,-1.2 13.9,-1.4 4.7,-0.3 17,-1.2 27.3,-2.1 10.4,-0.8 19.2,-1.4 19.5,-1.1 0.4,0.2 3.8,0 7.6,-0.5 7.7,-1 36.2,-2.7 59.1,-3.5 12.5,-0.5 15.4,-0.9 17.7,-2.5 1.5,-1 3.1,-1.9 3.7,-1.9 0.9,0 2.1,-5.2 2.3,-10 0.1,-1.4 -0.4,-8.1 -1.1,-15 -1,-11.2 -1,-12.6 0.5,-13.7 4.7,-3.4 6.5,2.8 6.7,23.3 l 0.2,15.3 -3.5,3.6 c -7,7.3 -5.9,7.1 -63,10 -6.3,0.3 -16,1 -21.5,1.7 -5.5,0.6 -17.6,1 -27,1 -12.7,0 -18.2,0.3 -21.7,1.5 -4.1,1.3 -10.1,1.4 -17.3,0.2 -0.5,-0.1 -2.3,0.1 -4,0.3 -1.6,0.3 -3.9,0.3 -5,0.1 z"
       id="path62" />
    <path
       d="m 913,513 c -2.4,-2.4 -2.7,-8 -0.5,-8 0.9,0 2.7,-1.1 4,-2.5 2.3,-2.3 2.5,-2.9 2,-10.2 -0.3,-4.3 -0.8,-12.5 -1,-18.3 -0.4,-11.1 -1.7,-19.6 -3.2,-21.1 -0.5,-0.5 -2.3,-0.5 -4.3,0.1 -5,1.4 -8,-0.8 -8,-5.9 v -3.8 l 6.3,-0.9 6.2,-0.9 0.3,-5.5 c 0.2,-3 -0.1,-8.9 -0.7,-13 -0.6,-4.1 -1.1,-10.6 -1.2,-14.5 -0.2,-7.6 -2,-13.5 -4.2,-13.5 -2,0 -5.7,-4.3 -5.7,-6.7 0,-3.2 1.9,-4 10.5,-4.6 4.4,-0.3 10,-0.9 12.5,-1.2 7.7,-1 16.2,-1.6 23.4,-1.7 6.1,-0.1 7.2,0.2 8.8,2.1 2.8,3.5 2.2,6.2 -2.2,10.2 l -4,3.7 0.5,7.3 c 0.3,4.1 1,14.4 1.6,22.9 0.6,8.5 1.2,18.4 1.4,22 0.1,3.6 0.6,10.6 1,15.6 0.5,6.3 0.4,9.3 -0.3,9.8 -0.8,0.5 -0.8,1.4 0,3.4 0.6,1.5 1.4,6.4 1.8,11 0.6,7.1 1,8.5 3,9.9 7.4,5.2 8,9.6 1.5,11.9 -2.2,0.7 -5.9,1.4 -8.2,1.4 -2.3,0 -6.4,0.5 -9.2,1.1 -3.4,0.7 -5.6,0.7 -6.9,0 -1.4,-0.8 -2.4,-0.6 -3.8,0.4 -1.3,1 -4.7,1.4 -10.6,1.5 -7.5,0 -9.1,-0.3 -10.8,-2 z m 21.2,-9.2 c -0.6,-0.6 -2.1,-0.7 -3.3,-0.3 -2.3,0.8 -2.3,0.8 -0.4,1.5 2.6,0.9 5,0.1 3.7,-1.2 z"
       id="path64" />
    <path
       d="m 980.7,510.4 c -0.4,-0.4 -0.7,-1.5 -0.7,-2.5 0,-1.1 -0.9,-1.9 -2.2,-2.1 -3.3,-0.4 -3.3,-3.4 -0.1,-6 7.2,-5.9 10,-9.6 10.6,-13.9 0.3,-2.6 1.4,-4.9 2.6,-5.8 1.8,-1.4 1.8,-1.8 0.6,-3.5 -0.8,-1 -1.2,-2.3 -0.9,-2.7 0.3,-0.5 0.7,-2.8 0.9,-5.1 0.2,-2.4 0.9,-6.3 1.4,-8.8 0.6,-2.5 1.5,-7.6 2.1,-11.5 0.6,-3.8 1.7,-10.9 2.6,-15.7 l 1.6,-8.8 h 4.9 c 4.4,0 4.9,0.3 5.5,2.5 0.3,1.4 0.3,3.2 0,4.1 -0.4,0.9 -1.3,6 -2.1,11.3 -0.8,5.3 -2.7,15.7 -4.1,23.1 -2.9,15.3 -3.9,24 -3,27.6 0.4,1.4 2.1,3.1 4.4,4.3 3.4,1.7 6.2,5.4 6.2,8.2 0,1.6 -4.8,2.9 -14.4,3.9 -5,0.5 -10.5,1.2 -12.1,1.5 -1.7,0.4 -3.3,0.3 -3.8,-0.1 z"
       id="path66" />
    <path
       d="m 1032,506.9 c -4.9,-2 -5.3,-6.1 -1,-10.9 3.2,-3.6 3.4,-5.8 1,-13.9 -1.7,-6 -2.2,-6.2 -13.5,-5.5 -11.9,0.8 -12.5,0.4 -11.7,-7.7 l 0.4,-4.6 8.6,-0.6 c 4.7,-0.4 8.9,-1 9.4,-1.5 0.9,-0.9 -2.7,-16.9 -6.3,-27.5 -1.1,-3.1 -2.1,-7.4 -2.2,-9.5 -0.1,-2 -0.6,-4.3 -1.1,-5.1 -0.5,-0.7 -1.9,-5.2 -3.2,-10 -1.2,-4.7 -3.2,-11.9 -4.3,-15.9 -1.4,-4.9 -1.9,-8.9 -1.5,-12 0.3,-2.6 0.7,-4.8 0.9,-5 0.4,-0.5 19.1,-2.1 27.7,-2.4 4,-0.1 7.2,0.2 7.9,0.9 0.6,0.6 2.1,5.1 3.4,9.9 1.2,4.9 3.7,14.1 5.5,20.4 1.8,6.3 3.3,12.9 3.4,14.6 0.1,1.8 0.6,3.8 1.2,4.5 1.3,1.7 4.7,12.1 6.9,21.3 0.9,3.8 2.1,8.1 2.7,9.5 2.1,5.5 5.8,21.6 5.3,23.2 -0.3,0.9 0.1,2.1 0.9,2.8 0.7,0.6 1.9,3.1 2.6,5.6 0.8,2.8 2,4.7 3.2,5 2.8,1 5.8,4.6 5.8,7.1 0,3.1 -3.6,5.4 -8.6,5.4 -3.4,0 -4.8,-0.6 -7.1,-3 -1.5,-1.6 -3.7,-3 -4.7,-3 -1.8,0 -1.8,0.1 -0.2,1.9 1.7,1.9 1.7,2 -0.7,3.5 -1.6,1.1 -6.5,1.9 -14.8,2.6 -14.4,1.1 -12.8,1.1 -15.9,-0.1 z"
       id="path68" />
    <path
       d="m 1127.5,502.4 c -3.3,-0.8 -6.9,-1.6 -8,-1.8 -7.2,-1.7 -10.5,-3.6 -16.5,-9.6 -15.8,-15.9 -20.6,-30.2 -20.4,-60.5 0.2,-27.1 6.5,-42 23.4,-55.8 5.7,-4.6 17.6,-9.5 20.5,-8.3 2,0.7 3.5,4.7 3.5,9.1 0,2.6 -0.6,3.9 -2.6,5.2 -4.7,3 -5.5,6.9 -5.4,24.3 0.1,8.7 0.6,17.6 1,19.7 0.8,3.7 1.2,9.4 2.5,35.3 1.1,21.3 1.2,21.7 3.4,24.9 1.2,1.7 3.3,3.4 4.7,3.7 3.3,0.8 4.4,3.2 4.4,9.8 0,6.5 -0.1,6.5 -10.5,4 z"
       id="path70" />
    <path
       d="m 1144.2,501.8 c -0.7,-0.7 -1.2,-3.5 -1.2,-6.4 v -5.1 l 6.4,-3.2 c 3.6,-1.7 8.4,-5.2 10.8,-7.7 3.6,-3.7 4.5,-5.5 5.6,-11.2 0.7,-3.7 1.7,-7.1 2.2,-7.5 0.4,-0.5 2.2,-1 4,-1 2.8,-0.2 3.5,0.3 5.2,3.5 1.7,3.2 1.8,4.2 0.8,8 -1.6,5.9 -8.4,18 -12.5,22.2 -6.1,6.4 -18.5,11.2 -21.3,8.4 z"
       id="path72" />
    <path
       d="m 1195.3,495.3 c -3.4,-2.3 -3.2,-7.7 0.5,-10 1.5,-0.9 3.2,-2.3 3.8,-3 1.1,-1.3 1.1,-10 -0.1,-20.3 -0.8,-7.1 -2.5,-33.3 -3.1,-48 -0.3,-7.4 -0.9,-16 -1.4,-19 -0.4,-3 -0.9,-7.4 -0.9,-9.8 -0.1,-4.9 -1.5,-8.2 -3.6,-8.2 -1.9,0 -5.5,-4.8 -5.5,-7.5 0,-3.7 5,-5.3 18.5,-6 6.6,-0.3 17,-0.8 23.1,-1.1 l 11,-0.7 2.2,2.8 c 2.9,3.7 2.8,5.9 -0.5,8.4 -1.6,1.2 -3.4,2.6 -4.1,3.2 -1.1,0.9 -1.2,4.4 -0.6,17 0.6,14.4 0.5,15.9 -1,15.9 -2.1,0 -2,0.6 0.4,4 1.2,1.8 2.1,5 2.5,9.1 1,13 2.4,33.7 3,43.9 0.8,13.1 1,13.7 4.6,15.6 1.6,0.8 3.5,2.6 4.1,3.9 1.3,3 0.3,7.2 -2,7.9 -2.3,0.7 -38.4,3.6 -44.2,3.5 -2.5,0 -5.5,-0.7 -6.7,-1.6 z"
       id="path74" />
    <path
       d="m 1253.9,491.8 c -2,-1.7 -4.1,-5.5 -3.1,-6 1.9,-0.8 5.2,-7.1 5.2,-9.8 0,-1.8 -1.3,-6.2 -2.9,-9.8 -1.6,-3.7 -3.9,-9.8 -5.1,-13.7 -1.2,-3.8 -3.2,-9.7 -4.4,-13 -2.8,-7.4 -2.6,-13.7 0.5,-19.1 1.2,-2.1 2.9,-5.2 3.7,-6.9 0.9,-1.6 2.6,-4.4 3.9,-6.1 1.3,-1.7 2.3,-3.5 2.3,-3.9 0,-0.5 2,-4.8 4.5,-9.6 5.6,-11 5.9,-14.8 1.2,-19.2 -1.8,-1.8 -4,-3.6 -4.9,-4.2 -2.5,-1.6 -3.1,-6 -1,-8.4 1.5,-1.9 2.8,-2.2 9.2,-2.2 4.1,0 9.1,0 11,0 11.7,-0.2 20.1,0.7 21.1,2.2 2.6,4.1 -0.1,8.9 -7.1,12.4 -2.7,1.4 -6,3.9 -7.4,5.7 -3.7,5 -10.6,17.5 -10.6,19.4 0,3.1 2.1,8.6 8.3,22.4 1.4,3 3.6,8.2 5,11.5 6,14.5 7.1,17.3 9.2,22 1.2,2.8 2.6,6.1 3,7.5 1.7,6 5.7,12.8 9.4,16.3 4.5,4.2 5.1,6.5 2.4,9 -3.3,2.8 -50.3,5.9 -53.4,3.5 z"
       id="path76" />
    <path
       d="m 1321.2,487.4 c -2.8,-1.9 -3.1,-8.1 -0.4,-9.1 0.9,-0.4 2.5,-1.6 3.5,-2.8 1.5,-1.8 1.7,-3.5 1.3,-14.5 -0.3,-6.9 -0.9,-17.4 -1.5,-23.5 -0.6,-6 -1.3,-16.4 -1.5,-23 -0.7,-15.8 -2.4,-38.4 -3.1,-41.3 -0.3,-1.2 -2,-3.1 -3.7,-4.2 -1.7,-1 -3.7,-3.2 -4.3,-4.8 -1.2,-2.7 -1.1,-3.1 2,-5.5 3.2,-2.6 3.7,-2.6 23.3,-3.3 19.7,-0.7 20,-0.7 21.1,1.4 0.6,1.2 1.6,10.8 2.1,21.4 0.6,10.6 1.7,27.9 2.5,38.3 1.3,16.6 3.3,51.3 3.4,57 0,1.1 0.3,4.1 0.7,6.6 0.4,3.1 0.2,4.9 -0.6,5.4 -1.1,0.7 -31,3.4 -38.5,3.5 -2.2,0 -5.1,-0.7 -6.3,-1.6 z"
       id="path78" />
    <path
       d="m 1373.3,483.9 c -1.8,-1.8 -1.6,-7.5 0.3,-9.4 0.9,-0.8 3.3,-2.4 5.3,-3.5 7.6,-3.8 14.4,-13 18,-24.3 2.3,-6.9 8.3,-7.4 10,-0.9 1.4,5.2 3.3,35.4 2.3,36.4 -1.4,1.4 -5.2,1.9 -20.2,2.4 -11,0.4 -14.8,0.2 -15.7,-0.7 z"
       id="path80" />
    <path
       d="m 1422.6,480.1 c -0.9,-0.9 -1.6,-3.4 -1.6,-5.3 0,-3 0.5,-3.7 3,-4.8 3.2,-1.3 5.3,-6.2 4.4,-10.3 -0.3,-1.2 -0.7,-5.8 -0.9,-10.2 -0.3,-4.4 -1,-16.7 -1.6,-27.4 -1,-16.3 -1,-19.5 0.2,-20.2 1.2,-0.8 1.1,-1.2 -0.5,-2.4 -1.6,-1.2 -1.9,-3.6 -2.7,-17.6 -0.5,-9.1 -1.4,-16.8 -2.1,-17.6 -0.6,-0.7 -2.6,-2.1 -4.4,-2.9 -3,-1.4 -3.4,-2.1 -3.4,-5.5 0,-4.9 1.6,-5.8 12.2,-6.5 33.4,-2.2 32.2,-2.1 34,-0.5 1.4,1.3 1.8,4 2.2,13.1 0.9,20.2 2.7,47.9 5.6,87 2,27.5 2,28.9 0.2,29.9 -1.9,1 -15.2,2.1 -31.8,2.7 -9.8,0.3 -11.3,0.1 -12.8,-1.5 z"
       id="path82" />
    <path
       d="m 1476.1,477.3 c -1.6,-1.1 -2.1,-2.5 -2.1,-6.3 0,-4.4 0.2,-4.9 2.9,-5.8 1.6,-0.6 3.5,-2 4.1,-3.2 1.4,-2.6 1.4,-20.9 0,-34.3 -1,-10.6 -1.5,-28.5 -0.7,-29.3 0.2,-0.3 -0.2,-1.8 -0.9,-3.4 -0.8,-1.5 -1.4,-4.1 -1.3,-5.7 0.2,-3.3 -0.9,-17.5 -1.7,-21.8 -0.3,-1.9 -2.3,-4.5 -5.1,-7.1 -3.9,-3.5 -4.6,-4.7 -4.9,-8.6 -0.4,-4.2 -0.2,-4.6 2.1,-5.2 4.1,-1 14.5,1.3 21,4.7 20.2,10.6 32.2,36.6 31.2,67.7 -0.5,13.3 -2.1,22.3 -5.3,27.9 -1.3,2.4 -2.4,4.9 -2.4,5.6 0,2.4 -10,15.4 -14.2,18.4 -9.1,6.6 -18.7,9.3 -22.7,6.4 z"
       id="path84" />
    <path
       d="m 1382.2,441.7 c -1.2,-1.3 -2.2,-2.9 -2.2,-3.6 0,-2.9 -5.5,-11.2 -8.7,-13.1 -3.1,-1.8 -3.3,-2.3 -3.3,-7.3 0,-4.2 0.5,-5.8 2.1,-7.3 4.5,-4 8.1,-10.5 7.6,-13.3 -0.7,-3.3 1.6,-7.1 4.2,-7.1 1.1,0 2.8,0.8 4,1.8 1.7,1.4 2.2,3.2 2.6,10.2 0.3,4.7 1,12.6 1.5,17.5 1.1,10.4 1.3,20.6 0.4,22.9 -0.9,2.4 -5.7,2 -8.2,-0.7 z"
       id="path86" />
    <path
       d="m 1001.7,420.4 c -1.6,-1.7 0.1,-14.1 2.4,-16.7 0.9,-1.1 5.1,9.8 5.3,13.8 0.1,2.7 -0.2,3 -3.4,3.3 -2,0.2 -3.9,0 -4.3,-0.4 z"
       id="path88" />
    <path
       d="m 1164.6,414.9 c -1.4,-1.7 -2.9,-4.3 -3.2,-5.7 -1.4,-5.6 -8.7,-18.5 -12.7,-22.6 -2.3,-2.3 -6.3,-5.3 -8.7,-6.7 -4.1,-2.2 -4.5,-2.8 -5.2,-7.4 -0.4,-2.7 -0.5,-5.2 -0.2,-5.7 0.9,-1.5 6.4,-0.8 13.6,1.7 9.3,3.3 10.7,3.2 12.1,-0.5 0.7,-1.9 1.9,-3 3.2,-3.1 7.4,-0.5 8.1,1 9.4,19 0.6,9.7 0.7,15.9 0.1,16.6 -0.6,0.7 -0.6,1.5 0.1,2.2 0.5,0.5 1.3,3.5 1.6,6.5 0.4,4.3 0.2,5.8 -1.2,7.1 -2.6,2.6 -6,2.1 -8.9,-1.4 z"
       id="path90" />
    <path
       d="m 1394.8,390.9 c -1,-0.5 -3.1,-3.8 -4.9,-7.2 -3.8,-7.6 -5.3,-9.5 -10.8,-13.5 -3.1,-2.3 -5.5,-3.2 -8.2,-3.2 -5.1,0 -6.6,-1.8 -6.8,-8.4 l -0.2,-5.6 5.3,-0.1 c 7.7,-0.2 12.5,-0.5 19.9,-1.4 11,-1.3 11.1,-1.1 12.4,22 0.3,5.5 0.8,11.1 1.1,12.4 0.9,4.4 -3.7,7.4 -7.8,5 z"
       id="path92" />
    <path
       d="m 720,259.3 c 0,-1 0.6,-4 1.3,-6.8 1.4,-5.3 3.1,-6.4 8.3,-5.1 3.5,0.9 3.4,7.7 -0.1,11.1 -3,3.1 -9.5,3.6 -9.5,0.8 z"
       id="path94" />
    <path
       d="m 830.9,264.8 c 4.9,-11.2 7.1,-15.3 6.6,-12.3 -0.2,1.7 -0.7,6 -1.1,9.8 l -0.6,6.7 h -3.4 -3.3 z"
       id="path96" />
    <path
       d="m 354.2,232.9 c -1.5,-10.9 -6.1,-25.3 -10.5,-33.2 -12.8,-22.6 -37.1,-37.2 -65.5,-39.4 l -8.5,-0.6 0.7,-5.6 c 2.3,-21.4 13.4,-43.3 27.4,-54.6 6.7,-5.4 17.2,-10.7 25.7,-13 8.3,-2.2 27.2,-3 36.5,-1.6 16.4,2.6 30.3,9.6 43,21.8 11.9,11.3 19.9,24.2 22,35.5 5,25.9 2.3,47.6 -7.9,64.7 -5.7,9.6 -16.8,19.7 -28,25.5 -8.8,4.6 -24.9,9.6 -30.6,9.6 h -3.1 z"
       id="path98" />
    <path
       d="m 468.4,203.1 c -4.9,-2.2 -8,-6 -9.5,-11.5 -1,-3.6 -0.5,-7.7 3.7,-31.8 l 4.9,-27.8 h 11.3 c 6.1,0 11.2,0.3 11.2,0.8 0,0.4 -1.4,8.4 -3.1,17.7 -1.7,9.4 -3.3,19.7 -3.6,23.1 -0.5,5.6 -0.4,6.2 1.8,7.8 2.8,1.9 17.3,2.3 21.3,0.4 4.2,-1.9 5.3,-4.7 8.7,-23.1 l 3.3,-17.6 -6.2,-12.3 C 508.9,122 501.5,108 496,97.5 c -5.6,-10.4 -11.1,-21.2 -12.2,-24 -2.9,-6.9 -2.6,-14.1 1.5,-37.6 3.9,-22.8 5.7,-27.1 13.5,-31.6 4.7,-2.8 4.9,-2.8 25.1,-3.1 22.2,-0.4 27,0.3 31.5,4.4 7.3,6.9 7.5,9.5 2.6,38.6 -2.2,13.4 -4.3,25.1 -4.6,26.1 -0.5,1.5 -1.9,1.7 -11.6,1.7 h -11 l 0.7,-4.2 c 0.4,-2.4 1.7,-10.1 3,-17.3 3.8,-20.8 3.9,-22.2 2.1,-25 C 535,23.1 534.5,23 525,23 c -13.7,0 -14.2,0.5 -17.7,17 -1.4,6.9 -2.6,15.7 -2.7,19.6 -0.1,8.4 1.5,12 17,38.4 13.4,22.9 17.5,31.5 18,38.7 0.4,4.2 -0.7,12.4 -3.9,29.9 -4.8,26 -5.9,28.9 -12.8,34 -5.2,3.8 -9.1,4.4 -30.4,4.4 -17.3,0 -20.5,-0.3 -24.1,-1.9 z"
       id="path100" />
    <path
       d="m 794,203.9 c 0,-1.1 4.9,-29 10.5,-59.4 1.3,-7.1 4.9,-27.2 8,-44.5 3.1,-17.3 8.1,-44.8 11,-61 2.9,-16.2 5.6,-31.4 6,-33.7 L 830.2,1 h 28.4 c 23.4,0 29.1,0.3 32.2,1.5 7.1,3 11.2,8.6 11.2,15.5 0,5.8 -11.9,71.9 -13.5,75 -1.7,3.2 -7.1,8.3 -10.8,10.2 l -2.9,1.5 2.7,1.7 c 4.3,2.8 6.5,7.4 6.4,13.6 0,3 -3.3,23.3 -7.3,45 l -7.2,39.5 -11.7,0.3 c -9,0.2 -11.7,0 -11.7,-1 0,-0.7 0.7,-5.1 1.5,-9.8 0.9,-4.7 2.9,-16.4 4.6,-26 1.7,-9.6 3.7,-21.1 4.5,-25.5 0.8,-4.4 1.9,-11.6 2.6,-15.9 l 1.2,-7.9 -2.8,-2.4 c -2.6,-2.2 -3.5,-2.3 -13.4,-2.1 l -10.6,0.3 -0.8,4 c -0.4,2.2 -2.8,15.7 -5.3,30 -2.6,14.3 -5.9,32.8 -7.4,41 l -2.8,15 -11.6,0.3 C 797.1,205 794,204.7 794,203.9 Z M 863.7,88.5 c 1.3,-0.9 2.7,-3.2 3.2,-5.3 1.4,-5.4 10.1,-52.5 10.1,-54.8 0,-1.2 -1.1,-3 -2.4,-4.3 -2.1,-2 -3.1,-2.1 -13.2,-1.9 l -10.9,0.3 -2.6,14.5 c -5.7,30.6 -8.9,48.8 -8.9,50.8 0,2.1 0.4,2.2 11.3,2.2 8.5,0 11.8,-0.4 13.4,-1.5 z"
       id="path102" />
    <path
       d="m 1603.2,196.3 c -0.2,-7.7 0.1,-9.3 1.3,-9.3 0.8,0 1.5,0.5 1.5,1 0,0.6 -0.4,1 -1,1 -0.5,0 -1.1,3.7 -1.3,8.3 l -0.3,8.2 z"
       id="path104" />
    <path
       d="m 1611.6,204.1 c -0.4,-0.6 -0.1,-1.7 0.7,-2.5 0.7,-0.8 2.2,-3.5 3.1,-6.1 1,-2.5 2,-4.4 2.2,-4.2 0.3,0.2 -0.9,3.5 -2.4,7.2 -1.7,3.8 -3.2,6.2 -3.6,5.6 z"
       id="path106" />
    <path
       d="m 1620,196.9 c 0,-5.7 -0.3,-7.8 -1.1,-7.3 -0.7,0.4 -1,0.1 -0.7,-0.7 0.3,-0.8 1.2,-1.5 2.1,-1.7 1.5,-0.3 1.7,0.8 1.7,8.7 0,5.4 -0.4,9.1 -1,9.1 -0.6,0 -1,-3.4 -1,-8.1 z"
       id="path108" />
    <path
       d="m 558.4,202.1 c -4.4,-2.7 -7,-6.4 -8.3,-11.9 -1.3,-5 -2.1,-0.1 16,-99.2 2.2,-12.4 6.9,-37.8 10.3,-56.5 l 6.1,-34 11.3,-0.3 c 6.1,-0.1 11.2,0.1 11.2,0.5 0,0.4 -2.2,13 -5,27.8 -2.7,14.9 -5.2,28.4 -5.5,30 -0.3,1.7 -2.3,12.7 -4.4,24.5 -2.2,11.8 -5.3,29.4 -7.1,39 -1.7,9.6 -3.5,19.8 -4.1,22.5 -0.5,2.8 -2.1,11.2 -3.5,18.7 -3.3,18.4 -2.6,19.8 11.1,19.8 8,0 12.7,-1.6 14.4,-4.8 0.9,-1.6 7.2,-35 18.6,-98.7 2.7,-14.9 13.7,-74.6 14.1,-76.7 L 634.2,0 h 11.4 c 7.3,0 11.4,0.4 11.4,1 0,0.6 -2.4,14.2 -5.4,30.3 -3,16.1 -8,43.1 -11.1,60.2 -3.1,17.1 -8.1,44.3 -11.1,60.5 -3,16.2 -5.7,31.1 -6,33 -1.3,7.6 -6.7,14.6 -13.6,17.4 -3,1.3 -8.1,1.6 -26,1.6 -20.1,0 -22.6,-0.2 -25.4,-1.9 z"
       id="path110" />
    <path
       d="m 637,202.8 c 0,-2 1.1,-8.3 13.5,-75.8 6.4,-34.9 12.1,-66 12.6,-69 0.5,-3 3.1,-17.2 5.7,-31.5 l 4.8,-26 25.5,-0.3 c 27.8,-0.3 34.2,0.5 38.9,4.5 6.2,5.2 7.3,11.3 4.6,25.4 -0.8,4.1 -2.7,14.2 -4.1,22.4 -9.3,52.1 -9.3,52.2 -18.8,57 -4.9,2.4 -5.8,2.5 -23.9,2.5 -18.6,0 -18.8,0 -19.2,2.3 -0.5,2.2 -2,9.9 -5,26.7 -3.3,18.4 -9.7,52.8 -10.7,57.8 l -1,5.2 h -11.5 c -8.5,0 -11.4,-0.3 -11.4,-1.2 z M 706.7,88.5 c 1.4,-1 2.6,-3.7 3.7,-8.2 C 713,69 720,31.6 720,28.7 c 0,-1.5 -0.9,-3.6 -2,-4.7 -1.9,-1.9 -3.1,-2 -13.8,-1.8 l -11.7,0.3 -2.1,11.5 c -1.2,6.3 -3.8,20.7 -5.8,32 -2.1,11.3 -4,21.3 -4.2,22.3 -0.5,1.5 0.5,1.7 11.8,1.7 9.3,0 12.9,-0.4 14.5,-1.5 z"
       id="path112" />
    <path
       d="m 724,203.3 c 0,-0.5 2.9,-16.8 6.5,-36.3 3.6,-19.5 7.2,-39.3 8,-44 0.9,-4.7 2.9,-15.9 4.6,-25 1.7,-9.1 3.4,-18.7 3.9,-21.5 1.5,-8.5 11.9,-65.7 13.1,-71.2 l 1,-5.3 h 27 c 20.9,0 26.9,0.3 26.8,1.3 0,0.6 -0.8,5.7 -1.8,11.2 l -1.7,10 -15.7,0.3 C 784.1,23 780,23.4 780,24.3 c 0,1.2 -1.5,10 -6,35.2 -1.2,6.6 -2.6,14.5 -3.1,17.5 -0.5,3 -1.1,6.7 -1.5,8.3 l -0.6,2.7 h 15.1 c 8.3,0 15.1,0.4 15.1,0.9 0,0.9 -2.7,16 -3.5,19.8 -0.5,2.2 -0.9,2.3 -15.7,2.5 l -15.3,0.3 -6.2,34 c -3.4,18.7 -6.3,34.8 -6.3,35.8 0,1.5 1.4,1.7 15,1.7 8.3,0 15,0.3 14.9,0.8 0,0.4 -0.8,5 -1.8,10.2 l -1.7,9.5 -27.2,0.3 c -15,0.1 -27.2,-0.1 -27.2,-0.5 z"
       id="path114" />
    <path
       d="m 921.5,201.8 c 0.5,-2.4 5.3,-28.5 12.4,-67.8 5.1,-28.2 11.8,-64.6 18.1,-99 2.6,-14.6 5.1,-28.4 5.5,-30.8 L 958.2,0 h 11.8 11.8 l 0.6,4.2 c 2.6,18.2 9.4,105.2 10.2,131 0.4,11.4 1.1,20.5 1.6,20.2 0.4,-0.3 0.8,-3.2 0.8,-6.5 0,-11.6 5.3,-52 12.1,-92.4 4,-23.8 8.9,-51.4 9.6,-54.2 0.5,-2.2 0.9,-2.3 12.2,-2.3 h 11.7 l -7.3,39.7 c -4,21.9 -7.7,42.3 -8.2,45.3 -0.5,3 -4.8,26.7 -9.6,52.5 -4.7,25.9 -9.3,50.8 -10.1,55.5 -0.8,4.7 -1.6,9.1 -1.9,9.8 -0.3,0.9 -3.7,1.2 -12.3,1.2 h -11.8 l -1.3,-13.2 c -0.7,-7.3 -1.6,-18 -2.1,-23.8 -0.5,-5.8 -1.6,-18.6 -2.5,-28.5 C 971,109.3 969,77.3 969,64.8 969,57.6 968.6,53 968,53 c -0.5,0 -1,2.2 -1,4.9 0,14.3 -8.5,72 -20.8,141.1 l -0.8,4.5 -12.2,0.3 -12.3,0.3 z"
       id="path116" />
    <path
       d="m 1023,202.3 c 0,-1 1.1,-7.8 2.5,-15.3 2.9,-15.5 10.8,-59.1 19,-105 3.1,-17.3 6.7,-37.3 8,-44.5 1.3,-7.2 3.3,-18.5 4.6,-25.2 L 1059.3,0 h 11.9 c 11.8,0 11.8,0 11.4,2.3 -0.9,3.9 -2.5,12.8 -4.5,24.2 -1.1,6.1 -7.1,39.4 -13.5,74 -6.3,34.7 -11.8,64.4 -12.1,66 -0.3,1.7 -1.9,10.4 -3.5,19.3 -1.7,9 -3,16.8 -3,17.3 0,0.5 -5.2,0.9 -11.5,0.9 -10.2,0 -11.5,-0.2 -11.5,-1.7 z"
       id="path118" />
    <path
       d="m 1066.4,200.8 c 0.7,-3.7 23.2,-126.5 24.6,-134.3 0.5,-2.7 3.4,-18.7 6.4,-35.3 3.1,-16.7 5.6,-30.6 5.6,-30.8 0,-0.2 5.4,-0.4 11.9,-0.4 h 11.9 l 0.7,6.8 c 0.3,3.7 1.3,13.2 2,21.2 4.8,48.8 8.4,100.2 8.5,120 0.1,11.8 1.6,8.1 2.3,-5.5 1.1,-21.1 6.9,-60.3 19,-129 l 2.3,-13 11.7,-0.3 c 8.8,-0.2 11.7,0 11.7,1 0,0.7 -1.1,7.3 -2.5,14.8 -3.7,19.8 -8,43.6 -25.6,140 -2.1,11.8 -4.8,26.7 -6,33 -1.1,6.3 -2.3,12.3 -2.5,13.3 -0.5,1.5 -2,1.7 -12.4,1.7 h -11.8 l -0.6,-7.2 c -0.4,-4 -1.1,-11.6 -1.6,-16.8 -3.5,-35.5 -6.8,-78.9 -8.1,-105 -0.6,-12.4 -1.2,-22.6 -1.3,-22.8 -0.2,-0.1 -0.6,4.2 -0.9,9.5 -0.7,10.7 -3.9,36.6 -6.2,50.8 -6.9,42.6 -12.9,77.9 -14.6,86.3 l -1,5.2 h -12.1 -12 z"
       id="path120" />
    <path
       d="m 1175,203.5 c 0,-0.3 4.9,-26.9 10.9,-59.3 6.1,-32.3 11.9,-63.6 13,-69.7 1.1,-6 3.6,-19.7 5.5,-30.3 2,-10.6 3.6,-19.7 3.6,-20.2 0,-0.6 -3.8,-1 -8.5,-1 -9.9,0 -9.3,1.2 -6.7,-13 l 1.8,-9.5 29.2,-0.3 29.3,-0.2 -0.6,3.2 c -0.4,1.8 -1.4,6.9 -2.3,11.3 l -1.7,8 -8.5,0.5 -8.5,0.5 -3.7,20.5 c -9.5,51.5 -13.2,71.5 -20.9,114.3 l -8.3,45.7 h -11.8 c -6.5,0 -11.8,-0.2 -11.8,-0.5 z"
       id="path122" />
    <path
       d="m 1228.5,199.3 c 0.3,-2.7 2.6,-15.4 5,-28.3 9.3,-50.6 11.7,-63.7 12.5,-68.5 1.9,-11.3 18.1,-99.1 18.6,-100.7 0.5,-1.7 2.7,-1.8 27.5,-1.8 25.3,0 27,0.1 26.5,1.8 -0.2,0.9 -1,5.1 -1.6,9.2 -2,13.5 0.2,12 -17.5,12 -8.5,0 -15.5,0.2 -15.5,0.5 0,0.3 -2.5,14.5 -5.5,31.5 -3,17 -5.5,31.4 -5.5,32 0,0.6 5.7,1 15.1,1 h 15.1 l -0.5,2.3 c -0.3,1.2 -1.3,6.4 -2.3,11.5 l -1.7,9.2 h -15.1 -15.1 l -6.3,34.3 c -3.5,18.8 -6.3,35 -6.2,36 0,1.5 1.4,1.7 14.8,1.7 h 14.8 l -1.7,10.3 c -1,5.6 -1.8,10.3 -1.8,10.5 -0.1,0.1 -12.3,0.2 -27.2,0.2 h -27.1 z"
       id="path124" />
    <path
       d="m 1300,202.6 c 0,-0.7 0.5,-3.8 1.1,-6.7 0.5,-3 1.4,-7.6 1.9,-10.4 0.5,-2.7 6.1,-33.6 12.5,-68.5 6.4,-34.9 12.2,-66.9 12.9,-71 5.2,-29.3 7.9,-43.7 8.2,-44.8 0.2,-0.9 3.6,-1.2 12.2,-1.2 h 11.8 l 1.3,13.8 c 0.7,7.5 1.6,18 2.1,23.2 2.8,28.3 5.2,60.8 7.8,106 0.7,13.1 0.8,13.3 1.5,6.5 0.3,-3.8 1.4,-14.2 2.2,-23 1.8,-17.2 8.3,-60.6 14,-93 1.9,-11 4,-23 4.7,-26.7 l 1.1,-6.8 h 11.9 12 l -0.6,2.7 c -0.6,3 -19.1,104.2 -20.6,112.8 -0.5,2.8 -4.3,23.6 -8.4,46.3 -4.2,22.7 -7.6,41.5 -7.6,41.7 0,0.3 -5.4,0.5 -12,0.5 -6.6,0 -12,-0.3 -12,-0.7 0,-0.5 -0.4,-4.6 -1,-9.3 -0.5,-4.7 -1.4,-13.9 -1.9,-20.5 -0.6,-6.6 -2,-22.3 -3.1,-35 -2.5,-29.5 -5,-68.8 -5,-78.9 0,-4.4 -0.2,-7.7 -0.4,-7.5 -0.2,0.2 -0.9,6.5 -1.6,13.9 -1.8,21.6 -7.9,62.3 -17.6,117.5 -1.3,7.7 -2.6,15.5 -2.9,17.3 l -0.6,3.2 H 1312 c -9.5,0 -12,-0.3 -12,-1.4 z"
       id="path126" />
    <path
       d="m 1401,202.5 c 0,-0.9 3,-17.6 6.6,-37.3 3.6,-19.6 6.9,-37.9 7.4,-40.7 0.5,-2.7 4.7,-26.1 9.5,-52 7.7,-42.3 10.1,-55.2 12.4,-68 l 0.7,-4 h 29.9 c 33.1,0 33.4,0.1 38.9,6.5 4.5,5.4 5,9.6 2.6,21.8 -1.1,5.9 -6.3,34.3 -11.5,63.2 -5.2,28.9 -11.3,62.6 -13.6,75 -4.5,25 -5.9,28.6 -12.7,33.5 l -4.4,3 -32.9,0.3 c -29.4,0.2 -32.9,0.1 -32.9,-1.3 z m 54.3,-21.5 c 1.4,-1.1 3,-3.5 3.6,-5.3 0.8,-2.4 10.6,-54.9 18.6,-99.2 0.3,-1.6 2.3,-12.7 4.5,-24.7 2.2,-11.9 4,-22.5 4,-23.5 0,-1.1 -1.1,-2.9 -2.3,-4.2 -2.2,-2 -3.2,-2.1 -14.8,-1.9 l -12.4,0.3 -1.7,10 c -1,5.5 -3.2,17.4 -4.8,26.5 -1.7,9.1 -5.9,32.7 -9.5,52.5 -3.6,19.8 -7.9,43.4 -9.5,52.5 -1.7,9.1 -3,16.8 -3,17.2 0,0.4 5.1,0.9 11.3,1.1 6.1,0.1 11.7,0.4 12.3,0.5 0.6,0.1 2.3,-0.7 3.7,-1.8 z"
       id="path128" />
    <path
       d="m 1510,203.3 c -6.3,-2.4 -10.9,-9.5 -11,-16.8 0,-4.5 -0.5,-1.5 15.5,-91 6.4,-35.7 12,-67.3 12.5,-70.2 1.6,-9.6 3.4,-13.7 7.6,-17.9 6.3,-6.4 8.9,-6.9 32.9,-6.9 17.7,0 21.5,0.3 24,1.7 4.8,2.6 8.3,7 9.6,12 1.2,4.3 0.4,9.7 -13.9,89.8 -17,95.6 -15.9,91.5 -25.5,97 l -5.2,3 -22.5,-0.1 c -12.4,0 -23.2,-0.3 -24,-0.6 z m 37.9,-22.8 c 3,-2.6 3.8,-4.9 6,-18.5 0.6,-3 4.8,-27.1 9.6,-53.5 9.3,-52 10.9,-61.1 12.9,-72.5 2.1,-12.1 0.5,-14 -12.4,-14 -9.2,0 -13.2,1.6 -14.9,5.9 -0.6,1.4 -1.7,6.4 -2.6,11.1 -4.4,24.6 -6.9,38.3 -11.9,66.5 -3,17.1 -7.1,39.7 -9,50.4 -4.7,26 -4.2,27.1 10.5,27.1 7.9,0 9,-0.2 11.8,-2.5 z"
       id="path130" />
    <path
       d="m 1607.2,193.5 c -1.7,-3.7 -1.4,-4.5 0.4,-1.2 0.9,1.6 1.4,3.1 1.1,3.3 -0.2,0.2 -0.9,-0.7 -1.5,-2.1 z"
       id="path132" />
  </g>
  <g
     fill="#160202"
     id="g342"
     transform="translate(-0.97649491)">
    <path
       d="m 828.5,587.4 c -5.5,-1.4 -11.6,-3.7 -11.2,-4.1 0.3,-0.2 2.6,0.3 5.1,1.1 6.8,2.3 20.6,2 68.6,-1.5 24.8,-1.8 45.3,-3 90.3,-5.4 3.7,-0.2 7.1,-0.6 7.5,-0.9 0.4,-0.2 9.1,-0.8 19.2,-1.2 10.2,-0.3 19,-1.1 19.7,-1.6 0.6,-0.5 10.5,-1.1 22,-1.4 11.4,-0.3 23.3,-1 26.3,-1.6 3,-0.6 12.5,-1.2 21.1,-1.3 8.6,-0.1 16,-0.4 16.5,-0.7 2.1,-1.2 8.9,-1.8 23.9,-1.9 8.8,-0.1 17,-0.5 18.2,-1 1.3,-0.5 9.6,-1.1 18.5,-1.4 9,-0.3 19.1,-1 22.6,-1.6 3.4,-0.5 12.5,-1.2 20.3,-1.5 7.7,-0.3 18.1,-0.9 23,-1.3 5,-0.4 9.3,-0.3 9.5,0.1 0.6,0.9 -0.1,1 -6.6,1.4 -2.5,0.1 -7.4,0.4 -11,0.7 -14.2,1.2 -34.4,2.7 -43,3.2 -11.7,0.7 -26,1.6 -38.5,2.5 -28.8,2.1 -42.5,3 -53.5,3.5 -6.3,0.3 -14.9,0.9 -19,1.4 -4.1,0.6 -16.4,1.2 -27.3,1.5 -10.9,0.3 -20.3,0.9 -20.9,1.2 -0.5,0.4 -4.2,0.8 -8.1,1 -13.2,0.8 -53.1,3.4 -58.2,3.9 -2.7,0.2 -14.7,0.9 -26.5,1.5 -11.8,0.6 -24.2,1.3 -27.5,1.6 -6.8,0.7 -10,0.9 -27.5,1.9 -6.9,0.3 -13.8,0.8 -15.5,1.1 -5.1,0.7 -35.9,1.3 -38,0.8 z"
       id="path136" />
    <path
       d="m 807.3,576.9 c -1,-0.4 1,-0.8 4.7,-0.8 6.8,0.1 7.1,0.5 0.8,1.1 -2,0.2 -4.5,0.1 -5.5,-0.3 z"
       id="path138" />
    <path
       d="m 993.3,571.3 c -1,-0.3 -1,-0.9 0,-2.4 1.6,-2.6 3.9,-2.5 3.5,0.3 -0.3,2.2 -1.5,3 -3.5,2.1 z"
       id="path140" />
    <path
       d="m 904.9,569.9 c -0.8,-0.5 -3.4,-0.6 -5.9,-0.2 -4.1,0.5 -4.4,0.4 -3.2,-1 0.9,-1 2.8,-1.6 5,-1.6 2.1,0.1 7,-0.2 11,-0.6 6.3,-0.7 7.2,-0.6 7.2,0.9 0,1.2 -0.6,1.5 -2.5,1 -1.7,-0.4 -2.5,-0.2 -2.5,0.6 0,0.9 -0.7,0.6 -2.1,-0.6 -2.1,-1.9 -2.1,-1.8 -3.8,0.3 -1.2,1.5 -2.2,1.8 -3.2,1.2 z"
       id="path142" />
    <path
       d="m 954.6,564.7 c -1.8,-1.3 -1.8,-1.4 0.5,-2 1.3,-0.3 5,-0.9 8.2,-1.2 4.7,-0.6 5.7,-0.5 5.7,0.8 0,1.1 -1.4,1.6 -4.7,1.9 -2.7,0.3 -5.5,0.8 -6.3,1.1 -0.9,0.4 -2.4,0.1 -3.4,-0.6 z"
       id="path144" />
    <path
       d="m 1037.7,562.9 c 0.6,-0.6 3.3,-1.3 6,-1.5 2.6,-0.1 3.7,0 2.3,0.2 -1.4,0.3 -2.9,1 -3.4,1.5 -0.6,0.5 -2.1,0.9 -3.5,0.9 -1.8,0 -2.2,-0.3 -1.4,-1.1 z"
       id="path146" />
    <path
       d="m 986.9,560.3 c -1.2,-1.4 -0.9,-1.4 11.4,-1.5 4.4,0 6.7,0.6 5.6,1.6 -0.2,0.2 -3.9,0.6 -8.2,0.8 -5.6,0.3 -8,0.1 -8.8,-0.9 z"
       id="path148" />
    <path
       d="m 1286.6,557.3 c -0.1,-0.2 -3.7,-0.4 -7.9,-0.6 -4.2,-0.2 -8,-0.7 -8.4,-1.1 -0.5,-0.4 4.8,-0.5 11.6,-0.2 13.4,0.7 12.5,1.1 10.4,-4.1 -0.3,-0.8 0.3,-1.3 1.6,-1.3 2.2,0 2.5,1 1.5,4.7 -0.4,1.6 -1.5,2.2 -4.5,2.5 -2.2,0.2 -4.1,0.2 -4.3,0.1 z"
       id="path150" />
    <path
       d="m 1309.5,557 c -2.3,-1 -2.6,-0.9 8,-1.6 4.4,-0.2 10,-0.7 12.5,-1 5.9,-0.7 27.7,-2.1 46,-3 8,-0.3 14.7,-0.9 15,-1.3 0.3,-0.3 5,-0.8 10.5,-0.9 12,-0.4 24,-1 31.5,-1.7 3,-0.3 16.3,-1.2 29.5,-2 13.2,-0.8 31.2,-2 39.9,-2.5 8.8,-0.6 16.6,-0.8 17.4,-0.5 0.7,0.3 2.2,0 3.2,-0.5 1.1,-0.6 7.4,-1.3 14.1,-1.6 7.2,-0.3 13.6,-1.1 15.7,-1.9 1.9,-0.8 3.7,-1.3 4.2,-1 0.4,0.2 2.9,-1 5.6,-2.7 9.3,-5.9 15.3,-13.5 18.4,-23.8 2.1,-6.8 2.2,-8.5 1.6,-21.5 -1,-19.3 -2.2,-36.8 -2.5,-38 -0.6,-2 -0.1,-9.8 0.6,-9.1 0.7,0.7 2.6,24.4 3.9,49.1 0.8,14.4 -0.3,20.5 -5.4,29.8 -4.5,8.3 -16.5,17.6 -24.6,19.1 -1.4,0.2 -2.9,0.7 -3.3,0.9 -0.5,0.3 -5.3,0.8 -10.8,1.1 -5.5,0.3 -12.2,0.8 -15,1.1 -2.7,0.3 -10.6,0.8 -17.5,1.1 -22.9,1.2 -24.5,1.3 -29.5,1.8 -6.6,0.6 -19.4,1.5 -33,2.2 -6,0.3 -11.7,0.7 -12.5,0.9 -0.8,0.2 -7.8,0.7 -15.5,1 -7.7,0.4 -16.2,0.8 -19,1 -14.1,1.1 -35.9,2.6 -52,3.5 -19.2,1.1 -28.5,1.8 -32.5,2.5 -1.4,0.2 -3.4,0 -4.5,-0.5 z"
       id="path152" />
    <path
       d="m 1077.1,555.6 c -0.6,-0.7 -2.2,-1.1 -3.5,-0.9 -1.3,0.3 -2.6,0.1 -2.9,-0.4 -0.3,-0.4 11,-0.9 25.1,-1 29.1,-0.1 31.7,1.4 3.8,2.2 -9.4,0.3 -18.1,0.8 -19.2,1 -1.2,0.3 -2.7,-0.1 -3.3,-0.9 z"
       id="path154" />
    <path
       d="m 1134,555.5 c -0.7,-0.8 -2.8,-1.5 -4.6,-1.5 -1.9,0 -3.4,-0.3 -3.4,-0.7 0,-0.9 4.3,-1 39,-1 29.1,0 31.2,0.1 32.7,1 0.7,0.4 13.2,0.5 27.9,0.3 17.5,-0.3 27.2,-0.2 28,0.5 1.7,1.4 6.5,1.4 9.2,0 1.3,-0.7 3.2,-0.9 4.4,-0.5 3.5,1.1 -5.7,3.8 -10.1,3 -8.4,-1.5 -12.5,-1.6 -13.3,-0.4 -0.6,1 -0.8,1 -0.8,0.1 0,-0.9 -2.1,-1.1 -7.7,-0.7 -10.7,0.7 -31.2,0.6 -34.8,-0.3 -3.9,-0.9 -5.7,-0.9 -33,-1.2 -22.4,-0.3 -30.4,0.2 -31.6,2.1 -0.3,0.5 -1.2,0.2 -1.9,-0.7 z"
       id="path156" />
    <path
       d="m 1301,555 c -1.2,-0.8 -1.1,-1 0.8,-1 1.2,0 2.2,0.5 2.2,1 0,1.3 -1.1,1.3 -3,0 z"
       id="path158" />
    <path
       d="m 841.5,554.3 c -3.7,-1 -6.8,-2.4 -6.3,-2.9 0.3,-0.2 1.8,0 3.3,0.6 2.7,1 13.1,0.6 45,-2 6.6,-0.5 16.7,-1.2 22.5,-1.5 22.9,-1.3 25.7,-1.5 31.5,-2 3.3,-0.3 14.1,-1 24,-1.5 9.9,-0.6 22.7,-1.4 28.5,-2 8.6,-0.8 38.6,-2.6 57.8,-3.5 2.3,-0.1 5,-0.9 6,-1.8 1.2,-1.1 2.2,-1.3 2.8,-0.7 0.5,0.5 2.1,1 3.4,1.1 7,0.2 38.2,-1.4 42.4,-2.2 2.6,-0.5 11.6,-1.2 20,-1.4 8.3,-0.3 18,-1 21.6,-1.4 3.6,-0.5 8.1,-0.9 10,-0.9 4.1,0 15,-0.6 35.5,-2.1 8.3,-0.7 19.3,-1.4 24.5,-1.6 5.2,-0.3 13.6,-0.9 18.5,-1.4 5,-0.5 14,-1 20,-1.1 6.1,0 12.8,-0.5 15,-1 2.2,-0.5 11,-1.1 19.5,-1.5 8.5,-0.3 19.6,-1 24.5,-1.5 5,-0.5 14.3,-0.9 20.9,-1 6.5,0 12.7,-0.5 13.8,-1.1 1.1,-0.6 2.2,-0.8 2.5,-0.5 0.3,0.3 1.9,-0.6 3.5,-1.9 3.1,-2.6 6.2,-3.2 7.3,-1.5 0.3,0.6 -0.4,1 -1.6,1 -1.3,0 -3.3,1 -4.6,2.2 -1.9,1.8 -4,2.2 -14,2.9 -6.5,0.5 -18.1,1.3 -25.8,1.9 -13.4,1 -20.1,1.4 -38.4,2.5 -4.6,0.3 -8.7,0.7 -9.1,1 -0.3,0.2 -5.8,0.5 -12.1,0.6 -6.3,0.1 -15.7,0.5 -20.9,0.9 -5.2,0.5 -14,1.1 -19.5,1.5 -5.5,0.3 -16.1,1.1 -23.5,1.6 -7.4,0.6 -16.9,1.3 -21,1.5 -4.1,0.2 -13.1,0.8 -20,1.3 -6.9,0.5 -18.3,1.2 -25.5,1.6 -7.1,0.3 -15.5,0.8 -18.5,1.1 -3,0.2 -8,0.6 -11,0.9 -3,0.3 -12.9,0.7 -22,1.1 -9.1,0.3 -19.4,1 -23,1.4 -3.6,0.5 -15,1.3 -25.5,1.9 -10.4,0.6 -24.6,1.6 -31.5,2.2 -6.9,0.5 -16.8,1.2 -22,1.4 -5.2,0.3 -12.4,0.7 -16,1 -3.6,0.2 -11.9,0.7 -18.5,1.1 -6.6,0.3 -12.7,0.7 -13.5,0.9 -0.8,0.2 -6.7,0.7 -13,1 -6.3,0.3 -23.4,1.5 -38,2.6 -14.6,1 -26.7,1.8 -27,1.8 -0.3,-0.1 -1.4,-0.4 -2.5,-0.6 z"
       id="path160" />
    <path
       d="m 819.6,549.2 c -0.3,-0.5 -0.8,-5.8 -1.1,-11.8 -0.4,-6.9 -0.3,-10.3 0.3,-9.4 1,1.6 2.7,22 1.8,22 -0.3,0 -0.7,-0.4 -1,-0.8 z"
       id="path162" />
    <path
       d="m 832.2,539.3 c -1,-2.1 -1.7,-17.1 -0.7,-16.1 0.7,0.6 2.4,17.8 1.8,17.8 -0.1,0 -0.6,-0.8 -1.1,-1.7 z"
       id="path164" />
    <path
       d="m 796.7,521.2 c -0.9,-0.9 -1.3,-2.2 -0.9,-2.8 0.7,-1.1 16.7,-3.8 19.1,-3.2 1.5,0.3 1.5,-9 0.2,-26.2 -0.4,-5.2 -0.5,-10.1 -0.1,-10.9 1,-1.9 1.8,5.6 2.6,23.5 l 0.7,15.1 -9.4,1.2 c -8.7,1.1 -11.5,2.3 -10.3,4.3 0.9,1.4 -0.3,0.8 -1.9,-1 z"
       id="path166" />
    <path
       d="m 1370.7,519.3 c -0.3,-0.5 1.4,-0.9 3.7,-1 3,-0.1 3.6,0.1 2.1,0.7 -2.6,1.1 -5.3,1.2 -5.8,0.3 z"
       id="path168" />
    <path
       d="m 827.6,518.2 c -0.3,-0.6 0,-1.2 0.8,-1.5 1.6,-0.6 1.5,-8.7 -0.3,-30.6 -0.6,-6.9 -1.5,-19.3 -2.1,-27.6 -0.6,-8.2 -1.3,-15.2 -1.6,-15.6 -0.2,-0.4 -0.6,-9.1 -0.9,-19.5 -0.5,-19.6 -0.8,-23.1 -2.4,-24.7 -0.4,-0.4 -0.6,-2.3 -0.2,-4 0.4,-1.8 0.4,-6.3 0.1,-10.2 -0.5,-7.4 0.6,-14.5 2.3,-14.5 0.5,0 2.5,-1.1 4.3,-2.5 4,-3.1 4.6,-3.1 45.4,-5 3,-0.1 8.4,-0.5 12,-0.8 8.1,-0.8 18.6,-1.5 31.5,-2.2 5.5,-0.4 16.1,-1.2 23.5,-2 7.4,-0.7 20,-1.5 28,-1.8 19.2,-0.7 92,-5.3 97,-6.2 1.4,-0.3 8.6,-0.7 16,-1.1 15.5,-0.7 24.2,-1.2 32,-1.9 3,-0.3 13.4,-0.9 23,-1.4 9.6,-0.5 18.6,-1.2 19.9,-1.5 1.3,-0.3 9.8,-0.8 18.9,-1.1 9.1,-0.3 16.9,-0.8 17.4,-1.1 0.4,-0.3 6.5,-0.7 13.4,-1 12.1,-0.5 12.7,-0.6 15,-3.2 1.8,-2 2.3,-2.3 2.4,-1.1 0,0.9 -0.8,2.6 -1.7,3.7 -1.9,2.1 -6.1,2.6 -45.8,4.7 -4.9,0.3 -11.5,0.7 -14.5,1 -3,0.3 -9.1,0.8 -13.5,1 -18.6,0.9 -43.1,2.4 -47.5,3 -1.9,0.3 -12.5,1 -23.5,1.6 -11,0.6 -21.6,1.2 -23.5,1.4 -1.9,0.2 -15,1.1 -29,1.9 -14,0.9 -29.1,1.8 -33.5,2.1 -4.4,0.3 -15.6,1 -25,1.5 -9.3,0.5 -25.3,1.6 -35.5,2.4 -10.2,0.7 -20.5,1.4 -23,1.5 -6.5,0.1 -31.8,1.9 -36.5,2.6 -2.2,0.3 -10,0.8 -17.5,1.1 -17.7,0.6 -23.6,1.8 -27.3,5.6 l -3,2.9 0.7,19.7 c 0.3,10.8 1.1,22.6 1.7,26.2 0.6,3.6 1,10.3 0.9,15 -0.1,4.7 0.3,11.4 0.8,15 1.4,9.3 4.4,56.5 4,62.9 -0.3,5 -1.8,7.5 -3.2,5.3 z"
       id="path170" />
    <path
       d="m 864.8,518.3 c -1,-0.3 -1.8,-0.9 -1.8,-1.4 0,-0.6 0.5,-0.7 1,-0.4 1.3,0.8 10.5,-1.2 14.3,-3.1 2.9,-1.4 6.8,-0.6 8.2,1.6 0.6,0.9 0.2,0.9 -1.5,0 -1.8,-1 -3,-0.8 -7,0.9 -4.9,2.1 -10.2,3.1 -13.2,2.4 z"
       id="path172" />
    <path
       d="m 1362.5,517.3 c 1.1,-0.3 2.7,-1.1 3.5,-1.9 1.4,-1.1 1.6,-1.1 1.7,0.6 0.2,1.7 -0.4,2 -3.5,1.9 -2.2,-0.1 -2.9,-0.3 -1.7,-0.6 z"
       id="path174" />
    <path
       d="m 1388.5,516.9 c -0.4,-0.6 -0.1,-0.9 0.6,-0.8 0.8,0.1 2.2,-0.1 3.2,-0.6 1.1,-0.4 2.3,-0.3 3,0.4 0.8,0.8 0.7,1.1 -0.3,1.2 -0.8,0 -2.5,0.2 -3.7,0.5 -1.2,0.2 -2.5,-0.1 -2.8,-0.7 z"
       id="path176" />
    <path
       d="m 1402,517.1 c 0.8,-0.5 3.9,-1.1 6.9,-1.4 2.9,-0.4 5.9,-1.1 6.6,-1.7 0.8,-0.6 6.7,-0.9 15.9,-0.7 8.1,0.2 17.9,-0.1 21.9,-0.5 7.9,-0.9 18,-1.6 36.2,-2.4 6.6,-0.3 20.2,-1.1 30.3,-1.9 15.9,-1.1 18.6,-1.5 21.5,-3.5 7,-4.8 7.2,-5.5 7,-25.5 -0.1,-12.3 0.2,-17 0.8,-15 0.5,1.7 1,10.1 1.2,18.7 l 0.2,15.7 -3.5,3.6 c -7,7.3 -5.9,7.1 -63,10 -6.3,0.3 -16,1 -21.5,1.7 -5.5,0.6 -17.6,1 -27,1 -12.3,-0.1 -18.2,0.3 -21.3,1.4 -4.6,1.5 -14.8,2 -12.2,0.5 z"
       id="path178" />
    <path
       d="m 894.6,516.3 c -0.4,-0.5 2.1,-1.3 5.6,-1.8 6.2,-1 6.3,-1.1 6.9,-4.5 0.5,-3.5 0.6,-3.5 1.3,-0.8 1.2,4.2 -0.7,6.4 -6,7.2 -6,0.8 -6.9,0.8 -7.8,-0.1 z"
       id="path180" />
    <path
       d="m 888.3,514.2 c -0.1,-1.5 0.4,-1.8 2.4,-1.4 2.5,0.5 2.5,0.6 0.8,1.8 -2.5,1.8 -3,1.8 -3.2,-0.4 z"
       id="path182" />
    <path
       d="m 914.2,514.1 c -0.8,-0.5 2.4,-0.9 7.9,-1 5.1,0 9.7,-0.5 10.3,-1.1 0.7,-0.7 0.5,-1 -0.4,-1 -1,0 -1.1,-0.3 -0.3,-1.1 0.9,-0.9 2,-0.6 4.6,0.9 2.3,1.5 3.7,1.8 4.4,1.1 0.6,-0.6 2.1,-0.9 3.4,-0.7 1.3,0.2 2.9,-0.3 3.5,-1.1 0.9,-1.2 1.7,-1.2 4,-0.2 4.5,1.8 12.4,-0.6 14.3,-4.3 1,-1.9 1,-1.8 0.8,0.7 -0.2,2.4 -0.9,3.1 -4.2,4.3 -2.2,0.7 -5.9,1.4 -8.2,1.4 -2.3,0 -6.4,0.5 -9.2,1.1 -3.4,0.7 -5.6,0.7 -6.9,0 -1.4,-0.8 -2.4,-0.6 -3.8,0.4 -2.1,1.6 -17.9,2.1 -20.2,0.6 z"
       id="path184" />
    <path
       d="m 854,513 c 2,-1.3 6,-1.3 6,0 0,0.6 -1.7,1 -3.7,1 -2.8,0 -3.4,-0.3 -2.3,-1 z"
       id="path186" />
    <path
       d="m 867,512.6 c 0,-0.2 1.1,-0.6 2.5,-0.8 1.4,-0.3 2.5,-0.1 2.5,0.3 0,0.5 -1.1,0.9 -2.5,0.9 -1.4,0 -2.5,-0.2 -2.5,-0.4 z"
       id="path188" />
    <path
       d="m 983.5,509.4 c 1.6,-1 5.2,-1.8 8,-1.9 2.7,-0.1 7.8,-0.8 11.3,-1.6 5.1,-1.1 6.2,-1.7 6.2,-3.4 0,-1.7 0.2,-1.7 1,-0.5 2.7,4.2 -0.1,5.6 -13.4,7 -5,0.5 -10.7,1.2 -12.6,1.5 l -3.5,0.6 z"
       id="path190" />
    <path
       d="m 1032.5,507 c -2.5,-1.1 -3.4,-0.9 12.5,-2 7.4,-0.5 14.9,-1.2 16.5,-1.5 2.8,-0.6 2.9,-0.5 1.2,0.9 -1.1,0.8 -4.7,1.7 -8,2 -14.8,1.3 -20.3,1.4 -22.2,0.6 z"
       id="path192" />
    <path
       d="m 959.3,506.4 c 0.4,-0.8 -0.7,-1.4 -3,-1.9 -3,-0.5 -3.4,-0.9 -2.1,-1.6 3.7,-2.1 8.2,1.2 5.3,3.8 -0.4,0.4 -0.5,0.3 -0.2,-0.3 z"
       id="path194" />
    <path
       d="m 978,504.3 c 1.6,-1.1 3.4,-1.4 6.7,-0.9 7.8,1 7.4,2.1 -0.9,2.3 -7.5,0.1 -7.9,0 -5.8,-1.4 z"
       id="path196" />
    <path
       d="m 925.9,503.5 c -2.2,-1.3 -2.3,-1.4 -0.5,-2.1 1.1,-0.4 3.9,-0.2 6.3,0.4 2.5,0.7 4.8,1 5.3,0.7 1.3,-0.8 6,0.5 6,1.6 0,1.3 -7.4,1.1 -8.8,-0.3 -0.8,-0.8 -1.8,-0.9 -3.5,-0.1 -1.7,0.8 -2.9,0.7 -4.8,-0.2 z"
       id="path198" />
    <path
       d="m 1070.5,504 c -0.4,-0.6 1,-1 3.4,-1 5.3,0 7.1,-0.8 8.4,-3.9 l 1.1,-2.6 0.4,2.5 c 0.6,3.5 -2.9,6 -8.4,6 -2.3,0 -4.6,-0.4 -4.9,-1 z"
       id="path200" />
    <path
       d="m 1127.5,502.4 c -3.3,-0.8 -7,-1.6 -8.3,-1.8 -1.2,-0.2 -2.6,-0.6 -2.9,-1 -1.1,-1.1 3.1,-0.6 7.2,0.8 2.2,0.8 6,1.6 8.4,1.7 l 4.5,0.4 -0.3,-6.5 c -0.1,-4.7 0.1,-6.1 0.9,-5 0.5,0.8 1,4.1 1,7.3 0,6.6 0,6.6 -10.5,4.1 z"
       id="path202" />
    <path
       d="m 1145,502 c 0,-0.5 1.9,-1.4 4.3,-2 2.3,-0.7 5.3,-1.9 6.7,-2.8 1.4,-0.9 3,-1.7 3.6,-1.7 4.2,-0.1 16.3,-21.4 16.7,-29.2 0.3,-5.5 2.2,-3.7 2.1,1.8 -0.2,5.2 -7.4,19.5 -12.5,24.9 -2,2.1 -6.1,5.1 -8.9,6.5 -5.6,2.8 -12,4.2 -12,2.5 z"
       id="path204" />
    <path
       d="m 898.5,499.3 c -0.5,-1.5 -0.9,-4.8 -1.1,-7.3 -1.3,-26.3 -2.6,-47.5 -2.8,-47.9 -0.2,-0.3 -0.7,-5.8 -1,-12.1 -0.3,-6.3 -0.9,-15.2 -1.2,-19.7 -0.5,-5.9 -0.3,-8.3 0.5,-8.3 0.6,0 1.1,1.2 1.1,2.8 0,2.6 0.5,10.6 3,51.2 2,31.5 2.7,43.5 2.5,43.8 -0.2,0.2 -0.6,-1 -1,-2.5 z"
       id="path206" />
    <path
       d="m 1059.4,499.9 c -0.8,-1.3 1.3,-2.9 3.8,-2.9 0.9,0 2,0.5 2.3,1 0.3,0.6 -0.3,1 -1.5,1 -1.2,0 -1.8,0.5 -1.5,1 0.3,0.6 -0.1,1 -0.9,1 -0.8,0 -1.8,-0.5 -2.2,-1.1 z"
       id="path208" />
    <path
       d="m 957.4,495.8 c -0.9,-1.5 -1.5,-17.2 -0.6,-16.3 0.5,0.5 2.1,16.7 1.6,17.3 -0.1,0.2 -0.6,-0.3 -1,-1 z"
       id="path210" />
    <path
       d="m 1196.6,496.1 c -1,-1.5 5.4,-2.1 22.2,-2.2 9.1,0 16.4,-0.4 16.7,-0.9 0.4,-0.6 1.9,-1 3.5,-1 1.6,0 4.1,-0.5 5.5,-1 2.4,-0.9 2.7,-1.5 2.3,-4.6 -0.4,-3.2 -0.3,-3.4 0.9,-1.8 2.7,3.7 0.6,9.4 -3.5,9.4 -0.9,0 -9.6,0.7 -19.2,1.5 -20.3,1.7 -27.7,1.9 -28.4,0.6 z"
       id="path212" />
    <path
       d="m 925.8,494.3 c -2.4,-0.6 -2.2,-1.5 0.7,-3.6 2.5,-1.8 2.5,-1.8 2.5,0.7 0,2.8 -0.7,3.4 -3.2,2.9 z"
       id="path214" />
    <path
       d="m 999,492 c -0.6,-1.1 -0.8,-4.3 -0.4,-7.5 l 0.5,-5.5 h -3 c -1.6,0 -3.3,-0.4 -3.6,-1 -0.4,-0.6 0.8,-1 2.9,-1 2.9,0 3.6,-0.4 3.6,-2 0,-1.1 0.4,-2.8 0.9,-3.8 0.9,-1.5 4.6,-21.7 5.7,-30.4 0.2,-1.8 0.6,-4.4 0.8,-5.8 0.3,-1.4 0.8,-4.5 1.2,-6.9 0.6,-3.5 0.9,-4 1.7,-2.6 0.6,1.1 0.5,3.7 -0.2,7.4 -0.6,3.1 -2,11.2 -3.2,18.1 -1.1,6.9 -2.7,15.9 -3.6,20 -0.9,4.1 -1.6,11 -1.7,15.3 0,4.2 -0.2,7.7 -0.3,7.7 -0.1,0 -0.7,-0.9 -1.3,-2 z"
       id="path216" />
    <path
       d="m 1254.6,492.1 c -0.5,-0.8 2.2,-1.1 9.1,-1.1 5.4,0 11.8,-0.5 14.2,-1.1 2.5,-0.5 9.3,-1.1 15.2,-1.2 11.2,-0.3 13.9,-1.2 13.9,-4.9 0,-1 0.5,-1.6 1,-1.3 1.6,1 1.2,4 -0.7,5.8 -3,2.6 -51.3,6.1 -52.7,3.8 z"
       id="path218" />
    <path
       d="m 1074.2,488.5 c -0.7,-1.4 -1.2,-3.4 -1.1,-4.3 0,-0.9 0.7,0.1 1.5,2.2 1.6,4.5 1.3,5.9 -0.4,2.1 z"
       id="path220" />
    <path
       d="m 1321.4,487.5 c -2.1,-1.6 1,-1.8 26.3,-1.6 6.6,0.1 11.4,-0.3 11.8,-0.9 0.3,-0.5 1.7,-1 3.1,-1 2.2,0 2.4,-0.4 2.5,-4.7 0,-3.6 0.3,-4.3 0.9,-2.8 1.2,2.9 1.2,8.3 -0.1,9 -1.1,0.7 -31.3,3.4 -38.5,3.5 -2.2,0 -4.9,-0.7 -6,-1.5 z"
       id="path222" />
    <path
       d="m 1128.5,486 c -1,-1.1 -1.6,-2.2 -1.3,-2.5 0.3,-0.3 1.3,0.6 2.2,2 2,3 1.6,3.2 -0.9,0.5 z"
       id="path224" />
    <path
       d="m 1373.6,484.1 c -0.5,-0.8 1.7,-1.1 7.1,-1.3 4.3,0 8.5,0 9.3,0.1 0.8,0.1 5.2,-0.1 9.7,-0.5 l 8.2,-0.6 -0.5,-13.6 c -0.2,-7.6 -0.6,-16.2 -0.8,-19.2 -0.3,-3.8 -0.1,-4.7 0.4,-3 1.2,3.8 3.1,35.3 2.2,36.2 -1.4,1.4 -5.2,1.9 -20.3,2.4 -10.1,0.4 -14.9,0.2 -15.3,-0.5 z"
       id="path226" />
    <path
       d="m 1120.3,481.2 c -6.8,-0.4 -6.9,-2.2 -0.2,-2.2 5,0 5.1,0 4.5,-2.7 -0.3,-1.6 -0.8,-11.3 -1.2,-21.8 -0.3,-10.4 -0.9,-21.8 -1.3,-25.3 -0.8,-6.8 0.3,-9.6 1.2,-3.4 0.4,2 0.9,8.9 1.2,15.2 0.4,6.3 1,17.8 1.5,25.5 0.4,7.7 0.5,14.2 0.2,14.5 -0.4,0.3 -3.1,0.4 -5.9,0.2 z"
       id="path228" />
    <path
       d="m 1423.6,481.1 c -0.3,-0.4 5,-1.1 11.7,-1.6 6.7,-0.4 16.5,-1 21.7,-1.4 l 9.5,-0.6 -0.2,-8 c -0.2,-14.4 -1.5,-28.5 -2.5,-28.5 -0.5,0 -0.6,-0.4 -0.3,-1 0.7,-1.1 0.6,-11.4 -0.1,-18.5 -0.3,-2.7 -0.9,-13.1 -1.4,-23 -0.5,-9.9 -1.4,-24.1 -2,-31.5 -1.3,-16.9 -1.3,-18.7 0,-17.4 0.5,0.5 1.1,6.1 1.4,12.4 0.9,20.4 2.7,48.1 5.6,87 2,27.5 2,28.9 0.2,29.9 -3.2,1.7 -42.7,3.7 -43.6,2.2 z"
       id="path230" />
    <path
       d="m 1069.8,480.4 c -0.3,-0.5 0.1,-2 0.8,-3.4 1.2,-2.2 1.4,-2.2 1.4,-0.5 0,2.4 -1.6,5.1 -2.2,3.9 z"
       id="path232" />
    <path
       d="m 1239.1,477.3 c -0.5,-1 -1.2,-6.7 -1.5,-12.8 -0.4,-6 -1.1,-17.3 -1.7,-25 -0.5,-7.7 -1.1,-16.6 -1.3,-19.9 -0.3,-3.2 -0.1,-5.4 0.4,-5 1,1.1 1.6,6.2 3.1,29.4 0.6,9.6 1.4,21.4 1.8,26.3 0.4,4.8 0.6,8.7 0.4,8.7 -0.1,0 -0.6,-0.8 -1.2,-1.7 z"
       id="path234" />
    <path
       d="m 1476.9,478 c -0.8,-0.6 0.1,-1.1 2.7,-1.5 7.6,-1.2 11.9,-2.7 14.4,-5.1 1.4,-1.3 4,-3.6 5.8,-5 3.3,-2.7 11.2,-13.6 11.2,-15.5 0,-0.6 1.1,-2.9 2.4,-5.2 3.4,-5.8 4.9,-17.2 4.8,-35.5 -0.1,-15.4 -1.1,-20.8 -5.8,-32 -1.8,-4.2 -1.7,-5.4 0.1,-2.2 2.2,3.8 6.3,17.7 7.4,25.5 1.3,8.4 0.9,25.5 -0.8,34.5 -0.7,3.6 -2.3,8.5 -3.7,10.9 -1.3,2.4 -2.4,4.9 -2.4,5.6 0,2.4 -10,15.4 -14.2,18.4 -8.2,5.9 -18.4,9.2 -21.9,7.1 z"
       id="path236" />
    <path
       d="m 1009,476 c 2.1,-1.2 20,-2.2 20,-1.1 0,0.9 -9.7,2.1 -16.9,2.1 -3.2,-0.1 -4.1,-0.3 -3.1,-1 z"
       id="path238" />
    <path
       d="m 814,475 c -0.1,-0.8 -0.2,-1.8 -0.1,-2.2 0.1,-1.2 -2.8,-48.9 -3.4,-53.8 -0.2,-2.5 -0.7,-10.1 -1,-17 -0.4,-6.9 -1,-15.6 -1.5,-19.4 -0.5,-3.8 -0.6,-9 -0.4,-11.5 0.3,-2.5 0.6,-5.3 0.6,-6.1 0.1,-2.5 3.8,-7 7.7,-9.4 3.8,-2.4 4.3,-2.5 33.1,-4.1 6.3,-0.3 15.1,-1.1 19.5,-1.6 4.4,-0.6 11,-1.2 14.6,-1.3 4,-0.1 7.4,-0.7 8.4,-1.6 1.4,-1.2 1.8,-1.2 2.5,0 1.3,2.1 -4.4,3.5 -17.1,4.4 -5.7,0.4 -12.9,0.9 -15.9,1.2 -3,0.3 -9.1,0.6 -13.5,0.9 -24.9,1.2 -31.1,2.7 -35.2,8.8 -1.3,1.8 -2.3,5.1 -2.5,7.7 -0.3,5.4 0.8,26.2 2.7,50.5 0.8,9.9 1.7,24.5 2,32.5 0.4,8 0.8,15.4 0.9,16.5 0.3,2.3 -1.1,7.7 -1.4,5.5 z"
       id="path240" />
    <path
       d="m 954.6,462.2 c -0.4,-7 -1.1,-12.8 -1.5,-13 -0.5,-0.1 -0.5,-1.7 -0.2,-3.4 0.4,-1.8 0.4,-5.9 0,-9.3 -0.3,-3.3 -0.3,-8.2 0.1,-11 0.5,-4.2 0.7,-3.1 1.5,7.5 0.5,6.9 0.9,14.5 1,17 0,2.5 0.5,8.8 0.9,14.1 0.6,6.2 0.5,9.8 -0.1,10.2 -0.6,0.4 -1.3,-4.2 -1.7,-12.1 z"
       id="path242" />
    <path
       d="m 1357.8,473.2 c -1,-0.2 -1.8,-0.8 -1.8,-1.3 0,-1.3 2.7,-1.1 3.5,0.2 0.9,1.3 0.4,1.6 -1.7,1.1 z"
       id="path244" />
    <path
       d="m 789,472 c 0,-0.5 1.3,-1 2.9,-1 1.7,0 3.3,0.5 3.6,1 0.4,0.6 -0.8,1 -2.9,1 -2,0 -3.6,-0.4 -3.6,-1 z"
       id="path246" />
    <path
       d="m 1069.6,472.2 c -0.4,-0.7 -3.8,-13.6 -5.1,-19.2 -1.2,-5.5 2.8,6 4.4,12.8 1.7,6.8 1.9,8.3 0.7,6.4 z"
       id="path248" />
    <path
       d="m 1364.3,471.3 c -0.1,-1 -0.4,-7.4 -0.8,-14.3 -0.3,-6.9 -1,-17.7 -1.5,-24 -1.3,-16.2 -1.4,-18.8 -1,-24.5 0.2,-4.2 0.4,-3.5 1.1,4 2.4,26.8 4.2,60.5 3.1,60.5 -0.4,0 -0.8,-0.8 -0.9,-1.7 z"
       id="path250" />
    <path
       d="m 880.7,467.3 c -0.4,-0.3 -3.7,-0.6 -7.4,-0.5 -3.8,0.1 -8.4,-0.3 -10.3,-0.7 -2.7,-0.7 -0.9,-0.9 7.2,-1 10.8,-0.1 14.2,0.4 13.2,2 -0.6,1.1 -1.8,1.2 -2.7,0.2 z"
       id="path252" />
    <path
       d="m 1294.6,463.4 c -0.4,-1.4 -0.5,-2.8 -0.3,-3.1 0.3,-0.2 0.8,0.8 1.1,2.3 0.4,1.4 0.5,2.8 0.3,3.1 -0.3,0.2 -0.8,-0.8 -1.1,-2.3 z"
       id="path254" />
    <path
       d="m 1544.3,453.6 c 1.6,-1.2 1.8,-2.8 1.6,-12.3 -0.1,-5.9 -0.6,-15.1 -1,-20.3 -0.5,-5.2 -1.1,-13.5 -1.3,-18.5 -0.3,-4.9 -1,-16.6 -1.5,-26 -0.6,-9.3 -1.3,-21.7 -1.7,-27.5 -0.6,-11.5 -1.8,-21.4 -2.8,-24.5 -0.3,-1.1 0.3,-0.2 1.4,2 1.3,2.6 2,6.1 2,10 0,3.3 0.4,9.8 0.9,14.5 0.5,4.7 1.2,13.7 1.6,20 0.7,14.1 2.2,37.9 3.5,56 1.5,20.2 1.3,26.7 -0.6,27.4 -2.8,1.1 -4,0.6 -2.1,-0.8 z"
       id="path256" />
    <path
       d="m 906,453.1 c 0,-1 5,-2.5 5.8,-1.6 0.8,0.7 0.1,1.1 -3,1.9 -1.6,0.3 -2.8,0.2 -2.8,-0.3 z"
       id="path258" />
    <path
       d="m 942,450.9 c 0,-0.5 -0.6,-0.7 -1.2,-0.3 -1,0.5 -1,0.4 -0.1,-0.6 0.6,-0.7 1.6,-0.9 2.2,-0.6 1.4,0.9 1.4,2.6 0.1,2.6 -0.5,0 -1,-0.5 -1,-1.1 z"
       id="path260" />
    <path
       d="m 1062.7,449.3 c -0.4,-0.3 -0.7,-1.7 -0.7,-3 0,-1.3 -1.4,-6.5 -3,-11.5 -1.7,-5 -2.8,-9.3 -2.5,-9.6 0.5,-0.5 0.6,-0.4 3.4,8.3 4,12.5 5,18 2.8,15.8 z"
       id="path262" />
    <path
       d="m 1385.7,443.3 c 1.4,-0.3 2.5,-1.4 2.9,-3 0.6,-2.3 0.1,-18.2 -1.2,-33.8 -0.8,-11.3 -0.9,-14.4 -0.2,-13.7 0.4,0.4 1,4.6 1.3,9.2 0.3,4.7 1,12.6 1.5,17.5 1.1,10.4 1.3,20.6 0.4,22.9 -0.4,1 -1.7,1.6 -3.8,1.5 -2.3,-0.1 -2.5,-0.3 -0.9,-0.6 z"
       id="path264" />
    <path
       d="m 1554.6,442.1 c -0.3,-0.4 0.6,-0.6 2,-0.3 1.5,0.3 2.9,0 3.3,-0.6 0.4,-0.6 1.7,-0.9 3,-0.5 1.7,0.4 1.9,0.8 0.9,1.4 -1.7,1.1 -8.5,1.1 -9.2,0 z"
       id="path266" />
    <path
       d="m 1579.3,436.8 c 0,-2.4 -0.3,-6.9 -0.7,-10 l -0.7,-5.8 h -4.1 c -5.2,0 -4.7,-2.4 0.6,-2.8 l 3.8,-0.3 -0.7,-13.7 c -0.3,-7.5 -1.1,-15.5 -1.6,-17.7 -1.1,-5.3 -1.1,-11.6 0.1,-13.5 0.8,-1.2 1,-1 1.1,1 0.1,1.4 0.1,3.6 0,5 0,1.4 0.4,5.9 0.9,10 0.6,4.1 1.2,13.8 1.4,21.5 0.3,7.7 0.8,17.7 1.2,22.3 0.5,5.6 0.3,8.2 -0.4,8.2 -0.6,0 -1,-1.8 -0.9,-4.2 z"
       id="path268" />
    <path
       d="m 1491.5,437 c 0.8,-1.3 5.5,-1.3 7.5,0 1.1,0.7 0.2,1 -3.3,1 -3,0 -4.6,-0.4 -4.2,-1 z"
       id="path270" />
    <path
       d="m 1282.5,434.8 c -2.6,-7.1 -3.4,-10.1 -2.7,-9.3 1.1,1.2 4.3,10.5 3.6,10.5 -0.3,0 -0.7,-0.6 -0.9,-1.2 z"
       id="path272" />
    <path
       d="m 1452.2,424.3 c 0.2,-0.9 0.8,-1.8 1.5,-2 0.7,-0.3 0.9,0.3 0.6,1.6 -0.6,2.5 -2.6,2.8 -2.1,0.4 z"
       id="path274" />
    <path
       d="m 1049.8,423.3 c -4.2,-0.3 -5.8,-0.8 -5.8,-1.8 0,-1.1 1.3,-1.5 5,-1.5 5.5,0 5.7,-0.3 3.9,-6 -1.7,-6 -4.9,-18.3 -4.9,-19.3 0,-0.6 0.2,-0.8 0.5,-0.5 1,1 6.7,23.1 6.9,26.6 0.1,1.7 0.2,3.1 0.1,3 0,-0.1 -2.6,-0.3 -5.7,-0.5 z"
       id="path276" />
    <path
       d="m 1016.5,421 c -0.3,-0.6 0.5,-1 1.9,-1 1.4,0 2.8,0.5 3.1,1 0.3,0.6 -0.5,1 -1.9,1 -1.4,0 -2.8,-0.4 -3.1,-1 z"
       id="path278" />
    <path
       d="m 1276.2,419.5 c -1.7,-3.7 -1.4,-4.5 0.4,-1.2 0.9,1.6 1.4,3.1 1.1,3.3 -0.2,0.2 -0.9,-0.7 -1.5,-2.1 z"
       id="path280" />
    <path
       d="m 1004.5,420.1 c 3.7,-0.8 4.1,-2.6 2.1,-9.3 -2.2,-7.6 -1.2,-7.1 1.4,0.7 2.7,8.1 2.3,9.5 -2.7,9.4 -3.6,-0.1 -3.7,-0.2 -0.8,-0.8 z"
       id="path282" />
    <path
       d="m 1120.9,419.8 c 0,-0.7 -0.3,-8.1 -0.5,-16.3 -0.6,-17.8 0.4,-22.2 5.3,-24.5 3,-1.4 3.1,-1.7 2.7,-6.5 -0.3,-3.6 -0.2,-4.5 0.5,-3 0.5,1.1 1,3.7 1,5.7 0.1,3 -0.5,4.1 -2.9,5.8 -4.3,3.1 -5.2,7.4 -4.8,24.8 0.2,8.3 0,15.2 -0.4,15.2 -0.5,0 -0.8,-0.6 -0.9,-1.2 z"
       id="path284" />
    <path
       d="m 1559.3,420 c -2.8,-1.1 -2.9,-1.9 -0.5,-3.6 2.4,-1.8 3,-1.7 4.3,0.8 1,1.8 0.9,2 -0.5,1.5 -0.9,-0.4 -1.6,-0.2 -1.6,0.2 0,0.5 0.6,1.2 1.3,1.4 0.6,0.3 0.8,0.5 0.2,0.6 -0.5,0 -2,-0.4 -3.2,-0.9 z"
       id="path286" />
    <path
       d="m 951.8,418.8 c -0.3,-0.7 -0.6,-4.4 -0.7,-8.3 -0.1,-3.8 -0.4,-8.9 -0.7,-11.1 -0.7,-4.9 0.8,-8.4 3.6,-8.4 2.2,0 4.5,-3.6 4.2,-6.5 -0.2,-1.7 -0.1,-1.7 0.7,-0.5 2,2.8 1.1,5.4 -2.8,9 l -3.9,3.5 0.6,11.8 c 0.4,10.7 0.2,13.7 -1,10.5 z"
       id="path288" />
    <path
       d="m 1102.5,419 c 0.3,-0.5 1.7,-1 3.1,-1 1.3,0 2.4,0.5 2.4,1 0,0.6 -1.4,1 -3.1,1 -1.7,0 -2.8,-0.4 -2.4,-1 z"
       id="path290" />
    <path
       d="m 1100,417.6 c 0,-0.8 -0.6,-1.7 -1.2,-2 -0.7,-0.3 -0.2,-0.4 1.1,-0.3 2.8,0.2 3.9,2.2 1.6,3 -0.9,0.4 -1.5,0.1 -1.5,-0.7 z"
       id="path292" />
    <path
       d="m 1170.8,415.7 c 1.7,-1.8 2.2,-3.6 2.2,-7.3 0,-2.8 -0.3,-5.4 -0.7,-5.7 -0.4,-0.4 -0.8,-5.8 -1,-12 -0.2,-6.1 -0.6,-13.8 -0.9,-16.9 -0.4,-3.9 -0.2,-5.8 0.5,-5.8 0.6,0 1.1,1.5 1.1,3.3 0,1.7 0.5,8.8 1,15.6 0.6,8 0.6,12.8 0,13.6 -0.6,0.7 -0.6,1.5 0.1,2.2 0.5,0.5 1.3,3.5 1.6,6.5 0.6,5.7 -1,8.8 -4.4,8.8 -1.4,0 -1.2,-0.4 0.5,-2.3 z"
       id="path294" />
    <path
       d="m 1025.4,413.8 c -1.3,-2.1 1.4,-3.1 4.6,-1.8 4.5,1.9 4.5,2.8 0,2.8 -2.2,0 -4.2,-0.4 -4.6,-1 z"
       id="path296" />
    <path
       d="m 1499.6,412.4 c -0.4,-0.9 -0.4,-1.9 -0.1,-2.2 0.6,-0.6 3.5,1.8 3.5,2.9 0,1.6 -2.8,1 -3.4,-0.7 z"
       id="path298" />
    <path
       d="m 1230.2,410.8 c -1.6,-1.6 -1.5,-3.8 0.2,-3.8 1.9,0 2.5,1.1 1.7,3.3 -0.5,1.4 -0.9,1.5 -1.9,0.5 z"
       id="path300" />
    <path
       d="m 1233.7,406.3 c -0.3,-1.6 -0.3,-4.1 -0.1,-5.8 0.2,-1.6 -0.1,-7.3 -0.8,-12.6 -1.3,-12 -0.8,-14.8 3.2,-15.6 2.2,-0.4 3.2,-1.3 3.6,-3.2 1,-4.5 1.1,-4.7 1.9,-1.7 0.7,2.5 0.4,3.3 -2.1,5.3 -1.6,1.3 -3.5,2.8 -4.2,3.4 -1.1,0.9 -1.2,4.4 -0.6,17 0.6,14.9 0.3,19.5 -0.9,13.2 z"
       id="path302" />
    <path
       d="m 1270.8,408.4 c -0.5,-0.4 -0.8,-1.9 -0.8,-3.3 0.1,-2.3 0.2,-2.4 1.1,-0.8 1.1,1.9 0.9,5.3 -0.3,4.1 z"
       id="path304" />
    <path
       d="m 932.7,405.2 c -1,-0.2 -1.6,-0.9 -1.4,-1.5 0.6,-1.8 3.4,-2 4,-0.3 0.7,1.8 -0.1,2.4 -2.6,1.8 z"
       id="path306" />
    <path
       d="m 891.7,401 c -0.6,-2.1 0,-3.1 3.3,-6 2.7,-2.3 4,-4.3 4,-6 0,-2 0.2,-2.2 1,-1 1.8,2.8 1,5.2 -2.9,8.9 -2.1,2 -4.1,4.3 -4.3,5.1 -0.3,0.9 -0.7,0.6 -1.1,-1 z"
       id="path308" />
    <path
       d="m 1360,402.5 c -0.3,-1.2 -0.4,-2.9 -1.3,-18.5 -1.7,-27.9 -1.7,-28.5 -0.7,-26.8 1.1,1.8 3.5,41.4 2.7,44.5 -0.3,1 -0.6,1.4 -0.7,0.8 z"
       id="path310" />
    <path
       d="m 1163,401 c 0,-0.5 1.1,-1.7 2.6,-2.6 1.9,-1.3 2.8,-1.4 3.6,-0.6 1.5,1.5 0.9,2 -3.1,3.2 -1.8,0.5 -3.1,0.5 -3.1,0 z"
       id="path312" />
    <path
       d="m 1268.2,399.4 c -0.9,-1.7 -0.6,-2.8 1.7,-6.5 1.6,-2.4 4,-6.5 5.4,-9.1 3.9,-6.7 7.7,-11 9.4,-10.4 2.3,0.9 4.8,-1 8.2,-6 2.7,-4.1 3.1,-4.4 3.1,-2.3 0,3.6 -2.6,6.6 -8,9.4 -2.7,1.4 -6,3.9 -7.4,5.7 -3.3,4.5 -9.7,15.7 -10.5,18.8 -0.7,2.4 -0.8,2.5 -1.9,0.4 z"
       id="path314" />
    <path
       d="m 1426.5,400 c -0.3,-0.5 0.3,-1 1.4,-1 1.2,0 2.4,0 2.8,-0.1 0.4,0 0.9,0.4 1.1,1 0.5,1.4 -4.5,1.5 -5.3,0.1 z"
       id="path316" />
    <path
       d="m 1047,392.9 c -0.1,-0.2 -1.1,-4.4 -2.4,-9.2 -1.3,-4.9 -1.9,-8.4 -1.4,-7.9 1.2,1.2 5,16.4 4.3,17.1 -0.3,0.2 -0.5,0.2 -0.5,0 z"
       id="path318" />
    <path
       d="m 1398.2,389.7 2.7,-2.2 -0.9,-13 c -0.5,-7.1 -1.2,-15.2 -1.6,-17.9 -0.4,-3.1 -0.3,-4.6 0.4,-4.2 1.1,0.7 1.9,7 2.7,21.1 0.3,5.5 0.8,11.1 1.1,12.4 0.6,2.8 -2.1,6.1 -5,6.1 -2,0 -1.9,-0.2 0.6,-2.3 z"
       id="path320" />
    <path
       d="m 1018,390 c 0,-0.5 0.7,-1 1.5,-1 0.8,0 1.5,0.5 1.5,1 0,0.6 -0.7,1 -1.5,1 -0.8,0 -1.5,-0.4 -1.5,-1 z"
       id="path322" />
    <path
       d="m 1037.3,390.3 c 1.5,-0.2 3.7,-0.2 5,0 1.2,0.2 0,0.4 -2.8,0.4 -2.7,0 -3.8,-0.2 -2.2,-0.4 z"
       id="path324" />
    <path
       d="m 1563.2,387.9 c 0.2,-0.6 0.7,-1 1.1,-1 0.4,0.1 1.4,0.1 2.2,0.1 0.8,0 1.5,0.5 1.5,1 0,0.6 -1.2,1 -2.6,1 -1.4,0 -2.4,-0.5 -2.2,-1.1 z"
       id="path326" />
    <path
       d="m 1485.2,370.9 c -1.7,-2.6 1.6,-3.5 4.1,-1.1 1.8,1.9 1.8,1.9 -0.6,2.4 -1.6,0.3 -2.8,-0.1 -3.5,-1.3 z"
       id="path328" />
    <path
       d="m 1574.8,364.8 c -0.5,-14.6 -1.5,-20.9 -3.5,-22.1 -1.1,-0.7 -1.1,-1.2 0.2,-3 1.2,-1.8 1.4,-4.2 0.9,-12.7 -0.3,-5.8 -1.2,-12.4 -2.1,-14.8 -1.7,-4.8 -1,-7.2 0.7,-2.6 2,5.2 3,12.7 3.6,26.9 0.4,7.7 0.8,16 1,18.5 0.9,12.8 1,16 0.2,16 -0.4,0 -0.9,-2.8 -1,-6.2 z"
       id="path330" />
    <path
       d="m 1366,366 c -1.1,-0.7 -0.7,-1 1.7,-1 1.7,0 3.5,0.5 3.8,1 0.8,1.3 -3.5,1.3 -5.5,0 z"
       id="path332" />
    <path
       d="m 896.6,349 c 0.6,-0.6 6.3,-1.2 12.6,-1.4 6.4,-0.2 12,-0.6 12.5,-0.9 1.1,-0.6 28,-2.2 31.6,-1.8 1.6,0.1 3.4,-0.2 4.1,-0.8 0.7,-0.6 3,-1 5.2,-0.9 6.9,0.2 36.6,-1.2 44.4,-2.2 4.1,-0.5 14.3,-1 22.5,-1.2 8.3,-0.1 15.5,-0.5 16,-0.9 0.9,-0.7 6.3,-1 34.5,-2.4 32.5,-1.5 46.8,-2.8 50.7,-4.5 3.6,-1.6 4.4,-1.6 6,-0.4 1.8,1.3 1.7,1.5 -2.2,1.9 -1.2,0.1 -3.6,0.7 -5.5,1.3 -1.9,0.6 -4.4,1 -5.5,0.9 -2.2,-0.1 -24,1.2 -29.5,1.8 -3.2,0.4 -21.2,1.5 -33.5,2 -2.7,0.2 -11.5,0.8 -19.5,1.4 -18.7,1.4 -25.3,1.8 -49.2,3.1 -29.2,1.6 -33.9,1.9 -38.8,2.4 -6.7,0.8 -49.2,3.6 -53.6,3.6 -2.6,0 -3.5,-0.3 -2.8,-1 z"
       id="path334" />
    <path
       d="m 1228,340 c -1.2,-0.8 -0.6,-1 2.5,-1 2.2,0.1 7.2,-0.4 11,-0.9 3.9,-0.6 12.6,-1 19.5,-1.1 6.9,0 14.3,-0.5 16.5,-1 2.2,-0.5 11.2,-1.2 20,-1.5 8.8,-0.3 17.6,-0.9 19.5,-1.2 3.7,-0.6 14.8,-1.4 19,-1.3 1.4,0 7.9,-0.5 14.5,-1.1 6.6,-0.6 14.9,-1.3 18.5,-1.4 22.4,-1.1 28.1,-1.5 33,-2 5.3,-0.5 19.9,-1.4 56.5,-3.5 9.4,-0.5 17.9,-1.2 19.1,-1.4 2.8,-0.7 29.1,-2.1 39.6,-2.1 4.8,0 9.2,0.5 9.7,1 0.7,0.7 -2.1,1 -8.2,1 -8.7,0 -26.7,0.9 -38.7,2 -3,0.3 -10,0.7 -15.5,1 -5.5,0.3 -15.6,1 -22.5,1.5 -10.6,0.9 -53.6,3.7 -69.3,4.5 -2.7,0.2 -8.8,0.6 -13.5,0.9 -4.8,0.4 -11.8,0.9 -15.7,1.1 -3.8,0.3 -9.2,0.7 -12,1 -2.7,0.2 -9.7,0.6 -15.5,0.9 -19.8,1 -32.5,1.7 -35.5,2.2 -1.6,0.2 -8.2,0.6 -14.5,0.9 -6.3,0.3 -13.5,0.7 -16,1 -14.5,1.3 -20.6,1.5 -22,0.5 z"
       id="path336" />
    <path
       d="m 1140,333.1 c 0,-1 2.5,-1.6 6,-1.3 0.8,0.1 2.7,-0.3 4.3,-1 1.8,-0.7 3.1,-0.7 4,-0.1 1.2,1 2.5,1 25.7,-0.7 7.4,-0.5 17.8,-1.2 23,-1.4 5.2,-0.2 13.3,-0.9 18,-1.5 4.7,-0.5 13,-1 18.5,-1 5.5,-0.1 12.8,-0.6 16.3,-1.1 3.4,-0.6 11.2,-1.1 17.3,-1.2 6.7,-0.1 11.3,-0.6 11.5,-1.2 0.3,-0.7 5.1,-1.2 12.4,-1.3 6.6,-0.1 17.1,-0.5 23.3,-0.9 6.1,-0.4 11.6,-0.7 12.2,-0.5 0.5,0.1 4.5,-0.2 9,-0.8 4.4,-0.6 11.8,-1.1 16.5,-1.2 4.7,-0.1 16.6,-0.7 26.5,-1.5 9.9,-0.7 33.1,-2.2 51.5,-3.4 18.4,-1.1 38.5,-2.4 44.5,-2.9 6.1,-0.4 12.4,-0.8 14,-0.8 1.7,0 9.8,-0.6 18.2,-1.3 10.6,-1 15.9,-1 17.5,-0.3 1.8,0.8 -0.4,1.2 -10.2,1.7 -15.5,0.9 -22.9,1.4 -30,2.1 -3,0.3 -13.1,1 -22.5,1.5 -9.3,0.6 -20.1,1.2 -24,1.5 -28.7,2 -35.5,2.5 -47,3.1 -7.1,0.3 -13.2,0.8 -13.5,0.9 -0.3,0.2 -8,0.6 -17,1 -9.1,0.3 -17.8,0.8 -19.5,1 -1.6,0.3 -6.8,0.7 -11.5,1 -4.7,0.3 -10.7,0.7 -13.5,1 -2.7,0.3 -10.8,0.8 -18,1 -11.9,0.5 -32.6,2 -40,3 -1.6,0.2 -12.9,0.8 -25,1.5 -12.1,0.6 -22.7,1.3 -23.5,1.5 -0.8,0.2 -6.7,0.7 -13,1 -6.3,0.3 -12.8,0.8 -14.5,1 -1.6,0.2 -10.2,0.7 -19,1 -8.8,0.4 -18.8,0.9 -22.2,1.2 -4.3,0.4 -6.3,0.2 -6.3,-0.6 z"
       id="path338" />
    <path
       d="m 1437.8,302.3 c -1,-0.2 -1.8,-0.9 -1.8,-1.4 0,-1.5 4.3,-0.7 4.8,0.9 0.4,1.2 0,1.3 -3,0.5 z"
       id="path340" />
  </g>
</svg>
