<svg id="Layer_1" data-name="Layer 1" xmlns="http://www.w3.org/2000/svg" viewBox="0 0 3838.99976 720"><path id="yellow" d="M586.4,517.3c185.3,0,210,80,210,108.6,0,33.6-52.4,94.1-210,94.1-163.1,0-202.7-68.3-202.7-94.1C383.6,598.7,397.5,517.3,586.4,517.3Z" transform="translate(0 0)" style="fill:#fcda00;fill-rule:evenodd"/><path id="green" d="M195.5,329.1c185.3,0,202.7,88.6,202.7,108.6s-37.8,94.1-195.5,94.1C39.7,531.8,0,457.7,0,437.7S6.6,329.1,195.5,329.1Z" transform="translate(0 0)" style="fill:#73b744;fill-rule:evenodd"/><path id="red" d="M637.1,379.8s3-161.7,152-181S1001,303.9,1006.2,329.1C1054.5,563.8,839.7,575.6,839.7,575.3,826.2,369.1,637.1,379.8,637.1,379.8Z" transform="translate(0 0)" style="fill:#ed2224;fill-rule:evenodd"/><path id="blue" d="M260.6,184.4s3-161.7,152-181S624.5,108.5,629.7,133.7C678,368.3,463.3,380.2,463.3,379.8,449.7,173.6,260.6,184.4,260.6,184.4Z" transform="translate(0 0)" style="fill:#2aa4dd;fill-rule:evenodd"/><rect x="1108.80005" y="549.70001" width="2676.30005" height="148.89996" style="fill:#fff"/><g id="SNES"><path d="M1210.6,187.4c9,16.7,55.19995,93.7,60.3,106.5,6.4,12.8,11.6,33.4,6.4,55.2l-16.69995,93.7a55.13765,55.13765,0,0,1-53.9,43.6h-80.9c-24.4,0-42.4-19.3-42.4-43.6v-7.7l21.80005-123.2h56.5l-18,104v1.3a14.21321,14.21321,0,0,0,14.1,14.1h30.80005c10.3,0,19.3-7.7,21.8-16.7l12.80005-68c2.6-12.8,0-20.5-11.6-41.1-9-16.7-47.5-89.8-59-111.7-15.4-28.2-16.69995-41.1-12.80005-65.5l14.1-83.4c5.1-25.7,27-43.6,52.6-43.6h80.9c23.1,0,43.6,19.3,43.6,43.6v7.7L1310.7,172h-56.5l18-100.1V69.3a14.2132,14.2132,0,0,0-14.1-14.1h-30.80005c-10.3,0-18,7.7-20.5,16.7l-10.3,53.9C1192.6,152.7,1197.7,165.6,1210.6,187.4Z" transform="translate(0 0)" style="fill:#ed2224"/><path d="M1358.2,415.8h0c0,9,6.4,15.4,14.1,15.4H1403.1c10.3,0,18-7.7,20.5-16.7L1499.30005,0h57.80005l-80.9,441.5a55.13765,55.13765,0,0,1-53.9,43.6h-80.9c-23.1,0-42.4-19.3-42.4-43.6v-9L1377.4,0h56.5Z" transform="translate(0 0)" style="fill:#ed2224"/><polygon points="1799.6 0 1930.6 0 1921.6 55.2 1848.4 55.2 1821.5 207.9 1893.3 207.9 1883.1 263.1 1811.2 263.1 1780.4 431.2 1852.3 431.2 1843.3 485.1 1711.1 485.1 1799.6 0" style="fill:#ed2224"/><path d="M2178.30005,485.1l88.5-485.1h59c25.7,259.3,25.7,322.1,27,370.9,1.30005-51.3,7.7-121.9,52.6001-370.9h59l-88.6001,485.1h-59c-24.3999-259.3-25.69995-313.2-25.69995-361.9-2.6001,57.8-9,114.2-52.6001,361.9Z" transform="translate(0 0)" style="fill:#ed2224"/><polygon points="2476 485.1 2418.3 485.1 2505.5 0 2564.6 0 2476 485.1" style="fill:#ed2224"/><polygon points="2956 55.2 2916.2 55.2 2837.9 485.1 2778.9 485.1 2858.5 55.2 2816.1 55.2 2826.4 0 2967.6 0 2956 55.2" style="fill:#ed2224"/><polygon points="2991.9 0 3122.9 0 3113.9 55.2 3040.7 55.2 3013.8 207.9 3085.6 207.9 3075.4 263.1 3003.5 263.1 2972.7 431.2 3044.6 431.2 3035.6 485.1 2903.4 485.1 2991.9 0" style="fill:#ed2224"/><path d="M2520.8999,485.1,2609.5,0h59c25.7,259.3,25.7,322.1,27,370.9,1.3-51.3,7.7-121.9,52.6001-370.9h59L2718.5,485.1h-59c-24.3999-259.3-25.7-313.2-25.7-361.9-2.6001,57.8-9,114.2-52.6001,361.9Z" transform="translate(0 0)" style="fill:#ed2224"/><path d="M3074.1001,485.1l88.5-485.1h59c25.69995,259.3,25.69995,322.1,27,370.9,1.3-51.3,7.69995-121.9,52.6001-370.9h59l-88.6001,485.1h-59C3188.30005,225.9,3187,172,3187,123.2c-2.6001,57.8-9,114.2-52.6001,361.9Z" transform="translate(0 0)" style="fill:#ed2224"/><path d="M1504.5,485.1,1593,0h127.1a43.2584,43.2584,0,0,1,43.6,43.6c0,2.6,0,5.1-1.30005,7.7l-30.8,172C1727.80005,249,1706,267,1679,267h-75.69995L1563.5,483.9l-59,1.2Zm154-272.1c10.30005,0,18-6.4,20.5-16.7l24.4-125.8V67.9a14.2132,14.2132,0,0,0-14.1-14.1H1640.5L1611,213Zm376,74.5h0c0-9-6.4-15.4-14.1-15.4h-46.19995l-38.5,214.3h-59l87.3-485.1h129.6a43.25859,43.25859,0,0,1,43.6001,43.6,24.88173,24.88173,0,0,1-1.30005,9l-27,152.7c-3.89991,20.5-18,34.7-37.19995,41.1,16.69995,6.4,24.3999,21.8,21.8,39.8v7.7l-34.69995,191.2h-59ZM2030.7,213c10.30005,0,18-7.7,20.5-16.7l23.1001-125.8V67.9A14.21315,14.21315,0,0,0,2060.2,53.8H2014l-28.19995,157.9L2030.7,213Zm1370.7-213h132.2A43.25858,43.25858,0,0,1,3577.2,43.6c0,2.6,0,5.1-1.30005,7.7l-70.6001,390.2c-3.8999,24.4-25.69995,43.6-52.60009,43.6H3312.7998ZM3432.2,431.2c10.3,0,18-7.7,20.5-16.7l62.8999-344V67.9a14.21314,14.21314,0,0,0-14.10009-14.1h-52.6001l-68,376h51.3v1.4ZM3668.30005,0h82.1001c23.10009,0,42.3999,19.3,42.3999,43.6v7.7l-69.3,390.2a55.13772,55.13772,0,0,1-53.8999,43.6h-80.8999c-24.39991,0-42.39991-19.3-42.39991-43.6v-9l69.3-388.9C3620.80005,19.3,3642.6001,0,3668.30005,0ZM3605.3999,417.1A14.21314,14.21314,0,0,0,3619.5,431.2h30.8c10.30005,0,18-7.7,20.5-16.7l61.6001-344V67.9a14.21315,14.21315,0,0,0-14.1001-14.1H3686.2c-9,0-18,7.7-20.5,16.7l-61.6001,344A4.02615,4.02615,0,0,1,3605.3999,417.1Z" transform="translate(0 0)" style="fill:#ed2224"/><path d="M1978,637.9l3.9-32.1c0-5.1,1.30005-10.3,2.6-15.4,0-2.6,1.30005-9,1.30005-11.6h0c-1.30005,2.6-2.6,9-3.9,11.6-2.6,5.1-3.9,10.3-6.4,15.4l-14.1,32.1Z" transform="translate(0 0)" style="fill:#ed2224"/><path d="M1723.9,585.2h-14.1l-7.69995,32.1h15.4c6.4,0,12.80005-5.1,15.4-16.7C1735.5,587.8,1731.6,585.2,1723.9,585.2Z" transform="translate(0 0)" style="fill:#ed2224"/><path d="M1089.9,531.3V720H3797.8999V531.3Zm124.5,53.9h-34.69995l-7.7,29.5h32.1l-3.9,16.7h-32.1l-9,35.9h34.69995l-3.9,16.7H1136l29.5-114.2h53.9Zm123.2,98.9h-20.5l-3.9-41.1c-1.30005-14.1-2.6-27-1.30005-46.2h0c-1.3,9-3.9,20.5-6.4,33.4-2.6,11.6-5.1,23.1-7.7,32.1l-5.1,21.8H1273.3999l29.5-114.2h20.5l3.9,42.4c1.30005,12.8,2.6,27,1.30005,46.2h0c2.6-10.3,3.9-21.8,6.4-32.1,2.6-11.6,5.1-21.8,7.69995-32.1l6.4-23.1h19.3Zm156.6-98.9H1472.3999L1446.7,682.7H1427.3999l25.7-97.5H1430l3.9-16.7h64.2Zm123.20007,0h-34.69995l-7.7,29.5h32.1l-3.9,16.7h-32.1l-9,35.9h34.69995l-3.9,16.7H1539l29.5-114.2h53.9Zm136,11.6c-3.9,12.8-10.3,25.7-23.1,28.2h0c11.6,1.3,12.80005,10.3,9,20.5-1.30005,5.1-9,33.4-5.1,35.9V684H1712.4c0-7.7,3.9-21.8,5.1-29.5,1.30005-7.7,3.9-16.7-1.30005-19.3-5.1-1.3-10.30005-1.3-15.4-1.3h-3.9l-12.8,48.8H1664.7998l29.5-114.2h35.9C1748.30005,568.6,1759.9,575,1753.4,596.8Zm131-11.6h-21.8l-25.7,97.5h-19.3l25.69995-97.5h-23.1l3.9-16.7h64.19995ZM1994.7,684.1h-20.5l2.6-29.5h-23.1l-12.80005,29.5h-20.5l55.2-114.2h25.69995Zm98.90015,0h-19.30005l29.5-114.2h19.30005Zm152.69995,0H2227l-3.8999-41.1c-1.30005-14.1-2.6001-27-1.30005-46.2h0c-1.3,9-3.8999,20.5-6.3999,33.4-2.6001,11.6-5.1001,23.1-7.69995,32.1l-5.1001,21.8h-19.30005l29.5-114.2h20.5l3.8999,42.4c1.3,12.8,2.6001,27,1.3,46.2h0c2.6001-10.3,3.8999-21.8,6.3999-32.1,2.6001-11.6,5.1001-21.8,7.7-32.1l6.39991-23.1h19.3Zm174.5,0h-19.3l9-35.9c6.3999-23.1,12.8-46.2,19.3-68h0l-47.5,104H2370.7l7.69995-104h-1.3c-5.10009,23.1-10.30005,46.2-16.7,68l-9,35.9h-19.3l29.5-114.2h30.8L2388.5,623.8c0,9-3.8999,23.1-5.1001,32.1h0c3.8999-11.6,7.7-24.4,11.6001-32.1l24.3999-53.9H2450.2ZM2581.2,585.2h-34.7l-7.7,29.5h32.1001l-3.89991,16.7H2535l-9,35.9h34.7l-3.8999,16.7H2503l29.5-114.2h53.8999Zm110.40015,98.9h-20.5l-3.8999-41.1c-1.30005-14.1-2.6001-27-1.30005-46.2h0c-1.3,9-3.89991,20.5-6.39991,33.4-2.60009,11.6-5.10009,23.1-7.69995,32.1l-5.10009,21.8h-19.30005l29.5-114.2h20.5l3.8999,42.4c1.30005,12.8,2.6001,27,1.30005,46.2h0c2.6001-10.3,3.8999-21.8,6.3999-32.1,2.6001-11.6,5.1001-21.8,7.7-32.1l6.3999-23.1h19.3Zm160.5-98.9h-21.80005l-25.69995,97.5h-19.30005l25.7-97.5h-23.1001l3.8999-16.7h64.2Zm210.3999,18h-19.3c2.6001-10.3,5.1001-20.5-6.3999-20.5-6.3999,0-11.6001,2.6-12.8,10.3-2.6001,9,1.3,11.6,6.3999,16.7,5.1001,3.9,14.1001,12.8,18,19.3,5.1001,7.7,5.1001,14.1,2.6001,24.4-5.1001,21.8-21.8,33.4-41.1001,33.4-23.1001,0-28.19995-14.1-21.8-34.7l2.6001-9H3010l-1.3,6.4c-3.8999,11.6-2.6001,19.3,7.69995,19.3,7.7,0,12.80005-5.1,15.3999-12.8,1.30005-6.4,0-11.6-3.8999-15.4-7.69995-9-19.3-15.4-23.1001-27-1.3-5.1-2.60009-11.6,0-18,5.1001-19.3,18-30.8,38.5-30.8C3072.80005,566,3065.1001,592.9,3062.5,603.2Zm106.6001,32.1-12.80005,48.8H3137l12.8-48.8-10.3-65.5H3160l2.6001,29.5c0,5.1,1.3,11.6,0,18h0a165.81825,165.81825,0,0,1,11.6001-21.8l15.3999-25.7h20.5Zm161.69995-32.1h-18c2.6001-10.3,5.1001-20.5-6.3999-20.5-6.39991,0-11.6001,2.6-12.8,10.3-2.6001,9,1.3,11.6,6.3999,16.7,5.1001,3.9,14.1001,12.8,18,19.3,5.1001,7.7,5.1001,14.1,2.6001,24.4-5.1001,21.8-21.80005,33.4-41.1001,33.4-23.1001,0-28.2-14.1-21.8-34.7l2.6001-9h19.30005l-1.30005,6.4c-3.8999,11.6-2.6001,19.3,7.7,19.3,7.7,0,12.8-5.1,15.3999-12.8,1.30005-6.4,0-11.6-3.8999-15.4-7.7-9-19.3-15.4-23.1001-27-1.3-5.1-2.6001-11.6,0-18,5.1001-19.3,18-30.8,38.5-30.8C3342.30005,566,3334.6001,592.9,3330.80005,603.2Zm130.8999-18h-23.1001l-25.7,97.5h-19.3l25.69995-97.5h-23.10009l3.8999-16.7h64.19995Zm128.3,0h-34.7l-7.69995,29.5h32.1001l-3.89991,16.7H3543.7002l-9,35.9h34.69995l-3.89991,16.7h-55.19995l29.5-114.2h53.89991Zm145,98.9h-19.3l9-35.9c6.3999-23.1,12.8-46.2,19.3-68h0l-47.5,104H3685l7.7-104h-1.30005c-5.1001,23.1-10.3,46.2-16.69995,68l-9,35.9H3646.3999l29.5-114.2H3706.7l-3.8999,53.9c0,9-3.8999,23.1-5.1001,32.1h0c3.8999-11.6,7.69995-24.4,11.6001-32.1L3733.7,569.9h30.8Z" transform="translate(0 0)" style="fill:#ed2224"/><path d="M3771,485.1h-5.1001V444H3750.5v-3.9h34.7V444h-15.3999l1.2,41.1Z" transform="translate(0 0)" style="fill:#ed2224"/><path d="M3815.8999,477.4l15.3999-37.2h7.7v46.2h-5.1001V446.6h0l-16.7,39.8h-2.6001l-16.7-39.8h0v39.8h-5.1001V440.2h7.7Z" transform="translate(0 0)" style="fill:#ed2224"/></g></svg>