<svg id="Layer_1" data-name="Layer 1" xmlns="http://www.w3.org/2000/svg" xmlns:xlink="http://www.w3.org/1999/xlink" viewBox="0 0 3840 1157.09998"><defs><linearGradient id="Dégradé_sans_nom" x1="579.54999" y1="1155.88983" x2="579.54999" y2="-1.21014" gradientTransform="matrix(1, 0, 0, -1, 0, 1155.88983)" gradientUnits="userSpaceOnUse"><stop offset="0.2483" stop-color="#131e31"/><stop offset="0.667" stop-color="#14437b"/><stop offset="0.8383" stop-color="#136193"/><stop offset="1" stop-color="#0d7bc1"/></linearGradient></defs><path d="M21.9,736.2l221.8,91.7c15,74.9,81.3,131.5,160.6,131.5,90.3,0,163.8-73.4,163.8-163.8,0-2.6-.1-5.2-.2-7.7L764.6,647.6c1.6,0,3.3.1,5,.1,120.3,0,218.2-97.9,218.2-218.2S889.9,211.3,769.6,211.3,551.4,309.2,551.4,429.5v2.8l-138,199.8c-3-.2-6.1-.3-9.1-.3a162.80711,162.80711,0,0,0-92.2,28.5L2,532.2c0-.1-2,26.5-2,46.4C0,671.8,22.3,737.6,21.9,736.2Z" transform="translate(0 0)" style="fill:#fff"/><path d="M578.5,0C274.6,0,25.6,234.3,2,532.2L312.1,660.4a162.56807,162.56807,0,0,1,92.2-28.5c3.1,0,6.1.1,9.1.3L551.3,432.3v-2.8c0-120.3,97.9-218.2,218.2-218.2s218.2,97.9,218.2,218.2S889.8,647.7,769.5,647.7c-1.7,0-3.3,0-5-.1L567.8,787.9c.1,2.6.2,5.2.2,7.7,0,90.3-73.5,163.8-163.8,163.8-79.3,0-145.6-56.6-160.6-131.5L21.9,736.2C90.6,979,313.7,1157.1,578.5,1157.1c319.5,0,578.6-259,578.6-578.5C1157.1,259,898.1,0,578.5,0Zm-214,877.9-71.1-29.4a122.18634,122.18634,0,0,0,63.3,60.2c62.5,26.1,134.6-3.6,160.7-66.2A122.753,122.753,0,0,0,360.6,680.4L434,710.8a90.48982,90.48982,0,0,1,48.7,118.3C463.7,875.3,410.7,897.1,364.5,877.9ZM914.8,429.4c0-80.2-65.2-145.4-145.4-145.4C689.2,284,624,349.2,624,429.4s65.2,145.4,145.4,145.4C849.6,574.8,914.8,509.6,914.8,429.4Zm-254.3-.2A109.2,109.2,0,1,1,769.7,538.4,109.21219,109.21219,0,0,1,660.5,429.2Z" transform="translate(0 0)" style="fill:url(#Dégradé_sans_nom)"/><path d="M1775,395.9,1736.2,464c-29.9-20.9-70.30005-33.4-105.6-33.4-40.4,0-65.4,16.7-65.4,46.7,0,36.4,44.4,44.8,110.30005,68.5,70.9,25.1,111.69995,54.5,111.69995,119.5,0,88.8-69.9,138.7-170.30005,138.7-48.9,0-108-12.6-153.4-40.2l28.3-75.5c36.9,19.5,81,31,120.30005,31,53,0,78.19995-19.6,78.19995-48.5,0-33.1-38.4-43-100.4-63.5-70.69995-23.6-119.6-54.6-119.6-126.4,0-81,64.9-127.6,158.30005-127.6C1693.6,353.2,1746,373.8,1775,395.9" transform="translate(0 0)" style="fill:#fff"/><polygon points="2078 438.9 2078 796.5 1986.7 796.5 1986.7 438.9 1854.2 438.9 1854.2 360.6 2210.1 360.6 2210.1 438.9 2078 438.9" style="fill:#fff"/><polygon points="2402.5 438.7 2402.5 536.9 2577.2 536.9 2577.2 615.2 2402.5 615.2 2402.5 717.5 2605.2 717.5 2605.2 796.5 2311.3 796.5 2311.3 360.6 2605.2 360.6 2605.2 438.7 2402.5 438.7" style="fill:#fff"/><path d="M2808.8999,711.9,2780,796.5h-95.7L2847.7,360.7h91.8999l168,435.8H3008.7l-29.5-84.6ZM2893.2,464.6l-59.5,174.5H2954Z" transform="translate(0 0)" style="fill:#fff"/><polygon points="3576.1 529.1 3456.9 783.8 3405.4 783.8 3288 531.4 3288 796.5 3200.6 796.5 3200.6 360.6 3287.8 360.6 3434.3 675.2 3575.6 360.6 3663.5 360.6 3663.5 796.5 3576.2 796.5 3576.1 529.1" style="fill:#fff"/><path d="M3840,415.6c0,37.5-28.1001,60.8-60.3,60.8-32.30005,0-60.5-23.3-60.5-60.8,0-37.4,28.1001-60.6,60.5-60.6,32.19995,0,60.3,23.2,60.3,60.6m-110.6001,0c0,31.3,22.6001,51,50.30005,51,27.6001,0,50.1001-19.7,50.1001-51,0-31.4-22.5-50.8-50.1001-50.8-27.7,0-50.30005,19.6-50.30005,50.8m51.2002-31c15.6001,0,20.8999,8.3,20.8999,17.2,0,8.2-4.8999,13.7-10.8,16.5l14,26.2h-11.5l-11.80005-23.3H3769.2v23.3h-9.5V384.6h20.90015Zm-11.30005,27.9h10.6001c6.8999,0,11-4.3,11-9.8s-2.89991-9-11-9h-10.6001v18.8Z" transform="translate(0 0)" style="fill:#fff"/></svg>