<svg id="Layer_1" data-name="Layer 1" xmlns="http://www.w3.org/2000/svg" viewBox="0 0 3839.00448 1126.30005"><polygon points="1938.1 110.6 2224.9 133.9 2224.9 85.1 1938.1 61.9 1938.1 110.6" style="fill:#30348d"/><path d="M1637.9,160.2h202.30005v32.1h-102.4v48.3H1649.1001v56.8h85.3c22.5,0,40.7-21.6,40.7-48.3v-8.4h72.1c22.5,0,40.69995-21.6,40.69995-48.3h0V112h-250Z" transform="translate(0 0)" style="fill:#30348d"/><rect x="1037.09998" y="144.8" width="214.80005" height="56.8" style="fill:#30348d"/><rect x="2682.1001" y="147.89999" width="216.5" height="56.8" style="fill:#30348d"/><polygon points="3153.9 55.2 3082.2 55.2 3082.2 87.9 2959.2 87.9 2959.2 136.2 3082.2 136.2 3082.2 297.3 3153.9 297.3 3153.9 136.2 3291.2 136.2 3291.2 87.9 3153.9 87.9 3153.9 55.2" style="fill:#30348d"/><rect x="3174.8999" y="35.2" width="56.30005" height="37.8" style="fill:#30348d"/><rect x="3249.3999" y="35.2" width="56.30005" height="37.8" style="fill:#30348d"/><path d="M3246.30005,168.6H3194.1001v18.6c0,80.1,41.3999,110.1,75.6001,110.1h21.5V249C3270.30005,249,3246.30005,218.8,3246.30005,168.6Z" transform="translate(0 0)" style="fill:#30348d"/><path d="M2951.30005,249v48.3h21.5c34.1001,0,75.6001-30,75.6001-110.1V168.6H2996.2002C2996.2,218.8,2972.1001,249,2951.30005,249Z" transform="translate(0 0)" style="fill:#30348d"/><path d="M2362.1001,55.2h-2.7v16c0,28.7-10.5,49.4-24.89991,56.1l-10.3,2.3-.5,16.5-1.2,40.3h17.6001c34.6001,0,62.6001-33.3,62.6001-74.4h179.6001v39.4H2416.50049l-15.6001,56.8h162.7v3.2c0,16.1-11,29.2-24.6001,29.2H2355v56.8h184.2c62.5,0,90.3-67.3,90.3-102.7V55.2H2362.1001Z" transform="translate(0 0)" style="fill:#30348d"/><polygon points="1938.1 272.5 2224.9 295.7 2224.9 247 1938.1 223.7 1938.1 272.5" style="fill:#30348d"/><polygon points="1938.1 191.5 2224.9 214.8 2224.9 166 1938.1 142.8 1938.1 191.5" style="fill:#30348d"/><path d="M1315.9,112h243.6v51.6c0,36.9-35.30005,77-83.30005,77h-137.4v56.8h168.7c43.8,0,82.5-40.7,84.3-113h.2V55.2h-276V112Z" transform="translate(0 0)" style="fill:#30348d"/><path d="M757.3,112H957.8v51.6c0,36.9-35.3,77-83.3,77H737.1v56.8H905.8c43.8,0,82.5-40.7,84.3-113h.2V55.2h-233Z" transform="translate(0 0)" style="fill:#30348d"/><polyline points="957.4 244.6 1008.9 305.8 1076 305.2 985.2 197.4" style="fill:#30348d"/><polygon points="1902.9 75.5 2189.7 98.7 2189.7 49.9 1902.9 26.7 1902.9 75.5" style="fill:#f16140"/><path d="M1602.80005,125H1805v32.1H1702.6v48.3H1614v56.8h85.30005c22.5,0,40.69995-21.6,40.69995-48.3v-8.4h72.1c22.5,0,40.69995-21.6,40.69995-48.3h0V76.8h-250V125Z" transform="translate(0 0)" style="fill:#f16140"/><rect x="1002" y="109.6" width="214.80005" height="56.8" style="fill:#f16140"/><rect x="2646.8999" y="112.8" width="216.5" height="56.8" style="fill:#f16140"/><polygon points="3118.7 20 3047 20 3047 52.7 2924 52.7 2924 101 3047 101 3047 262.2 3118.7 262.2 3118.7 101 3256 101 3256 52.7 3118.7 52.7 3118.7 20" style="fill:#f16140"/><rect x="3139.80005" width="56.30005" height="37.8" style="fill:#f16140"/><rect x="3214.30005" width="56.30005" height="37.8" style="fill:#f16140"/><path d="M3211.1001,133.5h-52.2v18.6c0,80.1,41.3999,110.1,75.60009,110.1h21.5V213.9C3235.2,213.8,3211.1001,183.6,3211.1001,133.5Z" transform="translate(0 0)" style="fill:#f16140"/><path d="M2916.1001,213.8v48.3h21.5c34.1001,0,75.6001-30,75.6001-110.1V133.4H2961C2961,183.6,2937,213.8,2916.1001,213.8Z" transform="translate(0 0)" style="fill:#f16140"/><path d="M2326.8999,20H2324.2V36c0,28.7-10.5,49.4-24.8999,56.1L2289,94.4l-.5,16.5-1.2,40.3h17.6001c34.60009,0,62.60009-33.3,62.60009-74.4h179.6001v39.4h-165.8L2365.7002,173h162.69995v3.2c0,16.1-11,29.2-24.6001,29.2h-184v56.8H2504c62.5,0,90.3-67.3,90.3-102.7V20H2326.8999Z" transform="translate(0 0)" style="fill:#f16140"/><polygon points="1902.9 237.3 2189.7 260.6 2189.7 211.8 1902.9 188.5 1902.9 237.3" style="fill:#f16140"/><polygon points="1902.9 156.4 2189.7 179.6 2189.7 130.9 1902.9 107.6 1902.9 156.4" style="fill:#f16140"/><path d="M1280.80005,76.8h243.6v51.6c0,36.9-35.3,77-83.3,77H1303.7v56.8H1472.3999c43.80005,0,82.5-40.7,84.30005-113h.19995V20h-276V76.8Z" transform="translate(0 0)" style="fill:#f16140"/><path d="M722.1,76.8H922.6v51.6c0,36.9-35.3,77-83.3,77H701.9v56.8H870.6c43.8,0,82.5-40.7,84.3-113h.2V20h-233V76.8Z" transform="translate(0 0)" style="fill:#f16140"/><polyline points="922.2 209.5 973.7 270.7 1040.8 270.1 950.1 162.2" style="fill:#f16140"/><polygon points="1786.9 1125.8 1883.8 1125.8 2014.4 385.1 1917.5 385.1 1786.9 1125.8" style="fill:#fff"/><polygon points="1779.4 385.1 1779.4 385.2 1574.8 776.3 1508.2 385.2 1508.2 385.1 1411.4 385.1 1280.8 1125.8 1377.6 1125.8 1456.1 681 1495 1125.8 1531.4 1125.8 1727.2 681 1648.8 1125.8 1745.7 1125.8 1876.3 385.1 1779.4 385.1" style="fill:#fff"/><path d="M708.6,891.9l.5-2.7h0L798,385.1H701.1L619.3,849c-11,62.5-50.4,113.1-88.1,113.1-37.6,0-59.2-50.6-48.2-113.1h0l81.8-463.8H468L378.6,892h0c-21.3,123.6-5.2,233.9,123.7,233.9,129-.1,184-110.4,206.3-234Z" transform="translate(0 0)" style="fill:#fff"/><polygon points="954 829.5 981.8 672.3 885.1 672.3 908 542.4 1004.7 542.4 1032.4 385.1 935.7 385.1 887.3 385.1 838.8 385.1 708.2 1125.8 805.1 1125.8 857.3 829.5 954 829.5" style="fill:#fff"/><path d="M1159.6,382.7l-275.5,743.1h98.7l44.3-119.6h136.6l2.1,119.6h98.7l-13.4-743.1H1159.6Zm-74.1,466.2,71.9-194,3.5,194Z" transform="translate(0 0)" style="fill:#fff"/><polygon points="2475.6 542.4 2503.3 385.1 2247.7 385.1 2219.9 542.4 2291.1 542.4 2188.2 1125.8 2285.1 1125.8 2388 542.4 2475.6 542.4" style="fill:#fff"/><path d="M2778.6001,891.9l.5-2.7h0L2868,385.1h-96.8999L2689.30005,849c-11,62.4-50.3999,113.1-88,113.1S2542.1001,911.5,2553.1001,849h0l81.8-463.8H2538L2448.6001,892h0c-21.30005,123.6-5.2,233.9,123.69995,233.9,129-.1,184-110.4,206.30005-234Z" transform="translate(0 0)" style="fill:#fff"/><path d="M270.9,663.6c-58.1-44.4-59.4-121.3,58.6-121.3H414L440.9,385h-117C197.6,385,154,507.4,133.6,589.6,116,660.1,115.1,730.1,155,772.1l47.7,39.2c58.1,44.4,59.4,157-58.6,157H75.7L0,1125.7s94.8-1,131.2,0c115.3,3.19995,171.1-106.2,199.7-209,16.8-60.5,34.4-167-12.4-213.8Z" transform="translate(0 0)" style="fill:#fff"/><path d="M3126.8999,611.9c13.7-85,4.7-138.3-11.1001-171.6-16.10009-34.2-51.60009-55.1-89.3999-55.1H2899.6001L2769,1125.80005h96.8999L2910.5,872.9l37.2,252.9h97.8999L3001.7,827C3073.3999,790.6,3103.2,759,3126.8999,611.9Zm-98.2998,26.6c-13.1001,68-46.3999,87.1-78.2,87.1h-13.89991l32.30005-183.2C3008.80005,542.4,3043.30005,562.1,3028.6001,638.5Z" transform="translate(0 0)" style="fill:#fff"/><path d="M3363.80005,732.1c26.6001-42.7,51.6001-101.3,65.80005-180.8,23.3-130.2-48.1001-166.2-99.6001-166.2h-127.2L3072.2,1125.80005c38.3.69995,99.69995.4,140.19995.1,38.80005-.3,76.5-15,103.3999-43,29.80005-31.1,46-78.1,62.80005-172.4,14.8-83.3,4.8-137.2-10.60009-170.6Q3366.05,735.85,3363.80005,732.1ZM3297.7,905.3c-3.8999,21.9-11,37.4-17.30005,47.6A32.85457,32.85457,0,0,1,3252.5,968.6h-55.6001l23.7-134.4h46.39991C3290.59961,834.19995,3305.8999,859.6,3297.7,905.3Zm31.5-291.7c-4.6001,25.4-15,42.2-23.30005,52a32.23351,32.23351,0,0,1-24.6001,11.2h-32.8999l23.7-134.4h31.39991C3327.09961,542.4,3337.3999,567.9,3329.2,613.6Z" transform="translate(0 0)" style="fill:#fff"/><path d="M3695.3999,385.1c-109.6001,0-227.69995,165.9-263.8,370.6s23.5,370.6,133.1001,370.6,227.69995-165.9,263.8-370.6C3864.5,551,3805,385.1,3695.3999,385.1Zm36.2002,370.4c-20.7,117.7-83,213.1-139.1001,213.1s-84.7-95.4-64-213.1,83-213.1,139.1001-213.1C3723.7,542.4,3752.3999,637.8,3731.6001,755.5Z" transform="translate(0 0)" style="fill:#fff"/></svg>