<?xml version="1.0" encoding="UTF-8" standalone="no"?>
<svg
   id="Layer_1"
   data-name="Layer 1"
   viewBox="0 0 3839.0045 1126.3001"
   version="1.1"
   sodipodi:docname="sufami.svg"
   width="3839.0044"
   height="1126.3"
   inkscape:version="1.1.2 (0a00cf5339, 2022-02-04, custom)"
   xmlns:inkscape="http://www.inkscape.org/namespaces/inkscape"
   xmlns:sodipodi="http://sodipodi.sourceforge.net/DTD/sodipodi-0.dtd"
   xmlns="http://www.w3.org/2000/svg"
   xmlns:svg="http://www.w3.org/2000/svg">
  <defs
     id="defs87" />
  <sodipodi:namedview
     id="namedview85"
     pagecolor="#ffffff"
     bordercolor="#666666"
     borderopacity="1.0"
     inkscape:pageshadow="2"
     inkscape:pageopacity="0.0"
     inkscape:pagecheckerboard="0"
     showgrid="false"
     inkscape:zoom="0.27845761"
     inkscape:cx="1919.5022"
     inkscape:cy="563.8201"
     inkscape:window-width="1920"
     inkscape:window-height="1017"
     inkscape:window-x="-8"
     inkscape:window-y="-8"
     inkscape:window-maximized="1"
     inkscape:current-layer="Layer_1" />
  <polygon
     points="2224.9,85.1 1938.1,61.9 1938.1,110.6 2224.9,133.9 "
     style="fill:#30348d"
     id="polygon2" />
  <path
     d="m 1637.9,160.2 h 202.3001 v 32.1 h -102.4 v 48.3 h -88.7 v 56.8 h 85.3 c 22.5,0 40.7,-21.6 40.7,-48.3 v -8.4 h 72.1 c 22.5,0 40.7,-21.6 40.7,-48.3 v 0 -80.4 h -250 z"
     style="fill:#30348d"
     id="path4" />
  <rect
     x="1037.1"
     y="144.8"
     width="214.80005"
     height="56.799999"
     style="fill:#30348d"
     id="rect6" />
  <rect
     x="2682.1001"
     y="147.89999"
     width="216.5"
     height="56.799999"
     style="fill:#30348d"
     id="rect8" />
  <polygon
     points="3082.2,87.9 2959.2,87.9 2959.2,136.2 3082.2,136.2 3082.2,297.3 3153.9,297.3 3153.9,136.2 3291.2,136.2 3291.2,87.9 3153.9,87.9 3153.9,55.2 3082.2,55.2 "
     style="fill:#30348d"
     id="polygon10" />
  <rect
     x="3174.8999"
     y="35.200001"
     width="56.300049"
     height="37.799999"
     style="fill:#30348d"
     id="rect12" />
  <rect
     x="3249.3999"
     y="35.200001"
     width="56.300049"
     height="37.799999"
     style="fill:#30348d"
     id="rect14" />
  <path
     d="m 3246.3,168.6 h -52.1999 v 18.6 c 0,80.1 41.3999,110.1 75.6001,110.1 h 21.5 V 249 C 3270.3,249 3246.3,218.8 3246.3,168.6 Z"
     style="fill:#30348d"
     id="path16" />
  <path
     d="m 2951.3,249 v 48.3 h 21.5 c 34.1002,0 75.6002,-30 75.6002,-110.1 v -18.6 h -52.2 C 2996.2,218.8 2972.1001,249 2951.3,249 Z"
     style="fill:#30348d"
     id="path18" />
  <path
     d="m 2362.1001,55.2 h -2.7 v 16 c 0,28.7 -10.5,49.4 -24.8999,56.1 l -10.3,2.3 -0.5,16.5 -1.2,40.3 h 17.6001 c 34.6001,0 62.6001,-33.3 62.6001,-74.4 h 179.6001 v 39.4 h -165.8 l -15.6001,56.8 h 162.7 v 3.2 c 0,16.1 -11,29.2 -24.6001,29.2 H 2355 v 56.8 h 184.2 c 62.5,0 90.3,-67.3 90.3,-102.7 V 55.2 Z"
     style="fill:#30348d"
     id="path20" />
  <polygon
     points="2224.9,247 1938.1,223.7 1938.1,272.5 2224.9,295.7 "
     style="fill:#30348d"
     id="polygon22" />
  <polygon
     points="2224.9,166 1938.1,142.8 1938.1,191.5 2224.9,214.8 "
     style="fill:#30348d"
     id="polygon24" />
  <path
     d="m 1315.9,112 h 243.6 v 51.6 c 0,36.9 -35.3,77 -83.3,77 h -137.4001 v 56.8 H 1507.5 c 43.7999,0 82.5,-40.7 84.2999,-113 H 1592 V 55.2 H 1316 V 112 Z"
     style="fill:#30348d"
     id="path26" />
  <path
     d="m 757.3,112 h 200.5 v 51.6 c 0,36.9 -35.3,77 -83.3,77 H 737.1 v 56.8 h 168.7 c 43.8,0 82.5,-40.7 84.3,-113 h 0.2 V 55.2 h -233 z"
     style="fill:#30348d"
     id="path28" />
  <polyline
     points="957.4 244.6 1008.9 305.8 1076 305.2 985.2 197.4"
     style="fill:#30348d"
     id="polyline30" />
  <polygon
     points="2189.7,49.9 1902.9,26.7 1902.9,75.5 2189.7,98.7 "
     style="fill:#f16140"
     id="polygon32" />
  <path
     d="M 1602.8001,125 H 1805 v 32.1 h -102.4 v 48.3 H 1614 v 56.8 h 85.3001 c 22.5,0 40.6999,-21.6 40.6999,-48.3 v -8.4 h 72.1 c 22.5,0 40.6999,-21.6 40.6999,-48.3 v 0 -80.4 h -250 V 125 Z"
     style="fill:#f16140"
     id="path34" />
  <rect
     x="1002"
     y="109.6"
     width="214.80005"
     height="56.799999"
     style="fill:#f16140"
     id="rect36" />
  <rect
     x="2646.8999"
     y="112.8"
     width="216.5"
     height="56.799999"
     style="fill:#f16140"
     id="rect38" />
  <polygon
     points="3047,52.7 2924,52.7 2924,101 3047,101 3047,262.2 3118.7,262.2 3118.7,101 3256,101 3256,52.7 3118.7,52.7 3118.7,20 3047,20 "
     style="fill:#f16140"
     id="polygon40" />
  <rect
     x="3139.8"
     width="56.300049"
     height="37.799999"
     style="fill:#f16140"
     id="rect42"
     y="0" />
  <rect
     x="3214.3"
     width="56.300049"
     height="37.799999"
     style="fill:#f16140"
     id="rect44"
     y="0" />
  <path
     d="m 3211.1001,133.5 h -52.2 v 18.6 c 0,80.1 41.3999,110.1 75.6001,110.1 h 21.5 v -48.3 c -20.8002,-0.1 -44.9001,-30.3 -44.9001,-80.4 z"
     style="fill:#f16140"
     id="path46" />
  <path
     d="m 2916.1001,213.8 v 48.3 h 21.5 c 34.1001,0 75.6001,-30 75.6001,-110.1 V 133.4 H 2961 c 0,50.2 -24,80.4 -44.8999,80.4 z"
     style="fill:#f16140"
     id="path48" />
  <path
     d="M 2326.8999,20 H 2324.2 v 16 c 0,28.7 -10.5,49.4 -24.8999,56.1 L 2289,94.4 l -0.5,16.5 -1.2,40.3 h 17.6001 c 34.6001,0 62.6001,-33.3 62.6001,-74.4 h 179.6001 v 39.4 h -165.8 l -15.6001,56.8 h 162.7 v 3.2 c 0,16.1 -11,29.2 -24.6001,29.2 h -184 v 56.8 H 2504 c 62.5,0 90.3,-67.3 90.3,-102.7 V 20 Z"
     style="fill:#f16140"
     id="path50" />
  <polygon
     points="2189.7,211.8 1902.9,188.5 1902.9,237.3 2189.7,260.6 "
     style="fill:#f16140"
     id="polygon52" />
  <polygon
     points="2189.7,130.9 1902.9,107.6 1902.9,156.4 2189.7,179.6 "
     style="fill:#f16140"
     id="polygon54" />
  <path
     d="m 1280.8001,76.8 h 243.6 v 51.6 c 0,36.9 -35.3,77 -83.3,77 H 1303.7 v 56.8 h 168.6999 c 43.8001,0 82.5,-40.7 84.3001,-113 h 0.1999 V 20 h -276 v 56.8 z"
     style="fill:#f16140"
     id="path56" />
  <path
     d="m 722.1,76.8 h 200.5 v 51.6 c 0,36.9 -35.3,77 -83.3,77 H 701.9 v 56.8 h 168.7 c 43.8,0 82.5,-40.7 84.3,-113 h 0.2 V 20 h -233 z"
     style="fill:#f16140"
     id="path58" />
  <polyline
     points="922.2 209.5 973.7 270.7 1040.8 270.1 950.1 162.2"
     style="fill:#f16140"
     id="polyline60" />
  <polygon
     points="2014.4,385.1 1917.5,385.1 1786.9,1125.8 1883.8,1125.8 "
     style="fill:#ffffff"
     id="polygon62" />
  <polygon
     points="1574.8,776.3 1508.2,385.2 1508.2,385.1 1411.4,385.1 1280.8,1125.8 1377.6,1125.8 1456.1,681 1495,1125.8 1531.4,1125.8 1727.2,681 1648.8,1125.8 1745.7,1125.8 1876.3,385.1 1779.4,385.1 1779.4,385.2 "
     style="fill:#ffffff"
     id="polygon64" />
  <path
     d="m 708.6,891.9 0.5,-2.7 v 0 L 798,385.1 H 701.1 L 619.3,849 c -11,62.5 -50.4,113.1 -88.1,113.1 C 493.6,962.1 472,911.5 483,849 v 0 L 564.8,385.2 H 468 L 378.6,892 v 0 c -21.3,123.6 -5.2,233.9 123.7,233.9 129,-0.1 184,-110.4 206.3,-234 z"
     style="fill:#ffffff"
     id="path66" />
  <polygon
     points="885.1,672.3 908,542.4 1004.7,542.4 1032.4,385.1 935.7,385.1 887.3,385.1 838.8,385.1 708.2,1125.8 805.1,1125.8 857.3,829.5 954,829.5 981.8,672.3 "
     style="fill:#ffffff"
     id="polygon68" />
  <path
     d="m 1159.6,382.7 -275.5,743.1 h 98.7 l 44.3,-119.6 h 136.6 l 2.1,119.6 h 98.7 l -13.4,-743.1 z m -74.1,466.2 71.9,-194 3.5,194 z"
     style="fill:#ffffff"
     id="path70" />
  <polygon
     points="2247.7,385.1 2219.9,542.4 2291.1,542.4 2188.2,1125.8 2285.1,1125.8 2388,542.4 2475.6,542.4 2503.3,385.1 "
     style="fill:#ffffff"
     id="polygon72" />
  <path
     d="m 2778.6001,891.9 0.5,-2.7 v 0 L 2868,385.1 h -96.8999 L 2689.3,849 c -11,62.4 -50.3998,113.1 -88,113.1 -37.6001,0 -59.1999,-50.6 -48.1999,-113.1 v 0 l 81.8,-463.8 H 2538 L 2448.6001,892 v 0 c -21.3,123.6 -5.2,233.9 123.7,233.9 129,-0.1 184,-110.4 206.3,-234 z"
     style="fill:#ffffff"
     id="path74" />
  <path
     d="M 270.9,663.6 C 212.8,619.2 211.5,542.3 329.5,542.3 H 414 L 440.9,385 h -117 C 197.6,385 154,507.4 133.6,589.6 116,660.1 115.1,730.1 155,772.1 l 47.7,39.2 c 58.1,44.4 59.4,157 -58.6,157 H 75.7 L 0,1125.7 c 0,0 94.8,-1 131.2,0 115.3,3.2 171.1,-106.2 199.7,-209 16.8,-60.5 34.4,-167 -12.4,-213.8 z"
     style="fill:#ffffff"
     id="path76" />
  <path
     d="m 3126.8999,611.9 c 13.7,-85 4.7,-138.3 -11.1001,-171.6 -16.1001,-34.2 -51.6001,-55.1 -89.3999,-55.1 H 2899.6001 L 2769,1125.8001 h 96.8999 L 2910.5,872.9 l 37.2,252.9 h 97.8999 L 3001.7,827 c 71.6999,-36.4 101.5,-68 125.1999,-215.1 z m -98.2998,26.6 c -13.1001,68 -46.3999,87.1 -78.2,87.1 h -13.8999 l 32.3,-183.2 c 39.9998,0 74.4998,19.7 59.7999,96.1 z"
     style="fill:#ffffff"
     id="path78" />
  <path
     d="m 3363.8,732.1 c 26.6002,-42.7 51.6002,-101.3 65.8001,-180.8 C 3452.9001,421.1 3381.5,385.1 3330,385.1 h -127.2 l -130.6,740.7001 c 38.3,0.6999 99.7,0.4 140.2,0.1 38.8,-0.3 76.5,-15 103.3998,-43 29.8001,-31.1 46,-78.1001 62.8001,-172.40005 14.8,-83.3 4.8,-137.2 -10.6001,-170.6 Q 3366.05,735.85 3363.8,732.1 Z m -66.1,173.2 c -3.8999,21.9 -11,37.4 -17.3,47.6 a 32.85457,32.85457 0 0 1 -27.9,15.7 h -55.6001 l 23.7,-134.4 h 46.3999 c 23.5998,-5e-5 38.9001,25.4 30.7002,71.1 z m 31.5,-291.7 c -4.6001,25.4 -15,42.2 -23.3,52 a 32.23351,32.23351 0 0 1 -24.6002,11.2 H 3248.4 l 23.6999,-134.4 h 31.4 c 23.5997,0 33.9,25.5 25.7001,71.2 z"
     style="fill:#ffffff"
     id="path80" />
  <path
     d="m 3695.3999,385.1 c -109.6001,0 -227.7,165.9 -263.8,370.6 -36.1001,204.7 23.5,370.6 133.1001,370.6 109.6001,0 227.7,-165.9 263.8,-370.6 36,-204.7 -23.5,-370.6 -133.1001,-370.6 z m 36.2002,370.4 c -20.7,117.7 -83,213.1 -139.1001,213.1 -56.1001,0 -84.7,-95.4 -64,-213.1 20.7,-117.7 83,-213.1 139.1001,-213.1 56.0999,0 84.7998,95.4 64,213.1 z"
     style="fill:#ffffff"
     id="path82" />
</svg>
