<?xml version="1.0" encoding="UTF-8" standalone="no"?>
<svg
   height="175.78619"
   viewBox="0 0 685.31518 87.893097"
   width="1370.6304"
   version="1.1"
   id="svg83"
   sodipodi:docname="supervision_alt.svg"
   inkscape:version="1.1.2 (0a00cf5339, 2022-02-04, custom)"
   xmlns:inkscape="http://www.inkscape.org/namespaces/inkscape"
   xmlns:sodipodi="http://sodipodi.sourceforge.net/DTD/sodipodi-0.dtd"
   xmlns:xlink="http://www.w3.org/1999/xlink"
   xmlns="http://www.w3.org/2000/svg"
   xmlns:svg="http://www.w3.org/2000/svg">
  <defs
     id="defs87">
    <linearGradient
       inkscape:collect="always"
       xlink:href="#a"
       id="linearGradient904"
       gradientUnits="userSpaceOnUse"
       x1="321.90372"
       y1="108.31639"
       x2="321.90372"
       y2="16.728762" />
    <linearGradient
       inkscape:collect="always"
       xlink:href="#a"
       id="linearGradient906"
       gradientUnits="userSpaceOnUse"
       x1="321.90372"
       y1="108.31639"
       x2="321.90372"
       y2="16.728762" />
    <linearGradient
       inkscape:collect="always"
       xlink:href="#a"
       id="linearGradient908"
       gradientUnits="userSpaceOnUse"
       x1="321.90372"
       y1="108.31639"
       x2="321.90372"
       y2="16.728762" />
    <linearGradient
       inkscape:collect="always"
       xlink:href="#a"
       id="linearGradient910"
       gradientUnits="userSpaceOnUse"
       x1="321.90372"
       y1="108.31639"
       x2="321.90372"
       y2="16.728762" />
    <linearGradient
       inkscape:collect="always"
       xlink:href="#a"
       id="linearGradient912"
       gradientUnits="userSpaceOnUse"
       x1="321.90372"
       y1="108.31639"
       x2="321.90372"
       y2="16.728762" />
    <linearGradient
       inkscape:collect="always"
       xlink:href="#a"
       id="linearGradient914"
       gradientUnits="userSpaceOnUse"
       x1="321.90372"
       y1="108.31639"
       x2="321.90372"
       y2="16.728762" />
    <linearGradient
       inkscape:collect="always"
       xlink:href="#a"
       id="linearGradient916"
       gradientUnits="userSpaceOnUse"
       x1="321.90372"
       y1="108.31639"
       x2="321.90372"
       y2="16.728762" />
    <linearGradient
       inkscape:collect="always"
       xlink:href="#a"
       id="linearGradient918"
       gradientUnits="userSpaceOnUse"
       x1="321.90372"
       y1="108.31639"
       x2="321.90372"
       y2="16.728762" />
    <linearGradient
       inkscape:collect="always"
       xlink:href="#a"
       id="linearGradient920"
       gradientUnits="userSpaceOnUse"
       x1="321.90372"
       y1="108.31639"
       x2="321.90372"
       y2="16.728762" />
    <linearGradient
       inkscape:collect="always"
       xlink:href="#a"
       id="linearGradient922"
       gradientUnits="userSpaceOnUse"
       x1="321.90372"
       y1="108.31639"
       x2="321.90372"
       y2="16.728762" />
    <linearGradient
       inkscape:collect="always"
       xlink:href="#a"
       id="linearGradient924"
       gradientUnits="userSpaceOnUse"
       x1="321.90372"
       y1="108.31639"
       x2="321.90372"
       y2="16.728762" />
  </defs>
  <sodipodi:namedview
     id="namedview85"
     pagecolor="#ffffff"
     bordercolor="#666666"
     borderopacity="1.0"
     inkscape:pageshadow="2"
     inkscape:pageopacity="0.0"
     inkscape:pagecheckerboard="0"
     showgrid="false"
     inkscape:zoom="0.38803302"
     inkscape:cx="627.52391"
     inkscape:cy="33.502303"
     inkscape:window-width="1920"
     inkscape:window-height="1017"
     inkscape:window-x="-8"
     inkscape:window-y="-8"
     inkscape:window-maximized="1"
     inkscape:current-layer="svg83" />
  <linearGradient
     id="a">
    <stop
       offset="0"
       stop-color="#d03f64"
       id="stop2" />
    <stop
       offset=".26519692"
       stop-color="#d03f64"
       id="stop4" />
    <stop
       offset=".59987092"
       stop-color="#2b5070"
       id="stop6" />
    <stop
       offset="1"
       stop-color="#2a5070"
       id="stop8" />
  </linearGradient>
  <linearGradient
     id="b"
     gradientUnits="userSpaceOnUse"
     x1="321.90372"
     x2="321.90372"
     xlink:href="#a"
     y1="108.31639"
     y2="16.728762" />
  <linearGradient
     id="c"
     gradientTransform="matrix(16.421721,0,0,14.957131,-1129.9905,-1893.6978)"
     gradientUnits="userSpaceOnUse"
     x1="136.4678"
     x2="136.4678"
     xlink:href="#a"
     y1="137.76561"
     y2="126.87331" />
  <g
     transform="translate(-24.706668,-18.255671)"
     id="g81">
    <text
       fill="#ef00eb"
       font-family="TrasksHand"
       font-size="2px"
       stroke="#0105ff"
       stroke-width="2.5"
       x="513.52856"
       y="21.025202"
       id="text15"><tspan
         fill="#fafafa"
         fill-opacity="0.4"
         font-size="2px"
         stroke="none"
         stroke-width="2.5"
         x="513.52856"
         y="21.025202"
         id="tspan13">John Loreth 2022</tspan></text>
    <g
       fill="url(#b)"
       stroke="#ffffff"
       id="g41"
       style="fill:url(#b)">
      <g
         fill="url(#b)"
         stroke-width="0.999996"
         id="g35"
         style="fill:url(#linearGradient922)">
        <path
           d="m 78.079767,28.725407 -7.994636,10.764124 q -5.32976,-6.542922 -13.09266,-6.542922 -4.171118,0 -7.415319,2.638288 -3.244201,2.532766 -3.244201,6.331877 0,2.638214 1.853831,4.748814 1.969695,2.005153 4.982162,3.377022 3.128338,1.266345 6.835993,2.638288 3.707655,1.371868 7.299455,3.271424 3.707655,1.794033 6.720121,4.326799 3.128338,2.427168 4.98217,6.648444 1.969687,4.115679 1.969687,9.497704 0,12.136067 -7.762901,19.734289 -7.762909,7.492702 -20.971433,7.492702 -16.684461,0 -26.880519,-15.513015 l 11.007111,-9.81442 q 1.853823,4.854486 6.140804,8.231432 4.402844,3.377021 9.616732,3.377021 5.098033,0 8.1105,-3.377021 3.128338,-3.376946 3.128338,-8.125835 0,-6.753967 -8.45809,-10.447556 -1.39037,-0.633435 -6.72013,-2.532766 -9.616732,-3.588066 -14.598902,-8.336955 -4.866298,-4.854412 -4.866298,-13.402413 0,-10.025391 7.299447,-16.884881 7.299455,-6.965012 18.190694,-6.965012 6.024941,0 12.976797,2.532691 7.067729,2.427243 10.891247,6.331877 z"
           id="path17"
           style="fill:url(#linearGradient904)" />
        <path
           d="M 88.168616,69.565779 V 21.97144 H 105.20066 V 66.5054 q 0,3.588067 0.11585,6.331877 0.23171,2.638214 1.15865,6.22628 0.9269,3.482544 2.43315,5.698667 1.50623,2.216124 4.5187,3.799112 3.01247,1.582988 7.18359,1.582988 4.17111,0 7.18358,-1.582988 3.01247,-1.582988 4.51871,-3.799112 1.50623,-2.216123 2.43315,-5.698667 0.92691,-3.588066 1.04278,-6.22628 0.23171,-2.74381 0.23171,-6.331877 V 21.97144 h 17.03205 v 47.594339 q 0,15.61861 -7.87877,24.905269 -7.87878,9.181212 -24.56323,9.181212 -16.68446,0 -24.563224,-9.181212 -7.878773,-9.286659 -7.878773,-24.905269 z"
           id="path19"
           style="fill:url(#linearGradient906)" />
        <path
           d="M 182.20631,71.781977 V 101.54166 H 165.17427 V 21.97144 h 23.17286 q 30.24057,0 30.24057,24.694148 0,12.558232 -7.18358,18.890035 -7.18359,6.226354 -20.73971,6.226354 z m 0,-36.935813 v 24.061014 h 3.47593 q 8.22637,0 11.81817,-2.532691 3.70765,-2.532766 3.70765,-9.814421 0,-7.070535 -3.93939,-9.392181 -3.93938,-2.321721 -12.04988,-2.321721 z"
           id="path21"
           style="fill:url(#linearGradient908)" />
        <path
           d="m 271.61163,35.479374 h -28.15502 v 17.518092 h 27.11224 V 66.5054 h -27.11224 v 21.528323 h 28.15502 V 101.54166 H 226.42456 V 21.97144 h 45.18707 z"
           id="path23"
           style="fill:url(#linearGradient910)" />
        <path
           d="m 318.09091,67.872033 25.12967,33.669627 H 322.22015 L 300.62994,69.354285 h -0.23565 V 101.54166 H 283.05131 V 21.708568 h 23.47797 q 13.9216,0 21.82619,5.929231 7.9046,5.82341 7.9046,18.105458 0,8.046787 -4.8371,14.505426 -4.83718,6.352742 -13.33173,7.62335 z M 300.39396,34.414128 v 24.034614 h 2.24157 q 7.90467,0 12.03392,-2.647039 4.24731,-2.75286 4.24731,-9.63501 0,-6.88215 -4.24731,-9.317395 -4.12925,-2.43517 -11.91593,-2.43517 z"
           id="path25"
           style="fill:url(#linearGradient912)" />
        <path
           d="m 357.62497,21.97144 20.97144,53.609648 h 0.23155 L 398.2932,21.97144 h 18.30653 l -33.94822,81.68082 h -9.96429 L 339.31828,21.97144 Z"
           id="path27"
           style="fill:url(#linearGradient914)" />
        <path
           d="m 437.80436,21.97144 v 79.57022 H 420.77224 V 21.97144 Z"
           id="path29"
           style="fill:url(#linearGradient916)" />
        <path
           d="m 500.58903,29.212187 -7.99467,10.706165 q -5.32975,-6.507698 -13.09263,-6.507698 -4.17111,0 -7.41531,2.624079 -3.24419,2.519155 -3.24419,6.297775 0,2.624079 1.85377,4.723312 1.9697,1.994309 4.98218,3.358848 3.12834,1.25954 6.83604,2.624079 3.70761,1.364465 7.29945,3.253775 3.70762,1.784385 6.7201,4.30354 3.12834,2.414081 4.98219,6.612697 1.9697,4.093468 1.9697,9.446551 0,12.070778 -7.76296,19.628093 -7.76288,7.452387 -20.97144,7.452387 -16.68447,0 -26.88047,-15.429548 l 11.00707,-9.761622 q 1.85385,4.828386 6.14082,8.187159 4.40283,3.358848 9.61672,3.358848 5.09805,0 8.11053,-3.358848 3.12834,-3.358773 3.12834,-8.082086 0,-6.717621 -8.45809,-10.391317 -1.39043,-0.630443 -6.72018,-2.519155 -9.61673,-3.568771 -14.59883,-8.292084 -4.86633,-4.828311 -4.86633,-13.330318 0,-9.971396 7.29945,-16.794017 7.29946,-6.92747 18.19067,-6.92747 6.02497,0 12.97678,2.519005 7.06774,2.414231 10.89129,6.29785 z"
           id="path31"
           style="fill:url(#linearGradient918)" />
        <path
           d="m 528.56951,21.97144 v 79.57022 H 511.53748 V 21.97144 Z"
           id="path33"
           style="fill:url(#linearGradient920)" />
      </g>
      <path
         d="m 1113.8379,3.0761719 c -24.8721,0 -45.4975,8.2306431 -61.8731,24.6933591 -16.3755,16.462816 -24.5625,36.092051 -24.5625,58.886719 0,22.00443 7.2862,40.97469 21.8575,56.91211 l 20.455,-32.71484 c -4.725,-8.26017 -7.0898,-16.748271 -7.0898,-25.464848 0,-13.367188 4.867,-25.325853 14.5996,-35.878906 9.8871,-10.553154 22.0917,-15.830078 36.6133,-15.830078 14.5217,-10e-7 26.6482,5.276924 36.3809,15.830078 9.887,10.553053 14.83,22.511718 14.83,35.878906 0,8.425355 -2.2064,16.637788 -6.6211,24.636718 l 20.1875,33.09766 c 14.4377,-15.84513 21.6563,-34.66696 21.6563,-56.4668 0,-22.794668 -8.1871,-42.423903 -24.5625,-58.886719 -16.3755,-16.462716 -36.9989,-24.6933591 -61.8711,-24.6933591 z"
         fill="url(#c)"
         stroke-width="1.99999"
         transform="matrix(0.5,0,0,0.5,24.706668,18.323202)"
         id="path37"
         style="fill:url(#c)" />
      <path
         d="M 632.40003,101.54166 V 19.860839 h 12.53823 l 46.95923,55.614652 h 0.23647 V 21.97144 h 17.38789 v 81.15313 H 696.98371 L 650.0244,47.509844 h -0.23648 v 54.031816 z"
         fill="url(#b)"
         stroke-width="0.999996"
         id="path39"
         style="fill:url(#linearGradient924)" />
    </g>
    <path
       d="m 582.07614,46.506179 36.07434,59.142591 h -73.05047 z"
       fill="#3aa932"
       stroke="#ffffff"
       id="path43" />
    <g
       fill="none"
       stroke="#bcc1d5"
       id="g79">
      <path
         d="m 53.450729,67.292664 c 3.807666,-5.296656 9.141048,-8.536801 15.447864,-10.963573"
         opacity="0.877992"
         id="path45" />
      <path
         d="M 88.269211,54.545019 104.87508,57.84437"
         opacity="0.877992"
         id="path47" />
      <path
         d="m 135.71027,55.610124 c 5.41022,3.37082 10.89091,8.457233 17.24716,3.922923"
         opacity="0.877992"
         id="path49" />
      <path
         d="m 165.25374,58.227146 c 4.96112,-1.114374 7.5081,-1.759375 16.15666,1.675475 3.6848,4.209335 25.88617,4.31217 35.72401,-3.432384"
         opacity="0.877992"
         id="path51" />
      <path
         d="m 226.21234,63.62619 c 9.93387,-7.789882 28.83842,-11.874779 44.26146,-1.07988"
         opacity="0.877992"
         id="path53" />
      <path
         d="m 283.15972,54.72859 c 5.32515,4.230085 11.09652,5.655241 17.53607,2.880321"
         opacity="0.877992"
         id="path55" />
      <path
         d="m 314.12149,56.201485 c 8.76417,3.266442 14.16923,-0.193685 21.26733,-5.034629"
         opacity="0.877992"
         id="path57" />
      <path
         d="m 355.05406,61.239522 c 2.62253,-0.597267 5.71381,0.240184 8.23379,-1.514627 2.59146,-1.804591 6.0168,-1.644481 8.8242,-0.27218"
         opacity="0.877992"
         id="path59" />
      <path
         d="m 382.7508,65.125623 c 5.00409,4.004045 9.80211,3.772685 16.38853,-1.482278"
         opacity="0.877992"
         id="path61" />
      <path
         d="m 420.82868,63.607449 c 6.82828,-6.413947 11.62934,-7.418984 16.8041,-2.451986"
         opacity="0.877992"
         id="path63" />
      <path
         d="m 457.8213,58.805023 c 1.78428,-3.406595 8.14634,0.67736 16.16536,4.766471 3.88344,1.980265 8.06813,3.088304 11.28264,3.282599 4.98955,-0.295924 8.40648,-3.776442 10.34989,-6.663735"
         opacity="0.877992"
         id="path65" />
      <path
         d="m 511.45256,64.925574 c 5.54513,-4.857012 10.81429,-6.353233 17.04841,-3.194708"
         opacity="0.877992"
         id="path67" />
      <path
         d="m 540.14392,50.462979 c 5.39411,8.840374 10.23571,7.57842 16.92913,2.532425"
         opacity="0.877992"
         id="path69" />
      <path
         d="m 604.63693,50.262348 c 6.20598,0.134396 11.43335,-0.982455 19.03727,0.939344"
         opacity="0.877992"
         id="path71" />
      <path
         d="m 632.50019,55.724532 c 4.13077,3.138336 7.01165,8.017599 17.38469,6.588571"
         opacity="0.877992"
         id="path73" />
      <path
         d="m 668.61444,69.733169 c 2.23378,-4.335097 4.0182,-8.341071 10.47981,-9.45668"
         opacity="0.877992"
         id="path75" />
      <path
         d="m 692.4182,59.694403 c 6.58341,4.153732 12.04316,5.171899 16.97843,0.09341"
         opacity="0.877992"
         id="path77" />
    </g>
  </g>
</svg>
