<?xml version="1.0" encoding="UTF-8" standalone="no"?>
<svg
   id="Layer_1"
   data-name="Layer 1"
   viewBox="0 0 3839.0004 808.20001"
   version="1.1"
   sodipodi:docname="supervision.svg"
   width="3839.0002"
   height="808.20001"
   inkscape:version="1.1.2 (0a00cf5339, 2022-02-04, custom)"
   xmlns:inkscape="http://www.inkscape.org/namespaces/inkscape"
   xmlns:sodipodi="http://sodipodi.sourceforge.net/DTD/sodipodi-0.dtd"
   xmlns="http://www.w3.org/2000/svg"
   xmlns:svg="http://www.w3.org/2000/svg">
  <defs
     id="defs69" />
  <sodipodi:namedview
     id="namedview67"
     pagecolor="#ffffff"
     bordercolor="#666666"
     borderopacity="1.0"
     inkscape:pageshadow="2"
     inkscape:pageopacity="0.0"
     inkscape:pagecheckerboard="0"
     showgrid="false"
     inkscape:zoom="0.27845793"
     inkscape:cx="1919.5"
     inkscape:cy="405.80636"
     inkscape:window-width="1920"
     inkscape:window-height="1017"
     inkscape:window-x="-8"
     inkscape:window-y="-8"
     inkscape:window-maximized="1"
     inkscape:current-layer="Layer_1" />
  <g
     id="g64">
    <g
       id="g26">
      <path
         d="m 225.9,425.5 c -16.4,-23.9 -37.5,-39 -66.1,-39 -27.5,0 -53.8,22.7 -53.8,53.5 0,79.9 175,46.6 175,205.8 0,95 -55,162.4 -145.1,162.4 C 75,808.2 30.6,770.4 0.1,715.7 l 55.6,-58.5 c 11.7,36.5 42.7,69.2 79.6,69.2 35.1,0 56.8,-32.1 56.8,-68.6 0,-49.1 -42.1,-62.9 -76.7,-77.4 C 58.5,555.1 17,524.3 17,450.7 17,372 71.4,308.5 145.7,308.5 c 39.2,0 93.6,20.8 120.6,52.9 z"
         transform="translate(-0.09999)"
         style="fill:#ffffff"
         id="path2" />
      <path
         d="m 341.2,321 h 86 v 265.6 c 0,58.5 4.7,141 77.8,141 73.2,0 77.8,-82.4 77.8,-141 V 321 h 86 v 283.8 c 0,115.8 -45.6,203.3 -163.9,203.3 C 386.7,808.1 341,720.6 341,604.8 V 321 Z"
         transform="translate(-0.09999)"
         style="fill:#ffffff"
         id="path4" />
      <path
         d="m 833.4,795.5 h -86 V 321 h 117 c 92.5,0 152.7,39.6 152.7,147.3 0,100.7 -50.9,149.8 -141,149.8 h -42.7 z m 0,-254.2 H 851 c 50.9,0 78.4,-12 78.4,-73.6 0,-61 -32.8,-69.9 -80.8,-69.9 h -15.2 z"
         transform="translate(-0.09999)"
         style="fill:#ffffff"
         id="path6" />
      <path
         d="M 1160,401.6 V 506 h 137 v 80.5 H 1160 V 715 h 142.2 v 80.5 H 1074 V 321 h 228.2 v 80.5 H 1160 Z"
         transform="translate(-0.09999)"
         style="fill:#ffffff"
         id="path8" />
      <path
         d="M 1675.6,795.5 H 1571.4 L 1464.3,604.2 h -1.1999 v 191.3 h -86 V 321 h 116.5 c 87.1999,0 147.5,41.5 147.5,142.9 0,60.4 -31,120.8 -90.1,131.5 z M 1463.2,539.4 h 11.1 c 47.4,0 80.8001,-15.1 80.8001,-73 0,-58.5 -34.5,-69.9 -80.2,-69.9 h -11.7 v 142.9 z"
         transform="translate(-0.09999)"
         style="fill:#ffffff"
         id="path10" />
      <path
         d="m 1879.9,640.7 h 1.2 L 1979.4,321 h 92.4999 l -171.5,487.1 h -50.3 L 1681.5,321 h 92.5 z"
         transform="translate(-0.09999)"
         style="fill:#ffffff"
         id="path12" />
      <path
         d="m 2198.8999,795.5 h -86 V 321 h 86 z"
         transform="translate(-0.09999)"
         style="fill:#ffffff"
         id="path14" />
      <path
         d="m 2486.8,425.5 c -16.3998,-23.9 -37.5,-39 -66.1001,-39 -27.5,0 -53.8,22.7 -53.8,53.5 0,79.9 175,46.6 175,205.8 0,95 -55,162.4 -145.1001,162.4 -60.8999,0 -105.3,-37.8 -135.8,-92.5 l 55.6001,-58.5 c 11.6999,36.5 42.6999,69.2 79.6001,69.2 35.1001,0 56.8,-32.1 56.8,-68.6 0,-49.1 -42.1001,-62.9 -76.7,-77.4 -56.8,-25.2 -98.3,-56 -98.3,-129.6 0,-78.7 54.3999,-142.2 128.7,-142.2 39.1999,0 93.6001,20.8 120.6001,52.9 z"
         transform="translate(-0.09999)"
         style="fill:#ffffff"
         id="path16" />
      <path
         d="m 2690.5,795.5 h -86 V 321 h 86 z"
         transform="translate(-0.09999)"
         style="fill:#ffffff"
         id="path18" />
      <path
         d="m 3246,308.4 h 62 L 3540.3,640 h 1.2 V 321 h 86 v 483.9 h -62 L 3333.2,473.3 h -1.2 v 322.2 h -86 z"
         transform="translate(-0.09999)"
         style="fill:#ffffff"
         id="path20" />
      <path
         d="m 2842.8999,598.4 a 236.00678,236.00678 0 0 1 -4.3,-44.5 c 0,-76.8 48,-154.2 129.3,-154.2 81.3,0 129.3001,77.4 129.3001,154.2 a 234.42014,234.42014 0 0 1 -4.3,44.5 l 57.1999,104 c 23.3001,-40.7 36.1002,-90.5 36.1002,-144.7 0,-141 -86.6002,-249.2 -218.3001,-249.2 -131.6999,0 -218.3,108.2 -218.3,249.2 0,54.2 12.8,104 36.1001,144.7 z"
         transform="translate(-0.09999)"
         style="fill:#ffffff"
         id="path22" />
      <polygon
         points="3149.1,795.5 2967.8,465.7 2786.5,795.5 "
         style="fill:#00fffe"
         id="polygon24" />
    </g>
    <g
       id="g32">
      <path
         d="m 3704.3,314.4 h 54.5 v 10.9 h -21.3998 v 61.4 h -11.8001 v -61.4 h -21.3 z"
         transform="translate(-0.09999)"
         style="fill:#ffffff"
         id="path28" />
      <path
         d="m 3769.2,314.4 h 16.6001 l 18.6001,56.6 h 0.2 l 18.1001,-56.6 h 16.3999 v 72.3 h -11.2 V 331 h -0.2 l -18.6999,55.8 h -9.7 l -18.7,-55.8 h -0.2 v 55.8 h -11.1999 v -72.4 z"
         transform="translate(-0.09999)"
         style="fill:#ffffff"
         id="path30" />
    </g>
    <g
       id="g62">
      <polygon
         points="1579.7,104.7 1623.8,0 1545.4,0 "
         style="fill:#00fffe"
         id="polygon34" />
      <polyline
         points="1529.4 182.7 1600 14.9 1610.7 31.2 1605 44.6 1540 199.2"
         style="fill:#00fffe"
         id="polyline36" />
      <polyline
         points="1389.5 230.2 1480 14.9 1490.7 31.2 1407 230.2"
         style="fill:#00fffe"
         id="polyline38" />
      <polygon
         points="1389.5,230.2 1437,117.2 1398.6,0 1303.1,0 1378.5,230.2 "
         style="fill:#00fffe"
         id="polygon40" />
      <polygon
         points="1519.8,0 1424.2,0 1499.7,230.2 1526.9,230.2 1565.3,139 "
         style="fill:#00fffe"
         id="polygon42" />
      <polygon
         points="1667.1,0 2268.6,0 2268.6,25.5 1656.4,25.5 "
         style="fill:#00fffe"
         id="polygon44" />
      <polygon
         points="1581,204.7 2268.6,204.7 2268.6,230.2 1570.3,230.2 "
         style="fill:#00fffe"
         id="polygon46" />
      <path
         d="m 1652.5,51 h -6.8 l -4.2,10 -49.1,118.3 h 47 v -6.8 l -11.1,-6.2 a 8.9171,8.9171 0 0 1 -4.6,-7.9 v -3.2 h 27.2 l 12.6,24.1 h 59.2 z m -26.1,88 7.3001,-17.2 9,17.2 z"
         transform="translate(-0.09999)"
         style="fill:#00fffe"
         id="path48" />
      <path
         d="m 1882,51 h -6.8 l -4.2,10 -49,118.2 h 47 v -6.8 l -11.1,-6.2 a 8.91713,8.91713 0 0 1 -4.6,-7.9 v -3.2 h 27.2 l 12.6,24.1 h 59.1999 z m -26.1,88 7.3001,-17.2 9,17.2 z"
         transform="translate(-0.09999)"
         style="fill:#00fffe"
         id="path50" />
      <path
         d="m 2171.2,51 h -6.8 l -4.2,10 -49.1001,118.3 h 47 v -6.8 l -11.1001,-6.2 a 8.91744,8.91744 0 0 1 -4.6001,-7.9 v -3.2 h 27.2 l 12.6001,24.1 h 59.2 z m -26.2,88 7.3,-17.2 9,17.2 z"
         transform="translate(-0.09999)"
         style="fill:#00fffe"
         id="path52" />
      <path
         d="m 1720.8001,51 h -16.1 v 44.1 h 16.1 c 0,-12.1 7.1999,-20 12.6,-24.2 a 17.49063,17.49063 0 0 1 11,-3.8 v 0 112.1 H 1797 v -112.1 0 a 17.49063,17.49063 0 0 1 11,3.8 c 5.4,4.2 12.6,12.1 12.6,24.2 h 16.1 V 51 Z"
         transform="translate(-0.09999)"
         style="fill:#00fffe"
         id="path54" />
      <path
         d="m 2065.3,104.7 h -3 c 14.8001,0 26.8999,-4.5 26.8999,-26.9 v 0 c 0,-22.4 -12,-26.9 -26.8999,-26.9 h -94.3998 v 128.2 h 52.5999 v -66.4 h 16.1 v 66.4 h 59.1001 v -34.9 c -0.1001,-16.7 -13.6001,-39.5 -30.4002,-39.5 z m -44.9,-37.6 h 16.1 v 29.6 h -16.1 z"
         transform="translate(-0.09999)"
         style="fill:#00fffe"
         id="path56" />
      <path
         d="m 2256,54 h 21.6001 a 16.77863,16.77863 0 0 1 11.3,3.8 c 3.5,2.9 5.3001,6.9 5.5,12.2 -0.1001,7.8 -3.6999,13 -10.6999,15.8 l 12.8,25.4 h -10 l -11.5,-24.4 h -10.7 v 24.4 h -8.3999 V 54 Z m 8.3999,25 h 12.7 c 3.1001,-0.1 5.5,-1 7.1001,-2.8 a 9.21651,9.21651 0 0 0 2.3,-6.3 c -0.1001,-3 -1,-5.2 -2.8,-6.5 -1.3999,-1.2 -3.5,-1.8 -6.2,-1.8 h -13.2 V 79 Z"
         transform="translate(-0.09999)"
         style="fill:#00fffe"
         id="path58" />
      <path
         d="m 2273.3,42.7 a 40.5,40.5 0 1 1 -40.5,40.5 40.58675,40.58675 0 0 1 40.5,-40.5 m 0,-10.6 A 51.1,51.1 0 1 0 2324.4002,83.2 51.128,51.128 0 0 0 2273.3,32.1 Z"
         transform="translate(-0.09999)"
         style="fill:#00fffe"
         id="path60" />
    </g>
  </g>
</svg>
