<?xml version="1.0" encoding="UTF-8" standalone="no"?>
<svg
   id="Layer_1"
   data-name="Layer 1"
   viewBox="0 0 3839.0984 1628.5"
   version="1.1"
   sodipodi:docname="teknoparrot.svg"
   width="3839.0984"
   height="1628.5"
   inkscape:version="1.1.2 (0a00cf5339, 2022-02-04, custom)"
   xmlns:inkscape="http://www.inkscape.org/namespaces/inkscape"
   xmlns:sodipodi="http://sodipodi.sourceforge.net/DTD/sodipodi-0.dtd"
   xmlns="http://www.w3.org/2000/svg"
   xmlns:svg="http://www.w3.org/2000/svg">
  <defs
     id="defs83" />
  <sodipodi:namedview
     id="namedview81"
     pagecolor="#ffffff"
     bordercolor="#666666"
     borderopacity="1.0"
     inkscape:pageshadow="2"
     inkscape:pageopacity="0.0"
     inkscape:pagecheckerboard="0"
     showgrid="false"
     inkscape:zoom="0.2784508"
     inkscape:cx="1919.5492"
     inkscape:cy="815.22482"
     inkscape:window-width="1920"
     inkscape:window-height="1017"
     inkscape:window-x="-8"
     inkscape:window-y="-8"
     inkscape:window-maximized="1"
     inkscape:current-layer="Layer_1" />
  <path
     d="m 652.4,1603.4 v -497.9 l -37.6,5.2 c -84.6,11.5 -159.7,24 -222.3,37.5999 L 203.6,1189 248.5,490.7 29.3,495.9 61.6,28.2 3522,29.2 c 125.3,0 230.7,98.1 240.1001,223.4 l 52.2,689 a 224.98421,224.98421 0 0 1 -59.5,171.2 c -42.8,45.9 -103.3,73.1 -167,73.1 -23,0 -44.8999,-3.1 -66.8,-10.4 -61.6001,-18.8001 -147.2,-36.5 -252.6001,-53.2001 l -30.3001,-4.1999 v 124.1999 h -66.8001 v 363.3 z"
     id="path2" />
  <path
     d="m 85.6,53.2 3435.4,1 c 111.7,0 205.6001,87.7 214,198.3 l 52.2,689 a 202.023,202.023 0 0 1 -53.2,152.4 c -37.6001,40.7 -91.8999,64.7 -147.2,64.7 a 195.50761,195.50761 0 0 1 -59.5,-9.4 c -62.6001,-19.8 -149.3,-37.6 -255.6999,-54.3 l -60.5,-9.4 V 1214 H 3144.3 v 363.3001 H 678.69995 v -502.1 l -59.5,8.4 -8.4,1 c -85.6,11.5 -160.8,24 -224.4,37.6 l -155.5,33.4 43.8,-692.10005 -219.2,4.2 L 85.6,53.2 M 36.5,1 0,520.9 l 220.3,-5.2 -44.9,704.6 223.4,-48 c 62.6,-13.6 135.7,-26.1 220.3,-37.6 l 8.4,-1 v 494.8 h 2569 v -363.3 h 66.8 v -120 c 125.3001,19.8001 202.5,38.6 248.3999,52.2 a 255.80531,255.80531 0 0 0 74.1001,11.5 252.93625,252.93625 0 0 0 185.8001,-81.4 c 48,-51.1 72,-121.1001 66.8,-191.00005 l -52.2,-689 C 3775.7,108.6 3658.8,0 3519.8999,0 Z"
     style="fill:#ffffff"
     id="path4" />
  <path
     d="m 848.7,169.1 -669.1,-1 -11.5,170.2 218.2,-5.2 -42.8,664.9 c 66.8,-14.6 145.1,-27.1 232.8,-39.7 L 616,327.8 848.8,322.6 Z"
     style="fill:#e59e24"
     id="path6" />
  <path
     d="m 1103.4,592.9 339.3,-12.5 V 458.3 h -333 l 5.2,-112.7 h 333 l 59.5,-124.2 H 937.39995 L 898.8,857 c 159.7,-17.7 342.4,-31.3 539.7,-38.6 l 5.2,-11.5 50.1,-120 c -136.6999,4.2 -274.5,10.4 -394.6,18.8 z"
     style="fill:#e59e24"
     id="path8" />
  <path
     d="M 1852.9,521.9 2133.7,221.3 H 1902 l -33.4,35.5 -122.1,130.5 v -167 h -190 l -7.3,592.90007 c 64.7,-2.1 130.5,-3.1 197.3001,-4.2 V 651.4 L 1925.9,808 c 89.8001,1 177.4999,2.1 263.1,5.2 z"
     style="fill:#e59e24"
     id="path10" />
  <path
     d="m 2620.1001,838.2 c 71,5.2 137.8,11.5 201.5,18.8 v -3.1 l -31.3,-632.6 h -575.2 l 10.3999,595 c 67.8999,2.1 134.7,5.2 198.3,8.4 l -15.6999,-480.2 h 197.3 z"
     style="fill:#e59e24"
     id="path12" />
  <path
     d="m 3648.3,945.7 -52.1999,-689 a 94.29218,94.29218 0 0 0 -93.8999,-86.6 h -496.8999 c -54.3001,0 -97.1001,45.9 -93.8999,99.2 l 31.3,548 c 4.2,65.8 54.3,119 120,126.3 207.7,23 373.7,52.2 481.2,85.6 C 3599.3,1046 3652.5,1002.1 3648.3,945.7 Z M 3181.7,799.6 3155.5999,331.9 h 209.8 l 34.3999,492.7 z"
     style="fill:#e59e24"
     id="path14" />
  <path
     d="m 866.4,175.4 -669.1,-1 -11.5,170.2 218.2,-5.2 -42.8,664.9 C 428,989.7 506.3,977.2 594,964.6 L 633.6,334 866.4,328.8 Z"
     style="fill:#ec1c27"
     id="path16" />
  <path
     d="m 1122.2,599.2 339.3,-12.5 V 464.5 h -333 l 5.2,-112.7 h 333 l 59.5,-124.2 h -570 L 917.6,863.3 C 1077.3,845.6 1260,832 1457.3001,824.7 l 5.1999,-11.5 50.1,-120 c -136.7,4.2 -274.5,10.4 -394.6,18.8 z"
     style="fill:#ec1c27"
     id="path18" />
  <path
     d="M 1870.6,527.2 2151.3999,226.6 H 1919.7 l -33.4,35.5 -122.1,130.5 v -167 h -190 l -7.3,592.9 c 64.7,-2.1 130.5,-3.1 197.3,-4.2 V 659.7 l 179.5,156.6 c 89.8001,1 177.5,2.1 263.1001,5.2 z"
     style="fill:#ec1c27"
     id="path20" />
  <path
     d="m 2637.8999,843.4 c 71,5.2 137.8,11.5 201.5,18.8 v -3.1 L 2808,226.5 h -576.3 l 10.3999,595 c 67.8999,2.1 134.6999,5.2 198.3,8.4 L 2424.7,349.7 H 2622 Z"
     style="fill:#ec1c27"
     id="path22" />
  <path
     d="m 3667.1001,952 -52.2,-689 a 94.29219,94.29219 0 0 0 -93.8999,-86.6 h -495.8 c -54.3001,0 -97.1001,45.9 -93.8999,99.2 l 31.3,548 c 4.2,65.8 54.3,119 120,126.3 207.7,23 373.7,52.2 481.2,85.6 C 3617,1051.2 3671.3,1008.4 3667.1001,952 Z M 3199.5,805.9 3173.3999,338.2 H 3383.2 l 34.3999,492.7 z"
     style="fill:#ec1c27"
     id="path24" />
  <path
     d="m 2390.3,1060.6 v 341.2999 c 0,30.3001 25.1002,55.3001 55.3001,55.3001 H 2688.8 c 30.3001,0 55.3001,-25.1 55.3001,-55.3001 v -341.3 c 0,-30.3001 -25.1001,-55.3 -55.3001,-55.3 H 2445.6001 A 54.97016,54.97016 0 0 0 2390.3,1060.6 Z m 119,306.9 V 1094 h 115.9 v 273.5 z"
     style="fill:#23a8e0"
     id="path26" />
  <path
     d="m 2640.8999,1253.7 v 113.8 a 14.24818,14.24818 0 0 1 -14.6001,14.6 h -115.8999 a 14.24832,14.24832 0 0 1 -14.6001,-14.6 V 1253.7 H 2407 v 147.1999 a 40.73326,40.73326 0 0 0 40.7,40.7 H 2691 a 40.73334,40.73334 0 0 0 40.7,-40.7 V 1253.7 Z"
     style="fill:#1c75ba"
     id="path28" />
  <polygon
     points="1391.5,1005.2 1278.7,1005.2 1103.4,1457.2 1219.2,1457.2 1335.1,1158.7 1416.5,1367.5 1305.9,1367.5 1305.9,1457.2 1566.8,1457.2 "
     style="fill:#23a8e0"
     id="polygon30" />
  <path
     d="m 1471.9,1253.7 73.1,187.9 h -223.4 v -59.5 h 95 a 14.78947,14.78947 0 0 0 12.5,-6.3 c 3.1,-4.2 3.1,-9.4 2.1,-13.6 l -41.8001,-107.5"
     style="fill:#1c75ba"
     id="path32" />
  <polyline
     points="1281.9 1253.7 1208.8 1442.6 1125.3 1442.6 1198.4 1253.7"
     style="fill:#1c75ba"
     id="polyline34" />
  <path
     d="M 1081.4,1005.2 H 799.6 v 452 h 119 v -197.3001 h 179.5 c 30.3,0 55.3,-25.1 55.3,-55.3 v -144.1 c 0,-30.3 -25.1,-55.3 -55.3,-55.3 z M 918.6,1190 v -95 h 115.9 v 95 z"
     style="fill:#23a8e0"
     id="path36" />
  <path
     d="m 902.9,1253.7 v 187.9 h -88.7 v -187.9"
     style="fill:#1c75ba"
     id="path38" />
  <polygon
     points="2904,1005.2 2787.1,1005.2 2787.1,1094 2904,1094 2904,1457.2 3023,1457.2 3023,1094 3090.9,1094 3090.9,1005.2 3023,1005.2 "
     style="fill:#23a8e0"
     id="polygon40" />
  <polyline
     points="3008.4 1253.7 3008.4 1442.6 2919.7 1442.6 2919.7 1253.7"
     style="fill:#1c75ba"
     id="polyline42" />
  <path
     d="m 2252.3999,1259.9 h 39.7 c 30.3,0 55.3,-25.1 55.3,-55.3 v -144.1 c 0,-30.3 -25.1001,-55.3 -55.3,-55.3 h -297.5002 v 452 h 118.9999 v -197.3001 h 19.8 l 107.5,197.3001 h 119 z M 2112.5,1190 v -95 h 115.8999 v 95 z"
     style="fill:#23a8e0"
     id="path44" />
  <path
     d="m 2097.8999,1253.7 v 187.9 H 2009.2 v -187.9"
     style="fill:#1c75ba"
     id="path46" />
  <polyline
     points="2231.5 1253.7 2333.8 1442.6 2249.3 1442.6 2147 1253.7"
     style="fill:#1c75ba"
     id="polyline48" />
  <path
     d="m 1845.1,1457.2 h 119 l -107.5,-197.3001 h 39.6999 c 30.3001,0 55.3001,-25.1 55.3001,-55.3 v -144.1 c 0,-30.3 -25.1,-55.3 -55.3001,-55.3 H 1598.7 V 1457.2 h 119 v -197.3001 h 19.8 z M 1717.8001,1094 h 115.9 v 95 h -115.9 z"
     style="fill:#23a8e0"
     id="path50" />
  <path
     d="m 1703.1,1253.7 v 187.9 h -88.7 v -187.9"
     style="fill:#1c75ba"
     id="path52" />
  <polyline
     points="1836.8 1253.7 1939 1442.6 1854.5 1442.6 1752.2 1253.7"
     style="fill:#1c75ba"
     id="polyline54" />
  <path
     d="m 588.7,572 c -58.5,4.2 -114.8,9.4 -170.2,14.6 v 6.3 l -24,374.7 Q 471.15,952 566.7,939.4 l 21.9,-359.1 z"
     style="fill:#a31e22"
     id="path56" />
  <path
     d="m 1431.1,529.2 c -160.8001,4.2 -316.2999,10.4 -464.5,18.8 v 5.2 l -16.7,276.6 c 148.2,-15.7 312.1,-27.1 487.4999,-34.4 l 29.2,-69.9 c -127.4,4.2 -246.4,10.4 -346.6,17.7 l -33.4,2.1 L 1095,571 1433.2,558.5 v -29.2 h -2.1 z"
     style="fill:#a31e22"
     id="path58" />
  <path
     d="M 1827.8001,530.3 2124.3,789.2 c -56.3998,-1 -112.6999,-2.1 -169.0999,-2.1 L 1733.9,594 v 193.1 c -45.9,1 -91.9,1 -136.6999,3.1 l 3.1,-264.1 q 115.7999,-1.5 234.9,-3.1 z"
     style="fill:#a31e22"
     id="path60" />
  <path
     d="m 2267.3,527.2 4.2,266.2 c 45.8999,2.1 92.8999,4.2 137.8,6.3 l -8.3998,-263.1 v -10.4 c -43.8001,-1 -88.7,-2.1 -133.6002,-2.1 z"
     style="fill:#a31e22"
     id="path62" />
  <path
     d="M 2793.3999,537.6 2808,828.8 c -44.8999,-5.2 -91.8999,-9.4 -140.8999,-13.6 l -8.3999,-283.9 c 45.9998,3.2 90.7998,4.2 134.6997,6.3 z"
     style="fill:#a31e22"
     id="path64" />
  <path
     d="M 3450,864.3 3171.3,832 3155.6001,555.4 c -58.5,-4.2 -118,-7.3 -179.5,-10.4 v 5.2 l 15.7,270.4 c 3.1001,51.1 41.8,92.9 92.8999,98.1 209.8,24 378.8999,53.2 486.3999,86.6 5.1999,1 10.3999,2.1 14.6001,2.1 13.6001,0 27.1001,-6.3 36.5,-16.7 a 51.92546,51.92546 0 0 0 13.6001,-38.6 L 3608.7,593 v -2.1 c -57.3999,-6.3 -118,-11.5 -179.5,-16.7 z"
     style="fill:#a31e22"
     id="path66" />
  <path
     d="m 2072.1001,270.4 c 0,0 -128.4,88.7 -145.1,107.5 -16.7,18.8 -26.1,-6.3 -51.1,23 -25.1,28.2 -86.6,58.5 -105.4,79.3 -18.8,20.9 -83.5,67.9 -82.5,74.1 1,6.2 -33.4,29.2 -33.4,29.2 0,0 -19.8,-4.2 -39.7,25.1 -19.8,29.2 -64.6999,41.8 -76.1999,55.3 -11.5,13.6 -66.8001,35.5 -66.8001,35.5 0,0 83.5,-21.9 98.1,-36.5 14.6,-14.6 209.8001,-144.1 232.8001,-174.3 23,-30.3 63.6999,-49.1 65.8,-49.1 2.1,-1 29.2,-33.4 53.2,-40.7 C 1943.7,390.4 2054.3,292.3 2072.1001,270.4 Z"
     id="path68" />
  <path
     d="m 2294.3999,252.6 c 0,0 -173.3,106.5 -184.8,125.3 -11.5,17.7 -82.5,40.7 -125.3001,79.3 -42.8,38.6 -128.4,74.1 -140.9,93.9 -12.5,18.8 -65.8,59.5 -75.1999,79.3 -9.4,19.8 -32.4,11.5 -38.6,16.7 -6.3001,5.2 -17.7,26.1 -28.2,32.4 -10.4,6.3 -30.3,8.4 -49.1,23 -18.8,14.6 -217.1,160.8 -217.1,160.8 0,0 233.8001,-129.4 249.5001,-147.2 15.7,-17.8 96,-64.7 126.3001,-87.7 55.3,-41.8 118,-113.8 163.9,-128.4 0,0 38.6,-50.1 89.7999,-65.8 51.1999,-15.6 120.1,-111.6 229.6999,-181.6 z"
     id="path70" />
  <path
     d="m 2301.7,363.3 c 2.1001,-1 -39.7,17.7 -96,63.7 -56.3999,45.9 -54.3,58.5 -69.8999,60.5 -14.6001,3.1 -85.6001,35.5 -99.2,60.5 -13.5999,25 -104.4,55.3 -115.9,69.9 -11.5,13.6 -81.4,73.1 -91.9,89.8 -9.4001,16.7 -54.3001,39.7 -65.8001,39.7 -11.5,0 -43.8,14.6 -60.5,39.7 -16.6999,25.1 -150.3,115.9 -150.3,115.9 0,0 145.0999,-81.4 171.1999,-102.3 26.1,-20.9 108.6,-76.2 132.6,-88.7 20.9,-11.5 101.3,-96 163.9,-131.5 59.5,-33.4 34.3999,-38.6 111.7,-74.1 79.3,-36.7 62.6001,-81.5 170.1001,-143.1 z"
     id="path72" />
  <path
     d="m 2072.1001,270.4 c 0,0 -142,84.6 -158.7,104.4 -16.6999,18.8 -26.1,-6.3 -51.1,23 -25.1,28.2 -86.6,58.5 -105.4,79.3 -18.8,20.9 -83.5,67.9 -82.5,74.1 1,6.3 -33.4,29.2 -33.4,29.2 0,0 -19.8,-4.2 -39.6999,25.1 -19.8001,29.2 -62.6,43.8 -74.1,58.5 -11.5,13.6 -55.3001,36.5 -55.3001,36.5 0,0 69.9,-25.1 84.6,-39.7 14.6,-14.6 209.8001,-144.1 232.8001,-174.3 23,-30.3 63.6999,-49.1 65.8,-49.1 2.1,-1 29.2,-33.4 53.2,-40.7 C 1929.1,386.2 2054.3,292.3 2072.1001,270.4 Z"
     style="fill:#a31e22"
     id="path74" />
  <path
     d="m 2294.3999,252.6 c 0,0 -187.8999,103.3 -198.3,121.1 -11.5,17.7 -82.5,40.7 -125.3001,79.3 -42.8,38.6 -128.4,74.1 -140.9,93.9 -12.5,18.8 -65.8,59.5 -75.1999,79.3 -9.4,19.8 -32.4,11.5 -38.6,16.7 -6.3001,5.2 -17.7,26.1 -28.2,32.4 -10.4,6.3 -30.3,8.4 -49.1,23 -18.8,14.6 -203.6,163.9 -203.6,163.9 0,0 219.1999,-132.6 234.9,-151.4 15.6999,-17.7 96,-64.7 126.3,-87.7 55.3001,-41.8 118,-113.8 163.9,-128.4 0,0 38.6,-50.1 89.8,-65.8 52.2001,-14.5 134.7001,-106.3 244.3,-176.3 z"
     style="fill:#a31e22"
     id="path76" />
  <path
     d="m 2301.7,363.3 c 2.1001,-1 -56.3999,20.9 -113.8,66.8 -56.3999,45.9 -52.2,51.1 -66.8001,54.3 -14.6,3.1 -85.5999,35.5 -99.2,60.5 -13.6,25.1 -104.4,55.3 -115.9,69.9 -11.5,14.6 -81.4,73.1 -91.9,89.8 -10.4,16.7 -42.8,39.7 -54.3,39.7 -11.5,0 -50.1,21.9 -66.8,45.9 -16.7,25.1 -140.9,112.7 -140.9,112.7 0,0 130.5,-85.6 157.6,-106.5 26.1,-20.9 108.6,-76.2 132.6,-88.7 20.9,-11.5 101.3,-96 163.9,-131.5 59.5,-33.4 34.4,-38.6 111.6999,-74.1 C 2196.3,465.6 2194.2,424.9 2301.7,363.3 Z"
     style="fill:#a31e22"
     id="path78" />
</svg>
