<svg id="Layer_1" data-name="Layer 1" xmlns="http://www.w3.org/2000/svg" viewBox="0 0 3839.09837 1628.5"><path d="M652.4,1603.4V1105.5l-37.6,5.19995c-84.6,11.5-159.7,24-222.3,37.6L203.6,1189l44.9-698.3L29.3,495.9,61.6,28.2l3460.4,1c125.3,0,230.7,98.1,240.1001,223.4l52.19995,689a224.98421,224.98421,0,0,1-59.5,171.19995c-42.8,45.9-103.3,73.1-167,73.1-23,0-44.8999-3.1-66.8-10.4-61.6001-18.80005-147.2-36.5-252.6001-53.2l-30.3-4.19995v124.19995H3171.2998v363.29992Z" transform="translate(0 0)"/><path d="M85.6,53.2l3435.4,1c111.7,0,205.6001,87.7,214,198.3l52.2,689a202.023,202.023,0,0,1-53.2,152.4c-37.6001,40.7-91.8999,64.7-147.2,64.7a195.50761,195.50761,0,0,1-59.5-9.4c-62.6001-19.80005-149.3-37.6-255.69995-54.30005l-60.5-9.4V1214h-66.80005v363.30005H678.69995v-502.1l-59.5,8.4-8.4,1c-85.6,11.5-160.8,24-224.4,37.6l-155.5,33.4,43.8-692.1-219.2,4.2L85.6,53.2M36.5,1,0,520.9l220.3-5.2-44.9,704.6,223.4-48c62.6-13.6,135.7-26.1,220.3-37.6l8.4-1V1628.5h2569V1265.2h66.8v-120c125.30005,19.80005,202.5,38.6,248.3999,52.19995a255.80531,255.80531,0,0,0,74.1001,11.5,252.93625,252.93625,0,0,0,185.80005-81.4c48-51.1,72-121.1,66.8-191l-52.19995-689C3775.7,108.6,3658.80005,0,3519.8999,0L36.5,1Z" transform="translate(0 0)" style="fill:#fff"/><path d="M848.7,169.1l-669.1-1L168.1,338.3l218.2-5.2-42.8,664.9c66.8-14.6,145.1-27.1,232.8-39.7l39.7-630.5,232.8-5.2-.1-153.5Z" transform="translate(0 0)" style="fill:#e59e24"/><path d="M1103.4,592.9,1442.7,580.4V458.3h-333l5.19995-112.7h333l59.5-124.2h-570L898.8,857c159.7-17.7,342.4-31.3,539.7-38.6L1443.7,806.9l50.1-120c-136.69995,4.2-274.5,10.4-394.6,18.8Z" transform="translate(0 0)" style="fill:#e59e24"/><path d="M1852.9,521.9,2133.7,221.3H1902l-33.4,35.5L1746.5,387.3v-167h-190L1549.2,813.20007c64.69995-2.1,130.5-3.1,197.30005-4.2V651.4L1925.9,808c89.80005,1,177.49988,2.1,263.1,5.2Z" transform="translate(0 0)" style="fill:#e59e24"/><path d="M2620.1001,838.2c71,5.2,137.8,11.5,201.5,18.8v-3.1l-31.30005-632.6H2215.1001l10.3999,595c67.8999,2.1,134.7,5.2,198.3,8.4l-15.69995-480.2h197.3Z" transform="translate(0 0)" style="fill:#e59e24"/><path d="M3648.30005,945.7l-52.19995-689a94.29218,94.29218,0,0,0-93.8999-86.6H3005.30029c-54.30005,0-97.10009,45.9-93.8999,99.2l31.30005,548c4.19995,65.8,54.3,119,120,126.3,207.69995,23,373.69995,52.2,481.19995,85.6C3599.30005,1046,3652.5,1002.1,3648.30005,945.7ZM3181.7,799.6l-26.1001-467.7h209.8l34.3999,492.7Z" transform="translate(0 0)" style="fill:#e59e24"/><path d="M866.4,175.4l-669.1-1-11.5,170.2,218.2-5.2-42.8,664.9c66.8-14.6,145.1-27.1,232.8-39.7L633.6,334l232.8-5.2L866.4,175.4Z" transform="translate(0 0)" style="fill:#ec1c27"/><path d="M1122.2,599.2,1461.5,586.7V464.5h-333L1133.7,351.8h333l59.5-124.2h-570L917.6,863.3c159.69995-17.7,342.4-31.3,539.70007-38.6L1462.5,813.2l50.1-120c-136.7,4.2-274.5,10.4-394.6,18.8Z" transform="translate(0 0)" style="fill:#ec1c27"/><path d="M1870.6,527.2,2151.3999,226.6H1919.7l-33.4,35.5L1764.2,392.6v-167h-190l-7.30005,592.9c64.7-2.1,130.5-3.1,197.30005-4.2V659.7l179.5,156.6c89.80005,1,177.5,2.1,263.1001,5.2Z" transform="translate(0 0)" style="fill:#ec1c27"/><path d="M2637.8999,843.4c71,5.2,137.80005,11.5,201.5,18.8v-3.1L2808,226.5H2231.7l10.3999,595c67.89991,2.1,134.69995,5.2,198.3,8.4L2424.7,349.7H2622Z" transform="translate(0 0)" style="fill:#ec1c27"/><path d="M3667.1001,952l-52.2-689a94.29219,94.29219,0,0,0-93.89991-86.6h-495.8c-54.30005,0-97.1001,45.9-93.89991,99.2l31.3,548c4.2,65.8,54.3,119,120,126.3,207.7,23,373.7,52.2,481.2,85.6C3617,1051.2,3671.30005,1008.4,3667.1001,952ZM3199.5,805.9l-26.1001-467.7H3383.2l34.3999,492.7Z" transform="translate(0 0)" style="fill:#ec1c27"/><path d="M2390.30005,1060.6V1401.8999c0,30.30005,25.1001,55.30005,55.30005,55.30005h243.19995c30.30005,0,55.30005-25.1,55.30005-55.30005v-341.3c0-30.30005-25.1001-55.3-55.30005-55.3H2445.6001A54.97016,54.97016,0,0,0,2390.30005,1060.6Zm119,306.9V1094H2625.2v273.5Z" transform="translate(0 0)" style="fill:#23a8e0"/><path d="M2640.8999,1253.7V1367.5a14.24818,14.24818,0,0,1-14.6001,14.6H2510.3999a14.24832,14.24832,0,0,1-14.6001-14.6V1253.7H2407V1400.8999a40.73326,40.73326,0,0,0,40.7,40.7H2691a40.73334,40.73334,0,0,0,40.7-40.7V1253.7Z" transform="translate(0 0)" style="fill:#1c75ba"/><polygon points="1305.9 1457.2 1566.8 1457.2 1391.5 1005.2 1278.7 1005.2 1103.4 1457.2 1219.2 1457.2 1335.1 1158.7 1416.5 1367.5 1305.9 1367.5 1305.9 1457.2" style="fill:#23a8e0"/><path d="M1471.9,1253.7l73.1,187.9H1321.6v-59.5h95a14.78947,14.78947,0,0,0,12.5-6.30005c3.1-4.19995,3.1-9.4,2.1-13.6l-41.80005-107.5" transform="translate(0 0)" style="fill:#1c75ba"/><polyline points="1281.9 1253.7 1208.8 1442.6 1125.3 1442.6 1198.4 1253.7" style="fill:#1c75ba"/><path d="M1081.4,1005.2H799.6V1457.2h119V1259.8999h179.5c30.3,0,55.3-25.1,55.3-55.3v-144.1c0-30.30005-25.1-55.3-55.3-55.3l-16.7.00012ZM918.6,1190v-95h115.9v95Z" transform="translate(0 0)" style="fill:#23a8e0"/><path d="M902.9,1253.7v187.9H814.2V1253.7" transform="translate(0 0)" style="fill:#1c75ba"/><polygon points="3090.9 1005.2 3023 1005.2 2904 1005.2 2787.1 1005.2 2787.1 1094 2904 1094 2904 1457.2 3023 1457.2 3023 1094 3090.9 1094 3090.9 1005.2" style="fill:#23a8e0"/><polyline points="3008.4 1253.7 3008.4 1442.6 2919.7 1442.6 2919.7 1253.7" style="fill:#1c75ba"/><path d="M2252.3999,1259.9h39.7c30.3,0,55.3-25.1,55.3-55.3V1060.5c0-30.30005-25.1001-55.3-55.3-55.3H1994.59973V1457.2h118.99988V1259.8999h19.8l107.5,197.30005h119ZM2112.5,1190v-95h115.8999v95Z" transform="translate(0 0)" style="fill:#23a8e0"/><path d="M2097.8999,1253.7v187.9H2009.2V1253.7" transform="translate(0 0)" style="fill:#1c75ba"/><polyline points="2231.5 1253.7 2333.8 1442.6 2249.3 1442.6 2147 1253.7" style="fill:#1c75ba"/><path d="M1845.1,1457.2h119L1856.6,1259.8999h39.69995c30.30005,0,55.30005-25.1,55.30005-55.3v-144.1c0-30.30005-25.1-55.3-55.30005-55.3H1598.7V1457.2h119V1259.8999H1737.5ZM1717.80005,1094h115.9v95h-115.9Z" transform="translate(0 0)" style="fill:#23a8e0"/><path d="M1703.1,1253.7v187.9h-88.7V1253.7" transform="translate(0 0)" style="fill:#1c75ba"/><polyline points="1836.8 1253.7 1939 1442.6 1854.5 1442.6 1752.2 1253.7" style="fill:#1c75ba"/><path d="M588.7,572c-58.5,4.2-114.8,9.4-170.2,14.6v6.3l-24,374.7q76.65-15.6,172.2-28.2l21.9-359.1Z" transform="translate(0 0)" style="fill:#a31e22"/><path d="M1431.1,529.2c-160.80005,4.2-316.29993,10.4-464.5,18.8v5.2l-16.7,276.6c148.2-15.7,312.1-27.1,487.49994-34.4l29.2-69.9c-127.4,4.2-246.4,10.4-346.6,17.7l-33.4,2.1L1095,571,1433.2,558.5V529.3h-2.1Z" transform="translate(0 0)" style="fill:#a31e22"/><path d="M1827.80005,530.3l296.5,258.9c-56.3999-1-112.69995-2.1-169.1-2.1L1733.9,594V787.1c-45.9,1-91.9,1-136.69995,3.1l3.1-264.1q115.79993-1.5,234.9-3.1Z" transform="translate(0 0)" style="fill:#a31e22"/><path d="M2267.30005,527.2l4.2,266.2c45.8999,2.1,92.8999,4.2,137.8,6.3l-8.3999-263.1v-10.4c-43.8-1-88.69995-2.1-133.6001-2.1v3.1Z" transform="translate(0 0)" style="fill:#a31e22"/><path d="M2793.3999,537.6,2808,828.8c-44.8999-5.2-91.8999-9.4-140.8999-13.6l-8.3999-283.9C2704.7,534.5,2749.5,535.5,2793.3999,537.6Z" transform="translate(0 0)" style="fill:#a31e22"/><path d="M3450,864.3l-278.7-32.3L3155.6001,555.4c-58.5-4.2-118-7.3-179.5-10.4v5.2l15.69995,270.4c3.1001,51.1,41.80005,92.9,92.8999,98.1,209.8,24,378.8999,53.2,486.3999,86.6,5.19995,1,10.39991,2.1,14.6001,2.1,13.6001,0,27.1001-6.3,36.5-16.7a51.92546,51.92546,0,0,0,13.6001-38.6l-27.1001-359.1v-2.1c-57.3999-6.3-118-11.5-179.5-16.7Z" transform="translate(0 0)" style="fill:#a31e22"/><path d="M2072.1001,270.4s-128.4,88.7-145.1,107.5-26.1-6.3-51.1,23c-25.1,28.2-86.6,58.5-105.4,79.3-18.8,20.9-83.5,67.9-82.5,74.1s-33.4,29.2-33.4,29.2-19.80005-4.2-39.7,25.1c-19.8,29.2-64.69995,41.8-76.19995,55.3-11.5,13.6-66.80005,35.5-66.80005,35.5s83.5-21.9,98.1-36.5,209.80005-144.1,232.80005-174.3c23-30.3,63.69995-49.1,65.80005-49.1,2.1-1,29.19995-33.4,53.19995-40.7C1943.7,390.4,2054.30005,292.3,2072.1001,270.4Z" transform="translate(0 0)"/><path d="M2294.3999,252.6s-173.3,106.5-184.8,125.3c-11.5,17.7-82.5,40.7-125.30005,79.3s-128.4,74.1-140.9,93.9c-12.5,18.8-65.80005,59.5-75.19995,79.3-9.4,19.8-32.4,11.5-38.6,16.7-6.30005,5.2-17.7,26.1-28.2,32.4-10.4,6.3-30.3,8.4-49.1,23s-217.1,160.8-217.1,160.8S1669,733.9,1684.7,716.1s96-64.7,126.30005-87.7c55.30005-41.8,118-113.8,163.9-128.4,0,0,38.6-50.1,89.79993-65.8C2115.8999,418.6,2184.80005,322.6,2294.3999,252.6Z" transform="translate(0 0)"/><path d="M2301.7,363.3c2.1001-1-39.7,17.7-96,63.7-56.3999,45.9-54.30005,58.5-69.8999,60.5C2121.2,490.6,2050.2,523,2036.6001,548s-104.4,55.3-115.9,69.9c-11.5,13.6-81.4,73.1-91.9,89.8C1819.4,724.4,1774.5,747.4,1763,747.4S1719.2,762,1702.5,787.1c-16.69995,25.1-150.30005,115.9-150.30005,115.9s145.1-81.4,171.19995-102.3,108.6-76.2,132.6-88.7c20.9-11.5,101.3-96,163.9-131.5,59.5-33.4,34.3999-38.6,111.7-74.1C2210.8999,469.7,2194.2,424.9,2301.7,363.3Z" transform="translate(0 0)"/><path d="M2072.1001,270.4s-142,84.6-158.7,104.4c-16.69995,18.8-26.1-6.3-51.1,23-25.1,28.2-86.6,58.5-105.4,79.3-18.8,20.9-83.5,67.9-82.5,74.1,1,6.3-33.4,29.2-33.4,29.2s-19.8-4.2-39.69995,25.1c-19.80005,29.2-62.6,43.8-74.1,58.5-11.5,13.6-55.30005,36.5-55.30005,36.5s69.9-25.1,84.6-39.7c14.6-14.6,209.80005-144.1,232.80005-174.3,23-30.3,63.69995-49.1,65.80005-49.1,2.1-1,29.19995-33.4,53.19995-40.7C1929.1,386.2,2054.30005,292.3,2072.1001,270.4Z" transform="translate(0 0)" style="fill:#a31e22"/><path d="M2294.3999,252.6s-187.8999,103.3-198.3,121.1c-11.5,17.7-82.5,40.7-125.30005,79.3s-128.4,74.1-140.9,93.9c-12.5,18.8-65.80005,59.5-75.19995,79.3-9.4,19.8-32.4,11.5-38.6,16.7-6.30005,5.2-17.7,26.1-28.2,32.4-10.4,6.3-30.3,8.4-49.1,23-18.8,14.6-203.6,163.9-203.6,163.9s219.19995-132.6,234.9-151.4c15.69995-17.7,96-64.7,126.3-87.7,55.30005-41.8,118-113.8,163.9-128.4,0,0,38.6-50.1,89.80005-65.8C2102.30005,414.4,2184.80005,322.6,2294.3999,252.6Z" transform="translate(0 0)" style="fill:#a31e22"/><path d="M2301.7,363.3c2.1001-1-56.3999,20.9-113.80005,66.8-56.3999,45.9-52.19995,51.1-66.8,54.3-14.60009,3.1-85.6,35.5-99.2,60.5-13.6,25.1-104.4,55.3-115.9,69.9-11.5,14.6-81.4,73.1-91.9,89.8-10.4,16.7-42.80005,39.7-54.30005,39.7s-50.1,21.9-66.8,45.9c-16.7,25.1-140.9,112.7-140.9,112.7s130.5-85.6,157.6-106.5c26.1-20.9,108.6-76.2,132.6-88.7,20.9-11.5,101.3-96,163.9-131.5,59.5-33.4,34.4-38.6,111.69995-74.1C2196.30005,465.6,2194.2,424.9,2301.7,363.3Z" transform="translate(0 0)" style="fill:#a31e22"/></svg>