<?xml version="1.0" encoding="UTF-8" standalone="no"?>
<svg
   id="Layer_1"
   data-name="Layer 1"
   viewBox="0 0 3839.9586 1650.9"
   version="1.1"
   sodipodi:docname="triforce.svg"
   width="3839.9585"
   height="1650.9"
   inkscape:version="1.1.2 (0a00cf5339, 2022-02-04, custom)"
   xmlns:inkscape="http://www.inkscape.org/namespaces/inkscape"
   xmlns:sodipodi="http://sodipodi.sourceforge.net/DTD/sodipodi-0.dtd"
   xmlns="http://www.w3.org/2000/svg"
   xmlns:svg="http://www.w3.org/2000/svg">
  <defs
     id="defs115" />
  <sodipodi:namedview
     id="namedview113"
     pagecolor="#ffffff"
     bordercolor="#666666"
     borderopacity="1.0"
     inkscape:pageshadow="2"
     inkscape:pageopacity="0.0"
     inkscape:pagecheckerboard="0"
     showgrid="false"
     inkscape:zoom="0.27838844"
     inkscape:cx="1919.9791"
     inkscape:cy="826.18372"
     inkscape:window-width="1920"
     inkscape:window-height="1017"
     inkscape:window-x="-8"
     inkscape:window-y="-8"
     inkscape:window-maximized="1"
     inkscape:current-layer="Layer_1" />
  <rect
     x="3414.1619"
     y="699.09998"
     width="124"
     height="437.20007"
     style="fill:#887ec9"
     id="rect2" />
  <rect
     x="1323.4619"
     y="699.09998"
     width="124"
     height="437.20007"
     style="fill:#887ec9"
     id="rect4" />
  <rect
     x="1110.0619"
     y="699.09998"
     width="124"
     height="437.20007"
     style="fill:#887ec9"
     id="rect6" />
  <rect
     x="189.66191"
     y="699.09998"
     width="124.00002"
     height="437.20007"
     style="fill:#887ec9"
     id="rect8" />
  <rect
     x="3414.1138"
     y="699.11279"
     width="425.79999"
     height="98.100098"
     style="fill:#887ec9"
     id="rect10" />
  <rect
     x="3414.2654"
     y="868.70654"
     width="338.09998"
     height="98.100098"
     style="fill:#887ec9"
     id="rect12" />
  <rect
     x="3414.1584"
     y="1038.2573"
     width="425.79993"
     height="98.100098"
     style="fill:#887ec9"
     id="rect14" />
  <rect
     x="1323.4241"
     y="699.10376"
     width="401.59998"
     height="98.099983"
     style="fill:#887ec9"
     id="rect16" />
  <rect
     x="1323.449"
     y="868.62341"
     width="362.89996"
     height="98.099983"
     style="fill:#887ec9"
     id="rect18" />
  <path
     d="m 1855.1619,699.1 a 91.15947,91.15947 0 0 0 -91.2,91.2 v 254.8 a 91.1595,91.1595 0 0 0 91.2,91.1999 h 335.3 a 91.15958,91.15958 0 0 0 91.2,-91.1999 V 790.3 a 91.15954,91.15954 0 0 0 -91.2,-91.2 z m 302.5,339.1 h -269.7 v -241 h 269.7 z"
     style="fill:#887ec9"
     id="path20" />
  <path
     d="m 2864.8618,790.3 v 254.8 a 91.1595,91.1595 0 0 0 91.2,91.1999 h 321 a 91.15957,91.15957 0 0 0 91.1999,-91.1999 v -78.3 h -131.2998 v 71.5001 H 2988.8618 V 797.2 h 248.1001 v 71.5 h 131.3 v -78.3 a 91.15955,91.15955 0 0 0 -91.1999,-91.2 h -321 a 91.01055,91.01055 0 0 0 -91.2002,91.1 z"
     style="fill:#887ec9"
     id="path22" />
  <rect
     y="699.12653"
     width="503.39999"
     height="98.099991"
     style="fill:#887ec9"
     id="rect24"
     x="0" />
  <path
     d="m 1182.4619,1252.4 a 19.4,19.4 0 1 1 -19.4,-19.4 19.26982,19.26982 0 0 1 19.4,19.4 z"
     style="fill:#887ec9"
     id="path26" />
  <path
     d="m 2208.1619,1252.4 a 19.3999,19.3999 0 1 1 -19.3999,-19.4 19.33317,19.33317 0 0 1 19.3999,19.4 z"
     style="fill:#887ec9"
     id="path28" />
  <rect
     x="103.56191"
     y="1193.9"
     width="40.599998"
     height="23.400021"
     style="fill:#887ec9"
     id="rect30" />
  <path
     d="m 303.66191,1222 v 88.8001 h 30 v -93.5 h 64.1 v 93.5 h 30 V 1222 a 28.12461,28.12461 0 0 0 -28.1,-28.1 h -67.9 a 28.12459,28.12459 0 0 0 -28.1,28.1 z"
     style="fill:#887ec9"
     id="path32" />
  <rect
     x="303.66193"
     y="1240.6"
     width="124"
     height="23.400021"
     style="fill:#887ec9"
     id="rect34" />
  <path
     d="m 1937.9619,1222 v 88.8001 h 30 v -93.5 h 64.1 v 93.5 h 30.0001 V 1222 a 28.12466,28.12466 0 0 0 -28.1,-28.1 h -67.9 a 28.12461,28.12461 0 0 0 -28.1001,28.1 z"
     style="fill:#887ec9"
     id="path36" />
  <rect
     x="1937.9619"
     y="1240.6"
     width="124"
     height="23.400021"
     style="fill:#887ec9"
     id="rect38" />
  <rect
     x="498.86191"
     y="1193.9"
     width="30.000031"
     height="116.90002"
     style="fill:#887ec9"
     id="rect40" />
  <rect
     x="622.86194"
     y="1193.9"
     width="30"
     height="116.90002"
     style="fill:#887ec9"
     id="rect42" />
  <path
     d="m 836.56191,1217.3001 v -23.4 h -96 a 28.12459,28.12459 0 0 0 -28.1,28.0999 v 60.7 a 28.12459,28.12459 0 0 0 28.1,28.1 h 96 v -23.4 h -94.1 v -70.1 h 94.1 z"
     style="fill:#887ec9"
     id="path44" />
  <path
     d="m 903.86191,1222 v 60.7 a 28.12459,28.12459 0 0 0 28.1,28.1 h 67.9 a 28.12459,28.12459 0 0 0 28.09999,-28.1 V 1222 a 28.12459,28.12459 0 0 0 -28.09999,-28.1 h -67.9 a 28.06061,28.06061 0 0 0 -28.1,28.1 z m 94,65.4 h -64.1 v -70.1 h 64.1 z"
     style="fill:#887ec9"
     id="path46" />
  <rect
     x="1533.262"
     y="1240.6"
     width="94.099983"
     height="23.400021"
     style="fill:#887ec9"
     id="rect48" />
  <path
     d="m 1652.3619,1217.3001 v -23.4 h -96 a 28.12458,28.12458 0 0 0 -28.1,28.0999 v 60.7 a 28.12458,28.12458 0 0 0 28.1,28.1 h 96 v -23.4 h -94.1 v -70.1 h 94.1 z"
     style="fill:#887ec9"
     id="path50" />
  <rect
     x="1786.4619"
     y="1240.6"
     width="70.699951"
     height="23.400021"
     style="fill:#887ec9"
     id="rect52" />
  <path
     d="m 1763.1619,1217.3001 h 94.1 v -23.4 h -96 a 28.12459,28.12459 0 0 0 -28.1,28.0999 v 60.7 a 28.12459,28.12459 0 0 0 28.1,28.1 h 67.9 a 28.12459,28.12459 0 0 0 28.1,-28.1 v -42.1 h -30 v 46.8 h -64.1 z"
     style="fill:#887ec9"
     id="path54" />
  <rect
     x="103.56191"
     y="1193.9"
     width="30.00001"
     height="116.90002"
     style="fill:#887ec9"
     id="rect56" />
  <rect
     x="197.66191"
     y="1193.9"
     width="30"
     height="116.90002"
     style="fill:#887ec9"
     id="rect58" />
  <polygon
     points="123.462,1204.9 197.662,1310.8 220.262,1310.8 224.262,1308 144.362,1193.9 139.162,1193.9 "
     style="fill:#887ec9"
     id="polygon60" />
  <path
     d="m 3612.6619,1222 v 60.7 a 28.12469,28.12469 0 0 0 28.1001,28.1 h 67.8999 a 28.12469,28.12469 0 0 0 28.1001,-28.1 V 1222 a 28.12469,28.12469 0 0 0 -28.1001,-28.1 h -67.8999 a 28.12469,28.12469 0 0 0 -28.1001,28.1 z m 94.1001,65.4 h -64.1001 v -70.1 h 64.1001 z"
     style="fill:#887ec9"
     id="path62" />
  <path
     d="m 3414.1619,1193.9 v 116.9 h 96 a 28.12469,28.12469 0 0 0 28.1001,-28.1 V 1222 a 28.12469,28.12469 0 0 0 -28.1001,-28.1 z m 94.1001,93.5 h -64.1001 v -70.1 h 64.1001 z"
     style="fill:#887ec9"
     id="path64" />
  <rect
     x="3040.9619"
     y="1240.6"
     width="94.100098"
     height="23.400021"
     style="fill:#887ec9"
     id="rect66" />
  <path
     d="m 3164.9619,1217.3001 v -23.4 h -96 A 28.12469,28.12469 0 0 0 3040.8618,1222 v 60.7 a 28.12469,28.12469 0 0 0 28.1001,28.1 h 96 v -23.4 h -94 v -70.1 h 94 z"
     style="fill:#887ec9"
     id="path68" />
  <rect
     x="2333.562"
     y="1193.9"
     width="40.600101"
     height="23.400021"
     style="fill:#887ec9"
     id="rect70" />
  <rect
     x="2333.562"
     y="1193.9"
     width="30"
     height="116.90002"
     style="fill:#887ec9"
     id="rect72" />
  <rect
     x="2427.6619"
     y="1193.9"
     width="30"
     height="116.90002"
     style="fill:#887ec9"
     id="rect74" />
  <polygon
     points="2353.462,1204.9 2427.662,1310.8 2450.262,1310.8 2454.262,1308 2374.362,1193.9 2369.162,1193.9 "
     style="fill:#887ec9"
     id="polygon76" />
  <rect
     x="2539.3618"
     y="1193.9"
     width="30"
     height="116.90002"
     style="fill:#887ec9"
     id="rect78" />
  <rect
     x="2891.8618"
     y="1193.9"
     width="30"
     height="116.90002"
     style="fill:#887ec9"
     id="rect80" />
  <rect
     x="3215.762"
     y="1193.9"
     width="40.600101"
     height="23.400021"
     style="fill:#887ec9"
     id="rect82" />
  <rect
     x="3215.762"
     y="1193.9"
     width="30"
     height="116.90002"
     style="fill:#887ec9"
     id="rect84" />
  <rect
     x="3309.762"
     y="1193.9"
     width="30"
     height="116.90002"
     style="fill:#887ec9"
     id="rect86" />
  <polygon
     points="3235.562,1204.9 3309.762,1310.8 3332.362,1310.8 3336.362,1308 3256.462,1193.9 3251.262,1193.9 "
     style="fill:#887ec9"
     id="polygon88" />
  <rect
     x="2653.6619"
     y="1193.9"
     width="40.600101"
     height="23.400021"
     style="fill:#887ec9"
     id="rect90" />
  <rect
     x="2653.6619"
     y="1193.9"
     width="30"
     height="116.90002"
     style="fill:#887ec9"
     id="rect92" />
  <rect
     x="2747.6619"
     y="1193.9"
     width="30"
     height="116.90002"
     style="fill:#887ec9"
     id="rect94" />
  <polygon
     points="2673.462,1204.9 2747.662,1310.8 2770.262,1310.8 2774.262,1308 2694.362,1193.9 2689.162,1193.9 "
     style="fill:#887ec9"
     id="polygon96" />
  <polygon
     points="545.962,1193.9 521.262,1193.9 561.562,1310.8 590.162,1310.8 630.462,1193.9 605.662,1193.9 575.862,1280.6 "
     style="fill:#887ec9"
     id="polygon98" />
  <rect
     x="2844.8618"
     y="1193.9"
     width="124"
     height="23.400021"
     style="fill:#887ec9"
     id="rect100" />
  <polygon
     points="1937.962,184 1937.962,184 2203.862,651.2 2308.562,651.2 1937.962,0 1567.362,651.2 1672.062,651.2 1937.962,184 "
     style="fill:#887ec9"
     id="polygon102" />
  <polygon
     points="2606.362,1358.6 2720.862,1559.9 1155.062,1559.9 1269.562,1358.6 1164.862,1358.6 998.562,1650.9 2877.362,1650.9 2711.062,1358.6 "
     style="fill:#887ec9"
     id="polygon104" />
  <path
     d="m 1447.5619,1217.3001 v -23.4 h -96 a 28.12459,28.12459 0 0 0 -28.1,28.0999 v 14 a 28.12459,28.12459 0 0 0 28.1,28.1 h 66 v 23.4 h -94.1 v 23.4001 h 96 a 28.12458,28.12458 0 0 0 28.1,-28.1 v -14 a 28.12459,28.12459 0 0 0 -28.1,-28.1 h -66 v -23.4 z"
     style="fill:#887ec9"
     id="path106" />
  <path
     d="m 732.76191,881.4 v 85.9 l 202,169.1 h 152.79999 l -187.39999,-157 h 36.5 a 91.15951,91.15951 0 0 0 91.19999,-91.2 v -97.9 a 91.15951,91.15951 0 0 0 -91.19999,-91.2 h -389 v 437.1999 h 124 V 797.2 h 231.6 v 84.2 z"
     style="fill:#887ec9"
     id="path108" />
  <path
     d="m 2518.6619,881.4 v 85.9 l 202,169.1 h 152.8 L 2686.062,979.5 h 36.5 a 91.15955,91.15955 0 0 0 91.2,-91.2 v -97.9 a 91.15955,91.15955 0 0 0 -91.2,-91.2 h -388.8999 v 437.1999 h 124 V 797.2 h 231.6001 v 84.2 z"
     style="fill:#887ec9"
     id="path110" />
</svg>
