<svg id="Layer_1" data-name="Layer 1" xmlns="http://www.w3.org/2000/svg" viewBox="0 0 3839.95837 1650.90002"><rect x="3414.16187" y="699.09998" width="124" height="437.20007" style="fill:#887ec9"/><rect x="1323.46191" y="699.09998" width="124" height="437.20007" style="fill:#887ec9"/><rect x="1110.06189" y="699.09998" width="124" height="437.20007" style="fill:#887ec9"/><rect x="189.66191" y="699.09998" width="124.00002" height="437.20007" style="fill:#887ec9"/><rect x="3414.11389" y="699.11279" width="425.79999" height="98.1001" style="fill:#887ec9"/><rect x="3414.26538" y="868.70654" width="338.09998" height="98.1001" style="fill:#887ec9"/><rect x="3414.15845" y="1038.25732" width="425.79993" height="98.1001" style="fill:#887ec9"/><rect x="1323.42407" y="699.10376" width="401.59998" height="98.09998" style="fill:#887ec9"/><rect x="1323.44897" y="868.62341" width="362.89996" height="98.09998" style="fill:#887ec9"/><path d="M1855.2,699.1A91.15947,91.15947,0,0,0,1764,790.3v254.8A91.1595,91.1595,0,0,0,1855.2,1136.29993H2190.5A91.15958,91.15958,0,0,0,2281.7,1045.1V790.3a91.15954,91.15954,0,0,0-91.2-91.2Zm302.5,339.1H1888V797.2h269.7Z" transform="translate(-0.03809 0)" style="fill:#887ec9"/><path d="M2864.8999,790.3v254.8a91.1595,91.1595,0,0,0,91.2,91.19995h321A91.15957,91.15957,0,0,0,3368.2998,1045.1V966.8H3237v71.50006H2988.8999V797.2H3237v71.5h131.3V790.4a91.15955,91.15955,0,0,0-91.19995-91.2h-321A91.01055,91.01055,0,0,0,2864.8999,790.3Z" transform="translate(-0.03809 0)" style="fill:#887ec9"/><rect y="699.12651" width="503.39999" height="98.09999" style="fill:#887ec9"/><path d="M1182.5,1252.4a19.4,19.4,0,1,1-19.4-19.4A19.26982,19.26982,0,0,1,1182.5,1252.4Z" transform="translate(-0.03809 0)" style="fill:#887ec9"/><path d="M2208.2,1252.4a19.3999,19.3999,0,1,1-19.3999-19.4A19.33317,19.33317,0,0,1,2208.2,1252.4Z" transform="translate(-0.03809 0)" style="fill:#887ec9"/><rect x="103.56191" y="1193.90002" width="40.6" height="23.40002" style="fill:#887ec9"/><path d="M303.7,1222v88.80005h30v-93.5h64.1v93.5h30V1222a28.12461,28.12461,0,0,0-28.1-28.1H331.8A28.12459,28.12459,0,0,0,303.7,1222Z" transform="translate(-0.03809 0)" style="fill:#887ec9"/><rect x="303.66193" y="1240.59998" width="124" height="23.40002" style="fill:#887ec9"/><path d="M1938,1222v88.80005h30v-93.5h64.1v93.5h30.00012V1222a28.12466,28.12466,0,0,0-28.1-28.1h-67.9A28.12461,28.12461,0,0,0,1938,1222Z" transform="translate(-0.03809 0)" style="fill:#887ec9"/><rect x="1937.96191" y="1240.59998" width="124" height="23.40002" style="fill:#887ec9"/><rect x="498.86191" y="1193.90002" width="30.00003" height="116.90002" style="fill:#887ec9"/><rect x="622.86194" y="1193.90002" width="30" height="116.90002" style="fill:#887ec9"/><path d="M836.6,1217.30005v-23.4h-96a28.12459,28.12459,0,0,0-28.1,28.1V1282.7a28.12459,28.12459,0,0,0,28.1,28.1h96v-23.4H742.5v-70.1h94.1Z" transform="translate(-0.03809 0)" style="fill:#887ec9"/><path d="M903.9,1222V1282.7a28.12459,28.12459,0,0,0,28.1,28.1h67.9a28.12459,28.12459,0,0,0,28.1-28.1V1222a28.12459,28.12459,0,0,0-28.1-28.1H932A28.06061,28.06061,0,0,0,903.9,1222Zm94,65.4h-64.1v-70.1h64.1Z" transform="translate(-0.03809 0)" style="fill:#887ec9"/><rect x="1533.26196" y="1240.59998" width="94.09998" height="23.40002" style="fill:#887ec9"/><path d="M1652.4,1217.30005v-23.4h-96a28.12458,28.12458,0,0,0-28.1,28.1V1282.7a28.12458,28.12458,0,0,0,28.1,28.1h96v-23.4h-94.1v-70.1h94.1Z" transform="translate(-0.03809 0)" style="fill:#887ec9"/><rect x="1786.46191" y="1240.59998" width="70.69995" height="23.40002" style="fill:#887ec9"/><path d="M1763.2,1217.30005h94.1v-23.4h-96a28.12459,28.12459,0,0,0-28.1,28.1V1282.7a28.12459,28.12459,0,0,0,28.1,28.1h67.9a28.12459,28.12459,0,0,0,28.1-28.1v-42.1h-30v46.8h-64.1Z" transform="translate(-0.03809 0)" style="fill:#887ec9"/><rect x="103.56191" y="1193.90002" width="30.00001" height="116.90002" style="fill:#887ec9"/><rect x="197.66191" y="1193.90002" width="30" height="116.90002" style="fill:#887ec9"/><polygon points="144.362 1193.9 139.162 1193.9 123.462 1204.9 197.662 1310.8 220.262 1310.8 224.262 1308 144.362 1193.9" style="fill:#887ec9"/><path d="M3612.7,1222V1282.7a28.12469,28.12469,0,0,0,28.1001,28.1H3708.7a28.12469,28.12469,0,0,0,28.1001-28.1V1222a28.12469,28.12469,0,0,0-28.1001-28.1h-67.8999A28.12469,28.12469,0,0,0,3612.7,1222Zm94.1001,65.4H3642.7v-70.1h64.1001Z" transform="translate(-0.03809 0)" style="fill:#887ec9"/><path d="M3414.2,1193.9v116.9h96a28.12469,28.12469,0,0,0,28.1001-28.1V1222a28.12469,28.12469,0,0,0-28.1001-28.1Zm94.1001,93.5H3444.2v-70.1h64.1001Z" transform="translate(-0.03809 0)" style="fill:#887ec9"/><rect x="3040.96191" y="1240.59998" width="94.1001" height="23.40002" style="fill:#887ec9"/><path d="M3165,1217.30005v-23.4h-96a28.12469,28.12469,0,0,0-28.1001,28.1V1282.7a28.12469,28.12469,0,0,0,28.1001,28.1h96v-23.4h-94v-70.1h94Z" transform="translate(-0.03809 0)" style="fill:#887ec9"/><rect x="2333.56201" y="1193.90002" width="40.6001" height="23.40002" style="fill:#887ec9"/><rect x="2333.56201" y="1193.90002" width="30" height="116.90002" style="fill:#887ec9"/><rect x="2427.66187" y="1193.90002" width="30" height="116.90002" style="fill:#887ec9"/><polygon points="2374.362 1193.9 2369.162 1193.9 2353.462 1204.9 2427.662 1310.8 2450.262 1310.8 2454.262 1308 2374.362 1193.9" style="fill:#887ec9"/><rect x="2539.36182" y="1193.90002" width="30" height="116.90002" style="fill:#887ec9"/><rect x="2891.86182" y="1193.90002" width="30" height="116.90002" style="fill:#887ec9"/><rect x="3215.76196" y="1193.90002" width="40.6001" height="23.40002" style="fill:#887ec9"/><rect x="3215.76196" y="1193.90002" width="30" height="116.90002" style="fill:#887ec9"/><rect x="3309.76196" y="1193.90002" width="30" height="116.90002" style="fill:#887ec9"/><polygon points="3256.462 1193.9 3251.262 1193.9 3235.562 1204.9 3309.762 1310.8 3332.362 1310.8 3336.362 1308 3256.462 1193.9" style="fill:#887ec9"/><rect x="2653.66187" y="1193.90002" width="40.6001" height="23.40002" style="fill:#887ec9"/><rect x="2653.66187" y="1193.90002" width="30" height="116.90002" style="fill:#887ec9"/><rect x="2747.66187" y="1193.90002" width="30" height="116.90002" style="fill:#887ec9"/><polygon points="2694.362 1193.9 2689.162 1193.9 2673.462 1204.9 2747.662 1310.8 2770.262 1310.8 2774.262 1308 2694.362 1193.9" style="fill:#887ec9"/><polygon points="605.662 1193.9 575.862 1280.6 545.962 1193.9 521.262 1193.9 561.562 1310.8 590.162 1310.8 630.462 1193.9 605.662 1193.9" style="fill:#887ec9"/><rect x="2844.86182" y="1193.90002" width="124" height="23.40002" style="fill:#887ec9"/><polygon points="1937.962 184 1937.962 184 1937.962 184 1937.962 184 2203.862 651.2 2308.562 651.2 1937.962 0 1567.362 651.2 1672.062 651.2 1937.962 184" style="fill:#887ec9"/><polygon points="2877.362 1650.9 2711.062 1358.6 2606.362 1358.6 2720.862 1559.9 1155.062 1559.9 1269.562 1358.6 1164.862 1358.6 998.562 1650.9 2877.362 1650.9" style="fill:#887ec9"/><path d="M1447.6,1217.30005v-23.4h-96a28.12459,28.12459,0,0,0-28.1,28.1v14a28.12459,28.12459,0,0,0,28.1,28.1h66v23.4h-94.1v23.4h96a28.12458,28.12458,0,0,0,28.1-28.1v-14a28.12459,28.12459,0,0,0-28.1-28.1h-66v-23.4Z" transform="translate(-0.03809 0)" style="fill:#887ec9"/><path d="M732.8,881.4v85.9l202,169.1h152.8l-187.4-157h36.5a91.15951,91.15951,0,0,0,91.2-91.2V790.3a91.15951,91.15951,0,0,0-91.2-91.2h-389v437.19995h124V797.2h231.6v84.2Z" transform="translate(-0.03809 0)" style="fill:#887ec9"/><path d="M2518.7,881.4v85.9l202,169.1h152.8L2686.1001,979.5h36.5a91.15955,91.15955,0,0,0,91.19995-91.2V790.4a91.15955,91.15955,0,0,0-91.19995-91.2H2333.7002V1136.3999h124V797.2h231.60009v84.2Z" transform="translate(-0.03809 0)" style="fill:#887ec9"/></svg>