<?xml version="1.0" encoding="UTF-8" standalone="no"?>
<svg
   height="147.86604"
   viewBox="0 0 595.85449 147.86604"
   width="595.85449"
   version="1.1"
   id="svg24"
   sodipodi:docname="universal.svg"
   inkscape:version="1.1.2 (0a00cf5339, 2022-02-04, custom)"
   xmlns:inkscape="http://www.inkscape.org/namespaces/inkscape"
   xmlns:sodipodi="http://sodipodi.sourceforge.net/DTD/sodipodi-0.dtd"
   xmlns="http://www.w3.org/2000/svg"
   xmlns:svg="http://www.w3.org/2000/svg">
  <defs
     id="defs28" />
  <sodipodi:namedview
     id="namedview26"
     pagecolor="#ffffff"
     bordercolor="#666666"
     borderopacity="1.0"
     inkscape:pageshadow="2"
     inkscape:pageopacity="0.0"
     inkscape:pagecheckerboard="0"
     showgrid="false"
     inkscape:zoom="1.2685935"
     inkscape:cx="269.98404"
     inkscape:cy="62.27369"
     inkscape:window-width="1920"
     inkscape:window-height="1017"
     inkscape:window-x="-8"
     inkscape:window-y="-8"
     inkscape:window-maximized="1"
     inkscape:current-layer="svg24" />
  <g
     fill="#ff0000"
     stroke-width="2.5"
     id="g22">
    <path
       d="M 66.006887,38.556038 V 2.0258216 H 39.517139 V 38.556038 h 4.058913 v 47.425194 c 0,7.690572 0,11.749485 -0.427254,14.313008 -0.427254,4.05891 -2.777151,6.40881 -6.195183,6.40881 -3.418032,0 -5.554302,-2.56352 -6.195183,-6.836063 -0.213627,-2.563524 -0.427254,-7.263318 -0.427254,-13.244874 V 38.556038 H 35.88548 V 2.0258216 H 3.8414304 V 38.556038 h 6.8360636 v 66.224372 10.89498 c 0,11.96311 1.709016,18.58554 6.195183,23.49896 4.486167,4.91343 11.322231,7.69058 18.585549,7.69058 15.167517,0 23.285343,-10.46773 23.285343,-29.48053 V 106.48942 38.556038 Z"
       transform="matrix(0.99542121,0,0,1.0045998,-3.823841,0.325566)"
       id="path2" />
    <g
       transform="matrix(0.99542126,0,0,1.0045998,-3.823841,0.325566)"
       id="g20">
      <path
         d="M 146.97643,38.556038 V 2.0258216 H 118.35041 V 38.556038 h 7.69057 V 101.36238 L 105.53279,2.0258216 H 73.488738 V 38.556038 h 7.263318 v 67.506132 h -7.263318 v 38.45286 H 102.96926 V 106.06217 H 94.637811 V 32.147228 L 118.35041,144.51503 h 21.57632 V 38.556038 Z"
         id="path4" />
      <path
         d="m 188.84508,144.51503 v -38.45286 h -6.83606 V 38.556038 h 6.83606 V 2.0258216 H 154.66476 V 38.556038 h 7.04969 v 67.506132 h -7.04969 v 38.45286 z"
         id="path6" />
      <path
         d="M 259.44948,38.556038 V 2.0258216 H 231.67797 V 38.556038 h 8.33145 l -8.33145,73.914942 -10.2541,-73.914942 h 6.19519 V 2.0258216 H 195.78863 V 38.556038 h 6.19519 l 14.74026,105.958992 h 23.28534 L 254.1088,38.556038 Z"
         id="path8" />
      <path
         d="M 324.01981,144.51503 V 85.767605 H 305.64789 V 106.06217 H 291.97576 V 78.717914 h 17.94467 V 63.977651 H 291.97576 V 38.556038 h 13.67213 V 59.06423 h 16.87653 V 2.0258216 H 265.27238 V 38.556038 h 7.04969 v 67.506132 h -7.04969 v 38.45286 z"
         id="path10" />
      <path
         d="m 404.87784,111.61647 c 0,-5.98155 -0.21363,-11.53586 -1.06813,-20.294563 h -4.91342 v 2.349897 c 0,10.254096 -1.06814,13.672126 -4.05892,13.672126 -2.34989,0 -3.41803,-1.70901 -3.63166,-5.76793 l -0.42725,-7.690569 -0.42725,-9.613215 c -0.21363,-6.195183 -3.20441,-10.040469 -8.54508,-11.535858 -1.49539,-0.427254 -1.92265,-0.640881 -6.40881,-1.281762 1.06813,-0.213627 1.70901,-0.427254 2.34989,-0.640881 13.24488,-2.990778 16.66291,-9.399588 16.66291,-30.975915 0,-30.1214064 -5.98156,-37.8119784 -29.48053,-37.8119784 H 332.88554 V 38.556038 h 7.04969 v 67.506132 h -7.04969 v 38.45286 h 34.18032 V 106.06217 H 360.2298 V 78.931541 c 0.85451,0 1.49539,-0.213627 1.92264,-0.213627 9.61322,0 11.53586,2.349897 11.53586,14.313009 0,1.281762 -0.21363,3.845286 -0.21363,7.904197 v 9.18596 c 0,16.23566 0.42726,21.14908 2.3499,26.48975 2.13627,5.76793 6.62244,8.97233 13.03125,8.97233 11.74948,0 16.02202,-9.39958 16.02202,-33.96669 z M 374.32918,52.65542 c 0,9.826842 -2.3499,12.176739 -12.17674,12.176739 H 360.2298 V 38.556038 h 2.3499 c 9.61321,0 11.74948,2.563524 11.74948,14.099382 z"
         id="path12" />
      <path
         d="m 464.98168,108.41207 c 0,-16.876536 -1.70902,-26.276124 -6.19519,-32.25768 -3.84528,-5.340675 -8.11782,-8.758707 -18.15829,-15.167517 -7.47695,-4.699794 -10.04047,-8.758707 -10.04047,-14.740263 0,-4.699794 2.13627,-7.476945 5.76793,-7.476945 4.05891,0 5.34067,2.13627 5.76793,9.826842 l 0.21363,3.631659 h 18.58554 V 2.0258216 H 443.40535 V 12.066291 c -3.84529,-9.1859614 -7.69057,-12.39036635 -14.52664,-12.39036635 -13.4585,0 -19.86731,12.60399335 -19.86731,38.23923235 0,18.799176 3.84529,27.77151 16.02203,36.102963 l 10.25409,7.049691 c 5.34068,3.631659 7.69058,8.331453 7.69058,15.594771 0,6.622438 -2.13627,10.040468 -6.40881,10.040468 -5.34068,0 -7.26332,-3.84528 -7.26332,-14.099381 v -2.13627 h -18.58555 v 54.047631 h 18.58555 v -10.04047 c 4.27254,8.54508 9.39959,12.39037 16.44928,12.39037 13.03124,0 19.22643,-12.604 19.22643,-38.45286 z"
         id="path14" />
      <path
         d="m 537.32457,144.51503 v -38.45286 h -6.40881 L 516.1755,2.0258216 H 489.89938 L 475.58637,106.06217 h -6.83607 v 38.45286 h 29.2669 v -38.45286 h -8.11782 l 2.34989,-18.799176 h 15.16752 l 2.13627,18.799176 h -7.47695 v 38.45286 z M 505.49415,72.522731 h -11.32223 l 5.76792,-43.793534 z"
         id="path16" />
      <path
         d="M 602.43671,144.51503 V 78.717914 h -18.15829 v 27.344256 h -13.4585 V 38.556038 h 7.26331 V 2.0258216 H 543.47566 V 38.556038 h 7.04969 v 67.506132 h -7.04969 v 38.45286 z"
         id="path18" />
    </g>
  </g>
</svg>
