<svg id="Layer_1" data-name="Layer 1" xmlns="http://www.w3.org/2000/svg" viewBox="0 0 3838.97306 710.60004"><path d="M1453.7,694.8a338.91416,338.91416,0,0,1-207.9-71.3A101.12338,101.12338,0,0,1,1155.6,679.1H765.8A101.06068,101.06068,0,0,1,664.7,578V404.6l-157,224.3a101.0841,101.0841,0,0,1-165.6,0L34.1,188.8a101.016,101.016,0,0,1,82.7-159H1145.70007a101.37468,101.37468,0,0,1,93.4,62.6,339.73858,339.73858,0,0,1,386.8-29.9,100.6308,100.6308,0,0,1,74.30005-32.6h762.8999a244.12911,244.12911,0,0,1,147.3,49.4,100.80663,100.80663,0,0,1,86.80005-49.4H3722.1001a101.016,101.016,0,0,1,82.70019,159L3689,354.4,3804.8999,520a101.016,101.016,0,0,1-82.70019,159H1805.4a101.03788,101.03788,0,0,1-100.9-94.9C1640.30005,654.8,1550.30005,694.8,1453.7,694.8Z" transform="translate(0.02266 0)" style="fill:#204492"/><path d="M1453.7,31.6c63.80005,0,124.4,18.2,175.9,51.7a85.16145,85.16145,0,0,1,70.69995-37.7h762.9a228.38385,228.38385,0,0,1,153.1001,58.8,85.2651,85.2651,0,0,1,81-58.8H3722.2A85.27213,85.27213,0,0,1,3792,179.8L3669.7,354.4,3792,529.1a85.27215,85.27215,0,0,1-69.8,134.2H1805.4a85.3554,85.3554,0,0,1-85.3-85.3V537.1a85.0965,85.0965,0,0,1-10.5,16.5C1647.79993,633.4,1554.7,679,1453.7,679a321.992,321.992,0,0,1-215-82,85.25793,85.25793,0,0,1-83,66.2H765.8a85.3554,85.3554,0,0,1-85.3-85.3V354.4L494.8,619.8a85.12358,85.12358,0,0,1-139.6,0L47,179.8A85.27217,85.27217,0,0,1,116.8,45.6H1145.70007a85.33411,85.33411,0,0,1,83.6,68.3l1.4,7A322.4556,322.4556,0,0,1,1453.7,31.6m0-31.6A352.46821,352.46821,0,0,0,1244.5,68.4a116.74221,116.74221,0,0,0-98.6-54.3H116.8A116.85085,116.85085,0,0,0,21.1,198L329.3,638a116.85274,116.85274,0,0,0,191.4,0L649,454.7V578A116.82444,116.82444,0,0,0,765.80005,694.80005H1155.6001a116.61017,116.61017,0,0,0,94.6001-48.4,354.47353,354.47353,0,0,0,203.4,64.2c90.9,0,176.1-33.8,241.30005-94.4.8,2.2,1.6,4.3,2.5,6.5a116.82457,116.82457,0,0,0,107.9,72.1H3722.10034a116.851,116.851,0,0,0,95.7002-183.9l-109.6001-156.5,109.6001-156.5a116.909,116.909,0,0,0-95.7002-183.9H2697.2002a115.83043,115.83043,0,0,0-69.30005,22.8,118.30732,118.30732,0,0,0-21.39991,20.4,259.99794,259.99794,0,0,0-143.5-43.1h-762.9a116.52844,116.52844,0,0,0-76.80005,28.9A352.885,352.885,0,0,0,1453.7,0Z" transform="translate(0.02266 0)" style="fill:#fff"/><path d="M1643.7,211.2,1540.5,314.4h0c-6.6,6.6-17.69995,5.9-22.9-1.8a76.96941,76.96941,0,0,0-66.80005-34.1c-39.9,1.4-73,34.8-74.1,74.7a76.9932,76.9932,0,0,0,140.9,45.1,14.95305,14.95305,0,0,1,22.9-2l9.6,9.6,93.6,93.6h0a238.1198,238.1198,0,0,1-190,94.3c-131.69995,0-238.5-106.8-238.5-238.5s106.80005-238.5,238.5-238.5A238.35336,238.35336,0,0,1,1643.7,211.2Z" transform="translate(0.02266 0)" style="fill:none;stroke:#fff;stroke-linecap:round;stroke-linejoin:round;stroke-width:31.57710075378418px"/><polygon points="520.223 130.9 425.023 266.9 329.823 130.9 116.823 130.9 425.023 570.9 733.123 130.9 520.223 130.9" style="fill:none;stroke:#fff;stroke-linecap:round;stroke-linejoin:round;stroke-width:31.57710075378418px"/><polygon points="940.323 452.9 940.323 404.7 1041.723 404.7 1041.723 304.1 940.323 304.1 940.323 256 1171.123 256 1145.823 130.9 940.323 130.9 920.923 130.9 765.923 130.9 765.823 578 930.823 578 940.323 578 1155.723 578 1181.023 452.9 940.323 452.9" style="fill:none;stroke:#fff;stroke-linecap:round;stroke-linejoin:round;stroke-width:31.57710075378418px"/><polygon points="2871.723 404.7 2973.223 404.7 2973.223 304.1 2871.723 304.1 2871.723 256 3102.623 256 3077.223 130.9 2871.723 130.9 2852.323 130.9 2697.323 130.9 2697.323 578 2862.223 578 2871.723 578 3087.123 578 3112.523 452.9 2871.723 452.9 2871.723 404.7" style="fill:none;stroke:#fff;stroke-linecap:round;stroke-linejoin:round;stroke-width:31.57710075378418px"/><polygon points="3722.223 130.9 3509.223 130.9 3429.823 244.3 3350.423 130.9 3137.523 130.9 3294.023 354.4 3137.523 578 3350.423 578 3429.823 464.6 3509.223 578 3722.223 578 3565.623 354.4 3722.223 130.9" style="fill:none;stroke:#fff;stroke-linecap:round;stroke-linejoin:round;stroke-width:31.57710075378418px"/><polygon points="2084.923 130.9 1979.823 130.9 1925.223 130.9 1860.023 130.9 1805.423 130.9 1700.323 130.9 1669.423 283.3 1805.423 283.3 1805.423 578 1979.823 578 1979.823 283.3 2115.823 283.3 2084.923 130.9" style="fill:none;stroke:#fff;stroke-linecap:round;stroke-linejoin:round;stroke-width:31.57710075378418px"/><path d="M2348.7,256h50.6001a29.49025,29.49025,0,0,1,29.5,29.5h0a29.49025,29.49025,0,0,1-29.5,29.5V501.3L2453,578h203L2532.2,401.1a143.91367,143.91367,0,0,0-69-270.2h-288.8999V578H2348.7V256" transform="translate(0.02266 0)" style="fill:none;stroke:#fff;stroke-linecap:round;stroke-linejoin:round;stroke-width:31.57710075378418px"/></svg>