<svg id="Layer_1" data-name="Layer 1" xmlns="http://www.w3.org/2000/svg" viewBox="0 0 3839.00243 1199.92003"><path d="M250.8,1081.38h1.84L458.22,515.96h44.25L249.88,1199.91.05,515.96H44.3Z" transform="translate(0 0.00999)" style="fill:#febd1f"/><path d="M1192.47,859.25c1.76,83.41-10.54,156.28-69.36,220.37-63.21,68.48-158.04,107.11-251.1,107.11-183.5,0-339.78-154.52-339.78-337.15,0-189.64,155.4-342.41,345.05-342.41,120.28,0,217.74,59.7,287.1,154.52l-34.24,27.22c-58.83-87.8-148.38-142.23-255.49-142.23-161.55,0-300.27,141.36-300.27,300.27,0,163.3,135.21,300.27,300.27,300.27,71.12,0,140.48-28.97,194.91-72.87,57.06994-48.29,78.14-103.6,80.77-175.6H913.28V859.24H1192.47Z" transform="translate(0 0.00999)" style="fill:#febd1f"/><path d="M1814.08,555.47,1758.7699,734.58c16.68-5.27,33.36-7.02,50.05005-7.02,127.30993,0,224.76,100.09,224.76,225.64,0,135.21-105.36,233.54-238.80994,233.54a229.40877,229.40877,0,0,1-195.79-109.75l38.63-15.80005c34.24,51.80005,95.7,86.04,158.04,86.04,110.63,0,195.79-83.41,195.79-194.91,0-105.36-88.68-185.25-193.16-185.25-38.63,0-68.48,10.54-100.97,29.85l86.04-280.95h251.98v39.51H1814.08Z" transform="translate(0 0.00999)" style="fill:#febd1f"/><path d="M2584.93994,842.57c0,136.97-71.99,344.17-240.57007,344.17-168.57007,0-240.57007-207.2-240.57007-344.17,0-138.72,76.37989-335.39,240.57007-335.39C2508.56006,507.18,2584.93994,703.85,2584.93994,842.57Zm-42.13989,0c0-104.48-57.07007-295.88-198.41992-295.88s-198.41992,191.4-198.41992,295.88c0,119.41,57.07006,304.66,198.41992,304.66S2542.80005,961.98,2542.80005,842.57Z" transform="translate(0 0.00999)" style="fill:#febd1f"/><path d="M3095.91992,842.57c0,136.97-71.99,344.17-240.57007,344.17s-240.57006-207.2-240.57006-344.17c0-138.72,76.37988-335.39,240.57006-335.39S3095.91992,703.85,3095.91992,842.57Zm-42.13989,0c0-104.48-57.07007-295.88-198.41992-295.88s-198.41992,191.4-198.41992,295.88c0,119.41,57.07006,304.66,198.41992,304.66S3053.78,961.98,3053.78,842.57Z" transform="translate(0 0.00999)" style="fill:#febd1f"/><path d="M3606.8999,842.57c0,136.97-71.99,344.17-240.57007,344.17s-240.57006-207.2-240.57006-344.17c0-138.72,76.37988-335.39,240.57006-335.39C3530.52,507.18,3606.8999,703.85,3606.8999,842.57Zm-42.13989,0c0-104.48-57.07007-295.88-198.41992-295.88-141.36011,0-198.41992,191.4-198.41992,295.88,0,119.41,57.07006,304.66,198.41992,304.66S3564.76,961.98,3564.76,842.57Z" transform="translate(0 0.00999)" style="fill:#febd1f"/><path d="M3668.3501,701.56h0c-7.93994,0-13.24-7.69-11.84009-17.17l25.04-169.62h28.75l-25.04,169.62C3683.86011,693.87,3676.29,701.56,3668.3501,701.56Z" transform="translate(0 0.00999)" style="fill:#febd1f"/><polygon points="3785.08 592.4 3756.34 592.4 3767.8 514.78 3796.54 514.78 3785.08 592.4" style="fill:#febd1f"/><path d="M3762.43994,551.02,3756.78,589.34c-2.8,18.97-17.93994,34.34-33.82007,34.34-15.87988,0-26.48-15.37-23.67993-34.34l5.65991-38.32a65.84761,65.84761,0,0,0-20.03,38.32c-4.19995,28.45,11.7,51.51,35.52,51.51s46.53-23.06,50.73-51.51C3773.40991,574.1,3769.8501,560.45,3762.43994,551.02Z" transform="translate(0 0.00999)" style="fill:#febd1f"/><path d="M3824.48,618.94a28.07144,28.07144,0,0,1-16.54,4.71c-15.48-.8-24.92993-17.21-22.17993-35.85l5.42993-36.77A65.81282,65.81282,0,0,0,3770.75,592.78c-2.32007,24.95,11.55,45.7,32.08008,47.88,10.71,1.14,21.37988-2.56,30.43994-9.49,2.56006-1.96,7.93994-7.95,4.75-13.06C3835.25,613.66,3826.86011,617.42,3824.48,618.94Z" transform="translate(0 0.00999)" style="fill:#febd1f"/><path d="M1407,0c-39.99,0-120.87.47-120.9,0V351.76h98.34l.58-87.94h43.97c93.74,0,142.9-45.2,142.9-131.91C1571.88,36.67,1510.39,0,1407,0Zm0,197.86h-21.98V65.96c5.87-.36,16.82,0,21.98,0,49.64,0,67.59,25.39,67.59,68.04C1474.59,178.07,1459.36,197.86,1407,197.86Z" transform="translate(0 0.00999)" style="fill:#fff"/><polygon points="527.62 351.77 527.62 208.86 428.68 208.86 428.68 351.77 329.76 351.77 329.76 0.01 428.68 0.01 428.68 142.92 527.62 142.92 527.62 0.01 626.56 0.01 626.56 351.77 527.62 351.77" style="fill:#fff"/><polygon points="703.5 351.77 703.5 0.01 791.42 0.01 802.42 0.01 802.42 351.77 703.5 351.77" style="fill:#fff"/><polygon points="1065.46 351.77 879.36 351.77 879.36 0.01 978.3 0.01 978.3 285.81 1077.23 285.81 1065.46 351.77" style="fill:#fff"/><rect x="1110.20996" y="0.00999" width="98.92004" height="351.76001" style="fill:#fff"/><path d="M1703.79,87.94v11c0,53.99,164.86,29.2,164.86,142.89,0,85.28-58.81994,109.93-142.89,109.93-33.09,0-86.48-6.14-120.91-10.99V263.82c30.35,15.61,87.83,21.97,120.91,21.97,37.22,0,43.97-11.66,43.97-32.98,0-60.57-164.88-34.53-164.88-153.88,0-69.29,67.76-98.94,149.08-98.94,57.62,0,66.56006,5.32,92.75,11V76.93C1823.22,67,1790.47,65.95,1758.74,65.95,1729.81006,65.96,1703.79,69.46,1703.79,87.94Z" transform="translate(0 0.00999)" style="fill:#fff"/><path d="M120.91,0C80.92,0,.04.47,0,0V351.76H98.35l.57-87.94H142.9c93.74,0,142.9-45.2,142.9-131.91C285.8,36.67,224.31,0,120.91,0Zm0,197.86h-22V65.96c5.88-.36,16.83,0,22,0,49.63,0,67.59,25.39,67.59,68.04C188.5,178.07,173.28,197.86,120.91,197.86Z" transform="translate(0 0.00999)" style="fill:#fff"/></svg>