<?xml version="1.0" encoding="UTF-8" standalone="no"?>
<svg
   height="161.50449"
   viewBox="0 0 598.39514 145.35404"
   width="664.88348"
   version="1.1"
   id="svg20"
   sodipodi:docname="visco.svg"
   inkscape:version="1.1.2 (0a00cf5339, 2022-02-04, custom)"
   xmlns:inkscape="http://www.inkscape.org/namespaces/inkscape"
   xmlns:sodipodi="http://sodipodi.sourceforge.net/DTD/sodipodi-0.dtd"
   xmlns="http://www.w3.org/2000/svg"
   xmlns:svg="http://www.w3.org/2000/svg">
  <defs
     id="defs24" />
  <sodipodi:namedview
     id="namedview22"
     pagecolor="#ffffff"
     bordercolor="#666666"
     borderopacity="1.0"
     inkscape:pageshadow="2"
     inkscape:pageopacity="0.0"
     inkscape:pagecheckerboard="0"
     showgrid="false"
     inkscape:zoom="1.1368883"
     inkscape:cx="318.85278"
     inkscape:cy="60.691978"
     inkscape:window-width="1920"
     inkscape:window-height="1017"
     inkscape:window-x="-8"
     inkscape:window-y="-8"
     inkscape:window-maximized="1"
     inkscape:current-layer="svg20" />
  <g
     transform="translate(-1.2183299,0.27039582)"
     id="g18">
    <text
       fill="#ef00eb"
       font-family="TrasksHand"
       font-size="1.8px"
       stroke="#0105ff"
       stroke-width="2.25"
       x="284.46072"
       y="9.2499561"
       id="text4"><tspan
         fill="#ffffff"
         fill-opacity="0.5"
         font-size="1.8px"
         stroke="none"
         stroke-width="2.25"
         x="284.46072"
         y="9.2499561"
         id="tspan2">John Loreth 2022</tspan></text>
    <g
       fill="#00499b"
       stroke="#ffffff"
       stroke-linecap="round"
       stroke-linejoin="round"
       id="g16">
      <path
         d="m 105.27023,141.31324 c 11.56695,0.60769 11.01643,-11.63496 8.32214,-17.53103 -5.75913,-8.02564 -9.43076,-16.55952 -6.97707,-28.666879 4.84448,-19.101659 11.02487,-37.490028 17.5052,-55.718251 2.62382,-5.180356 8.06416,-10.967857 12.93975,-15.350853 4.44083,-4.501649 1.44441,-17.7957069 -11.6367,-15.2460231 -7.2406,2.3461251 -13.62385,7.4957121 -22.93462,3.0725001 -9.700391,-4.8599262 -21.387763,3.065172 -12.645518,13.843217 8.459187,6.457734 8.696277,9.66572 8.118046,20.118875 L 86.200674,98.084014 67.921146,42.764828 C 66.001588,26.08396 80.62263,26.097003 76.200742,13.416297 72.595039,8.1575173 70.029529,7.7871681 64.628821,8.8812296 57.43999,10.337524 38.436094,14.944661 26.880331,12.486295 22.624059,11.580819 17.888183,11.306923 13.625959,10.870483 1.5989837,15.428915 4.1006842,25.767854 9.2028144,31.245611 13.74191,33.874382 16.668937,37.494786 18.768231,41.624352 l 27.176966,77.322478 c -10.158521,4.60816 -13.289845,25.43776 6.541535,21.83264 13.113077,-2.96097 22.217674,-5.98795 52.783498,0.53377 z"
         opacity="0.98"
         stroke-width="7.5"
         id="path6" />
      <path
         d="m 196.47138,54.817314 c -0.0337,-12.56946 7.70606,-19.589949 14.60286,-29.530338 6.86017,-6.694619 0.0407,-21.2474641 -10.43294,-17.2241317 -17.3036,8.3827957 -38.49207,4.1510507 -49.13772,0.209155 -11.25392,-1.1424641 -18.51407,11.0674657 -12.48395,18.6644137 7.90946,7.33684 11.78296,12.935401 12.86277,23.193908 l -0.17979,56.947859 c 0.49175,5.11777 -3.6657,10.76741 -10.3524,16.24824 -4.43577,4.08228 -6.93932,17.5062 8.1773,16.30447 15.10808,-5.74687 30.7176,-8.90631 52.64929,-1.59272 7.57814,0.1813 11.69925,-6.2048 8.58193,-13.10333 -6.56397,-10.50328 -12.45734,-15.66693 -13.72269,-24.54557 z"
         opacity="0.98"
         stroke-width="7.5"
         id="path8" />
      <path
         d="m 235.03976,79.987287 c -12.10619,-0.369648 -21.89678,5.921086 -27.54296,13.389139 -14.16469,30.099274 26.11933,47.196884 47.42446,47.531894 84.7181,4.28639 92.33822,-70.565467 47.23611,-86.594034 -22.9892,-4.980619 -57.66076,-15.973218 -56.49009,-17.678624 -3.38029,-5.772042 -6.62432,-13.705828 8.74262,-11.643943 4.17036,0.616847 9.50955,7.24401 15.69046,17.614167 13.22388,12.534892 29.29678,5.550533 29.29678,5.550533 19.35153,-10.742277 23.31325,-38.7178081 9.19742,-41.3976611 -6.03906,5.0434141 -14.78399,11.4499771 -30.19418,4.9661151 -45.86852,-24.458225 -103.0847,24.906404 -57.30084,63.162909 21.69526,8.480752 47.79975,17.003439 57.71193,20.868569 18.6191,18.617409 -24.79689,42.120939 -33.37123,13.373559 -1.96066,-5.32883 14.15344,-12.799647 9.89499,-20.330963"
         opacity="0.98"
         stroke-width="7.5"
         id="path10" />
      <path
         d="M 401.75359,5.6932665 C 302.38895,-5.3122563 300.53297,139.61029 401.59761,140.97039 c 74.02915,-5.26147 67.06062,-78.347661 26.3682,-77.819292 -21.80625,1.922055 -40.62598,24.043889 -30.48444,32.286321 7.64331,4.515366 5.00215,1.439786 11.89622,-0.263119 10.94898,3.799409 5.00823,24.71107 -9.12708,24.08753 -28.93725,0.0309 -27.74797,-85.000215 -12.04652,-94.399658 12.09297,-4.469796 20.49347,28.091053 39.83222,26.838077 12.44867,-0.740308 15.99535,-5.797697 20.58023,-10.643097 4.02137,-8.788077 9.30879,-17.483103 7.95485,-27.533389 C 457.1502,4.0844192 448.56083,1.9115651 442.77732,6.191592 429.6919,18.780747 428.07599,10.538845 401.75359,5.6932665 Z"
         opacity="0.98"
         stroke-width="7.5"
         id="path12" />
      <path
         d="M 581.54883,4.1660156 A 79.166675,76.388897 0 0 0 502.38281,80.554688 79.166675,76.388897 0 0 0 581.54883,156.94531 79.166675,76.388897 0 0 0 660.7168,80.554688 79.166675,76.388897 0 0 0 581.54883,4.1660156 Z m 0.14648,23.4316404 c 9.88386,0 17.83985,7.955983 17.83985,17.839844 v 68.70898 c 0,9.88387 -7.95599,17.83985 -17.83985,17.83985 -9.88386,0 -17.84179,-7.95598 -17.84179,-17.83985 V 45.4375 c 0,-9.883861 7.95793,-17.839844 17.84179,-17.839844 z"
         opacity="0.98"
         stroke-width="8.33332"
         transform="matrix(0.9,0,0,0.9,1.21833,-0.269816)"
         id="path14" />
    </g>
  </g>
</svg>
