<?xml version="1.0" encoding="UTF-8" standalone="no"?>
<svg
   height="170.48566"
   viewBox="0 0 595.30941 119.33996"
   width="850.44202"
   version="1.1"
   id="svg74"
   sodipodi:docname="vsc.svg"
   inkscape:version="1.1.2 (0a00cf5339, 2022-02-04, custom)"
   xmlns:inkscape="http://www.inkscape.org/namespaces/inkscape"
   xmlns:sodipodi="http://sodipodi.sourceforge.net/DTD/sodipodi-0.dtd"
   xmlns="http://www.w3.org/2000/svg"
   xmlns:svg="http://www.w3.org/2000/svg">
  <defs
     id="defs78" />
  <sodipodi:namedview
     id="namedview76"
     pagecolor="#ffffff"
     bordercolor="#666666"
     borderopacity="1.0"
     inkscape:pageshadow="2"
     inkscape:pageopacity="0.0"
     inkscape:pagecheckerboard="0"
     showgrid="false"
     inkscape:zoom="0.88882856"
     inkscape:cx="379.71327"
     inkscape:cy="166.5113"
     inkscape:window-width="1920"
     inkscape:window-height="1017"
     inkscape:window-x="-8"
     inkscape:window-y="-8"
     inkscape:window-maximized="1"
     inkscape:current-layer="svg74" />
  <g
     transform="translate(-2.7870247,-3.0366365)"
     id="g72">
    <text
       fill="#ef00eb"
       font-family="TrasksHand"
       font-size="1.4px"
       stroke="#0105ff"
       stroke-width="1.75"
       x="363.32236"
       y="97.569992"
       id="text4"><tspan
         fill="#fafafa"
         fill-opacity="0.4"
         font-size="1.4px"
         stroke="none"
         stroke-width="1.75"
         x="363.32236"
         y="97.569992"
         id="tspan2">John Loreth 2022</tspan></text>
    <g
       stroke="#ffffff"
       stroke-linejoin="round"
       id="g42">
      <g
         fill="#000009"
         id="g16">
        <path
           d="m 281.33166,55.267913 q -2.74182,0 -5.17208,1.059342 -2.36794,0.997027 -4.17505,2.741824 -1.80711,1.682484 -2.86645,3.925795 -1.05934,2.243311 -1.05934,4.673565 0,3.053396 1.05934,5.608278 1.05934,2.554883 2.86645,4.424309 1.80711,1.869426 4.17505,2.928767 2.43026,1.059342 5.17208,1.059342 2.74183,0 5.10977,-1.059342 2.43025,-1.059341 4.23736,-2.928767 1.80711,-1.869426 2.86646,-4.424309 1.05934,-2.554882 1.05934,-5.608278 0,-2.430254 -1.05934,-4.673565 -1.05935,-2.243311 -2.86646,-3.925795 -1.80711,-1.744797 -4.23736,-2.741824 -2.36794,-1.059342 -5.10977,-1.059342 z m 0,-11.839698 q 5.04745,0 9.72102,1.807112 4.73588,1.744797 8.3501,4.985136 3.61422,3.178024 5.73291,7.664647 2.18099,4.424308 2.18099,9.721015 0,5.732907 -1.93174,10.468786 -1.93174,4.735879 -5.42133,8.225474 -3.42728,3.427282 -8.22548,5.359022 -4.73588,1.869426 -10.40647,1.869426 -5.67059,0 -10.46878,-1.869426 -4.73588,-1.93174 -8.22548,-5.359022 -3.42728,-3.489595 -5.35902,-8.225474 -1.93174,-4.735879 -1.93174,-10.468786 0,-5.296707 2.11868,-9.721015 2.181,-4.486623 5.79522,-7.664647 3.61423,-3.240339 8.28779,-4.985136 4.73588,-1.807112 9.78333,-1.807112 z"
           stroke-width="3.8"
           transform="scale(0.91966698,1.0873501)"
           id="path6" />
        <path
           d="M 182.22564,92.971542 H 169.87917 V 45.475424 h 12.34647 z"
           stroke-width="3.84275"
           transform="matrix(0.90910081,0,0,1.0756479,3.748649,0)"
           id="path8" />
        <path
           d="m 154.16132,71.88694 11.14929,-27.903695 h 12.97705 l -19.61788,45.937524 h -9.26062 L 130.0959,43.983245 h 12.97705 z"
           stroke-width="3.8"
           transform="scale(0.89916592,1.1121418)"
           id="path10" />
        <path
           d="m 204.21056,79.81134 h 2.68084 q 2.68085,0 5.05705,-0.731139 2.43714,-0.792068 4.20406,-2.315276 1.82784,-1.584135 2.86363,-4.021267 1.09671,-2.437132 1.09671,-5.788189 0,-3.107343 -0.97486,-5.483547 -0.97485,-2.376203 -2.74177,-4.021267 -1.70599,-1.645064 -4.14313,-2.498061 -2.3762,-0.852996 -5.23983,-0.852996 h -2.8027 z M 192.26861,43.985501 h 16.93807 q 4.81334,0 9.01739,1.76692 4.26498,1.766921 7.43325,4.874264 3.16827,3.107343 4.99612,7.311396 1.88878,4.204053 1.88878,9.017388 0,4.874264 -1.88878,9.078317 -1.82785,4.143124 -4.99612,7.250467 -3.16827,3.107344 -7.43325,4.874264 -4.26498,1.766921 -9.01739,1.766921 h -16.93807 z"
           stroke-width="3.8"
           transform="scale(0.89921257,1.1120841)"
           id="path12" />
        <path
           d="m 232.30513,57.549022 v 5.808526 h 14.32369 v 11.237591 h -14.32369 v 8.738921 l 15.10145,0.18058 V 95.659126 H 219.60176 V 46.790047 h 27.80482 v 10.758975 z"
           stroke-width="3.90395"
           transform="matrix(0.90628543,0,0,1.0454272,11.037484,0)"
           id="path14" />
      </g>
      <g
         fill="#000200"
         stroke-opacity="0.928083"
         id="g32">
        <path
           d="m 348.22985,44.98607 h 14.64384 l 5.439,12.774411 5.6095,-12.774411 h 14.64384 L 375.59208,69.413237 V 91.970978 H 361.2038 V 69.413237 Z"
           stroke-width="3.99999"
           transform="scale(0.91966699,1.0873501)"
           id="path18" />
        <path
           d="M 488.95287,81.659401 H 473.50084 V 49.762396 h -7.50551 v -9.820082 h 28.7704 v 9.820082 h -5.81286 z"
           stroke-width="3.99999"
           transform="scale(0.81655604,1.2246557)"
           id="path20" />
        <g
           stroke-width="4"
           transform="matrix(0.91966699,0,0,1.0873501,60,0)"
           id="g26">
          <path
             d="m 342.04818,60.947591 c -6.73377,-8.430617 -12.53219,-5.664177 -4.70744,-0.178375 3.23967,2.834844 3.27616,2.742836 7.08279,5.788936 5.97828,5.233499 6.80906,8.695185 6.95707,12.1136 -0.2224,12.692231 -14.23791,16.826244 -25.34689,11.923034 -2.76933,-0.948116 -8.35587,-7.055917 -8.81656,-9.223325 3.0595,-2.389654 7.02778,-4.96074 10.14894,-6.426117 3.51895,3.050364 3.71333,3.012063 6.17494,5.300589 2.36536,1.662459 6.55679,-2.26371 4.35738,-3.66681 -7.02764,-5.674239 -14.93966,-10.593966 -17.20372,-16.430173 -3.01665,-12.417575 11.49695,-20.381426 21.56392,-15.583501 2.85397,0.814326 9.94008,7.670522 8.57849,8.756405 -2.22176,2.785996 -5.87769,5.273225 -8.78892,7.625737 z"
             id="path22" />
          <path
             d="m 276.80718,60.947591 c -6.73377,-8.430617 -12.53219,-5.664177 -4.70744,-0.178375 3.23967,2.834844 3.27616,2.742836 7.08279,5.788936 5.97828,5.233499 6.80906,8.695185 6.95707,12.1136 -0.2224,12.692231 -14.23791,16.826244 -25.34689,11.923034 -2.76933,-0.948116 -8.35587,-7.055917 -8.81656,-9.223325 3.0595,-2.389654 7.02778,-4.96074 10.14894,-6.426117 3.51895,3.050364 3.71333,3.012063 6.17494,5.300589 2.36536,1.662459 6.55679,-2.26371 4.35738,-3.66681 -7.02764,-5.674239 -14.93966,-10.593966 -17.20372,-16.430173 -3.01665,-12.417575 11.49695,-20.381426 21.56392,-15.583501 2.85397,0.814326 9.94008,7.670522 8.57849,8.756405 -2.22176,2.785996 -5.87769,5.273225 -8.78892,7.625737 z"
             id="path24" />
        </g>
        <path
           d="m 232.30513,57.549022 v 5.808526 h 14.32369 v 11.237591 h -14.32369 v 8.738921 l 15.10145,0.18058 V 95.659126 H 219.60176 V 46.790047 h 27.80482 v 10.758975 z"
           stroke-width="3.86269"
           transform="matrix(1.0257571,0,0,1.0454272,180.37946,0)"
           id="path28" />
        <path
           d="m 474.50894,44.98607 h 12.02664 l 9.53408,25.112623 8.93434,-25.112623 h 12.15127 l 8.26437,46.984908 h -13.26849 l -2.37237,-22.806759 c -3.1023,8.773552 -5.21932,14.100734 -8.11868,22.806759 h -10.34506 l -8.58062,-21.799913 c -1.2427,8.773346 -2.14806,12.833831 -3.15159,21.799913 h -13.05011 z"
           stroke-width="3.99999"
           transform="scale(0.91966699,1.0873501)"
           id="path30" />
      </g>
      <g
         id="g40">
        <path
           d="m 549.77756,64.383032 c -9.49376,-9.337089 -16.59469,-8.142125 -21.84322,-1.696604 -3.68405,4.372076 -4.16588,11.041779 -1.57519,16.061544 2.50308,4.695731 8.09074,7.121173 13.2718,6.433901 3.67048,-0.3949 7.55272,-4.598122 9.91246,-7.423561 l 8.44225,8.719718 c -4.91752,8.214124 -17.76948,11.640484 -22.40861,11.107709 -8.84703,-0.623639 -17.23781,-6.014165 -21.45879,-13.811234 -4.48666,-9.074596 -3.37331,-20.834766 3.30111,-28.57253 6.39766,-7.679206 17.37585,-11.209742 27.02285,-8.455176 4.31804,1.30664 14.19977,8.451495 14.21463,10.377855 z"
           stroke-width="3.99999"
           transform="scale(0.96362882,1.037744)"
           id="path34" />
        <path
           d="m 608.5126,55.267913 q -2.74182,0 -5.17208,1.059342 -2.36794,0.997027 -4.17505,2.741824 -1.80711,1.682484 -2.86645,3.925795 -1.05934,2.243311 -1.05934,4.673565 0,3.053396 1.05934,5.608278 1.05934,2.554883 2.86645,4.424309 1.80711,1.869426 4.17505,2.928767 2.43026,1.059342 5.17208,1.059342 2.74183,0 5.10977,-1.059342 2.43025,-1.059341 4.23736,-2.928767 1.80711,-1.869426 2.86645,-4.424309 1.05935,-2.554882 1.05935,-5.608278 0,-2.430254 -1.05935,-4.673565 -1.05934,-2.243311 -2.86645,-3.925795 -1.80711,-1.744797 -4.23736,-2.741824 -2.36794,-1.059342 -5.10977,-1.059342 z m 0,-11.839698 q 5.04745,0 9.72102,1.807112 4.73588,1.744797 8.3501,4.985136 3.61422,3.178024 5.73291,7.664647 2.18099,4.424308 2.18099,9.721015 0,5.732907 -1.93174,10.468786 -1.93174,4.735879 -5.42133,8.225474 -3.42728,3.427282 -8.22548,5.359022 -4.73588,1.869426 -10.40647,1.869426 -5.67059,0 -10.46878,-1.869426 -4.73588,-1.93174 -8.22548,-5.359022 -3.42728,-3.489595 -5.35902,-8.225474 -1.93174,-4.735879 -1.93174,-10.468786 0,-5.296707 2.11868,-9.721015 2.181,-4.486623 5.79522,-7.664647 3.61423,-3.240339 8.28779,-4.985136 4.73588,-1.807112 9.78333,-1.807112 z"
           stroke-width="3.99999"
           transform="scale(0.91966699,1.0873501)"
           id="path36" />
        <path
           d="m 596.59644,95.04319 a 6,6 0 0 1 -6,6 6,6 0 0 1 -6,-6 6,6 0 0 1 6,-6 6,6 0 0 1 6,6 z"
           stroke-linecap="round"
           stroke-width="3"
           id="path38" />
      </g>
    </g>
    <g
       id="g70">
      <g
         stroke-linejoin="round"
         id="g50">
        <path
           d="M 60.823358,90.992684 91.21488,29.153247 72.28137,29.722607 112.6302,5.0365807 135.73329,29.792305 119.10543,28.798754 75.092132,120.3766 H 42.438264 L 5.5699379,45.626794 39.126055,45.537013 Z"
           fill="#ffffff"
           stroke="#ffffff"
           stroke-width="4"
           id="path44" />
        <path
           d="M 12.162726,48.278347 36.354525,48.158896 58.741191,93.881156 46.65824,117.05093 Z"
           fill="#009bfd"
           stroke="#010000"
           stroke-linecap="round"
           stroke-width="2"
           id="path46" />
        <path
           d="M 85.815374,26.175823 111.85445,9.4644434 127.01676,26.058872 117.14892,25.636327 72.157732,116.07904 H 52.701382 L 96.82807,25.946743 Z"
           fill="#009bfd"
           stroke="#010000"
           stroke-linecap="round"
           stroke-width="2.00002"
           id="path48" />
      </g>
      <g
         fill="#ffffff"
         id="g68">
        <path
           d="m 6.3588296,39.471736 q -3.7693195,0 -3.7693195,-3.081537 0,-3.081537 3.7693195,-3.081537 h 3.9378934 q 0.546181,0 0.937273,0.391092 0.391092,0.38435 0.391092,0.937273 0,0.552923 -0.391092,0.944016 -0.391092,0.391092 -0.937273,0.391092 H 6.1565406 q -0.7484696,0 -0.7484696,0.418064 0,0.418064 0.7619555,0.418064 h 1.8206016 q 3.7693199,0 3.7693199,3.081537 0,3.081536 -3.7693199,3.081536 H 3.917875 q -0.5461805,0 -0.9372727,-0.384349 -0.3910922,-0.391092 -0.3910922,-0.944015 0,-0.552924 0.3910922,-0.944016 0.3910922,-0.391092 0.9372727,-0.391092 h 4.2750421 q 0.7484695,0 0.7484695,-0.418064 0,-0.418064 -0.7619554,-0.418064 z"
           transform="scale(1.0762749,0.92913067)"
           id="path52" />
        <path
           d="m 15.19811,41.730672 c -0.924205,-1.373012 -1.856226,-2.741908 -2.775514,-4.117487 -0.376305,-0.685523 0.07157,-1.628671 0.835332,-1.783751 0.448267,-0.16573 0.798807,0.194654 1.010001,0.546753 0.325894,0.514835 0.672922,1.014196 1.064172,1.481795 0.372793,0.470742 0.745585,0.941485 1.118378,1.412227 0.80647,-1.024115 1.599069,-2.059808 2.414322,-3.076593 0.510537,-0.560242 1.510595,-0.47769 1.924016,0.159017 0.348947,0.485926 0.273991,1.191653 -0.145126,1.611781 -0.982389,1.253311 -1.964779,2.506622 -2.947168,3.759933 -0.008,1.007435 0.01637,2.01632 -0.0129,3.022804 -0.08909,0.777916 -1.001794,1.293079 -1.715436,0.971495 -0.527853,-0.212829 -0.833253,-0.790092 -0.77008,-1.346517 0,-0.880486 0,-1.760971 0,-2.641457 z"
           fill="#ffffff"
           transform="scale(1.1473821,0.87154925)"
           id="path54" />
        <path
           d="m 6.3588296,39.471736 q -3.7693195,0 -3.7693195,-3.081537 0,-3.081537 3.7693195,-3.081537 h 3.9378934 q 0.546181,0 0.937273,0.391092 0.391092,0.38435 0.391092,0.937273 0,0.552923 -0.391092,0.944016 -0.391092,0.391092 -0.937273,0.391092 H 6.1565406 q -0.7484696,0 -0.7484696,0.418064 0,0.418064 0.7619555,0.418064 h 1.8206016 q 3.7693199,0 3.7693199,3.081537 0,3.081536 -3.7693199,3.081536 H 3.917875 q -0.5461805,0 -0.9372727,-0.384349 -0.3910922,-0.391092 -0.3910922,-0.944015 0,-0.552924 0.3910922,-0.944016 0.3910922,-0.391092 0.9372727,-0.391092 h 4.2750421 q 0.7484695,0 0.7484695,-0.418064 0,-0.418064 -0.7619554,-0.418064 z"
           transform="scale(1.0762749,0.92913067)"
           id="path56" />
        <path
           d="m 27.206092,39.471736 q -3.769319,0 -3.769319,-3.081537 0,-3.081537 3.769319,-3.081537 h 3.937894 q 0.54618,0 0.937272,0.391092 0.391093,0.38435 0.391093,0.937273 0,0.552923 -0.391093,0.944016 -0.391092,0.391092 -0.937272,0.391092 h -4.140183 q -0.74847,0 -0.74847,0.418064 0,0.418064 0.761956,0.418064 h 1.820601 q 3.76932,0 3.76932,3.081537 0,3.081536 -3.76932,3.081536 h -4.072753 q -0.54618,0 -0.937272,-0.384349 -0.391092,-0.391092 -0.391092,-0.944015 0,-0.552924 0.391092,-0.944016 0.391092,-0.391092 0.937272,-0.391092 h 4.275043 q 0.748469,0 0.748469,-0.418064 0,-0.418064 -0.761955,-0.418064 z"
           transform="scale(1.0762749,0.92913066)"
           id="path58" />
        <path
           d="m 39.184803,35.972135 v 5.664094 q 0,0.552923 -0.391092,0.944015 -0.391092,0.391092 -0.944016,0.391092 -0.54618,0 -0.937272,-0.391092 -0.391092,-0.391092 -0.391092,-0.944015 v -5.664094 h -2.164493 q -0.552924,0 -0.944016,-0.391092 -0.391092,-0.391093 -0.391092,-0.944016 0,-0.54618 0.391092,-0.937273 0.391092,-0.391092 0.944016,-0.391092 h 6.999201 q 0.552924,0 0.937273,0.391092 0.391092,0.391093 0.391092,0.937273 0,0.552923 -0.391092,0.944016 -0.384349,0.391092 -0.937273,0.391092 z"
           transform="scale(1.0762749,0.92913066)"
           id="path60" />
        <g
           fill="#ffffff"
           id="g66">
          <path
             d="m 47.536321,39.495386 h 4.240263 c 0.361184,0 0.669512,0.127736 0.924984,0.383208 0.255472,0.255472 0.383208,0.561598 0.383208,0.918377 0,0.361185 -0.127736,0.669513 -0.383208,0.924985 -0.255472,0.255472 -0.5638,0.383208 -0.924984,0.383208 h -5.926507 c -0.361185,0 -0.669513,-0.127736 -0.924985,-0.383208 -0.255472,-0.255472 -0.383208,-0.5638 -0.383208,-0.924985 v -6.858098 c 0,-0.361185 0.127736,-0.667311 0.383208,-0.918378 0.255472,-0.255471 0.5638,-0.383207 0.924985,-0.383207 h 5.926507 c 0.361184,0 0.669512,0.127736 0.924984,0.383207 0.255472,0.255472 0.383208,0.561598 0.383208,0.918378 0,0.361184 -0.127736,0.669512 -0.383208,0.924984 -0.255472,0.255472 -0.5638,0.383208 -0.924984,0.383208 h -4.240263 v 0.819272 h 3.7117 c 0.361185,0 0.669513,0.127736 0.924985,0.383208 0.255471,0.255471 0.383207,0.561597 0.383207,0.918377 0,0.361185 -0.127736,0.669513 -0.383207,0.924984 -0.255472,0.255472 -0.5638,0.383208 -0.924985,0.383208 h -3.7117 z"
             transform="scale(1.0545804,0.9482444)"
             id="path62" />
          <path
             d="m 62.399572,40.000933 q -0.629253,0 -1.065877,-0.622832 l -2.125334,-2.908689 v 3.178369 q 0,0.526518 -0.372415,0.898932 -0.372415,0.372415 -0.892511,0.372415 -0.526518,0 -0.898933,-0.372415 -0.372415,-0.372414 -0.372415,-0.898932 v -6.664943 q 0,-0.526518 0.372415,-0.892512 0.372415,-0.372415 0.898933,-0.372415 0.47515,0 0.860406,0.211891 0.385257,0.211892 0.648516,0.571465 l 2.947215,4.032355 2.940794,-4.032355 q 0.263258,-0.359573 0.648515,-0.571465 0.385257,-0.211891 0.860407,-0.211891 0.526518,0 0.898933,0.372415 0.372415,0.365994 0.372415,0.892512 v 6.664943 q 0,0.526518 -0.372415,0.898932 -0.372415,0.372415 -0.898933,0.372415 -0.520096,0 -0.892511,-0.372415 -0.372415,-0.372414 -0.372415,-0.898932 v -3.178369 l -2.125334,2.908689 q -0.436624,0.622832 -1.059456,0.622832 z"
             transform="scale(1.0248746,0.97572911)"
             id="path64" />
        </g>
      </g>
    </g>
  </g>
</svg>
