<svg id="Layer_1" data-name="Layer 1" xmlns="http://www.w3.org/2000/svg" viewBox="0 0 3839.08772 703.59998"><path d="M3349.30005,232.9l-131.69995-.1-12.1001,1a99.31979,99.31979,0,0,0-67.2,34.7h0L3152.2,189.6h-146l-88,497.1h146.1001l44.30005-249.8a93.14022,93.14022,0,0,1,91.8999-77l126.3999.1Z" transform="translate(0 0)" style="fill:#17b3e8"/><path d="M2271.1001,38.3l-79.80005,454.2c-6.3999,36.7-41.5,66.5-78.1001,66.5-36.7,0-61.2-29.7-54.80005-66.5l79.7-454.2H1992.29993l-80.5,454.2c-6.4,36.7-41.5,66.5-78.1,66.5S1772.5,529.3,1778.8999,492.5l80.4-454.2h-146l-76,429.1-4.5,25c-20.6,116.5,58.7,211.2,175.30005,211.2,53.5,0,106.1-20.1,149.1-53,31.5,32.9,76.9,53,130.3999,53,116.5,0,229.19995-94.7,249.8-211.3l3.7-21.3,75.89991-432.7ZM1767.1,492.3v0Zm436.20007-.1v0Z" transform="translate(0 0)" style="fill:#17b3e8"/><path d="M2734.1001,506.3l14.8-83.5c6.10009-34.5-10.39991-69.7-41.8-85.1a81.82841,81.82841,0,0,0-36.6001-8.5c-61.6001,0-117.2,56.9-128.1001,118.5-10.8999,61.6,25.8999,111.5,87.5,111.5,20.5,0,40.6001-5.5,58.8999-15.2l-23.69995,133.6c-31.2,27.6-90.10009,26.9-103.60009,25-125.7-17.6-191.80005-114.9-163.7-255.1,28.5-141.8,154.80005-257.9,297.2-257.9,58.10009,0,108.3,19.2,145.69995,51.5,47.10009,40.8,67.80005,104.3,56.8999,165.7l-23.5,132.8h0l-27,152.3h-146l38.6001-222.5" transform="translate(0 0)" style="fill:#17b3e8"/><path d="M3637.1001,190.7c-162.7,0-279.5,111.1-302.3999,255.1-23,144.1,74.8999,255.1,219,257.5,86.19995,1.5,169.3999-36.3,227.3-97.8L3691,529c-30.3,37.1-74.8,61.3-123.3,61.3-65.1001,0-104.8999-64.9-87.8999-144,24.3999-112.5,73.6001-146.1,138.7-146.1,51.2,0,76.5,34.4,77.2,91.8l-158.7-.2L3518.6001,496l172.8.2v.1h137.10009c2.2-12.6,4.7-28.6,6.80005-41.8C3858.1001,310.6,3776.2,190.7,3637.1001,190.7Z" transform="translate(0 0)" style="fill:#17b3e8"/><path d="M1011,79.8c0,43.9,37.1,79.7,82.6,79.7,47.4,0,84.5-35,84.5-79.7C1178,35,1140.80005,0,1093.6,0,1048.1,0,1011,35.7,1011,79.8Z" transform="translate(0 0)" style="fill:#a19fa3"/><path d="M1024.80005,239.3V695.5h141V239.3Z" transform="translate(0 0)" style="fill:#a19fa3"/><path d="M1297.7,79.8c0,43.9,37.1,79.7,82.6,79.7,47.4,0,84.6-35,84.6-79.7,0-44.8-37.19995-79.8-84.6-79.8C1334.7,0,1297.7,35.7,1297.7,79.8Z" transform="translate(0 0)" style="fill:#a19fa3"/><path d="M1311.30005,239.3V695.5h141V239.3Z" transform="translate(0 0)" style="fill:#a19fa3"/><path d="M800.3,38.3l-124,484.8S581.8,159.2,566.4,107.6c-15.4-51.7-47.1-74.4-91.9-74.4s-76.6,22.6-91.9,74.4c-15.4,51.6-109.9,415.5-109.9,415.5L149,38.3H0S143,555.5,162.4,615.4c15.2,46.8,51,85,104.2,85,60.8,0,89.1-44.3,102.2-85,13.1-40.4,105.7-382,105.7-382S567,575,580.1,615.5c13.1,40.7,41.6,85,102.3,85,53.1,0,88.9-38.2,104.2-85C806.1,555.6,949.4,38.4,949.4,38.4H800.3Z" transform="translate(0 0)" style="fill:#a19fa3"/></svg>