<?xml version="1.0" encoding="UTF-8" standalone="no"?>
<svg
   id="Layer_1"
   data-name="Layer 1"
   viewBox="0 0 3839.00006 811.19999"
   version="1.1"
   sodipodi:docname="windows_installers.svg"
   inkscape:version="1.1.2 (0a00cf5339, 2022-02-04, custom)"
   xmlns:inkscape="http://www.inkscape.org/namespaces/inkscape"
   xmlns:sodipodi="http://sodipodi.sourceforge.net/DTD/sodipodi-0.dtd"
   xmlns="http://www.w3.org/2000/svg"
   xmlns:svg="http://www.w3.org/2000/svg">
  <defs
     id="defs27" />
  <sodipodi:namedview
     id="namedview25"
     pagecolor="#ffffff"
     bordercolor="#666666"
     borderopacity="1.0"
     inkscape:pageshadow="2"
     inkscape:pageopacity="0.0"
     inkscape:pagecheckerboard="0"
     showgrid="false"
     inkscape:zoom="0.78759799"
     inkscape:cx="3224.3607"
     inkscape:cy="581.51494"
     inkscape:window-width="1920"
     inkscape:window-height="1017"
     inkscape:window-x="-8"
     inkscape:window-y="-8"
     inkscape:window-maximized="1"
     inkscape:current-layer="Layer_1" />
  <path
     d="M1590.22,647.121h-100.1l-97.6-371.6-98.7,371.6H1191.52l-134.3-483h90.8l96.8,384.2,105.69995-384.2h91.7l99.3,386.5,91.9-386.5h87.69995Z"
     transform="translate(-0.01999 -0.021)"
     style="fill:#f9f9f9"
     id="path2" />
  <path
     d="M1849.52005,199.521c0,13.1-4.80005,23.9-14.4,32.6-9.4,8.7-20.80005,13.1-34.4,13.1-13.5,0-25-4.4-34.4-13.1s-14.1-19.6-14.1-32.6q0-19.95,14.1-33.3a48.95258,48.95258,0,0,1,34.4-13.4c14,0,25.5,4.6,34.69995,13.7a44.2465,44.2465,0,0,1,14.1001,33Zm-90.5,447.6v-348.1H1840.22v348.1Z"
     transform="translate(-0.01999 -0.021)"
     style="fill:#f9f9f9"
     id="path4" />
  <path
     d="M2152.42,647.121v-193.8c0-50.8-15.8-94.6-66.9-94.6-50.9,0-83.19995,45.8-83.19995,92.2v196.2h-79.4v-348.1h79.4v49.2h1.4c26.30005-40.8,64.4-55.1,114.1-55.1,37.3,0,66.19995,9.2,86.6,33,20.6,23.8,29.7,60,29.7,108.6v212.4Z"
     transform="translate(-0.01999 -0.021)"
     style="fill:#f9f9f9"
     id="path6" />
  <path
     d="M2551.02005,647.121v-44.8h-1.3999c-25.2,42.4-76.6001,52.2-112.5,52.2-106.6001,0-145.7-82.8-145.7-170.9q0-87.6,43.60009-140.2c29.30005-35.3,68.5-50.6,117.5-50.6,76.30005,0,97,42.5,97,42.5h1.39991V133.821h82.3v513.3Zm.69995-198.3c0-42-27-89.8-84.1001-89.8-65.2,0-90.60009,56.8-90.60009,122.2,0,57.1,23.8999,109,86.10009,109.8,60.89991,0,88.1001-58.1,88.6001-106.1Z"
     transform="translate(-0.01999 -0.021)"
     style="fill:#f9f9f9"
     id="path8" />
  <path
     d="M3048.8201,471.621c0,120.6-72.1001,185.9-180.3,185.9-117.7,0-178-70.4-178-178.3,0-123.4,72.3-187.6,186.6001-187.6C2981.8201,291.521,3048.8201,358.521,3048.8201,471.621Zm-84.6001,2.7c0-53.6-19-113.3-91.6001-113.3-69.60009,0-96.7,51.8-96.7,115.3,0,69,32.5,112.9,96.2,112.9,68.3.1,91.6001-52.3,92.1001-114.9Z"
     transform="translate(-0.01999 -0.021)"
     style="fill:#f9f9f9"
     id="path10" />
  <path
     d="M3484.3201,647.121H3394.72l-68.5-251.9-73.3999,251.9h-86.8999l-101.3-347h85l66.1001,269.6,77.3-269.6h79.7l68.8999,268.9,64.5-268.9h77.8999Z"
     transform="translate(-0.01999 -0.021)"
     style="fill:#f9f9f9"
     id="path12" />
  <path
     d="M3839.02005,550.321c0,77.5-70.30005,107.7-140.7,107.7-45.8999,0-91.6001-17.7-91.6001-17.7v-82.4s39.7,34.6,95.2,35c38,0,55.2-12,55.2-34.8.89991-18.3-10.2-28.4-23.5-36q-13.79993-8.25-43-20.3-34.34985-14.85-51.2-28.5a88.46808,88.46808,0,0,1-24.7-32.3c-5.3-12.4-9.19995-26-9.19995-42.5,0-62.6,52.19995-106.8,135.6001-106.8,55.1001,0,79,13.5,79,13.5v78.3s-39.2-27.1-79.8999-27.3c-29.2,0-51.2,10.6-51.6001,34.7-.2,31,37.69995,46.1,60.3999,55.3,33,13.3,57.1001,27.5,70.6001,43.7,13.49975,16.2,19.3999,32.59992,19.3999,60.4Z"
     transform="translate(-0.01999 -0.021)"
     style="fill:#f9f9f9"
     id="path14" />
  <rect
     width="384.5"
     height="384.50001"
     style="fill:#f9f9f9"
     id="rect16" />
  <rect
     x="426.70001"
     width="384.5"
     height="384.50001"
     style="fill:#f9f9f9"
     id="rect18" />
  <rect
     y="426.69999"
     width="384.5"
     height="384.5"
     style="fill:#f9f9f9"
     id="rect20" />
  <rect
     x="426.70001"
     y="426.69999"
     width="384.5"
     height="384.5"
     style="fill:#f9f9f9"
     id="rect22" />
  <g
     aria-label="INSTALLERS"
     transform="matrix(1.0860766,0,0,0.92074536,377.53201,23.839722)"
     id="text2998"
     style="font-size:31.3706px;line-height:1.25;fill:#f9f9f9;stroke-width:0.784266">
    <path
       d="m 1725.6012,722.41453 q 4.141,0 4.141,4.14092 V 850.0304 q 0,4.14093 -4.141,4.14093 h -20.3281 q -4.3292,0 -4.3292,-4.14093 V 726.55545 q 0,-4.14092 4.3292,-4.14092 z"
       style="font-weight:600;font-size:188.224px;font-family:Conthrax;-inkscape-font-specification:'Conthrax, Semi-Bold';fill:#f9f9f9"
       id="path12416" />
    <path
       d="m 1788.2797,722.41453 q 4.5174,0 7.529,0.37644 3.0115,0.37645 5.2702,1.69402 2.2587,1.12934 4.3292,3.38803 2.0705,2.07047 4.7056,5.64672 l 70.0193,91.85331 q 0.7529,1.31757 2.4469,1.31757 h 1.694 q 1.5058,0 1.5058,-1.88224 v -98.25293 q 0,-4.14092 4.141,-4.14092 h 19.7635 q 4.1409,0 4.1409,4.14092 v 108.04058 q 0,11.48166 -4.1409,15.62259 -4.1409,3.95271 -12.7992,3.95271 h -16.1873 q -4.3292,0 -7.3407,-0.37645 -2.8234,-0.37645 -5.0821,-1.50579 -2.2587,-1.12935 -4.5174,-3.19981 -2.0704,-2.25869 -4.8938,-6.02317 l -70.2075,-91.85331 q -1.1294,-1.31757 -2.447,-1.31757 h -1.694 q -1.5058,0 -1.5058,1.88224 v 98.25293 q 0,4.14093 -4.1409,4.14093 h -19.7635 q -4.3292,0 -4.3292,-4.14093 V 741.98982 q 0,-11.48166 4.141,-15.43437 4.1409,-4.14092 12.7992,-4.14092 z"
       style="font-weight:600;font-size:188.224px;font-family:Conthrax;-inkscape-font-specification:'Conthrax, Semi-Bold';fill:#f9f9f9"
       id="path12418" />
    <path
       d="m 2069.6747,722.41453 q 4.1409,0 4.1409,4.14092 v 17.88128 q 0,4.14093 -4.1409,4.14093 h -94.3002 q -5.4585,0 -7.7172,2.82336 -2.2587,2.82336 -2.2587,7.71719 v 6.39961 q 0,10.54055 9.7877,10.54055 h 70.584 q 16.3755,0 24.6573,8.47008 8.2819,8.28185 8.2819,23.90444 v 15.05792 q 0,13.74036 -8.0937,22.21044 -8.0936,8.47008 -25.222,8.47008 h -104.2761 q -4.3291,0 -4.3291,-4.14093 v -17.88128 q 0,-4.14093 4.3291,-4.14093 h 98.8176 q 5.4585,0 7.7172,-2.82336 2.2587,-2.82336 2.2587,-7.71718 v -7.71719 q 0,-10.54054 -9.7877,-10.54054 h -70.584 q -16.3754,0 -24.6573,-8.28186 -8.2819,-8.47008 -8.2819,-24.09267 v -13.74035 q 0,-13.74035 8.0937,-22.21043 8.0936,-8.47008 25.222,-8.47008 z"
       style="font-weight:600;font-size:188.224px;font-family:Conthrax;-inkscape-font-specification:'Conthrax, Semi-Bold';fill:#f9f9f9"
       id="path12420" />
    <path
       d="m 2243.4055,722.41453 q 4.3292,0 4.3292,4.14092 v 18.44596 q 0,4.32915 -4.3292,4.32915 h -59.1023 V 850.0304 q 0,4.14093 -4.141,4.14093 h -20.5164 q -4.1409,0 -4.1409,-4.14093 V 749.33056 h -59.1023 q -4.3292,0 -4.3292,-4.32915 v -18.44596 q 0,-4.14092 4.3292,-4.14092 z"
       style="font-weight:600;font-size:188.224px;font-family:Conthrax;-inkscape-font-specification:'Conthrax, Semi-Bold';fill:#f9f9f9"
       id="path12422" />
    <path
       d="m 2323.589,722.41453 q 7.1525,0 12.0463,3.01158 4.8938,2.82336 9.5994,11.29344 l 62.3022,113.12262 q 0.9411,1.88224 0.3764,3.19981 -0.3764,1.12935 -2.6351,1.12935 h -23.9045 q -3.1998,0 -4.3291,-2.44692 l -13.3639,-24.28089 h -88.4653 l -12.9875,24.28089 q -1.3175,2.44692 -4.3291,2.44692 h -24.4691 q -2.4469,0 -3.0116,-1.12935 -0.3765,-1.31757 0.5647,-3.19981 l 61.7374,-113.12262 q 4.7056,-8.47008 9.223,-11.29344 4.5174,-3.01158 10.5406,-3.01158 z m -36.5155,83.195 h 64.7491 L 2321.895,750.4599 q -0.7529,-1.31757 -2.0705,-1.31757 h -1.1294 q -1.3175,0 -2.0704,1.31757 z"
       style="font-weight:600;font-size:188.224px;font-family:Conthrax;-inkscape-font-specification:'Conthrax, Semi-Bold';fill:#f9f9f9"
       id="path12424" />
    <path
       d="m 2440.2877,722.41453 q 4.141,0 4.141,4.14092 v 75.10138 q 0,7.52896 1.1293,12.61101 1.3176,4.89382 4.1409,7.90541 2.8234,2.82336 7.529,4.14092 4.8938,1.12935 12.2345,1.12935 h 76.2308 q 4.1409,0 4.1409,4.14093 v 18.44595 q 0,4.14093 -4.1409,4.14093 h -77.3601 q -14.305,0 -24.2809,-2.63514 -9.9759,-2.63514 -16.3755,-8.47008 -6.2114,-6.02317 -9.223,-15.43437 -2.8233,-9.59942 -2.8233,-23.15155 v -77.92474 q 0,-4.14092 4.3291,-4.14092 z"
       style="font-weight:600;font-size:188.224px;font-family:Conthrax;-inkscape-font-specification:'Conthrax, Semi-Bold';fill:#f9f9f9"
       id="path12426" />
    <path
       d="m 2588.4201,722.41453 q 4.1409,0 4.1409,4.14092 v 75.10138 q 0,7.52896 1.1294,12.61101 1.3176,4.89382 4.1409,7.90541 2.8234,2.82336 7.529,4.14092 4.8938,1.12935 12.2345,1.12935 h 76.2307 q 4.141,0 4.141,4.14093 v 18.44595 q 0,4.14093 -4.141,4.14093 h -77.36 q -14.305,0 -24.2809,-2.63514 -9.9759,-2.63514 -16.3755,-8.47008 -6.2114,-6.02317 -9.223,-15.43437 -2.8233,-9.59942 -2.8233,-23.15155 v -77.92474 q 0,-4.14092 4.3291,-4.14092 z"
       style="font-weight:600;font-size:188.224px;font-family:Conthrax;-inkscape-font-specification:'Conthrax, Semi-Bold';fill:#f9f9f9"
       id="path12428" />
    <path
       d="m 2848.9223,722.41453 q 4.3291,0 4.3291,4.14092 v 17.88128 q 0,4.14093 -4.3291,4.14093 h -82.2539 q -7.3407,0 -12.2346,1.31757 -4.7056,1.12934 -7.7172,4.14093 -2.8233,2.82336 -3.9527,7.90541 -1.1293,4.89382 -1.1293,12.23456 v 1.88224 h 106.3466 q 4.1409,0 4.1409,4.14092 v 14.8697 q 0,4.14093 -4.1409,4.14093 h -106.3466 v 3.19981 q 0,7.34073 1.1293,12.42278 1.1294,4.89382 3.9527,7.90541 3.0116,2.82336 7.7172,4.14093 4.8939,1.12934 12.2346,1.12934 h 82.2539 q 4.3291,0 4.3291,4.14093 v 17.88128 q 0,4.14093 -4.3291,4.14093 h -82.8186 q -14.305,0 -24.2809,-2.63514 -9.9758,-2.63514 -16.3755,-8.47008 -6.2114,-6.02317 -9.2229,-15.43437 -2.8234,-9.59942 -2.8234,-23.15155 v -32.37453 q 0,-13.55213 2.8234,-22.96333 3.0115,-9.4112 9.2229,-15.24614 6.3997,-6.02317 16.3755,-8.6583 9.9759,-2.82336 24.2809,-2.82336 z"
       style="font-weight:600;font-size:188.224px;font-family:Conthrax;-inkscape-font-specification:'Conthrax, Semi-Bold';fill:#f9f9f9"
       id="path12430" />
    <path
       d="m 2981.6203,722.41453 q 21.6457,0 31.0569,9.78764 9.4112,9.78765 9.4112,28.9865 v 10.72877 q 0,16.18726 -6.5878,25.59846 -6.5878,9.4112 -21.4575,12.04634 l 32.1863,39.90349 q 0.9411,0.94112 0.5646,2.82336 -0.3764,1.88224 -3.0115,1.88224 h -24.2809 q -2.447,0 -3.3881,-0.56468 -0.9411,-0.56467 -1.8822,-1.88224 l -29.7394,-39.15059 h -60.7964 v 37.45658 q 0,4.14093 -4.1409,4.14093 h -20.3282 q -4.3291,0 -4.3291,-4.14093 V 728.06125 q 0,-5.64672 5.6467,-5.64672 z m -77.9248,67.19596 h 72.0898 q 9.5995,0 13.5522,-4.14092 3.9527,-4.14093 3.9527,-12.61101 v -7.90541 q 0,-8.47008 -3.9527,-12.61101 -3.9527,-4.14093 -13.5522,-4.14093 h -69.6428 q -2.447,0 -2.447,2.25869 z"
       style="font-weight:600;font-size:188.224px;font-family:Conthrax;-inkscape-font-specification:'Conthrax, Semi-Bold';fill:#f9f9f9"
       id="path12432" />
    <path
       d="m 3173.9854,722.41453 q 4.1409,0 4.1409,4.14092 v 17.88128 q 0,4.14093 -4.1409,4.14093 h -94.3002 q -5.4585,0 -7.7172,2.82336 -2.2587,2.82336 -2.2587,7.71719 v 6.39961 q 0,10.54055 9.7877,10.54055 h 70.584 q 16.3755,0 24.6573,8.47008 8.2819,8.28185 8.2819,23.90444 v 15.05792 q 0,13.74036 -8.0937,22.21044 -8.0936,8.47008 -25.222,8.47008 h -104.2761 q -4.3291,0 -4.3291,-4.14093 v -17.88128 q 0,-4.14093 4.3291,-4.14093 h 98.8176 q 5.4585,0 7.7172,-2.82336 2.2587,-2.82336 2.2587,-7.71718 v -7.71719 q 0,-10.54054 -9.7877,-10.54054 h -70.584 q -16.3754,0 -24.6573,-8.28186 -8.2819,-8.47008 -8.2819,-24.09267 v -13.74035 q 0,-13.74035 8.0937,-22.21043 8.0936,-8.47008 25.222,-8.47008 z"
       style="font-weight:600;font-size:188.224px;font-family:Conthrax;-inkscape-font-specification:'Conthrax, Semi-Bold';fill:#f9f9f9"
       id="path12434" />
  </g>
</svg>
