<?xml version="1.0" encoding="UTF-8" standalone="no"?>
<svg
   id="Layer_1"
   data-name="Layer 1"
   viewBox="0 0 2659.43002 2158.97775"
   version="1.1"
   sodipodi:docname="wonderswancolor.svg"
   inkscape:version="1.1.2 (0a00cf5339, 2022-02-04, custom)"
   xmlns:inkscape="http://www.inkscape.org/namespaces/inkscape"
   xmlns:sodipodi="http://sodipodi.sourceforge.net/DTD/sodipodi-0.dtd"
   xmlns="http://www.w3.org/2000/svg"
   xmlns:svg="http://www.w3.org/2000/svg">
  <defs
     id="defs43" />
  <sodipodi:namedview
     id="namedview41"
     pagecolor="#ffffff"
     bordercolor="#666666"
     borderopacity="1.0"
     inkscape:pageshadow="2"
     inkscape:pageopacity="0.0"
     inkscape:pagecheckerboard="0"
     showgrid="false"
     inkscape:zoom="0.19245219"
     inkscape:cx="1660.1526"
     inkscape:cy="187.05945"
     inkscape:window-width="1920"
     inkscape:window-height="1017"
     inkscape:window-x="-8"
     inkscape:window-y="-8"
     inkscape:window-maximized="1"
     inkscape:current-layer="Layer_1" />
  <g
     id="g38">
    <g
       id="g34">
      <path
         d="M2163,654.8C1768.7-94.8,1007-117.9,744,173.3c-64,71.1-282.8,478.4,324.30005,860.7-315.8,93.4-572-269.9-572-269.9,394.3,749.5,1156,772.70007,1419,481.4,64.1-71.1,282.8999-478.4-324.19995-860.7C1906.9,291.6,2163,654.8,2163,654.8Zm-479.69995,374.00006c-119.5,132.4-374.69995,96.80005-570.1-79.6C917.9,772.8,856.5,522.5,976,390.1S1350.7,293.3,1546.1,469.7,1802.9,896.3,1683.30005,1028.80005Z"
         transform="translate(0 -0.02249)"
         style="fill: red"
         id="path2" />
      <ellipse
         cx="1488.20081"
         cy="852.29162"
         rx="178.3039"
         ry="263.10572"
         transform="translate(-141.66333 1385.82843) rotate(-47.92634)"
         style="fill: red"
         id="ellipse4" />
      <path
         d="M568.2,1555.7H427.5L362.7,1601,347,1674.4a17.01274,17.01274,0,0,0,16.6,20.5H504.1l64.8-45.3,15.7-73.4A16.78322,16.78322,0,0,0,568.2,1555.7Zm-53.7,31-13,60.9-38.2,26.69995H426a8.47777,8.47777,0,0,1-8.3-10.3l13-60.9,38.1-26.7h37.5A8.56288,8.56288,0,0,1,514.5,1586.7Z"
         transform="translate(0 -0.02249)"
         style="fill:#f2f2f2"
         id="path6" />
      <path
         d="M785,1555.7H619.8l-29.7,139h35.6l38.1-26.6,19.6-91.9h61.6a15.26432,15.26432,0,0,1,14.9,18.4l-21.3,99.9h68.1l21.3-99.9C832.3,1574.7,812,1555.7,785,1555.7Z"
         transform="translate(0 -0.02249)"
         style="fill:#f2f2f2"
         id="path8" />
      <polygon
         points="317.5 1478.577 279.5 1505.177 249.1 1647.577 210.9 1674.177 191.9 1674.177 228 1505.177 233.7 1478.577 198 1478.577 159.9 1505.177 159.9 1505.177 129.6 1647.577 91.5 1674.177 72.5 1674.177 108.4 1505.177 108.4 1505.177 114.1 1478.577 78.5 1478.577 40.5 1505.177 0 1694.778 51.6 1694.778 68.1 1694.778 119.5 1694.778 187.5 1694.778 239.1 1694.778 251.9 1694.778 253.2 1693.878 316.7 1649.577 353.1 1478.577 317.5 1478.577"
         style="fill:#f2f2f2"
         id="polygon10" />
      <path
         d="M1075.30005,1558A98.70648,98.70648,0,0,0,1090,1546.2c18.30005-18.4,32-42.69995,32-42.69995h-72.4s-13.7,24.30005-32,42.69995a87.73413,87.73413,0,0,1-11.4,9.6H921.7L856.9,1601.1l-15.7,73.4a17.01273,17.01273,0,0,0,16.6,20.5h195.9l26.5-124.19995A12.39233,12.39233,0,0,0,1075.30005,1558ZM1008.8,1586.7l-18.7,87.6h-70a8.47775,8.47775,0,0,1-8.3-10.3l13-60.9,38.1-26.7h37.5A8.495,8.495,0,0,1,1008.8,1586.7Z"
         transform="translate(0 -0.02249)"
         style="fill:#f2f2f2"
         id="path12" />
      <path
         d="M1307.30005,1555.7H1169.10022L1104.30017,1601l-15.69995,73.4a17.01279,17.01279,0,0,0,16.6,20.5h139l28.69995-20.6h-105.5a8.47782,8.47782,0,0,1-8.3-10.30005l4.69995-22.30005h99.4L1329.4,1595.3999l2.1-9.9A24.76061,24.76061,0,0,0,1307.30005,1555.7Zm-36.70007,31L1267.9,1599.5l-29,20.4h-70.6l3.6-16.9,38.1-26.6H1262.2A8.54362,8.54362,0,0,1,1270.6,1586.7Z"
         transform="translate(0 -0.02249)"
         style="fill:#f2f2f2"
         id="path14" />
      <path
         d="M1524.4,1555.7H1416.29993l-64.8,45.30005-20,93.80005h68.1l19.6-91.80005,38.1-26.6h27.30005a20.98964,20.98964,0,0,1,19.9,27.5,32.44459,32.44459,0,0,1-3.6,7.5l-5.4,8.5h46.1l31.5-22.1C1573.1,1580.6,1563.80005,1555.7,1524.4,1555.7Z"
         transform="translate(0 -0.02249)"
         style="fill:#f2f2f2"
         id="path16" />
      <path
         d="M2615.8999,1555.7h-165.3l-29.7,139h35.7l38.1001-26.6,19.6001-91.9h61.6001a15.26427,15.26427,0,0,1,14.8999,18.4l-21.3,99.9h68.1001l21.3-99.9C2663,1574.7,2642.80005,1555.7,2615.8999,1555.7Z"
         transform="translate(0 -0.02249)"
         style="fill:#f2f2f2"
         id="path18" />
      <polygon
         points="2100.4 1576.378 2085.2 1647.577 2047.1 1674.177 2033.4 1674.177 2058.6 1555.677 2015.7 1555.677 1986.2 1576.378 1971.1 1647.577 1932.9 1674.177 1919.1 1674.177 1944.4 1555.677 1901.4 1555.677 1872 1576.378 1846.8 1694.778 2088.1 1694.778 2152.9 1649.577 2172.9 1555.677 2129.9 1555.677 2100.4 1576.378"
         style="fill:#f2f2f2"
         id="polygon20" />
      <path
         d="M1802.1,1566h-89.5c-8.6-.5-14.4-6.30005-13-17.5C1702.9,1522.7,1724.9,1509.2,1736,1509.2h99L1878.7,1478.6H1714.5c-52.19995,0-80.9,38.6-87,88.69995a33.27918,33.27918,0,0,0,32.5,40.2h89.5c8.6.5,14.4,6.3,13,17.5-3.19995,24.9-23.9,38.4-35.19995,39.3H1524.6001l-43.7,30.6h266.6c52.2,0,80.9-38.6,87-88.69995A33.06627,33.06627,0,0,0,1802.1,1566Z"
         transform="translate(0 -0.02249)"
         style="fill:#f2f2f2"
         id="path22" />
      <path
         d="M2352,1555.7h-80.5a83.94764,83.94764,0,0,0-82.3,66.6c-8.30005,39.9-3.3999,75.2,52.6001,72.5H2281.7l29.3999-20.6H2278.7998a26.29525,26.29525,0,0,1-25.69995-31.80005l4.69995-22a55.75241,55.75241,0,0,1,54.5-44.1h35.39991l-25.3,118.4h68.1001l29.69995-139H2352Z"
         transform="translate(0 -0.02249)"
         style="fill:#f2f2f2"
         id="path24" />
      <path
         d="M914.1,1779,879.9,1904.2c-7.7,28-48.9,22.5-48.9-6.6v-42.9c0-42.4-47.9-47.4-47.9-47.4-103.3,0-169.6,120.4-169,183.4,0,57.3999,30,118.6001,107.7,104.69995,50.7-9,95.3-50.9,95.3-50.9,1.3-1.30005,2.6-2.6,3.8-3.9,23.9-24.4,63,5.1,46.1,34.8h0c-54.6,85.5-374.6,137-374.6-96.6,0-91.4,101-269.6,424.7-211.1Z"
         transform="translate(0 -0.02249)"
         style="fill: #02a5f4"
         id="path26" />
      <path
         d="M1493.5,2104.3999l-35.69995,25.8999c-71.1,44.89991-174.9,15.6001-172.80005-77.3a126.769,126.769,0,0,1,4.69995-29.9l58.30005-213.3c5.5-20.30005,18.80005-37.9,37.6-47.4,40.4-20.6,69.5,13.4,62.8,43.1l-58.8,215.19995c-23.5,81.29993,20.8,91.79993,40.1,79.20008l45.80005-33.3,35,.5-3.9,29.6001Z"
         transform="translate(0 -0.02249)"
         style="fill:#ff0000"
         id="path28" />
      <path
         d="M1971.1,1990.9l11.9-43.6c6.69995-29.69995-22.4-63.69995-62.80005-43.1-18.69995,9.5-32,27.1-37.6,47.4L1846,2086l-2.5,9c-9.6,35,17.4,49.8999,44.30005,53.6001,37.69995,5.3,45.19995-12.3999,47.69995-24.5A54.29344,54.29344,0,0,1,1940.80005,2109c22.30005-40.3999,53.80005-75.5,81-100.69995,21.4-19.80005,56.1001-11.9,66.5,15.30005l3.7,9.6c5.8999,15.50013,28.1001,14.4,32.5-1.6l38.3999-140.30005C2107.6001,1884.4,2035.6,1906.2,1971.1,1990.9Z"
         transform="translate(0 -0.02249)"
         style="fill:#e580ff"
         id="path30" />
      <path
         d="M1624.4,1878c22.6-4.5,36.9,23,20.5,39.1-68.3,66.9-82.8,196.00012-.9,196.00012,82.6,0,104.6-158.6,37.69995-175.7-24.80005-5-9.1-12.19995-2.1-15.69995,60.1-30.5,159.1-42.4,156,65.3-2,66.89991-83.2,172-216.5,172-87.9,0-147.80005-50.60009-147.80005-124.6C1471.2,1970.30005,1539.5,1894.9,1624.4,1878Z"
         transform="translate(0 -0.02249)"
         style="fill:#5f8dd3"
         id="path32" />
    </g>
    <path
       d="M1051.5,1878c22.6-4.5,36.9,23,20.5,39.1-68.3,66.9-82.8,196.00012-.9,196.00012,82.6,0,104.6-158.6,37.69995-175.7-24.8-5-9.1-12.19995-2.1-15.69995,60.1-30.5,159.1-42.4,156,65.3-2,66.89991-83.19995,172-216.5,172-87.9,0-147.8-50.60009-147.8-124.6C898.4,1970.30005,966.6,1894.9,1051.5,1878Z"
       transform="translate(0 -0.02249)"
       style="fill:#ffcc00"
       id="path36" />
  </g>
</svg>
