<svg id="Layer_1" data-name="Layer 1" xmlns="http://www.w3.org/2000/svg" viewBox="0 0 3387.34308 2159.00721">
  <g>
    <path d="M2755.30005,833.9C2252.8999-120.8,1282.80005-150.3,947.8,220.9c-81.6,90.5-360.3,609.40006,413.00006,1096.40006-402.4,118.80005-728.6-343.7-728.6-343.7,502.20008,954.7,1472.50013,984.2,1807.50013,613.2,81.60009-90.5,360.3-609.4-413-1096.4C2429,371.5,2755.30005,833.9,2755.30005,833.9ZM2144.2,1310.4C1992,1479,1666.80005,1433.6,1418,1209s-327.1-543.4-174.9-712.1,477.4-123.2,726.20007,101.4S2296.5,1141.80005,2144.2,1310.4Z" transform="translate(0 0.00745)" style="fill: red"/>
    <ellipse cx="1895.64645" cy="1085.81353" rx="227.10488" ry="335.10722" transform="translate(-180.58067 1765.34098) rotate(-47.92634)" style="fill: red"/>
    <path d="M723.8,1981.7h-179l-82.4,57.69995-20,93.5a21.51885,21.51885,0,0,0,21.1,26H642.80005l82.4-57.69995,19.9-93.5A21.84426,21.84426,0,0,0,723.8,1981.7Zm-68.4,39.4-16.5,77.50012-48.6,34h-47.8a10.99154,10.99154,0,0,1-10.7-13.1001l16.5-77.6,48.5-33.9h47.8A10.908,10.908,0,0,1,655.4,2021.1Z" transform="translate(0 0.00745)" style="fill: #fff"/>
    <path d="M1000,1981.7H789.5l-37.8,177.1001h45.4l48.5-33.8999,24.9-116.9h78.4a19.41739,19.41739,0,0,1,19,23.4l-27.2,127.3999h86.8l27.2-127.3C1060.1,2005.9,1034.30005,1981.7,1000,1981.7Z" transform="translate(0 0.00745)" style="fill: #fff"/>
    <polygon points="404.4 1883.507 356 1917.407 317.3 2098.608 268.7 2132.608 244.5 2132.608 290.3 1917.407 297.6 1883.507 252.2 1883.507 203.8 1917.407 203.8 1917.407 165.1 2098.608 116.5 2132.608 92.2 2132.608 138.1 1917.407 138.1 1917.407 145.4 1883.507 100 1883.507 51.5 1917.407 0 2158.807 65.7 2158.807 86.7 2158.807 152.2 2158.807 238.9 2158.807 304.5 2158.807 321 2158.807 322.5 2157.807 403.4 2101.207 449.8 1883.507 404.4 1883.507" style="fill: #fff"/>
    <path d="M1369.80005,1984.7a129.38375,129.38375,0,0,0,18.69995-15c23.30005-23.4,40.69995-54.5,40.69995-54.5H1337s-17.4,30.9-40.69995,54.5a112.82045,112.82045,0,0,1-14.5,12.19995h-107.5l-82.4,57.7-19.9,93.39991a21.51884,21.51884,0,0,0,21.1,26h249.20007l33.80005-158.30005A15.49,15.49,0,0,0,1369.80005,1984.7ZM1285,2021.1,1261.2,2132.6001h-89.1a10.99148,10.99148,0,0,1-10.7-13.1001l16.5-77.6,48.5-33.9h47.80005A10.8683,10.8683,0,0,1,1285,2021.1Z" transform="translate(0 0.00745)" style="fill: #fff"/>
    <path d="M1665.30005,1981.7h-176.1l-82.4,57.69995-19.9,93.3999a21.51884,21.51884,0,0,0,21.1,26h176.9l36.5-26.19995H1487a10.99147,10.99147,0,0,1-10.69995-13.10009l6.1-28.39991H1609l84.19995-58.9,2.69995-12.6A31.27616,31.27616,0,0,0,1665.30005,1981.7ZM1618.5,2021.1l-3.4,16.19995-36.9,25.99987h-89.9l4.6-21.4,48.5-33.9h66.5A10.834,10.834,0,0,1,1618.5,2021.1Z" transform="translate(0 0.00745)" style="fill: #fff"/>
    <path d="M1941.7,1981.7H1804l-82.4,57.69995-25.5,119.5h86.69995l24.9-116.9,48.5-33.9h34.69995a26.64635,26.64635,0,0,1,25.30005,35,47.121,47.121,0,0,1-4.6,9.6001l-6.80005,10.8h58.7l40.1-28C2003.7,2013.30005,1992,1981.7,1941.7,1981.7Z" transform="translate(0 0.00745)" style="fill: #fff"/>
    <path d="M3332,1981.7H3121.5l-37.8,177.1001h45.3999l48.5-33.8999,24.89991-116.9h78.3999a19.41745,19.41745,0,0,1,19,23.4l-27.2,127.3999h86.7l27.2-127.3C3392.1001,2005.9,3366.3999,1981.7,3332,1981.7Z" transform="translate(0 0.00745)" style="fill: #fff"/>
    <polygon points="2675.5 2008.007 2656.1 2098.608 2607.5 2132.608 2590.1 2132.608 2622.3 1981.707 2567.6 1981.707 2530.1 2008.007 2510.7 2098.608 2462.1 2132.608 2444.6 2132.608 2476.8 1981.707 2422.1 1981.707 2384.6 2008.007 2352.4 2158.807 2659.9 2158.807 2742.3 2101.207 2767.7 1981.707 2713.1 1981.707 2675.5 2008.007" style="fill: #fff"/>
    <path d="M2295.6001,1994.7h-114c-11-.6-18.30005-8-16.5-22.30005,4.19995-32.8,32.3-50.1,46.3-50.1h126.2l55.6001-38.9H2184c-66.3999,0-103,49.1-110.7,113a42.40459,42.40459,0,0,0,41.3999,51.2h114c11,.6001,18.3,8,16.5,22.3-4.1001,31.7-30.3999,48.8999-44.8999,50H1942.1001l-55.6,38.8999h130.7l-.1.1001h209.1001c66.3999,0,103-49.1001,110.69995-113A42.299,42.299,0,0,0,2295.6001,1994.7Z" transform="translate(0 0.00745)" style="fill: #fff"/>
    <path d="M2995.8999,1981.7h-102.5a107.0406,107.0406,0,0,0-104.8,84.80005c-10.7,50.8-4.3999,95.7,66.89991,92.3h50.69995l37.3999-26.19995h-41.1001a33.42722,33.42722,0,0,1-32.7-40.5l6-28a71.04894,71.04894,0,0,1,69.3999-56.2h45.1001l-32.19995,150.80005h86.69995l37.80005-177.1h-73.3999l-13.29981.09973Z" transform="translate(0 0.00745)" style="fill: #fff"/>
  </g>
</svg>
