<svg id="Layer_1" data-name="Layer 1" xmlns="http://www.w3.org/2000/svg" xmlns:xlink="http://www.w3.org/1999/xlink" viewBox="0 0 3840.0311 1137.9599"><defs><linearGradient id="Dégradé_sans_nom" x1="1920.01555" y1="6746.62518" x2="1920.01555" y2="7396.92517" gradientTransform="matrix(1, 0, 0, -1, 0, 7884.62518)" gradientUnits="userSpaceOnUse"><stop offset="0" stop-color="#a47516"/><stop offset="1" stop-color="#f2c270"/></linearGradient></defs><path d="M2683.7,525.8H2434c-62.5,0-122.2,50.7-133.2,113.2l-61.5,347.5c-11.1001,62.6,30.7,113.30005,93.30005,113.30005h250.19995c62.6001,0,122.30005-50.80005,133.30005-113.4l61-347.5C2788,576.5,2746.2,525.8,2683.7,525.8Zm5.69995,144.5L2639.2,954.9c-6,34.3-38.80005,62.1-73.1001,62.1H2378.7998c-34.3,0-57.19995-27.8-51.19995-62.1l50.19995-284.6c6-34.3,38.80005-62.1,73.1001-62.1H2638.2C2672.6001,608.1,2695.5,636,2689.3999,670.3Zm524.90015-144.5H2964.6001c-62.5,0-122.2,50.7-133.2,113.2l-61.5,347.5c-11.1001,62.6,30.7,113.30005,93.30005,113.30005h250.19995c62.60009,0,122.30005-50.80005,133.30005-113.4l61-347.5C3318.6001,576.5,3276.80005,525.8,3214.30005,525.8Zm5.80005,144.5-50.2,284.6c-6,34.3-38.8,62.1-73.1001,62.1H2909.5c-34.3,0-57.2-27.8-51.2-62.1l50.2-284.6c6-34.3,38.8-62.1,73.1001-62.1h187.3C3203.2,608.1,3226.1001,636,3220.1001,670.3Zm524.7998-144.5H3495.2c-62.5,0-122.2,50.7-133.2,113.2l-61.5,347.5c-11.1001,62.6,30.7,113.30005,93.3,113.30005H3644c62.6001,0,122.3-50.80005,133.3-113.4l61-347.5C3849.2,576.5,3807.5,525.8,3744.8999,525.8ZM3750.7,670.3l-50.2,284.6c-6,34.3-38.8,62.1-73.1001,62.1h-187.3c-34.30005,0-57.2-27.8-51.2-62.1l50.2-284.6c6-34.3,38.8-62.1,73.1001-62.1h187.3C3733.80005,608.1,3756.7,636,3750.7,670.3ZM2246.3999,638.5c11-62.5-30.8-113.2-93.3-113.2h-249.7c-62.5,0-122.19995,50.7-133.19995,113.2L1752,740.4c-4.9,27.6,1,52.6,13.9,72.3-19.69995,19.6-34.3,44.5-39.19995,71.9l-18.2,101.9c-11.1,62.6,30.7,113.4,93.30005,113.4H2052c62.6001,0,122.3-50.8,133.3-113.4L2203,884.6c4.8-27.4-1-52.3-13.8-71.8,19.8999-19.7,34.6001-44.7,39.5-72.3ZM2115.5,915.9l-6.8999,39c-6,34.3-38.80005,62.1-73.1,62.1h-187.3c-34.30005,0-57.2-27.8-51.2-62.1l6.9-39c6-34.3,38.80005-62.1,73.1-62.1h187.29993C2098.6001,853.7,2121.5,881.6,2115.5,915.9Zm43.3999-246.2L2152,708.7c-6,34.3-38.8,62.1-73.1001,62.1h-187.3c-34.30005,0-57.2-27.8-51.2-62.1l6.9-39c6-34.3,38.80005-62.1,73.1-62.1H2107.7C2142,607.6,2164.8999,635.4,2158.8999,669.7Zm-539.09985,48.9h82.1l14-79.6c11-62.5-30.8-113.2-93.3-113.2H1372.9c-62.5,0-122.19995,50.7-133.19995,113.2L1196.4,883.5c-.1.4-.19995.7-.3,1.1l-18.2,101.9c-11.1,62.6,30.7,113.4,93.30005,113.4H1521.4c62.6,0,122.30005-50.8,133.30005-113.4L1672.4,884.6c11-62.5-30.8-113.2-93.3-113.2H1329.4a117.858,117.858,0,0,0-31.19995,4.7L1316.9,670.3c6.1-34.3,38.80005-62.1,73.1-62.1h187.30005c34.30005,0,57.19995,27.8,51.19995,62.1ZM1346.2,853.7H1533.5c34.30005,0,57.19995,27.8,51.19995,62.1l-6.9,39c-6,34.3-38.8,62.1-73.1,62.1H1317.3999c-29.5,0-49.3-21-50.8-48.6q.15-.15.3-.3c-.19995-4.4-1.19995-8.6-.3-13.3l7.1-40.3C1280.30005,880.9,1312.4,853.7,1346.2,853.7ZM0,1138H482.4L305.8,832.2Zm132.7-54.9L294,921.7l93.1,161.4ZM157,487.7,532.5,1138H1049L673.5,487.7Zm407.2,595.4-312-540.5h389.6l312,540.5ZM1206,487.7H723.6L900.2,793.5Zm-132.69995,54.9L911.9,704l-93.1-161.4Z" transform="translate(0 -0.0401)" style="fill:url(#Dégradé_sans_nom)"/><g id="g9277"><path id="path9279" d="M1528.30551,137.46066H1310.169V10.53648H1197.46779V342.45633H1310.169V209.03907h218.13639V342.45633H1641.0067V10.53648H1528.30541V137.46066" transform="translate(0 -0.0401)" style="fill:#fff"/></g><g id="g9281"><path id="path9283" d="M1829.19777,209.15658l78.53528-128.93392,76.06177,128.93392H1829.19777m34.78434-198.50264L1661.76919,342.57379h86.11057l41.27743-67.86812h233.13233l40.19523,67.8681h137.59137L1998.01776,10.65394H1863.98211" transform="translate(0 -0.0401)" style="fill:#fff"/></g><g id="g9285"><path id="path9287" d="M2647.45979,154.49419c26.89993-35.24811,23.18956-86.72895-28.29133-116.25695C2571.08882,10.719,2479.41269.51557,2422.05723.51557c-91.67613,0-150.73212,6.18388-200.8216,14.84133V342.48425h112.70128V64.98256c40.6591-8.03907,81.78188-8.19363,97.24158-7.57525,44.67858,2.00974,69.87779,8.96661,89.9754,23.18956,20.87061,14.84132,26.43606,47.61587-.46386,70.34165-20.25218,17.00568-61.22039,30.301-152.89652,16.3873l-12.98619,21.33437,173.30325,153.82406h153.51494L2527.49234,209.067c36.94892-4.63795,93.06753-19.47928,119.96745-54.57278" transform="translate(0 -0.0401)" style="fill:#fff"/></g><g id="g9289"><path id="path9291" d="M950.2826,125.32326c-65.08537-12.677-120.43109-20.56139-120.43109-41.5866,0-23.34416,44.67854-29.37344,108.06333-22.72578,59.98363,6.33849,116.41155,22.10736,169.12915,44.52393l40.04063-65.70375C1104.41582,23.59838,1016.60472,2.88238,936.98724.40882c-87.34733-2.47356-234.8329,5.25629-241.17138,93.68582-5.8747,80.85423,109.45473,100.17886,184.89807,117.803,73.74281,17.16028,142.693,23.34417,142.693,48.85268,0,17.93326-24.27175,32.00158-88.73869,27.05448-77.45313-5.72008-143.46609-26.89988-209.32439-59.67447l-43.751,71.733c72.9698,28.44585,168.66536,51.48082,254.93049,52.87219,102.49783,1.70057,218.29105-14.84133,220.91912-102.65246,2.31905-73.279-73.58806-98.7875-207.15994-124.75978" transform="translate(0 -0.0401)" style="fill:#fff"/></g><g id="g9293"><path id="path9295" d="M3011.6192,151.69287c-19.47919,15.92348-47.92508,21.64358-92.91278,21.489-33.08381-.15461-67.40427-6.18388-95.3863-12.52237V64.96392c40.50435-8.03907,82.55486-8.19363,97.86-7.57525,44.9877,1.85519,71.2692,9.585,90.74839,23.18956,20.5613,14.3775,27.3636,48.54346-.30931,71.11464m98.633-113.47422C3064.337,11.00956,2978.38084.497,2912.52254.497c-91.67613,0-151.35055,6.18388-201.59459,14.84132V342.46566h112.70129V222.653c34.78433,5.87467,78.53537,9.12122,116.2569,8.96661,92.29436-.773,160.78092-22.41657,192.00945-56.42792,44.36947-48.3889,29.37363-106.82657-21.6434-136.973" transform="translate(0 -0.0401)" style="fill:#fff"/></g></svg>