<svg id="Layer_1" data-name="Layer 1" xmlns="http://www.w3.org/2000/svg" viewBox="0 0 3839 654.5"><path d="M1441.30005,135.5h-68l-153.6,393.4h62.4l38-101.9h174.3l38,101.9h62.4Zm-102,239,68-180.1,68,180.1Z" transform="translate(0 0)" style="fill:#107c10"/><path d="M1188.30005,321.6v207.2h-56.5v-51.5c-14.5,19.8-32.5,35-53.4,45-21.3,10.2-46.19995,15.3-74.1,15.3-28.2,0-53.9-4.8-76.4-14.2a162.56517,162.56517,0,0,1-59-42.7,186.0356,186.0356,0,0,1-38.5-65.3c-8.5-24.6-12.8-52.6-12.8-83.2,0-31,4.4-59.2,13-83.9a182.66075,182.66075,0,0,1,39-65.2,166.92677,166.92677,0,0,1,60.2-42.3c22.9-9.3,49.1-14.1,77.9-14.1,48,0,88.4,12.7,119.9,37.6,31.19995,25.3,50.19995,59.4,56.4,101.2l.1.7h-61.7l-.1-.5c-5.5-26.2-18.6-47.2-39.19995-62.4-20.5-15.3-45.69995-23-74.8-23-38.9,0-70.3,13.8-93.2,41.1-23.3,26.9-35.1,64.3-35.1,110.9s11.8,84,35.1,110.9c23.7,27.3,55.4,41.1,94.3,41.1,33.9,0,62.8-10.7,86.1-31.8,23.1-20.6,35.5-47.3,36.7-79.4h-115.7v-51.3l171.79987-.2Z" transform="translate(0 0)" style="fill:#107c10"/><polygon points="2150.4 189.5 2150.4 303.5 2345.8 303.5 2345.8 353.6 2150.4 353.6 2150.4 474.8 2371.2 474.8 2371.2 528.8 2090.3 528.8 2090.3 135.5 2371.2 135.5 2371.2 189.5 2150.4 189.5" style="fill:#107c10"/><path d="M2030.2,135.5V528.9h-57.9V216.7c-7.4,21.9-17.4,49.1-29.69995,81l-88.80005,231.2h-50.4l-.1-.4-89.8-230.8c-10.7-28.5-20.5-55.3-29.2-79.8v311h-57.9V135.5h82.5l80.6,209.1c16.19995,42.4,29.5,79.1,39.69995,109.1,11.9-35.7,25.5-74.3,40.19995-114.6l77.80005-203.7,83.00012.1Z" transform="translate(0 0)" style="fill:#107c10"/><path d="M2788.30005,168.9c-23.5-22.2-57-33.5-99.6001-33.5H2521.2V528.8h60.1001V383.9H2688.7c42.6001,0,76-11.3,99.6001-33.5,23.5-22.2,35.3999-52.7,35.3999-90.5C2823.80005,221.8,2811.80005,191.2,2788.30005,168.9Zm-44.8,143.8c-12.7,12.1-31.5,18.3-55.8,18.3H2581.3999V188.4H2687.7c24.3,0,43.1001,6.3,55.8,18.6s19.1001,30.2,19.1001,53S2756.1001,300.6,2743.5,312.7Z" transform="translate(0 0)" style="fill:#107c10"/><path d="M3489.1001,419.7c0,36.4-13.7,65.4-40.7,86.4-27,20.9-64.8,31.5-112.39991,31.5-51.69995,0-92.5-11.9-121.3-35.4s-43.6001-58.3-44-103.4v-.6h60.10009v.6c.5,29.1,9.69995,51.2,27.3,65.7s44.2,21.9,79,21.9c28.7,0,51.2-5.6,66.6001-16.7,15.3999-11,23.19995-27.3,23.19995-48.3,0-17-6.3999-30.3-19-39.5-12.69995-9.3-36-17.7-69.19995-25l-33.6001-7.2c-40.3-8.1-71.2-21.5-91.7-39.8-20.6001-18.4-31.1001-44.1-31.1001-76.4,0-32.4,12.69995-58.5,37.69995-77.8s59.2-29,101.7-29c51.3,0,90.3999,11.2,116.3,33.2,25.89991,22,39.39991,52.8,40.1001,91.3v.6h-59.5v-.5c-1.8-25.1-10.2-43.7-24.8999-55.5s-38.80005-17.8-71.5-17.8c-25.5,0-45.2,4.8-58.6001,14.2-13.3999,9.4-20.1001,22.9-20.1001,40.3,0,17.7,6,31.3,17.89991,40.3,12,9.8,34.5,18.3,67,25.2l34.2,7.2c44.69995,9.5,77.3,23.5,97,41.5,19.5,17.9,29.5,42.5,29.5,73" transform="translate(0 0)" style="fill:#107c10"/><path d="M3839,419.7c0,36.4-13.7,65.4-40.7,86.4-27,20.9-64.8,31.5-112.5,31.5-51.69995,0-92.5-11.9-121.3-35.4s-43.6001-58.3-44-103.4v-.6h60.1001v.6c.5,29.1,9.69995,51.2,27.3,65.7s44.2,21.9,79,21.9c28.80005,0,51.2-5.6,66.60009-16.7,15.39991-11,23.2-27.3,23.2-48.3,0-17-6.39991-30.3-19-39.5-12.7-9.3-36-17.7-69.2-25l-33.60009-7.2c-40.3-8.1-71.19995-21.5-91.69995-39.8-20.6001-18.4-31-44.1-31-76.4,0-32.4,12.69995-58.5,37.69995-77.8s59.2-29,101.7-29c51.3,0,90.3999,11.2,116.3,33.2,25.8999,22,39.3999,52.8,40.10009,91.3v.6h-59.5v-.5c-1.8-25.1-10.19995-43.7-24.8999-55.5s-38.8-17.8-71.5-17.8c-25.5,0-45.2,4.8-58.6001,14.2-13.3999,9.4-20.10009,22.9-20.10009,40.3,0,17.7,6,31.3,17.8999,40.3,12,9.8,34.5,18.3,67,25.2l34.1001,7.2c44.7,9.5,77.30005,23.5,97,41.5C3829,364.6,3839,389.2,3839,419.7" transform="translate(0 0)" style="fill:#107c10"/><path d="M3003.3999,135.5h-68L2781.7998,528.9h62.39991l38-101.9h174.30005l38,101.9h62.3999ZM2901.5,374.5l68-180.1,68,180.1Z" transform="translate(0 0)" style="fill:#107c10"/><circle cx="327.20001" cy="327.20001" r="327.20001" style="fill:#fff"/><rect x="122.4" y="92" style="fill:#666"/><path d="M328.7,262.6l-1.5-1.1h0l-1.5,1.1C227.1,338.1,60.2,521,111,573.2c58,50.8,132.1,81.3,214.8,81.3h3c82.7,0,156.7-30.5,214.8-81.3C594.3,521,427.4,338.1,328.7,262.6Z" transform="translate(0 0)" style="fill:#107c10"/><path d="M0,327.2A326.08762,326.08762,0,0,0,67.3,526.1a1.442,1.442,0,0,0,1.5-1.3v-.1a4.40374,4.40374,0,0,0-.2-1.6,79.11451,79.11451,0,0,1-2.9-23.6c1.8-86.7,112.3-247.1,171.4-318.1l1.3-1.6-1.3-1.3C159.4,102,122.2,92,107.1,92.6c-4.7.2-8.2.2-9.9,1.7A327.1307,327.1307,0,0,0,0,327.2Z" transform="translate(0 0)" style="fill:#107c10"/><path d="M654.5,327.2A325.79627,325.79627,0,0,1,587.2,526a1.442,1.442,0,0,1-1.5-1.3v-.1a4.40338,4.40338,0,0,1,.2-1.6,79.11575,79.11575,0,0,0,2.9-23.6c-1.8-86.7-112.3-247.1-171.4-318.1l-1.3-1.6,1.3-1.3c77.7-76.5,114.9-86.5,130-85.9,4.7.2,8.2.2,9.9,1.7C617.2,153.7,654.5,236.1,654.5,327.2Z" transform="translate(0 0)" style="fill:#107c10"/><path d="M497.3,47.6a327.72864,327.72864,0,0,0-340.2,0c-.9.6-4.3,3.2-.8,2.5l4-.8c13.7-2.8,28.9-2.5,44.4-.3,55.8,9.8,114.4,42.3,121.1,46.7a11.29606,11.29606,0,0,0,1.5.9c.4-.3,1.5-.9,1.5-.9,6.7-4.4,65.3-37,121.1-46.7,15.5-2.2,30.6-2.5,44.4.3l4,.8C501.7,50.8,498.3,48.3,497.3,47.6Z" transform="translate(0 0)" style="fill:#107c10"/></svg>