<?xml version="1.0" encoding="UTF-8" standalone="no"?>
<svg
   id="Layer_1"
   data-name="Layer 1"
   viewBox="0 0 3839 763.29999"
   version="1.1"
   sodipodi:docname="test.svg"
   inkscape:version="1.1.2 (0a00cf5339, 2022-02-04, custom)"
   xmlns:inkscape="http://www.inkscape.org/namespaces/inkscape"
   xmlns:sodipodi="http://sodipodi.sourceforge.net/DTD/sodipodi-0.dtd"
   xmlns="http://www.w3.org/2000/svg"
   xmlns:svg="http://www.w3.org/2000/svg">
  <defs
     id="defs24" />
  <sodipodi:namedview
     id="namedview22"
     pagecolor="#ffffff"
     bordercolor="#666666"
     borderopacity="1.0"
     inkscape:pageshadow="2"
     inkscape:pageopacity="0.0"
     inkscape:pagecheckerboard="0"
     showgrid="false"
     inkscape:zoom="0.27845793"
     inkscape:cx="1919.5"
     inkscape:cy="380.66791"
     inkscape:window-width="1920"
     inkscape:window-height="1017"
     inkscape:window-x="-8"
     inkscape:window-y="-8"
     inkscape:window-maximized="1"
     inkscape:current-layer="Layer_1" />
  <polygon
     id="polygon8"
     points="3135.1 247.7 3406.7 615.9 3457.8 616 3457.8 157.9 3406.8 157.9 3406.8 534.1 3129.6 157.6 3084.2 157.5 3084.2 615.6 3135.1 615.6 3135.1 247.7"
     style="fill:#37c837" />
  <path
     id="path10-1"
     d="M2819.2,147.2c-128.80005,0-218.8999,98.5-218.8999,239.6,0,141.3,90,239.8,218.8999,239.8,128.69995,0,218.3999-98.5,218.3999-239.8.00025-141.1-89.7-239.6-218.3999-239.6m0,430.8c-98.1001,0-166.8999-78.6-166.8999-191.2,0-112.5,68.80005-191.1,166.8999-191.1,98,0,166.3,78.7,166.3,191.1,0,112.6-68.3,191.2-166.3,191.2"
     transform="translate(0 0)"
     style="fill:#37c837" />
  <polygon
     id="polygon12"
     points="3835.8 202.4 3835.8 157.6 3515.1 157.6 3515.1 616 3839 616 3839 571.2 3566.5 571.2 3566.5 401.6 3818.7 401.6 3818.7 356.8 3566.5 356.8 3566.5 202.4 3835.8 202.4"
     style="fill:#37c837" />
  <polygon
     id="polygon14"
     points="2179.2 157.8 2310.3 335.9 2441.3 157.8 2501.5 157.8 2340.8 376.2 2517 616.4 2456.7 616.4 2310.3 417.6 2163.9 616.4 2103.6 616.4 2279.7 376.2 2118.9 157.8 2179.2 157.8"
     style="fill:#37c837" />
  <path
     id="path16-7"
     d="M1650.5,393.5a133.568,133.568,0,0,0-30-19.1c33.30005-18.1,55.1-52.2,55.1-91.8,0-29.3-10.80005-124.7-149.1-124.7H1340.30005V355.6h-62c-8.1,10.5-26.30005,35.7-33.30005,46h95.30005V616.4H1526.5c100.9,0,163.5-51.2,163.5-133.9,0-36.1-13.6-66.8-39.5-89M1391.80005,205.7H1526.5c36.5,0,97.5,9.1,97.5,72.9,0,48.2-35.6,77-97.5,77H1391.80005ZM1526.5,568.5H1391.80005V401.6H1526.5c51.1,0,112.19995,14.1,112.19995,79.9,0,75.7-70.29993,87-112.19995,87"
     transform="translate(0 0)"
     style="fill:#37c837" />
  <path
     id="path18"
     d="M1932.2,147.3c-128.80005,0-218.80005,98.5-218.80005,239.6,0,141.3,90,239.7,218.80005,239.7,128.69995,0,218.3999-98.5,218.3999-239.7.1001-141.1-89.7-239.6-218.3999-239.6m0,430.7c-98.1,0-166.80005-78.6-166.80005-191.2,0-112.5,68.7-191.1,166.80005-191.1,98,0,166.30005,78.6,166.30005,191.1C2098.6001,499.4,2030.2,578,1932.2,578"
     transform="translate(0 0)"
     style="fill:#37c837" />
  <polygon
     id="polygon20"
     points="917.4 157.9 1078.1 376.2 901.9 616.3 962.3 616.3 1108.6 417.6 1255 616.3 1315.3 616.3 1139 376.2 1299.9 157.9 1239.6 157.9 1108.5 336 977.5 157.9 917.4 157.9"
     style="fill:#37c837" />
  <circle
     cx="381.60001"
     cy="381.60001"
     r="381.60001"
     style="fill:#fff"
     id="circle9" />
  <rect
     x="142.7"
     y="107.2"
     style="fill:#666"
     id="rect11" />
  <path
     d="M383.3,306.3l-1.7-1.3h0l-1.7,1.3c-115.1,88-309.7,301.3-250.5,362.2,67.7,59.2,154,94.8,250.5,94.8h3.4c96.5,0,182.8-35.5,250.5-94.8C693.1,607.6,498.4,394.3,383.3,306.3Z"
     transform="translate(0 0)"
     style="fill:#37c837"
     id="path13" />
  <path
     d="M0,381.6A380.37639,380.37639,0,0,0,78.5,613.5a1.83133,1.83133,0,0,0,1.8-1.6v-.1a3.59141,3.59141,0,0,0-.2-1.8c-2.5-8.2-3.5-17.4-3.3-27.5,2.1-101.1,130.9-288.2,199.9-371l1.5-1.9-1.5-1.5c-90.6-89.3-134-100.9-151.6-100.2-5.4.2-9.6.2-11.5,2C43.5,179.2,0,275.3,0,381.6Z"
     transform="translate(0 0)"
     style="fill:#37c837"
     id="path15" />
  <path
     d="M763.3,381.6a380.37633,380.37633,0,0,1-78.5,231.9,1.83129,1.83129,0,0,1-1.8-1.6v-.1a3.59141,3.59141,0,0,1,.2-1.8c2.5-8.2,3.5-17.4,3.3-27.5-2.1-101.1-130.9-288.2-199.9-371l-1.5-1.9,1.5-1.5c90.6-89.3,134-100.9,151.6-100.2,5.4.2,9.6.2,11.5,2C719.8,179.2,763.3,275.3,763.3,381.6Z"
     transform="translate(0 0)"
     style="fill:#37c837"
     id="path17" />
  <path
     d="M580,55.5a382.18892,382.18892,0,0,0-396.7,0c-1.1.8-5,3.7-.9,2.9l4.7-.9c16-3.3,33.7-2.9,51.7-.4,65.1,11.4,133.4,49.3,141.2,54.5,0,0,1.2.8,1.7,1.1.5-.3,1.7-1.1,1.7-1.1,7.8-5.2,76.2-43.1,141.2-54.5,18-2.6,35.7-2.9,51.7.4l4.7.9C585.1,59.3,581.1,56.3,580,55.5Z"
     transform="translate(0 0)"
     style="fill:#37c837"
     id="path19" />
</svg>
