<?xml version="1.0" encoding="UTF-8" standalone="no"?>
<svg
   id="Layer_1"
   data-name="Layer 1"
   viewBox="0 0 3839 790.70001"
   version="1.1"
   sodipodi:docname="xbox360.svg"
   inkscape:version="1.1.2 (0a00cf5339, 2022-02-04, custom)"
   xmlns:inkscape="http://www.inkscape.org/namespaces/inkscape"
   xmlns:sodipodi="http://sodipodi.sourceforge.net/DTD/sodipodi-0.dtd"
   xmlns="http://www.w3.org/2000/svg"
   xmlns:svg="http://www.w3.org/2000/svg">
  <defs
     id="defs19" />
  <sodipodi:namedview
     id="namedview17"
     pagecolor="#ffffff"
     bordercolor="#666666"
     borderopacity="1.0"
     inkscape:pageshadow="2"
     inkscape:pageopacity="0.0"
     inkscape:pagecheckerboard="0"
     showgrid="false"
     inkscape:zoom="0.27845793"
     inkscape:cx="1919.5"
     inkscape:cy="395.03274"
     inkscape:window-width="1920"
     inkscape:window-height="1017"
     inkscape:window-x="-8"
     inkscape:window-y="-8"
     inkscape:window-maximized="1"
     inkscape:current-layer="Layer_1" />
  <rect
     x="147.89999"
     y="111.1"
     style="fill:#666"
     id="rect2" />
  <path
     d="M2551.7,640,2399.3999,433.2,2247.2,640h-62.7l183.2-249.8L2200.5,163.1h62.7l136.3,185.1,136.2-185.1h62.69995L2431.2,390.1,2614.30005,640M1364.6,640,1181.4,390.1l167.2-227H1286L1149.7,348.4l-136.2-185.3H950.9l167.2,227L934.8,640h62.7L1149.7,433.2,1301.9,640Zm389.8-139.3c0,86-65.1,139.3-170.1,139.3h-193.6V416.6h-99.1c7.19995-10.7,26.19995-36.9,34.5-47.8h64.6V163.1h193.6c143.80005,0,155,99.2,155,129.8,0,41.2-22.6,76.7-57.30005,95.4a133.66663,133.66663,0,0,1,31.30005,19.9c26.8999,23.1,41.1,55,41.1,92.5M1444.2,368.8h140c64.5,0,101.5-29.9,101.5-80,0-66.3-63.5-75.9-101.5-75.9h-140ZM1701,499.7c0-68.4-63.4-83.1-116.69995-83.1h-140V590.2h140C1627.9,590.3,1701,578.4,1701,499.7m532.3999-98.4c0,146.8-93.3999,249.2-227.1,249.2-134,0-227.6-102.4-227.6-249.2,0-146.7,93.6-249.1,227.6-249.1,133.80017,0,227.1,102.4,227.1,249.1m-54.09985,0c0-117.1-71.19995-198.7-173-198.7-102,0-173.6,81.7-173.6,198.7s71.5,198.8,173.6,198.8c101.80005,0,173-81.7,173-198.8"
     transform="translate(0 0)"
     style="fill:#91c93d"
     id="path4" />
  <path
     d="M3660.8999,151.9C3547.59985,151.9,3482.7,243,3482.7,402c0,158.8,65,249.9,178.19995,249.9,64.5,0,112.5-28.1,143-83.4C3832.7998,515.8,3839,448.8,3839,402c0-75.2-17.3999-250.1-178.1001-250.1m0,457.3c-32.3,0-59.1001-10.5-79.8-31-45.3999-45.6-52.30005-129.9-52.30005-176.1,0-62.4,12.89991-207.3,132.1001-207.3,119.1001,0,131.8999,144.9,131.8999,207.3.00025,62.2-12.7998,207.1-131.8999,207.1M3278.2,317.1a155.66975,155.66975,0,0,0-128,66.8c6.1001-90.5,35.19995-189.1,133.5-189.1,54.8999,0,96.5,35.9,105.8999,91.4l1.39991,8.7h45.69995l-1.19995-11.6c-9-81-67.2-131.3-151.7-131.3-149.60009,0-180.8999,148.4-180.8999,272.8,0,148.7,60.6001,227.2,175.3999,227.2,94.30005,0,165.6001-71.4,165.6001-166-.09985-98-69.7998-168.9-165.69995-168.9m0,292.1c-67.6001,0-120.6001-54.2-120.6001-123.2,0-71.9,52-126,120.6001-126a114.47835,114.47835,0,0,1,81.8,33.9c23.8999,23.7,37.3999,57.3,37.3999,92.1,0,69-52.2998,123.2-119.19995,123.2M3066.8999,504.5c0,89.1-66.3,146.6-168.8,146.6-55.60009,0-100.80005-16.5-130.7-47.9-28.5-29.9-42.5-72.8-40.19995-124l.3999-9.8h46.19995l-.3,10.7c-1.6001,38.6,8.8999,71,30.5,93.4,21.8999,22.7,54.60009,34.9,94.10009,34.9,61,0,122.5-35.8,122.5-103.9,0-28.2-8.60009-50.6-25.8999-66.7-20.80005-19.5-54.3999-28.4-96.80005-28.8H2865.7c-.2-11.2-.2-33.5,0-45.1,11.69995-.1,23.8999-.2,32-.2,22.5,0,66.3999-5.7,90.1001-28.5,14.6001-14,22.2-33.2,22.2-56.9,0-55.4-56.3999-84.4-111.8999-84.4-55.1001,0-96.6001,35.9-106,91.5l-1.3999,8.6h-45.89991l1.3-11.5c9.1001-81.1,67.3999-131.5,152-131.5,51.6001,0,97.3,16,125.1001,43.8,21.8,21.9,32.8999,49.9,32.8999,83.4,0,47.4-25.7,87.6-66,106.2C3037.7,403.5,3066.8999,448.2,3066.8999,504.5"
     transform="translate(0 0)"
     style="fill:#f9f9f9"
     id="path6" />
  <path
     d="M118,113.7c-.3.2-.4.4-.4.3h0A395.4201,395.4201,0,0,0,80.8,634.9a1.75384,1.75384,0,0,0,2.1.6c.7-.4.7-1.3.4-2.1C53.3,540.3,201.6,311,281.2,216.2a1.60591,1.60591,0,0,0,.5-1.1,1.70932,1.70932,0,0,0-.7-1.3C147,80.5,117.1,114.5,117.5,114"
     transform="translate(0 0)"
     style="fill:#91c93d"
     id="path8" />
  <path
     d="M672.7,113.7c.3.2.4.4.4.3h0A395.114,395.114,0,0,1,709.8,634.8a1.75382,1.75382,0,0,1-2.1.6c-.7-.4-.7-1.3-.4-2.1C737.4,540.3,589,311,509.5,216.2a1.73806,1.73806,0,0,1-.6-1.1,1.7093,1.7093,0,0,1,.7-1.3c134-133.3,163.9-99.3,163.5-99.8"
     transform="translate(0 0)"
     style="fill:#91c93d"
     id="path10" />
  <path
     d="M395.4,0A394.09152,394.09152,0,0,1,594.5,53.7a1.46227,1.46227,0,0,1,.6,2c-.3.7-1.1.8-1.9.7-69.1-15.5-185.9,57.2-197,63.8a1.21663,1.21663,0,0,1-1.6,0c-11-6.7-127.8-79.4-196.9-63.8a1.53063,1.53063,0,0,1-1.9-.7,1.5878,1.5878,0,0,1,.6-2A393.44806,393.44806,0,0,1,395.4,0"
     transform="translate(0 0)"
     style="fill:#91c93d"
     id="path12" />
  <path
     d="M395.4,311.3a3.0991,3.0991,0,0,1,1.3.6c118.2,89.9,320.7,318.1,258.9,381l.1-.1a.09791.09791,0,0,1-.1.1,395.03524,395.03524,0,0,1-520.4,0l-.1-.1.1.1c-61.8-62.8,140.7-291,259-381a1.9575,1.9575,0,0,1,1.2-.6"
     transform="translate(0 0)"
     style="fill:#91c93d"
     id="path14" />
</svg>
