<svg id="Layer_1" data-name="Layer 1" xmlns="http://www.w3.org/2000/svg" viewBox="0 0 3838.9589 1574.90002"><rect x="631.75901" width="3207.19989" height="1574.90002" style="fill:#107c10"/><path d="M2956.259,823.4,3079.059,654.6a346.97633,346.97633,0,0,1-113.1001-48.8,129.36272,129.36272,0,0,1-50.8999-109.9,124.29194,124.29194,0,0,1,55-108.3,276.23494,276.23494,0,0,1,158.5-38.3h0c215.8999,0,272.1001,113.5,310.3,161.6l115.8-159.2a334.47,334.47,0,0,0-73.3-84q-120.90015-99.9-356.2-99.9-207,0-323.6001,90.8a292.95725,292.95725,0,0,0-116.80005,244C2684.85905,664.5,2775.259,766.7,2956.259,823.4Zm595.30005-8.5q-81.15015-72.3-251.5-113.2l-124.2,170.7a513.29778,513.29778,0,0,1,182.10009,75,121.87522,121.87522,0,0,1,52.5,106.6,146.97591,146.97591,0,0,1-61.69995,127.4,303.63568,303.63568,0,0,1-178.5,44.1h0c-179.5,0-264.2-59.5-350.60009-214.4h0l-123.89991,170.3a345.012,345.012,0,0,0,93.3,117.4q132.59985,108.29993,374.5,108.30005,226.95007,0,353.7-95.80005a317.74786,317.74786,0,0,0,126.8-269A288.95337,288.95337,0,0,0,3551.559,814.9Zm-1067.5,565.6H2432.259V194.4h51.6001Zm-1520.2-1191.7a51.79187,51.79187,0,0,1,43.69995,20.4,113.21353,113.21353,0,0,1-2,117.7,62.4916,62.4916,0,0,1-50.3,21.8h-.30005V312.4h.30005a34.747,34.747,0,0,0,29.19995-12.1,58.18276,58.18276,0,0,0,8.7-35,48.8751,48.8751,0,0,0-7.1-28.6,23.75645,23.75645,0,0,0-20.4-9.8,19.73077,19.73077,0,0,0-17,8.3,90.216,90.216,0,0,0-10.5,30.7l-3.2,16.1a91.28677,91.28677,0,0,1-20.4,46.3,50.47694,50.47694,0,0,1-37.9,15.5,48.10785,48.10785,0,0,1-39.7-18.9,83.20707,83.20707,0,0,1-14.7-52.3,89.035,89.035,0,0,1,16.2-57.6,59.1815,59.1815,0,0,1,45.5-20.7h.3V230H884.059a31.94021,31.94021,0,0,0-24,10.8,51.04229,51.04229,0,0,0-7.8,31.1,44.47553,44.47553,0,0,0,6.2,25.4,19.89081,19.89081,0,0,0,17.3,8.7,20.9601,20.9601,0,0,0,17.5-8.1,75.77962,75.77962,0,0,0,10.4-29.2l3.2-16.7a104.83739,104.83739,0,0,1,20.1-48.7,47.7372,47.7372,0,0,1,36.9-14.5Zm-36.9,1046.8a104.406,104.406,0,0,0-20.1,48.69995l-3.2,16.7a78.69123,78.69123,0,0,1-10.4,29.19995,20.95985,20.95985,0,0,1-17.5,8.1,19.89062,19.89062,0,0,1-17.3-8.69995,44.476,44.476,0,0,1-6.2-25.4,49.55473,49.55473,0,0,1,7.8-31.1,31.9402,31.9402,0,0,1,24-10.80005h.3v-36h-.3a59.00226,59.00226,0,0,0-45.5,20.7,88.87095,88.87095,0,0,0-16.2,57.6,83.207,83.207,0,0,0,14.7,52.30005,47.83712,47.83712,0,0,0,39.7,18.9,50.11069,50.11069,0,0,0,37.9-15.5,91.66,91.66,0,0,0,20.4-46.3l3.2-16.1a88.12572,88.12572,0,0,1,10.5-30.69995,19.49286,19.49286,0,0,1,17-8.30005,23.75664,23.75664,0,0,1,20.4,9.80005,49.63309,49.63309,0,0,1,7.1,28.6,58.35794,58.35794,0,0,1-8.69995,35,34.63068,34.63068,0,0,1-29.2,12.1h-.3v36.1h.3a62.18822,62.18822,0,0,0,50.30005-21.8,112.78,112.78,0,0,0,2-117.7,51.79226,51.79226,0,0,0-43.7-20.4A46.60847,46.60847,0,0,0,926.959,1235.6Zm91.9-467.9v38h0a47.05826,47.05826,0,0,1-23,5.2l-21,.8a35.4201,35.4201,0,0,0-24.2,7.8,31.605,31.605,0,0,0-6.8,22.5v47h75.1v36.9h-192.4v-87.1c0-4.2.2-8.3.6-12.5v4a74.91034,74.91034,0,0,1,11-36.8l-1.6,2a59.921,59.921,0,0,1,4.6-6.6,48.53893,48.53893,0,0,1,39.8-17.8,44.83482,44.83482,0,0,1,45.8,31.4,36.63019,36.63019,0,0,1,14.3-20.2,52.90613,52.90613,0,0,1,26.7-6.9l28.5-1.6a41.23437,41.23437,0,0,0,22.19995-5.8Zm-133.9,41.4a25.696,25.696,0,0,0-20.8,8.7,37.63955,37.63955,0,0,0-7.2,24.7v46.7h57.6V840.9a34.22027,34.22027,0,0,0-7.6-23.6,28.16413,28.16413,0,0,0-22-8.20007ZM826.659,690.5h192.4V653.6h-192.4Zm33.2-267.8h-33.2V564.4h192.4V422.7H985.85905v105h-49.1V432.8H905.059v94.9h-45.3Zm0,582.3h-33.2V1146.7h192.4V1005H985.85905v105h-49.1v-95H905.059v94.9h-45.3Zm242.6,375.5H1357.659l193.9-266.5-127.6-175.4ZM2220.759,194.5H1965.559l-158.6,218,127.6,175.4Zm-827.79993,0H1137.659L2000.6591,1380.4h255.19995Z" transform="translate(0 0)" style="fill:#fff"/><polygon points="436.7 1180.8 436.7 1253.3 264.9 1377.9 436.7 1502.4 436.7 1574.9 214.4 1414.1 9.5 1562.3 9.5 1489.8 164 1377.9 9.5 1265.9 9.5 1193.4 214.4 1341.6 436.7 1180.8" style="fill:#107c10"/><path d="M252.2,821.4c-17.3,11-30,30-39.4,53.6-20.5-36.3-52-55.2-93-55.2-33.1,0-59.9,11-80.4,34.7-18.9,23.6-30,56.8-30,99.3v192.3H190.7v55.19995l55.2,39.4v-94.6H436.7V945.9c0-45.7-11-80.4-33.1-105.6-20.5-23.6-50.4-36.3-88.3-36.3C291.7,804,271.2,810.3,252.2,821.4ZM67.8,1081.5v-123c0-23.6,4.7-42.6,15.8-55.2s25.2-18.9,44.1-18.9c22.1,0,37.8,6.3,48.9,18.9,9.5,12.6,15.8,30,15.8,55.2v123ZM362.6,890.7c11,14.2,17.3,33.1,17.3,59.9v130.8h-134V950.6c0-26.8,6.3-47.3,17.3-59.9,11-14.2,28.4-20.5,50.4-20.5S351.6,876.5,362.6,890.7Z" transform="translate(0 0)" style="fill:#107c10"/><path d="M132.4,379.9a202.39089,202.39089,0,0,0-70.9,42.6c-20.5,19-36.3,41-45.7,66.2C4.7,513.9,0,542.3,0,573.8a239.66453,239.66453,0,0,0,15.8,85.1c9.5,25.2,25.2,47.3,45.7,66.2a203.89235,203.89235,0,0,0,70.9,42.6q40.2,14.25,89.9,14.2,49.65,0,89.9-14.2a202.39088,202.39088,0,0,0,70.9-42.6c20.5-18.9,36.3-41,45.7-66.2,11-25.2,15.8-53.6,15.8-85.1a239.66488,239.66488,0,0,0-15.8-85.1c-9.5-25.2-25.2-47.3-45.7-66.2a203.89294,203.89294,0,0,0-70.9-42.6q-40.2-14.25-89.9-14.2C190.8,365.7,159.2,370.5,132.4,379.9Zm209.7,89.9c28.4,25.2,44.1,59.9,44.1,102.5S372,649.5,342.1,674.8c-30,26.8-69.4,39.4-119.8,39.4-48.9,0-89.9-12.6-119.8-39.4-30-25.2-44.1-59.9-44.1-102.5s14.2-77.2,44.1-102.5c28.4-25.2,69.4-37.8,119.8-37.8S313.7,444.6,342.1,469.8Z" transform="translate(0 0)" style="fill:#107c10"/><polygon points="214.4 159.2 9.5 11 9.5 83.6 164 195.5 9.5 307.4 9.5 379.9 214.4 231.7 436.7 394.1 436.7 321.6 264.9 197.1 436.7 72.5 436.7 0 214.4 159.2" style="fill:#107c10"/></svg>