<?xml version="1.0" encoding="UTF-8" standalone="no"?>
<svg
   height="169.3197"
   viewBox="0 0 310.15131 84.659851"
   width="620.30261"
   version="1.1"
   id="svg86"
   sodipodi:docname="xegs.svg"
   inkscape:version="1.1.2 (0a00cf5339, 2022-02-04, custom)"
   xmlns:inkscape="http://www.inkscape.org/namespaces/inkscape"
   xmlns:sodipodi="http://sodipodi.sourceforge.net/DTD/sodipodi-0.dtd"
   xmlns="http://www.w3.org/2000/svg"
   xmlns:svg="http://www.w3.org/2000/svg">
  <defs
     id="defs90" />
  <sodipodi:namedview
     id="namedview88"
     pagecolor="#ffffff"
     bordercolor="#666666"
     borderopacity="1.0"
     inkscape:pageshadow="2"
     inkscape:pageopacity="0.0"
     inkscape:pagecheckerboard="0"
     showgrid="false"
     inkscape:zoom="1.2094354"
     inkscape:cx="256.73136"
     inkscape:cy="71.107557"
     inkscape:window-width="1920"
     inkscape:window-height="1017"
     inkscape:window-x="-8"
     inkscape:window-y="-8"
     inkscape:window-maximized="1"
     inkscape:current-layer="svg86" />
  <g
     transform="translate(1.2996859,-2.2211691)"
     id="g84">
    <g
       fill="#ffffff"
       fill-opacity="0.5"
       stroke-width="1.25"
       id="g30">
      <path
         d="m 190.08438,65.683379 q 0,0.12 -0.029,0.202 -0.043,0.122 -0.138,0.122 -0.063,0 -0.132,-0.029 -0.083,-0.035 -0.091,-0.086 0.028,0 0.066,0.01 0.088,0.023 0.11,0.023 0.085,0 0.128,-0.085 0.034,-0.068 0.034,-0.163 0,-0.067 -0.044,-0.191 -0.043,-0.125 -0.043,-0.174 0,-0.015 0.008,-0.024 0.009,-0.01 0.024,-0.01 0.039,0 0.076,0.18 0.031,0.152 0.031,0.225 z"
         id="path2" />
      <path
         d="m 190.46938,65.785379 q 0,0.102 -0.059,0.16 -0.059,0.058 -0.163,0.058 -0.057,0 -0.088,-0.027 -0.031,-0.027 -0.031,-0.083 0,-0.079 0.103,-0.159 0.098,-0.076 0.181,-0.076 0.038,0 0.05,0.047 0.007,0.027 0.007,0.08 z m -0.061,0.028 q 0,-0.012 -0.003,-0.023 -0.002,-0.012 -0.008,-0.027 -0.016,0.011 -0.053,0.054 -0.019,0.022 -0.033,0.032 0,-0.019 0.004,-0.031 0.008,-0.017 0.013,-0.029 -0.044,0 -0.092,0.037 -0.047,0.037 -0.047,0.08 0,0.029 0.032,0.029 0.061,0 0.118,-0.03 0.069,-0.036 0.069,-0.092 z"
         id="path4" />
      <path
         d="m 190.88138,65.826379 q 0,0.049 -0.037,0.11 -0.042,0.069 -0.087,0.069 -0.013,0 -0.022,-0.014 -0.008,-0.015 -0.008,-0.029 0,-0.018 0.038,-0.056 0.039,-0.039 0.039,-0.053 0,-0.009 -0.003,-0.018 -0.003,-0.009 -0.004,-0.012 -0.075,0.017 -0.153,0.086 -0.077,0.069 -0.117,0.078 -0.008,-0.022 -0.008,-0.045 0,-0.028 0.013,-0.059 0.009,-0.022 0.03,-0.053 0.035,-0.053 0.074,-0.12 0.02,-0.035 0.069,-0.121 0.05,-0.086 0.073,-0.122 0.012,-0.018 0.021,-0.027 0.013,-0.012 0.031,-0.016 0.012,0.004 0.017,0.015 0.006,0.011 0.006,0.026 0,0.034 -0.044,0.092 -0.08,0.104 -0.082,0.108 -0.045,0.068 -0.045,0.123 l 0.002,0.01 q 0.055,-0.027 0.065,-0.031 0.041,-0.017 0.07,-0.017 0.032,0 0.047,0.022 0.015,0.021 0.015,0.054 z"
         id="path6" />
      <path
         d="m 191.34538,65.767379 q 0,0.068 -0.033,0.145 -0.036,0.085 -0.089,0.117 -0.011,-0.013 -0.019,-0.029 -0.007,-0.016 -0.007,-0.032 0,-0.017 0.05,-0.101 0.022,-0.037 0.02,-0.065 l -0.001,-0.013 q -0.037,0.011 -0.128,0.067 -0.09,0.055 -0.182,0.112 -0.014,0 -0.026,-0.01 -0.011,-0.011 -0.011,-0.024 0,-0.021 0.067,-0.141 0.02,-0.036 0.072,-0.125 0.016,0.021 0.021,0.047 0.005,0.025 0.005,0.06 0,0.015 0,0.023 0.092,-0.055 0.144,-0.083 0.057,-0.031 0.078,-0.031 0.014,0 0.026,0.032 0.013,0.032 0.013,0.051 z"
         id="path8" />
      <path
         d="m 192.21438,65.961379 q 0,0.018 -0.016,0.028 -0.015,0.009 -0.034,0.009 -0.017,0 -0.043,-0.004 -0.059,-0.009 -0.076,-0.009 -0.03,0 -0.118,0.007 -0.05,0.004 -0.072,0.004 -0.061,0 -0.061,-0.061 0,-0.058 0.038,-0.166 0.021,-0.061 0.079,-0.2 0.052,-0.125 0.066,-0.176 0.005,-0.016 0.008,-0.021 0.008,-0.012 0.02,-0.012 0.019,0 0.032,0.028 0.013,0.027 0.013,0.049 0,0.035 -0.041,0.118 -0.041,0.082 -0.08,0.161 -0.043,0.094 -0.043,0.143 0,0.025 0.021,0.035 0.015,0.007 0.044,0.007 0.022,0 0.076,-0.005 0.054,-0.006 0.072,-0.006 0.045,0 0.074,0.013 0.041,0.018 0.041,0.058 z"
         id="path10" />
      <path
         d="m 192.58638,65.785379 q 0,0.102 -0.059,0.16 -0.059,0.058 -0.163,0.058 -0.057,0 -0.088,-0.027 -0.031,-0.027 -0.031,-0.083 0,-0.079 0.103,-0.159 0.098,-0.076 0.181,-0.076 0.038,0 0.05,0.047 0.007,0.027 0.007,0.08 z m -0.061,0.028 q 0,-0.012 -0.003,-0.023 -0.002,-0.012 -0.008,-0.027 -0.016,0.011 -0.053,0.054 -0.019,0.022 -0.033,0.032 0,-0.019 0.004,-0.031 0.008,-0.017 0.013,-0.029 -0.044,0 -0.092,0.037 -0.047,0.037 -0.047,0.08 0,0.029 0.032,0.029 0.061,0 0.118,-0.03 0.069,-0.036 0.069,-0.092 z"
         id="path12" />
      <path
         d="m 193.00738,65.764379 q 0,0.032 -0.017,0.068 -0.016,0.036 -0.041,0.06 l -0.001,-0.014 q 0,-0.012 0.003,-0.037 0.003,-0.025 0.003,-0.037 0,-0.017 -0.005,-0.025 -0.005,-0.009 -0.021,-0.009 -0.047,0 -0.117,0.073 -0.076,0.08 -0.151,0.159 -0.006,0 -0.012,-0.001 -0.015,-0.004 -0.02,-0.005 0.003,-0.036 0.025,-0.08 0.059,-0.119 0.061,-0.127 0.008,-0.032 0.012,-0.047 0.004,-0.015 0.011,-0.031 0.008,-0.017 0.018,-0.03 0.011,-0.014 0.028,-0.021 l 0.01,0.12 q 0.043,-0.035 0.066,-0.054 0.044,-0.035 0.076,-0.035 0.032,0 0.052,0.021 0.02,0.021 0.02,0.052 z"
         id="path14" />
      <path
         d="m 193.49838,65.648379 q 0,0.042 -0.112,0.111 -0.108,0.066 -0.157,0.066 -0.023,0 -0.031,-0.016 -0.007,-0.016 -0.007,-0.045 0,-0.019 0,-0.027 0.067,0 0.122,-0.02 0.055,-0.02 0.096,-0.066 -0.03,-0.011 -0.061,-0.011 -0.073,0 -0.155,0.056 -0.09,0.061 -0.09,0.13 0,0.066 0.09,0.092 0.014,0.004 0.169,0.028 0.091,0.014 0.091,0.049 0,0.015 -0.033,0.024 -0.033,0.01 -0.084,0.01 -0.128,0 -0.202,-0.039 -0.098,-0.052 -0.098,-0.167 0,-0.12 0.12,-0.191 0.102,-0.06 0.232,-0.06 0.039,0 0.071,0.018 0.039,0.022 0.039,0.058 z"
         id="path16" />
      <path
         d="m 193.89638,65.469379 q 0,0.022 -0.053,0.092 -0.053,0.07 -0.053,0.107 0,0.019 0.022,0.038 0.05,0.044 0.05,0.054 0,0.013 -0.009,0.025 -0.008,0.012 -0.021,0.012 -0.011,0 -0.031,-0.012 -0.014,-0.008 -0.054,-0.039 -0.015,0.029 -0.023,0.044 -0.028,0.053 -0.038,0.077 -0.015,0.046 -0.03,0.092 -0.026,0.062 -0.065,0.062 l -10e-4,-0.023 q 0,-0.071 0.046,-0.168 0.009,-0.018 0.05,-0.093 -0.079,-0.043 -0.174,-0.043 0,-0.037 0.015,-0.054 0.016,-0.018 0.053,-0.018 0.034,0 0.085,0.012 0.025,0.006 0.05,0.012 0.019,-0.006 0.052,-0.065 0.081,-0.142 0.11,-0.163 0.008,0.013 0.013,0.026 0.006,0.013 0.006,0.025 z"
         id="path18" />
      <path
         d="m 194.26538,65.826379 q 0,0.049 -0.037,0.11 -0.042,0.069 -0.087,0.069 -0.013,0 -0.022,-0.014 -0.008,-0.015 -0.008,-0.029 0,-0.018 0.038,-0.056 0.039,-0.039 0.039,-0.053 0,-0.009 -0.003,-0.018 -0.003,-0.009 -0.004,-0.012 -0.075,0.017 -0.153,0.086 -0.077,0.069 -0.117,0.078 -0.008,-0.022 -0.008,-0.045 0,-0.028 0.013,-0.059 0.009,-0.022 0.03,-0.053 0.035,-0.053 0.074,-0.12 0.02,-0.035 0.069,-0.121 0.05,-0.086 0.073,-0.122 0.012,-0.018 0.021,-0.027 0.013,-0.012 0.031,-0.016 0.012,0.004 0.017,0.015 0.006,0.011 0.006,0.026 0,0.034 -0.044,0.092 -0.08,0.104 -0.082,0.108 -0.045,0.068 -0.045,0.123 l 0.002,0.01 q 0.055,-0.027 0.065,-0.031 0.041,-0.017 0.07,-0.017 0.032,0 0.047,0.022 0.015,0.021 0.015,0.054 z"
         id="path20" />
      <path
         d="m 195.08638,65.500379 q 0,0.047 -0.05,0.126 -0.032,0.05 -0.105,0.144 -0.073,0.093 -0.091,0.122 0.003,10e-4 0.075,0.024 0.073,0.022 0.073,0.08 -0.03,0.005 -0.059,0.009 l -0.011,-0.001 v -0.008 q -0.016,-0.004 -0.026,-0.004 -0.019,0 -0.06,0.006 -0.041,0.006 -0.062,0.006 -0.027,0 -0.044,-0.01 -0.017,-0.01 -0.017,-0.036 0,-0.021 0.077,-0.119 0.144,-0.183 0.145,-0.185 0.078,-0.106 0.078,-0.142 0,-0.014 -0.01,-0.021 -0.009,-0.007 -0.037,-0.007 -0.019,0 -0.079,0.037 -0.029,0.018 -0.047,0.018 l -0.017,-0.003 q -0.006,-0.004 -0.013,-0.015 -0.007,-0.012 -0.007,-0.019 0,-0.042 0.081,-0.077 0.069,-0.03 0.12,-0.03 0.043,0 0.066,0.032 0.02,0.028 0.02,0.073 z"
         id="path22" />
      <path
         d="m 195.68738,65.680379 q 0,0.121 -0.131,0.214 -0.12,0.085 -0.247,0.085 -0.063,0 -0.1,-0.032 -0.037,-0.032 -0.037,-0.093 0,-0.136 0.119,-0.236 0.113,-0.095 0.253,-0.095 0.071,0 0.107,0.042 0.036,0.042 0.036,0.115 z m -0.061,0.023 q 0,-0.046 -0.052,-0.069 -0.039,-0.017 -0.093,-0.017 -0.079,0 -0.165,0.077 -0.086,0.077 -0.086,0.155 0,0.032 0.016,0.046 0.017,0.013 0.051,0.013 0.098,0 0.204,-0.054 0.125,-0.064 0.125,-0.151 z"
         id="path24" />
      <path
         d="m 196.14538,65.500379 q 0,0.047 -0.05,0.126 -0.032,0.05 -0.105,0.144 -0.073,0.093 -0.091,0.122 0.003,10e-4 0.075,0.024 0.073,0.022 0.073,0.08 -0.03,0.005 -0.059,0.009 l -0.011,-0.001 v -0.008 q -0.016,-0.004 -0.026,-0.004 -0.019,0 -0.06,0.006 -0.041,0.006 -0.062,0.006 -0.027,0 -0.044,-0.01 -0.017,-0.01 -0.017,-0.036 0,-0.021 0.077,-0.119 0.144,-0.183 0.145,-0.185 0.078,-0.106 0.078,-0.142 0,-0.014 -0.01,-0.021 -0.009,-0.007 -0.037,-0.007 -0.019,0 -0.079,0.037 -0.029,0.018 -0.047,0.018 l -0.017,-0.003 q -0.006,-0.004 -0.013,-0.015 -0.007,-0.012 -0.007,-0.019 0,-0.042 0.081,-0.077 0.069,-0.03 0.12,-0.03 0.043,0 0.066,0.032 0.02,0.028 0.02,0.073 z"
         id="path26" />
      <path
         d="m 196.60538,65.500379 q 0,0.047 -0.05,0.126 -0.032,0.05 -0.105,0.144 -0.073,0.093 -0.091,0.122 0.003,10e-4 0.075,0.024 0.073,0.022 0.073,0.08 -0.03,0.005 -0.059,0.009 l -0.011,-0.001 v -0.008 q -0.016,-0.004 -0.026,-0.004 -0.019,0 -0.06,0.006 -0.041,0.006 -0.062,0.006 -0.027,0 -0.044,-0.01 -0.017,-0.01 -0.017,-0.036 0,-0.021 0.077,-0.119 0.144,-0.183 0.145,-0.185 0.078,-0.106 0.078,-0.142 0,-0.014 -0.01,-0.021 -0.009,-0.007 -0.037,-0.007 -0.019,0 -0.079,0.037 -0.029,0.018 -0.047,0.018 l -0.017,-0.003 q -0.006,-0.004 -0.013,-0.015 -0.007,-0.012 -0.007,-0.019 0,-0.042 0.081,-0.077 0.069,-0.03 0.12,-0.03 0.043,0 0.066,0.032 0.02,0.028 0.02,0.073 z"
         id="path28" />
    </g>
    <path
       d="M 93.673359,81.689362 H 75.396629 L 104.24232,42.706653 77.97156,7.2037624 95.155714,7.1199902 112.86539,31.053241 130.51307,7.2037621 l 18.27673,3e-7 -26.78605,36.1992696 24.43621,33.023644 V 50.800002 H 135.55714 L 167.81666,7.2037624 h 34.66651 L 191.41323,21.506575 h -24.97328 v 15.693426 h 35.61747 l -10.49664,14.080001 h -25.12083 v 15.839999 h 35.43526 L 191.09445,81.689362 H 133.088 L 113.38068,55.056444 Z"
       style="opacity:0.98;fill:#d03c3b;stroke:#efd828;stroke-width:2;stroke-linecap:round;stroke-linejoin:round"
       id="path32" />
    <g
       fill="#324cab"
       stroke="#ffffff"
       stroke-width="1.5"
       id="g82">
      <g
         transform="scale(1.0795133,0.92634338)"
         id="g44">
        <path
           d="M 21.610554,58.527068 H 16.303389 L 14.470392,52.026323 H 6.9039516 L 5.0496408,58.527068 H -0.21489667 L 7.2449742,31.905986 q 0.8951846,-3.15446 3.4528548,-3.15446 2.536356,0 3.452854,3.15446 z m -8.54688,-11.594771 -2.365845,-8.397683 -2.365845,8.397683 z"
           id="path34" />
        <path
           d="M 33.311894,33.845552 H 27.493195 V 58.527068 H 22.399168 V 33.845552 h -5.818699 v -5.094026 h 16.731425 z"
           id="path36" />
        <path
           d="m 50.149889,58.527068 h -5.307165 l -1.832997,-6.500745 h -7.56644 l -1.854311,6.500745 h -5.264537 l 7.45987,-26.621082 q 0.895185,-3.15446 3.452855,-3.15446 2.536356,0 3.452855,3.15446 z m -8.54688,-11.594771 -2.365845,-8.397683 -2.365845,8.397683 z"
           id="path38" />
        <path
           d="m 68.692997,58.527068 h -5.925269 l -6.117094,-9.548635 q -1.342777,-2.06745 -1.342777,-3.239715 0,-2.195334 1.896938,-3.580738 0.895185,-0.49022 1.747742,-0.98044 0.852556,-0.49022 1.747741,-0.98044 1.896938,-1.257522 1.896938,-3.090518 0,-1.257522 -1.001754,-2.259276 -1.001754,-1.001754 -2.280589,-1.001754 H 55.307857 V 58.527068 H 50.213831 V 32.012555 q 0,-1.300148 0.98044,-2.280589 0.98044,-0.98044 2.301903,-0.98044 h 5.818699 q 3.282343,0 5.8187,2.365845 2.536356,2.344531 2.536356,5.626874 0,3.04789 -1.982195,5.562932 -1.96088,2.493729 -4.966142,3.559424 z"
           id="path40" />
        <path
           d="M 75.492137,58.527068 H 70.398111 V 28.751526 h 5.094026 z"
           id="path42" />
      </g>
      <g
         transform="scale(1.0121278,0.98801752)"
         id="g56">
        <path
           d="m 224.32602,3.3816657 -5.66999,19.3446993 q -0.61703,2.151264 -1.10065,2.78497 -0.93388,1.234058 -2.56818,1.234058 -1.40082,0 -2.28467,-0.917205 -0.86718,-0.933882 -1.46753,-3.051793 L 205.66506,3.3816657 h 5.06965 l 4.23582,16.2762303 4.38591,-16.2762303 z"
           id="path46" />
        <path
           d="M 231.23008,3.3816657 V 26.145041 h -4.63606 V 3.3816657 Z"
           id="path48" />
        <path
           d="m 235.44923,8.1511347 q 0,-1.184029 0.11673,-1.7843817 0.13341,-0.6170292 0.5003,-1.2507349 0.60035,-1.0005879 1.53423,-1.3674701 0.93388,-0.3835587 2.85168,-0.3835587 3.20188,0 5.23641,0.8504997 3.33529,1.3841466 5.26976,4.4359397 1.7677,2.7682933 1.7677,6.1035863 0,4.736116 -3.30194,8.038056 -2.9017,2.901705 -6.70393,3.251911 -1.18403,0.116735 -2.58486,0.116735 -1.43417,0 -2.268,-0.2835 -0.81714,-0.2835 -1.46752,-0.983911 -0.567,-0.61703 -0.76712,-1.467529 -0.18344,-0.8505 -0.18344,-2.734941 z m 4.63605,13.5079363 q 0.26683,0 0.60036,0 1.65097,0 2.835,-0.366882 1.18403,-0.383559 2.16794,-1.234058 1.00058,-0.8505 1.65097,-2.067882 0.81714,-1.567588 0.81714,-3.218558 0,-1.450852 -0.65038,-2.868352 -0.65038,-1.417499 -1.7677,-2.3680577 -1.95115,-1.6676465 -5.08633,-1.6676465 -0.15008,0 -0.567,0.016676 z"
           id="path50" />
        <path
           d="m 267.05113,3.3816657 v 4.4526162 h -6.72062 v 4.2691751 h 6.27035 v 4.335881 h -6.27035 v 5.23641 h 6.72062 v 4.469293 h -6.67059 q -1.51756,0 -2.3347,-0.266824 -0.80047,-0.2835 -1.40083,-0.983911 -0.51697,-0.600353 -0.73376,-1.434176 -0.2168,-0.833824 -0.2168,-2.134588 V 8.2011641 q 0,-2.6348815 1.0673,-3.7188517 1.06729,-1.1006467 3.61879,-1.1006467 z"
           id="path52" />
        <path
           d="m 281.42624,2.998107 q 4.86953,0 8.33823,3.5520871 3.35197,3.4019988 3.35197,8.4049379 0,3.101823 -1.701,5.903469 -1.61761,2.684911 -4.36923,4.202469 -2.63488,1.450853 -5.68667,1.450853 -3.06847,0 -5.73671,-1.484206 -2.86835,-1.584264 -4.48597,-4.402586 -1.56759,-2.751617 -1.56759,-5.870116 0,-5.2697631 4.00236,-8.8385266 3.23523,-2.868352 7.85461,-2.9183814 z m -0.0333,4.5026456 q -3.25191,0 -5.41985,2.5014694 -1.75103,2.017853 -1.75103,4.752793 0,3.335293 2.45144,5.486557 2.03453,1.784382 4.70276,1.784382 3.25191,0 5.3865,-2.534823 1.71768,-2.067882 1.71768,-4.619381 0,-3.201881 -2.31803,-5.419851 -1.95115,-1.8844406 -4.76947,-1.9511464 z"
           id="path54" />
      </g>
      <g
         transform="scale(1.0127197,0.98744005)"
         id="g66">
        <path
           d="m 218.20663,44.263557 h 8.44508 q 1.50209,0 2.25314,0.734355 0.80111,0.801115 0.80111,2.086237 0,1.151602 -0.6509,2.703762 -0.65091,1.53547 -1.68568,2.820592 -1.63561,2.052857 -3.93882,3.204459 -2.4701,1.235053 -5.25731,1.235053 -3.03756,0 -5.67457,-1.452021 -2.87066,-1.56885 -4.53965,-4.422822 -1.60223,-2.753832 -1.60223,-5.908222 0,-3.271219 1.68568,-6.075121 1.63561,-2.720452 4.40613,-4.255922 2.6537,-1.468711 5.70795,-1.468711 3.00418,0 5.54104,1.385261 2.55355,1.385261 4.32268,3.988884 l -3.88874,2.520174 q -0.70098,-1.101533 -1.60223,-1.802508 -2.00279,-1.56885 -4.40613,-1.56885 -1.88596,0 -3.57164,1.001393 -1.68568,1.001394 -2.637,2.720453 -0.90126,1.63561 -0.90126,3.554947 0,3.371359 2.47011,5.524355 2.01947,1.752438 4.65648,1.752438 2.05285,0 3.65508,-1.001393 1.61892,-1.018084 2.68708,-2.987491 h -6.2754 z"
           id="path58" />
        <path
           d="m 248.43202,56.647457 h -5.04035 l -1.13491,-4.422821 h -6.14188 l -1.1516,4.422821 h -4.89014 l 5.54104,-19.844282 q 0.38387,-1.401951 1.05147,-2.169687 1.03477,-1.184982 2.53686,-1.184982 2.60362,0 3.57164,3.388048 z m -7.27679,-8.795573 -1.9861,-7.677351 -1.93603,7.677351 z"
           id="path60" />
        <path
           d="M 272.09829,56.647457 H 267.4585 V 43.312233 l -3.00418,10.714911 q -0.36718,1.335191 -0.60084,1.785818 -0.61752,1.168293 -2.10292,1.168293 -1.4854,0 -2.13631,-1.201672 -0.26704,-0.484007 -0.68429,-1.785819 l -3.4548,-10.84843 v 13.502123 h -4.63979 V 38.655753 q 0,-1.518781 0.0668,-2.119617 0.0668,-0.600836 0.30041,-1.084843 0.36718,-0.801115 1.21837,-1.301811 0.85118,-0.517387 1.78581,-0.517387 0.80112,0 1.53547,0.367178 0.73436,0.367177 1.1683,0.968013 0.3171,0.467317 0.45062,0.817805 0.15021,0.333798 0.63422,1.902648 l 3.60502,11.382507 3.17108,-11.332437 q 0.40055,-1.468711 0.55076,-1.852579 0.15021,-0.383867 0.5007,-0.884564 0.95132,-1.351881 2.70376,-1.351881 1.01809,0 1.85258,0.517386 0.85118,0.500697 1.26843,1.385262 0.45063,0.934634 0.45063,3.05425 z"
           id="path62" />
        <path
           d="m 287.55313,33.865753 v 4.456202 h -6.72602 v 4.272612 h 6.2754 v 4.339372 h -6.2754 v 5.240627 h 6.72602 v 4.472891 h -6.67595 q -1.51878,0 -2.33659,-0.267038 -0.80111,-0.283728 -1.40195,-0.984704 -0.51739,-0.600836 -0.73435,-1.435331 -0.21697,-0.834494 -0.21697,-2.136306 V 38.689132 q 0,-2.637003 1.06815,-3.721846 1.06815,-1.101533 3.62171,-1.101533 z"
           id="path64" />
      </g>
      <g
         transform="scale(1.0101657,0.9899366)"
         id="g80">
        <path
           d="m 219.41402,64.272592 v 4.724028 q -2.42002,-1.127136 -4.37594,-1.127136 -1.5581,0 -2.42003,0.812201 -0.8122,0.762475 -0.8122,1.790158 0,1.011108 0.62987,1.541525 0.62987,0.530417 2.3703,0.977957 2.2377,0.580144 3.11621,0.994532 0.89507,0.397813 1.6244,1.193439 1.75701,1.889611 1.75701,4.674302 0,3.431136 -2.48634,5.453351 -2.10509,1.707281 -5.50307,1.707281 -2.38688,0 -5.76829,-1.093986 v -4.806906 q 3.54716,1.491799 5.86774,1.491799 1.50837,0 2.33715,-0.729324 0.86193,-0.762475 0.86193,-1.889611 0,-1.326043 -1.19344,-1.939338 -0.49727,-0.248633 -2.42003,-0.729324 -3.49744,-0.878503 -4.79033,-2.917294 -1.04426,-1.657554 -1.04426,-3.646619 0,-2.502906 1.54153,-4.475395 1.09398,-1.40892 2.56921,-2.038791 1.49179,-0.646446 3.67976,-0.646446 2.12167,0 4.45882,0.679597 z"
           id="path68" />
        <path
           d="m 232.19376,86.616417 h -4.59142 v -9.796143 l -6.01692,-12.829466 h 5.03896 l 3.36484,7.823654 3.53059,-7.823654 h 4.88978 l -6.21583,12.829466 z"
           id="path70" />
        <path
           d="m 250.90754,64.272592 v 4.724028 q -2.42002,-1.127136 -4.37594,-1.127136 -1.5581,0 -2.42003,0.812201 -0.8122,0.762475 -0.8122,1.790158 0,1.011108 0.62987,1.541525 0.62987,0.530417 2.37031,0.977957 2.23769,0.580144 3.1162,0.994532 0.89508,0.397813 1.6244,1.193439 1.75701,1.889611 1.75701,4.674302 0,3.431136 -2.48633,5.453351 -2.1051,1.707281 -5.50308,1.707281 -2.38688,0 -5.76829,-1.093986 v -4.806906 q 3.54716,1.491799 5.86774,1.491799 1.50837,0 2.33715,-0.729324 0.86193,-0.762475 0.86193,-1.889611 0,-1.326043 -1.19344,-1.939338 -0.49727,-0.248633 -2.42003,-0.729324 -3.49744,-0.878503 -4.79033,-2.917294 -1.04426,-1.657554 -1.04426,-3.646619 0,-2.502906 1.54153,-4.475395 1.09398,-1.40892 2.56921,-2.038791 1.49179,-0.646446 3.67977,-0.646446 2.12166,0 4.45881,0.679597 z"
           id="path72" />
        <path
           d="m 266.588,63.990808 v 4.425669 h -4.30964 v 18.19994 h -4.608 v -18.19994 h -4.24333 v -4.425669 z"
           id="path74" />
        <path
           d="m 280.24625,63.990808 v 4.425669 h -6.67995 v 4.243337 h 6.23241 v 4.30964 h -6.23241 v 5.204719 h 6.67995 v 4.442244 h -6.63022 q -1.50837,0 -2.32057,-0.265209 -0.79563,-0.281784 -1.39235,-0.977956 -0.51384,-0.59672 -0.72932,-1.425497 -0.21549,-0.828777 -0.21549,-2.121668 V 68.781138 q 0,-2.618934 1.06084,-3.696344 1.06083,-1.093986 3.59689,-1.093986 z"
           id="path76" />
        <path
           d="m 304.99353,86.616417 h -4.608 V 73.372562 l -2.9836,10.641496 q -0.36466,1.326043 -0.59672,1.773582 -0.61329,1.160288 -2.08852,1.160288 -1.47522,0 -2.12166,-1.193439 -0.26521,-0.480691 -0.6796,-1.773583 l -3.43114,-10.774099 v 13.40961 h -4.608 v -17.86843 q 0,-1.508374 0.0663,-2.105093 0.0663,-0.596719 0.29836,-1.07741 0.36467,-0.795626 1.21002,-1.292892 0.84535,-0.513841 1.77358,-0.513841 0.79563,0 1.52495,0.364661 0.72932,0.364662 1.16029,0.961382 0.31493,0.464115 0.44754,0.812201 0.14918,0.331511 0.62987,1.889611 l 3.58031,11.304517 3.14936,-11.25479 q 0.39781,-1.458648 0.54699,-1.839885 0.14918,-0.381237 0.49727,-0.878503 0.9448,-1.342619 2.68523,-1.342619 1.01111,0 1.83989,0.513842 0.84535,0.497266 1.25974,1.375769 0.44754,0.92823 0.44754,3.033324 z"
           id="path78" />
      </g>
    </g>
  </g>
</svg>
