<?xml version="1.0" encoding="UTF-8" standalone="no"?>
<svg
   height="146.30859"
   viewBox="0 0 553.61006 58.523438"
   width="1384.0251"
   version="1.1"
   id="svg38"
   sodipodi:docname="xrick.svg"
   inkscape:version="1.1.2 (0a00cf5339, 2022-02-04, custom)"
   xmlns:inkscape="http://www.inkscape.org/namespaces/inkscape"
   xmlns:sodipodi="http://sodipodi.sourceforge.net/DTD/sodipodi-0.dtd"
   xmlns="http://www.w3.org/2000/svg"
   xmlns:svg="http://www.w3.org/2000/svg">
  <defs
     id="defs42" />
  <sodipodi:namedview
     id="namedview40"
     pagecolor="#ffffff"
     bordercolor="#666666"
     borderopacity="1.0"
     inkscape:pageshadow="2"
     inkscape:pageopacity="0.0"
     inkscape:pagecheckerboard="0"
     showgrid="false"
     inkscape:zoom="0.38619237"
     inkscape:cx="394.88092"
     inkscape:cy="-72.502727"
     inkscape:window-width="1920"
     inkscape:window-height="1017"
     inkscape:window-x="-8"
     inkscape:window-y="-8"
     inkscape:window-maximized="1"
     inkscape:current-layer="svg38" />
  <g
     stroke-width="2.5"
     transform="translate(-16.424772,-91.539841)"
     id="g36">
    <path
       d="m 122.1379,149.75078 q 0,-1.21094 0.85937,-2.07031 0.85938,-0.85938 2.07032,-0.85938 V 96.821091 q -1.21094,0 -2.07032,-0.859375 -0.85937,-0.859375 -0.85937,-2.070313 h 16.75781 q 0,1.210938 -0.85937,2.070313 -0.85938,0.859375 -2.07032,0.859375 v 20.859379 l 11.75782,-23.789067 h 13.82812 q 0,1.640625 -1.48437,2.5 -0.46875,0.3125 -1.44532,0.390625 l -12.65625,25.039062 12.65625,25 q 1.21094,0 2.07032,0.85938 0.85937,0.85937 0.85937,2.07031 h -13.82812 l -11.75782,-23.82813 v 20.89844 q 1.21094,0 2.07032,0.85938 0.85937,0.85937 0.85937,2.07031 z M 93.749144,138.85234 q 0,1.21094 0.859375,2.07031 0.859375,0.85938 2.070312,0.85938 h 5.859379 q 1.21093,0 2.07031,-0.85938 0.85937,-0.85937 0.85937,-2.07031 v -6.17187 h 12.10938 q 0,1.99218 -1.83594,2.73437 0.625,1.75781 0.625,3.63281 v 0.35157 q 0,4.375 -3.125,7.5 -3.125,3.125 -7.5,3.125 H 93.475706 q -4.375,0 -7.5,-3.125 -3.125,-3.125 -3.125,-7.5 v -35.23438 q 0,-4.374999 3.125,-7.499999 3.125,-3.125 7.5,-3.125 h 12.265624 q 4.375,0 7.5,3.125 3.125,3.125 3.125,7.499999 v 0.35156 q 0,1.875 -0.625,3.63282 1.83594,0.74218 1.83594,2.73437 h -12.10938 v -6.17187 q 0,-1.21094 -0.85937,-2.07032 -0.85938,-0.85937 -2.07031,-0.85937 h -5.859379 q -1.210937,0 -2.070312,0.85937 -0.859375,0.85938 -0.859375,2.07032 z m -33.388749,10.89844 q 0,-1.21094 0.859375,-2.07031 0.859375,-0.85938 2.070313,-0.85938 V 96.782028 q -1.210938,0 -2.070313,-0.859375 -0.859375,-0.859375 -0.859375,-2.070312 h 16.757813 q 0,1.210937 -0.859375,2.070312 -0.859375,0.859375 -2.070313,0.859375 v 50.039062 q 1.210938,0 2.070313,0.85938 0.859375,0.85937 0.859375,2.07031 z m -18.388748,-44.6875 q 0,-1.21094 -0.859375,-2.07031 -0.859375,-0.89844 -2.070312,-0.89844 h -8.789063 v 15.58594 h 8.789063 q 1.210937,0 2.070312,-0.85938 0.859375,-0.85937 0.859375,-2.07031 z m 0.664063,16.71875 q 4.21875,0.15625 7.226562,3.24219 3.007813,3.125 3.007813,7.42187 v 14.375 q 1.210937,0 2.070312,0.85938 0.859375,0.85937 0.859375,2.07031 H 41.971647 v -20.89844 q 0,-1.21094 -0.859375,-2.07031 -0.820312,-0.85938 -2.03125,-0.85938 h -8.828125 v 20.89844 q 1.210938,0 2.070313,0.85938 0.859375,0.85937 0.859375,2.07031 H 16.424772 q 0,-1.21094 0.859375,-2.07031 0.859375,-0.85938 2.070313,-0.85938 V 96.782028 q -1.210938,0 -2.070313,-0.859375 -0.859375,-0.859375 -0.859375,-2.070312 h 25.820313 q 4.375,0 7.5,3.125 3.125,3.124999 3.125,7.499999 v 6.67969 q 0,4.29687 -3.007813,7.38281 -3.007812,3.125 -7.226562,3.24219 z m 515.25524,7.07031 q 0,-1.21093 -0.86462,-2.07031 -0.86461,-0.85937 -2.08293,-0.85937 h -9.11776 q -4.44097,0 -7.58502,-3.125 -3.10476,-3.125 -3.10476,-7.5 v -11.13281 q 0,-4.375001 3.10476,-7.499997 3.14405,-3.124999 7.58502,-3.124999 h 12.34041 q 4.40168,0 7.54573,3.124999 3.14405,3.124996 3.14405,7.499997 v 0.35156 q 0,1.875 -0.66811,3.63281 1.84713,0.74219 1.84713,2.73438 h -12.1439 v -6.17187 q 0,-1.21094 -0.86462,-2.07031 -0.86461,-0.85939 -2.08293,-0.85939 h -5.8951 q -1.21832,0 -2.08293,0.85939 -0.86462,0.85937 -0.86462,2.07031 v 10.03906 q 0,1.21093 0.86462,2.07031 0.86461,0.85937 2.08293,0.85937 h 9.11775 q 4.40168,0 7.54573,3.125 3.14405,3.125 3.14405,7.5 v 11.09375 q 0,4.375 -3.14405,7.5 -3.14405,3.125 -7.54573,3.125 h -12.34041 q -4.44097,0 -7.58502,-3.125 -3.10476,-3.125 -3.10476,-7.5 v -0.35156 q 0,-1.875 0.62882,-3.63281 -1.84714,-0.74219 -1.84714,-2.73438 h 12.18321 v 6.17187 q 0,1.21094 0.86462,2.07031 0.86461,0.85937 2.08293,0.85937 h 5.8951 q 1.21832,0 2.08293,-0.85937 0.86462,-0.85937 0.86462,-2.07031 z m -42.8673,-32.070299 q -1.21831,0 -2.08293,-0.859375 -0.86461,-0.859375 -0.86461,-2.070312 h 16.85998 q 0,1.210937 -0.86462,2.070312 -0.86461,0.859375 -2.08293,0.859375 v 42.617179 q 0,4.375 -3.14405,7.5 -3.14405,3.125 -7.54573,3.125 h -12.34041 q -4.40167,0 -7.54573,-3.125 -3.14405,-3.125 -3.14405,-7.5 V 96.782041 q -1.21832,0 -2.08293,-0.859375 -0.86462,-0.859375 -0.86462,-2.070312 h 16.85999 q 0,1.210937 -0.86461,2.070312 -0.86463,0.859375 -2.08295,0.859375 v 42.070299 q 0,1.21094 0.86462,2.07031 0.86461,0.85937 2.08294,0.85937 h 5.8951 q 1.21832,0 2.08293,-0.85937 0.86461,-0.85937 0.86461,-2.07031 z m -31.47008,42.656239 q 0,4.375 -3.14405,7.5 -3.14405,3.125 -7.54573,3.125 h -12.34041 q -4.40167,0 -7.54573,-3.125 -3.14405,-3.125 -3.14405,-7.5 v -35.23437 q 0,-4.375 3.14405,-7.499994 3.14406,-3.125 7.54573,-3.125 h 12.34041 q 4.40168,0 7.54573,3.125 3.14405,3.124994 3.14405,7.499994 z m -13.91243,2.38282 q 1.21832,0 2.08293,-0.85938 0.86461,-0.85938 0.86461,-2.07032 v -34.14061 q 0,-1.21094 -0.86461,-2.07031 -0.86461,-0.85937 -2.08293,-0.85937 h -5.8951 q -1.21833,0 -2.08294,0.85937 -0.86462,0.85937 -0.86462,2.07031 v 34.14061 q 0,1.21094 0.86462,2.07032 0.86461,0.85938 2.08294,0.85938 z m -38.3084,-36.75781 q 0,-1.21094 -0.86462,-2.07031 -0.86462,-0.89844 -2.08293,-0.89844 h -8.84265 v 15.58593 h 8.84265 q 1.21831,0 2.08293,-0.85937 0.86462,-0.85938 0.86462,-2.07031 z m 0.66811,16.71874 q 4.24447,0.15626 7.27062,3.2422 3.02615,3.12499 3.02615,7.42186 v 14.375 q 1.21833,0 2.08294,0.85938 0.86461,0.85937 0.86461,2.07031 h -13.91243 v -20.89844 q 0,-1.21093 -0.86462,-2.07031 -0.82531,-0.85937 -2.04363,-0.85937 h -8.88195 v 20.89843 q 1.21832,0 2.08293,0.85938 0.86462,0.85937 0.86462,2.07031 H 405.6301 q 0,-1.21094 0.86461,-2.07031 0.86462,-0.85938 2.08295,-0.85938 V 96.782041 q -1.21833,0 -2.08295,-0.859375 -0.86461,-0.859375 -0.86461,-2.070312 h 25.97774 q 4.40168,0 7.54573,3.124999 3.14405,3.124997 3.14405,7.499997 v 6.67969 q 0,4.29687 -3.02615,7.3828 -3.02615,3.12501 -7.27062,3.24219 z m -65.30795,27.96875 q 0,-1.21094 0.86461,-2.07031 0.86461,-0.85938 2.08293,-0.85938 V 96.782041 q -1.21832,0 -2.08293,-0.859375 -0.86461,-0.859375 -0.86461,-2.070312 h 33.95576 v 11.171876 q -1.21831,0 -2.08293,-0.85938 -0.86461,-0.85937 -0.86461,-2.07031 h -17.09579 v 15.58593 h 14.34474 q 0,-1.21093 0.86461,-2.07031 0.86462,-0.85937 2.08293,-0.85937 v 14.10155 q -1.21831,0 -2.08293,-0.85937 -0.86461,-0.85938 -0.86461,-2.07031 h -14.34474 v 15.54687 h 17.09579 q 0,-1.21094 0.86461,-2.07031 0.86462,-0.85938 2.08293,-0.85938 v 11.21094 z m -30.29108,-10.89844 q 0,1.21094 0.86461,2.07031 0.86462,0.85937 2.08294,0.85937 h 5.8951 q 1.21832,0 2.08294,-0.85937 0.86461,-0.85937 0.86461,-2.07031 v -14.10155 q -1.21832,0 -2.08293,-0.85939 -0.86462,-0.85937 -0.86462,-2.0703 h 16.85999 q 0,1.21093 -0.86461,2.0703 -0.86463,0.85939 -2.08294,0.85939 v 14.64843 q 0,4.375 -3.14406,7.5 -3.14405,3.125 -7.54573,3.125 h -12.34041 q -4.40166,0 -7.54571,-3.125 -3.14407,-3.125 -3.14407,-7.5 v -35.23437 q 0,-4.375001 3.14407,-7.499997 3.14405,-3.124999 7.54571,-3.124999 h 12.34041 q 4.40168,0 7.54573,3.124999 3.14406,3.124996 3.14406,7.499997 v 0.35156 q 0,1.875 -0.62881,3.63281 1.84712,0.74219 1.84712,2.73438 h -12.1832 v -6.17187 q 0,-1.21094 -0.86461,-2.07031 -0.86462,-0.85939 -2.08294,-0.85939 h -5.8951 q -1.21832,0 -2.08294,0.85939 -0.86461,0.85937 -0.86461,2.07031 z m -42.47427,-21.01562 v 28.98437 q 1.21832,0 2.08293,0.85938 0.86462,0.85937 0.86462,2.07031 h -16.85999 q 0,-1.21094 0.86461,-2.07031 0.86462,-0.85938 2.08294,-0.85938 V 96.821103 q -1.21832,0 -2.08294,-0.859375 -0.86461,-0.859374 -0.86461,-2.070312 h 13.16572 l 12.57622,31.914054 V 96.821103 q -1.21833,0 -2.08294,-0.859375 -0.86462,-0.859374 -0.86462,-2.070312 h 16.85999 q 0,1.210938 -0.86461,2.070312 -0.86462,0.859375 -2.08293,0.859375 v 49.999987 q 1.21831,0 2.08293,0.85938 0.86461,0.85937 0.86461,2.07031 h -13.16572 z m -55.16839,16.52344 q 0.1572,-8.86719 2.67245,-16.60156 l 7.03482,-21.484372 q -1.29693,-0.898437 -1.29693,-2.421874 h 16.85999 q 0,1.523437 -1.25763,2.421874 l 7.03482,21.484372 q 2.51524,7.73437 2.67245,16.60156 v 12.46093 q 1.21832,0 2.08293,0.85938 0.86461,0.85937 0.86461,2.07031 H 258.606 q 0,-1.21094 0.82531,-2.07031 0.86462,-0.85938 2.08293,-0.85938 v -12.65625 h -11.7902 v 12.65625 q 1.21832,0 2.08294,0.85938 0.82531,0.85937 0.82531,2.07031 h -16.82068 q 0,-1.21094 0.86462,-2.07031 0.86461,-0.85938 2.08293,-0.85938 z m 22.20487,-8.4375 q -0.51091,-4.02344 -1.61133,-8.20313 l -3.73356,-14.29687 -3.73356,14.29687 q -1.10042,4.17969 -1.61133,8.20313 z M 197.50321,96.782041 q -1.21832,0 -2.08294,-0.859375 -0.86461,-0.859375 -0.86461,-2.070312 h 25.97774 q 4.40167,0 7.54573,3.124999 3.14405,3.124997 3.14405,7.499997 v 34.60937 q 0,4.41406 -3.14405,7.53906 -3.14406,3.125 -7.54573,3.125 h -25.97774 q 0,-1.21094 0.86461,-2.07031 0.86462,-0.85938 2.08294,-0.85938 z m 22.75508,8.242189 q 0,-1.21094 -0.86461,-2.07031 -0.86462,-0.85938 -2.08293,-0.85938 h -8.84266 v 39.37499 h 8.84266 q 1.21831,0 2.08293,-0.85938 0.86461,-0.82031 0.86461,-2.07031 z"
       fill="#d80000"
       id="path2" />
    <g
       fill="#d86c00"
       id="g34">
      <g
         id="g12">
        <path
           d="m 41.971647,103.06328 q 0,-1.21094 -0.859375,-2.07031 -0.859375,-0.89844 -2.070312,-0.89844 h -8.789063 v 15.58594 h 8.789063 q 1.210937,0 2.070312,-0.85938 0.859375,-0.85937 0.859375,-2.07031 z m 0.664063,16.71875 q 4.21875,0.15625 7.226562,3.24219 3.007813,3.125 3.007813,7.42187 v 14.375 q 1.210937,0 2.070312,0.85938 0.859375,0.85937 0.859375,2.07031 H 41.971647 v -20.89844 q 0,-1.21094 -0.859375,-2.07031 -0.820312,-0.85938 -2.03125,-0.85938 h -8.828125 v 20.89844 q 1.210938,0 2.070313,0.85938 0.859375,0.85937 0.859375,2.07031 H 16.424772 q 0,-1.21094 0.859375,-2.07031 0.859375,-0.85938 2.070313,-0.85938 V 94.782028 q -1.210938,0 -2.070313,-0.859375 -0.859375,-0.859375 -0.859375,-2.070312 h 25.820313 q 4.375,0 7.5,3.125 3.125,3.125 3.125,7.499999 v 6.67969 q 0,4.29687 -3.007813,7.38281 -3.007812,3.125 -7.226562,3.24219 z"
           id="path4" />
        <path
           d="m 60.360395,147.75078 q 0,-1.21094 0.859375,-2.07031 0.859375,-0.85938 2.070313,-0.85938 V 94.782028 q -1.210938,0 -2.070313,-0.859375 -0.859375,-0.859375 -0.859375,-2.070312 h 16.757813 q 0,1.210937 -0.859375,2.070312 -0.859375,0.859375 -2.070313,0.859375 v 50.039062 q 1.210938,0 2.070313,0.85938 0.859375,0.85937 0.859375,2.07031 z"
           id="path6" />
        <path
           d="m 93.749144,136.85234 q 0,1.21094 0.859375,2.07031 0.859375,0.85938 2.070312,0.85938 h 5.859379 q 1.21093,0 2.07031,-0.85938 0.85937,-0.85937 0.85937,-2.07031 v -6.17187 h 12.10938 q 0,1.99218 -1.83594,2.73437 0.625,1.75781 0.625,3.63281 v 0.35157 q 0,4.375 -3.125,7.5 -3.125,3.125 -7.5,3.125 H 93.475706 q -4.375,0 -7.5,-3.125 -3.125,-3.125 -3.125,-7.5 v -35.23438 q 0,-4.374999 3.125,-7.499999 3.125,-3.125 7.5,-3.125 h 12.265624 q 4.375,0 7.5,3.125 3.125,3.125 3.125,7.499999 v 0.35156 q 0,1.875 -0.625,3.63282 1.83594,0.74218 1.83594,2.73437 h -12.10938 v -6.17187 q 0,-1.21094 -0.85937,-2.07032 -0.85938,-0.859372 -2.07031,-0.859372 h -5.859379 q -1.210937,0 -2.070312,0.859372 -0.859375,0.85938 -0.859375,2.07032 z"
           id="path8" />
        <path
           d="m 122.1379,147.75078 q 0,-1.21094 0.85937,-2.07031 0.85938,-0.85938 2.07032,-0.85938 V 94.821091 q -1.21094,0 -2.07032,-0.859375 -0.85937,-0.859375 -0.85937,-2.070313 h 16.75781 q 0,1.210938 -0.85937,2.070313 -0.85938,0.859375 -2.07032,0.859375 v 20.859379 l 11.75782,-23.789067 h 13.82812 q 0,1.640625 -1.48437,2.5 -0.46875,0.3125 -1.44532,0.390625 l -12.65625,25.039062 12.65625,25 q 1.21094,0 2.07032,0.85938 0.85937,0.85937 0.85937,2.07031 h -13.82812 l -11.75782,-23.82813 v 20.89844 q 1.21094,0 2.07032,0.85938 0.85937,0.85937 0.85937,2.07031 z"
           id="path10" />
      </g>
      <g
         transform="scale(1.003044,0.99696522)"
         id="g32">
        <path
           d="m 196.90383,95.070558 q -1.21462,0 -2.07661,-0.861991 -0.86199,-0.861991 -0.86199,-2.076614 h 25.8989 q 4.38832,0 7.52283,3.134512 3.13451,3.134511 3.13451,7.522825 v 34.71472 q 0,4.4275 -3.13451,7.56201 -3.13451,3.13451 -7.52283,3.13451 h -25.8989 q 0,-1.21462 0.86199,-2.07661 0.86199,-0.86199 2.07661,-0.86199 z m 22.68603,8.267272 q 0,-1.21462 -0.86199,-2.07661 -0.86199,-0.86199 -2.07661,-0.86199 h -8.81582 v 39.49484 h 8.81582 q 1.21462,0 2.07661,-0.86199 0.86199,-0.82281 0.86199,-2.07661 z"
           id="path14" />
        <path
           d="m 238.03458,132.76306 q 0.15673,-8.89418 2.66434,-16.65209 l 7.01347,-21.549771 q -1.29299,-0.901172 -1.29299,-2.429246 h 16.80882 q 0,1.528074 -1.25381,2.429246 l 7.01347,21.549771 q 2.50761,7.75791 2.66434,16.65209 v 12.49887 q 1.21462,0 2.07661,0.86199 0.86199,0.86199 0.86199,2.07661 h -16.76963 q 0,-1.21462 0.82281,-2.07661 0.86199,-0.86199 2.07661,-0.86199 v -12.69478 h -11.75442 v 12.69478 q 1.21462,0 2.07662,0.86199 0.8228,0.86199 0.8228,2.07661 h -16.76963 q 0,-1.21462 0.86199,-2.07661 0.86199,-0.86199 2.07661,-0.86199 z m 22.13749,-8.46318 q -0.50936,-4.03568 -1.60644,-8.22809 l -3.72223,-14.3404 -3.72223,14.3404 q -1.09708,4.19241 -1.60644,8.22809 z"
           id="path16" />
        <path
           d="m 293.03555,116.18933 v 29.0726 q 1.21462,0 2.07661,0.86199 0.86199,0.86199 0.86199,2.07661 h -16.80882 q 0,-1.21462 0.86199,-2.07661 0.86199,-0.86199 2.07662,-0.86199 V 95.109739 q -1.21463,0 -2.07662,-0.861991 -0.86199,-0.861991 -0.86199,-2.076614 h 13.12577 l 12.53805,32.011206 V 95.109739 q -1.21463,0 -2.07662,-0.861991 -0.86199,-0.861991 -0.86199,-2.076614 h 16.80882 q 0,1.214623 -0.86199,2.076614 -0.86199,0.861991 -2.07661,0.861991 v 50.152191 q 1.21462,0 2.07661,0.86199 0.86199,0.86199 0.86199,2.07661 h -13.12577 z"
           id="path18" />
        <path
           d="m 335.38092,137.26892 q 0,1.21462 0.86199,2.07662 0.86199,0.86199 2.07662,0.86199 h 5.87721 q 1.21462,0 2.07661,-0.86199 0.86199,-0.862 0.86199,-2.07662 v -14.14448 q -1.21462,0 -2.07661,-0.86199 -0.86199,-0.86199 -0.86199,-2.07662 h 16.80882 q 0,1.21463 -0.86199,2.07662 -0.862,0.86199 -2.07662,0.86199 v 14.69302 q 0,4.38832 -3.13451,7.52283 -3.13451,3.13451 -7.52283,3.13451 h -12.30296 q -4.38831,0 -7.52282,-3.13451 -3.13452,-3.13451 -3.13452,-7.52283 v -35.34162 q 0,-4.388315 3.13452,-7.522827 3.13451,-3.134511 7.52282,-3.134511 h 12.30296 q 4.38832,0 7.52283,3.134511 3.13451,3.134512 3.13451,7.522827 v 0.35263 q 0,1.88071 -0.6269,3.64387 1.84152,0.74445 1.84152,2.7427 h -12.14623 v -6.19066 q 0,-1.21462 -0.86199,-2.07661 -0.86199,-0.86199 -2.07661,-0.86199 h -5.87721 q -1.21463,0 -2.07662,0.86199 -0.86199,0.86199 -0.86199,2.07661 z"
           id="path20" />
        <path
           d="m 365.58007,148.20053 q 0,-1.21462 0.86199,-2.07661 0.86199,-0.86199 2.07661,-0.86199 V 95.070558 q -1.21462,0 -2.07661,-0.861991 -0.86199,-0.861991 -0.86199,-2.076614 h 33.85272 v 11.205877 q -1.21462,0 -2.07661,-0.86199 -0.86199,-0.86199 -0.86199,-2.07661 h -17.04391 v 15.63337 h 14.30121 q 0,-1.21462 0.86199,-2.07661 0.86199,-0.86199 2.07661,-0.86199 v 14.14448 q -1.21462,0 -2.07661,-0.86199 -0.86199,-0.86199 -0.86199,-2.07661 h -14.30121 v 15.59419 h 17.04391 q 0,-1.21462 0.86199,-2.07661 0.86199,-0.86199 2.07661,-0.86199 v 11.24506 z"
           id="path22" />
        <path
           d="m 430.02375,103.37701 q 0,-1.21462 -0.862,-2.07661 -0.86199,-0.90117 -2.07661,-0.90117 h -8.81581 v 15.63337 h 8.81581 q 1.21462,0 2.07661,-0.86199 0.862,-0.86199 0.862,-2.07661 z m 0.66608,16.76964 q 4.23159,0.15673 7.24856,3.25206 3.01696,3.13451 3.01696,7.44446 v 14.41876 q 1.21463,0 2.07662,0.86199 0.86199,0.86199 0.86199,2.07661 h -13.87021 v -20.96205 q 0,-1.21462 -0.862,-2.07661 -0.8228,-0.86199 -2.03743,-0.86199 h -8.85499 v 20.96205 q 1.21462,0 2.07661,0.86199 0.86199,0.86199 0.86199,2.07661 h -16.80882 q 0,-1.21462 0.86199,-2.07661 0.86199,-0.86199 2.07662,-0.86199 V 95.070558 q -1.21463,0 -2.07662,-0.861991 -0.86199,-0.861991 -0.86199,-2.076614 h 25.8989 q 4.38832,0 7.52283,3.134512 3.13451,3.134511 3.13451,7.522825 v 6.70002 q 0,4.30995 -3.01696,7.40529 -3.01697,3.13451 -7.24856,3.25205 z"
           id="path24" />
        <path
           d="m 482.0861,137.85664 q 0,4.38832 -3.13451,7.52283 -3.13451,3.13451 -7.52283,3.13451 H 459.1258 q -4.38831,0 -7.52283,-3.13451 -3.13451,-3.13451 -3.13451,-7.52283 v -35.34162 q 0,-4.388314 3.13451,-7.522825 3.13452,-3.134512 7.52283,-3.134512 h 12.30296 q 4.38832,0 7.52283,3.134512 3.13451,3.134511 3.13451,7.522825 z m -13.87021,2.39007 q 1.21462,0 2.07661,-0.86199 0.86199,-0.86199 0.86199,-2.07662 v -34.24454 q 0,-1.21462 -0.86199,-2.07661 -0.86199,-0.86199 -2.07661,-0.86199 h -5.87721 q -1.21463,0 -2.07662,0.86199 -0.86199,0.86199 -0.86199,2.07661 v 34.24454 q 0,1.21463 0.86199,2.07662 0.86199,0.86199 2.07662,0.86199 z"
           id="path26" />
        <path
           d="m 513.46068,95.070558 q -1.21462,0 -2.07661,-0.861991 -0.86199,-0.861991 -0.86199,-2.076614 h 16.80881 q 0,1.214623 -0.86199,2.076614 -0.86199,0.861991 -2.07661,0.861991 v 42.746902 q 0,4.38832 -3.13451,7.52283 -3.13451,3.13451 -7.52283,3.13451 h -12.30296 q -4.38831,0 -7.52283,-3.13451 -3.13451,-3.13451 -3.13451,-7.52283 V 95.070558 q -1.21462,0 -2.07661,-0.861991 -0.86199,-0.861991 -0.86199,-2.076614 h 16.80882 q 0,1.214623 -0.86199,2.076614 -0.862,0.861991 -2.07662,0.861991 v 42.198362 q 0,1.21462 0.86199,2.07662 0.86199,0.86199 2.07662,0.86199 h 5.87721 q 1.21462,0 2.07661,-0.86199 0.86199,-0.862 0.86199,-2.07662 z"
           id="path28" />
        <path
           d="m 556.19788,127.23848 q 0,-1.21462 -0.86199,-2.07661 -0.86199,-0.86199 -2.07661,-0.86199 h -9.09009 q -4.42749,0 -7.562,-3.13451 -3.09534,-3.13451 -3.09534,-7.52283 v -11.1667 q 0,-4.388315 3.09534,-7.522827 3.13451,-3.134511 7.562,-3.134511 h 12.30296 q 4.38832,0 7.52283,3.134511 3.13451,3.134512 3.13451,7.522827 v 0.35263 q 0,1.88071 -0.66608,3.64387 1.84152,0.74445 1.84152,2.7427 h -12.10705 v -6.19066 q 0,-1.21462 -0.86199,-2.07661 -0.86199,-0.86199 -2.07661,-0.86199 h -5.87721 q -1.21462,0 -2.07661,0.86199 -0.862,0.86199 -0.862,2.07661 V 113.094 q 0,1.21462 0.862,2.07661 0.86199,0.86199 2.07661,0.86199 h 9.09008 q 4.38832,0 7.52283,3.13452 3.13451,3.13451 3.13451,7.52282 v 11.12752 q 0,4.38832 -3.13451,7.52283 -3.13451,3.13451 -7.52283,3.13451 h -12.30296 q -4.42749,0 -7.562,-3.13451 -3.09534,-3.13451 -3.09534,-7.52283 v -0.35263 q 0,-1.88071 0.62691,-3.64387 -1.84153,-0.74445 -1.84153,-2.7427 h 12.14623 v 6.19066 q 0,1.21462 0.862,2.07662 0.86199,0.86199 2.07661,0.86199 h 5.87721 q 1.21462,0 2.07661,-0.86199 0.86199,-0.862 0.86199,-2.07662 z"
           id="path30" />
      </g>
    </g>
  </g>
</svg>
