<svg id="Layer_1" data-name="Layer 1" xmlns="http://www.w3.org/2000/svg" viewBox="0 0 3840 1239.20007"><rect x="683.59998" width="118" height="93.4" style="fill:#fff"/><rect x="683.59998" y="128.10001" width="118" height="391.30002" style="fill:#fff"/><rect x="3039.3999" y="128.10001" width="118" height="391.30002" style="fill:#fff"/><rect x="2198" width="118" height="519.29999" style="fill:#fff"/><polygon points="950.8 128.1 832.8 128.1 832.8 221.4 832.8 519.3 950.8 519.3 950.8 221.4 1366.2 221.4 1366.2 519.3 1484.2 519.3 1484.2 221.4 1484.2 128.1 1366.2 128.1 950.8 128.1" style="fill:#fff"/><polygon points="3840 128.1 3306.6 128.1 3188.6 128.1 3188.6 221.4 3188.6 519.3 3306.6 519.3 3306.6 221.4 3840 221.4 3840 128.1" style="fill:#fff"/><polygon points="1 153.8 0 153.8 0 277 0 370.4 0 371.7 118 371.7 118 370.4 533.4 370.4 533.4 426 1 426 1 519.3 533.4 519.3 651.4 519.3 652.4 519.3 652.4 426 651.4 426 651.4 370.4 651.4 277 651.4 275.7 533.4 275.7 533.4 277 118 277 118 221.4 652.4 221.4 652.4 128.1 1 128.1 1 153.8" style="fill:#fff"/><polygon points="1515.4 128.1 1515.4 221.4 1515.4 426 1515.4 519.3 1633.4 519.3 2166.7 519.3 2166.7 426 1633.4 426 1633.4 221.4 2166.7 221.4 2166.7 128.1 1633.4 128.1 1515.4 128.1" style="fill:#fff"/><path d="M2998.5,128.1H2347.2002v93.4h538.60009V277H2347.2002V519.4h661V128.1H2998.5ZM2465.2,426V370.4h420.6001V426Z" transform="translate(0 0)" style="fill:#fff"/><rect x="3039.3999" width="118" height="93.4" style="fill:#fff"/><path d="M1085.80005,1127.30005l310.4-371.2h-286.1v-107h455.5V749.6l-310.4,371.2h318.5v107h-487.9Z" transform="translate(0 0)" style="fill:#f60f0e"/><path d="M1778.7,924.7l-173.4-275.6h137.2L1848,833.9l109.30005-184.8H2087L1914.4,925.5l187.70008,302.30005h-141l-117.6-200.19995-119.9,200.19995h-133.4Z" transform="translate(0 0)" style="fill:#f60f0e"/><path d="M2332.1001,649.1c143.8999,0,193.5,97.3,193.5,152.4,0,55.9-29.80005,101.3-84.30005,119.2v1.6c68.6001,15.4,108.30005,67.3,108.30005,138.6,0,119.2-109.1001,178.30005-216.6001,178.30005-111.6001,0-219.8999-55.1-219.8999-177.5,0-72.1,41.3-123.2,109.1001-139.4v-1.6c-56.2-15.4-85.2-60.8-85.2-116.7C2137,701.8,2237.8999,649.1,2332.1001,649.1ZM2333,1152.5c56.2,0,99.2-38.9,99.2-95.6,0-54.3-44.6001-90.8-99.2-90.8-57,0-102.5,31.6-102.5,90.00006C2230.3999,1114.4,2276.7,1152.5,2333,1152.5Zm-.8999-263.5c48,0,86.8-25.9,86.8-74.6,0-29.2-14.1001-78.6-86.8-78.6-47.1001,0-88.5,28.4-88.5,78.6C2243.7,863.9,2285,889,2332.1001,889Z" transform="translate(0 0)" style="fill:#f60f0e"/><path d="M2627,649.1h127.3v578.70007H2627Z" transform="translate(0 0)" style="fill:#f60f0e"/></svg>