<?xml version="1.0" encoding="UTF-8" standalone="no"?>
<svg
   id="Layer_1"
   data-name="Layer 1"
   viewBox="0 0 3839 642.20958"
   version="1.1"
   sodipodi:docname="dreamcast.svg"
   inkscape:version="1.1.2 (0a00cf5339, 2022-02-04, custom)"
   xmlns:inkscape="http://www.inkscape.org/namespaces/inkscape"
   xmlns:sodipodi="http://sodipodi.sourceforge.net/DTD/sodipodi-0.dtd"
   xmlns="http://www.w3.org/2000/svg"
   xmlns:svg="http://www.w3.org/2000/svg">
  <defs
     id="defs27" />
  <sodipodi:namedview
     id="namedview25"
     pagecolor="#ffffff"
     bordercolor="#666666"
     borderopacity="1.0"
     inkscape:pageshadow="2"
     inkscape:pageopacity="0.0"
     inkscape:pagecheckerboard="0"
     showgrid="false"
     inkscape:zoom="0.27845793"
     inkscape:cx="1919.5"
     inkscape:cy="319.6174"
     inkscape:window-width="1920"
     inkscape:window-height="1017"
     inkscape:window-x="-8"
     inkscape:window-y="-8"
     inkscape:window-maximized="1"
     inkscape:current-layer="Layer_1" />
  <polygon
     points="3767.4 534.412 3751.9 534.412 3751.9 529.112 3788.8 529.112 3788.8 534.412 3773.4 534.412 3773.4 576.012 3767.4 576.012 3767.4 534.412"
     style="fill:#fff"
     id="polygon2" />
  <polygon
     points="3813.8 576.012 3801 537.912 3801 576.012 3794.8 576.012 3794.8 529.112 3803.4 529.112 3816.9 569.012 3830.4 529.112 3839 529.112 3839 576.012 3832.8 576.012 3832.8 537.912 3820 576.012 3813.8 576.012"
     style="fill:#fff"
     id="polygon4" />
  <path
     d="M831.8,131c0-16.3-3.1-37.4-10.3-46.3,47.2,0,149.2.3,192.9.3,100.6,0,252.4,55.9,252.4,244.1,0,139.8-107.19995,243.8-252.4,243.8-31.9,0-153.4-.4-196.6-.4,8.8-16.3,14-38.5,14-56V131Zm72.4,394c46.5,6,89.3,7.9,128.1,2.3,37.5-5.4,163.6-32.5,162.80005-199.9-.7-158.6-98.80005-194.9-174.2-199.3-39.4-2.3-77.5-.8-116.7,6L904.2,525Z"
     transform="translate(0 0.01185)"
     style="fill:#fff"
     id="path6" />
  <path
     d="M1308.4,234.5l72.30005-11.3v63.7c18.6-45.8,76.3-82.7,158.19995-50.8l-19.19995,50.4c-75.1-35.6-139-4.4-139,79V537.4c0,8.2,1.8,24.7,6.69995,35.3h-75.1c7.6-9.3,11.1-27.1,11.1-35.3v-248c0-18-3.70007-45.9-15-54.9Z"
     transform="translate(0 0.01185)"
     style="fill:#fff"
     id="path8" />
  <path
     d="M3593.80005,269V488.6c0,69,47.5,87.4,82.80005,87.4,14.8999.7,36-2.8,50.69995-6l9.1001-42.6c-17.19995,6.6-37.1001,8.1-49.1001,8.1-22.1001,0-38.1001-14.7-38.1001-37.6,0-20.6-.5-222.1,0-228.6h-.2c2.8999,0,48.7-.2,53.3999,0,15,.5,26.6001,1.4,36.5,5.4L3739,234.6s-87.8999-.1-89.7-.1l.3999-102.8-66.6001,18.4c9.19995,8.6,12.19995,33.7,12.19995,50.3,0,0-.10009,30.7-.10009,34.4-3,0-36.8.2-42.39991.2v33.9c5.7002.1,41.00025.1,41.00025.1Z"
     transform="translate(0 0.01185)"
     style="fill:#fff"
     id="path10" />
  <path
     d="M3305.8999,501.3C3334.5,521.8,3379.5,539.9,3412.5,539.9c45.7,0,78.5-22.2,78.5-64.1,0-77.3-176.2-64.5-176.2-162.5,0-66.3,59.30005-91.3,115.80005-91.3,18.19995,0,59.6001,3.9,86,14.1l-.2,45.3c-23.39991-20-59.19995-24.9-82.69995-24.9-37.39991,0-65.5,18.6-65.5,55,0,53.4,176,50.3,176,159.9,0,70.9-61.39991,104-129.1001,104-32.8999,0-67.30005-5.8-95.8999-14l-13.3003-60.1Z"
     transform="translate(0 0.01185)"
     style="fill:#fff"
     id="path12" />
  <path
     d="M2242.2,269.7c0-4,.1001-39.9.1001-44.5l-73.19995,11.3c8.8,9.2,15.6001,38.1,15.6001,58.7V535c0,8.2-3.5,28.1-11.1001,37.4h79.8c-7.6001-9.3-11.1001-29.2-11.1001-37.4V354.6c0-66,40.8999-89.2,81.5-89.2,36.80005,0,70.1001,15.9,70.1001,89.2V535c0,8.2-3.5,28.1-11.1001,37.4H2460.2c-7.6001-9.3-11.1001-29.2-11.1001-37.4V354.6c0-73.2,45.19995-89.2,82.1001-89.2,36.8,0,75.3,23.1,75.3,89.2V535c0,8.2-3.5,28.1-11.1001,37.4H2670c-7.6001-9.3-11.1001-29.2-11.1001-37.4V320.3c0-36.6-37.3999-95.3-124.6001-95.3-50.8,0-80.10009,22.6-102.3,42-18.89991-22.1-49.7-42.8-99.2-42.8-48.1997.1-76.6997,28.3-90.59985,45.5Z"
     transform="translate(0 0.01185)"
     style="fill:#fff"
     id="path14" />
  <path
     d="M2069.7,382.3c-10.3999,9.8-32.30005,17.5-54.9,20.5-59.3,7.8-110.8,17.6-110.8,75.4,0,34.3,37.4,61.3,67,61.3,78.4,0,98.70007-56.6,98.70007-101.2v-56ZM1884.5,240.8c29.9-12,78.19995-17.5,108.5-17.5,77.3999,0,128.8,38.6,128.8,128.4V500.4c0,27.6.3999,53.7,10.2,72h-62.2l-2.19995-39.2c-23.5,30.4-51.7,44-99.4,44-94.2,0-114.80005-64.4-114.80005-95.3,0-110.4,105.1-111.7,150.6-118.2,25.19995-3.6,57.7-10.7,62.6001-34.4,8.1001-39.1-19.9-68.5-77.1-68.5-42,0-76.4,12.8-105.1,30v-50ZM3220.3999,382.3c-10.3999,9.8-32.3,17.5-54.8999,20.5-59.3,7.8-110.7,17.6-110.7,75.4,0,34.3,37.3999,61.3,67,61.3,78.3999,0,98.7-56.6,98.7-101.2l-.1001-56ZM3035.30005,240.8c29.8999-12,78.30005-17.5,108.5-17.5,77.30005,0,128.7,38.6,128.7,128.4V500.4c0,27.6-6,53.1,10.2,72h-62.1001l-2.30005-39.2c-23.60009,30.4-51.60009,44-99.3999,44-94.19995,0-114.8-64.4-114.8-95.3,0-110.4,105.1001-111.7,150.6001-118.2,25.3-3.6,57.8-10.7,62.6001-34.4,8.1001-39.1-19.8999-68.5-77.1001-68.5-42,0-76.30005,12.8-105.1001,30l.2002-50Z"
     transform="translate(0 0.01185)"
     style="fill:#fff"
     id="path16" />
  <path
     d="M2969.1001,286.4C2945.80005,272.8,2909,262,2883.30005,262c-90.19995,0-131.5,55.4-131.5,135.3,0,79.1,40.3999,139.7,128.6001,139.7,30.2,0,71.3999-13.6,103.30005-33.2l-13,58.2c-32.5,9.7-59.89991,14.3-96.1001,14.3-123.8999,0-181.8999-87.9-181.8999-179.3,0-101.1,77.8999-172.1,183.3-172.1,46.1001,0,79.7,11.3,93.30005,15.2l-.20019,46.3Z"
     transform="translate(0 0.01185)"
     style="fill:#fff"
     id="path18" />
  <path
     d="M1582.4,401.6c.1-8.4,1.2-16.3,2.1-24H1824.2c0-82.4-41.19995-153-138.9-153-101.4,0-161.4,79.3-161.4,180.3,0,91.4,67,173,181.6,173,36.3,0,66.6-8.9,99.4-20.4l11.5-58.5c-28,23.1-73.3,36.7-114.1,36.7C1628.80005,535.6,1582,482.5,1582.4,401.6ZM1592,341c7.80005-40.1,44.9-81,89.30005-81,67.9,0,87.5,53,87.5,81C1768.7,341,1592,341.1,1592,341Z"
     transform="translate(0 0.01185)"
     style="fill:#fff"
     id="path20" />
  <path
     d="M440.9,8.7c26.9,4,54.4,13.4,68.7,17.8,28.9,8.8,75.7,36.2,92.3,49.4,7.8,6.2,24.3,22.5,30.7,30.7,6.2,8,18.1,25.3,25.6,35.9,12.1,17.6,26.2,43.8,38.3,67.9,13.4,26.9,14.4,34.8,18.4,57.3l8.9,39.7c.8,6.9,1.5,32-13.3,35.6-14.8,3.5-28.4-3.3-34.9-13.2-8.9-13.8-7.7-33.4-17.8-55.8-7.9-18.1-11.3-44.4-23.8-63.4L624.2,194c-17.4-26.8-35.6-48.1-46.4-62-9.6-11.7-27.4-27.5-44.2-38.8-15.6-9.5-40.9-20.3-59.1-25.8-5.8-1.9-30.6-9.2-46.1-11.2-21-2.3-34.7-5.7-54.6-7.1-24.6-1.7-36.4-3.9-68.2-.2-12.1,3.3-31.2,4.6-48.4,11.2a424.90958,424.90958,0,0,0-52.2,26c-20.4,11.2-51.3,34-71.9,53.6-20.7,22.1-31,34-45.3,62-6.4,13.7-18.6,35.1-23.5,50.3-3.4,15.4-9.8,44-8.7,58,.5,24.9-1.7,30.1.2,50.5.1,18.4,6.1,31.1,8.6,46.1,2.1,10.4,12.1,46.2,18.2,54.6,28,60.3,65.5,86.4,107.4,105.2,11.8,6,48.7,15.9,59.4,18.7,18.2,3.3,42.2,5.5,65.2,5.9,24.3.5,57.7-2.8,78-10.3,22-8.1,47.4-19.6,47.1-19.2,10.2-5.6,25.8-14.8,30.6-18.8,9.4-6,15-8.3,20.5-14.1,8-7,12.9-11,18.9-19.7,3.4-4.9,8.8-12.4,13.9-19,5.6-9.2,8.8-18.9,14.3-30.9,6.6-17.8,5.5-16.9,6.8-35.7,1.2-5.5-.1-23.8-1.1-27-3-17-1.9-31.9-5.8-48.4-5.2-22.3-9.6-38.9-16.3-60.3-6.3-24-24.8-46.3-38.6-62.2-8.6-9.9-35.2-33.2-72.2-47.7a313.0984,313.0984,0,0,0-38.2-9.4c-23.1-2.4-26.9-.9-49,.8-7.6,1.3-25.3,4.9-31.8,7.2-19,6.7-26,10.9-45.4,22.8-9,5.2-15.9,9.3-25.1,17.9-7.4,6.8-12.6,18.4-18.6,25.2-8.2,11.1-17.3,26-23.4,42-6.6,15.9-8.8,38.4-7.7,52.8,0,11,3,31.1,4.2,35.5s4.2,18.1,4.8,20.8c.7,2.7,7.8,17.2,8.8,19.3,4,8.5,11.7,20.8,24.6,33.3,9.6,10.4,28,20.7,41.8,24.6,12.4,6.8,33.3,8,44.8,8,5.7-.4,20.2-1.2,27.8-3,15.4-3.7,18.2-3.8,34.1-10.7,14.2-6.6,23.9-9,33.8-16.3,0,0,13.6-10.6,19.8-18.5,3.3-4.1,8.9-23.7,7.9-35.9-.5-16.6,2-26-1.5-39.7-3.4-13.7-9.2-29.5-15.5-39.3-6.4-9.9-20-19.5-35.6-27.2-8.7-4.3-29.4-8.3-38.1-9.3-16.6-2-30.5,5.6-39,14.2-7.3,8.4-21.8,25.8-16,43.7,5.2,16.3,11.5,33.6,35.9,32.3,16.8,3.5,36.1-1.5,42.6,1.4,9.6,5.4,13.2,17.4,9.8,25.8-2.4,16.1-17.9,18.1-34.4,19.3-14.8,2.5-52.3-4.8-60.5-10.9-5.5-3.3-14-11.2-19.9-16.5-4.3-3.9-9.1-12.4-12.4-18.5a67.913,67.913,0,0,1-7.2-18c-1.2-5.8-3.8-17-2.8-28.1.7-7.5,2.7-10.7,4.7-21.7a105.01549,105.01549,0,0,1,16.9-32.7c10.4-10.5,23.6-23.1,36.4-28.9,11.4-6,31.2-8.2,49.2-7.1,14.6,1.4,31.9,3.2,43.3,7,19.5,7,25.1,8.4,41.2,18.5,13.5,8.4,27.2,23.8,34.8,36.6,16.2,33.1,25.5,69.9,18.7,119.6-.5,8.4-3.2,16.5-8.4,27.7a85.34914,85.34914,0,0,1-26,32,104.415,104.415,0,0,1-19.7,14c-9.3,5.6-15.6,8.6-25.3,13.5a189.192,189.192,0,0,1-31.5,12.2c-14.1,5.6-24.9,5.8-42.5,8.4-17.4,4.4-65,1.3-93.4-11.3a176.43725,176.43725,0,0,1-57.6-40c-9.2-9.6-18.2-27.1-20.8-30.6-13.1-25.3-15.7-49-17.8-54-2.9-6.8-4.3-22-6.2-32.4-2.2-11.7-.8-60.6,10.9-91.9,6.6-12.5,10.5-23.6,15-29.5,8.1-11.5,12-18.7,18.8-26.8,10.4-12.5,17.9-22.8,27.9-30,25.7-20.9,47.1-31.9,76.2-45.7,36.1-14.7,46.9-11.7,81-11.1,15.4.1,37.7,5,48.7,7,20.4,2.7,32.1,7.6,45.9,11.5,14.8,4.1,23.3,10.7,35.4,18a224.509,224.509,0,0,1,29.4,22.4c19.8,14.5,29.4,29.8,41.5,48.6,2.2,3.1,16.6,33.9,18.9,42.4,1.1,4.3,4.3,16.6,6.4,23.8,2.7,11.4,4,21.5,7,34.4,2.7,13.3,7.3,38.3,9.2,61.7,3.3,20.1-2,61.1-5.2,73.6-7,23.5-19.3,52.1-43.5,79.7-10.3,12.2-21.2,21.7-33.9,32-9.7,8-18,12.8-32.9,21.7-20.3,12.1-35.7,19.8-64.2,31-11.6,3.7-26.2,8.6-41.9,11.8-30.5,2.8-61.8,5.5-96,1.4s-68.4-13.7-88.7-19.9c-11.2-4.2-32.8-13.2-41.9-18.2-5.9-3-25.7-16.5-29-19.8-13.6-8.4-43.9-36.9-63.5-63.5-4.3-8.2-19.7-32.9-23.1-43.7-8.9-18.3-15.1-40.4-18.7-49.8C11.3,403,4.8,388.8,2.2,366.7c.3-5.2-1-17.5-2.2-24.2,1.7-15.1-.6-29.4,2.4-45.9,2.6-13.9,6.1-19.7,7-32.3.8-5.4,7.7-21.6,9.6-28.8,5.6-11.9,7-21.6,14.3-34.9,10.5-20.6,21.5-44.4,38.4-65.1,4.8-6.4,18.5-21.9,23.1-27.2,11-11,17.5-12.7,29.9-23.8,1.3-.8,9.5-10.2,18.2-13.4,14.3-11,26.7-15.1,40.3-25.2,27.3-13.6,37.2-18.2,64.3-29.5C263.3,11,285.2,7.9,293,4.9,308,4,323.1-.8,338.9.1c17.7-.2,35.5,1.1,53.2,2.7,12,.7,27.6,1.3,48.8,5.9Z"
     transform="translate(0 0.01185)"
     style="fill:#ff0000"
     id="path22" />
</svg>
