<svg id="Layer_1" data-name="Layer 1" xmlns="http://www.w3.org/2000/svg" viewBox="0 0 3839 985.00006"><rect y="912.29999" width="3839" height="45.90002" style="fill:#034693"/><path d="M374,436.3H524.3v26.6H490.6c-23.1,0-33.1,6.5-33.1,30.2v313.7c0,23.7,10.1,30.2,33.1,30.2h33.7v26.6h-197v-26.6h32.5c23.1,0,33.1-6.5,33.1-30.2V465.9h-1.2L256.3,863.6H238.5L97.6,465.9H96.4V753.5c0,54.4,5.9,81.7,68.6,83.4v26.6H0V836.9c52.7-4.7,66.9-14.8,66.9-97.6V493.1c0-23.7-10.1-30.2-33.1-30.2H0V436.3H151.5l113,320.8h1.2Z" transform="translate(0 0)" style="fill:red"/><path d="M736.2,661.8c0-37.9-16.6-55-63.9-55-39.7,0-55,11.8-55,20.1,0,6.5,13,20.1,13,33.7,0,20.7-14.2,29-33.1,29-21.3,0-31.4-17.2-31.4-37.3,0-36.7,43.8-72.2,115.4-72.2,76.3,0,109.5,27.2,109.5,90.5,0,29.6-1.8,113.6-1.8,136.1,0,10.7,8.3,27.2,21.9,27.2,16,0,20.1-7.1,26-7.1s7.7,3,7.7,10.1c0,8.9-21.9,32.5-52.7,32.5-30.2,0-45-15.4-52.7-44.4-26,31.4-66.3,47.3-106.5,47.3-44.4,0-82.9-20.7-82.9-70.4,0-55.6,71-92.9,186.4-108.3V661.8Zm0,55.6c-102.4,14.2-129,35.5-129,79.3,0,28.4,23.1,46.2,49.7,46.2,36.7,0,79.3-29.6,79.3-78.1Z" transform="translate(0 0)" style="fill:red"/><path d="M1042.2,583.1h20.69995v98.2H1042.2c-12.4-43.8-39.7-77.5-88.2-77.5-26,0-54.4,13.6-54.4,43.2,0,20.7,15.4,33.7,53.3,42l58,12.4c43.8,9.5,71,36.7,71,80.5,0,58-42.6,90.5-96.5,90.5-30.2,0-60.4-8.9-84-29l-18.3,26h-20.7V757.1H883c14.8,52.1,45.6,91.7,104.2,91.7,26,0,59.2-15.4,59.2-45.6,0-29-20.69995-39.7-65.7-50.3L935,742.3c-52.7-12.4-68.1-39.1-68.1-79.9,0-50.9,36.1-82.3,86.4-82.3,26,0,52.1,7.7,72.19995,23.7Z" transform="translate(0 0)" style="fill:red"/><path d="M1101.9,589c62.7-4.1,75.2-69.8,78.7-119.5h23.69995V589h88.2v26.6h-88.2V791.4c0,29,9.5,45.6,36.7,45.6,37.9,0,46.19995-50.3,46.19995-79.9h23.69995c-.6,74-26.6,115.4-90,115.4-39.1,0-71-26.6-71-63.9V615.6h-47.9V589Z" transform="translate(0 0)" style="fill:red"/><path d="M1384.2,730.4v8.3c0,68.6,38.5,104.2,85.19995,104.2,45,0,71-24.9,90-63.9l20.1,11.2c-24.30005,53.3-61,82.3-120.1,82.3-81.69995,0-135.5-56.2-135.5-136.7,0-99.4,53.9-155.6,138.5-155.6,69.2,0,113,62.7,117.2,150.3H1384.2ZM1489,706.8c24.30005,0,30.19995-3.6,30.19995-22.5,0-50.3-24.30005-80.5-62.1-80.5-46.80005,0-67.5,38.5-72.80005,103Z" transform="translate(0 0)" style="fill:red"/><path d="M1592.5,594.9l110.1-5.9v70.4h1.19995c7.1-31.4,35.5-79.3,88.2-79.3,26,0,46.8,18.9,46.8,46.2,0,22.5-11.8,40.2-35.5,40.2-19.5,0-32.5-14.8-32.5-32,0-10.7,3-18.9,14.2-26.6v-1.2h-1.2c-61.5,4.7-81.1,106.5-81.1,155.1V821c0,15.4,10.1,18.9,34.30005,18.9h21.30005v23.7h-161V839.9h19.5c22.5,0,31.4-5.9,31.4-29V635.1c0-14.2-8.9-16.6-28.4-16.6H1592.6001V594.9Z" transform="translate(0 0)" style="fill:red"/><path d="M2235.80005,431.6h20.7l7.1001,153.3H2240c-17.2-65.7-59.8-130.8-135.5-130.8-58,0-84,35.5-84,70.4,0,29.6,15.4,55.6,71,71l92.3,25.4c67.5,18.3,99.3999,62.7,99.3999,124.9,0,70.4-52.1001,126.6-145,126.6-48.5,0-91.1-17.2-123.7-45.6l-26.6,42.6h-19.5L1966,702l22.5-2.4c17.19995,95.3,75.8,146.2,149.7,146.2,59.19995,0,97.6001-31.4,97.6001-86.4,0-34.3-16-57.4-56.8-68.1l-95.8999-24.9c-69.2-17.8-110.1-49.7-110.1-116,0-79.3,53.30005-123.1,129.6-123.1,42.6001,0,76.8999,12.4,108.8999,41.4Z" transform="translate(0 0)" style="fill:red"/><path d="M2479,589h117.8v23.7c-29,.6-38.5,11.8-49.69995,39.7l-76.8999,186.4c-43.80005,106.5-82.30005,146.2-132,146.2-28.39991,0-54.39991-14.2-54.39991-46.2,0-20.1,16.6001-33.7,36.1001-33.7,16.6001,0,28.3999,12.4,28.3999,24.9,0,10.7-4.10009,16-4.10009,20.1,0,5.9,3.60009,8.3,7.10009,8.3,25.39991,0,51.5-34.3,81.69995-99.4L2340,648.2c-13-29-18.3-35.5-42-35.5h-7.1001V589h139.7v23.7h-8.30005c-21.8999,0-32.5,1.8-32.5,12.4,0,4.7,2.39991,11.8,5.30005,18.3L2460.2,792.5l46.19995-114.2c11.2-27.2,15.3999-37.9,15.3999-47.3,0-13-14.8-18.3-24.8999-18.3H2479Z" transform="translate(0 0)" style="fill:red"/><path d="M2788.6001,583.1h20.69995v98.2H2788.6001c-12.3999-43.8-39.7-77.5-88.2-77.5-26,0-54.39991,13.6-54.39991,43.2,0,20.7,15.39991,33.7,53.30005,42l58,12.4c43.8,9.5,71,36.7,71,80.5,0,58-42.60009,90.5-96.5,90.5-30.2,0-60.3999-8.9-84-29l-18.30005,26h-20.69995V757.1h20.69995c14.80005,52.1,45.6001,91.7,104.2,91.7,26,0,59.19995-15.4,59.19995-45.6,0-29-20.69995-39.7-65.69995-50.3l-45.6001-10.7c-52.7-12.4-68.1001-39.1-68.1001-79.9,0-50.9,36.1001-82.3,86.3999-82.3,26,0,52.1001,7.7,72.2,23.7Z" transform="translate(0 0)" style="fill:red"/><path d="M2848.30005,589c62.7-4.1,75.2-69.8,78.7-119.5h23.7V589h88.19995v26.6H2950.7V791.4c0,29,9.5,45.6,36.69995,45.6,37.8999,0,46.2-50.3,46.2-79.9h23.69995c-.60009,74-26.60009,115.4-90,115.4-39.10009,0-71-26.6-71-63.9V615.6h-47.8999V589Z" transform="translate(0 0)" style="fill:red"/><path d="M3130.6001,730.4v8.3c0,68.6,38.5,104.2,85.19995,104.2,45,0,71-24.9,90-63.9l20.1001,11.2c-24.3,53.3-61,82.3-120.1001,82.3-81.69995,0-135.5-56.2-135.5-136.7,0-99.4,53.8999-155.6,138.5-155.6,69.2,0,113,62.7,117.2,150.3H3130.6001Zm104.7998-23.6c24.30005,0,30.2-3.6,30.2-22.5,0-50.3-24.30005-80.5-62.10009-80.5-46.80005,0-67.5,38.5-72.80005,103Z" transform="translate(0 0)" style="fill:red"/><path d="M3694,839.9h14.2c23.69995,0,32-7.1,32-27.2V670.1c0-32-18.30005-54.4-52.1001-54.4-36.10009,0-66.30005,27.8-66.30005,69.8v127.2c0,20.1,8.30005,27.2,32,27.2h14.2v23.7H3521.19971V839.9h14.2c23.7,0,32-7.1,32-27.2V676.6c0-38.5-22.5-61-56.2-61-28.39991,0-62.1001,34.3-62.1001,95.9V812.7c0,20.1,8.3,27.2,32,27.2h14.19995v23.7h-151.5V839.9h18.8999c23.7,0,32-7.1,32-27.2V635.1c0-14.2-8.8999-16.6-28.3999-16.6h-22.5V594.8L3449,589v50.3h1.2c26.6001-49.1,62.1001-59.2,84.6001-59.2,42.6001,0,72.80005,26,81.1001,60.4,26.60009-43.8,56.2-60.4,92.30005-60.4,38.5,0,86.3999,37.3,86.3999,95.3v137.3c0,20.1,8.3,27.2,32,27.2H3839v23.7H3694Z" transform="translate(0 0)" style="fill:red"/><path d="M2391.80005,69.3a99.35477,99.35477,0,0,0-189.3999,0l-33.5,99.3V5.8h-175.5c-31.19995,0-60,12.7-82,33.5V5.8h-180.1c-33.5,0-63.5,13.9-85.5,36.9V5.8h-170.9c-72.8,0-132.8,60.1-132.8,132.8a131.93738,131.93738,0,0,0,35.8,90.1h-35.8V383.4h170.9c48.5,0,90.1-25.4,114.30005-64.7,19.6,38.1,58.9,64.7,105.1,64.7H1913.7002V349.9c20.8,20.8,49.69995,33.5,82,33.5h501.10009Z" transform="translate(0 0)" style="fill:#fff"/><path d="M1513.1,256.4H1368.79993v45H1513.1c27.69995,0,50.8-23.1,50.8-50.8s-23.1-50.8-50.8-50.8h-37c-33.5,0-61.2-27.7-61.2-61.2s27.7-61.2,61.2-61.2h143.19995V32.3h-144.3a106.2,106.2,0,0,0,0,212.4h36.9a5.459,5.459,0,0,1,5.80005,5.8C1517.7,254,1515.30005,256.4,1513.1,256.4Z" transform="translate(0 0)" style="fill:#034693"/><path d="M1474.9,134h144.30005V87.8H1474.9c-27.69995,0-50.8,23.1-50.8,50.8s23.1,50.8,50.8,50.8h36.9c33.5,0,61.19995,27.7,61.19995,61.2s-27.69995,61.2-61.19995,61.2H1368.6001v45h144.3a106.2,106.2,0,0,0,0-212.4h-37a5.459,5.459,0,0,1-5.8-5.8A5.31533,5.31533,0,0,1,1474.9,134Z" transform="translate(0 0)" style="fill:#034693"/><path d="M1993.4,87.8c-19.6,0-34.6,15-34.6,34.6V266.7c0,19.6,15,34.6,34.6,34.6h93.49988V199.8h-71.6v45h26.6v10.4h-26.6a10.32884,10.32884,0,0,1-10.4-10.4V143.2a10.32883,10.32883,0,0,1,10.4-10.4H2143.5v-45Z" transform="translate(0 0)" style="fill:#034693"/><path d="M2277.5,301.4h105.1001L2311,88.9c-2.3-5.8-6.8999-10.4-13.8999-10.4-5.80005,0-11.5,4.6-13.8999,9.2l-92.39991,269h53.1001l32.30005-95.8v40.4H2277.5Zm18.3999-97,15,46.2H2279.7Z" transform="translate(0 0)" style="fill:#034693"/><path d="M2366.3999,79.7C2357.2,49.7,2329.5,26.6,2296,26.6s-61.2,21.9-69.3,52L2142.3999,325.7V144.3h-127v45H2098.5V311.7H1994.6a45.065,45.065,0,0,1-45-45V122.4a45.06509,45.06509,0,0,1,45-45h148.9V32.3H1993.4a90.178,90.178,0,0,0-90.1,90.1V266.7a90.178,90.178,0,0,0,90.1,90.1h185.9l93.5-271.4a25.57594,25.57594,0,0,1,48.3999,0l76.19995,226.3H2277.2998v45h182.5Z" transform="translate(0 0)" style="fill:#034693"/><path d="M1731.30005,311.8a45.065,45.065,0,0,1-45-45V122.4a45.0651,45.0651,0,0,1,45-45H1886V32.3H1731.30005a90.178,90.178,0,0,0-90.1,90.1V266.7a90.178,90.178,0,0,0,90.1,90.1H1886v-45l-154.69995,0Z" transform="translate(0 0)" style="fill:#034693"/><path d="M1741.7,245.9h112v-45h-157v67c0,19.6,15,34.6,34.6,34.6H1886V257.4H1752.1C1746.30005,256.4,1741.7,251.7,1741.7,245.9Z" transform="translate(0 0)" style="fill:#034693"/><path d="M1853.7,144.3h-112a10.32882,10.32882,0,0,1,10.4-10.4h132.8V87.8h-153.6c-19.6,0-34.6,15-34.6,34.6v67h157Z" transform="translate(0 0)" style="fill:#034693"/></svg>