<?xml version="1.0" encoding="UTF-8" standalone="no"?>
<svg
   id="Layer_1"
   data-name="Layer 1"
   viewBox="0 0 3839.09949 1301.21006"
   version="1.1"
   sodipodi:docname="dreamcastvmu.svg"
   inkscape:version="1.1.2 (0a00cf5339, 2022-02-04, custom)"
   xmlns:inkscape="http://www.inkscape.org/namespaces/inkscape"
   xmlns:sodipodi="http://sodipodi.sourceforge.net/DTD/sodipodi-0.dtd"
   xmlns="http://www.w3.org/2000/svg"
   xmlns:svg="http://www.w3.org/2000/svg">
  <defs
     id="defs55" />
  <sodipodi:namedview
     id="namedview53"
     pagecolor="#ffffff"
     bordercolor="#666666"
     borderopacity="1.0"
     inkscape:pageshadow="2"
     inkscape:pageopacity="0.0"
     inkscape:pagecheckerboard="0"
     showgrid="false"
     inkscape:zoom="0.27845071"
     inkscape:cx="1919.5498"
     inkscape:cy="650.02528"
     inkscape:window-width="1920"
     inkscape:window-height="1017"
     inkscape:window-x="-8"
     inkscape:window-y="-8"
     inkscape:window-maximized="1"
     inkscape:current-layer="Layer_1" />
  <path
     d="M250,920.3a83.14917,83.14917,0,0,0-14.7,17.9c-2,3.4-3.6,6.6-5,9.6s-2.5,5.5-3.4,7.4l-99.8,218.4L18.1,943.9c-1.4-3.1-2.4-5.2-2.9-6.3a33.4423,33.4423,0,0,1-4.2-5.5A74.53244,74.53244,0,0,0,.1,920.3H66.6c-4.5,3.7-7.1,8.7-8,15.2a26.62451,26.62451,0,0,0,1.6,8.9c1.1,3.1,1.9,5.6,2.4,7.6l68.2,160.30005L195,960.2c3.3-8,4.9-14.8,4.9-20.5a44.37591,44.37591,0,0,0-.6-7.1c-.4-2.4-2-6.5-4.8-12.2H250Z"
     transform="translate(-0.00011 0.00999)"
     style="fill:#fff"
     id="path2" />
  <path
     d="M338.4,1161.1H289.2q1.2-1.65,3-4.2a17.52386,17.52386,0,0,0,2.5-5.9,28.52985,28.52985,0,0,0,.4-6.1v-203.1c0-5.3-.7-9.7-2.1-13a42.709,42.709,0,0,0-7.1-10.9l45.9-3.8v222.7c0,5.6.4,9.9,1.3,12.80005C333.8,1152.5,335.6,1156.4,338.4,1161.1Zm-6.7-296.7H288.3v-45h43.4Z"
     transform="translate(-0.00011 0.00999)"
     style="fill:#fff"
     id="path4" />
  <path
     d="M546,1092.7c0,24.9-10.4,44-31.1,57.1-16.8,10.6-36.9,16-60.2,16a286.97442,286.97442,0,0,1-36.6-1.9,88.98237,88.98237,0,0,1-26.5-7.4l-6.3-37.5c5.9,6.69995,14.9,12.3,27.1,16.8a115.35223,115.35223,0,0,0,40.2,6.7c16,0,28.9-3.4,38.7-10.1,11.5-7.8,17.3-19.9,17.3-36.1a39.42192,39.42192,0,0,0-8.6-25.4c-5.7-7.1-13.7-12.69995-23.8-16.6l-30.7-12.6q-24-9.6-37.5-25.2a60.59924,60.59924,0,0,1-15.1-40.7c0-19.3,8.8-34.9,26.5-46.6,16-10.6,35.4-16,58.1-16,13.2,0,23.4.7,30.7,2.1s15.7,4.6,25.2,9.6v30c-5.9-5.8-14-10-24.2-12.7a122.41435,122.41435,0,0,0-31.4-4.1c-13.2,0-24.1,3.3-32.8,9.9-8.7,6.6-13,15.6-13,27.1,0,8.7,2.5,16,7.6,22.1,5,6,12.2,11,21.5,14.9l30.3,12.2q31.2,12.6,42.9,27.9C542,1062.30005,546,1075.80005,546,1092.7Z"
     transform="translate(-0.00011 0.00999)"
     style="fill:#fff"
     id="path6" />
  <path
     d="M801.9,1160.30005H755.6v-29.9c-10.4,12.2-21.8,20.80005-34.3,26-12.5,5.1-27.3,7.7-44.4,7.7q-37.95,0-62.7-20.2-27.75-22.35-27.8-61.5V949c0-4.5-.2-7.9-.4-10.3a36.62663,36.62663,0,0,0-2.1-8c-1.1-3-3.4-5.8-6.7-8.6l44.2-4.2v144q0,33.6,14.3,54.30005,17.25,24.45007,51.8,24.4,27.3,0,47.1-17.7,19.8-17.70007,19.8-44.19995V946.9a34.9327,34.9327,0,0,0-.6-6.5,60.33511,60.33511,0,0,0-2.7-8.8,38.425,38.425,0,0,0-5-9.5l45.9-5.5v211.3c0,4.2.1,8.1.2,11.80005a30.97568,30.97568,0,0,0,2.7,11.4,18.07505,18.07505,0,0,0,3,5.1C799.1,1157.5,800.5,1158.9,801.9,1160.30005Z"
     transform="translate(-0.00011 0.00999)"
     style="fill:#fff"
     id="path8" />
  <path
     d="M1026.7,1159.9l-43.8.80005V1138.4q-15,14.25-31.2,19.80005c-10.8,3.70008-23.9,5.5-39.5,5.5q-33.9,0-56.5-18.5-24.3-20.25-24.3-54.7,0-30.75,17.3-46.69995c10.1-9.30005,26.2-15.69995,48.4-19.4l50.1-8.4c14.9-2.2,24.5-6,29-11.2s6.7-12.6,6.7-22.1c0-12.1-5.7-22.2-17-30.5-11.4-8.3-25.6-12.4-42.7-12.4a177.31487,177.31487,0,0,0-40,4.2,69.93261,69.93261,0,0,0-31.1,15.6v-28.6a94.90193,94.90193,0,0,1,33.9-12.6,229.93305,229.93305,0,0,1,38.1-3q49.65,0,72.4,20.6c14.3,12.9,21.5,32.6,21.5,58.9v129.6a77.145,77.145,0,0,0,2.1,18.30005A64.25684,64.25684,0,0,0,1026.7,1159.9Zm-42.1-71.6V1031.1001l-31.6,8-45.5,8.4c-12.9,2.5-23.4,7.6-31.4,15.2s-12,17.1-12,28.6c0,14.30005,5.2,26.19995,15.6,35.80005,10.4,9.6,23.3,14.3,38.7,14.3,17.7,0,32.8-4.6,45.5-13.9C977.7,1117.4,984.6,1104.30005,984.6,1088.30005Z"
     transform="translate(-0.00011 0.00999)"
     style="fill:#fff"
     id="path10" />
  <path
     d="M1127.30005,1161.1h-53.5q3.15-7.65,4.19995-10.5a71.71993,71.71993,0,0,0,2-7.80005,80.63065,80.63065,0,0,0,1.4-10.9c.30005-4.1.4-8.19995.4-12.4V825.2c-1.1-6.5-2-12-2.69995-16.6a58.30684,58.30684,0,0,0-2.30005-10.3c-2-3.4-3.5-6-4.6-8l46.69995-3.8-.4,331.7c0,5.9.1,10.5.4,13.69995a82.44853,82.44853,0,0,0,2.5,12.80005c.6,2.19995,1.30005,4.8,2.30005,7.8A71.135,71.135,0,0,0,1127.30005,1161.1Z"
     transform="translate(-0.00011 0.00999)"
     style="fill:#fff"
     id="path12" />
  <path
     d="M1635,1161.6l-53.5,1.3q3.75-5.1,5.69995-8.4a32.36051,32.36051,0,0,0,2.9-6.69995,39.39652,39.39652,0,0,0,1.5-8c.3-3.1.4-5.30005.4-6.69995a42.42889,42.42889,0,0,1,0-8.80005V990.6c0-14.9-6-27.1-18.1-36.6s-26.1-14.3-42.1-14.3-30.1,4.6-42.30005,13.9c-12.19995,9.3-18.30005,21.3-18.30005,36.2v136c0,4.80005.1,8.6.4,11.4a66.28755,66.28755,0,0,0,1.69995,9.5,32.23532,32.23532,0,0,0,2.1,6.9c.6.8,2.2,3.4,5.1,7.6h-52.6c1.4-2,2.9-4,4.4-6.1a11.66949,11.66949,0,0,0,2.30005-6.9V989.8a48.86894,48.86894,0,0,0-16.5-37.5c-11-10.1-24.2-15.2-39.5-15.2q-25.5,0-42.4,18.7-16.95007,18.75-16.9,44.4v138.3a39.66107,39.66107,0,0,0,2.1,11.19995,85.16723,85.16723,0,0,0,5,11.4h-51.8a32.19514,32.19514,0,0,0,5.1-9.5,36.99607,36.99607,0,0,0,1.69995-11.2V946.9a34.6645,34.6645,0,0,0-.80005-6.7c-.3-.8-.9-2.9-1.9-6.1a28.31477,28.31477,0,0,0-3.80005-8.2,45.55,45.55,0,0,1-3.19995-5l45.9-4.2v26.9q28.5-33.3,70.9-33.3c15.7,0,29.1,2.5,40.3,7.6s21.9,13.5,32.30005,25.3l8.4-7.2c9.3-8.1,18.69995-14,28.19995-17.5s20.6-5.3,33.30005-5.3q45.45007,0,70.8,21.7C1618.6,949.4,1627.1,968.9,1627.1,993.6v139.1a73.36993,73.36993,0,0,0,1.69995,12,24.44578,24.44578,0,0,0,1.7,7.6A77.96559,77.96559,0,0,0,1635,1161.6Z"
     transform="translate(-0.00011 0.00999)"
     style="fill:#fff"
     id="path14" />
  <path
     d="M1882.9,1021.8h-177.6L1704,1038.2c0,29.69995,7.4,53.69995,22.4,72q24.9,30.29993,70.9,30.30005c19.4,0,33.9-1.1,43.5-3.4,13.19995-3.1,25.9-9.4,38-18.9L1872.5,1148.8999A131.519,131.519,0,0,1,1841.30005,1160.7c-10.69995,2.5-28.6,3.80005-53.9,3.80005q-56.4,0-87.6-32-32.4-33.29992-32.4-96.4,0-48,32.4-83.3,32.4-35.4,80.4-35.4,44.54993,0,73.69995,30.3Q1882.84991,978.00006,1882.9,1021.8Zm-35-24c-3.4-17.1-10.69995-30.7-21.9-40.6-11.19995-9.9-26.19995-14.9-45-14.9-17.1,0-32.1,5.1-44.80005,15.4q-19.20007,15.3-24.6,40.2h136.3Z"
     transform="translate(-0.00011 0.00999)"
     style="fill:#fff"
     id="path16" />
  <path
     d="M2274.3999,1161.6l-53.5,1.3q3.75-5.1,5.7-8.4a32.347,32.347,0,0,0,2.89991-6.69995,39.39652,39.39652,0,0,0,1.5-8c.3-3.1.3999-5.30005.3999-6.69995a42.42889,42.42889,0,0,1,0-8.80005V990.6c0-14.9-6-27.1-18.1001-36.6s-26.1001-14.3-42.1001-14.3-30.10009,4.6-42.3,13.9c-12.2,9.3-18.3,21.3-18.3,36.2v136c0,4.80005.10009,8.6.3999,11.4a66.29034,66.29034,0,0,0,1.7,9.5,32.22535,32.22535,0,0,0,2.1001,6.9c.60009.8,2.19995,3.4,5.10009,7.6h-52.60009c1.3999-2,2.8999-4,4.3999-6.1a11.66949,11.66949,0,0,0,2.3-6.9V989.8a48.86894,48.86894,0,0,0-16.5-37.5c-11-10.1-24.19995-15.2-39.5-15.2q-25.5,0-42.4,18.7-16.95008,18.75-16.9,44.4v138.3a39.66107,39.66107,0,0,0,2.1,11.19995,77.4159,77.4159,0,0,0,5.1,11.4H1914a32.19537,32.19537,0,0,0,5.1-9.5,36.99607,36.99607,0,0,0,1.69995-11.2V946.9a34.6645,34.6645,0,0,0-.8-6.7c-.30005-.8-.9-2.9-1.9-6.1a28.31477,28.31477,0,0,0-3.80005-8.2,45.55312,45.55312,0,0,1-3.19995-5l45.9-4.2v26.9q28.5-33.3,70.9-33.3c15.7,0,29.1001,2.5,40.30005,7.6s21.8999,13.5,32.3,25.3l8.3999-7.2c9.30005-8.1,18.7-14,28.2-17.5,9.6001-3.5,20.6001-5.3,33.3-5.3q45.45008,0,70.80005,21.7c16.8999,14.5,25.3,34,25.3,58.7v139.1a73.38466,73.38466,0,0,0,1.7,12,24.44578,24.44578,0,0,0,1.69995,7.6A78.02076,78.02076,0,0,0,2274.3999,1161.6Z"
     transform="translate(-0.00011 0.00999)"
     style="fill:#fff"
     id="path18" />
  <path
     d="M2556,1042.4q0,51-37,85.9-37.04993,34.95007-89.7,34.9-50.54992,0-86.69995-36.6-36.15015-36.6-36.2-87.1,0-51.3,37.2-87.3,37.20007-36,89.3999-36,50.84985,0,86.8999,37.3Q2556.05005,990.55,2556,1042.4Zm-36.6001.4q0-40.35-24-69.5-25.34985-30.75-63.3-30.7c-25.8999,0-47.2,9.7-63.8999,29.3q-25.04993,29.25-25.1001,69.7c0,25.5,8.39991,48,25.3,67.3q25.34985,29.1,62.3999,29.1c24.80005,0,45.7-9.4,62.89991-28.19995Q2519.35022,1081.6,2519.3999,1042.80005Z"
     transform="translate(-0.00011 0.00999)"
     style="fill:#fff"
     id="path20" />
  <path
     d="M2709.2,945.2a70.30539,70.30539,0,0,0-18.1001-2.9c-7.80005,0-16.30005,2.5-25.2,7.6-9,5.1-16.3,13.2-21.8999,24.5a82.97521,82.97521,0,0,0-8.3999,37.5v106.3a81.42855,81.42855,0,0,0,3.19995,23,89.42692,89.42692,0,0,0,8.6001,20H2590.2002c2.5-3.69995,3.8999-5.6,4.19995-5.9a25.06243,25.06243,0,0,0,2.8999-7.8,67.7369,67.7369,0,0,0,1.5-11.80005c.1001-4.30005.2-7.9.2-10.80005V954.5a60.3981,60.3981,0,0,0-.8-11c-.30005-.6-1.1001-2.8-2.5-6.8a55.9255,55.9255,0,0,0-9.7-16.4l48.3999-5v35.8a66.29286,66.29286,0,0,1,12-18.1A76.22539,76.22539,0,0,1,2664.7,919.5a62.5588,62.5588,0,0,1,31.6001-8.4,71.539,71.539,0,0,1,13.1001,1.3L2709.2,945.2Z"
     transform="translate(-0.00011 0.00999)"
     style="fill:#fff"
     id="path22" />
  <path
     d="M2966,920.3a114.12253,114.12253,0,0,0-15.1001,16.4,78.36283,78.36283,0,0,0-10.1001,17.7l-124.60009,306.4c-2.8,6.19995-5.5,12.5-8,18.9-.6001,2-1.39991,5.5-2.5,10.5s-1.8,8.69995-2.1001,10.9l-30.2.1,67.7-169.9-85.1001-181.2c-.30005-.8-1.30005-3.1-3.1001-6.8a100.96055,100.96055,0,0,0-5.3-9.6,60.33785,60.33785,0,0,0-5.5-7.5c-2-2.3-3.8-4.3-5.5-6h50.8999a35.86662,35.86662,0,0,0-1.69995,11.1,32.09578,32.09578,0,0,0,2.10009,11.5c2.5,5.1,4.39991,9.1,5.5,11.9l64,143.1,56-147.7a51.91255,51.91255,0,0,0,1.7-14.7c0-4.5-1.5-9.5-4.6001-15.1L2966,920.3Z"
     transform="translate(-0.00011 0.00999)"
     style="fill:#fff"
     id="path24" />
  <path
     d="M3322.5,1160.30005h-46.3v-29.9c-10.3999,12.2-21.80005,20.80005-34.30005,26-12.5,5.1-27.3,7.7-44.3999,7.7-25.2,0-46.2-6.7-62.7-20.2q-27.75-22.35-27.8-61.5V949a90.87734,90.87734,0,0,0-.3999-10.3,36.62413,36.62413,0,0,0-2.1001-8c-1.1001-3-3.3999-5.8-6.7-8.6l44.2-4.2v144q0,33.6,14.3,54.30005,17.25,24.45007,51.80005,24.4,27.29992,0,47.1001-17.7,19.79992-17.70007,19.8-44.19995V946.9a34.91743,34.91743,0,0,0-.60009-6.5,60.36361,60.36361,0,0,0-2.69995-8.8,35.45309,35.45309,0,0,0-5.1001-9.5l45.8999-5.5v211.3c0,4.2.1001,8.1.2,11.80005a33.115,33.115,0,0,0,2.69995,11.4,20.64929,20.64929,0,0,0,2.8999,5.1C3319.7,1157.5,3321.1001,1158.9,3322.5,1160.30005Z"
     transform="translate(-0.00011 0.00999)"
     style="fill:#fff"
     id="path26" />
  <path
     d="M3577.6001,1160.30005h-52.2c1.7-2.19995,3.30005-4.5,4.80005-6.69995a13.35759,13.35759,0,0,0,2.3-7.6V994.9c0-16.8-7.19995-30.4-21.69995-40.6-14.5-10.2-31.10009-15.4-49.8999-15.4q-28.20007,0-45.69995,18.9c-11.6001,12.6-17.5,27.9-17.5,45.9v120a106.74863,106.74863,0,0,0,.6001,13.5,74.58039,74.58039,0,0,0,3.19995,11.8,77.41994,77.41994,0,0,0,5.1001,11.4h-50.89991a39.55747,39.55747,0,0,0,5.30005-10.1,32.42748,32.42748,0,0,0,1.5-10.1V949.8a31.61674,31.61674,0,0,0-.3999-5.5,87.21532,87.21532,0,0,0-2.5-9.3l-4.6001-13,42.5-2.1.3999,26.5c19.6001-21.3,43.8-32,72.89991-32q40.20007,0,68.8999,24.8c19.1001,16.6,28.69995,37.3,28.69995,62.3v123.80005a108.16594,108.16594,0,0,0,.3999,10.9,80.07649,80.07649,0,0,0,1.89991,10.3C3571.6001,1150.7,3574,1155.2,3577.6001,1160.30005Z"
     transform="translate(-0.00011 0.00999)"
     style="fill:#fff"
     id="path28" />
  <path
     d="M3671.5,1161.1h-49.2c.80005-1.1,1.80005-2.5,2.8999-4.2a17.522,17.522,0,0,0,2.5-5.9,28.52768,28.52768,0,0,0,.3999-6.1v-203.1c0-5.3-.7-9.7-2.10009-13a40.78314,40.78314,0,0,0-7.2-10.9l45.89991-3.8v222.7c0,5.6.3999,9.9,1.30005,12.80005C3666.80005,1152.5,3668.7,1156.4,3671.5,1161.1Zm-6.8-296.7h-43.3999v-45H3664.7Z"
     transform="translate(-0.00011 0.00999)"
     style="fill:#fff"
     id="path30" />
  <path
     d="M3839,1159.9h-39.1001q-30.29992,0-45-25.69995a54.32145,54.32145,0,0,1-7.3999-21.7,249.38083,249.38083,0,0,1-1.5-30.1V943.1h-32.3999v-24H3746V883.3c-1.1001-2.2-1.8-3.8-2.1001-4.6a23.36035,23.36035,0,0,0-7.6001-8l46.30005-24v72.5H3838.2v24h-55.6001v140.6a185.23949,185.23949,0,0,0,1.5,25.9c1,6.9,3.39991,12.3,7.39991,16.19995a35.00636,35.00636,0,0,0,25.69995,10.5h21.8999v23.5Z"
     transform="translate(-0.00011 0.00999)"
     style="fill:#fff"
     id="path32" />
  <path
     d="M854.1,134.5c0-16.7-3.2-38.4-10.6-47.5,48.4,0,153.2.3,198.1.3,103.3,0,259.20007,57.4,259.20007,250.6,0,143.5-110,250.3-259.19995,250.3-32.7,0-157.5-.4-201.9-.4,9-16.7,14.4-39.5,14.4-57.5L854.1,134.5Zm74.3,404.6c47.7,6.2,91.7,8.1,131.5,2.4,38.5-5.5,168-33.4,167.2-205.3-.7-162.9-101.4-200.1-178.9-204.7-40.4-2.4-79.5-.8-119.8,6.2L928.4,539.1Z"
     transform="translate(-0.00011 0.00999)"
     style="fill:#fff"
     id="path34" />
  <path
     d="M1343.4,240.8l74.2-11.6v65.4c19.1-47,78.3-84.9,162.5-52.1l-19.7,51.7c-77.1-36.5-142.69995-4.5-142.69995,81.1v176.5c0,8.4,1.8,25.3,6.9,36.2h-77.1c7.80005-9.5,11.4-27.8,11.4-36.2V297.2c-.1001-18.5-3.90015-47.1-15.50013-56.4Z"
     transform="translate(-0.00011 0.00999)"
     style="fill:#fff"
     id="path36" />
  <path
     d="M3690,276.3V501.8c0,70.8,48.7,89.7,85,89.7,15.3.7,36.8999-2.9,52-6.2l9.3-43.7c-17.6001,6.8-38.1001,8.3-50.3999,8.3-22.69995,0-39.1001-15.1-39.1001-38.6,0-21.1-.5-228.1,0-234.7h-.19995c3,0,50-.2,54.8,0,15.3999.5,27.30005,1.4,37.5,5.5l.10009-41.2s-90.19995-.1-92.10009-.1l.3999-105.5-68.3999,18.9c9.3999,8.8,12.5,34.6,12.5,51.6,0,0-.1001,31.5-.1001,35.3-3.1001,0-37.8.2-43.5.2v34.8c5.8999.2,42.2.2,42.2.2Z"
     transform="translate(-0.00011 0.00999)"
     style="fill:#fff"
     id="path38" />
  <path
     d="M3394.3999,514.8c29.3999,21,75.5,39.6,109.3999,39.6,46.89991,0,80.6001-22.8,80.6001-65.8,0-79.3-181-66.2-181-166.9,0-68,60.8999-93.7,118.8999-93.7,18.7,0,61.2,4,88.30005,14.5l-.2,46.5c-24-20.5-60.8-25.6-84.8999-25.6-38.3999,0-67.2,19.1-67.2,56.4,0,54.8,180.7,51.6,180.7,164.2,0,72.8-63,106.7-132.5,106.7-33.8,0-69.1001-6-98.3999-14.4l-13.7002-61.5Z"
     transform="translate(-0.00011 0.00999)"
     style="fill:#fff"
     id="path40" />
  <path
     d="M2302.30005,277c0-4.1.1001-40.9.1001-45.7l-75.1001,11.6c9,9.4,16,39.1,16,60.2V549.3c0,8.4-3.6001,28.8-11.3999,38.4h81.8999c-7.8-9.5-11.3999-30-11.3999-38.4V364.1c0-67.7,42-91.6,83.60009-91.6,37.80005,0,71.89991,16.3,71.89991,91.6V549.4c0,8.4-3.6001,28.8-11.39991,38.4h79.39991c-7.8-9.5-11.39991-30-11.39991-38.4V364.1c0-75.1,46.39991-91.6,84.30005-91.6,37.8,0,77.3,23.7,77.3,91.6V549.4c0,8.4-3.6001,28.8-11.3999,38.4h76.6001c-7.80005-9.5-11.39991-30-11.39991-38.4V328.9c0-37.6-38.3999-97.8-127.8999-97.8-52.1001,0-82.2,23.2-105,43.1-19.3999-22.7-51-43.9-101.80005-43.9-49.40063.1-78.70068,29-92.90063,46.7Z"
     transform="translate(-0.00011 0.00999)"
     style="fill:#fff"
     id="path42" />
  <path
     d="M2125.1001,392.5c-10.7,10.1-33.1001,18-56.3999,21-60.9,8-113.7,18.1-113.7,77.4,0,35.2,38.4,62.9,68.8,62.9,80.5,0,101.30005-58.1,101.30005-103.9V392.5ZM1934.9,247.3c30.7-12.3,80.30005-18,111.4-18C2125.7,229.3,2178.5,268.9,2178.5,361.1V513.8c0,28.3.3999,55.1,10.5,73.9h-63.8l-2.30005-40.2c-24.1001,31.2-53.1001,45.2-102,45.2-96.69995,0-117.8-66.1-117.8-97.8,0-113.3,107.9-114.6,154.69995-121.3,25.89991-3.7,59.2-11,64.2-35.3,8.3-40.1-20.39991-70.3-79.1-70.3-43.1,0-78.4,13.1-107.9,30.8L1934.9,247.3ZM3306.6001,392.5c-10.7,10.1-33.1001,18-56.3999,21-60.89991,8-113.6001,18.1-113.6001,77.4,0,35.2,38.3999,62.9,68.8,62.9,80.5,0,101.30005-58.1,101.30005-103.9l-.1001-57.4ZM3116.5,247.3c30.7-12.3,80.3999-18,111.3999-18C3307.2,229.3,3360,268.9,3360,361.1V513.8c0,28.3-6.2,54.5,10.5,73.9h-63.7l-2.3999-40.2c-24.19995,31.2-53,45.2-102,45.2-96.69995,0-117.8-66.1-117.8-97.8,0-113.3,107.8999-114.6,154.69995-121.3,26-3.7,59.30005-11,64.2-35.3,8.3-40.1-20.3999-70.3-79.1001-70.3-43.1001,0-78.3,13.1-107.8999,30.8V247.3Z"
     transform="translate(-0.00011 0.00999)"
     style="fill:#fff"
     id="path44" />
  <path
     d="M3048.6001,294.1c-23.8999-14-61.7-25-88.1001-25-92.6001,0-135,56.9-135,138.9,0,81.2,41.5,143.4,132,143.4,31,0,73.3-14,106-34.1l-13.3,59.7c-33.3999,10-61.5,14.7-98.6001,14.7-127.2,0-186.80005-90.2-186.80005-184.1,0-103.8,80-176.7,188.2-176.7,47.3,0,81.8,11.6,95.8,15.6L3048.6001,294.1Z"
     transform="translate(-0.00011 0.00999)"
     style="fill:#fff"
     id="path46" />
  <path
     d="M1624.7,412.4a212.17717,212.17717,0,0,1,2.19995-24.6H1873c0-84.6-42.30005-157.1-142.6-157.1-104.1,0-165.8,81.4-165.8,185.2,0,93.8,68.8,177.7,186.5,177.7,37.3,0,68.4-9.1,102-20.9l11.8-60c-28.69995,23.7-75.19995,37.7-117.1,37.7-75.4-.4-123.5-54.9-123.1001-138Zm9.9-62.2c8-41.2,46.1-83.1,91.69995-83.1,69.7,0,89.80005,54.4,89.80005,83.1-.1,0-181.5.1-181.5,0Z"
     transform="translate(-0.00011 0.00999)"
     style="fill:#fff"
     id="path48" />
  <path
     d="M452.7,9c27.6,4.1,55.8,13.7,70.5,18.3,29.7,9,77.7,37.2,94.7,50.7,8,6.4,24.9,23.1,31.5,31.5,6.4,8.2,18.6,26,26.3,36.8,12.4,18.1,26.9,45,39.3,69.7,13.8,27.6,14.8,35.7,18.9,58.8l9.1,40.7c.8,7.1,1.5,32.8-13.6,36.5-15.2,3.6-29.1-3.4-35.8-13.5-9.1-14.2-7.9-34.3-18.3-57.3-8.1-18.6-11.6-45.6-24.4-65.1l-10.1-17c-17.9-27.5-36.5-49.4-47.6-63.6-9.8-12-28.1-28.2-45.4-39.8-16-9.7-42-20.8-60.7-26.5-5.9-1.9-31.4-9.4-47.3-11.5-21.5-2.4-35.6-5.8-56-7.3-25.2-1.7-37.4-4-70-.2-12.4,3.4-32,4.7-49.7,11.5a426.46259,426.46259,0,0,0-53.6,26.7c-20.9,11.5-52.7,34.9-73.8,55-21.2,22.7-31.8,34.9-46.5,63.6-6.6,14.1-19.1,36-24.1,51.6-3.5,15.8-10.1,45.2-8.9,59.5.5,25.6-1.7,30.9.2,51.8.1,18.9,6.3,31.9,8.8,47.3,2.2,10.7,12.4,47.4,18.7,56,28.7,61.9,67.2,88.7,110.2,108,12.1,6.2,50,16.3,61,19.2,18.7,3.4,43.3,5.6,66.9,6.1,24.9.5,59.2-2.9,80.1-10.6,22.6-8.3,48.6-20.1,48.3-19.7,10.5-5.8,26.5-15.2,31.4-19.3,9.6-6.2,15.4-8.5,21-14.5,8.2-7.2,13.2-11.3,19.4-20.2,3.5-5,9-12.7,14.3-19.5,5.8-9.4,9-19.4,14.7-31.7,6.8-18.3,5.7-17.3,7-36.6,1.2-5.6-.1-24.4-1.1-27.7-3.1-17.4-2-32.7-6-49.7-5.3-22.9-9.8-39.9-16.7-61.9-6.5-24.6-25.5-47.5-39.6-63.8-8.8-10.2-36.1-34.1-74.1-49a311.2231,311.2231,0,0,0-39.2-9.6c-23.7-2.5-27.6-.9-50.3.8-7.8,1.3-26,5-32.6,7.4-19.5,6.9-26.7,11.2-46.6,23.4-9.2,5.3-16.3,9.5-25.8,18.4-7.6,7-12.9,18.9-19.1,25.9-8.4,11.4-17.8,26.7-24,43.1-6.8,16.3-9,39.4-7.9,54.2,0,11.3,3.1,31.9,4.3,36.4s4.3,18.6,4.9,21.3c.7,2.8,8,17.6,9,19.8,4.1,8.7,12,21.3,25.2,34.2,9.8,10.7,28.7,21.2,42.9,25.2,12.7,7,34.2,8.2,46,8.2,5.8-.4,20.7-1.2,28.5-3.1,15.8-3.8,18.7-3.9,35-11,14.6-6.8,24.5-9.2,34.7-16.7,0,0,14-10.9,20.3-19,3.4-4.2,9.1-24.3,8.1-36.8-.5-17,2-26.7-1.5-40.7-3.5-14.1-9.4-30.3-15.9-40.3-6.6-10.2-20.5-20-36.5-27.9-8.9-4.4-30.2-8.5-39.1-9.5-17-2-31.3,5.8-40,14.6-7.5,8.6-22.4,26.5-16.4,44.8,5.3,16.7,11.8,34.5,36.8,33.1,17.2,3.6,37-1.5,43.7,1.4,9.8,5.5,13.5,17.9,10.1,26.5-2.5,16.5-18.4,18.6-35.3,19.8-15.2,2.6-53.7-4.9-62.1-11.2-5.6-3.4-14.4-11.5-20.4-16.9-4.4-4-9.3-12.7-12.7-19-4.2-7.7-6.3-13.4-7.4-18.5-1.2-6-3.9-17.4-2.9-28.8.7-7.7,2.8-11,4.8-22.3a108.45264,108.45264,0,0,1,17.3-33.6c10.7-10.8,24.2-23.7,37.4-29.7,11.7-6.2,32-8.4,50.5-7.3,15,1.4,32.7,3.3,44.4,7.2,20,7.2,25.8,8.6,42.3,19,13.9,8.6,27.9,24.4,35.7,37.6,16.6,34,26.2,71.7,19.2,122.8-.5,8.6-3.3,16.9-8.6,28.4a86.098,86.098,0,0,1-26.7,32.8,106.66788,106.66788,0,0,1-20.2,14.4c-9.5,5.7-16,8.8-26,13.9a195.462,195.462,0,0,1-32.3,12.5c-14.5,5.7-25.6,5.9-43.6,8.6-17.9,4.5-66.7,1.3-95.9-11.6a180.14483,180.14483,0,0,1-59.1-41.1c-9.4-9.8-18.7-27.8-21.3-31.4-13.4-26-16.1-50.3-18.3-55.4-3-7-4.4-22.6-6.4-33.3-2.3-12-.8-62.2,11.2-94.3,6.8-12.8,10.8-24.2,15.4-30.3,8.3-11.8,12.3-19.2,19.3-27.5,10.7-12.8,18.4-23.4,28.6-30.8,26.4-21.4,48.3-32.7,78.2-46.9,37-15.1,48.1-12,83.1-11.4,15.8.1,38.7,5.1,50,7.2,20.9,2.8,32.9,7.8,47.1,11.8,15.2,4.2,23.9,11,36.3,18.5a229.98233,229.98233,0,0,1,30.2,23c20.3,14.9,30.2,30.6,42.6,49.9,2.3,3.2,17,34.8,19.4,43.5,1.1,4.4,4.4,17,6.6,24.4,2.8,11.7,4.1,22.1,7.2,35.3,2.8,13.6,7.5,39.3,9.4,63.3,3.4,20.6-2,62.7-5.3,75.5-7.2,24.1-19.8,53.5-44.6,81.8-10.6,12.5-21.8,22.3-34.8,32.8-10,8.2-18.5,13.1-33.8,22.3-20.8,12.4-36.6,20.3-65.9,31.8-11.9,3.8-26.9,8.8-43,12.1-31.3,2.9-63.4,5.7-98.5,1.4-35.1-4.2-70.2-14.1-91-20.4-11.5-4.3-33.7-13.5-43-18.7-6.1-3.1-26.4-16.9-29.8-20.3-14-8.6-45.1-37.9-65.2-65.2-4.4-8.4-20.2-33.8-23.7-44.8-9.1-18.8-15.5-41.5-19.2-51.1-3.9-22.7-10.6-37.3-13.2-59.9.3-5.3-1-18-2.3-24.8,1.7-15.5-.6-30.2,2.5-47.1,2.7-14.3,6.3-20.2,7.2-33.1.8-5.5,7.9-22.2,9.8-29.6,5.7-12.2,7.2-22.2,14.7-35.8,10.8-21.1,22.1-45.6,39.4-66.8,4.9-6.6,19-22.5,23.7-27.9,11.3-11.3,18-13,30.7-24.4,1.3-.8,9.7-10.5,18.7-13.7,14.7-11.3,27.4-15.5,41.4-25.9,28-14,38.2-18.7,66-30.3,16.3-5.6,38.8-8.8,46.8-11.9,15.4-.9,30.9-5.8,47.1-4.9,18.2-.2,36.4,1.1,54.6,2.8C414.9,3.6,430.9,4.3,452.7,9Z"
     transform="translate(-0.00011 0.00999)"
     style="fill:#ff0000"
     id="path50" />
</svg>
