<svg id="Layer_1" data-name="Layer 1" xmlns="http://www.w3.org/2000/svg" xmlns:xlink="http://www.w3.org/1999/xlink" viewBox="0 0 3839.1001 1695.40007"><defs><clipPath id="clip-path" transform="translate(0 0.10002)"><rect x="2221.3999" y="125.7" width="308.8999" height="368.59999" style="fill:none"/></clipPath></defs><rect y="1429.19999" width="3839" height="266.20007" style="fill:#034693"/><path d="M228.6,1631.9c-5.8,3.4-9.1,4.1-15.7,4.1-38.4,0-43.5-41.80005-43.5-71.30005s3.7-76.30005,43.1-76.30005c6.7,0,10.3,1.1,16.2,4.30005v17.5A25.2747,25.2747,0,0,0,216.2,1506.5c-26.1,0-26.3,38.80005-26.3,57.1,0,18.8,1.5,53.5,27.4,53.5a24.03325,24.03325,0,0,0,11.4-2.80005V1631.9Z" transform="translate(0 0.10002)" style="fill:#fff"/><path d="M352.1,1598.7c-3.4,21.1-11,37.30005-34.9,37.30005-12.3,0-22.8-5.19995-28.9-16.19995-8.2-14.9-8.8-44-8.8-61,0-16.80005.4-37.5,7.8-52.80005,6-12.5,15.7-17.5,29.5-17.5,12.1,0,22,4.69995,28.2,15.30005,8.8,15.30005,9.3,43.30005,9.3,61A224.51537,224.51537,0,0,1,352.1,1598.7ZM331,1519.6c-1.7-7.80005-5.6-13.6-14.2-13.6-5.2,0-8.4,1.9-11.2,6-5.8,8.19995-5.8,31.69995-5.8,41.80005,0,15.1-.4,30.6,1.9,45.5,1.5,8.80005,4.5,18.80005,15.3,18.80005,6.9,0,11-4.1,13.4-10.30005,3.9-11,3.7-35.80005,3.7-48.30005C334,1546.4,334,1532.6,331,1519.6Z" transform="translate(0 0.10002)" style="fill:#fff"/><path d="M412.2,1634.1V1490.29993h19.4v127.4h31.7v16.4Z" transform="translate(0 0.10002)" style="fill:#fff"/><path d="M579.5,1598.7c-3.4,21.1-11,37.30005-34.9,37.30005-12.3,0-22.8-5.19995-28.9-16.19995-8.2-14.9-8.8-44-8.8-61,0-16.80005.4-37.5,7.8-52.80005,6-12.5,15.7-17.5,29.5-17.5,12.1,0,22,4.69995,28.2,15.30005,8.8,15.30005,9.3,43.30005,9.3,61A238.3272,238.3272,0,0,1,579.5,1598.7Zm-21.1-79.1c-1.7-7.80005-5.6-13.6-14.2-13.6-5.2,0-8.4,1.9-11.2,6-5.8,8.19995-5.8,31.69995-5.8,41.80005,0,15.1-.4,30.6,1.9,45.5,1.5,8.80005,4.5,18.80005,15.3,18.80005,6.9,0,11-4.1,13.4-10.30005,3.9-11,3.7-35.80005,3.7-48.30005C561.4,1546.4,561.4,1532.6,558.4,1519.6Z" transform="translate(0 0.10002)" style="fill:#fff"/><path d="M685.3,1634.1l-26.3-67v67H639.6V1490.29993h25.7c7.8,0,14.4.4,20.9,5.4,9.7,7.30005,12.3,20.69995,12.3,32.1,0,14-3.9,32.5-20.7,36.4L705.2,1634H685.3Zm-26.3-80c5,0,10.1-.2,14-3.4,5.4-4.5,6.7-12.69995,6.7-19.4,0-5.8-.9-13.8-3.9-19-3.2-5.4-8-6-13.6-6H659Z" transform="translate(0 0.10002)" style="fill:#fff"/><path d="M860.8,1490.30005c8,0,14,.19995,21.1,4.5,11.9,7.1,14.2,22.80005,14.2,35.6,0,11.9-2.6,25.6-12.5,33.4-8.2,6.30005-19,6.5-28.9,6.5v63.80005h-19.4V1490.30005ZM856.5,1553.7c15.7,0,19.4-8.6,19.4-22.80005,0-12.9-3.4-24.1-18.5-24.1h-2.6v47H856.5Z" transform="translate(0 0.10002)" style="fill:#fff"/><path d="M1019.7,1598.7c-3.4,21.1-11,37.30005-34.9,37.30005-12.3,0-22.8-5.19995-28.9-16.19995-8.2-14.9-8.8-44-8.8-61,0-16.80005.4-37.5,7.8-52.80005,6-12.5,15.7-17.5,29.5-17.5,12.1,0,22,4.69995,28.2,15.30005,8.8,15.30005,9.3,43.30005,9.3,61A238.3272,238.3272,0,0,1,1019.7,1598.7Zm-21.1-79.1c-1.7-7.80005-5.6-13.6-14.2-13.6-5.2,0-8.4,1.9-11.2,6-5.8,8.19995-5.8,31.69995-5.8,41.80005,0,15.1-.4,30.6,1.9,45.5,1.5,8.80005,4.5,18.80005,15.3,18.80005,6.9,0,11-4.1,13.4-10.30005,3.9-11,3.7-35.80005,3.7-48.30005C1001.6,1546.4,1001.6,1532.6,998.6,1519.6Z" transform="translate(0 0.10002)" style="fill:#fff"/><path d="M1125.5,1634.1l-26.30005-67v67h-19.4V1490.29993h25.7c7.8,0,14.4.4,20.9,5.4,9.7,7.30005,12.30005,20.69995,12.30005,32.1,0,14-3.9,32.5-20.69995,36.4L1145.4,1634h-19.9Zm-26.30005-80c5,0,10.1-.2,14-3.4,5.4-4.5,6.69995-12.69995,6.69995-19.4,0-5.8-.9-13.8-3.9-19-3.2-5.4-8-6-13.6-6H1099.2Z" transform="translate(0 0.10002)" style="fill:#fff"/><path d="M1228.5,1507.4v126.7h-19V1507.4h-22v-17h62.9v17Z" transform="translate(0 0.10002)" style="fill:#fff"/><path d="M1342.5,1634.1l-5.4-28h-28.5l-5.4,28H1284.3999L1315.7,1490.29993H1331L1361.6,1634.1Zm-8.1-42.9c-4.3-24.1-8.6-48.5-11.19995-72.9-2.4,24.6-7.1,48.7-11.6,72.9Z" transform="translate(0 0.10002)" style="fill:#fff"/><path d="M1438,1490.30005c24.1,0,30.80005,17,30.80005,38.4,0,8-.9,16.6-5.4,23.5-3.19995,5-7.1,6.9-12.69995,8.8,4.5,1.7,9.3,3.9,12.69995,7.5,6.30005,6.7,7.5,17.2,7.5,26.1,0,23.3-8.19995,39.4-33.8,39.4h-25.4v-143.8H1438Zm-6.69995,63.3999c16.6,0,18.80005-11,18.80005-25,0-11.19995-3.4-22.6-16.80005-22.6h-3.19995v47.6ZM1430,1617.5c4.1,0,8.4,0,12.1-1.69995,8-3.69995,8.8-14.19995,8.8-21.80005,0-15.69995-3.19995-25-20.9-25Z" transform="translate(0 0.10002)" style="fill:#fff"/><path d="M1529,1634.1V1490.29993h19.4v127.4h31.7v16.4Z" transform="translate(0 0.10002)" style="fill:#fff"/><path d="M1630.9,1634.1V1490.29993h51.5v16.4h-32.1v45.69995h28.5v16.4h-28.5v48.9h32.1v16.4Z" transform="translate(0 0.10002)" style="fill:#fff"/><path d="M1850.5,1634.1H1835.2l-27.80005-143.80005h19.2c4.5,27.80005,9.1,55.6,13.1,83.6,1.30005,8.2,2.6,16.4,3.4,24.6.4-7.80005,1.9-15.5,3.19995-23.30005,1.7-10.6,3-21.30005,5-31.9l9.30005-53h18.1Z" transform="translate(0 0.10002)" style="fill:#fff"/><path d="M1928.1,1634.1V1490.29993h19.4V1634.1Z" transform="translate(0 0.10002)" style="fill:#fff"/><path d="M2032.4,1490.30005c14,0,23.49988,1.9,32.49988,13.1,12.5,15.30005,12.8999,41.80005,12.8999,60.80005,0,18.1-.60009,44.4-13.8,58.4-10.1001,10.8-26.1,11.4-39.9,11.4h-15.69995v-143.8H2032.4Zm-3.6,127c18.30005,0,24.6001-8.4,27.3999-25.6a183.89418,183.89418,0,0,0,1.5-26.7,237.52663,237.52663,0,0,0-1.30005-28c-2.19995-16.6-6.5-30.19995-26.1-30.19995h-2.4v110.6h.90015Z" transform="translate(0 0.10002)" style="fill:#fff"/><path d="M2135.8999,1634.1V1490.29993h51.5v16.4h-32.1001v45.69995h28.5v16.4h-28.5v48.9h32.1001v16.4Z" transform="translate(0 0.10002)" style="fill:#fff"/><path d="M2313.7,1598.7c-3.3999,21.1-11,37.30005-34.8999,37.30005-12.3,0-22.8-5.19995-28.8999-16.19995-8.19995-14.9-8.8-44-8.8-61,0-16.80005.3999-37.5,7.8-52.80005,6-12.5,15.7-17.5,29.5-17.5,12.10009,0,22,4.69995,28.2,15.30005,8.8,15.30005,9.3,43.30005,9.3,61A224.548,224.548,0,0,1,2313.7,1598.7Zm-21.09985-79.1c-1.7-7.80005-5.6001-13.6-14.2-13.6-5.19995,0-8.39991,1.9-11.19995,6-5.80005,8.19995-5.80005,31.69995-5.80005,41.80005,0,15.1-.39991,30.6,1.8999,45.5,1.5,8.80005,4.5,18.80005,15.30005,18.80005,6.8999,0,11-4.1,13.3999-10.30005,3.8999-11,3.7-35.80005,3.7-48.30005C2295.6001,1546.4,2295.6001,1532.6,2292.6001,1519.6Z" transform="translate(0 0.10002)" style="fill:#fff"/><path d="M2517.5,1564c0,15.69995.2,33.4-4.1001,48.69995C2509.09985,1628,2499,1636,2483,1636c-24.6001,0-32.3-17.19995-35.8-38.6a235.13089,235.13089,0,0,1-2.2-34.5c0-16.6.3999-34.9,5.2-50.9,4.69995-15.5,15.5-23.5,31.8999-23.5,20.5,0,29.1001,10.80005,34.5,29.30005l-18.10009,7.5c-1.89991-9.69995-4.5-19.80005-16.6001-19.80005-6,0-8.8,2.4-11.6001,7.5-4.69995,8.80005-5.19995,38.19995-5.19995,49.1,0,13.1.19995,26.5,2.6001,39.4,1.7,8.80005,4.5,16.19995,14.8999,16.19995,16.19995,0,16.6001-20.9,16.6001-32.5v-10.6h-16.8v-16.4h35.1001V1564Z" transform="translate(0 0.10002)" style="fill:#fff"/><path d="M2622.7,1634.1l-5.3999-28h-28.5l-5.3999,28h-18.8l31.3-143.80005h15.30005L2641.80029,1634.1Zm-8.2-42.9c-4.3-24.1-8.6001-48.5-11.2-72.9-2.3999,24.6-7.1001,48.7-11.6001,72.9Z" transform="translate(0 0.10002)" style="fill:#fff"/><path d="M2766,1634.1c-1.3-19.80005-2.8-39.9-3.7-59.7-.19995-6.5-.6001-12.69995-.8999-19.19995-.19995-6.7.3999-13.4-.6001-20-5.19995,33.19995-12.1001,66-18.3,98.9h-12.8999c-6.8999-32.80005-14.8999-65.5-19-98.9l-5.6001,98.9h-18.1001l11.8999-143.80005h16.6001l12.5,58.6c.6001,3.4,1.7,6.9,2.3999,10.30005,2.2,11.6,3.89991,23.3,5.39991,34.9.3999-6.9,2.2-13.6,3.2-20.30005.8999-5.19995,1.5-10.6,2.3999-15.69995.6001-3.4,1.5-6.7,2.2-10.1l11.19995-57.8h16.80005l13.3999,143.8H2766Z" transform="translate(0 0.10002)" style="fill:#fff"/><path d="M2839.30005,1634.1V1490.29993h51.5v16.4H2858.7v45.69995h28.5v16.4h-28.5v48.9h32.1001v16.4Z" transform="translate(0 0.10002)" style="fill:#fff"/><path d="M3070.2,1512.30005c-4.7-3.69995-9.7-6.5-15.7-6.5-11,0-17.5,8.80005-17.5,19.19995,0,26.5,40.1001,33.19995,40.1001,72.9,0,20-11.8999,38.2-33.3999,38.2-8,0-14.7-1.9-21.1001-6.9V1610c5.8,4.30005,11.3999,7.5,18.8,7.5,11.3999,0,17-9.1,17-19.6,0-29.69995-40.3-34.3-40.3-72.6,0-20.5,10.6001-36.6,32.5-36.6,8,0,12.69995,1.1,19.8,4.69995Z" transform="translate(0 0.10002)" style="fill:#fff"/><path d="M3165.8999,1572.2v61.9H3146.5v-61.9l-30-81.9H3137l11.6001,38.6a223.21765,223.21765,0,0,1,7.1001,28c1.10009-6.5,3.8999-21.1,5.60009-28.5l9.5-38.19995h20Z" transform="translate(0 0.10002)" style="fill:#fff"/><path d="M3288.1001,1512.30005c-4.7-3.69995-9.7-6.5-15.7-6.5-11,0-17.5,8.80005-17.5,19.19995,0,26.5,40.10009,33.19995,40.10009,72.9,0,20-11.8999,38.2-33.3999,38.2-8,0-14.7-1.9-21.1001-6.9V1610c5.80005,4.30005,11.39991,7.5,18.80005,7.5,11.39991,0,17-9.1,17-19.6,0-29.69995-40.30005-34.3-40.30005-72.6,0-20.5,10.6001-36.6,32.5-36.6,8,0,12.7,1.1,19.80005,4.69995Z" transform="translate(0 0.10002)" style="fill:#fff"/><path d="M3377.6001,1507.4v126.7h-19V1507.4h-22v-17H3399.5v17Z" transform="translate(0 0.10002)" style="fill:#fff"/><path d="M3448.8999,1634.1V1490.29993h51.5v16.4h-32.1001v45.69995h28.5v16.4h-28.5v48.9h32.1001v16.4Z" transform="translate(0 0.10002)" style="fill:#fff"/><path d="M3631,1634.1c-1.3-19.80005-2.8-39.9-3.7-59.7-.19995-6.5-.6001-12.69995-.8999-19.19995-.19995-6.7.3999-13.4-.6001-20-5.19995,33.19995-12.1001,66-18.3,98.9h-12.8999c-6.8999-32.80005-14.8999-65.5-19-98.9l-5.6001,98.9h-18.1001l11.8999-143.80005h16.6001l12.5,58.6c.6001,3.4,1.7,6.9,2.3999,10.30005,2.2,11.6,3.89991,23.3,5.39991,34.9.3999-6.9,2.2-13.6,3.2-20.30005.8999-5.19995,1.5-10.6,2.3999-15.69995.6001-3.4,1.5-6.7,2.2-10.1l11.19995-57.8h16.80005l13.3999,143.8H3631Z" transform="translate(0 0.10002)" style="fill:#fff"/><path d="M0,1399.7V494.9a65.59582,65.59582,0,0,1,65.5-65.5H1072.6L1215.5,42.7A65.73274,65.73274,0,0,1,1276.9-.1H2562.2002a65.73258,65.73258,0,0,1,61.3999,42.8L2766.5,429.4H3773.6001a65.59575,65.59575,0,0,1,65.5,65.5v904.7H0Z" transform="translate(0 0.10002)" style="fill:#ffa300"/><path d="M34.5,494.9v870.3h3770V494.9a31.02664,31.02664,0,0,0-31-31H2764a30.83075,30.83075,0,0,1-29-20.2l-143.8-389a30.88613,30.88613,0,0,0-29-20.2H1276.80005a30.83088,30.83088,0,0,0-29,20.2L1104,443.7a30.886,30.886,0,0,1-29,20.2H65.5A31.0266,31.0266,0,0,0,34.5,494.9Z" transform="translate(0 0.10002)" style="fill:#d60700"/><path d="M169.5,751.9c0-127.7,81.8-189.1,194-189.1,102.3,0,194,37.6,194,160.4v72.8H414.2v-65.5c0-32.7-13.9-51.6-47.5-51.6-40.1,0-46.7,39.3-46.7,59.7v323.3c0,17.2,0,59.7,43.4,59.7,33.6,0,48.3-15.6,48.3-49.1v-84.3H358.5V867.3H557.4v360.1H425.7v-53.19995h-1.6c-27,44.19995-63,63.8-116.2,63.8-108,0-138.3-90-138.3-189.1V751.9Z" transform="translate(0 0.10002)" style="fill:#fff"/><path d="M663.1,573.4H862.8l122.8,654h-158l-13.9-116.19995H708.1L692.5,1227.4H541.9ZM723.6,995h75.3l-35.2-320h-1.6Z" transform="translate(0 0.10002)" style="fill:#fff"/><path d="M974.1,573.4h237.4l42.6,324.1h1.6l42.6-324.1h237.4v654H1390V719.1h-1.6l-84.3,508.29992h-98.2l-84.3-508.3H1120v508.3H974.1Z" transform="translate(0 0.10002)" style="fill:#fff"/><path d="M1568.30005,573.4H1903.1001v126h-184.2V829.5h161.2v126h-161.2V1101.2h191.5v126h-342.1V573.4Z" transform="translate(0 0.10002)" style="fill:#fff"/><path d="M2066.2,747.5c0-127.7,81.8-189.1,194-189.1,102.3,0,194,37.7,194,160.4v72.8H2311V726.1c0-32.7-13.8999-51.6-47.5-51.6-40.1001,0-46.7,39.3-46.7,59.7V1057.5c0,17.19995,0,59.69995,43.3999,59.69995,33.6001,0,48.3-15.6,48.3-49.1V984h-53.2V862.9H2454.2V1223H2322.3999v-53.19995h-1.6001c-27,44.19995-63,63.80005-116.19995,63.80005-108,0-138.30005-90-138.30005-189.1V747.5Z" transform="translate(0 0.10002)" style="fill:#fff"/><path d="M2486.1001,569.1h334.8v126H2636.7002v130.1h161.19995v126H2636.7002V1097h191.5v126H2486.1001Z" transform="translate(0 0.10002)" style="fill:#fff"/><path d="M2946.5,569.1h199.7l122.8,654H3111l-13.8999-116.2H2991.5L2976,1223H2825.3999Zm60.6001,421.5h75.3l-35.19995-320h-1.6001Z" transform="translate(0 0.10002)" style="fill:#fff"/><path d="M3646.7,1132.4c-.1001-11.4,0-22.6,0-32.9V984c0-54.8-34.3999-93.3-87.6001-103.9v-1.6c80.19995-24.6,90.89991-74.5,90.89991-151.4,0-117.9-56.5-158-190.7-158H3260.3999v654H3411V940.7h27.8c42.6001,0,57.30005,16.4,57.30005,54v228.4h150.6001v-90.7Zm-198.8999-303.1H3411v-149h29.5c58.8999,0,58.8999,26.2,58.8999,72C3499.30005,795,3499.30005,829.3,3447.80005,829.3Z" transform="translate(0 0.10002)" style="fill:#fff"/><path d="M2217.80005,224.5V97.1s-118.5-.9-175.5,0c-76.19995,1.2-117.4,49.6-118.1,112.1-.6,62.5-.5,156.1-.30005,176.3.6,72.1,53.9,114,121.2,113.1h172.70007V236.5h-151.5a3.80777,3.80777,0,0,0-1.3.1,5.42059,5.42059,0,0,0-.2,1.7V361.6H2096.2v12h-43.3999V238.4c0-4.1,1.30005-13.8,13.5-13.8h151.5Z" transform="translate(0 0.10002)"/><path id="path16" d="M2205.6001,498.6s114.8-341.2,116-344.7c3.19995-9.8,21.1001-60.6,82-60.6S2485,153.9,2485,153.9l112.2,344.7H2381.3999V403.5L2347.5,498.6Zm212-132.8L2405,330.8l-14.2,35Z" transform="translate(0 0.10002)"/><path id="path28" d="M1901.30005,373.9V498.6h-165c-111.30005,0-122.1-85.2-122.1-114.3V227.1c0-113,64.6-130,144.9-130h142.69995V225.7L1809,225.9h-57c-2.4,0-4.30005,2.4-4.30005,4.8s1.9,3.7,4.30005,3.7h119.4V365.3H1753a4.3,4.3,0,1,0,0,8.6h115.00012l33.29993,0" transform="translate(0 0.10002)"/><path id="path36" d="M1584.5,99.1H1419.1c-93.4,0-136.2,60-135.2,133.9.80005,60.6,43.1,121.5,111.7,125.6,0,0,50.3,1.9,57.3,1.9s10.1.2,9.7,5.3c-.30005,4.2-5.5,3.6-10.4,3.6H1287.5V499.8s158.4.4,182.9-1c51.2-2.9,122.30005-47.5,122.30005-127.5s-60.30005-131.4-113.7-135.6c0,0-59.19995-.8-62.6-.8s-5.1-2.1-4.69995-5,.9-3.4,4.69995-3.4h167.5L1584.5,99.1" transform="translate(0 0.10002)"/><path d="M2213.3999,220.2V92.7s-118.5-.9-175.5,0c-76.19995,1.2-117.4,49.6-118.1,112.1-.6,62.5-.5,156.1-.3,176.3.6,72.1,53.9,114,121.19995,113.1H2213.3999V232.1h-151.5a3.80813,3.80813,0,0,0-1.3.1,5.421,5.421,0,0,0-.2,1.7V357.2h31.3999v12h-43.3999V234c0-4.1,1.30005-13.8,13.5-13.8h151.5Z" transform="translate(0 0.10002)" style="fill:#034693"/><path id="path16-2" data-name="path16" d="M2201.2,494.2S2316,153,2317.2,149.5c3.19995-9.8,21.1001-60.6,82-60.6s81.3999,60.6,81.3999,60.6L2592.7998,494.2h-215.8V399.1l-33.89991,95.1Zm212-132.8-12.6001-35-14.2,35Z" transform="translate(0 0.10002)" style="fill:#034693"/><path id="path26" d="M2213.3999,156.7H2035.2c-36.4,0-51.9,25.7-52.30005,53.5-.19995,13.1,0,153.2,0,171.8s16.5,47.1,46.80005,47.1H2150.5V295h-90.1001" transform="translate(0 0.10002)" style="fill:none;stroke:#fff;stroke-miterlimit:10;stroke-width:11.968600273132324px"/><path id="path28-2" data-name="path28" d="M1896.9,369.6V494.3h-165c-111.3,0-122.1-85.2-122.1-114.3V222.8c0-113,64.6-130,144.9-130H1897.4V221.4l-92.8.2h-57c-2.4,0-4.30005,2.4-4.30005,4.8s1.9,3.7,4.30005,3.7H1867V361H1748.79993a4.3,4.3,0,1,0,0,8.6h115.00012l33.1,0" transform="translate(0 0.10002)" style="fill:#034693"/><path id="path32" d="M1897.4,429.6h-167c-32.69995,0-54.19995-20-54.19995-51.2V212.5c0-38,21.4-55.3,50-55.3h171.1" transform="translate(0 0.10002)" style="fill:none;stroke:#fff;stroke-miterlimit:10;stroke-width:11.968600273132324px"/><path id="path34" d="M1867,294.2H1675.7" transform="translate(0 0.10002)" style="fill:none;stroke:#fff;stroke-miterlimit:10;stroke-width:11.968600273132324px"/><path id="path36-2" data-name="path36" d="M1580.2,94.7h-165.4c-93.4,0-136.19995,60-135.19995,133.9.8,60.6,43.1,121.5,111.69995,125.6,0,0,50.30005,1.9,57.30005,1.9s10.1.2,9.69995,5.3c-.3,4.2-5.5,3.6-10.4,3.6H1283.2V495.4s158.4.4,182.9-1c51.19995-2.9,122.3-47.5,122.3-127.5s-60.3-131.4-113.69995-135.6c0,0-59.2-.8-62.6-.8s-5.1-2.1-4.7-5,.9-3.4,4.7-3.4h167.5L1580.2,94.7" transform="translate(0 0.10002)" style="fill:#034693"/><path id="path38" d="M1579.80005,158.2,1411,158.1s-67.69995-3.2-67.69995,67.1c0,34.9,19.1,53.5,41.1,61.8,18,6.8,27.1,6,76.6,6,33.5,0,64.19995,26.8,64.19995,71.6,0,72.1-89.4,65.7-107.4,65.7h-134.8" transform="translate(0 0.10002)" style="fill:none;stroke:#fff;stroke-miterlimit:10;stroke-width:11.968600273132324px"/><g style="clip-path:url(#clip-path)"><path id="path22" d="M2269.30005,498.4s107.7-323.7,112.5-339.9,26.8999-23.9,34.7-2.4,88.6001,271.1,88.6001,271.1h-128.2" transform="translate(0 0.10002)" style="fill:none;stroke:#fff;stroke-miterlimit:10;stroke-width:11.968600273132324px"/></g></svg>