<svg id="Layer_1" data-name="Layer 1" xmlns="http://www.w3.org/2000/svg" viewBox="0 0 3839.19995 317.40002"><path d="M347.4,107.2l-8.2-3.5a18.56124,18.56124,0,0,0,1-5.5c0-5.1-47.9-32.5-131-32.5-79.4,0-113.5,18.9-113.5,43.1,0,64.3,300.1-29.7,300.1,112.1,0,51.7-65.2,91.7-195.7,91.7-124.3,0-159.9-30.5-171.7-30.5-3.1,0-4.6,2-7.1,3.1L14.7,284,57,217.4l8.2,3.1c0,1.6-1,3.1-1,6.3,0,23.2,65.7,39.5,131,39.5,92.7,0,124.3-20.4,124.3-41.9,0-76.8-296,18.5-296-111.7-.1-65.8,90-93.2,188.9-93.2,88.6,0,150.8,29.7,156.9,29.7,6.6,0,7.7-1.6,9.2-2.7l8.2,2Z" transform="translate(0 0)"/><path d="M410.6,303.2c11.2,0,13.3-3.1,13.3-11.8V40.6c0-8.6-2-11.8-13.3-11.8V23.3H741.2c12.2,0,17.4-3.1,17.4-8.6h7.1V79.8h-7.1c0-7.1-5.1-10.2-17.4-10.2h-245v69.8H656.1c12.2,0,17.4-3.1,17.4-10.2h7.1v65.9h-7.1c0-3.1-1-5.5-4.1-7.1-2.6-1.6-7.1-2.4-13.3-2.4H496.2v76.8H745.9c12.2,0,17.4-3.1,17.4-9.4h7.1v64.3h-7.1c0-5.5-5.1-8.6-17.4-8.6H410.6Z" transform="translate(0 0)"/><path d="M1197.7,158.2v5.5c-5.1.8-9.69995,3.9-9.69995,12.6v77.2c0,6.3,2.6,8.6,9.19995,9.8v5.5c-32.1,14.1-110.5,43.9-198.6,43.9-117.2,0-220.1-44.7-220.1-146.5S898.6,19.5,1004.6,19.5c41.69995,0,81.6,7.5,110.5,14.5,27,9,46.9,16.1,50.4,16.1,4.6,0,9.19995-2,11.19995-4.3l7.1,2.4-49.4,64.3-7.1-3.5a22.55823,22.55823,0,0,0,1-6.7c0-12.2-55-36.4-122.8-36.4-85.5,0-154.8,32.5-154.8,98.7,0,69.4,69.3,101.9,147.7,101.9,64.2,0,101.9-16.9,117.2-25.5V208.5H1028c-10.2,0-16.3,3.9-16.3,9.4h-7.1v-69h7.1c0,5.5,6.1,9.4,16.3,9.4L1197.7,158.2Z" transform="translate(0 0)"/><path d="M1198.7,308.6v-5.5c9.19995-.4,12.19995-2.4,19.4-14.9L1357.2,47.6c2.6-3.9,5.6-8.2,5.6-11.8,0-4.3-4.1-6.3-10.69995-7.1V23.2h111.1v5.5C1455.5,29.5,1452.5,31.8,1452.5,34.6c0,3.1,2,6.3,4.6,10.2l147.69995,243.4c7.1,12.2,9.2,14.9,19.9,14.9v5.5h-101.4v-5.5c6.6,0,9.2-2,9.2-3.9,0-4.3-4.6-9.8-38.7-65.8H1319c-29.5,50.9-37.19995,58.8-37.19995,63.9,0,3.5,3.1,5.5,7.69995,5.9v5.5L1198.7,308.6Zm265.4-119.8L1403,86l-60.1,102.7h121.2Z" transform="translate(0 0)"/><path d="M2083.6001,109.6l-7.7-3.1a28.5321,28.5321,0,0,0,.5-6.3c0-9.4-61.6-34.4-125.3-34.4-81,0-153.80005,28.3-153.80005,100.3s72.9,100.3,159.9,100.3c70.8,0,131.50013-30.5,131.50013-48.2a17.13308,17.13308,0,0,0-2-7.1l5.10009-2.7,52.5,57.6-4.10009,1.6a16.55515,16.55515,0,0,0-6.1001-1.2c-15.30005,0-54.5,46.2-182.9,46.2-113.6,0-226.2-43.5-226.2-146.5,0-91.7,104.9-146.5,229.80005-146.5,89.6,0,149.70007,30.5,160.50012,30.5,5.1001,0,8.19995-.4,11.69995-4.7l7.1001,2Z" transform="translate(0 0)"/><path d="M2181.80005,40.6c0-8.6-2-11.8-14.3-11.8V23.3h225.2c129.3999,0,184.3999,56.8,184.3999,142.6,0,94.8-68.30005,142.6-173.2,142.6H2167.5V303c12.2,0,14.3-3.1,14.3-11.8ZM2254.2,262.4H2403.8999c63.2,0,100.80005-25.1,100.80005-96.4,0-76.1-50.8999-96.4-118.2-96.4H2254l.2,192.8Z" transform="translate(0 0)"/><path d="M2846.7,126.5h7.1001c2,6.7,10.2,9.8,38.7,9.8,69.8,0,88.6001-17.7,88.6001-34.4,0-18.1-24.5-36-78-36-68.80005,0-116.2,28.9-116.2,41.9a15.92943,15.92943,0,0,0,2,7.1l-6.1001,3.9L2729,64.2l7.1001-3.1a14.93843,14.93843,0,0,0,7.69995,2.4c14.80005,0,45.80005-43.9,164-43.9,83.1001,0,145.7,34.4,145.7,79.6,0,26.7-18.8999,47.4-51.3999,54.9v.8c42.8,11.8,72.3999,34.1,72.3999,71.3,0,50.5-64.2,86.6-163,86.6-133,0-162-35.2-179.3-35.2-4.1001,0-7.1001,1.6-10.2,3.5l-8.2-2.4,40.7-67.4,7.7,3.5c0,1.2-.5,2.7-.5,4.7,0,15.3,56.5,47,141.19995,47,64.2,0,99.30005-17.3,99.30005-41.9,0-21.6-26.5-45-100.30005-45-38.19995,0-46.3,4.3-47.8999,11.4h-7.1001V126.6H2846.7Z" transform="translate(0 0)"/><path d="M3087.5,77.5l7.1001-4.3c1,1.2,3.1001,2,6.1001,2,14.3,0,52.5-55.6,161-55.6,63.19995,0,142.10009,27.9,142.10009,82.3,0,104.2-194.60009,93.2-246.60009,159.1h245.60009c11.19995,0,15.3-3.1,15.3-9.4h7.1001v65.8h-7.1001c0-5.5-4.1001-8.6-15.3-8.6h-327c0-143,255.69995-136.8,255.69995-204.1,0-25.5-38.19995-38.8-72.8999-38.8-58.6001-.1-108.5,37.5-108.5,54.8,0,3.5,2,5.9,4.1001,7.9l-6.6001,4.7Z" transform="translate(0 0)"/><path d="M3444.2,308.6v-5.5c12.8-.8,16.3-6.7,26-16.5l127.3999-125.8-120.2-123c-3.1001-3.1-7.69995-9-20.3999-9V23.2h120.2v5.5c-6.6001,0-10.7,1.6-10.7,5.5,0,1.6,2.6001,4.7,7.7,9.8l69.3,71.3,72.3999-71.7C3720,39.3,3723,36.1,3723,33.8c0-3.1-4.1001-5.1-8.7-5.1V23.2h113.1001v5.5c-16.8.4-23.5,7.1-33.1001,16.5L3683.2,155.3l128.3999,131.3c10.19995,10.6,13.8,16.1,27.6001,16.5v5.5H3720v-5.5c7.7,0,9.7-1.2,9.7-5.1,0-3.5-8.7-11.4-18.3999-21.2l-74.3999-75.7-90.1001,89.3c-2.6001,2.7-4.6001,3.9-4.6001,7.5,0,3.1,4.1001,5.1,10.69995,5.1v5.5H3444.2Z" transform="translate(0 0)"/><path d="M332.6,92.4l-8.2-3.5a18.56124,18.56124,0,0,0,1-5.5c0-5.1-47.9-32.5-131-32.5C115.1,50.9,81,69.8,81,94c0,64.3,300-29.7,300,112.1,0,51.7-65.2,91.7-195.7,91.7C61,297.8,25.4,267.3,13.6,267.3c-3.1,0-4.6,2-7.1,3.1L0,269.2l42.3-66.6,8.2,3.1c0,1.6-1,3.1-1,6.3,0,23.2,65.7,39.5,131,39.5,92.7,0,124.3-20.4,124.3-41.9,0-76.8-296,18.5-296-111.7C8.7,32.1,98.8,4.7,197.7,4.7c88.6,0,150.8,29.7,156.9,29.7,6.6,0,7.7-1.6,9.2-2.7l8.2,2Z" transform="translate(0 0)" style="fill:#da221f"/><path d="M395.8,288.4c11.2,0,13.3-3.1,13.3-11.8V25.9c0-8.6-2-11.8-13.3-11.8V8.6H726.4c12.2,0,17.4-3.1,17.4-8.6h7.1V65.1h-7.1c0-7.1-5.1-10.2-17.4-10.2h-245v69.8h159.9c12.2,0,17.4-3.1,17.4-10.2h7.1v65.9h-7.1c0-3.1-1-5.5-4.1-7.1-2.6-1.6-7.1-2.4-13.3-2.4H481.4v76.8H731.1c12.2,0,17.4-3.1,17.4-9.4h7.1v64.3h-7.1c0-5.5-5.1-8.6-17.4-8.6H395.8Z" transform="translate(0 0)" style="fill:#da221f"/><path d="M1182.9,143.4v5.5c-5.1.8-9.69995,3.9-9.69995,12.6v77.2c0,6.3,2.6,8.6,9.19995,9.8V254c-32.1,14.1-110.5,43.9-198.6,43.9-117.2,0-220.1-44.7-220.1-146.5S883.8,4.7,989.8,4.7c41.7,0,81.6,7.5,110.50006,14.5,27,9,46.9,16.1,50.4,16.1,4.6,0,9.19995-2,11.19995-4.3l7.1,2.4-49.4,64.3-7.1-3.5a22.55821,22.55821,0,0,0,1-6.7c0-12.2-55-36.4-122.8-36.4-85.5,0-154.8,32.5-154.8,98.7,0,69.4,69.3,101.9,147.7,101.9,64.2,0,101.9-16.9,117.2-25.5V193.7h-87.6c-10.2,0-16.3,3.9-16.3,9.4h-7.1v-69h7.1c0,5.5,6.1,9.4,16.3,9.4l169.7-.1Z" transform="translate(0 0)" style="fill:#da221f"/><path d="M1183.9,293.9v-5.5c9.2-.4,12.2-2.4,19.4-14.9L1342.4,32.9c2.6-3.9,5.6-8.2,5.6-11.8,0-4.3-4.1-6.3-10.69995-7.1V8.6h111.1v5.5c-7.69995.8-10.69995,3.1-10.69995,5.9,0,3.1,2,6.3,4.6,10.2L1590,273.5c7.1,12.2,9.19995,14.9,19.9,14.9v5.5H1508.5v-5.5c6.6,0,9.19995-2,9.19995-3.9,0-4.3-4.6-9.8-38.69995-65.8H1304.30005c-29.5,50.9-37.19995,58.8-37.19995,63.9,0,3.5,3.1,5.5,7.69995,5.9V294l-90.9-.1Zm265.4-119.9-61.1-102.7L1328.2,174Z" transform="translate(0 0)" style="fill:#da221f"/><path d="M2068.80005,94.8l-7.69995-3.1a28.5321,28.5321,0,0,0,.5-6.3c0-9.4-61.6-34.4-125.30005-34.4-81,0-153.80005,28.3-153.80005,100.3s72.9,100.3,159.9,100.3c70.80005,0,131.49988-30.5,131.49988-48.2a17.13308,17.13308,0,0,0-2-7.1L2077,193.6l52.5,57.6-4.1001,1.6a16.55491,16.55491,0,0,0-6.1001-1.2c-15.3,0-54.5,46.2-182.9,46.2-113.6,0-226.19995-43.5-226.19995-146.5,0-91.7,104.9-146.5,229.80005-146.5,89.6,0,149.70007,30.5,160.50012,30.5,5.1001,0,8.2-.4,11.7-4.7l7.1001,2Z" transform="translate(0 0)" style="fill:#da221f"/><path d="M2167.1001,25.9c0-8.6-2-11.8-14.30005-11.8V8.6H2378c129.3999,0,184.3999,56.8,184.3999,142.6,0,94.8-68.3,142.6-173.19995,142.6h-236.3999v-5.5c12.2,0,14.30005-3.1,14.30005-11.8Zm72.2998,221.8h149.7c63.19995,0,100.8-25.1,100.8-96.4,0-76.1-50.8999-96.4-118.19995-96.4H2239.2l.19995,192.8Z" transform="translate(0 0)" style="fill:#da221f"/><path d="M2831.8999,111.7H2839c2,6.7,10.2,9.8,38.7,9.8,69.8,0,88.6001-17.7,88.6001-34.4,0-18.1-24.5-36-78-36C2819.5,51.1,2772.1001,80,2772.1001,93a15.92943,15.92943,0,0,0,2,7.1L2768,104l-53.8999-54.5,7.1001-3.1a14.9384,14.9384,0,0,0,7.69995,2.4c14.80005,0,45.80005-43.9,164-43.9,83.10009,0,145.7,34.4,145.7,79.6,0,26.7-18.8999,47.4-51.3999,54.9v.8c42.8,11.8,72.3999,34.1,72.3999,71.3,0,50.5-64.2,86.6-163,86.6-133,0-162-35.2-179.30005-35.2-4.1001,0-7.1001,1.6-10.19995,3.5l-8.2-2.4,40.7-67.4,7.69995,3.5c0,1.2-.5,2.7-.5,4.7,0,15.3,56.5,47,141.2,47,64.2,0,99.3-17.3,99.3-41.9,0-21.6-26.5-45-100.3-45-38.2,0-46.3,4.3-47.8999,11.4H2832V111.9h-.1001Z" transform="translate(0 0)" style="fill:#da221f"/><path d="M3072.80005,62.7l7.1001-4.3c1,1.2,3.10009,2,6.10009,2,14.30005,0,52.5-55.6,161-55.6,63.2,0,142.1001,27.9,142.1001,82.3,0,104.2-194.6001,93.2-246.6001,159.1h245.6001c11.2,0,15.3-3.1,15.3-9.4h7.1001v65.8h-7.1001c0-5.5-4.1001-8.6-15.3-8.6h-327c0-143,255.7-136.8,255.7-204.1,0-25.5-38.2-38.8-72.8999-38.8-58.6001-.1-108.5,37.5-108.5,54.8,0,3.5,2,5.9,4.1001,7.9l-6.6001,4.7Z" transform="translate(0 0)" style="fill:#da221f"/><path d="M3429.3999,293.9v-5.5c12.80005-.8,16.30005-6.7,26-16.5l127.3999-125.8-120.19995-123c-3.10009-3.1-7.7-9-20.3999-9V8.6H3562.3999v5.5c-6.6001,0-10.69995,1.6-10.69995,5.5,0,1.6,2.6001,4.7,7.69995,9.8L3628.7,100.7l72.3999-71.7c4.1001-4.3,7.1001-7.5,7.1001-9.8,0-3.1-4.1001-5.1-8.7-5.1V8.6h113.1001v5.5c-16.80005.4-23.5,7.1-33.1001,16.5L3668.3999,140.7,3796.7998,272c10.2,10.6,13.80005,16.1,27.6001,16.5V294H3705v-5.5c7.7,0,9.7-1.2,9.7-5.1,0-3.5-8.7-11.4-18.3999-21.2l-74.3999-75.7-90.1001,89.3c-2.6001,2.7-4.6001,3.9-4.6001,7.5,0,3.1,4.1001,5.1,10.69995,5.1v5.5Z" transform="translate(0 0)" style="fill:#da221f"/></svg>