<svg id="Layer_1" data-name="Layer 1" xmlns="http://www.w3.org/2000/svg" viewBox="0 0 3839 1003.09998"><rect x="35.2" y="765.90002" width="3728.6999" height="207.5" style="fill:#fff"/><g id="SNES"><path d="M177,261.1c12.5,23.2,76.9,130.5,84,148.4,8.9,17.9,16.1,46.5,8.9,76.9L246.7,616.9a76.84463,76.84463,0,0,1-75.1,60.8H59c-34,0-59-26.8-59-60.8V606.2L30.4,434.5h78.7L84,579.3v1.8a19.86884,19.86884,0,0,0,19.7,19.7h42.9c14.3,0,26.8-10.7,30.4-23.2l17.9-94.8c3.6-17.9,0-28.6-16.1-57.2C166.3,402.4,112.6,300.4,96.5,270,75,230.7,73.3,212.8,78.6,178.8L98.3,62.6c7.2-35.8,37.5-60.8,73.3-60.8H284.2c32.2,0,60.8,26.8,60.8,60.8V73.3L316.4,239.6H237.7l25-139.5V96.5A19.86884,19.86884,0,0,0,243,76.8H200.1c-14.3,0-25,10.7-28.6,23.2l-14.3,75.1C152,212.8,159.1,230.7,177,261.1Z" transform="translate(0 0)" style="fill:#ed2224"/><path d="M382.6,579.3h0c0,12.5,8.9,21.5,19.7,21.5h42.9c14.3,0,25-10.7,28.6-23.2L579.3,0h80.5L547.2,615.1a76.84463,76.84463,0,0,1-75.1,60.8H359.4c-32.2,0-59-26.8-59-60.8V602.6L409.5,0h78.7Z" transform="translate(0 0)" style="fill:#ed2224"/><polygon points="997.7 0 1180.1 0 1167.6 76.9 1065.7 76.9 1028.1 289.7 1128.3 289.7 1114 366.6 1013.8 366.6 970.9 600.8 1071.1 600.8 1058.5 675.9 874.4 675.9 997.7 0" style="fill:#ed2224"/><path d="M1525.2,675.9,1648.6,0h82.3c35.80005,361.2,35.80005,448.8,37.5,516.8,1.80005-71.5,10.7-169.9,73.30005-516.8h82.3l-123.4,675.9h-82.30005c-34-361.2-35.80005-436.3-35.80005-504.2-3.6,80.5-12.5,159.1-73.30005,504.2Z" transform="translate(0 0)" style="fill:#ed2224"/><polygon points="1940.1 675.9 1859.6 675.9 1981.2 0 2063.4 0 1940.1 675.9" style="fill:#ed2224"/><polygon points="2608.8 76.9 2553.4 76.9 2444.3 675.9 2362 675.9 2472.9 76.9 2413.9 76.9 2428.2 0 2624.9 0 2608.8 76.9" style="fill:#ed2224"/><polygon points="2658.9 0 2841.3 0 2828.7 76.9 2726.8 76.9 2689.3 289.7 2789.4 289.7 2775.1 366.6 2675 366.6 2632 600.8 2732.2 600.8 2719.7 675.9 2535.5 675.9 2658.9 0" style="fill:#ed2224"/><path d="M2002.6,675.9,2126,0h82.3c35.80005,361.2,35.80005,448.8,37.5,516.8,1.80005-71.5,10.7-169.9,73.30005-516.8h82.3L2278,675.9h-82.3c-34-361.2-35.80005-436.3-35.80005-504.2-3.6001,80.5-12.5,159.1-73.3,504.2Z" transform="translate(0 0)" style="fill:#ed2224"/><path d="M2773.30005,675.9,2896.7,0H2979c35.8,361.2,35.8,448.8,37.5,516.8,1.8-71.5,10.7-169.9,73.3-516.8h82.30005L3048.7002,675.9h-82.30005c-34-361.2-35.8-436.3-35.8-504.2-3.6001,80.5-12.5,159.1-73.30005,504.2Z" transform="translate(0 0)" style="fill:#ed2224"/><path d="M586.5,675.9,709.9,0h177a60.26892,60.26892,0,0,1,60.8,60.8c0,3.6,0,7.2-1.8,10.7L903,311.1c-5.4,35.8-35.8,60.8-73.3,60.8H724.2L668.8,674.1l-82.3,1.8ZM801.1,296.8c14.3,0,25-8.9,28.6-23.2l34-175.2V94.8a19.86886,19.86886,0,0,0-19.7-19.7H776L734.9,296.8ZM1325,400.5h0c0-12.5-8.9-21.5-19.69995-21.5h-64.4l-53.6,298.6H1105L1226.6,1.8h180.6A60.269,60.269,0,0,1,1468,62.6,34.37422,34.37422,0,0,1,1466.2,75.1l-37.5,212.8c-5.4,28.6-25,48.3-51.9,57.2,23.2,8.9,34,30.4,30.4,55.4v10.7L1358.8999,677.6h-82.3Zm-5.4-103.7c14.3,0,25-10.7,28.6-23.2L1380.3999,98.4V94.8A19.86884,19.86884,0,0,0,1360.7,75.1h-64.4L1257,295l62.6,1.8ZM3229.30005,0h184.2a60.269,60.269,0,0,1,60.8,60.8c0,3.6,0,7.2-1.8,10.7l-98.3,543.6c-5.3999,34-35.80005,60.8-73.30005,60.8H3106ZM3272.2,600.8c14.3,0,25-10.7,28.6001-23.2l87.6001-479.2V94.8a19.86878,19.86878,0,0,0-19.69995-19.7h-73.30005L3200.7,599h71.5ZM3601.2,0h114.3999c32.19995,0,59,26.8,59,60.8V71.5l-96.60009,543.6a76.84462,76.84462,0,0,1-75.1001,60.8h-112.6001c-34,0-59-26.8-59-60.8V602.6l96.6001-541.8C3535,26.8,3565.3999,0,3601.2,0ZM3513.6001,581.1a19.86877,19.86877,0,0,0,19.69995,19.7H3576.2c14.3,0,25-10.7,28.6001-23.2L3690.6001,98.4V94.8a19.86877,19.86877,0,0,0-19.7-19.7H3626.2002c-12.5,0-25,10.7-28.6001,23.2l-85.80005,479.2A5.57466,5.57466,0,0,1,3513.6001,581.1Z" transform="translate(0 0)" style="fill:#ed2224"/><path d="M1246.30005,888.7l5.4-44.7c0-7.2,1.8-14.3,3.6-21.5,0-3.6,1.80005-12.5,1.80005-16.1h0c-1.80005,3.6-3.6,12.5-5.4,16.1-3.6,7.2-5.4,14.3-8.9,21.5l-19.69995,44.7Z" transform="translate(0 0)" style="fill:#ed2224"/><path d="M892.3,815.4H872.6l-10.7,44.7h21.5c8.9,0,17.9-7.2,21.5-23.2C908.3,818.9,903,815.4,892.3,815.4Z" transform="translate(0 0)" style="fill:#ed2224"/><path d="M8.9,740.3v262.8H3781.7V740.3Zm173.5,75.1H134.1l-10.7,41.1h44.7l-5.4,23.2H118l-12.5,50.1h48.3L148.4,953H73.3l41.1-159.1h75.1ZM354,953H325.4L320,895.8c-1.8-19.7-3.6-37.5-1.8-64.4h0c-1.8,12.5-5.4,28.6-8.9,46.5-3.6,16.1-7.2,32.2-10.7,44.7L291.4,953H264.6l41.1-159.1h28.6l5.4,59c1.8,17.9,3.6,37.5,1.8,64.4h0c3.6-14.3,5.4-30.4,8.9-44.7,3.6-16.1,7.2-30.4,10.7-44.7l8.9-32.2h27ZM572.2,815.4H541.8L506,951.3H479.2L515,815.4H482.8l5.4-23.2h89.4Zm171.6,0H695.5l-10.7,41.1h44.7l-5.4,23.2H679.4L667,929.8h48.3L709.9,953H634.8l41.1-159.1H751Zm189.6,16.1c-5.4,17.9-14.3,35.8-32.2,39.3h0c16.1,1.8,17.9,14.3,12.5,28.6-1.8,7.2-12.5,46.5-7.2,50.1v3.6H876.1c0-10.7,5.4-30.4,7.2-41.1,1.8-10.7,5.4-23.2-1.8-26.8-7.2-1.8-14.3-1.8-21.5-1.8h-5.4l-17.9,67.9H810l41.1-159.1h50.1C926.2,792.1,942.3,801.1,933.4,831.5Zm182.4-16.1h-30.4l-35.8,135.9h-26.8l35.8-135.9h-32.2l5.4-23.2h89.4ZM1269.5,953h-28.6l3.6-41.1h-32.19995L1194.4,953h-28.6l76.9-159.1h35.8ZM1407.2,953H1380.3999l41.1-159.1h26.8ZM1620,953H1593.2l-5.4-57.2c-1.8-19.7-3.6-37.5-1.8-64.4h0c-1.80005,12.5-5.4,28.6-8.9,46.5-3.6,16.1-7.2,32.2-10.7,44.7L1559.2,953H1532.3999l41.1-159.1h28.6l5.4,59c1.8,17.9,3.6,37.5,1.8,64.4h0c3.6-14.3,5.4-30.4,8.9-44.7,3.6-16.1,7.19995-30.4,10.69995-44.7l8.9-32.2H1664.6ZM1863.2,953H1836.3999l12.5-50.1c8.9-32.2,17.9-64.4,26.80005-94.8h0L1809.5,953h-16.1l10.7-144.8h-1.80005c-7.19995,32.2-14.3,64.4-23.19995,94.8l-12.5,50.1h-26.80005l41.1-159.1h42.9l-5.4,75.1c0,12.5-5.4,32.2-7.19995,44.7h0c5.4-16.1,10.69995-34,16.1-44.7l34-75.1h42.9Zm223.5-137.6H2038.3999L2027.7,856.5h44.69995L2067,879.7h-44.69995l-12.5,50.1h48.30005l-5.3999,23.2h-75.1l41.1-159.1h75.10009ZM2240.5,953h-28.6001L2206.5,895.8c-1.8-19.7-3.6001-37.5-1.8-64.4h0c-1.80005,12.5-5.3999,28.6-8.8999,46.5-3.6001,16.1-7.19995,32.2-10.69995,44.7l-7.2,30.4h-26.8l41.1001-159.1h28.60009l5.39991,59c1.8,17.9,3.60009,37.5,1.8,64.4h0c3.6001-14.3,5.39991-30.4,8.89991-44.7,3.60009-16.1,7.2-30.4,10.7-44.7l8.8999-32.2h26.8ZM2464,815.4h-30.3999l-35.80005,135.9H2371l35.8-135.9H2374.6001L2380,792.2h89.3999Zm293.2,25H2730.3999c3.6001-14.3,7.2-28.6-8.8999-28.6-8.8999,0-16.1001,3.6-17.8999,14.3-3.6001,12.5,1.8,16.1,8.8999,23.2,7.2,5.4,19.7,17.9,25,26.8,7.2,10.7,7.2,19.7,3.6001,34-7.2,30.4-30.3999,46.5-57.2,46.5-32.19995,0-39.3-19.7-30.39991-48.3l3.6001-12.5h26.8l-1.8,8.9c-5.3999,16.1-3.6001,26.8,10.7,26.8,10.69995,0,17.89991-7.2,21.5-17.9,1.8-8.9,0-16.1-5.3999-21.5-10.69995-12.5-26.8-21.5-32.19995-37.5-1.80005-7.2-3.6001-16.1,0-25,7.19995-26.8,25-42.9,53.6001-42.9C2771.5,788.5,2760.80005,826.1,2757.2,840.4Zm148.40015,44.7L2887.7002,953h-26.80005l17.8999-67.9-14.3-91.2h28.6001l3.6001,41.1c0,7.2,1.8,16.1,0,25h0a233.28155,233.28155,0,0,1,16.10009-30.4l21.5-35.8h28.6001Zm225.2998-44.7h-25c3.6001-14.3,7.2-28.6-8.8999-28.6-8.8999,0-16.1001,3.6-17.8999,14.3-3.6001,12.5,1.8,16.1,8.8999,23.2,7.2,5.4,19.7,17.9,25,26.8,7.2,10.7,7.2,19.7,3.6001,34-7.2,30.4-30.3999,46.5-57.2,46.5-32.19995,0-39.3-19.7-30.39991-48.3l3.6001-12.5h26.8l-1.8,8.9c-5.3999,16.1-3.6001,26.8,10.7,26.8,10.69995,0,17.89991-7.2,21.5-17.9,1.8-8.9,0-16.1-5.3999-21.5-10.69995-12.5-26.8-21.5-32.19995-37.5-1.80005-7.2-3.6001-16.1,0-25,7.19995-26.8,25-42.9,53.6001-42.9C3147,788.5,3136.30005,826.1,3130.8999,840.4Zm182.40015-25H3281.1001l-35.80005,135.9h-26.8l35.8-135.9H3222.1001l5.3999-23.2h89.3999Zm178.80005,0h-48.30005l-10.69995,41.1h44.69995l-5.3999,23.2H3427.7002l-12.5,50.1h48.3l-5.3999,23.2h-76.8999l41.1001-159.1h75.10009ZM3694.2,953H3667.3999l12.5-50.1c8.8999-32.2,17.8999-64.4,26.80005-94.8h0L3640.5,953h-16.1001l10.7-144.8h-1.80005c-7.19995,32.2-14.3,64.4-23.19995,94.8l-12.5,50.1H3570.7998L3611.8999,794h42.8999l-5.3999,75.1c0,12.5-5.3999,32.2-7.19995,44.7h0c5.3999-16.1,10.69995-34,16.1001-44.7l34-75.1H3735.2Z" transform="translate(0 0)" style="fill:#ed2224"/><path d="M3744.2,675.9H3737V618.7h-21.5v-5.4h48.3v5.4h-21.5l1.8999,57.2Z" transform="translate(0 0)" style="fill:#ed2224"/><path d="M3806.80005,665.2l21.5-51.9H3839v64.4h-7.2V622.3h0l-23.19995,55.4H3805l-23.2-55.4h0v55.4h-7.19995V613.3h10.69995Z" transform="translate(0 0)" style="fill:#ed2224"/></g></svg>